<?xml version="1.0" encoding="UTF-8"?>
<!-- generated by Finnhub -->
<svg viewBox="0 0 55.5 55.5" xmlns="http://www.w3.org/2000/svg">
<path d="M 0,0 H 55.5 V 55.5 H 0 Z" fill="rgb(239, 242, 248)"/>
<path d="M 44.99,34.475 C 45,30.52 43.49,25.83 42.74,23.99 C 41.49,23.39 38.6,22 37,22 C 35,22 33.8,23.44 33.3,25.81 C 32.8,28.19 32.23,30 29.4,30 C 26.56,30 24.99,28.54 24.99,26.17 C 24.99,21.88 29.19,20 32.78,20 C 36.38,20 40.33,20.98 42.02,22.18 C 39.06,16.56 35.37,14 33,14 S 24.36,17.14 20.22,21.28 C 13.29,27.88 11,33.78 11,36.08 C 11,38.36 12.3,40 14.44,40 C 19.28,40 23.39,33 28.99,33 C 34.59,33 36.72,40 41.46,40 C 44.14,40 45,37.4 45,34.49 Z" fill="url(#a)"/>
<defs>
<linearGradient id="a" x1="28" x2="28" y1="14" y2="40" gradientUnits="userSpaceOnUse">
<stop stop-color="rgb(19, 97, 134)" offset="0"/>
<stop stop-color="rgb(28, 63, 83)" offset="1"/>
</linearGradient>
</defs>
</svg>
