<?xml version="1.0" encoding="UTF-8"?>
<!-- generated by Finnhub -->
<svg viewBox="0 0 55.5 55.5" xmlns="http://www.w3.org/2000/svg">
<path d="M 0,0 H 55.5 V 55.5 H 0 Z" fill="rgb(239, 242, 248)"/>
<path d="M 47.99,18.985 H 8 V 37 H 48 V 19 Z M 47,20 H 9 V 36 H 47 V 20 Z" fill="url(#d)" fill-rule="evenodd"/>
<path d="M 17.99,29.985 L 15.5,25 L 13,30 H 14.13 L 14.47,29.29 H 16.53 L 16.87,30 H 18 Z M 14.87,28.46 L 15.5,27.16 L 16.13,28.46 H 14.87 Z" fill="url(#a)"/>
<path d="M 21.99,27.715 L 19,25 V 30 H 20 V 27.27 L 23,30 V 25 H 22 V 27.73 Z" fill="url(#a)"/>
<path d="M 31.49,24.985 C 32.94,25 34,26.06 34,27.5 S 32.95,30 31.5,30 A 2.43,2.43 0 0,1 29,27.5 C 29,26.06 30.06,25 31.5,25 Z M 31.5,25.89 C 30.58,25.89 30,26.61 30,27.5 S 30.58,29.11 31.5,29.11 S 33,28.38 33,27.5 S 32.42,25.89 31.5,25.89 Z" fill="url(#a)"/>
<path d="M 35.99,28.985 V 25 H 35 V 30 H 38 V 29 H 36 Z" fill="url(#a)"/>
<path d="M 38.99,29.985 V 25 H 40.81 C 42.21,25 43,26.2 43,27.5 C 43,28.81 42.22,30 40.8,30 H 39 Z M 40.82,26 H 40 V 29 H 40.82 C 41.62,29 42,28.53 42,27.5 C 42,26.46 41.62,26 40.82,26 Z" fill="url(#a)"/>
<path d="M 26.36,24.985 C 26.92,25 27.41,25.1 27.85,25.33 V 26.29 A 2.8,2.8 0 0,0 26.36,26 C 25.48,26 25,26.64 25,27.55 C 25,28.45 25.48,29 26.36,29 C 26.63,29 26.84,28.96 27,28.9 V 27.55 C 27.2,27.55 27.4,27.52 27.57,27.5 C 27.73,27.48 27.87,27.46 28,27.46 V 29.52 C 27.63,29.81 27.08,30 26.38,30 C 25.03,30 24,29 24,27.55 C 24,26.09 25.02,25 26.37,25 Z" fill="url(#a)"/>
<path d="M 47.99,25.785 L 47,25.9 V 36 H 9 V 29.24 L 8,29.32 V 37 H 48 V 25.8 Z" fill="url(#c)"/>
<path d="M 17.25,28.495 L 18,30 H 16.87 L 16.53,29.29 H 14.47 L 14.13,30 H 13 L 13.58,28.83 L 17.26,28.51 Z M 19,28.36 V 30 H 20 V 28.27 L 19,28.36 Z M 21,28.18 L 23,30 V 28 L 21,28.18 Z M 24.02,27.92 A 2.3,2.3 0 0,0 26.38,30 C 27.08,30 27.63,29.8 28,29.52 V 27.57 L 27,27.65 V 28.9 C 26.84,28.96 26.63,29 26.36,29 C 25.57,29 25.11,28.57 25.02,27.83 L 24.02,27.92 Z M 29,27.48 V 27.5 C 29,28.94 30.06,30 31.5,30 C 32.95,30 34,28.94 34,27.5 C 34,27.34 33.99,27.19 33.96,27.04 L 32.96,27.13 C 32.99,27.25 33,27.37 33,27.5 C 33,28.38 32.42,29.11 31.5,29.11 S 30,28.39 30,27.5 A 2,2 0 0,1 30,27.39 L 29,27.48 Z M 35,26.95 V 30 H 38 V 29 H 36 V 26.86 L 35,26.96 Z M 39,26.6 V 30 H 40.8 C 42.22,30 43,28.81 43,27.5 C 43,27.06 42.91,26.64 42.74,26.27 L 41.71,26.37 C 41.91,26.61 42,26.98 42,27.5 C 42,28.53 41.61,29 40.82,29 H 40 V 26.51 L 39,26.6 Z" fill="url(#b)"/>
<defs>
<linearGradient id="d" x1="8" x2="49" y1="22.5" y2="22.5" gradientUnits="userSpaceOnUse">
<stop stop-color="rgb(254, 226, 162)" offset="0"/>
<stop stop-color="rgb(250, 187, 14)" offset="1"/>
</linearGradient>
<linearGradient id="a" x1="13" x2="43.75" y1="25.97" y2="25.97" gradientUnits="userSpaceOnUse">
<stop stop-color="rgb(254, 226, 162)" offset="0"/>
<stop stop-color="rgb(250, 187, 14)" offset="1"/>
</linearGradient>
<linearGradient id="c" x1="36" x2="47.67" y1="27.81" y2="36.26" gradientUnits="userSpaceOnUse">
<stop stop-color="rgb(216, 146, 34)" offset="0"/>
<stop stop-color="rgb(74, 37, 1)" offset="1"/>
</linearGradient>
<linearGradient id="b" x1="34" x2="37.65" y1="26.94" y2="32.88" gradientUnits="userSpaceOnUse">
<stop stop-color="rgb(216, 146, 34)" offset="0"/>
<stop stop-color="rgb(74, 37, 1)" offset="1"/>
</linearGradient>
</defs>
</svg>
