<?xml version="1.0" encoding="UTF-8"?>
<!-- generated by Finnhub -->
<svg viewBox="0 0 55.5 55.5" xmlns="http://www.w3.org/2000/svg">
<path d="M 0,0 H 55.5 V 55.5 H 0 Z" fill="rgb(239, 242, 248)"/>
<path d="M 14.99,11.985 C 16,13 15.99,13.7 15.99,14.88 L 16,44 C 16.56,43.22 18.14,42.96 18.64,42.13 C 18.97,41.6 19,40.93 19,40.31 V 31.37 L 25.98,37.17 L 27.93,38.79 V 38.76 L 27.99,38.82 L 28.08,38.76 A 0.05,0.05 0 0,0 28.07,38.79 L 30.02,37.18 L 37,31.37 V 40.31 C 37,40.94 37.03,41.6 37.36,42.13 C 37.86,42.96 39.43,43.33 39.99,44.13 L 40,15 C 40,13.81 40,13 41,12 H 15 Z M 28.13,19.73 L 27.99,19.8 L 27.87,19.73 C 25.5,17.83 22.72,17.43 20.22,15.97 C 19.61,15.61 19.17,15.6 19,15 H 37 C 36.84,15.6 36.32,15.65 35.78,15.97 C 33.29,17.44 30.49,17.82 28.13,19.73 Z M 28.36,28.34 C 28.33,28.72 28.22,29.17 28.01,29.51 C 27.83,29.14 27.7,28.77 27.66,28.36 C 27.58,27.55 27.79,26.74 28.02,26.13 C 28.23,26.73 28.44,27.55 28.36,28.34 Z M 18.96,22.5 L 18.94,22.3 C 18.87,21.25 18.98,20.18 18.95,19.12 C 18.95,18.84 18.93,18.54 18.91,18.26 C 18.95,18.39 19.03,18.51 19.13,18.6 C 19.51,18.92 20,19 20.47,19.06 C 21.95,19.28 23.43,19.74 24.65,20.64 C 25.01,20.91 25.38,21.18 25.57,21.59 C 25.75,22.03 25.83,22.5 25.78,22.98 C 25.68,24.38 24.68,25.68 23.38,26.1 C 22.08,26.52 20.52,26 19.72,24.86 A 4.93,4.93 0 0,1 18.95,22.5 Z M 29.53,34.28 L 28,35.53 L 26.46,34.28 C 23.92,32.2 21.24,30.24 19.01,27.82 A 7.05,7.05 0 0,0 25.2,28.62 C 25.56,28.5 26,28.37 26.27,28.65 C 26.37,28.79 26.43,28.95 26.45,29.11 C 26.7,30.07 27.3,30.98 28,31.68 A 5.62,5.62 0 0,0 29.57,29.11 A 1,1 0 0,1 29.75,28.65 C 30,28.37 30.46,28.5 30.82,28.62 A 6.94,6.94 0 0,0 37.01,27.82 C 34.78,30.24 32.09,32.2 29.54,34.28 Z M 37.05,19.12 C 37.02,20.18 37.13,21.25 37.05,22.3 V 22.5 C 36.96,23.33 36.76,24.19 36.28,24.86 A 3.35,3.35 0 0,1 32.62,26.1 A 3.6,3.6 0 0,1 30.22,22.98 C 30.17,22.5 30.25,22.03 30.43,21.59 C 30.63,21.18 30.99,20.91 31.35,20.64 A 9.34,9.34 0 0,1 35.53,19.06 A 2.5,2.5 0 0,0 36.87,18.6 C 36.97,18.51 37.05,18.4 37.09,18.26 C 37.07,18.54 37.05,18.84 37.05,19.12 Z" fill="rgb(33, 29, 29)"/>
<path d="M 22.49,24.985 A 1.5,1.5 0 1,0 22.5,22 A 1.5,1.5 0 0,0 22.5,25 Z M 33.5,22 A 1.5,1.5 0 1,0 33.5,25 A 1.5,1.5 0 0,0 33.5,22 Z" fill="rgb(33, 29, 29)"/>
</svg>
