<?xml version="1.0" encoding="UTF-8"?>
<!-- generated by Finnhub -->
<svg viewBox="0 0 55.5 55.5" xmlns="http://www.w3.org/2000/svg">
<path d="M 0,0 H 55.5 V 55.5 H 0 Z" fill="rgb(239, 242, 248)"/>
<path d="M 19.79,18.165 L 17.72,13.79 C 19,13.2 22.29,12 25.09,12 C 29.39,12 40.51,13.4 40.51,25.77 C 40.45,26.97 40.19,29.73 39.58,31.09 C 40.72,32.9 43,37.47 43,42 H 37.97 C 37.97,40.75 37.75,38.08 36.89,36.53 C 35.54,38.68 31.09,43 24.08,43 C 15.3,43 13,36.21 13,32.8 C 13,29.37 16.6,23.66 25.37,23.66 C 27.25,23.74 31.92,24.48 35.52,26.76 C 35.94,24.83 35.71,20.42 31.47,18.18 S 21.92,17.25 19.8,18.18 Z M 33.95,31.95 A 14.04,14.04 0 0,0 24.91,28.63 C 19.35,28.63 17.77,32.31 17.77,33.7 C 17.77,35.1 18.74,37.92 24.33,37.92 S 32.49,34.17 33.95,31.95 Z" fill="rgb(239, 74, 53)"/>
</svg>
