<?xml version="1.0" encoding="UTF-8"?>
<!-- generated by Finnhub -->
<svg viewBox="0 0 55.5 55.5" xmlns="http://www.w3.org/2000/svg">
<path d="M 0,0 H 55.5 V 55.5 H 0 Z" fill="rgb(127, 193, 66)"/>
<path d="M 50.686,23.038999999999998 C 50.47,23.054 49.789,23 48.599,23 C 45.482,23 43.328,23.917 42.251,25.696 C 42.534,23.916 40.721,23 36.752,23 C 32.104,23 29.546,24.78 28.355,28.392 C 28.119,29.094 28.006,29.724 28,30.287 C 27.994,30.805 28.19,31.268 28.353,31.681 L 27.219,31.892 C 26.369,31.946 24.735,32 23.999,32 C 22.299,32 21.221,31.681 20.824,31.142 C 20.664,30.914 20.58,30.555 20.582,30.098 C 20.585,29.583 20.698,28.945 20.938,28.23 C 21.675,26.02 23.383,25 26.217,25 C 27.691,25 29.157,25.21 29.157,25.21 C 29.327,25.21 29.44,24.995 29.44,24.833 L 29.384,24.672 L 29.27,23.917 C 29.214,23.431 28.817,23.162 28.137,23.054 C 27.514,23 26.89,23 26.266,23 C 22.582,23 19.974,24.186 18.557,26.451 C 19.067,24.132 17.367,23 13.456,23 C 11.245,23 9.658,23.054 8.751,23.162 C 8.014,23.27 7.561,23.539 7.391,24.025 L 7.051,24.995 C 6.994,25.157 7.107,25.265 7.334,25.265 C 7.504,25.265 8.184,25.157 9.318,25.103 C 10.848,24.995 11.979,24.995 12.716,24.995 C 14.666,24.995 16.048,25.393 16,26.229 C 15.98,26.577 15.797,26.867 15.434,26.936 C 13.394,27.26 11.245,27.476 10.054,27.637 C 6.654,28.069 4.67,29.039 4.16,30.657 C 3.423,32.867 5.237,34 9.6,34 C 11.754,34 13.625,33.838 15.098,33.569 C 15.948,33.407 16.402,33.245 16.572,32.706 L 17.366,30.226 C 17.309,32.706 19.066,34 22.807,34 C 24.394,34 26.425,33.946 27.162,33.838 C 27.899,33.73 28.295,33.515 28.465,32.975 L 28.635,32.221 C 29.43,33.407 30.688,34 33.352,34 C 36.186,34 37.83,33.946 38.284,33.784 C 39.078,33.568 39.192,32.734 39.417,32.054 C 39.474,31.892 39.361,31.784 39.134,31.784 C 37.588,31.876 36.035,32 34.486,32 C 32.953,32 30.857,32.05 31.001,30 L 36.527,29.417 C 39.077,29.093 40.834,28.338 41.685,27.152 L 39.701,33.622 C 39.552,33.905 39.973,34 40.154,34 H 42.535 C 42.932,34 43.102,33.784 43.158,33.623 L 45.256,26.505 C 45.539,25.588 46.389,25 47.976,25 H 51.094 C 51.334,25 51.531,24.883 51.661,24.677 L 52.001,23.917 C 52.001,23.214 51.283,23.091 50.697,23.054 Z M 13.98,31.789 C 13.243,31.897 11.868,32 10.508,32 C 8.071,32 7.05,31.466 7.334,30.549 C 7.561,29.902 8.184,29.471 9.204,29.363 L 15,28.662 L 13.98,31.789 Z M 35.789,27.637 L 31,28 C 31.79,25.368 33.62,25 36.299,25 C 38.121,25.047 39,25.346 39,25.871 C 39,27 36.677,27.513 35.789,27.637 Z" fill="rgb(239, 242, 248)"/>
</svg>
