<?xml version="1.0" encoding="UTF-8"?>
<!-- generated by Finnhub -->
<svg viewBox="0 0 55.5 55.5" xmlns="http://www.w3.org/2000/svg">
<path d="M 0,0 H 55.5 V 55.5 H 0 Z" fill="rgb(239, 242, 248)"/>
<path d="M 17.99,26.515 C 27.26,19.55 34.49,18.67 37,18.99 C 21,23.77 21,28.28 21,29.19 V 29.2 C 22.96,36.01 30.63,43.06 35.4,43.06 C 40.19,43.06 42.15,36.65 43,34.31 C 43,39.17 41.04,45 34.66,45 C 23.51,45 18.84,33.46 18.46,32.4 C 16.08,32.66 13,30.74 13,24.15 C 13,18.87 18.05,14.53 20.51,12.92 C 20.23,12.67 19.53,11.85 19.53,11.38 C 19.53,10.32 21.23,10.02 22,10 C 21.58,10.2 20.6,10.71 20.6,11.22 C 20.6,11.86 21.42,12.28 22,12.92 C 16.58,16.27 16,20 16,22.18 C 16,24.36 17.1,24.98 18,26.53 Z" fill="rgb(30, 98, 171)"/>
</svg>
