<?xml version="1.0" encoding="UTF-8"?>
<!-- generated by Finnhub -->
<svg viewBox="0 0 55.5 55.5" xmlns="http://www.w3.org/2000/svg">
<path d="M 0,0 H 55.5 V 55.5 H 0 Z" fill="rgb(1, 137, 123)"/>
<path d="M 31.99,12.372 V 22.345 C 31.968,22.683 31.72,22.966 31.383,23 H 29.762 C 29.369,23 29,23.302 29,23.695 V 27.737 C 29,27.363 29.34,27.026 29.71,27 H 33.26 C 33.667,27.025 34,26.747 34,26.331 V 16.823 C 38.198,18.819 40.379,23.099 40.379,28.056 C 40.379,34.319 36.026,39.501 30,40.364 V 33 H 33.26 C 33.675,33 34,32.75 34,32.291 V 27.283 C 34,27.675 33.719,28 33.325,28 H 29.762 C 29.369,28 29,28.312 29,28.704 V 33 H 27 V 28.704 C 27,28.312 26.666,28 26.273,28 H 22.732 A 0.735,0.735 0 0,1 22,27.283 V 32.291 C 22,32.733 22.392,33 22.798,33 H 26 V 40.364 C 19.974,39.502 15.51,34.319 15.51,28.056 C 15.51,23.099 17.802,18.819 22,16.823 V 26.331 A 0.715,0.715 0 0,0 22.798,27 H 26.324 A 0.753,0.753 0 0,1 27,27.737 V 23.695 C 27,23.302 26.666,23 26.273,23 L 24.674,22.988 L 24.672,23 C 24.334,22.966 24.032,22.683 24,22.345 V 12.412 C 16.902,14.05 12,20.405 12,28.001 C 12,36.817 19.135,43.968 27.944,43.999 L 28,44 C 36.837,44 44,36.836 44,28 C 44,20.367 39.155,13.984 32,12.387 Z M 29.632,12.057 A 23.644,23.644 0 0,0 28,12 H 27.944 A 15.86,15.86 0 0,0 26,12.105 V 21.195 C 26,21.643 26.375,22 26.823,22 H 29.193 A 0.8,0.8 0 0,0 30,21.195 V 12.092 A 26.88,26.88 0 0,0 29.632,12.056 Z" fill="rgb(254, 254, 253)"/>
</svg>
