<?xml version="1.0" encoding="UTF-8"?>
<!-- generated by Finnhub -->
<svg viewBox="0 0 55.5 55.5" xmlns="http://www.w3.org/2000/svg">
<path d="M 0,0 H 55.5 V 55.5 H 0 Z" fill="rgb(239, 242, 248)"/>
<path d="M 47.660000000000004,34.985 A 19.61,19.61 0 0,0 33,16 H 33.23 C 41.63,16.95 49.84,24.64 50,35 H 47.67 Z M 45.97,34.49 L 46,35 H 6 L 6.02,34.55 C 6.05,34.15 6.08,34 6.08,34 H 45.92 S 45.96,34.25 45.97,34.49 Z" fill="rgb(1, 57, 110)"/>
<path d="M 45.86,32.485 C 45.96,32.78 46,33 46,33 H 10 L 10.12,32.55 C 10.26,32.05 10.29,32 10.29,32 H 45.69 C 45.71,32 45.79,32.2 45.87,32.5 Z" fill="rgb(1, 57, 110)"/>
<path d="M 37.54,29.985 A 15.49,15.49 0 0,0 23.15,20 C 15.48,20 9,25.39 8,33 H 6 C 7.05,23.47 15.67,16 25.85,16 C 34.85,16 42.49,21.72 45,30 H 37.55 Z" fill="rgb(1, 57, 110)"/>
</svg>
