<?xml version="1.0" encoding="UTF-8"?>
<!-- generated by Finnhub -->
<svg viewBox="0 0 55.5 55.5" xmlns="http://www.w3.org/2000/svg">
<path d="M 0,0 H 55.5 V 55.5 H 0 Z" fill="rgb(0, 133, 199)"/>
<path d="M 46.99,20.427 V 35.559 C 47,35.803 46.814,35.999 46.585,35.999 H 42.413 C 42.186,35.999 42,35.803 42,35.559 V 20.442 C 42,20.198 42.184,20 42.412,20 H 46.584 C 46.814,20 47,20.198 47,20.442 Z M 31,28.27 C 31,31.258 32.804,32.002 35.345,32.002 H 39.605 C 39.819,32.002 40,32.197 40,32.442 C 40,32.503 39.984,32.558 39.961,32.615 L 38.793,35.733 A 0.408,0.408 0 0,1 38.425,35.999 L 34.602,36 C 28.673,36 25.996,33.227 25.996,28.531 V 27.467 C 25.996,22.773 28.673,20 34.602,20 H 38.425 C 38.586,20 38.728,20.11 38.793,20.267 L 39.968,23.397 A 0.44,0.44 0 0,1 39.999,23.568 C 39.999,23.812 39.826,24 39.612,24 H 35.352 C 32.812,24 31,24.72 31,27.706 V 28.271 Z M 7.42,36 A 0.43,0.43 0 0,1 7,35.558 C 7,35.524 7.005,35.451 7.047,35.354 L 13.719,20.254 A 0.421,0.421 0 0,1 14.095,20.002 H 18.585 C 18.819,20.002 19.003,20.203 19.003,20.445 A 0.431,0.431 0 0,1 18.974,20.611 L 12.286,35.746 A 0.418,0.418 0 0,1 11.908,36 H 7.42 Z M 21.24,36 A 0.401,0.401 0 0,1 20.872,35.737 L 18.04,28.913 A 0.506,0.506 0 0,1 18,28.715 C 18,28.683 18,28.597 18.044,28.509 L 20.221,23.255 C 20.283,23.106 20.421,23 20.584,23 C 20.744,23 20.884,23.106 20.949,23.26 L 25.959,35.353 A 0.508,0.508 0 0,1 25.996,35.545 C 25.996,35.797 25.814,36 25.591,36 H 21.239 Z" fill="rgb(245, 247, 251)"/>
</svg>
