<?xml version="1.0" encoding="UTF-8"?>
<!-- generated by Finnhub -->
<svg viewBox="0 0 55.5 55.5" xmlns="http://www.w3.org/2000/svg">
<path d="M 0,0 H 55.5 V 55.5 H 0 Z" fill="rgb(1, 120, 190)"/>
<path d="M 7.99,35.985 L 10.53,20 H 16.49 L 19,36 H 15.91 L 15.23,32 H 11.78 L 11.14,36 H 8 Z M 12.24,29 L 13.5,22.5 L 14.83,29 H 12.24 Z M 30,22.39 V 26 H 27 V 23.63 C 27,23.16 26.57,23 26.34,23 H 24.67 C 24.15,23.02 24,23.4 24,23.63 V 32.23 C 24,32.86 24.43,32.99 24.66,33 H 26.4 C 26.77,32.99 27,32.63 27,32.24 V 30 H 30 V 33.08 C 30,35.37 27.9,36 26.94,36 H 24.14 C 21.69,35.9 20.99,34.15 21,33.3 V 22.56 C 21.23,20.55 23.23,20.01 24.14,19.99 H 26.78 C 29.31,19.99 30.04,21.62 30,22.38 Z M 32,36 V 20 H 37.74 L 39.5,32.48 L 41.3,20 H 47 V 36 H 44 V 22.57 L 41.5,36 H 37.5 L 35,22.57 V 36 H 32 Z" fill="rgb(254, 254, 253)" fill-rule="evenodd"/>
</svg>
