<?xml version="1.0" encoding="UTF-8"?>
<!-- generated by Finnhub -->
<svg viewBox="0 0 55.5 55.5" xmlns="http://www.w3.org/2000/svg">
<path d="M 0,0 H 55.5 V 55.5 H 0 Z" fill="url(#a)"/>
<path d="M 9.99,40.455 L 20.02,16.66 A 3.85,3.85 0 0,1 23.37,14.49 C 25.41,14.37 26.44,16.07 26.7,16.93 C 26.69,17.18 26.54,17.73 26.06,17.91 C 25.58,18.09 25.09,17.64 24.9,17.38 C 24.52,16.7 23.4,15.64 22.06,16.93 L 15.82,31.37 C 16.62,30.5 19.31,28.77 23.56,28.77 S 30.95,31.76 31.99,33.25 C 33.49,35.32 37.57,39.39 41.93,39.12 C 38.99,37.18 31.98,30.96 27.43,21.62 L 24.64,27.94 A 0.96,0.96 0 0,1 23.37,28.11 C 22.8,27.73 23.01,27.01 23.19,26.69 L 28.56,13.94 A 4.1,4.1 0 0,1 32,12 C 34,11.92 35.15,13.63 35.47,14.5 L 46,39.5 C 45.13,40.7 41.88,42.32 35.78,39.1 A 18.06,18.06 0 0,1 30.62,34.41 C 27.95,30.99 24.84,30.58 23.56,30.58 L 21.61,35.19 A 9.23,9.23 0 0,1 10,40.47 Z M 28.28,19.36 L 30.08,15.13 C 30.26,14.72 30.86,13.89 31.94,13.89 C 33.02,13.89 33.64,14.98 33.83,15.52 L 43.23,37.77 C 41.08,36.36 35.7,31.77 31.48,24.77 L 28.28,19.36 Z M 12.58,39.06 C 13.4,36.69 16.31,31.73 21.34,30.8 L 19.79,34.79 A 7.36,7.36 0 0,1 12.59,39.05 Z" fill="rgb(254, 254, 253)" fill-rule="evenodd"/>
<defs>
<linearGradient id="a" x1="28" x2="28" y2="56" gradientUnits="userSpaceOnUse">
<stop stop-color="rgb(89, 180, 74)" offset="0"/>
<stop stop-color="rgb(52, 111, 176)" offset="1"/>
</linearGradient>
</defs>
</svg>
