<?xml version="1.0" encoding="UTF-8"?>
<!-- generated by Finnhub -->
<svg viewBox="0 0 55.5 55.5" xmlns="http://www.w3.org/2000/svg">
<path d="M 0,0 H 55.5 V 55.5 H 0 Z" fill="rgb(54, 34, 63)"/>
<path d="M 18.99,33.894999999999996 H 19.63 V 36 H 20.02 V 33.91 H 20.65 V 33.5 H 19 V 33.91 Z M 23.37,34.47 H 22.13 V 33.5 H 21.74 V 36 H 22.13 V 34.84 H 23.37 V 36 H 23.76 V 33.5 H 23.37 V 34.47 Z M 25.49,34.84 H 26.25 V 34.47 H 25.49 V 33.91 H 26.49 V 33.5 H 25.1 V 36 H 26.52 V 35.59 H 25.49 V 34.84 Z M 28.09,33.91 H 28.52 C 28.68,33.91 28.74,33.95 28.78,33.99 C 28.83,34.04 28.86,34.11 28.86,34.19 C 28.86,34.26 28.83,34.34 28.78,34.39 C 28.74,34.43 28.68,34.47 28.52,34.47 H 28.08 V 33.91 Z M 29.01,34.7 A 0.65,0.65 0 0,0 29.25,34.19 A 0.67,0.67 0 0,0 29.01,33.68 A 0.7,0.7 0 0,0 28.54,33.5 H 27.7 V 36 H 28.08 V 34.84 H 28.31 L 29.14,36 H 29.6 L 28.76,34.82 A 0.58,0.58 0 0,0 29.01,34.7 Z M 31.81,35 H 31.18 L 31.5,34.2 L 31.82,35 Z M 31.63,33.5 H 31.36 L 30.38,36 H 30.78 L 31.02,35.35 H 31.97 L 32.21,36 H 32.61 L 31.63,33.5 Z M 34.05,33.91 H 34.55 C 34.69,33.91 34.78,33.94 34.85,34.01 C 34.9,34.07 34.93,34.14 34.93,34.22 C 34.93,34.3 34.9,34.38 34.84,34.44 C 34.78,34.51 34.69,34.54 34.56,34.54 H 34.05 V 33.91 Z M 35.08,33.7 A 0.74,0.74 0 0,0 34.58,33.5 H 33.67 V 36 H 34.05 V 34.91 H 34.57 C 34.79,34.91 34.95,34.86 35.07,34.75 A 0.7,0.7 0 0,0 35.31,34.22 A 0.7,0.7 0 0,0 35.08,33.7 Z M 36.84,34.84 H 37.61 V 34.47 H 36.84 V 33.91 H 37.84 V 33.5 H 36.46 V 36 H 37.87 V 35.59 H 36.84 V 34.84 Z M 40.6,34.97 C 40.6,35.17 40.56,35.31 40.46,35.42 A 0.6,0.6 0 0,1 39.99,35.62 A 0.6,0.6 0 0,1 39.53,35.42 C 39.43,35.32 39.39,35.17 39.39,34.97 V 33.5 H 39 V 34.95 C 39,35.25 39.08,35.49 39.25,35.68 A 1,1 0 0,0 40,36 A 1,1 0 0,0 40.74,35.68 C 40.91,35.49 40.99,35.25 40.99,34.95 V 33.5 H 40.61 V 34.97 Z M 42,33.91 H 42.64 V 36 H 43.02 V 33.91 H 43.65 V 33.5 H 42 V 33.91 Z M 44.8,36 H 45.18 V 33.5 H 44.8 V 36 Z M 48.23,35.3 A 0.84,0.84 0 0,1 47.58,35.62 C 47.08,35.62 46.73,35.26 46.73,34.75 C 46.73,34.25 47.08,33.88 47.55,33.88 C 47.78,33.88 48.02,33.98 48.15,34.14 L 48.18,34.16 L 48.44,33.89 L 48.42,33.88 C 48.21,33.64 47.88,33.5 47.55,33.5 C 46.86,33.5 46.35,34.04 46.35,34.75 C 46.35,35.47 46.86,36 47.58,36 C 47.94,36 48.29,35.83 48.5,35.55 L 48.52,35.53 L 48.24,35.28 L 48.23,35.3 Z M 50.7,34.72 A 2.1,2.1 0 0,0 50.35,34.54 C 50.13,34.44 49.91,34.35 49.91,34.17 C 49.91,33.97 50.09,33.87 50.27,33.87 C 50.41,33.87 50.55,33.93 50.67,34.03 L 50.69,34.05 L 50.92,33.76 L 50.9,33.74 A 0.97,0.97 0 0,0 50.26,33.5 C 49.85,33.5 49.53,33.79 49.53,34.16 C 49.53,34.38 49.63,34.56 49.83,34.7 C 49.93,34.77 50.05,34.82 50.16,34.87 C 50.41,34.97 50.62,35.07 50.62,35.29 C 50.62,35.49 50.46,35.62 50.25,35.62 A 0.72,0.72 0 0,1 49.7,35.32 L 49.68,35.3 L 49.41,35.57 L 49.43,35.59 C 49.63,35.86 49.93,36 50.26,36 C 50.7,36 51.01,35.7 51.01,35.28 C 51.01,35.05 50.91,34.86 50.7,34.72 Z" fill="rgb(254, 254, 253)"/>
<path d="M 5.96,30.965 A 10.46,10.46 0 0,0 9.62,35.29 C 9.88,34.83 10.06,34.34 10.15,33.83 A 9.2,9.2 0 0,1 6.75,28.47 A 4.64,4.64 0 0,0 5.15,28.34 C 5.31,29.25 5.58,30.14 5.97,30.98" fill="rgb(249, 177, 9)"/>
<path d="M 7.65,19.525 A 10.62,10.62 0 0,0 5.03,27.37 A 4.65,4.65 0 0,0 6.54,26.86 A 9.03,9.03 0 0,1 8.54,20.81 C 8.32,20.35 8.03,19.91 7.66,19.54 Z" fill="rgb(246, 149, 13)"/>
<path d="M 8.34,18.825 C 8.73,19.19 9.15,19.47 9.62,19.67 A 9.2,9.2 0 0,1 15.69,17.37 C 15.89,16.95 16.02,16.5 16.09,16.02 A 10.52,10.52 0 0,0 8.35,18.84 Z M 17.15,17.5 A 9.12,9.12 0 0,1 22.68,20.9 C 23.18,20.8 23.65,20.6 24.09,20.33 A 10.56,10.56 0 0,0 17.02,16.08 C 16.99,16.57 17.04,17.04 17.15,17.5" fill="rgb(240, 98, 23)"/>
<path d="M 43.64,22.985 A 0.8,0.8 0 1,0 43.65,21.4 A 0.8,0.8 0 0,0 43.65,23 Z M 26.7,22 V 31 H 28 V 22 H 26.7 Z M 16.3,26.34 V 28.56 C 15.85,29.28 15.2,29.71 14.43,29.71 A 2.17,2.17 0 0,1 12.3,27.5 C 12.3,26.8 12.62,26.16 13.1,25.76 C 13.47,25.46 13.95,25.29 14.42,25.29 C 15.44,25.29 16.07,25.99 16.3,26.34 Z M 16.3,24 V 24.64 A 3.1,3.1 0 0,0 14.4,24 C 13.63,24 12.85,24.27 12.25,24.76 A 3.57,3.57 0 0,0 11,27.5 A 3.43,3.43 0 0,0 14.45,31 C 15.18,31 15.77,30.77 16.3,30.36 V 31 H 17.7 V 24 H 16.3 Z M 24.25,28.94 L 24.45,28.74 L 25.4,29.64 L 25.22,29.84 A 3.66,3.66 0 0,1 20.1,30.06 A 3.41,3.41 0 0,1 19,27.5 C 19,25.54 20.52,24 22.46,24 C 23.44,24 24.32,24.36 25,25.04 L 25.19,25.23 L 24.34,26.2 L 24.13,26 A 2.33,2.33 0 0,0 22.46,25.3 A 2.2,2.2 0 0,0 20.3,27.5 C 20.3,28.74 21.31,29.7 22.57,29.7 C 23.2,29.7 23.77,29.44 24.25,28.94 Z M 41.71,24.04 A 3.42,3.42 0 0,0 39.3,24.56 V 24 H 38 V 31 H 39.3 V 26.48 A 2.13,2.13 0 0,1 41.16,25.32 H 41.5 L 41.8,25.37 L 42,24.07 L 41.71,24.03 Z M 43,31 V 24 H 44.3 V 31 H 43 Z M 47.58,26.07 C 47.58,26.43 48.04,26.59 48.8,26.81 C 49.73,27.08 51,27.45 51,28.87 C 51,30.1 50.02,31 48.67,31 C 47.71,31 46.82,30.66 46.18,30.05 L 46,29.87 L 46.79,28.84 L 46.99,29.03 C 47.35,29.33 47.92,29.71 48.62,29.71 C 49.15,29.71 49.7,29.43 49.7,28.91 C 49.7,28.41 49.21,28.25 48.39,28.01 C 47.45,27.75 46.29,27.43 46.29,26.08 C 46.29,24.78 47.46,24 48.59,24 C 49.59,24 50.3,24.4 50.65,24.64 L 50.86,24.8 L 50.19,25.9 L 49.96,25.75 C 49.49,25.44 49.18,25.29 48.62,25.29 C 48.2,25.29 47.58,25.49 47.58,26.07 Z M 34.6,28.56 V 26.34 A 2.32,2.32 0 0,0 32.72,25.29 C 32.25,25.29 31.77,25.46 31.4,25.76 C 30.92,26.16 30.6,26.79 30.6,27.5 A 2.17,2.17 0 0,0 32.73,29.7 C 33.5,29.7 34.15,29.28 34.6,28.56 Z M 34.6,24.64 V 24 H 36 V 31 H 34.6 V 30.36 C 34.07,30.76 33.48,31 32.74,31 A 3.4,3.4 0 0,1 29.3,27.5 C 29.3,26.43 29.76,25.43 30.55,24.76 C 31.15,24.27 31.93,24 32.7,24 C 33.43,24 34.04,24.23 34.6,24.64 Z" fill="rgb(254, 254, 253)"/>
</svg>
