<?xml version="1.0" encoding="UTF-8"?>
<!-- generated by Finnhub -->
<svg viewBox="0 0 55.5 55.5" xmlns="http://www.w3.org/2000/svg">
<path d="M 0,0 H 55.5 V 55.5 H 0 Z" fill="rgb(1, 215, 114)"/>
<path d="M 27.349999999999998,28.474999999999998 H 29.36 C 29.48,28.14 29.99,27.44 31.07,27.44 C 32.43,27.44 33,28.09 33,28.68 V 29 L 29.86,29.18 C 28.91,29.21 27,29.62 27,31.09 C 27,32.02 27.71,33 30.29,33 C 31.59,33 32.47,32.57 33,32.12 C 33.02,32.42 33.31,33 34.3,33 C 35.15,33 35.88,32.85 36,32.8 V 31.5 C 35.76,31.47 35,31.31 35,30.84 V 28.3 C 34.95,27.54 34.2,26.01 31.5,26.01 C 28.14,26.01 27.36,27.78 27.36,28.5 Z M 33,30.17 C 33,30.3 32.92,30.5 32.7,30.82 C 31.97,31.84 30.58,32 30.32,32 C 30.06,32 29,31.92 29,31.13 C 29,30.5 29.7,30.29 30.06,30.26 L 32.63,30.03 C 32.79,29.98 33,29.98 33,30.17 Z M 8,29 V 33 H 10 V 29 H 14 V 27 H 10 V 23 H 8 V 27 H 4 V 29 H 8 Z M 18,26 V 33 H 20 V 28.56 C 20.44,28.11 21.1,27.66 21.93,27.66 C 23.5,27.66 24,28.86 24,29.2 V 33 H 26 V 29 C 26,28 25.33,26 22.65,26 C 21.58,26 20.67,26.34 20,26.86 V 26 H 18 Z" fill="rgb(254, 254, 253)"/>
<path d="M 10.99,22.985 H 16 L 15.23,25 H 11 V 23 Z M 11,31 H 16 L 15.23,33 H 11 V 31 Z M 44.97,30.5 C 44.47,31.95 42.91,33 41.07,33 C 38.82,33 37,31.43 37,29.5 S 38.82,26 41.07,26 C 42.91,26 44.47,27.05 44.97,28.5 H 42.91 C 42.55,27.9 41.87,27.5 41.09,27.5 C 39.94,27.5 39,28.4 39,29.5 S 39.94,31.5 41.1,31.5 C 41.87,31.5 42.55,31.1 42.91,30.5 H 44.97 Z M 48,27.5 V 30.97 C 48,31.65 48.3,33 50.07,33 A 19,19 0 0,0 52,32.86 V 31.38 A 4.5,4.5 0 0,1 51,31.51 C 50.53,31.51 50,31.24 50,30.7 V 27.5 H 51.2 L 52,26 H 50 V 24 H 48 V 25.15 C 48,25.6 47.5,26 47.07,26 H 46 V 27.5 H 48 Z" fill="rgb(254, 254, 253)"/>
</svg>
