<?xml version="1.0" encoding="UTF-8"?>
<!-- generated by Finnhub -->
<svg viewBox="0 0 55.5 55.5" xmlns="http://www.w3.org/2000/svg">
<path d="M 0,0 H 55.5 V 55.5 H 0 Z" fill="rgb(57, 81, 170)"/>
<path d="M 28.99,9.985 V 12.07 C 29.13,12.09 29.42,12.36 29.52,13.21 L 31.96,34.04 C 32.3,36.69 34.34,42 39.9,42 C 45.18,42 47.01,36.73 47.01,33.78 C 47.01,30.83 44.61,27 40.61,27 H 35.11 L 33.11,13.2 A 3.96,3.96 0 0,0 29,10 Z M 36,31 H 40.33 C 41.22,31.27 43,32.26 43,34.09 C 43,36.38 41.77,38 39.93,38 C 38.09,38 36,35.95 36,31 Z M 27,12.07 V 10 A 3.96,3.96 0 0,0 22.9,13.2 L 20.9,27 H 15.4 C 11.4,27 9,30.83 9,33.78 S 10.83,42 16.11,42 C 21.66,42 23.71,36.7 24.04,34.04 L 24.39,31 H 29 V 27 H 24.86 L 26.48,13.2 C 26.58,12.36 26.87,12.1 27,12.07 Z M 15.67,31 H 20 C 20,35.95 17.9,38 16.07,38 C 14.23,38 13,36.38 13,34.09 C 13,32.26 14.78,31.27 15.67,31 Z" fill="rgb(254, 254, 253)"/>
</svg>
