<?xml version="1.0" encoding="UTF-8"?>
<!-- generated by Finnhub -->
<svg viewBox="0 0 55.5 55.5" xmlns="http://www.w3.org/2000/svg">
<path d="M 0,0 H 55.5 V 55.5 H 0 Z" fill="rgb(239, 242, 248)"/>
<path d="M 26.36,13.985 C 26.17,14 26,14.22 26,14.5 S 26.17,15 26.37,15 H 27.63 C 27.83,15 28,14.78 28,14.5 S 27.83,14 27.63,14 H 26.37 Z M 24,17.5 C 24,17.22 24.2,17 24.47,17 H 29.53 C 29.79,17 30,17.22 30,17.5 S 29.8,18 29.53,18 H 24.47 C 24.21,18 24,17.78 24,17.5 Z M 22.54,20.29 C 24.17,20.04 28.49,19.69 32.58,20.29 C 32.84,20.33 33.08,20.14 33.11,19.88 A 0.48,0.48 0 0,0 32.71,19.34 C 28.51,18.73 24.1,19.08 22.41,19.34 A 0.48,0.48 0 0,0 22.01,19.88 C 22.05,20.14 22.28,20.33 22.54,20.28 Z M 25.21,22.96 A 0.48,0.48 0 0,0 25.65,22.45 A 0.47,0.47 0 0,0 25.15,22 C 22.47,22.18 19.9,22.66 18.95,22.89 A 0.48,0.48 0 0,0 18.59,23.46 C 18.65,23.72 18.89,23.88 19.15,23.82 C 20.07,23.61 22.59,23.14 25.21,22.96 Z M 39.19,27.27 C 33.52,24.58 26.41,24.78 23.57,25.22 A 0.47,0.47 0 0,1 23.04,24.82 A 0.48,0.48 0 0,1 23.44,24.27 C 26.36,23.82 33.68,23.6 39.58,26.4 C 39.81,26.51 39.92,26.8 39.81,27.04 A 0.46,0.46 0 0,1 39.19,27.27 Z M 20.75,25.95 C 21,25.91 21.18,25.66 21.13,25.4 A 0.47,0.47 0 0,0 20.6,25 C 18.7,25.33 16.5,26.24 15.62,26.66 A 0.49,0.49 0 0,0 15.39,27.29 C 15.5,27.53 15.78,27.64 16.01,27.53 C 16.85,27.13 18.97,26.26 20.75,25.95 Z M 27.53,26.96 C 19.83,26.96 13.41,30.8 11.19,32.69 C 10.99,32.86 10.7,32.83 10.54,32.63 A 0.49,0.49 0 0,1 10.6,31.95 C 12.94,29.95 19.55,26 27.53,26 C 31.09,26 36.48,27.5 38.71,28.23 C 38.96,28.31 39.09,28.59 39.01,28.83 A 0.46,0.46 0 0,1 38.43,29.15 C 36.2,28.41 30.93,26.96 27.53,26.96 Z M 46.57,38.03 C 36.71,28.92 26.44,29.36 22.61,30.67 A 0.46,0.46 0 0,1 22.02,30.37 A 0.48,0.48 0 0,1 22.32,29.76 C 26.44,28.35 37.07,27.96 47.19,37.31 C 47.39,37.49 47.4,37.79 47.23,37.99 A 0.46,0.46 0 0,1 46.57,38.03 Z M 17.49,32.33 A 0.48,0.48 0 0,1 17.19,32.93 C 13.72,34.09 10.15,37.27 8.8,38.73 C 8.62,38.92 8.33,38.93 8.14,38.74 A 0.49,0.49 0 0,1 8.13,38.06 C 9.52,36.56 13.22,33.26 16.9,32.02 C 17.15,31.94 17.41,32.08 17.5,32.33 Z M 41.71,31.07 A 0.46,0.46 0 0,0 41.07,31.23 A 0.49,0.49 0 0,0 41.23,31.89 L 44.35,33.83 C 44.57,33.96 44.85,33.89 44.99,33.66 A 0.49,0.49 0 0,0 44.83,33.01 L 41.71,31.07 Z M 29.29,22.42 A 0.47,0.47 0 0,1 29.82,22 C 30.58,22.1 31.8,22.3 33,22.52 C 34.2,22.74 35.41,23 36.13,23.26 C 36.37,23.35 36.5,23.62 36.41,23.87 A 0.46,0.46 0 0,1 35.82,24.17 C 35.18,23.93 34.04,23.68 32.84,23.47 C 31.65,23.24 30.44,23.06 29.69,22.96 A 0.48,0.48 0 0,1 29.29,22.42 Z M 27,32.45 A 0.47,0.47 0 0,1 26.57,32.95 C 24.97,33.03 22.22,33.47 19.27,34.55 A 21.83,21.83 0 0,0 10.81,39.85 A 0.46,0.46 0 0,1 10.15,39.87 A 0.48,0.48 0 0,1 10.14,39.2 A 22.75,22.75 0 0,1 18.96,33.65 A 27.74,27.74 0 0,1 26.51,32 C 26.77,31.99 26.99,32.19 27,32.45 Z M 31.53,32 A 0.47,0.47 0 0,0 31.01,32.43 C 30.99,32.69 31.17,32.93 31.43,32.96 C 33.73,33.21 39.51,34.93 43.87,39.78 C 44.05,39.98 44.34,39.98 44.53,39.81 C 44.73,39.63 44.73,39.32 44.56,39.13 C 40,34.08 33.99,32.27 31.52,32 Z" fill="rgb(54, 57, 62)"/>
<path d="M 28.36,14.985 C 28.17,15 28,15.22 28,15.5 S 28.17,16 28.37,16 H 29.63 C 29.83,16 30,15.78 30,15.5 S 29.83,15 29.63,15 H 28.37 Z M 26,18.5 C 26,18.22 26.2,18 26.47,18 H 31.53 C 31.79,18 32,18.22 32,18.5 S 31.8,19 31.53,19 H 26.47 C 26.21,19 26,18.78 26,18.5 Z M 23.93,21.29 C 25.57,21.04 29.89,20.69 33.98,21.29 C 34.24,21.33 34.48,21.14 34.51,20.88 A 0.48,0.48 0 0,0 34.11,20.34 C 29.91,19.73 25.49,20.08 23.8,20.34 A 0.48,0.48 0 0,0 23.4,20.88 C 23.44,21.14 23.68,21.33 23.93,21.28 Z M 26.84,22.96 A 0.48,0.48 0 0,0 27.28,22.45 A 0.47,0.47 0 0,0 26.78,22 C 24.1,22.18 21.53,22.66 20.58,22.89 A 0.48,0.48 0 0,0 20.22,23.46 C 20.28,23.72 20.52,23.88 20.78,23.82 C 21.7,23.61 24.22,23.14 26.84,22.96 Z M 22.41,25.96 C 22.67,25.91 22.84,25.66 22.8,25.4 A 0.47,0.47 0 0,0 22.26,25 C 20.36,25.33 18.16,26.24 17.29,26.66 A 0.49,0.49 0 0,0 17.06,27.29 C 17.16,27.53 17.44,27.64 17.68,27.53 C 18.51,27.13 20.64,26.26 22.41,25.95 Z M 28.64,27.96 C 20.94,27.96 14.52,31.8 12.31,33.69 C 12.11,33.86 11.81,33.83 11.65,33.63 A 0.49,0.49 0 0,1 11.71,32.95 C 14.05,30.95 20.67,27 28.64,27 C 32.21,27 37.59,28.5 39.83,29.23 C 40.07,29.31 40.21,29.59 40.13,29.83 A 0.46,0.46 0 0,1 39.54,30.15 C 37.32,29.41 32.04,27.96 28.64,27.96 Z M 47.24,38.88 C 37.51,29.92 27.38,30.35 23.6,31.64 A 0.46,0.46 0 0,1 23.02,31.34 A 0.48,0.48 0 0,1 23.32,30.74 C 27.38,29.36 37.86,28.98 47.85,38.18 C 48.04,38.35 48.05,38.65 47.88,38.84 A 0.45,0.45 0 0,1 47.23,38.88 Z M 18.49,32.33 A 0.48,0.48 0 0,1 18.19,32.93 C 14.72,34.09 11.15,37.27 9.8,38.73 C 9.62,38.92 9.33,38.93 9.14,38.74 A 0.49,0.49 0 0,1 9.13,38.06 C 10.52,36.56 14.22,33.26 17.9,32.02 C 18.15,31.94 18.41,32.08 18.5,32.33 Z M 42.71,31.07 A 0.46,0.46 0 0,0 42.07,31.23 A 0.49,0.49 0 0,0 42.23,31.89 L 45.35,33.83 C 45.57,33.96 45.85,33.89 45.99,33.66 A 0.49,0.49 0 0,0 45.83,33.01 L 42.71,31.07 Z M 40.41,28.27 C 34.73,25.58 27.62,25.78 24.78,26.22 A 0.47,0.47 0 0,1 24.25,25.82 A 0.48,0.48 0 0,1 24.65,25.27 C 27.57,24.82 34.89,24.6 40.79,27.4 C 41.03,27.51 41.13,27.8 41.02,28.04 A 0.46,0.46 0 0,1 40.4,28.27 Z M 30.44,22.42 A 0.47,0.47 0 0,1 30.96,22 C 31.72,22.1 32.95,22.3 34.16,22.52 C 35.35,22.74 36.56,23 37.28,23.26 C 37.52,23.35 37.65,23.62 37.56,23.87 A 0.46,0.46 0 0,1 36.96,24.17 C 36.33,23.93 35.19,23.68 33.99,23.47 C 32.79,23.24 31.59,23.06 30.84,22.96 A 0.48,0.48 0 0,1 30.44,22.42 Z" fill="url(#a)"/>
<defs>
<linearGradient id="a" x1="28.99" x2="28.99" y1="14.7" y2="38.61" gradientUnits="userSpaceOnUse">
<stop stop-color="rgb(236, 128, 29)" offset="0"/>
<stop stop-color="rgb(114, 114, 225)" offset=".71"/>
</linearGradient>
</defs>
</svg>
