<?xml version="1.0" encoding="UTF-8"?>
<!-- generated by Finnhub -->
<svg viewBox="0 0 55.5 55.5" xmlns="http://www.w3.org/2000/svg">
<path d="M 0,0 H 55.5 V 55.5 H 0 Z" fill="url(#a)"/>
<path d="M 9.69,22.745 L 10.47,23.54 A 0.3,0.3 0 0,1 10.47,23.89 L 9.69,24.66 C 9.58,24.74 9.42,24.74 9.34,24.66 L 8.56,23.89 C 8.49,23.77 8.49,23.61 8.56,23.54 L 9.34,22.76 C 9.46,22.68 9.62,22.68 9.69,22.76 Z M 10.7,28.64 L 13.94,31.86 C 14.02,31.97 14.02,32.13 13.9,32.2 L 13.16,32.94 A 0.24,0.24 0 0,1 12.86,32.94 L 9.88,30 A 0.61,0.61 0 0,0 9.02,30 L 6.06,32.95 A 0.24,0.24 0 0,1 5.75,32.95 L 5.05,32.18 A 0.24,0.24 0 0,1 5.05,31.87 L 8.28,28.65 A 0.24,0.24 0 0,0 8.28,28.34 L 5.06,25.1 A 0.24,0.24 0 0,1 5.06,24.79 L 5.76,24.05 A 0.3,0.3 0 0,1 6.11,24.05 L 9.07,27 C 9.31,27.23 9.69,27.23 9.93,27 L 12.89,24.05 A 0.24,0.24 0 0,1 13.2,24.05 L 13.94,24.79 C 14.02,24.86 14.02,25.02 13.94,25.09 L 10.71,28.32 A 0.24,0.24 0 0,0 10.71,28.62 Z M 21.9,24 C 22.72,24 23.54,24.36 24.12,24.96 C 24.7,25.56 25,26.39 25,27.23 C 25,28.06 24.7,28.9 24.12,29.5 C 23.54,30.13 22.76,30.45 21.9,30.45 H 19.45 C 18.95,30.45 18.55,30.85 18.55,31.37 V 32.77 C 18.55,32.88 18.44,33 18.32,33 H 17.23 C 17.12,33 17,32.88 17,32.76 V 26.27 A 0.8,0.8 0 0,0 16.18,25.43 H 15.83 C 15.72,25.43 15.6,25.31 15.6,25.19 V 24.24 C 15.6,24.12 15.72,24 15.83,24 H 21.9 Z M 19.37,29 H 21.79 C 22.72,29 23.54,28.22 23.54,27.23 C 23.54,26.23 22.76,25.43 21.79,25.43 H 19.37 A 0.8,0.8 0 0,0 18.56,26.27 V 28.18 C 18.56,28.66 18.91,29 19.37,29 Z M 34.28,31.57 H 28.84 A 0.82,0.82 0 0,1 28,30.73 V 30.01 C 28,29.54 28.37,29.18 28.84,29.18 H 33.46 C 33.58,29.18 33.7,29.06 33.7,28.94 V 27.98 C 33.7,27.86 33.58,27.74 33.46,27.74 H 28.84 A 0.82,0.82 0 0,1 28,26.91 V 26.27 C 28,25.79 28.37,25.43 28.84,25.43 H 34.13 C 34.24,25.43 34.36,25.31 34.36,25.19 V 24.24 C 34.36,24.12 34.24,24 34.13,24 H 26.73 C 26.62,24 26.5,24.12 26.5,24.24 V 32.76 C 26.5,32.88 26.62,33 26.73,33 H 34.32 C 34.44,33 34.55,32.88 34.55,32.76 V 31.81 C 34.51,31.69 34.44,31.57 34.28,31.57 Z M 49.77,24 H 48.67 C 48.57,24 48.44,24.12 48.44,24.24 V 32.76 C 48.44,32.88 48.56,33 48.68,33 H 49.77 C 49.88,33 50,32.88 50,32.76 V 24.24 C 50,24.12 49.92,24 49.77,24 Z M 46.45,32.64 C 46.49,32.68 46.49,32.72 46.49,32.76 C 46.49,32.84 46.41,32.92 46.29,33 H 45.01 A 0.62,0.62 0 0,1 44.58,32.8 L 44.23,32.36 L 42.67,30.49 A 0.55,0.55 0 0,0 42.21,30.25 H 40.38 A 0.8,0.8 0 0,0 39.56,31.09 V 32.76 C 39.56,32.88 39.44,33 39.33,33 H 38.23 C 38.13,33 38,32.88 38,32.76 V 26.27 A 0.8,0.8 0 0,0 37.19,25.43 H 36.84 C 36.72,25.43 36.6,25.31 36.6,25.19 V 24.24 C 36.6,24.12 36.72,24 36.84,24 H 43.02 A 3,3 0 0,1 45.16,24.92 C 45.75,25.47 46.06,26.27 46.06,27.11 A 3.19,3.19 0 0,1 44.42,29.81 A 0.22,0.22 0 0,0 44.31,30.01 C 44.31,30.05 44.31,30.09 44.35,30.13 L 44.46,30.25 L 46.45,32.65 Z M 40.38,28.74 H 42.87 C 43.77,28.74 44.5,27.94 44.5,27.03 C 44.5,26.11 43.76,25.35 42.87,25.35 H 40.37 A 0.8,0.8 0 0,0 39.57,26.19 V 27.9 C 39.57,28.38 39.91,28.74 40.37,28.74 Z" fill="rgb(254, 254, 253)"/>
<defs>
<linearGradient id="a" x1="46.65" x2="6.4" y1="8.9" y2="48.03" gradientUnits="userSpaceOnUse">
<stop stop-color="rgb(147, 40, 137)" offset="0"/>
<stop stop-color="rgb(176, 33, 120)" offset="1"/>
</linearGradient>
</defs>
</svg>
