<?xml version="1.0" encoding="UTF-8"?>
<!-- generated by Finnhub -->
<svg viewBox="0 0 55.5 55.5" xmlns="http://www.w3.org/2000/svg">
<path d="M 0,0 H 55.5 V 55.5 H 0 Z" fill="rgb(239, 242, 248)"/>
<path d="M 9.19,28.985 L 8.39,30.76 C 8.16,31.26 8.32,31.55 8.81,31.69 C 8.83,31.69 8.84,31.71 8.84,31.73 V 31.96 C 8.84,31.99 8.83,32 8.8,32 H 5.03 C 5.01,32 5,31.99 5,31.96 V 31.73 C 5,31.71 5.01,31.7 5.03,31.69 C 5.6,31.59 5.79,31.08 6.03,30.55 L 10.23,21.45 C 10.43,21 10.48,20.48 9.93,20.32 C 9.9,20.31 9.89,20.29 9.89,20.27 V 20.07 C 9.89,20.02 9.91,20 9.96,20 H 13.98 C 14,20 14,20.01 14,20.03 V 20.26 C 14,20.29 14,20.3 13.97,20.31 C 13.34,20.48 13.48,21 13.7,21.44 L 18.2,30.88 C 18.4,31.28 18.67,31.61 19.11,31.69 C 19.13,31.69 19.14,31.71 19.14,31.73 V 31.97 C 19.14,31.99 19.14,32 19.11,32 H 14.9 C 14.87,32 14.86,31.99 14.86,31.96 V 31.72 C 14.86,31.7 14.88,31.68 14.9,31.68 C 15.47,31.62 15.5,31.17 15.29,30.72 L 14.46,29 H 9.2 Z M 9.99,27.26 A 0.02,0.02 0 0,0 9.99,27.29 H 13.7 A 0.02,0.02 0 0,0 13.71,27.29 V 27.28 L 11.88,23.11 L 11.86,23.1 H 11.85 L 10,27.26 Z M 20.52,20.31 H 20.49 L 20.47,20.3 V 20.04 C 20.47,20.02 20.48,20 20.51,20 H 27.38 C 28.22,20 29.22,20.13 30,20.42 C 32.94,21.53 33.64,25.04 33.05,27.84 A 4.97,4.97 0 0,1 29.25,31.79 A 9.6,9.6 0 0,1 27.29,32 H 20.5 C 20.48,32 20.47,31.99 20.47,31.97 V 31.71 C 20.47,31.69 20.49,31.68 20.51,31.67 C 20.85,31.61 21,31.41 21,31.05 V 21.33 C 21,20.81 21.05,20.45 20.52,20.31 Z M 30.17,23.64 C 29.5,22.38 28.32,22 27.02,22 H 23.57 V 30 H 26.65 C 27.21,30 27.75,29.99 28.21,29.87 C 29.71,29.52 30.41,28.35 30.59,26.84 A 5.8,5.8 0 0,0 30.17,23.64 Z M 38.33,23.8 A 0.01,0.01 0 0,0 38.32,23.8 V 30.95 C 38.32,31.38 38.39,31.57 38.8,31.68 C 38.84,31.69 38.86,31.72 38.86,31.76 V 31.97 C 38.86,31.99 38.86,32 38.83,32 H 35.5 C 35.47,32 35.46,31.99 35.46,31.96 V 31.72 C 35.46,31.7 35.47,31.68 35.5,31.68 C 35.84,31.61 36,31.41 36,31.05 L 36,20.98 C 36,20.61 35.83,20.38 35.48,20.32 C 35.46,20.32 35.45,20.3 35.45,20.28 V 20.05 C 35.45,20.02 35.46,20 35.49,20 H 39.89 L 39.91,20.05 V 20.25 C 39.91,20.28 39.91,20.29 39.88,20.3 C 39.37,20.5 39.48,20.9 39.69,21.3 A 10003.4,10003.4 0 0,0 42.77,27.32 L 45.92,21.32 C 46.09,20.99 46.39,20.37 45.75,20.31 C 45.73,20.31 45.72,20.29 45.72,20.27 V 20.05 C 45.72,20.02 45.73,20 45.75,20 H 50.07 C 50.1,20 50.11,20.01 50.11,20.05 V 20.27 C 50.11,20.29 50.11,20.31 50.08,20.32 C 49.73,20.42 49.57,20.55 49.57,20.96 V 30.96 C 49.57,31.36 49.67,31.62 50.07,31.68 C 50.1,31.68 50.11,31.7 50.11,31.72 V 31.96 C 50.11,31.99 50.11,32 50.08,32 H 46.5 C 46.48,32 46.47,32 46.47,31.97 V 31.72 C 46.47,31.7 46.49,31.69 46.51,31.68 C 46.85,31.62 46.99,31.4 46.99,31.02 V 23.8 H 47.02 H 47 L 42.57,31.98 C 42.56,32 42.55,32 42.53,31.98 L 38.33,23.8 Z M 6,34.5 V 35.4 C 6,35.42 6,35.43 6.03,35.43 C 6.77,35.43 7.53,35.46 8.27,35.41 C 8.3,35.41 8.31,35.41 8.32,35.38 L 8.42,35.25 A 0.03,0.03 0 0,1 8.44,35.25 A 0.03,0.03 0 0,1 8.46,35.27 V 36.13 C 8.46,36.16 8.46,36.17 8.43,36.17 H 8.4 A 0.04,0.04 0 0,1 8.36,36.13 C 8.35,36.05 8.3,36 8.24,36 H 5.12 A 0.03,0.03 0 0,1 5.08,35.97 V 35.94 C 5.08,35.92 5.09,35.91 5.11,35.91 C 5.21,35.89 5.25,35.83 5.25,35.73 V 32.78 C 5.25,32.71 5.2,32.66 5.11,32.64 C 5.09,32.64 5.08,32.62 5.08,32.6 V 32.57 C 5.08,32.55 5.1,32.53 5.12,32.53 H 8.1 C 8.22,32.53 8.3,32.49 8.34,32.39 L 8.36,32.37 H 8.38 A 0.04,0.04 0 0,1 8.41,32.4 C 8.41,32.53 8.44,33.22 8.38,33.27 C 8.38,33.29 8.36,33.28 8.35,33.27 C 8.32,33.19 8.21,33.12 8.1,33.11 H 6 V 33.88 C 6,33.91 6,33.92 6.03,33.92 H 7.45 C 7.46,33.92 7.48,33.92 7.49,33.9 L 7.59,33.77 A 0.03,0.03 0 0,1 7.64,33.77 V 34.62 C 7.59,34.66 7.51,34.51 7.41,34.51 H 6 Z M 17.52,34.72 V 35.51 C 17.52,35.53 17.53,35.53 17.55,35.53 C 18.17,35.53 18.81,35.56 19.43,35.52 L 19.47,35.49 L 19.54,35.38 L 19.55,35.37 A 0.02,0.02 0 0,1 19.58,35.37 V 36.15 C 19.58,36.17 19.58,36.18 19.55,36.18 H 19.54 C 19.52,36.18 19.51,36.16 19.51,36.15 C 19.5,36.08 19.46,36.03 19.41,36.03 H 16.77 L 16.76,36.01 V 35.98 C 16.76,35.97 16.76,35.96 16.78,35.95 C 16.86,35.94 16.89,35.88 16.89,35.8 V 33.2 C 16.89,33.14 16.86,33.1 16.78,33.08 C 16.76,33.08 16.76,33.06 16.76,33.05 V 33.02 C 16.76,33 16.76,32.99 16.79,32.99 H 19.28 C 19.38,32.99 19.45,32.95 19.48,32.86 L 19.5,32.84 H 19.52 L 19.53,32.85 L 19.54,32.87 C 19.54,32.98 19.57,33.58 19.52,33.63 C 19.51,33.65 19.5,33.64 19.49,33.63 C 19.47,33.56 19.37,33.5 19.28,33.49 H 17.53 V 34.17 C 17.53,34.19 17.53,34.2 17.56,34.2 H 18.74 C 18.76,34.2 18.77,34.2 18.78,34.18 L 18.86,34.08 C 18.86,34.07 18.86,34.06 18.88,34.06 H 18.89 L 18.91,34.07 V 34.78 L 18.9,34.81 C 18.86,34.84 18.8,34.71 18.7,34.71 H 17.52 Z M 40.8,32.81 C 40.8,32.65 40.63,32.66 40.63,32.57 C 40.63,32.55 40.64,32.54 40.66,32.54 C 40.94,32.54 41.69,32.51 41.71,32.57 C 41.71,32.59 41.71,32.6 41.69,32.61 C 41.59,32.65 41.55,32.73 41.55,32.85 V 35.79 C 41.55,35.91 41.7,35.87 41.72,35.96 A 0.03,0.03 0 0,1 41.72,35.98 A 0.03,0.03 0 0,1 41.7,36 C 41.58,36 40.64,36.02 40.63,35.96 L 40.64,35.93 L 40.76,35.86 A 0.06,0.06 0 0,0 40.79,35.8 V 32.81 Z M 29.66,35.52 C 28.89,36.32 27.08,36.14 26.77,34.9 C 26.35,33.2 28.36,32.54 29.48,33.33 C 30.18,33.82 30.23,34.93 29.66,35.52 Z M 29.37,34.52 C 29.37,34.26 29.27,34.02 29.09,33.82 A 1,1 0 0,0 27.69,33.81 A 0.95,0.95 0 0,0 27.68,35.17 A 1,1 0 0,0 29.08,35.19 C 29.26,35.01 29.37,34.77 29.38,34.51 Z M 34.24,35.71 L 34.16,35.76 A 0.03,0.03 0 0,1 34.13,35.76 A 0.03,0.03 0 0,1 34.12,35.73 L 34.39,35.06 L 34.4,35.04 A 0.03,0.03 0 0,1 34.43,35.04 L 34.44,35.06 C 34.55,35.52 35.79,35.53 36.14,35.36 C 36.28,35.3 36.37,35.15 36.27,35 C 36.07,34.75 34.93,34.86 34.55,34.64 C 34.2,34.44 34.08,34 34.22,33.62 C 34.46,32.96 35.52,32.92 36.06,33.08 C 36.26,33.13 36.46,33.22 36.71,33.34 H 36.76 L 36.86,33.29 H 36.88 L 36.9,33.3 V 33.33 L 36.58,33.97 A 0.03,0.03 0 0,1 36.55,33.99 A 0.03,0.03 0 0,1 36.53,33.97 C 36.38,33.5 35.09,33.37 34.8,33.74 C 34.68,33.89 34.8,34.07 34.96,34.09 C 35.47,34.16 36.23,34.13 36.66,34.43 C 37.08,34.72 37.05,35.39 36.66,35.69 C 36.05,36.18 34.96,36.02 34.3,35.71 H 34.24 Z M 47.57,35.97 A 1.48,1.48 0 0,1 47.47,33.05 A 2.3,2.3 0 0,1 49.31,33.47 H 49.36 A 0.2,0.2 0 0,1 49.48,33.43 C 49.51,33.43 49.52,33.44 49.5,33.47 L 49.09,34.08 C 49.07,34.12 49.05,34.11 49.05,34.08 A 0.32,0.32 0 0,0 48.91,33.82 C 48.35,33.44 47.5,33.4 47.07,34.02 C 46.8,34.42 46.94,35.01 47.34,35.27 C 47.76,35.55 48.31,35.49 48.76,35.27 C 48.92,35.19 49.02,35.07 49.06,34.93 C 49.06,34.9 49.08,34.9 49.09,34.93 L 49.49,35.53 A 0.03,0.03 0 0,1 49.49,35.58 H 49.47 L 49.34,35.55 H 49.29 C 48.72,35.91 48.26,36.07 47.57,35.97 Z M 11.63,34.89 V 33.29 C 11.63,33.19 11.59,33.12 11.5,33.1 C 11.48,33.1 11.47,33.08 11.47,33.06 A 0.1,0.1 0 0,1 11.47,33.03 C 11.47,33.01 11.49,33 11.51,33 H 12.38 C 12.41,33 12.42,33.03 12.41,33.06 L 12.4,33.08 L 12.37,33.11 C 12.29,33.13 12.25,33.2 12.25,33.29 A 2998.09,2998.09 0 0,0 12.27,35.85 A 0.1,0.1 0 0,0 12.32,35.88 C 12.37,35.89 12.39,35.92 12.42,35.96 C 12.42,35.99 12.42,36 12.39,36 H 11.43 C 11.41,36 11.4,35.99 11.4,35.97 C 11.4,35.94 11.48,35.88 11.5,35.85 A 0.05,0.05 0 0,0 11.5,35.8 A 1.33,1.33 0 0,0 11.3,35.55 A 95.83,95.83 0 0,1 9.84,34.05 V 35.74 C 9.84,35.91 9.99,35.87 10,35.97 C 10,35.99 10,36 9.97,36 H 9.08 C 9.07,36 9.06,35.99 9.06,35.97 V 35.95 C 9.06,35.93 9.06,35.92 9.08,35.92 C 9.18,35.89 9.22,35.84 9.22,35.75 V 33.32 C 9.22,33.2 9.17,33.12 9.08,33.09 C 9.06,33.09 9.05,33.07 9.06,33.05 V 33.03 C 9.06,33.01 9.08,33 9.1,33 H 10.12 C 10.15,33 10.16,33.02 10.15,33.05 A 0.14,0.14 0 0,1 10.08,33.13 A 0.1,0.1 0 0,0 10.04,33.15 A 0.1,0.1 0 0,0 10.05,33.28 L 11.6,34.9 A 0.02,0.02 0 0,0 11.63,34.89 Z M 44.93,34.89 V 33.29 C 44.93,33.19 44.88,33.12 44.79,33.1 L 44.77,33.06 A 0.1,0.1 0 0,1 44.77,33.03 C 44.77,33.01 44.79,33 44.81,33 H 45.68 C 45.71,33 45.72,33.03 45.7,33.06 V 33.08 L 45.66,33.11 C 45.59,33.13 45.55,33.2 45.55,33.29 A 2621.9,2621.9 0 0,0 45.57,35.85 A 0.1,0.1 0 0,0 45.62,35.88 C 45.66,35.89 45.69,35.92 45.72,35.96 C 45.72,35.99 45.72,36 45.69,36 H 44.73 C 44.71,36 44.7,35.99 44.7,35.97 C 44.7,35.94 44.78,35.88 44.8,35.85 A 0.05,0.05 0 0,0 44.8,35.8 A 1.34,1.34 0 0,0 44.6,35.55 A 95.6,95.6 0 0,1 43.14,34.05 V 35.74 C 43.14,35.91 43.29,35.87 43.3,35.97 C 43.3,35.99 43.3,36 43.27,36 H 42.38 C 42.36,36 42.35,35.99 42.36,35.97 V 35.95 C 42.36,35.93 42.36,35.92 42.38,35.92 C 42.48,35.89 42.52,35.84 42.52,35.75 V 33.32 C 42.52,33.2 42.47,33.12 42.38,33.09 C 42.36,33.09 42.35,33.07 42.36,33.05 V 33.03 C 42.36,33.01 42.38,33 42.4,33 H 43.42 C 43.45,33 43.46,33.02 43.45,33.05 A 0.14,0.14 0 0,1 43.38,33.13 A 0.1,0.1 0 0,0 43.32,33.2 A 0.1,0.1 0 0,0 43.35,33.28 L 44.9,34.9 H 44.92 L 44.93,34.89 Z M 14.94,33 C 15.44,33.01 15.89,33.3 16.1,33.79 A 2,2 0 0,1 16.06,35.29 C 15.85,35.72 15.48,35.97 14.94,36 H 13.02 C 12.96,36 12.96,35.97 13.01,35.94 L 13.14,35.84 A 304.6,304.6 0 0,0 13.16,33.28 C 13.16,33.18 13.11,33.12 13.02,33.1 L 13,33.09 V 33.07 A 0.04,0.04 0 0,1 13,33.03 C 13.03,33 13.09,33 13.09,33 H 14.94 Z M 13.84,33.57 V 35.46 H 14.69 C 14.92,35.46 15.13,35.37 15.29,35.21 A 0.88,0.88 0 0,0 15.54,34.6 V 34.42 A 0.9,0.9 0 0,0 15.29,33.8 A 0.84,0.84 0 0,0 14.69,33.55 H 13.84 V 33.57 Z M 21.16,33.1 A 0.05,0.05 0 0,1 21.14,33.07 L 21.15,33.04 L 21.17,33.03 C 21.23,32.98 22.07,33.01 22.21,33.01 L 22.24,33.02 L 22.25,33.05 V 33.08 L 22.22,33.1 C 22.09,33.16 22.07,33.3 22.14,33.43 C 22.51,34.21 22.9,34.98 23.3,35.75 C 23.35,35.84 23.41,35.89 23.5,35.91 C 23.52,35.91 23.53,35.93 23.53,35.95 V 35.97 C 23.53,35.99 23.52,36 23.5,36 H 22.4 C 22.38,36 22.37,35.99 22.38,35.96 L 22.39,35.93 L 22.44,35.89 C 22.68,35.81 22.42,35.43 22.31,35.27 A 0.04,0.04 0 0,0 22.28,35.25 H 21.05 C 21.03,35.25 21.01,35.25 21,35.27 C 20.92,35.44 20.68,35.83 20.95,35.91 L 20.98,35.95 V 35.97 C 20.98,35.99 20.98,36 20.95,36 H 19.95 L 19.94,35.99 V 35.98 C 19.94,35.95 20.12,35.81 20.17,35.71 C 20.54,34.97 20.89,34.21 21.23,33.46 C 21.3,33.3 21.31,33.21 21.16,33.11 Z M 21.22,34.8 V 34.82 L 21.23,34.83 H 22.08 L 22.09,34.82 V 34.8 L 21.67,33.92 A 0.02,0.02 0 0,0 21.65,33.91 L 21.64,33.92 L 21.22,34.81 Z M 25.69,33.17 L 25.56,33.07 L 25.55,33.05 V 33.03 L 25.56,33.02 L 25.58,33.01 H 26.64 L 26.66,33.03 V 33.06 L 26.64,33.08 L 26.51,33.18 A 76.29,76.29 0 0,0 25.37,35.64 C 25.31,35.77 25.35,35.86 25.47,35.91 C 25.5,35.91 25.51,35.93 25.51,35.95 V 35.97 C 25.51,35.99 25.51,36 25.49,36 H 24.4 L 24.39,35.97 V 35.95 L 24.41,35.93 C 24.65,35.83 24.55,35.66 24.46,35.47 L 23.61,33.59 C 23.51,33.36 23.46,33.21 23.25,33.06 L 23.24,33.04 V 33.02 L 23.25,33.01 L 23.27,33 H 24.38 L 24.4,33.03 V 33.06 L 24.38,33.07 C 24.13,33.21 24.25,33.38 24.33,33.58 A 58.77,58.77 0 0,0 24.99,35.05 C 25.11,34.78 25.76,33.42 25.72,33.22 A 0.08,0.08 0 0,0 25.69,33.17 Z M 32.86,34.75 C 33.09,35.11 33.45,35.75 33.81,35.94 L 33.83,35.95 V 36 L 33.8,36.01 H 32.65 A 0.03,0.03 0 0,1 32.62,35.99 V 35.97 L 32.63,35.95 L 32.74,35.85 A 0.04,0.04 0 0,0 32.75,35.81 A 22.22,22.22 0 0,0 32.07,34.77 L 31.44,34.78 C 31.43,34.78 31.42,34.78 31.42,34.81 V 35.72 C 31.42,35.83 31.47,35.9 31.56,35.92 C 31.58,35.92 31.58,35.94 31.58,35.95 V 35.97 C 31.58,36 31.58,36.01 31.55,36.01 H 30.59 L 30.58,35.99 V 35.95 L 30.7,35.87 A 0.07,0.07 0 0,0 30.73,35.83 L 30.75,35.71 V 33.33 C 30.75,33.2 30.72,33.13 30.6,33.1 H 30.58 V 33.08 A 0.04,0.04 0 0,1 30.58,33.04 L 30.64,33.01 H 32.72 C 33.87,33.01 33.99,34.51 32.87,34.73 C 32.85,34.73 32.85,34.75 32.87,34.76 Z M 31.42,33.56 V 34.21 L 31.43,34.22 H 32.6 C 32.7,34.22 32.79,34.19 32.85,34.12 A 0.3,0.3 0 0,0 32.95,33.91 V 33.86 C 32.95,33.82 32.95,33.78 32.93,33.74 A 0.31,0.31 0 0,0 32.85,33.64 A 0.36,0.36 0 0,0 32.74,33.57 A 0.4,0.4 0 0,0 32.6,33.55 H 31.43 L 31.42,33.56 Z M 38.27,36.04 C 37.5,36.22 37.41,35.11 37.99,35.01 C 38.33,34.95 38.59,35.19 38.65,35.53 C 38.76,36.17 38.43,36.62 37.95,36.99 C 37.93,37.01 37.91,37 37.9,36.98 L 37.8,36.84 C 37.78,36.81 37.79,36.78 37.82,36.76 C 38.08,36.6 38.25,36.37 38.31,36.08 C 38.31,36.04 38.31,36.03 38.27,36.04 Z M 50.5,36 A 0.5,0.5 0 1,0 50.5,35 A 0.5,0.5 0 0,0 50.5,36 Z"/>
</svg>
