<?xml version="1.0" encoding="UTF-8"?>
<!-- generated by Finnhub -->
<svg viewBox="0 0 55.5 55.5" xmlns="http://www.w3.org/2000/svg">
<path d="M 0,0 H 55.5 V 55.5 H 0 Z" fill="rgb(239, 242, 248)"/>
<path d="M 27.99,40.985 C 34.28,41 39,36.21 39,30 S 34.21,19 28,19 S 17,23.79 17,30 S 21.72,41 28,41 Z M 28,45 A 15,15 0 1,0 28,15 A 15,15 0 0,0 28,45 Z" fill="rgb(29, 23, 26)" fill-rule="evenodd"/>
<path d="M 25.95,29.794999999999998 V 36 L 30,35.98 V 29.8 L 41,17.5 L 38.32,15 L 28,26.5 L 17.73,15.03 L 15,17.47 L 25.96,29.81 Z" fill="rgb(168, 20, 35)"/>
<circle cx="15" cy="14" r="2" fill="rgb(168, 20, 35)"/>
<circle cx="41" cy="14" r="2" fill="rgb(168, 20, 35)"/>
<path d="M 20.919999999999998,35.365 A 1,1 0 1,0 20.71,35.71 A 9.36,9.36 0 0,0 27.01,39.14 A 1,1 0 0,0 28.99,39.14 A 9.36,9.36 0 0,0 35.29,35.71 A 1,1 0 0,0 37,35 A 1,1 0 1,0 35.07,35.38 A 8.99,8.99 0 0,1 28.97,38.76 A 1,1 0 0,0 27.03,38.76 A 8.99,8.99 0 0,1 20.93,35.38 Z" fill="rgb(29, 23, 26)"/>
</svg>
