<?xml version="1.0" encoding="UTF-8"?>
<!-- generated by Finnhub -->
<svg viewBox="0 0 55.5 55.5" xmlns="http://www.w3.org/2000/svg">
<path d="M 0,0 H 55.5 V 55.5 H 0 Z" fill="rgb(239, 242, 248)"/>
<path d="M 16.15,20.685 C 15.16,22.65 14.97,34.5 15,40.18 L 16.87,44.98 H 17.27 L 21.77,34.97 L 16.17,20.69 Z" fill="rgb(1, 101, 73)"/>
<path d="M 26.99,18.985 L 17.9,25.05 L 16.22,20.77 C 16.42,20.5 16.96,19.8 17.54,19.16 C 18.27,18.36 28,11.81 30.08,10.75 A 6.37,6.37 0 0,1 33.94,10.07 L 27,19 Z" fill="rgb(218, 224, 63)"/>
<path d="M 25.439999999999998,27.615 L 17.89,25.06 L 27,19 L 27.54,19.97 L 25.45,27.63 Z" fill="rgb(1, 149, 74)"/>
<path d="M 25.389999999999997,27.585 L 17.92,25.01 L 21.77,34.98 L 26.6,32.16 L 25.4,27.6 Z" fill="rgb(170, 224, 249)"/>
<path d="M 32.34,31.685 L 27,19 L 35,29 L 32.35,31.7 Z" fill="rgb(218, 224, 61)"/>
<path d="M 29.33,24.485 L 25.43,27.58 L 27.49,20.15 L 29.34,24.51 Z" fill="rgb(5, 98, 78)"/>
<path d="M 33.910000000000004,10.125 L 27,19 L 35,29 L 33.92,10.14 Z" fill="rgb(1, 151, 68)"/>
<path d="M 17.79,44.955 H 17.23 L 21.67,34.97 L 31.33,29.35 L 32.33,31.61 L 17.8,44.97 Z" fill="rgb(2, 150, 73)"/>
<path d="M 21.43,44.985 H 17.77 L 32.37,31.59 L 35.61,38.83 L 21.44,45 Z" fill="rgb(216, 224, 58)"/>
<path d="M 34.99,28.985 L 32.37,31.7 L 35.61,38.83 L 35,29 Z" fill="rgb(1, 146, 74)"/>
<path d="M 41.99,30.564999999999998 V 22.5 L 35,29 L 35.6,38.84 L 38.24,37.21 C 40.95,34.86 41.95,31.81 42,30.58 Z" fill="rgb(1, 101, 73)"/>
<path d="M 33.9,10.084999999999999 L 35,29 L 42,22.5 C 41.2,20.36 39.15,15.65 37.5,13.16 S 34.42,10.09 33.91,10.11 Z" fill="rgb(172, 222, 246)"/>
</svg>
