<?xml version="1.0" encoding="UTF-8"?>
<!-- generated by Finnhub -->
<svg viewBox="0 0 55.5 55.5" xmlns="http://www.w3.org/2000/svg">
<rect width="56" height="56" fill="rgb(239, 242, 248)"/>
<path d="M 18.99,39.985 C 25.6274,40 31,34.6274 31,28 C 31,27.9511 30.9997,27.9022 30.9991,27.8534 C 30.9902,28.3002 30.825,28.8406 30.4517,29.4943 C 29.3586,31.3847 26.9227,32.606 24.1152,34.0137 C 22.3111,34.9182 20.3536,35.8997 18.5003,37.1851 C 17.6473,37.7742 16.6879,38 15.8747,37.9996 C 14.8192,38 13.9999,37.5502 14,36.9229 C 13.9999,36.345 14.6591,35.6033 16.4373,34.8743 C 21.6633,32.781 26.9973,30.1364 27.0003,27.4688 C 27.0017,25.9559 25.1272,24.7088 20.9391,23.3923 C 17.8067,22.448 16.0003,21.1372 15.997,20.1565 C 16.0032,19.3923 16.5003,19 17.5317,19 C 19.2916,19 22.1412,20.9303 25.1478,22.9669 C 26.7003,24.0186 28.2947,25.0986 29.8026,25.9559 C 30.2158,26.1999 30.9399,26.6915 30.9963,27.687 C 30.8303,21.2043 25.5231,16 19.0003,16 C 12.3729,16 7.0003,21.3726 7.0003,28 S 12.3729,40 19.0003,40 Z" clip-rule="evenodd" fill="rgb(96, 179, 226)" fill-rule="evenodd"/>
<path d="M 31.537999999999997,29.479 C 33.3436,32.5992 38.7709,33.922 43.508,37.2077 C 44.361,37.7968 45.3205,38.0001 46.1336,37.9997 C 47.1891,38.0001 48.0001,37.5729 48,36.9455 C 48.0001,36.3677 47.3492,35.6259 45.5711,34.8969 C 40.345,32.8036 35.0021,30.136 34.9991,27.4685 C 34.9977,25.9556 36.8722,24.7085 41.0603,23.392 C 44.1927,22.4477 45.9991,21.1369 46.0024,20.1562 C 45.9962,19.392 45.4991,18.9997 44.4677,18.9997 C 41.799,18.9997 36.6248,23.4381 32.1967,25.9556 C 31.7664,26.2097 30.9989,26.7323 30.9994,27.8128 C 30.9989,28.2673 31.1626,28.8205 31.5472,29.494 Z" fill="rgb(96, 179, 226)"/>
</svg>
