<?xml version="1.0" encoding="UTF-8"?>
<!-- generated by Finnhub -->
<svg viewBox="0 0 55.5 55.5" xmlns="http://www.w3.org/2000/svg">
<path d="M 0,0 H 55.5 V 55.5 H 0 Z" fill="rgb(9, 190, 81)"/>
<path d="M 17.459999999999997,29.985 H 19 V 21 H 22 V 32 H 15.6 C 14.76,32 14,31.3 14,30.44 V 25.57 C 14,24.72 14.76,24 15.6,24 H 17 V 29.58 C 17,29.81 17.22,30 17.47,30 Z M 10.4,24 H 4 V 26 H 8.54 C 8.78,26 9,26.22 9,26.46 V 30 H 7.46 A 0.48,0.48 0 0,1 7,29.54 V 27 H 5.6 C 4.73,27 4,27.74 4,28.6 V 30.4 C 4,31.27 4.74,32 5.6,32 H 12 V 25.6 C 12,24.74 11.27,24 10.4,24 Z M 35.6,32 H 42 V 30 H 37.46 A 0.47,0.47 0 0,1 37,29.54 V 26 H 38.54 C 38.78,26 39,26.22 39,26.46 V 29 H 40.4 C 41.27,29 42,28.26 42,27.4 V 25.6 C 42,24.73 41.26,24 40.4,24 H 34 V 30.4 C 34,31.26 34.73,32 35.6,32 Z M 29,30 H 27.46 A 0.47,0.47 0 0,1 27,29.54 V 24 H 24 V 30.39 C 24,31.26 24.74,32 25.6,32 H 29 V 33 H 24 V 35 H 30.4 C 31.27,35 32,34.27 32,33.4 V 24 H 29 V 30 Z M 44,24 H 50.4 C 51.27,24 52,24.74 52,25.6 V 32 H 49 V 26.46 C 49,26.21 48.8,26 48.55,26 H 47 V 32 H 44 V 24 Z" fill="rgb(254, 254, 253)"/>
</svg>
