<?xml version="1.0" encoding="UTF-8"?>
<!-- generated by Finnhub -->
<svg viewBox="0 0 55.5 55.5" xmlns="http://www.w3.org/2000/svg">
<path d="M 0,0 H 55.5 V 55.5 H 0 Z" fill="rgb(211, 25, 48)"/>
<path d="M 8.85,24.985 L 9.07,25.4 L 5.05,30.84 C 4.68,31.33 4.3,31.74 4,32 H 6.02 L 6,31.95 C 5.96,31.84 5.92,31.73 5.98,31.51 C 6.01,31.37 6.09,31.21 6.16,31.12 L 7,30 H 10 L 10.15,30.84 C 10.19,31.09 10.21,31.27 10.15,31.51 C 10.11,31.68 10.01,31.83 9.88,32 H 13.44 C 13.16,31.6 13.09,31.21 13.04,30.87 L 12.06,25 H 8.86 Z M 9.44,26.6 L 9.84,29 H 7.76 L 9.45,26.6 Z M 31.97,26.19 A 2.54,2.54 0 0,0 30.97,26 H 29 C 28.6,26 28.43,26.15 28.35,26.44 L 27.29,30.56 C 27.22,30.86 27.33,31 27.71,31 H 29.69 C 30.06,31 30.46,30.93 30.79,30.81 L 30.28,32 H 25.98 C 24.78,32 24.41,31.27 24.72,30.06 L 25.5,26.93 C 25.81,25.73 26.54,25 27.75,25 H 32.05 L 31.97,26.19 Z M 38.43,31.99 C 39.63,31.99 40.35,31.27 40.66,30.06 L 41.45,26.93 C 41.75,25.73 41.4,25 40.2,25 H 36.06 C 34.85,25 34.12,25.72 33.81,26.93 L 33.02,30.06 C 32.72,31.27 33.08,32 34.28,32 H 38.43 Z M 37.3,26 H 38.48 C 38.86,26 38.98,26.15 38.9,26.45 L 37.86,30.55 C 37.78,30.85 37.6,31 37.21,31 H 36.04 C 35.65,31 35.54,30.85 35.62,30.55 L 36.66,26.45 C 36.74,26.15 36.91,26 37.3,26 Z M 51.48,26.16 L 50.01,32 H 46.51 L 45.05,26.2 H 45.02 L 43.85,30.84 C 43.72,31.36 43.71,31.7 43.78,32 H 42.17 C 42.4,31.7 42.54,31.36 42.67,30.84 L 43.87,26.16 C 43.99,25.63 44.02,25.3 43.94,25 H 47.69 L 49.12,30.7 H 49.15 L 50.31,26.16 C 50.44,25.63 50.46,25.3 50.38,25 H 52 C 51.77,25.3 51.61,25.63 51.48,26.16 Z M 18.04,25 H 22.04 C 23.18,25 23.68,25.55 23.31,27.05 L 22.97,28.39 L 22.82,29 H 18.72 L 18.98,28 H 20.41 L 20.79,26.46 C 20.87,26.13 20.72,26 20.37,26 H 19.21 C 18.87,26 18.66,26.13 18.57,26.46 L 18.06,28.5 L 17.56,30.55 C 17.47,30.88 17.61,31 17.96,31 H 20.64 C 21.72,31 21.91,30.92 22.32,30.73 L 21.77,32 H 16.29 C 15.15,32 14.64,31.46 15.02,29.95 L 15.38,28.5 L 15.75,27.05 C 16.13,25.55 16.9,25 18.04,25 Z" fill="rgb(254, 254, 253)"/>
</svg>
