<?xml version="1.0" encoding="UTF-8"?>
<!-- generated by Finnhub -->
<svg viewBox="0 0 55.5 55.5" xmlns="http://www.w3.org/2000/svg">
<path d="M 0,0 H 55.5 V 55.5 H 0 Z" fill="rgb(239, 242, 248)"/>
<path d="M 35.59,10.495 C 35.7,10.37 35.78,10.22 35.85,10.07 A 0.1,0.1 0 0,1 35.89,10.02 C 35.93,10 35.96,9.99 35.98,10.02 C 36,10.04 36,10.06 36,10.08 C 35.05,14.89 34.12,19.68 33.2,24.48 C 33.2,24.53 33.17,24.54 33.13,24.5 L 28.97,20.26 C 28.87,20.16 28.87,20.05 28.95,19.93 C 31.09,16.87 33.31,13.73 35.59,10.51 Z" fill="rgb(16, 71, 110)"/>
<path d="M 24.63,22.615 L 23.9,16.2 C 23.87,15.98 23.94,15.95 24.1,16.11 L 27.73,19.88 C 27.79,19.94 27.79,19.98 27.73,20.04 L 24.83,22.7 C 24.72,22.8 24.66,22.78 24.63,22.63 Z" fill="rgb(215, 172, 27)"/>
<path d="M 24.97,23.384999999999998 L 28.18,20.45 C 28.23,20.41 28.28,20.41 28.31,20.45 L 31.9,24.15 C 32,24.25 31.98,24.31 31.82,24.29 L 25.04,23.54 C 24.91,23.53 24.89,23.48 24.98,23.39 Z" fill="rgb(232, 213, 51)"/>
<path d="M 23.34,23.745 C 23.49,23.78 23.51,23.84 23.4,23.94 L 19.18,27.82 C 19.11,27.89 19.04,27.88 18.98,27.82 L 13.05,22.06 C 12.97,21.98 12.99,21.96 13.09,21.97 L 23.35,23.76 Z" fill="rgb(16, 71, 110)"/>
<path d="M 22.45,31.375 L 19.64,28.45 C 19.6,28.41 19.6,28.37 19.64,28.33 L 23.41,24.85 C 23.53,24.75 23.57,24.76 23.55,24.92 L 22.61,31.34 C 22.59,31.46 22.55,31.47 22.46,31.39 Z" fill="rgb(232, 213, 51)"/>
<path d="M 27.99,32.485 A 3.5,3.5 0 1,0 28,25.5 A 3.5,3.5 0 0,0 28,32.5 Z" fill="rgb(16, 71, 110)"/>
<path d="M 33.53,25.785 L 36.4,28.8 C 36.43,28.84 36.43,28.88 36.4,28.91 L 32.68,32.31 C 32.58,32.41 32.53,32.39 32.55,32.24 L 33.4,25.85 C 33.41,25.74 33.46,25.73 33.54,25.81 Z" fill="rgb(232, 213, 51)"/>
<path d="M 39.02,26.495 L 37,28.36 C 36.96,28.4 36.92,28.4 36.88,28.36 L 34.46,25.89 C 34.35,25.78 34.37,25.73 34.53,25.75 L 39,26.37 C 39.11,26.39 39.13,26.43 39.04,26.51 Z M 17.17,30.99 L 19.09,28.95 C 19.14,28.91 19.19,28.91 19.23,28.95 L 21.61,31.31 C 21.73,31.43 21.71,31.48 21.54,31.47 L 17.23,31.14 C 17.1,31.13 17.08,31.08 17.17,30.99 Z" fill="rgb(215, 172, 27)"/>
<path d="M 36.93,29.285 L 42.92,35.17 C 43.05,35.3 43.02,35.34 42.84,35.31 L 32.31,33.6 C 32.19,33.58 32.18,33.53 32.26,33.45 L 36.81,29.3 C 36.86,29.26 36.9,29.26 36.94,29.3 Z M 20.63,45.98 V 46 C 20.62,46 20.61,46 20.61,45.98 C 21.42,41.49 22.19,37.13 22.93,32.88 C 22.95,32.78 22.99,32.78 23.06,32.84 L 27.46,37.37 C 27.53,37.43 27.53,37.5 27.48,37.57 A 312.91,312.91 0 0,1 20.63,45.97 Z" fill="rgb(16, 71, 110)"/>
<path d="M 30.72,34.125 L 27.86,36.78 C 27.82,36.82 27.78,36.82 27.74,36.78 L 24.23,33.17 C 24.12,33.05 24.14,33 24.3,33.03 L 30.68,34 C 30.8,34.02 30.81,34.06 30.73,34.14 Z" fill="rgb(232, 213, 51)"/>
<path d="M 32.43,41.355 C 32.44,41.41 32.44,41.41 32.41,41.38 L 28.39,37.42 C 28.29,37.32 28.29,37.22 28.39,37.12 L 31.34,34.41 C 31.39,34.36 31.42,34.37 31.44,34.44 L 32.44,41.37 Z" fill="rgb(215, 172, 27)"/>
</svg>
