<?xml version="1.0" encoding="UTF-8"?>
<!-- generated by Finnhub -->
<svg viewBox="0 0 55.5 55.5" xmlns="http://www.w3.org/2000/svg">
<rect width="56" height="56" fill="rgb(239, 242, 248)"/>
<path d="M 10.99,21.985 L 4,33 H 7.5 C 8.7768,31.4439 13.9237,29 13.9237,29 L 16.5587,33 H 21.5587 L 18.5587,28 C 18.7497,28 18.9012,28.0001 19.0306,28.0003 C 19.2399,28.0005 19.3913,28.0006 19.5582,28 C 20.6804,27.996 22,28.5 22,28.5 V 33 H 26 V 30 C 26.9576,30.1197 30,33 30,33 H 35 C 34.5611,31.7631 31,29 31,29 S 34,28.6633 34,25.591 C 34,22 31,22 31,22 H 22 V 26.1496 C 26.2294,26.8678 30,32 30,32 C 26.2097,28.6695 22.9881,27.5323 19.605,27.5 C 13.3013,27.4398 9,31 9,31 L 12,26 L 13.2519,27.7356 C 14.4489,26.4987 17.2744,26 17.2744,26 L 15,22 H 11 Z M 27,26.8966 V 24.0624 S 31,23.5351 31,25.5454 S 27,26.8966 27,26.8966 Z" clip-rule="evenodd" fill="rgb(42, 41, 39)" fill-rule="evenodd"/>
<path d="M 35.99,21.985 V 33 H 38 V 26 L 42.5,30.5 L 47,26 V 33 H 51 V 22 H 47 L 43,26.5 L 39,22 H 36 Z" clip-rule="evenodd" fill="rgb(42, 41, 39)" fill-rule="evenodd"/>
</svg>
