<?xml version="1.0" encoding="UTF-8"?>
<!-- generated by Finnhub -->
<svg viewBox="0 0 55.5 55.5" xmlns="http://www.w3.org/2000/svg">
<path d="M 0,0 H 55.5 V 55.5 H 0 Z" fill="rgb(239, 242, 248)"/>
<path d="M 25.2,12.985 C 25.21,15.25 24.37,16 23.54,19.75 C 22.87,22.75 25.49,24.5 26.88,25 C 27.71,25 30.48,21.18 29.38,18.25 C 28.55,16 26.04,15.25 25.21,13 Z M 35.07,26.71 C 32.19,28.65 29.88,27.96 29.14,27.46 C 26.92,25.96 32.11,19.99 34.33,18.49 C 36.3,17.17 38.78,17 41,17 C 41,18.5 40.69,21.8 39.52,22.98 C 38.04,24.48 37.29,25.22 35.07,26.71 Z M 17.62,22 C 22.49,22 25.24,24.97 26,26.45 A 18.48,18.48 0 0,1 17.62,28.68 C 13.96,28.68 11.02,26.2 10,24.97 C 10.5,24.97 11.83,24.67 13.05,23.48 C 14.27,22.3 16.6,22 17.62,22 Z M 26.76,36.84 C 25.54,33.28 27.26,30.9 28.28,30.16 C 30.57,29.42 32.85,32.39 33.61,36.1 C 34.22,39.06 32.85,43.27 32.09,45 C 32.09,42.77 28.29,41.29 26.76,36.84 Z M 34.55,28 C 33.33,28 32.21,28.75 31.7,29 C 32.21,29.99 33.48,32 35.32,32 C 37.15,32 39.2,30.74 39.97,30 C 39.71,29.5 37.9,28 36.08,28 H 34.55 Z M 25.42,29.48 C 25.68,31.21 24.82,34.52 19.3,33.93 C 19.81,31.71 21.75,27.7 25.42,29.48 Z" fill="rgb(83, 118, 37)"/>
</svg>
