<?xml version="1.0" encoding="UTF-8"?>
<!-- generated by Finnhub -->
<svg viewBox="0 0 55.5 55.5" xmlns="http://www.w3.org/2000/svg">
<rect width="56" height="56" fill="rgb(239, 242, 248)"/>
<path d="M 6.1748,24.985 H 6.95746 L 9.11993,30 H 7.98781 L 7.52055,28.8561 H 5.53852 L 5.08561,30 H 4 L 6.1848,25 Z M 7.20798,28 L 6.54681,26.2144 L 5.84391,28 H 7.20798 Z" fill="rgb(34, 30, 30)"/>
<path d="M 9.99,24.985 H 11 V 29.2063 H 13 V 30 H 10 V 25 Z" fill="rgb(34, 30, 30)"/>
<path d="M 17.570999999999998,29.615 C 17.3161,29.7507 17.0378,29.842 16.7513,29.9021 C 16.4094,29.9711 16.0606,30.0038 15.7113,29.9996 C 15.3348,30.0044 14.9607,29.9416 14.6082,29.8145 C 14.2918,29.699 14.0031,29.5231 13.7597,29.2974 C 13.519,29.0728 13.3294,28.8028 13.2026,28.5045 C 13.0657,28.1826 12.9969,27.8378 13.0001,27.4901 C 12.9945,27.1351 13.0653,26.7828 13.2081,26.4553 C 13.3375,26.1588 13.5308,25.8919 13.7754,25.6722 C 14.0216,25.4535 14.3109,25.2843 14.6263,25.1748 C 14.9674,25.056 15.328,24.9969 15.6908,25.0002 C 16.0611,24.9962 16.4294,25.0519 16.7805,25.165 C 17.0738,25.2558 17.3442,25.4041 17.5747,25.6004 L 16.9649,26.2323 C 16.8162,26.083 16.6359,25.966 16.4362,25.8891 C 16.2025,25.794 15.9509,25.7462 15.6971,25.7485 C 15.4536,25.7453 15.2121,25.7909 14.988,25.8823 C 14.782,25.9676 14.597,26.0935 14.4451,26.2519 C 14.2933,26.4122 14.1755,26.5994 14.0985,26.803 C 14.0149,27.0226 13.9733,27.2548 13.9756,27.4886 C 13.9726,27.7278 14.0142,27.9656 14.0985,28.1908 C 14.1753,28.3963 14.2943,28.5849 14.4483,28.7456 C 14.6028,28.9039 14.7909,29.0287 14.9998,29.1115 C 15.2343,29.2021 15.4854,29.2466 15.7381,29.2422 C 16.0757,29.2493 16.3009,29.2293 16.6155,29.1115 V 28 H 15.6829 V 27.244 H 17.5747 L 17.581,29.63 Z" fill="rgb(34, 30, 30)"/>
<path d="M 18.4,24.985 H 21.9996 V 25.7764 H 19.4128 V 27.0467 H 21.7114 V 27.7945 H 19.4128 V 29.2061 H 21.9996 V 30 H 18.41 V 25 Z" fill="rgb(34, 30, 30)"/>
<path d="M 22.99,24.985 H 24.8394 C 25.0835,24.9995 25.3269,25.0242 25.5652,25.0739 C 25.7873,25.1187 25.9987,25.2013 26.1893,25.3178 C 26.371,25.4305 26.5211,25.5832 26.6267,25.7626 C 26.7434,25.9689 26.8013,26.2002 26.7949,26.4339 C 26.8099,26.7576 26.6935,27.0744 26.4694,27.3197 C 26.2332,27.5587 25.9228,27.7208 25.5829,27.7828 L 26.9926,30 H 25.8563 L 24.63,27.8813 H 24 V 30 H 23 V 25 Z M 24.7124,27.1536 C 24.8476,27.1539 24.9825,27.1446 25.1161,27.1258 C 25.2424,27.1095 25.3649,27.0736 25.4786,27.0194 C 25.586,26.968 25.6775,26.8914 25.7444,26.797 C 25.8183,26.6865 25.8546,26.5573 25.8487,26.4268 C 25.8542,26.308 25.8204,26.1905 25.752,26.0907 C 25.6876,26.0043 25.603,25.933 25.5047,25.8826 C 25.3998,25.8294 25.286,25.7936 25.1683,25.7769 C 25.0459,25.7582 24.9222,25.7487 24.7982,25.7483 H 24 V 27.1536 H 24.7124 Z" fill="rgb(34, 30, 30)"/>
<path d="M 27.99,24.985 H 29.2047 L 31.5,28.5613 V 25 H 32.5 V 30 H 31.3464 L 29,26.3665 V 30 H 28 V 25 Z" fill="rgb(34, 30, 30)"/>
<path d="M 38.49,24.985 H 39.7047 L 42,28.5613 V 25 H 43 V 30 H 41.8464 L 39.5,26.3665 V 30 H 38.5 V 25 Z" fill="rgb(34, 30, 30)"/>
<path d="M 32.99,27.473 C 32.9948,27.1347 33.0584,26.784 33.1871,26.4561 C 33.3036,26.1604 33.48,25.8933 33.7046,25.6724 C 33.9315,25.4533 34.1996,25.2839 34.4927,25.1746 C 34.8117,25.0556 35.1491,24.9964 35.4886,24.9999 C 35.8313,24.9961 36.1719,25.0553 36.4941,25.1746 C 36.789,25.2839 37.0591,25.4532 37.2882,25.6724 C 37.515,25.8926 37.6932,26.1598 37.8109,26.4561 C 37.9401,26.7839 38.0041,27.1346 37.9995,27.488 C 38.0039,27.837 37.9403,28.1834 37.8124,28.507 C 37.6923,28.8041 37.5139,29.0729 37.2882,29.2968 C 37.0596,29.5221 36.7891,29.6981 36.4927,29.8142 C 36.1719,29.9403 35.8308,30.0032 35.4871,29.9995 C 35.1467,30.003 34.8087,29.9401 34.4913,29.8142 C 34.1971,29.6979 33.929,29.5218 33.7031,29.2968 C 33.4797,29.0709 33.3036,28.8009 33.1856,28.5032 C 33.0587,28.1807 32.9956,27.8356 33,27.488 Z M 33.9997,27.488 C 33.9892,28.4013 34.55,29.2568 35.4975,29.243 C 36.4658,29.256 37.0096,28.3948 36.9997,27.488 C 37.0073,26.5754 36.4391,25.7335 35.4975,25.7465 C 34.5582,25.7322 33.9941,26.5813 33.9997,27.488 Z" fill="rgb(34, 30, 30)"/>
<path d="M 50.944,29.011 L 47.211,24.9999 H 43.3837 L 47.3566,28.9777 L 43.3837,32.9999 H 47.2171 L 50.954,29.026 Z" fill="rgb(25, 65, 136)"/>
<path d="M 47.859,24.985 H 49.178 L 51.9998,28.0137 L 51.284,28.741 L 47.869,25 Z" fill="rgb(137, 35, 48)"/>
</svg>
