<?xml version="1.0" encoding="UTF-8"?>
<!-- generated by Finnhub -->
<svg viewBox="0 0 55.5 55.5" xmlns="http://www.w3.org/2000/svg">
<path d="M 0,0 H 55.5 V 55.5 H 0 Z" fill="url(#a)"/>
<path d="M 27.049999999999997,13.285 C 27.06,13.8 26.79,14.23 26.38,14.45 V 30.85 L 17.2,19.3 L 16.95,19.32 C 16.23,19.32 15.64,18.73 15.64,18.02 A 1.31,1.31 0 1,1 18.14,18.57 L 25,27.07 V 14.37 A 1.3,1.3 0 0,1 25.74,11.99 C 26.47,11.99 27.06,12.58 27.06,13.29 Z M 25.74,13.76 C 25.99,13.76 26.2,13.56 26.2,13.31 S 26,12.85 25.74,12.85 C 25.49,12.85 25.29,13.05 25.29,13.31 C 25.29,13.56 25.49,13.76 25.74,13.76 Z M 17.41,18 C 17.41,18.25 17.21,18.46 16.95,18.46 A 0.45,0.45 0 0,1 16.5,18 C 16.5,17.75 16.7,17.55 16.95,17.55 C 17.21,17.55 17.41,17.75 17.41,18 Z M 29,13.32 C 29,13.82 29.27,14.24 29.68,14.47 V 31 L 38.93,19.34 A 1.32,1.32 0 0,0 40.5,18.04 C 40.5,17.32 39.9,16.74 39.18,16.74 A 1.32,1.32 0 0,0 37.98,18.6 L 31,27.17 V 14.45 A 1.31,1.31 0 0,0 30.32,12 C 29.59,12 29,12.59 29,13.32 Z M 30.32,13.77 A 0.46,0.46 0 0,1 29.87,13.32 C 29.87,13.07 30.07,12.86 30.32,12.86 C 30.58,12.86 30.78,13.06 30.78,13.32 C 30.78,13.57 30.58,13.77 30.32,13.77 Z M 38.72,18.05 C 38.72,18.3 38.92,18.51 39.18,18.51 C 39.43,18.51 39.63,18.31 39.63,18.05 C 39.63,17.8 39.43,17.59 39.18,17.59 C 38.92,17.59 38.72,17.79 38.72,18.05 Z M 15.78,22.5 A 1.31,1.31 0 0,0 14.63,20.56 C 13.9,20.56 13.31,21.15 13.31,21.86 A 1.31,1.31 0 0,0 14.83,23.16 L 19.34,29.1 L 14.59,27.14 A 1.31,1.31 0 0,0 12,27.44 A 1.31,1.31 0 0,0 14.01,28.55 L 23.34,31.96 L 15.78,22.5 Z M 14.63,22.32 C 14.88,22.32 15.08,22.12 15.08,21.87 S 14.88,21.42 14.63,21.42 S 14.17,21.62 14.17,21.87 S 14.37,22.32 14.63,22.32 Z M 13.31,27.9 C 13.57,27.9 13.77,27.7 13.77,27.45 S 13.57,26.99 13.31,26.99 C 13.06,26.99 12.86,27.19 12.86,27.45 C 12.86,27.7 13.06,27.9 13.31,27.9 Z M 40.06,21.87 C 40.06,22.1 40.11,22.31 40.22,22.5 L 32.66,31.96 L 41.99,28.56 A 1.31,1.31 0 0,0 44,27.45 A 1.31,1.31 0 0,0 41.4,27.15 L 36.66,29.1 L 41.17,23.16 L 41.37,23.17 C 42.1,23.17 42.69,22.59 42.69,21.87 C 42.69,21.15 42.09,20.57 41.37,20.57 C 40.64,20.57 40.06,21.15 40.06,21.87 Z M 40.92,21.87 A 0.45,0.45 0 0,0 41.83,21.87 C 41.83,21.62 41.63,21.42 41.37,21.42 C 41.12,21.42 40.92,21.62 40.92,21.87 Z M 42.23,27.45 C 42.23,27.7 42.43,27.9 42.69,27.9 C 42.94,27.9 43.14,27.7 43.14,27.45 S 42.94,26.99 42.69,26.99 C 42.43,26.99 42.23,27.19 42.23,27.45 Z M 15.16,33.45 A 1.31,1.31 0 0,1 13.01,32.45 C 13.01,31.72 13.6,31.13 14.33,31.13 C 14.95,31.13 15.48,31.57 15.61,32.16 L 23.76,35.36 L 18.26,37.76 A 1.31,1.31 0 0,1 16.96,38.93 C 16.23,38.93 15.64,38.34 15.64,37.63 A 1.31,1.31 0 0,1 17.68,36.53 L 20.15,35.48 L 15.16,33.45 Z M 14.32,32.89 C 14.58,32.89 14.78,32.69 14.78,32.44 S 14.58,31.99 14.32,31.99 C 14.07,31.99 13.87,32.19 13.87,32.44 S 14.07,32.89 14.32,32.89 Z M 16.95,38.08 C 17.21,38.08 17.41,37.88 17.41,37.62 C 17.41,37.37 17.21,37.17 16.95,37.17 C 16.7,37.17 16.5,37.37 16.5,37.62 S 16.7,38.08 16.95,38.08 Z M 41.79,33.75 C 41.47,33.75 41.18,33.64 40.95,33.45 L 35.96,35.48 L 38.43,36.53 A 1.31,1.31 0 0,1 40.47,37.63 A 1.31,1.31 0 0,1 37.85,37.77 L 32.35,35.37 L 40.5,32.16 A 1.31,1.31 0 0,1 43.1,32.44 C 43.1,33.16 42.51,33.74 41.79,33.74 Z M 41.33,32.45 C 41.33,32.69 41.53,32.89 41.79,32.89 C 42.04,32.89 42.24,32.69 42.24,32.44 S 42.04,31.99 41.79,31.99 C 41.53,31.99 41.33,32.19 41.33,32.44 Z M 38.7,37.62 C 38.7,37.87 38.9,38.08 39.16,38.08 C 39.41,38.08 39.61,37.88 39.61,37.62 C 39.61,37.37 39.41,37.17 39.16,37.17 S 38.7,37.37 38.7,37.62 Z M 26.2,41.46 A 1.3,1.3 0 0,1 25.74,43.99 A 1.3,1.3 0 0,1 24.97,41.62 V 39.5 L 22.28,40.62 A 1.31,1.31 0 0,1 20.97,41.83 C 20.24,41.83 19.66,41.25 19.66,40.53 A 1.31,1.31 0 0,1 21.66,39.41 L 26.2,37.65 V 41.45 Z M 20.97,40.98 C 21.22,40.98 21.43,40.78 21.43,40.53 S 21.23,40.08 20.97,40.08 C 20.72,40.08 20.52,40.28 20.52,40.53 S 20.72,40.98 20.97,40.98 Z M 25.74,43.14 C 25.99,43.14 26.2,42.94 26.2,42.68 C 26.2,42.43 26,42.23 25.74,42.23 C 25.49,42.23 25.29,42.43 25.29,42.68 S 25.49,43.14 25.74,43.14 Z M 31.76,42.68 C 31.76,42.16 31.45,41.7 31,41.5 V 39.5 L 33.92,40.7 C 34,41.34 34.55,41.83 35.22,41.83 C 35.95,41.83 36.54,41.25 36.54,40.53 A 1.31,1.31 0 0,0 34.46,39.46 L 29.73,37.66 V 41.59 A 1.3,1.3 0 0,0 30.45,43.99 C 31.17,43.99 31.76,43.4 31.76,42.69 Z M 34.76,40.53 C 34.76,40.78 34.96,40.98 35.22,40.98 C 35.47,40.98 35.68,40.78 35.68,40.53 S 35.48,40.08 35.22,40.08 C 34.97,40.08 34.77,40.28 34.77,40.53 Z M 30,42.69 C 30,42.94 30.2,43.15 30.46,43.15 C 30.71,43.15 30.91,42.95 30.91,42.69 A 0.45,0.45 0 0,0 30,42.69 Z" fill="rgb(141, 195, 61)" fill-rule="evenodd"/>
<defs>
<linearGradient id="a" x1="10.42" x2="68.15" y1="9.71" y2="76.02" gradientUnits="userSpaceOnUse">
<stop stop-color="rgb(25, 29, 31)" offset="0"/>
<stop stop-color="rgb(5, 5, 8)" offset="1"/>
</linearGradient>
</defs>
</svg>
