<?xml version="1.0" encoding="UTF-8"?>
<!-- generated by Finnhub -->
<svg viewBox="0 0 55.5 55.5" xmlns="http://www.w3.org/2000/svg">
<path d="M 0,0 H 55.5 V 55.5 H 0 Z" fill="rgb(70, 169, 64)"/>
<path d="M 8.21,21.985 L 11.19,29.94 C 11.32,30.31 11.56,30.72 12,30.74 V 31 H 8.87 V 30.75 C 9.64,30.72 9.85,30.42 9.57,29.69 L 7.4,23.54 L 7.6,23.31 L 5.58,28.81 C 5.43,29.18 5.34,29.5 5.31,29.75 C 5.24,30.49 5.69,30.72 6.37,30.75 V 31 H 4 V 30.75 C 4.54,30.61 4.82,30.05 5,29.57 L 7.8,22 H 8.22 Z M 9.5,27.36 V 27.61 H 5.88 L 6,27.36 H 9.5 Z M 14.78,34 C 14.28,34 13.82,33.95 13.38,33.86 C 12.82,33.74 12,33.45 12,32.74 C 12,32.2 12.52,31.77 13.43,31.55 L 13.53,31.75 C 13.15,31.9 13,32.1 13,32.5 C 13,32.86 13.12,33.3 13.48,33.5 C 13.85,33.7 14.33,33.79 14.93,33.79 C 15.83,33.79 17.29,33.52 17.29,32.36 C 17.29,31.53 16.4,31.43 15.77,31.43 H 14.83 C 14.52,31.43 14.23,31.4 13.96,31.35 C 13.47,31.26 13.06,30.99 13.06,30.45 C 13.06,29.53 14.24,29.07 14.94,28.79 L 15.1,28.9 C 14.73,29.1 14,29.33 14,29.85 C 14,30.11 14.2,30.25 14.6,30.25 H 16.2 C 17.64,30.25 19.28,31.32 18.04,32.85 C 17.3,33.8 15.89,34 14.78,34 Z M 14.98,29 C 13.74,29 12.5,28.39 12.5,27 C 12.5,25.62 13.74,25 14.98,25 C 15.96,25 17.5,25.84 17.5,27 C 17.5,28.4 16.22,29 14.98,29 Z M 14.98,28.78 C 15.88,28.78 16,27.68 16,27 C 16,26.33 15.88,25.32 14.98,25.32 C 14.09,25.32 14,26.34 14,27 C 14,27.67 14,28.78 14.98,28.78 Z M 16.84,26.16 L 16.6,26.08 C 16.72,25.78 16.93,25.54 17.24,25.32 C 17.54,25.11 17.86,25 18.19,25 C 18.43,25 18.63,25.07 18.77,25.2 C 18.92,25.32 19,25.5 19,25.73 C 19,25.98 18.92,26.17 18.77,26.27 C 18.63,26.38 18.47,26.43 18.32,26.43 A 0.67,0.67 0 0,1 17.92,26.3 C 17.8,26.2 17.74,26.07 17.72,25.88 C 17.7,25.68 17.77,25.43 17.92,25.12 L 18.06,25.17 C 17.71,25.3 17.45,25.45 17.28,25.59 C 17.12,25.73 16.97,25.92 16.84,26.16 Z M 22,24 V 29.79 C 22,30.39 22.02,30.73 22.65,30.73 V 31 H 19.67 V 30.73 C 20.13,30.73 20.5,30.39 20.5,29.79 V 25.7 C 20.5,25.1 20.5,24.55 20,24.55 V 24.15 C 20.71,24.22 21.31,24.21 22,24 Z M 26.5,21 V 29.81 C 26.5,30.41 26.94,30.73 27.44,30.73 V 31 H 24 V 30.73 C 24.61,30.73 25,30.41 25,29.81 V 22.53 C 25,21.93 24.84,21.41 24.15,21.41 V 21.14 C 24.86,21.21 25.81,21.21 26.5,21 Z M 37.25,24 C 37.63,24 37.95,24.06 38.23,24.17 C 38.51,24.27 38.71,24.37 38.83,24.45 C 39.14,24.67 39.33,24.53 39.41,24.01 H 39.71 L 39.66,26.23 H 39.36 A 2.62,2.62 0 0,0 38.46,24.55 C 38.21,24.35 37.88,24.25 37.46,24.25 C 37.16,24.25 36.9,24.34 36.69,24.5 C 36.49,24.66 36.38,24.89 36.38,25.2 C 36.38,25.45 36.46,25.68 36.63,25.87 C 36.8,26.05 37.02,26.23 37.28,26.39 L 38.15,26.92 C 38.5,27.14 38.81,27.35 39.08,27.56 C 39.37,27.77 39.58,28 39.75,28.26 C 39.92,28.52 40,28.82 40,29.16 C 40,29.56 39.88,29.89 39.65,30.16 C 39.42,30.44 39.12,30.65 38.75,30.79 A 3.59,3.59 0 0,1 36.32,30.79 L 36.02,30.64 A 4.9,4.9 0 0,0 35.73,30.47 C 35.63,30.41 35.55,30.42 35.48,30.5 C 35.4,30.58 35.35,30.8 35.31,31 H 35 V 28 H 35.35 C 35.48,28.94 35.73,30.02 36.24,30.43 C 36.5,30.63 36.86,30.73 37.31,30.73 C 37.49,30.73 37.67,30.7 37.85,30.63 A 1,1 0 0,0 38.28,30.27 C 38.4,30.1 38.46,29.88 38.46,29.61 C 38.46,29.23 38.32,28.92 38.03,28.68 A 7.82,7.82 0 0,0 36.93,27.9 L 36.01,27.3 C 35.73,27.09 35.51,26.86 35.32,26.61 A 1.56,1.56 0 0,1 35.06,25.7 C 35.06,25.31 35.16,25 35.36,24.75 C 35.56,24.5 35.83,24.31 36.16,24.19 C 36.51,24.06 36.86,24 37.26,24 Z M 49.25,24 C 49.63,24 49.95,24.06 50.23,24.17 C 50.51,24.27 50.71,24.37 50.83,24.45 C 51.14,24.67 51.33,24.53 51.41,24.01 H 51.71 L 51.66,26.23 H 51.36 A 2.62,2.62 0 0,0 50.46,24.55 C 50.21,24.35 49.88,24.25 49.46,24.25 C 49.16,24.25 48.9,24.34 48.69,24.5 C 48.49,24.66 48.38,24.89 48.38,25.2 C 48.38,25.45 48.46,25.68 48.63,25.87 C 48.8,26.05 49.02,26.23 49.28,26.39 L 50.15,26.92 C 50.5,27.14 50.81,27.35 51.08,27.56 C 51.37,27.77 51.58,28 51.75,28.26 C 51.92,28.52 52,28.82 52,29.16 C 52,29.56 51.88,29.89 51.65,30.16 C 51.42,30.44 51.12,30.65 50.75,30.79 A 3.59,3.59 0 0,1 48.32,30.79 L 48.02,30.64 A 4.9,4.9 0 0,0 47.73,30.47 C 47.63,30.41 47.55,30.42 47.48,30.5 C 47.4,30.58 47.35,30.8 47.31,31 H 47 V 28 H 47.35 C 47.48,28.94 47.73,30.02 48.24,30.43 C 48.5,30.63 48.86,30.73 49.31,30.73 C 49.49,30.73 49.67,30.7 49.85,30.63 A 1,1 0 0,0 50.28,30.27 C 50.4,30.1 50.46,29.88 50.46,29.61 C 50.46,29.23 50.32,28.92 50.03,28.68 A 7.82,7.82 0 0,0 48.93,27.9 L 48.01,27.3 C 47.73,27.09 47.51,26.86 47.32,26.61 A 1.56,1.56 0 0,1 47.06,25.7 C 47.06,25.31 47.16,25 47.36,24.75 C 47.56,24.5 47.83,24.31 48.16,24.19 C 48.51,24.06 48.86,24 49.26,24 Z" fill="rgb(254, 254, 253)"/>
<circle cx="35.5" cy="32.5" r=".5" fill="rgb(254, 254, 253)"/>
<path d="M 33.99,24.245 V 24 H 32 V 24.26 C 32.54,24.29 32.89,24.49 32.93,24.92 C 32.96,25.12 32.91,25.4 32.79,25.74 L 31.64,29.04 L 30.21,25.23 C 29.95,24.53 30.29,24.27 31,24.27 V 24 H 28 V 24.27 C 28.4,24.27 28.64,24.67 28.78,24.98 L 31.04,30.76 L 30.7,31.75 C 30.56,32.15 30.4,32.48 29.99,32.6 A 0.5,0.5 0 1,0 29,32.5 C 29,32.88 29.3,33 29.48,33 C 29.65,33 29.83,32.97 30,32.92 C 30.52,32.77 30.77,32.24 30.95,31.77 L 31.37,30.57 L 33.22,25.23 C 33.35,24.86 33.55,24.33 34,24.26 Z M 47,24.26 V 24 H 45 V 24.26 C 45.54,24.29 45.89,24.49 45.93,24.92 C 45.96,25.12 45.91,25.4 45.79,25.74 L 44.64,29.04 L 43.21,25.23 C 42.95,24.53 43.33,24.27 44.04,24.27 V 24 H 41 V 24.27 C 41.4,24.27 41.64,24.67 41.78,24.98 L 44.04,30.76 L 43.7,31.75 C 43.56,32.15 43.4,32.48 42.99,32.6 A 0.5,0.5 0 1,0 42,32.5 C 42,32.88 42.3,33 42.48,33 C 42.65,33 42.83,32.97 43,32.92 C 43.52,32.77 43.77,32.24 43.95,31.77 L 44.37,30.57 L 46.22,25.23 C 46.35,24.86 46.55,24.33 47,24.26 Z" fill="rgb(254, 254, 253)"/>
<circle cx="47.5" cy="32.5" r=".5" fill="rgb(254, 254, 253)"/>
<circle cx="51.5" cy="32.5" r=".5" fill="rgb(254, 254, 253)"/>
<circle cx="21" cy="22" r="1" fill="rgb(254, 254, 253)"/>
</svg>
