<?xml version="1.0" encoding="UTF-8"?>
<!-- generated by Finnhub -->
<svg viewBox="0 0 55.5 55.5" xmlns="http://www.w3.org/2000/svg">
<path d="M 0,0 H 55.5 V 55.5 H 0 Z" fill="rgb(13, 50, 87)"/>
<path d="M 6.6000000000000005,26.485 H 5.4 V 27.89 H 4 V 29.11 H 5.39 V 30.51 H 6.61 V 29.11 H 8.01 V 27.9 H 6.6 V 26.5 Z" fill="rgb(79, 195, 193)"/>
<path d="M 9.99,24.985 H 9 V 26 H 8 V 27 H 9 V 28 H 10 V 27 H 11 V 26 H 10 V 25 Z" fill="rgb(186, 194, 46)"/>
<path d="M 11.790000000000001,26.985 C 11.83,26.5 12.29,25.48 13.91,25.5 C 14.46,25.5 15.37,25.73 15.38,26.72 V 29.34 C 15.39,29.47 15.48,29.84 15.58,30 H 14.54 C 14.51,29.93 14.44,29.68 14.44,29.56 C 14.27,29.7 13.79,30 13.16,30 C 12.38,30 11.68,29.61 11.66,28.71 C 11.66,27.81 12.57,27.44 13.36,27.37 C 14.14,27.3 14.38,27.2 14.38,26.82 S 13.92,26.32 13.65,26.32 C 13.37,26.32 12.85,26.5 12.83,27 H 11.8 Z M 14.38,27.88 V 28.42 C 14.37,28.66 14.18,29.15 13.48,29.17 C 12.78,29.19 12.65,28.81 12.68,28.62 C 12.68,28.46 12.84,28.13 13.51,28.06 C 14.17,27.99 14.37,27.91 14.38,27.88 Z M 20.68,27 C 20.71,26.5 21.17,25.48 22.79,25.5 C 23.34,25.5 24.25,25.73 24.26,26.72 V 29.34 C 24.27,29.47 24.36,29.84 24.46,30 H 23.42 C 23.39,29.93 23.32,29.68 23.32,29.56 C 23.15,29.7 22.67,30 22.04,30 C 21.26,30 20.56,29.61 20.54,28.71 C 20.54,27.81 21.45,27.44 22.24,27.37 C 23.02,27.3 23.26,27.2 23.26,26.82 S 22.8,26.32 22.53,26.32 C 22.25,26.32 21.73,26.5 21.71,27 H 20.68 Z M 23.26,27.88 V 28.42 C 23.25,28.66 23.06,29.15 22.36,29.17 C 21.66,29.19 21.53,28.81 21.56,28.62 C 21.56,28.46 21.72,28.13 22.39,28.06 C 23.05,27.99 23.25,27.91 23.26,27.88 Z" fill="rgb(254, 254, 253)" fill-rule="evenodd"/>
<path d="M 19.99,23.985 H 19 V 26.23 A 1.7,1.7 0 0,0 17.65,25.5 C 16.64,25.5 15.82,26.5 15.82,27.75 C 15.82,28.99 16.64,30 17.65,30 A 1.7,1.7 0 0,0 19,29.27 V 30 H 20 V 24 Z M 19,27.63 V 27.78 C 18.97,28.48 18.5,29.05 17.92,29.05 C 17.32,29.05 16.83,28.45 16.83,27.7 C 16.83,26.96 17.32,26.36 17.92,26.36 C 18.5,26.36 18.97,26.92 19,27.63 Z M 25,31.52 H 26 V 29.29 C 26.34,29.74 26.82,30.02 27.35,30.02 C 28.37,30.02 29.19,29.01 29.19,27.77 C 29.19,26.52 28.37,25.52 27.35,25.52 A 1.7,1.7 0 0,0 26,26.24 V 25.52 H 25 V 31.52 Z M 26,27.89 V 27.74 C 26.04,27.04 26.5,26.47 27.09,26.47 C 27.69,26.47 28.17,27.07 28.17,27.81 C 28.17,28.55 27.68,29.15 27.09,29.15 C 26.51,29.15 26.04,28.59 26,27.89 Z M 30,25.74 V 24.5 H 31 V 25.74 H 31.83 V 26.6 H 31 V 28.56 C 31,29.06 31.55,29.08 31.83,29.03 V 30 H 30.8 C 30,29.92 29.98,29.32 29.99,29.03 V 26.6 H 29.29 V 25.74 H 29.99 Z M 33.56,24 H 33 V 30 H 33.56 V 27.47 C 33.56,27.06 33.89,26.22 34.76,26.22 C 35.46,26.22 35.66,26.81 35.68,27.11 V 30 H 36.21 V 27.02 C 36.2,26.49 35.87,25.72 34.89,25.72 C 34.1,25.71 33.67,26.14 33.56,26.36 V 24 Z M 49.35,24 H 48.79 V 30 H 49.35 V 27.47 C 49.35,27.06 49.68,26.22 50.55,26.22 C 51.25,26.22 51.46,26.81 51.47,27.11 V 30 H 52 V 27.02 C 52,26.49 51.66,25.72 50.68,25.72 C 49.9,25.71 49.47,26.14 49.35,26.36 V 24 Z M 38.62,30 C 39.62,30 40.2,29.34 40.39,28.43 H 39.83 C 39.67,29.05 39.27,29.49 38.62,29.49 C 37.89,29.49 37.4,28.82 37.34,27.95 H 40.45 V 27.75 C 40.45,26.51 39.72,25.5 38.62,25.5 S 36.78,26.5 36.78,27.75 C 36.78,28.99 37.51,30 38.62,30 Z M 39.88,27.38 H 37.35 C 37.47,26.6 37.95,26.01 38.62,26.01 S 39.77,26.6 39.88,27.38 Z M 45.3,24 H 45.85 V 30 H 45.3 Z M 47.45,24.5 H 46.9 V 25.75 H 46.22 V 26.3 H 46.9 V 29.14 C 46.9,29.82 47.32,30 47.53,30 H 48.24 V 29.47 C 48.19,29.48 48.03,29.5 47.77,29.47 A 0.35,0.35 0 0,1 47.45,29.14 V 26.3 H 48.25 V 25.75 H 47.45 V 24.5 Z" fill="rgb(254, 254, 253)"/>
<path d="M 41.14,26.985 C 41.13,26.5 41.45,25.5 42.9,25.5 C 43.37,25.48 44.32,25.7 44.34,26.7 V 29.05 C 44.34,29.18 44.44,29.43 44.79,29.33 V 29.83 C 44.49,29.91 43.88,29.93 43.82,29.33 C 43.69,29.56 43.24,30.01 42.45,30 C 41.45,29.98 41,29.42 40.99,28.72 C 40.99,28.01 41.61,27.52 42.62,27.42 C 43.64,27.32 43.79,27.18 43.77,26.79 C 43.74,26.4 43.49,26.06 42.83,26.05 C 42.17,26.03 41.76,26.35 41.74,27.01 H 41.15 Z M 43.78,27.7 V 28.4 A 1.25,1.25 0 0,1 42.48,29.49 C 41.52,29.51 41.55,28.7 41.62,28.45 C 41.67,28.27 41.91,28.01 42.69,27.92 C 43.47,27.84 43.74,27.73 43.78,27.7 Z" fill="rgb(254, 254, 253)" fill-rule="evenodd"/>
</svg>
