<?xml version="1.0" encoding="UTF-8"?>
<!-- generated by Finnhub -->
<svg viewBox="0 0 55.5 55.5" xmlns="http://www.w3.org/2000/svg">
<path d="M 0,0 H 55.5 V 55.5 H 0 Z" fill="url(#a)"/>
<path d="M 43.99,28.985 C 44,37.84 40,43 27.5,43 C 18,43 12,37.84 12,29 A 16,16 0 1,1 44,29 Z" fill="rgb(254, 197, 112)"/>
<path d="M 22.99,37.985 C 23.8,37.6 24.33,35.83 24.5,35 L 31,36 V 38 C 31,38.8 33.5,38.5 34,39.5 C 34,42.5 33,42.5 31.5,42.5 S 31,40 30,40 S 30.5,42.5 29,42.5 S 28.5,40 27.5,40 S 27.5,42.5 26,42.5 S 25.5,40 24.5,40 S 25,42 23,42 S 21,40.5 21,39.5 S 22,38.5 23,38 Z" fill="rgb(254, 254, 253)"/>
<path d="M 23.99,34.885 A 0.5,0.5 0 0,1 24.58,34.5 L 31.08,35.5 A 0.5,0.5 0 0,1 31.5,36 V 37.93 L 31.59,37.97 C 31.78,38.05 32.04,38.1 32.39,38.18 H 32.42 C 33.15,38.35 34.08,38.54 34.45,39.28 A 0.5,0.5 0 0,1 34.5,39.5 C 34.5,40.92 34.26,42.7 32.6,42.95 C 32.24,43 31.87,43 31.5,43 H 23 C 21.17,43 20.5,41.22 20.5,39.54 V 39.5 C 20.5,39.16 20.59,38.86 20.77,38.62 C 20.94,38.38 21.17,38.22 21.4,38.12 C 21.84,37.89 22.33,37.77 22.78,37.55 C 23.56,37.16 23.86,35.62 24.01,34.9 Z M 31.46,37.9 H 31.47 Z M 34,39.5 C 34,42.5 33,42.5 31.5,42.5 C 30.67,42.5 30.6,41.74 30.54,41.06 C 30.49,40.51 30.44,40 30,40 C 29.55,40 29.6,40.5 29.67,41.06 C 29.74,41.74 29.83,42.5 29,42.5 C 28.17,42.5 28.1,41.74 28.04,41.06 C 27.99,40.51 27.94,40 27.5,40 C 27.05,40 27,40.5 26.95,41.06 C 26.89,41.74 26.83,42.5 26,42.5 S 25.1,41.74 25.04,41.06 C 24.99,40.51 24.94,40 24.5,40 C 24.09,40 24.1,40.34 24.12,40.75 C 24.14,41.31 24.17,42 23,42 C 21,42 21,40.5 21,39.5 S 22,38.5 23,38 C 23.8,37.6 24.33,35.83 24.5,35 L 31,36 V 38 C 31,38.39 31.6,38.52 32.26,38.66 C 32.96,38.82 33.74,38.99 34,39.5 Z" fill="rgb(20, 23, 26)" fill-rule="evenodd"/>
<path d="M 16.5,27.595 C 16.11,21.16 24.65,20.22 28.97,20.56 C 38.45,21.56 40.94,26.1 40.44,32.15 C 39.94,38.19 29.47,36.18 27.98,36.18 C 26.48,36.18 16.93,34.33 16.51,27.61 Z" fill="rgb(254, 254, 253)"/>
<path d="M 29.009999999999998,20.044999999999998 C 33.82,20.57 36.96,21.99 38.82,24.14 C 40.69,26.29 41.19,29.09 40.94,32.19 A 4.42,4.42 0 0,1 38.75,35.75 A 9.57,9.57 0 0,1 34.63,36.93 C 33.15,37.06 31.66,36.99 30.45,36.9 L 28.99,36.76 L 28.87,36.75 C 28.43,36.71 28.13,36.68 27.97,36.68 C 27.54,36.68 26.62,36.55 25.49,36.27 A 19.58,19.58 0 0,1 21.62,34.87 C 18.93,33.53 16.24,31.27 16.02,27.64 A 5.85,5.85 0 0,1 17.3,23.43 A 8.23,8.23 0 0,1 20.8,21.07 A 20.3,20.3 0 0,1 29,20.06 H 29.01 Z M 28.97,20.56 C 24.65,20.22 16.11,21.16 16.51,27.61 C 16.93,34.33 26.48,36.18 27.98,36.18 C 28.18,36.18 28.55,36.21 29.04,36.26 C 32.14,36.58 40.01,37.37 40.44,32.15 C 40.94,26.1 38.44,21.57 28.97,20.55 Z" fill="rgb(20, 23, 26)"/>
<path d="M 17.389999999999997,17.615 C 21.48,18.4 22.5,20.21 22.5,21.02 C 22,21.5 22,21.5 21.5,21.5 C 20.9,21.42 19.44,20.53 18.8,20.53 C 17.31,20.53 16.7,21.5 15.55,21.5 C 12.77,21.5 12.31,16.66 17.4,17.63 Z" fill="rgb(254, 254, 253)"/>
<path d="M 22.99,21.005 A 0.5,0.5 0 0,1 22.85,21.38 H 22.84 L 22.54,21.68 C 22.44,21.75 22.34,21.83 22.22,21.89 C 21.99,22 21.75,22 21.55,22 H 21.5 A 20.48,20.48 0 0,1 20.13,21.52 L 19.96,21.44 C 19.7,21.33 19.46,21.22 19.24,21.14 A 1.58,1.58 0 0,0 18.79,21.04 C 18.17,21.04 17.74,21.23 17.27,21.46 L 17.17,21.51 C 16.74,21.73 16.22,22 15.55,22 A 2.5,2.5 0 0,1 13.03,19.12 C 13.14,18.42 13.57,17.77 14.35,17.38 C 15.11,16.99 16.15,16.88 17.5,17.14 C 21.65,17.92 23,19.84 23,21.02 Z M 21.5,21.5 C 21.71,21.5 21.84,21.5 21.95,21.46 C 22.09,21.41 22.21,21.29 22.5,21.02 C 22.5,20.21 21.48,18.4 17.4,17.62 C 12.3,16.66 12.77,21.5 15.55,21.5 C 16.09,21.5 16.51,21.29 16.96,21.06 C 17.46,20.8 18.01,20.53 18.79,20.53 C 19.15,20.53 19.76,20.8 20.33,21.06 C 20.79,21.26 21.23,21.46 21.5,21.5 Z" fill="rgb(20, 23, 26)"/>
<path d="M 38.99,21.485 C 36.5,21.5 35.67,22.5 35.5,23 C 36,23 36.4,23.1 38,23.5 C 40,24 41,27.5 42.5,27.5 S 44.5,27 44.5,25.5 C 44.5,23.5 42.04,21.5 39,21.5 Z" fill="rgb(254, 254, 253)"/>
<path d="M 35.09,23.285 A 0.5,0.5 0 0,1 35.03,22.84 C 35.28,22.06 36.37,21 39,21 C 40.63,21 42.1,21.53 43.2,22.35 C 44.26,23.16 45,24.29 45,25.5 C 45,26.28 44.88,26.96 44.42,27.42 C 43.95,27.88 43.28,28 42.5,28 C 41.92,28 41.46,27.66 41.1,27.3 A 10.96,10.96 0 0,1 40.03,25.98 C 39.69,25.51 39.35,25.06 38.98,24.68 A 2.46,2.46 0 0,0 37.88,23.98 C 36.25,23.58 35.92,23.5 35.5,23.5 A 0.5,0.5 0 0,1 35.1,23.3 Z M 35.5,23 C 35.67,23 35.83,23.01 36.03,23.04 C 36.41,23.1 36.95,23.24 38,23.5 C 39.02,23.76 39.78,24.8 40.48,25.75 C 41.15,26.66 41.77,27.5 42.5,27.5 C 44,27.5 44.5,27 44.5,25.5 C 44.5,23.5 42.04,21.5 39,21.5 C 37.18,21.5 36.24,22.03 35.8,22.51 C 35.64,22.69 35.55,22.86 35.5,23 Z M 31.7,29.34 C 31.7,28.54 32.9,28.34 33.5,28.34 C 34.42,28.34 34.7,28.84 34.7,29.34 S 33.5,30.33 32.9,30.33 C 32.3,30.33 31.7,30.33 31.7,29.33 Z M 20.7,26.34 C 20.7,25.54 21.9,25.34 22.5,25.34 C 23.5,25.34 23.7,25.84 23.7,26.34 S 22.5,27.33 21.9,27.33 C 21.3,27.33 20.7,27.33 20.7,26.33 Z M 19.9,24.48 L 19.5,24.18 C 20.34,23.06 21.84,22.23 23.26,22.58 C 24.96,23.01 26.06,24.5 26.42,25.22 L 25.98,25.44 A 4.9,4.9 0 0,0 23.14,23.07 C 21.92,22.77 20.62,23.52 19.9,24.47 Z M 34.14,26.08 A 2.54,2.54 0 0,0 31.41,26.97 L 30.99,26.69 A 3.04,3.04 0 0,1 34.26,25.59 A 2.86,2.86 0 0,1 36.45,28.33 H 35.95 C 35.95,27.73 35.58,26.43 34.14,26.07 Z M 25.88,30.3 C 25.89,30.1 25.92,29.9 25.96,29.77 L 26.45,29.83 C 26.45,29.95 26.43,30.15 26.37,30.38 C 26.34,30.96 26.39,32.08 27.2,32.08 C 28.37,32.08 28.94,31.74 29.02,31.65 L 29.38,32 C 28.86,32.52 27.88,32.58 27.2,32.58 C 26.45,32.58 26.04,31.94 25.92,31.27 A 0.98,0.98 0 0,1 25.2,31.57 C 24.47,31.57 23.8,31.07 23.48,30.44 L 23.92,30.22 C 24.16,30.68 24.66,31.08 25.2,31.08 C 25.6,31.08 25.79,30.63 25.88,30.3 Z" fill="rgb(20, 23, 26)"/>
<path d="M 25.189999999999998,27.814999999999998 C 24,28.23 25.37,29.66 26.2,30.33 C 26.87,30.33 28.3,30.13 28.7,29.33 C 29.2,28.33 26.7,27.33 25.2,27.83 Z" fill="rgb(20, 23, 26)"/>
<defs>
<linearGradient id="a" x1="10.42" x2="68.15" y1="9.71" y2="76.02" gradientUnits="userSpaceOnUse">
<stop stop-color="rgb(25, 29, 31)" offset="0"/>
<stop stop-color="rgb(5, 5, 8)" offset="1"/>
</linearGradient>
</defs>
</svg>
