<?xml version="1.0" encoding="UTF-8"?>
<!-- generated by Finnhub -->
<svg viewBox="0 0 55.5 55.5" xmlns="http://www.w3.org/2000/svg">
<path d="M 0,0 H 55.5 V 55.5 H 0 Z" fill="rgb(239, 242, 248)"/>
<path d="M 25.83,18.235 C 24.97,16.93 22.01,14.2 20.64,13 A 35.75,35.75 0 0,1 25.1,19.19 C 25.28,18.92 25.66,18.37 25.84,18.25 Z M 30.73,18.17 C 31.52,16.83 34.13,14.22 35.35,13 A 34.3,34.3 0 0,0 31.46,18.98 C 31.31,18.71 30.89,18.28 30.73,18.17 Z" fill="rgb(82, 145, 251)"/>
<path d="M 10.99,30.585 C 11,23.76 16.94,16.04 19.9,13.04 C 16.27,17.8 13.23,25.48 13.23,29.14 C 13.23,30.84 14.15,32.44 14.61,33.04 C 14.41,32.69 14.32,31.94 14.31,31.6 C 14.31,29.03 16.61,28.2 17.68,28.2 C 18.54,28.2 19.44,28.83 19.78,29.15 C 19.78,29.15 19.86,28.95 19.51,33.04 C 19.08,38.16 22.78,39.75 21.29,39.75 S 11,39.16 11,30.6 Z" fill="url(#c)"/>
<path d="M 44.99,30.585 C 45,23.76 39.06,16.04 36.1,13.04 C 39.73,17.8 42.77,25.48 42.77,29.14 C 42.77,30.84 41.85,32.44 41.39,33.04 C 41.59,32.69 41.68,31.94 41.69,31.6 C 41.69,29.03 39.39,28.2 38.32,28.2 C 37.46,28.2 36.56,28.83 36.22,29.15 C 36.22,29.15 36.14,28.95 36.49,33.04 C 36.92,38.16 33.22,39.75 34.71,39.75 S 45,39.16 45,30.6 Z" fill="url(#b)"/>
<path d="M 18.72,30.785 C 18.73,24.57 24.88,18.34 27.96,16 C 34.78,20.02 37.44,27.35 37.91,30.51 C 38.41,35.01 37.11,44 27.96,44 C 18.81,44 17.57,35.84 18.1,31.76 C 18.63,35.9 21.63,38.16 24.06,38.16 C 26.01,38.16 27.63,36.75 28.19,36.04 C 26.78,36.94 25.79,37.08 25.49,37.03 C 22.66,37.03 21.74,34.63 21.63,33.43 C 21.69,32.08 22.53,29.38 25.49,29.38 C 28.44,29.38 30.16,31.86 30.64,33.1 C 30.8,34.08 31.69,36.04 33.94,36.04 C 36.2,36.04 36.62,33.95 36.54,32.91 C 36.54,23.91 30.82,18.32 27.96,16.66 C 25.44,18.85 20.4,24.69 20.4,30.51 S 23.9,37.61 25.64,37.53 C 23.34,37.87 18.74,37.01 18.74,30.79 Z" fill="url(#a)"/>
<defs>
<linearGradient id="c" x1="11" x2="20.86" y1="33.21" y2="35.31" gradientUnits="userSpaceOnUse">
<stop stop-color="rgb(86, 148, 253)" offset="0"/>
<stop stop-color="rgb(68, 136, 246)" offset="1"/>
</linearGradient>
<linearGradient id="b" x1="36.3" x2="44.28" y1="33.81" y2="29.45" gradientUnits="userSpaceOnUse">
<stop stop-color="rgb(69, 127, 243)" offset="0"/>
<stop stop-color="rgb(47, 118, 237)" offset="1"/>
</linearGradient>
<linearGradient id="a" x1="18.96" x2="37.79" y1="33.48" y2="33.29" gradientUnits="userSpaceOnUse">
<stop stop-color="rgb(84, 151, 250)" offset="0"/>
<stop stop-color="rgb(43, 106, 220)" offset="1"/>
</linearGradient>
</defs>
</svg>
