<?xml version="1.0" encoding="UTF-8"?>
<!-- generated by Finnhub -->
<svg viewBox="0 0 55.5 55.5" xmlns="http://www.w3.org/2000/svg">
<path d="M 0,0 H 55.5 V 55.5 H 0 Z" fill="rgb(16, 85, 159)"/>
<path d="M 46.99,29.985 V 32 H 44 V 30 L 42.034,25 H 45 L 45.5,28 L 46,25 H 49 L 47,30 Z M 18,30 H 20 V 32 H 15 V 25 H 18 V 30 Z M 38,25 L 40,28.995 V 25 H 42 V 32 H 39.003 L 37,28 V 32 H 35 V 25 H 38 Z M 22.992,28.286 H 25.92 C 26.58,28.596 26.91,29.096 27.02,29.857 C 27.175,31.238 25.656,32 24.38,32 H 22.992 V 30.405 H 24.092 C 24.533,30.405 25.02,30.328 25,29.675 C 24.98,29.024 24.555,29 24.093,29 H 22.993 V 28.286 Z" fill="rgb(254, 254, 253)"/>
<path d="M 22.988999999999997,24.985 H 24.254 C 25.72,25 26.609,25.116 26.764,26.552 C 26.852,27.293 26.499,28.016 25.861,28.364 H 22.999 V 28 H 23.973 C 24.303,28.046 24.671,27.85 24.671,27.318 C 24.671,26.785 24.391,26.598 23.973,26.598 H 22.999 V 25 Z" fill="rgb(254, 254, 253)"/>
<path d="M 19.99,31.985 H 23 V 25 H 20 V 32 Z M 15,33 L 13,37 L 11.934,31.026 H 10.237 L 10,32 H 7 L 9,25 H 13 L 15,33 Z M 10.44,30 L 11,27 L 11.61,30 H 10.44 Z M 35,32 H 32 L 31.772,31 H 30.288 L 30.002,32 H 27 L 29,25 H 33 L 35,32 Z M 30.48,30 L 31,27 L 31.584,30 H 30.48 Z" fill="rgb(254, 254, 253)" fill-rule="evenodd"/>
</svg>
