<?xml version="1.0" encoding="UTF-8"?>
<!-- generated by Finnhub -->
<svg viewBox="0 0 55.5 55.5" xmlns="http://www.w3.org/2000/svg">
<path d="M 0,0 H 55.5 V 55.5 H 0 Z" fill="rgb(239, 242, 248)"/>
<path d="M 3.99,34.985 L 8.96,26 H 11.63 L 16.54,35 H 13.74 L 12.68,33 H 7.9 L 6.87,35 H 4 Z M 8.92,31 H 11.62 L 10.24,28.4 L 8.92,31 Z M 17,32.51 V 28 H 19 V 32.55 C 19,32.8 19.3,33 19.53,33 H 21.57 C 21.8,33 22,32.8 22,32.55 V 28 H 24 V 35 L 23.04,34.47 C 22.76,34.81 22.22,34.97 21.99,35 H 19.3 C 18.03,35 17,33.89 17,32.51 Z" fill="rgb(254, 202, 6)"/>
<path d="M 50.99,30.474999999999998 V 35 H 49 V 30.45 C 49,30.2 48.7,30 48.47,30 H 46.43 C 46.2,30 46,30.2 46,30.45 V 35 H 44 V 28 L 44.96,28.53 C 45.24,28.19 45.78,28.03 46.01,28 H 48.7 C 49.97,28 51,29.11 51,30.49 Z M 32,28 H 34 V 35 H 32 Z M 32,25 H 34 V 27 H 32 Z M 28,31.03 V 35 H 26 V 28 H 28 V 28.76 C 28.54,27.85 29.86,27.94 30.47,28.11 V 30.16 C 28.87,29.57 28.2,30.38 28,31.03 Z" fill="rgb(1, 89, 154)"/>
<path d="M 37.620000000000005,27.985 A 2.65,2.65 0 0,0 35,30.68 V 32.32 A 2.65,2.65 0 0,0 37.63,35 H 40.38 C 41.83,35 43,33.8 43,32.32 V 30.68 A 2.65,2.65 0 0,0 40.38,28 H 37.63 Z M 37.74,30 C 37.34,30 37,30.34 37,30.76 V 32.24 C 37,32.66 37.33,33 37.74,33 H 40.26 C 40.66,33 41,32.66 41,32.24 V 30.76 A 0.75,0.75 0 0,0 40.26,30 H 37.74 Z" fill="rgb(1, 89, 154)" fill-rule="evenodd"/>
<path d="M 29.889999999999997,12.985 C 29.65,15 29.3,20.16 29.9,24.78 C 30.17,22.88 30.42,17.21 29.9,13 Z M 28.36,15.11 C 28.12,16.93 27.78,21.62 28.36,25.81 A 46.8,46.8 0 0,0 28.36,15.11 Z M 26.95,17.38 A 22.36,22.36 0 0,0 26.95,24.91 C 27.22,23.7 27.48,20.08 26.95,17.38 Z M 25.56,18.98 A 22.35,22.35 0 0,0 25.56,26.51 C 25.84,25.3 26.09,21.68 25.56,18.99 Z M 31.4,14.39 C 31.16,15.84 30.82,19.59 31.4,22.93 C 31.67,21.56 31.93,17.45 31.4,14.39 Z M 32.6,17.97 C 32.37,18.97 32.06,21.55 32.6,23.86 C 32.85,22.91 33.08,20.08 32.6,17.97 Z M 33.7,18.89 C 33.52,19.65 33.28,21.59 33.7,23.34 C 33.88,22.62 34.06,20.48 33.7,18.89 Z M 34.72,16.7 C 34.5,17.69 34.19,20.23 34.72,22.5 C 34.97,21.57 35.2,18.78 34.72,16.7 Z M 35.5,15.34 C 35.32,16.14 35.07,18.21 35.5,20.05 C 35.7,19.29 35.88,17.03 35.5,15.35 Z" fill="url(#b)"/>
<path d="M 20.34,16.085 A 43.18,43.18 0 0,0 20.35,26.58 C 20.62,24.89 20.88,19.85 20.35,16.11 Z M 21.57,18.21 A 22.8,22.8 0 0,0 21.57,25.81 A 23.7,23.7 0 0,0 21.57,18.21 Z M 22.96,19.29 C 22.71,20.27 22.37,22.79 22.96,25.06 C 23.23,24.13 23.48,21.36 22.96,19.29 Z M 24.34,20.04 A 15.8,15.8 0 0,0 24.34,26.36 A 16.4,16.4 0 0,0 24.34,20.04 Z M 18.96,17.68 A 23.74,23.74 0 0,0 18.96,25.44 C 19.23,24.19 19.49,20.45 18.96,17.68 Z M 17.74,19.68 A 14.86,14.86 0 0,0 17.74,25.81 C 18.02,24.82 18.27,21.88 17.74,19.69 Z M 16.52,21.34 C 16.28,22.24 15.94,24.53 16.52,26.58 C 16.8,25.74 17.05,23.22 16.52,21.34 Z M 15.45,23.82 A 8.8,8.8 0 0,0 15.45,28.04 C 15.67,27.36 15.87,25.33 15.45,23.82 Z M 14.69,23.45 C 14.56,23.95 14.37,25.22 14.69,26.35 C 14.85,25.89 14.99,24.49 14.69,23.45 Z M 14.02,23.98 C 13.88,24.48 13.69,25.75 14.02,26.88 C 14.17,26.42 14.32,25.02 14.02,23.98 Z" fill="url(#a)"/>
<defs>
<linearGradient id="b" x1="30.48" x2="30.48" y1="13" y2="26.51" gradientUnits="userSpaceOnUse">
<stop stop-color="rgb(3, 91, 153)" offset="0"/>
<stop stop-color="rgb(1, 125, 191)" offset=".5"/>
<stop stop-color="rgb(1, 112, 173)" offset=".78"/>
</linearGradient>
<linearGradient id="a" x1="19.25" x2="19.25" y1="16.11" y2="28.04" gradientUnits="userSpaceOnUse">
<stop stop-color="rgb(252, 183, 38)" offset="0"/>
<stop stop-color="rgb(225, 186, 39)" offset="1"/>
</linearGradient>
</defs>
</svg>
