<?xml version="1.0" encoding="UTF-8"?>
<!-- generated by Finnhub -->
<svg viewBox="0 0 55.5 55.5" xmlns="http://www.w3.org/2000/svg">
<path d="M 0,0 H 55.5 V 55.5 H 0 Z" fill="rgb(239, 242, 248)"/>
<path d="M 25.08,21.064999999999998 C 22.56,22.76 17.51,27.54 17.51,33.25 S 22.56,40.03 25.09,39.85 C 27.82,39.44 33.29,36.95 33.29,30.25 C 33.29,26.99 31.73,23.19 30.95,21.69 C 32.83,20.13 37.45,17 40.87,17 C 45.14,17 47,20.74 47,23.46 C 47,26.93 38.53,41 25.78,41 C 13.03,41 10,31.21 10,28.97 C 10,26.72 11.38,18.77 19.23,18.77 A 8.63,8.63 0 0,1 25.09,21.07 Z M 27.95,22.74 C 26.91,23.86 24.55,26.25 23.51,26.91 C 22.21,27.72 19.72,30.43 19.72,33.7 C 19.72,36.96 21.46,38.94 24.56,38.94 C 27.65,38.94 31.44,35.54 31.44,30.47 C 31.44,26.42 29.12,23.63 27.95,22.74 Z" fill="url(#a)"/>
<defs>
<linearGradient id="a" x1="30.36" x2="28.55" y1="14.79" y2="41" gradientUnits="userSpaceOnUse">
<stop stop-color="rgb(234, 222, 65)" offset="0"/>
<stop stop-color="rgb(76, 164, 55)" offset=".53"/>
</linearGradient>
</defs>
</svg>
