<?xml version="1.0" encoding="UTF-8"?>
<!-- generated by Finnhub -->
<svg viewBox="0 0 55.5 55.5" xmlns="http://www.w3.org/2000/svg">
<path d="M 0,0 H 55.5 V 55.5 H 0 Z" fill="rgb(239, 242, 248)"/>
<path d="M 33.81,30.985 H 22.7 L 18.16,42 H 13 L 26.58,11 H 29.46 C 33.28,19.1 37.1,26.85 40.94,35 H 35.77 C 35.14,33.55 34.47,32.49 33.82,31 Z M 28.02,17.93 L 24.37,27 H 31.96 L 28,17.93 Z" fill="rgb(103, 103, 102)"/>
<path d="M 37.54,42.485 L 37.37,42.73 C 37.47,42.86 37.62,42.95 37.77,42.98 A 0.7,0.7 0 0,0 38.23,42.93 C 38.33,42.9 38.43,42.82 38.49,42.71 A 0.62,0.62 0 0,0 38.56,42.33 A 0.57,0.57 0 0,0 38.44,41.99 A 0.4,0.4 0 0,0 38.14,41.84 A 0.63,0.63 0 0,1 37.79,41.72 A 0.28,0.28 0 0,1 37.79,41.44 C 37.94,41.28 38.09,41.34 38.24,41.4 L 38.34,41.44 A 0.55,0.55 0 0,1 38.4,41.38 C 38.45,41.33 38.5,41.29 38.5,41.21 A 0.7,0.7 0 0,0 38.21,41.03 A 0.6,0.6 0 0,0 37.89,41.01 A 0.44,0.44 0 0,0 37.57,41.19 A 0.64,0.64 0 0,0 37.44,41.59 C 37.44,41.91 37.57,42.09 37.87,42.15 C 37.98,42.15 38.1,42.19 38.2,42.27 A 0.3,0.3 0 0,1 38.18,42.57 C 37.97,42.73 37.76,42.62 37.55,42.5 Z M 35.79,41.04 V 42.41 A 0.33,0.33 0 0,1 35.73,42.53 A 0.27,0.27 0 0,1 35.63,42.61 A 0.22,0.22 0 0,1 35.53,42.63 C 35.33,42.63 35.25,42.49 35.25,42.28 V 41.78 C 35.25,41.53 35.25,41.28 35.23,41.03 A 0.39,0.39 0 0,0 34.93,41.05 V 42.39 C 34.94,42.55 35,42.7 35.11,42.81 C 35.21,42.92 35.34,42.98 35.47,42.98 C 35.78,43 36.07,42.8 36.09,42.48 C 36.11,42.14 36.11,41.81 36.1,41.47 V 41.04 A 0.51,0.51 0 0,0 35.8,41.04 Z M 33.65,42.97 H 33.28 L 32.98,42.25 A 0.18,0.18 0 0,0 32.78,42.24 C 32.74,42.36 32.74,42.49 32.75,42.62 C 32.75,42.73 32.75,42.85 32.73,42.96 H 32.43 V 41.02 C 32.7,41 32.96,41.01 33.22,41.05 C 33.31,41.07 33.39,41.13 33.45,41.21 C 33.52,41.28 33.56,41.39 33.57,41.5 C 33.6,41.63 33.58,41.76 33.53,41.88 A 0.53,0.53 0 0,1 33.3,42.15 L 33.65,42.97 Z M 32.75,41.37 C 32.73,41.53 32.73,41.7 32.76,41.87 H 32.87 C 33,41.89 33.13,41.9 33.23,41.75 A 0.23,0.23 0 0,0 33.27,41.62 C 33.27,41.57 33.25,41.52 33.23,41.49 C 33.14,41.35 33.03,41.36 32.91,41.38 H 32.75 Z M 30.39,41.35 H 30 A 0.45,0.45 0 0,1 30,41 H 31.12 C 31.14,41.1 31.15,41.22 31.12,41.33 L 30.72,41.36 V 42.95 A 0.35,0.35 0 0,1 30.39,42.97 V 41.35 Z M 40.19,43 H 40.51 V 41.38 A 0.42,0.42 0 0,1 40.71,41.35 C 40.79,41.35 40.85,41.35 40.91,41.31 C 40.94,41.21 40.96,41.09 40.9,41 H 39.78 A 0.6,0.6 0 0,0 39.79,41.32 C 39.85,41.35 39.91,41.35 39.97,41.35 C 40.04,41.35 40.12,41.35 40.2,41.4 V 43 Z M 29.74,39.99 H 30.07 L 29.76,39.13 C 29.86,39.08 29.93,38.97 29.98,38.84 A 0.76,0.76 0 0,0 29.87,38.16 A 0.37,0.37 0 0,0 29.64,38.02 A 2.36,2.36 0 0,0 28.96,38.02 V 39.97 C 29.06,40 29.16,40 29.25,39.95 V 39.25 A 0.19,0.19 0 0,1 29.35,39.21 C 29.39,39.21 29.42,39.22 29.45,39.24 L 29.75,39.99 Z M 29.27,38.89 A 1.71,1.71 0 0,1 29.27,38.39 L 29.39,38.38 C 29.5,38.37 29.61,38.35 29.69,38.49 C 29.71,38.53 29.73,38.57 29.73,38.62 S 29.71,38.71 29.69,38.75 C 29.61,38.9 29.51,38.89 29.41,38.88 H 29.27 Z M 31.57,38.79 C 31.55,38.64 31.56,38.49 31.59,38.35 H 32.22 A 0.57,0.57 0 0,0 32.22,38 H 31.29 V 40 H 32.24 A 0.91,0.91 0 0,0 32.21,39.63 H 31.58 V 39.19 A 0.78,0.78 0 0,1 31.84,39.17 C 31.94,39.17 32.04,39.17 32.14,39.13 V 39.03 C 32.15,38.97 32.15,38.9 32.13,38.83 C 32.03,38.81 31.95,38.81 31.86,38.81 A 0.6,0.6 0 0,1 31.57,38.78 Z M 33.59,39.02 L 33.85,38.04 A 0.27,0.27 0 0,1 34.1,38.04 L 34.63,39.96 A 0.5,0.5 0 0,1 34.36,39.99 C 34.32,39.94 34.3,39.88 34.29,39.81 L 34.23,39.66 H 33.73 L 33.63,39.96 C 33.53,40.01 33.43,40.01 33.33,39.97 L 33.59,39.02 Z M 33.8,39.3 C 33.91,39.33 34.03,39.33 34.15,39.3 C 34.11,39.07 34.05,38.86 33.98,38.65 L 33.8,39.3 Z M 40.34,38.75 L 40.07,38.01 H 39.96 C 39.89,38.01 39.83,38.01 39.77,38.07 L 39.91,38.43 C 40.11,38.92 40.31,39.39 40.18,40 H 40.4 L 40.46,39.99 L 40.52,39.98 C 40.4,39.4 40.59,38.93 40.78,38.45 L 40.94,38.04 A 0.52,0.52 0 0,0 40.63,38.04 L 40.51,38.34 C 40.47,38.49 40.42,38.63 40.34,38.75 Z M 38.6,38 A 0.7,0.7 0 0,1 38.6,38.34 L 38.25,38.36 V 39.94 A 0.29,0.29 0 0,1 37.94,39.96 V 38.36 H 37.59 A 0.48,0.48 0 0,1 37.57,38.01 H 38.6 Z M 36.22,38 H 35.94 V 40 H 36.88 A 0.68,0.68 0 0,0 36.86,39.65 H 36.22 V 38 Z" fill="rgb(150, 201, 72)"/>
<path d="M 40.99,36.985 V 37.5 H 22.05 C 21.94,37.34 21.98,37.19 22.02,37 H 41 Z" fill="rgb(103, 103, 102)"/>
</svg>
