<?xml version="1.0" encoding="UTF-8"?>
<!-- generated by Finnhub -->
<svg viewBox="0 0 55.5 55.5" xmlns="http://www.w3.org/2000/svg">
<path d="M 0,0 H 55.5 V 55.5 H 0 Z" fill="rgb(14, 36, 56)"/>
<path d="M 27.584,13.607 C 27.896,13.395 28.224,13.717 28.35,13.906 C 29.2,13.151 30.039,12.492 32.05,12.424 C 33.66,12.37 35.375,14.182 36.03,15.094 C 39.621,16.779 40.09,20.118 39.877,21.577 C 41.848,24.551 40.793,27.905 40.019,29.21 C 40.569,32.62 38.917,34.842 38.023,35.526 C 37.655,39.248 35.345,41.272 34.236,41.819 C 33.496,42.919 32.436,43.854 30.536,43.958 C 29.015,44.041 28.223,42.798 28,42.166 V 36.727 C 27.847,36.716 27.496,36.643 27.453,36.392 C 27.409,36.14 27.811,35.813 28,35.712 V 17.36 C 27.854,17.363 27.521,17.284 27.5,16.945 C 27.48,16.606 27.837,16.481 28,16.461 V 14.66 C 27.89,14.522 27.215,13.905 27.594,13.621 Z" fill="rgb(238, 187, 51)"/>
<path d="M 31.956999999999997,13.216999999999999 C 30.289,13.174 29.284,14.172 29,14.679 V 16.561 C 33.249,16.561 34.102,21.065 33.797,21.816 C 33.552,22.416 33.209,22.066 33.067,21.816 C 32.917,18.353 30.287,17.421 29,17.387 V 35.653 C 29.188,36.061 29.889,36.849 31.187,36.729 C 32.809,36.579 32.265,35.778 32.92,35.227 C 33.444,34.787 33.613,35.211 33.632,35.477 C 33.279,36.378 32.432,37.554 31.187,37.554 C 30.19,37.554 29.314,37.004 29,36.729 V 41.533 C 29.031,42.016 29.395,43.023 30.599,43.184 C 31.803,43.344 32.648,42.484 32.919,42.034 C 32.272,42.084 30.853,42.054 30.364,41.533 C 29.874,41.013 30.317,40.832 30.599,40.807 C 31.539,41.547 33.248,41.249 33.985,41.007 C 36.373,39.667 37.096,36.762 37.159,35.477 C 36.463,34.117 36.429,32.425 36.5,31.749 C 36.532,31.533 36.66,31.114 36.924,31.174 C 37.187,31.234 37.268,31.583 37.276,31.749 C 37.069,33.071 37.519,34.185 37.77,34.577 C 39.063,32.575 38.926,32.625 39.204,30.749 C 39.482,28.872 38.304,28.264 37.276,28.096 A 10.669,10.669 0 0,1 35.315,27.558 C 32.003,26.1 32.344,24.566 32.265,24.566 C 32.186,24.566 32.265,24.073 32.564,24.073 C 32.804,24.073 32.901,24.402 32.92,24.566 C 33.077,25.586 34.372,26.356 35,26.613 C 34.75,25.861 34.817,24.935 34.883,24.566 C 35.883,22.394 36.021,21.266 36.08,20.326 C 36.127,19.573 35.59,18.745 35.315,18.424 C 35.142,17.856 35.518,17.812 35.727,17.86 C 37.329,19.03 36.735,21.76 36.237,22.978 C 36.027,23.264 35.593,24.111 35.531,25.214 C 35.468,26.317 35.975,26.927 36.237,27.094 C 38.247,27.227 39.142,27.929 39.339,28.264 C 40.422,26.509 39.934,24.009 39.555,22.978 C 39.413,24.416 39.077,24.956 38.927,25.047 C 38.361,25.431 38.276,24.887 38.304,24.566 C 39.331,20.513 38.581,19.536 38.304,18.309 C 38.083,17.329 35.754,15.628 34.617,14.9 C 34.433,14.369 33.644,13.291 31.967,13.232 Z" fill="rgb(14, 36, 56)"/>
<path d="M 16.201999999999998,30.425 C 16.265,29.234 16.865,28.351 17.158,28.06 C 17.856,27.866 17.746,28.347 17.536,28.703 C 17.066,29.236 16.912,30.027 16.889,30.491 C 16.512,30.94 16.295,30.646 16.212,30.44 Z M 27.126,13.17 C 26.684,12.762 26.183,12.649 25.988,12.644 C 25.598,12.644 25.63,12.994 25.695,13.169 C 25.858,13.322 26.297,13.635 26.752,13.662 C 27.207,13.688 27.192,13.344 27.126,13.169 Z M 25.154,12.48 C 24.55,12.347 24.03,12.503 23.846,12.598 C 23.482,12.796 23.678,13.088 23.821,13.208 C 24.045,13.261 24.602,13.312 25.038,13.103 C 25.475,12.894 25.298,12.601 25.154,12.48 Z M 22.843,12.807 C 22.305,13.003 22.008,13.374 21.926,13.536 C 21.773,13.862 22.1,13.985 22.282,14.005 C 22.483,13.935 22.936,13.7 23.138,13.33 C 23.34,12.96 23.026,12.827 22.843,12.807 Z M 21.505,14.206 C 21.067,14.411 20.866,14.733 20.821,14.869 C 20.739,15.142 21.042,15.209 21.204,15.209 C 21.368,15.135 21.725,14.909 21.843,14.596 S 21.667,14.206 21.505,14.206 Z M 23.469,15.206 C 23.132,15.377 22.975,15.639 22.939,15.749 C 22.872,15.97 23.102,16.02 23.226,16.018 C 23.352,15.955 23.626,15.768 23.721,15.515 C 23.816,15.262 23.592,15.204 23.469,15.206 Z M 20.883,17.818 C 20.547,17.989 20.389,18.251 20.353,18.361 C 20.286,18.582 20.516,18.632 20.64,18.63 C 20.766,18.567 21.041,18.38 21.135,18.127 C 21.23,17.874 21.006,17.816 20.883,17.818 Z M 20.014,19.022 C 19.726,19.362 19.67,19.722 19.678,19.859 C 19.703,20.133 19.973,20.085 20.104,20.027 C 20.213,19.902 20.428,19.571 20.42,19.249 C 20.411,18.928 20.145,18.964 20.014,19.022 Z M 19.625,20.58 C 19.521,21.014 19.633,21.36 19.702,21.479 C 19.847,21.712 20.066,21.546 20.157,21.434 C 20.197,21.273 20.241,20.88 20.089,20.597 C 19.938,20.314 19.717,20.467 19.625,20.579 Z M 19.953,22.188 C 19.981,22.67 20.205,23.023 20.313,23.139 C 20.537,23.365 20.712,23.152 20.771,23.017 C 20.763,22.838 20.684,22.41 20.439,22.132 C 20.193,21.854 20.012,22.054 19.953,22.188 Z M 20.605,23.8 C 20.633,24.282 20.858,24.635 20.966,24.751 C 21.189,24.977 21.364,24.764 21.423,24.629 C 21.415,24.45 21.337,24.022 21.091,23.744 C 20.845,23.465 20.665,23.666 20.605,23.8 Z M 21.008,25.273 C 20.853,25.703 20.918,26.09 20.971,26.23 C 21.083,26.506 21.316,26.383 21.419,26.287 C 21.479,26.128 21.569,25.727 21.456,25.397 C 21.344,25.067 21.11,25.177 21.008,25.273 Z M 23.422,25.41 C 23.009,25.599 22.782,25.917 22.719,26.053 C 22.602,26.327 22.852,26.409 22.992,26.415 C 23.146,26.347 23.492,26.132 23.648,25.82 C 23.802,25.507 23.561,25.416 23.422,25.41 Z M 22.21,26.465 C 21.759,26.503 21.438,26.725 21.334,26.831 C 21.132,27.049 21.34,27.211 21.47,27.265 C 21.638,27.253 22.036,27.169 22.286,26.928 C 22.536,26.686 22.34,26.518 22.21,26.465 Z M 20.676,26.938 C 20.225,26.976 19.904,27.198 19.8,27.304 C 19.598,27.522 19.806,27.684 19.936,27.738 C 20.104,27.726 20.502,27.642 20.752,27.4 C 21.002,27.16 20.806,26.991 20.676,26.938 Z M 18.98,27.642 C 18.552,27.495 18.17,27.57 18.032,27.626 C 17.761,27.744 17.887,27.977 17.985,28.078 C 18.144,28.135 18.543,28.218 18.867,28.098 C 19.192,27.977 19.078,27.744 18.981,27.642 Z M 24.864,14.763 C 24.441,14.646 24.103,14.749 23.986,14.815 C 23.758,14.955 23.919,15.179 24.028,15.274 C 24.185,15.319 24.568,15.374 24.845,15.229 C 25.122,15.084 24.973,14.858 24.865,14.763 Z M 26.313,15.21 C 25.956,14.953 25.603,14.931 25.471,14.953 C 25.209,15.003 25.283,15.271 25.352,15.398 C 25.484,15.495 25.825,15.68 26.135,15.64 C 26.445,15.601 26.382,15.337 26.313,15.21 Z M 26.825,16.793 C 26.386,16.786 26.084,16.97 25.987,17.063 C 25.801,17.255 26.011,17.433 26.14,17.497 C 26.303,17.501 26.688,17.457 26.92,17.248 C 27.153,17.038 26.953,16.858 26.825,16.793 Z M 25.401,17.348 C 24.976,17.458 24.732,17.716 24.664,17.831 C 24.534,18.066 24.784,18.181 24.924,18.209 C 25.083,18.17 25.443,18.026 25.612,17.762 C 25.782,17.498 25.542,17.376 25.402,17.348 Z M 24.093,18.263 C 23.729,18.51 23.585,18.835 23.558,18.967 C 23.514,19.233 23.788,19.257 23.93,19.236 C 24.066,19.146 24.357,18.888 24.43,18.582 C 24.502,18.276 24.235,18.242 24.093,18.262 Z M 23.154,19.813 C 22.926,20.191 22.93,20.548 22.96,20.679 C 23.03,20.939 23.288,20.845 23.409,20.766 C 23.495,20.626 23.653,20.27 23.592,19.962 C 23.532,19.652 23.275,19.734 23.154,19.813 Z M 23.005,21.23 C 22.808,21.543 22.809,21.835 22.834,21.943 C 22.89,22.156 23.11,22.077 23.213,22.011 C 23.288,21.896 23.424,21.601 23.375,21.349 C 23.325,21.096 23.108,21.165 23.005,21.231 Z M 25.264,22.122 C 25.517,22.39 25.799,22.459 25.909,22.46 C 26.127,22.455 26.104,22.22 26.065,22.104 C 25.971,22.004 25.721,21.799 25.465,21.788 C 25.21,21.776 25.225,22.006 25.264,22.122 Z M 23.823,24.207 C 23.681,24.547 23.731,24.837 23.773,24.937 C 23.865,25.137 24.069,25.023 24.159,24.94 C 24.213,24.814 24.299,24.5 24.207,24.26 C 24.117,24.02 23.913,24.124 23.823,24.207 Z M 26.145,22.99 C 26.209,23.498 26.468,23.818 26.589,23.914 C 26.838,24.099 27.004,23.828 27.057,23.669 C 27.035,23.479 26.923,23.043 26.647,22.808 C 26.371,22.573 26.197,22.831 26.145,22.99 Z M 26.612,24.537 C 26.357,24.979 26.37,25.392 26.408,25.543 C 26.494,25.843 26.79,25.729 26.928,25.635 C 27.024,25.471 27.198,25.055 27.121,24.699 C 27.044,24.344 26.75,24.443 26.612,24.537 Z M 26.129,26.086 C 25.693,26.347 25.505,26.714 25.465,26.865 C 25.396,27.168 25.709,27.215 25.875,27.2 C 26.038,27.104 26.391,26.827 26.495,26.478 C 26.599,26.128 26.295,26.071 26.129,26.086 Z M 24.837,27.276 C 24.354,27.43 24.087,27.744 24.015,27.881 C 23.879,28.161 24.174,28.278 24.338,28.301 C 24.518,28.246 24.925,28.057 25.105,27.741 C 25.285,27.425 25.001,27.299 24.837,27.276 Z M 23.124,28.277 C 22.641,28.431 22.374,28.745 22.302,28.882 C 22.166,29.162 22.461,29.279 22.625,29.302 C 22.805,29.247 23.212,29.058 23.392,28.742 C 23.572,28.426 23.288,28.3 23.124,28.277 Z M 21.68,29.624 C 21.348,30.01 21.283,30.418 21.293,30.574 C 21.322,30.884 21.633,30.828 21.786,30.762 C 21.911,30.619 22.159,30.244 22.149,29.88 C 22.139,29.515 21.832,29.558 21.68,29.624 Z M 21.023,34.297 C 20.69,34.684 20.626,35.091 20.636,35.247 C 20.664,35.557 20.976,35.502 21.128,35.435 C 21.254,35.293 21.502,34.917 21.492,34.553 C 21.482,34.189 21.175,34.231 21.022,34.298 Z M 21.235,31.493 C 21.168,32 21.337,32.376 21.429,32.501 C 21.622,32.744 21.853,32.525 21.943,32.385 C 21.971,32.197 21.973,31.745 21.767,31.447 C 21.56,31.147 21.327,31.353 21.235,31.493 Z M 20.355,15.329 C 19.885,15.441 19.625,15.716 19.554,15.839 C 19.42,16.091 19.704,16.219 19.862,16.251 C 20.037,16.211 20.432,16.061 20.61,15.778 C 20.787,15.496 20.514,15.361 20.355,15.328 Z M 18.937,16.224 C 18.47,16.433 18.228,16.782 18.166,16.931 C 18.049,17.231 18.347,17.32 18.511,17.326 C 18.686,17.251 19.074,17.014 19.231,16.672 C 19.389,16.329 19.101,16.23 18.937,16.224 Z M 17.655,17.592 C 17.272,17.959 17.145,18.392 17.13,18.564 C 17.11,18.906 17.42,18.897 17.578,18.849 C 17.722,18.715 18.022,18.346 18.07,17.948 C 18.117,17.549 17.813,17.545 17.655,17.592 Z M 16.059,22.431 C 15.702,22.847 15.645,23.271 15.661,23.431 C 15.704,23.749 16.048,23.675 16.215,23.598 C 16.35,23.445 16.613,23.044 16.589,22.67 C 16.565,22.295 16.226,22.355 16.059,22.431 Z M 15.522,24.247 C 15.346,24.767 15.449,25.181 15.523,25.324 C 15.681,25.603 15.973,25.404 16.099,25.27 C 16.167,25.077 16.263,24.607 16.102,24.268 C 15.942,23.929 15.649,24.113 15.522,24.247 Z M 15.4,26.031 C 15.36,26.579 15.564,26.954 15.671,27.073 C 15.893,27.303 16.126,27.036 16.215,26.873 C 16.232,26.67 16.207,26.19 15.967,25.903 C 15.727,25.616 15.489,25.869 15.4,26.031 Z" fill="rgb(238, 187, 51)"/>
<path d="M 16.270999999999997,30.875 C 16.141,31.422 16.273,31.828 16.356,31.965 C 16.532,32.233 16.81,32.015 16.926,31.872 C 16.982,31.674 17.045,31.198 16.862,30.872 C 16.678,30.545 16.398,30.748 16.282,30.891 Z M 16.827,22.954 C 16.745,23.42 16.887,23.766 16.967,23.881 C 17.137,24.105 17.36,23.904 17.449,23.776 C 17.482,23.602 17.502,23.188 17.322,22.913 S 16.917,22.826 16.827,22.954 Z M 17.183,24.294 C 17.125,24.68 17.248,24.97 17.317,25.067 C 17.461,25.257 17.639,25.094 17.71,24.989 C 17.734,24.846 17.742,24.501 17.589,24.269 C 17.436,24.037 17.255,24.189 17.184,24.294 Z M 25.767,28.853 C 25.558,29.181 25.553,29.496 25.577,29.613 C 25.631,29.845 25.859,29.77 25.967,29.704 C 26.046,29.583 26.193,29.272 26.147,28.997 C 26.101,28.723 25.875,28.787 25.767,28.853 Z M 25.385,29.997 C 25.015,30.107 24.805,30.341 24.748,30.445 C 24.638,30.656 24.859,30.751 24.983,30.771 C 25.122,30.732 25.434,30.595 25.578,30.357 C 25.722,30.119 25.509,30.017 25.385,29.997 Z M 24.25,30.589 C 23.87,30.521 23.58,30.638 23.482,30.705 C 23.291,30.845 23.448,31.028 23.55,31.102 C 23.69,31.129 24.032,31.146 24.265,30.998 C 24.499,30.848 24.353,30.663 24.251,30.588 Z M 26.293,33.75 C 26.029,33.465 25.727,33.383 25.609,33.377 C 25.372,33.374 25.389,33.615 25.426,33.737 C 25.523,33.843 25.786,34.063 26.061,34.085 C 26.337,34.108 26.331,33.871 26.293,33.749 Z M 16.076,27.764 C 16.018,28.15 16.141,28.44 16.21,28.537 C 16.353,28.727 16.532,28.564 16.603,28.459 C 16.626,28.316 16.635,27.971 16.482,27.739 C 16.328,27.507 16.147,27.659 16.076,27.764 Z M 16.57,32.758 C 16.674,33.238 16.953,33.544 17.08,33.638 C 17.338,33.816 17.479,33.563 17.517,33.414 C 17.48,33.236 17.334,32.821 17.045,32.595 C 16.755,32.368 16.607,32.609 16.569,32.758 Z M 18.876,37.02 C 18.843,37.51 19.027,37.883 19.123,38.008 C 19.321,38.253 19.526,38.049 19.603,37.918 C 19.618,37.735 19.593,37.297 19.377,36.998 C 19.162,36.698 18.953,36.888 18.876,37.021 Z M 19.488,38.708 C 19.566,39.193 19.828,39.514 19.95,39.614 C 20.198,39.807 20.352,39.562 20.398,39.416 C 20.371,39.235 20.248,38.814 19.971,38.571 C 19.695,38.329 19.533,38.561 19.488,38.708 Z M 20.555,40.315 C 20.808,40.735 21.17,40.932 21.32,40.979 C 21.622,41.064 21.673,40.779 21.661,40.625 C 21.569,40.468 21.298,40.125 20.952,40.005 S 20.543,40.162 20.555,40.315 Z M 21.924,41.433 C 22.235,41.811 22.622,41.953 22.777,41.978 C 23.088,42.017 23.097,41.728 23.064,41.578 C 22.95,41.436 22.632,41.135 22.272,41.068 C 21.912,41.001 21.89,41.283 21.924,41.433 Z M 23.033,42.52 C 23.343,42.898 23.731,43.041 23.886,43.065 C 24.196,43.105 24.206,42.815 24.172,42.665 C 24.058,42.523 23.74,42.223 23.381,42.155 C 23.021,42.088 22.999,42.371 23.033,42.521 Z M 24.678,43.57 C 25.091,43.83 25.503,43.841 25.658,43.815 C 25.964,43.754 25.883,43.475 25.804,43.344 C 25.652,43.246 25.256,43.062 24.894,43.112 C 24.531,43.162 24.599,43.438 24.678,43.57 Z M 26.812,43.689 C 27.29,43.599 27.603,43.329 27.7,43.204 C 27.886,42.95 27.64,42.8 27.494,42.756 C 27.316,42.787 26.901,42.92 26.666,43.204 C 26.432,43.488 26.666,43.645 26.812,43.689 Z M 17.565,34.25 C 17.67,34.73 17.949,35.035 18.075,35.129 C 18.335,35.307 18.475,35.054 18.513,34.906 C 18.476,34.726 18.33,34.313 18.041,34.086 C 17.751,33.86 17.603,34.101 17.565,34.25 Z" fill="rgb(238, 187, 51)"/>
<path d="M 18.404,34.798 C 18.241,35.406 18.357,35.935 18.437,36.125 C 18.607,36.501 18.906,36.325 19.034,36.191 C 19.101,35.971 19.191,35.421 19.017,34.971 C 18.843,34.522 18.542,34.679 18.414,34.813 Z M 19.297,31.292 C 19.179,31.662 19.256,31.969 19.309,32.075 C 19.421,32.285 19.622,32.153 19.709,32.061 C 19.754,31.923 19.815,31.585 19.7,31.331 C 19.585,31.078 19.383,31.2 19.297,31.291 Z M 20.573,36.141 C 20.504,36.524 20.619,36.818 20.685,36.917 C 20.823,37.11 21.005,36.953 21.08,36.85 C 21.107,36.708 21.125,36.364 20.978,36.128 C 20.832,35.892 20.648,36.038 20.573,36.141 Z M 21.668,38.035 C 21.826,38.391 22.085,38.568 22.195,38.612 C 22.417,38.692 22.479,38.459 22.483,38.332 C 22.426,38.199 22.249,37.905 21.995,37.794 C 21.742,37.682 21.672,37.908 21.668,38.035 Z M 24.177,39.787 C 24.553,39.877 24.85,39.779 24.951,39.717 C 25.151,39.59 25.005,39.397 24.908,39.317 C 24.768,39.281 24.429,39.243 24.188,39.377 C 23.945,39.512 24.08,39.707 24.178,39.787 Z M 25.673,41.513 C 26.06,41.516 26.327,41.352 26.413,41.269 C 26.578,41.099 26.393,40.943 26.28,40.887 C 26.136,40.884 25.797,40.925 25.59,41.112 C 25.385,41.298 25.56,41.457 25.673,41.513 Z M 22.929,35.299 C 23.037,35.672 23.27,35.883 23.373,35.941 C 23.583,36.051 23.676,35.828 23.696,35.703 C 23.658,35.563 23.521,35.248 23.285,35.103 C 23.049,34.959 22.949,35.173 22.929,35.299 Z M 23.876,36.769 C 24.198,37.149 24.591,37.282 24.748,37.302 C 25.061,37.332 25.063,37.033 25.025,36.88 C 24.907,36.737 24.579,36.438 24.215,36.38 C 23.852,36.323 23.838,36.615 23.875,36.769 Z M 22.552,39.102 C 22.874,39.482 23.267,39.615 23.424,39.635 C 23.737,39.665 23.739,39.366 23.701,39.213 C 23.582,39.07 23.255,38.771 22.891,38.713 C 22.528,38.656 22.514,38.949 22.551,39.102 Z M 23.838,41.75 C 24.308,41.913 24.714,41.828 24.858,41.765 C 25.144,41.63 24.995,41.371 24.885,41.259 C 24.712,41.196 24.279,41.106 23.937,41.242 C 23.594,41.379 23.728,41.638 23.838,41.751 Z M 25.886,37.442 C 26.38,37.474 26.75,37.284 26.873,37.185 C 27.113,36.979 26.903,36.769 26.767,36.689 C 26.584,36.675 26.143,36.703 25.847,36.925 C 25.553,37.148 25.75,37.362 25.886,37.442 Z M 21.9,33.04 C 21.783,33.41 21.86,33.716 21.912,33.823 C 22.024,34.033 22.225,33.9 22.312,33.808 C 22.357,33.671 22.419,33.332 22.304,33.079 C 22.188,32.826 21.987,32.947 21.9,33.039 Z" fill="rgb(238, 187, 51)"/>
<path d="M 22.68,33.085 C 22.265,33.235 22.045,33.505 21.987,33.623 C 21.881,33.863 22.15,33.962 22.299,33.98 C 22.457,33.932 22.81,33.767 22.954,33.495 C 23.098,33.223 22.838,33.118 22.689,33.099 Z M 24.666,32.907 C 24.208,32.781 23.854,32.895 23.736,32.967 C 23.501,33.121 23.687,33.367 23.809,33.47 C 23.979,33.519 24.391,33.576 24.676,33.417 C 24.961,33.257 24.788,33.011 24.666,32.907 Z M 19.088,32.958 C 18.896,33.432 18.974,33.808 19.038,33.937 C 19.172,34.19 19.458,34.007 19.584,33.884 C 19.657,33.708 19.77,33.279 19.634,32.973 C 19.499,32.666 19.214,32.835 19.088,32.958 Z M 33.988,37.831 C 33.091,39.226 31.98,39.261 31.536,39.103 C 31.426,39.103 31.209,39.169 31.209,39.433 S 31.209,39.786 31.536,39.952 C 33.386,40.065 34.423,38.821 34.711,38.184 C 34.751,38.067 34.777,37.807 34.571,37.714 C 34.366,37.619 34.097,37.752 33.988,37.831 Z M 32.645,31.226 C 30.571,31.226 30.065,29.731 30.072,28.983 C 30.112,28.891 30.236,28.727 30.423,28.806 A 0.596,0.596 0 0,1 30.735,29.14 C 30.922,30.305 32.086,30.544 32.645,30.517 C 32.742,30.557 32.937,30.683 32.937,30.871 C 32.937,31.061 32.742,31.186 32.645,31.226 Z M 33.358,15.457 C 32.369,14.284 30.89,14.685 30.275,15.032 C 29.851,15.657 30.388,15.704 30.709,15.649 C 31.72,15.199 32.525,15.672 32.801,15.965 C 33.541,16.261 33.481,15.75 33.358,15.457 Z" fill="rgb(238, 187, 51)"/>
<path d="M 29.473,24.527 C 29.449,22.786 30.638,21.864 31.237,21.622 C 31.65,21.396 31.934,22.134 31.575,22.262 C 31.215,22.39 30.413,23.008 30.244,24.542 C 30.074,26.077 32.082,27.505 33.202,28.122 C 34.174,28.66 35.145,29.87 35.293,31.149 C 35.411,32.172 34.99,33.209 34.765,33.6 C 35.342,34.218 36.261,35.613 35.948,36.52 C 35.665,37.34 35.083,36.905 35.145,36.52 C 35.365,35.156 34.405,34.247 33.899,33.963 C 32.242,33.383 31.068,33.877 30.687,34.197 C 29.809,34.464 29.86,33.851 30.138,33.6 C 31.406,32.458 33.173,32.783 33.898,33.089 C 34.068,33.032 34.414,32.565 34.448,31.149 C 34.482,29.734 32.082,28.399 31.068,27.633 C 30.554,27.334 29.517,26.299 29.483,24.543 Z M 16.59,22.278 C 16.431,20.371 16.74,19.418 16.915,19.18 C 16.965,19.098 17.185,19.11 17.311,19.18 C 17.413,19.238 17.439,19.385 17.439,19.452 C 17.122,20.491 17.222,21.768 17.311,22.278 C 17.274,22.416 17.141,22.688 16.915,22.678 C 16.689,22.666 16.604,22.406 16.59,22.278 Z" fill="rgb(238, 187, 51)"/>
</svg>
