<?xml version="1.0" encoding="UTF-8"?>
<!-- generated by Finnhub -->
<svg viewBox="0 0 55.5 55.5" xmlns="http://www.w3.org/2000/svg">
<path d="M 0,0 H 55.5 V 55.5 H 0 Z" fill="rgb(254, 241, 2)"/>
<path d="M 17.49,30.134999999999998 V 20 H 15 V 30.2 C 14.98,30.74 15.06,31.3 15.23,31.8 C 15.4,32.31 15.67,32.77 16.01,33.15 C 16.59,33.71 17.31,34.01 18.07,34 H 19 V 31.5 C 17.47,31.5 17.44,30.57 17.5,30.15 Z M 6.46,28.98 C 6.46,30.62 7.52,31.75 9.04,31.75 C 10.53,31.75 11.58,30.58 11.58,28.98 S 10.53,26.21 9.04,26.21 A 2.54,2.54 0 0,0 7.17,27.03 A 2.65,2.65 0 0,0 6.46,28.98 Z M 4,28.98 C 4,26.08 6.12,24 9,24 C 11.92,24 14,26.08 14,28.98 V 34 H 11.58 V 32.96 A 4.68,4.68 0 0,1 8.62,34 C 5.95,34 4,31.88 4,28.98 Z M 21.77,20 C 21.37,20 20.97,20.17 20.69,20.48 C 20.4,20.78 20.24,21.21 20.24,21.64 C 20.3,22.02 20.49,22.37 20.76,22.62 C 21.04,22.86 21.38,23 21.74,23 S 22.44,22.86 22.72,22.62 C 23,22.37 23.18,22.02 23.24,21.64 C 23.24,21.22 23.09,20.8 22.81,20.5 C 22.54,20.2 22.16,20.01 21.77,20 Z M 23,34 H 20.5 V 24 H 23 V 34 Z M 29,24 C 26.2,24 24.13,25.82 24,28.5 H 26.5 C 26.52,27.84 26.8,27.35 27.28,26.9 A 2.5,2.5 0 0,1 29.04,26.21 C 29.7,26.21 30.32,26.46 30.8,26.91 C 31.27,27.36 31.55,27.85 31.58,28.5 H 34 C 33.87,25.82 31.8,24 29,24 Z M 28.8,31.52 C 29.91,31.62 31.06,31.06 31.46,30 H 34 V 35 C 34,36.44 32.33,39 29,39 C 26.33,39 24.38,37.46 24.04,35 H 26.54 C 26.67,35.56 26.98,35.86 27.42,36.23 A 2.54,2.54 0 0,0 31.5,34.83 C 31.56,34.5 31.59,34.16 31.58,33.82 V 32.75 A 4.82,4.82 0 0,1 28.62,33.77 C 27.5,33.78 26.42,33.38 25.58,32.65 A 4.08,4.08 0 0,1 24.04,30 H 26.58 C 26.88,30.84 27.96,31.45 28.8,31.52 Z M 40.04,23.47 C 39.16,23.47 38.21,23.75 37.5,24.29 V 20 H 35 V 34 H 37.5 V 27.93 A 2.05,2.05 0 0,1 39.6,25.83 C 40.73,25.83 41.5,26.82 41.5,27.93 V 34 H 44 V 27.8 C 44,27.7 43.99,27.6 43.97,27.51 L 43.95,27.3 C 43.82,26.25 43.58,25.28 42.81,24.58 A 4.17,4.17 0 0,0 40.04,23.47 Z M 47.5,29.95 V 26 H 49.5 V 23.5 H 47.5 V 21 H 45 V 29.95 A 4.38,4.38 0 0,0 46.3,33.25 C 47.03,33.86 47.97,34.03 48.94,34 H 50 V 31.62 L 49.5,31.67 C 48.49,31.81 47.39,31.04 47.5,29.95 Z"/>
</svg>
