<?xml version="1.0" encoding="UTF-8"?>
<!-- generated by Finnhub -->
<svg viewBox="0 0 55.5 55.5" xmlns="http://www.w3.org/2000/svg">
<path d="M 0,0 H 55.5 V 55.5 H 0 Z" fill="rgb(239, 242, 248)"/>
<path d="M 30.622,29.025 A 2.4,2.4 0 1,1 25.832,29.04 A 2.4,2.4 0 0,1 30.632,29.04 Z" fill="rgb(13, 104, 111)"/>
<path d="M 29.747999999999998,24.458 A 1.486,1.486 0 1,1 26.786,24.473 A 1.486,1.486 0 0,1 29.758,24.473 Z" fill="rgb(189, 36, 40)"/>
<path d="M 23.878,23.535 A 1.257,1.257 0 1,1 21.373,23.55 A 1.257,1.257 0 0,1 23.888,23.55 Z M 27.546,21.493 A 1.257,1.257 0 1,1 25.031,21.493 A 1.257,1.257 0 0,1 27.546,21.493 Z M 31.66,21.493 A 1.257,1.257 0 1,1 29.146,21.493 A 1.257,1.257 0 0,1 31.661,21.493 Z M 35.09,23.55 A 1.257,1.257 0 1,1 32.576,23.55 A 1.257,1.257 0 0,1 35.09,23.55 Z" fill="rgb(13, 104, 111)"/>
<path d="M 38.623000000000005,23.878 A 1.257,1.257 0 1,1 36.119,23.893 A 1.257,1.257 0 0,1 38.633,23.893 Z M 34.854,20.03 A 1.257,1.257 0 1,1 32.339,20.03 A 1.257,1.257 0 0,1 34.854,20.03 Z M 29.489,18.526 A 1.257,1.257 0 1,1 26.974,18.526 A 1.257,1.257 0 0,1 29.489,18.526 Z M 24.231,20.007 A 1.257,1.257 0 1,1 21.716,20.007 A 1.257,1.257 0 0,1 24.231,20.007 Z M 20.344,23.794 A 1.257,1.257 0 1,1 17.83,23.794 A 1.257,1.257 0 0,1 20.344,23.794 Z M 18.972,29.042 A 1.257,1.257 0 1,1 16.458,29.042 A 1.257,1.257 0 0,1 18.972,29.042 Z M 20.344,34.41 A 1.257,1.257 0 1,1 17.83,34.41 A 1.257,1.257 0 0,1 20.344,34.41 Z M 24.231,38.29 A 1.257,1.257 0 1,1 21.716,38.29 A 1.257,1.257 0 0,1 24.231,38.29 Z" fill="rgb(189, 36, 40)"/>
<path d="M 25.938,41.295 A 1.029,1.029 0 1,1 23.891,41.31 A 1.029,1.029 0 0,1 25.948,41.31 Z M 32.576,41.382 A 1.029,1.029 0 1,1 30.518,41.382 A 1.029,1.029 0 0,1 32.576,41.382 Z M 38.176,38.067 A 1.029,1.029 0 1,1 36.119,38.067 A 1.029,1.029 0 0,1 38.176,38.067 Z M 41.377,32.352 A 1.029,1.029 0 1,1 39.319,32.352 A 1.029,1.029 0 0,1 41.377,32.352 Z M 41.491,25.836 A 1.029,1.029 0 1,1 39.434,25.836 A 1.029,1.029 0 0,1 41.491,25.836 Z M 38.176,20.235 A 1.029,1.029 0 1,1 36.119,20.235 A 1.029,1.029 0 0,1 38.176,20.235 Z M 32.576,16.92 A 1.029,1.029 0 1,1 30.518,16.92 A 1.029,1.029 0 0,1 32.576,16.92 Z M 25.945,16.92 A 1.029,1.029 0 1,1 23.888,16.92 A 1.029,1.029 0 0,1 25.945,16.92 Z M 20.345,20.235 A 1.029,1.029 0 1,1 18.287,20.235 A 1.029,1.029 0 0,1 20.345,20.235 Z M 17.03,25.836 A 1.029,1.029 0 1,1 14.972,25.836 A 1.029,1.029 0 0,1 17.03,25.836 Z M 17.143,32.352 A 1.029,1.029 0 1,1 15.086,32.352 A 1.029,1.029 0 0,1 17.143,32.352 Z M 20.345,38.067 A 1.029,1.029 0 1,1 18.287,38.067 A 1.029,1.029 0 0,1 20.345,38.067 Z" fill="rgb(13, 104, 111)"/>
<path d="M 21.935,41.71 A 1.029,1.029 0 1,1 19.887,41.725 A 1.029,1.029 0 0,1 21.945,41.725 Z M 29.31,43.681 A 1.029,1.029 0 1,1 27.253,43.681 A 1.029,1.029 0 0,1 29.31,43.681 Z" fill="rgb(189, 36, 40)"/>
<path d="M 24.613,44.798 A 0.571,0.571 0 1,1 23.48,44.813 A 0.571,0.571 0 0,1 24.623,44.813 Z M 33.033,44.811 A 0.572,0.572 0 1,1 31.89,44.811 A 0.572,0.572 0 0,1 33.033,44.811 Z M 40.234,40.582 A 0.572,0.572 0 1,1 39.091,40.582 A 0.572,0.572 0 0,1 40.234,40.582 Z M 44.463,33.38 A 0.572,0.572 0 1,1 43.32,33.38 A 0.572,0.572 0 0,1 44.463,33.38 Z M 44.463,24.922 A 0.571,0.571 0 1,1 43.32,24.922 A 0.571,0.571 0 0,1 44.463,24.922 Z M 40.234,17.72 A 0.572,0.572 0 1,1 39.091,17.72 A 0.572,0.572 0 0,1 40.234,17.72 Z M 33.033,13.605 A 0.572,0.572 0 1,1 31.89,13.605 A 0.572,0.572 0 0,1 33.033,13.605 Z M 24.593,13.572 A 0.572,0.572 0 1,1 23.45,13.572 A 0.572,0.572 0 0,1 24.593,13.572 Z M 17.373,17.72 A 0.572,0.572 0 1,1 16.229,17.72 A 0.572,0.572 0 0,1 17.373,17.72 Z M 13.143,24.922 A 0.571,0.571 0 1,1 12,24.922 A 0.571,0.571 0 0,1 13.143,24.922 Z M 13.143,33.38 A 0.572,0.572 0 1,1 12,33.38 A 0.572,0.572 0 0,1 13.143,33.38 Z M 17.373,40.582 A 0.572,0.572 0 1,1 16.229,40.582 A 0.572,0.572 0 0,1 17.373,40.582 Z" fill="rgb(13, 104, 111)"/>
<path d="M 36.452000000000005,41.595 A 1.029,1.029 0 1,1 34.404,41.61 A 1.029,1.029 0 0,1 36.462,41.61 Z M 41.949,36.352 A 1.029,1.029 0 1,1 39.891,36.352 A 1.029,1.029 0 0,1 41.949,36.352 Z M 43.892,29.151 A 1.029,1.029 0 1,1 41.834,29.151 A 1.029,1.029 0 0,1 43.891,29.151 Z M 41.942,21.835 A 1.029,1.029 0 1,1 39.884,21.835 A 1.029,1.029 0 0,1 41.942,21.835 Z M 36.576,16.577 A 1.029,1.029 0 1,1 34.519,16.577 A 1.029,1.029 0 0,1 36.576,16.577 Z M 29.26,14.64 A 1.029,1.029 0 1,1 27.203,14.64 A 1.029,1.029 0 0,1 29.26,14.64 Z M 22.059,16.577 A 1.029,1.029 0 1,1 20.001,16.577 A 1.029,1.029 0 0,1 22.059,16.577 Z M 16.686,21.95 A 1.029,1.029 0 1,1 14.629,21.95 A 1.029,1.029 0 0,1 16.686,21.95 Z M 14.737,29.151 A 1.029,1.029 0 1,1 12.68,29.151 A 1.029,1.029 0 0,1 14.737,29.151 Z M 16.686,36.359 A 1.029,1.029 0 1,1 14.629,36.359 A 1.029,1.029 0 0,1 16.686,36.359 Z M 29.489,39.667 A 1.257,1.257 0 1,1 26.974,39.667 A 1.257,1.257 0 0,1 29.489,39.667 Z M 34.85,38.339 A 1.257,1.257 0 1,1 32.336,38.339 A 1.257,1.257 0 0,1 34.851,38.339 Z M 38.748,34.503 A 1.257,1.257 0 1,1 36.233,34.503 A 1.257,1.257 0 0,1 38.748,34.503 Z M 40.12,29.037 A 1.257,1.257 0 1,1 37.605,29.037 A 1.257,1.257 0 0,1 40.119,29.037 Z" fill="rgb(189, 36, 40)"/>
<path d="M 37.145,27.105 A 1.257,1.257 0 1,1 34.64,27.12 A 1.257,1.257 0 0,1 37.155,27.12 Z M 37.148,31.094 A 1.257,1.257 0 1,1 34.633,31.094 A 1.257,1.257 0 0,1 37.148,31.094 Z M 35.09,34.752 A 1.257,1.257 0 1,1 32.576,34.752 A 1.257,1.257 0 0,1 35.09,34.752 Z M 31.66,36.81 A 1.257,1.257 0 1,1 29.146,36.81 A 1.257,1.257 0 0,1 31.661,36.81 Z M 27.546,36.81 A 1.257,1.257 0 1,1 25.031,36.81 A 1.257,1.257 0 0,1 27.546,36.81 Z M 23.888,34.752 A 1.257,1.257 0 1,1 21.373,34.752 A 1.257,1.257 0 0,1 23.888,34.752 Z M 21.83,31.094 A 1.257,1.257 0 1,1 19.315,31.094 A 1.257,1.257 0 0,1 21.83,31.094 Z M 21.83,27.208 A 1.257,1.257 0 1,1 19.315,27.208 A 1.257,1.257 0 0,1 21.83,27.208 Z" fill="rgb(13, 104, 111)"/>
<path d="M 33.726,26.735 A 1.486,1.486 0 1,1 30.764,26.75 A 1.486,1.486 0 0,1 33.736,26.75 Z M 33.736,31.437 A 1.486,1.486 0 1,1 30.764,31.437 A 1.486,1.486 0 0,1 33.736,31.437 Z M 29.717,33.728 A 1.486,1.486 0 1,1 26.745,33.728 A 1.486,1.486 0 0,1 29.717,33.728 Z M 25.717,31.437 A 1.486,1.486 0 1,1 22.745,31.437 A 1.486,1.486 0 0,1 25.717,31.437 Z M 25.717,26.75 A 1.486,1.486 0 1,1 22.745,26.75 A 1.486,1.486 0 0,1 25.717,26.75 Z" fill="rgb(189, 36, 40)"/>
</svg>
