<?xml version="1.0" encoding="UTF-8"?>
<!-- generated by Finnhub -->
<svg viewBox="0 0 55.5 55.5" xmlns="http://www.w3.org/2000/svg">
<path d="M 0,0 H 55.5 V 55.5 H 0 Z" fill="rgb(239, 242, 248)"/>
<path d="M 23.13,13.155 C 23.46,12.28 24.27,9.35 24.64,8 C 25.25,9.03 27.26,10.87 28.19,11.66 C 29.51,12.71 32.33,15.46 33.09,18.13 C 34.04,21.47 33.17,25.67 32.73,26.83 C 32.38,27.74 31.48,31.06 31.08,32.61 C 30.5,31.64 27.31,28.76 26.54,28.19 C 25.77,27.61 22.15,23.49 21.94,20.07 C 21.71,16.66 22.74,14.29 23.14,13.17 Z" fill="rgb(243, 174, 33)"/>
<path d="M 19.31,43.705 C 18.37,43.88 15.38,44.64 14,45 C 14.61,43.96 15.25,41.34 15.49,40.16 C 15.76,38.52 16.79,34.75 18.79,32.77 C 21.27,30.31 25.42,28.97 26.66,28.78 C 27.65,28.63 31.03,27.74 32.59,27.32 C 32.02,28.3 31.06,32.44 30.93,33.38 C 30.8,34.32 28.93,39.45 26.03,41.33 C 23.11,43.21 20.51,43.51 19.33,43.72 Z" fill="rgb(75, 94, 111)"/>
<path d="M 32.580000000000005,27.335 L 27.12,28.68 L 31.03,32.68 L 32.59,27.35 Z" fill="rgb(45, 50, 76)"/>
<path d="M 36.93,39.495 C 36.76,40.01 36.31,41.62 36.11,42.37 C 35.77,41.8 34.66,40.78 34.15,40.35 C 33.42,39.77 31.85,38.25 31.43,36.77 A 9.27,9.27 0 0,1 31.63,31.95 C 31.83,31.45 32.33,29.61 32.55,28.75 C 32.87,29.29 34.63,30.88 35.05,31.2 C 35.48,31.52 37.49,33.8 37.61,35.7 C 37.73,37.58 37.16,38.9 36.94,39.51 Z" fill="rgb(243, 174, 33)"/>
<path d="M 39.04,22.585 C 39.58,22.51 41.24,22.1 42,21.9 C 41.66,22.47 41.31,23.92 41.18,24.57 C 41.03,25.48 40.45,27.57 39.35,28.66 A 9.69,9.69 0 0,1 35,30.87 C 34.46,30.96 32.59,31.45 31.72,31.67 C 32.03,31.14 32.57,28.85 32.64,28.33 C 32.71,27.81 33.74,24.96 35.35,23.93 C 36.97,22.88 38.41,22.72 39.06,22.6 Z" fill="rgb(75, 94, 111)"/>
<path d="M 31.7,31.645 L 34.74,30.93 L 32.57,28.72 L 31.71,31.66 Z" fill="rgb(45, 50, 76)"/>
</svg>
