<?xml version="1.0" encoding="UTF-8"?>
<!-- generated by Finnhub -->
<svg viewBox="0 0 55.5 55.5" xmlns="http://www.w3.org/2000/svg">
<rect width="56" height="56" fill="rgb(104, 1, 40)"/>
<path d="M 19.99,18.985 V 26 H 24 V 27 H 18 V 19 H 20 Z" clip-rule="evenodd" fill="rgb(254, 254, 253)" fill-rule="evenodd"/>
<path d="M 25.99,26.985 H 28 V 19 H 26 V 27 Z" clip-rule="evenodd" fill="rgb(254, 254, 253)" fill-rule="evenodd"/>
<path d="M 31.99,22.985 C 32,24.5 32.1875,26 34,26 S 36,24.5 36,23 S 35.625,20 34,20 S 32,21.5 32,23 Z M 38,23 C 38,25.4365 36.9266,27 34,27 C 31.5386,27 30,25.7782 30,23 C 30,20.2987 31.6001,19 34,19 C 36.7334,19 38,20.6137 38,23 Z" clip-rule="evenodd" fill="rgb(254, 254, 253)" fill-rule="evenodd"/>
<path d="M 41.99,22.678 H 43 C 44.3622,22.693 44.7249,22.24 44.7249,21.2505 C 44.7249,20.6499 44.4548,20.2473 43.9343,20.0626 C 43.6772,19.9644 43.6466,19.9998 43,19.9998 C 42.6522,19.9998 42.5156,19.9873 42,19.9998 V 22.693 Z M 40,18.9998 H 43 C 44.3593,18.9998 45.0492,19.0962 45.5932,19.4144 C 46.2782,19.8166 46.6152,20.3916 46.6152,21.1498 C 46.6152,22.1673 45.8011,22.9455 44.5336,23.2959 C 45.6736,25.5267 46.6152,26.2432 47.6391,26.1705 L 48,25.9998 V 26.4998 C 47.9618,26.6597 47.1209,26.9998 46.5,26.9998 C 45.514,26.9998 44.8288,26.5841 44.1538,25.705 C 43.7936,25.2254 43.5695,24.6046 43,23.4998 H 42 V 26.9998 H 40 V 18.9998 Z" clip-rule="evenodd" fill="rgb(254, 254, 253)" fill-rule="evenodd"/>
<path d="M 12.99,36.985 C 14.5,37 15,36.5876 15,35.5 C 15,34.235 13.882,34 13,34 H 11 V 37 H 13 Z M 12,33 C 12.8791,33 14,33.1082 14,32 C 14,30.9116 13.3003,31 12.5,31 H 11 V 33 H 12 Z M 10,30 C 10.6867,29.9882 10.9443,30.0105 11.5,30 C 11.9669,29.987 12.3059,30 12.5,30 C 13.6749,30 14.0084,30.1195 14.4604,30.487 C 14.8455,30.8186 15,31.4853 15,32 C 15,32.8047 14.9032,33.1716 14,33.5 C 14.5822,33.5967 14.837,33.6966 15.135,33.8887 C 15.676,34.233 16,34.8436 16,35.5 C 16,36.3792 15.6741,37.0336 15,37.5 C 14.4375,37.8892 13.9851,38 12.5,38 H 10 V 30 Z" clip-rule="evenodd" fill="rgb(240, 188, 12)" fill-rule="evenodd"/>
<path d="M 20.99,30.985 L 19.2,35 H 22 L 21,31 Z M 21.5,30 L 24,38 H 23 L 22.2,35.5 H 19 L 18,38 H 17 L 20.5,30 H 21.5 Z" clip-rule="evenodd" fill="rgb(240, 188, 12)" fill-rule="evenodd"/>
<path d="M 26.99,29.985 L 32,36 V 30 H 33 V 38 L 27,31.5 V 38 H 26 V 30 H 27 Z" clip-rule="evenodd" fill="rgb(240, 188, 12)" fill-rule="evenodd"/>
<path d="M 41.49,29.985 L 37.2656,33.5988 L 42,38 H 40.5 L 36.0699,33.5988 L 40,30 H 41.5 Z M 35,30 H 36 V 38 H 35 V 30 Z" clip-rule="evenodd" fill="rgb(240, 188, 12)" fill-rule="evenodd"/>
<path d="M 10.776,23.985 L 12.2001,21 L 13.5337,24 H 10.786 Z M 13.0001,19 H 10.3397 L 10.2496,19.0742 S 10.0371,19.728 10.0192,19.8868 C 10.0458,20.1981 11.6037,19.9145 11.6037,19.9145 L 8.0001,27 H 9.6157 L 10.408,25 H 13.9109 L 14.6177,27 H 16.5962 L 13.0002,19 Z" clip-rule="evenodd" fill="rgb(254, 254, 253)" fill-rule="evenodd"/>
</svg>
