<?xml version="1.0" encoding="UTF-8"?>
<!-- generated by Finnhub -->
<svg viewBox="0 0 55.5 55.5" xmlns="http://www.w3.org/2000/svg">
<path d="M 0,0 H 55.5 V 55.5 H 0 Z" fill="rgb(239, 242, 248)"/>
<mask id="b" x="20" y="11" width="24" height="30" maskUnits="userSpaceOnUse">
<path d="M 23.439999999999998,10.985 L 20.96,18.4 L 25.87,20.03 S 27.03,20.43 27.21,19.62 C 27.21,19.62 28.67,17.22 28.76,15.65 C 28.76,15.65 28.91,21.42 29.89,21.75 C 29.89,21.75 38.81,27.37 43.66,40.96 C 43.66,40.96 42.14,19.49 23.45,11 Z" fill="rgb(254, 254, 253)"/>
</mask>
<g mask="url(#b)">
<path d="M 21.439999999999998,10.985 H 20.96 V 40.96 H 21.45 V 11 Z" fill="rgb(45, 111, 170)"/>
<path d="M 21.919999999999998,10.985 H 21.45 V 40.96 H 21.93 V 11 Z" fill="rgb(45, 112, 171)"/>
<path d="M 22.4,10.985 H 21.93 V 40.96 H 22.41 V 11 Z" fill="rgb(46, 113, 172)"/>
<path d="M 22.889999999999997,10.985 H 22.41 V 40.96 H 22.9 V 11 Z" fill="rgb(46, 115, 173)"/>
<path d="M 23.369999999999997,10.985 H 22.9 V 40.96 H 23.38 V 11 Z" fill="rgb(47, 116, 174)"/>
<path d="M 23.849999999999998,10.985 H 23.38 V 40.96 H 23.86 V 11 Z" fill="rgb(47, 117, 175)"/>
<path d="M 24.33,10.985 H 23.86 V 40.96 H 24.34 V 11 Z" fill="rgb(48, 118, 176)"/>
<path d="M 24.819999999999997,10.985 H 24.34 V 40.96 H 24.83 V 11 Z" fill="rgb(48, 119, 177)"/>
<path d="M 25.29,10.985 H 24.83 V 40.96 H 25.31 V 11 Z" fill="rgb(49, 120, 177)"/>
<path d="M 25.79,10.985 H 25.3 V 40.96 H 25.8 V 11 Z" fill="rgb(49, 121, 178)"/>
<path d="M 26.259999999999998,10.985 H 25.79 V 40.96 H 26.27 V 11 Z" fill="rgb(50, 123, 179)"/>
<path d="M 26.75,10.985 H 26.27 V 40.96 H 26.76 V 11 Z" fill="rgb(51, 124, 179)"/>
<path d="M 27.229999999999997,10.985 H 26.76 V 40.96 H 27.24 V 11 Z" fill="rgb(51, 125, 180)"/>
<path d="M 27.709999999999997,10.985 H 27.24 V 40.96 H 27.72 V 11 Z" fill="rgb(52, 126, 181)"/>
<path d="M 28.189999999999998,10.985 H 27.72 V 40.96 H 28.2 V 11 Z" fill="rgb(52, 127, 182)"/>
<path d="M 28.68,10.985 H 28.2 V 40.96 H 28.69 V 11 Z" fill="rgb(53, 127, 183)"/>
<path d="M 29.16,10.985 H 28.69 V 40.96 H 29.17 V 11 Z" fill="rgb(53, 127, 184)"/>
<path d="M 29.639999999999997,10.985 H 29.17 V 40.96 H 29.65 V 11 Z" fill="rgb(54, 128, 184)"/>
<path d="M 30.13,10.985 H 29.65 V 40.96 H 30.14 V 11 Z" fill="rgb(54, 129, 185)"/>
<path d="M 30.61,10.985 H 30.13 V 40.96 H 30.62 V 11 Z" fill="rgb(55, 131, 186)"/>
<path d="M 31.09,10.985 H 30.62 V 40.96 H 31.1 V 11 Z" fill="rgb(55, 132, 187)"/>
<path d="M 31.569999999999997,10.985 H 31.1 V 40.96 H 31.58 V 11 Z" fill="rgb(56, 133, 188)"/>
<path d="M 32.06,10.985 H 31.58 V 40.96 H 32.07 V 11 Z" fill="rgb(56, 134, 189)"/>
<path d="M 32.54,10.985 H 32.07 V 40.96 H 32.55 V 11 Z" fill="rgb(57, 135, 189)"/>
<path d="M 33.02,10.985 H 32.55 V 40.96 H 33.03 V 11 Z" fill="rgb(57, 136, 190)"/>
<path d="M 33.5,10.985 H 33.03 V 40.96 H 33.51 V 11 Z" fill="rgb(58, 137, 190)"/>
<path d="M 33.99,10.985 H 33.51 V 40.96 H 34 V 11 Z" fill="rgb(58, 138, 191)"/>
<path d="M 34.47,10.985 H 34 V 40.96 H 34.48 V 11 Z" fill="rgb(59, 139, 192)"/>
<path d="M 34.95,10.985 H 34.48 V 40.96 H 34.96 V 11 Z" fill="rgb(59, 140, 193)"/>
<path d="M 35.43,10.985 H 34.96 V 40.96 H 35.44 V 11 Z" fill="rgb(60, 140, 194)"/>
<path d="M 35.92,10.985 H 35.44 V 40.96 H 35.93 V 11 Z" fill="rgb(60, 141, 194)"/>
<path d="M 36.39,10.985 H 35.93 V 40.96 H 36.41 V 11 Z" fill="rgb(61, 142, 195)"/>
<path d="M 36.89,10.985 H 36.4 V 40.96 H 36.9 V 11 Z" fill="rgb(61, 143, 196)"/>
<path d="M 37.36,10.985 H 36.89 V 40.96 H 37.37 V 11 Z" fill="rgb(62, 144, 196)"/>
<path d="M 37.85,10.985 H 37.37 V 40.96 H 37.86 V 11 Z" fill="rgb(62, 145, 197)"/>
<path d="M 38.330000000000005,10.985 H 37.86 V 40.96 H 38.34 V 11 Z" fill="rgb(63, 146, 197)"/>
<path d="M 38.81,10.985 H 38.34 V 40.96 H 38.82 V 11 Z" fill="rgb(63, 147, 198)"/>
<path d="M 39.29,10.985 H 38.82 V 40.96 H 39.3 V 11 Z" fill="rgb(64, 148, 199)"/>
<path d="M 39.78,10.985 H 39.31 V 40.96 H 39.79 V 11 Z" fill="rgb(64, 149, 200)"/>
<path d="M 40.260000000000005,10.985 H 39.79 V 40.96 H 40.27 V 11 Z M 40.75,11 H 40.27 V 40.96 H 40.75 V 11 Z" fill="rgb(65, 149, 201)"/>
<path d="M 41.230000000000004,10.985 H 40.75 V 40.96 H 41.24 V 11 Z" fill="rgb(65, 150, 202)"/>
<path d="M 41.71,10.985 H 41.24 V 40.96 H 41.72 V 11 Z" fill="rgb(65, 151, 202)"/>
<path d="M 42.190000000000005,10.985 H 41.72 V 40.96 H 42.2 V 11 Z" fill="rgb(66, 152, 202)"/>
<path d="M 42.67,10.985 H 42.2 V 40.96 H 42.68 V 11 Z" fill="rgb(67, 153, 203)"/>
<path d="M 43.160000000000004,10.985 H 42.68 V 40.96 H 43.17 V 11 Z" fill="rgb(67, 153, 204)"/>
<path d="M 43.64,10.985 H 43.17 V 40.96 H 43.65 V 11 Z" fill="rgb(67, 154, 204)"/>
</g>
<mask id="a" x="17" y="19" width="27" height="24" maskUnits="userSpaceOnUse">
<path d="M 43.99,42.985 S 33.45,27.03 17.24,29 L 20.55,19.83 S 26.71,20.31 26.71,23.84 L 27.11,28.46 S 27.79,23.03 29.93,23.77 C 29.93,23.77 38.81,29.34 44,43 Z" fill="rgb(254, 254, 253)"/>
</mask>
<g mask="url(#a)">
<path d="M 17.79,19.814999999999998 H 17.24 V 43 H 17.81 V 19.83 Z" fill="rgb(45, 111, 170)"/>
<path d="M 18.369999999999997,19.814999999999998 H 17.81 V 43 H 18.38 V 19.83 Z" fill="rgb(45, 112, 171)"/>
<path d="M 18.939999999999998,19.814999999999998 H 18.38 V 43 H 18.95 V 19.83 Z" fill="rgb(46, 113, 172)"/>
<path d="M 19.509999999999998,19.814999999999998 H 18.95 V 43 H 19.52 V 19.83 Z" fill="rgb(46, 115, 173)"/>
<path d="M 20.08,19.814999999999998 H 19.52 V 43 H 20.09 V 19.83 Z" fill="rgb(47, 116, 174)"/>
<path d="M 20.65,19.814999999999998 H 20.09 V 43 H 20.66 V 19.83 Z" fill="rgb(47, 117, 175)"/>
<path d="M 21.209999999999997,19.814999999999998 H 20.66 V 43 H 21.22 V 19.83 Z" fill="rgb(48, 118, 176)"/>
<path d="M 21.79,19.814999999999998 H 21.22 V 43 H 21.79 V 19.83 Z" fill="rgb(48, 119, 177)"/>
<path d="M 22.349999999999998,19.814999999999998 H 21.79 V 43 H 22.36 V 19.83 Z" fill="rgb(49, 120, 177)"/>
<path d="M 22.919999999999998,19.814999999999998 H 22.36 V 43 H 22.93 V 19.83 Z" fill="rgb(49, 121, 178)"/>
<path d="M 23.49,19.814999999999998 H 22.93 V 43 H 23.5 V 19.83 Z" fill="rgb(50, 123, 179)"/>
<path d="M 24.06,19.814999999999998 H 23.5 V 43 H 24.07 V 19.83 Z" fill="rgb(51, 124, 179)"/>
<path d="M 24.63,19.814999999999998 H 24.07 V 43 H 24.64 V 19.83 Z" fill="rgb(51, 125, 180)"/>
<path d="M 25.189999999999998,19.814999999999998 H 24.64 V 43 H 25.21 V 19.83 Z" fill="rgb(52, 126, 181)"/>
<path d="M 25.77,19.814999999999998 H 25.21 V 43 H 25.78 V 19.83 Z" fill="rgb(52, 127, 182)"/>
<path d="M 26.34,19.814999999999998 H 25.78 V 43 H 26.35 V 19.83 Z" fill="rgb(53, 127, 183)"/>
<path d="M 26.91,19.814999999999998 H 26.35 V 43 H 26.92 V 19.83 Z" fill="rgb(53, 127, 184)"/>
<path d="M 27.479999999999997,19.814999999999998 H 26.92 V 43 H 27.49 V 19.83 Z" fill="rgb(54, 128, 184)"/>
<path d="M 28.04,19.814999999999998 H 27.49 V 43 H 28.05 V 19.83 Z" fill="rgb(54, 129, 185)"/>
<path d="M 28.61,19.814999999999998 H 28.05 V 43 H 28.62 V 19.83 Z" fill="rgb(55, 131, 186)"/>
<path d="M 29.189999999999998,19.814999999999998 H 28.62 V 43 H 29.19 V 19.83 Z" fill="rgb(55, 132, 187)"/>
<path d="M 29.75,19.814999999999998 H 29.19 V 43 H 29.76 V 19.83 Z" fill="rgb(56, 133, 188)"/>
<path d="M 30.319999999999997,19.814999999999998 H 29.76 V 43 H 30.33 V 19.83 Z" fill="rgb(56, 134, 189)"/>
<path d="M 30.889999999999997,19.814999999999998 H 30.33 V 43 H 30.9 V 19.83 Z" fill="rgb(57, 135, 189)"/>
<path d="M 31.459999999999997,19.814999999999998 H 30.9 V 43 H 31.47 V 19.83 Z" fill="rgb(57, 136, 190)"/>
<path d="M 32.03,19.814999999999998 H 31.47 V 43 H 32.04 V 19.83 Z" fill="rgb(58, 137, 190)"/>
<path d="M 32.59,19.814999999999998 H 32.04 V 43 H 32.61 V 19.83 Z" fill="rgb(58, 138, 191)"/>
<path d="M 33.17,19.814999999999998 H 32.61 V 43 H 33.18 V 19.83 Z" fill="rgb(59, 139, 192)"/>
<path d="M 33.74,19.814999999999998 H 33.18 V 43 H 33.75 V 19.83 Z" fill="rgb(59, 140, 193)"/>
<path d="M 34.31,19.814999999999998 H 33.75 V 43 H 34.32 V 19.83 Z" fill="rgb(60, 140, 194)"/>
<path d="M 34.88,19.814999999999998 H 34.32 V 43 H 34.89 V 19.83 Z" fill="rgb(60, 141, 194)"/>
<path d="M 35.440000000000005,19.814999999999998 H 34.89 V 43 H 35.45 V 19.83 Z" fill="rgb(61, 142, 195)"/>
<path d="M 36.010000000000005,19.814999999999998 H 35.45 V 43 H 36.02 V 19.83 Z" fill="rgb(61, 143, 196)"/>
<path d="M 36.59,19.814999999999998 H 36.02 V 43 H 36.59 V 19.83 Z" fill="rgb(62, 144, 196)"/>
<path d="M 37.15,19.814999999999998 H 36.59 V 43 H 37.16 V 19.83 Z" fill="rgb(62, 145, 197)"/>
<path d="M 37.72,19.814999999999998 H 37.16 V 43 H 37.73 V 19.83 Z" fill="rgb(63, 146, 197)"/>
<path d="M 38.29,19.814999999999998 H 37.73 V 43 H 38.3 V 19.83 Z" fill="rgb(63, 147, 198)"/>
<path d="M 38.86,19.814999999999998 H 38.3 V 43 H 38.87 V 19.83 Z" fill="rgb(64, 148, 199)"/>
<path d="M 39.43,19.814999999999998 H 38.87 V 43 H 39.44 V 19.83 Z" fill="rgb(64, 149, 200)"/>
<path d="M 39.99,19.814999999999998 H 39.44 V 43 H 40 V 19.83 Z M 40.58,19.83 H 40 V 43 H 40.57 V 19.83 Z" fill="rgb(65, 149, 201)"/>
<path d="M 41.14,19.814999999999998 H 40.58 V 43 H 41.15 V 19.83 Z" fill="rgb(65, 150, 202)"/>
<path d="M 41.71,19.814999999999998 H 41.15 V 43 H 41.72 V 19.83 Z" fill="rgb(65, 151, 202)"/>
<path d="M 42.27,19.814999999999998 H 41.72 V 43 H 42.28 V 19.83 Z" fill="rgb(66, 152, 202)"/>
<path d="M 42.84,19.814999999999998 H 42.28 V 43 H 42.85 V 19.83 Z" fill="rgb(67, 153, 203)"/>
<path d="M 43.410000000000004,19.814999999999998 H 42.85 V 43 H 43.42 V 19.83 Z" fill="rgb(67, 153, 204)"/>
<path d="M 43.99,19.814999999999998 H 43.42 V 43 H 44 V 19.83 Z" fill="rgb(67, 154, 204)"/>
</g>
<path d="M 42.96,42.505 S 26.71,33.76 12,42.52 L 16.48,30.3 S 31.03,28.05 42.97,42.52 Z" fill="rgb(41, 74, 141)"/>
</svg>
