<?xml version="1.0" encoding="UTF-8"?>
<!-- generated by Finnhub -->
<svg viewBox="0 0 55.5 55.5" xmlns="http://www.w3.org/2000/svg">
<path d="M 0,0 H 55.5 V 55.5 H 0 Z" fill="rgb(239, 242, 248)"/>
<path d="M 20.99,34.964999999999996 A 1,1 0 0,1 20.02,36 A 1,1 0 0,1 19.09,35.36 L 18.16,33 H 9.95 L 8.91,35.36 A 0.94,0.94 0 0,1 8,36 A 1,1 0 0,1 7,35 C 7,34.89 7.05,34.75 7.1,34.6 L 12.43,21.1 A 1.7,1.7 0 0,1 14.01,20 C 14.73,20 15.34,20.46 15.57,21.1 L 20.93,34.6 C 20.95,34.73 21,34.86 21,34.98 Z M 17.39,31 L 14.01,21.85 L 10.66,31 H 17.39 Z M 24,34.95 V 20.98 C 24,20.45 24.4,20 24.95,20 C 25.45,20 26,20.45 26,20.98 V 34 H 32.14 C 32.59,34 33,34.64 33,35.12 A 0.9,0.9 0 0,1 32.14,36 H 25 C 24.36,36 24,35.62 24,34.95 Z M 45.15,20.92 C 45.52,20.36 45.85,20 46.65,20 C 47.33,20 47.56,20.27 47.56,20.58 C 47.56,20.82 47.42,21.06 47.16,21.43 L 42.8,27.59 L 47.6,34.52 C 47.89,34.9 48,35.15 48,35.36 C 48,35.73 47.72,36 46.98,36 C 46.18,36 45.85,35.66 45.46,35.05 L 41.43,29 L 37.41,35.08 C 37.04,35.64 36.69,36 35.92,36 C 35.26,36 35,35.73 35,35.42 C 35,35.18 35.14,34.94 35.42,34.55 L 40.27,27.64 L 36.02,21.48 C 35.74,21.1 35.6,20.85 35.6,20.61 C 35.6,20.25 35.9,20.01 36.6,20.01 C 37.4,20.01 37.73,20.32 38.15,20.95 L 41.59,26.23 L 45.15,20.93 Z" fill="rgb(183, 1, 72)"/>
</svg>
