<?xml version="1.0" encoding="UTF-8"?>
<!-- generated by Finnhub -->
<svg viewBox="0 0 55.5 55.5" xmlns="http://www.w3.org/2000/svg">
<path d="M 0,0 H 55.5 V 55.5 H 0 Z" fill="rgb(44, 86, 137)"/>
<path d="M 33.1,37.278 C 31.44,40.848 26.426,43.773 21.895,43.773 C 17.365,43.773 15.062,40.885 16.696,37.293 C 20.892,28.293 32.526,20.907 32.526,20.907 S 37.418,28.071 33.111,37.293 Z" fill="rgb(254, 254, 253)" opacity=".2"/>
<path d="M 37.99,11.984 S 21.113,23.96 15.73,35.479 C 13.613,39.996 16.287,43.663 21.672,43.737 C 16.955,43.663 14.699,40.414 16.592,36.377 C 21.383,26.082 35.742,16.573 35.742,16.573 S 38.942,25.85 34.04,36.368 C 32.146,40.441 26.722,43.737 21.857,43.737 C 27.391,43.737 33.593,40.033 35.709,35.478 C 41.243,23.701 38,11.998 38,11.998 Z" fill="rgb(254, 254, 253)"/>
<path d="M 35.735,16.502 S 21.4,26.072 16.583,36.367 C 15.175,39.367 16.101,41.959 18.621,43.107 C 16.361,42.07 15.508,39.848 16.694,37.293 C 20.882,28.293 32.52,20.923 32.52,20.923 S 37.375,28.071 33.076,37.293 C 32.038,39.515 29.703,41.478 26.961,42.663 C 30.074,41.367 32.817,39.033 34.04,36.367 C 38.97,25.849 35.745,16.517 35.745,16.517 Z" fill="rgb(254, 254, 253)" opacity=".6"/>
<path d="M 30.686999999999998,25.612 S 21.672,31.33 18.033,38.59 C 16.584,41.479 18.107,43.886 21.449,43.997 C 24.792,44.108 28.654,41.887 30.102,38.997 C 32.888,33.479 28.692,33.368 30.697,25.628 Z M 20.67,42.107 C 16.77,41.33 21.672,35.737 21.672,35.737 C 19.072,40.33 20.67,42.107 20.67,42.107 Z" fill="rgb(44, 86, 137)"/>
</svg>
