<?xml version="1.0" encoding="UTF-8"?>
<!-- generated by Finnhub -->
<svg viewBox="0 0 55.5 55.5" xmlns="http://www.w3.org/2000/svg">
<path d="M 0,0 H 55.5 V 55.5 H 0 Z" fill="rgb(1, 47, 92)"/>
<path d="M 40.99,33.485 C 41,37.65 37.42,41.02 33,41.02 V 44 C 39.17,43.91 44,39.5 44,33.5 S 39.04,23.09 33,23 V 25.98 C 37.42,26.01 41,29.35 41,33.5 Z M 15,23 H 18 V 26 H 15 V 23 Z M 21,29 H 24 V 32 H 21 V 29 Z M 27,35 H 30 V 38 H 27 V 35 Z M 21,23 H 30 V 26 H 21 V 23 Z" fill="rgb(249, 254, 253)"/>
<path d="M 32.99,28.985 H 27 V 32 H 33 C 34,32 35,32.5 35,33.5 S 34,35 33,35 V 38 C 36,38 38,36.27 38,33.38 C 38,30.5 36,29 33,29 Z" fill="rgb(249, 254, 253)"/>
<path d="M 22.5,17.985 C 20.02,18 18,20.42 18,23 V 28.9 L 21,32 V 23 C 21,22 21.5,21 22.5,21 S 24,22 24,23 H 27 C 27.03,20.42 25,18 22.51,18 Z M 33,44 L 30,41.01 V 32 H 33 V 44 Z" fill="rgb(229, 137, 40)"/>
<path d="M 32.99,22.735 C 32.91,16.72 28.5,12 22.5,12 S 12.09,17.09 12,23 L 15,26 V 22.9 C 15.09,18.57 18.35,14.9 22.5,15 C 26.54,15.06 29.91,18.55 30,22.75 V 29 H 33 V 22.75 Z" fill="rgb(229, 137, 40)"/>
<path d="M 26.99,37.985 L 24,35.01 V 26 H 27 V 38 Z" fill="rgb(229, 137, 40)"/>
</svg>
