<?xml version="1.0" encoding="UTF-8"?>
<!-- generated by Finnhub -->
<svg viewBox="0 0 55.5 55.5" xmlns="http://www.w3.org/2000/svg">
<path d="M 0,0 H 55.5 V 55.5 H 0 Z" fill="rgb(76, 91, 136)"/>
<path d="M 20.99,13.985 H 27 V 18 H 30 V 14 H 36 V 18 H 37 V 20 H 38 V 26 H 19 V 20 H 20 V 18 H 21 V 14 Z" fill="rgb(253, 254, 253)" fill-opacity=".5"/>
<path d="M 46.260000000000005,35.985 V 35.9 A 0.71,0.71 0 0,0 46.35,35.63 A 6.2,6.2 0 0,0 46.41,34.71 C 46.43,34.33 46.42,33.96 46.41,33.58 L 46.38,32.55 L 46.35,30.67 L 45.18,33.67 C 44.97,34.23 44.79,34.67 44.68,35 L 44.55,35.44 A 3,3 0 0,0 44.51,35.91 V 36 H 43.33 V 35.88 C 43.33,35.81 43.3,35.59 43.26,35.44 L 43.09,34.9 L 42.57,33.43 L 41.6,30.76 L 41.42,33.63 L 41.37,34.29 C 41.35,34.7 41.34,35.12 41.37,35.53 C 41.39,35.67 41.42,35.79 41.47,35.88 V 36 H 40 V 35.88 C 40.04,35.82 40.09,35.7 40.13,35.53 C 40.23,35.17 40.31,34.72 40.37,34.25 L 40.45,33.62 L 40.65,31.37 A 9.66,9.66 0 0,0 40.71,30.44 A 12.16,12.16 0 0,0 40.75,29.65 A 6.73,6.73 0 0,0 40.42,29.09 V 29 H 42.32 V 29.13 C 42.54,29.83 42.82,30.53 43.09,31.23 L 44.07,33.93 L 45.12,31.33 A 26.28,26.28 0 0,0 45.88,29.31 V 29 H 47.77 V 29.1 C 47.71,29.2 47.66,29.37 47.63,29.62 L 47.61,30.5 V 30.9 C 47.61,31.04 47.61,31.16 47.63,31.27 L 47.73,33.73 A 23.25,23.25 0 0,0 47.88,35.56 C 47.92,35.72 47.96,35.83 48,35.9 V 36 H 46.27 Z M 37,36 V 35.2 C 36.29,35.54 35.85,36 35.04,36 C 33.82,36 33,35.24 33,34 V 31.16 A 19.03,19.03 0 0,0 32.96,29.96 A 3.97,3.97 0 0,0 32.79,29.09 V 29 H 34.68 V 29.1 A 0.97,0.97 0 0,0 34.58,29.43 A 5.54,5.54 0 0,0 34.5,30.58 V 33.47 C 34.5,34.33 34.8,34.8 35.63,34.8 C 35.87,34.8 36.13,34.74 36.39,34.63 C 36.67,34.52 36.75,34.39 37,34.23 V 31.16 A 19.03,19.03 0 0,0 36.95,29.96 A 3.95,3.95 0 0,0 36.78,29.09 V 29 H 38.72 V 29.1 C 38.68,29.16 38.64,29.27 38.61,29.43 A 8.32,8.32 0 0,0 38.5,31.16 V 33.77 A 19.33,19.33 0 0,0 38.55,34.97 A 8.68,8.68 0 0,0 38.72,35.89 V 36 H 37 Z M 28.76,36 V 35.9 A 4,4 0 0,0 28.94,34.99 A 9.11,9.11 0 0,0 29,33.73 V 31.27 A 18.8,18.8 0 0,0 28.95,30.02 C 28.93,29.8 28.91,29.61 28.87,29.44 A 0.94,0.94 0 0,0 28.77,29.09 V 29 H 30.77 V 29.1 C 30.72,29.16 30.67,29.27 30.64,29.44 A 8.23,8.23 0 0,0 30.52,31.27 V 33.73 A 18.76,18.76 0 0,0 30.57,34.98 L 30.64,35.55 C 30.68,35.72 30.72,35.83 30.76,35.9 V 36 H 28.76 Z M 25.8,36 V 35.89 C 25.82,35.83 25.83,35.78 25.82,35.73 A 2.17,2.17 0 0,0 25.46,34.99 C 25.26,34.67 24.96,34.26 24.6,33.76 L 24.24,33.26 L 23.5,33.42 V 33.71 A 15,15 0 0,0 23.61,35.55 A 1,1 0 0,0 23.71,35.89 V 36 H 21.79 V 35.89 A 1,1 0 0,0 21.89,35.55 A 9.48,9.48 0 0,0 22,33.7 V 31.32 C 22,30.72 22,30.09 21.89,29.49 C 21.86,29.32 21.83,29.19 21.79,29.14 V 29.04 C 22.05,29.04 22.34,29.04 22.67,29.02 L 23.8,29 C 25.17,29 26.8,29.43 26.8,31.05 C 26.8,31.95 26.22,32.32 25.55,32.79 L 26.55,34.24 A 45.41,45.41 0 0,0 27.35,35.3 C 27.45,35.43 27.55,35.53 27.65,35.63 C 27.75,35.72 27.89,35.8 28,35.89 V 36 H 25.8 Z M 25.37,30.99 C 25.37,30.59 25.27,30.42 25.07,30.25 C 24.87,30.08 24.57,30 24.19,30 A 3.5,3.5 0 0,0 23.5,30.06 V 32.48 H 24.12 C 24.95,32.48 25.37,31.98 25.37,30.99 Z M 20.4,30.43 A 0.77,0.77 0 0,0 20.06,30.32 A 6.65,6.65 0 0,0 18.5,30.18 V 33.7 A 21.48,21.48 0 0,0 18.55,34.97 L 18.62,35.54 C 18.64,35.71 18.67,35.83 18.72,35.89 V 36 H 16.79 V 35.89 A 4.53,4.53 0 0,0 16.96,34.97 A 11.6,11.6 0 0,0 17,33.7 V 30.18 C 16.37,30.18 16.06,30.18 15.44,30.28 A 0.91,0.91 0 0,0 15.1,30.38 H 15 V 28.76 H 15.1 A 1,1 0 0,0 15.48,28.88 C 16.16,28.98 16.53,29 17.21,29 H 18.46 C 19.1,29 19.43,29 20.06,28.93 A 0.91,0.91 0 0,0 20.4,28.83 H 20.5 V 30.43 H 20.4 Z M 12.9,36 V 35.9 A 0.87,0.87 0 0,0 12.97,35.52 C 12.97,35.35 12.94,35.13 12.87,34.87 C 12.81,34.6 12.69,34.44 12.53,34 H 10.1 C 10,34.3 9.89,34.43 9.79,34.73 S 9.64,35.28 9.64,35.49 C 9.64,35.61 9.65,35.74 9.69,35.89 V 36 H 8 V 35.9 A 3.95,3.95 0 0,0 8.48,35.13 A 4891.77,4891.77 0 0,0 8.98,33.96 L 10.98,29 H 12.18 L 13.93,33.64 A 285.52,285.52 0 0,0 14.46,35.02 L 14.72,35.51 C 14.81,35.65 14.9,35.78 15,35.9 V 36 H 12.9 Z M 11.33,30.59 L 10.44,32.87 H 12.17 L 11.33,30.59 Z" fill="rgb(253, 254, 253)"/>
</svg>
