<?xml version="1.0" encoding="UTF-8"?>
<!-- generated by Finnhub -->
<svg viewBox="0 0 55.5 55.5" xmlns="http://www.w3.org/2000/svg">
<path d="M 0,0 H 55.5 V 55.5 H 0 Z" fill="rgb(9, 76, 145)"/>
<path d="M 12.99,19.985 C 8.032,20 4,23.575 4,27.994 C 4,32.412 8.032,36 13,36 S 22,32.412 22,27.994 C 22,23.575 17.968,20 13,20 Z" fill="rgb(254, 254, 253)"/>
<path d="M 14.085,31.049 C 14.147,31.014 14.082,31.004 14.225,31 H 16 V 29 L 12.693,29.003 L 10.434,34 H 12.691 L 14.094,31.064 Z" fill="rgb(9, 76, 145)"/>
<path d="M 16.363999999999997,23.043 C 16.115,23.064 15.826,23.158 15.523,23.362 C 14.764,23.874 13.655,26.094 13.443,27 C 13.682,27 15.553,26.985 15.623,27 L 16.412,25.494 L 19.956,33.259 C 19.961,33.255 19.963,33.25 19.969,33.247 C 20.017,33.217 20.073,33.19 20.119,33.157 C 20.124,33.152 20.127,33.151 20.132,33.145 C 20.427,32.771 21.052,31.817 21.209,31.61 C 21.371,31.394 21.317,31.367 21.196,31.128 A 16.39,16.39 0 0,1 20.958,30.633 A 58.988,58.988 0 0,1 20.495,29.605 C 19.899,28.254 19.325,26.852 18.666,25.532 C 18.206,24.61 17.496,23.032 16.374,23.058 Z" fill="rgb(9, 76, 145)"/>
<path d="M 24.99,32.982 C 25.03,32.757 25,31.439 25,31.013 C 25,30.205 25.079,28.998 26.002,29 C 26.927,29.003 27.001,30.207 27,31.013 V 33 H 29 C 29.029,32.714 29,31.469 29,31.013 C 29,30.182 29.095,29.036 30,29 C 30.953,28.962 31,30.207 31,31.013 V 33 H 32.998 V 30.235 C 32.998,29.373 33.063,28.497 32.665,27.816 C 32.338,27.256 31.651,26.895 30.705,27 C 30.025,27.076 29.415,27.469 29,28 C 28.437,27.474 27.945,27.037 27.122,27 C 25.704,26.936 25.206,27.801 25,27.92 V 27 H 23.002 L 23,33 L 25,32.997 Z M 36,30.498 L 36.235,30.742 L 37.953,32.516 C 38.07,32.653 38.343,32.984 38.418,33 H 41 C 40.968,32.92 39.685,31.528 39.513,31.332 C 39.263,31.048 39.006,30.779 38.758,30.497 C 38.616,30.337 38.071,29.79 38.009,29.652 C 38.105,29.59 41,27 41,27 H 38.42 C 38.268,27 38.174,27.11 37.915,27.385 C 37.794,27.515 36.099,28.936 36.005,29 C 35.983,28.989 35.996,23.518 35.996,23 H 34.002 L 34,33 L 36,32.984 V 30.498 C 36,30.493 35.997,30.496 36,30.498 Z" fill="rgb(254, 254, 253)"/>
<path d="M 42.99,29.985 C 43,28.582 44.922,28.62 45,29.942 C 45.078,31.264 43,31.418 43,30 Z M 43.796,27.008 C 39.831,27.258 40.186,33.252 44.209,32.992 C 48.167,32.736 47.812,26.755 43.796,27.008 Z M 50,28 V 27 H 48 V 33 H 50 V 29.76 C 50,28.88 51.122,28.574 52,29 V 27 C 51.386,26.896 50.651,27.131 50.23,27.594 C 50.155,27.675 50.002,28 50,28 Z" fill="rgb(254, 254, 253)"/>
</svg>
