<?xml version="1.0" encoding="UTF-8"?>
<!-- generated by Finnhub -->
<svg viewBox="0 0 55.5 55.5" xmlns="http://www.w3.org/2000/svg">
<rect width="56" height="56" fill="rgb(176, 68, 61)"/>
<path d="M 31.99,25.985 V 19 H 33.6667 L 34.5901,23.1954 L 35.1982,19 H 37 V 26 H 35.8063 V 21.5537 L 34.9054,26 H 34.0495 L 33.2162,21.5537 V 26 H 32 Z M 8.868,26.0001 L 10.2847,19.0001 H 11.9802 L 13.5974,26.0001 H 11.9802 L 11.8064,24.9973 H 10.3935 L 10.1804,26.0001 H 8.868 Z M 10.7117,23.5001 H 11.5468 L 11.1716,21.3359 L 10.7117,23.5001 Z M 14.0004,21.0001 H 15.2888 V 21.3453 C 15.5123,21.1629 15.8314,21.0001 16.2309,21.0001 C 16.6849,21.0001 17.0542,21.2973 17.3001,21.7773 L 17.3277,21.7103 C 17.4661,21.4736 17.9134,21.0001 18.5949,21.0001 C 19.4467,21.0001 20.0004,22.0468 20.0004,23.3832 V 26.0001 H 18.7439 V 22.8879 C 18.7368,22.7041 18.6161,22.3365 18.1902,22.3365 C 17.8508,22.3365 17.6737,22.5937 17.5996,22.8006 C 17.6239,22.9865 17.6365,23.1816 17.6365,23.3832 V 26.0001 H 16.38 V 22.8879 C 16.3729,22.7041 16.2522,22.3365 15.8263,22.3365 C 15.5507,22.3365 15.3822,22.506 15.2888,22.6805 V 26.0001 H 14.0004 V 21.0001 Z M 24.0684,23.9808 H 21.5312 C 21.5312,24.5684 21.7417,24.8462 22.2795,24.8462 C 22.7098,24.8462 22.8018,24.4901 22.794,24.312 H 24.0684 C 24.0295,24.8747 23.5984,26.0001 22.186,26.0001 C 20.6145,26.0001 20.2528,24.4189 20.2684,23.6283 C 20.2684,21.5514 21.4377,21.0107 22.0223,21.0001 C 23.7434,21.0001 24.1035,22.9872 24.0684,23.9808 Z M 21.5312,22.7041 C 21.5312,22.4002 21.8008,22.1539 22.1333,22.1539 C 22.4659,22.1539 22.7355,22.4002 22.7355,22.7041 V 23.1368 H 21.5312 V 22.7041 Z M 38.9632,23.9808 H 41.5005 C 41.5355,22.9872 41.1754,21.0001 39.4543,21.0001 C 38.8697,21.0107 37.7004,21.5514 37.7004,23.6283 C 37.6848,24.4189 38.0465,26.0001 39.618,26.0001 C 41.0304,26.0001 41.4615,24.8747 41.5005,24.312 H 40.226 C 40.2338,24.4901 40.1418,24.8462 39.7115,24.8462 C 39.1737,24.8462 38.9632,24.5684 38.9632,23.9808 Z M 39.5653,22.1539 C 39.2328,22.1539 38.9632,22.4002 38.9632,22.7041 V 23.1368 H 40.1675 V 22.7041 C 40.1675,22.4002 39.8979,22.1539 39.5653,22.1539 Z M 24.7093,21.0001 H 26.0007 V 21.6118 C 26.2083,21.2849 26.5281,21.0001 27.0007,21.0001 V 22.6774 C 26.8006,22.6447 26.38,22.7148 26.0007,23.1415 V 26.0001 H 24.7093 V 21.0001 Z M 28.7928,22.6637 H 27.5124 C 27.5226,22.1091 27.8742,21.0001 29.1992,21.0001 C 30.8555,21.0001 31.0007,22.5637 31.0007,23.0819 V 26.0001 H 29.8094 V 25.4907 C 29.514,25.8061 29.0695,26.0001 28.5589,26.0001 C 27.8374,26.0001 27.4716,25.4475 27.4716,24.7674 S 27.6647,23.5542 28.2845,23.3521 C 28.4125,23.3103 28.546,23.2707 28.6844,23.2296 C 29.0324,23.1263 29.4111,23.0139 29.8094,22.8359 V 22.6637 C 29.806,22.4637 29.7723,22.0637 29.3008,22.0637 S 28.7657,22.4637 28.7928,22.6637 Z M 29.8094,23.8228 C 29.6074,23.8113 29.3745,23.8409 29.1279,23.9494 C 28.6007,24.1815 28.4471,24.9512 29.1279,24.9512 C 29.4519,24.9512 29.672,24.7475 29.8094,24.5218 V 23.8228 Z M 46.0004,21.0001 H 44.632 L 44.0004,22.2 L 43.3688,21.0001 H 42.0004 C 42.3399,21.71 42.82,22.6907 43.2659,23.5957 L 42.0004,26.0001 H 43.5443 S 43.7268,25.6336 44.0004,25.0817 C 44.274,25.6336 44.4566,26.0001 44.4566,26.0001 H 46.0004 L 44.735,23.5957 C 45.1808,22.6907 45.661,21.71 46.0004,21.0001 Z M 7.3004,28 H 6.0004 V 35 H 7.3004 V 28 Z M 10.076,30 C 9.7042,30 9.40731,30.1612 9.19935,30.3417 V 30.0161 H 8.00035 V 35.0002 H 9.19935 V 31.6632 C 9.28622,31.4905 9.4431,31.3228 9.69949,31.3228 C 10.0958,31.3228 10.2081,31.6866 10.2148,31.8686 V 34.9489 H 11.384 V 32.3588 C 11.384,31.0361 10.8687,30 10.076,30 Z M 23,30 H 24.3 V 30.2611 C 24.499,30.1159 24.7604,30 25.0757,30 C 25.8684,30 26.3836,31.036 26.3836,32.3586 V 34.9485 H 25.2144 V 31.8684 C 25.2078,31.6865 25.0955,31.3227 24.6991,31.3227 C 24.5217,31.3227 24.3919,31.403 24.3,31.5098 V 35 H 23 V 30 Z M 41.24,30.3416 C 41.4551,30.1611 41.7623,30 42.1469,30 C 42.967,30 43.5,31.036 43.5,32.3586 V 34.9485 H 42.2904 V 31.8684 C 42.2836,31.6865 42.1674,31.3227 41.7574,31.3227 C 41.4922,31.3227 41.3299,31.4904 41.24,31.6631 V 35 H 39.9997 V 30.0162 H 41.24 V 30.3416 Z M 19.291,32.9808 H 16.7537 C 16.7537,33.5684 16.9642,33.8462 17.502,33.8462 C 17.9323,33.8462 18.0243,33.4901 18.0165,33.312 H 19.291 C 19.252,33.8747 18.8209,35 17.4085,35 C 15.837,35 15.4753,33.4188 15.4909,32.6282 C 15.4909,30.5513 16.6602,30.0107 17.2448,30 C 18.9659,30 19.326,31.9872 19.291,32.9808 Z M 16.7537,31.7041 C 16.7537,31.4002 17.0233,31.1539 17.3559,31.1539 C 17.6884,31.1539 17.958,31.4002 17.958,31.7041 V 32.1368 H 16.7537 V 31.7041 Z M 21.3097,30 H 20.0001 V 35 H 21.3097 V 32.2255 C 21.7043,31.7239 22.1611,31.6426 22.3737,31.6774 V 30 C 21.846,30 21.511,30.3551 21.3097,30.7274 V 30 Z M 26.7797,31.6637 H 28.06 C 28.0329,31.4637 28.0966,31.0637 28.5681,31.0637 S 29.1642,31.4637 29.1676,31.6637 V 31.7938 C 28.7359,31.9941 28.326,32.1145 27.9516,32.2244 C 27.8132,32.265 27.6797,32.3042 27.5518,32.3455 C 26.9319,32.5455 26.7389,33.0728 26.7389,33.7455 S 27.1047,34.9455 27.8261,34.9455 C 28.3923,34.9455 28.8771,34.7216 29.1676,34.3528 V 35.0001 H 30.3158 V 32.0819 C 30.3158,31.5637 30.1228,30 28.4665,30 C 27.1414,30 26.7898,31.1091 26.7797,31.6637 Z M 28.3952,32.9364 C 28.6796,32.8125 28.9459,32.7927 29.1676,32.8192 V 33.3265 C 29.0471,33.6069 28.8036,33.9273 28.3952,33.9273 C 27.7143,33.9273 27.8679,33.166 28.3952,32.9364 Z M 45.6672,31.6637 H 44.3428 C 44.3533,31.1091 44.717,30 46.0877,30 C 47.801,30 48.0008,31.5637 48.0008,32.0819 V 35.0001 H 46.813 V 34.3527 C 46.5124,34.7215 46.0109,34.9455 45.4252,34.9455 C 44.6789,34.9455 44.3005,34.4182 44.3005,33.7455 S 44.5002,32.5455 45.1414,32.3455 C 45.2738,32.3042 45.4119,32.265 45.555,32.2244 C 45.9423,32.1145 46.3664,31.9941 46.813,31.7937 V 31.6637 C 46.8095,31.4637 46.6805,31.0637 46.1928,31.0637 S 45.6392,31.4637 45.6672,31.6637 Z M 46.813,32.8192 C 46.5836,32.7927 46.3081,32.8125 46.0139,32.9364 C 45.4685,33.166 45.3096,33.9273 46.0139,33.9273 C 46.4364,33.9273 46.6883,33.6068 46.813,33.3264 V 32.8192 Z M 48.7005,28 H 50.0005 V 35 H 48.7005 V 28 Z M 12.6615,33.9727 V 31 H 12.0008 V 30 H 12.6615 V 28 H 14.0008 V 30 H 15.0008 V 31 H 14.0008 V 32.7123 V 32.7479 C 14.0006,33.4126 14.0004,33.8811 14.6366,33.6431 V 34.9946 C 13.1498,35.0712 12.713,34.3134 12.6615,33.9727 Z M 30.9915,31 V 34.1195 C 30.9915,34.928 31.1186,34.9954 32.9806,34.9954 V 33.837 C 32.3332,34.0446 32.3332,33.6249 32.3332,33.0392 V 31 H 33.0013 V 30 H 32.3332 V 29 H 30.9915 V 30 H 30.5013 V 31 H 30.9915 Z M 34.0013,28 H 35.3013 V 29 H 34.0013 V 28 Z M 34.0013,30 H 35.3013 V 35 H 34.0013 V 30 Z M 37.7798,35 C 38.8894,35 39.7889,33.8808 39.7889,32.5 C 39.7889,31.1193 38.8894,30 37.7798,30 C 36.6703,30 35.7708,31.1193 35.7708,32.5 C 35.7708,33.8808 36.6703,35 37.7798,35 Z M 37.7798,33.8553 C 38.2721,33.8553 38.6712,33.2485 38.6712,32.5001 C 38.6712,31.7516 38.2721,31.1448 37.7798,31.1448 C 37.2876,31.1448 36.8885,31.7516 36.8885,32.5001 C 36.8885,33.2485 37.2876,33.8553 37.7798,33.8553 Z" clip-rule="evenodd" fill="rgb(254, 254, 253)" fill-rule="evenodd"/>
</svg>
