<?xml version="1.0" encoding="UTF-8"?>
<!-- generated by Finnhub -->
<svg viewBox="0 0 55.5 55.5" xmlns="http://www.w3.org/2000/svg">
<path d="M 0,0 H 55.5 V 55.5 H 0 Z" fill="rgb(239, 242, 248)"/>
<path d="M 14.34,25.985 L 15.7,29.57 C 15.77,29.73 15.87,29.85 16,30 H 14.06 C 14.13,29.92 14.16,29.87 14.16,29.77 C 14.16,29.64 14.12,29.5 14.06,29.34 A 3.4,3.4 0 0,0 13.96,29.14 L 13.88,29 H 12.31 L 12.07,29.5 A 1.3,1.3 0 0,0 12.02,29.64 A 0.4,0.4 0 0,0 12,29.76 C 12,29.8 12,29.85 12.02,29.9 C 12.02,29.93 12.03,29.94 12.05,29.96 L 12.07,30 H 11 L 11.07,29.92 C 11.12,29.85 11.18,29.79 11.24,29.69 C 11.32,29.56 11.39,29.43 11.45,29.29 L 12.81,26.27 C 12.77,26.17 12.71,26.07 12.65,26 H 14.35 Z M 13.13,27.07 L 12.6,28.3 H 13.62 L 13.13,27.07 Z M 18.14,27.07 A 0.34,0.34 0 0,0 17.99,27.27 V 27 H 16.38 A 0.7,0.7 0 0,1 16.47,27.25 L 16.5,27.65 V 30 H 18 V 27.94 C 18,27.79 18.06,27.6 18.37,27.6 H 18.64 C 18.86,27.6 19,27.7 19,27.94 V 30 H 20.5 V 27.94 C 20.5,27.74 20.57,27.6 20.88,27.6 H 21.09 C 21.35,27.6 21.5,27.66 21.5,27.94 V 30 H 23 V 28.12 C 23,27.75 22.93,27.47 22.8,27.29 C 22.66,27.12 22.41,27 22.06,27 H 20.88 A 0.54,0.54 0 0,0 20.61,27.08 C 20.55,27.11 20.51,27.18 20.47,27.28 A 0.34,0.34 0 0,0 20.32,27.08 A 0.86,0.86 0 0,0 19.92,27 H 18.42 A 0.5,0.5 0 0,0 18.14,27.08 Z M 23.5,27.62 V 31 H 25 V 29.74 C 25.1,29.92 25.29,30 25.52,30 H 26.7 C 26.95,30 27.14,29.94 27.27,29.79 A 1,1 0 0,0 27.5,29.14 V 27.86 C 27.5,27.56 27.4,27.34 27.23,27.2 C 27.07,27.06 26.84,27 26.55,27 H 25.52 C 25.37,27 25.25,27.01 25.15,27.04 C 25.05,27.08 24.98,27.14 24.91,27.24 L 24.85,27 H 23.37 L 23.43,27.13 L 23.46,27.24 A 4.9,4.9 0 0,0 23.49,27.51 L 23.5,27.61 Z M 26,29.09 C 26,29.23 25.94,29.4 25.63,29.4 H 25.33 C 25.13,29.4 24.99,29.25 24.99,29.09 V 27.89 C 24.99,27.67 25.13,27.56 25.33,27.56 H 25.63 C 25.9,27.56 25.99,27.74 25.99,27.91 V 29.09 Z M 29.5,30 H 28 V 26.33 L 27.99,26.28 A 0.54,0.54 0 0,0 27.95,26.14 A 0.92,0.92 0 0,0 27.89,26 H 29.5 V 30 Z M 30,30 H 31.5 V 27.2 H 29.9 C 29.96,27.3 29.97,27.34 30,27.47 V 30 Z M 30,26.8 H 31.5 V 26 H 30 V 26.8 Z" fill="rgb(238, 15, 32)"/>
<path d="M 32.99,26.814999999999998 V 30 H 34.5 V 26.83 H 35.2 L 35.5,26.85 C 35.57,26.87 35.65,26.95 35.73,27 L 35.61,26 H 31.87 L 31.75,27 C 31.83,26.95 31.91,26.87 31.99,26.85 L 32.29,26.83 H 33 Z M 37,29.08 V 29 H 39.5 V 28.07 C 39.5,27.67 39.4,27.39 39.23,27.23 C 39.06,27.08 38.78,27 38.4,27 H 36.54 C 36.18,27 35.92,27.08 35.75,27.25 C 35.59,27.42 35.5,27.7 35.5,28.09 V 28.95 C 35.5,29.33 35.6,29.61 35.78,29.77 C 35.95,29.92 36.24,30 36.63,30 H 39.32 L 39.42,29.25 C 39.33,29.31 39.24,29.35 39.13,29.37 C 39.03,29.39 38.91,29.39 38.78,29.39 H 37.44 C 37.26,29.39 37.14,29.37 37.08,29.32 C 37.01,29.26 36.99,29.26 36.99,29.08 Z M 38,27.91 V 28.26 H 37 V 27.92 C 37,27.81 37,27.73 37.03,27.68 C 37.06,27.63 37.11,27.61 37.2,27.61 H 37.78 C 37.86,27.61 37.92,27.63 37.96,27.67 C 37.99,27.7 37.99,27.78 37.99,27.91 Z M 43.5,27.77 A 0.87,0.87 0 0,0 43.21,27.64 C 43.11,27.62 43.01,27.61 42.87,27.61 H 41.95 C 41.8,27.61 41.69,27.63 41.63,27.68 C 41.56,27.73 41.5,27.83 41.5,27.98 V 29.06 C 41.5,29.2 41.56,29.29 41.64,29.33 C 41.71,29.37 41.82,29.39 41.97,29.39 H 42.84 C 42.97,29.39 43.08,29.39 43.18,29.36 C 43.28,29.33 43.39,29.28 43.5,29.21 L 43.37,30 H 41.09 L 40.89,29.99 L 40.66,29.96 A 0.8,0.8 0 0,1 40.18,29.66 C 40.06,29.49 40,29.15 40,28.94 V 27.87 C 40,27.57 40.1,27.35 40.3,27.21 C 40.5,27.07 40.75,27 41.05,27 H 43.37 L 43.5,27.77 Z M 45.64,27.04 A 0.3,0.3 0 0,0 45.49,27.17 V 26 H 43.89 L 43.92,26.03 C 43.95,26.09 44,26.16 44,26.26 V 30 H 45.5 V 27.89 C 45.5,27.67 45.59,27.56 45.79,27.56 H 46.19 C 46.48,27.56 46.5,27.72 46.5,27.92 V 30 H 48 V 27.9 C 48,27.59 47.9,27.36 47.72,27.22 A 1.1,1.1 0 0,0 47,27 H 45.85 A 0.57,0.57 0 0,0 45.64,27.04 Z" fill="rgb(18, 34, 237)"/>
<path d="M 49.46,28.805 H 10.6 V 28.26 H 49.48 V 28.82 Z" fill="rgb(239, 242, 248)"/>
<path d="M 6.99,28.985 L 8,28.5 L 7,28 V 29 Z" fill="rgb(238, 15, 32)"/>
<path d="M 8.9,28.465 C 8.93,28.23 8.84,27 9.27,27 C 9.49,27 9.56,27.32 9.6,27.48 C 9.76,28.14 9.72,28.84 9.86,29.49 C 9.89,29.63 9.93,29.74 9.97,29.81 C 10.01,29.89 10.06,29.91 10.1,29.91 C 10.13,29.91 10.17,29.89 10.2,29.81 C 10.24,29.74 10.27,29.63 10.29,29.51 C 10.32,29.26 10.34,28.47 10.34,28.47 H 10.43 S 10.41,29.27 10.37,29.52 C 10.35,29.64 10.33,29.76 10.29,29.85 C 10.25,29.93 10.19,30 10.09,30 C 10.01,30 9.94,29.94 9.89,29.85 C 9.85,29.77 9.81,29.65 9.78,29.51 C 9.63,28.85 9.68,28.16 9.51,27.51 C 9.45,27.23 9.37,27.09 9.27,27.09 C 8.94,27.09 9.01,28.29 9,28.49 H 8.91 Z M 4.96,28.47 H 4.87 C 4.88,28.25 4.91,27.93 5.01,27.73 C 5.04,27.67 5.08,27.62 5.14,27.62 S 5.24,27.65 5.28,27.69 C 5.31,27.73 5.34,27.79 5.35,27.85 A 2.83,2.83 0 0,1 5.43,28.37 L 5.48,28.75 C 5.49,28.82 5.51,28.86 5.53,28.89 C 5.54,28.92 5.56,28.93 5.57,28.93 C 5.57,28.93 5.59,28.93 5.6,28.89 A 0.43,0.43 0 0,0 5.64,28.77 C 5.66,28.67 5.66,28.58 5.66,28.47 H 5.74 C 5.74,28.57 5.74,28.67 5.72,28.79 A 0.5,0.5 0 0,1 5.68,28.93 C 5.66,28.97 5.62,29.01 5.57,29.01 C 5.51,29.01 5.47,28.97 5.45,28.93 A 0.56,0.56 0 0,1 5.4,28.77 C 5.37,28.67 5.36,28.52 5.34,28.37 V 28.32 A 2.76,2.76 0 0,0 5.27,27.87 C 5.24,27.76 5.21,27.69 5.14,27.7 C 5.14,27.7 5.11,27.71 5.09,27.76 C 5.02,27.9 4.97,28.28 4.96,28.47 Z M 7.48,25.1 L 9.78,31 L 9.54,31.1 L 7.49,25.83 L 5.46,31.1 L 5.21,31 L 7.48,25.1 Z" fill="rgb(24, 34, 188)"/>
<path d="M 10.92,28.445 H 4.07 V 28.54 H 10.93 V 28.46 Z M 49,30 L 52,28.5 L 49,27 V 30 Z" fill="rgb(238, 15, 32)"/>
<path d="M 7.49,31.724999999999998 A 3.24,3.24 0 1,0 7.5,25.26 A 3.24,3.24 0 0,0 7.5,31.74 Z M 7.5,32 A 3.5,3.5 0 1,0 7.5,25 A 3.5,3.5 0 0,0 7.5,32 Z" fill="rgb(24, 34, 188)" fill-rule="evenodd"/>
</svg>
