<?xml version="1.0" encoding="UTF-8"?>
<!-- generated by Finnhub -->
<svg viewBox="0 0 55.5 55.5" xmlns="http://www.w3.org/2000/svg">
<path d="M 0,0 H 55.5 V 55.5 H 0 Z" fill="rgb(239, 242, 248)"/>
<path d="M 43.57,19.435 L 44.23,20.31 C 44.3,20.36 44.51,20.45 44.79,20.42 C 45.14,20.39 45.64,20.29 46.49,19.79 C 47.17,19.39 47.59,18.92 47.71,18.73 V 18 H 46.96 C 46.77,18.23 46.26,18.75 45.72,19 C 45.04,19.33 44.37,19.64 43.58,19.45 Z M 41,18.4 V 19.54 C 42.04,18.88 42.82,19.04 43.08,19.2 C 42.84,18.7 42.43,18.29 42.01,18.26 C 41.68,18.24 41.2,18.35 41,18.4 Z M 41,22 V 20.85 C 41.5,20.36 42.47,19.89 43.13,19.89 C 43.78,19.89 44.19,20.59 44.32,20.94 C 44.12,20.8 43.55,20.58 42.88,20.79 C 42.22,21.01 41.35,21.69 41,21.99 Z M 41,25 V 23.5 L 41.23,23.27 C 41.92,22.57 42.98,21.47 44.11,21.57 C 44.11,21.57 44.71,21.54 45.34,22.52 C 45.02,22.34 44.14,22.22 43.14,22.87 A 8.27,8.27 0 0,0 41,25 Z M 45.36,22.04 L 44.71,21.17 C 45.49,21.37 46.17,21.06 46.85,20.73 A 4.22,4.22 0 0,0 48.09,19.73 H 48.84 V 20.46 C 48.72,20.64 48.3,21.12 47.62,21.52 C 46.76,22.02 46.27,22.12 45.92,22.15 A 0.88,0.88 0 0,1 45.36,22.04 Z M 45.86,22.87 L 46.52,23.74 C 46.59,23.79 46.8,23.88 47.08,23.84 C 47.43,23.81 47.93,23.71 48.78,23.21 C 49.46,22.81 49.88,22.34 50,22.16 V 21.43 H 49.25 C 49.06,21.65 48.55,22.18 48.01,22.43 C 47.33,22.76 46.66,23.07 45.87,22.87 Z" fill="rgb(44, 172, 108)"/>
<path d="M 30.99,25.985 V 25.07 C 31,23.91 31.97,22.97 33.16,22.97 H 33.4 C 33.6,22.98 34.1,23.03 34.5,23.2 L 34.36,24.64 A 2.97,2.97 0 0,0 33.55,24.48 C 33.19,24.48 32.76,24.8 32.76,25.93 V 26 H 34 V 27.5 H 32.76 V 30.98 H 31 V 27.5 H 30 V 26 H 31 Z M 27,23 H 26 V 31 H 27 V 23 Z M 22.62,30.98 A 2.3,2.3 0 0,1 21,30.31 V 33 H 20.25 V 26 H 21 V 26.67 C 21.42,26.26 22,26 22.63,26 A 2.43,2.43 0 0,1 25,28.5 C 25,29.87 23.94,30.98 22.62,30.98 Z M 22.62,30.31 C 21.72,30.31 21,29.53 21,28.55 C 21,27.58 21.72,26.8 22.62,26.8 C 23.51,26.8 24.23,27.58 24.23,28.55 C 24.23,29.53 23.51,30.31 22.62,30.31 Z M 8.5,31 C 9.32,31 10.04,30.6 10.5,30 V 31 H 11 V 26 H 10.5 V 27 A 2.5,2.5 0 1,0 8.5,31 Z M 8.5,30.5 A 2,2 0 1,0 8.5,26.5 A 2,2 0 0,0 8.5,30.5 Z M 12.5,26 H 12 V 31 H 12.5 V 27.97 C 12.6,27.14 13.13,26.49 13.96,26.49 C 14.74,26.49 15.11,27.16 15.23,27.58 V 31 H 15.75 V 27.73 C 16.06,26.91 16.55,26.49 17.28,26.49 C 18.09,26.49 18.4,27.23 18.48,27.66 V 31 H 19 V 27.62 C 18.96,27.01 18.58,26 17.28,26 C 16.77,26 15.79,26.35 15.61,27.05 C 15.49,26.69 15.08,26 13.96,26 C 13.22,26 12.76,26.5 12.5,27 V 26 Z M 28,31 V 26 H 29.5 V 31 H 28 Z M 28.75,24.5 A 0.75,0.75 0 1,0 28.75,23 A 0.75,0.75 0 0,0 28.75,24.5 Z M 34.5,26 L 36.5,30.47 L 35.2,33 H 37.33 L 40.5,26 H 38.29 L 37.59,28.33 L 36.74,26 H 34.5 Z M 8.34,33.13 V 33 C 8.34,32.45 7.92,32 7.39,32 A 0.98,0.98 0 0,0 6.43,33 C 6.43,33.55 6.93,34 7.46,34 C 7.8,34 8.24,33.96 8.31,33.6 L 7.96,33.55 C 7.91,33.73 7.69,33.73 7.52,33.73 H 7.46 C 7.13,33.73 6.79,33.49 6.74,33.13 H 8.34 Z M 7.39,32.23 C 7.71,32.23 7.98,32.5 8.04,32.85 H 6.74 C 6.8,32.5 7.07,32.23 7.39,32.23 Z M 12.83,33 V 33.13 H 11.23 C 11.27,33.49 11.62,33.73 11.95,33.73 H 12 C 12.18,33.73 12.4,33.73 12.45,33.55 L 12.8,33.6 C 12.73,33.96 12.28,34 11.95,34 C 11.42,34 10.92,33.55 10.92,33 S 11.35,32 11.87,32 C 12.4,32 12.83,32.45 12.83,33 Z M 12.53,32.85 C 12.46,32.5 12.2,32.23 11.87,32.23 C 11.55,32.23 11.28,32.5 11.22,32.85 H 12.52 Z M 9.1,32.74 C 9.18,32.54 9.36,32.27 9.7,32.27 C 10.1,32.27 10.21,32.6 10.22,32.76 V 33.96 H 10.47 V 32.58 C 10.46,32.39 10.29,32 9.69,32 H 9.67 A 0.77,0.77 0 0,0 9.1,32.36 V 32.02 H 8.78 V 34 H 9.1 V 32.74 Z M 14.24,32 C 14.32,32 14.39,32 14.45,32.02 V 32.31 A 0.6,0.6 0 0,0 14.25,32.27 C 13.91,32.27 13.73,32.53 13.65,32.74 V 34 H 13.33 V 32.02 H 13.65 V 32.36 A 0.77,0.77 0 0,1 14.22,32 H 14.24 Z M 15.62,34.06 C 15.92,34.06 16.18,33.93 16.36,33.72 V 34.25 C 16.36,34.43 16.2,34.8 15.6,34.8 C 15.45,34.8 15.12,34.75 14.98,34.62 L 14.88,34.86 C 15,34.91 15.28,35 15.61,35 C 16.02,35 16.62,34.74 16.62,34.22 V 32 H 16.36 V 32.33 A 0.99,0.99 0 0,0 15.62,32 C 15.07,32 14.62,32.46 14.62,33.03 C 14.62,33.6 15.07,34.06 15.62,34.06 Z M 15.66,33.81 C 16.05,33.81 16.36,33.46 16.36,33.03 C 16.36,32.6 16.05,32.25 15.66,32.25 C 15.26,32.25 14.95,32.6 14.95,33.03 C 14.95,33.46 15.26,33.81 15.65,33.81 Z M 17.14,32 H 17.46 L 18.16,33.49 L 18.83,32 H 19.16 L 17.8,35 H 17.46 L 17.96,33.83 L 17.14,32 Z" fill="rgb(38, 59, 76)" fill-rule="evenodd"/>
</svg>
