<?xml version="1.0" encoding="UTF-8"?>
<!-- generated by Finnhub -->
<svg viewBox="0 0 55.5 55.5" xmlns="http://www.w3.org/2000/svg">
<path d="M 0,0 H 55.5 V 55.5 H 0 Z" fill="rgb(239, 242, 248)"/>
<path d="M 16.799999999999997,36.985 H 9 L 17,20 L 20.5,29 L 16.81,37 Z" fill="rgb(69, 57, 113)"/>
<path d="M 25.99,36.985 L 18,17 H 27 L 35,37 H 26 Z" fill="url(#h)"/>
<path d="M 29.799999999999997,18.985 L 29,17 H 37.98 L 38.82,19 H 29.82 Z" fill="url(#g)"/>
<path d="M 33.370000000000005,27.985 L 32.56,26 H 41.54 L 42.38,28 H 33.38 Z" fill="url(#f)"/>
<path d="M 36.89,36.985 L 36,35 H 45.06 L 46,37 H 36.9 Z" fill="url(#e)"/>
<path d="M 34.45,30.985 L 33.63,29 H 42.78 L 43.63,31 H 34.46 Z" fill="url(#d)"/>
<path d="M 35.6,33.985 L 34.78,32 H 43.95 L 44.81,34 H 35.61 Z" fill="url(#c)"/>
<path d="M 30.99,21.985 L 30.18,20 H 39.16 L 40,22 H 31 Z" fill="url(#b)"/>
<path d="M 32.120000000000005,24.985 L 31.32,23 H 40.3 L 41.14,25 H 32.14 Z" fill="url(#a)"/>
<defs>
<linearGradient id="h" x1="24.81" x2="32.69" y1="30.56" y2="28.69" gradientUnits="userSpaceOnUse">
<stop stop-color="rgb(71, 60, 114)" offset="0"/>
<stop stop-color="rgb(111, 105, 153)" offset=".85"/>
</linearGradient>
<linearGradient id="g" x1="31.5" x2="40.63" y1="19" y2="19" gradientUnits="userSpaceOnUse">
<stop stop-color="rgb(124, 117, 166)" offset="0"/>
<stop stop-color="rgb(205, 195, 222)" offset=".53"/>
<stop stop-color="rgb(215, 204, 232)" offset=".97"/>
</linearGradient>
<linearGradient id="f" x1="35.06" x2="44.19" y1="28" y2="28" gradientUnits="userSpaceOnUse">
<stop stop-color="rgb(124, 117, 166)" offset="0"/>
<stop stop-color="rgb(205, 195, 222)" offset=".53"/>
<stop stop-color="rgb(215, 204, 232)" offset=".97"/>
</linearGradient>
<linearGradient id="e" x1="38.69" x2="47.81" y1="37" y2="37" gradientUnits="userSpaceOnUse">
<stop stop-color="rgb(124, 117, 166)" offset="0"/>
<stop stop-color="rgb(205, 195, 222)" offset=".53"/>
<stop stop-color="rgb(215, 204, 232)" offset=".97"/>
</linearGradient>
<linearGradient id="d" x1="36.18" x2="45.47" y1="31" y2="31" gradientUnits="userSpaceOnUse">
<stop stop-color="rgb(124, 117, 166)" offset="0"/>
<stop stop-color="rgb(205, 195, 222)" offset=".53"/>
<stop stop-color="rgb(215, 204, 232)" offset=".97"/>
</linearGradient>
<linearGradient id="c" x1="37.33" x2="46.66" y1="34" y2="34" gradientUnits="userSpaceOnUse">
<stop stop-color="rgb(124, 117, 166)" offset="0"/>
<stop stop-color="rgb(205, 195, 222)" offset=".53"/>
<stop stop-color="rgb(215, 204, 232)" offset=".97"/>
</linearGradient>
<linearGradient id="b" x1="32.68" x2="41.8" y1="22" y2="22" gradientUnits="userSpaceOnUse">
<stop stop-color="rgb(124, 117, 166)" offset="0"/>
<stop stop-color="rgb(205, 195, 222)" offset=".53"/>
<stop stop-color="rgb(215, 204, 232)" offset=".97"/>
</linearGradient>
<linearGradient id="a" x1="33.82" x2="42.95" y1="25" y2="25" gradientUnits="userSpaceOnUse">
<stop stop-color="rgb(124, 117, 166)" offset="0"/>
<stop stop-color="rgb(205, 195, 222)" offset=".53"/>
<stop stop-color="rgb(215, 204, 232)" offset=".97"/>
</linearGradient>
</defs>
</svg>
