<?xml version="1.0" encoding="UTF-8"?>
<!-- generated by Finnhub -->
<svg viewBox="0 0 55.5 55.5" xmlns="http://www.w3.org/2000/svg">
<path d="M 0,0 H 55.5 V 55.5 H 0 Z" fill="rgb(35, 61, 108)"/>
<path d="M 44.696000000000005,31.708 C 44.664,31.989 44.515,32.278 44.25,32.389 C 43.827,32.433 43.234,32.555 42.874,32.278 L 42.8,31.878 L 42.824,26.611 C 43.12,26.122 43.882,26.322 44.38,26.345 C 44.507,26.389 44.667,26.489 44.709,26.645 L 44.706,31.723 Z M 37.316,28.333 C 37.157,28.856 36.628,29.123 36.14,29.188 H 35.23 V 26.332 C 35.908,26.332 36.606,26.344 37.062,26.867 C 37.368,27.233 37.464,27.855 37.316,28.333 Z M 26.666,30.623 L 28.011,27.878 L 29.407,30.622 H 26.665 Z M 49.508,25.938 C 49.328,26.461 49.935,26.183 50.116,26.338 C 50.38,26.415 50.571,26.682 50.624,26.96 L 50.602,30.523 H 50.572 L 46.54,25.944 H 40.187 C 40.198,26.055 40.166,26.178 40.209,26.266 C 40.505,26.333 40.951,26.199 41.046,26.589 L 41.043,32.166 C 40.99,32.267 40.969,32.389 40.843,32.411 C 40.428,32.488 39.9,32.544 39.624,32.121 C 39.021,31.266 38.523,30.323 37.824,29.556 C 37.698,29.489 37.539,29.455 37.444,29.399 C 38.047,29.312 38.682,29.111 39.01,28.489 C 39.19,28.033 39.137,27.344 38.819,26.966 C 37.316,25.321 34.68,26.232 32.563,25.977 C 32.573,26.088 32.541,26.211 32.594,26.299 C 32.87,26.378 33.272,26.222 33.431,26.566 L 33.473,32.121 L 33.378,32.333 C 33.198,32.499 32.956,32.455 32.711,32.466 C 32.437,32.466 32.214,32.276 32.055,32.033 L 29.08,26.466 C 28.943,26.288 28.91,26 28.678,25.932 C 28.35,26.411 27.958,26.666 27.556,27.022 C 27.692,27.078 27.714,27.222 27.757,27.344 L 25.83,31.366 C 25.608,31.811 25.27,32.388 24.74,32.432 C 24.634,32.377 24.485,32.311 24.454,32.166 L 24.451,26.582 C 24.588,26.192 25.011,26.327 25.319,26.26 V 25.938 H 22.672 L 20.622,30.545 A 220.03,220.03 0 0,1 18.564,25.938 H 15.811 V 26.26 C 16.151,26.315 16.637,26.215 16.731,26.66 C 16.731,28.415 16.851,30.378 16.629,32.066 C 16.534,32.267 16.333,32.422 16.121,32.433 C 15.699,32.4 15.296,32.245 15.031,31.855 L 10.606,23.023 L 10.51,23 C 10.119,23.478 9.611,23.922 9.113,24.333 L 9.367,24.789 L 8.039,27.667 L 4,27.69 V 27.93 L 7.896,27.935 C 7.843,28.101 7.79,28.279 7.684,28.412 H 4 V 28.7 L 7.536,28.734 A 1.55,1.55 0 0,1 7.335,29.19 L 4,29.21 V 29.454 L 7.17,29.477 C 7.149,29.654 7.038,29.81 6.975,29.955 H 4 V 30.222 L 6.828,30.255 C 6.798,30.422 6.689,30.576 6.625,30.733 H 4 V 31.022 H 6.468 C 6.258,31.488 5.926,32.077 5.429,32.277 C 5.228,32.487 4.561,32.255 4.815,32.81 H 7.965 V 32.462 C 7.573,32.428 7.123,32.477 6.847,32.121 C 6.689,31.722 6.943,31.365 7.08,31.021 H 9.59 V 30.733 H 7.198 L 7.428,30.255 L 9.821,30.222 V 29.955 H 7.536 L 7.769,29.477 L 10.023,29.454 V 29.188 H 7.896 L 8.118,28.698 H 10.254 V 28.41 H 8.242 C 8.316,28.255 8.372,28.066 8.478,27.933 L 10.436,27.899 V 27.666 H 8.593 C 8.922,26.922 9.261,26.144 9.589,25.398 C 9.611,25.411 9.621,25.433 9.642,25.421 L 12.088,30.278 C 12.289,30.877 12.808,31.377 12.798,32.033 C 12.575,32.533 12.025,32.399 11.601,32.487 V 32.788 H 18.281 C 18.27,32.678 18.302,32.554 18.261,32.466 A 2.43,2.43 0 0,1 17.678,32.41 C 17.466,32.343 17.307,32.11 17.243,31.899 L 17.261,26.959 L 17.314,27.003 L 19.881,32.809 H 20.06 L 22.671,26.959 H 22.724 L 22.706,32.165 C 22.569,32.555 22.145,32.422 21.838,32.487 C 21.848,32.599 21.818,32.721 21.87,32.809 H 26.994 V 32.487 C 26.665,32.466 26.306,32.477 26.084,32.165 C 25.946,31.722 26.306,31.432 26.464,31.077 L 29.661,31.099 C 29.863,31.465 30.138,31.787 30.171,32.221 C 29.97,32.554 29.535,32.421 29.206,32.487 V 32.787 H 36.088 C 36.088,32.677 36.11,32.554 36.067,32.466 C 35.877,32.454 35.664,32.487 35.484,32.432 C 35.348,32.366 35.23,32.276 35.199,32.121 L 35.23,29.532 C 35.59,29.522 35.95,29.509 36.215,29.743 L 38.025,32.809 L 46.304,32.788 C 46.294,32.677 46.325,32.554 46.284,32.466 C 46.061,32.487 45.87,32.432 45.669,32.41 C 45.489,32.343 45.288,32.143 45.267,31.932 L 45.27,26.965 H 45.29 L 50.697,33 H 51.057 L 51.11,26.904 L 51.259,26.559 C 51.439,26.293 51.724,26.282 52,26.259 V 25.938 H 49.508 Z" fill="rgb(254, 254, 253)"/>
</svg>
