<?xml version="1.0" encoding="UTF-8"?>
<!-- generated by Finnhub -->
<svg viewBox="0 0 55.5 55.5" xmlns="http://www.w3.org/2000/svg">
<path d="M 0,0 H 55.5 V 55.5 H 0 Z" fill="rgb(175, 32, 38)"/>
<path d="M 7.99,35.985 H 22.956 L 23.169,35.789 L 28.126,30.854 L 32.836,35.776 L 33.052,36 H 48 L 28,16 L 8,36 Z M 26,19.715 L 28.003,18 L 30,20 L 30.007,18.76 L 46,35 H 36.083 L 30,28.754 V 25.957 L 28,24.515 L 26,26.079 V 23.847 L 28,22.397 L 30,24 V 21.837 L 28.003,20.394 L 26,21.969 V 19.715 Z M 28.126,26.681 L 29.579,28.308 L 28.003,29.826 L 22.659,35 H 19.188 L 28.126,26.68 Z" fill="rgb(254, 254, 253)"/>
</svg>
