<?xml version="1.0" encoding="UTF-8"?>
<!-- generated by Finnhub -->
<svg viewBox="0 0 55.5 55.5" xmlns="http://www.w3.org/2000/svg">
<path d="M 0,0 H 55.5 V 55.5 H 0 Z" fill="url(#a)"/>
<path d="M 37.84,24.884999999999998 C 38.45,24.98 38.87,25.12 39,25.18 C 38.71,25.23 38.11,25.35 38.04,25.35 C 26.69,25.2 21.54,26.95 20.04,27.66 C 20.38,27.87 20.34,28.44 20.29,28.7 C 21.71,30.16 21.96,33.58 22.04,36.03 C 22.11,38.48 20.22,46.93 17.12,47 C 14.64,47.06 16.85,34.53 18.27,28.26 A 5.11,5.11 0 0,1 17.93,26.52 C 17.95,25.91 18.43,25.65 18.67,25.6 C 19.63,19.71 21.97,8.16 23.63,9.05 C 25.41,10.01 21.31,20.5 20.05,23.72 L 19.7,24.63 C 19.54,25.15 19.49,26.23 19.48,26.71 C 27.56,24.36 37.11,24.81 37.85,24.91 Z M 19.98,21.98 C 20.62,18.48 22.6,9.98 23.43,10.04 C 23.97,10.14 22.29,16.31 19.98,21.98 Z M 19.4,29 C 19.3,28.98 18.98,29.25 18.56,30.6 C 18.03,32.29 16.04,46.12 17.46,46.08 C 18.89,46.03 21.2,40.28 21.32,35.78 C 21.44,31.27 19.84,29 19.4,29 Z M 26.72,18.96 C 26.28,18.82 25.35,18.36 25.17,17.66 L 25.15,17.59 C 24.93,16.74 24.73,15.98 26.23,14.09 C 27.77,12.17 30.52,11 33.75,11 C 36.98,11 35.8,15.07 34.52,17.82 C 33.24,20.57 32.44,22.97 33.75,22.49 C 35.05,22.02 39.03,17.37 40.82,11.26 C 41.32,11.31 42.24,11.7 41.94,12.93 C 41.57,14.46 36.55,24 32.47,24 C 31.67,23.86 30.27,23 31.07,20.62 C 31.33,19.88 31.72,18.98 32.13,18.04 C 33.38,15.2 34.79,11.97 33.03,11.55 C 30.68,11 25.25,15.9 26.73,18.96 Z M 27,34 V 31 H 27.29 L 28.7,33.56 V 31 H 29 V 34 H 28.63 L 27.29,31.6 L 27.3,34 H 27 Z M 30.8,34 H 30.5 L 31.48,31 L 32.5,34 H 32.16 L 31.86,33 H 31.11 L 30.8,34 Z M 31.48,31.8 L 31.76,32.7 H 31.2 L 31.48,31.8 Z M 37,34 H 37.3 L 37.6,33 H 38.35 L 38.66,34 H 39 L 37.98,31 L 37,34 Z M 38.26,32.7 L 37.98,31.8 L 37.7,32.7 H 38.26 Z M 34,31 V 34 H 34.3 V 33 H 34.61 C 35.34,33 35.67,32.56 35.67,32 C 35.67,31.45 35.39,31 34.61,31 H 34 Z M 34.3,31.16 V 32.8 H 34.76 C 35.13,32.8 35.43,32.43 35.43,31.98 C 35.43,31.53 35.13,31.16 34.76,31.16 H 34.3 Z M 29.5,41 A 2.5,2.5 0 0,0 31.2,40.33 L 30.98,40.13 A 2.2,2.2 0 0,1 27.3,38.5 A 2.2,2.2 0 0,1 30.97,36.86 L 31.17,36.65 A 2.5,2.5 0 1,0 29.5,41 Z M 35.48,41 H 35 L 36.96,36 L 39,41 H 38.45 L 37.82,39.36 H 36.1 L 35.48,41 Z M 36.96,37.14 L 37.68,39 H 36.24 L 36.96,37.14 Z M 33.36,37.24 L 33.62,38 H 34.48 L 33.78,38.5 L 34.05,39.28 L 33.35,38.8 L 32.65,39.28 L 32.92,38.5 L 32.22,38 H 33.09 L 33.35,37.24 Z" fill="rgb(254, 254, 253)" fill-rule="evenodd"/>
<defs>
<linearGradient id="a" x1="10.42" x2="68.15" y1="9.71" y2="76.02" gradientUnits="userSpaceOnUse">
<stop stop-color="rgb(25, 29, 31)" offset="0"/>
<stop stop-color="rgb(5, 5, 8)" offset="1"/>
</linearGradient>
</defs>
</svg>
