<?xml version="1.0" encoding="UTF-8"?>
<!-- generated by Finnhub -->
<svg viewBox="0 0 55.5 55.5" xmlns="http://www.w3.org/2000/svg">
<path d="M 0,0 H 55.5 V 55.5 H 0 Z" fill="rgb(239, 242, 248)"/>
<path d="M 19.45,12.985 H 36.5 L 45,28 L 36.51,43 H 19.5 L 11,28.02 L 19.46,13 Z M 27.98,18.21 A 148.84,148.84 0 0,0 23.93,25.47 C 25.13,27.49 25.53,29.74 25.59,32.15 C 27.26,32.25 28.77,32.35 30.32,32.07 C 30.52,29.68 30.92,27.47 32.05,25.42 L 27.98,18.21 Z M 34.26,41.5 A 17.64,17.64 0 0,1 31.67,37.78 C 31.03,36.43 30.81,34.93 30.37,33.51 C 28.67,33.59 27.11,33.7 25.51,33.39 A 15.14,15.14 0 0,1 24.31,37.85 C 23.76,39.24 22.68,40.15 21.84,41.5 H 34.26 Z M 21,21.6 L 23.17,24 L 27.93,15.62 C 29.69,18.49 31.09,21.31 32.78,24 C 33.7,23.19 34.18,22.22 35.03,21.6 L 30.91,14.5 H 25.1 C 23.73,16.9 22.4,19.15 21,21.6 Z M 20.09,41.5 C 22.47,39.05 24.04,36.46 24.19,33.12 C 22.96,32.4 21.73,31.93 20.49,31.03 A 8.1,8.1 0 0,1 18.18,38.13 L 20.08,41.49 Z M 37.77,38.14 C 35.89,36.23 35.21,33.92 35.25,31.18 C 34.05,32.05 32.94,32.54 31.73,33.06 A 12.3,12.3 0 0,0 35.96,41.37 C 36.59,40.25 37.16,39.25 37.77,38.14 Z M 20.17,14.5 C 19.35,15.98 18.66,17.3 17.77,18.63 C 16.4,20.65 17.12,22.61 17.65,24.95 C 19.7,21.26 21.68,18.05 23.6,14.5 H 20.18 Z M 32.47,14.5 C 34.39,17.9 36.24,21.18 38.27,24.56 C 38.91,22.74 38.97,21.94 38.77,19.61 C 37.75,17.84 36.73,16.23 35.74,14.5 H 32.48 Z M 35.7,22.75 A 12.32,12.32 0 0,0 31.73,31.55 C 34.18,30.86 37.2,28.01 37.55,26.05 L 35.7,22.75 Z M 24.34,31.65 C 24.09,28.13 22.91,25.23 20.3,22.85 C 19.92,23.53 19.63,24.09 19.3,24.62 C 18.94,25.21 18.57,25.78 18.37,26.42 A 10.72,10.72 0 0,0 24.34,31.65 Z M 38.5,27.72 C 35.74,30.55 36.28,35.17 38.55,36.82 L 41.09,32.25 L 38.49,27.72 Z M 14.98,32.18 C 15.49,33.65 17.01,36.17 17.65,36.68 C 20.12,34.7 19.59,28.87 17.35,27.99 L 14.98,32.19 Z M 40.28,22.36 C 39.81,23.7 39.78,25.03 39.1,26.16 L 41.85,30.94 L 43.5,28 L 40.28,22.35 Z M 15.74,22.36 C 14.42,24.36 13.48,26.19 12.5,27.98 A 14.4,14.4 0 0,0 14.2,30.89 C 15.18,29.29 16.1,27.82 16.8,26.24 C 16.3,25 15.95,23.69 15.74,22.36 Z" fill="url(#a)"/>
<defs>
<linearGradient id="a" x1="17.13" x2="38.37" y1="37.86" y2="19.5" gradientUnits="userSpaceOnUse">
<stop stop-color="rgb(78, 234, 144)" offset="0"/>
<stop stop-color="rgb(76, 229, 148)" offset=".18"/>
<stop stop-color="rgb(68, 215, 160)" offset=".39"/>
<stop stop-color="rgb(57, 192, 181)" offset=".62"/>
<stop stop-color="rgb(40, 160, 209)" offset=".85"/>
<stop stop-color="rgb(28, 136, 230)" offset="1"/>
</linearGradient>
</defs>
</svg>
