<?xml version="1.0" encoding="UTF-8"?>
<!-- generated by Finnhub -->
<svg viewBox="0 0 55.5 55.5" xmlns="http://www.w3.org/2000/svg">
<path d="M 0,28 A 28,28 0 1,1 56,28 A 28,28 0 0,1 0,28 Z" fill="rgb(239, 242, 248)"/>
<path d="M 13.1,30.985 C 15.23,35.62 18.44,39.96 20.43,39.99 C 22.97,39.99 29.05,35.37 32.13,30.99 H 27.5 C 25.43,33 22.63,34.99 21.3,34.99 C 20.26,34.99 18.67,33.16 17.43,30.99 H 13.11 Z" fill="rgb(1, 36, 148)"/>
<path d="M 25.889999999999997,11.055 C 26.19,11.02 26.5,11 26.82,11 C 33.54,11.01 47.05,21.09 47,27.5 C 46.95,33.4 30.49,45 25.9,45 C 20.5,44.99 19.94,28.19 20,24 C 20.1,16.5 21.57,11.8 25.9,11.07 Z M 28.25,18 C 31.6,18.04 41.08,24.24 41,28 C 40.93,31.23 30.97,38 28,37.99 C 26.52,37.99 24.91,32.92 25,27.99 C 25.03,26.16 25.1,17.96 28.25,17.99 Z" fill="rgb(222, 1, 53)" fill-rule="evenodd"/>
<path d="M 33.11,24.485 C 28.87,20.8 21.32,20 16.63,20 H 16.31 C 13.73,19.99 11,19.98 11,23.3 C 11,25.41 11.86,28.25 13.11,31 H 17.43 C 16.38,29.14 15.58,27.05 15.63,25.64 C 15.67,23.97 17.05,23.98 18.35,23.99 H 18.42 C 20.41,24.01 29.89,24.41 30,27.42 C 30.03,28.17 28.94,29.58 27.5,30.99 H 32.14 C 33.28,29.38 34.01,27.79 34,26.49 C 34,25.71 33.73,25.03 33.12,24.5 Z" fill="rgb(1, 36, 148)"/>
</svg>
