<?xml version="1.0" encoding="UTF-8"?>
<!-- generated by Finnhub -->
<svg viewBox="0 0 55.5 55.5" xmlns="http://www.w3.org/2000/svg">
<path d="M 0,0 H 55.5 V 55.5 H 0 Z" fill="rgb(239, 242, 248)"/>
<path d="M 8.84,26.724999999999998 V 24.24 A 25.63,25.63 0 0,1 16.04,23 C 19.58,23 23.04,23.74 22.06,27 L 20.34,30.55 C 20.2,30.99 20.33,31.99 20.82,32.58 H 21.76 C 22.02,32.66 22.81,32.34 23.85,30.47 A 61.25,61.25 0 0,0 26.24,25.61 C 26.33,24.97 26.08,23.67 24.37,23.67 H 25.44 C 27.25,23.69 29.84,23.72 30.86,23.37 H 30.92 L 30.78,24.49 C 31.05,23.99 32.66,23 36.92,23 C 41.19,23 40.82,25.52 40.11,26.77 L 37.98,30.92 C 37.79,31.47 37.71,32.58 38.84,32.58 H 39.58 V 32.67 C 39.98,32.64 40.7,32.39 41.15,31.56 C 41.65,30.65 43.56,26.59 44.45,24.68 C 44.52,24.29 44.36,23.55 43.33,23.45 L 43.73,23.47 C 45.26,23.55 47.67,23.68 49.01,23.25 L 46.11,29.87 C 45.76,30.77 45.42,32.54 46.87,32.54 V 33 H 30.75 C 31.75,32.97 33.72,32.36 34.6,30.03 C 35.52,27.6 36,26.26 36.12,25.89 C 36.22,25.19 35.92,23.8 33.95,23.8 C 31.99,23.8 30.2,25.93 29.55,26.99 C 28.55,28.66 27.03,32.13 28.93,32.58 V 33 H 15.24 L 15.14,31.66 C 14.74,32.11 13.14,33 10.08,33 C 6.25,33 5,32.32 5,30.83 C 5,29.34 8.87,26.49 17.47,26.74 C 17.7,26.45 18.17,25.74 18.21,25.19 C 18.26,24.51 17.46,23.55 15.47,23.55 C 14.49,23.55 10.79,25.17 9.61,26.75 H 8.85 Z M 30.62,33 H 30.75 H 30.62 Z M 43.08,23.43 Z M 10.24,30.4 C 10.77,29.32 12.51,27.56 16.82,27.56 C 15.96,30.14 13.93,32.26 11.38,32.26 C 10.52,32.26 9.68,31.26 10.24,30.4 Z" fill="rgb(9, 62, 77)" fill-rule="evenodd"/>
<path d="M 9.59,26.724999999999998 V 24.24 C 10.8,23.82 13.9,23 16.7,23 C 20.19,23 23.61,23.74 22.64,27 L 20.94,30.55 A 2.6,2.6 0 0,0 21.41,32.58 H 22.56 C 22.82,32.66 23.61,32.34 24.66,30.47 A 61.25,61.25 0 0,0 27.04,25.61 C 27.13,24.97 26.88,23.67 25.17,23.67 C 26.83,23.67 30.47,23.55 31.73,23.12 H 31.79 L 31.59,24.49 C 31.86,23.99 33.47,23 37.73,23 S 41.63,25.52 40.91,26.77 L 38.78,30.92 C 38.6,31.47 38.51,32.58 39.64,32.58 H 40.79 C 41.17,32.44 41.63,32.15 41.95,31.56 C 42.45,30.65 44.36,26.59 45.26,24.68 C 45.32,24.28 45.16,23.53 44.09,23.44 C 45.58,23.5 48.52,23.47 50,23 L 46.92,29.87 C 46.57,30.77 46.22,32.54 47.68,32.54 V 33 H 31.55 C 32.55,32.97 34.52,32.36 35.4,30.03 C 36.32,27.6 36.8,26.26 36.93,25.89 C 37.02,25.19 36.72,23.8 34.76,23.8 S 31,25.93 30.36,27 C 29.36,28.67 27.83,32.14 29.73,32.59 V 33 H 15.9 L 15.81,31.66 C 15.41,32.11 13.84,33 10.81,33 C 7.04,33 5.81,32.32 5.81,30.83 C 5.81,29.34 9.71,26.4 18.19,26.65 C 18.42,26.36 18.8,25.74 18.84,25.19 C 18.88,24.51 17.78,23.57 15.81,23.57 C 13.85,23.57 10.97,25.37 9.61,26.74 Z M 31.43,33 H 31.55 H 31.43 Z M 43.88,23.43 Z M 10.97,30.4 C 11.5,29.32 13.21,27.56 17.47,27.56 C 16.62,30.14 14.62,32.26 12.1,32.26 C 11.25,32.26 10.43,31.26 10.97,30.4 Z" fill="rgb(65, 154, 183)" fill-rule="evenodd"/>
<ellipse transform="matrix(.38212 .92411 -.9219 .3874 48.23 20.48)" rx="1.72" ry="2.3" fill="rgb(236, 204, 22)"/>
<path d="M 47.5,18.915 C 47.47,20.99 48.6,21.76 49.16,21.88 C 48.32,22.35 46.4,23.01 45.44,21.88 S 46.42,19.45 47.51,18.93 Z" fill="rgb(113, 2, 8)"/>
</svg>
