<?xml version="1.0" encoding="UTF-8"?>
<!-- generated by Finnhub -->
<svg viewBox="0 0 55.5 55.5" xmlns="http://www.w3.org/2000/svg">
<path d="M 0,28 A 28,28 0 1,1 56,28 A 28,28 0 0,1 0,28 Z" fill="rgb(239, 242, 248)"/>
<path d="M 8.49,22.985 H 11.5 L 6,33 L 4,31 L 8.5,23 Z" fill="url(#g)"/>
<path d="M 15.99,32.985 L 11.5,23 L 9.83,26 L 13,33 H 16 Z" fill="url(#f)"/>
<path d="M 9.99,30.985 L 11,33 H 6 L 7,31 H 10 Z" fill="url(#e)"/>
<path d="M 33.24,21.985 H 34.75 C 34.88,22 35,22.07 35,22.16 V 23.84 C 35,23.93 34.88,24 34.75,24 H 33.25 C 33.12,24 33,23.93 33,23.84 V 22.16 C 33,22.07 33.12,22 33.25,22 Z" fill="url(#d)"/>
<path d="M 33.24,24.985 H 34.75 C 34.88,25 35,25.12 35,25.26 V 31.74 C 35,31.88 34.88,32 34.75,32 H 33.25 A 0.26,0.26 0 0,1 33,31.74 V 25.26 C 33,25.12 33.12,25 33.25,25 Z" fill="url(#c)"/>
<path d="M 43.84,24.985 H 42.21 A 0.65,0.65 0 0,0 41.75,25.26 L 40.5,26.98 V 30.02 L 41.75,31.74 C 41.85,31.88 42.05,32 42.21,32 H 43.85 C 44,32 44.05,31.88 43.95,31.74 L 41.6,28.5 L 43.94,25.26 C 44.04,25.12 44,25 43.85,25 Z M 26.72,25 H 25.28 A 0.28,0.28 0 0,0 25,25.26 V 31.74 C 25,31.88 25.13,32 25.28,32 H 26.72 C 26.87,32 27,31.88 27,31.74 V 27.01 C 27.29,26.83 27.73,26.63 28.25,26.63 C 29,26.63 29,27.47 29,27.47 V 31.72 C 29,32 29.23,32 29.23,32 H 30.74 C 31.01,32 31,31.8 31,31.8 V 27.2 C 31,25.89 30.23,25 28.83,25 C 28.01,25 27.38,25.27 27,25.5 V 25.26 C 27,25.12 26.87,25 26.72,25 Z M 23,27.33 V 31.71 C 23,32 22.73,32 22.73,32 H 21.23 C 21.02,32 21,31.77 21,31.77 V 31.45 S 20.37,32 19.27,32 C 17.41,32 17,31.23 17,29.55 C 17,27.87 19.93,28 19.93,28 H 21 V 27.34 C 21,26.77 20.46,26.61 19.93,26.61 L 18.56,26.65 L 17.74,26.69 C 17.5,26.69 17.5,26.46 17.5,26.46 V 25.5 C 17.5,25.34 17.66,25.27 17.66,25.27 S 18.66,25 20,25 C 22.99,25 23,27.33 23,27.33 Z M 21,30.26 V 29 H 19.94 C 19,29 19,29.75 19,30.03 V 30.05 C 19,30.31 19.18,30.54 19.82,30.54 C 20.46,30.54 21,30.26 21,30.26 Z M 51,27.33 V 31.71 C 51,32 50.73,32 50.73,32 H 49.23 C 49.02,32 49,31.77 49,31.77 V 31.45 S 48.37,32 47.27,32 C 45.41,32 45,31.23 45,29.55 C 45,27.87 47.93,28 47.93,28 H 49 V 27.34 C 49,26.77 48.46,26.61 47.93,26.61 L 46.56,26.65 L 45.74,26.69 C 45.5,26.69 45.5,26.46 45.5,26.46 V 25.5 C 45.5,25.34 45.66,25.27 45.66,25.27 S 46.66,25 48,25 C 50.99,25 51,27.33 51,27.33 Z M 49,30.26 V 29 H 47.94 C 47,29 47,29.75 47,30.03 V 30.05 C 47,30.31 47.18,30.54 47.82,30.54 C 48.46,30.54 49,30.26 49,30.26 Z" fill="rgb(23, 26, 28)"/>
<path d="M 38.78,24.985 C 38.95,25 39.15,25.12 39.25,25.26 L 41.6,28.5 H 39.4 L 37.06,25.26 C 36.96,25.12 37,25 37.15,25 H 38.79 Z" fill="url(#b)"/>
<path d="M 39.39,28.485 L 37.06,31.74 C 36.96,31.88 37,32 37.15,32 H 38.79 C 38.95,32 39.15,31.88 39.25,31.74 A 689.46,689.46 0 0,0 41.6,28.5 H 39.4 Z" fill="url(#a)"/>
<defs>
<linearGradient id="g" x1="10.77" x2="3.26" y1="21.58" y2="33" gradientUnits="userSpaceOnUse">
<stop stop-color="rgb(22, 43, 93)" offset=".06"/>
<stop stop-color="rgb(37, 83, 147)" offset=".86"/>
</linearGradient>
<linearGradient id="f" x1="10.85" x2="14.02" y1="23" y2="33.99" gradientUnits="userSpaceOnUse">
<stop stop-color="rgb(37, 83, 147)" offset=".18"/>
<stop stop-color="rgb(22, 43, 93)" offset=".68"/>
</linearGradient>
<linearGradient id="e" x1="6.42" x2="11.16" y1="33.63" y2="33.65" gradientUnits="userSpaceOnUse">
<stop stop-color="rgb(22, 43, 93)" offset=".3"/>
<stop stop-color="rgb(37, 83, 147)" offset=".69"/>
</linearGradient>
<linearGradient id="d" x1="34" x2="34" y1="22" y2="24">
<stop stop-color="rgb(23, 26, 28)" offset="1"/>
</linearGradient>
<linearGradient id="c" x1="34" x2="34" y1="25" y2="32">
<stop stop-color="rgb(23, 26, 28)" offset="1"/>
</linearGradient>
<linearGradient id="b" x1="37" x2="41.5" y1="25" y2="28.5" gradientUnits="userSpaceOnUse">
<stop stop-color="rgb(23, 43, 95)" offset="0"/>
<stop stop-color="rgb(34, 77, 139)" offset="1"/>
</linearGradient>
<linearGradient id="a" x1="41.5" x2="37" y1="28.5" y2="32" gradientUnits="userSpaceOnUse">
<stop stop-color="rgb(31, 64, 122)" offset="0"/>
<stop stop-color="rgb(23, 43, 94)" offset="1"/>
</linearGradient>
</defs>
</svg>
