<?xml version="1.0" encoding="UTF-8"?>
<!-- generated by Finnhub -->
<svg viewBox="0 0 55.5 55.5" xmlns="http://www.w3.org/2000/svg">
<path d="M 0,0 H 55.5 V 55.5 H 0 Z" fill="url(#a)"/>
<path d="M 30.875,10.985 C 31.139,11.05 31.387,11.12 31.636,11.192 C 31.627,11.586 31.606,11.98 31.579,12.374 A 58.388,58.388 0 0,0 31.561,15.701 C 31.636,18.055 31.917,20.404 32.41,22.706 C 33.55,28.086 35.796,33.056 38.727,37.661 A 63.144,63.144 0 0,0 41.877,42.166 C 41.923,42.239 42.007,42.333 41.999,42.424 C 41.885,42.604 41.732,42.764 41.581,42.913 C 41.515,42.97 41.446,43.036 41.358,42.976 C 41.168,42.852 41.009,42.669 40.838,42.518 C 38.608,40.514 36.223,38.654 33.708,37.036 C 30.803,35.164 27.722,33.612 24.467,32.48 C 20.892,31.265 17.163,30.348 13.384,30.215 C 12.307,30.133 11.219,30.175 10.139,30.17 C 10.088,29.88 10.051,29.586 10,29.296 C 10.413,29.093 10.844,28.963 11.274,28.79 C 16.39,26.795 21.218,23.813 25.028,19.777 C 27.387,17.308 29.348,14.424 30.738,11.283 C 30.783,11.186 30.832,11.092 30.885,11 Z" fill="rgb(76, 205, 8)"/>
<defs>
<linearGradient id="a" x1="10.418" x2="68.147" y1="9.712" y2="76.017" gradientUnits="userSpaceOnUse">
<stop stop-color="rgb(25, 29, 31)" offset="0"/>
<stop stop-color="rgb(5, 5, 8)" offset="1"/>
</linearGradient>
</defs>
</svg>
