<?xml version="1.0" encoding="UTF-8"?>
<!-- generated by Finnhub -->
<svg viewBox="0 0 55.5 55.5" xmlns="http://www.w3.org/2000/svg">
<path d="M 0,0 H 55.5 V 55.5 H 0 Z" fill="rgb(239, 242, 248)"/>
<path d="M 25.229999999999997,37.985 L 30.01,29 H 32 L 31.57,38 H 29.57 L 29.67,37 H 27.72 L 27.19,38 H 25.24 Z M 28.62,35 H 29.79 L 30.14,31.73 L 28.62,35 Z M 8,38 L 12.77,29 H 14.76 L 14.32,38 H 12.33 L 12.42,37 H 10.54 L 9.94,38 H 8 Z M 11.38,35 H 12.55 L 12.9,31.73 L 11.38,35 Z M 17.14,29 H 18.87 L 19.61,33.81 L 21,29 H 23.03 L 20.43,38 H 18.48 L 17.79,33.52 L 16.5,38 H 14.55 L 17.15,29 Z M 23.47,29 H 29.1 L 28.53,31 H 26.76 L 24.72,38 H 22.77 L 24.81,31 H 22.95 L 23.47,29 Z" fill="rgb(34, 24, 20)"/>
<path d="M 47.99,32.475 A 34.46,34.46 0 0,0 31.56,19.72 C 35.56,19.85 39.33,20.46 43.06,21.42 L 40.49,19.24 A 48,48 0 0,0 23.1,16 C 19.45,16 15.84,16.4 12.41,17.18 L 8,20.24 C 8.56,20.24 9.42,20.2 9.97,20.2 A 41.84,41.84 0 0,1 44.1,38 L 48,32.49 Z" fill="rgb(214, 1, 14)"/>
</svg>
