<?xml version="1.0" encoding="UTF-8"?>
<!-- generated by Finnhub -->
<svg viewBox="0 0 55.5 55.5" xmlns="http://www.w3.org/2000/svg">
<path d="M 0,0 H 55.5 V 55.5 H 0 Z" fill="url(#a)"/>
<path d="M 33.581,21.996 H 33.241 A 0.627,0.627 0 0,1 33.068,22.431 A 0.55,0.55 0 0,1 32.668,22.601 C 32.264,22.601 31.384,22.011 30.409,22.011 C 28.942,22.011 27.461,22.981 27.461,24.965 C 27.461,26.687 28.509,27.448 30.004,28.369 C 32.4,29.861 32.658,30.454 32.658,31.449 C 32.658,31.716 32.605,31.979 32.504,32.222 C 32.404,32.466 32.257,32.685 32.074,32.866 A 1.8,1.8 0 0,1 31.44,33.273 A 1.713,1.713 0 0,1 30.706,33.377 C 28.506,33.377 27.681,31.117 27.37,30.301 H 27 L 27.485,33.985 H 27.835 A 0.575,0.575 0 0,1 27.971,33.581 A 0.48,0.48 0 0,1 28.341,33.411 C 28.827,33.411 29.627,34 30.867,34 C 33.197,34 34.3,32.333 34.3,30.856 C 34.3,27.291 28.862,26.941 28.862,24.338 C 28.862,23.257 29.693,22.72 30.51,22.72 C 32.218,22.72 33.26,24.282 33.539,25.703 H 33.947 L 33.597,22 M 45,22.004 H 41.457 V 22.345 C 41.957,22.345 42.571,22.385 42.571,22.943 A 1.358,1.358 0 0,1 42.345,23.611 L 40.035,27.695 L 37.637,23.677 A 1.82,1.82 0 0,1 37.362,22.901 C 37.362,22.396 37.769,22.377 38.511,22.341 V 22 H 34 V 22.342 C 34.722,22.415 34.968,22.47 36.616,25.183 L 38.74,28.677 V 31.826 C 38.74,33.204 38.691,33.62 37.106,33.654 V 34 H 42.054 V 33.654 C 40.596,33.654 40.388,33.328 40.388,32.024 V 28.53 L 42.762,24.41 C 43.879,22.493 44.414,22.42 44.996,22.346 V 22.004 M 51.281,22.011 H 50.922 A 0.615,0.615 0 0,1 50.744,22.431 A 0.57,0.57 0 0,1 50.333,22.601 C 49.916,22.601 49.014,22.011 48.008,22.011 C 46.503,22.011 44.976,22.981 44.976,24.965 C 44.976,26.687 46.054,27.448 47.588,28.369 C 50.053,29.861 50.318,30.454 50.318,31.449 C 50.318,31.715 50.264,31.979 50.161,32.222 A 1.941,1.941 0 0,1 49.72,32.866 C 49.532,33.046 49.31,33.186 49.068,33.273 A 1.806,1.806 0 0,1 48.314,33.377 C 46.047,33.377 45.199,31.117 44.879,30.301 H 44.495 L 44.994,33.985 H 45.354 A 0.556,0.556 0 0,1 45.491,33.581 A 0.518,0.518 0 0,1 45.871,33.411 C 46.374,33.411 47.196,34 48.465,34 C 50.865,34 52,32.333 52,30.856 C 52,27.291 46.406,26.941 46.406,24.338 C 46.406,23.257 47.261,22.72 48.094,22.72 C 49.855,22.72 50.929,24.282 51.214,25.703 H 51.63 L 51.27,22" fill="rgb(238, 201, 44)"/>
<path d="M 15.99,21.985 H 19.975 L 23,28.807 V 22 H 26 V 34 H 22.025 L 19,27.193 V 34 H 16 V 22 Z" fill="rgb(254, 254, 253)"/>
<path d="M 7.909,21.985 H 12.081 L 16.081,34 H 12.92 L 10,25.243 L 7.081,34 H 3.92 L 7.92,22 Z" fill="rgb(254, 254, 253)"/>
<defs>
<linearGradient id="a" x1="10.418" x2="68.147" y1="9.712" y2="76.017" gradientUnits="userSpaceOnUse">
<stop stop-color="rgb(25, 29, 31)" offset="0"/>
<stop stop-color="rgb(5, 5, 8)" offset="1"/>
</linearGradient>
</defs>
</svg>
