<?xml version="1.0" encoding="UTF-8"?>
<!-- generated by Finnhub -->
<svg viewBox="0 0 55.5 55.5" xmlns="http://www.w3.org/2000/svg">
<path d="M 0,0 H 55.5 V 55.5 H 0 Z" fill="rgb(239, 242, 248)"/>
<path d="M 3.99,31.985 L 7.88,24 H 10.12 L 14,32 H 12.16 L 10.74,29.05 C 9.64,29.51 7.28,30.74 6.5,32 H 4 Z M 7,29.62 C 7.66,29.17 8.76,28.65 10.36,28.29 L 9,25.47 L 7,29.62 Z M 14,24 H 15.5 V 32 H 14 V 24 Z"/>
<path d="M 16.99,23.985 V 32 H 18.5 V 29 C 20.17,29.73 21.74,30.48 22.83,32 H 25 C 24.6,31.5 23.08,30.06 22,29.5 C 22.96,28.9 24,28.08 24,26.93 C 24,25.38 22.92,24 21.45,24 H 17 Z M 18.5,25.5 V 28 H 21.25 A 1.25,1.25 0 1,0 21.25,25.5 H 18.5 Z" fill-rule="evenodd"/>
<path d="M 34.99,23.985 H 52 V 25.5 H 35 V 24 Z M 35,27.5 H 43 V 29 H 35 V 27.5 Z"/>
<path d="M 46.99,31.985 V 25 H 48.5 V 32 H 47 Z M 35,30.5 H 43 V 32 H 35 V 30.5 Z M 25.22,24 H 26.5 L 34,30.96 V 25.2 C 34,23.43 32.62,22 30.93,22 H 28.06 C 26.77,22 25.67,22.83 25.22,24 Z M 33.99,32 H 32.77 L 26.5,26.16 V 32 H 25 C 25.1,33.68 26.43,35 28.06,35 H 30.93 A 3.12,3.12 0 0,0 33.99,32 Z"/>
</svg>
