<?xml version="1.0" encoding="UTF-8"?>
<!-- generated by Finnhub -->
<svg viewBox="0 0 55.5 55.5" xmlns="http://www.w3.org/2000/svg">
<path d="M 0,0 H 55.5 V 55.5 H 0 Z" fill="rgb(1, 105, 144)"/>
<path d="M 29.75,36.245 L 43.36,23.56 A 16.08,16.08 0 0,0 39.72,17.07 L 29.47,27.91 L 29.77,36.26 Z M 29.86,40.17 L 29.94,43.82 A 15.9,15.9 0 0,0 41.4,36.52 L 32.8,36.97 L 29.86,40.17 Z" fill="rgb(127, 180, 197)"/>
<path d="M 31.18,12.344999999999999 A 16.3,16.3 0 0,0 28.96,12 L 29.06,14.31 L 31.19,12.36 Z" fill="rgb(132, 159, 167)"/>
<path d="M 26.729999999999997,19.485 L 21.15,13.6 A 14.98,14.98 0 0,0 15.2,18.4 L 26.48,29.15 L 26.74,19.49 Z M 12.1,29.15 C 12.4,33.05 14.1,36.72 16.88,39.47 L 21.42,39.11 L 12.09,29.15 Z" fill="rgb(127, 180, 197)"/>
<path d="M 43.690000000000005,25.305 L 34.56,35.1 L 42.04,35.45 A 15.27,15.27 0 0,0 44,27.95 C 43.99,27.07 43.89,26.19 43.7,25.32 Z M 29.4,25.32 L 35.54,19.54 L 35.71,14.04 A 17.92,17.92 0 0,0 31.89,12.54 L 29.06,15.55 L 29.41,25.32 Z M 26.39,31.73 L 19.49,24.49 L 12.44,24.26 C 12.27,25.16 12.09,26.04 12,26.93 L 26.04,40.17 L 26.39,31.73 Z M 26.98,12 C 25.14,12.1 23.34,12.52 21.65,13.24 L 26.8,18.14 L 26.98,12 Z" fill="rgb(190, 217, 227)"/>
<path d="M 38.910000000000004,16.335 A 11.36,11.36 0 0,0 36.25,14.4 L 36.43,18.75 L 38.92,16.35 Z M 18.13,40.61 A 15.47,15.47 0 0,0 25.77,43.81 L 23.02,40.89 L 18.13,40.61 Z M 14.58,19.28 A 15.35,15.35 0 0,0 12.62,23.73 L 18.57,23.55 L 14.57,19.28 Z" fill="rgb(254, 254, 253)"/>
</svg>
