<?xml version="1.0" encoding="UTF-8"?>
<!-- generated by Finnhub -->
<svg viewBox="0 0 55.5 55.5" xmlns="http://www.w3.org/2000/svg">
<path d="M 0,0 H 55.5 V 55.5 H 0 Z" fill="rgb(239, 242, 248)"/>
<path d="M 10.370000000000001,26.925 L 23.5,31.56 L 41.36,14.09 L 10.36,25.89 A 0.55,0.55 0 0,0 10.38,26.94 Z" fill="rgb(66, 191, 174)"/>
<path d="M 27.569999999999997,44.905 L 23.45,31.3 L 41.82,15 L 28.64,45 C 28.43,45.46 27.74,45.42 27.58,44.92 Z" fill="rgb(0, 148, 185)"/>
<path d="M 28.419999999999998,21.605 A 10.37,10.37 0 0,0 23.43,31.51 C 28.94,32.16 32.47,29.11 33.55,27.51 L 41.9,14.91 C 42.23,14.41 41.65,13.82 41.14,14.12 C 37.64,16.16 32.24,19.32 28.44,21.62 Z" fill="rgb(1, 105, 165)"/>
</svg>
