<?xml version="1.0" encoding="UTF-8"?>
<!-- generated by Finnhub -->
<svg viewBox="0 0 55.5 55.5" xmlns="http://www.w3.org/2000/svg">
<path d="M 0,0 H 55.5 V 55.5 H 0 Z" fill="rgb(239, 242, 248)"/>
<path d="M 16.99,36.985 V 23.95 L 34,15 V 27.16 L 17,37 Z" fill="url(#b)"/>
<path d="M 16.99,30.155 C 16.99,29.01 16.96,27.18 18.86,24.8 C 21.46,21.56 23.68,20.68 26.19,21.1 C 28.7,21.5 28.57,26.96 25.98,30.18 C 23.39,33.39 20.3,34.32 18.86,33.91 C 17.42,33.5 17.06,32.31 17.01,30.46 V 30.16 Z M 19,29.64 C 19,28.93 18.97,27.8 20.19,26.34 C 21.83,24.34 23.25,23.8 24.85,24.06 C 26.45,24.31 26.36,27.66 24.71,29.65 C 23.07,31.63 21.11,32.2 20.19,31.95 C 19.27,31.69 19.03,30.95 19,29.82 V 29.64 Z" fill="url(#a)" fill-rule="evenodd"/>
<path d="M 6.99,33.985 H 10.61 L 10.86,33 H 13.66 L 13.88,34 H 17 V 31.88 L 14.37,24 H 10.6 L 7,34 Z M 13.11,30.5 L 12.33,26.94 L 11.46,30.5 H 13.11 Z M 32.58,31.71 L 31.11,34 H 27.17 L 30.64,28.68 L 27.64,24 H 31.48 L 32.58,25.7 L 33.7,24 H 37.54 L 34.54,28.68 L 38,34 H 34.05 L 32.58,31.71 Z M 38,24 H 41.38 L 42.52,26.85 L 43.5,24 H 47 L 44,29.2 V 34 H 41 V 29.2 L 38,24 Z" fill-rule="evenodd"/>
<defs>
<linearGradient id="b" x1="18.05" x2="33.42" y1="24.96" y2="24.96" gradientUnits="userSpaceOnUse">
<stop stop-color="rgb(14, 56, 59)" offset="0"/>
<stop stop-color="rgb(209, 209, 209)" offset="1"/>
</linearGradient>
<linearGradient id="a" x1="17" x2="27.54" y1="31.38" y2="23.68" gradientUnits="userSpaceOnUse">
<stop stop-color="rgb(204, 209, 205)" offset="0"/>
<stop stop-color="rgb(7, 46, 44)" offset="1"/>
</linearGradient>
</defs>
</svg>
