<?xml version="1.0" encoding="UTF-8"?>
<!-- generated by Finnhub -->
<svg viewBox="0 0 55.5 55.5" xmlns="http://www.w3.org/2000/svg">
<path d="M 0,0 H 55.5 V 55.5 H 0 Z" fill="rgb(239, 242, 248)"/>
<path d="M 27.99,44.985 A 17,17 0 1,0 28,11 A 17,17 0 0,0 28,45 Z M 28,43 A 15,15 0 1,0 28,13 A 15,15 0 0,0 28,43 Z" fill="rgb(62, 62, 61)" fill-rule="evenodd"/>
<path d="M 27.99,27.615 A 8,8 0 1,0 28,11.63 A 8,8 0 0,0 28,27.63 Z M 28,26 A 6,6 0 1,0 28,14 A 6,6 0 0,0 28,26 Z" fill="rgb(62, 62, 61)" fill-rule="evenodd"/>
<circle cx="28" cy="20" r="5" fill="url(#d)"/>
<path d="M 19.99,39.985 A 8,8 0 1,0 20,24 A 8,8 0 0,0 20,40 Z M 20,38 A 6,6 0 1,0 20,26 A 6,6 0 0,0 20,38 Z" fill="rgb(62, 62, 61)" fill-rule="evenodd"/>
<circle cx="20" cy="32" r="5" fill="url(#c)"/>
<path d="M 35.99,39.985 A 8,8 0 1,0 36,24 A 8,8 0 0,0 36,40 Z M 36,38 A 6,6 0 1,0 36,26 A 6,6 0 0,0 36,38 Z" fill="rgb(62, 62, 61)" fill-rule="evenodd"/>
<circle cx="36" cy="32" r="5" fill="url(#b)"/>
<path d="M 27.99,17.985 L 36,32 H 20 L 28,18 Z" fill="url(#a)"/>
<path d="M 36.99,32.985 L 28,17 L 19,33 H 25 L 25.5,32 H 20.33 L 28,18.58 L 35.67,32 H 30.25 L 30.5,33 H 37 Z" fill="rgb(239, 242, 248)"/>
<path d="M 27.99,26.985 L 31,32 H 25 L 28,27 Z" fill="rgb(62, 62, 61)"/>
<path d="M 31.99,32.435 L 28,26 L 24,32.45 H 25.89 L 26,32 H 25 L 28,27 L 31,32 H 30 L 30.22,32.45 H 32 Z" fill="rgb(239, 242, 248)"/>
<defs>
<linearGradient id="d" x1="30.57" x2="25.71" y1="15.88" y2="24.28" gradientUnits="userSpaceOnUse">
<stop stop-color="rgb(62, 62, 61)" offset="0"/>
<stop stop-color="rgb(245, 245, 244)" offset=".51"/>
<stop stop-color="rgb(62, 62, 61)" offset="1"/>
</linearGradient>
<linearGradient id="c" x1="22.57" x2="17.71" y1="27.88" y2="36.28" gradientUnits="userSpaceOnUse">
<stop stop-color="rgb(62, 62, 61)" offset="0"/>
<stop stop-color="rgb(245, 245, 244)" offset=".51"/>
<stop stop-color="rgb(62, 62, 61)" offset="1"/>
</linearGradient>
<linearGradient id="b" x1="38.57" x2="33.71" y1="27.88" y2="36.28" gradientUnits="userSpaceOnUse">
<stop stop-color="rgb(62, 62, 61)" offset="0"/>
<stop stop-color="rgb(245, 245, 244)" offset=".51"/>
<stop stop-color="rgb(62, 62, 61)" offset="1"/>
</linearGradient>
<linearGradient id="a" x1="23.29" x2="32.71" y1="25.71" y2="25.71" gradientUnits="userSpaceOnUse">
<stop stop-color="rgb(208, 80, 54)" offset="0"/>
<stop stop-color="rgb(233, 98, 43)" offset=".53"/>
<stop stop-color="rgb(209, 81, 55)" offset="1"/>
</linearGradient>
</defs>
</svg>
