<?xml version="1.0" encoding="UTF-8"?>
<!-- generated by Finnhub -->
<svg viewBox="0 0 55.5 55.5" xmlns="http://www.w3.org/2000/svg">
<path d="M 0,0 H 55.5 V 55.5 H 0 Z" fill="rgb(239, 242, 248)"/>
<path d="M 7.99,31.985 L 14.06,24 H 17.28 L 19,32 H 16.27 L 15.98,30.28 H 12.15 L 10.93,32 H 8 Z M 13.17,28.8 H 15.8 C 15.5,27.04 15.35,25.96 15.35,25.54 H 15.32 C 15.13,25.9 14.42,26.99 13.17,28.79 Z" fill="rgb(194, 17, 45)"/>
<path d="M 17.99,34.985 C 18.75,32.1 19.72,29.02 20.5,26 H 22.76 C 22.68,26.5 22.55,27 22.49,27.19 H 22.52 A 3.35,3.35 0 0,1 25.15,26 C 26.73,26 28,26.93 28,28.6 C 28,30.94 26.3,32 24.02,32 C 22.9,32 22.01,31.78 21.66,30.87 H 21.63 C 21.4,32.09 20.88,33.8 20.57,35 H 18 Z M 23.5,30.5 C 24.46,30.5 25,29.92 25,28.81 C 25,28.05 24.44,27.54 23.68,27.54 C 22.48,27.54 21.98,28.17 21.98,29.31 C 21.98,30.11 22.72,30.5 23.5,30.5 Z M 27,35 C 27.75,32.1 28.72,29.02 29.5,26 H 31.76 C 31.68,26.5 31.55,27 31.49,27.19 H 31.52 A 3.35,3.35 0 0,1 34.15,26 C 35.73,26 37,26.93 37,28.6 C 37,30.94 35.3,32 33.02,32 C 31.9,32 31.01,31.78 30.66,30.87 H 30.63 C 30.4,32.09 29.88,33.8 29.57,35 H 27 Z M 32.5,30.5 C 33.46,30.5 34,29.92 34,28.81 C 34,28.05 33.44,27.54 32.68,27.54 C 31.48,27.54 30.98,28.17 30.98,29.31 C 30.98,30.11 31.72,30.5 32.5,30.5 Z M 43.45,32 C 42.41,32 41,31.62 41,30.34 C 41,29.66 41.38,29.15 42.15,28.81 A 8.36,8.36 0 0,1 45.45,28.29 C 45.79,28.29 46.17,28.3 46.59,28.33 A 0.79,0.79 0 0,0 46.62,28.13 C 46.62,27.53 46.12,27.27 45.06,27.27 C 44.12,27.27 43.3,27.41 42.59,27.7 L 42.79,26.33 A 12.4,12.4 0 0,1 45.69,26 C 47.89,26 49,26.62 49,27.85 C 49,28.88 48.46,29.88 48.31,30.89 C 48.23,31.29 48.15,31.73 48.15,32 H 46 C 46.01,31.71 46.09,31.32 46.15,31.05 H 46.12 C 45.52,31.68 44.63,32 43.45,32 Z M 44.43,30.77 C 45.34,30.77 46.22,30.29 46.39,29.34 A 4.12,4.12 0 0,0 45.76,29.3 C 44.26,29.3 43.5,29.6 43.5,30.17 C 43.5,30.55 43.84,30.77 44.43,30.77 Z M 38.5,26 H 41 L 39.5,32 H 37 L 38.5,26 Z M 38.95,24 H 41.5 L 41.05,25.5 H 38.5 L 38.95,24 Z" fill="rgb(194, 17, 45)"/>
<path d="M 8.65,35.985 C 11.06,36 14.2,34.44 16.87,31.76 C 20.74,27.86 22.14,23.03 20,20.95 C 17.86,18.87 13,20.33 9.13,24.21 C 5.26,28.1 3.86,32.94 6,35.02 C 6.66,35.67 7.59,36 8.66,36 Z M 9,35 C 11.12,35.04 13.85,33.8 16.27,31.74 C 20,28.55 21.57,24.29 19.76,22.21 A 3.74,3.74 0 0,0 16.87,21 C 14.77,21 12.1,22.2 9.73,24.23 C 6,27.42 4.43,31.68 6.24,33.75 C 6.88,34.48 7.84,34.98 9,35 Z" fill="rgb(127, 127, 129)" fill-rule="evenodd"/>
</svg>
