<?xml version="1.0" encoding="UTF-8"?>
<!-- generated by Finnhub -->
<svg viewBox="0 0 55.5 55.5" xmlns="http://www.w3.org/2000/svg">
<path d="M 0,0 H 55.5 V 55.5 H 0 Z" fill="rgb(43, 39, 160)"/>
<path d="M 18.889999999999997,12.985 A 5.95,5.95 0 0,0 13,19 V 37 C 13,40.31 15.64,43 18.9,43 H 37.1 C 40.36,43 43,40.31 43,37 V 19 C 43,15.69 40.36,13 37.1,13 H 18.9 Z M 20,28 A 8,8 0 1,1 36,28 V 36 H 28 A 8,8 0 0,1 20,28 Z M 24,28 A 4,4 0 1,1 32,28 V 32 H 28 A 4,4 0 0,1 24,28 Z" fill="rgb(254, 254, 253)"/>
</svg>
