<?xml version="1.0" encoding="UTF-8"?>
<!-- generated by Finnhub -->
<svg viewBox="0 0 55.5 55.5" xmlns="http://www.w3.org/2000/svg">
<path d="M 0,0 H 55.5 V 55.5 H 0 Z" fill="rgb(0, 91, 181)"/>
<path d="M 26.189999999999998,17.875 C 26.04,18.19 25.78,18.41 25.47,18.52 A 69,69 0 0,0 18.51,21.03 L 19.5,21.37 L 19.7,21.45 C 21.14,21.94 22.67,22.46 24.36,23 A 42.55,42.55 0 0,1 29.5,25 H 40.45 C 41.16,25 41.21,26.02 40.45,26 H 31.45 C 32,26.31 32.55,26.65 33.09,27 H 43.4 C 44.19,27 44.19,28 43.4,28 H 34.44 C 34.82,28.33 35.13,28.67 35.36,29 H 46.41 C 47.19,29 47.19,30 46.41,30 H 35.88 C 35.98,30.33 36.02,30.67 35.99,31 H 48.45 A 0.5,0.5 0 0,1 48.45,32 H 35.74 C 35.05,33.57 33.12,35.05 30.72,36.35 C 27.24,38.25 22.92,39.3 20.71,39.85 L 20.2,39.96 C 18.8,40.31 18.15,38.01 19.55,37.53 H 19.56 L 20.92,37.17 C 22.32,36.8 24.32,36.29 26.32,35.55 A 5071.19,5071.19 0 0,0 20.64,33.75 A 42,42 0 0,1 15.82,31.89 A 28.6,28.6 0 0,1 11.37,29.35 C 6.68,26.05 9.63,22.81 14.28,20.25 C 18.05,18.18 23.09,16.57 24.82,16.05 A 1.18,1.18 0 0,1 26.1,16.49 A 1.39,1.39 0 0,1 26.2,17.89 Z M 29.84,33.98 A 10.74,10.74 0 0,0 32.55,32 H 23.62 L 25.62,32.63 L 29.84,33.98 Z M 20.51,31 H 33.11 C 33.19,30.66 33.12,30.32 32.88,30 H 17.88 C 18.74,30.36 19.62,30.7 20.51,31 Z M 15.71,29 H 31.6 A 26.1,26.1 0 0,0 29.9,28 H 13.94 C 14.52,28.36 15.11,28.69 15.72,29 Z M 12.45,27 H 27.83 C 27,26.64 26.16,26.3 25.32,26 H 11.88 C 11.91,26.34 12.08,26.68 12.45,27 Z M 12.2,25 H 22.3 L 18.99,23.88 L 18.77,23.8 L 15.25,22.61 C 13.89,23.38 12.74,24.2 12.2,25 Z" fill="rgb(254, 254, 253)"/>
</svg>
