<?xml version="1.0" encoding="UTF-8"?>
<!-- generated by Finnhub -->
<svg viewBox="0 0 55.5 55.5" xmlns="http://www.w3.org/2000/svg">
<path d="M 0,0 H 55.5 V 55.5 H 0 Z" fill="url(#a)"/>
<path d="M 6.45,24.485 H 8.09 C 8.87,24.5 9.5,25.06 9.5,25.85 V 29.21 A 1.3,1.3 0 0,1 8.22,30.53 H 6.75 C 6.05,30.53 5.47,29.95 5.47,29.23 V 27.66 C 5.47,27.02 5.98,26.5 6.61,26.5 H 8.01 C 8.41,26.5 8.75,26.16 8.75,25.75 A 0.74,0.74 0 0,0 8,25 H 6.45 A 2.48,2.48 0 0,0 4,27.5 V 30 C 4,31.1 4.88,32 5.96,32 H 8.68 A 2.35,2.35 0 0,0 11,29.63 V 25.33 A 2.3,2.3 0 0,0 8.73,23 H 6.46 A 0.7,0.7 0 0,0 5.76,23.7 C 5.76,24.1 6.08,24.5 6.46,24.5 Z M 36.46,24.5 H 38.09 C 38.87,24.5 39.5,25.06 39.5,25.85 V 29.21 A 1.3,1.3 0 0,1 38.22,30.53 H 36.74 C 36.04,30.53 35.47,29.95 35.47,29.23 V 27.66 C 35.47,27.02 35.98,26.5 36.61,26.5 H 38.01 C 38.41,26.5 38.75,26.16 38.75,25.75 A 0.74,0.74 0 0,0 38,25 H 36.44 A 2.48,2.48 0 0,0 34,27.5 V 30 C 34,31.1 34.88,32 35.96,32 H 38.68 A 2.35,2.35 0 0,0 41,29.63 V 25.33 A 2.3,2.3 0 0,0 38.73,23 H 36.46 A 0.7,0.7 0 0,0 35.76,23.7 C 35.76,24.1 36.08,24.5 36.46,24.5 Z M 12,25.78 V 36.15 C 12,36.62 12.37,37 12.82,37 C 13.28,37 13.65,36.62 13.65,36.15 V 26.07 C 13.65,25.31 14.25,24.68 14.98,24.68 H 17.14 C 17.88,24.68 18.48,25.31 18.48,26.08 V 29.18 C 18.48,29.79 18,30.5 17.41,30.5 H 15.31 C 14.86,30.5 14.49,30.68 14.49,31.15 C 14.49,31.63 14.86,32 15.32,32 H 17.06 A 2.99,2.99 0 0,0 20,28.96 V 25.78 C 20,24.24 18.8,23 17.33,23 H 14.67 A 2.73,2.73 0 0,0 12,25.78 Z M 27.54,30.5 H 23.82 C 23.19,30.5 22.5,29.82 22.5,29.17 V 25.8 C 22.5,25.15 23.19,24.5 23.82,24.5 H 26.32 C 26.96,24.5 27.5,25.15 27.5,25.8 V 26.83 C 27.5,27.48 26.96,28 26.32,28 H 24.78 C 24.34,28 24,28.3 24,28.74 S 24.34,29.5 24.78,29.5 H 26.12 C 27.71,29.5 29,28.3 29,26.68 V 25.64 A 2.62,2.62 0 0,0 26.4,23 H 23.6 A 2.62,2.62 0 0,0 21,25.64 V 29.06 A 2.9,2.9 0 0,0 23.88,32 H 27.54 C 27.99,32 28.36,31.63 28.36,31.17 C 28.36,30.71 27.99,30.5 27.54,30.5 Z M 31.5,26 V 31.21 C 31.5,31.65 31.11,32 30.72,32 C 30.32,32 30,31.65 30,31.21 V 26.05 C 30,24.36 31.24,23 32.77,23 H 34.27 C 34.67,23 35,23.36 35,23.81 C 35,24.26 34.67,24.5 34.26,24.5 H 32.7 C 32,24.5 31.51,25.24 31.51,26 Z M 42,31.25 V 24.37 C 42,23.62 42.61,23.01 43.37,23.01 H 45.07 C 45.83,23.01 46.45,23.62 46.45,24.37 V 29.73 C 46.45,30.07 46.73,30.35 47.08,30.35 C 47.42,30.35 47.7,30.07 47.7,29.73 V 24.37 C 47.7,23.62 48.32,23.01 49.08,23.01 H 50.63 C 51.39,23.01 52,23.62 52,24.37 V 31.2 C 52,31.65 51.7,32.01 51.26,32.01 C 50.81,32.01 50.5,31.65 50.5,31.21 V 25.18 C 50.5,24.86 50.07,24.51 49.75,24.51 C 49.33,24.51 49,24.86 49,25.18 V 29.67 C 49,30.72 48.34,31.57 47.28,31.57 H 46.74 C 45.68,31.57 45,30.72 45,29.67 V 25.23 C 45,24.88 44.6,24.51 44.25,24.51 S 43.5,24.88 43.5,25.23 V 31.25 C 43.5,31.67 43.2,32.01 42.77,32.01 A 0.77,0.77 0 0,1 42,31.25 Z" fill="rgb(254, 254, 253)"/>
<defs>
<linearGradient id="a" x2="56" y1="28" y2="28" gradientUnits="userSpaceOnUse">
<stop stop-color="rgb(117, 46, 121)" offset="0"/>
<stop stop-color="rgb(238, 134, 48)" offset="1"/>
</linearGradient>
</defs>
</svg>
