<?xml version="1.0" encoding="UTF-8"?>
<!-- generated by Finnhub -->
<svg viewBox="0 0 55.5 55.5" xmlns="http://www.w3.org/2000/svg">
<path d="M 0,0 H 55.5 V 55.5 H 0 Z" fill="url(#a)"/>
<path d="M 12.24,32.735 L 19.35,16 H 19.78 L 24.16,26.03 A 69.2,69.2 0 0,1 33.06,24.13 C 33.37,20.05 29.89,18.99 28.08,18.98 C 25.02,18.98 24,21.1 23.87,22.16 H 23.23 C 23.07,19.93 24.3,16 29.02,16 C 33.72,16 34.72,20.13 34.72,21.48 C 34.72,22.41 34.48,23.41 34.32,23.95 C 35.61,23.78 36.85,23.65 38,23.55 V 19.07 C 38,18.29 37.23,18.42 36.92,18.58 L 35.11,19.26 C 35.03,19.06 34.87,18.63 34.87,18.58 L 40.11,16 H 41 V 23.35 C 42.19,23.3 43.2,23.29 44,23.3 C 23.96,24.61 15.61,30.77 13.2,34.03 C 11.27,36.63 13.66,37.02 15.09,37 V 38 H 8 V 37 H 8.69 C 8.9,37 9.33,37 9.67,36.38 L 9.72,36.28 C 10.01,35.76 10.76,34.38 12.25,32.75 Z M 13.37,31.63 A 22.17,22.17 0 0,1 20.81,27.13 L 18.2,20.43 L 13.37,31.63 Z M 24.75,35.59 L 21.65,28.94 L 24.75,27.64 L 27.15,33.48 C 28.87,31.82 32.14,28.15 32.81,25.34 L 33.97,25.08 C 33.16,27.09 30.71,31.64 27.36,34.01 L 27.76,35 H 33.46 C 34.26,35 34.89,33.84 35.1,33.42 L 36.25,30.18 L 36.86,30.28 L 34.34,38 H 22 V 37.46 L 24.75,35.59 Z M 38,35.9 V 24.3 C 38.82,24.13 40.28,23.89 41,23.8 V 35.9 C 41,36.65 41.7,37 42.44,37 H 44.1 V 38 H 35 V 37 H 36.59 C 37.33,37 38,36.65 38,35.9 Z M 42.3,22.41 L 44.37,23.22 L 42.94,24.69 L 45,23.16 L 42.3,22.41 Z" fill="rgb(254, 254, 253)"/>
<defs>
<linearGradient id="a" x1="10.42" x2="68.15" y1="9.71" y2="76.02" gradientUnits="userSpaceOnUse">
<stop stop-color="rgb(25, 29, 31)" offset="0"/>
<stop stop-color="rgb(5, 5, 8)" offset="1"/>
</linearGradient>
</defs>
</svg>
