<?xml version="1.0" encoding="UTF-8"?>
<!-- generated by Finnhub -->
<svg viewBox="0 0 55.5 55.5" xmlns="http://www.w3.org/2000/svg">
<path d="M 0,0 H 55.5 V 55.5 H 0 Z" fill="rgb(239, 242, 248)"/>
<path d="M 22.72,29.755 C 22.6,22.72 17.53,21 15,21 C 17.5,21.42 18.92,23.4 19.04,34.67 C 19.14,43.69 25.12,45.29 28,44.97 C 23.35,44.62 22.89,38.58 22.73,29.77 Z" fill="rgb(1, 107, 185)"/>
<path d="M 33.260000000000005,21.755 C 33.4,14.72 38.47,13 41,13 C 38.5,13.42 36.86,15.4 36.74,26.67 C 36.65,35.69 30.88,37.29 28,36.97 C 32.65,36.62 33.11,30.58 33.27,21.77 Z" fill="rgb(239, 63, 39)"/>
<circle cx="28" cy="25.5" r="3.5" fill="rgb(1, 107, 185)"/>
<circle cx="28" cy="16.5" r="3.5" fill="rgb(239, 63, 39)"/>
</svg>
