<?xml version="1.0" encoding="UTF-8"?>
<!-- generated by Finnhub -->
<svg viewBox="0 0 55.5 55.5" xmlns="http://www.w3.org/2000/svg">
<path d="M 0,0 H 55.5 V 55.5 H 0 Z" fill="rgb(239, 242, 248)"/>
<path d="M 35.99,16.665 C 33.5,16.24 30.8,16 28,16 C 14.75,16 4,21.37 4,28 C 4,34.63 14.75,40 28,40 S 52,34.63 52,28 C 52,24.96 49.73,22.18 46,20.06 V 21.22 C 49.28,23.2 51,25.61 51,28 C 51,30.73 48.76,33.47 44.52,35.6 C 40.35,37.67 34.51,39 28,39 C 21.5,39 15.65,37.68 11.48,35.6 C 7.24,33.46 5,30.72 5,28 C 5,25.27 7.24,22.53 11.48,20.4 C 15.65,18.33 21.49,17 28,17 C 30.82,17 33.51,17.25 36,17.7 V 16.68 Z" fill="rgb(216, 216, 215)"/>
<path d="M 40.120000000000005,19.685 L 38.03,19 H 38 L 40.36,19.22 L 38.13,16.58 L 40.63,18.78 V 17.54 L 41.15,18.82 L 42.5,16 L 41.62,18.99 L 43.5,18 L 41.99,19.35 L 45.09,19.5 L 41.99,19.85 L 43.72,21.06 L 42.05,20.47 L 44,23 L 41.5,20.57 L 41.62,22.52 L 41.02,20.7 L 39.5,24.5 L 40.5,20.7 L 38.5,22.5 L 40.3,20.16 L 37,21.06 L 40.13,19.69 Z" fill="rgb(237, 57, 65)"/>
<path d="M 24.99,30.485 A 2.5,2.5 0 1,0 25,25.5 A 2.5,2.5 0 0,0 25,30.5 Z M 25,31 A 3,3 0 1,0 25,25 A 3,3 0 0,0 25,31 Z" fill-rule="evenodd"/>
<path d="M 34.49,27.985 A 2.5,2.5 0 1,1 29.5,28 A 2.5,2.5 0 0,1 34.5,28 Z M 34.5,26.34 A 3,3 0 1,0 34.5,29.66 V 31 C 34.5,32 33.66,33.5 32,33.5 C 30.34,33.5 29.5,32.5 29.5,32 H 29 C 29,32.33 29.6,34 32,34 S 35,32 35,31 V 25 H 34.5 V 26.34 Z M 13.5,28 A 2.5,2.5 0 1,0 8.5,28 A 2.5,2.5 0 0,0 13.5,28 Z M 13.5,29.66 A 3,3 0 1,1 13.5,26.34 V 25 C 13.5,24 12.66,22.5 11,22.5 C 9.34,22.5 8.5,23.5 8.5,24 H 8 C 8,23.67 8.6,22 11,22 S 14,24 14,25 V 31 H 13.5 V 29.66 Z M 20.5,28 A 2.5,2.5 0 1,1 15.5,28 A 2.5,2.5 0 0,1 20.5,28 Z M 15.5,29.66 A 3,3 0 1,0 15.5,26.34 V 25 H 15 V 33 H 15.5 V 29.66 Z M 39,30.5 A 2.5,2.5 0 0,0 41.3,29 H 41.83 A 3,3 0 1,1 42,28 H 36.5 A 2.5,2.5 0 0,0 39,30.5 Z M 36.55,27.5 H 41.45 A 2.5,2.5 0 0,0 36.55,27.5 Z M 46,30.5 A 2.5,2.5 0 0,0 48.3,29 H 48.83 A 3,3 0 1,1 49,28 H 43.5 A 2.5,2.5 0 0,0 46,30.5 Z M 43.55,27.5 H 48.45 A 2.5,2.5 0 0,0 43.55,27.5 Z"/>
</svg>
