<?xml version="1.0" encoding="UTF-8"?>
<!-- generated by Finnhub -->
<svg viewBox="0 0 55.5 55.5" xmlns="http://www.w3.org/2000/svg">
<path d="M 0,0 H 55.5 V 55.5 H 0 Z" fill="rgb(1, 142, 188)"/>
<path d="M 39.77,29.570999999999998 C 39.93,29.078 40.004,28.548 40,28.016 A 5.425,5.425 0 0,0 39.78,26.439 A 3.7,3.7 0 0,0 39.112,25.172 A 3.205,3.205 0 0,0 38.016,24.311 A 3.813,3.813 0 0,0 35.002,24.311 C 34.582,24.505 34.205,24.795 33.9,25.159 C 33.598,25.529 33.371,25.959 33.233,26.426 A 5.358,5.358 0 0,0 33,28.016 A 5.297,5.297 0 0,0 33.227,29.586 C 33.365,30.052 33.592,30.483 33.894,30.852 C 34.197,31.218 34.574,31.505 34.996,31.695 A 3.872,3.872 0 0,0 38.01,31.695 A 3.09,3.09 0 0,0 39.106,30.852 C 39.409,30.483 39.638,30.052 39.779,29.586 Z M 36.517,31 C 35.096,31 34.031,29.968 34,28 C 33.972,26.281 34.912,25.002 36.517,25 C 38.121,24.998 39.036,26.61 39,28.022 C 38.964,29.434 37.937,31 36.517,31 Z M 51.78,29.586 C 51.93,29.078 52.004,28.548 52,28.016 A 5.425,5.425 0 0,0 51.78,26.439 A 3.7,3.7 0 0,0 51.112,25.172 A 3.205,3.205 0 0,0 50.016,24.311 A 3.813,3.813 0 0,0 47.002,24.311 C 46.582,24.505 46.205,24.795 45.9,25.159 C 45.598,25.529 45.371,25.959 45.233,26.426 A 5.358,5.358 0 0,0 45,28.016 A 5.297,5.297 0 0,0 45.227,29.586 C 45.365,30.052 45.592,30.483 45.894,30.852 C 46.197,31.218 46.574,31.505 46.996,31.695 A 3.872,3.872 0 0,0 50.01,31.695 A 3.09,3.09 0 0,0 51.106,30.852 C 51.409,30.483 51.638,30.052 51.779,29.586 Z M 48.517,31 C 47.096,31 46.031,29.968 46,28 C 45.972,26.281 46.912,25.002 48.517,25 C 50.121,24.998 51.036,26.61 51,28.022 C 50.964,29.434 49.937,31 48.517,31 Z M 21.177,25.213 A 3.098,3.098 0 0,0 20.109,24.308 A 3.264,3.264 0 0,0 18.623,24.002 A 3.436,3.436 0 0,0 17.186,24.308 C 16.905,24.446 16.616,24.671 16.428,24.86 A 4.63,4.63 0 0,1 15.998,25.238 V 24.413 A 0.412,0.412 0 0,0 15.6,24 H 15.394 A 0.405,0.405 0 0,0 15.001,24.413 V 34.587 C 15.001,34.813 15.176,34.997 15.394,35.001 H 15.599 C 15.819,35.001 15.999,34.816 15.999,34.587 V 31.236 A 3.577,3.577 0 0,1 15.999,30.821 C 16.503,31.236 17.169,31.801 18.009,31.956 C 18.213,31.994 18.418,31.996 18.624,32 A 3.343,3.343 0 0,0 20.116,31.707 C 20.528,31.51 20.891,31.217 21.178,30.853 A 3.71,3.71 0 0,0 21.792,29.579 A 5.597,5.597 0 0,0 22.001,28.029 A 5.437,5.437 0 0,0 21.786,26.481 A 3.963,3.963 0 0,0 21.178,25.213 Z M 18.527,31 C 16.756,30.984 16.007,29.388 16,28 C 16.002,26.653 16.953,24.995 18.623,25 C 20.293,25.005 21,26.687 21,28.03 C 21.007,29.405 20.299,31.016 18.527,31 Z M 29.177,25.213 A 3.098,3.098 0 0,0 28.109,24.308 A 3.264,3.264 0 0,0 26.623,24.002 A 3.436,3.436 0 0,0 25.186,24.308 C 24.905,24.446 24.616,24.671 24.428,24.86 A 4.63,4.63 0 0,1 23.998,25.238 V 24.413 A 0.412,0.412 0 0,0 23.6,24 H 23.394 A 0.405,0.405 0 0,0 23.001,24.413 V 34.587 C 23.001,34.813 23.176,34.997 23.394,35.001 H 23.599 C 23.819,35.001 23.999,34.816 23.999,34.587 V 31.236 A 3.577,3.577 0 0,1 23.999,30.821 C 24.502,31.236 25.169,31.801 26.009,31.956 C 26.213,31.994 26.418,31.996 26.624,32 A 3.343,3.343 0 0,0 28.116,31.707 C 28.528,31.51 28.891,31.217 29.178,30.853 A 3.71,3.71 0 0,0 29.792,29.579 A 5.597,5.597 0 0,0 30.001,28.029 A 5.437,5.437 0 0,0 29.786,26.481 A 3.963,3.963 0 0,0 29.178,25.213 Z M 26.527,31 C 24.756,30.984 24.007,29.388 24,28 C 24.002,26.653 24.953,24.995 26.623,25 C 28.293,25.005 29,26.687 29,28.03 C 29.007,29.405 28.299,31.016 26.527,31 Z M 41.323,22 H 41.677 C 41.855,22 42,22.171 42,22.383 V 31.617 C 42,31.829 41.855,32 41.677,32 H 41.323 C 41.145,32 41,31.829 41,31.617 V 22.383 C 41,22.171 41.145,22 41.323,22 Z M 30.15,25.998 H 30.58 C 30.8,25.998 31,26.067 31,26.28 V 31.614 C 31,31.825 31.168,31.997 31.384,32 H 31.618 A 0.384,0.384 0 0,0 32.001,31.614 V 26.28 C 32.001,26.07 32.162,26.001 32.379,25.998 H 32.939 A 0.39,0.39 0 0,0 33.329,25.618 V 25.334 C 33.329,25.124 33.155,25.004 32.939,25 H 32.306 C 32.091,25 32.001,24.681 32.001,24.472 V 23.459 C 32.001,22.939 32.919,23.005 33.329,23.005 C 33.483,23.005 33.548,22.937 33.548,22.729 V 22.499 C 33.548,22.214 33.573,22.005 33.328,22.005 C 32.251,22.005 31,22.498 31,23.4 V 24.472 C 30.997,24.682 30.856,25 30.64,25 H 30.143 C 29.927,25.003 29.753,25.13 29.753,25.34 V 25.619 C 29.757,25.829 29.933,25.999 30.149,25.999 Z M 43.323,24 H 43.677 C 43.855,24 44,24.19 44,24.423 V 31.577 C 44,31.81 43.855,32 43.677,32 H 43.323 C 43.145,32 43,31.81 43,31.577 V 24.423 C 43,24.19 43.145,24 43.323,24 Z M 10.948,28.239 C 10.798,28.278 10.645,28.308 10.491,28.329 C 10.081,28.389 9.659,28.445 9.225,28.491 C 8.822,28.534 8.425,28.606 8.036,28.707 C 7.711,28.787 7.411,28.927 7.156,29.115 A 0.901,0.901 0 0,0 6.812,29.875 A 1.04,1.04 0 0,0 6.954,30.429 C 7.051,30.589 7.184,30.731 7.347,30.847 C 7.522,30.967 7.724,31.058 7.941,31.114 C 8.154,31.174 8.376,31.204 8.601,31.204 C 8.96,31.206 9.317,31.159 9.659,31.064 A 2.77,2.77 0 0,0 10.539,30.645 C 11.065,30.254 11.357,29.683 11.335,29.09 V 28.032 H 11.305 A 0.57,0.57 0 0,1 10.948,28.239 Z" fill="rgb(254, 254, 253)"/>
<path d="M 8.99,22.985 A 5,5 0 1,0 9,33 A 5,5 0 0,0 9,23 Z M 10.2,31.698 C 9.055,32.083 7.707,31.971 6.69,31.301 C 6.69,31.301 5.2,30.215 6.257,28.901 C 7.167,27.781 8.854,27.802 10.171,27.64 C 11.233,27.64 11.713,26.726 11.263,25.743 A 1.273,1.273 0 0,0 10.813,25.239 A 1.802,1.802 0 0,0 10.146,24.981 C 9.361,24.856 8.5,24.868 7.83,25.347 A 2.137,2.137 0 0,0 7.127,26.499 C 7.055,26.728 6.929,26.847 6.701,26.836 A 0.432,0.432 0 0,1 6.251,26.451 C 6.321,25.796 6.689,25.141 7.211,24.741 C 7.849,24.257 8.677,24.097 9.462,24.098 C 10.056,24.1 10.707,24.256 11.202,24.585 C 12.341,25.368 12.188,26.397 12.215,28 C 12.241,29.603 12.009,31.089 10.201,31.698 Z" fill="rgb(254, 254, 253)"/>
</svg>
