<?xml version="1.0" encoding="UTF-8"?>
<!-- generated by Finnhub -->
<svg viewBox="0 0 55.5 55.5" xmlns="http://www.w3.org/2000/svg">
<path d="M 0,0 H 55.5 V 55.5 H 0 Z" fill="rgb(239, 242, 248)"/>
<path d="M 41.567,19.378999999999998 A 9.145,9.145 0 0,0 33.645,14.806 A 9.145,9.145 0 0,0 25.712,19.394 A 18.555,18.555 0 0,1 33.645,17.625 C 36.481,17.625 39.17,18.26 41.577,19.394 Z" fill="rgb(238, 84, 46)"/>
<path d="M 31.505,12.299999999999999 A 9.144,9.144 0 0,0 22.662,14.679 A 9.144,9.144 0 0,0 20.297,23.532 A 18.546,18.546 0 0,1 24.655,16.673 A 18.55,18.55 0 0,1 31.515,12.315 Z" fill="rgb(244, 144, 28)"/>
<path d="M 19.383999999999997,14.408999999999999 A 9.144,9.144 0 0,0 14.806,22.355 A 9.144,9.144 0 0,0 19.394,30.287 A 18.552,18.552 0 0,1 17.625,22.356 C 17.625,19.519 18.26,16.83 19.394,14.424 Z" fill="rgb(254, 203, 35)"/>
<mask id="a" x="12" y="24" width="12" height="13" maskUnits="userSpaceOnUse">
<path d="M 11.99,24.47 H 23.532 V 36.018 H 12 V 24.485 Z" fill="rgb(254, 254, 253)"/>
</mask>
<g mask="url(#a)">
<path d="M 12.305,24.47 A 9.144,9.144 0 0,0 14.679,33.338 A 9.146,9.146 0 0,0 23.532,35.703 A 18.56,18.56 0 0,1 16.672,31.345 A 18.56,18.56 0 0,1 12.315,24.485 Z" fill="rgb(183, 206, 48)"/>
</g>
<path d="M 14.414,36.591 A 9.144,9.144 0 0,0 22.355,41.194 A 9.145,9.145 0 0,0 30.288,36.606 A 18.556,18.556 0 0,1 22.355,38.374 C 19.519,38.374 16.83,37.74 14.424,36.606 Z" fill="rgb(29, 162, 76)"/>
<path d="M 24.474999999999998,43.67 A 9.145,9.145 0 0,0 33.338,41.321 A 9.145,9.145 0 0,0 35.703,32.468 A 18.557,18.557 0 0,1 31.345,39.328 A 18.553,18.553 0 0,1 24.485,43.685 Z" fill="rgb(65, 143, 203)"/>
<path d="M 36.596000000000004,41.562 A 9.144,9.144 0 0,0 41.194,33.645 A 9.144,9.144 0 0,0 36.606,25.712 A 18.556,18.556 0 0,1 38.375,33.645 C 38.375,36.481 37.74,39.17 36.606,41.576 Z" fill="rgb(110, 83, 159)"/>
<path d="M 43.675000000000004,31.5 A 9.144,9.144 0 0,0 41.321,22.662 A 9.145,9.145 0 0,0 32.468,20.297 C 34.972,21.197 37.321,22.649 39.327,24.655 A 18.554,18.554 0 0,1 43.685,31.515 Z" fill="rgb(206, 23, 114)"/>
</svg>
