<?xml version="1.0" encoding="UTF-8"?>
<!-- generated by Finnhub -->
<svg viewBox="0 0 55.5 55.5" xmlns="http://www.w3.org/2000/svg">
<path d="M 0,0 H 55.5 V 55.5 H 0 Z" fill="rgb(239, 242, 248)"/>
<path d="M 43.49,26.055 L 45.66,16 H 12.3 L 10,26.14 S 12.52,29.4 12.52,33.18 C 12.52,37.19 10.12,40 10.12,40 H 43.7 S 46,37.25 46,32.67 C 46,28.49 43.5,26.07 43.5,26.07 Z" fill="rgb(1, 83, 162)"/>
<path d="M 17.99,27.985 V 22 H 17.27 V 23.2 A 2.74,2.74 0 0,0 14.97,22 C 14.16,22 13.46,22.3 12.87,22.88 A 2.89,2.89 0 0,0 12,24.98 C 12,25.82 12.29,26.54 12.87,27.12 C 13.44,27.71 14.14,28 14.95,28 A 2.85,2.85 0 0,0 17.27,26.87 V 28 H 18 Z M 13.89,23.01 C 14.24,22.81 14.63,22.71 15.04,22.71 A 2.2,2.2 0 0,1 16.66,23.38 C 17.1,23.82 17.32,24.37 17.32,25.03 C 17.32,25.43 17.22,25.84 17.02,26.2 A 2.33,2.33 0 0,1 15.02,27.33 A 2.26,2.26 0 0,1 13.05,26.17 A 2.3,2.3 0 0,1 13.9,23 Z M 39.52,30 A 0.3,0.3 0 0,1 39.73,30.09 A 0.3,0.3 0 0,1 39.52,30.6 A 0.3,0.3 0 0,1 39.31,30.51 A 0.3,0.3 0 0,1 39.24,30.19 A 0.3,0.3 0 0,1 39.31,30.09 A 0.3,0.3 0 0,1 39.51,30 Z M 39.34,31 H 39.7 V 34 H 39.34 V 31 Z M 13.5,30 H 13.87 V 31 H 14.46 V 31.33 H 13.87 V 34 H 13.5 V 31.33 H 13 V 31 H 13.5 V 30 Z M 15,30 H 15.37 V 31.63 C 15.62,31.28 16.01,31 16.44,31 C 16.84,31 17.23,31.28 17.38,31.65 C 17.46,31.83 17.5,32.12 17.5,32.51 V 34 H 17.13 V 32.62 C 17.13,32.29 17.12,32.07 17.09,31.96 C 17.03,31.61 16.72,31.33 16.37,31.35 C 15.92,31.35 15.53,31.73 15.42,32.15 C 15.39,32.3 15.37,32.56 15.37,32.95 V 34 H 15 V 30 Z M 20.82,33.14 L 20.52,32.98 A 1.7,1.7 0 0,1 20.21,33.38 C 20.11,33.48 19.99,33.54 19.86,33.58 A 1.2,1.2 0 0,1 19.03,33.58 A 1,1 0 0,1 18.69,33.34 C 18.49,33.14 18.39,32.86 18.37,32.53 H 20.92 C 20.92,32.13 20.81,31.81 20.6,31.55 A 1.39,1.39 0 0,0 19.45,31 C 18.98,31 18.61,31.18 18.33,31.54 C 18.11,31.81 18,32.16 18,32.51 C 18,32.89 18.14,33.26 18.39,33.54 C 18.65,33.84 19.01,34 19.47,34 C 19.67,34 19.85,33.97 20.03,33.9 C 20.19,33.84 20.35,33.75 20.47,33.62 C 20.62,33.49 20.74,33.32 20.82,33.14 Z M 20.3,31.74 C 20.4,31.88 20.48,32.04 20.52,32.21 H 18.4 C 18.47,31.95 18.58,31.75 18.73,31.62 A 1.12,1.12 0 0,1 20.29,31.74 Z M 33.1,32.98 L 33.41,33.14 C 33.33,33.32 33.21,33.49 33.07,33.62 A 1.38,1.38 0 0,1 32.07,34 C 31.6,34 31.24,33.85 30.98,33.54 C 30.73,33.26 30.59,32.89 30.59,32.51 C 30.59,32.16 30.7,31.81 30.92,31.54 C 31.2,31.18 31.57,31 32.04,31 C 32.52,31 32.91,31.18 33.2,31.55 C 33.4,31.81 33.5,32.14 33.5,32.53 H 30.97 C 30.97,32.86 31.07,33.13 31.28,33.34 A 1,1 0 0,0 32.03,33.66 A 1.2,1.2 0 0,0 32.8,33.38 C 32.92,33.27 33.03,33.13 33.1,32.98 Z M 33.1,32.21 C 33.07,32.04 33,31.88 32.9,31.74 A 1.12,1.12 0 0,0 32.05,31.34 C 31.78,31.34 31.53,31.44 31.33,31.62 C 31.19,31.75 31.08,31.95 31,32.22 H 33.1 Z M 21.98,31 H 21.6 V 34 H 21.98 V 33.01 C 21.98,32.51 22,32.17 22.04,32 A 0.98,0.98 0 0,1 22.31,31.52 C 22.41,31.42 22.53,31.37 22.66,31.37 A 0.5,0.5 0 0,1 22.86,31.42 L 23.05,31.1 A 0.66,0.66 0 0,0 22.72,31 A 0.7,0.7 0 0,0 22.33,31.12 C 22.19,31.22 22.07,31.35 21.98,31.5 V 31 Z M 26.23,31 V 34 H 25.87 V 33.44 A 1.44,1.44 0 0,1 23.69,33.56 A 1.47,1.47 0 0,1 23.26,32.49 A 1.45,1.45 0 0,1 23.7,31.44 A 1.41,1.41 0 0,1 24.74,31 A 1.35,1.35 0 0,1 25.87,31.6 V 31 H 26.23 Z M 24.77,31.35 A 1.1,1.1 0 0,0 23.79,31.93 A 1.16,1.16 0 0,0 23.79,33.08 A 1.12,1.12 0 0,0 24.76,33.66 A 1.14,1.14 0 0,0 25.75,33.1 C 25.85,32.92 25.9,32.72 25.89,32.51 A 1.13,1.13 0 0,0 24.77,31.35 Z M 27.38,31 H 27 V 35 H 27.37 V 33.43 A 1.46,1.46 0 0,0 28.77,33.98 C 29.49,33.85 30.01,33.22 30,32.5 C 30,32.3 29.97,32.11 29.9,31.93 A 1.51,1.51 0 0,0 28.5,31 C 28.05,31 27.62,31.23 27.36,31.6 V 31 Z M 27.35,32.53 A 1.15,1.15 0 0,1 28.49,31.36 A 1.15,1.15 0 1,1 28.49,33.66 C 27.86,33.66 27.34,33.16 27.35,32.53 Z M 34.25,31 H 34.61 V 32.37 C 34.61,32.7 34.63,32.93 34.66,33.05 C 34.71,33.23 34.82,33.38 34.96,33.48 C 35.12,33.58 35.31,33.64 35.5,33.63 C 35.68,33.64 35.87,33.59 36.02,33.48 C 36.16,33.38 36.27,33.25 36.32,33.08 C 36.36,32.97 36.37,32.73 36.37,32.37 V 31 H 36.75 V 32.44 C 36.75,32.84 36.71,33.14 36.61,33.34 C 36.53,33.54 36.38,33.71 36.2,33.83 A 1.3,1.3 0 0,1 35.5,34 C 35.22,34 34.99,33.94 34.8,33.83 A 1.06,1.06 0 0,1 34.38,33.34 A 2.4,2.4 0 0,1 34.24,32.41 V 31 Z M 38.26,30 H 37.89 V 31 H 37.39 V 31.34 H 37.89 V 34 H 38.26 V 31.34 H 38.85 V 31 H 38.26 V 30 Z M 42.97,31.85 L 43.27,31.67 A 1.23,1.23 0 0,0 42.95,31.31 A 1.74,1.74 0 0,0 41.15,31.2 A 1.5,1.5 0 0,0 40.81,33.57 C 41.11,33.86 41.48,34 41.93,34 C 42.2,34 42.47,33.95 42.72,33.83 C 42.94,33.73 43.12,33.56 43.26,33.35 L 42.97,33.16 A 1.31,1.31 0 0,1 41.33,33.51 A 1.16,1.16 0 0,1 41.08,31.68 A 1.19,1.19 0 0,1 41.95,31.35 C 42.38,31.35 42.72,31.51 42.97,31.85 Z M 45.39,31.39 L 45.16,31.63 C 44.96,31.44 44.77,31.34 44.59,31.34 A 0.43,0.43 0 0,0 44.29,31.46 A 0.36,0.36 0 0,0 44.16,31.74 C 44.16,31.84 44.2,31.93 44.26,32 C 44.33,32.09 44.48,32.19 44.7,32.3 C 44.97,32.45 45.15,32.58 45.25,32.71 C 45.35,32.84 45.4,33 45.39,33.16 A 0.81,0.81 0 0,1 45.15,33.76 A 0.84,0.84 0 0,1 44.54,34 A 1.06,1.06 0 0,1 43.7,33.6 L 43.93,33.33 C 44.12,33.55 44.31,33.65 44.53,33.65 A 0.53,0.53 0 0,0 45.01,33.36 A 0.44,0.44 0 0,0 44.95,32.9 A 1.64,1.64 0 0,0 44.49,32.6 A 1.47,1.47 0 0,1 43.97,32.2 A 0.75,0.75 0 0,1 43.83,31.76 A 0.73,0.73 0 0,1 44.31,31.06 C 44.41,31.01 44.51,31 44.61,31 C 44.87,31 45.13,31.13 45.39,31.39 Z M 42,22 V 28 H 41.27 V 26.87 A 2.85,2.85 0 0,1 38.96,28 C 38.14,28 37.44,27.7 36.86,27.12 A 2.93,2.93 0 0,1 36,25 A 2.87,2.87 0 0,1 36.87,22.89 A 2.86,2.86 0 0,1 38.97,22.01 A 2.74,2.74 0 0,1 41.27,23.21 V 22 H 42 Z M 39.04,22.71 A 2.25,2.25 0 0,0 37.06,23.86 A 2.3,2.3 0 0,0 37.06,26.16 A 2.26,2.26 0 0,0 40.18,27.02 C 40.53,26.82 40.83,26.54 41.02,26.2 C 41.22,25.84 41.32,25.44 41.32,25.03 A 2.26,2.26 0 0,0 39.04,22.71 Z M 19.74,22 H 19 V 30 H 19.74 V 26.9 A 2.96,2.96 0 0,0 25,25 A 3,3 0 0,0 22.03,22 A 2.76,2.76 0 0,0 19.74,23.2 V 22 Z M 19.69,25.05 C 19.69,23.8 20.69,22.69 21.97,22.71 A 2.32,2.32 0 0,1 24.25,25.03 A 2.3,2.3 0 0,1 21.98,27.32 C 20.71,27.32 19.67,26.32 19.68,25.05 Z M 26,22 H 26.75 V 23 C 26.97,22.67 27.2,22.42 27.45,22.25 C 27.68,22.09 27.95,22 28.22,22 C 28.45,22 28.67,22.08 28.87,22.2 L 28.49,22.83 A 1,1 0 0,0 28.1,22.73 C 27.86,22.73 27.62,22.83 27.4,23.04 C 27.17,23.24 27,23.57 26.88,24 C 26.79,24.33 26.75,25 26.75,26.02 V 28 H 26 V 22 Z M 34.8,26.28 L 34.18,25.96 C 33.95,26.33 33.74,26.6 33.54,26.76 A 2.53,2.53 0 0,1 31.12,27.16 C 30.85,27.06 30.62,26.89 30.42,26.69 A 2.44,2.44 0 0,1 29.77,25 H 35 A 2.9,2.9 0 0,0 34.36,23.1 A 2.89,2.89 0 0,0 31.98,22 A 2.8,2.8 0 0,0 29.68,23.08 A 3.06,3.06 0 0,0 29.8,27.08 A 2.8,2.8 0 0,0 32.03,28 C 32.42,28 32.81,27.94 33.18,27.8 C 33.52,27.68 33.83,27.5 34.09,27.25 C 34.39,26.97 34.63,26.65 34.81,26.28 Z M 32,22.7 C 33.1,22.7 33.92,23.37 34.18,24.38 H 29.84 C 30.14,23.4 30.9,22.68 31.99,22.7 Z" fill="rgb(200, 201, 202)"/>
</svg>
