<?xml version="1.0" encoding="UTF-8"?>
<!-- generated by Finnhub -->
<svg viewBox="0 0 55.5 55.5" xmlns="http://www.w3.org/2000/svg">
<path d="M 0,0 H 55.5 V 55.5 H 0 Z" fill="rgb(158, 27, 46)"/>
<path d="M 35.851,24.403 C 35.749,24.238 35.561,24.093 35.356,23.964 C 35.228,23.902 35.039,23.857 34.889,24.032 C 34.687,24.268 34.794,24.582 34.902,24.733 C 34.918,24.755 34.933,24.773 34.948,24.787 C 34.95,24.789 34.948,24.791 34.95,24.793 C 35.031,24.897 35.108,25.005 35.176,25.123 C 35.402,25.52 35.647,26.139 35.562,26.623 A 0.776,0.776 0 0,1 35.13,27.213 C 34.71,27.423 34.79,27.634 34.585,28.023 C 34.055,29.028 33.065,29.634 31.998,29.14 C 31.045,28.698 30.486,27.666 30.486,26.603 V 26.584 C 30.486,26.224 30.489,25.614 30.658,25.293 C 30.861,24.905 31.378,24.76 31.68,24.475 C 32.38,23.815 33.297,23.722 34.066,24.081 L 34.072,24.084 L 34.128,24.113 C 34.231,24.157 34.44,24.203 34.563,23.91 C 34.663,23.671 34.533,23.528 34.413,23.45 A 3.294,3.294 0 0,0 33.031,23.146 C 32.507,23.146 31.811,23.166 31.31,23.326 C 30.797,23.491 30.434,23.782 30.233,24.292 A 9.555,9.555 0 0,1 30.023,24.78 A 0.528,0.528 0 0,0 30.095,25.157 C 30.209,25.365 30.343,25.547 30.224,25.888 C 30.104,26.228 29.747,26.248 29.747,26.248 S 29.645,26.273 29.637,26.478 C 29.64,26.528 29.641,26.578 29.645,26.629 C 29.715,27.43 30.03,28.273 30.465,28.833 A 3.208,3.208 0 0,0 33.012,30.061 C 33.682,30.061 34.276,29.87 34.772,29.549 C 34.814,29.529 34.853,29.509 34.888,29.488 A 0.401,0.401 0 0,1 35.105,29.424 C 35.354,29.42 35.58,29.579 35.827,29.497 C 36.105,29.404 36.21,29.201 36.219,28.902 A 0.633,0.633 0 0,0 36.09,28.508 C 36.022,28.408 35.963,28.338 35.976,28.208 C 35.984,28.135 36.016,28.062 36.044,27.988 C 36.221,27.549 36.312,27.078 36.313,26.604 V 26.584 C 36.313,26.149 36.182,25.938 36.05,25.567 C 35.918,25.195 36.08,24.77 35.861,24.418 Z M 44.721,33.798 L 44.489,33.658 A 0.88,0.88 0 0,1 44.263,33.477 A 0.286,0.286 0 0,1 44.193,33.293 C 44.193,33.219 44.225,33.158 44.288,33.111 A 0.395,0.395 0 0,1 44.532,33.04 C 44.707,33.04 44.872,33.116 45.023,33.267 V 32.912 A 0.83,0.83 0 0,0 44.538,32.758 A 0.633,0.633 0 0,0 44.088,32.919 A 0.548,0.548 0 0,0 43.915,33.339 C 43.915,33.454 43.945,33.556 44.006,33.644 S 44.17,33.822 44.314,33.913 L 44.544,34.058 C 44.73,34.178 44.822,34.304 44.822,34.437 A 0.264,0.264 0 0,1 44.728,34.642 A 0.348,0.348 0 0,1 44.491,34.724 C 44.276,34.724 44.087,34.617 43.924,34.403 V 34.801 A 0.906,0.906 0 0,0 44.494,35 A 0.61,0.61 0 0,0 44.936,34.836 A 0.568,0.568 0 0,0 45.106,34.408 C 45.106,34.161 44.978,33.958 44.72,33.798 Z M 41.164,34.013 H 42.029 V 33.733 H 41.164 V 33.065 H 42.059 V 32.786 H 40.861 V 34.972 H 42.088 V 34.693 H 41.164 V 34.013 Z M 37.524,34.48 A 0.795,0.795 0 0,1 37.288,33.888 C 37.288,33.65 37.368,33.451 37.528,33.293 A 0.82,0.82 0 0,1 38.131,33.056 C 38.367,33.056 38.608,33.129 38.855,33.275 V 32.938 A 1.851,1.851 0 0,0 38.115,32.758 C 37.794,32.758 37.524,32.866 37.305,33.084 C 37.085,33.301 36.975,33.569 36.975,33.887 C 36.975,34.087 37.023,34.275 37.119,34.447 C 37.211,34.616 37.346,34.756 37.509,34.853 C 37.674,34.951 37.874,35 38.109,35 C 38.4,35 38.656,34.937 38.878,34.812 V 34.467 A 1.336,1.336 0 0,1 38.128,34.712 A 0.826,0.826 0 0,1 37.524,34.48 Z M 34.706,34.486 L 33.282,32.786 H 33.037 V 34.975 H 33.321 V 33.289 L 34.734,34.975 H 34.994 V 32.786 H 34.706 V 34.486 Z M 30.17,34.013 H 31.036 V 33.733 H 30.17 V 33.065 H 31.066 V 32.786 H 29.868 V 34.972 H 31.095 V 34.693 H 30.17 V 34.013 Z M 27.486,34.975 H 27.788 V 32.786 H 27.486 V 34.975 Z M 24.146,34.48 A 0.795,0.795 0 0,1 23.91,33.888 C 23.91,33.65 23.99,33.451 24.15,33.293 A 0.82,0.82 0 0,1 24.753,33.056 C 24.988,33.056 25.23,33.129 25.477,33.275 V 32.938 A 1.85,1.85 0 0,0 24.737,32.758 C 24.416,32.758 24.145,32.866 23.926,33.084 C 23.706,33.301 23.597,33.569 23.597,33.887 C 23.597,34.087 23.645,34.275 23.741,34.447 C 23.833,34.616 23.968,34.756 24.131,34.853 C 24.295,34.951 24.496,35 24.731,35 C 25.022,35 25.278,34.937 25.5,34.812 V 34.467 A 1.336,1.336 0 0,1 24.75,34.712 A 0.825,0.825 0 0,1 24.146,34.48 Z M 21.348,33.799 L 21.118,33.657 A 0.879,0.879 0 0,1 20.892,33.477 A 0.286,0.286 0 0,1 20.822,33.293 C 20.822,33.219 20.853,33.158 20.917,33.111 A 0.395,0.395 0 0,1 21.16,33.04 C 21.336,33.04 21.5,33.116 21.652,33.267 V 32.912 A 0.83,0.83 0 0,0 21.166,32.758 A 0.633,0.633 0 0,0 20.716,32.919 A 0.547,0.547 0 0,0 20.543,33.339 C 20.543,33.454 20.573,33.556 20.635,33.644 C 20.695,33.732 20.798,33.822 20.942,33.913 L 21.172,34.058 C 21.358,34.178 21.451,34.304 21.451,34.437 A 0.26,0.26 0 0,1 21.356,34.642 A 0.348,0.348 0 0,1 21.12,34.724 C 20.905,34.724 20.716,34.617 20.552,34.403 V 34.801 A 0.91,0.91 0 0,0 21.122,35 A 0.61,0.61 0 0,0 21.565,34.836 A 0.568,0.568 0 0,0 21.735,34.408 C 21.735,34.161 21.606,33.958 21.348,33.798 Z M 18.118,34.472 A 0.795,0.795 0 0,1 17.528,34.712 A 0.8,0.8 0 0,1 16.708,33.888 C 16.708,33.644 16.786,33.444 16.941,33.288 A 0.806,0.806 0 0,1 17.538,33.053 C 17.767,33.053 17.961,33.132 18.118,33.29 A 0.797,0.797 0 0,1 18.355,33.875 A 0.815,0.815 0 0,1 18.118,34.472 Z M 17.525,32.755 C 17.199,32.755 16.929,32.862 16.715,33.075 C 16.502,33.29 16.395,33.561 16.395,33.888 A 1.082,1.082 0 0,0 17.509,35 C 17.842,35 18.119,34.894 18.338,34.683 C 18.557,34.471 18.666,34.204 18.666,33.881 C 18.666,33.559 18.558,33.291 18.341,33.076 A 1.114,1.114 0 0,0 17.525,32.755 Z M 14.23,34.975 H 14.532 V 32.786 H 14.23 V 34.975 Z M 11.951,34.531 A 0.324,0.324 0 0,1 11.809,34.656 C 11.75,34.683 11.638,34.696 11.473,34.696 H 11.175 V 34.002 H 11.457 C 11.607,34.002 11.717,34.016 11.787,34.042 A 0.34,0.34 0 0,1 11.948,34.166 A 0.334,0.334 0 0,1 11.951,34.531 Z M 11.175,33.065 H 11.435 C 11.693,33.065 11.822,33.17 11.822,33.38 A 0.325,0.325 0 0,1 11.72,33.628 C 11.652,33.691 11.537,33.723 11.376,33.723 H 11.175 V 33.065 Z M 11.813,33.817 C 12.027,33.724 12.135,33.57 12.135,33.355 A 0.562,0.562 0 0,0 12.058,33.06 A 0.53,0.53 0 0,0 11.834,32.859 A 0.935,0.935 0 0,0 11.426,32.786 H 10.872 V 34.975 H 11.588 A 0.874,0.874 0 0,0 11.991,34.892 A 0.612,0.612 0 0,0 12.235,34.677 A 0.549,0.549 0 0,0 12.318,34.377 A 0.525,0.525 0 0,0 12.181,34.014 A 0.647,0.647 0 0,0 11.813,33.817 Z M 29.334,25.833 C 29.54,25.771 29.619,25.63 29.628,25.423 C 29.64,25.143 29.514,25.183 29.328,25.083 C 29.328,25.083 29.288,25.055 29.254,25.059 C 28.691,25.125 28.744,26.011 29.334,25.833 Z M 35.537,22.21 S 35.472,22.16 35.413,22.167 C 34.475,22.285 34.565,23.865 35.546,23.547 C 35.891,23.436 36.023,23.186 36.037,22.817 C 36.057,22.317 35.847,22.389 35.537,22.21 Z M 34.924,21.775 C 35.131,21.712 35.21,21.572 35.218,21.365 C 35.231,21.085 35.104,21.125 34.919,21.025 C 34.919,21.025 34.879,20.997 34.844,21.001 C 34.282,21.067 34.336,21.953 34.924,21.775 Z M 29.855,29.552 S 29.789,29.502 29.73,29.508 C 28.793,29.626 28.882,31.206 29.864,30.889 C 30.209,30.777 30.34,30.527 30.354,30.159 C 30.374,29.659 30.164,29.731 29.855,29.552 Z M 52,25 V 24.016 H 47 V 30 H 52 V 29 H 48 V 27.497 H 51 V 26.497 H 48 V 25 H 52 Z M 41.593,26.703 C 40.818,26.518 39.5,26.853 39.5,25.796 C 39.5,25.38 39.942,25 40.877,25 C 41.548,25 42.324,25.233 42.748,25.47 L 43.026,24.384 C 42.576,24.164 41.764,24 40.926,24 C 39.338,24 38.5,24.923 38.5,25.796 C 38.5,26.523 38.965,27.277 39.971,27.497 C 40.607,27.642 42,27.498 42,28.353 C 42,28.899 41.588,29 40.715,29 C 39.929,29 39.215,28.73 38.809,28.493 L 38.606,29.512 C 38.986,29.715 39.85,30 40.715,30 C 42.135,30 43,29.381 43,28.353 C 43,27.569 42.652,26.963 41.593,26.703 Z M 22,25 H 24 V 30 H 25 V 25 H 27 V 24 H 22 V 25 Z M 16.14,27 H 15 V 25 H 16.14 C 16.871,25 17.5,25.175 17.5,26 C 17.5,26.75 16.871,27 16.14,27 Z M 16.573,24 H 14.005 V 30 H 15 V 28 H 16.47 C 17.616,28 18.5,27.224 18.5,26 C 18.5,24.645 17.72,24 16.573,24 Z M 5.817,28 L 7,25 L 8.215,28 H 5.817 Z M 6.5,24 L 3.98,29.999 H 5 L 5.462,29 H 8.55 L 9.001,29.999 H 10.001 L 7.5,24 H 6.5 Z" fill="rgb(254, 254, 253)"/>
</svg>
