<?xml version="1.0" encoding="UTF-8"?>
<!-- generated by Finnhub -->
<svg viewBox="0 0 55.5 55.5" xmlns="http://www.w3.org/2000/svg">
<path d="M 0,0 H 55.5 V 55.5 H 0 Z" fill="rgb(239, 242, 248)"/>
<path d="M 28.31,28.595 C 19.83,34.4 20.45,42.61 21.82,46 C 29.34,30.26 41.74,29.12 47,30.52 C 45.05,24.53 37.6,25.33 34.13,26.48 C 36.56,24.48 40.73,20.02 37.88,18.28 C 34.51,16.22 29.6,15.22 24.68,15.02 C 19.78,14.82 14.3,15.95 12.35,16.64 C 10.57,17.27 10.92,17.92 11.35,18.28 C 12.65,19.32 15.52,21.63 16.46,22.52 C 17.41,23.42 19.5,23.22 20.43,23.02 L 26.55,22.03 H 26.57 C 27.37,21.87 28.7,21.61 29.27,22.28 C 29.84,22.96 29.27,23.41 28.79,23.5 L 21.35,24.9 C 20.14,25.14 20.23,25.82 20.43,26.14 L 21.1,27.14 C 21.67,27.77 22.74,27.69 23.5,27.6 L 27.85,26.93 C 28.13,26.89 28.72,26.93 28.91,27.46 C 29.09,27.99 28.59,28.45 28.31,28.61 Z" fill="rgb(108, 193, 73)"/>
</svg>
