<?xml version="1.0" encoding="UTF-8"?>
<!-- generated by Finnhub -->
<svg viewBox="0 0 55.5 55.5" xmlns="http://www.w3.org/2000/svg">
<rect width="56" height="56" fill="rgb(239, 242, 248)"/>
<path d="M 15.899000000000001,21.973 C 15.921,21.994 15.9343,21.9973 15.9478,21.9976 S 15.9747,21.9953 15.987,21.9898 C 15.9992,21.9843 16.0101,21.9761 16.0187,21.9659 C 16.0274,21.9557 16.0336,21.9437 16.0369,21.9308 C 16.8989,18.6652 18.7344,16.0938 21.5435,14.2166 C 21.5595,14.2057 21.5729,14.1915 21.5829,14.1749 C 21.5928,14.1584 21.5989,14.1399 21.6008,14.1207 C 21.6027,14.1016 21.6003,14.0823 21.5938,14.0642 C 21.5874,14.0462 21.577,14.0297 21.5634,14.0161 C 21.0419,13.4996 20.713,12.9117 21.0298,12.1933 C 21.2898,11.6047 21.8035,11.237 22.4507,11.0937 C 23.4974,10.8623 24.4757,11.0613 25.3855,11.6908 C 25.7734,11.959 26.0015,12.2984 26.6309,12.2469 C 35.0844,11.5616 42.4979,17.3662 43.8109,25.6579 C 44.792,31.8499 41.902,38.1399 36.6518,41.4889 C 31.8315,44.5637 25.5568,44.8333 20.4978,42.2002 C 13.4872,38.5524 10.2928,30.1702 12.9075,22.7752 C 13.1263,22.1548 13.6094,21.6107 14.2843,21.5197 C 14.9202,21.4329 15.3699,21.7173 15.9091,21.9883 Z M 22.4805,13.2963 C 22.8237,13.5341 23.5824,13.8559 23.1775,14.3591 C 22.9224,14.6774 22.3747,15.3535 22.899,15.6965 C 23.4091,16.0296 23.917,15.6245 24.4236,15.3147 C 24.7632,15.1072 25.1241,15.2723 25.2285,15.6259 C 25.3535,16.0521 24.6751,16.5243 24.3412,16.6788 C 23.5298,17.0536 22.6603,16.9315 21.9619,16.3662 C 21.8246,16.0943 21.7161,15.8049 21.6365,15.4982 C 21.628,15.4652 21.6105,15.4596 21.584,15.4812 C 21.529,15.5259 21.4378,15.5986 21.3104,15.6993 C 19.7641,16.9239 18.5996,18.3947 17.8172,20.1115 L 17.6183,20.5829 C 17.3043,21.3469 17.0833,22.1108 16.9555,22.8744 C 16.9192,23.0896 16.8681,23.271 17.1608,23.2844 C 17.507,23.2999 17.8452,23.2877 18.1753,23.2477 C 18.4988,23.3361 18.772,23.3486 18.9951,23.2851 C 20.1839,23.5321 21.3007,23.8755 22.3455,24.3154 C 22.362,24.3224 22.3798,24.326 22.3977,24.3258 C 22.4157,24.3257 22.4334,24.3219 22.4498,24.3147 S 22.4809,24.297 22.493,24.2839 S 22.5144,24.2553 22.5203,24.2385 C 22.7391,23.6231 23.6194,23.8271 23.5938,24.4756 C 23.581,24.7932 23.6712,25.1073 23.9518,25.2512 C 24.1711,25.3632 24.3838,25.4818 24.5898,25.6069 C 25.179,26.0995 25.7706,26.6055 26.3645,27.1249 C 26.6359,27.362 27.0899,26.921 27.2362,26.7212 C 27.3918,26.6239 27.5211,26.5131 27.5253,26.3169 C 27.5296,26.1129 27.4039,25.6613 27.119,25.6676 C 26.9878,25.6709 26.8303,25.6702 26.6465,25.6655 C 26.4661,25.6274 26.2335,25.5514 25.9489,25.4375 C 25.399,25.2181 25.2576,24.8998 25.4324,24.3359 C 26.1045,23.7934 26.8431,23.3926 27.6483,23.1334 C 28.2592,22.9372 29.1182,22.8151 29.0286,23.7749 C 28.987,24.226 28.8101,24.6255 28.4979,24.9732 C 28.2891,25.2054 28.3949,25.6231 28.6109,25.7996 C 28.7052,25.8763 28.8513,25.9139 29.0492,25.9125 C 29.8947,25.9054 30.5113,25.5338 30.8992,24.7974 C 31.0257,24.5575 31.0875,24.1715 31.3106,24.0254 C 31.6203,23.8214 32.0856,24.0106 32.1112,24.3994 C 32.1901,25.6231 30.934,26.633 29.8684,26.8645 C 29.1167,27.0275 28.4461,26.8144 27.9708,27.6055 C 27.7676,27.7664 27.2014,27.9859 27.5396,28.3225 C 27.9616,28.7431 28.3428,29.1964 28.6834,29.6825 C 28.996,30.1278 29.3924,30.3705 29.9415,30.2873 C 30.1395,30.2571 30.2676,30.2466 30.3259,30.2555 C 30.5698,30.3722 30.8388,30.443 31.133,30.4679 C 32.0508,30.5463 33.0277,30.825 33.5179,31.6726 C 33.5287,31.6912 33.5442,31.7065 33.563,31.7172 C 33.5817,31.7279 33.6029,31.7334 33.6245,31.7332 C 33.6461,31.7331 33.6673,31.7273 33.6858,31.7164 C 33.7044,31.7055 33.7198,31.6899 33.7303,31.6712 L 34.5892,30.1383 C 34.7597,29.9725 34.9835,29.897 35.2144,29.9873 C 35.8091,30.2209 35.4297,30.9478 35.1796,31.3557 C 32.5602,35.9041 28.0681,38.3854 22.7736,38.0304 C 22.1987,37.9923 21.8389,37.9855 21.6945,38.01 C 20.2587,38.2577 19.8324,40.0072 20.8135,41.0149 C 20.9623,41.1683 21.1858,41.3149 21.4842,41.4546 C 24.4851,42.8618 27.9122,43.3304 31.1511,42.5703 C 34.2699,41.9135 36.8933,40.4148 39.0213,38.0742 C 40.3896,36.5696 41.5604,34.7735 42.1423,32.8201 C 42.1859,32.7274 42.2384,32.5785 42.3,32.3734 C 44.9599,23.5166 39.0299,14.5284 29.811,13.3284 C 28.6885,13.1823 27.4957,13.2006 26.3732,13.3001 C 25.4532,13.3813 25.1967,12.7772 24.4927,12.382 C 23.8405,12.0164 23.1429,11.9642 22.3997,12.2253 C 22.2307,12.2846 22.0509,12.4427 22.0289,12.6396 C 21.9891,12.9901 22.1397,13.2089 22.4807,13.2959 Z M 13.9269,23.1877 C 12.6083,26.3571 12.8754,30.5921 14.2132,33.7017 C 14.2416,33.7676 14.2887,33.7864 14.3545,33.7582 C 15.0089,33.4766 15.5445,33.6065 16.0823,34.0426 C 16.0878,34.0467 16.0944,34.049 16.1012,34.0491 C 16.1081,34.0492 16.1147,34.0472 16.1203,34.0432 C 16.1259,34.0393 16.13,34.0336 16.1321,34.0272 C 16.1342,34.0207 16.1342,34.0138 16.1321,34.0073 C 15.8209,33.1656 15.6106,32.3032 15.5012,31.4201 C 15.4024,30.6163 16.4312,30.49 16.5313,31.1738 C 16.7227,32.4851 17.1655,33.6742 17.8598,34.7413 C 18.3714,35.5281 19.1045,36.0144 20.0366,36.3362 C 23.375,37.4901 26.8554,37.0363 29.9124,35.3256 C 30.8246,34.8147 31.5926,34.1939 32.2164,33.4632 C 32.7329,32.9269 32.9389,32.0419 32.0203,31.7518 C 31.3577,31.5434 30.6778,31.4279 29.9806,31.4053 C 29.9546,31.4044 29.9465,31.4159 29.9565,31.4399 C 30.0829,31.7455 30.289,31.9925 30.36,32.3263 C 30.2747,32.6933 30.0495,32.8692 29.6844,32.8542 C 29.4963,32.7328 29.3746,32.6255 29.3192,32.5324 C 26.8078,28.2853 21.8688,23.6163 16.4142,24.5097 C 16.0254,24.5732 15.6296,24.6535 15.2271,24.7504 C 14.9831,24.6981 14.8117,24.5678 14.7127,24.3594 C 14.7023,24.3368 14.6999,24.3133 14.7056,24.2888 L 14.8143,23.8435 C 15.1179,23.6948 15.4376,23.5866 15.7734,23.5189 C 15.7804,23.5175 15.7869,23.5144 15.7925,23.5099 C 15.798,23.5054 15.8024,23.4997 15.8052,23.4931 C 15.8079,23.4866 15.8091,23.4795 15.8085,23.4724 C 15.8079,23.4654 15.8056,23.4585 15.8018,23.4526 C 15.4167,22.8626 14.3227,21.9183 13.927,23.1872 Z M 17.2752,36.5587 C 17.8686,37.1416 18.4403,37.622 18.9901,37.9998 C 19.1455,38.1066 19.2741,38.1717 19.3759,38.1953 C 19.6409,38.2553 19.9521,37.7662 20.0665,37.5764 C 20.069,37.572 20.0705,37.5672 20.071,37.5622 C 20.0714,37.5572 20.0708,37.5523 20.0691,37.5476 S 20.0647,37.5387 20.0611,37.5353 C 20.0576,37.5318 20.0534,37.5292 20.0487,37.5277 C 19.019,37.1626 18.0183,36.7394 17.0464,36.2581 C 17.0436,36.2568 17.0405,36.2565 17.0375,36.2572 S 17.0319,36.2595 17.0299,36.2618 C 17.0279,36.264 17.0267,36.2669 17.0265,36.2699 C 17.0262,36.273 17.027,36.276 17.0286,36.2785 C 17.0836,36.358 17.1657,36.4514 17.2752,36.5587 Z M 16.8823,37.8975 C 17.4606,38.721 18.2826,39.4987 19.1216,40.0563 C 19.1486,40.0741 19.1642,40.0673 19.1685,40.0358 C 19.194,39.8608 19.226,39.4917 19.0619,39.3696 C 18.3609,38.8511 17.6432,38.3515 16.9086,37.8706 C 16.9048,37.8682 16.9004,37.8671 16.8959,37.8676 C 16.8915,37.8681 16.8874,37.8701 16.8843,37.8733 C 16.8811,37.8764 16.8792,37.8806 16.8789,37.885 C 16.8785,37.8894 16.8797,37.8938 16.8823,37.8975 Z" fill="rgb(18, 23, 28)"/>
<path d="M 42.132000000000005,32.805 C 42.0766,32.6849 42.0691,32.4944 42.1193,32.2483 C 44.0261,22.8573 37.0979,14.2003 27.3783,14.3053 C 26.7261,14.3123 26.1414,14.4704 25.5155,14.1811 C 25.2221,14.0449 24.9024,13.7661 24.6154,13.5826 C 23.9391,13.1512 23.2274,13.0557 22.4805,13.2961 C 22.1395,13.209 21.9889,12.9903 22.0287,12.6398 C 22.0507,12.4429 22.2305,12.2848 22.3995,12.2255 C 23.1427,11.9644 23.8403,12.0166 24.4925,12.3822 C 25.1965,12.7774 25.453,13.3815 26.373,13.3003 C 27.4955,13.2008 28.6883,13.1825 29.8108,13.3285 C 39.0295,14.5283 44.9598,23.5165 42.2998,32.3735 C 42.2382,32.5787 42.1857,32.7276 42.1421,32.8203 Z" fill="rgb(64, 183, 225)"/>
<path d="M 42.132000000000005,32.805 C 41.5601,34.7734 40.3893,36.5695 39.021,38.0741 C 36.893,40.4147 34.2696,41.9134 31.1508,42.5702 C 31.1342,42.5467 31.1297,42.5164 31.1373,42.4792 C 31.1415,42.458 31.133,42.4455 31.1117,42.4418 C 30.3757,42.3077 29.5409,41.9647 29.4784,41.0931 C 29.4538,40.7525 29.5139,40.4399 29.6589,40.1552 C 30.9107,37.693 33.4554,36.3585 34.7818,33.9484 C 35.1607,33.2596 35.3402,32.5102 35.3203,31.7 C 35.3166,31.5339 35.2697,31.4191 35.1797,31.3556 C 35.4297,30.9477 35.8091,30.2208 35.2145,29.9872 C 34.9836,29.8969 34.7598,29.9724 34.5893,30.1382 C 33.804,29.7313 32.9683,29.4901 32.0822,29.4149 C 31.9252,29.4015 31.6857,29.4269 31.5458,29.5017 C 31.1555,29.7124 30.7619,29.9183 30.365,30.1192 C 30.3428,30.13 30.3333,30.1476 30.3366,30.1721 C 30.3414,30.2055 30.3378,30.2333 30.326,30.2554 C 30.2677,30.2464 30.1396,30.257 29.9416,30.2871 C 29.3925,30.3704 28.996,30.1276 28.6834,29.6823 C 28.3429,29.1963 27.9616,28.743 27.5396,28.3224 C 27.2015,27.9858 27.7677,27.7663 27.9709,27.6054 C 28.2252,28.0655 28.4866,28.5205 28.7552,28.9703 C 29.0664,29.4925 29.3115,29.6929 29.9246,29.6012 C 30.5521,29.5066 31.1797,29.4109 31.8072,29.3139 C 31.8982,29.2998 31.9832,29.269 32.0623,29.2215 C 33.1767,28.5482 34.2123,27.7715 35.169,26.8912 C 35.4489,26.6336 35.856,26.2476 36.0734,25.8834 C 36.1113,25.8209 36.1482,25.7712 36.1842,25.7345 C 36.8833,24.9037 37.3771,24.01 37.6655,23.0535 C 38.4427,20.479 36.5835,17.6427 33.979,17.1466 C 33.8995,17.0454 33.7614,16.9746 33.5649,16.9342 C 30.5043,16.3096 27.5212,17.7133 25.9106,20.3442 C 25.7365,20.6286 25.6079,20.7571 25.2719,20.6936 C 23.9271,20.4388 22.401,20.5129 21.1194,21.0972 C 21.1129,21.1003 21.1074,21.105 21.1033,21.1109 C 21.0993,21.1168 21.0969,21.1236 21.0964,21.1307 S 21.0973,21.1449 21.1005,21.1513 C 21.1036,21.1577 21.1084,21.1632 21.1144,21.1671 C 21.5421,21.4409 21.9847,21.6849 22.4422,21.8989 C 22.6985,22.0189 22.917,22.1791 23.098,22.3795 C 21.6065,22.1796 20.2389,22.4814 18.9952,23.285 C 18.7721,23.3485 18.4988,23.336 18.1753,23.2476 C 18.8744,22.3478 19.7603,21.75 20.7358,21.1911 C 20.7465,21.1848 20.7551,21.1756 20.7607,21.1646 S 20.7686,21.1412 20.7672,21.129 S 20.7609,21.1053 20.7531,21.0959 C 20.7452,21.0865 20.7348,21.0796 20.723,21.0761 C 19.7047,20.7702 18.6698,20.6058 17.6184,20.5828 L 17.8173,20.1113 L 17.8919,20.1417 C 17.916,20.1511 17.9362,20.1459 17.9523,20.1262 C 18.4628,19.5056 18.8256,19.0728 19.0407,18.8276 C 19.8932,17.8551 20.867,17.0346 21.962,16.3661 C 22.6603,16.9314 23.5299,17.0534 24.3412,16.6787 C 24.6751,16.5242 25.3536,16.052 25.2286,15.6258 C 25.1241,15.2722 24.7632,15.1071 24.4236,15.3145 C 23.9171,15.6244 23.4091,16.0294 22.899,15.6963 C 22.3747,15.3534 22.9225,14.6773 23.1775,14.359 C 23.5825,13.8558 22.8237,13.534 22.4806,13.2962 C 23.2275,13.0558 23.9391,13.1513 24.6155,13.5827 C 24.9025,13.7662 25.2222,14.045 25.5156,14.1812 C 26.1415,14.4705 26.7262,14.3124 27.3784,14.3054 C 37.0979,14.2002 44.0264,22.8573 42.1194,32.2484 C 42.0692,32.4945 42.0768,32.685 42.1422,32.8201 Z" fill="rgb(136, 207, 224)"/>
<path d="M 21.950999999999997,16.351 C 20.866,17.0345 19.8922,17.855 19.0397,18.8275 C 18.8247,19.0727 18.4619,19.5055 17.9513,20.1261 C 17.9352,20.1458 17.9151,20.151 17.8909,20.1416 L 17.8163,20.1112 C 18.5987,18.3945 19.7631,16.9237 21.3095,15.6991 C 21.4369,15.5984 21.5281,15.5257 21.583,15.481 C 21.6096,15.4594 21.6271,15.465 21.6356,15.4979 C 21.7152,15.8047 21.8237,16.094 21.961,16.366 Z" fill="rgb(64, 183, 225)"/>
<path d="M 33.968,17.131 C 32.2098,17.0472 30.6191,17.7289 29.363,18.9301 C 29.013,19.2646 28.7748,19.5753 28.6483,19.8623 C 28.1951,20.8934 28.5993,22.2039 29.4575,22.8715 C 30.1197,23.3867 31.0027,23.5448 31.8254,23.3761 C 32.6794,23.2011 33.5539,22.5653 34.3688,22.5236 C 35.4543,22.4686 36.2898,23.5194 36.3672,24.5102 C 36.3978,24.9012 36.2621,25.3204 36.1832,25.7339 C 36.1472,25.7706 36.1103,25.8203 36.0724,25.8829 C 35.855,26.247 35.4479,26.633 35.168,26.8906 C 34.2113,27.7709 33.1757,28.5477 32.0613,29.2209 C 31.9822,29.2684 31.8972,29.2993 31.8062,29.3134 C 31.1787,29.4103 30.5511,29.506 29.9236,29.6006 C 29.3105,29.6923 29.0654,29.4919 28.7542,28.9697 C 28.4857,28.5199 28.2242,28.0649 27.9699,27.6048 C 28.4452,26.8137 29.1158,27.0268 29.8675,26.8638 C 30.9331,26.6323 32.1892,25.6224 32.1103,24.3987 C 32.0847,24.0099 31.6194,23.8207 31.3096,24.0247 C 31.0866,24.1708 31.0248,24.5568 30.8983,24.7967 C 30.5104,25.533 29.8937,25.9047 29.0483,25.9118 C 28.8503,25.9132 28.7042,25.8756 28.61,25.7989 C 28.394,25.6224 28.2881,25.2047 28.497,24.9725 C 28.8091,24.6248 28.986,24.2253 29.0277,23.7742 C 29.1172,22.8144 28.2583,22.9365 27.6473,23.1327 C 26.8422,23.3919 26.1036,23.7927 25.4315,24.3352 C 25.1483,23.9391 24.7982,23.6187 24.3815,23.374 C 24.0191,22.9558 23.591,22.6241 23.097,22.3789 C 22.9161,22.1785 22.6975,22.0183 22.4412,21.8983 C 21.9837,21.6843 21.5411,21.4403 21.1134,21.1665 C 21.1075,21.1626 21.1026,21.1571 21.0995,21.1508 C 21.0963,21.1444 21.0949,21.1372 21.0954,21.1301 S 21.0983,21.1162 21.1023,21.1103 C 21.1064,21.1044 21.1119,21.0997 21.1184,21.0966 C 22.4,20.5123 23.9261,20.4382 25.2709,20.693 C 25.607,20.7565 25.7355,20.6281 25.9096,20.3436 C 27.5202,17.7127 30.5033,16.309 33.5639,16.9336 C 33.7604,16.9741 33.8985,17.0449 33.978,17.146 Z" fill="rgb(244, 234, 209)"/>
<path d="M 33.969,17.131 C 36.5834,17.6421 38.4427,20.4784 37.6654,23.0529 C 37.377,24.0094 36.8832,24.903 36.1842,25.7339 C 36.263,25.3204 36.3987,24.9012 36.3682,24.5102 C 36.2907,23.5194 35.4553,22.4685 34.3697,22.5236 C 33.5548,22.5652 32.6803,23.2011 31.8264,23.3761 C 31.0037,23.5448 30.1206,23.3867 29.4585,22.8715 C 28.6003,22.2039 28.196,20.8934 28.6493,19.8623 C 28.7757,19.5753 29.014,19.2646 29.364,18.9301 C 30.62,17.7289 32.2107,17.0472 33.979,17.146 Z M 33.2984,19.3309 C 32.7002,19.2575 32.6924,20.1608 32.4622,20.5327 C 31.9841,21.3076 31.2573,21.2095 30.549,20.8263 C 30.1994,20.6372 29.8414,20.5765 29.6446,20.9795 C 29.3064,21.6739 30.6527,22.1651 31.0974,22.1954 C 32.3123,22.278 33.4113,21.6076 33.7452,20.4248 C 33.8731,19.9738 33.8959,19.4043 33.2984,19.3309 Z" fill="rgb(49, 139, 167)"/>
<path d="M 32.451,20.518 C 32.6912,20.161 32.699,19.2577 33.2972,19.3311 C 33.8947,19.4045 33.872,19.974 33.7441,20.425 C 33.4102,21.6078 32.3111,22.2782 31.0963,22.1956 C 30.6515,22.1653 29.3053,21.6741 29.6434,20.9797 C 29.8402,20.5767 30.1983,20.6374 30.5478,20.8265 C 31.2561,21.2097 31.9829,21.3078 32.461,20.533 Z" fill="rgb(18, 23, 28)"/>
<path d="M 18.165,23.232 C 17.8449,23.287 17.5067,23.2992 17.1605,23.2837 C 16.8678,23.2703 16.9189,23.0889 16.9552,22.8736 C 17.083,22.11 17.304,21.3462 17.618,20.5822 C 18.6694,20.6052 19.7043,20.7696 20.7226,21.0755 C 20.7344,21.079 20.7449,21.0859 20.7527,21.0953 C 20.7606,21.1047 20.7655,21.1162 20.7668,21.1284 C 20.7682,21.1406 20.7659,21.153 20.7603,21.164 C 20.7548,21.175 20.7461,21.1842 20.7354,21.1905 C 19.76,21.7494 18.874,22.3472 18.175,23.247 Z" fill="rgb(64, 183, 225)"/>
<path d="M 23.087999999999997,22.364 C 23.592,22.6242 24.0201,22.9559 24.3825,23.3741 C 24.6574,24.1441 24.9601,24.7884 24.5899,25.6063 C 24.3839,25.4812 24.1712,25.3626 23.9519,25.2506 C 23.6713,25.1067 23.5811,24.7926 23.5939,24.475 C 23.6195,23.8265 22.7392,23.6225 22.5204,24.2379 C 22.5145,24.2547 22.5052,24.2702 22.4931,24.2833 S 22.4662,24.3069 22.4499,24.3141 C 22.4335,24.3213 22.4158,24.3251 22.3978,24.3252 C 22.3799,24.3254 22.3621,24.3218 22.3456,24.3148 C 21.3008,23.8749 20.184,23.5315 18.9952,23.2845 C 20.239,22.4809 21.6065,22.1791 23.098,22.379 Z" fill="rgb(49, 139, 167)"/>
<path d="M 14.804,23.829 C 14.608,23.5326 14.3122,23.3138 13.9267,23.1877 C 14.3224,21.9188 15.4164,22.8631 15.8015,23.4531 C 15.8053,23.459 15.8076,23.4659 15.8082,23.4729 C 15.8088,23.48 15.8076,23.4871 15.8049,23.4937 C 15.8021,23.5002 15.7977,23.5059 15.7922,23.5104 C 15.7866,23.5149 15.7801,23.518 15.7731,23.5194 C 15.4373,23.5871 15.1176,23.6954 14.814,23.844 Z" fill="rgb(244, 234, 209)"/>
<path d="M 13.916,23.172 C 14.3115,23.3131 14.6073,23.5319 14.8133,23.8433 L 14.7046,24.2886 C 14.699,24.3131 14.7013,24.3366 14.7118,24.3592 C 14.8107,24.5676 14.9822,24.698 15.2261,24.7502 C 15.353,24.8043 15.5091,24.8201 15.6943,24.7975 C 20.5146,24.1997 24.9357,27.7693 27.7123,31.324 C 28.1082,31.8312 28.5006,32.3409 28.8895,32.8533 C 29.1289,33.1694 29.4472,33.1899 29.683,32.854 C 30.0482,32.869 30.2734,32.6931 30.3586,32.3261 C 30.4804,32.367 30.7316,32.4364 31.1124,32.5343 C 31.5875,32.6562 31.955,32.9657 32.215,33.463 C 31.5913,34.1937 30.8233,34.8145 29.9111,35.3254 C 26.8541,37.0361 23.3736,37.4899 20.0353,36.336 C 19.1032,36.0142 18.37,35.528 17.8585,34.7411 C 17.1642,33.674 16.7213,32.4849 16.53,31.1737 C 16.4298,30.4898 15.4011,30.6161 15.4998,31.42 C 15.6092,32.3031 15.8195,33.1654 16.1307,34.0071 C 16.1329,34.0136 16.1329,34.0205 16.1308,34.027 S 16.1245,34.0391 16.119,34.043 C 16.1134,34.047 16.1067,34.049 16.0999,34.0489 C 16.093,34.0488 16.0864,34.0465 16.081,34.0424 C 15.5432,33.6063 15.0075,33.4764 14.3532,33.758 C 14.2874,33.7862 14.2402,33.7674 14.2118,33.7016 C 12.8741,30.5914 12.6069,26.3564 13.9255,23.1866 Z" fill="rgb(149, 136, 189)"/>
<path d="M 25.421999999999997,24.320999999999998 C 25.2572,24.8999 25.3986,25.2181 25.9485,25.4376 C 26.2331,25.5515 26.4657,25.6275 26.6461,25.6656 C 26.8187,26.0537 27.1328,26.3205 27.2358,26.7213 C 27.0894,26.921 26.6354,27.3621 26.3641,27.125 C 25.7701,26.6056 25.1786,26.0996 24.5894,25.607 C 24.9595,24.7891 24.6569,24.1447 24.3819,23.3748 C 24.7987,23.6194 25.1487,23.9398 25.432,24.336 Z" fill="rgb(136, 207, 224)"/>
<path d="M 29.674,32.839 C 29.4481,33.1899 29.1298,33.1694 28.8904,32.8533 C 28.5016,32.3409 28.1092,31.8311 27.7132,31.324 C 24.9361,27.7692 20.5151,24.1997 15.6952,24.7974 C 15.5101,24.82 15.354,24.8043 15.2271,24.7502 C 15.6296,24.6532 16.0254,24.573 16.4142,24.5095 C 21.8689,23.6161 26.8082,28.2851 29.3192,32.5322 C 29.3746,32.6253 29.4963,32.7326 29.6844,32.854 Z" fill="rgb(244, 234, 209)"/>
<path d="M 26.636,25.65 C 26.8298,25.6697 26.9872,25.6704 27.1184,25.6671 C 27.4033,25.6607 27.5291,26.1124 27.5248,26.3164 C 27.5205,26.5125 27.3912,26.6233 27.2356,26.7207 C 27.1326,26.3199 26.8186,26.0531 26.646,25.665 Z" fill="rgb(244, 234, 209)"/>
<path d="M 34.578,30.123 L 33.7291,31.6708 C 33.7186,31.6896 33.7032,31.7051 33.6846,31.7161 C 33.6661,31.727 33.6449,31.7328 33.6233,31.7329 C 33.6017,31.7331 33.5805,31.7275 33.5618,31.7169 C 33.543,31.7062 33.5275,31.6908 33.5167,31.6723 C 33.0265,30.8247 32.0496,30.5459 31.1318,30.4676 C 30.8376,30.4427 30.5686,30.3718 30.3247,30.2552 C 30.3365,30.2331 30.3401,30.2053 30.3354,30.1719 C 30.332,30.1474 30.3415,30.1298 30.3638,30.119 C 30.7607,29.9181 31.1542,29.7122 31.5445,29.5015 C 31.6845,29.4267 31.9239,29.4012 32.0809,29.4147 C 32.967,29.4899 33.8028,29.7311 34.588,30.138 Z" fill="rgb(64, 183, 225)"/>
<path d="M 35.169000000000004,31.34 C 35.269,31.4185 35.3159,31.5333 35.3197,31.6994 C 35.3396,32.5096 35.1601,33.2591 34.7812,33.9478 C 33.4548,36.3579 30.91,37.6924 29.6582,40.1547 C 29.5133,40.4393 29.4531,40.7519 29.4778,41.0926 C 29.5403,41.9641 30.375,42.3071 31.1111,42.4412 C 31.1324,42.445 31.1409,42.4574 31.1366,42.4786 C 31.1291,42.5158 31.1336,42.5461 31.1501,42.5696 C 27.9112,43.3297 24.4841,42.8611 21.4832,41.4539 C 21.1848,41.3142 20.9613,41.1676 20.8126,41.0142 C 19.8314,40.0065 20.2577,38.257 21.6935,38.0093 C 21.8379,37.9848 22.1977,37.9916 22.7726,38.0297 C 28.0675,38.3847 32.5596,35.9034 35.1786,31.355 Z" fill="rgb(64, 183, 225)"/>
<path d="M 32.206,33.448 C 31.956,32.9657 31.5884,32.6561 31.1134,32.5343 C 30.7326,32.4364 30.4813,32.367 30.3596,32.3261 C 30.2886,31.9923 30.0825,31.7453 29.9561,31.4397 C 29.9461,31.4157 29.9542,31.4042 29.9802,31.4051 C 30.6774,31.4277 31.3573,31.5432 32.0199,31.7516 C 32.9385,32.0417 32.7325,32.9267 32.216,33.463 Z" fill="rgb(244, 234, 209)"/>
<path d="M 17.264999999999997,36.544 C 17.1656,36.4517 17.0834,36.3583 17.0285,36.2788 C 17.0268,36.2762 17.0261,36.2732 17.0263,36.2702 S 17.0277,36.2643 17.0297,36.262 S 17.0344,36.2581 17.0374,36.2575 C 17.0403,36.2568 17.0435,36.2571 17.0462,36.2583 C 18.0181,36.7396 19.0189,37.1628 20.0486,37.5279 C 20.0532,37.5295 20.0575,37.5321 20.061,37.5356 C 20.0645,37.539 20.0672,37.5432 20.0689,37.5479 C 20.0706,37.5525 20.0713,37.5575 20.0708,37.5625 C 20.0704,37.5675 20.0688,37.5723 20.0663,37.5766 C 19.9519,37.7665 19.6408,38.2555 19.3758,38.1955 C 19.2739,38.172 19.1453,38.1068 18.99,38 C 18.4401,37.6223 17.8685,37.1419 17.275,36.559 Z" fill="rgb(136, 207, 224)"/>
<path d="M 19.112,40.041 C 18.2829,39.4984 17.461,38.7207 16.8827,37.8972 C 16.8801,37.8935 16.8789,37.8891 16.8793,37.8847 C 16.8796,37.8803 16.8815,37.8761 16.8846,37.873 C 16.8878,37.8698 16.8919,37.8678 16.8963,37.8673 C 16.9008,37.8668 16.9052,37.8679 16.9089,37.8703 C 17.6435,38.3512 18.3613,38.8508 19.0623,39.3693 C 19.2264,39.4914 19.1944,39.8605 19.1689,40.0355 C 19.1646,40.067 19.149,40.0738 19.122,40.056 Z" fill="rgb(136, 207, 224)"/>
</svg>
