<?xml version="1.0" encoding="UTF-8"?>
<!-- generated by Finnhub -->
<svg viewBox="0 0 55.5 55.5" xmlns="http://www.w3.org/2000/svg">
<path d="M 0,0 H 55.5 V 55.5 H 0 Z" fill="rgb(1, 166, 223)"/>
<path d="M 12.198,25.985 C 13.105,26 13.64,26.296 13.868,26.602 V 26 H 14.496 V 35 H 13.804 V 30.25 C 13.494,30.643 12.928,30.998 12.112,30.998 C 10.786,30.998 9.833,30.001 9.833,28.589 C 9.833,26.703 11.034,26 12.208,26 Z M 48.021,26 L 49.682,29.935 L 51.261,26 H 52 L 50.421,29.629 C 50.121,30.347 49.869,30.91 49.618,31.364 C 49.175,32.209 48.502,33 47.47,33 C 47.198,33 46.92,32.963 46.722,32.878 L 46.878,32.334 C 47.029,32.388 47.268,32.445 47.476,32.445 C 48.094,32.445 48.57,31.94 48.931,31.368 C 49.061,31.163 49.177,30.938 49.277,30.691 L 49.28,30.665 A 0.567,0.567 0 0,0 49.223,30.489 L 47.283,26 H 48.021 Z M 16.003,26 V 28.726 C 16.003,29.86 16.415,30.412 17.26,30.412 C 17.997,30.412 18.487,29.922 18.684,29.503 C 18.715,29.416 18.772,29.224 18.772,29.013 V 26 H 19.464 V 30.997 H 18.824 V 30.202 A 2.1,2.1 0 0,1 17.144,30.998 C 16.593,30.998 15.312,30.785 15.312,28.815 V 26 H 16.003 Z M 35.726,26 V 28.726 C 35.726,29.86 36.137,30.412 36.984,30.412 C 37.719,30.412 38.21,29.922 38.407,29.502 C 38.437,29.416 38.495,29.224 38.495,29.013 V 26 H 39.187 V 30.997 H 38.547 V 30.202 A 2.098,2.098 0 0,1 36.867,30.997 C 36.316,30.997 35.035,30.785 35.035,28.815 V 26 H 35.726 Z M 31.9,26 C 33.37,26 34.41,26.967 34.41,28.48 C 34.41,30.272 33.093,30.998 31.879,30.998 H 31.916 C 30.44,30.998 29.451,30.048 29.451,28.558 C 29.45,26.768 30.694,26 31.9,26 Z M 22.109,26 C 23.32,26 24,26.684 24,27.816 V 30.997 H 23.378 V 30.324 C 23.065,30.673 22.466,30.997 21.74,30.997 C 20.649,30.997 20.152,30.277 20.152,29.607 C 20.152,29.16 20.313,28.785 20.632,28.491 C 21.143,28.019 22.08,27.78 23.314,27.78 V 27.736 C 23.314,27.256 23.207,27.057 22.971,26.839 C 22.771,26.655 22.428,26.563 22.056,26.566 C 21.59,26.566 21.153,26.686 20.823,26.906 L 20.731,26.967 L 20.497,26.459 L 20.561,26.419 A 3.075,3.075 0 0,1 22.108,26 Z M 46,25 V 26 H 46.872 L 47.114,26.525 H 46 V 29.527 C 46,30.329 46.363,30.422 46.644,30.422 C 46.929,30.422 47.103,30.387 47.198,30.357 L 47.3,30.325 L 47.393,30.849 L 47.323,30.873 A 2.248,2.248 0 0,1 46.58,31 C 46.17,31 45.844,30.864 45.639,30.63 C 45.411,30.389 45.299,29.999 45.299,29.438 V 26.525 H 44.439 V 26 H 45.299 V 25 H 46 Z M 26.474,24 C 27.381,24 27.994,24.184 28.408,24.58 C 28.725,24.865 28.88,25.24 28.88,25.728 C 28.88,26.353 28.45,26.93 27.792,27.215 C 28.467,27.427 29.166,27.978 29.166,28.943 C 29.166,29.463 28.979,29.911 28.61,30.278 C 28.134,30.723 27.386,30.998 26.289,30.998 H 24.939 V 24 H 26.474 Z M 7.272,24 L 9.917,31 H 9.203 L 8.301,28.554 H 5.595 L 4.715,31 H 4 L 6.656,24 H 7.272 Z M 42.397,25.86 C 42.71,25.86 44.271,25.961 44.271,27.954 V 31 H 43.58 V 27.96 C 43.573,27.372 43.386,26.426 42.26,26.426 C 41.608,26.426 41.016,26.853 40.818,27.464 C 40.781,27.591 40.758,27.738 40.758,27.855 V 31 L 40,30.997 V 26 H 40.706 V 26.642 C 41.067,26.16 41.703,25.86 42.397,25.86 Z M 12.207,26.602 C 11.175,26.602 10.529,27.338 10.529,28.554 C 10.529,29.381 10.96,30.432 12.208,30.432 A 1.57,1.57 0 0,0 13.714,29.381 C 13.77,29.235 13.804,29.067 13.804,28.943 V 27.924 A 1.32,1.32 0 0,0 13.755,27.524 C 13.597,26.976 13.028,26.602 12.208,26.602 Z M 23.167,28.342 C 22.226,28.342 21.518,28.504 21.165,28.823 A 0.899,0.899 0 0,0 20.865,29.527 C 20.865,30.194 21.345,30.432 21.793,30.432 C 22.6,30.432 23.108,29.971 23.266,29.54 A 0.687,0.687 0 0,0 23.314,29.28 V 28.344 L 23.168,28.342 Z M 31.888,26.575 C 30.684,26.575 30.142,27.527 30.142,28.529 C 30.142,29.665 30.887,30.432 31.888,30.432 H 31.898 C 32.93,30.432 33.718,29.652 33.718,28.499 C 33.718,27.703 33.192,26.575 31.888,26.575 Z M 26.443,27.535 H 25.631 V 30.337 C 25.807,30.362 26.046,30.372 26.421,30.372 H 26.461 C 27.225,30.366 28.453,30.166 28.453,28.953 C 28.453,28.065 27.702,27.534 26.443,27.534 Z M 6.953,24.96 L 5.82,27.988 H 8.074 L 6.953,24.96 Z M 26.443,24.565 C 26.085,24.565 25.813,24.582 25.631,24.617 V 26.977 H 26.581 C 27.521,26.977 28.177,26.475 28.177,25.757 C 28.177,24.966 27.594,24.565 26.443,24.565 Z" fill="rgb(254, 254, 253)"/>
</svg>
