<?xml version="1.0" encoding="UTF-8"?>
<!-- generated by Finnhub -->
<svg viewBox="0 0 55.5 55.5" xmlns="http://www.w3.org/2000/svg">
<path d="M 0,0 H 55.5 V 55.5 H 0 Z" fill="rgb(239, 242, 248)"/>
<path d="M 23.11,12.985 H 32.96 C 31.6,13 30.09,13.1 28.62,15.79 C 28.06,16.8 27.66,17.91 27.22,18.99 L 22.32,31.16 C 21.03,34.39 21.12,38.35 24.02,40.56 A 7.4,7.4 0 0,0 27.6,42 H 19.15 C 15.25,42 12.68,38.75 12.51,35.19 C 12.41,33.19 13.31,31.53 14.02,29.72 A 499.5,499.5 0 0,1 19.54,15.99 C 20.66,13.52 22.39,12.97 23.12,13 Z" fill="url(#b)"/>
<path d="M 32.870000000000005,12.985 H 23.04 C 24.4,13 25.91,13.1 27.38,15.79 C 27.94,16.8 28.34,17.91 28.78,18.99 L 33.68,31.16 C 34.97,34.39 34.88,38.35 31.98,40.56 A 7.4,7.4 0 0,1 28.4,42 H 36.85 C 40.75,42 43.32,38.75 43.49,35.19 C 43.59,33.19 42.69,31.53 41.98,29.72 A 499.5,499.5 0 0,0 36.46,15.99 C 35.34,13.52 33.61,12.97 32.88,13 Z" fill="url(#a)"/>
<defs>
<linearGradient id="b" x1="22.73" x2="22.73" y1="13" y2="42" gradientUnits="userSpaceOnUse">
<stop stop-color="rgb(2, 76, 112)" offset="0"/>
<stop stop-color="rgb(1, 132, 180)" offset=".22"/>
<stop stop-color="rgb(0, 175, 233)" offset=".47"/>
<stop stop-color="rgb(0, 176, 229)" offset=".6"/>
<stop stop-color="rgb(4, 146, 197)" offset=".78"/>
<stop stop-color="rgb(9, 82, 102)" offset="1"/>
</linearGradient>
<linearGradient id="a" x1="33.27" x2="33.27" y1="13" y2="42" gradientUnits="userSpaceOnUse">
<stop stop-color="rgb(135, 135, 134)" offset="0"/>
<stop stop-color="rgb(204, 204, 203)" offset=".13"/>
<stop stop-color="rgb(226, 226, 225)" offset=".22"/>
<stop stop-color="rgb(211, 211, 210)" offset=".51"/>
<stop stop-color="rgb(156, 156, 155)" offset=".81"/>
<stop stop-color="rgb(57, 57, 56)" offset="1"/>
</linearGradient>
</defs>
</svg>
