<?xml version="1.0" encoding="UTF-8"?>
<!-- generated by Finnhub -->
<svg viewBox="0 0 55.5 55.5" xmlns="http://www.w3.org/2000/svg">
<path d="M 0,0 H 55.5 V 55.5 H 0 Z" fill="rgb(26, 57, 125)"/>
<path d="M 39.24,40.894999999999996 L 44,34.45 A 7.97,7.97 0 0,1 44,21.55 L 39.27,15.09 A 16,16 0 0,0 39.25,40.91 Z" fill="rgb(183, 202, 253)"/>
<path d="M 19.959999999999997,28.855 L 12,29.75 A 16.03,16.03 0 0,0 34.4,42.65 L 31.19,35.33 A 8.05,8.05 0 0,1 19.98,28.87 Z" fill="rgb(254, 254, 253)"/>
<path d="M 31.18,20.655 L 34.42,13.35 A 15.88,15.88 0 0,0 27.96,12 A 16,16 0 0,0 12,26.25 L 19.97,27.13 A 8.02,8.02 0 0,1 31.19,20.67 Z" fill="rgb(190, 214, 249)"/>
</svg>
