<?xml version="1.0" encoding="UTF-8"?>
<!-- generated by Finnhub -->
<svg viewBox="0 0 55.5 55.5" xmlns="http://www.w3.org/2000/svg">
<path d="M 0,0 H 55.5 V 55.5 H 0 Z" fill="url(#a)"/>
<path d="M 32.49,22.985 A 5.5,5.5 0 1,1 32.43,34 H 32.4 A 5.49,5.49 0 0,1 27,28.34 V 17.95 C 27,17.42 27.46,17 28,17 C 28.52,17 29,17.48 29,17.95 V 24.27 A 5.44,5.44 0 0,1 32.5,23 Z M 32.5,32 A 3.5,3.5 0 1,0 32.5,25 A 3.5,3.5 0 0,0 32.5,32 Z M 11.51,23 A 5.6,5.6 0 0,0 6,28.5 C 6,31.49 8.55,34 11.51,34 C 12.67,34 13.97,33.67 15,32.77 C 15,33.47 15.4,34 16,34 A 0.97,0.97 0 0,0 17,32.97 V 28.3 A 5.4,5.4 0 0,0 11.5,23 Z M 15,28.5 A 3.5,3.5 0 1,1 8,28.5 A 3.5,3.5 0 0,1 15,28.5 Z M 19,29.03 C 19,24.93 20.9,23 24.9,23 C 25.69,23 26,23.47 26,24.03 C 26,24.56 25.6,25 24.9,25 C 22.16,25 21,26.3 21,28.56 V 33 C 21,33.6 20.55,34 20,34 S 19,33.6 19,33 V 29.03 Z M 49.97,30.33 C 49.29,32.49 46.97,34 44.5,34 A 5.5,5.5 0 1,1 44.5,23 A 5.3,5.3 0 0,1 49.16,25.66 C 49.31,25.92 49.4,26.32 49.4,26.54 C 49.4,27.13 48.94,27.64 48.36,27.91 L 41.9,30.85 A 3.1,3.1 0 0,0 44.31,32 C 45.73,32 47.14,31.17 47.69,29.96 C 47.96,29.38 48.43,29 49,29 C 49.57,29 50,29.5 50,30.05 V 30.06 C 50,30.15 50,30.24 49.97,30.33 Z M 47.16,26.23 L 41.03,28.98 A 3.5,3.5 0 0,1 47.15,26.23 Z" fill="rgb(254, 254, 253)" fill-rule="evenodd"/>
<defs>
<linearGradient id="a" x1="-4.5" x2="46" y1="8" y2="56" gradientUnits="userSpaceOnUse">
<stop stop-color="rgb(4, 130, 252)" offset=".31"/>
<stop stop-color="rgb(3, 215, 252)" offset="1"/>
</linearGradient>
</defs>
</svg>
