<?xml version="1.0" encoding="UTF-8"?>
<!-- generated by Finnhub -->
<svg viewBox="0 0 55.5 55.5" xmlns="http://www.w3.org/2000/svg">
<path d="M 0,0 H 55.5 V 55.5 H 0 Z" fill="rgb(253, 190, 3)"/>
<path d="M 41.797000000000004,37.564 C 41.735,37.67 41.59,38.249 42.049,37.876 C 42.341,37.64 45.421,33.198 44.951,28.026 C 44.682,25.062 43.178,21.807 39.486,19.096 C 36.471,16.881 32.782,16.721 30.199,17.259 C 25.002,18.341 22,22.824 22,23.14 C 22,23.612 22.385,23.413 22.484,23.215 C 22.553,23.075 26.036,18.344 31.553,18.228 C 33.9,18.178 37.248,18.925 39.824,21.279 C 47.999,28.749 41.88,37.488 41.807,37.579 Z" fill="rgb(254, 254, 253)"/>
<path d="M 26.453999999999997,23.985 C 23.536,24 22,31.925 22,36 H 23.843 C 23.843,32.32 25.166,24.988 26.463,24.988 C 27.84,24.988 28.421,31.626 28.54,35.018 H 30.512 C 30.512,29.164 31.472,24.988 32.536,24.988 S 35.183,32.147 35.183,36 H 37 C 37,29.603 34.535,24 32.536,24 C 31.041,24 29.889,26.634 29.5,27.952 C 29.5,27.359 28.254,24 26.464,24 Z" fill="rgb(254, 254, 253)"/>
<path d="M 14.867,21.224999999999998 C 12.009,28.657 17.077,35.722 17.303,35.998 C 17.529,36.275 17.843,36.25 17.744,35.998 C 17.646,35.747 14.9,32.101 15.122,26.495 C 15.369,20.247 20.588,13.192 28.089,12.667 C 36.031,12.112 40.14,16.522 41.644,18.852 C 41.987,19.384 42.028,18.852 41.987,18.776 C 37.92,11.309 30.245,10.929 28.089,11.008 C 25.319,11.108 18.015,13.124 14.877,21.24 Z" fill="rgb(254, 254, 253)"/>
<path d="M 16.554,39.119 C 10.723,33.247 11.451,26.138 12.546,23.32 C 12.546,22.881 12.301,22.906 12.105,23.32 C 9.507,32.092 11.932,35.844 14.825,39.62 C 18.78,44.786 27.858,46.638 34.082,43.373 C 39.06,40.761 41.415,35.543 41.971,33.261 C 42.093,32.871 41.799,32.829 41.677,33.164 C 39.952,37.881 35.895,40.912 34.082,41.838 C 30.676,43.389 22.405,45.02 16.564,39.134 Z" fill="rgb(254, 254, 253)"/>
</svg>
