<?xml version="1.0" encoding="UTF-8"?>
<!-- generated by Finnhub -->
<svg viewBox="0 0 55.5 55.5" xmlns="http://www.w3.org/2000/svg">
<path d="M 0,0 H 55.5 V 55.5 H 0 Z" fill="rgb(25, 100, 146)"/>
<path d="M 27.993,13.988999999999999 C 20.271,14.004 14.003,20.27 14.003,28 C 14.003,35.73 20.271,41.996 28.003,41.996 C 35.734,41.996 42,35.73 42,28 S 35.733,14.004 28.002,14.004 Z M 28.491,41.02 C 21.57,41.02 15.958,35.41 15.958,28.49 C 15.958,21.568 21.57,15.96 28.491,15.96 C 35.414,15.96 41.023,21.57 41.023,28.49 C 41.023,35.41 35.412,41.02 28.491,41.02 Z" fill="rgb(254, 254, 253)"/>
<path d="M 39.82,12.522 C 36.63,10.28 28.819,15.374 22.386,23.915 C 15.953,32.455 13.332,41.208 16.533,43.465 C 19.733,45.722 27.543,40.63 33.974,32.089 C 40.41,23.549 43.029,14.794 39.829,12.537 Z M 32.652,31.154 C 26.74,39 19.748,43.81 17.032,41.895 C 14.317,39.98 16.908,32.067 22.819,24.221 C 28.73,16.373 35.723,11.565 38.437,13.48 C 41.154,15.392 38.563,23.308 32.652,31.154 Z" fill="rgb(254, 254, 253)"/>
</svg>
