<?xml version="1.0" encoding="UTF-8"?>
<!-- generated by Finnhub -->
<svg viewBox="0 0 55.5 55.5" xmlns="http://www.w3.org/2000/svg">
<path d="M 0,0 H 55.5 V 55.5 H 0 Z" fill="rgb(1, 59, 103)"/>
<path d="M 33.99,27.985 L 44,16 L 29.618,28 H 34 Z M 34.632,28 H 38 L 43.954,16.17 L 34.632,28 Z M 43.817,16.073 L 23,28 H 28.705 L 43.817,16.073 Z M 34.997,34.545 L 37.586,29 C 36.079,29.063 35.029,29.205 33.682,29.303 L 29.711,33.993 C 31.514,34.067 33.241,34.13 34.999,34.545 Z M 21.329,34.545 C 22.744,34.325 25.327,33.921 28.249,33.921 H 28.819 L 32.723,29.38 C 30.691,29.526 28.637,29.77 26.81,30.063 L 26.4,30.381 L 21.329,34.545 Z M 20.304,35.215 L 19.14,35.435 L 25.727,30.182 C 15.933,31.94 9.598,35.337 8,36.264 C 8.616,36.264 17.542,36.142 24.162,40 L 28.705,34.507 H 28.249 C 23.957,34.507 20.304,35.215 20.304,35.215 Z" fill="rgb(254, 254, 253)"/>
</svg>
