<?xml version="1.0" encoding="UTF-8"?>
<!-- generated by Finnhub -->
<svg viewBox="0 0 55.5 55.5" xmlns="http://www.w3.org/2000/svg">
<path d="M 0,0 H 55.5 V 55.5 H 0 Z" fill="rgb(239, 242, 248)"/>
<path d="M 7.99,39.985 V 35.48 H 8.73 V 36.69 L 8.66,36.39 C 8.77,36.08 8.96,35.84 9.24,35.69 C 9.51,35.52 9.85,35.44 10.25,35.44 V 36.22 H 10.08 C 9.68,36.22 9.35,36.34 9.11,36.6 C 8.88,36.86 8.76,37.23 8.76,37.72 V 40 H 8 Z M 12.66,40 C 12.21,40 11.82,39.9 11.47,39.7 A 2.1,2.1 0 0,1 10.68,38.9 A 2.46,2.46 0 0,1 10.41,37.71 C 10.41,37.27 10.5,36.88 10.67,36.53 A 2.05,2.05 0 0,1 12.51,35.43 A 1.94,1.94 0 0,1 14.31,36.53 A 2.57,2.57 0 0,1 14.56,37.98 H 11 V 37.4 H 14.17 L 13.86,37.6 C 13.86,37.32 13.81,37.06 13.69,36.84 C 13.58,36.61 13.42,36.44 13.21,36.31 C 13.01,36.18 12.78,36.12 12.51,36.12 A 1.3,1.3 0 0,0 11.32,36.85 C 11.21,37.07 11.15,37.33 11.15,37.62 V 37.76 C 11.15,38.06 11.21,38.32 11.34,38.56 C 11.47,38.79 11.65,38.96 11.88,39.1 C 12.12,39.23 12.38,39.3 12.68,39.3 C 12.93,39.3 13.15,39.25 13.35,39.16 C 13.55,39.06 13.74,38.93 13.89,38.76 L 14.31,39.27 C 14.12,39.51 13.88,39.69 13.6,39.81 C 13.32,39.94 13,40 12.66,40 Z M 16.48,40 C 16.13,40 15.8,39.95 15.48,39.85 C 15.18,39.75 14.93,39.62 14.75,39.48 L 15.06,38.84 A 2.53,2.53 0 0,0 16.53,39.3 C 16.89,39.3 17.13,39.25 17.29,39.14 C 17.45,39.04 17.53,38.88 17.53,38.69 A 0.4,0.4 0 0,0 17.39,38.36 A 0.94,0.94 0 0,0 17.01,38.19 A 10.16,10.16 0 0,1 15.93,37.97 A 2.44,2.44 0 0,1 15.4,37.77 A 1.06,1.06 0 0,1 15.02,37.4 A 1.2,1.2 0 0,1 14.88,36.78 C 14.88,36.51 14.95,36.28 15.09,36.07 C 15.24,35.87 15.44,35.71 15.69,35.6 C 15.96,35.5 16.27,35.44 16.63,35.44 C 16.9,35.44 17.18,35.47 17.46,35.54 C 17.74,35.61 17.97,35.71 18.16,35.84 L 17.83,36.48 A 1.74,1.74 0 0,0 17.23,36.2 C 17.03,36.15 16.83,36.13 16.62,36.13 C 16.29,36.13 16.04,36.19 15.88,36.31 A 0.51,0.51 0 0,0 15.63,36.74 C 15.63,36.9 15.68,37.01 15.77,37.1 C 15.87,37.18 16,37.24 16.15,37.28 C 16.31,37.33 16.49,37.37 16.68,37.4 S 17.05,37.47 17.24,37.52 C 17.44,37.56 17.61,37.63 17.76,37.72 C 17.92,37.8 18.04,37.92 18.14,38.07 C 18.24,38.22 18.29,38.42 18.29,38.67 C 18.29,38.95 18.21,39.17 18.07,39.37 C 17.92,39.57 17.71,39.73 17.44,39.84 C 17.17,39.94 16.85,40 16.48,40 Z M 20.32,40 A 1.3,1.3 0 0,1 19.34,39.64 C 19.11,39.4 19,39.05 19,38.6 V 34.5 H 19.75 V 38.57 C 19.75,38.81 19.8,38.99 19.92,39.12 C 20.03,39.25 20.19,39.32 20.41,39.32 C 20.64,39.32 20.84,39.25 21,39.11 L 21.24,39.69 C 21.12,39.79 20.98,39.87 20.82,39.92 C 20.66,39.97 20.49,40 20.32,40 Z M 18.29,36 L 18.28,35.34 H 21 V 36 H 18.29 Z M 24.28,40 V 39 L 24.24,38.83 V 37.22 C 24.24,36.87 24.14,36.61 23.96,36.42 C 23.77,36.23 23.5,36.14 23.12,36.14 C 22.87,36.14 22.63,36.18 22.39,36.27 C 22.16,36.36 21.96,36.47 21.79,36.62 L 21.48,36.01 C 21.69,35.82 21.95,35.68 22.25,35.59 C 22.55,35.49 22.88,35.44 23.21,35.44 C 23.78,35.44 24.23,35.59 24.54,35.88 C 24.84,36.18 25,36.64 25,37.25 V 40 H 24.28 Z M 22.91,40 A 1.9,1.9 0 0,1 22.09,39.83 A 1.3,1.3 0 0,1 21.55,39.37 A 1.37,1.37 0 0,1 21.52,38.03 C 21.62,37.83 21.8,37.67 22.05,37.55 C 22.29,37.44 22.63,37.38 23.05,37.38 H 24.37 V 37.96 H 23.07 C 22.69,37.96 22.44,38.03 22.31,38.16 C 22.18,38.3 22.11,38.46 22.11,38.65 C 22.11,38.87 22.19,39.05 22.35,39.18 C 22.52,39.31 22.75,39.38 23.03,39.38 C 23.32,39.38 23.57,39.31 23.78,39.18 C 23.99,39.04 24.15,38.84 24.24,38.58 L 24.39,39.14 C 24.29,39.4 24.12,39.61 23.86,39.77 C 23.61,39.92 23.29,40 22.91,40 Z M 27.84,40 C 27.48,40 27.16,39.93 26.89,39.79 A 1.5,1.5 0 0,1 26.26,39.15 C 26.11,38.85 26,38.49 26,38.05 V 35.48 H 26.8 V 37.96 C 26.8,38.4 26.9,38.73 27.09,38.95 C 27.29,39.16 27.57,39.27 27.92,39.27 C 28.19,39.27 28.42,39.22 28.62,39.11 C 28.81,38.99 28.96,38.81 29.06,38.6 C 29.16,38.37 29.22,38.1 29.22,37.79 V 35.48 H 30 V 40 H 29.26 V 38.74 L 29.38,39.06 C 29.24,39.36 29.04,39.59 28.76,39.76 C 28.49,39.92 28.18,40 27.84,40 Z M 31,40 V 35.48 H 31.74 V 36.69 L 31.67,36.39 C 31.78,36.08 31.97,35.84 32.25,35.69 C 32.52,35.52 32.86,35.44 33.26,35.44 V 36.22 H 33.09 C 32.69,36.22 32.36,36.34 32.12,36.6 C 31.89,36.86 31.77,37.23 31.77,37.72 V 40 H 31 Z M 36.28,40 V 39 L 36.24,38.83 V 37.22 C 36.24,36.87 36.14,36.61 35.96,36.42 C 35.77,36.23 35.49,36.14 35.12,36.14 C 34.87,36.14 34.62,36.18 34.39,36.27 C 34.15,36.36 33.95,36.47 33.79,36.62 L 33.48,36.01 C 33.69,35.82 33.95,35.68 34.25,35.59 C 34.55,35.49 34.87,35.44 35.21,35.44 C 35.78,35.44 36.22,35.59 36.53,35.88 C 36.84,36.18 37,36.64 37,37.25 V 40 H 36.28 Z M 34.91,40 A 1.9,1.9 0 0,1 34.08,39.83 A 1.3,1.3 0 0,1 33.55,39.37 A 1.37,1.37 0 0,1 33.52,38.03 C 33.62,37.83 33.8,37.67 34.04,37.55 C 34.29,37.44 34.62,37.38 35.04,37.38 H 36.37 V 37.96 H 35.07 C 34.69,37.96 34.44,38.03 34.31,38.16 C 34.17,38.3 34.11,38.46 34.11,38.65 C 34.11,38.87 34.19,39.05 34.35,39.18 C 34.52,39.31 34.75,39.38 35.03,39.38 C 35.32,39.38 35.56,39.31 35.78,39.18 C 35.99,39.04 36.15,38.84 36.24,38.58 L 36.39,39.14 C 36.29,39.4 36.11,39.61 35.86,39.77 C 35.61,39.92 35.29,40 34.91,40 Z M 40.28,35.44 C 40.63,35.44 40.93,35.51 41.18,35.64 C 41.45,35.79 41.65,36 41.8,36.29 C 41.95,36.58 42,36.94 42,37.38 V 40 H 41.27 V 37.47 C 41.27,37.04 41.17,36.71 40.97,36.49 C 40.77,36.27 40.49,36.16 40.13,36.16 C 39.87,36.16 39.63,36.22 39.43,36.33 C 39.23,36.44 39.08,36.61 38.97,36.83 C 38.86,37.05 38.81,37.32 38.81,37.65 V 40 H 38 V 35.48 H 38.78 V 36.68 L 38.66,36.36 C 38.79,36.07 39,35.84 39.29,35.68 C 39.57,35.52 39.91,35.44 40.29,35.44 Z M 44.57,40 A 1.3,1.3 0 0,1 43.59,39.64 C 43.36,39.4 43.25,39.05 43.25,38.6 V 34.5 H 44 V 38.57 C 44,38.81 44.06,38.99 44.17,39.12 C 44.29,39.25 44.45,39.32 44.66,39.32 C 44.9,39.32 45.1,39.25 45.26,39.11 L 45.49,39.69 C 45.37,39.79 45.23,39.87 45.07,39.92 C 44.91,39.97 44.75,40 44.57,40 Z M 42.53,36 V 35.34 H 45.21 V 36 H 42.53 Z M 47.19,40 C 46.84,40 46.51,39.95 46.19,39.85 C 45.89,39.75 45.64,39.62 45.46,39.48 L 45.78,38.84 A 2.53,2.53 0 0,0 47.25,39.3 C 47.6,39.3 47.85,39.25 48,39.14 C 48.16,39.04 48.24,38.88 48.24,38.69 A 0.4,0.4 0 0,0 48.1,38.36 A 0.94,0.94 0 0,0 47.72,38.19 A 10.16,10.16 0 0,1 46.64,37.97 A 2.44,2.44 0 0,1 46.12,37.77 A 1.06,1.06 0 0,1 45.74,37.4 A 1.2,1.2 0 0,1 45.59,36.78 C 45.59,36.51 45.66,36.28 45.81,36.07 C 45.95,35.87 46.15,35.71 46.41,35.6 C 46.67,35.5 46.98,35.44 47.34,35.44 C 47.61,35.44 47.89,35.47 48.17,35.54 C 48.45,35.61 48.69,35.71 48.87,35.84 L 48.54,36.48 A 1.74,1.74 0 0,0 47.94,36.2 C 47.74,36.15 47.54,36.13 47.34,36.13 C 47,36.13 46.75,36.19 46.59,36.31 A 0.51,0.51 0 0,0 46.34,36.74 C 46.34,36.9 46.39,37.01 46.49,37.1 C 46.59,37.18 46.71,37.24 46.87,37.28 C 47.02,37.33 47.2,37.37 47.39,37.4 L 47.96,37.52 C 48.15,37.56 48.32,37.63 48.47,37.72 C 48.63,37.8 48.76,37.92 48.85,38.07 C 48.95,38.22 49,38.42 49,38.67 C 49,38.95 48.93,39.17 48.78,39.37 C 48.63,39.57 48.42,39.73 48.15,39.84 C 47.89,39.94 47.56,40 47.19,40 Z" fill="rgb(132, 131, 134)"/>
<path d="M 16.99,33.985 V 25 C 17,23.08 14.67,22.4 13.14,22.4 C 11.7,22.4 10.15,22.84 9.02,23.74 L 7.53,20.8 A 8.9,8.9 0 0,1 10.35,19.5 C 11.45,19.2 12.56,19.05 13.7,19.05 C 15.88,19.05 17.88,19.57 19.08,20.61 C 20.28,21.66 21,23.3 21,25.5 V 34 H 17 Z M 12.34,34 A 6.66,6.66 0 0,1 9.47,33.43 C 8.67,33.03 8.07,32.51 7.64,31.84 A 4.07,4.07 0 0,1 7,29.6 C 7,26.4 10.3,25 13.14,25 H 17 L 17.25,28 H 13.53 C 12.4,28 11.04,27.87 11.04,29.41 C 11.04,30.71 12.27,31.17 13.38,31.17 C 14.08,31.17 15,31 15.55,30.68 C 16.1,30.34 16.75,29.85 17,29.2 L 17.38,31.14 C 17.08,32.07 16.53,32.79 15.73,33.27 C 14.93,33.76 13.6,34 12.34,34 Z M 23,34 V 19 H 27 V 23.37 L 26.54,22.18 A 4.58,4.58 0 0,1 28.59,19.86 A 6.7,6.7 0 0,1 32,19.05 V 22.94 A 4.41,4.41 0 0,0 31.54,22.91 A 3.88,3.88 0 0,0 28.32,23.88 A 4.12,4.12 0 0,0 27,26.93 V 34 H 23 Z M 37.31,30.82 L 37.42,25.69 L 43.52,19 H 48.47 L 42.07,25.88 L 39.91,27.66 L 37.31,30.82 Z M 34,34 V 16 H 38 V 34 H 34 Z M 43.98,34 L 39.14,27.68 L 41.74,24.42 L 49,34 H 43.98 Z" fill="rgb(133, 85, 35)"/>
</svg>
