<?xml version="1.0" encoding="UTF-8"?>
<!-- generated by Finnhub -->
<svg viewBox="0 0 55.5 55.5" xmlns="http://www.w3.org/2000/svg">
<path d="M 0,0 H 55.5 V 55.5 H 0 Z" fill="url(#a)"/>
<path d="M 43.475,25.985 C 44.641,26 45.642,26.708 46,27.117 L 44.638,28.519 C 44.179,28.069 43.812,28.014 43.485,28 C 43.079,27.983 42.038,28.319 42,29.404 C 41.962,30.49 42.83,31 43.616,31 C 44.119,31 44.506,30.717 44.638,30.563 L 45.869,32.019 C 45.214,32.604 44.415,32.999 43.485,32.999 C 42.555,33 40,32.4 40,29.404 C 40,26.872 42.135,26 43.485,26 Z" fill="rgb(149, 151, 153)"/>
<path d="M 19.997,26.000999999999998 C 21.163,26.016 22.164,26.724 22.522,27.132 L 21.16,28.535 C 20.701,28.085 20.335,28.029 20.007,28.015 C 19.601,27.999 18.561,28.335 18.522,29.42 C 18.484,30.505 19.352,31.016 20.138,31.016 C 20.641,31.016 21.029,30.733 21.16,30.578 L 22.391,32.034 C 21.736,32.62 20.937,33.014 20.007,33.014 C 19.077,33.014 16.522,32.416 16.522,29.42 C 16.522,26.887 18.658,26.016 20.007,26.016 Z M 4,33 L 7.5,23 H 9.5 L 13,33 H 11 L 10.21,31 H 6.85 L 6,33 H 4 Z" fill="rgb(254, 254, 253)"/>
<path d="M 7.404,28.985 L 8.464,26 L 9.55,29 H 7.414 Z" fill="rgb(18, 21, 23)"/>
<path d="M 12.99,32.967999999999996 V 26 H 15 V 27.113 C 15.28,26.058 16.127,25.925 16.522,26 V 28.257 C 15.232,28.068 14.974,29.057 15,29.576 V 32.983 H 13 Z" fill="rgb(254, 254, 253)"/>
<path d="M 29.49,33.0 V 26.03 H 31.5 V 27.143 C 31.78,26.088 32.627,25.956 33.022,26.03 V 28.287 C 31.732,28.098 31.474,29.087 31.5,29.606 V 33.014 H 29.5 Z" fill="rgb(149, 151, 153)"/>
<path d="M 22.99,32.985 V 23 H 25 V 26.85 C 25.583,26.068 26.513,25.982 26.846,26 C 28.676,26.072 29.046,27.322 28.996,28.063 V 32.999 H 27 V 28.995 C 26.994,28.573 26.677,27.971 26,28 C 25.323,28.029 25.006,28.651 25,28.995 V 32.999 H 23 Z" fill="rgb(254, 254, 253)"/>
<ellipse cx="36.5" cy="29.507" rx="3.5" ry="3.507" fill="rgb(149, 151, 153)"/>
<ellipse cx="36.5" cy="29.503" rx="1.5" ry="1.503" fill="rgb(18, 21, 23)"/>
<ellipse cx="36.499" cy="29.5" rx="1.026" ry="1.028" fill="rgb(254, 254, 253)"/>
<path d="M 45.99,32.985 V 23 H 48 V 29 L 50,26 H 52 L 49.733,29.469 L 52,33 H 50 L 48,30 V 33 H 46 Z" fill="rgb(149, 151, 153)"/>
<defs>
<linearGradient id="a" x1="10.418" x2="68.147" y1="9.712" y2="76.017" gradientUnits="userSpaceOnUse">
<stop stop-color="rgb(25, 29, 31)" offset="0"/>
<stop stop-color="rgb(5, 5, 8)" offset="1"/>
</linearGradient>
</defs>
</svg>
