<?xml version="1.0" encoding="UTF-8"?>
<!-- generated by Finnhub -->
<svg viewBox="0 0 55.5 55.5" xmlns="http://www.w3.org/2000/svg">
<path d="M 0,0 H 55.5 V 55.5 H 0 Z" fill="rgb(8, 118, 201)"/>
<path d="M 25.49,32.485 A 3.982,3.982 0 1,0 25.5,24.537 A 3.982,3.982 0 0,0 25.5,32.5 Z" fill="rgb(254, 254, 253)"/>
<path d="M 45.445,41.931 V 43.154 H 32.937 L 33.161,42.927 C 35.224,41.795 37.174,39.069 38.636,36.766 C 40.886,33.292 41.861,29.291 42.461,26.799 L 42.574,26.648 S 42.761,34.728 42.986,39.295 C 43.249,40.202 44.217,41.455 45.455,41.945 Z M 34.853,14.883 C 34.891,18.319 34.699,22.419 33.911,25.817 C 33.236,28.724 32.374,30.461 31.549,31.669 C 30.387,33.368 29.224,34.236 28.024,34.652 A 6.409,6.409 0 0,1 25.324,35.218 C 21.612,35.218 18.612,32.198 18.612,28.46 S 21.612,21.702 25.324,21.702 C 28.812,21.702 31.662,24.382 31.999,27.78 L 32.074,27.856 C 33.049,25.024 33.536,21.022 33.612,16.605 C 31.811,15.17 28.287,14 24.873,14 C 21.123,14 17.523,15.737 14.936,18.417 C 12.35,21.097 11,24.647 11,28.535 C 11,32.386 12.537,35.973 15.2,38.729 C 17.937,41.561 21.162,43.146 25.024,43.146 C 35.824,43.486 42.086,32.311 42.499,15.85 V 14.884 H 34.853 Z" fill="rgb(254, 254, 253)"/>
</svg>
