<?xml version="1.0" encoding="UTF-8"?>
<!-- generated by Finnhub -->
<svg viewBox="0 0 55.5 55.5" xmlns="http://www.w3.org/2000/svg">
<path d="M 0,0 H 55.5 V 55.5 H 0 Z" fill="rgb(239, 242, 248)"/>
<path d="M 40.89,25.435 L 42.21,29 H 39.61 L 40.91,25.45 Z" fill="url(#a)"/>
<path d="M 15.540000000000001,28.985 L 14.25,25.68 L 12.96,29 H 15.55 Z" fill="url(#a)"/>
<path d="M 5.99,20.985 H 50 V 35 H 6 V 21 Z M 28.64,31.48 C 26.65,31.48 25.16,30.64 24.81,29 H 23 V 33 H 24.68 L 25.08,32.07 C 26.17,32.71 27.36,33 28.78,33 C 31.8,33 33.61,31.56 33.61,29.72 C 33.61,28.07 32.15,27.43 29.38,26.88 L 28.5,26.72 C 26.8,26.41 25.87,26.24 25.87,25.37 C 25.87,24.74 26.6,24.3 27.86,24.3 C 29.9,24.3 31.21,25.16 31.44,26.72 H 33 V 23.3 H 31.62 L 31.21,23.95 A 6.73,6.73 0 0,0 27.74,22.99 C 24.92,22.99 23.19,24.3 23.19,26.01 C 23.19,27.76 24.81,28.33 27.73,28.87 L 28.09,28.93 C 29.87,29.26 30.86,29.45 30.86,30.33 C 30.86,31.01 30.05,31.47 28.64,31.47 Z M 35,33 H 40 V 32 H 39.4 C 38.75,32 38.55,31.83 38.55,31.49 C 38.55,31.38 38.6,31.23 38.66,31.05 L 39.1,30 H 42.68 L 43.12,31 C 43.12,31.03 43.14,31.05 43.15,31.08 C 43.21,31.23 43.26,31.36 43.26,31.44 C 43.26,31.84 42.96,32 42.19,32 H 41.57 V 33 H 48 V 32 H 47.37 C 46.53,32 46.37,31.77 46,30.95 L 42.87,23 H 39.9 L 36.82,30.9 C 36.57,31.47 36.34,32 35.49,32 H 35 V 33 Z M 8,33 H 13.5 V 31.9 H 12.76 C 12.1,31.9 11.9,31.85 11.9,31.51 C 11.9,31.39 11.95,31.25 12.02,31.07 L 12.45,30 H 16.03 L 16.46,31.02 C 16.54,31.22 16.61,31.36 16.61,31.46 C 16.61,31.86 16.29,31.9 15.53,31.9 H 14.92 V 33 H 21 V 32 H 20.72 C 19.89,32 19.72,31.79 19.36,30.97 L 16.22,23 H 13.24 L 10.16,30.94 C 9.91,31.5 9.68,32 8.83,32 H 8 V 33 Z" fill="url(#b)"/>
<defs>
<linearGradient id="a" x1="14.48" x2="14.48" y1="21" y2="34.41" gradientUnits="userSpaceOnUse">
<stop stop-color="rgb(234, 147, 42)" offset=".3"/>
<stop stop-color="rgb(225, 140, 41)" offset=".5"/>
<stop stop-color="rgb(217, 134, 40)" offset=".8"/>
</linearGradient>
<linearGradient id="b" x1="14.48" x2="14.48" y1="21" y2="34.41" gradientUnits="userSpaceOnUse">
<stop stop-color="rgb(243, 154, 42)" offset="0"/>
<stop stop-color="rgb(234, 147, 42)" offset=".3"/>
<stop stop-color="rgb(225, 140, 41)" offset=".5"/>
<stop stop-color="rgb(217, 134, 40)" offset=".8"/>
<stop stop-color="rgb(209, 127, 39)" offset="1"/>
</linearGradient>
</defs>
</svg>
