<?xml version="1.0" encoding="UTF-8"?>
<!-- generated by Finnhub -->
<svg viewBox="0 0 55.5 55.5" xmlns="http://www.w3.org/2000/svg">
<path d="M 0,0 H 55.5 V 55.5 H 0 Z" fill="rgb(87, 136, 57)"/>
<path d="M 30.99,34.685 C 30.08,34.7 29.33,33.94 29.33,33 C 29.33,32.07 30.08,31.32 31,31.32 C 31.92,31.32 32.67,32.07 32.67,33 C 32.67,33.94 31.92,34.7 31,34.7 Z M 31,30 A 3,3 0 1,0 31,36 A 3,3 0 0,0 31,30 Z M 43.96,34.7 A 1.69,1.69 0 1,1 43.96,31.32 A 1.69,1.69 0 0,1 43.96,34.7 Z M 41,38 C 41.68,38 42.5,37.84 42.5,36.79 V 35.38 C 42.87,35.77 43.3,36.01 43.96,36.01 A 3,3 0 1,0 43.96,30 C 43.26,30 42.86,30.28 42.5,30.71 V 30 H 41 V 38 Z M 21.04,34.62 C 20.1,34.62 19.34,33.87 19.34,32.95 C 19.34,32.04 20.1,31.29 21.04,31.29 C 21.97,31.29 22.73,32.04 22.73,32.95 C 22.73,33.87 21.97,34.61 21.03,34.61 Z M 22.72,30 V 30.7 A 2.2,2.2 0 0,0 21.04,30 A 2.99,2.99 0 0,0 18,32.95 A 2.98,2.98 0 0,0 21.04,35.9 C 21.69,35.9 22.27,35.67 22.64,35.29 C 22.64,36.33 22.01,36.84 21.03,36.84 C 20.56,36.84 19.86,36.79 19.3,36.36 C 19.17,37.43 20,38 21.1,38 C 22.62,38 24,37.37 24,34.78 V 30 H 22.72 Z M 39,30 V 33.27 C 38.94,34.26 38.43,34.75 37.5,34.75 C 36.51,34.75 36,34.19 36,33.05 V 31.21 C 36,30.16 35.28,30 34.5,30 V 33.43 C 34.5,35.23 35.4,36 37.14,36 C 38.21,36 38.77,35.5 39,35.17 C 39.16,35.87 39.82,36 40.5,36 V 31.2 C 40.5,30.16 39.78,30 39,30 Z" fill="rgb(254, 254, 253)"/>
<path d="M 24.99,34.695 C 25,35.74 25.75,36 26.5,36 V 32.88 C 26.5,31.42 27.37,31.33 28,31.33 V 30 C 26.98,30 26.68,30.57 26.5,30.9 V 30 H 25 V 34.71 Z M 19,26.1 C 19,27.81 17.19,28 16.4,28 C 14.82,28 14.05,27.24 14.02,26 H 15.38 C 15.43,26.62 15.73,26.89 16.5,26.89 C 17,26.89 17.53,26.75 17.53,26.27 C 17.53,25.25 14,25.84 14,23.73 C 14,22.53 15.22,22 16.42,22 C 17.5,22 18.8,22.69 18.84,24 H 17.4 C 17.4,23.83 17.33,23.5 17.22,23.39 C 16.98,23.15 16.5,23.11 16.29,23.11 C 15.89,23.11 15.46,23.22 15.46,23.63 C 15.46,24.61 18.99,24 18.99,26.09 Z M 37.54,26.68 A 1.69,1.69 0 1,1 37.53,23.3 A 1.69,1.69 0 0,1 37.53,26.68 Z M 40.5,22 H 39 V 22.56 C 38.86,22.31 38.32,22 37.54,22 C 35.86,22 34.5,23.12 34.5,25 A 3,3 0 0,0 37.54,27.98 C 38.24,27.98 38.84,27.71 39.22,27.28 C 39.39,27.89 39.94,28 40.5,28 V 22 Z M 44.04,26.67 A 1.69,1.69 0 0,1 44.04,23.29 C 44.97,23.29 45.5,24.05 45.5,24.99 C 45.5,25.92 44.97,26.67 44.04,26.67 Z M 47,20 C 46.32,20 45.5,20.16 45.5,21.21 V 22.61 C 45.13,22.21 44.7,22 44.04,22 A 2.87,2.87 0 0,0 41,24.98 A 3.02,3.02 0 0,0 44.04,28 C 44.74,28 45.35,27.7 45.72,27.28 C 45.9,27.89 46.44,28 47,28 V 20 Z M 28,22 H 27 V 20 C 26.23,20 25.5,20.16 25.5,21.21 V 22 H 25 V 23 H 25.5 V 26.79 C 25.5,27.84 26.23,28 27,28 V 23 H 28 V 22 Z M 8.77,25 L 10.01,22.05 L 11.25,25 H 8.77 Z M 10.76,20 C 10.04,20 9.23,20.08 8.76,21.2 L 6,28 H 7.63 L 8.27,26.45 H 11.75 L 12.1,27.3 C 12.4,27.94 12.84,28 14,28 L 10.76,20 Z M 22.58,21.99 C 21.65,21.99 21.23,22.44 21,22.77 V 20 C 20.28,20 19.5,20.16 19.5,21.21 V 26.79 C 19.5,27.84 20.28,28 21,28 V 24.73 C 21.05,23.73 21.4,23.24 22.25,23.24 C 23.15,23.24 23.5,23.81 23.5,24.94 V 26.79 C 23.5,27.84 24.28,28 25,28 V 24.56 C 25,22.76 24.17,21.99 22.58,21.99 Z M 31,23.26 C 31.9,23.26 32.4,23.86 32.6,24.56 H 29.4 C 29.6,23.86 30.13,23.26 30.99,23.26 Z M 34,25.17 C 34,23.52 32.86,22 31,22 C 29.2,22 28,23.34 28,25 A 3,3 0 0,0 33.72,26.26 H 32.2 C 31.91,26.52 31.64,26.76 31,26.76 C 30.23,26.76 29.58,26.29 29.39,25.6 H 33.97 C 33.99,25.46 34,25.32 34,25.17 Z" fill="rgb(254, 254, 253)"/>
</svg>
