<?xml version="1.0" encoding="UTF-8"?>
<!-- generated by Finnhub -->
<svg viewBox="0 0 55.5 55.5" xmlns="http://www.w3.org/2000/svg">
<path d="M 0,0 H 55.5 V 55.5 H 0 Z" fill="rgb(24, 38, 159)"/>
<path d="M 28.389999999999997,26.715 C 28.4,26.16 28.4,25.22 27.61,25.22 C 26.83,25.22 26.7,26.45 26.7,27.16 C 26.7,27.86 26.74,28.81 27.57,28.81 C 27.84,28.81 28.12,28.62 28.26,28.39 C 28.35,28.1 28.39,27.82 28.39,27.54 V 26.74 Z M 28.49,30 V 29 H 28.44 A 1.49,1.49 0 0,1 26.97,30 C 25.41,30 25,28.43 25,27.1 S 25.41,24.02 27.02,24.02 C 27.57,23.98 28.12,24.26 28.39,24.73 V 22.37 L 30,22 V 30 H 28.49 Z M 50.17,29.72 L 50.3,29.27 L 52,24 H 50.72 L 49.66,27.33 L 48.56,24 H 47 L 49.02,29.6 C 48.88,30.15 48.65,30.84 48.15,30.84 H 47 V 32 H 48.1 C 49.48,32 49.82,30.87 50.17,29.72 Z M 5.65,32.63 C 5.7,32.85 5.85,32.96 6.05,32.96 C 6.15,32.96 6.3,32.9 6.3,32.8 S 6.2,32.65 6.1,32.6 L 6.05,32.58 A 0.86,0.86 0 0,0 5.95,32.54 C 5.69,32.46 5.1,32.27 5.1,31.82 C 5.1,31.27 5.56,31 6.05,31 C 6.47,31 6.8,31.22 6.95,31.6 L 6.35,31.77 C 6.3,31.64 6.2,31.55 6,31.55 C 5.72,31.55 5.78,31.87 6.05,31.87 C 6.58,31.97 7,32.17 7,32.69 C 7,33.23 6.45,33.5 6,33.5 C 5.55,33.5 5.1,33.23 5,32.74 L 5.65,32.64 Z M 9.32,31.85 C 9.32,32.07 9.11,32.07 8.95,32.07 H 8.74 V 31.57 H 8.94 C 9.11,31.57 9.32,31.63 9.32,31.85 Z M 8,33.5 H 8.74 V 32.56 H 9.11 C 9.56,32.56 10,32.24 10,31.79 C 10,31.19 9.45,31 8.95,31 H 8 V 33.5 Z M 11.82,32.96 C 11.52,32.96 11.46,32.52 11.46,32.26 C 11.46,32.03 11.51,31.55 11.82,31.55 C 12.14,31.55 12.19,31.98 12.19,32.25 C 12.19,32.52 12.14,32.95 11.82,32.95 Z M 11.98,33.5 C 12.6,33.45 13.02,32.9 12.96,32.25 V 32.09 C 12.91,31.44 12.45,30.95 11.82,31 H 11.72 C 11.1,31.06 10.68,31.6 10.73,32.25 V 32.36 C 10.73,33.01 11.2,33.5 11.83,33.5 H 11.98 Z M 15.03,31.79 C 15.03,32.01 14.88,32.01 14.72,32.01 H 14.4 V 31.57 H 14.82 C 14.98,31.57 15.03,31.67 15.03,31.79 Z M 14.66,32.56 L 14.98,33.5 H 15.83 L 15.35,32.4 C 15.6,32.32 15.77,32.1 15.77,31.73 C 15.77,31.19 15.27,31 14.87,31 H 13.67 V 33.5 H 14.4 V 32.56 H 14.66 Z M 17.68,33.5 H 16.98 V 31.61 H 16.45 V 31 H 18.15 V 31.61 H 17.68 V 33.5 Z M 29.08,32.6 C 29.08,33.12 28.83,33.48 28.17,33.48 C 27.63,33.48 27.3,33.17 27.3,32.6 V 31 H 27.97 V 32.54 C 27.97,32.79 28.07,32.93 28.27,32.93 C 28.51,32.93 28.55,32.77 28.55,32.49 V 31 H 29.09 V 32.6 Z M 30.46,33.5 H 31.14 V 31.61 H 31.62 V 31 H 29.93 V 31.61 H 30.46 V 33.5 Z M 33.84,32.22 C 33.84,32.52 33.74,32.94 33.26,32.94 V 31.56 C 33.64,31.56 33.84,31.86 33.84,32.22 Z M 33.37,31 H 32.47 V 33.5 H 33.42 C 34.15,33.5 34.59,32.92 34.59,32.22 C 34.59,31.46 34.12,31 33.37,31 Z M 22.94,31.22 H 22.36 V 31.92 H 21.68 V 32.53 H 22.36 V 33.24 H 22.94 V 32.54 H 23.61 V 31.93 H 22.94 V 31.22 Z M 42.28,32.01 C 42.44,32.01 42.6,32.01 42.6,31.79 C 42.6,31.68 42.54,31.57 42.39,31.57 H 41.96 V 32 H 42.28 Z M 42.54,33.5 L 42.23,32.56 H 41.96 V 33.5 H 41.22 V 31 H 42.44 C 42.83,31 43.34,31.19 43.34,31.73 C 43.34,32.1 43.16,32.33 42.91,32.4 L 43.39,33.5 H 42.54 Z M 24.92,32.25 C 24.92,32.52 24.97,32.95 25.29,32.95 C 25.59,32.95 25.65,32.52 25.65,32.25 C 25.65,31.98 25.6,31.55 25.29,31.55 C 24.97,31.55 24.92,32.03 24.92,32.25 Z M 26.42,32.25 C 26.48,32.9 26.06,33.45 25.44,33.5 H 25.29 C 24.66,33.5 24.19,33.01 24.19,32.36 V 32.26 C 24.14,31.6 24.56,31.06 25.19,31 H 25.29 C 25.91,30.95 26.37,31.44 26.43,32.09 V 32.25 Z M 36.38,32.95 C 36.08,32.95 36.02,32.52 36.02,32.25 C 36.02,32.03 36.07,31.55 36.38,31.55 S 36.75,31.98 36.75,32.25 C 36.75,32.52 36.69,32.95 36.38,32.95 Z M 36.54,33.5 C 37.16,33.45 37.58,32.9 37.52,32.25 V 32.09 C 37.47,31.44 37.01,30.95 36.38,31 H 36.28 C 35.66,31.06 35.24,31.6 35.29,32.25 V 32.36 C 35.29,33.01 35.76,33.5 36.39,33.5 H 36.54 Z M 38.96,32.25 C 38.96,32.52 39.01,32.95 39.33,32.95 C 39.63,32.95 39.69,32.52 39.69,32.25 C 39.69,31.98 39.64,31.55 39.33,31.55 C 39.01,31.55 38.96,32.03 38.96,32.25 Z M 40.46,32.25 C 40.52,32.9 40.1,33.45 39.48,33.5 H 39.33 C 38.7,33.5 38.23,33.01 38.23,32.36 V 32.26 C 38.18,31.6 38.6,31.06 39.23,31 H 39.33 C 39.95,30.95 40.41,31.44 40.47,32.09 V 32.25 Z M 19.91,32.95 C 19.71,32.95 19.56,32.85 19.51,32.63 L 18.86,32.74 C 18.96,33.23 19.41,33.5 19.86,33.5 C 20.31,33.5 20.86,33.23 20.86,32.69 C 20.86,32.17 20.44,31.97 19.91,31.87 C 19.64,31.87 19.58,31.55 19.86,31.55 C 20.06,31.55 20.16,31.64 20.21,31.77 L 20.81,31.6 A 0.92,0.92 0 0,0 19.91,31 C 19.42,31 18.96,31.27 18.96,31.82 C 18.96,32.27 19.55,32.46 19.8,32.54 A 0.86,0.86 0 0,1 19.96,32.61 C 20.06,32.65 20.16,32.71 20.16,32.8 C 20.16,32.9 20.01,32.96 19.91,32.96 Z M 44.65,32.63 C 44.7,32.85 44.85,32.96 45.05,32.96 C 45.15,32.96 45.3,32.9 45.3,32.8 S 45.2,32.65 45.1,32.6 L 45.05,32.58 A 0.86,0.86 0 0,0 44.95,32.54 C 44.69,32.46 44.1,32.27 44.1,31.82 C 44.1,31.27 44.56,31 45.05,31 C 45.47,31 45.8,31.22 45.95,31.6 L 45.35,31.77 C 45.3,31.64 45.2,31.55 45,31.55 C 44.72,31.55 44.78,31.87 45.05,31.87 C 45.58,31.97 46,32.17 46,32.69 C 46,33.23 45.45,33.5 45,33.5 C 44.55,33.5 44.1,33.23 44,32.74 L 44.65,32.64 Z M 39.53,24 V 25.06 H 39.58 C 39.86,24.39 40.46,24 41.16,24.05 C 41.81,24.05 42.41,24.44 42.69,25.06 C 42.97,24.39 43.62,24 44.32,24.05 C 44.83,24.05 45.34,24.25 45.67,24.63 C 46.02,25.04 46.01,25.59 46,26.1 V 30 H 44.37 V 26.9 C 44.37,26.56 44.37,26.23 44.32,25.89 C 44.22,25.55 43.95,25.35 43.62,25.4 A 0.76,0.76 0 0,0 42.92,25.84 C 42.83,26.18 42.83,26.56 42.83,26.9 V 30 H 41.16 V 26.66 C 41.18,26.07 41.2,25.4 40.46,25.4 C 39.63,25.4 39.63,26.27 39.63,26.9 V 30 H 38 V 24.39 L 39.53,24 Z M 34.13,25.06 C 34.86,25.06 35.1,25.68 35.1,26.3 H 33.04 C 33.14,25.63 33.42,25.06 34.14,25.06 Z M 33.08,27.56 V 27.26 H 36.78 A 3.7,3.7 0 0,0 36.2,25.01 C 35.72,24.34 34.9,24 34.1,24 C 32.32,24 31.3,25.34 31.3,27.07 C 31.3,28.8 32.41,30 34.14,30 C 35.44,30.05 36.59,29.3 36.83,28 H 35.24 C 35.19,28.53 34.76,28.8 34.24,28.8 H 34.14 A 1.17,1.17 0 0,1 33.08,27.55 Z M 22.4,27.16 L 22.54,27.14 V 27.19 C 22.54,27.64 22.54,28.06 22.3,28.47 C 22.07,28.82 21.71,28.95 21.31,28.95 C 20.93,28.9 20.7,28.57 20.75,28.19 C 20.75,27.39 21.73,27.25 22.4,27.16 Z M 22.6,29 V 30 H 24.2 V 26.19 C 24.2,25.57 24.2,24.97 23.68,24.52 A 2.95,2.95 0 0,0 21.88,24 C 20.66,24 19.34,24.43 19.2,26 H 20.7 A 0.94,0.94 0 0,1 21.7,25.14 C 22.36,25.14 22.55,25.54 22.55,26.14 V 26.28 A 7.3,7.3 0 0,0 20.28,26.66 C 19.53,26.9 19.01,27.56 19.01,28.38 C 19.01,29.48 19.77,30 20.81,30 A 1.9,1.9 0 0,0 22.6,29 Z M 16.41,26 C 16.46,25.62 16.12,25.3 15.74,25.25 H 15.6 C 14.64,25.25 14.54,26.16 14.54,26.93 C 14.54,27.7 14.54,28.66 15.5,28.66 C 15.98,28.7 16.41,28.41 16.41,28 H 18.04 C 17.86,29.33 16.97,30 15.4,30 A 2.91,2.91 0 0,1 12.62,27.07 C 12.62,25.39 13.68,24 15.5,24 C 17.32,24 17.9,24.85 18,26 H 16.4 Z M 8.39,24.06 L 9.2,27 H 7.56 L 8.38,24.06 Z M 10.12,30 H 12 L 9.54,22 L 7.27,22.59 L 5,30 H 6.6 L 7.08,28.33 H 9.63 L 10.12,30 Z" fill="rgb(254, 254, 253)"/>
</svg>
