<?xml version="1.0" encoding="UTF-8"?>
<!-- generated by Finnhub -->
<svg viewBox="0 0 55.5 55.5" xmlns="http://www.w3.org/2000/svg">
<path d="M 0,0 H 55.5 V 55.5 H 0 Z" fill="url(#a)"/>
<path d="M 49.17,31.415 L 49.78,30.92 C 50.1,30.62 50.38,30.28 50.6,29.88 C 50.77,29.55 50.88,29.21 50.86,28.82 C 50.85,28.52 50.76,28.23 50.61,27.97 C 50.4,27.62 50.12,27.34 49.81,27.1 A 7.17,7.17 0 0,0 48.34,26.22 C 47.45,25.82 46.53,25.52 45.6,25.26 A 35.7,35.7 0 0,0 42.14,24.51 A 62.68,62.68 0 0,0 38.54,24.01 C 38.05,23.96 37.56,23.93 37.06,23.89 C 36.16,23.82 35.26,23.77 34.36,23.77 C 33.36,23.77 32.36,23.77 31.35,23.8 A 58.5,58.5 0 0,0 20,25.38 L 20.07,25.35 C 20.95,25.01 21.85,24.76 22.77,24.55 A 32.85,32.85 0 0,1 27.04,23.82 A 62.6,62.6 0 0,1 30.01,23.56 C 30.81,23.52 31.61,23.48 32.41,23.46 C 33.04,23.44 33.68,23.45 34.32,23.46 C 34.81,23.46 35.29,23.46 35.77,23.48 A 112.89,112.89 0 0,1 39.45,23.73 A 45.01,45.01 0 0,1 45.9,24.82 C 46.95,25.09 47.99,25.42 49,25.86 C 49.59,26.12 50.16,26.4 50.69,26.79 C 51.02,27.04 51.35,27.3 51.6,27.66 C 51.69,27.77 51.76,27.89 51.83,28.02 C 52.07,28.51 52.06,29 51.81,29.47 C 51.64,29.79 51.41,30.04 51.16,30.27 C 50.76,30.61 50.32,30.89 49.86,31.12 C 49.64,31.24 49.41,31.34 49.19,31.45 L 49.18,31.43 Z M 20,27 H 22.9 C 23,27 23.09,27 23.18,27.03 C 23.66,27.13 23.95,27.46 23.99,27.97 C 24.02,28.38 23.97,28.57 23.72,29 C 23.83,29.15 23.92,29.33 23.95,29.52 C 24.04,30 24,31 24,31 H 23 V 29.9 C 23,29.82 22.99,29.75 22.97,29.67 A 0.38,0.38 0 0,0 22.63,29.35 A 0.7,0.7 0 0,0 22.53,29.35 H 21 V 31 H 20 V 27 Z M 21,28.65 L 22.65,28.66 C 23.27,28.66 23.25,27.69 22.63,27.67 H 21 V 28.65 Z M 14,27 V 27.67 H 11.32 C 11.25,27.67 11.17,27.67 11.1,27.69 C 10.68,27.78 10.72,28.59 11.15,28.65 H 11.28 L 12.83,28.66 C 13.03,28.66 13.21,28.7 13.39,28.78 C 14.16,29.12 14.23,30.4 13.49,30.83 C 13.29,30.95 13.07,31 12.85,31 L 10,30.99 V 30.33 L 12.67,30.32 C 12.74,30.32 12.82,30.32 12.89,30.3 C 13.32,30.21 13.25,29.4 12.83,29.35 C 12.78,29.34 12.73,29.35 12.69,29.35 L 11.03,29.34 C 10.93,29.34 10.83,29.34 10.73,29.31 C 9.69,29.05 9.73,27.14 10.83,27.01 H 14 Z" fill="rgb(254, 254, 253)"/>
<path d="M 38.99,26.985 V 27.67 H 36.35 C 36,27.67 35.99,27.78 36,28.04 V 28.66 H 38.21 L 38.22,29.34 H 36 V 30.09 C 36,30.24 36.07,30.3 36.22,30.32 H 39 V 30.99 L 36.06,31 C 35.56,31 35.06,30.79 35.01,30.23 L 35,30.06 V 27.93 C 35,27.83 35.02,27.72 35.04,27.61 C 35.14,27.16 35.58,27.05 35.99,27.01 L 36.24,27 H 39 Z M 49,31 H 48 V 29.36 H 46 V 31 H 45 V 27.01 L 46,27 V 28.65 H 48 V 27 H 49 V 31 Z M 9,31 H 8 V 29.22 H 6.77 C 6.68,29.22 6.63,29.25 6.57,29.32 C 6.18,29.77 5.77,30.44 5.38,30.9 A 0.25,0.25 0 0,1 5.16,31 H 4 S 6.26,28.46 7.4,27.28 C 7.88,26.8 9,26.84 9,27.65 V 31 Z M 8,28.58 V 27.85 C 8,27.73 7.93,27.79 7.87,27.85 L 7.26,28.58 H 8 Z M 44,27 V 27.67 H 41.31 L 41.16,27.68 C 41.06,27.7 41.02,27.75 41,27.87 V 30.1 C 41.01,30.24 41.07,30.3 41.2,30.32 H 44 V 31 H 41.02 C 40.88,31 40.74,30.98 40.6,30.94 C 40.2,30.84 40,30.56 40,30.11 V 27.92 L 40.02,27.68 A 0.72,0.72 0 0,1 40.44,27.11 C 40.61,27.03 40.79,27.01 40.97,27.01 L 44,27 Z M 17.5,31 H 16.5 V 27.63 H 15 V 27 H 19 V 27.63 H 17.5 V 31 Z M 32.5,31 H 31.5 V 27.63 H 30 V 27 H 34 V 27.63 H 32.5 V 31 Z M 27,31 H 26 C 25.86,31 25.71,30.98 25.57,30.94 C 25.19,30.84 25,30.55 25,30.12 V 27.87 C 25,27.44 25.2,27.17 25.58,27.06 C 25.71,27.02 25.85,27 25.99,27 H 28 C 28.17,27 28.34,27.02 28.5,27.08 C 28.78,27.19 28.95,27.41 28.98,27.74 L 29,27.97 A 672.31,672.31 0 0,1 28.98,30.27 C 28.95,30.57 28.8,30.77 28.55,30.89 C 28.37,30.97 28.19,30.99 28,30.99 H 27 Z M 28.17,29 V 27.92 C 28.17,27.75 28.11,27.68 27.97,27.67 H 26.1 C 25.86,27.67 25.8,27.73 25.8,27.99 L 25.81,30.01 C 25.81,30.26 25.86,30.31 26.09,30.31 A 896.4,896.4 0 0,0 28.02,30.31 A 0.18,0.18 0 0,0 28.16,30.15 V 29 Z" fill="rgb(254, 254, 253)"/>
<defs>
<linearGradient id="a" x1="10.42" x2="68.15" y1="9.71" y2="76.02" gradientUnits="userSpaceOnUse">
<stop stop-color="rgb(25, 29, 31)" offset="0"/>
<stop stop-color="rgb(5, 5, 8)" offset="1"/>
</linearGradient>
</defs>
</svg>
