<?xml version="1.0" encoding="UTF-8"?>
<!-- generated by Finnhub -->
<svg viewBox="0 0 55.5 55.5" xmlns="http://www.w3.org/2000/svg">
<path d="M 0,0 H 55.5 V 55.5 H 0 Z" fill="rgb(239, 242, 248)"/>
<path d="M 34.11,12.985 H 27 L 36.09,38.89 C 36.33,39.56 36.94,40 37.63,40 H 42.35 C 43.51,40 44.3,38.78 43.89,37.65 L 35.66,14.1 A 1.66,1.66 0 0,0 34.12,13 Z" fill="rgb(1, 85, 163)"/>
<path d="M 27.99,19.485 L 25.34,13 H 22.99 C 22.27,13 21.62,13.43 21.35,14.09 L 12.13,37.62 A 1.74,1.74 0 0,0 13.77,40 H 18.82 C 19.55,40 20.2,39.57 20.47,38.91 L 28,19.5 Z" fill="rgb(186, 188, 189)"/>
<circle cx="28.5" cy="32.5" r="2.5" fill="rgb(63, 63, 64)"/>
</svg>
