<?xml version="1.0" encoding="UTF-8"?>
<!-- generated by Finnhub -->
<svg viewBox="0 0 55.5 55.5" xmlns="http://www.w3.org/2000/svg">
<path d="M 0,0 H 55.5 V 55.5 H 0 Z" fill="rgb(239, 242, 248)"/>
<path d="M 19.66,26.485 H 16.56 L 15.66,28 H 14 L 18.41,21 H 20.23 L 21.5,28 H 19.92 L 19.67,26.5 Z M 19.47,25.3 L 19,22.45 L 17.12,25.3 H 19.46 Z M 22,26.54 L 23.44,26.27 C 23.53,26.49 23.69,26.69 23.91,26.83 C 24.14,26.95 24.41,27 24.67,27 C 25,27 25.6,26.97 25.61,26.54 C 25.61,26.21 25.19,26.12 24.93,26.06 A 7.25,7.25 0 0,1 23.3,25.46 A 1.1,1.1 0 0,1 22.8,24.53 C 22.8,24.17 22.98,23.81 23.28,23.56 C 23.83,23.16 24.52,23 25.26,23 C 25.81,23 26.36,23.1 26.83,23.35 C 27.18,23.56 27.42,23.89 27.5,24.25 L 26.15,24.57 A 0.71,0.71 0 0,0 25.81,24.17 C 25.57,24.05 25.31,23.99 25.03,24 C 24.73,23.98 24.3,24.14 24.3,24.45 C 24.3,24.75 24.9,24.83 25.2,24.89 C 25.7,24.99 26.18,25.17 26.62,25.43 C 26.78,25.53 26.9,25.67 26.99,25.83 A 1,1 0 0,1 27.11,26.33 C 27.11,26.55 27.06,26.77 26.95,26.97 S 26.68,27.36 26.48,27.5 C 25.97,27.86 25.31,28 24.67,28 C 24.02,28 23.42,27.9 22.87,27.62 A 1.9,1.9 0 0,1 22,26.54 Z M 31.41,26 L 32.8,26.3 C 32.6,26.8 32.22,27.24 31.72,27.56 C 31.22,27.86 30.64,28 30.04,27.99 C 29.73,28.01 29.42,27.97 29.12,27.87 A 1.96,1.96 0 0,1 27.7,25.95 C 27.7,24.88 28.28,23.89 29.24,23.4 C 29.74,23.13 30.34,23 30.94,23 C 31.45,23 32.08,23.13 32.52,23.44 C 32.72,23.58 32.88,23.76 33,23.96 C 33.11,24.16 33.18,24.37 33.2,24.6 L 31.7,24.73 C 31.67,24.21 31.3,23.98 30.83,24 C 29.73,24.01 29.13,25.15 29.2,26.08 C 29.2,26.58 29.57,27.01 30.04,27 C 30.57,26.99 31.14,26.58 31.41,26 Z M 38.84,26 H 35 V 26.08 C 34.97,26.68 35.54,27.01 36.08,27 C 36.56,27 37.04,26.82 37.28,26.37 L 38.67,26.61 C 38.16,27.54 37.09,28.01 36.07,28 C 34.81,28.02 33.5,27.34 33.5,25.78 C 33.5,24.04 35.11,22.94 36.7,23 C 37.6,22.96 38.51,23.4 38.86,24.26 C 39.08,24.78 39.02,25.46 38.84,26 Z M 37.5,25.2 V 25 C 37.5,24.37 37.1,23.98 36.49,24 C 35.75,24 35.22,24.52 35.09,25.23 L 37.49,25.2 Z M 40.38,23 H 41.71 L 41.58,23.75 C 41.86,23.51 42.18,23.32 42.51,23.17 C 42.8,23.06 43.11,23 43.42,23 C 43.79,23 44.16,23.1 44.43,23.35 C 44.68,23.59 44.79,23.91 44.8,24.25 C 44.78,24.59 44.72,24.92 44.64,25.24 L 44.04,28 H 42.62 L 43.24,25.28 C 43.3,25.04 43.35,24.79 43.38,24.54 C 43.39,24.19 43.09,24 42.78,24 C 42.25,24 41.74,24.43 41.5,24.89 C 41.34,25.26 41.22,25.59 41.15,25.99 L 40.7,28 H 39.3 L 40.38,23 Z M 45.43,24 L 45.67,23 H 46.43 L 46.69,21.95 L 48.49,21 L 47.99,23 H 48.93 L 48.69,24 H 47.76 L 47.33,25.91 C 47.27,26.13 47.25,26.43 47.21,26.65 C 47.19,26.93 47.54,27 47.74,27 H 48.26 L 47.99,27.93 C 47.72,27.97 47.44,28 47.17,28 C 46.5,28 45.5,27.75 45.58,26.9 C 45.62,26.53 45.69,26.17 45.78,25.81 L 46.2,24 H 45.43 Z M 13,33.64 H 14.5 C 14.43,34.63 15.5,34.8 16,34.8 C 16.64,34.8 17.43,34.82 17.44,34.02 C 17.44,33.82 17.34,33.63 17.16,33.51 C 16.82,33.31 16.46,33.14 16.08,33.02 C 15.63,32.86 15.2,32.66 14.78,32.44 C 14.23,32.14 13.98,31.57 14,30.99 C 13.97,29.6 15.43,28.93 16.62,29 C 17.83,28.94 19.46,29.6 19.5,31 H 18 C 18,30.53 17.25,30.2 16.66,30.2 C 16.18,30.2 15.5,30.31 15.5,30.9 C 15.49,31.53 16.26,31.66 16.79,31.84 C 17.77,32.14 19,32.64 19,33.83 C 19,34.41 18.7,34.98 18.2,35.36 C 17.58,35.81 16.78,36.04 15.98,35.99 C 15.03,36.01 13.81,35.77 13.26,34.91 C 13.06,34.53 13,34.13 13,33.64 Z M 20,33.23 C 20,32.81 20.08,32.38 20.2,31.97 A 3.86,3.86 0 0,1 22.46,29.35 C 23.03,29.11 23.66,28.99 24.3,29 C 24.73,28.99 25.15,29.05 25.55,29.18 C 25.95,29.32 26.3,29.52 26.6,29.78 C 26.9,30.06 27.14,30.38 27.3,30.73 C 27.45,31.08 27.52,31.46 27.5,31.84 C 27.5,32.55 27.3,33.26 26.92,33.9 A 3.88,3.88 0 0,1 25.38,35.46 C 24.71,35.82 23.94,36.01 23.16,36 A 3.45,3.45 0 0,1 21.36,35.57 A 2.47,2.47 0 0,1 20.33,34.51 A 2.8,2.8 0 0,1 20,33.23 Z M 21.5,33.23 C 21.47,34.25 22.39,34.8 23.31,34.8 C 23.76,34.8 24.19,34.73 24.54,34.49 A 3.48,3.48 0 0,0 26,31.92 C 26.02,30.47 25.08,30.2 24.18,30.2 C 22.64,30.2 21.51,31.75 21.5,33.2 V 33.23 Z M 27.5,36 L 29.61,29 H 31.13 L 29.41,34.8 H 33 L 32.74,36 H 27.5 Z M 39.15,34.45 H 36.19 L 35.15,36 H 33.5 L 37.91,29 H 39.73 L 41,36 H 39.47 L 39.15,34.45 Z M 38.95,33.29 L 38.5,30.47 L 36.78,33.29 H 38.96 Z M 43.09,36 H 41.5 L 43.11,29 H 46.53 C 46.99,29 47.46,29.04 47.91,29.17 C 48.24,29.27 48.51,29.49 48.69,29.77 C 48.91,30.09 49,30.47 48.99,30.84 C 49,31.38 48.81,31.91 48.41,32.31 C 47.92,32.73 47.29,32.99 46.61,33.03 C 46.84,33.22 47.04,33.43 47.19,33.68 C 47.65,34.42 48.05,35.2 48.37,36 H 46.67 C 46.53,35.6 46.27,34.99 45.87,34.15 C 45.64,33.58 45.33,33 44.33,33 H 43.74 L 43.09,36 Z M 43.99,32 H 46.17 C 47.08,32 47.5,31.33 47.5,30.86 C 47.5,30.2 46.63,30.2 46.17,30.2 H 44.42 L 43.98,32 Z"/>
<path d="M 14.99,17.405 H 14.9 A 5,5 0 0,0 9.95,21.9 A 4.02,4.02 0 1,1 15,17.42 Z" fill="url(#a)"/>
<path d="M 8.49,17.985 C 8.5,19.17 9.3,20.15 10.38,20.42 L 13.42,17.38 A 2.5,2.5 0 0,0 8.5,18 Z" fill="rgb(232, 173, 83)"/>
<circle cx="11" cy="18" r="1.5" fill="rgb(226, 142, 14)"/>
<path d="M 28.99,22.985 C 27.66,19.12 23.1,16 18.51,16 A 11.61,11.61 0 0,0 7,27.71 C 7,31.5 8.76,34.86 11.5,37 C 10.6,35.4 8,32.87 8,28.2 C 8,22 12.9,17 18.99,17 C 24.03,17 26.74,20.42 27.34,21 C 27.94,21.58 29.02,23.05 29,23 Z" fill="rgb(15, 59, 128)"/>
<defs>
<linearGradient id="a" x1="8.47" x2="14.61" y1="12.97" y2="22.48" gradientUnits="userSpaceOnUse">
<stop stop-color="rgb(243, 213, 165)" stop-opacity=".18" offset=".17"/>
<stop stop-color="rgb(239, 196, 131)" offset=".45"/>
</linearGradient>
</defs>
</svg>
