<?xml version="1.0" encoding="UTF-8"?>
<!-- generated by Finnhub -->
<svg viewBox="0 0 55.5 55.5" xmlns="http://www.w3.org/2000/svg">
<path d="M 0,0 H 55.5 V 55.5 H 0 Z" fill="rgb(239, 242, 248)"/>
<path d="M 50.99,34.985 H 5 V 34 H 51 V 35 Z" fill="rgb(96, 134, 153)"/>
<path d="M 31.09,21.985 C 30.24,22 29.55,22.25 29.06,22.67 C 28.58,23.08 28.31,23.66 28.31,24.3 C 28.31,25.02 28.6,25.53 29.03,25.92 A 5.53,5.53 0 0,0 30.75,26.89 C 31.22,27.09 31.65,27.27 31.98,27.51 C 32.35,27.77 32.58,28.09 32.58,28.56 C 32.58,28.96 32.43,29.26 32.18,29.46 C 31.92,29.67 31.55,29.79 31.1,29.79 C 30.54,29.79 30.15,29.64 29.87,29.42 A 1.87,1.87 0 0,1 29.27,28.59 L 29.22,28.43 L 28,28.92 L 28.05,29.05 C 28.2,29.47 28.48,29.95 28.97,30.34 C 29.45,30.73 30.14,31 31.07,31 C 31.96,31 32.7,30.73 33.21,30.28 C 33.72,29.82 34,29.19 34,28.5 C 34,27.79 33.71,27.27 33.28,26.87 A 5.56,5.56 0 0,0 31.48,25.85 C 31.04,25.65 30.64,25.48 30.32,25.26 C 29.94,25.01 29.72,24.71 29.72,24.3 C 29.72,23.99 29.84,23.71 30.06,23.52 C 30.28,23.32 30.61,23.2 31.08,23.2 C 31.98,23.2 32.43,23.76 32.62,24.16 L 32.69,24.3 L 33.89,23.84 L 33.83,23.71 A 2.82,2.82 0 0,0 31.1,22 Z M 42.56,22 H 36.56 V 31 H 42.56 V 29.57 H 38 V 27.37 H 42.56 V 26 H 38 V 23.46 H 42.56 M 51,22 H 45 V 31 H 51 V 29.57 H 46.43 V 27.35 H 51 V 26 H 46.43 V 23.46 H 51 M 13.6,22 V 31 H 19 V 29.56 H 15 V 22 M 18.92,22 L 22,27.4 V 31 H 23.47 V 27.4 L 26.58,22 H 25.03 C 24.95,22 24.19,23.35 22.75,26.05 L 20.5,22 H 18.92 Z" fill="rgb(53, 53, 52)"/>
<path d="M 6.16,24.205 H 11 V 25.2 H 6.17 V 24.22 Z M 6.17,28 H 11 V 29 H 6.17 V 28 Z" fill="rgb(96, 134, 153)"/>
<path d="M 10.99,21.985 H 5 V 31 H 11 V 29.57 H 6.43 V 27.34 H 11 V 26 H 6.43 V 23.46 H 11" fill="rgb(53, 53, 52)"/>
</svg>
