<?xml version="1.0" encoding="UTF-8"?>
<!-- generated by Finnhub -->
<svg viewBox="0 0 55.5 55.5" xmlns="http://www.w3.org/2000/svg">
<path d="M 0,0 H 55.5 V 55.5 H 0 Z" fill="rgb(239, 242, 248)"/>
<path d="M 15.99,35.655 V 31.41 L 19,29.85 V 25.72 S 16.94,24.59 16,24.02 V 21.02 L 20,23.47 V 33.19 C 20,33.31 25.81,36.51 28.6,38.09 V 43 L 16,35.67 Z" fill="rgb(27, 68, 146)"/>
<path d="M 28.59,42.985 V 38.1 L 32.6,40.55 L 28.6,43 Z M 35.2,39.1 L 31.24,36.67 L 37,33.19 V 23.49 L 41,21 V 35.7 L 35.2,39.1 Z" fill="rgb(18, 90, 166)"/>
<path d="M 19.99,23.465 L 16,21.05 L 18.87,19.4 L 21.64,21.05 L 25,19.07 V 15.73 L 28.57,13.7 L 41,21 L 37,23.52 L 28.57,18.56 L 20,23.48 Z" fill="rgb(33, 138, 206)"/>
<path d="M 14.99,27.485 L 13,26.4 V 28.6 L 15,29.77 V 27.5 Z" fill="rgb(27, 68, 146)"/>
<path d="M 14.99,27.485 L 17,26.4 V 28.6 L 15,29.77 V 27.5 Z" fill="rgb(18, 90, 166)"/>
<path d="M 14.99,27.485 L 13.02,26.4 L 14.99,25.23 L 16.99,26.41 L 14.99,27.5 Z" fill="rgb(33, 138, 206)"/>
<path d="M 12.99,19.735 L 11,18.67 V 20.83 L 13,22 V 19.75 Z" fill="rgb(27, 68, 146)"/>
<path d="M 12.99,19.735 L 15,18.67 V 20.83 L 13,22 V 19.75 Z" fill="rgb(18, 90, 166)"/>
<path d="M 12.99,19.735 L 11.02,18.67 L 12.99,17.5 L 14.99,18.67 L 12.99,19.75 Z" fill="rgb(33, 138, 206)"/>
<path d="M 15.49,14.834999999999999 L 14,13.95 V 15.74 L 15.5,16.7 V 14.85 Z" fill="rgb(27, 68, 146)"/>
<path d="M 15.49,14.834999999999999 L 17,13.95 V 15.74 L 15.5,16.7 V 14.85 Z" fill="rgb(18, 90, 166)"/>
<path d="M 15.49,14.834999999999999 L 14.02,13.96 L 15.5,13 L 16.99,13.96 L 15.49,14.85 Z" fill="rgb(33, 138, 206)"/>
<path d="M 21.49,17.134999999999998 L 19,15.78 V 18.52 L 21.5,20 V 17.15 Z" fill="rgb(27, 68, 146)"/>
<path d="M 21.49,17.134999999999998 L 24,15.78 V 18.52 L 21.5,20 V 17.15 Z" fill="rgb(18, 90, 166)"/>
<path d="M 21.49,17.134999999999998 L 19,15.78 L 21.49,14.3 L 24,15.78 L 21.5,17.15 Z" fill="rgb(33, 138, 206)"/>
<path d="M 28.49,28.485 L 23,25.37 V 31.63 L 28.5,35 V 28.5 Z" fill="rgb(27, 68, 146)"/>
<path d="M 28.49,28.485 L 34,25.37 V 31.63 L 28.5,35 V 28.5 Z" fill="rgb(18, 90, 166)"/>
<path d="M 28.49,28.525 L 23,25.37 L 28.48,22 L 34,25.37 L 28.5,28.54 Z" fill="rgb(33, 138, 206)"/>
</svg>
