<?xml version="1.0" encoding="UTF-8"?>
<!-- generated by Finnhub -->
<svg viewBox="0 0 55.5 55.5" xmlns="http://www.w3.org/2000/svg">
<path d="M 0,0 H 55.5 V 55.5 H 0 Z" fill="rgb(239, 242, 248)"/>
<path d="M 30.91,20.625 C 31.49,20.47 31.79,20.5 31.79,20.75 C 31.58,20.55 31.29,20.54 30.92,20.65 Z M 25.71,17.34 C 25.39,16.17 25.41,14.81 26.79,14.14 C 27.06,14 27.51,13.77 27.66,14.17 C 27.76,14.45 27.21,14.75 27.08,14.9 A 0.65,0.65 0 0,0 26.98,15.05 A 3.1,3.1 0 0,0 25.71,17.35 Z M 34.41,18.18 H 34.38 A 1.98,1.98 0 0,1 33.48,17.9 C 33.02,17.6 32.58,16.94 32.43,16.77 C 31.53,15.62 29.97,16.45 30.05,16.45 C 30.31,16.43 31.81,16.69 32.19,17.11 C 32.23,17.16 32.26,17.21 32.28,17.28 V 17.3 C 32.34,17.43 33.32,18.56 33.76,19.15 C 33.96,19.41 34.12,19.54 34.04,19.55 C 33.84,19.57 33.64,19.55 33.44,19.52 C 32.6,19.35 31.28,18.82 29.8,19.15 C 27.85,19.62 27.1,20.52 26.85,21.2 C 27.02,19.75 28.15,18.9 30.18,18.66 C 30.71,18.54 31.49,18.47 31.62,18.24 C 32.11,17.37 30.22,16.9 29.02,16.69 C 28.48,16.58 27.51,16.81 27.51,16.81 C 28.29,16.32 31.05,15.21 32.01,15.51 C 32.04,15.54 32.43,15.24 32.49,15.26 C 32.66,15.39 32.59,16.22 32.64,16.47 C 33.06,17.08 33.59,17.6 34.21,18 H 34.23 L 34.42,18.18 Z M 29.41,20.01 C 29.86,19.5 30.35,19.31 30.86,19.41 C 30.22,19.45 29.82,19.64 29.63,19.96 C 29.08,20.77 28.53,21.16 28,21.11 C 28.48,21.05 28.95,20.67 29.42,20.01 Z M 32.02,23.09 C 32.15,23.07 32.24,23.07 32.28,23.14 C 32.3,22.86 32.43,22.79 32.55,22.77 C 32.6,22.77 32.65,22.75 32.7,22.73 C 33.23,22.6 33.13,22.86 32.91,22.35 A 7.3,7.3 0 0,1 32.64,21.45 L 32.51,20.88 C 32.51,20.82 32.45,20.73 32.34,20.62 L 32.3,20.6 C 32.13,20.39 31.58,20.24 30.62,20.18 C 30.42,20.22 30.29,20.43 30.12,20.56 C 30.33,20.66 30.58,20.69 30.82,20.64 C 30.73,20.69 30.6,20.73 30.45,20.79 C 30.58,20.79 30.71,20.82 30.82,20.88 A 0.91,0.91 0 0,0 31.71,21.22 C 31.32,21.16 31.09,21.02 30.98,20.84 C 31.24,20.97 31.52,21.05 31.81,21.09 A 0.17,0.17 0 0,1 31.83,20.92 H 31.85 C 32,20.99 32.35,21.02 32.28,21.32 C 32.18,21.84 32.21,21.99 32.08,22.2 C 32,22.35 31.79,22.3 31.6,22.4 V 22.45 C 31.62,22.84 32.09,22.77 32.02,23.09 Z M 26.22,22.75 C 28.87,22.43 26.6,21.5 27.8,20.54 C 26.38,21.39 28.53,22.16 26.21,22.75 Z M 27.51,22.5 C 27.51,23.35 27.06,23.41 26.6,23.54 C 26.24,23.64 25.83,23.84 25.68,24.12 C 25.68,23.8 26.19,23.48 26.6,23.31 C 26.98,23.16 27.27,23.18 27.5,22.5 Z M 18.03,39.68 A 1.42,1.42 0 0,0 19.18,40.7 C 18.48,39.16 18.33,36.55 18.68,32.82 C 17.88,35.55 17.68,37.82 18.03,39.68 Z M 31.03,40.55 L 30.98,38.89 A 5,5 0 0,1 30.31,38.55 L 30.2,40.29 L 31.03,40.55 Z M 31.3,38.8 C 31.54,39.48 31.96,40.42 32.1,40.76 A 3.93,3.93 0 0,1 31.39,40.63 L 31.43,40.61 L 31.18,38.91 A 0.55,0.55 0 0,0 31.3,38.81 Z M 29.12,39.74 C 29.25,39.31 29.44,38.74 29.65,38.21 C 29.84,38.28 30.02,38.36 30.2,38.46 L 29.8,40.1 C 29.56,40 29.34,39.87 29.12,39.74 Z M 28.67,35.35 C 28.4,36.23 28.97,37.01 29.48,37.08 C 29.06,36.88 28.65,36.06 28.95,35.2 C 28.35,34.9 27.11,33.65 28.4,33.67 C 28.53,33.67 28.65,33.66 28.78,33.63 A 7.5,7.5 0 0,1 26.77,31.25 C 26.96,32.11 27.42,32.88 28.08,33.45 C 26.78,33.35 28.12,35.05 28.68,35.35 Z M 31,38.4 C 31.16,38.65 31.3,38.63 31.36,38.33 A 0.47,0.47 0 0,1 31.21,38.19 A 1.4,1.4 0 0,1 31.01,37.16 C 31.08,36.78 31.21,36.61 31.36,36.61 C 31.19,36.29 30.86,36.46 30.76,37.12 A 1.64,1.64 0 0,0 31,38.4 Z M 26.35,29.3 C 27.79,28.8 27.14,30.54 28.55,31.52 H 28.58 A 4.3,4.3 0 0,0 30.78,32.06 C 31.31,31.97 31.76,31.82 32.08,31.33 C 32.18,32.35 29.98,33.65 28.43,31.91 C 28.22,31.67 28.03,31.41 27.86,31.14 C 27.33,30.46 27.48,28.97 26.36,29.31 Z M 30.35,28.99 C 31.19,29.29 31.65,29.82 31.74,30.56 C 31.46,29.8 30.59,29.26 29.09,28.99 L 31.27,28.73 L 30.36,28.99 Z M 23.35,26.41 C 23.35,26.46 23.32,26.48 23.32,26.52 C 23.32,26.84 23.64,27.12 24.04,27.12 C 24.12,27.12 24.2,27.12 24.27,27.1 A 0.86,0.86 0 0,0 24.47,26.99 A 0.48,0.48 0 0,0 24.66,26.61 A 0.56,0.56 0 0,0 24.46,26.22 A 0.78,0.78 0 0,0 23.49,26.22 A 0.46,0.46 0 0,0 23.34,26.42 Z M 23.17,26.61 C 23.17,26.51 23.21,26.41 23.27,26.33 C 23.32,26.25 23.38,26.18 23.45,26.12 A 0.9,0.9 0 0,1 23.98,25.92 C 24.18,25.92 24.36,25.99 24.51,26.12 A 0.54,0.54 0 0,1 24.51,27.02 A 0.78,0.78 0 0,1 24.13,27.18 C 24.09,27.31 24.06,27.43 24.04,27.56 C 25.54,27.22 25.69,25.48 23.28,25.82 A 3.53,3.53 0 0,0 20.27,27.05 A 5.59,5.59 0 0,1 22.03,26.33 L 22.75,26.16 L 22.18,26.63 C 21.78,26.96 21.45,27.37 21.22,27.84 A 4.5,4.5 0 0,1 23.17,26.58 V 26.61 Z M 23.97,26.24 A 0.23,0.23 0 0,0 23.91,26.39 A 0.27,0.27 0 0,0 24.17,26.65 A 0.4,0.4 0 0,0 24.34,26.58 C 24.39,26.54 24.42,26.48 24.42,26.41 A 0.2,0.2 0 0,0 24.34,26.24 A 0.32,0.32 0 0,0 24.13,26.18 L 23.98,26.24 Z M 24.13,26.14 C 24.22,26.14 24.31,26.17 24.38,26.22 A 0.3,0.3 0 0,1 24.48,26.43 A 0.26,0.26 0 0,1 24.38,26.65 A 0.42,0.42 0 0,1 23.88,26.65 A 0.3,0.3 0 0,1 23.77,26.43 A 0.26,0.26 0 0,1 23.87,26.23 A 0.52,0.52 0 0,1 24.13,26.13 Z M 26.86,24.05 C 26.5,24.82 26.92,26.2 27.5,26.58 C 27.03,26.56 26.31,25.39 26.35,24.41 A 3,3 0 0,1 25.52,24.9 C 25.12,25.07 24.7,25.2 24.27,25.3 C 23.94,25.38 23.59,25.38 23.26,25.3 A 4.83,4.83 0 0,1 22.47,25.05 A 2.79,2.79 0 0,0 21.65,24.84 C 21.26,24.83 20.88,24.9 20.52,25.05 C 20.42,25.12 20.29,25.2 20.27,25.31 A 0.25,0.25 0 0,0 20.29,25.52 C 20.37,25.67 20.54,25.65 20.69,25.58 A 0.36,0.36 0 0,0 20.9,25.2 L 20.84,25.16 L 20.94,25.09 A 0.9,0.9 0 0,1 21.56,24.95 C 21.81,24.95 22.26,25.05 22.32,25.35 A 0.42,0.42 0 0,1 22.15,25.78 C 25.12,25.09 25.97,26.31 25.4,27.27 C 26.01,27.65 29.1,26.22 29.53,28.42 C 29.03,26.39 25.76,27.86 25.19,27.5 C 24.99,27.7 24.76,27.86 24.51,27.97 C 25.14,28 25.77,27.94 26.39,27.8 A 3.98,3.98 0 0,1 28.39,27.84 C 28.69,27.93 29.13,28.1 29.19,28.46 C 29.24,28.73 29.02,28.95 28.79,29.1 C 29.98,29.42 31.19,29.95 31.91,30.97 C 31.93,30.61 31.95,30.25 31.99,29.87 C 32.06,29.13 32.07,28.4 32.01,27.67 A 0.96,0.96 0 0,1 31.52,28.22 A 1.36,1.36 0 0,1 30.44,28.29 C 31.88,28.46 32.05,26.86 31.34,26.03 C 31.91,27.07 31.14,28.18 29.89,27.63 A 4.86,4.86 0 0,1 27.39,23.73 L 26.86,24.05 Z M 29.89,26.2 C 29.28,26.14 28.37,25.88 27.94,24.2 C 27.86,23.84 28.01,23.3 27.96,22.92 L 27.98,22.88 C 28.22,22.84 28.26,22.79 28.37,22.94 C 28.54,23.2 28.81,24.64 29.32,25.48 C 29.36,25.54 29.57,25.82 29.82,26.12 L 29.89,26.2 Z M 30.15,25.26 A 0.99,0.99 0 0,0 29.94,25.16 C 29.79,24.63 29.91,24.41 30.32,24.54 C 30.64,24.69 31.72,25.07 31.78,24.6 C 31.8,24.54 31.78,24.52 31.74,24.54 C 31.57,24.64 31.61,24.69 31.23,24.58 C 30.3,24.24 28.85,23.35 29.6,22.18 A 0.42,0.42 0 0,0 29.74,21.86 A 2.2,2.2 0 0,1 29.94,20.69 L 29.87,20.73 C 29.37,21.48 28.73,21.65 28.09,21.43 C 28.69,21.48 29.47,20.83 29.96,20.22 C 30.26,19.82 30.56,19.54 31.12,19.45 L 31.32,19.39 L 31.46,19.43 H 31.53 L 31.5,19.45 C 31.91,19.55 32.33,19.6 32.76,19.6 C 33.06,19.6 32.96,20.58 32.82,20.82 C 32.84,20.82 33.09,20.65 33.42,20.16 C 33.54,19.96 33.86,19.94 34.09,19.9 C 34.45,19.86 34.58,19.75 34.62,19.6 C 34.64,19.54 34.07,19 33.9,18.6 L 34.3,18.37 C 34.73,18.24 34.73,18.13 34.16,17.87 A 5.33,5.33 0 0,1 32.71,16.47 C 32.73,16.28 32.86,15.17 32.52,15.09 C 32.1,14.99 31.99,15.15 31.82,14.77 C 31.52,14.07 30.68,13.81 30,13.81 C 30.28,13.45 31.34,13.26 32.93,14.45 C 33.24,13.43 34.75,11.9 35.26,11.41 C 34.98,11.31 34.2,12.32 34.05,12.49 C 34.49,11.88 34.81,11.45 35.02,11.22 L 34.35,10.75 C 33.72,11.55 33.18,12.42 32.75,13.35 C 33.06,12.36 33.5,11.43 34.07,10.58 C 33.97,10.51 33.87,10.47 33.77,10.41 C 33.34,11.11 32.97,11.86 32.69,12.64 C 32.89,11.83 33.18,11.04 33.54,10.28 C 32.94,11.03 32.43,11.84 32.01,12.7 C 32.32,11.8 32.74,10.93 33.26,10.13 L 33.22,10.11 C 32.57,10.9 32,11.76 31.55,12.68 C 31.87,11.72 32.33,10.8 32.9,9.96 C 32.31,9.71 31.7,9.52 31.08,9.38 A 12.2,12.2 0 0,0 30.17,12.48 C 30.2,11.4 30.39,10.34 30.74,9.32 C 30.3,10.32 29.98,11.36 29.81,12.42 C 29.84,11.35 30.04,10.28 30.41,9.26 H 30.36 C 29.92,10.25 29.6,11.29 29.43,12.36 C 29.46,11.29 29.65,10.23 30,9.21 H 29.94 C 29.49,10.21 29.18,11.25 29,12.32 C 29.04,11.26 29.23,10.2 29.57,9.19 C 29.27,9.19 28.98,9.19 28.71,9.21 C 28.47,10.35 28.38,11.52 28.45,12.68 A 10.01,10.01 0 0,1 28.35,9.26 C 28.09,9.28 27.85,9.32 27.6,9.38 C 27.57,10.56 27.7,11.73 27.98,12.88 A 10.65,10.65 0 0,1 27.24,9.47 A 3,3 0 0,0 26.78,9.62 C 26.93,10.75 27.24,11.85 27.68,12.9 C 27.1,11.91 26.68,10.84 26.44,9.72 C 26.27,9.78 26.11,9.85 25.94,9.94 C 26.25,11.07 26.71,12.16 27.31,13.17 C 26.57,12.26 26.01,11.22 25.63,10.11 C 25.4,10.22 25.19,10.35 24.97,10.49 A 12.2,12.2 0 0,0 26.95,13.41 A 10.6,10.6 0 0,1 24.68,10.71 C 24.38,10.91 24.11,11.15 23.85,11.41 A 6.1,6.1 0 0,1 26.27,13.21 A 6.4,6.4 0 0,0 23.7,11.56 C 23.53,11.74 23.37,11.93 23.21,12.13 A 6.1,6.1 0 0,1 25.86,13.39 A 6.43,6.43 0 0,0 23.09,12.32 C 22.91,12.58 22.75,12.86 22.62,13.15 A 6.33,6.33 0 0,1 25.38,13.35 A 6.52,6.52 0 0,0 22.52,13.39 C 22.37,13.74 22.26,14.11 22.2,14.49 C 23.15,13.62 24.49,13.3 25.48,13.66 C 23.94,13.49 22.73,14.13 22.13,15.17 V 15.28 C 23.09,14.19 24.59,13.79 25.67,14.18 C 23.96,13.98 22.67,14.79 22.15,16.02 C 22.49,18.77 24.97,20.71 24.05,23.07 C 24.64,22.87 26.05,21.15 25.99,19.75 C 25.99,19.95 26.03,20.14 26.09,20.32 L 26.29,21.41 C 26.25,21.75 25.89,21.96 25.8,22.28 C 25.76,22.45 25.97,22.98 25.84,23.11 C 25.54,23.39 25.48,23.88 25.42,24.2 C 25.38,24.39 25.29,24.56 25.17,24.7 C 24.85,25.07 24.59,25.1 24.15,25.2 C 22.54,25.52 22.22,24.22 20.35,24.96 C 19.63,25.33 20.05,26.11 20.65,25.84 A 0.56,0.56 0 0,0 20.97,25.28 C 21.43,24.94 22.9,25.35 21.47,25.96 C 18.04,27.54 15.33,34.86 15.79,38.56 A 16.22,16.22 0 0,1 18.85,30.03 C 20.29,27.93 20.44,27.83 20.1,30.71 C 19.63,34.78 19.93,37.8 20.7,38.57 C 20.5,36.42 20.4,34.03 20.82,31.75 C 21.29,29.18 21.96,28.14 21.88,31.2 C 21.79,34.4 22.73,36.2 24,38.84 C 22.7,34.61 22.26,31.39 22.81,28.41 C 22.9,27.91 23.01,27.97 23.28,28.11 C 22.75,33.18 24.06,37.21 26.98,39.38 A 7.64,7.64 0 0,0 35.02,40.5 A 7.9,7.9 0 0,1 32.32,40.76 C 31.97,39.84 31.34,38.55 31.34,38.55 L 31.36,38.33 C 31.4,38.31 31.42,38.25 31.44,38.13 C 31.61,37.23 31.51,36.76 31.34,36.65 C 31.37,34.91 31.7,33.19 32.31,31.57 C 32.91,31.37 33.22,30.88 33.24,30.1 C 32.67,29.27 32.24,28.36 31.94,27.4 A 2.83,2.83 0 0,0 29.87,25.16 C 29.97,25.18 30.07,25.21 30.15,25.26 Z M 31.85,23.52 C 31.69,23.45 31.44,23.56 31.29,23.39 A 2.06,2.06 0 0,0 32.08,23.19 C 32.14,23.19 32.16,23.24 32.2,23.24 C 32.24,23.26 32.3,23.24 32.3,23.28 A 0.3,0.3 0 0,1 32.27,23.41 A 0.23,0.23 0 0,0 32.24,23.51 C 32.18,23.58 32.05,23.62 31.84,23.51 Z M 32.14,23.77 A 0.4,0.4 0 0,0 31.99,24.07 A 0.38,0.38 0 0,1 31.74,23.82 A 0.12,0.12 0 0,1 31.88,23.77 C 31.97,23.8 32.06,23.8 32.14,23.77 Z M 24.55,30.22 C 24.45,30.62 24.35,31.14 25,30.54 C 25.42,30.14 25.5,29.54 25.02,28.2 C 24.6,28.22 24.18,28.2 23.77,28.14 C 23.61,29.12 23.72,30.13 24.08,31.05 C 24.1,30.73 24.44,30.2 24.55,30.22 Z M 29.15,19.88 C 29.51,19.48 29.91,19.3 30.34,19.41 C 29.83,19.45 29.49,19.61 29.32,19.86 C 28.85,20.52 28.41,20.84 27.98,20.79 C 28.38,20.71 28.79,20.39 29.15,19.88 Z" fill="rgb(124, 124, 123)" fill-rule="evenodd"/>
<path d="M 31.29,10.924999999999999 C 31.23,11.21 31.12,11.48 30.98,11.73 C 31.09,11.09 31.31,10.47 31.64,9.92 A 7.8,7.8 0 0,0 31.3,10.94 Z M 20.94,25.3 L 20.89,25.56 L 20.79,25.52 A 0.16,0.16 0 0,0 20.78,25.33 A 0.16,0.16 0 0,0 20.6,25.29 A 0.21,0.21 0 0,0 20.47,25.49 A 0.23,0.23 0 0,1 20.49,25.24 A 0.3,0.3 0 0,1 20.72,25.14 A 0.3,0.3 0 0,1 20.94,25.31 Z M 35.33,27.46 C 35.35,27.05 35.43,26.64 35.54,26.24 C 35.52,26.06 35.53,25.87 35.56,25.69 A 0.3,0.3 0 0,1 36.06,25.71 C 35.76,25.86 35.63,26.01 35.65,26.21 C 35.82,26.01 36.09,25.97 36.47,26.03 A 0.23,0.23 0 0,1 36.79,26.07 C 36.92,26.31 37.05,26.44 37.22,26.44 C 37.3,26.64 37.3,26.78 37.24,26.86 A 2.4,2.4 0 0,0 36.24,26.33 A 1.05,1.05 0 0,0 35.5,26.71 C 35.48,26.8 35.5,26.84 35.56,26.86 A 0.68,0.68 0 0,1 36.03,26.54 C 36.39,26.65 36.7,26.88 36.92,27.18 C 36.39,26.9 35.97,26.88 35.65,27.09 C 35.5,27.18 35.61,27.2 35.97,27.16 A 0.6,0.6 0 0,1 36.28,27.39 C 36.64,27.61 36.84,27.82 36.86,27.99 C 37.01,28.31 37.06,28.48 37.06,28.48 C 37.34,29.16 36.96,30.39 35.88,31.88 C 36.09,29.95 36.38,28.14 36.38,28.14 C 36.03,27.94 35.69,27.94 35.58,28.16 C 35.55,28.36 35.53,28.56 35.54,28.76 A 2.24,2.24 0 0,1 35.34,27.46 Z M 36.09,25.22 L 36.01,25.18 L 36.09,25.22 Z M 36.67,25.69 C 36.9,25.67 37.11,25.9 37.32,26.44 C 37.41,26.23 37.43,26 37.39,25.78 A 2,2 0 0,0 36.69,25.26 C 36.49,25.28 36.29,25.26 36.09,25.22 A 0.16,0.16 0 0,1 36.01,25.18 H 35.99 C 35.89,25.11 35.79,25.04 35.71,24.94 L 35.76,25.2 A 0.55,0.55 0 0,0 36.14,25.56 C 36.3,25.65 36.48,25.69 36.67,25.69 Z M 34.8,33.44 L 35.37,29.54 C 34.14,31.5 32.62,32.18 31.87,32.99 A 7.91,7.91 0 0,0 31.32,36.38 C 32.94,35.58 34.25,34.58 34.8,33.44 Z M 36.01,24.8 L 36.22,24.77 C 36.26,24.75 36.58,22.39 37.13,17.71 C 37.22,17.71 37.33,17.79 37.41,17.96 L 37.62,17.13 C 38.02,17.52 38.06,18.05 37.75,18.71 A 0.92,0.92 0 0,0 38.15,17.94 C 38.19,17.62 38.02,17.2 37.66,16.71 C 37.41,16.11 37.49,15.88 37.96,15.98 C 38.14,16.19 38.29,16.42 38.4,16.66 A 2.55,2.55 0 0,1 38.13,18.84 C 38.89,18.24 39.06,17.44 38.68,16.44 C 39.91,17.66 41.39,17.94 40.1,20.26 C 40.89,19.41 41.42,18.07 40.57,17.18 C 40.76,17.56 40.69,17.68 40.4,17.54 C 39.68,16.9 38.74,16.37 38.34,15.84 C 38.66,16.15 39.19,16.37 39.94,16.45 A 4.45,4.45 0 0,1 38.09,15.2 C 37.99,15 37.73,14.94 37.39,15 C 36.12,15.8 35.93,16.94 36.77,18.5 C 36.29,22.69 36.01,24.8 36.01,24.8 Z" fill="rgb(124, 124, 123)"/>
<path d="M 36.79,15.165 L 36.88,15.11 C 36.84,14.83 37.11,14.73 37.71,14.79 C 38.17,14.81 38.41,14.94 38.43,15.13 A 0.92,0.92 0 0,0 38.49,14.64 A 1.52,1.52 0 0,0 36.75,14.62 A 0.48,0.48 0 0,0 36.79,15.18 Z M 35.54,27.9 L 34.97,32.2 L 33.78,40.97 C 34.31,40.91 34.33,40.85 34.18,40.72 C 34.63,35.69 35.65,29.54 35.8,27.9 C 35.86,27.12 35.54,27.9 35.54,27.9 Z M 37.47,18.6 L 37.41,19.2 C 38.57,20.7 38.68,21.92 37.68,23.22 A 3.05,3.05 0 0,0 38.76,20.13 C 38.38,20.63 37.83,19.03 37.47,18.6 Z" fill="rgb(124, 124, 123)"/>
<path d="M 38.480000000000004,20.165 L 38.79,20.38 A 2.8,2.8 0 0,0 38.13,18.94 C 38.62,19.75 38.73,20.16 38.49,20.18 Z M 36.86,19.37 L 36.77,18.81 C 35.14,20.26 34.67,21.77 35.42,23.33 C 34.99,22.16 35.48,20.83 36.86,19.37 Z M 38.66,7 L 37.86,14.37 C 38.11,13.75 38.57,13.51 39.19,13.26 C 39.29,11.16 39.11,9.06 38.66,7 Z" fill="rgb(124, 124, 123)"/>
<path d="M 38.67,7.4350000000000005 V 7 A 15.25,15.25 0 0,0 36.35,13.15 C 37.07,13.79 37.37,14.22 37.24,14.39 L 37.45,14.58 C 37.58,13.96 37.3,13.45 36.62,13.02 C 37.09,10.45 37.77,8.74 38.68,7.45 Z M 28.76,37.9 L 28.59,37.8 C 28.21,38.44 27.99,38.76 27.99,38.76 L 28.76,37.91 Z M 15,46.31 L 15.51,46.84 L 17.33,43.74 L 18.3,45.14 L 17.4,46.59 L 17.92,46.97 L 18.72,45.77 L 19.49,46.97 L 19.89,46.31 L 17.33,42.73 L 15,46.31 Z M 20.66,43.35 L 20.73,46.86 H 21.43 V 43.35 H 22.72 V 42.73 H 19.57 V 43.35 H 20.66 Z M 24.37,42.73 H 23.6 V 47 H 24.25 V 45.79 L 25.55,44.85 V 47 H 26.23 L 26.41,42.73 H 25.66 L 25.56,44.01 L 24.26,45.01 L 24.37,42.73 Z M 26.95,42.57 H 29.8 V 43.29 H 27.76 L 28.84,44.77 V 45.01 L 27.57,46.27 H 29.8 V 46.82 H 27.37 C 27,46.82 26.79,46.52 26.73,46.36 L 28.09,44.85 L 26.95,43.29 V 42.57 Z M 30.8,45.17 L 30.07,43.4 L 30.57,43.07 L 31.34,44.77 L 32.1,43.2 L 32.84,42.67 L 34.6,46.7 L 34.1,47 L 32.6,43.64 C 32.24,44.34 31.5,45.77 31.34,45.77 C 31.18,45.77 30.91,45.37 30.79,45.17 Z M 37.45,42.67 L 35.15,46.45 L 35.62,46.82 L 37.45,43.8 L 38.37,45.11 L 37.45,46.54 L 38.05,47 L 38.87,45.77 L 39.62,46.92 L 40,46.32 L 37.45,42.67 Z" fill="rgb(124, 124, 123)"/>
</svg>
