<?xml version="1.0" encoding="UTF-8"?>
<!-- generated by Finnhub -->
<svg viewBox="0 0 55.5 55.5" xmlns="http://www.w3.org/2000/svg">
<path d="M 0,0 H 55.5 V 55.5 H 0 Z" fill="rgb(239, 242, 248)"/>
<circle cx="33.5" cy="12.5" r="1.5" fill="rgb(83, 101, 138)"/>
<circle cx="37.5" cy="42.5" r="1.5" fill="rgb(83, 101, 138)"/>
<circle cx="14.5" cy="31.5" r="1.5" fill="rgb(83, 101, 138)"/>
<path d="M 33.45,15.885 A 38.2,38.2 0 0,0 33.11,24.82 C 33.54,30.98 36.49,37.92 36.93,38.94 C 36.98,39.04 37,39.14 37,39.24 A 0.8,0.8 0 0,1 36.59,39.92 A 0.8,0.8 0 0,1 36.22,40 A 0.72,0.72 0 0,1 35.6,39.66 C 35.03,38.79 31.3,33.21 26.6,29.53 A 36.5,36.5 0 0,0 23.94,27.64 C 22.4,28.77 18.62,31 17.7,31 C 17.44,31 17.2,30.8 17.08,30.55 A 0.82,0.82 0 0,1 17.01,30.22 C 17.01,29.94 17.19,29.68 17.47,29.56 C 18.53,29.11 20.57,28.18 22.57,26.78 A 74.43,74.43 0 0,0 16.44,23.48 A 0.76,0.76 0 0,1 16.11,22.42 C 16.23,22.21 16.43,22 16.69,22 H 16.79 L 23.31,22.5 C 23.73,22.54 24.01,22.85 24.01,23.27 C 24.01,23.78 23.6,24 23.14,24 L 20.4,23.81 A 69.4,69.4 0 0,1 23.88,25.82 C 24.45,25.36 25.02,24.87 25.56,24.34 C 29.77,20.19 31.77,16.02 32.03,15.44 C 32.15,15.19 32.43,15 32.71,15 C 33.17,15 33.55,15.44 33.47,15.9 Z M 25.2,26.66 C 26,27.2 26.8,27.76 27.53,28.34 A 40.62,40.62 0 0,1 33.67,34.51 A 41.5,41.5 0 0,1 31.62,24.91 A 40.21,40.21 0 0,1 31.6,19.25 A 36.22,36.22 0 0,1 26.6,25.39 C 26.15,25.84 25.68,26.27 25.2,26.66 Z" fill="rgb(244, 139, 46)"/>
</svg>
