<?xml version="1.0" encoding="UTF-8"?>
<!-- generated by Finnhub -->
<svg viewBox="0 0 55.5 55.5" xmlns="http://www.w3.org/2000/svg">
<path d="M 0,0 H 55.5 V 55.5 H 0 Z" fill="rgb(5, 116, 168)"/>
<path d="M 27.973,11.985 L 24.583,19.523 L 27.943,26.208 L 31.348,19.591 L 27.983,12 Z M 29.257,26.695 L 31.671,19.731 L 39.193,16.659 L 36.127,24.296 L 29.257,26.695 Z M 36.242,24.597 L 44,27.984 L 36.404,31.224 L 29.804,27.978 L 36.242,24.597 Z M 36.197,31.525 L 29.246,29.232 L 31.717,36.345 L 39.194,39.341 L 36.196,31.525 Z M 27.977,29.787 L 31.369,36.437 L 27.987,44 L 24.606,36.46 L 27.977,29.787 Z M 26.73,29.233 L 24.305,36.322 L 16.756,39.326 L 19.78,31.478 L 26.73,29.233 Z M 12,27.984 L 19.664,24.666 L 26.245,27.934 L 19.548,31.201 L 12,27.984 Z M 19.848,24.342 L 16.708,16.649 L 24.258,19.662 L 26.73,26.662 L 19.848,24.342 Z" fill="rgb(245, 247, 251)"/>
</svg>
