<?xml version="1.0" encoding="UTF-8"?>
<!-- generated by Finnhub -->
<svg viewBox="0 0 55.5 55.5" xmlns="http://www.w3.org/2000/svg">
<path d="M 0,0 H 55.5 V 55.5 H 0 Z" fill="rgb(239, 242, 248)"/>
<path d="M 10.99,21.985 V 33 H 15 V 31 H 13 V 22 H 11 Z M 6.02,22 L 4,33 H 6.23 L 6.36,32 H 7.97 L 8.11,33 H 10.3 L 8.32,22 H 6.02 Z M 7.69,30 H 6.61 L 7.13,26 L 7.69,30 Z M 16,33 V 22 H 18 V 31 H 20 V 33 H 16 Z M 19.5,24 V 22 H 24.5 V 24 H 23 V 33 H 21 V 24 H 19.5 Z M 31,22 H 33 V 33 H 31 V 22 Z M 34,33 V 22 H 36 L 38,26.37 V 22 H 40 V 33 H 38 L 36,28.62 V 33 H 34 Z M 46,22 V 24 H 43.24 C 43.13,24 43,24.13 43,24.24 V 30.8 C 43,30.9 43.13,31 43.24,31 H 44.5 V 27 H 46.5 V 33 H 42.3 C 41.59,33 41,32.4 41,31.68 V 23.22 C 41,22.55 41.54,22 42.21,22 H 46 Z M 47,31 V 33 H 50.66 C 51.4,33 52,32.4 52,31.67 V 27.47 C 52,26.97 51.6,26.5 51.09,26.5 H 49.24 C 49.12,26.5 49,26.47 49,26.35 V 24.27 C 49,24.15 49.12,24 49.24,24 H 52 V 22 H 48.28 C 47.58,22 47,22.56 47,23.26 V 27.3 C 47,27.91 47.5,28.5 48.11,28.5 H 49.77 C 49.89,28.5 50,28.6 50,28.7 V 30.72 C 50,30.82 49.89,31 49.77,31 H 47 Z" fill="rgb(77, 35, 68)"/>
<path d="M 24.99,32.985 V 26 H 27 V 30 H 28 V 24 H 30 V 33 H 28 V 32 H 27 V 33 H 25 Z" fill="rgb(232, 63, 127)"/>
<path d="M 33.03,20.895 C 33.04,21.41 32.62,21.82 32.1,21.82 A 0.95,0.95 0 0,1 31.33,21.44 L 29.61,22.09 V 22.21 C 29.61,22.71 29.2,23.11 28.68,23.11 A 0.96,0.96 0 0,1 28.06,22.91 L 26.83,23.81 A 0.93,0.93 0 0,1 25.95,25.05 A 0.93,0.93 0 0,1 25,24.15 C 25,23.65 25.43,23.24 25.95,23.24 C 26.18,23.24 26.39,23.32 26.55,23.45 L 27.79,22.53 A 0.88,0.88 0 0,1 27.73,22.21 C 27.73,21.71 28.16,21.3 28.68,21.3 C 28.98,21.3 29.26,21.44 29.43,21.67 L 31.16,21.01 V 20.91 C 31.16,20.41 31.58,20 32.1,20 S 33.04,20.4 33.04,20.91 Z M 32.56,20.91 C 32.56,21.16 32.36,21.36 32.1,21.36 A 0.45,0.45 0 0,1 31.64,20.91 C 31.64,20.66 31.84,20.46 32.1,20.46 C 32.35,20.46 32.56,20.66 32.56,20.91 Z M 28.68,22.65 C 28.93,22.65 29.14,22.45 29.14,22.21 C 29.14,21.96 28.94,21.76 28.68,21.76 S 28.21,21.96 28.21,22.21 S 28.42,22.65 28.68,22.65 Z M 25.95,24.6 C 26.2,24.6 26.41,24.4 26.41,24.15 S 26.21,23.7 25.95,23.7 S 25.49,23.9 25.49,24.15 S 25.69,24.6 25.95,24.6 Z" fill="rgb(232, 63, 127)" fill-rule="evenodd"/>
</svg>
