<?xml version="1.0" encoding="UTF-8"?>
<!-- generated by Finnhub -->
<svg viewBox="0 0 55.5 55.5" xmlns="http://www.w3.org/2000/svg">
<path d="M 0,0 H 55.5 V 55.5 H 0 Z" fill="rgb(239, 242, 248)"/>
<path d="M 27.99,9.985 L 41.59,23.45 A 4.74,4.74 0 0,1 41.59,30.21 L 38.77,33 L 28,22.34 L 17.23,33 L 14.41,30.2 A 4.74,4.74 0 0,1 14.41,23.45 L 28,10 Z M 28,33 A 3,3 0 1,0 28,27 A 3,3 0 0,0 28,33 Z M 29.5,40.5 A 1.5,1.5 0 1,1 26.5,40.5 A 1.5,1.5 0 0,1 29.5,40.5 Z M 28,47 A 1,1 0 1,0 28,45 A 1,1 0 0,0 28,47 Z M 25,44 A 1,1 0 1,1 23,44 A 1,1 0 0,1 25,44 Z M 32,45 A 1,1 0 1,0 32,43 A 1,1 0 0,0 32,45 Z M 21,40.5 A 1.5,1.5 0 1,1 18,40.5 A 1.5,1.5 0 0,1 21,40.5 Z M 36.5,42 A 1.5,1.5 0 1,0 36.5,39 A 1.5,1.5 0 0,0 36.5,42 Z M 25,36 A 2,2 0 1,1 21,36 A 2,2 0 0,1 25,36 Z M 33,38 A 2,2 0 1,0 33,34 A 2,2 0 0,0 33,38 Z" fill="url(#a)"/>
<defs>
<linearGradient id="a" x1="28" x2="28" y1="11" y2="47" gradientUnits="userSpaceOnUse">
<stop stop-color="rgb(111, 226, 220)" offset="0"/>
<stop stop-color="rgb(54, 147, 135)" offset=".41"/>
<stop stop-color="rgb(46, 47, 64)" offset=".81"/>
</linearGradient>
</defs>
</svg>
