<?xml version="1.0" encoding="UTF-8"?>
<!-- generated by Finnhub -->
<svg viewBox="0 0 55.5 55.5" xmlns="http://www.w3.org/2000/svg">
<path d="M 0,0 H 55.5 V 55.5 H 0 Z" fill="rgb(239, 242, 248)"/>
<path d="M 33.410000000000004,21.805 C 33.34,22.51 33.08,23.07 32.79,23.86 L 31.49,21.77 C 30.99,20.94 30.49,20.12 29.81,19.42 C 28.13,17.7 26.07,17.28 23.8,17.77 C 21.53,18.27 20.28,19.86 19.78,21.97 C 18.78,26.25 18.58,30.55 19.69,34.85 L 19.78,35.18 C 20.38,37.25 21.39,38.92 23.8,39.31 C 26.36,39.71 28.4,38.88 29.88,36.81 A 18.78,18.78 0 0,0 32.52,30.71 C 33.61,26.79 34.65,22.48 35.72,18.55 C 36.07,17.22 36.31,16.97 37.76,17 C 38.86,17.02 40.35,17 41.02,17.46 C 41.32,18.21 41.15,18.9 40.92,19.56 C 39.58,23.46 38.67,27.83 37.55,31.79 A 7.25,7.25 0 0,0 38.7,38.23 C 39.64,39.57 40.75,39.85 42.21,39.13 C 43.01,38.73 43.68,38.15 44.19,37.43 C 44.66,37.36 44.89,37.55 45,38.03 C 43.6,39.71 41.87,40.92 39.52,40.97 C 37.18,41.02 35.52,39.71 34.12,38.17 C 33.48,38.15 33.14,38.47 32.77,38.71 C 28.02,41.66 23.11,41.62 18.14,39.38 A 7,7 0 0,1 14.46,35.48 C 13.11,31.98 12.54,28.35 13.43,24.68 C 14.87,18.75 19.56,15.75 25.62,16.02 C 29.62,16.2 32.02,18.38 33.42,21.82 Z" fill="rgb(76, 157, 45)"/>
</svg>
