<?xml version="1.0" encoding="UTF-8"?>
<!-- generated by Finnhub -->
<svg viewBox="0 0 55.5 55.5" xmlns="http://www.w3.org/2000/svg">
<path d="M 0,0 H 55.5 V 55.5 H 0 Z" fill="rgb(239, 242, 248)"/>
<path d="M 23.13,22.985 A 1.32,1.32 0 0,0 22.02,24.96 C 22.24,25.36 22.67,25.61 23.14,25.61 H 25.29 C 25.41,25.66 25.5,25.74 25.5,25.88 V 32 C 25.5,32.19 25.56,32.37 25.65,32.52 A 0.99,0.99 0 0,0 26.52,33.01 H 30.8 C 30.98,33.01 31.15,32.96 31.3,32.88 C 31.45,32.79 31.58,32.67 31.67,32.52 C 31.76,32.37 31.81,32.19 31.82,32.01 V 25.89 C 31.82,25.76 31.91,25.68 32.02,25.63 H 35.37 A 1.32,1.32 0 0,0 35.37,23.01 H 23.14 Z M 26,31.99 V 25.89 C 26,25.49 25.73,25.12 25.37,25.11 H 23.14 A 0.78,0.78 0 0,1 22.44,24.71 A 0.82,0.82 0 0,1 22.44,23.91 C 22.59,23.65 22.85,23.5 23.14,23.5 H 35.37 C 35.66,23.5 35.92,23.65 36.06,23.9 C 36.2,24.15 36.2,24.46 36.06,24.71 S 35.66,25.11 35.37,25.11 L 31.94,25.12 C 31.64,25.12 31.32,25.48 31.32,25.88 V 32 A 0.6,0.6 0 0,1 31.24,32.27 A 0.5,0.5 0 0,1 31.06,32.44 A 0.46,0.46 0 0,1 30.81,32.51 H 26.51 A 0.5,0.5 0 0,1 26.07,32.27 A 0.6,0.6 0 0,1 26,32 Z M 27.84,32.12 C 27.96,32.19 28.1,32.23 28.24,32.22 H 29.92 C 30.06,32.23 30.2,32.19 30.32,32.12 A 0.79,0.79 0 0,0 30.62,31.83 C 30.69,31.71 30.72,31.41 30.72,31.41 L 30.75,25.61 S 30.77,25.37 30.82,25.26 C 30.87,25.15 30.95,25.06 31.04,24.98 C 31.14,24.91 31.24,24.85 31.35,24.83 H 35.3 C 35.5,24.83 35.67,24.72 35.76,24.55 A 0.53,0.53 0 0,0 35.32,23.75 H 23.19 C 23,23.75 22.83,23.85 22.74,24.02 A 0.53,0.53 0 0,0 22.74,24.55 C 22.84,24.72 23.02,24.81 23.21,24.81 H 26.76 A 0.8,0.8 0 0,1 27.08,24.95 C 27.17,25.02 27.28,25.19 27.34,25.3 C 27.39,25.4 27.42,25.64 27.42,25.64 L 27.43,31.41 S 27.47,31.71 27.54,31.83 C 27.62,31.96 27.72,32.06 27.84,32.13 Z"/>
<path d="M 42.68,22.985 C 42.3,23 41.99,23.03 41.69,23.16 C 41.39,23.29 41.13,23.51 40.87,23.82 L 35.8,29.92 C 35.67,30.06 35.56,30.15 35.44,30.22 C 35.32,30.28 35.17,30.32 34.94,30.32 H 33.57 C 32.73,30.32 32.25,31 32.22,31.64 C 32.2,31.97 32.3,32.31 32.52,32.57 C 32.75,32.84 33.1,33 33.55,33 H 39.77 C 40.57,32.98 41.07,32.62 41.58,32.13 L 41.6,32.12 L 46.88,25.78 A 0.45,0.45 0 0,1 47.1,25.6 H 49.73 C 50.15,25.6 50.48,25.44 50.7,25.19 C 50.91,24.93 51,24.61 51,24.29 C 50.98,23.67 50.55,22.99 49.73,22.99 H 42.7 Z M 36.17,30.25 L 41.24,24.15 C 41.48,23.86 41.68,23.71 41.88,23.62 C 42.08,23.53 42.33,23.5 42.68,23.5 H 49.73 C 50.22,23.5 50.49,23.88 50.5,24.3 C 50.5,24.52 50.45,24.72 50.32,24.86 C 50.21,25 50.02,25.1 49.73,25.1 H 47.01 L 46.98,25.12 A 0.94,0.94 0 0,0 46.5,25.48 L 41.24,31.78 C 40.75,32.23 40.38,32.48 39.76,32.5 H 33.55 C 33.22,32.5 33.02,32.39 32.89,32.24 A 0.8,0.8 0 0,1 32.71,31.67 C 32.73,31.23 33.05,30.82 33.57,30.82 H 34.93 C 35.23,30.82 35.46,30.76 35.67,30.66 C 35.87,30.56 36.02,30.41 36.17,30.26 Z M 37.04,31.02 C 37.13,30.95 37.28,30.74 37.28,30.74 L 42.73,24.29 C 42.79,24.23 42.83,24.19 42.86,24.14 C 42.96,24.01 42.98,23.99 43.23,23.84 C 43.42,23.71 43.95,23.75 43.95,23.75 H 49.67 C 49.86,23.75 50.03,23.85 50.12,24.02 C 50.22,24.19 50.22,24.39 50.12,24.55 A 0.52,0.52 0 0,1 49.66,24.83 H 46.81 A 0.74,0.74 0 0,0 46.5,24.98 C 46.4,25.06 46.25,25.26 46.25,25.26 L 40.77,31.74 S 40.63,31.88 40.31,32.06 C 40.08,32.21 39.59,32.25 39.59,32.25 H 33.65 A 0.52,0.52 0 0,1 33.21,31.98 A 0.54,0.54 0 0,1 33.21,31.45 C 33.31,31.29 33.48,31.17 33.67,31.17 L 36.47,31.15 S 36.85,31.15 37.04,31.02 Z M 21.12,23.34 C 21.35,23.58 21.49,23.93 21.51,24.27 V 31.93 C 21.51,32.26 21.43,32.54 21.22,32.73 C 21.02,32.93 20.74,32.99 20.46,33 H 18.26 C 17.96,33 17.76,32.89 17.62,32.68 C 17.52,32.49 17.49,32.27 17.5,32.08 V 31.63 C 17.47,31.33 17.34,31.29 17.06,31.28 H 13.5 C 13.4,31.28 13.34,31.28 13.3,31.31 A 0.54,0.54 0 0,0 13.13,31.43 L 12.28,32.38 V 32.39 C 12.17,32.51 12.04,32.66 11.88,32.78 A 0.99,0.99 0 0,1 11.26,33 H 5.68 C 5.17,33 4.82,32.27 5.1,31.75 L 5.11,31.73 L 11.64,23.63 H 11.65 C 12.16,23.08 12.76,23.01 13.38,23 H 20.16 C 20.56,23 20.88,23.1 21.12,23.34 Z M 17.07,30.77 C 17.29,30.77 17.57,30.8 17.74,30.97 C 17.93,31.15 17.98,31.39 18,31.59 V 32.07 C 18,32.24 18.01,32.36 18.05,32.42 C 18.08,32.46 18.12,32.5 18.25,32.5 H 20.45 C 20.69,32.5 20.81,32.44 20.88,32.38 C 20.94,32.31 21,32.19 21,31.93 V 24.28 A 0.92,0.92 0 0,0 20.76,23.69 C 20.62,23.55 20.43,23.5 20.18,23.5 H 13.38 C 12.8,23.51 12.38,23.58 12.02,23.96 L 5.53,32 C 5.45,32.18 5.53,32.4 5.76,32.5 H 11.26 C 11.37,32.5 11.47,32.46 11.58,32.38 C 11.69,32.3 11.79,32.18 11.91,32.05 L 12.76,31.08 A 1,1 0 0,1 13.49,30.78 H 17.07 Z M 17.22,24.92 C 17.15,24.95 17.02,25.02 16.92,25.15 L 13.82,29.04 C 13.69,29.23 13.76,29.48 13.82,29.58 C 13.89,29.68 13.99,29.8 14.26,29.8 H 19.46 V 25.59 C 19.44,25.21 19.37,25.03 19.26,24.94 C 19.19,24.89 19.11,24.84 18.93,24.83 H 17.76 C 17.41,24.85 17.36,24.85 17.22,24.92 Z M 19.98,23.74 C 20.3,23.75 20.41,23.78 20.56,23.91 C 20.67,24.02 20.68,24.21 20.68,24.31 V 31.72 C 20.68,32.05 20.41,32.29 20.11,32.29 C 19.76,32.27 19.51,32.07 19.46,31.77 V 30.44 H 13.1 A 0.69,0.69 0 0,0 12.67,30.66 L 11.82,31.63 S 11.34,32.29 11.12,32.29 H 8.1 S 7.77,32.35 7.62,32.11 C 7.52,31.94 7.78,31.63 7.78,31.63 L 13.8,24 S 13.94,23.88 14.1,23.8 A 0.92,0.92 0 0,1 14.56,23.74 H 19.97 Z M 17.85,25.94 C 17.85,25.88 17.85,25.81 17.82,25.74 A 0.34,0.34 0 0,0 17.67,25.54 A 0.33,0.33 0 0,0 17.43,25.52 A 0.49,0.49 0 0,0 17.28,25.58 C 17.2,25.63 17.13,25.7 17.08,25.75 L 16.98,25.85 L 16.96,25.88 L 16.95,25.89 L 14.29,29.25 H 17.26 A 2.32,2.32 0 0,0 17.48,29.25 L 17.63,29.22 A 0.32,0.32 0 0,0 17.81,29.04 A 0.6,0.6 0 0,0 17.85,28.84 V 25.94 Z M 17.25,28.76 H 15.32 L 17.32,26.22 L 17.35,26.2 V 28.76 H 17.25 Z"/>
<path d="M 19.09,37.985 H 15.5 L 19.21,34 H 22.81 L 19.11,38 Z M 24.66,38 H 21.05 L 24.76,34 H 28.36 L 24.66,38 Z M 26.6,38 H 30.2 L 33.9,34 H 30.32 L 26.6,38 Z M 32.47,22 H 28.85 L 32.57,18 H 36.16 L 32.46,22 Z M 38.02,22 H 34.4 L 38.12,18 H 41.72 L 38.02,22 Z M 39.96,22 H 43.56 L 47.26,18 H 43.67 L 39.96,22 Z" fill="rgb(1, 152, 213)"/>
</svg>
