<?xml version="1.0" encoding="UTF-8"?>
<!-- generated by Finnhub -->
<svg viewBox="0 0 55.5 55.5" xmlns="http://www.w3.org/2000/svg">
<rect width="56" height="56" fill="rgb(239, 242, 248)"/>
<path d="M 12.99,12.985 H 22 V 14 C 22,18.9706 17.9706,23 13,23 V 13 Z" fill="rgb(177, 29, 33)"/>
<path d="M 12.99,42.985 H 22 V 42 C 22,37.0294 17.9706,33 13,33 V 43 Z" fill="rgb(177, 29, 33)"/>
<path d="M 22.99,12.985 H 43 V 23 H 33 C 27.4772,23 23,18.5228 23,13 Z" fill="rgb(177, 29, 33)"/>
<path d="M 22.99,42.985 H 43 V 33 H 33 C 27.4772,33 23,37.4772 23,43 Z" fill="rgb(177, 29, 33)"/>
<path d="M 24.511,23.384999999999998 L 22.4996,18 L 20.6835,23.4 C 20.2551,24.6054 19.3425,25.5558 18.1851,26.0018 L 12.9996,28 L 18.1851,29.9982 C 19.3425,30.4442 20.2551,31.3946 20.6835,32.6 L 22.6022,38 L 24.521,32.6 C 24.9494,31.3946 25.8619,30.4442 27.0194,29.9982 C 29.3469,29.1013 31.8088,28.5 34.2905,28.5 H 42.9996 V 27.5 H 34.2904 C 31.8087,27.5 29.3468,26.8987 27.0194,26.0018 C 25.8619,25.5558 24.9494,24.6054 24.521,23.4 Z" fill="rgb(177, 29, 33)"/>
</svg>
