<?xml version="1.0" encoding="UTF-8"?>
<!-- generated by Finnhub -->
<svg fill="none" viewBox="0 0 55.5 55.5" xmlns="http://www.w3.org/2000/svg">
<path d="M 0,0 H 55.5 V 55.5 H 0 Z" fill="rgb(239, 242, 248)"/>
<path d="M 23.319999999999997,11.764999999999999 L 23.05,11.85 L 22.93,11.89 L 22.79,11.93 L 22.71,11.59 L 22.85,11.55 L 22.98,11.51 L 23.26,11.44 L 23.45,11.4 L 23.54,11.38 L 23.68,11.35 L 23.76,11.33 L 23.81,11.32 L 24.1,11.26 A 10.31,10.31 0 0,1 24.83,11.15 L 24.94,11.13 C 25.7,11.03 26.46,10.99 27.22,11 V 11.35 C 26.47,11.35 25.72,11.38 24.98,11.48 L 24.86,11.5 L 24.43,11.56 L 24.31,11.58 L 24.15,11.61 L 23.88,11.66 L 23.84,11.67 L 23.74,11.69 L 23.6,11.72 L 23.33,11.78 Z" fill="url(#a)"/>
<path d="M 31.139999999999997,11.934999999999999 L 31.53,12.08 L 31.79,12.18 L 31.92,12.23 L 32.55,12.48 L 32.68,12.54 L 32.78,12.58 L 32.86,12.63 L 33.05,12.72 L 33.23,12.8 L 33.28,12.83 L 33.42,12.9 L 33.78,13.09 L 33.86,13.13 L 33.96,13.19 L 34.23,13.34 L 34.5,13.5 L 34.85,13.72 L 35.03,13.84 L 35.2,13.95 L 35.54,14.19 L 35.87,14.44 L 36.04,14.57 L 36.14,14.65 L 36.2,14.7 L 36.6,14.14 L 36.55,14.1 A 4.4,4.4 0 0,0 36.44,14 L 36.26,13.88 L 36.21,13.84 L 35.91,13.62 L 35.56,13.37 L 35.38,13.24 L 35.2,13.13 L 34.84,12.9 L 34.61,12.76 L 34.46,12.68 L 34.28,12.57 A 3,3 0 0,0 34.08,12.47 L 33.71,12.27 L 33.59,12.21 L 33.52,12.17 L 33.32,12.07 L 33.12,11.98 L 33.03,11.94 L 32.93,11.89 L 32.83,11.85 C 32.6,11.75 32.37,11.65 32.14,11.57 L 31.96,11.5 L 31.74,11.42 L 31.34,11.28 L 30.93,11.15 L 30.64,11.07 L 30.52,11.04 L 30.35,11.72 A 24.3,24.3 0 0,0 30.75,11.82 L 31.15,11.95 Z" fill="url(#c)"/>
<path d="M 39.47,18.525 L 39.42,18.45 L 39.37,18.36 L 39.24,18.19 L 40.32,17.36 L 40.45,17.55 L 40.51,17.65 L 40.58,17.74 L 40.83,18.13 L 41,18.41 L 41.07,18.52 L 41.18,18.72 L 41.3,18.92 L 41.32,18.97 L 41.52,19.33 L 41.72,19.74 L 41.76,19.81 L 41.83,19.95 L 41.93,20.16 L 42.03,20.37 L 42.07,20.47 L 42.09,20.53 L 42.11,20.58 L 40.9,21.16 L 40.88,21.11 L 40.85,21.06 L 40.81,20.96 L 40.63,20.58 L 40.56,20.43 V 20.41 L 40.54,20.38 L 40.34,20 L 40.2,19.73 L 40.14,19.63 L 40.04,19.44 L 39.94,19.26 L 39.9,19.21 L 39.87,19.16 L 39.71,18.9 L 39.48,18.54 Z" fill="url(#b)"/>
<path d="M 25.16,43.485 L 25.33,43.52 A 2.2,2.2 0 0,0 25.6,43.55 L 25.8,43.57 L 25.77,43.99 A 7.4,7.4 0 0,1 25.55,43.97 L 25.45,43.96 H 25.41 L 25.28,43.94 L 25.12,43.91 L 25.17,43.49 Z" fill="url(#b)"/>
<path d="M 37.96,16.384999999999998 L 37.85,16.3 A 9.13,9.13 0 0,1 37.61,16.06 L 37.36,15.84 L 37.89,15.18 L 38.15,15.41 L 38.35,15.6 L 38.41,15.65 L 38.54,15.78 L 38.57,15.8 L 38.67,15.9 L 38.91,16.15 L 38.33,16.77 L 38.09,16.53 A 2.16,2.16 0 0,0 38.01,16.45 L 37.97,16.41 Z" fill="url(#b)"/>
<path d="M 13.790000000000001,18.695 L 13.88,18.57 L 13.89,18.56 A 0.53,0.53 0 0,1 13.93,18.5 L 13.98,18.44 L 14.07,18.3 L 14.17,18.16 C 14.17,18.14 14.19,18.12 14.21,18.1 L 14.36,17.9 L 14.55,17.65 L 14.3,17.43 L 14.1,17.69 L 14,17.82 L 13.95,17.89 L 13.93,17.92 L 13.9,17.96 L 13.8,18.1 L 13.79,18.12 L 13.71,18.24 L 13.66,18.31 L 13.62,18.38 L 13.52,18.53 C 13.29,18.92 13.07,19.33 12.89,19.75 L 13.19,19.89 C 13.36,19.49 13.57,19.09 13.79,18.71 Z" fill="url(#a)"/>
<path d="M 17.99,14.385 L 17.86,14.5 C 17.52,14.75 17.19,15.03 16.88,15.34 L 16.66,15.09 A 9.3,9.3 0 0,1 17.68,14.21 L 17.82,14.11 L 17.88,14.06 L 17.95,14.01 L 18,13.98 L 18.1,13.92 L 18.23,13.82 L 18.3,13.78 L 18.37,13.74 L 18.51,13.65 L 18.78,13.5 L 18.94,13.8 L 18.67,13.95 L 18.53,14.03 L 18.47,14.08 L 18.4,14.12 L 18.26,14.21 L 18.13,14.3 L 18.06,14.35 H 18.05 L 17.99,14.4 Z" fill="url(#a)"/>
<path d="M 11.59,30.775 L 11.55,30.5 L 11.5,30.2 L 11.48,30.06 L 11.47,29.92 L 11.43,29.62 L 11.41,29.43 V 29.33 L 11.37,28.89 V 28.75 C 11.32,27.97 11.33,27.19 11.38,26.4 L 11.05,26.38 A 18.83,18.83 0 0,0 11.04,28.88 C 11.04,29.05 11.06,29.21 11.07,29.37 L 11.08,29.46 L 11.1,29.66 L 11.14,29.96 V 30.02 L 11.16,30.12 L 11.18,30.26 L 11.19,30.38 L 11.22,30.56 L 11.27,30.86 L 11.29,31 L 11.32,31.14 L 11.65,31.08 L 11.62,30.93 L 11.59,30.79 Z" fill="url(#a)"/>
<path d="M 15.290000000000001,38.585 A 4.5,4.5 0 0,1 15.24,38.52 L 15.22,38.5 L 15.06,38.3 L 14.91,38.1 L 14.83,38 L 14.76,37.9 L 14.61,37.7 L 14.47,37.5 L 14.4,37.4 L 14.33,37.3 L 14.28,37.22 L 14.19,37.08 L 14.12,36.97 L 13.92,36.66 L 13.87,36.56 A 11.7,11.7 0 0,1 13.8,36.44 L 13.68,36.22 L 13.38,36.41 L 13.5,36.63 L 13.57,36.74 L 13.63,36.85 L 13.83,37.17 L 13.9,37.29 A 32.63,32.63 0 0,0 14.04,37.5 L 14.11,37.61 L 14.18,37.71 L 14.33,37.93 L 14.48,38.13 L 14.55,38.23 L 14.63,38.33 L 14.79,38.53 L 14.95,38.73 L 14.96,38.76 L 15.03,38.83 L 15.11,38.93 C 15.33,39.19 15.56,39.44 15.8,39.69 L 16.04,39.42 C 15.81,39.18 15.59,38.94 15.38,38.69 L 15.3,38.59 Z" fill="url(#a)"/>
<path d="M 17.509999999999998,41.005 L 17.67,40.82 A 10.54,10.54 0 0,0 19.15,41.88 L 19.03,42.1 A 10.37,10.37 0 0,1 17.52,41.02 Z" fill="url(#a)"/>
<path d="M 20.86,42.445 L 20.73,42.8 A 15.27,15.27 0 0,0 23.24,43.7 L 23.33,43.34 A 15.71,15.71 0 0,1 20.87,42.46 Z" fill="url(#b)"/>
<path d="M 12.290000000000001,34.535 C 12.1,34.05 11.92,33.55 11.76,33.04 L 12.2,32.89 C 12.35,33.39 12.52,33.88 12.72,34.36 L 12.31,34.56 Z" fill="url(#a)"/>
<path d="M 11.69,23.615 L 11.67,23.72 L 11.65,23.81 L 11.61,23.99 L 11.58,24.17 L 11.56,24.27 L 11.54,24.35 L 11.51,24.53 L 11.49,24.72 L 11.47,24.81 V 24.9 L 11.88,24.96 L 11.89,24.86 L 11.9,24.78 L 11.93,24.6 L 11.96,24.43 L 11.97,24.34 L 11.99,24.26 L 12.02,24.08 L 12.06,23.91 L 12.08,23.82 L 12.1,23.74 L 12.14,23.57 L 11.74,23.45 L 11.69,23.63 Z" fill="url(#a)"/>
<path d="M 31.639999999999997,43.355 L 31.55,43.09 L 32.22,42.88 L 32.32,43.16 L 31.65,43.37 Z" fill="url(#b)"/>
<path d="M 33.82,41.975 L 33.97,42.28 L 34.72,41.88 L 34.58,41.58 L 33.83,41.98 Z" fill="url(#b)"/>
<path d="M 27.31,43.595 A 13.78,13.78 0 0,0 29.91,43.32 L 29.98,43.69 A 13.81,13.81 0 0,1 27.32,44 V 43.61 Z" fill="url(#b)"/>
<path d="M 35.02,40.765 L 35.25,41.12 L 36.39,40.34 L 36.17,39.99 L 35.03,40.78 Z" fill="url(#b)"/>
<path d="M 41.800000000000004,36.935 H 43.84 C 44.64,41.58 46,43.35 46,43.35 H 43.97 S 42.6,41.58 41.81,36.95 Z" fill="url(#b)"/>
<path d="M 40.82,22.485 L 40.86,22.61 V 22.64 C 40.88,22.67 40.88,22.71 40.89,22.74 L 40.99,23.24 C 41.05,23.57 41.11,23.91 41.15,24.24 L 41.18,24.5 L 41.2,24.75 L 41.23,25.01 V 25.14 L 41.25,25.26 A 32.02,32.02 0 0,0 41.27,25.77 V 27.95 H 43.29 L 43.28,25.12 L 43.27,24.98 V 24.88 L 43.26,24.87 V 24.83 L 43.23,24.54 L 43.2,24.25 L 43.17,23.96 L 42.99,22.82 L 42.87,22.25 C 42.87,22.2 42.85,22.15 42.84,22.11 L 42.81,21.97 L 42.74,21.68 L 40.77,22.24 L 40.83,22.49 Z" fill="url(#b)"/>
<path d="M 43.28,28.564999999999998 V 29.84 C 43.29,32.01 43.43,34.18 43.74,36.32 H 41.71 C 41.41,34.18 41.25,32.02 41.27,29.84 H 41.26 V 28.58 H 43.29 Z" fill="url(#b)"/>
<path d="M 28.34,12.375 L 28.24,12.38 C 27.94,12.34 27.64,12.32 27.35,12.32 V 11.84 C 27.66,11.84 27.98,11.87 28.29,11.9 L 28.41,11.92 L 28.53,11.93 L 28.76,11.97 L 28.99,12.01 L 29.11,12.03 L 29.23,12.05 L 29.11,12.52 L 29.01,12.5 L 28.89,12.47 L 28.68,12.44 L 28.46,12.4 A 2.7,2.7 0 0,0 28.35,12.39 Z" fill="url(#a)"/>
<path d="M 35.260000000000005,15.055 L 34.95,14.85 L 34.93,14.84 L 34.9,14.82 L 34.8,14.74 L 34.64,14.64 L 34.31,14.44 L 33.82,14.14 L 33.65,14.06 L 33.32,13.88 A 14.51,14.51 0 0,0 32.98,13.72 L 32.81,13.64 L 32.77,13.61 L 32.72,13.6 L 32.64,13.56 L 32.29,13.41 A 3,3 0 0,0 32.12,13.34 L 31.67,13.17 L 31.59,13.14 L 31.15,13.03 L 30.95,13.7 L 31.3,13.81 L 31.39,13.84 L 31.47,13.87 L 31.64,13.94 L 31.81,14 L 31.98,14.07 L 32.31,14.21 L 32.4,14.25 L 32.44,14.27 L 32.48,14.29 L 32.64,14.37 L 32.73,14.41 L 32.97,14.52 L 33.29,14.69 L 33.45,14.78 L 33.61,14.88 L 33.93,15.06 L 34.06,15.14 L 34.24,15.25 L 34.39,15.35 L 34.49,15.42 C 34.51,15.42 34.53,15.44 34.54,15.45 L 34.84,15.65 C 35.24,15.95 35.62,16.25 35.99,16.58 L 36.43,16.99 L 36.53,17.09 L 36.55,17.11 L 36.59,17.15 L 36.66,17.21 L 36.79,17.35 L 36.91,17.48 L 36.98,17.55 L 37.04,17.62 L 37.29,17.89 L 37.35,17.96 L 37.41,18.03 L 37.53,18.18 L 37.65,18.32 L 37.7,18.39 L 37.76,18.47 L 37.99,18.77 L 38.04,18.84 L 38.08,18.89 L 38.21,19.06 L 38.31,19.22 L 38.37,19.29 C 38.37,19.31 38.39,19.32 38.4,19.34 L 38.42,19.37 L 38.52,19.52 L 38.82,20 C 39.08,20.43 39.32,20.87 39.52,21.32 L 40.12,20.93 A 15.7,15.7 0 0,0 39.07,19.06 L 38.97,18.91 V 18.89 A 1.41,1.41 0 0,0 38.92,18.83 L 38.87,18.75 L 38.75,18.59 L 38.65,18.44 L 38.63,18.42 V 18.41 L 38.59,18.36 L 38.53,18.28 L 38.29,17.98 L 38.23,17.9 L 37.93,17.53 L 37.86,17.45 L 37.8,17.38 L 37.48,17.02 A 5.29,5.29 0 0,0 37.41,16.95 L 37.15,16.68 L 37.08,16.61 A 1.43,1.43 0 0,0 37.04,16.57 L 37.01,16.54 L 36.91,16.44 A 15.04,15.04 0 0,0 35.27,15.07 Z" fill="url(#c)"/>
<path d="M 40.690000000000005,27.245 L 40.68,32.52 H 38.7 L 38.73,27.26 A 13.59,13.59 0 0,0 37.85,22.52 L 39.67,21.74 A 15.12,15.12 0 0,1 40.69,27.26 Z" fill="url(#b)"/>
<path d="M 36.04,38.885 L 35.97,38.97 L 34.99,39.67 L 34.89,39.73 L 34.66,39.35 L 34.76,39.28 L 34.82,39.24 L 34.84,39.22 C 34.87,39.2 35,39.12 35.15,39 L 35.92,38.45 L 36.16,38.83 L 36.06,38.91 Z" fill="url(#b)"/>
<path d="M 34.03,40.005 L 34.19,40.29 A 3.52,3.52 0 0,1 33.99,40.41 L 33.96,40.43 L 33.88,40.47 L 33.37,40.76 L 33.23,40.49 L 33.33,40.43 L 33.39,40.4 L 33.41,40.39 L 33.42,40.38 H 33.43 C 33.46,40.35 33.57,40.29 33.68,40.23 L 34.04,40.03 Z" fill="url(#b)"/>
<path d="M 30.47,42.585 L 30.38,42.17 L 29.36,42.4 L 29.45,42.82 L 30.48,42.6 Z" fill="url(#b)"/>
<path d="M 36.21,19.825 A 12.12,12.12 0 0,0 34.68,18.21 L 34.58,18.12 L 34.23,17.83 L 34.07,17.71 L 33.87,17.55 L 33.65,17.4 L 33.54,17.33 L 33.49,17.29 L 33.43,17.26 L 33.21,17.11 L 33.1,17.04 L 32.76,16.84 L 32.7,16.81 A 0.93,0.93 0 0,0 32.66,16.79 H 32.65 L 32.53,16.72 L 32.3,16.6 A 9.16,9.16 0 0,0 32.07,16.49 L 31.95,16.43 L 31.9,16.41 L 31.83,16.38 L 31.59,16.28 A 8.2,8.2 0 0,0 31.21,16.12 L 31.11,16.08 L 31.71,14.72 L 31.74,14.74 C 31.91,14.8 32.08,14.86 32.24,14.94 L 32.51,15.04 A 1.27,1.27 0 0,1 32.64,15.11 L 32.77,15.17 L 32.88,15.23 L 33.03,15.3 L 33.41,15.5 L 33.44,15.51 L 33.47,15.53 L 33.91,15.79 L 34.03,15.86 L 34.28,16.02 L 34.34,16.06 L 34.4,16.1 L 34.75,16.35 L 35.15,16.65 L 35.21,16.7 L 35.44,16.89 L 35.55,16.98 L 35.65,17.08 A 13.4,13.4 0 0,1 37.35,18.87 L 37.37,18.88 L 37.46,19 L 37.52,19.08 L 37.63,19.23 L 37.8,19.47 L 37.82,19.5 L 37.97,19.72 L 38.06,19.86 C 38.14,19.97 38.21,20.09 38.28,20.22 L 38.44,20.47 L 38.57,20.71 V 20.73 L 37.33,21.52 A 6.6,6.6 0 0,1 37.28,21.43 L 37.2,21.28 L 37.06,21.05 L 36.86,20.74 L 36.77,20.6 A 4.2,4.2 0 0,0 36.65,20.42 L 36.62,20.38 L 36.47,20.16 A 7.4,7.4 0 0,0 36.37,20.04 L 36.31,19.95 L 36.23,19.85 L 36.22,19.84 Z" fill="url(#c)"/>
<path d="M 14.01,21.415 A 11.1,11.1 0 0,1 16.9,17.3 A 8.3,8.3 0 0,1 17.83,16.47 L 17.45,16.02 A 12.26,12.26 0 0,0 15.12,18.29 A 11.51,11.51 0 0,0 13.5,21.14 A 12.1,12.1 0 0,0 12.88,23.25 L 13.44,23.39 C 13.57,22.72 13.77,22.06 14.02,21.43 Z" fill="url(#a)"/>
<path d="M 24.729999999999997,12.424999999999999 L 24.68,11.96 C 24.43,12 24.18,12.05 23.94,12.11 L 24.04,12.58 C 24.27,12.52 24.5,12.48 24.74,12.44 Z" fill="url(#a)"/>
<path d="M 21.59,12.975 L 21.84,13.62 C 20.75,14.12 19.72,14.74 18.77,15.47 L 18.42,14.91 A 15.7,15.7 0 0,1 21.61,12.99 Z" fill="url(#a)"/>
<path d="M 13.28,26.495 V 26.43 L 13.31,26.3 L 13.34,26.05 L 13.37,25.8 L 13.38,25.75 L 13.39,25.67 L 13.41,25.55 L 13.45,25.3 L 13.54,24.82 L 13.05,24.72 L 12.97,25.21 L 12.93,25.46 L 12.9,25.59 V 25.67 L 12.89,25.72 L 12.85,25.98 L 12.83,26.15 V 26.25 L 12.81,26.37 V 26.44 L 12.8,26.51 L 12.77,26.77 C 12.72,27.47 12.72,28.17 12.77,28.87 L 13.26,28.83 C 13.21,28.16 13.21,27.48 13.26,26.81 L 13.29,26.51 Z" fill="url(#a)"/>
<path d="M 12.8,31.015 L 13.23,30.96 C 13.37,31.92 13.61,32.86 13.93,33.78 L 13.53,33.93 C 13.2,32.99 12.96,32.02 12.81,31.03 Z" fill="url(#a)"/>
<path d="M 14.65,34.885 L 14.64,34.86 L 14.57,34.71 L 14.02,35 L 14.08,35.13 L 14.12,35.2 V 35.22 A 6.42,6.42 0 0,0 14.43,35.8 L 14.96,35.48 L 14.82,35.22 A 17.03,17.03 0 0,0 14.69,34.96 L 14.66,34.9 Z" fill="url(#a)"/>
<path d="M 17.88,39.385 L 17.59,39.79 L 17.34,39.57 L 17.18,39.42 L 17.09,39.34 L 17.41,38.97 L 17.49,39.05 L 17.65,39.19 L 17.75,39.28 L 17.89,39.4 Z" fill="url(#a)"/>
<path d="M 16.47,37.555 L 16.46,37.54 A 2.42,2.42 0 0,1 16.38,37.42 L 16.28,37.27 L 15.83,37.57 L 15.93,37.74 A 3.73,3.73 0 0,0 16.03,37.89 L 16.13,38.05 L 16.24,38.2 L 16.68,37.86 L 16.58,37.72 L 16.48,37.57 Z" fill="url(#a)"/>
<path d="M 12.07,30.345 C 11.98,29.83 11.93,29.29 11.89,28.76 L 12.34,28.72 C 12.38,29.24 12.44,29.76 12.53,30.28 L 12.08,30.36 Z" fill="url(#a)"/>
<path d="M 21.49,41.135 A 13.21,13.21 0 0,1 19.26,39.75 L 19.01,40.1 A 15.29,15.29 0 0,0 21.36,41.56 L 21.51,41.15 Z" fill="url(#c)"/>
<path d="M 25.11,42.615 L 25.19,42.2 A 10.77,10.77 0 0,0 27.41,42.47 V 42.91 A 11.5,11.5 0 0,1 25.12,42.63 Z" fill="url(#b)"/>
<path d="M 22.979999999999997,41.545 L 22.87,41.52 L 22.7,41.46 L 22.5,42.05 L 22.68,42.12 A 3,3 0 0,0 22.8,42.16 L 22.87,42.18 L 23.07,42.25 L 23.25,42.3 L 23.42,41.7 L 23.23,41.65 L 23.06,41.59 L 22.99,41.56 Z" fill="url(#b)"/>
<path d="M 32.93,41.385 L 32.34,41.65 L 32.52,42.13 L 33.12,41.87 L 32.94,41.39 Z" fill="url(#b)"/>
<path d="M 42.910000000000004,42.825 C 42.39,41.83 41.24,39.62 40.67,33.12 L 38.67,33.11 V 33.12 C 39.25,39.62 40.39,41.82 40.92,42.83 V 42.84 C 41.02,43.04 41.12,43.21 41.27,43.36 H 43.27 A 1.96,1.96 0 0,1 42.92,42.84 Z" fill="url(#b)"/>
<path d="M 19.869999999999997,16.215 A 17.23,17.23 0 0,0 17.12,18.67 L 16.78,18.37 A 18.46,18.46 0 0,1 19.68,15.82 L 20.11,15.52 L 20.21,15.46 L 20.47,15.29 H 20.48 L 20.58,15.22 L 20.68,15.15 L 20.9,15.56 L 20.68,15.69 L 20.64,15.72 L 20.57,15.77 L 20.39,15.89 L 20.29,15.95 L 19.89,16.23 Z" fill="url(#a)"/>
<path d="M 17.069999999999997,36.435 L 17.28,36.68 L 17.49,36.9 L 17.66,37.07 L 17.71,37.12 L 17.38,37.5 L 17.32,37.45 L 17.15,37.27 L 16.92,37.04 L 16.71,36.8 L 16.56,36.63 L 16.5,36.56 L 16.16,36.13 L 16.09,36.05 L 16.04,35.99 L 16,35.92 L 15.9,35.79 L 15.8,35.66 C 15.8,35.64 15.78,35.63 15.77,35.61 L 15.71,35.52 L 15.53,35.25 C 15.53,35.23 15.51,35.22 15.5,35.2 L 15.44,35.11 L 15.36,34.97 L 15.31,34.9 A 15.9,15.9 0 0,1 15.19,34.7 L 15.03,34.4 L 14.95,34.26 L 14.88,34.12 L 14.73,33.82 L 14.59,33.52 L 14.52,33.38 L 14.49,33.3 L 14.46,33.23 L 14.91,33.02 L 14.93,33.07 L 14.97,33.17 L 15.04,33.31 L 15.08,33.41 L 15.17,33.59 L 15.31,33.87 L 15.38,34.01 L 15.46,34.15 L 15.61,34.43 L 15.74,34.63 L 15.77,34.7 L 15.86,34.83 L 15.91,34.92 L 15.93,34.94 L 15.94,34.96 L 16.11,35.22 L 16.17,35.3 L 16.19,35.33 L 16.21,35.35 L 16.41,35.62 C 16.41,35.64 16.43,35.65 16.44,35.67 L 16.48,35.73 L 16.56,35.83 A 9.68,9.68 0 0,0 16.94,36.3 L 17.08,36.45 Z" fill="url(#a)"/>
<path d="M 30.16,37.105 L 30.07,37.14 L 30.05,37.15 L 29.92,37.18 L 29.88,37.19 L 29.83,37.21 L 29.67,37.25 L 29.42,37.3 L 29.36,37.31 L 29.16,37.35 A 11.4,11.4 0 0,0 28.66,37.43 L 28.4,37.46 L 28.23,37.47 L 28.13,37.48 L 28.28,39.01 H 28.37 L 28.57,38.98 L 28.85,38.95 L 29.25,38.89 L 29.41,38.86 L 29.65,38.81 L 29.97,38.75 L 30.16,38.7 L 30.26,38.68 L 30.41,38.64 L 30.53,38.61 C 31.26,38.41 31.98,38.13 32.67,37.79 L 32.8,37.73 L 33.18,37.53 L 33.25,37.49 L 33.31,37.46 L 33.43,37.39 L 33.68,37.24 L 34.05,37.01 L 34.11,36.97 L 34.17,36.93 L 34.41,36.76 L 34.53,36.68 L 34.64,36.59 L 34.87,36.42 L 34.93,36.37 L 35.1,36.24 L 35.32,36.05 L 35.5,35.89 L 35.54,35.86 L 35.65,35.76 L 35.69,35.73 L 35.76,35.66 L 35.96,35.46 C 36.1,35.34 36.22,35.21 36.34,35.09 L 36.38,35.04 L 35.47,33.89 L 35.39,33.97 L 35.09,34.27 L 34.91,34.45 L 34.84,34.51 L 34.83,34.53 L 34.81,34.54 L 34.71,34.63 L 34.64,34.69 L 34.51,34.8 L 34.31,34.97 L 34.21,35.05 L 34.19,35.07 L 34.16,35.1 L 33.89,35.3 L 33.79,35.37 L 33.47,35.6 L 33.41,35.63 L 33.36,35.67 L 33.25,35.74 L 33.03,35.88 L 32.8,36.01 L 32.69,36.08 L 32.63,36.11 L 32.57,36.14 L 32.34,36.26 L 32.23,36.32 L 32.11,36.38 C 31.49,36.68 30.84,36.93 30.17,37.12 Z" fill="url(#b)"/>
<path d="M 27.689999999999998,41.085 L 27.29,41.08 L 26.99,41.07 L 26.88,41.06 A 12.09,12.09 0 0,1 26.07,40.98 L 25.97,40.97 L 25.9,40.96 H 25.86 L 25.66,40.92 L 25.46,40.89 H 25.41 L 25.26,40.86 L 24.86,40.78 L 24.78,40.76 L 24.65,40.74 L 24.45,40.69 L 24.35,40.67 L 24.05,40.59 L 23.65,40.48 L 23.46,40.42 L 23.26,40.36 L 22.87,40.23 L 22.83,40.22 L 22.49,40.09 L 22.29,40.02 A 7.41,7.41 0 0,0 22.09,39.94 L 21.86,40.59 L 21.91,40.61 L 22.06,40.67 L 22.26,40.75 L 22.46,40.82 L 22.66,40.9 L 23.07,41.03 L 23.27,41.1 L 23.48,41.16 L 23.89,41.27 L 24.19,41.34 L 24.31,41.37 L 24.51,41.42 L 24.65,41.45 H 24.7 L 24.72,41.46 L 25.14,41.55 L 25.3,41.57 L 25.35,41.58 L 25.56,41.61 L 25.78,41.65 L 25.88,41.66 L 25.98,41.67 L 26.1,41.69 A 12.7,12.7 0 0,0 27.26,41.79 H 28.53 L 28.51,41.09 A 20.66,20.66 0 0,0 28.11,41.09 H 27.69 Z" fill="url(#b)"/>
<path d="M 34.190000000000005,38.745 L 33.79,37.93 A 13.16,13.16 0 0,1 27.49,39.59 V 40.53 A 13.56,13.56 0 0,0 34.21,38.76 Z" fill="url(#b)"/>
<path d="M 16.389999999999997,23.125 C 16.53,22.84 16.66,22.53 16.81,22.24 L 16.99,21.89 L 17.04,21.79 L 17.12,21.64 L 17.16,21.57 L 17.18,21.54 L 17.28,21.36 L 16.68,20.97 L 16.59,21.13 L 16.55,21.2 V 21.21 L 16.43,21.43 L 16.39,21.51 L 16.19,21.89 A 15.56,15.56 0 0,0 15.08,24.83 L 15.76,25.03 C 15.93,24.39 16.14,23.75 16.4,23.14 Z" fill="url(#a)"/>
<path d="M 17.99,32.225 A 14.66,14.66 0 0,0 19.6,34.74 L 18.8,35.4 A 15.12,15.12 0 0,1 16.94,32.38 L 16.9,32.29 A 5.93,5.93 0 0,1 16.79,32.05 L 16.75,31.96 L 16.69,31.81 L 17.62,31.42 L 17.67,31.53 L 17.68,31.56 L 17.71,31.64 A 5.62,5.62 0 0,0 17.82,31.88 L 18,32.24 Z" fill="url(#a)"/>
<path d="M 13.99,23.564999999999998 L 14.57,23.76 C 14.86,22.76 15.27,21.81 15.8,20.92 L 15.29,20.59 C 14.74,21.53 14.3,22.53 13.99,23.58 Z" fill="url(#a)"/>
<path d="M 15.85,19.585 L 15.93,19.5 C 16.03,19.35 16.13,19.21 16.24,19.08 L 16.77,19.53 L 16.53,19.86 L 16.48,19.93 L 16.42,20.01 L 16.41,20.03 L 16.34,20.13 L 16.27,20.23 L 16.23,20.28 L 16.2,20.33 L 15.64,19.93 L 15.67,19.87 L 15.71,19.81 L 15.78,19.71 L 15.86,19.6 Z" fill="url(#a)"/>
<path d="M 14.870000000000001,28.845 L 14.91,29.28 L 14.94,29.51 V 29.62 L 14.96,29.69 V 29.73 L 14.99,29.96 L 15.02,30.13 L 15.04,30.3 A 3.16,3.16 0 0,0 15.06,30.4 L 15.1,30.63 C 15.22,31.23 15.38,31.81 15.57,32.38 L 16.21,32.15 C 16.02,31.6 15.87,31.03 15.76,30.45 L 15.72,30.25 V 30.2 L 15.7,30.13 L 15.65,29.81 L 15.62,29.59 V 29.56 L 15.61,29.48 L 15.57,29.16 L 15.54,28.74 L 14.88,28.86 Z" fill="url(#a)"/>
<path d="M 14.53,26.005 L 14.53,26.12 L 14.52,26.2 L 14.49,26.37 L 13.92,26.3 L 13.94,26.1 L 13.95,26.04 L 13.97,25.92 L 14,25.74 L 14.02,25.64 L 14.03,25.54 L 14.18,24.71 L 14.75,24.83 L 14.59,25.75 L 14.54,26.02 Z" fill="url(#a)"/>
<path d="M 13.9,30.955 L 13.95,31.25 A 2.86,2.86 0 0,0 13.98,31.43 L 14.01,31.62 L 14.58,31.52 L 14.55,31.34 L 14.54,31.28 L 14.52,31.16 L 14.5,30.98 L 14.49,30.9 L 14.48,30.8 L 14.38,29.96 L 13.81,30.03 L 13.91,30.97 Z" fill="url(#a)"/>
<path d="M 19.08,19.205 C 18.64,19.7 18.23,20.22 17.86,20.77 L 17.22,20.29 C 17.62,19.71 18.05,19.16 18.52,18.64 L 19.09,19.22 Z" fill="url(#a)"/>
<path d="M 14.07,28.064999999999998 V 28.25 A 6.33,6.33 0 0,1 14.1,28.6 L 14.5,28.57 V 28.52 L 14.49,28.32 A 6.7,6.7 0 0,0 14.49,28.07 L 14.08,28.08 Z" fill="url(#a)"/>
<path d="M 18.759999999999998,36.165 C 19.75,37.23 20.91,38.08 22.19,38.71 L 21.76,39.46 A 12.1,12.1 0 0,1 16.31,34.14 L 16.21,33.94 A 9.25,9.25 0 0,1 15.81,33.14 L 16.5,32.78 C 16.64,33.09 16.7,33.18 16.78,33.33 L 16.89,33.54 A 12.32,12.32 0 0,0 18.77,36.18 Z" fill="url(#c)"/>
<path d="M 14.950000000000001,26.035 L 14.95,26.18 L 14.92,26.43 L 14.9,26.68 L 14.89,26.8 V 26.87 L 14.88,26.92 L 14.86,27.17 V 27.42 L 14.85,27.74 V 27.92 H 15.45 A 11.3,11.3 0 0,0 15.45,27.44 V 27.34 L 15.46,27.21 L 15.48,26.97 V 26.85 L 15.5,26.73 L 15.51,26.49 L 15.54,26.26 L 15.55,26.14 L 15.57,25.97 L 14.98,25.89 L 14.96,26.05 Z" fill="url(#a)"/>
<path d="M 26.22,40.225 L 26.14,40.23 L 26.05,40.22 L 25.88,40.2 L 25.7,40.17 L 25.62,40.16 L 25.53,40.14 L 25.36,40.11 L 25.46,39.43 L 25.62,39.46 L 25.7,39.47 L 25.78,39.49 L 25.95,39.51 L 26.12,39.53 H 26.2 L 26.29,39.55 L 26.45,39.56 L 26.62,39.57 H 26.71 L 26.79,39.58 L 26.75,40.28 L 26.67,40.27 H 26.57 L 26.4,40.25 L 26.23,40.24 Z" fill="url(#b)"/>
<path d="M 23.84,39.495 L 23.97,39.55 L 24.22,39.62 L 24.46,39.69 L 24.59,39.72 L 24.71,39.75 L 24.85,39.13 L 24.73,39.1 L 24.61,39.07 L 24.38,39.01 L 24.14,38.94 L 24.03,38.9 L 23.91,38.86 L 23.68,38.79 L 23.45,38.7 L 23.33,38.66 L 23.22,38.61 L 22.99,38.53 L 22.77,39.12 L 23.01,39.22 L 23.13,39.26 L 23.25,39.31 L 23.49,39.39 L 23.73,39.47 L 23.85,39.51 Z" fill="url(#b)"/>
<path d="M 35.71,37.415 L 35.62,37.51 L 35.52,37.59 L 35.32,37.75 L 35.1,37.9 L 35,37.98 L 34.9,38.05 L 34.68,38.2 L 34.35,37.66 L 34.55,37.52 L 34.65,37.45 L 34.75,37.38 L 34.95,37.23 L 35.15,37.08 L 35.25,37 L 35.35,36.92 L 35.53,36.77 L 35.72,36.6 L 35.82,36.52 L 35.9,36.44 L 36.3,36.92 L 36.2,37.01 L 36.11,37.09 L 35.91,37.26 L 35.71,37.43 Z" fill="url(#b)"/>
<path d="M 20.06,36.015 L 20.21,35.86 A 9.18,9.18 0 0,1 19.68,35.34 L 19.53,35.5 C 19.7,35.68 19.88,35.86 20.07,36.03 Z" fill="url(#a)"/>
<path d="M 32.370000000000005,40.385 L 32.53,40.84 A 16.53,16.53 0 0,1 29.44,41.66 L 29.37,41.2 A 15.16,15.16 0 0,0 32.38,40.4 Z" fill="url(#b)"/>
<path d="M 20.65,40.135 L 20.88,39.75 A 16.85,16.85 0 0,1 18.37,37.85 L 18.08,38.19 A 16.44,16.44 0 0,0 20.66,40.15 Z" fill="url(#c)"/>
<path d="M 24.5,38.515 A 10.49,10.49 0 0,1 21.85,37.43 L 22.36,36.47 A 9.43,9.43 0 0,0 27.32,37.75 L 27.35,38.85 A 10.46,10.46 0 0,1 24.51,38.53 Z" fill="url(#c)"/>
<path d="M 18.63,22.335 L 17.71,21.73 L 17.57,21.97 L 17.48,22.12 L 17.43,22.22 L 17.34,22.37 L 17.33,22.4 L 17.29,22.47 L 17.17,22.72 L 17.12,22.82 L 17.11,22.85 L 17.05,22.98 L 17.01,23.06 L 16.93,23.24 L 16.83,23.51 L 16.8,23.58 L 16.77,23.64 L 16.72,23.78 A 12.14,12.14 0 0,0 16.02,28.3 C 16.04,29.07 16.15,29.83 16.32,30.58 L 17.4,30.29 A 10.46,10.46 0 0,1 17.76,24.19 L 17.8,24.07 L 17.82,24.01 L 17.85,23.95 L 17.95,23.71 L 18.01,23.56 L 18.05,23.48 L 18.1,23.36 L 18.11,23.33 L 18.16,23.25 L 18.27,23.02 L 18.3,22.96 L 18.31,22.93 L 18.39,22.79 L 18.44,22.69 L 18.51,22.57 L 18.64,22.35 Z" fill="url(#c)"/>
<path d="M 18.509999999999998,20.755 L 18.66,20.57 L 18.86,20.31 L 18.95,20.18 L 19.6,20.74 A 9.46,9.46 0 0,1 19.34,21.1 L 19.21,21.28 A 3.85,3.85 0 0,0 19.09,21.47 L 18.39,20.97 L 18.44,20.9 L 18.52,20.77 Z" fill="url(#c)"/>
<path d="M 20.79,36.755 L 20.98,36.93 A 8.73,8.73 0 0,0 21.18,37.07 L 21.67,36.35 L 21.6,36.3 A 3.76,3.76 0 0,1 21.5,36.22 L 21.32,36.08 L 21.12,35.91 L 20.99,35.79 L 20.44,36.46 L 20.56,36.56 L 20.8,36.77 Z" fill="url(#c)"/>
<path d="M 24.549999999999997,14.135 A 10.87,10.87 0 0,0 21.63,15.3 L 21.23,14.5 A 11.72,11.72 0 0,1 28.83,13.13 C 29.21,13.19 29.58,13.27 29.93,13.36 L 29.73,14.24 A 11.04,11.04 0 0,0 26.63,13.88 A 10.65,10.65 0 0,0 24.56,14.15 Z" fill="url(#c)"/>
<path d="M 33.09,19.255 L 33.74,18.34 L 33.52,18.17 L 33.38,18.07 L 33.29,18.01 L 33.18,17.93 L 33.15,17.91 L 33.12,17.89 L 33.06,17.85 L 32.83,17.7 L 32.73,17.64 L 32.71,17.63 L 32.59,17.56 L 32.57,17.55 L 32.35,17.42 L 32.1,17.29 L 32.04,17.26 L 31.98,17.23 L 31.85,17.17 A 10.82,10.82 0 0,0 29.77,16.43 A 10.27,10.27 0 0,0 25.42,16.33 L 25.62,17.48 A 9,9 0 0,1 31.39,18.23 L 31.51,18.28 L 31.56,18.31 L 31.62,18.34 L 31.84,18.45 L 31.98,18.54 C 32.01,18.54 32.03,18.56 32.05,18.58 L 32.16,18.64 L 32.2,18.66 L 32.27,18.7 L 32.47,18.84 L 32.53,18.87 L 32.56,18.89 L 32.58,18.91 L 32.68,18.98 L 32.78,19.04 L 32.89,19.12 L 33.09,19.27 Z" fill="url(#c)"/>
<path d="M 37.72,24.605 A 11.92,11.92 0 0,0 35.93,20.56 L 35.09,21.21 A 10.54,10.54 0 0,1 36.92,26.21 L 37.97,26.11 C 37.92,25.61 37.84,25.11 37.73,24.62 Z" fill="url(#c)"/>
<path d="M 26.54,14.434999999999999 L 26.58,15.33 C 26.91,15.32 27.24,15.33 27.58,15.34 L 27.62,14.46 A 13,13 0 0,0 26.55,14.45 Z" fill="url(#c)"/>
<path d="M 34.65,19.105 L 34.82,19.29 L 35.06,19.54 L 35.15,19.64 L 34.53,20.24 A 7.93,7.93 0 0,1 34.43,20.14 L 34.23,19.92 L 34.08,19.76 A 4.07,4.07 0 0,0 33.92,19.61 L 34.49,18.95 L 34.55,19.02 L 34.65,19.12 Z" fill="url(#c)"/>
<path d="M 19.349999999999998,17.255 L 19.89,18.02 A 13.35,13.35 0 0,1 25.89,15.41 L 25.75,14.48 A 13.61,13.61 0 0,0 22.4,15.46 C 21.32,15.93 20.3,16.54 19.36,17.26 Z" fill="url(#c)"/>
<path d="M 28.99,15.395 L 28.91,15.4 L 28.81,15.38 H 28.69 L 28.47,15.35 L 28.53,14.63 L 28.76,14.66 H 28.88 L 29,14.68 L 29.08,14.7 C 29.13,14.7 29.18,14.7 29.23,14.72 L 29.52,14.76 L 29.58,14.78 L 29.69,14.8 L 29.76,14.81 L 29.92,14.85 L 30.15,14.9 L 30.32,14.94 L 30.39,14.96 L 30.22,15.66 L 30,15.6 L 29.79,15.55 L 29.63,15.52 H 29.6 L 29.57,15.51 L 29.41,15.47 H 29.35 L 29.13,15.43 L 29,15.41 Z" fill="url(#c)"/>
<path d="M 38.09,27.235 H 36.96 L 36.97,29.83 H 38.07 L 38.09,27.25 Z" fill="url(#c)"/>
<path d="M 21.91,17.445 A 10.66,10.66 0 0,1 24.58,16.37 L 24.83,17.45 A 9.61,9.61 0 0,0 21.34,19.16 C 21,19.43 20.67,19.73 20.36,20.04 L 19.63,19.24 A 11.12,11.12 0 0,1 21.92,17.46 Z" fill="url(#c)"/>
<path d="M 37.99,30.935 H 37 C 37,31.85 37.04,32.72 37.09,33.53 H 38 L 38.01,30.95 Z" fill="url(#c)"/>
<path d="M 37.9,34.345 H 38.06 C 38.21,35.81 38.43,37.26 38.74,38.69 H 37.9 C 37.6,37.26 37.37,35.81 37.22,34.36 H 37.18 H 37.91 Z" fill="url(#c)"/>
<path d="M 40.17,42.805 C 39.62,41.75 39.19,40.6 38.91,39.42 H 38.08 C 38.35,40.6 38.78,41.75 39.34,42.82 C 39.44,43.01 39.55,43.18 39.69,43.34 H 40.53 A 1.96,1.96 0 0,1 40.18,42.82 Z" fill="url(#c)"/>
<defs>
<linearGradient id="a" x1="44.24" x2="12.13" y1="38" y2="19.61" gradientUnits="userSpaceOnUse">
<stop stop-color="rgb(111, 1, 237)" offset=".54"/>
<stop stop-color="rgb(193, 23, 121)" offset="1"/>
</linearGradient>
<linearGradient id="c" x1="44.24" x2="12.13" y1="38" y2="19.61" gradientUnits="userSpaceOnUse">
<stop stop-color="rgb(54, 1, 252)" offset="0"/>
<stop stop-color="rgb(111, 1, 237)" offset=".54"/>
<stop stop-color="rgb(193, 23, 121)" offset="1"/>
</linearGradient>
<linearGradient id="b" x1="44.24" x2="12.13" y1="38" y2="19.61" gradientUnits="userSpaceOnUse">
<stop stop-color="rgb(54, 1, 252)" offset="0"/>
<stop stop-color="rgb(111, 1, 237)" offset=".54"/>
</linearGradient>
</defs>
</svg>
