<?xml version="1.0" encoding="UTF-8"?>
<!-- generated by Finnhub -->
<svg viewBox="0 0 55.5 55.5" xmlns="http://www.w3.org/2000/svg">
<path d="M 0,0 H 55.5 V 55.5 H 0 Z" fill="rgb(13, 67, 123)"/>
<path d="M 35.65,34.085 S 35.58,35.5 36.02,37.2 C 36.39,38.6 37.06,39.92 37.06,39.92 S 43.98,40.29 47,34.77 L 42.43,31.67 S 40.66,35.73 35.66,34.11 Z M 28.73,19.1 S 31.75,16 37.5,16 C 39.78,16 43.98,16.66 46.7,21 L 42.21,24.32 S 40.96,21.82 37.35,21.82 C 34.92,21.82 32.78,23.14 32.19,25.27 C 31.24,21.15 28.73,19.09 28.73,19.09 Z" fill="rgb(49, 161, 217)"/>
<path d="M 34.910000000000004,33.945 C 32.71,32.86 31.82,30.28 31.82,28.15 C 31.82,21.59 26.67,16.22 19.45,16.22 C 12.45,16.22 7,20.12 7,28.59 C 7,39.55 20.11,43.09 27.77,37.13 A 12.92,12.92 0 0,1 24.61,30.79 C 22.69,35.8 16.36,35.8 14.44,31.97 C 12.52,27.85 13.7,22.11 19.38,22.11 C 23.35,22.11 24.9,25.21 24.9,27.85 C 24.9,34.4 29.32,39.92 36.1,39.92 C 35.8,39.19 35.43,38.22 35.14,36.98 C 34.84,35.43 34.92,33.96 34.92,33.96 Z" fill="rgb(254, 254, 253)"/>
</svg>
