<?xml version="1.0" encoding="UTF-8"?>
<!-- generated by Finnhub -->
<svg viewBox="0 0 55.5 55.5" xmlns="http://www.w3.org/2000/svg">
<path d="M 0,0 H 55.5 V 55.5 H 0 Z" fill="rgb(239, 242, 248)"/>
<path d="M 11.09,27.755 C 11.84,32.59 13.19,37.32 17.29,40.63 C 18.94,41.97 18.79,42.21 20.92,43.36 C 23.62,44.81 24.96,44.9 27.9,44.96 C 28.91,44.98 31,44.97 31.8,44.56 C 39.37,40.64 42.43,40.78 44.63,30.86 C 44.82,30 45.03,30.81 45,28.13 C 44.96,25.03 41.07,18.38 38.49,16.57 C 37.53,15.89 36.33,13.83 34.89,12.81 C 33.56,11.87 29.77,10.95 28.19,11.01 C 27.07,11.04 22.22,12.23 21.45,12.78 C 18.75,14.69 14.15,18.08 12.86,21.15 C 12.03,23.11 10.77,25.62 11.1,27.77 Z" fill="rgb(193, 152, 40)"/>
<path d="M 12.74,26.794999999999998 C 18.8,26.17 11.68,28.93 12.34,33 C 12.44,33.64 12.5,33.3 12.7,33.96 C 13,34.9 14.35,36.97 14.98,37.79 C 15.21,38.11 16.2,39.4 16.21,39.37 L 16.53,39.42 L 16.2,37.32 C 16,35.23 15.12,34.16 17.28,33.76 C 17.99,33.63 17.69,33.45 18.38,33.89 C 18.44,35.12 18.73,35.78 19.91,36.39 C 19.96,37.27 19.6,37.37 20.47,37.89 V 38.62 C 20.78,38.84 21.08,38.95 21.45,39.19 C 21.81,39.43 21.99,39.7 22.58,39.66 C 22.64,35.6 24.19,38.32 20.48,36.22 C 19.95,35.92 19.96,35.92 20.01,35.61 C 20.04,35.44 20.27,35.41 20.45,35.43 C 21.75,35.53 24.99,35.81 25.7,36.68 C 25.95,36.98 25.9,36.78 26.3,37.16 C 26.47,36.56 25.92,36.26 25.63,35.86 C 24.87,34.82 25.48,35.77 23.47,35.69 C 22.04,35.63 20.93,35.49 20.07,34.35 C 19.77,33.97 19.85,34.04 19.85,33.42 C 22.4,34.07 21.82,35.06 24.9,35.09 C 25.05,34.92 25.03,34.96 25.04,34.66 C 25.48,34.3 25.67,34.88 25.49,33.94 L 24.06,34.02 C 24,33.19 24,33.67 24.53,33.32 C 24.58,32.22 23.88,32.82 24.71,31.29 C 25.45,29.94 25.91,31.32 27.54,30.27 C 27.73,30.14 27.72,30.2 27.78,29.98 C 28.12,28.84 24.27,30.24 23.91,29.58 C 23.74,29.26 23.57,28.75 23.18,28.52 C 21.95,28.84 23.14,29.62 23.35,30.68 C 23.55,31.67 24.28,32.55 23.67,33.33 C 23.29,33.01 23.41,32.81 23.04,32.41 C 22.33,31.62 23.16,31.38 22.38,30.03 C 21.87,29.15 18.92,31.99 20.48,29.66 C 20.79,29.18 21.15,28.66 21.62,28.3 C 21.99,28.07 22.56,27.85 22.75,27.43 C 22.23,27 21.63,27.44 20.95,27.92 C 18.97,28.97 20.65,26.94 19.6,30.01 C 19.49,30.34 19.48,30.78 19.47,31.15 C 19.44,31.93 19.82,31.71 19.87,31.99 C 19.86,32.85 19.62,33.65 19.27,32.46 C 17.77,32.46 18.53,32.36 18.07,31.46 C 18,31.3 17.49,30.99 17.52,29.81 C 17.55,28.41 18.61,27.71 19.63,26.94 L 22.09,25.99 C 22.12,25.33 21.98,24.97 21.42,24.59 C 20.49,25.14 20.69,26.46 19.07,26.06 C 18.7,25.97 18.08,25.29 18.05,25.21 C 17.78,24.64 18.37,24.25 17.41,24.07 C 16.55,24.79 16.94,26.62 15.45,26.2 L 15.38,26.05 C 14.94,24.95 15.74,25.62 15.21,24.01 C 16.95,21.21 14.37,23.37 13.79,22.11 C 12.69,22.11 12.79,21.77 13.29,20.86 C 13.71,20.09 13.51,20.86 13.85,19.6 C 12.74,20.53 12.16,22.21 11.89,23.56 C 10.61,29.94 10.56,27.05 12.75,26.81 Z" fill="rgb(211, 178, 42)"/>
<path d="M 25.45,11.795 C 24.54,12.17 23.57,12.22 22.64,12.64 C 22,12.94 21.53,13.04 20.9,13.44 C 20.03,14.02 19.69,14.15 19.82,14.64 C 20.4,14.84 20.2,14.7 20.42,14.49 C 21.06,13.9 21.68,14.11 22.19,13.85 C 22.48,13.7 22.35,13.65 22.72,13.55 C 23.37,13.39 24.02,13.29 24.55,12.93 C 26.55,13.57 24.91,15.57 24.91,17.19 C 25.35,16.9 25.66,16.69 26.17,17.17 C 25.99,17.27 25.97,17.22 25.78,17.32 C 25.01,17.74 23.94,17.78 23.28,18.22 C 22.78,18.55 22.36,18.1 22.28,18.59 C 23.48,18.67 28.1,17.64 28.95,17.29 C 34.12,18.97 36.9,19.07 38.52,22.13 C 38.93,22.93 40.14,23.78 40.18,24.69 C 40.48,24.79 40.83,25.12 40.98,24.67 C 41.12,24.2 40.54,24.07 40.99,23.95 C 42.69,23.53 41.4,22.7 41.59,21.74 C 39.34,20.31 38.45,17.38 36.91,15.71 C 36.11,14.83 35.9,14.38 35.01,13.55 L 34.97,13.5 A 5.78,5.78 0 0,0 32.87,12.3 C 31.84,12.12 31.97,12.2 31.29,12 C 31.03,11.92 30.95,11.99 30.65,11.88 C 27.95,10.98 29.31,11.81 25.46,11.81 Z" fill="rgb(157, 113, 36)"/>
<path d="M 20.459999999999997,29.645 C 20.33,29.86 20.3,30.2 20.33,30.46 C 20.38,30.76 20.36,30.59 20.41,30.69 C 20.81,30.74 20.95,29.41 21.51,29.23 C 22.61,30.16 22.23,31.51 23.04,32.41 C 23.41,32.81 23.29,33.01 23.67,33.33 C 24.28,32.55 23.56,31.67 23.35,30.68 C 23.14,29.62 21.95,28.84 23.18,28.52 C 23.58,28.75 23.74,29.26 23.91,29.58 C 24.41,30.51 25.09,29.68 25.62,29.61 C 25.92,29.58 26.06,29.62 26.35,29.55 C 26.75,29.45 28.05,29.07 27.78,29.98 C 27.42,31.2 25.32,30.18 24.71,31.28 C 23.88,32.81 24.58,32.22 24.53,33.33 C 24,33.67 24,33.19 24.06,34.02 C 28.26,33.79 30.16,38.62 27.89,33.89 C 25.7,33.56 26,32.49 27.09,31.71 L 28.19,31.4 L 28.5,32.33 C 28.67,32.83 29.18,33.61 29.27,33.9 C 29.4,34.33 29.34,34.32 29.85,34.32 C 29.89,33.72 29.78,34.05 29.57,33.57 C 29.07,32.46 29.27,30.79 29.25,30.67 C 29.08,30.17 28.59,30.27 28.6,29.53 C 28.6,28.94 28.84,28.46 28.6,27.87 C 28.4,27.39 27.9,25.8 27.87,25.15 C 27.37,24.8 25.21,24.5 24.35,24.58 C 24.15,24.91 24.21,24.85 24.08,25.23 L 23.76,24.23 C 23.47,24.31 23.33,24.77 23.01,24.96 C 22.81,27.01 23.63,26.62 23.86,27.15 C 23.58,27.31 23.46,27.22 23.08,27.25 C 22.49,28.26 21.13,28.67 20.48,29.66 Z" fill="rgb(164, 117, 35)"/>
<path d="M 21.849999999999998,23.765 C 21.96,23.38 22.13,23.48 22.61,23.53 V 24.2 L 22.11,24.49 C 22.36,24.64 22.4,24.59 22.76,24.57 C 22.79,22.77 23.32,23.87 24.03,23.5 L 24.81,22.28 C 25.51,21.4 26.84,21.22 27.97,21.3 C 28.97,21.38 28.61,21.9 29.61,21.81 C 29.8,20.82 29.01,20.85 28.75,20.49 C 29.1,20.36 29.25,20.42 29.54,20.68 C 30.16,21.26 30.7,21.91 31.28,22.48 C 31.57,21.38 30.56,20.8 29.8,20.14 C 29.37,19.76 29.36,20.02 29.14,19.45 C 28.64,19.46 27.94,19.6 27.5,19.53 C 26.7,19.41 27.13,19.04 26.3,19.08 C 25.55,19.12 26.04,19.38 25.04,19.48 C 24.6,19.52 23.68,19.88 23.5,20.31 A 7.51,7.51 0 0,1 21.75,22.73 C 21.29,23.18 21.73,23.37 21.85,23.78 Z" fill="rgb(153, 112, 36)"/>
<path d="M 17.549999999999997,20.745 C 17.44,21.18 17.23,21.48 17.29,21.87 L 17.31,21.93 C 17.57,21.81 17.41,21.98 17.47,21.72 L 17.49,21.25 C 18.32,21.21 18.03,21.48 18.75,21.6 C 19,21.2 18.75,21.4 19.14,21.03 C 19.44,20.73 20.14,19.13 20.93,18.18 C 21.65,18.46 23.73,18.91 23.15,16.73 C 24.54,15.42 25.79,14.28 23.83,13.87 C 22.76,13.97 22.55,13.52 22.43,14.13 C 22.51,15.13 23.57,17.63 22.3,17.4 C 21.68,17.29 21.04,17.63 20.39,17.6 L 19.95,16.86 C 17.05,16.82 19.95,17.33 19.67,18.24 C 18.54,18.29 17.73,16.25 16.87,16.92 C 16.54,17.17 16.53,17.54 16.53,18.02 C 18.08,18.84 17.83,19.25 18.54,20.65 C 17.87,20.65 17.94,20.45 17.56,20.75 Z" fill="rgb(161, 116, 36)"/>
<path d="M 16.36,39.845 C 16.4,40.18 16.53,40.22 16.71,40.37 C 17.74,41.17 18.75,41.87 19.66,42.79 C 20.38,42.74 22.1,43.86 22.79,44.27 C 23.62,44.75 27.42,44.99 28.36,45 C 29.7,45 30.3,44.53 31.76,44.54 C 37.26,43.7 43.74,37.59 44.36,32.12 L 44.25,31.27 C 43.9,31.61 44.03,31.89 43.84,32.44 C 43.18,34.31 42.6,35.9 41.04,37.4 C 39.97,38.41 38.67,38.54 38.59,38.84 C 39.31,39.1 39.18,38.89 39.35,39.19 C 39.7,39.8 38.97,40.44 38.58,40.6 C 38.14,41.7 33,43.4 31.62,43.76 C 31.24,43.85 31.34,44.01 30.9,44.21 C 28.62,44.18 30.26,42.39 29.14,44.17 H 28.82 C 28.5,43.44 29.35,43.72 28.24,43.19 C 28.38,42.37 25.84,41.64 24.87,41.57 C 23.42,41.47 25.64,39.23 25.62,38.46 C 25.49,38.38 23.42,36.39 24.46,37.81 L 24.73,38.45 C 24.23,38.56 23.77,38.22 23.24,38.53 C 22.64,38.9 23.07,39.7 22.77,39.83 C 21.21,40.53 21.25,40.1 19.81,38.03 C 19.53,37.64 19.26,37.67 19.65,36.56 C 18.28,35.8 18.31,34.56 17.41,34.28 C 17.01,34.16 16.53,34.02 16.14,34.18 L 16.03,34.94 C 16.35,34.94 17.65,35.07 17.15,35.52 C 16.85,35.78 16.67,35.34 16.41,35.58 C 16.35,35.64 16.38,36.98 16.46,37.1 C 16.7,37.45 16.76,37.01 16.77,37.78 L 16.79,39.44 C 17.72,39.53 19.15,38.92 16.37,39.86 Z" fill="rgb(91, 58, 20)"/>
<path d="M 11.47,29.655 L 11.58,30.29 C 11.93,30.42 12.02,31.14 12.01,31.54 C 12.43,31.54 12.27,31.6 12.38,31.18 C 12.41,31.06 12.44,30.77 12.45,30.58 C 12.89,30.59 13.27,30.44 13.7,30.47 C 13.66,30.9 13.6,31.15 13.58,31.71 C 13.26,31.86 13.51,31.5 13.23,31.9 C 13.48,32.08 13.95,32.36 14.27,32.39 C 14.23,31.69 15.04,30.46 14.48,29.98 C 13.76,29.35 14.65,28.88 14.57,28.02 A 8.5,8.5 0 0,0 14.34,26.98 C 13.84,26.95 13.08,26.78 12.75,26.81 C 12.35,26.86 11.69,27.01 11.2,27.04 L 11.48,29.67 Z" fill="rgb(237, 208, 53)"/>
<path d="M 24.88,17.935 C 24.54,18 24.65,18.11 24.22,18.2 C 23.95,18.25 23.52,18.15 23.52,18.36 L 23.43,18.72 C 21.87,18.88 23.25,18.76 21.86,19.13 L 20.61,19.81 C 20.39,20.01 20.57,20.11 20.35,20.41 C 20.18,20.63 19.98,20.61 19.73,20.76 C 19.05,21.18 19.2,22.06 18.23,21.71 C 17.83,21.57 18.13,21.61 17.81,21.41 C 17.74,21.87 18.02,22.31 18.25,22.53 C 18.86,23.16 18.89,22.81 19.17,22.33 C 20.07,22.28 20.09,22.5 20.65,22.51 C 21.04,21.73 20.36,21.78 21.93,21.65 V 20.89 C 22.71,20.29 22.53,20.21 22.83,20.09 C 23.13,19.96 23.26,20.04 23.45,19.81 C 23.67,19.56 23.54,19.52 23.59,19.09 C 23.92,19.2 24.75,19.39 25.18,19.29 C 25.82,19.11 25.03,19.32 25.74,18.9 L 25.93,18.8 A 0.75,0.75 0 0,0 25.98,18.75 C 26.31,18.4 25.96,18.15 27.27,18 C 26.37,17.72 25.82,18.03 24.89,17.95 Z" fill="rgb(217, 180, 40)"/>
<path d="M 13.290000000000001,20.845 C 12.97,21.46 12.82,21.53 12.91,22.12 C 13.71,22.12 15.86,23.22 15.21,22.43 C 14.79,22.01 14.19,21.91 13.71,21.54 L 13.69,20.49 C 13.91,20.49 14.14,20.46 14.36,20.5 C 14.76,20.58 14.43,20.6 14.86,20.7 C 16.11,19.93 15.96,21.12 16.43,21.9 C 16.96,21.72 16.83,20.94 17.57,20.76 C 17.74,19.96 18.12,20.46 18.01,19.18 C 18,18.98 16.48,17.68 16.17,17.41 C 16.03,17.49 16.32,17.31 15.99,17.47 C 15.49,17.72 14.62,18.47 14.25,18.95 C 13.82,19.5 13.63,20.24 13.29,20.86 Z" fill="rgb(231, 195, 36)"/>
<path d="M 19.369999999999997,27.224999999999998 C 18.43,27.39 17.54,28.93 17.52,29.81 C 17.49,30.99 18,31.3 18.07,31.45 C 18.53,32.35 17.77,32.45 19.27,32.45 C 19.38,32.82 19.41,33.04 19.66,33.23 C 19.82,32.95 19.86,32.41 19.87,31.99 C 19.81,31.71 19.44,31.93 19.47,31.15 C 19.51,29.89 20.24,28.91 20.25,28.49 C 20.26,28.02 20.28,28.41 20.2,28.23 C 18.2,27.83 18.9,27.73 20.52,27.35 C 20.5,27.79 20.4,27.62 20.4,28.13 C 21.03,28.01 21.77,27.38 22.35,27.05 C 21.92,26.75 21.96,26.95 21.42,26.84 C 20.78,26.7 21.18,26.5 20.44,26.55 C 20.27,26.91 19.84,27.12 19.38,27.25 Z" fill="rgb(172, 125, 36)"/>
<path d="M 20.49,41.315 C 20.08,41.51 20.08,41.36 19.89,41.78 C 20.41,42.25 21.69,42.9 22.31,42.82 C 22.74,43.81 23.01,43.33 23.35,42.65 C 24.06,41.31 23.75,43.27 23.62,43.65 C 24.16,43.95 24.8,43.6 25.47,43.54 C 25.55,42.86 25.57,43.06 26.08,42.64 L 25.44,41.86 C 25.3,41.92 21.5,40.82 21.25,40.79 L 21.05,40.12 L 20.44,40.3 C 20.24,40.05 20.3,40.04 20.2,39.72 L 19.58,39.82 V 40.26 C 20.61,40.9 20.02,40.24 20.51,41.33 Z" fill="rgb(58, 26, 11)"/>
<path d="M 23.819999999999997,13.854999999999999 C 23.81,14.57 24.18,14.37 24.8,14.37 C 24.72,14.87 24.49,15.21 23.96,15.17 C 23.2,15.13 23.67,14.64 23.28,14.32 C 22.78,13.92 22.51,14.25 22.76,14.75 C 23.08,15.4 22.97,16.05 23.16,16.73 C 23.46,17.9 22.84,17.43 22.36,18.35 C 22.06,18.35 21.66,18.27 21.43,18.41 C 21.76,18.71 21.8,18.52 22.29,18.59 C 22.36,18.1 24.88,17.82 25.39,17.59 C 25.77,17.42 25.45,17.5 25.79,17.32 C 25.97,17.22 25.99,17.27 26.17,17.17 C 25.67,16.71 24.04,17.2 25.4,16.3 C 24.96,15.89 24.61,15.91 25.46,14.92 C 25.84,14.48 26.14,13.7 25.16,13.79 C 24.87,14.11 24.88,13.92 24.64,13.61 C 24.45,13.59 24.04,13.51 23.83,13.87 Z" fill="rgb(122, 83, 27)"/>
<path d="M 31.049999999999997,24.155 C 30.97,23.59 30.85,23.32 30.66,22.84 C 30.45,22.34 30.19,22.22 29.58,22.25 L 29.28,22.81 C 31.88,23.32 28.57,24.15 28.27,24.96 C 28.81,25.69 28.71,26.13 28.87,26.95 C 29.34,27.27 29.35,26.75 29.67,27.49 C 29.87,27.91 29.87,27.97 30.11,28.29 C 31.03,28.3 31.47,27.98 32.25,27.78 C 32.62,27.68 32.62,27.77 32.84,27.53 C 31.58,26.85 30.95,27.58 30.51,27.13 C 30.14,26.37 29.18,25.61 28.96,24.88 C 31.01,24.91 29.5,24.97 30.43,25.18 C 30.66,24.58 30.52,24.52 31.06,24.18 Z" fill="rgb(161, 116, 36)"/>
<path d="M 20.04,16.255 L 20.31,16.45 C 20.63,16.68 20.54,16.55 20.68,16.9 L 20.83,17.24 C 21.1,17.47 22.4,17.24 22.85,16.98 V 15.3 C 22.48,15.37 22.18,15.42 21.71,15.4 L 21.41,15.03 C 20.71,15.03 20.64,14.83 19.89,14.85 C 19.62,15.25 19.56,15.21 19.12,15.4 C 18.12,15.84 18.49,15.32 17.87,15.72 C 17.44,15.99 17.82,15.9 17.36,16.14 C 17.58,16.44 17.49,16.54 17.65,16.85 C 21.27,16.95 19.15,17.39 20.05,16.28 Z" fill="rgb(217, 180, 40)"/>
<path d="M 26.619999999999997,11.445 H 26.43 C 26.07,11.96 25.43,12.2 24.88,12.36 L 24.73,12.42 C 25.21,12.71 26.69,12.83 27.26,12.78 C 29.65,12.58 31.74,14.07 33.93,13.87 C 34.51,13.82 34.03,13.91 34.25,13.75 C 34.11,13.38 32.55,12.85 32.31,12.75 C 30.51,12.3 28.65,11.51 26.63,11.46 Z" fill="rgb(98, 59, 20)"/>
<path d="M 17.65,39.535 C 17.62,39.64 17.57,39.99 17.82,40.15 L 18.39,40.2 C 18.76,39.4 18.23,39.58 19.24,39.5 C 19.6,37.34 20.06,38.77 18.62,38.52 C 18.72,38.02 18.82,38.13 19.25,37.87 L 19.22,36.87 C 17.86,36.76 18.55,34.09 17.13,34.77 C 17.31,35.29 17.89,34.81 17.63,36.04 L 16.86,36.02 C 16.75,36.82 17.13,36.59 17.11,37.11 C 17.09,37.51 16.91,37.61 16.99,38.33 C 17.59,38.55 17.94,38.39 18.47,38.74 C 18.47,39.57 18.45,39.37 17.67,39.54 Z" fill="rgb(58, 26, 11)"/>
<path d="M 22.369999999999997,30.865 C 22.29,30.58 22.13,30.06 21.79,29.98 C 21.32,29.89 21.44,30.05 21.15,30.31 C 20.59,30.72 21.05,31.06 21.25,31.48 C 21.8,32.68 21.95,32.7 22.05,34.13 L 21.15,34.18 C 21.2,34.63 22.29,34.97 22.69,34.98 C 23.44,35 23.42,34.56 23.71,33.99 C 21.98,31.45 23.31,33.91 22.38,30.89 Z" fill="rgb(236, 209, 69)"/>
<path d="M 28.83,35.305 C 28.88,35.45 28.86,35.42 28.93,35.52 H 29.63 C 30.62,35.41 32,34.92 32.95,34.56 L 32.98,33.96 C 32.51,33.69 32.61,33.66 31.88,33.7 C 31.45,34.28 32.03,33.76 31.2,34.36 C 30.97,34.2 31.04,34.21 30.67,34.13 C 30.6,33.53 30.34,33.25 30.13,32.76 C 29.98,32.41 30.17,32.33 29.83,32.03 C 28.71,32.87 31.31,34.77 29.16,34.53 C 29.04,34.01 29.16,34.08 28.86,33.71 C 28.44,33.21 28.72,33.2 28.39,33.07 C 28.23,33.37 28.24,33.87 28.38,34.27 C 28.6,34.93 28.71,34.85 28.84,35.32 Z" fill="rgb(219, 186, 57)"/>
<path d="M 38.89,28.055 C 39.03,27.44 38.76,27.17 39.13,26.89 C 39.36,26.71 39.96,27.03 40.03,26.71 L 40.05,26.64 C 40.15,26.02 40.06,27.16 40.06,26.5 C 40.06,26.35 40.05,26.37 40.03,26.26 C 39.91,25.48 39.83,25.66 39.73,25.23 C 39.47,24.06 38.95,24.56 38.8,23.07 C 38.35,23.29 37.84,23.25 37.34,23.15 C 37.34,23.65 37.33,23.73 37.84,24.41 C 38.46,25.24 38.69,27.43 38.71,28.5 L 38.9,28.07 Z" fill="rgb(233, 203, 57)"/>
<path d="M 25.29,15.584999999999999 C 26.42,16.3 27.02,15.66 27.3,15.59 C 27.82,15.46 27.46,15.53 27.77,15.6 C 28.11,15.68 28.82,15.54 29.26,15.46 C 29.19,14.5 28.44,14.85 27.76,13.76 L 26.8,13.64 C 26.4,14.1 26,14.6 25.63,15.09 C 25.32,15.51 25.41,14.96 25.31,15.6 Z" fill="rgb(200, 161, 40)"/>
<path d="M 15.43,29.695 C 15.49,29.13 15.76,29.51 16.14,29.24 C 16.1,29.21 15.98,29.17 15.93,29.15 C 15.11,28.9 14.55,28.82 14.55,29.52 C 14.55,30.16 15.05,29.38 15.08,30.56 C 15.13,31.99 14.23,32.24 14.9,33.1 C 15.11,33.37 15.45,33.55 15.93,33.5 C 16.06,32.55 15.63,32.6 16.71,32.46 C 16.73,31.84 16.73,31.83 16.25,31.22 C 16.11,31.04 13.85,30.37 16.25,30.38 L 16.22,29.82 C 15.69,29.8 15.7,29.88 15.44,29.72 Z" fill="rgb(147, 106, 34)"/>
<path d="M 24.99,25.915 C 25.9,25.94 25.92,25.68 26.7,25.7 L 26.94,26.08 C 27.01,26.28 26.99,26.33 27.05,26.55 C 27.14,26.87 27.3,27.04 27.52,27.3 C 28.14,28.1 27.34,28.85 28.4,28.72 C 28.48,27.45 27.95,26.92 27.88,26.48 C 27.8,25.84 27.95,25.28 27.25,25.11 C 25.88,24.79 26.26,24.76 24.51,24.83 C 24.51,25.05 24.6,25.15 24.7,25.4 C 24.79,25.62 24.86,25.78 25,25.93 Z" fill="rgb(122, 83, 27)"/>
<path d="M 34.31,28.915 C 34.54,29.08 34.52,29.1 34.55,29.44 C 34.92,29.62 35.01,29.61 35.29,29.51 C 35.39,29.27 35.42,29.14 35.35,28.86 C 35.18,28.2 35.59,27.15 34.91,26.76 C 34.47,26.52 34.71,26.48 34.32,26.12 C 34.09,26.4 34.17,26.38 33.83,26.56 C 33.99,27.44 33.75,27.88 33.21,28.42 C 33.86,28.64 34.04,28.2 34.31,28.92 Z" fill="rgb(229, 199, 54)"/>
<path d="M 24.08,27.605 L 24.73,28.29 C 25.06,28.64 25.03,28.52 26.33,28.38 C 26.32,27.89 26.17,27.62 26.18,27.05 C 26.2,26.49 26.27,25.9 25.58,26.42 C 25.35,26.58 25.5,26.7 25.04,26.67 C 24.51,26.64 24.79,26.38 24.48,26.53 C 24.23,26.66 24.39,26.78 24.32,27.13 C 24.22,27.56 24.19,27.14 24.09,27.63 Z" fill="rgb(219, 186, 57)"/>
<path d="M 31.669999999999998,25.035 C 31.42,24.88 31.4,24.65 31.06,24.8 C 30.63,25 30.83,26.7 30.81,27.1 C 31.42,27.24 31.35,27 31.86,26.91 C 32.68,26.76 32.01,27.18 32.73,27.12 C 32.59,26.7 32.29,26.69 32.26,26.11 C 32.25,25.62 32.31,25.05 32.28,24.58 C 31.84,24.7 32.07,24.79 31.68,25.05 Z" fill="rgb(218, 186, 49)"/>
<path d="M 13.39,25.255 C 14.94,25.25 14.42,25.47 15.2,25 C 14.86,24.03 14.32,23.98 13.52,23.69 C 13.1,23.53 12.72,23.78 12.87,24.22 C 13.03,24.56 13.17,24.98 13.4,25.27 Z" fill="rgb(242, 216, 69)"/>
<path d="M 34.63,40.925 C 34.22,40.94 34,41.18 33.35,41.24 C 32.28,41.34 32.62,41.5 32.02,41.49 C 31.99,40.76 31.88,41.24 31.77,40.71 C 31.94,40.67 32.01,40.69 32.16,40.66 L 33.46,40.21 C 33.78,40.09 34.35,39.63 34.53,39.58 C 35.06,39.45 35.09,39.92 34.93,40.39 C 34.86,40.57 34.78,40.73 34.67,40.89 L 34.64,40.94 Z M 38.31,38.96 C 37.73,39.09 37.28,39.03 36.56,38.98 C 36.69,38.42 37.17,38.31 37.19,38.09 C 37,37.49 36.75,37.89 36.83,37.12 C 37.88,37.08 37.33,37.36 37.75,37.68 C 38.21,38.03 39.4,37.85 38.47,38.7 C 38.27,38.92 38.37,38.7 38.31,38.96 Z M 26.17,38.69 C 28.66,37.74 26.83,37.96 29.57,38.85 C 29.77,38.91 30.37,39.14 30.53,39.24 L 30.02,39.48 C 29.5,39.68 25.8,39.82 26.18,38.69 Z M 35.26,31.37 C 35.16,31.77 35.19,31.94 34.26,31.81 C 32.93,31.61 30.68,29.22 33.88,29.51 C 34.38,30.27 34.34,30.93 35.26,31.37 Z M 34.77,29.33 C 34.74,29.03 34.76,29.01 34.57,28.89 A 8.22,8.22 0 0,0 31.23,29.39 C 30.3,29.67 30.39,30.24 30.45,30.8 C 30.55,31.7 30.86,30.93 31.05,32.42 C 31.38,32.96 31.31,33.22 31.82,33.57 C 32.55,33.06 32.05,33.5 32.42,33.01 C 33.06,32.97 32.97,32.99 33.39,33.23 L 33.37,33.75 C 32.07,34.22 30.79,34.39 29.5,34.73 C 29.43,34.38 29.43,34.4 28.99,34.4 C 28.99,34.6 28.94,34.75 28.99,34.86 C 29.03,34.94 29.85,35.78 29.93,35.79 C 30.09,35.8 32.16,34.68 32.59,34.47 C 35.24,33.2 32.59,38.1 34.52,33.13 L 35.09,33.37 C 35.81,31.81 36.17,32.82 36.17,33.79 C 35.25,34.1 35.74,34.07 35.83,34.89 C 35.87,35.27 35.58,35.6 35.78,35.92 C 35.95,35.84 35.9,35.59 36.03,35.42 C 36.4,35.48 37.35,35.95 37.5,36.29 C 37.4,36.69 37.23,36.41 36.99,36.95 C 35.41,36.96 31.23,41.1 32.69,37.77 C 33.54,37.24 33.16,37.99 34.42,36.8 C 34.68,36.55 35,36.09 35.15,35.8 C 35.27,34.91 34.9,33.08 34.88,34.81 C 34.88,35.46 34.3,36.17 33.83,36.56 C 33.57,36.77 32.69,37.5 32.31,37.55 C 29.14,37.99 28.87,36.19 26.43,38.27 C 26.13,38.52 26.19,38.52 26.18,38.69 C 25.71,38.73 25.7,39.21 25.72,39.63 C 25.82,39.66 26.15,39.78 26.26,39.79 C 28.86,39.97 29.23,42.04 31.56,42.07 C 31.94,41.89 31.86,41.76 32.19,41.67 C 32.55,41.59 32.75,41.59 33.06,41.5 C 33.51,41.36 34.04,41.4 34.46,41.1 C 34.66,40.96 34.56,41.03 34.64,40.94 C 35.17,40.89 34.86,40.64 35.47,40.43 C 36.61,40.01 35.9,40.56 36.97,39.82 C 37.77,39.26 38.18,39.29 38.31,38.96 C 38.65,38.81 39.3,38.26 38.99,37.74 C 38.84,37.48 38.96,37.67 38.32,37.44 C 38.46,36.91 39.08,37.27 39.72,37.19 C 40.26,36.76 40.6,35.99 40.96,35.44 C 41.34,34.57 40.96,33.05 39.95,32.89 C 40.91,32.48 41.11,31.74 40.55,31.48 C 40.18,31.3 40.39,31.17 39.96,31.08 C 39.95,31.32 39.99,31.62 39.93,31.81 L 39.36,33.39 C 38.84,33.27 37.92,33.02 38.09,32.35 C 38.36,31.29 39.89,29.72 38.87,28.25 C 38.41,29.41 37.74,30.06 38.12,28.23 C 38.43,26.68 36.82,25.47 36.92,24.23 C 34.57,23.69 36.38,23.65 37.06,23.25 C 37.2,23.13 37.18,22.85 36.92,22.66 C 36.16,22.08 35.55,20.97 34.59,20.68 C 34.12,20.54 34.41,20.25 33.13,20.51 V 21.02 C 33.65,21.02 34.31,20.82 34.79,21.25 C 35.12,21.55 35.59,22.35 35.17,22.7 C 34.95,22.83 33.99,22.88 33.79,22.79 C 33.19,22.52 33.47,22.22 33.24,21.74 C 32.52,21.76 32.54,22.6 32.94,22.94 C 34.21,24.01 34.22,23.02 34.64,23 C 35.26,22.97 34.6,23.75 34.62,24.13 C 34.69,25.22 33.57,25.07 32.92,25.71 C 32.84,25.91 33.14,26.63 33.26,26.8 C 33.48,27.07 33.54,27.57 33.79,27.67 C 34.03,27.12 33.69,26.85 33.69,26.11 C 35.47,25.81 36.4,27.51 36.01,29.04 C 35.79,29.9 34.88,31.14 34.77,29.34 Z" fill="rgb(165, 120, 36)"/>
<path d="M 31.27,30.075 C 31.54,30.32 31.72,30.24 31.98,30.38 C 31.93,31.16 32.14,31.98 31.93,32.78 L 32.95,32.92 C 33.29,32.29 33.07,32.18 33.98,32.32 C 35.03,32.47 34.98,32.28 35.1,31.81 C 34,31.27 34.1,30.52 33.54,29.64 C 32.6,29.56 33.11,29.67 32.48,29.91 C 32.14,30.05 31.68,30.01 31.28,30.09 Z" fill="rgb(202, 163, 49)"/>
</svg>
