<?xml version="1.0" encoding="UTF-8"?>
<!-- generated by Finnhub -->
<svg viewBox="0 0 55.5 55.5" xmlns="http://www.w3.org/2000/svg">
<path d="M 0,0 H 55.5 V 55.5 H 0 Z" fill="rgb(239, 242, 248)"/>
<path d="M 31.99,26.915 L 30.73,28.32 A 3.76,3.76 0 0,0 28.83,27.7 C 28.38,27.7 28,27.75 28,28.11 S 28.7,28.68 29.27,28.68 C 29.84,28.68 31.49,29.04 31.49,30.53 C 31.49,32.03 29.9,33 27.69,33 C 25.9,33 24.49,32.18 24,31.76 L 25.46,30.53 C 25.96,30.77 27.09,31.25 27.49,31.25 C 28,31.25 28.5,31.14 28.5,30.83 C 28.5,30.53 28.06,30.43 27.5,30.33 C 26.92,30.23 24.89,29.91 24.89,28.42 C 24.89,26.92 26.6,26 28.83,26 C 30.6,26 31.68,26.62 32,26.93 Z" fill="rgb(1, 46, 91)"/>
<path d="M 16.99,32.985 H 13.92 L 13.18,31 H 9.85 L 9.08,33 H 6 L 9.78,23 H 13.23 L 17,33 Z M 12.53,29 L 11.51,25.78 L 10.51,29 H 12.53 Z M 19.4,33 C 17.97,33 17,32.02 17,30.6 V 26 H 19.5 V 30 C 19.5,30.6 20.02,31 20.5,31 C 21,31 21.48,30.71 21.48,30 V 26 H 24 V 33 H 21.55 L 21.48,32.2 C 21.09,32.68 20.34,33 19.4,33 Z" fill="rgb(155, 122, 42)"/>
<path d="M 39.29,25.985 H 42 L 40.7,33 H 38 L 39.3,26 Z M 45.77,26.61 C 46.13,26.31 46.76,26 47.74,26 C 49.59,26 50,27.04 50,27.83 C 50,28.46 49.46,31.53 49.19,33 H 46.52 L 47.22,29.08 C 47.24,29.01 47.28,28.82 47.28,28.61 C 47.28,28.35 47.04,28 46.52,28 C 46.14,28 45.74,28.3 45.36,28.73 L 44.56,33 H 42 L 43.33,26 H 45.89 L 45.77,26.61 Z M 42.03,24.35 C 41.46,25.03 40.51,25.2 39.91,24.73 C 39.31,24.26 39.29,23.33 39.87,22.65 C 40.44,21.97 41.39,21.8 41.99,22.27 C 42.59,22.74 42.61,23.67 42.03,24.35 Z M 32.36,26 H 38 L 37.64,28 H 32 L 32.36,26 Z" fill="rgb(1, 46, 91)"/>
<path d="M 35.830000000000005,29.035 L 36.83,23 L 34.16,23.44 C 33.77,25.55 33,29.94 33,30.66 C 33,32.7 35.28,33.06 36.42,32.99 L 37,31.05 C 35.96,30.83 35.72,30.38 35.72,29.94 A 4,4 0 0,1 35.84,29.05 Z" fill="rgb(1, 46, 91)"/>
</svg>
