<?xml version="1.0" encoding="UTF-8"?>
<!-- generated by Finnhub -->
<svg viewBox="0 0 55.5 55.5" xmlns="http://www.w3.org/2000/svg">
<path d="M 0,0 H 55.5 V 55.5 H 0 Z" fill="rgb(239, 242, 248)"/>
<path d="M 7.99,17.985 V 26.73 C 16.59,26.73 23.55,33.56 23.55,41.99 C 25.6,39.24 28,36.22 28,36.22 V 28.19 A 24.54,24.54 0 0,0 8,18 Z" fill="url(#c)"/>
<path d="M 27.99,28.185 V 36.22 S 30.22,39.08 32.45,41.99 C 32.45,33.56 39.41,26.73 48,26.73 V 18 A 24.54,24.54 0 0,0 28,28.2 Z" fill="url(#b)"/>
<path d="M 23.54,41.985 H 32.45 C 32.45,36.86 30.8,32.1 27.99,28.2 A 23.6,23.6 0 0,0 23.54,42 Z" fill="url(#a)"/>
<defs>
<linearGradient id="c" x1="11.12" x2="29.36" y1="20.46" y2="39.04" gradientUnits="userSpaceOnUse">
<stop stop-color="rgb(113, 190, 66)" offset="0"/>
<stop stop-color="rgb(214, 222, 33)" offset="1"/>
</linearGradient>
<linearGradient id="b" x1="46.52" x2="25.31" y1="21.94" y2="38.83" gradientUnits="userSpaceOnUse">
<stop stop-color="rgb(214, 222, 33)" offset="0"/>
<stop stop-color="rgb(113, 190, 66)" offset="1"/>
</linearGradient>
<linearGradient id="a" x1="23.55" x2="32.45" y1="35.1" y2="35.1" gradientUnits="userSpaceOnUse">
<stop stop-color="rgb(56, 180, 72)" offset="0"/>
<stop stop-color="rgb(92, 186, 68)" offset=".6"/>
<stop stop-color="rgb(113, 190, 66)" offset="1"/>
</linearGradient>
</defs>
</svg>
