<?xml version="1.0" encoding="UTF-8"?>
<!-- generated by Finnhub -->
<svg viewBox="0 0 55.5 55.5" xmlns="http://www.w3.org/2000/svg">
<path d="M 0,0 H 55.5 V 55.5 H 0 Z" fill="rgb(5, 85, 137)"/>
<path d="M 27.99,11.985 C 29.682,12 31,13.354 31,15 S 29.682,18 28,18 S 25,16.646 25,15 S 26.318,12 28,12 Z M 23.733,19.248 C 25.215,19.248 26.423,20.43 26.423,21.88 C 26.423,23.33 25.214,24.51 23.733,24.51 C 22.253,24.51 21.045,23.329 21.045,21.88 C 21.045,20.43 22.253,19.248 23.733,19.248 Z M 19.587,26.154 C 20.807,26.154 21.801,27.128 21.801,28.321 C 21.801,29.513 20.807,30.487 19.587,30.487 C 18.368,30.487 17.374,29.514 17.374,28.321 C 17.374,27.127 18.368,26.154 19.587,26.154 Z M 14.976,32.437 C 15.868,32.437 16.596,33.15 16.596,34.023 C 16.596,34.896 15.869,35.608 14.976,35.608 C 14.083,35.608 13.356,34.896 13.356,34.023 S 14.084,32.437 14.976,32.437 Z M 11,38 A 0.994,0.994 0 0,1 12,39 C 12,39.558 11.57,40 11,40 C 10.43,40 10,39.558 10,39 C 10,38.44 10.446,38.002 11,38 Z M 19.518,37.973 C 19.792,37.973 20.056,38.081 20.25,38.271 C 20.444,38.461 20.553,38.718 20.553,38.987 C 20.553,39.544 20.088,40 19.518,40 C 18.948,40 18.482,39.545 18.482,38.987 C 18.482,38.718 18.592,38.461 18.786,38.271 A 1.05,1.05 0 0,1 19.518,37.973 Z M 28,38 A 0.995,0.995 0 0,1 29,39 A 0.995,0.995 0 0,1 28,40 A 0.995,0.995 0 0,1 27,39 A 0.994,0.994 0 0,1 28,38 Z M 36.481,37.973 C 36.756,37.973 37.02,38.081 37.214,38.27 C 37.408,38.46 37.517,38.718 37.518,38.987 C 37.518,39.255 37.408,39.513 37.214,39.703 A 1.05,1.05 0 0,1 35.75,39.703 A 1.004,1.004 0 0,1 35.446,38.987 C 35.446,38.718 35.556,38.461 35.75,38.271 A 1.05,1.05 0 0,1 36.481,37.973 Z M 45,38 A 0.994,0.994 0 0,1 46,39 C 46,39.558 45.57,40 45,40 C 44.43,40 44,39.558 44,39 A 0.995,0.995 0 0,1 45,38 Z M 23.526,32.437 C 24.418,32.437 25.146,33.15 25.146,34.023 C 25.146,34.896 24.418,35.608 23.526,35.608 C 22.634,35.608 21.906,34.896 21.906,34.023 S 22.634,32.437 23.526,32.437 Z M 32.541,32.437 C 33.434,32.437 34.161,33.15 34.161,34.023 C 34.161,34.896 33.434,35.608 32.541,35.608 C 31.649,35.608 30.921,34.896 30.921,34.023 S 31.649,32.437 32.541,32.437 Z M 40.841,32.437 C 41.734,32.437 42.461,33.15 42.461,34.023 C 42.461,34.896 41.734,35.608 40.841,35.608 C 39.949,35.608 39.221,34.896 39.221,34.023 S 39.949,32.437 40.841,32.437 Z M 36.009,26.154 C 37.228,26.154 38.222,27.128 38.222,28.321 C 38.222,29.513 37.228,30.487 36.009,30.487 C 34.789,30.487 33.795,29.514 33.795,28.321 C 33.795,27.127 34.79,26.154 36.009,26.154 Z M 32.289,19.248 C 33.769,19.248 34.977,20.43 34.977,21.88 C 34.977,23.33 33.769,24.51 32.289,24.51 C 30.808,24.51 29.599,23.329 29.599,21.88 C 29.599,20.43 30.808,19.248 32.289,19.248 Z M 28,26.154 C 29.22,26.154 30.214,27.127 30.214,28.321 C 30.214,29.514 29.22,30.487 28,30.487 S 25.787,29.514 25.787,28.321 C 25.787,27.127 26.781,26.154 28,26.154 Z" fill="rgb(254, 254, 253)"/>
</svg>
