<?xml version="1.0" encoding="UTF-8"?>
<!-- generated by Finnhub -->
<svg viewBox="0 0 55.5 55.5" xmlns="http://www.w3.org/2000/svg">
<path d="M 0,0 H 55.5 V 55.5 H 0 Z" fill="rgb(239, 242, 248)"/>
<path d="M 25.049999999999997,11.205 C 24.81,11.33 24.4,11.74 24.15,12.13 C 23.65,12.91 23.5,12.92 23.34,12.17 C 23.2,11.57 23.09,11.54 22.61,12.06 C 22.36,12.33 22.24,12.66 22.24,13.15 C 22.24,13.66 22.15,13.91 21.9,14.09 C 21.7,14.23 21.37,14.59 21.15,14.89 L 20.75,15.44 L 20.63,14.99 A 2.14,2.14 0 0,1 20.63,14.12 C 20.73,13.75 20.68,13.7 20.27,13.7 A 0.8,0.8 0 0,0 19.57,14.07 L 19.34,14.44 L 19.1,13.98 C 18.84,13.48 18.37,13.37 18.37,13.81 C 18.37,13.96 18.03,14.49 17.61,14.98 C 16.61,16.16 16.61,17.1 17.62,16.33 C 18.15,15.93 18.54,16.01 18.54,16.51 C 18.54,16.83 18.47,16.93 18.29,16.86 C 18.15,16.81 17.99,16.84 17.94,16.93 C 17.89,17.02 17.7,17.09 17.52,17.09 C 17.28,17.09 17.19,17.21 17.19,17.51 C 17.19,17.75 17.13,17.94 17.06,17.93 C 16.8,17.93 16.46,17.61 16.41,17.33 C 16.29,16.47 15.57,16.63 15.25,17.61 C 15.11,18.01 14.94,18.21 14.66,18.25 C 13.93,18.35 13.48,18.78 13.48,19.35 C 13.48,19.65 13.54,19.8 13.61,19.7 C 13.68,19.6 14.01,19.55 14.36,19.6 C 14.93,19.66 15,19.73 15.1,20.28 C 15.18,20.68 15.15,20.91 15.02,20.95 C 14.92,20.99 14.83,21.16 14.83,21.35 C 14.83,21.61 14.71,21.67 14.18,21.67 C 13.45,21.67 12.98,21.27 12.98,20.67 C 12.98,20.31 12.95,20.32 12.3,20.85 C 11.66,21.38 11.62,21.45 11.71,22.08 C 11.77,22.45 11.89,22.84 11.98,22.95 C 12.16,23.17 11.93,23.42 11.38,23.6 C 11.19,23.66 10.78,23.92 10.48,24.18 C 10.04,24.54 9.93,24.74 10.01,25.01 C 10.09,25.26 10.22,25.34 10.46,25.27 C 10.7,25.21 10.79,25.27 10.79,25.53 C 10.79,25.93 10.03,26.48 9.68,26.35 C 9.52,26.28 9.44,26.37 9.44,26.62 C 9.44,26.82 9.32,27.12 9.18,27.27 C 8.82,27.67 9.01,28.31 9.66,28.95 C 9.94,29.23 10.22,29.46 10.28,29.46 C 10.34,29.46 10.52,29.19 10.68,28.85 L 10.98,28.23 L 11.55,28.8 C 11.87,29.1 12.13,29.5 12.13,29.68 C 12.13,29.86 12.36,30.2 12.64,30.45 S 13.14,30.98 13.14,31.09 C 13.14,31.19 13.29,31.41 13.47,31.57 C 13.72,31.8 13.95,31.85 14.48,31.76 C 15.1,31.66 15.62,31.33 15.18,31.33 C 15.08,31.33 15,31.06 15,30.73 C 15,30.33 15.08,30.14 15.24,30.14 C 15.37,30.14 15.53,29.99 15.59,29.81 C 15.67,29.54 15.83,29.49 16.44,29.51 C 17.09,29.55 17.19,29.6 17.19,29.93 C 17.19,30.14 17.11,30.31 17.02,30.31 C 16.62,30.31 16.88,30.96 17.36,31.16 C 17.64,31.28 17.86,31.48 17.86,31.61 C 17.86,31.75 17.79,31.81 17.7,31.76 C 17.6,31.7 17.49,31.85 17.43,32.09 C 17.37,32.33 17.22,32.5 17.1,32.48 C 16.81,32.42 16.78,32.52 16.92,32.98 C 17,33.23 17.22,33.38 17.6,33.46 C 18.38,33.6 18.8,33.44 19.64,32.66 C 20.06,32.27 20.5,32.01 20.67,32.04 C 21.05,32.11 21.39,32.5 21.4,32.9 C 21.4,33.3 21.54,33.27 21.92,32.81 C 22.09,32.61 22.23,32.19 22.24,31.89 C 22.24,31.38 22.28,31.35 22.94,31.29 C 23.88,31.23 23.93,30.94 23.09,30.44 C 22.72,30.22 22.45,29.99 22.5,29.94 C 22.55,29.89 22.52,29.54 22.44,29.14 C 22.3,28.54 22.32,28.44 22.57,28.44 C 22.72,28.44 23.02,28.3 23.21,28.11 C 23.93,27.44 24.35,27.81 24.17,28.94 C 24.11,29.37 24.13,29.47 24.24,29.29 C 24.36,29.11 24.62,29.05 25.15,29.09 L 25.89,29.16 L 26.09,30.71 C 26.43,33.33 25.76,36.76 24.71,37.74 C 24.2,38.23 22.02,38.92 20.64,39.04 C 19.04,39.18 17.54,39.62 17.34,40.02 C 17.1,40.46 17.21,40.52 17.84,40.3 C 18.3,40.14 18.59,40.17 19.72,40.55 C 20.45,40.79 21.22,40.99 21.44,40.99 C 22.07,40.99 23.1,41.34 23,41.51 C 22.84,41.77 20.67,41.7 19.86,41.41 C 18.83,41.03 16.67,41.06 16.39,41.45 A 1.2,1.2 0 0,0 16.18,41.83 C 16.18,41.88 16.78,41.9 17.52,41.87 C 18.7,41.82 19,41.87 19.84,42.27 C 21.24,42.91 22.31,43.05 23.69,42.77 C 24.82,42.52 25.66,41.97 25.86,41.34 C 25.91,41.2 26.1,40.98 26.29,40.86 C 26.59,40.67 26.75,40.74 27.69,41.46 C 29.2,42.63 30.27,42.93 32.43,42.8 C 33.36,42.74 34.37,42.61 34.66,42.51 C 35.09,42.36 35.41,42.39 36.31,42.66 L 37.43,43 L 37.37,42.65 C 37.34,42.45 37.11,42.14 36.85,41.95 C 36.45,41.65 36.14,41.59 34.99,41.6 C 34.24,41.6 33.46,41.63 33.28,41.65 C 32.78,41.73 30.85,41.35 30.33,41.08 C 29.86,40.83 28.91,39.82 29.03,39.7 C 29.07,39.66 29.37,39.75 29.71,39.89 C 30.11,40.06 30.87,40.15 31.89,40.15 C 33.79,40.15 35.39,40.55 37.35,41.53 C 38.7,42.2 40.27,42.57 40.27,42.22 C 40.27,42.12 39.7,41.77 39,41.44 C 38.3,41.11 37.4,40.58 37.02,40.27 C 35.95,39.43 34.44,38.99 32.32,38.91 C 31.32,38.87 30.4,38.75 30.27,38.64 C 29.73,38.19 29.17,36.17 29.03,34.11 C 28.9,32.26 29.03,31.72 29.84,30.83 C 31,29.57 31.39,28.96 31.5,28.31 C 31.58,27.79 31.67,27.68 32.06,27.63 C 32.49,27.58 32.51,27.61 32.41,28.14 C 32.36,28.44 32.21,28.87 32.08,29.08 C 31.79,29.54 31.78,29.84 32.04,30.1 C 32.15,30.21 32.25,30.7 32.27,31.18 C 32.29,31.88 32.38,32.11 32.71,32.37 C 32.93,32.54 33.15,32.68 33.2,32.68 C 33.25,32.68 33.4,32.36 33.54,31.97 C 33.76,31.31 33.84,31.24 34.42,31.19 C 34.97,31.15 35.05,31.19 35.05,31.51 C 35.05,31.77 34.97,31.85 34.79,31.77 C 34.62,31.71 34.46,31.82 34.34,32.1 C 34.17,32.48 34.2,32.59 34.56,32.95 C 34.97,33.36 35,33.37 35.71,33.11 C 36.11,32.97 36.65,32.86 36.91,32.86 C 37.16,32.86 37.45,32.75 37.56,32.62 C 37.71,32.43 37.66,32.31 37.31,32.02 C 36.77,31.6 36.84,31.02 37.41,31.32 C 37.65,31.46 37.74,31.46 37.74,31.32 S 37.81,31.17 37.95,31.29 C 38.07,31.39 38.58,31.43 39.09,31.39 C 39.79,31.34 40.09,31.23 40.29,30.96 C 40.62,30.52 40.89,30.82 40.59,31.31 C 40.41,31.58 40.43,31.77 40.69,32.34 C 40.86,32.73 41.11,33.1 41.24,33.18 C 41.44,33.28 41.45,33.38 41.28,33.7 C 41.1,34.04 41.11,34.08 41.35,33.99 C 41.5,33.93 42.12,33.83 42.72,33.77 C 43.52,33.68 43.86,33.57 43.98,33.35 C 44.24,32.86 44.18,32.71 43.56,32.31 C 42.88,31.86 42.83,31.73 43.3,31.58 C 43.49,31.52 43.64,31.33 43.64,31.15 C 43.64,30.93 43.76,30.82 43.98,30.82 C 44.16,30.82 44.31,30.72 44.32,30.61 C 44.32,30.44 44.35,30.44 44.45,30.61 C 44.56,30.78 44.69,30.75 45.03,30.49 C 45.27,30.29 45.53,30.14 45.6,30.14 C 45.68,30.14 45.74,29.74 45.72,29.25 C 45.71,28.48 45.65,28.35 45.35,28.31 C 44.9,28.24 44.89,28.08 45.33,27.68 C 45.63,27.4 45.7,27.39 45.84,27.61 C 45.98,27.81 46.08,27.76 46.42,27.35 C 46.85,26.82 47.1,26.28 46.96,26.15 C 46.92,26.1 46.67,26.15 46.41,26.25 C 45.88,26.45 45.08,26.33 45.24,26.07 C 45.3,25.97 45.15,25.9 44.91,25.9 C 44.65,25.9 44.48,25.8 44.48,25.66 C 44.48,25.53 44.31,25.4 44.1,25.36 C 43.72,25.31 43.43,24.55 43.8,24.55 C 43.9,24.55 44.14,24.38 44.34,24.18 C 44.68,23.84 44.72,23.84 44.91,24.11 C 45.06,24.31 45.16,24.34 45.24,24.21 C 45.32,24.08 45.46,24.13 45.69,24.37 C 46.22,24.94 46.48,24.82 46.33,24.08 C 46.14,23.11 46.03,22.93 45.44,22.71 C 44.71,22.44 44.3,22.1 44.24,21.73 C 44.22,21.56 43.99,21.37 43.72,21.3 C 43.46,21.23 43.18,21.07 43.11,20.95 C 43.02,20.81 42.97,20.8 42.97,20.93 C 42.97,21.03 42.68,21.17 42.33,21.23 C 41.99,21.3 41.53,21.47 41.3,21.61 C 40.93,21.85 40.88,21.84 40.55,21.51 C 40.1,21.06 40.3,20.67 41.1,20.4 C 41.4,20.3 41.72,20.08 41.8,19.92 C 41.9,19.76 42.2,19.52 42.47,19.37 C 42.77,19.22 42.97,18.98 42.97,18.77 C 42.97,18.48 42.91,18.47 42.62,18.62 C 42.26,18.82 41.71,18.52 41.04,17.79 C 40.68,17.39 40.27,17.31 40.27,17.66 C 40.27,17.91 39.74,18.45 39.48,18.45 S 38.93,17.68 39.09,17.42 C 39.27,17.13 38.93,16.64 38.29,16.24 C 37.87,15.99 37.79,15.84 37.87,15.45 C 37.92,15.19 38.03,14.88 38.11,14.77 C 38.29,14.55 37.55,14.33 36.78,14.38 C 36.03,14.43 35.58,14.21 35.47,13.73 L 35.36,13.28 L 34.76,13.93 C 34.15,14.61 33.87,14.66 34.2,14.03 C 34.47,13.54 34.3,13.13 33.88,13.27 C 33.65,13.34 33.49,13.27 33.37,13.03 C 33.15,12.63 32.86,12.57 32.86,12.93 C 32.86,13.4 32.51,13.38 32.42,12.9 C 32.33,12.47 32.2,12.38 31.12,12.06 C 30.05,11.76 29.85,11.74 29.45,11.95 C 29.19,12.08 28.98,12.25 28.98,12.35 C 28.98,12.44 28.83,12.51 28.65,12.51 C 28.43,12.51 28.28,12.36 28.21,12.08 C 28.11,11.7 28.04,11.67 27.53,11.76 C 27.07,11.86 26.81,11.78 26.29,11.43 A 5.05,5.05 0 0,0 25.57,11 L 25.07,11.22 Z M 30.41,17.84 C 30.25,18.27 30.04,18.62 29.95,18.62 C 29.83,18.62 29.15,18.21 28.66,17.82 C 28.46,17.67 29.1,17.26 29.55,17.26 C 29.84,17.26 30.19,17.18 30.32,17.1 C 30.71,16.85 30.72,17 30.41,17.84 Z M 33.91,17.71 C 34.24,17.91 33.98,18.27 33.45,18.37 C 32.81,18.49 31.34,18.33 31.35,18.14 C 31.35,17.79 32.31,17.45 33.03,17.54 C 33.44,17.59 33.84,17.67 33.91,17.71 Z M 26.03,19.96 C 26.08,20.04 26.35,20.16 26.63,20.23 C 27.35,20.39 27.43,20.75 26.88,21.33 C 26.62,21.6 26.45,21.93 26.5,22.05 C 26.55,22.18 26.45,22.46 26.29,22.68 L 25.99,23.08 L 25.69,22.5 C 25.52,22.18 25.29,21.52 25.18,21.03 C 24.99,20.24 25,20.13 25.25,19.98 C 25.61,19.77 25.9,19.76 26.03,19.96 Z M 21.06,20.13 C 21.2,20.23 21.27,20.32 21.23,20.35 L 20.43,21.04 C 19.66,21.72 19.38,21.82 19.38,21.41 C 19.38,21.27 19.18,21.06 18.96,20.96 C 18.44,20.72 18.43,20.6 18.92,20.26 C 19.33,19.96 20.67,19.89 21.06,20.13 Z M 24.02,21.41 C 24.14,21.88 24.4,22.63 24.59,23.08 C 24.79,23.53 24.94,24.01 24.94,24.14 C 24.94,24.56 24.42,24.4 23.81,23.79 C 23.49,23.46 23.27,23.19 23.33,23.19 C 23.39,23.19 23.36,23.05 23.26,22.87 C 23.16,22.67 23.13,22.11 23.2,21.5 C 23.33,20.2 23.7,20.16 24.02,21.41 Z M 32.69,22.23 C 32.69,22.68 32.54,22.93 32,23.42 C 31.23,24.12 31.13,24.15 30.84,23.79 C 30.67,23.59 30.7,23.45 30.99,23.09 C 31.42,22.53 31.42,22.49 30.99,22.04 L 30.65,21.67 H 32.69 V 22.23 Z M 18.53,22.85 C 18.52,23.48 17.4,24.17 16.87,23.88 C 16.39,23.62 16.14,23.23 16.25,22.89 C 16.33,22.63 16.52,22.58 17.45,22.59 C 18.3,22.59 18.54,22.65 18.53,22.85 Z M 21.53,22.96 C 21.63,23.67 19.64,24.42 19.43,23.76 C 19.39,23.65 19.53,23.53 19.75,23.5 C 19.96,23.47 20.15,23.33 20.15,23.2 C 20.2,22.52 20.23,22.5 20.85,22.55 C 21.35,22.59 21.5,22.68 21.54,22.96 Z M 33.86,23.94 C 33.96,24.07 34.45,24.23 34.93,24.29 C 37.03,24.54 36.98,24.52 37,25.07 C 37.02,25.51 36.94,25.59 36.39,25.74 C 36.04,25.84 35.71,26.04 35.65,26.18 C 35.57,26.4 35.5,26.41 35.3,26.24 C 35.1,26.08 35,26.08 34.8,26.24 S 34.5,26.31 34.17,25.74 C 33.96,25.37 33.67,25.06 33.52,25.06 C 33.13,25.06 32.79,24.24 33.04,23.94 C 33.29,23.64 33.6,23.64 33.86,23.94 Z M 17.6,25.85 C 17.96,26.02 18.2,26.25 18.2,26.45 C 18.2,26.71 18.05,26.75 17.19,26.75 C 16.27,26.75 16.18,26.72 16.18,26.39 C 16.18,26.06 16.59,25.59 16.88,25.57 C 16.95,25.57 17.28,25.69 17.6,25.85 Z M 14.61,26.65 C 14.69,26.78 14.9,26.91 15.08,26.95 C 15.52,27.03 15.61,27.55 15.25,27.95 C 15.09,28.12 14.91,28.25 14.85,28.25 C 14.79,28.23 14.52,28.32 14.25,28.43 C 13.68,28.66 13.35,28.58 13.2,28.15 A 1,1 0 0,0 12.92,27.75 C 12.69,27.59 13.24,26.77 13.7,26.58 C 14.24,26.37 14.46,26.38 14.61,26.65 Z M 30.29,27.52 C 30.51,27.69 29.15,29.63 28.81,29.63 C 28.74,29.63 28.65,29.37 28.61,29.05 C 28.56,28.63 28.63,28.39 28.86,28.19 C 29.04,28.04 29.14,27.81 29.09,27.69 C 29.04,27.56 29.09,27.42 29.2,27.37 C 29.38,27.31 30.16,27.41 30.3,27.52 Z M 28.48,27.85 C 28.48,27.99 28.36,28.11 28.22,28.11 A 0.25,0.25 0 0,1 28.22,27.6 C 28.36,27.6 28.48,27.71 28.48,27.85 Z M 25.35,39.23 C 25.57,39.32 25.55,39.4 25.15,39.74 C 24.75,40.09 24.52,40.14 23.42,40.13 C 22.72,40.12 21.97,40.05 21.74,39.99 C 21.38,39.88 21.47,39.83 22.33,39.65 L 23.93,39.3 C 24.7,39.12 25.03,39.1 25.35,39.23 Z" fill="url(#a)"/>
<defs>
<linearGradient id="a" x1="28" x2="28" y1="11" y2="43" gradientUnits="userSpaceOnUse">
<stop stop-color="rgb(201, 183, 108)" offset="0"/>
<stop stop-color="rgb(211, 202, 142)" offset=".55"/>
<stop stop-color="rgb(201, 182, 104)" offset="1"/>
</linearGradient>
</defs>
</svg>
