<?xml version="1.0" encoding="UTF-8"?>
<!-- generated by Finnhub -->
<svg viewBox="0 0 55.5 55.5" xmlns="http://www.w3.org/2000/svg">
<path d="M 0,0 H 55.5 V 55.5 H 0 Z" fill="rgb(33, 54, 87)"/>
<path d="M 14.985,28.463 A 4.497,4.497 0 1,1 6,28.478 A 4.497,4.497 0 0,1 14.995,28.478 Z M 15.004,31.628 A 5.497,5.497 0 1,1 15.004,25.33 V 23.5 A 0.5,0.5 0 0,1 16.004,23.5 V 33.5 A 0.5,0.5 0 1,1 15.004,33.5 V 31.627 Z" fill="rgb(254, 254, 253)" fill-rule="evenodd"/>
<path d="M 10.487,32.961 A 4.497,4.497 0 1,0 10.497,23.981 A 4.497,4.497 0 0,0 10.497,32.976 Z M 10.497,33.976 A 5.497,5.497 0 1,0 10.497,22.981 A 5.497,5.497 0 0,0 10.497,33.976 Z M 35.5,33 A 4.5,4.5 0 1,0 35.5,24 A 4.5,4.5 0 0,0 35.5,33 Z M 35.5,34 A 5.5,5.5 0 1,0 35.5,23 A 5.5,5.5 0 0,0 35.5,34 Z" fill="rgb(254, 254, 253)" fill-rule="evenodd"/>
<path d="M 18.142,23.125999999999998 A 0.5,0.5 0 0,1 18.859,23.152 L 24.044,28.5 L 18.859,33.848 A 0.5,0.5 0 1,1 18.141,33.152 L 22.651,28.5 L 18.141,23.848 A 0.5,0.5 0 0,1 18.152,23.141 Z" fill="rgb(249, 166, 71)"/>
<path d="M 28.84,23.125999999999998 A 0.5,0.5 0 0,0 28.142,23.152 L 24.288,27.128 L 25.006,27.824 L 28.86,23.848 A 0.5,0.5 0 0,0 28.85,23.141 Z M 28.86,33.152 L 25.006,29.176 L 24.288,29.872 L 28.142,33.848 A 0.5,0.5 0 1,0 28.86,33.152 Z M 45.893,23.056 C 47.316,22.919 48.484,23.563 49.137,24.478 A 0.5,0.5 0 0,1 48.323,25.059 C 47.868,24.422 47.041,23.95 45.989,24.052 C 45.441,24.105 44.949,24.282 44.598,24.576 C 44.259,24.858 44.024,25.267 44.001,25.863 C 43.981,26.427 44.213,26.884 44.637,27.25 C 45.073,27.627 45.712,27.902 46.457,28.04 C 47.437,28.223 48.228,28.51 48.792,28.965 C 49.379,29.44 49.682,30.069 49.729,30.831 C 49.771,31.517 49.599,32.294 49.077,32.919 C 48.545,33.555 47.701,33.975 46.518,34.03 C 44.63,34.118 43.468,33.205 43.086,32.633 A 0.5,0.5 0 0,1 43.918,32.078 C 44.103,32.356 44.931,33.103 46.472,33.031 C 47.432,32.987 47.992,32.659 48.309,32.278 C 48.636,31.888 48.761,31.38 48.731,30.893 C 48.699,30.388 48.516,30.028 48.163,29.743 C 47.787,29.439 47.185,29.193 46.274,29.024 C 45.412,28.864 44.591,28.532 43.984,28.007 C 43.364,27.472 42.968,26.735 43.002,25.825 C 43.035,24.948 43.4,24.272 43.958,23.807 C 44.502,23.353 45.202,23.123 45.893,23.057 Z" fill="rgb(254, 254, 253)"/>
</svg>
