<?xml version="1.0" encoding="UTF-8"?>
<!-- generated by Finnhub -->
<svg fill="none" viewBox="0 0 55.5 55.5" xmlns="http://www.w3.org/2000/svg">
<path d="M 0,0 H 55.5 V 55.5 H 0 Z" fill="url(#a)"/>
<path d="M 8.239,21.985 L 4,33 H 6.328 L 7.072,31 H 11.839 L 12.556,33 H 16.79 L 18.451,30.472 L 20.126,33 H 22.553 L 19.672,28.65 L 21.952,25 H 19.776 L 18.51,26.896 L 17.254,25 H 14.827 L 18.139,30 H 16.586 L 14.837,32.58 L 10.722,22 H 8.25 Z M 11.123,29 H 7.815 L 9.5,24.47 L 11.123,29 Z M 23,25 H 22 V 27 H 23 V 33 H 25 V 27 H 26 V 25 H 25 V 24.627 C 25,24.125 25.635,24 26.163,24 H 27 V 22 H 25.68 C 24.183,22 22.97,23.154 22.97,24.579 L 23,25 Z M 34,29 A 4,4 0 1,1 26,29 A 4,4 0 0,1 34,29 Z M 32,29 A 2,2 0 1,1 28,29 A 2,2 0 0,1 32,29 Z M 38.5,33 A 4,4 0 1,0 38.5,25 A 4,4 0 0,0 38.5,33 Z M 38.5,31 A 2,2 0 1,0 38.5,27 A 2,2 0 0,0 38.5,31 Z M 49,22 V 26.2 C 48.365,25.46 47.48,25 46.5,25 C 44.567,25 43,26.79 43,29 S 44.567,33 46.5,33 C 47.48,33 48.365,32.54 49,31.8 V 33 H 51 V 22 H 49 Z M 47,27 A 2,2 0 1,1 47,31 A 2,2 0 0,1 47,27 Z" clip-rule="evenodd" fill="rgb(254, 254, 253)" fill-rule="evenodd"/>
<defs>
<linearGradient id="a" x1="10.418" x2="68.147" y1="9.712" y2="76.017" gradientUnits="userSpaceOnUse">
<stop stop-color="rgb(25, 29, 31)" offset="0"/>
<stop stop-color="rgb(5, 5, 8)" offset="1"/>
</linearGradient>
</defs>
</svg>
