<?xml version="1.0" encoding="UTF-8"?>
<!-- generated by Finnhub -->
<svg viewBox="0 0 55.5 55.5" xmlns="http://www.w3.org/2000/svg">
<path d="M 0,0 H 55.5 V 55.5 H 0 Z" fill="rgb(239, 242, 248)"/>
<path d="M 12.99,13.985 L 20.5,28 L 13,42 H 16.9 L 22.5,31.46 L 23.4,33.16 L 18.74,42 H 23.02 L 25.53,37.32 L 28.05,42 L 30.56,37.32 L 33.08,42 H 37.49 L 27.24,22.66 H 27.19 L 28.09,20.93 L 28.99,22.66 L 39.26,42 H 43 L 35.5,28 L 43,14 H 39.01 L 33.51,24.4 L 32.61,22.66 L 37.2,14 H 33.02 L 30.51,18.68 L 28,14 L 25.48,18.68 L 22.97,14 H 18.65 L 28.76,33.1 H 28.81 L 27.91,34.84 L 27.01,33.1 L 16.83,14 H 13 Z" fill="rgb(4, 75, 149)"/>
</svg>
