<?xml version="1.0" encoding="UTF-8"?>
<!-- generated by Finnhub -->
<svg viewBox="0 0 55.5 55.5" xmlns="http://www.w3.org/2000/svg">
<path d="M 0,0 H 55.5 V 55.5 H 0 Z" fill="rgb(239, 242, 248)"/>
<path d="M 27.319999999999997,16.595 L 30.96,23.68 C 31.01,23.78 31.04,23.88 31.04,24 H 41.48 A 0.8,0.8 0 0,1 41.89,24.1 C 42.02,24.17 42.12,24.28 42.19,24.4 L 42.29,24.6 L 45.92,31.66 A 0.7,0.7 0 0,1 45.92,32.3 L 45.84,32.46 L 42.19,39.59 A 0.74,0.74 0 0,1 41.91,39.89 A 0.8,0.8 0 0,1 41.51,40 H 29.47 A 0.8,0.8 0 0,1 29.06,39.9 A 0.75,0.75 0 0,1 28.77,39.6 L 28.67,39.39 L 25.04,32.34 A 0.7,0.7 0 0,1 24.96,32 H 14.51 A 0.78,0.78 0 0,1 14.1,31.9 A 0.74,0.74 0 0,1 13.82,31.6 L 13.72,31.4 L 10.07,24.33 A 0.74,0.74 0 0,1 10.07,23.69 L 10.16,23.53 L 13.81,16.41 A 0.74,0.74 0 0,1 14.09,16.11 A 0.8,0.8 0 0,1 14.49,16 H 26.53 A 0.8,0.8 0 0,1 26.93,16.11 C 27.06,16.18 27.16,16.28 27.23,16.41 L 27.33,16.61 Z M 25.69,29.91 L 28.59,24.07 C 28.6,24.04 28.59,24.02 28.59,24 A 0.13,0.13 0 0,0 28.55,23.94 L 25.65,18.04 C 25.62,18 25.58,18 25.53,18 H 15.49 C 15.44,18 15.39,18 15.38,18.04 L 12.42,23.94 A 0.15,0.15 0 0,0 12.42,24.07 L 15.38,29.91 C 15.39,29.94 15.41,29.96 15.44,29.97 C 15.46,29.99 15.49,30 15.52,30 H 25.54 L 25.63,29.97 A 0.16,0.16 0 0,0 25.69,29.91 Z M 40.62,37.92 L 43.56,32.06 A 0.17,0.17 0 0,0 43.56,31.92 L 40.62,26.08 A 0.15,0.15 0 0,0 40.57,26.02 A 0.17,0.17 0 0,0 40.48,26 H 30.48 A 0.18,0.18 0 0,0 30.4,26.02 A 0.16,0.16 0 0,0 30.34,26.08 L 27.41,31.92 A 0.13,0.13 0 0,0 27.41,32.06 L 30.34,37.92 C 30.35,37.95 30.37,37.97 30.4,37.98 C 30.42,38 30.45,38 30.48,38 H 40.48 C 40.51,38 40.54,38 40.57,37.98 A 0.15,0.15 0 0,0 40.62,37.92 Z" fill="rgb(254, 170, 95)"/>
</svg>
