<?xml version="1.0" encoding="UTF-8"?>
<!-- generated by Finnhub -->
<svg viewBox="0 0 55.5 55.5" xmlns="http://www.w3.org/2000/svg">
<path d="M 0,0 H 55.5 V 55.5 H 0 Z" fill="rgb(239, 242, 248)"/>
<path d="M 27.99,43.985 A 16,16 0 1,0 28,12 A 16,16 0 0,0 28,44 Z M 28,45 A 17,17 0 1,0 28,11 A 17,17 0 0,0 28,45 Z" fill="url(#b)"/>
<circle cx="28" cy="28" r="16" fill="url(#a)"/>
<path d="M 21.84,15.405 A 14,14 0 0,0 14.71,32.42 L 21.85,15.42 Z M 17.44,37.19 A 13.97,13.97 0 0,0 38.72,37 H 22 L 26,30 H 21.5 L 23,26 H 32 L 27.5,34 H 40.65 C 40.81,33.67 40.95,33.34 41.08,33 H 29.5 L 34,25 H 26 L 24,21 L 17.44,37.19 Z M 41.96,29 H 36 L 40,21 H 28.5 L 24.99,14.33 A 14,14 0 0,1 41.97,29 Z" fill="rgb(39, 85, 146)"/>
<defs>
<linearGradient id="b" x1="28" x2="28" y1="11" y2="45" gradientUnits="userSpaceOnUse">
<stop stop-color="rgb(222, 223, 226)" offset="0"/>
<stop stop-color="rgb(100, 99, 103)" offset="1"/>
</linearGradient>
<linearGradient id="a" x1="28" x2="28" y1="12" y2="44" gradientUnits="userSpaceOnUse">
<stop stop-color="rgb(228, 237, 242)" offset="0"/>
<stop stop-color="rgb(245, 245, 246)" offset=".3"/>
<stop stop-color="rgb(207, 212, 214)" offset=".56"/>
<stop stop-color="rgb(147, 149, 152)" offset="1"/>
</linearGradient>
</defs>
</svg>
