<?xml version="1.0" encoding="UTF-8"?>
<!-- generated by Finnhub -->
<svg viewBox="0 0 55.5 55.5" xmlns="http://www.w3.org/2000/svg">
<path d="M 0,0 H 55.5 V 55.5 H 0 Z" fill="rgb(239, 242, 248)"/>
<circle cx="28" cy="28" r="17" fill="url(#a)"/>
<path d="M 27.99,40.985 A 13,13 0 1,0 28,15 A 13,13 0 0,0 28,41 Z M 39,28 A 11,11 0 0,0 17,28 H 21 C 21.17,24.1 24.24,21 28,21 S 34.83,24.1 35,28 H 39 Z M 38.82,30 A 11,11 0 0,1 17.18,30 H 38.82 Z M 33,28 A 5,5 0 0,0 23,28 H 33 Z" fill="rgb(163, 222, 253)" fill-rule="evenodd"/>
<defs>
<linearGradient id="a" x1="28" x2="28" y1="11" y2="45" gradientUnits="userSpaceOnUse">
<stop stop-color="rgb(251, 231, 2)" offset="0"/>
<stop stop-color="rgb(172, 19, 36)" offset="1"/>
</linearGradient>
</defs>
</svg>
