<?xml version="1.0" encoding="UTF-8"?>
<!-- generated by Finnhub -->
<svg fill="none" viewBox="0 0 55.5 55.5" xmlns="http://www.w3.org/2000/svg">
<rect width="56" height="56" fill="url(#a)"/>
<path d="M 14.846,37.969 L 14.7021,38.0245 C 14.6136,37.654 14.4504,37.2257 14.0541,37.2257 C 13.7418,37.2257 13.5553,37.5035 13.5553,37.8335 C 13.5553,38.1982 13.7557,38.395 14.1613,38.6439 C 14.6136,38.916 15.0005,39.2228 15.0005,39.8364 C 15.0005,40.4905 14.5529,40.9999 13.877,40.9999 C 13.6951,40.9999 13.5273,40.9652 13.4014,40.9131 C 13.2709,40.8668 13.187,40.8204 13.1357,40.7915 C 13.0937,40.6526 13.0285,40.1432 13.0005,39.819 L 13.1543,39.7611 C 13.2383,40.1316 13.4947,40.7741 13.9702,40.7741 C 14.2919,40.7741 14.4877,40.5136 14.4877,40.1142 C 14.4877,39.7322 14.2592,39.518 13.8956,39.2864 C 13.4807,39.0202 13.0844,38.7134 13.0844,38.1113 C 13.0844,37.4919 13.4807,36.9999 14.1287,36.9999 C 14.4038,36.9999 14.6462,37.0925 14.7721,37.1446 C 14.7907,37.3646 14.8187,37.6135 14.856,37.984 Z" fill="rgb(249, 249, 253)"/>
<path d="M 17.99,37.985 V 38.1707 C 17.6922,38.2219 17.6318,38.2731 17.4748,38.5917 C 17.3239,38.8933 17.1187,39.377 16.7264,40.2475 C 16.3099,41.175 16.1831,41.5277 16.0805,41.8464 C 16.0322,41.9716 15.9537,42 15.8632,42 C 15.6942,42 15.4648,41.8407 15.4648,41.6643 C 15.4648,41.5733 15.507,41.522 15.6217,41.4424 C 15.8511,41.3286 15.9839,41.2034 16.1167,40.9815 C 16.2012,40.8393 16.2435,40.7539 16.2676,40.6799 C 16.2978,40.5889 16.2857,40.5092 16.2495,40.4125 C 15.9598,39.6558 15.6459,38.8819 15.501,38.5633 C 15.3803,38.2902 15.3139,38.2162 15,38.1707 V 38 H 16.4125 V 38.1707 C 16.1469,38.2219 16.1046,38.2617 16.1771,38.4609 L 16.6841,39.8094 C 16.835,39.4623 17.0765,38.8364 17.1911,38.495 C 17.2575,38.2959 17.2093,38.2219 16.8893,38.1707 V 38 H 18 Z" fill="rgb(249, 249, 253)"/>
<path d="M 19.863999999999997,38.819 L 19.6911,38.885 C 19.5333,38.4964 19.3251,38.2353 19.0097,38.2353 C 18.8141,38.2353 18.6437,38.3945 18.6437,38.6238 C 18.6437,38.8595 18.8393,39.0123 19.1485,39.1461 C 19.6658,39.3563 20.0002,39.5856 20.0002,40.0697 C 20.0002,40.6875 19.4134,40.9996 18.8835,40.9996 C 18.5491,40.9996 18.221,40.8786 18.1011,40.783 C 18.057,40.6811 18.0002,40.2353 18.0002,39.9486 L 18.1769,39.9295 C 18.3093,40.3499 18.6059,40.7639 18.997,40.7639 C 19.2116,40.7639 19.3945,40.5983 19.3945,40.3754 C 19.3945,40.1461 19.2683,39.9932 18.9024,39.8149 C 18.5617,39.6557 18.0759,39.4264 18.0759,38.885 C 18.0759,38.4009 18.4797,37.9996 19.1169,37.9996 C 19.4071,37.9996 19.5775,38.0569 19.7226,38.1142 C 19.7857,38.2607 19.8551,38.6939 19.874,38.834 Z" fill="rgb(249, 249, 253)"/>
<path d="M 22.520999999999997,40.656 L 22.0294,40.921 C 21.9056,40.9736 21.8014,40.9999 21.7558,40.9999 C 21.2737,40.9999 21.0001,40.7499 21.0001,40.1775 V 38.2828 H 20.5636 L 20.531,38.2038 L 20.7199,37.9802 H 21.0001 V 37.4933 L 21.6255,36.9999 L 21.7167,37.0328 V 37.9802 H 22.4137 C 22.4854,38.0591 22.4724,38.2302 22.3681,38.2828 H 21.7167 V 39.9538 C 21.7167,40.4867 21.9512,40.5591 22.101,40.5591 C 22.2313,40.5591 22.3551,40.5131 22.4724,40.467 L 22.531,40.671 Z" fill="rgb(249, 249, 253)"/>
<path d="M 24.881999999999998,40.150999999999996 L 24.9796,40.3189 C 24.6549,40.8794 24.2632,41.0004 24.0673,41.0004 C 23.392,41.0004 23.0003,40.3635 23.0003,39.6182 C 23.0003,39.1533 23.1498,38.752 23.3714,38.4717 C 23.5982,38.1787 23.892,38.0004 24.1704,38.0004 H 24.1755 C 24.6394,38.0004 25.0054,38.4972 25.0002,39.0195 C 25.0002,39.1469 24.9693,39.217 24.8662,39.2424 C 24.7734,39.2552 24.1188,39.3189 23.557,39.3443 C 23.5724,40.115 23.923,40.4717 24.2992,40.4717 C 24.5054,40.4717 24.7064,40.3762 24.892,40.166 Z M 24.057,38.2552 H 24.0467 C 23.8353,38.2552 23.6343,38.5291 23.5776,39.0577 C 23.8302,39.0577 24.0673,39.0514 24.3199,39.0386 C 24.4075,39.0386 24.4384,39.0131 24.4384,38.9112 C 24.4384,38.58 24.2941,38.2552 24.057,38.2552 Z" fill="rgb(249, 249, 253)"/>
<path d="M 29.99,40.985 H 28.6206 V 40.8052 C 28.944,40.7662 29,40.7338 29,40.2987 V 39.1883 C 29,38.6688 28.7189,38.487 28.4391,38.487 C 28.2711,38.487 28.0784,38.5649 27.8545,38.7597 C 27.8607,38.8377 27.8669,38.9221 27.8669,39.0325 V 40.3312 C 27.8669,40.7273 27.9229,40.7597 28.2338,40.8052 V 41 H 26.8097 V 40.8052 C 27.1455,40.7597 27.1891,40.7338 27.1891,40.3312 V 39.1688 C 27.1891,38.6818 26.9963,38.4805 26.6915,38.4805 C 26.4988,38.4805 26.199,38.6039 26.0124,38.7532 V 40.3312 C 26.0124,40.7273 26.1629,40.7597 26.4366,40.8052 V 41 H 25 V 40.8052 C 25.3918,40.7597 25.4353,40.7338 25.4353,40.3117 V 38.9415 C 25.4353,38.539 25.4104,38.4935 25.0871,38.4415 V 38.2662 C 25.3669,38.2143 25.6517,38.1234 26,38 V 38.526 C 26.1368,38.4286 26.3806,38.3182 26.5423,38.2208 C 26.7289,38.0909 26.8905,38.0195 27.0771,38.0195 C 27.4129,38.0195 27.6741,38.2338 27.7985,38.5519 C 27.9664,38.4156 28.1343,38.3052 28.2836,38.2013 C 28.4328,38.0974 28.5945,38.0195 28.7749,38.0195 C 29.3097,38.0195 29.6144,38.3961 29.6144,39.0714 V 40.3247 C 29.6144,40.7338 29.6517,40.7532 30,40.8052 V 41 Z" fill="rgb(249, 249, 253)"/>
<path d="M 31.863999999999997,38.819 L 31.6911,38.885 C 31.5333,38.4964 31.3251,38.2353 31.0097,38.2353 C 30.8141,38.2353 30.6437,38.3945 30.6437,38.6238 C 30.6437,38.8595 30.8393,39.0123 31.1485,39.1461 C 31.6658,39.3563 32.0002,39.5856 32.0002,40.0697 C 32.0002,40.6875 31.4134,40.9996 30.8835,40.9996 C 30.5491,40.9996 30.221,40.8786 30.1011,40.783 C 30.057,40.6811 30.0002,40.2353 30.0002,39.9486 L 30.1769,39.9295 C 30.3093,40.3499 30.6059,40.7639 30.997,40.7639 C 31.2116,40.7639 31.3945,40.5983 31.3945,40.3754 C 31.3945,40.1461 31.2683,39.9932 30.9024,39.8149 C 30.5617,39.6557 30.0759,39.4264 30.0759,38.885 C 30.0759,38.4009 30.4797,37.9996 31.1169,37.9996 C 31.4071,37.9996 31.5775,38.0569 31.7226,38.1142 C 31.7857,38.2607 31.8551,38.6939 31.874,38.834 Z" fill="rgb(249, 249, 253)"/>
<path d="M 33.341,39.985 H 33.3569 C 33.6248,40 33.9998,40.3297 33.9998,40.8674 C 33.9998,41.4982 33.5177,41.8566 33.0712,42 L 32.9998,41.7563 C 33.3331,41.5914 33.5117,41.3907 33.5117,41.0896 C 33.5117,40.8387 33.345,40.638 33.095,40.5735 C 33.0653,40.5663 33.0117,40.4875 33.0117,40.3513 C 33.0117,40.1362 33.1784,40 33.351,40 Z" fill="rgb(249, 249, 253)"/>
<path d="M 36.383,40.985 H 34.393 V 40.8064 C 34.939,40.7579 35.0005,40.7216 35.0005,40.2012 V 37.8048 C 35.0005,37.2784 34.939,37.2421 34.393,37.2057 V 37 H 36.393 V 37.2057 C 35.8537,37.2421 35.7923,37.2784 35.7923,37.8048 V 40.2012 C 35.7923,40.7216 35.8537,40.7579 36.393,40.8064 V 41 Z" fill="rgb(249, 249, 253)"/>
<path d="M 39.99,40.985 H 38.7004 V 40.8052 C 38.9866,40.7597 39,40.7273 39,40.2532 V 39.1558 C 39,38.6948 38.8378,38.4805 38.5573,38.4805 C 38.374,38.4805 38.166,38.5974 38,38.7468 V 40.3052 C 38,40.7338 38.0344,40.7597 38.3206,40.8052 V 41 H 37 V 40.8052 C 37.3779,40.7468 37.4065,40.7273 37.4065,40.2857 V 38.9351 C 37.4065,38.526 37.3721,38.5 37.0802,38.4351 V 38.2662 C 37.3779,38.2143 37.6851,38.1169 38,38 V 38.5065 C 38.1145,38.4221 38.2767,38.3117 38.4141,38.2143 C 38.5916,38.0844 38.7176,38.0195 38.8836,38.0195 C 39.3473,38.0195 39.645,38.4026 39.645,39.0649 V 40.3052 C 39.645,40.7338 39.6794,40.7532 40,40.8052 V 41 Z" fill="rgb(249, 249, 253)"/>
<path d="M 41.898,40.150999999999996 L 42.0001,40.3189 C 41.7648,40.7201 41.417,41.0004 41.105,41.0004 C 40.4093,41.0004 40.0001,40.338 40.0001,39.6373 C 40.0001,39.1533 40.1894,38.7074 40.5321,38.3889 C 40.8441,38.0959 41.1817,38.0004 41.3709,38.0004 H 41.3761 C 41.5807,38.0004 41.7546,38.0768 41.8415,38.1724 C 41.9131,38.2361 41.9285,38.2998 41.9285,38.3889 C 41.9285,38.5482 41.8057,38.7138 41.7239,38.7138 C 41.6932,38.7138 41.6625,38.6883 41.6165,38.6437 C 41.4272,38.4272 41.2482,38.3316 41.0896,38.3316 C 40.8236,38.3316 40.5576,38.6182 40.5576,39.3061 C 40.5576,40.1787 41.064,40.4717 41.3147,40.4717 C 41.5397,40.4717 41.6932,40.4017 41.908,40.166 Z" fill="rgb(249, 249, 253)"/>
<circle cx="42.5" cy="40.5" r=".5" fill="rgb(249, 249, 253)"/>
<path d="M 41.1633,25.2361 V 25.3328 C 44.0036,25.7413 46,26.9939 46,29.6899 C 46,33.796 41.589,35 38.2419,35 H 32 V 34 C 34.0975,33.7821 34,33.7474 34,31.4054 V 20.5946 C 34,18.2526 33.9458,18.1634 32,18 V 17 H 39.3791 C 42.0747,17 45,17.918 45,21.112 C 45,23.7534 42.8664,24.8154 41.1733,25.2511 Z M 37,24.9788 H 37.8339 C 40.4874,24.9788 42,23.8351 42,21.5477 C 42,19.2874 40.6426,18 38.7473,18 C 37.5778,18 37,18.5201 37,19.6415 V 24.9788 Z M 37,25.9864 V 31.351 C 37,33.3661 37.7112,34.0272 39.2274,34 C 40.9458,33.9728 43,32.767 43,29.9622 C 43,27.2935 40.8412,25.9864 37.7834,25.9864 H 37 Z" fill="rgb(249, 249, 253)"/>
<path d="M 29.520999999999997,16.985 C 29.9167,18.13 30.216,18.9598 30.6005,20.0902 C 31.8606,23.7956 33.1267,27.5187 34.423,31.1622 L 34.4237,31.1642 C 34.8377,32.3587 35.1149,32.9678 35.4635,33.3202 C 35.7952,33.6554 36.2163,33.7814 37.0362,33.901 L 37.2501,33.9322 V 35.2505 H 29.7501 V 33.9373 L 29.9582,33.9019 C 30.3466,33.836 30.6405,33.7704 30.8599,33.6952 C 31.0811,33.6193 31.2024,33.5414 31.2692,33.4663 C 31.3829,33.3385 31.4129,33.1268 31.2364,32.5738 C 30.9511,31.6837 30.5514,30.5159 30.0812,29.2505 H 25.2849 C 25.1858,29.5581 25.0852,29.8654 24.9841,30.1741 C 24.7696,30.8287 24.5533,31.4891 24.3462,32.1708 C 24.1219,32.9038 24.1718,33.2126 24.354,33.3968 C 24.4576,33.5017 24.6308,33.597 24.915,33.6822 C 25.1974,33.7668 25.5648,33.8347 26.0349,33.9009 L 26.2501,33.9311 V 35.2505 H 19.7501 V 33.9352 L 19.9607,33.9015 C 21.6447,33.6327 22.0882,32.7543 22.6785,31.2108 L 27.9755,17.0848 L 29.531,17.001 Z" clip-rule="evenodd" fill="rgb(23, 26, 28)" fill-rule="evenodd"/>
<path d="M 36.99,34.985 H 30 V 34.1479 C 31.5681,33.8817 31.8228,33.5888 31.4744,32.497 C 31.1757,31.5651 30.7526,30.3314 30.2548,29 H 25.1025 C 24.7789,30.0118 24.4305,31.0325 24.1069,32.0976 C 23.6589,33.5621 24.1083,33.8817 26,34.1479 V 35 H 20 V 34.1479 C 21.6676,33.8817 22.0161,33.642 22.9122,31.2988 L 28.164,17.2928 L 29.284,16.9999 C 30.9019,21.7395 32.5198,26.5591 34.1874,31.2459 C 35.0088,33.6157 35.3572,33.9086 37,34.1482 V 35.0003 Z M 29.9259,28 L 27.7906,21.3136 C 27.0339,23.1435 25.7249,27.3219 25.4944,28 H 29.9259 Z" fill="rgb(249, 249, 253)"/>
<path d="M 19.1633,25.2361 V 25.3328 C 22.0036,25.7413 24,26.9939 24,29.6899 C 24,33.796 19.589,35 16.2419,35 H 10 V 34 C 12.0975,33.7821 12,33.7474 12,31.4054 V 20.5946 C 12,18.2526 11.9458,18.1634 10,18 V 17 H 17.3791 C 20.0747,17 23,17.918 23,21.112 C 23,23.7534 20.8664,24.8154 19.1733,25.2511 Z M 15,24.9788 H 15.8339 C 18.4874,24.9788 20,23.8351 20,21.5477 C 20,19.2874 18.6426,18 16.7473,18 C 15.5778,18 15,18.5201 15,19.6415 V 24.9788 Z M 15,25.9864 V 31.351 C 15,33.3661 15.7112,34.0272 17.2274,34 C 18.9458,33.9728 21,32.767 21,29.9622 C 21,27.2935 18.8412,25.9864 15.7834,25.9864 H 15 Z" fill="rgb(249, 249, 253)"/>
<defs>
<linearGradient id="a" x1="28" x2="28" y2="56" gradientUnits="userSpaceOnUse">
<stop stop-color="rgb(23, 26, 28)" offset="0"/>
<stop stop-color="rgb(23, 26, 28)" offset="1"/>
</linearGradient>
</defs>
</svg>
