<?xml version="1.0" encoding="UTF-8"?>
<!-- generated by Finnhub -->
<svg viewBox="0 0 55.5 55.5" xmlns="http://www.w3.org/2000/svg">
<path d="M 0,0 H 55.5 V 55.5 H 0 Z" fill="url(#c)"/>
<path d="M 16.994,7.985 C 16.091,8 15.654,9.158 16.325,9.797 L 35.411,28 L 36.421,27.038 C 43.522,20.263 38.887,8 29.224,8 H 17.004 Z" fill="url(#b)"/>
<path d="M 27.182,35.823 L 16.329,46.197 C 15.657,46.839 16.096,48 17.011,48 H 29.457 C 39.037,48 43.633,35.84 36.591,29.125 L 35.411,28 L 28.109,21.038 C 31.431,25.44 31.566,31.645 27.191,35.838 Z" fill="url(#a)"/>
<defs>
<linearGradient id="c" x1="10.418" x2="68.147" y1="9.712" y2="76.017" gradientUnits="userSpaceOnUse">
<stop stop-color="rgb(25, 29, 31)" offset="0"/>
<stop stop-color="rgb(5, 5, 8)" offset="1"/>
</linearGradient>
<linearGradient id="b" x1="16" x2="39.859" y1="18" y2="18" gradientUnits="userSpaceOnUse">
<stop stop-color="rgb(241, 91, 23)" offset="0"/>
<stop stop-color="rgb(250, 198, 5)" offset=".599"/>
</linearGradient>
<linearGradient id="a" x1="36.525" x2="22.535" y1="25.847" y2="50.325" gradientUnits="userSpaceOnUse">
<stop stop-color="rgb(27, 98, 181)" offset="0"/>
<stop stop-color="rgb(50, 188, 240)" offset=".515"/>
</linearGradient>
</defs>
</svg>
