<?xml version="1.0" encoding="UTF-8"?>
<!-- generated by Finnhub -->
<svg viewBox="0 0 55.5 55.5" xmlns="http://www.w3.org/2000/svg">
<path d="M 0,0 H 55.5 V 55.5 H 0 Z" fill="rgb(1, 44, 96)"/>
<path d="M 12.75,25.985 C 12.696,26 12.5,26.083 12.5,26.229 C 12.5,26.514 12.872,26.342 12.994,26.469 C 13.074,26.552 13.123,26.756 13.067,27.004 C 12.994,27.326 11.762,32.024 11.654,32.329 C 11.546,32.635 11.325,32.67 11.166,32.67 C 11.011,32.67 10.836,32.906 11.024,33 C 11.07,33.02 15.112,33.016 15.236,32.994 C 15.92,32.884 16.657,32.726 17.162,32.108 C 17.712,31.435 17.922,30.441 17.542,29.914 C 17.35,29.646 16.54,29.246 16.54,29.246 S 17.268,29.029 17.596,28.7 C 18.002,28.292 18.166,27.674 18.165,27.34 C 18.165,26.305 16.815,26 15.982,26 H 12.76 Z M 15.767,26.82 A 0.845,0.845 0 0,1 16.146,27.491 C 16.146,27.713 16.146,28.097 15.917,28.326 C 15.791,28.499 15.044,29.014 14.837,29.014 C 14.681,29.014 14.758,28.837 14.781,28.754 C 14.911,28.278 15.035,27.81 15.151,27.326 C 15.231,26.993 15.29,26.512 15.767,26.819 Z M 15.033,29.73 C 15.496,29.792 15.73,30.268 15.745,30.678 C 15.795,32.08 14.15,32.329 13.942,32.355 C 13.906,32.355 13.764,32.322 13.797,32.255 C 13.974,31.871 14.207,30.927 14.207,30.927 S 14.453,29.785 14.588,29.715 C 14.723,29.645 14.895,29.71 15.033,29.729 Z M 33.537,26 C 33.475,26 33.421,26.107 33.475,26.198 C 33.478,26.206 33.927,26.321 33.931,26.321 C 34.129,26.321 34.281,26.535 34.272,26.716 C 34.272,26.964 33.639,29.249 33.639,29.249 S 32.795,31.747 32.452,32.566 A 0.753,0.753 0 0,1 31.902,32.779 C 31.739,32.779 31.689,32.798 31.666,32.869 C 31.649,32.926 31.68,32.957 31.712,33 H 33.082 C 34.438,33 34.45,33 34.485,32.968 A 0.104,0.104 0 0,0 34.484,32.814 C 34.403,32.737 34.269,32.811 34.176,32.764 C 34.045,32.692 33.921,32.626 33.89,32.467 C 33.723,31.7 34.749,29.493 34.749,29.493 C 35.295,29.493 35.844,29.476 36.387,29.55 C 36.602,29.583 36.669,29.89 36.669,30.055 C 36.669,30.219 36.671,30.232 36.707,30.265 C 36.77,30.323 36.827,30.306 36.877,30.211 L 37.411,28.262 C 37.411,28.134 37.239,28.082 37.171,28.192 C 36.781,28.847 36.337,28.988 35.555,28.985 H 34.835 L 35.091,27.745 C 35.212,27.258 35.489,26.625 35.489,26.625 C 35.502,26.61 35.711,26.605 36.442,26.605 C 36.966,26.605 37.382,26.611 37.386,26.619 C 37.664,26.619 37.846,26.737 37.971,27.087 C 38.011,27.189 38.058,27.331 38.058,27.442 C 38.058,27.546 38.076,27.568 38.154,27.568 C 38.241,27.568 38.276,27.461 38.284,27.386 C 38.31,27.143 38.464,26.051 38.464,26.051 L 38.412,26 H 36.595 C 35.871,26 35.147,25.997 34.424,26 H 33.537 Z M 38.914,26.293 C 38.59,26.581 38.572,27.283 39.124,27.283 C 39.42,27.283 39.652,26.966 39.652,26.684 A 0.537,0.537 0 0,0 39.565,26.432 C 39.422,26.228 39.126,26.11 38.914,26.292 Z M 47.637,26.525 C 47.417,26.647 47.295,27.097 47.13,27.312 A 3.048,3.048 0 0,1 46.013,28.234 A 0.444,0.444 0 0,0 45.822,28.439 C 45.728,28.701 46.422,28.608 46.563,28.625 C 46.646,28.625 45.697,30.721 45.697,32.102 C 45.697,32.389 45.654,32.961 46.06,33 C 46.499,33.042 46.88,32.919 47.291,32.402 C 47.345,32.334 47.509,32.084 47.539,31.936 C 47.549,31.878 47.457,31.778 47.4,31.813 C 47.18,31.936 46.828,32.628 46.499,32.334 C 45.935,31.864 47.128,29.367 47.315,28.641 C 47.331,28.628 47.42,28.624 47.621,28.625 C 48.031,28.627 48.15,28.199 47.772,28.199 C 47.474,28.199 47.463,28.194 47.514,28.082 C 47.69,27.676 47.83,27.172 47.895,26.736 C 47.92,26.564 47.815,26.429 47.637,26.525 Z M 23.654,28.682 C 23.607,28.725 23.602,28.737 23.602,28.819 C 23.602,28.993 23.856,28.944 23.987,28.952 C 24.053,29.048 24.046,29.089 24.034,29.196 C 24.034,29.196 23.602,31.24 23.034,33 L 23.817,33.003 C 24.247,33.006 24.607,33.003 24.615,32.998 C 24.623,32.994 24.956,31.713 25.055,31.409 C 25.155,31.105 25.581,30.371 25.871,30.039 C 26.01,29.88 26.136,29.748 26.285,29.599 C 26.376,29.507 26.632,29.288 26.735,29.402 C 26.815,29.495 26.625,30.039 26.577,30.191 C 26.577,30.191 26.059,31.807 26.023,32.32 C 25.926,33.612 28.13,32.89 28.497,32.156 C 28.567,32.028 28.729,31.674 28.453,31.674 C 28.296,31.674 28.021,32.168 27.772,32.198 C 27.725,32.245 28.1,30.973 28.12,30.85 C 28.232,30.182 28.573,29.59 28.573,28.88 A 0.746,0.746 0 0,0 27.808,28.123 C 26.742,28.123 25.572,29.654 25.572,29.654 C 25.558,29.654 25.69,28.456 25.89,28.336 C 25.914,28.322 25.91,28.183 25.884,28.15 C 25.664,27.89 23.829,28.514 23.654,28.682 Z M 17.864,31.334 C 17.887,32.382 18.208,32.701 18.86,32.807 C 19.744,32.952 20.433,32.057 20.496,31.927 C 20.496,31.927 20.539,32.287 20.544,32.297 C 20.714,33.602 22.484,32.563 23.007,32.018 C 23.07,32.018 23.113,31.67 23.057,31.608 C 22.884,31.416 22.284,32.298 22.328,31.799 C 22.423,30.592 23.191,29.454 23.307,28.201 C 23.321,28.047 21.76,27.837 21.62,28.117 C 21.61,28.135 21.545,28.278 21.53,28.278 C 21.387,28.278 21.205,27.958 21.022,27.91 C 19.425,27.504 17.833,29.993 17.864,31.334 Z M 21.192,28.709 C 21.752,28.957 20.754,30.669 20.618,30.941 C 20.524,31.136 19.956,31.823 19.691,31.695 C 19.423,31.561 19.566,30.952 19.669,30.718 C 19.927,30.138 20.142,29.596 20.482,29.078 C 20.655,28.821 20.883,28.616 21.192,28.708 Z" fill="rgb(254, 254, 253)"/>
<path d="M 30.465,28.459 A 3.12,3.12 0 0,0 28.73,30.802 C 28.632,31.387 28.555,31.914 28.883,32.314 C 29.949,33.615 31.503,32.914 32.209,32 C 32.332,31.85 32.475,31.608 32.531,31.42 C 32.565,31.323 32.481,31.194 32.372,31.253 C 32.258,31.319 32.158,31.477 32.077,31.582 C 31.883,31.829 31.492,32.05 31.377,32.05 C 30.107,32.152 30.301,30.754 30.475,29.886 C 30.573,29.396 31.178,28.639 31.652,28.712 C 31.784,28.732 31.587,29.267 31.582,29.396 C 31.572,29.606 31.781,29.814 32.074,29.814 C 32.652,29.814 33.113,29.688 33.142,29.02 C 33.165,28.3 32.65,28.283 32.274,28.222 C 31.878,28.215 31.116,28.17 30.475,28.474 Z M 37.676,28.417 C 37.643,28.448 37.616,28.483 37.616,28.493 C 37.616,28.537 37.774,28.584 37.798,28.546 C 37.848,28.447 38.194,28.607 38.161,28.758 C 38.129,28.941 38.05,29.193 38.009,29.337 C 37.84,29.917 37.49,31.521 37.49,31.521 S 36.923,33 37.89,33 C 38.402,33 38.71,32.557 38.966,32.18 C 39.006,32.119 39.189,31.753 38.996,31.753 C 38.885,31.753 38.2,32.656 38.2,32.162 C 38.436,31.33 39.015,28.767 39.015,28.767 C 39.071,28.611 39.28,28.189 39.171,28.073 A 0.323,0.323 0 0,0 39.046,27.994 C 38.744,27.994 37.881,28.219 37.676,28.417 Z M 41.91,28.223 C 41.825,28.307 40.883,29.392 40.879,29.388 C 40.842,29.36 41.137,28.514 41.147,28.455 C 41.165,28.347 41.307,28.073 41.081,28.073 C 40.624,28.073 40.245,28.409 39.794,28.491 C 39.648,28.517 39.577,28.599 39.627,28.736 C 39.827,28.736 40.173,28.669 40.151,28.963 C 40.126,29.234 40.023,29.468 39.991,29.73 L 39.221,32.934 C 39.168,32.992 39.209,33 39.605,33 H 39.979 S 40.338,30.98 40.756,30.145 C 40.824,30.001 41.862,28.837 41.862,29.067 C 41.862,29.592 42.699,29.443 42.712,28.924 C 42.729,28.27 42.159,27.974 41.909,28.223 Z M 43.304,28.466 C 43.099,28.646 43.017,28.828 42.918,29.066 C 42.589,29.853 43.618,30.88 44.111,31.373 C 44.58,31.842 44.209,32.667 43.543,32.667 C 43.023,32.667 42.689,32.155 42.681,31.687 C 42.676,31.324 42.581,31.16 42.455,31.292 C 42.373,31.38 42.017,32.43 42.173,32.43 C 42.396,32.43 42.653,32.835 42.864,32.951 C 43.129,33.104 43.741,33.102 43.993,33 C 44.592,32.748 44.984,32.472 45.083,31.805 C 45.129,31.543 45.096,31.092 44.876,30.892 C 44.509,30.557 43.416,29.409 43.689,28.832 C 43.843,28.494 44.41,28.445 44.682,28.652 C 44.898,28.822 45.097,29.104 45.097,29.382 C 45.097,29.45 45.155,29.795 45.275,29.705 C 45.374,29.63 45.734,28.531 45.595,28.531 C 44.705,28.531 44.099,27.727 43.305,28.466 Z" fill="rgb(254, 254, 253)"/>
<path d="M 7.99,19.985 H 45 V 24.868 S 45.375,26.859 45.4,27.638 A 4.91,4.91 0 0,1 45.402,27.96 V 27.99 L 45.4,28 L 44.629,27.984 V 27.947 A 11.172,11.172 0 0,0 44.629,27.663 C 44.613,27.177 44.437,26.548 44.251,26.016 C 44.179,25.811 43.999,25.034 43.999,25.034 L 44.003,21 H 9 V 23 H 20 V 27.65 H 19 V 24 H 8 V 20 Z M 19,35 V 33 H 20 V 35 S 20.06,35.087 20.166,35.248 C 20.349,35.521 20.622,35.886 20.986,36.25 C 21.073,36.336 21.185,36.372 21.364,36.355 C 21.556,36.337 21.775,36.261 22.017,36.165 L 22.129,36.119 C 22.209,36.086 22.289,36.053 22.363,36.026 C 22.471,35.985 22.596,35.942 22.716,35.924 A 0.62,0.62 0 0,1 23.193,36.025 C 23.377,36.165 23.413,36.375 23.413,36.522 C 23.413,36.635 23.407,36.732 23.399,36.813 L 23.392,36.889 A 2.402,2.402 0 0,0 23.383,36.999 A 0.304,0.304 0 0,0 23.383,37.061 L 23.385,37.062 C 23.401,37.084 23.465,37.148 23.692,37.264 C 23.91,37.375 24.232,37.514 24.714,37.707 C 25.162,37.887 25.433,37.913 25.612,37.893 C 25.788,37.873 25.919,37.804 26.102,37.69 L 26.162,37.652 C 26.332,37.544 26.557,37.402 26.848,37.316 C 27.185,37.216 27.588,37.196 28.118,37.301 C 28.649,37.407 29.02,37.619 29.18,37.983 C 29.32,38.306 29.236,38.643 29.192,38.821 L 29.184,38.85 A 7.183,7.183 0 0,0 29.174,38.895 C 29.254,38.889 29.363,38.874 29.51,38.845 A 12.91,12.91 0 0,1 32.594,38.596 C 33.584,38.646 34.535,38.844 35.2,39.287 C 36.262,39.995 37.201,39.933 37.8,39.335 C 38.448,38.687 39.175,38.673 39.608,38.807 C 39.992,38.666 40.676,38.55 41.33,38.877 C 41.46,38.942 41.626,38.925 41.851,38.776 C 42.074,38.628 42.271,38.4 42.38,38.237 L 42.553,37.977 L 42.844,38.093 C 43.184,38.229 43.694,38.473 44.125,38.77 C 44.34,38.918 44.551,39.09 44.712,39.279 C 44.869,39.462 45.015,39.707 45.015,39.994 V 33 H 46 V 40.5 L 45.574,40.725 C 45.414,40.805 45.124,40.906 44.836,40.843 A 0.712,0.712 0 0,1 44.397,40.553 A 0.963,0.963 0 0,1 44.244,39.994 C 44.244,39.972 44.23,39.902 44.124,39.779 C 44.024,39.661 43.874,39.533 43.688,39.405 A 6.003,6.003 0 0,0 42.825,38.925 C 42.679,39.095 42.492,39.276 42.278,39.419 C 41.95,39.636 41.474,39.812 40.985,39.568 C 40.515,39.332 39.981,39.471 39.787,39.568 L 39.615,39.654 L 39.442,39.567 C 39.314,39.503 38.83,39.396 38.345,39.881 C 37.4,40.826 36.025,40.764 34.772,39.929 C 34.28,39.601 33.495,39.414 32.556,39.367 A 12.138,12.138 0 0,0 29.661,39.601 C 29.409,39.651 29.198,39.676 29.026,39.668 C 28.862,39.66 28.656,39.618 28.512,39.452 A 0.626,0.626 0 0,1 28.374,38.969 A 2.043,2.043 0 0,1 28.44,38.647 C 28.493,38.435 28.497,38.347 28.473,38.292 C 28.463,38.27 28.4,38.144 27.967,38.058 C 27.533,37.971 27.261,37.998 27.067,38.055 C 26.884,38.109 26.75,38.194 26.573,38.305 L 26.511,38.345 C 26.309,38.471 26.054,38.619 25.699,38.66 C 25.349,38.7 24.944,38.63 24.428,38.423 A 13.712,13.712 0 0,1 23.34,37.95 C 23.096,37.825 22.896,37.696 22.767,37.525 A 0.821,0.821 0 0,1 22.613,36.961 A 3.765,3.765 0 0,1 22.63,36.749 L 22.433,36.828 L 22.303,36.88 C 22.063,36.977 21.751,37.093 21.437,37.123 C 21.11,37.154 20.74,37.094 20.441,36.795 A 7.417,7.417 0 0,1 19.525,35.675 C 19.357,35.426 19,35 19,35 Z M 22.642,36.512 V 36.51 V 36.512 Z" fill="rgb(254, 254, 253)"/>
</svg>
