<?xml version="1.0" encoding="UTF-8"?>
<!-- generated by Finnhub -->
<svg viewBox="0 0 55.5 55.5" xmlns="http://www.w3.org/2000/svg">
<path d="M 0,0 H 55.5 V 55.5 H 0 Z" fill="rgb(239, 242, 248)"/>
<path d="M 33.410000000000004,11.985 H 16 V 44 H 33.5 A 9.5,9.5 0 0,0 39.06,26.8 A 8.47,8.47 0 0,0 33.43,12 Z" fill="rgb(16, 51, 88)"/>
<path d="M 34.86,30.785 A 6.5,6.5 0 0,1 28.31,37.25 A 6.5,6.5 0 0,1 21.76,30.8 C 21.76,27.24 25.1,26.3 28.31,18.9 C 31.08,25.73 34.87,27.24 34.87,30.8 Z" fill="url(#a)"/>
<path d="M 24.569999999999997,33.765 C 21.76,30.91 23.64,28.04 24.94,26.97 C 22.88,29.89 24.44,32.07 25.49,32.81 C 25.71,33.01 26.08,33.55 25.73,34.01 C 25.38,34.48 24.82,34.05 24.58,33.78 Z" fill="rgb(16, 51, 88)"/>
<defs>
<linearGradient id="a" x1="25.82" x2="31.86" y1="22.42" y2="36.12" gradientUnits="userSpaceOnUse">
<stop stop-color="rgb(198, 145, 21)" offset="0"/>
<stop stop-color="rgb(224, 182, 29)" offset=".19"/>
<stop stop-color="rgb(156, 95, 33)" offset=".8"/>
<stop stop-color="rgb(203, 144, 29)" offset="1"/>
</linearGradient>
</defs>
</svg>
