<?xml version="1.0" encoding="UTF-8"?>
<!-- generated by Finnhub -->
<svg viewBox="0 0 55.5 55.5" xmlns="http://www.w3.org/2000/svg">
<path d="M 0,0 H 55.5 V 55.5 H 0 Z" fill="rgb(1, 174, 213)"/>
<path d="M 6.99,20.215 V 36 C 7.53,35.97 8.13,35.98 8.71,36 H 9.52 C 11.29,36 12.58,35.6 13.49,34.95 A 3.5,3.5 0 0,0 14.99,31.62 C 14.77,28.29 10.91,27.88 10.91,27.88 H 10.81 S 14.35,27.24 14.45,24.15 A 3.87,3.87 0 0,0 13.59,21.4 C 12.84,20.53 11.56,20.06 9.89,20 H 9.79 C 8.99,20 7.75,20.12 7,20.23 Z M 48.1,29.89 A 9.7,9.7 0 0,0 47.71,31.26 L 51.32,32.63 C 51.38,32.46 51.44,32.29 51.49,32.06 C 51.66,31.6 51.83,30.97 51.89,30.69 L 48.11,29.89 Z M 46.81,28.97 A 8.5,8.5 0 0,1 46.02,27.54 V 27.49 H 46.08 C 47.09,26.91 48.11,26.29 49.07,25.6 C 49.74,25.14 50.42,24.69 51.1,24.29 H 51.15 V 24.34 C 51.26,24.53 51.39,24.84 51.53,25.19 L 51.77,25.77 C 51.84,25.91 51.89,26.04 51.93,26.15 L 52,26.35 V 26.4 H 51.94 C 50.99,26.91 49.97,27.43 48.95,27.94 C 48.28,28.23 47.55,28.57 46.81,28.97 Z M 39.8,36 H 36 V 20 H 39 V 23.87 L 46.6,21.52 L 48,23.92 C 45.03,26.22 40.72,29.44 40.72,29.44 L 40.66,29.49 L 40.72,29.55 C 40.92,29.7 43.74,31.49 46.22,33.07 H 46.23 L 47.71,34.01 L 46.14,36 L 39.44,33.07 V 33.19 C 39.44,33.25 39.5,34.42 39.79,36 Z M 22.6,20 C 23.28,25.09 24.29,31.94 25.36,35.94 L 22.2,36 A 115.7,115.7 0 0,1 20.96,30.51 V 30.46 L 19.39,30.74 L 18.44,36 H 15.34 C 16.24,31.6 17.48,24.91 18.1,20 H 22.6 Z M 29.17,29.71 C 29.57,30.46 31.65,34.23 33.34,35.94 L 35.77,34.46 A 29.51,29.51 0 0,1 32.22,28.63 V 28.57 H 32.27 L 32.44,28.4 A 4.7,4.7 0 0,0 34.36,24.63 C 34.36,20.8 31.2,20 28.78,20 H 26 V 36 H 29 V 29.71 H 29.16 Z" fill="rgb(254, 254, 253)"/>
</svg>
