<?xml version="1.0" encoding="UTF-8"?>
<!-- generated by Finnhub -->
<svg viewBox="0 0 55.5 55.5" xmlns="http://www.w3.org/2000/svg">
<path d="M 0,0 H 55.5 V 55.5 H 0 Z" fill="rgb(239, 242, 248)"/>
<path d="M 23.639999999999997,14.985 L 21.75,20 H 11 L 13.88,15 H 23.65 Z M 30.48,15 C 33.84,15 37.57,15 40.23,15.18 C 43.77,15.67 46.39,17.82 45.95,21.77 C 45.49,25.93 40.87,28.4 37.62,30.02 A 0.12,0.12 0 0,0 37.56,30.09 A 0.13,0.13 0 0,0 37.56,30.19 C 37.88,30.82 38.16,31.45 38.42,32.09 C 39.78,35.54 38.66,38.71 35.51,40.47 A 21.6,21.6 0 0,1 25.2,43 H 14 L 15.47,38.76 C 15.5,38.7 15.47,38.64 15.42,38.6 L 14.22,37.73 C 14.17,37.68 14.17,37.64 14.22,37.6 L 16.34,36 C 16.4,35.97 16.44,35.9 16.46,35.84 L 17.52,32.76 C 17.54,32.69 17.52,32.63 17.46,32.59 L 16.31,31.71 A 0.11,0.11 0 0,1 16.31,31.53 L 18.41,29.96 C 18.47,29.91 18.51,29.86 18.54,29.79 L 19.53,26.91 C 19.55,26.84 19.53,26.79 19.48,26.75 L 18.24,25.82 C 18.18,25.78 18.18,25.72 18.24,25.68 L 20.44,24.04 C 20.49,23.99 20.54,23.94 20.56,23.87 L 20.9,23 H 27.82 L 27.31,24.47 C 27.28,24.54 27.3,24.59 27.36,24.64 L 28.54,25.54 C 28.59,25.58 28.59,25.62 28.54,25.66 L 26.41,27.24 C 26.36,27.29 26.31,27.34 26.29,27.41 L 25.17,30.63 C 25.15,30.7 25.17,30.76 25.22,30.8 L 26.35,31.65 A 0.07,0.07 0 0,1 26.38,31.71 A 0.07,0.07 0 0,1 26.35,31.77 L 24.33,33.29 C 24.27,33.33 24.23,33.39 24.21,33.46 L 23.21,36.34 C 23.19,36.42 23.21,36.48 23.27,36.54 L 24.47,37.44 C 24.52,37.48 24.52,37.52 24.47,37.56 C 23.77,38.1 23.07,38.63 22.36,39.14 C 22.16,39.29 22.07,39.5 22.11,39.78 C 22.12,39.84 22.16,39.88 22.22,39.87 C 25.04,39.79 31.27,39.74 32.17,36.02 C 32.56,34.42 31.85,33.57 31.13,32.24 C 30.43,30.93 30.94,30.08 32.13,29.47 C 34.06,28.47 35.4,27.78 36.76,26.51 C 38.59,24.81 39.12,21.32 36.23,20.26 A 7.49,7.49 0 0,0 33.83,20 H 28.63 L 30.48,15 Z" fill="rgb(7, 5, 3)"/>
<path d="M 28.369999999999997,20.985 H 21.24 L 23.94,14 H 30.92 L 28.38,21 Z" fill="rgb(190, 144, 43)"/>
</svg>
