<?xml version="1.0" encoding="UTF-8"?>
<!-- generated by Finnhub -->
<svg viewBox="0 0 55.5 55.5" xmlns="http://www.w3.org/2000/svg">
<path d="M 0,0 H 55.5 V 55.5 H 0 Z" fill="rgb(239, 242, 248)"/>
<path d="M 38.99,14.985 H 33 L 28,10 L 23,15 H 17 V 21.25 L 10,28 L 17,34.75 V 41 H 23 L 28,46 L 33,41 H 39 V 34.75 L 46,28 L 39,21.25 V 15 Z M 44.1,27.52 L 39,22.58 V 27.52 H 44.1 Z M 38,26.64 L 36.46,28 L 38,29.36 V 26.64 Z M 39,28.48 V 33.42 L 44.1,28.48 H 39 Z M 35,28 L 38,25.33 V 16 H 36 V 25.08 L 33.11,28 L 36,30.92 V 40 H 38 V 30.67 L 35,28 Z M 32.24,28.48 H 23.76 L 21,31.32 V 40 H 23 V 32.5 L 25,30 H 31 L 33,32.5 V 40 H 35 V 31.32 L 32.24,28.48 Z M 23.76,27.52 H 32.24 L 35,24.68 V 16 H 33 V 23.5 L 31.05,26 H 24.95 L 23,23.5 V 16 H 21 V 24.68 L 23.76,27.52 Z M 22.89,28 L 20,30.92 V 40 H 18 V 30.67 L 21,28 L 18,25.33 V 16 H 20 V 25.08 L 22.89,28 Z M 19.54,28 L 18,26.64 V 29.36 L 19.54,28 Z M 17,28.48 H 11.9 L 17,33.42 V 28.48 Z M 17,27.52 V 22.58 L 11.9,27.52 H 17 Z M 32,23.32 L 30.65,25 H 25.35 L 23.96,23.32 L 28,19.51 L 32,23.32 Z M 27.52,11.86 V 18.65 L 23.96,22.25 V 15.68 L 27.52,11.86 Z M 32.04,22.24 L 28.48,18.64 V 11.86 L 32.04,15.68 V 22.24 Z M 32,32.68 L 30.65,31 H 25.35 L 24,32.68 L 28,36.49 L 32,32.68 Z M 27.52,44.14 V 37.35 L 24,34 V 40.28 L 27.52,44.14 Z M 32,34 L 28.48,37.35 V 44.14 L 32,40.28 V 34 Z" fill="rgb(183, 84, 51)" fill-rule="evenodd"/>
</svg>
