<?xml version="1.0" encoding="UTF-8"?>
<!-- generated by Finnhub -->
<svg viewBox="0 0 55.5 55.5" xmlns="http://www.w3.org/2000/svg">
<path d="M 0,0 H 55.5 V 55.5 H 0 Z" fill="rgb(239, 242, 248)"/>
<path d="M 45.15,26.314999999999998 C 44.86,25.82 44.36,25.53 43.65,25.53 C 42.25,25.53 42,26.73 42,28 C 42,29.7 42.5,30.5 44,30.5 C 44.9,30.5 45.62,29.86 46,29 H 43 V 27 H 48 V 29.97 A 4.87,4.87 0 0,1 45.66,32.57 C 45.07,32.86 44.4,33 43.65,33 C 40.8,33 39,30.73 39,28 C 39,25.29 40.82,23 43.64,23 C 45.73,23 47.52,24.2 47.9,26.33 H 45.16 Z M 23,40 H 33 L 35.63,33 H 35 V 27.48 L 33.5,33 H 31.5 L 30,27.44 V 33 H 27 V 29.33 L 23,40 Z M 38,26.67 L 42,16 H 32 L 29.37,23 H 30.55 L 32.5,29.5 L 34.47,23 H 38 V 26.67 Z M 14.15,27.87 A 2.45,2.45 0 0,1 16,30.27 C 16,32.13 14.47,33 12.77,33 H 8 V 23 H 12.62 C 14.24,23 15.78,23.8 15.78,25.6 C 15.78,26.65 15.18,27.57 14.15,27.87 Z M 11,27 H 12.03 C 12.71,27 13,26.58 13,26 C 13,25.4 12.7,25 12.03,25 H 11 V 27 Z M 12,31 C 12.67,31 13,30.59 13,30 C 13,29.4 12.7,29 12.03,29 H 11 V 31 H 12 Z M 23.15,27.87 A 2.45,2.45 0 0,1 25,30.27 C 25,32.13 23.47,33 21.77,33 H 17 V 23 H 21.62 C 23.24,23 24.78,23.8 24.78,25.6 C 24.78,26.65 24.18,27.57 23.15,27.87 Z M 20,27 H 21.03 C 21.71,27 22,26.58 22,26 C 22,25.4 21.7,25 21.03,25 H 20 V 27 Z M 21,31 C 21.67,31 22,30.59 22,30 C 22,29.4 21.7,29 21.03,29 H 20 V 31 H 21 Z" fill="rgb(227, 48, 40)"/>
</svg>
