<?xml version="1.0" encoding="UTF-8"?>
<!-- generated by Finnhub -->
<svg viewBox="0 0 55.5 55.5" xmlns="http://www.w3.org/2000/svg">
<path d="M 0,0 H 55.5 V 55.5 H 0 Z" fill="rgb(0, 65, 132)"/>
<path d="M 22.99,44.985 H 21 V 21 C 21,18.5 22,13 29,13 C 34.6,13 36,18 36,20 C 36,22.8 34,24.5 33,25 C 37,25.4 38,29.17 38,31 C 38,39 32,39 30,39 C 28.4,39 27.33,38.33 27,38 V 34.5 C 27.67,34.67 29.2,35 30,35 C 31,35 34,35 34,31 C 34,27.8 30.67,27 29,27 V 23 C 30,23 32,22.4 32,20 S 30,17 29,17 C 25.8,17 25,19.67 25,21 V 43 C 25,44.6 23.67,45 23,45 Z" fill="rgb(254, 251, 249)"/>
</svg>
