<?xml version="1.0" encoding="UTF-8"?>
<!-- generated by Finnhub -->
<svg viewBox="0 0 55.5 55.5" xmlns="http://www.w3.org/2000/svg">
<path d="M 0,0 H 55.5 V 55.5 H 0 Z" fill="rgb(254, 236, 2)"/>
<path d="M 11.99,22.652 L 28.004,12 L 44,22.667 L 25.004,35.327 L 21.664,33.107 L 37.004,22.894 L 27.672,16.669 L 23.334,19.554 L 26.666,21.775 L 18.664,27.108 L 12,22.667 Z" fill="rgb(1, 87, 164)"/>
<path d="M 43.99,33.319 L 27.996,43.992 L 12,33.334 L 31.004,20.673 L 34.336,22.893 L 18.996,33.106 L 28.336,39.331 L 32.666,36.438 L 29.334,34.217 L 37.336,28.892 L 44,33.334 Z M 44,16.45 L 40.668,18.67 L 37.336,16.45 L 44,12 V 16.45 Z M 12,39.55 L 15.332,37.33 L 18.664,39.55 L 12,44 V 39.55 Z" fill="rgb(1, 87, 164)"/>
</svg>
