<?xml version="1.0" encoding="UTF-8"?>
<!-- generated by Finnhub -->
<svg viewBox="0 0 55.5 55.5" xmlns="http://www.w3.org/2000/svg">
<path d="M 0,0 H 55.5 V 55.5 H 0 Z" fill="rgb(239, 242, 248)"/>
<path d="M 27.99,44.985 C 18.47,45 11,37.53 11,28 S 18.47,11 28,11 S 45,18.47 45,28 A 16.84,16.84 0 0,1 28,45 Z M 28,10 A 18,18 0 1,0 28,46 A 18,18 0 0,0 28,10 Z" fill="rgb(1, 85, 160)"/>
<path d="M 37.99,27.985 A 10,10 0 1,1 18,28 A 10,10 0 0,1 38,28 Z M 29.48,39.66 L 28.95,39.7 C 28.85,39.84 28.73,39.97 28.6,40.09 C 28.43,40.19 28.25,40.29 28.07,40.34 L 28.09,40.9 H 28.11 C 28.3,40.85 28.48,40.8 28.66,40.72 L 28.76,40.65 L 28.93,43.05 V 43.07 L 29.69,43.02 L 29.48,39.67 V 39.65 Z M 32.16,40.6 A 0.53,0.53 0 0,1 31.83,40.85 A 0.51,0.51 0 0,1 31.19,40.49 A 0.47,0.47 0 0,1 31.25,40.09 A 0.54,0.54 0 0,1 31.71,39.84 A 0.47,0.47 0 0,1 32.19,40.19 C 32.24,40.32 32.22,40.47 32.16,40.59 V 40.6 Z M 31.8,39.14 C 31.65,39.14 31.5,39.16 31.36,39.2 C 31.04,39.29 30.76,39.5 30.59,39.79 A 1.24,1.24 0 0,0 30.5,40.76 A 1.15,1.15 0 0,0 31.96,41.53 A 0.73,0.73 0 0,0 32.26,41.38 C 32.14,41.72 31.98,42.05 31.8,42.36 V 42.38 L 32.4,42.63 C 32.58,42.29 32.74,41.94 32.87,41.58 C 33.04,41.11 33.07,40.6 32.94,40.12 C 32.76,39.5 32.34,39.14 31.8,39.14 Z M 34.27,38.7 C 34.37,38.65 34.47,38.62 34.57,38.62 A 0.46,0.46 0 0,1 34.98,38.85 A 0.5,0.5 0 0,1 34.79,39.58 A 0.55,0.55 0 0,1 34.26,39.58 A 0.5,0.5 0 0,1 34.08,39.38 A 0.5,0.5 0 0,1 34.27,38.7 Z M 34.64,37.9 C 34.39,37.9 34.16,37.98 33.95,38.1 A 1.2,1.2 0 0,0 33.49,39.82 A 1.15,1.15 0 0,0 35.08,40.22 C 35.18,40.17 35.26,40.1 35.32,40.02 C 35.29,40.37 35.22,40.72 35.11,41.07 V 41.09 L 35.76,41.19 C 35.86,40.82 35.93,40.44 35.96,40.05 C 36.02,39.55 35.92,39.05 35.69,38.62 A 1.25,1.25 0 0,0 34.64,37.9 Z M 37.23,35.52 L 37.22,35.49 L 35.28,37.34 L 35.27,37.35 L 35.7,37.81 L 36.82,36.74 L 37.6,39.79 L 38.24,39.19 L 37.23,35.52 Z M 19.13,38.53 L 19.57,38.07 L 18.8,37.33 L 19.28,36.83 L 20.15,37.66 L 20.59,37.2 L 19.16,35.83 L 16.84,38.25 L 16.82,38.27 L 18.33,39.71 L 18.8,39.23 L 17.85,38.33 L 18.36,37.8 L 19.13,38.53 Z M 22,38.05 C 21.8,37.92 21.56,37.85 21.31,37.85 A 0.88,0.88 0 0,0 20.53,38.28 C 20.33,38.61 20.37,38.99 20.64,39.44 L 21,40 C 21.08,40.11 21.1,40.26 21.04,40.39 A 0.3,0.3 0 0,1 20.68,40.54 A 1.35,1.35 0 0,1 20.05,39.78 V 39.76 L 19.38,40.06 V 40.08 C 19.53,40.48 19.82,40.81 20.19,41.02 C 20.41,41.16 20.67,41.24 20.93,41.25 A 0.93,0.93 0 0,0 21.74,40.77 C 22,40.33 21.79,39.89 21.57,39.55 L 21.29,39.1 A 0.37,0.37 0 0,1 21.23,38.66 A 0.25,0.25 0 0,1 21.46,38.53 C 21.54,38.53 21.62,38.56 21.69,38.6 C 21.89,38.73 22.04,38.91 22.11,39.14 V 39.16 L 22.75,38.87 V 38.85 A 1.73,1.73 0 0,0 22.01,38.05 Z M 25.04,40.09 L 25.24,39.48 L 23.19,38.78 L 22.99,39.39 L 23.64,39.62 L 22.76,42.21 L 23.51,42.46 L 24.39,39.86 L 25.04,40.09 Z M 24.79,41.95 A 0.45,0.45 0 1,0 24.79,42.85 A 0.45,0.45 0 0,0 24.79,41.95 Z M 15.19,34.3 C 14.39,34.17 13.43,33.44 13.56,32.56 A 0.8,0.8 0 0,1 14.12,31.9 C 14.27,31.85 14.43,31.83 14.59,31.83 L 15.11,31.93 C 15.38,31.62 15.76,31.43 16.17,31.39 A 0.93,0.93 0 0,1 17.01,32.03 C 17.21,32.78 16.54,33.83 15.91,34.2 A 0.6,0.6 0 0,1 15.81,34.25 C 15.61,34.32 15.39,34.34 15.18,34.3 Z M 16.55,31.22 A 0.7,0.7 0 0,1 15.92,31.14 C 15.72,31 15.72,30.67 15.83,30.48 C 15.93,30.35 16.08,30.31 16.23,30.3 C 16.46,30.3 16.77,30.4 16.86,30.63 C 16.97,30.91 16.79,31.12 16.55,31.23 Z M 15.03,31.47 C 15.24,31.4 15.42,31.2 15.4,30.97 C 15.36,30.79 15.24,30.57 15.02,30.54 C 14.76,30.53 14.5,30.81 14.4,31.03 C 14.36,31.13 14.35,31.23 14.4,31.33 C 14.47,31.5 14.69,31.53 14.86,31.53 C 14.89,31.52 15.05,31.47 15.03,31.46 Z M 13.23,31.97 C 13.02,31.86 13.12,31.53 13.23,31.37 C 13.36,31.16 13.68,31.11 13.89,31.23 C 14.13,31.39 13.95,31.66 13.76,31.8 C 13.63,31.92 13.41,32.08 13.23,31.98 Z M 40.8,34.3 C 41.58,34.17 42.55,33.44 42.42,32.56 A 0.8,0.8 0 0,0 41.85,31.9 C 41.7,31.85 41.55,31.83 41.39,31.83 L 40.87,31.93 A 1.6,1.6 0 0,0 39.8,31.39 A 0.95,0.95 0 0,0 38.97,32.03 C 38.77,32.78 39.44,33.83 40.07,34.2 L 40.17,34.25 C 40.37,34.32 40.59,34.34 40.8,34.3 Z M 39.64,31.26 C 39.92,31.27 40.15,31.12 40.2,30.83 C 40.22,30.53 40.05,30.33 39.73,30.31 C 39.42,30.31 39.09,30.48 39.08,30.81 C 39.04,31.1 39.41,31.26 39.64,31.26 Z M 40.94,31.46 C 40.74,31.4 40.56,31.2 40.59,30.98 C 40.63,30.78 40.75,30.56 40.97,30.54 C 41.18,30.54 41.39,30.72 41.51,30.88 C 41.62,31.04 41.7,31.29 41.51,31.43 C 41.37,31.56 41.11,31.53 40.95,31.47 Z M 42.22,31.8 C 42.37,31.94 42.72,32.14 42.85,31.87 C 42.93,31.66 42.82,31.35 42.62,31.24 C 42.42,31.13 42.14,31.14 42,31.31 C 41.87,31.46 42.1,31.71 42.22,31.8 Z M 15.06,25.77 L 15.13,25.37 C 15.19,24.99 15.33,24.85 15.6,24.9 A 0.3,0.3 0 0,1 15.83,25.07 C 15.87,25.19 15.88,25.31 15.85,25.43 L 15.78,25.89 L 15.07,25.77 Z M 13.79,25.24 A 0.42,0.42 0 0,1 14.15,24.81 H 14.19 A 0.33,0.33 0 0,1 14.44,24.94 C 14.5,25.07 14.52,25.21 14.48,25.34 L 14.43,25.66 L 13.74,25.56 L 13.79,25.24 Z M 15.77,24.14 H 15.61 A 0.81,0.81 0 0,0 14.87,24.56 A 0.73,0.73 0 0,0 14.27,24.05 C 13.67,23.95 13.29,24.32 13.16,25.15 L 12.98,26.23 L 16.31,26.77 L 16.53,25.41 A 1.18,1.18 0 0,0 16.37,24.51 A 0.93,0.93 0 0,0 15.77,24.15 Z M 16.77,21.04 L 14.97,20.2 H 14.95 L 14.62,20.9 L 16.38,21.74 C 16.85,21.97 16.96,22.19 16.78,22.57 A 0.52,0.52 0 0,1 16.31,22.92 C 16.16,22.92 16.01,22.87 15.87,22.8 L 14.13,21.98 H 14.11 L 13.78,22.68 L 15.58,23.55 C 15.78,23.65 16.01,23.71 16.25,23.71 C 16.75,23.71 17.15,23.41 17.41,22.87 A 1.32,1.32 0 0,0 17.51,21.73 C 17.36,21.43 17.11,21.18 16.78,21.05 Z M 15.64,19.19 L 16.11,18.56 L 18.81,20.59 L 18.34,21.22 L 15.64,19.19 Z M 19.39,18.99 L 17.52,17.03 L 16.95,17.57 L 19.26,20 L 19.28,20.01 L 20.7,18.65 L 20.24,18.16 L 19.38,18.98 Z M 21.6,17.29 L 21.41,17.41 L 20.35,15.65 L 20.47,15.57 C 20.67,15.44 20.91,15.37 21.15,15.35 A 0.96,0.96 0 0,1 21.98,15.89 A 0.95,0.95 0 0,1 21.61,17.29 Z M 22.67,15.53 C 22.31,14.93 21.85,14.63 21.31,14.63 C 20.89,14.65 20.48,14.79 20.13,15.02 L 19.33,15.5 L 21.08,18.4 L 22.06,17.8 A 1.57,1.57 0 0,0 22.66,15.53 Z M 24,14.71 L 25.18,14.41 L 25.34,15.03 L 24.16,15.33 L 24,14.71 Z M 28.3,14.87 H 27.77 L 28.02,14.33 L 28.29,14.87 Z M 28.07,12.65 L 26.35,16.18 H 27.19 L 27.54,15.43 L 28.52,15.44 L 28.86,16.21 H 29.69 L 28.09,12.7 L 28.07,12.65 Z M 30.74,15.02 L 30.91,14.4 L 32.08,14.71 L 31.91,15.34 L 30.74,15.02 Z M 34.54,15.82 L 34.89,15.22 L 35.17,15.38 A 0.6,0.6 0 0,1 35.45,15.66 A 0.3,0.3 0 0,1 35.43,15.91 A 0.31,0.31 0 0,1 35.15,16.09 A 0.68,0.68 0 0,1 34.83,15.99 L 34.54,15.82 Z M 34.85,17.18 C 34.74,17.38 34.55,17.39 34.25,17.23 L 33.85,17 L 34.21,16.37 L 34.57,16.58 C 34.89,16.77 34.97,16.95 34.84,17.18 H 34.85 Z M 35.43,16.62 A 0.75,0.75 0 0,0 36.13,16.25 C 36.43,15.71 36.21,15.23 35.48,14.81 L 34.52,14.27 L 32.84,17.2 L 34.04,17.88 C 34.24,18.01 34.48,18.08 34.71,18.08 A 0.9,0.9 0 0,0 35.5,17.61 A 0.84,0.84 0 0,0 35.43,16.62 Z M 36.41,18.82 L 36.91,18.29 L 37.68,19.01 L 38.12,18.54 L 37.34,17.82 L 37.81,17.32 L 38.69,18.12 L 39.13,17.65 L 37.67,16.31 L 35.37,18.79 L 36.91,20.2 L 37.36,19.71 L 36.41,18.83 Z M 39.6,20.82 L 39.26,21.34 L 38.99,20.89 L 39.59,20.82 Z M 37.16,20.36 H 37.13 L 37.55,21.1 L 38.38,21.01 L 38.88,21.86 L 38.41,22.54 L 38.83,23.26 L 41.03,20 L 37.16,20.36 Z M 41.79,24.85 A 0.55,0.55 0 0,1 41.64,24.86 A 0.43,0.43 0 0,1 41.24,24.49 L 41.17,24.18 L 41.95,23.97 L 42.03,24.27 C 42.11,24.57 42.03,24.77 41.79,24.84 Z M 42.65,24.15 L 42.35,23.05 L 39.11,23.91 H 39.09 L 39.29,24.67 L 40.76,24.28 L 39.56,25.63 L 39.82,26.6 L 40.93,25.19 A 0.86,0.86 0 0,0 41.67,25.65 C 41.78,25.65 41.89,25.64 42,25.61 C 42.6,25.45 42.86,24.9 42.66,24.14" fill="rgb(1, 85, 160)"/>
<path d="M 35.660000000000004,29.915 A 1.66,1.66 0 0,0 36.81,28.37 A 1.7,1.7 0 0,0 35.16,26.71 H 34.86 L 34.55,26.78 C 34.11,26.88 33.9,26.98 33.44,27.1 C 32.85,27.24 32.24,27.2 31.67,27 A 6.01,6.01 0 0,1 30.66,26.54 A 3.77,3.77 0 0,0 32.15,23.97 A 1.75,1.75 0 1,0 30.5,21.01 C 30.13,20.9 29.75,20.81 29.37,20.77 C 29.17,20.57 28.74,20.2 28.34,20.27 C 28.34,20.27 28.26,20.28 28.34,20.34 L 28.45,20.44 L 28.59,20.58 L 28.62,20.62 A 0.05,0.05 0 0,1 28.62,20.66 A 0.05,0.05 0 0,1 28.58,20.69 H 28.57 A 2.44,2.44 0 0,0 26.86,20.41 C 26.8,20.45 26.76,20.5 26.8,20.54 C 26.84,20.58 27.18,20.69 27.34,20.8 C 26.54,20.93 25.78,21.18 25.06,21.55 A 1.75,1.75 0 1,0 24.04,24.79 A 3.74,3.74 0 0,0 25.31,26.59 C 25,26.76 24.67,26.91 24.34,27.02 C 23.77,27.22 23.15,27.26 22.57,27.12 C 22.11,27 21.9,26.89 21.46,26.8 A 1.8,1.8 0 0,0 21.15,26.73 H 20.83 A 1.7,1.7 0 0,0 19.18,28.39 A 1.67,1.67 0 0,0 20.33,29.95 C 21.4,30.45 23.48,30.49 23.48,30.49 S 23.2,31.58 22.9,31.82 C 22.71,31.96 22.36,31.88 22.11,31.79 A 1.93,1.93 0 0,0 21.84,31.67 H 21.81 A 1.58,1.58 0 0,0 21.43,31.6 H 21.4 C 21.23,31.6 21.06,31.61 20.9,31.67 C 19.94,31.99 19.51,33.34 19.96,34.69 C 20.36,35.89 21.3,36.66 22.18,36.6 C 22.58,36.59 22.98,36.49 23.33,36.3 C 23.98,36.01 24.65,35.77 25.33,35.58 C 26.2,35.31 27.97,35.31 28,35.31 C 28.03,35.31 29.8,35.31 30.66,35.59 C 31.34,35.78 32.01,36.02 32.66,36.31 C 33.02,36.49 33.41,36.59 33.81,36.61 C 34.69,36.66 35.63,35.88 36.03,34.69 C 36.48,33.35 36.05,31.99 35.08,31.67 A 1.38,1.38 0 0,0 34.6,31.6 H 34.56 C 34.43,31.6 34.31,31.63 34.18,31.67 H 34.17 C 34.07,31.7 33.97,31.74 33.89,31.79 C 33.64,31.88 33.29,31.96 33.1,31.82 C 32.8,31.58 32.5,30.49 32.5,30.49 S 34.59,30.44 35.65,29.94" fill="rgb(235, 175, 44)"/>
<path d="M 22.81,33.755 C 23.08,34.55 22.88,35.49 22.28,35.69 C 21.69,35.89 20.93,35.27 20.68,34.49 C 20.41,33.72 20.66,32.79 21.25,32.59 C 21.84,32.39 22.55,32.99 22.82,33.79 V 33.77 Z M 33.22,33.77 C 32.97,34.55 33.17,35.49 33.76,35.69 C 34.36,35.89 35.11,35.27 35.37,34.49 C 35.64,33.72 35.39,32.79 34.8,32.59 C 34.2,32.39 33.5,32.99 33.23,33.79 V 33.77 Z M 29.62,24.52 C 29.25,24.05 28.66,23.43 28,23.5 C 27.34,23.57 26.87,24.27 26.6,24.82 C 26.32,25.36 26.02,26.2 26.5,26.67 C 26.98,27.14 27.72,27.17 28.35,27.13 C 28.98,27.09 29.71,26.86 30.07,26.32 C 30.43,25.78 29.99,24.98 29.62,24.52" fill="rgb(243, 220, 159)"/>
<path d="M 29.56,28.884999999999998 A 0.77,0.77 0 0,0 28.84,28.6 A 0.6,0.6 0 0,0 28.3,29.28 C 28.37,29.72 28.5,30.08 29.75,30.81 A 0.1,0.1 0 0,0 29.93,30.79 C 30.91,29.72 30.94,29.34 30.87,28.9 A 0.61,0.61 0 0,0 30.15,28.38 A 0.77,0.77 0 0,0 29.55,28.88" fill="rgb(237, 46, 81)"/>
<path d="M 28.02,23.825 C 27.43,23.9 27.19,24.04 27.48,24.41 A 0.67,0.67 0 0,0 28.68,24.3 C 28.9,23.87 28.64,23.78 28.03,23.84 Z M 29.12,25.81 A 0.04,0.04 0 0,0 29.08,25.81 C 28.94,25.91 28.79,25.97 28.64,26.01 A 0.33,0.33 0 0,1 28.22,25.8 A 0.03,0.03 0 0,0 28.19,25.78 H 28.16 A 0.49,0.49 0 0,1 27.86,26.01 A 0.56,0.56 0 0,1 27.62,25.99 A 0.65,0.65 0 0,1 27.18,25.6 A 0.03,0.03 0 0,0 27.14,25.58 A 0.04,0.04 0 0,0 27.11,25.6 A 0.82,0.82 0 0,0 27.73,26.22 L 27.93,26.26 H 28.13 C 28.22,26.26 28.31,26.26 28.39,26.24 A 1.2,1.2 0 0,0 29.13,25.82 A 0.02,0.02 0 0,0 29.13,25.8 L 29.12,25.81 Z M 23.72,22.18 A 0.13,0.13 0 0,0 23.6,22.1 H 23.55 A 0.8,0.8 0 0,0 23.1,22.75 C 23.09,22.89 23.1,23.03 23.12,23.17 A 0.04,0.04 0 0,0 23.16,23.2 A 0.04,0.04 0 0,0 23.2,23.18 A 1.25,1.25 0 0,1 23.7,22.28 A 0.1,0.1 0 0,0 23.72,22.18 Z M 32.67,21.84 A 0.8,0.8 0 0,0 32.11,21.29 H 32.06 A 0.13,0.13 0 0,0 31.96,21.39 A 0.1,0.1 0 0,0 32,21.49 A 1.24,1.24 0 0,1 32.66,22.28 L 32.67,22.29 L 32.7,22.3 L 32.72,22.29 L 32.73,22.27 C 32.73,22.13 32.71,21.99 32.67,21.85 Z M 26.59,22.04 L 26.54,22.06 A 0.6,0.6 0 0,0 26.16,22.7 H 26.18 A 0.02,0.02 0 0,0 26.2,22.7 C 26.3,22.52 26.46,22.37 26.65,22.27 A 0.12,0.12 0 0,0 26.67,22.07 A 0.12,0.12 0 0,0 26.58,22.05 Z M 29.1,21.81 H 29.15 A 0.6,0.6 0 0,1 29.65,22.36 H 29.61 A 1.13,1.13 0 0,0 29.09,22.02 A 0.12,0.12 0 0,1 29.01,21.89 A 0.12,0.12 0 0,1 29.11,21.79 V 21.81 Z" fill="rgb(1, 85, 160)"/>
<path d="M 28.95,22.605 A 0.4,0.4 0 0,1 29.3,23.02 A 0.38,0.38 0 0,1 29,23.48 A 0.4,0.4 0 0,1 28.66,23.08 A 0.37,0.37 0 0,1 28.93,22.63 H 28.96 Z M 26.9,22.83 A 0.4,0.4 0 0,1 27.24,23.23 A 0.38,0.38 0 0,1 26.94,23.69 A 0.4,0.4 0 0,1 26.6,23.29 A 0.37,0.37 0 0,1 26.87,22.84 H 26.9 Z" fill="rgb(243, 220, 159)"/>
<path d="M 26.93,23.585 A 0.32,0.32 0 0,1 26.7,23.27 C 26.72,23.3 26.75,23.32 26.78,23.32 A 0.18,0.18 0 0,0 26.94,23.14 A 0.2,0.2 0 0,0 26.88,22.94 A 0.3,0.3 0 0,1 27.13,23.24 A 0.28,0.28 0 0,1 26.93,23.59 Z M 29,23.39 A 0.32,0.32 0 0,1 28.76,23.07 A 0.12,0.12 0 0,0 28.84,23.11 A 0.18,0.18 0 0,0 29,22.93 A 0.2,0.2 0 0,0 28.94,22.73 A 0.3,0.3 0 0,1 29.18,23.03 A 0.28,0.28 0 0,1 29,23.38 H 28.99" fill="rgb(1, 85, 160)"/>
</svg>
