<?xml version="1.0" encoding="UTF-8"?>
<!-- generated by Finnhub -->
<svg viewBox="0 0 55.5 55.5" xmlns="http://www.w3.org/2000/svg">
<path d="M 0,0 H 55.5 V 55.5 H 0 Z" fill="rgb(239, 242, 248)"/>
<path d="M 13.59,28.105 A 9.55,9.55 0 0,1 16.4,21.49 A 9.36,9.36 0 0,1 29.62,21.49 C 31.38,23.24 32.26,26.47 32.29,28.97 C 32.29,29.14 32.29,29.32 32.27,29.5 C 33.13,29.86 33.96,30.28 34.77,30.73 C 35.03,28.92 35.01,26.23 34.46,24.48 A 12.15,12.15 0 0,0 27.26,16.78 A 11.9,11.9 0 0,0 12.96,21.5 A 12.2,12.2 0 0,0 11.62,32 C 12.37,31.42 13.26,30.74 13.85,30.33 A 9.51,9.51 0 0,1 13.59,28.13 Z" fill="rgb(243, 122, 30)"/>
<path d="M 29.689999999999998,27.884999999999998 C 16.79,23.83 9,34.86 9,34.86 C 16.3,31.76 18.37,33.58 24.62,37.23 C 31.99,41.53 36.13,36.71 36.62,36.09 C 45.37,40.3 50,33.89 50,33.89 C 42.18,39.02 35.3,29.66 29.7,27.9 Z M 20.05,31.1 C 19.82,31.04 19.59,31 19.35,30.95 C 25.13,29.92 29.35,31.91 35.29,35.38 C 35.74,35.64 36.18,35.86 36.6,36.07 C 30.22,40.14 24.67,32.36 20.05,31.11 Z" fill="rgb(1, 91, 169)"/>
</svg>
