<?xml version="1.0" encoding="UTF-8"?>
<!-- generated by Finnhub -->
<svg viewBox="0 0 55.5 55.5" xmlns="http://www.w3.org/2000/svg">
<path d="M 0,0 H 55.5 V 55.5 H 0 Z" fill="rgb(239, 242, 248)"/>
<path d="M 25.99,41.845 V 21 L 20.85,25 L 19,22.05 L 28,15 L 36.98,22.05 L 35.13,25 L 30,21 V 41.86 C 36.8,40.89 42,35.07 42,28.06 C 42,20.38 35.76,14 28,14 S 14,20.38 14,28.06 C 14,35.07 19.2,40.89 26,41.86 Z M 45,28.06 C 45,37.42 37.39,45 28,45 S 11,37.42 11,28.06 C 11,18.71 18.61,11 28,11 S 45,18.7 45,28.06 Z" fill="rgb(66, 169, 61)"/>
<path d="M 18.99,29.035 L 28.01,22 L 37,29.05 L 35.15,32 L 28,26.44 L 20.85,32 L 19,29.05 Z" fill="rgb(66, 169, 61)"/>
<path d="M 18.99,36.035 L 28.01,29 L 37,36.05 L 35.15,39 L 28,33.44 L 20.85,39 L 19,36.05 Z" fill="rgb(66, 169, 61)"/>
</svg>
