<?xml version="1.0" encoding="UTF-8"?>
<!-- generated by Finnhub -->
<svg viewBox="0 0 55.5 55.5" xmlns="http://www.w3.org/2000/svg">
<path d="M 0,0 H 55.5 V 55.5 H 0 Z" fill="rgb(239, 242, 248)"/>
<path d="M 3.99,32.985 V 23 H 8.14 C 9.34,23 10.81,23.95 10.81,25.6 C 10.81,26.9 10.09,27.62 9.74,27.8 C 10.16,28.1 11,28.96 11,30.02 C 11,32.5 9.1,33.04 8.14,33 H 4 Z M 7.83,25 H 6 V 27 H 7.83 C 8.48,27 9,26.55 9,26 S 8.48,25 7.83,25 Z M 7.83,29 H 6 V 31 H 7.83 C 8.47,31 9,30.55 9,30 S 8.47,29 7.83,29 Z M 12.83,33 H 10.8 L 14.4,23 H 15.83 L 19.45,33 H 17.45 L 16.8,31 H 13.48 L 12.81,33 Z M 15.15,25.97 L 16.15,29 H 14.15 L 15.15,25.97 Z M 20,23 V 33 H 22 V 27 L 26.07,33 H 28 V 23 H 26 V 29 L 21.83,23 H 20 Z M 31,23 H 29 V 33 H 31 V 30.04 L 32.3,28.47 L 34.78,33 H 37 L 33.52,27 L 36.85,23 H 34.52 L 31,27.39 V 23 Z" fill="rgb(34, 30, 30)" fill-rule="evenodd"/>
<path d="M 51.99,31.985 H 51 V 33 H 49 V 32 H 45 V 30.05 L 48.47,23 H 50.69 L 47.29,30 H 49 V 27 H 51 V 30 H 52 V 32 Z M 41.01,29 H 40 V 27 H 41 A 1,1 0 1,0 40,26 H 38 A 3,3 0 1,1 43.24,28 A 3,3 0 1,1 38,30 H 40 A 1,1 0 1,0 41.01,29 Z" fill="rgb(168, 111, 57)"/>
</svg>
