<?xml version="1.0" encoding="UTF-8"?>
<!-- generated by Finnhub -->
<svg viewBox="0 0 55.5 55.5" xmlns="http://www.w3.org/2000/svg">
<path d="M 0,0 H 55.5 V 55.5 H 0 Z" fill="rgb(239, 242, 248)"/>
<path d="M 21.41,21.985 C 25.25,22 28,24.51 28,27.94 C 28,31.5 25.22,34 21.45,34 H 16.03 C 16.88,33.65 18,32.63 18,31.21 C 18,29.59 17.27,28.75 16.06,28.01 C 17.29,27.27 18,26.46 18,24.78 C 18,23.61 16.99,22.44 16,22 H 21.42 Z M 20,25 V 31 H 21.2 C 23.95,31 25,29.74 25,28 C 25,25.96 23.65,25 20.67,25 H 20 Z M 40.7,22 H 36.63 L 34.08,29.31 L 31.38,22 H 27 V 23.23 A 6.23,6.23 0 0,1 29,27.93 C 29,29.83 28.32,31.38 27,32.74 V 34 H 30 V 27.24 L 32.73,33.99 H 35.27 V 34 L 38,27.18 V 34 H 41 V 22 H 40.7 Z M 45.34,26.35 L 45.17,26.32 C 44.63,26.2 43.79,26.02 43.79,25.4 C 43.79,24.62 44.69,24.43 45.31,24.43 C 46.42,24.43 47.32,24.81 47.41,26 H 50.57 V 25.8 C 50.57,23.08 47.8,22 45.41,22 C 44.28,22 43.11,22.24 42.14,22.85 L 42.1,22.88 L 42,22.95 V 28.05 C 42.9,28.64 44.04,28.88 45.15,29.12 C 45.81,29.26 46.45,29.4 47.05,29.61 C 47.48,29.77 48,30.01 48,30.55 C 48,31.51 46.67,31.59 45.96,31.59 C 44.96,31.59 43.37,31.22 43.37,30 H 42 V 33.13 C 43.07,33.79 44.42,34 45.66,34 C 47.98,34 51,33.03 51,30.23 C 51.06,27.59 48.13,26.96 45.97,26.49 L 45.34,26.35 Z" fill="rgb(1, 113, 186)"/>
<path d="M 7.99,23.985 V 26.5 H 5 V 22 H 13.55 C 15.45,22 17,23.34 17,25 C 17,26.63 15.57,27.97 13.7,28 C 15.57,28.03 17,29.37 17,31 C 17,32.66 15.46,34 13.55,34 H 5 V 29.5 H 8 V 32 H 11 V 29.5 H 13.7 V 26.5 H 11 V 24 H 8 Z" fill="rgb(236, 27, 34)"/>
</svg>
