<?xml version="1.0" encoding="UTF-8"?>
<!-- generated by Finnhub -->
<svg viewBox="0 0 55.5 55.5" xmlns="http://www.w3.org/2000/svg">
<path d="M 0,0 H 55.5 V 55.5 H 0 Z" fill="rgb(239, 242, 248)"/>
<path d="M 26.319999999999997,11.055 C 26.81,11.03 27.29,11 27.77,11 L 27.78,11.93 C 27.33,11.93 26.88,11.96 26.42,12 L 26.33,11.07 Z M 28.11,11.93 V 11 C 28.6,11 29.08,11.03 29.56,11.07 L 29.46,12 C 29.02,11.96 28.56,11.94 28.11,11.93 Z M 24.57,11.33 C 25.04,11.23 25.52,11.16 25.99,11.11 C 26.03,11.41 26.07,11.72 26.09,12.03 C 25.65,12.09 25.19,12.16 24.75,12.24 C 24.69,11.94 24.62,11.64 24.57,11.33 Z M 21.17,12.4 C 21.6,12.2 22.06,12.03 22.51,11.88 L 22.81,12.76 C 22.38,12.92 21.96,13.07 21.54,13.26 L 21.17,12.4 Z M 33.38,11.88 C 33.84,12.03 34.28,12.2 34.73,12.4 L 34.36,13.25 L 33.08,12.76 L 33.38,11.88 Z M 24.81,12.54 C 25.25,12.44 25.69,12.38 26.13,12.33 L 26.23,13.24 C 25.83,13.29 25.41,13.35 25,13.44 L 24.81,12.54 Z M 29.66,13.24 L 29.76,12.34 C 30.2,12.38 30.64,12.44 31.08,12.54 L 30.9,13.43 A 25.6,25.6 0 0,0 29.66,13.23 Z M 35.04,12.54 C 35.48,12.74 35.91,12.95 36.33,13.19 L 35.87,14 C 35.47,13.79 35.07,13.58 34.65,13.39 L 35.05,12.54 Z M 19.57,13.19 C 19.98,12.95 20.41,12.74 20.85,12.54 L 21.24,13.38 C 20.84,13.58 20.43,13.78 20.03,14 L 19.57,13.2 Z M 31.39,12.61 C 31.83,12.7 32.26,12.81 32.69,12.95 L 32.4,13.82 C 32,13.7 31.6,13.59 31.2,13.5 C 31.26,13.2 31.32,12.9 31.4,12.6 Z M 28.09,13.44 C 28.51,13.44 28.91,13.46 29.32,13.51 L 29.24,14.41 L 28.09,14.36 V 13.44 Z M 25.06,13.72 C 25.46,13.64 25.86,13.58 26.27,13.54 L 26.37,14.44 L 25.24,14.62 L 25.06,13.72 Z M 29.62,13.54 C 30.03,13.58 30.43,13.64 30.84,13.72 L 30.65,14.62 L 29.52,14.45 L 29.62,13.54 Z M 20.18,14.26 C 20.56,14.04 20.96,13.84 21.36,13.66 L 21.74,14.49 C 21.36,14.67 21,14.86 20.63,15.06 L 20.18,14.26 Z M 34.53,13.66 C 34.93,13.84 35.33,14.04 35.72,14.26 L 35.26,15.06 C 34.9,14.86 34.53,14.67 34.15,14.49 L 34.53,13.66 Z M 23.58,14.1 C 23.97,13.98 24.36,13.88 24.76,13.8 L 24.96,14.69 C 24.59,14.78 24.22,14.87 23.86,14.99 C 23.76,14.69 23.66,14.39 23.58,14.1 Z M 31.13,13.8 C 31.53,13.88 31.93,13.98 32.31,14.1 C 32.23,14.4 32.13,14.7 32.04,14.98 L 30.94,14.68 C 30.99,14.38 31.06,14.08 31.13,13.79 Z M 22.15,14.64 C 22.52,14.47 22.9,14.33 23.29,14.2 L 23.58,15.07 L 22.51,15.48 L 22.14,14.64 Z M 32.6,14.2 C 33,14.33 33.37,14.48 33.75,14.64 L 33.38,15.48 C 33.03,15.33 32.68,15.2 32.31,15.08 L 32.61,14.2 Z M 17.78,14.34 C 17.98,14.59 18.15,14.84 18.34,15.1 C 17.98,15.37 17.63,15.66 17.29,15.95 L 16.66,15.25 C 17.02,14.93 17.39,14.63 17.78,14.35 Z M 30.76,19.69 L 31.06,18.82 C 31.31,18.9 31.56,19 31.8,19.1 L 31.43,19.94 L 30.76,19.69 Z M 19.71,19.09 C 19.94,19.29 20.13,19.54 20.34,19.76 C 20.11,19.97 19.89,20.19 19.68,20.41 C 19.45,20.21 19.22,20.01 19,19.79 C 19.23,19.55 19.46,19.31 19.7,19.09 Z M 35.56,19.76 C 35.76,19.53 35.96,19.3 36.18,19.08 C 36.43,19.31 36.66,19.55 36.89,19.79 L 36.21,20.41 L 35.56,19.76 Z M 17.2,20.05 C 17.43,19.75 17.66,19.45 17.91,19.18 L 18.61,19.79 C 18.38,20.05 18.16,20.32 17.95,20.59 L 17.2,20.05 Z M 23.18,19.55 C 23.41,19.42 23.65,19.3 23.89,19.19 L 24.27,20.03 L 23.64,20.36 L 23.18,19.56 Z M 31.62,20.03 L 32,19.19 C 32.24,19.3 32.48,19.42 32.7,19.55 A 61,61 0 0,1 32.25,20.35 L 31.62,20.03 Z M 37.29,19.79 L 37.98,19.19 C 38.23,19.46 38.46,19.75 38.69,20.05 L 37.95,20.59 C 37.73,20.32 37.52,20.05 37.29,19.79 Z M 20.72,19.82 C 20.94,19.62 21.18,19.43 21.42,19.25 L 21.97,19.98 L 21.33,20.5 L 20.72,19.82 Z M 34.47,19.25 C 34.72,19.43 34.95,19.62 35.17,19.82 L 34.57,20.5 L 33.93,19.98 L 34.47,19.25 Z M 28.05,19.53 C 28.28,19.53 28.5,19.54 28.73,19.56 L 28.64,20.49 L 28.04,20.46 V 19.53 Z M 16.05,19.57 L 16.8,20.1 C 16.58,20.41 16.37,20.73 16.17,21.06 L 15.37,20.59 C 15.58,20.24 15.81,19.9 16.04,19.57 Z M 27.15,19.57 C 27.39,19.54 27.61,19.53 27.85,19.53 V 20.46 L 27.25,20.49 L 27.15,19.56 Z M 39.1,20.1 L 39.85,19.57 C 40.08,19.9 40.31,20.24 40.51,20.59 L 39.72,21.06 C 39.52,20.73 39.32,20.41 39.1,20.1 Z M 26.28,19.7 C 26.5,19.65 26.73,19.61 26.96,19.58 L 27.06,20.51 L 26.46,20.61 L 26.28,19.69 Z M 28.93,19.59 C 29.16,19.61 29.39,19.65 29.62,19.69 C 29.56,19.99 29.5,20.3 29.42,20.6 L 28.82,20.5 L 28.93,19.59 Z M 22.33,20.09 C 22.54,19.94 22.76,19.79 22.99,19.66 L 23.46,20.46 L 22.86,20.85 L 22.32,20.1 Z M 25.42,19.91 C 25.63,19.84 25.86,19.79 26.08,19.73 L 26.28,20.64 L 25.7,20.8 C 25.6,20.5 25.5,20.2 25.42,19.91 Z M 29.61,20.64 L 29.81,19.74 C 30.04,19.78 30.26,19.84 30.48,19.91 L 30.2,20.8 L 29.6,20.64 Z M 19.91,20.62 C 20.11,20.39 20.31,20.18 20.54,19.98 L 21.16,20.65 L 20.58,21.23 L 19.9,20.62 Z M 24.61,20.22 C 24.81,20.12 25.01,20.05 25.22,19.98 L 25.52,20.86 L 24.96,21.07 C 24.84,20.79 24.67,20.51 24.6,20.22 Z M 30.67,19.98 C 30.88,20.05 31.1,20.13 31.31,20.22 L 30.94,21.07 A 44.9,44.9 0 0,0 30.37,20.86 L 30.67,19.98 Z M 34.73,20.65 L 35.35,19.98 C 35.58,20.18 35.79,20.39 35.99,20.62 C 35.77,20.82 35.55,21.03 35.31,21.23 L 34.73,20.65 Z M 36.38,20.6 L 37.07,19.99 C 37.29,20.24 37.5,20.49 37.71,20.77 L 36.97,21.32 C 36.77,21.07 36.58,20.83 36.37,20.6 Z M 21.53,20.73 C 21.73,20.55 21.93,20.38 22.14,20.23 L 22.69,20.97 L 22.14,21.42 L 21.53,20.72 Z M 33.75,20.23 C 33.96,20.38 34.17,20.55 34.37,20.73 L 33.75,21.42 L 33.2,20.97 L 33.75,20.23 Z M 40.93,20.7 L 41.73,20.26 C 41.95,20.64 42.15,21.03 42.33,21.44 L 41.5,21.82 A 20.8,20.8 0 0,0 40.93,20.7 Z M 23.79,20.61 L 24.39,20.31 C 24.53,20.58 24.66,20.86 24.79,21.15 L 24.24,21.42 L 23.79,20.62 Z M 31.11,21.15 L 31.49,20.3 L 32.11,20.61 L 31.65,21.42 L 31.11,21.15 Z M 32.28,20.72 C 32.48,20.83 32.67,20.96 32.86,21.09 L 32.32,21.85 L 31.81,21.51 L 32.28,20.71 Z M 23.03,21.09 L 23.61,20.71 L 24.08,21.51 L 23.58,21.85 L 23.03,21.09 Z M 27.28,20.79 L 27.85,20.76 L 27.86,21.68 L 27.36,21.71 L 27.28,20.79 Z M 28.04,20.76 L 28.62,20.79 L 28.52,21.71 L 28.02,21.68 L 28.04,20.76 Z M 19.17,21.49 C 19.35,21.25 19.54,21.02 19.74,20.79 L 20.43,21.4 L 19.9,22.04 L 19.17,21.49 Z M 26.52,20.89 L 27.1,20.81 L 27.2,21.72 L 26.7,21.8 L 26.52,20.9 Z M 28.8,20.81 L 29.37,20.9 L 29.18,21.8 A 61.3,61.3 0 0,1 28.69,21.72 L 28.79,20.81 Z M 35.47,21.41 L 36.15,20.8 C 36.35,21.02 36.55,21.25 36.72,21.5 A 37,37 0 0,1 35.98,22.04 C 35.82,21.82 35.64,21.61 35.47,21.4 Z M 15.23,20.85 L 16.03,21.31 C 15.84,21.64 15.67,21.98 15.51,22.32 L 14.67,21.94 C 14.84,21.57 15.02,21.21 15.23,20.85 Z M 33.91,21.55 L 34.53,20.87 C 34.73,21.05 34.92,21.24 35.09,21.44 L 34.41,22.06 L 33.91,21.56 Z M 39.87,21.3 L 40.67,20.85 C 40.87,21.21 41.05,21.57 41.23,21.94 L 40.39,22.32 L 39.87,21.3 Z M 20.8,21.44 C 20.98,21.24 21.17,21.05 21.36,20.87 L 21.99,21.55 L 21.48,22.05 A 59,59 0 0,1 20.8,21.44 Z M 25.79,21.08 L 26.35,20.93 L 26.55,21.83 C 26.39,21.88 26.23,21.93 26.07,21.96 C 25.97,21.66 25.87,21.38 25.79,21.08 Z M 29.34,21.83 L 29.54,20.93 L 30.1,21.08 C 30.02,21.38 29.92,21.67 29.83,21.96 A 39.1,39.1 0 0,0 29.34,21.83 Z M 17.48,21.83 C 17.66,21.53 17.84,21.25 18.04,20.98 C 18.29,21.16 18.54,21.33 18.78,21.52 C 18.61,21.77 18.44,22.02 18.28,22.29 C 18.01,22.14 17.74,21.99 17.48,21.82 Z M 37.11,21.51 L 37.86,20.98 C 38.06,21.26 38.24,21.54 38.41,21.82 C 38.15,21.99 37.88,22.14 37.61,22.29 L 37.11,21.51 Z M 30.28,21.14 L 30.82,21.34 L 30.45,22.19 L 29.98,22.02 L 30.28,21.14 Z M 25.08,21.34 L 25.61,21.14 L 25.91,22.02 L 25.44,22.19 L 25.07,21.35 Z M 12.29,21.24 L 13.15,21.61 C 12.98,22.03 12.81,22.45 12.66,22.88 L 11.78,22.58 C 11.93,22.13 12.1,21.68 12.29,21.24 Z M 22.34,21.64 C 22.51,21.49 22.69,21.34 22.87,21.21 C 23.06,21.45 23.25,21.71 23.42,21.96 L 22.96,22.34 L 22.34,21.64 Z M 33.02,21.21 C 33.2,21.34 33.38,21.49 33.55,21.64 L 32.94,22.34 L 32.47,21.96 L 33.02,21.21 Z M 24.39,21.68 C 24.56,21.58 24.73,21.5 24.91,21.42 L 25.29,22.26 L 24.85,22.49 L 24.39,21.69 Z M 30.99,21.42 L 31.49,21.68 C 31.35,21.95 31.19,22.22 31.04,22.48 L 30.6,22.26 L 30.98,21.42 Z M 15.78,22.44 C 15.93,22.11 16.1,21.77 16.29,21.45 L 17.09,21.91 C 16.92,22.21 16.77,22.51 16.62,22.83 C 16.34,22.7 16.05,22.58 15.78,22.44 Z M 38.8,21.91 A 46,46 0 0,1 39.6,21.45 C 39.8,21.77 39.96,22.11 40.11,22.45 L 39.27,22.83 C 39.12,22.52 38.97,22.21 38.8,21.91 Z M 13.43,21.73 L 14.27,22.1 C 14.11,22.48 13.96,22.87 13.82,23.26 L 12.95,22.97 C 13.08,22.55 13.25,22.14 13.43,21.73 Z M 41.63,22.1 L 42.46,21.73 C 42.65,22.13 42.8,22.55 42.94,22.97 L 42.07,23.27 C 41.94,22.87 41.79,22.48 41.62,22.1 Z M 21.7,22.26 L 22.19,21.77 L 22.82,22.47 C 22.67,22.6 22.53,22.74 22.39,22.89 L 21.7,22.26 Z M 23.75,22.09 L 24.24,21.77 L 24.7,22.57 L 24.29,22.84 L 23.75,22.09 Z M 31.19,22.56 L 31.65,21.77 C 31.82,21.87 31.98,21.97 32.14,22.09 L 31.61,22.84 L 31.19,22.56 Z M 33.07,22.46 L 33.7,21.77 C 33.87,21.93 34.04,22.09 34.2,22.27 L 33.5,22.89 L 33.07,22.45 Z M 27.4,22 L 27.87,21.97 V 22.86 L 27.48,22.88 L 27.4,22 Z M 28.03,21.97 L 28.5,22 L 28.41,22.88 L 28.01,22.86 L 28.03,21.97 Z M 17.35,22.04 L 18.15,22.49 C 18.01,22.77 17.86,23.04 17.73,23.32 L 16.89,22.94 C 17.03,22.64 17.19,22.34 17.35,22.04 Z M 26.77,22.09 L 27.23,22.01 C 27.27,22.31 27.31,22.61 27.33,22.89 L 26.95,22.96 L 26.77,22.09 Z M 28.56,22.89 L 28.66,22.02 L 29.12,22.09 L 28.94,22.96 L 28.56,22.9 Z M 26.16,22.25 C 26.31,22.2 26.46,22.16 26.62,22.13 L 26.81,22.99 L 26.42,23.09 L 26.16,22.24 Z M 29.28,22.12 L 29.73,22.25 L 29.47,23.09 L 29.09,22.99 L 29.28,22.12 Z M 23.16,22.55 L 23.6,22.18 C 23.78,22.43 23.97,22.66 24.14,22.91 C 24.04,23.05 23.89,23.13 23.76,23.24 L 23.16,22.55 Z M 31.74,22.93 L 32.29,22.18 L 32.74,22.55 L 32.13,23.24 L 31.73,22.93 Z M 25.57,22.46 L 26.01,22.3 L 26.29,23.13 L 25.92,23.27 A 51.6,51.6 0 0,1 25.57,22.47 Z M 29.89,22.29 L 30.33,22.46 L 29.97,23.27 L 29.61,23.13 L 29.89,22.29 Z M 19.59,23.05 C 19.72,22.82 19.86,22.6 20.02,22.39 L 20.77,22.92 L 20.37,23.52 L 19.58,23.05 Z M 33.63,23.01 L 34.33,22.4 C 34.48,22.57 34.63,22.75 34.76,22.93 L 34.01,23.48 L 33.63,23.01 Z M 35.13,22.91 L 35.87,22.38 C 36.03,22.6 36.17,22.82 36.31,23.05 L 35.51,23.52 L 35.12,22.92 Z M 25,22.76 L 25.42,22.56 L 25.79,23.36 L 25.44,23.53 C 25.29,23.28 25.14,23.03 25,22.76 Z M 30.47,22.55 L 30.89,22.76 L 30.45,23.53 L 30.1,23.35 L 30.47,22.55 Z M 37.47,22.66 C 37.63,22.92 37.77,23.19 37.89,23.46 L 37.06,23.84 L 36.68,23.11 L 37.48,22.66 Z M 18,23.46 A 8,8 0 0,1 18.42,22.66 L 19.22,23.11 C 19.08,23.35 18.96,23.6 18.84,23.84 L 18,23.47 Z M 22.61,23.09 L 23.02,22.69 L 23.64,23.37 L 23.29,23.72 C 23.06,23.52 22.83,23.32 22.61,23.09 Z M 32.87,22.69 L 33.28,23.1 L 32.6,23.72 L 32.25,23.37 L 32.87,22.69 Z M 24.47,23.09 L 24.87,22.84 L 25.31,23.6 L 24.98,23.82 L 24.47,23.1 Z M 31.03,22.84 L 31.43,23.1 L 30.91,23.82 C 30.81,23.74 30.69,23.67 30.58,23.6 L 31.03,22.84 Z M 43.33,23.2 C 43.63,23.1 43.93,23 44.23,22.92 C 44.37,23.37 44.49,23.84 44.59,24.31 L 43.69,24.51 C 43.58,24.07 43.46,23.63 43.33,23.2 Z M 21.02,23.11 L 21.77,23.65 C 21.67,23.82 21.55,23.99 21.44,24.15 A 57.7,57.7 0 0,1 20.64,23.69 C 20.76,23.49 20.88,23.3 21.02,23.12 Z M 34.12,23.65 L 34.88,23.11 C 35.01,23.31 35.14,23.49 35.25,23.69 A 47,47 0 0,1 34.45,24.16 C 34.35,23.99 34.23,23.82 34.12,23.66 Z M 27.52,23.2 L 27.87,23.18 L 27.88,23.88 H 27.58 L 27.51,23.2 Z M 28.02,23.18 L 28.38,23.2 L 28.32,23.89 L 28.02,23.87 V 23.18 Z M 16.78,23.2 L 17.63,23.57 L 17.29,24.43 L 16.42,24.13 L 16.78,23.2 Z M 23.97,23.49 L 24.34,23.19 L 24.86,23.9 L 24.56,24.15 L 23.96,23.49 Z M 27.01,23.27 L 27.37,23.22 L 27.45,23.9 L 27.15,23.95 L 27.01,23.27 Z M 28.52,23.22 L 28.88,23.27 L 28.75,23.95 L 28.45,23.9 L 28.52,23.22 Z M 31.02,23.9 L 31.56,23.2 L 31.93,23.48 L 31.33,24.15 L 31.03,23.9 Z M 38.27,23.56 L 39.11,23.2 C 39.25,23.5 39.36,23.82 39.47,24.14 L 38.6,24.43 C 38.5,24.13 38.38,23.85 38.27,23.56 Z M 19.11,23.96 C 19.22,23.73 19.34,23.49 19.47,23.26 L 20.27,23.71 L 19.95,24.35 L 19.11,23.96 Z M 22.12,23.68 L 22.49,23.23 L 23.19,23.84 L 22.87,24.23 L 22.12,23.68 Z M 32.72,23.84 L 33.4,23.24 C 33.53,23.38 33.66,23.53 33.77,23.68 L 33.03,24.23 L 32.71,23.84 Z M 35.62,23.72 L 36.42,23.26 C 36.55,23.49 36.67,23.73 36.78,23.96 L 35.94,24.35 C 35.84,24.13 35.73,23.92 35.61,23.72 Z M 12.5,24.57 C 12.6,24.14 12.71,23.71 12.84,23.29 L 13.72,23.56 C 13.6,23.96 13.5,24.36 13.4,24.77 L 12.5,24.57 Z M 26.52,23.4 L 26.87,23.3 L 27.02,23.98 L 26.72,24.05 L 26.52,23.4 Z M 28.87,23.98 L 29.02,23.3 L 29.37,23.4 L 29.17,24.05 L 28.87,23.98 Z M 26.04,23.58 L 26.39,23.44 L 26.61,24.09 L 26.31,24.2 L 26.04,23.57 Z M 29.29,24.09 L 29.51,23.44 L 29.85,23.57 L 29.58,24.2 L 29.28,24.1 Z M 23.52,23.92 L 23.85,23.6 L 24.45,24.24 L 24.17,24.52 L 23.52,23.92 Z M 31.44,24.25 L 32.04,23.59 L 32.38,23.92 L 31.72,24.52 L 31.44,24.25 Z M 25.59,23.8 L 25.91,23.63 L 26.21,24.26 L 25.92,24.39 L 25.59,23.79 Z M 29.98,23.63 L 30.3,23.79 L 29.97,24.39 L 29.69,24.26 L 29.98,23.63 Z M 14,23.64 L 14.88,23.92 L 14.58,25.02 L 13.69,24.82 C 13.78,24.42 13.89,24.03 14,23.64 Z M 17.58,24.52 C 17.68,24.23 17.78,23.95 17.9,23.67 L 18.74,24.04 L 18.44,24.8 L 17.58,24.52 Z M 37.15,24.04 L 37.99,23.67 C 38.11,23.95 38.22,24.23 38.31,24.52 C 38.02,24.62 37.73,24.72 37.44,24.8 L 37.14,24.04 Z M 41.01,23.92 L 41.89,23.64 C 42.01,24.04 42.12,24.43 42.2,24.82 L 41.3,25.02 C 41.21,24.65 41.12,24.28 41,23.92 Z M 21.71,24.3 L 22.01,23.82 L 22.77,24.35 L 22.5,24.77 L 21.7,24.3 Z M 33.12,24.35 L 33.88,23.82 L 34.19,24.3 L 33.39,24.77 L 33.12,24.35 Z M 20.54,23.85 L 21.34,24.31 L 21.08,24.85 C 20.79,24.73 20.51,24.59 20.23,24.46 L 20.53,23.86 Z M 25.16,24.05 L 25.46,23.85 L 25.82,24.45 L 25.56,24.62 L 25.16,24.05 Z M 30.08,24.45 L 30.43,23.85 L 30.73,24.05 L 30.33,24.62 L 30.08,24.45 Z M 34.54,24.31 L 35.35,23.85 C 35.47,24.05 35.57,24.25 35.67,24.46 L 34.82,24.85 L 34.54,24.31 Z M 14.89,25.09 C 14.96,24.72 15.06,24.36 15.17,24.01 L 16.05,24.29 C 15.95,24.62 15.87,24.95 15.79,25.29 L 14.89,25.09 Z M 23.41,24.04 L 24.07,24.62 L 23.82,24.92 L 23.12,24.4 C 23.21,24.27 23.31,24.15 23.41,24.04 Z M 31.81,24.62 L 32.49,24.03 L 32.78,24.4 L 32.07,24.93 L 31.82,24.63 Z M 39.84,24.29 L 40.72,24.01 C 40.84,24.36 40.92,24.73 41.01,25.09 L 40.11,25.29 C 40.02,24.95 39.94,24.62 39.84,24.29 Z M 19.02,24.16 C 19.3,24.27 19.59,24.4 19.87,24.53 L 19.61,25.19 C 19.31,25.09 19.02,25 18.73,24.89 C 18.82,24.65 18.91,24.4 19.02,24.16 Z M 24.76,24.36 L 25.05,24.14 L 25.45,24.69 L 25.22,24.89 L 24.76,24.36 Z M 30.84,24.14 L 31.14,24.36 L 30.68,24.89 A 27.5,27.5 0 0,0 30.43,24.69 L 30.84,24.14 Z M 36.02,24.53 L 36.87,24.16 C 36.98,24.4 37.07,24.65 37.16,24.9 L 36.28,25.2 L 36.02,24.53 Z M 16.08,25.35 C 16.15,25.02 16.23,24.7 16.34,24.38 L 17.22,24.66 C 17.12,24.95 17.05,25.25 16.98,25.55 L 16.08,25.35 Z M 38.68,24.65 L 39.55,24.38 C 39.66,24.7 39.74,25.02 39.81,25.35 L 38.91,25.55 L 38.68,24.65 Z M 21.35,24.97 L 21.61,24.46 L 22.41,24.91 L 22.19,25.35 L 21.35,24.97 Z M 24.4,24.72 L 24.65,24.46 L 25.12,24.96 L 24.9,25.19 L 24.4,24.72 Z M 33.48,24.92 L 34.28,24.46 L 34.55,24.97 L 33.7,25.36 L 33.48,24.91 Z M 30.77,24.97 L 31.23,24.47 L 31.5,24.72 L 30.99,25.19 L 30.77,24.97 Z M 22.77,24.93 C 22.84,24.79 22.93,24.66 23.02,24.53 L 23.74,25.04 L 23.53,25.37 L 22.76,24.93 Z M 32.15,25.04 L 32.87,24.53 C 32.97,24.66 33.05,24.79 33.13,24.93 L 32.37,25.37 C 32.29,25.27 32.22,25.15 32.15,25.04 Z M 11.22,24.63 L 12.14,24.82 C 12.05,25.26 11.99,25.71 11.93,26.16 L 11,26.06 C 11.06,25.57 11.13,25.1 11.22,24.63 Z M 19.9,25.29 C 19.97,25.07 20.05,24.85 20.14,24.64 L 21,25.02 L 20.78,25.58 L 19.9,25.28 Z M 34.9,25.02 L 35.75,24.65 C 35.85,24.85 35.92,25.07 36,25.29 L 35.11,25.58 L 34.9,25.02 Z M 17.5,24.74 L 18.38,25.02 C 18.3,25.28 18.23,25.55 18.17,25.82 L 17.27,25.62 C 17.33,25.32 17.41,25.03 17.5,24.74 Z M 37.52,25.02 L 38.39,24.74 C 38.49,25.03 38.56,25.32 38.62,25.61 L 37.72,25.81 L 37.52,25.02 Z M 24.3,24.82 L 24.82,25.28 L 24.62,25.52 L 24.07,25.1 L 24.3,24.82 Z M 31.07,25.28 L 31.59,24.82 L 31.82,25.1 L 31.27,25.52 L 31.07,25.28 Z M 42.57,25.06 C 42.86,25 43.16,24.93 43.46,24.88 C 43.55,25.31 43.62,25.75 43.66,26.19 L 42.76,26.29 C 42.7,25.88 42.64,25.47 42.56,25.06 Z M 22.67,25.06 C 22.94,25.2 23.2,25.35 23.45,25.5 L 23.28,25.84 C 23,25.73 22.73,25.61 22.47,25.48 L 22.67,25.06 Z M 32.44,25.5 L 33.21,25.06 L 33.42,25.48 L 32.62,25.85 L 32.44,25.5 Z M 13.44,26.33 C 13.48,25.93 13.54,25.52 13.62,25.12 L 14.52,25.3 L 14.35,26.43 L 13.44,26.33 Z M 18.46,25.88 C 18.52,25.62 18.58,25.36 18.66,25.11 C 18.96,25.2 19.26,25.29 19.54,25.39 L 19.36,26.08 L 18.46,25.88 Z M 21.27,25.14 C 21.56,25.25 21.84,25.38 22.12,25.5 L 21.94,25.97 L 21.06,25.67 L 21.27,25.14 Z M 33.77,25.5 L 34.62,25.14 C 34.7,25.31 34.77,25.49 34.82,25.68 L 33.95,25.97 L 33.77,25.51 Z M 36.35,25.39 C 36.65,25.29 36.93,25.19 37.23,25.11 C 37.31,25.36 37.38,25.61 37.43,25.88 L 36.53,26.08 L 36.35,25.38 Z M 41.36,25.3 L 42.26,25.12 C 42.35,25.52 42.41,25.92 42.46,26.32 C 42.16,26.37 41.85,26.4 41.54,26.43 C 41.49,26.05 41.44,25.68 41.36,25.3 Z M 23.79,25.53 L 23.99,25.22 L 24.55,25.62 L 24.38,25.88 L 23.79,25.53 Z M 31.34,25.62 L 31.9,25.22 L 32.1,25.52 L 31.5,25.88 L 31.34,25.62 Z M 14.64,26.46 C 14.69,26.09 14.74,25.73 14.82,25.36 L 15.73,25.55 C 15.66,25.89 15.62,26.23 15.57,26.57 L 14.65,26.47 Z M 40.16,25.55 L 41.06,25.36 C 41.15,25.73 41.2,26.09 41.24,26.46 C 40.94,26.5 40.63,26.54 40.32,26.56 C 40.28,26.23 40.22,25.89 40.16,25.55 Z M 19.66,26.14 C 19.7,25.92 19.76,25.7 19.83,25.48 L 20.73,25.76 L 20.56,26.34 L 19.66,26.14 Z M 15.86,26.6 L 16.02,25.6 C 16.32,25.67 16.62,25.72 16.92,25.8 L 16.78,26.7 L 15.87,26.6 Z M 38.97,25.79 L 39.87,25.61 C 39.94,25.94 39.99,26.27 40.03,26.61 L 39.11,26.71 L 38.97,25.79 Z M 22.23,26.07 L 22.4,25.63 L 23.21,25.98 L 23.08,26.35 L 22.23,26.07 Z M 23.71,25.65 C 23.92,25.75 24.12,25.87 24.31,25.98 L 24.18,26.26 L 23.55,25.97 L 23.71,25.65 Z M 31.57,25.98 L 32.17,25.65 L 32.34,25.97 L 31.71,26.27 L 31.57,25.98 Z M 32.67,25.98 L 33.49,25.63 L 33.66,26.06 L 32.82,26.35 L 32.68,25.98 Z M 21,25.85 L 21.9,26.12 L 21.76,26.61 L 20.86,26.41 L 21,25.85 Z M 34,26.13 C 34.3,26.03 34.59,25.93 34.89,25.85 L 35.03,26.4 C 34.73,26.48 34.43,26.54 34.13,26.6 L 34,26.13 Z M 37.78,26.03 L 38.68,25.85 C 38.73,26.15 38.78,26.44 38.81,26.74 L 37.91,26.84 L 37.78,26.04 Z M 36.58,26.28 L 37.48,26.09 C 37.53,26.35 37.58,26.61 37.61,26.88 L 36.69,26.98 L 36.57,26.28 Z M 23.37,26.44 L 23.49,26.1 L 24.13,26.37 L 24.02,26.67 L 23.37,26.44 Z M 31.77,26.37 L 32.4,26.1 L 32.53,26.44 L 31.87,26.66 L 31.77,26.37 Z M 22.06,26.67 L 22.18,26.22 L 23.03,26.48 L 22.93,26.86 A 28.4,28.4 0 0,1 22.06,26.66 Z M 32.86,26.48 L 33.7,26.22 C 33.75,26.37 33.8,26.52 33.83,26.67 L 32.96,26.87 A 15.9,15.9 0 0,1 32.86,26.48 Z M 19.61,26.34 L 20.53,26.52 L 20.43,27.12 L 19.51,27.02 C 19.53,26.79 19.57,26.56 19.61,26.34 Z M 35.37,26.52 L 36.28,26.34 C 36.33,26.56 36.36,26.79 36.38,27.01 C 36.08,27.05 35.77,27.09 35.46,27.11 L 35.36,26.52 Z M 44,26.48 L 44.93,26.39 C 44.98,26.87 45,27.35 45,27.83 H 44.07 C 44.07,27.38 44.04,26.93 44,26.48 Z M 12.2,26.51 L 13.1,26.6 C 13.07,27.01 13.05,27.43 13.04,27.84 H 12.13 C 12.13,27.39 12.15,26.95 12.19,26.51 Z M 42.79,26.6 L 43.7,26.51 C 43.74,26.95 43.77,27.39 43.77,27.84 H 42.85 C 42.84,27.44 42.82,27.01 42.79,26.6 Z M 20.73,27.15 L 20.82,26.58 L 21.72,26.77 L 21.65,27.26 L 20.73,27.16 Z M 23.23,26.93 L 23.33,26.57 L 23.98,26.77 L 23.9,27.07 L 23.23,26.93 Z M 31.92,26.78 L 32.57,26.58 L 32.67,26.93 L 31.99,27.08 L 31.92,26.78 Z M 34.16,26.77 L 35.07,26.58 L 35.17,27.15 L 34.24,27.25 L 34.16,26.77 Z M 13.34,27.85 C 13.34,27.45 13.36,27.03 13.41,26.63 L 14.32,26.72 L 14.26,27.86 L 13.34,27.85 Z M 40.35,26.83 L 41.27,26.75 C 41.31,27.12 41.33,27.49 41.33,27.86 H 40.41 L 40.35,26.83 Z M 33,27 L 33.87,26.83 L 33.95,27.29 L 33.06,27.39 A 16.9,16.9 0 0,0 33,27 Z M 15.85,26.86 L 16.76,26.96 C 16.74,27.26 16.72,27.56 16.72,27.88 L 15.8,27.87 C 15.8,27.53 15.82,27.2 15.85,26.87 Z M 21.96,27.29 L 22.04,26.83 L 22.91,27.01 L 22.84,27.39 L 21.96,27.29 Z M 39.15,26.95 L 40.07,26.86 L 40.12,27.86 L 39.2,27.88 L 39.15,26.95 Z M 17.06,26.98 L 17.98,27.07 L 17.93,27.89 L 17.02,27.88 C 17.02,27.58 17.03,27.28 17.06,26.98 Z M 37.94,27.07 C 38.24,27.03 38.54,27 38.85,26.98 C 38.88,27.28 38.89,27.58 38.9,27.88 H 37.98 L 37.94,27.07 Z M 23.21,27.07 L 23.88,27.2 L 23.84,27.5 L 23.14,27.42 L 23.21,27.07 Z M 32.03,27.2 L 32.71,27.06 L 32.76,27.43 L 32.08,27.5 L 32.03,27.2 Z M 36.72,27.18 L 37.64,27.1 L 37.68,27.89 H 36.76 L 36.72,27.19 Z M 18.23,27.88 C 18.23,27.62 18.25,27.36 18.27,27.1 L 19.19,27.18 L 19.16,27.9 L 18.23,27.89 Z M 19.49,27.22 L 20.42,27.3 L 20.39,27.9 H 19.46 C 19.46,27.67 19.47,27.44 19.49,27.22 Z M 35.49,27.3 L 36.42,27.21 L 36.45,27.9 H 35.52 L 35.49,27.3 Z M 20.69,27.9 L 20.72,27.33 L 21.64,27.43 L 21.62,27.92 L 20.69,27.91 Z M 34.27,27.42 L 35.19,27.33 L 35.22,27.91 H 34.29 L 34.27,27.42 Z M 33.08,27.54 L 33.96,27.45 L 33.99,27.92 H 33.1 L 33.08,27.54 Z M 21.95,27.45 C 22.25,27.47 22.54,27.5 22.83,27.54 L 22.81,27.93 L 21.92,27.92 C 21.92,27.76 21.94,27.61 21.95,27.45 Z M 23.14,27.57 C 23.37,27.58 23.59,27.61 23.82,27.63 L 23.81,27.93 H 23.11 L 23.14,27.57 Z M 32.09,27.63 L 32.77,27.56 L 32.8,27.93 H 32.1 V 27.63 Z M 20.69,28.09 H 21.62 L 21.64,28.58 L 20.72,28.67 L 20.69,28.09 Z M 21.93,28.08 H 22.81 L 22.83,28.46 L 21.95,28.55 L 21.93,28.08 Z M 23.13,28.07 H 23.81 L 23.82,28.37 L 23.14,28.43 L 23.12,28.07 Z M 37.54,15.1 L 38.1,14.34 C 38.49,14.63 38.86,14.94 39.22,15.25 C 39.02,15.49 38.81,15.72 38.59,15.95 C 38.25,15.65 37.9,15.37 37.54,15.1 Z M 36,14.43 C 36.39,14.65 36.76,14.89 37.12,15.15 L 36.59,15.9 C 36.25,15.65 35.89,15.43 35.54,15.2 L 36,14.43 Z M 26.7,14.72 C 27.07,14.68 27.44,14.66 27.81,14.66 L 27.82,15.58 C 27.48,15.59 27.13,15.6 26.79,15.63 L 26.69,14.72 Z M 20.79,15.32 C 21.14,15.12 21.5,14.93 21.88,14.76 L 22.26,15.6 C 21.92,15.76 21.58,15.93 21.24,16.12 L 20.79,15.32 Z M 25.31,14.92 C 25.68,14.84 26.05,14.78 26.41,14.75 L 26.52,15.66 L 25.49,15.82 L 25.31,14.92 Z M 29.39,15.66 L 29.49,14.75 C 29.87,14.79 30.24,14.85 30.6,14.92 L 30.42,15.82 L 29.39,15.66 Z M 34.04,14.76 C 34.41,14.93 34.77,15.12 35.12,15.32 C 34.98,15.59 34.82,15.86 34.67,16.12 C 34.34,15.94 34,15.76 33.65,15.6 L 34.04,14.76 Z M 30.88,14.98 C 31.24,15.06 31.6,15.15 31.96,15.27 L 31.68,16.14 C 31.35,16.04 31.01,15.96 30.68,15.88 L 30.88,14.98 Z M 17.49,16.18 C 17.83,15.88 18.17,15.6 18.53,15.34 L 19.07,16.07 C 18.74,16.33 18.42,16.59 18.1,16.87 L 17.5,16.17 Z M 32.23,15.35 C 32.58,15.47 32.93,15.61 33.27,15.75 L 32.9,16.6 C 32.58,16.47 32.26,16.34 31.93,16.23 L 32.23,15.35 Z M 36.84,16.07 C 37.02,15.82 37.2,15.57 37.39,15.34 C 37.74,15.6 38.09,15.88 38.42,16.18 L 37.82,16.86 L 36.84,16.07 Z M 22.64,15.76 C 22.98,15.61 23.34,15.48 23.69,15.36 L 23.98,16.23 C 23.65,16.34 23.33,16.47 23.01,16.6 L 22.64,15.76 Z M 19.5,16.14 C 19.83,15.9 20.17,15.67 20.53,15.47 L 20.99,16.27 L 20.03,16.88 L 19.5,16.14 Z M 26.82,15.93 C 27.15,15.9 27.49,15.88 27.82,15.88 L 27.83,16.8 C 27.53,16.8 27.21,16.82 26.9,16.84 L 26.82,15.93 Z M 28.09,15.88 C 28.42,15.88 28.76,15.9 29.09,15.93 L 29.01,16.84 C 28.7,16.82 28.39,16.8 28.08,16.8 V 15.88 Z M 21.39,16.38 C 21.71,16.19 22.04,16.03 22.39,15.88 L 22.77,16.71 C 22.45,16.86 22.15,17.01 21.84,17.18 L 21.39,16.38 Z M 33.14,16.71 L 33.53,15.87 C 33.87,16.03 34.2,16.19 34.53,16.37 L 34.07,17.18 C 33.77,17.01 33.46,16.86 33.14,16.71 Z M 25.56,16.11 C 25.88,16.05 26.22,16 26.56,15.96 L 26.66,16.86 L 25.74,17.01 L 25.56,16.11 Z M 29.36,15.96 C 29.69,16 30.03,16.04 30.36,16.12 L 30.17,17.02 C 29.87,16.96 29.56,16.92 29.25,16.87 L 29.35,15.96 Z M 24.32,16.43 C 24.64,16.33 24.97,16.25 25.3,16.17 L 25.5,17.07 C 25.2,17.14 24.9,17.21 24.6,17.3 L 24.32,16.43 Z M 30.62,16.17 C 30.94,16.24 31.27,16.33 31.59,16.43 L 31.31,17.3 L 30.41,17.07 L 30.61,16.17 Z M 18.3,17.08 C 18.6,16.81 18.92,16.55 19.25,16.31 L 19.8,17.05 C 19.5,17.28 19.2,17.52 18.91,17.77 C 18.71,17.54 18.5,17.32 18.31,17.08 Z M 36.11,17.05 L 36.66,16.31 C 36.99,16.56 37.31,16.81 37.61,17.09 L 37,17.77 C 36.71,17.52 36.42,17.28 36.11,17.05 Z M 23.13,16.87 C 23.43,16.74 23.76,16.62 24.08,16.51 L 24.37,17.38 C 24.07,17.48 23.78,17.59 23.5,17.71 L 23.13,16.87 Z M 31.55,17.38 L 31.85,16.51 C 32.15,16.62 32.48,16.74 32.78,16.87 C 32.66,17.16 32.54,17.44 32.41,17.71 A 20.3,20.3 0 0,0 31.55,17.38 Z M 15.17,16.75 L 15.87,17.37 C 15.57,17.71 15.29,18.07 15.01,18.42 L 14.26,17.87 C 14.54,17.48 14.85,17.11 15.16,16.75 Z M 40.04,17.37 L 40.74,16.75 C 41.06,17.11 41.37,17.48 41.65,17.86 C 41.41,18.06 41.15,18.24 40.9,18.42 C 40.63,18.06 40.34,17.72 40.04,17.37 Z M 21.99,17.44 C 22.29,17.27 22.59,17.12 22.89,16.98 L 23.27,17.81 L 22.45,18.24 L 21.99,17.44 Z M 33.02,16.98 C 33.32,17.12 33.62,17.28 33.92,17.44 C 33.78,17.71 33.62,17.97 33.47,18.24 C 33.19,18.09 32.92,17.94 32.64,17.82 L 33.02,16.98 Z M 26.93,17.14 C 27.23,17.11 27.53,17.1 27.83,17.09 L 27.84,18.01 C 27.57,18.01 27.29,18.03 27.02,18.05 L 26.93,17.15 Z M 28.07,18.01 L 28.08,17.09 C 28.38,17.09 28.68,17.11 28.98,17.14 L 28.89,18.05 L 28.07,18.01 Z M 25.8,17.31 C 26.1,17.25 26.4,17.2 26.7,17.17 L 26.8,18.07 L 25.99,18.2 C 25.91,17.9 25.86,17.6 25.8,17.3 Z M 29.22,17.17 C 29.52,17.2 29.82,17.24 30.12,17.31 A 63,63 0 0,1 29.93,18.21 L 29.12,18.07 L 29.22,17.17 Z M 17.21,18.15 C 17.48,17.85 17.77,17.56 18.08,17.29 L 18.7,17.96 C 18.42,18.22 18.15,18.49 17.88,18.77 L 17.21,18.15 Z M 19.11,18 C 19.39,17.75 19.68,17.51 19.97,17.3 C 20.17,17.53 20.34,17.78 20.53,18.03 C 20.25,18.24 19.99,18.46 19.73,18.69 L 19.11,17.99 Z M 35.39,18.03 L 35.94,17.29 C 36.24,17.51 36.53,17.75 36.8,17.99 L 36.2,18.69 A 25,25 0 0,0 35.39,18.03 Z M 37.22,17.96 L 37.83,17.29 C 38.14,17.56 38.43,17.85 38.7,18.15 L 38.03,18.77 C 37.76,18.49 37.49,18.22 37.22,17.97 Z M 24.69,17.59 C 24.98,17.5 25.27,17.42 25.56,17.36 L 25.76,18.26 L 24.96,18.46 L 24.69,17.59 Z M 15.25,18.6 C 15.52,18.24 15.8,17.9 16.1,17.57 L 16.78,18.17 C 16.51,18.49 16.24,18.81 15.99,19.14 C 15.74,18.97 15.49,18.79 15.25,18.6 Z M 20.92,18.12 C 21.19,17.92 21.47,17.74 21.76,17.57 C 21.92,17.83 22.08,18.09 22.23,18.37 C 21.97,18.52 21.71,18.69 21.45,18.87 L 20.92,18.12 Z M 33.68,18.36 L 34.15,17.56 C 34.44,17.74 34.72,17.92 34.99,18.12 L 34.46,18.87 C 34.2,18.7 33.95,18.52 33.68,18.37 Z M 23.61,18 C 23.88,17.88 24.16,17.77 24.45,17.68 L 24.75,18.54 L 23.97,18.84 L 23.61,18 Z M 31.44,17.68 C 31.73,17.77 32.01,17.88 32.29,18 L 31.92,18.84 L 31.15,18.54 L 31.45,17.68 Z M 32.13,18.93 C 32.25,18.65 32.37,18.37 32.51,18.1 C 32.78,18.23 33.05,18.36 33.31,18.51 L 32.86,19.31 A 20.3,20.3 0 0,0 32.13,18.93 Z M 13.26,19.36 C 13.5,18.95 13.76,18.55 14.05,18.16 L 14.81,18.7 L 14.07,19.83 A 48.4,48.4 0 0,1 13.27,19.36 Z M 41.08,18.7 C 41.34,18.52 41.58,18.33 41.84,18.16 C 42.12,18.55 42.39,18.95 42.64,19.36 L 41.82,19.83 C 41.59,19.45 41.34,19.07 41.08,18.7 Z M 18.1,18.98 C 18.35,18.71 18.61,18.44 18.9,18.19 L 19.51,18.87 C 19.26,19.11 19.01,19.35 18.78,19.6 L 18.1,18.98 Z M 36.38,18.88 C 36.58,18.64 36.79,18.42 37,18.19 C 37.28,18.44 37.55,18.71 37.8,18.99 L 37.11,19.6 C 36.87,19.36 36.63,19.1 36.38,18.87 Z M 19.91,18.92 C 20.16,18.69 20.42,18.48 20.69,18.28 C 20.89,18.52 21.06,18.78 21.24,19.02 C 21,19.21 20.76,19.4 20.52,19.61 C 20.32,19.38 20.11,19.15 19.92,18.91 Z M 27.04,18.36 C 27.31,18.34 27.57,18.32 27.84,18.32 V 19.24 C 27.61,19.24 27.37,19.26 27.13,19.28 L 27.03,18.36 Z M 28.06,18.32 C 28.32,18.32 28.59,18.34 28.86,18.36 L 28.76,19.28 L 28.05,19.24 V 18.32 Z M 34.66,19.02 C 34.83,18.77 35.01,18.52 35.2,18.28 C 35.47,18.48 35.73,18.7 35.98,18.92 L 35.37,19.61 L 34.65,19.01 Z M 26.03,18.51 C 26.29,18.45 26.55,18.41 26.82,18.38 L 26.92,19.3 L 26.22,19.4 L 26.03,18.5 Z M 29.07,18.38 C 29.34,18.41 29.6,18.45 29.86,18.51 L 29.67,19.41 L 28.97,19.3 L 29.07,18.38 Z M 16.22,19.33 C 16.47,19 16.72,18.69 17,18.39 L 17.69,18.99 C 17.44,19.29 17.19,19.58 16.96,19.88 L 16.22,19.33 Z M 30.08,18.55 L 30.84,18.75 C 30.76,19.05 30.66,19.35 30.57,19.63 L 29.87,19.45 L 30.07,18.55 Z M 21.62,19.12 C 21.86,18.94 22.12,18.78 22.37,18.62 L 22.84,19.42 C 22.6,19.56 22.38,19.72 22.14,19.87 L 21.62,19.12 Z M 33.05,19.42 L 33.52,18.62 L 34.28,19.12 L 33.74,19.87 C 33.52,19.71 33.29,19.57 33.05,19.42 Z M 24.1,19.11 C 24.34,19.01 24.59,18.91 24.84,18.83 L 25.14,19.7 L 24.46,19.95 L 24.1,19.11 Z M 32.1,28.07 L 32.79,28.08 L 32.77,28.44 L 32.08,28.38 L 32.1,28.08 Z M 33.1,28.08 L 33.98,28.09 L 33.96,28.56 L 33.07,28.47 L 33.1,28.08 Z M 34.29,28.09 H 35.21 C 35.21,28.29 35.2,28.49 35.18,28.68 L 34.26,28.58 L 34.29,28.09 Z M 14.56,28.15 H 15.49 C 15.49,28.49 15.51,28.83 15.54,29.17 L 14.62,29.27 C 14.58,28.89 14.57,28.52 14.56,28.15 Z M 15.79,28.15 C 16.09,28.13 16.4,28.13 16.71,28.13 C 16.71,28.44 16.73,28.75 16.75,29.06 L 15.84,29.15 A 15,15 0 0,1 15.79,28.15 Z M 17.01,28.13 H 17.92 L 17.97,28.94 L 17.05,29.04 C 17.02,28.74 17.01,28.43 17.01,28.13 Z M 18.22,28.12 H 19.15 C 19.15,28.35 19.17,28.59 19.19,28.82 L 18.26,28.92 A 9.33,9.33 0 0,1 18.22,28.12 Z M 19.45,28.11 H 20.38 L 20.41,28.71 L 19.48,28.79 A 8.76,8.76 0 0,1 19.45,28.11 Z M 35.51,28.11 H 36.44 C 36.44,28.34 36.44,28.57 36.41,28.8 L 35.48,28.7 L 35.51,28.1 Z M 36.71,28.83 L 36.74,28.11 H 37.67 C 37.67,28.38 37.65,28.65 37.63,28.91 L 36.71,28.83 Z M 37.97,28.13 H 38.88 C 38.88,28.43 38.86,28.73 38.84,29.03 L 37.93,28.93 L 37.97,28.13 Z M 39.19,28.13 L 40.11,28.14 C 40.11,28.48 40.08,28.81 40.06,29.14 L 39.14,29.06 L 39.19,28.13 Z M 40.41,28.14 L 41.33,28.15 C 41.33,28.52 41.31,28.89 41.27,29.26 L 40.35,29.17 C 40.38,28.83 40.39,28.49 40.41,28.14 Z M 12.12,28.17 H 13.04 C 13.04,28.57 13.07,29 13.1,29.41 L 12.2,29.5 C 12.14,29.06 12.13,28.62 12.12,28.17 Z M 13.34,28.17 C 13.64,28.15 13.95,28.15 14.26,28.15 L 14.32,29.29 L 13.41,29.39 C 13.36,28.98 13.35,28.57 13.34,28.16 Z M 44.07,28.17 L 45,28.18 C 45,28.66 44.98,29.14 44.93,29.62 L 44,29.52 C 44.03,29.08 44.06,28.62 44.07,28.17 Z M 23.14,28.58 L 23.83,28.5 L 23.87,28.8 L 23.2,28.94 L 23.14,28.58 Z M 32.07,28.5 L 32.76,28.58 L 32.7,28.94 L 32.02,28.81 L 32.07,28.51 Z M 21.95,28.72 L 22.85,28.62 L 22.9,29 L 22.03,29.18 L 21.95,28.72 Z M 33.05,28.62 L 33.94,28.72 L 33.87,29.18 C 33.57,29.13 33.29,29.06 33,29 L 33.06,28.62 Z M 20.73,28.85 L 21.65,28.75 L 21.73,29.25 L 20.82,29.43 A 6.9,6.9 0 0,1 20.73,28.85 Z M 34.16,29.25 L 34.25,28.75 L 35.16,28.85 C 35.14,29.05 35.11,29.24 35.07,29.43 L 34.17,29.24 Z M 19.5,29 L 20.43,28.89 L 20.53,29.49 L 19.61,29.67 A 7.61,7.61 0 0,1 19.51,29 Z M 35.46,28.89 L 36.39,28.99 L 36.29,29.67 L 35.37,29.49 L 35.46,28.89 Z M 23.23,29.08 L 23.9,28.93 L 23.98,29.23 L 23.33,29.43 A 15.9,15.9 0 0,1 23.23,29.08 Z M 31.92,29.23 L 31.99,28.93 L 32.67,29.08 L 32.57,29.43 L 31.92,29.23 Z M 36.69,29.03 L 37.61,29.13 L 37.48,29.91 L 36.58,29.73 L 36.68,29.03 Z M 17.08,29.27 L 17.98,29.17 L 18.12,29.97 L 17.22,30.17 C 17.16,29.87 17.12,29.57 17.08,29.27 Z M 22.06,29.34 L 22.93,29.14 L 23.03,29.52 L 22.19,29.79 C 22.14,29.64 22.09,29.49 22.06,29.34 Z M 32.96,29.15 C 33.26,29.21 33.55,29.27 33.83,29.35 L 33.71,29.79 L 32.86,29.53 L 32.96,29.15 Z M 15.86,29.4 L 16.78,29.3 L 16.92,30.22 L 16.02,30.4 C 15.95,30.07 15.91,29.74 15.87,29.4 Z M 23.36,29.57 L 24.02,29.35 L 24.12,29.64 L 23.5,29.91 L 23.37,29.57 Z M 31.76,29.64 L 31.87,29.34 L 32.53,29.57 L 32.39,29.91 C 32.19,29.81 31.97,29.73 31.77,29.64 Z M 14.66,29.54 L 15.56,29.44 C 15.62,29.78 15.66,30.12 15.73,30.46 L 14.83,30.65 C 14.75,30.28 14.69,29.91 14.65,29.55 Z M 20.86,29.6 L 21.76,29.4 C 21.81,29.56 21.86,29.72 21.89,29.88 C 21.59,29.98 21.3,30.08 21.01,30.16 C 20.95,29.98 20.9,29.79 20.86,29.6 Z M 34,29.88 L 34.13,29.4 L 35.03,29.6 L 34.89,30.16 L 34,29.88 Z M 40.32,29.44 L 41.24,29.54 C 41.2,29.91 41.14,30.28 41.07,30.64 L 40.17,30.46 L 40.32,29.44 Z M 13.44,29.68 L 14.35,29.58 C 14.4,29.96 14.46,30.33 14.53,30.71 L 13.63,30.89 C 13.54,30.49 13.48,30.09 13.43,29.69 Z M 41.54,29.58 L 42.46,29.68 C 42.41,30.08 42.35,30.48 42.26,30.89 L 41.36,30.7 C 41.43,30.33 41.49,29.95 41.54,29.58 Z M 19.66,29.87 L 20.56,29.67 L 20.72,30.25 L 19.83,30.53 A 6.9,6.9 0 0,1 19.66,29.87 Z M 22.23,29.94 L 23.08,29.66 L 23.22,30.03 L 22.4,30.38 L 22.23,29.94 Z M 32.68,30.04 L 32.82,29.66 L 33.66,29.94 C 33.61,30.09 33.56,30.24 33.49,30.38 C 33.22,30.28 32.95,30.15 32.68,30.03 Z M 35.18,30.25 C 35.22,30.05 35.28,29.86 35.33,29.67 L 36.23,29.87 A 9,9 0 0,1 36.06,30.53 L 35.17,30.25 Z M 12.23,29.82 L 13.13,29.72 C 13.19,30.12 13.25,30.54 13.33,30.95 L 12.43,31.13 C 12.33,30.7 12.28,30.26 12.23,29.82 Z M 23.55,30.04 L 24.18,29.74 L 24.32,30.02 L 23.72,30.36 A 8.7,8.7 0 0,1 23.56,30.04 Z M 31.71,29.74 L 32.34,30.04 C 32.29,30.14 32.24,30.25 32.17,30.36 C 31.97,30.26 31.77,30.14 31.57,30.02 L 31.71,29.75 Z M 42.56,30.94 C 42.64,30.54 42.7,30.13 42.76,29.71 L 43.66,29.81 C 43.62,30.26 43.55,30.7 43.46,31.13 L 42.56,30.95 Z M 11,29.95 L 11.93,29.85 C 11.98,30.3 12.06,30.75 12.13,31.19 L 11.23,31.38 C 11.13,30.91 11.05,30.43 11,29.95 Z M 18.46,30.13 L 19.36,29.93 L 19.54,30.63 L 18.66,30.9 L 18.46,30.13 Z M 36.35,30.63 L 36.53,29.93 L 37.43,30.13 C 37.38,30.39 37.31,30.65 37.23,30.9 L 36.35,30.62 Z M 21.06,30.33 L 21.94,30.04 L 22.12,30.5 L 21.27,30.87 A 7.89,7.89 0 0,1 21.07,30.33 Z M 33.95,30.04 L 34.83,30.34 L 34.63,30.87 C 34.33,30.76 34.06,30.63 33.77,30.51 L 33.95,30.04 Z M 22.47,30.53 L 23.27,30.16 L 23.46,30.51 L 22.68,30.95 A 6.1,6.1 0 0,1 22.47,30.53 Z M 23.79,30.48 L 24.39,30.13 L 24.55,30.39 L 23.99,30.79 L 23.79,30.48 Z M 31.34,30.39 L 31.51,30.13 L 32.1,30.48 L 31.9,30.78 C 31.71,30.66 31.53,30.52 31.34,30.39 Z M 32.44,30.51 L 32.62,30.16 L 33.42,30.53 L 33.22,30.95 C 32.95,30.81 32.7,30.65 32.44,30.51 Z M 17.27,30.4 C 17.57,30.32 17.87,30.26 18.17,30.2 L 18.37,30.99 L 17.5,31.27 C 17.41,30.97 17.34,30.69 17.27,30.4 Z M 37.72,30.2 C 38.02,30.26 38.32,30.32 38.62,30.4 C 38.56,30.69 38.48,30.98 38.39,31.27 L 37.52,30.99 L 37.72,30.19 Z M 19.89,30.72 L 20.79,30.42 L 20.99,30.99 L 20.14,31.36 C 20.05,31.16 19.97,30.94 19.89,30.72 Z M 35.11,30.42 L 36,30.72 L 35.75,31.36 L 34.9,30.99 L 35.11,30.43 Z M 16.08,30.66 L 16.98,30.46 L 17.21,31.36 L 16.34,31.63 C 16.24,31.31 16.15,30.98 16.08,30.66 Z M 38.91,30.46 L 39.81,30.66 C 39.74,30.99 39.66,31.31 39.56,31.63 C 39.26,31.55 38.97,31.45 38.68,31.36 L 38.91,30.46 Z M 24.07,30.9 L 24.63,30.49 L 24.83,30.73 L 24.3,31.18 L 24.07,30.9 Z M 31.07,30.73 L 31.27,30.49 L 31.82,30.9 L 31.59,31.19 L 31.07,30.73 Z M 21.35,31.03 L 22.19,30.65 L 22.41,31.1 L 21.61,31.55 C 21.51,31.38 21.43,31.21 21.35,31.04 Z M 22.76,31.09 L 23.53,30.63 L 23.74,30.96 C 23.51,31.14 23.26,31.31 23.02,31.48 C 22.92,31.35 22.84,31.22 22.76,31.08 Z M 32.16,30.97 L 32.36,30.63 L 33.13,31.09 L 32.88,31.48 C 32.63,31.32 32.4,31.14 32.15,30.97 Z M 33.7,30.65 L 34.55,31.04 A 5.9,5.9 0 0,1 34.28,31.55 L 33.48,31.1 L 33.7,30.65 Z M 14.88,30.92 L 15.78,30.72 C 15.87,31.06 15.95,31.39 16.05,31.72 C 15.75,31.82 15.47,31.92 15.17,32 C 15.06,31.64 14.97,31.28 14.88,30.92 Z M 40.1,30.72 L 41.01,30.92 C 40.93,31.28 40.84,31.64 40.72,32 L 39.84,31.72 C 39.94,31.39 40.02,31.06 40.1,30.72 Z M 18.74,31.11 L 19.61,30.81 L 19.87,31.48 L 19.02,31.85 C 18.92,31.61 18.82,31.35 18.74,31.11 Z M 24.4,31.29 L 24.9,30.82 L 25.12,31.04 L 24.66,31.54 C 24.56,31.46 24.48,31.38 24.4,31.29 Z M 30.77,31.04 L 30.99,30.82 L 31.49,31.29 L 31.23,31.55 L 30.77,31.04 Z M 36.02,31.48 C 36.12,31.26 36.2,31.04 36.28,30.82 L 37.16,31.11 C 37.08,31.36 36.98,31.61 36.87,31.85 L 36.02,31.48 Z M 23.12,31.61 L 23.82,31.08 L 24.07,31.38 L 23.41,31.98 A 9.8,9.8 0 0,1 23.11,31.61 Z M 31.82,31.39 L 32.07,31.09 C 32.31,31.25 32.55,31.43 32.77,31.61 L 32.48,31.97 L 31.82,31.39 Z M 24.76,31.64 L 25.22,31.12 L 25.46,31.32 L 25.04,31.87 L 24.76,31.64 Z M 30.43,31.32 L 30.68,31.12 L 31.13,31.64 L 30.85,31.87 L 30.43,31.32 Z M 17.58,31.49 L 18.45,31.2 L 18.75,31.97 L 17.9,32.33 C 17.78,32.06 17.68,31.78 17.58,31.49 Z M 20.22,31.55 C 20.5,31.41 20.79,31.29 21.07,31.16 L 21.35,31.7 L 20.54,32.16 L 20.22,31.55 Z M 34.54,31.7 L 34.82,31.16 C 35.1,31.29 35.39,31.41 35.67,31.55 L 35.36,32.15 C 35.08,32.01 34.81,31.85 34.54,31.7 Z M 21.7,31.7 L 22.5,31.24 L 22.77,31.66 A 90,90 0 0,1 22.02,32.19 A 6.2,6.2 0 0,1 21.7,31.71 Z M 33.4,31.24 L 34.2,31.71 L 33.88,32.19 L 33.12,31.66 L 33.39,31.24 Z M 25.56,31.39 L 25.82,31.56 L 25.47,32.16 L 25.16,31.96 L 25.56,31.39 Z M 30.08,31.56 L 30.34,31.39 L 30.74,31.95 L 30.43,32.15 L 30.08,31.55 Z M 23.51,32.09 L 24.17,31.49 L 24.45,31.77 L 23.85,32.42 L 23.51,32.09 Z M 31.72,31.49 L 32.38,32.09 C 32.27,32.21 32.16,32.32 32.04,32.42 C 31.84,32.22 31.64,31.99 31.44,31.77 L 31.72,31.5 Z M 43.68,31.51 L 44.6,31.71 C 44.5,32.18 44.37,32.64 44.23,33.11 L 43.33,32.82 C 43.47,32.39 43.58,31.95 43.68,31.52 Z M 25.92,31.62 L 26.2,31.76 L 25.91,32.39 L 25.59,32.22 L 25.92,31.62 Z M 29.69,31.76 L 29.97,31.62 L 30.3,32.22 L 29.98,32.39 L 29.69,31.76 Z M 38.59,31.59 L 39.47,31.88 C 39.37,32.2 39.25,32.51 39.11,32.82 A 39,39 0 0,1 38.27,32.46 L 38.6,31.59 Z M 19.11,32.05 L 19.95,31.67 L 20.28,32.31 L 19.48,32.76 A 8.39,8.39 0 0,1 19.11,32.06 Z M 35.94,31.67 L 36.78,32.05 C 36.68,32.29 36.55,32.53 36.42,32.75 C 36.15,32.61 35.88,32.45 35.62,32.3 L 35.94,31.67 Z M 22.12,32.34 L 22.87,31.79 L 23.17,32.18 L 22.49,32.78 L 22.12,32.34 Z M 26.32,31.82 L 26.6,31.92 L 26.38,32.58 L 26.04,32.45 L 26.31,31.82 Z M 29.29,31.92 L 29.58,31.82 L 29.85,32.45 L 29.51,32.57 L 29.29,31.92 Z M 32.71,32.18 L 33.02,31.78 L 33.77,32.34 L 33.41,32.78 L 32.71,32.18 Z M 20.64,32.33 L 21.44,31.86 L 21.78,32.36 L 21.02,32.91 A 7.9,7.9 0 0,1 20.64,32.33 Z M 24.55,31.87 L 24.86,32.11 L 24.34,32.83 L 23.97,32.53 L 24.55,31.87 Z M 31.03,32.12 L 31.33,31.87 L 31.93,32.53 L 31.56,32.83 L 31.03,32.12 Z M 15.26,32.27 L 16.14,31.97 C 16.25,32.3 16.38,32.62 16.51,32.94 L 15.66,33.31 C 15.51,32.97 15.38,32.61 15.26,32.27 Z M 26.52,32.62 L 26.72,31.97 L 27.02,32.04 L 26.87,32.72 A 28.6,28.6 0 0,1 26.52,32.62 Z M 28.87,32.04 L 29.17,31.97 L 29.37,32.62 L 29.02,32.72 L 28.87,32.04 Z M 39.75,31.97 L 40.63,32.27 C 40.51,32.62 40.38,32.97 40.23,33.31 L 39.38,32.94 C 39.52,32.62 39.64,32.3 39.75,31.97 Z M 27.15,32.07 L 27.45,32.12 L 27.37,32.8 L 27.01,32.74 L 27.14,32.07 Z M 28.45,32.12 L 28.75,32.07 L 28.89,32.74 L 28.52,32.8 L 28.44,32.12 Z M 27.57,32.13 L 27.89,32.15 L 27.88,32.83 L 27.51,32.82 L 27.57,32.13 Z M 28.01,32.15 L 28.31,32.13 C 28.34,32.36 28.37,32.59 28.38,32.82 C 28.26,32.82 28.14,32.82 28.02,32.84 L 28.01,32.14 Z M 18.01,32.55 L 18.84,32.18 L 19.21,32.91 L 18.41,33.35 A 11.2,11.2 0 0,1 18.01,32.55 Z M 30.58,32.42 L 30.91,32.2 L 31.43,32.92 L 31.03,33.18 L 30.58,32.42 Z M 37.05,32.18 C 37.33,32.29 37.61,32.42 37.89,32.55 C 37.77,32.83 37.63,33.09 37.49,33.35 C 37.21,33.21 36.95,33.05 36.69,32.91 L 37.05,32.18 Z M 24.47,32.92 L 24.97,32.2 L 25.31,32.42 L 24.86,33.18 A 4.52,4.52 0 0,1 24.46,32.92 Z M 32.6,32.3 L 33.28,32.92 C 33.15,33.06 33.02,33.2 32.88,33.32 A 29.5,29.5 0 0,1 32.25,32.65 L 32.6,32.3 Z M 22.6,32.92 L 23.3,32.3 C 23.4,32.42 23.53,32.53 23.64,32.65 L 23.02,33.33 A 7.07,7.07 0 0,1 22.61,32.93 Z M 14.1,32.65 L 14.98,32.35 C 15.1,32.72 15.24,33.07 15.38,33.43 L 14.54,33.79 C 14.38,33.42 14.24,33.04 14.1,32.65 Z M 40.5,33.43 C 40.65,33.07 40.79,32.72 40.92,32.36 L 41.79,32.65 C 41.66,33.03 41.53,33.41 41.36,33.77 C 41.06,33.71 40.79,33.54 40.51,33.43 Z M 19.58,32.95 L 20.38,32.48 L 20.78,33.08 L 20.02,33.61 C 19.87,33.4 19.72,33.18 19.58,32.95 Z M 25.44,32.49 L 25.79,32.66 L 25.42,33.46 A 4.92,4.92 0 0,1 25,33.26 L 25.44,32.49 Z M 30.11,32.66 L 30.46,32.49 L 30.89,33.25 A 6.2,6.2 0 0,1 30.47,33.47 L 30.11,32.67 Z M 35.12,33.08 L 35.52,32.48 L 36.31,32.95 C 36.18,33.18 36.03,33.4 35.87,33.61 L 35.12,33.08 Z M 33.62,32.98 L 34.01,32.52 L 34.76,33.07 A 7.6,7.6 0 0,1 34.32,33.6 C 34.09,33.4 33.85,33.2 33.62,32.98 Z M 16.89,33.06 L 17.73,32.68 C 17.87,32.95 18,33.23 18.15,33.5 C 17.89,33.66 17.62,33.8 17.35,33.95 C 17.18,33.67 17.03,33.36 16.89,33.05 Z M 29.6,32.86 L 29.97,32.72 L 30.33,33.53 L 29.89,33.7 L 29.6,32.86 Z M 37.74,33.5 C 37.89,33.23 38.03,32.95 38.16,32.68 L 39,33.06 C 38.86,33.36 38.7,33.66 38.54,33.96 L 37.74,33.5 Z M 12.94,33.03 L 13.82,32.75 C 13.96,33.14 14.1,33.53 14.27,33.91 L 13.43,34.28 C 13.25,33.87 13.09,33.46 12.95,33.03 Z M 23.15,33.45 L 23.76,32.76 L 24.16,33.07 L 23.6,33.81 L 23.15,33.45 Z M 25.57,33.54 C 25.67,33.26 25.8,32.99 25.92,32.72 L 26.29,32.87 L 26,33.7 L 25.57,33.54 Z M 31.74,33.07 L 32.13,32.76 L 32.73,33.45 C 32.59,33.58 32.44,33.7 32.29,33.81 L 31.74,33.07 Z M 41.63,33.91 C 41.79,33.53 41.93,33.14 42.07,32.75 L 42.94,33.03 C 42.81,33.46 42.64,33.87 42.46,34.28 L 41.63,33.91 Z M 26.43,32.91 L 26.81,33.01 L 26.61,33.88 L 26.16,33.76 A 37,37 0 0,1 26.42,32.91 Z M 29.09,33.01 L 29.47,32.91 L 29.73,33.75 L 29.28,33.87 L 29.08,33.01 Z M 26.95,33.04 L 27.34,33.1 L 27.24,33.98 L 26.77,33.91 C 26.82,33.61 26.89,33.33 26.95,33.04 Z M 28.56,33.1 L 28.94,33.04 L 29.12,33.91 A 17,17 0 0,1 28.66,33.98 L 28.56,33.1 Z M 11.78,33.43 L 12.66,33.13 C 12.81,33.56 12.97,33.98 13.16,34.39 L 12.29,34.77 C 12.09,34.33 11.93,33.88 11.78,33.43 Z M 21.7,33.75 L 22.39,33.12 L 22.82,33.55 L 22.19,34.23 A 8.28,8.28 0 0,1 21.7,33.75 Z M 27.48,33.12 L 27.88,33.14 L 27.87,34.02 L 27.39,34 L 27.48,33.12 Z M 28.02,33.14 L 28.42,33.12 L 28.5,34 L 28.03,34.02 L 28.02,33.14 Z M 33.5,33.12 C 33.74,33.32 33.96,33.54 34.2,33.75 L 33.7,34.23 L 33.07,33.55 C 33.22,33.41 33.37,33.27 33.5,33.12 Z M 36.57,33.1 L 37.36,33.56 C 37.21,33.82 37.04,34.07 36.86,34.32 L 36.12,33.79 L 36.57,33.1 Z M 15.77,33.56 L 16.62,33.18 C 16.77,33.49 16.92,33.8 17.09,34.1 L 16.29,34.56 C 16.1,34.23 15.94,33.9 15.78,33.56 Z M 23.75,33.92 L 24.29,33.17 C 24.42,33.27 24.56,33.35 24.7,33.44 L 24.24,34.24 A 6.9,6.9 0 0,1 23.75,33.92 Z M 31.19,33.44 L 31.6,33.17 L 32.14,33.92 A 6.9,6.9 0 0,1 31.66,34.23 L 31.19,33.44 Z M 39.27,33.18 C 39.56,33.3 39.84,33.43 40.11,33.56 C 39.96,33.9 39.79,34.23 39.61,34.56 L 38.81,34.1 L 39.27,33.18 Z M 20.15,33.8 C 20.39,33.6 20.65,33.43 20.89,33.25 L 21.34,33.8 L 20.65,34.4 C 20.47,34.21 20.31,34 20.15,33.8 Z M 34.55,33.8 L 35,33.25 C 35.25,33.42 35.5,33.61 35.74,33.8 C 35.59,34 35.42,34.21 35.24,34.4 L 34.55,33.8 Z M 24.39,34.33 L 24.85,33.52 L 25.29,33.75 L 24.91,34.59 A 7.38,7.38 0 0,1 24.39,34.33 Z M 30.59,33.75 L 31.04,33.52 L 31.5,34.32 L 30.99,34.59 L 30.59,33.75 Z M 14.67,34.07 L 15.51,33.69 C 15.67,34.03 15.84,34.37 16.03,34.7 L 15.23,35.16 C 15.03,34.8 14.83,34.44 14.67,34.06 Z M 22.34,34.37 C 22.54,34.13 22.74,33.9 22.96,33.67 L 23.42,34.06 L 22.87,34.8 A 8.2,8.2 0 0,1 22.34,34.37 Z M 32.47,34.05 L 32.94,33.67 L 33.55,34.37 C 33.38,34.52 33.2,34.67 33.02,34.8 C 32.83,34.56 32.65,34.3 32.47,34.05 Z M 40.38,33.69 L 41.23,34.07 C 41.06,34.44 40.87,34.8 40.67,35.16 L 39.87,34.7 C 40.05,34.37 40.22,34.03 40.38,33.69 Z M 17.48,34.18 L 18.28,33.72 L 18.78,34.49 L 18.03,35.02 C 17.83,34.75 17.65,34.47 17.48,34.18 Z M 37.62,33.72 L 38.41,34.18 C 38.24,34.48 38.05,34.75 37.86,35.03 L 37.11,34.49 C 37.28,34.24 37.45,33.99 37.61,33.72 Z M 25.44,33.82 L 25.91,33.99 L 25.61,34.87 A 5.49,5.49 0 0,1 25.07,34.66 L 25.44,33.82 Z M 29.98,33.99 L 30.45,33.81 L 30.82,34.66 A 7.5,7.5 0 0,1 30.28,34.86 L 29.98,33.99 Z M 20.8,34.58 C 21.02,34.36 21.25,34.15 21.48,33.95 L 21.98,34.45 L 21.36,35.14 C 21.16,34.96 20.98,34.77 20.8,34.58 Z M 33.9,34.45 C 34.08,34.29 34.25,34.12 34.41,33.95 C 34.64,34.15 34.87,34.36 35.09,34.58 C 34.91,34.77 34.73,34.96 34.53,35.13 L 33.91,34.45 Z M 35.99,33.97 L 36.72,34.51 C 36.55,34.76 36.35,34.99 36.15,35.21 L 35.47,34.61 L 35.99,33.97 Z M 19.17,34.52 C 19.41,34.32 19.66,34.15 19.9,33.97 L 20.43,34.61 L 19.74,35.21 C 19.54,34.99 19.35,34.76 19.17,34.51 Z M 26.07,34.05 L 26.55,34.17 L 26.35,35.07 A 7.13,7.13 0 0,1 25.79,34.93 C 25.87,34.63 25.97,34.34 26.06,34.05 Z M 29.34,34.17 L 29.83,34.04 L 30.11,34.92 L 29.54,35.07 L 29.34,34.17 Z M 23.58,34.17 L 24.08,34.49 C 23.93,34.76 23.78,35.03 23.61,35.29 C 23.41,35.18 23.22,35.05 23.03,34.92 L 23.58,34.16 Z M 31.81,34.49 C 31.98,34.39 32.15,34.27 32.31,34.16 L 32.86,34.92 C 32.67,35.05 32.48,35.18 32.28,35.29 L 31.81,34.49 Z M 26.71,34.21 L 27.2,34.28 L 27.1,35.2 C 26.9,35.18 26.71,35.15 26.53,35.11 L 26.71,34.21 Z M 28.69,34.29 L 29.19,34.21 L 29.37,35.11 L 28.8,35.21 C 28.76,34.9 28.72,34.59 28.7,34.29 Z M 40.93,35.31 C 41.13,34.94 41.32,34.57 41.5,34.19 L 42.33,34.57 C 42.15,34.97 41.95,35.37 41.73,35.75 C 41.46,35.61 41.19,35.45 40.93,35.3 Z M 27.37,34.31 L 27.87,34.33 C 27.87,34.63 27.87,34.94 27.85,35.25 L 27.28,35.22 L 27.37,34.3 Z M 28.03,34.33 L 28.53,34.3 L 28.62,35.22 L 28.04,35.25 L 28.03,34.33 Z M 24.24,34.58 L 24.78,34.86 L 24.4,35.71 C 24.19,35.61 23.98,35.51 23.79,35.39 L 24.24,34.59 Z M 31.11,34.86 L 31.65,34.58 L 32.11,35.39 C 31.91,35.51 31.71,35.61 31.49,35.71 A 40.4,40.4 0 0,1 31.11,34.86 Z M 33.75,34.59 L 34.37,35.28 C 34.17,35.46 33.97,35.63 33.75,35.78 L 33.2,35.04 L 33.75,34.59 Z M 21.53,35.28 L 22.14,34.59 L 22.69,35.04 L 22.14,35.78 A 8.87,8.87 0 0,1 21.53,35.28 Z M 12.43,35.08 L 13.28,34.69 C 13.48,35.1 13.68,35.51 13.91,35.9 L 13.09,36.36 C 12.85,35.95 12.63,35.52 12.43,35.08 Z M 18.19,35.24 L 18.93,34.69 C 19.12,34.94 19.31,35.18 19.52,35.41 C 19.28,35.61 19.06,35.82 18.82,36.01 A 11.8,11.8 0 0,1 18.19,35.24 Z M 36.38,35.41 C 36.58,35.18 36.78,34.94 36.97,34.69 L 37.7,35.24 C 37.5,35.51 37.3,35.77 37.07,36.02 L 36.37,35.42 Z M 42.61,34.69 L 43.46,35.08 C 43.26,35.52 43.04,35.94 42.8,36.36 L 42,35.9 C 42.22,35.5 42.42,35.1 42.62,34.7 Z M 19.91,35.39 L 20.58,34.77 L 21.16,35.36 L 20.54,36.03 C 20.32,35.83 20.1,35.61 19.9,35.39 Z M 34.73,35.36 C 34.93,35.16 35.13,34.97 35.31,34.77 C 35.55,34.97 35.77,35.18 35.99,35.39 C 35.79,35.62 35.58,35.83 35.35,36.03 L 34.73,35.36 Z M 15.38,35.42 C 15.64,35.26 15.9,35.1 16.18,34.95 C 16.37,35.28 16.58,35.59 16.8,35.9 L 16.05,36.44 C 15.81,36.11 15.58,35.77 15.38,35.42 Z M 24.58,35.79 L 24.95,34.94 L 25.52,35.15 L 25.22,36.03 A 9.7,9.7 0 0,1 24.58,35.79 Z M 30.38,35.15 L 30.94,34.94 L 31.31,35.79 C 31.1,35.88 30.88,35.96 30.67,36.03 L 30.37,35.15 Z M 22.32,35.91 L 22.86,35.16 L 23.46,35.55 L 22.99,36.35 A 8.65,8.65 0 0,1 22.32,35.91 Z M 32.43,35.55 L 33.03,35.16 L 33.57,35.91 C 33.36,36.07 33.13,36.21 32.9,36.35 L 32.43,35.55 Z M 25.7,35.21 L 26.28,35.37 L 26.08,36.27 C 25.85,36.22 25.64,36.17 25.42,36.1 C 25.5,35.8 25.6,35.5 25.7,35.21 Z M 29.6,35.37 L 30.2,35.21 L 30.47,36.1 C 30.26,36.17 30.04,36.22 29.81,36.27 L 29.61,35.37 Z M 17.2,35.97 C 17.45,35.77 17.7,35.59 17.95,35.41 C 18.15,35.69 18.38,35.96 18.6,36.21 L 17.91,36.83 C 17.66,36.55 17.43,36.26 17.21,35.96 Z M 26.28,36.32 L 26.46,35.41 L 27.06,35.5 L 26.96,36.42 A 8.57,8.57 0 0,1 26.28,36.32 Z M 28.83,35.5 L 29.43,35.4 L 29.62,36.32 C 29.39,36.36 29.16,36.4 28.93,36.42 L 28.83,35.5 Z M 37.95,35.41 L 38.69,35.96 C 38.47,36.26 38.23,36.56 37.98,36.83 L 37.28,36.22 C 37.52,35.96 37.74,35.69 37.95,35.42 Z M 20.72,36.19 L 21.32,35.5 L 21.97,36.03 L 21.42,36.76 C 21.18,36.58 20.95,36.39 20.72,36.19 Z M 33.92,36.02 L 34.57,35.5 L 35.17,36.2 C 34.95,36.39 34.72,36.58 34.47,36.76 C 34.29,36.51 34.1,36.27 33.93,36.02 Z M 40.09,36.62 C 40.33,36.27 40.56,35.92 40.77,35.57 L 41.57,36.03 C 41.34,36.41 41.1,36.79 40.84,37.15 L 40.09,36.62 Z M 19,36.2 L 19.68,35.57 C 19.89,35.8 20.11,36.02 20.34,36.23 L 19.72,36.9 A 9.71,9.71 0 0,1 19,36.2 Z M 23.18,36.44 L 23.64,35.64 L 24.27,35.96 L 23.89,36.8 C 23.65,36.69 23.41,36.56 23.19,36.44 Z M 31.62,35.96 L 32.26,35.63 L 32.71,36.43 C 32.48,36.57 32.24,36.69 32.01,36.8 L 31.61,35.96 Z M 30.76,36.3 L 31.43,36.04 L 31.8,36.89 C 31.56,36.99 31.3,37.09 31.06,37.17 L 30.76,36.3 Z M 24.09,36.89 L 24.46,36.04 C 24.68,36.14 24.91,36.22 25.13,36.3 L 24.83,37.17 C 24.58,37.09 24.33,36.99 24.09,36.89 Z M 22.15,36.13 L 22.84,36.59 C 22.68,36.85 22.54,37.11 22.37,37.37 A 9.43,9.43 0 0,1 21.62,36.87 L 22.15,36.13 Z M 38.93,36.12 L 39.67,36.66 C 39.43,36.99 39.17,37.31 38.9,37.61 L 38.2,37.01 C 38.45,36.71 38.7,36.42 38.93,36.11 Z M 18.1,37.02 L 18.78,36.39 C 19.02,36.65 19.26,36.89 19.51,37.13 C 19.31,37.35 19.11,37.58 18.89,37.8 C 18.61,37.56 18.35,37.3 18.09,37.02 Z M 19.91,37.08 L 20.52,36.39 L 21.24,36.98 L 20.69,37.72 C 20.42,37.52 20.16,37.3 19.91,37.08 Z M 29.88,36.55 L 30.57,36.36 L 30.85,37.24 C 30.59,37.32 30.34,37.39 30.08,37.44 L 29.88,36.54 Z M 34.65,36.98 C 34.9,36.79 35.14,36.59 35.37,36.39 L 35.98,37.08 C 35.73,37.3 35.47,37.52 35.2,37.72 L 34.65,36.98 Z M 36.38,37.13 L 37.12,36.39 L 37.79,37.02 C 37.54,37.29 37.28,37.55 37,37.8 L 36.38,37.13 Z M 26.22,36.59 L 26.92,36.7 L 26.82,37.62 L 26.03,37.49 L 26.22,36.59 Z M 28.97,36.7 L 29.67,36.59 L 29.86,37.49 C 29.6,37.54 29.34,37.59 29.07,37.62 L 28.97,36.7 Z M 23.03,36.7 L 23.77,37.07 L 23.39,37.9 C 23.11,37.78 22.84,37.64 22.59,37.49 L 23.03,36.69 Z M 32.13,37.07 L 32.86,36.69 L 33.31,37.49 C 33.05,37.64 32.78,37.77 32.51,37.9 L 32.13,37.07 Z M 27.13,36.72 L 27.84,36.76 V 37.68 C 27.57,37.68 27.31,37.66 27.04,37.64 L 27.13,36.72 Z M 28.05,36.76 L 28.76,36.72 L 28.86,37.64 C 28.59,37.66 28.32,37.68 28.06,37.68 L 28.05,36.76 Z M 15.25,37.39 L 15.98,36.84 C 16.24,37.18 16.5,37.5 16.78,37.81 L 16.08,38.41 C 15.79,38.09 15.51,37.74 15.24,37.39 Z M 33.67,37.63 L 34.45,37.13 L 34.98,37.87 C 34.71,38.07 34.43,38.25 34.14,38.42 L 33.67,37.63 Z M 31.15,37.45 A 20,20 0 0,0 31.92,37.16 L 32.29,38 C 32.01,38.12 31.73,38.23 31.44,38.32 L 31.15,37.45 Z M 17.87,37.22 C 18.14,37.49 18.41,37.77 18.69,38.02 L 18.07,38.7 C 17.77,38.43 17.47,38.14 17.2,37.84 L 17.87,37.22 Z M 19.1,37.99 L 19.71,37.3 C 19.97,37.53 20.24,37.75 20.51,37.96 L 19.96,38.7 C 19.66,38.47 19.38,38.24 19.1,38 Z M 35.38,37.96 C 35.65,37.75 35.92,37.53 36.18,37.3 L 36.79,38 C 36.51,38.24 36.22,38.48 35.93,38.7 C 35.73,38.45 35.56,38.2 35.38,37.96 Z M 24.68,38.4 L 24.96,37.53 L 25.76,37.73 L 25.56,38.63 C 25.26,38.56 24.96,38.49 24.68,38.4 Z M 30.14,37.74 L 30.94,37.53 C 31.04,37.81 31.12,38.11 31.21,38.4 C 30.93,38.49 30.64,38.56 30.35,38.63 C 30.26,38.33 30.21,38.03 30.15,37.73 Z M 14.24,38.12 L 15,37.56 L 15.86,38.62 C 15.63,38.82 15.4,39.04 15.16,39.23 C 14.84,38.88 14.53,38.51 14.25,38.13 Z M 40.04,38.62 C 40.33,38.27 40.62,37.92 40.89,37.56 L 41.65,38.12 C 41.36,38.51 41.05,38.88 40.73,39.24 L 40.03,38.62 Z M 22.44,37.75 C 22.71,37.9 22.98,38.04 23.26,38.17 L 22.88,39.01 C 22.58,38.87 22.28,38.71 21.98,38.55 L 22.43,37.75 Z M 32.64,38.17 L 33.46,37.75 L 33.91,38.55 C 33.62,38.72 33.31,38.87 33.01,39.01 L 32.63,38.17 Z M 25.97,37.79 C 26.24,37.83 26.51,37.88 26.79,37.91 L 26.69,38.82 C 26.39,38.79 26.09,38.74 25.79,38.68 L 25.97,37.78 Z M 29.11,37.91 L 29.92,37.79 L 30.1,38.69 C 29.8,38.74 29.51,38.79 29.21,38.82 L 29.11,37.92 Z M 27.01,37.94 L 27.83,37.98 V 38.89 C 27.53,38.89 27.23,38.87 26.93,38.85 L 27.01,37.94 Z M 38.03,38.93 C 38.33,38.63 38.63,38.35 38.91,38.04 C 39.15,38.24 39.37,38.45 39.59,38.66 C 39.29,38.99 38.98,39.3 38.65,39.6 L 38.03,38.93 Z M 20.2,38.86 L 20.73,38.11 L 21.6,38.68 C 21.45,38.94 21.3,39.21 21.13,39.47 C 20.81,39.28 20.5,39.07 20.2,38.86 Z M 34.29,38.68 L 35.16,38.11 L 35.7,38.86 C 35.4,39.08 35.08,39.28 34.76,39.47 L 34.29,38.67 Z M 31.54,38.61 C 31.83,38.51 32.12,38.39 32.4,38.28 L 32.77,39.11 C 32.47,39.25 32.15,39.36 31.83,39.48 L 31.53,38.61 Z M 36.1,38.94 L 37,38.22 L 37.6,38.9 C 37.3,39.17 36.98,39.43 36.65,39.68 L 36.1,38.94 Z M 23.12,39.11 L 23.49,38.27 C 23.77,38.39 24.06,38.5 24.36,38.6 L 24.06,39.48 C 23.75,39.37 23.43,39.25 23.12,39.11 Z M 24.59,38.68 C 24.89,38.78 25.19,38.85 25.49,38.92 L 25.29,39.82 A 13.3,13.3 0 0,1 24.31,39.56 L 24.59,38.68 Z M 30.4,38.92 L 31.3,38.68 C 31.4,38.98 31.5,39.27 31.58,39.56 C 31.26,39.66 30.93,39.75 30.6,39.82 L 30.4,38.92 Z M 33.14,39.28 C 33.44,39.13 33.76,38.98 34.06,38.81 C 34.22,39.07 34.36,39.34 34.51,39.61 C 34.19,39.79 33.86,39.96 33.51,40.11 L 33.14,39.28 Z M 38.85,39.82 C 39.18,39.51 39.5,39.19 39.82,38.86 L 40.51,39.5 C 40.18,39.85 39.84,40.19 39.49,40.5 L 38.85,39.82 Z M 25.73,39 L 26.65,39.14 L 26.55,40.05 C 26.21,40.01 25.87,39.96 25.55,39.89 L 25.73,38.99 Z M 29.24,39.14 L 30.16,39 L 30.35,39.9 C 30.02,39.96 29.68,40.01 29.35,40.05 L 29.25,39.15 Z M 20.02,39.12 L 20.98,39.75 L 20.52,40.54 C 20.16,40.34 19.82,40.11 19.49,39.87 L 20.02,39.12 Z M 34.92,39.75 C 35.24,39.55 35.56,39.34 35.87,39.12 L 36.41,39.87 C 36.08,40.11 35.73,40.33 35.38,40.54 L 34.91,39.74 Z M 28.07,39.21 C 28.37,39.21 28.69,39.19 29,39.17 L 29.09,40.07 C 28.75,40.11 28.41,40.13 28.08,40.13 L 28.07,39.21 Z M 23,39.41 L 23.97,39.78 L 23.67,40.65 C 23.33,40.53 22.98,40.42 22.65,40.25 C 22.72,39.97 22.89,39.69 23,39.41 Z M 21.23,39.89 C 21.57,40.07 21.91,40.25 22.25,40.41 L 21.87,41.24 C 21.49,41.08 21.13,40.89 20.77,40.69 L 21.23,39.89 Z M 23.94,40.74 A 30,30 0 0,1 24.22,39.86 C 24.55,39.96 24.89,40.05 25.22,40.13 L 25.02,41.03 C 24.66,40.95 24.3,40.85 23.95,40.74 Z M 30.67,40.13 L 31.67,39.87 L 31.95,40.74 C 31.59,40.85 31.23,40.95 30.86,41.03 L 30.67,40.13 Z M 16.67,40.75 L 17.29,40.05 C 17.63,40.35 17.98,40.64 18.34,40.91 C 18.16,41.17 17.97,41.41 17.78,41.66 C 17.39,41.38 17.02,41.08 16.66,40.76 Z M 18.78,40.85 L 19.31,40.11 L 20.36,40.8 L 19.9,41.59 C 19.51,41.36 19.14,41.12 18.78,40.86 Z M 35.53,40.8 C 35.89,40.58 36.23,40.35 36.58,40.11 L 37.11,40.86 C 36.75,41.12 36.38,41.36 36,41.58 L 35.53,40.8 Z M 25.48,40.19 C 25.82,40.25 26.16,40.3 26.51,40.34 L 26.41,41.26 C 26.04,41.22 25.67,41.16 25.31,41.09 L 25.49,40.19 Z M 26.68,41.29 L 26.78,40.37 C 27.12,40.4 27.47,40.42 27.81,40.43 V 41.35 C 27.43,41.35 27.06,41.33 26.69,41.29 Z M 28.08,40.43 L 29.12,40.38 L 29.21,41.28 C 28.84,41.33 28.46,41.34 28.09,41.35 V 40.43 Z M 22.51,40.53 C 22.86,40.67 23.22,40.81 23.58,40.93 L 23.29,41.8 C 22.9,41.68 22.52,41.53 22.15,41.37 L 22.51,40.53 Z M 32.31,40.93 C 32.67,40.81 33.03,40.68 33.38,40.53 L 33.75,41.37 C 33.37,41.53 32.99,41.68 32.6,41.8 L 32.31,40.94 Z M 20.63,40.95 L 21.74,41.52 C 21.62,41.8 21.5,42.07 21.36,42.35 C 20.96,42.17 20.56,41.97 20.18,41.75 C 20.32,41.48 20.48,41.21 20.63,40.95 Z M 34.15,41.52 C 34.53,41.34 34.9,41.15 35.26,40.95 L 35.72,41.75 C 35.33,41.97 34.94,42.16 34.53,42.35 L 34.15,41.52 Z M 23.58,41.9 L 23.86,41.03 L 24.96,41.32 L 24.76,42.22 C 24.36,42.12 23.96,42.02 23.58,41.9 Z M 36.15,41.84 C 36.54,41.61 36.91,41.36 37.29,41.1 L 37.83,41.86 C 37.43,42.14 37.03,42.41 36.63,42.65 L 36.15,41.85 Z M 25.25,41.38 C 25.62,41.45 26,41.51 26.37,41.56 L 26.27,42.47 C 25.87,42.43 25.46,42.37 25.06,42.28 L 25.24,41.38 Z M 29.52,41.56 C 29.9,41.51 30.28,41.46 30.65,41.38 L 30.84,42.28 C 30.44,42.37 30.04,42.43 29.62,42.48 L 29.52,41.56 Z M 28.09,41.65 C 28.47,41.65 28.85,41.62 29.24,41.59 L 29.32,42.5 C 28.92,42.54 28.51,42.57 28.1,42.57 L 28.09,41.65 Z M 19.57,42.82 L 20.03,42 C 20.43,42.23 20.83,42.43 21.23,42.62 L 20.85,43.47 C 20.41,43.27 19.99,43.06 19.57,42.82 Z M 34.65,42.62 C 35.07,42.43 35.47,42.22 35.87,42.01 L 36.33,42.82 C 35.91,43.06 35.48,43.28 35.04,43.47 L 34.65,42.62 Z M 25,42.56 C 25.4,42.64 25.82,42.71 26.24,42.76 L 26.14,43.66 A 13.8,13.8 0 0,1 24.81,43.46 L 25,42.56 Z M 29.66,42.76 C 30.07,42.71 30.49,42.64 30.9,42.56 L 31.08,43.46 C 30.64,43.56 30.2,43.62 29.76,43.66 L 29.66,42.76 Z M 21.54,42.75 C 21.96,42.92 22.38,43.09 22.81,43.23 L 22.51,44.12 C 22.06,43.97 21.61,43.79 21.17,43.6 C 21.28,43.32 21.41,43.03 21.54,42.75 Z M 26.54,42.79 C 26.96,42.82 27.37,42.85 27.79,42.86 V 43.77 C 27.34,43.77 26.89,43.74 26.45,43.7 L 26.55,42.8 Z M 31.46,43.69 C 31.9,43.59 32.34,43.47 32.77,43.34 C 32.87,43.64 32.97,43.93 33.05,44.23 C 32.6,44.37 32.13,44.49 31.66,44.59 L 31.46,43.69 Z M 29.8,43.96 C 30.25,43.91 30.7,43.84 31.14,43.76 L 31.33,44.66 C 30.86,44.76 30.38,44.83 29.9,44.89 L 29.8,43.96 Z M 26.42,44 C 26.87,44.04 27.32,44.06 27.78,44.07 V 45 C 27.29,45 26.81,44.97 26.33,44.92 L 26.43,44 Z" fill="rgb(25, 138, 201)"/>
</svg>
