<?xml version="1.0" encoding="UTF-8"?>
<!-- generated by Finnhub -->
<svg viewBox="0 0 55.5 55.5" xmlns="http://www.w3.org/2000/svg">
<path d="M 0,0 H 55.5 V 55.5 H 0 Z" fill="rgb(239, 242, 248)"/>
<path d="M 21.619999999999997,40.975 L 21.53,40.96 C 21.46,40.94 21.46,40.92 21.53,40.91 A 8.63,8.63 0 0,0 26.57,37.58 C 29.43,33.91 30.77,28.9 31.58,24.44 A 81.95,81.95 0 0,0 32.88,13 H 32.91 L 44.96,23.54 A 0.1,0.1 0 0,1 45,23.64 C 44.62,29.54 42.88,38.29 36.54,40.87 C 36.34,40.95 36.12,40.99 35.89,40.99 H 21.63 Z" fill="rgb(16, 136, 165)"/>
<path d="M 26.56,37.565 A 8.63,8.63 0 0,1 21.53,40.91 C 21.46,40.92 21.46,40.94 21.53,40.96 L 21.63,40.99 C 21.05,40.99 20.43,41.06 19.87,40.86 C 13.95,38.73 11.55,31.46 11,25.96 V 25.94 A 0.04,0.04 0 0,1 11.04,25.92 H 11.06 C 14.88,27.98 18.68,30.09 22.46,32.25 L 23.18,32.73 C 23.22,32.76 23.24,32.79 23.25,32.83 A 7.15,7.15 0 0,0 26.57,37.58 Z" fill="rgb(13, 80, 113)"/>
</svg>
