<?xml version="1.0" encoding="UTF-8"?>
<!-- generated by Finnhub -->
<svg viewBox="0 0 55.5 55.5" xmlns="http://www.w3.org/2000/svg">
<path d="M 0,0 H 55.5 V 55.5 H 0 Z" fill="rgb(239, 242, 248)"/>
<path d="M 22.959999999999997,40.144999999999996 L 21.87,40.91 H 21.82 L 17.02,38.04 A 0.05,0.05 0 0,1 17,37.99 V 33.23 C 17,33.2 16.99,33.2 16.97,33.21 L 15.91,33.81 C 15.9,33.83 15.89,33.83 15.87,33.81 L 11.03,30.95 A 0.05,0.05 0 0,1 11,30.9 V 25.1 C 11,25.08 11,25.07 11.02,25.06 L 15.88,22.18 H 15.91 L 16.97,22.82 C 16.99,22.83 17,22.82 17,22.8 V 18.05 A 0.1,0.1 0 0,1 17.06,17.95 L 21.88,15.09 H 21.92 L 22.99,15.85 H 23 V 10.95 C 23,10.91 23.02,10.88 23.06,10.86 L 27.98,8.01 H 28.02 C 28.19,8.13 28.35,8.27 28.52,8.37 C 29.94,9.21 31.57,10.05 32.98,10.89 A 0.04,0.04 0 0,1 33,10.92 V 15.8 C 33,15.83 33.01,15.83 33.03,15.82 L 34.03,15.09 H 34.06 L 38.98,17.91 L 39,17.96 V 22.77 C 39,22.79 39.01,22.8 39.03,22.79 L 40.08,22.19 C 40.09,22.17 40.11,22.17 40.12,22.19 L 44.98,25.07 L 45,25.08 V 30.92 L 44.98,30.94 L 40.11,33.82 H 40.08 L 39.02,33.19 C 39,33.18 39,33.19 39,33.21 V 37.97 C 39,38 38.98,38.02 38.96,38.04 L 34.11,40.91 H 34.07 L 33.03,40.18 C 33.01,40.18 33,40.18 33,40.2 V 45.07 C 33,45.09 32.99,45.11 32.97,45.12 L 27.97,47.99 H 27.92 L 23.03,45.07 A 0.05,0.05 0 0,1 23,45.03 V 40.18 C 23,40.16 23,40.15 22.97,40.16 Z M 27,24 A 0.05,0.05 0 0,1 26.98,24.04 L 24.02,25.69 L 24.01,25.71 L 24,25.73 V 30.27 A 0.05,0.05 0 0,0 24.02,30.31 L 26.98,31.95 L 27,31.96 V 38.18 A 0.05,0.05 0 0,1 26.98,38.22 L 24.02,39.82 A 0.04,0.04 0 0,0 24,39.86 V 44.42 L 24.02,44.44 L 27.98,46.75 A 0.04,0.04 0 0,0 28.02,46.75 L 31.98,44.48 L 31.99,44.47 L 32,44.45 V 39.89 L 31.98,39.88 L 29.03,38.23 L 29.01,38.22 V 31.96 L 29.03,31.95 L 31.98,30.25 L 31.99,30.24 L 32,30.21 V 25.66 L 31.98,25.65 L 29.03,24 L 29,24 V 17.75 L 29.02,17.73 L 31.98,16.09 L 32,16.07 L 31.99,16.05 V 11.48 L 28.01,9.2 A 0.04,0.04 0 0,0 27.97,9.2 L 24.02,11.52 L 24,11.54 V 11.56 L 24,16.09 L 24.02,16.11 L 24.03,16.13 L 26.98,17.77 L 27,17.78 V 24.01 Z M 32.98,24.86 L 32.99,24.88 L 33,24.9 V 31.1 A 0.04,0.04 0 0,1 32.98,31.14 L 30.02,32.78 L 30.01,32.8 L 30,32.82 V 37.38 L 30.02,37.4 L 34.02,39.61 A 0.04,0.04 0 0,0 34.07,39.61 L 37.98,37.34 A 0.04,0.04 0 0,0 38,37.31 V 32.77 A 0.04,0.04 0 0,0 37.98,32.74 L 35.02,31.09 L 35.01,31.08 L 35,31.06 V 24.88 L 35.02,24.86 L 37.98,23.16 L 37.99,23.14 L 38,23.12 V 18.6 L 37.99,18.58 L 37.98,18.56 L 34.07,16.35 A 0.04,0.04 0 0,0 34.03,16.35 L 30.02,18.62 L 30,18.63 V 23.2 L 30.02,23.22 L 32.98,24.86 Z M 18,23.18 L 18.02,23.2 L 18.03,23.22 L 20.98,24.87 L 20.99,24.88 V 31.05 A 0.04,0.04 0 0,1 20.98,31.08 L 18.03,32.73 L 18.02,32.75 S 18,32.75 18,32.77 V 37.31 L 18.02,37.33 L 18.03,37.34 L 21.87,39.61 A 0.04,0.04 0 0,0 21.91,39.61 L 25.98,37.33 L 26,37.32 V 32.74 L 25.98,32.73 L 23.02,31.09 L 23.01,31.08 V 24.9 A 0.04,0.04 0 0,1 23.02,24.86 L 25.98,23.2 L 25.99,23.19 L 26,23.17 V 18.63 A 0.04,0.04 0 0,0 25.98,18.6 L 21.91,16.34 A 0.04,0.04 0 0,0 21.87,16.34 L 18.03,18.61 L 18.02,18.62 L 18,18.64 V 23.18 Z M 36,30.22 V 30.24 L 36.02,30.26 L 40.08,32.52 A 0.04,0.04 0 0,0 40.12,32.52 L 43.97,30.25 L 43.98,30.24 L 44,30.22 V 25.68 L 43.98,25.66 L 43.97,25.65 L 40.12,23.37 H 40.08 L 36.02,25.69 A 0.04,0.04 0 0,0 36,25.73 V 30.23 Z M 12.03,30.26 L 15.87,32.52 H 15.91 L 19.98,30.26 A 0.05,0.05 0 0,0 20,30.22 V 25.68 C 20,25.66 20,25.65 19.98,25.64 C 18.72,24.89 17.21,24.14 15.95,23.39 C 15.91,23.37 15.86,23.38 15.81,23.41 L 12.02,25.7 A 0.05,0.05 0 0,0 12,25.74 V 30.21 C 12,30.23 12.01,30.25 12.03,30.26 Z" fill="rgb(3, 170, 154)"/>
</svg>
