<?xml version="1.0" encoding="UTF-8"?>
<!-- generated by Finnhub -->
<svg viewBox="0 0 55.5 55.5" xmlns="http://www.w3.org/2000/svg">
<path d="M 0,0 H 55.5 V 55.5 H 0 Z" fill="rgb(239, 242, 248)"/>
<path d="M 5.99,36.846 C 17.534,38.015 25.503,31.933 35.324,31.933 C 42.524,31.933 46.613,35.043 52.1,35.673 V 35.918 C 45.634,36.023 41.615,34.24 35.254,34.24 C 27.564,34.24 19.037,37.98 12.781,38.015 C 7.957,38.05 6.21,37.141 6,37.106 V 36.861 Z" fill="rgb(1, 132, 62)"/>
<path d="M 25.493,22.272 C 17.464,24.139 16.66,31.654 16.905,34.659 C 17.778,34.485 18.652,34.239 19.421,33.995 C 19.386,31.269 20.365,26.236 26.167,24.803 C 32.213,23.335 35.673,28.053 36.687,30.605 C 37.596,30.64 38.435,30.71 39.308,30.885 C 39.238,28.927 34.555,20.155 25.503,22.287 Z M 7.398,30.465 C 7.468,30.081 7.748,29.592 8.586,29.731 C 9.775,29.941 14.493,31.129 14.353,31.828 C 14.283,32.213 13.689,32.738 8.342,31.654 C 7.328,31.479 7.363,30.71 7.398,30.465 Z M 12.152,20.12 C 12.326,19.805 12.851,19.456 13.585,19.91 C 14.598,20.54 18.512,23.3 17.988,24.104 C 17.918,24.209 17.394,24.174 12.571,21.588 C 11.662,21.133 12.011,20.364 12.151,20.12 Z M 24.07,13.025 C 24.454,12.92 25.048,13.13 25.223,14.003 C 25.468,15.157 26.132,19.875 25.258,19.98 C 25.188,19.98 24.978,19.875 24.628,19.106 C 24.279,18.302 23.755,16.1 23.266,14.458 C 23.021,13.444 23.825,13.06 24.07,13.025 Z M 37.63,15.017 C 38.015,15.227 38.364,15.786 37.805,16.555 C 37.071,17.499 34.625,21.483 33.925,20.994 C 33.855,20.959 33.716,20.609 33.925,19.805 C 34.135,19.001 35.219,17.219 36.198,15.506 C 36.687,14.633 37.351,14.877 37.63,15.017 Z M 46.194,22.741 C 46.438,23.126 46.474,23.825 45.634,24.209 C 44.551,24.733 40.532,27.04 40.112,26.271 C 40.077,26.201 40.112,25.851 40.742,25.292 C 41.405,24.733 43.013,23.58 44.656,22.532 C 45.495,22.007 46.019,22.496 46.194,22.742 Z" fill="rgb(240, 188, 23)"/>
</svg>
