<?xml version="1.0" encoding="UTF-8"?>
<!-- generated by Finnhub -->
<svg viewBox="0 0 55.5 55.5" xmlns="http://www.w3.org/2000/svg">
<path d="M 0,0 H 55.5 V 55.5 H 0 Z" fill="rgb(239, 242, 248)"/>
<path d="M 18.99,39.985 A 11,11 0 1,0 19,18 A 11,11 0 0,0 19,40 Z M 19,38.56 A 9.56,9.56 0 1,0 19,19.44 A 9.56,9.56 0 0,0 19,38.56 Z" fill-rule="evenodd"/>
<path d="M 19.24,35.985 C 19.67,36.56 20.13,37.09 20.63,37.56 A 8.76,8.76 0 0,1 13.8,36 H 19.24 Z M 18.07,34 C 17.87,33.57 17.7,33.13 17.55,32.67 H 11.1 C 11.32,33.14 11.58,33.58 11.87,34 H 18.08 Z M 10.52,31 H 17.14 C 17.09,30.67 17.04,30.34 17.02,30 H 10.34 C 10.38,30.34 10.44,30.67 10.52,31 Z M 10.34,28 H 17.02 C 17.05,27.66 17.09,27.33 17.14,27 H 10.52 C 10.44,27.33 10.38,27.66 10.34,28 Z M 11.26,25 H 17.66 C 17.79,24.66 17.92,24.33 18.07,24 H 11.87 A 8.7,8.7 0 0,0 11.26,25 Z M 13.81,22 H 19.25 C 19.67,21.44 20.13,20.91 20.63,20.44 A 8.76,8.76 0 0,0 13.8,22 Z M 23.15,19.63 C 25.37,20.93 29.02,24.18 29.02,28.9 C 29.02,33.24 25.62,36.66 23.16,38.38 C 22.2,37.78 21.33,37.05 20.59,36.2 C 23.95,35.46 26,32.5 26,29 S 23.94,22.54 20.6,21.8 C 21.33,20.96 22.19,20.22 23.15,19.63 Z"/>
<path d="M 17.9,28.985 C 17.91,31.31 18.63,33.45 19.84,35.22 A 6.88,6.88 0 0,0 22,35.2 A 8.4,8.4 0 0,1 22,22.82 A 6.86,6.86 0 0,0 19.85,22.79 A 10.95,10.95 0 0,0 17.91,29 Z"/>
<path d="M 36.99,39.985 A 11,11 0 1,1 37,18 A 11,11 0 0,1 37,40 Z M 37,38.56 A 9.56,9.56 0 1,1 37,19.44 A 9.56,9.56 0 0,1 37,38.56 Z" fill-rule="evenodd"/>
<path d="M 36.74,35.985 C 36.33,36.56 35.87,37.09 35.37,37.56 A 8.76,8.76 0 0,0 42.2,36 H 36.76 Z M 37.93,34 C 38.13,33.57 38.3,33.13 38.45,32.67 H 44.91 A 8.7,8.7 0 0,1 44.14,34 H 37.93 Z M 45.48,31 H 38.86 C 38.91,30.67 38.96,30.34 38.98,30 H 45.66 C 45.62,30.34 45.56,30.67 45.48,31 Z M 45.66,28 H 38.98 C 38.95,27.66 38.91,27.33 38.86,27 H 45.48 C 45.56,27.33 45.62,27.66 45.66,28 Z M 44.74,25 H 38.34 C 38.21,24.66 38.08,24.33 37.93,24 H 44.13 C 44.36,24.32 44.56,24.65 44.74,25 Z M 42.19,22 H 36.75 C 36.33,21.44 35.87,20.91 35.37,20.44 A 8.76,8.76 0 0,1 42.2,22 Z M 32.85,19.63 C 30.63,20.93 26.98,24.18 26.98,28.9 C 26.98,33.24 30.38,36.66 32.84,38.38 C 33.8,37.78 34.67,37.05 35.41,36.2 C 32.05,35.46 30,32.5 30,29 S 32.06,22.54 35.4,21.8 C 34.67,20.96 33.81,20.22 32.85,19.63 Z"/>
<path d="M 38.080000000000005,28.985 C 38.09,31.31 37.37,33.45 36.16,35.22 A 6.88,6.88 0 0,1 34,35.2 A 8.4,8.4 0 0,0 34,22.82 A 6.86,6.86 0 0,1 36.15,22.79 A 10.95,10.95 0 0,1 38.09,29 Z"/>
<ellipse cx="28.09" cy="17" rx="1.91" ry="2"/>
</svg>
