<?xml version="1.0" encoding="UTF-8"?>
<!-- generated by Finnhub -->
<svg viewBox="0 0 55.5 55.5" xmlns="http://www.w3.org/2000/svg">
<path d="M 0,0 H 55.5 V 55.5 H 0 Z" fill="rgb(239, 242, 248)"/>
<path d="M 11.99,39.985 V 33 H 31.2 L 32.27,29 L 44,40 H 12 Z" fill="url(#a)"/>
<path d="M 39.99,15.985 H 29.5 L 26,31 H 30 L 31.5,24.57 H 37.5 L 38.5,21.36 H 32.5 L 33,19.21 H 39 L 40,16 Z M 25.94,20.6 C 25.8,21.41 25.47,22.08 24.94,22.62 C 24.4,23.16 23.74,23.55 22.96,23.81 C 23.59,23.91 24.11,24.23 24.52,24.76 A 3.12,3.12 0 0,1 25.07,27.24 A 4.07,4.07 0 0,1 24.17,29.17 A 5.04,5.04 0 0,1 22.28,30.52 C 21.51,30.84 20.66,31 19.71,31 H 14 L 16.53,17 H 21.97 C 23.27,17 24.27,17.28 24.95,17.83 A 2.6,2.6 0 0,1 26,19.96 C 26,20.16 25.98,20.38 25.94,20.61 Z M 23.51,20.89 C 23.54,20.7 23.55,20.56 23.55,20.46 C 23.55,19.94 23.37,19.53 23,19.24 C 22.63,18.94 22.11,18.79 21.44,18.79 H 18.54 L 17.8,22.94 H 20.7 C 21.47,22.94 22.1,22.76 22.59,22.4 C 23.09,22.04 23.4,21.53 23.51,20.89 Z M 22.77,26.99 L 22.82,26.53 C 22.82,25.98 22.61,25.54 22.2,25.22 A 2.6,2.6 0 0,0 20.55,24.74 H 17.47 L 16.67,29.21 H 19.84 C 20.63,29.21 21.29,29.01 21.81,28.62 C 22.33,28.23 22.65,27.69 22.77,26.99 Z"/>
<defs>
<linearGradient id="a" x1="13.07" x2="43.47" y1="37.8" y2="37.8" gradientUnits="userSpaceOnUse">
<stop stop-color="rgb(50, 50, 147)" offset="0"/>
<stop stop-color="rgb(107, 46, 122)" offset=".15"/>
<stop stop-color="rgb(166, 43, 89)" offset=".3"/>
<stop stop-color="rgb(236, 37, 33)" offset=".47"/>
<stop stop-color="rgb(251, 162, 33)" offset=".58"/>
<stop stop-color="rgb(253, 241, 2)" offset=".69"/>
<stop stop-color="rgb(120, 192, 63)" offset="1"/>
</linearGradient>
</defs>
</svg>
