<?xml version="1.0" encoding="UTF-8"?>
<!-- generated by Finnhub -->
<svg viewBox="0 0 55.5 55.5" xmlns="http://www.w3.org/2000/svg">
<path d="M 0,0 H 55.5 V 55.5 H 0 Z" fill="rgb(1, 52, 141)"/>
<path d="M 8.02,24.985 V 23.53 H 8.56 S 9,23.53 9,22.63 V 20.76 C 9,20.31 9,19.83 8.59,19.83 H 8 V 18 H 18.89 S 20.75,18 20.75,19.4 S 19.63,21.23 19.63,21.23 S 21,21.84 21,23.03 A 2.04,2.04 0 0,1 19.02,25 H 8.02 Z M 13,22 H 15.84 C 16.2,22 16.39,22.25 16.39,22.5 S 16.2,23 15.84,23 H 13 V 22 Z M 15.52,20 H 13 V 21 H 15.52 C 15.85,21 16,20.73 16,20.5 C 16,20.23 15.82,20 15.52,20 Z" fill="rgb(254, 254, 253)" fill-rule="evenodd"/>
<path d="M 23.99,24.985 V 23.38 H 24.4 S 25,23.38 25,22.48 V 20.53 C 25,19.63 24.4,19.63 24.4,19.63 H 24 V 18 H 31 V 19.62 H 30.5 C 30.06,19.62 30,20.06 30,20.42 V 22.62 C 30,22.94 30.06,23.38 30.5,23.38 H 31 V 25 H 24 Z M 48,21.53 H 42 V 22.75 H 42.73 A 5.2,5.2 0 0,1 40.53,23.38 C 39.36,23.38 38,22.75 38,21.53 C 38,20.31 38.97,19.68 40.52,19.68 C 42.26,19.68 43.12,21 43.12,21 H 47 V 18.67 H 44.12 L 43.67,19.16 A 7.1,7.1 0 0,0 39.5,18 C 37.02,18 34,19 34,21.53 C 34,24.03 37.44,25 40.08,25 C 42.73,25 44.36,24.09 44.36,24.09 L 44.54,24.45 H 47.18 V 22.75 H 48 V 21.53 Z M 23,35 H 13.06 V 26 H 42 V 29 H 34.32 S 34.03,28 32.2,28 H 25.13 S 23.52,28.28 23.52,30.78 C 23.52,30.78 27.07,29.98 31.89,29.98 C 36.66,29.98 43,31.06 43,35.38 C 43,39.73 36.22,42 28.98,42 C 21.74,42 14.95,40.94 13,36 H 23 S 23.52,38.3 28.06,38.3 C 32.48,38.3 33,36.22 33,35.5 C 33,34.78 31.97,32.6 28.06,32.6 C 23.52,32.6 23,35 23,35 Z" fill="rgb(254, 254, 253)"/>
</svg>
