<?xml version="1.0" encoding="UTF-8"?>
<!-- generated by Finnhub -->
<svg viewBox="0 0 55.5 55.5" xmlns="http://www.w3.org/2000/svg">
<path d="M 0,0 H 55.5 V 55.5 H 0 Z" fill="rgb(239, 242, 248)"/>
<path d="M 26.11,36.885 L 23.58,29.78 C 23.72,28.26 24.06,24.98 24.33,23.92 C 24.68,22.59 27.33,18.42 28.35,18.27 C 29.18,18.16 29.5,18.52 29.56,18.71 L 32.47,25.38 L 29.32,34.49 C 28.97,35.33 28.12,37.07 27.49,37.26 C 26.86,37.46 26.32,37.1 26.12,36.89 Z" fill="url(#e)"/>
<path d="M 18.119999999999997,39.985 H 8 C 13.25,34.7 13.33,28.84 15.37,23.48 C 17.02,19.15 18.17,18.04 18.6,18 H 28.32 C 29.22,18 29.57,18.59 29.63,18.88 C 27.76,17.38 26.08,21.74 25.48,24.11 A 463.82,463.82 0 0,1 21.21,36.33 A 8.62,8.62 0 0,1 18.13,40 Z" fill="url(#d)"/>
<path d="M 21.259999999999998,19.035 H 18.53 C 17.19,20.35 16.12,23.39 15.75,24.75 H 17.77 C 18.17,23.99 19.02,22.01 19.39,21.11 H 19.72 L 21.27,19.05 Z" fill="rgb(237, 236, 240)"/>
<path d="M 15.99,31.985 V 25 H 19.24 C 20.36,25 21.27,26.02 21.27,27.28 C 21.27,28.28 20.69,29.14 19.88,29.44 L 21.22,31.6 V 32 H 19.53 L 18.25,29.56 H 17.38 V 32 H 16 Z M 17.4,26.5 H 18.8 C 19.24,26.5 19.6,26.9 19.6,27.38 C 19.6,27.88 19.24,28.27 18.8,28.27 H 17.4 V 26.5 Z" fill="url(#c)" fill-rule="evenodd"/>
<path d="M 25.619999999999997,22.724999999999998 C 24.52,26.06 22.11,33.21 21.37,35.34 A 12.9,12.9 0 0,1 18.97,39.51 C 22.12,37.84 24.71,26.88 26.35,22.05 C 27.67,18.18 29.03,18.35 29.62,18.87 C 27.78,16.92 26.24,20.61 25.63,22.74 Z"/>
<path d="M 27.419999999999998,37.985 C 26.73,38 26.22,37.23 26.05,36.84 C 27.45,38.64 28.97,36.19 29.55,34.74 C 30.94,30.56 33.82,21.86 34.25,20.51 C 34.67,19.15 36.62,16.94 37.54,16 H 48 C 47.2,16.83 45.4,18.82 44.53,20.07 C 43.45,21.63 40.07,32.49 39.18,35.03 C 38.48,37.05 37.44,37.85 37.01,38 H 27.43 Z" fill="url(#b)"/>
<path d="M 28.31,36.185 C 27.41,37.74 26.4,37.14 26.01,36.64 C 26.12,36.91 26.49,37.45 27.03,37.45 C 28.36,37.5 29.49,35.28 29.9,34.17 C 31.22,30.27 33.97,22.17 34.4,20.95 C 34.85,19.73 36.72,17.14 37.6,16 C 36.74,16.94 34.9,18.98 34.4,19.6 C 33.92,20.21 32.63,24.41 32.04,26.44 C 31.18,29.04 29.23,34.65 28.32,36.2 Z"/>
<path d="M 37.07,36.985 H 34.63 C 35.23,36.48 36.9,33.71 37.66,32.4 L 39.49,32 L 38.43,35.09 A 4.69,4.69 0 0,1 37.08,37 Z" fill="rgb(241, 241, 240)"/>
<path d="M 32.99,31.985 H 34.36 L 34.92,30.38 H 37.17 L 37.62,31.88 H 39 L 36.67,25 H 35.5 L 33,32 Z M 36.74,29 L 36.12,26.95 L 35.41,29 H 36.74 Z" fill="url(#a)" fill-rule="evenodd"/>
<defs>
<linearGradient id="e" x1="24.48" x2="31.62" y1="29.66" y2="29.66" gradientUnits="userSpaceOnUse">
<stop stop-color="rgb(1, 146, 200)" offset="0"/>
<stop stop-color="rgb(161, 227, 252)" offset=".5"/>
<stop stop-color="rgb(4, 119, 161)" offset="1"/>
</linearGradient>
<linearGradient id="d" x1="18.82" x2="18.82" y1="18" y2="40" gradientUnits="userSpaceOnUse">
<stop stop-color="rgb(77, 80, 98)" offset="0"/>
<stop stop-color="rgb(254, 253, 251)" offset=".28"/>
<stop stop-color="rgb(202, 201, 205)" offset=".72"/>
<stop stop-color="rgb(105, 102, 120)" offset="1"/>
</linearGradient>
<linearGradient id="c" x1="18.64" x2="18.64" y1="25" y2="32" gradientUnits="userSpaceOnUse">
<stop stop-color="rgb(103, 18, 16)" offset="0"/>
<stop stop-color="rgb(252, 4, 4)" offset=".35"/>
<stop stop-color="rgb(251, 9, 4)" offset=".57"/>
<stop stop-color="rgb(119, 1, 0)" offset="1"/>
</linearGradient>
<linearGradient id="b" x1="37.02" x2="37.02" y1="16" y2="38" gradientUnits="userSpaceOnUse">
<stop stop-color="rgb(70, 72, 92)" offset="0"/>
<stop stop-color="rgb(162, 160, 170)" offset=".16"/>
<stop stop-color="rgb(243, 242, 246)" offset=".75"/>
<stop stop-color="rgb(103, 108, 126)" offset="1"/>
</linearGradient>
<linearGradient id="a" x1="36" x2="36" y1="25" y2="32" gradientUnits="userSpaceOnUse">
<stop stop-color="rgb(99, 30, 24)" offset="0"/>
<stop stop-color="rgb(251, 6, 2)" offset=".4"/>
<stop stop-color="rgb(230, 1, 2)" offset=".63"/>
<stop stop-color="rgb(95, 20, 14)" offset="1"/>
</linearGradient>
</defs>
</svg>
