<?xml version="1.0" encoding="UTF-8"?>
<!-- generated by Finnhub -->
<svg viewBox="0 0 55.5 55.5" xmlns="http://www.w3.org/2000/svg">
<path d="M 0,0 H 55.5 V 55.5 H 0 Z" fill="rgb(237, 61, 49)"/>
<path d="M 27.991999999999997,13.985 C 22.854,14 17.978,15.337 14.272,17.766 C 10.229,20.416 8,24.05 8,27.999 C 8,31.949 10.228,35.583 14.273,38.234 C 17.978,40.663 22.853,42 28.002,42 C 33.149,42 38.024,40.662 41.73,38.232 C 45.773,35.583 48,31.948 48,28 C 48,24.052 45.773,20.417 41.729,17.768 C 38.024,15.337 33.149,14 28.002,14 Z" fill="rgb(33, 30, 30)"/>
<path d="M 41.142,18.564999999999998 C 37.613,16.272 32.942,15 28.001,15 C 23.059,15 18.388,16.271 14.848,18.58 C 11.077,21.037 9,24.383 9,27.998 S 11.077,34.959 14.848,37.419 C 18.388,39.727 23.058,40.999 28.001,40.999 S 37.614,39.727 41.153,37.418 C 44.923,34.96 47,31.614 47,27.998 S 44.923,21.038 41.152,18.578 Z" fill="rgb(253, 253, 252)"/>
<path d="M 40.537,19.355 C 37.18,17.197 32.724,16 28.002,16 C 23.279,16 18.823,17.197 15.456,19.37 C 11.938,21.639 10,24.703 10,27.998 C 10,31.294 11.938,34.358 15.456,36.629 C 18.825,38.803 23.28,40 28.002,40 C 32.722,40 37.178,38.803 40.548,36.629 C 44.064,34.359 46,31.294 46,27.999 C 46,24.703 44.064,21.639 40.548,19.369" fill="rgb(237, 61, 49)"/>
<path d="M 45.964,27.404 L 45.524,26.121 C 45.498,26.091 45.487,26.056 45.451,26.032 A 0.192,0.192 0 0,0 45.343,26 H 37 V 25.596 C 37,24.639 36.807,21.249 38.308,21.249 C 39.808,21.249 40.354,21.903 41.426,23.956 C 41.714,24.509 41.983,25.071 42.205,25.596 C 42.212,25.634 42.245,25.67 42.276,25.692 A 0.192,0.192 0 0,0 42.387,25.726 L 43.803,25.695 C 43.853,25.695 43.902,25.675 43.938,25.639 A 0.198,0.198 0 0,0 44,25.504 V 19.194 A 0.192,0.192 0 0,0 43.98,19.118 L 43.51,18.086 A 0.193,0.193 0 0,0 43.332,17.968 L 41.844,18 A 0.197,0.197 0 0,0 41.725,18.04 L 40.195,19.2 C 39.105,18.404 37.803,18 36.32,18 C 33.745,18 30.101,19.777 29.071,24.468 C 28.741,23.956 28.118,23.568 27.27,23.568 A 2.92,2.92 0 0,0 26.091,23.796 C 26.083,23.064 26.011,21.616 25.701,20.956 C 25.294,20.119 24.867,19.518 24.073,18.964 C 23.193,18.35 21.878,18 20.591,18 H 10.177 C 10.077,18 10.001,18.08 10,18.181 V 19.996 L 10.556,21.167 A 0.192,0.192 0 0,0 10.663,21.199 L 11,21.211 V 34 H 10.192 C 10.142,34 10.092,34.03 10.057,34.065 A 0.193,0.193 0 0,0 10,34.2 V 35.779 C 10,35.84 10.006,35.884 10.033,35.937 C 10.15,36.231 10.303,36.61 10.463,36.89 A 0.234,0.234 0 0,0 10.536,36.972 A 0.19,0.19 0 0,0 10.642,37.004 H 19.051 C 19.195,37.004 19.344,37.004 19.497,37.007 H 20.004 C 21.426,37.007 22.907,36.927 24.117,36.337 C 25.622,35.603 26.406,33.715 26.406,31.737 C 26.406,31.518 26.392,31.31 26.369,31.11 C 26.786,31.108 27.218,31.02 27.725,30.834 C 28.09,31.016 28.353,31.11 28.785,31.11 C 28.954,31.11 29.28,31.03 29.447,31 C 29.924,32.272 30.447,33.5 31.339,34.541 C 32.716,36.15 34.609,37 36.811,37 C 38.249,37 40.035,36.622 42.53,35.457 C 43.172,35.151 43.789,35 44.469,35 H 44.789 C 44.887,35.001 44.999,34.92 45,34.819 V 29 H 45.8 C 45.906,29 46,28.892 46,28.786 V 27.498 A 0.193,0.193 0 0,0 45.974,27.418 Z" fill="rgb(33, 30, 30)"/>
<path d="M 36.994,26.985 L 37,28 H 38 V 32.1 C 38,33.405 38.127,35.395 37,35.395 C 36.06,35.395 36,33.962 36,32.971 V 25.348 C 36,23.068 35.655,20.108 38.14,20.108 C 40.151,20.108 41.78,22.6 42.54,24.693 H 43 V 19 H 42.35 L 40.568,20.341 C 39.408,19.375 38.046,19 36.658,19 C 33.808,19 30.213,21.226 29.775,26.657 H 30.543 C 31.02,26.657 31.407,27.037 31.407,27.506 V 27.619 C 31.407,27.975 31.153,28.297 30.785,28.415 A 3.65,3.65 0 0,1 30.695,28.792 C 30.88,28.821 31.048,28.902 31.174,29.027 A 0.839,0.839 0 0,1 31.421,29.622 L 31.42,29.648 C 31.398,30.51 31.278,31.002 30.543,31.301 C 31.623,34.116 33.968,36 37,36 C 38.33,36 38.71,35.814 41.228,34.645 C 41.932,34.313 43.222,34 44,34 V 28 H 45 V 27 H 37.004 Z M 20,32.638 C 20,34.093 19.508,35 18.099,35 H 17 V 28 H 17.754 C 18.681,28 20,28.415 20,29.619 V 32.638 Z M 17,20.001 H 17.754 C 18.7,20 20,20.477 20,21.855 V 25.061 C 20,26.383 18.823,27 18.099,27 H 17 V 20 Z M 23.756,29.31 C 23.756,28.832 23.88,28.446 24.066,28.13 C 23.516,27.78 22.872,27.578 22.223,27.502 A 20.95,20.95 0 0,0 21,27.386 V 27 C 22.821,26.954 25.327,26.143 25.327,23.33 C 25.327,20.381 22.687,19 20.776,19 H 11 V 20 H 12 V 35 H 11 V 36 H 18.75 C 21.274,36 25.448,35.774 25.633,31.526 C 24.398,31.203 23.756,30.252 23.756,29.31 Z" fill="rgb(253, 253, 252)"/>
<path d="M 27.476999999999997,24.942 C 27.859,24.957 27.939,25.257 27.939,25.508 C 27.939,25.888 27.809,26.15 27.535,26.347 C 27.387,25.973 27.24,25.59 27.24,25.227 C 27.24,24.957 27.412,24.957 27.487,24.957 Z M 26.729,29.474 A 3.732,3.732 0 0,1 26.189,28.656 C 26.038,28.346 25.937,28.046 25.937,27.851 C 25.937,27.737 25.974,27.659 26.147,27.558 C 26.519,28.27 26.972,29.056 27.6,29.798 A 0.846,0.846 0 0,1 27.437,29.824 C 27.093,29.824 26.962,29.724 26.729,29.474 Z M 30.199,29.027 L 30.165,29.183 C 30.052,29.732 29.952,29.732 29.877,29.732 C 29.779,29.732 29.633,29.712 29.349,29.379 A 2.892,2.892 0 0,0 30.179,27.72 C 30.213,27.482 30.213,27.482 30.556,27.457 L 30.743,27.444 V 26.965 H 28.83 V 27.452 L 29.025,27.459 C 29.534,27.476 29.534,27.639 29.534,27.719 C 29.534,28.023 29.294,28.555 28.976,28.904 C 28.566,28.317 28.229,27.706 27.912,27.108 L 27.77,26.845 C 28.488,26.541 28.939,26.066 28.939,25.555 C 28.939,25.094 28.497,24.447 27.51,24.447 C 26.26,24.447 25.7,25.18 25.7,25.907 C 25.7,26.32 25.856,26.817 25.945,27.069 C 25.025,27.511 24.42,28.009 24.42,28.915 C 24.42,29.705 25.097,30.553 26.577,30.553 C 27.061,30.553 27.542,30.433 28.043,30.217 C 28.336,30.427 28.752,30.553 29.198,30.553 C 30.164,30.553 30.733,30.068 30.755,29.223 L 30.761,29.027 H 30.198 Z" fill="rgb(253, 253, 252)"/>
</svg>
