<?xml version="1.0" encoding="UTF-8"?>
<!-- generated by Finnhub -->
<svg viewBox="0 0 55.5 55.5" xmlns="http://www.w3.org/2000/svg">
<path d="M 0,0 H 55.5 V 55.5 H 0 Z" fill="rgb(239, 242, 248)"/>
<path d="M 11.99,25.639 V 42 L 13.24,32.66 V 24.443 L 12,25.654 Z" fill="rgb(150, 214, 2)"/>
<path d="M 16.333,21.401 L 14.748,22.973 L 13.241,32.659 L 12,42 L 14.66,32.573 L 16.343,21.416 Z" fill="rgb(135, 210, 16)"/>
<path d="M 20.677,17.163 L 18.737,19.081 L 14.659,32.573 L 12,42 L 15.989,32.66 L 20.687,17.178 Z" fill="rgb(120, 206, 35)"/>
<path d="M 25.375,12.58 L 15.989,32.66 L 12,42 L 17.319,32.919 L 28.044,10 L 25.385,12.595 Z" fill="rgb(105, 202, 53)"/>
<path d="M 11.99,41.985 L 18.56,33.351 L 31.5,13.373 L 30.525,12.508 L 17.318,32.918 L 12,42 Z" fill="rgb(90, 198, 72)"/>
<path d="M 11.99,41.985 L 19.8,33.87 L 34.604,16.487 L 33.718,15.535 L 18.56,33.351 L 12,42 Z" fill="rgb(75, 194, 90)"/>
<path d="M 11.99,41.985 L 20.953,34.562 L 37.618,19.427 L 36.643,18.476 L 19.8,33.87 L 12,42 Z" fill="rgb(66, 192, 102)"/>
<path d="M 11.99,41.985 L 22.105,35.34 L 40.455,22.195 L 39.568,21.33 L 20.953,34.562 L 12,42 Z" fill="rgb(56, 189, 113)"/>
<path d="M 11.99,41.985 L 23.08,36.292 L 43.38,25.049 L 42.404,24.097 L 22.105,35.34 L 12,42 Z" fill="rgb(47, 187, 125)"/>
<path d="M 11.99,41.985 L 24.055,37.243 L 44,28.94 V 27.557 L 23.08,36.292 L 12,42 Z" fill="rgb(37, 184, 137)"/>
<path d="M 11.99,41.985 L 24.942,38.368 L 44,32.659 V 31.276 L 24.055,37.243 L 12,42 Z" fill="rgb(27, 182, 148)"/>
<path d="M 11.99,41.985 L 25.74,39.492 L 44,36.032 V 34.65 L 24.942,38.368 L 12,42 Z" fill="rgb(18, 180, 160)"/>
<path d="M 11.99,41.985 L 26.537,40.703 L 44,39.059 V 37.762 L 25.74,39.492 L 12,42 Z" fill="rgb(9, 177, 171)"/>
<path d="M 11.99,41.985 H 44 V 40.703 H 26.537 L 12,42 Z" fill="rgb(1, 175, 183)"/>
</svg>
