<?xml version="1.0" encoding="UTF-8"?>
<!-- generated by Finnhub -->
<svg viewBox="0 0 55.5 55.5" xmlns="http://www.w3.org/2000/svg">
<path d="M 0,0 H 55.5 V 55.5 H 0 Z" fill="rgb(18, 49, 87)"/>
<path d="M 9.99,15.985 H 12.86 A 1.78,1.78 0 0,1 13.96,19.18 A 1.96,1.96 0 0,1 13.32,23 H 10 V 16 Z M 11.42,17 H 12.26 A 1,1 0 1,1 12.26,19 H 11.42 V 17 Z M 11.42,20 H 12.86 A 1,1 0 1,1 12.86,22 H 11.42 V 20 Z M 10,34 H 12.86 A 1.78,1.78 0 0,1 13.96,37.18 A 1.96,1.96 0 0,1 13.32,41 H 10 V 34 Z M 11.42,35 H 12.26 A 1,1 0 1,1 12.26,37 H 11.42 V 35 Z M 11.42,38 H 12.86 A 1,1 0 1,1 12.86,40 H 11.42 V 38 Z" fill="rgb(254, 254, 253)" fill-rule="evenodd"/>
<path d="M 17.349999999999998,16.985 H 16 V 20.5 A 2.5,2.5 0 1,0 21,20.5 V 17 H 19.63 V 20.63 A 1.14,1.14 0 1,1 17.36,20.63 V 17 Z M 23.32,17 H 22 V 23 H 23.32 V 19.55 C 23.54,18.87 24.07,18.1 25.1,18.43 L 25.54,17.15 C 25.03,16.93 23.92,16.8 23.32,17.85 V 17 Z M 25.32,26 H 24 V 32 H 25.32 V 28.55 C 25.54,27.87 26.07,27.1 27.1,27.43 L 27.54,26.15 C 27.03,25.93 25.92,25.8 25.32,26.85 V 26 Z M 42.32,26 H 41 V 32 H 42.32 V 28.55 C 42.54,27.87 43.07,27.1 44.1,27.43 L 44.54,26.15 C 44.03,25.93 42.92,25.8 42.32,26.85 V 26 Z M 27.31,16 H 26 V 23 H 27.31 V 19.99 L 29.38,23 H 31 L 28.59,19.6 L 30.89,17 H 29.24 L 27.31,19.28 V 16 Z M 30.31,34 H 29 V 41 H 30.31 V 37.99 L 32.38,41 H 34 L 31.59,37.6 L 33.89,35 H 32.24 L 30.31,37.28 V 34 Z" fill="rgb(254, 254, 253)"/>
<path d="M 33.99,22.985 A 3,3 0 0,0 36.64,21.42 L 35.42,20.96 C 35.14,21.53 34.61,21.91 34,21.91 C 33.2,21.91 32.52,21.24 32.38,20.35 H 36.98 L 37,20 A 3,3 0 1,0 34,23 Z M 32.5,19.23 H 35.5 C 35.25,18.56 34.67,18.09 34,18.09 S 32.75,18.56 32.5,19.23 Z M 20,32 A 3,3 0 0,0 22.64,30.42 L 21.42,29.96 C 21.14,30.53 20.61,30.91 20,30.91 C 19.2,30.91 18.52,30.24 18.38,29.35 H 22.98 L 23,29 A 3,3 0 1,0 20,32 Z M 18.5,28.23 H 21.5 C 21.25,27.56 20.67,27.09 20,27.09 S 18.75,27.56 18.5,28.23 Z M 37.47,32 C 38.64,32 39.65,31.36 40.17,30.42 L 38.92,29.96 C 38.63,30.53 38.09,30.91 37.47,30.91 C 36.64,30.91 35.96,30.24 35.81,29.35 H 40.51 C 40.53,29.23 40.53,29.12 40.53,29 C 40.53,27.34 39.16,26 37.47,26 A 3.03,3.03 0 0,0 34.4,29 C 34.4,30.66 35.78,32 37.47,32 Z M 35.93,28.23 H 39 A 1.7,1.7 0 0,0 37.46,27.09 A 1.7,1.7 0 0,0 35.92,28.23 Z" fill="rgb(254, 254, 253)" fill-rule="evenodd"/>
<path d="M 9.99,24.985 H 11.51 V 32 H 10 Z M 14.49,25 H 16 V 32 H 14.49 V 25 Z M 47,25 H 45.5 V 26 H 45 V 27.43 H 45.5 V 32 H 47 V 27.43 H 48 V 26 H 47 V 25 Z" fill="rgb(254, 254, 253)"/>
<path d="M 11.07,28.985 V 27.58 H 15.13 V 29 Z M 29.36,25 H 27.92 V 32 H 29.36 V 31.17 C 29.86,31.69 30.52,32 31.26,32 C 32.78,32 34.01,30.66 34.01,29 S 32.78,26 31.26,26 C 30.52,26 29.86,26.31 29.36,26.83 V 25 Z M 32.66,29 C 32.66,29.97 31.92,30.75 31.02,30.75 C 30.12,30.75 29.39,29.97 29.39,29 S 30.12,27.25 31.02,27.25 C 31.92,27.25 32.65,28.03 32.65,29 Z M 20.7,35 H 22 V 41 H 20.7 V 40.2 C 20.2,40.7 19.53,41 18.8,41 C 17.25,41 16,39.66 16,38 S 17.25,35 18.8,35 C 19.53,35 20.2,35.3 20.7,35.8 V 35 Z M 17.38,38 C 17.38,38.97 18.12,39.75 19.04,39.75 A 1.7,1.7 0 0,0 20.69,38 A 1.7,1.7 0 0,0 19.04,36.25 A 1.7,1.7 0 0,0 17.38,38 Z M 24.3,35 H 23 V 41 H 24.31 V 37.41 A 1.23,1.23 0 0,1 26.77,37.41 V 41 H 28 V 37.06 A 2.06,2.06 0 0,0 24.3,35.81 V 35 Z" fill="rgb(254, 254, 253)"/>
<path d="M 41.550000000000004,22.985 A 3,3 0 0,1 40.19,22.71 C 39.81,22.51 39.51,22.26 39.31,21.93 A 2.07,2.07 0 0,1 39.19,19.99 C 39.32,19.75 39.49,19.52 39.72,19.32 C 39.95,19.12 40.22,18.91 40.51,18.71 L 41.89,17.77 C 42.09,17.63 42.24,17.49 42.35,17.35 C 42.45,17.2 42.51,17.03 42.51,16.83 A 0.69,0.69 0 0,0 42.29,16.35 A 0.75,0.75 0 0,0 41.72,16.13 A 0.8,0.8 0 0,0 40.99,16.55 A 0.8,0.8 0 0,0 40.89,16.95 C 40.89,17.11 40.93,17.29 41.03,17.46 C 41.13,17.64 41.25,17.82 41.4,18.01 L 41.9,18.61 L 45.53,23 H 44.03 L 41.01,19.4 L 40.36,18.63 C 40.16,18.37 39.98,18.11 39.85,17.83 A 2.1,2.1 0 0,1 39.9,15.94 C 40.07,15.64 40.31,15.42 40.61,15.25 C 40.92,15.08 41.28,15 41.69,15 C 42.09,15 42.45,15.08 42.74,15.24 C 43.04,15.41 43.26,15.62 43.42,15.89 A 1.83,1.83 0 0,1 43.39,17.76 C 43.2,18.05 42.95,18.31 42.63,18.55 L 41.06,19.7 C 40.8,19.89 40.61,20.08 40.5,20.27 C 40.4,20.46 40.34,20.62 40.34,20.76 C 40.34,20.96 40.39,21.15 40.49,21.31 C 40.59,21.48 40.74,21.61 40.93,21.71 C 41.12,21.81 41.34,21.87 41.59,21.87 C 41.87,21.87 42.14,21.8 42.42,21.68 C 42.69,21.55 42.77,21.2 42.99,20.97 C 43.25,20.69 44.33,19.7 44.64,19.32 L 45.35,20.12 C 45.35,20.16 44.35,21.05 44.17,21.3 C 44,21.55 44.13,21.87 43.93,22.02 A 5.32,5.32 0 0,0 43.58,22.28 C 43.31,22.53 42.99,22.71 42.62,22.82 A 3.5,3.5 0 0,1 41.55,23 Z" fill="rgb(174, 156, 43)"/>
</svg>
