<?xml version="1.0" encoding="UTF-8"?>
<!-- generated by Finnhub -->
<svg viewBox="0 0 55.5 55.5" xmlns="http://www.w3.org/2000/svg">
<path d="M 0,0 H 55.5 V 55.5 H 0 Z" fill="rgb(239, 242, 248)"/>
<path d="M 37.34,25.485 C 37.43,25.5 37.5,25.43 37.5,25.35 V 24.15 C 37.5,24.07 37.43,24 37.35,24 H 34.15 A 0.14,0.14 0 0,0 34,24.14 V 25.36 C 34,25.43 34.07,25.5 34.15,25.5 H 34.85 C 34.93,25.5 35,25.57 35,25.64 V 30.86 C 35,30.93 35.07,31 35.15,31 H 36.35 C 36.43,31 36.5,30.93 36.5,30.86 V 25.64 C 36.5,25.56 36.57,25.49 36.65,25.49 H 37.35 Z M 29.85,31 C 29.93,31 30,30.93 30,30.86 V 24.14 A 0.15,0.15 0 0,0 29.85,24 H 28.65 A 0.15,0.15 0 0,0 28.5,24.14 V 27.13 L 27.5,24.13 A 0.23,0.23 0 0,0 27.3,24 H 26.15 A 0.15,0.15 0 0,0 26,24.14 V 30.86 C 26,30.93 26.07,31 26.15,31 H 27.35 C 27.43,31 27.5,30.93 27.5,30.86 V 27.69 L 28.7,30.86 C 28.73,30.93 28.82,30.99 28.9,30.99 H 29.85 V 31 Z M 23.5,28.1 C 23.5,28.02 23.52,28 23.59,28 H 24.23 C 24.3,28 24.36,27.93 24.36,27.86 V 26.84 C 24.36,26.77 24.3,26.7 24.23,26.7 H 23.59 C 23.52,26.7 23.5,26.68 23.5,26.6 V 25.4 C 23.5,25.33 23.52,25.32 23.59,25.32 H 24.87 C 24.94,25.32 25,25.26 25,25.19 V 24.14 C 25,24.07 24.94,24 24.87,24 H 22.13 C 22.06,24 22,24.07 22,24.14 V 30.86 C 22,30.93 22.06,31 22.13,31 H 24.87 C 24.94,31 25,30.93 25,30.86 V 29.82 C 25,29.74 24.94,29.68 24.87,29.68 H 23.59 C 23.52,29.68 23.5,29.66 23.5,29.58 V 28.1 Z M 18.5,28.21 L 19.52,30.87 C 19.55,30.94 19.63,31 19.72,31 H 20.89 C 20.97,31 21.02,30.94 20.99,30.87 L 19.59,27.47 A 0.38,0.38 0 0,1 19.6,27.22 L 20.86,24.13 C 20.89,24.06 20.84,24 20.76,24 H 19.58 A 0.24,0.24 0 0,0 19.38,24.13 L 18.5,26.59 V 24.14 C 18.5,24.07 18.43,24 18.35,24 H 17.15 C 17.07,24 17,24.07 17,24.14 V 30.86 C 17,30.93 17.07,31 17.15,31 H 18.35 C 18.43,31 18.5,30.93 18.5,30.86 V 28.2 Z M 49.5,28.21 L 50.52,30.87 C 50.55,30.94 50.63,31 50.72,31 H 51.89 C 51.97,31 52.02,30.94 51.99,30.87 L 50.59,27.47 A 0.38,0.38 0 0,1 50.6,27.22 L 51.86,24.13 C 51.89,24.06 51.84,24 51.76,24 H 50.58 A 0.24,0.24 0 0,0 50.38,24.13 L 49.5,26.59 V 24.14 C 49.5,24.07 49.43,24 49.35,24 H 48.15 C 48.07,24 48,24.07 48,24.14 V 30.86 C 48,30.93 48.07,31 48.15,31 H 49.35 C 49.43,31 49.5,30.93 49.5,30.86 V 28.2 Z M 10.5,24.14 C 10.5,24.07 10.45,24 10.4,24 H 9.1 C 9.05,24 9,24.07 9,24.14 V 30.86 C 9,30.93 9.05,31 9.1,31 H 10.4 C 10.45,31 10.5,30.93 10.5,30.86 V 24.14 Z M 32.5,26.03 C 32.5,25.76 32.7,25.5 32.95,25.5 H 33.39 C 33.46,25.5 33.52,25.43 33.52,25.36 V 24.15 C 33.52,24.07 33.46,24 33.39,24 H 32.51 C 31.53,24 30.99,24.75 31.01,25.8 C 31.01,27.14 32.5,28.07 32.5,28.87 C 32.5,29.27 32.29,29.49 31.94,29.5 H 31.13 C 31.06,29.5 31,29.57 31,29.64 V 30.86 C 31,30.93 31.06,31 31.13,31 H 32.54 C 33.61,31.02 34,30.04 34,29.03 C 34.02,27.67 32.5,26.99 32.5,26.03 Z M 7.45,27.37 C 7.38,27.33 7.4,27.27 7.45,27.22 C 7.81,26.88 7.9,26.55 7.9,26.21 V 25.41 C 7.9,24.41 7.51,24 6.28,24 H 4.16 C 4.07,24 4,24.07 4,24.14 V 30.86 C 4,30.93 4.07,31 4.16,31 H 6.4 C 7.55,31 8,30.27 8,29.24 V 28.67 C 8,27.99 7.88,27.65 7.45,27.37 Z M 5.48,25.34 C 5.48,25.26 5.5,25.24 5.59,25.24 H 5.96 C 6.29,25.24 6.43,25.47 6.43,26.04 C 6.43,26.67 6.23,26.78 5.96,26.78 H 5.59 C 5.5,26.78 5.49,26.76 5.49,26.68 V 25.34 Z M 6.06,29.75 H 5.6 C 5.51,29.75 5.5,29.74 5.5,29.66 V 28.1 C 5.5,28.02 5.51,28 5.6,28 H 6.06 C 6.42,28 6.52,28.35 6.52,28.89 C 6.53,29.59 6.4,29.75 6.06,29.75 Z M 15.99,30.87 L 14.81,28.1 H 14.82 L 14.94,28.06 C 15.3,27.89 15.67,27.51 15.67,26.79 V 25.49 C 15.67,24.24 14.91,24 13.97,24 H 12.15 A 0.15,0.15 0 0,0 12,24.14 V 30.86 C 12,30.93 12.07,31 12.15,31 H 13.35 C 13.43,31 13.49,30.93 13.49,30.86 V 28.22 L 14.52,30.87 C 14.55,30.94 14.64,31 14.72,31 H 15.9 C 15.98,31 16.02,30.95 15.99,30.87 Z M 14.33,26.06 C 14.33,26.76 14.22,26.93 13.91,26.93 H 13.6 C 13.52,26.93 13.5,26.91 13.5,26.83 V 25.34 C 13.5,25.26 13.52,25.24 13.6,25.24 H 13.9 C 14.24,25.24 14.33,25.53 14.33,26.06 Z M 46.38,31 C 44.26,31 44,29.52 44,27.48 C 44,25.43 44.27,23.99 46.38,23.99 H 46.85 C 46.93,23.99 47,24.05 47,24.13 V 25.35 C 47,25.42 46.93,25.49 46.85,25.49 H 46.37 C 46,25.49 45.5,25.69 45.5,27.49 S 46,29.49 46.37,29.49 H 46.85 C 46.93,29.49 47,29.56 47,29.63 V 30.85 C 47,30.92 46.93,30.99 46.85,30.99 H 46.38 Z M 40.5,24 C 42.84,24 43,25.44 43,27.49 C 43,29.53 42.84,31 40.5,31 S 38,29.53 38,27.49 C 38,25.44 38.16,24 40.5,24 Z M 40.5,29.68 C 41.42,29.68 41.5,29.29 41.5,27.48 C 41.5,25.68 41.42,25.24 40.5,25.24 S 39.5,25.68 39.5,27.49 C 39.5,29.29 39.58,29.69 40.5,29.69 Z" fill="rgb(15, 19, 19)"/>
</svg>
