<?xml version="1.0" encoding="UTF-8"?>
<!-- generated by Finnhub -->
<svg viewBox="0 0 55.5 55.5" xmlns="http://www.w3.org/2000/svg">
<path d="M 0,0 H 55.5 V 55.5 H 0 Z" fill="rgb(11, 31, 104)"/>
<path d="M 12.99,11.635 C 13,11.31 12.82,11 12.5,11 S 12,11.3 12,11.65 V 22.62 C 12.15,25.57 14.37,28 17.4,28 C 20.64,28 23,25.03 23,21.9 C 23,18.63 20.72,16 17.4,16 C 16.67,16 16.13,16.1 15.9,16.2 C 15.6,16.32 15.45,16.6 15.56,16.91 C 15.68,17.23 16.01,17.27 16.32,17.15 C 16.38,17.12 16.77,17 17.4,17 C 19.98,17 22,19.43 22,22 C 21.88,24.43 20,27 17.4,27 C 15.01,27 13.13,24.9 13,22.57 V 11.65 Z M 28,16.62 C 28,16.28 27.78,16 27.5,16 S 27,16.28 27,16.62 V 27.38 C 27,27.72 27.22,28 27.5,28 S 28,27.72 28,27.38 V 16.62 Z M 38.5,28 C 41.54,28 44,25.31 44,22 S 41.54,16 38.5,16 S 33,18.69 33,22 S 35.46,28 38.5,28 Z M 38.5,27 C 40.99,27 43,24.76 43,22 S 40.99,17 38.5,17 S 34,19.24 34,22 S 36.01,27 38.5,27 Z M 22.96,28.86 A 0.63,0.63 0 0,0 22.63,28.05 A 0.58,0.58 0 0,0 21.87,28.39 L 16.67,41.77 L 13.14,32.42 A 0.58,0.58 0 0,0 12.37,32.07 A 0.63,0.63 0 0,0 12.04,32.87 L 16.1,43.6 A 0.6,0.6 0 0,0 17.25,43.6 L 22.97,28.87 Z M 28,32.62 C 28,32.28 27.78,32 27.5,32 S 27,32.28 27,32.62 V 43.38 C 27,43.72 27.22,44 27.5,44 S 28,43.72 28,43.38 V 32.62 Z M 38.7,33 A 4.37,4.37 0 0,0 34.25,37 H 42.75 C 42.56,34.82 40.89,32.98 38.7,33 Z M 34.24,38 H 43.36 C 43.73,38 44,37.89 44,37.55 C 43.99,34.55 41.87,31.89 38.71,32 A 5.44,5.44 0 0,0 33,37.6 C 33,40.32 33.98,41.96 35.22,42.9 C 36.42,43.82 37.79,44.01 38.5,44.01 C 39.54,44.01 40.25,43.86 40.54,43.74 A 0.6,0.6 0 0,0 40.88,42.96 C 40.75,42.65 40.4,42.66 40.08,42.78 A 4.49,4.49 0 0,1 35.96,42.1 C 35.14,41.48 34.36,40.02 34.24,38.01 Z" fill="rgb(249, 254, 253)" fill-rule="evenodd"/>
</svg>
