<?xml version="1.0" encoding="UTF-8"?>
<!-- generated by Finnhub -->
<svg viewBox="0 0 55.5 55.5" xmlns="http://www.w3.org/2000/svg">
<path d="M 0,0 H 55.5 V 55.5 H 0 Z" fill="rgb(226, 30, 79)"/>
<path d="M 22.639999999999997,15.245 L 26.26,30.24 A 2.98,2.98 0 0,1 24.3,33.77 L 22.65,34.31 A 2.96,2.96 0 0,1 18.99,32.61 L 13.22,18.33 A 2.98,2.98 0 0,1 15.05,14.38 L 18.85,13.15 A 2.95,2.95 0 0,1 22.65,15.26 Z M 42.45,25.89 C 44.55,32.35 40.34,38.38 35.12,40.08 A 2.43,2.43 0 0,1 32.12,38.68 L 31.28,36.61 A 2.45,2.45 0 0,1 32.78,33.36 L 32.98,33.29 A 4.3,4.3 0 0,0 35.82,28.02 A 4.23,4.23 0 0,0 30.46,25.48 L 30.24,25.55 A 2.43,2.43 0 0,1 27.12,23.81 L 26.6,21.64 A 2.45,2.45 0 0,1 28.2,18.74 C 33.42,17.04 40.36,19.44 42.45,25.89 Z M 26,44 A 4,4 0 1,0 26,36 A 4,4 0 0,0 26,44 Z" fill="rgb(254, 254, 253)"/>
</svg>
