<?xml version="1.0" encoding="UTF-8"?>
<!-- generated by Finnhub -->
<svg viewBox="0 0 55.5 55.5" xmlns="http://www.w3.org/2000/svg">
<path d="M 56,0 H 0 V 56 H 56 V 0 Z" fill="rgb(239, 242, 248)"/>
<path d="M 18.259999999999998,23.314999999999998 C 18.37,23.43 18.5,23.59 18.58,23.59 C 18.72,23.59 19.39,22.75 19.58,22.5 C 19.74,22.27 19.98,22.14 20.22,22 L 20.54,21.81 L 20.77,21.64 A 4.08,4.08 0 0,0 21.64,20.64 L 21.68,20.58 L 21.72,20.51 C 21.93,20.19 22.16,19.87 22.38,19.56 L 22.58,19.3 L 23.41,18.26 A 4.03,4.03 0 0,1 24.48,17.37 L 24.68,17.27 C 25.01,17.09 25.12,16.99 25.21,17 C 25.3,17 25.38,17.1 25.66,17.31 L 26.93,18.31 L 27.13,18.48 L 27.33,18.66 L 27.39,18.71 C 27.41,18.71 27.42,18.73 27.44,18.74 C 27.61,18.89 27.76,19.05 27.89,19.24 L 27.95,19.31 L 28.05,19.46 C 28.25,19.76 28.48,20.04 28.84,20.16 C 29.04,20.22 29.26,20.23 29.46,20.16 C 29.63,20.09 29.82,19.99 29.96,19.9 L 29.98,19.89 C 30.16,19.76 30.34,19.64 30.49,19.49 C 30.53,19.44 30.54,19.44 30.57,19.42 L 30.59,19.4 C 30.65,19.35 30.71,19.3 30.76,19.23 L 30.88,19.11 L 31.15,18.84 L 31.35,18.64 L 31.61,18.34 L 31.65,18.28 C 31.72,18.19 31.79,18.1 31.86,18.04 C 31.92,18.08 32.15,18.38 32.37,18.68 L 32.85,19.28 L 32.95,19.39 C 33.07,19.52 33.19,19.66 33.33,19.75 C 33.78,20.06 34.18,20.17 34.79,20.17 L 35.13,20.68 L 35.18,20.77 L 35.21,20.81 L 35.27,20.9 L 35.3,20.94 L 35.31,20.95 L 35.39,21.06 C 35.63,21.38 35.74,21.44 35.99,21.56 L 36.24,21.68 C 36.51,21.82 36.82,22.26 37.05,22.58 L 37.2,22.8 L 38.07,24.03 L 38.13,24.11 L 38.16,24.16 L 38.71,24.86 L 38.79,24.96 C 39.09,25.31 39.37,25.66 39.74,25.94 L 40.34,26.39 C 40.66,26.67 40.87,27.03 40.87,27.52 L 40.71,27.42 L 40.68,27.4 A 2.17,2.17 0 0,1 40.58,27.33 L 40.52,27.28 L 39.98,26.9 C 39.59,26.62 39.2,26.35 38.83,26.06 H 38.82 C 38.45,25.77 38.21,25.58 37.93,25.21 A 14.7,14.7 0 0,1 37.03,23.79 A 2.2,2.2 0 0,0 36.37,22.99 A 1.03,1.03 0 0,0 36.25,22.93 L 36.19,22.9 L 34.61,24.4 C 34.39,24.7 34.2,25.02 34.01,25.36 L 33.91,25.52 L 33.83,25.66 C 33.65,25.96 33.51,26.2 33.2,26.42 C 33.2,26.34 33.23,26.25 33.26,26.17 L 33.29,26.1 L 33.39,25.8 L 33.87,24.3 L 33.9,24.23 C 33.92,24.16 33.94,24.08 33.97,24.03 C 33.87,24.05 33.16,24.5 32.72,24.77 L 32.39,24.97 L 32.34,25.01 A 0.99,0.99 0 0,1 32.26,25.05 L 32.19,25.09 L 32.13,25.13 L 31.87,25.28 L 31.6,25.43 A 3.1,3.1 0 0,1 31.18,25.65 L 30.75,25.82 C 30.58,25.88 30.4,25.92 30.22,25.97 L 30.1,26 A 5.26,5.26 0 0,1 29.75,26.07 L 29.71,26.09 C 29.61,26.11 29.51,26.13 29.41,26.13 C 29.44,26.09 29.48,26.07 29.53,26.03 L 29.59,26 L 29.96,25.76 C 30.21,25.62 30.45,25.46 30.69,25.3 L 31.44,24.83 C 31.89,24.56 32.32,24.27 32.75,23.97 L 33.05,23.76 L 33.24,23.64 A 3.5,3.5 0 0,0 33.42,23.51 L 34.47,22.59 C 34.63,22.41 34.77,22.13 34.77,21.87 L 34.68,21.88 C 34.65,21.88 34.62,21.9 34.55,21.9 C 34.35,21.9 34.16,21.9 33.95,21.93 C 33.89,21.95 33.82,21.94 33.75,21.94 L 33.53,21.95 C 33.23,22.01 32.82,21.97 32.55,21.81 A 0.5,0.5 0 0,1 32.5,21.78 C 32.47,21.76 32.45,21.74 32.4,21.73 V 21.68 C 32.5,21.67 32.63,21.61 32.73,21.56 L 32.85,21.51 L 32.95,21.46 C 33.06,21.42 33.17,21.36 33.27,21.34 C 33.24,21.23 33.1,21.13 33,21.04 A 2.93,2.93 0 0,1 32.62,20.67 L 32.32,20.37 L 32.27,20.33 C 32.17,20.24 32.07,20.16 32,20.05 C 31.88,20.12 30.4,20.45 29.75,20.61 L 29.48,20.67 L 29.49,20.69 H 29.5 L 30.47,21.48 L 31.07,21.96 C 31.29,22.16 31.51,22.34 31.75,22.52 C 31.92,22.65 31.87,22.78 31.8,22.96 L 31.74,23.11 L 31.59,23.5 C 31.46,23.84 31.17,24.23 30.89,24.44 L 30.59,24.67 C 30.36,24.82 30.12,24.93 29.86,25.03 C 29.49,25.17 29.07,25.26 28.66,25.35 L 28.12,25.48 L 28.04,25.5 L 27.9,25.54 L 27.7,25.6 C 27.56,25.64 27.16,25.8 26.87,25.92 L 26.53,26.06 C 26.64,25.85 26.86,25.51 27.05,25.24 L 27.2,25.01 L 27.23,24.97 L 27.26,24.91 C 27.31,24.85 27.43,24.77 27.55,24.69 A 2.25,2.25 0 0,0 27.87,24.44 L 27.92,24.39 L 28.25,24.05 L 28.3,23.99 L 28.32,23.96 C 28.69,23.46 29.11,22.89 28.56,22.33 C 28.38,22.14 28.16,22.03 27.93,21.91 L 27.82,21.85 C 27.74,21.9 27.68,21.96 27.62,22.03 L 27.52,22.12 L 27.3,22.32 L 27.26,22.35 A 0.25,0.25 0 0,0 27.22,22.38 L 26.92,22.65 C 26.92,22.66 26.92,22.67 26.9,22.68 L 26.86,22.73 L 25.76,23.73 L 25.73,23.76 C 25.66,23.83 25.54,23.96 25.46,23.98 L 25.98,23.31 L 26.08,23.17 C 26.48,22.54 26.94,21.68 26.65,20.92 C 26.61,20.82 26.55,20.68 26.44,20.65 C 26.42,20.74 26.38,20.83 26.34,20.92 L 26.27,21.07 A 3.32,3.32 0 0,1 26.08,21.48 L 26.06,21.54 C 25.99,21.71 25.99,21.72 25.76,21.75 L 25.54,21.79 A 7.2,7.2 0 0,0 24.54,21.96 L 24.51,21.99 A 0.4,0.4 0 0,1 24.47,22.03 L 24.14,22.3 A 0.33,0.33 0 0,0 24.11,22.33 A 0.4,0.4 0 0,1 24.07,22.37 L 23.44,22.89 L 23.28,23.02 L 23.12,23.14 L 22.96,23.27 L 22.79,23.4 C 22.4,23.7 22.02,23.99 21.6,24.24 L 21.49,24.31 C 21.35,24.41 21.19,24.51 21.04,24.53 L 21.11,24.41 L 21.15,24.38 L 22.85,22.34 C 22.9,22.29 22.95,22.24 22.98,22.19 C 23.1,22.06 23.21,21.93 23.27,21.74 L 23.31,21.62 A 2.9,2.9 0 0,1 23.74,20.73 H 23.75 L 23.86,20.57 A 0.35,0.35 0 0,1 23.89,20.54 L 23.92,20.51 L 24.1,20.31 C 24.3,20.07 24.36,19.97 24.44,19.95 C 24.5,19.93 24.57,19.95 24.7,20 C 24.74,20 24.8,20.03 24.85,20.05 C 25.04,20.11 25.28,20.19 25.39,20.2 L 25.72,18.3 C 25.69,18.3 25.68,18.28 25.67,18.27 A 0.66,0.66 0 0,0 25.62,18.23 L 24.99,17.78 C 24.87,17.87 24.75,18 24.66,18.13 L 24.61,18.18 C 24.55,18.26 24.47,18.33 24.4,18.4 L 24.15,18.67 L 23.14,19.76 L 23.07,19.83 L 22.95,19.95 A 0.36,0.36 0 0,0 22.91,20 C 22.91,20.02 22.89,20.03 22.87,20.06 L 22.6,20.34 C 22.38,20.57 22.1,20.85 22.05,20.94 L 21.48,21.91 C 21.48,21.93 21.46,21.94 21.45,21.96 C 21.37,22.08 21.25,22.29 21.16,22.36 C 20.82,22.62 20.41,22.83 20.01,23.02 L 19.7,23.18 L 19.65,23.2 A 0.7,0.7 0 0,0 19.46,23.32 C 19.34,23.44 19.1,23.92 19.1,24.1 C 19.1,24.15 19.6,24.6 19.7,24.68 L 19.76,24.74 A 1.7,1.7 0 0,0 20.34,25.08 C 20.55,25.16 20.71,25.22 20.89,25.58 L 20.91,25.64 C 20.98,25.77 21.08,25.96 20.9,25.87 L 20.87,25.85 A 7.92,7.92 0 0,0 20.79,25.81 L 20.57,25.7 L 20.07,25.45 C 19.57,25.22 19.21,25.05 18.77,24.58 A 3.44,3.44 0 0,0 17.86,23.88 A 0.8,0.8 0 0,0 17.68,24.08 L 17.58,24.2 L 17.45,24.36 L 17.37,24.46 L 17.33,24.53 L 17.09,24.88 C 16.96,25.1 16.88,25.33 16.79,25.57 L 16.57,26.1 C 16.42,26.4 16.29,26.55 16.01,26.7 C 16.01,26.52 16.08,26.25 16.16,25.99 C 16.22,25.76 16.28,25.53 16.29,25.36 C 16.17,25.43 16.07,25.51 15.96,25.59 L 15.79,25.71 C 15.64,25.81 15.49,25.91 15.33,25.99 C 15.13,26.11 14.93,26.23 14.75,26.37 L 14.02,27.13 A 3.16,3.16 0 0,1 13,28 C 12.92,28.06 12.86,28.08 12.77,28.12 A 9.56,9.56 0 0,0 12.67,28.17 L 12.57,28.21 L 12.53,28.23 L 12.43,28.27 C 12.43,28.21 12.44,28.21 12.47,28.19 L 12.5,28.16 L 13.07,27.55 L 13.15,27.45 L 13.23,27.35 L 14.7,25.79 C 14.81,25.65 14.95,25.51 15.1,25.38 C 15.18,25.28 15.28,25.2 15.36,25.11 L 16.18,24.25 L 17.46,23.17 C 17.71,23 17.79,22.92 17.86,22.92 C 17.94,22.93 18,23.04 18.21,23.25 L 18.28,23.32 Z M 6.06,34 H 4 V 33.74 L 4.3,33.71 C 4.61,33.68 4.61,33.65 4.61,32.76 V 30.24 C 4.61,29.35 4.61,29.31 4.29,29.29 L 4,29.26 V 29 H 6.19 C 7.43,29 7.79,29.57 7.79,30.1 C 7.79,30.88 6.99,31.21 6.68,31.28 V 31.29 C 7.33,31.36 8.12,31.72 8.12,32.53 C 8.12,33.49 7.2,34 6.06,34 Z M 5.86,29.31 C 5.69,29.31 5.52,29.33 5.37,29.35 V 31.23 H 5.7 C 6.35,31.23 7.03,31.09 7.03,30.23 C 7.03,29.61 6.56,29.31 5.85,29.31 Z M 5.72,31.43 H 5.37 V 33.59 C 5.62,33.65 5.87,33.69 6.13,33.69 C 6.88,33.69 7.26,33.3 7.26,32.66 C 7.26,32.2 6.99,31.43 5.72,31.43 Z M 12.64,34 H 9 V 33.74 L 9.3,33.71 C 9.61,33.68 9.61,33.65 9.61,32.76 V 30.24 C 9.61,29.35 9.61,29.32 9.3,29.29 L 9,29.26 V 29 H 10.99 V 29.26 L 10.69,29.29 C 10.37,29.32 10.37,29.35 10.37,30.24 V 33.6 C 10.67,33.64 10.97,33.69 11.27,33.69 C 12.44,33.69 12.55,33.28 12.7,32.71 L 12.72,32.66 L 12.92,32.69 A 4.8,4.8 0 0,1 12.65,34 Z M 14.61,34 H 12.9 V 33.73 L 13.05,33.71 C 13.36,33.67 13.4,33.59 13.6,33.17 L 15.3,29.5 L 15.5,29.07 L 15.73,29 L 17.55,33.2 C 17.67,33.49 17.75,33.65 17.97,33.69 L 18.29,33.73 V 34 H 16.27 V 33.73 L 16.64,33.67 C 16.78,33.65 16.89,33.62 16.89,33.54 C 16.89,33.5 16.88,33.47 16.86,33.44 A 0.6,0.6 0 0,1 16.84,33.38 L 16.27,32.01 A 5.46,5.46 0 0,0 14.51,32.01 L 14.09,33.02 C 13.99,33.25 13.93,33.45 13.93,33.51 C 13.93,33.64 14.03,33.67 14.13,33.67 L 14.61,33.73 V 34 Z M 16.14,31.74 L 15.39,29.99 L 14.61,31.74 L 14.79,31.73 A 8.69,8.69 0 0,1 16.14,31.73 Z M 23.34,32.58 L 23.4,32.45 L 23.62,32.49 C 23.57,32.95 23.48,33.29 23.29,33.72 A 5,5 0 0,1 21.6,34 C 20.04,34 18.57,33.36 18.57,31.51 C 18.57,29.58 20.33,29 21.62,29 C 22.45,29 23.07,29.18 23.29,29.3 C 23.36,29.59 23.42,30 23.42,30.37 L 23.2,30.41 L 23.18,30.34 C 23.09,29.99 22.9,29.24 21.61,29.24 C 20.27,29.24 19.43,30.02 19.43,31.38 C 19.43,32.62 20.1,33.76 21.59,33.76 C 22.85,33.76 23.11,33.13 23.35,32.58 Z M 26.3,34 H 24.3 V 33.74 L 24.6,33.71 C 24.91,33.68 24.91,33.65 24.91,32.76 V 30.24 C 24.91,29.35 24.91,29.32 24.59,29.29 L 24.3,29.26 V 29 H 26.29 V 29.26 L 25.99,29.29 C 25.67,29.32 25.67,29.35 25.67,30.24 V 31.34 H 25.82 C 26.22,31.34 26.37,31.2 27.12,30.32 L 27.67,29.71 C 27.89,29.46 27.89,29.41 27.89,29.37 C 27.89,29.3 27.81,29.29 27.64,29.28 H 27.6 L 27.3,29.26 V 29 H 29.14 V 29.26 L 28.94,29.28 A 0.72,0.72 0 0,0 28.54,29.42 C 28.24,29.62 27.27,30.6 27.14,30.75 L 26.74,31.2 C 26.94,31.5 27.49,32.23 27.83,32.65 L 28.08,32.95 C 28.71,33.69 28.75,33.74 29.14,33.74 V 34 H 28.63 C 28.23,34 27.97,33.83 27.73,33.6 C 27.43,33.3 27.19,32.99 26.99,32.71 A 23.9,23.9 0 0,1 26.95,32.66 L 26.33,31.84 C 26.13,31.59 25.97,31.54 25.81,31.54 H 25.67 V 32.76 C 25.67,33.65 25.67,33.68 25.99,33.71 L 26.29,33.74 V 34 Z M 31.59,34 H 29.6 V 33.74 L 29.9,33.71 C 30.22,33.68 30.22,33.65 30.22,32.76 V 30.24 C 30.22,29.35 30.22,29.32 29.9,29.29 L 29.6,29.26 V 29 H 31.73 C 32.51,29 33.6,29.2 33.6,30.3 C 33.6,30.98 32.93,31.38 32.48,31.57 L 32.61,31.8 L 33.09,32.59 C 33.43,33.13 33.79,33.56 33.99,33.66 C 34.08,33.71 34.22,33.74 34.4,33.74 V 34 H 33.78 C 33.24,34 32.86,33.57 32.62,33.17 L 32.29,32.61 C 32.08,32.25 31.89,31.98 31.79,31.9 C 31.65,31.8 31.45,31.8 31.28,31.8 H 30.98 V 32.76 C 30.98,33.65 30.98,33.68 31.28,33.71 L 31.58,33.74 V 34 Z M 31.49,29.35 C 31.32,29.35 31.15,29.38 30.99,29.41 V 31.61 H 31.45 C 32.14,31.61 32.75,31.28 32.75,30.46 C 32.75,29.61 32.13,29.35 31.49,29.35 Z M 40.4,31.45 C 40.4,33.05 39.1,34 37.48,34 C 35.86,34 34.69,33.1 34.69,31.54 C 34.69,29.97 36.06,29 37.63,29 C 39.13,29 40.4,29.85 40.4,31.46 Z M 37.5,29.24 C 36.27,29.24 35.55,30.14 35.55,31.4 C 35.55,32.88 36.4,33.76 37.63,33.76 C 39.03,33.76 39.54,32.7 39.54,31.64 C 39.54,30.28 38.78,29.24 37.49,29.24 Z M 46.22,32.58 L 46.28,32.45 L 46.5,32.49 C 46.45,32.95 46.36,33.29 46.16,33.72 A 5,5 0 0,1 44.48,34 C 42.92,34 41.45,33.36 41.45,31.51 C 41.45,29.58 43.2,29 44.5,29 C 45.33,29 45.95,29.18 46.16,29.3 C 46.23,29.59 46.29,30 46.29,30.37 L 46.07,30.41 L 46.05,30.34 C 45.97,29.99 45.78,29.24 44.49,29.24 C 43.15,29.24 42.31,30.02 42.31,31.38 C 42.31,32.62 42.98,33.76 44.46,33.76 C 45.72,33.76 45.99,33.13 46.22,32.58 Z M 49.15,34 H 47.17 V 33.74 L 47.46,33.71 C 47.78,33.68 47.78,33.65 47.78,32.76 V 30.24 C 47.78,29.35 47.78,29.32 47.46,29.29 L 47.16,29.26 V 29 H 49.15 V 29.26 L 48.85,29.29 C 48.54,29.32 48.54,29.35 48.54,30.24 V 31.34 H 48.68 C 49.09,31.34 49.23,31.2 49.99,30.32 L 50.53,29.71 C 50.75,29.46 50.75,29.41 50.75,29.37 C 50.75,29.3 50.67,29.29 50.51,29.28 H 50.46 L 50.16,29.26 V 29 H 52 V 29.26 L 51.81,29.28 A 0.72,0.72 0 0,0 51.41,29.42 C 51.11,29.62 50.14,30.6 50,30.75 L 49.6,31.2 C 49.81,31.5 50.35,32.23 50.7,32.65 L 50.95,32.95 C 51.58,33.69 51.61,33.74 52,33.74 V 34 H 51.5 C 51.1,34 50.83,33.83 50.6,33.6 C 50.29,33.3 50.05,32.99 49.85,32.71 A 23.9,23.9 0 0,1 49.81,32.66 L 49.19,31.84 C 48.99,31.59 48.83,31.54 48.68,31.54 H 48.54 V 32.76 C 48.54,33.65 48.54,33.68 48.86,33.71 L 49.15,33.74 V 34 Z" fill="rgb(61, 70, 84)"/>
</svg>
