<?xml version="1.0" encoding="UTF-8"?>
<!-- generated by Finnhub -->
<svg viewBox="0 0 55.5 55.5" xmlns="http://www.w3.org/2000/svg">
<path d="M 0,0 H 55.5 V 55.5 H 0 Z" fill="rgb(239, 242, 248)"/>
<path d="M 27.99,16.985 H 32 V 23.8 L 38.19,17 H 43 L 35.18,25.6 L 43,32.5 V 37 L 32,26.99 V 36 H 28 V 17 Z" fill="rgb(41, 77, 108)"/>
<path d="M 12.99,16.985 H 20.48 A 5.09,5.09 0 0,1 23.59,26.11 A 5.09,5.09 0 0,1 21.91,36 H 13 V 17 Z M 17,20 H 19.5 A 2.5,2.5 0 0,1 19.5,25 H 17 V 20 Z M 17,33 H 20.5 A 2.5,2.5 0 0,0 20.5,28 H 17 V 33 Z" fill="rgb(41, 77, 108)" fill-rule="evenodd"/>
<path d="M 12.99,39.985 C 15.25,39 21.4,37 28,37 S 40.75,39 43,40 C 38.56,38.65 31.15,38.47 28,38.5 C 24.85,38.47 17.44,38.65 13,40 Z" fill="rgb(184, 1, 2)"/>
</svg>
