<?xml version="1.0" encoding="UTF-8"?>
<!-- generated by Finnhub -->
<svg viewBox="0 0 55.5 55.5" xmlns="http://www.w3.org/2000/svg">
<path d="M 0,0 H 55.5 V 55.5 H 0 Z" fill="rgb(4, 154, 214)"/>
<path d="M 31.33,19.762 C 31.34,21.113 31.336,22.453 31.34,23.789 C 31.345,24.619 31.358,25.448 31.38,26.277 C 31.398,26.837 31.433,27.397 31.464,27.954 C 31.481,28.244 31.499,28.532 31.534,28.824 C 31.564,29.097 31.617,29.37 31.661,29.644 C 31.683,29.791 31.709,29.944 31.741,30.092 C 31.758,30.164 31.78,30.24 31.819,30.302 C 31.837,30.329 31.899,30.338 31.938,30.347 C 31.964,30.352 31.995,30.329 32.021,30.329 C 32.421,30.316 32.825,30.289 33.225,30.294 C 33.537,30.298 33.849,30.329 34.157,30.365 C 34.469,30.401 34.78,30.445 35.092,30.505 C 35.369,30.554 35.646,30.625 35.922,30.688 C 36.138,30.738 36.358,30.782 36.572,30.845 C 36.832,30.921 37.082,31.015 37.337,31.105 C 37.487,31.159 37.64,31.212 37.785,31.275 C 37.97,31.355 38.15,31.441 38.33,31.531 C 38.444,31.584 38.554,31.647 38.66,31.715 C 39.011,31.93 39.345,32.167 39.534,32.553 C 39.639,32.768 39.661,33.01 39.631,33.248 C 39.565,33.758 39.314,34.176 38.971,34.538 A 3.846,3.846 0 0,1 38.084,35.238 C 37.834,35.381 37.588,35.529 37.333,35.65 C 37.069,35.776 36.793,35.87 36.52,35.973 A 6.817,6.817 0 0,1 36.01,36.148 C 35.795,36.211 35.58,36.268 35.365,36.328 C 35.198,36.372 35.026,36.421 34.859,36.462 A 10.71,10.71 0 0,1 34.455,36.547 C 34.218,36.592 33.985,36.641 33.748,36.681 C 33.493,36.721 33.234,36.749 32.979,36.78 C 32.68,36.816 32.382,36.856 32.083,36.888 C 31.951,36.901 31.819,36.91 31.692,36.923 C 31.358,36.946 31.024,36.973 30.69,36.995 C 30.62,37 30.554,36.995 30.484,37 C 30.427,37.004 30.396,36.977 30.391,36.919 A 0.679,0.679 0 0,1 30.383,36.825 C 30.369,36.574 30.352,36.323 30.339,36.072 C 30.326,35.856 30.321,35.642 30.304,35.422 C 30.264,34.866 30.22,34.314 30.176,33.759 C 30.15,33.418 30.128,33.082 30.102,32.741 C 30.084,32.503 30.062,32.261 30.04,32.024 C 30.01,31.674 29.979,31.324 29.943,30.974 C 29.935,30.872 29.917,30.774 29.903,30.67 C 29.891,30.558 29.886,30.45 29.873,30.338 C 29.86,30.218 29.838,30.096 29.82,29.975 C 29.82,29.966 29.816,29.957 29.816,29.948 C 29.79,29.698 29.768,29.446 29.736,29.2 C 29.702,28.926 29.662,28.653 29.627,28.384 C 29.587,28.102 29.557,27.819 29.513,27.541 C 29.473,27.291 29.429,27.035 29.385,26.784 C 29.355,26.604 29.333,26.425 29.306,26.246 L 29.174,25.439 L 29.082,24.86 C 29.042,24.636 28.999,24.408 28.955,24.184 C 28.929,24.04 28.902,23.897 28.88,23.754 A 33.785,33.785 0 0,1 28.753,23.036 C 28.718,22.848 28.691,22.66 28.652,22.476 C 28.612,22.274 28.564,22.072 28.524,21.871 C 28.494,21.723 28.472,21.579 28.445,21.431 L 28.327,20.84 A 25.28,25.28 0 0,0 28.217,20.28 C 28.204,20.203 28.239,20.167 28.305,20.14 C 28.687,19.992 29.069,19.844 29.455,19.701 C 29.869,19.544 30.282,19.396 30.699,19.239 C 30.892,19.168 31.086,19.091 31.279,19.015 C 31.358,18.984 31.38,18.997 31.376,19.091 C 31.376,19.275 31.366,19.459 31.366,19.647 V 19.777 H 31.34 Z M 33.414,32.221 C 33.252,32.212 33.234,32.235 33.238,32.351 C 33.238,32.365 33.243,32.382 33.243,32.396 L 33.361,33.279 L 33.414,33.642 C 33.454,33.915 33.494,34.193 33.528,34.467 C 33.559,34.695 33.585,34.924 33.616,35.153 C 33.629,35.238 33.691,35.26 33.756,35.211 C 33.911,35.099 34.06,34.982 34.214,34.871 C 34.464,34.687 34.71,34.498 34.961,34.314 C 35.215,34.122 35.471,33.934 35.725,33.741 C 35.865,33.633 36.011,33.526 36.151,33.413 C 36.199,33.378 36.199,33.342 36.142,33.319 C 35.936,33.225 35.734,33.126 35.527,33.032 C 35.325,32.942 35.114,32.858 34.912,32.772 C 34.776,32.714 34.64,32.652 34.499,32.598 A 20.945,20.945 0 0,0 33.757,32.328 C 33.638,32.279 33.502,32.248 33.414,32.221 Z M 11.114,22.122 C 11.114,22.646 11.104,23.171 11.114,23.695 C 11.135,24.767 11.157,25.842 11.193,26.914 C 11.206,27.38 11.241,27.851 11.272,28.317 C 11.289,28.563 11.316,28.805 11.342,29.047 C 11.36,29.217 11.377,29.388 11.412,29.558 C 11.456,29.783 11.509,30.002 11.566,30.222 C 11.596,30.338 11.636,30.356 11.755,30.329 C 11.764,30.329 11.773,30.325 11.781,30.325 C 12.221,30.312 12.66,30.294 13.095,30.289 C 13.305,30.289 13.521,30.303 13.728,30.329 C 14,30.361 14.268,30.41 14.54,30.455 C 14.848,30.505 15.151,30.558 15.454,30.616 C 15.63,30.652 15.806,30.702 15.977,30.746 A 13.931,13.931 0 0,1 17.071,31.074 C 17.251,31.136 17.431,31.204 17.607,31.28 C 17.761,31.347 17.914,31.428 18.064,31.5 C 18.349,31.638 18.613,31.809 18.864,32.006 C 19.034,32.145 19.193,32.302 19.294,32.499 C 19.408,32.723 19.444,32.974 19.413,33.225 C 19.373,33.53 19.272,33.812 19.109,34.072 A 3.26,3.26 0 0,1 18.489,34.781 A 5.451,5.451 0 0,1 17.269,35.57 C 16.961,35.718 16.636,35.839 16.315,35.964 A 8.237,8.237 0 0,1 15.757,36.157 C 15.564,36.215 15.371,36.265 15.177,36.314 C 14.989,36.364 14.8,36.417 14.611,36.457 C 14.457,36.493 14.303,36.511 14.145,36.542 C 13.965,36.578 13.789,36.619 13.605,36.645 C 13.341,36.685 13.077,36.726 12.814,36.758 C 12.497,36.798 12.177,36.838 11.856,36.874 A 8.258,8.258 0 0,1 11.386,36.91 C 11.03,36.932 10.67,36.96 10.314,36.982 C 10.182,36.991 10.182,36.982 10.174,36.847 C 10.151,36.467 10.125,36.09 10.104,35.709 L 10.037,34.731 L 9.945,33.517 C 9.923,33.252 9.91,32.983 9.888,32.719 C 9.853,32.306 9.813,31.899 9.774,31.486 C 9.756,31.289 9.738,31.096 9.716,30.899 C 9.686,30.634 9.651,30.374 9.62,30.109 C 9.589,29.849 9.571,29.585 9.54,29.325 C 9.514,29.083 9.475,28.837 9.444,28.595 C 9.404,28.295 9.365,27.999 9.321,27.698 C 9.281,27.443 9.233,27.188 9.194,26.932 C 9.163,26.734 9.141,26.537 9.114,26.344 C 9.084,26.134 9.044,25.924 9.009,25.712 C 8.961,25.408 8.909,25.107 8.859,24.802 C 8.825,24.574 8.789,24.35 8.749,24.121 C 8.689,23.798 8.623,23.476 8.561,23.148 C 8.526,22.951 8.495,22.754 8.46,22.561 C 8.425,22.368 8.38,22.176 8.341,21.978 C 8.311,21.826 8.284,21.669 8.253,21.517 L 8.135,20.916 C 8.091,20.696 8.043,20.476 8.003,20.253 C 7.985,20.167 8.047,20.14 8.108,20.118 C 8.346,20.028 8.578,19.938 8.816,19.849 C 9.036,19.764 9.256,19.683 9.475,19.603 C 9.642,19.54 9.813,19.473 9.98,19.405 C 10.204,19.32 10.424,19.239 10.648,19.155 C 10.74,19.118 10.828,19.083 10.92,19.051 A 0.736,0.736 0 0,1 11.06,19.006 C 11.144,18.988 11.166,19.011 11.162,19.096 C 11.153,19.347 11.149,19.598 11.14,19.854 C 11.135,20.046 11.135,20.234 11.135,20.427 V 22.108 C 11.122,22.122 11.118,22.122 11.114,22.122 Z M 13.17,32.222 C 13.02,32.217 12.998,32.244 13.011,32.356 C 13.025,32.45 13.042,32.544 13.055,32.642 C 13.073,32.75 13.082,32.862 13.099,32.97 L 13.192,33.557 C 13.227,33.803 13.258,34.055 13.288,34.306 C 13.328,34.588 13.372,34.87 13.411,35.157 C 13.424,35.238 13.486,35.265 13.551,35.22 C 13.574,35.207 13.591,35.184 13.613,35.17 C 13.925,34.938 14.233,34.705 14.545,34.471 C 14.782,34.292 15.019,34.108 15.261,33.929 C 15.476,33.768 15.691,33.615 15.907,33.449 C 15.995,33.382 15.986,33.346 15.893,33.301 L 15.775,33.248 L 15.081,32.952 C 14.817,32.835 14.554,32.714 14.286,32.607 C 14.026,32.504 13.758,32.409 13.495,32.32 C 13.376,32.266 13.253,32.244 13.17,32.221 Z M 43.303,21.032 C 43.453,21.05 43.607,21.064 43.756,21.082 C 43.836,21.091 43.875,21.154 43.879,21.23 C 43.909,21.62 43.936,22.005 43.963,22.395 L 44.042,23.686 C 44.064,24.018 44.086,24.35 44.112,24.681 C 44.147,25.116 44.182,25.551 44.212,25.981 C 44.226,26.143 44.235,26.309 44.244,26.47 C 44.266,26.78 44.296,27.089 44.318,27.398 C 44.349,27.778 44.371,28.16 44.402,28.536 C 44.424,28.864 44.446,29.191 44.472,29.518 C 44.494,29.854 44.516,30.186 44.542,30.522 L 44.648,31.809 C 44.688,32.338 44.723,32.867 44.766,33.396 C 44.802,33.866 44.841,34.337 44.881,34.808 C 44.889,34.906 44.871,34.928 44.775,34.947 C 44.38,35.009 43.985,35.018 43.589,34.951 C 43.501,34.933 43.471,34.893 43.466,34.808 C 43.431,34.346 43.391,33.884 43.352,33.422 C 43.339,33.288 43.326,33.154 43.317,33.019 C 43.29,32.701 43.268,32.383 43.237,32.069 C 43.202,31.719 43.15,31.374 43.115,31.024 C 43.079,30.706 43.053,30.384 43.018,30.065 C 42.974,29.653 42.926,29.24 42.878,28.823 A 26.092,26.092 0 0,0 42.808,28.25 C 42.768,27.976 42.724,27.707 42.688,27.434 C 42.658,27.214 42.636,26.994 42.605,26.774 C 42.565,26.479 42.517,26.184 42.478,25.887 C 42.442,25.637 42.416,25.385 42.376,25.134 C 42.341,24.901 42.293,24.668 42.258,24.434 C 42.228,24.247 42.205,24.054 42.174,23.861 C 42.134,23.605 42.087,23.355 42.047,23.099 C 42.012,22.893 41.986,22.682 41.95,22.476 C 41.91,22.266 41.867,22.055 41.827,21.844 C 41.792,21.656 41.761,21.463 41.731,21.274 C 41.721,21.221 41.739,21.184 41.801,21.176 C 41.841,21.172 41.881,21.154 41.92,21.154 C 42.28,21.118 42.644,21.086 43.005,21.054 C 43.105,21.046 43.207,21.054 43.308,21.054 C 43.303,21.046 43.303,21.042 43.303,21.033 Z M 23.13,21.037 C 23.23,21.046 23.38,21.059 23.53,21.082 C 23.617,21.095 23.652,21.162 23.66,21.243 C 23.674,21.369 23.687,21.494 23.692,21.62 L 23.771,23.014 C 23.793,23.364 23.819,23.714 23.845,24.063 C 23.876,24.484 23.915,24.901 23.947,25.323 C 23.995,25.936 24.039,26.551 24.083,27.16 C 24.127,27.743 24.166,28.321 24.206,28.904 C 24.228,29.24 24.25,29.581 24.28,29.917 C 24.32,30.387 24.368,30.854 24.403,31.325 C 24.439,31.782 24.465,32.235 24.5,32.692 C 24.53,33.122 24.57,33.557 24.601,33.987 C 24.619,34.225 24.627,34.462 24.641,34.7 C 24.645,34.74 24.658,34.78 24.667,34.821 C 24.685,34.897 24.658,34.933 24.579,34.947 A 3.35,3.35 0 0,1 23.564,34.978 C 23.49,34.969 23.414,34.964 23.344,34.942 C 23.314,34.933 23.274,34.892 23.274,34.866 C 23.244,34.57 23.222,34.27 23.191,33.974 C 23.161,33.638 23.125,33.306 23.09,32.97 C 23.077,32.83 23.068,32.687 23.055,32.548 C 23.028,32.221 23.006,31.898 22.971,31.571 C 22.936,31.248 22.888,30.931 22.848,30.607 C 22.813,30.289 22.791,29.971 22.752,29.657 C 22.712,29.33 22.664,29.003 22.624,28.675 C 22.594,28.425 22.571,28.169 22.541,27.918 C 22.506,27.64 22.457,27.366 22.418,27.088 C 22.418,27.075 22.413,27.066 22.413,27.053 C 22.383,26.797 22.356,26.542 22.321,26.286 A 38.37,38.37 0 0,0 22.176,25.296 C 22.146,25.08 22.106,24.87 22.075,24.659 C 22.04,24.412 22.009,24.17 21.965,23.924 C 21.904,23.565 21.838,23.207 21.776,22.844 C 21.741,22.628 21.715,22.409 21.676,22.194 C 21.64,22.001 21.6,21.813 21.561,21.62 C 21.539,21.503 21.513,21.391 21.499,21.275 C 21.495,21.248 21.521,21.198 21.543,21.189 A 0.559,0.559 0 0,1 21.719,21.154 C 22.07,21.118 22.426,21.086 22.778,21.054 C 22.883,21.046 22.984,21.046 23.129,21.037 Z M 47.982,32.67 C 47.982,33.445 47.987,34.216 47.982,34.991 C 47.982,35.283 47.965,35.57 47.961,35.861 C 47.961,35.924 47.93,35.955 47.873,35.96 C 47.829,35.964 47.78,35.964 47.736,35.964 C 47.425,35.978 47.113,35.991 46.801,36.009 C 46.682,36.013 46.568,36.027 46.449,36.036 C 46.374,36.045 46.344,36.013 46.335,35.933 A 26.068,26.068 0 0,0 46.26,35.103 C 46.22,34.749 46.172,34.395 46.137,34.041 C 46.097,33.664 46.076,33.283 46.041,32.903 C 46.019,32.62 45.992,32.338 45.966,32.055 L 45.9,31.32 C 45.874,31.033 45.847,30.75 45.825,30.464 A 231,231 0 0,1 45.698,28.724 C 45.689,28.564 45.698,28.568 45.86,28.554 C 46.203,28.527 46.546,28.478 46.889,28.464 A 8.26,8.26 0 0,1 47.706,28.492 C 47.842,28.5 47.868,28.626 47.881,28.738 C 47.899,28.886 47.912,29.034 47.921,29.186 C 47.938,29.496 47.956,29.805 47.961,30.114 C 47.978,30.966 47.987,31.814 48,32.664 C 47.991,32.669 47.987,32.669 47.982,32.669 Z M 22.19,35.328 C 22.193,35.588 22.19,35.548 21.939,35.592 C 21.644,35.646 21.346,35.686 21.051,35.727 C 20.924,35.745 20.796,35.757 20.669,35.771 C 20.603,35.781 20.581,35.736 20.572,35.681 C 20.532,35.471 20.498,35.256 20.458,35.045 C 20.428,34.888 20.392,34.731 20.362,34.575 C 20.322,34.382 20.287,34.189 20.252,33.996 C 20.212,33.799 20.177,33.606 20.137,33.409 C 20.097,33.207 20.067,33.006 20.027,32.809 C 19.997,32.647 19.962,32.49 19.931,32.329 C 19.896,32.145 19.856,31.961 19.826,31.777 C 19.768,31.459 19.72,31.141 19.663,30.827 C 19.623,30.621 19.575,30.419 19.54,30.213 C 19.51,30.033 19.487,29.85 19.456,29.67 C 19.426,29.478 19.39,29.285 19.36,29.092 C 19.329,28.909 19.298,28.729 19.272,28.545 C 19.254,28.438 19.272,28.42 19.377,28.397 C 19.623,28.348 19.869,28.307 20.111,28.25 C 20.392,28.178 20.682,28.164 20.968,28.142 C 21.064,28.137 21.161,28.137 21.253,28.146 C 21.359,28.156 21.433,28.236 21.451,28.357 C 21.504,28.707 21.561,29.057 21.609,29.406 C 21.649,29.68 21.684,29.953 21.715,30.231 C 21.755,30.585 21.781,30.939 21.82,31.293 C 21.864,31.741 21.917,32.19 21.96,32.638 C 21.996,33.001 22.018,33.364 22.044,33.723 C 22.07,34.059 22.088,34.391 22.119,34.727 C 22.136,34.933 22.167,35.13 22.189,35.327 Z M 39.499,28.577 C 39.494,28.429 39.49,28.424 39.631,28.397 C 39.855,28.348 40.083,28.312 40.303,28.254 C 40.575,28.182 40.856,28.182 41.133,28.142 A 0.775,0.775 0 0,1 41.551,28.187 C 41.594,28.205 41.638,28.263 41.651,28.312 C 41.775,28.796 41.841,29.294 41.884,29.792 C 41.911,30.101 41.954,30.41 41.986,30.719 C 42.026,31.096 42.056,31.468 42.091,31.844 C 42.135,32.288 42.188,32.732 42.227,33.171 C 42.262,33.552 42.28,33.938 42.311,34.319 C 42.333,34.646 42.359,34.978 42.385,35.305 C 42.385,35.332 42.399,35.355 42.407,35.381 C 42.429,35.475 42.385,35.538 42.289,35.551 L 41.498,35.659 C 41.305,35.686 41.116,35.722 40.922,35.758 C 40.835,35.771 40.808,35.748 40.791,35.664 C 40.755,35.48 40.707,35.292 40.671,35.108 C 40.65,35 40.641,34.888 40.619,34.781 C 40.575,34.543 40.523,34.306 40.479,34.068 C 40.413,33.728 40.356,33.382 40.289,33.041 C 40.25,32.835 40.202,32.625 40.162,32.418 A 7.63,7.63 0 0,1 40.088,31.979 C 40.053,31.791 40.022,31.607 39.987,31.419 C 39.943,31.181 39.903,30.948 39.859,30.71 C 39.819,30.495 39.771,30.276 39.732,30.06 C 39.705,29.93 39.683,29.796 39.662,29.666 A 74.948,74.948 0 0,1 39.508,28.68 C 39.503,28.653 39.503,28.617 39.498,28.577 Z M 27.751,32.746 V 35.229 C 27.751,35.444 27.733,35.655 27.729,35.87 C 27.729,35.924 27.703,35.95 27.654,35.96 C 27.633,35.964 27.614,35.964 27.593,35.969 C 27.277,35.982 26.956,36 26.64,36.013 C 26.508,36.023 26.376,36.036 26.244,36.04 C 26.13,36.045 26.112,36.027 26.104,35.915 C 26.09,35.754 26.082,35.588 26.064,35.422 C 26.042,35.162 26.016,34.897 25.989,34.637 C 25.959,34.319 25.919,34.001 25.889,33.678 C 25.836,33.14 25.783,32.607 25.735,32.068 C 25.695,31.648 25.665,31.222 25.629,30.8 A 56.396,56.396 0 0,1 25.559,29.908 L 25.479,28.783 V 28.703 C 25.489,28.581 25.506,28.568 25.629,28.559 C 25.985,28.527 26.336,28.487 26.692,28.465 C 26.89,28.451 27.088,28.469 27.285,28.478 A 0.857,0.857 0 0,1 27.545,28.528 C 27.585,28.541 27.632,28.595 27.641,28.64 C 27.676,28.814 27.711,28.99 27.716,29.169 C 27.742,30.361 27.76,31.553 27.782,32.746 H 27.752 Z M 47.75,26.142 V 27.433 C 47.75,27.523 47.723,27.55 47.635,27.536 C 47.376,27.509 47.117,27.478 46.858,27.451 C 46.788,27.442 46.783,27.397 46.783,27.343 C 46.774,27.061 46.77,26.779 46.761,26.501 C 46.748,25.923 46.739,25.341 46.726,24.762 C 46.722,24.632 46.73,24.623 46.853,24.632 C 47.103,24.645 47.359,24.659 47.609,24.677 C 47.745,24.686 47.772,24.708 47.772,24.847 C 47.776,25.277 47.772,25.707 47.772,26.137 C 47.767,26.142 47.758,26.142 47.75,26.142 Z M 26.508,25.726 V 24.749 C 26.508,24.637 26.517,24.623 26.626,24.632 C 26.876,24.645 27.127,24.65 27.373,24.682 C 27.536,24.699 27.567,24.708 27.567,24.883 C 27.553,25.69 27.549,26.496 27.527,27.299 C 27.518,27.589 27.545,27.545 27.29,27.523 A 16.126,16.126 0 0,1 26.64,27.451 C 26.582,27.446 26.574,27.406 26.57,27.357 C 26.56,27.101 26.543,26.841 26.538,26.586 C 26.534,26.299 26.538,26.012 26.538,25.726 H 26.508 Z M 20.458,24.367 H 20.845 C 20.955,24.367 20.977,24.385 20.99,24.497 C 21.016,24.748 21.038,24.999 21.06,25.25 C 21.1,25.707 21.135,26.16 21.17,26.617 C 21.179,26.738 21.179,26.864 21.187,26.985 C 21.187,27.012 21.192,27.043 21.201,27.07 C 21.227,27.182 21.209,27.204 21.095,27.204 C 20.84,27.2 20.585,27.195 20.331,27.195 C 20.274,27.195 20.251,27.169 20.247,27.119 C 20.23,27.003 20.207,26.882 20.195,26.765 C 20.159,26.465 20.129,26.16 20.098,25.855 L 20.032,25.21 C 20.01,24.981 19.984,24.753 19.962,24.524 C 19.962,24.511 19.957,24.493 19.957,24.48 C 19.94,24.399 19.953,24.376 20.041,24.372 C 20.173,24.372 20.313,24.372 20.458,24.367 C 20.458,24.372 20.458,24.372 20.458,24.367 Z M 40.672,24.367 H 41.067 C 41.181,24.367 41.207,24.399 41.217,24.511 C 41.257,25.026 41.3,25.537 41.34,26.053 C 41.366,26.398 41.397,26.743 41.423,27.088 C 41.432,27.186 41.41,27.208 41.313,27.204 C 41.151,27.195 40.993,27.177 40.83,27.173 A 0.984,0.984 0 0,0 40.602,27.195 C 40.496,27.213 40.461,27.191 40.448,27.083 C 40.413,26.823 40.382,26.559 40.351,26.299 C 40.325,26.079 40.316,25.859 40.281,25.645 A 5.747,5.747 0 0,1 40.211,24.977 C 40.201,24.811 40.171,24.65 40.149,24.484 C 40.14,24.404 40.175,24.372 40.25,24.372 C 40.4,24.376 40.536,24.372 40.672,24.367 C 40.672,24.372 40.672,24.372 40.672,24.367 Z M 25.862,24.672 H 25.95 C 26.025,24.668 26.06,24.704 26.064,24.78 C 26.09,25.34 26.112,25.905 26.144,26.465 C 26.156,26.761 26.187,27.057 26.204,27.348 C 26.214,27.487 26.2,27.496 26.06,27.5 C 25.884,27.51 25.708,27.523 25.537,27.532 C 25.414,27.541 25.387,27.522 25.374,27.402 C 25.339,27.065 25.308,26.725 25.274,26.389 C 25.251,26.142 25.225,25.9 25.203,25.654 C 25.181,25.444 25.159,25.237 25.133,25.026 C 25.128,24.973 25.102,24.923 25.111,24.874 C 25.115,24.838 25.155,24.78 25.185,24.775 C 25.414,24.731 25.642,24.695 25.871,24.659 C 25.862,24.663 25.862,24.668 25.862,24.672 Z M 40.092,27.12 C 40.096,27.285 40.088,27.29 39.921,27.308 C 39.745,27.326 39.569,27.357 39.394,27.384 C 39.324,27.393 39.301,27.37 39.288,27.299 C 39.231,26.999 39.161,26.698 39.099,26.398 C 39.064,26.228 39.038,26.053 39.002,25.882 C 38.962,25.694 38.915,25.51 38.879,25.322 C 38.839,25.13 38.809,24.937 38.779,24.744 C 38.774,24.722 38.809,24.681 38.831,24.672 C 39.073,24.605 39.31,24.547 39.551,24.484 C 39.666,24.457 39.705,24.494 39.723,24.614 C 39.763,24.887 39.811,25.161 39.855,25.43 C 39.881,25.613 39.903,25.793 39.929,25.977 C 39.973,26.29 40.022,26.599 40.066,26.913 C 40.074,26.985 40.083,27.053 40.092,27.119 Z M 19.14,27.393 C 19.118,27.37 19.074,27.339 19.061,27.298 A 8.955,8.955 0 0,1 18.961,26.828 C 18.911,26.595 18.868,26.362 18.824,26.128 L 18.732,25.64 C 18.697,25.47 18.657,25.3 18.622,25.13 A 5.4,5.4 0 0,1 18.552,24.762 C 18.547,24.735 18.582,24.682 18.609,24.672 C 18.841,24.605 19.069,24.547 19.303,24.488 C 19.453,24.453 19.496,24.484 19.518,24.668 C 19.548,24.888 19.566,25.107 19.598,25.327 C 19.632,25.569 19.681,25.811 19.716,26.053 C 19.751,26.303 19.782,26.55 19.816,26.801 C 19.83,26.904 19.856,27.003 19.874,27.101 C 19.896,27.218 19.874,27.271 19.768,27.29 C 19.571,27.33 19.368,27.357 19.14,27.393 Z M 46.405,27.025 V 27.402 C 46.405,27.465 46.383,27.5 46.317,27.505 C 46.12,27.514 45.922,27.527 45.724,27.541 C 45.645,27.545 45.606,27.523 45.601,27.438 C 45.584,27.236 45.561,27.034 45.54,26.838 C 45.5,26.497 45.456,26.16 45.412,25.82 C 45.408,25.793 45.412,25.762 45.408,25.73 L 45.342,25.112 A 1.161,1.161 0 0,1 45.338,24.865 C 45.342,24.834 45.378,24.785 45.404,24.78 C 45.658,24.74 45.914,24.704 46.168,24.668 C 46.243,24.659 46.269,24.695 46.273,24.767 L 46.353,26.089 C 46.37,26.416 46.388,26.739 46.405,27.025 Z" fill="rgb(254, 254, 253)"/>
</svg>
