<?xml version="1.0" encoding="UTF-8"?>
<!-- generated by Finnhub -->
<svg viewBox="0 0 55.5 55.5" xmlns="http://www.w3.org/2000/svg">
<path d="M 0,0 H 55.5 V 55.5 H 0 Z" fill="url(#a)"/>
<path d="M 25.99,34.985 V 25 H 29 V 26.441 C 29.936,25.227 31.673,24.974 32.334,25 C 34.858,25.031 36,27.064 36,27.958 V 35 H 33 V 29.769 C 33,29.176 32.417,28 31.02,28 S 28.98,29.198 29,29.769 V 35 H 26 Z" fill="rgb(254, 254, 253)"/>
<path d="M 8.99,19.985 V 35 H 12 V 33.646 C 12.314,34.097 13.652,35 15.313,35 C 17.39,35 20,33.333 20,29.73 C 20,26.125 17.09,25 15.313,25 C 13.893,25 12.413,25.793 12,26.224 V 20 H 9 Z M 14.5,32.447 C 15.88,32.447 17,31.351 17,30 S 15.88,27.553 14.5,27.553 S 12,28.65 12,30 S 13.12,32.447 14.5,32.447 Z" fill="rgb(254, 254, 253)" fill-rule="evenodd"/>
<ellipse cx="27.485" cy="21.5" rx="1.485" ry="1.5" fill="rgb(254, 254, 253)"/>
<path d="M 20.99,19.985 H 24 V 35 H 21 Z M 38,35 V 20 H 41 V 29.2 L 44.744,25 H 48.727 L 44.425,29.607 L 49,35 H 44.744 L 41,30.41 V 35 H 38 Z" fill="rgb(254, 254, 253)"/>
<defs>
<linearGradient id="a" x1="10.418" x2="68.147" y1="9.712" y2="76.017" gradientUnits="userSpaceOnUse">
<stop stop-color="rgb(25, 29, 31)" offset="0"/>
<stop stop-color="rgb(5, 5, 8)" offset="1"/>
</linearGradient>
</defs>
</svg>
