<?xml version="1.0" encoding="UTF-8"?>
<!-- generated by Finnhub -->
<svg viewBox="0 0 55.5 55.5" xmlns="http://www.w3.org/2000/svg">
<path d="M 0,0 H 55.5 V 55.5 H 0 Z" fill="rgb(0, 52, 106)"/>
<path d="M 3.99,25.985 H 8.81 A 1.19,1.19 0 0,1 9.68,28 A 1.18,1.18 0 0,1 8.81,30 H 4 V 26 Z M 5,27 H 9 V 27.5 H 5 V 27 Z M 5,28.47 H 9 V 29 H 5 V 28.47 Z" fill="rgb(254, 254, 253)" fill-rule="evenodd"/>
<path d="M 10.51,25.985 L 11.52,26.37 V 30 H 10.52 V 26 Z M 25,26 L 26,26.37 V 30 H 25 V 26 Z" fill="rgb(254, 254, 253)"/>
<path d="M 13.33,25.985 C 12.6,26 12,26.56 12,27.26 V 28.74 C 12,29.44 12.6,30 13.34,30 H 16.66 C 17.4,30 18,29.44 18,28.74 V 27.26 C 18,26.56 17.4,26 16.66,26 H 13.34 Z M 17,27 H 13 V 29 H 17 V 27 Z" fill="rgb(254, 254, 253)" fill-rule="evenodd"/>
<path d="M 18.99,28.724999999999998 V 26 L 20,26.32 V 29 H 24 V 30 H 20.13 C 19.51,30 19,29.44 19,28.74 Z M 27,26.94 V 30 H 28 V 26.94 L 31.18,29.73 C 31.86,30.31 33,29.89 33,29.06 V 26 H 32 V 29.06 L 28.82,26.26 C 28.14,25.69 27,26.11 27,26.94 Z M 35.25,26 H 39.43 L 39.14,27 H 35 V 27.5 H 38.57 V 28.5 H 35 V 29 H 39.14 L 39.43,30 H 35.25 C 34.55,30 34,29.44 34,28.75 V 27.25 C 34,26.56 34.56,26 35.25,26 Z" fill="rgb(254, 254, 253)"/>
<path d="M 44.77,25.985 H 40 V 30 H 41 V 28.44 H 44.78 C 44.85,28.44 44.93,28.44 45,28.42 V 30 H 46 V 28.57 A 0.87,0.87 0 0,0 45.7,28.01 C 45.89,27.8 46,27.52 46,27.22 C 46,26.55 45.45,26 44.78,26 Z M 45,27 H 41 V 27.51 H 45 V 27 Z" fill="rgb(152, 172, 194)" fill-rule="evenodd"/>
<path d="M 47.67,25.985 H 46.29 L 48.11,27.98 L 46.29,30 H 47.68 L 49.14,28.29 L 50.74,30 H 52 L 50.26,27.98 L 52,26 H 50.63 L 49.13,27.68 L 47.69,26 Z" fill="rgb(152, 172, 194)"/>
</svg>
