<?xml version="1.0" encoding="UTF-8"?>
<!-- generated by Finnhub -->
<svg viewBox="0 0 55.5 55.5" xmlns="http://www.w3.org/2000/svg">
<path d="M 0,0 H 55.5 V 55.5 H 0 Z" fill="url(#a)"/>
<path d="M 12.65,32.155 C 12.66,32.94 12.43,33.6 11.96,34.09 C 11.4,34.69 10.53,35 9.44,35 H 6 V 25 H 9.33 C 10.28,25 11.03,25.23 11.57,25.69 C 12.04,26.09 12.29,26.63 12.29,27.29 C 12.29,27.89 12.04,28.43 11.57,28.91 C 11.09,29.4 10.56,29.66 9.97,29.66 C 10.64,29.74 11.23,29.94 11.71,30.29 C 12.32,30.74 12.66,31.4 12.66,32.17 Z M 10.81,27.46 C 10.81,26.91 10.64,26.51 10.28,26.23 A 2.42,2.42 0 0,0 8.74,25.8 H 7.51 V 29.31 H 8.51 C 9.31,29.31 9.91,29.14 10.28,28.77 C 10.62,28.46 10.81,28.03 10.81,27.46 Z M 11.11,32.03 C 11.12,31.46 10.92,31 10.51,30.66 A 2.8,2.8 0 0,0 8.71,30.14 H 7.48 V 34.17 H 9 C 9.7,34.17 10.26,33.94 10.63,33.49 C 10.96,33.09 11.13,32.6 11.13,32.03 Z M 13.54,25 L 13.65,27.11 V 32.83 L 13.54,35 H 15 V 25 H 13.54 Z M 22.23,35 H 20.75 S 20.66,34.64 20.66,34.56 V 34.23 C 20.33,34.48 20.05,34.67 19.82,34.78 C 19.57,34.89 19.37,34.95 19.23,34.98 C 19.07,34.98 18.98,35 18.93,35 H 18.76 C 18.09,35 17.56,34.84 17.16,34.48 A 1.8,1.8 0 0,1 16.58,33.08 C 16.58,32.51 16.86,32.02 17.42,31.58 A 8.24,8.24 0 0,1 20.07,30.38 L 20.72,30.18 C 20.72,29.86 20.66,29.61 20.58,29.45 C 20.33,28.95 19.82,28.71 19.07,28.71 C 18.84,28.71 18.62,28.74 18.37,28.79 C 18.14,28.85 17.84,28.96 17.5,29.07 L 17,29.23 V 28.2 C 17.64,28.06 18.42,28.01 18.96,28.01 C 19.96,28.01 20.75,28.21 21.28,28.58 C 21.75,28.94 22,29.38 22,29.95 V 33.4 C 22,33.97 22.09,34.57 22.23,35.01 Z M 20.69,33.63 V 30.8 L 19.35,31.32 C 18.85,31.54 18.48,31.82 18.25,32.08 C 18,32.38 17.89,32.68 17.89,32.98 C 17.89,33.34 18.03,33.64 18.29,33.86 C 18.54,34.08 18.84,34.22 19.23,34.22 C 19.51,34.22 19.77,34.13 20.05,34.02 C 20.3,33.94 20.55,33.81 20.72,33.62 M 28.4,35 H 27.02 V 34.3 C 26.8,34.5 26.52,34.66 26.18,34.8 C 25.85,34.94 25.54,35 25.23,35 C 24.53,35 23.95,34.66 23.47,34.01 A 3.82,3.82 0 0,1 22.74,31.61 C 22.74,30.62 22.99,29.75 23.53,28.98 C 24.11,28.16 24.81,27.77 25.68,27.77 C 26.18,27.77 26.61,27.94 27,28.31 V 25 H 28.3 V 32.8 L 28.4,35 Z M 27,33.42 V 29.15 C 26.7,28.75 26.32,28.55 25.88,28.55 C 25.43,28.55 24.98,28.85 24.62,29.41 C 24.25,29.97 24,30.71 24,31.61 C 24,32.46 24.22,33.11 24.53,33.56 C 24.84,34.01 25.23,34.24 25.71,34.24 C 25.99,34.24 26.21,34.18 26.43,34.07 C 26.63,33.95 26.78,33.76 27,33.42 Z M 35.03,33.94 C 34.41,34.69 33.45,34.92 32.52,35 C 31.59,35 30.84,34.7 30.25,34.1 A 3.48,3.48 0 0,1 29.33,31.54 C 29.33,30.45 29.66,29.61 30.31,28.93 C 30.89,28.33 31.59,28 32.41,28 C 33.08,28 33.66,28.27 34.17,28.82 C 34.67,29.36 34.92,29.93 34.92,30.53 L 30.81,32.17 C 30.89,32.71 31.15,33.17 31.54,33.61 C 31.93,34.05 32.38,34.24 32.85,34.24 C 33.19,34.24 33.47,34.18 33.69,34.1 C 33.97,34 34.31,33.75 34.64,33.42 L 35.06,33.94 H 35.03 Z M 33.53,29.99 C 33.53,29.74 33.41,29.47 33.13,29.17 C 32.85,28.84 32.54,28.68 32.23,28.68 C 31.82,28.68 31.43,28.88 31.12,29.28 C 30.75,29.72 30.59,30.26 30.59,30.88 C 30.59,31.08 30.59,31.3 30.67,31.57 L 33.22,30.53 C 33.42,30.45 33.52,30.29 33.52,30.02 M 41.19,35 H 39.62 L 38.08,32.19 L 36.35,35 H 35.25 L 36.71,32.78 C 36.99,32.36 37.3,31.94 37.64,31.46 L 35.59,28 H 37.08 L 38.45,30.36 L 39.99,28 H 40.99 C 40.55,28.62 40.21,29.15 39.93,29.55 A 34.2,34.2 0 0,0 38.95,31.06 L 39.54,32.08 L 41.19,35 Z" fill="rgb(254, 254, 253)"/>
<path d="M 34.830000000000005,22.064999999999998 S 62.94,7.78 45.04,35 C 45.04,35 45.04,19 34.84,22.08 Z" fill="rgb(95, 165, 14)"/>
<path d="M 33.99,17.895 S 53.48,8.07 45.03,24.56 C 45.03,24.56 41.48,15.49 34,17.91 Z" fill="rgb(243, 177, 33)"/>
<path d="M 41.36,19.415 A 19.15,19.15 0 0,1 47.16,18.34 C 47.1,19.8 46.46,21.82 45.06,24.59 C 45.06,24.59 43.86,21.51 41.36,19.43 Z" fill="rgb(1, 44, 114)"/>
<defs>
<linearGradient id="a" x1="28" x2="28" y2="56" gradientUnits="userSpaceOnUse">
<stop stop-color="rgb(1, 31, 80)" offset="0"/>
<stop stop-color="rgb(40, 101, 242)" offset=".72"/>
</linearGradient>
</defs>
</svg>
