<?xml version="1.0" encoding="UTF-8"?>
<!-- generated by Finnhub -->
<svg viewBox="0 0 55.5 55.5" xmlns="http://www.w3.org/2000/svg">
<path d="M 0,0 H 55.5 V 55.5 H 0 Z" fill="rgb(239, 242, 248)"/>
<path d="M 26.99,16.985 C 23.97,17 18,19.9 18,29 C 18,34.15 20.65,39 26.35,39 C 31.28,39 40,35.87 40,30 C 40,23.98 33.34,17 27,17 Z M 16,29 C 16,18.7 22.97,15 27,15 C 34.43,15 42,22.89 42,30 C 42,37.06 32.45,41 26.35,41 C 19.55,41 16,35.25 16,29 Z" fill="rgb(84, 165, 69)"/>
<path d="M 26.849999999999998,13.985 C 23.07,14 15,17.89 15,29.07 C 15,35.44 18.74,42 25.79,42 C 31.89,42 43,37.4 43,30.14 C 43,22.71 34.67,14 26.86,14 Z M 13,29.07 C 13,16.7 22.07,12 26.86,12 C 35.76,12 45,21.62 45,30.14 C 45,38.6 33.06,44 25.79,44 C 17.64,44 13,36.55 13,29.07 Z" fill="rgb(84, 165, 69)"/>
<circle cx="33" cy="28" r="3" fill="rgb(84, 165, 69)"/>
</svg>
