<?xml version="1.0" encoding="UTF-8"?>
<!-- generated by Finnhub -->
<svg viewBox="0 0 55.5 55.5" xmlns="http://www.w3.org/2000/svg">
<path d="M 0,0 H 55.5 V 55.5 H 0 Z" fill="rgb(1, 41, 64)"/>
<path d="M 23.858999999999998,12.74 C 26.949,14.206 24.553,18.278 27.233,20.077 C 28.319,20.832 29.5,21 31,21 C 35,21 41,20.5 43.18,24.16 C 44.326,25.839 44.208,28.621 43.121,30.3 C 42.496,31.403 41.41,32.039 40.324,32.446 C 41.977,32.854 43.404,34.413 43.806,36.032 C 44.373,38.407 43.688,40.781 41.87,42.34 C 39.651,44.247 36.546,43.995 33.548,43.983 C 31.046,43.959 27.328,44.007 26.253,41.405 C 25.568,39.378 26.43,36.488 24.093,35.325 C 21.012,34.221 17.258,34.341 14,34.977 V 29.772 C 16.113,29.197 18.722,29.101 20.894,29.305 C 22.487,29.532 24.376,29.712 25.108,31.331 C 26.076,33.586 24.919,37.637 28,38.5 C 30.68,39.196 35.449,39.024 36.735,39 C 38.945,39.042 39.66,35.245 37.302,35 C 34.5,35 29.898,35.214 28.13,34.581 C 25.049,33.478 26.702,29.712 25.226,27.578 C 23.739,25.778 20.504,25.935 19.182,25.898 C 16.892,25.875 15.676,26.007 14,26.307 V 21.102 C 17.187,20.526 21.295,20.179 24.199,21.57 C 26.997,23.308 24.364,27.77 27.681,29.149 C 30.644,30.252 36.5,30 37.431,30 C 38,30 38.683,29.268 38.861,28.633 C 39.429,26.858 37.416,26 36.015,26 C 31.872,25.964 27.705,26.372 26.442,23.686 C 25.698,21.659 26.56,19.256 24.222,18.032 C 21.826,17.109 18.013,17.169 16.242,17.396 C 14.992,17.552 14,17.744 14,17.744 V 12.468 C 15.428,12.18 16.869,12 18.415,12 C 20.28,12.012 22.215,12.072 23.869,12.755 Z" fill="rgb(254, 254, 253)"/>
</svg>
