<?xml version="1.0" encoding="UTF-8"?>
<!-- generated by Finnhub -->
<svg viewBox="0 0 55.5 55.5" xmlns="http://www.w3.org/2000/svg">
<path d="M 0,0 H 55.5 V 55.5 H 0 Z" fill="rgb(239, 242, 248)"/>
<path d="M 25.4,35.085 C 25.14,35.12 24.97,35.1 25,34.29 V 31.79 C 24.57,32.38 24.03,32.79 23.52,33.49 C 22.16,35.39 19.81,36.74 16.4,36.74 C 14.07,36.74 11.27,36.28 11.27,32.98 C 11.27,29.78 12.97,22.2 13.29,20.83 L 13.31,20.73 C 13.45,20.1 12.98,19.85 12.58,19.64 C 12.32,19.5 12.08,19.37 12.08,19.17 C 12.08,18.18 16.05,17.26 16.81,17.26 C 17.39,17.26 17.74,17.37 17.74,18.06 C 17.74,18.34 17.41,20.59 17.01,23.27 L 16.95,23.67 L 16.71,25.24 C 17.11,25 17.58,24.74 18.11,24.52 A 5.64,5.64 0 0,1 22.9,24.62 C 23.37,24.88 23.8,25.24 24.14,25.73 C 24.09,25.19 24.1,24.53 24.39,24.31 L 24.5,24.23 C 25.2,23.73 27.46,22.4 28.06,22.4 C 28.24,22.4 28.4,22.54 28.54,22.73 C 28.87,23.2 29.05,24.03 29.05,24.03 S 29.42,23.57 30.09,23.05 A 6.57,6.57 0 0,1 34.07,21.59 C 34.87,21.59 35.47,21.91 35.88,22.28 C 36.44,22.76 36.69,23.33 36.69,23.33 S 36.98,22.85 37.56,22.3 A 5.85,5.85 0 0,1 41.65,20.61 C 44.15,20.61 45,22.11 45,23.68 V 31.54 C 45.1,31.66 45.26,31.74 45.38,31.83 C 45.57,31.95 45.73,32.06 45.73,32.23 C 45.73,32.34 45.21,32.47 44.53,32.6 L 44.34,32.63 C 43.2,32.83 42.03,32.91 41.71,32.95 C 41.19,33.01 41,32.72 41,32.02 V 24.95 C 41.02,24.02 40.6,23.04 39.64,23.04 C 38.68,23.04 37.03,24.28 37,25.67 V 33.31 C 37,33.58 36.96,33.69 36.26,33.77 L 34.4,33.99 L 33.42,34.11 C 33.1,34.14 33,34.14 33,33.31 V 26 C 33,25.16 32.73,24.11 31.76,24.11 C 30.8,24.11 29.03,25.18 29,26.39 C 28.94,28.99 28.95,31.62 29,34.23 C 29,34.45 29.06,34.7 28.53,34.78 A 80.37,80.37 0 0,1 25.41,35.1 Z M 30,26.42 C 30.01,25.94 31.27,25.46 31.7,25.38 C 31.76,25.48 32,25.76 32,26 V 33.3 C 32,34.44 32.24,35.53 33.53,35.37 L 34.57,35.24 L 34.81,35.21 L 36.39,35.01 C 36.62,34.99 36.87,34.96 37.1,34.89 C 37.48,34.77 38,34.24 38,33.4 V 25.67 C 38,25.41 38.56,25.06 38.91,24.73 C 39.07,24.57 39.25,24.45 39.41,24.38 L 39.61,24.3 C 39.91,24.78 40.01,25.48 40,26 V 32.02 C 40,32.89 40.07,33.8 40.97,34.12 A 2,2 0 0,0 41.85,34.2 C 42.13,34.17 42.93,34.13 43.97,33.97 A 21.5,21.5 0 0,0 45.42,33.7 C 45.62,33.65 45.84,33.6 46.02,33.52 C 46.12,33.49 46.26,33.42 46.42,33.32 C 46.49,33.27 47,32.92 47,32.23 C 47,31.79 46.8,31.45 46.63,31.23 C 46.47,31.05 46.09,30.91 46,30.85 C 46.06,30.88 46,26.07 46,23.68 C 46,22.7 45.99,21.59 45.2,20.72 A 4.6,4.6 0 0,0 41.65,19.35 A 7.05,7.05 0 0,0 36.73,21.34 C 36.13,20.82 35.25,20.34 34.07,20.34 A 7.7,7.7 0 0,0 29.51,21.91 A 1.83,1.83 0 0,0 27.35,21.27 A 15.9,15.9 0 0,0 25.56,22.11 A 19.22,19.22 0 0,0 23.44,23.47 A 6.9,6.9 0 0,0 18.31,23.1 A 928.73,928.73 0 0,0 18.91,19.01 C 18.96,18.65 19.01,18.26 19.01,18.07 C 19.01,17.53 18.87,16.84 18.24,16.39 A 2.4,2.4 0 0,0 16.81,16 C 16.47,16 15.96,16.09 15.48,16.19 C 14.97,16.29 14.36,16.46 13.77,16.65 C 13.19,16.84 12.57,17.08 12.07,17.37 C 11.82,17.51 11.55,17.71 11.32,17.95 C 11.09,18.19 10.82,18.61 10.82,19.17 C 10.82,19.97 11.4,20.39 11.6,20.52 A 3.93,3.93 0 0,0 12,20.76 C 11.81,21.59 11.37,23.58 10.95,25.78 A 46.3,46.3 0 0,0 10,32.98 C 10,33.98 10.21,34.86 10.65,35.6 A 4.29,4.29 0 0,0 12.35,37.2 C 13.65,37.9 15.2,38 16.4,38 C 19.6,38 22.03,36.92 23.68,35.26 C 23.78,35.54 23.95,35.81 24.23,36.03 C 24.79,36.46 25.45,36.36 25.53,36.35 H 25.55 L 25.99,36.3 A 90.9,90.9 0 0,0 28.72,36.02 C 29.95,35.83 29.96,34.96 30,33.86 C 30.04,32.49 29.98,27.5 30,26.42 Z M 17.4,33.7 C 17.14,33.7 17.05,33.62 17.03,33.6 C 17.02,33.6 16.91,33.5 16.91,33.11 V 33.07 A 3.7,3.7 0 0,1 16.95,32.65 L 17.07,31.64 C 17.17,30.84 17.32,29.81 17.48,28.67 C 17.59,28.19 17.88,27.84 18.24,27.59 C 18.42,27.46 18.61,27.37 18.76,27.32 C 18.9,27.27 18.98,27.26 18.98,27.26 C 19.12,27.26 19.15,27.29 19.21,27.36 C 19.32,27.51 19.56,28.01 19.56,29.29 C 19.56,30.78 19.07,31.94 18.51,32.71 C 18.22,33.11 17.93,33.38 17.69,33.54 C 17.52,33.66 17.43,33.69 17.4,33.7 Z M 15.64,33.11 C 15.64,34.38 16.4,34.96 17.44,34.96 C 18.5,34.96 20.83,32.82 20.83,29.29 C 20.83,26.52 19.83,25.99 18.96,25.99 C 18.35,25.99 16.6,26.69 16.23,28.45 C 15.9,30.76 15.64,32.66 15.64,33.11 Z" fill="rgb(18, 67, 145)"/>
<path d="M 24.009999999999998,30.285 C 24.02,29.85 24.22,29.45 24.39,29.17 C 24.99,29.93 25.73,30.73 26.33,31.32 C 26.06,31.5 25.73,31.62 25.33,31.62 C 24.6,31.62 24.02,31.13 24.02,30.3 Z M 28.39,31.94 C 28.32,31.83 28.01,31.52 27.59,31.1 C 27.98,30.65 28.25,30.13 28.25,29.57 C 28.25,28.73 28.1,28.33 27.66,28.33 C 27.23,28.33 26.87,28.71 26.87,28.97 S 27.31,29.49 27.25,29.83 C 27.23,29.96 27.15,30.23 27.01,30.51 C 25.91,29.39 24.57,27.91 24.57,27.06 C 24.57,26.13 24.95,26.07 25.3,26.07 S 25.8,26.54 26.14,26.54 C 26.44,26.54 26.82,26.36 26.82,26.07 C 26.82,25.79 26.29,25.27 25.42,25.27 C 24.54,25.27 23.41,25.79 23.41,27.27 C 23.41,27.61 23.64,28.09 23.98,28.61 C 23.52,28.91 22.7,29.61 22.7,30.5 C 22.7,31.74 23.96,32.55 24.95,32.55 C 25.41,32.55 26.15,32.27 26.81,31.8 L 27.34,32.29 H 28.16 C 28.48,32.29 28.66,32.38 28.39,31.94 Z" fill="rgb(246, 144, 28)"/>
</svg>
