<?xml version="1.0" encoding="UTF-8"?>
<!-- generated by Finnhub -->
<svg viewBox="0 0 55.5 55.5" xmlns="http://www.w3.org/2000/svg">
<path d="M 0,0 H 55.5 V 55.5 H 0 Z" fill="rgb(239, 242, 248)"/>
<path d="M 22.99,22.985 V 32 H 26 V 25 H 28.67 C 29.3,25 30,25.37 30,25.97 V 32 H 33 V 26.17 C 33,24.5 31.4,23 29.66,23 H 23 Z M 4,32 V 23 H 10.79 C 11.52,23.08 13,23.64 13,25.26 C 13,26.32 12.37,27.06 12.05,27.3 C 12.37,27.52 13,28.28 13,29.59 C 13,31.22 11.6,32 11.02,32 H 4 Z M 7,24.5 V 30.5 H 8.97 C 9.57,30.5 10,29.98 10,29.34 C 10,28.69 9.57,28 8.97,28 H 7.5 V 27 H 8.92 C 9.55,27 10,26.38 10,25.71 S 9.55,24.5 8.92,24.5 H 7 Z M 17.75,32 A 4.63,4.63 0 0,0 22.5,27.5 C 22.5,25.01 20.37,23 17.75,23 A 4.63,4.63 0 0,0 13,27.5 C 13,29.99 15.13,32 17.75,32 Z M 17.75,30 C 18.99,30 20,28.88 20,27.5 S 19,25 17.75,25 C 16.51,25 15.5,26.12 15.5,27.5 S 16.5,30 17.75,30 Z M 52,27.5 C 52,29.99 49.87,32 47.25,32 A 4.63,4.63 0 0,1 42.5,27.5 C 42.5,25.01 44.63,23 47.25,23 A 4.63,4.63 0 0,1 52,27.5 Z M 49.5,27.5 C 49.5,28.88 48.5,30 47.25,30 C 46.01,30 45,28.88 45,27.5 S 46,25 47.25,25 C 48.49,25 49.5,26.12 49.5,27.5 Z M 33.5,32 H 39.98 C 41.37,32 42.5,30.86 42.5,29.44 C 42.5,28.04 41.37,26.5 39.98,26.5 H 36.7 C 36.17,26.5 35.74,26.34 35.74,25.8 C 35.74,25.26 36.17,25 36.7,25 H 42 V 23 H 36.26 A 2.78,2.78 0 0,0 33.5,25.8 V 25.97 C 33.5,27.52 34.74,28.5 36.26,28.5 H 39.52 C 39.96,28.5 40.32,28.8 40.32,29.24 C 40.32,29.69 39.96,30 39.52,30 H 33.5 V 32 Z" fill="rgb(229, 0, 20)" fill-rule="evenodd"/>
</svg>
