<?xml version="1.0" encoding="UTF-8"?>
<!-- generated by Finnhub -->
<svg viewBox="0 0 55.5 55.5" xmlns="http://www.w3.org/2000/svg">
<path d="M 0,0 H 55.5 V 55.5 H 0 Z" fill="rgb(239, 242, 248)"/>
<path d="M 11.99,19.085 L 28.05,10 L 44,19.1 V 36.98 L 28.05,46 L 12,36.98 V 19.09 Z" fill="rgb(0, 41, 72)"/>
<circle cx="28" cy="27.92" r="14.99" fill="url(#c)"/>
<circle transform="rotate(-90 28 28)" cx="28" cy="28" r="15" fill="url(#b)" fill-opacity=".5"/>
<circle cx="28" cy="28" r="12" fill="url(#a)"/>
<circle cx="28" cy="28" r="9" fill="rgb(205, 144, 109)"/>
<circle cx="28" cy="28" r="5" fill="rgb(242, 83, 53)"/>
<path d="M 22.479999999999997,26.055 L 32.78,12.66 L 33.61,13.17 L 29.61,20.67 L 34.01,18.57 L 27.1,31.56 L 30.09,30.53 L 22.12,42.67 L 21.39,42.28 L 24.32,35.15 L 20.78,36.67 L 27.25,24.5 L 22.49,26.07 Z" fill="rgb(239, 242, 248)"/>
<defs>
<linearGradient id="c" x1="28" x2="28" y1="12.93" y2="42.92" gradientUnits="userSpaceOnUse">
<stop stop-color="rgb(11, 65, 108)" offset="0"/>
<stop stop-color="rgb(54, 115, 169)" offset=".5"/>
<stop stop-color="rgb(11, 65, 108)" stop-opacity="0" offset="1"/>
</linearGradient>
<linearGradient id="b" x1="28" x2="28" y1="13" y2="43" gradientUnits="userSpaceOnUse">
<stop stop-color="rgb(11, 65, 108)" offset="0"/>
<stop stop-color="rgb(54, 115, 169)" offset=".5"/>
<stop stop-color="rgb(11, 65, 108)" stop-opacity="0" offset="1"/>
</linearGradient>
<linearGradient id="a" x1="28" x2="28" y1="16" y2="40" gradientUnits="userSpaceOnUse">
<stop stop-color="rgb(53, 112, 167)" offset="0"/>
<stop stop-color="rgb(92, 145, 201)" offset=".48"/>
<stop stop-color="rgb(53, 112, 167)" offset="1"/>
</linearGradient>
</defs>
</svg>
