<?xml version="1.0" encoding="UTF-8"?>
<!-- generated by Finnhub -->
<svg viewBox="0 0 55.5 55.5" xmlns="http://www.w3.org/2000/svg">
<path d="M 0,0 H 55.5 V 55.5 H 0 Z" fill="rgb(35, 76, 35)"/>
<path d="M 7.53,21.985 H 5 V 22.17 C 5.54,22.18 6,22.31 6,22.84 V 27 C 6,27.6 5.6,27.8 5,27.83 V 28 H 7.75 C 8.78,28 10,27.56 10,26.36 C 10,25.3 8.91,24.93 8.04,24.84 V 24.82 C 8.76,24.64 9.54,24.18 9.54,23.34 C 9.54,22.3 8.39,22.01 7.54,22.01 Z M 7,22.84 C 7,22.5 7,22.17 7.36,22.17 C 8.16,22.17 8.48,22.59 8.48,23.43 C 8.48,23.91 8.38,24.36 8.02,24.63 C 7.84,24.75 7.59,24.81 7.26,24.81 L 7,24.8 V 22.85 Z M 7,24.97 V 27 C 7,27.34 7.05,27.8 7.38,27.8 C 8.32,27.8 9,27.31 9,26.36 S 8.24,25 7.36,25 L 7,24.97 Z M 13,24.11 V 24 H 11 V 24.11 C 11.16,24.11 11.28,24.13 11.37,24.16 C 11.45,24.18 11.51,24.23 11.53,24.29 C 11.56,24.36 11.58,24.46 11.58,24.59 V 27.4 A 0.8,0.8 0 0,1 11.53,27.7 C 11.51,27.77 11.46,27.82 11.37,27.84 C 11.29,27.86 11.17,27.88 11,27.89 V 28 H 13 V 27.89 C 12.84,27.88 12.72,27.86 12.63,27.84 A 0.24,0.24 0 0,1 12.47,27.71 A 0.8,0.8 0 0,1 12.42,27.41 V 24.6 C 12.42,24.46 12.44,24.36 12.47,24.3 A 0.24,0.24 0 0,1 12.63,24.16 C 12.72,24.13 12.83,24.12 13,24.11 Z M 16.2,28 C 17.26,27.9 18,27.1 18,26.01 C 18,24.91 17.26,24.11 16.2,24.01 V 24.13 C 16.93,24.3 17,25.31 17,26.01 S 16.97,27.76 16.2,27.9 V 28 Z M 15.8,24.12 C 15.02,24.26 15,25.3 15,26.01 C 15,26.71 15.06,27.73 15.8,27.89 V 28 A 1.9,1.9 0 0,1 14,26 C 14,24.92 14.74,24.1 15.8,24 V 24.11 Z M 28.42,27.9 V 28 H 30 V 27.89 C 29.65,27.87 29.54,27.76 29.54,27.4 V 24.6 C 29.54,24.26 29.64,24.12 30,24.11 V 24 H 28.42 V 24.11 C 28.78,24.12 29,24.26 29,24.6 V 26 H 27 V 24.6 C 27,24.3 27.32,24.12 27.58,24.11 V 24 H 26 V 24.11 C 26.36,24.12 26.46,24.26 26.46,24.6 V 27.4 C 26.46,27.76 26.36,27.87 26,27.89 V 28 H 27.58 V 27.89 C 27.23,27.87 27,27.76 27,27.4 V 26.13 H 29 V 27.4 C 29,27.76 28.78,27.87 28.42,27.89 Z M 21,22 V 27.09 C 21,27.79 21.38,27.8 21.96,27.81 H 22 V 28 H 19 V 27.83 C 19.57,27.8 20,27.73 20,27.1 V 22.9 C 20,22.28 19.57,22.18 19,22.17 V 22 H 21 Z M 21.4,22 V 22.25 C 21.55,22.19 21.74,22.15 21.94,22.15 C 23.01,22.15 24,22.9 24,23.99 C 24,25.11 22.9,25.39 21.82,25.39 H 21.4 V 25.57 H 21.93 C 23.15,25.57 25,25.21 25,23.67 C 25,22.27 23.24,22 22.18,22 H 21.4 Z M 17.4,29.99 C 17.58,29.99 17.73,30.02 17.85,30.07 S 18.07,30.18 18.17,30.25 C 18.22,30.3 18.27,30.3 18.29,30.27 C 18.32,30.24 18.35,30.17 18.36,30.05 H 18.46 A 10.93,10.93 0 0,0 18.44,31 H 18.34 A 3.49,3.49 0 0,0 18.21,30.51 A 0.67,0.67 0 0,0 18.09,30.35 A 0.7,0.7 0 0,0 17.79,30.15 A 1.08,1.08 0 0,0 17.42,30.08 A 0.68,0.68 0 0,0 17.04,30.18 A 0.84,0.84 0 0,0 16.76,30.48 C 16.69,30.6 16.63,30.75 16.59,30.93 A 2.58,2.58 0 0,0 16.59,32.08 C 16.64,32.25 16.69,32.4 16.78,32.52 C 16.86,32.64 16.95,32.74 17.07,32.81 C 17.18,32.87 17.31,32.91 17.45,32.91 C 17.57,32.91 17.68,32.88 17.81,32.84 A 0.66,0.66 0 0,0 18.11,32.64 A 0.64,0.64 0 0,0 18.26,32.36 C 18.29,32.26 18.32,32.12 18.34,31.94 H 18.44 A 33.93,33.93 0 0,0 18.45,32.94 H 18.35 C 18.35,32.82 18.33,32.74 18.3,32.71 C 18.27,32.68 18.23,32.69 18.17,32.73 C 18.07,32.8 17.95,32.86 17.83,32.91 A 1.1,1.1 0 0,1 17.39,32.99 C 17.11,32.99 16.87,32.93 16.66,32.81 A 1.2,1.2 0 0,1 16.17,32.31 A 1.7,1.7 0 0,1 16,31.51 C 16,31.21 16.06,30.94 16.18,30.71 C 16.3,30.49 16.46,30.31 16.67,30.18 C 16.87,30.05 17.12,29.99 17.39,29.99 Z M 18.88,29.99 H 20.08 C 20.52,29.99 21.15,30.25 21.15,30.76 A 0.75,0.75 0 0,1 20.91,31.29 C 20.83,31.37 20.71,31.43 20.56,31.49 L 20.29,31.55 H 20.32 C 20.53,31.58 20.69,31.63 20.78,31.71 C 20.88,31.8 20.95,31.92 20.98,32.09 L 21.09,32.5 C 21.11,32.62 21.14,32.7 21.17,32.75 C 21.2,32.8 21.25,32.83 21.3,32.83 A 0.2,0.2 0 0,0 21.41,32.79 A 0.67,0.67 0 0,0 21.51,32.69 L 21.57,32.74 A 0.78,0.78 0 0,1 21.37,32.93 A 0.56,0.56 0 0,1 21.09,32.99 A 0.54,0.54 0 0,1 20.77,32.9 C 20.69,32.84 20.63,32.72 20.59,32.55 L 20.51,32.15 A 2.28,2.28 0 0,0 20.42,31.85 A 0.47,0.47 0 0,0 20.29,31.64 C 20.24,31.59 20.16,31.56 20.06,31.56 H 19.69 V 32.5 C 19.69,32.6 19.71,32.67 19.72,32.72 C 19.74,32.77 19.77,32.8 19.82,32.82 C 19.87,32.84 19.94,32.85 20.03,32.85 V 33 H 18.88 V 32.86 C 18.98,32.86 19.05,32.85 19.1,32.83 A 0.14,0.14 0 0,0 19.19,32.73 A 0.72,0.72 0 0,0 19.21,32.51 V 30.5 C 19.21,30.4 19.21,30.33 19.19,30.28 A 0.14,0.14 0 0,0 19.09,30.18 A 0.65,0.65 0 0,0 18.89,30.15 V 30 Z M 19.95,31.49 H 19.7 V 30.48 C 19.7,30.34 19.72,30.24 19.75,30.2 C 19.79,30.15 19.87,30.13 19.99,30.13 C 20.46,30.13 20.63,30.37 20.63,30.81 C 20.63,30.93 20.62,31.04 20.58,31.15 C 20.55,31.25 20.48,31.33 20.38,31.39 A 0.84,0.84 0 0,1 19.95,31.49 Z M 23.81,30.32 L 23.83,29.99 H 21.68 V 30.13 C 21.77,30.13 21.84,30.14 21.88,30.16 C 21.94,30.18 21.97,30.21 21.98,30.26 A 0.7,0.7 0 0,1 22.01,30.48 V 32.5 C 22.01,32.6 22,32.67 21.98,32.72 A 0.14,0.14 0 0,1 21.89,32.82 A 0.86,0.86 0 0,1 21.68,32.85 V 33 H 23.91 L 23.89,32.65 V 32.63 A 9.43,9.43 0 0,1 23.89,32.08 H 23.8 C 23.78,32.28 23.74,32.42 23.69,32.54 A 0.46,0.46 0 0,1 23.47,32.78 A 0.82,0.82 0 0,1 23.09,32.85 H 22.82 A 0.8,0.8 0 0,1 22.62,32.83 A 0.15,0.15 0 0,1 22.52,32.73 A 0.64,0.64 0 0,1 22.49,32.53 V 31.53 H 22.73 C 22.85,31.53 22.93,31.56 22.99,31.61 S 23.09,31.73 23.11,31.81 L 23.17,32.07 H 23.27 A 10.19,10.19 0 0,1 23.25,30.91 H 23.15 A 25.6,25.6 0 0,1 23.05,31.26 A 0.35,0.35 0 0,1 22.94,31.4 A 0.36,0.36 0 0,1 22.73,31.45 H 22.49 V 30.47 C 22.49,30.37 22.5,30.31 22.52,30.27 A 0.14,0.14 0 0,1 22.62,30.17 A 0.67,0.67 0 0,1 22.82,30.15 H 23.11 A 0.7,0.7 0 0,1 23.44,30.22 C 23.52,30.26 23.58,30.32 23.62,30.42 C 23.67,30.52 23.7,30.67 23.72,30.84 H 23.82 A 3.61,3.61 0 0,1 23.8,30.36 V 30.33 Z M 25.48,29.99 C 26,29.99 26.38,30.17 26.64,30.41 C 26.89,30.66 27.02,31.01 27.02,31.46 C 27.02,31.76 26.96,32.01 26.83,32.24 C 26.71,32.46 26.53,32.63 26.29,32.75 C 26.06,32.87 25.78,32.99 25.44,32.99 H 24.28 V 32.85 C 24.38,32.85 24.44,32.84 24.49,32.82 A 0.14,0.14 0 0,0 24.59,32.72 A 0.72,0.72 0 0,0 24.61,32.5 V 30.5 C 24.61,30.4 24.61,30.33 24.59,30.28 A 0.14,0.14 0 0,0 24.49,30.18 A 0.65,0.65 0 0,0 24.28,30.15 V 30 H 25.48 Z M 25.41,30.12 C 25.28,30.12 25.19,30.14 25.15,30.19 C 25.11,30.24 25.1,30.33 25.1,30.47 V 32.51 C 25.1,32.65 25.11,32.74 25.15,32.79 C 25.2,32.84 25.28,32.86 25.41,32.86 C 25.7,32.86 25.91,32.81 26.07,32.7 C 26.23,32.6 26.34,32.43 26.41,32.23 C 26.47,32.03 26.51,31.77 26.51,31.47 S 26.47,30.92 26.4,30.72 A 0.82,0.82 0 0,0 26.05,30.27 C 25.89,30.17 25.68,30.12 25.41,30.12 Z M 28.51,30.12 V 30 H 27.36 V 30.14 C 27.46,30.14 27.53,30.15 27.58,30.17 C 27.63,30.19 27.66,30.22 27.68,30.27 A 0.7,0.7 0 0,1 27.7,30.49 V 32.51 C 27.7,32.61 27.69,32.68 27.67,32.73 A 0.14,0.14 0 0,1 27.58,32.83 A 0.86,0.86 0 0,1 27.37,32.86 V 33 H 28.52 V 32.86 A 0.84,0.84 0 0,1 28.31,32.83 A 0.15,0.15 0 0,1 28.21,32.73 A 0.72,0.72 0 0,1 28.18,32.51 V 30.5 C 28.18,30.4 28.19,30.33 28.21,30.28 A 0.15,0.15 0 0,1 28.31,30.18 A 0.65,0.65 0 0,1 28.51,30.15 Z M 31.25,29.99 C 31.23,30.09 31.23,30.26 31.22,30.37 V 30.38 A 9.95,9.95 0 0,0 31.22,30.95 H 31.13 C 31.1,30.75 31.07,30.59 31.02,30.47 A 0.48,0.48 0 0,0 30.82,30.22 A 0.74,0.74 0 0,0 30.44,30.14 H 30.26 V 32.46 C 30.26,32.57 30.27,32.66 30.29,32.71 C 30.32,32.76 30.36,32.8 30.42,32.81 C 30.48,32.84 30.58,32.85 30.7,32.85 V 33 H 29.34 V 32.86 C 29.47,32.86 29.56,32.85 29.62,32.83 C 29.68,32.81 29.72,32.77 29.75,32.72 A 0.67,0.67 0 0,0 29.78,32.47 V 30.15 H 29.59 A 0.75,0.75 0 0,0 29.22,30.23 A 0.47,0.47 0 0,0 29.02,30.48 C 28.98,30.6 28.94,30.76 28.91,30.96 H 28.81 L 28.82,30.82 A 3.66,3.66 0 0,0 28.82,30.39 L 28.8,30 H 31.25 Z M 33.65,29.99 H 32.45 V 30.13 C 32.55,30.13 32.62,30.14 32.66,30.16 C 32.71,30.18 32.75,30.21 32.76,30.26 A 0.7,0.7 0 0,1 32.79,30.48 V 32.5 C 32.79,32.6 32.78,32.67 32.76,32.72 A 0.14,0.14 0 0,1 32.66,32.82 A 0.86,0.86 0 0,1 32.46,32.85 V 33 H 33.71 V 32.86 C 33.58,32.86 33.49,32.85 33.43,32.83 A 0.18,0.18 0 0,1 33.3,32.73 A 0.6,0.6 0 0,1 33.27,32.5 V 31.78 H 33.57 C 33.79,31.78 33.98,31.75 34.13,31.69 A 0.97,0.97 0 0,0 34.49,31.47 C 34.57,31.37 34.63,31.28 34.67,31.17 C 34.7,31.07 34.72,30.97 34.72,30.87 A 0.72,0.72 0 0,0 34.46,30.29 A 1.22,1.22 0 0,0 33.66,30 Z M 33.27,31.69 H 33.52 C 33.71,31.69 33.85,31.65 33.95,31.58 C 34.05,31.5 34.12,31.41 34.15,31.28 C 34.19,31.17 34.21,31.04 34.21,30.9 C 34.21,30.64 34.16,30.45 34.06,30.32 C 33.96,30.19 33.8,30.12 33.56,30.12 C 33.45,30.12 33.36,30.15 33.33,30.2 C 33.29,30.24 33.27,30.34 33.27,30.48 V 31.68 Z M 36.15,29.99 V 30.13 C 36.05,30.13 35.98,30.14 35.93,30.16 A 0.15,0.15 0 0,0 35.83,30.26 A 0.7,0.7 0 0,0 35.81,30.48 V 32.52 C 35.81,32.61 35.81,32.68 35.83,32.72 C 35.84,32.77 35.88,32.8 35.93,32.82 L 36.13,32.84 H 36.4 C 36.52,32.84 36.62,32.82 36.7,32.79 A 0.52,0.52 0 0,0 36.91,32.64 C 36.97,32.58 37.01,32.49 37.04,32.39 S 37.1,32.17 37.11,32.03 H 37.21 A 3.72,3.72 0 0,0 37.21,32.61 V 32.64 C 37.21,32.74 37.21,32.89 37.23,32.99 H 35 V 32.85 C 35.1,32.85 35.16,32.84 35.2,32.82 A 0.14,0.14 0 0,0 35.3,32.72 A 0.72,0.72 0 0,0 35.32,32.5 V 30.5 C 35.32,30.4 35.32,30.33 35.3,30.28 A 0.14,0.14 0 0,0 35.2,30.18 A 0.58,0.58 0 0,0 35,30.15 V 30 H 36.15 Z M 39.39,30.07 A 1.1,1.1 0 0,0 38.94,29.99 A 1.36,1.36 0 0,0 37.73,30.72 C 37.61,30.94 37.55,31.21 37.55,31.52 C 37.55,31.82 37.6,32.09 37.72,32.31 C 37.83,32.53 38,32.7 38.2,32.81 C 38.41,32.93 38.66,32.99 38.93,32.99 C 39.12,32.99 39.27,32.96 39.38,32.91 C 39.5,32.86 39.61,32.8 39.71,32.73 C 39.78,32.69 39.81,32.68 39.84,32.71 C 39.87,32.74 39.89,32.81 39.9,32.93 H 40 A 11.53,11.53 0 0,1 39.98,31.93 H 39.88 C 39.87,32.11 39.84,32.25 39.81,32.36 C 39.78,32.46 39.73,32.55 39.65,32.63 A 0.66,0.66 0 0,1 39.35,32.83 C 39.23,32.88 39.11,32.9 39,32.9 A 0.77,0.77 0 0,1 38.61,32.8 A 0.93,0.93 0 0,1 38.32,32.52 A 1.5,1.5 0 0,1 38.14,32.08 A 2.58,2.58 0 0,1 38.14,30.93 C 38.18,30.75 38.24,30.6 38.31,30.48 A 0.84,0.84 0 0,1 38.58,30.18 C 38.69,30.11 38.82,30.08 38.96,30.08 S 39.22,30.1 39.34,30.14 A 0.7,0.7 0 0,1 39.64,30.35 A 0.7,0.7 0 0,1 39.83,30.7 L 39.89,31 H 39.99 A 30.3,30.3 0 0,1 40,30.05 H 39.9 C 39.9,30.16 39.87,30.24 39.84,30.27 S 39.77,30.3 39.71,30.25 A 1.5,1.5 0 0,0 39.39,30.07 Z M 6,31.5 H 15 V 32 H 6 V 31.5 Z M 50,31.5 H 41 V 32 H 50 V 31.5 Z M 34.6,27.53 L 33.1,24 H 32.9 L 32.56,24.75 H 32.71 L 33.36,26.38 H 31.92 L 31.5,27.37 C 31.42,27.54 31.34,27.67 31.25,27.75 A 0.58,0.58 0 0,1 31,27.89 V 28 H 32.18 V 27.89 A 1.2,1.2 0 0,1 31.86,27.84 A 0.3,0.3 0 0,1 31.68,27.71 A 0.48,0.48 0 0,1 31.65,27.44 C 31.67,27.34 31.71,27.19 31.78,27.02 L 32,26.49 H 33.42 L 33.79,27.42 C 33.87,27.61 33.88,27.73 33.82,27.79 C 33.77,27.85 33.64,27.88 33.43,27.89 V 28 H 35 V 27.89 A 0.45,0.45 0 0,1 34.79,27.81 A 0.6,0.6 0 0,1 34.59,27.53 Z M 49.1,24 L 50.58,27.53 A 0.6,0.6 0 0,0 50.78,27.81 C 50.85,27.86 50.93,27.88 50.99,27.89 V 28 H 49.42 V 27.89 C 49.63,27.88 49.76,27.85 49.82,27.79 C 49.87,27.73 49.86,27.61 49.78,27.42 L 49.41,26.49 H 48 L 47.78,27.02 C 47.71,27.19 47.67,27.33 47.65,27.44 C 47.64,27.56 47.65,27.64 47.68,27.71 C 47.72,27.77 47.78,27.81 47.86,27.84 C 47.95,27.87 48.06,27.88 48.18,27.89 V 28 H 47 V 27.89 A 0.58,0.58 0 0,0 47.25,27.75 C 47.34,27.67 47.42,27.55 47.5,27.37 L 47.92,26.38 H 49.37 L 48.72,24.75 H 48.57 L 48.91,24 H 49.11 Z M 45.99,24.11 V 24 H 44.79 L 43.54,27.09 L 42.23,24 H 41 V 24.11 C 41.23,24.11 41.45,24.16 41.63,24.36 L 43.22,28 H 43.32 L 44.8,24.4 V 27.38 C 44.8,27.76 44.67,27.85 44.3,27.87 V 28 H 46 V 27.87 C 45.64,27.85 45.51,27.76 45.51,27.38 V 24.6 C 45.51,24.46 45.52,24.36 45.54,24.3 C 45.59,24.16 45.72,24.12 46,24.11 Z M 41.63,26 H 41.49 V 27.26 C 41.49,27.41 41.47,27.53 41.45,27.61 C 41.4,27.78 41.27,27.84 41,27.87 V 28 H 42.2 V 27.87 C 41.87,27.84 41.72,27.77 41.67,27.61 A 1.47,1.47 0 0,1 41.63,27.24 V 26 Z M 37,24.6 V 24 L 36,24 V 24.11 C 36.36,24.12 36.45,24.22 36.45,24.59 V 27.34 C 36.45,27.71 36.35,27.87 36,27.89 V 28 H 37.71 V 27.89 C 37.36,27.87 37,27.71 37,27.34 V 24.6 Z M 37.4,24.14 V 24.01 H 37.79 C 38.4,24.01 39.37,24.17 39.37,24.97 C 39.37,25.62 38.85,25.94 38.3,26.07 C 38.54,26.11 38.71,26.17 38.83,26.27 C 38.97,26.37 39.07,26.55 39.13,26.77 L 39.29,27.34 C 39.32,27.5 39.36,27.61 39.4,27.68 C 39.45,27.75 39.52,27.78 39.6,27.78 A 0.3,0.3 0 0,0 39.77,27.73 L 39.91,27.6 L 40,27.66 C 39.9,27.77 39.8,27.86 39.7,27.92 A 0.9,0.9 0 0,1 39.28,28 A 0.86,0.86 0 0,1 38.81,27.88 C 38.69,27.79 38.6,27.63 38.55,27.4 L 38.42,26.85 C 38.38,26.69 38.34,26.55 38.29,26.44 A 0.64,0.64 0 0,0 38.1,26.16 C 38.04,26.11 38.02,26.12 37.96,26.12 H 37.4 V 26 H 37.67 C 38.29,26 38.61,25.67 38.61,25.03 C 38.61,24.44 38.35,24.11 37.66,24.11 C 37.56,24.11 37.48,24.12 37.4,24.14 Z" fill="rgb(239, 242, 248)" fill-rule="evenodd"/>
</svg>
