<?xml version="1.0" encoding="UTF-8"?>
<!-- generated by Finnhub -->
<svg viewBox="0 0 55.5 55.5" xmlns="http://www.w3.org/2000/svg">
<path d="M 0,0 H 55.5 V 55.5 H 0 Z" fill="rgb(180, 50, 58)"/>
<circle cx="28" cy="28" r="16" fill="rgb(254, 254, 253)"/>
<path d="M 41.262,35.879 L 38.532,30.389 L 38.526,30.387 C 39.893,29.024 41.544,27.03 41.544,23.665 C 41.544,21.848 41.246,20.42 40.682,19.172 A 15.391,15.391 0 0,1 43.454,27.998 C 43.454,30.888 42.648,33.58 41.272,35.894 Z M 36.828,40.689 V 31.259 L 39.998,37.743 A 15.501,15.501 0 0,1 36.828,40.689 Z M 16.49,38.367 C 16.529,38.354 16.573,38.339 16.608,38.33 L 16.61,38.328 L 16.829,38.254 V 38.237 C 18.842,37.493 20.653,35.687 21.069,33.087 V 41.848 A 15.474,15.474 0 0,1 16.489,38.367 Z M 14.866,19.772 V 36.228 A 15.391,15.391 0 0,1 14.866,19.772 Z M 21.069,14.152 V 22.298 C 20.559,19.622 18.086,18.196 16.455,17.67 A 15.532,15.532 0 0,1 21.069,14.152 Z M 27.967,20.706 C 27.394,17.672 25.787,15.346 23.19,13.276 A 15.438,15.438 0 0,1 27.967,12.515 V 20.705 Z M 36.827,17.026 C 40.43,19.593 41.029,26.115 36.827,29.524 V 17.026 Z M 30.497,12.739 C 32.043,12.994 33.51,13.476 34.867,14.152 V 18.285 C 34.103,16.028 32.645,14.252 30.497,12.739 Z M 34.867,26.559 V 41.849 A 15.419,15.419 0 0,1 29.929,43.349 V 32.892 C 31.105,32.264 33.668,30.219 34.867,26.558 Z M 29.93,14.606 C 35.132,17.844 34.94,27.111 29.93,30.756 V 14.606 Z M 27.968,25.86 V 43.484 C 26.241,43.484 24.583,43.188 23.033,42.666 V 32.934 C 24.185,32.297 27.103,30.171 27.968,25.86 Z M 23.033,15.614 C 27.543,18.549 27.926,27.427 23.033,30.834 V 15.614 Z M 18.826,27.67 L 18.818,27.657 S 20.613,26.576 21.07,24.35 V 30.987 C 20.683,28.965 19.16,27.897 18.826,27.67 Z M 16.83,27.033 V 19.646 C 20.002,20.926 20.53,25.154 16.83,27.033 Z M 16.83,36.215 V 28.407 C 20.407,30.333 20.087,34.583 16.83,36.215 Z M 8,8 V 48 H 48 V 8 H 8 Z" fill="rgb(180, 50, 58)"/>
</svg>
