<?xml version="1.0" encoding="UTF-8"?>
<!-- generated by Finnhub -->
<svg viewBox="0 0 55.5 55.5" xmlns="http://www.w3.org/2000/svg">
<path d="M 0,0 H 55.5 V 55.5 H 0 Z" fill="rgb(239, 242, 248)"/>
<path d="M 36.99,10.985 H 19 V 45 H 37 V 11 Z M 17,9 V 47 H 39 V 9 H 17 Z" fill="rgb(242, 113, 26)" fill-rule="evenodd"/>
<path d="M 29.61,12.985 H 23 V 22 H 21 V 23 H 21.64 C 22.7,23.1 22.97,24.28 23,24.83 V 40.18 C 23.03,41.56 22.19,41.96 21.73,42 H 21 V 43 H 28 V 42 H 27.07 C 25.94,41.84 25.97,40.76 26,40.2 V 34 H 29.29 C 30.81,33.9 35.04,32.82 35.04,28.15 C 35.04,24.4 31.71,22.67 30.05,22.28 C 31.43,21.81 34.22,20.08 34.37,16.88 C 34.52,13.66 31.27,12.95 29.62,13 Z M 28.32,14 H 26 V 22 H 28.32 C 28.95,21.94 31.52,20.79 31.5,17.47 A 3.32,3.32 0 0,0 28.32,14 Z M 26,24.82 C 26,24.24 26.27,23.08 27.37,23.06 C 28.75,23.03 32.07,24.85 32,28.8 C 31.94,31.96 29.92,32.92 28.92,33 C 27.95,33.05 26,32.62 26,30.47 V 24.82 Z" fill-rule="evenodd"/>
</svg>
