<?xml version="1.0" encoding="UTF-8"?>
<!-- generated by Finnhub -->
<svg fill="none" viewBox="0 0 55.5 55.5" xmlns="http://www.w3.org/2000/svg">
<path d="M 0,0 H 55.5 V 55.5 H 0 Z" fill="rgb(239, 242, 248)"/>
<path d="M 30.99,29.985 V 35 H 31.663 V 32.595 H 34.128 V 35 H 34.794 V 30 H 34.128 V 32 H 31.663 V 30 H 31 Z M 35.482,34.562 C 35.786,34.854 36.161,35 36.605,35 C 37.026,35 37.395,34.86 37.71,34.581 C 38.027,34.301 38.186,33.836 38.186,33.185 C 38.186,32.666 38.042,32.252 37.754,31.944 C 37.469,31.633 37.086,31.477 36.605,31.477 A 1.59,1.59 0 0,0 35.491,31.902 C 35.182,32.186 35.028,32.632 35.028,33.239 C 35.028,33.827 35.179,34.268 35.482,34.562 Z M 35.879,32.29 A 0.868,0.868 0 0,1 36.605,31.944 C 36.91,31.944 37.152,32.059 37.332,32.29 C 37.512,32.518 37.602,32.827 37.602,33.216 C 37.602,33.626 37.513,33.947 37.335,34.178 C 37.16,34.408 36.916,34.524 36.605,34.524 A 0.871,0.871 0 0,1 35.879,34.181 C 35.701,33.953 35.612,33.638 35.612,33.239 C 35.612,32.834 35.701,32.519 35.879,32.289 Z M 38.299,35 V 30.347 H 38.864 V 35 H 38.3 Z M 41.424,34.492 V 35 H 41.957 V 30.268 H 41.387 V 31.938 H 41.373 C 41.162,31.631 40.858,31.478 40.463,31.478 C 40.031,31.478 39.685,31.637 39.425,31.956 C 39.165,32.274 39.035,32.701 39.035,33.239 C 39.035,33.751 39.171,34.173 39.444,34.505 C 39.717,34.835 40.063,35 40.482,35 C 40.901,35 41.211,34.83 41.412,34.492 H 41.424 Z M 39.856,32.29 A 0.758,0.758 0 0,1 40.516,31.944 C 40.802,31.944 41.026,32.064 41.189,32.302 C 41.354,32.539 41.437,32.868 41.437,33.289 C 41.437,33.672 41.357,33.974 41.196,34.194 A 0.768,0.768 0 0,1 40.542,34.524 A 0.795,0.795 0 0,1 39.869,34.178 C 39.702,33.945 39.619,33.634 39.619,33.245 C 39.619,32.837 39.698,32.518 39.856,32.29 Z M 42.3,31 V 30.346 H 42.87 V 31 H 42.3 Z M 42.3,34.999 V 31.632 H 42.87 V 35 H 42.3 Z M 43.24,31.632 V 35 H 43.812 V 33.16 C 43.812,32.846 43.85,32.62 43.926,32.48 A 0.747,0.747 0 0,1 44.253,32.16 A 0.973,0.973 0 0,1 44.703,32.048 C 44.867,32.048 45.004,32.085 45.116,32.159 A 0.56,0.56 0 0,1 45.348,32.435 C 45.39,32.545 45.411,32.718 45.411,32.953 V 35 H 45.986 V 32.928 C 45.986,32.64 45.973,32.438 45.948,32.321 A 0.932,0.932 0 0,0 45.396,31.668 A 1.386,1.386 0 0,0 44.834,31.556 C 44.362,31.556 44.007,31.74 43.767,32.109 H 43.755 V 31.633 H 43.241 Z M 46.236,35.278 L 46.791,35.364 C 46.84,35.719 47.097,35.897 47.563,35.897 C 47.793,35.897 47.983,35.853 48.131,35.764 A 0.66,0.66 0 0,0 48.432,35.412 C 48.485,35.266 48.512,35.037 48.512,34.726 V 34.558 C 48.264,34.852 47.952,34.999 47.575,34.999 C 47.15,34.999 46.801,34.841 46.528,34.526 C 46.257,34.209 46.122,33.798 46.122,33.295 C 46.122,32.77 46.255,32.349 46.522,32.031 C 46.79,31.714 47.144,31.555 47.582,31.555 C 47.986,31.555 48.309,31.715 48.552,32.035 H 48.566 V 31.632 H 49.092 V 34.545 C 49.092,35.053 49.041,35.419 48.937,35.643 A 1.123,1.123 0 0,1 48.423,36.173 C 48.183,36.3 47.899,36.363 47.569,36.363 C 47.159,36.363 46.833,36.272 46.591,36.088 A 0.874,0.874 0 0,1 46.236,35.278 Z M 47.623,32.022 A 0.784,0.784 0 0,0 46.953,32.365 C 46.788,32.591 46.706,32.899 46.706,33.288 C 46.706,33.675 46.788,33.978 46.953,34.196 A 0.808,0.808 0 0,0 47.635,34.523 A 0.873,0.873 0 0,0 48.277,34.237 C 48.465,34.045 48.559,33.722 48.559,33.269 C 48.559,32.889 48.473,32.586 48.302,32.361 A 0.805,0.805 0 0,0 47.622,32.021 Z M 49.768,33.828 L 49.199,33.914 C 49.318,34.637 49.799,34.999 50.644,34.999 C 51.044,34.999 51.369,34.899 51.621,34.698 A 0.935,0.935 0 0,0 52.001,33.933 A 0.86,0.86 0 0,0 51.888,33.482 A 0.81,0.81 0 0,0 51.551,33.174 C 51.401,33.096 51.124,33.004 50.72,32.898 C 50.316,32.79 50.068,32.708 49.977,32.653 C 49.888,32.596 49.844,32.504 49.844,32.377 C 49.844,32.242 49.908,32.137 50.037,32.06 C 50.167,31.982 50.345,31.943 50.574,31.943 C 51.014,31.943 51.26,32.127 51.314,32.495 L 51.872,32.419 C 51.798,31.79 51.352,31.476 50.532,31.476 C 50.162,31.476 49.862,31.566 49.634,31.746 A 0.843,0.843 0 0,0 49.291,32.444 C 49.291,32.628 49.339,32.788 49.434,32.924 A 0.952,0.952 0 0,0 49.85,33.244 C 50.032,33.322 50.295,33.404 50.64,33.491 C 50.987,33.576 51.202,33.651 51.285,33.717 A 0.32,0.32 0 0,1 51.412,33.99 C 51.412,34.15 51.341,34.28 51.199,34.38 C 51.059,34.48 50.872,34.53 50.637,34.53 C 50.123,34.53 49.833,34.296 49.767,33.828 Z" clip-rule="evenodd" fill="rgb(4, 81, 158)" fill-rule="evenodd"/>
<path d="M 47.99,28.985 V 22 H 49 V 24.64 S 49.5,24 50.264,24 C 51.48,24 52,24.8 52,25.883 V 29 H 51 V 26.103 C 51,25.527 50.737,25 50.074,25 C 49.27,25 49,25.883 49,26.52 V 29 H 48 Z M 47.43,28 L 47.556,28.926 A 3.02,3.02 0 0,1 46.92,29 C 46,29 45.698,28.357 45.698,27.492 V 25 H 45.153 V 24 H 45.698 V 22.854 L 46.705,22.348 V 24 H 47.431 V 25 H 46.705 V 27.533 C 46.705,28 46.92,28.133 47.431,28 Z M 44.237,29 H 45.269 A 1.798,1.798 0 0,1 45.051,28.406 C 45.017,28.202 45,27.714 45,26.94 V 25.818 C 45,25.418 44.977,25.128 44.93,24.946 C 44.74,24.138 43.71,24 43,24 C 41.698,24 41.045,24.473 40.872,25.484 L 41.75,25.591 C 41.912,24.91 42.286,24.75 42.968,24.75 C 43.808,24.75 44,24.948 44,25.655 V 25.873 C 43.768,25.951 43.525,25.97 43.183,25.997 C 43.005,26.011 42.8,26.027 42.555,26.054 C 41.678,26.154 40.728,26.477 40.728,27.5 C 40.728,28.442 41.545,29 42.407,29 C 43.063,29 43.511,28.932 44.065,28.45 C 44.09,28.679 44.147,28.824 44.237,29 Z M 43.407,26.68 C 43.637,26.66 43.809,26.644 44,26.57 C 44,27.583 43.76,28.234 42.616,28.234 C 42.076,28.234 41.618,27.974 41.618,27.5 C 41.618,26.891 42.214,26.82 42.723,26.76 L 42.922,26.734 C 43.114,26.705 43.271,26.692 43.406,26.68 Z M 33.307,27 V 26 H 35.687 V 27 H 33.307 Z M 27,22 V 23 H 28 V 22 H 27 Z M 27,24 V 29 H 28 V 24 H 27 Z" clip-rule="evenodd" fill="rgb(1, 1, 2)" fill-rule="evenodd"/>
<path d="M 13.501,22.855 C 14.705,22.305 16.161,21.545 16.161,20 H 17.909 C 17.817,21.578 17.096,22.438 15.828,23.22 C 15.062,23.692 14.195,24.121 13.334,24.547 C 12.564,24.928 11.798,25.307 11.116,25.712 C 10.05,26.344 9.801,26.85 9.84,27.067 C 10.123,29.487 11.764,30.804 12.745,31.21 C 14.65,31.997 17.889,33.428 17.889,36 H 16.358 C 16.208,34.965 15.533,34.322 14.434,33.723 A 60.429,60.429 0 0,0 12.371,32.667 C 11.475,32.223 10.616,31.797 9.958,31.4 C 8.77,30.683 7.884,29.847 7.723,28.5 C 7.567,27.194 8.315,25.75 9.369,24.997 C 10.217,24.39 11.472,23.812 12.657,23.266 C 12.948,23.132 13.235,23 13.511,22.869 Z M 10.382,23.671 C 8.132,22.591 7.642,20.898 7.642,20.02 H 9.455 C 9.633,21.602 11.151,22.441 12.078,22.832 C 11.895,22.922 11.691,23.025 11.485,23.128 C 11.069,23.337 10.646,23.549 10.382,23.671 Z M 15.711,26.793 C 16.315,27.53 16.437,28.702 15.533,29.483 L 15.317,29.718 L 17.143,30.189 L 17.261,30.032 C 17.843,29.159 18.137,28.098 17.791,27.087 C 17.317,25.702 15.923,24.742 15.18,24.397 C 14.649,24.594 13.904,25.026 13.649,25.183 C 14.371,25.563 15.185,26.151 15.711,26.793 Z M 10.071,32.635 C 8.254,33.481 7.718,35.219 7.681,36 H 9.478 C 9.798,34.257 10.962,33.696 11.919,33.234 L 12.039,33.176 A 7.293,7.293 0 0,1 11.139,32.722 A 1.259,1.259 0 0,0 10.506,32.545 C 10.356,32.545 10.207,32.572 10.072,32.635 Z M 10.154,20.393 C 10.154,20.187 10.321,20.02 10.527,20.02 H 15.003 A 0.373,0.373 0 0,1 15.003,20.766 H 10.527 A 0.373,0.373 0 0,1 10.154,20.393 Z M 10.154,27.853 C 10.154,28.059 10.321,28.226 10.527,28.226 H 15.003 A 0.373,0.373 0 0,0 15.003,27.48 H 10.527 A 0.373,0.373 0 0,0 10.154,27.853 Z M 10.527,36 A 0.373,0.373 0 0,1 10.527,35.254 H 15.003 A 0.373,0.373 0 0,1 15.003,36 H 10.527 Z M 10.979,21.627 C 10.979,21.421 11.146,21.254 11.352,21.254 H 14.218 A 0.373,0.373 0 0,1 14.218,22 H 11.352 A 0.373,0.373 0 0,1 10.979,21.627 Z M 11.352,27 A 0.373,0.373 0 0,1 11.352,26.254 H 14.218 A 0.373,0.373 0 0,1 14.218,27 H 11.352 Z M 10.979,34.373 C 10.979,34.579 11.146,34.746 11.352,34.746 H 14.218 A 0.373,0.373 0 0,0 14.218,34 H 11.352 A 0.373,0.373 0 0,0 10.979,34.373 Z" clip-rule="evenodd" fill="url(#b)" fill-rule="evenodd"/>
<path d="M 4.019,21.339 C 9.283,29.805 21.5,31.5 29,32.102 V 32.73 C 11.328,33.472 3.47,28.312 4.029,21.354 Z" fill="url(#a)"/>
<path d="M 20.99,21.985 H 24 A 2,2 0 0,1 25.532,25.286 A 1.999,1.999 0 0,1 24.5,29 H 21 V 22 Z M 22,25 H 24 A 1,1 0 1,0 24,23 H 22 V 25 Z M 22,26 V 28 H 24.5 A 1,1 0 1,0 24.5,26 H 22 Z M 32,26.5 C 32,25.741 31.618,25 30.75,25 S 29.5,25.741 29.5,26.5 S 29.882,28 30.75,28 S 32,27.259 32,26.5 Z M 30.75,24 C 29.332,24 28.5,25.191 28.5,26.5 S 29.332,29 30.75,29 C 32.168,29 33,27.809 33,26.5 S 32.168,24 30.75,24 Z M 36,26 V 29 H 37 V 26 H 39 A 2,2 0 1,0 39,22 H 36 V 26 Z M 37,23 V 25 H 39 A 1,1 0 1,0 39,23 H 37 Z" clip-rule="evenodd" fill="rgb(1, 1, 2)" fill-rule="evenodd"/>
<defs>
<linearGradient id="b" x1="12.79" x2="12.79" y1="20.02" y2="36" gradientUnits="userSpaceOnUse">
<stop stop-color="rgb(4, 79, 152)" offset="0"/>
<stop stop-color="rgb(3, 58, 114)" offset=".288"/>
<stop stop-color="rgb(1, 40, 75)" offset=".498"/>
<stop stop-color="rgb(1, 21, 41)" offset=".748"/>
<stop stop-color="rgb(0, 1, 2)" offset="1"/>
</linearGradient>
<linearGradient id="a" x1="3.99" x2="29.668" y1="22.041" y2="32.329" gradientUnits="userSpaceOnUse">
<stop stop-color="rgb(4, 81, 157)" offset="0"/>
<stop stop-color="rgb(5, 81, 156)" offset="1"/>
</linearGradient>
</defs>
</svg>
