<?xml version="1.0" encoding="UTF-8"?>
<!-- generated by Finnhub -->
<svg fill="none" viewBox="0 0 55.5 55.5" xmlns="http://www.w3.org/2000/svg">
<path d="M 0,0 H 55.5 V 55.5 H 0 Z" fill="rgb(14, 114, 181)"/>
<path d="M 8.632,38.769999999999996 C 8.446,36.28 12.144,29.88 23.234,23.583 C 34.173,17.373 43.642,13.686 47.358,15.435 C 49.847,16.608 45.089,23.583 33.301,30.695 C 24.908,36.517 8.946,42.665 8.642,38.785 Z M 47.358,38.785 C 47.554,36.28 43.856,29.88 32.766,23.583 C 21.827,17.373 12.358,13.686 8.642,15.435 C 6.153,16.608 10.911,23.583 22.699,30.695 C 31.092,36.517 47.054,42.665 47.358,38.785 Z" stroke="rgb(254, 254, 253)"/>
<circle cx="17.5" cy="16.5" r="3.5" fill="rgb(254, 254, 253)"/>
<circle cx="17.5" cy="39.5" r="3.5" fill="rgb(254, 254, 253)"/>
</svg>
