<?xml version="1.0" encoding="UTF-8"?>
<!-- generated by Finnhub -->
<svg viewBox="0 0 55.5 55.5" xmlns="http://www.w3.org/2000/svg">
<path d="M 0,0 H 55.5 V 55.5 H 0 Z" fill="rgb(14, 52, 85)"/>
<path d="M 3.99,23.985 H 6.704 C 7.964,24 9.733,24.14 9.733,26.056 C 9.733,27.088 9.081,27.683 8.235,27.889 C 9.155,28.067 10,28.571 10,29.769 C 10,31.674 8.237,32 6.947,32 H 4 V 24 Z M 5.994,25.027 V 27.432 H 6.988 C 7.385,27.423 7.988,27.17 7.988,26.298 C 7.988,25.391 7.441,25.028 7.101,25.028 H 5.994 Z M 5.994,28.565 V 31 H 6.883 C 7.466,30.991 8.235,30.774 8.235,29.768 C 8.235,28.763 7.53,28.574 7.175,28.565 H 5.995 Z M 12.488,26.71 C 12.831,26.386 13.198,26.118 14,26.035 V 27.568 L 13.493,27.66 C 12.749,27.808 12.5,27.928 12.5,28.676 V 32 H 11 V 26.035 H 12.496 V 26.709 H 12.488 Z M 20,29.017 C 20,30.433 19.254,32 17.258,32 C 15.815,32 14.5,31.093 14.5,29.017 C 14.5,27.292 15.494,25.927 17.45,26.042 C 19.543,26.182 20,27.996 20,29.016 Z M 16.272,27.907 C 16.088,28.233 16.015,28.62 16.015,29.007 C 16.015,29.897 16.408,30.689 17.25,30.689 C 18.068,30.689 18.469,29.967 18.469,29.087 C 18.469,28.462 18.332,27.978 18.044,27.679 A 1,1 0 0,0 17.162,27.371 C 16.737,27.397 16.48,27.556 16.272,27.908 Z M 26,29.017 C 26,30.433 25.254,32 23.258,32 C 21.815,32 20.5,31.093 20.5,29.017 C 20.5,27.292 21.494,25.927 23.45,26.042 C 25.543,26.182 26,27.996 26,29.016 Z M 22.272,27.907 C 22.088,28.233 22.015,28.62 22.015,29.007 C 22.015,29.897 22.408,30.689 23.25,30.689 C 24.068,30.689 24.469,29.967 24.469,29.087 C 24.469,28.462 24.332,27.978 24.044,27.679 A 1,1 0 0,0 23.162,27.371 C 22.737,27.397 22.48,27.556 22.272,27.908 Z M 27,24 H 28.418 V 28.111 L 29.986,26 H 31.71 L 30.06,28.194 L 31.97,32 H 30.298 L 29.034,29.454 L 28.409,30.157 V 32 H 27 V 24 Z M 33,24.578 C 33.185,24.294 33.609,24 34.313,24 C 34.617,24 34.921,24.053 35.217,24.098 V 25.229 H 34.857 C 34.289,25.229 34.249,25.239 34.265,25.995 H 35.273 V 27 H 34.273 V 32 H 32.777 V 27 H 31.977 V 25.995 H 32.793 C 32.793,25.459 32.697,25.038 33.001,24.578 Z M 36,24 H 37.5 V 25 H 36 V 24 Z M 36,26 H 37.5 V 32 H 36 V 26 Z M 43.632,30.345 C 43.456,30.639 43.28,30.923 43.016,31.19 C 42.576,31.644 41.912,32 41.088,32 C 39.568,32 38.504,30.923 38.504,29.063 C 38.504,27.693 39.112,25.931 41.128,25.931 C 41.432,25.931 42.312,25.967 42.968,26.75 C 43.632,27.542 43.616,28.36 43.632,29 H 39.984 C 39.976,29.703 40.32,30.647 41.128,30.647 C 41.952,30.647 42.232,30.05 42.416,29.641 L 43.632,30.345 Z M 42.08,28.013 C 42.048,27.773 42.064,27.693 41.856,27.435 A 1.01,1.01 0 0,0 41.12,27.124 A 0.977,0.977 0 0,0 40.36,27.497 C 40.216,27.675 40.151,27.817 40.105,28.013 H 42.08 Z M 46,24 H 44.5 V 32 H 46 V 24 Z M 52,24 V 32 H 50.612 V 31.315 C 50.377,31.573 49.979,32 49.216,32 C 48.696,32 48.161,31.777 47.755,31.35 C 47,30.558 47,29.41 47,29.046 C 47,26.901 48.112,26.02 49.16,26.02 C 49.841,26.02 50.255,26.367 50.531,26.598 V 24 H 52.001 Z M 50.547,29.01 C 50.547,28.752 50.547,28.04 50.223,27.604 C 50.15,27.506 49.938,27.266 49.63,27.266 C 48.55,27.266 48.55,28.761 48.55,29.01 C 48.55,29.802 48.745,30.772 49.524,30.772 A 0.81,0.81 0 0,0 50.02,30.594 C 50.547,30.194 50.547,29.321 50.547,29.01 Z" fill="rgb(254, 254, 253)"/>
</svg>
