<?xml version="1.0" encoding="UTF-8"?>
<!-- generated by Finnhub -->
<svg viewBox="0 0 55.5 55.5" xmlns="http://www.w3.org/2000/svg">
<path d="M 0,0 H 55.5 V 55.5 H 0 Z" fill="rgb(239, 242, 248)"/>
<path d="M 11.99,41.985 L 31.7,12 H 34.93 L 15.86,42 H 12 Z M 35.54,16.25 V 12 H 39.22 L 35.54,16.25 Z M 35.82,16.71 L 40,21.34 V 12.02 L 35.82,16.72 Z M 39.76,21.85 L 35.54,17.18 V 26.58 L 39.76,21.85 Z M 39.99,22.37 V 31.64 L 35.82,27.03 L 40,22.37 Z M 39.99,41.67 L 35.89,37.11 L 39.99,32.23 V 41.67 Z M 35.54,42 H 39.5 L 35.56,37.5 L 35.54,42 Z M 39.56,31.94 L 35.54,27.49 V 36.72 L 39.56,31.94 Z M 35,12.92 V 19 H 31.08 L 35,12.92 Z M 35,26.69 V 19.56 H 30.72 L 26.17,26.69 H 35 Z M 35,27 V 34 H 21.56 L 25.97,27 H 35 Z M 16.48,42 L 21.2,34.49 H 35 V 42 H 16.48 Z" fill="rgb(38, 38, 35)"/>
</svg>
