<?xml version="1.0" encoding="UTF-8"?>
<!-- generated by Finnhub -->
<svg viewBox="0 0 55.5 55.5" xmlns="http://www.w3.org/2000/svg">
<path d="M 0,0 H 55.5 V 55.5 H 0 Z" fill="rgb(1, 70, 145)"/>
<circle cx="28" cy="28" r="16.004" fill="rgb(254, 254, 253)"/>
<path d="M 22.491999999999997,12.82 C 29.718,10.517 35.812,13.522 38.009,15.545 C 38.009,16.852 38.054,19.821 37.867,21.921 S 36.431,27.833 35.609,29.231 L 34.787,16.772 L 33.731,30.249 L 27.744,24.177 L 32.009,31.385 L 20.152,28.565 L 31.227,33.187 L 20.427,37.183 L 30.761,35.117 C 27.513,38.705 20.492,39.885 17.413,40.002 C 11.96,35.426 11.656,28.564 12.143,25.658 C 12.446,22.396 14.943,15.264 22.502,12.835 Z" fill="url(#a)"/>
<path d="M 33.78,42.909 C 26.845,45.594 20.557,42.784 18.622,40.977 C 23.618,40.977 29.175,38.073 31.698,35.989 L 27.741,41.752 L 33.791,35.989 V 42.924 Z M 35.255,42.29 L 35.498,36.086 L 38.962,39.652 C 37.792,40.942 36.002,41.947 35.255,42.289 Z M 39.731,38.874 L 37.303,34.924 L 41.722,36.213 C 41.317,37.096 40.285,38.331 39.732,38.874 Z M 43.705,31.05 L 37.987,33.124 L 42.383,35.017 C 42.959,34.08 43.54,31.982 43.705,31.05 Z M 37.4,31.32 L 43.93,30.013 C 44.66,22.341 40.758,17.706 39,16.392 C 39.396,22.775 37.866,27.79 36.86,29.292 L 41.859,24.424 L 37.4,31.32 Z" fill="rgb(1, 119, 191)"/>
<defs>
<linearGradient id="a" x1="17.444" x2="33.703" y1="15.801" y2="31.819" gradientUnits="userSpaceOnUse">
<stop stop-color="rgb(252, 232, 50)" offset="0"/>
<stop stop-color="rgb(254, 153, 44)" offset=".442"/>
<stop stop-color="rgb(249, 78, 41)" offset="1"/>
</linearGradient>
</defs>
</svg>
