<?xml version="1.0" encoding="UTF-8"?>
<!-- generated by Finnhub -->
<svg viewBox="0 0 55.5 55.5" xmlns="http://www.w3.org/2000/svg">
<path d="M 0,0 H 55.5 V 55.5 H 0 Z" fill="rgb(239, 242, 248)"/>
<path d="M 25.509999999999998,12.145 L 13.74,18.96 A 0.14,0.14 0 0,0 13.74,19.21 L 18.21,21.19 A 0.14,0.14 0 0,0 18.37,21.15 L 25.69,12.37 A 0.14,0.14 0 0,0 25.52,12.17 Z M 13,20 V 33.95 A 0.14,0.14 0 0,0 13.11,34.08 A 0.14,0.14 0 0,0 13.27,34 L 17.84,22.06 A 0.14,0.14 0 0,0 17.77,21.88 L 13.19,19.86 A 0.14,0.14 0 0,0 13,20 Z" fill="rgb(189, 213, 46)"/>
<path d="M 18.369999999999997,22.935 L 13.22,36.41 V 36.47 A 0.14,0.14 0 0,0 13.34,36.6 L 26.97,38.29 A 0.14,0.14 0 0,0 27.11,38.08 L 18.63,22.94 A 0.13,0.13 0 0,0 18.43,22.89 A 0.13,0.13 0 0,0 18.38,22.95 Z" fill="rgb(150, 201, 94)"/>
<path d="M 42.22,18.915 L 30.33,12.08 A 0.14,0.14 0 0,0 30.16,12.28 L 37.26,21.14 A 0.14,0.14 0 0,0 37.43,21.18 L 42.22,19.19 A 0.14,0.14 0 0,0 42.23,18.93 Z M 27.59,44.86 V 39.28 A 0.14,0.14 0 0,0 27.46,39.14 L 15.22,37.65 A 0.14,0.14 0 0,0 15.13,37.91 L 27.38,44.98 A 0.14,0.14 0 0,0 27.52,44.98 A 0.14,0.14 0 0,0 27.59,44.86 Z" fill="rgb(104, 191, 132)"/>
<path d="M 36.160000000000004,20.765 L 28.1,11.04 A 0.15,0.15 0 0,0 27.9,11.04 L 19.48,20.77 A 0.14,0.14 0 0,0 19.47,20.92 C 19.47,20.94 19.5,20.96 19.52,20.98 L 19.59,21 H 36.06 C 36.09,21 36.11,21 36.13,20.98 A 0.14,0.14 0 0,0 36.2,20.85 A 0.13,0.13 0 0,0 36.17,20.78 Z" fill="rgb(150, 201, 94)"/>
<path d="M 28.99,38.275 L 42.64,36.63 A 0.15,0.15 0 0,0 42.74,36.56 A 0.14,0.14 0 0,0 42.76,36.44 L 37.29,22.97 A 0.14,0.14 0 0,0 37.09,22.92 A 0.14,0.14 0 0,0 37.04,22.97 L 28.86,38.06 A 0.14,0.14 0 0,0 29,38.29 Z" fill="rgb(2, 183, 163)"/>
<path d="M 19.22,22.185 L 27.87,37.93 A 0.14,0.14 0 0,0 27.99,38 A 0.14,0.14 0 0,0 28.11,37.93 L 36.41,22.21 A 0.14,0.14 0 0,0 36.35,22.01 A 0.14,0.14 0 0,0 36.28,22 H 19.35 A 0.14,0.14 0 0,0 19.23,22.07 A 0.14,0.14 0 0,0 19.23,22.21 Z" fill="rgb(104, 191, 132)"/>
<path d="M 42.99,34.105 V 19.97 A 0.13,0.13 0 0,0 42.87,19.83 L 42.81,19.84 L 37.87,21.91 A 0.14,0.14 0 0,0 37.79,22.09 L 42.73,34.19 A 0.14,0.14 0 0,0 42.99,34.12 Z M 28.62,44.98 L 40.87,37.92 A 0.14,0.14 0 0,0 40.77,37.66 L 28.53,39.15 A 0.14,0.14 0 0,0 28.4,39.28 V 44.86 A 0.14,0.14 0 0,0 28.62,44.98 Z" fill="rgb(1, 175, 193)"/>
</svg>
