<?xml version="1.0" encoding="UTF-8"?>
<!-- generated by Finnhub -->
<svg viewBox="0 0 55.5 55.5" xmlns="http://www.w3.org/2000/svg">
<path d="M 0,0 H 55.5 V 55.5 H 0 Z" fill="rgb(239, 242, 248)"/>
<path d="M 14.99,14.985 H 41 V 20 H 43 V 13 H 13 V 28 H 15 V 15 Z" fill="url(#e)"/>
<path d="M 40.99,26.985 H 43 V 21 H 41 V 27 Z" fill="rgb(133, 133, 132)"/>
<path d="M 14.99,28.985 H 13 V 43 H 43 V 36 H 41 V 41 H 15 V 29 Z" fill="url(#d)"/>
<path d="M 40.99,34.985 H 43 V 29 H 41 V 35 Z" fill="rgb(155, 104, 60)"/>
<path d="M 17.99,23.985 H 21 V 36 H 18 Z" fill="url(#c)"/>
<path d="M 17.99,18.985 H 21 V 22 H 18 Z" fill="url(#b)"/>
<path d="M 27.99,29.485 L 21.5,20 V 24.5 L 28,34 L 34,24.5 V 36 H 37 V 19 H 34 L 28,29.5 Z" fill="url(#a)"/>
<path d="M 39.49,18.985 H 39 V 36 H 39.5 V 19 Z" fill="rgb(133, 133, 132)"/>
<defs>
<linearGradient id="e" x1="40" x2="13" y1="13" y2="25.5" gradientUnits="userSpaceOnUse">
<stop stop-color="rgb(78, 78, 77)" offset="0"/>
<stop stop-color="rgb(114, 120, 117)" offset="1"/>
</linearGradient>
<linearGradient id="d" x1="42" x2="13" y1="41" y2="29" gradientUnits="userSpaceOnUse">
<stop stop-color="rgb(168, 107, 39)" offset="0"/>
<stop stop-color="rgb(159, 99, 62)" offset="1"/>
</linearGradient>
<linearGradient id="c" x1="19.5" x2="19.5" y1="24" y2="36" gradientUnits="userSpaceOnUse">
<stop stop-color="rgb(128, 131, 136)" offset="0"/>
<stop stop-color="rgb(70, 74, 72)" offset="1"/>
</linearGradient>
<linearGradient id="b" x1="18.5" x2="20" y1="19.5" y2="22" gradientUnits="userSpaceOnUse">
<stop stop-color="rgb(142, 140, 141)" offset="0"/>
<stop stop-color="rgb(78, 83, 86)" offset="1"/>
</linearGradient>
<linearGradient id="a" x1="34" x2="24" y1="20.5" y2="34" gradientUnits="userSpaceOnUse">
<stop stop-color="rgb(208, 149, 48)" offset="0"/>
<stop stop-color="rgb(151, 100, 56)" offset="1"/>
</linearGradient>
</defs>
</svg>
