<?xml version="1.0" encoding="UTF-8"?>
<!-- generated by Finnhub -->
<svg viewBox="0 0 55.5 55.5" xmlns="http://www.w3.org/2000/svg">
<path d="M 0,0 H 55.5 V 55.5 H 0 Z" fill="rgb(96, 187, 69)"/>
<path d="M 10.039,30.485 H 6.5 V 28.173 H 10.049 C 10.794,28.173 11.338,28.66 11.338,29.305 C 11.338,29.935 10.794,30.5 10.048,30.5 Z M 9.719,26.597 H 6.5 V 24.5 H 9.719 C 10.449,24.5 10.836,25.049 10.836,25.58 C 10.836,26.124 10.45,26.597 9.719,26.597 Z M 4,28.173 H 5 V 32 H 10.234 C 11.81,32 13,30.996 13,29.391 C 13,28.245 12.327,27.5 11.396,27.199 C 12.069,26.899 12.499,26.239 12.499,25.407 C 12.499,23.802 11.28,23 9.905,23 H 5 V 26.597 H 4 V 28.173 Z M 29,26.384 H 30 V 32 H 31.5 V 26.384 H 32.526 V 25 H 31.5 V 23 L 30,23.393 V 25 H 29 V 26.384 Z M 19.352,27.814 C 19.054,26.798 18.311,26.263 17.42,26.263 C 16.527,26.263 15.797,26.825 15.567,27.813 H 19.352 Z M 20.648,30.381 C 19.865,31.383 18.784,31.986 17.608,32 C 15.325,32 14,30.257 14,28.5 C 14,26.744 15.325,25 17.608,25 C 18.973,25 21,26.14 21,28.733 V 29 H 15.567 C 15.649,30.016 16.581,30.737 17.567,30.737 C 18.325,30.737 18.973,30.366 19.459,29.708 L 20.649,30.381 Z M 22,25 H 23.5 V 26.042 H 23.527 C 23.922,25.408 24.552,25 25.447,25 C 26.833,25 28,26.197 28,27.887 V 32 H 26.5 V 28.212 C 26.5,26.972 25.963,26.465 25.026,26.465 C 24.117,26.465 23.5,27.07 23.5,28.184 V 32 H 22 V 25 Z M 35.5,23 V 29.074 C 35.5,29.861 35.628,30.141 36.063,30.394 L 36.849,30.842 L 36.204,32 C 34.701,31.285 34,30.758 34,29.342 V 23 H 35.5 Z M 40.419,26.263 C 41.311,26.263 42.054,26.798 42.352,27.813 H 38.567 C 38.797,26.825 39.527,26.263 40.419,26.263 Z M 40.608,32 C 41.784,31.986 42.865,31.383 43.648,30.38 L 42.459,29.708 C 41.973,30.366 41.325,30.737 40.567,30.737 C 39.58,30.737 38.648,30.016 38.567,29 H 44 V 28.733 C 44,26.139 41.973,25 40.608,25 C 38.325,25 37,26.744 37,28.5 C 37,30.257 38.325,32 40.608,32 Z M 45,25 H 46.5 V 29.012 C 46.5,30.149 47.09,30.626 47.96,30.626 C 49.06,30.626 49.5,29.925 49.5,28.872 V 25 H 51 V 31.607 C 51,33.684 49.548,35 47.92,35 C 46.645,35 45.855,34.425 45.217,33.667 L 46.411,32.909 C 46.86,33.359 47.308,33.625 47.919,33.625 C 48.856,33.625 49.67,32.631 49.67,31.44 V 31.075 H 49.643 C 49.087,31.72 48.571,32 47.661,32 C 46.195,32 45,30.864 45,28.956 V 25 Z" clip-rule="evenodd" fill="rgb(254, 254, 253)" fill-rule="evenodd"/>
</svg>
