<?xml version="1.0" encoding="UTF-8"?>
<!-- generated by Finnhub -->
<svg viewBox="0 0 55.5 55.5" xmlns="http://www.w3.org/2000/svg">
<path d="M 0,0 H 55.5 V 55.5 H 0 Z" fill="rgb(239, 242, 248)"/>
<path d="M 10.99,33.985 H 8 V 30 H 4 V 27 H 11 V 34 Z" fill="rgb(33, 47, 65)"/>
<path d="M 3.99,21.985 V 25 H 13 V 34 H 16 V 22 H 4 Z M 21,23 H 26.84 C 28.71,23 29.76,23.96 29.76,25.73 C 29.76,26.17 29.65,26.6 29.44,26.97 C 29.24,27.34 28.95,27.64 28.61,27.82 A 2.52,2.52 0 0,1 30,30.17 C 30,31.94 28.92,33 27.04,33 H 21 V 23 Z M 26.6,27 C 27.23,27 27.69,26.56 27.69,26 C 27.69,25.45 27.23,25 26.59,25 H 23 V 27 H 26.6 Z M 23,31 H 26.81 C 27.43,31 28,30.54 28,30 C 28,29.45 27.43,29 26.81,29 H 23 V 31 Z M 43,23 H 48.84 C 50.71,23 51.76,23.96 51.76,25.73 C 51.76,26.17 51.65,26.6 51.44,26.97 C 51.24,27.34 50.95,27.64 50.61,27.82 A 2.52,2.52 0 0,1 52,30.17 C 52,31.94 50.92,33 49.04,33 H 43 V 23 Z M 48.6,27 C 49.23,27 49.69,26.56 49.69,26 C 49.69,25.45 49.23,25 48.59,25 H 45 V 27 H 48.6 Z M 45,31 H 48.81 C 49.43,31 50,30.54 50,30 C 50,29.45 49.43,29 48.81,29 H 45 V 31 Z M 37,25 V 33 H 35 V 25 H 31 V 23 H 41 V 25 H 37 Z" fill="rgb(33, 47, 65)"/>
</svg>
