<?xml version="1.0" encoding="UTF-8"?>
<!-- generated by Finnhub -->
<svg viewBox="0 0 55.5 55.5" xmlns="http://www.w3.org/2000/svg">
<path d="M 0,0 H 55.5 V 55.5 H 0 Z" fill="rgb(239, 242, 248)"/>
<path d="M 27.49,33.985 A 7.5,7.5 0 1,0 27.5,19 A 7.5,7.5 0 0,0 27.5,34 Z M 27.5,30 A 3.5,3.5 0 1,0 27.5,23 A 3.5,3.5 0 0,0 27.5,30 Z" fill="rgb(230, 1, 16)" fill-rule="evenodd"/>
<path d="M 34.99,38.985 A 2,2 0 1,0 35,35 A 2,2 0 0,0 35,39 Z M 35,38 A 1,1 0 1,0 35,36 A 1,1 0 0,0 35,38 Z" fill-rule="evenodd"/>
<circle cx="27.5" cy="38.5" r=".5"/>
<path d="M 40.49,33.985 A 7.5,7.5 0 1,0 40.5,19 A 7.5,7.5 0 0,0 40.5,34 Z M 40.5,30 A 3.5,3.5 0 1,0 40.5,23 A 3.5,3.5 0 0,0 40.5,30 Z" fill="rgb(230, 1, 16)" fill-rule="evenodd"/>
<path d="M 22.99,31.485 A 7.5,7.5 0 0,1 8.15,33 H 12.34 A 3.5,3.5 0 1,0 13.05,29 H 8.43 A 7.5,7.5 0 0,1 23,31.5 Z M 32.42,38.41 A 2,2 0 0,1 29,37 A 2,2 0 0,1 32.37,35.55 L 31.69,36.28 A 1,1 0 0,0 30,37 A 1,1 0 0,0 31.7,37.72 L 32.42,38.42 Z"/>
<path d="M 10.85,17.985 H 20.08 L 19.24,22 H 14.11 L 13.71,24.33 L 8.41,29 L 10.85,18 Z M 38,35 V 39 H 39 V 36.64 C 39,36.3 39.37,36 39.79,36 C 40.21,36 40.5,36.32 40.5,36.6 V 39 H 41.5 V 36.6 C 41.49,36.32 41.78,36 42.22,36 C 42.65,36 43,36.27 43,36.6 V 39 H 44 V 36.37 C 44,35.77 43.55,35 42.65,35 C 41.92,35 41.57,35.46 41.49,35.7 A 1.3,1.3 0 0,0 40.29,35 C 39.6,35.02 39.09,35.42 39,35.62 V 35 H 38 Z"/>
</svg>
