<?xml version="1.0" encoding="UTF-8"?>
<!-- generated by Finnhub -->
<svg viewBox="0 0 55.5 55.5" xmlns="http://www.w3.org/2000/svg">
<path d="M 0,0 H 55.5 V 55.5 H 0 Z" fill="rgb(239, 242, 248)"/>
<path d="M 19.049999999999997,42.985 C 15.7,43 13,40.83 13,37.6 C 13,31.43 19.76,26 26,26 C 24,28.31 23.98,30.56 24,32.13 C 24.07,36.37 27,39.41 27,39.41 A 11.06,11.06 0 0,1 19.06,43 Z" fill="rgb(88, 111, 178)"/>
<path d="M 37.050000000000004,12.985 C 38.86,13 40.51,13.6 41.69,14.76 C 42.57,15.62 43,17.04 43,18.69 C 43,21.07 41.97,23.93 39.61,26.23 C 36.58,29.18 34.23,30.03 31,30 C 32,27.31 31.99,25.38 32,24.31 C 32.05,19.85 29,16.63 29,16.63 A 11.05,11.05 0 0,1 37.06,13 Z" fill="rgb(247, 146, 29)"/>
<path d="M 37.43,42.985 C 31,43 26,36.64 26,31.12 C 26,30.37 26.07,29.58 26.25,29 C 27.27,30.8 29.25,31.98 31.35,32 C 36.3,32 39,29 39,29 C 41,30.8 43,34.18 43,37.25 C 43,40.39 41.3,43 37.44,43 Z" fill="rgb(228, 99, 163)"/>
<path d="M 14.28,14.665 A 5.6,5.6 0 0,1 18.56,13 C 24.91,13 30,19 30,24.64 C 30,25.09 29.94,25.58 29.86,26 C 28.72,24.59 26.67,24 24.91,24 C 20.52,24 17.24,27 17.24,27 C 15,25.52 13,21.82 13,18.68 C 13,17.18 13.35,15.76 14.29,14.68 Z" fill="rgb(48, 183, 131)"/>
</svg>
