<?xml version="1.0" encoding="UTF-8"?>
<!-- generated by Finnhub -->
<svg viewBox="0 0 55.5 55.5" xmlns="http://www.w3.org/2000/svg">
<path d="M 0,0 H 55.5 V 55.5 H 0 Z" fill="rgb(239, 242, 248)"/>
<path d="M 23.99,11.455 V 21 H 21 V 23 H 23 V 33 H 21 V 35 H 24 V 38 H 26 V 35 H 29 V 44.97 A 17,17 0 0,1 24,11.47 Z" fill="rgb(96, 102, 111)"/>
<path d="M 25.959999999999997,11.104999999999999 V 21 H 29 V 18 H 31 V 21 C 32.37,21 34.32,21.87 34.32,23.85 C 34.32,25.6 33.28,27.07 32.37,27.07 C 33.57,27.4 34.95,28.37 34.95,30.95 C 34.95,33.76 32.02,34.82 31,34.93 V 44.73 A 17,17 0 0,0 25.97,11.12 Z" fill="rgb(228, 149, 51)"/>
<path d="M 25.99,22.985 H 29.11 A 2,2 0 1,1 29.11,27 H 26 V 23 Z" fill="rgb(228, 149, 51)"/>
<path d="M 25.99,28.985 H 30 A 2,2 0 1,1 30,33 H 26 V 29 Z" fill="rgb(96, 102, 111)"/>
</svg>
