<?xml version="1.0" encoding="UTF-8"?>
<!-- generated by Finnhub -->
<svg viewBox="0 0 55.5 55.5" xmlns="http://www.w3.org/2000/svg">
<path d="M 0,0 H 55.5 V 55.5 H 0 Z" fill="rgb(239, 242, 248)"/>
<path d="M 17.16,44.405 L 17.58,43.54 C 18.1,42.48 18.6,41.42 19.13,40.37 C 19.24,40.15 19.18,40.06 18.99,39.95 L 13.51,36.8 C 13.17,36.6 13,36.35 13,35.94 V 20.06 C 13,19.66 13.16,19.39 13.5,19.2 L 23.32,13.54 C 24.69,12.76 26.06,11.97 27.42,11.17 C 27.82,10.95 28.18,10.94 28.56,11.17 C 30.62,12.36 32.68,13.54 34.73,14.74 C 34.98,14.88 35.13,14.81 35.3,14.65 L 38.65,11.65 C 38.71,11.6 38.77,11.55 38.88,11.53 L 38.78,11.77 L 36.94,15.52 C 36.76,15.89 36.76,15.89 37.13,16.11 L 42.53,19.22 C 42.86,19.41 43,19.66 43,20.02 V 35.94 C 43,36.34 42.84,36.6 42.49,36.8 C 38.74,38.95 34.99,41.12 31.25,43.28 L 28.52,44.85 A 0.99,0.99 0 0,1 27.46,44.84 C 25.38,43.64 23.31,42.45 21.24,41.24 C 21.04,41.13 20.9,41.14 20.74,41.3 C 19.62,42.32 18.49,43.32 17.37,44.32 L 17.21,44.45 L 17.17,44.42 Z M 32.74,16.9 C 32.62,16.82 32.54,16.76 32.44,16.71 L 28.54,14.46 C 28.16,14.24 27.84,14.25 27.46,14.46 A 2869.1,2869.1 0 0,1 16.43,20.79 C 16.03,21.02 16,21.31 16,21.77 V 34.27 C 16,34.71 16.03,34.99 16.41,35.19 L 20.42,37.36 C 20.52,37.42 20.62,37.46 20.74,37.5 L 20.84,37.27 C 21.14,36.55 21.41,35.83 21.71,35.12 C 21.79,34.91 21.75,34.81 21.56,34.7 C 20.77,34.27 19.99,33.8 19.21,33.37 C 18.99,33.25 19,33.1 19,32.83 V 23.17 C 19,22.92 18.97,22.77 19.19,22.65 L 20.79,21.74 C 23.04,20.44 25.3,19.15 27.55,17.84 C 27.89,17.65 28.16,17.64 28.5,17.84 C 29.06,18.2 29.65,18.51 30.22,18.84 C 30.38,18.94 30.49,18.94 30.63,18.81 L 32.43,17.21 L 32.74,16.91 Z M 23.24,39.08 L 23.47,39.24 L 27.17,41.36 C 28.03,41.86 27.97,41.86 28.83,41.36 L 39.66,35.16 C 39.99,34.96 40,34.71 40,34.33 V 21.67 C 40,21.3 40,21.04 39.68,20.86 L 35.74,18.61 C 35.67,18.56 35.59,18.53 35.5,18.49 L 35.3,18.86 C 34.98,19.52 34.67,20.19 34.33,20.85 C 34.2,21.09 34.26,21.19 34.48,21.31 L 36.82,22.65 C 37.02,22.77 37,22.91 37,23.15 V 32.84 C 37,33.09 37.02,33.24 36.8,33.36 L 28.38,38.22 C 28.14,38.35 27.94,38.37 27.7,38.22 L 25.79,37.13 C 25.63,37.03 25.52,37.03 25.38,37.16 C 24.9,37.61 24.4,38.04 23.91,38.47 L 23.24,39.08 Z M 33.22,18.88 L 33.16,18.84 L 32.4,19.55 L 28.59,23.2 C 27.45,24.3 26.3,25.38 25.15,26.46 C 24.96,26.64 24.95,26.76 25.1,26.98 C 25.5,27.53 25.86,28.11 26.26,28.65 C 26.43,28.89 26.43,29.07 26.31,29.32 L 22.97,36.1 L 22.38,37.33 C 22.48,37.33 22.54,37.28 22.6,37.23 L 26.1,33.93 L 30.84,29.5 C 31.01,29.34 31.04,29.23 30.89,29.03 L 29.65,27.23 C 29.55,27.09 29.54,26.98 29.61,26.82 L 32.41,20.66 L 33.22,18.88 Z" fill="rgb(254, 180, 47)"/>
</svg>
