<?xml version="1.0" encoding="UTF-8"?>
<!-- generated by Finnhub -->
<svg viewBox="0 0 55.5 55.5" xmlns="http://www.w3.org/2000/svg">
<path d="M 0,0 H 55.5 V 55.5 H 0 Z" fill="rgb(239, 242, 248)"/>
<path d="M 25.22,21.805 C 27.57,20.58 29.83,22.36 30.13,24.74 C 30.48,27.69 27.65,30.18 25.23,31.3 C 25.16,31.34 25.08,31.33 25.03,31.26 C 24.68,30.88 24.27,30.36 23.82,29.68 C 22.07,27.09 22.32,23.35 25.22,21.82 Z" fill="rgb(47, 106, 175)"/>
<path d="M 30.369999999999997,33.105 A 10.7,10.7 0 0,0 34.62,30.47 A 0.11,0.11 0 0,0 34.59,30.34 C 33.13,29.23 32.7,27.74 33.3,25.91 C 33.65,24.84 34.77,23.92 35.85,24.61 C 36.33,24.93 36.58,25.4 36.59,26.04 A 5.76,5.76 0 0,1 34.93,30.27 A 0.16,0.16 0 0,0 34.96,30.42 L 35.03,30.47 C 38.71,31.72 42.59,29.47 44.06,25.99 A 0.22,0.22 0 0,0 44.02,25.75 C 43.66,25.38 43.22,25.1 42.97,24.71 C 42.4,23.85 42.13,21.94 43.33,21.42 C 43.81,21.21 44.23,21.35 44.59,21.86 C 45.64,23.32 44.34,24.59 44.39,26.23 A 7.36,7.36 0 0,1 42.01,31.91 C 39.21,34.67 35.23,35.67 31.41,35.21 A 7.22,7.22 0 0,1 27.87,33.75 C 27.53,33.5 27.57,33.39 27.99,33.4 C 28.35,33.42 28.75,33.4 29.19,33.36 C 29.61,33.32 30.01,33.24 30.38,33.12 Z" fill="url(#c)"/>
<path d="M 13.59,21.535 C 14.96,20.88 16.39,20.14 17.56,19.15 C 18.53,18.35 19.19,16.77 18.46,15.62 C 17.76,14.51 15.99,15.09 15.18,15.84 C 13.84,17.07 13.48,19.76 13.5,21.49 C 13.5,21.57 13.53,21.59 13.6,21.55 Z M 21.27,32.88 A 8.85,8.85 0 0,1 19.31,32.1 C 15.43,29.98 13.31,26.71 13.35,22.08 A 0.1,0.1 0 0,0 13.29,22 A 0.09,0.09 0 0,0 13.19,22.01 A 6.15,6.15 0 0,0 11.09,25.97 C 10.21,32.47 16.09,34.78 21.28,33.08 A 0.1,0.1 0 0,0 21.33,33.04 A 0.1,0.1 0 0,0 21.35,32.98 A 0.1,0.1 0 0,0 21.27,32.88 Z" fill="url(#b)"/>
<path d="M 43.620000000000005,32.185 C 37.43,46.42 17.7,46.76 11.56,32.27 C 11.38,31.85 11.45,31.8 11.76,32.14 C 14.07,34.68 17.83,35.16 20.95,34.31 A 7.84,7.84 0 0,0 25.02,31.6 C 25.1,31.5 25.15,31.52 25.2,31.62 C 26.61,34.97 29.26,36.31 32.83,36.42 C 37.14,36.57 41.33,34.74 43.86,31.1 C 43.97,30.95 44,30.96 43.96,31.15 C 43.9,31.47 43.79,31.82 43.63,32.19 Z" fill="url(#a)"/>
<defs>
<linearGradient id="c" x1="33.04" x2="39.35" y1="24.89" y2="32.9" gradientUnits="userSpaceOnUse">
<stop stop-color="rgb(251, 195, 29)" offset=".03"/>
<stop stop-color="rgb(249, 155, 14)" offset=".56"/>
<stop stop-color="rgb(244, 130, 2)" offset="1"/>
</linearGradient>
<linearGradient id="b" x1="16.17" x2="16.17" y1="15" y2="33.62" gradientUnits="userSpaceOnUse">
<stop stop-color="rgb(245, 207, 19)" offset="0"/>
<stop stop-color="rgb(244, 138, 3)" offset=".39"/>
</linearGradient>
<linearGradient id="a" x1="11.46" x2="47.46" y1="33.87" y2="33.87" gradientUnits="userSpaceOnUse">
<stop stop-color="rgb(26, 72, 142)" offset="0"/>
<stop stop-color="rgb(47, 107, 176)" offset=".36"/>
<stop stop-color="rgb(20, 70, 142)" offset=".99"/>
</linearGradient>
</defs>
</svg>
