<?xml version="1.0" encoding="UTF-8"?>
<!-- generated by Finnhub -->
<svg viewBox="0 0 55.5 55.5" xmlns="http://www.w3.org/2000/svg">
<path d="M 0,0 H 55.5 V 55.5 H 0 Z" fill="rgb(239, 242, 248)"/>
<path d="M 44.99,27.985 A 17,17 0 1,1 11,28 A 17,17 0 0,1 45,28 Z M 43,28 A 15,15 0 1,1 13,28 A 15,15 0 0,1 43,28 Z M 23.55,33.85 A 2.55,2.55 0 0,1 23.22,32.44 C 25.96,31.78 26.86,31.04 26.86,29.62 C 26.86,28.48 26.27,27.55 25.92,27.33 L 28.42,23.21 C 28.47,23.1 28.59,23 28.72,23 H 32.08 C 32.23,23 32.36,23.12 32.41,23.26 L 33.48,26.65 C 33.58,26.93 33.96,26.97 34.1,26.71 L 37.86,19.94 C 38.12,19.45 38.38,19.53 38.47,19.63 C 38.81,20.13 39.56,21.29 39.9,21.89 C 40.23,22.49 40.3,23.2 40.3,23.49 L 35.58,31.86 C 35.52,31.97 35.41,32 35.28,32 H 31.45 C 31.31,32 31.17,31.95 31.13,31.8 L 30.05,28.73 A 0.34,0.34 0 0,0 29.43,28.67 L 25.53,35.63 A 14.6,14.6 0 0,1 23.55,33.85 Z M 16,24.05 V 23.5 C 16,23.23 16.23,23 16.51,23 H 24.46 C 25.14,23.04 26.5,23.6 26.5,25.57 C 26.5,26.37 25.69,27.03 25.28,27.26 C 25.68,27.47 26.5,28.26 26.5,29.65 C 26.5,31.39 24.3,32 23.1,32 H 16.5 A 0.5,0.5 0 0,1 15.99,31.5 V 30.97 C 15.99,30.69 16.22,30.5 16.5,30.5 H 17 C 17.25,30.5 17.49,30.5 17.49,30.26 V 25.06 C 17.49,24.79 17.19,24.5 16.92,24.5 H 16.5 C 16.22,24.5 15.99,24.34 15.99,24.06 Z M 20,24.85 V 26.65 C 20,26.85 20.16,27 20.36,27 H 22.7 C 23.42,27 24,26.44 24,25.75 S 23.42,24.5 22.7,24.5 H 20.36 C 20.16,24.5 20,24.66 20,24.85 Z M 20,28.35 V 30.15 C 20,30.35 20.16,30.5 20.36,30.5 H 22.68 C 23.39,30.5 23.98,29.94 23.98,29.25 S 23.38,28 22.67,28 H 20.35 C 20.15,28 19.99,28.16 19.99,28.35 Z" fill="rgb(5, 82, 161)" fill-rule="evenodd"/>
</svg>
