<?xml version="1.0" encoding="UTF-8"?>
<!-- generated by Finnhub -->
<svg viewBox="0 0 55.5 55.5" xmlns="http://www.w3.org/2000/svg">
<path d="M 0,0 H 55.5 V 55.5 H 0 Z" fill="rgb(239, 242, 248)"/>
<path d="M 3.99,22.395 V 35 H 50.66 L 52,34 H 5 V 21 L 4,22.41 Z" fill="rgb(226, 28, 23)"/>
<path d="M 6.99,21.985 H 10.5 C 12.05,22 13.56,22.78 13.56,24.5 C 13.56,25.6 12.83,26.37 11.82,26.7 V 26.73 C 13.1,26.81 14,28 14,29.22 C 14,31.12 12.14,32 10.46,32 H 7 V 22 Z M 10.4,30.5 H 8.5 V 27.5 H 10.41 C 11.76,27.5 12.5,27.76 12.5,28.87 C 12.5,30.09 11.66,30.5 10.4,30.5 Z M 8.5,26 H 10 C 11,26 12,25.57 12,24.49 C 12,23.55 11.24,23 10.3,23 H 8.5 V 26 Z" fill-rule="evenodd"/>
<path d="M 26.99,26.505 H 28 V 32 H 29.5 V 26.52 H 31 V 25 H 29.51 V 24.38 C 29.51,23.58 29.65,23 30.54,23 C 30.8,23 31.06,23.03 31.31,23.12 L 31.46,22.09 C 31.08,22 30.75,22 30.45,22 C 28.85,22 28,22.85 28,24.45 V 25 H 27 V 26.52 Z M 32,28.5 C 32,26.59 33.57,25 35.5,25 S 39,26.59 39,28.5 C 39,30.42 37.43,32 35.5,32 A 3.51,3.51 0 0,1 32,28.5 Z M 35.5,26.44 A 2,2 0 0,0 33.44,28.5 A 2,2 0 0,0 35.5,30.56 A 2,2 0 0,0 37.56,28.5 A 2,2 0 0,0 35.5,26.44 Z M 51,32 H 49.5 V 30.87 H 49.47 A 2.3,2.3 0 0,1 47.4,32 C 45.4,32 44.01,30.41 44.01,28.49 C 44.01,26.56 45.39,24.98 47.4,24.98 C 48.36,24.98 48.98,25.33 49.48,26.11 L 49.5,22 H 51 V 32 Z M 47.47,30.6 C 47.78,30.6 48.06,30.55 48.3,30.44 A 1.85,1.85 0 0,0 49.33,29.34 C 49.43,29.09 49.47,28.81 49.47,28.5 C 49.47,28.2 49.42,27.91 49.33,27.65 A 1.85,1.85 0 0,0 48.31,26.55 A 2.1,2.1 0 0,0 47.47,26.4 C 46.25,26.4 45.47,27.35 45.47,28.5 C 45.47,29.65 46.25,30.6 47.47,30.6 Z M 23.5,25 H 22 V 32 H 23.5 V 28.57 C 23.5,27.07 24.01,26.38 25.3,26.38 C 25.52,26.38 25.73,26.43 25.94,26.48 L 26,25.08 A 1.86,1.86 0 0,0 25.42,25 C 24.59,25 23.87,25.5 23.5,26.25 V 25 Z M 41.5,25 H 40 V 32 H 41.5 V 28.57 C 41.5,27.07 42.01,26.38 43.3,26.38 C 43.52,26.38 43.73,26.43 43.94,26.48 L 44,25.08 A 1.86,1.86 0 0,0 43.42,25 C 42.59,25 41.87,25.5 41.5,26.25 V 25 Z M 19.5,32 H 21 V 25 H 19.5 V 28.01 C 19.5,29.32 19.17,30.5 17.82,30.5 C 16.82,30.5 16.5,29.48 16.5,28.53 V 25 H 15 V 29.4 C 15,30.86 15.92,32 17.44,32 H 17.46 C 18.33,32 19.09,31.63 19.47,30.78 L 19.5,32 Z"/>
</svg>
