<?xml version="1.0" encoding="UTF-8"?>
<!-- generated by Finnhub -->
<svg viewBox="0 0 55.5 55.5" xmlns="http://www.w3.org/2000/svg">
<path d="M 0,0 H 55.5 V 55.5 H 0 Z" fill="rgb(236, 20, 84)"/>
<path d="M 12.102,26.863 C 11.602,26.369 10.642,25.881 9.702,26.348 L 9.605,26.408 L 9.645,26.29 C 10.115,25.353 9.624,24.395 9.114,23.886 C 8.074,22.85 6.391,22.576 5.097,23.866 C 2.785,26.174 5.508,29.009 4.177,31.628 L 4,32 L 4.353,31.804 C 6.977,30.475 9.819,33.193 12.131,30.885 C 13.426,29.595 13.151,27.914 12.112,26.878 Z M 9.938,29.887 C 8.676,31.147 7.125,29.663 5.692,30.388 L 5.499,30.494 L 5.596,30.292 C 6.323,28.862 4.836,27.314 6.098,26.055 C 6.805,25.351 7.724,25.5 8.291,26.065 C 8.569,26.343 8.567,27.077 8.311,27.589 L 8.29,27.653 L 8.343,27.62 C 8.856,27.365 9.649,27.42 9.927,27.699 C 10.494,28.264 10.644,29.182 9.938,29.887 Z M 22.577,32 V 31.707 H 23.384 V 24.468 H 22.61 V 24.176 A 8.225,8.225 0 0,0 24.546,24 V 31.707 H 25.331 V 32 H 22.577 Z M 26.91,25.804 C 26.577,25.804 26.33,25.469 26.33,25.154 C 26.33,24.863 26.62,24.571 26.91,24.571 C 27.222,24.571 27.545,24.831 27.545,25.155 A 0.627,0.627 0 0,1 26.91,25.804 Z M 25.63,32 V 31.73 H 26.416 V 27.313 H 25.63 V 27.043 C 26.265,27.065 26.921,27.022 27.577,27 V 31.73 H 28.373 V 32 H 25.63 Z M 35.584,29.286 C 35.584,29.676 35.744,29.826 36.154,29.826 C 36.616,29.826 36.767,29.729 36.767,29.286 V 27.782 C 36.767,27.426 36.562,27.339 36.197,27.339 C 35.745,27.339 35.584,27.556 35.584,27.782 V 29.286 Z M 35.422,32 C 35.046,32 34.992,32.378 34.992,32.67 C 34.992,33.351 35.465,33.73 36.111,33.73 C 36.981,33.73 37.789,33.47 38.068,32.53 C 38.251,31.913 37.81,32 37.251,32 H 35.422 Z M 37.089,30.842 C 37.595,30.842 37.971,30.767 38.272,31.189 C 38.434,31.416 38.477,31.697 38.477,31.967 C 38.477,33.362 37.315,34 36.067,34 C 35.337,34 34.303,33.654 34.303,32.756 C 34.303,32.335 34.626,31.989 34.992,31.849 C 34.562,31.686 34.292,31.351 34.292,30.864 C 34.292,30.216 34.691,29.924 35.261,29.762 C 34.852,29.502 34.54,29.145 34.54,28.637 C 34.54,27.686 35.293,27.123 36.175,27.123 C 36.67,27.123 37.035,27.285 37.401,27.61 C 37.617,27.35 37.81,27.08 38.186,27.08 C 38.444,27.08 38.66,27.253 38.66,27.523 C 38.66,27.783 38.53,27.913 38.272,27.913 C 38.015,27.913 37.918,27.545 37.832,27.545 C 37.713,27.545 37.617,27.696 37.541,27.772 C 37.724,27.988 37.799,28.269 37.799,28.572 C 37.799,29.058 37.541,29.578 37.111,29.826 C 36.67,30.076 36.121,29.999 35.669,29.999 C 35.358,29.999 34.637,30.021 34.637,30.486 C 34.637,30.756 34.831,30.843 35.067,30.843 H 37.089 Z M 40,26.07 C 40.388,26.07 40.613,26.023 41,26 V 27.405 H 42.022 V 27.75 H 41 V 30.917 C 41,31.287 41.01,31.55 41.42,31.55 C 41.764,31.55 41.968,31.263 42.075,30.94 L 42.291,31.055 C 42.065,31.701 41.602,32 40.978,32 C 40,32 40,31.643 40,31.01 V 27.75 H 39.15 V 27.405 H 40 V 26.069 Z" fill="rgb(254, 254, 253)"/>
<path d="M 30.459999999999997,28.134999999999998 H 30.448 V 27.024 A 53.87,53.87 0 0,0 29.918,27.046 C 29.438,27.068 28.978,27.09 28.577,27.072 V 27.372 H 29.307 V 31.7 H 28.577 V 32 H 31.126 V 31.7 H 30.448 V 29.938 C 30.448,29.374 30.448,28.822 30.588,28.427 C 30.75,27.983 31.168,27.432 31.631,27.432 C 32.266,27.432 32.258,28.064 32.247,28.976 C 32.246,29.099 32.244,29.229 32.244,29.362 V 31.7 H 31.567 V 32 H 34.062 V 31.7 H 33.384 V 29.302 L 33.385,29.049 C 33.393,27.96 33.4,27 32.072,27 C 31.298,27 30.813,27.407 30.47,28.15 Z M 20.496,28.355 C 20.84,27.695 21.216,27 22.002,27 C 22.422,27 22.862,27.24 22.862,27.78 C 22.862,28.247 22.572,28.45 22.185,28.45 C 21.927,28.45 21.669,28.199 21.669,27.9 C 21.669,27.851 21.679,27.78 21.69,27.72 C 21.722,27.528 21.733,27.455 21.615,27.455 C 21.411,27.455 21.304,27.575 21.165,27.73 L 21.163,27.731 C 20.754,28.187 20.496,28.834 20.496,30.405 V 31.7 H 21.464 V 32 H 18.7 V 31.7 H 19.334 V 27.372 H 18.624 V 27.072 C 19.038,27.09 19.504,27.068 19.984,27.046 C 20.153,27.038 20.324,27.03 20.496,27.024 V 28.354 Z M 16.55,30.86 H 16.518 C 16.216,31.53 15.635,31.999 14.936,31.999 C 13.904,31.999 13.636,31.399 13.636,30.836 V 27.371 H 12.936 V 27.071 C 13.333,27.089 13.794,27.067 14.268,27.045 C 14.436,27.037 14.606,27.029 14.775,27.023 V 30.83 C 14.773,31.283 14.772,31.615 15.291,31.615 C 15.69,31.615 16.55,31.124 16.55,29.685 V 27.371 H 15.732 V 27.071 C 16.226,27.089 16.72,27.066 17.21,27.044 L 17.69,27.023 V 31.7 H 18.443 V 32 C 18.331,32 18.22,31.998 18.108,31.997 C 17.586,31.992 17,31.997 16.55,31.997 V 30.86 Z M 44.386,27.239 C 43.399,27.239 43.402,28.059 43.406,29.275 V 29.529 C 43.406,31.087 43.428,31.759 44.386,31.759 C 45.343,31.759 45.365,31.087 45.365,29.529 V 29.275 C 45.37,28.058 45.373,27.239 44.385,27.239 Z M 44.386,26.999 C 45.601,26.999 46.645,28.186 46.645,29.529 C 46.645,30.872 45.601,31.999 44.385,31.999 C 43.17,31.999 42.127,30.871 42.127,29.529 C 42.127,28.186 43.17,26.999 44.386,26.999 Z M 48.406,28.149 H 48.385 V 27.023 C 48.207,27.029 48.03,27.037 47.855,27.045 C 47.376,27.067 46.915,27.089 46.514,27.071 V 27.371 H 47.244 V 31.7 H 46.514 V 32 H 49.062 V 31.7 H 48.385 V 29.938 C 48.385,29.374 48.385,28.822 48.525,28.427 C 48.687,27.983 49.105,27.432 49.568,27.432 C 50.203,27.432 50.195,28.064 50.185,28.976 A 31.55,31.55 0 0,0 50.181,29.362 V 31.7 H 49.504 V 32 H 51.999 V 31.7 H 51.321 V 29.302 L 51.323,29.049 C 51.331,27.961 51.337,27 50.009,27 C 49.235,27 48.751,27.407 48.407,28.15 Z" fill="rgb(254, 254, 253)"/>
</svg>
