<?xml version="1.0" encoding="UTF-8"?>
<!-- generated by Finnhub -->
<svg viewBox="0 0 55.5 55.5" xmlns="http://www.w3.org/2000/svg">
<path d="M 0,0 H 55.5 V 55.5 H 0 Z" fill="rgb(34, 40, 118)"/>
<path d="M 21.99,11.985 L 28,17.689 L 33.612,12 H 44 V 26 H 39.702 L 38.269,27.5 L 39.702,29 H 44 V 32 H 38 L 28,21.909 V 25.985 L 37,35 H 44 V 38 H 36 C 33.254,35.511 30.746,32.37 28,30 V 33.689 L 35.164,41 H 44 V 44 H 33.731 L 28,38 L 22.627,44 H 12 V 30 H 16 L 17.444,28.5 L 16,27 H 12 V 24 H 17.85 L 20,26 L 22.013,24.106 L 18.697,21 H 12 V 18 H 20 L 24.108,21.909 L 26.154,19.717 L 21,15 H 12 V 12 H 22 Z" fill="rgb(254, 254, 253)"/>
</svg>
