<?xml version="1.0" encoding="UTF-8"?>
<!-- generated by Finnhub -->
<svg viewBox="0 0 55.5 55.5" xmlns="http://www.w3.org/2000/svg">
<path d="M 0,0 H 55.5 V 55.5 H 0 Z" fill="rgb(239, 242, 248)"/>
<path d="M 41.99,13.985 H 14 V 16 H 40 V 42 H 42 V 14 Z M 16,21 V 42 H 14 V 19 H 30 A 7,7 0 1,1 30,33 H 21 V 38 H 19 V 31 H 30 A 5,5 0 0,0 30,21 H 16 Z M 16,40 H 28.5 A 6.5,6.5 0 0,0 35,33.75 A 7.04,7.04 0 0,0 36.63,32.16 A 7.5,7.5 0 0,1 29.5,42 H 16 V 40 Z M 19,23 H 30 A 3,3 0 1,1 30,29 H 19 V 23 Z M 21,25 H 29 A 1,1 0 1,1 29,27 H 21 V 25 Z M 29.5,38 H 21 V 36 H 30 C 31.49,36 32.72,35.46 32.96,34.75 H 32.99 A 3.5,3.5 0 0,1 29.5,38 Z M 37,40 C 36.4,40.8 35.63,41.5 34.74,42 H 40 V 40 H 37 Z" fill-rule="evenodd"/>
</svg>
