<?xml version="1.0" encoding="UTF-8"?>
<!-- generated by Finnhub -->
<svg viewBox="0 0 55.5 55.5" xmlns="http://www.w3.org/2000/svg">
<path d="M 0,0 H 55.5 V 55.5 H 0 Z" fill="rgb(239, 242, 248)"/>
<path d="M 18.99,23.985 L 6,32 L 7,24 H 19 Z" fill="rgb(43, 168, 223)"/>
<path d="M 5.99,32.985 L 19,25 L 18,33 H 6 Z" fill="rgb(165, 39, 42)"/>
<path d="M 21.99,23.985 H 26.5 C 27.17,24 29,24.4 29,26 S 28.33,28 28,28 C 28.5,28.17 29.5,28.9 29.5,30.5 C 29.5,32.5 27.5,33 27,33 H 22 V 24 Z M 24,31.5 H 26 C 27,31.5 27.5,31.05 27.5,30.25 C 27.5,29.25 27,29 26,29 H 24 V 31.5 Z M 24,27.5 H 26 C 26.33,27.5 27,27.3 27,26.5 S 26.33,25.5 26,25.5 H 24 V 27.5 Z M 34,24 H 31 V 33 H 33 V 25.5 L 34.5,33 H 36.5 L 38,25.5 V 33 H 40 V 24 H 37 L 35.5,30 L 34,24 Z M 45,29.5 V 28 H 49 V 33 H 47 V 32 L 46.88,32.13 C 46.55,32.48 46.06,33 45,33 C 43,33 41,31.5 41,28.5 S 43.5,24 45.5,24 S 49,25 49,26.5 H 47 A 1.14,1.14 0 0,1 46.93,26.29 C 46.83,25.94 46.73,25.5 45.5,25.5 C 44,25.5 43,26.5 43,28.5 S 44,31.5 45,31.5 S 47,31 47,30 V 29.5 H 45 Z"/>
</svg>
