<?xml version="1.0" encoding="UTF-8"?>
<!-- generated by Finnhub -->
<svg viewBox="0 0 55.5 55.5" xmlns="http://www.w3.org/2000/svg">
<path d="M 0,0 H 55.5 V 55.5 H 0 Z" fill="rgb(239, 242, 248)"/>
<path d="M 3.99,25.325 C 12.81,22.24 21.67,24.05 25,25.34 V 30.27 C 16.38,27.77 7.4,31.5 4,33.67 V 25.34 Z" fill="rgb(230, 40, 13)"/>
<path d="M 22.959999999999997,27.455 C 22.55,23.95 19.26,22.15 14.74,22.01 C 11.14,21.89 6.15,23.59 4.09,24.46 C 14.5,21.05 19.62,23.96 19.65,26.61 C 19.67,28.74 15.81,30.27 13.87,30.78 L 18.39,33.67 C 20.05,32.77 23.3,30.28 22.97,27.47 Z" fill="rgb(1, 73, 150)"/>
<path d="M 22.529999999999998,21.985 H 22.84 V 22.76 H 23.58 V 22 H 23.88 V 24 H 23.58 V 23.06 H 22.84 V 24 H 22.54 V 22 Z M 21.44,22.31 H 20.94 V 22 H 22.24 V 22.31 H 21.74 V 24 H 21.44 V 22.31 Z M 24.34,22 H 25.39 V 22.31 H 24.64 V 22.88 H 25.39 V 23.18 H 24.64 V 23.7 H 25.39 V 24 H 24.34 V 22 Z" fill="rgb(1, 73, 150)"/>
<path d="M 25.99,21.985 H 30.74 A 2.07,2.07 0 0,1 31.58,25.96 A 2.07,2.07 0 0,1 30.93,30 H 26 V 22 Z M 28.53,23.42 H 29.43 A 0.85,0.85 0 0,1 29.43,25.12 H 28.53 V 23.42 Z M 28.53,26.72 H 29.43 A 0.85,0.85 0 0,1 29.43,28.41 H 28.53 V 26.72 Z" fill="rgb(1, 73, 150)" fill-rule="evenodd"/>
<path d="M 36.440000000000005,29.985 C 38.6,30.03 39.68,28.66 39.68,27 S 38.8,24.03 36.45,24 S 33.22,25.34 33.22,27 S 34.3,29.97 36.45,30 Z M 36.45,28.36 C 36.87,28.36 37.03,27.75 37.03,27 S 36.9,25.65 36.45,25.64 C 36,25.64 35.87,26.25 35.87,27 S 36.03,28.35 36.45,28.36 Z" fill="rgb(1, 73, 150)" fill-rule="evenodd"/>
<path d="M 42.03,23.985 H 39.44 C 39.95,25.69 41.12,29.42 41.6,30.8 C 42.08,32.2 40.35,31.95 39.43,31.65 V 33.72 C 41.87,34.62 43.07,33.15 43.36,32.3 L 45.8,24 H 43.37 L 42.68,27.6 L 42.05,24 Z M 52,21.5 H 49.52 V 24.88 C 49.12,24.34 48.55,24 47.92,24 C 46.68,24 45.68,25.34 45.68,27 S 46.68,30 47.93,30 C 48.55,30 49.11,29.66 49.52,29.12 V 30 H 52 V 21.5 Z M 49.5,26.96 C 49.5,27.62 49.34,28.16 48.92,28.16 C 48.5,28.15 48.35,27.62 48.35,26.96 C 48.35,26.3 48.47,25.76 48.92,25.76 C 49.38,25.78 49.5,26.3 49.5,26.96 Z M 26.83,30.57 A 2.18,2.18 0 0,1 28.28,30.71 L 28.12,31.08 A 1.8,1.8 0 0,0 26.94,30.96 A 0.9,0.9 0 0,0 26.46,31.32 C 26.33,31.51 26.23,31.79 26.2,32.21 C 26.18,32.61 26.25,32.91 26.37,33.1 C 26.48,33.3 26.65,33.42 26.84,33.5 C 27.2,33.63 27.64,33.6 28,33.52 V 32.4 H 27.38 V 32 H 28.4 V 33.83 L 28.26,33.87 C 27.86,34 27.23,34.08 26.7,33.87 C 26.43,33.77 26.19,33.59 26.02,33.31 A 1.97,1.97 0 0,1 25.81,32.18 C 25.83,31.71 25.95,31.35 26.13,31.08 C 26.32,30.82 26.56,30.66 26.83,30.58 Z M 28.79,30.5 H 29.93 C 30.07,30.5 30.26,30.57 30.43,30.7 C 30.59,30.85 30.73,31.07 30.73,31.4 C 30.75,31.84 30.47,32.1 30.2,32.24 L 31.12,34 H 30.64 L 29.81,32.37 H 29.2 V 34 H 28.8 V 30.5 Z M 29.19,32 H 29.71 C 30.05,32 30.35,31.73 30.34,31.4 C 30.32,30.97 30.04,30.9 29.91,30.9 H 29.19 V 32 Z M 37,30.5 H 38.17 C 38.31,30.5 38.51,30.57 38.67,30.7 C 38.85,30.86 38.97,31.09 38.99,31.41 C 39.01,31.99 38.53,32.26 38.22,32.36 A 1.4,1.4 0 0,1 37.99,32.42 H 37.4 V 34 H 37 V 30.5 Z M 37.4,32.02 H 37.95 L 38.1,31.99 C 38.37,31.9 38.6,31.73 38.6,31.43 C 38.58,31.21 38.5,31.08 38.41,31.01 A 0.49,0.49 0 0,0 38.15,30.9 H 37.4 V 32.02 Z" fill="rgb(1, 73, 150)"/>
<path d="M 32.46,33.585 C 32.97,33.6 33.49,33.08 33.49,32.25 S 32.96,30.9 32.47,30.9 C 31.97,30.9 31.45,31.42 31.45,32.25 C 31.45,33.08 31.98,33.6 32.47,33.6 Z M 32.47,34 C 33.26,34 33.89,33.22 33.89,32.25 S 33.26,30.5 32.47,30.5 S 31.05,31.28 31.05,32.25 S 31.68,34 32.47,34 Z" fill="rgb(1, 73, 150)" fill-rule="evenodd"/>
<path d="M 34.54,30.485 V 32.7 A 0.9,0.9 0 1,0 36.35,32.7 V 30.5 H 36.75 V 32.7 A 1.3,1.3 0 1,1 34.15,32.7 V 30.5 H 34.55 Z" fill="rgb(1, 73, 150)"/>
</svg>
