<?xml version="1.0" encoding="UTF-8"?>
<!-- generated by Finnhub -->
<svg viewBox="0 0 55.5 55.5" xmlns="http://www.w3.org/2000/svg">
<path d="M 0,0 H 55.5 V 55.5 H 0 Z" fill="rgb(239, 242, 248)"/>
<path d="M 13.49,22.985 H 4 A 2.43,2.43 0 0,1 6.43,25.43 V 25.57 A 2.43,2.43 0 0,1 4,28 H 13.5 A 2.5,2.5 0 0,0 13.5,23 Z" fill="rgb(1, 60, 8)"/>
<path d="M 13.49,27.985 H 4 A 2.43,2.43 0 0,1 6.43,30.43 V 30.57 A 2.43,2.43 0 0,1 4,33 H 13.5 A 2.5,2.5 0 0,0 13.5,28 Z" fill="rgb(146, 148, 150)"/>
<path d="M 17.99,23.985 H 20.18 C 20.69,24 21.75,24.22 21.78,25.65 C 21.81,27.03 21.07,27.31 20.69,27.25 V 27.38 C 21.06,27.3 21.78,27.56 21.78,29.08 C 21.78,30.96 20.68,30.98 20.22,31 H 18 V 24 Z M 19.45,25 H 19.82 C 19.98,25 20.26,25.22 20.26,25.9 C 20.26,26.76 19.93,26.84 19.82,26.85 H 19.45 V 25 Z M 19.85,27.86 H 19.48 V 30 H 19.85 C 19.95,29.99 20.3,29.87 20.3,28.88 C 20.3,28.09 20.01,27.88 19.85,27.86 Z M 24.52,24 H 22.34 V 31 H 23.8 V 27.82 C 24.52,27.82 24.58,28.25 24.58,28.62 V 28.87 C 24.57,29.5 24.55,30.66 24.8,31 H 26.3 A 5.48,5.48 0 0,1 26.08,28.94 V 28.82 C 26.08,27.29 25.39,27.3 25.03,27.38 V 27.24 C 25.41,27.31 26.12,26.85 26.12,25.65 C 26.12,24.22 25.03,24 24.52,24 Z M 24.16,25 H 23.79 V 26.85 H 24.16 C 24.26,26.84 24.6,26.76 24.6,25.9 C 24.6,25.22 24.32,25 24.15,25 Z M 28.5,24 A 1.9,1.9 0 0,0 26.6,25.9 V 29.1 A 1.9,1.9 0 1,0 30.4,29.1 V 25.9 A 1.9,1.9 0 0,0 28.5,24 Z M 28.5,25 A 0.41,0.41 0 0,0 28.1,25.42 V 29.59 A 0.41,0.41 0 1,0 28.92,29.59 V 25.42 A 0.41,0.41 0 0,0 28.5,25 Z M 34.88,24 H 37.18 C 38.01,24 38.68,24.67 38.68,25.5 V 29.5 C 38.68,30.33 38.01,31 37.18,31 H 34.88 V 24 Z M 36.37,25 H 36.69 C 36.97,25 37.19,25.22 37.19,25.5 V 29.5 A 0.5,0.5 0 0,1 36.69,30 H 36.37 V 25 Z M 30.6,31 L 31.72,24 H 33.74 L 34.6,31 H 33.1 L 32.9,29.25 H 32.13 L 31.85,31 H 30.6 Z M 32.3,28.2 L 32.56,25.13 L 32.82,28.2 H 32.29 Z M 45.7,24 L 44.59,31 H 45.84 L 46.11,29.25 H 46.88 L 47.08,31 H 48.58 L 47.73,24 H 45.7 Z M 46.54,25.13 L 46.28,28.2 H 46.8 L 46.54,25.13 Z M 39.67,31 L 38.81,24 H 40.32 L 40.69,28.93 L 41.26,24 H 42.86 L 43.28,28.93 L 43.76,24 H 45.09 L 44.25,31 H 42.5 L 41.94,25.64 L 41.39,31 H 39.68 Z M 48,24 H 49.41 L 50.01,26.75 L 50.54,24 H 52 L 50.73,28.4 V 31 H 49.3 V 28.4 L 48,24 Z" fill="rgb(1, 60, 8)" fill-rule="evenodd"/>
</svg>
