<?xml version="1.0" encoding="UTF-8"?>
<!-- generated by Finnhub -->
<svg fill="none" viewBox="0 0 55.5 55.5" xmlns="http://www.w3.org/2000/svg">
<rect width="56" height="56" fill="rgb(239, 242, 248)"/>
<path d="M 44.99,14.985 H 11 V 41 H 45 V 15 Z M 17,24 H 13 V 39 H 17 V 37.8469 C 18.0523,38.572 19.3495,39 20.7528,39 C 23.3004,39 25.4984,37.5894 26.5157,35.5516 C 27.6071,37.5894 29.9651,39 32.6982,39 C 35.6716,39 38.0032,37.3304 38.8569,35 H 35.659 C 35.2611,35.9067 34.4626,36.5 33,36.5 C 30.762,36.5 30,34.933 30,33 S 30.7259,29.5 33,29.5 C 34.3992,29.5 35.2124,30.0933 35.6309,31 H 38.9647 C 38.3426,28.6696 36.4734,27 32.6982,27 C 29.7536,27 27.5158,28.386 26.4886,30.3949 C 25.4598,28.386 23.278,27 20.7528,27 C 19.3495,27 18.0523,27.428 17,28.1531 V 24 Z M 17,33.0037 V 32.9962 C 17.001,31.0649 17.7274,29.5 20,29.5 C 22.2741,29.5 23,31.067 23,33 S 22.3771,36.5 20,36.5 C 17.7634,36.5 17.001,34.935 17,33.0037 Z" clip-rule="evenodd" fill="url(#a)" fill-rule="evenodd"/>
<defs>
<linearGradient id="a" x1="28" x2="28" y1="15" y2="41" gradientUnits="userSpaceOnUse">
<stop stop-color="rgb(219, 118, 25)" offset="0"/>
<stop stop-color="rgb(243, 144, 26)" offset=".42387"/>
<stop stop-color="rgb(242, 143, 26)" offset="1"/>
</linearGradient>
</defs>
</svg>
