<?xml version="1.0" encoding="UTF-8"?>
<!-- generated by Finnhub -->
<svg viewBox="0 0 55.5 55.5" xmlns="http://www.w3.org/2000/svg">
<path d="M 0,0 H 55.5 V 55.5 H 0 Z" fill="rgb(98, 190, 185)"/>
<path d="M 35.580000000000005,14.485 V 16 A 5.13,5.13 0 0,0 33.44,15.51 C 32.77,15.51 32,15.99 32,16.42 C 32,16.85 32.56,17.32 33.67,17.73 C 34.77,18.13 36,18.92 36,20.48 C 36,22.65 33.85,23 32.44,23 C 31.31,23 30.34,22.61 30,22.42 V 20.73 C 30.54,21 31.78,21.53 32.44,21.53 C 33.26,21.53 34.03,20.9 34.03,20.5 S 33.93,19.87 32.43,19.2 C 30.96,18.5 30,17.92 30,16.41 C 30,14.9 31.77,13.99 33.44,13.99 C 34.77,13.99 35.43,14.33 35.59,14.49 Z M 42.59,14.5 V 16 A 5.13,5.13 0 0,0 40.44,15.51 C 39.77,15.51 39,15.99 39,16.42 C 39,16.85 39.56,17.32 40.67,17.73 C 41.77,18.13 43,18.92 43,20.48 C 43,22.65 40.85,23 39.44,23 C 38.31,23 37.34,22.61 37,22.42 V 20.73 C 37.54,21 38.78,21.53 39.44,21.53 C 40.26,21.53 41.03,20.9 41.03,20.5 S 40.93,19.87 39.43,19.2 C 37.96,18.5 37,17.92 37,16.41 C 37,14.9 38.77,13.99 40.44,13.99 C 41.77,13.99 42.43,14.33 42.59,14.49 Z" fill="rgb(254, 254, 253)"/>
<path d="M 11.99,13.985 H 16.56 A 2.1,2.1 0 0,1 17.05,18.15 A 2.45,2.45 0 0,1 16.55,23 H 12 V 14 Z M 14,15 H 15.3 A 1.22,1.22 0 1,1 15.3,17.45 H 14 V 15 Z M 14,22 H 15.5 A 1.5,1.5 0 0,0 15.5,19 H 14 V 22 Z M 24.5,23 A 4.5,4.5 0 1,0 24.5,14 A 4.5,4.5 0 0,0 24.5,23 Z M 24.5,21.5 C 25.88,21.5 27,20.16 27,18.5 S 25.88,15.5 24.5,15.5 S 22,16.84 22,18.5 S 23.12,21.5 24.5,21.5 Z" fill="rgb(254, 254, 253)" fill-rule="evenodd"/>
<path d="M 20.99,26.985 V 28 H 27 V 30 H 21 V 31 H 26 V 40 H 27 V 42 H 12 V 40 H 14 V 31 H 19 V 30 H 12 V 28 H 19 V 27 H 21 Z M 24,40 V 39 H 16 V 40 H 24 Z M 24,38 V 37 H 16 V 38 H 24 Z M 24,36 V 35 H 16 V 36 H 24 Z M 24,34 V 33 H 16 V 34 H 24 Z M 28,29 H 35 V 30 H 34 V 38.2 L 35,38 V 39.75 L 34,39.96 V 42 H 32 V 40.38 L 29,41 V 30 H 28 V 29 Z M 32,38.62 V 37 H 31 V 38.83 L 32,38.63 Z M 32,35 V 34 H 31 V 35 H 32 Z M 32,32 V 30 H 31 V 32 H 32 Z" fill="rgb(254, 254, 253)"/>
<path d="M 40.99,28.985 V 28 H 39 V 29 H 36 V 34 H 44 V 29 H 41 Z M 43,33 V 32 H 41 V 33 H 43 Z M 39,33 V 32 H 37 V 33 H 39 Z M 43,30 V 31 H 41 V 30 H 43 Z M 39,30 H 37 V 31 H 39 V 30 Z" fill="rgb(254, 254, 253)" fill-rule="evenodd"/>
<path d="M 43.99,34.985 H 35 V 37 H 36.65 L 36,39 H 40.6 C 40.53,39.43 40.18,40.25 39.76,40.25 H 37 L 37.54,42 H 39 C 40.4,42 41.18,40.73 41.87,39.55 A 0.8,0.8 0 0,0 41.99,39 H 43 V 38 H 38.68 L 39,37 H 44 V 35 Z" fill="rgb(254, 254, 253)"/>
</svg>
