<?xml version="1.0" encoding="UTF-8"?>
<!-- generated by Finnhub -->
<svg viewBox="0 0 55.5 55.5" xmlns="http://www.w3.org/2000/svg">
<path d="M 0,0 H 55.5 V 55.5 H 0 Z" fill="rgb(239, 242, 248)"/>
<path d="M 11.16,24.985 C 12.41,25 13.5,25.52 13.5,26.98 C 13.5,27.66 12.95,28.59 12.25,28.73 C 12.73,28.77 13.18,28.99 13.5,29.35 C 13.83,29.7 14,30.22 14,30.7 C 14,32.45 12.47,33 10.94,33 H 8 V 25 H 11.17 Z M 9.4,28.22 H 10.77 C 11.74,28.22 12,27.82 12,27.21 C 12,26.71 11.74,26.3 10.6,26.3 H 9.4 V 28.22 Z M 9.4,31.7 H 10.77 C 11.51,31.7 12.6,31.57 12.6,30.5 C 12.6,29.65 11.96,29.46 10.83,29.46 H 9.4 V 31.7 Z M 20,25 V 26.3 H 16.4 V 28.2 H 20 V 29.5 H 16.4 V 31.7 H 20 V 33 H 15 V 25 H 20 Z M 41,25 V 26.3 H 37.4 V 28.2 H 41 V 29.5 H 37.4 V 31.7 H 41 V 33 H 36 V 25 H 41 Z M 23.92,25 H 25.13 L 28.5,33 H 26.9 L 26.18,31.3 H 22.76 L 22.04,33 H 20.5 L 23.92,25 Z M 25.69,30 L 24.47,26.68 L 23.26,30 H 25.69 Z M 29,31.71 L 33.3,26.29 H 29 V 25 H 35 V 26.29 L 30.7,31.71 H 35 V 33 H 29 V 31.71 Z M 42,25 H 44.78 C 46.28,25 47.7,25.63 47.7,27.42 C 47.7,28.42 47.1,29.55 45.89,29.82 L 48,33 H 46.28 L 44.44,30 H 43.4 V 33 H 42 V 25 Z M 44.56,28.7 C 45.33,28.7 46.3,28.48 46.3,27.42 C 46.3,26.47 45.39,26.3 44.67,26.3 H 43.4 V 28.7 H 44.56 Z" fill="rgb(165, 24, 44)"/>
<path d="M 15.99,34.985 H 16.6 V 37 H 19.4 V 35 H 20 V 40 H 19.4 V 37.6 H 16.6 V 40 H 16 V 35 Z M 26.7,35 H 27.58 L 29.2,38.84 L 30.82,35 H 31.7 V 40 H 31.1 V 35.8 L 29.37,40 H 29.04 L 27.3,35.8 V 40 H 26.7 V 35 Z M 33,35 H 36 V 35.6 H 33.6 V 37.16 H 36 V 37.76 H 33.6 V 39.4 H 36 V 40 H 33 V 35 Z M 39.56,36 C 39.4,35.7 38.98,35.54 38.63,35.54 C 38.13,35.54 37.7,35.77 37.7,36.3 S 38.33,37 38.63,37.14 C 39.4,37.5 40,37.72 40,38.6 C 40,39.42 39.22,40 38.47,40 C 37.98,40 37.47,39.92 37,39.3 L 37.47,38.92 C 37.67,39.26 38.08,39.45 38.47,39.41 C 38.96,39.42 39.39,39.11 39.4,38.61 C 39.41,38.09 38.88,37.95 38.31,37.67 C 37.75,37.39 37.11,37.07 37.11,36.3 C 37.12,35.43 37.8,35 38.63,35 C 39.14,35 39.61,35.13 39.95,35.54 L 39.56,36 Z" fill="rgb(108, 109, 111)"/>
<path d="M 21.9,19.985 C 24.17,17.5 27.03,16 29.4,16 C 32.16,16 34.64,17.86 36,21.82 C 36,21.94 35.53,22.18 35.3,22.23 C 33.46,22.76 31.82,23 30.38,23 C 26.51,23 24.09,21.42 23.37,21.12 C 23.13,21 21.49,22.35 20.72,22.82 C 20.52,22.95 20.29,23 20.04,23 C 19.33,23 18.51,22.63 18.08,22.41 C 18.03,22.38 18,22.35 18,22.31 C 18,21.91 18.97,21.5 19.34,21.5 C 19.73,21.5 19.72,22 20.14,22 C 20.37,22 20.55,21.93 20.72,21.79 C 23.68,19.37 26.14,18.97 28.01,19 C 30.6,19.05 31.93,20.3 32,20.47 A 11.3,11.3 0 0,0 28,19.6 C 25.7,19.59 24.48,20.47 24.48,20.47 C 27,21.44 29.68,22 32.36,22 C 33.4,22 34.44,21.76 35.47,21.59 C 33.25,18.52 31.03,17.52 29.04,17.5 C 26.84,17.48 24.62,18.88 22.86,20 C 22.62,20.12 21.97,20.59 21.86,20.53 C 21.81,20.51 21.79,20.45 21.79,20.37 C 21.79,20.26 21.84,20.11 21.91,20 Z" fill="rgb(140, 197, 61)"/>
<path d="M 35.99,11.524999999999999 C 35.45,11.16 33.92,11 33.03,11 C 27.88,11 26.05,15.34 26,16.6 A 6.4,6.4 0 0,1 27.48,16 V 15.93 C 27.42,15.4 29.65,12 33.68,12 C 34.13,12 34.51,11.92 35,12 C 34.27,13.01 31.68,15.04 30.82,15.63 C 31.31,15.69 31.78,15.82 32.22,16 C 33.56,15.4 36,12.5 36,11.54 Z" fill="rgb(195, 222, 153)"/>
<path d="M 32.39,12.905 C 31.88,12.98 28.92,14.61 28.66,15.27 V 15.39 C 29.11,15.32 29.56,15.29 30.01,15.27 A 23.4,23.4 0 0,0 32.39,12.92 Z M 22,22.88 C 22,23 22.21,23 23,23 H 23.8 C 24,23 23.82,22.6 24,22.12 C 23.64,21.94 23.35,21.82 23.17,21.7 C 22.59,22.58 22,22.72 22,22.88 Z" fill="rgb(195, 222, 153)"/>
<path d="M 25.99,37.485 A 2.5,2.5 0 1,1 21,37.5 A 2.5,2.5 0 0,1 26,37.5 Z M 23.5,39.4 A 1.9,1.9 0 1,0 23.5,35.6 A 1.9,1.9 0 1,0 23.5,39.4 Z" fill="rgb(108, 109, 111)"/>
</svg>
