<?xml version="1.0" encoding="UTF-8"?>
<!-- generated by Finnhub -->
<svg viewBox="0 0 55.5 55.5" xmlns="http://www.w3.org/2000/svg">
<path d="M 0,0 H 55.5 V 55.5 H 0 Z" fill="rgb(239, 242, 248)"/>
<path d="M 23.99,26.384999999999998 H 25 V 27.46 C 25,28.31 24.3,29 23.45,29 H 18.55 C 17.7,29 17,28.31 17,27.46 V 23.54 C 17,22.69 17.7,22 18.55,22 H 23.45 C 24.3,22 25,22.69 25,23.54 V 24.49 H 24 V 23.37 C 24,23.08 23.62,23 23.33,23 H 18.5 C 18.21,23 18.01,23.08 18.01,23.37 V 27.6 C 18.01,27.88 18.21,28 18.5,28 H 23.34 C 23.63,28 24.01,27.88 24.01,27.6 V 26.4 Z M 31,26.57 H 32 V 27.56 C 32,27.83 32.29,28 32.56,28 H 36.51 C 36.78,28 37,27.83 37,27.56 V 26.5 A 0.5,0.5 0 0,0 36.5,26 H 32.23 C 31.55,26 31,25.44 31,24.75 V 23.25 C 31,22.55 31.55,22 32.23,22 H 36.77 C 37.45,22 38,22.56 38,23.25 V 24 H 37 V 23.5 A 0.5,0.5 0 0,0 36.5,23 H 32.5 A 0.5,0.5 0 0,0 32,23.5 V 24.45 C 32,24.72 32.23,25 32.5,25 H 36.77 C 37.45,25 38,25.5 38,26.2 V 27.75 C 38,28.45 37.45,29 36.77,29 H 32.23 C 31.55,29 31,28.44 31,27.75 V 26.57 Z" fill="rgb(1, 1, 38)"/>
<path d="M 17.619999999999997,39.985 L 16.74,33.5 C 20.24,32.84 27.23,29.62 27.23,22 C 28.59,32.76 21.4,38.48 17.63,40 Z" fill="url(#b)"/>
<path d="M 38.120000000000005,39.985 L 39.03,33.5 C 35.53,32.84 28.53,29.62 28.53,22 C 27.17,32.76 34.37,38.48 38.13,40 Z" fill="url(#a)"/>
<path d="M 3.99,29.985 H 52 V 32 H 4 Z" fill="rgb(1, 1, 38)" opacity=".5"/>
<defs>
<linearGradient id="b" x1="27.4" x2="17.86" y1="28.57" y2="32.34" gradientUnits="userSpaceOnUse">
<stop stop-color="rgb(226, 157, 2)" offset="0"/>
<stop stop-color="rgb(226, 157, 2)" stop-opacity="0" offset="1"/>
</linearGradient>
<linearGradient id="a" x1="28.37" x2="37.91" y1="28.57" y2="32.34" gradientUnits="userSpaceOnUse">
<stop stop-color="rgb(197, 182, 203)" offset="0"/>
<stop stop-color="rgb(197, 182, 203)" stop-opacity="0" offset="1"/>
</linearGradient>
</defs>
</svg>
