<?xml version="1.0" encoding="UTF-8"?>
<!-- generated by Finnhub -->
<svg viewBox="0 0 55.5 55.5" xmlns="http://www.w3.org/2000/svg">
<path d="M 0,0 H 55.5 V 55.5 H 0 Z" fill="rgb(181, 148, 60)"/>
<path d="M 16.773,19.182 C 16.882,19.049 17.104,18.678 17.796,18.753 C 17.796,19.395 17.821,20.359 17.771,20.878 C 17.747,21.199 17.475,21.175 17.549,21.496 C 17.672,21.57 18.538,21.595 18.884,21.546 C 18.884,21.546 19.204,21.422 18.884,21.126 C 18.784,20.976 18.834,18.826 18.834,18.802 C 19.007,18.802 19.354,18.777 19.354,18.802 C 19.304,19.296 19.551,19.296 19.724,18.975 C 19.749,18.851 20.292,18.233 20.169,18.011 C 20.144,17.986 19.922,18.011 19.922,18.011 C 19.674,18.11 19.65,18.159 19.576,18.184 C 19.131,18.209 18.538,18.209 17.351,18.184 C 17.277,18.011 17.154,18.085 17.104,18.085 C 16.091,19.321 16.536,19.222 16.783,19.197 Z M 20.07,19.197 C 20.095,19.445 20.045,20.952 20.045,21.051 C 19.699,21.274 19.872,21.496 19.872,21.496 C 20.218,21.496 20.984,21.546 21.009,21.496 C 21.034,21.249 20.959,21.323 20.886,21.126 C 20.762,20.804 20.786,20.236 20.811,20.136 C 21.256,19.272 21.825,21.99 20.861,22.509 C 20.762,22.559 20.564,22.806 21.034,22.707 C 22.863,21.694 22.22,18.802 20.787,19.543 C 20.787,17.962 20.886,18.135 19.897,18.827 C 19.749,19.098 20.045,19.074 20.07,19.197 Z M 15.102,29.677 C 14.806,29.776 14.361,30.196 13.471,30.27 C 11.667,30.443 10.604,29.924 9.516,28.762 C 8.577,27.774 8.355,26.142 8.33,25.5 C 8.305,21.842 9.936,19.766 11.79,19.766 C 14.311,19.692 15.572,22.139 16.017,22.831 C 16.61,22.905 16.882,22.608 16.882,22.608 C 16.634,20.977 15.472,18.678 15.176,18.431 A 0.506,0.506 0 0,0 14.904,18.431 C 14.707,18.555 14.089,19.123 14.138,19.123 C 11.864,18.703 8.948,18.308 6.921,21.842 C 6.328,22.88 6.056,23.671 6.007,24.956 C 5.883,27.774 7.465,31.061 11.247,31.406 C 12.334,31.506 13.447,31.506 14.336,31.086 C 15.745,30.418 15.819,29.998 15.819,29.973 C 15.151,29.653 15.151,29.677 15.102,29.677 Z M 23.481,21.496 C 24.222,21.372 24.395,21.1 24.395,21.1 C 24.568,20.853 24.371,20.78 24.247,20.878 C 23.431,21.447 23.11,20.754 23.085,20.68 C 23.185,20.656 23.629,20.507 24.37,20.186 C 24.346,20.112 24.222,19.445 23.58,19.37 C 21.85,19.173 21.701,21.595 23.48,21.496 Z M 23.159,19.741 C 23.357,19.716 23.505,19.84 23.555,20.137 C 23.357,20.186 23.209,20.285 22.986,20.26 C 22.887,20.186 22.962,19.766 23.159,19.741 Z M 42.017,27.354 C 43.055,27.378 44.118,27.378 44.143,27.329 C 44.316,26.959 44.291,26.736 43.896,26.686 C 43.748,26.662 43.822,26.439 43.748,26.34 C 43.723,26.316 43.698,25.994 43.698,25.648 C 43.698,25.722 43.871,25.327 44.118,25.278 C 44.464,25.327 45.107,27.131 45.378,27.304 C 45.749,27.354 46.639,27.329 46.862,27.279 C 47.134,26.563 46.565,27.008 45.997,25.821 C 45.132,23.992 45.082,24.116 45.972,23.721 C 46.466,23.498 46.367,23.226 46.096,23.177 C 43.673,22.831 44.192,23.523 44.168,23.473 C 44.242,23.671 44.934,23.621 43.896,24.511 C 43.896,24.511 43.772,24.536 43.772,24.487 C 43.748,23.844 43.748,20.581 43.748,19.988 C 43.648,19.815 43.253,19.914 41.844,20.853 C 41.869,20.903 41.844,21.125 41.894,21.15 C 41.968,21.2 42.388,21.298 42.413,21.545 C 42.413,24.808 42.388,26.142 42.413,26.365 C 42.141,26.735 41.869,26.711 41.844,26.884 C 41.82,27.156 41.968,27.354 42.017,27.354 Z M 23.085,23.968 C 23.085,24.314 23.085,24.486 23.135,24.61 C 23.406,25.327 24.173,25.426 24.716,25.599 C 25.384,25.846 25.878,25.92 25.853,26.241 C 25.829,26.341 25.606,26.736 24.593,26.538 C 24.173,26.464 23.975,26.365 23.258,25.796 C 23.234,25.796 22.937,25.772 22.962,25.796 C 23.085,26.316 23.209,26.587 23.752,27.502 C 23.777,27.502 24.049,27.477 24.049,27.477 C 24.469,26.909 24.519,27.23 25.384,27.329 C 27.46,27.551 28.474,25.079 25.434,24.462 C 24.791,24.362 23.975,23.893 24.618,23.646 C 25.334,23.374 26.398,24.14 26.298,24.091 C 27.238,24.585 26.941,24.066 26.57,23.448 C 25.927,22.386 25.952,23.152 25.532,23.128 C 25.211,23.102 25.211,23.028 24.296,23.004 C 23.901,23.028 23.086,23.324 23.086,23.967 Z M 34.43,27.378 C 35.987,27.304 36.259,26.513 36.382,26.241 C 36.432,26.118 36.209,25.821 36.036,26.019 C 34.331,27.823 33.342,25.945 33.367,25.203 C 33.367,24.511 33.614,23.523 34.405,23.597 C 34.405,23.597 34.949,23.374 35.345,24.734 C 35.765,25.228 35.962,24.684 36.234,23.869 C 36.358,23.498 35.591,23.102 34.405,23.053 C 33.169,23.003 31.835,24.066 31.884,25.327 C 31.983,27.23 33.416,27.353 34.43,27.378 Z M 32.848,34.694 C 31.143,36.498 30.154,34.62 30.178,33.878 C 30.178,33.186 30.426,32.198 31.217,32.272 C 31.217,32.272 31.76,32.05 32.156,33.409 C 32.551,33.903 32.774,33.359 33.046,32.544 C 33.169,32.174 32.403,31.778 31.216,31.728 C 29.981,31.678 28.646,32.742 28.696,34.002 C 28.795,35.905 30.228,36.029 31.241,36.053 C 32.798,35.979 33.071,35.188 33.194,34.917 C 33.268,34.793 33.046,34.497 32.848,34.694 Z M 20.886,27.378 C 22.072,27.304 22.863,26.612 22.962,26.39 C 23.061,26.217 22.887,25.994 22.665,26.118 C 21.405,26.908 20.688,26.859 20.119,25.747 C 20.366,25.574 22.467,24.907 22.689,24.734 C 22.839,24.61 22.369,23.844 22.047,23.547 C 21.677,23.226 21.281,23.028 20.465,23.077 C 17.475,23.374 17.87,27.502 20.885,27.378 Z M 20.342,23.696 C 20.812,23.621 21.232,24.166 21.232,24.61 C 21.157,24.709 20.045,25.179 19.897,24.882 C 19.724,24.635 19.724,23.844 20.342,23.696 Z M 29.832,27.378 C 31.019,27.304 31.785,26.612 31.909,26.39 C 32.008,26.217 31.835,25.994 31.612,26.118 C 30.352,26.908 29.635,26.859 29.066,25.747 C 29.314,25.574 31.414,24.907 31.636,24.734 C 31.786,24.61 31.316,23.844 30.994,23.547 C 30.624,23.226 30.228,23.028 29.413,23.077 C 26.422,23.374 26.817,27.502 29.833,27.378 Z M 29.289,23.696 C 29.759,23.621 30.179,24.166 30.154,24.61 C 30.08,24.709 28.968,25.179 28.819,24.882 C 28.671,24.635 28.671,23.844 29.289,23.696 Z M 48.839,27.378 C 50.025,27.304 50.792,26.612 50.915,26.39 C 51.014,26.217 50.841,25.994 50.618,26.118 C 49.358,26.908 48.641,26.859 48.073,25.747 C 48.32,25.574 50.421,24.907 50.643,24.734 C 50.791,24.61 50.322,23.844 50.001,23.547 C 49.63,23.226 49.234,23.028 48.419,23.077 C 45.429,23.374 45.799,27.502 48.839,27.378 Z M 48.295,23.696 C 48.765,23.621 49.185,24.166 49.185,24.61 C 49.111,24.709 47.999,25.179 47.85,24.882 C 47.677,24.635 47.677,23.844 48.295,23.696 Z M 17.648,23.523 C 17.278,23.201 16.882,23.003 16.066,23.053 C 13.051,23.374 13.421,27.502 16.461,27.353 C 17.648,27.279 18.439,26.587 18.538,26.365 C 18.636,26.192 18.463,25.969 18.241,26.093 C 16.981,26.883 16.264,26.834 15.695,25.723 C 15.942,25.549 18.043,24.882 18.265,24.709 C 18.439,24.585 17.969,23.819 17.648,23.523 Z M 15.473,24.907 C 15.324,24.635 15.324,23.844 15.943,23.72 C 16.412,23.646 16.833,24.19 16.833,24.635 C 16.733,24.734 15.621,25.178 15.473,24.907 Z M 36.531,26.167 C 36.531,26.81 36.728,27.329 38.261,27.403 C 39.719,27.255 39.571,26.76 40.065,27.205 C 41.227,27.675 41.721,27.131 41.721,26.76 C 41.721,26.464 41.177,26.71 40.979,26.488 C 40.436,25.401 40.46,22.978 38.582,23.102 C 38.532,23.102 37.939,22.954 36.926,23.696 C 36.926,23.696 36.58,24.289 37.124,24.215 C 37.174,24.165 38.854,23.152 38.928,24.709 C 37.816,24.832 36.531,24.907 36.531,26.167 Z M 38.409,25.351 C 38.854,25.302 38.607,25.327 39.101,25.376 C 39.076,25.376 39.843,26.266 39.051,26.661 C 37.495,26.81 37.964,25.401 38.409,25.351 Z M 23.999,33.335 C 24.469,33.409 24.247,32.915 24.074,32.173 C 23.901,31.407 23.678,30.813 22.962,31.456 C 22.986,31.481 22.64,31.531 22.64,31.531 C 22.566,31.555 20.935,31.555 21.182,31.481 C 21.157,31.481 21.059,31.086 21.059,30.344 C 21.059,29.479 21.256,29.404 22.863,29.232 C 24.865,29.282 26.397,29.331 27.287,29.751 C 27.41,29.801 28.053,29.801 28.201,29.652 C 28.621,29.257 28.77,28.144 27.584,27.996 C 26.002,27.576 23.604,27.922 21.874,28.194 C 22.394,28.12 20.119,28.688 17.796,28.49 C 16.461,28.392 16.486,28.07 16.486,28.07 C 15.942,27.28 14.756,27.922 15.003,28.985 C 15.077,29.355 15.893,30.048 17.969,29.627 C 18.339,29.553 18.612,29.529 19.229,29.529 C 19.229,34.743 19.254,37.709 19.229,37.734 C 19.279,37.709 17.895,39.958 18.982,39.637 C 19.279,39.563 21.157,38.228 21.479,38.006 C 21.8,37.66 21.133,37.462 21.133,36.968 V 33.063 C 21.133,32.766 21.281,32.791 21.281,32.791 S 22.591,32.692 23.135,32.841 C 23.505,32.939 24.074,33.359 24,33.335 Z M 36.309,35.065 C 35.295,35.732 35.295,34.892 35.27,34.892 C 35.27,34.792 35.171,33.557 35.245,32.816 C 35.245,32.816 35.295,32.643 35.443,32.593 C 35.567,32.543 36.185,32.568 36.506,32.543 C 36.679,32.198 36.654,31.877 36.629,31.877 C 36.234,31.827 35.591,31.901 35.27,31.827 C 35.22,31.432 35.22,30.838 35.22,30.369 C 35.196,30.369 34.949,30.369 34.924,30.344 C 33.812,31.506 33.515,31.852 33.244,32.124 C 33.12,32.766 33.787,32.395 33.762,32.741 C 34.034,34.249 32.823,35.93 35.122,36.029 C 36.902,36.053 37.074,34.769 36.308,35.065 Z M 50.519,32.272 C 50.544,32.173 50.519,31.975 50.544,31.877 C 48.74,31.728 48.32,31.901 48.32,31.926 C 48.345,32.025 48.32,32.124 48.345,32.222 C 48.369,32.297 48.765,32.494 48.765,32.519 C 48.987,33.039 48.245,34.15 48.073,34.398 C 48.221,34.62 47.48,33.73 47.282,32.47 C 47.381,32.395 47.603,32.37 47.628,32.247 C 47.727,31.827 47.43,31.753 46.491,31.802 C 46.096,31.827 45.626,31.802 45.354,31.926 C 45.354,32 45.354,32.198 45.329,32.272 C 45.429,32.346 45.552,32.371 45.651,32.494 C 45.922,32.816 46.936,34.991 47.208,35.782 C 47.183,35.806 47.233,35.88 47.208,35.905 C 45.058,39.019 43.154,38.401 43.278,37.339 C 43.352,37.166 43.105,36.819 42.438,37.042 C 42.042,37.24 41.918,37.635 41.968,37.858 C 42.561,40.058 45.873,39.143 47.875,36.622 C 48.518,35.831 49.605,34.299 50.125,32.717 C 50.223,32.445 50.495,32.297 50.52,32.272 Z M 43.476,36.029 C 43.5,35.905 43.649,36.079 43.575,35.658 C 43.55,35.485 43.179,35.435 43.105,35.238 C 43.006,34.966 43.031,33.928 43.105,33.631 C 43.055,33.903 43.426,32.568 44.267,33.359 A 0.62,0.62 0 0,1 44.365,33.532 C 44.588,33.582 44.538,33.557 44.736,33.434 C 44.686,32.791 45.848,31.778 44.489,31.901 C 43.748,31.975 43.549,32.346 43.204,32.667 H 43.104 C 43.13,31.555 42.709,31.926 42.215,32.222 C 41.869,32.42 41.622,32.544 41.325,32.766 C 41.35,32.816 41.325,32.964 41.325,33.038 C 41.449,33.112 41.622,33.137 41.696,33.261 C 41.869,33.532 41.919,34.62 41.795,35.089 C 41.745,35.337 41.276,35.509 41.202,35.683 C 41.177,35.757 41.227,35.905 41.202,35.979 C 41.919,36.128 42.611,36.029 43.476,36.029 Z M 38.706,31.778 C 37.296,31.901 36.556,32.742 36.556,33.928 C 36.556,35.732 38.286,36.474 40.164,35.979 C 42.66,35.189 41.4,31.531 38.706,31.778 Z M 39.744,35.386 C 38.162,36.152 37.346,32.568 38.359,32.321 C 39.694,32.025 40.584,34.966 39.744,35.386 Z M 28.869,35.287 S 28.622,35.337 28.498,35.263 C 28.3,35.139 28.201,34.496 28.078,34.2 C 27.608,33.063 27.682,31.728 25.977,31.753 C 25.359,31.728 24.37,32.272 24.297,32.543 C 24.173,33.038 24.568,32.964 24.568,32.964 C 25.483,32.272 26.101,32.667 26.101,32.643 C 26.471,33.162 26.372,33.483 26.372,33.458 C 24,33.359 23.95,34.645 23.95,34.793 C 23.926,35.88 24.766,36.103 25.532,36.103 C 26.002,36.103 26.595,36.053 26.842,35.856 C 27.238,35.51 27.238,35.88 27.534,35.955 C 29.388,36.449 29.363,35.139 28.869,35.287 Z M 26.422,35.387 C 25.235,35.658 25.112,34.2 25.902,34.051 C 26.966,33.804 27.114,35.213 26.422,35.386 Z M 11.37,29.478 C 11.395,29.552 11.37,29.676 11.395,29.701 C 11.445,29.75 11.691,29.676 11.765,29.651 C 12.755,29.157 14.039,28.069 13.965,25.845 V 25.622 C 13.99,24.708 13.397,23.151 12.359,23.102 C 12.037,23.077 11.691,23.2 11.271,23.472 C 11.271,22.459 11.296,21.89 11.271,20.902 H 11.049 C 10.554,21.198 10.011,21.52 9.566,21.866 C 9.59,21.964 9.541,22.063 9.566,22.186 C 9.566,22.261 10.011,22.385 10.011,22.533 C 10.011,22.607 10.035,25.623 9.961,26.389 C 9.911,26.759 9.615,26.784 9.491,26.932 C 9.491,26.932 9.442,27.377 9.615,27.377 H 11.568 C 11.716,27.278 11.691,27.229 11.691,27.007 C 11.641,26.957 11.395,26.71 11.345,26.512 C 11.222,25.993 11.197,24.98 11.246,24.56 C 11.271,24.362 11.469,24.189 11.568,24.115 C 11.618,24.065 11.864,24.115 11.889,24.09 C 11.914,24.065 12.186,24.436 12.235,24.535 C 12.507,25.103 12.705,26.191 12.68,26.735 C 12.63,29.033 11.543,29.255 11.37,29.478 Z" fill="rgb(254, 247, 236)"/>
</svg>
