<?xml version="1.0" encoding="UTF-8"?>
<!-- generated by Finnhub -->
<svg viewBox="0 0 55.5 55.5" xmlns="http://www.w3.org/2000/svg">
<path d="M 0,0 H 55.5 V 55.5 H 0 Z" fill="url(#c)"/>
<path d="M 9.152000000000001,24.518 L 10,24.127 L 9.265,26.828 C 8.885,24.957 7.802,24.518 7.308,24.533 C 5.328,24.595 4.888,26.499 4.998,27.555 C 5.108,28.611 5.881,29.932 7.44,30 C 8.687,30.055 9.516,28.914 9.74,28.419 C 9.533,30.599 7.892,31.046 7.098,30.997 C 4.507,30.806 3.955,28.623 4.003,27.555 C 4.235,24.671 6.17,24.023 7.308,24.001 C 8.219,23.983 8.924,24.348 9.162,24.533 Z M 10.92,30.271 L 13.49,24 L 16.039,30.183 L 17,31 H 14 L 14.848,30.337 L 14.378,29.233 H 11.933 L 11.494,30.271 L 12,31 H 10 L 10.92,30.271 Z" fill="rgb(254, 254, 253)"/>
<path d="M 12.133000000000001,28.644 L 13.162,26.196 L 14.139,28.659 H 12.143 Z" fill="url(#b)"/>
<path d="M 18.991999999999997,24.811 L 18,24 H 21 L 20,24.826 V 30.492 H 22.061 L 24,29 L 23.43,31 H 18 L 19.002,30.08 V 24.826 Z M 26,24.92 L 25,24 H 30.67 L 31,26.139 L 29.405,24.489 H 27 V 27 H 28.226 L 29.259,25.741 L 29.114,27.294 L 29.259,28.954 L 28.226,27.703 H 27 V 30.502 H 29.178 L 31,28.88 L 30.443,31 H 25 L 26,30.042 V 24.92 Z M 41,24.92 L 40,24 H 45.67 L 46,26.139 L 44.405,24.489 H 42 V 27 H 43.226 L 44.259,25.741 L 44.114,27.294 L 44.259,28.954 L 43.226,27.703 H 42 V 30.502 H 44.178 L 46,28.88 L 45.443,31 H 40 L 41,30.042 V 24.92 Z M 33,24.893 L 32,24 H 35.678 C 36.487,24 37.963,24.433 38,25.833 C 38.037,27.233 36.806,27.892 36.135,28 C 36.388,28.356 37.081,29.076 37.632,29.809 C 38.184,30.541 38.774,30.809 39,30.852 C 38.88,30.908 38.567,30.968 38.425,30.992 C 37.478,31.102 36.429,30.118 36.023,29.612 L 34.678,28 H 34 V 30 L 35,31 H 32 L 33,30 V 24.893 Z M 51.404,24.61 L 52,24.192 L 51.603,26.492 C 50.735,24.818 50.241,24.609 49.666,24.609 C 49.026,24.609 48.365,24.917 48.365,25.759 C 48.365,26.309 48.785,26.592 49.093,26.719 L 50.598,27.412 C 50.99,27.62 52,28.028 52,28.91 C 52,30.16 51.122,30.847 49.947,30.983 C 49.007,31.091 48.127,30.667 47.803,30.442 L 47.002,31 L 47.738,28.4 C 48.525,30.442 49.654,30.442 49.943,30.442 H 49.947 C 50.229,30.442 50.979,30.306 51,29.528 C 51.018,28.905 50.462,28.428 50.07,28.274 H 50.067 C 49.162,27.918 47.429,27.239 47.429,26.026 C 47.429,24.494 48.68,24 49.666,24 C 50.454,24 51.195,24.433 51.404,24.61 Z M 23.5,33 L 23.837,34.035 H 24.927 L 24.045,34.675 L 24.382,35.711 L 23.5,35.071 L 22.618,35.711 L 22.955,34.675 L 22.073,34.035 H 23.163 L 23.5,33 Z M 32.5,33 L 32.837,34.035 H 33.927 L 33.045,34.675 L 33.382,35.711 L 32.5,35.071 L 31.618,35.711 L 31.955,34.675 L 31.073,34.035 H 32.163 L 32.5,33 Z M 27.003,33 H 28.905 L 28.748,33.561 H 27.315 V 34.266 C 27.413,34.173 27.805,33.986 28.191,33.979 C 28.673,33.972 29,34.336 29,34.824 C 29,35.261 28.812,35.948 27.971,35.994 C 27.301,36.031 27.047,35.684 27.003,35.487 C 26.986,35.317 27.031,34.98 27.352,34.987 C 27.672,34.993 27.697,35.323 27.669,35.487 C 27.642,35.577 27.666,35.747 27.971,35.71 C 28.354,35.664 28.416,35.387 28.416,35.107 C 28.416,34.767 28.318,34.439 27.9,34.42 C 27.566,34.405 27.13,34.612 27.003,34.717 V 33 Z" fill="rgb(254, 254, 253)"/>
<path d="M 36.983000000000004,25.962 C 36.855,24.58 34.94,24.42 34,24.515 V 27.348 C 35.056,27.473 37.132,27.374 36.993,25.977 Z" fill="url(#a)"/>
<defs>
<linearGradient id="c" x1="10.418" x2="68.147" y1="9.712" y2="76.017" gradientUnits="userSpaceOnUse">
<stop stop-color="rgb(25, 29, 31)" offset="0"/>
<stop stop-color="rgb(5, 5, 8)" offset="1"/>
</linearGradient>
<linearGradient id="b" x1="12.514" x2="15.071" y1="26.623" y2="29.004" gradientUnits="userSpaceOnUse">
<stop stop-color="rgb(25, 29, 31)" offset="0"/>
<stop stop-color="rgb(5, 5, 8)" offset="1"/>
</linearGradient>
<linearGradient id="a" x1="34.558" x2="37.525" y1="24.995" y2="28.527" gradientUnits="userSpaceOnUse">
<stop stop-color="rgb(25, 29, 31)" offset="0"/>
<stop stop-color="rgb(5, 5, 8)" offset="1"/>
</linearGradient>
</defs>
</svg>
