<?xml version="1.0" encoding="UTF-8"?>
<!-- generated by Finnhub -->
<svg viewBox="0 0 55.5 55.5" xmlns="http://www.w3.org/2000/svg">
<path d="M 0,0 H 55.5 V 55.5 H 0 Z" fill="rgb(239, 242, 248)"/>
<path d="M 27.99,14.895 A 1.5,1.5 0 1,0 26.08,13.03 A 15,15 0 0,0 26.08,42.97 A 1.5,1.5 0 1,0 26.1,41.97 C 25.65,41.94 25.2,41.89 24.77,41.82 C 24.88,41.69 25.01,41.56 25.15,41.44 C 25.49,41.14 25.79,41 26,41 C 26.36,41 26.73,40.87 27.03,40.7 A 3.53,3.53 0 0,0 28.15,39.75 C 28.22,39.63 28.31,39.47 28.33,39.29 A 0.68,0.68 0 0,0 28.07,38.67 A 0.92,0.92 0 0,0 27.5,38.5 A 0.5,0.5 0 0,1 27.2,38.42 A 0.75,0.75 0 0,1 27,38.18 L 26.85,37.91 L 26.82,37.86 L 26.8,37.82 A 2.28,2.28 0 0,0 26.35,37.15 C 26.14,36.93 25.85,36.85 25.61,36.81 A 3.77,3.77 0 0,0 24.82,36.79 C 24.29,36.82 23.73,36.93 23.38,37.02 L 23.62,37.98 C 23.93,37.91 24.42,37.81 24.88,37.78 A 2.8,2.8 0 0,1 25.61,37.84 A 0.42,0.42 0 0,1 25.65,37.85 C 25.72,37.92 25.78,38.03 25.86,38.18 L 25.93,38.31 C 25.99,38.43 26.06,38.58 26.13,38.69 C 26.25,38.89 26.4,39.09 26.63,39.25 C 26.77,39.35 26.92,39.41 27.09,39.45 C 26.94,39.59 26.76,39.72 26.56,39.82 A 1.3,1.3 0 0,1 26,40 C 25.41,40 24.88,40.35 24.5,40.69 C 24.15,40.99 23.86,41.33 23.67,41.6 A 13.95,13.95 0 0,1 18.11,38.82 A 34.59,34.59 0 0,1 19.81,35.18 C 20.17,34.51 20.53,33.94 20.87,33.53 C 21.04,33.33 21.19,33.18 21.31,33.1 A 0.7,0.7 0 0,1 21.45,33.01 L 21.5,33 C 21.72,33 22.02,33.12 22.41,33.38 A 10.82,10.82 0 0,1 23.83,34.58 C 24.15,34.88 24.48,35.18 24.77,35.42 C 24.97,35.57 25.15,35.71 25.35,35.82 C 25.53,35.92 25.75,36 26,36 H 29 V 35 H 26 S 25.94,35 25.82,34.93 A 2.9,2.9 0 0,1 25.4,34.64 C 25.13,34.43 24.85,34.16 24.53,33.87 L 24.51,33.85 L 24.28,33.63 C 23.87,33.26 23.42,32.86 22.98,32.56 C 22.54,32.26 22.03,32 21.5,32 C 21.2,32 20.94,32.13 20.73,32.28 C 20.51,32.44 20.3,32.65 20.1,32.89 C 19.7,33.37 19.3,34.01 18.92,34.69 A 34.82,34.82 0 0,0 17.32,38.11 A 13.96,13.96 0 0,1 13.14,26 H 14 C 14.28,26 14.4,26.07 14.47,26.13 C 14.57,26.23 14.66,26.39 14.78,26.73 A 10.78,10.78 0 0,1 14.92,27.15 C 15.14,27.8 15.44,28.7 16.07,29.75 C 16.47,30.43 16.91,30.88 17.37,31.15 C 17.84,31.42 18.31,31.47 18.73,31.44 C 19.13,31.4 19.51,31.27 19.8,31.18 L 19.82,31.17 C 20.15,31.06 20.35,31 20.5,31 C 20.73,31 21.02,30.92 21.18,30.63 C 21.31,30.39 21.28,30.13 21.24,29.97 A 4.54,4.54 0 0,0 20.68,28.8 C 20.36,28.3 19.94,27.69 19.55,27.14 A 47.57,47.57 0 0,1 18.82,26.06 A 3.77,3.77 0 0,1 19.32,25.96 C 19.98,25.85 21.04,25.66 21.85,24.86 A 4.66,4.66 0 0,1 23.78,23.75 L 23.86,23.72 A 3.7,3.7 0 0,0 25.92,22.28 C 26.17,21.9 26.36,21.57 26.45,21.28 C 26.55,20.97 26.56,20.63 26.34,20.32 A 1.6,1.6 0 0,0 25.61,19.85 A 12.74,12.74 0 0,0 24.66,19.53 A 3.55,3.55 0 0,0 22.87,19.42 A 14.15,14.15 0 0,1 22.69,19.44 A 1.9,1.9 0 0,1 22.06,19.44 A 2.16,2.16 0 0,1 21.03,18.87 L 21.05,18.84 L 21.26,18.63 L 21.51,18.43 L 21.6,18.36 C 21.72,18.26 21.86,18.16 21.98,18.03 C 22.21,17.81 22.5,17.46 22.5,17 C 22.5,16.6 22.28,16.3 22.03,16.11 A 2.5,2.5 0 0,0 21.2,15.72 C 20.99,15.66 20.76,15.62 20.54,15.58 A 13.92,13.92 0 0,1 26.1,14.03 C 26.25,14.44 26.58,14.77 27,14.91 V 20 H 28 V 14.91 Z M 19.5,16.18 A 14.02,14.02 0 0,0 13.32,25 H 14 C 14.47,25 14.85,25.12 15.16,25.41 C 15.44,25.68 15.59,26.04 15.72,26.39 L 15.88,26.87 A 11,11 0 0,0 16.93,29.24 C 17.28,29.82 17.59,30.12 17.87,30.28 C 18.13,30.43 18.38,30.46 18.64,30.44 C 18.92,30.41 19.19,30.33 19.51,30.22 L 19.54,30.21 C 19.74,30.14 19.97,30.07 20.2,30.03 C 20.13,29.85 20,29.62 19.82,29.33 C 19.52,28.83 19.14,28.29 18.77,27.77 L 18.08,26.77 C 17.95,26.57 17.83,26.36 17.79,26.15 A 0.81,0.81 0 0,1 17.95,25.45 C 18.1,25.27 18.3,25.18 18.45,25.13 C 18.62,25.08 18.8,25.03 18.97,25.01 L 19.12,24.98 C 19.82,24.86 20.57,24.72 21.15,24.15 A 5.6,5.6 0 0,1 23.42,22.82 L 23.52,22.78 C 24.19,22.53 24.68,22.33 25.08,21.72 A 3.47,3.47 0 0,0 25.52,20.91 A 0.36,0.36 0 0,0 25.48,20.89 A 0.88,0.88 0 0,0 25.4,20.84 A 10.62,10.62 0 0,0 24.71,20.59 L 24.55,20.54 L 24.35,20.47 C 23.81,20.3 23.45,20.35 23.03,20.4 L 22.81,20.43 C 22.54,20.47 22.23,20.49 21.87,20.43 A 3.15,3.15 0 0,1 20.72,19.92 C 20.31,19.64 19.97,19.27 20.02,18.77 C 20.05,18.55 20.16,18.37 20.26,18.23 C 20.36,18.09 20.49,17.97 20.61,17.87 L 20.91,17.64 L 20.98,17.58 C 21.1,17.48 21.2,17.4 21.28,17.31 C 21.48,17.13 21.5,17.04 21.5,17 V 16.98 A 0.2,0.2 0 0,0 21.46,16.94 A 1.53,1.53 0 0,0 20.92,16.68 A 5.61,5.61 0 0,0 19.5,16.5 V 16.18 Z M 25.52,20.88 Z M 21.02,18.85 Z" fill="rgb(249, 94, 9)" fill-rule="evenodd"/>
<path d="M 22.99,17.985 H 24 V 15 H 23 V 18 Z M 25,19 H 26 V 15 H 25 V 19 Z M 33,25 V 17.94 A 2,2 0 1,0 32,17.94 V 24 H 25 V 25 H 33 Z M 33.5,16 A 1,1 0 1,1 31.5,16 A 1,1 0 0,1 33.5,16 Z" fill="rgb(249, 94, 9)"/>
<path d="M 39.410000000000004,27.685 C 39.75,27.46 40,27.06 40,26.5 V 23.94 A 2,2 0 1,0 39,23.94 V 26.5 C 39,26.74 38.91,26.84 38.83,26.9 C 38.73,26.97 38.59,27 38.5,27 H 23 V 28 H 38.5 C 38.75,28 39.1,27.93 39.42,27.7 Z M 40.5,22 A 1,1 0 1,1 38.5,22 A 1,1 0 0,1 40.5,22 Z" fill="rgb(249, 94, 9)"/>
<path d="M 21.99,29.985 V 31 H 39.06 A 2,2 0 1,0 39.06,30 H 22 Z M 41,31.5 A 1,1 0 1,0 41,29.5 A 1,1 0 0,0 41,31.5 Z" fill="rgb(249, 94, 9)" fill-rule="evenodd"/>
<path d="M 24.99,31.985 V 33 H 33 V 37 H 35.06 A 2,2 0 1,0 35.06,36 H 34 V 32 H 25 Z M 36,36.5 A 1,1 0 1,0 38,36.5 A 1,1 0 0,0 36,36.5 Z" fill="rgb(249, 94, 9)" fill-rule="evenodd"/>
</svg>
