<?xml version="1.0" encoding="UTF-8"?>
<!-- generated by Finnhub -->
<svg viewBox="0 0 55.5 55.5" xmlns="http://www.w3.org/2000/svg">
<path d="M 0,0 H 55.5 V 55.5 H 0 Z" fill="rgb(30, 80, 131)"/>
<path d="M 41.190000000000005,17.325 L 29.9,11 C 29,11.08 29,12 29,12 V 16.02 C 29.02,16.27 29.1,16.34 29.1,16.34 L 37.1,20.78 C 37.35,20.92 37.79,20.61 37.79,20.61 S 39.5,19.61 40.84,18.78 C 42.08,18.01 41.2,17.34 41.2,17.34 Z M 13.82,17.34 L 25.12,11 C 26.02,11.08 26,12 26,12 V 15.99 C 25.98,16.24 25.88,16.32 25.88,16.32 L 17.92,20.78 C 17.67,20.92 17.24,20.61 17.24,20.61 S 15.52,19.61 14.19,18.78 C 12.95,18.01 13.82,17.34 13.82,17.34 Z M 12,34.38 V 21.43 C 12.5,20.68 13.3,21.14 13.3,21.14 L 16.77,23.24 C 16.97,23.39 17,23.5 17,23.5 V 32.49 C 17,32.77 16.52,33 16.52,33 S 14.81,34 13.43,34.76 C 12.15,35.46 12,34.38 12,34.38 Z M 25.11,45 L 13.81,38.67 S 12.94,38.01 14.18,37.24 C 15.51,36.41 17.23,35.4 17.23,35.4 S 17.66,35.1 17.91,35.24 L 25.88,39.7 S 25.98,39.78 26,40.03 V 44.02 S 26.02,44.92 25.11,45 Z M 39,31.99 C 39.04,32.04 39.18,32.13 39.27,32.17 L 39.3,32.19 L 39.33,32.2 C 39.53,32.31 40.77,33.04 42.08,33.7 C 42.41,33.86 42.68,33.91 42.83,33.85 C 42.94,33.8 42.99,33.66 43,33.61 V 22.3 C 42.72,22 42.35,22.16 42.23,22.22 A 155.6,155.6 0 0,0 39,24.04 V 32 Z M 42.9,35 A 2.2,2.2 0 0,1 41.93,34.73 C 40.57,34.05 38.87,33.15 38.71,33.06 C 38.52,32.98 38,32.7 38,32.26 V 23.66 C 38.03,23.56 38.1,23.38 38.42,23.19 L 42.06,21.19 C 42.46,20.98 43.35,20.79 43.93,21.56 L 44,21.66 V 34.1 C 43.99,34.16 43.9,34.66 43.4,34.9 C 43.25,34.96 43.09,35 42.9,35 Z M 30,39.87 C 30,39.77 30.04,39.61 30.07,39.54 L 37.02,35.7 L 37.09,35.74 C 37.23,35.82 38.86,36.81 40.19,37.65 C 40.29,37.72 40.59,37.97 40.49,38.36 L 30.58,43.84 C 30.53,43.84 30.39,43.87 30.29,43.8 C 30.16,43.7 30.01,43.44 30,43.07 V 39.87 Z M 29,39.81 V 43.44 C 29.02,43.91 29.25,44.52 29.65,44.81 C 30.1,45.12 30.58,44.96 30.63,44.94 L 41.53,38.92 L 41.58,38.82 C 41.98,37.93 41.38,37.24 41,37 C 40.66,36.79 37.7,34.9 37.49,34.78 C 37.17,34.6 36.97,34.62 36.87,34.65 L 29.35,38.8 C 28.95,39.02 28.98,39.6 29,39.81 Z" fill="rgb(254, 254, 253)"/>
</svg>
