<?xml version="1.0" encoding="UTF-8"?>
<!-- generated by Finnhub -->
<svg viewBox="0 0 55.5 55.5" xmlns="http://www.w3.org/2000/svg">
<path d="M 0,0 H 55.5 V 55.5 H 0 Z" fill="rgb(239, 242, 248)"/>
<path d="M 11.99,29.255 A 4.1,4.1 0 0,1 8.1,32 C 5.84,32 4,30.2 4,28 S 5.84,24 8.1,24 A 4.1,4.1 0 0,1 12,26.73 L 9.91,27.41 A 2,2 0 1,0 9.91,28.59 L 12,29.27 Z M 11.25,32 H 13.35 L 13.85,30.5 H 17.25 L 17.74,32 H 19.84 L 17.2,24 H 13.9 L 11.25,32 Z M 16.58,28.5 L 15.55,25.37 L 14.51,28.5 H 16.58 Z M 22,32 V 27.61 L 25,32 H 27 V 24 H 25 V 28.38 L 22,24 H 20 V 32 H 22 Z M 28,24 H 34.5 V 26 H 30 V 27 H 33.5 V 29 H 30 V 32 H 28 V 24 Z M 37,24 H 35 V 32 H 37 V 24 Z M 44.5,24 H 37.5 V 26 H 40 V 32 H 42 V 26 H 44.5 V 24 Z M 45,24 H 52 V 26 H 47 V 27 H 51 V 29 H 47 V 30 H 52 V 32 H 45 V 24 Z" fill="rgb(43, 16, 90)" fill-rule="evenodd"/>
<circle cx="27.5" cy="28.5" r="1.5" fill="rgb(239, 242, 248)"/>
<path d="M 28.49,28.485 A 1,1 0 1,1 26.5,28.5 A 1,1 0 0,1 28.5,28.5 Z" fill="rgb(158, 6, 37)"/>
</svg>
