<?xml version="1.0" encoding="UTF-8"?>
<!-- generated by Finnhub -->
<svg viewBox="0 0 55.5 55.5" xmlns="http://www.w3.org/2000/svg">
<path d="M 0,0 H 55.5 V 55.5 H 0 Z" fill="rgb(239, 242, 248)"/>
<path d="M 12.99,33.985 L 17.186,22 H 18.765 L 21,28.322 V 32.81 L 20.706,31 H 15 L 14,34 H 13 Z" fill="rgb(235, 107, 2)"/>
<path d="M 10.17,21.989 C 12.225,22.004 13.4,22.85 14,23.451 L 13.297,24.058 C 11.99,22.876 10.73,23 10.18,23 C 6.599,23 4.98,26.47 5,27.829 C 5.06,32.03 8.94,33 10.33,33 C 11.56,33 12.304,32.541 12.73,32.305 L 12.031,33.743 C 10.065,34.2 8.421,33.826 7.844,33.582 C 6.466,33.058 3.898,31.27 4.004,27.829 C 4.131,23.639 7.671,22.004 10.18,22.004 Z" fill="rgb(241, 149, 2)"/>
<path d="M 7.99,27.971 L 9.978,26 L 12,27.986 L 9.978,30 L 8,27.986 Z" fill="rgb(241, 149, 2)"/>
<path d="M 15.274000000000001,29.985 L 17.994,23 L 20.706,30 H 15.284 Z" fill="rgb(239, 242, 248)"/>
<path d="M 22.02,33.99 V 22 H 23 L 30,31.998 V 31 C 30.351,32.137 30.552,32.225 30.997,32.698 V 34.005 H 30 L 23,24 V 34.005 H 22.03 Z M 30,25.142 V 22 H 30.987 V 23.443 C 30.611,23.751 30.097,24.623 30,25.142 Z" fill="rgb(230, 55, 11)"/>
<path d="M 36.207,21.985 C 38.392,22 40.06,23.344 40.622,23.992 L 39.954,24.692 C 38.682,23.326 37.498,23.004 36.09,23.004 C 33.535,23.004 31,25.074 31,27.774 C 31,31.053 33.636,33.004 36.217,33.004 C 38.1,33.004 39.614,31.81 40,31.254 V 28 H 36 V 27 H 40.886 L 41,31.562 C 40.276,32.856 38.224,34 36.217,34 C 33.24,34 29.842,31.908 30.006,27.774 C 30.166,23.734 33.453,22 36.217,22 Z" fill="rgb(180, 1, 3)"/>
<circle cx="46" cy="28" r="6" fill="rgb(180, 1, 3)"/>
<circle cx="46" cy="28" r="5" fill="rgb(239, 242, 248)"/>
<path d="M 43.99,27.971 L 45.978,26 L 48,27.986 L 45.978,30 L 44,27.986 Z" fill="rgb(180, 1, 3)"/>
</svg>
