<?xml version="1.0" encoding="UTF-8"?>
<!-- generated by Finnhub -->
<svg viewBox="0 0 55.5 55.5" xmlns="http://www.w3.org/2000/svg">
<path d="M 0,0 H 55.5 V 55.5 H 0 Z" fill="rgb(44, 44, 43)"/>
<path d="M 15.99,9.985 V 46 H 40 V 10 H 16 Z M 28.12,19.04 L 23.62,26 H 20.92 L 28.12,14.9 L 35.25,26 H 32.7 L 28.11,19.04 Z M 35.25,32 H 31.97 L 28.12,26 H 24.85 L 28.12,20.87 L 35.25,32 Z M 24.1,27 H 27.46 L 35.24,39 H 28 V 32 H 20.91 L 24.11,27 Z M 27,33 V 39 H 21 L 24.76,33 H 27 Z M 28,45 V 40 H 37.13 L 32.55,33 H 37.13 L 33.28,27 H 37.13 L 28.13,12.9 L 18.94,27 H 22.87 L 18.94,33 H 23.53 L 18.93,40 H 27 V 45 H 17 V 11 H 39 V 45 H 28 Z" fill="rgb(200, 171, 102)"/>
</svg>
