<?xml version="1.0" encoding="UTF-8"?>
<!-- generated by Finnhub -->
<svg viewBox="0 0 55.5 55.5" xmlns="http://www.w3.org/2000/svg">
<path d="M 0,0 H 55.5 V 55.5 H 0 Z" fill="rgb(239, 242, 248)"/>
<path d="M 25.549999999999997,24.755 V 26.34 H 25.74 A 0.92,0.92 0 0,1 26.52,25.34 H 28 V 30.76 C 28,31.05 27.77,31.28 27.47,31.28 H 27.34 V 31.46 H 29.46 V 31.28 H 29.26 A 0.52,0.52 0 0,1 28.73,30.76 V 25.35 H 30.28 C 30.55,25.39 31.09,25.65 31.06,26.34 H 31.24 V 24.77 H 31.06 A 0.39,0.39 0 0,1 30.7,25 H 26.1 A 0.39,0.39 0 0,1 25.74,24.77 H 25.56 Z M 9.9,25.2 H 10 V 27.29 H 9.9 C 9.78,26.65 9.17,25.36 7.61,25.36 C 5.67,25.36 4.86,27.36 4.86,29.74 C 4.86,32.13 6.29,33.63 7.61,33.63 A 3.1,3.1 0 0,0 9.82,32.53 L 9.9,32.79 A 2.95,2.95 0 0,1 7.6,34 C 6.15,34 4,33.12 4,29.74 C 4,26.37 6.17,25 7.61,25 C 8.26,25 8.73,25.2 9.07,25.33 C 9.49,25.51 9.73,25.6 9.9,25.2 Z M 12.19,31.5 H 10.57 V 31.35 H 10.87 C 11.04,31.35 11.24,31.12 11.3,30.95 L 13.23,25 H 13.8 L 15.96,31.1 C 16.01,31.25 16.16,31.35 16.33,31.35 H 16.57 V 31.5 H 14.4 V 31.35 H 14.75 A 0.4,0.4 0 0,0 15.13,30.83 L 14.47,29 H 12.3 L 11.7,30.84 A 0.4,0.4 0 0,0 12.07,31.35 H 12.2 V 31.5 Z M 13.33,25.8 L 14.36,28.7 H 12.4 L 13.34,25.8 Z M 17.27,25 V 25.19 H 17.46 C 17.76,25.19 18,25.43 18,25.72 V 30.81 C 18,31.1 17.75,31.34 17.46,31.34 H 17.27 V 31.5 H 19.35 V 31.34 H 19.16 A 0.53,0.53 0 0,1 18.64,30.81 V 28.45 C 18.74,28.47 19.04,28.52 19.35,28.52 H 19.37 C 19.81,28.52 21.53,28.52 21.53,26.65 C 21.53,25.35 20.41,25.01 19.85,25 H 17.27 Z M 18.66,25.32 V 28.22 C 18.78,28.26 19.12,28.34 19.52,28.34 C 20.02,28.34 20.78,28.02 20.78,26.72 S 19.56,25.04 18.66,25.32 Z M 21.66,29.92 V 31.5 H 21.82 C 21.82,31.37 21.86,31.1 22,31.1 C 22.04,31.1 22.08,31.13 22.13,31.17 C 22.29,31.29 22.6,31.5 23.58,31.5 C 24.91,31.5 25.36,30.59 25.36,29.76 S 24.35,28.31 23.79,28.03 S 22.43,27.33 22.43,26.55 C 22.43,25.75 22.89,25.21 23.71,25.21 C 24.53,25.21 24.87,25.83 24.87,26.36 H 25.07 V 25 H 24.91 C 24.91,25.07 24.87,25.21 24.67,25.21 A 0.49,0.49 0 0,1 24.44,25.15 C 24.31,25.08 24.14,25 23.71,25 C 23.02,25 21.8,25.46 21.8,26.75 C 21.8,27.86 22.78,28.34 23.18,28.53 L 23.31,28.6 L 23.45,28.67 C 23.84,28.87 24.75,29.32 24.75,30.17 C 24.75,31.16 23.73,31.31 23.41,31.31 C 23.08,31.31 21.81,30.96 21.81,29.91 H 21.65 Z M 39,28.25 C 39,30.05 37.43,31.5 35.5,31.5 S 32,30.04 32,28.25 C 32,26.45 33.57,25 35.5,25 S 39,26.46 39,28.25 Z M 38.13,28.25 C 38.13,29.87 37.31,31.19 35.5,31.19 S 32.87,29.87 32.87,28.25 C 32.87,26.63 33.69,25.31 35.5,25.31 S 38.13,26.63 38.13,28.25 Z M 46.66,25 H 45 V 25.18 H 45.23 C 45.52,25.18 45.75,25.41 45.75,25.68 V 30.41 L 41.25,25 H 40 V 25.22 H 40.42 L 41,25.9 V 30.8 C 41,31.08 40.82,31.3 40.52,31.3 H 40.3 V 31.5 H 41.96 V 31.3 H 41.77 A 0.52,0.52 0 0,1 41.24,30.8 V 26.18 L 45.81,31.5 H 46 V 31.47 V 31.49 V 25.69 C 46,25.41 46.18,25.19 46.47,25.19 H 46.67 V 25 Z M 47,25 V 25.27 H 47.25 C 47.6,25.27 48,25.57 48,25.92 V 33.12 C 48,33.49 47.6,33.78 47.25,33.78 H 47 V 34 H 51.6 L 52,32.59 H 51.77 L 51.7,32.82 C 51.55,33.32 51.1,33.65 50.6,33.65 H 49.2 A 0.52,0.52 0 0,1 48.68,33.13 V 29.73 H 50.32 C 50.75,29.73 51.09,30.07 51.09,30.5 V 30.6 H 51.32 V 28.52 H 51.09 V 28.65 C 51.09,29.08 50.75,29.43 50.32,29.43 H 48.68 V 25.39 H 50.58 C 51.07,25.39 51.48,25.79 51.48,26.3 V 26.58 H 51.72 V 25 H 47 Z" fill="rgb(16, 22, 92)" fill-rule="evenodd"/>
<path d="M 10.99,31.685 H 46 V 32 H 11 Z" fill="rgb(16, 22, 92)"/>
<path d="M 28.99,17.985 L 17,24 H 18.64 L 29,18.97 V 18 Z" fill="rgb(210, 160, 63)"/>
<path d="M 28.99,17.985 L 41,24 H 39.36 L 29,18.97 V 18 Z" fill="rgb(199, 137, 15)"/>
<path d="M 29.0,19.285 L 37.6,24 H 36.04 L 29,20.1 L 22,24 H 20.43 L 29.01,19.3 Z" fill="rgb(16, 22, 92)"/>
<path d="M 28.99,23.985 H 24 L 29,20.5 V 24 Z" fill="rgb(210, 160, 63)"/>
<path d="M 28.99,23.985 H 34 L 29,20.5 V 24 Z" fill="rgb(199, 137, 15)"/>
<path d="M 10.99,32.985 H 46 V 34 H 11 Z" fill="rgb(210, 160, 63)" opacity=".3"/>
</svg>
