<?xml version="1.0" encoding="UTF-8"?>
<!-- generated by Finnhub -->
<svg viewBox="0 0 55.5 55.5" xmlns="http://www.w3.org/2000/svg">
<path d="M 0,0 H 55.5 V 55.5 H 0 Z" fill="rgb(137, 29, 63)"/>
<path d="M 27.549999999999997,37.425 C 28.81,37.44 30.16,36.96 31.24,36.5 L 31.82,38 H 41.75 C 41.5,38.34 41.24,38.68 40.96,39 H 32.21 L 33.38,42 H 37.65 A 17,17 0 0,1 36,43 H 33.76 L 33.99,43.58 A 14.99,14.99 0 0,1 27.56,45 C 18.41,45 11,37.39 11,28 S 18.41,11 27.56,11 C 29.68,11 31.22,11.2 33.08,11.94 L 32.67,13 H 36 A 17,17 0 0,1 37.64,14 H 32.27 L 30.71,18 H 41.74 C 41.98,18.32 42.2,18.66 42.41,19 H 30.33 L 30.32,19.03 L 30.24,19 H 24.76 A 9.26,9.26 0 0,0 19.76,23 H 44.26 C 44.36,23.33 44.45,23.66 44.53,24 H 19.23 A 9.62,9.62 0 0,0 18.36,28 H 45 C 45,28.34 44.99,28.67 44.97,29 H 18.41 A 9.55,9.55 0 0,0 19.75,33 H 44.25 C 44.15,33.34 44.03,33.67 43.91,34 H 20.45 A 9.1,9.1 0 0,0 27.56,37.44 Z" fill="rgb(254, 254, 253)"/>
</svg>
