<?xml version="1.0" encoding="UTF-8"?>
<!-- generated by Finnhub -->
<svg viewBox="0 0 55.5 55.5" xmlns="http://www.w3.org/2000/svg">
<path d="M 0,0 H 55.5 V 55.5 H 0 Z" fill="rgb(211, 59, 36)"/>
<path d="M 28.99,29.375999999999998 V 30.004 H 30 V 26 H 29 V 26.723 C 29,27.016 28.751,27.001 28.751,27.001 L 28,26.99 V 25 H 30 S 31,24.99 31,26.002 H 32 V 23.004 H 26 V 25 L 27,25 V 31 L 26,31.004 V 33.004 H 32 V 30.004 H 31 C 31,31.158 30,31.004 30,31.004 L 28,31 V 28.991 L 28.648,29.005 S 29,28.992 29,29.391 Z M 12.864,30.005 H 15.158 L 15.562,31 H 14.632 L 14.64,33 H 18 V 31 H 17 L 15,25 H 16 L 16.002,23.004 H 12 V 25 H 13 L 11.004,31 L 10.004,30.992 V 32.995 L 13.602,33.004 V 31 H 12.619 L 12.864,30.005 Z" fill="rgb(245, 247, 251)"/>
<path d="M 12.989,28.987 L 14.002,26 L 14.999,29.002 H 12.999 Z" fill="rgb(211, 59, 36)"/>
<path d="M 7.99,26.985 H 9 V 23 H 8 V 24 S 7.435,22.937 6.533,23 C 5.632,23.063 4.02,23.627 4,28.483 C 3.98,33.338 6.592,32.983 6.592,32.983 S 9.372,33.458 9,29 H 8 S 8.259,31.035 6.67,31.057 C 5.18,31.078 5.235,28.139 5.235,28.139 S 4.985,24.929 6.612,24.991 C 8.239,25.054 8,27 8,27 Z M 51,26 H 52 V 23 H 51 V 23.673 S 49.683,22.916 48.611,23 C 47.541,23.084 46.475,23.746 46.201,25.115 C 45.927,26.483 46.978,27.462 46.978,27.462 S 48.728,28.548 49.726,28.966 C 50.962,29.484 50.484,30.499 50.484,30.499 S 50.167,31.049 49.094,31.063 C 47.5,31.084 47,30 47,30 H 46 V 33 H 47 V 32.204 S 48.126,33.084 49.496,33 C 50.866,32.916 51.836,31.821 51.936,31 C 52.036,30.179 52.186,29.247 50.916,28.131 C 49.646,27.015 47.086,26.608 47.66,25.534 C 47.66,25.534 47.87,24.87 48.894,24.895 C 50.438,24.935 51,26 51,26 Z M 24,26 L 25,26.01 V 23.01 H 24 V 23.69 S 22.664,22.926 21.593,23.01 C 20.523,23.095 19.456,23.764 19.183,25.132 C 18.908,26.5 19.959,27.479 19.959,27.479 S 21.71,28.565 22.709,28.983 C 23.944,29.501 23.465,30.516 23.465,30.516 S 23.149,31.066 22.075,31.08 C 20.483,31.102 20,30 20,30 H 19 V 33 L 20,33.017 V 32.221 S 21.107,33.095 22.477,33.011 C 23.847,32.926 24.818,31.831 24.918,31.011 C 25.018,30.189 25.168,29.264 23.898,28.148 C 22.627,27.032 20.068,26.625 20.641,25.551 C 20.641,25.551 20.852,24.888 21.876,24.913 C 23.42,24.95 24,26 24,26 Z M 35,31 V 33.004 H 39 V 31 H 37.614 V 28 L 40,25 H 41.002 V 23.004 L 38,23 V 24.996 L 39,25 L 37,27.496 L 35,25 H 36 V 23.032 L 33.002,23.03 V 25 H 34 L 36.337,28 V 31 H 35 Z M 43,25 V 23.001 H 45 V 25.683 S 45.099,26.925 43,27.001 V 26.298 S 43.913,26.196 44,25.721 V 24.998 L 43,25 Z" fill="rgb(245, 247, 251)"/>
</svg>
