<?xml version="1.0" encoding="UTF-8"?>
<!-- generated by Finnhub -->
<svg viewBox="0 0 55.5 55.5" xmlns="http://www.w3.org/2000/svg">
<path d="M 0,0 H 55.5 V 55.5 H 0 Z" fill="rgb(239, 242, 248)"/>
<path d="M 5.99,31.985 V 24 C 6.93,24.4 8.05,24.16 8.5,24 V 32 H 6 Z M 28,24 H 30.5 V 24.76 C 30.75,24.51 31.3,24 32.42,24 C 32.56,24 32.87,24.03 33,24.16 V 26.13 C 31.58,25.87 30.5,26.87 30.5,27.75 V 32 H 28 V 24 Z M 14.68,26.54 H 17 C 16.88,25.7 16,24 13.42,24 C 10.19,24 10.15,26.28 10.15,26.54 V 26.56 C 10.15,26.86 10.15,28.18 13.27,28.74 C 13.84,28.78 15,29.01 15,29.55 C 15,29.71 14.72,30.02 13.68,30.02 C 12.63,30.02 12.18,29.44 12.08,29.15 H 10 C 10.05,30.1 10.82,32 13.42,32 C 16.67,32 17,29.8 17,29.38 V 29.32 C 17,28.85 17.02,27.62 14.03,27.02 C 13.48,26.92 12.39,26.64 12.39,26.36 C 12.39,26 13.24,25.96 13.54,25.96 C 13.84,25.96 14.68,26.17 14.68,26.54 Z M 26,28 A 4,4 0 1,1 18,28 A 4,4 0 0,1 26,28 Z M 23.5,28 C 23.5,29.1 22.83,30 22,30 S 20.5,29.1 20.5,28 S 21.17,26 22,26 S 23.5,26.9 23.5,28 Z M 34.26,26.56 C 34.43,25.7 35.5,24 38.4,24 C 41.3,24 42,25.62 42,26.43 V 32 H 39.5 V 31.3 L 39.23,31.44 C 38.79,31.68 38.21,32 37.35,32 C 36.05,32 34,31.43 34,29.48 C 34,27.54 36.88,27 37.82,27 S 39.5,26.9 39.5,26.43 C 39.5,25.99 38.9,26 38.4,26 H 38.27 C 37.75,26 36.59,26.05 36.59,26.63 L 34.26,26.56 Z M 39.5,28.4 V 29.25 C 39.28,29.53 38.6,30.1 37.67,30.1 S 36.5,29.69 36.5,29.48 C 36.5,29.3 36.75,28.88 37.67,28.75 C 38.6,28.61 39.27,28.46 39.5,28.4 Z M 42,24 H 44.55 L 46.49,29.49 L 48.47,24 H 51 L 47.1,34.04 A 3.14,3.14 0 0,1 44.15,36 H 43.14 V 34.05 H 43.54 C 44.22,34.05 44.83,33.63 45.04,33.01 L 45.31,32.22 L 42,24 Z" fill="rgb(18, 35, 44)" fill-rule="evenodd"/>
<circle cx="7.25" cy="22.25" r="1.25" fill="rgb(45, 192, 211)"/>
</svg>
