<?xml version="1.0" encoding="UTF-8"?>
<!-- generated by Finnhub -->
<svg viewBox="0 0 55.5 55.5" xmlns="http://www.w3.org/2000/svg">
<path d="M 0,0 H 55.5 V 55.5 H 0 Z" fill="rgb(132, 0, 39)"/>
<path d="M 13.99,22.665 V 24.63 H 13.55 A 3.33,3.33 0 0,0 10.78,23.07 C 8.84,23.03 6.96,24.63 7,28.22 C 7.04,31.82 8.95,33.07 10.78,33.07 C 12.24,33.07 13.42,32.21 13.83,31.77 L 14,31.9 V 33.07 C 13.15,33.81 11.39,34 10.78,34 C 10.18,34 4.12,34.21 4,28.52 C 3.88,22.82 8.38,22.04 10.6,22 A 6.82,6.82 0 0,1 14,22.68 Z" fill="rgb(254, 254, 253)"/>
<path d="M 18.49,31.985 C 20.99,32 23,30.4 23,28 C 23,25.21 20.99,24 18.5,24 S 14,25.4 14,28 C 14,30.2 15.37,32 18.5,32 Z M 18.5,31.35 C 19.88,31.35 21,30.02 21,28.02 C 21,25.7 19.88,24.69 18.5,24.69 S 16,25.86 16,28.02 C 16,29.86 16.76,31.35 18.5,31.35 Z M 32.5,32 C 34.99,32 37,30.4 37,28 C 37,25.21 34.99,24 32.5,24 S 28,25.4 28,28 C 28,30.2 29.37,32 32.5,32 Z M 32.5,31.35 C 33.88,31.35 35,30.02 35,28.02 C 35,25.7 33.88,24.69 32.5,24.69 S 30,25.86 30,28.02 C 30,29.86 30.76,31.35 32.5,31.35 Z" fill="rgb(254, 254, 253)" fill-rule="evenodd"/>
<path d="M 23.509999999999998,31.985 C 23.72,28 23.52,24 23.52,24 H 25.52 C 25.22,28.2 25.37,31 25.37,31 H 28 V 32 H 23.52 Z M 37.4,24 C 37.39,28.76 37.25,31.32 37.18,32 H 38.36 C 38.26,31.2 38.23,27.95 38.23,26.43 L 43.5,32 H 44.47 C 44.45,28.34 44.6,25.14 44.67,24 H 43.5 C 43.66,24.86 43.67,28.03 43.65,29.5 L 38.48,24 H 37.41 Z M 47.77,29.05 L 45.1,24 H 46.96 L 48.87,27.96 L 50.91,24 H 52 L 49.14,28.82 L 49.27,32 H 47.6 L 47.78,29.05 Z" fill="rgb(254, 254, 253)"/>
</svg>
