<?xml version="1.0" encoding="UTF-8"?>
<!-- generated by Finnhub -->
<svg viewBox="0 0 55.5 55.5" xmlns="http://www.w3.org/2000/svg">
<path d="M 0,0 H 55.5 V 55.5 H 0 Z" fill="rgb(239, 242, 248)"/>
<path d="M 21.99,33.985 L 25.63,24.86 L 35.9,22 L 33.23,29.57 C 33.08,30 33.49,30.42 33.95,30.31 L 44.48,27.71 C 45.44,27.47 46.28,28.36 45.92,29.23 L 42.32,38 L 42.02,35.23 C 41.97,34.89 41.62,34.65 41.26,34.73 L 29.06,37.75 C 28.6,37.86 28.19,37.47 28.32,37.05 L 29.57,32.72 C 29.69,32.28 29.26,31.89 28.8,32.02 L 22,34 Z" fill="rgb(76, 77, 112)"/>
<path d="M 38.74,13.084999999999999 C 42.45,15.74 40.79,20.68 39.37,23 C 39.77,21.06 39.89,17.72 37.53,16.6 C 33.86,14.85 25.58,19.8 20.4,25.34 C 15.5,30.58 13.07,36.3 15.5,38.15 C 18.57,40.48 23.46,38.35 27.13,36.99 C 22.85,41.06 16.73,42.81 13.67,41.65 C 10.62,40.48 6.95,34.07 14.29,24.75 C 22.24,14.65 33.86,9.61 38.75,13.1 Z" fill="url(#a)"/>
<defs>
<linearGradient id="a" x1="35.08" x2="18.62" y1="12.52" y2="42.92" gradientUnits="userSpaceOnUse">
<stop stop-color="rgb(184, 212, 234)" offset="0"/>
<stop stop-color="rgb(95, 120, 144)" offset="1"/>
</linearGradient>
</defs>
</svg>
