<?xml version="1.0" encoding="UTF-8"?>
<!-- generated by Finnhub -->
<svg viewBox="0 0 55.5 55.5" xmlns="http://www.w3.org/2000/svg">
<path d="M 0,0 H 55.5 V 55.5 H 0 Z" fill="rgb(239, 242, 248)"/>
<path d="M 50.04,21.985 H 51.99 V 22.01 H 52 V 32 L 51.98,32.01 H 50.01 L 50,32 V 22 H 50.05 Z M 27.99,22 H 26 L 25.99,22.01 V 23.98 L 26,24 H 28 L 28.01,23.98 V 22.01 L 28,22 Z M 32.01,24.84 C 32.49,24.7 32.84,24.66 33.37,24.7 C 34.32,24.78 35.14,25.18 35.61,25.94 C 35.77,26.2 35.88,26.51 35.95,26.86 C 35.98,27.03 36,27.3 36,27.66 V 29.38 L 35.97,29.66 A 2.64,2.64 0 0,1 35.35,31.09 C 34.87,31.64 34.14,31.93 33.37,31.99 H 32.74 A 2.82,2.82 0 0,1 30.48,30.9 C 30.23,30.54 30.08,30.11 30.03,29.67 A 4.73,4.73 0 0,1 30,29.07 A 24809.7,24809.7 0 0,1 30.02,22 H 31.98 L 32,22.02 V 24.84 H 32.01 Z M 32.01,28.34 V 29.44 C 32.01,29.98 32.14,30.4 32.77,30.5 A 1.5,1.5 0 0,0 33.23,30.5 C 33.85,30.4 33.99,29.98 33.99,29.44 A 203.8,203.8 0 0,0 33.99,27.26 C 33.99,26.71 33.85,26.3 33.23,26.2 A 1.48,1.48 0 0,0 32.77,26.2 C 32.14,26.3 32.01,26.71 32.01,27.26 V 28.35 Z M 47.99,22 H 46 L 45.99,22.01 V 32 L 46,32.01 H 48 L 48.01,32 V 22 L 48,21.99 Z M 10,29.25 C 10,29.97 9.8,30.75 9.23,31.28 C 8.76,31.71 8.13,31.92 7.44,31.98 C 6.02,32.1 4.68,31.66 4.19,30.41 A 2.74,2.74 0 0,1 4.01,29.43 V 27.67 C 4.01,27.1 4.14,26.55 4.48,26.08 C 4.98,25.38 5.81,25.06 6.75,25.01 C 7.07,24.99 7.39,25.01 7.71,25.05 C 8.1,25.1 8.48,25.22 8.81,25.41 C 9.73,25.94 9.99,26.88 10,27.78 V 27.79 H 7.99 C 8.01,27.26 7.99,26.59 7.28,26.47 A 1.67,1.67 0 0,0 6.62,26.49 C 6.06,26.62 6.01,27.09 6,27.53 V 29.56 C 6.07,30.02 6.18,30.46 6.78,30.56 C 7.42,30.64 7.74,30.36 7.91,29.86 C 7.97,29.66 8,29.46 7.99,29.25 V 29.24 H 9.99 V 29.25 Z M 18,29.71 C 18,29.97 17.97,30.21 17.87,30.46 C 17.5,31.42 16.47,31.92 15.34,31.99 C 14.39,32.05 13.38,31.86 12.73,31.22 C 12.31,30.82 12.1,30.32 12.03,29.78 C 12.01,29.66 12,29.48 12,29.24 V 27.6 C 12.01,26.58 12.52,25.63 13.67,25.22 A 4.27,4.27 0 0,1 15.29,25.02 C 16.21,25.06 17.05,25.38 17.54,26.06 C 17.79,26.4 17.94,26.82 17.98,27.23 L 18,27.73 A 217.12,217.12 0 0,0 17.99,29.01 H 14 V 29.71 C 14,30.25 14.34,30.67 14.96,30.71 C 15.38,30.74 15.88,30.46 15.98,30.04 C 16,29.94 16,29.85 16,29.72 L 16.02,29.71 H 17.99 V 29.72 Z M 14,27.84 H 16 C 16.03,26.96 15.88,26.24 14.88,26.32 C 14.25,26.36 14.03,26.74 14.01,27.26 A 12.83,12.83 0 0,0 14.02,27.84 Z M 44,29.71 C 44,29.97 43.97,30.21 43.87,30.46 C 43.5,31.42 42.47,31.92 41.34,31.99 C 40.39,32.05 39.38,31.86 38.73,31.22 C 38.31,30.82 38.1,30.32 38.03,29.78 C 38.01,29.66 38,29.48 38,29.24 V 27.6 C 38.01,26.58 38.52,25.63 39.67,25.22 A 4.27,4.27 0 0,1 41.29,25.02 C 42.21,25.06 43.05,25.38 43.54,26.06 C 43.79,26.4 43.94,26.82 43.98,27.23 L 44,27.73 A 217.12,217.12 0 0,0 43.99,29.01 H 40 V 29.71 C 40,30.25 40.34,30.67 40.96,30.71 C 41.38,30.74 41.88,30.46 41.98,30.04 C 42,29.94 42,29.85 42,29.72 L 42.02,29.71 H 43.99 V 29.72 Z M 40,27.84 H 42 C 42.03,26.96 41.88,26.24 40.88,26.32 C 40.25,26.36 40.03,26.74 40.01,27.26 A 12.83,12.83 0 0,0 40.02,27.84 Z M 23.98,26.6 C 23.68,26.58 23.4,26.6 23.13,26.64 C 22.19,26.81 22,27.49 22,28.2 A 8594.25,8594.25 0 0,1 22,32 H 20 A 28735.7,28735.7 0 0,1 20.02,27.45 C 20.08,26.52 20.6,25.65 21.65,25.25 C 22.04,25.11 22.45,25.02 22.89,25.01 A 23.92,23.92 0 0,1 24,25.01 V 26.6 H 23.99 Z M 27.99,25 H 26 V 32 H 28 V 25 H 27.99 Z" fill="rgb(77, 79, 83)"/>
</svg>
