<?xml version="1.0" encoding="UTF-8"?>
<!-- generated by Finnhub -->
<svg viewBox="0 0 55.5 55.5" xmlns="http://www.w3.org/2000/svg">
<path d="M 0,0 H 55.5 V 55.5 H 0 Z" fill="rgb(1, 172, 237)"/>
<path d="M 28.029999999999998,10.985 C 36.78,11 43.98,17.55 44.97,26 H 40.85 A 13,13 0 1,0 40.65,31 H 44.82 C 43.4,38.96 36.42,45 28.04,45 A 17.02,17.02 0 0,1 11,28 C 11,18.61 18.63,11 28.04,11 Z M 28,40 A 12,12 0 0,0 39.62,31 H 35.61 A 7.18,7.18 0 0,1 28.87,35.02 C 24.44,35.02 20.61,30.32 19.29,27.84 C 23.67,22.1 26.84,21.28 28.87,21.28 C 33.38,21.43 35.27,24.28 35.76,26 H 39.83 A 12,12 0 1,0 28,40 Z M 30.67,24.2 L 34.48,28.16 H 45 V 28.66 H 34.48 L 30.68,32.57 L 30.31,32.22 L 33.78,28.66 H 29.83 L 26.53,31.93 L 26.18,31.58 L 29.12,28.66 H 25.78 L 23.51,31.13 L 23.14,30.79 L 25.1,28.66 H 23 V 28.16 H 25.1 L 23.14,26.06 L 23.51,25.72 L 25.78,28.16 H 29.13 L 26.18,25.11 L 26.54,24.76 L 29.83,28.16 H 33.79 L 30.31,24.55 L 30.67,24.2 Z" fill="rgb(254, 254, 253)"/>
</svg>
