<?xml version="1.0" encoding="UTF-8"?>
<!-- generated by Finnhub -->
<svg viewBox="0 0 55.5 55.5" xmlns="http://www.w3.org/2000/svg">
<path d="M 0,0 H 55.5 V 55.5 H 0 Z" fill="rgb(239, 242, 248)"/>
<path d="M 24.336,27.985 L 15.001,12 L 29.005,20.002 L 24.346,28 Z" fill="rgb(246, 145, 14)"/>
<path d="M 42.99,27.985 H 24.346 L 29.004,20.002 L 43,28 Z" fill="rgb(228, 46, 29)"/>
<path d="M 42.99,27.985 L 29.004,20.002 L 33.671,12 L 43,28 Z" fill="rgb(206, 23, 29)"/>
<path d="M 28.994999999999997,19.987 L 15,12 H 33.666 L 29.003,20.002 Z" fill="rgb(231, 86, 36)"/>
<path d="M 14.99,43.985 L 24.346,28 L 29.004,35.998 L 15,44 Z" fill="rgb(248, 166, 11)"/>
<path d="M 28.994,35.983 L 24.346,28 H 43 L 29.004,35.998 Z" fill="rgb(231, 86, 36)"/>
<path d="M 42.99,27.985 L 33.67,44 L 29.004,35.998 L 42.999,28 Z" fill="rgb(206, 23, 29)"/>
<path d="M 33.660000000000004,43.985 H 15 L 29.004,35.998 L 33.671,44 Z" fill="rgb(228, 46, 29)"/>
</svg>
