<?xml version="1.0" encoding="UTF-8"?>
<!-- generated by Finnhub -->
<svg viewBox="0 0 55.5 55.5" xmlns="http://www.w3.org/2000/svg">
<path d="M 0,0 H 55.5 V 55.5 H 0 Z" fill="rgb(150, 26, 45)"/>
<path d="M 8.902000000000001,27.375 C 8.826,28.962 9.387,30.474 10.492,31.642 L 11.146,32.336 L 14.069,29.829 L 13.414,29.138 A 2.089,2.089 0 0,1 12.838,27.587 C 12.868,27.014 13.134,26.489 13.581,26.106 L 20.308,20.333 A 2.302,2.302 0 0,1 21.934,19.787 A 2.29,2.29 0 0,1 23.494,20.495 L 24.318,21.365 L 27.24,18.857 L 26.419,17.987 A 6.26,6.26 0 0,0 22.144,16.047 A 6.332,6.332 0 0,0 17.679,17.552 L 10.952,23.322 C 9.72,24.374 9,25.819 8.912,27.39 Z M 34.053,28.647 C 34.142,27.077 33.578,25.564 32.473,24.394 L 31.41,23.27 L 28.49,25.775 L 29.552,26.9 C 29.954,27.328 30.162,27.877 30.128,28.448 A 2.085,2.085 0 0,1 29.388,29.929 L 22.655,35.704 A 2.313,2.313 0 0,1 21.03,36.251 A 2.286,2.286 0 0,1 19.472,35.545 L 18.524,34.541 L 15.599,37.046 L 16.55,38.05 C 17.655,39.22 19.174,39.911 20.823,39.99 A 6.338,6.338 0 0,0 25.287,38.483 L 32.014,32.713 C 33.245,31.663 33.968,30.216 34.054,28.646 Z M 21.891,27.356 C 21.805,28.928 22.366,30.438 23.471,31.609 L 24.126,32.299 L 27.048,29.793 L 26.393,29.102 A 2.084,2.084 0 0,1 25.817,27.553 C 25.847,26.98 26.113,26.455 26.56,26.07 L 33.29,20.3 A 2.304,2.304 0 0,1 34.916,19.75 A 2.302,2.302 0 0,1 36.473,20.456 L 37.297,21.326 L 40.217,18.821 L 39.393,17.949 C 38.288,16.779 36.769,16.09 35.12,16.009 A 6.338,6.338 0 0,0 30.656,17.516 L 23.929,23.286 C 22.702,24.341 21.977,25.786 21.891,27.356 Z M 45.453,24.362 L 44.391,23.238 L 41.468,25.742 L 42.53,26.864 A 2.079,2.079 0 0,1 42.363,29.896 L 35.636,35.669 A 2.315,2.315 0 0,1 34.01,36.219 A 2.284,2.284 0 0,1 32.453,35.51 L 31.503,34.503 L 28.58,37.01 L 29.53,38.015 C 30.635,39.185 32.155,39.874 33.803,39.958 A 6.336,6.336 0 0,0 38.268,38.453 L 44.998,32.683 C 47.528,30.508 47.733,26.775 45.453,24.363 Z M 9.386,20.367 L 10.271,21.239 L 10.799,21.773 L 10.807,21.766 L 10.814,21.776 L 11.287,21.34 L 13.674,19.216 L 13.636,19.18 L 13.643,19.173 L 13.059,18.597 L 12.263,17.79 A 2.038,2.038 0 0,0 9.483,17.73 A 1.81,1.81 0 0,0 9.401,20.355 L 9.386,20.367 Z M 18.644,33.181 C 21.179,31.004 21.384,27.271 19.101,24.859 L 18.04,23.734 L 15.117,26.238 L 16.179,27.363 C 17.011,28.242 16.935,29.6 16.012,30.395 L 15.997,30.405 L 8.653,36.681 A 1.81,1.81 0 0,0 8.503,39.327 C 9.229,40.095 10.471,40.16 11.28,39.469 L 11.904,38.935 L 11.917,38.947 L 18.616,33.207 L 18.644,33.181 Z M 47.497,16.687 C 46.771,15.917 45.527,15.852 44.718,16.543 L 44.094,17.077 L 44.081,17.065 L 37.354,22.835 C 34.818,25.01 34.614,28.743 36.894,31.156 L 37.958,32.283 L 40.881,29.776 L 39.819,28.651 A 2.076,2.076 0 0,1 39.986,25.621 L 39.998,25.61 L 47.342,19.334 C 48.154,18.64 48.222,17.458 47.497,16.687 Z M 46.6,35.664 L 46.615,35.65 L 45.313,34.364 L 45.187,34.236 L 42.358,36.835 L 42.366,36.842 L 42.363,36.847 L 42.623,37.104 L 43.769,38.263 C 44.519,39.009 45.763,39.036 46.547,38.323 A 1.808,1.808 0 0,0 46.61,35.676 L 46.6,35.664 Z" fill="rgb(254, 254, 253)"/>
</svg>
