<?xml version="1.0" encoding="UTF-8"?>
<!-- generated by Finnhub -->
<svg viewBox="0 0 55.5 55.5" xmlns="http://www.w3.org/2000/svg">
<path d="M 0,0 H 55.5 V 55.5 H 0 Z" fill="rgb(239, 242, 248)"/>
<path d="M 42.99,12.985 H 13 V 43 H 43 V 36.8 C 42.13,35.72 41.2,35.06 40.11,35.06 C 38.72,35.06 37.17,35.87 34.01,37.82 A 15.37,15.37 0 0,1 27.04,40.12 C 19.73,40.29 17.24,34.23 16.9,31.19 C 15.05,32.84 13.63,32.77 13.16,32.53 C 15.3,32.21 16.71,29.95 17.16,28.85 C 17.89,26.45 20.83,21.68 26.74,21.83 C 32.65,21.98 33.97,26.58 33.89,28.85 A 6.88,6.88 0 0,0 27.04,23.18 C 20.6,23.37 18.89,28.17 18.84,30.54 C 19.12,37.95 25.33,38.7 27.43,38.77 C 29.11,38.82 31.07,38 31.85,37.59 C 32.53,37.21 34.6,36.08 37.43,34.57 C 40.14,33.12 42.21,34.17 43,34.97 V 33.6 A 6.19,6.19 0 0,0 40.24,32.68 C 39.18,32.61 36.87,33.3 33.63,35.28 C 30.74,37.04 28.6,37.31 27.63,37.29 C 22.03,36.87 20.43,32.88 20.43,30.63 C 20.43,28.39 22.75,24.36 27.22,24.48 C 30.79,24.58 31.92,27.23 32.04,28.55 C 30.84,26.11 29.34,25.73 27.64,25.61 C 25.94,25.48 22.15,26.86 22.15,30.63 C 22.15,34.7 25.97,35.89 27.92,35.94 A 8.09,8.09 0 0,0 31.72,34.9 L 32.01,34.74 A 47.5,47.5 0 0,1 37.31,31.98 A 6.22,6.22 0 0,1 43,32.21 V 30.95 C 42.98,30.95 42.96,30.93 42.95,30.92 C 42.42,30.64 41.89,30.35 40.05,30.28 C 38.21,30.22 34.65,31.96 33.09,32.91 C 32.25,33.44 30.11,34.51 28.31,34.59 C 26.07,34.68 23.81,32.99 23.79,30.65 C 23.77,28.31 25.89,26.93 27.69,26.91 C 29.14,26.9 29.91,27.76 30.12,28.19 C 28.48,26.68 25.12,27.75 25.14,30.29 C 25.16,32.82 27.29,33.17 28.2,33.2 C 28.93,33.23 29.79,32.96 30.12,32.82 C 31.54,32.12 35,30.45 37.45,29.42 A 6.95,6.95 0 0,1 43,29.6 V 13 Z" fill="rgb(1, 129, 144)"/>
</svg>
