<?xml version="1.0" encoding="UTF-8"?>
<!-- generated by Finnhub -->
<svg viewBox="0 0 55.5 55.5" xmlns="http://www.w3.org/2000/svg">
<path d="M 0,0 H 55.5 V 55.5 H 0 Z" fill="rgb(239, 242, 248)"/>
<path d="M 27.97,11.385 L 27.28,13.34 L 20.36,12.84 C 25.32,9.97 32.82,10.57 37.45,13.82 A 17.68,17.68 0 0,1 43.17,20.35 C 46.03,25.35 45.41,32.79 42.18,37.43 A 17.1,17.1 0 0,1 24.58,44.66 A 17.76,17.76 0 0,1 16.03,40.04 L 18.67,39.87 L 18.27,41.31 C 21.49,39.17 24.71,36.69 27.91,34.37 C 31.26,36.61 34.36,39.07 37.68,41.36 C 36.62,37.56 35.2,33.77 34.05,29.92 L 43.75,23 H 31.73 L 27.98,11.4 Z" fill="rgb(1, 55, 166)"/>
<path d="M 27.16,13.684999999999999 C 26.93,14.4 26.71,15.13 26.47,15.85 L 16.94,15.08 L 17.98,14.28 C 21.1,14.16 24.04,13.8 27.17,13.7 Z M 15.14,16.9 C 18.88,16.65 22.64,16.43 26.34,16.19 L 25.6,18.37 L 14.66,17.47 L 15.14,16.89 Z M 13.34,19.4 C 17.35,19.26 21.54,18.83 25.56,18.66 L 24.86,20.86 L 13.03,19.94 L 13.33,19.41 Z M 24.33,21.14 H 24.73 L 24.23,23 H 12.28 L 14.3,24.4 C 14.3,24.38 11.44,24.15 11.44,24.15 C 11.62,23.41 11.84,22.67 12.11,21.96 L 24.33,21.14 Z M 14.87,24.8 L 17.52,26.75 L 11.09,26.29 L 11.26,24.98 L 14.87,24.8 Z M 20.87,29.18 L 11,28.36 V 27.5 L 18.05,27.1 L 20.86,29.18 Z M 21.23,29.42 L 21.85,29.88 L 21.35,31.66 L 11.29,30.91 C 11.22,30.63 11.19,30.34 11.17,30.05 L 21.23,29.42 Z M 11.99,33.68 A 6.56,6.56 0 0,1 11.69,32.6 L 21.23,32.02 L 20.48,34.38 L 11.98,33.68 Z M 19.66,36.93 L 13.26,36.4 L 12.61,35.12 L 20.36,34.67 L 19.66,36.93 Z M 19.54,37.22 L 18.8,39.58 L 15.33,39.34 L 14.01,37.6 L 19.54,37.22 Z" fill="rgb(1, 55, 166)"/>
</svg>
