<?xml version="1.0" encoding="UTF-8"?>
<!-- generated by Finnhub -->
<svg viewBox="0 0 55.5 55.5" xmlns="http://www.w3.org/2000/svg">
<path d="M 0,0 H 55.5 V 55.5 H 0 Z" fill="rgb(1, 89, 154)"/>
<path d="M 37.99,33.985 A 6,6 0 1,0 38,22 A 6,6 0 0,0 38,34 Z" fill="rgb(239, 242, 248)"/>
<path d="M 28.99,28.006999999999998 C 28.99,24.009 32.16,19.817 38,20 L 34.519,17 C 27.8,19.03 24.815,23.575 25,28.024 V 27.976 C 24.816,32.426 27.801,36.969 34.519,39 L 38,36 C 32.16,36.184 28.99,31.989 29,27.977 V 28.022 Z" fill="rgb(239, 242, 248)"/>
<path d="M 18.99,27.964 C 19,27.19 19,17.03 30,12 L 33,15 C 23.26,18.81 23.142,25.966 23,28.022 V 27.979 C 23.142,30.036 23.26,37.192 33,41 L 30,44 C 19,38.926 19,28.811 19,28.022 V 27.979 Z M 11,28 L 18,22 C 15.929,25.064 16.212,30.85 18,34 L 11,28 Z" fill="rgb(239, 242, 248)"/>
</svg>
