<?xml version="1.0" encoding="UTF-8"?>
<!-- generated by Finnhub -->
<svg viewBox="0 0 55.5 55.5" xmlns="http://www.w3.org/2000/svg">
<path d="M 0,0 H 55.5 V 55.5 H 0 Z" fill="rgb(149, 136, 100)"/>
<path d="M 39.358000000000004,32.542 C 36.541,31.06 31.875,30.492 28.134,30.492 A 30.6,30.6 0 0,0 20.252,31.422 A 12.349,12.349 0 0,0 16.947,32.593 C 16.064,29.062 15.118,26.981 12.438,24.936 C 13.366,23.988 14.438,23.188 15.618,22.566 C 16.668,24.771 18.124,25.174 18.77,25.246 A 2.636,2.636 0 0,0 20.235,24.985 A 2.576,2.576 0 0,0 21.313,23.975 C 21.623,23.455 21.781,22.86 21.77,22.256 A 5.376,5.376 0 0,0 21.077,19.757 A 11.911,11.911 0 0,1 25.049,18.874 C 25.011,19.174 24.99,19.476 24.986,19.778 C 24.986,21.435 25.549,22.747 26.605,23.459 A 2.787,2.787 0 0,0 29.758,23.459 C 30.872,22.721 31.471,21.348 31.471,19.618 A 5.213,5.213 0 0,0 31.423,18.771 C 32.757,18.883 34.064,19.201 35.296,19.716 A 5.33,5.33 0 0,0 34.556,22.266 C 34.545,22.884 34.71,23.492 35.033,24.022 C 35.309,24.472 35.715,24.829 36.199,25.05 C 36.683,25.27 37.223,25.344 37.75,25.262 C 39.053,25.081 40.151,24.079 40.819,22.546 A 12.4,12.4 0 0,1 43.971,25.003 C 41.129,26.795 40.33,29.083 39.368,32.547 V 32.557 Z M 36.273,36.105 A 32.717,32.717 0 0,1 28.129,37.008 C 25.386,37.049 22.649,36.745 19.984,36.105 C 17.882,35.547 17.272,34.958 17.162,34.747 A 8.84,8.84 0 0,1 20.509,33.151 A 34.379,34.379 0 0,1 28.129,32.381 C 30.872,32.347 33.609,32.654 36.273,33.296 C 38.612,33.916 39.111,34.581 39.111,34.711 C 39.111,34.84 38.586,35.506 36.273,36.131 V 36.105 Z M 45.847,24.487 A 14.862,14.862 0 0,0 40.667,20.614 L 39.747,20.201 L 39.479,21.131 C 39.016,22.788 38.144,23.481 37.482,23.573 A 0.981,0.981 0 0,1 36.914,23.506 A 0.961,0.961 0 0,1 36.484,23.134 C 36.132,22.571 36.137,21.41 37.24,19.834 L 37.808,19.065 L 36.914,18.632 A 14.844,14.844 0 0,0 30.414,17.036 L 29.306,17 L 29.542,18.064 C 30.036,20.32 29.474,21.616 28.78,22.07 A 1.026,1.026 0 0,1 27.587,22.07 C 26.931,21.626 26.416,20.366 26.931,18.146 L 27.188,17.026 L 25.712,17.129 C 23.61,17.274 21.992,17.387 19.458,18.632 L 18.549,19.065 L 19.122,19.865 C 20.173,21.363 20.173,22.52 19.826,23.103 A 0.865,0.865 0 0,1 19.466,23.457 A 0.885,0.885 0 0,1 18.964,23.552 C 18.339,23.485 17.472,22.799 16.889,21.079 L 16.558,20.099 L 15.648,20.614 C 13.342,21.874 11.676,22.969 10.494,24.637 L 10,25.334 L 10.71,25.85 C 13.647,27.843 14.456,29.506 15.517,34.04 C 15.427,34.25 15.381,34.477 15.381,34.705 C 15.381,37.473 21.975,38.738 28.102,38.738 C 34.229,38.738 40.819,37.473 40.819,34.705 C 40.819,34.515 40.787,34.327 40.724,34.148 L 40.824,33.786 C 41.99,29.563 42.516,27.626 45.732,25.979 L 46.746,25.463 L 45.847,24.487 Z" fill="rgb(254, 254, 253)"/>
<path d="M 28.197,26.739 A 0.922,0.922 0 0,0 27.701,26.898 A 0.898,0.898 0 0,0 27.361,27.296 A 0.88,0.88 0 0,0 27.547,28.271 A 0.914,0.914 0 0,0 28.535,28.476 A 0.906,0.906 0 0,0 28.947,28.152 A 0.882,0.882 0 0,0 29.106,27.657 A 0.88,0.88 0 0,0 28.843,27.031 A 0.911,0.911 0 0,0 28.207,26.769 M 24.676,26.975 A 0.917,0.917 0 0,0 24.033,27.237 A 0.886,0.886 0 0,0 24.033,28.5 A 0.917,0.917 0 0,0 25.319,28.5 A 0.885,0.885 0 0,0 25.319,27.237 A 0.917,0.917 0 0,0 24.676,26.975 Z M 31.702,27.052 A 0.92,0.92 0 0,0 31.192,27.195 A 0.898,0.898 0 0,0 30.851,27.592 A 0.879,0.879 0 0,0 31.038,28.571 A 0.914,0.914 0 0,0 32.03,28.771 A 0.905,0.905 0 0,0 32.441,28.443 A 0.882,0.882 0 0,0 32.329,27.313 A 0.917,0.917 0 0,0 31.686,27.052 M 21.34,27.647 A 0.92,0.92 0 0,0 20.834,27.795 A 0.88,0.88 0 0,0 20.688,29.168 A 0.924,0.924 0 0,0 21.678,29.368 A 0.907,0.907 0 0,0 22.088,29.041 A 0.882,0.882 0 0,0 21.981,27.912 A 0.91,0.91 0 0,0 21.34,27.647 Z M 17.82,28.747 A 0.915,0.915 0 0,0 17.32,28.901 A 0.874,0.874 0 0,0 17.194,30.266 A 0.909,0.909 0 0,0 18.178,30.454 A 0.9,0.9 0 0,0 18.582,30.127 A 0.877,0.877 0 0,0 18.465,29.003 A 0.906,0.906 0 0,0 17.819,28.747 Z M 35.17,27.663 A 0.92,0.92 0 0,0 34.663,27.811 A 0.88,0.88 0 0,0 34.52,29.186 A 0.914,0.914 0 0,0 35.511,29.381 A 0.906,0.906 0 0,0 35.921,29.053 A 0.882,0.882 0 0,0 35.811,27.924 A 0.904,0.904 0 0,0 35.17,27.663 Z M 38.539,28.742 A 0.915,0.915 0 0,0 38.038,28.894 A 0.891,0.891 0 0,0 37.708,29.294 A 0.873,0.873 0 0,0 37.907,30.259 A 0.909,0.909 0 0,0 38.891,30.449 A 0.9,0.9 0 0,0 39.296,30.123 A 0.877,0.877 0 0,0 39.18,29 A 0.905,0.905 0 0,0 38.538,28.742 Z" fill="rgb(254, 254, 253)"/>
</svg>
