<?xml version="1.0" encoding="UTF-8"?>
<!-- generated by Finnhub -->
<svg viewBox="0 0 55.5 55.5" xmlns="http://www.w3.org/2000/svg">
<path d="M 0,0 H 55.5 V 55.5 H 0 Z" fill="rgb(239, 242, 248)"/>
<path d="M 10.99,22.985 A 5,5 0 0,0 11,33 H 17 V 30 H 11 A 2,2 0 1,1 11,26 H 17 V 23 H 11 Z M 24,23 A 5,5 0 0,0 24,33 H 30 V 30 H 24 A 2,2 0 1,1 24,26 H 30 V 23 H 24 Z" fill="rgb(31, 75, 138)"/>
<path d="M 31.99,29.985 H 35 V 33 H 32 Z" fill="rgb(26, 161, 164)"/>
<path d="M 47.99,24.125 V 33 H 45 V 26.18 L 40.87,30.6 A 1.12,1.12 0 0,1 39.14,30.59 L 35.61,26.41 A 1.12,1.12 0 0,0 34.74,26 H 32 V 23 H 35.17 C 35.87,23 36.53,23.33 36.96,23.89 L 39.65,27.32 A 0.45,0.45 0 0,0 40.35,27.32 L 43.15,23.86 A 2.25,2.25 0 0,1 44.92,23 H 46.87 C 47.5,23 48,23.5 48,24.14 Z" fill="rgb(31, 75, 138)"/>
</svg>
