<?xml version="1.0" encoding="UTF-8"?>
<!-- generated by Finnhub -->
<svg viewBox="0 0 55.5 55.5" xmlns="http://www.w3.org/2000/svg">
<path d="M 0,0 H 55.5 V 55.5 H 0 Z" fill="rgb(239, 242, 248)"/>
<path d="M 25.677,14.992999999999999 L 22.54,16.27 C 19.76,17.407 15.275,20.233 13.274,23.304 C 11.464,26.084 11.014,28.175 11,28.611 V 18.291 A 3.285,3.285 0 0,1 14.285,15.007 H 25.687 Z M 45,28.5 C 40.953,31.726 34.196,35.397 31.174,36.614 C 28.605,37.649 22.709,39.731 17.991,38.804 C 13.378,37.898 11.927,35.35 11,33.708 V 38.678 A 3.285,3.285 0 0,0 14.285,41.963 H 41.493 C 43.308,41.963 45,40.431 45,38.617 V 28.5 Z" fill="rgb(41, 46, 74)"/>
<path d="M 44.99,19.192999999999998 V 23.673 C 41.799,26.284 37.426,29.435 32.817,31.771 C 25.269,35.409 20.477,34.297 18.623,33.034 C 17.205,32.164 14.959,29.311 17.486,24.864 C 20.645,19.304 29.153,16.819 31.511,16.187 C 33.87,15.555 36.355,14.923 40.271,15.007 C 44.441,15.097 45.084,17.79 45,19.208 Z" fill="rgb(38, 156, 213)"/>
</svg>
