<?xml version="1.0" encoding="UTF-8"?>
<!-- generated by Finnhub -->
<svg viewBox="0 0 55.5 55.5" xmlns="http://www.w3.org/2000/svg">
<path d="M 0,0 H 55.5 V 55.5 H 0 Z" fill="rgb(239, 242, 248)"/>
<path d="M 11.99,15.985 V 30.7 L 28,16 L 32.54,20.26 L 28.02,24.69 L 33.46,21.11 L 33.86,21.5 L 29.29,25.98 L 34.79,22.36 L 35.22,22.76 L 30.59,27.3 L 36.15,23.64 L 44,31 V 16 H 12 Z" fill="rgb(76, 114, 136)"/>
<path d="M 27.99,24.985 L 35,31 H 21 L 28,25 Z" fill="rgb(217, 168, 2)"/>
<path d="M 15.92,39.985 A 4.1,4.1 0 0,0 19,38.66 L 18.05,37.94 A 2.92,2.92 0 0,1 15.79,38.96 C 14.25,38.96 12.99,37.84 12.99,36.46 S 14.25,33.96 15.79,33.96 C 16.7,33.96 17.51,34.34 18.02,34.93 L 18.74,34.07 A 4.16,4.16 0 0,0 15.93,33 C 13.76,33 12,34.57 12,36.5 S 13.76,40 15.93,40 Z M 28,36.5 C 28,38.43 26.2,40 24,40 S 20,38.43 20,36.5 S 21.8,33 24,33 S 28,34.57 28,36.5 Z M 27,36.5 C 27,37.88 25.66,39 24,39 S 21,37.88 21,36.5 S 22.34,34 24,34 S 27,35.12 27,36.5 Z M 30,40 H 31 V 37.5 H 32.92 L 34.75,40 H 35.98 L 34.08,37.45 C 35.15,37.25 36,36.37 36,35.33 V 35.16 C 36,33.96 34.87,33 33.6,33 H 30 V 40 Z M 31,34 H 33.62 C 34.38,34 35,34.56 35,35.25 S 34.38,36.5 33.62,36.5 H 31 V 34 Z M 44,40 H 39 V 33 H 44 V 34 H 40 V 36 H 43.5 V 37 H 40 V 39 H 44 V 40 Z" fill="rgb(34, 30, 30)" fill-rule="evenodd"/>
</svg>
