<?xml version="1.0" encoding="UTF-8"?>
<!-- generated by Finnhub -->
<svg viewBox="0 0 55.5 55.5" xmlns="http://www.w3.org/2000/svg">
<path d="M 0,0 H 55.5 V 55.5 H 0 Z" fill="rgb(87, 172, 45)"/>
<path d="M 4.99,23.538999999999998 C 10.067,16.608 16.978,19.134 19.703,21.27 L 16.671,24.793 C 14.245,22.429 11.896,23.45 11.025,24.256 C 8.651,26.111 9.346,28.73 9.998,30.008 C 6.428,28.328 5.118,25.142 5,23.554 Z" fill="rgb(254, 254, 253)"/>
<path d="M 9.278,36.269999999999996 C 3.672,33.85 3.62,28.206 4.295,25.69 C 5.761,29.802 8.621,31.658 9.867,32.072 C 13.058,33.799 16.058,32.74 17.383,31.997 L 19.759,35.337 C 15.513,37.792 11.009,36.993 9.289,36.287 Z M 23.954,19.935 C 19.174,22.407 19.094,27.781 19.594,30 C 21.884,29.291 24.131,27.16 24.98,26.258 C 26.134,22.306 29.794,22.607 32,24 C 32.727,23.346 33.94,22.183 35,21.615 C 31.238,17.889 26.128,18.913 23.954,19.935 Z M 19.956,31.42 C 21.474,30.835 23.751,29.316 24.7,28.63 C 25.04,31.373 26.918,32.244 27.815,32.336 C 29.92,32.769 31.455,31.574 32,31.001 L 35,34.834 C 32.6,37.294 28.127,37.163 26.213,36.789 C 22.397,35.955 20.452,32.861 19.956,31.419 Z M 36,20 C 37.597,19.25 39.326,19 41,19 V 29.93 C 41.19,32.317 43.353,32.71 44.317,32.608 C 46.154,32.454 46.907,30.758 47,29.929 V 19 C 49.22,19 50.644,19.291 52,20 V 30.81 C 51.937,34.023 49.148,35.898 47.762,36.434 C 44.847,37.352 42.165,36.969 41.188,36.663 C 37.164,35.837 36.053,32.416 36,30.809 V 20 Z" fill="rgb(254, 254, 253)"/>
</svg>
