<?xml version="1.0" encoding="UTF-8"?>
<!-- generated by Finnhub -->
<svg viewBox="0 0 55.5 55.5" xmlns="http://www.w3.org/2000/svg">
<path d="M 0,0 H 55.5 V 55.5 H 0 Z" fill="rgb(239, 242, 248)"/>
<path d="M 11.57,26.685 V 27.64 C 11.41,27.76 10.82,28 9.81,28 C 8.55,28 7,27.38 7,24.4 C 7,21.4 9.23,21 9.98,21 C 10.74,21 11.26,21.2 11.8,21.54 L 11.32,22.6 C 11.14,22.41 10.62,22 9.98,22 C 9.2,22 8,22.76 8,24.65 C 8,26.53 9.08,27 9.98,27 C 10.71,27 11.35,26.8 11.58,26.7 Z M 19,24.5 C 19,26.43 17.66,28 16,28 S 13,26.43 13,24.5 S 14.34,21 16,21 S 19,22.57 19,24.5 Z M 18,24.5 C 18,25.88 17.1,27 16,27 S 14,25.88 14,24.5 S 14.9,22 16,22 C 17.1,22 18,23.12 18,24.5 Z M 20,28 H 21 V 22.67 L 22.81,28 H 23.97 L 26,22.67 V 28 H 27 V 21 H 25.44 L 23.47,26.62 L 21.64,21 H 20 V 28 Z M 30.4,21 H 28 V 28 H 29 V 25.5 H 30.4 C 31.1,25.48 32.5,24.98 32.5,23.25 C 32.5,21.53 31.1,21.03 30.4,21 Z M 29,22 V 24.5 H 30.1 C 30.77,24.5 31.5,24.3 31.5,23.22 C 31.5,22.15 30.58,22.01 30.1,22 H 29 Z M 35.28,21 H 36.8 L 39,28 H 37.75 L 37.17,26 H 34.84 L 34.22,28 H 33 L 35.28,21 Z M 35.15,25 H 36.88 L 36.04,22.12 L 35.15,25 Z M 43.97,21.46 L 43.55,22.46 A 4.5,4.5 0 0,0 42.1,22 C 41.6,22 40.99,22.07 40.99,22.84 C 40.99,23.24 41.25,23.4 42.09,23.88 L 42.38,24.04 C 43.16,24.46 43.99,24.92 43.99,26.12 C 43.99,27.48 42.64,28 41.59,28 C 40.74,28 40.26,27.73 40.05,27.6 V 26.41 C 40.38,26.61 41.05,27 41.79,27 C 42.37,27 42.93,26.57 42.99,26.12 C 43.03,25.86 42.76,25.56 42.57,25.43 C 42.37,25.29 42.01,25.09 41.66,24.89 C 41.32,24.69 40.97,24.49 40.76,24.35 C 40.5,24.19 39.99,23.79 39.99,22.85 C 39.99,21.65 40.99,21 42.05,21 C 42.89,21 43.67,21.3 43.95,21.46 Z M 48.55,22.46 L 48.97,21.46 A 4.46,4.46 0 0,0 47.07,21 C 46,21 45,21.65 45,22.84 C 45,23.79 45.51,24.19 45.78,24.35 C 45.98,24.49 46.33,24.69 46.67,24.89 C 47.02,25.09 47.37,25.29 47.58,25.43 C 47.77,25.56 48.04,25.86 48,26.13 C 47.94,26.57 47.38,27 46.8,27 C 46.06,27 45.39,26.62 45.06,26.41 V 27.6 C 45.27,27.73 45.76,28 46.6,28 C 47.65,28 49,27.48 49,26.12 C 49,24.92 48.17,24.46 47.39,24.04 C 47.29,23.98 47.19,23.94 47.11,23.88 C 46.26,23.4 46,23.23 46,22.84 C 46,22.07 46.6,22 47.1,22 C 47.5,22 48.23,22.3 48.55,22.46 Z M 25,30.35 L 24.53,31.33 C 24.37,31.23 23.88,31 23.23,31 C 22.4,31 21,31.57 21,33.06 C 21,34.56 22.22,35 22.96,35 C 23.55,35 23.95,34.9 24,34.83 V 34 H 23 V 33 H 25 V 35.66 C 24.52,35.89 23.48,36 23.1,36 C 22.72,36 20,35.97 20,33.23 S 22.02,30 23.1,30 C 23.96,30 24.73,30.23 25,30.35 Z M 12,30 V 36 H 13.94 C 14.6,36 17,35.53 17,32.96 C 17,30.91 15.71,30 13.94,30 H 12 Z M 13,31 V 35 H 14.16 C 14.56,35 16,34.69 16,32.98 C 16,31.61 15.23,31 14.16,31 H 13 Z M 19,30 H 18 V 36 H 19 V 30 Z M 28,30 H 27 V 36 H 28 V 30 Z M 32,30 H 29 V 31 H 31 V 36 H 32 V 31 H 34 V 30 H 32 Z M 37.77,30 H 36.2 L 34,36 H 35.16 L 35.91,34 H 38 L 38.65,36 H 40 L 37.77,30 Z M 37.68,33 H 36.28 L 37.03,31 L 37.68,33 Z M 42,30 H 41 V 36 H 45 V 35 H 42 V 30 Z" fill="rgb(27, 35, 76)" fill-rule="evenodd"/>
</svg>
