<?xml version="1.0" encoding="UTF-8"?>
<!-- generated by Finnhub -->
<svg viewBox="0 0 55.5 55.5" xmlns="http://www.w3.org/2000/svg">
<path d="M 0,0 H 55.5 V 55.5 H 0 Z" fill="rgb(239, 242, 248)"/>
<path d="M 21.849999999999998,40.165 H 22.2 V 43.32 H 21.86 V 44 H 23.36 V 43.32 H 23.03 V 40.18 H 23.35 V 39.5 H 21.85 V 40.18 Z M 29,40.18 H 29.33 V 43.32 H 29 V 44 H 30.48 V 43.32 H 30.15 V 40.18 H 30.48 V 39.5 H 29 V 40.18 Z M 26.53,32 V 33 H 27 V 37 H 26.53 V 38 H 30.25 V 36.27 H 29.64 L 29.29,37 H 28 V 35.5 H 29.64 V 34.44 H 28 V 33 H 29.3 L 29.64,33.69 H 30.24 V 32 H 26.53 Z M 20.13,39.5 H 20.08 L 18.58,42.7 L 17.08,39.5 H 16 V 40.18 H 16.35 V 43.18 C 16.35,43.25 16.29,43.3 16.22,43.3 H 16.02 V 44 H 17.22 V 43.3 H 17.04 A 0.13,0.13 0 0,1 16.91,43.17 V 40.9 L 18.38,44 H 18.56 L 20.06,40.9 V 43.32 H 19.75 V 44 H 21.23 V 43.32 H 20.88 V 40.18 H 21.23 V 39.5 H 20.13 Z M 27.14,40.2 H 27.36 C 27.43,40.2 27.49,40.25 27.49,40.33 V 42.61 L 24.94,39.5 H 24.07 V 40.17 H 24.4 V 43.16 C 24.4,43.23 24.34,43.29 24.27,43.29 H 24.07 V 44 H 25.27 V 43.29 H 25.07 A 0.13,0.13 0 0,1 24.94,43.16 V 40.83 L 27.5,44 H 28.04 V 40.33 C 28.04,40.25 28.1,40.19 28.17,40.19 H 28.3 V 39.5 H 27.15 V 40.2 Z M 34.21,40.2 H 34.43 C 34.51,40.2 34.56,40.25 34.56,40.33 V 42.61 L 32.02,39.5 H 31.14 V 40.17 H 31.47 V 43.16 C 31.47,43.23 31.42,43.29 31.34,43.29 H 31.14 V 44 H 32.34 V 43.29 H 32.14 A 0.13,0.13 0 0,1 32.02,43.16 V 40.83 L 34.56,44 H 35.11 V 40.33 C 35.11,40.25 35.16,40.19 35.24,40.19 H 35.36 V 39.5 H 34.21 V 40.2 Z M 41.63,37 L 40.31,35.25 S 41.71,35.05 41.71,33.67 C 41.71,32.3 40.68,32 39.48,32 H 37.55 V 33 H 38 V 37 H 37.55 V 38 H 39.48 V 37 H 39 V 35.42 L 40.92,38 H 42 V 37 H 41.63 Z M 39,34.69 V 33 H 39.48 C 40.06,33 40.64,33.08 40.64,33.67 C 40.64,34.4 40.32,34.69 39,34.69 Z M 35,33 H 35.41 C 35.51,33 35.58,33.05 35.58,33.15 V 35.85 S 35.56,37 34.31,37 C 33.1,37 33,35.84 33,35.84 V 33 H 33.47 V 32 H 31.47 V 33 H 32 V 35.84 C 32,36.46 32.26,38 34.24,38 C 36.22,38 36.29,35.84 36.29,35.84 V 33.14 C 36.29,33.05 36.37,33 36.46,33 H 36.81 V 32 H 35 V 33 Z M 23,32 A 3,3 0 1,0 23,38 A 3,3 0 1,0 23,32 Z M 23,37 C 21.95,37 21,36.26 21,35 S 21.98,33 23,33 S 24.98,33.77 25,35 C 25.02,36.23 24.05,37 23,37 Z M 18.57,32.37 A 3.38,3.38 0 0,0 17,32 C 15.29,32 14,33.34 14,35 S 15.31,38 17,38 C 17.88,38 18.74,37.63 19.3,37.07 V 36 H 18.74 C 18.4,36.59 17.71,37 17,37 C 15.92,37 15,36.2 15,35 C 15,33.71 15.95,33 17,33 C 17.56,33 18.13,33.22 18.5,33.61 C 18.63,33.75 18.72,34 18.72,34 H 19.33 V 32.12 H 18.72 L 18.57,32.37 Z M 38.79,41.66 V 42.24 H 39.06 L 39.19,42.37 V 42.7 C 38.92,43.03 38.53,43.23 38.09,43.23 C 37.29,43.23 36.65,42.55 36.65,41.71 S 37.31,40.2 38.09,40.2 C 38.51,40.2 38.88,40.38 39.15,40.67 C 39.25,40.87 39.26,41 39.26,41 H 39.91 V 39.55 H 39.31 L 39.21,39.77 A 2.29,2.29 0 0,0 38.09,39.5 C 36.81,39.5 35.79,40.5 35.79,41.75 A 2.28,2.28 0 0,0 38.1,44 C 38.56,44 39,43.87 39.37,43.63 L 39.51,44 H 40.01 V 41.66 H 38.8 Z" fill="rgb(67, 77, 103)"/>
<path d="M 41.99,19.985 H 14 V 30 H 42 V 20 Z" fill="rgb(177, 177, 178)"/>
<path d="M 25.34,13.885 C 27.45,13.25 29.45,12.94 31.28,12.94 C 34.79,12.94 37.48,14.11 38.07,16.21 C 38.42,17.41 38.04,18.71 37.12,20 H 38.19 A 5.16,5.16 0 0,0 38.92,15.93 C 37.83,12.2 31.76,10.91 25.1,13 C 20.38,14.48 16.84,17.2 15.51,20 H 16.51 C 17.87,17.6 21.17,15.22 25.36,13.9 Z" fill="rgb(245, 136, 66)"/>
<path d="M 15.11,23.155 C 15.85,25.47 18.83,26.73 22.79,26.73 C 24.67,26.73 26.79,26.43 28.95,25.81 C 33.32,24.54 36.65,22.33 38.19,20 H 37.13 C 35.57,22 32.53,23.9 28.69,25 C 22.58,26.73 16.89,25.8 15.97,22.89 C 15.67,21.99 15.88,20.99 16.5,20 H 15.5 A 4.07,4.07 0 0,0 15.12,23.17 Z" fill="rgb(67, 77, 103)"/>
<path d="M 13.01,22.695 C 12.08,19.64 16.3,15.65 22.4,13.81 C 24.5,13.2 26.5,12.91 28.33,12.91 C 31.84,12.91 34.53,14.02 35.12,16.03 C 35.47,17.19 35.09,18.76 34.17,20 H 35.24 C 36.06,18.7 36.33,17 35.97,15.77 C 34.88,12.19 28.8,10.95 22.14,12.97 C 15.47,15 11.07,19.37 12.17,22.97 A 4,4 0 0,0 14,25.5 V 24.44 C 13.38,23.96 13.2,23.37 13.02,22.72 Z" fill="rgb(169, 80, 83)"/>
<path d="M 25.99,25.745 C 30.37,24.43 33.7,22.46 35.23,20 H 34.17 C 32.61,22.1 29.57,23.75 25.74,24.9 C 20.96,26.35 16.18,26.08 14,24.43 V 25.5 C 15.39,26.33 17.6,26.73 19.84,26.73 C 21.72,26.73 23.82,26.41 26,25.76 Z" fill="rgb(67, 77, 103)"/>
</svg>
