<?xml version="1.0" encoding="UTF-8"?>
<!-- generated by Finnhub -->
<svg viewBox="0 0 55.5 55.5" xmlns="http://www.w3.org/2000/svg">
<path d="M 0,0 H 55.5 V 55.5 H 0 Z" fill="rgb(239, 242, 248)"/>
<path d="M 27.99,27.015 C 28,31 30.85,34 35.18,34 C 37.31,34 39.28,32.88 40.62,31.47 L 44,35.23 C 41.81,37.56 38.69,39 34.5,39 C 28.44,39 23.37,34.62 23,29.12 L 16.43,39 H 10 S 22.15,22.33 25.22,19.31 C 28.75,15.85 31.37,15 35.18,15 C 38.46,15 41.75,16.47 44,18.83 L 40.46,22.43 A 7.5,7.5 0 0,0 35.02,20 A 6.87,6.87 0 0,0 28,27.03 Z"/>
</svg>
