<?xml version="1.0" encoding="UTF-8"?>
<!-- generated by Finnhub -->
<svg viewBox="0 0 55.5 55.5" xmlns="http://www.w3.org/2000/svg">
<path d="M 0,0 H 55.5 V 55.5 H 0 Z" fill="rgb(48, 68, 95)"/>
<path d="M 29.63,12.135 A 2,2 0 1,1 29.99,11.21 L 40,14.8 V 17 H 16 V 14.8 L 25.06,11.6 C 25.13,11.93 25.26,12.25 25.42,12.53 L 18.5,15 H 37.55 L 29.65,12.15 Z M 35,18 H 40 V 21 H 39 V 42 H 40 V 45 H 35 V 18 Z M 37,21 V 42 H 38 V 21 H 37 Z M 21,18 H 16 V 21 H 20 V 42 H 19 V 21 H 17 V 42 H 16 V 45 H 21 V 18 Z M 34,18 H 22 V 45 H 34 V 18 Z M 28,21 V 26 H 27 V 22 H 23 V 21 H 28 Z M 28,32 V 27 H 23 V 28 H 27 V 32 H 28 Z M 29,21 H 33 V 26 H 32 V 22 H 29 V 21 Z M 32,27 H 29 V 28 H 32 V 32 H 33 V 27 H 32 Z M 23,33 H 28 V 42 H 27 V 34 H 23 V 33 Z M 33,42 V 33 H 29 V 34 H 32 V 42 H 33 Z M 20,15 L 25.76,13 A 3,3 0 0,0 30.24,13 L 36,15 H 20 Z" fill="rgb(239, 242, 248)" fill-rule="evenodd"/>
</svg>
