<?xml version="1.0" encoding="UTF-8"?>
<!-- generated by Finnhub -->
<svg viewBox="0 0 55.5 55.5" xmlns="http://www.w3.org/2000/svg">
<path d="M 0,0 H 55.5 V 55.5 H 0 Z" fill="rgb(239, 242, 248)"/>
<path d="M 41.99,33.545 C 42,32.02 44.46,31.97 45.5,31.96 V 31.77 C 45.5,31.01 45.31,30.82 44.6,30.82 C 43.84,30.82 43.28,30.98 42.63,31.21 L 42.27,30.66 A 5.38,5.38 0 0,1 45.02,30 C 46.31,30 47,30.33 47,31.74 V 34.39 H 48 V 34.87 C 47.84,34.9 47.4,34.93 47.1,34.96 A 7.7,7.7 0 0,1 46.35,35 C 45.84,35 45.5,34.93 45.5,34.56 V 34.33 C 45.08,34.67 44.8,35 43.97,35 C 43.07,35 42,34.57 42,33.56 Z M 45.5,33.91 V 32.5 C 44.12,32.5 43.74,32.88 43.74,33.44 C 43.74,34.56 44.84,34.34 45.5,33.91 Z M 21,33.56 C 21,32.02 23.46,31.97 24.5,31.96 V 31.77 C 24.5,31.01 24.31,30.82 23.6,30.82 C 22.84,30.82 22.28,30.98 21.63,31.21 L 21.27,30.66 A 5.38,5.38 0 0,1 24.02,30 C 25.31,30 26,30.27 26,31.68 V 34.33 L 27,34.39 V 34.87 C 26.84,34.9 26.4,34.93 26.1,34.96 A 7.7,7.7 0 0,1 25.35,35 C 24.84,35 24.5,34.93 24.5,34.56 V 34.33 C 24.08,34.67 23.8,35 22.97,35 C 22.07,35 21,34.57 21,33.56 Z M 24.5,33.91 V 32.5 C 23.12,32.5 22.5,32.88 22.5,33.44 C 22.5,34.56 23.85,34.34 24.5,33.91 Z M 33,34.47 L 33.5,34.39 V 30.95 L 33,30.79 V 30.19 L 34.78,30 L 34.89,30.07 L 35.03,30.36 V 30.73 C 35.48,30.3 35.95,30.02 36.56,30.02 C 37.22,30.02 37.88,30.22 38.08,30.67 C 38.55,30.25 38.94,30.02 39.55,30.02 C 40.62,30.02 41.5,30.59 41.5,31.97 V 34.39 L 42,34.47 V 35 H 39.27 V 34.47 L 40,34.39 V 32 C 40,31.37 39.63,30.76 38.93,30.76 C 38.6,30.76 38.5,30.93 38.22,31.14 C 38.26,31.36 38.25,31.64 38.25,31.98 V 34.39 L 38.85,34.47 V 35 H 36.2 V 34.47 L 36.74,34.39 V 31.98 C 36.74,31.38 36.63,30.76 35.94,30.76 C 35.57,30.76 35.3,30.96 34.99,31.2 V 34.4 L 35.68,34.47 V 35 H 33 V 34.47 Z M 28,34.48 L 29,34.4 V 30.95 L 28.02,30.8 V 30.2 L 30.12,30 H 30.15 L 30.5,30.38 V 31.08 C 30.76,30.42 30.99,30 31.63,30 C 31.77,30 31.9,30.02 32,30.05 V 31.37 C 31.8,31.25 31.56,31.18 31.28,31.18 C 30.8,31.18 30.85,31.3 30.5,31.53 V 34.4 L 31.5,34.48 V 35 H 28 V 34.48 Z" fill="rgb(18, 23, 88)"/>
<path d="M 15.99,28.745 L 15.19,28.65 V 28.19 L 16.96,28 H 16.99 L 17.49,28.16 V 30.4 C 18.03,29.97 18.41,29.75 19.05,29.75 C 20.15,29.75 20.5,30.43 20.5,31.66 V 34.42 L 21.19,34.49 V 35 H 18.39 V 34.49 L 18.99,34.41 V 31.65 C 18.99,30.95 19.08,30.48 18.41,30.48 C 18.03,30.48 17.82,30.66 17.5,30.89 V 34.41 L 17.84,34.49 V 35 H 15.38 V 34.49 L 16,34.42 V 28.76 Z M 9,28.76 L 8,28.63 V 28 H 11.79 C 13.22,28 15,28.28 15,30.05 C 15,31.91 13.13,32.53 11.55,32.53 C 11.13,32.53 10.69,32.53 10.5,32.5 V 34.35 L 12.2,34.44 V 35 H 8 V 34.44 L 9,34.34 V 28.76 Z M 10.5,31.91 C 10.68,31.94 11.1,31.95 11.53,31.95 C 12.58,31.95 13.25,31.41 13.25,30.07 C 13.25,29.03 12.7,28.57 11.53,28.57 C 11.31,28.57 11.09,28.58 10.85,28.61 L 10.5,28.63 V 31.91 Z M 45.5,27 C 44.39,27 44,26.64 44,25.81 V 22 H 43 V 21.49 C 44.02,21.21 44.22,21.07 44.64,20 H 45.5 V 21.24 H 48 V 22 H 45.5 V 24.96 C 45.5,25.63 45.73,26.1 46.45,26.1 C 46.9,26.1 47.43,26.01 47.75,25.9 L 48,26.46 C 47.27,26.86 46.32,27 45.5,27 Z M 41.01,21.4 A 0.95,0.95 0 0,1 40.41,21.23 A 0.57,0.57 0 0,1 40.18,20.76 C 40.18,20.54 40.26,20.36 40.44,20.22 C 40.61,20.07 40.84,20 41.12,20 C 41.41,20 41.62,20.06 41.78,20.19 C 41.92,20.31 42,20.46 42,20.65 C 42,20.88 41.91,21.06 41.74,21.2 C 41.57,21.34 41.34,21.4 41.02,21.4 Z M 40.46,23 L 40,22.84 V 22.26 L 41.74,22.06 H 41.76 L 42,22.23 V 26.4 L 43,26.48 V 27 H 40 V 26.48 L 40.46,26.26 V 23 Z M 37.76,27 C 37.4,27 37,26.96 37,26.5 V 26.27 A 3.2,3.2 0 0,1 35.19,26.99 C 33.9,26.99 33.48,26.47 33.48,25.16 V 22.73 L 33,22.6 V 22.11 L 34.73,22 L 35,22.12 V 25.16 C 35,26 35.19,26.27 35.9,26.27 C 36.36,26.27 36.6,26.16 37,25.89 V 22.73 L 36.4,22.6 V 22.12 L 38.03,22 H 38.06 L 38.62,22.12 V 26.37 H 39 L 38.99,26.87 L 38.55,26.93 C 38.29,26.97 38.12,27 37.76,27 Z M 29.77,27 C 28.6,27 28,25.93 28,24.68 C 28,23.1 29.1,22.11 30.41,22.11 C 30.61,22.11 30.81,22.13 31,22.17 V 20.75 L 30.2,20.63 V 20.17 L 32.31,20 H 32.33 L 32.56,20.18 V 26.39 H 33 V 26.87 C 32.61,26.96 31.85,27 31.6,27 C 31.42,27 31.3,26.97 31.22,26.9 C 31.15,26.85 31.12,26.74 31.12,26.56 V 26.33 C 30.98,26.53 30.78,26.69 30.54,26.81 C 30.3,26.94 30.04,27 29.77,27 Z M 30.19,26.3 C 30.37,26.3 30.53,26.26 30.66,26.2 C 30.8,26.11 30.92,26.02 31,25.91 V 22.85 C 30.96,22.79 30.88,22.75 30.75,22.7 A 1.24,1.24 0 0,0 30.36,22.65 C 29.68,22.65 29.52,22.99 29.52,24.38 C 29.52,25.51 29.6,26.3 30.19,26.3 Z M 22,22.95 L 21,22.79 V 22.19 L 23.32,22 H 23.35 L 23.64,22.18 L 23.62,22.52 V 22.72 C 24.26,22.26 24.66,22.02 25.5,22.02 C 26.84,22.02 27,22.85 27,24.05 V 26.47 H 28 V 27 H 24.76 V 26.47 L 25.37,26.4 V 23.98 C 25.37,23.3 25.37,22.73 24.73,22.76 C 24.3,22.76 24.12,22.91 23.63,23.2 V 26.4 L 24.03,26.47 V 27 H 21.07 V 26.47 L 22,26.39 V 22.95 Z M 15.5,24.52 C 15.5,23.05 16.6,22 18.06,22 C 19.53,22 20.5,23.01 20.5,24.48 A 2.44,2.44 0 0,1 17.94,27 C 16.47,27 15.5,26 15.5,24.52 Z M 18.02,26.44 C 18.72,26.44 19,25.73 19,24.48 C 19,23.16 18.75,22.56 18,22.56 C 17.28,22.56 17,23.27 17,24.52 C 17,25.82 17.26,26.44 18.02,26.44 Z M 12.11,27 C 9.93,27 8,25.9 8,23.52 C 8,21.18 10.2,20 12.3,20 A 38.96,38.96 0 0,1 14.98,20.25 L 14.85,22 H 13.77 L 13.4,20.83 A 1.12,1.12 0 0,0 12.96,20.66 A 4.2,4.2 0 0,0 12.15,20.6 C 10.58,20.6 9.75,22.12 9.75,23.5 C 9.75,24.91 10.56,26.4 12.19,26.4 C 12.55,26.4 12.82,26.38 13,26.33 C 13.2,26.27 13.36,26.2 13.5,26.1 L 14.01,25.15 L 15,25.23 L 14.77,26.65 C 14.6,26.66 14.44,26.69 14.27,26.72 L 13.97,26.78 C 13.67,26.85 13.37,26.9 13.1,26.94 C 12.83,26.98 12.5,27 12.11,27 Z" fill="rgb(18, 23, 88)"/>
</svg>
