<?xml version="1.0" encoding="UTF-8"?>
<!-- generated by Finnhub -->
<svg viewBox="0 0 55.5 55.5" xmlns="http://www.w3.org/2000/svg">
<path d="M 0,0 H 55.5 V 55.5 H 0 Z" fill="rgb(239, 242, 248)"/>
<path d="M 23.04,12.764999999999999 C 22.67,12.9 22.3,13.04 21.93,13.19 L 28.3,32 H 29.56 L 23.06,12.78 Z" fill="url(#a)"/>
<path d="M 33.67,31.985 H 31.66 L 31.09,30.32 L 41.69,19.72 C 42.29,20.71 42.79,21.77 43.16,22.88 L 33.68,32 Z" fill="url(#a)"/>
<path d="M 40.14,31.985 H 36.56 L 43.74,25.1 A 16.08,16.08 0 0,1 43.97,28.94 L 40.15,32 Z" fill="url(#a)"/>
<path d="M 32.24,39.985 H 31 L 32.17,43.45 C 32.55,43.35 32.93,43.23 33.3,43.1 L 32.25,40 Z" fill="url(#a)"/>
<path d="M 35.14,42.305 L 34.36,40 H 38.58 C 37.55,40.91 36.4,41.7 35.15,42.32 Z" fill="url(#a)"/>
<path d="M 31.18,43.665 L 29.94,40 H 27.66 L 29,43.97 A 16,16 0 0,0 31.19,43.68 Z" fill="url(#a)"/>
<path d="M 27.95,43.985 L 26.6,40 H 25.32 L 26.66,43.94 C 27.09,43.98 27.52,44 27.96,44 Z" fill="url(#a)"/>
<path d="M 25.549999999999997,43.795 L 24.26,40 H 22.98 L 24.18,43.54 C 24.63,43.65 25.09,43.74 25.56,43.81 Z" fill="url(#a)"/>
<path d="M 23.0,43.185 L 21.93,40 H 19.65 L 20.34,42.05 C 21.19,42.51 22.08,42.9 23.01,43.21 Z" fill="url(#a)"/>
<path d="M 18.99,41.225 L 18.6,40 H 17.43 C 17.93,40.44 18.46,40.86 19.02,41.24 Z" fill="url(#a)"/>
<path d="M 16.93,31.985 H 19.22 L 14.81,18.95 C 14.26,19.75 13.78,20.59 13.38,21.48 L 16.94,32 Z" fill="url(#a)"/>
<path d="M 12.81,22.925 L 15.88,32 H 14.6 L 12.26,25.09 C 12.4,24.35 12.59,23.63 12.82,22.94 Z" fill="url(#a)"/>
<path d="M 11.99,27.445 A 16.6,16.6 0 0,0 12.5,32 H 13.55 L 12,27.46 Z" fill="url(#a)"/>
<path d="M 15.52,17.955 L 20.28,32 H 21.56 L 16.46,16.92 C 16.14,17.26 15.83,17.61 15.53,17.97 Z" fill="url(#a)"/>
<path d="M 17.24,16.134999999999998 L 22.62,32 H 23.9 L 18.25,15.31 C 17.91,15.58 17.58,15.85 17.25,16.15 Z" fill="url(#a)"/>
<path d="M 19.09,14.684999999999999 L 24.95,32 H 27.24 L 21,13.6 C 20.34,13.92 19.7,14.3 19.1,14.7 Z" fill="url(#a)"/>
<path d="M 40.52,18.035 L 30.38,28.21 L 24.99,12.28 A 15.97,15.97 0 0,1 40.53,18.05 Z" fill="url(#a)"/>
<path d="M 17.83,37.985 C 16.39,38 15,37.05 15,35.5 S 16.4,33 17.84,33 C 18.76,33 19.5,33.3 20,33.86 L 19.22,34.52 C 18.86,34.14 18.42,33.95 17.9,33.95 C 17,33.95 16,34.28 16,35.5 S 17,37.05 17.9,37.05 C 18.43,37.05 18.86,36.85 19.22,36.47 L 20,37.14 C 19.5,37.7 18.76,38 17.84,38 Z M 21,38 L 22.99,33 H 24 L 26,38 H 24.92 L 23.29,33.59 H 23.69 L 22.06,38 H 21 Z M 22.06,37 L 22.33,36 H 24.63 L 24.9,37 H 22.06 Z M 27,38 V 33 H 29.5 C 30.97,33 32,33.69 32,35.5 S 30.98,38 29.5,38 H 27 Z M 28,37 H 29 C 29.92,37 31,37 31,35.5 S 29.92,34 29,34 H 28 V 37 Z M 33,38 V 33 H 34 V 38 H 33 Z M 35,38 V 37.06 L 39,33.5 V 34 H 35 V 33 H 40 V 34 L 36,37.5 V 37 H 40 V 38 H 35 Z" fill="rgb(11, 57, 114)"/>
<defs>
<linearGradient id="a" x1="34" x2="15.5" y1="12.5" y2="39" gradientUnits="userSpaceOnUse">
<stop stop-color="rgb(30, 61, 98)" offset="0"/>
<stop stop-color="rgb(91, 133, 170)" offset="1"/>
</linearGradient>
</defs>
</svg>
