<?xml version="1.0" encoding="UTF-8"?>
<!-- generated by Finnhub -->
<svg viewBox="0 0 55.5 55.5" xmlns="http://www.w3.org/2000/svg">
<path d="M 0,0 H 55.5 V 55.5 H 0 Z" fill="rgb(239, 242, 248)"/>
<path d="M 20.54,13.985 A 35.5,35.5 0 0,0 14,18.97 V 14.11 C 14,14.04 14.04,14 14.11,14 H 20.55 Z" fill="rgb(1, 155, 132)"/>
<path d="M 27.389999999999997,13.985 C 27.12,14.22 26.8,14.42 26.44,14.57 L 25.5,14.95 A 32.2,32.2 0 0,0 15.28,22.36 C 15.15,22.51 14.94,22.77 14.65,23.16 C 14.45,23.44 14.23,23.7 14,23.96 V 18.89 A 35.21,35.21 0 0,1 20.55,14 H 27.41 Z" fill="rgb(53, 48, 141)"/>
<path d="M 37.99,31.675 A 29.72,29.72 0 0,0 41.98,27.95 L 42,14.16 C 42,14.06 41.95,14 41.84,14 H 27.4 C 27.11,14.22 26.79,14.42 26.43,14.57 L 25.49,14.95 A 32.2,32.2 0 0,0 15.27,22.36 C 15.14,22.51 14.93,22.77 14.64,23.16 C 14.44,23.44 14.22,23.7 13.99,23.96 V 37.42 C 15.89,38.4 17.89,38.88 19.96,38.85 C 22.16,38.82 24.36,38.45 26.56,37.73 A 37.38,37.38 0 0,0 38,31.7 Z M 40.82,17.32 C 42.67,20.62 38.47,26.51 31.42,30.47 C 24.39,34.43 17.19,34.97 15.34,31.66 C 13.49,28.36 17.7,22.46 24.74,18.51 C 31.77,14.55 38.98,14.01 40.82,17.31 Z" fill="rgb(231, 56, 10)"/>
<path d="M 41.99,27.735 V 35.31 A 44.05,44.05 0 0,1 31,41.68 C 30.93,41.71 30.9,41.76 30.9,41.82 C 30.91,41.9 30.89,41.96 30.84,42 H 14.11 C 14.04,42 14,41.95 14,41.88 V 37.35 C 15.9,38.35 17.9,38.84 19.98,38.81 C 22.18,38.77 24.38,38.4 26.58,37.67 A 37.25,37.25 0 0,0 38.02,31.54 A 29.9,29.9 0 0,0 42,27.74 Z" fill="rgb(53, 48, 141)"/>
<path d="M 41.99,35.095 V 41.88 C 42,41.96 41.96,42 41.89,42 H 30.12 C 35.07,39.66 38.58,37.8 41.99,35.11 Z" fill="rgb(1, 155, 132)"/>
</svg>
