<?xml version="1.0" encoding="UTF-8"?>
<!-- generated by Finnhub -->
<svg viewBox="0 0 55.5 55.5" xmlns="http://www.w3.org/2000/svg">
<path d="M 0,0 H 55.5 V 55.5 H 0 Z" fill="rgb(63, 27, 124)"/>
<path d="M 18.99,21.985 H 18 V 30.03 C 18,31.51 18.71,32 19.66,32 C 19.95,32.01 20.23,31.96 20.5,31.85 L 20.44,30.81 C 20.24,30.97 20.04,31 19.75,31 C 19.25,31 19,30.94 19,29.93 V 22 Z M 9.87,25.38 A 3.92,3.92 0 0,0 8.13,25 C 5.9,25 5,26.47 5,28.54 C 5,30.88 6.1,32 8.15,32 C 8.78,32.01 9.41,31.9 10,31.66 L 9.89,30.66 C 9.36,30.89 8.79,31.01 8.22,31 C 6.54,31 6,30.41 6,28.5 C 6,26.91 6.31,26 8.15,26 C 8.7,26 9.25,26.14 9.73,26.39 L 9.87,25.38 Z M 26.87,25.38 A 3.92,3.92 0 0,0 25.12,25 C 22.9,25 22,26.47 22,28.54 C 22,30.88 23.1,32 25.15,32 C 25.78,32.01 26.41,31.9 27,31.66 L 26.89,30.66 C 26.36,30.89 25.79,31.01 25.22,31 C 23.54,31 23,30.41 23,28.5 C 23,26.91 23.31,26 25.15,26 C 25.7,26 26.25,26.14 26.73,26.39 L 26.87,25.38 Z M 16.87,29 H 12 C 12,30.25 12.47,31 14,31 A 7,7 0 0,0 16.63,30.48 L 16.75,31.5 C 16,31.84 15.19,32.01 14.37,32 C 12.13,32 11,30.93 11,28.5 C 11,26.56 11.73,25 14.04,25 C 15.87,25 17,26 17,27.95 C 17,28.25 16.96,28.71 16.87,29 Z M 12,28 H 16 C 16,26.6 15.47,26 14.01,26 S 12,26.61 12,28 Z M 35,31.5 C 34.03,31.84 33.02,32.01 31.98,32 C 30.25,32 29,31.48 29,29.26 V 25 H 30 V 29.24 C 30,30.93 30.75,31 32,31 C 32.73,31.02 33.32,30.91 34,30.68 V 25 H 35 V 31.5 Z M 38,25 H 37 V 32 H 38 V 25 Z M 40,23 H 41 V 25 H 43 V 26 H 41 V 29.46 C 41,30.58 41.35,31 42.17,31 C 42.69,31 43.21,30.9 43.68,30.68 L 43.8,31.65 C 43.3,31.88 42.74,32 42.18,32 C 40.91,32 40,31.34 40,29.46 V 23 Z M 50,25 L 48.17,29.92 L 46,25 H 45 L 47.72,31.2 C 47.28,32.33 46.72,33.1 45.52,33 L 45.71,34 C 47.41,34.08 48.08,32.56 48.58,31.28 L 51,25 H 50 Z M 37.7,22.04 A 0.47,0.47 0 0,0 37.51,22 A 0.48,0.48 0 0,0 37.15,22.15 A 0.5,0.5 0 0,0 37,22.51 C 37,22.65 37.06,22.77 37.16,22.86 A 0.5,0.5 0 0,0 37.84,22.86 C 37.94,22.76 37.99,22.65 38,22.51 A 0.5,0.5 0 0,0 37.86,22.15 A 0.48,0.48 0 0,0 37.7,22.04 Z" fill="rgb(254, 254, 253)"/>
</svg>
