<?xml version="1.0" encoding="UTF-8"?>
<!-- generated by Finnhub -->
<svg viewBox="0 0 55.5 55.5" xmlns="http://www.w3.org/2000/svg">
<path d="M 0,0 H 55.5 V 55.5 H 0 Z" fill="rgb(1, 148, 117)"/>
<path d="M 17.977999999999998,16.735 A 1938.61,1938.61 0 0,0 14.318,24.198 C 13.6,25.655 13,26.978 13,27.128 C 13,27.723 13.317,27.31 14.051,25.77 C 14.468,24.893 16.153,21.484 17.788,18.207 A 809.797,809.797 0 0,0 20.808,12.116 C 20.841,12.05 20.741,12 20.608,12 C 20.407,12 19.606,13.457 17.988,16.75 Z M 23.943,12.86 C 23.727,13.34 22.475,15.89 21.174,18.538 C 19.873,21.169 17.487,25.969 15.903,29.197 C 13.25,34.526 12.75,35.685 13.133,35.651 C 13.2,35.651 14.134,33.847 15.219,31.646 C 19.989,21.914 24.21,13.357 24.511,12.811 C 24.911,12.083 24.911,12 24.594,12 C 24.444,12 24.16,12.38 23.944,12.86 Z M 27.564,13.787 C 27.08,14.764 25.361,18.24 23.744,21.517 C 22.125,24.794 19.99,29.114 19.006,31.117 C 18.021,33.119 16.27,36.677 15.102,39.011 C 13.951,41.361 13,42.951 13,43 H 16.904 L 17.788,41.13 C 18.255,39.905 19.106,37.67 19.673,36.164 A 12473.4,12473.4 0 0,1 25.228,21.517 C 26.479,18.289 27.197,16.237 27.113,16.055 C 27.08,15.939 27.447,15.029 27.931,14.052 C 28.915,12.082 28.948,12 28.648,12 C 28.531,12 28.031,12.811 27.564,13.787 Z M 30.067,16.916 C 28.732,19.63 26.83,23.486 25.846,25.489 S 22.976,31.282 21.676,33.93 C 18.139,41.08 17.455,42.818 17.455,43 H 20.56 L 21.709,40.385 C 22.326,38.746 23.444,35.834 24.161,33.93 C 26.163,28.683 27.481,25.208 28.265,23.09 C 28.649,22.047 29.099,20.888 29.249,20.54 C 29.399,20.176 29.483,19.779 29.433,19.647 C 29.349,19.431 30.217,17.594 32.385,13.274 C 32.885,12.281 32.969,12 32.769,12 C 32.586,12 31.701,13.622 30.067,16.916 Z M 36.372,12.364 C 36.288,12.579 34.82,15.575 33.102,19.034 A 2828.4,2828.4 0 0,0 28.314,28.717 C 27.397,30.587 25.412,34.592 23.91,37.637 C 22.409,40.667 21.174,42.917 21.174,43 H 24.087 S 25.512,39.988 29.849,28.468 C 30.499,26.73 31.184,24.943 31.351,24.496 C 31.534,24.033 31.667,23.52 31.651,23.337 C 31.634,22.99 32.201,21.749 35.171,15.823 A 243.038,243.038 0 0,0 37.022,12.066 C 37.022,12.033 36.906,12 36.772,12 C 36.622,12 36.455,12.165 36.372,12.364 Z M 39.692,13.87 C 39.192,14.88 37.289,18.736 35.472,22.427 A 2171.73,2171.73 0 0,0 30.683,32.109 C 29.883,33.748 28.314,36.942 27.197,39.193 A 76.808,76.808 0 0,1 25.21,43 H 27.813 S 28.447,41.808 29.014,40.302 A 215,215 0 0,1 30.516,36.33 C 30.766,35.651 31.283,34.31 31.65,33.35 C 32.017,32.39 32.7,30.587 33.185,29.345 C 33.652,28.088 34.002,26.995 33.952,26.913 C 33.885,26.813 34.636,25.125 35.62,23.139 C 39.44,15.376 41.025,12.149 41.025,12.066 C 41.025,12.033 40.925,12 40.825,12 C 40.708,12 40.191,12.844 39.691,13.87 Z M 42.61,16.17 C 41.977,17.478 39.925,21.633 38.057,25.406 A 3091.21,3091.21 0 0,0 33.686,34.261 A 444.19,444.19 0 0,1 30.95,39.773 C 29.982,41.726 29.63,43 29.63,43 H 31.647 L 31.984,42.123 C 34.587,35.337 36.172,30.951 36.154,30.653 C 36.154,30.454 37.056,28.419 38.19,26.151 C 43.912,14.598 44.262,13.821 43.895,13.821 C 43.829,13.821 43.245,14.88 42.611,16.171 Z M 43.545,22.46 C 43.461,22.675 42.31,25.042 40.975,27.724 C 34.854,40.12 33.353,42.883 33.353,43 H 35.175 C 35.259,42.851 35.889,41.345 36.589,39.475 C 37.307,37.605 38.024,35.718 38.191,35.287 C 38.374,34.857 38.475,34.394 38.424,34.277 C 38.374,34.162 39.575,31.563 41.077,28.517 C 42.578,25.489 43.863,22.791 43.93,22.543 C 44.063,21.997 43.746,21.931 43.546,22.46 Z M 43.762,30.388 C 43.562,30.653 37.356,43 37.356,43 H 39.124 L 39.658,41.047 C 40.158,39.773 40.576,38.465 40.609,38.134 C 40.642,37.803 41.243,36.396 41.927,35.023 C 43.395,32.126 44.062,30.57 43.996,30.338 C 43.962,30.239 43.862,30.272 43.762,30.388 Z" fill="rgb(254, 254, 253)"/>
</svg>
