<?xml version="1.0" encoding="UTF-8"?>
<!-- generated by Finnhub -->
<svg viewBox="0 0 55.5 55.5" xmlns="http://www.w3.org/2000/svg">
<path d="M 0,0 H 55.5 V 55.5 H 0 Z" fill="rgb(40, 60, 148)"/>
<path d="M 16.99,27.365 C 17,21.44 20.74,18.33 24.19,16.75 L 22.37,12 C 15.88,15 12,20.88 12,27.38 C 12,36.5 18.88,43 27,43 C 36,43 42.08,36.84 42,28 H 37 A 9.8,9.8 0 0,1 27,38 C 20.37,38 17,32.12 17,27.37 Z" fill="rgb(252, 177, 38)"/>
<path d="M 38.99,27.985 H 42 C 42,34.84 38.37,40.01 32.8,42.05 L 33.63,44 C 40.69,40.81 44,34.83 44,28.03 C 44,19.17 36.76,13 29,13 C 20.07,13 14,19.81 14,28 H 19 C 19,22.68 23,18 29,18 C 33,18 38.98,21.44 39,28 Z" fill="rgb(226, 38, 36)"/>
</svg>
