<?xml version="1.0" encoding="UTF-8"?>
<!-- generated by Finnhub -->
<svg viewBox="0 0 55.5 55.5" xmlns="http://www.w3.org/2000/svg">
<path d="M 0,0 H 55.5 V 55.5 H 0 Z" fill="rgb(55, 76, 157)"/>
<path d="M 15.21,19.985 C 15.52,20 15.76,20.04 15.94,20.1 C 16.14,20.18 16.31,20.26 16.45,20.35 C 16.55,20.41 16.61,20.41 16.65,20.38 A 0.76,0.76 0 0,0 16.8,20 H 17 V 21.35 H 16.8 C 16.7,20.82 16.42,20.38 15.86,20.2 A 2.02,2.02 0 0,0 15.26,20.11 C 15.03,20.11 14.83,20.16 14.66,20.26 C 14.03,20.58 14,21.36 14,22 C 14,22.9 14.29,23.89 15.31,23.89 C 15.5,23.89 15.69,23.86 15.88,23.79 C 16.46,23.62 16.73,23.15 16.8,22.59 H 17 C 17,23.26 16.98,23.71 17,24 H 16.8 A 0.77,0.77 0 0,0 16.66,23.63 C 16.62,23.59 16.56,23.6 16.46,23.65 C 16.29,23.75 16.11,23.82 15.92,23.9 C 15.74,23.97 15.5,24 15.22,24 C 14.02,24 13,23.27 13,22 C 13,20.76 14.03,20 15.22,20 Z M 21,20 V 21 H 20.84 C 20.77,20.41 20.48,20.13 19.88,20.13 H 19.41 C 19.07,20.13 19,20.2 19,20.55 V 23.45 C 19,23.81 19.07,23.88 19.41,23.88 H 19.85 C 20.55,23.88 20.74,23.53 20.85,22.85 H 21 L 21.03,24 H 17.59 V 23.9 C 17.95,23.87 18,23.83 18,23.45 V 20.6 C 18,20.22 17.95,20.12 17.6,20.1 V 20 C 18.73,20.02 21,20 21,20 Z M 19.91,21.93 V 22.04 H 18.69 V 21.93 H 19.91 Z M 20.13,21.14 L 20.15,22.84 H 20 C 19.92,22.39 19.8,22.04 19.27,22.04 V 21.94 C 19.76,21.94 19.87,21.55 19.98,21.14 H 20.13 Z M 26,20 V 20.1 C 25.59,20.13 25.5,20.3 25.5,20.7 V 24 H 25.28 L 22.43,20.52 V 23.26 C 22.43,23.72 22.61,23.84 23.06,23.87 V 24 H 21.75 V 23.87 C 22.15,23.84 22.28,23.68 22.28,23.28 V 20.58 C 22.28,20.2 22.1,20.12 21.75,20.11 V 20 H 22.9 L 25.35,22.91 V 20.71 C 25.35,20.27 25.16,20.13 24.72,20.11 V 20 H 26 Z M 30.35,20 L 30.32,21.2 H 30.17 C 30.07,20.67 29.95,20.37 29.67,20.23 C 29.53,20.16 29.55,20.13 29.29,20.13 H 29 V 23.38 C 29,23.85 29.18,23.88 29.6,23.89 V 24 H 27.32 V 23.9 C 27.72,23.88 28,23.84 28,23.38 V 20.13 H 27.71 C 27.46,20.13 27.26,20.16 27.12,20.23 C 26.83,20.37 26.72,20.66 26.62,21.21 H 26.47 L 26.44,20 H 30.34 Z M 30.71,20 H 32.63 C 33.23,20 34.5,20.18 34.5,21 C 34.5,21.9 33.15,22.1 32.48,22.1 H 31.83 V 21.99 H 32.41 C 33.03,21.99 33.5,21.67 33.5,21 C 33.5,20.42 33.23,20.1 32.49,20.1 C 32.14,20.1 32,20.23 32,20.57 V 23.42 C 32,23.81 32.19,23.87 32.55,23.89 V 24 H 30.7 V 23.9 C 30.99,23.9 30.99,23.81 30.99,23.42 V 20.57 C 30.99,20.19 30.99,20.1 30.7,20.1 V 20 Z M 31.85,22 A 12.33,12.33 0 0,1 33.01,22.08 C 33.49,22.13 33.93,22.28 34.07,22.8 C 34.15,23.08 34.2,23.44 34.37,23.68 C 34.41,23.75 34.48,23.78 34.57,23.78 C 34.73,23.78 34.8,23.71 34.91,23.6 L 35,23.66 C 34.8,23.89 34.44,24 34.07,24 C 33.37,24 33.28,23.43 33.15,22.87 C 33.05,22.47 33.05,22.1 32.59,22.1 H 31.86 L 31.85,22 Z M 37.26,20 L 38.9,23.47 C 39.03,23.74 39.21,23.88 39.35,23.89 V 24 H 37.62 V 23.9 C 37.97,23.88 38.19,23.73 38.01,23.36 L 36.8,20.72 L 36.9,20.62 L 35.79,22.98 C 35.71,23.14 35.66,23.28 35.64,23.38 C 35.6,23.76 35.93,23.88 36.23,23.89 V 24 H 34.93 V 23.9 C 35.11,23.86 35.3,23.66 35.47,23.31 L 37.03,20 H 37.26 Z M 37.96,22.36 V 22.46 H 35.96 L 36.03,22.36 H 37.97 Z M 41.5,20 V 20.1 C 41.14,20.12 41,20.13 41,20.52 V 23.39 C 41,23.75 41,23.88 41.24,23.88 H 41.68 C 42.4,23.88 42.72,23.4 42.82,22.72 H 43 V 24 H 39.43 V 23.9 C 39.79,23.87 40,23.81 40,23.42 V 20.58 C 40,20.2 39.8,20.12 39.43,20.11 V 20 H 41.5 Z M 10.39,26.01 C 10.63,26.01 10.81,26.03 10.94,26.08 A 2.28,2.28 0 0,1 11.4,26.28 L 11.5,26.29 A 0.1,0.1 0 0,0 11.6,26.23 L 11.65,26 H 11.8 L 11.77,27.2 H 11.61 A 1.34,1.34 0 0,0 11.46,26.69 A 1,1 0 0,0 11.1,26.29 C 10.94,26.18 10.74,26.13 10.49,26.13 C 10.13,26.13 9.69,26.31 9.69,26.73 C 9.69,27.29 10.43,27.35 10.84,27.55 C 11.34,27.81 12.04,28.13 12.04,28.78 C 12.04,29.57 11.17,30 10.52,30 A 2.22,2.22 0 0,1 9.53,29.8 A 0.56,0.56 0 0,0 9.3,29.72 A 0.11,0.11 0 0,0 9.2,29.78 C 9.18,29.82 9.17,29.92 9.16,30 H 9 V 28.6 H 9.18 C 9.2,28.83 9.25,29.04 9.33,29.23 C 9.42,29.43 9.55,29.59 9.72,29.71 C 9.89,29.82 10.12,29.88 10.42,29.88 C 10.84,29.88 11.1,29.71 11.1,29.23 C 11.1,28.8 10.69,28.54 10.06,28.23 C 9.55,27.97 9,27.67 9,27 C 9,26.3 9.79,26.01 10.39,26.01 Z M 16,26 V 27.01 H 15.84 C 15.76,26.41 15.54,26.14 14.91,26.14 H 14.44 C 14.1,26.14 14,26.2 14,26.57 V 29.45 C 14,29.82 14.1,29.88 14.44,29.88 H 14.88 C 15.59,29.88 15.91,29.53 16.02,28.85 H 16.18 L 16.2,30 H 12.61 V 29.9 C 12.97,29.87 13,29.83 13,29.45 V 26.6 C 13,26.22 12.97,26.12 12.61,26.11 V 26.01 L 16,26 Z M 14.96,27.93 V 28.04 H 13.72 V 27.93 H 14.96 Z M 15.16,27.22 L 15.18,28.84 H 15.02 C 14.94,28.39 14.82,28.04 14.3,28.04 V 27.94 C 14.77,27.94 14.9,27.61 15,27.22 H 15.16 Z M 19.23,26 C 19.53,26 19.77,26.04 19.96,26.1 C 20.16,26.18 20.33,26.26 20.48,26.35 C 20.57,26.41 20.7,26.41 20.74,26.38 C 20.79,26.33 20.83,26.16 20.84,26 H 21 V 27.35 H 20.82 A 3.92,3.92 0 0,0 20.72,26.95 C 20.7,26.85 20.6,26.77 20.55,26.7 A 0.92,0.92 0 0,0 20.35,26.48 C 20.23,26.35 20.07,26.26 19.88,26.2 A 2.05,2.05 0 0,0 19.28,26.11 C 18.25,26.11 18,27.13 18,28.01 C 18,28.91 18.3,29.89 19.33,29.89 C 19.51,29.89 19.7,29.86 19.9,29.79 C 20.1,29.74 20.26,29.65 20.38,29.52 C 20.5,29.42 20.58,29.29 20.63,29.16 C 20.68,29.02 20.79,28.83 20.82,28.6 H 21 V 30 H 20.84 C 20.83,29.84 20.79,29.67 20.75,29.63 C 20.71,29.59 20.58,29.6 20.48,29.65 C 20.31,29.75 20.13,29.82 19.94,29.9 C 19.76,29.97 19.52,30 19.23,30 C 18.03,30 17,29.3 17,28.03 C 17,26.78 18.04,26 19.23,26 Z M 26,26 V 26.1 C 25.6,26.13 25.47,26.3 25.47,26.7 V 28.34 C 25.47,29.35 25,30 24,30 C 22.89,30 22,29.44 22,28.34 V 26.56 C 22,26.18 21.75,26.12 21.38,26.11 V 26 H 23.5 V 26.1 C 23.14,26.12 23,26.19 23,26.58 V 28.53 C 23,29.26 23.27,29.8 24,29.82 C 24.88,29.82 25.31,29.23 25.31,28.4 V 26.72 C 25.31,26.28 25.11,26.12 24.68,26.11 V 26 H 26 Z M 26.11,26 H 28.04 C 28.64,26 30,26.18 30,27 C 30,27.9 28.58,28.1 27.89,28.1 H 27.24 V 27.99 H 27.82 C 28.44,27.99 29,27.69 29,27.03 C 29,26.45 28.65,26.1 27.9,26.1 C 27.55,26.1 27.54,26.23 27.54,26.58 V 29.43 C 27.54,29.81 27.6,29.87 27.96,29.89 V 30 H 26.1 V 29.9 C 26.46,29.87 26.49,29.81 26.49,29.42 V 26.57 C 26.49,26.19 26.46,26.11 26.1,26.1 V 26 Z M 27.25,28 A 12.67,12.67 0 0,1 28.43,28.08 C 28.91,28.13 29.35,28.28 29.49,28.8 C 29.57,29.08 29.62,29.44 29.79,29.68 C 29.94,29.89 30.19,29.74 30.33,29.6 L 30.43,29.66 C 30.23,29.89 29.81,30 29.43,30 C 28.73,30 28.64,29.44 28.5,28.87 C 28.38,28.4 28.5,28.1 28,28.1 H 27.27 L 27.25,28 Z M 32.44,26 V 26.1 C 32.09,26.12 32,26.2 32,26.57 V 29.42 C 32,29.8 32.09,29.87 32.44,29.89 V 30 H 30.6 V 29.9 C 30.96,29.87 31,29.82 31,29.43 V 26.58 C 31,26.18 31.05,26.12 30.6,26.11 V 26 H 32.44 Z M 37,26 V 27.18 H 36.82 C 36.71,26.48 36.36,26.13 35.65,26.13 H 35.5 V 29.38 C 35.5,29.85 35.63,29.88 36.05,29.89 V 30 H 33.88 V 29.9 C 34.29,29.88 34.5,29.85 34.5,29.38 V 26.13 H 34.28 C 33.54,26.13 33.3,26.53 33.18,27.21 H 33.03 L 33,26 L 37,25.99 Z M 39.5,26 V 26.1 C 39.14,26.12 39,26.2 39,26.58 V 29.42 C 39,29.81 39.14,29.87 39.5,29.89 V 30 H 37.5 V 29.9 C 37.86,29.87 38,29.81 38,29.42 V 26.58 C 38,26.2 37.86,26.12 37.5,26.11 V 26 H 39.5 Z M 43,26 V 27 H 42.84 C 42.76,26.39 42.59,26.12 41.95,26.12 H 41.48 C 41.14,26.12 41,26.19 41,26.55 L 41.03,29.45 C 41.03,29.82 41.14,29.88 41.48,29.88 H 41.92 C 42.63,29.88 42.71,29.46 42.82,28.78 H 43 V 30 H 39.65 V 29.9 C 40.01,29.88 40,29.83 40,29.45 V 26.6 C 40,26.22 40.01,26.12 39.65,26.1 V 26 H 43 Z M 41.98,27.93 V 28.04 H 40.76 V 27.93 H 41.98 Z M 42.18,27.22 L 42.2,28.76 H 42 C 41.92,28.34 41.81,28.04 41.34,28.04 V 27.94 C 41.81,27.94 41.9,27.61 42,27.22 H 42.18 Z M 45.36,26.01 C 45.67,26.01 45.96,26.07 46.24,26.21 L 46.36,26.28 L 46.46,26.29 A 0.1,0.1 0 0,0 46.56,26.23 C 46.58,26.19 46.6,26.08 46.61,26 H 46.77 L 46.74,27.2 H 46.58 A 1.35,1.35 0 0,0 46.43,26.69 C 46.27,26.36 45.96,26.13 45.46,26.13 C 45.09,26.13 44.66,26.31 44.66,26.73 C 44.66,27.29 45.4,27.33 45.81,27.53 C 46.31,27.79 47,28.11 47,28.76 C 47,29.55 46.14,30 45.48,30 A 2.22,2.22 0 0,1 44.5,29.8 A 0.56,0.56 0 0,0 44.27,29.72 A 0.11,0.11 0 0,0 44.17,29.78 C 44.15,29.82 44.14,29.92 44.12,30 H 44 V 28.6 H 44.15 C 44.17,28.83 44.22,29.04 44.3,29.23 C 44.39,29.43 44.51,29.59 44.69,29.71 C 44.86,29.82 45.09,29.88 45.39,29.88 C 45.81,29.88 46.25,29.68 46.25,29.2 C 46.25,28.67 45.6,28.6 45.2,28.4 C 44.7,28.14 44,27.85 44,27.18 C 44,26.48 44.76,26.01 45.36,26.01 Z M 6.24,32 C 6.54,32 6.78,32.04 6.97,32.1 C 7.17,32.18 7.34,32.26 7.49,32.35 C 7.59,32.41 7.65,32.41 7.69,32.38 C 7.74,32.33 7.78,32.16 7.79,32 H 8 C 7.98,32.27 8,32.7 8,33.35 H 7.77 A 3.91,3.91 0 0,0 7.67,32.95 A 0.92,0.92 0 0,0 7.37,32.48 C 7.24,32.35 7.07,32.26 6.89,32.2 C 6.69,32.14 6.49,32.11 6.29,32.11 C 5.26,32.11 5,33.11 5,33.99 C 5,34.9 5.3,35.89 6.34,35.89 C 6.52,35.89 6.71,35.86 6.91,35.79 C 7.49,35.62 7.69,35.16 7.77,34.59 H 8 C 8,35.26 7.98,35.72 8,36 H 7.8 C 7.78,35.84 7.75,35.67 7.7,35.63 C 7.66,35.59 7.6,35.6 7.5,35.65 A 4,4 0 0,1 6.95,35.9 C 6.77,35.97 6.53,36 6.23,36 C 5.04,36 4,35.3 4,34.03 C 4,32.78 5.05,32 6.24,32 Z M 10.75,32 C 11.95,32 13,32.73 13,34 C 13,35.25 11.94,36 10.75,36 C 9.55,36 8.5,35.28 8.5,34 C 8.5,32.75 9.56,32 10.75,32 Z M 10.75,32.1 C 9.75,32.1 9.5,33.16 9.5,34 C 9.5,34.86 9.75,35.9 10.75,35.9 S 12,34.87 12,34.03 C 12,33.18 11.74,32.09 10.75,32.09 Z M 13.5,32 H 15.67 C 16.27,32 17.5,32.17 17.5,33 C 17.5,33.9 16.2,34.1 15.52,34.1 H 14.87 V 33.99 H 15.45 C 16.07,33.99 16.5,33.67 16.5,33 C 16.5,32.42 16.28,32.1 15.53,32.1 C 15.18,32.1 15,32.22 15,32.57 V 35.42 C 15,35.81 15.23,35.87 15.59,35.89 V 36 H 13.5 V 35.9 C 13.86,35.87 14,35.81 14,35.42 V 32.57 C 14,32.19 13.86,32.11 13.5,32.1 V 32 Z M 14.88,34 A 12.77,12.77 0 0,1 16.06,34.08 C 16.54,34.13 16.99,34.28 17.12,34.8 C 17.2,35.05 17.27,35.78 17.64,35.78 C 17.79,35.78 17.87,35.71 17.97,35.6 L 18.07,35.66 C 17.97,35.78 17.86,35.86 17.74,35.92 C 17.63,35.97 17.31,36 17.12,36 C 16.42,36 16.34,35.44 16.19,34.87 C 16.09,34.47 16.1,34.1 15.63,34.1 H 14.9 L 14.88,34 Z M 18.5,32 H 20.44 C 21.12,32 22.26,32.13 22.26,33 C 22.26,33.97 21.06,34.37 20.29,34.37 H 19.62 V 34.27 H 20.22 C 20.9,34.27 21.26,33.7 21.26,33 C 21.26,32.31 21.06,32.1 20.29,32.1 C 20,32.1 20,32.15 20,32.5 V 35.26 C 20,35.71 20.13,35.88 20.52,35.89 V 36 H 18.5 V 35.9 C 18.86,35.88 19,35.81 19,35.43 V 32.65 C 19,32.27 18.86,32.11 18.5,32.1 V 32 Z M 24.65,32 C 25.85,32 27,32.72 27,33.99 C 27,35.24 25.84,36 24.65,36 C 23.45,36 22.5,35.28 22.5,34 C 22.5,32.75 23.46,32 24.65,32 Z M 24.63,32.1 C 23.63,32.1 23.5,33.16 23.5,34 C 23.5,34.86 23.68,35.9 24.67,35.9 C 25.67,35.9 26,34.83 26,33.99 C 26,33.14 25.61,32.09 24.63,32.09 Z M 27.43,32 H 29.37 C 29.97,32 31.5,32.17 31.5,33 C 31.5,33.9 29.9,34.1 29.22,34.1 H 28.57 V 33.99 H 29.15 C 29.76,33.99 30.5,33.67 30.5,33 C 30.5,32.42 29.98,32.1 29.22,32.1 C 29,32.1 29,32.3 29,32.65 V 35.35 C 29,35.73 29.12,35.85 29.48,35.88 V 36 H 27.37 V 35.88 C 27.73,35.86 28.01,35.74 28.01,35.35 V 32.65 C 28.01,32.27 27.79,32.11 27.43,32.1 V 32 Z M 28.58,34 A 12.76,12.76 0 0,1 29.75,34.08 C 30.61,34.18 30.76,34.61 30.99,35.35 C 31.07,35.67 31.15,35.78 31.34,35.78 C 31.41,35.78 31.47,35.76 31.51,35.73 A 1,1 0 0,0 31.67,35.6 L 31.77,35.66 C 31.66,35.78 31.55,35.86 31.44,35.92 C 31.32,35.97 31.17,36 30.98,36 C 30.58,36 30.1,35.82 30,35.41 C 29.87,34.91 29.81,34.1 29.14,34.1 H 28.59 L 28.58,34 Z" fill="rgb(242, 244, 249)"/>
<path d="M 33.96,31.985 L 35.62,35.47 C 35.75,35.82 35.94,35.88 36.08,35.89 V 36 H 34.33 V 35.9 C 34.67,35.88 34.9,35.73 34.72,35.36 L 33.5,32.72 L 33.6,32.62 L 32.48,34.98 C 32.4,35.14 32.35,35.28 32.33,35.38 C 32.28,35.76 32.63,35.88 32.92,35.89 V 36 H 31.6 V 35.9 C 31.8,35.86 31.99,35.66 32.16,35.31 L 33.73,32 H 33.97 Z M 34.67,34.36 V 34.46 H 32.65 L 32.72,34.36 H 34.68 Z M 39.5,32 V 33 H 39.32 C 39.2,32.31 39.02,32.13 38.28,32.13 H 38 V 35.38 C 38,35.85 38.08,35.88 38.5,35.89 V 36 H 36.5 V 35.9 C 36.91,35.88 37,35.85 37,35.38 V 32.13 H 36.7 C 35.96,32.13 35.8,32.32 35.68,33 H 35.5 V 32 H 39.5 Z M 42.54,32 V 32.1 C 42.18,32.12 42,32.2 42,32.58 V 35.42 C 42,35.81 42.18,35.87 42.54,35.89 V 36 H 40.5 V 35.9 C 40.86,35.87 41,35.81 41,35.42 V 32.58 C 41,32.19 40.86,32.12 40.5,32.11 V 32 H 42.54 Z M 45.25,32 C 46.45,32 47.5,32.76 47.5,34.03 C 47.5,35.29 46.44,36 45.25,36 C 44.05,36 43,35.28 43,34 C 43,32.75 44.06,32 45.25,32 Z M 45.25,32.1 C 44.25,32.1 44,33.16 44,34 C 44,34.86 44.25,35.9 45.25,35.9 S 46.5,34.85 46.5,34.01 C 46.5,33.16 46.24,32.1 45.25,32.1 Z M 52,32 V 32.1 C 51.59,32.13 51.46,32.3 51.46,32.7 V 36 H 51.24 L 48.36,32.52 V 35.21 C 48.36,35.74 48.54,35.87 48.99,35.89 V 36 H 47.67 V 35.9 C 48.07,35.86 48.2,35.7 48.2,35.23 V 32.58 C 48.2,32.2 48.03,32.12 47.67,32.11 V 32 H 48.83 L 51.31,34.91 V 32.71 C 51.31,32.27 51.11,32.13 50.68,32.11 V 32 H 52 Z" fill="rgb(242, 244, 249)"/>
</svg>
