<?xml version="1.0" encoding="UTF-8"?>
<!-- generated by Finnhub -->
<svg viewBox="0 0 55.5 55.5" xmlns="http://www.w3.org/2000/svg">
<path d="M 0,0 H 55.5 V 55.5 H 0 Z" fill="rgb(239, 242, 248)"/>
<path d="M 27.069999999999997,10.045 L 18.73,18.68 C 18.03,19.22 17.39,19.82 16.8,20.46 L 22.34,23.74 L 22.67,23.47 L 27.08,18.91 V 10.06 Z M 29.48,19.16 V 10 L 38.43,19.68 C 38.74,19.98 39.03,20.28 39.31,20.59 L 33.81,23.84 L 29.48,19.16 Z M 27.08,38.56 A 8.63,8.63 0 0,1 20.38,34.08 L 14.84,37.35 A 15.02,15.02 0 0,0 27.08,45 V 38.56 Z M 29.48,44.96 V 38.48 A 8.62,8.62 0 0,0 35.71,33.93 L 41.25,37.2 A 15.01,15.01 0 0,1 29.48,44.96 Z M 42.24,34.93 A 14.5,14.5 0 0,0 40.64,22.33 L 35.24,25.53 A 8.34,8.34 0 0,1 36.5,31.53 L 42.24,34.93 Z M 13.82,35.09 L 19.53,31.71 A 8.39,8.39 0 0,1 20.85,25.39 L 15.45,22.19 A 14.5,14.5 0 0,0 13.82,35.09 Z" fill="rgb(1, 112, 187)"/>
<circle cx="28" cy="30" r="6" fill="rgb(40, 169, 223)"/>
</svg>
