<?xml version="1.0" encoding="UTF-8"?>
<!-- generated by Finnhub -->
<svg viewBox="0 0 55.5 55.5" xmlns="http://www.w3.org/2000/svg">
<path d="M 0,0 H 55.5 V 55.5 H 0 Z" fill="rgb(30, 37, 80)"/>
<path d="M 18.41,16.905 A 16.17,16.17 0 0,0 14,28 H 22 C 22.07,23.36 25.41,19.66 30.14,19.66 A 8.45,8.45 0 0,1 37,23 V 13.53 A 18.16,18.16 0 0,0 29.86,12 A 16.2,16.2 0 0,0 18.42,16.92 Z" fill="rgb(167, 206, 52)"/>
<path d="M 21.99,29.985 H 14.1 C 14.5,33.7 16,36.95 18.82,39.53 A 16.63,16.63 0 0,0 30.1,44 C 32.54,44 34.41,43.4 37,42.59 V 33.12 A 8.95,8.95 0 0,1 30.26,36.34 C 26.08,36.34 22.76,33.53 22,30 Z" fill="rgb(254, 254, 253)"/>
</svg>
