<?xml version="1.0" encoding="UTF-8"?>
<!-- generated by Finnhub -->
<svg viewBox="0 0 55.5 55.5" xmlns="http://www.w3.org/2000/svg">
<path d="M 0,28 A 28,28 0 1,1 56,28 A 28,28 0 1,1 0,28 Z" fill="rgb(6, 43, 95)"/>
<path d="M 17.99,20.985 H 26 V 24 H 21 V 26 H 26 V 29 H 21 V 32 H 26 V 35 H 18 V 21 Z M 17,32 H 13.45 C 10.68,32 8.98,30.43 9,27.92 C 9.02,25.4 10.76,24 13.4,24 H 17 V 21 H 13.45 C 9.43,21 6,23.66 6,27.92 C 6,32.06 9.02,35 13.41,35 H 17 V 32 Z M 27,21 L 32.13,35 H 34.77 L 40,21 H 37 L 33.47,30.54 L 30,21 H 27 Z M 47.1,35 H 50 L 44.6,21 H 41.9 L 36.5,35 H 39.5 L 40.65,32 H 45.89 L 47.1,35 Z M 41.81,29 L 43.27,24.69 L 44.74,28.99 H 41.81 Z" fill="rgb(254, 254, 253)"/>
<path d="M 36.370000000000005,17.985 L 33.47,26 L 30.62,18 H 36.38 Z" fill="rgb(212, 210, 3)"/>
</svg>
