<?xml version="1.0" encoding="UTF-8"?>
<!-- generated by Finnhub -->
<svg viewBox="0 0 55.5 55.5" xmlns="http://www.w3.org/2000/svg">
<path d="M 0,0 H 55.5 V 55.5 H 0 Z" fill="rgb(239, 242, 248)"/>
<path d="M 25.99,19.085 V 14 C 18.13,14 12,19.42 12,26.82 C 12,36.32 21.33,43.57 26,46 V 39.75 C 23,37.73 17,32.22 17,26.3 C 17,20.38 23,19.04 26,19.1 Z M 29,14 H 44 L 42.18,19 H 34 V 25 H 40 L 38.25,30 H 34 V 42.72 L 29,46 V 14 Z" fill="rgb(1, 89, 63)"/>
<path d="M 25.56,23.544999999999998 L 25.22,25 C 25.1,24.74 24.64,24.22 23.71,24.22 C 22.55,24.22 22.55,25.33 22.55,25.56 C 23.66,25.06 24.41,25.78 24.41,26.11 C 24.41,26.44 24.06,26.89 23.36,26.89 C 22.81,26.89 22.36,26.52 22.2,26.33 C 21.97,26.59 21.5,27.31 21.5,28.11 C 21.5,29.11 22.9,30 23.71,30 S 25.68,29.44 25.68,29 C 25.68,28.56 25.57,28.11 24.87,28.11 C 24.31,28.11 23.79,28.41 23.59,28.56 C 23.79,28 24.34,27 24.99,27 C 25.79,27 26.61,27.78 26.96,27.78 C 27.3,27.78 27.42,27.67 28,27.33 C 27.42,28.89 26.84,28.78 26.38,28.67 C 26.38,30.11 24.64,31 23.13,31 C 21.63,31 20,30.11 20,28.44 C 20,27.11 21.24,26.11 21.86,25.78 C 21.74,25.78 21.51,25.62 21.51,25 C 21.51,24.22 22.67,23 23.71,23 C 24.54,23 25.29,23.37 25.57,23.56 Z" fill="rgb(1, 89, 63)"/>
</svg>
