<?xml version="1.0" encoding="UTF-8"?>
<!-- generated by Finnhub -->
<svg viewBox="0 0 55.5 55.5" xmlns="http://www.w3.org/2000/svg">
<path d="M 0,0 H 55.5 V 55.5 H 0 Z" fill="rgb(239, 242, 248)"/>
<path d="M 25.919999999999998,21.985 H 28 V 22.02 L 27,34 H 24.02 L 24.34,32 H 20.5 L 19,34 H 16 L 25.88,22.02 H 25.93 V 22 Z M 22,30 H 24.66 L 25.37,25.52 L 22,30 Z M 37,22 H 34.08 L 28,34 H 30.92 L 31,33.83 V 34 H 34.9 L 36,31 H 32.44 L 37,22 Z M 15.6,31.56 C 12.45,34.23 8.5,34.8 6.79,32.83 C 5.08,30.86 6.24,27.1 9.39,24.43 C 12.55,21.77 16.49,21.2 18.21,23.17 C 19.05,24.13 19.2,25.52 18.76,27 H 15.96 C 16.06,26.43 15.96,25.92 15.61,25.55 C 14.71,24.59 12.61,24.92 10.89,26.27 C 9.17,27.63 8.5,29.5 9.39,30.45 C 10.22,31.34 12.1,31.12 13.74,30 H 17.14 C 16.69,30.55 16.18,31.07 15.6,31.56 Z M 46.6,31.56 C 43.45,34.23 39.5,34.8 37.79,32.83 C 36.08,30.86 37.24,27.1 40.39,24.43 C 43.55,21.77 47.49,21.2 49.21,23.17 C 50.05,24.13 50.2,25.52 49.76,27 H 46.96 C 47.06,26.43 46.96,25.92 46.61,25.55 C 45.71,24.59 43.61,24.92 41.89,26.27 C 40.17,27.63 39.5,29.5 40.39,30.45 C 41.22,31.34 43.1,31.12 44.74,30 H 48.14 C 47.69,30.55 47.18,31.07 46.6,31.56 Z" fill="rgb(23, 13, 85)"/>
</svg>
