<?xml version="1.0" encoding="UTF-8"?>
<!-- generated by Finnhub -->
<svg viewBox="0 0 55.5 55.5" xmlns="http://www.w3.org/2000/svg">
<path d="M 0,0 H 55.5 V 55.5 H 0 Z" fill="rgb(1, 66, 108)"/>
<path d="M 13.99,17.985 H 29.74 C 31.1,18 40,17.94 40,22.74 C 40,26.7 35.3,28 33,28 A 322.1,322.1 0 0,0 41.32,35.21 L 41.62,35.44 C 42.32,35.99 43.63,37 46,37 V 38 H 37 L 26.79,29 H 23 V 35.21 C 22.93,35.93 23.26,37 25.22,37 H 28 V 38 H 14 V 37 H 15.04 C 16.09,36.95 18,36.44 18,35.21 V 21 A 2.65,2.65 0 0,0 15.55,19 H 14 V 18 Z M 23,19 V 28 H 27.55 C 29.36,28 33,27.09 33,23.5 S 29.61,19 27.55,19 H 23 Z" fill="rgb(239, 242, 248)"/>
</svg>
