<?xml version="1.0" encoding="UTF-8"?>
<!-- generated by Finnhub -->
<svg viewBox="0 0 55.5 55.5" xmlns="http://www.w3.org/2000/svg">
<path d="M 0,0 H 55.5 V 55.5 H 0 Z" fill="rgb(239, 242, 248)"/>
<path d="M 43.690000000000005,34.105 A 15.05,15.05 0 0,0 43.7,21.88 A 15.85,15.85 0 0,0 40.02,16.68 A 17.73,17.73 0 0,0 28,12 A 17.74,17.74 0 0,0 15.98,16.7 A 15.85,15.85 0 0,0 12.29,21.89 A 15.05,15.05 0 0,0 12.29,34.13 C 13.16,36.09 14.39,37.83 15.98,39.33 A 17.74,17.74 0 0,0 28,44 A 17.73,17.73 0 0,0 40.02,39.3 C 41.62,37.8 42.84,36.07 43.71,34.11 Z M 36.42,19.82 L 35.67,17.7 A 0.38,0.38 0 0,0 35.45,17.47 A 15,15 0 0,0 23.57,17.02 A 11.42,11.42 0 0,0 18.91,20.32 A 11.06,11.06 0 0,0 16.33,25.45 C 15.57,29.23 16.12,32.45 17.97,35.1 C 19.81,37.74 22.59,39.31 26.31,39.81 C 28.93,40.17 31.69,40.01 34.56,39.37 L 37.31,38.74 A 0.52,0.52 0 0,0 37.65,38.48 L 38.98,36.17 A 0.1,0.1 0 0,0 38.98,36.06 A 0.1,0.1 0 0,0 38.88,36.01 A 0.52,0.52 0 0,0 38.57,36.17 A 10.04,10.04 0 0,1 33.57,38.93 A 13,13 0 0,1 27.81,39.05 A 10.93,10.93 0 0,1 20.99,34.61 A 13.85,13.85 0 0,1 18.19,26.94 A 9.24,9.24 0 0,1 21.06,19.46 C 23.71,16.94 27,16.12 30.91,16.99 C 32.74,17.39 34.27,18.12 35.51,19.15 L 35.87,19.55 C 36.03,19.74 36.15,19.87 36.24,19.95 C 36.46,20.13 36.52,20.09 36.42,19.82 Z M 37.15,31.86 A 2.24,2.24 0 0,1 35.53,33.35 A 5.2,5.2 0 0,1 32.63,33.41 C 31.58,33.11 30.95,32.5 30.77,31.56 A 19,19 0 0,0 30.58,30.73 C 30.5,30.42 30.46,30.43 30.46,30.75 C 30.44,31.73 30.45,32.75 30.48,33.85 C 30.48,33.95 30.54,34 30.65,33.99 C 31.5,33.97 32.35,33.97 33.2,33.99 C 36.2,34.08 37.8,33.02 38.02,30.84 A 2.8,2.8 0 0,0 37.59,28.94 C 37.23,28.41 36.69,28 35.96,27.71 A 22.2,22.2 0 0,0 34.9,27.33 A 12.99,12.99 0 0,1 32.2,26.11 C 31.89,25.91 31.7,25.61 31.65,25.22 C 31.51,24.3 31.79,23.57 32.5,23.06 C 33.21,22.54 34.02,22.36 34.91,22.54 A 3.8,3.8 0 0,1 37.06,23.76 C 37.32,24.05 37.4,24.01 37.32,23.64 A 3.83,3.83 0 0,0 36.77,22.45 A 0.37,0.37 0 0,0 36.57,22.3 A 5.44,5.44 0 0,0 32.82,22.36 C 31.49,22.9 30.8,23.84 30.77,25.17 C 30.75,26.02 31.05,26.75 31.65,27.35 A 4.9,4.9 0 0,0 34.13,28.6 C 34.73,28.77 35.18,28.91 35.47,29.03 C 35.94,29.23 36.33,29.49 36.64,29.81 C 37.23,30.41 37.4,31.1 37.15,31.86 Z M 24.42,22.5 C 24.37,22.5 24.35,22.53 24.35,22.58 V 27.61 C 24.35,27.71 24.4,27.77 24.51,27.76 C 25.46,27.73 26.42,27.74 27.41,27.78 C 27.76,27.79 28.18,27.75 28.51,27.67 A 0.3,0.3 0 0,0 28.7,27.49 A 0.44,0.44 0 0,1 28.82,27.32 C 29.02,27.16 29.01,27.19 29,27.4 V 28.37 C 29,28.56 29,28.57 28.82,28.39 C 28.55,28.13 28.25,27.98 27.93,28 H 24.54 C 24.4,28 24.34,28.18 24.34,28.3 C 24.37,29.92 24.36,31.4 24.31,32.76 C 24.29,33.3 24.55,33.68 25.08,33.88 C 25.3,33.96 25.29,34 25.06,34 H 22.31 C 22.21,34 22.21,33.96 22.27,33.9 C 22.62,33.58 22.99,33.19 23,32.73 C 23.02,29.58 23.02,26.5 23,23.49 C 23,22.87 22.57,22.44 22.1,22.21 C 21.8,22.07 21.8,22 22.15,22 L 29.77,22.01 C 29.87,22.01 29.92,22.06 29.92,22.16 V 23.38 C 29.92,23.42 29.9,23.46 29.87,23.48 C 29.85,23.51 29.81,23.5 29.75,23.45 A 0.26,0.26 0 0,1 29.67,23.33 C 29.51,22.83 29.18,22.55 28.7,22.53 A 41.93,41.93 0 0,0 24.42,22.5 Z" fill="rgb(19, 70, 40)" fill-rule="evenodd"/>
</svg>
