<?xml version="1.0" encoding="UTF-8"?>
<!-- generated by Finnhub -->
<svg viewBox="0 0 55.5 55.5" xmlns="http://www.w3.org/2000/svg">
<path d="M 0,0 H 55.5 V 55.5 H 0 Z" fill="rgb(239, 242, 248)"/>
<path d="M 39.760000000000005,19.285 C 39.27,19.3 38.87,19.7 38.87,20.2 V 21.1 C 38.87,21.6 39.27,22 39.77,22 H 41.57 C 42.07,22 42.47,21.6 42.47,21.1 V 20.2 C 42.47,19.7 42.07,19.3 41.57,19.3 H 39.77 Z M 40.08,20 A 0.4,0.4 0 0,0 39.68,20.4 V 20.9 C 39.68,21.12 39.86,21.3 40.08,21.3 H 41.26 A 0.4,0.4 0 0,0 41.66,20.9 V 20.4 A 0.4,0.4 0 0,0 41.26,20 H 40.08 Z M 48.1,19.3 H 45.44 V 22 H 48.1 C 48.6,22 49,21.6 49,21.1 V 20.2 C 49,19.7 48.6,19.3 48.1,19.3 Z M 47.8,20 H 46.24 V 21.3 H 47.8 A 0.4,0.4 0 0,0 48.2,20.9 V 20.4 A 0.4,0.4 0 0,0 47.8,20 Z" fill="rgb(158, 179, 135)" fill-rule="evenodd"/>
<path d="M 5.99,20.384999999999998 C 6,19.9 6.4,19.5 6.9,19.5 H 8.14 C 8.64,19.5 9.04,19.9 9.04,20.4 H 8.67 V 20.32 A 0.5,0.5 0 0,0 8.17,19.82 H 6.87 A 0.5,0.5 0 0,0 6.37,20.32 V 21.18 C 6.37,21.45 6.6,21.68 6.87,21.68 H 8.17 A 0.5,0.5 0 0,0 8.67,21.18 V 21.07 H 9.04 V 21.1 C 9.04,21.6 8.64,22 8.14,22 H 6.9 A 0.9,0.9 0 0,1 6,21.1 V 20.4 Z" fill="rgb(70, 78, 38)"/>
<path d="M 43.550000000000004,19.285 H 42.84 V 22 H 45 V 21.3 H 43.56 V 19.3 Z M 35.9,19.3 C 35.4,19.3 35,19.7 35,20.2 V 21.1 C 35,21.6 35.4,22 35.9,22 H 37.49 C 37.99,22 38.39,21.6 38.39,21.1 V 20.47 H 36.6 V 21 H 37.63 A 0.4,0.4 0 0,1 37.25,21.3 H 36.22 A 0.4,0.4 0 0,1 35.82,20.9 V 20.4 C 35.82,20.18 36,20 36.22,20 H 37.25 A 0.4,0.4 0 0,1 37.6,20.2 H 38.39 C 38.39,19.7 37.99,19.3 37.49,19.3 H 35.9 Z" fill="rgb(158, 179, 135)"/>
<path d="M 10.57,19.485 C 10.08,19.5 9.68,19.9 9.68,20.4 V 21.1 C 9.68,21.6 10.08,22 10.58,22 H 11.93 A 0.9,0.9 0 0,0 12.83,21.2 H 12.44 A 0.5,0.5 0 0,1 11.94,21.68 H 10.57 A 0.5,0.5 0 0,1 10.07,21.18 V 20.32 C 10.07,20.05 10.29,19.82 10.57,19.82 H 11.94 C 12.22,19.82 12.44,20.05 12.44,20.32 V 20.48 H 10.07 V 20.84 H 12.83 V 20.4 C 12.83,19.9 12.43,19.5 11.93,19.5 H 10.58 Z" fill="rgb(70, 78, 38)"/>
<path d="M 21.889999999999997,19.485 C 21.4,19.5 21,19.9 21,20.4 V 21.1 C 21,21.6 21.4,22 21.9,22 H 23.25 A 0.9,0.9 0 0,0 24.15,21.2 H 23.75 A 0.5,0.5 0 0,1 23.25,21.68 H 21.9 A 0.5,0.5 0 0,1 21.4,21.18 V 20.84 H 24.15 V 20.4 C 24.15,19.9 23.75,19.5 23.25,19.5 H 21.9 Z M 23.76,20.48 V 20.32 A 0.5,0.5 0 0,0 23.26,19.82 H 21.89 A 0.5,0.5 0 0,0 21.39,20.32 V 20.48 H 23.76 Z" fill="rgb(70, 78, 38)" fill-rule="evenodd"/>
<path d="M 13.99,19.835 A 0.9,0.9 0 0,1 14.71,19.5 H 15.73 C 16.23,19.5 16.63,19.9 16.63,20.4 V 22 H 16.26 V 20.32 A 0.5,0.5 0 0,0 15.76,19.82 H 14.5 A 0.5,0.5 0 0,0 14,20.32 V 22 H 13.63 V 19.54 H 14 V 19.85 Z M 20,21.4 V 20.86 H 19.66 V 21.27 A 0.4,0.4 0 0,1 19.26,21.67 H 18.73 A 0.4,0.4 0 0,1 18.33,21.27 V 19.92 H 19.93 V 19.57 H 18.33 V 19 H 17.87 V 19.57 H 17.37 V 19.92 H 17.87 V 21.4 C 17.87,21.73 18.14,22 18.47,22 H 19.4 A 0.6,0.6 0 0,0 20,21.4 Z M 25.39,20.32 V 22 H 25 V 19.54 H 25.39 V 19.84 A 0.9,0.9 0 0,1 26.09,19.5 H 26.73 C 27.23,19.5 27.63,19.9 27.63,20.4 V 20.7 H 27.23 V 20.32 A 0.5,0.5 0 0,0 26.73,19.82 H 25.89 A 0.5,0.5 0 0,0 25.39,20.32 Z M 28.83,20.32 V 22 H 28.44 V 19.54 H 28.83 V 19.84 A 0.9,0.9 0 0,1 29.53,19.5 H 30.18 C 30.68,19.5 31.08,19.9 31.08,20.4 V 20.7 H 30.67 V 20.32 A 0.5,0.5 0 0,0 30.17,19.82 H 29.33 A 0.5,0.5 0 0,0 28.83,20.32 Z M 33.55,19.5 C 33.99,19.5 34.35,19.86 34.35,20.3 V 22 H 33.92 V 21.8 A 0.7,0.7 0 0,1 33.43,22 H 32.23 A 0.7,0.7 0 0,1 31.54,21.3 V 21.14 C 31.54,20.75 31.85,20.44 32.24,20.44 H 33.43 A 0.7,0.7 0 0,1 33.92,20.64 V 20.32 A 0.5,0.5 0 0,0 33.42,19.82 H 32.46 A 0.5,0.5 0 0,0 31.96,20.32 H 31.54 V 20.3 C 31.54,19.86 31.89,19.5 32.34,19.5 H 33.54 Z M 33.92,21.13 A 0.4,0.4 0 0,0 33.52,20.81 H 32.32 A 0.4,0.4 0 0,0 31.92,21.21 V 21.22 C 31.92,21.44 32.09,21.62 32.32,21.62 H 33.52 A 0.4,0.4 0 0,0 33.92,21.3 V 21.13 Z" fill="rgb(70, 78, 38)"/>
<path d="M 8.950000000000001,24.985 H 11.84 L 13.23,27.43 H 16 L 17.44,29.93 L 16,32.41 H 13.12 L 11.73,30 H 8.96 L 7.52,27.51 L 8.96,25 Z M 26.8,25 H 29.66 L 31.09,27.5 L 29.66,30 H 26.8 L 25.37,27.5 L 26.8,25 Z M 16.02,34 H 18.9 L 20.34,36.52 L 18.9,39 H 16.02 L 14.58,36.52 L 16.02,34 Z M 33.14,32 H 30.26 L 28.82,34.5 L 30.26,37 H 33.14 L 34.58,34.5 L 33.14,32 Z M 43.76,27.48 L 42.38,29.86 L 43.76,32.25 L 42.33,34.72 H 39.5 L 38.13,32.34 H 35.36 L 33.94,29.87 L 35.36,27.4 H 38.11 L 39.49,25 H 42.34 L 43.77,27.48 Z M 45.75,36 H 42.86 L 41.42,38.5 L 42.86,41 H 45.75 L 47.19,38.5 L 45.75,36 Z" fill="rgb(158, 179, 135)"/>
</svg>
