<?xml version="1.0" encoding="UTF-8"?>
<!-- generated by Finnhub -->
<svg viewBox="0 0 55.5 55.5" xmlns="http://www.w3.org/2000/svg">
<path d="M 0,0 H 55.5 V 55.5 H 0 Z" fill="rgb(239, 242, 248)"/>
<path d="M 27.99,43.985 A 16,16 0 1,0 28,12 A 16,16 0 0,0 28,44 Z M 28,45 A 17,17 0 1,0 28,11 A 17,17 0 0,0 28,45 Z" fill="url(#b)" fill-rule="evenodd"/>
<circle cx="28" cy="28" r="15" fill="rgb(171, 122, 44)"/>
<path d="M 15.28,33.855 A 28.8,28.8 0 0,0 20.62,31.09 A 8.03,8.03 0 0,0 24.67,35.28 A 36.34,36.34 0 0,0 21.71,40.51 A 14,14 0 0,1 19.92,39.44 L 22.5,36 L 21.5,35.5 L 18.61,38.39 C 18.26,38.07 17.93,37.74 17.61,37.39 L 20.5,34.5 L 19.5,34 L 16.57,36.1 A 14,14 0 0,1 15.29,33.87 Z M 14.67,32.29 C 16.24,31.94 18.24,31.18 20.27,30.09 A 8,8 0 0,1 20.41,25.47 C 18.4,24.39 16.41,23.62 14.83,23.25 C 14.63,23.79 14.47,24.34 14.34,24.9 L 18,26 V 27.5 L 14.03,27.06 A 14.24,14.24 0 0,0 14.03,29 H 18 V 30 L 14.46,31.57 L 14.66,32.29 Z M 15.49,21.71 A 14,14 0 0,1 16.27,20.35 L 19.5,22.5 L 20,22 L 17.15,19.15 C 17.45,18.78 17.77,18.43 18.11,18.09 L 21,20.5 L 22,20 L 19.36,16.98 A 14,14 0 0,1 21.9,15.4 A 37.8,37.8 0 0,0 24.93,20.61 A 8.03,8.03 0 0,0 20.79,24.52 A 28.98,28.98 0 0,0 15.49,21.71 Z M 23.09,14.88 A 18,18 0 0,0 25.54,20.38 A 8,8 0 0,1 30.46,20.38 A 18,18 0 0,0 32.9,14.88 A 13.9,13.9 0 0,0 30.09,14.15 L 29,18.5 L 28,18 L 28.44,14 A 14.22,14.22 0 0,0 26.5,14.08 V 18 H 25.5 L 24.33,14.49 C 23.91,14.6 23.5,14.73 23.1,14.89 Z M 34.1,15.4 A 37.8,37.8 0 0,1 31.07,20.61 A 8.03,8.03 0 0,1 35.21,24.52 C 36.84,23.43 38.61,22.47 40.51,21.71 A 14,14 0 0,0 39.33,19.78 L 36,22 L 35,21 L 37.9,18.1 C 37.56,17.76 37.2,17.44 36.84,17.14 L 33.5,20 L 33,19.5 L 35.3,16.05 C 34.91,15.81 34.51,15.6 34.1,15.4 Z M 41.17,23.25 A 23.86,23.86 0 0,0 35.59,25.47 A 8,8 0 0,1 35.72,30.1 A 23.34,23.34 0 0,0 41.33,32.29 C 41.53,31.65 41.7,30.99 41.81,30.31 L 37,29 L 37.5,28 L 42,28.45 A 14.27,14.27 0 0,0 41.96,26.95 L 37.5,26.5 V 25.5 L 41.47,24.18 C 41.38,23.86 41.28,23.55 41.17,23.25 Z M 40.71,33.87 A 28.8,28.8 0 0,1 35.38,31.09 A 8.03,8.03 0 0,1 31.33,35.28 A 36.33,36.33 0 0,1 34.29,40.51 A 14,14 0 0,0 35.89,39.57 L 33.5,36 L 34.5,35 L 37.65,38.15 C 37.91,37.9 38.15,37.65 38.4,37.38 L 35.5,34 L 36,33 L 39.45,36.06 C 39.93,35.38 40.35,34.64 40.71,33.87 Z M 32.98,41.09 C 32.84,39.81 32.08,37.82 30.71,35.53 A 7.99,7.99 0 0,1 25.29,35.53 C 23.92,37.82 23.16,39.81 23.02,41.09 C 23.82,41.39 24.66,41.63 25.52,41.79 L 26,38 H 27 V 41.96 A 14.21,14.21 0 0,0 29,41.96 V 38 H 30 L 31.35,41.6 C 31.9,41.46 32.45,41.3 32.98,41.09 Z M 20.85,25.72 A 7.5,7.5 0 0,0 20.73,29.85 A 27.9,27.9 0 0,0 23.98,27.75 C 22.98,27 21.92,26.31 20.85,25.72 Z M 24.47,28.13 C 23.4,29.08 22.27,29.98 21.04,30.81 A 7.53,7.53 0 0,0 24.95,34.86 A 43.3,43.3 0 0,1 27.69,31.3 A 20.2,20.2 0 0,0 24.47,28.14 Z M 28,30.93 A 39.8,39.8 0 0,0 24.9,27.75 A 39.8,39.8 0 0,0 28,24.57 A 39.8,39.8 0 0,0 31.1,27.75 A 39.8,39.8 0 0,0 28,30.93 Z M 28,31.67 A 33.07,33.07 0 0,0 25.55,35.09 A 7.49,7.49 0 0,0 30.45,35.09 C 29.77,33.99 28.95,32.84 28,31.67 Z M 31.05,34.86 A 43.3,43.3 0 0,0 28.31,31.3 L 29,30.5 A 20.2,20.2 0 0,1 31.53,28.13 C 32.6,29.08 33.73,29.98 34.96,30.81 A 7.53,7.53 0 0,1 31.05,34.86 Z M 24.47,27.36 C 23.45,26.46 22.37,25.6 21.21,24.81 A 7.53,7.53 0 0,1 25.22,21.03 C 25.96,22.07 26.78,23.14 27.69,24.2 L 27,25 A 20.2,20.2 0 0,1 24.47,27.37 Z M 29,25 A 36.1,36.1 0 0,1 28.31,24.2 C 29.22,23.14 30.04,22.07 30.78,21.03 C 32.54,21.73 33.98,23.09 34.78,24.81 C 33.63,25.61 32.55,26.47 31.53,27.37 A 20.2,20.2 0 0,1 29,25 Z M 28,23.83 A 33.45,33.45 0 0,0 30.19,20.83 A 7.5,7.5 0 0,0 25.81,20.83 C 26.44,21.79 27.17,22.8 28,23.83 Z M 32.02,27.75 C 33.02,27 34.08,26.31 35.15,25.72 A 7.5,7.5 0 0,1 35.27,29.85 A 27.9,27.9 0 0,1 32.02,27.75 Z M 29,28 A 1,1 0 1,1 27,28 A 1,1 0 0,1 29,28 Z M 33,24.5 L 31.5,23 L 30,24.5 L 31.5,26 L 33,24.5 Z M 24.5,23 L 26,24.5 L 24.5,26 L 23,24.5 L 24.5,23 Z M 26,31.5 L 24.5,30 L 23,31.5 L 24.5,33 L 26,31.5 Z M 31.5,30 L 33,31.5 L 31.5,33 L 30,31.5 L 31.5,30 Z M 27,21 H 29 L 28,22 L 27,21 Z M 28,33.5 L 27,34.5 H 29 L 28,33.5 Z M 34.5,27 L 33.5,28 L 34.5,29 V 27 Z M 22,28 L 21,27 V 29 L 22,28 Z" fill="url(#a)" fill-rule="evenodd"/>
<path d="M 28.49,27.985 A 0.5,0.5 0 1,1 27.5,28 A 0.5,0.5 0 0,1 28.5,28 Z" fill="rgb(250, 245, 232)"/>
<defs>
<linearGradient id="b" x1="17" x2="37.5" y1="16.5" y2="41" gradientUnits="userSpaceOnUse">
<stop stop-color="rgb(189, 149, 70)" offset="0"/>
<stop stop-color="rgb(249, 232, 180)" offset=".48"/>
<stop stop-color="rgb(182, 148, 84)" offset="1"/>
</linearGradient>
<linearGradient id="a" x1="21" x2="34" y1="17" y2="39.5" gradientUnits="userSpaceOnUse">
<stop stop-color="rgb(218, 182, 93)" offset="0"/>
<stop stop-color="rgb(254, 253, 251)" offset=".49"/>
<stop stop-color="rgb(210, 168, 58)" offset="1"/>
</linearGradient>
</defs>
</svg>
