<?xml version="1.0" encoding="UTF-8"?>
<!-- generated by Finnhub -->
<svg viewBox="0 0 55.5 55.5" xmlns="http://www.w3.org/2000/svg">
<path d="M 0,0 H 55.5 V 55.5 H 0 Z" fill="rgb(239, 242, 248)"/>
<path d="M 21.65,30.985 C 21.31,31 21.01,30.93 20.76,30.8 A 1.34,1.34 0 0,1 20,29.58 C 20,29.29 20.08,29.03 20.25,28.78 C 20.42,28.54 20.65,28.35 20.95,28.21 C 21.25,28.07 21.57,28 21.92,28 C 22.26,28 22.52,28.07 22.7,28.22 C 22.88,28.37 22.97,28.57 22.97,28.84 A 0.3,0.3 0 0,1 22.95,28.99 C 22.94,29.02 22.91,29.03 22.87,29.03 H 22.36 V 28.9 C 22.36,28.65 22.3,28.47 22.16,28.34 A 0.76,0.76 0 0,0 21.62,28.14 C 21.3,28.14 21.05,28.25 20.86,28.46 C 20.69,28.66 20.6,28.95 20.6,29.3 C 20.6,29.73 20.72,30.08 20.97,30.34 C 21.22,30.61 21.57,30.74 22.02,30.74 C 22.2,30.74 22.36,30.72 22.48,30.68 C 22.62,30.64 22.77,30.58 22.93,30.5 C 22.96,30.5 22.97,30.5 22.98,30.53 C 23,30.54 23,30.56 22.99,30.57 A 2.3,2.3 0 0,1 21.66,31 Z M 20.43,28.94 L 22.49,28.91 V 29.03 H 20.44 L 20.43,28.94 Z M 18.5,31 C 18.48,31 18.47,30.98 18.47,30.95 C 18.47,30.92 18.47,30.91 18.49,30.91 C 18.87,30.91 19,30.78 19,30.39 V 29.17 C 19,28.87 18.94,28.65 18.81,28.52 C 18.69,28.38 18.51,28.31 18.25,28.31 C 18.05,28.31 17.84,28.37 17.63,28.48 C 17.43,28.6 17.26,28.75 17.11,28.95 L 17.07,28.86 C 17.32,28.56 17.55,28.36 17.79,28.21 C 18.02,28.07 18.27,28 18.52,28 C 18.82,28 19.05,28.08 19.22,28.24 C 19.38,28.4 19.47,28.62 19.47,28.92 V 30.39 C 19.47,30.78 19.58,30.91 19.97,30.91 C 19.99,30.91 20,30.92 20,30.95 C 20,30.99 20,31 19.98,31 H 18.49 Z M 16.29,31 C 16.27,31 16.26,30.98 16.26,30.95 C 16.26,30.92 16.27,30.91 16.29,30.91 C 16.68,30.91 16.79,30.78 16.79,30.39 V 28.9 C 16.79,28.73 16.77,28.6 16.73,28.53 C 16.69,28.46 16.61,28.43 16.51,28.43 C 16.42,28.43 16.27,28.46 16.07,28.53 H 16.05 A 0.05,0.05 0 0,1 16,28.5 C 16,28.48 16,28.46 16.03,28.45 L 16.98,28.04 L 17.03,28.03 C 17.07,28.03 17.13,28.09 17.18,28.2 C 17.24,28.32 17.26,28.47 17.26,28.65 V 30.39 C 17.26,30.78 17.38,30.91 17.77,30.91 C 17.79,30.91 17.8,30.92 17.8,30.95 C 17.8,30.99 17.79,31 17.77,31 H 16.3 Z M 15.13,30.99 A 0.16,0.16 0 0,1 15.06,31 C 14.98,31 14.91,30.94 14.85,30.83 A 0.97,0.97 0 0,1 14.75,30.38 V 28.98 C 14.75,28.42 14.58,28.14 14.24,28.14 C 14.04,28.14 13.91,28.2 13.81,28.31 C 13.71,28.42 13.65,28.55 13.61,28.69 A 0.55,0.55 0 0,1 13.51,28.91 C 13.48,28.97 13.41,29 13.31,29 A 0.3,0.3 0 0,1 13.1,28.93 A 0.22,0.22 0 0,1 13.03,28.77 C 13.03,28.65 13.12,28.53 13.29,28.42 A 2.38,2.38 0 0,1 14.53,28 C 14.76,28 14.93,28.06 15.04,28.2 C 15.16,28.32 15.22,28.5 15.22,28.75 V 30.14 C 15.22,30.31 15.24,30.44 15.29,30.52 C 15.34,30.6 15.42,30.64 15.53,30.64 C 15.63,30.64 15.78,30.6 15.94,30.54 H 15.96 C 15.98,30.54 15.99,30.55 16,30.58 C 16,30.6 16,30.61 15.97,30.62 L 15.13,30.99 Z M 13.64,30.99 A 0.74,0.74 0 0,1 13.16,30.85 A 0.49,0.49 0 0,1 13.19,30.09 C 13.33,29.99 13.55,29.89 13.85,29.79 L 14.84,29.45 L 14.86,29.55 L 13.99,29.85 A 0.87,0.87 0 0,0 13.65,30.05 A 0.35,0.35 0 0,0 13.55,30.29 C 13.55,30.41 13.59,30.51 13.68,30.59 C 13.76,30.68 13.88,30.72 14.01,30.72 A 0.9,0.9 0 0,0 14.41,30.6 L 14.93,30.32 L 14.94,30.42 L 14.34,30.77 C 14.2,30.85 14.08,30.91 13.97,30.94 C 13.87,30.98 13.76,30.99 13.64,30.99 Z M 10.99,28.86 C 11.26,28.52 11.47,28.3 11.61,28.18 C 11.76,28.06 11.9,28 12.03,28 C 12.13,28 12.25,28.03 12.35,28.1 C 12.45,28.15 12.5,28.23 12.5,28.31 C 12.5,28.38 12.48,28.43 12.43,28.48 A 0.25,0.25 0 0,1 12.25,28.55 C 12.2,28.55 12.16,28.54 12.13,28.52 A 2.04,2.04 0 0,1 12.01,28.44 A 0.61,0.61 0 0,0 11.88,28.34 A 0.32,0.32 0 0,0 11.74,28.32 C 11.66,28.32 11.58,28.36 11.48,28.43 C 11.39,28.51 11.24,28.68 11.02,28.94 L 10.99,28.86 Z M 10.27,31 C 10.25,31 10.25,30.98 10.25,30.95 C 10.25,30.92 10.25,30.91 10.27,30.91 C 10.61,30.91 10.74,30.81 10.74,30.38 V 28.88 C 10.74,28.54 10.67,28.39 10.48,28.39 C 10.39,28.39 10.26,28.43 10.06,28.51 H 10.05 C 10.03,28.51 10.01,28.5 10,28.48 C 10,28.45 10,28.44 10.02,28.43 L 10.92,28.01 A 0.1,0.1 0 0,1 10.96,28 C 11.14,28 11.18,28.48 11.18,28.62 V 30.38 C 11.18,30.92 11.55,30.91 11.92,30.91 C 11.94,30.91 11.95,30.92 11.95,30.95 S 11.94,31 11.92,31 H 10.27 Z M 7.1,26 A 5,5 0 0,1 8,26.07 C 8.25,26.12 8.49,26.2 8.74,26.31 L 8.8,26.36 L 8.83,26.48 L 8.93,27.39 C 8.93,27.41 8.91,27.42 8.88,27.43 C 8.85,27.43 8.83,27.42 8.83,27.4 C 8.57,26.54 7.98,26.12 7.07,26.12 C 6.59,26.12 6.17,26.22 5.79,26.4 C 5.43,26.6 5.15,26.86 4.95,27.22 C 4.75,27.57 4.65,27.97 4.65,28.44 C 4.65,28.89 4.76,29.3 4.98,29.67 A 2.48,2.48 0 0,0 7.09,30.87 C 7.56,30.87 7.94,30.77 8.23,30.57 C 8.53,30.37 8.74,30.05 8.9,29.63 C 8.9,29.62 8.91,29.61 8.94,29.61 C 8.98,29.61 9,29.62 9,29.64 L 8.91,30.48 C 8.91,30.55 8.9,30.58 8.89,30.6 A 0.24,0.24 0 0,1 8.82,30.65 A 4.11,4.11 0 0,1 7.1,31 C 6.5,31 5.97,30.9 5.5,30.68 A 2.61,2.61 0 0,1 4.4,29.78 A 2.3,2.3 0 0,1 4,28.46 C 4,27.97 4.13,27.55 4.4,27.18 C 4.67,26.8 5.04,26.51 5.5,26.31 C 5.98,26.11 6.5,26 7.1,26 Z" fill="rgb(9, 72, 129)"/>
<path d="M 50.480000000000004,28.845 C 50.76,28.52 50.96,28.3 51.11,28.18 C 51.26,28.06 51.4,28 51.52,28 S 51.74,28.03 51.85,28.1 C 51.95,28.15 52,28.23 52,28.31 C 52,28.38 51.98,28.43 51.93,28.48 A 0.25,0.25 0 0,1 51.75,28.55 C 51.7,28.55 51.66,28.54 51.62,28.52 A 2.12,2.12 0 0,1 51.51,28.44 A 0.61,0.61 0 0,0 51.38,28.34 A 0.32,0.32 0 0,0 51.23,28.32 C 51.16,28.32 51.07,28.36 50.98,28.43 C 50.89,28.51 50.74,28.68 50.52,28.94 L 50.49,28.86 Z M 49.77,31 C 49.75,31 49.74,30.98 49.74,30.95 C 49.74,30.92 49.75,30.91 49.77,30.91 C 50.1,30.91 50.24,30.81 50.24,30.38 V 28.88 C 50.24,28.71 50.22,28.58 50.18,28.51 C 50.14,28.43 50.08,28.39 49.98,28.39 C 49.89,28.39 49.75,28.43 49.56,28.51 H 49.55 C 49.53,28.51 49.51,28.5 49.5,28.48 C 49.5,28.45 49.5,28.44 49.52,28.43 L 50.41,28.01 A 0.1,0.1 0 0,1 50.46,28 C 50.5,28 50.55,28.06 50.6,28.17 C 50.65,28.29 50.68,28.44 50.68,28.62 V 30.38 C 50.68,30.92 51.05,30.91 51.42,30.91 C 51.44,30.91 51.45,30.92 51.45,30.95 S 51.44,31 51.42,31 H 49.77 Z M 40.49,28.86 C 40.76,28.52 40.96,28.3 41.11,28.18 C 41.26,28.06 41.4,28 41.52,28 S 41.74,28.03 41.85,28.1 C 41.95,28.15 42,28.23 42,28.31 C 42,28.38 41.98,28.43 41.93,28.48 A 0.25,0.25 0 0,1 41.75,28.55 C 41.7,28.55 41.66,28.54 41.62,28.52 A 2.12,2.12 0 0,1 41.51,28.44 A 0.61,0.61 0 0,0 41.38,28.34 A 0.32,0.32 0 0,0 41.23,28.32 C 41.16,28.32 41.07,28.36 40.98,28.43 C 40.89,28.51 40.74,28.68 40.52,28.94 L 40.49,28.86 Z M 39.77,31 C 39.75,31 39.74,30.98 39.74,30.95 C 39.74,30.92 39.75,30.91 39.77,30.91 C 40.1,30.91 40.23,30.81 40.23,30.38 V 28.88 C 40.23,28.71 40.23,28.58 40.18,28.51 C 40.14,28.43 40.08,28.39 39.98,28.39 C 39.89,28.39 39.75,28.43 39.56,28.51 H 39.55 C 39.53,28.51 39.51,28.5 39.5,28.48 C 39.5,28.45 39.5,28.44 39.52,28.43 L 40.41,28.01 A 0.1,0.1 0 0,1 40.46,28 C 40.5,28 40.55,28.06 40.6,28.17 C 40.65,28.29 40.68,28.44 40.68,28.62 V 30.38 C 40.68,30.92 41.05,30.91 41.42,30.91 C 41.44,30.91 41.45,30.92 41.45,30.95 S 41.44,31 41.42,31 H 39.77 Z M 47.44,31 C 47.15,31 46.9,30.93 46.68,30.8 A 1.42,1.42 0 0,1 46.18,30.24 C 46.06,30 46,29.74 46,29.46 A 1.37,1.37 0 0,1 46.83,28.16 C 47.07,28.06 47.32,28 47.57,28 A 1.36,1.36 0 0,1 48.82,28.77 A 1.56,1.56 0 0,1 48.79,30.29 C 48.64,30.52 48.45,30.69 48.21,30.82 C 47.98,30.94 47.71,31 47.44,31 Z M 47.65,30.86 C 47.92,30.86 48.13,30.76 48.28,30.58 C 48.43,30.38 48.5,30.1 48.5,29.7 C 48.5,29.4 48.45,29.13 48.34,28.9 C 48.24,28.66 48.11,28.47 47.94,28.34 A 0.97,0.97 0 0,0 47.33,28.14 C 47.06,28.14 46.85,28.24 46.71,28.42 C 46.57,28.62 46.49,28.88 46.49,29.24 C 46.49,29.54 46.54,29.81 46.64,30.05 C 46.74,30.3 46.88,30.5 47.05,30.65 C 47.23,30.79 47.43,30.86 47.65,30.86 Z M 43.84,31 C 43.41,31 43.04,30.88 42.71,30.63 L 43,30.03 C 43,30.56 43.58,30.87 44.08,30.87 C 44.66,30.87 45,30.45 45,29.69 C 45,28.88 44.62,28.43 44.04,28.43 C 43.84,28.43 43.67,28.48 43.49,28.58 C 43.33,28.68 43.09,28.82 42.91,28.99 L 42.85,28.95 C 43.07,28.73 43.35,28.55 43.55,28.41 C 43.75,28.28 44,28.21 44.29,28.21 C 45.01,28.21 45.5,28.76 45.5,29.46 C 45.5,30.38 44.73,31 43.84,31 Z M 42.64,30.21 V 26.87 A 0.76,0.76 0 0,0 42.58,26.51 C 42.55,26.44 42.48,26.41 42.39,26.41 C 42.32,26.41 42.21,26.44 42.05,26.49 H 42.04 C 42.02,26.49 42.01,26.49 42,26.46 C 42,26.44 42,26.42 42.02,26.42 L 42.89,26.01 L 42.93,26 C 42.95,26 42.96,26 42.98,26.02 L 43,26.05 V 30.6 C 42.9,30.67 42.64,30.9 42.64,30.21 Z M 38.13,30.99 A 0.16,0.16 0 0,1 38.06,31 C 37.98,31 37.91,30.94 37.85,30.83 A 0.97,0.97 0 0,1 37.75,30.38 V 28.98 C 37.75,28.42 37.58,28.14 37.24,28.14 C 37.04,28.14 36.91,28.2 36.81,28.31 C 36.71,28.42 36.65,28.55 36.61,28.69 A 0.55,0.55 0 0,1 36.51,28.91 C 36.48,28.97 36.41,29 36.31,29 A 0.3,0.3 0 0,1 36.1,28.93 A 0.22,0.22 0 0,1 36.03,28.77 C 36.03,28.65 36.12,28.53 36.29,28.42 A 2.38,2.38 0 0,1 37.53,28 C 37.76,28 37.93,28.06 38.04,28.2 C 38.16,28.32 38.22,28.5 38.22,28.75 V 30.14 C 38.22,30.31 38.24,30.44 38.29,30.52 C 38.34,30.6 38.42,30.64 38.53,30.64 C 38.63,30.64 38.78,30.6 38.94,30.54 H 38.96 C 38.98,30.54 38.99,30.55 39,30.58 C 39,30.6 39,30.61 38.97,30.62 L 38.13,30.99 Z M 36.64,30.99 A 0.74,0.74 0 0,1 36.16,30.85 A 0.49,0.49 0 0,1 36.19,30.09 C 36.33,29.99 36.55,29.89 36.85,29.79 L 37.84,29.45 L 37.86,29.55 L 36.99,29.85 A 0.87,0.87 0 0,0 36.65,30.05 A 0.35,0.35 0 0,0 36.55,30.29 C 36.55,30.41 36.59,30.51 36.68,30.59 C 36.76,30.68 36.88,30.72 37.01,30.72 A 0.9,0.9 0 0,0 37.41,30.6 L 37.93,30.32 L 37.94,30.42 L 37.34,30.77 C 37.2,30.85 37.08,30.91 36.97,30.94 C 36.87,30.98 36.76,30.99 36.64,30.99 Z M 34.5,26.66 C 34.5,26.21 34.32,26.1 33.93,26.1 C 33.91,26.1 33.91,26.08 33.91,26.05 C 33.91,26.02 33.91,26 33.93,26 H 35.48 C 35.49,26 35.5,26.02 35.5,26.05 C 35.5,26.08 35.5,26.1 35.48,26.1 C 35.09,26.1 34.91,26.2 34.91,26.65 V 30.35 C 34.91,30.81 35.09,30.9 35.48,30.9 C 35.49,30.9 35.5,30.92 35.5,30.95 C 35.5,30.98 35.5,31 35.48,31 H 33.93 C 33.91,31 33.91,30.98 33.91,30.95 C 33.91,30.92 33.91,30.9 33.93,30.9 C 34.32,30.9 34.5,30.81 34.5,30.35 V 26.66 Z M 31.77,28.31 H 34.68 V 28.48 H 31.78 V 28.31 Z M 31.59,26.65 C 31.59,26.2 31.4,26.1 31.02,26.1 L 31.01,26.05 V 26 H 32.57 C 32.58,26 32.59,26.02 32.59,26.05 C 32.59,26.08 32.59,26.1 32.57,26.1 C 32.17,26.1 32,26.21 32,26.66 V 30.36 C 32,30.82 32.18,30.9 32.57,30.9 C 32.58,30.9 32.59,30.92 32.59,30.95 C 32.59,30.98 32.59,31 32.57,31 H 31.01 L 31,30.95 L 31.01,30.9 C 31.41,30.9 31.59,30.81 31.59,30.35 V 26.65 Z" fill="rgb(1, 63, 124)"/>
<path d="M 26.99,20.985 C 27.53,21 27.9,21.26 28.12,21.58 A 2,2 0 0,1 28.46,22.52 L 28.47,22.63 H 27.92 V 23.48 H 28.62 L 28.42,23.66 L 27.92,24.15 L 28.05,24.93 L 29,31 H 28.79 L 28.42,28.67 L 25.32,30.28 L 25.22,31 H 25 L 26.07,24.15 L 25.57,23.65 L 25.39,23.48 H 26.09 V 22.63 H 25.53 L 25.54,22.52 A 2,2 0 0,1 25.88,21.58 C 26.11,21.26 26.47,21 27,21 Z M 25.66,28.16 L 25.36,30.02 L 28.38,28.44 L 28.14,26.91 L 25.66,28.16 Z M 25.97,26.16 L 25.7,27.9 L 28.1,26.7 L 27.86,25.11 L 25.97,26.17 Z M 26.02,25.9 L 27.82,24.89 L 27.72,24.22 H 26.28 L 26.02,25.9 Z M 26.23,24 H 27.77 L 28.09,23.69 H 25.91 L 26.23,24.01 Z M 27.11,23.48 H 27.71 V 22.63 H 27.11 V 23.48 Z M 26.3,23.48 H 26.9 V 22.63 H 26.3 V 23.48 Z M 27,21.21 C 26.55,21.21 26.25,21.42 26.06,21.7 C 25.89,21.93 25.81,22.2 25.77,22.42 H 28.23 A 1.79,1.79 0 0,0 27.94,21.7 A 1.1,1.1 0 0,0 27,21.21 Z" fill="rgb(1, 71, 128)"/>
</svg>
