<?xml version="1.0" encoding="UTF-8"?>
<!-- generated by Finnhub -->
<svg viewBox="0 0 55.5 55.5" xmlns="http://www.w3.org/2000/svg">
<path d="M 0,0 H 55.5 V 55.5 H 0 Z" fill="rgb(239, 242, 248)"/>
<path d="M 13.74,30.985 V 33 H 13.39 V 32.13 H 12.36 V 33 H 12 V 31 H 12.36 V 31.86 H 13.39 V 31 H 13.75 Z M 16,31.28 V 31.86 H 16.75 V 32.12 H 16 V 32.72 H 16.84 V 33 H 15.64 V 31 H 16.84 V 31.28 H 16 Z M 20.01,32.58 H 19.1 L 18.94,33 H 18.57 L 19.35,31 H 19.76 L 20.55,33 H 20.17 L 20.01,32.58 Z M 19.91,32.32 L 19.56,31.42 L 19.2,32.32 H 19.91 Z M 22.66,32.72 H 23.4 V 33 H 22.3 V 31 H 22.66 V 32.72 Z M 26.58,31 V 31.29 H 26 V 33 H 25.64 V 31.29 H 25 V 31 H 26.58 Z M 30,31 V 33 H 29.64 V 32.13 H 28.61 V 33 H 28.25 V 31 H 28.61 V 31.86 H 29.64 V 31 H 30 Z M 31.82,32 C 31.82,31.8 31.87,31.64 31.97,31.48 C 32.07,31.33 32.2,31.21 32.37,31.13 C 32.54,31.04 32.73,31 32.93,31 C 33.17,31 33.37,31.05 33.55,31.15 C 33.74,31.25 33.87,31.4 33.95,31.59 H 33.52 A 0.54,0.54 0 0,0 33.28,31.36 A 0.77,0.77 0 0,0 32.93,31.28 A 0.83,0.83 0 0,0 32.55,31.37 A 0.65,0.65 0 0,0 32.28,31.62 C 32.22,31.72 32.18,31.86 32.18,32 S 32.22,32.27 32.28,32.38 C 32.34,32.48 32.43,32.58 32.55,32.63 C 32.66,32.69 32.79,32.73 32.93,32.73 S 33.18,32.7 33.28,32.65 C 33.38,32.59 33.46,32.52 33.52,32.41 H 33.95 A 0.9,0.9 0 0,1 33.55,32.85 C 33.37,32.95 33.17,33 32.93,33 C 32.73,33 32.54,32.96 32.37,32.87 C 32.2,32.79 32.07,32.67 31.97,32.52 A 0.93,0.93 0 0,1 31.82,32 Z M 37.1,32.58 H 36.19 L 36.03,33 H 35.65 L 36.44,31 H 36.85 L 37.64,33 H 37.26 L 37.1,32.58 Z M 37,32.32 L 36.65,31.42 L 36.29,32.32 H 37 Z M 40.53,33 L 40.03,32.2 H 39.75 V 33 H 39.39 V 31 H 40.15 C 40.5,31 40.92,31.21 40.92,31.61 C 40.92,31.86 40.76,32.1 40.42,32.17 L 40.95,33 H 40.53 Z M 39.75,32 H 40.15 C 40.42,32 40.55,31.81 40.55,31.61 S 40.42,31.29 40.15,31.29 H 39.75 V 32 Z M 43.15,31.28 V 31.86 H 43.91 V 32.12 H 43.15 V 32.72 H 44 V 33 H 42.8 V 31 H 44 V 31.28 H 43.15 Z" fill="rgb(72, 72, 72)"/>
<path d="M 8.34,28.985 C 7.84,29 7.4,28.9 7.05,28.69 A 2,2 0 0,1 6.26,27.81 A 3.13,3.13 0 0,1 6,26.5 C 6,26.01 6.1,25.58 6.28,25.2 C 6.46,24.83 6.74,24.54 7.1,24.33 C 7.46,24.12 7.91,24.01 8.44,24.01 C 8.8,24.01 9.09,24.04 9.31,24.11 C 9.55,24.18 9.71,24.27 9.83,24.39 C 9.94,24.51 10,24.63 10,24.78 C 10,24.93 9.93,25.05 9.8,25.15 C 9.66,25.25 9.5,25.29 9.28,25.29 C 9.28,25.15 9.25,25 9.2,24.87 A 0.77,0.77 0 0,0 8.93,24.53 A 0.84,0.84 0 0,0 8.43,24.39 C 8.06,24.39 7.78,24.47 7.56,24.64 C 7.34,24.8 7.19,25.04 7.09,25.36 A 4.01,4.01 0 0,0 7.1,27.58 C 7.2,27.88 7.37,28.12 7.6,28.28 C 7.82,28.45 8.12,28.53 8.49,28.53 A 1.55,1.55 0 0,0 9.85,27.93 A 0.31,0.31 0 0,1 9.98,28.21 A 0.5,0.5 0 0,1 9.88,28.49 A 0.92,0.92 0 0,1 9.6,28.74 C 9.47,28.82 9.3,28.89 9.1,28.94 C 8.89,28.99 8.64,29.01 8.35,29.01 Z M 13,29 C 12.55,29 12.18,28.9 11.88,28.69 C 11.58,28.48 11.36,28.19 11.22,27.81 A 3.65,3.65 0 0,1 11,26.49 C 11,25.99 11.07,25.55 11.22,25.18 C 11.36,24.8 11.59,24.52 11.88,24.31 C 12.18,24.11 12.56,24 13.01,24 C 13.43,24 13.8,24.1 14.09,24.31 C 14.39,24.51 14.62,24.81 14.77,25.18 C 14.92,25.56 15,25.99 15,26.5 C 15,27 14.92,27.44 14.76,27.82 C 14.61,28.19 14.38,28.48 14.08,28.69 C 13.78,28.89 13.43,29 13,29 Z M 13,28.61 C 13.22,28.61 13.41,28.56 13.56,28.47 C 13.71,28.37 13.84,28.24 13.93,28.05 C 14.03,27.87 14.1,27.65 14.14,27.39 A 5.24,5.24 0 0,0 13.94,24.95 A 0.95,0.95 0 0,0 13.01,24.39 C 12.79,24.39 12.6,24.44 12.44,24.53 A 1,1 0 0,0 12.07,24.95 C 11.97,25.13 11.9,25.35 11.85,25.61 A 5.12,5.12 0 0,0 12.07,28.05 C 12.17,28.24 12.29,28.37 12.44,28.47 C 12.6,28.57 12.78,28.61 13,28.61 Z M 16,29 V 28.68 H 16.12 A 0.7,0.7 0 0,0 16.32,28.66 A 0.3,0.3 0 0,0 16.48,28.52 A 0.55,0.55 0 0,0 16.54,28.23 V 24.78 A 0.57,0.57 0 0,0 16.48,24.48 A 0.26,0.26 0 0,0 16.33,24.35 A 0.58,0.58 0 0,0 16.12,24.32 H 16 V 24 H 17.4 L 18.52,27.83 L 19.63,24 H 21 V 24.32 C 20.63,24.32 20.64,24.43 20.64,24.81 V 28.19 C 20.64,28.57 20.63,28.69 21,28.69 V 29 H 19.39 V 28.68 H 19.42 C 19.73,28.68 19.99,28.59 20,28.26 V 24.57 L 18.55,29 H 18.21 L 16.91,24.58 V 28.19 C 16.91,28.33 16.93,28.44 16.96,28.51 C 17,28.58 17.05,28.63 17.11,28.65 C 17.17,28.67 17.25,28.68 17.33,28.68 H 17.35 V 29 H 16 Z M 22,29 V 28.68 H 22.12 A 0.7,0.7 0 0,0 22.32,28.66 A 0.3,0.3 0 0,0 22.48,28.52 A 0.55,0.55 0 0,0 22.54,28.23 V 24.78 A 0.57,0.57 0 0,0 22.48,24.48 A 0.26,0.26 0 0,0 22.33,24.35 A 0.58,0.58 0 0,0 22.12,24.32 H 22 V 24 H 23.4 L 24.52,27.83 L 25.63,24 H 27 V 24.32 H 26.88 C 26.58,24.32 26.64,24.52 26.64,24.81 V 28.19 C 26.64,28.59 26.65,28.69 27,28.69 V 29 H 25.39 V 28.68 H 25.42 C 25.7,28.68 25.99,28.53 26,28.26 V 24.57 L 24.55,29 H 24.21 L 22.91,24.58 V 28.19 C 22.91,28.33 22.93,28.44 22.96,28.51 C 23,28.58 23.05,28.63 23.11,28.65 C 23.17,28.67 23.25,28.68 23.33,28.68 H 23.35 V 29 H 22 Z M 30.04,29 C 29.73,29 29.46,28.95 29.24,28.85 A 1.1,1.1 0 0,1 28.73,28.35 A 2,2 0 0,1 28.55,27.43 V 24.77 A 0.55,0.55 0 0,0 28.48,24.47 A 0.26,0.26 0 0,0 28.33,24.35 A 0.57,0.57 0 0,0 28.13,24.31 H 28 V 24 H 29.76 V 24.31 H 29.64 A 0.64,0.64 0 0,0 29.43,24.35 A 0.29,0.29 0 0,0 29.27,24.48 A 0.7,0.7 0 0,0 29.22,24.79 V 27.49 C 29.22,27.74 29.26,27.95 29.34,28.12 C 29.42,28.27 29.53,28.39 29.67,28.46 S 29.97,28.56 30.15,28.56 C 30.36,28.56 30.53,28.52 30.67,28.43 A 0.77,0.77 0 0,0 30.97,28.07 C 31.04,27.91 31.07,27.72 31.07,27.5 V 24.77 A 0.6,0.6 0 0,0 31.02,24.47 A 0.26,0.26 0 0,0 30.87,24.35 A 0.59,0.59 0 0,0 30.66,24.31 H 30.54 V 24 H 32 V 24.31 H 31.88 A 0.64,0.64 0 0,0 31.67,24.35 A 0.29,0.29 0 0,0 31.51,24.48 A 0.63,0.63 0 0,0 31.45,24.79 V 27.52 C 31.45,27.82 31.4,28.09 31.29,28.31 C 31.19,28.53 31.03,28.71 30.82,28.82 C 30.62,28.94 30.35,29 30.04,29 Z M 33,29 V 28.68 H 33.12 C 33.2,28.68 33.27,28.68 33.32,28.65 A 0.28,0.28 0 0,0 33.48,28.51 A 0.69,0.69 0 0,0 33.54,28.19 V 24.78 A 0.57,0.57 0 0,0 33.47,24.48 A 0.26,0.26 0 0,0 33.32,24.35 A 0.56,0.56 0 0,0 33.12,24.32 H 33 V 24 H 34.1 L 36.1,27.77 V 24.77 A 0.58,0.58 0 0,0 36.04,24.47 A 0.26,0.26 0 0,0 35.89,24.35 A 0.56,0.56 0 0,0 35.69,24.32 H 35.57 V 24 H 37 V 24.32 H 36.88 A 0.6,0.6 0 0,0 36.68,24.35 A 0.28,0.28 0 0,0 36.52,24.49 A 0.66,0.66 0 0,0 36.46,24.81 V 29 H 36.04 L 33.9,25.02 V 28.19 C 33.9,28.33 33.92,28.44 33.95,28.51 C 33.99,28.58 34.04,28.63 34.1,28.65 A 0.6,0.6 0 0,0 34.31,28.68 H 34.43 V 29 H 33 Z M 38,29 V 28.68 H 38.14 C 38.23,28.68 38.31,28.68 38.38,28.65 A 0.32,0.32 0 0,0 38.56,28.51 A 0.6,0.6 0 0,0 38.62,28.19 V 24.81 A 0.58,0.58 0 0,0 38.56,24.49 A 0.32,0.32 0 0,0 38.38,24.35 A 0.76,0.76 0 0,0 38.14,24.32 H 38 V 24 H 40 V 24.32 H 39.86 A 0.8,0.8 0 0,0 39.62,24.35 A 0.32,0.32 0 0,0 39.44,24.49 A 0.64,0.64 0 0,0 39.39,24.81 V 28.19 C 39.39,28.33 39.41,28.44 39.44,28.51 C 39.49,28.58 39.54,28.63 39.62,28.65 A 0.8,0.8 0 0,0 39.86,28.68 H 40 V 29 H 38 Z M 41.9,29 V 28.68 H 42.1 C 42.19,28.68 42.27,28.68 42.35,28.66 A 0.33,0.33 0 0,0 42.53,28.52 A 0.56,0.56 0 0,0 42.6,28.22 V 24.37 H 41.98 A 0.55,0.55 0 0,0 41.66,24.45 A 0.42,0.42 0 0,0 41.49,24.65 C 41.46,24.73 41.43,24.82 41.42,24.92 L 41.38,25.26 H 41 L 41.03,24 H 44.97 L 45,25.26 H 44.62 L 44.58,24.92 A 0.8,0.8 0 0,0 44.51,24.64 A 0.42,0.42 0 0,0 44.34,24.44 A 0.57,0.57 0 0,0 44.02,24.37 H 43.39 V 28.19 C 43.39,28.33 43.41,28.44 43.45,28.51 C 43.5,28.58 43.56,28.63 43.64,28.65 C 43.71,28.67 43.8,28.68 43.89,28.68 H 44.08 V 29 H 41.9 Z M 47,29 V 28.68 H 47.2 C 47.28,28.68 47.35,28.68 47.42,28.66 A 0.28,0.28 0 0,0 47.59,28.53 A 0.56,0.56 0 0,0 47.66,28.23 V 27 L 46.52,24.69 A 1.03,1.03 0 0,0 46.39,24.48 A 0.32,0.32 0 0,0 46.26,24.36 A 0.37,0.37 0 0,0 46.08,24.32 H 46 V 24 H 47.8 V 24.32 H 47.6 C 47.49,24.32 47.41,24.34 47.37,24.39 A 0.25,0.25 0 0,0 47.3,24.57 C 47.3,24.63 47.31,24.69 47.34,24.77 L 47.41,24.94 L 47.86,25.9 A 2.42,2.42 0 0,1 48.04,26.32 A 5.9,5.9 0 0,1 48.17,26.68 A 5.11,5.11 0 0,1 48.52,25.87 L 48.9,25.05 A 0.9,0.9 0 0,0 49.01,24.63 C 49.01,24.53 48.98,24.44 48.91,24.39 A 0.45,0.45 0 0,0 48.63,24.32 H 48.47 V 24 H 50 V 24.32 H 49.91 A 0.3,0.3 0 0,0 49.75,24.36 A 0.6,0.6 0 0,0 49.59,24.53 L 49.42,24.86 L 48.38,27 V 28.2 C 48.38,28.34 48.4,28.45 48.44,28.52 C 48.48,28.59 48.54,28.63 48.6,28.66 C 48.68,28.68 48.75,28.68 48.84,28.68 H 49.02 V 29 H 47.01 Z" fill="rgb(18, 94, 168)"/>
</svg>
