<?xml version="1.0" encoding="UTF-8"?>
<!-- generated by Finnhub -->
<svg viewBox="0 0 55.5 55.5" xmlns="http://www.w3.org/2000/svg">
<path d="M 0,0 H 55.5 V 55.5 H 0 Z" fill="rgb(239, 242, 248)"/>
<path d="M 10.99,22.985 H 16 V 17 H 22 V 11 H 34 V 17 H 40 V 23 H 45 V 34 H 40 V 40 H 34 V 45 H 22 V 40 H 16 V 34 H 11 V 23 Z M 28,33 A 5,5 0 1,0 28,23 A 5,5 0 0,0 28,33 Z" fill="rgb(224, 189, 2)"/>
<path d="M 16.99,23.985 H 12 V 33 H 17 V 39 H 23 V 44 H 33 V 39 H 39 V 33 H 44 V 24 H 39 V 18 H 33 V 12 H 23 V 18 H 17 V 24 Z M 22,11 H 34 V 17 H 40 V 23 H 45 V 34 H 40 V 40 H 34 V 45 H 22 V 40 H 16 V 34 H 11 V 23 H 16 V 17 H 22 V 11 Z M 34,28 A 6,6 0 1,1 22,28 A 6,6 0 0,1 34,28 Z M 33,28 A 5,5 0 1,1 23,28 A 5,5 0 0,1 33,28 Z" fill="rgb(25, 9, 19)" fill-rule="evenodd"/>
</svg>
