<?xml version="1.0" encoding="UTF-8"?>
<!-- generated by Finnhub -->
<svg viewBox="0 0 55.5 55.5" xmlns="http://www.w3.org/2000/svg">
<path d="M 0,0 H 55.5 V 55.5 H 0 Z" fill="rgb(239, 242, 248)"/>
<path d="M 15.33,24.875 C 10.14,27.19 7.19,30.07 8.02,32.95 C 9.31,37.42 19.07,39.21 30.43,37.31 C 41.8,35.42 49.05,31.53 48.68,26.76 C 48.55,25 47.18,23.11 44.48,22.16 C 44.48,22.16 44.41,22.14 44.42,22.1 C 44.43,22.05 44.5,22.07 44.5,22.07 C 48.02,23.09 49.4,24.76 49.86,26.78 C 51.03,31.86 44.86,37.78 30.66,40.15 C 16.47,42.51 7.72,39.77 6.15,34.33 C 5.22,31.08 8.67,27.43 15.23,24.72 C 15.23,24.72 15.37,24.67 15.4,24.75 S 15.34,24.89 15.34,24.89 Z" fill="rgb(10, 74, 138)"/>
<path d="M 17.709999999999997,17.985 C 18,18 18.96,18.07 19.68,18.22 C 21.45,18.54 21.48,18.63 21.48,20.48 C 21.48,20.68 21.48,20.74 21.33,20.74 C 20.71,20.74 20.43,18.65 17.76,18.65 C 15.23,18.65 13.01,21.24 13.01,25.3 C 13.01,28.3 14.42,31.34 17.6,31.34 C 19.34,31.34 20.13,30.47 20.61,29.82 C 21.07,29.19 21.25,28.8 21.45,28.8 C 21.55,28.8 21.69,28.89 21.69,28.98 C 21.69,30.11 21.41,30.76 21.31,31 C 21.19,31.32 19.56,32 17.74,32 C 13.98,32 10.61,29.48 10.61,25.15 C 10.61,21.61 12.88,18 17.71,18 Z M 26,23.77 C 26,24.34 26.17,24.52 26.65,24.52 H 31.71 C 32.93,24.52 33,24.48 33,24.21 V 19.89 C 33,19.05 33.06,18.93 31.87,18.73 C 31.55,18.68 31.27,18.63 31.27,18.39 C 31.27,18 31.61,18 31.94,18 H 36.44 C 36.67,18 37.1,18 37.1,18.32 C 37.1,18.66 36.76,18.64 35.77,18.72 C 35.36,18.75 35,19.02 35,19.66 V 30.4 C 35,31.03 35.43,31.24 36.05,31.26 C 36.6,31.28 37.08,31.31 37.08,31.67 C 37.08,31.97 36.67,31.99 36.41,31.99 H 31.3 C 31.1,31.99 30.85,31.94 30.85,31.69 C 30.85,31.35 31.37,31.29 31.88,31.26 C 32.84,31.19 33.01,30.88 33.01,29.42 V 25.85 C 33.01,25.35 32.91,25.31 31.95,25.29 H 28 C 26.35,25.29 26,25.42 26,25.83 V 30.4 C 26,30.96 26.58,31.1 27.43,31.26 C 27.68,31.31 28.19,31.36 28.19,31.69 C 28.19,31.94 27.86,31.99 27.69,31.99 H 22.49 C 22.33,31.99 21.89,31.99 21.89,31.74 C 21.89,31.38 22.49,31.35 22.9,31.26 C 23.55,31.12 24,31.03 24,30.26 V 19.84 C 24,18.96 24,18.94 22.74,18.73 C 22.47,18.68 22.19,18.63 22.19,18.3 C 22.19,18.05 22.44,18 22.69,18 H 27.29 C 27.82,18 27.96,18.07 27.96,18.32 C 27.96,18.7 27.4,18.68 26.9,18.72 C 26.4,18.78 26,19.02 26,19.68 V 23.78 Z M 44.47,21.3 C 44.47,21.4 44.4,21.48 44.27,21.48 C 43.53,21.48 44.27,18.74 41.31,18.74 C 39.61,18.74 38.93,19.7 38.93,20.76 C 38.93,23.89 45.47,23.48 45.47,27.96 C 45.47,30.76 43.44,32 40.81,32 C 40.44,32 39.44,31.82 38.7,31.67 C 37.34,31.39 37.1,31 37.1,29.67 C 37.1,29.09 37.17,27.78 37.6,27.78 C 38.17,27.78 37.7,28.41 38.35,29.61 C 38.56,30 39.3,31.26 41.13,31.26 C 43.2,31.26 44.03,30 44.03,28.91 C 44.03,25.61 37.5,25.83 37.5,21.65 C 37.5,19.83 38.85,18 41.61,18 C 41.91,18 42.36,18.02 42.79,18.1 C 44.47,18.44 44.47,18.67 44.47,19.5 V 21.3 Z"/>
</svg>
