<?xml version="1.0" encoding="UTF-8"?>
<!-- generated by Finnhub -->
<svg viewBox="0 0 55.5 55.5" xmlns="http://www.w3.org/2000/svg">
<path d="M 0,0 H 55.5 V 55.5 H 0 Z" fill="rgb(239, 242, 248)"/>
<path d="M 11.448,20.865 C 10.358,19.78 11.259,16.532 13.923,16.172 C 17.51,15.689 19.893,18.176 21.993,20.431 C 24.5,23.125 25.22,26.011 25.69,28.512 C 26.363,32.095 25.764,35.782 24.906,38.032 C 24.049,40.282 23.382,41.371 21.929,43.062 C 20.794,44.38 20.061,44.898 18.63,45.759 C 16.46,47.063 12.797,47.552 12.797,47.552 S 15.831,46.406 17.341,44.857 C 18.317,43.857 18.885,43.223 19.536,41.984 C 20.315,40.499 20.606,39.747 20.946,38.032 C 21.449,35.498 21.812,33.428 21.096,30.966 L 21.092,30.953 C 20.815,29.998 19.784,26.454 15.492,23.569 C 14.845,23.134 12.802,22.224 11.458,20.879 Z" fill="rgb(54, 180, 237)"/>
<circle cx="23.786" cy="12.81" r="3.81" fill="rgb(55, 179, 223)"/>
<path d="M 43.49,16.157 C 45.383,14.828 44.855,9.897 40.596,9.448 C 37.006,9.07 33.512,11.565 30.51,14.379 C 26.924,17.741 25.579,21.119 24.906,24.241 C 23.944,28.711 24.801,33.313 26.027,36.121 C 27.254,38.928 28.207,40.287 30.286,42.397 C 31.908,44.042 33.17,44.909 35.216,45.983 C 38.32,47.61 43.735,48 43.735,48 S 39.395,46.57 37.235,44.638 C 35.839,43.388 35.027,42.598 34.097,41.052 C 32.983,39.199 32.567,38.262 32.08,36.121 C 31.36,32.958 31.28,30.9 32.304,27.827 C 32.694,26.658 33.537,22.029 39.701,18.414 C 40.626,17.871 41.931,17.294 43.501,16.172 Z" fill="rgb(4, 120, 183)"/>
</svg>
