<?xml version="1.0" encoding="UTF-8"?>
<!-- generated by Finnhub -->
<svg viewBox="0 0 55.5 55.5" xmlns="http://www.w3.org/2000/svg">
<path d="M 0,0 H 55.5 V 55.5 H 0 Z" fill="rgb(36, 127, 72)"/>
<path d="M 39.347,32.558 C 39.357,33.371 38.725,34 37.925,34 C 37.166,34 36.492,33.371 36.492,32.573 V 23.427 C 36.492,22.63 37.166,22 37.925,22 C 38.725,22 39.357,22.63 39.357,23.385 V 32.573 Z M 48.966,22.798 C 49.387,23.007 49.682,23.468 49.682,24.014 C 49.682,24.811 49.05,25.441 48.292,25.441 C 47.997,25.441 47.744,25.357 47.533,25.231 A 3.323,3.323 0 0,0 45.973,24.811 A 3.195,3.195 0 0,0 42.772,28 A 3.195,3.195 0 0,0 45.975,31.19 C 47.239,31.19 48.293,30.434 48.841,29.427 H 45.975 C 45.174,29.427 44.542,28.755 44.542,28 C 44.542,27.203 45.174,26.573 45.975,26.573 H 50.569 C 51.369,26.573 52.001,27.203 52.001,28 C 52.001,31.315 49.304,34 45.975,34 C 42.645,34 39.949,31.315 39.949,28 C 39.949,24.686 42.646,22 45.975,22 C 47.071,22 48.082,22.294 48.967,22.798 Z M 13.186,22.882 C 13.608,23.132 13.861,23.594 13.861,24.099 C 13.861,24.895 13.229,25.525 12.471,25.525 C 12.176,25.525 11.923,25.441 11.712,25.273 A 3.382,3.382 0 0,0 10.026,24.812 A 3.194,3.194 0 0,0 6.823,28 A 3.195,3.195 0 0,0 10.026,31.19 A 3.171,3.171 0 0,0 13.06,28.923 L 14.873,22.963 C 15.041,22.376 15.589,21.998 16.221,21.998 H 21.658 C 22.458,21.998 23.09,22.755 23.09,23.51 C 23.09,24.308 22.458,25 21.657,25 H 17.695 C 17.443,25 17.232,25.105 17.148,25.315 L 15.8,29.72 C 15.04,32.196 12.723,34 10.026,34 C 6.696,34 4,31.315 4,28 C 4,24.686 6.697,22 10.026,22 C 11.164,22 12.259,22.336 13.186,22.882 Z M 21.451,30.584 L 23.807,23.007 A 1.403,1.403 0 0,1 25.155,22 H 25.451 C 26.083,22 26.631,22.42 26.799,22.965 L 28.443,28.252 L 30.002,23.007 C 30.17,22.42 30.718,22 31.392,22 H 31.688 C 32.319,22 32.868,22.42 33.036,22.965 L 35.86,32.154 C 35.902,32.279 35.902,32.447 35.902,32.574 C 35.902,33.371 35.269,34 34.511,34 C 33.879,34 33.331,33.58 33.163,32.993 L 31.519,27.749 L 29.917,33.035 C 29.749,33.581 29.201,34 28.569,34 H 28.274 C 27.642,34 27.094,33.58 26.925,32.993 L 25.325,27.749 L 23.757,32.993 C 23.546,33.58 23.04,34 22.367,34 H 16.93 C 16.17,34 15.547,33.245 15.547,32.447 C 15.547,31.692 16.183,31.004 16.942,31.004 H 21 C 21.253,31.004 21.366,30.836 21.45,30.584 Z" fill="rgb(254, 254, 253)"/>
<path d="M 20.299,26.558 C 21.067,26.573 21.7,27.203 21.7,28 C 21.7,28.798 21.067,29.428 20.267,29.428 H 18.37 C 17.57,29.428 16.937,28.798 16.937,28 C 16.937,27.203 17.57,26.573 18.37,26.573 H 20.309 Z" fill="rgb(248, 174, 2)"/>
</svg>
