<?xml version="1.0" encoding="UTF-8"?>
<!-- generated by Finnhub -->
<svg viewBox="0 0 55.5 55.5" xmlns="http://www.w3.org/2000/svg">
<path d="M 0,0 H 55.5 V 55.5 H 0 Z" fill="rgb(239, 242, 248)"/>
<path d="M 27.99,43.985 A 16,16 0 1,0 28,12 A 16,16 0 0,0 28,44 Z M 39.27,25.37 C 39.62,26.01 40.17,26.77 40.96,26.97 A 13,13 0 0,0 35,17.04 V 38.96 A 13,13 0 0,0 40.96,29.03 C 40.16,29.23 39.62,29.99 39.26,30.63 C 38.96,31.19 38.48,31.18 38.24,30.11 A 8.37,8.37 0 0,1 38,28 A 8,8 0 0,1 38.24,25.9 C 38.48,24.82 38.96,24.8 39.27,25.37 Z M 34,18.05 V 39.54 C 33.06,40.02 32.06,40.4 31,40.65 V 22.5 C 31,20.62 31.62,19.51 32.33,18.87 A 3.46,3.46 0 0,1 34,18.05 Z M 30,22.5 V 40.85 A 13.1,13.1 0 0,1 26,40.85 V 22.5 C 26,20.5 25.29,18.99 24.33,18.13 A 4.36,4.36 0 0,0 22.43,17.12 A 0.55,0.55 0 0,1 22,16.6 V 16.46 A 12.94,12.94 0 0,1 34,16.46 V 16.6 C 34,16.85 33.82,17.06 33.57,17.12 C 32.96,17.27 32.27,17.58 31.67,18.12 C 30.7,19 30,20.5 30,22.5 Z M 21,29.06 V 38.96 A 12.99,12.99 0 0,1 21,17.04 V 26.94 C 19.63,27.37 18.75,26.26 18.27,25.37 C 17.96,24.81 17.48,24.82 17.24,25.89 C 17.14,26.35 17,26.94 17,28 A 8,8 0 0,0 17.24,30.1 C 17.48,31.18 17.96,31.2 18.27,30.63 C 18.75,29.74 19.63,28.63 21,29.06 Z M 22,39.54 V 18.04 C 22.51,18.14 23.13,18.39 23.67,18.87 C 24.37,19.51 25,20.62 25,22.5 V 40.65 A 12.9,12.9 0 0,1 22,39.54 Z M 42,28 A 14,14 0 1,1 14,28 A 14,14 0 0,1 42,28 Z" fill="rgb(169, 34, 43)"/>
</svg>
