<?xml version="1.0" encoding="UTF-8"?>
<!-- generated by Finnhub -->
<svg viewBox="0 0 55.5 55.5" xmlns="http://www.w3.org/2000/svg">
<path d="M 0,0 H 55.5 V 55.5 H 0 Z" fill="rgb(239, 242, 248)"/>
<path d="M 37.370000000000005,33.885 C 34.53,33.44 31.44,33.17 29.18,33.57 C 29.05,33.6 28.95,33.51 28.95,33.37 C 28.95,32.57 28.95,30 28.32,26.79 C 28.32,26.72 28.29,26.69 28.22,26.66 A 125.45,125.45 0 0,0 11.29,16.56 C 11.09,16.46 10.89,16.73 11.06,16.9 C 19.1,24.34 21.93,37 22.3,38.7 C 22.33,38.8 22.43,38.86 22.53,38.86 C 31.55,37.11 40.61,39.29 43.13,39.99 C 43.33,40.06 43.47,39.79 43.33,39.66 A 86.1,86.1 0 0,0 37.39,33.9 Z" fill="rgb(23, 56, 98)"/>
<path d="M 44.96,35.185 C 37.7,25.4 27.4,18.18 24.16,16.03 C 23.96,15.9 23.76,16.13 23.9,16.33 C 26.39,19.63 27.67,23.43 28.3,26.61 C 28.3,26.68 28.33,26.71 28.36,26.75 C 31.35,28.86 34.4,31.25 37.42,33.86 C 37.45,33.89 37.48,33.89 37.52,33.89 A 76.4,76.4 0 0,1 44.74,35.49 C 44.94,35.55 45.06,35.35 44.97,35.19 Z" fill="rgb(23, 56, 98)"/>
</svg>
