<?xml version="1.0" encoding="UTF-8"?>
<!-- generated by Finnhub -->
<svg viewBox="0 0 55.5 55.5" xmlns="http://www.w3.org/2000/svg">
<path d="M 0,0 H 55.5 V 55.5 H 0 Z" fill="url(#e)"/>
<path d="M 23.56,31.125 C 23.57,29.77 13.59,30.19 8.61,30.57 C 19.54,29.43 24.33,28.99 24.72,30.57 C 25.35,33.08 17.24,36.29 10.91,38 C 15.13,36.29 23.57,32.51 23.57,31.14 Z" fill="url(#d)"/>
<path d="M 47.99,21.985 C 41.88,23.83 27.15,28.61 8,30.57 C 11.14,30.38 19.06,29.77 25.65,28.86 C 32.24,27.94 43.88,24.86 48,22 Z" fill="rgb(181, 214, 181)"/>
<path d="M 31.52,27.695 C 26.83,28.63 14.47,29.83 8,30.57 C 13.7,29.94 23.88,29.14 24.47,30.57 C 25.41,32.86 15.45,36.47 10.35,38 C 23.3,35.14 39.57,26.95 48,22 C 44.47,23.52 36.24,26.8 31.53,27.71 Z" fill="rgb(62, 150, 56)"/>
<path d="M 10.34,37.985 C 17.41,36.86 36.24,31.6 48,22 C 40.35,26.57 19.18,36.29 10.35,38 Z" fill="url(#c)"/>
<path d="M 25.639999999999997,17.985 C 23.29,18 21.53,18.38 20.95,18.57 C 23.88,18.57 32.71,17.43 38.59,24.29 C 43.29,29.77 38.99,35.71 36.24,38 C 42.71,35.14 43.29,28.86 39.76,23.71 C 36.24,18.57 28.6,18 25.65,18 Z" fill="url(#b)"/>
<path d="M 36.230000000000004,37.985 C 38.59,36.1 43.44,31.06 39.18,24.86 C 34.48,18 25.65,18.19 20.94,18.57 C 28.59,18.57 33.74,20.37 38,26 C 41.41,30.5 38.25,35.88 36.24,38 Z" fill="url(#a)"/>
<path d="M 5.33,24.685 A 2.5,2.5 0 0,1 6.92,24 H 9.25 C 9.91,24 10.37,24.27 10.65,24.64 C 10.92,24.98 11,25.37 11,25.64 H 9.83 C 9.83,25.54 9.8,25.39 9.71,25.27 C 9.64,25.19 9.53,25.09 9.25,25.09 H 6.92 L 6.84,25.1 L 6.66,25.16 C 6.52,25.21 6.34,25.31 6.16,25.48 C 6.13,25.5 6.05,25.62 5.94,25.88 C 5.84,26.1 5.72,26.39 5.62,26.71 C 5.43,27.31 5.27,27.96 5.17,28.41 C 5.17,28.51 5.21,28.63 5.29,28.73 C 5.36,28.81 5.47,28.91 5.75,28.91 H 7.5 C 7.73,28.91 8.08,28.86 8.34,28.74 C 8.59,28.64 8.67,28.51 8.67,28.36 H 9.83 C 9.83,29.09 9.33,29.51 8.85,29.73 C 8.38,29.93 7.85,30 7.5,30 H 5.75 A 1.7,1.7 0 0,1 4.35,29.36 A 1.68,1.68 0 0,1 4,28.36 V 28.31 L 4.01,28.26 C 4.11,27.79 4.29,27.06 4.51,26.39 C 4.61,26.06 4.73,25.73 4.86,25.45 C 4.98,25.18 5.13,24.9 5.34,24.71 Z M 12,30 H 11 L 12,26.5 H 13 L 12,30 Z M 12.53,24.27 L 12.6,24.87 L 12,25.27 L 12.47,25.4 L 12.4,25.93 C 12.56,25.8 12.87,25.55 12.87,25.6 C 12.87,25.65 13.09,25.89 13.2,26 L 13.4,25.4 L 13.93,25.27 L 13.6,24.93 L 14,24.4 L 13.47,24.47 L 13.4,24 L 13,24.47 L 12.53,24.27 Z M 33.06,24 H 29.87 L 28,30 H 29.17 L 30.07,27 H 31.39 L 33.58,30 H 35 L 32.81,27 H 34 L 34.73,25.77 C 35,25.09 34.1,24 33.06,24 Z M 33.31,26 H 30.4 L 30.7,25.1 H 33.06 C 33.34,25.1 33.58,25.25 33.61,25.52 L 33.31,26 Z M 19.06,24 H 15.87 L 14,30 H 15.17 L 16.07,27 H 17.39 L 19.58,30 H 21 L 18.81,27 H 20 L 20.73,25.77 C 21,25.09 20.1,24 19.06,24 Z M 19.31,26 H 16.4 L 16.7,25.1 H 19.06 C 19.34,25.1 19.58,25.25 19.61,25.52 L 19.31,26 Z M 22,25 H 24.14 L 22.18,30 H 23.46 L 25.42,25 H 27.4 L 28,24 H 22.6 L 22,25 Z M 48.8,27.82 L 50.75,24.02 H 52 L 49.39,30 L 45.49,26.2 L 44.24,30 H 43 L 44.97,24 L 48.8,27.82 Z M 38.01,27.5 H 41.51 L 40.85,30 H 41.98 L 42.89,26.33 C 43.29,25.13 42.59,24 41.29,24 H 39.65 C 38.74,24 37.92,24.63 37.52,25.43 L 36,30 H 37.14 L 38.01,27.5 Z M 38.26,26.5 L 38.52,25.85 C 38.74,25.45 39.18,25 39.65,25 H 41.28 C 41.86,25 42.01,25.54 41.85,26.03 L 41.67,26.5 H 38.26 Z" fill="rgb(236, 240, 243)"/>
<defs>
<linearGradient id="e" x1="35" x2="22" y1="3.5" y2="54" gradientUnits="userSpaceOnUse">
<stop stop-color="rgb(4, 14, 20)" offset="0"/>
<stop stop-color="rgb(24, 57, 83)" offset="1"/>
</linearGradient>
<linearGradient id="d" x1="16.09" x2="17.79" y1="30" y2="35.72" gradientUnits="userSpaceOnUse">
<stop stop-color="rgb(51, 99, 50)" offset="0"/>
<stop stop-color="rgb(184, 212, 181)" offset="1"/>
</linearGradient>
<linearGradient id="c" x1="39.77" x2="17.04" y1="27.14" y2="37.34" gradientUnits="userSpaceOnUse">
<stop stop-color="rgb(33, 87, 38)" offset="0"/>
<stop stop-color="rgb(62, 99, 65)" offset="1"/>
</linearGradient>
<linearGradient id="b" x1="26.24" x2="39.87" y1="18" y2="34.96" gradientUnits="userSpaceOnUse">
<stop stop-color="rgb(151, 191, 140)" offset="0"/>
<stop stop-color="rgb(55, 87, 71)" offset="1"/>
</linearGradient>
<linearGradient id="a" x1="29.76" x2="38.2" y1="19.14" y2="35.35" gradientUnits="userSpaceOnUse">
<stop stop-color="rgb(55, 114, 55)" offset="0"/>
<stop stop-color="rgb(125, 177, 122)" offset="1"/>
</linearGradient>
</defs>
</svg>
