<?xml version="1.0" encoding="UTF-8"?>
<!-- generated by Finnhub -->
<svg viewBox="0 0 55.5 55.5" xmlns="http://www.w3.org/2000/svg">
<path d="M 0,0 H 55.5 V 55.5 H 0 Z" fill="rgb(239, 242, 248)"/>
<path d="M 17.49,26.384999999999998 C 18.33,27.05 18.1,26.86 18.78,27.81 C 20.51,30.21 18.74,30.36 19.31,29.45 A 11.75,11.75 0 0,0 14.85,29.17 C 14.91,32.39 16.77,31.7 14.47,31.39 C 13.85,30.94 13.56,30.31 13.41,31.36 L 13.84,33.3 C 14.59,33.07 16.38,32.58 17,33.36 C 16.47,33.5 13.72,34.72 13.54,34.91 C 13.06,35.15 12.99,34.91 13.04,35.73 C 13.12,36.88 14.21,37.07 15.21,36.99 C 14.91,39.55 17.03,39.91 17.78,39.42 C 18.05,38.99 17.56,39.21 18.34,38.89 C 18.42,38.79 18.7,38.53 18.96,38.27 C 19.87,40.52 17.78,37.28 17.54,40.77 C 17.42,42.37 20.41,42.56 21.67,42.25 C 21.77,45.69 26.25,44.84 27.08,42.95 L 27.46,43.2 C 27.98,44.8 30.24,44.55 30.96,44.2 C 31.37,43.78 31.64,43.58 31.92,43.02 C 32.48,43.46 34.37,44.94 34.39,45 C 34.98,44.48 35.76,44.06 36.01,43.29 C 36.37,42.2 35.94,41.77 35.89,41.29 C 35.93,41.37 36.06,41.46 36.51,41.62 L 38.86,42.06 C 39.8,41.26 40.59,41.32 40.69,39.79 C 40.63,38.93 41.03,39.47 40.17,39.09 C 39.75,38.91 38.62,38.79 37.79,38.19 C 38.28,37.91 40.19,36.8 40.66,36.89 C 40.85,37.56 40.86,37.49 41.24,37.84 C 41.77,36.78 42.07,36.11 41.86,34.71 C 40.99,34.31 39.71,33.52 38.86,33.74 C 36.55,34.34 36.46,33.61 35.49,34.07 L 34.26,34.06 C 34.69,33.43 35.66,33.03 36.51,32.76 C 38.04,32.32 40.49,31.2 41.76,32.5 C 42.47,32.49 41.96,32.55 42.11,32.28 C 42.61,31.95 42.95,31.09 42.58,30.51 C 42.08,29.75 39.38,30.07 38.33,30.01 C 39.06,29.61 40.29,29.32 40.77,28.84 C 41.59,28.01 40.85,28.12 42.37,27.97 C 42.79,27.57 43.39,26.67 42.65,26.09 C 41.83,25.68 39.86,26.81 39.14,27.45 L 38.46,27.39 C 37.16,25.32 39.71,24.69 41.86,24.54 C 41.18,22.14 40.82,22.9 39.36,23.06 C 37.55,23.26 39.14,22.45 36.86,24.26 C 35.74,25.16 35.75,24.83 35.47,25.63 C 32.8,26.63 36.73,22.58 37.91,22.24 C 38.27,21.57 37.93,21.86 37.87,20.85 C 38.47,20.51 38.17,20.48 38.87,20.21 L 40.08,19.76 L 39.26,18.29 C 38.36,18.23 38.16,18.37 36.96,19.31 C 33.56,21.97 35.19,19.14 36.66,18.76 C 36.97,18.52 37.4,18.22 37.69,17.94 C 37.31,17.55 36.39,17.22 35.72,17.43 C 35.87,16.66 36.24,16.58 36.72,16.11 C 37.26,15.58 37.73,15.34 38.04,14.97 C 36.78,14.02 34.94,15.94 34.28,16.57 L 34.24,16.19 L 34.74,14.79 C 34.99,14.65 34.84,14.92 34.98,14.47 C 35.22,13.71 34.58,13.07 34.16,12.48 C 33.17,12.24 32.39,13.16 31.28,13.55 C 32,12.22 32.68,10.57 32.62,10.3 A 1.8,1.8 0 0,0 31.86,9.12 C 31.69,9.02 28.86,9.46 28.38,9.53 C 27.64,9.63 27.61,10.38 27.75,11.09 L 27.67,11.85 C 27.07,11.15 25.76,10.66 25.12,11.62 C 25.22,11.99 26.5,13.18 27.07,13.79 C 27.59,14.53 26.91,16.75 26.6,15.26 A 9.49,9.49 0 0,0 24.85,13.02 C 24.05,12.4 22.76,12.71 21.62,12.86 C 23.42,18.71 25.52,16.48 20.42,14.29 C 19.33,14.34 18.85,14.88 19.06,15.99 C 19.63,16.09 19.76,16.09 20.23,16.46 C 20.55,16.7 23.5,21.06 20.47,20.71 C 20.26,20.69 18.39,19.89 17.39,21.11 C 17.78,21.54 17.47,21.19 17.77,21.39 A 7.93,7.93 0 0,0 19.94,22.63 C 19.97,22.81 20.14,22.86 20.09,23.36 C 21.1,24.25 21.14,25.48 21.44,26.73 C 19.9,25.27 18.37,23.72 16.07,23.93 C 15.75,24.69 15.59,25.02 15.8,25.88 L 16.66,25.95 C 17.21,26.07 17.06,26.08 17.51,26.4 Z M 35.9,41.06 C 35.94,41.14 35.9,41.18 35.9,41.23 V 41.06 Z" fill="rgb(83, 58, 34)" fill-rule="evenodd"/>
<path d="M 20.689999999999998,40.545 C 19.82,40.66 19.95,40.17 18.94,40.08 C 19.19,40.18 19.61,39.81 19.87,39.54 C 19.93,39.47 19.99,39.41 20.04,39.33 C 21.22,37.63 19.16,38.21 18.76,37.52 C 15.65,45.23 26.95,43.19 27.06,42.94 L 27.43,43.2 C 28.15,42.85 28.16,43.02 29.2,43.03 C 28.46,42.72 28.23,42.91 27.7,42.58 C 25.58,40.13 29.74,38.28 28.01,35.93 C 28.41,37.23 26.65,39.56 25.65,40.45 C 23.27,39.39 22.47,40.37 20.71,40.55 Z" fill="rgb(138, 108, 81)"/>
<path d="M 35.940000000000005,35.755 L 33.18,34.98 L 32.72,34.75 C 32.52,35.69 32.61,35.28 31.96,35.68 C 40.36,35.15 32.37,38.63 32.13,38.48 L 32.14,38.78 C 34.26,38.68 34.14,38.51 36.04,40.72 C 36.88,40.62 37.67,40.69 38.45,40.47 C 39.15,40.27 40.06,39.89 40.66,39.79 C 40.61,38.93 41,39.47 40.14,39.09 C 39.72,38.91 38.59,38.79 37.77,38.19 C 38.25,37.91 40.16,36.8 40.63,36.89 C 40.63,36.89 41.31,36.79 40.42,36.02 C 39.97,35.63 39.88,35.62 39.32,35.77 C 39.92,35.33 40.1,35.33 40.42,34.4 C 37.8,35.18 37.14,36.19 35.95,35.77 Z" fill="rgb(99, 74, 49)"/>
<path d="M 28.61,29.335 C 28.02,27.76 27.55,27.1 26.78,25.71 L 26.6,26.09 C 26.27,26.99 26.75,27.92 27.2,28.65 C 27.59,25.47 28.23,32.59 29.01,33.07 C 31.94,33.79 35.31,29.65 34.31,28.09 C 34.3,28.08 29.86,27.31 32.89,23.19 C 32.96,23.14 33.06,23.14 33.29,22.96 L 33.34,22.29 C 32.67,22.34 32.54,22.54 32.16,23.15 C 30.41,26.27 30.79,26.61 28.94,30.48 C 28.92,30.5 28.91,30.57 28.89,30.61 C 28.84,29.91 28.79,29.88 28.62,29.35 Z" fill="rgb(49, 27, 9)"/>
<path d="M 25.11,22.585 C 26.27,22.63 25.32,22.53 25.9,22.48 C 26.58,22.41 27.76,23.75 27.85,24.43 C 28.01,25.65 28.01,25.43 27.78,25.74 C 27.38,24.77 24.18,23.97 22.34,24.65 L 22.03,24.8 C 23.71,24.47 21.63,25.44 23.79,24.87 L 22.92,26.59 L 23.03,27.05 C 23.16,27 23.48,26.93 23.65,26.87 C 23.92,25.38 26.76,24.98 27.83,27.43 C 28.15,28.17 28.35,28.63 28.63,29.35 C 29.21,25.88 30.27,26.81 31.56,24.73 C 31.73,24.46 31.56,23.72 31.4,22.23 C 31.37,22.2 31.3,22.14 31.18,22.07 C 29.46,21.12 29.32,22.98 28.17,23.52 L 27.5,23.09 C 26.96,22.66 27.2,22.69 26.54,22.41 C 26.62,22.27 26.66,22.01 26.89,21.94 C 26.94,21.92 27.07,21.97 27.16,21.94 C 26.48,21.39 25.78,21.7 25.76,21.48 C 25.14,21.96 25.74,21.71 25.12,22.59 Z" fill="rgb(136, 101, 67)"/>
<path d="M 35.43,25.615 C 35.82,26.06 35.01,25.4 36.76,26.09 L 35.08,26.2 C 34.72,26.24 34.64,26.2 34.26,26.45 C 33.33,27.05 34.12,26.46 33.66,27.04 C 34.51,26.9 35.76,26.59 36.61,27.51 C 36.99,27.91 36.79,27.88 37.03,28.3 C 37.49,28.23 37.84,28.28 38.19,28.26 C 39.03,28.2 38.67,28.23 38.85,27.68 C 38.06,27.48 38.73,27.64 38.43,27.38 C 37.13,25.32 39.68,24.68 41.84,24.54 C 41.15,22.14 40.8,22.9 39.33,23.06 C 37.53,23.26 39.12,22.45 36.83,24.26 C 35.72,25.16 35.72,24.83 35.44,25.63 Z" fill="rgb(155, 129, 88)"/>
<path d="M 27.25,34.765 L 27.8,35.05 L 27.62,35.81 C 27.49,36.15 27.42,36.36 27.29,36.78 C 26.69,38.7 26.96,38.32 26.36,38.36 C 26.04,38.66 25.65,38.72 25.15,38.9 C 22.05,42.83 21.45,38.58 25.65,40.45 L 26.63,39.58 S 28.3,36.85 28.01,35.93 L 28.56,36.68 C 28.56,36.72 28.2,37.76 28.13,38.07 C 27.83,39.37 27.23,40.02 27.38,41.19 C 27.9,41.49 27.87,40.96 28.03,40.47 C 28.32,39.6 28.26,39.27 28.69,38.52 L 29.29,37.17 C 29.53,36.54 29.48,36.89 28.89,35.97 C 28.46,35.3 28.53,35.2 28.65,34.87 C 28.89,35.17 28.82,35.69 29.52,35.83 C 30.25,35.98 30.03,35.94 30.73,35.29 C 30.23,34.99 29.78,34.75 29.43,34.61 C 29.06,34.54 28.78,34.62 28.71,33.38 C 27.49,33.91 28.55,34.05 27.26,34.78 Z" fill="rgb(58, 35, 18)"/>
<path d="M 31.709999999999997,15.135 C 31.16,15.57 31.7,15.18 31.35,15.79 C 30.25,16.92 29.37,17.99 28.15,18.55 C 27.99,19.05 28.33,18.7 27.68,18.9 C 27.88,20.3 27.95,18.76 28.06,20.07 C 29.82,18.29 28.42,18.48 30.11,18.4 C 30.06,20.66 30.77,21.18 30.94,18.32 L 30.68,18.18 C 30.52,18.06 32.36,15.01 31.45,19.52 C 32.01,18.84 32.75,18.1 33.41,17.06 C 33.97,16.18 33.68,16.45 34.21,16.19 L 34.72,14.79 C 34.16,15.07 34.69,14.92 34.19,15.02 C 32.99,15.28 33.93,14.42 32.19,15.97 C 31.13,17.08 31.51,16.26 31.72,15.15 Z" fill="rgb(122, 91, 58)"/>
<path d="M 32.13,38.765 C 31.1,38.78 31.61,38.71 31.42,39.15 C 31.92,40.01 32.39,40.12 33.42,39.52 C 33.42,39.57 33.31,40.47 33.76,41.22 C 35.33,43.82 35.1,44.58 32.46,43.81 C 33.9,44.91 33.98,43.81 34.36,45 L 34.63,44.77 L 34.75,44.66 C 35.32,44.18 35.73,44.06 35.99,43.29 C 36.4,42.03 35.76,41.64 35.88,41.06 L 36.03,40.72 C 35.42,40.01 35.26,39.89 34.49,39.3 L 34.41,39.18 C 34.31,39.03 34.12,38.81 34.17,38.22 C 33.77,38.72 33.84,38.55 33.77,39.15 C 33.21,38.76 33.46,38.72 32.14,38.78 Z" fill="rgb(123, 97, 66)"/>
<path d="M 24.15,16.544999999999998 C 24.25,16.55 25.35,15.36 26.57,15.26 A 9.5,9.5 0 0,0 24.82,13.02 C 24.02,12.4 22.74,12.71 21.59,12.86 C 21.36,14.56 21.8,12.87 23.96,16.29 C 24.11,16.53 24.1,16.51 24.16,16.56 Z" fill="rgb(179, 140, 99)"/>
<path d="M 33.22,31.794999999999998 C 33.35,31.88 33.33,31.95 33.78,32.06 C 34.07,32.12 34.17,32.13 34.49,32.12 C 36.67,32.04 37.52,30.85 38.11,30.59 C 37.97,32.1 37.63,31.7 36.84,32.29 C 36.48,32.57 36.6,32.26 36.48,32.76 C 38.01,32.32 40.46,31.2 41.73,32.49 C 42.44,32.49 41.93,32.55 42.09,32.29 C 41.99,31.99 41.69,31.56 41.51,31.36 C 40.44,30.21 38.91,29.95 37.53,30 C 36.83,30.48 35.08,30.26 34.3,29.9 C 35.82,30.95 35.4,31.87 33.23,31.81 Z" fill="rgb(131, 106, 74)"/>
<path d="M 35.45,34.055 C 36,34.29 35.92,34.1 36.44,34.29 C 36.56,34.33 36.83,34.48 36.94,34.57 C 37.16,34.77 37.11,34.71 37.21,34.94 C 37.65,35.34 37.81,35.48 37.97,36.06 C 39.39,35.61 38.55,34.96 40.42,34.4 C 40.1,35.33 39.92,35.33 39.32,35.77 C 39.88,35.61 39.97,35.63 40.42,36.02 C 41.32,36.79 40.63,36.89 40.62,36.89 C 40.82,37.56 40.83,37.49 41.21,37.84 C 41.74,36.78 42.05,36.11 41.83,34.71 C 41.54,34.57 41.43,34.52 41.04,34.4 C 40.9,34.35 40.77,34.33 40.64,34.27 C 40.3,34.11 40.59,34.27 40.33,34.07 C 39.74,33.63 39.91,33.47 38.83,33.74 C 36.53,34.34 36.43,33.61 35.46,34.07 Z" fill="rgb(181, 152, 118)"/>
<path d="M 17.75,39.405 C 18.03,38.99 17.54,39.21 18.32,38.89 C 18.16,38.15 17.31,38.09 16.6,38.02 C 16.58,37.07 15.77,37.1 16.25,36.36 C 16.59,36.17 16.47,36.27 16.78,35.98 C 16.32,35.64 16.14,35.83 16.14,35.83 C 13.91,36.06 14.32,35.3 14.29,34.81 C 13.57,35.3 14.14,34.75 13.89,35.37 C 13.56,34.87 13.93,35.22 13.51,34.91 C 13.03,35.15 12.96,34.91 13.01,35.73 C 13.1,36.88 14.19,37.07 15.18,36.99 C 14.88,39.55 17,39.91 17.76,39.42 Z" fill="rgb(202, 179, 134)"/>
<path d="M 15.92,31.585 C 15.58,30.55 17.21,31.8 17.03,31.38 C 19.14,31.26 21.71,31.37 17.88,30.33 C 18.68,29.43 18.96,30.01 19.53,30.03 C 19.27,30.22 19.31,30.13 18.95,29.99 L 19.29,29.45 A 11.75,11.75 0 0,0 14.83,29.17 C 14.84,30.15 14.05,31.37 15.93,31.6 Z" fill="rgb(166, 136, 103)"/>
<path d="M 23.509999999999998,22.825 A 4.51,4.51 0 0,0 22.77,21.44 C 22.15,20.75 22.36,21.2 21.95,20.29 L 21.57,20.37 C 20.52,20.73 21.45,20.83 20.44,20.71 C 20.24,20.69 18.36,19.89 17.37,21.11 C 17.75,21.54 17.45,21.19 17.74,21.39 C 21.9,24.29 19.01,21.06 23.52,22.84 Z" fill="rgb(163, 130, 90)"/>
<path d="M 29.729999999999997,10.055 C 29.87,10.34 29.75,9.9 29.9,10.53 C 30.17,11.68 29.78,14.22 30.13,15.17 C 31.02,14.42 32.69,10.72 32.6,10.3 A 1.8,1.8 0 0,0 31.83,9.12 C 31.1,8.66 30.09,9.65 29.73,10.07 Z" fill="rgb(186, 162, 120)"/>
<path d="M 24.15,16.544999999999998 L 24.42,17.63 L 23.8,17.03 L 23.3,16.53 L 22.64,16.33 C 22.35,16.78 23.28,17.26 21.8,17.97 C 21.8,18.16 21.87,18.07 21.9,18.2 C 21.99,18.5 22.57,18.54 23.08,19.11 C 23.64,19.76 22.98,19.41 23.47,19.43 C 24.34,19.38 23.83,19.06 24.37,19.99 C 24.47,19.93 24.66,19.81 24.73,19.74 C 24.73,19.74 24.58,20 24.49,19.12 C 24.22,16.62 25.57,16.75 25.84,16.12 L 26.3,16.67 L 27,15.77 C 26.55,15.59 26.73,16.01 26.57,15.26 C 23.34,15.55 24.79,16.46 24.16,16.56 Z" fill="rgb(114, 83, 50)"/>
<path d="M 35.86,20.755 L 36.86,20.67 C 36.52,21.2 36.22,20.73 35.59,21.29 L 36.49,21.74 C 33.53,21.75 34.39,22.18 33.34,22.29 L 33.3,22.96 C 33.64,23.26 33.36,23.37 33.55,23.97 C 33.87,24.97 33.59,23.88 34.05,24.72 C 34.48,24.12 34.85,23.72 35.35,23.1 C 36.08,22.23 36.03,22.6 37.03,21.77 L 37.57,22.04 L 37.67,22.1 L 37.88,22.24 C 38.24,21.57 37.9,21.86 37.84,20.85 C 38.44,20.51 38.15,20.48 38.84,20.21 C 38.22,19.94 38.24,20.35 37.53,20.46 C 37.23,20.51 36.92,20.46 36.67,20.48 L 35.87,20.78 Z" fill="rgb(155, 123, 89)"/>
<path d="M 32.49,12.924999999999999 C 32.66,13.24 32.63,12.88 32.5,13.3 C 32.46,13.45 32.3,13.72 32.21,13.88 C 31.97,14.34 31.81,14.6 31.71,15.15 L 31.45,16.57 C 32.06,16.37 31.71,16.47 32.19,15.97 L 32.99,15.25 C 33.89,14.45 33.12,15.25 34.19,15.02 C 34.69,14.92 34.16,15.07 34.72,14.79 C 34.96,14.65 34.82,14.92 34.95,14.47 C 35.13,13.93 34.91,13.6 34.7,13.29 L 34.13,12.49 C 33.56,12.34 33.64,12.23 32.83,12.72 C 32.5,12.92 32.66,12.82 32.5,12.94 Z" fill="rgb(186, 153, 113)"/>
<path d="M 25.27,37.644999999999996 C 26.18,37.86 26.44,37.6 26.36,38.36 C 26.96,38.32 26.7,38.7 27.29,36.78 C 27.41,36.36 27.49,36.15 27.62,35.81 L 27.8,35.05 C 27.07,34.68 25.68,33.94 25.16,34 L 24.91,34.13 C 24.51,34.51 24.68,34.01 24.76,34.63 C 24.78,34.77 24.9,34.93 24.93,34.97 C 26.05,36.67 26.53,34.57 27.51,35.75 C 27.05,35.92 27.91,35.69 27.07,35.83 L 26.91,35.85 C 22.43,36.6 25.26,36.39 25.95,37.32 C 25.53,37.67 25.72,37.47 25.28,37.66 Z" fill="rgb(131, 106, 81)"/>
<path d="M 25.139999999999997,38.885 C 25.65,38.72 26.04,38.66 26.36,38.36 C 26.44,37.6 26.18,37.86 25.28,37.66 C 23.44,37.99 22.95,37.51 22.07,37.34 C 20.79,37.09 21.05,37.67 21.19,38.1 C 21.27,38.35 21.37,38.38 21.53,38.52 C 23.08,39.94 23.03,39.12 25.15,38.9 Z" fill="rgb(202, 171, 129)"/>
<path d="M 34.65,17.745 L 33.43,18.74 C 32.7,19.17 32.69,19.34 32.17,19.66 C 32.73,20.32 32.54,20.21 32.87,21.1 C 34.1,20.93 34.33,18.62 35.8,18.5 C 36.56,18.45 36.5,18.63 36.63,18.76 C 36.94,18.52 37.37,18.22 37.66,17.94 C 37.28,17.55 36.36,17.22 35.69,17.43 C 35.61,17.5 35.35,17.96 34.66,17.76 Z" fill="rgb(171, 146, 103)"/>
<path d="M 26.639999999999997,30.555 C 26.35,30.08 26.19,30.23 25.39,30.08 C 24.81,29.9 24.86,29.85 24.12,29.72 C 22.32,29.4 21.01,28.93 20.21,29.66 C 20.43,30.62 21.16,30.86 22.02,30.96 C 22.3,30.99 22.28,31.01 22.55,30.98 C 22.98,30.93 22.86,30.9 23.1,30.79 C 23.94,30.4 23.8,30.4 24.73,30.6 C 26.19,30.92 25.39,30.76 26.65,30.57 Z" fill="rgb(199, 167, 118)"/>
<path d="M 26.49,12.135 L 26.38,12.71 C 26.48,13.17 26.68,13.41 27.04,13.79 C 28.34,12.18 27.94,14.46 27.18,15.77 L 28.55,15.54 C 29.24,15.36 29.25,15.62 29.56,14.78 C 29.29,14.3 29.43,14.53 29.16,14.16 C 28.71,14.36 28.96,14.16 28.49,14.95 L 28.35,15.2 C 27.67,14.12 28.83,14.29 28.89,11.37 C 28.75,11.5 27.37,11.92 26.49,12.15 Z" fill="rgb(146, 115, 81)"/>
<path d="M 34.660000000000004,20.525 L 34.61,21.07 L 35.87,20.77 L 36.67,20.47 C 36.92,20.45 37.24,20.51 37.53,20.47 C 38.24,20.35 38.22,19.94 38.85,20.21 L 40.05,19.76 L 39.23,18.29 C 38.33,18.23 38.13,18.37 36.93,19.31 C 36.03,20.01 36.03,20.31 34.67,20.54 Z" fill="rgb(213, 185, 148)"/>
<path d="M 27.669999999999998,18.884999999999998 C 28.33,18.7 27.98,19.05 28.15,18.55 C 28.9,18.21 28.11,18.7 28.41,17.68 C 28.97,17.45 29.71,17.23 30.18,16.86 C 30.55,17.51 30.19,17.4 30.51,17.39 L 30.59,16.57 C 30.18,16.1 30.21,16.2 29.43,16.36 C 30.11,15.77 29.96,16.1 29.82,15.89 C 29.43,15.33 27,16.07 26.99,16.07 C 27.06,16.72 27.41,16.57 27.69,18.9 Z" fill="rgb(178, 146, 113)"/>
<path d="M 21.669999999999998,20.085 C 23.12,19.97 22.71,19.7 23.78,20.5 L 24.13,20.73 C 23.71,19.61 21.91,18.2 21.91,18.2 C 21.89,18.12 21.83,18.1 21.8,18.06 C 18,17.6 20.3,20.59 21.68,20.1 Z" fill="rgb(167, 131, 72)"/>
<path d="M 29.43,34.585 C 29.78,34.75 30.23,35 30.74,35.29 C 32.01,35.39 32.99,34.26 33.72,33.69 L 31.82,33.62 C 30.38,33.52 30.2,33.37 29.02,33.07 C 28.82,33.32 28.92,33.23 28.82,33.57 C 29.19,34.1 29.2,33.96 29.44,34.61 Z" fill="rgb(179, 146, 106)"/>
<path d="M 36.02,40.705 L 35.88,41.06 C 35.98,41.26 35.54,41.28 36.48,41.62 L 38.84,42.06 C 39.77,41.26 40.56,41.32 40.66,39.79 C 40.06,39.89 39.16,40.27 38.46,40.47 C 37.66,40.69 36.88,40.63 36.03,40.72 Z" fill="rgb(186, 162, 120)"/>
<path d="M 39.1,27.435 C 39.39,27.83 39.26,28.35 39.11,28.56 C 38.62,29.29 38.62,28.78 38.61,28.77 C 39.04,29.19 38.97,29.12 38.94,29.67 A 4.56,4.56 0 0,0 40.74,28.84 C 41.57,28.01 40.82,28.12 42.34,27.97 C 41.99,27.18 41.49,27.24 41.15,27.05 C 40.73,26.82 41.02,27.03 40.69,26.69 C 40.8,26.61 41.39,26.29 41.64,26.21 L 42.62,26.09 C 41.8,25.68 39.84,26.81 39.12,27.45 Z" fill="rgb(139, 114, 82)"/>
<path d="M 16.959999999999997,33.345 L 17.34,33 L 17.43,32.92 L 18.3,32.24 C 17.69,32.18 16.4,32.04 15.83,31.91 A 27.8,27.8 0 0,1 14.86,31.62 C 13.95,31.27 13.56,30.1 13.38,31.36 L 13.81,33.3 C 14.56,33.07 16.35,32.58 16.97,33.36 Z" fill="rgb(186, 162, 120)"/>
<path d="M 34.25,16.555 C 34.14,17.24 34.02,17.2 33.79,17.81 L 34.67,17.76 C 35.35,17.96 35.61,17.5 35.69,17.43 C 35.84,16.66 36.22,16.58 36.69,16.11 C 37.23,15.58 37.71,15.34 38.02,14.97 C 36.75,14.02 34.92,15.94 34.26,16.57 Z" fill="rgb(139, 114, 82)"/>
<path d="M 16.029999999999998,36.675 C 16.34,37.47 16.58,37.3 16.6,38.02 C 17.3,38.1 18.16,38.15 18.32,38.89 C 18.49,38.68 19.59,37.69 19.48,37.58 C 18.72,36.81 18.35,36.14 18.84,35.78 C 18.77,35.78 16.49,36.61 16.04,36.68 Z" fill="rgb(155, 122, 82)"/>
<path d="M 33.22,31.794999999999998 L 35.11,31.87 C 35.16,31.63 35.2,31.47 35.21,31.29 C 35.21,31.04 35.17,30.99 35.16,30.94 L 35.15,30.47 C 35.11,30.45 35.05,30.36 35.02,30.4 C 35,30.44 34.92,30.34 34.9,30.32 L 34.3,29.91 L 32.5,30.06 L 31.99,30.03 L 31.83,30.77 C 32.23,31.15 32.58,31.6 33.23,31.81 Z" fill="rgb(202, 179, 134)"/>
<path d="M 19.689999999999998,16.085 C 19.96,16.32 20.02,16.31 20.2,16.46 C 21,17.08 21.18,17.71 21.8,17.96 C 22.54,17.62 22.16,17.67 22.76,17.23 C 22.68,16.46 22.36,16.76 22.64,16.33 L 23.3,16.53 C 23.1,15.98 23.1,15.79 22.54,15.71 A 13.2,13.2 0 0,0 20.24,15.61 C 19.54,15.83 19.54,15.45 19.7,16.09 Z" fill="rgb(179, 146, 106)"/>
<path d="M 25.11,22.585 L 25.45,24.2 L 26.88,25.16 C 27.08,24.86 26.85,25.06 27.25,24.88 C 27.87,25.39 27.57,25.23 27.78,25.74 C 28.01,25.44 28.01,25.64 27.85,24.43 C 27.75,23.75 26.58,22.41 25.9,22.48 C 25.32,22.53 26.27,22.63 25.12,22.6 Z" fill="rgb(184, 150, 102)"/>
<path d="M 17.97,33.644999999999996 C 18.51,34.54 18.93,34.67 20.11,34.76 C 21.36,34.84 21.48,34.24 22.42,34.02 C 21.9,33.12 20.97,33.94 19.58,33.43 C 18.84,33.17 18.34,32.39 17.98,33.66 Z" fill="rgb(202, 170, 122)"/>
<path d="M 33.22,37.115 C 34.38,37.66 35.73,36.75 36.2,36.11 C 34.87,36.05 33.08,35.61 31.96,35.68 L 31.44,35.78 C 31.77,36.18 31.82,36.26 32.34,36.53 C 32.81,36.77 33.04,36.73 33.24,37.13 Z" fill="rgb(202, 179, 134)"/>
<path d="M 16.619999999999997,25.935 C 17.18,26.07 17.03,26.08 17.48,26.4 L 18.56,26.8 A 3.42,3.42 0 0,1 20.08,25.64 C 19.81,25.29 19.72,25.24 19.54,25.13 C 19.37,25.01 19.29,24.99 19.12,24.91 C 18.02,24.73 17.15,25.15 16.34,25.38 C 16.41,25.49 16.62,25.92 16.64,25.95 Z" fill="rgb(179, 146, 106)"/>
<path d="M 27.419999999999998,43.185 C 27.95,44.8 30.21,44.55 30.93,44.2 C 30.18,43.96 30.8,44.46 30.36,43.85 L 31.17,43.45 L 30.88,42.97 C 30.08,42.97 30.05,43.27 29.2,43.03 C 28.16,43.03 28.15,42.85 27.43,43.2 Z" fill="rgb(186, 153, 113)"/>
<path d="M 19.689999999999998,16.085 C 19.55,15.45 19.54,15.83 20.25,15.62 C 20.52,15.53 22.09,15.66 22.55,15.72 L 22.35,15.07 C 22.55,14.97 22.55,15.26 21.98,14.87 C 21.38,14.47 21.31,14.24 20.39,14.29 C 19.31,14.34 18.82,14.88 19.03,15.99 L 19.7,16.09 Z" fill="rgb(217, 195, 149)"/>
<path d="M 16.63,25.935 C 16.62,25.92 16.41,25.49 16.34,25.38 C 17.15,25.15 18.02,24.73 19.12,24.91 C 18.05,23.83 17.84,23.77 16.05,23.94 C 15.72,24.69 15.57,25.02 15.78,25.88 L 16.64,25.95 Z" fill="rgb(232, 212, 166)"/>
<path d="M 27.72,11.065 C 28,11.58 27.91,10.41 27.99,11.81 C 28.67,11.61 28.49,11.72 28.89,11.37 C 29.51,11.33 28.96,11.48 29.69,11.6 L 29.73,10.07 C 29.43,9.85 28.96,9.44 28.35,9.53 C 27.61,9.63 27.59,10.38 27.73,11.08 Z" fill="rgb(199, 167, 118)"/>
<path d="M 42.080000000000005,32.265 L 42.49,32.01 C 42.59,31.54 42.8,30.9 42.55,30.51 C 42.13,29.86 39.13,29.79 38.9,30.31 C 39.8,30.31 40.89,30.69 41.5,31.36 C 41.7,31.56 42,31.99 42.09,32.28 Z" fill="rgb(185, 165, 134)"/>
<path d="M 23.639999999999997,26.855 C 23.8,27.75 23.81,27.84 24.19,28.65 C 24.65,28.65 24.42,28.41 25.49,28.27 C 25.25,27.4 25.66,28.05 25.02,27.54 C 25.24,27.32 25.59,27.05 25.73,26.79 C 26.41,25.49 23.85,26.74 23.65,26.87 Z" fill="rgb(146, 115, 81)"/>
<path d="M 17.669999999999998,40.985 C 18.79,42.07 18.77,42.4 20.52,42.2 C 20.67,41.8 20.8,41.6 20.89,41.22 C 18.65,41.05 18.42,41.08 17.94,40.19 C 17.79,40.35 17.1,41.17 17.68,40.99 Z" fill="rgb(229, 198, 150)"/>
<path d="M 25.75,21.465 C 25.78,21.66 25.59,21.51 26.2,21.57 C 28.19,21.74 26.3,22.89 28.7,21.28 C 28.74,20.81 28.63,20.67 28.5,20.25 C 27.55,20.23 27.58,20.75 27.08,20.82 C 26.38,20.92 26.01,20.29 25.76,21.48 Z" fill="rgb(195, 162, 114)"/>
<path d="M 32.4,43.665 L 32.46,43.81 L 34.32,44.35 C 34.81,43.72 34.65,43.87 34.9,43.15 C 33.63,43.19 34.2,43.34 33.73,43.15 L 33.56,43.01 C 32.52,42.77 33.12,42.38 32.08,42.11 L 32.41,43.68 Z" fill="rgb(210, 179, 137)"/>
<path d="M 22.91,26.585 L 23.36,26.4 L 23.79,24.87 C 21.64,25.44 23.71,24.47 22.03,24.8 C 22.2,25.36 21.84,25.03 21.3,25.57 C 21.75,25.97 22,26.47 22.92,26.59 Z" fill="rgb(214, 182, 134)"/>
<path d="M 27.41,22.155 L 28.35,22.81 C 28.57,21.65 29.32,21.74 30.03,21.35 C 30.97,20.83 30.43,21.05 30.49,20.73 C 30.16,20.72 29.53,20.63 29.48,20.61 C 29.13,20.51 28.83,20.37 28.49,20.25 C 28.63,20.67 28.74,20.81 28.71,21.28 L 27.51,22.08 C 27.49,22.06 27.45,22.14 27.42,22.18 Z" fill="rgb(131, 106, 74)"/>
<path d="M 42.330000000000005,27.955 C 42.74,27.58 42.34,28.24 42.74,27.5 C 42.81,27.39 42.89,27.18 42.91,27.04 C 43.03,26.27 42.77,26.2 42.62,26.09 L 41.64,26.21 C 41.4,26.28 40.8,26.61 40.69,26.69 C 41.02,27.03 40.73,26.82 41.15,27.05 C 41.49,27.24 41.99,27.18 42.35,27.97 Z" fill="rgb(202, 179, 134)"/>
<path d="M 24.61,44.355 C 24.16,42.95 23.49,43.69 22.62,42.8 C 22.52,42.68 22.4,42.5 22.39,42.48 C 22.02,42.05 22.45,42.4 21.95,42.08 C 22.27,44.08 22.63,44.31 24.62,44.37 Z" fill="rgb(217, 195, 149)"/>
<path d="M 26.369999999999997,12.695 L 26.49,12.15 L 27.64,11.85 C 27.04,11.15 25.74,10.66 25.09,11.62 C 25.32,12.43 24.65,11.5 26.39,12.72 Z" fill="rgb(229, 198, 150)"/>
<path d="M 29.79,40.785 C 30.27,41.34 30.12,41.53 30.25,42.17 C 30.29,42.18 30.35,42.15 30.37,42.19 L 31.24,41.91 L 31.46,40.64 C 30.96,40.46 30.79,40.38 30.52,40.1 C 30.02,40.55 30.32,40.55 29.8,40.8 Z" fill="rgb(146, 115, 81)"/>
<path d="M 17.47,26.384999999999998 C 18.3,27.05 18.07,26.86 18.75,27.81 C 20.82,30.68 18.7,29.41 17.88,30.33 C 21.71,31.37 17.62,30.84 15.5,30.96 C 15.7,31.38 15.58,30.56 15.93,31.6 C 15.4,31.54 10.79,30.8 15.83,31.91 C 16.4,32.04 17.69,32.18 18.3,32.24 C 17.02,33.24 13.55,34.87 13.51,34.91 C 13.93,35.21 13.56,34.87 13.88,35.37 C 14.14,34.75 13.58,35.3 14.28,34.81 C 14.44,36.86 15.83,35.27 16.78,35.98 C 16.44,36.31 16.31,36.27 16.04,36.68 C 17.37,36.48 18.64,35.43 20.11,34.75 C 20.82,34.43 21.65,32.67 22.42,34.02 L 23.31,33.34 C 23.57,32.56 24.85,29.3 26.79,31.14 C 26.86,30.79 26.68,30.63 26.65,30.57 C 25.39,30.76 26.19,30.92 24.73,30.6 C 23.8,30.4 23.93,30.4 23.1,30.79 C 22.6,31.02 22.57,31.02 22.02,30.96 C 21.16,30.86 20.43,30.62 20.21,29.66 C 21.01,28.93 22.33,29.4 24.12,29.72 C 24.86,29.85 24.81,29.9 25.39,30.08 C 24.45,28.96 24.92,30.34 24.3,29.24 A 5.64,5.64 0 0,0 22.35,26.87 L 22.39,27.34 C 22.51,28.41 22.72,28.4 23.1,29.29 L 22.9,29.19 C 22.04,28.71 21.65,28.24 21.74,27.02 C 21.15,26.56 20.65,25.82 20.08,25.64 C 19.88,25.68 18.9,26.2 18.56,26.8 L 17.48,26.4 Z" fill="rgb(108, 82, 50)"/>
</svg>
