<?xml version="1.0" encoding="UTF-8"?>
<!-- generated by Finnhub -->
<svg viewBox="0 0 55.5 55.5" xmlns="http://www.w3.org/2000/svg">
<path d="M 0,0 H 55.5 V 55.5 H 0 Z" fill="rgb(239, 242, 248)"/>
<path d="M 14.17,18.985 H 15.28 C 15.1,17.71 13.99,17 12.74,17 C 11.04,17 10,18.38 10,20 S 11.04,23 12.74,23 C 13.95,23 15.09,22.25 15.27,21 H 14.18 C 14.05,21.67 13.42,22 12.76,22 C 11.61,22 11,21.03 11,20 C 11,18.98 11.62,18 12.76,18 C 13.44,18 14.06,18.3 14.18,19 Z M 41,20 V 19 H 40 V 18 H 38.98 V 19 H 38 V 20 H 38.98 V 21.68 C 38.98,21.98 39.05,22.23 39.18,22.43 C 39.33,22.63 39.52,22.78 39.76,22.87 A 2.37,2.37 0 0,0 41.26,22.89 L 41.06,22 C 40.63,22.12 40,22.03 40,21.5 V 20 H 41 Z M 44.09,23 C 43.66,23 43.29,22.92 42.97,22.76 A 1.8,1.8 0 0,1 42.25,22.06 C 42.08,21.76 42,21.42 42,21.01 C 42,20.61 42.08,20.26 42.25,19.96 C 42.42,19.66 42.65,19.42 42.96,19.26 A 2.39,2.39 0 0,1 44.78,19.12 A 1.65,1.65 0 0,1 45.84,20.08 C 45.94,20.32 46,20.62 46,20.96 V 21.24 H 43 C 43,21.45 43.05,21.64 43.14,21.79 C 43.24,21.95 43.36,22.08 43.53,22.16 C 43.69,22.25 43.88,22.29 44.1,22.29 C 44.25,22.29 44.38,22.27 44.5,22.23 C 44.62,22.19 44.73,22.13 44.81,22.06 A 0.7,0.7 0 0,0 45.01,21.79 L 45.96,21.89 A 1.4,1.4 0 0,1 44.98,22.86 C 44.72,22.96 44.42,23 44.08,23 Z M 43.14,20.2 A 0.93,0.93 0 0,0 43.01,20.62 H 45.03 A 0.87,0.87 0 0,0 44.56,19.82 A 1.05,1.05 0 0,0 44.05,19.72 C 43.85,19.72 43.66,19.76 43.5,19.85 A 0.99,0.99 0 0,0 43.14,20.2 Z M 41.09,31.85 C 41.35,31.95 41.66,32 42.01,32 C 42.39,32 42.73,31.94 43.03,31.82 C 43.33,31.7 43.57,31.52 43.74,31.29 C 43.91,31.05 44,30.75 44,30.39 V 26 H 43 V 26.76 H 42.96 A 1.3,1.3 0 0,0 41.75,26 C 40.55,26 40,27.12 40,28.17 C 40,29.24 40.57,30.25 41.74,30.25 C 42.26,30.25 42.73,30.02 42.96,29.55 H 43 V 30.35 C 43,30.67 42.92,30.9 42.73,31.03 C 42.55,31.17 42.31,31.24 42.03,31.24 C 41.83,31.24 41.66,31.21 41.53,31.16 A 0.86,0.86 0 0,1 41.22,30.96 A 1,1 0 0,1 41.04,30.71 L 40.14,30.92 C 40.21,31.12 40.31,31.3 40.47,31.46 C 40.63,31.63 40.83,31.76 41.09,31.86 Z M 42.9,28.86 A 0.89,0.89 0 0,1 42.02,29.46 C 41.3,29.46 41,28.8 41,28.16 C 41,27.09 42.4,26.12 42.9,27.46 C 42.98,27.66 43.02,27.9 43.02,28.16 C 43.02,28.44 42.98,28.67 42.9,28.86 Z M 43.9,35.16 L 44.9,35.07 A 1.2,1.2 0 0,0 44.31,34.29 C 44,34.09 43.57,34 43.02,34 C 42.65,34 42.32,34.05 42.03,34.15 C 41.75,34.25 41.53,34.38 41.37,34.55 A 0.88,0.88 0 0,0 41.13,35.18 C 41.13,35.46 41.23,35.69 41.45,35.88 C 41.67,36.06 42,36.19 42.45,36.27 L 43.25,36.41 C 43.45,36.44 43.62,36.5 43.72,36.57 C 43.82,36.64 43.87,36.74 43.87,36.85 C 43.87,36.98 43.79,37.09 43.63,37.18 C 43.47,37.27 43.26,37.31 43,37.31 C 42.75,37.31 42.54,37.27 42.38,37.18 A 0.63,0.63 0 0,1 42.08,36.78 L 41,36.87 C 41.07,37.22 41.27,37.5 41.62,37.7 C 41.97,37.9 42.43,38 43,38 A 3,3 0 0,0 44.04,37.84 C 44.34,37.74 44.57,37.59 44.74,37.41 C 44.91,37.22 45,37.01 45,36.76 C 45,36.49 44.89,36.26 44.67,36.09 A 2.2,2.2 0 0,0 43.69,35.71 L 42.89,35.57 C 42.65,35.53 42.49,35.47 42.38,35.4 A 0.31,0.31 0 0,1 42.23,35.12 C 42.23,34.99 42.3,34.89 42.46,34.8 C 42.61,34.72 42.81,34.68 43.03,34.68 C 43.21,34.68 43.35,34.7 43.47,34.75 C 43.58,34.79 43.67,34.85 43.75,34.93 A 0.6,0.6 0 0,1 43.9,35.17 Z M 34,34 V 38 H 35 V 35.6 C 35,35.44 35.04,35.3 35.11,35.17 A 0.77,0.77 0 0,1 35.79,34.78 C 36,34.78 36.17,34.84 36.31,34.97 C 36.44,35.09 36.51,35.25 36.51,35.45 V 38 H 37.49 V 35.54 C 37.49,35.31 37.56,35.14 37.69,34.99 A 0.76,0.76 0 0,1 38.26,34.79 C 38.46,34.79 38.64,34.84 38.78,34.96 C 38.92,35.06 39,35.25 39,35.49 V 38 H 40 V 35.35 C 40,34.91 39.88,34.57 39.63,34.35 A 1.36,1.36 0 0,0 38.67,34 C 38.36,34 38.09,34.07 37.87,34.2 C 37.64,34.33 37.48,34.5 37.39,34.72 H 37.34 A 0.98,0.98 0 0,0 36.92,34.2 A 1.3,1.3 0 0,0 36.19,34 C 35.9,34 35.66,34.06 35.45,34.2 C 35.25,34.32 35.1,34.5 35.01,34.72 H 35 V 34 H 34 Z M 31.09,38 C 30.66,38 30.29,37.92 29.97,37.76 A 1.8,1.8 0 0,1 29.25,37.06 C 29.08,36.76 29,36.42 29,36.01 C 29,35.61 29.08,35.26 29.25,34.96 C 29.42,34.66 29.65,34.42 29.96,34.26 A 2.39,2.39 0 0,1 31.78,34.12 A 1.65,1.65 0 0,1 32.84,35.08 C 32.94,35.32 33,35.62 33,35.96 V 36.24 H 30 C 30,36.45 30.05,36.64 30.14,36.79 C 30.24,36.95 30.36,37.08 30.53,37.16 C 30.69,37.25 30.88,37.29 31.1,37.29 C 31.25,37.29 31.38,37.27 31.5,37.23 C 31.62,37.19 31.73,37.13 31.81,37.06 A 0.7,0.7 0 0,0 32.01,36.79 L 32.96,36.89 A 1.4,1.4 0 0,1 31.98,37.86 C 31.72,37.96 31.42,38 31.08,38 Z M 30,35.62 H 32.02 A 0.87,0.87 0 0,0 31.55,34.82 A 1.05,1.05 0 0,0 31.04,34.72 C 30.84,34.72 30.65,34.76 30.49,34.85 A 0.99,0.99 0 0,0 30.13,35.2 A 0.93,0.93 0 0,0 30,35.62 Z M 28.5,35 V 34 H 27.5 V 33 H 26.5 V 34 H 25.5 V 35 H 26.5 V 36.68 C 26.5,36.98 26.53,37.23 26.66,37.43 C 26.78,37.63 26.95,37.78 27.16,37.87 C 27.37,37.97 27.61,38.01 27.88,38 A 1.87,1.87 0 0,0 28.5,37.89 L 28.32,37 A 1.5,1.5 0 0,1 28.02,37.05 A 0.63,0.63 0 0,1 27.77,37 A 0.35,0.35 0 0,1 27.6,36.84 A 0.73,0.73 0 0,1 27.5,36.49 V 35 H 28.5 Z M 24.9,35.07 L 23.9,35.17 A 0.64,0.64 0 0,0 23.75,34.93 A 0.74,0.74 0 0,0 23.47,34.75 A 1.2,1.2 0 0,0 23.04,34.68 C 22.81,34.68 22.61,34.72 22.46,34.8 C 22.3,34.89 22.23,35 22.23,35.12 S 22.28,35.32 22.38,35.4 C 22.48,35.47 22.65,35.53 22.88,35.57 L 23.68,35.72 C 24.13,35.79 24.46,35.92 24.68,36.09 C 24.88,36.26 25,36.49 25,36.76 C 25,37.01 24.91,37.22 24.74,37.41 C 24.57,37.59 24.34,37.74 24.04,37.84 C 23.74,37.94 23.39,38 23,38 C 22.43,38 21.97,37.9 21.62,37.7 A 1.2,1.2 0 0,1 21,36.87 L 22.07,36.78 C 22.12,36.96 22.23,37.08 22.38,37.18 C 22.54,37.27 22.75,37.31 23,37.31 C 23.26,37.31 23.47,37.27 23.63,37.18 C 23.79,37.08 23.87,36.98 23.87,36.85 C 23.87,36.74 23.82,36.65 23.72,36.57 A 1.2,1.2 0 0,0 23.24,36.41 L 22.44,36.27 A 2.07,2.07 0 0,1 21.45,35.87 A 0.88,0.88 0 0,1 21.13,35.17 C 21.13,34.94 21.21,34.73 21.36,34.55 C 21.53,34.38 21.75,34.25 22.03,34.15 C 22.32,34.05 22.65,34 23.02,34 C 23.57,34 24,34.1 24.32,34.29 C 24.62,34.49 24.82,34.74 24.9,35.07 Z M 17.03,39.97 A 2.2,2.2 0 0,0 18.14,39.87 C 18.34,39.77 18.51,39.65 18.65,39.49 C 18.79,39.32 18.9,39.12 18.98,38.89 L 20.78,34 H 19.66 L 18.62,37.3 H 18.57 L 17.54,34 H 16.42 L 18.04,38.45 L 17.95,38.69 A 0.78,0.78 0 0,1 17.72,39.04 C 17.62,39.11 17.52,39.15 17.4,39.15 S 17.14,39.13 16.99,39.09 L 16.74,39.89 C 16.81,39.92 16.91,39.95 17.03,39.97 Z M 14.78,33.68 A 0.77,0.77 0 0,0 14.4,33.1 C 14.18,32.96 13.9,32.9 13.55,32.9 C 13.3,32.9 13.09,32.93 12.91,33 A 0.94,0.94 0 0,0 12.51,33.26 A 0.61,0.61 0 0,0 12.37,33.66 C 12.37,33.78 12.4,33.88 12.46,33.97 A 0.8,0.8 0 0,0 12.72,34.2 A 4.24,4.24 0 0,0 13.48,34.46 L 14.08,34.59 C 14.33,34.65 14.57,34.71 14.79,34.8 C 15.02,34.89 15.23,35 15.41,35.13 C 15.59,35.27 15.73,35.43 15.84,35.61 C 15.94,35.81 16,36.02 16,36.27 C 16,36.62 15.9,36.92 15.7,37.17 C 15.51,37.44 15.23,37.64 14.86,37.78 C 14.49,37.93 14.05,38 13.53,38 C 13.03,38 12.58,37.93 12.21,37.79 A 1.7,1.7 0 0,1 11.01,36.19 H 12.16 C 12.18,36.39 12.25,36.56 12.37,36.69 C 12.49,36.83 12.65,36.93 12.85,36.99 C 13.05,37.06 13.27,37.09 13.52,37.09 C 13.78,37.09 14,37.06 14.19,36.99 C 14.39,36.92 14.54,36.83 14.65,36.7 A 0.66,0.66 0 0,0 14.82,36.27 A 0.52,0.52 0 0,0 14.67,35.89 A 1.1,1.1 0 0,0 14.26,35.64 A 4.3,4.3 0 0,0 13.65,35.46 L 12.91,35.29 A 3.13,3.13 0 0,1 11.64,34.73 A 1.23,1.23 0 0,1 11.17,33.72 C 11.17,33.38 11.27,33.08 11.48,32.82 S 11.98,32.36 12.34,32.22 C 12.7,32.07 13.11,32 13.56,32 C 14.03,32 14.43,32.07 14.78,32.22 C 15.13,32.36 15.4,32.56 15.6,32.82 C 15.8,33.06 15.9,33.35 15.91,33.68 H 14.78 Z M 36,30 V 27.69 C 36,26.53 38,26.46 38,27.63 V 30 H 39 V 27.49 C 39,26.57 38.33,26 37.44,26 C 36.76,26 36.21,26.28 36,26.72 V 26 H 35 V 30 H 36 Z M 33.5,25 A 0.49,0.49 0 0,1 33.15,24.86 A 0.48,0.48 0 0,1 33,24.5 C 33,24.36 33.05,24.24 33.15,24.15 C 33.25,24.05 33.36,24 33.5,24 C 33.64,24 33.76,24.05 33.85,24.15 C 33.95,24.25 34,24.36 34,24.5 A 0.5,0.5 0 0,1 33.85,24.86 C 33.75,24.96 33.64,25 33.5,25 Z M 33,26 V 30 H 34 V 26 H 33 Z M 32,24 V 30 H 31 V 24 H 32 Z M 26.97,29.76 C 27.28,29.92 27.66,30 28.09,30 C 28.42,30 28.72,29.95 28.98,29.86 C 29.24,29.77 29.45,29.64 29.62,29.48 C 29.78,29.31 29.9,29.11 29.96,28.88 L 29.01,28.78 A 0.7,0.7 0 0,1 28.81,29.06 A 0.91,0.91 0 0,1 28.51,29.23 C 28.38,29.27 28.25,29.29 28.11,29.29 C 27.88,29.29 27.69,29.25 27.53,29.16 A 0.93,0.93 0 0,1 27.14,28.79 A 1.14,1.14 0 0,1 27.01,28.24 H 30 V 27.96 C 30,27.62 29.95,27.32 29.84,27.08 A 1.65,1.65 0 0,0 28.79,26.12 A 2.39,2.39 0 0,0 26.96,26.25 A 2,2 0 0,0 26,28.01 C 26,28.41 26.08,28.77 26.25,29.07 C 26.42,29.37 26.66,29.59 26.97,29.76 Z M 27.01,27.62 H 29.03 A 0.87,0.87 0 0,0 28.56,26.82 A 1.05,1.05 0 0,0 28.05,26.72 C 27.85,26.72 27.66,26.76 27.5,26.85 A 0.99,0.99 0 0,0 27.14,27.2 A 0.93,0.93 0 0,0 27.01,27.62 Z M 25,26 L 23.54,30 H 22.46 L 21,26 H 22.03 L 22.98,28.97 H 23.02 L 23.97,26 H 25 Z M 17.47,29.76 C 17.78,29.92 18.16,30 18.59,30 C 18.92,30 19.22,29.95 19.48,29.86 C 19.74,29.77 19.95,29.64 20.12,29.48 C 20.28,29.31 20.4,29.11 20.46,28.88 L 19.51,28.78 A 0.7,0.7 0 0,1 19.31,29.06 A 0.91,0.91 0 0,1 19.01,29.23 C 18.88,29.27 18.75,29.29 18.61,29.29 C 18.38,29.29 18.19,29.25 18.03,29.16 A 0.93,0.93 0 0,1 17.64,28.79 A 1.14,1.14 0 0,1 17.51,28.24 H 20.5 V 27.96 C 20.5,27.62 20.45,27.32 20.34,27.08 A 1.65,1.65 0 0,0 19.29,26.12 A 2.39,2.39 0 0,0 17.46,26.25 A 2,2 0 0,0 16.5,28.01 C 16.5,28.41 16.58,28.77 16.75,29.07 C 16.92,29.37 17.16,29.59 17.47,29.76 Z M 17.51,27.62 H 19.53 A 0.87,0.87 0 0,0 19.06,26.82 A 1.05,1.05 0 0,0 18.55,26.72 C 18.35,26.72 18.16,26.76 18,26.85 A 0.99,0.99 0 0,0 17.64,27.2 A 0.93,0.93 0 0,0 17.51,27.62 Z M 12,30 V 24 H 13 V 29 H 16 V 30 H 12 Z M 36.09,23 C 35.66,23 35.29,22.92 34.97,22.76 A 1.8,1.8 0 0,1 34.25,22.06 C 34.08,21.76 34,21.42 34,21.01 C 34,20.61 34.08,20.26 34.25,19.96 C 34.42,19.66 34.65,19.42 34.96,19.26 A 2.39,2.39 0 0,1 36.78,19.12 A 1.65,1.65 0 0,1 37.84,20.08 C 37.94,20.32 38,20.62 38,20.96 V 21.24 H 35 C 35,21.45 35.05,21.64 35.14,21.79 C 35.24,21.95 35.36,22.08 35.53,22.16 C 35.69,22.25 35.88,22.29 36.1,22.29 C 36.25,22.29 36.38,22.27 36.5,22.23 C 36.62,22.19 36.73,22.13 36.81,22.06 A 0.7,0.7 0 0,0 37.01,21.79 L 37.96,21.89 A 1.4,1.4 0 0,1 36.98,22.86 C 36.72,22.96 36.42,23 36.08,23 Z M 37.03,20.62 H 35 C 35,20.47 35.05,20.32 35.13,20.2 A 0.99,0.99 0 0,1 35.49,19.85 A 1,1 0 0,1 36.04,19.71 C 36.24,19.71 36.4,19.75 36.54,19.83 A 0.87,0.87 0 0,1 37.02,20.63 Z M 31,19 V 23 H 32 V 20.68 C 32,20.14 32.57,19.83 33.07,19.83 A 2.22,2.22 0 0,1 33.56,19.88 V 19.03 L 33.38,19.01 L 33.18,19 C 32.92,19 32.69,19.06 32.49,19.19 A 1,1 0 0,0 32.07,19.71 H 32 V 19 H 31 Z M 28.11,23 C 26.93,23 26,22.22 26,21 C 26,19.8 26.93,19 28.1,19 C 28.97,19 29.92,19.43 30,20.4 H 29 C 28.93,20.02 28.62,19.74 28.12,19.74 C 27.42,19.74 27,20.34 27,20.99 S 27.4,22.26 28.12,22.26 C 28.54,22.26 28.92,22.02 29.01,21.6 H 30 C 29.91,22.56 28.98,23 28.11,23 Z M 22,23 V 20.69 C 22,20.13 22.5,19.79 23.04,19.79 C 23.59,19.79 24,20.1 24,20.63 V 23 H 25 V 20.49 C 25,19.57 24.33,19 23.44,19 C 22.76,19 22.21,19.28 22,19.72 V 19 H 21 V 23 H 22 Z M 18,23 C 16.83,23 16,22.17 16,21 S 16.83,19 18,19 S 20,19.83 20,21 S 19.17,23 18,23 Z M 18,22.27 C 18.7,22.27 19,21.62 19,21 C 19,20.39 18.7,19.72 18,19.72 S 17,20.38 17,21 C 17,21.63 17.3,22.27 18,22.27 Z" fill-rule="evenodd"/>
</svg>
