<?xml version="1.0" encoding="UTF-8"?>
<!-- generated by Finnhub -->
<svg viewBox="0 0 55.5 55.5" xmlns="http://www.w3.org/2000/svg">
<path d="M 0,0 H 55.5 V 55.5 H 0 Z" fill="rgb(203, 1, 49)"/>
<path d="M 41.006,20.095 C 40.411,20.164 39.181,20.23 38.293,20.273 C 36.448,20.361 36.417,20.339 39.251,20.973 C 41.359,21.443 42.579,21.804 42.579,21.947 C 42.579,21.99 42.489,22.121 42.377,22.231 C 42.166,22.439 42.176,22.439 42.7,22.646 C 42.992,22.766 43.426,23.007 43.668,23.171 C 43.91,23.346 44.122,23.488 44.142,23.488 C 44.162,23.488 44.192,23.358 44.212,23.193 C 44.243,22.843 44.485,22.756 45.402,22.733 C 46.129,22.723 46.602,22.963 47.45,23.794 C 47.823,24.166 48.146,24.472 48.166,24.472 C 48.176,24.472 48.821,24.592 49.588,24.746 C 50.344,24.899 50.99,25.019 51,24.997 C 51.02,24.976 50.092,24.254 48.953,23.379 L 46.865,21.793 L 45.655,21.728 C 43.991,21.64 43.527,21.465 42.861,20.634 C 42.579,20.284 42.297,20 42.236,20 C 42.176,20.01 41.631,20.066 41.016,20.11 Z M 5.678,23.047 C 4.777,23.287 4.17,24.009 4.038,24.992 C 3.998,25.337 3.988,27.522 4.018,29.855 C 4.078,33.945 4.088,34.102 4.301,34.52 C 5.02,35.911 6.862,36.36 8.917,35.639 L 9.818,35.325 L 10.406,35.565 A 5.188,5.188 0 0,0 14.476,35.565 L 15.062,35.315 L 15.639,35.555 C 16.915,36.089 18.474,36.089 19.759,35.555 L 20.377,35.294 L 21.025,35.566 A 5.188,5.188 0 0,0 25.095,35.566 L 25.692,35.315 L 26.32,35.576 C 27.686,36.151 29.174,36.141 30.45,35.545 C 30.997,35.294 31.078,35.283 31.28,35.419 C 32.333,36.12 34.56,36.162 35.795,35.514 L 36.19,35.304 L 36.787,35.555 C 38.154,36.12 39.541,36.131 40.897,35.565 L 41.484,35.315 L 42.071,35.565 C 43.428,36.131 44.997,36.131 46.201,35.565 L 46.748,35.305 L 47.336,35.576 C 48.105,35.953 49.32,36.026 50.099,35.764 C 51.274,35.357 51.922,34.332 51.992,32.721 C 52.063,31.069 51.648,30.138 50.474,29.321 C 50.069,29.045 48.735,28.158 49.401,27.471 C 49.593,27.271 49.991,27.397 50.061,27.628 C 50.152,27.941 50.354,28 50.952,28 C 51.505,28 51.438,27.91 51.377,27.586 C 51.175,26.571 50.454,25.933 49.502,26.016 C 48.399,26.101 47.71,27.146 47.912,28.391 C 48.014,28.998 48.51,29.615 49.411,30.253 C 50.809,31.251 51.427,34.329 49.138,34.541 C 48.5,34.593 47.71,34.649 47.123,34.251 L 46.748,34 L 46.263,34.314 C 44.977,35.161 43.246,35.137 41.97,34.3 L 41.484,34 L 41.008,34.3 C 39.763,35.106 38.336,35.106 36.858,34.332 L 36.2,34 L 35.795,34.248 A 3.956,3.956 0 0,1 31.435,34.258 L 31.018,34 L 30.634,34.248 C 29.389,35.127 27.371,35.127 26.075,34.248 L 25.692,34 L 25.307,34.248 C 24.781,34.625 23.758,34.666 23.019,34.666 C 22.239,34.666 21.343,34.719 20.705,34.3 L 20.219,34 L 19.692,34.3 C 18.295,35.106 16.824,35.085 15.558,34.31 L 15,34 L 14.404,34.31 C 13.331,34.98 11.894,34.855 10.76,34.31 C 10.426,34.154 9.995,34 9.995,34 S 9.548,34.19 9.165,34.31 C 8.34,34.76 6.605,34.918 5.961,34.186 C 5.567,33.736 5.526,33.296 5.526,28.956 C 5.526,25.4 5.546,24.783 5.678,24.647 C 5.931,24.397 6.295,24.26 6.558,24.437 C 6.761,24.573 6.97,24.873 7,25.375 V 26 H 8.52 L 8.49,25.418 C 8.429,24.205 7.703,23.12 6.559,23.015 A 3.318,3.318 0 0,0 5.678,23.047 Z" fill="rgb(254, 254, 253)"/>
<path d="M 23.555999999999997,32.985 H 25 V 29 H 26.56 V 33 H 28 V 23 H 26.56 V 27 H 25 V 23.002 H 23.566 V 33 Z M 9,24 V 33 H 10.5 V 24 H 9 Z M 36,33 H 36.422 C 36.7,33 36.896,32.938 36.978,32.836 C 37.081,32.682 37.133,32.602 37.524,32.797 C 38.359,33.217 39.214,32.971 39.615,32.193 C 39.903,31.64 40.048,30.431 39.985,29.223 C 39.904,27.82 39.708,27.185 39.224,26.765 C 38.731,26.331 38.15,26.493 37.544,26.55 V 24 H 36 V 33 Z M 38.214,27.625 C 38.574,28.168 38.637,30.954 38.307,31.763 C 38.142,32.173 37.73,32.283 37.545,32.027 V 27.45 C 37.689,27.296 38.06,27.39 38.215,27.625 Z M 12.213,26.104 C 11.279,26.476 10.991,27.284 11,29.441 C 11,31.161 11.14,31.799 11.617,32.361 C 12.56,33.466 13.877,33.095 14.438,31.576 C 14.578,31.204 14.578,31.193 14.326,31.129 C 14.176,31.098 13.99,31.044 13.906,31.023 C 13.803,30.991 13.7,31.076 13.606,31.278 C 13.457,31.618 13.289,31.724 12.934,31.724 C 12.635,31.724 12.354,31.298 12.299,30.65 V 30 H 14.513 V 29.09 C 14.485,27.316 14.091,26.37 13.213,26.072 A 1.533,1.533 0 0,0 12.213,26.104 Z M 13.121,27.709 C 13.205,27.847 13.271,28.166 13.271,28.453 V 29 H 12.336 V 28.453 C 12.336,27.89 12.532,27.553 12.803,27.553 C 12.897,27.553 13.046,27.582 13.121,27.709 Z M 16.205,26.166 C 15.982,26.283 15.699,26.506 15.577,26.666 C 15.344,26.976 15.105,27.851 15.197,28 H 16.28 C 16.36,27.755 16.55,27.243 16.923,27.243 C 17.258,27.243 17.298,27.56 17.258,28.188 C 17.228,28.678 17.228,28.688 16.802,28.763 C 16.154,28.88 15.587,29.231 15.284,29.72 C 15.03,30.114 15,30.263 15,31.018 C 15,31.933 15.142,32.358 15.577,32.785 C 15.871,33.072 16.599,33.072 17.045,32.785 C 17.379,32.582 17.379,32.582 17.48,32.795 C 17.581,32.976 17.666,33 18.148,33 H 18.695 V 30.135 C 18.685,27.433 18.675,27.295 18.462,26.89 C 18.047,26.103 17.015,25.773 16.205,26.166 Z M 17.258,32 H 16.903 C 16.519,32.053 16.205,31.625 16.205,31.018 C 16.205,30.358 16.665,29.72 17.258,29.72 V 32 Z M 29.51,26.166 C 29.288,26.283 29.005,26.506 28.883,26.666 C 28.65,26.976 28.412,27.851 28.503,28 H 29.586 C 29.667,27.755 29.857,27.243 30.23,27.243 C 30.564,27.243 30.604,27.56 30.564,28.188 C 30.534,28.678 30.534,28.688 30.108,28.763 C 29.46,28.88 28.893,29.231 28.59,29.72 C 28.337,30.114 28.306,30.263 28.306,31.018 C 28.306,31.933 28.448,32.358 28.883,32.785 C 29.177,33.072 29.906,33.072 30.351,32.785 C 30.685,32.582 30.685,32.582 30.787,32.795 C 30.887,32.976 30.972,33 31.455,33 H 32 V 30.135 C 31.99,27.433 31.98,27.295 31.767,26.89 C 31.352,26.103 30.32,25.773 29.51,26.166 Z M 30.565,32 H 30.21 C 29.826,32.053 29.512,31.625 29.512,31.018 C 29.512,30.358 29.973,29.72 30.565,29.72 V 32 Z M 20.914,26.308 C 20.579,26.571 20.529,26.571 20.529,26.297 C 20.529,26.099 20.459,26 19.871,26 H 19.213 V 33 H 20.63 V 27.653 C 20.63,27.183 21.535,27.217 21.535,27.592 V 30.352 L 21.555,33 H 23 V 26.736 C 22.709,26.386 22.437,26.058 21.946,26.011 C 21.511,25.973 21.26,26.057 20.914,26.308 Z M 41.8,26.058 C 40.391,26.451 40.252,28.338 40.252,29.518 C 40.252,30.904 40.51,32.903 42.256,32.996 C 43.456,33.066 43.933,32.136 44.139,31.053 C 44.311,30.184 44.281,28.317 44.079,27.578 C 43.796,26.528 42.936,25.754 41.801,26.058 Z M 42.256,31.675 C 41.13,31.675 41.239,27.406 42.256,27.406 S 43.383,31.676 42.256,31.676 Z M 32.524,26 L 32.504,32.49 V 33 H 34.008 V 28.326 C 34.421,27.769 34.968,27.645 35.613,27.551 V 26 L 35.289,26.078 C 34.904,26.178 34.377,26.558 34.286,26.712 C 34.109,26.84 34,26.702 34,26.425 V 26 H 32.524 Z M 44.523,26 L 44.503,32.49 V 33 H 46.007 V 28.326 C 46.42,27.769 46.967,27.645 47.612,27.551 V 26 L 47.288,26.078 C 46.903,26.178 46.376,26.558 46.285,26.712 C 46.109,26.84 45.999,26.702 45.999,26.425 V 26 H 44.523 Z" fill="rgb(254, 254, 253)"/>
</svg>
