<?xml version="1.0" encoding="UTF-8"?>
<!-- generated by Finnhub -->
<svg viewBox="0 0 55.5 55.5" xmlns="http://www.w3.org/2000/svg">
<path d="M 0,0 H 55.5 V 55.5 H 0 Z" fill="rgb(239, 242, 248)"/>
<path d="M 27.99,12.985 C 21.27,15.25 15.2,13.94 13,13 V 34.37 C 13,37.96 16.67,40.93 21.47,42.06 C 25.31,42.96 27.42,46.39 28,48 V 13 Z" fill="rgb(1, 40, 121)"/>
<path d="M 27.99,12.985 C 34.73,15.25 40.8,13.94 43,13 V 34.37 C 43,37.96 39.33,40.93 34.53,42.06 C 30.69,42.96 28.58,46.39 28,48 V 13 Z" fill="rgb(203, 162, 2)"/>
<path d="M 27.99,19.055 C 27.7,18.36 27.07,16.87 26.65,16.62 V 18.34 C 26.32,18.84 25.77,20.14 26.3,21.4 C 25.52,22.94 24.71,26.7 28,29.34 V 19.07 Z M 27.04,19.1 C 26.82,19.36 26.47,20.14 26.81,21.16 C 27.23,20.84 27.87,19.99 27.04,19.1 Z" fill="rgb(203, 162, 2)" fill-rule="evenodd"/>
<path d="M 18.209999999999997,19.465 C 21.02,18.92 24.04,23.34 25.21,25.62 A 5,5 0 0,0 22.85,25.21 C 21.55,25.23 19.82,23.7 19.12,22.93 A 28.6,28.6 0 0,0 18.22,19.48 Z" fill="rgb(203, 162, 2)"/>
<path d="M 17.02,21.185 C 15.73,19.45 14.31,19.23 13.77,19.33 A 7.74,7.74 0 0,1 15.92,23.75 C 16.39,23.85 17.18,24.24 17.52,24.42 C 18.55,25.13 20.97,26.55 22.42,26.55 H 25.59 C 25.45,26.32 24.78,25.81 23.17,25.62 C 21.17,25.39 18.66,23.4 17.03,21.21 Z" fill="rgb(203, 162, 2)"/>
<path d="M 22.58,26.775 C 24.73,26.69 25.65,27.14 25.85,27.37 C 24.83,27.02 20.03,27.37 19.71,27.37 A 6.04,6.04 0 0,0 15.57,27.05 L 14.12,24.68 A 4.36,4.36 0 0,1 17.52,24.92 C 18.32,25.58 20.45,26.88 22.59,26.79 Z M 21.95,27.78 C 25.09,27.78 26.28,28.08 26.49,28.22 C 25.05,28.22 22.29,28.48 20.34,29.98 A 6.1,6.1 0 0,1 16.3,31.22 A 7.93,7.93 0 0,0 14.35,28.48 C 15.68,27.03 18.63,27.41 19.94,27.78 H 21.94 Z" fill="rgb(203, 162, 2)"/>
<path d="M 21.52,29.814999999999998 C 23.39,28.39 25.91,28.58 26.93,28.86 C 26.26,28.86 24.23,29.56 22.57,31.65 A 6.09,6.09 0 0,1 18.55,33.89 C 18.31,32.97 17.36,32.16 16.92,31.87 C 17.68,31.79 19.66,31.27 21.52,29.83 Z" fill="rgb(203, 162, 2)"/>
<path d="M 23.569999999999997,31.105 A 4.97,4.97 0 0,1 27.95,29.65 C 27.05,30.06 25.2,31.05 25.02,31.72 C 24.84,32.4 24.12,33.18 23.78,33.49 L 21.9,35.06 L 19.05,34.36 C 20.63,34.06 21.87,33.06 23.58,31.12 Z M 22.82,35.1 C 24.82,32.44 27.15,31.4 28,31.2 V 31.67 A 6.05,6.05 0 0,0 24.91,34.83 L 22.81,35.09 Z M 28,35.56 V 32.29 C 27.32,32.29 26.09,33.95 25.55,34.79 C 26.03,34.84 27.38,35.33 28,35.56 Z M 22.8,35.8 A 7.18,7.18 0 0,1 28,36.2 V 37.32 C 27.5,36.92 26,36.12 24.24,36.12 C 24.68,36.46 25.54,37.32 25.53,38.18 C 25.5,39.24 24.56,39.89 22.91,39.89 C 21.25,39.89 20.71,38.75 20.71,37.99 C 20.71,37.24 21.25,36.49 21.68,36.13 C 20.95,36.1 19.46,36.48 19.36,38.18 C 19.23,40.3 22.61,40.88 23.65,40.77 C 24.68,40.67 27.51,40.25 28,39.78 V 40.48 C 26.99,41.18 24.93,41.52 24,41.6 C 22.1,41.64 18.36,41.03 18.56,38.23 C 18.76,35.43 21.46,35.43 22.79,35.79 Z M 23,39.3 C 23.58,39.23 24.75,38.86 24.72,38 C 24.69,36.92 23.17,36.23 22.76,36.2 C 22.36,36.2 21.13,36.94 21.23,38 C 21.33,39.06 22.48,39.3 22.99,39.3 Z M 28,43.89 V 48 A 10.42,10.42 0 0,0 26.1,44.92 C 27.21,44.85 27.85,44.2 28,43.89 Z" fill="rgb(203, 162, 2)"/>
<path d="M 29.799999999999997,45.015 A 11.4,11.4 0 0,0 28,48 V 44.72 L 29.81,45.03 Z" fill="rgb(1, 40, 121)"/>
<path d="M 30.75,40.155 C 30.57,38.97 28.85,39.44 28,39.83 V 40.53 C 28.45,40.41 29.35,40.33 29.42,40.91 C 29.49,41.5 28.51,42.86 28,43.46 V 44.76 A 39.7,39.7 0 0,0 29.79,42.01 C 30.63,41.01 30.79,40.37 30.76,40.17 Z M 28.8,31.16 C 28.63,31.04 28.2,31.11 28,31.16 V 31.66 L 28.8,31.16 Z" fill="rgb(1, 40, 121)"/>
<path d="M 27.99,37.245 C 28.77,37.78 30.72,38.8 32.48,38.76 C 34.68,38.71 37.13,37.31 37.15,33.73 C 37.15,32.98 36.63,31.48 34.65,31.5 C 34.69,31.37 35.13,31.14 36.52,31.22 C 36.52,30.71 35.96,29.7 33.72,29.74 C 33.87,29.58 34.52,29.29 35.92,29.41 L 35.08,27.89 C 34.61,27.89 33.5,27.95 32.83,28.09 C 33.02,27.92 33.63,27.55 34.65,27.41 L 33.71,26.51 C 33.41,26.51 32.55,26.55 31.51,26.8 C 31.74,26.6 32.35,26.18 32.96,26.06 C 32.68,25.64 31.64,24.93 29.72,25.5 C 29.84,25.3 30.36,24.9 31.52,24.8 L 30.97,24.1 C 31.86,24.2 33.61,24.17 33.49,23.13 C 33.09,23.22 32.11,23.34 31.51,23.13 C 31.31,23.02 30.69,22.86 29.9,23.13 C 29.62,22.8 29.52,22.11 31.39,22.03 L 31.53,22.07 C 31.96,22.17 33.17,22.48 33.71,21.73 C 34.35,20.86 33.79,20.43 33.14,20.56 C 32.48,20.68 31.96,20.74 31.39,20.1 C 30.81,19.46 29.62,19.9 29.36,20 C 29.58,19 29.76,16.86 28.62,16.22 L 28.4,19 H 28 V 29.41 C 28.45,29.77 29.36,30.62 29.36,31.21 C 29.36,31.81 28.46,32.28 28,32.44 V 35.44 C 29.29,36.3 32.4,37.64 34.5,36.05 C 34.4,36.5 33.72,37.41 31.94,37.49 A 6.1,6.1 0 0,1 28,36.05 V 37.26 Z M 29.44,20.88 C 29.59,20.62 30.08,20.18 30.78,20.48 C 30.7,20.78 30.33,21.28 29.44,20.88 Z" fill="rgb(1, 40, 121)"/>
<path d="M 34.96,21.925 C 33.97,21.94 33.07,22.42 32.75,22.66 C 33.14,22.5 34.25,22.39 35.55,23.23 C 36.86,24.08 38.2,23.58 38.71,23.23 C 39.14,22.88 40.21,22.17 41.03,22.17 C 41.83,22.17 42.5,22.68 42.73,22.94 C 42.28,21.51 41.23,21.12 38.9,22.17 C 37.05,23.02 36.1,22.7 35.84,22.43 C 38.68,22.36 39.68,20.84 40.39,19.83 A 2.54,2.54 0 0,1 42.26,18.77 C 40.25,17.12 38.36,20.37 37.25,21.12 C 36.8,21.42 36.21,21.94 34.97,21.94 Z" fill="rgb(1, 40, 121)"/>
</svg>
