<?xml version="1.0" encoding="UTF-8"?>
<!-- generated by Finnhub -->
<svg viewBox="0 0 55.5 55.5" xmlns="http://www.w3.org/2000/svg">
<path d="M 0,0 H 55.5 V 55.5 H 0 Z" fill="rgb(12, 108, 93)"/>
<path d="M 40.690000000000005,19.505 C 40.65,24.26 37.68,25.45 36.2,25.45 C 35.45,25.55 34.75,24.98 34.16,24.02 C 32.1,20.67 30.5,19 28.67,19 C 26.96,19 23,19.76 23,27.37 C 23,34.74 28.73,36.05 31.17,36 C 33.12,35.96 35.17,34.86 37.15,33.9 C 38.57,33.2 41.32,32.67 40.97,36.1 C 40.53,40.38 36.21,44 29.12,44 C 22.36,44 13,41.2 13,27.37 C 13,15.62 23.33,12 29.12,12 C 33.27,12 40.75,13.6 40.69,19.52 Z" fill="rgb(254, 254, 253)"/>
</svg>
