<?xml version="1.0" encoding="UTF-8"?>
<!-- generated by Finnhub -->
<svg viewBox="0 0 55.5 55.5" xmlns="http://www.w3.org/2000/svg">
<path d="M 0,0 H 55.5 V 55.5 H 0 Z" fill="rgb(239, 242, 248)"/>
<path d="M 38.17,27.985 V 28.7 C 38.18,34.55 33.4,39.27 27.5,39.27 C 21.6,39.27 16.83,34.55 16.83,28.71 C 16.83,23.65 20.17,19.36 25,18.36 V 13.52 A 15.17,15.17 0 0,0 12,28.71 A 15.4,15.4 0 0,0 27.45,44 C 35.93,44 42.9,37.1 42.9,28.7 V 28 H 38.18 Z" fill="rgb(10, 64, 110)"/>
<path d="M 27.49,32.985 A 4.5,4.5 0 1,0 27.5,24 A 4.5,4.5 0 0,0 27.5,33 Z" fill="rgb(6, 122, 70)"/>
<path d="M 32.89,11.004999999999999 C 33.4,11.08 33.74,11.52 33.68,11.97 L 32.5,19.8 C 32.45,20.24 32,20.52 31.44,20.47 A 0.87,0.87 0 0,1 30.65,19.52 L 31.83,11.68 A 0.9,0.9 0 0,1 32.9,11.01 Z M 44.98,22.26 C 45.08,22.76 44.81,23.2 44.36,23.31 L 36.44,24.76 A 0.87,0.87 0 0,1 35.48,23.98 C 35.37,23.48 35.65,23.03 36.1,22.92 L 44.02,21.48 C 44.42,21.42 44.86,21.75 44.98,22.26 Z M 41.83,12.63 C 42.17,12.36 42.73,12.41 43.07,12.75 C 43.4,13.08 43.46,13.64 43.17,13.97 L 32.67,24.26 C 32.34,24.54 31.77,24.48 31.44,24.15 C 31.04,23.75 31.04,23.2 31.32,22.92 L 41.83,12.63 Z" fill="rgb(10, 64, 110)"/>
<path d="M 41.53,21.915 C 41.81,22.5 42.04,23.09 42.24,23.7 L 36.44,24.76 A 0.87,0.87 0 0,1 35.48,23.98 C 35.37,23.48 35.65,23.03 36.1,22.92 L 41.54,21.92 Z M 37.62,16.76 C 38.1,17.17 38.55,17.61 38.98,18.08 L 32.68,24.26 C 32.34,24.54 31.78,24.48 31.44,24.15 C 31.04,23.75 31.04,23.2 31.32,22.92 L 37.62,16.76 Z M 33.36,14.14 L 32.5,19.81 C 32.45,20.25 32,20.53 31.44,20.48 A 0.87,0.87 0 0,1 30.65,19.53 L 31.55,13.53 C 32.17,13.7 32.77,13.91 33.35,14.14 Z" fill="rgb(6, 122, 70)"/>
</svg>
