<?xml version="1.0" encoding="UTF-8"?>
<!-- generated by Finnhub -->
<svg viewBox="0 0 55.5 55.5" xmlns="http://www.w3.org/2000/svg">
<path d="M 0,0 H 55.5 V 55.5 H 0 Z" fill="rgb(239, 242, 248)"/>
<path d="M 43.99,27.985 A 16,16 0 1,1 12,28 A 16,16 0 0,1 44,28 Z M 42,28 A 14,14 0 1,1 14,28 A 14,14 0 0,1 42,28 Z M 28.6,18 H 34 V 23 H 28.6 L 27.72,21.5 H 22 V 19.5 H 27.72 L 28.61,18 Z M 34,25 H 28.6 L 27.62,27 H 22 V 29 H 27.62 L 28.61,31 H 34 V 25 Z M 28.6,33 H 34 V 38 H 28.6 L 27.72,36.5 H 22 V 34.5 H 27.72 L 28.61,33 Z" fill="rgb(1, 141, 204)" fill-rule="evenodd"/>
</svg>
