<?xml version="1.0" encoding="UTF-8"?>
<!-- generated by Finnhub -->
<svg viewBox="0 0 55.5 55.5" xmlns="http://www.w3.org/2000/svg">
<path d="M 0,0 H 55.5 V 55.5 H 0 Z" fill="url(#a)"/>
<path d="M 9.83,31.985 C 7.54,32 6,30.47 6,28.1 C 6,25.5 7.24,24 9.76,24 C 10.79,24 11.86,24.24 12.49,25.09 L 13.76,23.78 A 4.86,4.86 0 0,0 9.84,22 C 6.39,22 4,24.55 4,28.1 C 4,30.97 6.2,34 9.76,34 C 12.32,34 13.66,32.47 14,32 L 12.72,30.47 A 3.35,3.35 0 0,1 9.84,32 Z M 35.76,32 C 33.5,32 32,30 32,28.1 C 32,25.78 33.5,24 35.84,24 C 36.87,24 37.91,24.47 38.54,25.3 L 39.76,23.77 A 4.88,4.88 0 0,0 35.84,22 C 32.39,22 30,24.55 30,28.1 C 30,30.97 32.2,34 35.76,34 C 38.32,34 39.66,32.47 40,32 L 38.69,30.47 A 3.43,3.43 0 0,1 35.76,32 M 52,22 H 41 V 24 H 45.5 V 34 H 47.5 V 24 H 52 V 22 Z M 22,30 L 19,22 H 16 V 34 H 18 V 25.5 L 21.48,34 H 22.52 L 26,25.5 V 34 H 28 V 22 H 25.5 L 22,30 Z" fill="rgb(244, 142, 34)"/>
<defs>
<linearGradient id="a" x1="10.42" x2="68.15" y1="9.71" y2="76.02" gradientUnits="userSpaceOnUse">
<stop stop-color="rgb(25, 29, 31)" offset="0"/>
<stop stop-color="rgb(5, 5, 8)" offset="1"/>
</linearGradient>
</defs>
</svg>
