<?xml version="1.0" encoding="UTF-8"?>
<!-- generated by Finnhub -->
<svg viewBox="0 0 55.5 55.5" xmlns="http://www.w3.org/2000/svg">
<path d="M 0,0 H 55.5 V 55.5 H 0 Z" fill="rgb(239, 242, 248)"/>
<path d="M 36.75,15.885 C 38.1,16.66 39.38,17.6 40.6,18.73 C 40.85,18.95 40.8,19.08 40.48,19.11 A 5.4,5.4 0 0,1 39.7,19.14 A 9.92,9.92 0 0,0 34.88,20.24 C 33.58,20.84 32.4,21.79 31.33,23.07 A 7.62,7.62 0 0,0 29.86,25.87 H 29.8 L 29.78,25.85 A 22.2,22.2 0 0,0 27.96,22.85 C 26.62,20.97 24.53,19.96 22.28,19.55 C 21.08,19.34 19.93,19.19 18.83,19.11 C 18.68,19.1 18.66,19.04 18.77,18.93 A 18.1,18.1 0 0,1 25.87,14.67 A 13.1,13.1 0 0,1 36.76,15.9 Z M 35.27,33 C 36.15,32.01 37.16,30.68 37.42,29.37 C 37.62,28.33 37.09,27.34 36.32,26.67 C 34.92,25.45 33.27,26.38 32,27.28 C 31.83,27.4 31.78,27.36 31.86,27.16 C 32.84,24.64 34.43,22.74 37,21.89 A 8,8 0 0,1 40.5,21.52 C 41.66,21.66 42.58,21.9 43.26,22.24 A 4.9,4.9 0 0,1 46,26.41 A 6.08,6.08 0 0,1 44.43,30.91 C 43.63,31.75 42.83,32.48 41.99,33.11 A 84.03,84.03 0 0,1 37.33,36.41 C 33.56,38.86 29.5,41.3 25.15,43.71 A 0.97,0.97 0 0,1 24.89,43.81 C 24.59,43.88 24.54,43.79 24.75,43.56 L 25.95,42.3 C 27.75,40.37 29.6,38.4 31.55,36.67 A 44.58,44.58 0 0,0 35.27,33 Z M 28.07,30.44 C 26.72,26.04 23.57,22.76 19.02,22.23 C 18.15,22.13 17.16,22.17 16.05,22.36 A 15.4,15.4 0 0,0 6.31,28.72 C 5.81,29.41 5.91,29.51 6.59,29.01 L 6.65,28.96 A 10.75,10.75 0 0,1 13.05,26.51 C 15.79,26.49 18.29,27.48 20.55,29.49 C 22.65,31.34 23.85,33.89 24.18,37.16 C 24.23,37.6 24.26,38.04 24.29,38.48 C 24.32,38.94 24.31,39.36 24.28,39.76 C 24.24,40.1 24.24,40.42 24.23,40.74 C 24.21,41.2 24.2,41.66 24.13,42.13 A 33.68,33.68 0 0,1 23.8,43.9 L 23.85,43.97 A 0.15,0.15 0 0,0 24,44 C 24.25,43.9 24.4,43.72 24.43,43.46 A 0.36,0.36 0 0,1 24.54,43.25 C 24.99,42.8 25.39,42.3 25.74,41.75 A 17.87,17.87 0 0,0 28.16,35.48 C 28.36,34.46 28.39,33.18 28.28,31.63 A 5.2,5.2 0 0,0 28.06,30.44 Z" fill="rgb(3, 164, 79)"/>
</svg>
