<?xml version="1.0" encoding="UTF-8"?>
<!-- generated by Finnhub -->
<svg viewBox="0 0 55.5 55.5" xmlns="http://www.w3.org/2000/svg">
<path d="M 0,0 H 55.5 V 55.5 H 0 Z" fill="rgb(1, 173, 237)"/>
<path d="M 33.458000000000006,12.461 C 34.102,12.633 34.723,12.826 35.326,13.054 H 23.68 A 16.452,16.452 0 0,1 29.15,12 A 23.29,23.29 0 0,1 33.468,12.475 Z M 40.278,16 A 16.541,16.541 0 0,0 37.39,14 H 21.616 C 21.25,14.2 20.892,14.412 20.544,14.638 L 19.963,15.032 C 19.535,15.335 19.123,15.659 18.728,16 H 40.278 Z M 42.999,19 C 42.499,18.29 41.943,17.621 41.339,17 H 17.667 C 17.063,17.621 16.507,18.29 16.007,19 H 42.999 Z M 15.354,20 A 16.44,16.44 0 0,0 14.329,22 H 31.332 A 13.68,13.68 0 0,1 34.747,20 H 15.354 Z M 32.15,44 C 32.464,44.215 32.787,44.417 33.118,44.606 C 32.374,44.772 31.61,44.888 30.83,44.95 C 30.18,44.993 29.591,44.999 29.18,45 A 16.456,16.456 0 0,1 23.824,44 H 32.15 Z M 28.991,41 A 13.772,13.772 0 0,0 30.861,43 H 21.616 A 16.541,16.541 0 0,1 18.728,41 H 28.99 Z M 27.252,38 C 27.546,38.698 27.895,39.367 28.296,40 H 17.666 A 16.592,16.592 0 0,1 16.006,38 H 27.252 Z M 26.38,35 C 26.496,35.685 26.663,36.353 26.877,37 H 15.354 A 16.462,16.462 0 0,1 14.329,35 H 26.38 Z M 26.205,32 A 13.891,13.891 0 0,0 26.248,34 H 13.938 C 13.709,33.351 13.519,32.683 13.372,32 H 26.205 Z M 26.682,29.038 A 13.624,13.624 0 0,0 26.292,31 H 13.187 C 13.087,30.345 13.027,29.678 13.007,29 L 26.681,29.038 Z M 27.934,26 C 27.57,26.649 27.257,27.33 27,28.038 L 13.007,28 C 13.027,27.323 13.089,26.655 13.188,26 H 27.934 Z M 30.213,23 A 13.751,13.751 0 0,0 28.554,25 H 13.372 C 13.519,24.317 13.709,23.649 13.939,23 H 30.213 Z" fill="rgb(254, 254, 253)"/>
</svg>
