<?xml version="1.0" encoding="UTF-8"?>
<!-- generated by Finnhub -->
<svg viewBox="0 0 55.5 55.5" xmlns="http://www.w3.org/2000/svg">
<path d="M 21.41,19.564999999999998 A 11.6,11.6 0 0,0 12.92,22.95 C 13.03,22.49 13.3,21.88 13.3,21.88 C 14.13,20.02 16.56,16.42 22.83,16.6 C 32.3,16.88 37.33,24.34 37.33,24.34 C 38.17,23.53 38.88,22.71 39.46,21.94 C 39.46,21.94 34.83,14.09 24.08,14.09 C 21.68,14.09 19.72,14.72 18.32,15.37 A 15.89,15.89 0 0,1 23.11,12.85 C 34.01,9.43 41.03,19.57 41.03,19.57 C 41.55,18.65 41.77,18.03 41.77,18.03 A 17,17 0 0,0 12.61,35.23 L 13.01,34.22 C 12.81,33.69 12.18,31.96 12.01,30.55 C 11.75,28.32 12.11,22.93 20.11,22.93 S 31.57,29.49 31.57,29.49 C 33.47,28.19 34.75,26.89 34.75,26.89 S 30.78,19.58 21.42,19.58 Z M 34.6,36.44 A 11.6,11.6 0 0,0 43.1,33.06 C 42.99,33.52 42.72,34.13 42.72,34.13 C 41.89,35.99 39.46,39.59 33.18,39.41 C 23.72,39.13 18.69,31.66 18.69,31.66 C 17.85,32.48 17.14,33.3 16.56,34.06 C 16.56,34.06 21.18,41.92 31.94,41.92 C 34.32,41.92 36.3,41.29 37.7,40.64 A 15.92,15.92 0 0,1 32.91,43.16 C 22.01,46.58 14.99,36.44 14.99,36.44 C 14.46,37.36 14.25,37.98 14.25,37.98 A 17,17 0 0,0 43.41,20.78 L 43,21.8 C 43.2,22.33 43.83,24.06 44,25.47 C 44.26,27.69 43.59,33.09 35.91,33.09 C 27.91,33.09 24.44,26.53 24.44,26.53 C 22.54,27.83 21.26,29.13 21.26,29.13 S 25.23,36.45 34.59,36.45 Z" fill="rgb(14, 37, 75)"/>
</svg>
