<?xml version="1.0" encoding="UTF-8"?>
<!-- generated by Finnhub -->
<svg viewBox="0 0 55.5 55.5" xmlns="http://www.w3.org/2000/svg">
<rect width="56" height="56" fill="rgb(239, 242, 248)"/>
<path d="M 37.993,36.049 C 37.8714,36.064 37.7726,36.0311 37.6739,35.9653 C 37.4105,35.7678 37.3776,35.4386 37.5751,35.1753 C 39.0892,33.2004 39.9675,30.7977 40.0004,28.2632 C 40.0991,24.2806 38.1347,20.5283 34.8103,18.2572 C 34.547,18.0926 34.4811,17.7305 34.6786,17.4672 C 34.8432,17.2039 35.2053,17.1381 35.4686,17.3356 C 39.0563,19.8371 41.0991,23.9514 41.0004,28.2956 C 40.9346,31.0276 40.1095,33.6607 38.4638,35.8331 C 38.3651,35.9648 38.2005,36.0635 38.003,36.0635 Z" fill="rgb(2, 148, 207)"/>
<path d="M 33.747,35.983 C 33.5924,35.998 33.4279,35.9321 33.3291,35.7676 C 33.1316,35.5372 33.1645,35.1751 33.4279,34.9776 C 35.4686,33.3977 36.8687,30.9949 37.0004,28.3947 C 37.1321,25.7286 35.8635,23.1612 33.8887,21.3839 C 33.6583,21.1864 33.6253,20.8243 33.8557,20.5939 C 34.0532,20.3635 34.4153,20.3306 34.6457,20.561 C 36.8839,22.5688 38.1321,25.4324 38.0004,28.4605 C 37.8687,31.357 36.4231,34.0889 34.1191,35.8992 C 34.0203,35.965 33.8887,35.998 33.757,35.998 Z" fill="rgb(2, 148, 207)"/>
<path d="M 27.985999999999997,43.985 H 27.7985 C 23.5855,43.9671 19.5699,42.285 16.6075,39.2568 C 13.6122,36.2287 11.9994,32.2131 11.9994,27.9998 C 11.9994,23.7538 13.678,19.7053 16.6733,16.6768 C 19.7014,13.6486 23.6841,11.9994 27.9963,11.9994 C 31.4524,11.9994 34.7438,13.0562 37.5087,15.0969 C 37.772,15.2944 37.8049,15.6235 37.6403,15.8868 C 37.4428,16.1501 37.1137,16.1831 36.8504,16.0185 C 34.283,14.1094 31.222,12.9994 27.9963,12.9994 C 24.0466,12.9994 20.2943,14.669 17.4633,17.4667 C 14.6327,20.2974 12.9995,24.0167 12.9995,27.9997 C 12.9995,36.1296 19.7015,42.9337 27.7655,42.9997 H 27.9301 C 31.0241,42.9997 34.0193,41.9226 36.5537,40.1452 C 36.7841,39.9806 36.9158,39.7502 36.9158,39.4869 C 36.9487,39.2236 36.817,38.9603 36.6196,38.7628 L 36.5537,38.697 C 36.2575,38.4007 35.7638,38.3678 35.4017,38.6311 C 33.1964,40.1781 30.6291,41.001 27.8972,41.001 C 20.7218,41.001 14.9992,35.1422 14.9992,28 C 14.9992,24.544 16.2452,21.2525 18.648,18.8168 C 21.0836,16.3811 24.3422,15.0316 27.7982,14.9987 C 28.9502,14.9987 30.0693,15.1304 31.1555,15.4266 C 31.7151,15.5912 32.2088,15.9533 32.4721,16.4799 C 32.7354,17.0065 32.7683,17.6319 32.5379,18.1585 V 18.1914 C 32.143,19.146 31.1226,19.6726 30.1023,19.4093 C 29.3781,19.2118 28.6211,19.1131 27.8641,19.1131 C 25.5271,19.1131 23.3218,20.0018 21.6432,21.6475 C 19.9975,23.2932 19.0321,25.4656 18.9992,27.8354 C 18.9663,30.2053 19.8658,32.4435 21.5444,34.1551 C 23.2231,35.8666 25.4284,36.9671 27.8311,37 C 28.697,37 30.2967,36.863 30.1352,35.5704 V 35.5375 C 30.0364,35.0438 29.5763,34.856 29.0497,34.9218 C 28.6218,34.9877 28.161,35 27.7002,35 C 23.9479,34.9013 20.9663,31.6535 20.9992,27.8684 C 20.9992,26.0251 21.6761,24.3136 22.9598,22.997 C 24.2764,21.7133 25.9879,20.9892 27.8311,20.9892 C 28.1274,20.9892 28.3907,21.2525 28.3907,21.5487 C 28.3907,21.845 28.1274,22.1083 27.8311,22.1083 C 26.2842,22.1083 24.8359,22.7008 23.7497,23.7869 C 22.6635,24.8731 21.9992,26.3214 21.9992,27.8684 C 21.9992,30.9952 24.8394,33.8588 27.9992,33.9575 C 28.3613,33.9575 28.5224,33.9575 28.8844,33.8917 C 30.0035,33.6942 31.0239,34.188 31.2214,35.3071 V 35.34 C 31.3201,35.8995 31.2214,36.4591 30.8922,36.9199 C 30.1218,37.9985 29.0146,38 27.7982,38 C 25.1321,38 22.5977,36.8211 20.7216,34.9121 C 18.8454,33.003 17.9663,30.4686 17.9992,27.7696 C 18.0321,25.1364 18.9442,22.6349 20.8203,20.7917 C 22.6965,18.9485 25.1651,17.9281 27.8311,17.9281 C 28.6869,17.9281 29.5427,18.0269 30.3656,18.2573 C 30.8264,18.3889 31.2872,18.1256 31.4518,17.6977 V 17.6648 C 31.5505,17.4015 31.5505,17.1382 31.4188,16.9078 C 31.2872,16.6774 31.0897,16.4799 30.8264,16.4141 C 29.8389,16.1507 28.7857,16.0191 27.7324,16.0191 C 24.5726,16.052 21.5774,17.2698 19.3721,19.508 C 17.3643,21.845 15.9992,24.8402 15.9992,28 C 15.9663,34.55 21.4457,40 28.0282,40 C 30.4968,40 32.8667,39.1581 34.8745,37.7428 C 35.6644,37.1832 36.7506,37.249 37.4418,37.9073 L 37.5077,37.9732 C 37.9685,38.401 38.1989,38.9935 38.133,39.586 C 38.1001,40.1784 37.771,40.738 37.2772,41.1 C 34.5453,43.0091 31.3526,44 27.9953,44 Z" fill="rgb(2, 148, 207)"/>
<path d="M 32.628,32.922 C 32.5064,32.937 32.3747,32.8712 32.243,32.7724 C 32.0126,32.5749 32.0126,32.2129 32.2101,31.9825 C 33.2305,30.8963 34.0005,29.481 34.0005,28.0327 C 34.0005,26.0249 32.7697,24.1817 31.0581,23.0955 C 30.7948,22.931 30.729,22.5689 30.8935,22.3056 C 31.0581,22.0423 31.4202,21.9764 31.6835,22.141 C 33.7242,23.4247 35.0005,25.63 35.0005,28.0656 C 35.0005,29.843 34.2837,31.5217 33.0659,32.8054 C 32.9342,32.9041 32.8026,32.937 32.638,32.937 Z M 40.735,37.3476 C 40.6363,37.3476 40.5046,37.3147 40.4059,37.2488 C 40.1426,37.0843 40.0767,36.7222 40.2742,36.4589 C 42.0845,33.8257 43.0992,30.7317 43.0005,27.539 S 41.6566,21.2852 39.6818,18.8166 C 39.4843,18.5862 39.5172,18.2242 39.7805,18.0267 C 40.0109,17.8292 40.373,17.8621 40.5704,18.1254 C 42.7099,20.8244 43.8948,24.083 43.9936,27.539 C 44.0923,30.9621 43.1378,34.2865 41.1958,37.1172 C 41.0971,37.2488 40.8996,37.3476 40.735,37.3476 Z" fill="rgb(2, 148, 207)"/>
</svg>
