<?xml version="1.0" encoding="UTF-8"?>
<!-- generated by Finnhub -->
<svg viewBox="0 0 55.5 55.5" xmlns="http://www.w3.org/2000/svg">
<path d="M 0,0 H 55.5 V 55.5 H 0 Z" fill="rgb(239, 242, 248)"/>
<path d="M 14.05,22.405 A 5.6,5.6 0 0,0 8.44,28 A 5.62,5.62 0 0,0 17.87,32.1 L 19.52,33.88 A 8.06,8.06 0 0,1 6,28 C 6,23.58 9.6,20 14.06,20 C 16.16,20 18.08,20.8 19.52,22.12 L 17.86,23.9 A 5.62,5.62 0 0,0 14.06,22.42 Z M 24,20 H 26.48 V 36 H 24 Z M 32,20 V 36 H 34.44 V 23.54 L 39.68,36 H 41.38 L 46.61,23.93 V 36 H 49 V 20 H 45.7 L 40.6,31.85 L 35.29,20 H 32 Z" fill="rgb(236, 161, 73)"/>
</svg>
