<?xml version="1.0" encoding="UTF-8"?>
<!-- generated by Finnhub -->
<svg viewBox="0 0 55.5 55.5" xmlns="http://www.w3.org/2000/svg">
<path d="M 0,0 H 55.5 V 55.5 H 0 Z" fill="rgb(239, 242, 248)"/>
<path d="M 17.99,18.985 C 18,18.66 18.02,18.33 18.05,18 H 20.06 A 8,8 0 1,0 31,11.58 V 18 H 35 L 28,26 L 21,18 H 27 V 20 H 25 L 28,23 L 31,20 H 29 V 9 A 10.05,10.05 0 0,1 32.36,28 A 10,10 0 0,1 37.96,38 H 35.94 A 8,8 0 1,0 25,44.42 V 38 H 21 L 28,30 L 35,38 H 29 V 36 H 31 L 28,33 L 25,36 H 27 V 47 A 10.05,10.05 0 0,1 23.64,28 A 10,10 0 0,1 18,19 Z" fill="url(#a)"/>
<defs>
<linearGradient id="a" x1="28" x2="28" y1="46.98" y2="9" gradientUnits="userSpaceOnUse">
<stop stop-color="rgb(21, 97, 161)" offset="0"/>
<stop stop-color="rgb(22, 47, 92)" offset="1"/>
</linearGradient>
</defs>
</svg>
