<?xml version="1.0" encoding="UTF-8"?>
<!-- generated by Finnhub -->
<svg viewBox="0 0 55.5 55.5" xmlns="http://www.w3.org/2000/svg">
<path d="M 0,0 H 55.5 V 55.5 H 0 Z" fill="rgb(239, 242, 248)"/>
<path d="M 9.51,26.785 L 9.53,26.83 L 10.02,26.56 A 3.34,3.34 0 0,0 9.42,25.81 A 3.38,3.38 0 0,0 7.2,25 A 3.3,3.3 0 0,0 4.66,26.13 C 4.05,26.87 4,27.63 4,28 C 4,28.98 4.43,29.86 5.2,30.43 C 5.56,30.69 6.15,31.01 7.2,31.01 C 8.27,31.01 8.9,30.63 9.27,30.37 C 9.78,29.98 10.01,29.59 10.15,29.36 L 10.16,29.34 L 9.67,29.1 A 2.7,2.7 0 0,1 7.22,30.5 A 2.43,2.43 0 0,1 4.6,28.03 C 4.6,27.74 4.66,26.93 5.29,26.28 C 5.98,25.58 6.9,25.52 7.22,25.52 C 7.5,25.52 8.43,25.56 9.09,26.23 C 9.31,26.45 9.46,26.71 9.52,26.81 Z M 13.97,30.06 A 6.93,6.93 0 0,0 13.87,29.86 L 11.73,25 H 11 V 31 H 11.51 V 25.65 L 11.59,25.91 L 11.63,26.01 L 11.67,26.11 L 13.85,31 H 14.41 L 16.56,26.06 L 16.71,25.71 L 16.73,25.66 V 31 H 17.23 V 25 H 16.53 L 14.13,30.5 L 14.08,30.34 A 6.96,6.96 0 0,0 14,30.14 L 13.97,30.06 Z M 23.36,25 V 25.5 H 21 V 31 H 20.46 V 25.5 H 18 V 25 H 23.36 Z M 29.06,26.41 C 29.19,26.56 29.24,26.64 29.33,26.81 L 29.86,26.5 L 29.84,26.47 C 29.74,26.31 29.54,25.99 29.17,25.7 A 3.71,3.71 0 0,0 26.97,25 C 25.57,25 24.79,25.65 24.43,26.07 C 23.79,26.82 23.73,27.68 23.73,28.02 A 2.89,2.89 0 0,0 25.96,30.87 C 26.42,30.99 26.75,31 26.94,31 C 28.04,31 28.76,30.53 29.06,30.25 C 29.16,30.15 29.34,29.98 29.5,29.68 V 31 H 30 V 28 H 26.49 V 28.5 H 29.5 C 29.5,28.6 29.48,28.74 29.38,29.03 A 2.35,2.35 0 0,1 27.82,30.38 C 27.45,30.48 27.13,30.5 26.99,30.5 C 25.83,30.5 25.18,29.97 24.87,29.61 A 2.5,2.5 0 0,1 24.32,28.01 C 24.32,26.97 24.89,26.08 25.88,25.7 C 26.33,25.52 26.74,25.51 26.92,25.51 C 27.72,25.51 28.55,25.76 29.07,26.41 Z" fill="rgb(21, 43, 81)"/>
<path d="M 45.14,24.105 C 45.31,24.19 45.46,24.32 45.56,24.45 A 1.01,1.01 0 0,1 45.48,25.67 C 45.35,25.81 45.06,26 44.58,26 C 44.53,26 44.42,26 44.28,25.98 A 1.02,1.02 0 0,1 43.55,25.53 A 0.98,0.98 0 0,1 43.42,25.02 A 0.99,0.99 0 0,1 43.63,24.39 C 43.66,24.36 43.69,24.32 43.75,24.28 C 43.88,24.17 44.14,24 44.57,24 C 44.65,24 44.91,24 45.15,24.12 Z M 43.89,24.47 A 0.64,0.64 0 0,0 43.73,24.73 A 0.88,0.88 0 0,0 43.69,25.01 C 43.69,25.08 43.69,25.28 43.82,25.46 C 43.85,25.49 43.89,25.54 43.97,25.6 C 44.08,25.68 44.27,25.76 44.59,25.76 C 44.64,25.76 44.76,25.76 44.91,25.73 A 0.7,0.7 0 0,0 45.43,25.21 C 45.44,25.17 45.46,25.09 45.46,25 A 0.78,0.78 0 0,0 45.39,24.66 C 45.19,24.22 44.64,24.23 44.53,24.23 C 44.45,24.23 44.11,24.25 43.89,24.47 Z M 35.88,24.53 L 35.93,24.61 L 36.22,24.55 A 1.02,1.02 0 0,0 36.06,24.33 C 35.98,24.25 35.9,24.2 35.86,24.17 A 1.48,1.48 0 0,0 35.15,24 C 35.08,24 34.77,24 34.53,24.13 C 34.45,24.17 34.37,24.22 34.31,24.28 A 0.73,0.73 0 0,0 34.17,24.43 A 0.95,0.95 0 0,0 34,24.99 A 0.93,0.93 0 0,0 34.42,25.81 C 34.56,25.89 34.78,26 35.15,26 C 35.27,26 35.82,26 36.13,25.64 L 36.26,25.44 L 35.97,25.37 A 0.66,0.66 0 0,1 35.87,25.52 C 35.65,25.76 35.28,25.76 35.19,25.76 L 34.97,25.75 A 0.85,0.85 0 0,1 34.44,25.46 A 0.79,0.79 0 0,1 34.29,24.99 A 0.69,0.69 0 0,1 34.55,24.41 L 34.57,24.39 C 34.8,24.24 35.09,24.23 35.16,24.23 C 35.43,24.23 35.62,24.32 35.71,24.37 C 35.77,24.41 35.84,24.47 35.88,24.53 Z M 36.93,25.76 V 24 H 36.66 V 26 H 38.19 V 25.76 H 36.93 Z M 39.71,24 L 40.68,26 H 40.37 L 40.14,25.5 H 38.97 L 38.74,26 H 38.44 L 39.42,24 H 39.71 Z M 39.08,25.28 H 40.02 L 39.62,24.43 A 0.84,0.84 0 0,1 39.56,24.25 V 24.27 L 39.48,24.44 L 39.08,25.28 Z M 42.6,24.03 A 1.02,1.02 0 0,0 42.3,24 H 41 V 26 H 41.27 V 25.2 H 42.19 L 42.83,26 H 43.19 L 42.49,25.15 C 42.59,25.14 42.64,25.12 42.69,25.1 C 42.98,24.98 42.99,24.7 42.99,24.59 C 42.99,24.31 42.85,24.1 42.59,24.03 Z M 42.2,24.96 H 41.27 V 24.24 H 42.31 C 42.46,24.24 42.59,24.25 42.67,24.4 A 0.4,0.4 0 0,1 42.72,24.6 C 42.72,24.71 42.67,24.78 42.65,24.81 C 42.55,24.96 42.36,24.96 42.21,24.96 Z M 47.7,24.48 L 47.95,24.38 L 47.94,24.36 C 47.92,24.33 47.88,24.28 47.83,24.25 A 0.68,0.68 0 0,0 47.74,24.18 A 1.33,1.33 0 0,0 47,24 C 46.7,24 46.49,24.07 46.37,24.12 A 0.48,0.48 0 0,0 46.11,24.56 C 46.11,24.62 46.11,24.76 46.24,24.88 C 46.38,25 46.56,25.02 46.93,25.05 H 46.94 C 47.1,25.07 47.41,25.09 47.54,25.15 C 47.64,25.19 47.71,25.27 47.71,25.38 C 47.71,25.43 47.69,25.55 47.58,25.64 C 47.4,25.77 47.14,25.77 47.07,25.77 H 47.06 C 47,25.77 46.74,25.77 46.52,25.67 A 0.8,0.8 0 0,1 46.22,25.47 L 45.97,25.57 V 25.58 C 46.01,25.62 46.05,25.69 46.15,25.76 C 46.18,25.79 46.25,25.83 46.35,25.88 L 46.55,25.94 A 2.3,2.3 0 0,0 47.31,25.98 C 47.39,25.98 47.71,25.94 47.88,25.7 C 47.91,25.65 47.98,25.54 47.98,25.38 C 47.98,25.32 47.97,25.2 47.88,25.08 C 47.78,24.97 47.65,24.88 47.35,24.86 L 47.05,24.83 L 46.72,24.79 H 46.71 C 46.6,24.78 46.47,24.76 46.41,24.66 A 0.24,0.24 0 0,1 46.38,24.54 C 46.38,24.46 46.42,24.34 46.58,24.29 C 46.66,24.26 46.81,24.22 47,24.22 C 47.3,24.22 47.48,24.31 47.59,24.38 C 47.64,24.41 47.68,24.46 47.69,24.48 Z M 34.9,28.3 L 34.35,27 H 34 V 29 H 34.24 V 27.75 V 27.57 V 27.45 L 34.22,27.25 L 34.28,27.42 L 34.4,27.7 L 34.96,29 H 35.19 L 35.8,27.59 L 35.87,27.42 L 35.88,27.38 L 35.94,27.24 C 35.92,27.42 35.91,27.51 35.91,27.84 V 29 H 36.15 V 27 H 35.81 L 35.24,28.3 L 35.2,28.4 A 5,5 0 0,0 35.08,28.75 L 35.06,28.69 L 35,28.55 A 5.93,5.93 0 0,0 34.9,28.3 Z M 38.59,27.46 A 1,1 0 0,0 38.21,27.13 A 1.3,1.3 0 0,0 37.65,27 C 37.25,27 37,27.17 36.88,27.28 C 36.82,27.33 36.79,27.37 36.77,27.4 L 36.75,27.42 C 36.63,27.59 36.57,27.8 36.57,28.02 C 36.57,28.11 36.58,28.32 36.7,28.53 C 36.91,28.89 37.27,28.96 37.4,28.98 C 37.52,29 37.62,29 37.67,29 C 38.12,29 38.39,28.81 38.51,28.68 A 1.07,1.07 0 0,0 38.58,27.46 Z M 36.87,27.73 A 0.68,0.68 0 0,1 37.01,27.48 A 0.9,0.9 0 0,1 37.61,27.23 C 37.72,27.23 38.23,27.23 38.42,27.67 C 38.45,27.72 38.49,27.84 38.49,28 A 1,1 0 0,1 38.46,28.21 A 0.67,0.67 0 0,1 37.97,28.73 C 37.84,28.77 37.72,28.77 37.67,28.77 A 0.91,0.91 0 0,1 37.1,28.6 A 0.61,0.61 0 0,1 36.95,28.46 A 0.8,0.8 0 0,1 36.82,28.01 C 36.82,27.92 36.84,27.82 36.87,27.73 Z M 40.37,27 A 1,1 0 0,1 40.67,27.03 C 40.91,27.1 41.06,27.31 41.06,27.59 C 41.06,27.69 41.04,27.98 40.76,28.1 A 0.77,0.77 0 0,1 40.56,28.16 L 41.24,29 H 40.9 L 40.27,28.2 H 39.39 V 29 H 39.12 V 27 H 40.38 Z M 39.38,27.97 H 40.29 C 40.44,27.97 40.61,27.96 40.72,27.82 C 40.74,27.78 40.78,27.72 40.78,27.6 A 0.4,0.4 0 0,0 40.74,27.4 C 40.66,27.26 40.54,27.24 40.39,27.24 H 39.39 V 27.97 Z M 43.06,27.24 V 27 H 41.34 V 27.24 H 42.07 V 29 H 42.33 V 27.24 H 43.06 Z M 44.96,27.59 V 27.57 C 44.94,27.55 44.92,27.51 44.87,27.47 A 0.82,0.82 0 0,0 44.29,27.24 C 44.24,27.24 44.09,27.24 43.95,27.3 A 0.7,0.7 0 0,0 43.48,27.99 C 43.48,28.16 43.53,28.35 43.64,28.49 C 43.84,28.76 44.19,28.78 44.28,28.78 C 44.53,28.78 44.81,28.66 44.94,28.43 A 0.63,0.63 0 0,0 45.02,28.18 H 44.22 V 27.95 H 45.22 V 28.96 H 45.01 V 28.7 A 0.87,0.87 0 0,1 44.89,28.8 C 44.79,28.88 44.55,29 44.23,29 A 0.99,0.99 0 0,1 43.21,28 C 43.21,27.9 43.21,27.68 43.35,27.47 A 0.8,0.8 0 0,1 43.47,27.32 C 43.59,27.2 43.85,27 44.27,27 C 44.37,27 44.62,27.01 44.87,27.15 A 0.78,0.78 0 0,1 45.22,27.51 L 44.97,27.59 Z M 47.66,29 L 46.74,27 H 46.47 L 45.55,29 H 45.83 L 46.05,28.5 H 47.15 L 47.37,29 H 47.66 Z M 47.04,28.28 H 46.16 L 46.53,27.44 L 46.6,27.27 V 27.25 L 46.66,27.43 L 47.04,28.28 Z M 49.53,27.58 H 49.52 C 49.5,27.55 49.48,27.51 49.43,27.46 A 0.82,0.82 0 0,0 48.85,27.24 C 48.8,27.24 48.65,27.24 48.51,27.3 A 0.7,0.7 0 0,0 48.04,27.99 C 48.04,28.16 48.09,28.35 48.2,28.49 C 48.4,28.76 48.75,28.78 48.84,28.78 C 49.09,28.78 49.37,28.66 49.5,28.43 A 0.61,0.61 0 0,0 49.57,28.18 H 48.79 V 27.95 H 49.79 V 28.96 H 49.57 V 28.7 A 0.96,0.96 0 0,1 49.45,28.8 C 49.35,28.88 49.11,29 48.79,29 A 1,1 0 0,1 47.77,28 C 47.77,27.9 47.77,27.68 47.91,27.47 A 0.8,0.8 0 0,1 48.03,27.32 C 48.15,27.2 48.41,27 48.83,27 C 48.93,27 49.18,27.01 49.43,27.15 A 0.78,0.78 0 0,1 49.78,27.51 L 49.53,27.59 Z M 52.01,27.25 V 27 H 50.3 V 29 H 52 V 28.75 H 50.54 V 28.08 H 51.9 V 27.84 H 50.54 V 27.24 H 52 Z M 35.83,30 V 30.24 H 35.05 V 32 H 34.78 V 30.24 H 34 V 30 H 35.83 Z M 37.48,30 C 37.65,30 37.71,30 37.78,30.03 C 38.04,30.1 38.18,30.31 38.18,30.59 C 38.18,30.69 38.17,30.97 37.88,31.09 A 0.81,0.81 0 0,1 37.68,31.15 L 38.38,32 H 38.02 L 37.38,31.2 H 36.46 V 32 H 36.19 V 30 H 37.49 Z M 36.46,30.96 H 37.4 C 37.55,30.96 37.73,30.96 37.84,30.82 C 37.87,30.78 37.91,30.72 37.91,30.6 A 0.4,0.4 0 0,0 37.86,30.4 C 37.78,30.25 37.66,30.24 37.5,30.24 H 36.46 V 30.96 Z M 38.94,31.16 V 31.34 C 38.98,31.52 39.06,31.59 39.14,31.63 C 39.23,31.69 39.38,31.76 39.64,31.76 C 39.68,31.76 40.01,31.76 40.19,31.62 C 40.25,31.57 40.29,31.5 40.3,31.48 C 40.34,31.38 40.34,31.3 40.34,31.2 V 30 H 40.62 V 31.18 C 40.62,31.31 40.62,31.42 40.56,31.54 C 40.41,31.91 39.99,32 39.65,32 C 39.55,32 39.21,32 38.94,31.8 A 0.6,0.6 0 0,1 38.74,31.6 A 0.91,0.91 0 0,1 38.66,31.15 V 30 H 38.94 V 31.16 Z M 42.71,30.48 L 42.6,30.38 A 0.97,0.97 0 0,0 42.01,30.22 C 41.81,30.22 41.67,30.26 41.6,30.29 C 41.43,30.35 41.39,30.46 41.39,30.54 C 41.39,30.58 41.39,30.63 41.42,30.66 C 41.49,30.76 41.62,30.78 41.73,30.79 L 42.36,30.85 C 42.66,30.89 42.79,30.97 42.88,31.08 C 42.98,31.2 42.98,31.32 42.98,31.38 C 42.98,31.54 42.92,31.64 42.88,31.69 C 42.72,31.93 42.39,31.97 42.32,31.98 A 2.23,2.23 0 0,1 41.56,31.94 L 41.36,31.87 A 0.86,0.86 0 0,1 41.16,31.76 C 41.06,31.68 41.01,31.61 40.98,31.56 L 41.23,31.46 L 41.27,31.51 A 0.8,0.8 0 0,0 41.53,31.67 C 41.75,31.77 42.01,31.77 42.07,31.77 C 42.12,31.77 42.4,31.77 42.59,31.64 C 42.7,31.54 42.72,31.44 42.72,31.38 C 42.72,31.27 42.65,31.18 42.55,31.15 A 2.48,2.48 0 0,0 41.93,31.05 C 41.57,31.02 41.39,31 41.25,30.87 A 0.4,0.4 0 0,1 41.12,30.56 C 41.12,30.29 41.3,30.17 41.38,30.12 C 41.5,30.07 41.7,30 42.01,30 C 42.39,30 42.61,30.1 42.75,30.18 L 42.84,30.25 C 42.9,30.3 42.94,30.36 42.96,30.38 L 42.71,30.48 Z M 45.05,30 V 30.24 H 44.27 V 32 H 44 V 30.24 H 43.22 V 30 H 45.05 Z M 32.3,23 H 32 V 33 H 32.3 V 23 Z" fill="rgb(92, 137, 161)"/>
</svg>
