<?xml version="1.0" encoding="UTF-8"?>
<!-- generated by Finnhub -->
<svg viewBox="0 0 55.5 55.5" xmlns="http://www.w3.org/2000/svg">
<path d="M 0,0 H 55.5 V 55.5 H 0 Z" fill="rgb(227, 28, 34)"/>
<path d="M 15.772,35.985 L 21.479,20.003 H 26.685 L 29.628,28.203 L 32.57,20.003 H 37.815 L 32.042,36 H 27.062 L 24.006,27.439 L 20.988,36 H 15.782 Z M 42.719,24.585 L 41.134,29 H 44.304 L 42.719,24.585 Z M 45.66,33 H 39.813 L 38.643,36 H 33.437 L 39.134,20.003 H 46.302 L 52,36 H 46.793 L 45.661,33 Z M 20.12,20.003 H 11.971 C 7.859,20.003 4.2,23.901 4.011,27.519 C 3.787,31.814 6.991,36 10.84,36 H 14.424 L 16.561,30 H 12.44 A 2,2 0 0,1 10.478,27.608 L 10.678,26.608 A 2,2 0 0,1 12.64,25 H 18.341 L 20.121,20.003 Z" fill="rgb(254, 254, 253)"/>
</svg>
