<?xml version="1.0" encoding="UTF-8"?>
<!-- generated by Finnhub -->
<svg viewBox="0 0 55.5 55.5" xmlns="http://www.w3.org/2000/svg">
<path d="M 0,0 H 55.5 V 55.5 H 0 Z" fill="rgb(239, 242, 248)"/>
<path d="M 22.99,19.985 V 29.42 A 6.55,6.55 0 0,0 29.5,36 H 31.09 C 33.01,36 34.57,35.16 35.59,33.82 A 6.09,6.09 0 0,0 40.25,36 H 41.77 C 45.2,36 48,33.05 48,29.42 V 20 H 45 V 29.52 C 45,31.54 43.4,33 41.48,33 H 40.87 C 39.11,33 37.32,31.77 37.04,30 H 33.98 C 33.8,31.77 32.63,33 30.79,33 H 30.16 C 28.16,33 26,31.54 26,29.52 V 20 H 23 Z M 37,20 V 28 H 34 V 20 H 37 Z M 17.11,20 H 7 V 23 H 16.91 C 17.64,23 18.31,23.27 18.57,23.55 L 13.55,27 H 18.5 L 21.98,24.46 C 22.26,20.86 18.85,19.98 17.11,20 Z M 7.48,31.17 L 10.64,29 H 15.76 L 11.12,32.39 A 0.9,0.9 0 0,1 11.01,32.63 C 10.88,32.84 10.79,33 11.51,33 H 22 V 36 H 10.92 C 9.06,35.45 5.77,33.72 7.48,31.17 Z" fill="rgb(188, 22, 42)"/>
</svg>
