<?xml version="1.0" encoding="UTF-8"?>
<!-- generated by Finnhub -->
<svg viewBox="0 0 55.5 55.5" xmlns="http://www.w3.org/2000/svg">
<path d="M 0,0 H 55.5 V 55.5 H 0 Z" fill="rgb(239, 242, 248)"/>
<path d="M 34.11,15.385 C 33.04,15.42 31.99,15.6 30.96,15.92 A 0.89,0.89 0 0,1 29.96,15.57 C 29.32,14.66 28.29,12.51 27.18,12.37 C 27.08,12.36 27.03,12.3 27.02,12.21 C 27.01,12.08 27.06,12.01 27.19,12.01 C 32.89,11.85 37.41,14.01 40.75,18.5 A 0.51,0.51 0 0,1 40.82,18.99 A 0.5,0.5 0 0,1 40.44,19.3 L 38.84,19.62 A 0.4,0.4 0 0,1 38.38,19.42 L 35.94,15.42 C 35.84,15.26 35.71,15.12 35.54,15.03 L 34.39,14.38 C 34.23,14.29 34.13,14.34 34.1,14.52 C 34.07,14.75 34.14,14.92 34.31,15.02 A 7.72,7.72 0 0,1 37.56,19.17 A 0.59,0.59 0 0,1 37.41,19.8 A 0.58,0.58 0 0,1 37.21,19.92 L 34.03,21.07 A 0.78,0.78 0 0,1 33.09,20.72 L 31.21,17.32 C 30.84,16.64 31.03,16.22 31.79,16.08 L 34.15,15.6 C 34.91,15.44 34.9,15.37 34.12,15.4 Z" fill="rgb(165, 175, 62)"/>
<path d="M 21.84,14.035 A 9.7,9.7 0 0,1 18.13,16.71 A 0.52,0.52 0 0,1 17.47,16.51 A 0.51,0.51 0 0,1 17.6,15.83 C 20.04,13.87 22.8,12.63 25.9,12.09 C 26.12,12.05 26.32,12.09 26.5,12.23 A 8.65,8.65 0 0,1 29.28,15.75 C 29.38,15.99 29.32,16.15 29.08,16.25 L 24.75,17.87 A 0.72,0.72 0 0,1 23.84,17.47 L 22.44,14.13 A 0.34,0.34 0 0,0 22.17,13.93 A 0.35,0.35 0 0,0 21.85,14.05 Z M 29.33,16.6 L 25.19,18.48 A 0.78,0.78 0 0,0 24.8,19.51 L 26.59,23.4 C 26.77,23.79 27.23,23.96 27.62,23.78 L 31.76,21.9 C 32.16,21.72 32.33,21.26 32.16,20.87 L 30.37,16.98 A 0.78,0.78 0 0,0 29.33,16.6 Z M 17.4,21.75 L 14.53,23.88 A 0.48,0.48 0 0,1 13.76,23.56 A 4.86,4.86 0 0,1 16.58,18.2 A 0.35,0.35 0 0,1 16.91,18.2 A 0.36,0.36 0 0,1 17.11,18.46 L 17.59,21.26 C 17.63,21.46 17.56,21.62 17.39,21.75 Z" fill="rgb(195, 174, 61)"/>
<path d="M 19.939999999999998,25.945 L 18.68,22.38 A 1,1 0 0,1 19.17,21.15 L 22.72,19.35 A 1.02,1.02 0 0,1 24.11,19.83 L 25.67,23.41 A 1,1 0 0,1 25.17,24.71 L 21.33,26.53 A 1.01,1.01 0 0,1 19.95,25.96 Z" fill="rgb(236, 174, 60)"/>
<path d="M 40.79,19.655 L 39.4,20.31 A 0.53,0.53 0 0,0 39.14,21.01 L 40.84,24.7 C 40.96,24.97 41.28,25.08 41.54,24.96 L 42.95,24.32 A 0.53,0.53 0 0,0 43.21,23.62 L 41.51,19.93 A 0.54,0.54 0 0,0 40.81,19.67 Z" fill="rgb(129, 172, 66)"/>
<path d="M 37.46,20.625 L 34.38,22.05 A 0.75,0.75 0 0,0 34.01,23.05 L 35.88,27.09 C 36.05,27.47 36.5,27.64 36.88,27.46 L 39.97,26.06 A 0.75,0.75 0 0,0 40.34,25.05 L 38.47,21 A 0.76,0.76 0 0,0 37.47,20.63 Z" fill="rgb(165, 175, 62)"/>
<path d="M 32.050000000000004,22.775 L 27.96,24.59 A 0.92,0.92 0 0,0 27.49,25.8 L 29.34,29.99 C 29.54,30.45 30.09,30.66 30.56,30.46 L 34.66,28.66 C 35.12,28.46 35.34,27.91 35.13,27.45 L 33.27,23.26 A 0.92,0.92 0 0,0 32.06,22.79 Z" fill="rgb(195, 174, 61)"/>
<path d="M 42.03,32.265 C 42.21,32.68 42.24,33.08 42.12,33.48 C 42.07,33.65 42.12,33.69 42.28,33.61 C 42.81,33.35 42.76,32.45 42.48,32.09 C 42.97,31.36 43,30.71 42.58,30.14 C 42.47,29.99 42.38,29.82 42.33,29.64 L 41.46,26.44 A 0.51,0.51 0 0,1 41.66,25.85 L 43,24.83 C 43.29,24.63 43.47,24.69 43.56,25.03 C 45.39,32.1 41.42,39.04 35.23,42.41 C 35.02,42.51 34.86,42.46 34.77,42.24 L 34.6,41.84 C 34.5,41.61 34.57,41.44 34.79,41.32 L 38.57,39.28 C 39.12,38.98 39.33,38.52 39.2,37.91 L 38.57,34.96 A 0.5,0.5 0 0,1 38.71,34.46 A 9.9,9.9 0 0,1 42.05,32.28 Z" fill="rgb(129, 172, 66)"/>
<path d="M 13.73,25.775 L 14.67,29.55 C 14.73,29.79 14.67,29.99 14.48,30.15 L 13.1,31.41 C 12.88,31.62 12.7,31.58 12.6,31.29 C 11.93,29.44 11.46,26.89 13.26,25.61 C 13.51,25.43 13.66,25.49 13.74,25.79 Z" fill="rgb(195, 174, 61)"/>
<path d="M 40.96,27.085 L 42.11,30.77 A 0.65,0.65 0 0,1 41.85,31.5 L 39,33.42 A 0.65,0.65 0 0,1 38.01,33.09 L 36.69,29.17 A 0.65,0.65 0 0,1 36.99,28.4 L 40.02,26.73 A 0.66,0.66 0 0,1 40.96,27.1 Z" fill="rgb(129, 172, 66)"/>
<path d="M 18.979999999999997,28.405 L 16.25,29.67 C 15.73,29.91 15.5,30.52 15.74,31.03 L 17.42,34.69 C 17.66,35.2 18.27,35.43 18.79,35.19 L 21.53,33.95 C 22.05,33.71 22.27,33.1 22.03,32.58 L 20.36,28.93 A 1.04,1.04 0 0,0 18.99,28.43 Z" fill="rgb(195, 174, 61)"/>
<path d="M 34.84,29.384999999999998 L 30.73,31.27 A 0.76,0.76 0 0,0 30.36,32.29 L 32.11,36.08 C 32.28,36.46 32.74,36.63 33.13,36.45 L 37.24,34.57 A 0.76,0.76 0 0,0 37.62,33.55 L 35.87,29.77 A 0.77,0.77 0 0,0 34.85,29.39 Z M 31.23,36.04 A 0.92,0.92 0 0,1 30.76,37.26 L 27.36,38.78 C 27.17,38.86 26.98,38.9 26.78,38.9 A 1.66,1.66 0 0,1 25.68,38.42 A 1.78,1.78 0 0,1 25.32,37.9 L 24.25,35.53 A 1.77,1.77 0 0,1 24.17,34.3 C 24.23,34.1 24.33,33.93 24.47,33.78 C 24.6,33.63 24.76,33.51 24.94,33.43 L 28.34,31.91 A 0.93,0.93 0 0,1 29.57,32.37 L 31.23,36.04 Z M 42.47,32.1 C 42.76,32.45 42.81,33.35 42.27,33.61 C 42.12,33.69 42.07,33.65 42.12,33.49 C 42.24,33.08 42.21,32.68 42.04,32.29 L 42.47,32.09 Z" fill="rgb(165, 175, 62)"/>
<path d="M 37.79,35.285 C 39.3,39.36 37.68,39.47 34.5,40.84 C 34.25,40.94 34.07,40.88 33.97,40.63 L 32.8,37.94 C 32.68,37.68 32.76,37.48 33.01,37.34 L 37.28,35.09 C 37.54,34.96 37.71,35.03 37.81,35.29 Z" fill="rgb(129, 172, 66)"/>
<path d="M 19.729999999999997,40.714999999999996 A 5.68,5.68 0 0,1 15.28,37.3 C 15.18,37.06 15.26,36.92 15.5,36.85 L 17.1,36.44 C 17.38,36.37 17.6,36.44 17.75,36.68 L 20.09,40.15 A 0.38,0.38 0 0,1 19.95,40.69 A 0.38,0.38 0 0,1 19.75,40.73 Z" fill="rgb(165, 175, 62)"/>
<path d="M 34.09,42.755 A 0.25,0.25 0 0,1 33.91,43.07 L 33.81,43.1 A 66.4,66.4 0 0,1 30.72,43.83 C 30.32,43.91 29.98,43.96 29.76,43.99 C 29.53,44.01 29.41,44 29.4,43.97 L 29.21,43.27 C 29.21,43.23 29.31,43.17 29.51,43.07 C 29.72,42.99 30.03,42.87 30.43,42.74 A 40.08,40.08 0 0,1 33.48,41.85 L 33.58,41.83 A 0.25,0.25 0 0,1 33.88,42 L 34.09,42.77 Z" fill="rgb(129, 172, 66)"/>
</svg>
