<?xml version="1.0" encoding="UTF-8"?>
<!-- generated by Finnhub -->
<svg viewBox="0 0 55.5 55.5" xmlns="http://www.w3.org/2000/svg">
<path d="M 0,0 H 55.5 V 55.5 H 0 Z" fill="rgb(239, 242, 248)"/>
<path d="M 17.56,10.985 L 27.96,21.39 L 38.34,11 C 39.53,12.71 38.44,15.99 37.04,17.4 L 27.96,26.48 L 18.87,17.4 C 17.47,15.99 16.59,12.8 17.57,11 Z M 38.43,45 L 28.05,34.61 L 17.65,45 C 16.48,43.29 17.55,40.01 18.96,38.6 L 28.05,29.52 L 37.13,38.6 C 38.53,40.01 39.41,43.2 38.43,45 Z" fill="rgb(4, 114, 150)"/>
<path d="M 21.38,28.025 L 11,38.44 C 12.8,39.41 15.99,38.54 17.4,37.13 L 26.48,28.04 L 17.4,18.96 C 15.99,17.56 12.71,16.48 11,17.66 L 21.39,28.04 Z" fill="rgb(8, 157, 199)"/>
<path d="M 34.6,27.945 L 45,17.56 C 43.2,16.59 40.01,17.46 38.6,18.87 L 29.52,27.96 L 38.6,37.04 C 40.01,38.44 43.29,39.52 45,38.34 L 34.61,27.96 Z" fill="rgb(240, 88, 40)"/>
</svg>
