<?xml version="1.0" encoding="UTF-8"?>
<!-- generated by Finnhub -->
<svg viewBox="0 0 55.5 55.5" xmlns="http://www.w3.org/2000/svg">
<path d="M 0,0 H 55.5 V 55.5 H 0 Z" fill="url(#a)"/>
<path d="M 7.01,29.595 C 7.28,27.56 14.58,27.78 22.78,30.16 C 28.25,31.75 27.88,33 27.86,33.1 C 27.84,33.2 27.72,33.32 27.43,33.24 C 17.68,30.36 18.37,34.28 9.96,32.18 C 8.65,31.75 6.82,31.22 7.02,29.61 Z" fill="rgb(222, 121, 25)"/>
<path d="M 28.02,31.485 S 27.4,26.48 23.19,20.38 C 18.75,13.95 16.73,18.05 18.82,20.92 C 20.65,23.45 23.43,25.82 25.14,28.47 C 26,29.8 28.07,33.05 28.03,31.5 Z M 29.74,33.98 C 30.34,33.8 34.3,33.46 36.33,34.81 A 77.66,77.66 0 0,1 42.31,39.14 C 43.35,40.03 44.76,38.94 43.51,36.61 C 42.25,34.29 37.49,31.2 33.09,32.15 C 31.22,32.56 30.21,32.78 29.26,33.41 C 28.4,34 29.14,34.15 29.74,33.98 Z" fill="rgb(226, 25, 31)"/>
<path d="M 39.99,26.814999999999998 C 37.27,25.56 31.62,27.8 29.3,31.55 C 28.83,32.39 31.4,33.02 35.24,30.38 C 39.09,27.73 41.61,27.58 40,26.83 Z M 28.62,34.43 C 28.23,33.33 26.48,33.31 24.32,35.56 C 22.17,37.8 21.91,41.04 22.42,41.88 C 22.91,42.73 24.58,38.73 26,37.49 C 27.43,36.24 29,35.49 28.62,34.43 Z" fill="rgb(242, 118, 108)"/>
<path d="M 28.569999999999997,30.945 S 28.56,30.73 28.57,30.66 C 28.77,29.68 30.04,23.58 33.18,19.42 C 36.12,15.57 38.28,12.88 40.95,14.46 C 42.67,15.5 40.06,19.44 36.02,22.23 C 29.99,26.39 29.01,32.93 28.58,30.96 Z M 32.05,34.88 C 32.98,36.08 32.87,37.38 33.01,38.32 C 33.31,40.36 36.39,40.24 35.99,37.37 C 35.67,35.01 32.56,31.32 29.42,33.31 C 28.4,33.93 29,34.15 29.66,33.99 C 29.66,33.99 30.98,33.49 32.05,34.88 Z" fill="rgb(251, 184, 18)"/>
<defs>
<linearGradient id="a" x1="10.42" x2="68.15" y1="9.71" y2="76.02" gradientUnits="userSpaceOnUse">
<stop stop-color="rgb(25, 29, 31)" offset="0"/>
<stop stop-color="rgb(5, 5, 8)" offset="1"/>
</linearGradient>
</defs>
</svg>
