<?xml version="1.0" encoding="UTF-8"?>
<!-- generated by Finnhub -->
<svg viewBox="0 0 55.5 55.5" xmlns="http://www.w3.org/2000/svg">
<path d="M 0,0 H 55.5 V 55.5 H 0 Z" fill="rgb(24, 69, 183)"/>
<path d="M 38.010000000000005,16.705 H 37.76 L 32,27.5 V 20 H 35 V 17 H 25.6 C 25.78,16.8 25.96,16.58 26.14,16.34 C 26.41,16 26.68,15.64 26.97,15.38 L 24.19,14 C 21.01,16.99 19.46,21.16 18.55,23.61 L 18.36,24.12 L 15.45,16.04 L 12.41,16.75 L 17.1,29 H 19.82 L 20,28.37 C 20.56,26.31 21.4,23.26 22.99,20.17 V 29 H 25.99 V 20 H 28.99 V 29 H 34.92 L 35.91,27 H 39.96 L 40.97,29 L 44.09,28.18 L 38.01,16.72 Z M 36.8,24.7 L 37.88,22.41 L 39,24.7 H 36.8 Z M 17.8,30.68 L 16.26,33.35 A 2.26,2.26 0 0,0 14.44,32.57 C 13.4,32.57 12.32,33.37 12.32,34.74 C 12.32,35.3 12.54,35.83 12.94,36.22 C 13.34,36.62 13.87,36.85 14.44,36.87 A 2.6,2.6 0 0,0 16.34,36.25 L 17.8,38.96 A 4.97,4.97 0 0,1 14.43,40 A 5.43,5.43 0 0,1 9,34.74 A 5.3,5.3 0 0,1 14.43,29.41 A 5.2,5.2 0 0,1 17.79,30.68 Z M 35.68,33.35 L 37.22,30.68 A 5.2,5.2 0 0,0 33.86,29.41 A 5.3,5.3 0 0,0 28.43,34.74 A 5.43,5.43 0 0,0 33.85,40 C 35.41,40 36.5,39.59 37.21,38.96 L 35.75,36.25 A 2.6,2.6 0 0,1 33.85,36.87 A 2.2,2.2 0 0,1 32.35,36.22 C 31.95,35.82 31.73,35.3 31.73,34.74 A 2.12,2.12 0 0,1 33.85,32.57 C 34.54,32.57 35.15,32.75 35.67,33.35 Z M 46.8,33.35 A 4.14,4.14 0 0,0 43.68,33.44 S 41.99,31.31 39.33,32.7 C 39.05,32.29 38.72,32.05 38.47,31.87 L 38.33,31.77 C 38.83,31.03 40.13,29.74 42.43,29.74 C 45.39,29.74 46.57,32.36 46.8,33.36 Z M 46.92,33.8 A 4.34,4.34 0 0,0 43.64,34 A 3.35,3.35 0 0,0 39.25,33.25 A 4.17,4.17 0 0,0 38.11,32.15 C 35.77,35.59 38.28,40.05 41.81,40 A 4.8,4.8 0 0,0 45.21,38.65 A 5.2,5.2 0 0,0 46.91,33.8 Z M 24.16,33.45 A 4.14,4.14 0 0,1 27.28,33.36 C 27.05,32.36 25.87,29.74 22.91,29.74 C 20.61,29.74 19.31,31.04 18.81,31.78 L 18.95,31.88 C 19.2,32.05 19.53,32.29 19.81,32.71 A 3.44,3.44 0 0,1 24.16,33.45 Z M 24.12,34.01 A 4.34,4.34 0 0,1 27.4,33.81 A 5.2,5.2 0 0,1 25.7,38.65 A 4.8,4.8 0 0,1 22.3,40 C 18.76,40.05 16.25,35.6 18.59,32.15 C 19.09,32.48 19.49,32.9 19.73,33.25 A 3.35,3.35 0 0,1 24.12,34.01 Z" fill="rgb(154, 218, 243)"/>
</svg>
