<?xml version="1.0" encoding="UTF-8"?>
<!-- generated by Finnhub -->
<svg viewBox="0 0 55.5 55.5" xmlns="http://www.w3.org/2000/svg">
<path d="M 0,0 H 55.5 V 55.5 H 0 Z" fill="rgb(239, 242, 248)"/>
<path d="M 43.77,29.134999999999998 A 0.25,0.25 0 0,0 43.55,29 H 43.29 C 43.19,29 43.1,29.06 43.06,29.15 L 41.18,33.63 A 0.28,0.28 0 0,0 41.19,33.88 C 41.24,33.95 41.32,34 41.4,34 H 41.96 C 42.06,34 42.14,33.94 42.18,33.84 L 42.58,33 H 44.26 L 44.64,33.84 C 44.68,33.94 44.76,34 44.86,34 H 45.46 C 45.54,34 45.62,33.95 45.66,33.88 A 0.28,0.28 0 0,0 45.68,33.62 L 43.78,29.15 Z M 42.88,32 L 43.41,30.83 L 43.97,32 H 42.89 Z M 10.18,29 C 10.27,29 10.36,29.06 10.4,29.15 L 12.3,33.63 C 12.34,33.71 12.33,33.8 12.28,33.88 A 0.24,0.24 0 0,1 12.08,34 H 11.48 A 0.25,0.25 0 0,1 11.26,33.84 L 10.88,33 H 9.19 L 8.8,33.84 A 0.25,0.25 0 0,1 8.58,34 H 8.02 A 0.24,0.24 0 0,1 7.82,33.88 A 0.28,0.28 0 0,1 7.8,33.63 L 9.68,29.16 C 9.72,29.06 9.81,29 9.91,29 H 10.17 Z M 10.03,30.83 L 9.5,32 H 10.58 L 10.02,30.83 Z M 5.7,30.97 C 5.8,30.99 5.9,31.02 6.01,31.07 H 6.05 C 6.71,31.29 7.55,31.56 7.53,32.6 C 7.53,33.43 6.73,34 5.73,34 C 5.13,34 4.49,33.72 4.07,33.28 A 0.28,0.28 0 0,1 4.03,32.96 L 4.16,32.56 C 4.2,32.49 4.26,32.44 4.34,32.43 C 4.42,32.43 4.49,32.46 4.54,32.51 C 4.84,32.79 5.3,33 5.73,33 C 6.17,33 6.51,32.88 6.51,32.6 C 6.51,32.23 6.29,32.17 5.81,32.02 L 5.53,31.94 L 5.41,31.9 C 4.78,31.7 4,31.46 4,30.32 C 4,29.53 4.87,29 5.84,29 C 6.3,29 6.81,29.16 7.16,29.4 C 7.26,29.48 7.3,29.62 7.25,29.74 L 7.14,30.17 A 0.25,0.25 0 0,1 6.98,30.3 A 0.23,0.23 0 0,1 6.78,30.27 A 1.74,1.74 0 0,0 5.83,30 C 5.43,30 5,30.17 5,30.42 C 5,30.75 5.24,30.82 5.7,30.96 Z M 13.33,29 H 13.67 C 13.85,29 14,29.12 14,29.26 V 33.74 C 14,33.88 13.85,34 13.67,34 H 13.33 C 13.15,34 13,33.88 13,33.74 V 29.26 C 13,29.12 13.15,29 13.33,29 Z M 18.74,29 H 18.3 C 18.15,29 18,29.12 18,29.26 V 32.04 L 15.77,29.11 A 0.26,0.26 0 0,0 15.57,29 H 15.26 A 0.26,0.26 0 0,0 15,29.26 V 33.74 C 15,33.88 15.12,34 15.26,34 H 15.71 C 15.86,34 16,33.88 16,33.74 V 30.99 L 18.23,33.89 C 18.27,33.96 18.35,34 18.43,34 H 18.74 C 18.88,34 19,33.88 19,33.74 V 29.26 A 0.26,0.26 0 0,0 18.74,29 Z M 51.3,29 H 51.74 C 51.88,29 52,29.12 52,29.26 V 33.73 C 52,33.88 51.88,34 51.74,34 H 51.44 A 0.26,0.26 0 0,1 51.23,33.9 L 49,31 V 33.73 C 49,33.88 48.86,34 48.71,34 H 48.26 A 0.26,0.26 0 0,1 48,33.73 V 29.26 C 48,29.12 48.12,29 48.26,29 H 48.56 C 48.65,29 48.72,29.04 48.77,29.1 L 51,32.05 V 29.27 C 51,29.13 51.15,29.01 51.3,29.01 Z M 23.14,29 H 19.85 C 19.72,29 19.61,29.12 19.61,29.26 V 29.71 C 19.61,29.86 19.71,30 19.85,30 H 21 V 33.74 C 21,33.88 21.12,34 21.26,34 H 21.72 C 21.85,34 22,33.88 22,33.74 V 30 H 23.14 C 23.28,30 23.39,29.86 23.39,29.71 V 29.26 C 23.39,29.12 23.28,29 23.14,29 Z M 23.27,31 H 24.73 C 24.88,31 25,31.16 25,31.35 V 31.65 C 25,31.85 24.88,32 24.73,32 H 23.27 C 23.12,32 23,31.84 23,31.65 V 31.35 C 23,31.15 23.12,31 23.27,31 Z M 30.23,31 H 29.26 A 0.26,0.26 0 0,0 29,31.27 V 31.73 C 29,31.88 29.11,32 29.26,32 H 29.5 V 32.7 C 29.32,32.88 29.02,33 28.63,33 C 27.77,33.04 27,32.45 27,31.5 S 27.72,30 28.63,30 C 29.1,30 29.55,30.18 29.89,30.48 A 0.27,0.27 0 0,0 30.28,30.45 L 30.44,30.02 C 30.5,29.87 30.52,29.74 30.41,29.65 A 2.73,2.73 0 0,0 28.63,29 A 2.57,2.57 0 0,0 26,31.5 C 26,32.88 27.17,34 28.62,34 C 29.27,34 29.92,33.76 30.41,33.36 C 30.47,33.31 30.5,33.23 30.5,33.16 V 31.26 A 0.27,0.27 0 0,0 30.23,31 Z M 31.25,31.5 A 2.5,2.5 0 1,1 36.25,31.5 A 2.5,2.5 0 0,1 31.25,31.5 Z M 32.25,31.5 C 32.25,32.44 32.93,33 33.75,33 C 34.56,33 35.25,32.44 35.25,31.5 C 35.25,30.55 34.56,30 33.75,30 C 32.93,30 32.25,30.55 32.25,31.5 Z M 40.35,31.36 C 40.62,31.13 40.77,30.79 40.77,30.37 C 40.77,29.53 40.14,29 39.11,29 H 37.27 A 0.27,0.27 0 0,0 37,29.26 V 33.74 C 37,33.88 37.12,34 37.27,34 H 39.12 C 40.3,34 41,33.45 41,32.53 C 41,32.01 40.76,31.6 40.35,31.36 Z M 39.1,31 H 38 V 30 H 39.1 C 39.5,30 39.8,30.2 39.8,30.49 C 39.8,30.77 39.68,31 39.1,31 Z M 38,32 H 39.1 C 39.51,32 40,32.07 40,32.53 C 40,33 39.6,33 39.1,33 H 38 V 32 Z M 46.33,29 H 46.67 C 46.85,29 47,29.12 47,29.26 V 33.74 C 47,33.88 46.85,34 46.67,34 H 46.33 C 46.15,34 46,33.88 46,33.74 V 29.26 C 46,29.12 46.15,29 46.33,29 Z" fill="rgb(36, 73, 152)"/>
<path d="M 30.99,23.125 V 27 H 30 V 22.37 L 31,23.14 Z M 45.62,27 H 42.88 L 40.64,24.1 A 0.37,0.37 0 0,0 40.23,24.02 A 0.38,0.38 0 0,0 40,24.37 V 27 H 39 V 21.31 C 39,21.21 38.96,21.11 38.89,21.04 L 36.76,19.1 A 0.37,0.37 0 0,0 36.5,19 H 35.42 C 35.21,19 35,19.17 35,19.38 V 27 H 34 V 14.38 C 34,14.23 33.95,14.08 33.8,14.03 A 0.38,0.38 0 0,0 33.4,14.11 L 29.1,17.82 A 0.38,0.38 0 0,0 29,18.09 V 20.29 L 28,19.5 A 0.38,0.38 0 0,0 27.54,19.51 L 24.19,22.58 C 24.1,22.65 24,22.76 24,22.88 V 27 H 23.5 V 24.83 C 23.5,23.99 22.82,23 21.76,23 S 20,24 20,24.84 V 27 H 19.5 V 25.35 C 19.5,24.69 18.82,24 18,24 C 17.17,24 16.5,24.7 16.5,25.35 V 27 H 16 V 26.07 C 16,25.51 15.35,25 14.76,25 C 14.16,25 13.5,25.5 13.5,26.07 V 27 H 10.38 C 10.17,27 10,27.29 10,27.5 C 10,27.6 10.04,27.81 10.11,27.89 C 10.18,27.96 10.28,27.99 10.38,27.99 H 14.1 C 14.2,27.99 14.3,27.96 14.37,27.89 A 0.4,0.4 0 0,0 14.5,27.62 V 26.3 C 14.5,26.16 14.59,25.99 14.76,25.99 S 15,26.14 15,26.31 V 27.61 C 15,27.81 15.38,27.99 15.58,27.99 H 17.1 C 17.3,27.99 17.5,27.82 17.5,27.61 V 25.6 C 17.5,25.39 17.58,24.99 18,24.99 C 18.41,24.99 18.5,25.39 18.5,25.59 V 27.61 C 18.5,27.81 18.69,27.99 18.9,27.99 H 20.62 C 20.72,27.99 20.82,27.95 20.89,27.88 A 0.39,0.39 0 0,0 21,27.61 V 24.83 C 21,24.49 21.21,23.99 21.76,23.99 S 22.5,24.43 22.5,24.82 V 27.61 C 22.5,27.81 22.71,27.99 22.92,27.99 H 24.63 C 24.84,27.99 25,27.82 25,27.6 V 23.05 L 27.78,20.62 L 29,21.57 V 27.61 C 29,27.81 29.16,27.99 29.37,27.99 H 31.65 C 31.85,27.99 32,27.82 32,27.61 V 22.86 C 32,22.74 31.97,22.62 31.88,22.56 L 30,21.07 V 18.34 L 33,15.78 V 27.61 C 33,27.81 33.24,27.99 33.45,27.99 H 35.66 C 35.87,27.99 36,27.82 36,27.61 V 20 H 36.25 L 38,21.58 V 27.62 C 38,27.82 38.16,28 38.37,28 H 40.64 C 40.84,28 41,27.83 41,27.62 V 26.32 L 42.23,27.87 C 42.3,27.95 42.4,28 42.5,28 H 45.62 C 45.83,28 46,27.71 46,27.5 C 46,27.29 45.83,27 45.62,27 Z" fill="url(#a)"/>
<defs>
<linearGradient id="a" x1="9.96" x2="46.1" y1="21" y2="21" gradientUnits="userSpaceOnUse">
<stop stop-color="rgb(83, 181, 172)" offset=".1"/>
<stop stop-color="rgb(58, 151, 216)" offset=".3"/>
<stop stop-color="rgb(36, 73, 152)" offset=".42"/>
<stop stop-color="rgb(236, 19, 65)" offset=".55"/>
<stop stop-color="rgb(241, 91, 23)" offset=".84"/>
</linearGradient>
</defs>
</svg>
