<?xml version="1.0" encoding="UTF-8"?>
<!-- generated by Finnhub -->
<svg viewBox="0 0 55.5 55.5" xmlns="http://www.w3.org/2000/svg">
<path d="M 0,0 H 55.5 V 55.5 H 0 Z" fill="rgb(1, 118, 190)"/>
<path d="M 27.610999999999997,12.395 C 28.187,12.575 29.704,13.264 30.016,13.565 L 29.435,17 H 29 C 27.933,13.864 20.468,10.756 20,22.322 C 19.625,31.575 24.143,33.267 26,33.001 V 20 C 28.27,19.983 32.46,20 32.887,20 C 33.637,20 37.267,20.728 37.377,26.006 C 37.463,30.229 34.613,32.122 33.177,32.54 C 34.785,32.349 38,33.047 38,37.372 S 34.76,43.385 32.926,43.796 C 31.092,44.207 26,44 26,44 V 35 C 22.825,34.918 20.782,33.718 19.715,33 C 18.459,32.155 15.666,28.844 16.041,22.321 C 16.416,15.798 20.147,13.026 21.925,12.549 C 23.9,11.826 25.704,11.856 27.621,12.411 Z" fill="rgb(254, 254, 253)"/>
<path d="M 33.99,26.985 C 34.079,21.618 30.596,21.648 29,22 V 33 C 30.353,33.036 33.921,32.382 34,27 Z M 35,37.463 C 35.19,33.157 30.587,34.342 29,35 V 42 C 30.742,42.095 34.81,41.768 35,37.463 Z" fill="rgb(1, 118, 190)"/>
</svg>
