<?xml version="1.0" encoding="UTF-8"?>
<!-- generated by Finnhub -->
<svg viewBox="0 0 55.5 55.5" xmlns="http://www.w3.org/2000/svg">
<path d="M 0,0 H 55.5 V 55.5 H 0 Z" fill="rgb(239, 242, 248)"/>
<path d="M 46.760000000000005,32.985 V 32.6 L 47.01,32.57 C 48.05,32.4 48,31.78 48,30.84 V 29.94 L 46.28,26.48 C 46.06,26.02 45.84,25.58 45.3,25.47 L 45,25.4 V 25 H 48.29 V 25.4 L 47.89,25.43 C 47.39,25.48 47.14,25.88 47.35,26.33 L 48.88,29.28 L 50.25,26.22 C 50.3,26.12 50.33,26.01 50.33,25.9 C 50.33,25.59 49.99,25.45 49.73,25.43 L 49.38,25.4 V 25.02 H 52 V 25.4 L 51.67,25.43 C 51.15,25.48 50.86,25.83 50.61,26.37 L 49,29.64 V 30.84 C 49,31.8 49.26,32.41 50.33,32.57 L 50.58,32.6 V 33 H 46.77 Z M 38,33 V 32.6 L 38.23,32.57 C 39,32.5 39,31.82 39,30.85 V 27.15 C 39,26.22 39,25.5 38.25,25.43 L 38,25.4 V 25 H 44 V 27 H 43.7 C 43.42,25.97 42.7,25.49 41.62,25.49 H 40.01 V 28.68 H 41.48 C 42.08,28.68 42.08,27.68 42.1,27.29 H 42.4 V 30.62 H 42.1 C 42.1,30.18 42.12,29 41.43,29 H 40.01 V 31.6 C 40.01,32.22 40.61,32.51 41.23,32.51 H 42.18 C 42.56,32.51 42.84,32.43 43.02,32.27 C 43.51,31.87 43.69,31.09 43.8,30.5 H 44 V 33 H 38 Z M 31,33 V 32.6 L 31.23,32.57 C 32,32.5 32,31.76 32,30.85 V 27.15 C 32,26.28 32,25.5 31.23,25.43 L 31,25.4 V 25 H 34.27 V 25.4 L 34.04,25.43 C 33.02,25.56 33,26.28 33,27.15 V 30.88 C 33,31.58 33,32.51 33.91,32.51 H 34.71 C 35.27,32.51 35.94,32.31 36.19,31.91 C 36.45,31.49 36.61,30.78 36.67,30 H 37 V 33 H 31 Z M 18.02,33 A 4.05,4.05 0 0,1 14,29.02 C 14,26.82 15.82,25 18.02,25 C 20.23,25 22,26.83 22,29.02 A 4.1,4.1 0 0,1 18.02,33 Z M 18.02,32.5 C 19.97,32.5 21,30.74 21,29.02 C 21,27.24 20.03,25.5 18.02,25.5 C 16.04,25.5 15,27.21 15,29.02 C 15,30.73 16.1,32.5 18.02,32.5 Z M 9.02,33 A 4.81,4.81 0 0,1 4,28.02 A 5.06,5.06 0 0,1 9.11,23 C 9.73,23 10.24,23.06 10.64,23.2 A 7.65,7.65 0 0,1 11.93,23.65 C 12.04,23.69 12.12,23.71 12.16,23.71 C 12.27,23.71 12.36,23.67 12.43,23.6 C 12.51,23.52 12.53,23.19 12.56,23 H 13 V 26.37 H 12.57 A 3.59,3.59 0 0,0 11.47,24.18 A 3.35,3.35 0 0,0 9.16,23.41 C 6.52,23.4 5,25.7 5,28.02 C 5,30.44 6.44,32.59 9.16,32.59 A 3.29,3.29 0 0,0 12.06,31.09 C 12.37,30.64 12.56,30.14 12.62,29.59 H 12.98 L 13,33 H 12.59 V 32.7 C 12.55,32.58 12.49,32.47 12.43,32.37 C 12.38,32.27 12.29,32.21 12.16,32.21 A 0.8,0.8 0 0,0 11.9,32.27 L 11.58,32.4 C 11.31,32.52 10.96,32.65 10.54,32.8 C 10.11,32.93 9.6,33 9.02,33 Z M 26.86,25 C 28.16,25 29.59,25.62 29.59,27.13 C 29.59,28.81 27.97,29.42 26.5,29.42 L 25.5,29.43 V 29.02 L 26.5,29 C 27.64,29 28.5,28.3 28.5,27.13 C 28.5,25.97 27.84,25.47 26.86,25.47 L 25,25.49 V 30.87 C 25,31.91 25.18,32.41 26.25,32.57 L 26.59,32.6 V 33 H 22.5 V 32.6 L 22.84,32.57 C 23.91,32.41 24,31.87 24,30.85 V 27.15 C 24,26.15 23.93,25.55 22.86,25.43 L 22.5,25.4 V 25 H 26.86 Z" fill="rgb(49, 77, 44)"/>
</svg>
