<?xml version="1.0" encoding="UTF-8"?>
<!-- generated by Finnhub -->
<svg viewBox="0 0 55.5 55.5" xmlns="http://www.w3.org/2000/svg">
<path d="M 0,0 H 55.5 V 55.5 H 0 Z" fill="rgb(194, 31, 48)"/>
<path d="M 26.985,25.384999999999998 V 25.995 L 22,27 V 25 H 14 V 33 H 21.995 V 31 L 27,32 V 32.705 C 27,35.813 25.876,37 22.56,37 H 13.435 C 10.133,37 9,35.813 9,32.705 V 25.399 C 9,22.221 10.117,21 13.434,21 H 22.56 C 25.876,21 26.995,22.199 26.995,25.4 Z M 42,29 H 34 V 25 H 42 V 29 Z M 28.996,21 V 37 H 34 V 33 H 42.878 C 45.885,33 47,31.817 47,29.367 V 24.667 C 47,22.18 45.9,21 42.878,21 H 28.996 Z" fill="rgb(254, 254, 253)"/>
</svg>
