<?xml version="1.0" encoding="UTF-8"?>
<!-- generated by Finnhub -->
<svg viewBox="0 0 55.5 55.5" xmlns="http://www.w3.org/2000/svg">
<path d="M 0,0 H 55.5 V 55.5 H 0 Z" fill="rgb(239, 242, 248)"/>
<path d="M 34.99,30.705 L 34.98,30.81 A 0.22,0.22 0 0,1 34.85,30.93 A 0.2,0.2 0 0,1 34.77,30.95 C 34.37,30.92 33.99,30.8 33.59,30.79 C 32.95,30.76 32.31,30.69 31.69,30.61 A 0.12,0.12 0 0,1 31.61,30.57 A 0.13,0.13 0 0,1 31.58,30.49 V 8.15 A 0.15,0.15 0 0,1 31.68,8.01 L 31.73,8 H 34.87 C 34.95,8 35,8.04 35,8.12 V 30.72 Z M 29.62,12 H 26.4 A 0.1,0.1 0 0,0 26.3,12.1 V 30.32 C 26.3,30.37 26.34,30.42 26.4,30.42 H 29.62 A 0.1,0.1 0 0,0 29.72,30.32 V 12.1 A 0.1,0.1 0 0,0 29.62,12 Z M 21,15.17 C 21,15.12 21.08,15.08 21.1,15.05 A 0.16,0.16 0 0,1 21.22,15 H 24.36 C 24.4,15 24.44,15.02 24.46,15.05 C 24.49,15.08 24.51,15.12 24.51,15.16 V 30.46 C 24.51,30.49 24.5,30.53 24.47,30.56 A 0.14,0.14 0 0,1 24.38,30.6 C 23.9,30.63 23.44,30.73 22.95,30.75 A 8,8 0 0,0 21.44,30.94 A 0.29,0.29 0 0,1 21.19,30.88 A 0.3,0.3 0 0,1 21.11,30.78 C 21.09,30.73 21,30.68 21,30.64 V 15.17 Z" fill="rgb(167, 53, 40)"/>
<path d="M 20.869999999999997,19.005 C 20.94,19.08 21,19.16 21,19.25 V 22.8 C 20.65,23.22 20.23,23.61 19.88,23.98 C 19.44,24.45 19.12,24.86 18.89,25.21 A 11.82,11.82 0 0,0 17.44,28.46 C 17.2,29.33 17.04,30.36 16.96,31.56 C 16.96,31.62 16.93,31.66 16.86,31.67 C 15.96,31.88 15.06,32.13 14.16,32.4 C 14.05,32.44 13.99,32.4 14,32.26 C 14.03,31.43 13.98,30.61 14.09,29.78 C 14.66,25.28 16.99,21.44 20.62,19.12 A 0.8,0.8 0 0,1 20.88,19.02 Z M 35.13,19.02 A 13.51,13.51 0 0,1 39.85,23.76 A 15,15 0 0,1 41.99,31.28 A 60.84,60.84 0 0,1 41.99,32.38 A 0.1,0.1 0 0,1 41.96,32.41 A 0.08,0.08 0 0,1 41.88,32.43 C 40.94,32.12 40.01,31.87 39.09,31.68 C 39.05,31.67 39.02,31.64 39.01,31.58 C 38.95,31.25 38.91,30.94 38.9,30.64 A 11.17,11.17 0 0,0 36.79,24.8 C 36.33,24.16 35.57,23.51 35,22.87 V 19.25 C 35,19.2 35.01,19.16 35.04,19.12 L 35.14,19.02 Z M 41.76,34.16 C 41.41,34.13 41.06,34.09 40.71,34.09 C 32.46,34.07 23.94,34.08 15.15,34.1 C 14.85,34.1 14.57,34.12 14.28,34.16 C 14.24,34.16 14.21,34.16 14.18,34.13 A 0.1,0.1 0 0,1 14.14,34.05 A 0.1,0.1 0 0,1 14.18,33.97 C 14.35,33.84 14.54,33.74 14.75,33.67 A 40.68,40.68 0 0,1 41.59,33.76 A 0.5,0.5 0 0,1 41.87,33.97 A 0.12,0.12 0 0,1 41.82,34.14 A 0.12,0.12 0 0,1 41.76,34.16 Z"/>
<path d="M 23.689999999999998,41.315 C 23.05,41.06 22.3,40.61 21.43,39.96 A 1,1 0 0,1 21,39.11 V 35 H 24.45 V 41.47 A 0.12,0.12 0 0,1 24.4,41.57 A 0.11,0.11 0 0,1 24.3,41.57 L 23.7,41.33 Z M 29.45,35 H 26.56 A 0.26,0.26 0 0,0 26.29,35.25 V 41.85 C 26.29,41.99 26.41,42.11 26.56,42.11 H 29.45 C 29.59,42.11 29.71,41.99 29.71,41.85 V 35.25 A 0.26,0.26 0 0,0 29.45,35 Z M 31.73,35 H 35 V 39.45 C 35,39.59 34.91,39.71 34.81,39.8 A 9.02,9.02 0 0,1 31.66,41.54 L 31.61,41.53 A 0.1,0.1 0 0,1 31.56,41.43 V 35.13 A 0.13,0.13 0 0,1 31.61,35.03 A 0.15,0.15 0 0,1 31.73,35 Z" fill="rgb(167, 53, 40)"/>
<path d="M 25.689999999999998,45.775 A 13.91,13.91 0 0,1 15.04,37.05 A 27.69,27.69 0 0,1 14.51,35.52 A 0.06,0.06 0 0,1 14.56,35.49 C 15.2,35.37 15.84,35.27 16.5,35.21 C 16.83,35.17 17.16,35.11 17.5,35.03 A 0.2,0.2 0 0,1 17.64,35.05 C 17.68,35.08 17.72,35.12 17.74,35.17 A 11.93,11.93 0 0,0 19.51,38.48 C 19.75,38.79 20.16,39.23 20.71,39.78 C 22.09,41.16 23.92,42.08 25.78,42.5 C 26.35,42.63 26.92,42.68 27.48,42.67 C 28.25,42.65 29.02,42.71 29.78,42.57 A 11.04,11.04 0 0,0 37.7,36.51 C 37.9,36.11 38.05,35.7 38.15,35.28 A 0.32,0.32 0 0,1 38.3,35.08 A 0.3,0.3 0 0,1 38.54,35.05 C 38.84,35.12 39.14,35.18 39.44,35.21 A 17.24,17.24 0 0,1 41.37,35.51 A 0.18,0.18 0 0,1 41.45,35.63 V 35.71 A 14.08,14.08 0 0,1 27.64,46 C 26.99,46 26.32,45.89 25.69,45.79 Z"/>
</svg>
