<?xml version="1.0" encoding="UTF-8"?>
<!-- generated by Finnhub -->
<svg viewBox="0 0 55.5 55.5" xmlns="http://www.w3.org/2000/svg">
<path d="M 0,0 H 55.5 V 55.5 H 0 Z" fill="rgb(52, 180, 188)"/>
<path d="M 43.49,18.355 C 43.82,15.63 41.48,14.04 39.15,14.04 C 34.83,14.04 30.51,14.04 26.18,14 C 22.89,13.98 19.72,15.77 17.48,18.2 C 16.91,18.83 16.26,19.78 15.54,21.05 C 14.28,23.25 13.02,25.47 11.78,27.68 C 10.78,29.46 10.18,30.62 10.08,31.05 C 9.74,32.44 10.52,33.7 11.65,34.93 C 11.73,35.01 11.77,34.99 11.78,34.88 C 11.84,34 12.06,33.21 12.45,32.51 A 4990,4990 0 0,0 18.28,22.16 C 19.65,19.73 21.54,17.98 24.18,17.26 C 24.87,17.07 26,17 27.41,17 H 39.72 A 4.87,4.87 0 0,1 43.48,18.4 L 43.5,18.39 V 18.37 Z M 27.5,22 H 37.9 C 37.97,22 37.99,22 37.95,22.08 L 36.57,24.71 C 36.5,24.85 36.57,25 36.74,25 H 39.04 C 39.5,25 39.58,24.84 39.77,24.49 L 39.82,24.39 C 40.3,23.51 40.77,22.61 41.22,21.7 C 42.15,19.81 41.38,19 39.62,19 H 27.2 C 24.97,19 23.35,19.52 21.78,21.13 C 21.21,21.71 20.46,22.88 19.51,24.65 A 1826.6,1826.6 0 0,0 14.48,34.15 C 13.45,36.1 14.98,37 16.5,37 H 29.24 C 33.19,36.95 34.44,34.68 36.13,31.18 A 0.13,0.13 0 0,0 36.13,31.06 A 0.11,0.11 0 0,0 36.08,31.02 A 0.1,0.1 0 0,0 36.03,31 H 33.31 C 33.23,31 33.17,31.04 33.13,31.11 L 33.07,31.22 C 32.49,32.29 31.68,33.77 30.45,33.92 C 29.86,33.98 29.27,34 28.68,34 H 18.08 C 18.03,34 18,33.96 18.02,33.92 C 19.29,31.5 20.57,29.1 21.87,26.69 L 22,26.45 C 23.57,23.52 24.37,22.03 27.5,22 Z M 43.7,23.08 A 5,5 0 0,0 44.31,20.64 C 44.31,20.47 44.38,20.44 44.51,20.54 C 47.31,22.74 45.56,25.51 44.13,27.76 L 44.03,27.9 C 44,27.96 43.95,28 43.89,28 H 41.13 L 41.08,27.98 H 41.07 A 0.12,0.12 0 0,1 41.02,27.93 A 0.13,0.13 0 0,1 41.02,27.8 A 128.9,128.9 0 0,0 43.71,23.08 Z M 32.88,41.5 C 36.91,40.36 38.56,37.69 40.58,34.31 A 0.2,0.2 0 0,0 40.42,34.01 H 37.8 A 0.2,0.2 0 0,0 37.61,34.12 C 35.17,38.25 33.05,38.96 28.24,39.01 H 17.22 A 7.43,7.43 0 0,1 12.84,37.87 L 12.81,37.88 A 0.05,0.05 0 0,0 12.79,37.94 A 5.29,5.29 0 0,0 16.24,41.76 C 17.38,42.01 20.49,42.01 20.49,42.01 H 29.14 C 30.78,41.97 32.02,41.74 32.87,41.5 Z" fill="rgb(254, 254, 253)"/>
</svg>
