<?xml version="1.0" encoding="UTF-8"?>
<!-- generated by Finnhub -->
<svg viewBox="0 0 55.5 55.5" xmlns="http://www.w3.org/2000/svg">
<path d="M 0,0 H 55.5 V 55.5 H 0 Z" fill="rgb(1, 103, 164)"/>
<path d="M 33.092,19.368 C 25.49,16.715 16.53,16.815 13,17.198 C 13.232,17.711 14.932,18.453 15.753,18.759 C 26.216,24.024 27.931,27.381 29.546,30.312 C 30.837,32.657 30.336,34.294 29.924,34.82 A 1670.91,1670.91 0 0,1 26.069,41.6 C 25.836,41.995 25.972,42.02 26.069,41.984 C 31.542,36.692 40.304,32.494 44,31.058 C 43.656,30.983 43.608,30.95 43.627,30.943 C 42.761,30.42 41.814,30.725 41.449,30.943 C 40.241,31.243 38.591,30.818 37.917,30.567 C 34.425,29.101 34.341,24.673 34.51,22.316 C 34.645,20.43 33.628,19.575 33.102,19.383 Z" fill="rgb(254, 254, 253)"/>
<path d="M 20.319999999999997,23.79 L 12.344,23.64 C 11.847,23.64 11.996,23.871 12.132,23.987 C 12.608,24.193 13.623,24.488 14.072,24.61 C 17.942,25.577 25.637,29.274 29,31.002 C 27.49,28.775 24.87,26.374 23.748,25.452 C 22.12,24.114 21.156,23.804 20.33,23.804 Z" fill="rgb(254, 254, 253)"/>
</svg>
