<?xml version="1.0" encoding="UTF-8"?>
<!-- generated by Finnhub -->
<svg viewBox="0 0 55.5 55.5" xmlns="http://www.w3.org/2000/svg">
<path d="M 0,0 H 55.5 V 55.5 H 0 Z" fill="rgb(239, 242, 248)"/>
<path d="M 27.919999999999998,12.045 L 42.7,19.54 C 42.86,19.62 43,19.84 43,20 C 42.94,25.31 43,30.53 43,35.83 C 43,36.2 42.77,36.51 42.29,36.75 L 27.87,43.95 A 0.46,0.46 0 0,1 27.43,43.95 L 13.27,36.48 A 0.33,0.33 0 0,1 13.07,36.18 L 13,20.24 A 0.94,0.94 0 0,1 13.5,19.4 L 27.39,12.07 A 0.59,0.59 0 0,1 27.93,12.07 Z" fill="rgb(20, 58, 34)"/>
<path d="M 21.31,21.765 L 27.55,13.56 A 0.15,0.15 0 0,1 27.79,13.56 L 34,21.78 A 0.14,0.14 0 0,1 33.96,21.98 A 0.15,0.15 0 0,1 33.88,22 H 21.44 C 21.41,22 21.39,22 21.36,21.98 A 0.14,0.14 0 0,1 21.31,21.92 A 0.13,0.13 0 0,1 21.32,21.78 Z" fill="rgb(247, 166, 65)"/>
<path d="M 40.77,20.035 L 35.53,22.15 A 0.16,0.16 0 0,1 35.34,22.1 L 30,14.67 A 0.15,0.15 0 0,1 30.01,14.47 A 0.16,0.16 0 0,1 30.21,14.44 L 40.79,19.77 A 0.15,0.15 0 0,1 40.89,19.91 A 0.15,0.15 0 0,1 40.79,20.05 Z" fill="rgb(81, 71, 245)"/>
<path d="M 15.07,19.814999999999998 L 25.33,14.41 A 0.16,0.16 0 0,1 25.53,14.44 A 0.15,0.15 0 0,1 25.53,14.63 L 19.97,22.13 A 0.15,0.15 0 0,1 19.78,22.18 L 15.08,20.1 A 0.15,0.15 0 0,1 15,19.97 A 0.15,0.15 0 0,1 15.08,19.83 Z" fill="rgb(236, 94, 50)"/>
<path d="M 36.09,22.895 L 41.78,20.66 A 0.17,0.17 0 0,1 41.93,20.66 L 41.98,20.72 L 42,20.8 V 33.38 C 42,33.41 41.99,33.45 41.96,33.48 A 0.17,0.17 0 0,1 41.76,33.52 A 0.16,0.16 0 0,1 41.7,33.45 L 36.02,23.13 A 0.15,0.15 0 0,1 36.04,22.95 A 0.16,0.16 0 0,1 36.1,22.91 Z M 19.92,23.09 L 19.96,23.12 C 19.98,23.13 19.99,23.14 19.99,23.16 L 20,23.21 L 19.99,23.26 L 14.09,33.78 C 14.02,33.91 13.99,33.91 14,33.76 V 21.13 C 13.99,20.95 14.34,20.87 14.49,20.93 L 19.92,23.09 Z" fill="rgb(247, 166, 65)"/>
<path d="M 27.52,36.415 L 21.06,23.24 A 0.17,0.17 0 0,1 21.07,23.08 A 0.17,0.17 0 0,1 21.21,23 H 34.25 A 0.16,0.16 0 0,1 34.39,23.08 A 0.17,0.17 0 0,1 34.39,23.24 L 27.82,36.43 A 0.17,0.17 0 0,1 27.68,36.53 A 0.16,0.16 0 0,1 27.53,36.43 Z" fill="rgb(236, 94, 50)"/>
<path d="M 35.47,24.215 L 41.5,35.3 A 0.15,0.15 0 0,1 41.46,35.5 A 0.16,0.16 0 0,1 41.39,35.52 L 28.7,37.17 A 0.16,0.16 0 0,1 28.55,37.11 A 0.15,0.15 0 0,1 28.55,36.95 L 35.21,24.23 A 0.16,0.16 0 0,1 35.49,24.23 Z" fill="rgb(54, 124, 49)"/>
<path d="M 14.57,35.365 L 19.91,24.44 A 0.15,0.15 0 0,1 20.05,24.36 A 0.15,0.15 0 0,1 20.18,24.44 L 26.58,36.74 A 0.15,0.15 0 0,1 26.52,36.94 A 0.16,0.16 0 0,1 26.44,36.96 L 14.7,35.59 A 0.15,0.15 0 0,1 14.58,35.51 A 0.15,0.15 0 0,1 14.58,35.38 Z" fill="rgb(81, 71, 245)"/>
<path d="M 16.479999999999997,36.815 L 26.83,38.25 C 26.95,38.27 27,38.33 27,38.45 V 42.33 C 27,42.43 26.95,42.51 26.85,42.46 L 16.45,36.96 C 16.25,36.84 16.25,36.8 16.49,36.83 Z" fill="rgb(54, 124, 49)"/>
<path d="M 27.99,42.345 V 38.3 C 28,38.26 28.01,38.22 28.04,38.2 A 0.16,0.16 0 0,1 28.14,38.14 L 38.45,36.99 C 38.49,36.99 38.53,36.99 38.56,37.02 C 38.59,37.04 38.62,37.07 38.63,37.1 V 37.21 A 0.16,0.16 0 0,1 38.55,37.29 L 28.24,42.49 A 0.16,0.16 0 0,1 28.02,42.43 A 0.16,0.16 0 0,1 28,42.36 Z" fill="rgb(236, 94, 50)"/>
</svg>
