<?xml version="1.0" encoding="UTF-8"?>
<!-- generated by Finnhub -->
<svg viewBox="0 0 55.5 55.5" xmlns="http://www.w3.org/2000/svg">
<path d="M 0,0 H 55.5 V 55.5 H 0 Z" fill="rgb(239, 242, 248)"/>
<path d="M 51.9,17.974999999999998 C 51.15,19.27 48.35,21.16 47.05,21.94 C 46.75,21.64 45.95,21.34 45.31,21.34 C 44.67,21.34 44.38,21.67 44.26,21.88 A 1.5,1.5 0 0,1 43.28,22.61 L 40.98,22.94 V 23.04 L 42.96,22.91 C 43.45,22.91 43.63,22.94 43.77,23.03 C 44.03,23.24 44.21,23.48 44.55,23.52 C 45.02,23.61 45.19,23.88 45.36,24.3 C 46.21,26.72 47.8,26.96 47.92,26.99 C 48.7,25.93 48.41,24.15 48.41,23.97 C 49.63,23.57 49.86,22.46 49.89,22.34 C 50.47,22 50.38,21.58 50.38,21.49 C 51.13,21.19 51.02,20.59 51.02,20.53 C 51.55,20.23 51.64,19.63 51.62,19.38 H 51.36 C 52.2,18.62 51.97,18.11 51.91,17.98 Z" fill="rgb(128, 189, 37)"/>
<path d="M 47.89,27.485 A 4.75,4.75 0 0,1 45.8,26.27 C 45.65,27.12 45.05,27.55 44.99,27.6 C 45.41,27.76 45.79,27.5 45.86,27.48 C 45.76,27.83 45.92,28.07 45.95,28.09 C 46.15,28.09 46.52,27.83 46.55,27.81 C 46.52,28.3 46.73,28.45 46.75,28.45 C 47.03,28.42 47.27,28.12 47.3,28.09 C 47.3,28.6 47.54,28.73 47.63,28.81 C 47.87,28.65 48.02,28.45 48.08,28.3 C 48.14,28.76 48.53,28.99 48.62,28.99 C 49.34,27.19 48.82,26.45 48.62,25.99 A 4.11,4.11 0 0,1 47.9,27.5 Z M 46.94,20.99 A 4.74,4.74 0 0,0 45.99,20.69 C 46.23,19.76 46.3,19.16 46.3,18.99 C 46.88,19.27 46.67,19.99 46.62,20.15 C 47.15,20.18 46.96,20.9 46.94,20.99 Z" fill="rgb(128, 189, 37)"/>
<path d="M 11.98,24.875 A 4.28,4.28 0 0,0 9.36,23.99 A 4.44,4.44 0 0,0 5,28.49 C 5,30.97 6.96,32.99 9.37,32.99 C 10.36,32.99 11.27,32.65 12,32.09 V 30.94 A 3.49,3.49 0 0,1 6,28.49 A 3.5,3.5 0 0,1 12,26.04 V 24.89 Z M 11.99,32.99 L 14.99,25.99 L 17.99,32.99 H 16.99 L 16.09,30.99 H 13.88 L 12.98,32.99 H 11.98 Z M 14.32,29.99 H 15.65 L 14.99,28.49 L 14.32,29.99 Z" fill="rgb(26, 31, 77)"/>
<path d="M 19.209999999999997,25.974999999999998 L 17.99,32.99 H 18.99 L 19.53,28.99 L 21.52,32.99 L 23.46,28.99 L 23.99,32.99 H 24.99 L 23.81,25.99 L 21.51,30.99 L 19.22,25.99 Z" fill="rgb(26, 31, 77)"/>
<path d="M 27.639999999999997,25.974999999999998 H 26 V 32.99 H 27.66 A 3.42,3.42 0 0,0 31,29.49 C 31,27.56 29.5,25.99 27.66,25.99 Z M 27.83,26.99 H 27 V 31.99 H 27.84 C 28.96,31.99 30,30.87 30,29.49 S 28.96,26.99 27.84,26.99 Z" fill="rgb(26, 31, 77)" fill-rule="evenodd"/>
<path d="M 36.99,27.485 V 33 H 38 V 28.42 L 43,33 V 26 H 42 V 30.58 L 37,26 V 27.5 Z M 32.99,25.99 H 31.99 V 32.99 H 35.99 V 31.99 H 32.99 V 30 H 36 V 29 H 32.99 V 26.99 H 35.99 V 25.99 H 32.99 Z" fill="rgb(26, 31, 77)"/>
</svg>
