<?xml version="1.0" encoding="UTF-8"?>
<!-- generated by Finnhub -->
<svg viewBox="0 0 55.5 55.5" xmlns="http://www.w3.org/2000/svg">
<path d="M 0,0 H 55.5 V 55.5 H 0 Z" fill="rgb(239, 242, 248)"/>
<path d="M 8.75,21.985 C 9.48,22 10.19,22.17 10.61,22.76 L 11.37,22.19 A 3.17,3.17 0 0,0 8.76,21 C 6.56,20.97 4.98,22.9 5,25 C 4.98,27.12 6.57,29.02 8.76,29 A 3.35,3.35 0 0,0 11.56,27.66 L 10.9,27.09 C 10.4,27.76 9.6,28.02 8.76,28 C 7.05,28.02 5.99,26.6 6,25 C 6,23.43 7.09,21.98 8.76,22 Z M 16.89,21 H 16.07 L 12.81,29 H 13.8 L 14.64,27 H 18.13 L 19.01,29 H 20.03 L 16.89,21 Z M 16.44,22.22 H 16.46 L 17.7,26 H 15.06 L 16.44,22.22 Z M 22,21 H 24.3 C 25.66,21 27.05,21.63 27,23.19 C 27.05,24.65 25.79,25.49 24.47,25.5 H 23 V 29 H 22 V 21 Z M 23,24.5 H 24.47 C 25.3,24.54 26.02,24.07 26.02,23.2 C 26.02,22.34 25.3,21.96 24.47,22 H 23 V 24.5 Z M 30,21 H 29 V 29 H 30 V 21 Z M 38.46,22 H 36 V 29 H 35 V 22 H 32.46 V 21 H 38.46 V 22 Z M 42.19,21 H 41.09 L 38,29 H 38.99 L 39.81,27 H 43.45 L 44.2,29 H 45.22 L 42.19,21 Z M 41.63,22.22 H 41.66 L 43.1,26 H 40.14 L 41.62,22.22 Z M 47,21 H 48 V 28 H 51 V 29 H 47 V 21 Z M 10,33 H 10.74 A 1.98,1.98 0 0,1 11.53,33.13 C 11.64,33.2 11.73,33.28 11.8,33.39 C 11.87,33.52 11.91,33.67 11.9,33.83 A 0.75,0.75 0 0,1 11.7,34.36 A 0.91,0.91 0 0,1 11.18,34.62 L 12,36 H 11.58 L 10.78,34.65 H 10.34 V 36 H 10 V 33 Z M 10.34,34.32 H 10.95 A 1,1 0 0,0 11.23,34.26 A 0.5,0.5 0 0,0 11.45,34.11 C 11.51,34.03 11.55,33.93 11.54,33.83 C 11.54,33.73 11.52,33.65 11.47,33.57 A 0.42,0.42 0 0,0 11.31,33.42 A 0.68,0.68 0 0,0 11.09,33.35 A 1.9,1.9 0 0,0 10.84,33.33 H 10.34 V 34.33 Z M 5,33 H 5.92 C 6.06,33 6.19,33.01 6.32,33.04 C 6.45,33.06 6.57,33.11 6.67,33.17 C 6.77,33.24 6.85,33.33 6.91,33.43 A 0.9,0.9 0 0,1 6.91,34.23 A 0.74,0.74 0 0,1 6.66,34.48 C 6.56,34.55 6.44,34.59 6.33,34.62 C 6.21,34.64 6.1,34.65 5.98,34.65 H 5.38 V 36 H 5 V 33 Z M 5.37,34.32 H 5.99 C 6.15,34.32 6.31,34.28 6.44,34.2 A 0.5,0.5 0 0,0 6.61,33.83 A 0.49,0.49 0 0,0 6.44,33.45 A 0.77,0.77 0 0,0 5.99,33.33 H 5.37 V 34.32 Z M 15.9,35.89 A 1.76,1.76 0 0,0 17.1,35.9 A 1.44,1.44 0 0,0 17.89,35.1 C 18.04,34.72 18.04,34.29 17.89,33.9 A 1.4,1.4 0 0,0 17.1,33.11 A 1.66,1.66 0 0,0 15.9,33.11 A 1.45,1.45 0 0,0 15.11,33.91 C 14.96,34.29 14.96,34.71 15.11,35.11 A 1.4,1.4 0 0,0 15.9,35.89 Z M 16.96,35.59 A 1.12,1.12 0 0,1 15.68,35.34 C 15.58,35.23 15.5,35.1 15.45,34.96 C 15.34,34.66 15.34,34.34 15.45,34.04 A 1.08,1.08 0 0,1 16.5,33.32 A 1.08,1.08 0 0,1 17.55,34.04 C 17.66,34.34 17.66,34.66 17.55,34.96 A 1.08,1.08 0 0,1 16.95,35.59 Z M 21,33 H 21.91 A 2,2 0 0,1 22.32,33.04 A 1,1 0 0,1 22.66,33.17 C 22.76,33.24 22.84,33.33 22.9,33.43 A 0.9,0.9 0 0,1 22.9,34.23 A 0.74,0.74 0 0,1 22.65,34.48 C 22.55,34.55 22.43,34.59 22.32,34.62 C 22.21,34.64 22.09,34.65 21.98,34.65 H 21.36 V 36 H 21 V 33 Z M 21.37,34.32 H 21.98 C 22.14,34.32 22.3,34.28 22.43,34.2 A 0.5,0.5 0 0,0 22.6,33.83 A 0.49,0.49 0 0,0 22.43,33.45 A 0.76,0.76 0 0,0 21.98,33.33 H 21.37 V 34.32 Z M 27.93,33 H 26 V 36 H 28 V 35.67 H 26.36 V 34.6 H 27.82 V 34.27 H 26.36 V 33.33 H 27.93 V 33 Z M 31,33 H 31.74 A 1.98,1.98 0 0,1 32.53,33.13 C 32.64,33.2 32.73,33.28 32.8,33.39 C 32.88,33.52 32.91,33.67 32.9,33.83 A 0.75,0.75 0 0,1 32.71,34.36 A 0.91,0.91 0 0,1 32.18,34.62 L 33,36 H 32.58 L 31.78,34.65 H 31.34 V 36 H 31 V 33 Z M 31.35,34.32 H 31.95 A 1,1 0 0,0 32.24,34.26 A 0.5,0.5 0 0,0 32.44,34.11 C 32.51,34.03 32.54,33.93 32.54,33.82 A 0.48,0.48 0 0,0 32.47,33.57 A 0.42,0.42 0 0,0 32.31,33.42 A 0.68,0.68 0 0,0 32.09,33.35 A 1.88,1.88 0 0,0 31.83,33.33 H 31.35 V 34.32 Z M 37,33.33 H 37.97 V 33 H 35.7 V 33.33 H 36.66 V 36 H 37 V 33.33 Z M 40.7,33 H 41 V 36 H 40.7 V 33 Z M 45.82,33 H 44 V 36 H 45.9 V 35.67 H 44.34 V 34.6 H 45.72 V 34.27 H 44.34 V 33.33 H 45.82 V 33 Z M 50.65,33.58 A 0.52,0.52 0 0,0 50.41,33.38 A 0.8,0.8 0 0,0 50.1,33.32 A 0.98,0.98 0 0,0 49.86,33.34 A 0.72,0.72 0 0,0 49.66,33.43 A 0.41,0.41 0 0,0 49.46,33.8 A 0.36,0.36 0 0,0 49.6,34.1 A 0.6,0.6 0 0,0 49.79,34.21 L 50.09,34.32 L 50.43,34.43 L 50.73,34.58 C 50.81,34.65 50.88,34.72 50.93,34.82 A 0.83,0.83 0 0,1 50.91,35.53 A 0.8,0.8 0 0,1 50.67,35.79 A 0.82,0.82 0 0,1 50.33,35.95 A 1.56,1.56 0 0,1 49.42,35.91 A 1.05,1.05 0 0,1 49.18,35.79 A 0.75,0.75 0 0,1 49,35.6 L 49.3,35.37 C 49.37,35.47 49.47,35.55 49.58,35.6 A 0.88,0.88 0 0,0 50.4,35.56 C 50.46,35.52 50.51,35.46 50.55,35.4 A 0.38,0.38 0 0,0 50.61,35.18 A 0.43,0.43 0 0,0 50.57,34.97 A 0.41,0.41 0 0,0 50.42,34.83 A 1.16,1.16 0 0,0 50.17,34.73 L 49.82,34.61 A 2.3,2.3 0 0,1 49.52,34.51 A 0.93,0.93 0 0,1 49.28,34.35 A 0.66,0.66 0 0,1 49.07,33.83 A 0.7,0.7 0 0,1 49.14,33.48 C 49.19,33.38 49.27,33.28 49.37,33.21 S 49.59,33.09 49.7,33.05 C 49.98,32.98 50.28,32.98 50.56,33.07 C 50.71,33.13 50.84,33.22 50.94,33.33 L 50.64,33.58 Z"/>
</svg>
