<?xml version="1.0" encoding="UTF-8"?>
<!-- generated by Finnhub -->
<svg viewBox="0 0 55.5 55.5" xmlns="http://www.w3.org/2000/svg">
<path d="M 0,0 H 55.5 V 55.5 H 0 Z" fill="rgb(238, 71, 60)"/>
<path d="M 10.015,26.364 C 9.74,25.557 9.123,25 8.15,25 C 6.834,25 6,25.722 6,28 C 5.971,30.278 6.662,31 8.15,31 C 9.038,31 9.581,30.743 10.168,29.598 L 12,30.453 C 11.385,32.138 10.04,33 8.15,33 C 5.517,33 4,31.18 4,28 C 4,24.82 5.517,23 8.15,23 C 10.125,23 11.27,23.835 11.757,25.56 L 10.025,26.379 Z M 18,27 H 16.005 V 25 H 18 S 19,25.058 19,26 S 18,27 18,27 Z M 19.677,28.54 C 20.601,27.949 20.993,27.14 20.993,26.07 C 20.993,25 20.713,23 18.226,23 H 14 V 33 L 16.005,33.032 V 29 H 17.787 L 19.765,33 H 22.006 L 19.676,28.54 Z M 26.005,29 L 27.555,24.486 H 27.587 L 29.005,29 H 26.005 Z M 29.005,23 H 26.005 L 23.005,33 H 25.009 L 25.667,31 H 29.387 L 30.006,33 H 32.005 L 29.005,23 Z M 34.001,33 V 23 H 36.003 L 39.971,29 H 40 V 23 H 42.001 V 33 H 40 L 36.029,27 H 36 V 33 H 34.001 Z M 45,33 V 23 H 51.997 V 25 H 47.004 V 26.989 H 51 V 29 H 47.004 V 31 H 52 V 33 H 45 Z" fill="rgb(245, 247, 251)"/>
</svg>
