<?xml version="1.0" encoding="UTF-8"?>
<!-- generated by Finnhub -->
<svg viewBox="0 0 55.5 55.5" xmlns="http://www.w3.org/2000/svg">
<path d="M 0,0 H 55.5 V 55.5 H 0 Z" fill="rgb(239, 242, 248)"/>
<path d="M 34.29,27.085 L 32.13,20.8 L 29.29,27.66 C 28.33,29.51 25.19,30.04 23,30.34 L 23.4,29.56 L 29.75,17 H 34.7 L 38.24,25 L 39.8,28.33 L 43,35 H 40.8 L 39.07,34.99 C 38.35,34.99 37.64,34.95 37.34,34.21 L 36.73,32.79 L 35.71,30.38 L 34.3,27.11 Z M 43,37 H 11 V 40 H 43 V 37 Z" fill="rgb(1, 110, 76)"/>
<path d="M 45.99,15.985 L 37.27,20.5 C 37.57,21.44 38.35,23.02 39.58,22.4 L 46,18.87 V 16 Z" fill="rgb(236, 27, 34)"/>
<path d="M 37.81,25.035 L 33.92,27.2 C 29.03,29.86 22.66,32.44 17.15,31.98 C 14.83,31.78 13.42,30.91 13.55,29.43 C 13.71,27.74 15.18,25.4 17.75,23.63 A 20.19,20.19 0 0,1 22.35,21.21 A 8.95,8.95 0 0,1 26.32,20.63 C 25.82,17.48 24.99,16.96 23.68,17 C 20.03,17.12 15.45,19.63 13.02,22.54 A 8.93,8.93 0 0,0 11,28.5 A 6.58,6.58 0 0,0 14.3,34.13 C 17.08,35.71 21.06,35.61 24.68,34.79 C 28.58,33.92 31.97,32.24 35.31,30.55 L 39.36,28.45 L 46,24.55 V 20.56 L 37.82,25.05 Z" fill="rgb(1, 148, 150)"/>
</svg>
