<?xml version="1.0" encoding="UTF-8"?>
<!-- generated by Finnhub -->
<svg viewBox="0 0 55.5 55.5" xmlns="http://www.w3.org/2000/svg">
<path d="M 0,0 H 55.5 V 55.5 H 0 Z" fill="rgb(1, 105, 172)"/>
<path d="M 28.59,20.785 C 27.88,20.92 27.5,21.05 27,21.34 C 26.18,21.82 25.9,21.96 25.49,22.1 C 24.82,22.32 24.18,22.7 23.66,23.17 L 23.46,23.36 L 23.24,23.21 C 22.85,22.96 22.7,23.01 22.31,23.58 C 22.17,23.79 22.1,23.85 21.97,23.85 A 0.41,0.41 0 0,1 21.7,23.73 A 1.17,1.17 0 0,0 21.42,23.53 C 21.26,23.44 21.25,23.45 21.04,23.68 C 20.81,23.94 20.72,24.28 20.82,24.53 C 20.87,24.67 20.85,24.71 20.59,25 C 20.15,25.5 19.99,25.84 19.99,26.38 C 19.99,26.8 19.98,26.85 19.79,27.11 C 19.69,27.26 19.38,27.61 19.1,27.89 C 18.83,28.17 18.6,28.43 18.6,28.48 C 18.6,28.63 19.03,29.02 19.3,29.11 C 19.53,29.19 19.62,29.19 19.84,29.14 C 20.1,29.07 20.5,28.84 20.65,28.67 C 20.81,28.48 20.8,28.6 20.64,29.04 L 20.44,29.52 C 20.44,29.53 20.36,29.52 20.28,29.48 C 20.14,29.42 20.14,29.42 20.14,29.68 C 20.14,29.98 20.16,30 20.76,30.14 C 21.11,30.22 21.3,30.18 21.52,29.99 C 21.84,29.73 22.2,29.74 22.63,30.02 C 23.02,30.27 23.15,30.25 23.58,29.87 C 24.03,29.47 24.74,29 25.52,28.6 C 26.23,28.23 26.37,28.23 26.4,28.55 A 5.6,5.6 0 0,1 25.27,31.55 C 24.96,31.88 24.77,32.13 24.51,32.62 C 24.19,33.21 23.95,33.37 23.41,33.39 C 23.11,33.39 22.93,33.44 22.61,33.58 C 21.81,33.94 21.71,34.01 21.69,34.17 C 21.68,34.27 21.69,34.31 21.74,34.28 C 21.79,34.25 21.79,34.28 21.76,34.37 C 21.73,34.47 21.74,34.49 21.83,34.45 C 22.07,34.35 22.13,34.35 22.13,34.45 C 22.13,34.52 22.17,34.54 22.3,34.51 C 22.42,34.48 22.52,34.51 22.66,34.61 C 22.86,34.74 23.35,34.84 23.46,34.78 C 23.49,34.76 23.86,34.72 24.3,34.7 C 25.19,34.66 25.07,34.7 26.08,33.96 C 26.45,33.69 27.14,33.22 27.62,32.91 C 28.1,32.59 28.65,32.18 28.86,31.98 C 29.28,31.58 29.72,30.94 29.94,30.45 C 30.02,30.28 30.1,30.14 30.12,30.14 A 8.19,8.19 0 0,0 31.71,32.04 C 32.36,32.62 32.33,32.73 31.43,33.02 C 30.72,33.25 30.39,33.44 30.39,33.62 C 30.39,33.76 30.44,33.78 30.76,33.76 C 30.91,33.75 30.92,33.76 30.85,33.84 S 30.79,33.93 30.97,33.89 C 31.1,33.87 31.19,33.88 31.22,33.92 C 31.27,34 31.68,33.99 32.23,33.9 L 33.07,33.76 C 33.32,33.72 33.47,33.66 33.56,33.58 C 33.63,33.51 33.84,33.14 34.04,32.78 L 34.39,32.1 L 34.29,31.74 L 34.12,31.06 A 7.08,7.08 0 0,0 33.9,30.32 A 4.39,4.39 0 0,1 33.75,29.89 C 33.75,29.82 34.79,29.92 35,30 C 35.25,30.1 35.75,30.1 35.9,30 C 36.06,29.87 36.08,29.9 36.02,30.2 C 35.96,30.53 36,31.85 36.09,32.48 C 36.19,33.14 35.97,33.34 35.1,33.42 C 34.8,33.45 34.54,33.51 34.37,33.59 C 34.13,33.71 34.1,33.74 34.13,33.87 C 34.17,34.03 34.3,34.14 34.45,34.14 C 34.53,34.14 34.55,34.17 34.53,34.23 C 34.51,34.27 34.53,34.31 34.55,34.31 C 34.59,34.31 34.69,34.37 34.78,34.43 C 34.93,34.54 34.98,34.55 35.42,34.51 L 36.69,34.43 C 37.13,34.41 37.54,34.36 37.61,34.32 A 0.76,0.76 0 0,0 37.85,34.05 C 38.03,33.7 38.83,32.75 39.31,32.31 C 39.81,31.86 41.01,30.91 41.11,30.91 C 41.13,30.91 41.16,30.96 41.16,31.01 C 41.16,31.07 41.26,31.31 41.38,31.56 C 41.53,31.88 41.68,32.08 41.89,32.26 C 42.22,32.56 42.25,32.56 43.29,32.79 C 43.75,32.89 44.03,32.97 44.05,33.02 C 44.07,33.07 44.04,33.17 43.99,33.24 C 43.92,33.36 43.83,33.4 43.49,33.45 C 43,33.54 42.41,33.8 42.41,33.94 C 42.41,33.99 42.44,34.04 42.47,34.04 S 42.52,34.07 42.52,34.12 C 42.52,34.16 42.57,34.2 42.64,34.2 C 42.7,34.2 42.75,34.22 42.75,34.25 C 42.75,34.28 42.8,34.31 42.85,34.33 L 43.09,34.45 C 43.21,34.52 43.38,34.53 44.06,34.5 C 44.52,34.48 44.94,34.44 45,34.4 C 45.06,34.38 45.27,34.23 45.46,34.08 C 46.07,33.6 46.02,33.7 45.98,33.08 C 45.94,32.44 45.81,32.09 45.58,31.94 A 0.92,0.92 0 0,1 45.32,31.64 C 45.08,31.18 45.02,30.82 44.97,29.39 A 6.5,6.5 0 0,0 44.55,26.71 L 44.4,26.33 L 44.52,26.1 C 44.58,25.98 44.63,25.84 44.63,25.8 A 7.43,7.43 0 0,0 40.73,21.75 A 5.17,5.17 0 0,0 37.88,21.21 C 36.78,21.21 36.6,21.22 35.6,21.39 C 34.65,21.56 34.45,21.57 33.92,21.54 A 4.57,4.57 0 0,1 32.19,21.23 C 31.49,20.92 30.81,20.78 29.88,20.76 C 29.36,20.74 28.88,20.76 28.6,20.81 Z" fill="rgb(254, 254, 253)"/>
<path d="M 10.69,16.165 C 10.6,16.42 10.61,16.51 10.74,16.78 C 10.89,17.1 10.89,17.53 10.75,18 C 10.69,18.2 10.63,18.5 10.6,18.64 A 3,3 0 0,1 10.28,19.43 C 9.86,20.19 9.89,20.46 10.51,21.18 C 10.71,21.41 10.91,21.71 10.97,21.89 C 11.1,22.21 11.1,22.27 10.99,23 C 10.97,23.16 10.99,23.37 11.06,23.58 C 11.11,23.78 11.14,23.99 11.12,24.11 C 11.08,24.27 11.12,24.34 11.35,24.64 C 11.5,24.84 11.76,25.14 11.95,25.32 C 12.4,25.8 12.53,26.06 12.5,26.48 C 12.47,26.78 12.48,26.8 12.61,26.84 C 12.69,26.85 12.8,26.92 12.86,26.97 C 13.01,27.12 13.42,27.31 13.51,27.27 C 13.57,27.26 13.58,27.18 13.56,27.01 C 13.53,26.81 13.54,26.75 13.64,26.67 C 13.75,26.57 13.77,26.57 13.9,26.65 C 14.02,26.73 14.04,26.77 14,26.85 A 0.33,0.33 0 0,1 13.85,26.98 C 13.74,27.03 13.74,27.15 13.85,27.24 C 13.96,27.34 14.3,28.19 14.24,28.24 C 14.17,28.32 13.83,28.11 13.76,27.95 L 13.68,27.67 C 13.66,27.59 13.62,27.52 13.6,27.52 C 13.51,27.52 13.46,28.16 13.53,28.39 C 13.56,28.51 13.59,28.7 13.59,28.82 C 13.59,29.08 13.66,29.22 13.92,29.48 C 14.06,29.62 14.22,29.72 14.42,29.78 C 14.77,29.88 14.9,30.02 14.9,30.3 C 14.9,30.44 14.85,30.53 14.7,30.68 C 14.5,30.86 14.5,30.88 14.53,31.17 C 14.57,31.47 14.62,31.56 15.08,32.11 C 15.22,32.28 15.46,32.63 15.62,32.88 C 15.94,33.42 16.33,33.84 16.6,33.95 C 16.79,34.03 16.79,34.04 16.77,34.35 C 16.75,34.65 16.76,34.66 16.92,34.72 C 17.25,34.82 17.27,34.86 17.26,35.57 L 17.27,36.33 C 17.33,36.53 17.69,36.67 18.4,36.77 C 18.78,36.82 19.21,36.87 19.36,36.87 C 19.75,36.87 19.98,37 20.26,37.36 C 20.58,37.76 21.03,37.99 21.57,37.99 C 21.9,37.99 21.97,38 22.1,38.13 C 22.19,38.23 22.26,38.36 22.28,38.53 C 22.33,38.83 22.51,38.93 22.74,38.8 C 22.86,38.72 22.89,38.73 23.6,39.29 C 24,39.61 24.42,39.96 24.52,40.09 C 24.75,40.36 24.9,40.76 24.96,41.24 C 24.98,41.45 25.05,41.7 25.11,41.81 L 25.23,42 L 25.57,41.97 L 27.55,41.8 C 29.75,41.6 31.22,41.46 31.29,41.41 C 31.38,41.36 31.49,40.97 31.44,40.86 C 31.42,40.81 31.3,40.74 31.17,40.7 L 30.93,40.63 L 30.92,40.16 C 30.9,39.73 30.92,39.68 31.07,39.44 C 31.21,39.21 31.24,39.12 31.26,38.68 C 31.29,38.08 31.38,37.9 31.77,37.62 C 32.11,37.39 32.13,37.23 31.85,37.06 A 1.46,1.46 0 0,1 31.45,36.53 A 5.7,5.7 0 0,0 30.96,35.73 C 30.96,35.37 30.69,35.09 28.48,33.13 L 28.12,32.8 L 27.79,32.98 C 27.61,33.08 27.05,33.46 26.53,33.83 L 25.4,34.64 C 25.23,34.76 25.1,34.79 24.42,34.84 C 23.18,34.93 22.88,34.91 22.62,34.77 C 22.38,34.63 22.27,34.61 22.23,34.72 C 22.22,34.77 22.17,34.75 22.08,34.68 C 21.96,34.58 21.95,34.58 21.79,34.67 C 21.67,34.73 21.62,34.74 21.62,34.69 C 21.62,34.66 21.58,34.59 21.53,34.53 C 21.47,34.46 21.46,34.38 21.49,34.21 C 21.53,33.92 21.64,33.84 22.43,33.5 C 22.92,33.28 23.08,33.24 23.4,33.23 C 23.9,33.22 24.08,33.08 24.38,32.51 C 24.5,32.27 24.76,31.91 24.98,31.68 C 25.18,31.46 25.43,31.12 25.52,30.93 L 25.69,30.58 L 25.55,30.44 L 24.92,29.86 L 24.43,29.42 L 24.14,29.61 C 23.98,29.71 23.74,29.91 23.59,30.05 C 23.2,30.43 22.96,30.45 22.51,30.14 C 22.17,29.9 21.89,29.9 21.63,30.11 C 21.33,30.35 21.17,30.38 20.67,30.27 C 20.08,30.14 19.97,30.03 20,29.62 L 20.02,29.32 H 19.7 C 19.25,29.32 18.95,29.19 18.67,28.85 A 1.12,1.12 0 0,1 18.43,28.47 C 18.43,28.42 18.63,28.17 18.86,27.93 L 19.56,27.16 C 19.82,26.84 19.83,26.83 19.83,26.41 C 19.83,26.14 19.88,25.89 19.96,25.71 L 20.07,25.41 L 19.59,24.96 L 19.12,24.52 V 24.14 A 1703.71,1703.71 0 0,0 19.4,16.57 C 19.4,16.54 19.27,16.5 19.1,16.47 C 18.82,16.45 11.13,16 10.88,16 C 10.79,16 10.74,16.05 10.69,16.18 Z" fill="rgb(199, 222, 231)"/>
</svg>
