<?xml version="1.0" encoding="UTF-8"?>
<!-- generated by Finnhub -->
<svg viewBox="0 0 55.5 55.5" xmlns="http://www.w3.org/2000/svg">
<path d="M 0,0 H 55.5 V 55.5 H 0 Z" fill="url(#b)"/>
<path d="M 15.24,22.985 L 12.25,35 H 15.71 L 18.71,23 H 15.25 Z" fill="rgb(53, 245, 253)"/>
<path d="M 40.79,20.985 A 7.03,7.03 0 0,0 35.63,23.28 L 37.19,25.84 A 4.47,4.47 0 0,1 40.8,24 A 4,4 0 0,1 44.35,26.16 L 47,24.77 A 6.98,6.98 0 0,0 40.8,21.01" fill="rgb(1, 239, 176)"/>
<path d="M 9.73,20.985 L 9,24 H 28 V 21 H 9.74 Z" fill="rgb(53, 245, 253)"/>
<path d="M 31.49,26.134999999999998 L 34.14,24.77 A 6.98,6.98 0 0,0 26.75,21.11 A 6.95,6.95 0 0,0 21.06,27.08 A 7.03,7.03 0 0,0 25.01,34.34 A 6.93,6.93 0 0,0 33.09,32.74 L 31.54,30.17 A 4.9,4.9 0 0,1 27.96,32 A 3.96,3.96 0 0,1 24,27.94 A 4,4 0 0,1 26.07,24.49 A 3.97,3.97 0 0,1 31.5,26.16" fill="rgb(254, 254, 253)"/>
<path d="M 31.459999999999997,26.134999999999998 L 34.85,31.68 A 7,7 0 0,0 46.29,32.33 L 43.94,30.5 A 4.04,4.04 0 0,1 37.38,30.1 L 34.13,24.77 L 31.47,26.15 Z" fill="url(#a)"/>
<defs>
<linearGradient id="b" x1="10.42" x2="68.15" y1="9.71" y2="76.02" gradientUnits="userSpaceOnUse">
<stop stop-color="rgb(25, 29, 31)" offset="0"/>
<stop stop-color="rgb(5, 5, 8)" offset="1"/>
</linearGradient>
<linearGradient id="a" x1="35.17" x2="40.61" y1="24.08" y2="32.08" gradientUnits="userSpaceOnUse">
<stop stop-color="rgb(1, 149, 163)" offset="0"/>
<stop stop-color="rgb(1, 239, 176)" offset=".51"/>
</linearGradient>
</defs>
</svg>
