<?xml version="1.0" encoding="UTF-8"?>
<!-- generated by Finnhub -->
<svg viewBox="0 0 55.5 55.5" xmlns="http://www.w3.org/2000/svg">
<path d="M 0,0 H 55.5 V 55.5 H 0 Z" fill="rgb(239, 242, 248)"/>
<path d="M 12.19,28.745 A 4.25,4.25 0 0,1 9.16,30 C 6.87,30 5,28.2 5,26 S 6.87,22 9.17,22 C 10.4,22 11.5,22.5 12.27,23.31 L 11.21,24.41 A 2.67,2.67 0 0,0 9.17,23.48 A 2.57,2.57 0 0,0 6.55,26 A 2.57,2.57 0 0,0 9.17,28.52 C 9.97,28.52 10.67,28.18 11.16,27.65 L 12.19,28.76 Z M 42.23,30 C 44.53,30 46.41,28.2 46.41,26 S 44.54,22 42.23,22 C 39.93,22 38.06,23.8 38.06,26 S 39.93,30 42.23,30 Z M 42.23,28.52 A 2.57,2.57 0 0,0 44.87,26 A 2.57,2.57 0 0,0 42.24,23.48 A 2.57,2.57 0 0,0 39.62,26 A 2.57,2.57 0 0,0 42.24,28.52 Z M 21,22 H 24.56 A 2.47,2.47 0 0,1 27,24.5 A 2.5,2.5 0 0,1 25.28,26.89 L 26.98,30 H 25.4 L 23.75,27 H 22.5 V 30.03 H 21 V 22 Z M 22.5,23.5 H 24.37 C 24.99,23.5 25.5,23.95 25.5,24.5 S 25,25.5 24.37,25.5 H 22.5 V 23.5 Z M 36,22 H 37.41 V 30 H 36 V 22 Z M 47,22 H 48.54 V 28.63 H 52 V 30 H 47 V 22 Z M 4,32 H 11.94 L 16.47,22.1 L 21.5,33.5 L 22.18,32 H 52 V 33 H 22.99 L 21.32,36 L 16.5,25 L 14.64,29 H 16.21 L 16.81,30 H 14.17 L 12.77,33 H 4 V 32 Z M 30.72,22 H 28 V 30 H 30.72 C 32.96,30 34.78,28.2 34.78,26 S 32.96,22 30.72,22 Z M 31.11,23.5 H 29.5 V 28.5 H 31.1 C 32.43,28.5 33.5,27.38 33.5,26 S 32.43,23.5 31.1,23.5 Z" fill="rgb(3, 72, 110)" fill-rule="evenodd"/>
</svg>
