<?xml version="1.0" encoding="UTF-8"?>
<!-- generated by Finnhub -->
<svg viewBox="0 0 55.5 55.5" xmlns="http://www.w3.org/2000/svg">
<path d="M 0,0 H 55.5 V 55.5 H 0 Z" fill="rgb(239, 242, 248)"/>
<path d="M 28.24,10.045 A 0.5,0.5 0 0,0 27.75,10.06 L 12.25,18.81 A 0.5,0.5 0 0,0 12,19.25 V 35.78 C 12,35.95 12.09,36.11 12.23,36.2 L 27.73,45.92 C 27.9,46.02 28.1,46.02 28.27,45.92 L 43.77,36.2 A 0.5,0.5 0 0,0 44,35.78 V 19.25 A 0.5,0.5 0 0,0 43.75,18.81 L 28.25,10.06 Z M 13,35.5 V 19.54 L 28,11.07 L 43,19.54 V 35.5 L 38,38.64 V 37.64 L 28.25,32.07 A 0.5,0.5 0 0,0 27.75,32.07 L 18,37.64 V 38.64 L 13,35.5 Z M 18.13,38.72 L 18.83,39.16 L 27.75,34.06 A 0.5,0.5 0 0,1 28.25,34.06 L 37.16,39.16 L 37.87,38.72 L 28,33.08 L 18.13,38.72 Z M 36.2,39.76 L 28,35.08 L 19.8,39.76 L 20.5,40.21 L 27.75,36.07 A 0.5,0.5 0 0,1 28.25,36.07 L 35.5,40.21 L 36.2,39.76 Z M 34.54,40.81 L 28,37.08 L 21.46,40.81 L 22.17,41.25 L 27.75,38.07 A 0.5,0.5 0 0,1 28.25,38.07 L 33.83,41.25 L 34.53,40.81 Z M 32.87,41.86 L 28,39.08 L 23.13,41.86 L 23.84,42.3 L 27.75,40.07 A 0.5,0.5 0 0,1 28.25,40.07 L 32.15,42.3 L 32.87,41.86 Z M 31.2,42.9 L 28,41.08 L 24.8,42.9 L 28,44.91 L 31.2,42.91 Z M 18,19.64 V 20.79 L 28,15.08 L 38,20.79 V 19.64 L 28.25,14.07 A 0.5,0.5 0 0,0 27.75,14.07 L 18,19.64 Z M 18,21.64 V 22.79 L 28,17.08 L 38,22.79 V 21.64 L 28.25,16.07 A 0.5,0.5 0 0,0 27.75,16.07 L 18,21.64 Z M 18,23.64 V 24.79 L 28,19.08 L 38,24.79 V 23.64 L 28.25,18.07 A 0.5,0.5 0 0,0 27.75,18.07 L 18,23.64 Z M 18,25.64 V 26.79 L 28,21.08 L 38,26.79 V 25.64 L 28.25,20.07 A 0.5,0.5 0 0,0 27.75,20.07 L 18,25.64 Z M 18,27.64 V 28.79 L 28,23.08 L 38,28.79 V 27.64 L 28.25,22.07 A 0.5,0.5 0 0,0 27.75,22.07 L 18,27.64 Z M 18,29.64 V 30.79 L 28,25.08 L 38,30.79 V 29.64 L 28.25,24.07 A 0.5,0.5 0 0,0 27.75,24.07 L 18,29.64 Z M 18,31.64 V 32.79 L 28,27.08 L 38,32.79 V 31.64 L 28.25,26.07 A 0.5,0.5 0 0,0 27.75,26.07 L 18,31.64 Z M 18,33.64 V 34.79 L 28,29.08 L 38,34.79 V 33.64 L 28.25,28.07 A 0.5,0.5 0 0,0 27.75,28.07 L 18,33.64 Z M 18,35.64 V 36.79 L 28,31.08 L 38,36.79 V 35.64 L 28.25,30.07 A 0.5,0.5 0 0,0 27.75,30.07 L 18,35.64 Z" fill="url(#a)" fill-rule="evenodd"/>
<defs>
<linearGradient id="a" x1="12.5" x2="44" y1="28.5" y2="29" gradientUnits="userSpaceOnUse">
<stop stop-color="rgb(207, 207, 206)" offset="0"/>
<stop stop-color="rgb(70, 70, 69)" offset="1"/>
</linearGradient>
</defs>
</svg>
