<?xml version="1.0" encoding="UTF-8"?>
<!-- generated by Finnhub -->
<svg viewBox="0 0 55.5 55.5" xmlns="http://www.w3.org/2000/svg">
<path d="M 0,0 H 55.5 V 55.5 H 0 Z" fill="url(#a)"/>
<path d="M 26.049999999999997,13.195 A 4.64,4.64 0 0,0 25.25,15.56 C 25.21,16.39 24.45,17.03 23.55,17 C 22.66,16.96 21.96,16.27 22,15.44 C 22.05,14.41 22.4,12.88 23.35,11.55 C 24.36,10.15 26.05,9 28.56,9 A 6.06,6.06 0 0,1 33.68,11.54 A 7.28,7.28 0 0,1 35,15.47 C 35.02,16.3 34.3,16.99 33.4,17 C 32.5,17.01 31.77,16.35 31.75,15.53 A 4.45,4.45 0 0,0 30.97,13.19 C 30.47,12.49 29.75,12 28.57,12 C 27.3,12 26.56,12.52 26.06,13.21 Z M 28.5,16 C 29.33,16 30,16.67 30,17.5 V 24.07 C 30,25.46 28.9,26.51 27.62,26.6 C 25.64,26.73 23.12,27.23 21.15,28.3 C 19.2,29.33 18,30.78 18,32.86 C 18,33.94 18.4,34.76 19.11,35.42 C 19.86,36.12 20.98,36.69 22.37,37.11 C 24.81,37.84 27.73,38.04 30,38.01 V 36.11 C 29.45,36.03 28,35.61 28,34.51 C 28,33.4 29,33.03 29.5,32.99 H 33.35 C 33.9,33.02 35,33.37 35,34.5 S 33.55,36.04 33,36.1 V 42 C 33.06,42 33.12,42.03 33.2,42.05 C 33.83,42.23 35,42.57 35,43.65 C 35,44.86 33.9,45.04 33.35,44.98 H 29.3 C 28.87,44.94 28,44.68 28,43.65 C 28,42.8 28.98,42.41 29.64,42.15 L 30,42 V 41.02 A 29.8,29.8 0 0,1 21.5,40 A 11.17,11.17 0 0,1 17.06,37.62 A 6.32,6.32 0 0,1 15,32.87 C 15,29.3 17.2,27.01 19.73,25.65 A 19.5,19.5 0 0,1 27,23.64 V 17.5 C 27,16.67 27.67,16 28.5,16 Z" fill="rgb(254, 254, 253)"/>
<defs>
<linearGradient id="a" x1="10.42" x2="68.15" y1="9.71" y2="76.02" gradientUnits="userSpaceOnUse">
<stop stop-color="rgb(25, 29, 31)" offset="0"/>
<stop stop-color="rgb(5, 5, 8)" offset="1"/>
</linearGradient>
</defs>
</svg>
