<?xml version="1.0" encoding="UTF-8"?>
<!-- generated by Finnhub -->
<svg viewBox="0 0 55.5 55.5" xmlns="http://www.w3.org/2000/svg">
<path d="M 0,0 H 55.5 V 55.5 H 0 Z" fill="rgb(239, 242, 248)"/>
<path d="M 42.99,12.985 H 13 V 43 H 19.01 C 19.03,42.82 19.09,42.64 19.19,42.48 L 23.81,34.68 C 23.86,34.6 23.91,34.52 23.98,34.45 A 1.35,1.35 0 0,1 26.15,34.68 L 30.77,42.48 C 30.87,42.64 30.93,42.82 30.95,43 H 32.22 C 32.24,42.82 32.3,42.64 32.4,42.48 L 37,34.68 A 1.34,1.34 0 0,1 38.77,34.13 A 1.34,1.34 0 0,1 39.37,34.69 L 43,40.83 V 33.5 A 1.35,1.35 0 0,1 41.65,32.85 L 38.18,26.99 L 34.72,32.85 A 1.35,1.35 0 1,1 32.4,31.48 L 37,23.68 A 1.34,1.34 0 0,1 38.77,23.13 A 1.34,1.34 0 0,1 39.37,23.69 L 43,29.83 V 13 Z M 41.15,43 L 38.18,38 L 35.22,43 H 41.15 Z M 27.95,43 L 24.98,38 L 22.01,43 H 27.95 Z M 25.99,23.45 A 1.35,1.35 0 0,0 23.81,23.68 L 19.19,31.48 A 1.35,1.35 0 0,0 21.51,32.85 L 24.98,26.99 L 28.45,32.85 A 1.35,1.35 0 1,0 30.77,31.48 L 26.15,23.68 L 25.99,23.45 Z" fill="rgb(250, 175, 61)" fill-rule="evenodd"/>
</svg>
