<?xml version="1.0" encoding="UTF-8"?>
<!-- generated by Finnhub -->
<svg viewBox="0 0 55.5 55.5" xmlns="http://www.w3.org/2000/svg">
<path d="M 0,0 H 55.5 V 55.5 H 0 Z" fill="rgb(13, 23, 136)"/>
<path d="M 43.99,39.985 H 12 V 42 H 44 V 40 Z" fill="rgb(1, 113, 186)"/>
<path d="M 21.99,25.985 V 33.011 C 22,33.903 21.116,35 19.96,35 H 15.038 C 13.881,35 12.998,33.834 12.998,33.011 V 17.923 C 12.998,17.032 13.881,15.935 15.038,16.003 H 19.959 C 21.116,16.003 22,17.1 22,17.923 V 25 H 18 V 17.488 C 18,17.214 17.704,17 17.5,17 C 17.228,17 17,17.214 17,17.488 V 33.458 C 17,33.868 17.228,34 17.5,34 S 18,33.869 18,33.457 V 26 H 22 Z M 27.003,25 V 17 H 27.611 C 27.813,17 28,17.163 28,17.436 V 24.309 C 28,24.582 27.889,25 27.484,25 H 27.004 Z M 27.003,26 H 27.543 C 27.881,26 28,26.283 28,26.692 V 35 H 32 V 27.577 C 32,27.237 31.947,25.738 30.124,25.466 C 31.474,25.466 32,23.9 32,23.219 V 17.975 C 32,17.09 31.137,15.932 29.99,16 H 23.004 V 35 H 27.004 V 26 Z M 37.996,16 V 25 H 37 V 16 H 33.004 V 35 H 37 V 26 H 37.996 V 35 H 42 V 16 H 37.996 Z" fill="rgb(254, 254, 253)"/>
</svg>
