<?xml version="1.0" encoding="UTF-8"?>
<!-- generated by Finnhub -->
<svg viewBox="0 0 55.5 55.5" xmlns="http://www.w3.org/2000/svg">
<path d="M 0,0 H 55.5 V 55.5 H 0 Z" fill="url(#a)"/>
<path d="M 38.440000000000005,15.985 C 42.65,16 46.27,18.5 48,22 A 9.64,9.64 0 0,0 38.48,14 A 9.81,9.81 0 0,0 29,22 C 30.77,18.6 34.34,16 38.45,16 Z M 40.25,19.5 A 1.5,1.5 0 1,1 37.25,19.5 A 1.5,1.5 0 0,1 40.25,19.5 Z M 39.5,32.65 C 39.49,33.22 39.47,34.16 39.93,34.47 C 40.17,34.63 40.57,34.8 40.85,34.8 C 40.91,34.8 41,34.83 41,34.89 A 0.1,0.1 0 0,1 40.88,35 H 35.28 C 34.97,35 34.65,34.98 34.34,34.94 C 33.11,34.74 32.31,33.46 31.71,32.44 L 31.59,32.21 C 31.23,31.55 30.37,30 29.87,30 H 28 V 30.58 C 28,33.23 26.05,34.96 23.55,35 C 20.5,35 19,32.96 19,30.2 V 24.96 C 19,24.49 19.01,24.01 18.79,23.59 C 18.62,23.32 18.03,23.19 17.73,23.2 H 17.69 C 17.62,23.2 17.5,23.2 17.5,23.12 C 17.5,23 17.65,23 17.73,23 H 21.76 C 21.85,23 22,23 22,23.1 C 22,23.14 21.97,23.2 21.87,23.2 C 21.43,23.2 20.89,23.25 20.69,23.6 C 20.49,24.03 20.49,24.5 20.49,24.98 L 20.5,25.16 V 30.58 C 20.5,32.39 21.4,34 23.78,34 C 26.18,34 27,32.08 27,30.07 V 24.88 C 27.01,23.98 27.02,23.2 26.12,23.2 C 26.06,23.2 26,23.18 26,23.12 C 26,23 26.15,23 26.23,23 H 30.06 C 31.73,23 33,24 33,25.81 C 33,27.16 32.3,28.58 31.34,29.5 L 32.18,30.64 C 32.92,31.66 33.65,32.66 34.49,33.63 A 4.26,4.26 0 0,0 36.72,34.8 C 36.97,34.78 37.45,34.64 37.62,34.47 C 38.02,34.09 38.01,33.21 38,32.64 V 24.94 C 38.01,24.48 38.02,23.94 37.83,23.55 C 37.67,23.27 37.2,23.23 36.87,23.21 A 7.28,7.28 0 0,1 36.71,23.2 C 36.61,23.2 36.48,23.19 36.48,23.1 C 36.48,23 36.63,23 36.72,23 H 40.77 C 40.85,23 41,23 41,23.1 C 41,23.17 40.9,23.2 40.7,23.2 C 40.42,23.2 39.82,23.28 39.7,23.57 C 39.5,24.02 39.5,24.58 39.5,25.07 V 32.65 Z M 28,25.15 V 29.18 C 28.09,29.53 29.32,29.51 29.76,29.5 H 29.87 C 31.35,29.5 32,27.86 32,26.62 C 32,25.04 31.2,24 29.45,24 H 28 V 25.15 Z M 8.78,33.37 C 9.38,33.92 10.07,34.33 10.82,34.59 C 11.6,34.87 12.54,35 13.64,35 C 14.58,35 16.04,34.79 16.44,34.25 C 16.84,33.71 17,32.92 17,32.25 C 17,32.18 17,32 16.9,32 C 16.86,32 16.82,32.04 16.8,32.08 L 16.73,32.36 L 16.68,32.54 C 16.24,34 14.68,34 13.64,34 A 4.9,4.9 0 0,1 8.5,28.82 C 8.5,26.45 9.95,24 13.04,24 C 14.9,23.98 16.74,24.58 16.74,26.75 C 16.74,26.91 16.8,27 16.88,27 C 16.95,27 17,26.88 17,26.79 V 23.53 A 0.16,0.16 0 0,0 16.97,23.47 A 0.27,0.27 0 0,0 16.82,23.42 A 9.99,9.99 0 0,1 16.06,23.32 C 15.09,23.15 14.13,23 13.14,23 C 12.19,23 11.26,23.14 10.42,23.48 A 5.78,5.78 0 0,0 7,28.82 C 7,30.49 7.52,32.22 8.78,33.37 Z M 42,33.54 V 34.09 C 42.69,34.75 43.8,34.99 44.32,35 C 46.22,35 48,34.1 48,31.83 C 48,30.93 47.68,30.13 47.08,29.46 C 46.6,28.93 46.1,28.55 45.58,28.16 C 45.17,27.85 44.74,27.52 44.32,27.11 C 43.88,26.69 43.5,26.28 43.5,25.66 C 43.5,24.59 44.26,23.96 45.3,24 C 45.88,23.98 46.25,24.1 46.7,24.44 C 47.16,24.79 47.38,25.4 47.5,25.87 C 47.52,26 47.58,26 47.62,26 C 47.7,26 47.7,25.76 47.7,25.66 V 23.52 S 47.7,23.39 47.58,23.41 C 47.31,23.41 47.01,23.32 46.68,23.23 C 46.28,23.12 45.87,23 45.44,23 C 44.45,23 43.83,23.26 43.24,23.77 A 2.85,2.85 0 0,0 42.29,25.89 C 42.29,27.31 42.91,28.15 44.32,29.32 L 45.1,29.89 C 46,30.52 47,31.23 47,32.16 C 47,33.38 45.84,34 44.66,34 C 43.54,34 42.57,33.47 42.34,32.31 C 42.3,32.11 42.29,31.89 42.29,31.75 C 42.29,31.65 42.29,31.56 42.18,31.56 C 42.08,31.56 42,31.74 42,31.96 V 33.54 Z" fill="rgb(254, 254, 253)"/>
<defs>
<linearGradient id="a" x1="61" x2="0" y1="28" y2="28" gradientUnits="userSpaceOnUse">
<stop stop-color="rgb(76, 126, 174)" offset=".18"/>
<stop stop-color="rgb(1, 81, 140)" offset=".74"/>
</linearGradient>
</defs>
</svg>
