<?xml version="1.0" encoding="UTF-8"?>
<!-- generated by Finnhub -->
<svg viewBox="0 0 55.5 55.5" xmlns="http://www.w3.org/2000/svg">
<path d="M 0,0 H 55.5 V 55.5 H 0 Z" fill="rgb(239, 242, 248)"/>
<path d="M 18.99,18.985 H 21.12 C 21.59,19 22,18.6 22,18.13 V 13.85 C 22,13.38 21.6,13 21.12,13 H 15.88 C 14.28,13 13,14.3 13,15.88 V 40.12 C 13,41.7 14.29,43 15.88,43 H 40.12 C 41.7,43 43,41.7 43,40.12 V 34.9 C 43,34.43 42.62,34 42.14,34 H 37.88 A 0.91,0.91 0 0,0 37,34.9 V 37 H 31 V 25 H 19 V 19 Z M 25,37 V 31 H 19 V 37 H 25 Z" fill="rgb(43, 41, 35)" fill-rule="evenodd"/>
<path d="M 24.99,13.424999999999999 V 18.56 C 25,18.8 25.2,19 25.44,19 H 37 V 30.56 C 37,30.8 37.22,31 37.46,31 H 42.56 C 42.8,31 43,30.8 43,30.56 V 13.44 C 43,13.2 42.8,13 42.56,13 H 25.44 C 25.2,13 25,13.2 25,13.44 Z" fill="rgb(1, 178, 53)"/>
</svg>
