<?xml version="1.0" encoding="UTF-8"?>
<!-- generated by Finnhub -->
<svg viewBox="0 0 55.5 55.5" xmlns="http://www.w3.org/2000/svg">
<path d="M 0,0 H 55.5 V 55.5 H 0 Z" fill="rgb(239, 242, 248)"/>
<path d="M 5.46,25.995 C 5.47,26.95 6.09,27.68 7.06,27.68 C 7.59,27.68 8.09,27.44 8.42,27.03 L 9.44,27.89 A 3.05,3.05 0 0,1 7.06,29 C 5.36,29 4,27.95 4,26.02 C 4,24.34 5.1,23 7.06,23 C 7.98,23 8.85,23.42 9.43,24.13 L 8.42,24.99 A 1.8,1.8 0 0,0 7.05,24.32 C 6.19,24.32 5.47,24.95 5.47,26.02 Z M 15.37,23 C 16.88,23 17.55,23.87 17.55,25.07 C 17.55,25.94 17.15,26.57 16.4,26.87 L 17.85,29 H 16.17 L 14.92,27 H 14.39 V 29 H 13 V 23 H 15.38 Z M 14.39,25.83 H 15.12 C 15.73,25.83 16.07,25.53 16.06,25.03 C 16.06,24.58 15.78,24.24 15.13,24.24 H 14.39 V 25.84 Z M 22.35,26.63 H 24 V 25.4 H 22.35 V 24.25 H 25 V 23 H 21 V 29 H 25 V 27.74 H 22.35 V 26.62 Z M 30.5,24.67 C 30.5,24.95 30.71,25.09 31.35,25.34 L 31.45,25.38 C 32.45,25.76 33.19,26.04 33.19,27.13 C 33.2,28.5 32,29 31.02,29 C 30.2,29 29.42,28.66 28.85,28.07 L 29.66,27.09 A 2,2 0 0,0 31.06,27.79 C 31.53,27.79 31.73,27.55 31.73,27.29 C 31.73,26.96 31.52,26.83 30.85,26.6 C 29.95,26.3 29,25.88 29,24.72 C 29,23.75 29.9,23.02 31,23 C 31.75,23 32.48,23.26 33.04,23.76 L 32.26,24.76 C 31.76,24.36 31.4,24.21 31.06,24.21 C 30.71,24.21 30.51,24.38 30.5,24.67 Z M 39.78,27.67 C 38.82,27.67 38.2,26.94 38.2,26.01 C 38.2,24.94 38.91,24.31 39.77,24.31 A 1.8,1.8 0 0,1 41.14,24.99 L 42.15,24.13 A 3.08,3.08 0 0,0 39.77,23 C 37.83,23 36.72,24.34 36.72,26.02 C 36.72,27.96 38.08,29 39.77,29 C 40.7,29 41.57,28.6 42.15,27.9 L 41.14,27.03 C 40.81,27.43 40.31,27.67 39.78,27.68 Z M 46,26 C 46,24.24 47.24,23 49,23 C 50.75,23 52,24.22 52,26 C 52,27.8 50.75,29 49,29 C 47.23,29 46,27.76 46,26 Z M 47.44,26 C 47.44,26.96 48.09,27.73 49.01,27.73 C 49.91,27.73 50.57,26.97 50.57,26 S 49.93,24.3 49,24.3 S 47.43,25.06 47.43,26.01 Z M 15.5,32 H 16 V 37.56 H 19 V 38 H 15.5 V 32 Z M 24.58,32 H 24.08 L 21.78,38 H 22.28 L 22.89,36.4 H 25.79 L 26.4,38 H 26.91 L 24.58,32 Z M 24.35,32.57 L 25.63,35.95 H 23.05 L 24.33,32.57 H 24.35 Z M 29.64,32 H 31.5 C 32.62,32 33.42,32.4 33.42,33.46 A 1.4,1.4 0 0,1 32.4,34.86 C 33.1,34.98 33.72,35.46 33.72,36.39 C 33.72,37.31 33.07,38 31.67,38 H 29.64 V 32 Z M 31.58,34.68 C 32.24,34.68 32.94,34.4 32.94,33.54 C 32.94,32.87 32.51,32.44 31.46,32.44 H 30.13 V 34.68 H 31.58 Z M 31.65,37.58 C 32.59,37.58 33.23,37.18 33.23,36.38 C 33.23,35.58 32.65,35.11 31.6,35.11 H 30.13 V 37.57 H 31.65 Z M 36.85,36.73 L 36.52,37.1 C 37.04,37.68 37.8,38.01 38.59,38 C 39.69,38 40.52,37.4 40.52,36.42 C 40.52,35.42 39.77,35.12 38.88,34.78 L 38.68,34.71 L 38.65,34.69 C 37.9,34.39 37.25,34.15 37.25,33.46 C 37.25,32.79 37.88,32.43 38.53,32.43 C 39.09,32.46 39.62,32.67 40.03,33.03 L 40.33,32.65 A 2.97,2.97 0 0,0 38.53,32 C 37.51,32 36.76,32.63 36.76,33.47 C 36.76,34.47 37.68,34.84 38.52,35.17 L 38.68,35.23 C 39.45,35.53 40.03,35.74 40.03,36.46 C 40.03,37.17 39.41,37.56 38.61,37.56 C 37.92,37.56 37.27,37.26 36.84,36.73 Z" fill="rgb(46, 76, 91)"/>
</svg>
