<?xml version="1.0" encoding="UTF-8"?>
<!-- generated by Finnhub -->
<svg viewBox="0 0 55.5 55.5" xmlns="http://www.w3.org/2000/svg">
<path d="M 0,0 H 55.5 V 55.5 H 0 Z" fill="rgb(239, 242, 248)"/>
<path d="M 7.99,28.005 C 8,28.2 8.07,28.38 8.2,28.49 L 19.58,39.96 C 19.62,39.98 19.67,40 19.73,40 C 19.87,40 20,39.89 20,39.73 A 0.2,0.2 0 0,0 19.93,39.58 C 17.4,36.5 16,32.74 16,28 S 17.4,19.49 19.93,16.42 A 0.2,0.2 0 0,0 20,16.27 A 0.27,0.27 0 0,0 19.73,16 A 0.32,0.32 0 0,0 19.58,16.04 L 8.2,27.51 A 0.8,0.8 0 0,0 8,28.02 Z" fill="rgb(237, 27, 35)"/>
<path d="M 21.99,27.965 C 21.9,34.82 23.9,40 28.33,40 C 30.16,40 32.3,39.12 33.32,37.09 C 33.8,36.12 32.81,36.37 32.81,36.37 C 30.89,36.4 30.16,34.91 30.16,33.47 A 3.71,3.71 0 0,1 33.91,29.75 C 36.01,29.75 37.79,31.39 37.88,33.46 C 38.01,36.18 37.18,37.86 36.12,39.2 C 36.09,39.22 36.09,39.27 36.09,39.3 C 36.09,39.44 36.2,39.57 36.34,39.57 C 36.4,39.57 36.44,39.55 36.49,39.53 L 47.8,28.45 C 47.91,28.35 48,28.17 48,28 A 0.58,0.58 0 0,0 47.8,27.55 L 36.5,16.48 A 0.32,0.32 0 0,0 36.34,16.43 A 0.25,0.25 0 0,0 36.09,16.69 C 36.09,16.73 36.09,16.78 36.12,16.79 A 8.07,8.07 0 0,1 37.88,22.54 A 3.95,3.95 0 0,1 33.91,26.25 A 3.71,3.71 0 0,1 30.16,22.54 C 30.16,21.09 30.89,19.6 32.81,19.63 C 32.81,19.63 33.8,19.89 33.31,18.91 A 5.57,5.57 0 0,0 28.33,16.01 C 23.88,15.94 22.11,21.14 22,27.98 Z" fill="rgb(1, 90, 168)"/>
</svg>
