<?xml version="1.0" encoding="UTF-8"?>
<!-- generated by Finnhub -->
<svg viewBox="0 0 55.5 55.5" xmlns="http://www.w3.org/2000/svg">
<path d="M 0,0 H 55.5 V 55.5 H 0 Z" fill="rgb(237, 45, 77)"/>
<path d="M 33.454,23.141 C 32.267,21.981 30.704,21 28,21 C 23.542,21 20.798,24.012 20.798,28.163 C 20.798,32.313 24.44,35 28,35 C 30.492,35 32.102,34.435 33.464,33.515 L 34.081,36.114 C 33.064,37.029 30.928,37.967 28.023,37.967 C 22.577,37.967 18.161,33.537 18.161,28.163 C 18.161,22.716 22.577,18.36 28.023,18.36 C 31.375,18.36 33.805,19.77 34.405,20.796 L 33.464,23.156 Z" fill="rgb(254, 254, 253)"/>
<path d="M 22.0,38.389 C 18.452,36.37 16.055,32.52 16.055,28.164 C 16.055,21.628 21.355,16.327 27.892,16.327 C 34.501,16.327 39.802,21.628 39.802,28.164 H 38.495 C 38.495,22.281 33.775,17.561 27.892,17.561 C 22.082,17.561 17.362,22.281 17.362,28.164 A 10.47,10.47 0 0,0 22.664,37.313 L 22.01,38.403 Z" fill="rgb(254, 254, 253)"/>
<path d="M 34.925000000000004,40.275 A 13.976,13.976 0 0,0 41.979,28.164 C 41.979,20.394 35.661,14.148 27.891,14.148 C 20.193,14.148 13.875,20.394 13.875,28.164 H 15.109 C 15.109,21.047 20.846,15.31 27.89,15.31 A 12.83,12.83 0 0,1 40.743,28.164 C 40.743,32.884 38.201,37.024 34.353,39.274 L 34.935,40.291 Z" fill="rgb(254, 254, 253)"/>
<path d="M 13.683,23.351 C 14.447,20.94 15.913,18.657 17.918,16.868 C 24.148,11.306 33.683,11.844 39.245,18.074 C 44.808,24.304 44.268,33.839 38.039,39.401 C 36.034,41.191 33.601,42.391 31.105,42.866 L 31.306,43.856 A 16.384,16.384 0 0,0 38.668,40.106 C 45.33,34.156 45.905,24.006 40.004,17.397 C 34.102,10.788 23.952,10.214 17.289,16.163 C 15.123,18.098 13.548,20.478 12.733,23.055 L 13.693,23.366 Z" fill="rgb(254, 254, 253)"/>
</svg>
