<?xml version="1.0" encoding="UTF-8"?>
<!-- generated by Finnhub -->
<svg viewBox="0 0 55.5 55.5" xmlns="http://www.w3.org/2000/svg">
<path d="M 0,0 H 55.5 V 55.5 H 0 Z" fill="rgb(239, 242, 248)"/>
<path d="M 16.95,17.985 H 17.2 C 17.67,18.25 18.02,18.62 18.23,19.11 C 18.58,19.91 18.89,20.74 19.15,21.58 C 19.37,22.26 19.61,22.93 19.86,23.46 C 19.96,23.64 20.24,23.62 20.4,23.59 C 20.66,23.54 20.9,23.57 21.16,23.56 C 21.49,23.54 21.77,23.7 22.01,23.91 C 22.23,24.11 22.25,24.41 22.56,24.54 C 23.23,24.81 23.87,25.19 24.49,25.51 C 24.57,25.55 24.56,25.56 24.49,25.54 C 24.26,25.5 24.05,25.45 23.85,25.39 C 23.49,25.29 23.05,25.06 22.61,24.93 H 22.55 C 22.49,24.94 22.45,24.91 22.43,24.85 A 0.07,0.07 0 0,0 22.39,24.81 C 21.83,24.54 21.56,25.23 21.19,25.11 C 21.17,25.11 21.16,25.09 21.16,25.07 A 0.58,0.58 0 0,0 21.13,24.76 C 21.13,24.73 21.11,24.71 21.07,24.7 C 21.05,24.7 21.03,24.7 21.01,24.72 C 20.98,24.75 20.99,24.76 21.04,24.77 C 21.04,25.01 20.94,25.19 20.7,25.29 C 20.38,25.44 20.08,25.6 19.81,25.79 C 19.6,25.94 19.45,26.16 19.26,26.34 C 19.24,26.36 19.24,26.37 19.26,26.39 C 19.64,26.92 19.95,27.49 20.18,28.11 C 20.28,28.36 20.54,29.01 20.29,29.16 A 0.15,0.15 0 0,1 20.09,29.12 L 19.91,28.89 L 19.89,28.87 A 0.05,0.05 0 0,0 19.84,28.87 V 28.9 C 19.8,28.99 19.77,29.06 19.78,29.16 C 19.78,29.56 19.59,29.81 19.3,29.36 A 0.06,0.06 0 0,0 19.25,29.32 H 19.21 C 19.18,29.32 19.17,29.34 19.17,29.36 A 0.36,0.36 0 0,1 19.05,29.68 A 0.08,0.08 0 0,1 18.99,29.7 C 18.66,29.7 18.49,29.52 18.49,29.19 L 18.48,29.12 A 0.04,0.04 0 0,0 18.45,29.1 H 18.43 L 18.42,29.11 C 18.39,29.14 18.39,29.17 18.42,29.21 A 0.92,0.92 0 0,1 18.15,29.74 A 0.14,0.14 0 0,1 18.05,29.78 A 0.14,0.14 0 0,1 17.95,29.74 A 2.64,2.64 0 0,1 17.61,29.31 C 17.58,29.25 17.51,29.21 17.46,29.28 A 0.06,0.06 0 0,1 17.42,29.31 C 17.37,29.31 17.33,29.34 17.32,29.39 C 17.32,29.39 17.32,29.41 17.3,29.41 A 0.07,0.07 0 0,1 17.24,29.43 L 17.21,29.42 L 16.96,29.2 A 0.1,0.1 0 0,0 16.91,29.18 L 16.81,29.16 A 0.06,0.06 0 0,1 16.76,29.12 L 16.72,29 C 16.71,28.97 16.69,28.96 16.67,28.97 H 16.64 C 16.62,28.97 16.61,28.97 16.6,28.95 A 0.7,0.7 0 0,1 16.61,28.43 A 0.13,0.13 0 0,0 16.63,28.29 C 16.63,28.28 16.62,28.27 16.6,28.28 A 0.18,0.18 0 0,0 16.5,28.39 C 16.22,28.45 16.4,28.07 16.44,27.96 C 16.44,27.95 16.44,27.93 16.42,27.92 C 16.24,27.82 16.53,27.38 16.58,27.32 A 0.06,0.06 0 0,0 16.58,27.26 L 16.5,27.04 L 16.66,26.73 V 26.68 C 16.58,26.63 16.56,26.56 16.61,26.47 C 16.8,26.08 16.86,25.68 17.11,25.33 C 17.31,25.14 17.49,24.93 17.63,24.71 A 0.1,0.1 0 0,0 17.65,24.65 A 0.2,0.2 0 0,1 17.71,24.48 C 17.86,24.6 18.02,24.71 18.19,24.8 C 18.31,24.86 18.4,24.95 18.34,25.09 V 25.15 C 18.43,25.55 18.76,25.29 18.81,25.37 V 25.42 A 0.2,0.2 0 0,0 18.77,25.62 A 0.1,0.1 0 0,0 18.84,25.68 A 0.12,0.12 0 0,0 18.94,25.68 C 19.1,25.59 19.25,25.5 19.43,25.44 A 131.35,131.35 0 0,0 19.98,25.27 C 19.98,25.26 19.98,25.25 19.96,25.25 A 2.8,2.8 0 0,0 18.88,25.63 H 18.84 A 0.06,0.06 0 0,1 18.82,25.56 L 18.89,25.32 C 18.89,25.29 18.89,25.28 18.86,25.28 C 18.76,25.28 18.65,25.34 18.56,25.33 C 18.46,25.31 18.31,25.14 18.42,25.05 A 0.04,0.04 0 0,0 18.44,25 A 0.4,0.4 0 0,0 18.24,24.77 C 18.04,24.66 17.88,24.53 17.7,24.41 L 17.66,24.39 A 0.08,0.08 0 0,1 17.62,24.34 C 17.54,24.15 17.35,24.04 17.42,23.82 C 17.42,23.79 17.42,23.77 17.4,23.75 L 17.21,23.59 A 0.08,0.08 0 0,1 17.18,23.53 L 17.19,23.3 C 17.19,23.28 17.19,23.26 17.16,23.25 A 0.42,0.42 0 0,1 16.88,23.05 A 0.08,0.08 0 0,1 16.88,22.98 L 16.97,22.78 C 16.97,22.76 16.97,22.74 16.95,22.73 C 16.79,22.63 16.75,22.5 16.84,22.33 L 16.83,22.28 L 16.77,22.21 A 0.06,0.06 0 0,1 16.75,22.15 C 16.79,22 16.85,21.68 17.08,21.65 C 17.28,21.72 17.48,21.77 17.66,21.89 L 18.54,22.45 C 18.62,22.49 18.74,22.6 18.78,22.67 A 12.42,12.42 0 0,0 20.54,24.39 L 20.55,24.37 V 24.36 C 19.94,23.84 19.39,23.29 18.9,22.7 C 18.57,22.3 17.96,22.02 17.58,21.76 A 0.83,0.83 0 0,0 17.08,21.63 A 0.37,0.37 0 0,1 16.92,21.3 C 16.92,21.22 17.01,21.15 16.95,21.04 A 0.09,0.09 0 0,1 16.94,20.99 C 16.96,20.76 16.88,20.55 16.86,20.35 C 16.83,20.03 16.61,19.71 16.77,19.42 A 0.04,0.04 0 0,0 16.77,19.37 C 16.62,19.13 16.63,18.91 16.81,18.69 C 16.83,18.67 16.83,18.65 16.81,18.63 L 16.76,18.58 A 0.07,0.07 0 0,1 16.73,18.54 A 0.57,0.57 0 0,1 16.96,18 Z M 21.86,24.52 L 21.91,24.53 H 21.97 A 0.15,0.15 0 0,0 22.05,24.45 L 22.07,24.4 V 24.35 A 0.13,0.13 0 0,0 22.04,24.3 A 0.12,0.12 0 0,0 21.95,24.25 L 21.9,24.26 A 0.15,0.15 0 0,0 21.82,24.33 L 21.8,24.39 V 24.44 L 21.82,24.49 L 21.86,24.52 Z" fill="rgb(151, 57, 43)"/>
<path d="M 5.54,27.235 C 4.95,30.9 6.98,34.17 10.95,34.72 C 11.87,34.85 12.98,34.8 13.96,34.79 C 13.99,34.79 14,34.8 14,34.83 V 35.95 C 14,35.97 13.99,35.99 13.96,35.99 C 12.57,36.01 11.69,36 11.32,35.99 C 6.56,35.68 3.52,31.95 4.06,27.53 A 7.25,7.25 0 0,1 9.71,21.28 C 11.07,20.94 12.55,21 13.96,21.02 C 13.99,21.02 14,21.02 14,21.05 V 22.19 C 14,22.21 13.99,22.22 13.97,22.22 C 13.01,22.22 11.94,22.17 11.07,22.28 C 8.22,22.63 6.01,24.53 5.55,27.25 Z M 26.26,21 H 25.05 A 0.05,0.05 0 0,0 25,21.05 V 35.95 C 25,35.98 25.02,36 25.05,36 H 26.26 C 26.29,36 26.31,35.98 26.31,35.95 V 21.05 A 0.05,0.05 0 0,0 26.26,21 Z M 33.35,31.2 A 4.12,4.12 0 0,0 36.69,34.73 C 38.91,35.08 40.79,33.36 41.17,31.33 C 41.65,28.78 39.71,26.04 36.89,26.27 C 35.61,26.37 34.64,27.14 33.85,28.05 A 0.02,0.02 0 0,1 33.81,28.05 V 26.48 C 33.81,26.46 33.81,26.43 33.84,26.42 A 5.1,5.1 0 0,1 38.19,25.12 C 42.75,25.89 44.02,31.72 40.85,34.64 A 5.36,5.36 0 0,1 34.1,34.94 A 5.37,5.37 0 0,1 32,30.38 V 21.03 L 32.02,21.01 L 32.03,21 H 33.26 C 33.28,21 33.29,21.02 33.29,21.04 V 29.97 C 33.29,30.54 33.31,30.95 33.35,31.19 Z M 29.66,23.58 C 30.16,23.58 30.56,23.19 30.56,22.71 S 30.16,21.84 29.66,21.84 S 28.76,22.24 28.76,22.71 C 28.76,23.19 29.16,23.58 29.66,23.58 Z M 50.1,23.5 C 50.6,23.5 51,23.1 51,22.63 C 51,22.15 50.6,21.76 50.1,21.76 C 49.61,21.76 49.2,22.15 49.2,22.63 S 49.61,23.5 50.1,23.5 Z M 30.27,25 H 29.04 A 0.05,0.05 0 0,0 29,25.05 V 35.95 C 29,35.98 29.02,36 29.04,36 H 30.27 C 30.29,36 30.31,35.98 30.31,35.95 V 25.05 A 0.05,0.05 0 0,0 30.27,25 Z M 44.8,26.4 A 3.88,3.88 0 0,1 46.83,25.1 C 47.4,24.96 48.13,25 48.77,25.01 A 0.05,0.05 0 0,1 48.81,25.06 C 48.81,25.38 48.88,25.98 48.78,26.26 C 48.78,26.28 48.76,26.29 48.74,26.29 C 48.18,26.29 47.51,26.23 46.99,26.4 C 45.45,26.91 44.73,28.76 44.72,30.27 V 35.97 C 44.72,35.99 44.7,36 44.68,36 H 43.46 C 43.43,36 43.42,35.98 43.42,35.95 V 25.05 L 43.43,25.02 L 43.47,25 H 44.68 C 44.7,25 44.71,25.02 44.71,25.04 V 26.37 A 0.05,0.05 0 0,0 44.75,26.41 A 0.04,0.04 0 0,0 44.79,26.4 Z M 49.45,25.06 C 49.45,25.02 49.47,25 49.51,25 H 50.71 L 50.75,25.01 L 50.76,25.05 V 35.95 L 50.75,35.99 L 50.72,36 H 49.49 C 49.47,36 49.46,35.99 49.46,35.96 C 49.46,35.86 49.47,35.76 49.46,35.68 C 49.45,32.14 49.44,28.61 49.46,25.06 Z" fill="rgb(82, 74, 68)"/>
<path d="M 17.099999999999998,25.314999999999998 C 16.86,25.68 16.8,26.08 16.61,26.47 C 16.57,26.56 16.58,26.63 16.65,26.67 C 16.67,26.69 16.67,26.71 16.66,26.73 L 16.5,27.03 A 4.32,4.32 0 0,0 15.26,32.53 A 4.08,4.08 0 0,0 22.44,32.71 A 4.3,4.3 0 0,0 20.04,26.41 A 0.03,0.03 0 0,1 20.05,26.37 C 20.35,26.11 20.7,25.93 21.09,25.84 A 0.8,0.8 0 0,0 21.39,25.64 A 0.04,0.04 0 0,1 21.43,25.64 A 5.5,5.5 0 1,1 17.11,25.33 Z" fill="rgb(82, 74, 68)"/>
</svg>
