<?xml version="1.0" encoding="UTF-8"?>
<!-- generated by Finnhub -->
<svg viewBox="0 0 55.5 55.5" xmlns="http://www.w3.org/2000/svg">
<path d="M 0,0 H 55.5 V 55.5 H 0 Z" fill="rgb(239, 242, 248)"/>
<path d="M 3.99,33.985 H 52 V 36 H 4 Z" fill="rgb(3, 154, 206)"/>
<path d="M 51.99,20.985 H 4 V 33 H 52 V 21 Z M 13.69,24 C 12.39,24 11.26,24.9 10.91,26.22 L 10.04,29.45 C 9.84,30.23 10.39,31 11.15,31 H 17.13 L 17.51,29.58 H 12.86 C 12.26,29.58 11.84,28.89 12.06,28.26 L 12.72,26.43 C 12.93,25.83 13.46,25.43 14.04,25.43 H 18.62 L 19,24 H 13.69 Z M 41.69,24 C 40.39,24 39.26,24.9 38.91,26.22 L 38.04,29.45 C 37.84,30.23 38.39,31 39.15,31 H 45.13 L 45.51,29.55 H 40.86 C 40.26,29.55 39.84,28.88 40.06,28.25 L 40.72,26.44 C 40.93,25.84 41.46,25.44 42.04,25.44 H 46.61 L 47,24 H 41.69 Z M 26.39,24 H 20.65 L 20.29,25.4 H 25.52 C 25.8,25.4 25.99,25.65 26,25.92 A 0.6,0.6 0 0,1 25.41,26.53 H 20 L 19,31 H 20.78 L 21.43,28 H 23.75 L 26,33 H 27.77 L 25.54,28 H 25.96 C 26.88,28 27.69,27.26 27.95,26.28 C 28.25,25.14 27.47,24 26.39,24 Z M 37.57,25.52 L 38,24 H 31.14 C 30.29,24 29.14,25.52 29.14,26.74 C 29.14,27.71 30,28.06 30.43,28.11 H 34.14 C 34.38,28.06 34.86,28.11 34.86,28.71 C 34.86,29.33 34.57,29.48 34.43,29.48 H 28.57 L 28,31 H 35.43 C 36.14,31 37.14,29.33 37.14,28.1 C 37.14,27.13 36.29,26.79 35.86,26.74 H 32.14 C 31.29,26.74 31.14,26.59 31.14,26.28 C 31.14,25.8 31.52,25.58 31.71,25.52 H 37.57 Z" fill="rgb(40, 75, 142)" fill-rule="evenodd"/>
</svg>
