<?xml version="1.0" encoding="UTF-8"?>
<!-- generated by Finnhub -->
<svg viewBox="0 0 55.5 55.5" xmlns="http://www.w3.org/2000/svg">
<path d="M 0,0 H 55.5 V 55.5 H 0 Z" fill="rgb(239, 242, 248)"/>
<path d="M 48.21,27.425 C 49.07,27.07 49.65,26.02 49.65,24.81 C 49.65,23.28 48.73,22 47.57,22 H 19 V 29 H 29 V 31 H 10 V 25 H 18 V 22 H 6 V 34 H 33 V 26 H 23 V 25 H 45.07 C 45.57,25 46,25.06 46,25.5 S 45.58,26 45.07,26 H 40 V 29 H 44.8 C 45.46,29 46,29.43 46,30 C 46,30.57 45.46,31 44.8,31 H 38 V 26 H 34 V 34 H 47.41 C 48.84,34 50,32.48 50,30.62 C 49.96,29.17 49.23,27.88 48.22,27.44 Z" fill="rgb(1, 123, 72)"/>
</svg>
