<?xml version="1.0" encoding="UTF-8"?>
<!-- generated by Finnhub -->
<svg viewBox="0 0 55.5 55.5" xmlns="http://www.w3.org/2000/svg">
<path d="M 0,0 H 55.5 V 55.5 H 0 Z" fill="rgb(1, 79, 156)"/>
<path d="M 13.587,23.994 H 9.04 S 5.806,23.761 5.106,25.883 L 4.111,28.917 S 3.158,31.691 6.815,31.691 H 13.665 L 16.09,30.185 L 15.6,31.692 H 49.557 L 52,24.009 H 15.261 L 13.141,25.429" fill="rgb(1, 79, 156)"/>
<path d="M 48.386,29.985 H 43.898 L 45.412,25.208 L 49.915,25.206 L 49.598,26.214 H 46.748 L 46.496,27.006 L 49.351,27.004 L 49.014,28.056 H 46.17 L 45.876,28.993 L 48.72,28.991 L 48.396,30 Z M 43.074,30.035 H 39.026 L 40.584,25.245 L 42.346,25.246 L 41.133,29 H 43.418 L 43.074,30.035 Z M 32.958,25.214 L 31.415,30 L 29.685,30.004 L 31.209,25.214 H 32.958 Z M 28.18,25.211 L 27,28.951 L 29.285,28.948 L 28.944,30 L 24.907,30 L 26.454,25.211 H 28.179 Z M 8.304,25.187 C 7.278,25.184 6.879,25.412 6.6,26.092 L 5.65,29.058 C 5.483,29.576 5.979,30 6.753,30 H 11.558 L 12.788,29.178 H 16.168 L 15.908,29.994 H 17.646 L 19.195,25.206 H 16.774 L 11.254,28.921 H 7.472 L 8.361,26.181 H 11.441 L 12.926,25.186 H 8.304 Z M 16.491,28.075 H 14.431 L 17.053,26.317 L 16.491,28.075 Z M 35.606,26.262 H 39.311 L 39.669,25.209 L 35.724,25.207 L 35.468,25.211 C 35.358,25.211 35.249,25.224 35.142,25.248 C 34.444,25.389 33.578,25.984 33.362,26.696 C 33.124,27.476 33.466,28.105 34.047,28.159 H 36.841 C 37.292,28.164 37.331,28.388 37.198,28.599 C 37.065,28.811 36.884,28.933 36.351,28.933 H 32.303 L 31.96,30 H 36.728 C 37.458,29.994 38.498,29.342 38.746,28.531 C 38.996,27.721 38.612,27.011 37.956,27.016 H 35.131 C 34.817,27.016 34.745,26.796 34.872,26.582 S 35.167,26.263 35.609,26.26 M 24.715,26.703 C 24.962,25.887 24.607,25.208 23.955,25.21 H 19.97 L 18.423,30 H 20.259 L 21.019,27.45 L 21.409,26.232 H 22.465 C 23.1,26.232 23.32,26.562 23.12,26.952 C 22.905,27.369 22.531,27.425 22.073,27.45 H 21.02 L 22.463,30 H 24.288 L 23.272,28.19 L 23.221,28.102 C 23.854,27.887 24.521,27.342 24.715,26.705" fill="rgb(254, 254, 253)"/>
</svg>
