<?xml version="1.0" encoding="UTF-8"?>
<!-- generated by Finnhub -->
<svg viewBox="0 0 55.5 55.5" xmlns="http://www.w3.org/2000/svg">
<path d="M 0,0 H 55.5 V 55.5 H 0 Z" fill="rgb(19, 33, 68)"/>
<path d="M 13.620000000000001,13.985 L 28.1,17.23 L 28.11,17.41 C 28.19,18.64 28.31,19.74 28.63,20.81 A 8.88,8.88 0 0,0 30.63,24.25 A 20.23,20.23 0 0,0 34.72,27.58 C 39.35,30.58 42.02,35.63 42.86,37.94 C 43.49,37.99 43.93,38.27 44.22,38.62 C 44.52,38.99 44.66,39.43 44.69,39.73 L 44.71,40 H 41.74 L 41.69,39.81 A 6.1,6.1 0 0,0 40.61,38 C 39.91,37.11 38.85,35.98 37.28,34.71 A 11.83,11.83 0 0,0 32.03,32.45 C 30.43,32.15 28.96,32.13 27.98,32.2 C 28.91,34.5 28.06,36.1 27.37,36.73 C 27.39,36.99 27.53,37.23 27.72,37.45 C 27.92,37.68 28.16,37.85 28.34,37.95 C 29.16,37.96 29.71,38.24 30.04,38.62 C 30.39,39 30.5,39.45 30.49,39.77 V 40 H 27.92 C 27.12,39.82 26.4,39.3 25.83,38.75 A 8.06,8.06 0 0,1 24.57,37.2 L 24.51,37.1 L 24.56,36.97 C 24.96,36.11 24.86,35.45 24.62,34.97 C 24.42,34.59 24.09,34.31 23.82,34.14 C 22.09,36.82 18.77,37.26 16.72,37.03 C 15.96,36.94 15.48,37.14 15.17,37.4 C 14.92,37.6 14.78,37.87 14.72,38.08 C 15.42,38.62 15.49,39.43 15.42,39.8 L 15.39,40 H 12.1 L 12.13,39.73 C 12.33,37.43 13.62,35.73 14.26,35.15 L 14.34,35.07 L 14.45,35.08 C 15.54,35.16 16.59,34.78 17.42,34.25 C 17.84,33.98 18.19,33.69 18.45,33.41 C 18.72,33.12 18.89,32.87 18.95,32.68 C 19.1,32.3 19.41,31.73 19.73,31.2 C 19.83,31.02 19.95,30.84 20.06,30.67 A 35.9,35.9 0 0,1 17.02,32.15 C 16.25,32.48 15.47,32.78 14.73,32.99 C 14,33.19 13.31,33.32 12.73,33.3 A 3.96,3.96 0 0,1 9.79,32.12 A 2.8,2.8 0 0,1 9.62,28.4 A 2.95,2.95 0 0,1 11.76,27.37 C 12.6,27.3 13.23,27.62 13.67,28.04 C 14.11,28.45 14.37,28.97 14.47,29.32 L 13.98,29.46 C 13.9,29.17 13.68,28.74 13.32,28.4 A 1.91,1.91 0 0,0 11.8,27.86 C 10.93,27.93 10.36,28.28 10.01,28.71 C 9.65,29.14 9.51,29.68 9.51,30.15 C 9.51,30.6 9.68,31.25 10.17,31.79 C 10.65,32.32 11.45,32.77 12.74,32.81 C 13.24,32.83 13.88,32.71 14.59,32.51 C 15.29,32.31 16.06,32.03 16.82,31.71 C 18.32,31.06 19.78,30.28 20.68,29.75 C 22.58,27.95 25.37,27.21 26.55,27.05 A 6.87,6.87 0 0,0 29.8,25.08 L 30.2,25.38 A 7.36,7.36 0 0,1 26.68,27.53 H 26.64 C 25.52,27.68 22.83,28.4 21.03,30.1 C 20.81,30.42 20.48,30.93 20.16,31.45 A 9.67,9.67 0 0,0 19.43,32.85 C 19.33,33.12 19.11,33.43 18.83,33.74 A 6.06,6.06 0 0,1 14.53,35.58 A 7.02,7.02 0 0,0 12.66,39.51 H 14.94 C 14.94,39.19 14.79,38.71 14.29,38.39 L 14.16,38.3 L 14.18,38.14 C 14.24,37.82 14.43,37.37 14.85,37.02 A 2.47,2.47 0 0,1 16.78,36.54 C 18.8,36.77 21.97,36.3 23.5,33.69 L 23.61,33.49 L 23.82,33.59 C 24.22,33.76 24.75,34.15 25.07,34.75 C 25.37,35.34 25.47,36.12 25.07,37.05 C 25.3,37.42 25.7,37.93 26.19,38.4 C 26.72,38.91 27.35,39.35 28,39.5 H 29.96 A 1.27,1.27 0 0,0 29.66,38.93 C 29.43,38.67 29.01,38.43 28.27,38.43 H 28.21 L 28.16,38.4 A 2.98,2.98 0 0,1 27.35,37.77 C 27.08,37.47 26.85,37.07 26.86,36.6 V 36.49 L 26.96,36.42 C 27.51,35.97 28.48,34.45 27.39,32.08 L 27.25,31.78 L 27.59,31.74 C 28.59,31.62 30.29,31.62 32.12,31.96 C 33.96,32.31 35.97,33.01 37.6,34.32 C 39.2,35.62 40.3,36.77 41,37.69 C 41.62,38.47 41.97,39.1 42.12,39.51 H 44.13 A 1.41,1.41 0 0,0 42.68,38.43 H 42.5 L 42.44,38.26 C 41.7,36.09 39.05,30.98 34.44,28 A 20.92,20.92 0 0,1 30.3,24.64 L 19.64,22.62 C 19.7,23.28 20.19,24.41 21.97,24.99 L 27.47,26.01 L 27.37,26.5 L 21.84,25.47 H 21.83 C 19.53,24.72 19.05,23.09 19.13,22.3 L 19.16,22.03 L 29.79,24.04 A 9.12,9.12 0 0,1 28.19,21.09 L 17.01,18.85 C 17.16,19.59 17.84,20.78 19.8,21.15 L 26.65,22.47 L 26.55,22.96 L 19.7,21.64 C 17.18,21.16 16.48,19.41 16.47,18.54 V 18.24 L 28.04,20.55 A 16,16 0 0,1 27.62,17.63 L 14.27,14.65 C 14.39,15.08 14.63,15.61 15,16.09 A 3.26,3.26 0 0,0 17.26,17.36 L 24.69,18.83 L 24.59,19.31 L 17.19,17.85 A 3.77,3.77 0 0,1 14.6,16.39 C 14.05,15.69 13.78,14.89 13.7,14.36 L 13.63,14 Z M 37.35,16.24 L 37.55,16.25 A 7.58,7.58 0 0,1 41.73,18.22 L 41.81,18.29 V 18.99 L 45,21.5 L 44.28,22.72 L 44.05,22.5 A 0.93,0.93 0 0,0 43.51,22.3 C 43.29,22.28 43.12,22.34 43.04,22.47 A 0.57,0.57 0 0,0 42.92,22.79 C 42.92,22.88 42.94,22.97 42.99,23.05 C 43.09,23.23 43.29,23.36 43.41,23.42 L 43.67,23.54 L 42.91,24.67 L 42.71,24.55 C 41.71,23.99 40.98,23.95 40.47,24.1 C 40.03,24.23 39.73,24.49 39.57,24.72 A 8.21,8.21 0 0,1 40.59,32.5 L 40.13,32.3 A 7.75,7.75 0 0,0 39.06,24.87 L 38.96,24.75 L 39.04,24.61 C 39.24,24.25 39.66,23.81 40.33,23.63 A 3.3,3.3 0 0,1 42.75,24.01 L 42.95,23.71 C 42.81,23.61 42.66,23.47 42.55,23.3 A 0.98,0.98 0 0,1 42.41,22.78 C 42.41,22.58 42.48,22.38 42.62,22.18 C 42.85,21.87 43.22,21.78 43.55,21.8 C 43.75,21.82 43.96,21.88 44.15,21.97 L 44.35,21.62 L 41.3,19.23 V 18.5 A 7.2,7.2 0 0,0 37.72,16.77 L 37.4,18 L 37.12,17.88 A 5.85,5.85 0 0,0 33.65,17.58 L 34.1,18.54 L 33.83,18.63 C 33.43,18.76 32.8,19.08 32.23,19.58 C 31.73,20.02 31.29,20.6 31.11,21.32 H 32.02 L 31.94,21.62 C 31.84,22.03 31.51,23.09 31.03,24.09 L 30.57,23.89 C 30.94,23.11 31.22,22.3 31.37,21.81 H 30.51 L 30.55,21.53 C 30.71,20.53 31.27,19.76 31.89,19.21 A 5.57,5.57 0 0,1 33.41,18.26 L 32.96,17.29 L 33.22,17.19 C 34.03,16.91 34.89,16.89 35.62,16.99 C 36.19,17.06 36.69,17.19 37.06,17.32 L 37.35,16.24 Z M 31.19,39.79 C 30.66,36.47 31.29,33.79 31.68,32.85 L 32.14,33.03 C 31.8,33.87 31.2,36.37 31.66,39.51 H 33.86 C 33.8,39.11 33.51,38.52 32.66,38.31 L 32.47,38.26 V 38.06 C 32.49,37.18 32.91,35.08 34.5,33.67 L 34.84,34.04 A 6,6 0 0,0 32.99,37.89 A 1.94,1.94 0 0,1 34.39,39.77 L 34.37,40 H 31.23 L 31.19,39.8 Z" fill="rgb(254, 254, 253)"/>
</svg>
