<?xml version="1.0" encoding="UTF-8"?>
<!-- generated by Finnhub -->
<svg viewBox="0 0 55.5 55.5" xmlns="http://www.w3.org/2000/svg">
<path d="M 0,0 H 55.5 V 55.5 H 0 Z" fill="rgb(208, 33, 101)"/>
<path d="M 23.439999999999998,22.695 H 22.61 L 22.21,23.94 H 22.97 L 23.32,23.06 H 24.2 C 24.61,23.06 24.89,23.18 24.66,23.58 C 24.48,23.91 23.16,24.92 22.52,25.38 H 23.62 A 5.75,5.75 0 0,0 25.61,23.75 C 26.16,22.95 25.6,22.72 25.25,22.71 H 24.35 L 24.4,22.17 H 23.61 L 23.45,22.71 Z M 19,23.03 H 19.57 A 7.46,7.46 0 0,1 18.31,25.07 L 18.05,25.33 C 18.54,25.33 19.72,24.88 20.52,23.03 H 20.93 C 21,23.1 21.13,23.29 21.03,23.55 A 8.28,8.28 0 0,1 19.57,25.4 H 20.93 C 21.43,24.67 22.34,23.12 21.97,22.76 C 21.93,22.72 21.64,22.63 20.77,22.63 L 20.93,22.2 H 19.9 L 19.67,22.63 H 19.08 L 19.01,23.03 Z M 12.32,22.4 H 9.8 L 9.58,23.02 H 12.32 V 22.4 Z M 9.39,23.33 L 9.04,23.93 H 10.23 C 10.05,24.58 9.36,24.89 9.04,24.96 V 25.31 C 10.62,25.31 11.33,24.39 11.48,23.94 H 12.61 L 12.45,23.34 H 9.39 Z M 12.78,24.53 H 13.5 V 25.4 H 14 L 15,23.35 H 14.22 A 4.23,4.23 0 0,1 12.77,24.53 Z M 16.34,22.44 C 15.95,22.44 15.71,22.84 15.64,23.04 H 17.46 C 17.06,24.39 15.51,24.86 14.78,24.92 V 25.37 H 15.21 C 15.95,25.37 16.65,25.01 16.91,24.83 L 17.46,25.37 L 17.97,25.15 C 17.76,24.82 17.87,24.56 18.11,23.99 L 18.37,23.37 C 18.69,22.53 18.24,22.4 17.97,22.44 H 16.34 Z M 12.66,22.46 L 12.58,23.3 H 12.96 L 13.06,22.46 H 12.66 Z M 13.18,23.3 L 13.26,22.46 H 13.66 L 13.56,23.3 H 13.18 Z M 26.18,23.02 L 26.38,22.46 H 27.73 V 23.02 H 26.18 Z M 26.47,24.32 L 25.77,25.37 C 28.62,24.89 29.23,23.22 29.18,22.44 C 28.61,23.77 27.13,24.24 26.47,24.32 Z M 28.94,25.32 H 29.95 L 30.3,24.48 H 31.93 L 32.1,23.82 H 30.43 L 30.81,22.44 H 29.86 L 28.94,25.33 Z M 34.15,25.32 H 33.15 L 34.06,22.44 H 35.01 L 34.63,23.82 H 36.87 L 36.7,24.48 H 34.5 L 34.15,25.33 Z M 36.13,23.55 H 35.64 L 35.96,22.45 H 36.52 L 36.13,23.55 Z M 40.23,24.28 H 40.73 L 41.11,23.19 H 40.55 L 40.23,24.28 Z M 46.67,23.55 H 46.17 L 46.5,22.45 H 47.05 L 46.67,23.55 Z M 36.52,23.55 H 37 L 37.38,22.45 H 36.83 L 36.51,23.55 Z M 41.6,24.28 H 41.1 L 41.43,23.19 H 41.98 L 41.6,24.28 Z M 47.05,23.55 H 47.54 L 47.92,22.45 H 47.37 L 47.05,23.55 Z M 37.75,23.05 L 37.97,22.47 H 40.46 L 40.26,23.05 H 37.76 Z M 37.53,23.34 L 37.38,23.89 H 38.92 A 2.46,2.46 0 0,1 36.85,24.89 L 36.67,25.42 H 37.3 A 3,3 0 0,0 40.14,23.34 H 37.53 Z M 42.23,23.21 H 42.88 C 42.7,23.9 41.98,25.27 40.53,25.27 H 39.96 L 40.13,24.78 H 40.93 A 1.87,1.87 0 0,0 42.23,23.21 Z M 43.84,22.44 L 43.05,23.52 H 43.75 L 44.29,23.02 H 44.92 C 44.53,24.43 43.13,24.79 42.48,24.8 L 42.1,25.37 H 42.89 C 45.16,25.37 45.96,23.42 46.08,22.44 H 43.84 Z M 16.64,26 H 10.38 L 9.91,27.55 H 14.66 L 13.3,32.4 H 8.5 L 8,34 H 14.69 C 15.35,34 15.93,33.56 16.14,32.91 L 17.81,27.66 C 18.07,26.84 17.48,26 16.65,26 Z M 20.69,26 L 20.15,27.45 H 24.27 C 23.11,30.82 20.26,32.55 18.97,32.85 L 18.46,34 C 20.66,33.94 22.6,32.96 23.36,32.58 L 23.43,32.55 L 25.56,34 L 26.45,31.91 L 25.15,31.15 C 26.29,30.21 27.22,28.54 27.8,27.24 A 0.88,0.88 0 0,0 27,26 H 20.69 Z M 30.36,26 H 36.86 C 37.15,26.04 37.62,26.4 37.15,27.52 H 34.43 L 34,29 H 36.16 C 36.46,29.1 36.99,29.63 36.62,30.55 H 33.53 L 33.02,32.45 H 36.16 L 35.66,34 H 31.85 C 30.87,34 30.14,33.03 30.35,32 L 30.67,30.55 H 28.64 L 29.05,29 H 31.13 L 31.57,27.52 H 29.93 L 30.37,26 Z M 45.82,26 H 40.14 L 39.57,27.52 H 43.71 C 42.22,31.15 39.29,32.8 38.01,32.95 V 34 C 39.21,34 40.88,33.3 42.01,32.83 L 42.81,32.5 L 45.13,34 L 45.82,31.78 L 44.64,31.23 C 48.25,27.35 46.94,26.13 45.82,26 Z" fill="rgb(254, 254, 253)"/>
<path d="M 48.99,20.985 H 7 V 35 H 49 V 21 Z M 6,20 V 36 H 50 V 20 H 6 Z" fill="rgb(254, 254, 253)" fill-rule="evenodd"/>
</svg>
