<?xml version="1.0" encoding="UTF-8"?>
<!-- generated by Finnhub -->
<svg viewBox="0 0 55.5 55.5" xmlns="http://www.w3.org/2000/svg">
<path d="M 0,0 H 55.5 V 55.5 H 0 Z" fill="rgb(1, 178, 234)"/>
<path d="M 25.97,31.985 L 26,32.5 A 5.5,5.5 0 1,1 18.57,27.35 L 16.87,24.81 A 8.5,8.5 0 1,0 29,32 H 25.99 Z" fill="rgb(239, 242, 248)"/>
<path d="M 34.49,26.985 A 5.5,5.5 0 1,1 30.99,36.73 L 29.26,39.2 A 8.5,8.5 0 1,0 34.5,24 C 31.74,24 30.1,26 27.5,26 A 5.5,5.5 0 1,1 32.8,22 H 35.87 A 8.5,8.5 0 1,0 27.5,29 C 30.15,29 31.97,27 34.5,27 Z" fill="rgb(239, 242, 248)"/>
</svg>
