<?xml version="1.0" encoding="UTF-8"?>
<!-- generated by Finnhub -->
<svg viewBox="0 0 55.5 55.5" xmlns="http://www.w3.org/2000/svg">
<path d="M 0,0 H 55.5 V 55.5 H 0 Z" fill="rgb(239, 242, 248)"/>
<path d="M 21.064,29.381999999999998 L 28,36 H 13.988 L 21.074,29.397 Z M 28,19 L 21.1,18.91 L 15.745,24.145 L 21.075,29.397 L 28,22.47 V 19 Z M 28,28 H 41 L 28,40.476 V 28 Z M 28,19 V 12.001 L 35.188,19 H 28 Z" fill="rgb(205, 212, 2)"/>
<path d="M 27.99,35.985 L 21.074,29.397 L 28,22.459 V 36 Z M 28,19 V 12.001 L 21,19 H 28 Z" fill="rgb(139, 188, 32)"/>
<path d="M 27.99,35.985 V 44 L 20.325,36 H 28 Z M 28,19 V 28 H 40.996 L 31.792,19 H 28 Z M 32.655,36 H 38.004 V 30.88 L 32.654,36 Z" fill="rgb(1, 165, 228)"/>
</svg>
