<?xml version="1.0" encoding="UTF-8"?>
<!-- generated by Finnhub -->
<svg viewBox="0 0 55.5 55.5" xmlns="http://www.w3.org/2000/svg">
<path d="M 0,0 H 55.5 V 55.5 H 0 Z" fill="rgb(239, 242, 248)"/>
<path d="M 22.66,12.805 A 34.87,34.87 0 0,0 17.25,17.26 A 32.7,32.7 0 0,0 10,28 A 29.38,29.38 0 0,0 11.9,31.87 A 48,48 0 0,1 26.6,15.12 A 44.75,44.75 0 0,0 22.68,12.82 M 33.33,43.18 A 34.96,34.96 0 0,0 38.74,38.75 A 32.68,32.68 0 0,0 46,28 A 29.37,29.37 0 0,0 44.09,24.13 A 48.06,48.06 0 0,1 29.4,40.88 C 30.67,41.72 31.98,42.48 33.33,43.18 Z" fill="rgb(97, 159, 65)"/>
<path d="M 12.81,33.315 A 34.87,34.87 0 0,0 17.25,38.74 A 32.7,32.7 0 0,0 28,46 A 29.31,29.31 0 0,0 31.86,44.09 A 47.91,47.91 0 0,1 15.11,29.4 A 44.36,44.36 0 0,0 12.81,33.33 M 43.17,22.67 A 34.77,34.77 0 0,0 38.74,17.25 A 32.7,32.7 0 0,0 27.99,10 A 29.31,29.31 0 0,0 24.13,11.91 A 48.06,48.06 0 0,1 40.88,26.6 C 41.71,25.33 42.48,24.02 43.18,22.68" fill="rgb(100, 91, 87)"/>
<path d="M 21.09,28.705 C 20.2,29.62 19.46,30.41 18.86,31.06 A 49.23,49.23 0 0,0 28,39.61 C 28.7,39.09 29.4,38.55 30.09,37.98 A 72.44,72.44 0 0,1 21.1,28.72 Z" fill="rgb(97, 159, 65)"/>
<path d="M 28.689999999999998,34.885 C 29.6,35.8 30.4,36.54 31.05,37.14 A 49.26,49.26 0 0,0 39.6,28 C 39.08,27.3 38.54,26.6 37.97,25.91 A 72.48,72.48 0 0,1 28.71,34.9 Z" fill="rgb(100, 91, 87)"/>
<path d="M 34.89,27.275 C 35.78,26.39 36.53,25.59 37.13,24.94 A 49.3,49.3 0 0,0 28,16.4 C 27.3,16.92 26.6,17.47 25.91,18.03 A 72.47,72.47 0 0,1 34.91,27.3" fill="rgb(97, 159, 65)"/>
<path d="M 27.27,21.085 C 26.38,20.21 25.59,19.46 24.94,18.86 A 49.35,49.35 0 0,0 16.39,28 C 16.91,28.7 17.45,29.4 18.02,30.1 A 72.54,72.54 0 0,1 27.28,21.1 Z" fill="rgb(100, 91, 87)"/>
</svg>
