<?xml version="1.0" encoding="UTF-8"?>
<!-- generated by Finnhub -->
<svg viewBox="0 0 55.5 55.5" xmlns="http://www.w3.org/2000/svg">
<path d="M 0,0 H 55.5 V 55.5 H 0 Z" fill="rgb(1, 123, 192)"/>
<path d="M 39.17,22.535 C 40.68,22.65 46.86,23.07 51,26.5 L 50,28 C 45.83,24.6 38.88,24.31 38.8,24.31 H 38.48 L 38.23,24.08 C 37.98,23.86 33.31,19.78 26.86,19.78 C 19.18,19.78 13.91,25.38 13.64,25.67 H 13.63 L 13.33,26.01 L 5,25 V 23.5 L 12.63,24.16 C 13.96,22.83 19.25,18 26.86,18 C 33.33,18 38.06,21.63 39.18,22.55 Z M 38,35 H 37 V 27 H 38 V 35 Z M 12,31 L 11.97,30.96 C 11.74,30.56 11.41,30 10.11,30 C 8.67,30 7.98,30.86 8,32 C 8.02,33.14 8.9,34 10.19,34 C 11.12,34 11.72,33.59 12,33 H 13 A 2.86,2.86 0 0,1 10.19,35 A 3.1,3.1 0 0,1 7,32 C 7,30.45 8.3,29 10.19,29 A 2.9,2.9 0 0,1 13.05,31 H 12 Z M 19,33.97 C 18.6,34.67 17.76,34.99 17,34.99 C 15.09,34.99 14,33.53 14,32.02 C 14,30.63 14.97,29 17,29 C 17.79,29 18.57,29.33 18.98,29.95 H 19 V 29 H 20 V 35 H 19 V 33.97 Z M 17,30 C 15.7,30 15,31.12 15,32.02 A 2,2 0 0,0 19.02,32.02 C 19.02,30.8 18.1,30 17,30 Z M 33,35 C 33.76,35 34.6,34.7 35,34 V 35 H 36 V 29 H 35 V 29.95 H 34.98 C 34.57,29.33 33.78,29 33,29 C 30.97,29 30,30.64 30,32.02 C 30,33.53 31.09,35 33,35 Z M 31,32.02 C 31,31.12 31.7,30 33,30 C 34.09,30 35,30.8 35,32.02 C 35,33.11 34.11,34 33,34 C 31.88,34 31,33.04 31,32.02 Z M 40.1,32.5 A 1.9,1.9 0 0,0 42,34 C 42.81,34 43.41,33.64 43.68,33.15 H 44.78 A 2.86,2.86 0 0,1 42,35 C 40.34,35 39,33.61 39,32 C 39,30.29 40.36,29 42,29 A 3.04,3.04 0 0,1 44.97,32.5 H 40.1 Z M 42,30 C 43.07,30 43.85,30.8 43.9,31.64 H 40.1 C 40.16,30.81 40.94,30 42,30 Z M 47.23,30.62 C 47.24,30.39 47.43,30 48.08,30 C 48.73,30 48.98,30.51 49,30.7 H 50 C 50,30.26 49.53,29 48.09,29 S 46.32,30.08 46.29,30.57 C 46.25,31.6 47.1,31.94 47.86,32.24 C 48.47,32.49 49.02,32.71 49,33.24 C 49,33.47 48.85,34 48.01,34 C 47.2,34 47.02,33.46 47,33.17 H 46 C 46.05,33.73 46.38,35 48.02,35 C 49.66,35 49.98,33.77 50,33.31 C 50.05,32.17 49.05,31.75 48.23,31.41 C 47.68,31.17 47.22,30.98 47.23,30.62 Z M 27.08,30 C 26.42,30 26.24,30.39 26.23,30.62 C 26.22,30.98 26.68,31.17 27.23,31.41 C 28.05,31.75 29.05,32.17 29,33.31 C 28.98,33.77 28.66,35 27.02,35 S 25.05,33.73 25,33.17 H 26 C 26.02,33.46 26.2,34 27.01,34 C 27.85,34 27.99,33.47 28,33.25 C 28.02,32.71 27.47,32.49 26.86,32.25 C 26.1,31.95 25.26,31.6 25.3,30.57 C 25.32,30.07 25.65,29 27.09,29 A 1.87,1.87 0 0,1 29,30.7 H 28 A 0.9,0.9 0 0,0 27.08,30 Z M 23.4,29 C 22.57,29 22.28,29.4 22.1,29.66 A 2.2,2.2 0 0,1 22.01,29.76 H 22 V 29 H 21 V 35 H 22 V 31.71 C 22,31.26 22,30.03 23.25,30.03 C 23.36,30.03 23.46,30.05 23.57,30.1 L 24,29.13 C 23.8,29.05 23.6,29 23.4,29 Z" fill="rgb(239, 242, 248)" fill-rule="evenodd"/>
</svg>
