<?xml version="1.0" encoding="UTF-8"?>
<!-- generated by Finnhub -->
<svg viewBox="0 0 55.5 55.5" xmlns="http://www.w3.org/2000/svg">
<path d="M 0,0 H 55.5 V 55.5 H 0 Z" fill="rgb(239, 242, 248)"/>
<path d="M 19.99,19.985 V 24 H 16.28 A 4.07,4.07 0 0,0 12.18,28 C 12.18,30.18 14.01,32 16.28,32 H 20 V 36 H 15.29 A 8.17,8.17 0 0,1 7,27.98 C 7,23.58 10.71,20 15.29,20 H 20 Z M 47,24 V 20 H 42.29 C 37.7,20 34,23.58 34,28 S 37.71,36 42.29,36 H 47 V 32 H 40.1 C 39.44,32 38.91,31.49 38.91,30.86 C 38.91,30.23 39.44,29.5 40.09,29.5 H 47 V 26.5 H 40.14 C 39.46,26.5 38.91,25.9 38.91,25.25 S 39.46,24 40.14,24 H 47 Z M 22,36 V 32 H 28.73 C 29.39,32 29.92,31.5 29.92,30.82 C 29.92,30.16 29.39,29.5 28.73,29.5 H 25.71 C 23.11,29.5 21,27.46 21,24.81 C 21,22.15 23.1,20.01 25.7,20.01 H 33 V 24 H 26.2 A 1.2,1.2 0 0,0 25.03,25.22 C 25.03,25.88 25.56,26.5 26.2,26.5 H 29.3 C 31.9,26.5 34,28.56 34,31.2 C 34,33.85 31.9,36 29.3,36 H 22 Z" fill="rgb(162, 12, 32)"/>
</svg>
