<?xml version="1.0" encoding="UTF-8"?>
<!-- generated by Finnhub -->
<svg viewBox="0 0 55.5 55.5" xmlns="http://www.w3.org/2000/svg">
<path d="M 0,0 H 55.5 V 55.5 H 0 Z" fill="rgb(239, 242, 248)"/>
<path d="M 42.99,12.985 V 40 H 9 L 28.75,13 H 43 Z M 21,34 H 23.15 L 33.35,20.55 L 33,20 L 21,34 Z M 26.88,34 H 25 L 34.12,21.82 L 34.5,22.5 L 26.88,34 Z M 28,34 H 29.89 L 35.94,24.74 L 35.5,24 L 28,34 Z M 32.67,34 H 31 L 36.55,26 L 37,26.84 L 32.67,34 Z M 34,34 H 35.77 L 38.57,28.98 L 38,28 L 34,34 Z M 38.59,34 H 37 L 39.3,30 L 39.88,31.2 L 38.58,34 Z M 40,34 H 41.75 L 42,33.57 L 41.04,32 L 40,34 Z" fill="rgb(1, 94, 172)" fill-rule="evenodd"/>
</svg>
