<?xml version="1.0" encoding="UTF-8"?>
<!-- generated by Finnhub -->
<svg viewBox="0 0 55.5 55.5" xmlns="http://www.w3.org/2000/svg">
<path d="M 0,0 H 55.5 V 55.5 H 0 Z" fill="rgb(23, 149, 225)"/>
<path d="M 27.99,43.985 A 16,16 0 1,0 13.1,22.15 C 10.07,23.05 10.44,25.69 11.02,26.93 C 8.52,28.54 10.12,30.84 11.24,31.79 C 9.83,34.81 13.05,36.72 15.03,37.37 A 15.98,15.98 0 0,0 28,44 Z M 25.34,29.37 C 17.92,29.37 14.34,27.47 12.94,25.93 C 12.94,26.67 12.96,27.47 13.02,28.32 C 15.22,29.52 19.52,30.92 26.12,30.75 C 34.56,30.53 39.09,27.79 40.3,26.45 C 37.96,27.14 34.04,27.37 32.38,27.39 L 33.27,28.38 C 31.73,29.18 27.34,29.37 25.34,29.37 Z M 13.66,32.57 C 13.52,31.94 13.4,31.32 13.3,30.71 C 15.45,32.17 19.64,32.95 22.68,33.01 C 25.84,33.05 28.93,32.76 30.08,32.61 C 29.86,32.33 29.39,31.77 29.26,31.77 C 31.77,31.86 35.89,31.55 37.64,31.39 C 35.65,32.97 30.08,34.35 22.68,34.35 C 18.32,34.35 15.32,33.41 13.66,32.58 Z M 15.04,36.94 C 14.79,36.34 14.58,35.75 14.38,35.17 C 18.33,37.05 24.53,36.97 27.38,36.64 L 26.75,35.84 C 28.37,36.04 33.06,36.12 35.21,36.14 C 34.89,36.44 29.91,38.32 23.21,38.19 C 18.85,38.1 16.23,37.44 15.04,36.94 Z M 14.48,36.59 C 13.09,35.91 10.58,34.06 11.68,32.14 L 12.64,32.7 C 12.85,33.44 13.51,35.25 14.48,36.59 Z M 11.25,27.34 L 11.86,28.01 C 11.64,28.74 12.14,31.03 12.42,32.08 C 11.64,31.43 10.09,29.93 10.15,29.15 C 10.21,28.38 10.91,27.62 11.25,27.34 Z M 12.72,22.62 C 12.14,22.97 11,23.96 11.05,25.08 C 11.11,26.21 11.69,27.13 11.97,27.45 C 12.04,26.47 12.29,24.12 12.72,22.62 Z M 33.3,18.46 L 34.57,15 L 31.1,13.55 L 29.84,17 L 33.3,18.45 Z M 32.96,17.79 L 33.92,15.17 L 31.47,14.15 L 30.51,16.76 L 32.96,17.79 Z M 31.56,14.47 L 33.61,15.31 L 33.47,15.71 L 32.73,15.41 L 32.59,15.79 L 33.34,16.13 L 33.22,16.53 L 32.44,16.23 L 32.26,16.74 L 32.56,16.84 L 32.65,16.54 L 33.13,16.74 L 32.93,17.44 L 30.83,16.67 L 30.95,16.24 L 31.82,16.52 L 31.96,16.01 L 31.15,15.71 L 31.29,15.27 L 32.12,15.57 L 32.29,15.15 L 31.43,14.79 L 31.56,14.47 Z M 24.91,13.59 L 26.08,17.09 L 22.58,18.42 L 21.41,14.93 L 24.91,13.59 Z M 24.53,14.18 L 25.41,16.82 L 22.93,17.77 L 22.05,15.12 L 24.53,14.18 Z M 24.38,14.49 L 22.31,15.29 L 22.41,15.64 L 23.28,15.3 L 23.42,15.74 L 22.6,16.09 L 22.77,16.52 L 23.57,16.18 L 23.77,16.66 L 22.95,17.06 L 23.13,17.46 L 25.17,16.56 L 24.89,15.91 L 24.41,16.09 L 24.52,16.39 L 24.24,16.52 L 24.06,16 L 24.83,15.69 L 24.68,15.29 L 23.9,15.57 L 23.77,15.18 L 24.52,14.9 L 24.38,14.5 Z M 19.92,19.81 L 17.8,18.18 L 16.82,19.64 L 16.35,19.33 L 16.08,19.8 L 16.51,20.09 L 15.62,21.4 L 17.73,23.04 L 18.73,21.58 L 19.31,21.98 L 19.59,21.5 L 19.03,21.13 L 19.92,19.81 Z M 16.25,21.17 L 16.83,20.31 L 18.4,21.36 L 17.74,22.33 L 16.24,21.17 Z M 17.14,19.86 L 18.71,20.91 L 19.29,20.05 L 17.79,18.89 L 17.14,19.86 Z M 27.6,22.54 V 22 H 31.47 V 22.54 H 30 V 26 H 29 V 22.54 H 27.6 Z M 25,25.77 C 24.59,25.92 24.12,26 23.62,26 C 21.99,26 20.67,25.1 20.67,24 S 21.99,22 23.62,22 C 24.12,22 24.59,22.08 25,22.23 V 22.98 A 2.11,2.11 0 0,0 23.58,22.46 C 22.53,22.46 21.68,23.16 21.68,24.02 C 21.68,24.88 22.53,25.57 23.58,25.57 C 24.15,25.57 24.65,25.37 25,25.05 V 25.77 Z M 26,22 H 27 V 26 H 26 V 22 Z M 34.15,22 C 34.99,22.02 35.54,22.2 35.71,22.29 L 35.48,22.69 C 35.26,22.6 34.7,22.41 34.15,22.39 C 33.47,22.36 33.04,22.57 33,22.92 C 32.97,23.2 33.44,23.4 33.68,23.47 C 34.46,23.6 36.02,24.04 36,24.74 C 35.98,25.61 34.69,25.99 33.79,26 C 33.07,26.01 32.29,25.77 32,25.65 L 32.22,25.15 C 32.52,25.31 33.25,25.59 33.68,25.59 C 34.26,25.59 35.04,25.45 35,24.98 C 34.97,24.53 34.45,24.41 34.1,24.32 L 34.04,24.31 L 33.94,24.28 C 33.42,24.16 31.96,23.82 32,23.13 C 32.05,22.39 33.1,21.98 34.15,22 Z M 38.13,18.87 C 37.2,19.64 36.13,20.02 35.7,20.11 L 36.04,20.65 L 37.66,19.87 L 37.85,20.11 L 36.82,20.88 L 36.6,20.65 L 36.22,20.88 L 36.82,21.44 L 38.52,20.22 L 38.12,19.6 L 38.52,19.3 L 40.35,21.67 L 40.67,21.44 L 39.81,20.34 L 40.17,20.11 L 39.81,19.6 L 39.36,19.87 L 38.94,19.3 L 39.36,19.03 L 39.08,18.53 L 38.69,18.78 L 38.23,18.28 L 37.85,18.54 L 38.13,18.87 Z M 38.84,20.3 L 40.17,21.67 L 39.88,21.91 L 39.36,21.44 L 38.94,21.74 L 39.51,22.2 L 39.19,22.51 L 38.73,22.25 L 37.95,23.33 C 37.45,22.61 38.49,21.55 39.08,21.11 L 38.84,20.88 L 37.52,21.91 L 37.76,22.25 L 37.44,22.51 L 36.95,21.75 L 38.85,20.3 Z" fill="rgb(254, 254, 253)" fill-rule="evenodd"/>
<path d="M 16.139999999999997,27.675 A 16.56,16.56 0 0,1 16.15,24.09 L 16.65,24.14 C 16.57,24.91 16.47,26.64 16.65,27.6 L 16.15,27.69 Z M 39.63,26.19 C 39.63,25.49 39.56,24.53 39.53,24.14 L 40.03,24.1 C 40.06,24.5 40.13,25.47 40.13,26.2 H 39.63 Z M 21.29,28 C 21.26,27.57 21.26,27.18 21.26,26.97 H 21.76 C 21.76,27.17 21.76,27.57 21.79,28 H 27.72 V 27.1 H 28.22 V 28 H 32.27 V 28.5 H 28.22 V 28.87 H 27.72 V 28.5 H 21.84 L 21.87,28.83 L 21.38,28.9 A 10.5,10.5 0 0,1 21.33,28.5 H 17.87 V 28 H 21.29 Z M 39.62,28 V 27.64 H 40.12 V 28 H 44 V 28.5 H 40.1 C 40,29.77 39.7,31.5 39.05,33.41 L 39.31,33.48 C 40.66,33.83 42.03,34.25 42.83,34.64 L 42.61,35.09 A 21.54,21.54 0 0,0 38.88,33.89 A 22.95,22.95 0 0,1 36.62,38.47 C 37.53,38.77 38.48,39.14 39.37,39.59 L 39.14,40.03 C 38.24,39.57 37.26,39.2 36.34,38.9 C 35.44,40.22 34.36,41.5 33.05,42.68 L 33.65,42.98 L 33.4,43.42 A 12.4,12.4 0 0,0 30.22,42.23 C 29.47,42.1 28.72,42.06 27.98,42.07 C 27.28,42.09 26.62,42.17 25.99,42.27 C 24.69,42.48 23.07,43.1 22.35,43.42 L 22.15,42.97 L 23.05,42.6 C 22.56,42.17 21.91,41.5 21.28,40.8 A 65,65 0 0,1 19.48,38.7 L 19.05,38.83 L 18.15,39.19 C 17.51,39.45 16.86,39.75 16.59,39.89 L 16.37,39.44 A 31.71,31.71 0 0,1 18.88,38.36 C 19.15,38.27 19.39,38.19 19.54,38.18 L 19.68,38.16 L 19.76,38.26 C 20.2,38.8 20.92,39.66 21.66,40.46 C 22.39,41.28 23.13,42.04 23.59,42.39 V 42.4 C 24.19,42.19 24.89,41.97 25.55,41.84 L 23.81,38.96 L 24.24,38.7 L 26.08,41.74 A 14.8,14.8 0 0,1 27.72,41.58 V 38.58 H 28.22 V 41.58 C 28.85,41.57 29.5,41.61 30.14,41.71 C 30.62,40.97 31.64,39.35 32.51,37.74 L 32.58,37.61 H 32.74 A 14.16,14.16 0 0,1 36.13,38.31 C 37.12,36.79 37.86,35.23 38.39,33.77 A 33.49,33.49 0 0,0 35.74,33.22 L 35.82,32.72 C 36.45,32.82 37.47,33.02 38.56,33.29 C 39.2,31.43 39.5,29.74 39.6,28.49 H 38.81 V 27.99 H 39.62 Z M 35.83,38.75 C 35.68,38.7 35.53,38.65 35.37,38.62 C 34.3,38.32 33.39,38.16 32.87,38.12 C 32.07,39.58 31.17,41.03 30.67,41.82 C 31.25,41.95 31.93,42.19 32.55,42.46 C 33.85,41.31 34.95,40.04 35.83,38.75 Z M 34.05,31.18 L 34.34,29.83 L 34.83,29.93 L 34.53,31.28 L 34.05,31.18 Z M 16.73,32.05 C 16.57,31.55 16.36,30.65 16.28,30.28 L 16.77,30.17 C 16.85,30.55 17.05,31.42 17.21,31.89 L 16.73,32.05 Z M 21.77,32.67 L 21.57,31.27 L 22.07,31.19 L 22.27,32.59 L 21.77,32.67 Z M 27.72,32.63 V 31.23 H 28.22 V 32.63 H 27.72 Z M 33.02,35.76 C 33.2,35.28 33.52,34.1 33.66,33.56 L 34.14,33.68 C 34.01,34.21 33.68,35.43 33.48,35.94 L 33.01,35.76 Z M 15.56,34.16 L 14.1,34.62 L 13.95,34.14 L 15.41,33.68 L 15.56,34.16 Z M 17.43,34.48 A 0.42,0.42 0 0,1 17.41,34.38 H 17.91 V 34.36 L 17.92,34.4 L 17.98,34.56 A 11.2,11.2 0 0,0 18.64,35.96 L 18.22,36.24 A 7.81,7.81 0 0,1 17.42,34.48 Z M 17.91,34.35 Z M 22.85,36.55 L 22.29,34.95 L 22.76,34.78 L 23.32,36.39 L 22.85,36.56 Z M 27.72,35.72 V 34.86 H 28.22 V 35.72 H 27.72 Z M 27.78,20.19 V 17.97 H 28.28 V 20.19 C 29.82,20.17 31.52,20.03 33.32,19.69 L 33.13,19.11 L 33.61,18.96 L 33.81,19.59 L 34.47,19.45 L 34.58,19.94 L 33.96,20.07 L 34.39,21.45 L 33.91,21.6 L 33.47,20.17 C 31.62,20.52 29.87,20.67 28.27,20.69 V 21.7 H 27.77 V 20.7 A 26.6,26.6 0 0,1 22.72,20.23 L 22.3,21.61 L 21.82,21.47 L 22.22,20.12 L 21.56,19.94 L 21.7,19.46 L 22.37,19.64 L 22.57,18.97 L 23.05,19.11 L 22.86,19.75 C 24.06,19.98 25.76,20.19 27.78,20.2 Z" fill="rgb(23, 149, 225)"/>
</svg>
