<?xml version="1.0" encoding="UTF-8"?>
<!-- generated by Finnhub -->
<svg viewBox="0 0 55.5 55.5" xmlns="http://www.w3.org/2000/svg">
<path d="M 0,0 H 55.5 V 55.5 H 0 Z" fill="rgb(239, 242, 248)"/>
<path d="M 39.79,38.685 C 42.56,34.95 22.45,34.15 22.95,41.5 C 24.41,36.12 30.31,40.18 33.8,40.6 C 35.97,40.86 36.52,40.62 36.64,40.32 C 36.94,39.68 39.8,38.69 39.8,38.69 V 38.7 Z M 41.5,19.08 C 34.87,12.35 18.64,19.16 18.66,22.9 C 22.25,18.96 28.76,19.76 33.32,20.78 C 35.31,21.2 37.19,22.02 38.86,23.18 H 40.66 C 41.07,22.05 41.49,20.33 41.5,19.08 Z M 43.99,27.4 C 44.09,29.22 43.46,32 42.99,32.92 C 42.53,33.83 42.91,33.07 42.87,33.14 C 41.18,31.57 38.4,30.29 35.23,29.78 C 30.21,28.98 23.05,28.85 19.43,33.36 C 21.11,27.95 37.8,20.92 43.99,27.4 Z" fill="url(#b)"/>
<path d="M 41.89,35.755 C 38.7,35.71 35.5,35.18 32.44,34.21 C 21.81,30.91 14.97,23.41 17.16,17.46 C 18.06,15.02 20.36,13.22 23.49,12.18 C 23.7,12.11 23.93,12.05 24.16,12 C 22.38,12.66 21.08,13.69 20.49,15.04 C 18.79,19 23.96,24.31 31.62,26.74 C 36.18,28.2 40.71,28.34 43.99,27.4 V 27.78 C 43.99,30.58 43.28,33.33 41.91,35.77 Z M 31.9,43.5 C 31.82,43.5 32.68,43.3 32.6,43.3 C 24.14,44.33 16.18,41.27 12.66,32.86 A 16.22,16.22 0 0,0 18.51,40.92 A 15.99,15.99 0 0,0 31.9,43.5 Z M 12.27,31.52 L 12.24,31.36 C 12.24,31.42 12.26,31.47 12.27,31.52 Z M 12.18,31.12 L 12.15,30.99 L 12.18,31.13 Z M 35.04,42.33 C 36.85,41.43 38.48,40.18 39.84,38.67 C 37.2,38.89 34.54,38.75 31.96,38.24 C 25.06,37.01 18.91,33.7 15.61,29.51 C 12.31,25.32 12.91,20.35 16.49,16.35 C 14.16,18.73 12.15,22.25 12.01,25.75 C 11.91,28.25 12.91,30.79 14.73,33.12 C 18.15,37.46 24.06,40.58 31.21,41.86 C 32.48,42.09 33.76,42.24 35.04,42.32 V 42.33 Z M 43.61,24.28 A 16.22,16.22 0 0,0 41.45,19.03 C 39.25,19.73 35.58,19.38 32.33,18.03 C 29.08,16.7 27.26,14.74 27.72,13.3 C 27.91,12.77 28.28,12.33 28.77,12.05 C 27.94,12.24 27.15,12.6 26.47,13.11 C 23.7,15.31 26.37,19.29 32.41,21.98 A 25.64,25.64 0 0,0 43.61,24.27 V 24.28 Z M 35.71,13.35 C 35.19,13.1 34.64,12.9 34.07,12.74 C 34.24,12.79 34.39,12.86 34.55,12.92 C 35.78,13.46 36.29,14.12 35.68,14.38 C 35.08,14.65 33.58,14.42 32.36,13.88 C 31.13,13.35 30.62,12.69 31.23,12.43 L 31.39,12.38 V 12.35 C 31.12,12.36 30.86,12.41 30.61,12.51 C 29.66,12.91 30.41,13.95 32.28,14.81 C 34.15,15.68 36.43,16.04 37.38,15.64 C 38.34,15.24 37.59,14.21 35.72,13.34 Z" fill="url(#a)"/>
<defs>
<linearGradient id="b" x1="20.38" x2="38.97" y1="25.25" y2="32.42" gradientUnits="userSpaceOnUse">
<stop stop-color="rgb(179, 110, 2)" offset="0"/>
<stop stop-color="rgb(180, 125, 2)" offset=".37"/>
<stop stop-color="rgb(246, 225, 141)" offset=".63"/>
<stop stop-color="rgb(246, 225, 141)" offset=".68"/>
<stop stop-color="rgb(180, 125, 2)" offset=".85"/>
<stop stop-color="rgb(179, 110, 2)" offset="1"/>
</linearGradient>
<linearGradient id="a" x1="15.83" x2="37.51" y1="23.4" y2="31.06" gradientUnits="userSpaceOnUse">
<stop stop-color="rgb(49, 89, 91)" offset="0"/>
<stop stop-color="rgb(58, 156, 163)" offset=".2"/>
<stop stop-color="rgb(176, 220, 224)" offset=".38"/>
<stop stop-color="rgb(104, 179, 166)" offset=".68"/>
<stop stop-color="rgb(1, 55, 116)" offset="1"/>
</linearGradient>
</defs>
</svg>
