<?xml version="1.0" encoding="UTF-8"?>
<!-- generated by Finnhub -->
<svg viewBox="0 0 55.5 55.5" xmlns="http://www.w3.org/2000/svg">
<path d="M 0,0 H 55.5 V 55.5 H 0 Z" fill="rgb(239, 242, 248)"/>
<path d="M 11.99,27.985 A 16,16 0 1,1 44,28 A 16,16 0 0,1 12,28 Z M 13.4,28 C 13.4,36.1 19.9,42.6 28,42.6 S 42.6,36.1 42.6,28 S 36.1,13.4 28,13.4 S 13.4,19.9 13.4,28 Z M 33.42,15.44 A 13.63,13.63 0 0,0 22.6,15.43 C 22.35,15.56 22,15.82 22,16.23 C 22,16.63 22.3,16.76 22.8,16.97 C 23.19,17.13 23.7,17.35 24.26,17.8 A 4.58,4.58 0 0,1 26,21.49 V 41.54 A 14.26,14.26 0 0,0 30,41.54 V 21.49 C 30,20.03 30.58,18.72 31.74,17.79 A 5.85,5.85 0 0,1 33.21,16.97 C 33.7,16.76 34.01,16.62 34.01,16.22 S 33.67,15.57 33.42,15.44 Z M 22,18.1 C 22.31,18.23 22.94,18.5 23.44,18.85 A 3.48,3.48 0 0,1 25,21.9 V 41.3 A 16.05,16.05 0 0,1 22,40.31 V 18.1 Z M 31,41.28 V 21.88 C 31,20.54 31.53,19.6 32.56,18.85 A 7.5,7.5 0 0,1 34,18.1 V 40.3 C 33.05,40.71 32.05,41.04 31,41.28 Z M 14.32,28 C 14.32,32.86 17.02,37.13 21,39.55 V 29.08 C 19.38,29.12 18.73,30.06 18.55,30.43 L 18.48,30.56 C 18.36,30.82 18.26,31.04 18.02,31.04 C 17.55,31.04 17,29.74 17,28.13 S 17.55,25.21 18.02,25.21 C 18.26,25.21 18.36,25.44 18.48,25.69 L 18.55,25.83 C 18.73,26.19 19.38,27.13 21,27.18 V 16.45 A 13.6,13.6 0 0,0 14.32,28 Z M 39.27,30.56 A 6,6 0 0,1 39.33,30.43 C 39.51,30.07 40.09,29.16 41.64,29.08 A 13.59,13.59 0 0,1 35,39.55 V 16.45 A 13.57,13.57 0 0,1 41.66,27.17 C 40.09,27.1 39.51,26.19 39.33,25.83 A 6.4,6.4 0 0,1 39.27,25.69 C 39.15,25.44 39.04,25.21 38.8,25.21 C 38.33,25.21 38,26.51 38,28.13 C 38,29.73 38.33,31.04 38.8,31.04 C 39.04,31.04 39.15,30.82 39.27,30.56 Z" fill="rgb(214, 1, 14)"/>
</svg>
