<?xml version="1.0" encoding="UTF-8"?>
<!-- generated by Finnhub -->
<svg viewBox="0 0 55.5 55.5" xmlns="http://www.w3.org/2000/svg">
<path d="M 0,0 H 55.5 V 55.5 H 0 Z" fill="rgb(14, 106, 171)"/>
<path d="M 9.101,33.011 C 8.504,33.026 7.995,32.872 7.483,32.666 A 3.572,3.572 0 0,1 6.167,31.746 C 5.797,31.339 5.51,30.83 5.306,30.221 C 5.102,29.612 5,28.913 5,28.123 C 5,27.337 5.098,26.653 5.293,26.069 C 5.493,25.485 5.782,24.977 6.161,24.544 C 6.531,24.124 6.97,23.804 7.477,23.586 A 3.955,3.955 0 0,1 9.13,23.252 C 9.442,23.252 9.733,23.275 10.003,23.322 C 10.278,23.368 10.532,23.426 10.764,23.498 C 10.964,23.561 11.168,23.641 11.376,23.738 C 11.588,23.83 11.796,23.933 12,24.046 V 25.552 H 11.9 C 11.792,25.452 11.653,25.329 11.482,25.186 A 4,4 0 0,0 10.084,24.443 A 3.36,3.36 0 0,0 9.117,24.317 C 8.722,24.317 8.399,24.399 8.045,24.563 A 2.66,2.66 0 0,0 7.115,25.287 C 6.853,25.607 6.649,26.007 6.504,26.491 A 5.65,5.65 0 0,0 6.285,28.123 C 6.285,28.766 6.362,29.32 6.516,29.786 C 6.67,30.248 6.88,30.639 7.146,30.958 C 7.404,31.269 7.708,31.505 8.058,31.664 C 8.407,31.82 8.726,31.948 9.118,31.948 C 9.475,31.948 9.806,31.904 10.109,31.816 C 10.413,31.728 10.683,31.616 10.921,31.482 A 4.435,4.435 0 0,0 11.906,30.732 H 12 V 32.219 L 11.42,32.496 A 6.601,6.601 0 0,1 10.01,32.956 C 9.78,33.003 9.481,33.026 9.111,33.026 Z M 17.006,31.072 V 29.119 C 16.726,29.144 16.373,29.179 15.945,29.226 A 5.504,5.504 0 0,0 14.915,29.408 C 14.603,29.505 14.345,29.654 14.141,29.856 C 13.937,30.053 13.836,30.33 13.836,30.687 C 13.836,31.091 13.948,31.395 14.173,31.601 C 14.397,31.807 14.726,31.91 15.158,31.91 C 15.528,31.91 15.864,31.83 16.163,31.67 C 16.463,31.507 16.743,31.307 17.006,31.072 Z M 17.006,32.055 C 16.91,32.126 16.781,32.227 16.619,32.357 A 2.706,2.706 0 0,1 16.157,32.66 C 15.949,32.769 15.747,32.853 15.552,32.912 C 15.36,32.971 15.09,33 14.74,33 A 2.098,2.098 0 0,1 13.242,32.376 A 2.158,2.158 0 0,1 12.794,31.664 A 2.439,2.439 0 0,1 12.625,30.764 C 12.625,30.276 12.727,29.862 12.931,29.522 C 13.135,29.177 13.457,28.904 13.898,28.702 C 14.289,28.522 14.751,28.398 15.283,28.331 A 22.02,22.02 0 0,1 17.006,28.173 V 27.947 C 17.006,27.669 16.964,27.447 16.881,27.279 A 0.927,0.927 0 0,0 16.531,26.882 A 1.33,1.33 0 0,0 15.982,26.692 A 4.344,4.344 0 0,0 15.315,26.642 C 15.044,26.642 14.725,26.684 14.36,26.768 C 13.994,26.848 13.628,26.966 13.262,27.121 H 13.192 V 25.918 C 13.409,25.855 13.719,25.785 14.122,25.709 A 6.495,6.495 0 0,1 15.321,25.596 C 15.799,25.596 16.203,25.634 16.531,25.709 C 17.601,25.956 18,26.997 18,28 V 33 H 17.006 V 32.055 Z M 21.935,32.943 C 21.295,32.943 20.895,32.748 20.537,32.383 C 20.179,32.013 20,31.431 20,30.637 V 27 H 19 V 26 H 20 V 24 H 21 V 26 H 23 V 27 H 21 V 30.08 C 21,30.438 21.006,30.713 21.019,30.906 C 21.031,31.1 21.079,31.28 21.162,31.448 C 21.232,31.595 21.422,31.721 21.579,31.797 C 21.737,31.867 21.952,31.904 22.222,31.904 C 22.413,31.904 22.598,31.876 22.777,31.822 C 22.957,31.762 23.085,31.715 23.164,31.677 H 23.233 V 32.742 C 23.013,32.805 22.788,32.853 22.559,32.887 A 3.787,3.787 0 0,1 21.935,32.943 Z M 28.333,31.072 V 29.119 C 28.055,29.144 27.701,29.179 27.273,29.226 A 5.504,5.504 0 0,0 26.243,29.408 C 25.931,29.505 25.673,29.654 25.469,29.856 C 25.265,30.053 25.163,30.33 25.163,30.687 C 25.163,31.091 25.276,31.395 25.5,31.601 C 25.725,31.807 26.054,31.91 26.486,31.91 C 26.856,31.91 27.191,31.83 27.491,31.67 C 27.791,31.507 28.071,31.307 28.333,31.072 Z M 28.333,32.055 C 28.238,32.126 28.109,32.227 27.946,32.357 A 2.702,2.702 0 0,1 27.485,32.66 C 27.277,32.769 27.075,32.853 26.879,32.912 C 26.688,32.971 26.417,33 26.069,33 A 2.099,2.099 0 0,1 24.571,32.376 A 2.159,2.159 0 0,1 24.121,31.664 A 2.439,2.439 0 0,1 23.953,30.764 C 23.953,30.276 24.055,29.862 24.259,29.522 C 24.462,29.177 24.785,28.904 25.226,28.702 C 25.616,28.522 26.078,28.398 26.611,28.331 A 22.028,22.028 0 0,1 28.333,28.173 V 27.947 C 28.333,27.669 28.292,27.447 28.208,27.279 A 0.927,0.927 0 0,0 27.859,26.882 A 1.33,1.33 0 0,0 27.309,26.692 A 4.344,4.344 0 0,0 26.642,26.642 C 26.372,26.642 26.054,26.684 25.688,26.768 A 6.18,6.18 0 0,0 24.589,27.121 H 24.521 V 25.918 C 24.737,25.855 25.047,25.785 25.451,25.709 A 6.495,6.495 0 0,1 26.648,25.596 C 27.127,25.596 27.53,25.634 27.859,25.709 C 28.188,25.785 28.483,25.922 28.745,26.119 C 28.999,26.312 29.188,26.562 29.313,26.869 C 29.438,27.176 29.5,27.549 29.5,27.991 V 33 H 28.333 V 32.055 Z M 32,33 H 31 V 23 H 32 V 33 Z M 36.767,32.968 C 35.657,32.968 34.793,32.653 34.177,32.023 C 33.566,31.389 33.26,30.49 33.26,29.326 C 33.26,28.18 33.558,27.268 34.153,26.592 C 34.747,25.912 35.525,25.571 36.486,25.571 C 36.919,25.571 37.302,25.634 37.634,25.76 C 37.967,25.886 38.258,26.083 38.508,26.352 C 38.758,26.622 38.948,26.951 39.082,27.342 C 39.215,27.728 39.282,28.202 39.282,28.766 V 29.408 H 34.452 C 34.452,30.228 34.656,30.853 35.063,31.286 C 35.471,31.719 36.035,31.936 36.754,31.936 C 37.012,31.936 37.264,31.906 37.51,31.846 C 37.76,31.788 37.984,31.712 38.183,31.62 C 38.396,31.523 38.575,31.431 38.72,31.343 C 38.866,31.25 38.986,31.164 39.082,31.084 H 39.151 V 32.376 C 39.013,32.431 38.843,32.5 38.639,32.584 A 6.143,6.143 0 0,1 37.466,32.918 C 37.283,32.952 37.05,32.968 36.767,32.968 Z M 38.14,28.501 A 3.322,3.322 0 0,0 38.027,27.675 A 1.709,1.709 0 0,0 37.74,27.09 A 1.311,1.311 0 0,0 37.21,26.686 C 36.998,26.594 36.734,26.548 36.418,26.548 C 36.106,26.548 35.839,26.596 35.618,26.693 A 1.86,1.86 0 0,0 34.627,27.72 C 34.535,27.942 34.477,28.203 34.452,28.501 H 38.14 Z M 46,33 H 45 V 28.909 A 7.58,7.58 0 0,0 44.95,28.008 C 44.892,27.445 44.669,27.088 44.149,26.831 C 43.658,26.577 43.013,26.699 42.545,26.938 A 4.57,4.57 0 0,0 41.64,27.549 V 33 H 40.467 V 25.766 H 41.64 V 26.548 C 41.99,26.233 42.335,25.991 42.676,25.823 C 43.017,25.655 43.377,25.571 43.756,25.571 C 44.442,25.571 45.033,25.854 45.42,26.312 C 45.807,26.766 46,27.425 46,28.291 V 33 Z M 49.861,32.943 C 49.221,32.943 48.894,32.761 48.537,32.395 C 48.179,32.025 48,31.444 48,30.65 V 27 H 47 V 26 H 48 V 24 H 49 V 26 H 51 V 27 H 49 V 30.095 C 49,30.452 49.006,30.727 49.019,30.921 C 49.031,31.114 49.079,31.294 49.162,31.462 C 49.232,31.61 49.347,31.721 49.505,31.797 C 49.663,31.867 49.878,31.904 50.148,31.904 C 50.339,31.904 50.525,31.876 50.703,31.822 C 50.883,31.762 51.011,31.715 51.09,31.677 H 51.159 V 32.742 A 5.21,5.21 0 0,1 50.485,32.887 A 3.785,3.785 0 0,1 49.861,32.943 Z" fill="rgb(254, 254, 253)"/>
</svg>
