<?xml version="1.0" encoding="UTF-8"?>
<!-- generated by Finnhub -->
<svg viewBox="0 0 55.5 55.5" xmlns="http://www.w3.org/2000/svg">
<path d="M 0,0 H 55.5 V 55.5 H 0 Z" fill="rgb(239, 242, 248)"/>
<path d="M 27.99,25.985 C 25.19,26 22.83,26.97 22,27.45 C 22,29.02 22.29,31.68 23,34.38 C 23.7,37.11 26.55,39.95 28,41 C 29.9,39.66 32.4,37.04 33.08,34.38 C 33.63,32.25 33.92,28.88 34,27.45 A 13.07,13.07 0 0,0 28,26 Z" fill="url(#j)"/>
<path d="M 27.99,40.985 V 26 C 30.82,26 33.18,26.97 34,27.45 C 33.92,28.88 33.63,32.25 33.08,34.38 C 32.4,37.04 29.9,39.66 28,41 Z" opacity=".3"/>
<path d="M 16.99,24.085 C 17,27.62 17.57,35.47 19.85,38.69 A 24.15,24.15 0 0,0 27.92,46 C 29.85,45.02 34.22,42.2 36.34,38.69 C 38.68,34.53 39.08,27.44 38.99,24.25 C 37.7,23.17 33.7,21 27.92,21 C 23.52,21 18.81,23.06 17,24.1 Z M 20.28,25.94 A 17.63,17.63 0 0,1 28.03,24.17 C 31.66,24.17 34.71,25.35 35.78,25.94 C 35.68,27.68 35.29,31.8 34.58,34.4 C 33.71,37.65 30.47,40.84 28.03,42.48 C 26.14,41.2 22.47,37.73 21.55,34.4 A 35.2,35.2 0 0,1 20.28,25.94 Z" fill="url(#i)"/>
<path d="M 28.02,45.935 C 30,44.92 34.26,42.13 36.33,38.69 C 38.68,34.53 39.08,27.44 38.99,24.25 C 37.72,23.18 33.76,21.03 28.03,21 V 24.17 C 31.66,24.17 34.71,25.35 35.78,25.94 C 35.68,27.68 35.29,31.8 34.58,34.4 C 33.71,37.65 30.47,40.84 28.03,42.48 V 45.95 Z" fill="url(#h)"/>
<path d="M 38.86,28.455 L 35.67,27.41 A 45.62,45.62 0 0,1 34.59,34.41 A 11.16,11.16 0 0,1 32.68,38.07 L 36.8,37.78 C 38.04,35.08 38.63,31.48 38.87,28.47 Z" fill="rgb(21, 56, 84)"/>
<path d="M 19.619999999999997,17.645 L 18.32,17.08 L 18.11,19.73 L 19.63,19.53 V 17.66 Z" fill="url(#g)"/>
<path d="M 22.95,16.325 L 21.66,15.76 L 21.44,18.41 L 22.96,18.21 V 16.34 Z" fill="url(#f)"/>
<path d="M 26.29,15.004999999999999 L 25,14.44 L 24.78,17.08 L 26.31,16.88 V 15.02 Z" fill="url(#e)"/>
<path d="M 27.99,19.285 C 22.7,19.3 18.46,21.35 17,22.38 V 17.62 L 18.33,17.05 V 19.3 L 20.18,18.67 V 16.48 L 21.68,15.76 V 17.98 L 23.63,17.25 V 15.07 L 24.98,14.47 V 16.61 L 26.95,15.96 V 13.75 L 28,13.28 V 19.3 Z" fill="rgb(99, 145, 194)"/>
<path d="M 36.36,17.645 L 37.68,17.08 L 37.89,19.73 L 36.37,19.53 V 17.66 Z" fill="url(#d)"/>
<path d="M 33.03,16.325 L 34.34,15.76 L 34.56,18.41 L 33.04,18.21 V 16.34 Z" fill="url(#c)"/>
<path d="M 29.689999999999998,15.004999999999999 L 31,14.44 L 31.22,17.08 L 29.69,16.88 V 15.02 Z" fill="url(#b)"/>
<path d="M 27.99,19.285 C 33.3,19.3 37.54,21.35 39,22.38 V 17.62 L 37.67,17.05 V 19.3 L 35.82,18.67 V 16.48 L 34.32,15.76 V 17.98 L 32.37,17.25 V 15.07 L 31.02,14.47 V 16.61 L 29.05,15.96 V 13.75 L 28,13.28 V 19.3 Z" fill="rgb(94, 132, 180)"/>
<path d="M 27.95,8.385 A 1.9,1.9 0 0,1 29.4,8.59 C 30,8.92 30.48,9.39 30.65,9.59 C 30.74,9.66 30.85,9.76 31,9.86 C 31.23,10.02 31.5,10.19 31.77,10.32 A 3.5,3.5 0 0,0 33.17,10.66 V 10.87 C 32.9,10.87 32.24,10.8 31.67,10.51 A 6.28,6.28 0 0,1 30.66,9.87 V 10.17 A 4.27,4.27 0 0,0 32.74,11.07 C 32.96,11.1 33.09,11.09 33.14,11.07 L 33.2,11.28 C 33.11,11.31 32.94,11.32 32.71,11.29 A 4.5,4.5 0 0,1 30.65,10.45 V 10.55 A 25.35,25.35 0 0,0 31.45,11.15 C 31.63,11.27 31.78,11.36 31.89,11.41 C 32.05,11.47 32.34,11.51 32.63,11.53 C 32.93,11.55 33.22,11.54 33.4,11.53 V 11.75 H 32.62 C 32.32,11.73 32.01,11.69 31.8,11.6 A 2.9,2.9 0 0,1 31.32,11.32 A 12.83,12.83 0 0,1 30.26,10.52 L 30.21,10.48 L 30.11,10.38 A 3.97,3.97 0 0,0 30.05,10.34 L 30.07,10.32 A 2.82,2.82 0 0,0 28.89,9.89 C 28.36,9.89 28.05,9.92 27.96,9.93 V 8.4 Z" fill="url(#a)"/>
<path d="M 28.61,10.274999999999999 A 2.3,2.3 0 0,0 27.96,10.35 L 27.91,10.15 C 28.07,10.1 28.33,10.06 28.62,10.07 C 28.92,10.08 29.24,10.13 29.52,10.29 A 8.2,8.2 0 0,1 30.96,11.34 C 31.08,11.44 31.34,11.57 31.64,11.69 C 31.93,11.8 32.24,11.89 32.5,11.9 C 32.9,11.93 33.33,11.85 33.49,11.8 L 33.55,12 C 33.38,12.06 32.92,12.14 32.48,12.12 A 3.27,3.27 0 0,1 31.55,11.88 C 31.25,11.76 30.97,11.62 30.82,11.51 L 30.6,11.32 C 30.3,11.08 29.9,10.74 29.4,10.47 A 1.76,1.76 0 0,0 28.62,10.29 Z" fill="url(#a)"/>
<path d="M 27.979999999999997,11.014999999999999 C 28.23,10.86 28.89,10.6 29.56,11.03 L 30.22,11.51 L 30.32,11.59 L 30.89,12.01 C 31.34,12.32 31.8,12.59 32.26,12.63 C 32.97,12.7 33.45,12.48 33.61,12.35 L 33.46,12.19 C 33.36,12.28 32.94,12.49 32.28,12.42 C 31.88,12.38 31.47,12.15 31.02,11.84 L 30.46,11.42 L 30.36,11.34 C 30.13,11.17 29.91,11.01 29.68,10.86 C 28.92,10.36 28.15,10.66 27.85,10.86 L 27.99,11.03 Z" fill="url(#a)"/>
<path d="M 28.95,11.485 C 28.46,11.5 28.06,11.64 27.92,11.7 L 27.82,11.5 C 27.98,11.43 28.42,11.29 28.96,11.29 C 29.66,11.29 30.18,11.69 30.55,12.12 A 6.83,6.83 0 0,1 30.83,12.47 C 30.93,12.6 31.03,12.73 31.15,12.84 C 31.38,13.06 31.63,13.21 31.92,13.19 C 32.24,13.17 32.43,13.08 32.6,13 A 0.88,0.88 0 0,1 33.18,12.9 C 33.52,12.95 34,13.07 34.19,13.11 L 34.14,13.32 C 33.94,13.27 33.47,13.16 33.14,13.1 C 32.97,13.07 32.87,13.12 32.69,13.2 C 32.52,13.28 32.3,13.38 31.94,13.4 C 31.54,13.43 31.24,13.23 30.99,12.99 A 4.11,4.11 0 0,1 30.66,12.6 L 30.57,12.5 A 6.5,6.5 0 0,0 30.37,12.25 C 30.03,11.85 29.57,11.5 28.97,11.5 Z" fill="url(#a)"/>
<path d="M 28.029999999999998,7.985 V 13.4 H 27.82 V 8 H 28.04 Z" fill="rgb(102, 125, 151)"/>
<defs>
<linearGradient id="j" x1="28" x2="28" y1="26" y2="41" gradientUnits="userSpaceOnUse">
<stop stop-color="rgb(196, 169, 63)" offset="0"/>
<stop stop-color="rgb(127, 157, 184)" offset="1"/>
</linearGradient>
<linearGradient id="i" x1="28" x2="28" y1="21" y2="46" gradientUnits="userSpaceOnUse">
<stop stop-color="rgb(98, 140, 181)" offset="0"/>
<stop stop-color="rgb(63, 97, 124)" offset="1"/>
</linearGradient>
<linearGradient id="h" x1="33.51" x2="33.51" y1="21" y2="45.95" gradientUnits="userSpaceOnUse">
<stop stop-color="rgb(84, 126, 173)" offset="0"/>
<stop stop-color="rgb(46, 85, 117)" offset=".97"/>
</linearGradient>
<linearGradient id="g" x1="18.23" x2="18.82" y1="17.29" y2="19.74" gradientUnits="userSpaceOnUse">
<stop stop-color="rgb(105, 144, 184)" offset="0"/>
<stop stop-color="rgb(60, 96, 143)" offset=".65"/>
</linearGradient>
<linearGradient id="f" x1="21.57" x2="22.15" y1="15.96" y2="18.42" gradientUnits="userSpaceOnUse">
<stop stop-color="rgb(105, 144, 184)" offset="0"/>
<stop stop-color="rgb(60, 96, 143)" offset=".65"/>
</linearGradient>
<linearGradient id="e" x1="24.91" x2="25.5" y1="14.64" y2="17.09" gradientUnits="userSpaceOnUse">
<stop stop-color="rgb(105, 144, 184)" offset="0"/>
<stop stop-color="rgb(60, 96, 143)" offset=".65"/>
</linearGradient>
<linearGradient id="d" x1="37.77" x2="37.18" y1="17.29" y2="19.74" gradientUnits="userSpaceOnUse">
<stop stop-color="rgb(105, 144, 184)" offset="0"/>
<stop stop-color="rgb(60, 96, 143)" offset=".65"/>
</linearGradient>
<linearGradient id="c" x1="34.43" x2="33.85" y1="15.96" y2="18.42" gradientUnits="userSpaceOnUse">
<stop stop-color="rgb(105, 144, 184)" offset="0"/>
<stop stop-color="rgb(60, 96, 143)" offset=".65"/>
</linearGradient>
<linearGradient id="b" x1="31.09" x2="30.5" y1="14.64" y2="17.09" gradientUnits="userSpaceOnUse">
<stop stop-color="rgb(105, 144, 184)" offset="0"/>
<stop stop-color="rgb(60, 96, 143)" offset=".65"/>
</linearGradient>
<linearGradient id="a" x1="28.99" x2="33.65" y1="9.25" y2="10.35" gradientUnits="userSpaceOnUse">
<stop stop-color="rgb(132, 169, 221)" offset="0"/>
<stop stop-color="rgb(82, 104, 124)" offset=".5"/>
<stop stop-color="rgb(131, 156, 190)" offset="1"/>
</linearGradient>
</defs>
</svg>
