<?xml version="1.0" encoding="UTF-8"?>
<!-- generated by Finnhub -->
<svg viewBox="0 0 55.5 55.5" xmlns="http://www.w3.org/2000/svg">
<path d="M 0,0 H 55.5 V 55.5 H 0 Z" fill="rgb(239, 242, 248)"/>
<path d="M 7.99,18.985 H 48 V 37 H 8 Z" fill="rgb(69, 119, 176)"/>
<path d="M 17.59,36.985 H 25.56 L 44.86,26.14 L 44.59,25.54 L 17.59,37 Z" fill="rgb(135, 137, 138)"/>
<path d="M 21.68,33.714999999999996 C 22.18,32.93 22.43,31.97 22.5,31.59 C 22.5,30.88 22.15,31.17 21.97,31.41 A 5.35,5.35 0 0,1 17.04,34.26 A 6.4,6.4 0 0,1 11.06,28.03 C 10.9,25.05 12.91,21.61 17.04,21.73 C 20.34,21.84 21.27,23.63 21.32,24.51 C 21.86,25.35 21.98,24.49 21.97,23.95 L 21.87,22.5 H 25 V 32.68 C 25.02,33.95 23.85,34.36 23.25,34.42 C 22.71,34.97 23.22,35.04 23.55,35 H 28.75 C 29.78,34.74 28.83,34.39 27.9,34.11 C 27.16,33.89 27,33.07 27,32.68 V 22.5 H 30.6 C 31.84,22.54 32.06,23.49 32.01,23.95 C 32.36,24.79 32.59,24.3 32.66,23.95 C 32.71,23.45 32.86,22.31 33.1,21.87 C 33.4,21.31 33.18,21 32.8,21.23 C 32.5,21.41 31.86,21.56 31.58,21.61 H 21.68 C 21.43,21.64 18.51,21 16.88,21 S 8.8,22.1 8.8,28.03 C 8.8,34.07 15.1,35.03 17.04,34.99 C 18.99,34.95 21.07,34.73 21.69,33.73 Z" fill="rgb(239, 242, 248)"/>
<path d="M 39.660000000000004,34.985 C 43.72,35 47,31.87 47,28 S 43.72,21 39.67,21 S 32.34,24.13 32.34,28 S 35.62,35 39.67,35 Z M 41.22,34.3 C 44.03,33.66 45.62,30.35 44.75,26.9 C 43.89,23.45 40.91,21.18 38.1,21.82 S 33.7,25.77 34.57,29.22 C 35.43,32.67 38.41,34.94 41.22,34.3 Z" fill="rgb(239, 242, 248)" fill-rule="evenodd"/>
<path d="M 49.99,23.235 L 44.37,25.65 L 44.61,26.31 L 50,23.25 Z" fill="rgb(135, 137, 138)"/>
</svg>
