<?xml version="1.0" encoding="UTF-8"?>
<!-- generated by Finnhub -->
<svg viewBox="0 0 55.5 55.5" xmlns="http://www.w3.org/2000/svg">
<path d="M 0,0 H 55.5 V 55.5 H 0 Z" fill="rgb(239, 242, 248)"/>
<path d="M 19.201999999999998,40.985 C 17.142,41 15.646,40.25 15.156,39.924 C 19.24,41.224 31.971,36.932 37.826,34.624 L 41.055,34.098 C 34.945,36.618 22.864,41 19.212,41 Z" fill="rgb(94, 1, 2)"/>
<path d="M 39.04,25.637999999999998 C 38.558,25.763 37.888,25.331 37.615,25.101 H 39.051 C 39.621,25.101 42.355,22.345 43.289,20.921 C 44.037,19.781 42.689,18.301 41.922,17.704 C 42.947,18.248 44.734,19.725 43.677,21.288 C 42.355,23.241 39.666,25.515 39.051,25.653 Z" fill="rgb(191, 27, 32)"/>
<path d="M 37.846000000000004,25.218 L 36.596,24.181 C 36.256,23.899 36.263,23.373 36.816,22.765 C 37.269,22.267 39.069,20.364 39.112,19.715 C 39.146,19.195 38.289,19.371 37.856,19.523 C 28.793,22.392 19.511,29.565 16.966,33.229 C 16.456,33.846 15.506,35.152 15.506,35.913 C 15.506,36.675 16.14,37.075 16.456,37.18 C 13.057,36.515 12.174,33.45 12.551,32.713 C 15.973,26.022 27.625,19.847 33.023,17.597 C 34.136,17.066 36.69,16.004 38.003,16.004 C 39.315,16.004 41.348,17.239 42.2,17.856 C 42.896,18.343 44.115,19.639 43.43,20.932 C 42.574,22.549 40.27,24.339 39.429,25.108 C 38.756,25.723 38.1,25.448 37.856,25.233 Z" fill="url(#b)"/>
<path d="M 11.994,35.213 C 11.96,34.348 12.295,33.248 12.468,32.807 C 15.668,36.943 14.617,37.267 19.326,37.514 C 24.035,37.76 35.87,34.42 40.386,33.694 C 33.134,36.841 22.061,40.677 18.527,40.677 C 12.413,40.291 12.058,36.329 12.004,35.228 Z" fill="url(#a)"/>
<defs>
<linearGradient id="b" x1="42.949" x2="13.21" y1="18.669" y2="35.057" gradientUnits="userSpaceOnUse">
<stop stop-color="rgb(105, 1, 2)" offset="0"/>
<stop stop-color="rgb(187, 25, 30)" offset="1"/>
</linearGradient>
<linearGradient id="a" x1="12" x2="39.872" y1="36.742" y2="33.896" gradientUnits="userSpaceOnUse">
<stop stop-color="rgb(105, 1, 2)" offset="0"/>
<stop stop-color="rgb(187, 25, 30)" offset="1"/>
</linearGradient>
</defs>
</svg>
