<?xml version="1.0" encoding="UTF-8"?>
<!-- generated by Finnhub -->
<svg viewBox="0 0 55.5 55.5" xmlns="http://www.w3.org/2000/svg">
<path d="M 0,0 H 55.5 V 55.5 H 0 Z" fill="rgb(239, 242, 248)"/>
<path d="M 24.99,16.325 C 25,16.15 25.14,16 25.3,16 H 28.7 C 28.86,16 29,16.15 29,16.34 V 20 H 25.3 C 25.14,20 25,19.85 25,19.66 V 16.34 Z" fill="rgb(148, 211, 0)"/>
<path d="M 28.99,19.985 H 32.76 C 32.89,20 33,20.12 33,20.28 V 23.72 C 33,23.88 32.9,24 32.76,24 H 29 V 20 Z" fill="rgb(252, 129, 1)"/>
<path d="M 37.46,20.625 C 38.15,20.34 39.16,20.09 39.93,20.01 A 22.59,22.59 0 0,1 42.61,20.11 C 43.96,20.34 45.03,20.75 46.01,21.41 C 46.62,21.83 46.66,22 46.33,22.62 C 46.07,23.12 45.29,24.73 45.29,24.78 C 45.29,24.83 45.05,25.08 45.01,25.08 A 4.7,4.7 0 0,1 44.49,24.78 A 5.8,5.8 0 0,0 41.08,23.72 C 40.2,23.72 39.83,23.8 39.39,24.1 C 39.19,24.24 38.95,24.52 38.86,24.73 C 38.78,24.94 38.79,25.33 38.88,25.56 C 38.99,25.82 39.25,26.1 39.59,26.33 C 39.96,26.58 40.42,26.79 41.9,27.41 C 42.95,27.84 43.16,27.94 43.73,28.23 C 45.67,29.23 46.69,30.43 46.94,32.03 A 5.02,5.02 0 0,1 46.28,35.4 C 45.9,35.98 45.38,36.52 44.85,36.87 C 44.08,37.37 43.05,37.76 41.97,37.93 C 41.35,38.03 39.67,38.02 38.95,37.91 A 9.76,9.76 0 0,1 34.43,35.98 C 34.09,35.72 33.97,35.54 34.01,35.36 C 34.01,35.29 34.22,34.95 34.46,34.59 L 35.26,33.34 C 35.69,32.66 35.76,32.56 35.9,32.56 C 35.95,32.56 36.2,32.71 36.44,32.9 A 6.84,6.84 0 0,0 39.45,34.23 C 39.95,34.32 40.88,34.33 41.25,34.23 C 41.83,34.1 42.32,33.77 42.53,33.36 C 42.67,33.09 42.67,32.56 42.53,32.32 C 42.38,32.06 42.14,31.82 41.83,31.61 C 41.3,31.26 41.21,31.21 38.93,30.24 C 36.69,29.29 35.56,28.39 34.9,27.05 C 33.68,24.61 34.81,21.79 37.47,20.64 Z M 23.95,34.88 C 24.03,35.02 24.01,35.21 23.89,35.32 A 9.4,9.4 0 0,1 17.3,38 C 12.16,38 8,33.97 8,29 S 12.16,20 17.29,20 C 19.68,20 21.86,20.88 23.51,22.32 C 23.67,22.46 23.69,22.69 23.58,22.87 L 22.13,25.14 C 22,25.34 21.7,25.37 21.53,25.2 A 5.52,5.52 0 0,0 17.74,23.72 C 14.74,23.72 12,26.09 12,29 S 14.74,34.28 17.74,34.28 A 5.5,5.5 0 0,0 21.92,32.38 C 22.1,32.18 22.44,32.19 22.58,32.44 L 23.95,34.88 Z M 25,31.9 V 24.26 C 25,24.12 25.1,24 25.24,24 H 29 V 31.02 C 29,33.67 31.38,34.2 32.73,34.13 C 32.88,34.13 33,34.25 33,34.4 V 37.7 C 33,37.84 32.9,37.96 32.77,37.97 C 26.07,38.44 25,33.8 25,31.9 Z" fill="rgb(0, 58, 111)"/>
</svg>
