<?xml version="1.0" encoding="UTF-8"?>
<!-- generated by Finnhub -->
<svg viewBox="0 0 55.5 55.5" xmlns="http://www.w3.org/2000/svg">
<path d="M 0,0 H 55.5 V 55.5 H 0 Z" fill="url(#a)"/>
<path d="M 39.510000000000005,16.305 L 38.47,17.7 C 38.2,17.57 37.94,17.38 37.69,17.2 L 37.29,16.92 C 36.52,16.42 35.74,15.92 34.94,15.48 C 30.86,13.21 25.88,13.37 21.74,15.4 C 20.76,15.89 19.85,16.54 18.98,17.23 C 17.98,18.02 17.15,18.95 16.45,19.98 A 14.08,14.08 0 0,0 14,29.5 A 14.72,14.72 0 0,0 20.34,39.82 A 14.75,14.75 0 0,0 37.34,39.17 L 38.14,38.55 L 38.4,38.35 L 39.6,39.65 L 39.1,40.08 C 38.73,40.39 38.36,40.7 37.97,40.98 A 15.71,15.71 0 0,1 33.49,43.24 C 29.15,44.5 24.43,44.26 20.4,42.05 A 13.52,13.52 0 0,1 17.33,39.85 C 17,39.57 16.67,39.28 16.38,38.97 C 13.38,35.72 11.62,31.19 12.05,26.71 A 16.52,16.52 0 0,1 13.69,20.91 A 16.48,16.48 0 0,1 35.65,13.71 L 36.25,14.01 A 18.94,18.94 0 0,1 39.39,16.21 L 39.51,16.32 Z M 28.5,25 A 1.5,1.5 0 1,0 28.5,22 A 1.5,1.5 0 0,0 28.5,25 Z M 28.5,29.5 A 1.5,1.5 0 1,0 28.5,26.5 A 1.5,1.5 0 0,0 28.5,29.5 Z M 30,32.5 A 1.5,1.5 0 1,1 27,32.5 A 1.5,1.5 0 0,1 30,32.5 Z M 39.6,27.2 C 41.1,27.4 42.4,28 43.3,29.28 C 44.61,31.14 43.94,34.01 42.4,35.49 C 40.12,37.66 36.53,37.21 33.96,35.89 L 33.9,35.86 A 7.15,7.15 0 0,1 33.09,35.4 C 33.05,35.38 33.02,35.35 33.01,35.32 C 32.99,35.27 33.01,35.22 33.04,35.17 L 33.77,33.67 C 33.92,33.82 34.1,33.92 34.29,34.02 C 35.2,34.52 36.16,34.92 37.18,35.12 C 38.46,35.34 40,35.19 41.02,34.27 C 41.92,33.46 42.22,32.2 42.04,31.01 C 41.82,29.57 40.78,29.04 39.58,28.67 A 4.4,4.4 0 0,0 38.26,28.53 A 738.7,738.7 0 0,1 36,28.53 V 27.27 C 36.75,26.41 37.43,25.59 38.12,24.75 C 38.84,23.87 39.57,22.97 40.42,22 H 34 V 20 H 43 V 21.38 C 41.88,22.63 40.82,23.88 39.75,25.15 L 38.15,27.04 A 131.26,131.26 0 0,0 39.59,27.2 Z" fill="rgb(254, 254, 253)"/>
<defs>
<linearGradient id="a" x1="10.42" x2="68.15" y1="9.71" y2="76.02" gradientUnits="userSpaceOnUse">
<stop stop-color="rgb(25, 29, 31)" offset="0"/>
<stop stop-color="rgb(5, 5, 8)" offset="1"/>
</linearGradient>
</defs>
</svg>
