<?xml version="1.0" encoding="UTF-8"?>
<!-- generated by Finnhub -->
<svg viewBox="0 0 55.5 55.5" xmlns="http://www.w3.org/2000/svg">
<path d="M 0,0 H 55.5 V 55.5 H 0 Z" fill="rgb(239, 242, 248)"/>
<path d="M 24.99,33.185 V 43.72 A 16.01,16.01 0 0,1 12.03,29.03 H 22.1 A 6,6 0 0,0 25,33.2 Z" fill="rgb(106, 149, 128)"/>
<path d="M 12.02,26.985 A 16.01,16.01 0 0,1 44,27 H 33.92 A 6,6 0 0,0 22.08,27 H 12.03 Z" fill="rgb(222, 112, 84)"/>
<path d="M 12.02,28.985 A 16.01,16.01 0 0,0 44,29 H 33.92 A 6,6 0 0,1 22.08,29 H 12.03 Z" fill="rgb(93, 178, 184)"/>
<path d="M 24.99,12.264999999999999 A 16.01,16.01 0 0,0 12.03,27 H 22.08 A 6,6 0 0,1 25,22.8 V 12.28 Z" fill="rgb(184, 100, 79)"/>
<path d="M 24.99,33.185 A 6,6 0 0,1 22.09,29.03 H 12.03 A 16.01,16.01 0 0,0 25,43.72 V 33.2 Z" fill="rgb(96, 154, 151)"/>
<path d="M 23.99,12.485 A 16.01,16.01 0 0,0 24,43.5 V 12.5 Z" fill="rgb(254, 203, 75)"/>
</svg>
