<?xml version="1.0" encoding="UTF-8"?>
<!-- generated by Finnhub -->
<svg viewBox="0 0 55.5 55.5" xmlns="http://www.w3.org/2000/svg">
<path d="M 0,0 H 55.5 V 55.5 H 0 Z" fill="rgb(239, 242, 248)"/>
<path d="M 51.99,27.835 C 51.83,23.98 39.63,22.35 35.49,22 L 35.45,22.06 L 31.51,29.16 L 29.71,26 H 28.67 L 31.51,31 L 36.07,22.86 C 44.43,23.63 50.37,25.57 50.37,27.85 C 50.37,30.95 40.34,33.46 27.98,33.46 C 26.38,33.46 24.8,33.42 23.29,33.34 L 23,33.87 C 24.6,33.95 26.27,34 27.98,34 C 41.25,34 52,31.25 52,27.85 Z M 40,28.05 C 40,27.16 40.1,26.71 40.36,26.44 C 40.64,26.14 41.16,26 41.96,26 H 44.5 V 26.76 H 42.07 C 41.17,26.76 41,26.98 41,28.09 C 41,28.7 41.08,29.01 41.33,29.14 C 41.5,29.23 41.73,29.27 42.07,29.27 H 44.5 V 30 H 41.86 C 41.16,30 40.7,29.9 40.44,29.66 C 40.12,29.38 40,28.94 40,28.05 Z M 38.46,30 H 39.51 L 36.67,25 L 33.83,30 H 34.88 L 35.35,29.16 H 38 L 38.47,30 Z M 36.67,26.8 L 37.64,28.52 H 35.7 L 36.66,26.8 Z" fill="rgb(1, 159, 178)"/>
<path d="M 3.99,27.835 C 4,25.94 7.4,24.23 12.73,23.1 V 24.13 C 8.36,25.06 5.63,26.38 5.63,27.85 C 5.63,29.31 8.36,30.63 12.73,31.55 V 32.59 C 7.4,31.46 4,29.76 4,27.85 Z M 27.57,26 L 28,26.76 H 25.57 C 24.8,26.76 24.55,26.92 24.5,27.65 H 27.5 V 28.28 H 24.5 C 24.52,28.77 24.61,29.02 24.83,29.14 C 25,29.23 25.23,29.27 25.57,29.27 H 28 V 30 H 25.36 C 24.66,30 24.21,29.9 23.94,29.66 C 23.62,29.38 23.5,28.94 23.5,28.05 C 23.5,27.16 23.6,26.71 23.86,26.44 C 24.14,26.14 24.66,26 25.46,26 H 27.57 Z M 23,29.2 V 30 H 22 V 29.4 C 22,28.87 21.85,28.75 21.22,28.75 H 19 V 30 H 18 V 26 H 21.47 C 22.19,26 22.51,26.08 22.74,26.32 C 22.91,26.51 23,26.82 23,27.28 C 23,27.67 22.93,27.93 22.77,28.1 C 22.64,28.25 22.44,28.31 21.94,28.37 C 22.34,28.4 22.43,28.42 22.55,28.47 C 22.82,28.6 23,28.82 23,29.21 Z M 22,27.42 C 22,26.86 21.9,26.75 21.2,26.75 H 19 V 28.02 H 21.19 C 21.88,28.02 22,27.9 22,27.42 Z M 17,28.49 V 26 H 16 V 28.13 C 15.99,29.22 15.54,29.26 14.47,29.26 C 13.32,29.26 13,29.16 13,28.07 V 26 H 12 V 28.36 C 12,29.09 12.06,29.36 12.27,29.59 C 12.57,29.92 12.98,30 14.37,30 C 15.8,30 16.15,29.96 16.49,29.77 C 16.88,29.55 17,29.25 17,28.49 Z" fill="rgb(254, 109, 48)"/>
</svg>
