<?xml version="1.0" encoding="UTF-8"?>
<!-- generated by Finnhub -->
<svg viewBox="0 0 55.5 55.5" xmlns="http://www.w3.org/2000/svg">
<path d="M 0,0 H 55.5 V 55.5 H 0 Z" fill="rgb(249, 173, 61)"/>
<path d="M 23.427,18.985 H 19.172 C 18.017,19 17.239,19.625 16.862,21.35 L 16.129,24.65 C 15.739,26.375 16.251,27 17.406,27 H 21.782 L 22.232,25.696 C 21.822,25.908 21.622,25.996 20.532,25.996 H 19 C 18.645,25.996 18.5,25.871 18.589,25.483 L 19.683,20.655 A 0.824,0.824 0 0,1 20.47,20 H 22.414 C 22.936,20 23.18,20.087 23.458,20.212 L 23.438,19 Z M 27.756,27 L 31.444,20.45 C 31.888,19.675 32.199,19.262 32.477,19 H 30.644 C 30.644,19.163 30.644,19.288 30.611,19.438 C 30.533,19.788 30.378,20.075 30.156,20.475 L 27.423,25.3 L 26.935,20.475 C 26.89,20.075 26.868,19.787 26.945,19.437 C 26.979,19.287 27.023,19.163 27.09,19 H 23.713 C 23.858,19.188 23.958,19.413 23.991,19.738 L 24.724,27 H 27.756 Z M 35.33,20 H 36.862 C 37.206,20 37.295,20.063 37.206,20.45 L 36.996,21.55 C 36.906,21.937 36.796,22 36.451,22 H 34.918 L 35.329,20 Z M 35.451,23.525 L 35.973,27 H 39.005 C 38.839,26.7 38.795,26.288 38.683,25.775 L 38.217,23.525 C 38.806,23.475 39.327,23.413 39.594,22.238 L 39.916,20.762 C 40.216,19.425 39.706,19 38.461,19 H 32.62 C 32.753,19.313 32.776,19.613 32.609,20.375 L 31.443,25.625 C 31.276,26.387 31.12,26.688 30.921,27 H 34.075 C 34.008,26.687 33.986,26.387 34.153,25.625 L 34.619,23.525 H 35.452 Z" fill="rgb(254, 254, 253)"/>
<path d="M 9.084,32.985 L 9.553,30.983 H 11.409 C 12.007,30.983 12.284,31.082 12.54,31.17 L 12.914,29.813 C 12.614,29.901 12.294,30 11.697,30 H 9.841 L 10.401,28 H 12.475 C 13.083,28 13.385,28.124 13.642,28.212 L 13.607,27 H 7.697 C 7.76,27.275 7.782,27.54 7.622,28.21 L 6.502,32.831 C 6.342,33.502 6.192,33.725 6,34 H 12.017 L 12.583,32.813 A 3.698,3.698 0 0,1 11.356,33 H 9.094 Z M 13.787,29 C 13.873,29.264 13.947,29.473 13.777,30.188 L 13.104,32.853 C 12.934,33.568 12.711,33.736 12.497,34 H 15.57 C 15.485,33.736 15.452,33.569 15.622,32.853 L 16.23,30.441 C 16.316,30.122 16.444,30.012 16.753,30.012 H 17.671 C 17.981,30.012 18.066,30.122 17.981,30.442 L 17.372,32.853 C 17.202,33.568 16.978,33.736 16.765,34 H 19.838 C 19.752,33.736 19.719,33.569 19.89,32.853 L 20.391,30.881 C 20.68,29.726 20.36,29 19.175,29 H 17.137 C 16.764,29 16.54,29.275 16.358,29.54 H 16.338 L 16.39,29 H 13.787 Z M 23.653,31.005 L 23.823,30.418 C 23.887,30.121 24.005,30 24.283,30 H 25.317 C 25.594,30 25.647,30.121 25.584,30.418 L 25.414,31.005 H 23.653 Z M 27.622,32.017 L 28.006,30.55 C 28.262,29.472 28.059,28.988 26.928,28.988 H 23.098 C 21.967,28.988 21.53,29.472 21.273,30.55 L 20.773,32.438 C 20.515,33.516 20.718,34 21.85,34 H 26.864 L 27.354,32.768 C 26.907,32.955 26.64,32.988 26.16,32.988 H 23.738 C 23.333,32.988 23.205,32.834 23.29,32.46 L 23.407,31.976 L 27.622,32.017 Z M 29.116,29 C 29.202,29.264 29.276,29.473 29.106,30.188 L 28.434,32.853 C 28.263,33.568 28.081,33.736 27.868,34 H 30.941 C 30.856,33.736 30.781,33.569 30.951,32.853 L 31.346,31.192 C 31.517,30.488 31.752,30.442 32.744,30.442 C 33.491,30.442 33.587,30.507 33.854,30.694 L 34.258,29 H 33.031 C 32.252,29 31.932,29.22 31.537,29.836 H 31.516 L 31.633,29 H 29.115 Z M 37.626,34.218 C 37.476,34.845 37.348,34.988 36.804,34.988 H 34.638 C 34.148,34.988 33.902,34.888 33.539,34.702 L 33.401,36 H 38.031 C 39.226,36 39.834,35.505 40.186,34.042 L 41.104,30.375 C 41.317,29.485 41.574,29.209 41.712,29 H 39.194 L 38.938,29.55 H 38.917 C 38.906,29.154 38.746,29 38.255,29 H 36.271 C 35.118,29 34.531,29.66 34.307,30.606 L 33.827,32.436 C 33.603,33.381 33.87,34.042 35.022,34.042 H 36.996 C 37.455,34.042 37.658,33.745 37.775,33.524 H 37.796 L 37.626,34.218 Z M 38.01,32.611 C 37.946,32.908 37.828,33.029 37.55,33.029 H 36.57 C 36.292,33.029 36.239,32.909 36.303,32.611 L 36.868,30.431 C 36.932,30.133 37.049,30.012 37.327,30.012 H 38.309 C 38.586,30.012 38.639,30.133 38.575,30.43 L 38.01,32.611 Z M 44.402,34 C 44.999,34 45.138,33.865 45.33,33.535 H 45.351 L 45.095,34.614 C 45.042,34.856 44.925,35 44.498,35 H 42.086 C 41.489,35 41.265,34.856 41.051,34.735 L 40.945,36 H 45.885 C 46.802,36 47.4,35.505 47.635,34.526 L 49,29 H 46.28 C 46.365,29.231 46.407,29.33 46.247,29.98 L 45.586,32.56 C 45.49,32.967 45.416,33 45.181,33 H 44.252 C 43.942,33 43.857,32.89 43.942,32.57 L 44.84,29 H 42.045 C 42.13,29.264 42.205,29.473 42.035,30.188 L 41.533,32.16 C 41.245,33.315 41.565,34 42.749,34 H 44.403 Z" fill="rgb(53, 57, 67)"/>
<path d="M 18.247,35.041 C 12.75,34.796 8.664,35.506 6,36.022 C 7.717,35.893 10.986,35.68 13.816,36.022 C 17.013,36.408 20.033,36.795 24.296,36.988 C 27.574,37.137 31.461,35.828 33,35.056 C 29.27,36.216 22.342,35.249 18.257,35.056 Z" fill="rgb(254, 254, 253)"/>
</svg>
