<?xml version="1.0" encoding="UTF-8"?>
<!-- generated by Finnhub -->
<svg viewBox="0 0 55.5 55.5" xmlns="http://www.w3.org/2000/svg">
<path d="M 0,0 H 55.5 V 55.5 H 0 Z" fill="rgb(239, 242, 248)"/>
<path d="M 49.63,22.765 L 52,22.97 L 49.8,23.84 A 0.43,0.43 0 0,0 49.55,24.11 L 48.96,25.91 A 0.14,0.14 0 0,1 48.7,25.92 L 47.82,24.12 H 47.12 L 47,23.31 L 47.67,23.11 L 47.99,21.12 A 0.14,0.14 0 0,1 48.24,21.06 L 49.32,22.6 C 49.4,22.7 49.52,22.77 49.64,22.78 Z M 24,23 H 25.5 V 31 H 24 V 23 Z" fill="rgb(1, 98, 147)"/>
<path d="M 16.49,22.985 H 15 V 31 H 16.5 V 28 H 21.81 C 22.47,28 23,27.41 23,26.7 V 24.3 C 23,23.59 22.47,23 21.81,23 H 16.5 Z M 16.5,26.5 H 21.02 C 21.29,26.5 21.5,26.27 21.5,25.98 V 25.02 C 21.5,24.73 21.29,24.5 21.02,24.5 H 16.5 V 26.5 Z" fill="rgb(1, 98, 147)" fill-rule="evenodd"/>
<path d="M 6.49,22.985 C 5.61,23 5,23.25 5,24.37 V 29.63 C 5,30.75 5.61,31 6.5,31 H 12.54 C 13.54,31 14,30.34 14,29.5 H 6.5 V 24.5 H 14 C 14,23.58 13.47,23 12.54,23 H 6.5 Z M 19.4,34.14 L 4,35 H 21.78 C 24.15,35 27.8,33.32 30.44,29.8 A 10.71,10.71 0 0,1 36.77,25.75 L 46,24.2 V 24 C 43.58,24.22 38.27,24.7 36.4,24.85 C 34.05,25.05 32.09,25.73 28.77,29.95 C 26.12,33.32 21.63,33.98 19.4,34.14 Z" fill="rgb(1, 98, 147)"/>
<path d="M 32.61,31.165 L 31.89,32 H 31 L 34.51,28 H 35.41 L 36,32 H 35.05 L 34.94,31.18 H 32.62 Z M 33.28,30.43 L 34.61,28.91 L 34.83,30.43 H 33.28 Z" fill="rgb(179, 177, 176)" fill-rule="evenodd"/>
<path d="M 40.99,27.985 H 37.46 L 36,32 H 39.58 L 39.86,31.26 H 37.08 L 37.42,30.32 H 39 L 39.27,29.58 H 37.7 L 38,28.74 H 40.73 L 41,28 Z" fill="rgb(179, 177, 176)"/>
<path d="M 44.07,27.985 H 41.52 L 40,32 H 40.84 L 41.41,30.5 H 42.18 L 43.03,32 H 44.28 L 43.18,30.5 A 2.02,2.02 0 0,0 44.92,29.25 A 0.9,0.9 0 0,0 44.08,28 Z M 42.1,28.7 L 41.66,29.86 H 43.22 C 43.6,29.86 43.94,29.64 44.1,29.3 A 0.42,0.42 0 0,0 43.73,28.7 H 42.1 Z M 47.38,28 C 46.78,28 46.24,28.36 46.01,28.92 L 45.04,31.27 C 44.9,31.63 45.16,32.02 45.54,32.02 H 48.62 C 49.22,32.02 49.76,31.65 49.99,31.1 L 50.96,28.74 A 0.54,0.54 0 0,0 50.46,28 H 47.38 Z M 50,28.73 H 47.13 L 46,31.3 H 48.87 L 50,28.73 Z" fill="rgb(179, 177, 176)" fill-rule="evenodd"/>
</svg>
