<?xml version="1.0" encoding="UTF-8"?>
<!-- generated by Finnhub -->
<svg viewBox="0 0 55.5 55.5" xmlns="http://www.w3.org/2000/svg">
<path d="M 0,0 H 55.5 V 55.5 H 0 Z" fill="url(#a)"/>
<path d="M 15.99,28.985 V 33.73 C 12.63,34.77 10.15,36.06 9,37 C 11.5,36.04 18.62,34.11 27.13,34.11 C 35.65,34.11 43.93,36.04 47,37 C 45.8,36.05 43.06,34.56 39,33.45 V 30.43 A 26.48,26.48 0 0,0 34,26.42 V 18.8 L 28.41,15 L 24,18.8 V 22.3 L 22,21.17 L 19,24.26 V 26.04 L 16,29 Z M 32,25.26 V 20.54 C 31.75,19.92 30.47,18.27 28,16.64 V 23.45 C 29.24,23.92 30.6,24.52 32,25.26 Z M 28,25.05 V 32 C 32.13,32.03 35.69,32.59 38.6,33.35 C 36.76,31.15 32.93,27.2 28,25.05 Z M 21,32.55 C 20.31,32.67 19.65,32.8 19,32.95 V 27.05 L 21,27.67 V 32.55 Z M 24,32.17 C 23.32,32.23 22.65,32.31 22,32.4 V 21.87 L 24,23.02 V 32.17 Z" fill="rgb(203, 164, 67)" fill-rule="evenodd"/>
<defs>
<linearGradient id="a" x1="10.42" x2="68.15" y1="9.71" y2="76.02" gradientUnits="userSpaceOnUse">
<stop stop-color="rgb(25, 29, 31)" offset="0"/>
<stop stop-color="rgb(5, 5, 8)" offset="1"/>
</linearGradient>
</defs>
</svg>
