<?xml version="1.0" encoding="UTF-8"?>
<!-- generated by Finnhub -->
<svg viewBox="0 0 55.5 55.5" xmlns="http://www.w3.org/2000/svg">
<path d="M 0,0 H 55.5 V 55.5 H 0 Z" fill="url(#a)"/>
<path d="M 43.99,36.985 L 39.9,41 H 13 L 16.97,37 H 44 Z M 12,24.5 C 12,19.7 15.66,16 20.62,16 C 23.82,16 26.6,17.67 27.94,20.15 L 24.31,22.25 A 4.12,4.12 0 0,0 20.6,20 A 4.5,4.5 0 1,0 20.6,29 C 22.3,29 23.7,28.08 24.35,26.76 L 28,28.82 A 8.38,8.38 0 0,1 20.62,33 A 8.38,8.38 0 0,1 12,24.5 Z" fill="rgb(254, 254, 253)"/>
<path d="M 39.07,32.985 L 35.52,27.83 L 31.92,33 H 27 L 33.04,24.33 L 27.26,16 H 32.18 L 35.52,20.8 L 38.85,16 H 43.74 L 37.96,24.3 L 44,33 H 39.08 Z" fill="rgb(254, 254, 253)"/>
<defs>
<linearGradient id="a" x2="56" y1="28" y2="28" gradientUnits="userSpaceOnUse">
<stop stop-color="rgb(130, 95, 227)" offset="0"/>
<stop stop-color="rgb(231, 111, 149)" offset=".5"/>
<stop stop-color="rgb(247, 140, 68)" offset="1"/>
</linearGradient>
</defs>
</svg>
