<?xml version="1.0" encoding="UTF-8"?>
<!-- generated by Finnhub -->
<svg viewBox="0 0 55.5 55.5" xmlns="http://www.w3.org/2000/svg">
<path d="M 0,0 H 55.5 V 55.5 H 0 Z" fill="rgb(239, 242, 248)"/>
<path d="M 24.4,12.235 C 21.36,13.08 18.53,15.53 17,18.65 C 16.35,19.98 16.16,20.65 15.89,22.68 L 15.84,23.02 L 14.95,22.95 A 5.78,5.78 0 0,0 10.13,24.9 A 7.1,7.1 0 0,0 8,29.75 A 9.1,9.1 0 0,0 9.1,34.62 C 9.9,35.99 11.64,37.55 13.35,38.42 C 14.15,38.83 15.84,39.43 17.01,39.72 C 17.93,39.96 18.01,39.96 28.76,39.99 C 38.28,40.02 39.68,40 40.44,39.85 C 43.8,39.21 46.24,37.52 47.32,35.11 C 47.87,33.88 48.12,32.15 47.92,30.99 A 7.94,7.94 0 0,0 43.39,25.04 A 7.7,7.7 0 0,0 41.06,24.48 H 40.69 L 40.63,23.72 A 7.2,7.2 0 0,0 38.57,19.08 A 7.4,7.4 0 0,0 34.46,16.83 C 33.62,16.67 33.61,16.66 33.51,16.3 C 33.18,15.09 31.81,13.54 30.44,12.85 A 7.3,7.3 0 0,0 26.63,12 C 25.57,12 25.11,12.06 24.4,12.25 Z M 29.77,14.25 C 30.87,14.49 31.73,14.98 32.6,15.87 L 33.37,16.65 L 32.25,16.73 C 29.5,16.91 27.3,17.79 25.6,19.38 A 10.5,10.5 0 0,0 23.74,21.91 A 15,15 0 0,0 22.59,29.31 C 22.82,31.11 23.8,33.95 24.89,35.93 L 25.34,37 H 24.28 L 23.5,35.63 C 21.34,32.53 19.77,29.19 19.22,26.53 C 18.42,22.73 19.93,18.51 22.92,16.16 C 24.94,14.58 27.72,13.8 29.77,14.25 Z M 35.71,19.72 C 36.91,20.03 37.78,20.56 38.79,21.59 A 5.13,5.13 0 0,1 40.37,24.11 C 40.44,24.45 40.43,24.48 40.21,24.48 A 8.1,8.1 0 0,0 37.91,25.28 C 36.66,25.92 35.45,26.98 34.52,28.23 A 7,7 0 0,0 33.62,29.67 C 33.62,29.7 33.92,29.49 34.26,29.18 A 12.2,12.2 0 0,1 38.74,26.65 A 5.99,5.99 0 0,1 41.45,26.63 A 5.25,5.25 0 0,1 44.45,29.5 C 45.83,32.4 44.52,35.4 41.3,36.49 C 39.91,36.95 39.61,37 32.8,37 H 26.23 C 26.12,36.62 25.56,33.1 25.4,31.93 C 25.18,30.38 25.24,27.72 25.54,26.31 A 8.96,8.96 0 0,1 27.86,21.71 A 7.2,7.2 0 0,1 31.65,19.72 C 32.62,19.51 34.9,19.5 35.71,19.72 Z M 15.85,24.04 L 15.95,25.17 C 16.25,27.88 17.5,30.67 19.57,33.3 C 20.34,34.27 21.7,35.93 22.33,36.4 L 23.03,37 H 20.97 C 19.22,37.02 18.63,36.87 17.74,36.68 A 9.96,9.96 0 0,1 12.38,33.72 A 5.53,5.53 0 0,1 10.6,29.42 A 5.44,5.44 0 0,1 14.93,24.02 C 15.81,23.82 15.85,23.82 15.85,24.04 Z" fill="rgb(16, 144, 201)"/>
</svg>
