<?xml version="1.0" encoding="UTF-8"?>
<!-- generated by Finnhub -->
<svg viewBox="0 0 55.5 55.5" xmlns="http://www.w3.org/2000/svg">
<path d="M 0,0 H 55.5 V 55.5 H 0 Z" fill="rgb(239, 242, 248)"/>
<path d="M 14.99,12.985 A 2,2 0 0,0 13,15 V 25 C 13,26.1 13.9,27 15,27 H 27 V 15 A 2,2 0 0,0 25,13 H 15 Z M 41,13 A 2,2 0 0,1 43,15 V 25 A 2,2 0 0,1 41,27 H 29 V 15 C 29,13.9 29.9,13 31,13 H 41 Z M 13,31 C 13,29.9 13.9,29 15,29 H 27 V 41 A 2,2 0 0,1 25,43 H 15 A 2,2 0 0,1 13,41 V 31 Z M 41,29 A 2,2 0 0,1 43,31 V 41 A 2,2 0 0,1 41,43 H 31 A 2,2 0 0,1 29,41 V 29 H 41 Z" fill="rgb(1, 100, 177)"/>
</svg>
