<?xml version="1.0" encoding="UTF-8"?>
<!-- generated by Finnhub -->
<svg viewBox="0 0 55.5 55.5" xmlns="http://www.w3.org/2000/svg">
<path d="M 0,0 H 55.5 V 55.5 H 0 Z" fill="url(#a)"/>
<path d="M 13.73,34.585 C 18.76,35.1 21.74,36.9 23.16,38.1 C 23.32,38.24 23.59,38.06 23.52,37.85 C 20.89,31.17 16.14,29.03 14.17,28.8 H 13.74 A 2.79,2.79 0 0,0 11,31.63 A 3.01,3.01 0 0,0 13.74,34.59 Z" fill="rgb(111, 190, 82)"/>
<path d="M 42.25,34.585 C 37.24,35.1 34.26,36.9 32.84,38.1 C 32.68,38.24 32.41,38.06 32.48,37.85 C 35.11,31.17 39.86,29.03 41.83,28.8 H 42.26 A 2.79,2.79 0 0,1 45,31.63 A 3.01,3.01 0 0,1 42.26,34.59 Z" fill="rgb(18, 137, 202)"/>
<path d="M 15.13,21.935 C 20.16,25.2 21.52,26.89 23.58,31.62 C 23.68,31.86 24.05,31.8 24.06,31.53 C 24.46,22.66 20.48,17.72 18.53,16.4 L 18.08,16.18 C 16.5,15.36 14.62,16.12 13.88,17.86 C 13.15,19.61 13.63,20.96 15.14,21.95 Z" fill="rgb(249, 161, 26)"/>
<path d="M 39.230000000000004,22.455 C 29.34,30.56 29.52,34.39 28.09,41.71 C 28.01,42.14 27.41,42.08 27.35,41.64 C 23.85,26.15 30.38,17.84 33.09,15.4 L 33.72,14.96 C 35.96,13.4 39.29,13.65 40.63,16.4 C 41.97,19.15 41.33,20.65 39.23,22.47 Z" fill="rgb(1, 185, 231)"/>
<defs>
<linearGradient id="a" x1="10.42" x2="68.15" y1="9.71" y2="76.02" gradientUnits="userSpaceOnUse">
<stop stop-color="rgb(25, 29, 31)" offset="0"/>
<stop stop-color="rgb(5, 5, 8)" offset="1"/>
</linearGradient>
</defs>
</svg>
