<?xml version="1.0" encoding="UTF-8"?>
<!-- generated by Finnhub -->
<svg viewBox="0 0 55.5 55.5" xmlns="http://www.w3.org/2000/svg">
<path d="M 0,0 H 55.5 V 55.5 H 0 Z" fill="rgb(191, 158, 136)"/>
<path d="M 34.22,17.015 C 33.46,17.31 32.4,19.06 31.27,21.93 A 36.36,36.36 0 0,0 29.59,27.28 L 29.35,28.63 C 29.35,28.7 29.33,28.77 29.3,28.78 C 29.19,28.88 27.95,29.61 27.93,29.58 C 27.93,29.58 27.94,29.47 27.98,29.33 C 28.12,28.73 28.15,28.38 28.13,27.63 A 3.14,3.14 0 0,0 28,26.5 A 1.34,1.34 0 0,0 27.33,25.7 A 1.19,1.19 0 0,0 26.66,25.56 C 26.26,25.58 26.09,25.68 25.5,26.26 C 24.85,26.92 24.53,27.31 23.43,28.78 C 22.69,29.75 22.51,29.98 22.29,30.21 C 21.93,30.59 21.61,30.73 21.45,30.59 C 21.35,30.51 21.3,30.34 21.32,30.17 A 22.85,22.85 0 0,1 22.32,27.33 C 22.74,26.35 22.78,26.26 22.78,26.12 C 22.78,25.73 22.42,25.48 21.92,25.52 A 0.63,0.63 0 0,0 21.47,25.7 C 21.27,25.9 20.75,27.11 20.24,28.53 C 19.87,29.54 19.84,29.68 19.84,30.27 C 19.84,30.77 19.86,30.88 20.01,31.19 C 20.18,31.53 20.38,31.74 20.71,31.92 C 20.99,32.06 21.17,32.1 21.55,32.1 C 21.85,32.1 21.91,32.09 22.1,32.04 C 22.37,31.97 22.74,31.79 22.97,31.61 C 23.29,31.37 23.72,30.88 24.35,30.03 C 24.77,29.47 25.66,28.35 26.09,27.83 C 26.39,27.47 26.53,27.33 26.61,27.31 C 26.69,27.29 26.77,27.35 26.83,27.47 C 26.87,27.56 26.87,27.61 26.87,27.87 A 7,7 0 0,1 26.28,30.12 C 26.13,30.52 25.68,31.61 25.43,32.14 A 47.3,47.3 0 0,1 23.31,36.17 A 23.41,23.41 0 0,0 21.93,38.73 C 21.56,39.58 21.43,40.07 21.49,40.43 C 21.52,40.62 21.57,40.72 21.69,40.83 C 21.81,40.93 21.97,40.99 22.15,40.99 C 22.35,40.99 22.47,40.92 22.78,40.61 C 23.24,40.15 23.74,39.41 24.34,38.34 A 34.9,34.9 0 0,0 26.14,34.44 A 7.42,7.42 0 0,1 29.17,30.36 L 29.27,30.3 V 30.44 C 29.27,30.84 29.39,31.46 29.53,31.79 C 29.66,32.12 29.96,32.54 30.16,32.69 C 30.33,32.83 30.44,32.87 30.62,32.87 C 30.76,32.87 30.8,32.86 30.87,32.81 C 31.02,32.71 31.11,32.51 31.16,32.22 L 31.2,31.59 A 7.2,7.2 0 0,1 31.75,28.84 C 32.06,28.17 32.55,27.6 33.17,27.19 C 33.79,26.77 34.3,26.69 34.84,26.89 C 35.24,27.04 35.5,27.36 35.64,27.85 C 35.7,28.03 35.7,28.08 35.71,28.39 C 35.71,28.79 35.68,28.93 35.52,29.26 A 2.36,2.36 0 0,1 34.27,30.44 C 34.06,30.51 33.94,30.52 33.34,30.54 C 32.85,30.55 32.72,30.56 32.63,30.59 C 32.25,30.72 32.06,31.22 32.25,31.57 C 32.44,31.93 33.05,32.11 33.88,32.08 C 34.38,32.06 34.68,31.98 35.1,31.78 A 3.96,3.96 0 0,0 36.88,29.84 A 3.73,3.73 0 0,0 37.05,27.47 C 36.83,26.58 36.35,25.9 35.73,25.63 A 3.65,3.65 0 0,0 34.92,25.43 C 34.62,25.39 34.12,25.41 33.82,25.47 A 5.15,5.15 0 0,0 31.38,26.77 C 31.38,26.71 31.51,26.21 31.62,25.89 A 67.3,67.3 0 0,1 33.65,20.86 C 34.55,18.81 34.65,18.56 34.75,18.15 C 34.9,17.55 34.88,17.19 34.68,17.05 C 34.59,16.98 34.38,16.97 34.24,17.02 Z M 16.84,18.76 A 8.32,8.32 0 0,0 12.29,21.22 A 14.97,14.97 0 0,0 9.1,26 A 12.45,12.45 0 0,0 8.35,33.95 A 5.1,5.1 0 0,0 10.31,36.73 C 10.91,37.13 11.6,37.36 12.37,37.44 C 12.67,37.47 13.28,37.46 13.63,37.41 A 8.77,8.77 0 0,0 17.71,35.31 C 18.06,35.01 18.86,34.21 19.09,33.93 C 19.63,33.23 19.83,32.76 19.67,32.5 C 19.63,32.44 19.47,32.35 19.33,32.34 A 0.65,0.65 0 0,0 18.86,32.49 L 18.2,33.04 C 17.33,33.79 16.76,34.24 16.15,34.64 C 15.14,35.32 14.22,35.75 13.44,35.91 C 13.12,35.98 12.58,35.98 12.36,35.92 A 2.34,2.34 0 0,1 11.21,35.17 A 1.96,1.96 0 0,1 10.87,34.54 A 8.99,8.99 0 0,1 10.73,30.01 A 15.58,15.58 0 0,1 15.51,21.41 C 16.3,20.71 17.1,20.47 17.73,20.76 C 17.95,20.87 18.16,21.16 18.24,21.48 C 18.34,21.85 18.34,22.45 18.24,23.07 C 18.14,23.8 18.19,24.12 18.51,24.47 C 18.81,24.77 19.21,24.84 19.59,24.64 C 19.74,24.56 19.82,24.47 19.96,24.19 A 4,4 0 0,0 20.14,21.3 A 4.4,4.4 0 0,0 19.12,19.56 A 2.56,2.56 0 0,0 17.59,18.78 A 5,5 0 0,0 16.84,18.77 Z M 39.05,21.81 C 38.81,21.85 38.6,22.02 38.55,22.21 C 38.5,22.38 38.48,22.66 38.49,22.91 C 38.49,23.19 38.53,23.3 38.63,23.41 C 38.75,23.55 39.02,23.57 39.23,23.46 C 39.47,23.34 39.7,23.06 39.8,22.78 A 1,1 0 0,0 39.85,22.39 C 39.85,22.24 39.84,22.11 39.82,22.06 C 39.78,21.94 39.67,21.83 39.58,21.81 C 39.49,21.78 39.21,21.78 39.05,21.81 Z M 38.7,25.58 A 0.6,0.6 0 0,0 38.36,25.84 C 38.3,25.94 38.3,25.95 38.28,26.34 C 38.28,26.57 38.24,27.09 38.2,27.48 C 38.1,28.68 38.07,29.05 38.06,29.93 C 38.04,30.82 38.06,31.04 38.14,31.35 C 38.24,31.72 38.34,31.92 38.51,32.02 C 38.61,32.08 38.63,32.09 38.81,32.09 C 38.96,32.09 39.01,32.09 39.11,32.03 C 39.29,31.93 39.44,31.76 39.57,31.49 C 39.77,31.07 39.83,30.69 39.79,30.06 C 39.77,29.58 39.73,28.66 39.71,27.54 A 6.97,6.97 0 0,0 39.62,25.96 C 39.57,25.79 39.51,25.69 39.42,25.64 C 39.25,25.54 38.9,25.51 38.7,25.58 Z M 42.1,25.56 A 0.61,0.61 0 0,0 41.63,25.93 L 41.43,26.59 L 41.26,27.29 C 41.13,27.77 40.93,28.76 40.84,29.41 A 5.94,5.94 0 0,0 40.81,31.74 C 40.89,31.92 41.05,32.04 41.29,32.08 C 41.49,32.12 41.73,32.08 41.99,31.95 C 42.22,31.83 42.38,31.67 42.58,31.35 C 43.48,29.89 43.73,29.55 44.38,28.75 C 44.72,28.35 44.91,28.18 45.1,28.08 C 45.23,28.02 45.26,28.01 45.46,28.01 C 45.65,28.01 45.68,28.01 45.78,28.07 C 45.93,28.15 46.04,28.27 46.13,28.48 C 46.33,28.89 46.38,29.29 46.41,30.46 C 46.44,31.46 46.47,31.69 46.61,31.96 A 0.7,0.7 0 0,0 46.91,32.31 C 47.01,32.36 47.05,32.37 47.21,32.37 C 47.37,32.37 47.41,32.37 47.54,32.3 C 47.88,32.14 48.03,31.84 48,31.39 A 45.03,45.03 0 0,0 47.83,29.59 A 5.07,5.07 0 0,0 47.39,27.63 C 47.27,27.39 47.15,27.23 46.96,27.04 C 46.69,26.77 46.37,26.61 45.98,26.55 A 2.9,2.9 0 0,0 45.1,26.59 C 44.28,26.81 43.61,27.35 42.83,28.42 L 42.65,28.65 C 42.63,28.65 42.68,28.43 42.85,27.86 C 43.2,26.66 43.25,26.33 43.12,26.05 A 1.07,1.07 0 0,0 42.69,25.65 A 0.92,0.92 0 0,0 42.1,25.56 Z" fill="rgb(254, 254, 253)"/>
</svg>
