<?xml version="1.0" encoding="UTF-8"?>
<!-- generated by Finnhub -->
<svg viewBox="0 0 55.5 55.5" xmlns="http://www.w3.org/2000/svg">
<path d="M 0,0 H 55.5 V 55.5 H 0 Z" fill="rgb(239, 242, 248)"/>
<path d="M 31.99,22.915 V 21 H 30 V 20 H 38 V 21 H 36 V 23.35 L 39.36,23.9 L 41.54,21 H 40 V 20 H 46 V 21 H 43.48 C 42.65,22.01 41.83,23.25 40.98,24.28 L 41.31,24.38 C 42.07,24.58 42.81,24.81 43.54,25.08 C 44.52,25.42 45.45,25.88 46.33,26.44 C 46.72,26.7 47.08,27.01 47.39,27.36 C 47.68,27.66 47.87,28.05 47.96,28.46 C 48.04,28.83 48,29.23 47.83,29.58 A 3.6,3.6 0 0,1 46.82,30.82 C 46.32,31.22 45.78,31.56 45.22,31.83 C 44.42,32.22 42.12,32.97 41,33.33 V 31.9 C 41.97,31.6 42.95,31.33 43.87,30.9 C 44.44,30.63 44.99,30.31 45.42,29.82 C 45.63,29.59 45.78,29.3 45.84,28.98 C 45.87,28.78 45.84,28.58 45.77,28.39 C 45.67,28.13 45.51,27.89 45.31,27.69 C 44.91,27.29 44.43,26.97 43.91,26.75 C 43.17,26.4 42.4,26.13 41.61,25.93 L 40,25.6 H 39.91 L 34.33,32.43 C 35.25,32.46 36.18,32.45 37.11,32.39 C 38.01,32.32 39.1,32.21 40,32.11 V 33.63 A 55.4,55.4 0 0,1 32.49,34.66 L 31.25,36.17 L 26.27,42.27 A 2.03,2.03 0 0,1 24.76,43.01 A 1.3,1.3 0 0,1 24.22,40.49 C 24.42,40.39 24.64,40.36 24.86,40.37 H 25.87 L 30.41,34.83 C 30.33,34.75 30.24,34.78 30.16,34.78 C 29.9,34.79 29.64,34.82 29.38,34.82 C 28.44,34.83 27.5,34.85 26.55,34.84 C 25.98,34.84 25.4,34.83 24.82,34.8 C 23.86,34.75 22.9,34.7 21.94,34.62 C 20.81,34.52 19.69,34.39 18.57,34.24 A 38.98,38.98 0 0,1 13.72,33.28 C 12.3,32.92 10.92,32.41 9.61,31.77 C 9.01,31.47 8.45,31.09 7.95,30.65 A 2.7,2.7 0 0,1 7.05,29.29 C 6.94,28.8 7.01,28.29 7.26,27.85 C 7.54,27.4 7.91,27 8.34,26.69 C 9.06,26.15 9.84,25.72 10.68,25.39 A 26.1,26.1 0 0,1 14.88,24.09 C 15.89,23.86 16.9,23.66 17.92,23.52 L 20.32,23.2 A 140.96,140.96 0 0,1 24.24,22.89 C 24.67,22.86 25.1,22.85 25.54,22.84 L 26.83,22.83 C 27.06,22.83 27.29,22.8 27.52,22.81 C 28.32,22.81 29.12,22.83 29.92,22.85 C 30.5,22.87 31.08,22.91 31.66,22.95 H 32 Z M 32,25.37 C 31.42,25.46 30.66,25.53 30.11,25.63 C 28.99,25.81 27.89,26.12 26.83,26.54 C 26.18,26.79 25.57,27.16 25.04,27.62 C 24.74,27.87 24.54,28.22 24.45,28.6 C 24.37,29.08 24.55,29.48 24.86,29.83 C 25.23,30.23 25.67,30.55 26.16,30.78 C 26.81,31.11 27.49,31.38 28.19,31.56 C 29.26,31.86 30.35,32.08 31.45,32.21 L 32,32.25 V 25.37 Z M 36.17,25.23 S 36,25.18 36,25.23 V 27.89 S 36.16,27.72 36.17,27.76 C 36.38,27.56 38.05,25.51 38.13,25.35 C 37.48,25.27 36.83,25.23 36.17,25.23 Z" fill="rgb(214, 1, 15)"/>
</svg>
