<?xml version="1.0" encoding="UTF-8"?>
<!-- generated by Finnhub -->
<svg viewBox="0 0 55.5 55.5" xmlns="http://www.w3.org/2000/svg">
<path d="M 0,0 H 55.5 V 55.5 H 0 Z" fill="rgb(239, 242, 248)"/>
<path d="M 51.99,23.985 H 4 V 24.5 H 52 V 24 Z M 52,32.5 H 45.72 L 45.49,32 H 52 V 32.5 Z M 4,32 H 41.8 L 42.04,32.5 H 4 V 32 Z" fill="rgb(120, 120, 119)"/>
<path d="M 3.99,26.255 V 29.73 C 4,30.43 4.57,31 5.28,31 H 9.33 L 9.45,29.83 C 9.3,29.93 8.88,29.97 8.66,30 H 6.71 C 6.35,30 6,29.74 6,29.4 V 26.64 C 6,26.29 6.35,26 6.7,26 H 8.64 C 9.06,26 9.27,26.14 9.33,26.21 L 9.17,25 H 5.27 C 4.57,25 4,25.57 4,26.27 Z M 9.76,25 H 15.04 L 15.22,26.18 A 1.2,1.2 0 0,0 14.53,26 H 12 V 27.5 H 14.43 C 14.57,27.48 14.88,27.36 15,27.24 V 28.74 C 14.9,28.67 14.65,28.5 14.43,28.5 H 12 V 30 H 14.53 C 14.66,30 15,30 15.3,29.86 L 15.04,31 H 9.76 C 9.83,30.91 10,30.67 10,30.42 V 25.64 A 2.47,2.47 0 0,0 9.76,25 Z M 15.8,31 H 17.36 L 17.32,30.96 C 17.22,30.86 17,30.65 17,30.46 V 26 H 17.25 L 19.84,31 H 23 V 25.35 C 23.03,25.27 23.17,25.08 23.28,25 H 21.77 C 21.85,25.07 22,25.24 22,25.35 V 30 H 21.88 L 19.25,25 H 15.87 C 15.93,25.04 16,25.17 16,25.35 V 30.46 C 16,30.56 15.95,30.81 15.8,31 Z M 24.26,25 L 24.03,26.15 C 24.23,26.01 24.47,26.01 24.63,26 H 26 V 30.6 C 26,30.69 25.9,30.84 25.85,30.94 L 25.81,31 H 28.25 A 0.96,0.96 0 0,1 28,30.6 V 26 H 29.3 C 29.68,26 29.93,26.07 30,26.15 L 29.79,25 H 24.26 Z M 30.69,25 H 33.25 C 33.17,25.1 33,25.37 33,25.62 V 29.4 C 33,29.75 33.29,30 33.62,30 H 35.46 C 35.79,30 36,29.75 36,29.4 V 25.55 A 1.29,1.29 0 0,0 35.84,25 H 37.26 C 37.18,25.12 37,25.4 37,25.62 V 29.74 C 37,30.44 36.47,31 35.8,31 H 32.09 C 31.42,31 31,30.44 31,29.74 V 25.62 C 30.98,25.51 30.85,25.29 30.76,25.12 L 30.69,25 Z M 40.21,31 H 37.77 C 37.85,30.92 37.97,30.69 38,30.58 V 25.56 C 38,25.34 37.84,25.1 37.77,25 H 43.07 C 43.6,25 44,25.42 44,25.94 V 27.44 C 44,27.92 43.65,28.43 43.18,28.49 L 46.5,35 H 43.5 L 40.87,28.5 H 40 V 30.58 C 40,30.69 40.1,30.85 40.17,30.95 L 40.21,31 Z M 40,26 H 41.79 C 41.91,26 42,26.08 42,26.19 V 27.31 C 42,27.41 41.9,27.5 41.79,27.5 H 40 V 26 Z M 44.5,25 H 47.59 C 47.56,25.07 47.51,25.23 47.54,25.33 C 47.58,25.43 48.49,26.84 48.94,27.53 L 50.24,25.51 V 25 H 51.95 C 51.8,25.09 51.47,25.3 51.35,25.51 C 51.31,25.59 51.07,25.91 50.75,26.31 C 50.2,27.05 49.41,28.11 49,28.74 V 30.62 L 49.28,31 H 46.84 L 47,30.62 V 28.61 L 44.72,25.18 L 44.49,25 Z" fill="rgb(119, 41, 51)" fill-rule="evenodd"/>
</svg>
