<?xml version="1.0" encoding="UTF-8"?>
<!-- generated by Finnhub -->
<svg viewBox="0 0 55.5 55.5" xmlns="http://www.w3.org/2000/svg">
<path d="M 0,0 H 55.5 V 55.5 H 0 Z" fill="rgb(239, 242, 248)"/>
<path d="M 12.99,12.985 V 14 C 34.32,16.73 36,17.36 36,18.2 C 36,19.05 34.75,19.62 32.5,20.39 C 30.26,21.15 27,22.16 27,24 C 27,26.7 37.58,33.08 43,36 V 13 H 13 Z" fill="rgb(18, 32, 59)"/>
<path d="M 12.99,42.985 V 33 C 17.08,38.83 22.03,42.1 24,43 H 13 Z" fill="rgb(47, 111, 190)"/>
<path d="M 12.99,26.985 V 15 C 23.2,16.33 29.52,17.56 32.6,18.3 C 33.15,18.44 33.13,19.07 32.57,19.2 L 22.57,21.31 A 17.98,17.98 0 0,0 13,27 Z" fill="rgb(25, 33, 151)"/>
</svg>
