<?xml version="1.0" encoding="UTF-8"?>
<!-- generated by Finnhub -->
<svg viewBox="0 0 55.5 55.5" xmlns="http://www.w3.org/2000/svg">
<path d="M 0,0 H 55.5 V 55.5 H 0 Z" fill="rgb(239, 242, 248)"/>
<path d="M 15.69,19.985 H 17.06 C 18.23,20.12 19.37,20.4 20.5,20.7 C 20.53,21.1 20.5,21.5 20.46,21.9 A 6.84,6.84 0 0,0 17.64,20.62 A 6,6 0 0,0 12.15,22.18 C 10.6,23.7 9.95,25.9 9.95,28 C 9.95,30.07 10.57,32.24 12.12,33.73 A 6.05,6.05 0 0,0 16.9,35.36 C 18.42,35.21 20.49,34.69 21.62,33.66 L 21.89,34.06 C 20.62,35.06 18.58,35.86 16.93,36 H 15.32 A 8.09,8.09 0 0,1 9.88,33.31 A 8.11,8.11 0 0,1 8,28.91 V 27.58 A 8.35,8.35 0 0,1 15.7,20 Z M 34.2,20.03 C 34.04,20.3 33.99,20.61 34,20.93 V 33.89 C 34.27,34.06 34.7,34.47 35,34.59 V 23.3 C 38.83,27.36 42.7,31.4 46.76,35.24 C 47.05,35.52 47.36,35.78 47.7,36 L 48,35.83 V 20 H 47 V 33 C 45.16,31.16 43.37,29.3 41.53,27.47 L 35.53,21.3 C 35.11,20.86 34.71,20.38 34.2,20.03 Z" fill="rgb(94, 98, 104)"/>
<path d="M 25.099999999999998,20.705 A 5.53,5.53 0 0,1 29.13,20.13 C 29.6,20.25 30.13,20.35 30.48,20.7 C 30.58,21.6 30.51,22.52 30.34,23.4 L 30.07,23.33 C 29.97,22.74 29.89,22.12 29.44,21.68 A 2.93,2.93 0 0,0 25.54,21.28 C 24.68,21.94 24.46,23.16 24.72,24.16 C 25,25.22 25.72,26.09 26.42,26.92 A 50.75,50.75 0 0,0 31.92,32.22 C 33.59,33.48 35.29,35.24 37.43,35.62 C 37.62,35.69 37.93,35.59 38.01,35.82 C 37.88,36.08 37.59,35.98 37.28,35.98 C 36.07,35.98 34.59,35.98 33.99,35.75 C 33.01,35.37 32.21,34.4 31.36,33.8 A 7.18,7.18 0 0,1 27.26,35.9 C 25.94,36.1 24.53,36 23.36,35.34 A 4.61,4.61 0 0,1 21.05,32.09 A 4.93,4.93 0 0,1 22.15,28.27 A 7.62,7.62 0 0,1 24.18,26.57 A 5.18,5.18 0 0,1 23.2,24.2 C 23.02,22.78 23.93,21.44 25.11,20.72 Z M 23.11,28.59 A 4.46,4.46 0 0,0 24.36,34.09 C 25.07,34.63 25.97,34.91 26.86,34.89 C 28.3,34.91 29.77,34.41 30.8,33.41 A 41.26,41.26 0 0,1 24.52,27.11 C 23.94,27.48 23.44,27.99 23.12,28.59 Z" fill="rgb(35, 178, 73)"/>
</svg>
