<?xml version="1.0" encoding="UTF-8"?>
<!-- generated by Finnhub -->
<svg viewBox="0 0 55.5 55.5" xmlns="http://www.w3.org/2000/svg">
<rect width="56" height="56" fill="rgb(239, 242, 248)"/>
<path d="M 40.564,18.985 C 37.4051,19 32.2043,21.4521 30,22.6781 C 32.5207,21.7586 38.1646,19.9195 40.574,19.9195 S 42.3199,21.9732 41.687,23 C 44.5155,19.9839 42.1235,19.0766 40.574,19 Z M 11.5,23.7427 C 10.8269,23.2751 10.0027,23 9.1125,23 C 6.8412,23 5,24.7909 5,27 C 5,29.2092 6.8412,31 9.1125,31 C 10.0027,31 10.8269,30.7249 11.5,30.2573 V 28.4378 C 11.0023,29.0803 10.1801,29.5 9.25,29.5 C 7.7312,29.5 6.5,28.3807 6.5,27 S 7.7312,24.5 9.25,24.5 C 10.1801,24.5 11.0023,24.9197 11.5,25.5622 V 23.7427 Z M 18.9,23.7427 C 18.2372,23.2751 17.4258,23 16.5492,23 C 14.3129,23 12.5,24.7909 12.5,27 C 12.5,28.885 13.8199,30.4655 15.5966,30.8887 C 16.5015,30.5613 17.7361,30.0849 18.9,29.5729 V 28.5589 C 18.3961,29.1325 17.6203,29.5 16.75,29.5 C 15.2312,29.5 14,28.3807 14,27 S 15.2312,24.5 16.75,24.5 C 17.6203,24.5 18.3961,24.8675 18.9,25.4411 V 23.7427 Z M 20,31 V 29.9248 C 20.5355,29.6391 21.0541,29.3592 21.5,29.1165 V 31 H 20 Z M 21.5,27.5 V 28.2389 C 21.1001,28.5023 20.5792,28.7837 20,29.0656 V 23 H 25 V 24.5 H 21.5 V 26 H 25 V 27.5 H 21.5 Z M 5.632,30.1848 C 5.08784,30.6087 3.9995,31.7287 3.9995,32.8171 C 4.08625,33.2114 4.6998,34.0001 6.46,34.0001 C 8.6603,34.0001 17.623,32.1526 21.999,28.2782 C 18.8287,29.9935 11.087,33.3199 6.98,33.3199 C 5.6157,33.4776 3.4359,33.0714 5.6314,30.1848 Z M 28.222,31 H 25.9995 V 23 H 28.222 C 28.8366,23.0248 29.9995,23.4988 29.9995,25.1957 C 29.9922,25.5637 29.8526,26.4082 29.088,26.8424 C 29.5585,26.9174 30.4995,27.4512 30.4995,28.9866 C 30.4995,30.9058 28.8231,31 28.222,31 Z M 26.998,24 V 26.4997 H 27.9536 C 28.3007,26.5089 28.9951,26.3036 28.9951,25.4087 C 28.9951,24.3149 28.3007,24.0138 27.9536,24 H 26.998 Z M 26.998,27.5 V 29.9997 H 28.1925 C 28.6264,30.0089 29.4943,29.8036 29.4943,28.9087 C 29.4943,27.8149 28.6264,27.5138 28.1925,27.5 H 26.998 Z M 31.9009,31 H 30.7932 L 33.6531,23 H 34.3581 L 37.2785,31 H 36.2312 L 35.4335,28.9382 V 29 H 32.5993 L 31.9009,31 Z M 32.9485,28 H 35.0706 L 33.9552,25.1169 L 32.9485,28 Z M 38.9995,31 H 37.9995 V 23 H 38.9803 L 42.9995,29.211 V 23 H 43.9995 V 31 H 42.9788 L 38.9995,24.9072 V 31 Z M 45.998,31 H 44.9995 V 23 H 45.998 V 31 Z M 50.2348,23 H 48.926 L 45.9995,26.7957 V 27.1192 L 49.5877,31 H 50.9995 L 47.2642,26.7957 L 50.2348,23 Z" clip-rule="evenodd" fill="rgb(13, 39, 73)" fill-rule="evenodd"/>
</svg>
