<?xml version="1.0" encoding="UTF-8"?>
<!-- generated by Finnhub -->
<svg viewBox="0 0 55.5 55.5" xmlns="http://www.w3.org/2000/svg">
<path d="M 0,0 H 55.5 V 55.5 H 0 Z" fill="rgb(18, 55, 126)"/>
<path d="M 3.99,31.185 V 31.47 C 4,31.77 4.24,32 4.53,32 H 10.47 C 10.77,32 11,31.76 11,31.47 V 30.5 C 9.87,30.58 8.9,30.68 8,30.78 C 7.88,30.95 7.69,31 7.5,31 C 7.26,31 7.2,31 7,30.87 L 6.7,30.91 L 6.51,30.95 C 5.57,31.05 4.74,31.15 4,31.2 Z M 11,25.09 V 23.53 C 11,23.23 10.76,23 10.47,23 H 8.5 C 8.2,23 7.99,23.24 7.99,23.53 V 24.46 C 7.99,24.76 7.72,25 7.43,25 H 4.53 C 4.23,25 3.99,25.24 3.99,25.53 V 30.42 C 4.61,30.38 5.3,30.3 6.09,30.21 L 6.41,30.17 L 6.84,30.11 L 6.99,30.09 V 26.62 C 6.99,26.32 7.26,26.09 7.52,26.09 S 7.99,26.33 7.99,26.62 V 30 C 8.89,29.9 9.89,29.81 10.99,29.73 V 25.1 Z M 24,31.46 V 30.68 L 27,30.88 V 31.46 C 27,31.76 26.76,32 26.46,32 H 24.5 C 24.21,32 24,31.76 24,31.46 Z M 20,31.46 V 30.45 C 20.97,30.49 21.95,30.55 23,30.62 V 31.46 C 23,31.76 22.79,32 22.49,32 H 20.53 A 0.54,0.54 0 0,1 20,31.46 Z M 26.47,25 C 26.76,25 27,25.24 27,25.54 V 30.1 L 25.72,30 L 24,29.9 V 26.56 C 24,26.26 23.76,26.01 23.5,26.01 S 23,26.25 23,26.56 V 29.84 A 158.9,158.9 0 0,0 20,29.67 V 25.55 C 20,25.25 20.24,25.01 20.54,25.01 H 26.47 Z M 36.53,32 A 0.54,0.54 0 0,1 36,31.46 L 36.25,31.48 C 38.83,31.64 41.07,31.58 43,31.41 V 31.46 C 43,31.76 42.76,32 42.47,32 H 36.53 Z M 36,25.54 C 36,25.24 36.24,25 36.53,25 H 42.47 C 42.76,25 43,25.26 43,25.56 V 30.64 C 42.08,30.72 41.1,30.78 40,30.8 V 26.53 C 40,26.23 39.76,26 39.5,26 S 39,26.23 39,26.53 V 30.8 C 38.14,30.79 37.26,30.76 36.3,30.7 L 36,30.67 V 25.54 Z M 44,30.57 C 45.12,30.44 46.14,30.27 47,30.1 V 29.9 C 47,29.6 46.74,29.5 46.44,29.5 H 44.54 C 44.24,29.5 44,29.6 44,29.9 V 30.57 Z M 50.21,30.04 C 49.65,30.24 48.95,30.47 48,30.7 C 48,30.83 47.75,31 47.49,31 C 47.19,31.02 47.04,30.96 47,30.9 C 46.12,31.07 45.12,31.23 44,31.36 V 31.46 C 44,31.76 44.24,32 44.54,32 H 50.47 C 50.76,32 51,31.76 51,31.46 V 29.74 L 50.21,30.04 Z M 51,26.19 C 51,26.49 50.76,26.5 50.46,26.5 H 48.49 C 48.19,26.5 48,26.46 48,26.3 C 48,26.19 47.81,26 47.5,26 S 47,26.23 47,26.53 V 27.03 C 47,27.32 47.22,27.5 47.48,27.5 H 50.46 C 50.75,27.5 51,27.74 51,28.05 V 28.91 L 50.97,28.92 L 50.83,28.97 A 21.56,21.56 0 0,1 48,29.9 V 29.37 C 48,28.86 47.77,28.5 47.24,28.5 H 44.54 A 0.54,0.54 0 0,1 44,27.96 V 25.54 C 44,25.24 44.24,25 44.53,25 H 50.46 C 50.75,25 51,25.24 51,25.54 V 26.19 Z M 12,30.44 V 31.46 C 12,31.76 12.24,32 12.53,32 H 18.47 C 18.77,32 19,31.75 19,31.46 V 30.4 A 84.65,84.65 0 0,0 16,30.33 V 30.46 C 16,30.76 15.76,30.99 15.5,30.99 A 0.52,0.52 0 0,1 15,30.46 V 30.33 C 13.9,30.33 12.93,30.37 12,30.43 Z M 12.53,25 C 12.23,25 12,25.26 12,25.55 V 26.45 C 12,26.75 12.24,27 12.53,27 H 14.49 C 14.79,27 15,26.94 15,26.65 V 26.52 C 15,26.22 15.24,26 15.5,26 S 16,26.22 16,26.52 V 27.47 C 16,27.77 15.76,28 15.5,28 H 12.53 C 12.23,28 12,28.25 12,28.55 V 29.65 C 12.92,29.59 13.9,29.55 15,29.55 C 15,29.25 15.24,29 15.5,29 S 16,29.25 16,29.55 C 16.96,29.55 17.94,29.58 19,29.62 V 25.54 C 19,25.24 18.76,25 18.47,25 H 12.53 Z M 28,31.46 V 30.9 L 29.93,31.04 L 30.68,31.09 L 31.38,31.14 H 31.4 L 31.5,31.16 H 31.54 L 33.61,31.31 L 35,31.41 V 31.46 C 35,31.76 34.75,32 34.45,32 H 28.53 A 0.54,0.54 0 0,1 28,31.46 Z M 28,25.55 C 28,25.25 28.24,25 28.54,25 H 34.47 C 34.76,25 35,25.24 35,25.54 V 30.61 A 302.79,302.79 0 0,1 32,30.39 V 29.53 C 32,29.23 31.76,29 31.5,29 S 31,29.23 31,29.53 V 30.33 L 30,30.25 L 28.91,30.17 L 28,30.1 V 28.54 C 28,28.24 28.24,28 28.53,28 H 31.49 C 31.75,28 32,27.76 32,27.46 V 26.54 C 32,26.24 31.75,26 31.5,26 C 31.23,26 31,26.24 31,26.54 V 26.64 C 31,26.94 30.8,27 30.5,27 H 28.54 A 0.55,0.55 0 0,1 28,26.45 V 25.55 Z" fill="rgb(254, 254, 253)"/>
</svg>
