<?xml version="1.0" encoding="UTF-8"?>
<!-- generated by Finnhub -->
<svg viewBox="0 0 55.5 55.5" xmlns="http://www.w3.org/2000/svg">
<path d="M 0,0 H 55.5 V 55.5 H 0 Z" fill="rgb(239, 242, 248)"/>
<path d="M 42.52,20.544999999999998 C 42.53,20.57 42.54,20.57 42.53,20.56 C 42.66,20.58 42.77,20.52 42.81,20.39 L 43.91,16.39 A 0.22,0.22 0 0,0 43.72,16.11 L 43.07,16.01 A 0.24,0.24 0 0,0 42.8,16.21 L 42.33,20.33 C 42.33,20.43 42.4,20.55 42.53,20.56 Z M 40.17,20.75 C 40.29,20.71 40.35,20.59 40.33,20.48 L 39.17,16.49 A 0.24,0.24 0 0,0 38.87,16.34 L 38.24,16.54 A 0.23,0.23 0 0,0 38.1,16.84 L 39.87,20.64 C 39.92,20.74 40.05,20.79 40.17,20.75 Z M 38.22,22.03 C 38.3,21.93 38.3,21.81 38.21,21.72 L 35.11,18.8 A 0.25,0.25 0 0,0 34.77,18.82 L 34.34,19.29 C 34.24,19.39 34.27,19.54 34.37,19.62 L 37.88,22.06 C 38,22.14 38.14,22.13 38.22,22.03 Z M 37.2,24.07 A 0.23,0.23 0 0,0 37.03,23.81 L 32.83,22.76 C 32.7,22.73 32.56,22.81 32.53,22.94 L 32.42,23.56 C 32.39,23.68 32.49,23.81 32.62,23.83 L 36.95,24.27 C 37.07,24.27 37.18,24.18 37.2,24.07 Z M 45.2,27.69 C 45.11,27.79 45.11,27.91 45.2,27.99 L 48.3,30.91 C 48.39,31 48.55,31 48.65,30.9 L 49.07,30.42 C 49.17,30.32 49.14,30.18 49.04,30.1 L 45.53,27.65 C 45.41,27.58 45.27,27.59 45.19,27.69 C 45.19,27.68 45.19,27.69 45.19,27.69 Z M 46.21,25.64 C 46.19,25.76 46.26,25.87 46.39,25.91 L 50.59,26.95 C 50.72,26.99 50.86,26.91 50.89,26.77 L 50.99,26.15 C 51.02,26.03 50.93,25.91 50.79,25.89 L 46.47,25.44 C 46.34,25.44 46.24,25.52 46.21,25.64 Z M 46.02,23.4 C 46.06,23.52 46.18,23.57 46.31,23.54 L 50.5,22.44 C 50.63,22.41 50.7,22.27 50.66,22.15 L 50.44,21.56 C 50.39,21.44 50.26,21.38 50.13,21.43 L 46.15,23.11 C 46.03,23.15 45.98,23.27 46.02,23.4 Z M 44.67,21.54 C 44.77,21.62 44.92,21.62 45,21.53 L 48.05,18.58 C 48.15,18.49 48.15,18.34 48.05,18.26 L 47.53,17.85 A 0.24,0.24 0 0,0 47.2,17.88 L 44.63,21.23 C 44.56,21.33 44.58,21.46 44.67,21.53 Z" fill="rgb(254, 181, 2)"/>
<path d="M 44.910000000000004,27.215 L 44.05,26.63 L 43.91,26.79 L 44.67,27.51 C 44.72,27.55 44.81,27.55 44.86,27.5 L 44.9,27.45 C 44.92,27.45 44.93,27.42 44.94,27.41 C 44.98,27.35 44.97,27.26 44.92,27.23 Z" fill="rgb(254, 143, 19)"/>
<path d="M 48.38,27.415 L 44.45,26 A 0.33,0.33 0 0,1 44.41,26.08 L 44.36,26.18 L 48.03,28.16 C 48.15,28.23 48.3,28.19 48.36,28.07 L 48.44,27.91 L 48.52,27.74 C 48.58,27.63 48.51,27.49 48.39,27.44 Z" fill="rgb(254, 181, 2)"/>
<path d="M 45.730000000000004,25.375 L 44.67,25.27 L 44.64,25.47 L 45.68,25.73 C 45.75,25.75 45.82,25.71 45.83,25.64 L 45.84,25.59 L 45.85,25.53 C 45.85,25.45 45.81,25.39 45.74,25.39 Z" fill="rgb(254, 143, 19)"/>
<path d="M 49.120000000000005,24.275 A 0.93,0.93 0 0,0 49.11,24.11 C 49.1,23.98 48.97,23.9 48.84,23.91 L 44.67,24.53 L 44.68,24.73 L 48.9,24.71 C 49.04,24.71 49.14,24.6 49.13,24.47 V 24.29 Z" fill="rgb(254, 181, 2)"/>
<path d="M 45.67,23.555 L 45.66,23.52 L 45.63,23.46 C 45.61,23.4 45.53,23.36 45.46,23.4 L 44.48,23.8 L 44.54,24 L 45.59,23.73 C 45.67,23.71 45.7,23.64 45.68,23.57 Z" fill="rgb(254, 143, 19)"/>
<path d="M 47.940000000000005,20.965 L 47.85,20.83 A 0.72,0.72 0 0,0 47.73,20.68 A 0.25,0.25 0 0,0 47.39,20.64 L 44.12,23.16 L 44.23,23.33 L 47.87,21.29 C 47.98,21.23 48.02,21.09 47.95,20.99 Z" fill="rgb(254, 181, 2)"/>
<path d="M 43.71,22.735 L 44.48,22.02 A 0.12,0.12 0 0,0 44.46,21.84 C 44.46,21.83 44.43,21.82 44.42,21.79 L 44.37,21.76 A 0.13,0.13 0 0,0 44.19,21.78 L 43.55,22.61 L 43.72,22.75 Z" fill="rgb(254, 143, 19)"/>
<path d="M 45.07,18.515 A 1.2,1.2 0 0,0 44.9,18.45 L 44.73,18.37 A 0.24,0.24 0 0,0 44.42,18.49 L 42.9,22.24 L 43,22.28 L 43.09,22.33 L 45.17,18.83 A 0.22,0.22 0 0,0 45.07,18.53 Z" fill="rgb(254, 181, 2)"/>
<path d="M 42.35,22.055 L 42.62,21.08 C 42.65,21.02 42.6,20.95 42.52,20.94 L 42.46,20.93 L 42.4,20.92 C 42.33,20.91 42.26,20.95 42.25,21.02 L 42.14,22.04 L 42.36,22.07 Z" fill="rgb(254, 143, 19)"/>
<path d="M 41.35,22.015 L 41.56,22.02 L 41.54,18 A 0.23,0.23 0 0,0 41.3,17.78 L 41.1,17.79 C 41.03,17.79 40.98,17.8 40.92,17.82 A 0.24,0.24 0 0,0 40.72,18.07 L 41.36,22.03 Z" fill="rgb(254, 181, 2)"/>
<path d="M 40.59,22.185 L 40.8,22.14 L 40.51,21.15 A 0.13,0.13 0 0,0 40.35,21.07 L 40.29,21.09 L 40.24,21.12 C 40.17,21.14 40.14,21.22 40.17,21.27 L 40.61,22.21 Z" fill="rgb(254, 143, 19)"/>
<path d="M 40.09,22.445 L 37.97,19 A 0.24,0.24 0 0,0 37.64,18.93 L 37.48,19.03 A 0.74,0.74 0 0,0 37.33,19.13 A 0.22,0.22 0 0,0 37.28,19.46 L 39.93,22.58 L 40.1,22.48 Z" fill="rgb(254, 181, 2)"/>
<path d="M 39.49,22.915 L 38.74,22.21 C 38.7,22.16 38.6,22.16 38.56,22.21 L 38.51,22.26 L 38.48,22.31 C 38.43,22.36 38.44,22.44 38.5,22.48 L 39.37,23.08 L 39.51,22.93 Z M 38.79,24.24 L 37.75,23.98 A 0.12,0.12 0 0,0 37.59,24.08 V 24.13 L 37.57,24.18 C 37.56,24.25 37.61,24.32 37.69,24.32 L 38.75,24.43 L 38.79,24.24 Z" fill="rgb(254, 143, 19)"/>
<path d="M 38.99,23.625 L 39.05,23.55 L 35.38,21.56 A 0.24,0.24 0 0,0 35.06,21.65 C 35.02,21.71 35,21.76 34.98,21.82 L 34.9,21.98 C 34.84,22.1 34.9,22.24 35.02,22.28 L 38.96,23.73 L 39.01,23.64 Z" fill="rgb(254, 181, 2)"/>
<path d="M 5.0600000000000005,31.905 A 0.27,0.27 0 0,1 5,31.72 V 25.27 C 5,25.18 5.02,25.12 5.07,25.07 C 5.11,25.02 5.17,25 5.25,25 H 6.75 A 3.13,3.13 0 0,1 9.58,26.69 C 9.86,27.22 10,27.81 10,28.49 C 10,29.17 9.86,29.77 9.58,30.3 A 3.15,3.15 0 0,1 6.75,32 H 5.25 A 0.29,0.29 0 0,1 5.07,31.92 Z M 6.75,31.52 A 2.65,2.65 0 0,0 9.15,30.05 C 9.38,29.59 9.49,29.06 9.49,28.49 C 9.49,27.92 9.39,27.4 9.14,26.95 A 2.73,2.73 0 0,0 8.16,25.87 A 2.56,2.56 0 0,0 6.75,25.49 H 5.5 V 31.51 H 6.75 Z M 14.78,27.33 C 15.16,27.54 15.46,27.85 15.68,28.23 C 15.89,28.61 16,29.03 16,29.51 V 31.73 C 16,31.81 15.98,31.88 15.93,31.93 A 0.26,0.26 0 0,1 15.73,32 A 0.27,0.27 0 0,1 15.54,31.93 A 0.26,0.26 0 0,1 15.47,31.73 V 30.97 C 15.27,31.29 15,31.54 14.66,31.72 A 2.56,2.56 0 0,1 12.23,31.67 A 2.36,2.36 0 0,1 11.33,30.77 C 11.11,30.39 11,29.97 11,29.51 C 11,29.03 11.1,28.61 11.33,28.22 C 11.54,27.84 11.85,27.54 12.23,27.32 C 12.61,27.11 13.03,27 13.51,27 C 13.97,27 14.39,27.1 14.78,27.33 Z M 14.5,31.23 C 14.8,31.07 15.03,30.83 15.2,30.53 C 15.37,30.22 15.46,29.88 15.46,29.51 C 15.46,29.13 15.37,28.79 15.2,28.49 A 1.9,1.9 0 0,0 13.5,27.51 A 1.9,1.9 0 0,0 11.8,28.49 C 11.62,28.79 11.53,29.13 11.53,29.51 C 11.53,29.88 11.62,30.22 11.79,30.52 A 1.9,1.9 0 0,0 13.49,31.49 C 13.87,31.5 14.21,31.41 14.49,31.24 Z M 21.5,27.24 A 0.4,0.4 0 0,1 21.46,27.36 L 18.56,33.84 C 18.5,33.95 18.43,34 18.36,34 L 18.23,33.98 C 18.13,33.93 18.07,33.86 18.07,33.78 A 0.4,0.4 0 0,1 18.1,33.65 L 18.97,31.72 L 18.94,31.66 L 17.04,27.39 A 0.33,0.33 0 0,1 17,27.24 C 17,27.16 17.05,27.08 17.15,27.04 A 0.3,0.3 0 0,1 17.29,27 C 17.38,27 17.45,27.05 17.49,27.16 L 19.26,31.11 L 21.03,27.17 C 21.08,27.06 21.15,27.01 21.23,27.01 L 21.35,27.04 C 21.45,27.08 21.5,27.16 21.5,27.24 Z M 25.72,31.54 A 3.5,3.5 0 0,1 24,28.5 A 3.49,3.49 0 0,1 25.72,25.46 A 3.5,3.5 0 0,1 27.5,25 A 3.49,3.49 0 0,1 30.53,26.72 C 30.83,27.25 30.99,27.84 30.99,28.49 A 3.5,3.5 0 0,1 29.27,31.54 A 3.6,3.6 0 0,1 25.71,31.54 Z M 29.02,31.09 A 2.8,2.8 0 0,0 30.09,30.02 A 3,3 0 0,0 30.48,28.49 C 30.48,27.94 30.35,27.44 30.08,26.98 A 2.8,2.8 0 0,0 29.02,25.91 C 28.57,25.65 28.06,25.52 27.51,25.52 C 26.95,25.52 26.44,25.65 25.98,25.92 A 2.8,2.8 0 0,0 24.91,26.98 C 24.65,27.43 24.52,27.94 24.52,28.49 C 24.52,29.05 24.65,29.56 24.92,30.02 C 25.17,30.47 25.52,30.84 25.98,31.09 A 3,3 0 0,0 27.51,31.48 C 28.06,31.48 28.57,31.35 29.02,31.08 Z M 35.03,27.27 C 35.33,27.45 35.57,27.71 35.74,28.07 C 35.91,28.4 36,28.82 36,29.3 V 31.73 A 0.3,0.3 0 0,1 35.94,31.93 A 0.21,0.21 0 0,1 35.76,32 A 0.23,0.23 0 0,1 35.59,31.93 A 0.28,0.28 0 0,1 35.53,31.73 V 29.3 C 35.53,28.73 35.39,28.3 35.09,28 C 34.81,27.7 34.44,27.55 33.99,27.55 C 33.7,27.55 33.44,27.61 33.22,27.73 C 32.99,27.85 32.81,28.03 32.67,28.24 C 32.54,28.46 32.47,28.71 32.47,28.96 V 31.72 A 0.3,0.3 0 0,1 32.41,31.92 A 0.21,0.21 0 0,1 32.24,31.99 A 0.23,0.23 0 0,1 32.06,31.91 A 0.28,0.28 0 0,1 32,31.71 V 27.33 C 32,27.24 32.02,27.18 32.06,27.13 C 32.11,27.09 32.16,27.06 32.24,27.06 C 32.31,27.06 32.37,27.09 32.41,27.13 C 32.45,27.18 32.47,27.24 32.47,27.33 V 27.79 A 1.86,1.86 0 0,1 33.98,27 C 34.38,27 34.73,27.1 35.03,27.27 Z M 40.8,27.3 C 41.18,27.5 41.47,27.8 41.68,28.16 C 41.89,28.52 42,28.77 42,29.25 C 42,29.32 41.97,29.38 41.92,29.43 A 0.3,0.3 0 0,1 41.71,29.5 H 37.61 C 37.62,29.86 37.73,30.33 37.91,30.61 C 38.11,30.89 38.34,31.11 38.64,31.27 C 38.95,31.43 39.29,31.5 39.68,31.5 A 2.42,2.42 0 0,0 41.06,31.06 A 0.34,0.34 0 0,1 41.27,30.99 C 41.34,30.99 41.4,31 41.44,31.04 C 41.51,31.09 41.54,31.16 41.54,31.24 A 0.2,0.2 0 0,1 41.46,31.4 A 3.14,3.14 0 0,1 39.67,32 A 3,3 0 0,1 38.29,31.68 C 37.89,31.48 37.57,31.18 37.34,30.8 A 2.49,2.49 0 0,1 37,29.5 C 37,29.02 37.1,28.6 37.32,28.2 C 37.53,27.83 37.82,27.52 38.21,27.32 C 38.59,27.11 39.03,27 39.52,27 C 40.02,26.99 40.43,27.09 40.81,27.3 Z M 38.25,27.96 C 37.9,28.28 37.69,28.49 37.62,29 H 41.43 C 41.39,28.49 41.19,28.27 40.85,27.96 A 1.86,1.86 0 0,0 39.53,27.5 C 39.03,27.49 38.59,27.65 38.25,27.96 Z" fill="rgb(26, 82, 138)"/>
</svg>
