<?xml version="1.0" encoding="UTF-8"?>
<!-- generated by Finnhub -->
<svg viewBox="0 0 55.5 55.5" xmlns="http://www.w3.org/2000/svg">
<path d="M 0,0 H 55.5 V 55.5 H 0 Z" fill="rgb(239, 242, 248)"/>
<path d="M 16.99,24.985 V 22 H 18.24 C 18.66,22 19,22.38 19,22.86 V 24.14 C 19,24.62 18.66,25 18.24,25 H 17 Z M 17.57,24.42 V 22.58 H 18.1 C 18.28,22.58 18.43,22.81 18.43,23.1 V 23.9 C 18.43,24.19 18.28,24.42 18.1,24.42 H 17.57 Z M 20.5,22 H 20 V 25 H 20.5 V 22 Z M 24.51,22 H 25.01 V 25 H 24.51 V 22 Z M 21.45,23.84 V 23.16 C 21.45,22.52 21.9,22 22.45,22 C 22.83,22 23.17,22.26 23.33,22.65 L 22.86,22.87 C 22.78,22.69 22.63,22.57 22.44,22.57 C 22.19,22.57 21.99,22.8 21.99,23.1 V 23.9 C 21.99,24.2 22.19,24.44 22.44,24.44 S 22.9,24.2 22.9,23.9 V 23.83 H 22.5 V 23.31 H 23.43 V 23.84 C 23.43,24.48 22.99,25 22.44,25 C 21.9,25 21.45,24.48 21.45,23.84 Z M 26.72,22 H 26 V 22.61 H 26.72 V 25 H 27.28 V 22.61 H 28 V 22 H 26.72 Z M 29.25,22 L 28.36,25 H 28.92 L 29.09,24.38 H 29.92 L 30.08,25 H 30.63 L 29.77,22 H 29.25 Z M 29.78,23.86 H 29.23 L 29.51,22.86 L 29.78,23.86 Z M 32,22 H 31.5 V 25 H 32.98 V 24.5 H 32 V 22 Z M 17,32.84 V 32.16 C 17,31.52 17.45,31 18,31 C 18.4,31 18.73,31.26 18.9,31.65 L 18.42,31.87 C 18.35,31.69 18.19,31.57 18,31.57 C 17.74,31.57 17.54,31.8 17.54,32.1 V 32.9 C 17.54,33.2 17.74,33.44 18,33.44 S 18.46,33.2 18.46,32.9 V 32.83 H 18.06 V 32.31 H 19 V 32.84 C 19,33.48 18.55,34 18,34 S 17,33.48 17,32.84 Z M 23,32.16 V 32.84 C 23,33.48 23.45,34 24,34 S 25,33.48 25,32.84 V 32.16 C 25,31.52 24.55,31 24,31 S 23,31.52 23,32.16 Z M 23.54,32.1 V 32.9 C 23.54,33.2 23.74,33.44 24,33.44 S 24.46,33.2 24.46,32.9 V 32.1 C 24.46,31.8 24.26,31.56 24,31.56 S 23.54,31.8 23.54,32.1 Z M 30.23,31 H 29 V 34 H 29.59 V 33 H 30.23 C 30.65,33 31,32.55 31,32 S 30.65,31 30.23,31 Z M 30.09,31.57 H 29.6 V 32.34 H 30.09 C 30.26,32.34 30.39,32.17 30.39,31.96 S 30.26,31.57 30.09,31.57 Z M 21.19,31 H 20 V 34 H 20.57 V 32.75 H 20.89 L 21.39,33.99 H 22 L 21.46,32.69 A 0.88,0.88 0 0,0 21.94,31.88 C 21.94,31.39 21.61,31 21.19,31 Z M 21.06,31.53 H 20.58 V 32.23 H 21.06 C 21.22,32.23 21.36,32.07 21.36,31.88 C 21.36,31.68 21.22,31.53 21.06,31.53 Z M 26,32.82 V 31 H 26.53 V 32.88 C 26.53,33.18 26.74,33.43 27,33.43 C 27.25,33.43 27.46,33.18 27.46,32.88 V 31 H 28 V 32.82 C 28,33.47 27.55,34 27,34 C 26.44,34 26,33.47 26,32.82 Z M 32.24,28.62 L 31.91,29.07 C 32.01,29.2 32.41,29.5 32.95,29.5 C 33.5,29.5 33.91,29.17 33.91,28.54 C 33.91,27.92 33.43,27.74 33.03,27.69 C 32.63,27.65 32.58,27.46 32.59,27.29 C 32.61,27.11 32.81,27.04 32.99,27.03 C 33.12,27.03 33.42,27.2 33.55,27.29 L 33.79,26.83 C 33.59,26.53 32.25,26.15 32.06,27.13 C 31.88,28.05 32.43,28.16 32.82,28.24 L 32.98,28.28 C 33.36,28.38 33.35,28.5 33.35,28.59 C 33.35,28.69 33.29,28.94 32.95,28.94 C 32.67,28.94 32.36,28.72 32.24,28.62 Z M 29,29.5 V 26.5 H 30.24 C 30.66,26.5 31,26.88 31,27.36 V 28.64 C 31,29.12 30.66,29.5 30.24,29.5 H 29 Z M 29.57,28.92 V 27.08 H 30.1 C 30.28,27.08 30.43,27.31 30.43,27.6 V 28.4 C 30.43,28.69 30.28,28.92 30.1,28.92 H 29.57 Z M 22.77,29.5 L 23.67,26.5 H 24.19 L 25.05,29.5 H 24.5 L 24.35,28.93 H 23.49 L 23.33,29.5 H 22.78 Z M 23.64,28.39 H 24.2 L 23.92,27.35 L 23.64,28.39 Z M 18.11,26.5 H 17 V 29.5 H 18.18 C 18.56,29.5 18.88,29.12 18.88,28.66 A 0.9,0.9 0 0,0 18.57,27.96 A 0.92,0.92 0 0,0 18.8,27.34 C 18.8,26.88 18.49,26.5 18.1,26.5 Z M 17.98,27 H 17.54 V 27.67 H 17.98 C 18.14,27.67 18.26,27.52 18.26,27.34 C 18.26,27.15 18.14,27 17.98,27 Z M 18.01,28.24 H 17.54 V 28.95 H 18.01 C 18.18,28.95 18.31,28.79 18.31,28.6 C 18.31,28.4 18.18,28.24 18.01,28.24 Z M 21.19,26.5 H 20 V 29.5 H 20.57 V 28.25 H 20.89 L 21.39,29.49 H 22 L 21.46,28.19 A 0.88,0.88 0 0,0 21.94,27.38 C 21.94,26.89 21.61,26.5 21.19,26.5 Z M 21.06,27.03 H 20.58 V 27.73 H 21.06 C 21.22,27.73 21.36,27.57 21.36,27.38 C 21.36,27.18 21.22,27.03 21.06,27.03 Z M 26,29.5 V 26.5 H 26.52 L 27.48,28.44 V 26.5 H 28 V 29.5 H 27.48 L 26.52,27.54 V 29.5 H 26 Z" fill-rule="evenodd"/>
<path d="M 41.99,13.985 H 14 V 42 H 42 V 14 Z M 13,13 V 43 H 43 V 13 H 13 Z" fill-rule="evenodd"/>
</svg>
