<?xml version="1.0" encoding="UTF-8"?>
<!-- generated by Finnhub -->
<svg viewBox="0 0 55.5 55.5" xmlns="http://www.w3.org/2000/svg">
<path d="M 0,0 H 55.5 V 55.5 H 0 Z" fill="url(#a)"/>
<path d="M 38.662,17.311 H 17.323 V 38.675 H 38.672 V 17.326 Z" fill="rgb(254, 254, 253)"/>
<path d="M 41.587,27.983 V 27.995 C 41.597,25.891 41.683,24.015 43.243,20.702 C 43.698,19.743 44.693,18.335 43.225,16.704 C 42.035,15.514 40.675,15.714 39.763,16.236 C 40.286,15.324 40.485,13.963 39.293,12.772 C 37.659,11.304 36.255,12.299 35.292,12.75 C 31.986,14.316 30.107,14.403 27.997,14.403 H 27.995 C 25.888,14.403 24.011,14.317 20.703,12.75 C 19.743,12.3 18.335,11.305 16.705,12.772 C 15.515,13.964 15.712,15.324 16.233,16.236 C 15.319,15.711 13.961,15.514 12.771,16.704 C 11.304,18.334 12.3,19.744 12.753,20.702 C 14.313,24.015 14.397,25.888 14.397,27.998 C 14.397,30.106 14.313,31.988 12.753,35.294 C 12.3,36.254 11.303,37.663 12.771,39.299 C 13.962,40.484 15.319,40.283 16.233,39.766 C 15.71,40.676 15.511,42.036 16.704,43.228 C 18.334,44.697 19.743,43.701 20.704,43.243 C 24.011,41.684 25.886,41.597 27.997,41.597 C 30.107,41.597 31.987,41.684 35.29,43.243 C 36.255,43.701 37.66,44.697 39.294,43.228 C 40.483,42.035 40.286,40.677 39.761,39.766 C 40.675,40.287 42.037,40.487 43.225,39.299 C 44.692,37.663 43.698,36.254 43.243,35.295 C 41.683,31.985 41.597,30.107 41.597,27.998 Z M 37.979,38.004 L 30.229,31.501 S 29.184,30.48 27.997,30.48 C 26.813,30.48 25.762,31.501 25.762,31.501 L 18.016,38.004 L 17.987,37.98 L 24.495,30.233 S 25.515,29.184 25.515,27.998 C 25.515,26.814 24.495,25.768 24.495,25.768 L 17.987,18.015 L 18.017,17.988 L 25.764,24.494 S 26.814,25.518 27.997,25.518 C 29.184,25.518 30.229,24.494 30.229,24.494 L 37.975,17.991 L 38,18.017 L 31.502,25.767 S 30.479,26.814 30.479,27.997 C 30.479,29.184 31.502,30.233 31.502,30.233 L 38,37.98 L 37.979,38.004 Z" fill="rgb(203, 1, 2)"/>
<defs>
<linearGradient id="a" x1="10.418" x2="68.147" y1="9.712" y2="76.017" gradientUnits="userSpaceOnUse">
<stop stop-color="rgb(25, 29, 31)" offset="0"/>
<stop stop-color="rgb(5, 5, 8)" offset="1"/>
</linearGradient>
</defs>
</svg>
