<?xml version="1.0" encoding="UTF-8"?>
<!-- generated by Finnhub -->
<svg viewBox="0 0 55.5 55.5" xmlns="http://www.w3.org/2000/svg">
<path d="M 0,0 H 55.5 V 55.5 H 0 Z" fill="rgb(239, 242, 248)"/>
<path d="M 9.19,28.985 H 7 V 30 H 9.2 C 9.9,29.99 11.6,30.64 12.76,31.58 C 13.91,32.52 17.82,36.29 19.74,38.05 C 20.62,39.03 23.77,41 28.54,41 C 30.08,40.97 34.07,40.17 36.4,37.87 C 38.74,35.57 41.95,32.52 43.31,31.33 C 44.04,30.95 45.59,30 46.65,30 H 49 V 29 H 46.65 C 45.59,29 43.86,29.8 43.13,30.18 A 222.19,222.19 0 0,0 36.03,36.91 C 33.69,39.21 30.08,39.97 28.53,40 C 23.77,40 20.83,37.9 19.96,36.91 C 18.04,35.16 13.91,31.13 12.76,30.19 A 6.2,6.2 0 0,0 9.2,29 Z" fill="rgb(55, 155, 190)"/>
<path d="M 27.99,37.985 C 34.08,38 39,32.85 39,26.5 S 34.08,15 28,15 S 17,20.15 17,26.5 S 21.92,38 28,38 Z M 28,37.1 C 33.52,37.1 38,32.4 38,26.6 S 33.52,16.1 28,16.1 S 18,20.8 18,26.6 C 18,32.4 22.48,37.1 28,37.1 Z" fill="rgb(216, 216, 215)" fill-rule="evenodd"/>
<path d="M 27.99,34.985 C 32.42,35 36,31.2 36,26.5 S 32.42,18 28,18 S 20,21.8 20,26.5 S 23.58,35 28,35 Z M 28,34 C 31.87,34 35,30.64 35,26.5 S 31.87,19 28,19 S 21,22.36 21,26.5 S 24.13,34 28,34 Z" fill="rgb(216, 216, 215)" fill-rule="evenodd"/>
</svg>
