<?xml version="1.0" encoding="UTF-8"?>
<!-- generated by Finnhub -->
<svg viewBox="0 0 55.5 55.5" xmlns="http://www.w3.org/2000/svg">
<path d="M 0,0 H 55.5 V 55.5 H 0 Z" fill="rgb(1, 98, 204)"/>
<path d="M 21.836,31.142 A 5.782,5.782 0 0,1 22.248,28.936 A 5.733,5.733 0 0,1 23.468,27.045 A 5.66,5.66 0 0,1 25.318,25.778 A 5.609,5.609 0 0,1 29.697,25.778 A 5.66,5.66 0 0,1 31.546,27.045 A 5.732,5.732 0 0,1 32.766,28.935 A 5.78,5.78 0 0,1 33.169,31.157 A 5.755,5.755 0 0,1 31.476,35.141 A 5.63,5.63 0 0,1 27.507,36.783 A 5.63,5.63 0 0,1 23.538,35.141 A 5.755,5.755 0 0,1 21.846,31.157 Z M 35,11 V 19.5 C 32.717,17.905 30.286,17.318 27.51,17.323 A 13.517,13.517 0 0,0 21.008,18.98 C 22.061,18.692 23.148,18.56 24.238,18.587 C 29.973,18.729 34.431,23.144 34.986,28.77 C 35,28.813 35,29 35,29 H 41.016 V 11 H 35 Z M 19.83,29 C 20.784,25.619 23.86,23.084 27.51,23.084 A 7.9,7.9 0 0,1 32.649,24.979 A 10.039,10.039 0 0,0 29.095,21.297 A 9.898,9.898 0 0,0 18.922,21.243 A 10.044,10.044 0 0,0 15.144,25.226 C 14.68,26.212 14.334,27.251 14.112,28.32 C 14.08,28.526 14.052,28.79 14.032,29 H 19.83 Z M 30.783,43.734 C 25.049,43.592 20.423,39.134 19.867,33.508 L 19.832,33 H 14 C 15.049,39.589 20.698,45 27.51,45 A 13.51,13.51 0 0,0 34.013,43.341 C 32.961,43.629 31.873,43.761 30.783,43.734 Z M 35.193,33 C 34.237,36.381 31.162,39.237 27.511,39.237 A 7.895,7.895 0 0,1 22.373,37.342 A 10.039,10.039 0 0,0 25.927,41.024 A 9.897,9.897 0 0,0 36.1,41.078 A 10.045,10.045 0 0,0 39.879,37.095 C 40.343,36.108 40.689,35.069 40.909,34 C 41,33.5 41,33 41,33 H 35.192 Z" fill="rgb(254, 254, 253)"/>
</svg>
