<?xml version="1.0" encoding="UTF-8"?>
<!-- generated by Finnhub -->
<svg viewBox="0 0 55.5 55.5" xmlns="http://www.w3.org/2000/svg">
<path d="M 0,0 H 55.5 V 55.5 H 0 Z" fill="rgb(239, 242, 248)"/>
<path d="M 27.99,11.504999999999999 C 26.52,9.3 23.77,8.28 21.84,9.56 C 19.8,10.91 19.44,14.3 20.84,16.8 C 21.22,17.47 21.77,18.05 22.39,18.53 C 18.6,20.74 16,25.05 16,29.6 C 16,38 28,47 28,47 S 40,37.4 40,29.6 C 40,25.05 37.4,20.74 33.6,18.53 A 5.92,5.92 0 0,0 35.15,16.8 C 36.56,14.3 36.2,10.9 34.15,9.56 C 32.23,8.28 29.48,9.3 28,11.52 Z" fill="rgb(18, 109, 64)"/>
<path d="M 37.99,29.645 C 38,35.64 28,44 28,44 S 18,36.1 18,29.66 C 18,24.63 22.48,20 28,20 C 33.52,20 38,24.63 38,29.66 Z" fill="rgb(243, 35, 50)"/>
<path d="M 27.49,17.985 C 24.26,16.5 20.7,12.58 23.2,11.23 C 25.7,9.87 27.04,14.99 27.5,18 Z M 28.5,18 C 31.74,16.5 35.15,12.5 32.8,11.23 C 30.5,9.98 28.96,14.99 28.5,18 Z" fill="rgb(134, 192, 44)"/>
</svg>
