<?xml version="1.0" encoding="UTF-8"?>
<!-- generated by Finnhub -->
<svg viewBox="0 0 55.5 55.5" xmlns="http://www.w3.org/2000/svg">
<path d="M 0,0 H 55.5 V 55.5 H 0 Z" fill="rgb(239, 242, 248)"/>
<path d="M 29.65,16.605 L 27.4,20.95 C 25.22,25.12 23.34,28.84 21.33,32.86 C 20.12,35.31 18.03,39.6 18.03,39.66 C 18.03,39.7 18.07,39.68 18.27,39.56 C 19.34,38.94 20.42,38.46 21.17,38.3 C 21.53,38.21 21.7,38.2 22.01,38.2 C 22.42,38.22 22.69,38.32 22.91,38.52 C 22.97,38.57 23.01,38.61 23.03,38.61 L 23.06,38.1 C 23.07,37.57 23.1,37.14 23.17,36.6 C 23.67,32.7 25.67,26.53 29.35,17.55 L 29.75,16.53 C 29.78,16.45 29.72,16.5 29.65,16.63 Z M 27.83,39.13 C 25.96,39.2 23.51,39.63 20.34,40.47 L 18.77,40.9 C 18.74,40.93 18.81,40.94 19.22,40.95 C 22.76,41.11 25.17,41.72 26.5,42.79 C 26.64,42.91 27,43.27 27,43.3 C 27,43.33 27.09,43.32 27.36,43.27 C 28.95,42.94 30.18,41.97 31.13,40.31 C 31.28,40.04 31.43,39.75 31.43,39.72 C 31.43,39.7 31.13,39.56 30.91,39.48 A 6.94,6.94 0 0,0 28.78,39.13 A 20.45,20.45 0 0,0 27.83,39.13 Z" fill="rgb(148, 148, 147)"/>
<path d="M 30.209999999999997,7.985 L 30.28,8.37 A 29.91,29.91 0 0,1 30.52,15.04 C 30.09,21.08 28.12,28.55 24.52,37.74 L 24.18,38.6 C 24.18,38.62 24.26,38.6 24.58,38.43 A 9.59,9.59 0 0,1 28.05,37.37 A 6.65,6.65 0 0,1 32.53,38.61 L 32.75,38.33 A 15.1,15.1 0 0,0 35.3,32.15 C 35.7,29.97 35.71,27.48 35.35,24.75 C 34.8,20.55 33.34,15.59 30.84,9.41 A 14.32,14.32 0 0,0 30.22,8.01 Z M 34.17,41.68 A 8.44,8.44 0 0,0 28.61,43.94 C 28.54,44.01 28.58,44.02 28.69,43.95 A 26.77,26.77 0 0,1 34.18,43.32 C 34.99,43.32 35.58,43.36 37.36,43.52 C 38.68,43.63 39.13,43.66 39.92,43.69 C 41.28,43.74 42.59,43.63 43.7,43.39 C 43.98,43.33 44,43.32 44,43.29 H 43.7 A 13.81,13.81 0 0,1 38.51,42.42 A 12.97,12.97 0 0,0 35.9,41.74 C 35.42,41.68 34.7,41.65 34.17,41.68 Z M 19.75,41.88 C 18.45,41.92 16.83,42.19 15.07,42.65 A 74.84,74.84 0 0,0 11.51,43.65 A 10.47,10.47 0 0,0 11.01,43.82 L 12.45,43.69 A 76.3,76.3 0 0,1 19.33,43.19 A 22.39,22.39 0 0,1 25.73,43.95 C 25.77,43.95 25.75,43.91 25.69,43.88 L 25.47,43.69 A 6.7,6.7 0 0,0 23.1,42.32 A 8.95,8.95 0 0,0 19.75,41.88 Z" fill="rgb(7, 34, 64)"/>
</svg>
