<?xml version="1.0" encoding="UTF-8"?>
<!-- generated by Finnhub -->
<svg fill="none" viewBox="0 0 55.5 55.5" xmlns="http://www.w3.org/2000/svg">
<path d="M 0,0 H 55.5 V 55.5 H 0 Z" fill="url(#a)"/>
<path d="M 10.309000000000001,34.375 L 7.956,24.139 L 28.041,19.538 L 48.126,24.138 L 45.804,34.39 L 28.081,38.386 L 10.32,34.39 Z M 28.04,18.004 L 6,23.25 L 9.056,35.68 L 28.04,40 L 47.025,35.48 L 50,23.17 L 28.04,18.004 Z M 40.1,25.39 L 37.248,25.188 L 37.574,25.915 L 36.556,29.789 L 36.148,25.794 L 36.596,25.108 L 33.744,24.906 L 34.234,25.632 L 35.374,31.282 L 35.048,32.412 L 34.396,33.18 L 36.718,33.381 L 39.448,26.036 L 40.1,25.39 Z M 33.989,31.525 L 33.582,30.879 L 33.704,26.439 C 33.744,25.269 33.296,24.623 32.522,24.623 C 31.912,24.623 31.463,24.946 31.096,25.713 L 31.137,24.704 L 28.897,24.624 L 29.304,25.35 L 29.141,30.597 L 28.815,31.323 L 30.933,31.403 L 31.056,27.287 C 31.056,26.883 31.259,26.641 31.504,26.641 C 31.748,26.641 31.87,26.843 31.87,27.287 L 31.748,31.444 L 33.988,31.524 Z M 20.952,31.727 C 19.526,31.847 18.589,30.677 18.385,28.417 C 18.181,26.157 18.875,24.785 20.259,24.664 C 21.767,24.543 22.622,25.552 22.867,27.812 C 22.867,27.892 22.877,27.973 22.887,28.054 C 22.897,28.134 22.907,28.215 22.907,28.296 L 20.177,28.538 C 20.177,28.578 20.218,28.78 20.218,28.78 C 20.3,29.709 20.544,30.153 20.952,30.112 C 21.237,30.072 21.441,29.668 21.482,29.144 L 22.907,29.023 C 22.907,30.597 22.174,31.646 20.952,31.727 Z M 21.237,27.367 C 21.156,26.561 20.911,26.117 20.504,26.157 C 20.178,26.197 19.974,26.641 20.056,27.448 L 21.237,27.368 Z M 40.344,26.762 C 40.304,26.843 40.344,26.843 40.385,26.802 C 40.477,26.736 40.572,26.672 40.667,26.608 C 41.204,26.245 41.754,25.872 41.893,24.946 C 42.015,24.26 41.648,23.776 41.078,23.696 C 40.508,23.614 40.1,24.058 40.018,24.502 C 40.018,24.664 40.018,25.269 40.588,25.512 C 40.711,25.552 40.793,25.592 40.874,25.632 C 40.874,25.632 40.507,26.44 40.344,26.762 Z M 42.585,30.556 C 42.504,30.839 42.259,31 41.933,30.919 C 41.607,30.839 41.078,30.435 40.63,29.951 L 40.222,31.767 C 40.712,32.211 41.159,32.453 41.73,32.574 C 43.156,32.816 44.256,32.171 44.54,30.879 C 44.744,29.91 44.337,29.386 43.604,28.539 A 4.296,4.296 0 0,0 43.42,28.316 C 43.36,28.246 43.298,28.176 43.237,28.094 C 42.87,27.57 43.197,27.126 43.685,27.206 C 44.011,27.287 44.459,27.61 44.867,28.054 L 45.193,26.52 C 44.703,26.157 44.215,25.915 43.726,25.834 C 42.463,25.592 41.444,26.238 41.2,27.328 C 40.997,28.171 41.44,28.775 42.088,29.657 L 42.096,29.668 L 42.196,29.798 C 42.411,30.076 42.621,30.347 42.586,30.556 Z M 28.204,30.718 L 28.53,31.323 H 26.37 L 26.207,27.166 C 26.207,26.762 26.044,26.561 25.8,26.561 C 25.596,26.601 25.433,26.843 25.433,27.247 L 25.596,31.363 L 23.356,31.444 L 23.763,30.718 L 23.559,25.471 L 23.111,24.785 L 25.351,24.705 L 25.393,25.713 C 25.718,24.946 26.126,24.583 26.737,24.543 C 27.511,24.503 28,25.108 28.041,26.278 L 28.204,30.718 Z M 10.563,24.906 L 12.803,24.543 C 16.063,24.018 17.123,25.552 17.53,27.893 C 18.018,30.516 17.122,32.09 14.76,32.453 L 12.03,32.897 L 12.396,31.969 L 11.256,25.673 L 10.563,24.906 Z M 14.651,30.691 C 14.684,30.683 14.704,30.677 14.719,30.677 C 15.493,30.557 15.656,29.628 15.452,28.215 C 15.167,26.803 14.719,25.995 13.904,26.117 C 13.872,26.147 13.817,26.155 13.664,26.175 L 13.496,26.197 L 14.311,30.758 C 14.494,30.732 14.593,30.706 14.651,30.691 Z" clip-rule="evenodd" fill="rgb(254, 254, 253)" fill-rule="evenodd"/>
<defs>
<linearGradient id="a" x1="28" x2="28" y2="56" gradientUnits="userSpaceOnUse">
<stop stop-color="rgb(205, 38, 60)" offset="0"/>
<stop stop-color="rgb(128, 22, 34)" offset="1"/>
</linearGradient>
</defs>
</svg>
