<?xml version="1.0" encoding="UTF-8"?>
<!-- generated by Finnhub -->
<svg viewBox="0 0 55.5 55.5" xmlns="http://www.w3.org/2000/svg">
<path d="M 0,0 H 55.5 V 55.5 H 0 Z" fill="rgb(239, 242, 248)"/>
<path d="M 6.99,30.985 H 49 V 32 H 7 Z" fill="rgb(161, 162, 2)"/>
<path d="M 6.99,18.985 H 49 V 31 H 7 V 19 Z M 11.54,22 H 11 V 27.61 C 11,28.61 10.26,28.67 9.9,28.58 L 10,29 C 11.33,29.07 11.58,28.1 11.54,27.61 V 22 Z M 18.81,25 C 18.81,26.66 17.45,28 15.77,28 A 3.02,3.02 0 0,1 12.73,25 C 12.73,23.34 14.09,22 15.77,22 A 3.02,3.02 0 0,1 18.81,25 Z M 18.34,25 A 2.56,2.56 0 1,1 13.21,25 A 2.56,2.56 0 0,1 18.34,25 Z M 15.74,23.08 L 15.53,24.54 L 14.76,23.98 L 15.36,24.76 L 13.81,24.96 L 15.36,25.18 L 14.76,25.92 L 15.53,25.36 L 15.75,26.86 L 15.96,25.36 L 16.69,25.92 L 16.15,25.18 L 17.65,24.96 L 16.15,24.76 L 16.73,23.98 L 15.96,24.58 L 15.75,23.08 Z M 15.8,24.85 L 15.75,24.61 L 15.7,24.85 L 15.5,24.72 L 15.62,24.92 L 15.39,24.97 L 15.62,25.03 L 15.5,25.23 L 15.7,25.1 L 15.75,25.33 L 15.8,25.1 L 16,25.23 L 15.88,25.03 L 16.11,24.97 L 15.88,24.92 L 16.01,24.72 L 15.81,24.85 Z M 20,22 H 20.5 V 25.52 A 2,2 0 1,0 24.5,25.52 V 22 H 25 V 25.5 A 2.5,2.5 0 0,1 20,25.5 V 22 Z M 28.47,22 H 26.47 V 28 H 27 V 25.13 H 27.87 C 28.12,25.13 28.64,25.26 28.99,25.79 L 30.47,27.99 H 31.05 L 29.56,25.73 C 29.44,25.55 29.16,25.18 28.88,25 A 1.53,1.53 0 0,0 28.47,22 Z M 28.34,22.42 H 27 V 24.68 H 28.34 A 1.13,1.13 0 1,0 28.34,22.42 Z M 31.78,28 V 22 H 32.3 L 36.72,27.18 V 22 H 37.23 V 28 H 36.72 L 32.3,22.8 V 28 H 31.78 Z M 38.6,22 H 38.28 V 28 H 41.59 V 27.61 H 38.79 V 25.2 H 41.59 V 24.82 H 38.79 V 22.4 H 41.59 V 22 H 38.6 Z M 41.95,22 L 44.29,24.75 V 28 H 44.82 V 24.75 L 47.2,22 H 46.52 L 44.54,24.33 L 42.6,22 H 41.96 Z" fill="rgb(126, 116, 103)" fill-rule="evenodd"/>
<path d="M 6.99,31.985 H 49 V 37 H 7 V 32 Z" fill="rgb(141, 158, 164)"/>
<path d="M 9.99,33.985 H 46 V 35 H 10 Z" fill="rgb(214, 214, 213)"/>
</svg>
