<?xml version="1.0" encoding="UTF-8"?>
<!-- generated by Finnhub -->
<svg viewBox="0 0 55.5 55.5" xmlns="http://www.w3.org/2000/svg">
<path d="M 0,0 H 55.5 V 55.5 H 0 Z" fill="rgb(239, 242, 248)"/>
<path d="M 18.349999999999998,14.774999999999999 A 1.56,1.56 0 0,1 16.46,16.31 C 13.23,20.46 9.53,29.79 16.36,39.81 A 1.56,1.56 0 0,1 18.36,41.31 A 1.56,1.56 0 1,1 15.29,40.91 C 7.71,30.05 11.77,19.83 15.33,15.31 A 1.56,1.56 0 0,1 16.8,13.22 C 17.66,13.22 18.36,13.92 18.36,14.79 Z" fill="url(#a)"/>
<path d="M 32.050000000000004,11.545 A 1.56,1.56 0 0,1 29.26,12.51 A 18.2,18.2 0 0,0 21.71,16.25 A 14.75,14.75 0 0,0 16.23,27.95 C 16.23,33.11 18.53,36.96 21.5,39.6 A 17.87,17.87 0 0,0 29.16,43.65 A 1.56,1.56 0 0,1 32.06,44.44 A 1.56,1.56 0 0,1 29.14,45.19 A 19.24,19.24 0 0,1 20.49,40.73 A 16.76,16.76 0 0,1 14.72,27.95 C 14.72,22.05 17.44,17.85 20.75,15.09 A 19.67,19.67 0 0,1 29.05,11.01 A 1.56,1.56 0 0,1 32.06,11.56 Z" fill="url(#b)"/>
<path d="M 31.9,19.564999999999998 A 8.42,8.42 0 0,0 23.53,28.03 A 8.42,8.42 0 0,0 31.91,36.49 C 34.44,36.49 36.71,35.36 38.25,33.57 L 38.44,33.36 A 1.56,1.56 0 1,1 39.62,34.3 L 39.38,34.56 A 9.84,9.84 0 0,1 31.91,38 A 9.93,9.93 0 0,1 22.02,28.03 C 22.02,22.53 26.45,18.07 31.92,18.07 A 9.84,9.84 0 0,1 39.38,21.5 L 39.43,21.55 A 1.56,1.56 0 1,1 38.25,22.51 V 22.5 A 8.33,8.33 0 0,0 31.91,19.58 Z" fill="url(#c)"/>
<path d="M 31.74,15.805 A 12.08,12.08 0 0,0 19.68,27.92 A 12.08,12.08 0 0,0 39.94,36.8 A 1.57,1.57 0 0,1 41.44,34.82 A 1.56,1.56 0 1,1 40.99,37.88 A 13.59,13.59 0 0,1 18.17,27.92 A 13.59,13.59 0 0,1 41.01,17.97 A 1.56,1.56 0 0,1 43,19.47 A 1.56,1.56 0 1,1 39.94,19.04 A 12,12 0 0,0 31.74,15.82 Z" fill="url(#d)"/>
<path d="M 30.59,37.894999999999996 A 9.9,9.9 0 0,0 39.38,34.56 L 39.62,34.3 A 1.56,1.56 0 1,0 38.44,33.36 L 38.25,33.56 A 8.33,8.33 0 0,1 30.6,36.39 V 37.91 Z M 30.6,19.68 V 18.15 A 9.91,9.91 0 0,1 39.38,21.5 L 39.43,21.55 A 1.56,1.56 0 1,1 38.25,22.51 V 22.5 A 8.33,8.33 0 0,0 30.6,19.68 Z" fill="rgb(23, 155, 214)"/>
<path d="M 30.59,41.455 A 13.51,13.51 0 0,0 41,37.87 A 1.55,1.55 0 0,0 43,36.4 A 1.56,1.56 0 1,0 39.94,36.82 A 12,12 0 0,1 30.6,39.98 V 41.49 Z M 30.6,15.87 V 14.36 A 13.51,13.51 0 0,1 41,17.96 A 1.56,1.56 0 1,1 39.94,19.04 A 12,12 0 0,0 30.6,15.88 Z" fill="rgb(23, 155, 214)"/>
<defs>
<linearGradient id="a" x1="14.68" x2="14.68" y1="13.22" y2="42.87" gradientUnits="userSpaceOnUse">
<stop stop-color="rgb(20, 155, 214)" offset="0"/>
<stop stop-color="rgb(200, 80, 149)" offset=".5"/>
<stop stop-color="rgb(20, 155, 214)" offset="1"/>
</linearGradient>
<linearGradient id="b" x1="23.39" x2="23.39" y1="10" y2="46" gradientUnits="userSpaceOnUse">
<stop stop-color="rgb(20, 155, 214)" offset="0"/>
<stop stop-color="rgb(200, 80, 149)" offset=".51"/>
<stop stop-color="rgb(20, 155, 214)" offset="1"/>
</linearGradient>
<linearGradient id="c" x1="31.73" x2="31.73" y1="19.4" y2="36.62" gradientUnits="userSpaceOnUse">
<stop stop-color="rgb(20, 155, 214)" offset="0"/>
<stop stop-color="rgb(200, 80, 149)" offset=".5"/>
<stop stop-color="rgb(20, 155, 214)" offset="1"/>
</linearGradient>
<linearGradient id="d" x1="30.59" x2="30.59" y1="16.05" y2="40.13" gradientUnits="userSpaceOnUse">
<stop stop-color="rgb(20, 155, 214)" offset="0"/>
<stop stop-color="rgb(200, 80, 149)" offset=".52"/>
<stop stop-color="rgb(20, 155, 214)" offset="1"/>
</linearGradient>
</defs>
</svg>
