<?xml version="1.0" encoding="UTF-8"?>
<!-- generated by Finnhub -->
<svg viewBox="0 0 55.5 55.5" xmlns="http://www.w3.org/2000/svg">
<path d="M 0,0 H 55.5 V 55.5 H 0 Z" fill="rgb(170, 29, 32)"/>
<path d="M 43.97,17.085 C 44.1,21.58 43.72,31.74 41.34,36.43 C 39.03,40.98 32.83,44.62 29.76,45.73 C 29.06,45.96 27.45,46.2 26.34,45.73 C 23.63,44.76 17.49,41.53 14.64,36.43 C 11.96,31.62 12,22.17 12,17.85 V 17.09 A 2.44,2.44 0 0,1 13.68,14.79 L 13.99,14.67 C 16.55,13.67 28.13,9.13 42.44,14.79 C 42.95,14.96 43.97,15.66 43.98,17.09 Z M 20,20 H 16 V 24 H 20 V 20 Z M 21,25 H 25 V 29 H 21 V 25 Z M 30,20 H 26 V 24 H 30 V 20 Z M 26,15 H 30 V 19 H 26 V 15 Z M 25,15 L 21,15.69 V 19 H 25 V 15 Z M 35,15.69 L 31,15 V 19 H 35 V 15.69 Z M 20,15.86 L 16,17.12 V 19 H 20 V 15.86 Z M 31,20 H 35 V 24 H 31 V 20 Z M 40,20 H 36 V 24 H 40 V 20 Z M 36,25 H 40 V 26.87 C 40,27.47 39.81,29 39.81,29 H 36 V 25 Z M 39.7,30 H 36.1 V 34 H 38.68 C 39.52,32.19 39.7,30 39.7,30 Z M 36,35 H 38.4 S 37.78,36.55 36,38.11 V 35 Z M 17.6,35 H 20 V 38.11 C 18.22,36.55 17.6,35 17.6,35 Z M 31,40 H 34 S 33.1,40.72 31,41.93 V 40 Z M 22,40 H 25 V 41.93 C 22.9,40.73 22,40 22,40 Z M 31,25 H 35 V 29 H 31 V 25 Z M 30,30 H 26 V 34 H 30 V 30 Z M 31,30 H 35 V 34 H 31 V 30 Z M 35,35 H 31 V 39 H 34.49 L 35,38.46 V 35 Z M 26,40 H 30 V 42.28 L 27.97,43.13 L 26,42.28 V 40 Z M 21,35 H 25 V 39 H 21.51 L 21,38.46 V 35 Z" fill="rgb(254, 254, 253)" fill-rule="evenodd"/>
</svg>
