<?xml version="1.0" encoding="UTF-8"?>
<!-- generated by Finnhub -->
<svg viewBox="0 0 55.5 55.5" xmlns="http://www.w3.org/2000/svg">
<path d="M 0,0 H 55.5 V 55.5 H 0 Z" fill="rgb(222, 66, 43)"/>
<path d="M 16.99,11.985 V 41 H 27.08 L 28.94,45 H 32.47 C 36.12,45 41,42.7 41,36.29 C 41,31.16 37.48,29.45 35.72,29.23 C 37.17,28.87 40.07,27.66 40.07,22.98 C 40.07,17.03 34.97,16.01 32.43,16 H 27.16 L 28.96,20 H 31.89 C 33.2,20.01 35.82,20.1 35.82,23.55 C 35.82,27.15 33.26,27.95 31.98,28 H 27.15 L 25.37,24 H 21 V 16 H 27.15 L 25.22,12 H 17 Z M 27.08,28 H 21 V 37 H 25.37 L 27.15,41 H 32.47 C 33.97,40.93 36.96,40.05 36.96,36.12 C 36.96,32.3 33.75,31.92 32.15,32 H 29.13 L 27.08,28 Z" fill="rgb(254, 254, 253)" fill-rule="evenodd"/>
</svg>
