<?xml version="1.0" encoding="UTF-8"?>
<!-- generated by Finnhub -->
<svg viewBox="0 0 55.5 55.5" xmlns="http://www.w3.org/2000/svg">
<path d="M 0,0 H 55.5 V 55.5 H 0 Z" fill="rgb(239, 242, 248)"/>
<path d="M 38.99,19.985 H 35 V 25.82 L 28,28.52 V 20 H 24 V 37 H 28 V 31.96 L 35,29.26 V 37 H 39 V 20 Z M 41,37 H 45 V 24.98 L 41,26.41 V 37 Z M 19,28.55 C 19,31.56 16.81,33.5 13.71,33.5 H 11 V 23.5 H 13.71 C 16.81,23.5 19,25.54 19,28.55 Z M 13.71,20 H 7 V 37 H 13.71 C 19.12,37 23,33.28 23,28.5 V 28.45 C 23,23.67 19.12,20 13.71,20 Z" fill="rgb(66, 69, 84)"/>
<path d="M 49.99,15.985 L 41,19.5 V 23 L 50,19.5 V 16 Z" fill="rgb(84, 175, 68)"/>
</svg>
