<?xml version="1.0" encoding="UTF-8"?>
<!-- generated by Finnhub -->
<svg viewBox="0 0 55.5 55.5" xmlns="http://www.w3.org/2000/svg">
<path d="M 0,0 H 55.5 V 55.5 H 0 Z" fill="rgb(34, 30, 30)"/>
<path d="M 40.99,11.985 H 15 V 44 H 41 V 12 Z" fill="rgb(254, 254, 253)"/>
<path d="M 39.99,12.985 H 16 V 43 H 40 V 13 Z" fill="rgb(34, 30, 30)"/>
<path d="M 30.99,17.985 V 16 H 38 V 18 H 36 V 25 H 38 V 27 H 31 V 25 H 33 V 18 H 31 Z M 19,30 V 41 H 21 V 32.932 L 26,41 H 28 V 30 H 26 V 37 L 21.5,30 H 19 Z M 31,30 V 41 H 38 V 39 H 33 V 36 H 38 V 34 H 33 V 32 H 38 V 30 H 31 Z" fill="rgb(254, 254, 253)"/>
<path d="M 18.99,15.985 H 23.5 A 5.5,5.5 0 1,1 23.5,27 H 19 V 16 Z M 21,18 V 25 H 23.5 A 3.5,3.5 0 1,0 23.5,18 H 21 Z" fill="rgb(254, 254, 253)"/>
</svg>
