<?xml version="1.0" encoding="UTF-8"?>
<!-- generated by Finnhub -->
<svg viewBox="0 0 55.5 55.5" xmlns="http://www.w3.org/2000/svg">
<path d="M 0,0 H 55.5 V 55.5 H 0 Z" fill="rgb(239, 242, 248)"/>
<path d="M 45.59,29.985 H 43.18 V 29.72 C 43.7,29.58 43.95,28.72 44,28.31 V 24.24 C 44,23.65 43.6,23.32 43.4,23.23 V 23 H 45.76 L 49.56,27 C 49.58,26.6 49.58,25.57 49.46,24.58 C 49.32,23.58 48.74,23.3 48.46,23.28 V 23 H 51 V 23.28 C 50.3,23.46 49.98,24.71 50,25.31 V 30 H 49.67 L 44.44,24.24 C 44.42,24.52 44.4,26.87 44.44,28 C 44.44,29 45.23,29.72 45.59,29.72 V 30 Z M 34.73,23.85 L 34.18,25.71 C 34.07,24.98 33.52,23.45 32.16,23.45 C 30.24,23.45 30,25.71 30,26.55 C 30,27.4 30.4,29.66 32.16,29.66 C 33.56,29.66 34.16,28.08 34.29,27.29 L 35,29.09 C 34.53,29.39 33.3,30 32.16,30 C 29.53,30 28,28.65 28,26.44 C 28,24.24 30.13,23 31.94,23 C 33.38,23 34.4,23.56 34.73,23.85 Z" fill="rgb(206, 1, 9)"/>
<path d="M 38.49,29.985 A 3.5,3.5 0 1,0 38.5,23 A 3.5,3.5 0 0,0 38.5,30 Z M 38.5,29.66 C 39.48,29.66 40,28.25 40,26.5 C 40,24.75 39.48,23.34 38.5,23.34 S 37,24.75 37,26.5 C 37,28.25 37.52,29.66 38.5,29.66 Z M 11,34 H 4 V 33.67 C 7.4,33.35 13.82,25.39 14.78,24.2 L 14.89,24.07 C 14.85,23.8 14.34,23.55 14,23.45 V 23 C 15.83,23 19.4,21.7 21,21 V 23 H 19.75 V 23.23 C 19.97,23.27 20.43,23.46 20.43,23.93 V 27.63 C 20.43,28.13 20.23,29.35 19.41,29.77 V 30 H 21 V 31.43 C 21,33 21.9,33.65 22.36,33.78 V 34 H 12.44 V 33.67 C 14.31,33.53 14.93,32.27 15,31.66 V 30 H 10.65 A 3.98,3.98 0 0,0 10,32 C 10,33.06 10.6,33.55 11,33.67 V 34 Z M 15,24.63 V 29 H 11.3 A 47.68,47.68 0 0,1 15,24.63 Z" fill="rgb(206, 1, 9)" fill-rule="evenodd"/>
<path d="M 20.99,29.985 V 23 H 22.35 L 24.37,27.05 L 26,23 H 27.31 V 23.23 C 27.06,23.23 27,23.46 27,23.58 V 28.32 C 27,29.39 27.35,29.73 27.52,29.77 V 30 H 25.43 V 29.77 C 25.6,29.72 25.88,29.17 26,28.9 V 24.27 L 23.64,30 L 21.26,24.5 V 28.2 C 21.26,29.09 21.88,29.65 22.19,29.77 V 30 H 21 Z" fill="rgb(206, 1, 9)"/>
<path d="M 22.99,29.985 H 50 V 34 H 23 Z"/>
<path d="M 23.99,30.985 H 49 V 33 H 24 Z" fill="rgb(254, 254, 253)" fill-opacity=".5"/>
</svg>
