<?xml version="1.0" encoding="UTF-8"?>
<!-- generated by Finnhub -->
<svg viewBox="0 0 55.5 55.5" xmlns="http://www.w3.org/2000/svg">
<path d="M 0,0 H 55.5 V 55.5 H 0 Z" fill="rgb(239, 242, 248)"/>
<path d="M 13.96,24.985 L 12.45,31 H 17.35 A 3.15,3.15 0 0,0 20.4,28.54 L 20.47,28.24 A 2.6,2.6 0 0,0 17.97,25 H 13.97 Z M 15.93,29.5 H 15.4 L 16.12,26.5 H 17.15 C 17.69,26.5 18.09,26.98 17.98,27.49 L 17.88,27.97 C 17.69,28.86 16.88,29.5 15.93,29.5 Z M 23.18,25 L 19.98,31 H 21.66 L 22.21,30 H 24.35 L 24.53,31 H 27.11 L 26.2,25 H 23.18 Z M 24.09,28.5 H 23.02 L 23.82,27.02 L 24.09,28.5 Z M 29.39,25 L 27.99,31 H 30.57 L 31.97,25 H 29.38 Z M 39.74,31 L 41.14,25 H 43.73 L 42.32,31 H 39.74 Z M 47.92,25 L 48.75,28.57 L 49.58,25 H 51.5 L 50.04,31 H 47.08 L 46.32,27.8 L 45.57,31 H 43.5 L 44.9,25 H 47.92 Z M 33.06,25 L 31.66,31 H 34.24 L 34.68,29.11 L 35.93,31 H 38.83 L 36.68,27.87 L 39.94,25 H 37.16 L 35.26,26.7 L 35.65,25 H 33.05 Z" fill="rgb(1, 150, 222)"/>
<path d="M 3.99,22.985 V 33 L 14.83,23 H 4 Z" fill="rgb(83, 194, 239)"/>
<path d="M 3.99,22.985 V 28 L 9.41,23 H 4 Z"/>
</svg>
