<?xml version="1.0" encoding="UTF-8"?>
<!-- generated by Finnhub -->
<svg viewBox="0 0 55.5 55.5" xmlns="http://www.w3.org/2000/svg">
<path d="M 0,0 H 55.5 V 55.5 H 0 Z" fill="rgb(0, 137, 110)"/>
<path d="M 11.99,23.985 H 11 V 33 H 12 V 24 Z M 15,33.115 L 13.123,35 H 8 V 22 H 13.018 L 15,23.886 V 33.115 Z M 19,22 H 16 V 35 H 19 V 22 Z M 27,26.986 L 24,27 V 24 H 23 V 33 H 24 V 30 H 27 V 33.115 L 25.078,35 H 22.08 L 20,33.115 V 23.885 L 21.904,22 H 25.078 L 27,23.886 V 26.986 Z M 31.002,27 L 33,22 H 36 L 33.483,28 L 36,35 H 33 L 31.002,29.995 V 35 H 28 V 22 H 31.002 V 27 Z M 45.96,22 L 48,23.886 V 26 H 44.996 V 24 H 44 V 26.996 H 46 L 48,29.162 V 33.115 L 46.1,35 H 42.882 L 41,33.115 V 31 H 44 V 32.996 H 44.996 V 29.996 H 43 L 41,27.784 V 23.886 L 42.9,22 H 45.96 Z" fill="rgb(254, 254, 253)"/>
<path d="M 37.866,25.005 C 38.099,24.193 38.673,22.395 39.182,21.824 C 39.819,21.11 38.727,24.146 37.876,25.021 Z" stroke="rgb(245, 247, 251)"/>
<circle cx="38.5" cy="21.5" r="1.5" fill="rgb(228, 144, 37)"/>
</svg>
