<?xml version="1.0" encoding="UTF-8"?>
<!-- generated by Finnhub -->
<svg viewBox="0 0 55.5 55.5" xmlns="http://www.w3.org/2000/svg">
<path d="M 0,0 H 55.5 V 55.5 H 0 Z" fill="rgb(239, 242, 248)"/>
<path d="M 31.59,16.805 A 4.7,4.7 0 0,0 30.4,19.82 C 30.33,20.72 30.42,21.62 30.56,22.3 C 31.2,22.07 31.86,21.98 32.44,21.96 C 32.96,21.94 33.52,22.06 34.07,22.28 A 8.92,8.92 0 0,1 37.48,17.73 C 35.41,16.93 33.18,16.75 31.6,16.83 Z M 38.6,18.22 A 7.8,7.8 0 0,0 34.97,22.75 A 5.14,5.14 0 0,1 37.33,26.05 A 5.65,5.65 0 0,1 43.64,25.45 A 13.4,13.4 0 0,0 41.63,20.84 C 40.83,19.68 39.77,18.84 38.6,18.22 Z M 43.87,26.74 A 4.89,4.89 0 0,0 39.84,25.86 C 38.76,26.13 37.92,26.77 37.44,27.31 A 7.5,7.5 0 0,1 36.24,31.16 C 38.02,31.3 40.51,32.36 42.13,35.66 A 14.23,14.23 0 0,0 43.87,26.74 Z M 41.5,36.7 C 39.8,32.6 36.8,32.01 35.45,32.18 A 6.81,6.81 0 0,1 30.7,34.15 C 30.13,34.17 29.6,34.12 29.08,34.01 C 26.62,33.49 24.78,31.66 23.77,29.89 C 23.57,29.55 23.41,29.2 23.27,28.86 C 20.75,28.67 17.87,27.96 16.71,27.61 C 12.7,26.34 10.45,27.11 9.53,27.79 C 10.55,28.55 11.53,29.72 12.37,30.89 C 13.37,32.26 14.19,33.7 14.65,34.61 V 34.62 L 14.66,34.63 L 14.74,34.76 L 14.98,35.11 A 23.4,23.4 0 0,0 19.02,39.28 C 21.71,41.42 25.43,43.36 29.82,42.96 C 36.7,42.34 40.4,38.6 41.5,36.7 Z M 22.96,27.84 A 4.03,4.03 0 0,1 22.88,27.18 C 22.66,25.69 22.76,23.41 23.75,21.25 C 24.81,18.95 26.87,16.81 30.56,15.93 L 30.59,15.92 H 30.62 A 15.66,15.66 0 0,1 38.82,17.23 A 9.27,9.27 0 0,1 42.47,20.29 C 43.77,22.19 44.54,24.29 44.85,26.39 A 15.1,15.1 0 0,1 42.49,36.99 C 41.37,39.12 37.35,43.29 29.91,43.95 C 25.16,44.38 21.18,42.29 18.39,40.05 A 24.4,24.4 0 0,1 14.17,35.69 C 13.97,35.41 13.81,35.18 13.75,35.05 A 29.28,29.28 0 0,0 11.55,31.46 A 11.9,11.9 0 0,0 8.48,28.28 L 8,28 L 8.33,27.56 C 9.17,26.43 11.99,25.06 16.99,26.66 C 18.07,26.98 20.64,27.61 22.95,27.84 Z M 29.64,22.74 C 29.46,21.96 29.32,20.87 29.41,19.74 C 29.48,18.84 29.71,17.89 30.19,17.06 A 8.38,8.38 0 0,0 24.74,21.5 C 24.97,22.24 25.58,22.95 26.34,23.57 C 26.91,24.05 27.52,24.44 28.04,24.71 C 28.34,23.81 28.94,23.17 29.64,22.74 Z M 27.84,25.74 C 27.22,25.43 26.42,24.94 25.69,24.34 A 7.12,7.12 0 0,1 24.24,22.76 A 9.97,9.97 0 0,0 23.88,27.06 V 27.13 C 23.89,27.43 23.96,27.81 24.11,28.23 C 24.21,28.53 24.34,28.83 24.51,29.15 C 26.55,29.11 27.71,28.42 28.18,27.99 A 4.3,4.3 0 0,1 27.83,26.5 A 5.32,5.32 0 0,1 27.83,25.74 Z M 28.73,28.84 A 6.45,6.45 0 0,1 25.1,30.12 A 7.23,7.23 0 0,0 29.08,32.99 A 5.32,5.32 0 0,0 30.8,30.03 A 3.7,3.7 0 0,1 28.73,28.85 Z M 31.83,30.02 A 6.88,6.88 0 0,1 30.33,33.16 H 30.66 A 5.78,5.78 0 0,0 35.74,30.07 C 35.51,29.6 35.14,29.22 34.75,28.93 C 34.49,28.73 34.23,28.59 34,28.49 A 3.3,3.3 0 0,1 31.82,30 Z M 34.31,27.54 A 5.18,5.18 0 0,1 36.2,28.93 C 36.37,28.33 36.45,27.73 36.45,27.13 C 36.45,26.06 36.04,25.15 35.44,24.46 C 35.08,24.57 34.74,24.76 34.43,24.99 C 34.22,25.15 34.03,25.31 33.88,25.46 C 34.18,25.89 34.36,26.45 34.34,27.16 L 34.31,27.54 Z M 33.16,24.76 A 6.09,6.09 0 0,1 34.61,23.71 C 34.47,23.61 34.31,23.51 34.16,23.43 C 33.56,23.1 32.96,22.95 32.48,22.97 C 31.83,22.98 31.08,23.12 30.44,23.44 A 2.71,2.71 0 0,0 28.87,25.52 C 28.83,25.79 28.81,26.1 28.83,26.44 C 28.87,27.02 29.03,27.47 29.23,27.82 A 2.66,2.66 0 0,0 31.36,29.1 C 32.08,28.97 32.96,28.6 33.25,27.7 C 33.3,27.54 33.33,27.35 33.34,27.12 C 33.36,26.47 33.14,26.06 32.86,25.8 A 1.44,1.44 0 0,0 31.89,25.38 A 1.9,1.9 0 0,0 31.09,25.6 C 30.89,25.73 30.74,25.91 30.72,26.24 C 30.7,26.69 30.78,26.99 30.9,27.16 C 30.99,27.29 31.12,27.37 31.36,27.36 C 31.49,27.35 31.62,27.28 31.74,27.11 C 31.87,26.94 31.94,26.74 31.98,26.61 L 32.95,26.84 C 32.9,27.07 32.77,27.41 32.55,27.71 C 32.32,28.01 31.95,28.32 31.42,28.35 C 30.85,28.39 30.37,28.16 30.07,27.72 A 2.49,2.49 0 0,1 29.72,26.19 C 29.75,25.49 30.12,25.03 30.56,24.76 C 30.98,24.5 31.46,24.41 31.81,24.38 C 32.18,24.35 32.7,24.47 33.16,24.76 Z"/>
<path d="M 16.97,25.814999999999998 A 3.82,3.82 0 0,0 18.98,22.25 C 18.97,20.98 18.13,19.81 17.28,18.62 C 16.35,17.34 15.41,16.02 15.44,14.51 L 15.05,11.01 V 11 L 14.67,14.5 C 14.69,16.02 13.75,17.34 12.83,18.62 C 11.97,19.82 11.13,20.98 11.12,22.25 A 3.82,3.82 0 0,0 13.12,25.83 A 3.64,3.64 0 0,1 13.76,21.87 C 14.5,21.04 14.93,19.3 15.06,18.52 C 15.18,19.3 15.61,21.04 16.34,21.87 A 3.64,3.64 0 0,1 16.98,25.83 Z" fill="rgb(23, 44, 88)"/>
</svg>
