<?xml version="1.0" encoding="UTF-8"?>
<!-- generated by Finnhub -->
<svg viewBox="0 0 55.5 55.5" xmlns="http://www.w3.org/2000/svg">
<path d="M 0,0 H 55.5 V 55.5 H 0 Z" fill="rgb(239, 242, 248)"/>
<path d="M 43.29,32.845 L 32.76,13.82 A 5.44,5.44 0 0,0 23.24,13.82 L 12.7,32.86 A 5.48,5.48 0 0,0 17.46,41 H 38.54 A 5.48,5.48 0 0,0 43.3,32.86 Z M 33.64,13.33 A 6.44,6.44 0 0,0 22.36,13.33 L 11.82,32.38 A 6.48,6.48 0 0,0 17.46,42 H 38.54 C 43.46,42 46.57,36.7 44.18,32.38 L 33.64,13.33 Z" fill="rgb(42, 16, 203)" fill-rule="evenodd"/>
<path d="M 25.99,21.985 H 20.5 V 25 C 20.9,25 21.5,25.5 21.5,26 V 35 C 21.5,35.8 20.83,36 20.5,36 V 39 H 32 C 33.5,39 38,37.5 38,30.5 C 38,24.5 34,22 32,22 H 31 C 32,23.83 34,28.1 34,30.5 C 34,33.5 32,37 28,37 S 23,33 23,30.5 S 25,24 26,22 Z" fill="rgb(235, 5, 3)"/>
<path d="M 28.49,16.985 C 26.38,26 24,27.96 24,31 C 24,33.5 25.8,34.67 26.5,35 C 25.5,34 25,32.2 25,31 C 25,29 27,26.5 28.5,25 C 30,26.5 32,29 32,31 C 32,32.5 31.5,34 30.5,35 C 31.2,34.67 33,33.4 33,31 S 30.62,26 28.5,17 Z" fill="rgb(42, 16, 203)"/>
<path d="M 25.99,31.485 C 26,32.7 26.74,33.67 27.11,34 C 26.93,33.5 26.56,32.8 26.56,32 C 26.56,31 27.76,29.5 28.5,29 C 29.06,29.5 30.44,31 30.44,32 C 30.44,32.8 30.07,33.5 29.89,34 A 3.64,3.64 0 0,0 31,31.5 C 31,30.3 29.24,28 28.5,27 C 27.57,28 26,30.3 26,31.5 Z" fill="rgb(42, 16, 203)"/>
<path d="M 26.99,32.485 C 27,33 27.83,34 28,34 C 28,34 27.5,33.46 27.5,33 C 27.5,32 28,31.5 28.5,31 C 29,31.5 29.5,32.09 29.5,33 C 29.5,33.5 29,34 29,34 C 29.5,34 30,32.96 30,32.5 C 30,31.5 29,30.5 28.5,30 C 28,30.5 27,31.5 27,32.5 Z" fill="rgb(42, 16, 203)"/>
</svg>
