<?xml version="1.0" encoding="UTF-8"?>
<!-- generated by Finnhub -->
<svg viewBox="0 0 55.5 55.5" xmlns="http://www.w3.org/2000/svg">
<path d="M 0,0 H 55.5 V 55.5 H 0 Z" fill="rgb(239, 242, 248)"/>
<path d="M 15.99,14.985 L 19,21 L 22,15 H 16 Z" fill="rgb(65, 100, 158)"/>
<path d="M 18.99,20.985 L 22,15 L 25,21 H 19 Z" fill="rgb(72, 109, 170)"/>
<path d="M 18.99,20.985 L 22,27 L 25,21 H 19 Z M 26,21 L 29,27 L 32,21 H 26 Z" fill="rgb(85, 127, 191)"/>
<path d="M 15.99,26.985 L 19,21 L 22,27 H 16 Z M 29,27 L 32,21 L 35,27 H 29 Z" fill="rgb(109, 149, 204)"/>
<path d="M 15.99,26.985 L 19,33 L 22,27 H 16 Z M 29,27 L 32,33 L 35,27 H 29 Z M 36,27 L 39,33 L 42,27 H 36 Z" fill="rgb(152, 190, 225)"/>
<path d="M 12.99,32.985 L 16,27 L 19,33 H 13 Z M 26,33 L 29,27 L 32,33 H 26 Z M 39,33 L 42,27 L 45,33 H 39 Z" fill="rgb(165, 203, 231)"/>
<path d="M 12.99,32.985 L 16,39 L 19,33 H 13 Z M 26,33 L 29,39 L 32,33 H 26 Z M 39,33 L 42,39 L 45,33 H 39 Z" fill="rgb(185, 215, 236)"/>
<path d="M 9.99,38.985 L 13,33 L 16,39 H 10 Z M 23,39 L 26,33 L 29,39 H 23 Z M 36,39 L 39,33 L 42,39 H 36 Z" fill="rgb(196, 221, 238)"/>
</svg>
