<?xml version="1.0" encoding="UTF-8"?>
<!-- generated by Finnhub -->
<svg viewBox="0 0 55.5 55.5" xmlns="http://www.w3.org/2000/svg">
<path d="M 0,0 H 55.5 V 55.5 H 0 Z" fill="rgb(239, 242, 248)"/>
<path d="M 35.39,27.358999999999998 L 34.898,26.306 A 0.257,0.257 0 0,0 34.432,26.306 L 31.682,32.638 A 0.254,0.254 0 0,0 31.912,33 H 32.882 A 0.471,0.471 0 0,0 33.307,32.73 L 35.4,27.8 A 0.5,0.5 0 0,0 35.4,27.374 Z" fill="rgb(254, 149, 70)"/>
<path d="M 9.087,32.985 H 5 L 4.992,31.537 H 9.098 A 0.448,0.448 0 0,0 9.547,31.089 V 26.903 A 0.448,0.448 0 0,0 9.098,26.456 H 5 V 25 H 9.106 A 1.903,1.903 0 0,1 11,26.903 V 31.089 A 1.904,1.904 0 0,1 9.097,33 Z M 29.183,33 H 28.264 A 0.261,0.261 0 0,1 28.004,32.73 V 26.91 A 0.448,0.448 0 0,0 27.557,26.462 H 24.453 A 0.448,0.448 0 0,0 24.004,26.91 V 32.73 A 0.27,0.27 0 0,1 23.735,33 H 22.806 A 0.26,0.26 0 0,1 22.557,32.73 V 26.91 A 1.901,1.901 0 0,1 24.453,25.007 H 27.557 A 1.903,1.903 0 0,1 29.459,26.91 V 32.717 A 0.267,0.267 0 0,1 29.292,32.98 A 0.268,0.268 0 0,1 29.183,33 Z M 15.884,26.463 H 19.735 A 0.269,0.269 0 0,0 20.005,26.193 V 25.269 A 0.257,0.257 0 0,0 19.748,25.012 H 15.884 A 1.903,1.903 0 0,0 13.98,26.912 V 31.097 A 1.903,1.903 0 0,0 15.884,33 H 19.735 A 0.261,0.261 0 0,0 19.996,32.739 V 31.806 A 0.269,0.269 0 0,0 19.727,31.536 H 15.884 A 0.448,0.448 0 0,1 15.435,31.09 V 29.698 H 19.525 A 0.27,0.27 0 0,0 19.795,29.429 V 28.515 A 0.269,0.269 0 0,0 19.525,28.245 H 15.435 V 26.911 A 0.448,0.448 0 0,1 15.884,26.463 Z M 36.407,25.463 H 35.431 A 0.25,0.25 0 0,0 35.205,25.821 L 38.442,32.731 A 0.466,0.466 0 0,0 38.863,33 H 39.837 A 0.254,0.254 0 0,0 40.067,32.638 L 36.837,25.748 A 0.472,0.472 0 0,0 36.407,25.463 Z M 42,31.072 C 42,31.577 42.2,32.061 42.557,32.417 C 42.914,32.774 43.277,32.975 43.781,32.975 H 47.725 A 0.279,0.279 0 0,0 48.004,32.697 V 31.708 A 0.258,0.258 0 0,0 47.744,31.448 H 43.902 A 0.447,0.447 0 0,1 43.455,31 V 25.27 A 0.269,0.269 0 0,0 43.193,25 H 42.269 A 0.27,0.27 0 0,0 42,25.27 V 31.072 Z M 51.735,25 H 50.811 A 0.265,0.265 0 0,0 50.545,25.265 V 32.735 C 50.545,32.881 50.665,33 50.811,33 H 51.735 A 0.265,0.265 0 0,0 52.001,32.735 V 25.265 A 0.265,0.265 0 0,0 51.735,25 Z" fill="rgb(135, 135, 134)"/>
</svg>
