<?xml version="1.0" encoding="UTF-8"?>
<!-- generated by Finnhub -->
<svg viewBox="0 0 55.5 55.5" xmlns="http://www.w3.org/2000/svg">
<path d="M 0,28 A 28,28 0 1,1 56,28 A 28,28 0 0,1 0,28 Z" fill="rgb(239, 242, 248)"/>
<path d="M 33.59,30.985 H 34.32 L 34.35,26.66 L 36.07,31 H 36.8 L 38.52,26.67 L 38.54,31 H 39.27 V 26 H 38.05 L 36.44,30.1 L 34.8,26 H 33.6 V 31 Z M 14.58,27.67 V 27 H 13.94 V 31 H 14.58 L 14.6,29 C 14.58,27.57 16.44,26.83 16.57,28.61 C 16.59,28.89 16.6,29.4 16.6,29.89 V 30.99 H 17.3 L 17.27,29.61 C 17.26,28.14 17.25,28.07 17.15,27.84 C 16.85,27.08 15.89,26.82 15.19,27.14 C 14.93,27.27 14.76,27.46 14.59,27.67 Z M 18.15,31 H 18.85 V 27 H 18.15 V 31 Z M 11.14,30.88 C 11.58,31.04 12.41,31.04 12.85,30.88 L 13.16,30.78 V 30.1 L 12.93,30.22 C 12.02,30.68 10.74,30.35 10.74,29.12 H 11.8 C 12.83,29.1 12.88,29.08 13.02,28.98 C 13.23,28.83 13.32,28.64 13.32,28.33 C 13.32,27.09 11.76,26.67 10.85,27.27 C 9.65,28.05 9.69,30.39 11.14,30.88 Z M 12.15,27.61 C 12.6,27.75 12.87,28.3 12.59,28.51 C 12.48,28.61 12.41,28.61 11.61,28.61 H 10.74 C 10.75,28.24 10.92,27.93 11.18,27.75 C 11.44,27.56 11.79,27.5 12.15,27.61 Z M 24.01,27.1 C 22.31,27.67 22.28,30.39 24.01,30.91 C 24.88,31.18 25.86,30.81 26.3,29.99 C 27.13,28.46 25.72,26.54 24.01,27.1 Z M 25.79,29.3 C 25.69,29.88 25.29,30.45 24.65,30.44 C 23.18,30.44 22.97,27.87 24.4,27.59 C 25.36,27.4 25.93,28.46 25.79,29.29 Z M 50.45,27.07 C 50.15,27.17 49.95,27.33 49.83,27.55 C 49.63,27.95 49.66,28.28 49.83,28.55 C 50.01,28.85 50.33,29.07 50.68,29.25 C 50.95,29.39 51.36,29.56 51.32,29.95 A 0.54,0.54 0 0,1 50.98,30.37 C 50.58,30.55 50.09,30.34 49.7,30.2 V 30.8 A 2.5,2.5 0 0,0 51.21,30.93 C 51.71,30.79 52.03,30.36 52.05,29.89 A 0.92,0.92 0 0,0 52,29.49 C 51.84,29 51.39,28.82 50.96,28.62 C 50.61,28.46 50.42,28.25 50.42,28.02 C 50.42,27.84 50.51,27.7 50.7,27.6 C 50.86,27.51 51.32,27.53 51.6,27.64 L 51.84,27.74 L 51.86,27.2 S 51.02,26.86 50.46,27.07 Z M 20.56,27.07 C 20.26,27.17 20.06,27.33 19.94,27.55 C 19.74,27.95 19.77,28.28 19.94,28.55 C 20.12,28.85 20.44,29.07 20.79,29.25 C 21.06,29.39 21.47,29.56 21.43,29.95 A 0.54,0.54 0 0,1 21.09,30.37 C 20.69,30.55 20.21,30.34 19.82,30.2 V 30.8 A 2.5,2.5 0 0,0 21.32,30.93 C 21.82,30.79 22.14,30.36 22.17,29.89 C 22.17,29.76 22.16,29.62 22.11,29.49 C 21.95,29 21.5,28.82 21.07,28.62 C 20.72,28.46 20.53,28.25 20.53,28.02 C 20.53,27.84 20.62,27.7 20.81,27.6 C 20.97,27.51 21.43,27.53 21.71,27.64 L 21.95,27.74 L 21.97,27.2 S 21.14,26.86 20.57,27.07 Z M 46.83,30.88 A 3.2,3.2 0 0,0 48.54,30.88 L 48.85,30.78 V 30.08 L 48.62,30.21 C 47.71,30.67 46.42,30.41 46.42,29.16 H 47.48 C 48.51,29.14 48.56,29.12 48.71,29.02 C 48.91,28.87 49,28.67 49,28.36 C 49,27.09 47.44,26.66 46.54,27.27 C 45.34,28.07 45.38,30.37 46.83,30.88 Z M 47.83,27.62 C 48.29,27.76 48.55,28.32 48.27,28.54 C 48.17,28.64 48.09,28.64 47.29,28.64 H 46.43 C 46.43,28.26 46.6,27.94 46.86,27.76 C 47.12,27.57 47.47,27.51 47.84,27.62 Z M 40.25,31 H 40.94 V 27 H 40.25 V 31 Z M 28,27.67 V 27 H 27.34 V 31 H 28 L 28.02,28.98 C 28,27.57 29.87,26.82 30,28.61 V 31 H 30.7 V 29.61 C 30.7,28.36 30.68,28.05 30.58,27.81 C 30.28,27.06 29.3,26.81 28.59,27.14 C 28.34,27.26 28.18,27.46 28,27.67 Z M 42.29,27.66 V 27 H 41.65 V 31 H 42.29 V 29 C 42.29,27.57 44.17,26.82 44.3,28.6 V 31 H 45 V 29.6 C 45,28.3 44.97,28.05 44.88,27.81 C 44.58,27.05 43.6,26.81 42.9,27.14 C 42.64,27.26 42.47,27.46 42.29,27.66 Z M 18.85,26.35 A 0.35,0.35 0 1,1 18.15,26.35 A 0.35,0.35 0 0,1 18.85,26.35 Z M 40.92,26.35 A 0.35,0.35 0 1,1 40.22,26.35 A 0.35,0.35 0 0,1 40.92,26.35 Z" fill="rgb(106, 107, 108)"/>
<path d="M 6.99,24.125 A 3.5,3.5 0 0,0 6,24 H 4 V 31 H 6 C 7.4,31 8.6,30.18 9.16,29 H 8 A 1,1 0 0,1 7,28 V 24.14 Z" fill="rgb(1, 112, 59)"/>
<path d="M 9.39,28.285 A 3.51,3.51 0 0,0 7.7,24.44 V 27.7 C 7.7,28.03 7.97,28.3 8.3,28.3 H 9.4 Z" fill="rgb(164, 141, 60)"/>
</svg>
