<?xml version="1.0" encoding="UTF-8"?>
<!-- generated by Finnhub -->
<svg viewBox="0 0 55.5 55.5" xmlns="http://www.w3.org/2000/svg">
<path d="M 0,0 H 55.5 V 55.5 H 0 Z" fill="rgb(239, 242, 248)"/>
<path d="M 26.326999999999998,35.542 C 22.212,35.557 19.795,33.477 19.795,29.454 C 19.785,25.495 22.202,23.357 26.337,23.357 S 32.929,25.496 32.929,29.459 C 32.929,33.482 30.462,35.561 26.337,35.561 V 35.557 Z M 26.337,32.71 C 28.129,32.71 28.178,30.714 28.195,29.447 C 28.178,28.347 28.06,26.185 26.337,26.185 C 24.673,26.185 24.529,28.347 24.529,29.447 C 24.529,30.714 24.714,32.71 26.337,32.71 Z M 50.996,27.73 L 49.16,35 H 43.96 L 42.32,28.316 H 42.284 L 40.747,35 H 35.443 L 32.69,24 H 36.818 L 38.367,31.427 H 38.4 L 40.067,24 H 44.857 L 46.477,31.427 H 46.509 L 48.075,24 H 48.232 L 50.996,27.73 Z" fill="rgb(108, 109, 110)"/>
<path d="M 49.466,23.985 H 52 L 51.327,26.353 L 49.477,24 Z M 15.672,36.928 L 6.84,24 H 4 V 35 H 9 V 30.75 L 15.672,36.928 Z" fill="rgb(211, 38, 44)"/>
<path d="M 7.203,21.985 L 16.029,34.998 L 19,35 V 24 H 14 V 28.178 L 7.213,22 Z" fill="rgb(108, 109, 110)"/>
</svg>
