<?xml version="1.0" encoding="UTF-8"?>
<!-- generated by Finnhub -->
<svg viewBox="0 0 55.5 55.5" xmlns="http://www.w3.org/2000/svg">
<path d="M 0,0 H 55.5 V 55.5 H 0 Z" fill="rgb(239, 242, 248)"/>
<path d="M 22.189999999999998,25.935 C 23.73,22.85 26.75,17.66 28.5,17 H 36 C 34.73,17.58 32.53,19.07 31.58,20.42 C 30,22.65 28.77,25.21 27.57,27.7 C 25.4,32.21 23.34,36.5 19.58,38.16 A 8,8 0 1,1 21.43,25.13 A 35.91,35.91 0 0,1 18.9,30.23 A 3,3 0 1,0 17.06,33.81 C 17.84,33.66 19.22,32.32 20.57,29.41 L 21.62,27.19 L 21.85,26.71 A 32.75,32.75 0 0,1 22.2,25.95 Z" fill="rgb(24, 62, 108)"/>
<path d="M 33.79,30.035 C 32.27,33.15 29.25,38.34 27.5,39 H 20 C 21.27,38.42 23.47,36.93 24.42,35.58 C 26,33.35 27.23,30.79 28.43,28.3 C 30.6,23.79 32.66,19.5 36.42,17.84 A 8,8 0 1,1 34.57,30.87 A 35.91,35.91 0 0,1 37.1,25.77 A 3,3 0 1,0 38.94,22.19 C 38.16,22.34 36.78,23.68 35.43,26.59 L 34.38,28.81 L 34.15,29.29 A 32.75,32.75 0 0,1 33.79,30.05 Z" fill="rgb(24, 62, 108)"/>
</svg>
