<?xml version="1.0" encoding="UTF-8"?>
<!-- generated by Finnhub -->
<svg viewBox="0 0 55.5 55.5" xmlns="http://www.w3.org/2000/svg">
<path d="M 0,0 H 55.5 V 55.5 H 0 Z" fill="rgb(239, 242, 248)"/>
<path d="M 34.11,24.745 L 34.58,24.13 L 34.37,23.91 S 34.28,24.05 34.19,23.97 C 34.09,23.89 34.53,22.63 34.53,22.63 L 33.52,22.33 L 33.37,22.83 L 33.62,23.03 L 33.45,24.28 A 8.58,8.58 0 0,0 32.63,23.81 C 32.73,23.36 32.88,22.91 33.06,22.47 L 32.1,22.29 L 31.65,22.78 L 31.88,22.92 A 0.8,0.8 0 0,1 32,22.83 C 32.12,22.76 32.16,22.91 32.08,23.04 L 31.58,23.39 A 7.17,7.17 0 0,0 30.92,23.19 C 31.22,22.55 31.52,21.87 31.64,21.73 C 31.77,21.69 31.91,21.67 32.04,21.67 L 32.12,21.07 L 31.22,21.15 L 30.19,23.05 L 30.02,23.02 C 30.02,22.46 30.03,21.91 30.09,21.35 L 28.99,21.98 L 28.89,22.77 L 28.77,22.93 H 28.71 C 28.71,22.48 28.66,20.9 28.66,20.9 L 27.65,21.59 L 27.67,22.01 L 27.9,22.03 L 28,22.96 L 27.62,23 L 27.6,22.8 L 27.41,22.67 C 27.34,22.73 27.08,22.99 27.01,22.87 C 26.95,22.8 27.07,22.7 27.07,22.7 L 26.01,22.56 L 25.83,23.09 L 26.06,23.25 L 26.04,23.34 C 25.71,23.44 25.39,23.57 25.08,23.71 L 25.3,23.01 L 24.2,22.71 L 24.05,23.23 L 24.28,23.45 L 24.21,24.17 C 23.93,24.34 23.65,24.53 23.39,24.74 C 23.37,23.81 23.48,21.82 23.49,21.78 C 23.39,21.82 22.46,22.08 22.46,22.08 L 21.28,25.08 L 20.98,25.03 L 20.76,25.53 L 21.66,26.09 L 22.11,24.91 L 22.61,25.02 L 22.66,25.41 A 6.56,6.56 0 0,0 20.74,29.99 C 20.74,33.89 24.33,37.04 28.74,37.04 C 33.17,37.04 36.74,33.88 36.74,29.99 A 6.7,6.7 0 0,0 34.12,24.76 Z M 22.55,24.39 L 22.28,24.32 L 22.62,23.4 L 22.55,24.39 Z M 34.25,21.85 C 34.35,21.85 34.43,21.82 34.5,21.76 A 0.44,0.44 0 0,0 34.65,21.56 A 0.42,0.42 0 0,0 34.54,21.09 A 0.46,0.46 0 0,0 34.04,21.01 A 0.45,0.45 0 0,0 33.84,21.17 A 0.43,0.43 0 0,0 33.77,21.42 C 33.77,21.54 33.83,21.65 33.92,21.73 C 34.01,21.81 34.13,21.86 34.25,21.85 Z M 35.42,24.77 L 36.08,24.2 L 35.86,23.95 S 35.67,24.09 35.62,23.95 C 35.62,23.79 35.67,23.63 35.74,23.49 C 35.84,23.32 35.97,23.06 36.07,23.2 C 36.15,23.36 36.2,23.54 36.22,23.72 L 36.65,23.3 V 22.63 L 36.48,22.48 C 36.4,22.53 36.12,22.75 36.05,22.64 C 36.01,22.56 36.14,22.47 36.14,22.47 L 35.23,22.24 L 34.99,22.74 L 35.21,22.92 L 34.79,24.3 L 35.42,24.77 Z M 25.02,22.23 C 25.11,22.23 25.19,22.19 25.26,22.14 A 0.44,0.44 0 0,0 25.42,21.94 A 0.42,0.42 0 0,0 25.3,21.47 A 0.46,0.46 0 0,0 24.8,21.39 A 0.45,0.45 0 0,0 24.6,21.55 A 0.43,0.43 0 0,0 24.53,21.79 C 24.53,21.91 24.59,22.03 24.68,22.11 C 24.78,22.19 24.89,22.23 25.02,22.23 Z" fill="rgb(254, 227, 2)"/>
<path d="M 34.49,32.185 C 34.48,32.16 34.45,32.12 34.39,32.12 A 0.14,0.14 0 0,0 34.32,32.18 A 0.13,0.13 0 0,0 34.32,32.27 A 0.17,0.17 0 0,0 34.48,32.34 C 34.46,32.3 34.54,32.27 34.51,32.21 Z M 24.3,33.37 A 0.14,0.14 0 0,0 24.36,33.32 A 0.13,0.13 0 0,0 24.39,33.25 A 0.18,0.18 0 0,0 24.32,33.16 A 0.2,0.2 0 0,0 24.22,33.12 A 0.16,0.16 0 0,0 24.15,33.18 A 0.15,0.15 0 0,0 24.13,33.28 C 24.14,33.31 24.16,33.33 24.19,33.35 C 24.22,33.37 24.26,33.37 24.29,33.37 Z M 24.62,33.14 C 24.63,33.11 24.66,33.1 24.66,33.05 C 24.66,33.01 24.62,32.97 24.57,32.95 A 0.22,0.22 0 0,0 24.5,33.08 C 24.53,33.12 24.56,33.16 24.62,33.14 Z M 23.74,33.18 C 23.76,33.16 23.8,33.13 23.8,33.1 C 23.77,33.01 23.65,33.01 23.65,33.12 A 0.1,0.1 0 0,0 23.75,33.18 Z M 25.98,33.25 C 26.01,33.22 26.09,33.19 26.08,33.12 C 26.06,33.06 25.93,33 25.91,33.09 C 25.85,33.14 25.92,33.23 25.98,33.25 Z M 23.94,33.55 C 24,33.52 24.06,33.47 24.04,33.4 A 0.13,0.13 0 0,0 23.99,33.33 A 0.13,0.13 0 0,0 23.9,33.32 A 0.14,0.14 0 0,0 23.84,33.37 A 0.14,0.14 0 0,0 23.81,33.44 C 23.85,33.49 23.88,33.54 23.94,33.54 Z M 33.25,32.53 C 33.28,32.53 33.3,32.49 33.3,32.46 C 33.26,32.43 33.25,32.4 33.22,32.4 C 33.19,32.43 33.13,32.44 33.14,32.49 C 33.16,32.53 33.2,32.58 33.24,32.53 Z M 32.03,32.81 C 32.06,32.8 32.11,32.75 32.1,32.71 A 0.1,0.1 0 0,0 31.96,32.69 A 0.09,0.09 0 0,0 31.93,32.73 C 31.93,32.75 31.95,32.77 31.97,32.79 L 32.03,32.81 Z M 36.52,31.42 A 0.12,0.12 0 0,0 36.61,31.48 C 36.65,31.48 36.67,31.42 36.67,31.38 C 36.64,31.27 36.5,31.32 36.52,31.42 Z M 28.24,33.24 L 28.3,33.21 A 0.08,0.08 0 0,0 28.32,33.14 A 0.09,0.09 0 0,0 28.28,33.11 A 0.1,0.1 0 0,0 28.18,33.11 A 0.09,0.09 0 0,0 28.15,33.16 C 28.16,33.19 28.19,33.24 28.24,33.24 Z M 29.65,33.35 A 0.16,0.16 0 0,0 29.73,33.2 C 29.7,33.17 29.65,33.11 29.59,33.13 C 29.56,33.16 29.49,33.2 29.51,33.26 C 29.53,33.33 29.59,33.37 29.65,33.36 Z M 27.36,33.32 A 0.1,0.1 0 0,0 27.44,33.28 A 0.1,0.1 0 0,0 27.46,33.2 C 27.46,33.15 27.4,33.14 27.36,33.12 A 0.1,0.1 0 0,0 27.29,33.17 A 0.1,0.1 0 0,0 27.27,33.24 C 27.29,33.27 27.33,33.32 27.37,33.32 Z M 30.83,33.06 C 30.87,33.05 30.93,33.02 30.91,32.96 C 30.9,32.92 30.85,32.88 30.81,32.91 C 30.76,32.94 30.73,32.94 30.74,32.98 C 30.74,33 30.76,33.02 30.78,33.04 A 0.1,0.1 0 0,0 30.83,33.06 Z"/>
<path d="M 34.49,32.185 C 34.48,32.16 34.45,32.12 34.39,32.12 A 0.14,0.14 0 0,0 34.32,32.18 A 0.13,0.13 0 0,0 34.32,32.27 A 0.17,0.17 0 0,0 34.48,32.34 C 34.46,32.3 34.54,32.27 34.51,32.21 Z"/>
<path d="M 36.39,31.564999999999998 C 36.3,31.68 36.42,31.75 36.5,31.77 C 36.7,31.67 36.62,31.85 36.6,31.94 C 36.54,32.3 36.32,32.61 36.23,32.96 C 35.85,33.61 35.43,34.28 34.86,34.81 A 7.58,7.58 0 0,1 32.23,36.63 C 32.08,36.75 31.86,36.76 31.69,36.87 A 9.72,9.72 0 0,1 29.54,37.29 C 29.36,37.39 29.1,37.29 28.9,37.36 A 0.65,0.65 0 0,0 28.51,37.36 C 28.27,37.26 27.93,37.39 27.7,37.23 C 27.49,37.33 27.29,37.17 27.06,37.17 A 8.4,8.4 0 0,1 23.03,35.19 C 22.96,35.05 22.81,35.01 22.7,34.87 A 6.82,6.82 0 0,1 21.26,32.78 C 21.26,32.76 21.26,32.73 21.28,32.71 A 0.1,0.1 0 0,1 21.32,32.67 C 21.37,32.69 21.42,32.66 21.43,32.7 A 0.18,0.18 0 0,0 21.43,32.83 C 21.43,32.88 21.47,32.91 21.51,32.93 C 21.61,32.98 21.69,32.77 21.77,32.93 C 21.84,33.13 22.1,33.16 22.11,33.39 C 22.25,33.45 22.36,33.49 22.33,33.68 C 22.4,33.84 22.57,33.65 22.65,33.78 A 0.16,0.16 0 0,0 22.54,33.94 L 22.55,34.01 A 0.12,0.12 0 0,0 22.63,34.06 A 0.12,0.12 0 0,0 22.73,34.03 C 22.75,34 22.8,33.93 22.85,33.99 C 23,34.05 22.95,34.28 23.15,34.26 C 23.24,34.39 23.24,34.6 23.44,34.59 C 23.53,34.65 23.4,34.8 23.54,34.83 C 23.66,34.9 23.71,34.65 23.83,34.74 C 23.98,34.82 23.87,35.07 24.09,35.05 C 24.19,35.13 24.14,35.4 24.36,35.31 C 24.39,35.25 24.48,35.18 24.56,35.24 C 24.68,35.29 24.59,35.48 24.76,35.5 C 24.91,35.6 25,35.34 25.11,35.52 C 25.12,35.57 25.08,35.55 25.06,35.58 C 24.98,35.56 24.91,35.55 24.89,35.62 C 24.88,35.7 24.92,35.78 24.99,35.78 C 25.11,35.76 25.19,35.5 25.34,35.68 C 25.42,35.75 25.34,35.9 25.48,35.93 C 25.63,35.93 25.82,35.66 25.91,35.93 C 25.88,36 25.96,36.07 26.01,36.09 C 26.19,36.14 26.22,35.85 26.39,36.01 C 26.45,36.08 26.41,36.23 26.56,36.23 C 26.72,36.29 26.71,36 26.89,36.13 C 27.02,36.17 26.91,36.36 27.06,36.36 C 27.24,36.42 27.26,36.12 27.44,36.26 C 27.55,36.3 27.44,36.46 27.58,36.46 C 27.76,36.55 27.78,36.23 27.97,36.36 C 28.08,36.4 28,36.52 28.11,36.56 C 28.21,36.61 28.26,36.49 28.31,36.43 C 28.41,36.43 28.49,36.49 28.59,36.44 C 28.6,36.4 28.66,36.34 28.65,36.26 A 0.37,0.37 0 0,0 28.36,36.2 A 0.22,0.22 0 0,1 28.16,36.27 C 28.11,36.2 28.09,36.09 27.96,36.06 C 27.84,36.03 27.78,36.19 27.66,36.15 C 27.56,36.07 27.56,35.9 27.41,35.92 C 27.31,35.9 27.17,36.17 27.09,35.94 C 27.05,35.88 27.02,35.76 26.91,35.77 C 26.79,35.73 26.6,36 26.59,35.74 C 26.51,35.6 26.19,35.69 26.29,35.48 C 26.31,35.44 26.3,35.41 26.29,35.38 A 0.16,0.16 0 0,0 26.21,35.31 C 26.17,35.31 26.14,35.31 26.11,35.34 A 0.16,0.16 0 0,0 26.04,35.41 C 26.04,35.45 26.01,35.46 25.99,35.47 A 0.43,0.43 0 0,1 25.78,35.35 A 0.13,0.13 0 0,0 25.78,35.25 A 0.13,0.13 0 0,0 25.72,35.18 C 25.55,35.06 25.44,35.33 25.35,35.1 C 25.43,35.12 25.58,35.15 25.58,35.01 C 25.58,34.95 25.57,34.86 25.49,34.84 C 25.25,34.75 25.31,35.24 25.08,34.94 C 25,34.89 25.08,34.81 25.08,34.75 A 0.1,0.1 0 0,0 25.13,34.78 L 25.27,34.81 A 0.11,0.11 0 0,0 25.36,34.77 A 0.13,0.13 0 0,0 25.39,34.69 A 0.2,0.2 0 0,0 25.39,34.64 C 25.39,34.57 25.33,34.51 25.22,34.5 C 25.11,34.5 25.09,34.61 25.08,34.69 V 34.74 C 25,34.69 24.88,34.72 24.84,34.62 C 24.84,34.56 24.89,34.48 24.84,34.44 C 24.79,34.36 24.72,34.36 24.64,34.36 C 24.59,34.42 24.59,34.6 24.47,34.51 A 0.75,0.75 0 0,1 24.37,34.41 C 24.35,34.36 24.38,34.3 24.44,34.3 C 24.5,34.3 24.55,34.33 24.61,34.32 A 0.2,0.2 0 0,0 24.64,34.12 A 0.17,0.17 0 0,0 24.56,34.04 A 0.18,0.18 0 0,0 24.44,34.04 C 24.38,34.1 24.4,34.24 24.29,34.24 A 0.17,0.17 0 0,1 24.19,34.2 A 0.16,0.16 0 0,1 24.14,34.13 C 24.12,34.05 24.17,34.01 24.21,33.96 C 24.29,33.97 24.44,34.01 24.46,33.89 L 24.45,33.78 A 0.18,0.18 0 0,0 24.37,33.7 A 0.13,0.13 0 0,0 24.26,33.71 A 0.12,0.12 0 0,0 24.2,33.81 L 24.16,33.88 A 0.13,0.13 0 0,1 24.09,33.91 A 0.2,0.2 0 0,1 23.99,33.86 A 0.2,0.2 0 0,1 23.94,33.77 C 23.94,33.74 23.96,33.71 23.97,33.69 A 0.17,0.17 0 0,1 24.05,33.64 C 24.11,33.64 24.15,33.67 24.22,33.65 C 24.3,33.58 24.28,33.33 24.47,33.45 C 24.67,33.5 24.59,33.12 24.84,33.28 C 24.94,33.35 24.79,33.52 24.96,33.57 C 25,33.57 25.04,33.57 25.06,33.55 A 0.16,0.16 0 0,0 25.14,33.46 C 25.25,33.26 24.73,33.31 25.04,33.1 C 25.07,33.1 25.1,33.1 25.14,33.12 L 25.19,33.2 C 25.13,33.3 25.22,33.37 25.31,33.39 C 25.48,33.43 25.58,33.02 25.74,33.32 A 0.13,0.13 0 0,0 25.74,33.44 C 25.74,33.46 25.76,33.47 25.78,33.49 L 25.83,33.51 C 26.06,33.56 26.02,33.16 26.25,33.36 C 26.29,33.43 26.21,33.61 26.37,33.63 C 26.4,33.63 26.43,33.63 26.47,33.6 A 0.15,0.15 0 0,0 26.52,33.54 C 26.6,33.32 26.23,33.46 26.36,33.23 A 0.12,0.12 0 0,1 26.42,33.18 H 26.52 C 26.66,33.25 26.46,33.49 26.69,33.46 C 26.92,33.56 26.83,33.19 27.06,33.3 C 27.21,33.36 27.02,33.54 27.21,33.59 C 27.43,33.65 27.35,33.29 27.58,33.41 C 27.83,33.38 27.51,33.77 27.83,33.69 A 0.13,0.13 0 0,0 27.88,33.52 C 27.84,33.47 27.76,33.47 27.71,33.42 C 27.73,33.35 27.75,33.24 27.84,33.24 C 27.92,33.24 27.97,33.32 27.98,33.4 C 27.93,33.47 28.03,33.52 28.08,33.53 C 28.28,33.59 28.35,33.16 28.53,33.45 A 0.13,0.13 0 0,0 28.52,33.55 A 0.13,0.13 0 0,0 28.6,33.65 A 0.14,0.14 0 0,0 28.71,33.63 A 0.13,0.13 0 0,0 28.76,33.59 A 0.13,0.13 0 0,0 28.78,33.54 C 28.85,33.36 28.51,33.44 28.64,33.25 C 28.64,33.24 28.64,33.22 28.66,33.21 A 0.1,0.1 0 0,1 28.78,33.21 C 28.88,33.25 28.84,33.34 28.81,33.41 A 0.3,0.3 0 0,0 29.08,33.48 C 29.13,33.42 29.15,33.35 29.23,33.3 C 29.3,33.29 29.35,33.33 29.4,33.38 C 29.4,33.47 29.4,33.58 29.5,33.59 C 29.61,33.61 29.66,33.49 29.7,33.41 C 29.78,33.39 29.89,33.46 29.96,33.41 C 30,33.35 30.03,33.26 30.11,33.24 A 0.2,0.2 0 0,1 30.27,33.32 C 30.26,33.4 30.26,33.51 30.35,33.52 A 0.14,0.14 0 0,0 30.5,33.47 A 0.13,0.13 0 0,0 30.52,33.42 C 30.59,33.27 30.17,33.24 30.45,33.08 L 30.54,33.11 L 30.59,33.19 C 30.51,33.28 30.62,33.36 30.71,33.36 C 30.91,33.39 30.91,33.01 31.14,33.21 C 31.2,33.15 31.21,33.03 31.31,33 C 31.39,32.98 31.44,33.04 31.47,33.09 A 0.13,0.13 0 0,0 31.5,33.25 L 31.56,33.27 L 31.66,33.26 A 0.15,0.15 0 0,0 31.73,33.18 C 31.84,32.98 31.47,33.08 31.58,32.88 C 31.61,32.83 31.69,32.78 31.74,32.85 C 31.89,32.91 31.66,33.12 31.89,33.11 C 31.93,33.11 31.97,33.11 32,33.09 A 0.15,0.15 0 0,0 32.07,33 A 0.15,0.15 0 0,1 32.12,32.94 A 0.16,0.16 0 0,1 32.2,32.91 C 32.27,32.93 32.38,32.97 32.41,32.87 C 32.41,32.81 32.47,32.77 32.51,32.75 A 0.22,0.22 0 0,1 32.67,32.83 A 0.14,0.14 0 0,0 32.71,32.99 C 32.72,33.01 32.74,33.02 32.76,33.02 A 0.2,0.2 0 0,0 32.86,33 A 0.19,0.19 0 0,0 32.93,32.93 C 32.98,32.77 32.6,32.7 32.86,32.58 C 32.92,32.58 32.96,32.64 32.98,32.69 C 32.92,32.79 33.04,32.83 33.1,32.86 C 33.27,32.89 33.23,32.65 33.38,32.66 C 33.66,32.8 33.58,32.31 33.88,32.5 C 33.97,32.45 34,32.21 34.15,32.33 C 34.21,32.43 34.19,32.61 34.38,32.55 C 34.46,32.5 34.46,32.43 34.48,32.35 C 34.56,32.36 34.68,32.43 34.75,32.35 C 34.79,32.31 34.81,32.25 34.87,32.2 C 35.1,32.34 35.07,32.02 35.27,32 C 35.32,32.02 35.38,32.05 35.43,32 A 0.26,0.26 0 0,1 35.58,31.84 A 0.2,0.2 0 0,1 35.68,31.86 C 35.71,31.87 35.73,31.89 35.75,31.92 C 35.74,31.95 35.75,31.99 35.76,32.02 L 35.84,32.09 A 0.1,0.1 0 0,0 35.92,32.06 A 0.1,0.1 0 0,0 35.95,31.99 C 35.98,31.84 35.71,31.89 35.83,31.72 A 0.13,0.13 0 0,1 35.93,31.67 A 0.13,0.13 0 0,1 36.03,31.7 C 36.12,31.77 35.98,31.92 36.15,31.93 C 36.19,31.93 36.23,31.93 36.26,31.9 A 0.18,0.18 0 0,0 36.33,31.81 C 36.4,31.63 36.1,31.73 36.19,31.54 C 36.24,31.43 36.38,31.48 36.39,31.58 Z"/>
<path d="M 24.29,33.355 A 0.14,0.14 0 0,0 24.36,33.32 A 0.13,0.13 0 0,0 24.39,33.25 A 0.18,0.18 0 0,0 24.32,33.16 A 0.2,0.2 0 0,0 24.22,33.12 A 0.16,0.16 0 0,0 24.15,33.18 A 0.15,0.15 0 0,0 24.13,33.28 C 24.14,33.31 24.16,33.33 24.19,33.35 C 24.22,33.37 24.26,33.37 24.29,33.37 Z M 24.62,33.14 C 24.63,33.11 24.66,33.1 24.66,33.05 C 24.66,33.01 24.62,32.97 24.57,32.95 A 0.22,0.22 0 0,0 24.5,33.08 C 24.53,33.12 24.56,33.16 24.62,33.14 Z M 23.74,33.18 C 23.76,33.16 23.8,33.13 23.8,33.1 C 23.77,33.01 23.65,33.01 23.65,33.12 A 0.1,0.1 0 0,0 23.75,33.18 Z M 25.98,33.25 C 26.01,33.22 26.09,33.19 26.08,33.12 C 26.06,33.06 25.93,33 25.91,33.09 C 25.85,33.14 25.92,33.23 25.98,33.25 Z M 23.41,33.36 A 0.33,0.33 0 0,0 23.46,33.28 C 23.43,33.24 23.32,33.21 23.34,33.3 C 23.36,33.33 23.37,33.36 23.41,33.36 Z M 23.94,33.55 C 24,33.52 24.06,33.47 24.04,33.4 A 0.13,0.13 0 0,0 23.99,33.33 A 0.13,0.13 0 0,0 23.9,33.32 A 0.14,0.14 0 0,0 23.84,33.37 A 0.14,0.14 0 0,0 23.81,33.44 C 23.85,33.49 23.88,33.54 23.94,33.54 Z M 33.25,32.53 C 33.28,32.53 33.3,32.49 33.3,32.46 C 33.26,32.43 33.25,32.4 33.22,32.4 C 33.19,32.43 33.13,32.44 33.14,32.49 C 33.16,32.53 33.2,32.58 33.24,32.53 Z M 32.03,32.81 C 32.06,32.8 32.11,32.75 32.1,32.71 A 0.1,0.1 0 0,0 31.96,32.69 A 0.09,0.09 0 0,0 31.93,32.73 C 31.93,32.75 31.95,32.77 31.97,32.79 L 32.03,32.81 Z M 36.52,31.42 A 0.12,0.12 0 0,0 36.61,31.48 C 36.65,31.48 36.67,31.42 36.67,31.38 C 36.64,31.27 36.5,31.32 36.52,31.42 Z M 28.24,33.24 L 28.3,33.21 A 0.08,0.08 0 0,0 28.32,33.14 A 0.09,0.09 0 0,0 28.28,33.11 A 0.1,0.1 0 0,0 28.18,33.11 A 0.09,0.09 0 0,0 28.15,33.16 C 28.16,33.19 28.19,33.24 28.24,33.24 Z M 29.65,33.35 A 0.16,0.16 0 0,0 29.73,33.2 C 29.7,33.17 29.65,33.11 29.59,33.13 C 29.56,33.16 29.49,33.2 29.51,33.26 C 29.53,33.33 29.59,33.37 29.65,33.36 Z M 27.36,33.32 A 0.1,0.1 0 0,0 27.44,33.28 A 0.1,0.1 0 0,0 27.46,33.2 C 27.46,33.15 27.4,33.14 27.36,33.12 A 0.1,0.1 0 0,0 27.29,33.17 A 0.1,0.1 0 0,0 27.27,33.24 C 27.29,33.27 27.33,33.32 27.37,33.32 Z M 30.83,33.06 C 30.87,33.05 30.93,33.02 30.91,32.96 C 30.9,32.92 30.85,32.88 30.81,32.91 C 30.76,32.94 30.73,32.94 30.74,32.98 C 30.74,33 30.76,33.02 30.78,33.04 A 0.1,0.1 0 0,0 30.83,33.06 Z"/>
<path d="M 28.75,39.985 A 10,10 0 0,0 38.7,30.83 L 37.48,31.2 C 36.8,34.99 33.16,37.89 28.76,37.89 C 25,37.89 21.79,35.76 20.51,32.77 H 19.2 A 10,10 0 0,0 28.76,40 Z M 27.15,22.2 C 27.07,22.26 26.82,22.51 26.74,22.4 C 26.68,22.32 26.81,22.23 26.81,22.23 L 25.75,22.09 L 25.56,22.62 L 25.79,22.78 L 25.53,24.23 L 26.2,24.64 L 26.8,24 L 26.55,23.77 S 26.38,23.93 26.31,23.78 C 26.34,23.62 26.39,23.46 26.46,23.31 C 26.53,23.11 26.66,22.76 26.8,22.97 C 26.9,23.14 26.96,23.31 27,23.49 L 27.4,23.02 L 27.33,22.32 S 27.22,22.26 27.15,22.2 Z M 36.22,22 C 36.14,22.05 35.86,22.27 35.79,22.16 C 35.75,22.08 35.88,21.99 35.88,21.99 L 34.97,21.76 L 34.73,22.26 L 34.94,22.44 L 34.54,23.83 L 35.16,24.3 L 35.82,23.73 L 35.59,23.48 S 35.41,23.62 35.36,23.47 C 35.36,23.31 35.41,23.16 35.48,23.02 C 35.58,22.85 35.71,22.59 35.81,22.73 C 35.89,22.89 35.94,23.07 35.96,23.25 L 36.39,22.83 V 22.16 L 36.22,22 Z M 24.75,20.88 A 0.47,0.47 0 0,0 24.51,20.96 A 0.44,0.44 0 0,0 24.35,21.16 A 0.43,0.43 0 0,0 24.47,21.64 A 0.47,0.47 0 0,0 24.97,21.72 A 0.45,0.45 0 0,0 25.17,21.56 A 0.43,0.43 0 0,0 25.24,21.32 A 0.44,0.44 0 0,0 25.09,21 A 0.48,0.48 0 0,0 24.75,20.88 Z M 24.68,23.92 C 24.59,23.83 25.03,22.54 25.03,22.54 L 23.93,22.24 L 23.78,22.76 L 24.01,22.98 L 23.86,24.51 L 24.51,24.86 C 24.53,24.86 25.06,24.09 25.06,24.09 L 24.86,23.87 S 24.78,24.01 24.68,23.92 Z M 33.99,20.5 A 0.47,0.47 0 0,0 33.74,20.59 A 0.44,0.44 0 0,0 33.59,20.79 A 0.43,0.43 0 0,0 33.7,21.26 A 0.47,0.47 0 0,0 34.2,21.35 A 0.45,0.45 0 0,0 34.4,21.19 A 0.43,0.43 0 0,0 34.48,20.95 A 0.44,0.44 0 0,0 34.33,20.62 A 0.47,0.47 0 0,0 33.99,20.5 Z M 33.92,23.5 C 33.83,23.4 34.27,22.15 34.27,22.15 L 33.25,21.85 L 33.11,22.35 L 33.34,22.55 L 33.14,24.04 S 33.74,24.4 33.76,24.4 C 33.78,24.4 34.31,23.65 34.31,23.65 L 34.11,23.44 S 34.01,23.57 33.92,23.49 Z M 30.95,20.67 L 29.85,22.66 L 29.75,22.58 C 29.75,22.01 29.76,21.44 29.82,20.88 L 28.73,21.51 L 28.63,22.29 L 28.44,22.55 L 28.39,20.43 L 27.39,21.11 L 27.41,21.54 L 27.64,21.56 C 27.74,22.5 27.84,23.72 27.86,24.06 C 28.08,24.2 28.3,24.31 28.54,24.4 L 29.08,23.2 L 29.29,24.44 L 30.04,24.09 S 31.15,21.55 31.36,21.25 C 31.49,21.22 31.63,21.2 31.76,21.19 L 31.85,20.59 L 30.95,20.67 Z M 32.34,23.42 C 32.44,22.94 32.6,22.46 32.79,22 L 31.82,21.81 L 31.38,22.3 L 31.61,22.44 A 0.78,0.78 0 0,1 31.73,22.34 C 31.85,22.28 31.89,22.43 31.81,22.56 C 31.37,22.85 30.86,23.18 30.49,23.64 L 30.84,24.41 L 31.74,24.13 L 32.18,24.45 L 32.73,23.81 L 32.56,23.51 C 32.38,23.66 32.31,23.53 32.34,23.42 Z M 31.68,23.67 C 31.5,23.75 31.32,23.81 31.14,23.87 C 31.09,23.88 31.02,23.9 31.02,23.85 C 31.02,23.64 31.77,23.17 31.77,23.17 L 31.67,23.67 Z M 23.15,24.62 C 23.07,24.01 23.21,21.36 23.23,21.32 L 22.19,21.6 L 21.02,24.6 L 20.72,24.55 L 20.5,25.05 L 21.39,25.62 L 21.85,24.44 L 22.35,24.55 C 22.39,25.02 22.49,25.52 22.49,25.52 L 23.49,25.03 V 24.58 L 23.15,24.62 Z M 22.29,23.92 L 22.01,23.85 L 22.35,22.93 L 22.29,23.91 Z"/>
<path d="M 12.49,20.005 V 22.73 C 12.48,23.45 11,23.33 11,23.33 V 19.43 S 12.48,19.3 12.5,20.03 Z M 32.04,30.5 C 30.91,30.67 29.79,30.8 28.67,30.86 L 28.72,31.19 C 29.83,31.12 30.95,30.99 32.07,30.83 L 32.04,30.5 Z M 32.14,31.44 L 32.18,31.74 C 31.62,31.86 29.65,32.06 28.83,32.11 L 28.79,31.81 C 29.91,31.73 31.03,31.61 32.14,31.44 Z M 32.13,31.3 C 31.01,31.47 29.89,31.6 28.78,31.67 L 28.74,31.34 C 29.85,31.27 30.97,31.14 32.09,30.97 L 32.13,31.3 Z M 32.01,30.35 C 30.89,30.52 29.77,30.65 28.65,30.72 L 28.61,30.39 S 29.22,30.28 29.18,29.76 C 29.18,29.68 29.06,28.86 29.04,28.74 C 28.98,28.34 28.5,28.47 28.5,28.47 L 28.32,27 C 28.45,26.98 28.82,26.95 28.76,26.56 L 28.61,25.46 L 30.71,25.22 L 30.85,26.33 C 30.9,26.72 31.25,26.65 31.38,26.64 C 31.4,26.64 31.58,28.11 31.58,28.11 S 31.1,28.11 31.13,28.51 L 31.26,29.53 C 31.35,30.05 31.97,30 31.97,30 L 32.01,30.35 Z M 13.56,25 H 8 V 23.28 S 8.96,23.28 9,22.53 V 20.22 C 8.96,19.48 8,19.47 8,19.47 V 18 H 13.56 S 14.46,18 14.5,19.1 V 23.65 C 14.46,24.75 13.56,25 13.56,25 Z M 12.5,20.02 C 12.48,19.3 11,19.42 11,19.42 V 23.32 S 12.48,23.45 12.5,22.73 V 20.03 Z M 15.02,23.89 V 25 H 16.88 V 23.91 A 0.26,0.26 0 0,1 16.7,23.83 A 0.24,0.24 0 0,1 16.63,23.65 V 22.67 C 16.63,22.15 17.19,22.14 17.19,22.7 V 23 H 18.23 V 22.42 C 18.23,21.24 17.14,21.15 16.55,21.75 V 21.39 H 15.02 V 22.28 C 15.09,22.28 15.16,22.31 15.2,22.36 C 15.25,22.41 15.27,22.47 15.27,22.54 V 23.63 A 0.24,0.24 0 0,1 15.2,23.81 A 0.26,0.26 0 0,1 15.02,23.89 Z M 17.3,25 H 18.3 V 24 H 17.3 V 25 Z M 11,19.42 V 23.32 S 12.48,23.45 12.5,22.73 V 20.03 C 12.48,19.3 11,19.43 11,19.43 Z M 22.3,31 H 17.06 C 17.11,31.12 17.18,31.2 17.25,31.3 L 22.31,31.27 V 31 Z M 22.3,31.9 V 32.22 H 19.93 V 31.92 L 22.31,31.9 Z M 22.3,31.75 L 19.93,31.76 V 31.66 A 0.57,0.57 0 0,1 19.85,31.76 L 17.68,31.77 C 17.56,31.67 17.45,31.57 17.35,31.44 L 22.31,31.42 V 31.75 Z M 17.9,31.92 H 19.68 A 1.75,1.75 0 0,1 17.89,31.92 Z M 22,30.07 V 27 H 20 V 27.65 C 19.78,27.22 18.8,26.98 18.15,27.25 C 17.17,27.67 16.8,28.69 16.81,29.65 C 16.81,30.05 16.87,30.45 17.01,30.83 L 22.31,30.8 V 30.48 C 22.11,30.48 21.99,30.28 22,30.08 Z M 19.5,30.47 C 19.17,30.47 18.9,30.01 18.9,29.43 C 18.9,28.84 19.17,28.37 19.5,28.37 C 19.83,28.37 20.1,28.84 20.1,29.43 C 20.1,30.01 19.82,30.48 19.5,30.48 Z M 16.41,30.47 S 15.42,30.48 15.41,29.88 A 56.1,56.1 0 0,1 15.41,27.47 C 15.43,26.68 16.37,26.71 16.37,26.71 V 25.3 H 13.52 L 12.21,27.63 L 10.89,25.3 H 8 V 26.71 S 8.98,26.68 9,27.47 C 9.01,27.92 9,29.28 9,29.88 C 9,30.48 8,30.46 8,30.46 V 30.86 L 11.63,30.85 V 30.5 S 11,30.49 11,30.08 V 29.24 L 12.2,30.55 L 13.28,29.25 V 30.09 C 13.28,30.49 12.8,30.5 12.8,30.5 V 30.85 L 16.41,30.83 V 30.46 Z M 8.01,31.97 L 11.62,31.95 V 32.28 H 8 V 31.97 Z M 8,31 L 11.6,30.99 V 31.32 L 8,31.34 V 31.01 Z M 8,31.48 L 11.61,31.46 V 31.8 L 8,31.82 V 31.49 Z M 16.4,31.3 H 12.8 V 31 L 16.41,30.98 V 31.32 Z M 16.4,31.92 V 32.27 H 12.8 V 31.94 L 16.41,31.92 Z M 16.4,31.77 L 12.78,31.79 V 31.46 L 16.4,31.45 V 31.77 Z M 25.87,30.99 H 23 V 31.27 L 25.88,31.25 V 31 Z M 25.87,31.73 L 22.99,31.75 V 31.41 H 25.87 V 31.73 Z M 25.87,31.88 V 32.21 H 23 V 31.89 L 25.9,31.88 Z M 25.87,30.78 H 23 V 30.46 C 23.1,30.46 23.2,30.41 23.26,30.34 A 0.38,0.38 0 0,0 23.37,30.06 V 28.86 C 23.37,28.76 23.34,28.66 23.27,28.57 A 0.38,0.38 0 0,0 23,28.45 V 27 H 25.36 V 27.65 C 26.29,26.71 27.98,26.85 27.98,28.69 V 29.43 H 26.36 V 29.13 C 26.36,28.24 25.5,28.27 25.5,29.08 V 30.11 C 25.5,30.21 25.53,30.31 25.6,30.39 C 25.68,30.47 25.78,30.51 25.89,30.52 V 30.78 Z M 48.56,24.66 L 48.54,24.61 C 47.21,25.41 45.84,26.12 44.42,26.76 L 44.57,27.04 A 39.85,39.85 0 0,0 48.6,24.91 C 48.6,24.83 48.58,24.74 48.56,24.66 Z M 48.55,25.43 C 47.33,26.16 46.07,26.83 44.78,27.42 L 44.64,27.17 A 40.33,40.33 0 0,0 48.61,25.09 V 25.11 L 48.55,25.43 Z M 45.89,25.9 C 45.39,26.15 44.87,26.4 44.35,26.63 L 44.17,26.3 S 45.42,25.67 45.63,25.55 C 45.69,25.66 45.76,25.76 45.83,25.85 L 45.89,25.9 Z M 48.49,24.47 C 47.89,24.83 47.27,25.17 46.62,25.52 A 0.3,0.3 0 0,0 46.57,25.38 C 46.43,25.14 46.27,25.08 45.21,25.41 C 44.91,25.51 43.94,25.74 43.31,25.11 A 2,2 0 0,1 42.98,24.61 C 42.55,23.71 43.33,22.94 43.83,22.65 C 44.06,22.51 46.33,21.4 46.33,21.4 L 47.11,22.8 S 45.75,23.5 45.53,23.6 C 45.49,23.56 45.43,23.42 45.33,23.39 C 45.1,23.31 44.65,23.56 44.66,23.77 C 44.66,23.84 44.69,23.91 44.74,23.97 C 44.83,24.04 45.01,24.08 45.59,23.87 C 47.67,23.11 48.24,23.93 48.49,24.47 Z M 48.46,25.65 L 48.45,25.68 C 48.25,26.07 47.92,26.38 47.52,26.58 C 47.28,26.69 45.51,27.6 45.02,27.85 L 44.85,27.55 C 46.09,26.97 47.29,26.34 48.46,25.65 Z M 38.53,29.81 C 39.46,29.52 40.37,29.21 41.26,28.88 L 41.16,28.61 C 40.26,28.93 39.35,29.23 38.42,29.51 L 38.53,29.81 Z M 44.03,27.76 C 43.28,28.09 42.51,28.41 41.72,28.71 L 41.61,28.44 C 42.41,28.14 43.17,27.82 43.92,27.49 L 44.03,27.76 Z M 44.08,27.9 L 44.19,28.17 C 43.79,28.37 42.29,28.97 41.89,29.13 L 41.79,28.86 C 42.57,28.55 43.34,28.23 44.09,27.9 Z M 38.24,29.08 A 43.9,43.9 0 0,0 40.98,28.17 L 41.1,28.47 C 40.2,28.79 39.3,29.1 38.36,29.38 L 38.24,29.08 Z M 43.69,26.93 C 42.94,27.26 42.17,27.57 41.37,27.87 L 40.67,26.15 C 40.39,25.42 39.55,25.68 39.87,26.45 L 40.26,27.41 C 40.4,27.76 40.78,27.65 40.78,27.65 L 40.93,28.03 C 40.03,28.36 39.12,28.66 38.18,28.94 L 38.06,28.64 S 38.39,28.44 38.26,28.1 L 37.83,27.03 C 37.66,26.61 37.3,26.74 37.3,26.74 L 36.78,25.45 L 39,24.62 L 39.21,25.15 C 39.41,24.74 40.03,24.24 40.61,24.1 C 41.96,23.79 42.32,24.71 43.04,26.35 A 0.34,0.34 0 0,0 43.24,26.57 A 0.37,0.37 0 0,0 43.54,26.56 L 43.7,26.93 Z M 43.87,27.36 C 43.12,27.69 42.34,28 41.55,28.3 L 41.43,28 C 42.23,27.7 43,27.4 43.75,27.06 L 43.87,27.36 Z M 38.59,29.94 C 39.52,29.66 40.43,29.34 41.32,29.02 L 41.42,29.3 C 41.17,29.4 38.96,30.17 38.72,30.25 L 38.59,29.95 Z M 34.8,29.82 C 34.1,29.97 33.4,30.12 32.7,30.23 L 32.66,30.16 C 32.48,29.58 32.33,29 32.21,28.4 C 31.76,25.8 36.31,25.22 36.79,26.98 L 37.17,28.31 L 34.48,28.97 L 34.66,29.65 H 34.68 C 34.7,29.72 34.74,29.78 34.8,29.82 Z M 34.32,28.34 L 35.19,28.13 S 35.07,27.66 35.02,27.52 C 34.86,27.08 34.07,27.27 34.17,27.72 L 34.32,28.34 Z M 37.28,28.84 L 35.48,29.27 L 35.58,29.64 C 36.18,29.5 36.78,29.34 37.37,29.18 L 37.27,28.84 Z M 37.53,29.77 A 46.2,46.2 0 0,1 33.02,30.81 C 33.12,30.91 33.22,31.01 33.35,31.07 C 34.79,30.81 36.21,30.47 37.61,30.07 L 37.53,29.77 Z M 37.41,29.32 C 35.87,29.75 34.31,30.1 32.74,30.37 C 32.79,30.47 32.84,30.57 32.91,30.67 C 34.45,30.4 35.98,30.06 37.48,29.63 L 37.41,29.32 Z M 33.56,31.19 C 33.86,31.33 34.2,31.37 34.53,31.29 C 35.25,31.18 36.97,30.75 37.73,30.54 L 37.64,30.22 C 36.3,30.6 34.94,30.92 33.56,31.19 Z"/>
<path d="M 43.75,27.055 C 43.01,27.4 42.23,27.71 41.44,28.01 L 41.38,27.87 C 42.18,27.57 42.95,27.26 43.7,26.93 L 43.76,27.07 Z M 8,31.01 L 11.62,31 V 30.85 L 8,30.87 V 31 Z M 22.31,30.81 L 17.01,30.83 L 17.06,31 H 22.31 V 30.8 Z M 48.54,24.59 L 48.51,24.53 C 48.51,24.51 48.51,24.5 48.49,24.48 C 47.9,24.84 47.28,25.18 46.63,25.53 C 46.63,25.57 46.63,25.61 46.6,25.65 C 46.44,25.78 46.26,25.88 46.06,25.92 H 45.93 L 45.91,25.9 C 45.41,26.15 44.89,26.4 44.36,26.64 L 44.43,26.77 C 45.85,26.13 47.23,25.41 48.56,24.62 L 48.54,24.59 Z M 16.41,30.83 L 12.8,30.84 V 31 L 16.41,30.98 V 30.84 Z M 38.25,29.09 C 39.18,28.81 40.1,28.51 41,28.17 L 40.95,28.04 C 40.05,28.36 39.13,28.67 38.2,28.94 L 38.25,29.09 Z M 37.38,29.19 C 36.78,29.35 36.19,29.51 35.59,29.65 L 35.63,29.79 L 35.15,29.91 A 0.46,0.46 0 0,1 34.81,29.83 C 34.11,29.99 33.41,30.13 32.71,30.25 L 32.76,30.39 C 34.33,30.11 35.89,29.76 37.42,29.33 L 37.38,29.19 Z M 25.88,30.79 H 22.98 V 30.95 L 25.88,30.93 V 30.79 Z M 32.01,30.35 C 30.89,30.52 29.77,30.65 28.65,30.72 L 28.67,30.85 C 29.79,30.78 30.91,30.66 32.03,30.49 L 32.01,30.35 Z M 16.41,31.31 H 12.8 V 31.47 L 16.41,31.46 V 31.31 Z M 37.49,29.64 C 35.99,30.07 34.46,30.42 32.92,30.69 L 33.02,30.81 C 34.54,30.54 36.04,30.21 37.52,29.78 L 37.49,29.64 Z M 32.07,30.83 C 30.95,31 29.82,31.12 28.71,31.19 L 28.73,31.33 C 29.84,31.26 30.96,31.13 32.08,30.96 L 32.07,30.83 Z M 25.88,31.27 H 22.98 V 31.42 H 25.88 V 31.27 Z M 48.62,24.95 V 24.92 C 47.32,25.71 45.97,26.42 44.58,27.05 L 44.65,27.18 A 40.32,40.32 0 0,0 48.62,25.1 V 24.95 Z M 8,31.49 L 11.62,31.47 V 31.33 L 8,31.34 V 31.49 Z M 43.88,27.36 C 43.13,27.69 42.35,28.01 41.56,28.31 L 41.62,28.45 C 42.42,28.15 43.18,27.83 43.93,27.5 L 43.88,27.36 Z M 22.3,31.28 L 17.24,31.3 L 17.34,31.44 L 22.3,31.42 V 31.28 Z M 38.42,29.52 C 39.35,29.24 40.26,28.94 41.16,28.61 L 41.1,28.47 C 40.2,28.79 39.3,29.1 38.36,29.38 L 38.42,29.52 Z M 8,31.97 L 11.62,31.95 V 31.81 L 8,31.82 V 31.97 Z M 48.56,25.47 V 25.44 A 39.7,39.7 0 0,1 44.8,27.43 L 44.87,27.56 C 46.11,26.98 47.31,26.36 48.48,25.66 L 48.56,25.46 Z M 38.6,29.95 C 39.53,29.67 40.44,29.35 41.33,29.03 L 41.28,28.89 C 40.38,29.22 39.48,29.53 38.55,29.81 L 38.6,29.95 Z M 37.61,30.09 C 36.22,30.49 34.8,30.82 33.36,31.09 A 0.4,0.4 0 0,0 33.41,31.11 L 33.55,31.19 H 33.56 C 34.94,30.93 36.31,30.61 37.65,30.22 L 37.61,30.09 Z M 32.13,31.29 C 31.01,31.47 29.89,31.59 28.77,31.67 L 28.79,31.8 A 38.5,38.5 0 0,0 32.14,31.43 L 32.13,31.3 Z M 16.41,31.79 L 12.8,31.8 V 31.95 L 16.42,31.93 V 31.79 Z M 25.88,31.74 L 22.99,31.76 V 31.9 L 25.89,31.89 V 31.74 Z M 44.04,27.77 C 43.29,28.1 42.52,28.42 41.73,28.72 L 41.78,28.86 C 42.58,28.56 43.35,28.24 44.09,27.91 L 44.04,27.77 Z M 17.89,31.92 H 19.69 L 19.85,31.77 L 17.68,31.78 A 2,2 0 0,0 17.89,31.92 Z M 22.31,31.75 L 19.93,31.76 V 31.91 L 22.31,31.9 V 31.75 Z" fill="rgb(254, 227, 2)"/>
</svg>
