<?xml version="1.0" encoding="UTF-8"?>
<!-- generated by Finnhub -->
<svg viewBox="0 0 55.5 55.5" xmlns="http://www.w3.org/2000/svg">
<path d="M 0,0 H 55.5 V 55.5 H 0 Z" fill="rgb(213, 28, 34)"/>
<path d="M 36.99,22.985 C 37.64,23 38.16,22.55 38.16,22 S 37.64,21 36.99,21 C 36.35,21 35.83,21.45 35.83,22 S 36.35,23 36.99,23 Z M 16,29 L 18.2,22 H 20.82 L 23,29 H 20.64 L 20.33,27.65 H 18.6 L 18.33,29 H 16 Z M 18.9,26.2 L 19.47,23.54 L 20.02,26.19 H 18.89 Z M 24,22 H 28 V 23.62 H 27 V 27.38 H 28 V 29 H 24 V 27.38 H 25 V 23.62 H 24 V 22 Z M 36,24 V 29 H 38 V 24 H 36 Z M 29,22.22 V 29 H 31 V 26.3 L 32.5,29 H 35 L 33.29,26.23 L 34.87,24 H 32.67 L 31,26.3 V 22 L 29,22.22 Z M 45,22.22 V 29 H 43 V 28.46 A 2.8,2.8 0 0,1 41.55,29 C 40.83,29 39.29,28.7 39.29,26.52 C 39.29,24.36 40.93,23.98 41.67,24 C 42.21,24 42.74,24.25 43,24.4 V 22 L 45,22.22 Z M 42.9,26.49 C 42.9,27.19 42.39,27.75 42,27.75 C 41.44,27.75 41.27,27.18 41.27,26.49 C 41.27,25.79 41.5,25.22 41.99,25.22 C 42.39,25.22 42.89,25.64 42.89,26.49 Z M 51,26.43 C 51,24.48 49.42,24 48.53,24 C 47.59,24 45.91,24.42 45.91,26.43 C 45.91,28.53 47.57,29 48.53,29 C 49.38,29 51,28.5 51,26.43 Z M 47.74,25.9 A 0.64,0.64 0 1,1 49.02,25.9 V 27.1 A 0.64,0.64 0 0,1 47.74,27.1 V 25.9 Z M 10.38,23 C 10.38,23.33 10.15,23.6 9.84,23.67 L 9.7,27.09 C 10.1,27.13 10.45,27.35 10.68,27.65 L 13.67,26.08 A 0.68,0.68 0 1,1 13.82,26.35 L 10.83,27.92 A 1.41,1.41 0 0,1 10.82,29.11 L 13.64,30.89 A 0.68,0.68 0 0,1 14.79,31.37 A 0.68,0.68 0 1,1 13.47,31.14 L 10.65,29.37 A 1.4,1.4 0 0,1 9.58,29.91 L 9.45,33.26 A 0.68,0.68 0 1,1 9.15,33.24 L 9.28,29.88 C 8.88,29.81 8.54,29.56 8.33,29.23 L 5.33,30.8 A 0.68,0.68 0 0,1 4.68,31.67 A 0.68,0.68 0 1,1 5.18,30.53 L 8.2,28.95 A 1.41,1.41 0 0,1 8.28,27.87 L 5.33,26.01 A 0.68,0.68 0 1,1 5.5,25.75 L 8.44,27.61 C 8.67,27.32 9.01,27.13 9.4,27.09 L 9.54,23.66 A 0.68,0.68 0 1,1 10.38,23 Z M 49.03,31 H 48.88 L 47.25,35 H 47.58 L 48.02,33.92 H 49.92 L 50.36,35 H 50.68 L 49.03,31 Z M 49.79,33.62 H 48.14 L 48.95,31.58 L 49.79,33.62 Z M 17.3,31.3 V 33.18 C 17.93,33.18 18.42,33.16 18.76,33.04 C 18.94,32.98 19.06,32.88 19.16,32.76 C 19.25,32.63 19.3,32.46 19.31,32.2 A 0.73,0.73 0 0,0 19.15,31.67 A 0.95,0.95 0 0,0 18.68,31.41 C 18.3,31.3 17.8,31.3 17.3,31.3 Z M 17.3,33.48 C 17.92,33.48 18.46,33.46 18.86,33.32 C 19.08,33.24 19.27,33.12 19.4,32.93 C 19.54,32.74 19.6,32.5 19.61,32.21 C 19.62,31.9 19.54,31.66 19.38,31.47 A 1.24,1.24 0 0,0 18.76,31.12 C 18.33,31 17.78,31 17.3,31 H 17 V 35 H 17.3 V 33.48 Z M 35.3,31.3 V 32.88 C 35.7,32.9 36.05,32.88 36.32,32.86 C 36.67,32.82 36.9,32.74 37.05,32.62 C 37.18,32.52 37.25,32.36 37.25,32.12 C 37.25,31.87 37.19,31.72 37.09,31.6 A 0.87,0.87 0 0,0 36.64,31.37 C 36.31,31.29 35.89,31.29 35.44,31.29 H 35.3 Z M 35.3,33.18 V 35 H 35 V 31 H 35.43 C 35.87,31 36.33,31 36.71,31.08 C 36.94,31.14 37.16,31.24 37.31,31.41 A 1,1 0 0,1 37.55,32.11 C 37.55,32.42 37.45,32.67 37.24,32.85 C 37.08,32.98 36.86,33.06 36.59,33.11 L 37.87,35 H 37.51 L 36.27,33.16 C 35.99,33.18 35.67,33.19 35.3,33.18 Z M 23.3,31 H 23 V 35 H 23.3 V 33.03 H 25.54 V 35 H 25.84 V 31 H 25.54 V 32.73 H 23.3 V 31 Z M 30.34,31 H 30.48 L 32.13,35 H 31.81 L 31.37,33.93 H 29.47 L 29.03,35 H 28.7 L 30.34,31 Z M 29.59,33.63 H 31.24 L 30.41,31.58 L 29.59,33.63 Z M 41.04,31 H 41.4 L 42.6,34.03 L 43.8,31 H 44.14 L 44.65,35 H 44.33 L 43.9,31.56 L 42.67,34.65 H 42.57 L 41.29,31.51 L 40.86,35 H 40.54 L 41.04,31 Z" fill="rgb(254, 254, 253)" fill-rule="evenodd"/>
</svg>
