<?xml version="1.0" encoding="UTF-8"?>
<!-- generated by Finnhub -->
<svg viewBox="0 0 55.5 55.5" xmlns="http://www.w3.org/2000/svg">
<path d="M 0,0 H 55.5 V 55.5 H 0 Z" fill="url(#a)"/>
<path d="M 50.99,25.985 L 52,24 H 31.63 L 31,26.59 L 30.365,24 H 4 L 5,26 H 30.365 L 31,28 L 31.63,26 H 51 Z" fill="rgb(254, 254, 253)"/>
<path d="M 10.99,31.802 V 29.187 C 12.056,29.133 12.545,29.707 12.545,30.529 C 12.545,31.371 12.02,31.817 11,31.817 Z M 18.038,31.817 C 17.255,31.817 16.855,31.102 16.855,30.529 C 16.855,29.939 17.219,29.187 18.038,29.187 C 18.858,29.187 19.241,29.921 19.241,30.529 C 19.241,31.101 18.821,31.817 18.038,31.817 Z M 23.5,29 H 24.047 C 24.434,29 24.621,29.187 24.621,29.5 C 24.621,29.815 24.445,30 24.047,30 H 23.5 V 29 Z M 37.23,31 L 38,29 L 38.722,31 H 37.23 Z M 8.5,28 V 29.003 H 5.769 L 6.166,30 H 8.5 V 34 H 11 C 12.511,34 14.325,33.123 14.634,31.763 C 14.98,33.016 16.527,34 18.04,34 C 19.423,34 20.453,33.283 21,32.193 V 34 H 23.5 V 31.603 L 24.852,34 H 29 L 29.5,31.997 L 30,34 H 32.004 L 32.5,31.997 L 33,34 H 36.685 L 36.886,32.999 H 39.104 L 39.322,34 H 43.5 V 31.997 L 45.5,34 H 48 V 30 H 49.98 L 50.326,29 H 48 V 28 H 50.527 L 51,27 H 45.5 V 29.241 L 43.5,27 H 41 V 31.943 L 39.5,27 H 36.5 L 34.717,31.943 L 34,27 H 31.5 L 31,30 L 30.5,27 H 28 L 27,33 L 25.74,31.082 C 26.67,30.992 27.052,30.08 27.052,29.383 C 27.052,27.97 25.996,27 24.338,27 H 21 V 28.722 A 3.392,3.392 0 0,0 18.037,27.005 C 16.581,27.005 14.941,27.989 14.614,29.205 C 14.324,27.721 12.358,27.005 10.901,27.005 H 5 L 5.51,28 H 8.5 Z" fill="rgb(254, 254, 253)"/>
<defs>
<linearGradient id="a" x1="10.418" x2="68.147" y1="9.712" y2="76.017" gradientUnits="userSpaceOnUse">
<stop stop-color="rgb(25, 29, 31)" offset="0"/>
<stop stop-color="rgb(5, 5, 8)" offset="1"/>
</linearGradient>
</defs>
</svg>
