<?xml version="1.0" encoding="UTF-8"?>
<!-- generated by Finnhub -->
<svg viewBox="0 0 55.5 55.5" xmlns="http://www.w3.org/2000/svg">
<path d="M 0,0 H 55.5 V 55.5 H 0 Z" fill="url(#b)"/>
<path d="M 13.46,38.345 L 14.16,38.83 C 14.46,39.03 14.86,39.06 15.19,38.9 L 19,37 V 41.46 C 19,41.82 19.18,42.16 19.47,42.36 L 20.16,42.82 C 20.46,43.03 20.86,43.06 21.19,42.89 L 24,41.5 V 44.47 C 24,44.83 24.18,45.17 24.47,45.37 L 25.16,45.83 C 25.46,46.04 25.86,46.07 26.19,45.9 L 42.61,37.75 C 42.85,37.63 43,37.38 43,37.1 V 18.36 C 43,17.96 42.78,17.59 42.43,17.4 L 41.88,17.12 C 41.58,16.96 41.24,16.96 40.95,17.11 L 38,18.57 V 15.37 C 38,14.96 37.78,14.59 37.43,14.4 L 36.88,14.12 C 36.58,13.96 36.24,13.96 35.95,14.11 L 32,16.07 V 11.37 C 32,10.97 31.78,10.59 31.43,10.41 L 30.88,10.12 C 30.58,9.97 30.24,9.97 29.95,10.12 L 13.39,18.32 A 0.72,0.72 0 0,0 13,18.97 V 37.47 C 13,37.83 13.18,38.17 13.47,38.37 Z M 36,19.56 V 16.68 C 36,16.43 35.75,16.26 35.54,16.38 L 32,18.14 V 21.54 L 36,19.55 Z M 32,23.9 L 36,21.91 V 33.14 C 36,33.27 35.93,33.39 35.82,33.44 L 26,38.39 V 33.54 L 31.6,30.75 C 31.85,30.63 32,30.38 32,30.1 V 23.9 Z M 30,22.54 V 19.15 L 21.18,23.58 A 0.34,0.34 0 0,0 21,23.89 V 34.15 L 24,32.63 V 25.97 C 24,25.69 24.15,25.44 24.4,25.32 L 30,22.54 Z M 26,31.61 V 27.08 C 26,26.95 26.07,26.83 26.18,26.78 L 30,24.88 V 29.36 C 30,29.49 29.93,29.61 29.82,29.67 L 26,31.61 Z M 24,34.52 L 21,36.01 V 40.35 C 21,40.6 21.25,40.77 21.46,40.65 L 24,39.39 V 34.53 Z M 26,40.5 L 37.6,34.74 C 37.85,34.62 38,34.37 38,34.09 V 20.92 L 40.54,19.67 C 40.75,19.57 41,19.72 41,19.97 V 36.2 C 41,36.33 40.93,36.45 40.82,36.5 L 26.46,43.6 C 26.25,43.7 26,43.55 26,43.3 V 40.5 Z M 19.4,22.32 L 30,17.06 V 12.7 C 30,12.45 29.75,12.28 29.54,12.4 L 15.18,19.7 A 0.35,0.35 0 0,0 15,20 V 36.66 C 15,36.91 15.25,37.08 15.46,36.96 L 19,35.16 V 22.96 C 19,22.69 19.15,22.44 19.4,22.32 Z" fill="url(#a)" fill-rule="evenodd"/>
<defs>
<linearGradient id="b" x1="10.42" x2="68.15" y1="9.71" y2="76.02" gradientUnits="userSpaceOnUse">
<stop stop-color="rgb(25, 29, 31)" offset="0"/>
<stop stop-color="rgb(5, 5, 8)" offset="1"/>
</linearGradient>
<linearGradient id="a" x1="11.38" x2="46.25" y1="26.08" y2="28.79" gradientUnits="userSpaceOnUse">
<stop stop-color="rgb(237, 126, 95)" offset=".27"/>
<stop stop-color="rgb(205, 29, 38)" offset="1"/>
</linearGradient>
</defs>
</svg>
