<?xml version="1.0" encoding="UTF-8"?>
<!-- generated by Finnhub -->
<svg viewBox="0 0 55.5 55.5" xmlns="http://www.w3.org/2000/svg">
<path d="M 0,0 H 55.5 V 55.5 H 0 Z" fill="rgb(239, 242, 248)"/>
<path d="M 16.77,30.985 L 16.7,30.33 C 16.48,30.64 15.94,31 15.03,31 C 14.11,31 13,30.12 13,28.53 C 13,26.94 14.13,26 15.2,26 C 15.63,25.98 16.42,26.14 16.7,26.53 V 24 H 18.3 V 31 H 16.78 Z M 15.66,27 C 15.09,27 14.6,27.57 14.6,28.37 C 14.6,29.17 15.1,29.7 15.66,29.7 C 16.22,29.7 16.7,29.18 16.7,28.37 C 16.7,27.57 16.23,27 15.66,27 Z M 24,29 H 20.6 C 20.6,29.61 20.95,30 21.52,30 C 22,30 22.26,29.72 22.4,29.37 H 23.97 C 23.78,30.35 22.77,31 21.55,31 C 20,31 19,30 19,28.5 S 19.96,26 21.52,26 S 24,26.84 24,28.28 V 29 Z M 22.4,28 C 22.4,27.44 22.05,27 21.54,27 C 20.95,27 20.61,27.5 20.6,28 H 22.4 Z M 28.4,27.57 A 1.56,1.56 0 0,0 27.98,27.53 C 27.2,27.53 26.6,28 26.6,28.83 V 31 H 25 V 26 H 26.47 L 26.6,26.81 C 26.87,26.27 27.5,26.01 27.97,26 C 28.1,26 28.27,26.02 28.4,26.05 V 27.57 Z M 30.87,26 L 31,26.83 C 31.3,26.29 31.83,26 32.44,26 C 33.03,26 33.57,26.3 33.79,26.85 C 34.12,26.29 34.73,26 35.37,26 C 36.37,26 37,26.69 37,27.78 V 31 H 35.4 V 27.72 C 35.4,27.27 35.08,27 34.68,27 C 34.22,27 34,27.34 34,27.94 V 31 H 32.4 V 27.72 C 32.4,27.26 32.08,27 31.67,27 C 31.27,27 31,27.35 31,27.97 V 31 H 29.4 V 26 H 30.87 Z M 45.6,27 V 29.17 C 45.6,29.52 45.92,29.67 46.3,29.67 C 46.43,29.67 46.47,29.65 46.6,29.63 V 30.89 C 46.3,30.96 46.08,30.99 45.77,31 C 44.54,31 44,30.47 44,29.3 V 27 H 43.4 V 26 H 44 V 25 H 45.6 V 26 H 46.6 V 27 H 45.6 Z M 42.6,27.85 V 31 H 41.11 L 41,30.3 C 40.7,30.77 40.25,31 39.56,31 C 38.48,31 38,30.48 38,29.6 C 38,28.5 38.84,28 41,28 V 27.91 C 41,27.39 40.85,27 40.4,27 C 40,27 39.78,27.27 39.75,27.6 H 38.15 C 38.15,26.57 39.09,26 40.53,26 S 42.6,26.64 42.6,27.85 Z M 41,28.89 C 40,28.89 39.6,29.05 39.6,29.45 S 39.9,30 40.19,30 C 40.71,30 41,29.62 41,29.18 V 28.89 Z M 52,27.85 V 31 H 50.51 L 50.4,30.3 C 50.1,30.77 49.65,31 48.96,31 C 47.88,31 47.4,30.48 47.4,29.6 C 47.4,28.5 48.24,28 50.4,28 V 27.91 C 50.4,27.39 50.25,27 49.8,27 C 49.4,27 49.18,27.27 49.15,27.6 H 47.55 C 47.55,26.57 48.49,26 49.93,26 S 52,26.64 52,27.85 Z M 50.4,28.89 C 49.4,28.89 49,29.05 49,29.45 S 49.3,30 49.59,30 C 50.11,30 50.4,29.62 50.4,29.18 V 28.89 Z" fill="rgb(72, 76, 103)"/>
<path d="M 3.99,23.985 H 11 V 25.5 H 4 V 24 Z M 4,29.5 H 11 V 31 H 4 V 29.5 Z M 4,26.7 H 11 V 28.2 H 4 V 26.7 Z" fill="rgb(91, 204, 243)"/>
</svg>
