<?xml version="1.0" encoding="UTF-8"?>
<!-- generated by Finnhub -->
<svg viewBox="0 0 55.5 55.5" xmlns="http://www.w3.org/2000/svg">
<path d="M 0,0 H 55.5 V 55.5 H 0 Z" fill="rgb(239, 242, 248)"/>
<path d="M 21.49,22.985 H 23.35 V 26.9 C 23.9,26.23 24.61,25.88 25.5,26.05 C 26.57,26.25 26.99,27.55 27,28.53 V 32 H 25 V 28.79 C 24.98,28.12 24.84,27.36 24.01,27.63 C 23.5,27.8 23.51,28.75 23.5,29.32 V 32 H 21.5 V 23 Z M 17.63,26.14 A 2.4,2.4 0 0,1 19.55,26.27 C 20.11,26.56 20.54,27.07 20.77,27.63 C 21.16,28.58 21.06,29.72 20.44,30.56 A 2.47,2.47 0 0,1 17.3,31.29 C 17.12,31.19 17.14,31.18 17,31.04 V 34 H 15 V 26 H 17 V 26.57 C 17.04,26.49 17.3,26.27 17.63,26.14 Z M 17.69,27.64 C 17.44,27.68 17.19,27.81 17.04,28 A 1.29,1.29 0 0,0 17,29.54 C 17.33,29.97 18,30.07 18.5,29.84 C 18.8,29.7 19,29.42 19.08,29.11 C 19.18,28.69 19.08,28.21 18.74,27.9 A 1.24,1.24 0 0,0 17.69,27.63 Z M 12,23 H 14 V 32 H 12 V 23 Z M 5.48,27.79 L 6.82,24 H 8.9 L 11.66,32 H 9.63 C 9.46,31.54 9.31,31.07 9.15,30.61 H 6.53 L 6.03,32 H 4 L 5.48,27.79 Z M 7.85,26.46 L 7.05,29 H 8.63 C 8.37,28.15 8.12,27.3 7.85,26.46 Z M 28.8,26.31 C 29.4,25.98 30.16,25.91 30.81,26.13 C 31.16,26.25 31.46,26.46 31.7,26.72 V 26 H 33.62 V 28.25 H 31.56 A 1.24,1.24 0 0,0 31.02,27.83 A 1.3,1.3 0 0,0 29.72,28.03 C 29.34,28.36 29.23,28.91 29.35,29.38 C 29.43,29.72 29.67,30.03 30.01,30.17 C 30.36,30.31 30.78,30.3 31.11,30.14 C 31.31,30.05 31.45,29.9 31.57,29.74 H 33.61 V 32 H 31.7 V 31.18 C 31.55,31.38 31.38,31.58 31.15,31.71 A 2.4,2.4 0 0,1 28.98,31.77 A 2.73,2.73 0 0,1 27.69,30.53 A 3.38,3.38 0 0,1 27.64,27.57 C 27.88,27.05 28.28,26.59 28.8,26.31 Z M 29.96,28.95 A 0.58,0.58 0 0,1 30.6,28.43 C 30.8,28.43 30.94,28.58 31.05,28.73 H 34.57 V 29.29 H 31.04 C 30.92,29.46 30.74,29.59 30.53,29.59 A 0.58,0.58 0 0,1 29.96,28.95 Z M 37.63,28.73 H 45.27 V 29.27 H 37.63 V 28.73 Z" fill="rgb(21, 87, 122)"/>
<path d="M 40.85,23.985 H 42.86 L 44.32,28.3 H 42.37 L 41.84,26.57 C 41.64,27.14 41.48,27.73 41.29,28.31 H 39.36 L 40.16,25.98 L 40.86,24 Z M 46,24 H 48 C 48.02,25.47 47.99,26.93 48,28.4 C 48.02,29.26 48,30.24 48.96,30.22 C 50.06,30.21 50,28.96 50,28.12 V 24 H 52 V 28.4 C 51.99,30.56 51.12,32.18 48.69,31.98 C 46.41,31.77 46,30.02 46,28.05 V 24 Z M 33,24 H 39 V 25.71 H 37 V 32 H 35 V 25.72 H 33 V 24 Z M 38.9,30 H 40.86 C 40.62,30.67 40.33,31.33 40.09,32 H 38.15 C 38.37,31.33 38.65,30.67 38.89,30 Z M 42.86,30 H 44.8 S 45.34,31.49 45.5,32 H 43.56 C 43.33,31.34 43.08,30.67 42.86,30 Z" fill="rgb(115, 119, 119)"/>
</svg>
