<?xml version="1.0" encoding="UTF-8"?>
<!-- generated by Finnhub -->
<svg viewBox="0 0 55.5 55.5" xmlns="http://www.w3.org/2000/svg">
<path d="M 0,0 H 55.5 V 55.5 H 0 Z" fill="rgb(49, 49, 48)"/>
<path d="M 37.99,25.755 V 11.26 A 0.27,0.27 0 0,0 37.73,11 H 31.19 C 31.04,11 31,11.12 31,11.26 V 23.74 C 31,23.89 30.8,24 30.64,24 H 14.27 A 0.27,0.27 0 0,0 14,24.26 V 37.2 C 14,38.78 15.35,40.01 17.02,40.01 H 30.64 C 30.79,40.01 31,40.18 31,40.32 V 44.75 C 31,44.89 31.04,45.01 31.19,45.01 H 37.73 C 37.88,45.01 38,44.89 38,44.75 V 38.27 A 0.27,0.27 0 0,0 37.73,38.01 H 33.26 A 0.25,0.25 0 0,1 33,37.75 V 26.3 C 33,26.16 33.1,26.01 33.26,26.01 H 37.73 C 37.88,26.01 38,25.93 38,25.78 Z M 33.25,13 C 33.11,13 33,13.1 33,13.24 V 23.76 C 33,23.89 33.11,24 33.25,24 H 35.75 C 35.89,24 36,23.9 36,23.76 V 13.24 A 0.24,0.24 0 0,0 35.75,13 H 33.25 Z M 33,40.23 C 33,40.1 33.11,40 33.25,40 H 35.75 C 35.89,40 36,40.1 36,40.23 V 42.77 C 36,42.9 35.89,43 35.75,43 H 33.25 C 33.11,43 33,42.9 33,42.77 V 40.23 Z M 16.27,26 A 0.27,0.27 0 0,0 16,26.26 V 36.68 C 16,37.41 16.62,38 17.38,38 H 30.73 C 30.88,38 31,37.88 31,37.74 V 26.26 A 0.27,0.27 0 0,0 30.73,26 H 16.27 Z" fill="rgb(254, 254, 253)" fill-rule="evenodd"/>
</svg>
