<?xml version="1.0" encoding="UTF-8"?>
<!-- generated by Finnhub -->
<svg viewBox="0 0 55.5 55.5" xmlns="http://www.w3.org/2000/svg">
<path d="M 0,0 H 55.5 V 55.5 H 0 Z" fill="rgb(239, 242, 248)"/>
<path d="M 7.640000000000001,22.985 H 6 V 18 H 7.7 C 8.2,18 8.63,18.09 8.99,18.28 C 9.35,18.48 9.62,18.76 9.81,19.13 C 10.01,19.5 10.1,19.93 10.1,20.45 C 10.1,20.96 10,21.41 9.8,21.78 A 2,2 0 0,1 8.97,22.63 C 8.61,22.83 8.17,23 7.65,23 Z M 6.77,22.28 H 7.61 C 8,22.28 8.31,22.21 8.58,22.06 C 8.83,21.92 9.02,21.71 9.15,21.44 C 9.28,21.17 9.35,20.84 9.35,20.45 S 9.28,19.73 9.15,19.46 A 1.33,1.33 0 0,0 8.59,18.85 A 1.9,1.9 0 0,0 7.65,18.64 H 6.77 V 22.28 Z M 12.64,23 C 11.45,23 10.83,22.07 10.83,20.93 C 10.83,19.79 11.53,19 12.59,19 C 13.45,19 14.29,19.51 14.29,20.86 V 21.12 H 11.25 V 20.58 H 13.55 C 13.55,20.39 13.51,20.22 13.44,20.08 A 0.91,0.91 0 0,0 12.6,19.6 A 1,1 0 0,0 11.7,20.13 C 11.6,20.29 11.57,20.46 11.57,20.65 V 21.07 C 11.57,21.32 11.61,21.7 11.7,21.87 C 11.88,22.22 12.22,22.41 12.65,22.41 C 13.08,22.41 13.4,22.22 13.53,21.88 L 14.23,22 C 14.07,22.6 13.49,23 12.64,23 Z M 17.97,19.96 L 17.3,20.07 A 0.77,0.77 0 0,0 17.16,19.83 A 0.66,0.66 0 0,0 16.92,19.65 A 0.9,0.9 0 0,0 16.53,19.57 C 16.24,19.57 15.8,19.7 15.8,20.07 C 15.8,20.19 15.84,20.28 15.94,20.36 C 16.46,20.78 17.27,20.56 17.79,21.05 C 17.96,21.21 18.05,21.59 18.05,21.85 C 18.05,22.08 17.98,22.28 17.85,22.45 C 17.72,22.62 17.53,22.75 17.3,22.85 C 17.06,22.95 16.8,23 16.49,23 C 15.63,23 15.06,22.63 14.94,21.98 L 15.66,21.88 C 15.7,22.05 15.8,22.19 15.94,22.28 C 16.07,22.38 16.26,22.42 16.48,22.42 C 16.97,22.42 17.28,22.19 17.28,21.91 C 17.28,21.18 15.74,21.28 15.32,20.86 C 15.15,20.69 15.05,20.36 15.05,20.1 C 15.05,19.66 15.32,19.33 15.76,19.14 C 15.99,19.04 16.24,19 16.53,19 C 17.35,19 17.82,19.38 17.97,19.96 Z M 20.53,19.22 V 19.8 H 18.44 V 19.22 H 20.53 Z M 19,18.31 H 19.75 V 21.87 C 19.75,22.01 19.77,22.11 19.81,22.18 C 19.85,22.25 19.91,22.3 19.98,22.32 C 20.05,22.35 20.12,22.36 20.2,22.36 A 0.9,0.9 0 0,0 20.46,22.33 L 20.6,22.93 L 20.41,22.97 A 1.5,1.5 0 0,1 19.57,22.9 A 0.93,0.93 0 0,1 19.16,22.57 A 0.94,0.94 0 0,1 19,22.02 V 18.3 Z M 21.47,23 V 19.22 H 22.22 V 23 H 21.47 Z M 21.85,18.88 A 0.48,0.48 0 0,1 21.51,18.76 A 0.4,0.4 0 0,1 21.38,18.46 A 0.4,0.4 0 0,1 21.51,18.15 A 0.5,0.5 0 0,1 21.85,18 C 21.98,18 22.09,18.06 22.18,18.15 C 22.28,18.23 22.32,18.33 22.32,18.45 A 0.4,0.4 0 0,1 22.18,18.75 C 22.08,18.84 21.98,18.88 21.85,18.88 Z M 23.96,20.5 V 23 H 23.22 V 19 H 23.93 V 19.6 H 23.98 C 24.07,19.4 24.2,19.25 24.39,19.13 C 24.59,19.01 24.82,18.95 25.11,18.95 C 25.37,18.95 25.59,19.01 25.79,19.11 C 25.99,19.21 26.14,19.37 26.25,19.58 C 26.35,19.78 26.41,20.05 26.41,20.35 V 23 H 25.66 V 20.44 A 0.87,0.87 0 0,0 25.45,19.81 A 0.78,0.78 0 0,0 24.85,19.58 A 0.96,0.96 0 0,0 24.39,19.68 A 0.8,0.8 0 0,0 24.08,20.01 C 24,20.14 23.96,20.31 23.96,20.51 Z M 27.74,24 A 1.6,1.6 0 0,1 27.24,23.91 L 27.41,23.32 C 27.55,23.36 27.67,23.37 27.77,23.37 C 27.87,23.37 27.97,23.33 28.05,23.25 C 28.14,23.18 28.21,23.06 28.27,22.9 L 28.37,22.65 L 26.97,19 H 27.77 L 28.73,21.77 H 28.77 L 29.74,19 H 30.54 L 28.96,23.1 C 28.89,23.3 28.8,23.45 28.68,23.59 C 28.58,23.72 28.44,23.82 28.28,23.89 C 28.12,23.96 27.94,23.99 27.74,23.99 Z M 11.83,25 H 12.77 L 14.39,28.82 H 14.45 L 16.07,25 H 17 V 30 H 16.27 V 26.34 H 16.23 L 14.73,30 H 14.12 L 12.62,26.34 H 12.57 V 30 H 11.83 V 25 Z M 19.62,30 C 18.44,30 17.8,29.07 17.8,27.94 C 17.8,26.8 18.5,26 19.56,26 C 20.25,26 20.86,26.38 21.12,27.02 C 21.21,27.25 21.26,27.54 21.26,27.88 V 28.13 H 18.22 V 27.59 H 20.52 C 20.52,27.4 20.49,27.23 20.41,27.09 A 0.89,0.89 0 0,0 20.07,26.74 A 0.96,0.96 0 0,0 19.57,26.61 A 1,1 0 0,0 18.67,27.14 C 18.58,27.3 18.54,27.47 18.54,27.66 V 28.08 C 18.54,28.33 18.58,28.69 18.67,28.87 C 18.77,29.04 18.89,29.17 19.05,29.27 C 19.22,29.36 19.41,29.4 19.62,29.4 C 19.76,29.4 19.89,29.38 20.01,29.34 C 20.13,29.3 20.23,29.24 20.31,29.16 A 0.77,0.77 0 0,0 20.51,28.87 L 21.21,28.99 C 21.04,29.59 20.46,29.99 19.61,29.99 Z M 23.51,30 C 23.21,30 22.93,29.92 22.69,29.76 A 1.58,1.58 0 0,1 22.12,29.11 C 21.98,28.81 21.92,28.48 21.92,28.07 C 21.92,27.67 21.98,27.33 22.12,27.05 C 22.26,26.76 22.45,26.55 22.69,26.39 C 22.94,26.24 23.21,26.16 23.52,26.16 C 23.75,26.16 23.95,26.2 24.09,26.28 C 24.24,26.36 24.35,26.44 24.43,26.55 L 24.62,26.81 H 24.66 V 25 H 25.41 V 30 H 24.68 V 29.34 H 24.62 A 1.9,1.9 0 0,1 24.42,29.62 C 24.34,29.72 24.22,29.81 24.08,29.88 C 23.93,29.96 23.74,29.99 23.51,29.99 Z M 23.68,29.38 C 23.89,29.38 24.08,29.32 24.22,29.21 C 24.37,29.11 24.48,28.95 24.56,28.75 C 24.64,28.55 24.67,28.33 24.67,28.07 C 24.67,27.81 24.64,27.58 24.56,27.39 A 1,1 0 0,0 24.22,26.94 A 0.9,0.9 0 0,0 23.68,26.78 A 0.9,0.9 0 0,0 22.78,27.41 C 22.7,27.61 22.67,27.82 22.67,28.07 C 22.67,28.32 22.7,28.54 22.78,28.74 C 22.86,28.94 22.97,29.09 23.12,29.21 A 0.9,0.9 0 0,0 23.68,29.38 Z M 26.47,30 V 26.21 H 27.21 V 30 H 26.47 Z M 26.84,25.86 A 0.48,0.48 0 0,1 26.51,25.74 A 0.4,0.4 0 0,1 26.37,25.44 A 0.4,0.4 0 0,1 26.51,25.13 C 26.61,25.04 26.71,25 26.84,25 S 27.08,25.04 27.17,25.13 C 27.27,25.21 27.31,25.31 27.31,25.43 A 0.4,0.4 0 0,1 27.17,25.73 C 27.08,25.82 26.97,25.86 26.84,25.86 Z M 29.32,30 A 1.6,1.6 0 0,1 28.67,29.87 A 1.1,1.1 0 0,1 28.2,29.49 A 1.08,1.08 0 0,1 28.03,28.87 A 0.9,0.9 0 0,1 28.49,28.03 C 28.63,27.96 28.79,27.9 28.97,27.86 L 29.5,27.76 L 30.06,27.7 A 0.84,0.84 0 0,0 30.36,27.62 C 30.46,27.56 30.46,27.34 30.46,27.25 C 30.46,26.83 30.22,26.58 29.74,26.58 A 0.97,0.97 0 0,0 29.14,26.75 A 0.87,0.87 0 0,0 28.84,27.1 L 28.15,26.95 C 28.23,26.72 28.35,26.54 28.51,26.4 C 28.67,26.26 28.86,26.16 29.07,26.1 C 29.27,26.03 29.5,26 29.73,26 C 30.53,26 31.21,26.42 31.21,27.3 V 30 H 30.48 V 29.41 H 30.45 C 30.41,29.51 30.33,29.6 30.24,29.69 C 30.14,29.78 30.02,29.85 29.87,29.91 S 29.54,30.01 29.32,30.01 Z M 29.49,29.42 C 29.69,29.42 29.87,29.38 30.01,29.31 A 0.84,0.84 0 0,0 30.35,29 A 0.78,0.78 0 0,0 30.47,28.58 V 28.11 A 0.4,0.4 0 0,1 30.31,28.18 A 2.47,2.47 0 0,1 29.78,28.28 L 29.55,28.3 A 1.9,1.9 0 0,0 29.15,28.4 A 0.68,0.68 0 0,0 28.87,28.57 A 0.44,0.44 0 0,0 28.77,28.88 C 28.77,29.06 28.83,29.2 28.97,29.28 C 29.1,29.38 29.27,29.42 29.49,29.42 Z M 6,32.66 V 32 H 10 V 32.66 H 8.35 V 37 H 7.6 V 32.66 H 6 Z M 11.85,37 C 11.47,37 11.15,36.94 10.88,36.78 C 10.61,36.61 10.4,36.38 10.25,36.08 A 2.4,2.4 0 0,1 10.03,35.02 C 10.03,34.62 10.1,34.27 10.25,33.97 C 10.4,33.67 10.6,33.43 10.87,33.25 C 11.13,33.08 11.44,33 11.8,33 C 12.01,33 12.22,33.03 12.42,33.1 A 1.51,1.51 0 0,1 13.35,34.06 C 13.45,34.3 13.49,34.6 13.49,34.96 V 35.23 H 10.45 V 34.66 H 12.75 C 12.75,34.46 12.72,34.28 12.64,34.13 A 0.91,0.91 0 0,0 11.8,33.63 C 11.6,33.63 11.41,33.68 11.25,33.78 C 11.1,33.88 10.98,34.02 10.9,34.18 C 10.81,34.35 10.77,34.53 10.77,34.73 V 35.17 C 10.77,35.43 10.82,35.65 10.91,35.84 A 0.98,0.98 0 0,0 11.86,36.4 C 12,36.4 12.13,36.38 12.24,36.34 C 12.36,36.29 12.46,36.24 12.54,36.14 A 0.82,0.82 0 0,0 12.74,35.84 L 13.44,35.97 C 13.38,36.18 13.28,36.37 13.14,36.53 C 12.99,36.68 12.81,36.81 12.59,36.9 C 12.38,36.98 12.13,37 11.85,37 Z M 15.92,37 C 15.55,37 15.23,36.94 14.97,36.77 A 1.69,1.69 0 0,1 14.36,36.06 C 14.21,35.76 14.14,35.41 14.14,35.02 C 14.14,34.62 14.21,34.27 14.36,33.97 C 14.51,33.67 14.71,33.43 14.98,33.25 C 15.24,33.08 15.56,33 15.92,33 C 16.21,33 16.46,33.05 16.69,33.16 A 1.4,1.4 0 0,1 17.49,34.31 H 16.77 A 0.89,0.89 0 0,0 16.5,33.84 A 0.8,0.8 0 0,0 15.93,33.64 C 15.73,33.64 15.53,33.69 15.38,33.8 C 15.23,33.91 15.11,34.07 15.02,34.28 C 14.94,34.48 14.89,34.72 14.89,35 C 14.89,35.28 14.94,35.53 15.02,35.73 C 15.1,35.94 15.22,36.1 15.38,36.21 C 15.53,36.33 15.72,36.38 15.93,36.38 C 16.07,36.38 16.2,36.36 16.31,36.3 A 0.79,0.79 0 0,0 16.61,36.07 C 16.68,35.97 16.74,35.85 16.77,35.71 H 17.49 A 1.4,1.4 0 0,1 16.71,36.85 C 16.49,36.97 16.23,37 15.92,37 Z M 19.03,34.63 V 37 H 18.29 V 32 H 19.02 V 33.68 H 19.07 C 19.16,33.48 19.3,33.31 19.48,33.18 C 19.66,33.06 19.91,33 20.2,33 C 20.46,33 20.7,33.05 20.89,33.16 C 21.09,33.27 21.24,33.44 21.35,33.66 C 21.45,33.87 21.51,34.14 21.51,34.46 V 37 H 20.77 V 34.56 C 20.77,34.27 20.7,34.06 20.55,33.89 A 0.77,0.77 0 0,0 19.95,33.66 A 0.97,0.97 0 0,0 19.48,33.76 A 0.82,0.82 0 0,0 19.15,34.1 A 1.1,1.1 0 0,0 19.03,34.63 Z M 23.25,34.63 V 37 H 22.5 V 33 H 23.22 V 33.68 H 23.27 C 23.35,33.48 23.49,33.31 23.67,33.18 C 23.87,33.06 24.11,33 24.39,33 C 24.65,33 24.89,33.05 25.08,33.17 C 25.28,33.27 25.42,33.44 25.53,33.66 C 25.64,33.88 25.69,34.15 25.69,34.46 V 37 H 24.95 V 34.56 C 24.95,34.28 24.88,34.06 24.73,33.9 A 0.76,0.76 0 0,0 24.13,33.66 A 0.92,0.92 0 0,0 23.68,33.76 A 0.81,0.81 0 0,0 23.36,34.1 C 23.29,34.25 23.25,34.43 23.25,34.63 Z M 28.3,37 C 27.94,37 27.63,36.94 27.36,36.77 C 27.1,36.61 26.89,36.37 26.74,36.07 C 26.59,35.77 26.52,35.42 26.52,35.02 S 26.59,34.26 26.74,33.95 C 26.89,33.65 27.1,33.42 27.36,33.25 C 27.63,33.08 27.94,33 28.3,33 S 28.97,33.08 29.24,33.25 C 29.51,33.42 29.71,33.65 29.86,33.95 C 30.01,34.25 30.08,34.61 30.08,35.02 C 30.08,35.42 30.01,35.77 29.86,36.07 C 29.71,36.37 29.51,36.61 29.24,36.77 C 28.97,36.94 28.66,37 28.3,37 Z M 28.3,36.39 C 28.54,36.39 28.73,36.33 28.88,36.2 C 29.03,36.07 29.15,35.9 29.22,35.7 S 29.33,35.26 29.33,35.01 C 29.33,34.76 29.29,34.54 29.22,34.33 A 1.12,1.12 0 0,0 28.88,33.83 A 0.87,0.87 0 0,0 28.3,33.63 A 0.89,0.89 0 0,0 27.72,33.83 C 27.57,33.95 27.46,34.12 27.38,34.33 C 27.31,34.53 27.28,34.76 27.28,35.01 C 27.28,35.26 27.31,35.49 27.38,35.7 C 27.46,35.9 27.57,36.07 27.72,36.2 A 0.9,0.9 0 0,0 28.3,36.39 Z M 31.74,32 V 37 H 31 V 32 H 31.74 Z M 34.27,37 C 33.91,37 33.6,36.94 33.33,36.77 C 33.06,36.61 32.86,36.37 32.71,36.07 C 32.56,35.77 32.49,35.42 32.49,35.02 S 32.56,34.26 32.71,33.95 C 32.86,33.65 33.06,33.42 33.33,33.25 C 33.6,33.08 33.91,33 34.27,33 S 34.94,33.08 35.21,33.25 C 35.47,33.42 35.68,33.65 35.83,33.95 C 35.98,34.25 36.05,34.61 36.05,35.02 C 36.05,35.42 35.98,35.77 35.83,36.07 C 35.68,36.37 35.47,36.61 35.21,36.77 C 34.94,36.94 34.63,37 34.27,37 Z M 34.27,36.39 C 34.5,36.39 34.7,36.33 34.85,36.2 C 35,36.07 35.11,35.9 35.19,35.7 C 35.26,35.5 35.29,35.26 35.29,35.01 C 35.29,34.76 35.26,34.54 35.19,34.33 A 1.12,1.12 0 0,0 34.85,33.83 A 0.87,0.87 0 0,0 34.27,33.63 A 0.89,0.89 0 0,0 33.69,33.83 C 33.54,33.95 33.42,34.12 33.35,34.33 C 33.27,34.53 33.24,34.76 33.24,35.01 C 33.24,35.26 33.27,35.49 33.34,35.7 C 33.42,35.9 33.54,36.07 33.69,36.2 A 0.9,0.9 0 0,0 34.27,36.39 Z M 38.48,38.5 C 38.18,38.5 37.92,38.48 37.7,38.4 C 37.48,38.32 37.3,38.21 37.17,38.08 A 1.35,1.35 0 0,1 36.86,37.64 L 37.5,37.37 C 37.54,37.45 37.6,37.53 37.68,37.61 C 37.75,37.69 37.86,37.76 37.98,37.82 C 38.12,37.88 38.28,37.92 38.49,37.92 C 38.77,37.92 39,37.84 39.19,37.7 C 39.37,37.56 39.47,37.34 39.47,37.04 V 36.24 H 39.42 C 39.37,36.32 39.31,36.41 39.22,36.51 C 39.14,36.61 39.02,36.71 38.88,36.78 C 38.73,36.85 38.54,36.88 38.31,36.88 C 38.01,36.88 37.74,36.82 37.49,36.68 A 1.52,1.52 0 0,1 36.92,36.03 C 36.78,35.75 36.72,35.4 36.72,34.98 C 36.72,34.57 36.78,34.21 36.92,33.92 C 37.06,33.62 37.25,33.39 37.49,33.24 C 37.73,33.08 38.01,33 38.32,33 C 38.55,33 38.74,33.04 38.89,33.12 C 39.04,33.2 39.15,33.29 39.23,33.4 L 39.43,33.68 H 39.48 V 33 H 40.21 V 37.07 C 40.21,37.4 40.13,37.67 39.98,37.89 C 39.83,38.11 39.62,38.27 39.36,38.37 C 39.1,38.47 38.81,38.5 38.48,38.5 Z M 38.48,36.26 C 38.68,36.26 38.87,36.21 39.02,36.11 C 39.17,36.01 39.28,35.86 39.36,35.66 C 39.43,35.47 39.47,35.24 39.47,34.97 C 39.47,34.71 39.43,34.47 39.36,34.27 C 39.28,34.08 39.17,33.92 39.02,33.81 A 0.87,0.87 0 0,0 38.47,33.64 A 0.87,0.87 0 0,0 37.92,33.82 C 37.77,33.94 37.65,34.1 37.58,34.3 C 37.5,34.5 37.46,34.72 37.46,34.97 C 37.46,35.23 37.5,35.45 37.58,35.64 A 1,1 0 0,0 37.92,36.1 C 38.07,36.2 38.25,36.26 38.47,36.26 Z M 41.2,37 V 33.25 H 42 V 37 H 41.2 Z M 41.58,32.9 A 0.47,0.47 0 0,1 41.25,32.77 A 0.43,0.43 0 0,1 41.11,32.45 C 41.11,32.33 41.16,32.22 41.25,32.13 C 41.34,32.04 41.45,32 41.58,32 S 41.82,32.04 41.91,32.13 C 42.01,32.23 42.05,32.33 42.05,32.45 C 42.05,32.58 42,32.68 41.91,32.77 C 41.82,32.87 41.71,32.91 41.58,32.91 Z M 44.6,37 C 44.22,37 43.9,36.94 43.62,36.78 C 43.35,36.61 43.14,36.38 43,36.08 A 2.4,2.4 0 0,1 42.78,35.02 C 42.78,34.62 42.85,34.27 43,33.97 C 43.14,33.67 43.35,33.43 43.61,33.25 A 1.84,1.84 0 0,1 45.17,33.1 A 1.51,1.51 0 0,1 46.1,34.06 C 46.19,34.3 46.24,34.6 46.24,34.96 V 35.23 H 43.2 V 34.66 H 45.5 C 45.5,34.46 45.47,34.28 45.39,34.13 A 0.91,0.91 0 0,0 44.55,33.63 C 44.34,33.63 44.15,33.68 44,33.78 C 43.85,33.88 43.73,34.02 43.64,34.18 C 43.56,34.35 43.52,34.53 43.52,34.73 V 35.17 C 43.52,35.43 43.56,35.65 43.65,35.84 A 0.98,0.98 0 0,0 44.6,36.4 C 44.74,36.4 44.87,36.38 44.99,36.34 C 45.11,36.29 45.21,36.24 45.29,36.14 A 0.82,0.82 0 0,0 45.49,35.84 L 46.19,35.97 C 46.13,36.18 46.03,36.37 45.89,36.53 C 45.74,36.68 45.56,36.81 45.34,36.9 C 45.12,36.98 44.87,37 44.6,37 Z M 49.93,34 L 49.25,34.12 A 0.82,0.82 0 0,0 49.12,33.87 A 0.67,0.67 0 0,0 48.87,33.67 A 0.87,0.87 0 0,0 48.49,33.6 A 0.91,0.91 0 0,0 47.96,33.74 C 47.82,33.84 47.75,33.96 47.75,34.11 C 47.75,34.24 47.8,34.35 47.89,34.43 C 47.99,34.51 48.14,34.57 48.35,34.63 L 48.95,34.76 C 49.31,34.85 49.57,34.97 49.75,35.15 C 49.91,35.32 50,35.55 50,35.82 C 50,36.05 49.93,36.26 49.8,36.44 A 1.3,1.3 0 0,1 49.25,36.87 A 2,2 0 0,1 48.44,37 A 1.8,1.8 0 0,1 47.39,36.75 A 1.18,1.18 0 0,1 46.89,35.95 L 47.61,35.83 C 47.66,36.03 47.75,36.17 47.89,36.27 C 48.03,36.37 48.21,36.41 48.43,36.41 A 1,1 0 0,0 49.02,36.26 C 49.16,36.16 49.24,36.03 49.24,35.88 A 0.4,0.4 0 0,0 49.1,35.57 A 0.87,0.87 0 0,0 48.7,35.38 L 48.05,35.24 A 1.54,1.54 0 0,1 47.25,34.84 A 0.97,0.97 0 0,1 47,34.15 A 1,1 0 0,1 47.2,33.55 C 47.32,33.38 47.5,33.25 47.72,33.15 C 47.94,33.05 48.19,33 48.48,33 C 48.89,33 49.22,33.09 49.46,33.27 C 49.69,33.45 49.85,33.7 49.93,34 Z"/>
</svg>
