<?xml version="1.0" encoding="UTF-8"?>
<!-- generated by Finnhub -->
<svg viewBox="0 0 55.5 55.5" xmlns="http://www.w3.org/2000/svg">
<path d="M 0,0 H 55.5 V 55.5 H 0 Z" fill="rgb(239, 242, 248)"/>
<path d="M 25.11,23.985 C 19.94,23.23 13.55,23.68 11,24 C 12.05,24 16.72,24.28 27.04,25.38 C 37.36,26.48 43.31,24.64 45,23.58 C 43.58,24 31.6,24.97 25.12,24 Z M 4.62,25.7 A 0.75,0.75 0 0,0 4,26.53 C 4,27.01 4.36,27.1 4.81,27.2 L 5.11,27.28 L 31.75,30.08 C 37.79,31.9 46.38,30.33 49.68,29.72 C 50.43,29.58 50.91,29.49 51.01,29.51 C 51.59,29.59 53.19,27.28 50.44,27.86 C 47.69,28.43 28.96,27.61 24.94,26.53 C 20.94,25.46 5.32,25.54 4.62,25.71 Z M 9.9,31.18 C 13.86,31.06 23.15,31.07 28.64,32.02 C 35.5,33.22 44.78,33.56 47,32.79 C 45.75,33.63 41.67,35.2 35.31,34.75 C 31.22,34.47 27.28,33.81 24.39,33.34 C 22.78,33.07 21.49,32.86 20.69,32.79 C 18.43,32.6 13.06,32.34 9.62,32.79 C 9.41,32.81 9,32.69 9,32.02 S 9.6,31.18 9.9,31.18 Z" fill="rgb(216, 230, 240)"/>
<path d="M 16.189999999999998,16.035 A 2.74,2.74 0 0,0 14,16.55 L 14.16,17.02 A 4.2,4.2 0 0,1 16.27,16.56 L 16.21,16.06 Z" fill="rgb(163, 125, 88)"/>
<path d="M 19.819999999999997,41.985 L 14.55,16.9 C 14.91,16.63 15.49,16.57 15.74,16.58 L 21.08,41.74 L 19.83,42 Z" fill="url(#a)"/>
<path d="M 19.31,31.455 A 29.54,29.54 0 0,0 16.77,19.6 C 19.25,22.24 20.82,28.48 21.29,31.2 C 20.72,31.24 19.75,31.4 19.32,31.47 Z" fill="rgb(174, 166, 162)"/>
<path d="M 21.61,22.015 C 20.82,19.5 17.99,19.47 16.77,19.62 C 19.33,22.72 20.87,28.65 21.29,31.2 C 22.9,31 24.85,31.3 25.62,31.47 L 21.62,22.03 Z" fill="rgb(239, 242, 248)"/>
<path d="M 22.99,22.575 L 21.65,22.14 L 25.61,31.49 C 25.95,31.56 26.19,32.08 26.31,32.35 C 26.68,33.35 28.58,33.53 29.39,33.48 L 23,22.6 Z" fill="rgb(174, 166, 162)"/>
<path d="M 33.67,22.395 A 65,65 0 0,1 22.98,22.57 L 29.38,33.45 H 32.3 C 33,33.82 34.23,33.7 35.72,33.79 C 36.92,33.86 39.92,33.34 41.28,33.08 C 39.57,31.86 36.48,25.81 35.16,22.98 C 34.79,22.59 34.02,22.45 33.68,22.41 Z" fill="rgb(239, 242, 248)"/>
<path d="M 32.260000000000005,27.205 L 32.64,33.51 C 33.15,33.93 35.64,33.83 36.82,33.73 L 32.27,27.22 Z M 38.03,25.33 L 35.1,22.87 C 37.2,28 40.07,31.96 41.16,33.16 H 41.96 L 38.03,25.33 Z" fill="rgb(174, 166, 162)"/>
<path d="M 39.52,25.085 L 38.09,25.36 L 41.83,33.14 H 42.23 L 39.53,25.1 Z" fill="rgb(239, 242, 248)"/>
<path d="M 16.27,16.544999999999998 C 15.94,16.87 14.95,17.14 14.16,17.02 C 14.35,16.8 14.99,16.45 16.28,16.56 Z" fill="rgb(80, 59, 32)"/>
<path d="M 29.689999999999998,24.285 C 29.03,24.3 27.96,24.44 27.51,24.51 C 27.81,24.87 28.65,26.47 28.81,26.97 C 28.98,27.47 28.67,27.49 28.07,27.49 C 27.62,27.49 26.21,27.15 25.57,26.97 L 26.35,29.21 A 5.9,5.9 0 0,1 28.21,28.51 C 28.77,28.51 29.11,28.51 29.35,29.21 C 29.53,29.78 29.42,31.24 29.35,31.9 H 31.67 C 31.21,31 30.29,29.17 30.27,29.02 C 30.25,28.83 30.14,28.43 30.83,28.5 C 31.39,28.56 32.83,29 33.48,29.2 L 32.83,26.97 C 32.2,27.19 30.83,27.63 30.42,27.65 A 0.7,0.7 0 0,1 29.7,26.97 V 24.3 Z M 20.71,19.63 C 20.06,17.4 17.22,17.26 15.88,17.47 L 16.77,19.63 C 20.23,19.31 21.47,21.17 21.64,22.14 C 22.97,23.15 30.27,22.77 33.75,22.46 C 35.67,22.68 36.72,24.46 37,25.33 C 37.43,25.52 38.9,25.25 39.6,25.09 L 38.97,22.46 C 38.32,23.02 36.61,23.11 35.84,23.09 A 3.8,3.8 0 0,0 31.35,20.29 C 24.61,21.3 21.45,20.27 20.71,19.63 Z" fill="rgb(47, 62, 90)"/>
<path d="M 25.529999999999998,31.425 C 23.93,30.84 20.72,31.19 19.32,31.44 V 33.78 C 23.64,32.78 26.97,33.97 27.15,34.78 C 27.3,35.44 28.34,35.65 28.84,35.68 C 29.84,35.68 32.14,35.73 33.34,35.94 C 34.84,36.2 37.08,36.16 39.94,35.68 C 42.22,35.29 43.16,35.32 43.34,35.38 C 43.49,35.92 43.84,35.8 44,35.68 C 43.62,34.93 42.74,33.4 42.24,33.22 A 5.2,5.2 0 0,0 40.26,33.22 C 36.31,34.09 33.32,33.73 32.32,33.45 C 29.35,33.71 26.57,33.11 26.42,32.37 C 26.3,31.77 25.79,31.5 25.54,31.44 Z" fill="rgb(47, 62, 90)"/>
<defs>
<linearGradient id="a" x1="19.95" x2="20.54" y1="38.95" y2="42" gradientUnits="userSpaceOnUse">
<stop stop-color="rgb(163, 125, 88)" offset="0"/>
<stop stop-color="rgb(233, 213, 192)" offset="1"/>
</linearGradient>
</defs>
</svg>
