<?xml version="1.0" encoding="UTF-8"?>
<!-- generated by Finnhub -->
<svg viewBox="0 0 55.5 55.5" xmlns="http://www.w3.org/2000/svg">
<path d="M 0,0 H 55.5 V 55.5 H 0 Z" fill="rgb(239, 242, 248)"/>
<path d="M 22.4,14.665 C 22.01,16.85 21.52,20.08 21.26,23.34 C 20.79,29.1 21.08,32.96 21.08,32.96 L 13.16,40.66 S 12.56,36.34 12.25,31.47 C 12.07,28.46 12,25.81 12,24.21 C 12,24.11 12.05,24.02 12.05,23.93 C 12.05,23.82 12.18,22.74 13.21,21.74 C 14.32,20.64 22.55,14.04 22.41,14.68 Z" fill="rgb(19, 149, 253)"/>
<path d="M 22.4,14.545 C 22.01,16.63 21.52,19.71 21.26,22.83 C 21.26,22.83 12.49,21.81 12,23.88 C 12,23.77 12.16,22.5 13.18,21.54 C 14.3,20.5 22.55,13.94 22.41,14.56 Z" fill="rgb(17, 131, 232)"/>
<path d="M 11.99,23.365 V 23.86 C 12.1,23.49 12.26,23.22 12.58,22.81 A 3.42,3.42 0 0,1 14.78,21.74 C 17,21.46 20.28,21.13 23.58,21.04 C 29.43,20.87 33.83,21.38 33.83,21.38 L 41.5,13.97 S 37.2,13.21 32.3,12.67 C 29.09,12.29 26.27,12.09 24.67,12.01 C 24.56,12.01 23.42,11.88 22.36,12.84 L 12.97,21.26 C 11.91,22.22 12,23.29 12,23.38 Z" fill="rgb(179, 219, 2)"/>
<path d="M 41.190000000000005,34.235 C 38.98,34.53 35.7,34.88 32.4,34.99 C 26.54,35.16 22.03,34.57 22.03,34.57 L 14.45,42.06 A 136.87,136.87 0 0,0 30.98,43.97 C 31.1,43.97 31.28,43.88 31.4,43.88 C 31.51,43.88 32.65,43.68 33.71,42.73 C 34.87,41.69 41.85,34.18 41.21,34.25 Z" fill="rgb(110, 44, 166)"/>
<path d="M 41.29,34.235 A 90.4,90.4 0 0,1 32.84,34.99 S 33.44,43.58 31.34,43.95 C 31.44,43.95 32.89,43.88 33.91,42.93 C 35.02,41.88 41.93,34.18 41.31,34.25 Z" fill="rgb(88, 30, 143)"/>
<path d="M 31.79,43.985 C 31.64,44 31.49,43.97 31.3,43.97 C 31.7,43.9 31.98,43.77 32.4,43.45 C 33.24,42.83 33.5,41.75 33.6,41.32 C 33.98,39.15 34.49,35.92 34.73,32.66 C 35.18,26.9 34.91,23.06 34.91,23.06 L 42.8,15.34 S 43.38,19.64 43.7,24.5 C 43.9,27.68 43.98,30.49 44,32.04 C 44,32.16 44.09,33.28 43.06,34.28 C 41.96,35.38 36.31,40.91 34.06,43.13 C 33,44.13 31.91,43.99 31.8,43.99 Z" fill="rgb(114, 189, 38)"/>
</svg>
