<?xml version="1.0" encoding="UTF-8"?>
<!-- generated by Finnhub -->
<svg viewBox="0 0 55.5 55.5" xmlns="http://www.w3.org/2000/svg">
<path d="M 0,0 H 55.5 V 55.5 H 0 Z" fill="rgb(236, 1, 138)"/>
<path d="M 39.99,26.985 H 34 V 33 H 40 V 27 Z M 22,27 H 16 V 33 H 22 V 27 Z" fill="rgb(254, 254, 253)"/>
<path d="M 29.99,13.985 H 30.87 C 35.504,14 37.098,16.213 38,23 H 40 V 12 H 16 V 23 H 18 C 18.24,20.455 18.378,18.87 19,17.5 C 20.1,14.954 21.926,14 24.748,14 H 26 V 37.5 C 26,39.98 25.608,40.763 25.035,41.35 C 24.556,41.807 23.599,42.003 22.499,42.003 H 21 V 44 H 35 V 42.003 H 33.4 C 32.306,42.003 31.342,41.807 30.87,41.351 C 30.297,40.763 30,39.98 30,37.5 V 14 Z" fill="rgb(254, 254, 253)"/>
</svg>
