<?xml version="1.0" encoding="UTF-8"?>
<!-- generated by Finnhub -->
<svg viewBox="0 0 55.5 55.5" xmlns="http://www.w3.org/2000/svg">
<path d="M 0,0 H 55.5 V 55.5 H 0 Z" fill="rgb(239, 242, 248)"/>
<path d="M 12.99,22.985 H 16.86 C 19.84,23 22,25.05 22,27.97 C 22,30.9 19.84,33 16.86,33 H 13 V 23 Z M 17.02,26 H 16 V 30 H 17.02 C 18.12,30 19,29.25 19,28.04 S 18.12,26 17.02,26 Z M 30,28.5 L 26,23 H 23 V 33 H 26 V 27.75 L 30,33 H 33 V 23 H 30 V 28.5 Z M 34,28.02 A 4.96,4.96 0 0,1 39.02,23 A 4.88,4.88 0 0,1 44,27.98 A 4.95,4.95 0 0,1 38.98,33 A 4.88,4.88 0 0,1 34,28.02 Z M 37,27.99 C 37,29.03 37.86,30 38.93,30 C 40.23,30 41,29.08 41,28 S 40.1,26 39.02,26 S 37,26.9 37,28 Z" fill="rgb(1, 81, 134)"/>
<path d="M 8.99,21.985 C 12.25,20.4 20.53,19 28,19 C 35.47,19 43.44,20.4 47.06,22 V 33.94 C 42.42,35.7 35.46,37 28,37 C 20.53,37 13.62,35.87 9,33.94 V 22 Z M 48.56,20.4 C 44,18.44 35.86,17 28,17 C 20.14,17 11.87,18.44 7.5,20.4 L 7,20.54 V 35.38 L 7.5,35.53 C 11.75,37.37 19.88,39 28,39 C 35.83,39 43.75,37.46 48.56,35.54 L 49,35.38 V 20.54 L 48.56,20.4 Z" fill="rgb(237, 48, 34)"/>
</svg>
