<?xml version="1.0" encoding="UTF-8"?>
<!-- generated by Finnhub -->
<svg viewBox="0 0 55.5 55.5" xmlns="http://www.w3.org/2000/svg">
<path d="M 0,0 H 55.5 V 55.5 H 0 Z" fill="url(#a)"/>
<path d="M 44.730000000000004,27.185 V 25 H 39 V 25.32 H 40 V 31.68 H 39 V 32 H 44.74 V 29.8 H 44.44 L 44.2,30.53 C 44,31.13 43.7,31.5 43.3,31.63 C 43.16,31.67 43.02,31.68 42.86,31.68 H 41.43 V 28.57 H 43.67 V 28.22 H 41.43 V 25.32 H 42.86 C 43.46,25.32 43.88,25.62 44.13,26.25 L 44.22,26.47 L 44.44,27.19 H 44.74 Z M 38.48,30.04 C 38.48,29.4 38.12,28.86 37.41,28.42 C 37.31,28.36 36.91,28.16 36.19,27.82 C 35.55,27.49 35.14,27.17 34.99,26.86 A 1.12,1.12 0 0,1 34.86,26.36 C 34.86,25.9 35.08,25.59 35.52,25.43 C 35.69,25.36 35.87,25.33 36.07,25.33 A 1.62,1.62 0 0,1 37.79,27 H 38.19 V 25.05 C 37.99,25.05 37.86,25.12 37.83,25.26 L 37.82,25.44 C 37.22,25.14 36.59,25 35.9,25 C 35.03,25 34.36,25.23 33.9,25.7 C 33.6,26 33.45,26.37 33.45,26.8 C 33.45,27.43 33.8,27.96 34.51,28.39 A 83,83 0 0,0 35.75,29.01 C 36.42,29.33 36.83,29.65 36.98,29.97 C 37.07,30.13 37.11,30.29 37.11,30.47 C 37.11,30.99 36.86,31.35 36.38,31.55 C 36.18,31.63 35.96,31.67 35.72,31.67 C 34.82,31.67 34.23,31.23 33.95,30.35 A 3.8,3.8 0 0,1 33.8,29.54 H 33.4 V 31.91 C 33.58,31.91 33.7,31.85 33.73,31.74 C 33.75,31.67 33.76,31.57 33.76,31.42 C 34.34,31.81 35.03,32 35.82,32 C 36.75,32 37.46,31.76 37.96,31.28 C 38.3,30.94 38.48,30.52 38.48,30.04 Z M 25,32 C 24.93,31.8 24.83,31.7 24.7,31.68 H 23.71 V 25.32 H 24.06 C 24.62,25.32 25.02,25.6 25.26,26.18 L 25.36,26.47 L 25.66,27.44 H 26 V 25 H 20 V 27.44 H 20.35 L 20.65,26.47 C 20.83,25.87 21.13,25.5 21.54,25.37 C 21.66,25.33 21.8,25.32 21.95,25.32 H 22.29 V 31.68 H 21 V 32 H 25 Z M 20,32 C 20,31.82 19.95,31.72 19.85,31.7 A 0.5,0.5 0 0,0 19.72,31.68 H 19.38 L 16.81,25 H 16.13 L 13.7,31.68 H 13 V 32 H 15 C 15,31.82 14.95,31.72 14.85,31.7 A 0.58,0.58 0 0,0 14.73,31.68 H 14.14 L 14.76,30 H 17.36 L 18,31.68 H 17.24 V 32 H 20 Z M 17.23,29.64 H 14.88 L 16.05,26.36 L 17.23,29.64 Z M 33,32 C 33,31.82 32.95,31.72 32.85,31.7 A 0.5,0.5 0 0,0 32.73,31.68 H 32.38 L 29.81,25 H 29.13 L 26.71,31.68 H 26 V 32 H 28 C 28,31.82 27.94,31.72 27.84,31.7 A 0.58,0.58 0 0,0 27.72,31.68 H 27.14 L 27.74,30 H 30.34 L 30.99,31.68 H 30.23 V 32 H 33 Z M 30.23,29.64 H 27.88 L 29.05,26.36 L 30.23,29.64 Z M 52,32 C 52,31.82 51.95,31.72 51.85,31.7 A 0.5,0.5 0 0,0 51.72,31.68 H 51.38 L 48.81,25 H 48.13 L 45.7,31.68 H 45 V 32 H 47 C 47,31.82 46.95,31.72 46.85,31.7 A 0.58,0.58 0 0,0 46.73,31.68 H 46.14 L 46.76,30 H 49.36 L 50,31.68 H 49.24 V 32 H 52 Z M 49.23,29.64 H 46.88 L 48.05,26.36 L 49.23,29.64 Z" fill="rgb(254, 254, 253)"/>
<path d="M 3.99,22.985 V 23.4 H 5 V 31.6 H 4 V 32 H 8.33 C 9.69,32 10.81,31.58 11.69,30.74 C 12.56,29.91 12.99,28.84 12.99,27.52 C 12.99,25.84 12.38,24.59 11.14,23.78 A 5.08,5.08 0 0,0 8.31,23 H 4 Z M 8.33,23.4 C 9.53,23.4 10.36,24 10.73,25.18 C 10.91,25.78 11,26.54 11,27.45 C 11,29.75 10.38,31.08 9.22,31.46 C 8.95,31.55 8.66,31.59 8.32,31.59 H 7 V 23.41 H 8.33 Z" fill="rgb(59, 163, 206)"/>
<path d="M 3.99,23.384999999999998 V 23 H 8.31 C 9.39,23 10.34,23.26 11.14,23.78 C 12.38,24.59 13,25.78 13,27.45 L 11,27.46 C 11,26.54 10.91,25.77 10.73,25.17 A 2.32,2.32 0 0,0 8.33,23.4 H 7 V 27.49 L 5,27.5 V 23.4 H 4 Z" fill="rgb(242, 152, 45)"/>
<defs>
<linearGradient id="a" x1="10.42" x2="68.15" y1="9.71" y2="76.02" gradientUnits="userSpaceOnUse">
<stop stop-color="rgb(25, 29, 31)" offset="0"/>
<stop stop-color="rgb(5, 5, 8)" offset="1"/>
</linearGradient>
</defs>
</svg>
