<?xml version="1.0" encoding="UTF-8"?>
<!-- generated by Finnhub -->
<svg viewBox="0 0 55.5 55.5" xmlns="http://www.w3.org/2000/svg">
<path d="M 0,0 H 55.5 V 55.5 H 0 Z" fill="rgb(239, 242, 248)"/>
<path d="M 7.58,26.285 V 24.05 C 7.59,24.02 7.6,24 7.63,24 H 9.51 A 0.05,0.05 0 0,1 9.55,24.03 V 30.88 C 9.55,30.91 9.51,31 9.49,31 H 7.77 C 7.74,31 7.73,30.98 7.73,30.95 V 30.31 C 7.73,30.25 7.71,30.24 7.67,30.29 C 7.24,30.79 6.67,31.03 5.99,30.99 C 4.16,30.91 3.73,28.74 4.15,27.32 C 4.59,25.79 6.34,25.43 7.55,26.32 C 7.57,26.35 7.59,26.34 7.59,26.3 Z M 7.52,27.78 C 7.26,26.94 6.2,26.92 6.01,27.79 C 5.9,28.28 5.88,29.07 6.22,29.46 C 6.47,29.76 6.91,29.79 7.22,29.54 C 7.64,29.2 7.67,28.27 7.52,27.78 Z" fill="rgb(83, 140, 210)"/>
<path d="M 48.49,26.645 V 26.67 A 0.03,0.03 0 0,0 48.54,26.68 H 48.55 C 49.43,25.8 51.35,25.59 51.86,27 C 51.95,27.22 52,27.6 52,28.13 V 30.95 C 52,30.98 51.98,31 51.95,31 H 50.07 C 50.04,31 50,30.99 50,30.96 V 28.36 C 50,27.94 49.94,27.55 49.4,27.49 C 48.7,27.43 48.5,28.05 48.5,28.64 V 30.95 C 48.5,30.98 48.49,31 48.46,31 H 46.56 C 46.52,31 46.5,30.98 46.5,30.94 V 24.04 L 46.51,24.01 L 46.55,24 H 48.41 C 48.48,24 48.51,24.03 48.51,24.1 V 26.66 Z M 30,25.92 V 25.04 C 30,25 30.01,24.97 30.05,24.96 L 31.93,24.01 C 31.98,23.99 32,24.01 32,24.05 V 25.95 C 32,25.98 32.02,26 32.06,26 H 32.9 C 32.95,26 33,26.05 33,26.1 V 27.34 C 33,27.37 32.95,27.39 32.92,27.39 H 32.05 C 32.02,27.39 32,27.4 32,27.43 V 29.26 C 32,29.86 32.46,29.7 32.84,29.59 C 32.88,29.59 32.9,29.59 32.91,29.64 L 33.03,30.79 C 33.03,30.82 33.03,30.84 32.99,30.85 C 32.29,31.01 31.64,31.05 31.05,30.95 C 30.32,30.83 30,30.35 30,29.6 V 27.48 C 30,27.43 29.94,27.38 29.9,27.38 H 29.3 C 29.27,27.38 29.25,27.37 29.25,27.33 V 26.06 C 29.25,26.02 29.27,26 29.31,26 H 29.91 C 29.96,26 30,25.96 30,25.92 Z"/>
<path d="M 22.919999999999998,27.955 C 23.73,31.7 17.1,32.07 17,28.62 C 16.94,26.47 19.11,25.67 21.05,26.13 C 22.05,26.37 22.74,27.04 22.93,27.97 Z M 20.5,27.4 C 19.09,26.67 18.63,28.71 19.32,29.45 A 0.94,0.94 0 0,0 20.76,29.35 C 21.08,28.88 21.09,27.71 20.5,27.4 Z M 27,29.6 C 27.14,28.74 23.27,29.44 23.54,27.36 C 23.71,26.12 25.22,25.99 26.26,26.01 C 27.38,26.03 28.21,26.21 28.66,27.21 A 0.03,0.03 0 0,1 28.66,27.24 L 28.65,27.25 H 28.64 L 26.87,27.43 C 26.84,27.43 26.81,27.42 26.8,27.39 C 26.5,27.01 26.1,26.89 25.6,27.05 C 25.19,27.18 25.28,27.6 25.7,27.68 C 26.56,27.83 27.55,27.85 28.22,28.26 C 29.14,28.8 28.97,30.02 28.14,30.55 C 27.26,31.1 25.74,31.07 24.77,30.87 A 1.78,1.78 0 0,1 23.33,29.6 V 29.58 L 23.36,29.56 H 23.38 L 25.24,29.39 A 0.1,0.1 0 0,1 25.3,29.4 L 25.34,29.45 C 25.44,29.76 25.68,29.95 26.03,30 C 26.34,30.05 26.94,29.97 27,29.6 Z" fill="rgb(83, 140, 210)"/>
<path d="M 34.64,30.485 C 33.35,29.59 33.35,27.43 34.66,26.52 C 35.46,25.96 36.68,25.91 37.62,26.12 C 39.06,26.43 39.59,27.65 39.5,28.96 C 39.5,28.99 39.49,29 39.46,29 H 35.7 C 35.68,29 35.66,29.05 35.66,29.07 C 35.74,30.02 36.91,30.17 37.47,29.51 A 0.08,0.08 0 0,1 37.55,29.48 L 39.34,29.64 H 39.35 A 0.04,0.04 0 0,1 39.37,29.68 V 29.7 A 2.42,2.42 0 0,1 37.71,30.89 C 36.79,31.09 35.41,31.05 34.65,30.51 Z M 36.28,27.31 A 0.77,0.77 0 0,0 35.66,27.95 C 35.66,27.98 35.67,28 35.7,28 H 37.5 C 37.53,28 37.56,27.97 37.55,27.94 C 37.38,27.32 36.95,27.14 36.28,27.31 Z M 40.07,27.94 C 40.4,26.48 41.69,25.96 43.17,26.01 C 44.44,26.04 45.41,26.35 45.91,27.54 A 0.05,0.05 0 0,1 45.91,27.59 L 45.88,27.61 L 45.86,27.62 L 44.11,27.87 C 44.07,27.87 44.04,27.87 44.03,27.83 C 43.63,26.87 42.27,27.17 42.06,28.1 C 41.89,28.8 42.09,29.74 43.06,29.73 C 43.59,29.73 43.96,29.45 44.1,28.98 C 44.11,28.95 44.13,28.94 44.16,28.94 L 45.96,29.11 C 45.99,29.11 46.01,29.13 46,29.16 C 45.56,30.71 44.12,31.12 42.6,30.97 C 41.3,30.85 40.31,30.32 40.05,29.08 C 39.98,28.71 39.98,28.33 40.07,27.94 Z"/>
<path d="M 14.07,30.165 C 13.52,30.81 12.83,31.08 12.02,30.98 C 10.74,30.83 10.51,29.95 10.5,28.88 V 26.05 C 10.5,26.02 10.52,26 10.56,26 H 12.47 C 12.51,26 12.52,26.02 12.52,26.05 V 28.89 C 12.52,29.27 12.87,29.57 13.26,29.54 C 13.83,29.49 13.99,29.01 14,28.52 V 26.05 C 14,26.02 14.02,26 14.05,26 H 15.95 C 15.98,26 16,26.02 16,26.05 V 30.95 C 16,30.98 15.98,31 15.95,31 H 14.2 C 14.17,31 14.16,30.94 14.16,30.92 V 30.21 C 14.16,30.14 14.14,30.13 14.09,30.18 Z" fill="rgb(83, 140, 210)"/>
</svg>
