<?xml version="1.0" encoding="UTF-8"?>
<!-- generated by Finnhub -->
<svg viewBox="0 0 55.5 55.5" xmlns="http://www.w3.org/2000/svg">
<path d="M 0,0 H 55.5 V 55.5 H 0 Z" fill="rgb(239, 242, 248)"/>
<path d="M 3.99,32.985 A 5,5 0 0,0 4,23 V 24 A 4,4 0 0,1 4,32 V 33 Z M 20,28 A 5,5 0 1,1 10,28 A 5,5 0 0,1 20,28 Z M 19,28 A 4,4 0 1,1 11,28 A 4,4 0 0,1 19,28 Z M 38.13,32.63 L 39.79,28.53 A 4.33,4.33 0 0,1 41.6,28 C 42.22,28 42.83,28.28 43.2,28.5 L 44.87,32.63 A 0.58,0.58 0 1,0 45.96,32.2 L 42.52,23.69 A 1.1,1.1 0 0,0 40.48,23.69 L 37.04,32.19 A 0.58,0.58 0 0,0 38.13,32.63 Z M 41.6,27 C 41.98,27 42.34,27.07 42.67,27.18 L 41.5,24.28 L 40.3,27.24 C 40.72,27.1 41.17,27 41.6,27 Z M 20.2,23 H 19 L 22.81,33 H 24 L 20.19,23 Z M 45.06,25.44 C 45.52,25.64 46.69,26 47.69,26 C 48.66,26 49.62,25.64 49.96,25.47 L 50.86,23.36 A 0.6,0.6 0 0,1 51.41,23 C 51.84,23 52.13,23.41 51.97,23.79 L 47.35,34.64 A 0.6,0.6 0 0,1 46.8,35 C 46.38,35 46.09,34.59 46.25,34.21 L 46.86,32.76 L 43.06,23.79 C 42.9,23.41 43.18,23 43.61,23 A 0.6,0.6 0 0,1 44.16,23.36 L 45.06,25.46 V 25.44 Z M 47.51,31.24 L 49.43,26.72 A 6.72,6.72 0 0,1 45.56,26.65 L 47.51,31.25 Z M 27,23 H 28.43 L 29.15,25.04 L 29.73,23.59 A 0.94,0.94 0 0,1 31.47,23.59 L 34.63,31.46 L 37.88,23.36 A 0.58,0.58 0 1,1 38.96,23.8 L 35.5,32.4 A 0.94,0.94 0 0,1 33.76,32.4 L 30.6,24.54 L 29.74,26.69 L 32,33 H 30.57 L 29,28.56 L 27.5,32.31 A 1.1,1.1 0 0,1 25.47,32.31 L 22.05,23.81 A 0.58,0.58 0 1,1 23.13,23.37 L 26.48,31.71 L 28.41,26.91 L 27,23 Z" fill="rgb(230, 25, 25)" fill-rule="evenodd"/>
</svg>
