<?xml version="1.0" encoding="UTF-8"?>
<!-- generated by Finnhub -->
<svg viewBox="0 0 55.5 55.5" xmlns="http://www.w3.org/2000/svg">
<path d="M 0,0 H 55.5 V 55.5 H 0 Z" fill="rgb(2, 68, 106)"/>
<path d="M 15.39,19.995 L 15.29,20 H 9 V 36 H 15.4 C 19.8,35.86 22,33.21 22,28.03 C 22,22.84 19.78,20.05 15.4,20.01 Z M 16.76,33.24 C 16.36,34.18 15.56,35 14.56,35 H 13 V 21 H 14.55 C 15.54,21 16.38,21.86 16.77,22.78 C 17.17,23.73 17.38,25.48 17.38,28 C 17.38,30.52 17.18,32.29 16.76,33.24 Z M 43.02,20 H 36 V 36 H 41 V 29 H 42.55 C 46.84,28.96 49,27.82 49,24.7 C 49,21.59 47,20 43.02,20 Z M 42.55,27.9 C 42.31,27.95 42.05,28 41.77,28 H 41 V 21 H 41.77 C 42.05,21 42.31,21.02 42.55,21.08 C 43.74,21.36 44.36,22.88 44.36,24.63 C 44.36,26.5 43.74,27.58 42.55,27.89 Z" fill="rgb(254, 254, 253)"/>
<path d="M 38.99,13.985 L 30.58,26.15 L 35.14,36 H 29.56 L 27.03,30.45 L 19,41 L 17,40.95 L 26.23,28.76 L 21.97,20 H 27.57 L 29.77,24.45 L 37,14 H 39 Z" fill="rgb(254, 254, 253)"/>
</svg>
