<?xml version="1.0" encoding="UTF-8"?>
<!-- generated by Finnhub -->
<svg viewBox="0 0 55.5 55.5" xmlns="http://www.w3.org/2000/svg">
<path d="M 0,0 H 55.5 V 55.5 H 0 Z" fill="rgb(239, 242, 248)"/>
<path d="M 16.43,18.985 C 14.51,19 12.6,19.86 11,21.1 V 28.42 C 11,28.8 10.85,29 10.5,29 S 10,28.76 10,28.42 V 20.53 A 9.53,9.53 0 0,1 16.44,18 C 21.87,18 25.23,21.88 28.47,25.63 L 28.81,26.03 C 28.95,26.18 29.01,26.29 29,26.5 C 29,26.8 28.78,27 28.49,27 C 28.29,27 28.14,26.88 27.99,26.72 L 26.89,25.49 C 24.1,22.39 21.09,19 16.44,19 Z M 16.82,22 C 15.99,22 14.77,22.13 14,22.84 V 28.49 C 14,28.84 13.75,29 13.5,29 S 13,28.84 13,28.5 V 22.4 C 13.9,21.44 15.46,21 16.82,21 C 19.91,21 22.85,23.78 24.79,26.04 C 24.92,26.17 25,26.34 25,26.48 C 25,26.78 24.79,26.99 24.5,26.99 A 0.59,0.59 0 0,1 24.05,26.79 C 22.5,24.9 19.44,22 16.82,22 Z M 45,34.9 A 9.16,9.16 0 0,1 39.56,37 C 34.91,37 31.88,33.62 29.11,30.51 L 28,29.28 C 27.85,29.12 27.7,29 27.51,29 C 27.21,29 27.01,29.2 27,29.5 C 27,29.7 27.05,29.82 27.18,29.97 L 27.53,30.37 C 30.77,34.12 34.13,38 39.56,38 C 42.02,38 44.13,37.1 46,35.47 V 27.57 C 46,27.24 45.84,27 45.5,27 C 45.15,27 45,27.2 45,27.58 V 34.91 Z M 39.18,34 C 40.01,34 41.23,33.87 42,33.16 V 27.5 C 42,27.15 42.25,26.99 42.5,26.99 C 42.74,26.99 43,27.15 43,27.49 V 33.59 C 42.09,34.55 40.54,34.99 39.18,34.99 C 36.08,34.99 33.14,32.21 31.21,29.95 A 0.66,0.66 0 0,1 31,29.51 C 31,29.21 31.2,29 31.5,29 C 31.64,29 31.82,29.06 31.95,29.2 C 33.5,31.1 36.55,34 39.18,34 Z" fill="rgb(1, 76, 148)"/>
<path d="M 39.14,17.985 C 36.24,18 33.79,19.67 31.96,21.24 A 21.6,21.6 0 0,0 29.1,24.18 A 0.59,0.59 0 0,0 29,24.52 C 29,24.68 29.07,24.81 29.2,24.9 C 29.3,24.97 29.4,25 29.51,25 C 29.67,25 29.84,24.91 29.94,24.78 C 30.72,23.78 31.69,22.78 32.61,22 C 34.38,20.48 36.6,19 39.15,19 C 41.22,19 43.42,19.96 45.14,21.2 C 45.39,21.38 45.67,21.38 45.87,21.14 C 45.95,21.04 46,20.92 46,20.8 A 0.44,0.44 0 0,0 45.82,20.46 C 43.95,19.06 41.47,18 39.15,18 Z M 33.13,24.22 C 35,22.56 37.07,21 39.56,21 C 41.07,21 42.5,21.62 43.72,22.5 C 43.83,22.59 44,22.73 44,22.92 A 0.5,0.5 0 0,1 43.9,23.24 C 43.74,23.48 43.44,23.54 43.13,23.33 A 6.45,6.45 0 0,0 39.56,22 C 37.49,22 35.67,23.3 33.8,24.97 A 54.3,54.3 0 0,0 29.91,28.81 A 0.56,0.56 0 0,1 29.51,29 A 0.5,0.5 0 0,1 29.17,28.88 A 0.52,0.52 0 0,1 29,28.49 C 29,28.37 29.05,28.22 29.13,28.13 A 54.86,54.86 0 0,1 33.13,24.23 Z M 16.43,35 C 18.93,35 20.99,33.44 22.86,31.78 A 54.86,54.86 0 0,0 26.86,27.87 A 0.56,0.56 0 0,0 27,27.51 A 0.52,0.52 0 0,0 26.83,27.12 A 0.5,0.5 0 0,0 26.48,27 C 26.34,27 26.18,27.08 26.08,27.19 A 54.25,54.25 0 0,1 22.2,31.03 C 20.32,32.7 18.5,34 16.44,34 C 15.14,34 13.92,33.4 12.87,32.67 C 12.56,32.46 12.27,32.52 12.09,32.77 A 0.5,0.5 0 0,0 12,33.07 C 12,33.27 12.17,33.41 12.28,33.5 A 7.17,7.17 0 0,0 16.44,35 Z M 16.85,38 C 19.76,38 22.2,36.33 24.04,34.76 C 25.02,33.92 26.07,32.87 26.9,31.82 C 26.97,31.73 27,31.59 27,31.48 C 27,31.32 26.93,31.19 26.8,31.1 A 0.5,0.5 0 0,0 26.48,31 A 0.56,0.56 0 0,0 26.06,31.22 C 25.28,32.22 24.31,33.22 23.39,34 C 21.62,35.52 19.4,37 16.85,37 C 14.78,37 12.57,36.04 10.85,34.8 C 10.61,34.62 10.32,34.62 10.13,34.86 A 0.51,0.51 0 0,0 10,35.2 C 10,35.33 10.07,35.46 10.18,35.54 C 12.05,36.94 14.52,38 16.85,38 Z" fill="rgb(153, 153, 153)"/>
</svg>
