<?xml version="1.0" encoding="UTF-8"?>
<!-- generated by Finnhub -->
<svg viewBox="0 0 55.5 55.5" xmlns="http://www.w3.org/2000/svg">
<path d="M 0,0 H 55.5 V 55.5 H 0 Z" fill="rgb(239, 242, 248)"/>
<path d="M 24.775,16.488 L 20.325,21 H 33.52 C 34.5,21 35.163,21.511 35.5,22.08 C 35.895,22.761 35.958,23.302 36,25.635 L 35.956,27.819 L 45,18.575 C 44.702,15.348 42.522,13.062 39.457,12.205 C 38.921,12.057 38.773,12.05 34.083,12.028 L 29.258,12 L 24.785,16.503 Z M 15.5,25.746 L 11,30.179 V 43 H 20.758 L 29.831,34 H 20 L 20.007,21.313 L 15.5,25.746 Z" fill="rgb(14, 105, 174)"/>
<path d="M 30.317999999999998,42.985 H 21.972 L 45.035,20 L 45,28.074 L 30.328,43 Z" fill="rgb(123, 193, 67)"/>
</svg>
