<?xml version="1.0" encoding="UTF-8"?>
<!-- generated by Finnhub -->
<svg viewBox="0 0 55.5 55.5" xmlns="http://www.w3.org/2000/svg">
<path d="M 0,0 H 55.5 V 55.5 H 0 Z" fill="rgb(239, 242, 248)"/>
<path d="M 32.09,14.985 H 29 V 24 H 32.1 A 3.2,3.2 0 0,0 35.3,20.8 V 18.2 A 3.2,3.2 0 0,0 32.1,15 Z M 31.5,16 H 30.3 V 23 H 31.5 A 2.5,2.5 0 0,0 34,20.5 V 18.5 A 2.5,2.5 0 0,0 31.5,16 Z M 13.1,15 H 10 V 24 H 13.1 A 3.2,3.2 0 0,0 16.3,20.8 V 18.2 A 3.2,3.2 0 0,0 13.1,15 Z M 12.5,16 H 11.3 V 23 H 12.5 A 2.5,2.5 0 0,0 15,20.5 V 18.5 A 2.5,2.5 0 0,0 12.5,16 Z" fill="rgb(29, 41, 69)" fill-rule="evenodd"/>
<path d="M 18.549999999999997,20.435 L 15.84,15 H 17.25 L 19.2,19.22 L 21.2,15 H 22.5 L 19.79,20.45 V 24 H 18.56 V 20.45 Z" fill="rgb(29, 41, 69)"/>
<path d="M 20.86,23.985 L 23.82,15 H 25.46 L 28.23,24 H 26.94 L 26.19,21.53 H 22.95 L 22.2,24 H 20.87 Z M 23.17,20.66 L 24.64,16.23 L 25.96,20.66 H 23.17 Z" fill="rgb(29, 41, 69)" fill-rule="evenodd"/>
<path d="M 35.99,15.024999999999999 H 37.3 V 24 H 36 Z M 38,18.26 A 3.22,3.22 0 0,1 44.39,17.68 H 42.99 A 1.85,1.85 0 0,0 39.3,17.85 V 21.15 A 1.85,1.85 0 1,0 43,21.15 V 21 H 44.43 A 3.22,3.22 0 0,1 38,20.78 V 18.26 Z" fill="rgb(29, 41, 69)"/>
<path d="M 9.99,24.985 H 46 V 28 H 34 V 45 H 31 V 28 H 25 V 45 H 22 V 28 H 10 V 25 Z" fill="rgb(124, 36, 31)"/>
</svg>
