<?xml version="1.0" encoding="UTF-8"?>
<!-- generated by Finnhub -->
<svg viewBox="0 0 55.5 55.5" xmlns="http://www.w3.org/2000/svg">
<path d="M 0,0 H 55.5 V 55.5 H 0 Z" fill="rgb(0, 53, 102)"/>
<path d="M 16.72,34.985 L 16.77,34.88 C 16.78,34.46 16.77,34.1 16.77,33.76 A 7.27,7.27 0 0,1 16.99,31.32 C 17.56,28.82 19.34,27.08 21.36,25.1 L 22.14,24.34 C 23.66,22.86 25.23,21.39 26.8,19.92 C 28.06,18.75 29.31,17.57 30.54,16.39 C 27.96,14.19 26.86,13.25 26.3,12.79 L 25.7,12.28 L 25.38,12 C 22.58,14.46 19.45,17.52 17.22,19.7 L 16.68,20.23 L 16.32,20.57 C 13.54,23.19 11.32,25.27 12.19,29.32 C 12.68,31.55 13.6,32.45 15.32,33.86 C 15.61,34.12 15.92,34.36 16.22,34.6 L 16.72,35 Z M 26.41,44 H 27.65 C 27.45,43.74 27.25,43.54 27.03,43.33 C 26.61,42.93 26.14,42.49 25.62,41.46 C 24.29,38.79 24.74,35.5 27.21,33.02 A 176.99,176.99 0 0,1 29.17,31.07 C 30.28,29.99 32.49,27.83 37.77,22.64 L 32.56,18 C 31.83,18.7 31.06,19.41 30.29,20.11 S 28.75,21.51 28.05,22.2 L 27.2,23.05 L 26.5,23.73 L 20.62,29.51 C 18.77,31.93 18.77,35.68 20.27,38.35 C 20.67,39.07 22.83,41.01 23.58,41.62 C 23.76,41.78 23.76,41.78 23.94,41.98 L 24.57,42.48 C 25.2,42.97 25.93,43.53 26.41,44 Z M 37.25,36.38 L 29.51,44 C 28.9,43.71 28.08,41.97 27.86,41.35 C 26.3,37.25 29.43,34.18 32.12,31.55 L 33.3,30.38 L 39.84,24 L 39.86,24.02 C 40.01,24.12 40.13,24.27 45,28.76 L 37.25,36.38 Z" fill="rgb(239, 242, 248)"/>
</svg>
