<?xml version="1.0" encoding="UTF-8"?>
<!-- generated by Finnhub -->
<svg viewBox="0 0 55.5 55.5" xmlns="http://www.w3.org/2000/svg">
<path d="M 0,0 H 55.5 V 55.5 H 0 Z" fill="rgb(239, 242, 248)"/>
<path d="M 35.120000000000005,36.615 C 28.96,35 22.41,36.63 22.41,36.63 C 29.38,38.11 35.13,36.63 35.13,36.63 Z M 36.83,32.24 C 29.25,30.24 22.39,32.24 22.39,32.24 C 31.06,34.09 36.84,32.24 36.84,32.24 Z M 38.63,27 C 31,25 22.78,27 22.78,27 C 32.12,29 38.63,27 38.63,27 Z M 42,29.07 C 38.1,29.08 33.42,29.78 33.42,29.78 S 38.14,30.53 42,30.53 V 33.96 C 37.48,33.96 32.78,34.56 32.78,34.56 S 37.35,35.06 41.99,35.06 V 41 L 14.01,41 V 39.4 C 20.6,39.4 24.75,38.36 24.75,38.36 S 20.61,37.36 14.01,37.36 V 35.78 C 23.02,35.78 27.03,34.3 27.03,34.3 S 23,33.07 14,33.07 V 31.09 C 26.39,31.16 30.08,29.52 30.08,29.52 S 26.38,28.2 14.01,28.19 V 15 L 41.99,15 V 24 C 38.32,24 33.79,24.72 33.79,24.72 S 38.29,25.44 41.99,25.44 L 42,29.07 Z" fill="rgb(1, 79, 145)"/>
</svg>
