<?xml version="1.0" encoding="UTF-8"?>
<!-- generated by Finnhub -->
<svg viewBox="0 0 55.5 55.5" xmlns="http://www.w3.org/2000/svg">
<path d="M 0,0 H 55.5 V 55.5 H 0 Z" fill="rgb(239, 242, 248)"/>
<path d="M 23.65,27.715 L 22.38,27.9 L 22.68,27 H 19.38 L 18.33,30 H 21.63 L 22.03,29.04 L 23.08,29.26 L 22.78,30.29 C 22.56,30.86 21.77,31 21.4,31 H 17.99 C 16.92,31 16.93,30.31 17.06,29.97 L 18.05,27.08 C 18.32,26.25 19.01,26.05 19.32,26.05 C 20.24,26.01 22.32,25.96 23.19,26.05 C 24.07,26.14 24.06,26.74 23.94,27.03 L 23.66,27.73 Z M 27,26 H 25.7 L 24,31 H 25.35 L 27,26 Z M 36.7,26 H 38 L 36.35,31 H 35 L 36.7,26 Z M 33.82,27.17 L 32.69,27.34 L 32.8,27 H 29.37 L 28.97,28 H 32.3 C 33.42,28 33.44,28.56 33.31,28.87 L 32.86,30.07 C 32.59,30.77 31.88,30.98 31.56,31 H 28.02 C 27.16,31 26.98,30.56 27,30.34 L 27.17,29.74 L 28.3,29.47 L 28.13,30 H 31.9 L 32.24,29 H 28.92 C 27.88,29 27.85,28.36 27.96,28.05 L 28.3,26.9 C 28.52,26.2 29.3,26.02 29.65,26.02 A 63.4,63.4 0 0,1 33.09,26.02 C 33.94,26.07 34.04,26.48 33.99,26.68 L 33.82,27.18 Z M 5.25,26 H 10 L 9.76,27 H 6 L 5.79,28 H 8 L 7.65,29 H 5.55 L 5.35,30 H 8.9 L 8.6,31 H 4 L 5.25,26 Z M 12.23,26 H 11.47 L 10,31 H 11.01 L 11.93,27.6 L 14.82,31 H 15.58 L 17,26 H 16.04 L 15.02,29.35 L 12.23,26 Z M 46.47,26 H 47.23 L 50.03,29.35 L 51.03,26 H 52 L 50.58,31 H 49.82 L 46.92,27.6 L 46.02,31 H 45 L 46.47,26 Z" fill="url(#b)"/>
<path d="M 43.99,27.825 C 42.88,28.04 41.5,28.84 40.88,29.25 A 6.36,6.36 0 0,1 43.88,27.51 C 43.93,27.61 43.97,27.73 44,27.84 Z M 44.08,28.5 C 43.37,28.46 41.9,28.8 39.91,30.35 A 2.5,2.5 0 0,0 44.09,28.5 Z M 39.72,30.17 A 2.5,2.5 0 0,1 43.43,26.82 A 10.1,10.1 0 0,0 39.72,30.17 Z" fill="url(#a)"/>
<defs>
<linearGradient id="b" x1="48.67" x2="48.67" y1="26.19" y2="30.58" gradientUnits="userSpaceOnUse">
<stop stop-color="rgb(123, 138, 61)" offset="0"/>
<stop stop-color="rgb(141, 157, 78)" offset=".45"/>
<stop stop-color="rgb(109, 124, 50)" offset="1"/>
</linearGradient>
<linearGradient id="a" x1="41.58" x2="41.58" y1="26" y2="31" gradientUnits="userSpaceOnUse">
<stop stop-color="rgb(231, 134, 26)" offset="0"/>
<stop stop-color="rgb(249, 211, 169)" offset=".42"/>
<stop stop-color="rgb(237, 142, 41)" offset="1"/>
</linearGradient>
</defs>
</svg>
