<?xml version="1.0" encoding="UTF-8"?>
<!-- generated by Finnhub -->
<svg viewBox="0 0 55.5 55.5" xmlns="http://www.w3.org/2000/svg">
<path d="M 0,0 H 55.5 V 55.5 H 0 Z" fill="rgb(239, 242, 248)"/>
<path d="M 24.99,22.985 H 14 A 1,1 0 1,0 14,25 H 25 A 1,1 0 1,0 25,23 Z M 14,22 A 2,2 0 1,0 14,26 H 25 A 2,2 0 1,0 25,22 H 14 Z" fill="rgb(128, 164, 122)" fill-rule="evenodd"/>
<path d="M 41.99,18.985 H 31 A 1,1 0 1,0 31,21 H 42 A 1,1 0 1,0 42,19 Z M 31,18 A 2,2 0 1,0 31,22 H 42 A 2,2 0 1,0 42,18 H 31 Z" fill="rgb(104, 165, 91)" fill-rule="evenodd"/>
<path d="M 24.99,28.985 H 14 A 1,1 0 1,0 14,31 H 25 A 1,1 0 1,0 25,29 Z M 14,28 A 2,2 0 1,0 14,32 H 25 A 2,2 0 1,0 25,28 H 14 Z" fill="rgb(128, 164, 122)" fill-rule="evenodd"/>
<path d="M 41.99,24.985 H 31 A 1,1 0 1,0 31,27 H 42 A 1,1 0 1,0 42,25 Z M 31,24 A 2,2 0 1,0 31,28 H 42 A 2,2 0 1,0 42,24 H 31 Z" fill="rgb(104, 165, 91)" fill-rule="evenodd"/>
<path d="M 24.99,34.985 H 14 A 1,1 0 1,0 14,37 H 25 A 1,1 0 1,0 25,35 Z M 14,34 A 2,2 0 1,0 14,38 H 25 A 2,2 0 1,0 25,34 H 14 Z" fill="rgb(128, 164, 122)" fill-rule="evenodd"/>
<path d="M 41.99,30.985 H 31 A 1,1 0 1,0 31,33 H 42 A 1,1 0 1,0 42,31 Z M 31,30 A 2,2 0 1,0 31,34 H 42 A 2,2 0 1,0 42,30 H 31 Z" fill="rgb(104, 165, 91)" fill-rule="evenodd"/>
</svg>
