<?xml version="1.0" encoding="UTF-8"?>
<!-- generated by Finnhub -->
<svg viewBox="0 0 55.5 55.5" xmlns="http://www.w3.org/2000/svg">
<path d="M 0,0 H 55.5 V 55.5 H 0 Z" fill="url(#a)"/>
<path d="M 23.509999999999998,25.985 C 22.29,26 21.4,26.37 20.84,27.11 A 4.82,4.82 0 0,0 20,30.1 C 20,30.73 20.08,31.29 20.23,31.77 A 3.17,3.17 0 0,0 20.93,33.03 C 21.53,33.68 22.46,34.01 23.71,34.01 A 5.7,5.7 0 0,0 25.37,33.74 C 25.95,33.56 26.25,33.32 26.25,33.01 C 26.25,32.85 26.16,32.64 25.99,32.36 C 25.81,32.09 25.66,31.96 25.51,31.96 L 24.91,32.16 C 24.53,32.31 23.95,32.39 23.53,32.39 C 22.53,32.39 22.07,31.69 22,30.74 C 21.97,29.52 22.06,27.54 23.53,27.54 C 24.57,27.54 24.91,28.56 25,29.46 L 24.36,29.51 L 23.18,29.58 L 22.98,29.6 L 22.89,29.61 A 0.35,0.35 0 0,0 22.57,29.94 A 0.41,0.41 0 0,0 22.96,30.38 L 24,30.45 C 24.44,30.48 25.85,30.51 26.28,30.55 L 27,29.35 C 27,28.31 26.72,27.81 26.13,27.09 C 25.54,26.37 24.67,26.01 23.51,26.01 Z M 7.52,26 C 6.29,26 5.4,26.37 4.84,27.1 A 4.82,4.82 0 0,0 4,30.1 C 4,30.73 4.08,31.29 4.23,31.77 A 3.16,3.16 0 0,0 4.93,33.02 C 5.53,33.68 6.46,34.01 7.71,34.01 A 5.7,5.7 0 0,0 9.37,33.74 C 9.95,33.56 10.25,33.31 10.25,33.01 C 10.25,32.85 10.16,32.63 9.99,32.36 C 9.81,32.08 9.66,31.95 9.51,31.95 L 8.91,32.16 A 4.5,4.5 0 0,1 7.53,32.39 C 6.53,32.39 6.07,31.69 6,30.74 C 5.97,29.52 6.06,27.54 7.53,27.54 C 8.57,27.54 8.91,28.56 9,29.46 L 8.36,29.5 L 7.18,29.58 L 6.98,29.6 H 6.9 A 0.35,0.35 0 0,0 6.58,29.93 A 0.41,0.41 0 0,0 6.97,30.37 L 8.01,30.45 C 8.45,30.48 9.86,30.51 10.29,30.54 L 11.01,29.34 C 11.01,28.31 10.73,27.8 10.14,27.09 C 9.54,26.36 8.67,26 7.51,26 Z M 31.55,26 A 7.84,7.84 0 0,0 28,26.85 V 34 H 28.94 S 30,34.03 30,33 V 27.79 C 30.5,27.69 30.73,27.65 31.18,27.65 C 32.2,27.65 33,27.95 33,29.07 V 34 H 33.93 S 35,34.03 35,33 V 29.23 C 35,27.19 33.52,26 31.55,26 Z M 39.5,32.46 C 38,32.46 37.7,31.33 37.7,30 S 38,27.53 39.5,27.53 C 41.01,27.53 41.29,28.67 41.29,30 C 41.29,31.32 41.01,32.46 39.5,32.46 Z M 39.5,26 C 38.28,26 37.34,26.34 36.69,27.03 C 36.04,27.73 35.71,28.71 35.71,30 C 35.71,31.28 36.04,32.27 36.69,32.96 C 37.34,33.66 38.28,34 39.49,34 C 40.72,34 41.65,33.65 42.31,32.96 C 42.96,32.27 43.28,31.29 43.28,30 S 42.96,27.72 42.31,27.03 C 41.65,26.34 40.71,26 39.5,26 Z M 48,26 C 47.32,26 46.62,26.09 45.92,26.25 C 45.23,26.4 44.77,26.52 44.54,26.6 L 44,26.81 V 34 H 44.82 S 46,34.03 46,33 V 27.97 C 46.57,27.81 47.2,27.73 48,27.72 V 26 Z M 17,31.53 C 17,32.1 16.57,32.38 15.6,32.38 C 14.12,32.38 14,30.95 14,29.76 C 14,28.49 14.36,27.46 15.79,27.46 A 5.64,5.64 0 0,1 17,27.6 V 31.53 Z M 17.9,23 H 17 V 26.11 A 6.96,6.96 0 0,0 15.72,26 C 14.52,26 13.6,26.33 12.96,27.01 C 12.32,27.69 12,28.58 12,29.86 C 12,30.56 12.1,31.18 12.28,31.72 C 12.46,32.25 12.68,32.66 12.95,32.94 C 13.21,33.21 13.52,33.44 13.87,33.62 A 3.36,3.36 0 0,0 15.6,34 C 16.75,34 17.6,33.74 18.16,33.22 S 19,32.08 19,31.35 V 24.01 C 19,22.97 17.9,23 17.9,23 Z" fill="rgb(254, 254, 253)"/>
<path d="M 50.9,23.145 A 2.5,2.5 0 0,1 47.49,24.79 A 1.98,1.98 0 1,0 50.91,23.16 Z" fill="rgb(254, 254, 253)" opacity=".5"/>
<path d="M 49.440000000000005,22.485 C 50.03,22.5 50.55,22.76 50.91,23.16 A 2.5,2.5 0 0,0 48.5,20 A 2.5,2.5 0 0,0 47.49,24.78 A 2,2 0 0,1 47.46,24.48 C 47.46,23.38 48.36,22.5 49.45,22.5 Z" fill="rgb(254, 254, 253)" opacity=".5"/>
<path d="M 50.9,23.145 A 1.99,1.99 0 0,0 47.46,24.49 L 47.49,24.79 A 2.5,2.5 0 0,0 50.92,23.16 Z" fill="rgb(254, 254, 253)"/>
<defs>
<linearGradient id="a" x1="56" x2="0" y1="28" y2="28" gradientUnits="userSpaceOnUse">
<stop stop-color="rgb(2, 229, 1)" offset="0"/>
<stop stop-color="rgb(51, 177, 163)" offset=".34"/>
<stop stop-color="rgb(65, 136, 224)" offset=".64"/>
<stop stop-color="rgb(29, 86, 140)" offset="1"/>
</linearGradient>
</defs>
</svg>
