<?xml version="1.0" encoding="UTF-8"?>
<!-- generated by Finnhub -->
<svg viewBox="0 0 55.5 55.5" xmlns="http://www.w3.org/2000/svg">
<path d="M 0,0 H 55.5 V 55.5 H 0 Z" fill="rgb(41, 104, 96)"/>
<path d="M 28.124,20.646 L 28.018,20.941 V 20.942 C 27.93,21.154 27.847,21.357 27.755,21.555 C 27.681,21.717 27.719,21.752 27.882,21.751 C 28.515,21.746 29.147,21.747 29.78,21.747 H 30.44 C 34.108,21.747 37.775,21.749 41.443,21.751 C 41.615,21.751 41.716,21.731 41.725,21.513 C 41.732,21.372 41.757,21.232 41.783,21.091 C 41.801,20.992 41.818,20.893 41.83,20.793 C 41.844,20.67 41.89,20.637 42.006,20.638 C 42.838,20.643 43.669,20.643 44.501,20.638 C 44.631,20.638 44.696,20.651 44.658,20.819 C 44.629,20.949 44.611,21.08 44.593,21.212 A 5.042,5.042 0 0,1 44.537,21.56 C 44.507,21.706 44.532,21.753 44.685,21.751 C 45.087,21.745 45.49,21.746 45.892,21.747 A 172.901,172.901 0 0,0 47.196,21.748 C 48.058,21.748 48.919,21.75 49.781,21.744 C 49.958,21.743 50.034,21.761 49.986,21.979 C 49.907,22.337 49.856,22.703 49.806,23.068 C 49.786,23.228 49.726,23.278 49.566,23.278 C 48.164,23.274 46.763,23.274 45.362,23.273 C 43.92,23.273 42.478,23.272 41.037,23.269 C 40.838,23.269 40.737,23.301 40.704,23.535 C 40.654,23.891 40.557,24.454 40.474,24.804 C 40.439,24.948 40.455,25.006 40.623,25.004 C 41.237,24.997 41.853,24.998 42.467,24.999 H 48.406 C 48.7,24.999 48.705,25.001 48.657,25.296 A 346.74,346.74 0 0,1 48.117,28.549 C 47.979,29.367 47.839,30.191 47.697,31.054 C 47.55,31.958 46.978,32.466 46.089,32.473 C 45.237,32.48 44.386,32.479 43.534,32.478 H 41.824 C 41.691,32.479 41.658,32.455 41.687,32.307 C 41.763,31.925 41.82,31.538 41.875,31.152 C 41.894,31.015 41.945,30.973 42.079,30.975 A 100.145,100.145 0 0,0 43.956,30.978 C 44.479,30.978 44.727,30.766 44.813,30.229 C 44.935,29.46 45.052,28.691 45.169,27.921 L 45.239,27.458 C 45.275,27.224 45.301,27.103 45.338,26.931 L 45.384,26.711 C 45.421,26.533 45.358,26.516 45.218,26.516 C 44.47,26.519 43.722,26.519 42.974,26.518 H 41.715 C 41.241,26.519 40.767,26.52 40.293,26.515 C 40.157,26.514 40.099,26.548 40.067,26.698 C 39.857,27.663 39.646,28.573 39.434,29.483 C 39.224,30.383 39.014,31.282 38.807,32.235 C 38.769,32.413 38.713,32.483 38.521,32.482 A 486.36,486.36 0 0,0 33.34,32.481 C 33.166,32.481 33.116,32.419 33.086,32.253 A 772.626,772.626 0 0,0 32.372,28.283 V 28.277 C 32.346,28.137 32.333,28.068 32.362,28.034 C 32.391,28 32.459,28 32.594,28 H 33.194 C 33.734,28.002 34.274,28.004 34.813,27.995 C 34.99,27.992 35.055,28.042 35.087,28.224 C 35.311,29.521 35.547,30.835 35.779,32.131 C 35.789,32.181 35.799,32.233 35.814,32.297 L 35.841,32.415 L 35.984,31.766 V 31.764 L 36.278,30.433 C 36.788,28.107 37.298,25.781 37.81,23.455 C 37.843,23.306 37.812,23.27 37.665,23.27 C 34.175,23.274 30.685,23.275 27.195,23.274 C 27.184,23.274 27.172,23.274 27.16,23.272 C 27.106,23.268 27.05,23.264 27.017,23.345 C 26.797,23.882 26.574,24.418 26.347,24.965 L 26.126,25.495 H 28.238 C 28.338,25.496 28.347,25.438 28.359,25.358 C 28.38,25.224 28.404,25.09 28.427,24.956 C 28.459,24.77 28.491,24.586 28.517,24.4 C 28.533,24.29 28.569,24.252 28.677,24.253 C 29.573,24.257 30.469,24.257 31.364,24.253 C 31.471,24.253 31.497,24.282 31.477,24.393 A 9.535,9.535 0 0,0 31.417,24.77 C 31.39,24.95 31.364,25.13 31.325,25.307 C 31.287,25.482 31.343,25.497 31.487,25.497 C 32.644,25.494 33.801,25.494 34.959,25.495 H 36.092 C 36.355,25.495 36.355,25.495 36.313,25.653 L 36.288,25.756 C 36.258,25.894 36.224,26.028 36.192,26.161 A 11.1,11.1 0 0,0 36.042,26.823 C 36.014,26.98 35.945,27.003 35.814,27.003 C 35.23,27 34.646,27 34.063,27 C 33.133,27 32.203,27 31.272,26.994 C 31.093,26.993 31.033,27.044 31.005,27.224 L 30.489,30.438 L 30.188,32.31 C 30.168,32.439 30.12,32.478 29.996,32.478 C 29.115,32.473 28.233,32.473 27.352,32.478 C 27.228,32.478 27.197,32.448 27.219,32.314 C 27.464,30.849 27.706,29.361 27.945,27.889 L 28.045,27.275 V 27.268 C 28.068,27.132 28.079,27.064 28.05,27.031 C 28.023,26.999 27.958,26.999 27.83,26.999 H 22.722 C 22.983,26.369 23.242,25.753 23.5,25.139 C 23.756,24.53 24.01,23.925 24.264,23.313 C 24.226,23.265 24.185,23.268 24.147,23.272 A 0.328,0.328 0 0,1 24.12,23.273 H 23.483 C 23.02,23.274 22.557,23.275 22.094,23.267 C 21.945,23.265 21.903,23.325 21.881,23.457 C 21.681,24.714 21.478,25.971 21.274,27.227 L 20.354,32.893 C 20.149,34.157 19.944,35.421 19.741,36.685 L 19.738,36.7 C 19.691,36.998 19.691,36.999 19.382,36.999 H 17.435 L 17.654,35.654 L 18.138,32.665 A 37079.6,37079.6 0 0,0 19.219,25.985 C 19.354,25.146 19.489,24.307 19.629,23.469 C 19.655,23.317 19.649,23.259 19.48,23.269 C 19.21,23.282 18.94,23.277 18.67,23.269 C 18.56,23.267 18.514,23.293 18.493,23.42 A 1340.17,1340.17 0 0,1 17.561,29.127 L 17.455,29.774 C 17.317,30.612 17.179,31.449 17.045,32.286 C 17.023,32.426 16.978,32.481 16.83,32.479 C 16.197,32.469 15.565,32.469 14.932,32.479 C 14.767,32.482 14.725,32.439 14.753,32.269 C 14.99,30.853 15.224,29.437 15.454,28.021 L 15.61,27.07 C 15.731,26.326 15.853,25.583 15.977,24.84 C 16,24.707 15.96,24.68 15.839,24.68 A 591.51,591.51 0 0,1 12.576,24.68 C 12.453,24.679 12.403,24.711 12.391,24.846 A 4.47,4.47 0 0,1 12.291,25.433 C 12.253,25.6 12.281,25.663 12.468,25.661 C 12.851,25.656 13.234,25.656 13.616,25.657 C 14.03,25.657 14.443,25.657 14.856,25.651 C 15.054,25.648 15.093,25.7 15.051,25.893 C 15.004,26.109 14.97,26.383 14.939,26.627 L 14.913,26.834 C 14.894,26.974 14.829,27.005 14.702,27.004 C 14.331,27.002 13.96,27.002 13.589,27.002 C 13.142,27.002 12.696,27.002 12.249,26.998 C 12.099,26.996 12.041,27.039 12.016,27.196 C 11.879,28.042 11.74,28.866 11.601,29.69 C 11.456,30.549 11.311,31.407 11.169,32.29 C 11.145,32.44 11.091,32.48 10.951,32.478 A 78.694,78.694 0 0,0 8.99,32.478 C 8.824,32.481 8.805,32.422 8.83,32.273 C 9.017,31.156 9.2,30.076 9.385,28.986 L 9.692,27.182 C 9.719,27.022 9.682,26.998 9.542,26.999 C 9.222,27.001 8.903,27.001 8.584,27 C 8.093,27 7.602,26.998 7.111,27.007 C 6.897,27.011 6.883,26.937 6.921,26.755 C 6.979,26.482 7.024,26.115 7.055,25.836 C 7.071,25.678 7.136,25.653 7.272,25.653 C 7.633,25.656 7.994,25.656 8.355,25.656 C 8.812,25.656 9.268,25.656 9.725,25.661 C 9.886,25.663 9.95,25.611 9.966,25.451 C 9.986,25.252 10.017,25.056 10.058,24.861 C 10.089,24.711 10.043,24.678 9.902,24.679 C 9.5,24.681 9.099,24.681 8.697,24.681 C 8.125,24.681 7.553,24.68 6.981,24.687 C 6.773,24.69 6.743,24.623 6.782,24.437 C 6.842,24.149 6.895,23.858 6.932,23.567 C 6.948,23.431 6.996,23.401 7.118,23.402 C 7.333,23.406 7.548,23.405 7.764,23.405 C 8.018,23.405 8.271,23.404 8.525,23.409 C 8.675,23.412 8.697,23.364 8.68,23.222 A 13.94,13.94 0 0,1 8.63,22.639 C 8.617,22.473 8.605,22.307 8.59,22.153 C 8.577,22.037 8.6,21.996 8.72,21.997 C 9.331,22.003 9.943,22.003 10.554,21.999 C 10.666,21.998 10.699,22.037 10.704,22.149 C 10.708,22.269 10.719,22.389 10.73,22.509 C 10.738,22.594 10.745,22.679 10.751,22.765 C 10.758,22.872 10.795,23.001 10.908,23 C 11.37,22.993 11.832,22.995 12.294,22.999 C 12.387,22.999 12.433,22.881 12.466,22.793 C 12.504,22.693 12.545,22.596 12.586,22.498 C 12.636,22.38 12.685,22.262 12.729,22.141 C 12.769,22.031 12.827,21.998 12.934,21.999 C 13.574,22.003 14.214,22.006 14.854,21.998 C 15.03,21.996 15.02,22.06 14.964,22.192 C 14.876,22.399 14.792,22.623 14.706,22.851 C 14.636,23.037 14.566,23.224 14.493,23.405 H 14.938 C 15.329,23.404 15.71,23.403 16.091,23.408 C 16.209,23.41 16.22,23.336 16.23,23.264 C 16.23,23.254 16.232,23.246 16.233,23.237 C 16.299,22.833 16.364,22.377 16.429,21.921 C 16.495,21.458 16.56,20.996 16.628,20.587 A 5.37,5.37 0 0,1 16.763,19.917 C 16.943,19.319 17.345,19.001 17.949,18.999 C 18.969,18.995 19.99,18.995 21.011,18.995 H 23.13 C 23.255,18.995 23.285,19.022 23.257,19.158 C 23.193,19.475 23.146,19.796 23.101,20.117 C 23.08,20.271 23.027,20.331 22.861,20.329 A 237.295,237.295 0 0,0 19.684,20.324 C 19.143,20.324 18.956,20.484 18.851,21.028 C 18.753,21.538 18.753,21.747 19.245,21.747 H 20.389 C 21.827,21.747 23.266,21.746 24.704,21.75 C 24.861,21.751 24.946,21.71 25.002,21.55 C 25.056,21.397 25.121,21.248 25.185,21.099 A 9.72,9.72 0 0,0 25.32,20.779 A 0.165,0.165 0 0,1 25.384,20.685 A 0.155,0.155 0 0,1 25.492,20.658 C 26.162,20.661 26.833,20.66 27.522,20.66 H 28.133 Z M 11.788,21.421 H 10.877 C 9.916,21.42 8.955,21.419 7.994,21.425 C 7.821,21.425 7.774,21.381 7.811,21.204 C 7.874,20.928 7.921,20.497 7.951,20.212 L 7.953,20.199 C 7.97,20.015 8.052,19.993 8.2,19.994 C 8.562,19.997 8.925,19.997 9.287,19.997 C 9.734,19.997 10.182,19.997 10.629,20.001 C 10.794,20.003 10.869,19.965 10.887,19.781 C 10.901,19.639 10.927,19.544 10.954,19.445 A 2.31,2.31 0 0,0 11.018,19.155 C 11.036,19.041 11.078,18.999 11.195,19 C 11.87,19.006 12.545,19.005 13.22,19 C 13.339,19 13.383,19.022 13.352,19.162 C 13.295,19.427 13.269,19.543 13.208,19.808 C 13.168,19.981 13.229,20.001 13.373,20 C 13.722,19.997 14.07,19.998 14.419,19.998 C 14.866,19.998 15.313,19.998 15.76,19.993 C 15.94,19.991 15.994,20.025 15.95,20.221 A 10.94,10.94 0 0,0 15.82,21.151 L 15.812,21.227 C 15.793,21.382 15.733,21.426 15.581,21.425 C 14.61,21.419 13.639,21.42 12.668,21.42 H 11.788 Z M 22.746,32.476 H 23.407 C 23.71,32.476 24.013,32.476 24.316,32.478 C 24.407,32.478 24.471,32.466 24.513,32.362 C 25.082,30.967 25.653,29.572 26.228,28.18 C 26.279,28.056 26.268,28.016 26.128,28.017 C 25.303,28.02 24.479,28.021 23.655,28.017 C 23.555,28.017 23.503,28.049 23.465,28.146 A 975.487,975.487 0 0,1 21.751,32.33 C 21.691,32.476 21.751,32.48 21.865,32.478 C 22.158,32.475 22.452,32.475 22.745,32.476 Z" fill="rgb(254, 254, 253)"/>
<path d="M 7.933,27.989 C 8.205,28.004 8.468,28.009 8.731,28.002 C 8.843,27.999 8.879,28.024 8.851,28.144 C 8.531,29.532 8.215,30.921 7.901,32.31 C 7.873,32.44 7.825,32.482 7.693,32.48 A 52.594,52.594 0 0,0 6.16,32.48 C 6.01,32.483 5.98,32.439 6.012,32.298 C 6.329,30.917 6.644,29.535 6.955,28.152 C 6.982,28.03 7.034,27.996 7.155,28.001 C 7.417,28.011 7.68,28.004 7.943,28.004 Z M 13.554,28.004 C 13.824,28.004 14.094,28.006 14.364,28.004 C 14.448,28.002 14.489,28.012 14.476,28.12 C 14.329,29.375 14.187,30.631 14.044,31.887 L 14.037,31.93 C 14.014,32.105 14.05,32.339 13.951,32.44 C 13.838,32.555 13.601,32.473 13.418,32.476 C 13.041,32.481 12.664,32.468 12.288,32.482 C 12.113,32.488 12.09,32.424 12.108,32.272 C 12.244,31.137 12.374,30.002 12.505,28.866 C 12.532,28.633 12.562,28.4 12.582,28.166 C 12.593,28.048 12.632,27.994 12.765,28 C 13.028,28.013 13.291,28.004 13.554,28.004 Z" fill="rgb(254, 254, 253)"/>
<path d="M 41.67,36.342999999999996 C 40.63,37.028 39.567,37.246 38.467,36.662 C 37.315,36.05 37.217,34.392 38.261,33.567 C 39.221,32.809 40.889,32.811 41.85,33.572 C 42.043,33.726 42.044,33.726 41.85,33.866 C 41.79,33.909 41.727,33.946 41.67,33.995 C 41.39,34.231 41.158,34.383 40.77,34.106 C 40.346,33.806 39.836,33.906 39.39,34.2 A 1.015,1.015 0 0,0 38.975,35.2 A 0.914,0.914 0 0,0 39.732,35.936 A 1.48,1.48 0 0,0 40.948,35.642 C 41.026,35.582 41.068,35.566 41.135,35.656 C 41.303,35.883 41.479,36.101 41.679,36.358 Z" fill="rgb(229, 139, 45)"/>
<path d="M 36.22,35.977 H 36.444 C 36.824,35.992 36.826,35.992 36.747,36.421 C 36.713,36.607 36.752,36.857 36.634,36.964 C 36.507,37.08 36.293,36.992 36.117,37 C 35.975,37.006 35.832,36.988 35.692,37.004 C 35.509,37.026 35.45,36.959 35.495,36.754 C 35.541,36.544 35.575,36.331 35.603,36.118 C 35.616,36.016 35.655,35.987 35.741,35.99 C 35.904,35.996 36.068,35.992 36.231,35.992 Z" fill="rgb(229, 140, 45)"/>
<path d="M 42.338,36.955 C 42.53,35.694 42.709,34.446 42.882,33.197 C 42.903,33.043 42.952,32.982 43.075,33.005 A 0.332,0.332 0 0,0 43.138,33.005 C 43.933,33.002 43.929,33.007 44.466,33.74 C 44.817,34.219 45.181,34.683 45.568,35.19 C 45.677,34.503 45.782,33.866 45.874,33.226 C 45.897,33.067 45.937,32.998 46.074,33.002 C 46.401,33.012 46.728,33.01 47.054,33.002 C 47.178,33 47.214,33.044 47.191,33.202 C 47.024,34.391 46.861,35.581 46.703,36.772 C 46.683,36.923 46.646,36.959 46.523,36.978 C 45.978,37.065 45.547,36.898 45.194,36.331 C 44.898,35.855 44.524,35.452 44.182,35.021 C 44.14,34.968 44.112,34.886 44.023,34.881 L 43.715,36.774 C 43.7,36.869 43.707,36.972 43.591,36.971 C 43.181,36.969 42.771,36.971 42.348,36.971 Z M 21.626,33.006 H 23.116 C 23.203,33.005 23.236,33.081 23.276,33.153 L 23.793,34.071 C 24.078,33.758 24.355,33.461 24.626,33.153 A 0.412,0.412 0 0,1 24.764,33.038 A 0.339,0.339 0 0,1 24.928,33.002 C 25.367,33.01 25.806,33.005 26.307,33.005 C 26.078,33.269 25.888,33.491 25.695,33.71 C 25.372,34.077 25.053,34.452 24.718,34.803 C 24.589,34.939 24.613,35.016 24.705,35.154 C 25.057,35.681 25.4,36.218 25.744,36.753 C 25.782,36.811 25.837,36.86 25.841,36.971 H 24.356 C 24.269,36.972 24.237,36.889 24.195,36.823 C 24.027,36.563 23.849,36.31 23.701,36.033 C 23.592,35.831 23.513,35.869 23.394,36.003 C 23.137,36.293 22.873,36.57 22.612,36.853 C 22.553,36.917 22.499,36.975 22.409,36.973 C 21.927,36.969 21.446,36.971 20.913,36.971 C 21.241,36.604 21.535,36.273 21.832,35.943 C 22.105,35.638 22.377,35.33 22.658,35.035 C 22.755,34.933 22.763,34.865 22.684,34.739 C 22.338,34.185 22.001,33.623 21.626,33.006 Z M 33.836,33.005 C 34.355,33.005 34.873,33.008 35.391,33.003 C 35.521,33.002 35.577,33.015 35.547,33.218 C 35.45,33.857 35.46,33.858 34.931,33.858 C 34.47,33.858 34.008,33.864 33.547,33.856 C 33.421,33.853 33.37,33.906 33.356,34.059 C 33.339,34.259 33.311,34.541 33.271,34.736 C 33.229,34.94 33.267,35.006 33.446,35 C 33.936,34.985 34.426,35.002 34.916,34.99 C 35.078,34.987 35.127,35.03 35.091,35.24 C 34.995,35.797 35.001,35.8 34.528,35.8 C 34.123,35.8 33.718,35.804 33.314,35.797 C 33.182,35.794 33.108,35.821 33.092,36.016 C 33.069,36.311 33.009,36.519 32.973,36.813 C 32.959,36.931 32.919,36.975 32.821,36.973 A 45.71,45.71 0 0,0 31.65,36.973 C 31.54,36.975 31.519,36.928 31.537,36.803 C 31.71,35.606 31.881,34.408 32.049,33.209 C 32.072,33.05 32.129,32.999 32.26,33.001 C 32.785,33.011 33.31,33.005 33.836,33.005 Z" fill="rgb(229, 139, 45)"/>
<path d="M 28.653,32.991 L 28.386,33.005 L 28.089,33.006 C 27.826,33.008 27.563,33.009 27.301,33.002 C 27.164,32.998 27.117,33.064 27.095,33.222 C 26.933,34.394 26.765,35.565 26.593,36.736 C 26.566,36.92 26.596,36.978 26.755,36.976 C 27.064,36.97 27.374,36.971 27.683,36.972 C 27.984,36.972 28.285,36.974 28.585,36.969 C 28.99,36.967 29.392,36.899 29.781,36.764 C 30.682,36.443 31.18,35.509 31.055,34.364 C 30.988,33.752 30.602,33.309 29.995,33.133 C 29.555,33.006 29.11,33.006 28.663,33.006 Z M 28.779,33.912 H 28.763 A 1.192,1.192 0 0,1 28.573,33.91 C 28.456,33.891 28.413,33.955 28.395,34.09 C 28.311,34.701 28.221,35.31 28.131,35.92 C 28.117,36.015 28.127,36.068 28.219,36.07 C 28.547,36.075 28.871,36.044 29.167,35.848 C 29.516,35.616 29.733,34.974 29.635,34.491 C 29.555,34.096 29.302,33.919 28.805,33.911 H 28.779 Z" fill="rgb(229, 139, 45)" fill-rule="evenodd"/>
</svg>
