<?xml version="1.0" encoding="UTF-8"?>
<!-- generated by Finnhub -->
<svg viewBox="0 0 55.5 55.5" xmlns="http://www.w3.org/2000/svg">
<path d="M 0,0 H 55.5 V 55.5 H 0 Z" fill="rgb(239, 242, 248)"/>
<path d="M 7.73,24.985 H 7.17 A 3.23,3.23 0 0,0 4,28.28 V 28.52 C 4,30.44 5.5,32 7.35,32 H 7.97 C 9.35,32 10.51,31.05 10.87,29.75 H 8.75 C 8.58,30.07 8.25,30.35 7.63,30.35 C 6.2,30.35 6,29 6,29 H 11 V 28.37 A 3.32,3.32 0 0,0 7.74,25 Z M 6.04,27.54 S 6.41,26.52 7.59,26.52 A 1.4,1.4 0 0,1 9,27.54 H 6.03 Z M 31.74,25 H 31.17 A 3.23,3.23 0 0,0 28,28.28 V 28.52 C 28,30.44 29.5,32 31.35,32 H 31.97 C 33.35,32 34.51,31.05 34.87,29.75 H 32.74 C 32.57,30.07 32.24,30.35 31.62,30.35 C 30.2,30.35 30,29 30,29 H 35 V 28.37 A 3.32,3.32 0 0,0 31.74,25 Z M 30.04,27.54 S 30.41,26.52 31.59,26.52 A 1.4,1.4 0 0,1 33,27.54 H 30.03 Z M 19,27.49 A 2.46,2.46 0 0,0 16.57,25 H 16.3 C 15.5,25 14.4,25.44 14,26.1 V 25 H 12 V 32 H 14 V 27.6 C 14,26.99 14.86,26.5 15.45,26.5 H 15.75 C 16.23,26.5 17,26.9 17,27.38 V 32 H 19 V 27.49 Z" fill="rgb(39, 158, 181)"/>
<path d="M 48.28,24.985 H 51.42 L 48.67,28.17 L 52,32 H 48.87 L 47.1,30 L 45.34,32 H 41.68 L 39.9,29.99 L 38.13,32 H 35 L 38.34,28.16 L 35.6,25 H 38.73 L 39.91,26.35 L 41.08,25 H 45.92 L 47.1,26.36 L 48.3,25 Z M 43.49,31 C 42.59,31 42,30.31 42,29.55 C 42,28.78 42.14,28.49 42.74,27.57 C 43.34,26.66 43.46,26 43.46,26 H 43.54 S 43.66,26.66 44.26,27.57 C 44.86,28.49 45,28.78 45,29.55 C 45,30.31 44.42,31 43.5,31 Z" fill="rgb(39, 158, 181)" fill-rule="evenodd"/>
<path d="M 24.99,25.845 A 2.7,2.7 0 0,0 22.97,25 C 21.42,25 20,26.34 20,28.5 S 21.6,32 22.94,32 C 24.26,32 24.98,31.03 24.98,31.03 L 25,30.98 V 32 H 27 V 21 H 25 V 25.86 Z M 24.98,28.47 C 24.98,29.3 24.3,30 23.51,30 C 22.68,30 22,29.5 22,28.4 C 22,27.5 22.8,27 23.6,27 C 24.42,27 24.98,27.69 24.98,28.47 Z" fill="rgb(39, 158, 181)"/>
</svg>
