<?xml version="1.0" encoding="UTF-8"?>
<!-- generated by Finnhub -->
<svg viewBox="0 0 55.5 55.5" xmlns="http://www.w3.org/2000/svg">
<path d="M 0,0 H 55.5 V 55.5 H 0 Z" fill="rgb(239, 242, 248)"/>
<circle cx="40" cy="35" r="5" fill="url(#d)"/>
<path d="M 29.99,26.615 C 30,17.43 36.67,15.73 40,16.03 C 40,17.5 40,18.8 36.12,21.48 C 33.02,23.63 31.14,29.38 30.59,32 C 30.39,30.69 30,27.78 30,26.63 Z" fill="url(#c)"/>
<path d="M 34.99,43.815 C 28.32,43.23 14.18,39.02 11.05,27 C 11.05,31.02 8.7,45.73 35,43.83 Z" fill="url(#b)"/>
<path d="M 25.84,25.884999999999998 C 25.85,33.4 32.62,40.43 36,43 C 14.07,37.01 13,24.72 13,23.12 C 13,21.51 14.01,19.66 15.52,17.56 C 16.02,30.4 22.42,31.39 24,32.01 C 20.85,25.77 20,20.58 20,16.63 S 24.1,12 25.56,12 C 27.01,12 29.26,12.56 29.26,13.36 S 25.84,18.55 25.84,25.89 Z" fill="url(#a)"/>
<defs>
<linearGradient id="d" x1="35" x2="45" y1="34.47" y2="34.47" gradientUnits="userSpaceOnUse">
<stop stop-color="rgb(105, 177, 64)" offset="0"/>
<stop stop-color="rgb(0, 104, 50)" offset="1"/>
</linearGradient>
<linearGradient id="c" x1="30.84" x2="39.95" y1="32" y2="17.21" gradientUnits="userSpaceOnUse">
<stop stop-color="rgb(129, 188, 67)" offset="0"/>
<stop stop-color="rgb(7, 104, 54)" offset=".71"/>
</linearGradient>
<linearGradient id="b" x1="10.49" x2="34.38" y1="27.77" y2="43.67" gradientUnits="userSpaceOnUse">
<stop stop-color="rgb(129, 188, 67)" offset="0"/>
<stop stop-color="rgb(7, 104, 54)" offset="1"/>
</linearGradient>
<linearGradient id="a" x1="24.5" x2="24.5" y1="12" y2="43" gradientUnits="userSpaceOnUse">
<stop stop-color="rgb(129, 188, 67)" offset="0"/>
<stop stop-color="rgb(7, 104, 54)" offset=".71"/>
</linearGradient>
</defs>
</svg>
