<?xml version="1.0" encoding="UTF-8"?>
<!-- generated by Finnhub -->
<svg viewBox="0 0 55.5 55.5" xmlns="http://www.w3.org/2000/svg">
<path d="M 0,0 H 55.5 V 55.5 H 0 Z" fill="rgb(224, 207, 43)"/>
<path d="M 25.389999999999997,12.774999999999999 C 27.62,12.79 29.37,14.23 29.37,16.59 C 29.37,18.7 27.7,21.56 23.19,24.39 A 26.39,26.39 0 0,1 12.36,27.98 A 0.34,0.34 0 0,1 12,27.64 C 12.1,23.21 13.99,19.24 16.98,16.4 C 19.45,14.14 22.48,12.79 25.4,12.79 Z M 34.9,14.16 A 0.32,0.32 0 0,1 35.36,13.79 A 16,16 0 0,1 28,44 L 27.38,43.99 C 27.08,43.98 27.08,43.68 27.36,43.54 A 14.66,14.66 0 0,0 31.15,40.96 A 0.34,0.34 0 0,0 31.2,40.53 L 28.88,36.95 A 0.33,0.33 0 0,0 28.4,36.87 A 12.03,12.03 0 0,1 21.06,39.32 C 18.56,39.32 15.86,38.22 13.99,35.73 A 15.82,15.82 0 0,1 12.92,33.36 A 0.33,0.33 0 0,1 13.2,32.93 C 24.25,31.78 35.17,24.37 35.17,16.37 C 35.17,15.64 35.08,14.89 34.9,14.16 Z" fill="rgb(254, 254, 253)"/>
</svg>
