<?xml version="1.0" encoding="UTF-8"?>
<!-- generated by Finnhub -->
<svg viewBox="0 0 55.5 55.5" xmlns="http://www.w3.org/2000/svg">
<path d="M 0,0 H 55.5 V 55.5 H 0 Z" fill="rgb(239, 242, 248)"/>
<path d="M 43.910000000000004,27.605 A 13.36,13.36 0 0,0 39.49,25.84 A 0.26,0.26 0 0,1 39.27,25.6 C 39.27,25.46 39.35,25.35 39.49,25.32 C 40.69,24.98 42.32,24.79 43.45,24.74 C 43.56,24.74 43.62,24.65 43.65,24.57 C 43.65,24.51 43.62,24.43 43.51,24.37 A 20.28,20.28 0 0,0 36.84,23.54 A 0.3,0.3 0 0,1 36.54,23.32 C 36.5,23.21 36.56,23.07 36.72,23.02 A 30.9,30.9 0 0,1 42.37,21.66 C 42.51,21.63 42.57,21.54 42.57,21.46 C 42.57,21.41 42.51,21.32 42.4,21.29 C 39.8,20.88 36.25,21.05 33.38,21.71 C 33.18,21.74 33.08,21.66 33.02,21.57 C 32.96,21.47 33.02,21.35 33.15,21.27 C 33.85,20.82 34.59,20.37 35.35,19.99 C 35.42,19.94 35.48,19.88 35.45,19.79 C 35.42,19.71 35.35,19.69 35.25,19.69 C 33.45,19.85 31.6,20.24 29.75,20.82 H 29.72 L 29.12,20.66 C 28.36,20.49 27.56,20.43 26.82,20.36 C 26.68,20.36 26.51,20.32 26.37,20.3 A 4.88,4.88 0 0,0 23.44,21.18 C 22.83,21.74 21.78,22.08 20.75,22.4 C 19.65,22.77 18.62,23.1 18.12,23.68 C 17.29,24.68 16.93,25.54 17.1,26.26 C 17.26,26.98 17.9,27.32 17.9,27.32 C 18.79,27.84 19.65,28.37 20.5,28.9 C 20.64,28.98 20.8,29.1 21.03,29.2 C 21.89,30.09 22.58,31.09 23.27,32.09 C 23.49,32.39 23.71,32.73 23.94,33.03 C 24.54,33.89 24.94,34.92 25.24,36.42 A 5.4,5.4 0 0,0 27,39.1 A 8.72,8.72 0 0,0 28.94,40.29 C 29.13,40.37 30.1,40.73 30.49,40.85 C 30.57,40.87 30.62,40.93 30.65,41.01 C 30.65,41.07 30.62,41.15 30.57,41.18 C 30.46,41.23 30.35,41.28 30.27,41.28 A 13.4,13.4 0 0,1 19.39,38.28 A 13.42,13.42 0 0,1 17.53,19.62 A 13.38,13.38 0 0,1 26.86,14.6 A 13.3,13.3 0 0,1 37.55,18.41 C 37.91,18.77 38.38,18.99 38.9,18.99 H 40.87 C 40.95,18.99 41.03,18.97 41.07,18.89 C 41.12,18.8 41.09,18.72 41.03,18.64 A 15.87,15.87 0 0,0 34.89,13.54 A 16.04,16.04 0 0,0 28,12 C 27.59,12 27.17,12.03 26.73,12.06 C 18.07,12.75 11.48,20.36 12.03,29.01 C 12.31,33.34 14.27,37.31 17.57,40.13 C 20.87,42.96 25.07,44.33 29.39,43.93 A 16.04,16.04 0 0,0 43.73,30.83 C 43.73,30.81 43.78,30.59 43.78,30.51 V 30.48 C 43.78,30.4 43.81,30.28 43.76,30.03 A 4.95,4.95 0 0,0 42.34,28.56 A 0.26,0.26 0 0,1 42.24,28.29 A 0.3,0.3 0 0,1 42.45,28.06 C 42.93,27.96 43.31,27.87 43.78,27.79 C 43.87,27.79 43.92,27.7 43.95,27.65 C 44.03,27.75 44.01,27.68 43.92,27.62 Z M 28.45,31.56 C 28.48,31.51 28.5,31.51 28.55,31.51 L 28.72,31.53 C 28.86,31.56 29,31.59 29.02,31.62 C 29.8,31.72 30.5,31.59 30.99,31.2 A 2.7,2.7 0 0,0 31.94,29.31 C 31.96,28.92 31.96,28.61 31.91,28.37 C 31.91,28.31 31.94,28.29 31.96,28.26 C 32.02,28.23 32.05,28.26 32.07,28.29 A 2.47,2.47 0 0,1 31.6,31.81 C 31.19,32.11 30.72,32.25 30.25,32.25 C 30.14,32.25 30,32.25 29.89,32.23 A 3.93,3.93 0 0,1 28.45,31.7 C 28.45,31.64 28.42,31.59 28.45,31.56 Z M 25.21,24.24 C 24.79,24.24 24.32,24.01 23.88,23.54 C 23.85,23.51 23.85,23.49 23.88,23.49 C 24.16,23.13 24.66,22.74 25.21,22.65 C 25.76,22.6 26.12,22.77 26.59,23.13 C 26.62,23.15 26.62,23.15 26.62,23.18 C 26.59,23.21 26.21,24.1 25.43,24.24 H 25.21 Z M 33.07,33.7 C 32.99,33.86 32.9,33.97 32.85,34.11 C 32.6,34.58 32.46,34.83 32.24,35.53 C 31.99,36.25 31.64,37.86 31.52,38.72 C 31.52,38.77 31.47,38.8 31.41,38.8 S 31.33,38.75 31.33,38.7 A 8.45,8.45 0 0,0 30.97,35.5 C 30.57,34.64 30.47,34.47 29.67,34 L 29.08,33.67 A 95,95 0 0,1 25.4,31.47 C 25.35,31.45 25.35,31.39 25.38,31.34 C 25.4,31.28 25.46,31.28 25.51,31.31 C 26.12,31.73 27.04,32.23 27.73,32.56 C 29.06,33.2 30.19,33.66 31.43,33.28 C 33.26,32.73 33.85,30.89 33.63,29.42 C 33.63,29.37 33.65,29.32 33.68,29.32 C 33.74,29.29 33.79,29.32 33.82,29.37 C 34.51,30.62 33.79,32.34 33.07,33.7 Z" fill="rgb(80, 44, 107)"/>
</svg>
