<?xml version="1.0" encoding="UTF-8"?>
<!-- generated by Finnhub -->
<svg viewBox="0 0 55.5 55.5" xmlns="http://www.w3.org/2000/svg">
<path d="M 0,0 H 55.5 V 55.5 H 0 Z" fill="rgb(239, 242, 248)"/>
<path d="M 35.99,14.985 H 41 V 41 H 36 Z M 26,15 H 31 V 41 H 26 Z M 11,28 L 18.4,15 H 24 L 16.6,28 L 24,41 H 18.4 L 11,28 Z" fill="rgb(21, 39, 102)"/>
<path d="M 30.33,24.985 C 36.04,25 41.15,28.26 43,29.89 A 22.85,22.85 0 0,0 32.45,27.41 C 26.94,27.4 21.49,30 17.12,30 C 13.62,30 10.25,28.25 9,27.37 C 10.1,27.63 12.3,27.97 14.14,27.97 C 20.69,27.97 23.23,25 30.34,25 Z" fill="rgb(195, 34, 39)"/>
</svg>
