<?xml version="1.0" encoding="UTF-8"?>
<!-- generated by Finnhub -->
<svg viewBox="0 0 55.5 55.5" xmlns="http://www.w3.org/2000/svg">
<path d="M 0,0 H 55.5 V 55.5 H 0 Z" fill="rgb(239, 242, 248)"/>
<path d="M 11.290000000000001,20.275 V 20.59 H 12.04 C 12.48,20.59 12.61,20.82 12.63,20.93 V 30.13 C 12.63,30.38 12.42,30.58 12.17,30.58 H 11.5 V 31 H 15.08 V 30.58 H 14.43 A 0.43,0.43 0 0,1 14,30.13 V 20 L 11.3,20.29 Z M 6.35,27.49 H 11.04 C 11.03,26.66 10.44,25 8.19,25 C 5.37,25 5,27.28 5,28.22 C 5,29.16 6.03,31 8.4,31 C 10.03,31 10.9,30.2 11.12,29.79 V 29.32 A 3.05,3.05 0 0,1 8.8,30.5 C 7.34,30.5 6.35,29.43 6.35,27.5 Z M 6.34,27.09 H 9.73 C 9.74,26.52 9.43,25.38 8.05,25.38 C 6.68,25.38 6.34,26.52 6.34,27.08 Z M 15.68,20.59 V 20.29 L 18.36,20 V 30.13 C 18.36,30.38 18.56,30.58 18.82,30.58 H 19.47 V 31 H 15.9 V 30.58 H 16.56 C 16.82,30.58 17.01,30.38 17.01,30.13 V 20.93 C 17,20.82 16.88,20.58 16.44,20.58 H 15.69 Z M 23,31 A 3,3 0 1,0 23,25 A 3,3 0 0,0 23,31 Z M 23,30.52 C 24.04,30.52 24.88,29.39 24.88,28 C 24.88,26.6 24.04,25.48 23,25.48 S 21.12,26.61 21.12,28 C 21.12,29.4 21.96,30.52 23,30.52 Z M 25.75,25.55 V 25.27 L 28.33,25 V 30.19 C 28.33,30.42 28.53,30.6 28.77,30.6 H 29.4 V 31 H 25.95 V 30.6 H 26.59 A 0.4,0.4 0 0,0 27,30.19 V 25.87 C 26.99,25.77 26.9,25.55 26.47,25.55 H 25.75 Z M 28.33,26.41 C 28.59,25.94 29.43,25 30.65,25 C 31.82,25 32.39,25.7 32.6,26.4 C 32.87,25.92 33.7,25 34.91,25 C 36.45,25 37,26.2 37,27.03 V 30.17 C 37,30.45 37.2,30.67 37.5,30.67 H 38 V 31 H 34.75 V 30.68 H 35.19 C 35.49,30.68 35.73,30.45 35.73,30.17 V 26.79 A 1.19,1.19 0 0,0 34.46,25.66 C 33.59,25.66 32.96,26.35 32.68,26.81 L 32.69,27.03 V 30.17 C 32.69,30.45 32.93,30.67 33.23,30.67 H 33.74 V 31 H 30.5 V 30.68 H 30.94 C 31.24,30.68 31.48,30.45 31.48,30.17 V 26.79 A 1.19,1.19 0 0,0 30.21,25.66 C 29.23,25.66 28.55,26.54 28.34,26.98 V 26.41 Z M 39.13,26.81 H 39.53 A 1.6,1.6 0 0,1 41.16,25.63 C 42.51,25.63 42.64,26.76 42.64,27.02 V 27.38 C 42.1,27.55 41.38,27.77 41.13,27.83 H 41.11 C 40.68,27.93 39,28.33 39,29.44 C 39,30.46 40.03,31 40.9,31 C 41.53,31 42.3,30.55 42.7,30.27 A 1,1 0 0,0 43.68,30.97 C 44.63,30.97 45,30.27 45,29.89 H 44.58 V 30.12 C 44.58,30.2 44.5,30.36 44.25,30.36 C 43.99,30.36 43.99,30.19 44,29.93 V 26.85 C 43.93,26.23 43.28,25 41.56,25 C 39.83,25 39.21,26.2 39.12,26.8 Z M 42.63,29.68 V 27.7 L 41.17,28.23 C 40.88,28.33 40.3,28.71 40.3,29.43 C 40.3,30.32 41.3,30.32 41.43,30.32 C 41.53,30.32 42.04,30.22 42.63,29.67 Z M 43.92,25.32 V 25 H 46.96 V 25.32 C 46.73,25.37 46.33,25.65 46.65,26.36 L 48.05,29.56 L 49.29,26.13 C 49.34,25.86 49.29,25.33 48.74,25.33 V 25 H 51 V 25.32 C 50.7,25.33 50.04,25.51 49.79,26.12 C 49.54,26.75 48.2,30.56 47.56,32.39 A 2.83,2.83 0 0,1 45.1,34 H 45 V 33 H 45.59 C 45.96,33 46.82,32.95 47.09,32.4 C 47.28,32.01 47.37,31.7 47.44,31.5 L 47.51,31.3 L 45.07,25.99 C 45.01,25.77 44.7,25.32 43.92,25.32 Z" fill="rgb(1, 111, 58)" fill-rule="evenodd"/>
<path d="M 26.279999999999998,31.985 C 21.01,32 11.23,32.35 7,32.52 C 11.44,32.68 21.52,33 26.29,33 S 40.09,32.68 44,32.52 C 40.3,32.35 31.57,32 26.29,32 Z" fill="rgb(130, 130, 131)"/>
</svg>
