<?xml version="1.0" encoding="UTF-8"?>
<!-- generated by Finnhub -->
<svg viewBox="0 0 55.5 55.5" xmlns="http://www.w3.org/2000/svg">
<path d="M 0,0 H 55.5 V 55.5 H 0 Z" fill="rgb(1, 24, 173)"/>
<path d="M 28.369999999999997,21.115 H 28.52 C 29.2,21.13 29.72,20.61 29.73,19.9 A 1.55,1.55 0 0,0 28.26,18.33 C 27.58,18.33 27.06,18.87 27.04,19.57 C 27.03,20.35 27.63,21.05 28.38,21.13 Z M 45.85,30.16 C 44.93,32.59 42.4,32.71 41.91,32.71 H 41.81 C 41.47,32.69 41.21,32.57 41.03,32.35 C 40.78,32.02 40.83,31.6 40.83,31.58 C 40.89,31.12 41.06,30.75 41.33,30.45 C 41.96,29.8 43.14,29.51 45.42,29.46 H 45.46 C 45.66,29.46 45.83,29.49 45.88,29.56 C 46.02,29.77 45.86,30.12 45.85,30.16 Z M 21.89,25.8 C 21.85,25.84 21.84,25.85 21.82,25.85 C 21.82,25.85 21.79,25.85 21.77,25.77 C 21.74,25.62 21.67,25.28 21.61,24.75 A 26.49,26.49 0 0,1 21.44,21.98 L 21.48,20.96 C 21.54,19.21 22.28,18.98 22.58,18.98 L 22.7,18.99 C 22.85,19.01 22.99,19.15 23.09,19.29 C 23.49,19.85 23.3,21.19 23.28,21.34 A 14.23,14.23 0 0,1 22.36,24.8 C 22.24,25.1 22.04,25.64 21.89,25.8 Z M 10.42,27.75 A 4.23,4.23 0 0,1 14.17,25.09 C 14.59,25.09 14.94,25.19 15.23,25.39 C 15.43,25.54 15.55,25.74 15.58,25.99 C 15.65,26.61 15.06,27.31 15.04,27.33 C 14.36,28.2 12.86,28.4 10.83,28.45 H 10.8 C 10.6,28.45 10.43,28.45 10.34,28.35 C 10.22,28.2 10.41,27.79 10.42,27.75 Z M 50.82,27.92 C 50.67,27.66 50.42,27.49 50.15,27.44 C 49.55,27.31 49.33,27.3 48.97,27.27 L 48.48,27.23 C 48.09,27.21 48.08,27.11 48.01,26.85 A 7.07,7.07 0 0,0 47.59,25.78 C 47.36,25.3 45.88,22.91 39.29,22.91 H 38.92 C 38.39,22.91 37.32,22.94 36.17,23.12 C 33.76,23.51 32.21,24.39 31.58,25.74 C 31.39,26.14 30.9,27.55 32.45,28.86 L 32.52,28.92 C 32.9,29.26 33.74,29.77 34.12,29.96 C 35.41,30.63 35.42,31.26 35.39,31.39 C 35.39,32.36 34.54,32.94 33.14,32.94 H 32.91 C 30.55,32.93 30.21,29.93 30.21,29.9 A 196.64,196.64 0 0,1 29.71,24.28 C 29.71,24.22 29.59,22.91 28.48,22.91 C 28.15,22.91 27.91,23.01 27.74,23.21 C 27.42,23.59 27.51,24.23 27.51,24.25 C 27.58,24.89 27.54,25.37 27.54,25.41 C 27.32,28.23 25.34,31.14 25.31,31.2 C 25.31,31.2 24.46,32.56 23.98,32.55 C 23.41,32.53 23.15,31.74 23.14,31.71 C 22.9,31.01 22.69,30.23 22.51,29.55 A 0.88,0.88 0 0,1 22.67,28.76 A 15.65,15.65 0 0,0 25.44,21.66 C 25.59,20.56 25.64,19.12 24.57,17.88 A 2.76,2.76 0 0,0 22.5,17 C 22,16.99 21.67,17.1 21.65,17.12 C 19.3,18 19.27,21.89 19.27,21.94 C 19.24,22.71 19.3,23.94 19.49,25.44 L 19.86,27.83 C 19.9,28.02 19.9,28.18 19.89,28.33 C 19.87,28.47 19.84,28.59 19.79,28.68 C 19.71,28.88 19.6,28.98 19.58,29.01 C 19.17,29.47 18.27,30.36 17.55,30.92 A 8.08,8.08 0 0,1 14.1,32.63 C 13.8,32.68 13.52,32.72 13.26,32.72 C 11.76,32.72 11.04,31.83 10.74,31.32 C 10.72,31.29 10.53,31.02 10.62,30.84 C 10.68,30.72 10.89,30.74 11.07,30.74 C 12.47,30.71 13.47,30.58 14.33,30.32 C 17.1,29.5 17.63,27.46 17.73,26.62 C 17.83,25.89 17.81,24.52 16.71,23.58 C 16.07,23.03 15.03,22.9 14.26,22.9 A 6.4,6.4 0 0,0 12.13,23.24 A 6.26,6.26 0 0,0 8.17,27.6 L 8.13,27.76 C 8.02,28.2 8.01,28.23 7.66,28.21 H 7.56 A 16.83,16.83 0 0,1 6.32,27.95 A 1.05,1.05 0 0,0 6.09,27.92 C 5.58,27.92 5.13,28.3 5.02,28.83 C 4.96,29.13 5.02,29.43 5.18,29.69 S 5.58,30.12 5.87,30.19 C 6.55,30.34 6.97,30.4 7.57,30.52 C 8.05,30.62 8.1,30.54 8.27,31.12 C 8.57,32.07 9.02,32.95 9.6,33.65 C 10.34,34.54 11.52,35 13.11,35 C 13.51,35 13.93,34.96 14.36,34.9 A 8.86,8.86 0 0,0 18.39,33.03 C 18.87,32.65 19.42,32.14 19.99,31.63 C 20.59,31.08 20.65,31.11 20.91,31.9 L 21.09,32.5 C 21.33,33.2 21.64,34.06 22.69,34.64 C 23.12,34.87 23.55,34.99 23.97,34.99 C 25.6,34.99 26.67,33.21 27.09,32.53 C 27.16,32.41 27.39,32.03 27.56,31.7 C 27.64,31.55 27.9,31 28.06,31.03 C 28.16,31.03 28.27,31.47 28.32,31.66 C 28.32,31.7 28.4,31.93 28.42,31.96 C 28.82,33.25 29.87,33.89 29.89,33.9 C 30.57,34.4 31.7,35 33.25,35 H 33.27 C 33.43,35 37.2,34.96 37.57,31.61 C 37.62,31.01 37.51,30.38 37.25,29.8 C 36.78,28.72 35.72,28.21 35.15,27.94 L 35.05,27.89 A 5.94,5.94 0 0,1 34.14,27.33 L 34.13,27.32 C 34.09,27.29 33.75,27 33.78,26.63 C 33.8,26.42 33.95,26.25 34.2,26.1 C 35.25,25.46 37.27,25.2 38.8,25.2 H 39.3 C 42.9,25.2 44.52,25.96 45.18,26.41 C 45.4,26.56 45.74,26.84 45.68,27.01 C 45.63,27.16 45.24,27.17 45.14,27.17 C 44.29,27.19 43.04,27.26 41.94,27.58 A 4.24,4.24 0 0,0 38.67,31.28 C 38.66,31.37 38.42,33.38 39.57,34.34 C 40.2,34.89 41.25,35 42.01,35 C 43.01,34.99 43.74,34.85 44.15,34.7 A 6.35,6.35 0 0,0 48.18,29.92 C 48.23,29.62 48.26,29.54 48.65,29.54 H 48.73 L 48.92,29.56 C 49.12,29.58 49.27,29.59 49.66,29.66 A 1.11,1.11 0 0,0 50.97,28.8 C 51.04,28.5 50.98,28.18 50.82,27.92 Z" fill="rgb(254, 254, 253)"/>
</svg>
