<?xml version="1.0" encoding="UTF-8"?>
<!-- generated by Finnhub -->
<svg viewBox="0 0 55.5 55.5" xmlns="http://www.w3.org/2000/svg">
<path d="M 0,0 H 55.5 V 55.5 H 0 Z" fill="rgb(239, 242, 248)"/>
<path d="M 33.660000000000004,14.495 L 33.68,16.3 C 33.61,16.54 33.56,16.77 33.44,17 C 33.14,17.54 32.84,18.1 32.52,18.63 C 32.45,18.77 32.37,18.93 32.31,19.13 C 32.25,19.32 32.18,19.49 32.11,19.65 L 30.94,21.67 C 30.86,20.79 30.85,19.94 30.94,19.13 C 31.44,18.2 31.97,17.28 32.51,16.37 C 32.78,15.9 33.01,15.4 33.28,14.9 L 33.38,14.75 A 0.34,0.34 0 0,0 33.47,14.57 A 0.1,0.1 0 0,1 33.51,14.5 C 33.53,14.5 33.54,14.48 33.55,14.47 C 33.57,14.41 33.6,14.41 33.63,14.47 L 33.67,14.51 Z" fill="rgb(4, 8, 10)"/>
<path d="M 46.92,24.945 C 46.03,24.86 45.15,24.78 44.26,24.72 C 43.81,24.69 43.29,24.47 42.84,24.41 L 41.24,24.19 C 40.8,24.14 40.37,24.06 39.94,23.97 C 39.51,23.87 39.09,23.8 38.66,23.73 C 38.44,23.69 38.3,23.59 38.23,23.4 A 5.8,5.8 0 0,0 35.5,20.42 C 35.22,20.27 34.72,20.05 33.97,19.76 L 32.72,19.46 A 0.25,0.25 0 0,1 32.62,19.42 A 0.12,0.12 0 0,0 32.5,19.41 A 0.08,0.08 0 0,0 32.45,19.47 C 32.45,19.52 32.43,19.57 32.39,19.6 A 0.2,0.2 0 0,0 32.35,19.68 A 0.6,0.6 0 0,0 32.33,19.96 C 32.4,20.34 32.37,20.64 32.35,20.99 C 32.35,21.05 32.31,21.2 32.25,21.45 C 32.21,21.7 32.25,21.85 32.41,21.93 C 32.27,21.91 32.19,21.81 32.21,21.63 L 32.25,19.74 C 32.25,19.67 32.2,19.64 32.1,19.64 C 32.18,19.49 32.25,19.32 32.3,19.14 C 32.37,18.94 32.45,18.77 32.52,18.64 L 33.44,17 C 33.56,16.77 33.61,16.54 33.68,16.3 L 33.71,16.4 C 33.77,16.54 33.83,16.53 33.88,16.39 C 34.07,15.89 34.31,15.41 34.62,14.93 C 34.69,14.83 34.72,14.73 34.75,14.62 A 0.25,0.25 0 0,1 35.03,14.44 C 35.76,14.57 36.51,14.67 37.2,14.91 C 37.8,15.11 38.38,15.23 38.97,15.47 L 39.81,15.83 C 41.33,16.46 42.73,17.33 44,18.43 A 9.24,9.24 0 0,1 46.06,21 C 46.25,21.35 46.44,21.81 46.63,22.4 C 46.78,22.88 46.87,23.29 46.89,23.64 L 46.93,24.96 Z" fill="rgb(57, 127, 195)"/>
<path d="M 30.93,21.655 C 30.86,20.79 30.85,19.94 30.94,19.13 A 0.54,0.54 0 0,0 30.71,18.88 A 0.16,0.16 0 0,0 30.62,18.86 L 29.19,18.9 L 28.89,18.87 H 28.79 L 28.74,18.9 A 0.36,0.36 0 0,1 28.59,18.95 A 12.36,12.36 0 0,1 27.74,19 V 19.03 A 21.63,21.63 0 0,0 26.5,19.17 C 25.98,19.2 25.63,19.24 25.47,19.29 C 24.97,19.44 24.47,19.57 23.96,19.69 A 7.2,7.2 0 0,0 23.08,19.99 L 22.2,20.29 A 11.62,11.62 0 0,0 20.08,21.58 A 0.05,0.05 0 0,0 20.12,21.64 C 20.65,21.75 21.18,21.83 21.72,21.9 C 22.36,22 23.02,22.09 23.65,22.23 C 23.87,22.28 24.08,22.23 24.3,22.19 L 24.9,22.03 C 25.73,21.91 26.56,21.81 27.39,21.72 C 27.89,21.7 28.39,21.67 28.89,21.62 A 9.34,9.34 0 0,1 30.64,21.7 C 30.77,21.71 30.87,21.7 30.94,21.67 Z" fill="url(#e)"/>
<path d="M 33.96,19.745 L 33.87,19.8 C 33.8,19.82 33.77,19.87 33.77,19.94 L 33.8,20.61 L 33.74,21.32 C 33.7,21.71 33.71,22.06 33.79,22.37 L 32.41,21.93 C 32.26,21.86 32.21,21.7 32.26,21.45 L 32.35,20.99 C 32.37,20.64 32.4,20.34 32.33,19.96 A 0.6,0.6 0 0,1 32.35,19.68 A 0.2,0.2 0 0,1 32.39,19.6 A 0.22,0.22 0 0,0 32.45,19.47 C 32.45,19.44 32.47,19.42 32.5,19.41 A 0.12,0.12 0 0,1 32.63,19.41 C 32.66,19.44 32.68,19.45 32.72,19.46 L 33.97,19.76 Z" fill="rgb(68, 75, 76)"/>
<path d="M 32.09,19.634999999999998 C 32.2,19.65 32.25,19.67 32.25,19.75 C 32.25,20.15 32.23,20.78 32.2,21.63 C 32.2,21.81 32.27,21.91 32.41,21.93 L 33.79,22.37 C 34.19,22.47 34.59,22.62 34.97,22.81 C 35.73,23.18 36.4,23.61 36.98,24.11 C 37.03,24.25 37,24.32 36.91,24.33 C 36.73,24.33 36.54,24.32 36.34,24.28 A 4.44,4.44 0 0,0 35.8,24.2 A 9.18,9.18 0 0,1 34.36,23.97 C 34.11,23.91 33.88,23.92 33.63,23.86 A 4.74,4.74 0 0,0 33.08,23.76 C 32.59,23.72 32.08,23.69 31.61,23.58 A 4.2,4.2 0 0,0 31.04,23.5 C 30.77,23.48 30.54,23.32 30.28,23.33 C 29.98,23.35 29.78,23.5 29.65,23.79 C 29.6,23.91 28.28,26.97 28.48,25.61 C 28.5,25.16 28.71,23.83 28.73,23.39 C 28.73,23.28 28.7,23.19 28.62,23.15 A 2.03,2.03 0 0,1 28.26,23.06 A 2.49,2.49 0 0,0 27.88,22.96 C 27.43,22.89 27,22.8 26.58,22.71 C 26.18,22.63 25.73,22.57 25.23,22.53 A 2.47,2.47 0 0,1 24.84,22.46 A 3.22,3.22 0 0,0 24.44,22.39 C 24.38,22.39 24.34,22.37 24.32,22.34 C 24.29,22.3 24.29,22.25 24.3,22.19 L 24.9,22.03 A 62.2,62.2 0 0,1 27.39,21.72 C 27.89,21.7 28.39,21.67 28.89,21.62 A 9.34,9.34 0 0,1 30.64,21.7 C 30.77,21.71 30.87,21.7 30.94,21.67 L 32.1,19.65 Z" fill="rgb(210, 219, 223)"/>
<path d="M 28.61,23.134999999999998 C 28.7,23.19 28.73,23.28 28.73,23.39 L 28.68,24.72 C 28.66,25.2 28.64,25.51 28.6,25.64 C 28.54,25.84 28.31,26.27 27.92,26.93 C 27.69,27.31 27.49,27.7 27.31,28.1 L 27.05,28.6 C 26.83,28.99 26.62,29.39 26.43,29.8 C 26.34,29.98 26.21,30.15 26.1,30.32 C 26.04,30.32 26.01,30.32 26.01,30.3 A 18.3,18.3 0 0,1 26.01,27.83 A 78.95,78.95 0 0,0 28.61,23.15 Z" fill="rgb(4, 8, 10)"/>
<path d="M 46.96,25.625 C 47.01,27.3 47.01,28.77 46.98,30.04 C 46.98,30.48 46.86,30.92 46.66,31.34 C 46.56,31.56 46.57,31.77 46.48,31.97 A 11.51,11.51 0 0,1 45.12,34.4 A 16.74,16.74 0 0,1 41.04,38.05 A 23.79,23.79 0 0,1 38.02,39.64 C 37.46,39.86 36.92,40.13 36.35,40.32 C 35.51,40.61 34.64,40.87 33.75,41.12 C 33.45,41.2 33.15,41.27 32.83,41.32 L 31.89,41.52 C 31.14,41.69 30.23,41.81 29.14,41.88 C 27.84,41.98 26.53,42.01 25.19,42 C 24.36,41.99 23.48,41.87 22.59,41.86 A 0.2,0.2 0 0,1 22.39,41.66 L 22.4,39.49 A 29.97,29.97 0 0,0 29.16,39.59 C 30.19,39.52 30.86,39.46 31.15,39.39 A 32.9,32.9 0 0,1 33.48,38.89 C 33.92,38.82 34.41,38.62 34.87,38.49 C 35.53,38.31 36.19,38.09 36.82,37.83 C 38.16,37.35 39.43,36.73 40.64,36 C 42.16,35.1 43.49,33.97 44.65,32.63 A 9.92,9.92 0 0,0 46.73,28.82 C 46.87,28.32 46.95,27.83 46.96,27.37 V 25.64 Z" fill="rgb(217, 217, 216)"/>
<path d="M 33.550000000000004,14.104999999999999 C 32.74,14.08 31.85,14.07 31.12,14.03 A 33.7,33.7 0 0,0 26.29,14.16 A 25.87,25.87 0 0,0 15.34,17.72 A 16.28,16.28 0 0,0 10.84,21.67 A 9.42,9.42 0 0,0 9.11,25.64 C 8.44,30.54 14.56,34.69 20.18,36.53 L 20.41,36.57 C 20.47,36.57 20.55,36.59 20.64,36.61 C 20.79,36.65 20.94,36.62 21.08,36.53 L 23.78,31.85 C 23.8,31.82 23.74,31.77 23.6,31.71 A 1,1 0 0,0 23.38,31.64 C 21.02,31.15 18.69,29.88 17.76,27.94 C 17.58,27.56 17.53,27.17 17.47,26.77 L 17.46,26.67 A 0.14,0.14 0 0,1 17.49,26.56 A 0.13,0.13 0 0,1 17.59,26.52 L 18.22,26.55 C 20.68,27.05 23.35,27.85 25.89,27.82 C 25.91,27.82 25.93,27.82 25.94,27.85 L 25.95,27.87 L 26.01,27.83 A 63.96,63.96 0 0,0 26.21,27.5 A 75.18,75.18 0 0,0 28.61,23.15 A 2.03,2.03 0 0,1 28.26,23.06 A 2.5,2.5 0 0,0 27.88,22.96 C 25.64,22.58 23.85,22.2 21.71,21.9 A 29.38,29.38 0 0,1 20.11,21.64 A 0.05,0.05 0 0,1 20.09,21.64 A 0.05,0.05 0 0,1 20.08,21.58 L 20.09,21.55 C 20.74,21.06 21.45,20.65 22.2,20.3 A 29.82,29.82 0 0,1 30.62,18.86 C 30.65,18.86 30.68,18.86 30.71,18.88 C 30.82,18.95 30.9,19.03 30.94,19.13 C 31.44,18.2 31.97,17.28 32.51,16.37 C 32.71,16.03 34.07,14.14 33.56,14.12 Z" fill="url(#d)"/>
<path d="M 25.88,27.805 C 25.91,27.82 25.93,27.82 25.94,27.85 L 25.95,27.87 H 25.96 C 25.98,27.84 26,27.83 26.01,27.83 A 18.3,18.3 0 0,0 26.01,30.3 C 26.01,30.32 26.04,30.32 26.1,30.32 C 26.07,30.39 26.02,30.42 25.94,30.42 C 23.64,30.42 21.34,29.56 19.04,29.37 A 0.8,0.8 0 0,1 18.45,29.06 C 18.19,28.72 17.95,28.35 17.76,27.93 C 17.58,27.56 17.53,27.17 17.47,26.77 L 17.46,26.67 A 0.14,0.14 0 0,1 17.49,26.56 A 0.13,0.13 0 0,1 17.59,26.52 C 20.36,26.77 23.66,27.56 25.89,27.82 Z" fill="rgb(124, 130, 135)"/>
<path d="M 27.24,27.915 C 26.98,28.47 27.25,29.4 27.25,30.23 C 27.25,30.35 27.29,30.47 27.38,30.57 C 27.51,30.72 27.66,30.81 27.85,30.84 C 28.6,30.97 29.41,31.06 30.26,31.12 C 30.74,31.17 31.19,31.27 31.6,31.41 C 31.84,31.43 32.05,31.44 32.26,31.32 C 33.33,30.76 35.11,30.46 35.83,29.37 C 35.83,29.32 35.81,29.3 35.78,29.3 A 398.3,398.3 0 0,0 27.25,27.93 Z" fill="rgb(45, 56, 63)"/>
<path d="M 27.04,28.585 C 27.12,28.6 27.17,28.6 27.21,28.64 A 0.1,0.1 0 0,1 27.25,28.72 V 30.22 C 27.25,30.35 27.29,30.47 27.38,30.57 C 27.51,30.72 27.66,30.81 27.85,30.84 C 28.6,30.97 29.41,31.06 30.26,31.12 C 30.74,31.17 31.19,31.27 31.6,31.41 L 31.7,31.44 C 31.73,31.46 31.74,31.48 31.73,31.51 C 31.73,31.53 31.72,31.55 31.7,31.56 A 0.11,0.11 0 0,1 31.65,31.59 C 31.15,31.69 30.62,31.7 30.13,31.79 C 29.58,31.91 29.03,31.99 28.48,32.05 C 28.08,32.1 27.69,32.06 27.28,32.08 C 26.61,32.11 25.9,32.01 25.22,31.97 A 0.22,0.22 0 0,0 25.01,32.1 C 24.77,32.61 24.51,33.12 24.23,33.63 C 24.1,33.86 23.94,34.03 23.76,34.13 L 23.79,31.85 C 23.8,31.82 23.74,31.77 23.6,31.71 A 11.46,11.46 0 0,1 20.36,30.55 C 19.88,30.3 19.43,29.93 18.97,29.62 A 0.16,0.16 0 0,1 18.9,29.51 A 0.16,0.16 0 0,1 18.94,29.38 H 19.04 C 19.63,29.42 20.04,29.48 20.26,29.54 C 21.73,29.94 23.36,30.14 24.86,30.34 C 25.26,30.4 25.63,30.43 25.94,30.43 C 26.02,30.43 26.07,30.39 26.1,30.33 C 26.21,30.15 26.34,29.98 26.43,29.79 C 26.63,29.39 26.83,28.99 27.05,28.61 Z" fill="rgb(210, 219, 223)"/>
<path d="M 30.27,23.314999999999998 C 29.98,23.35 29.78,23.5 29.65,23.79 C 29.01,25.32 27.98,26.59 27.31,28.1 C 27.35,28.13 27.39,28.13 27.43,28.09 A 0.11,0.11 0 0,1 27.5,28.04 C 27.56,28.04 27.6,28.04 27.65,28.07 C 27.68,28.09 27.71,28.1 27.75,28.1 C 30.4,28.32 33.11,29.32 35.78,29.3 C 35.81,29.3 35.83,29.32 35.83,29.37 C 33.4,31.49 27.82,32.19 25.88,32.02 L 25.22,31.97 A 0.22,0.22 0 0,0 25.01,32.1 C 24.77,32.61 24.51,33.12 24.23,33.63 C 24.1,33.86 23.94,34.03 23.76,34.13 C 23.78,34.29 23.77,34.4 23.74,34.46 A 33.23,33.23 0 0,0 22.54,36.72 A 0.08,0.08 0 0,0 22.54,36.79 A 0.07,0.07 0 0,0 22.6,36.82 C 22.74,36.82 22.87,36.85 23,36.88 C 23.76,37.08 24.56,37.08 25.34,37.08 H 26.45 C 27.33,37.05 27.88,37.02 28.1,36.98 C 34.08,36.16 39.4,35.22 43.95,30.78 C 44.95,29.81 45.72,28.7 46.27,27.48 A 5.54,5.54 0 0,0 46.69,25.94 A 0.17,0.17 0 0,0 46.61,25.84 A 0.17,0.17 0 0,0 46.55,25.81 C 41.37,25.13 35.83,23.79 30.28,23.33 Z" fill="url(#c)"/>
<path d="M 9.19,30.895 C 9.3,31.19 9.45,31.44 9.55,31.71 C 9.9,32.71 10.43,33.61 11.15,34.41 A 13.78,13.78 0 0,0 15.67,37.65 C 16.23,37.91 16.85,38.17 17.44,38.37 C 18.07,38.57 18.69,38.77 19.31,38.95 L 21.04,39.27 L 22.27,37.11 C 22.34,36.99 22.38,37 22.41,37.13 C 22.46,37.33 22.4,37.53 22.41,37.73 V 39.06 A 0.13,0.13 0 0,1 22.38,38.99 C 22.38,38.97 22.37,38.96 22.35,38.96 H 22.31 A 0.57,0.57 0 0,0 22.21,39.33 C 22.21,39.37 22.2,39.41 22.18,39.44 C 22,39.76 21.94,40.12 21.73,40.42 C 21.57,40.66 21.43,40.92 21.32,41.2 A 0.58,0.58 0 0,1 20.6,41.55 C 19.91,41.34 19.18,41.24 18.49,40.99 C 17.92,40.79 17.34,40.63 16.77,40.4 C 15.91,40.06 15.04,39.64 14.17,39.15 A 11.96,11.96 0 0,1 11.06,36.62 A 8.8,8.8 0 0,1 9.08,32.67 A 2.9,2.9 0 0,1 9.09,31.24 L 9.12,31.22 C 9.15,31.22 9.16,31.19 9.16,31.17 L 9.21,30.91 Z" fill="rgb(217, 217, 216)"/>
<path d="M 21.069999999999997,36.515 C 20.97,37.4 20.95,38.32 21.04,39.27 L 19.31,38.94 L 17.44,38.37 C 16.84,38.17 16.24,37.91 15.67,37.65 C 11.03,35.56 8.99,32.3 9.02,27.62 A 2,2 0 0,0 9.05,27.42 C 9.05,27.35 9.06,27.35 9.09,27.42 V 27.47 C 9.12,27.48 9.13,27.47 9.14,27.46 C 9.17,27.41 9.18,27.42 9.18,27.46 C 9.28,29.86 15.41,35.73 21.08,36.53 Z" fill="url(#b)"/>
<path d="M 33.96,19.745 C 34.72,20.05 35.22,20.26 35.5,20.42 A 5.8,5.8 0 0,1 38.23,23.4 C 38.3,23.59 38.44,23.7 38.66,23.73 C 41.41,24.18 44.14,24.65 46.93,24.96 L 46.97,25.64 L 46.96,27.37 C 46.96,27.83 46.87,28.32 46.73,28.82 A 9.92,9.92 0 0,1 44.65,32.64 A 16.37,16.37 0 0,1 40.64,36 C 35.26,39.3 28.58,40.3 22.4,39.49 V 39.06 A 23.8,23.8 0 0,0 22.42,37.49 C 22.42,37.37 22.44,37.25 22.42,37.13 C 22.38,37 22.34,36.99 22.27,37.11 L 21.04,39.27 C 20.95,38.32 20.97,37.4 21.08,36.53 L 23.78,31.85 L 23.76,34.13 C 23.78,34.29 23.77,34.4 23.74,34.46 A 33.15,33.15 0 0,0 22.54,36.72 A 0.08,0.08 0 0,0 22.56,36.82 A 0.08,0.08 0 0,0 22.6,36.82 C 22.74,36.82 22.87,36.85 23,36.88 C 27,37.72 35.7,35.98 40.4,33.48 C 41.7,32.73 42.88,31.83 43.95,30.78 C 44.95,29.81 45.72,28.7 46.27,27.48 A 5.54,5.54 0 0,0 46.69,25.94 A 0.17,0.17 0 0,0 46.61,25.84 A 129.62,129.62 0 0,1 38.5,24.57 L 38.22,24.5 C 38.08,24.46 37.94,24.42 37.79,24.4 C 37.49,24.37 37.23,24.27 36.99,24.11 A 9.56,9.56 0 0,0 34.97,22.81 A 6.25,6.25 0 0,0 33.79,22.37 C 33.71,22.06 33.69,21.71 33.74,21.32 A 7.62,7.62 0 0,0 33.77,19.94 C 33.77,19.87 33.8,19.82 33.87,19.8 L 33.97,19.76 Z" fill="url(#a)"/>
<defs>
<linearGradient id="e" x1="30.94" x2="22.7" y1="20.56" y2="21.18" gradientUnits="userSpaceOnUse">
<stop stop-color="rgb(150, 150, 149)" offset="0"/>
<stop stop-color="rgb(15, 20, 25)" offset="1"/>
</linearGradient>
<linearGradient id="d" x1="21.36" x2="19.27" y1="14" y2="34.96" gradientUnits="userSpaceOnUse">
<stop stop-color="rgb(55, 121, 189)" offset=".07"/>
<stop stop-color="rgb(67, 141, 221)" offset=".49"/>
<stop stop-color="rgb(102, 200, 247)" offset=".74"/>
<stop stop-color="rgb(84, 175, 233)" offset="1"/>
</linearGradient>
<linearGradient id="c" x1="33.29" x2="26.67" y1="25.87" y2="37.05" gradientUnits="userSpaceOnUse">
<stop stop-color="rgb(67, 144, 221)" offset="0"/>
<stop stop-color="rgb(84, 172, 234)" offset="1"/>
</linearGradient>
<linearGradient id="b" x1="9.02" x2="20.52" y1="29.66" y2="37.72" gradientUnits="userSpaceOnUse">
<stop stop-color="rgb(5, 5, 5)" offset="0"/>
<stop stop-color="rgb(105, 105, 102)" offset=".35"/>
<stop stop-color="rgb(56, 63, 72)" offset=".66"/>
<stop stop-color="rgb(103, 105, 104)" offset="1"/>
</linearGradient>
<linearGradient id="a" x1="43.41" x2="23.55" y1="28.68" y2="39.09" gradientUnits="userSpaceOnUse">
<stop stop-color="rgb(5, 13, 21)" offset="0"/>
<stop stop-color="rgb(142, 149, 151)" offset=".49"/>
<stop stop-color="rgb(2, 2, 1)" offset="1"/>
</linearGradient>
</defs>
</svg>
