<?xml version="1.0" encoding="UTF-8"?>
<!-- generated by Finnhub -->
<svg viewBox="0 0 55.5 55.5" xmlns="http://www.w3.org/2000/svg">
<path d="M 0,0 H 55.5 V 55.5 H 0 Z" fill="url(#a)"/>
<path d="M 30.99,37.985 H 26 V 16.5 L 31,13 V 38 Z M 46,23.5 L 43,26.5 A 4.76,4.76 0 0,0 40,25 C 39.5,25 38.5,25.3 38.5,26.5 S 40.17,28 41,28 C 46.2,28.4 47,31.5 47,33 C 47,37 43,38 39.5,38 S 34.17,36.67 33,36 L 35.5,32.5 C 36.5,33.5 38.5,34 39.5,34 S 42,34 42,33 S 40.06,31.85 39,31.5 C 37.5,31 33.5,30 33.5,26.5 S 36,21 40,21 A 8,8 0 0,1 46,23.5 Z" fill="rgb(254, 254, 253)"/>
<path d="M 12.99,30.985 H 24 V 29 C 24,26.33 22,21 16,21 C 8.5,21 8,27 8,29.5 S 9.5,38 16.5,38 C 18.81,38 21.8,37 23,35 L 20,32.5 L 19.67,32.76 A 4.47,4.47 0 0,1 16.5,34 C 14.5,34 13,33 13,31 Z M 13,28 H 19 C 19,27 18.4,25 16,25 S 13,27 13,28 Z" fill="rgb(254, 254, 253)" fill-rule="evenodd"/>
<defs>
<linearGradient id="a" x1="48" x2="5" y1="9" y2="46" gradientUnits="userSpaceOnUse">
<stop stop-color="rgb(27, 132, 193)" offset="0"/>
<stop stop-color="rgb(23, 87, 150)" offset="1"/>
</linearGradient>
</defs>
</svg>
