<?xml version="1.0" encoding="UTF-8"?>
<!-- generated by Finnhub -->
<svg viewBox="0 0 55.5 55.5" xmlns="http://www.w3.org/2000/svg">
<path d="M 0,0 H 55.5 V 55.5 H 0 Z" fill="rgb(1, 124, 132)"/>
<path d="M 34.584,35.985 H 37 L 37.724,35 H 18.737 L 21,38 H 23.745 L 23.122,37 H 33.947 L 34.594,36 Z M 26.88,9.634 H 29.609 L 28.21,8 L 26.88,9.634 Z M 30.939,11 H 25.5 L 23.08,14 H 24.684 L 25.411,13 H 30.844 L 30.214,12 H 31.53 L 30.939,11 Z M 22.801,18 L 23.523,17 H 32.898 L 32.198,16 H 34.308 L 33.737,15 H 22.614 L 20.411,18 H 22.801 Z M 20.968,22 L 21.634,21 H 34.847 L 34.157,20 H 37.025 L 36.383,18.994 H 19.745 L 17.5,22 H 20.968 Z M 17.017,23 L 14.815,26 H 19.11 L 19.77,25 H 36.774 L 36.135,24 H 39.918 L 39.221,23 H 17.017 Z M 14.421,27 L 14,28 L 15.5,30 H 17.703 L 17.135,29.01 H 37.373 L 38,28 H 42 V 27 H 14.42 Z M 40,32 L 40.713,31 H 16 L 18.293,34 H 21.903 L 21.174,33 H 35.922 L 36.5,32 H 40 Z M 25.5,42 L 24.956,41 H 32.054 L 32.652,40 H 34.5 L 35.175,39 H 21.603 L 23.745,42 H 25.5 Z M 32,44 L 32.7,43 H 24.128 L 26.5,46 H 27.5 L 26.881,45 H 30.208 L 30.881,44 H 32 Z M 29.61,47 L 28.21,48.672 L 26.881,47 H 29.61 Z" fill="rgb(254, 254, 253)"/>
</svg>
