<?xml version="1.0" encoding="UTF-8"?>
<!-- generated by Finnhub -->
<svg viewBox="0 0 55.5 55.5" xmlns="http://www.w3.org/2000/svg">
<path d="M 0,0 H 55.5 V 55.5 H 0 Z" fill="rgb(239, 242, 248)"/>
<path d="M 12.72,28.185 A 0.06,0.06 0 0,0 12.71,28.24 A 0.06,0.06 0 0,0 12.73,28.28 L 27.2,44 C 27.25,44.06 27.25,44.11 27.2,44.17 C 26.53,44.97 25.84,45.19 25.13,44.83 A 6.8,6.8 0 0,1 23.8,43.59 L 10.66,29.32 C 10.41,29.05 10.25,28.82 10.17,28.64 C 9.93,28.07 9.9,27.38 10.4,26.92 L 24.26,14.15 C 24.66,13.78 24.95,13.55 25.12,13.48 C 25.82,13.18 26.58,13.6 27.08,14.15 L 37.56,25.56 C 38.33,26.4 38.84,27.29 37.86,28.19 L 31.86,33.71 C 31.83,33.73 31.81,33.73 31.78,33.71 L 24.28,25.59 A 0.07,0.07 0 0,0 24.22,25.56 L 24.17,25.58 L 20.33,29.12 C 20.31,29.14 20.31,29.16 20.33,29.18 L 30.09,39.84 A 0.07,0.07 0 0,0 30.19,39.84 L 43.29,27.76 C 43.31,27.74 43.31,27.72 43.29,27.7 L 28.76,11.96 A 0.06,0.06 0 0,1 28.76,11.88 C 29.03,11.55 29.34,11.18 29.76,11.08 C 30.78,10.79 31.24,11.35 31.96,12.13 L 45.28,26.6 C 45.81,27.17 46.05,27.57 45.99,28.31 C 45.97,28.67 45.83,28.87 45.56,29.12 L 31.62,41.96 C 31.3,42.26 31.05,42.44 30.89,42.51 C 30.23,42.79 29.53,42.44 29.05,41.93 L 18.26,30.23 C 17.6,29.5 17.3,28.57 18.13,27.81 A 875.43,875.43 0 0,0 24.16,22.27 A 0.07,0.07 0 0,1 24.21,22.3 L 31.71,30.4 A 0.06,0.06 0 0,0 31.79,30.4 L 35.66,26.82 V 26.8 A 0.02,0.02 0 0,0 35.66,26.79 L 25.96,16.21 A 0.05,0.05 0 0,0 25.93,16.2 H 25.89 L 12.73,28.2 Z" fill="url(#a)"/>
<defs>
<linearGradient id="a" x1="37.11" x2="17.24" y1="18.2" y2="35.88" gradientUnits="userSpaceOnUse">
<stop stop-color="rgb(142, 106, 5)" offset="0"/>
<stop stop-color="rgb(232, 215, 147)" offset=".51"/>
<stop stop-color="rgb(144, 109, 8)" offset="1"/>
</linearGradient>
</defs>
</svg>
