<?xml version="1.0" encoding="UTF-8"?>
<!-- generated by Finnhub -->
<svg viewBox="0 0 55.5 55.5" xmlns="http://www.w3.org/2000/svg">
<path d="M 0,0 H 55.5 V 55.5 H 0 Z" fill="rgb(52, 74, 154)"/>
<path d="M 4.99,30.985 H 9 V 29.393 H 7 V 28.793 H 9 V 27.231 H 7 V 26.636 H 9 V 25 H 5 V 31 Z M 12,31 H 14 V 28 L 16.061,31 H 18.049 V 25 H 16 V 28.332 L 14.102,25 H 12 V 31 Z M 20.33,30.99 L 22.5,31 L 22.803,30 H 24.5 L 24.688,31 S 27,31.03 27,31 L 24.861,25 H 22.407 L 20.329,30.99 Z M 24.28,29 H 23.038 L 23.612,27.043 L 24.28,29 Z M 45.33,30.99 L 47.5,31 L 47.803,30 H 49.5 L 49.688,31 S 52,31.03 52,31 L 49.861,25 H 47.407 L 45.329,30.99 Z M 49.28,29 H 48.038 L 48.612,27.043 L 49.279,29 Z M 30,31 H 32.017 L 32,27.96 L 33.822,31 H 36 V 25 H 34 V 28.352 L 32,25 H 30 V 31 Z M 39,27 H 40 V 31.025 L 42,31 V 27 H 43 V 25 H 39 V 27 Z" fill="rgb(254, 254, 253)"/>
</svg>
