<?xml version="1.0" encoding="UTF-8"?>
<!-- generated by Finnhub -->
<svg viewBox="0 0 55.5 55.5" xmlns="http://www.w3.org/2000/svg">
<path d="M 0,0 H 55.5 V 55.5 H 0 Z" fill="rgb(239, 242, 248)"/>
<path d="M 41.2,30.405 C 39.53,31.27 37.68,32.01 35.71,32.59 C 25.85,35.51 16.63,33.45 15.11,27.99 C 13.9,23.64 18,18.4 24.75,15 C 16.19,18.24 10.62,24.46 12.05,29.58 C 13.59,35.15 22.84,37.3 32.69,34.38 A 30.56,30.56 0 0,0 41.21,30.42 Z" fill="rgb(0, 75, 139)"/>
<path d="M 35.14,40.985 C 43.67,35.01 48,28.27 45.11,24.53 C 41.54,19.91 28.37,21.6 15.67,28.3 A 55.1,55.1 0 0,0 5,35.52 C 7.1,34.02 9.45,32.56 12.03,31.2 C 24.73,24.5 37.89,22.8 41.45,27.4 C 43.88,30.55 41.17,35.83 35.15,41 Z" fill="rgb(121, 191, 65)"/>
</svg>
