<?xml version="1.0" encoding="UTF-8"?>
<!-- generated by Finnhub -->
<svg viewBox="0 0 55.5 55.5" xmlns="http://www.w3.org/2000/svg">
<path d="M 0,0 H 55.5 V 55.5 H 0 Z" fill="url(#a)"/>
<path d="M 45.27,24.985 C 46.08,25 46.24,25.41 45.62,25.93 L 38.96,31.07 C 38.21,31.63 37.02,31.95 36.09,32 H 33 V 26.4 C 33.01,26.02 33.17,25.66 33.45,25.4 C 33.72,25.14 34.09,25 34.46,25 H 45.28 Z M 22,23 H 29.54 A 1.41,1.41 0 0,0 30.88,22.13 C 30.96,21.95 31,21.77 31,21.58 V 11.78 C 31,10.99 30.5,10.76 29.88,11.27 L 23.13,16.7 A 3.43,3.43 0 0,0 22,19.04 V 23 Z M 10.72,32 H 21.54 C 22.3,31.99 22.98,32.8 23,33.5 V 44.22 C 23,44.72 23.2,44.99 23.5,45 C 23.68,45 23.9,44.92 24.12,44.73 L 29.88,39.18 A 3.41,3.41 0 0,0 31,36.84 V 26.4 A 1.46,1.46 0 0,0 30.55,25.4 C 30.28,25.13 29.91,25 29.53,25 H 19.62 C 18.69,25.05 17.79,25.37 17.04,25.93 L 10.38,31.09 C 9.76,31.59 9.91,32 10.72,32 Z" fill="rgb(254, 254, 253)"/>
<defs>
<linearGradient id="a" x1="15.34" x2="43.95" y1="52.76" y2="6.68" gradientUnits="userSpaceOnUse">
<stop stop-color="rgb(1, 93, 131)" offset="0"/>
<stop stop-color="rgb(58, 190, 171)" offset="1"/>
</linearGradient>
</defs>
</svg>
