<?xml version="1.0" encoding="UTF-8"?>
<!-- generated by Finnhub -->
<svg viewBox="0 0 55.5 55.5" xmlns="http://www.w3.org/2000/svg">
<path d="M 0,0 H 55.5 V 55.5 H 0 Z" fill="url(#a)"/>
<path d="M 10.49,23.985 H 4 V 24.5 C 4.8,24.5 5,24.83 5,25 V 31.5 C 5,32.3 4.17,32.5 4,32.5 V 33 H 11 V 31 H 10.5 C 10.5,32.2 9.83,32.5 9.5,32.5 H 8 C 7.2,32.5 7,31.5 7,31 V 28.5 H 8 C 8.8,28.5 9,29.5 9,30 H 9.5 V 27 H 9 C 9,27.8 8.33,28 8,28 H 7 V 25.5 C 7,24.7 7.67,24.5 8,24.5 H 9 C 9.8,24.5 10,25.5 10,26 H 10.5 V 24 Z M 51.5,24 H 45 V 24.5 C 45.8,24.5 46,24.83 46,25 V 31.5 C 46,32.3 45.17,32.5 45,32.5 V 33 H 52 V 31 H 51.5 C 51.5,32.2 50.83,32.5 50.5,32.5 H 49 C 48.2,32.5 48,31.5 48,31 V 28.5 H 49 C 49.8,28.5 50,29.5 50,30 H 50.5 V 27 H 50 C 50,27.8 49.33,28 49,28 H 48 V 25.5 C 48,24.7 48.67,24.5 49,24.5 H 50 C 50.8,24.5 51,25.5 51,26 H 51.5 V 24 Z" fill="rgb(254, 254, 253)"/>
<path d="M 23.99,23.985 H 28 C 29,24 31,24.5 31,26.5 S 28.67,29 27.5,29 H 27 V 31.5 C 27,31.83 27.2,32.5 28,32.5 V 33 H 24 V 32.5 C 24.33,32.5 25,32.3 25,31.5 V 25 C 25,24.83 24.8,24.5 24,24.5 V 24 Z M 27,25.5 C 27,25.17 27.1,24.5 27.5,24.5 C 28,24.5 29,25 29,26.5 S 28,28.5 27.5,28.5 H 27 V 25.5 Z M 40,24 H 36 V 24.5 C 36.8,24.5 37,24.83 37,25 V 31.5 C 37,32.3 36.33,32.5 36,32.5 V 33 H 40 V 32.5 C 39.2,32.5 39,31.83 39,31.5 V 29 H 39.5 C 39.61,29 39.74,29 39.87,28.98 A 18.43,18.43 0 0,1 41.5,33 H 44 V 32.5 C 43.6,32.5 42.83,31.5 42.5,31 L 41.14,28.73 C 42.1,28.41 43,27.74 43,26.5 C 43,24.5 41,24 40,24 Z M 39.5,28.5 C 40,28.5 41,28 41,26.5 S 40,24.5 39.5,24.5 C 39.1,24.5 39,25.17 39,25.5 V 28.5 H 39.5 Z M 32.95,22 H 34.05 L 35,33.98 L 34.81,34 L 34.74,33.1 H 32.7 L 32.67,34 L 32.47,33.99 L 32.79,26.13 L 32.19,33.01 L 32.01,32.99 L 32.96,22 Z M 33.02,24.81 L 32.98,25.8 L 33.43,25.27 L 33.02,24.81 Z M 33.56,25.41 L 33.09,25.96 H 34.06 L 33.56,25.42 Z M 34.06,26.16 H 33.09 L 33.59,26.71 L 34.07,26.16 Z M 33.46,26.86 L 32.96,26.3 L 32.91,27.5 L 33.47,26.86 Z M 32.89,27.99 L 32.84,29.29 L 33.49,28.59 L 32.89,27.99 Z M 33.63,28.73 L 32.97,29.43 H 34.32 L 33.62,28.73 Z M 34.33,29.63 H 32.97 L 33.67,30.33 L 34.33,29.63 Z M 33.53,30.46 L 32.83,29.76 L 32.76,31.26 L 33.53,30.46 Z M 32.75,31.69 L 32.7,32.81 L 33.54,32.21 L 32.74,31.69 Z M 33.72,32.33 L 32.92,32.9 H 34.58 L 33.72,32.33 Z M 34.72,32.76 L 33.89,32.21 L 34.63,31.69 L 34.72,32.76 Z M 34.6,31.26 L 33.8,30.46 L 34.48,29.76 L 34.6,31.26 Z M 34.48,31.41 L 33.67,30.61 L 32.89,31.41 H 34.48 Z M 34.4,31.61 L 33.72,32.1 L 32.99,31.61 H 34.4 Z M 34.44,29.28 L 33.76,28.59 L 34.34,27.99 L 34.44,29.28 Z M 34.3,27.5 L 33.72,26.86 L 34.21,26.3 L 34.3,27.5 Z M 34.2,27.67 L 33.6,27 L 33.02,27.67 H 34.2 Z M 34.19,27.87 L 33.63,28.46 L 33.04,27.86 H 34.19 Z M 34.17,25.79 L 33.69,25.27 L 34.09,24.81 L 34.17,25.79 Z M 34.03,24.05 L 33.91,22.49 L 33.62,23.17 L 34.02,24.05 Z M 33.52,22.93 L 33.82,22.2 H 33.18 L 33.52,22.93 Z M 33.11,22.5 L 33.41,23.17 L 33.05,24.06 L 33.11,22.5 Z M 33.15,24.68 L 33.56,25.13 L 33.96,24.68 H 33.16 Z M 33.08,24.48 L 33.52,23.41 L 34.02,24.48 H 33.08 Z" fill="rgb(254, 254, 253)" fill-rule="evenodd"/>
<path d="M 33.31,19.165 V 22 H 33.82 V 19.5 H 34.82 C 35.31,19.5 34.82,18.7 35.31,18.7 C 35.81,18.7 35.81,19.18 36.3,19.65 C 36.7,20.02 36.8,19.49 36.8,19.18 C 37.3,19.18 36.8,18.71 36.3,18.71 C 35.3,18.71 35.8,18.24 35.3,17.76 C 34.81,17.29 34.81,18.71 34.32,18.71 C 33.82,18.71 34.32,17.29 34.32,16.82 S 33.82,18.24 33.82,17.29 C 33.82,16.54 34.15,16.35 34.32,16.35 V 14.95 C 34.32,14.56 34.65,15.1 34.82,15.41 C 34.98,14.94 35.01,14 33.82,14 C 32.33,14 33.32,18.24 33.32,19.18 Z M 15.5,24 H 12 V 24.5 C 12.8,24.5 13,25.17 13,25.5 V 31.5 C 13,32.3 12.33,32.5 12,32.5 V 33 H 15 V 32.5 C 14.2,32.5 14,31.83 14,31.5 V 25 L 16.5,33 H 17.5 L 20,25 V 31.5 C 20,31.9 19.67,32.33 19.5,32.5 V 33 H 23 V 32.5 C 22.2,32.5 22,31.83 22,31.5 V 25.5 C 22,25.1 22.67,24.67 23,24.5 V 24 H 19.5 L 17.5,30 L 15.5,24 Z" fill="rgb(254, 254, 253)"/>
<defs>
<linearGradient id="a" x1="10.42" x2="68.15" y1="9.71" y2="76.02" gradientUnits="userSpaceOnUse">
<stop stop-color="rgb(25, 29, 31)" offset="0"/>
<stop stop-color="rgb(5, 5, 8)" offset="1"/>
</linearGradient>
</defs>
</svg>
