<?xml version="1.0" encoding="UTF-8"?>
<!-- generated by Finnhub -->
<svg viewBox="0 0 55.5 55.5" xmlns="http://www.w3.org/2000/svg">
<path d="M 0,0 H 55.5 V 55.5 H 0 Z" fill="rgb(239, 242, 248)"/>
<path d="M 27.99,11.985 H 29.95 C 30.25,12 30.34,12.14 30.24,12.4 L 29.71,13.78 A 0.28,0.28 0 0,0 29.72,14 C 29.82,14.19 29.97,14.25 30.18,14.17 C 30.63,14.03 31.11,13.87 31.64,13.67 A 0.32,0.32 0 0,1 31.92,13.71 A 0.3,0.3 0 0,1 32.02,13.81 L 32.05,13.95 V 17.69 C 32.05,17.74 32.05,17.79 32.02,17.82 A 0.3,0.3 0 0,1 31.92,17.92 A 0.32,0.32 0 0,1 31.64,17.96 L 30.12,17.44 A 0.3,0.3 0 0,0 29.96,17.44 C 29.71,17.49 29.66,17.73 29.75,17.94 L 30.35,19.53 C 30.38,19.6 30.35,19.64 30.27,19.67 L 30,19.75 A 0.85,0.85 0 0,0 29.54,20.07 A 0.74,0.74 0 0,0 29.46,20.3 C 29.42,20.49 29.5,20.56 29.69,20.52 A 6.07,6.07 0 0,0 31.56,19.94 L 32.42,19.4 A 4.51,4.51 0 0,1 35.86,18.86 C 37.01,19.12 37.9,19.75 38.53,20.74 C 38.54,20.77 38.57,20.78 38.59,20.8 H 38.69 A 6.65,6.65 0 0,1 42.61,21.27 A 5.84,5.84 0 0,1 45.97,25.86 C 46.23,27.57 44.77,29.52 43.44,30.61 C 42.58,31.32 41.6,32.11 40.5,32.95 L 40.06,33.37 A 0.18,0.18 0 0,0 40,33.54 C 40.12,34.32 40.18,34.99 39.47,35.52 L 39.04,35.84 C 38.98,35.88 38.96,35.94 38.98,36.01 C 39.18,36.67 39.08,37.27 38.68,37.8 C 38.64,37.86 38.64,37.91 38.7,37.96 C 39.28,38.55 39.96,39.36 39.3,40.12 C 39.08,40.39 38.77,40.58 38.39,40.7 C 35.14,41.7 31.54,42 27.99,42 C 24.46,42 20.86,41.7 17.61,40.7 C 17.23,40.58 16.92,40.39 16.7,40.12 C 16.04,39.36 16.72,38.55 17.3,37.96 C 17.36,37.91 17.36,37.86 17.32,37.8 C 16.92,37.27 16.82,36.67 17.02,36 C 17.04,35.94 17.02,35.88 16.96,35.84 L 16.53,35.52 C 15.83,34.99 15.88,34.32 16,33.54 A 0.18,0.18 0 0,0 15.94,33.37 L 15.5,32.95 C 14.4,32.1 13.42,31.32 12.56,30.61 C 11.24,29.51 9.77,27.57 10.03,25.86 A 5.84,5.84 0 0,1 13.39,21.27 A 6.65,6.65 0 0,1 17.32,20.81 L 17.41,20.8 A 0.15,0.15 0 0,0 17.47,20.74 C 18.1,19.75 18.99,19.12 20.14,18.86 C 21.34,18.59 22.54,18.76 23.58,19.4 L 24.44,19.94 C 24.76,20.14 25.38,20.34 26.31,20.52 C 26.5,20.56 26.58,20.49 26.54,20.3 A 0.74,0.74 0 0,0 26.46,20.07 A 0.85,0.85 0 0,0 26,19.75 L 25.73,19.67 C 25.65,19.64 25.62,19.6 25.65,19.53 L 26.25,17.93 C 26.33,17.73 26.29,17.49 26.04,17.43 A 0.3,0.3 0 0,0 25.88,17.44 L 24.36,17.96 A 0.33,0.33 0 0,1 24.08,17.93 A 0.3,0.3 0 0,1 23.98,17.83 A 0.28,0.28 0 0,1 23.95,17.69 V 13.95 C 23.95,13.9 23.95,13.85 23.98,13.82 A 0.3,0.3 0 0,1 24.08,13.72 A 0.32,0.32 0 0,1 24.36,13.68 L 25.82,14.18 C 26.03,14.25 26.19,14.19 26.28,14 A 0.28,0.28 0 0,0 26.28,13.78 L 25.76,12.4 C 25.66,12.14 25.76,12 26.06,12 H 28 Z M 28,12.66 H 26.95 C 26.83,12.67 26.78,12.71 26.79,12.77 L 26.84,13.03 V 13.08 C 26.83,13.18 26.78,13.22 26.7,13.21 A 0.2,0.2 0 0,1 26.54,13.11 C 26.44,12.91 26.36,12.73 26.32,12.53 C 26.31,12.45 26.34,12.4 26.43,12.4 A 100.2,100.2 0 0,1 29.56,12.4 C 29.66,12.4 29.69,12.44 29.68,12.53 C 29.64,12.73 29.57,12.92 29.46,13.1 A 0.2,0.2 0 0,1 29.3,13.2 C 29.22,13.22 29.17,13.17 29.16,13.07 V 13.03 L 29.21,12.77 C 29.21,12.7 29.17,12.67 29.05,12.67 H 28 Z M 24.68,16.82 A 97.2,97.2 0 0,1 24.68,14.82 C 24.69,14.71 24.73,14.66 24.8,14.67 L 25.07,14.72 H 25.12 C 25.22,14.71 25.27,14.66 25.26,14.58 A 0.2,0.2 0 0,0 25.16,14.43 C 24.96,14.33 24.76,14.26 24.54,14.23 C 24.45,14.21 24.41,14.25 24.41,14.33 A 85.5,85.5 0 0,0 24.41,17.3 C 24.41,17.39 24.45,17.43 24.54,17.41 C 24.74,17.38 24.95,17.31 25.14,17.21 A 0.2,0.2 0 0,0 25.26,17.06 C 25.27,16.98 25.22,16.93 25.12,16.92 H 25.07 L 24.79,16.97 C 24.73,16.97 24.69,16.93 24.69,16.82 Z M 31.63,15.82 L 31.62,17.3 C 31.62,17.39 31.57,17.43 31.48,17.41 C 31.27,17.37 31.07,17.31 30.87,17.21 A 0.2,0.2 0 0,1 30.76,17.05 C 30.75,16.98 30.79,16.93 30.9,16.92 H 30.95 L 31.22,16.97 C 31.29,16.97 31.32,16.93 31.33,16.82 A 102.26,102.26 0 0,0 31.33,14.82 C 31.33,14.71 31.29,14.66 31.23,14.67 L 30.95,14.72 H 30.9 C 30.8,14.71 30.75,14.66 30.76,14.59 A 0.2,0.2 0 0,1 30.87,14.43 C 31.07,14.33 31.27,14.26 31.47,14.23 C 31.57,14.21 31.61,14.25 31.62,14.33 V 15.82 Z M 29.05,18.97 A 121.22,121.22 0 0,1 26.95,18.97 C 26.83,18.97 26.77,18.93 26.79,18.87 L 26.84,18.61 V 18.56 C 26.82,18.46 26.77,18.42 26.69,18.43 A 0.2,0.2 0 0,0 26.53,18.53 C 26.43,18.72 26.36,18.91 26.32,19.11 C 26.3,19.19 26.34,19.23 26.43,19.24 A 100.28,100.28 0 0,0 29.56,19.24 C 29.65,19.24 29.69,19.19 29.67,19.1 C 29.63,18.9 29.57,18.71 29.46,18.53 A 0.2,0.2 0 0,0 29.3,18.43 C 29.22,18.42 29.17,18.46 29.15,18.56 V 18.6 L 29.2,18.86 C 29.22,18.93 29.16,18.96 29.05,18.96 Z M 28.02,22.13 C 28.35,22.13 28.62,21.87 28.62,21.56 A 0.58,0.58 0 0,0 28.02,21 C 27.69,21 27.42,21.25 27.42,21.56 C 27.42,21.87 27.69,22.13 28.02,22.13 Z M 19.82,21.89 C 19.82,22.2 19.55,22.45 19.22,22.45 A 0.58,0.58 0 0,1 18.63,21.89 C 18.63,21.59 18.9,21.33 19.23,21.33 C 19.55,21.33 19.82,21.58 19.82,21.89 Z M 36.78,22.46 C 37.11,22.46 37.38,22.21 37.38,21.9 C 37.38,21.59 37.11,21.34 36.78,21.34 C 36.46,21.34 36.19,21.59 36.19,21.9 C 36.19,22.2 36.46,22.46 36.79,22.46 Z M 24.52,22.7 C 24.52,22.9 24.02,23.06 23.42,23.07 C 22.8,23.07 22.3,22.92 22.3,22.72 C 22.3,22.52 22.8,22.36 23.4,22.36 C 24.02,22.35 24.52,22.5 24.52,22.7 Z M 32.6,23.07 C 33.22,23.07 33.72,22.91 33.72,22.72 C 33.72,22.52 33.22,22.36 32.6,22.36 C 31.99,22.36 31.49,22.51 31.49,22.71 C 31.49,22.91 31.99,23.07 32.6,23.07 Z M 18.72,23.11 L 19.52,23.1 C 19.65,23.1 19.76,23.2 19.76,23.31 V 23.34 C 19.76,23.46 19.66,23.55 19.54,23.56 L 18.73,23.57 A 0.22,0.22 0 0,1 18.49,23.36 V 23.34 C 18.49,23.22 18.59,23.12 18.72,23.11 Z M 37.28,23.11 H 36.48 C 36.35,23.11 36.25,23.21 36.25,23.32 V 23.34 C 36.25,23.46 36.35,23.56 36.48,23.56 H 37.28 C 37.4,23.56 37.51,23.47 37.51,23.35 V 23.33 C 37.51,23.21 37.41,23.11 37.28,23.11 Z M 14.82,27.74 C 15.36,28.7 16.31,28.8 16.92,27.77 A 0.18,0.18 0 0,1 17.09,27.67 L 18.4,27.68 A 0.1,0.1 0 0,0 18.45,27.67 A 0.1,0.1 0 0,0 18.49,27.63 A 0.09,0.09 0 0,0 18.49,27.53 A 9.02,9.02 0 0,1 17.02,24.09 C 16.97,23.84 16.82,23.74 16.55,23.81 C 15.57,24.06 14.95,24.65 14.67,25.57 A 2.7,2.7 0 0,0 14.82,27.74 Z M 38.92,27.68 H 37.6 A 0.1,0.1 0 0,1 37.55,27.66 A 0.1,0.1 0 0,1 37.52,27.63 A 0.09,0.09 0 0,1 37.52,27.53 A 9.02,9.02 0 0,0 39,24.1 C 39.05,23.85 39.2,23.75 39.48,23.82 C 40.45,24.08 41.08,24.67 41.35,25.59 C 41.6,26.42 41.55,27.14 41.2,27.75 C 40.65,28.72 39.7,28.81 39.09,27.78 A 0.18,0.18 0 0,0 38.93,27.68 Z M 28.61,24.98 C 28.61,25.28 28.35,25.54 28.02,25.54 A 0.57,0.57 0 0,1 27.43,24.98 C 27.43,24.68 27.69,24.42 28.02,24.42 C 28.35,24.42 28.61,24.67 28.61,24.98 Z M 12.42,25.76 C 12.75,25.76 13.01,25.51 13.01,25.21 C 13.01,24.9 12.75,24.65 12.42,24.65 A 0.57,0.57 0 0,0 11.83,25.21 C 11.83,25.51 12.09,25.76 12.42,25.76 Z M 44.17,25.2 C 44.17,25.51 43.91,25.76 43.58,25.76 A 0.57,0.57 0 0,1 43,25.2 C 43,24.9 43.26,24.65 43.58,24.65 C 43.91,24.65 44.18,24.9 44.18,25.2 Z M 24.6,27.32 C 24.51,27.36 24.33,27.48 24.03,27.67 C 23.51,28.02 22.9,27.95 22.52,27.39 A 5.18,5.18 0 0,1 21.58,24.95 A 0.1,0.1 0 0,1 21.64,24.89 A 11.26,11.26 0 0,0 25.31,24.97 L 25.34,24.99 L 25.36,25.01 V 25.05 A 7.35,7.35 0 0,0 25.68,27.32 A 0.1,0.1 0 0,1 25.66,27.37 A 0.11,0.11 0 0,1 25.61,27.4 H 25.55 L 24.8,27.3 C 24.73,27.28 24.66,27.3 24.6,27.32 Z M 30.47,27.41 L 31.23,27.29 C 31.3,27.29 31.37,27.29 31.43,27.32 L 31.99,27.67 C 32.52,28.02 33.13,27.95 33.52,27.39 A 5.19,5.19 0 0,0 34.46,24.94 A 0.1,0.1 0 0,0 34.43,24.9 A 0.1,0.1 0 0,0 34.34,24.88 A 11.34,11.34 0 0,1 30.71,24.97 L 30.68,24.98 L 30.66,25.01 V 25.04 A 7.44,7.44 0 0,1 30.34,27.32 C 30.34,27.34 30.35,27.36 30.37,27.37 L 30.41,27.4 H 30.47 Z M 19.89,26.55 C 20.21,26.55 20.48,26.3 20.48,25.99 A 0.58,0.58 0 0,0 19.88,25.43 C 19.56,25.43 19.29,25.68 19.29,25.99 C 19.29,26.3 19.56,26.55 19.89,26.55 Z M 36.72,26 C 36.72,26.3 36.46,26.55 36.13,26.55 A 0.58,0.58 0 0,1 35.54,26 C 35.54,25.69 35.81,25.44 36.14,25.44 C 36.46,25.44 36.72,25.69 36.72,25.99 Z M 13.02,26.4 L 11.72,26.36 A 0.2,0.2 0 0,0 11.5,26.55 V 26.62 C 11.5,26.72 11.58,26.82 11.7,26.82 L 13,26.86 A 0.2,0.2 0 0,0 13.2,26.67 L 13.21,26.6 A 0.2,0.2 0 0,0 13.01,26.4 Z M 42.99,26.4 L 44.29,26.37 C 44.4,26.37 44.51,26.46 44.51,26.57 V 26.61 C 44.51,26.72 44.41,26.82 44.29,26.82 L 43,26.85 A 0.22,0.22 0 0,1 42.77,26.65 V 26.61 C 42.77,26.49 42.87,26.4 42.99,26.39 Z M 17.7,28.61 C 17.5,28.59 17.18,28.75 16.72,29.06 H 16.69 V 29.03 C 16.84,28.85 17.07,28.65 17.39,28.43 A 0.27,0.27 0 0,1 17.59,28.4 L 18.49,28.52 C 18.76,28.56 18.76,28.59 18.49,28.6 C 18.13,28.62 17.87,28.62 17.7,28.6 Z M 37.48,28.61 H 38.28 C 38.49,28.59 38.83,28.74 39.3,29.06 A 0.02,0.02 0 0,0 39.33,29.06 A 0.02,0.02 0 0,0 39.33,29.03 A 3.3,3.3 0 0,0 38.6,28.43 A 0.28,0.28 0 0,0 38.4,28.39 L 37.48,28.53 C 37.2,28.57 37.2,28.6 37.48,28.61 Z M 28.02,30.87 A 0.8,0.8 0 0,0 28.85,30.08 A 0.8,0.8 0 0,0 28.02,29.3 A 0.8,0.8 0 0,0 27.19,30.08 C 27.19,30.51 27.56,30.87 28.02,30.87 Z M 23.43,30.36 C 23.43,30.67 23.16,30.93 22.83,30.93 A 0.59,0.59 0 0,1 22.23,30.36 C 22.23,30.04 22.5,29.79 22.83,29.79 C 23.16,29.79 23.43,30.04 23.43,30.36 Z M 33.18,30.94 C 33.51,30.94 33.78,30.68 33.78,30.37 A 0.59,0.59 0 0,0 33.18,29.79 C 32.85,29.79 32.58,30.05 32.58,30.37 C 32.58,30.68 32.85,30.94 33.18,30.94 Z M 18.81,30.91 A 0.6,0.6 0 0,1 18.2,31.49 A 0.6,0.6 0 0,1 17.59,30.91 A 0.6,0.6 0 0,1 18.19,30.34 A 0.6,0.6 0 0,1 18.81,30.91 Z M 37.81,31.49 A 0.6,0.6 0 0,0 38.41,30.92 A 0.6,0.6 0 0,0 37.81,30.34 A 0.6,0.6 0 0,0 37.19,30.92 C 37.19,31.24 37.46,31.49 37.8,31.49 Z M 25.18,32.21 C 26.14,32.53 27.07,32.69 27.98,32.69 C 28.88,32.69 29.81,32.53 30.76,32.2 A 0.21,0.21 0 0,1 30.96,32.22 C 32.01,32.84 33.85,32.96 34.99,32.79 C 35.29,32.74 35.46,32.85 35.63,32.98 C 35.73,33.05 35.83,33.12 35.96,33.17 C 36.63,33.41 37.33,33.5 38.06,33.44 C 38.12,33.44 38.18,33.41 38.23,33.36 C 38.28,33.32 38.3,33.26 38.31,33.2 V 33.15 C 38.33,32.95 38.24,32.85 38.03,32.83 L 36.78,32.71 C 36.26,32.66 35.88,32.44 35.63,32.05 A 0.15,0.15 0 0,0 35.45,31.99 C 34.57,32.33 33.1,32.19 32.25,32.02 C 31.75,31.93 31.31,31.72 30.9,31.37 C 30.85,31.33 30.8,31.33 30.74,31.37 C 30.44,31.63 30.06,31.8 29.62,31.88 L 28.8,32 A 6.2,6.2 0 0,1 27.14,32 C 26.66,31.93 26.38,31.9 26.32,31.88 C 25.89,31.8 25.52,31.63 25.21,31.38 C 25.15,31.33 25.11,31.33 25.05,31.38 C 24.64,31.71 24.19,31.93 23.7,32.03 C 22.85,32.19 21.38,32.33 20.5,31.99 A 0.15,0.15 0 0,0 20.32,32.05 C 20.07,32.45 19.69,32.67 19.17,32.72 L 17.92,32.84 C 17.71,32.86 17.62,32.96 17.63,33.15 L 17.64,33.21 C 17.64,33.28 17.67,33.33 17.72,33.38 C 17.77,33.42 17.82,33.45 17.9,33.46 C 18.62,33.51 19.32,33.42 19.98,33.18 C 20.12,33.13 20.22,33.06 20.32,32.98 C 20.49,32.87 20.65,32.75 20.96,32.8 C 22.1,32.97 23.93,32.85 24.99,32.23 A 0.21,0.21 0 0,1 25.19,32.22 Z M 28.03,33.18 C 31.01,33.18 33.79,33.44 36.38,33.94 C 37.09,34.08 37.8,34.27 38.5,34.52 C 38.64,34.57 38.7,34.67 38.66,34.81 C 38.63,34.95 38.55,35 38.41,34.95 C 36.41,34.34 34.26,33.95 31.94,33.79 A 57.49,57.49 0 0,0 24.13,33.79 A 28.7,28.7 0 0,0 17.65,34.94 C 17.51,34.99 17.43,34.94 17.4,34.8 S 17.42,34.56 17.57,34.51 C 18.27,34.26 18.97,34.07 19.69,33.93 C 22.27,33.43 25.06,33.18 28.03,33.18 Z M 26.56,34.12 H 29.45 C 29.56,34.12 29.65,34.2 29.65,34.32 V 34.42 C 29.65,34.52 29.56,34.61 29.45,34.61 H 26.55 A 0.2,0.2 0 0,1 26.35,34.41 V 34.31 C 26.35,34.21 26.45,34.11 26.55,34.11 Z M 25.14,34.72 C 25.29,34.72 25.4,34.61 25.4,34.47 A 0.25,0.25 0 0,0 25.14,34.23 C 25,34.23 24.89,34.33 24.89,34.47 C 24.89,34.61 25,34.72 25.14,34.72 Z M 31.13,34.48 C 31.13,34.61 31.01,34.73 30.86,34.73 A 0.26,0.26 0 0,1 30.6,34.48 C 30.6,34.34 30.72,34.23 30.86,34.23 C 31.01,34.23 31.13,34.34 31.13,34.48 Z M 23.77,34.42 L 22.94,34.54 A 0.22,0.22 0 0,0 22.74,34.79 V 34.82 C 22.77,34.94 22.89,35.02 23.01,35 L 23.84,34.88 A 0.22,0.22 0 0,0 24.04,34.62 V 34.6 A 0.23,0.23 0 0,0 23.77,34.42 Z M 32.23,34.41 L 33.07,34.53 C 33.2,34.55 33.29,34.67 33.27,34.79 V 34.81 A 0.24,0.24 0 0,1 32.99,35 L 32.15,34.88 A 0.23,0.23 0 0,1 31.95,34.62 L 31.96,34.6 C 31.98,34.47 32.1,34.39 32.23,34.4 Z M 21.6,35.14 C 21.75,35.14 21.86,35.03 21.86,34.9 A 0.25,0.25 0 0,0 21.6,34.65 C 21.46,34.65 21.35,34.76 21.35,34.9 C 21.35,35.03 21.46,35.14 21.6,35.14 Z M 34.67,34.89 C 34.67,35.03 34.55,35.13 34.41,35.13 A 0.25,0.25 0 0,1 34.15,34.89 C 34.15,34.76 34.27,34.65 34.41,34.65 S 34.67,34.75 34.67,34.89 Z M 20.37,34.9 L 19.53,35.07 A 0.22,0.22 0 0,0 19.35,35.32 V 35.34 C 19.38,35.46 19.51,35.54 19.63,35.51 L 20.46,35.35 C 20.59,35.32 20.66,35.21 20.64,35.09 V 35.07 A 0.23,0.23 0 0,0 20.36,34.9 Z M 35.64,34.9 L 36.49,35.06 C 36.62,35.09 36.7,35.21 36.67,35.33 V 35.35 A 0.24,0.24 0 0,1 36.39,35.52 L 35.54,35.35 A 0.22,0.22 0 0,1 35.36,35.09 V 35.06 C 35.39,34.94 35.51,34.86 35.64,34.89 Z M 29.1,35.13 H 26.85 A 0.56,0.56 0 0,0 26.28,35.68 V 35.72 C 26.28,36.02 26.54,36.26 26.86,36.25 H 29.11 C 29.42,36.25 29.68,36.01 29.68,35.71 V 35.67 C 29.68,35.37 29.42,35.13 29.1,35.13 Z M 18.29,35.6 C 18.29,35.73 18.17,35.84 18.03,35.84 A 0.25,0.25 0 0,1 17.78,35.6 C 17.78,35.46 17.89,35.36 18.03,35.36 S 18.29,35.46 18.29,35.6 Z M 37.97,35.84 C 38.12,35.84 38.23,35.73 38.23,35.59 A 0.25,0.25 0 0,0 37.97,35.34 A 0.25,0.25 0 0,0 37.71,35.59 C 37.71,35.73 37.83,35.84 37.97,35.84 Z M 23.79,36.01 C 23.79,36.21 23.61,36.37 23.4,36.37 A 0.37,0.37 0 0,1 23.02,36.01 C 23.02,35.81 23.19,35.65 23.4,35.65 S 23.79,35.81 23.79,36.01 Z M 32.61,36.37 C 32.82,36.37 33,36.21 33,36.01 C 33,35.81 32.82,35.65 32.61,35.65 A 0.37,0.37 0 0,0 32.23,36.01 C 32.23,36.21 32.4,36.37 32.61,36.37 Z M 20.33,36.43 C 20.33,36.63 20.16,36.79 19.95,36.79 A 0.37,0.37 0 0,1 19.57,36.43 C 19.57,36.23 19.74,36.07 19.95,36.07 C 20.15,36.07 20.33,36.23 20.33,36.43 Z M 36.06,36.8 C 36.27,36.8 36.45,36.64 36.45,36.44 C 36.45,36.24 36.27,36.08 36.06,36.08 A 0.37,0.37 0 0,0 35.68,36.44 C 35.68,36.64 35.85,36.8 36.06,36.8 Z M 26.56,36.72 H 29.45 A 0.2,0.2 0 0,1 29.65,36.92 V 37 C 29.65,37.11 29.56,37.2 29.45,37.2 H 26.55 A 0.2,0.2 0 0,1 26.35,37 V 36.93 C 26.35,36.82 26.44,36.73 26.55,36.73 Z M 25.32,37.27 C 25.46,37.27 25.57,37.17 25.57,37.03 A 0.25,0.25 0 0,0 25.32,36.79 C 25.18,36.79 25.06,36.89 25.06,37.03 C 25.06,37.16 25.18,37.27 25.32,37.27 Z M 30.94,37.03 C 30.94,37.16 30.82,37.27 30.68,37.27 A 0.26,0.26 0 0,1 30.42,37.03 C 30.42,36.89 30.53,36.78 30.68,36.78 C 30.82,36.78 30.94,36.88 30.94,37.03 Z M 23.54,37.43 C 23.92,37.39 24.22,37.24 24.2,37.1 C 24.18,36.96 23.85,36.88 23.47,36.93 C 23.08,36.97 22.79,37.13 22.8,37.27 C 22.82,37.41 23.15,37.49 23.54,37.44 Z M 32.13,36.89 L 32.96,37.01 C 33.08,37.03 33.17,37.14 33.16,37.26 L 33.15,37.28 A 0.23,0.23 0 0,1 32.89,37.47 L 32.06,37.35 A 0.22,0.22 0 0,1 31.86,37.1 V 37.08 C 31.88,36.96 32,36.88 32.13,36.89 Z M 21.77,37.69 C 21.91,37.69 22.03,37.57 22.03,37.44 A 0.25,0.25 0 0,0 21.77,37.19 C 21.63,37.19 21.51,37.3 21.51,37.44 C 21.51,37.57 21.63,37.68 21.77,37.68 Z M 34.5,37.44 C 34.5,37.58 34.38,37.69 34.24,37.69 A 0.25,0.25 0 0,1 33.97,37.44 C 33.97,37.31 34.09,37.19 34.24,37.19 C 34.38,37.19 34.5,37.31 34.5,37.44 Z M 36.35,37.54 L 35.51,37.4 A 0.23,0.23 0 0,0 35.24,37.58 V 37.6 C 35.22,37.72 35.3,37.84 35.43,37.86 L 36.27,38 C 36.39,38.02 36.51,37.95 36.54,37.83 V 37.8 A 0.22,0.22 0 0,0 36.35,37.55 Z M 20.82,37.59 C 20.85,37.73 20.55,37.89 20.16,37.95 S 19.44,37.95 19.41,37.82 C 19.39,37.69 19.68,37.52 20.07,37.46 C 20.47,37.4 20.8,37.46 20.82,37.59 Z M 28.22,37.58 C 30.13,37.58 32.16,37.73 34.29,38.04 C 35.63,38.23 37.04,38.57 38.5,39.08 C 38.66,39.13 38.73,39.24 38.73,39.39 V 39.48 L 38.72,39.54 A 0.15,0.15 0 0,1 38.67,39.59 A 0.16,0.16 0 0,1 38.53,39.61 A 23,23 0 0,0 33.25,38.39 A 46.26,46.26 0 0,0 23.17,38.39 A 23.02,23.02 0 0,0 17.82,39.59 A 0.16,0.16 0 0,1 17.76,39.57 A 0.14,0.14 0 0,1 17.71,39.52 A 0.13,0.13 0 0,1 17.69,39.45 V 39.37 C 17.69,39.21 17.77,39.11 17.92,39.06 C 19.39,38.56 20.8,38.21 22.14,38.02 C 24.27,37.72 26.3,37.57 28.22,37.58 Z M 18.47,38.13 C 18.47,38.27 18.36,38.38 18.21,38.38 A 0.25,0.25 0 0,1 17.95,38.13 C 17.95,38 18.07,37.89 18.21,37.89 S 18.47,37.99 18.47,38.13 Z M 37.81,38.39 C 37.96,38.39 38.07,38.27 38.07,38.14 A 0.26,0.26 0 0,0 37.81,37.89 A 0.26,0.26 0 0,0 37.55,38.14 C 37.55,38.27 37.67,38.39 37.81,38.39 Z M 37.61,39.99 A 34.52,34.52 0 0,0 28.05,38.77 C 24.75,38.77 21.58,39.1 18.48,39.98 C 18.46,39.99 18.44,40.01 18.44,40.04 S 18.46,40.09 18.48,40.1 C 21.58,40.98 24.75,41.3 28.05,41.3 C 31.34,41.31 34.52,40.98 37.61,40.1 C 37.64,40.1 37.65,40.07 37.65,40.04 S 37.64,39.99 37.61,39.99 Z" fill="rgb(156, 73, 32)" fill-rule="evenodd"/>
</svg>
