<?xml version="1.0" encoding="UTF-8"?>
<!-- generated by Finnhub -->
<svg viewBox="0 0 55.5 55.5" xmlns="http://www.w3.org/2000/svg">
<path d="M 0,0 H 55.5 V 55.5 H 0 Z" fill="rgb(239, 242, 248)"/>
<path d="M 30.47,22.985 H 31 V 20 H 23 V 20.5 H 24 V 28.5 H 23 V 29 H 31 V 26 H 30.48 C 30.48,27.38 29.33,28.5 27.91,28.5 H 27 V 24.72 C 27.81,24.79 28.44,25.32 28.44,25.96 V 26 H 29 V 23 H 28.44 V 23.04 C 28.44,23.69 27.81,24.21 27,24.28 V 20.5 H 27.91 A 2.53,2.53 0 0,1 30.48,23 Z M 38,28.74 A 4.5,4.5 0 1,0 36.14,28.99 A 0.47,0.47 0 0,0 36,29.32 C 36,30.14 36.7,31 38.38,31 C 40.05,31 40.73,30.4 41,28 L 40.75,28.17 C 40.15,28.6 39.59,29 38.84,29 C 38.36,29 38.17,28.87 38,28.74 Z M 35,21.91 A 1.5,1.5 0 1,1 38,21.91 V 27.09 A 1.5,1.5 0 1,1 35,27.09 V 21.91 Z" fill="rgb(42, 93, 148)"/>
<path d="M 25.259999999999998,11.985 C 32.1,12 37.94,17.04 40,19.5 H 39.3 C 37.42,17.82 32.58,14.4 28.5,14.4 C 19.78,14.4 18,20.6 18,23.78 C 18,34.83 30.8,40.28 37,39.28 C 36.33,39.51 34.87,40.08 33.18,39.99 C 19.52,39.27 14,27.62 14,21.95 C 14,18.18 16.73,12 25.27,12 Z" fill="rgb(42, 93, 148)"/>
<path d="M 33.17,42.535 C 17.44,42.55 10.08,27.09 11.33,21 C 8.86,32.95 20.57,44 32.21,44 C 43.84,44 45,36.86 45,36 C 43.4,40.49 39.13,42.55 33.18,42.55 Z" fill="rgb(152, 152, 151)"/>
</svg>
