<?xml version="1.0" encoding="UTF-8"?>
<!-- generated by Finnhub -->
<svg viewBox="0 0 55.5 55.5" xmlns="http://www.w3.org/2000/svg">
<path d="M 0,0 H 55.5 V 55.5 H 0 Z" fill="rgb(2, 2, 99)"/>
<path d="M 12.49,30.615 C 12.5,31.14 12.3,31.51 11.87,31.75 C 11.54,31.94 11.06,32 10.43,32 S 9.33,31.93 8.99,31.73 C 8.59,31.48 8.38,31.1 8.38,30.57 V 29.29 C 8.94,29.19 10.14,29.01 10.14,29.01 V 30.61 C 10.14,30.73 10.16,30.82 10.21,30.89 C 10.26,30.95 10.34,30.97 10.45,30.97 C 10.55,30.97 10.62,30.95 10.67,30.89 A 0.44,0.44 0 0,0 10.74,30.62 V 29.24 H 12.5 V 30.64 Z M 21.48,32 H 19.73 V 31.7 C 19.63,31.79 19.5,31.84 19.3,31.9 A 2,2 0 0,1 18.65,32 C 18.28,32 17.97,31.91 17.73,31.72 C 17.49,31.53 17.36,31.34 17.36,31.07 V 28.35 L 19.12,28.25 V 30.65 C 19.12,30.85 19.22,30.96 19.42,30.96 C 19.52,30.96 19.6,30.94 19.65,30.89 A 0.37,0.37 0 0,0 19.73,30.65 V 28.22 L 21.48,28.15 V 32 Z M 23.97,30.96 C 24.05,30.96 24.12,30.94 24.17,30.89 A 0.31,0.31 0 0,0 24.26,30.65 V 28.87 A 1.81,1.81 0 0,0 23.96,28.97 A 0.58,0.58 0 0,0 23.78,29.07 A 0.42,0.42 0 0,0 23.65,29.39 V 30.65 C 23.65,30.75 23.68,30.83 23.73,30.89 C 23.78,30.94 23.86,30.96 23.95,30.96 H 23.97 Z M 23.95,31.93 C 23.79,31.96 23.59,32 23.34,32 C 22.81,32 22.44,31.88 22.22,31.7 C 22,31.53 21.89,31.3 21.89,30.95 V 29.57 C 21.89,29.01 22.29,28.55 23.07,28.19 L 23.3,28.09 L 23.95,28.08 L 26.02,28.04 V 32 H 24.46 V 31.66 C 24.38,31.82 24.24,31.86 24.07,31.9 L 23.95,31.93 Z M 17.05,30.63 C 17.05,31.07 16.89,31.41 16.6,31.63 L 17.07,32.48 H 15.62 L 15.34,31.99 L 14.98,32 C 14.35,32 13.88,31.93 13.53,31.73 C 13.12,31.48 12.91,31.1 12.91,30.57 V 28.7 L 14.67,28.54 V 30.61 C 14.67,30.71 14.69,30.81 14.75,30.88 C 14.8,30.94 14.88,30.96 14.98,30.96 S 15.15,30.94 15.2,30.88 A 0.45,0.45 0 0,0 15.28,30.61 V 28.5 L 17.04,28.37 V 30.63 Z M 30,32 H 28.79 C 28.03,32 27.56,31.83 27.39,31.64 C 27.21,31.44 27.13,30.98 27.13,30.27 V 28.04 L 28.05,28.03 H 28.89 V 30.26 C 28.89,30.46 28.96,30.6 29.1,30.68 C 29.2,30.74 29.37,30.77 29.58,30.77 H 30 V 32 Z M 36.5,28.23 V 32 H 34.74 V 28.15 L 36.5,28.23 Z M 34.4,30.63 C 34.4,31.15 34.2,31.53 33.79,31.75 C 33.46,31.94 32.99,32 32.36,32 C 31.73,32 31.23,31.93 30.89,31.73 C 30.48,31.48 30.27,31.1 30.27,30.57 V 28.04 L 32.03,28.07 V 30.62 C 32.03,30.72 32.06,30.82 32.11,30.89 C 32.16,30.95 32.23,30.97 32.33,30.97 S 32.52,30.95 32.57,30.89 A 0.45,0.45 0 0,0 32.64,30.62 V 28.09 C 33.24,28.09 33.82,28.12 34.4,28.14 V 30.64 Z M 41,32 H 39.24 V 28.38 L 41,28.51 V 32 Z M 43.41,30.96 H 43.42 C 43.52,30.96 43.58,30.94 43.62,30.89 A 0.34,0.34 0 0,0 43.72,30.65 V 28.87 A 1.5,1.5 0 0,0 43.42,28.97 A 0.66,0.66 0 0,0 43.24,29.07 A 0.41,0.41 0 0,0 43.11,29.39 V 30.65 C 43.11,30.75 43.13,30.83 43.19,30.89 C 43.24,30.94 43.32,30.96 43.41,30.96 Z M 43.41,31.93 C 43.26,31.96 43.05,32 42.79,32 C 42.27,32 41.89,31.88 41.68,31.7 C 41.46,31.53 41.35,31.3 41.35,30.95 V 29.57 C 41.35,29.2 41.52,28.87 41.87,28.59 A 102.19,102.19 0 0,1 45.47,28.97 V 32 H 43.92 V 31.66 C 43.83,31.82 43.7,31.86 43.52,31.9 L 43.42,31.93 Z M 47.67,32 H 45.9 V 29.03 C 46.5,29.1 47.1,29.19 47.66,29.28 V 32 Z" fill="rgb(254, 254, 253)"/>
<path d="M 19.72,27.585 V 25 H 21.48 V 27.5 L 21.95,27.48 V 26.4 C 21.95,25.89 22.16,25.52 22.6,25.28 C 22.92,25.11 23.38,25.02 23.95,25.01 C 23.92,25.01 23.99,25.01 23.95,25.01 C 24.58,25.01 25.15,25.11 25.45,25.31 C 25.83,25.54 26.02,25.93 26.02,26.46 V 27.39 L 27.13,27.38 V 26 H 26.35 V 25 H 27.13 V 24 H 28.89 V 25 H 29.84 V 26 H 28.89 V 27.37 L 30.27,27.38 V 26.45 C 30.27,25.94 30.47,25.55 30.89,25.31 A 2.8,2.8 0 0,1 32.33,25 C 32.91,25 33.42,25.12 33.8,25.36 C 34.2,25.59 34.4,25.94 34.4,26.39 V 27.49 L 34.74,27.51 V 25 H 36.5 V 25.27 L 36.8,25.12 A 2.37,2.37 0 0,1 37.6,25 C 37.96,25 38.26,25.1 38.5,25.29 C 38.75,25.48 38.86,25.71 38.86,25.98 V 27.76 L 39.23,27.79 V 25 H 41 V 27.94 L 42.7,28.12 C 43.37,27.79 43.72,27.56 43.72,27.42 V 26.4 C 43.72,26.3 43.69,26.2 43.64,26.15 A 0.3,0.3 0 0,0 43.41,26.06 A 0.3,0.3 0 0,0 43.2,26.16 C 43.14,26.21 43.11,26.29 43.11,26.4 V 27.76 H 41.41 V 26.4 C 41.41,25.89 41.63,25.52 42.06,25.28 A 3.2,3.2 0 0,1 43.5,25 C 44.13,25 44.6,25.1 44.9,25.3 C 45.28,25.53 45.46,25.92 45.46,26.45 V 28.48 L 45.56,28.5 L 45.89,28.55 V 23 H 47.66 V 28.86 C 49.47,29.21 50.95,29.61 51.99,30.06 A 61.9,61.9 0 0,0 42.64,28.5 A 117.2,117.2 0 0,0 40.11,28.27 A 143.4,143.4 0 0,0 32.32,27.87 A 165.14,165.14 0 0,0 23.94,27.87 A 144.15,144.15 0 0,0 13.39,28.5 A 93.28,93.28 0 0,0 10.43,28.85 C 7.91,29.18 5.75,29.59 4.03,30.05 C 5.08,29.61 6.55,29.21 8.37,28.86 V 26.46 C 8.37,25.94 8.57,25.56 8.97,25.31 C 9.31,25.1 9.8,25 10.42,25 S 11.52,25.1 11.86,25.27 C 12.28,25.5 12.49,25.87 12.49,26.39 V 28.22 L 12.9,28.17 V 26.45 C 12.9,25.94 13.1,25.55 13.52,25.31 A 2.8,2.8 0 0,1 14.97,25 C 15.54,25 16.04,25.12 16.44,25.36 C 16.83,25.59 17.04,25.94 17.04,26.39 V 27.77 L 17.34,27.75 V 25 H 19.11 V 27.63 L 19.71,27.59 Z M 36.8,26.09 C 36.7,26.09 36.62,26.11 36.57,26.16 C 36.52,26.21 36.5,26.29 36.5,26.39 V 27.6 L 36.8,27.62 L 37.1,27.64 V 26.4 C 37.1,26.2 37,26.09 36.8,26.09 Z M 32.33,27.43 H 32.63 V 26.4 C 32.63,26.3 32.62,26.2 32.56,26.15 A 0.3,0.3 0 0,0 32.33,26.06 A 0.3,0.3 0 0,0 32.13,26.16 A 0.33,0.33 0 0,0 32.03,26.4 V 27.42 H 32.33 Z M 23.95,27.42 H 24.25 V 26.4 C 24.25,26.3 24.23,26.2 24.18,26.15 A 0.3,0.3 0 0,0 23.95,26.06 A 0.3,0.3 0 0,0 23.73,26.16 C 23.68,26.21 23.65,26.29 23.65,26.4 V 27.43 L 23.95,27.42 Z M 14.98,27.95 L 15.28,27.92 V 26.4 C 15.28,26.3 15.25,26.2 15.2,26.15 A 0.3,0.3 0 0,0 14.98,26.06 A 0.31,0.31 0 0,0 14.76,26.16 C 14.7,26.21 14.67,26.29 14.67,26.4 V 27.98 L 14.97,27.95 Z M 10.44,27.98 H 10.74 V 26.4 C 10.74,26.3 10.72,26.2 10.67,26.15 A 0.3,0.3 0 0,0 10.45,26.06 A 0.31,0.31 0 0,0 10.23,26.16 C 10.17,26.21 10.14,26.29 10.14,26.4 V 27.98 H 10.44 Z M 40.11,24.25 H 39.23 V 23 H 41 V 24.25 H 40.12 Z" fill="rgb(254, 254, 253)"/>
</svg>
