<?xml version="1.0" encoding="UTF-8"?>
<!-- generated by Finnhub -->
<svg viewBox="0 0 55.5 55.5" xmlns="http://www.w3.org/2000/svg">
<path d="M 0,0 H 55.5 V 55.5 H 0 Z" fill="rgb(239, 242, 248)"/>
<path d="M 9.99,35.705 V 21.28 C 10,21.12 10.13,21 10.28,21 H 18.72 C 18.87,21 19,21.12 19,21.28 V 23.22 C 19,23.37 18.87,23.5 18.72,23.5 H 12.55 V 27.17 H 18.72 C 18.87,27.17 19,27.29 19,27.45 V 29.39 C 19,29.54 18.87,29.66 18.72,29.66 H 12.55 V 33.48 H 18.72 C 18.87,33.48 19,33.6 19,33.75 V 35.72 C 19,35.88 18.87,36 18.72,36 H 10.28 A 0.28,0.28 0 0,1 10,35.72 Z M 26.7,35.99 C 26.84,36.03 27,35.93 27,35.79 V 33.43 C 27,33.34 26.9,33.27 26.83,33.23 A 5.14,5.14 0 0,1 23.61,28.63 A 4.93,4.93 0 0,1 28.5,23.66 C 31.2,23.66 33.39,25.88 33.39,28.63 A 4.86,4.86 0 0,1 30.59,33.19 C 30.52,33.22 30.5,33.29 30.5,33.39 V 35.76 C 30.5,35.9 30.6,36 30.72,35.96 A 7.5,7.5 0 0,0 36,28.63 A 7.57,7.57 0 0,0 28.5,21 A 7.57,7.57 0 0,0 21,28.63 A 7.78,7.78 0 0,0 26.7,35.99 Z M 27.79,28 A 0.28,0.28 0 0,0 27.51,28.28 V 38.72 C 27.51,38.87 27.63,39 27.79,39 H 29.73 C 29.89,39 30.01,38.87 30.01,38.72 V 28.28 A 0.28,0.28 0 0,0 29.73,28 H 27.79 Z M 36.03,21.38 L 41.79,35.81 A 0.3,0.3 0 0,0 42.06,36 A 0.3,0.3 0 0,0 42.34,35.8 L 47.99,21.38 A 0.28,0.28 0 0,0 47.74,21 H 45.76 A 0.34,0.34 0 0,0 45.45,21.22 L 42.05,29.68 L 38.58,21.21 A 0.34,0.34 0 0,0 38.26,21 H 36.28 C 36.08,21 35.96,21.2 36.03,21.38 Z" fill="rgb(19, 29, 43)"/>
</svg>
