<?xml version="1.0" encoding="UTF-8"?>
<!-- generated by Finnhub -->
<svg viewBox="0 0 55.5 55.5" xmlns="http://www.w3.org/2000/svg">
<path d="M 0,28 A 28,28 0 1,1 56,28 A 28,28 0 0,1 0,28 Z" fill="rgb(9, 79, 140)"/>
<path d="M 8.99,31.985 H 4 V 24 H 9 V 25.71 H 6 V 27 H 9 V 28.57 H 6 V 30.29 H 9 V 32 Z M 16,32 H 14 L 12.34,28.57 H 12 V 32 H 10 V 24 H 12.72 C 14.01,24 15.54,24.54 15.5,26.29 C 15.5,27.8 14.64,28.39 14.08,28.57 L 16,32 Z M 12.47,25.44 H 12 V 27.43 H 12.47 C 13.03,27.43 13.5,27.03 13.5,26.46 C 13.5,25.76 13.03,25.44 12.47,25.44 Z M 25,32 H 22.95 L 22.38,30.29 H 19.52 L 18.96,32 H 17 L 20,24 H 22 L 25,32 Z M 22,29 L 21,26 L 20,29 H 22 Z M 28.38,32 C 27.41,32 26.54,31.59 26,31 L 26.78,29.86 C 27.27,30.44 27.5,30.5 27.99,30.5 C 28.49,30.5 29,30.2 29,29.68 S 28.4,28.94 28.1,28.81 C 27.06,28.34 26,28 26,26.31 C 26,24.78 27.51,24 28.73,24 C 29.52,24.02 30.41,24.4 31,25 L 30.33,26.24 C 29.93,25.78 29.58,25.5 29,25.5 C 28.5,25.5 28,25.65 28,26.25 C 28,27.02 29.05,27.27 29.54,27.48 C 30.36,27.8 31.02,28.46 31,29.48 A 2.5,2.5 0 0,1 28.38,32 Z" fill="rgb(239, 242, 248)"/>
<path d="M 51.99,28.985 H 45.85 L 45.11,27 H 51.27 L 52,29 Z" fill="rgb(82, 192, 175)"/>
<path d="M 44.940000000000005,31.985 H 47 L 45.87,29 H 40.12 L 39,32 H 40.96 L 41.52,30.29 H 44.38 L 44.95,32 Z M 40.87,27 H 42.67 L 43,26 L 43.33,27 H 45.13 L 44,24 H 42 L 40.87,27 Z M 36.02,30.29 C 36.68,30.29 37.27,30.02 37.69,29.59 L 38.49,31.17 A 4.08,4.08 0 0,1 32.1,29 H 33.94 A 2.32,2.32 0 0,0 36.03,30.29 Z M 33.93,27 A 2.32,2.32 0 0,1 37.58,26.3 L 38.28,24.68 A 4.08,4.08 0 0,0 32.08,27 H 33.93 Z" fill="rgb(239, 242, 248)"/>
</svg>
