<?xml version="1.0" encoding="UTF-8"?>
<!-- generated by Finnhub -->
<svg viewBox="0 0 55.5 55.5" xmlns="http://www.w3.org/2000/svg">
<path d="M 0,0 H 55.5 V 55.5 H 0 Z" fill="rgb(239, 242, 248)"/>
<path d="M 15.99,29.645 L 16.17,29.25 C 20.1,21.83 30.03,15 38.86,15 C 40.18,15 41.29,15.2 42.04,15.68 C 43.17,16.33 44,17.51 44,18.74 C 44,20.99 42.27,23.24 40.73,24.8 A 18.42,18.42 0 0,1 35.13,28.83 C 29.72,31.41 23.63,33.03 17.56,33 C 13.89,32.98 9.06,32.24 9,28.38 A 4.9,4.9 0 0,1 10.66,24.82 C 13.45,22.41 17.94,21.1 22,20.8 C 21.17,21.46 20.45,22.14 19.76,22.8 C 17.42,23.4 12,24.88 12,27.63 C 12,30.15 16.83,31 18.6,31 C 23.96,31 26.8,29.7 29.97,28.24 A 74.4,74.4 0 0,1 32.37,27.18 C 34.62,26.18 37.71,24.07 38.69,21.72 C 38.89,21.3 39,20.9 39,20.53 C 39,20.15 38.9,19.81 38.62,19.53 A 2.1,2.1 0 0,0 37.1,19 C 34.6,19.02 32.3,20.56 30.8,21.57 C 27.89,23.54 25.66,26.87 23.8,29.66 C 22.48,29.91 21.3,30 19.75,30 C 18.21,30 16.74,29.85 15.99,29.66 Z M 41.5,25 L 41.35,25.22 C 40.98,25.75 40.65,26.22 40.09,26.62 C 40.81,27.43 41,28.28 41,29.1 C 41,30.13 40.38,31.14 39.56,32.06 C 36.36,35.23 32.61,37.01 27.91,37 C 25.09,37 23.15,36.36 23,33.5 C 21.93,33.82 20.19,34 18.97,34 C 17.75,34 16.22,33.98 15,33.5 C 15,39.11 19.4,42 24.63,42 C 32.38,42 44,35.85 44,29.1 C 44,27.6 43.42,26.27 41.5,25 Z M 35.7,24.38 A 18.92,18.92 0 0,0 30.17,22.96 A 8.8,8.8 0 0,1 31.83,21.75 C 33.7,21.98 35.34,22.29 37.2,23.11 C 36.98,23.32 36.71,23.53 36.45,23.75 C 36.18,23.95 35.92,24.17 35.7,24.38 Z" fill="rgb(235, 176, 25)"/>
</svg>
