<?xml version="1.0" encoding="UTF-8"?>
<!-- generated by Finnhub -->
<svg viewBox="0 0 55.5 55.5" xmlns="http://www.w3.org/2000/svg">
<path d="M 0,0 H 55.5 V 55.5 H 0 Z" fill="rgb(239, 242, 248)"/>
<path d="M 45.99,29.985 L 48.15,25 H 49.85 L 52,30 H 50.89 L 49.07,25.52 H 48.93 L 47.11,30 H 46 Z M 47.4,28.6 V 27.95 H 50.59 V 28.6 H 47.4 Z M 42.29,30 H 41 V 25 H 42.29 V 30 Z M 41.71,29.33 H 46 V 30 H 41.7 V 29.33 Z M 36.29,30 H 35 V 25 H 36.29 V 30 Z M 35.71,29.33 H 40 V 30 H 35.7 V 29.33 Z M 29,30 V 25 H 30.2 V 30 H 29 Z M 29.36,30 V 29.34 H 34 V 30 H 29.36 Z M 29.7,27.78 V 27.13 H 33.87 V 27.78 H 29.7 Z M 29.35,25.65 V 25 H 34 V 25.65 H 29.35 Z M 26.68,30 L 26.46,28.99 C 26.43,28.8 26.36,28.64 26.26,28.51 A 0.89,0.89 0 0,0 25.82,28.21 A 2.5,2.5 0 0,0 24.99,28.09 H 22.88 V 27.47 H 25.12 C 25.64,27.47 26.02,27.39 26.24,27.24 A 0.74,0.74 0 0,0 26.58,26.6 V 26.49 A 0.7,0.7 0 0,0 26.23,25.86 A 2.2,2.2 0 0,0 25.1,25.65 H 22.85 V 25 H 25.28 C 26.18,25 26.83,25.12 27.24,25.36 C 27.66,25.59 27.87,25.92 27.87,26.35 V 26.48 C 27.87,26.79 27.75,27.05 27.51,27.25 C 27.28,27.45 26.89,27.58 26.34,27.63 V 27.73 L 25.8,27.62 C 26.27,27.64 26.63,27.7 26.89,27.81 C 27.15,27.91 27.34,28.05 27.45,28.24 C 27.57,28.42 27.66,28.64 27.73,28.9 L 28,30 H 26.68 Z M 22,30 V 25 H 23.25 V 30 H 22 Z M 17.37,30 V 25.14 H 18.64 V 30 H 17.37 Z M 15,25.66 V 25 H 21 V 25.66 H 15 Z M 12.41,30 A 7.85,7.85 0 0,1 10.11,29.66 L 10.01,28.91 A 7.1,7.1 0 0,0 12.32,29.34 C 12.85,29.34 13.23,29.28 13.48,29.16 C 13.73,29.04 13.85,28.86 13.85,28.63 V 28.57 A 0.5,0.5 0 0,0 13.7,28.2 C 13.6,28.1 13.43,28.01 13.2,27.94 A 7.41,7.41 0 0,0 12.24,27.74 C 11.7,27.64 11.27,27.54 10.94,27.42 A 1.67,1.67 0 0,1 10.23,26.98 C 10.08,26.79 10,26.57 10,26.3 V 26.26 C 10,25.86 10.2,25.55 10.6,25.33 C 11,25.11 11.6,25 12.41,25 A 7.31,7.31 0 0,1 14.63,25.32 L 14.73,26.02 A 5.73,5.73 0 0,0 11.75,25.72 A 0.92,0.92 0 0,0 11.29,25.94 C 11.19,26.04 11.15,26.15 11.15,26.29 V 26.3 C 11.15,26.45 11.2,26.57 11.29,26.67 C 11.39,26.77 11.55,26.86 11.79,26.93 C 12.03,27.01 12.36,27.09 12.8,27.16 C 13.33,27.25 13.75,27.35 14.07,27.46 C 14.39,27.56 14.62,27.71 14.77,27.88 C 14.92,28.06 15,28.28 15,28.58 V 28.65 C 15,29.09 14.78,29.43 14.35,29.65 C 13.92,29.89 13.27,30 12.41,30 Z M 4,30 V 25 H 5.2 V 30 H 4 Z M 4.36,30 V 29.34 H 9 V 30 H 4.36 Z M 4.7,27.78 V 27.13 H 8.87 V 27.78 H 4.7 Z M 4.35,25.65 V 25 H 9 V 25.65 H 4.35 Z"/>
<path d="M 24.619999999999997,31.785 C 17.96,36.76 10.99,38.47 9.07,35.63 C 8.51,34.8 8.44,33.69 8.77,32.4 H 9.17 C 8.87,33.58 8.93,34.6 9.43,35.35 C 11.23,38.01 17.93,36.27 24.4,31.47 C 30.87,26.67 34.65,20.61 32.85,17.95 C 31.05,15.29 24.35,17.03 17.88,21.83 C 17.03,22.46 16.23,23.11 15.48,23.78 L 15.11,23.58 C 15.91,22.87 16.76,22.18 17.66,21.5 C 24.33,16.54 31.3,14.83 33.22,17.67 C 35.14,20.52 31.29,26.84 24.62,31.8 Z" fill="rgb(43, 219, 239)"/>
<path d="M 22.619999999999997,17.695 L 22.29,14 L 21.94,17.71 L 20.13,16.43 L 21.4,18.26 L 17.71,18.6 L 21.41,18.94 L 20.13,20.77 L 21.94,19.49 L 22.29,23.2 L 22.63,19.49 L 24.45,20.77 L 23.17,18.94 L 26.86,18.6 L 23.16,18.26 L 24.45,16.43 L 22.63,17.71 Z" fill="rgb(43, 219, 239)"/>
</svg>
