<?xml version="1.0" encoding="UTF-8"?>
<!-- generated by Finnhub -->
<svg viewBox="0 0 55.5 55.5" xmlns="http://www.w3.org/2000/svg">
<path d="M 0,0 H 55.5 V 55.5 H 0 Z" fill="rgb(252, 224, 50)"/>
<path d="M 31.99,31.985 C 29.534,32 29.117,35 26.022,35 H 5.775 L 37.953,19.468 L 52.923,32 H 32 Z" fill="rgb(26, 68, 141)"/>
<path d="M 38.198,17.623 L 6.178,34 H 26.018 C 28.283,34 29.018,31 32.324,31 H 52.971 L 38.208,17.638 Z" fill="rgb(254, 254, 253)"/>
<path d="M 7.25,24.985 L 7.068,26 H 8.953 L 8.753,27 H 6.826 L 6.6,28 H 8.863 L 8.65,29.002 H 5 L 5.957,24.715 C 6.033,24.307 6.251,24 6.464,24 H 9.606 L 9.392,25 H 7.26 Z M 9.09,29.002 L 10.084,24 H 11.32 L 10.324,29.002 H 9.089 Z M 12.313,28.084 C 12.975,28.008 13.541,27.663 13.66,27.067 A 0.66,0.66 0 0,0 13.08,26.248 H 12.624 L 12.257,28.09 L 12.313,28.084 Z M 13.543,25.33 C 14.841,25.33 15.087,26.33 14.945,27.043 C 14.701,28.269 13.419,29.002 12.148,29.002 H 10.84 L 11.836,24 H 13.072 L 12.807,25.33 H 13.543 Z M 15.66,25 L 15.843,24 H 17.079 L 16.896,25 H 15.66 Z M 14.847,29.002 L 15.578,25.392 H 16.814 L 16.082,29.002 H 14.847 Z M 19.413,25 L 19.236,26 H 18.543 L 18.25,27.498 C 18.208,27.725 18.264,27.985 18.557,28 H 19.007 L 18.527,29.002 H 17.951 C 17.231,29.002 16.801,28.743 16.971,27.815 L 17.307,26 H 17.012 L 17.189,25 H 17.484 L 17.657,24.076 L 18.974,23.576 L 18.72,25 H 19.413 Z M 23.528,25 H 23.197 C 23.082,25.016 22.941,25.105 22.914,25.241 C 22.895,25.333 22.925,25.411 22.964,25.474 C 22.984,25.506 23.006,25.535 23.029,25.562 L 23.094,25.639 L 23.91,26.729 C 24.194,27.076 24.445,27.413 24.35,27.879 C 24.265,28.301 23.858,29.002 22.645,29.002 H 21 V 28 H 22.48 C 22.595,27.984 22.74,27.904 22.767,27.767 A 0.311,0.311 0 0,0 22.717,27.535 A 0.747,0.747 0 0,0 22.653,27.447 L 22.587,27.371 L 21.797,26.287 C 21.522,25.933 21.271,25.597 21.365,25.13 C 21.45,24.708 21.857,24 23.071,24 H 24.631 L 24.36,25 H 23.528 Z M 30.196,26 C 29.929,26 29.784,25.972 29.752,26.146 A 0.24,0.24 0 0,0 29.776,26.294 A 0.541,0.541 0 0,0 29.806,26.347 L 29.832,26.391 L 30.282,27.099 C 30.449,27.359 30.562,27.639 30.5,27.964 C 30.41,28.442 29.946,29 29.319,29 H 28.015 L 28,28 H 28.582 C 28.69,28 28.873,27.994 28.977,27.95 A 0.231,0.231 0 0,0 29.09,27.798 C 29.104,27.723 29.072,27.646 29.044,27.59 C 29.014,27.534 28.977,27.479 28.956,27.442 L 28.531,26.747 C 28.362,26.477 28.241,26.224 28.303,25.894 C 28.35,25.644 28.673,25 29.549,25 H 30.854 L 30.68,26 H 30.196 Z M 33.459,25 L 33.282,26 H 32.59 L 32.296,27.613 C 32.255,27.835 32.31,27.985 32.604,28 H 33.053 L 32.573,29.002 H 31.997 C 31.277,29.002 30.847,28.75 31.017,27.845 L 31.354,26 H 31.059 L 31.235,25 H 31.531 L 31.679,24.227 L 32.981,23.874 L 32.766,25 H 33.459 Z M 42.436,26.483 L 41.981,29 H 40.78 L 41.196,26.693 C 41.284,26.146 41.281,26.013 40.702,26 H 40.458 L 39.91,29 H 38.709 L 39.257,26 H 38.387 L 37.838,29 H 36.638 L 37.368,25 H 41.281 C 42.391,25 42.627,25.47 42.436,26.483 Z M 44.71,26 C 44.444,26 44.299,25.996 44.266,26.175 A 0.257,0.257 0 0,0 44.291,26.325 A 0.554,0.554 0 0,0 44.32,26.381 L 44.346,26.425 L 44.796,27.151 C 44.964,27.418 45.076,27.705 45.015,28.038 A 1.21,1.21 0 0,1 43.833,29 H 42.53 L 42.416,28.004 H 43.096 C 43.145,28.004 43.462,28.011 43.506,27.992 A 0.162,0.162 0 0,0 43.605,27.868 A 0.354,0.354 0 0,0 43.558,27.655 C 43.528,27.597 43.492,27.54 43.471,27.503 L 43.045,26.79 C 42.877,26.513 42.755,26.254 42.817,25.916 C 42.865,25.659 43.187,25 44.063,25 H 45.369 L 45.194,26 H 44.71 Z" fill="rgb(26, 68, 141)"/>
<path d="M 24.192999999999998,29.985 C 24.297,29.933 24.393,29.83 24.547,29.59 L 25.274,28.498 L 24.557,25 H 25.897 L 26.164,26.993 L 27.073,25 H 28.43 L 25.887,29.651 C 25.777,29.853 25.519,29.999 25.367,30 H 24.203 Z M 35.421,25.887 C 34.656,25.887 34.517,26.717 34.602,26.986 C 34.988,26.942 35.561,26.652 35.65,26.264 C 35.687,26.078 35.703,25.887 35.421,25.887 Z M 35.087,27.894 C 35.214,27.95 35.48,28.03 35.927,28.004 H 36.367 L 35.91,29 H 35.073 C 33.769,29 33.252,27.587 33.4,26.666 C 33.578,25.568 34.114,24.922 35.52,24.922 C 36.871,24.922 36.922,25.679 36.783,26.346 C 36.606,27.191 35.901,27.584 35.092,27.82 C 35.075,27.824 35.065,27.84 35.065,27.858 C 35.065,27.875 35.075,27.89 35.086,27.894 Z" fill="rgb(26, 68, 141)"/>
</svg>
