<?xml version="1.0" encoding="UTF-8"?>
<!-- generated by Finnhub -->
<svg viewBox="0 0 55.5 55.5" xmlns="http://www.w3.org/2000/svg">
<path d="M 0,0 H 55.5 V 55.5 H 0 Z" fill="rgb(229, 0, 101)"/>
<path d="M 10.863,28.985 C 11.378,27.008 10.936,24.918 8.403,24.918 C 6.393,24.918 4.843,26.138 4.211,28.232 C 3.634,30.637 4.13,33 7.083,33 C 8.289,33 8.978,32.797 10.098,32.36 L 10.299,31.343 C 9.495,31.604 8.719,31.779 8.174,31.779 C 6.279,31.779 5.704,30.541 5.964,29.001 L 10.874,29 Z M 8.173,25.936 C 9.093,25.936 9.5,26.5 9.179,28 H 6.164 C 6.5,26.5 7.342,25.936 8.174,25.936 Z M 34.736,32.36 C 33.616,32.796 32.927,33 31.721,33 C 29.453,33 28.161,31.778 28.649,29.104 C 29.079,26.517 30.774,24.919 33.042,24.919 C 35.574,24.919 36.016,27.007 35.512,29 H 30.602 C 30.342,30.54 30.917,31.778 32.812,31.778 C 33.358,31.778 34.134,31.604 34.938,31.342 L 34.736,32.36 Z M 34,28 C 34.373,26.402 33.731,25.935 32.812,25.935 C 31.808,25.935 31,27 30.803,28 H 34 Z M 42.145,24.918 C 44.558,24.918 45.246,25.674 44.874,27.796 L 43.808,33 H 41.855 L 42.864,28.028 C 43.094,26.749 43.036,25.994 41.485,25.994 C 41.025,25.994 40.595,26.139 40.135,26.254 L 38.783,33 H 36.888 L 38.27,25.732 C 38.959,25.382 40.538,24.918 42.147,24.918 Z M 19.144,26.372 A 6.971,6.971 0 0,0 17.019,25.994 C 15.841,25.994 15.583,26.458 15.525,27.011 C 15.497,27.331 15.583,27.534 16.215,27.912 L 17.449,28.493 C 18.225,28.871 18.856,29.685 18.77,30.528 C 18.598,32.098 17.765,32.999 15.123,32.999 C 14.319,32.999 13.429,32.882 12.166,32.563 L 12.366,31.488 C 13.429,31.778 14.061,31.924 14.836,31.924 C 16.014,31.924 16.386,31.544 16.444,30.964 C 16.473,30.702 16.473,30.383 15.813,30.063 L 14.635,29.366 C 13.573,28.813 13.142,28.29 13.257,27.33 C 13.429,25.819 14.75,24.918 16.847,24.918 C 17.536,24.918 18.139,25.034 19.402,25.354 L 19.144,26.372 Z M 27.069,26.372 A 6.822,6.822 0 0,0 24.944,25.994 C 23.795,25.994 23.508,26.458 23.48,27.011 C 23.422,27.331 23.508,27.534 24.14,27.912 L 25.375,28.493 C 26.15,28.871 26.811,29.685 26.695,30.528 C 26.523,32.098 25.69,32.999 23.048,32.999 C 22.244,32.999 21.412,32.882 20.091,32.563 L 20.291,31.488 C 21.354,31.778 21.986,31.924 22.79,31.924 C 23.939,31.924 24.312,31.544 24.37,30.964 C 24.427,30.702 24.427,30.383 23.738,30.063 L 22.56,29.366 C 21.498,28.813 21.096,28.29 21.182,27.33 C 21.354,25.819 22.675,24.918 24.8,24.918 C 25.49,24.918 26.064,25.034 27.327,25.354 L 27.069,26.372 Z M 52.063,25 L 51.737,26 H 49.526 L 48.836,30.267 C 48.693,31.111 48.75,31.604 49.899,31.604 C 50.215,31.604 50.53,31.546 51.019,31.459 L 50.818,32.564 C 49.583,32.884 49.124,32.942 48.693,32.942 C 46.999,32.942 46.481,32.361 46.798,30.587 L 47.572,26 H 46.672 L 46.869,25 H 47.759 L 48.119,23 H 50.129 L 49.755,25 H 52.063 Z" fill="rgb(254, 254, 253)"/>
</svg>
