<?xml version="1.0" encoding="UTF-8"?>
<!-- generated by Finnhub -->
<svg viewBox="0 0 55.5 55.5" xmlns="http://www.w3.org/2000/svg">
<path d="M 0,0 H 55.5 V 55.5 H 0 Z" fill="rgb(239, 242, 248)"/>
<path d="M 15.55,16.105 C 15.56,16.1 15.76,16.06 16.02,16.05 L 18.58,16.01 L 20.68,16 L 21.5,16.35 C 23.56,17.21 26.85,18.33 31.38,19.7 A 88.31,88.31 0 0,0 44.99,22.84 C 45.33,22.88 45.6,22.94 45.6,22.97 C 45.6,23.01 45.5,23.02 45.37,23 C 45.25,22.99 44.62,22.92 43.97,22.87 C 41.14,22.61 37.26,22.04 34.09,21.41 C 30.19,20.63 23.4,18.89 20.03,17.8 A 47.09,47.09 0 0,1 15.56,16.12 Z M 28.77,17.25 A 12.9,12.9 0 0,1 26.59,16.05 C 26.59,16.02 28.02,16 29.77,16 H 32.94 L 33.91,16.67 C 35.97,18.1 37.91,19.21 40.64,20.54 C 42.66,21.51 44,22.09 45.18,22.47 C 46.6,22.94 45.67,22.82 43.21,22.22 A 91.57,91.57 0 0,1 28.77,17.25 Z M 9.16,20.23 C 9.46,19.17 10.02,18.23 10.77,17.5 L 11.2,17.09 L 11.56,17.29 C 14.69,19.01 22.36,20.73 34.32,22.39 C 40.29,23.23 44.68,23.66 48.55,23.8 L 48.96,23.82 L 48.98,30.71 L 49,38 L 31.46,38 C 14.59,37.98 13.79,38 13.09,37.73 L 12.77,37.6 C 11.09,36.98 9.69,35.02 9.16,33.16 L 9,32.62 V 20.77 L 9.16,20.23 Z M 46.86,27.26 C 46.47,25.76 45.46,25.2 42.83,25.06 C 42.23,25.02 41.65,25 41.56,25 C 39.33,25.1 38.73,25.19 38.06,25.47 C 37.66,25.64 37.19,26.09 37.02,26.47 A 4.6,4.6 0 0,0 36.73,27.89 V 28.11 H 38.51 L 38.55,27.67 C 38.65,26.68 39.1,26.24 40.66,26.08 C 41.06,26.04 41.82,25.98 42.38,26 C 44.72,26.1 45,27.3 45,29.4 V 30.53 C 44.5,29.93 44.15,29.72 43.37,29.56 A 22.8,22.8 0 0,0 38.9,29.53 C 38.2,29.66 37.6,29.86 37.29,30.09 A 3.45,3.45 0 0,0 36,32.67 C 36,32.91 36,33.16 36.03,33.4 C 36.28,35.4 37.89,36.09 41.51,35.98 C 43.43,35.92 43.88,35.69 44.63,35 L 44.99,34.67 L 44.94,35.15 V 35.22 C 44.91,35.48 44.88,35.8 44.86,35.86 C 44.83,35.96 45.26,35.98 46.09,35.98 H 46.99 V 31.83 C 46.99,28 46.99,27.77 46.85,27.26 Z M 22.78,27.32 C 22.28,25.77 21.29,25.21 18.8,25.05 A 13.18,13.18 0 0,0 16.4,25.06 C 13.87,25.22 12.72,25.93 12.28,27.66 A 15.17,15.17 0 0,0 12.07,32.09 C 12.29,34.42 13.06,35.4 14.98,35.81 C 15.8,35.98 18.22,36.05 19.4,35.94 C 21.42,35.75 22.33,35.34 22.8,34.42 C 23.01,34.02 23.05,33.89 23.08,33.32 L 23.11,32.67 H 21.25 L 21.2,33.17 C 21.11,34.11 20.77,34.48 19.9,34.63 C 18.7,34.83 16.21,34.78 15.37,34.53 C 14.87,34.39 14.42,33.93 14.22,33.41 A 7.93,7.93 0 0,1 13.92,31.24 V 31 H 23 V 30.27 C 23,29.12 22.96,27.87 22.78,27.32 Z M 32.49,25.22 A 23.39,23.39 0 0,0 29.78,25 C 29.42,25 29.07,25.02 28.26,25.06 C 26.26,25.16 25.31,25.49 24.81,26.26 C 24.55,26.66 24.46,27.14 24.46,28.06 C 24.46,29.11 24.63,29.64 25.08,30.08 C 25.75,30.75 26.88,30.95 30.81,31.1 C 32.53,31.16 32.76,31.23 33.01,31.76 C 33.16,32.04 33.18,32.19 33.18,32.8 C 33.18,33.43 33.16,33.56 33.01,33.86 C 32.7,34.48 32.2,34.68 30.61,34.79 C 29.5,34.87 27.79,34.79 27.17,34.63 C 26.55,34.47 26.19,33.87 26.19,33 V 32.53 H 24.33 V 32.79 C 24.29,34.23 24.69,34.99 25.74,35.49 C 26.54,35.86 27.61,36 29.63,36 C 32.36,36 33.63,35.73 34.33,35 C 35.35,33.97 35.29,31.49 34.24,30.6 C 33.54,30 33.05,29.9 30.12,29.78 C 27.42,29.67 27.3,29.66 26.9,29.47 C 26.44,29.25 26.3,28.88 26.3,27.94 C 26.3,27.32 26.32,27.15 26.44,26.92 C 26.74,26.36 27.38,26.22 29.62,26.22 C 32.26,26.21 32.73,26.4 32.85,27.49 L 32.89,27.91 H 34.67 V 27.48 C 34.67,26.24 33.99,25.53 32.49,25.23 Z M 39.95,30.63 C 38.37,30.78 37.94,31.26 38.01,32.77 C 38.08,34.41 38.61,34.74 41.2,34.73 C 42.64,34.73 43.31,34.63 44.02,34.37 C 44.8,34.07 45.04,33.61 44.99,32.52 C 44.95,31.53 44.67,31.12 43.83,30.84 C 43.13,30.59 41.33,30.5 39.95,30.63 Z M 14.1,27.47 C 14.36,26.67 14.96,26.22 15.98,26.06 A 16.3,16.3 0 0,1 19.68,26.17 C 20.74,26.51 21.08,27.17 21.12,29.07 L 21.14,29.96 L 17.48,29.98 L 13.82,30 V 29.7 C 13.82,29.02 13.97,27.9 14.1,27.47 Z" fill="rgb(10, 117, 187)"/>
</svg>
