<?xml version="1.0" encoding="UTF-8"?>
<!-- generated by Finnhub -->
<svg viewBox="0 0 55.5 55.5" xmlns="http://www.w3.org/2000/svg">
<path d="M 0,0 H 55.5 V 55.5 H 0 Z" fill="rgb(239, 242, 248)"/>
<path d="M 42.99,26.985 A 15,15 0 1,1 14.5,20.45 V 23.28 A 14.02,14.02 0 0,0 28,41 A 14,14 0 0,0 41.5,23.28 V 20.45 C 42.46,22.43 43,24.65 43,27 Z M 38.72,16.5 H 37.27 A 13.95,13.95 0 0,0 28,13 C 24.44,13 21.2,14.33 18.73,16.5 H 17.28 A 14.96,14.96 0 0,1 28,12 C 32.2,12 36,13.73 38.72,16.5 Z" fill="url(#a)"/>
<path d="M 14.99,16.985 H 41 V 29.72 C 40.76,30.57 40.42,31.45 40,32.3 V 18 H 16 V 32.5 C 15.62,31.76 15.29,31 15,30.2 V 17 Z M 15,35.82 V 42 H 23.42 C 22.55,41.74 21.72,41.4 20.92,41 H 16 V 37.13 C 15.64,36.71 15.31,36.28 15,35.83 Z M 35.08,41 C 34.28,41.4 33.45,41.74 32.58,42 H 41 V 35.82 C 40.69,36.28 40.36,36.72 40,37.13 V 41 H 35.08 Z" fill="rgb(87, 88, 89)"/>
<circle cx="28" cy="23.5" r="1.5" fill="rgb(167, 136, 78)"/>
<defs>
<linearGradient id="a" x1="41.74" x2="16.17" y1="16.52" y2="35.42" gradientUnits="userSpaceOnUse">
<stop stop-color="rgb(168, 137, 74)" offset="0"/>
<stop stop-color="rgb(210, 170, 120)" offset=".43"/>
<stop stop-color="rgb(164, 134, 70)" offset="1"/>
</linearGradient>
</defs>
</svg>
