<?xml version="1.0" encoding="UTF-8"?>
<!-- generated by Finnhub -->
<svg viewBox="0 0 55.5 55.5" xmlns="http://www.w3.org/2000/svg">
<path d="M 0,0 H 55.5 V 55.5 H 0 Z" fill="rgb(7, 49, 118)"/>
<path d="M 31.115,28.974999999999998 S 30.958,28.474 30.819,28.16 C 30.402,28.191 25.905,29.919 22.482,32.307 A 36.015,36.015 0 0,0 25.39,31.867 C 28.249,29.953 31.125,28.991 31.125,28.991 Z M 19.215,35.444 C 18.62,36.398 18.395,37.38 18.767,38.35 C 18.842,38.46 19.697,41.007 19.809,41.19 C 19.573,39.151 20.173,37.366 21.202,35.836 A 9.87,9.87 0 0,1 19.215,35.444 Z M 28.445,21.464 S 28.277,20.949 28.137,20.635 C 27.727,20.667 23.333,22.35 19.927,24.695 A 38.556,38.556 0 0,0 22.839,24.253 C 25.656,22.398 28.446,21.464 28.446,21.464 Z M 16.56,27.878 C 15.946,28.843 15.71,29.841 16.088,30.825 C 16.161,30.935 17.016,33.48 17.129,33.664 C 16.887,31.587 17.517,29.775 18.581,28.227 C 17.848,28.167 17.171,28.05 16.561,27.878 Z" fill="rgb(184, 194, 203)"/>
<path d="M 13.173,23.174 C 13.258,23.301 14.113,25.845 14.226,26.029 C 13.285,17.924 25.541,13.829 25.541,13.829 S 25.375,13.312 25.235,13 C 24.507,13.055 11.303,18.284 13.183,23.189 Z" fill="rgb(184, 194, 203)"/>
<path d="M 13.21,23.137999999999998 C 13.444,23.816 13.89,25.44 14.188,26.029 C 18.134,30.973 37.416,24.223 37.416,24.223 S 36.152,20.791 35.854,20.128 C 34.997,20.423 16.886,27.08 13.221,23.153 Z M 18.804,38.314 C 19.027,38.976 19.474,40.601 19.771,41.19 C 23.717,46.134 43,39.383 43,39.383 S 41.734,35.952 41.437,35.29 C 40.581,35.584 22.472,42.243 18.804,38.314 Z M 35.512,33.334 C 29.529,34.984 19.772,37.023 17.092,33.664 C 16.795,33.076 16.346,31.453 16.124,30.788 C 18.667,33.512 28.128,31.008 33.992,29.201 L 35.512,33.334 Z" fill="rgb(254, 254, 253)"/>
</svg>
