<?xml version="1.0" encoding="UTF-8"?>
<!-- generated by Finnhub -->
<svg viewBox="0 0 55.5 55.5" xmlns="http://www.w3.org/2000/svg">
<path d="M 0,0 H 55.5 V 55.5 H 0 Z" fill="rgb(239, 242, 248)"/>
<path d="M 20.99,19.985 A 5,5 0 0,1 25.16,27.77 L 21.1,35.54 A 0.86,0.86 0 0,1 20.35,36 A 0.87,0.87 0 0,1 19.49,35.11 V 35.08 C 19.49,34.92 19.53,34.77 19.61,34.63 L 22.24,29.85 A 5,5 0 1,1 21,20 Z M 21,21.5 A 3.5,3.5 0 1,1 21,28.5 A 3.5,3.5 0 0,1 21,21.5 Z M 14.5,23.5 A 3.5,3.5 0 0,1 12.96,26.4 A 5,5 0 1,1 9.04,26.4 A 3.5,3.5 0 1,1 14.5,23.5 Z M 11,25.5 A 2,2 0 1,0 11,21.5 A 2,2 0 0,0 11,25.5 Z M 11,34.5 A 3.5,3.5 0 1,0 11,27.5 A 3.5,3.5 0 0,0 11,34.5 Z" fill="rgb(157, 171, 178)" fill-rule="evenodd"/>
<path d="M 26.99,20.845 C 27,20.39 27.34,20 27.75,20 S 28.5,20.39 28.5,20.86 V 27.43 A 4.98,4.98 0 0,1 37,31 A 5,5 0 1,1 27,30.84 V 20.86 Z M 32,34.5 A 3.5,3.5 0 1,0 32,27.5 A 3.5,3.5 0 0,0 32,34.5 Z M 51,31 A 5,5 0 1,1 41,31 A 5,5 0 0,1 51,31 Z M 49.5,31 A 3.5,3.5 0 1,1 42.5,31 A 3.5,3.5 0 0,1 49.5,31 Z M 38,26.81 C 38,26.25 38.34,26 38.75,26 S 39.5,26.25 39.5,26.81 V 35.16 C 39.5,35.72 39.16,36 38.75,36 S 38,35.72 38,35.16 V 26.81 Z M 38.75,24.5 A 0.75,0.75 0 1,0 38.75,23 A 0.75,0.75 0 0,0 38.75,24.5 Z" fill="rgb(38, 149, 217)" fill-rule="evenodd"/>
</svg>
