<?xml version="1.0" encoding="UTF-8"?>
<!-- generated by Finnhub -->
<svg viewBox="0 0 55.5 55.5" xmlns="http://www.w3.org/2000/svg">
<path d="M 0,0 H 55.5 V 55.5 H 0 Z" fill="url(#j)"/>
<path d="M 22.006999999999998,24.404 C 22.475,24.9 22.697,25.433 22.513,25.609 C 22.328,25.784 21.807,25.536 21.349,25.055 C 20.891,24.573 20.669,24.041 20.853,23.865 C 21.038,23.69 21.559,23.937 22.017,24.419 Z" fill="url(#i)"/>
<path d="M 25.182,28.183 C 25.561,28.872 25.678,29.517 25.455,29.639 C 25.232,29.761 24.752,29.314 24.383,28.64 C 24.014,27.966 23.897,27.321 24.12,27.199 C 24.344,27.076 24.824,27.524 25.192,28.198 Z" fill="url(#b)"/>
<path d="M 26.051,31.737 C 26.309,32.457 26.273,33.112 25.981,33.214 C 25.688,33.317 25.251,32.829 25.003,32.124 C 24.755,31.419 24.791,30.764 25.083,30.661 C 25.376,30.558 25.813,31.047 26.062,31.751 Z" fill="url(#b)"/>
<path d="M 27.47,32.888 C 27.673,33.695 27.655,34.379 27.442,34.431 C 27.228,34.483 26.899,33.883 26.706,33.091 C 26.514,32.299 26.531,31.614 26.744,31.563 C 26.958,31.511 27.287,32.111 27.48,32.903 Z" fill="url(#b)"/>
<path d="M 27.601,36.345 C 27.669,37.114 27.511,37.742 27.259,37.76 C 27.007,37.78 26.756,37.184 26.699,36.43 C 26.641,35.675 26.799,35.048 27.051,35.028 C 27.303,35.009 27.554,35.605 27.611,36.36 Z" fill="url(#b)"/>
<path d="M 27.221999999999998,39.427 C 27.159,40.149 26.877,40.7 26.602,40.672 C 26.327,40.642 26.164,40.046 26.237,39.339 C 26.311,38.631 26.593,38.08 26.867,38.109 C 27.142,38.137 27.305,38.734 27.232,39.442 Z" fill="url(#b)"/>
<path d="M 26.014999999999997,38.382 C 26.001,39.067 25.698,39.601 25.347,39.589 C 24.997,39.576 24.732,39.022 24.756,38.352 C 24.78,37.681 25.083,37.147 25.434,37.159 C 25.784,37.172 26.049,37.726 26.025,38.397 Z" fill="url(#b)"/>
<path d="M 26.340999999999998,35.101 C 26.461,35.809 26.27,36.416 25.923,36.471 C 25.577,36.526 25.207,36.008 25.097,35.315 C 24.987,34.621 25.179,34.015 25.525,33.96 C 25.872,33.905 26.241,34.422 26.351,35.116 Z" fill="url(#b)"/>
<path d="M 24.505999999999997,34.389 C 24.668,35.009 24.482,35.578 24.099,35.674 C 23.716,35.77 23.283,35.358 23.131,34.752 C 22.978,34.147 23.165,33.578 23.547,33.482 C 23.93,33.385 24.363,33.798 24.516,34.404 Z" fill="url(#b)"/>
<path d="M 24.203,30.91 C 24.488,31.538 24.448,32.154 24.123,32.299 C 23.799,32.445 23.313,32.066 23.038,31.453 C 22.763,30.84 22.803,30.225 23.128,30.079 C 23.453,29.933 23.938,30.312 24.213,30.925 Z" fill="url(#b)"/>
<path d="M 22.176,30.637 C 22.483,31.183 22.452,31.766 22.118,31.952 C 21.784,32.138 21.272,31.859 20.976,31.327 C 20.679,30.796 20.71,30.214 21.044,30.027 C 21.379,29.841 21.89,30.121 22.186,30.652 Z" fill="url(#b)"/>
<path d="M 23.384999999999998,27.585 C 23.773,28.128 23.878,28.701 23.628,28.88 C 23.378,29.06 22.868,28.777 22.49,28.25 C 22.111,27.722 22.007,27.15 22.257,26.97 C 22.507,26.79 23.016,27.073 23.395,27.6 Z" fill="url(#b)"/>
<path d="M 21.494999999999997,27.368 C 21.856,27.872 21.924,28.423 21.656,28.615 C 21.389,28.807 20.888,28.567 20.537,28.078 C 20.187,27.59 20.119,27.038 20.387,26.846 C 20.654,26.654 21.155,26.895 21.505,27.383 Z" fill="url(#b)"/>
<path d="M 19.537999999999997,27.538999999999998 C 19.84,27.96 19.859,28.445 19.592,28.637 C 19.325,28.829 18.872,28.655 18.58,28.249 C 18.288,27.842 18.268,27.357 18.536,27.165 C 18.803,26.973 19.256,27.147 19.548,27.554 Z" fill="url(#i)"/>
<path d="M 20.334999999999997,24.435 C 20.771,24.86 20.957,25.358 20.76,25.563 C 20.563,25.767 20.058,25.602 19.632,25.193 C 19.206,24.783 19.02,24.285 19.217,24.08 C 19.414,23.876 19.919,24.041 20.345,24.45 Z" fill="url(#a)"/>
<path d="M 18.555999999999997,24.602 C 18.924,24.961 19.056,25.403 18.863,25.605 C 18.669,25.806 18.222,25.691 17.864,25.347 S 17.373,24.56 17.567,24.359 C 17.761,24.157 18.207,24.273 18.566,24.617 Z" fill="url(#a)"/>
<path d="M 16.679,24.855 C 17.025,25.16 17.149,25.566 16.966,25.778 C 16.784,25.99 16.363,25.926 16.027,25.636 C 15.691,25.346 15.567,24.94 15.75,24.728 C 15.932,24.516 16.353,24.58 16.689,24.87 Z" fill="url(#a)"/>
<path d="M 13.954,22.907 C 14.284,23.118 14.464,23.408 14.364,23.571 C 14.266,23.734 13.925,23.706 13.604,23.511 C 13.284,23.315 13.104,23.024 13.204,22.861 C 13.304,22.699 13.644,22.726 13.964,22.922 Z" fill="url(#a)"/>
<path d="M 15.512,22.431 C 15.886,22.668 16.088,23.001 15.972,23.19 C 15.857,23.38 15.468,23.352 15.104,23.13 C 14.74,22.907 14.539,22.574 14.654,22.385 C 14.77,22.196 15.158,22.223 15.522,22.445 Z" fill="url(#a)"/>
<path d="M 17.139999999999997,22.157999999999998 C 17.566,22.428 17.81,22.787 17.695,22.976 C 17.58,23.165 17.148,23.112 16.732,22.857 C 16.315,22.602 16.071,22.243 16.186,22.054 C 16.302,21.865 16.733,21.919 17.15,22.174 Z" fill="url(#a)"/>
<path d="M 18.576999999999998,21.849999999999998 C 19.049,22.179 19.328,22.576 19.209,22.751 C 19.089,22.926 18.619,22.813 18.156,22.499 C 17.693,22.184 17.414,21.787 17.533,21.612 C 17.653,21.437 18.123,21.55 18.587,21.865 Z" fill="url(#a)"/>
<path d="M 15.207,20.159 C 15.651,20.367 15.947,20.649 15.879,20.803 C 15.81,20.956 15.403,20.923 14.969,20.73 C 14.535,20.536 14.239,20.255 14.308,20.101 C 14.376,19.948 14.784,19.98 15.218,20.174 Z" fill="url(#a)"/>
<path d="M 13.905,20.558 C 14.325,20.737 14.607,20.996 14.545,21.153 C 14.482,21.309 14.099,21.303 13.689,21.139 S 12.997,20.716 13.059,20.559 C 13.121,20.403 13.505,20.409 13.915,20.573 Z" fill="url(#a)"/>
<path d="M 12.632,20.987 C 12.984,21.139 13.216,21.363 13.16,21.504 C 13.104,21.644 12.781,21.647 12.44,21.511 C 12.097,21.374 11.866,21.15 11.922,21.009 C 11.978,20.869 12.3,20.866 12.642,21.002 Z" fill="url(#a)"/>
<path d="M 11.86,19.227999999999998 C 12.274,19.307 12.588,19.447 12.57,19.555 C 12.554,19.663 12.212,19.699 11.807,19.635 C 11.402,19.57 11.088,19.431 11.105,19.323 C 11.123,19.214 11.465,19.179 11.869,19.243 Z" fill="url(#a)"/>
<path d="M 10.924,19.672 C 11.276,19.758 11.534,19.903 11.513,20.01 C 11.49,20.117 11.195,20.146 10.853,20.076 C 10.511,20.004 10.252,19.86 10.274,19.753 C 10.296,19.645 10.592,19.616 10.934,19.687 Z" fill="url(#a)"/>
<path d="M 10.134,20.152 C 10.406,20.221 10.605,20.329 10.589,20.407 C 10.573,20.485 10.347,20.504 10.085,20.449 C 9.823,20.395 9.625,20.288 9.64,20.209 C 9.656,20.132 9.882,20.113 10.144,20.167 Z" fill="url(#a)"/>
<path d="M 8.868,18.985 C 9.186,19 9.436,19.054 9.436,19.12 S 9.186,19.24 8.878,19.24 C 8.569,19.24 8.319,19.186 8.319,19.12 S 8.569,19 8.878,19 Z" fill="url(#a)"/>
<path d="M 8.429,19.384 C 8.681,19.399 8.878,19.435 8.878,19.479 C 8.878,19.523 8.681,19.559 8.438,19.559 C 8.196,19.559 8,19.523 8,19.479 C 8,19.435 8.196,19.399 8.439,19.399 Z" fill="url(#a)"/>
<path d="M 11.65,21.589 C 11.89,21.714 12.03,21.904 11.971,22.025 C 11.912,22.147 11.678,22.156 11.447,22.045 C 11.217,21.935 11.077,21.745 11.136,21.623 C 11.194,21.502 11.429,21.493 11.66,21.603 Z" fill="url(#a)"/>
<path d="M 28.487,37.183 C 28.543,37.682 28.432,38.088 28.248,38.107 C 28.064,38.124 27.878,37.747 27.831,37.262 C 27.784,36.778 27.895,36.372 28.079,36.354 C 28.263,36.336 28.449,36.714 28.497,37.198 Z" fill="url(#e)"/>
<path d="M 28.279999999999998,35.012 C 28.247,35.564 28.05,35.986 27.85,35.97 C 27.65,35.954 27.523,35.506 27.566,34.969 C 27.609,34.432 27.806,34.01 28.006,34.026 C 28.206,34.042 28.333,34.49 28.29,35.027 Z" fill="url(#e)"/>
<path d="M 29.651999999999997,34.264 C 29.576,34.81 29.289,35.206 29.02,35.162 C 28.752,35.118 28.604,34.652 28.69,34.121 C 28.776,33.589 29.064,33.194 29.332,33.237 C 29.601,33.281 29.749,33.747 29.662,34.279 Z" fill="url(#e)"/>
<path d="M 28.397,32.572 C 28.258,33.209 27.979,33.676 27.783,33.629 C 27.587,33.583 27.548,33.04 27.697,32.417 C 27.845,31.795 28.124,31.328 28.32,31.375 C 28.516,31.422 28.555,31.965 28.407,32.587 Z" fill="url(#e)"/>
<path d="M 29.854,31.768 C 29.64,32.367 29.247,32.76 28.988,32.66 C 28.728,32.56 28.7,32.006 28.924,31.422 C 29.148,30.838 29.54,30.446 29.8,30.545 C 30.06,30.645 30.088,31.199 29.864,31.783 Z" fill="url(#e)"/>
<path d="M 28.875999999999998,29.832 C 28.612,30.478 28.243,30.927 28.064,30.849 C 27.884,30.771 27.961,30.195 28.235,29.564 C 28.51,28.932 28.878,28.484 29.058,28.561 C 29.238,28.64 29.161,29.215 28.886,29.847 Z" fill="url(#e)"/>
<path d="M 30.369999999999997,29.114 C 30.051,29.71 29.611,30.084 29.398,29.963 C 29.184,29.843 29.278,29.273 29.606,28.691 C 29.935,28.109 30.374,27.736 30.588,27.857 C 30.802,27.977 30.708,28.547 30.38,29.129 Z" fill="url(#h)"/>
<path d="M 32.09,28.668 C 31.797,29.149 31.361,29.404 31.127,29.253 C 30.892,29.1 30.947,28.599 31.25,28.133 C 31.553,27.666 31.988,27.411 32.222,27.563 C 32.457,27.715 32.402,28.217 32.099,28.683 Z" fill="url(#f)"/>
<path d="M 33.807,28.686 C 33.489,29.131 33.022,29.327 32.774,29.138 C 32.526,28.948 32.59,28.446 32.917,28.016 C 33.245,27.586 33.712,27.391 33.96,27.58 C 34.209,27.769 34.144,28.27 33.817,28.701 Z" fill="url(#f)"/>
<path d="M 36.196000000000005,26.250999999999998 C 35.9,26.57 35.509,26.673 35.332,26.496 C 35.155,26.317 35.258,25.926 35.563,25.622 C 35.868,25.318 36.259,25.215 36.437,25.392 C 36.614,25.57 36.511,25.962 36.206,26.266 Z" fill="url(#g)"/>
<path d="M 34.623000000000005,26.012 C 34.279,26.381 33.848,26.523 33.671,26.345 C 33.494,26.168 33.637,25.737 33.991,25.384 C 34.345,25.03 34.776,24.888 34.954,25.066 C 35.131,25.243 34.988,25.674 34.634,26.027 Z" fill="url(#f)"/>
<path d="M 33.074000000000005,26.016 C 32.709,26.464 32.248,26.679 32.054,26.511 C 31.86,26.343 32.007,25.856 32.382,25.424 C 32.756,24.991 33.217,24.776 33.411,24.944 C 33.605,25.112 33.458,25.599 33.084,26.031 Z" fill="url(#f)"/>
<path d="M 31.476,26.297 C 31.074,26.856 30.596,27.188 30.419,27.054 C 30.241,26.919 30.429,26.369 30.841,25.824 C 31.253,25.28 31.731,24.948 31.908,25.083 C 32.086,25.217 31.897,25.767 31.486,26.312 Z" fill="url(#f)"/>
<path d="M 34.449000000000005,23.428 C 34.03,23.813 33.589,24.003 33.471,23.868 C 33.355,23.733 33.607,23.323 34.035,22.953 C 34.464,22.583 34.905,22.393 35.023,22.528 C 35.14,22.663 34.887,23.073 34.459,23.443 Z" fill="url(#g)"/>
<path d="M 35.801,23.652 C 35.415,23.971 34.989,24.08 34.859,23.911 C 34.729,23.741 34.944,23.357 35.34,23.053 C 35.736,22.749 36.163,22.64 36.293,22.81 C 36.423,22.98 36.208,23.363 35.811,23.667 Z" fill="url(#c)"/>
<path d="M 37.230000000000004,23.86 C 36.888,24.145 36.497,24.227 36.367,24.057 C 36.237,23.887 36.417,23.531 36.769,23.261 C 37.121,22.991 37.513,22.908 37.643,23.078 C 37.773,23.248 37.593,23.604 37.24,23.875 Z" fill="url(#c)"/>
<path d="M 38.687000000000005,24.182 C 38.385,24.437 38.026,24.494 37.895,24.325 C 37.765,24.155 37.913,23.823 38.226,23.583 S 38.898,23.286 39.028,23.455 C 39.158,23.625 39.01,23.957 38.698,24.197 Z" fill="url(#c)"/>
<path d="M 40.986000000000004,22.598 C 40.703,22.76 40.404,22.755 40.327,22.602 C 40.25,22.448 40.425,22.205 40.717,22.058 C 41.011,21.912 41.31,21.917 41.387,22.07 C 41.464,22.223 41.289,22.466 40.997,22.613 Z" fill="url(#c)"/>
<path d="M 42.980000000000004,21.438 C 42.772,21.533 42.57,21.527 42.538,21.441 C 42.507,21.355 42.658,21.221 42.876,21.141 C 43.094,21.061 43.296,21.067 43.327,21.153 C 43.359,21.239 43.207,21.373 42.99,21.453 Z" fill="url(#d)"/>
<path d="M 42.25,20.955 C 41.965,21.058 41.7,21.046 41.669,20.942 C 41.638,20.838 41.851,20.682 42.147,20.592 C 42.442,20.504 42.707,20.516 42.737,20.62 C 42.769,20.724 42.555,20.88 42.26,20.97 Z" fill="url(#d)"/>
<path d="M 41.262,20.59 C 40.93,20.725 40.624,20.739 40.588,20.637 C 40.552,20.534 40.8,20.354 41.141,20.233 C 41.483,20.113 41.789,20.099 41.825,20.201 C 41.861,20.304 41.613,20.484 41.272,20.605 Z" fill="rgb(241, 103, 43)"/>
<path d="M 40.294000000000004,20.195999999999998 C 39.938,20.34 39.61,20.356 39.571,20.246 C 39.533,20.137 39.799,19.944 40.165,19.816 C 40.531,19.686 40.859,19.671 40.898,19.78 C 40.936,19.89 40.67,20.082 40.304,20.211 Z" fill="url(#c)"/>
<path d="M 43.1,19.451999999999998 C 42.765,19.514 42.476,19.49 42.466,19.415 C 42.456,19.339 42.727,19.239 43.073,19.193 C 43.419,19.146 43.708,19.17 43.718,19.245 C 43.728,19.321 43.456,19.421 43.11,19.467 Z" fill="url(#d)"/>
<path d="M 43.749,19.871 C 43.459,19.926 43.207,19.903 43.197,19.833 C 43.187,19.763 43.424,19.673 43.724,19.632 C 44.024,19.592 44.276,19.615 44.285,19.686 C 44.295,19.756 44.059,19.846 43.759,19.886 Z" fill="url(#d)"/>
<path d="M 44.300000000000004,20.259999999999998 C 44.093,20.305 43.91,20.271 43.9,20.201 C 43.89,20.131 44.058,20.051 44.275,20.021 C 44.491,19.991 44.675,20.025 44.685,20.095 C 44.694,20.165 44.525,20.246 44.309,20.275 Z" fill="url(#d)"/>
<path d="M 45.524,19.305 C 45.247,19.32 45.015,19.265 45.015,19.2 C 45.015,19.133 45.247,19.08 45.534,19.08 C 45.82,19.08 46.052,19.133 46.052,19.2 C 46.052,19.266 45.82,19.32 45.534,19.32 Z" fill="url(#d)"/>
<path d="M 45.843,19.623 C 45.654,19.638 45.493,19.602 45.493,19.558 C 45.493,19.514 45.654,19.478 45.853,19.478 C 46.051,19.478 46.212,19.514 46.212,19.558 C 46.212,19.602 46.051,19.638 45.852,19.638 Z" fill="url(#d)"/>
<path d="M 47.498000000000005,19.621 C 47.316,19.586 47.169,19.511 47.18,19.469 C 47.191,19.426 47.356,19.432 47.548,19.481 C 47.74,19.531 47.887,19.606 47.876,19.648 C 47.865,19.691 47.7,19.685 47.508,19.636 Z" fill="rgb(239, 86, 41)"/>
<path d="M 39.832,22.157999999999998 C 39.507,22.341 39.172,22.353 39.095,22.2 C 39.019,22.047 39.228,21.787 39.564,21.618 C 39.9,21.45 40.234,21.438 40.311,21.591 C 40.388,21.744 40.178,22.004 39.842,22.173 Z" fill="url(#c)"/>
<path d="M 38.558,21.875 C 38.192,22.08 37.825,22.108 37.748,21.955 C 37.671,21.802 37.914,21.525 38.29,21.335 C 38.666,21.147 39.033,21.119 39.11,21.272 C 39.187,21.425 38.944,21.702 38.568,21.891 Z" fill="url(#c)"/>
<path d="M 37.446000000000005,21.491 C 37.022,21.745 36.604,21.816 36.521,21.666 C 36.439,21.516 36.724,21.201 37.157,20.963 C 37.591,20.724 38.01,20.653 38.092,20.803 C 38.175,20.953 37.89,21.267 37.456,21.506 Z" fill="url(#c)"/>
<path d="M 31.535,31.38 C 31.329,31.881 30.929,32.175 30.651,32.051 C 30.373,31.928 30.323,31.434 30.538,30.947 C 30.754,30.461 31.155,30.167 31.433,30.291 C 31.711,30.414 31.761,30.908 31.545,31.395 Z" fill="url(#h)"/>
<defs>
<linearGradient id="j" x1="56" x2="0" y1="28" y2="28" gradientUnits="userSpaceOnUse">
<stop stop-color="rgb(22, 20, 72)" offset="0"/>
<stop stop-color="rgb(36, 48, 129)" offset="1"/>
</linearGradient>
<linearGradient id="i" x1="8" x2="27.026" y1="19" y2="40.978" gradientUnits="userSpaceOnUse">
<stop stop-color="rgb(1, 98, 176)" offset="0"/>
<stop stop-color="rgb(86, 191, 225)" offset=".477"/>
<stop stop-color="rgb(39, 129, 193)" offset="1"/>
</linearGradient>
<linearGradient id="b" x1="8" x2="27.026" y1="19" y2="40.978" gradientUnits="userSpaceOnUse">
<stop stop-color="rgb(86, 191, 225)" offset=".477"/>
<stop stop-color="rgb(39, 129, 193)" offset="1"/>
</linearGradient>
<linearGradient id="a" x1="8" x2="27.026" y1="19" y2="40.978" gradientUnits="userSpaceOnUse">
<stop stop-color="rgb(1, 98, 176)" offset="0"/>
<stop stop-color="rgb(86, 191, 225)" offset=".477"/>
</linearGradient>
<linearGradient id="e" x1="47.328" x2="27.904" y1="18.641" y2="38.505" gradientUnits="userSpaceOnUse">
<stop stop-color="rgb(242, 110, 44)" offset=".71"/>
<stop stop-color="rgb(240, 88, 43)" offset="1"/>
</linearGradient>
<linearGradient id="h" x1="47.328" x2="27.904" y1="18.641" y2="38.505" gradientUnits="userSpaceOnUse">
<stop stop-color="rgb(252, 185, 43)" offset=".468"/>
<stop stop-color="rgb(242, 110, 44)" offset=".71"/>
<stop stop-color="rgb(240, 88, 43)" offset="1"/>
</linearGradient>
<linearGradient id="f" x1="47.328" x2="27.904" y1="18.641" y2="38.505" gradientUnits="userSpaceOnUse">
<stop stop-color="rgb(252, 185, 43)" offset=".468"/>
<stop stop-color="rgb(242, 110, 44)" offset=".71"/>
</linearGradient>
<linearGradient id="g" x1="47.328" x2="27.904" y1="18.641" y2="38.505" gradientUnits="userSpaceOnUse">
<stop stop-color="rgb(241, 103, 43)" offset=".2"/>
<stop stop-color="rgb(252, 185, 43)" offset=".468"/>
<stop stop-color="rgb(242, 110, 44)" offset=".71"/>
</linearGradient>
<linearGradient id="c" x1="47.328" x2="27.904" y1="18.641" y2="38.505" gradientUnits="userSpaceOnUse">
<stop stop-color="rgb(241, 103, 43)" offset=".2"/>
<stop stop-color="rgb(252, 185, 43)" offset=".468"/>
</linearGradient>
<linearGradient id="d" x1="47.328" x2="27.904" y1="18.641" y2="38.505" gradientUnits="userSpaceOnUse">
<stop stop-color="rgb(239, 86, 41)" offset="0"/>
<stop stop-color="rgb(241, 103, 43)" offset=".2"/>
</linearGradient>
</defs>
</svg>
