<?xml version="1.0" encoding="UTF-8"?>
<!-- generated by Finnhub -->
<svg viewBox="0 0 55.5 55.5" xmlns="http://www.w3.org/2000/svg">
<path d="M 0,0 H 55.5 V 55.5 H 0 Z" fill="url(#a)"/>
<path d="M 7.29,30.995 A 3.3,3.3 0 0,0 10,29.61 L 9.63,29.31 A 2.82,2.82 0 0,1 4.48,27.9 H 10.6 A 3.32,3.32 0 0,0 7.3,24.4 A 3.3,3.3 0 1,0 7.3,31.01 Z M 10.12,27.46 H 4.49 A 2.83,2.83 0 0,1 10.12,27.46 Z M 35.12,31 A 3.3,3.3 0 0,0 37.82,29.59 L 37.46,29.29 A 2.82,2.82 0 0,1 32.3,27.89 H 38.42 V 27.69 A 3.3,3.3 0 1,0 35.12,30.99 Z M 37.94,27.44 H 32.3 A 2.83,2.83 0 0,1 37.93,27.44 Z M 48.7,31 A 3.3,3.3 0 0,0 51.4,29.59 L 51.03,29.29 A 2.82,2.82 0 0,1 45.88,27.89 H 51.99 V 27.69 A 3.3,3.3 0 1,0 48.69,30.99 Z M 51.51,27.44 H 45.88 A 2.83,2.83 0 0,1 51.51,27.44 Z M 13.31,31.01 L 10.17,24.63 H 10.72 L 13.47,30.21 L 16.2,24.63 H 16.76 L 13.61,31 H 13.31 Z M 23,22.6 L 22.8,20 L 22.59,22.68 A 3.5,3.5 0 1,0 23.41,23.53 L 23.32,23.34 L 25.92,23.13 L 23.32,22.91 L 24.36,21.56 L 23.02,22.61 Z M 22.05,22.93 L 19.66,23.13 L 22.27,23.34 L 21.18,24.74 L 22.58,23.64 L 22.79,26.25 L 22.99,23.83 A 3,3 0 1,1 22.05,22.93 Z M 39.4,24.63 H 38.95 V 31 H 39.39 V 25.84 C 40.23,25.04 41.41,24.93 41.89,24.96 C 43.68,25.09 44.13,26.36 44.13,26.98 V 31 H 44.6 V 26.98 C 44.52,25.56 43.5,24.51 41.89,24.5 A 3.76,3.76 0 0,0 39.39,25.34 V 24.63 Z" fill="rgb(254, 254, 253)"/>
<path d="M 31.29,27.685 V 27.48 H 30.87 V 27.7 A 2.88,2.88 0 1,1 30.34,26.03 L 30.68,25.76 A 3.3,3.3 0 1,0 30.82,29.43 V 31.09 C 30.72,31.86 30.05,33.42 28.16,33.49 A 3.3,3.3 0 0,1 25.81,32.64 L 25.4,32.97 A 4.03,4.03 0 0,0 28.16,34 C 29.96,34 31.16,32.46 31.3,31.09 V 27.7 Z" fill="rgb(254, 254, 253)"/>
<defs>
<linearGradient id="a" x1="47.17" x2="10.31" y1="7.57" y2="50.44" gradientUnits="userSpaceOnUse">
<stop stop-color="rgb(0, 150, 165)" offset="0"/>
<stop stop-color="rgb(130, 73, 155)" offset="1"/>
</linearGradient>
</defs>
</svg>
