<?xml version="1.0" encoding="UTF-8"?>
<!-- generated by Finnhub -->
<svg viewBox="0 0 55.5 55.5" xmlns="http://www.w3.org/2000/svg">
<path d="M 0,0 H 55.5 V 55.5 H 0 Z" fill="rgb(1, 75, 127)"/>
<path d="M 11.402000000000001,30.931 C 11.412,30.973 11.394,30.986 11.357,30.986 H 5.055 C 5.018,30.986 5,30.97 5,30.936 V 30.703 C 5,30.669 5.018,30.653 5.055,30.653 L 5.527,30.643 A 2.02,2.02 0 0,0 6.043,30.571 C 6.183,30.524 6.313,30.43 6.328,30.247 C 6.343,30.085 6.35,29.933 6.35,29.792 C 6.358,29.65 6.361,29.485 6.361,29.296 V 25.71 A 9.07,9.07 0 0,0 6.351,25.234 A 6.34,6.34 0 0,0 6.329,24.758 A 1.189,1.189 0 0,0 6.296,24.576 A 0.242,0.242 0 0,0 6.208,24.444 A 0.419,0.419 0 0,0 6.021,24.374 C 5.941,24.354 5.831,24.344 5.691,24.344 L 5.274,24.334 C 5.238,24.334 5.22,24.316 5.22,24.282 V 24.05 C 5.22,24.016 5.238,23.999 5.274,23.999 H 10.966 C 11.003,23.999 11.021,24.016 11.021,24.049 L 11.138,25.437 C 11.138,25.471 11.119,25.487 11.083,25.487 L 10.841,25.507 C 10.811,25.507 10.794,25.494 10.786,25.467 A 2.152,2.152 0 0,0 10.556,24.92 A 1.355,1.355 0 0,0 10.303,24.596 C 10.252,24.542 10.131,24.509 9.941,24.496 A 7.708,7.708 0 0,0 9.391,24.475 H 7.504 C 7.468,24.475 7.449,24.492 7.449,24.525 V 27.027 C 7.449,27.06 7.468,27.077 7.504,27.077 H 8.7 C 8.912,27.077 9.1,27.064 9.26,27.037 C 9.428,27.01 9.542,26.952 9.6,26.865 A 0.878,0.878 0 0,0 9.743,26.551 C 9.787,26.416 9.823,26.237 9.853,26.014 C 9.853,25.987 9.871,25.974 9.908,25.974 H 10.16 C 10.197,25.974 10.215,25.99 10.215,26.024 V 28.596 C 10.215,28.63 10.197,28.646 10.16,28.646 H 9.908 C 9.871,28.646 9.853,28.633 9.853,28.606 A 4.095,4.095 0 0,0 9.733,28.029 C 9.696,27.88 9.641,27.776 9.568,27.715 A 0.622,0.622 0 0,0 9.216,27.593 A 3.985,3.985 0 0,0 8.7,27.563 H 7.503 C 7.467,27.563 7.448,27.58 7.448,27.613 V 29.669 C 7.448,29.824 7.463,29.956 7.492,30.064 C 7.522,30.172 7.577,30.264 7.657,30.337 A 0.79,0.79 0 0,0 7.997,30.489 C 8.151,30.516 8.349,30.529 8.59,30.529 H 9.535 C 9.864,30.529 10.113,30.496 10.281,30.429 A 1.34,1.34 0 0,0 10.687,30.165 A 1.72,1.72 0 0,0 11.006,29.72 C 11.101,29.53 11.211,29.268 11.336,28.93 C 11.343,28.91 11.364,28.9 11.401,28.9 L 11.631,28.93 C 11.661,28.937 11.676,28.957 11.676,28.99 L 11.412,30.945 Z M 17.556,26.518 C 17.556,26.54 17.543,26.552 17.519,26.552 L 17.336,26.558 A 0.317,0.317 0 0,0 17.16,26.606 A 0.524,0.524 0 0,0 17.007,26.754 C 16.957,26.822 16.892,26.882 16.834,27.004 C 16.775,27.121 16.704,27.272 16.622,27.456 L 15.553,29.873 A 9.57,9.57 0 0,0 15.458,30.075 A 2.896,2.896 0 0,0 15.378,30.278 L 15.136,30.953 C 15.126,30.966 15.114,30.973 15.099,30.973 H 14.909 C 14.889,30.973 14.877,30.966 14.872,30.953 L 13.386,27.267 A 3.168,3.168 0 0,0 13.226,26.917 A 1.388,1.388 0 0,0 13.101,26.693 C 13.062,26.639 13.009,26.615 12.965,26.593 A 0.316,0.316 0 0,0 12.819,26.558 L 12.636,26.552 C 12.612,26.552 12.6,26.54 12.6,26.518 V 26.363 C 12.6,26.34 12.612,26.329 12.636,26.329 H 14.496 C 14.52,26.329 14.532,26.34 14.532,26.363 V 26.518 C 14.532,26.54 14.52,26.552 14.495,26.552 L 14.327,26.558 A 1.109,1.109 0 0,0 14.122,26.585 A 0.187,0.187 0 0,0 14.012,26.66 C 13.992,26.691 13.997,26.725 14.002,26.788 C 14.012,26.846 14.036,26.923 14.075,27.018 L 15.209,29.886 C 15.214,29.9 15.221,29.909 15.231,29.913 C 15.241,29.913 15.248,29.907 15.253,29.893 A 5.44,5.44 0 0,1 15.348,29.65 C 15.388,29.555 15.421,29.472 15.45,29.4 L 16.278,27.382 A 4.38,4.38 0 0,0 16.431,26.943 A 0.4,0.4 0 0,0 16.472,26.72 C 16.462,26.657 16.431,26.617 16.377,26.599 A 0.573,0.573 0 0,0 16.172,26.559 L 15.967,26.552 C 15.943,26.552 15.931,26.54 15.931,26.518 V 26.363 C 15.931,26.34 15.943,26.329 15.967,26.329 H 17.519 C 17.543,26.329 17.556,26.34 17.556,26.363 V 26.518 Z M 22.263,30.959 C 22.263,30.977 22.25,30.986 22.226,30.986 C 20.838,30.986 18.171,30.993 18.076,30.993 C 18.052,30.993 18.039,30.982 18.039,30.959 V 30.804 C 18.039,30.782 18.051,30.77 18.076,30.77 H 18.376 C 18.517,30.766 18.632,30.75 18.72,30.723 C 18.813,30.692 18.864,30.615 18.874,30.493 C 18.884,30.386 18.888,30.285 18.888,30.19 C 18.893,30.095 18.896,29.985 18.896,29.86 V 27.436 C 18.896,27.31 18.893,27.224 18.888,27.139 A 4.21,4.21 0 0,0 18.874,26.822 A 0.79,0.79 0 0,0 18.852,26.7 A 0.161,0.161 0 0,0 18.793,26.612 A 0.279,0.279 0 0,0 18.669,26.565 C 18.521,26.528 18.346,26.555 18.195,26.552 C 18.171,26.552 18.159,26.54 18.159,26.518 V 26.363 C 18.159,26.34 18.171,26.329 18.195,26.329 H 21.977 C 22.002,26.329 22.014,26.34 22.014,26.363 L 22.08,27.273 C 22.08,27.296 22.068,27.308 22.043,27.308 L 21.883,27.321 C 21.863,27.321 21.85,27.312 21.846,27.294 C 21.806,27.154 21.756,27.034 21.692,26.93 A 0.903,0.903 0 0,0 21.523,26.714 C 21.489,26.678 21.409,26.655 21.282,26.646 A 5.179,5.179 0 0,0 20.916,26.633 H 19.656 C 19.633,26.633 19.62,26.643 19.62,26.666 V 28.313 C 19.62,28.336 19.632,28.347 19.657,28.347 H 20.455 C 20.596,28.347 20.721,28.338 20.828,28.32 C 20.94,28.302 21.016,28.264 21.055,28.205 A 0.6,0.6 0 0,0 21.15,27.996 C 21.18,27.906 21.204,27.786 21.223,27.638 C 21.223,27.62 21.235,27.611 21.26,27.611 H 21.428 C 21.453,27.611 21.465,27.623 21.465,27.645 V 29.36 C 21.465,29.382 21.453,29.393 21.428,29.393 H 21.26 C 21.235,29.393 21.223,29.384 21.223,29.366 A 2.726,2.726 0 0,0 21.143,28.982 A 0.385,0.385 0 0,0 21.033,28.772 A 0.415,0.415 0 0,0 20.799,28.692 A 2.653,2.653 0 0,0 20.455,28.672 H 19.657 C 19.633,28.672 19.62,28.682 19.62,28.705 V 30.109 C 19.62,30.212 19.63,30.3 19.65,30.372 C 19.67,30.444 19.706,30.505 19.76,30.555 A 0.54,0.54 0 0,0 19.986,30.655 C 20.089,30.674 20.221,30.683 20.381,30.683 H 21.011 C 21.231,30.683 21.397,30.66 21.509,30.615 A 0.894,0.894 0 0,0 21.779,30.44 C 21.858,30.363 21.929,30.264 21.992,30.143 A 5.33,5.33 0 0,0 22.212,29.616 C 22.216,29.603 22.231,29.596 22.255,29.596 L 22.409,29.616 C 22.429,29.621 22.439,29.634 22.439,29.656 L 22.263,30.959 Z M 28.623,30.939 C 28.623,30.962 28.61,30.973 28.586,30.973 L 28.41,30.987 A 3.448,3.448 0 0,1 27.751,30.96 A 1.692,1.692 0 0,1 27.275,30.818 A 1.034,1.034 0 0,1 26.983,30.595 A 6.509,6.509 0 0,1 26.646,30.21 C 26.529,30.066 26.412,29.848 26.294,29.69 A 33.064,33.064 0 0,0 25.972,29.252 A 5.842,5.842 0 0,0 25.731,28.921 C 25.662,28.835 25.619,28.793 25.599,28.793 L 24.999,28.799 C 24.975,28.799 24.962,28.811 24.962,28.833 V 30.183 C 24.967,30.273 24.974,30.375 24.984,30.487 C 24.994,30.577 25.021,30.647 25.064,30.697 C 25.109,30.741 25.212,30.753 25.397,30.757 L 25.653,30.764 C 25.678,30.764 25.69,30.775 25.69,30.798 V 30.953 C 25.69,30.975 25.678,30.987 25.653,30.987 H 23.561 C 23.537,30.987 23.524,30.975 23.524,30.953 V 30.798 C 23.524,30.775 23.537,30.764 23.561,30.764 L 23.803,30.757 C 23.895,30.752 23.957,30.759 24.011,30.75 A 0.27,0.27 0 0,0 24.128,30.696 A 0.125,0.125 0 0,0 24.179,30.616 C 24.189,30.584 24.199,30.543 24.209,30.494 A 2.38,2.38 0 0,0 24.23,30.19 C 24.235,30.095 24.238,29.985 24.238,29.86 V 27.456 C 24.238,27.33 24.235,27.224 24.23,27.139 A 4.21,4.21 0 0,0 24.216,26.822 A 0.616,0.616 0 0,0 24.194,26.707 A 0.161,0.161 0 0,0 24.135,26.619 A 0.36,0.36 0 0,0 23.994,26.572 C 23.94,26.558 23.867,26.556 23.774,26.552 L 23.533,26.545 C 23.508,26.545 23.496,26.534 23.496,26.511 V 26.356 C 23.496,26.333 23.508,26.322 23.533,26.322 H 25.76 C 25.99,26.322 26.202,26.34 26.397,26.39 C 26.597,26.44 26.767,26.509 26.909,26.599 C 27.056,26.689 27.17,26.799 27.253,26.929 C 27.336,27.06 27.378,27.209 27.378,27.375 A 0.987,0.987 0 0,1 27.1,28.091 C 26.914,28.284 26.68,28.433 26.397,28.536 C 26.377,28.546 26.373,28.561 26.382,28.583 A 11.655,11.655 0 0,0 26.924,29.333 C 27.036,29.477 27.158,29.691 27.29,29.839 C 27.422,29.988 27.558,30.125 27.7,30.251 C 27.841,30.377 27.988,30.487 28.14,30.581 C 28.29,30.676 28.442,30.741 28.593,30.777 C 28.613,30.782 28.623,30.793 28.623,30.811 V 30.939 Z M 26.623,27.53 A 0.929,0.929 0 0,0 26.514,27.058 A 0.753,0.753 0 0,0 26.199,26.754 A 1.417,1.417 0 0,0 25.694,26.599 A 4.186,4.186 0 0,0 24.999,26.572 C 24.975,26.572 24.962,26.583 24.962,26.606 V 28.489 C 24.962,28.511 24.974,28.523 24.999,28.523 L 25.504,28.543 C 25.65,28.547 25.789,28.529 25.921,28.489 A 1.08,1.08 0 0,0 26.28,28.293 C 26.382,28.203 26.465,28.093 26.529,27.963 A 0.935,0.935 0 0,0 26.624,27.53 Z M 33.563,30.5 A 3.408,3.408 0 0,1 32.853,30.838 C 32.57,30.937 32.216,30.986 31.792,30.986 C 31.333,30.986 30.93,30.923 30.584,30.797 A 2.567,2.567 0 0,1 29.72,30.285 A 2.13,2.13 0 0,1 29.2,29.528 A 2.483,2.483 0 0,1 29.025,28.597 C 29.025,28.268 29.091,27.96 29.223,27.672 C 29.354,27.38 29.545,27.125 29.793,26.909 C 30.043,26.693 30.343,26.522 30.693,26.396 A 3.583,3.583 0 0,1 31.894,26.207 C 32.27,26.207 32.592,26.247 32.86,26.329 C 33.134,26.405 33.373,26.489 33.578,26.579 C 33.592,26.588 33.6,26.599 33.6,26.612 L 33.636,27.462 C 33.636,27.485 33.626,27.497 33.607,27.497 L 33.475,27.51 C 33.451,27.51 33.436,27.503 33.431,27.49 A 2.789,2.789 0 0,0 33.241,27.092 A 1.065,1.065 0 0,0 32.948,26.768 A 1.387,1.387 0 0,0 32.502,26.545 A 2.245,2.245 0 0,0 31.85,26.464 C 31.582,26.464 31.328,26.511 31.089,26.606 C 30.855,26.696 30.649,26.828 30.474,27.004 A 1.91,1.91 0 0,0 30.057,27.645 A 2.172,2.172 0 0,0 29.903,28.482 C 29.903,28.829 29.95,29.142 30.043,29.42 C 30.135,29.695 30.264,29.931 30.43,30.13 C 30.601,30.323 30.806,30.471 31.045,30.575 C 31.285,30.678 31.548,30.73 31.835,30.73 C 32.089,30.73 32.311,30.692 32.502,30.615 C 32.697,30.539 32.865,30.442 33.007,30.325 A 1.68,1.68 0 0,0 33.351,29.927 A 2.09,2.09 0 0,0 33.563,29.508 C 33.568,29.495 33.58,29.488 33.6,29.488 L 33.746,29.501 C 33.78,29.501 33.792,29.515 33.783,29.541 L 33.563,30.501 Z M 40.013,28.53 C 40.013,28.858 39.953,29.17 39.83,29.468 A 2.375,2.375 0 0,1 39.31,30.251 A 2.535,2.535 0 0,1 38.498,30.791 A 2.77,2.77 0 0,1 37.437,30.986 C 37.047,30.986 36.693,30.928 36.375,30.811 A 2.505,2.505 0 0,1 35.563,30.318 A 2.23,2.23 0 0,1 35.043,29.582 A 2.298,2.298 0 0,1 34.86,28.664 C 34.86,28.336 34.921,28.024 35.043,27.726 A 2.376,2.376 0 0,1 36.375,26.41 A 2.684,2.684 0 0,1 37.437,26.207 C 37.827,26.207 38.181,26.268 38.498,26.39 C 38.815,26.507 39.086,26.67 39.311,26.882 C 39.535,27.089 39.708,27.335 39.831,27.618 C 39.952,27.898 40.013,28.201 40.013,28.529 Z M 39.15,28.82 C 39.15,28.478 39.106,28.16 39.018,27.868 A 2.442,2.442 0 0,0 38.652,27.112 A 1.723,1.723 0 0,0 38.081,26.612 A 1.528,1.528 0 0,0 37.341,26.43 C 36.991,26.43 36.691,26.513 36.441,26.68 A 1.47,1.47 0 0,0 35.907,27.348 A 2.645,2.645 0 0,0 35.731,28.361 C 35.731,28.73 35.775,29.063 35.863,29.36 C 35.951,29.657 36.073,29.909 36.229,30.116 C 36.39,30.323 36.578,30.483 36.793,30.595 C 37.007,30.703 37.242,30.757 37.495,30.757 C 37.939,30.757 38.301,30.633 38.579,30.386 C 38.769,30.219 38.91,30.003 39.003,29.738 C 39.101,29.472 39.15,29.166 39.15,28.82 Z M 46.309,30.933 C 46.309,30.955 46.297,30.966 46.272,30.966 C 46.219,30.971 46.16,30.976 46.097,30.98 A 3.45,3.45 0 0,1 45.438,30.953 A 1.69,1.69 0 0,1 44.962,30.811 A 1.032,1.032 0 0,1 44.669,30.588 A 8.733,8.733 0 0,1 44.28,30.143 A 13.196,13.196 0 0,1 43.929,29.69 A 33.064,33.064 0 0,0 43.607,29.252 A 5.842,5.842 0 0,0 43.365,28.921 C 43.297,28.835 43.253,28.793 43.234,28.793 L 42.634,28.799 C 42.609,28.799 42.597,28.811 42.597,28.833 V 30.183 C 42.602,30.273 42.609,30.375 42.619,30.487 C 42.629,30.577 42.655,30.647 42.699,30.697 C 42.743,30.741 42.858,30.766 43.043,30.77 L 43.3,30.777 C 43.324,30.777 43.336,30.788 43.336,30.811 V 30.966 C 43.336,30.989 43.324,31 43.3,31 A 37.788,37.788 0 0,0 42.838,30.986 H 41.66 L 41.184,31 C 41.16,31 41.148,30.989 41.148,30.966 V 30.811 C 41.148,30.788 41.16,30.777 41.184,30.777 L 41.426,30.77 C 41.518,30.766 41.592,30.76 41.646,30.75 A 0.27,0.27 0 0,0 41.762,30.696 A 0.125,0.125 0 0,0 41.814,30.616 C 41.824,30.584 41.834,30.543 41.843,30.494 A 2.39,2.39 0 0,0 41.865,30.19 C 41.87,30.095 41.872,29.985 41.872,29.86 V 27.436 A 4.88,4.88 0 0,0 41.865,27.139 A 4.11,4.11 0 0,0 41.85,26.822 A 0.616,0.616 0 0,0 41.828,26.707 A 0.161,0.161 0 0,0 41.77,26.619 A 0.278,0.278 0 0,0 41.645,26.572 C 41.592,26.558 41.518,26.562 41.425,26.558 L 41.185,26.552 C 41.16,26.552 41.147,26.54 41.147,26.518 V 26.363 C 41.147,26.34 41.16,26.329 41.184,26.329 C 41.311,26.333 41.469,26.324 41.66,26.329 C 42.25,26.329 42.819,26.324 43.395,26.324 C 43.624,26.324 43.836,26.349 44.031,26.398 C 44.231,26.448 44.402,26.508 44.544,26.598 C 44.69,26.688 44.804,26.799 44.888,26.93 A 0.81,0.81 0 0,1 45.012,27.375 A 0.987,0.987 0 0,1 44.734,28.091 C 44.549,28.284 44.314,28.433 44.031,28.536 C 44.012,28.546 44.007,28.561 44.017,28.583 A 11.647,11.647 0 0,0 44.559,29.333 C 44.671,29.477 44.793,29.623 44.925,29.772 C 45.056,29.92 45.245,30.118 45.387,30.244 C 45.528,30.37 45.674,30.48 45.826,30.574 C 45.977,30.669 46.128,30.734 46.279,30.77 C 46.299,30.775 46.309,30.786 46.309,30.804 V 30.933 Z M 44.259,27.51 A 0.851,0.851 0 0,0 44.149,27.058 A 0.753,0.753 0 0,0 43.834,26.754 A 1.417,1.417 0 0,0 43.329,26.599 A 4.194,4.194 0 0,0 42.633,26.572 C 42.609,26.572 42.597,26.583 42.597,26.606 V 28.489 C 42.597,28.511 42.609,28.523 42.633,28.523 L 43.138,28.543 C 43.285,28.547 43.424,28.529 43.556,28.489 A 1.08,1.08 0 0,0 43.914,28.293 C 44.017,28.203 44.1,28.093 44.164,27.963 C 44.227,27.832 44.258,27.681 44.258,27.51 Z M 50.824,30.96 C 50.824,30.977 50.812,30.986 50.788,30.986 H 47.179 A 7.36,7.36 0 0,1 46.872,30.993 C 46.774,30.998 46.692,31 46.622,31 C 46.598,31 46.586,30.989 46.586,30.966 V 30.811 C 46.586,30.788 46.598,30.777 46.623,30.777 L 46.938,30.77 C 47.079,30.766 47.194,30.75 47.281,30.723 C 47.374,30.692 47.426,30.615 47.435,30.493 C 47.445,30.386 47.45,30.285 47.45,30.19 C 47.455,30.095 47.457,29.985 47.457,29.86 V 27.436 A 4.88,4.88 0 0,0 47.45,27.139 A 4.21,4.21 0 0,0 47.435,26.822 A 0.79,0.79 0 0,0 47.413,26.7 A 0.161,0.161 0 0,0 47.355,26.612 C 47.325,26.59 47.284,26.588 47.23,26.579 A 0.94,0.94 0 0,0 47.01,26.559 L 46.733,26.552 C 46.708,26.552 46.696,26.54 46.696,26.518 V 26.363 C 46.696,26.34 46.708,26.329 46.733,26.329 C 47.097,26.342 47.459,26.329 47.823,26.329 H 50.539 C 50.563,26.329 50.575,26.34 50.575,26.363 L 50.641,27.273 C 50.641,27.296 50.629,27.308 50.605,27.308 L 50.444,27.321 C 50.424,27.321 50.412,27.312 50.407,27.294 A 1.434,1.434 0 0,0 50.253,26.93 A 0.903,0.903 0 0,0 50.085,26.714 C 50.051,26.678 49.97,26.655 49.843,26.646 A 5.179,5.179 0 0,0 49.477,26.633 H 48.22 C 48.195,26.633 48.183,26.643 48.183,26.666 V 28.313 C 48.183,28.336 48.195,28.347 48.219,28.347 H 49.017 C 49.159,28.347 49.283,28.338 49.391,28.32 C 49.503,28.302 49.579,28.264 49.618,28.205 A 0.6,0.6 0 0,0 49.713,27.996 C 49.742,27.906 49.766,27.786 49.786,27.638 C 49.786,27.62 49.798,27.611 49.823,27.611 H 49.991 C 50.015,27.611 50.027,27.623 50.027,27.645 V 29.36 C 50.027,29.382 50.015,29.393 49.991,29.393 H 49.822 C 49.798,29.393 49.786,29.384 49.786,29.366 A 2.726,2.726 0 0,0 49.706,28.982 A 0.385,0.385 0 0,0 49.596,28.772 A 0.415,0.415 0 0,0 49.361,28.692 A 2.653,2.653 0 0,0 49.017,28.672 H 48.22 C 48.195,28.672 48.183,28.682 48.183,28.705 V 30.109 C 48.183,30.212 48.193,30.3 48.213,30.372 A 0.374,0.374 0 0,0 48.322,30.555 A 0.55,0.55 0 0,0 48.549,30.655 C 48.651,30.674 48.783,30.683 48.944,30.683 H 49.574 C 49.794,30.683 49.959,30.66 50.071,30.615 A 0.894,0.894 0 0,0 50.342,30.44 C 50.42,30.363 50.492,30.264 50.554,30.143 A 5.33,5.33 0 0,0 50.774,29.616 C 50.779,29.603 50.794,29.596 50.818,29.596 L 50.972,29.616 C 50.992,29.621 51.001,29.634 51.001,29.656 L 50.825,30.959 Z" fill="rgb(254, 254, 253)"/>
</svg>
