<?xml version="1.0" encoding="UTF-8"?>
<!-- generated by Finnhub -->
<svg viewBox="0 0 55.5 55.5" xmlns="http://www.w3.org/2000/svg">
<path d="M 0,0 H 55.5 V 55.5 H 0 Z" fill="rgb(240, 109, 34)"/>
<path d="M 42.99,28.631999999999998 C 43,29.637 42.166,30.438 41.137,30.438 C 40.107,30.438 39.273,29.636 39.273,28.647 C 39.273,27.657 40.107,26.856 41.137,26.856 C 42.166,26.856 43,27.658 43,28.646 Z M 42.153,23.924 C 42.153,24.914 41.319,25.716 40.29,25.716 C 39.26,25.716 38.426,24.914 38.426,23.924 C 38.426,22.935 39.26,22.134 40.29,22.134 C 41.319,22.134 42.153,22.935 42.153,23.924 Z M 36.393,24.25 C 36.393,25.06 35.711,25.716 34.869,25.716 S 33.344,25.06 33.344,24.25 C 33.344,23.44 34.027,22.785 34.869,22.785 C 35.711,22.785 36.393,23.441 36.393,24.25 Z M 32.667,20.83 C 32.667,21.55 32.06,22.133 31.311,22.133 C 30.563,22.133 29.956,21.55 29.956,20.83 C 29.956,20.111 30.563,19.528 31.311,19.528 C 32.06,19.528 32.667,20.111 32.667,20.83 Z M 30.803,24.585 C 30.803,25.395 30.121,26.05 29.279,26.05 S 27.754,25.394 27.754,24.585 C 27.754,23.775 28.437,23.119 29.279,23.119 C 30.121,23.119 30.803,23.775 30.803,24.585 Z M 27.924,19.61 C 27.924,20.194 27.43,20.668 26.822,20.668 C 26.214,20.668 25.722,20.194 25.722,19.609 S 26.214,18.551 26.822,18.551 C 27.43,18.551 27.924,19.025 27.924,19.609 Z M 25.721,24.82 C 25.721,25.405 25.228,25.879 24.621,25.879 C 24.012,25.879 23.519,25.405 23.519,24.82 S 24.012,23.762 24.62,23.762 S 25.721,24.235 25.721,24.82 Z M 23.18,28.647 C 23.18,29.187 22.725,29.624 22.164,29.624 C 21.603,29.624 21.147,29.186 21.147,28.647 C 21.147,28.107 21.603,27.67 22.164,27.67 C 22.725,27.67 23.18,28.107 23.18,28.647 Z M 25.552,32.555 C 25.552,33.005 25.172,33.369 24.705,33.369 C 24.237,33.369 23.858,33.005 23.858,32.555 C 23.858,32.105 24.238,31.741 24.705,31.741 C 25.173,31.741 25.552,32.105 25.552,32.555 Z M 23.35,20.912 C 23.35,21.497 22.857,21.97 22.249,21.97 S 21.148,21.497 21.148,20.912 C 21.148,20.327 21.64,19.853 22.248,19.853 C 22.857,19.853 23.35,20.327 23.35,20.912 Z M 19.806,24.25 C 19.806,24.79 19.351,25.227 18.79,25.227 C 18.229,25.227 17.774,24.79 17.774,24.25 S 18.229,23.273 18.79,23.273 C 19.351,23.273 19.806,23.711 19.806,24.25 Z M 18.437,28.51 C 18.437,29.004 18.02,29.405 17.506,29.405 C 16.991,29.405 16.574,29.005 16.574,28.51 S 16.991,27.614 17.505,27.614 C 18.02,27.614 18.437,28.015 18.437,28.51 Z M 19.792,33.044 C 19.792,33.494 19.413,33.858 18.945,33.858 C 18.478,33.858 18.098,33.493 18.098,33.044 C 18.098,32.594 18.478,32.229 18.945,32.229 C 19.413,32.229 19.792,32.594 19.792,33.044 Z M 22.841,36.463 C 22.841,36.868 22.501,37.196 22.079,37.196 C 21.659,37.196 21.317,36.868 21.317,36.463 C 21.317,36.059 21.658,35.731 22.079,35.731 S 22.841,36.059 22.841,36.463 Z M 27.585,37.528 C 27.585,37.888 27.281,38.178 26.907,38.178 A 0.665,0.665 0 0,1 26.23,37.528 C 26.23,37.168 26.533,36.876 26.907,36.876 C 27.281,36.876 27.585,37.168 27.585,37.528 Z M 32.158,36.138 C 32.158,36.408 31.931,36.626 31.65,36.626 A 0.499,0.499 0 0,1 31.142,36.138 C 31.142,35.868 31.37,35.649 31.65,35.649 S 32.158,35.868 32.158,36.138 Z M 37.833,37.278 A 0.25,0.25 0 0,1 37.579,37.522 A 0.25,0.25 0 0,1 37.325,37.278 A 0.25,0.25 0 0,1 37.579,37.033 C 37.719,37.033 37.833,37.143 37.833,37.278 Z M 38.095,28.647 C 38.095,29.637 37.261,30.438 36.232,30.438 C 35.202,30.438 34.368,29.636 34.368,28.647 C 34.368,27.657 35.202,26.856 36.232,26.856 C 37.261,26.856 38.095,27.658 38.095,28.646 Z M 39.443,20.016 C 39.443,21.006 38.608,21.808 37.579,21.808 C 36.55,21.808 35.716,21.006 35.716,20.016 S 36.55,18.225 37.579,18.225 C 38.609,18.225 39.443,19.027 39.443,20.016 Z M 35.377,17.085 C 35.377,17.895 34.694,18.551 33.852,18.551 C 33.011,18.551 32.328,17.895 32.328,17.085 C 32.328,16.275 33.01,15.619 33.852,15.619 C 34.695,15.619 35.377,16.276 35.377,17.085 Z M 33.015,28.647 C 33.015,29.457 32.332,30.113 31.49,30.113 C 30.648,30.113 29.966,29.456 29.966,28.647 C 29.966,27.837 30.648,27.181 31.49,27.181 C 32.332,27.181 33.015,27.837 33.015,28.647 Z M 30.465,15.303 C 30.465,16.023 29.858,16.605 29.109,16.605 C 28.361,16.605 27.754,16.022 27.754,15.303 C 27.754,14.583 28.361,14 29.109,14 C 29.858,14 30.464,14.583 30.464,15.303 Z M 25.552,15.457 C 25.552,16.087 25.021,16.597 24.366,16.597 C 23.711,16.597 23.18,16.087 23.18,15.457 C 23.18,14.827 23.711,14.317 24.366,14.317 C 25.021,14.317 25.552,14.827 25.552,15.457 Z M 21.148,17.085 C 21.148,17.715 20.617,18.225 19.962,18.225 C 19.307,18.225 18.776,17.715 18.776,17.085 C 18.776,16.455 19.306,15.945 19.962,15.945 C 20.617,15.945 21.148,16.455 21.148,17.085 Z M 17.42,20.016 C 17.42,20.646 16.89,21.156 16.235,21.156 S 15.049,20.646 15.049,20.016 C 15.049,19.386 15.58,18.876 16.235,18.876 C 16.89,18.876 17.421,19.386 17.421,20.016 Z M 14.541,23.94 C 14.541,24.39 14.161,24.755 13.694,24.755 C 13.226,24.755 12.847,24.39 12.847,23.941 C 12.847,23.491 13.227,23.127 13.694,23.127 C 14.162,23.127 14.541,23.491 14.541,23.941 Z M 13.694,28.81 C 13.694,29.26 13.314,29.624 12.847,29.624 C 12.379,29.624 12,29.259 12,28.81 C 12,28.36 12.38,27.996 12.847,27.996 C 13.315,27.996 13.694,28.36 13.694,28.81 Z M 14.372,33.206 C 14.372,33.566 14.068,33.858 13.694,33.858 A 0.665,0.665 0 0,1 13.016,33.207 C 13.016,32.847 13.32,32.555 13.694,32.555 C 14.068,32.555 14.372,32.847 14.372,33.206 Z M 16.574,37.44 C 16.574,37.71 16.346,37.929 16.066,37.929 A 0.499,0.499 0 0,1 15.557,37.44 C 15.557,37.17 15.785,36.952 16.066,36.952 C 16.346,36.952 16.574,37.171 16.574,37.44 Z M 20.47,40.209 C 20.47,40.479 20.242,40.697 19.962,40.697 A 0.499,0.499 0 0,1 19.454,40.209 C 19.454,39.939 19.681,39.72 19.962,39.72 C 20.242,39.72 20.47,39.939 20.47,40.209 Z M 25.044,41.593 C 25.044,41.818 24.854,42 24.62,42 A 0.416,0.416 0 0,1 24.197,41.593 C 24.197,41.368 24.387,41.186 24.62,41.186 C 24.854,41.186 25.044,41.368 25.044,41.593 Z M 30.041,41.593 C 30.041,41.818 29.851,42 29.617,42 A 0.416,0.416 0 0,1 29.194,41.593 C 29.194,41.368 29.384,41.186 29.618,41.186 C 29.851,41.186 30.041,41.368 30.041,41.593 Z M 34.36,40.17 C 34.36,40.35 34.209,40.497 34.022,40.497 A 0.332,0.332 0 0,1 33.683,40.171 C 33.683,39.991 33.835,39.845 34.022,39.845 C 34.209,39.845 34.361,39.991 34.361,40.171 Z" fill="rgb(254, 254, 253)"/>
</svg>
