<?xml version="1.0" encoding="UTF-8"?>
<!-- generated by Finnhub -->
<svg viewBox="0 0 55.5 55.5" xmlns="http://www.w3.org/2000/svg">
<path d="M 0,0 H 55.5 V 55.5 H 0 Z" fill="rgb(239, 242, 248)"/>
<ellipse cx="28" cy="28" rx="20" ry="16" fill="rgb(0, 40, 91)"/>
<path d="M 27.99,42.985 C 38.5,43 47,36.28 47,28 S 38.5,13 28,13 S 9,19.72 9,28 S 17.5,43 28,43 Z M 28,42 C 37.94,42 46,35.73 46,28 S 37.94,14 28,14 S 10,20.27 10,28 C 10,35.73 18.06,42 28,42 Z" fill="url(#b)" fill-rule="evenodd"/>
<path d="M 41.25,38.205 C 27.82,26.19 16.38,21.23 12.34,20.25 C 12.68,20.34 16.4,13.28 27.41,13.28 C 40.14,13.4 46.23,21.3 46.23,28 C 46.23,33.37 42.92,37.05 41.26,38.22 Z" fill="url(#a)" opacity=".3"/>
<path d="M 12.99,24.525 C 13,24.24 13.23,24 13.52,24 H 18.48 C 18.77,24 19,24.24 19,24.54 C 19,24.84 18.77,25.09 18.48,25.09 H 13.52 A 0.53,0.53 0 0,1 13,24.54 Z M 29.52,24 A 0.51,0.51 0 0,0 29,24.5 C 29,24.78 29.23,25 29.52,25 H 31.59 V 31.46 C 31.59,31.76 31.81,32 32.09,32 C 32.37,32 32.59,31.76 32.59,31.46 V 25 H 34.48 C 34.77,25 35,24.78 35,24.5 S 34.77,24 34.48,24 H 29.52 Z M 20.54,24.86 L 23.14,31.42 A 0.9,0.9 0 0,0 23.97,32 A 0.9,0.9 0 0,0 24.81,31.43 L 27.45,24.93 A 0.68,0.68 0 0,0 27.1,24.05 A 0.64,0.64 0 0,0 26.25,24.43 L 23.99,30.44 L 21.66,24.39 A 0.6,0.6 0 0,0 20.85,24.06 A 0.63,0.63 0 0,0 20.55,24.86 Z M 38.64,31.42 L 36.04,24.86 A 0.63,0.63 0 0,1 36.34,24.06 A 0.6,0.6 0 0,1 37.16,24.39 L 39.49,30.44 L 41.75,24.43 A 0.64,0.64 0 0,1 42.6,24.05 C 42.93,24.19 43.09,24.59 42.95,24.93 L 40.31,31.43 A 0.9,0.9 0 0,1 39.47,32 A 0.9,0.9 0 0,1 38.63,31.42 Z M 13.5,28 C 13.5,27.72 13.73,27.5 14,27.5 H 18 C 18.27,27.5 18.5,27.72 18.5,28 A 0.5,0.5 0 0,1 18,28.5 H 14 A 0.5,0.5 0 0,1 13.5,28 Z M 13,31.5 C 13,31.22 13.23,31 13.52,31 H 18.48 C 18.77,31 19,31.22 19,31.5 S 18.77,32 18.48,32 H 13.52 A 0.51,0.51 0 0,1 13,31.5 Z" fill="rgb(253, 252, 253)"/>
<defs>
<linearGradient id="b" x1="9" x2="47" y1="29.42" y2="28.05" gradientUnits="userSpaceOnUse">
<stop stop-color="rgb(218, 218, 217)" offset="0"/>
<stop stop-color="rgb(146, 127, 132)" offset=".23"/>
<stop stop-color="rgb(247, 251, 249)" offset=".49"/>
<stop stop-color="rgb(163, 162, 167)" offset=".76"/>
<stop stop-color="rgb(226, 227, 220)" offset="1"/>
</linearGradient>
<linearGradient id="a" x1="14.32" x2="42.27" y1="19.62" y2="33.31" gradientUnits="userSpaceOnUse">
<stop stop-color="rgb(9, 46, 97)" stop-opacity="0" offset="0"/>
<stop stop-color="rgb(254, 254, 253)" offset=".48"/>
<stop stop-color="rgb(0, 40, 91)" stop-opacity="0" offset="1"/>
</linearGradient>
</defs>
</svg>
