<?xml version="1.0" encoding="UTF-8"?>
<!-- generated by Finnhub -->
<svg viewBox="0 0 55.5 55.5" xmlns="http://www.w3.org/2000/svg">
<path d="M 0,0 H 55.5 V 55.5 H 0 Z" fill="rgb(239, 242, 248)"/>
<path d="M 40.99,17.985 C 26,26 18.79,39.97 17,46 C 23.2,33.82 34.56,26.33 39.5,24 C 39.86,24.72 40.5,26.5 40.5,27.97 C 40.5,39.4 29.74,42 27.5,42 C 25.7,42 23.82,41.86 23,41.5 C 22.66,41.8 21.88,42.56 21.5,43 C 23.74,46.67 25.12,48.64 26,50 C 25.9,48.2 24.77,45.83 24,43.5 C 24.95,43.7 27.09,44 28.17,44 C 34.04,44 39.17,40.15 41.45,36.61 C 43.95,32.75 44,29.1 44,27 C 44,24.01 42.22,20.04 41,18 Z" fill="rgb(162, 145, 84)"/>
<path d="M 46.99,13.985 C 29.38,18.73 19.94,33.43 17.45,40 A 16.43,16.43 0 0,1 12,27.43 C 12,22.77 14.54,18.36 17.78,15.63 A 15.8,15.8 0 0,1 28.04,12 C 33.14,12 36.33,13.96 37.76,15 C 37.37,15.16 36.46,15.56 35.86,15.88 A 11.38,11.38 0 0,0 28.99,13.5 C 22.6,13.5 18.39,19.14 17.17,21.65 C 22.32,19.14 29.56,17 31,17 C 23.82,19.23 17.89,23.87 15.87,25.93 C 15.87,26.79 16.29,28.8 17,30 C 27.6,19.13 40.14,15.02 47,14 Z" fill="rgb(107, 109, 102)"/>
</svg>
