<?xml version="1.0" encoding="UTF-8"?>
<!-- generated by Finnhub -->
<svg viewBox="0 0 55.5 55.5" xmlns="http://www.w3.org/2000/svg">
<path d="M 0,0 H 55.5 V 55.5 H 0 Z" fill="rgb(1, 144, 139)"/>
<path d="M 30.99,18.985 H 13 V 20 H 16 V 40 H 13 V 41 H 31 V 35 H 30 C 30,38.758 28.073,39.952 27.058,40 H 20 V 31 H 23 C 24.391,31 25.048,32.94 25,34 H 26 V 26 H 25 C 25,28.66 23.531,29.12 23,29 H 20 V 20 H 25.971 C 28.696,20 29.879,23.507 30,25 H 31 V 19 Z" fill="rgb(254, 254, 253)"/>
<path d="M 44.99,18.39 C 45,19.81 43.319,19.752 42.537,19.492 C 41.383,19.392 39.754,22.094 39.025,23.472 C 39.025,28.037 40.365,29.541 41.035,29.541 C 41.572,29.541 43.288,27.079 43.883,25.817 C 44.283,24.971 45,25.287 45,25.817 C 44.429,27.875 42.085,31.578 39.807,31.712 C 37.529,31.846 36.922,28.242 36.904,26.422 C 35.694,28.037 33.051,31.045 32.324,31.267 C 31.031,31.661 30.577,31.267 30.43,31.16 C 29.048,30.149 29.924,28.371 31.152,28.538 C 32.135,28.672 32.567,29.262 32.66,29.541 L 36.568,24.919 C 36.568,19.685 35.862,18.739 35.005,18.906 C 34.609,18.983 33.539,20.923 32.888,21.74 C 32.46,22.203 31.699,23.104 31.654,22.525 C 31.6,21.801 33.832,17 36.122,17 C 37.953,17 38.821,20.038 39.025,21.523 C 40.187,19.34 41.811,17.941 42.537,17.365 C 43.362,16.712 45,17 45,18.405 Z" fill="rgb(254, 254, 253)"/>
</svg>
