<?xml version="1.0" encoding="UTF-8"?>
<!-- generated by Finnhub -->
<svg viewBox="0 0 55.5 55.5" xmlns="http://www.w3.org/2000/svg">
<path d="M 0,0 H 55.5 V 55.5 H 0 Z" fill="rgb(239, 242, 248)"/>
<path d="M 9.97,27.745 C 9.64,28.45 9.32,29.14 9,29.84 C 8.9,30.06 8.3,29.98 8.1,29.98 A 0.1,0.1 0 0,1 8.05,29.97 A 0.1,0.1 0 0,1 8.02,29.93 A 0.09,0.09 0 0,1 8.01,29.85 L 9.81,26.16 C 9.91,25.98 10.07,25.93 10.17,26.13 L 12,29.85 C 12.03,29.9 11.98,30 11.91,30 C 11.78,30 11.19,30.01 11.11,29.95 A 0.19,0.19 0 0,1 11.03,29.88 L 10.03,27.76 C 10.02,27.74 10.01,27.74 9.99,27.76 Z M 19.3,27.24 C 18.4,28.28 19.73,29.68 20.98,28.84 C 21.03,28.8 21.08,28.8 21.13,28.84 L 21.53,29.24 C 21.62,29.33 21.63,29.44 21.53,29.52 C 20.56,30.28 19.08,30.12 18.38,29.16 A 1.95,1.95 0 0,1 19.28,26.16 C 20.02,25.87 20.9,25.96 21.51,26.46 A 0.2,0.2 0 0,1 21.59,26.65 C 21.59,26.67 21.59,26.68 21.57,26.7 A 9,9 0 0,1 21.19,27.07 C 21.09,27.17 21,27.16 20.89,27.07 C 20.4,26.74 19.69,26.78 19.3,27.24 Z M 27.3,28 C 27.3,28.53 27.08,29.04 26.68,29.41 C 26.28,29.79 25.72,30 25.15,30 C 24.58,30 24.03,29.79 23.63,29.41 C 23.23,29.04 23,28.53 23,28 C 23,27.47 23.23,26.96 23.63,26.59 C 24.03,26.21 24.58,26 25.15,26 C 25.72,26 26.27,26.21 26.68,26.59 C 27.08,26.96 27.31,27.47 27.31,28 Z M 26.33,28 C 26.33,27.7 26.21,27.43 25.99,27.23 C 25.77,27.03 25.47,26.91 25.15,26.91 C 24.85,26.91 24.55,27.02 24.32,27.23 C 24.1,27.43 23.98,27.71 23.98,28 C 23.98,28.29 24.1,28.57 24.32,28.77 C 24.54,28.97 24.84,29.09 25.15,29.09 C 25.47,29.09 25.77,28.98 25.99,28.77 C 26.21,28.57 26.33,28.29 26.33,28 Z M 30,27.87 V 29.93 C 30,29.97 29.96,30 29.92,30 H 29.1 C 29.05,30 29,29.95 29,29.9 V 26.08 C 29,26.06 29,26.04 29.02,26.02 A 0.09,0.09 0 0,1 29.09,26 H 29.24 C 29.26,26 29.28,26 29.29,26.02 L 31.49,28.08 H 31.51 L 31.52,28.06 V 26.1 C 31.52,26.05 31.57,26 31.62,26 H 32.4 C 32.45,26 32.5,26.04 32.5,26.1 V 29.9 C 32.5,29.92 32.5,29.93 32.48,29.94 C 32.36,30.04 32.23,30 32.13,29.9 L 30,27.87 Z" fill="rgb(214, 12, 9)"/>
<path d="M 34.92,27.915 C 34.34,27.46 34.37,26.59 35.03,26.21 C 35.69,25.83 36.6,26.01 37.19,26.44 C 37.21,26.45 37.23,26.48 37.23,26.5 A 0.1,0.1 0 0,1 37.22,26.58 C 37.14,26.71 36.92,27.1 36.74,27.12 H 36.69 C 36.48,26.96 36,26.72 35.73,26.79 S 35.39,27.17 35.61,27.32 C 36.08,27.64 36.83,27.72 37.19,28.32 C 37.35,28.6 37.39,28.89 37.27,29.18 C 36.87,30.25 35.37,30.15 34.57,29.6 A 0.14,0.14 0 0,1 34.51,29.51 C 34.51,29.48 34.51,29.45 34.53,29.42 L 34.81,28.96 C 34.87,28.86 35,28.89 35.09,28.96 C 35.36,29.12 35.99,29.39 36.22,29.06 C 36.49,28.66 35.81,28.38 35.52,28.29 A 1.95,1.95 0 0,1 34.92,27.93 Z M 47.66,28 C 47.66,28.53 47.43,29.04 47.03,29.41 C 46.63,29.79 46.07,30 45.5,30 C 44.93,30 44.38,29.79 43.98,29.41 C 43.58,29.04 43.35,28.53 43.35,28 C 43.35,27.47 43.58,26.96 43.98,26.59 C 44.38,26.21 44.93,26 45.5,26 C 46.07,26 46.62,26.21 47.03,26.59 C 47.43,26.96 47.66,27.47 47.66,28 Z M 46.68,28 C 46.68,27.7 46.56,27.43 46.34,27.23 C 46.12,27.02 45.82,26.91 45.5,26.91 C 45.2,26.91 44.9,27.02 44.67,27.23 C 44.45,27.43 44.33,27.71 44.33,28 C 44.33,28.29 44.45,28.57 44.67,28.77 C 44.89,28.97 45.19,29.09 45.5,29.09 C 45.82,29.09 46.12,28.98 46.34,28.77 C 46.56,28.57 46.68,28.29 46.68,28 Z"/>
<path d="M 3.99,29.985 V 26.07 L 4.05,26.02 A 0.07,0.07 0 0,1 4.1,26 H 6.64 A 0.1,0.1 0 0,1 6.71,26.03 A 0.1,0.1 0 0,1 6.74,26.1 V 26.74 A 0.1,0.1 0 0,1 6.71,26.81 A 0.1,0.1 0 0,1 6.64,26.84 H 5 V 27.65 H 6.33 C 6.36,27.65 6.39,27.67 6.41,27.69 A 0.1,0.1 0 0,1 6.45,27.77 V 28.4 A 0.1,0.1 0 0,1 6.41,28.48 A 0.12,0.12 0 0,1 6.33,28.51 H 5 V 30 H 4 Z M 15.03,29.16 H 16.51 A 0.1,0.1 0 0,1 16.57,29.18 L 16.6,29.24 V 29.9 A 0.1,0.1 0 0,1 16.57,29.97 A 0.11,0.11 0 0,1 16.49,30 H 14.11 A 0.11,0.11 0 0,1 14.03,29.97 A 0.1,0.1 0 0,1 14,29.9 V 26.1 A 0.1,0.1 0 0,1 14.03,26.03 A 0.11,0.11 0 0,1 14.11,26 H 14.89 C 14.92,26 14.94,26.01 14.96,26.03 A 0.1,0.1 0 0,1 15,26.1 V 29.13 C 15,29.15 15,29.16 15.03,29.16 Z" fill="rgb(214, 12, 9)"/>
<path d="M 39.96,26.825 H 39.07 C 39.06,26.84 39.04,26.84 39.02,26.82 A 0.07,0.07 0 0,1 39,26.77 V 26.1 C 39,26.03 39.04,26 39.1,26 H 41.9 A 0.1,0.1 0 0,1 41.97,26.02 L 42,26.08 V 26.78 C 42,26.79 42,26.81 41.98,26.82 A 0.08,0.08 0 0,1 41.92,26.84 H 41.05 C 41.02,26.84 41,26.85 41,26.88 V 29.88 C 41,29.91 41,29.94 40.97,29.97 A 0.14,0.14 0 0,1 40.88,30 H 40.13 A 0.13,0.13 0 0,1 40.04,29.97 C 40.02,29.95 40,29.92 40,29.89 V 26.87 C 40,26.85 40,26.84 39.97,26.84 Z M 50,26.86 V 29.93 L 49.98,29.98 A 0.06,0.06 0 0,1 49.93,30 H 49.1 A 0.1,0.1 0 0,1 49.03,29.97 A 0.1,0.1 0 0,1 49,29.9 V 26.13 A 0.13,0.13 0 0,1 49.04,26.03 A 0.12,0.12 0 0,1 49.13,26 H 50.5 C 50.84,26 51.09,26.03 51.24,26.08 C 51.52,26.19 51.74,26.39 51.87,26.68 C 52.2,27.38 51.87,28.08 51.21,28.38 C 51.19,28.38 51.19,28.39 51.2,28.41 L 51.95,29.85 A 0.1,0.1 0 0,1 51.95,29.95 A 0.1,0.1 0 0,1 51.87,30 H 51.09 A 0.1,0.1 0 0,1 50.99,29.94 L 50.33,28.58 C 50.23,28.38 50.27,28.05 50.27,27.82 C 50.27,27.79 50.29,27.76 50.31,27.74 A 0.12,0.12 0 0,1 50.39,27.7 C 50.56,27.7 50.76,27.73 50.89,27.65 C 51.17,27.48 51.21,27.08 50.93,26.9 C 50.73,26.77 50.27,26.83 50.03,26.83 C 50.01,26.83 50,26.83 50,26.86 Z"/>
</svg>
