<?xml version="1.0" encoding="UTF-8"?>
<!-- generated by Finnhub -->
<svg viewBox="0 0 55.5 55.5" xmlns="http://www.w3.org/2000/svg">
<path d="M 0,0 H 55.5 V 55.5 H 0 Z" fill="rgb(239, 242, 248)"/>
<path d="M 8.49,20.985 A 1,1 0 0,1 9.5,20 H 14 V 21.5 H 10 V 23 H 14 V 24 H 10 V 27 H 8.5 V 21 Z" fill="rgb(9, 67, 47)"/>
<path d="M 18.99,26.985 H 16 L 17.5,23.5 L 19,27 Z" fill="rgb(213, 20, 22)"/>
<path d="M 22.49,20.985 A 1,1 0 0,1 23.5,20 H 27.5 A 1,1 0 0,1 28.5,21 V 23 A 1,1 0 0,1 27.5,24 H 27.41 L 28.78,27 H 27.13 L 25.76,24 H 24 V 27 H 22.5 V 21 Z M 24,23 V 21.5 H 26.5 C 26.78,21.5 27,21.72 27,22 V 22.5 A 0.5,0.5 0 0,1 26.5,23 H 24 Z" fill="rgb(9, 67, 47)" fill-rule="evenodd"/>
<path d="M 16.74,19.985 H 18.27 L 21.53,27 H 19.88 L 17.5,21.82 L 15.12,27 H 13.47 L 16.75,20 Z M 29.5,20 H 31 L 33.25,24.56 L 35.5,20 H 37 V 27 H 35.5 V 23.4 L 33.7,27 H 32.8 L 31,23.4 V 27 H 29.5 V 20 Z M 37.5,20 H 39 L 41.25,24.56 L 43.5,20 H 45 V 27 H 43.5 V 23.4 L 41.7,27 H 40.8 L 39,23.4 V 27 H 37.5 V 20 Z M 46,20 H 47.5 V 27 H 46 V 20 Z" fill="rgb(9, 67, 47)"/>
<path d="M 8.19,35.685 L 8,34.7 A 7.64,7.64 0 0,0 11.14,30.5 H 10 V 31 H 9 V 29.5 H 11.37 C 11.43,29.16 11.47,28.83 11.5,28.5 L 13.4,28 A 8.9,8.9 0 0,1 13.1,29.5 H 16 A 1,1 0 0,1 17,30.5 V 31 H 16 V 30.5 H 12.75 C 12.61,30.84 12.45,31.18 12.27,31.5 H 13.3 C 13.5,32.5 14.3,33.5 14.3,33.5 S 14.57,33.3 14.92,32.92 C 15.18,32.62 15.6,32 15.6,32 H 17 C 16.83,32.5 16.5,33.5 14.8,34 L 17,35.5 V 37 A 7.2,7.2 0 0,1 12,32 V 31.98 L 11.99,32 H 12 V 35.92 A 3.94,3.94 0 0,0 13.5,35 V 36 C 12.7,36.8 11.5,37 11,37 V 33.39 A 8.8,8.8 0 0,1 8.2,35.7 Z M 32,29 V 28.5 L 33.5,28 V 29 H 35 A 1,1 0 0,1 36,30 V 31.5 A 1,1 0 0,1 35,32.5 H 30 V 36 C 30.5,36 31.83,35.17 32,35 V 36 S 31,36.6 30,37 H 29 V 29 H 32 Z M 35,31.5 H 30 V 31 H 35 V 31.5 Z M 35,30.5 H 30 V 30 H 35 V 30.5 Z M 31,33 H 32.5 C 32.67,33.33 33.1,34.1 33.5,34.5 C 33.67,34.5 34.2,34.2 35,33 H 36.5 C 36.33,33.5 35.7,34.6 34.5,35 C 34.67,35.33 35.3,35.9 36.5,36 L 37,37 H 36.5 A 6.3,6.3 0 0,1 31,33 Z M 26,37 L 27.5,35.6 C 26.83,34.73 25.5,33 24,32.5 V 32 H 27 V 31 H 24 V 28 H 22 V 31 H 19 V 32 H 20.4 C 19.95,34.08 18.96,35.2 18.5,35.5 V 36.5 C 20.57,35.67 21.68,33.48 22,32.18 V 37 H 24 V 32.91 C 24.86,33.67 26,34.94 26,37 Z M 21,29 H 19.5 L 20.5,30.5 H 21.5 C 21.33,30.33 21,29.8 21,29 Z M 26.5,29 H 25 C 25,29.8 24.67,30.33 24.5,30.5 H 25.5 L 26.5,29 Z M 39,28 H 46 A 1,1 0 0,1 47,29 V 31 A 1,1 0 0,1 46,32 H 39 V 28 Z M 41,29 H 45 V 31 H 41 V 29 Z M 42,32.5 H 38 V 37 H 42 A 0.5,0.5 0 0,0 42.5,36.5 V 33 A 0.5,0.5 0 0,0 42,32.5 Z M 41,33.5 H 39.5 V 36 H 41 V 33.5 Z M 43.5,32.5 H 47.5 C 47.78,32.5 48,32.72 48,33 V 36.5 A 0.5,0.5 0 0,1 47.5,37 H 43.5 V 32.5 Z M 45,33.5 H 46.5 V 36 H 45 V 33.5 Z" fill="rgb(9, 67, 47)" fill-rule="evenodd"/>
</svg>
