<?xml version="1.0" encoding="UTF-8"?>
<!-- generated by Finnhub -->
<svg viewBox="0 0 55.5 55.5" xmlns="http://www.w3.org/2000/svg">
<path d="M 0,0 H 55.5 V 55.5 H 0 Z" fill="rgb(239, 242, 248)"/>
<circle cx="28" cy="28" r="16" fill="rgb(5, 98, 170)"/>
<ellipse cx="25.5" cy="30.05" rx="10.5" ry="12.13" fill="rgb(61, 112, 176)"/>
<ellipse cx="25.75" cy="30.44" rx="8.22" ry="9.4" fill="rgb(92, 130, 191)"/>
<ellipse cx="25.66" cy="30.2" rx="5.82" ry="6.49" fill="rgb(121, 148, 201)"/>
<ellipse cx="25.5" cy="30" rx="3.5" ry="4" fill="rgb(142, 164, 210)"/>
<ellipse cx="25.4" cy="30.04" rx="1.47" ry="1.73" fill="rgb(181, 194, 226)"/>
<path d="M 27.16,13.365 C 34.57,13.41 33.17,18.21 33.17,18.21 C 24.97,16.65 26.14,23.98 24.47,26.42 C 22.78,28.86 18.63,30.81 15.32,27.92 C 12.82,25.75 13.37,22.64 13.96,21.35 C 15.29,18.68 19.78,13.34 27.17,13.38 Z" fill="url(#c)"/>
<path d="M 28.36,42.225 C 20.97,42.2 22.74,38.02 22.74,38.02 C 30.94,39.56 29.39,31.78 31.07,29.37 C 32.75,26.97 36.91,25.05 40.22,27.89 C 42.72,30.04 42.16,33.11 41.57,34.37 C 40.25,37.01 35.76,42.27 28.37,42.24 Z" fill="rgb(29, 91, 165)"/>
<path d="M 28.009999999999998,13.365 A 14.2,14.2 0 0,1 40.48,20.67 C 30.22,16.62 27.03,23.55 25.41,25.89 S 19.78,30.09 16.59,27.33 C 14.17,25.24 14.71,22.26 15.29,21.03 C 16.56,18.46 20.89,13.34 28.02,13.38 Z" fill="url(#b)"/>
<path d="M 27.939999999999998,42.445 A 14.2,14.2 0 0,1 15.49,35.17 C 25.75,39.22 28.94,32.29 30.57,29.95 C 32.19,27.61 36.19,25.75 39.39,28.51 C 41.79,30.6 41.26,33.58 40.69,34.81 C 39.42,37.38 35.09,42.5 27.95,42.46 Z" fill="rgb(77, 185, 231)"/>
<path d="M 27.939999999999998,42.115 C 21.76,42.81 17.09,37.63 16.58,36.82 C 26.77,39.77 28.98,33.42 31.44,30.96 C 33.48,28.93 36.65,27.36 38.84,29.49 C 40.84,31.42 39.62,34.43 38.84,35.64 A 15.45,15.45 0 0,1 27.94,42.13 Z" fill="url(#a)"/>
<defs>
<linearGradient id="c" x1="18.81" x2="21.33" y1="20.96" y2="28.06" gradientUnits="userSpaceOnUse">
<stop stop-color="rgb(5, 98, 170)" offset="0"/>
<stop stop-color="rgb(189, 200, 229)" offset=".6"/>
<stop stop-color="rgb(5, 98, 170)" offset="1"/>
</linearGradient>
<linearGradient id="b" x1="24.69" x2="26.76" y1="18.6" y2="26.31" gradientUnits="userSpaceOnUse">
<stop stop-color="rgb(132, 199, 240)" offset="0"/>
<stop stop-color="rgb(252, 254, 252)" offset="1"/>
</linearGradient>
<linearGradient id="a" x1="33.26" x2="30.22" y1="36.84" y2="30.02" gradientUnits="userSpaceOnUse">
<stop stop-color="rgb(120, 198, 236)" offset="0"/>
<stop stop-color="rgb(210, 232, 245)" offset="1"/>
</linearGradient>
</defs>
</svg>
