<?xml version="1.0" encoding="UTF-8"?>
<!-- generated by Finnhub -->
<svg viewBox="0 0 55.5 55.5" xmlns="http://www.w3.org/2000/svg">
<path d="M 0,0 H 55.5 V 55.5 H 0 Z" fill="url(#a)"/>
<path d="M 14.450000000000001,34.964999999999996 L 23.41,25.64 L 25.41,27.74 L 17.91,34.98 H 19.09 L 25.72,28.07 L 27.79,30.23 L 22.84,34.98 H 23.77 L 28.04,30.5 L 32.34,34.97 H 33.28 L 28.33,30.23 L 30.34,28.12 L 36.93,35 H 38.11 L 30.64,27.78 L 32.64,25.68 L 41.55,34.98 H 43.04 L 33,25.3 L 33.78,24.48 L 32.96,25.27 L 30.59,22.99 L 32.63,20.87 L 46.14,34.97 H 48 L 32.96,20.51 L 33.17,20.29 L 32.95,20.49 L 30.58,18.19 L 32.22,16.49 L 30.48,18.13 L 28.16,15.89 L 31.87,12 L 28.01,15.72 L 24.14,12 L 27.85,15.9 L 25.53,18.13 L 23.83,16.49 L 25.47,18.2 L 23.05,20.5 L 22.85,20.3 L 23.05,20.5 L 8,34.98 H 9.86 L 23.4,20.87 L 25.44,22.99 L 23.07,25.26 L 22.27,24.48 L 23.04,25.29 L 12.96,34.98 H 14.45 Z M 28.04,30.02 L 25.87,27.95 L 28.01,25.68 L 30.17,27.93 L 28.04,30.02 Z M 25.82,23.16 L 28.01,20.86 L 30.22,23.16 L 28.01,25.26 L 25.82,23.16 Z M 32.59,25.64 L 30.49,27.64 L 28.22,25.46 L 30.32,23.26 L 32.59,25.64 Z M 32.59,20.87 L 30.49,22.89 L 28.19,20.68 L 30.32,18.47 L 32.59,20.87 Z M 28.01,16.07 L 30.23,18.38 L 28,20.51 L 25.77,18.37 L 28,16.07 Z M 23.41,20.84 L 25.71,18.45 L 27.85,20.68 L 25.53,22.88 L 23.42,20.84 Z M 25.69,23.26 L 27.79,25.46 L 25.54,27.62 L 23.45,25.64 L 25.69,23.26 Z" fill="rgb(254, 254, 253)"/>
<defs>
<linearGradient id="a" x1="10.42" x2="68.15" y1="9.71" y2="76.02" gradientUnits="userSpaceOnUse">
<stop stop-color="rgb(25, 29, 31)" offset="0"/>
<stop stop-color="rgb(5, 5, 8)" offset="1"/>
</linearGradient>
</defs>
</svg>
