<?xml version="1.0" encoding="UTF-8"?>
<!-- generated by Finnhub -->
<svg viewBox="0 0 55.5 55.5" xmlns="http://www.w3.org/2000/svg">
<path d="M 0,0 H 55.5 V 55.5 H 0 Z" fill="rgb(1, 16, 114)"/>
<path d="M 19.584,36.985 H 14.891 A 0.52,0.52 0 0,1 14.528,36.854 L 11.3,33.707 A 0.982,0.982 0 0,1 11.3,32.293 L 14.979,28.707 C 15.379,28.317 15.379,27.683 14.979,27.293 L 11.3,23.707 A 0.982,0.982 0 0,1 11.3,22.293 L 15.554,18.146 A 0.52,0.52 0 0,1 15.916,18 H 20.62 C 21.077,18 21.306,18.539 20.983,18.854 L 17.455,22.293 A 0.982,0.982 0 0,0 17.455,23.707 L 21,27.293 C 21.4,27.683 21.4,28.317 21,28.707 L 17.455,32.293 A 0.982,0.982 0 0,0 17.455,33.707 L 19.957,36.147 C 20.28,36.461 20.051,37 19.594,37 Z M 43.187,38 H 38.483 A 0.52,0.52 0 0,1 38.12,37.854 L 34,33.707 A 0.982,0.982 0 0,1 34,32.293 L 37.545,28.707 C 37.945,28.317 37.945,27.683 37.545,27.293 L 34,23.707 A 0.982,0.982 0 0,1 34,22.293 L 38.12,18.146 A 0.52,0.52 0 0,1 38.483,18 H 43.187 C 43.644,18 43.872,18.539 43.549,18.854 L 40.021,22.293 A 0.982,0.982 0 0,0 40.021,23.707 L 43.7,27.293 C 44.1,27.683 44.1,28.317 43.7,28.707 L 40.021,32.293 A 0.982,0.982 0 0,0 40.021,33.707 L 43.549,37.147 C 43.872,37.461 43.644,38 43.187,38 Z M 26.232,14 H 30.865 C 31.324,14 31.552,14.542 31.225,14.856 L 28.693,17.289 A 0.983,0.983 0 0,0 28.692,18.712 L 32,22.29 A 0.982,0.982 0 0,1 32,23.712 L 28.69,27.29 A 0.982,0.982 0 0,0 28.69,28.712 L 32,32.29 A 0.982,0.982 0 0,1 32,33.712 L 28.692,37.289 A 0.983,0.983 0 0,0 28.692,38.712 L 31.225,41.145 C 31.551,41.459 31.323,42.001 30.865,42.001 H 26.232 A 0.52,0.52 0 0,1 25.872,41.857 L 22.594,38.708 A 0.982,0.982 0 0,1 22.589,37.288 L 26.262,33.708 C 26.662,33.318 26.662,32.684 26.262,32.294 L 23,28.707 A 0.982,0.982 0 0,1 23,27.293 L 26.262,23.707 C 26.662,23.317 26.662,22.683 26.262,22.293 L 22.589,18.713 A 0.982,0.982 0 0,1 22.594,17.293 L 25.872,14.143 A 0.52,0.52 0 0,1 26.232,14 Z" fill="rgb(254, 212, 95)"/>
</svg>
