<?xml version="1.0" encoding="UTF-8"?>
<!-- generated by Finnhub -->
<svg viewBox="0 0 55.5 55.5" xmlns="http://www.w3.org/2000/svg">
<path d="M 0,0 H 55.5 V 55.5 H 0 Z" fill="rgb(0, 92, 168)"/>
<path d="M 9.55,30.395 C 8.97,30.78 8.21,31 7.38,31 C 5.51,31 4,29.88 4,28.5 S 5.51,26 7.38,26 C 8.21,26 8.98,26.22 9.56,26.59 V 27.73 C 9.16,27.22 8.36,26.87 7.46,26.87 C 6.13,26.87 5,27.6 5,28.5 C 5,29.4 6.13,30.13 7.45,30.13 C 8.36,30.13 9.15,29.78 9.56,29.27 V 30.41 Z M 33.4,30.41 C 32.82,30.78 32.09,31 31.28,31 C 29.47,31 28,29.88 28,28.5 S 29.47,26 31.28,26 C 32.08,26 32.82,26.22 33.4,26.59 V 27.73 C 33,27.22 32.23,26.87 31.35,26.87 C 30.06,26.87 29.02,27.6 29.02,28.5 C 29.02,29.4 30.06,30.13 31.35,30.13 C 32.23,30.13 33,29.78 33.4,29.27 V 30.41 Z" fill="rgb(254, 254, 253)"/>
<path d="M 14.39,25.985 H 11 V 31 H 12 V 29.31 H 14.07 L 15.09,31 H 16.23 L 15.11,29.15 A 1.66,1.66 0 0,0 14.39,26 Z M 14.3,27 H 12 V 28.4 H 14.3 A 0.7,0.7 0 0,0 14.3,27 Z" fill="rgb(254, 254, 253)" fill-rule="evenodd"/>
<path d="M 46.99,25.985 V 27 H 49 V 31 H 50 V 27 H 52 V 26 H 47 Z M 18,26 H 17 V 31 H 22 V 30 H 18 V 29 H 21 V 28 H 18 V 27 H 22 V 26 H 18 Z M 35,26 H 34 V 31 H 39 V 30 H 35 V 29 H 38 V 28 H 35 V 27 H 39 V 26 H 35 Z M 25.18,26 C 26.25,26.03 27.03,26.27 27.29,26.39 L 27.19,27.27 C 26.94,27.12 26.19,26.92 25.37,26.87 C 24.56,26.82 23.76,26.99 23.74,27.27 C 23.73,27.54 24.04,27.75 25.18,27.91 C 26.33,28.07 27.61,28.35 27.6,29.49 C 27.59,30.63 26.42,31.02 25.04,30.99 A 9.44,9.44 0 0,1 22.62,30.64 V 29.64 C 23,29.78 24.09,30.12 25.04,30.11 C 26,30.09 26.57,29.88 26.54,29.49 C 26.52,29.09 25.91,28.99 25.04,28.87 C 24.18,28.74 22.76,28.57 22.71,27.42 C 22.66,26.26 23.84,25.97 25.18,26 Z M 40,26 V 31 H 41 V 27.8 L 46,31 V 26 H 45 V 29.2 L 40,26 Z" fill="rgb(254, 254, 253)"/>
</svg>
