<?xml version="1.0" encoding="UTF-8"?>
<!-- generated by Finnhub -->
<svg viewBox="0 0 55.5 55.5" xmlns="http://www.w3.org/2000/svg">
<path d="M 0,0 H 55.5 V 55.5 H 0 Z" fill="rgb(43, 168, 221)"/>
<path d="M 27.99,43.985 A 16,16 0 0,0 44,27.47 A 14.95,14.95 0 1,1 28.52,12 L 28,12 A 16,16 0 0,0 28,44 Z" fill="rgb(254, 254, 253)"/>
<path d="M 38.25,36.765 A 13.43,13.43 0 1,0 19.41,17.93 A 13.33,13.33 0 0,1 38.26,36.78 Z" fill="rgb(254, 254, 253)"/>
<path d="M 34.440000000000005,37.755 A 11.52,11.52 0 0,0 20.47,19.47 A 11.95,11.95 0 0,1 37.14,30.29 A 11.7,11.7 0 0,1 34.44,37.77 Z" fill="rgb(254, 254, 253)"/>
<path d="M 28.95,39.025 A 9.24,9.24 0 1,0 18.56,24 A 9.14,9.14 0 0,1 28.96,39.04 Z" fill="rgb(254, 254, 253)"/>
<circle cx="24" cy="31" r="2" fill="rgb(254, 254, 253)"/>
</svg>
