<?xml version="1.0" encoding="UTF-8"?>
<!-- generated by Finnhub -->
<svg viewBox="0 0 55.5 55.5" xmlns="http://www.w3.org/2000/svg">
<path d="M 11.49,20.985 L 8,26 L 5,25 L 11.5,21 L 18,25 L 15,26 L 18,31 L 11.5,32.5 L 15,26 L 11.5,21 Z" fill="rgb(54, 94, 142)"/>
<path d="M 11.49,32.485 L 8,26 L 5,31 L 11.5,32.5 Z" fill="rgb(70, 103, 143)"/>
<path d="M 7.99,25.985 L 5,25 V 31 L 8,26 Z" fill="rgb(6, 79, 121)"/>
<path d="M 14.99,25.985 H 8 L 11.5,21 L 15,26 Z" fill="rgb(4, 78, 126)"/>
<path d="M 17.99,24.985 L 15,26 L 18,31 V 25 Z" fill="rgb(6, 77, 120)"/>
<path d="M 14.99,25.985 H 8 L 11.5,32.5 L 15,26 Z" fill="rgb(108, 127, 159)"/>
<path d="M 11.49,34.985 V 32.5 L 18,31 L 11.5,35 Z" fill="rgb(55, 93, 137)"/>
<path d="M 11.49,32.485 L 5,31 L 11.5,35 V 32.5 Z" fill="rgb(1, 74, 122)"/>
<path d="M 23.99,23.985 H 25 V 29 H 27 V 24 H 31 C 32,24.17 34,25.2 34,28 S 32,31.83 31,32 H 27 V 30 H 25 V 32 H 24 V 30 H 20 V 29 L 24,24 Z M 28,31 H 31 C 31.67,30.83 33,30 33,28 S 31.67,25.17 31,25 H 28 V 31 Z M 24,29 H 21.5 L 24,26 V 29 Z" fill="rgb(4, 80, 131)" fill-rule="evenodd"/>
<path d="M 34.99,31.985 V 24 H 36 L 39,27 L 42,24 H 43 V 32 H 42 V 25.5 L 39,28.5 L 36,25.5 V 32 H 35 Z M 51,24 H 44 V 25 H 47 V 32 H 48 V 25 H 51 V 24 Z" fill="rgb(0, 185, 205)"/>
</svg>
