<?xml version="1.0" encoding="UTF-8"?>
<!-- generated by Finnhub -->
<svg viewBox="0 0 55.5 55.5" xmlns="http://www.w3.org/2000/svg">
<path d="M 0,0 H 55.5 V 55.5 H 0 Z" fill="rgb(239, 242, 248)"/>
<path d="M 3.99,23.985 H 12 V 26 H 7 V 27 H 11 V 29 H 7 V 32 H 4 V 24 Z M 15,24 H 13 V 32 H 21 V 30 H 16 V 29 H 20 V 27 H 16 V 26 H 21 V 24 H 15 Z M 25,24 V 24.01 L 28,28.01 V 24 H 31 V 32 H 28 V 31.99 L 25,27.99 V 32 H 22 V 24 H 25 Z" fill="rgb(10, 62, 49)"/>
<path d="M 37.59,23.985 H 32 V 32 H 37.6 C 39.48,32 41,30.37 41,28.37 V 27.63 C 41,25.63 39.48,24 37.6,24 Z M 36.38,26 H 35 V 30 H 36.38 C 37.28,30 38,29.1 38,28 S 37.28,26 36.38,26 Z" fill="rgb(10, 62, 49)" fill-rule="evenodd"/>
<path d="M 43.99,23.985 H 41 L 44,28 H 47 L 44,24 Z M 44,28 H 47 L 39,38 H 36 L 44,28 Z" fill="rgb(10, 62, 49)"/>
<path d="M 48.99,21.985 H 52 L 47,28 H 44 L 49,22 Z M 47,28 H 44 L 47.28,32 H 50.28 L 47,28 Z" fill="rgb(242, 121, 31)"/>
</svg>
