<?xml version="1.0" encoding="UTF-8"?>
<!-- generated by Finnhub -->
<svg viewBox="0 0 55.5 55.5" xmlns="http://www.w3.org/2000/svg">
<path d="M 0,0 H 55.5 V 55.5 H 0 Z" fill="rgb(1, 92, 168)"/>
<path d="M 42.547000000000004,25.617 C 42.986,26.118 43,26.515 43,27 H 36 C 35.762,24.573 34.795,22.323 32.462,20.868 C 30.557,19.588 27.842,19.456 25.509,19.985 C 22.557,20.955 20.279,23.643 20.04,26.555 L 20,27 H 13 C 13.048,26.338 13.033,26.073 13.51,25.632 C 13.51,25.632 23.667,16.059 28,12 L 42.557,25.632 Z" fill="rgb(254, 254, 253)"/>
<path d="M 23.99,22.985 V 35 L 26,33.58 V 28.565 L 27.589,27.145 V 24.495 L 26,25.915 V 24.685 L 28,22.792 V 31 L 32,35 V 32 L 30,30.363 V 29.152 L 32,31 V 28 L 30,26.577 V 25.31 L 32,27 V 23.996 L 28.41,20 H 27.632 L 24,23 Z" fill="rgb(254, 254, 253)"/>
<path d="M 42.514,30.352999999999998 C 43,29.882 43,29.485 43,29 H 36 C 35.762,31.427 34.762,33.676 32.428,35.132 C 30.524,36.412 27.81,36.544 25.476,36.015 C 22.524,35.088 20.238,32.397 20,29.485 V 29 H 13 C 13,29.838 13,30.015 13.476,30.456 A 3896.74,3896.74 0 0,1 28,44 L 42.524,30.368 Z" fill="rgb(254, 254, 253)"/>
</svg>
