<?xml version="1.0" encoding="UTF-8"?>
<!-- generated by Finnhub -->
<svg viewBox="0 0 55.5 55.5" xmlns="http://www.w3.org/2000/svg">
<path d="M 0,0 H 55.5 V 55.5 H 0 Z" fill="rgb(239, 242, 248)"/>
<path d="M 10.99,27.655 A 14.64,14.64 0 0,1 13.4,19.34 C 10.72,27.53 14.23,32.35 16.33,33.74 C 14.53,30.64 14.03,26.81 14,25.29 C 14.3,13.6 23.1,10.9 27.45,11 C 17.64,13.7 16.47,20.97 16.33,24.14 A 9.77,9.77 0 0,0 18.25,30.38 A 21,21 0 0,1 17.74,25.92 C 17.84,18.54 23.64,11.92 31.27,12.13 C 37.37,12.3 41.04,16.54 42.12,18.64 C 38.49,14.95 34.38,14.1 32.78,14.14 C 24.4,14.18 21.08,21.2 20.77,25.92 C 20.53,29.69 22.75,31.55 23.9,32.02 C 25.03,32.48 27.7,32.69 29.4,29.86 C 31.1,27.03 33.03,26.91 33.8,27.2 C 32.57,27.72 32.45,28.69 32.28,30.15 C 32.23,30.55 32.18,31 32.1,31.49 C 31.6,34.39 29.05,40.13 22.78,39.88 C 14.95,39.57 11.06,32.74 11,27.67 Z M 45,28.33 A 14.64,14.64 0 0,1 42.6,36.66 C 45.28,28.47 41.77,23.65 39.67,22.26 C 41.47,25.36 41.97,29.19 42,30.71 C 41.7,42.4 32.9,45.1 28.55,45 C 38.36,42.3 39.53,35.03 39.67,31.86 A 9.77,9.77 0 0,0 37.75,25.62 A 21,21 0 0,1 38.26,30.08 C 38.16,37.46 32.36,44.08 24.73,43.87 C 18.63,43.7 14.96,39.46 13.88,37.36 C 17.51,41.05 21.62,41.9 23.22,41.86 C 31.6,41.82 34.92,34.8 35.23,30.08 C 35.47,26.31 33.25,24.45 32.1,23.98 C 30.97,23.52 28.3,23.31 26.6,26.14 C 24.9,28.97 22.97,29.09 22.2,28.8 C 23.43,28.28 23.55,27.31 23.72,25.85 C 23.77,25.45 23.82,25 23.9,24.51 C 24.4,21.61 26.95,15.87 33.22,16.12 C 41.05,16.43 44.94,23.26 45,28.33 Z M 25.3,29.07 C 25.64,28.98 26.5,28.53 27.28,27.45 A 2.66,2.66 0 0,1 30.64,26.61 A 5,5 0 0,0 28.77,28.4 C 27.87,29.82 26.01,29.75 25.3,29.07 Z" fill="rgb(244, 66, 65)"/>
</svg>
