<?xml version="1.0" encoding="UTF-8"?>
<!-- generated by Finnhub -->
<svg viewBox="0 0 55.5 55.5" xmlns="http://www.w3.org/2000/svg">
<path d="M 0,0 H 55.5 V 55.5 H 0 Z" fill="rgb(239, 242, 248)"/>
<path d="M 11.790000000000001,24.005 C 11.98,23.85 12.1,23.62 12.1,23.39 C 12.1,22.79 11.4,22.32 10.55,22.32 C 9.69,22.32 9,22.8 9,23.39 C 9,23.98 9.7,24.46 10.55,24.46 L 10.77,24.45 L 24.1,39.82 C 24.3,40.04 24.62,40.06 24.83,39.86 C 25.04,39.66 25.06,39.33 24.87,39.11 L 11.79,24.02 Z" fill="rgb(185, 139, 9)"/>
<path d="M 17.0,28.384999999999998 L 13.01,23.42 C 12.89,22.32 13.51,19 17.01,19 C 22.53,19 28.01,23.42 31.51,23.42 C 34.41,23.42 36.51,21.95 37.51,21.21 L 42,26.74 C 41.83,27.11 40.1,28.94 36.88,28.94 C 32.88,28.94 25.92,23.42 21.88,23.42 C 18.89,23.42 17.34,26.37 17.01,28.39 Z" fill="rgb(1, 42, 90)"/>
<path d="M 22.0,35.015 L 18.01,30.05 C 17.89,28.95 18.51,24.53 22.01,24.53 C 27.53,24.53 33.39,30.05 36.88,30.05 C 39.78,30.05 41.5,28.58 42.5,27.85 L 47,33.37 C 46.83,33.74 45.1,35.57 41.88,35.57 C 37.88,35.57 30.92,30.05 26.88,30.05 C 23.39,30.05 22.34,33 22.01,35.03 Z" fill="rgb(185, 139, 9)"/>
</svg>
