<?xml version="1.0" encoding="UTF-8"?>
<!-- generated by Finnhub -->
<svg viewBox="0 0 55.5 55.5" xmlns="http://www.w3.org/2000/svg">
<path d="M 0,0 H 55.5 V 55.5 H 0 Z" fill="rgb(239, 242, 248)"/>
<path d="M 32.190000000000005,12.985 H 13 V 38.2 C 16.02,20.46 32.2,13 32.2,13 Z M 22.31,27.37 C 27.41,22.37 35.96,18.33 43,17.67 V 13 H 41.1 C 38.37,13.7 30.46,16.08 22.23,24.87 C 13.99,33.67 13,42.12 13,42.12 C 13.37,40.58 17.22,32.37 22.31,27.37 Z M 29.68,27.62 C 31.67,26.54 38.28,24.52 43,24.22 V 20.78 S 37.25,22.12 35.64,22.83 C 34.02,23.53 29.84,24.83 23.19,29.91 C 15.69,35.7 13.5,43 13.5,43 A 44.05,44.05 0 0,1 23.21,31.5 C 24.38,30.51 27.68,28.7 29.67,27.62 Z M 43,43 V 27.6 S 33.65,28.5 26.45,32.37 C 17.4,37.25 14.32,43 14.32,43 H 43 Z" fill="rgb(3, 68, 117)"/>
</svg>
