<?xml version="1.0" encoding="UTF-8"?>
<!-- generated by Finnhub -->
<svg viewBox="0 0 55.5 55.5" xmlns="http://www.w3.org/2000/svg">
<path d="M 0,0 H 55.5 V 55.5 H 0 Z" fill="rgb(8, 49, 100)"/>
<path d="M 27.49,40.985 H 25.96 V 28.9 C 25.96,25.82 23.64,25 22.47,25 H 14.33 C 12.47,25 12,21.02 12,19 C 12,19.44 13.16,19.5 13.75,19.5 H 25.96 C 27.36,19.5 27.5,20.65 27.5,21.2 V 41 Z" fill="rgb(254, 254, 253)"/>
<path d="M 25.49,40.985 H 24 V 35.5 C 24,32.86 21.24,32 20.07,32 H 16 C 14.14,32 13.7,27.97 13.7,25.95 C 14.16,26.39 14.66,26.5 14.85,26.5 H 23 C 24.86,26.5 25.5,28.17 25.5,28.9 V 41 Z" fill="rgb(254, 254, 253)"/>
<path d="M 17.15,33.535 C 16.23,33.55 16,33.18 16,33 C 16,36.3 17,39 18.26,39 H 20.01 C 21.41,39 22,40.45 22,41 H 23.5 V 35.5 C 23.5,34.18 22.01,33.55 21.24,33.55 H 17.16 Z M 28.5,41 H 30.04 V 28.9 C 30.04,25.82 32.36,25 33.53,25 H 41.67 C 43.53,25 44,21.02 44,19 C 44,19.44 42.84,19.5 42.25,19.5 H 30.04 C 28.64,19.5 28.5,20.65 28.5,21.2 V 41 Z" fill="rgb(254, 254, 253)"/>
<path d="M 30.49,40.985 H 32 V 35.5 C 32,32.86 34.76,32 35.93,32 H 40 C 41.86,32 42.3,27.97 42.3,25.95 A 1.9,1.9 0 0,1 41.15,26.5 H 33 C 31.14,26.5 30.5,28.17 30.5,28.9 V 41 Z" fill="rgb(254, 254, 253)"/>
<path d="M 38.84,33.535 C 39.78,33.55 40.01,33.18 40.01,33 C 40.01,36.3 39.01,39 37.75,39 H 36 C 34.6,39 34,40.45 34,41 H 32.5 V 35.5 C 32.5,34.18 34,33.55 34.77,33.55 H 38.85 Z" fill="rgb(254, 254, 253)"/>
</svg>
