<?xml version="1.0" encoding="UTF-8"?>
<!-- generated by Finnhub -->
<svg viewBox="0 0 55.5 55.5" xmlns="http://www.w3.org/2000/svg">
<path d="M 0,0 H 55.5 V 55.5 H 0 Z" fill="rgb(23, 26, 28)"/>
<path d="M 43.99,18.985 H 42 V 37 H 44 V 19 Z M 14,28 H 23.37 V 30 H 14 V 37 H 12 V 19 H 23 V 21 H 14 V 28 Z" fill="rgb(239, 242, 248)"/>
<path d="M 31.83,18.985 C 34.39,19 36.16,19.59 37.38,20.64 L 36.84,22.41 C 35.89,21.47 34.41,20.98 32,21 C 28.21,21.03 25,23.88 25,28.04 C 25,32.19 27.85,34.95 31.79,35 C 34.89,35.04 37,34 38,30 H 32 V 28 H 40 C 40,33.03 37.15,37 31.84,37 C 26.52,37 23,33.12 23,28 A 8.82,8.82 0 0,1 31.84,19 Z" fill="rgb(239, 242, 248)"/>
</svg>
