<?xml version="1.0" encoding="UTF-8"?>
<!-- generated by Finnhub -->
<svg viewBox="0 0 55.5 55.5" xmlns="http://www.w3.org/2000/svg">
<path d="M 0,0 H 55.5 V 55.5 H 0 Z" fill="rgb(239, 242, 248)"/>
<path d="M 24.099999999999998,13.084999999999999 L 17.59,17.73 A 0.5,0.5 0 0,0 17.79,18.62 L 38.14,22.85 L 42.74,19.87 L 24.6,13.03 A 0.52,0.52 0 0,0 24.11,13.1 Z" fill="url(#b)"/>
<path d="M 36.09,17.384999999999998 L 12.23,33.83 C 11.92,34.03 11.93,34.47 12.25,34.66 L 28,43.93 C 28.23,44.07 28.54,44 28.69,43.78 L 43.91,20.9 A 0.49,0.49 0 0,0 43.67,20.16 L 36.1,17.4 Z" fill="url(#a)"/>
<defs>
<linearGradient id="b" x1="19.74" x2="33.43" y1="15.41" y2="20.64" gradientUnits="userSpaceOnUse">
<stop stop-color="rgb(238, 35, 40)" offset="0"/>
<stop stop-color="rgb(193, 63, 28)" offset="1"/>
</linearGradient>
<linearGradient id="a" x1="40.18" x2="22.93" y1="19.38" y2="40.23" gradientUnits="userSpaceOnUse">
<stop stop-color="rgb(235, 81, 25)" offset="0"/>
<stop stop-color="rgb(246, 170, 24)" offset="1"/>
</linearGradient>
</defs>
</svg>
