<?xml version="1.0" encoding="UTF-8"?>
<!-- generated by Finnhub -->
<svg viewBox="0 0 55.5 55.5" xmlns="http://www.w3.org/2000/svg">
<path d="M 0,0 H 55.5 V 55.5 H 0 Z" fill="rgb(239, 242, 248)"/>
<path d="M 32.297000000000004,21.985 C 24.735,22 19,28.246 19,36 H 27 C 27,31.073 30.639,26.58 36.513,26.58 C 41.573,26.58 44.996,30.783 44.996,36 H 46.005 C 45.969,28.246 39.879,22 32.307,22 Z" fill="rgb(251, 176, 36)"/>
<path d="M 27.971999999999998,15.985 C 16.937,16 8,24.95 8,36 H 18 C 18,27.667 24.24,20.891 32.596,20.891 S 47,27.667 47,36 H 48 C 47.964,24.95 39.026,16 27.982,16 Z" fill="rgb(178, 30, 39)"/>
<path d="M 35.99,27.985 C 31.6,28 28,31.362 28,36 H 28.998 C 28.998,33.754 30.221,31.942 32.304,31.942 C 34.387,31.942 36,33.754 36,36 H 43.996 C 43.996,31.362 40.401,28 36,28 Z" fill="rgb(126, 35, 37)"/>
</svg>
