<?xml version="1.0" encoding="UTF-8"?>
<!-- generated by Finnhub -->
<svg viewBox="0 0 55.5 55.5" xmlns="http://www.w3.org/2000/svg">
<path d="M 0,0 H 55.5 V 55.5 H 0 Z" fill="rgb(254, 101, 2)"/>
<path d="M 49.99,32.985 H 48 V 35 H 50 V 33 Z M 41.985,22.033 L 44.279,32.653 L 46.39,22.033 H 48.556 L 45.704,34.983 H 42.956 L 40,22.034 H 41.986 Z M 10,22 H 8 V 24 H 10 V 35 H 12 V 24 H 14 V 22 H 12 V 19 C 12,18.616 12.08,18.198 12.3,17.997 C 12.52,17.797 12.856,17.627 13.313,17.627 H 14 V 16 H 12.851 C 11.722,16 11.223,16.263 10.706,16.68 C 10.189,17.096 10,17.741 10,18.662 V 22 Z M 15,35 H 17 V 22 H 15 V 35 Z M 28,29 H 33 V 25.071 C 32.995,22.679 31.786,21.729 29.497,21.729 C 27.117,21.729 26,22.677 26,25.087 V 31.657 C 26.007,33.85 27.402,35.184 29.496,35.184 C 31.589,35.184 32.995,34.05 33,31.658 V 31 H 31 V 31.85 C 31,32.728 30.422,33.335 29.496,33.335 C 28.568,33.335 28,32.723 28,31.849 V 29 Z M 28,24.854 C 28,24.122 28.437,23.364 29.497,23.364 C 30.556,23.364 31,24.11 31,24.853 V 27.005 H 28 V 24.854 Z M 22.501,27.616 C 20.683,26.196 20.256,25.99 20.256,24.931 C 20.256,24.029 20.76,23.481 21.661,23.481 C 22.561,23.481 23,24.022 23,24.941 V 26 H 25 V 24.185 C 24.992,22.65 23.536,21.695 21.476,21.695 C 19.449,21.695 18.012,22.478 18,24.931 C 17.998,25.348 18.001,25.348 18,25.187 C 18.004,25.958 18.124,27.181 20.242,28.817 L 20.849,29.284 C 22.411,30.469 22.792,30.612 22.785,32.021 C 22.785,32.89 22.373,33.537 21.36,33.537 C 20.348,33.537 20,32.885 20,32.475 V 31 H 18 V 32.528 C 18,34.636 19.524,35.295 21.498,35.295 C 23.474,35.295 25,34.63 25,31.919 V 31.693 C 24.995,29.799 24.614,29.29 22.501,27.616 Z M 36,23.353 V 22.033 H 33.999 V 34.99 H 36 V 25.949 C 36,25.25 36.769,24.555 37.237,24.284 C 37.679,24.025 38.306,23.887 39,23.879 V 21.868 C 37.671,21.892 36.674,22.113 36,23.305 V 23.353 Z" fill="rgb(254, 254, 253)"/>
</svg>
