<?xml version="1.0" encoding="UTF-8"?>
<!-- generated by Finnhub -->
<svg viewBox="0 0 55.5 55.5" xmlns="http://www.w3.org/2000/svg">
<path d="M 0,0 H 55.5 V 55.5 H 0 Z" fill="rgb(239, 242, 248)"/>
<path d="M 23.99,27.105 V 38 H 29 V 27.12 A 3.19,3.19 0 0,1 32.16,24 C 33.83,24 35,25.4 35,27.12 V 38 H 40 V 26.06 A 5.97,5.97 0 0,0 34.12,20 H 32.69 C 30.6,20 29.11,21.3 28.07,23.03 A 5.85,5.85 0 0,0 22.98,20 H 21.55 C 19.97,20 18.68,20.65 18,22 C 17.76,21.06 16.84,20 15.85,20 H 13 V 38 H 18 V 27.12 A 3.07,3.07 0 0,1 21.02,24 C 22.69,24 24,25.4 24,27.12 Z" fill="rgb(0, 163, 177)"/>
<circle cx="43" cy="17" r="3" fill="rgb(254, 81, 125)"/>
</svg>
