<?xml version="1.0" encoding="UTF-8"?>
<!-- generated by Finnhub -->
<svg viewBox="0 0 55.5 55.5" xmlns="http://www.w3.org/2000/svg">
<path d="M 0,0 H 55.5 V 55.5 H 0 Z" fill="rgb(121, 193, 184)"/>
<path d="M 39.940000000000005,27.025 C 39.92,27.51 40.1,27.99 40.4,28.34 C 40.73,28.67 41.15,28.91 41.6,29.01 C 41.98,29.12 42.36,29.21 42.73,29.34 C 42.99,29.43 43.25,29.62 43.25,29.94 C 43.25,30.16 43.14,30.36 42.95,30.47 C 42.75,30.56 42.53,30.6 42.32,30.59 A 5.03,5.03 0 0,1 40.37,30.13 L 40.03,31.5 C 40.79,31.84 41.61,32 42.43,32 A 3.1,3.1 0 0,0 44.17,31.52 C 44.67,31.16 44.97,30.55 44.95,29.91 C 44.97,29.42 44.81,28.93 44.51,28.57 A 2.46,2.46 0 0,0 43.3,27.89 C 42.92,27.78 42.53,27.7 42.17,27.58 C 41.91,27.5 41.65,27.33 41.65,27.01 C 41.65,26.8 41.76,26.6 41.95,26.51 C 42.13,26.43 42.34,26.39 42.55,26.41 A 4.07,4.07 0 0,1 44.29,26.79 L 44.62,25.41 A 5.26,5.26 0 0,0 42.44,25.01 C 41.84,24.98 41.24,25.14 40.74,25.48 C 40.21,25.81 39.92,26.41 39.95,27.04 Z M 36.4,32 H 38 V 25 H 36.4 V 32 Z M 30.36,32 H 34.76 V 30.6 H 32 V 25 H 30.36 V 32 Z M 24,32 H 28.55 V 30.6 H 25.62 V 29.11 H 27.57 L 27.9,27.71 H 25.63 V 26.4 H 28.39 V 25 H 24 V 32 Z"/>
<path d="M 22.16,28.485 C 22.17,29.62 21.85,30.5 21.27,31.09 C 20.67,31.69 19.78,32 18.65,32 H 16 V 25 H 18.65 C 19.78,25 20.66,25.31 21.26,25.91 C 21.86,26.5 22.17,27.37 22.17,28.5 Z M 20.47,28.5 C 20.49,29.04 20.34,29.57 20.04,30.01 C 19.68,30.42 19.17,30.64 18.64,30.6 H 17.62 V 26.39 H 18.65 C 19.16,26.35 19.67,26.57 20.04,26.98 C 20.34,27.41 20.5,27.95 20.46,28.5 Z" fill-rule="evenodd"/>
<path d="M 11.99,24.985 H 13.63 V 32 H 12 V 25 Z M 6,32 H 7.63 V 29.38 H 9.57 L 9.9,27.98 H 7.63 V 26.4 H 10.39 V 25 H 6 V 32 Z M 41,20 V 22 H 48 V 29 H 50 V 20 H 41 Z"/>
</svg>
