<?xml version="1.0" encoding="UTF-8"?>
<!-- generated by Finnhub -->
<svg viewBox="0 0 55.5 55.5" xmlns="http://www.w3.org/2000/svg">
<path d="M 0,0 H 55.5 V 55.5 H 0 Z" fill="url(#a)"/>
<path d="M 4.99,21.985 H 51 V 34 H 5 Z" fill="rgb(254, 254, 253)"/>
<path d="M 5.99,22.985 H 39 V 33 H 6 Z" fill="rgb(250, 203, 42)"/>
<path d="M 38.99,22.985 H 50 V 33 H 39 Z"/>
<path d="M 42.800000000000004,25.925 C 43.03,26.36 42.97,26.88 42.98,27.38 H 41.83 C 41.81,27.03 41.88,26.5 41.73,26.34 C 41.67,26.24 41.57,26.23 41.46,26.24 C 41.36,26.24 41.24,26.29 41.2,26.4 C 41.16,26.48 41.16,26.75 41.15,26.94 L 41.17,29.52 C 41.17,29.63 41.23,29.75 41.35,29.79 C 41.45,29.81 41.6,29.82 41.69,29.76 C 41.82,29.66 41.83,29.51 41.84,29.36 V 28.51 H 43 C 42.99,28.87 43.03,29.25 42.97,29.59 L 41.42,30.69 C 40.95,30.69 40.48,30.57 40.22,30.15 A 2.3,2.3 0 0,1 40,28.95 V 26.75 C 40.03,26.21 40.2,25.59 40.82,25.4 A 2.25,2.25 0 0,1 42.37,25.49 C 42.56,25.59 42.73,25.76 42.81,25.94 Z M 49.39,26.39 H 48.49 L 48.48,30.62 H 48.28 L 47.35,29.9 V 26.39 H 46.47 V 25.43 H 49.39 V 26.39 Z M 44.98,26.37 H 44.96 L 44.69,27.8 H 45.29 L 44.99,26.37 Z M 46.7,29.38 L 45,28.05 L 44.38,28.5 L 43.29,29.3 L 44.21,25.43 H 45.81 L 46.71,29.38 Z" fill="rgb(254, 254, 253)"/>
<path d="M 42.04,30.605 L 44.97,28.45 L 47.75,30.61 H 42.05 Z" fill="rgb(250, 203, 42)"/>
<path d="M 13.09,26.985 C 13.27,27 13.35,26.98 13.37,26.8 L 13.43,26.36 L 13.44,26.18 C 13.44,26.08 13.39,26 13.24,26 H 11.47 C 11.14,26 10.91,26.03 10.73,26.09 C 10.35,26.21 10.11,26.43 9.98,26.75 C 9.94,26.86 9.9,27.01 9.88,27.2 L 9.56,29.64 L 9.55,29.82 C 9.55,29.92 9.6,30 9.75,30 H 10.39 C 10.55,30 10.63,29.93 10.65,29.75 L 10.79,28.87 H 12.81 C 12.97,28.87 13.05,28.8 13.07,28.62 L 13.13,28.22 L 13.15,28.04 C 13.15,27.94 13.1,27.86 12.95,27.86 H 10.89 L 10.97,27.3 C 10.99,27.11 11.07,27 11.27,27 H 13.11 Z M 15.25,26.36 L 15.27,26.18 C 15.27,26.08 15.22,26 15.07,26 H 14.43 C 14.27,26 14.19,26.07 14.17,26.25 L 13.73,29.65 L 13.71,29.82 C 13.71,29.92 13.77,30 13.92,30 H 14.56 C 14.72,30 14.79,29.93 14.82,29.75 L 15.25,26.35 Z M 26.54,26.36 L 26.56,26.18 C 26.56,26.08 26.5,26 26.36,26 H 25.72 C 25.56,26 25.48,26.07 25.46,26.25 L 25.02,29.65 L 25,29.82 C 25,29.92 25.06,30 25.2,30 H 25.84 C 26,30 26.08,29.93 26.11,29.75 L 26.54,26.35 Z M 29.74,29.65 L 29.72,29.82 C 29.72,29.92 29.78,30 29.92,30 H 30.56 C 30.72,30 30.8,29.93 30.82,29.76 L 31.11,27.53 C 31.13,27.39 31.14,27.27 31.14,27.12 C 31.14,26.75 31.01,26.42 30.7,26.22 A 1.72,1.72 0 0,0 29.74,26 H 27.67 C 27.51,26 27.43,26.07 27.41,26.25 L 26.97,29.65 L 26.95,29.82 C 26.95,29.92 27.01,30 27.16,30 H 27.8 C 27.96,30 28.03,29.93 28.06,29.76 L 28.4,27 H 29.78 C 29.96,27 30.03,27.15 30.03,27.29 L 30.01,27.5 L 29.74,29.65 Z M 23.12,29.65 L 23.1,29.82 C 23.1,29.92 23.15,30 23.3,30 H 23.94 C 24.1,30 24.18,29.93 24.2,29.76 L 24.49,27.53 C 24.51,27.39 24.52,27.27 24.52,27.12 C 24.52,26.75 24.39,26.42 24.08,26.22 A 1.72,1.72 0 0,0 23.12,26 H 21.05 C 20.89,26 20.81,26.07 20.79,26.25 L 20.35,29.65 L 20.33,29.82 C 20.33,29.92 20.39,30 20.54,30 H 21.18 C 21.34,30 21.41,29.93 21.44,29.76 L 21.78,27 H 23.15 C 23.35,27 23.41,27.15 23.41,27.29 L 23.39,27.5 L 23.12,29.65 Z M 18.42,29.65 L 18.4,29.82 C 18.4,29.92 18.46,30 18.61,30 H 19.25 C 19.41,30 19.49,29.93 19.51,29.76 L 19.8,27.53 C 19.82,27.39 19.83,27.27 19.83,27.12 C 19.83,26.75 19.69,26.42 19.39,26.22 A 1.72,1.72 0 0,0 18.43,26 H 16.36 C 16.2,26 16.12,26.07 16.1,26.25 L 15.66,29.65 L 15.64,29.82 C 15.64,29.92 15.7,30 15.84,30 H 16.48 C 16.64,30 16.72,29.93 16.75,29.76 L 17.09,27 H 18.46 C 18.66,27 18.72,27.15 18.72,27.29 L 18.7,27.5 L 18.42,29.65 Z M 32.82,28.73 L 32.84,28.55 L 33,27.3 C 33.02,27.11 33.11,27 33.3,27 H 35.44 C 35.6,27 35.68,26.98 35.7,26.8 L 35.76,26.36 L 35.78,26.18 C 35.78,26.08 35.72,26 35.58,26 H 33.5 C 33.18,26 32.95,26.03 32.77,26.09 C 32.38,26.21 32.14,26.43 32.01,26.75 C 31.97,26.86 31.94,27.02 31.91,27.2 L 31.74,28.56 A 2.6,2.6 0 0,0 31.7,28.95 C 31.7,29.3 31.83,29.6 32.13,29.79 C 32.33,29.93 32.62,30 33.03,30 H 35.08 C 35.24,30 35.32,29.93 35.35,29.75 L 35.58,27.94 L 35.6,27.74 C 35.6,27.64 35.54,27.57 35.39,27.57 H 33.89 C 33.74,27.57 33.66,27.64 33.64,27.81 L 33.59,28.1 L 33.58,28.28 C 33.58,28.38 33.63,28.46 33.78,28.46 H 34.4 L 34.34,29 H 33.04 C 32.88,29 32.82,28.86 32.82,28.73 Z"/>
<defs>
<linearGradient id="a" x1="10.42" x2="68.15" y1="9.71" y2="76.02" gradientUnits="userSpaceOnUse">
<stop stop-color="rgb(25, 29, 31)" offset="0"/>
<stop stop-color="rgb(5, 5, 8)" offset="1"/>
</linearGradient>
</defs>
</svg>
