<?xml version="1.0" encoding="UTF-8"?>
<!-- generated by Finnhub -->
<svg viewBox="0 0 55.5 55.5" xmlns="http://www.w3.org/2000/svg">
<path d="M 0,0 H 55.5 V 55.5 H 0 Z" fill="rgb(239, 242, 248)"/>
<path d="M 44.99,27.985 A 17,17 0 1,0 28,45 C 28.97,45 30.07,44.92 31,44.76 V 19 H 27 C 25.68,22.5 22,22.5 22,22.5 V 26 H 25 V 39.5 C 19.72,38.28 16,33.64 16,28 C 16,21.42 21.43,16 28,16 C 34.58,16 40,21.42 40,28 C 40,32.96 37.3,36.81 33,38.6 V 44 C 40.15,42 45,35.8 45,28 Z" fill="rgb(1, 98, 63)"/>
</svg>
