<?xml version="1.0" encoding="UTF-8"?>
<!-- generated by Finnhub -->
<svg viewBox="0 0 55.5 55.5" xmlns="http://www.w3.org/2000/svg">
<path d="M 0,0 H 55.5 V 55.5 H 0 Z" fill="rgb(239, 242, 248)"/>
<path d="M 15.42,29.09 C 13.209,25.6 17.182,19.175 24.307,14.855 C 27.927,12.635 31.666,11.35 34.7,11 H 37.272 C 39.142,11.234 40.542,11.934 41.36,13.103 C 42.646,15.088 41.828,18.009 39.609,21.046 L 41.478,21.513 L 36.689,24.9 L 35.522,19.293 L 37.273,19.994 C 37.273,19.06 37.157,18.243 36.923,17.891 C 35.638,15.906 31.433,16.372 27.46,18.825 C 23.49,21.278 21.272,26.535 22.556,28.404 C 23.722,30.273 27.462,30.039 31.316,27.936 C 31.316,27.936 31.551,27.82 31.433,28.052 C 27.576,30.155 23.724,31.323 20.687,31.323 C 18.231,31.324 16.362,30.623 15.43,29.105 Z" fill="rgb(33, 120, 185)"/>
<path d="M 13.549,42.989 C 12.391,41.019 13.091,38.098 15.31,35.179 L 13.441,34.711 L 18.347,31.207 L 19.401,36.93 L 17.649,36.229 C 17.649,37.163 17.765,37.981 17.999,38.332 C 19.282,40.317 23.489,39.85 27.46,37.398 C 31.43,34.946 33.65,29.688 32.482,27.703 C 31.312,25.952 27.458,26.184 23.722,28.287 H 23.605 S 23.372,28.404 23.603,28.171 C 30.379,24.316 37.388,23.733 39.49,27.119 C 41.71,30.624 37.738,36.93 30.613,41.369 C 26.406,43.939 22.203,45.223 18.931,45.223 C 16.479,45.223 14.493,44.523 13.559,43.004 Z" fill="rgb(199, 41, 50)"/>
</svg>
