<?xml version="1.0" encoding="UTF-8"?>
<!-- generated by Finnhub -->
<svg viewBox="0 0 55.5 55.5" xmlns="http://www.w3.org/2000/svg">
<path d="M 0,0 H 55.5 V 55.5 H 0 Z" fill="rgb(239, 242, 248)"/>
<path d="M 8.99,20.955 L 11.992,20.475 C 17.597,19.938 23,20.5 27.921,21.964 C 31.461,23.08 34.662,24.61 37.528,26.555 C 38.793,27.465 39.762,28.25 40.436,28.913 C 36.854,26.843 33.61,25.52 30.786,24.9 C 27.879,24.28 23.75,24.032 18.44,24.197 C 15.195,24.321 12.035,24.983 9.001,26.265 V 31.973 C 13.595,29.367 19.284,28.084 26.067,28.084 C 30.239,28.084 34.117,28.624 37.699,29.697 C 41.196,30.773 43.978,32.221 46,34 V 19.895 C 46,19.109 45.706,18.407 45.115,17.827 A 2.87,2.87 0 0,0 44.168,17.208 A 2.913,2.913 0 0,0 43.05,17 H 11.95 C 11.15,17 10.433,17.29 9.843,17.827 A 2.951,2.951 0 0,0 9.001,19.895 V 20.971 H 9 Z" fill="rgb(143, 45, 49)"/>
<path d="M 44.854,34.486 C 44.023,33.894 42.928,33.368 41.539,32.921 A 15.524,15.524 0 0,0 37.289,32.069 C 34.387,31.746 30.726,32.556 26.391,34.501 A 89.648,89.648 0 0,1 20.878,36.689 C 18.691,37.459 17.133,37.946 16.25,38.149 L 12.336,38.959 L 12,39 H 42.718 C 43.643,38.958 44.443,38.674 45.074,38.188 C 45.705,37.702 46,37.094 46,36.405 C 46,35.677 45.622,35.027 44.864,34.501 Z" fill="rgb(209, 165, 84)"/>
</svg>
