<?xml version="1.0" encoding="UTF-8"?>
<!-- generated by Finnhub -->
<svg viewBox="0 0 55.5 55.5" xmlns="http://www.w3.org/2000/svg">
<path d="M 0,0 H 55.5 V 55.5 H 0 Z" fill="rgb(46, 62, 70)"/>
<path d="M 29.99,28.935 C 30,29.51 30.07,30.27 30.73,30.27 C 31.27,30.27 31.51,30.14 31.91,29.75 L 32.5,31.14 C 31.91,31.68 31.22,32 30.42,32 C 28.83,32 28,30.78 28,29.28 V 25.5 H 27 V 24 H 28 V 22 H 30 V 24 H 32 V 25.5 H 30 V 28.95 Z M 17,22 H 15 V 32 H 17 V 22 Z M 24,28.33 C 24,29.35 23.39,30.35 22.3,30.35 C 21.4,30.35 21,29.67 21,28.81 V 24 H 19 V 28.81 C 19,29.77 19.25,30.56 19.73,31.13 C 20.2,31.7 20.93,32 21.88,32 A 3.17,3.17 0 0,0 23.31,31.67 C 23.5,31.57 23.66,31.46 23.78,31.34 L 24.13,31.01 L 24.19,32 H 26 V 24 H 24 V 28.33 Z M 36.73,30.27 C 36.07,30.27 36,29.51 36,28.95 V 25.5 H 38 V 24 H 36 V 22 H 34 V 24 H 33 V 25.5 H 34 V 29.28 C 34,30.78 34.83,32 36.42,32 C 37.22,32 37.91,31.68 38.5,31.14 L 37.91,29.74 C 37.51,30.14 37.27,30.27 36.73,30.27 Z M 44.18,24.38 C 44.62,24.64 44.98,24.97 45.24,25.38 A 4.61,4.61 0 0,1 46,28.25 V 28.6 H 41 C 41,29.47 41.7,30.23 42.7,30.23 C 43.53,30.23 44.36,29.93 44.94,29.35 L 45.91,30.62 L 45.87,30.67 L 45.67,30.89 A 3.72,3.72 0 0,1 44.11,31.79 C 43.71,31.94 43.26,32 42.71,32 A 3.46,3.46 0 0,1 39.27,29.57 A 4.98,4.98 0 0,1 39.27,26.34 A 3.45,3.45 0 0,1 41.12,24.29 C 41.56,24.09 42.02,24 42.56,24 C 43.21,24 43.74,24.12 44.18,24.38 Z M 42.56,25.68 C 41.65,25.68 41,26.25 41,27.22 H 44.04 C 44.04,26.33 43.46,25.67 42.56,25.67 Z M 51.56,24.03 C 51.4,24 51.25,24 51.09,24 C 50.77,24 50.52,24.03 50.27,24.12 L 49.64,24.39 A 3.08,3.08 0 0,0 48.86,25.12 L 48.79,24 H 47 V 32 H 49 V 27.73 C 49,26.96 49.33,26.23 50.05,25.93 C 50.27,25.85 50.52,25.82 50.77,25.82 C 51.07,25.82 51.35,25.84 51.62,25.97 L 52,24.12 L 51.56,24.03 Z M 6,22 H 14 V 24 H 6 V 22 Z M 6,26 H 12 V 28 H 6 V 26 Z M 8,30 H 6 V 32 H 8 V 30 Z" fill="rgb(254, 254, 253)"/>
</svg>
