<?xml version="1.0" encoding="UTF-8"?>
<!-- generated by Finnhub -->
<svg viewBox="0 0 55.5 55.5" xmlns="http://www.w3.org/2000/svg">
<path d="M 0,0 H 55.5 V 55.5 H 0 Z" fill="rgb(239, 242, 248)"/>
<path d="M 17.83,29.985 C 17,30 16,29.34 16,28.26 V 24.66 C 16,24.29 16.3,24 16.67,24 C 17.04,24 17.3,24.3 17.3,24.66 V 28.18 C 17.3,28.46 17.58,28.7 17.87,28.7 H 26.33 C 26.7,28.7 27,28.98 27,29.34 C 27,29.71 26.7,30 26.33,30 H 17.83 Z M 29.3,24.65 A 0.65,0.65 0 1,0 28,24.65 V 27.3 C 28,28.79 29.19,30 30.65,30 H 36.35 A 2.68,2.68 0 0,0 39,27.3 V 24.65 A 0.65,0.65 0 1,0 37.7,24.65 V 27.17 C 37.7,28.01 37.09,28.7 36.26,28.7 H 30.74 C 29.91,28.7 29.3,28 29.3,27.17 V 24.65 Z M 41.31,24.08 C 40.48,23.85 40.14,24.17 40.08,24.35 C 39.98,24.57 40,25.08 40.91,25.37 C 42.05,25.73 42.89,26.3 42.89,26.99 C 42.89,27.68 41.86,28.4 40.91,28.61 C 40.15,28.77 39.99,29.16 40.01,29.33 C 40,29.65 40.25,30.23 41.31,29.91 C 42.64,29.51 44.25,28.43 44.31,26.99 C 44.35,25.56 42.36,24.35 41.31,24.08 Z M 50.69,24.08 C 51.52,23.85 51.86,24.17 51.92,24.35 C 52.02,24.57 52,25.08 51.09,25.37 C 49.96,25.73 49.11,26.3 49.11,26.99 C 49.11,27.68 50.14,28.4 51.09,28.61 C 51.85,28.77 52.01,29.16 51.99,29.33 C 52,29.65 51.75,30.23 50.69,29.91 C 49.36,29.51 47.75,28.43 47.69,26.99 C 47.65,25.56 49.64,24.35 50.69,24.08 Z"/>
<circle cx="46" cy="27" r="1" fill="rgb(27, 162, 218)"/>
<path d="M 30.29,31.785 H 30 V 34 H 30.3 V 33 H 31.68 A 0.6,0.6 0 1,0 31.68,31.8 H 30.3 Z M 30.3,32.1 V 32.68 H 31.66 A 0.29,0.29 0 0,0 31.66,32.11 H 30.3 Z" fill="rgb(128, 129, 131)" fill-rule="evenodd"/>
<path d="M 49.690000000000005,31.785 H 51.4 A 0.6,0.6 0 1,1 51.4,33 H 51.2 L 51.96,34 H 51.57 L 50.82,33 H 50 V 34 H 49.7 V 31.8 Z M 50,32.68 H 51.38 A 0.29,0.29 0 1,0 51.38,32.11 H 50 V 32.68 Z" fill="rgb(128, 129, 131)"/>
<path d="M 35.74,33.985 C 36.38,34 36.89,33.5 36.89,32.9 C 36.89,32.3 36.38,31.8 35.75,31.8 C 35.12,31.8 34.61,32.3 34.61,32.9 C 34.61,33.5 35.12,34 35.75,34 Z M 35.75,33.7 C 36.21,33.7 36.58,33.34 36.58,32.9 C 36.58,32.46 36.21,32.1 35.75,32.1 A 0.82,0.82 0 0,0 34.92,32.9 C 34.92,33.34 35.29,33.7 35.75,33.7 Z" fill="rgb(128, 129, 131)" fill-rule="evenodd"/>
<path d="M 39.99,33.985 L 39.18,31.8 H 39.55 L 40.17,33.47 L 40.77,31.8 H 41.14 L 41.77,33.47 L 42.37,31.8 H 42.77 L 41.95,34 H 41.62 L 40.95,32.35 L 40.35,34 H 40 Z M 45.3,31.8 H 45 V 34 H 47.29 V 33.7 H 45.3 V 33.06 H 47 V 32.76 H 45.3 V 32.1 H 47.29 V 31.8 H 45.3 Z" fill="rgb(128, 129, 131)"/>
<path d="M 3.99,26.895 C 4,25.07 5.35,24 6.72,24 H 14.32 C 14.7,24 15,24.3 15,24.66 C 15,25.02 14.7,25.3 14.33,25.3 H 6.58 C 6.28,25.3 5.3,25.56 5.3,26.76 V 29.34 C 5.3,29.71 5.04,30 4.67,30 A 0.67,0.67 0 0,1 4,29.34 V 26.91 Z M 6.65,26.7 A 0.65,0.65 0 1,0 6.65,28 H 13.35 A 0.65,0.65 0 1,0 13.35,26.7 H 6.65 Z"/>
</svg>
