<?xml version="1.0" encoding="UTF-8"?>
<!-- generated by Finnhub -->
<svg viewBox="0 0 55.5 55.5" xmlns="http://www.w3.org/2000/svg">
<path d="M 0,0 H 55.5 V 55.5 H 0 Z" fill="rgb(50, 50, 49)"/>
<path d="M 9.99,26.985 V 27.4 H 8 V 28.29 H 10 V 28.69 H 8 V 30 H 7 V 27 H 10 Z M 13,29.5 H 15 V 30 H 12 V 27 H 13 V 29.5 Z M 18,27.5 V 28.28 H 20 V 28.68 H 18 V 29.5 H 20 V 30 H 17 V 27 H 20 V 27.5 H 18 Z M 24,28.5 L 25,30 H 24 L 23.5,29 L 23,30 H 22 L 23,28.5 L 22,27 H 23 L 23.5,28 L 24,27 H 25 L 24,28.5 Z M 28.52,30 C 28,30 27,29.86 27,29.16 H 28 C 28.03,29.42 28.05,29.59 28.52,29.59 C 29.01,29.59 29,29.39 29,29.14 C 29,28.74 28.6,28.72 28.33,28.67 C 27.85,28.58 27.01,28.48 27.01,27.84 C 27.01,27.14 27.97,27 28.49,27 S 29.92,27.14 30,27.8 H 29 C 28.98,27.58 28.86,27.4 28.41,27.4 C 28.01,27.4 28,27.57 28,27.84 C 28,28.21 28.41,28.24 28.66,28.29 C 29.14,28.38 30,28.49 30,29.14 C 30,29.83 29.03,30 28.52,30 Z M 35,27 V 27.5 H 34 V 30 H 33 V 27.5 H 32 V 27 H 35 Z M 38,27.5 V 28.28 H 40 V 28.68 H 38 V 29.5 H 40 V 30 H 37 V 27 H 40 V 27.5 H 38 Z M 43,27.5 V 28.28 H 45 V 28.68 H 43 V 29.5 H 45 V 30 H 42 V 27 H 45 V 27.5 H 43 Z M 47.98,29.5 H 50 V 30 H 47 V 27 H 47.98 V 29.5 Z" fill="rgb(249, 249, 248)"/>
</svg>
