<?xml version="1.0" encoding="UTF-8"?>
<!-- generated by Finnhub -->
<svg viewBox="0 0 55.5 55.5" xmlns="http://www.w3.org/2000/svg">
<path d="M 0,0 H 55.5 V 55.5 H 0 Z" fill="rgb(151, 1, 49)"/>
<path d="M 47.104,21.985 C 46.749,22 44.261,29.605 44.261,29.605 H 44.526 S 44.891,28.631 45.522,28.596 C 46.152,28.561 47.712,32.04 47.712,32.04 S 47.877,33 49.139,33 H 53.352 V 32.806 S 52.457,32.876 52.025,31.901 C 51.594,30.927 47.413,22 47.115,22 Z M 44,25.535 V 22.75 S 42.336,21.741 40.545,21.741 C 38.753,21.741 36.563,22.646 36.563,25.568 C 36.563,28.352 40.743,28.908 40.743,30.439 C 40.743,31.239 40.114,31.309 39.682,31.309 C 38.255,31.309 37,29.082 37,29.082 V 32.109 S 38.288,33.396 40.08,33.396 S 44.128,32.283 44.128,29.36 C 44.128,25.881 39.848,25.812 39.848,24.28 C 39.848,23.48 40.418,23.455 40.728,23.455 C 42.155,23.455 44,25.534 44,25.534 Z M 27.916,23.169 C 28.618,24.685 29.276,26.822 30.371,26.822 C 31.267,26.822 31.997,22 31.997,22 H 36 V 31.901 C 36,32.736 36.895,33 36.895,33 H 32 V 25.987 S 29.044,33.467 28.778,33.467 C 28.513,33.467 25.003,25.987 25.003,25.987 V 32.005 C 25.003,32.562 25.593,33 25.593,33 H 24 V 23.134 C 24,22.473 22.96,22 22.96,22 H 26.123 S 27.351,21.951 27.916,23.169 Z M 18,32.458 S 20.782,32.736 22.175,30.614 L 21.611,33 H 14 V 23.134 C 14,22.473 13.084,22 13.084,22 H 21.611 L 22.175,24.386 C 20.782,22.264 18,22.543 18,22.543 V 27 H 20.251 C 20.981,27 21.379,25.723 21.379,25.723 S 22.142,29.769 22.109,29.733 C 21.51,28.587 19.687,28 19.687,28 H 18 V 32.458 Z M 12.487,22 H 3.959 S 5,22.473 5,23.134 V 33 H 10.025 S 9,32.632 9,31.831 V 28 H 10.562 S 12.387,28.586 12.984,29.733 C 13.017,29.769 12.254,25.731 12.254,25.731 S 11.857,27 11.127,27 H 9 V 22.543 S 11.657,22.264 13.05,24.386 L 12.488,22 Z" fill="rgb(254, 254, 253)"/>
</svg>
