<?xml version="1.0" encoding="UTF-8"?>
<!-- generated by Finnhub -->
<svg viewBox="0 0 55.5 55.5" xmlns="http://www.w3.org/2000/svg">
<path d="M 0,0 H 55.5 V 55.5 H 0 Z" fill="rgb(239, 242, 248)"/>
<path d="M 21.97,26.473 C 21.98,27.713 21.825,27.802 20.618,27.793 H 11.944 C 9.449,27.847 8.462,28.433 8,30.623 C 8.241,28.696 9.445,26.769 12.737,26.667 H 19.73 C 21.24,26.667 21.927,26.657 21.99,25.442 C 21.98,25.889 21.98,26.292 21.98,26.488 Z M 8,36.164 C 8.02,35.884 8.055,35.625 8.107,35.388 C 8.5,33.5 9.7,32.965 11.944,33 H 19.5 C 20.823,33 21.805,33.064 22,32 V 32.818 C 22,34.043 21.78,34.027 20.555,34 H 11.844 C 9.916,34 8.4,33.813 8,36.164 Z M 40,15 H 26.762 C 24.238,15 21.989,15.952 21.989,18.5 V 19.902 C 21.989,21.127 21.825,21.402 20.599,21.375 H 11.926 C 8.961,21.375 8,25.648 8,25.648 V 41 S 9,39 11.917,39 H 19.677 C 21.257,39 22.017,38.895 22,37.5 C 22,36.856 22.003,37.1 22.003,35.937 C 22.003,33.693 25.163,33 26.797,33 H 34.467 L 37.87,28 H 26.61 C 23.716,28 22.211,28.58 21.99,30.645 V 29.402 C 21.974,26.83 25,27 27.5,27 H 42 L 45.49,21 H 26.5 C 23.464,21 22.105,22.295 21.99,24.61 C 21.99,24.244 21.98,23.824 21.98,23.109 C 22.096,20.257 25.366,20 27,20 H 48 S 45.782,15 40,15 Z" fill="rgb(164, 1, 27)"/>
<path d="M 16.368,14.985 H 27 C 25.408,15 22,16 22,18.436 V 32 C 22,33 20.742,33 19.563,33 H 11.5 C 9,33 8.178,34.657 8,36.262 V 23.976 C 8,18.918 13.005,15 16.378,15 Z" fill="rgb(8, 27, 88)"/>
<path d="M 15.458,20.83 L 16.279,23.342 H 18.904 L 16.781,24.885 L 17.591,27.381 L 15.468,25.838 L 13.344,27.381 L 14.155,24.885 L 12.031,23.342 H 14.657 L 15.467,20.845 Z" fill="rgb(254, 254, 253)"/>
</svg>
