<?xml version="1.0" encoding="UTF-8"?>
<!-- generated by Finnhub -->
<svg viewBox="0 0 55.5 55.5" xmlns="http://www.w3.org/2000/svg">
<path d="M 0,0 H 55.5 V 55.5 H 0 Z" fill="rgb(239, 242, 248)"/>
<path d="M 18.419999999999998,20.544999999999998 C 14.85,20.56 11.32,16.86 10,15 C 11.45,19.83 15.3,24 20,24 S 28.66,20.67 32.85,20.67 C 37.03,20.67 39.77,24.11 40,23.89 C 37.33,18.5 34.77,17.06 31.51,17.06 C 28.26,17.06 22.91,20.56 18.43,20.56 Z M 21.43,29.56 C 17.85,29.56 14.32,25.86 13,24 C 14.45,28.83 18.3,33 23,33 S 31.66,29.67 35.85,29.67 C 40.03,29.67 42.77,33.11 43,32.89 C 40.33,27.5 37.77,26.06 34.51,26.06 C 31.26,26.06 25.91,29.56 21.43,29.56 Z" fill="rgb(52, 162, 74)"/>
<path d="M 24.419999999999998,37.545 C 20.85,37.56 17.32,33.86 16,32 C 17.45,36.83 21.3,41 26,41 S 34.66,37.67 38.85,37.67 C 43.03,37.67 45.77,41.11 46,40.89 C 43.33,35.5 40.77,34.06 37.51,34.06 C 34.26,34.06 28.91,37.56 24.43,37.56 Z" fill="rgb(52, 162, 74)"/>
</svg>
