<?xml version="1.0" encoding="UTF-8"?>
<!-- generated by Finnhub -->
<svg viewBox="0 0 55.5 55.5" xmlns="http://www.w3.org/2000/svg">
<path d="M 0,0 H 55.5 V 55.5 H 0 Z" fill="rgb(239, 242, 248)"/>
<path d="M 3.99,23.485 C 4,23.22 4.22,23 4.5,23 H 9.5 A 0.5,0.5 0 1,1 9.5,24 H 5 V 27 H 8.5 A 0.5,0.5 0 1,1 8.5,28 H 5 V 32.5 A 0.5,0.5 0 0,1 4,32.5 V 23.5 Z M 45.36,23.02 A 0.5,0.5 0 0,1 45.92,23.22 L 51,30.85 V 23.5 A 0.5,0.5 0 0,1 52,23.5 V 32.5 A 0.5,0.5 0 0,1 51.08,32.78 L 46,25.15 V 32.5 A 0.5,0.5 0 1,1 45,32.5 V 23.5 A 0.5,0.5 0 0,1 45.36,23.02 Z M 22,23.5 C 22,23.22 22.22,23 22.5,23 H 26 C 26.44,23 27.18,23.19 27.82,23.72 A 3.45,3.45 0 0,1 29,26.5 A 3.28,3.28 0 0,1 26.55,29.84 L 28.85,32.14 A 0.5,0.5 0 0,1 28.15,32.85 L 25.29,30 H 23 V 32.5 A 0.5,0.5 0 1,1 22,32.5 V 23.5 Z M 23,29 H 25.5 C 25.92,29 26.56,28.87 27.08,28.5 C 27.58,28.14 28,27.54 28,26.5 C 28,25.44 27.6,24.84 27.18,24.48 A 2.06,2.06 0 0,0 26,24 H 23 V 29 Z M 31.5,23 C 31.78,23 32,23.22 32,23.5 V 32.5 A 0.5,0.5 0 1,1 31,32.5 V 23.5 C 31,23.22 31.22,23 31.5,23 Z M 38.5,23 C 38.7,23 38.88,23.12 38.96,23.3 L 42.96,32.3 A 0.5,0.5 0 1,1 42.04,32.7 L 40.84,30 H 36.16 L 34.96,32.7 A 0.5,0.5 0 1,1 34.04,32.3 L 38.04,23.3 A 0.5,0.5 0 0,1 38.5,23 Z M 36.6,29 H 40.4 L 38.5,24.73 L 36.6,29 Z"/>
<path d="M 11.540000000000001,27.285 A 0.26,0.26 0 0,0 11.3,27 A 0.24,0.24 0 0,0 11.06,27.2 A 5.03,5.03 0 0,0 16,33 A 5,5 0 1,0 15.2,23.06 A 0.24,0.24 0 0,0 15,23.3 C 15,23.46 15.15,23.58 15.3,23.55 A 4.5,4.5 0 1,1 11.55,27.3 Z" fill="rgb(70, 85, 121)"/>
<path d="M 13.01,25.835 C 12.92,25.72 12.71,25.72 12.62,25.86 A 4,4 0 1,0 15.19,24.08 A 0.24,0.24 0 0,0 15,24.32 C 15,24.48 15.16,24.6 15.32,24.57 A 3.52,3.52 0 0,1 19.5,28 A 3.5,3.5 0 1,1 13.02,26.16 A 0.27,0.27 0 0,0 13.02,25.86 Z" fill="rgb(81, 137, 170)"/>
<path d="M 13.77,29.134999999999998 A 0.28,0.28 0 0,0 13.54,29 C 13.36,29 13.24,29.18 13.31,29.34 A 3,3 0 1,0 15.16,25.12 A 0.23,0.23 0 0,0 15,25.34 C 15,25.51 15.18,25.64 15.35,25.59 A 2.5,2.5 0 1,1 13.78,29.15 Z" fill="rgb(90, 192, 220)"/>
<path d="M 15.1,29.195 C 14.96,29.1 14.71,29.15 14.67,29.34 A 0.2,0.2 0 0,0 14.73,29.54 A 2,2 0 1,0 15.11,26.2 A 0.2,0.2 0 0,0 15,26.4 C 15,26.58 15.24,26.7 15.41,26.62 A 1.5,1.5 0 0,1 17.5,28 A 1.5,1.5 0 0,1 15.11,29.21 Z" fill="rgb(212, 236, 245)"/>
</svg>
