<?xml version="1.0" encoding="UTF-8"?>
<!-- generated by Finnhub -->
<svg viewBox="0 0 55.5 55.5" xmlns="http://www.w3.org/2000/svg">
<path d="M 0,0 H 55.5 V 55.5 H 0 Z" fill="rgb(239, 242, 248)"/>
<path d="M 28.029999999999998,11.985 C 26.99,12 25.98,12.1 25,12.3 V 15.87 S 31.26,16.37 32,23.32 L 37.91,15.39 A 16.08,16.08 0 0,0 28.04,12 Z M 38.5,18.12 V 22 H 35.55 L 38.5,18.12 Z M 41,18.68 V 27 H 38.5 V 24 H 28.4 S 28.61,18.75 22.73,18.75 C 20.17,18.75 18.07,20.42 18,22.08 C 17.87,24.74 21.48,26.08 25.44,26.88 C 27.78,27.34 30.27,28.52 31.28,29.86 C 32.72,31.74 32.59,33.64 32.59,33.64 S 33.16,39.67 25,40.92 V 43.69 A 15.98,15.98 0 0,0 41,18.68 Z M 14.28,34.62 C 8.88,27.28 14.76,18.99 14.76,18.99 C 13.08,23.04 14.52,25.49 14.52,25.49 C 15.82,28.33 18.89,29.05 21.92,29.76 C 23.63,30.16 25.34,30.56 26.69,31.34 C 29.95,33.29 28.69,35.39 27.45,36.48 A 6.14,6.14 0 0,1 24,37.75 C 21.5,37.97 16.93,37.6 14.28,34.62 Z" fill="rgb(0, 130, 189)"/>
</svg>
