<?xml version="1.0" encoding="UTF-8"?>
<!-- generated by Finnhub -->
<svg viewBox="0 0 55.5 55.5" xmlns="http://www.w3.org/2000/svg">
<path d="M 0,0 H 55.5 V 55.5 H 0 Z" fill="rgb(23, 26, 28)"/>
<path d="M 29.869999999999997,13.985 C 28.54,14 27.21,14.19 25.93,14.56 A 6.6,6.6 0 0,0 23.29,14 C 21.69,14.03 20.14,14.6 18.9,15.62 C 18.25,14.58 17.5,14 16.7,14 C 14.1,14 12,20.27 12,28 C 12,35.73 14.1,42 16.7,42 C 17.5,42 18.25,41.41 18.9,40.38 A 7.07,7.07 0 0,0 23.3,42 C 24.2,42 25.1,41.8 25.93,41.44 C 27.17,41.8 28.45,41.99 29.73,42 C 37.36,42.08 44,35.62 44,28 C 44,20.33 37.45,14 29.88,14 Z M 23.29,14.93 C 23.69,14.93 24.09,14.98 24.48,15.06 A 14.14,14.14 0 0,0 20,18 C 19.82,17.47 19.6,16.95 19.36,16.44 A 6.18,6.18 0 0,1 23.29,14.94 Z M 18.64,38.9 C 15.89,36.05 15,31.85 15,27.99 C 15,24.44 15.75,21.11 17.42,18.62 C 17.78,18.08 18.19,17.58 18.64,17.11 C 18.88,17.65 19.08,18.2 19.26,18.78 A 13.71,13.71 0 0,0 16,28 C 16,31.4 17,34.67 19.26,37.22 C 19.08,37.8 18.88,38.35 18.64,38.89 Z M 17,27.99 C 17,25.05 17.71,22.31 19.57,20 C 20.17,22.67 21,24.51 21,28 C 21,31.7 20.17,33.33 19.57,36 C 17.71,33.7 17,30.95 17,28 Z M 22,27.99 C 22,24.39 21.08,21.96 20.32,19.03 C 21.84,17.43 23.75,16.23 25.86,15.56 C 30.2,17.86 32,23.42 32,28 C 32,32.57 30.2,38.13 25.86,40.44 A 13.21,13.21 0 0,1 20.32,36.97 C 21.08,34.04 22,32.35 22,28 Z M 16.7,41 C 14,41 13,30.01 13,28 C 13,24.36 13.41,20.95 14.27,18.4 C 15.13,15.84 16.12,15 16.71,15 C 17.08,15 17.62,15.3 18.19,16.24 C 15.59,18.74 14,23.07 14,28 S 15.6,37.26 18.19,39.76 C 17.62,40.69 17.09,41 16.71,41 Z M 23.3,41 A 6.12,6.12 0 0,1 19.36,39.55 C 19.61,39.05 19.82,38.53 20,37.99 A 14.14,14.14 0 0,0 24.48,40.93 C 24.08,41.02 23.69,41 23.29,41 Z M 29.73,41 C 28.86,40.99 27.99,40.96 27.14,40.78 C 30.42,38.59 33,33.69 33,28 C 33,22.3 30.42,17.4 27.14,15.22 C 28.04,15.02 28.96,15 29.88,15 C 36.92,15 43.06,20.87 43.06,28 C 43.06,35.2 36.96,41.08 29.73,41 Z" fill="url(#a)"/>
<defs>
<linearGradient id="a" x1="13.83" x2="37.64" y1="39.9" y2="15.89" gradientUnits="userSpaceOnUse">
<stop stop-color="rgb(239, 78, 33)" offset=".1"/>
<stop stop-color="rgb(169, 1, 253)" offset=".5"/>
<stop stop-color="rgb(1, 109, 248)" offset=".9"/>
</linearGradient>
</defs>
</svg>
