<?xml version="1.0" encoding="UTF-8"?>
<!-- generated by Finnhub -->
<svg viewBox="0 0 55.5 55.5" xmlns="http://www.w3.org/2000/svg">
<path d="M 0,0 H 55.5 V 55.5 H 0 Z" fill="url(#a)"/>
<path d="M 30.29,41.325 V 41.35 H 30.29 S 29.34,41.05 28.49,40.11 A 5.75,5.75 0 0,1 27.13,35.75 C 27.35,34.17 28.31,33.26 28.31,33.26 H 28.33 V 33.27 A 5.34,5.34 0 0,0 27.5,35.85 C 27.5,36.97 28.16,37.39 28.16,37.4 L 28.13,37.86 C 28.13,40.15 30.29,41.34 30.3,41.34 Z M 42.48,21.26 C 42.54,20.71 43,20.38 43,20.38 A 1.4,1.4 0 0,0 41.62,21.41 C 41.62,21.11 41.64,20.95 41.62,20.67 C 41.62,20.56 41.6,19.83 41.38,18.9 C 41.58,19.01 41.79,19.06 42.07,18.82 C 42.52,18.42 41.91,17.66 41.84,17.26 C 41.77,16.86 42.12,16.49 42.12,16.49 C 41.35,16.71 41.15,17.46 41.1,17.91 A 7.3,7.3 0 0,0 40.25,16.03 C 41.24,15.99 40.8,14.65 40.67,14.13 C 40.54,13.58 40.72,13.26 40.72,13.26 S 40.12,13.71 39.87,14.42 C 39.72,14.85 39.74,15.17 39.77,15.42 C 39.33,14.82 38.97,14.6 38.95,14.64 C 38.95,14.64 40.11,15.82 40.7,17.73 C 40.7,17.73 40.4,17.11 39.75,17.08 C 39.64,17.08 39.41,17.1 39.28,17.03 C 39.05,16.93 38.92,16.71 38.92,16.71 S 38.86,16.99 38.99,17.34 C 39.09,17.6 39.35,17.93 39.56,18.08 C 40.06,18.43 40.54,18.26 40.86,18.64 C 40.86,18.64 41.66,19.74 40.91,23.48 C 40.88,22.8 40.34,22.57 40.18,22.41 C 40.01,22.24 40.13,21.93 40.13,21.93 C 39.23,22.9 40.14,23.6 40.35,24.48 C 40.4,24.68 40.3,25.22 39.98,25.73 S 39.2,26.73 38.59,27.06 C 38.82,26.56 39.05,25.98 39.17,25.42 C 39.5,23.95 39.57,22.46 39.47,21.07 A 0.6,0.6 0 0,0 40.1,20.87 C 40.69,20.23 40.1,19.37 40.67,19.07 C 40.67,19.07 39.54,19.01 39.37,20.17 A 12.05,12.05 0 0,0 38.07,16.11 C 38.55,16.09 38.67,15.77 38.72,15.51 C 38.77,15.18 38.44,14.69 38.22,14.29 C 38.05,13.98 38.09,13.57 38.09,13.57 A 2,2 0 0,0 37.61,15.37 A 6.67,6.67 0 0,0 36.14,13.85 C 35.76,13.56 35.51,13.45 35.49,13.45 C 35.47,13.48 35.49,13.49 35.56,13.55 C 35.68,13.66 35.96,13.85 36.34,14.24 C 36.12,14.11 35.98,14.08 35.67,14.14 C 35.16,14.25 34.83,14.47 34.6,14.05 C 34.58,14.02 34.64,14.79 35.45,15.14 C 36.26,15.48 36.38,14.86 36.73,14.88 C 36.94,14.88 37.26,15.25 37.47,15.52 A 10.07,10.07 0 0,1 38.58,18.11 C 38.45,17.87 38.28,17.62 38.08,17.5 C 37.62,17.22 37.11,17.52 36.9,16.86 C 36.9,16.86 36.74,17.96 37.48,18.59 C 38.06,19.08 38.55,18.87 38.74,18.75 C 39.04,20.11 39.14,21.67 39,23.23 A 0.97,0.97 0 0,0 38.63,22.69 C 38.16,22.35 38.02,22.05 38,21.69 C 38,21.69 37.91,22.09 37.83,22.3 C 37.75,22.51 37.28,23.24 37.8,23.87 C 38.18,24.33 38.58,24.35 38.78,24.33 A 10.17,10.17 0 0,1 38.14,26.55 C 38.17,25.98 37.62,25.59 37.39,25.4 C 37.13,25.2 37.37,24.74 37.37,24.74 C 37.03,25.02 36.83,25.34 36.76,26.11 C 36.69,26.89 37.19,27.04 37.37,27.29 C 37.47,27.43 37.38,27.85 37.23,28.06 C 36.67,28.81 35.53,29.96 33.39,30.76 C 33.86,30.49 33.99,30.15 34.05,29.78 C 34.15,29.33 34,28.94 34,28.94 C 33.9,29.52 33.36,29.43 32.71,29.64 C 32.07,29.86 32.08,30.56 32.08,30.56 C 32.13,30.91 32.4,30.99 32.61,31.01 C 32.42,31.05 32.23,31.08 32.03,31.1 C 32.03,31.1 30.16,31.33 30.16,30.99 S 30.59,30.69 31.29,30.28 C 31.69,30.04 32.58,29.31 33.36,28.37 C 33.49,28.56 33.8,28.92 34.26,28.72 C 34.86,28.46 35.36,27.52 35.94,27.65 C 35.94,27.65 35.09,27 34.07,27.39 C 34.26,27.09 34.44,26.77 34.57,26.45 A 4.2,4.2 0 0,0 36,25.39 S 37.24,23.89 37.31,21.36 C 37.36,21.43 37.45,21.46 37.6,21.46 C 38.33,21.43 38.39,20.51 38.35,20.23 C 38.3,19.81 38.68,19.51 38.68,19.51 S 38.49,19.59 38.22,19.65 C 37.79,19.75 37.5,19.85 37.22,20.2 C 37,18.2 36.26,17.05 36.27,17.07 C 36.22,17.07 36.49,17.78 36.7,18.83 A 0.73,0.73 0 0,0 36.13,18.56 C 35.73,18.56 35.65,18.86 35.27,18.43 C 35.27,18.43 35.24,19.54 35.89,19.83 C 36.32,20.02 36.6,20 36.79,19.95 C 36.83,20 37.02,20.67 36.86,21.95 A 5.96,5.96 0 0,1 35.76,24.74 C 35.46,25.16 35.2,25.32 34.89,25.48 A 12.04,12.04 0 0,0 35.38,22.82 C 35.5,22.79 36.15,22.54 36.23,21.79 C 36.33,20.97 36.37,20.79 36.73,20.59 C 36.72,20.59 35.73,20.41 35.33,21.21 C 35.19,19.91 34.83,18.69 34.53,17.67 C 34.72,17.78 35.05,17.87 35.29,17.45 C 35.49,17.1 35.29,16.48 35.19,16.1 C 35.11,15.71 35.38,15.37 35.38,15.37 C 34.54,15.49 34.32,16.2 34.25,16.61 A 5.2,5.2 0 0,1 33.98,14.34 C 34,14.26 34.03,14.19 34,14.18 C 33.97,14.18 33.96,14.2 33.94,14.26 C 33.83,14.54 33.67,15.63 34.08,17.04 L 34.51,18.86 C 34.4,18.67 34.25,18.52 34.05,18.53 C 33.53,18.53 33.42,18.3 33.35,17.97 C 33.35,17.97 33.08,19.22 33.73,19.77 C 34.21,20.19 34.53,19.89 34.68,19.7 A 10.81,10.81 0 0,1 34.61,24.27 C 34.59,23.7 34.14,23.41 34.05,23.3 C 33.94,23.17 33.95,22.84 33.95,22.84 C 33.71,23.1 33.3,23.69 33.4,24.36 C 33.5,25.02 34.1,25.13 34.21,25.19 C 34.24,25.2 34.31,25.24 34.27,25.32 A 6.7,6.7 0 0,1 33.09,27.35 A 7.4,7.4 0 0,1 30.71,29.11 C 29.82,29.45 30.43,27.37 31,27.11 C 31.5,26.87 31.84,27.36 32.38,27.15 C 32.88,26.97 33.31,26.27 33.42,25.97 C 33.42,25.97 33.05,26.17 32.85,26.15 C 32.63,26.13 32.43,25.86 32.01,25.95 C 32.21,25.73 32.41,25.49 32.61,25.23 C 33.25,24.23 33.34,22.71 33.35,22.49 C 33.35,22.27 33.41,22.15 33.47,22.09 C 33.64,21.93 34.02,21.72 33.99,21.15 C 33.98,20.9 33.74,20.5 33.47,20.25 C 33.12,19.93 32.91,19.67 32.98,19.18 C 32.98,19.16 32.28,19.89 32.55,20.74 C 32.76,21.42 33.19,21.84 33.11,22.59 A 4.62,4.62 0 0,1 32.31,25.01 A 9,9 0 0,1 30.71,26.47 C 29.97,26.78 29.92,24.96 30.21,24.64 C 30.33,24.5 30.76,24.14 31.05,23.74 L 31.07,23.73 C 31.21,23.81 31.73,24.04 32.15,23.57 C 32.68,22.96 32.36,22.7 32.9,22.55 C 32.9,22.55 32.37,22.28 31.65,22.77 C 32.05,21.93 32.28,20.9 32.22,19.87 A 7.25,7.25 0 0,0 31.96,18.17 C 32.02,18.17 32.4,18.14 32.67,17.73 C 32.97,17.29 32.73,16.69 32.7,16.18 C 32.66,15.68 33.07,15.46 33.07,15.46 S 32.46,15.52 32.05,15.92 C 31.75,16.22 31.66,16.82 31.65,17.1 A 7.54,7.54 0 0,1 31.4,16.02 C 31.27,14.97 31.5,14.27 31.42,14.26 C 31.42,14.26 31.4,14.26 31.38,14.32 C 31.32,14.54 31.18,15.17 31.23,16.04 C 31.32,17.14 31.9,18.46 31.85,19.88 V 20.26 C 31.8,19.96 31.69,19.63 31.47,19.45 C 31,19.03 30.63,18.75 30.75,18.32 C 30.75,18.3 30.15,19.27 30.63,20.22 C 30.93,20.82 31.64,20.73 31.62,21.27 C 31.61,21.5 31.54,21.77 31.47,22.01 A 5.69,5.69 0 0,1 30.07,23.97 C 29.89,24.03 29.81,23.97 29.71,23.74 C 29.51,23.28 29,22.01 28.74,21.52 C 28.58,21.22 28.42,20.86 28.52,20.72 C 28.77,20.36 29.47,20.29 29.78,19.82 C 29.85,19.77 30.33,18.87 30.27,17.93 C 30.27,17.36 30.18,17.23 29.91,16.48 C 29.65,15.73 30.39,15.64 30.41,15.11 C 30.44,14.54 30.13,14.44 29.9,14.09 C 29.66,13.75 30.06,13.32 30.06,13.32 C 28.81,13.89 29.16,15.45 29.53,16.16 A 3.43,3.43 0 0,1 29.87,18.56 C 29.83,18 29.57,16.91 28.12,16.96 C 28.12,16.96 28.45,17.18 28.49,17.63 C 28.53,18.08 28.53,18.28 28.75,18.48 C 28.95,18.68 29.32,18.85 29.65,18.71 C 29.72,18.89 29.55,19.26 29.44,19.48 C 28.73,20.45 27.16,20.38 26.59,19.28 C 26.86,19.33 27.29,19.28 27.54,19.11 C 27.83,18.91 27.89,18.52 27.9,18.23 C 27.9,17.93 28.03,17.65 28.03,17.65 S 27.44,17.77 26.98,18.19 A 2,2 0 0,0 26.46,19.04 A 3.2,3.2 0 0,1 26.13,17.39 C 26.96,17.64 27.18,16.84 27.18,16.59 C 27.17,16.19 27.29,16.12 27.29,16.11 C 26.76,16.17 26.42,16.48 26.23,16.73 C 26.36,16.12 26.53,15.83 26.61,15.58 C 26.71,15.28 26.77,14.75 26.53,14.28 C 26.3,13.83 26.37,13.48 26.47,13.38 C 26.47,13.38 25.59,14.03 25.69,15 C 25.74,15.49 26.39,15.68 26.17,16.17 C 26.05,16.44 25.93,16.7 25.86,16.99 C 25.59,16.39 24.98,16.35 24.98,16.35 C 25.2,16.65 24.99,17.25 25.18,17.67 C 25.31,17.97 25.61,18 25.76,17.99 C 25.79,18.73 26.09,19.35 26.11,19.4 C 26.38,19.9 26.85,20.4 27.35,20.66 C 27.46,20.72 27.58,20.86 27.72,21.33 C 27.95,22.07 29.36,24.28 28.67,24.93 C 28.47,25.11 27.83,24.99 26.97,24.57 A 4.67,4.67 0 0,1 26.44,24.23 C 26.65,24.22 27.02,24.11 27.14,23.39 C 27.23,22.78 26.93,22.28 26.63,22 C 26.35,21.75 26.08,21.7 26.08,21.7 C 26.41,22.21 25.99,22.33 25.73,22.78 A 0.85,0.85 0 0,0 25.65,23.53 L 25.51,23.37 A 5.47,5.47 0 0,1 24.51,21.31 L 24.47,21.14 C 24.97,21.16 25.37,20.84 25.57,20.27 C 25.87,19.47 25.33,18.33 25.33,18.33 C 25.35,18.51 25.13,18.99 24.72,19.19 C 24.52,19.29 24.38,19.43 24.29,19.53 C 24.34,18.39 24.65,17.31 24.82,16.42 C 25.05,15.22 24.85,14.34 24.79,14.14 C 24.78,14.11 24.75,14.14 24.75,14.14 C 24.68,14.14 24.94,15.05 24.61,16.37 L 24.54,16.64 C 24.37,15.76 23.41,15.31 23.41,15.31 C 24.05,15.94 23.26,16.87 23.53,17.45 C 23.73,17.87 24.05,17.85 24.21,17.82 A 7.48,7.48 0 0,0 24.01,21.4 C 24.1,21.81 24.22,22.21 24.38,22.6 C 23.63,22.22 23.1,22.74 23.1,22.74 C 23.72,22.79 23.42,23.26 24.03,23.83 C 24.52,24.28 24.93,23.99 25.07,23.86 L 25.15,23.96 C 25.95,24.95 26.93,25.69 28.09,26.17 C 29.12,26.6 28.54,29.85 27.65,29.81 A 4.5,4.5 0 0,1 26.62,29.64 C 26.52,29.61 26.45,29.62 26.47,29.5 A 3.38,3.38 0 0,0 26.21,27.67 C 26.74,27.7 26.99,27.25 26.93,26.75 C 26.86,26.11 25.78,25.19 25.78,25.19 S 25.9,25.59 25.85,25.93 C 25.81,26.15 25.59,26.31 25.65,26.73 C 25.63,26.69 25.35,26.45 25.2,26.33 C 24.79,25.99 24.59,25.83 24.24,25.39 A 4.83,4.83 0 0,1 23,22.77 C 22.9,21.85 23.24,21.68 23.46,21.09 C 23.78,20.23 23.26,19.43 23.26,19.43 C 23.26,19.67 23.14,19.95 22.75,20.12 C 22.41,20.26 22.02,20.62 22.05,21.27 C 22.08,21.79 22.57,22.04 22.7,22.09 C 22.69,22.26 22.67,22.46 22.71,22.87 C 22.75,23.28 23.01,24.57 23.69,25.55 C 23.77,25.67 24.02,25.95 24.1,26.06 A 1.06,1.06 0 0,0 23.53,25.92 C 23.14,25.97 22.83,26.18 22.45,25.73 C 22.45,25.73 22.57,26.81 23.3,27.17 C 23.97,27.49 24.64,27.25 24.63,26.66 C 25.13,27.2 25.61,27.66 25.67,28.18 C 25.78,28.6 25.77,28.96 25.74,29.2 C 25.72,29.36 25.67,29.34 25.54,29.28 A 6.83,6.83 0 0,1 21.62,24.82 C 21.79,24.88 22.32,24.99 22.56,24.51 C 22.86,23.92 22.64,22.98 22.17,22.42 C 22.17,22.42 22.27,22.91 22.03,23.1 C 21.84,23.26 21.47,23.43 21.4,23.88 A 9.67,9.67 0 0,1 21.31,19.95 C 21.37,19.78 21.48,19.58 21.65,19.61 C 21.93,19.66 22.38,19.76 22.71,19.29 C 23.04,18.83 23.19,18.34 23.11,17.62 C 23.11,17.62 23.03,18.05 22.64,18.14 C 22.37,18.2 21.91,18.13 21.63,18.52 C 21.74,18.12 21.86,17.73 21.99,17.37 C 22.61,15.6 22.4,14.3 22.37,14.32 C 22.37,14.32 22.33,14.32 22.33,14.35 C 22.33,14.45 22.34,14.67 22.31,14.97 C 22.26,15.35 22.16,15.89 21.96,16.53 C 21.95,15.85 21.52,15.2 20.57,15.21 C 20.57,15.21 21.06,15.5 20.98,16.05 C 20.92,16.47 20.92,17.88 21.74,17.31 C 21.35,18.26 20.95,19.49 20.78,20.84 C 20.66,20.7 20.36,20.37 20.07,20.35 C 19.61,20.31 19.45,20.45 19.45,20.45 S 20.06,20.61 19.87,21.47 C 19.77,21.91 20.16,22.49 20.69,22.35 C 20.69,22.91 20.75,23.48 20.88,24.05 C 20.93,24.47 21,24.79 21.12,25.2 C 20.92,25.16 20.69,25.14 20.42,24.81 A 5.52,5.52 0 0,1 19.3,21.99 C 19.17,21.14 19.14,20.07 19.23,19.33 C 19.35,19.45 19.67,19.67 20.15,19.45 C 20.76,19.17 21.07,18.41 21.05,17.95 C 21.05,17.95 20.76,18.18 20.55,18.11 C 20.35,18.04 19.8,17.79 19.29,18.64 L 19.36,18.29 C 19.58,17.38 19.97,16.87 19.92,16.84 C 19.92,16.84 19.88,16.82 19.84,16.87 C 19.69,17.05 19.34,17.57 19.1,18.28 A 7.3,7.3 0 0,0 18.77,19.88 C 18.04,18.95 17.33,19.46 17.33,19.46 C 17.83,19.48 17.59,20.21 17.71,20.64 C 17.83,21.06 18.23,21.18 18.48,21.11 A 0.56,0.56 0 0,0 18.78,20.94 C 18.78,21.21 18.78,21.47 18.81,21.74 C 18.92,23.04 19.29,24.34 19.93,25.21 A 2.3,2.3 0 0,0 21.38,26.11 C 21.56,26.67 21.8,27.08 22.1,27.52 A 1.5,1.5 0 0,0 20.15,27.69 C 21,27.65 20.95,28.4 21.52,28.66 C 22.18,28.97 22.49,28.46 22.58,28.25 A 7.07,7.07 0 0,0 25.83,30.91 C 25.88,30.93 26.43,31.14 26.1,31.14 C 25.88,31.14 24.89,31.14 23.69,30.82 C 23.86,30.68 24.07,30.39 23.82,29.95 C 23.32,29.06 22.26,29.71 22.08,29.03 C 22.08,29.03 21.78,29.83 22.3,30.41 C 21.6,30.16 20.9,29.81 20.23,29.33 A 7.1,7.1 0 0,1 18.25,27.18 C 20.17,26.66 18.56,24.4 18.56,24.4 C 18.59,24.78 18.39,25.05 18.04,25.44 C 17.81,25.69 17.78,26.05 17.78,26.27 C 17.43,25.49 17.21,24.68 17.08,23.9 C 17.3,24.01 17.7,24.08 18.15,23.57 C 18.85,22.8 18.04,21.69 18.04,21.69 C 18.07,21.79 18.04,22.2 17.55,22.34 C 17.21,22.44 17.05,22.74 16.98,22.92 A 13.9,13.9 0 0,1 17.43,18.5 C 17.55,18.55 18.09,18.7 18.47,18.34 C 18.97,17.87 19.23,17.17 19.17,16.57 C 19.17,16.57 19.05,16.92 18.71,16.99 C 18.43,17.04 18.11,16.94 17.81,17.23 C 18.13,16.4 18.77,15.27 18.96,15 C 19.16,14.74 19.36,14.65 19.46,14.76 C 19.62,14.94 19.9,15.22 20.36,15.06 C 20.83,14.88 21.46,14.46 21.59,14 C 21.59,14 21.29,14.24 21.04,14.17 C 20.81,14.1 20.46,13.76 19.55,14.26 C 19.55,14.25 20.95,13.12 20.93,13.09 C 20.93,13.09 19.71,13.75 19.45,14 C 19.15,14.3 18.88,14.6 18.59,15.02 C 18.89,14.08 18.09,13.38 18.09,13.37 C 18.25,13.93 17.87,14.39 17.61,14.81 C 17.36,15.2 17.57,16.05 18.15,15.77 C 17.84,16.17 17.53,16.81 17.3,17.42 C 16.96,18.21 16.8,19.06 16.65,19.84 C 16.6,19.64 16.48,19.24 16.16,18.98 C 15.71,18.6 15.19,18.75 15.19,18.75 S 15.49,18.95 15.4,19.5 C 15.32,20.04 15.52,20.95 16.51,20.74 C 16.33,22.28 16.46,23.69 16.46,23.69 C 16.56,25.68 17.27,26.91 17.27,26.91 A 6.59,6.59 0 0,1 15.84,25.39 A 3.49,3.49 0 0,1 15.34,24.18 C 15.96,24.43 16.18,23.48 16.09,23.07 C 15.93,22.4 15.84,21.77 16.23,21.5 C 16.23,21.5 14.83,21.94 15.05,23.63 A 10.94,10.94 0 0,1 15.05,18.66 C 15.17,18.27 15.33,17.97 15.52,18.06 C 15.72,18.13 16.5,18.22 16.87,17.52 C 17.25,16.82 17.12,16.15 17.12,16.15 S 16.92,16.55 16.56,16.58 C 16.23,16.61 15.87,16.64 15.57,17 A 6,6 0 0,1 16.26,15.5 C 16.86,14.6 17.41,14.05 17.38,14.02 C 17.38,13.99 16.35,14.97 16.18,15.19 C 16.52,14.06 15.55,13 15.55,13 C 15.88,13.93 15.01,14.32 15.11,15.01 C 15.22,15.7 15.67,15.68 15.88,15.63 C 15.51,16.25 15.18,17.03 14.91,17.93 C 14.85,16.84 13.97,16.02 13.97,16.02 C 14.37,16.96 13.65,17.27 13.79,18.12 C 13.91,18.88 14.57,18.74 14.69,18.72 L 14.56,19.3 C 14.46,19.9 14.37,20.53 14.34,21.17 C 14.06,20.15 13,20 13,20 C 13.8,20.76 13.16,21.14 13.42,21.85 C 13.68,22.54 14.3,22.25 14.34,22.23 A 7.7,7.7 0 0,0 15.01,25.03 C 13.87,24.21 13.11,24.83 13.11,24.83 C 13.89,24.71 13.89,25.77 14.48,26.16 C 14.8,26.38 15.39,26.38 15.53,25.94 A 6.21,6.21 0 0,0 17.86,27.97 C 18.76,29.38 20.78,31.76 24.43,32.64 C 24.43,32.64 25.4,32.9 25.78,33.08 C 26.16,33.27 25.99,33.9 25.84,34.55 C 25.38,36.51 27.52,39.55 25.51,40.81 C 22.9,42.46 19.41,42.31 16.43,42.4 C 15.91,42.41 15.49,42.43 15.41,42.66 C 15.31,42.94 15.69,43 18.56,43 H 37.2 C 40.07,43 40.44,42.94 40.35,42.66 C 40.27,42.43 39.85,42.41 39.33,42.4 C 36.28,42.31 33.69,42.11 31.03,40.43 C 29.57,39.51 26.81,35.66 30.19,33.17 C 30.33,33.1 30.48,33.03 30.65,32.97 C 32.65,32.27 36.05,31.53 37.76,28.62 A 0.35,0.35 0 0,1 37.94,28.45 A 5.77,5.77 0 0,0 40.39,26.17 C 41.09,26.49 41.67,25.77 41.89,25.4 C 42.11,25.02 42.62,25 42.62,25 C 42.22,24.6 41.25,24.89 40.87,25.17 C 41.22,24.4 41.43,23.56 41.54,22.72 C 42.48,22.75 42.44,21.8 42.49,21.26 Z" fill="rgb(254, 254, 253)"/>
<defs>
<linearGradient id="a" x1="10.42" x2="68.15" y1="9.71" y2="76.02" gradientUnits="userSpaceOnUse">
<stop stop-color="rgb(25, 29, 31)" offset="0"/>
<stop stop-color="rgb(5, 5, 8)" offset="1"/>
</linearGradient>
</defs>
</svg>
