<?xml version="1.0" encoding="UTF-8"?>
<!-- generated by Finnhub -->
<svg viewBox="0 0 55.5 55.5" xmlns="http://www.w3.org/2000/svg">
<path d="M 0,0 H 55.5 V 55.5 H 0 Z" fill="rgb(65, 175, 17)"/>
<path d="M 28.11,10.985 A 16.85,16.85 0 0,1 43.75,21.6 A 16.84,16.84 0 0,1 43.66,34.62 A 16.85,16.85 0 0,1 34.4,43.75 A 16.84,16.84 0 0,1 21.39,43.66 A 16.84,16.84 0 0,1 12.25,34.4 A 16.84,16.84 0 0,1 12.34,21.38 A 16.86,16.86 0 0,1 21.6,12.25 A 16.84,16.84 0 0,1 28.12,11 Z M 27.97,13 A 14.85,14.85 0 0,0 17.37,17.41 A 14.85,14.85 0 0,0 13,28.03 A 14.85,14.85 0 0,0 17.41,38.63 A 14.86,14.86 0 0,0 28.03,43 A 14.85,14.85 0 0,0 38.63,38.59 A 14.85,14.85 0 0,0 43,27.97 A 14.85,14.85 0 0,0 38.59,17.37 A 14.86,14.86 0 0,0 27.97,13 Z" fill="rgb(254, 254, 253)"/>
<path d="M 27.27,17.685 C 27.28,17.68 27.28,17.67 27.25,17.66 C 27.23,17.66 27.21,17.66 27.2,17.68 L 22.59,24.68 A 7.81,7.81 0 0,0 22.01,31.62 A 7.05,7.05 0 0,0 25.48,35.28 C 25.84,35.45 26.05,35.58 26.11,35.68 C 26.23,35.89 26.24,36.11 26.14,36.34 A 0.71,0.71 0 0,1 25.64,36.77 C 25.49,36.81 25.3,36.77 25.06,36.67 A 8.03,8.03 0 0,1 22.25,34.63 A 8.88,8.88 0 0,1 20.13,30.15 C 19.85,28.45 20.03,26.81 20.7,25.23 C 20.92,24.7 21.34,23.96 21.97,23 L 26.67,15.89 C 26.85,15.61 27,15.42 27.13,15.31 C 27.45,15.06 27.81,14.96 28.22,15.01 C 28.62,15.08 28.94,15.28 29.17,15.62 C 31.16,18.62 32.99,21.4 34.67,23.97 A 8.51,8.51 0 0,1 35.99,28.33 A 8.77,8.77 0 0,1 34.79,33.23 A 8.05,8.05 0 0,1 28.8,37.23 C 28.74,37.23 28.7,37.26 28.7,37.33 L 28.71,40.07 C 28.71,40.42 28.63,40.67 28.47,40.81 A 0.69,0.69 0 0,1 27.84,40.98 A 0.68,0.68 0 0,1 27.34,40.57 A 1.68,1.68 0 0,1 27.27,39.96 V 27.82 C 27.27,27.49 27.36,27.23 27.54,27.05 A 533.2,533.2 0 0,0 30.16,24.38 A 0.82,0.82 0 0,1 30.74,24.09 C 30.94,24.09 31.1,24.16 31.24,24.29 C 31.38,24.43 31.45,24.59 31.46,24.79 C 31.46,25 31.38,25.19 31.22,25.37 L 28.83,27.8 A 0.42,0.42 0 0,0 28.71,28.1 V 30.07 C 28.71,30.1 28.71,30.11 28.74,30.12 H 28.8 C 29.54,29.37 29.99,28.91 30.16,28.72 C 30.36,28.52 30.59,28.42 30.83,28.44 C 31.09,28.47 31.27,28.61 31.39,28.89 C 31.47,29.07 31.48,29.25 31.42,29.41 C 31.37,29.54 31.26,29.69 31.08,29.86 L 28.81,32.18 C 28.74,32.24 28.71,32.36 28.71,32.55 V 35.7 C 28.71,35.77 28.74,35.8 28.81,35.78 A 6.59,6.59 0 0,0 33.53,32.56 A 7.54,7.54 0 0,0 34.05,25.86 A 16.2,16.2 0 0,0 32.62,23.44 L 28.8,17.64 C 28.78,17.61 28.77,17.6 28.74,17.61 C 28.72,17.61 28.7,17.63 28.7,17.66 L 28.71,23.71 C 28.71,23.93 28.69,24.1 28.64,24.22 A 0.63,0.63 0 0,1 28.34,24.58 A 0.66,0.66 0 0,1 27.71,24.6 A 0.68,0.68 0 0,1 27.32,24.18 A 2.46,2.46 0 0,1 27.27,23.54 V 23.41 L 27.28,17.71 Z" fill="rgb(254, 254, 253)"/>
</svg>
