<?xml version="1.0" encoding="UTF-8"?>
<!-- generated by Finnhub -->
<svg viewBox="0 0 55.5 55.5" xmlns="http://www.w3.org/2000/svg">
<path d="M 0,0 H 55.5 V 55.5 H 0 Z" fill="rgb(239, 242, 248)"/>
<path d="M 4.62,21.985 H 4 V 33 H 5 V 28 H 9 V 27 H 5 V 23 H 9 V 22 H 4.63 Z M 44,22 H 43 V 33 H 44 V 22 Z M 11,28.77 V 33 H 10 V 25 H 11 V 27.09 C 11.71,25.39 13.01,24.99 13.59,25 V 26.24 C 11.9,26.18 11.2,27.74 11,28.77 Z M 17.48,25 C 19.76,24.98 20.1,26.96 19.99,28 H 15.69 C 15.69,32.53 18.53,32.45 19.83,31.88 V 32.66 C 19.3,32.96 18.43,33.01 18.05,33 C 14.73,32.9 14.53,29.56 14.52,28.73 C 14.51,27.91 14.64,25.03 17.48,25 Z M 17.42,25.66 C 18.48,25.66 18.75,26.67 18.76,27.17 H 15.83 A 1.52,1.52 0 0,1 17.42,25.66 Z M 26.75,28 C 26.85,26.96 26.51,24.98 24.24,25 C 21.39,25.03 21.26,27.9 21.27,28.73 C 21.29,29.56 21.49,32.9 24.8,33 C 25.18,33 26.06,32.95 26.59,32.66 V 31.88 C 25.28,32.45 22.45,32.53 22.45,28 H 26.75 Z M 25.51,27.17 C 25.51,26.67 25.23,25.67 24.17,25.66 A 1.52,1.52 0 0,0 22.59,27.17 H 25.51 Z M 28,22 V 33 H 29.1 V 28.93 C 29.1,28.01 30.07,26.05 31.59,26 C 32.09,26 32.96,26.38 33,27.51 V 33 H 34 V 26.83 A 1.86,1.86 0 0,0 31.93,25 C 30.3,25.05 29.31,26.53 29.09,27.26 V 22 H 28 Z M 38,33 C 40.24,32.98 41,31.2 41,29 S 40.03,25.02 38,25 C 35.96,24.98 35,26.8 35,29 S 35.75,33.02 38,33 Z M 38,32.32 C 39.5,32.3 40,30.83 40,29 C 40,27.17 39.36,25.7 38,25.68 C 36.64,25.68 36,27.17 36,29 C 36,30.83 36.5,32.33 38,32.32 Z M 50,22 H 51 V 33 H 50 V 31.39 C 49.65,32.36 49,32.99 47.91,33 C 46.11,33.01 45.5,31.24 45.5,29.08 S 46.28,25.15 47.91,25.16 C 48.94,25.17 49.63,25.86 50,26.91 V 22 Z M 48.22,32.2 C 49.48,32.19 49.9,30.8 49.9,29.07 C 49.9,27.35 49.36,25.96 48.22,25.94 C 47.08,25.94 46.53,27.34 46.53,29.07 S 46.96,32.21 48.22,32.2 Z" fill="rgb(36, 7, 86)" fill-rule="evenodd"/>
</svg>
