<?xml version="1.0" encoding="UTF-8"?>
<!-- generated by Finnhub -->
<svg viewBox="0 0 55.5 55.5" xmlns="http://www.w3.org/2000/svg">
<path d="M 0,0 H 55.5 V 55.5 H 0 Z" fill="rgb(239, 242, 248)"/>
<path d="M 41.510000000000005,19.985 C 41.68,20 41.81,20.04 41.89,20.07 C 41.93,20.03 41.93,19.98 41.91,19.93 A 15.77,15.77 0 0,0 38.25,15.66 A 15.73,15.73 0 0,0 32.98,12.78 A 16.35,16.35 0 0,0 21.24,13.48 C 19.44,14.32 17.84,15.44 16.47,16.85 A 16.11,16.11 0 0,0 16.27,38.92 L 19.13,33.04 C 19.15,33 19.18,33 19.23,33 H 25.16 C 25.22,33 25.23,32.95 25.18,32.99 C 23.88,34.16 22.53,35.3 21.19,36.44 C 19.89,37.56 18.59,38.67 17.31,39.8 C 17.31,39.81 17.28,39.82 17.23,39.82 C 17.26,39.83 17.25,39.86 17.21,39.89 L 16.21,40.72 C 16.18,40.75 16.18,40.76 16.23,40.76 L 17.9,40.49 C 17.94,40.49 17.98,40.49 18,40.52 A 16.01,16.01 0 0,0 35.57,42.12 A 16.04,16.04 0 0,0 43.54,23.81 A 0.26,0.26 0 0,1 43.56,23.65 L 44.49,21.04 C 44.51,20.96 44.5,20.95 44.44,21.01 L 43.08,22.51 L 40.46,24.96 A 0.14,0.14 0 0,1 40.36,25 H 16.2 L 16.18,24.98 V 24.95 L 20.01,21.01 A 0.08,0.08 0 0,1 20.07,20.99 L 31.07,21 H 31.12 C 31.15,21.01 31.17,21.02 31.2,20.99 L 31.79,20.15 L 31.81,20.1 C 31.83,20.05 31.84,20 31.86,20 H 41.51 Z M 24.78,27.08 L 24.21,27.98 L 24.2,28 H 18.04 L 17.99,28.03 L 15.01,30.96 V 31 H 28.78 L 32.99,27.05 V 27 L 32.98,26.99 H 24.79 V 27.04 L 24.78,27.07 Z" fill="rgb(1, 130, 202)" fill-rule="evenodd"/>
</svg>
