<?xml version="1.0" encoding="UTF-8"?>
<!-- generated by Finnhub -->
<svg viewBox="0 0 55.5 55.5" xmlns="http://www.w3.org/2000/svg">
<path d="M 0,0 H 55.5 V 55.5 H 0 Z" fill="url(#a)"/>
<path d="M 3.99,20.985 H 5 V 22 H 4 Z" fill="rgb(244, 70, 42)"/>
<path d="M 51.99,20.985 V 34 H 51 V 22 H 6 V 21 H 52 Z M 4,23 H 5 V 33 H 34 V 34 H 4 V 23 Z M 7,25 H 10 V 26 H 8 V 27 H 10 V 28 H 8 V 30 H 7 V 25 Z M 13,25 H 16 V 26 H 14 V 27 H 15.5 V 28 H 14 V 29 H 16 V 30 H 13 V 25 Z M 27,25 H 26 V 30 H 29 V 29 H 27 V 28 H 28.5 V 27 H 27 V 26 H 29 V 25 H 27 Z M 19,25 H 20.5 A 2.5,2.5 0 0,1 20.5,30 H 19 V 25 Z M 20,26 H 20.5 A 1.5,1.5 0 0,1 20.5,29 H 20 V 26 Z M 32,25 H 33.25 A 1.75,1.75 0 0,1 34.17,28.24 L 35.87,30 H 34.45 L 33.02,28.5 H 33 V 30 H 32 V 25 Z M 33,27.5 V 26 H 33.25 A 0.75,0.75 0 0,1 33.25,27.5 H 33 Z M 38.36,30 H 39.47 L 39.95,29 H 41.77 L 42.25,30 H 43.37 L 40.87,25 L 38.37,30 Z M 40.86,27.12 L 41.29,28 H 40.44 L 40.86,27.12 Z M 47,25 H 46 V 30 H 49 V 29 H 47 V 25 Z M 45.5,33.71 A 1,1 0 0,0 44.62,32.71 L 45.19,32.23 L 45,32 L 44.41,32.5 L 43.88,32.96 A 0.94,0.94 0 0,0 43.5,33.71 A 1,1 0 1,0 45.5,33.71 Z M 45.2,33.71 A 0.7,0.7 0 0,0 44.5,33.01 C 44.13,33.01 43.8,33.35 43.8,33.71 A 0.7,0.7 0 1,0 45.2,33.71 Z M 37.22,32.26 V 34.5 H 36.92 V 32.74 L 36.13,33.14 L 36,32.87 L 37.22,32.26 Z M 40.38,34.28 A 1,1 0 1,1 41.5,33.28 C 41.5,33.61 41.36,33.84 41.12,34.04 L 40.59,34.5 L 40,35 L 39.8,34.77 L 40.38,34.28 Z M 40.5,33.98 A 0.7,0.7 0 1,1 41.2,33.28 C 41.2,33.65 40.87,33.98 40.5,33.98 Z M 48.18,32.95 C 48.04,32.84 47.76,32.75 47.3,32.75 V 32.45 C 47.79,32.45 48.14,32.54 48.36,32.71 C 48.6,32.89 48.66,33.14 48.61,33.39 C 48.56,33.64 48.4,33.89 48.18,34.09 C 48.08,34.19 47.98,34.27 47.88,34.35 H 49 V 34.65 H 47.3 L 47.24,34.36 C 47.52,34.24 47.78,34.07 47.97,33.89 C 48.17,33.69 48.28,33.49 48.32,33.33 C 48.35,33.17 48.32,33.05 48.18,32.95 Z" fill="rgb(254, 254, 253)" fill-rule="evenodd"/>
<defs>
<linearGradient id="a" x1="10.42" x2="68.15" y1="9.71" y2="76.02" gradientUnits="userSpaceOnUse">
<stop stop-color="rgb(25, 29, 31)" offset="0"/>
<stop stop-color="rgb(5, 5, 8)" offset="1"/>
</linearGradient>
</defs>
</svg>
