<?xml version="1.0" encoding="UTF-8"?>
<!-- generated by Finnhub -->
<svg viewBox="0 0 55.5 55.5" xmlns="http://www.w3.org/2000/svg">
<path d="M 0,0 H 55.5 V 55.5 H 0 Z" fill="rgb(239, 242, 248)"/>
<path d="M 8.34,25.884999999999998 C 11.2,24.75 18.69,23.56 25.85,28.03 C 34.81,33.61 41.2,31.32 43.55,29.93 C 41.66,32.37 34.97,35.88 23.35,30.53 C 22.3,30.04 21.4,29.53 20.53,29.02 C 17.76,27.41 15.15,25.9 8.35,25.9 Z M 4,28.13 C 6.85,26.98 14.6,26.01 21.76,30.47 C 30.71,36.05 36.86,34.57 39.21,33.18 C 37.31,35.61 30.57,38.22 18.94,32.86 C 17.86,32.36 16.94,31.82 16.04,31.29 C 13.32,29.67 10.74,28.13 4,28.13 Z" fill="rgb(16, 89, 117)"/>
<path d="M 31.369999999999997,23.335 C 27,25.43 23.48,25.28 22.27,24.95 C 25.24,27.02 29.94,26.65 34.29,24.95 A 21.85,21.85 0 0,1 43.35,23.72 C 41.87,22.5 36.85,20.75 31.38,23.35 Z M 35.42,25.53 C 31.04,27.61 27.52,27.46 26.32,27.13 C 29.28,29.2 33.99,28.83 38.34,27.13 A 21.85,21.85 0 0,1 47.39,25.9 C 45.91,24.68 40.89,22.93 35.42,25.53 Z M 30.92,29.3 C 32.12,29.64 35.65,29.8 40.02,27.71 C 45.5,25.11 50.52,26.86 52,28.08 A 21.85,21.85 0 0,0 42.94,29.31 C 38.59,31.01 33.88,31.38 30.92,29.31 Z" fill="rgb(125, 198, 186)"/>
</svg>
