<?xml version="1.0" encoding="UTF-8"?>
<!-- generated by Finnhub -->
<svg viewBox="0 0 55.5 55.5" xmlns="http://www.w3.org/2000/svg">
<path d="M 0,0 H 55.5 V 55.5 H 0 Z" fill="rgb(239, 242, 248)"/>
<path d="M 17.7,12.985 A 4.72,4.72 0 0,0 13,17.73 V 38.27 A 4.72,4.72 0 0,0 17.71,43 H 25 C 24.77,41.02 23.28,39.2 22.5,38.5 H 33.5 C 31.56,40.22 31,42 30.93,43 H 38.29 C 40.89,43 43,40.88 43,38.27 V 17.73 A 4.72,4.72 0 0,0 38.29,13 H 17.7 Z M 28,13 L 26.74,17 H 22.65 L 25.95,19.3 L 24.7,23.2 L 28,20.8 L 31.3,23.2 L 30.04,19.3 L 33.34,17 H 29.26 L 28,13 Z M 26.34,35.5 A 7.1,7.1 0 0,1 24.66,30.93 C 24.66,29.43 25.03,28.48 25.38,27.61 C 25.68,26.85 25.97,26.15 25.97,25.17 C 26.26,25.42 26.92,26.25 27.22,27.55 A 5.35,5.35 0 0,1 32.71,24.02 C 32.07,24.42 30.81,25.66 30.81,27.44 C 30.81,28.21 30.95,28.61 31.11,29.09 C 31.29,29.64 31.51,30.29 31.61,31.69 C 31.61,33.26 30.5,34.89 29.93,35.49 H 26.34 Z M 25.69,35.5 H 22.82 C 22.33,34.85 21.36,33.34 21.36,32.51 C 21.36,31.47 21.46,30.42 22.23,29.22 C 22.83,28.27 23.03,27.18 23.05,26.76 C 24.06,27.87 23.95,28.81 23.82,29.95 C 23.77,30.36 23.72,30.81 23.72,31.3 C 23.72,32.75 25.04,34.7 25.69,35.5 Z M 32.3,35.5 H 30.77 A 5.83,5.83 0 0,0 32.21,30.06 C 32.14,29.71 32.07,29.36 32.07,28.57 C 32.07,27.24 33.27,26.84 33.88,26.8 C 33.24,28 33.61,28.66 34.03,29.45 C 34.36,30.04 34.72,30.69 34.72,31.71 C 34.72,33.59 33.11,35.02 32.3,35.5 Z M 34,36 H 22 V 38 H 34 V 36 Z" fill="rgb(254, 177, 2)" fill-rule="evenodd"/>
<path d="M 27.99,12.985 H 17.71 A 4.72,4.72 0 0,0 13,17.73 V 38.27 A 4.72,4.72 0 0,0 17.71,43 H 25 C 24.77,41.02 23.28,39.2 22.5,38.5 H 28 V 38 H 22 V 36 H 28 V 35.5 H 26.34 A 7.1,7.1 0 0,1 24.66,30.93 C 24.66,29.43 25.03,28.48 25.38,27.61 C 25.68,26.85 25.97,26.15 25.97,25.17 C 26.26,25.42 26.92,26.25 27.22,27.55 C 27.36,27.15 27.62,26.64 28,26.13 V 20.8 L 24.7,23.21 L 25.96,19.31 L 22.66,17.01 H 26.74 L 28,13 Z M 22.82,35.5 H 25.69 C 25.04,34.7 23.72,32.75 23.72,31.3 C 23.72,30.8 23.77,30.36 23.82,29.95 C 23.95,28.81 24.06,27.87 23.05,26.75 A 5.6,5.6 0 0,1 22.23,29.22 A 5.64,5.64 0 0,0 21.36,32.51 C 21.36,33.34 22.33,34.85 22.82,35.5 Z" fill="rgb(1, 52, 127)" fill-rule="evenodd"/>
</svg>
