<?xml version="1.0" encoding="UTF-8"?>
<!-- generated by Finnhub -->
<svg viewBox="0 0 55.5 55.5" xmlns="http://www.w3.org/2000/svg">
<path d="M 0,0 H 55.5 V 55.5 H 0 Z" fill="rgb(239, 242, 248)"/>
<path d="M 12.950000000000001,22.765 C 16.03,19.71 20.16,17.98 24.33,18 C 27.55,18.01 30.8,19.11 33.61,21.13 A 15.92,15.92 0 0,1 39.31,39.36 C 42.31,36.37 44.03,32.22 44,27.98 C 43.93,19.43 37,12 28,12 A 16.11,16.11 0 0,0 15.08,18.75 A 15.92,15.92 0 0,0 12.96,22.77 Z" fill="url(#c)"/>
<path d="M 30.509999999999998,12.184999999999999 A 15.95,15.95 0 0,0 12,27.93 A 15.95,15.95 0 0,0 32.47,43.23 A 15.99,15.99 0 0,1 19,27.49 C 19,20.25 23.88,14.14 30.52,12.2 Z" fill="url(#b)"/>
<path d="M 39.09,27.915 A 16.04,16.04 0 0,1 39.43,39.27 C 38.46,40.25 37.35,41.12 36.1,41.84 C 33.71,43.22 31.1,43.96 28.5,44 C 22,44.1 15.6,40.19 13.12,33.77 A 15.99,15.99 0 0,0 23.79,38 C 26.64,38.07 29.53,37.51 32.17,35.98 A 15.88,15.88 0 0,0 39.09,27.85 V 27.93 Z" fill="url(#a)"/>
<defs>
<linearGradient id="c" x1="20.92" x2="43.94" y1="17.93" y2="25.44" gradientUnits="userSpaceOnUse">
<stop stop-color="rgb(0, 63, 95)" offset=".08"/>
<stop stop-color="rgb(1, 74, 125)" offset=".33"/>
<stop stop-color="rgb(37, 169, 230)" offset="1"/>
</linearGradient>
<linearGradient id="b" x1="22.24" x2="22.24" y1="12" y2="43.87" gradientUnits="userSpaceOnUse">
<stop stop-color="rgb(32, 173, 224)" offset="0"/>
<stop stop-color="rgb(1, 65, 90)" offset="1"/>
</linearGradient>
<linearGradient id="a" x1="42.19" x2="13.08" y1="29.36" y2="37.88" gradientUnits="userSpaceOnUse">
<stop stop-color="rgb(3, 68, 99)" offset="0"/>
<stop stop-color="rgb(1, 84, 143)" offset=".15"/>
<stop stop-color="rgb(165, 77, 98)" offset=".25"/>
<stop stop-color="rgb(213, 60, 64)" offset=".32"/>
<stop stop-color="rgb(223, 57, 32)" offset=".93"/>
</linearGradient>
</defs>
</svg>
