<?xml version="1.0" encoding="UTF-8"?>
<!-- generated by Finnhub -->
<svg viewBox="0 0 55.5 55.5" xmlns="http://www.w3.org/2000/svg">
<path d="M 0,0 H 55.5 V 55.5 H 0 Z" fill="rgb(239, 242, 248)"/>
<path d="M 21.096,36.211999999999996 A 5.506,5.506 0 0,1 20.003,33 V 40.214 C 20.003,40.53 20.033,40.844 20.093,41.154 C 20.448,43.036 21.881,44.739 24.003,46 V 38.786 A 9.478,9.478 0 0,1 21.103,36.24" fill="rgb(1, 71, 101)"/>
<path d="M 27.127,24.858 C 26.127,25.192 25.15,25.608 24.223,26.117 C 21.979,27.36 20.472,29.044 20.094,30.919 C 20.032,31.226 20,31.539 20,31.851 V 39 A 5.244,5.244 0 0,1 21.168,35.802 C 22.388,34.204 24.497,32.88 27.146,32.032 A 21.479,21.479 0 0,1 31.577,31.133 L 34,27.366 L 31.577,24 C 30.072,24.143 28.587,24.444 27.147,24.898" fill="rgb(1, 150, 202)"/>
<path d="M 36.808,14.115 A 25.096,25.096 0 0,0 34.275,14 A 23.162,23.162 0 0,0 27.299,15.033 A 16.568,16.568 0 0,0 24.319,16.293 C 22.027,17.552 20.483,19.255 20.096,21.153 C 20.032,21.465 20,21.781 20,22.098 V 29 A 6.728,6.728 0 0,1 21.329,26.166 C 22.555,24.532 24.611,22.758 27.311,21.902 A 23.181,23.181 0 0,1 34.288,20.869 C 35.138,20.869 35.986,20.912 36.83,20.999 L 38.996,17.464 L 36.818,14.13 Z" fill="rgb(76, 183, 221)"/>
</svg>
