<?xml version="1.0" encoding="UTF-8"?>
<!-- generated by Finnhub -->
<svg viewBox="0 0 55.5 55.5" xmlns="http://www.w3.org/2000/svg">
<path d="M 0,0 H 55.5 V 55.5 H 0 Z" fill="rgb(239, 242, 248)"/>
<path d="M 17.849999999999998,41.635 L 19.04,40.03 A 15,15 0 1,1 34.87,14.66 L 36.07,13.03 A 17,17 0 0,0 17.87,41.65 Z" fill="rgb(241, 156, 92)"/>
<path d="M 27.99,44.985 A 17,17 0 0,0 38.17,14.37 L 36.99,16 A 15,15 0 1,1 21.16,41.36 L 19.96,43 A 16.93,16.93 0 0,0 28,45 Z" fill="rgb(254, 194, 19)"/>
<path d="M 29.099999999999998,18.985 H 26.81 L 22.88,27 H 25.18 L 29.11,19 Z M 24.08,29 H 21.78 L 17.85,37 H 20.15 L 24.08,29 Z M 31.36,19 H 33.66 L 29.73,27 H 27.43 L 31.36,19 Z M 28.63,29 H 26.33 L 22.4,37 H 24.7 L 28.63,29 Z M 35.89,19 H 38.19 L 34.25,27 H 31.95 L 35.89,19 Z M 33.16,29 H 30.86 L 26.93,37 H 29.23 L 33.16,29 Z" fill="rgb(1, 62, 90)"/>
</svg>
