<?xml version="1.0" encoding="UTF-8"?>
<!-- generated by Finnhub -->
<svg viewBox="0 0 55.5 55.5" xmlns="http://www.w3.org/2000/svg">
<path d="M 0,0 H 55.5 V 55.5 H 0 Z" fill="rgb(242, 64, 17)"/>
<path d="M 3.99,26.498 V 32 H 5 V 29.442 C 5,28.344 6.316,27.982 7,27.982 V 26.983 C 5.808,26.983 5.225,27.41 5,27.544 C 5,25.908 5.728,24.998 7,24.998 V 23.998 C 4.396,24.01 4,25.532 4,26.513 Z M 8,28.688 V 32 H 9 C 8.995,31.542 9,30.322 9,29.11 C 9,27.63 10.178,27 11,27 V 26 C 8.625,26.163 8.01,27.86 8,28.688 Z" fill="rgb(254, 254, 253)"/>
<path d="M 48.99,28.673 V 32 H 50 C 49.995,31.542 50,30.322 50,29.11 C 50,27.63 51.178,27 52,27 V 26 C 49.624,26.163 49.01,27.86 49,28.688 Z" fill="rgb(205, 205, 204)"/>
<circle cx="14.469" cy="29" r="3" fill="rgb(254, 254, 253)"/>
<path d="M 34.983000000000004,28.766 A 3,3 0 1,1 34.001,26.763 V 25 H 35.001 V 28.86 A 2.577,2.577 0 0,0 34.993,28.781 Z" fill="rgb(205, 205, 204)"/>
<circle cx="38.582" cy="29" r="3" fill="rgb(205, 205, 204)"/>
<circle cx="45.37" cy="29" r="3" fill="rgb(205, 205, 204)"/>
<circle cx="14.469" cy="29" r="2" fill="rgb(242, 64, 17)"/>
<circle cx="32.001" cy="29" r="2" fill="rgb(242, 64, 17)"/>
<circle cx="38.582" cy="29.003" r="2" fill="rgb(242, 64, 17)"/>
<circle cx="45.37" cy="29.003" r="2" fill="rgb(242, 64, 17)"/>
<path d="M 17.99,28.557 V 32 H 19 V 28.884 C 19,28.429 19.323,26.964 21,27 C 22.677,27.035 22.997,28.374 22.997,28.884 V 32 H 24 V 28.572 C 23.956,27.719 23.307,26.011 21.067,26 C 18.827,25.99 18.089,27.71 18,28.572 Z" fill="rgb(254, 254, 253)"/>
<circle cx="21.5" cy="29.5" r=".5" fill="rgb(205, 205, 204)"/>
<path d="M 24.991,29.755 V 25 H 26 V 27 H 28 V 28 H 26 C 25.988,28.234 26,28.76 26,29.512 C 26,30.717 27.17,30.998 28,30.998 V 32 C 25.705,32 25,30.726 25,29.77 Z" fill="rgb(254, 254, 253)"/>
</svg>
