<?xml version="1.0" encoding="UTF-8"?>
<!-- generated by Finnhub -->
<svg viewBox="0 0 55.5 55.5" xmlns="http://www.w3.org/2000/svg">
<path d="M 0,0 H 55.5 V 55.5 H 0 Z" fill="url(#b)"/>
<path d="M 25.319999999999997,12.205 L 22.88,18.01 C 19.1,19.65 12.17,25.6 14.34,36.33 A 16,16 0 0,1 25.33,12.23 Z M 26.69,12.05 L 18.9,29.72 L 20.09,31.13 C 20.82,31.39 22.25,31.67 22.88,31.77 L 25.94,24.5 C 29.02,23.11 33.44,23.92 35.27,24.5 C 33.15,22.05 29.33,20.83 27.68,20.52 L 29.69,16.27 A 18.18,18.18 0 0,1 39.09,16.46 A 15.95,15.95 0 0,0 26.69,12.06 Z M 41.88,20.03 A 16.15,16.15 0 0,1 33.17,38.23 L 30.82,43.75 A 16,16 0 0,0 41.88,20.03 Z M 29.46,43.93 L 37.24,26.47 L 36.04,25.14 C 35.46,24.89 33.88,24.61 33.17,24.5 L 30.06,31.77 C 27.13,32.98 22.68,32.27 20.82,31.77 C 22.36,33.75 26.46,35.27 28.32,35.8 L 26.49,39.91 C 22.72,40.82 19.09,40.33 17.26,39.86 A 15.94,15.94 0 0,0 29.46,43.93 Z" fill="url(#a)"/>
<defs>
<linearGradient id="b" x1="10.42" x2="68.15" y1="9.71" y2="76.02" gradientUnits="userSpaceOnUse">
<stop stop-color="rgb(25, 29, 31)" offset="0"/>
<stop stop-color="rgb(5, 5, 8)" offset="1"/>
</linearGradient>
<linearGradient id="a" x1="23.74" x2="32.32" y1="12.55" y2="43.27" gradientUnits="userSpaceOnUse">
<stop stop-color="rgb(233, 186, 10)" offset="0"/>
<stop stop-color="rgb(253, 221, 5)" offset=".51"/>
<stop stop-color="rgb(233, 186, 10)" offset="1"/>
</linearGradient>
</defs>
</svg>
