<?xml version="1.0" encoding="UTF-8"?>
<!-- generated by Finnhub -->
<svg viewBox="0 0 55.5 55.5" xmlns="http://www.w3.org/2000/svg">
<path d="M 0,0 H 55.5 V 55.5 H 0 Z" fill="rgb(239, 242, 248)"/>
<path d="M 8.49,24.985 H 5 V 26 H 8.5 V 25 Z M 5,31 V 27 H 8.5 V 28 H 6 V 31 H 5 Z M 9,28.8 V 25 H 10 V 28.87 C 10,29.5 10.42,30 11,30 C 11.58,30 12,29.5 12,28.87 V 25 H 13 V 28.8 C 13,30.02 12.1,31 11,31 S 9,30.02 9,28.8 Z M 19,25 V 28.8 C 19,30.02 19.9,31 21,31 S 23,30.02 23,28.8 V 25 H 22 V 28.87 C 22,29.5 21.58,30 21,30 C 20.42,30 20,29.5 20,28.87 V 25 H 19 Z M 14,25 H 18 V 26 H 14 V 25 Z M 16.5,27 H 15.5 V 31 H 16.5 V 27 Z M 24,26 V 25 H 25.28 C 26.23,25 27,25.9 27,27 C 27,28.03 26.32,28.89 25.46,28.99 L 27.15,30.27 L 26.62,31 L 24,29 V 28 H 25.13 C 25.64,28 26,27.6 26,27 S 25.64,26 25.13,26 H 24 Z M 32,25 H 28 V 26 H 32 V 25 Z M 32,30 H 28 V 31 H 32 V 30 Z M 28,27.5 H 31 V 28.5 H 28 V 27.5 Z" fill="rgb(0, 91, 169)"/>
<path d="M 32.690000000000005,24.985 H 36 V 25.7 H 34.7 V 31 H 34 V 25.7 H 32.7 V 25 Z M 39.7,29.7 H 36.64 V 30.3 H 39.7 V 31 H 37.14 C 36.51,31 36,30.54 36,29.97 V 28.03 C 36,27.46 36.5,27 37.14,27 H 38.4 C 39.03,27 39.7,27.46 39.7,28.03 V 29.7 Z M 39,29 H 36.7 V 28.33 C 36.7,27.98 36.98,27.7 37.33,27.7 H 38.37 C 38.72,27.7 39,27.98 39,28.33 V 29 Z M 43,30.3 V 31 H 41.16 C 40.52,31 40,30.54 40,29.97 V 28.03 C 40,27.46 40.52,27 41.16,27 H 43 V 27.7 H 41.11 C 40.93,27.7 40.7,27.84 40.7,28 V 29.93 C 40.7,30.09 40.93,30.3 41.11,30.3 H 43 Z M 43.3,31 V 25 H 44 V 27.18 C 44.13,27.08 44.29,27 44.47,27 H 45.69 C 46.19,27 46.7,27.4 46.7,27.9 V 31 H 46 V 28.43 A 0.7,0.7 0 0,0 45.27,27.7 H 44.28 C 44.21,27.72 44.11,27.76 44,27.84 V 31 H 43.3 Z" fill="rgb(31, 22, 19)" fill-rule="evenodd"/>
<path d="M 47.99,24.985 H 49 V 31 H 48 Z M 50,25 H 51 V 31 H 50 Z" fill="rgb(0, 91, 169)"/>
</svg>
