<?xml version="1.0" encoding="UTF-8"?>
<!-- generated by Finnhub -->
<svg viewBox="0 0 55.5 55.5" xmlns="http://www.w3.org/2000/svg">
<path d="M 0,0 H 55.5 V 55.5 H 0 Z" fill="url(#a)"/>
<path d="M 39.99,23.985 V 30.48 C 40,30.9 40.35,31 40.8,31 H 42.5 V 31.86 C 42.5,31.94 42.51,32 42.42,32 H 39.28 C 38.18,32 38,31.4 38,30.87 V 24.45 C 38,24.15 38.12,24 38.5,24 H 40 Z M 37,24 V 31.58 C 37,31.92 36.86,32 36.59,32 H 35 V 24.42 C 35,24.17 35.08,24 35.44,24 H 37 Z M 5,25.1 C 5,24.48 5,24 5.94,24 H 10 V 24.89 C 10,24.94 9.97,24.99 9.9,24.99 H 7.45 C 7.14,24.99 7,25.04 7,25.41 V 27 H 9.5 V 27.89 C 9.5,27.97 9.5,28 9.45,28 H 7 V 31.58 C 7,31.88 6.82,32 6.51,32 H 5 V 25.1 Z M 13,24.03 V 29.73 C 13,30.25 13.16,30.6 13.54,30.79 C 14.02,31.07 14.89,31.07 15.41,30.79 C 15.75,30.6 16,30.31 16,29.73 V 24.41 C 16,24.16 15.98,24.03 16.36,24.03 H 18 V 29.73 C 18,31.06 17.1,31.61 16.33,31.8 A 8.06,8.06 0 0,1 12.73,31.8 C 11.55,31.47 11,30.82 11,29.73 V 24.41 C 11,24.16 11.09,24 11.4,24 H 13 M 48.69,24 C 48.29,24 48.05,24.2 47.96,24.56 L 46.68,30.06 H 46.65 L 45.3,24 H 43.48 C 43.12,24 43.01,24.17 43.01,24.48 V 32 H 43.84 C 43.95,32 44.01,31.94 44.01,31.8 V 25.5 H 44.07 L 45.7,32 H 46.8 C 47.2,32 47.35,31.8 47.46,31.41 L 48.94,25.49 H 49 V 32 H 50.5 C 50.86,32 51,31.83 51,31.5 V 24 H 48.69 Z M 27,28 H 25 V 32 H 26.59 C 26.86,32 27,31.9 27,31.54 V 28 Z" fill="rgb(254, 254, 253)"/>
<path d="M 26.88,26.575 C 26.97,26.54 27,26.49 27,26.38 V 24 H 25.44 C 25.08,24 25,24.16 25,24.4 V 28 L 26.89,26.59 Z" fill="rgb(250, 1, 30)"/>
<path d="M 20.79,30.895 C 21.7,30.81 22,30.29 22,29.53 V 24.41 C 22,24.08 22.15,24 22.37,24 H 24 V 29.02 C 24,30.24 23.72,30.86 22.99,31.4 C 22.59,31.67 21.92,32 20.4,32 H 19.11 C 19.03,31.97 19,31.9 19,31.84 V 31 C 19.43,31 20.2,31 20.8,30.91 Z M 30.03,24 C 28.99,24 29,24.53 29,25.13 V 26.81 C 29,26.86 28.96,26.86 28.96,26.89 L 27.53,28 H 29 V 32 H 30.49 C 30.83,32 31,31.91 31,31.6 V 28 H 33.89 C 33.95,28 34,27.96 34,27.88 V 27 H 31 V 25.51 C 31,25.14 31.18,25 31.55,25 H 34.42 C 34.5,25 34.53,24.92 34.53,24.86 V 24 H 30.03 Z" fill="rgb(254, 254, 253)"/>
<defs>
<linearGradient id="a" x1="28" x2="28" y2="56" gradientUnits="userSpaceOnUse">
<stop stop-color="rgb(130, 172, 73)" offset="0"/>
<stop stop-color="rgb(17, 117, 92)" offset="1"/>
</linearGradient>
</defs>
</svg>
