<?xml version="1.0" encoding="UTF-8"?>
<!-- generated by Finnhub -->
<svg viewBox="0 0 55.5 55.5" xmlns="http://www.w3.org/2000/svg">
<path d="M 0,0 H 55.5 V 55.5 H 0 Z" fill="rgb(239, 242, 248)"/>
<path d="M 5.42,25.985 H 4 V 27.5 H 5.43 V 26 Z" fill="rgb(249, 1, 85)"/>
<path d="M 50.54,31.985 H 52 V 26 H 50.55 V 26.75 A 2.33,2.33 0 0,0 48.8,26 C 47.2,26 46,27.23 46,29.01 C 46,30.79 47.17,32 48.8,32 A 2.16,2.16 0 0,0 50.55,31.24 V 32 Z M 47.56,29.04 C 47.56,27.99 48.16,27.41 49.03,27.41 A 1.43,1.43 0 0,1 50.11,27.87 A 1.55,1.55 0 0,1 50.55,28.99 C 50.55,30.03 49.86,30.66 49.03,30.66 A 1.42,1.42 0 0,1 47.97,30.18 A 1.54,1.54 0 0,1 47.57,29.04 Z M 43,25 H 44.56 V 23.5 H 43 V 25 Z M 43,32 H 44.56 V 26 H 43 V 32 Z M 40.06,27.49 C 40.49,27.47 40.91,27.61 41.26,27.88 L 41.93,26.65 A 2.96,2.96 0 0,0 39.94,26 A 2.86,2.86 0 0,0 36.98,29 C 36.98,30.88 38.3,32 40.03,32 C 40.9,32 41.51,31.8 42,31.32 L 41.3,30.14 C 40.97,30.44 40.55,30.58 40.1,30.57 C 39.2,30.57 38.53,29.97 38.53,29.02 C 38.53,28.07 39.2,27.49 40.06,27.49 Z M 35.55,31.3 L 34.89,30.14 C 34.45,30.5 33.9,30.68 33.35,30.65 C 32.69,30.65 32.15,30.43 31.85,29.97 L 35.68,28.71 C 35.53,26.97 34.58,26.01 33.02,26.01 C 31.34,26.01 30.19,27.21 30.19,28.98 C 30.19,30.82 31.45,32 33.35,32 C 34.3,32.02 35.05,31.76 35.55,31.3 Z M 33.02,27.35 C 33.61,27.35 33.91,27.62 34.04,27.95 L 31.64,28.8 A 1.4,1.4 0 0,1 32.01,27.75 A 1.3,1.3 0 0,1 33.01,27.35 Z M 24,29.34 V 26 H 22.59 V 29.14 C 22.59,29.99 22.3,30.6 21.49,30.6 C 20.69,30.6 20.41,30 20.41,29.14 V 26 H 19 V 29.32 C 19,30.88 19.85,32 21.48,32 C 23.15,32.02 24,30.9 24,29.34 Z M 15.54,32 H 17 V 26 H 15.54 V 26.7 A 2.25,2.25 0 0,0 13.78,26 C 12.15,26 10.95,27.22 10.95,29 C 10.95,30.79 12.13,32 13.78,32 C 14.53,32 15.13,31.77 15.54,31.3 V 32 Z M 12.53,29.04 C 12.53,27.99 13.13,27.41 14.01,27.41 A 1.45,1.45 0 0,1 15.09,27.85 A 1.55,1.55 0 0,1 15.54,28.97 C 15.54,30.02 14.84,30.65 14.01,30.65 A 1.45,1.45 0 0,1 12.93,30.17 A 1.54,1.54 0 0,1 12.53,29.04 Z M 10,27.5 V 26 H 7.58 V 25.7 C 7.58,24.72 8.04,24.27 10,24.5 V 23.07 C 9.64,23.03 9.3,23 9,23 C 6.88,22.99 6,23.97 6,25.6 V 32 H 7.58 V 27.5 H 10 Z M 29.2,26 H 28.7 C 26.82,26.06 26,26.95 26,28.52 V 32 H 27.56 V 28.63 C 27.56,27.82 27.98,27.46 29.2,27.46 V 26 Z" fill="rgb(1, 53, 130)"/>
</svg>
