<?xml version="1.0" encoding="UTF-8"?>
<!-- generated by Finnhub -->
<svg viewBox="0 0 55.5 55.5" xmlns="http://www.w3.org/2000/svg">
<path d="M 0,0 H 55.5 V 55.5 H 0 Z" fill="rgb(0, 123, 191)"/>
<path d="M 11.59,30.985 V 25 H 14.18 C 15.48,25 16.76,25.6 16.76,27.1 C 16.76,28.67 15.51,29 14.18,29 H 12.37 L 13,28.48 V 31 H 11.6 Z M 13,28.64 L 12.37,28 H 14.1 C 14.76,28 15.37,27.92 15.37,27.1 C 15.37,26.41 14.75,26 14.1,26 H 12.37 L 13,25.43 V 28.63 Z M 20,31 V 28 C 20,27.43 19.38,27 18.86,27 C 18.43,27 17.89,27.2 17.55,27.47 L 17.07,26.55 C 17.32,26.37 17.62,26.24 17.97,26.15 C 18.32,26.05 18.68,26 19.04,26 C 19.74,26 20.28,26.16 20.66,26.49 C 21.05,26.82 21.24,27.32 21.24,28.02 V 31 H 20 Z M 18.61,31 C 17.53,31 16.91,30.4 16.91,29.62 C 16.91,28.39 17.75,28 18.86,28 H 20.08 V 28.7 H 19 C 18.69,28.7 18.47,28.76 18.35,28.86 C 18.24,28.96 18.18,29.41 18.18,29.56 C 18.18,29.73 18.25,29.86 18.38,29.97 C 18.51,30.07 18.7,30.11 18.93,30.11 C 19.15,30.11 19.35,30.06 19.53,29.96 C 19.7,29.86 19.91,29.7 19.99,29.5 L 20.11,30.1 C 19.91,30.7 19.41,31 18.6,31 Z M 24.77,26 C 25.13,26 25.46,26.07 25.74,26.22 C 26.03,26.36 26.25,26.58 26.42,26.88 C 26.58,27.17 26.66,27.55 26.66,28.01 V 31 H 25.34 V 28.21 C 25.34,27.84 25.26,27.57 25.09,27.4 C 24.93,27.23 24.71,27.14 24.41,27.14 C 24.21,27.14 24.01,27.18 23.84,27.27 A 0.92,0.92 0 0,0 23.45,27.67 C 23.36,27.85 23.32,28.08 23.32,28.37 V 31 H 22 V 26 H 23.26 V 27.32 L 23.02,26.94 C 23.19,26.64 23.42,26.41 23.72,26.24 C 24.03,26.08 24.38,26 24.77,26 Z M 30.28,31 C 28.55,31 27.04,29.76 27.04,27.95 C 27.04,26.2 28.64,25 30.3,25 C 31.36,25 32.22,25.36 32.8,26.02 L 31.9,26.83 A 2.04,2.04 0 0,0 30.37,26.16 C 29.37,26.16 28.43,26.88 28.43,27.95 S 29.27,29.84 30.36,29.84 C 30.91,29.84 31.42,29.67 31.9,29.26 L 32.68,30.25 C 32,30.75 31.12,31 30.28,31 Z M 31.42,30.07 V 28 H 32.68 V 30.25 L 31.42,30.07 Z M 33.4,31 V 24 H 34.72 V 31 H 33.4 Z M 50.68,31 V 24 H 52 V 31 H 50.68 Z M 49,31 V 28 C 49,27.43 48.37,27 47.86,27 C 47.43,27 46.89,27.2 46.55,27.47 L 46.07,26.55 C 46.32,26.37 46.62,26.24 46.97,26.15 C 47.32,26.05 47.67,26 48.04,26 C 48.74,26 49.28,26.16 49.66,26.49 C 50.05,26.82 50.24,27.32 50.24,28.02 V 31 H 49 Z M 47.6,31 C 46.53,31 45.9,30.4 45.9,29.62 C 45.9,28.39 46.74,28 47.86,28 H 49.08 V 28.7 H 48 C 47.68,28.7 47.47,28.76 47.35,28.86 C 47.24,28.96 47.18,29.41 47.18,29.56 C 47.18,29.73 47.25,29.86 47.38,29.97 C 47.51,30.07 47.7,30.11 47.93,30.11 C 48.15,30.11 48.35,30.06 48.53,29.96 C 48.7,29.86 48.91,29.7 48.99,29.5 L 49.11,30.1 C 48.91,30.7 48.41,31 47.6,31 Z M 37.64,31 A 2.44,2.44 0 0,1 35.45,29.8 C 35.23,29.41 35.13,28.98 35.13,28.5 C 35.13,28.01 35.23,27.58 35.45,27.2 C 35.67,26.83 35.97,26.54 36.35,26.32 C 36.72,26.11 37.15,26 37.64,26 C 38.12,26 38.55,26.1 38.94,26.32 C 39.31,26.54 39.61,26.82 39.82,27.2 C 40.04,27.57 40.14,28 40.14,28.5 A 2.36,2.36 0 0,1 38.93,30.68 C 38.55,30.89 38.13,31 37.64,31 Z M 37.64,29.84 A 1.1,1.1 0 0,0 38.65,29.22 C 38.75,29.02 38.8,28.78 38.8,28.5 C 38.8,28.22 38.75,27.98 38.65,27.78 A 1.1,1.1 0 0,0 37.64,27.16 A 1.1,1.1 0 0,0 36.62,27.78 C 36.52,27.98 36.47,28.22 36.47,28.5 C 36.47,28.78 36.52,29.02 36.62,29.22 C 36.72,29.42 36.87,29.57 37.05,29.68 C 37.22,29.79 37.42,29.84 37.64,29.84 Z M 11.01,22.08 C 8.41,22.54 6.43,25.02 6.43,28 S 8.41,33.46 11.01,33.92 A 6.02,6.02 0 0,1 4,28 A 6.02,6.02 0 0,1 11.01,22.08 Z" fill="rgb(254, 254, 253)"/>
<path d="M 16.86,24.495 A 4.76,4.76 0 0,0 8.87,27.91 A 4.76,4.76 0 0,0 16.97,31.21 A 5.36,5.36 0 0,1 12.57,33.52 C 9.57,33.52 7.15,31.02 7.15,27.92 C 7.15,24.82 9.58,22.32 12.57,22.32 C 14.32,22.32 15.88,23.18 16.87,24.52 Z M 41.74,24 H 40.5 V 28.31 L 40.49,28.5 A 2.5,2.5 0 0,0 42.97,31 A 2.5,2.5 0 0,0 45.46,28.5 A 2.5,2.5 0 0,0 41.73,26.34 V 24 Z M 43.99,28.5 A 1.12,1.12 0 1,1 41.76,28.5 C 41.76,27.88 42.26,27.38 42.87,27.38 C 43.49,27.38 43.99,27.88 43.99,28.5 Z" fill="rgb(254, 254, 253)"/>
</svg>
