<?xml version="1.0" encoding="UTF-8"?>
<!-- generated by Finnhub -->
<svg viewBox="0 0 55.5 55.5" xmlns="http://www.w3.org/2000/svg">
<path d="M 0,0 H 55.5 V 55.5 H 0 Z" fill="rgb(239, 242, 248)"/>
<path d="M 8.99,19.985 H 47 V 21 H 9 Z" fill="rgb(243, 23, 58)"/>
<path d="M 8.99,20.985 H 47 V 22 H 9 Z" fill="rgb(32, 30, 30)"/>
<path d="M 17.99,21.985 H 47 V 23 H 18 Z M 18,24 H 47 V 25 H 18 Z M 18,26 H 47 V 27 H 18 Z M 18,28 H 47 V 29 H 18 Z M 18,30 H 47 V 31 H 18 Z M 18,32 H 47 V 33 H 18 Z M 18,34 H 47 L 46.85,35 H 18 V 34 Z M 18,36 H 46.26 S 45.97,36.56 45.38,37 H 19.06 C 18.5,36.62 18,36 18,36 Z M 20.04,38 H 44.2 S 43.55,38.56 42.93,39 H 21.53 C 20.94,38.62 20.04,38 20.04,38 Z" fill="rgb(243, 23, 58)"/>
<path d="M 8.99,22.985 H 38 V 24 H 9 Z M 9,25 H 38 V 26 H 9 Z M 9,27 H 38 V 28 H 9 Z M 9,29 H 38 V 30 H 9 Z M 9,31 H 38 V 32 H 9 Z M 9,33 H 38 V 34 H 9 Z M 9,35 H 38 L 37.17,36 H 9.8 L 9,35 Z M 10.86,37 H 36.85 L 35.45,38 H 12.08 C 11.38,37.52 10.86,37 10.86,37 Z M 13.98,39 H 34.35 L 31.33,40 H 16.36 C 15.39,39.7 13.98,39 13.98,39 Z" fill="rgb(32, 30, 30)"/>
<path d="M 28.79,40.985 L 25.97,40 H 31.44 L 28.8,41 Z" fill="rgb(243, 23, 58)"/>
</svg>
