<?xml version="1.0" encoding="UTF-8"?>
<!-- generated by Finnhub -->
<svg viewBox="0 0 55.5 55.5" xmlns="http://www.w3.org/2000/svg">
<path d="M 0,0 H 55.5 V 55.5 H 0 Z" fill="rgb(239, 242, 248)"/>
<path d="M 11.44,24.564999999999998 C 12.53,24.58 13.41,24.96 13.73,26 H 15.51 C 15.21,24 13.38,23 11.43,23 C 10.8,23 10.21,23.11 9.67,23.34 C 9.14,23.57 8.67,23.9 8.27,24.34 C 7.87,24.76 7.55,25.29 7.33,25.9 A 6.24,6.24 0 0,0 7,28.01 C 7,29.04 7.19,29.92 7.56,30.67 A 4.17,4.17 0 0,0 11.48,33 C 12.28,33 12.99,32.84 13.61,32.51 C 14.23,32.18 14.71,31.71 15.06,31.11 C 15.42,30.5 15.59,29.77 15.59,28.94 V 28 H 11 V 29.39 H 13.88 C 13.85,29.74 13.76,30.05 13.6,30.32 A 2,2 0 0,1 12.77,31.13 C 12.41,31.33 11.98,31.42 11.49,31.42 C 10.95,31.42 10.48,31.29 10.07,31.02 C 9.66,30.76 9.34,30.37 9.11,29.86 A 4.53,4.53 0 0,1 8.76,27.99 C 8.76,27.26 8.88,26.64 9.11,26.14 A 2.5,2.5 0 0,1 11.46,24.59 Z M 17.87,33 H 16 L 19.41,23 H 21.58 L 25,33 H 23.13 L 22.33,30.53 H 18.68 L 17.88,33 Z M 20.54,25.05 L 21.82,29 H 19.18 L 20.46,25.05 H 20.54 Z M 29.63,23 H 26 V 33 H 28 V 29.34 H 29.54 L 31.44,33 H 33.39 L 31.29,29 A 2.9,2.9 0 0,0 33.04,26.2 C 33.04,25.56 32.91,25 32.64,24.52 A 2.69,2.69 0 0,0 31.5,23.4 C 31,23.13 30.37,23 29.63,23 Z M 28,28 H 29.37 C 30.43,28 31.25,27.34 31.25,26.2 C 31.25,25.84 31.19,25.54 31.05,25.29 A 1.3,1.3 0 0,0 30.43,24.71 C 30.15,24.58 29.8,24.51 29.36,24.51 H 28 V 28 Z M 41.01,33 H 35 V 23 H 37 V 31.48 H 41.01 V 33 Z M 45,33 H 43 V 23 H 49 V 24.52 H 45 V 27.5 H 48.59 V 29 H 45 V 33 Z" fill-rule="evenodd"/>
</svg>
