<?xml version="1.0" encoding="UTF-8"?>
<!-- generated by Finnhub -->
<svg viewBox="0 0 55.5 55.5" xmlns="http://www.w3.org/2000/svg">
<path d="M 0,0 H 55.5 V 55.5 H 0 Z" fill="rgb(239, 242, 248)"/>
<path d="M 22.99,33.085 A 7.78,7.78 0 0,1 16.99,36 C 12.58,36 9,32.2 9,27.5 S 12.58,19 16.99,19 C 19.39,19 21.54,20.12 23,21.9 V 20 A 1,1 0 0,1 24,19 H 26 A 1,1 0 0,1 27,20 V 35.78 C 27.02,38.05 25.4,42.68 18.73,43 C 16.37,43 12.93,42.29 10.79,39.57 L 12.65,37.33 C 13.5,38.08 15.89,39.53 18.73,39.32 A 4.6,4.6 0 0,0 23,35.96 V 33.1 Z M 23,27.5 A 5,5 0 1,1 13,27.5 A 5,5 0 0,1 23,27.5 Z" fill="rgb(10, 126, 65)" fill-rule="evenodd"/>
<path d="M 30.49,12.985 A 0.5,0.5 0 0,0 30,13.5 V 35.5 C 30,35.78 30.22,36 30.5,36 H 32.5 A 0.5,0.5 0 0,0 33,35.5 V 33.98 A 8.5,8.5 0 1,0 33,21.02 V 13.5 A 0.5,0.5 0 0,0 32.5,13 H 30.5 Z M 33,27.52 V 27.48 A 5.5,5.5 0 1,1 33,27.52 Z" fill="rgb(123, 196, 90)"/>
</svg>
