<?xml version="1.0" encoding="UTF-8"?>
<!-- generated by Finnhub -->
<svg viewBox="0 0 55.5 55.5" xmlns="http://www.w3.org/2000/svg">
<path d="M 0,0 H 55.5 V 55.5 H 0 Z" fill="rgb(239, 242, 248)"/>
<path d="M 16.99,34.855 S 21.05,29.78 27.21,26.97 C 33.08,24.3 39,25.02 39,25.02 V 42 A 4,4 0 0,1 35,46 H 21 A 4,4 0 0,1 17,42 V 34.87 Z" fill="rgb(92, 85, 3)"/>
<path d="M 16.99,13.985 A 4,4 0 0,1 21,10 H 35 A 4,4 0 0,1 39,14 V 24.64 S 32.94,24.35 27.26,26.31 A 34.99,34.99 0 0,0 17,32.26 V 14 Z" fill="rgb(1, 177, 225)"/>
<path d="M 27.189999999999998,23.255 L 23.55,13.68 L 25.92,23.48 L 19.94,18.57 L 25.44,24.5 L 21.71,23.7 L 25.01,25.3 H 19.58 L 25.01,26.23 L 21.71,27.78 L 27.21,26.78 L 33.68,41.01 L 28.06,26.43 L 35.7,24.5 L 29.28,25.74 L 33.68,23.27 L 29.28,24.81 L 35.7,17.21 L 28.86,23.7 L 30.08,19.56 L 28.06,23.7 L 27.7,15.48 L 27.2,23.27 Z" fill="rgb(239, 242, 248)"/>
</svg>
