<?xml version="1.0" encoding="UTF-8"?>
<!-- generated by Finnhub -->
<svg viewBox="0 0 55.5 55.5" xmlns="http://www.w3.org/2000/svg">
<path d="M 0,0 H 55.5 V 55.5 H 0 Z" fill="rgb(239, 242, 248)"/>
<circle cx="32" cy="21" r="4" fill="rgb(253, 208, 2)"/>
<path d="M 23.009999999999998,17.785 L 32.94,24.25 L 35.92,21.77 L 48,29.13 L 46.96,30.83 L 36.1,24.22 L 33.64,26.26 L 28.64,30.26 L 27.4,28.7 L 31.31,25.57 L 23.05,20.2 L 9.13,29.8 L 8,28.16 L 23.02,17.8 Z" fill="rgb(1, 136, 93)"/>
<path d="M 17.99,34.975 C 14.8,34.99 10.67,33.33 9,32.49 C 10.83,34.49 16,38.37 22,37.97 C 29.5,37.47 32.5,34.99 37,34.99 C 40.6,34.99 45.17,35.99 47,36.48 C 44,34.98 40,32 34,32 C 30,32 22,34.99 18,34.99 Z" fill="rgb(1, 145, 205)"/>
</svg>
