<?xml version="1.0" encoding="UTF-8"?>
<!-- generated by Finnhub -->
<svg viewBox="0 0 55.5 55.5" xmlns="http://www.w3.org/2000/svg">
<path d="M 0,0 H 55.5 V 55.5 H 0 Z" fill="rgb(239, 242, 248)"/>
<path d="M 28.0,14.315 C 27.23,14.33 26.45,14.39 25.71,14.53 L 24.63,11.33 A 17,17 0 1,1 12.3,21.5 L 10,20.36 L 14.55,17.65 L 14.59,17.59 L 17,16.16 V 23.86 L 15.3,23 A 13.67,13.67 0 1,0 28.02,14.33 Z" fill="rgb(24, 51, 99)"/>
<path d="M 19.889999999999997,32.464999999999996 L 27.26,36.25 L 34.56,32.88 V 28.89 L 37.14,27.25 L 34.26,23.55 L 27.26,19.86 L 20.11,23.37 L 17.71,27.3 L 19.91,28.31 V 32.48 Z"/>
<path d="M 20.389999999999997,23.835 L 18.4,27.17 L 25.6,30.39 L 26.85,27.41 L 20.41,23.85 Z" fill="rgb(192, 106, 46)"/>
<path d="M 26.959999999999997,35.575 V 28.44 L 25.9,31.03 L 20.37,28.57 V 32.23 L 26.97,35.59 Z M 34.1,24.1 L 36.46,27.08 L 30.21,31.18 L 27.5,27.68 L 34.1,24.09 Z" fill="rgb(192, 106, 46)"/>
<path d="M 27.49,35.575 V 28.44 L 30.21,31.71 L 34.1,29.22 V 32.67 L 27.5,35.59 Z" fill="rgb(192, 106, 46)"/>
<path d="M 25.54,21.195 L 20.9,23.55 L 25.55,26.13 V 21.22 Z M 27.3,20.3 L 25.93,21.02 V 26.3 L 27.41,27.2 L 33.71,23.73 L 27.3,20.29 Z" fill="rgb(112, 54, 16)"/>
</svg>
