<?xml version="1.0" encoding="UTF-8"?>
<!-- generated by Finnhub -->
<svg viewBox="0 0 55.5 55.5" xmlns="http://www.w3.org/2000/svg">
<path d="M 0,0 H 55.5 V 55.5 H 0 Z" fill="url(#a)"/>
<path d="M 38.42,29.985 C 38.22,30 38,29.78 38,29.5 S 38.22,29 38.43,29 H 42.56 C 42.76,29 43,29.22 43,29.5 S 42.77,30 42.56,30 H 38.43 Z" fill="rgb(241, 88, 24)"/>
<path d="M 38.43,26.485 C 38.23,26.5 38,26.28 38,26 S 38.23,25.5 38.44,25.5 H 42.55 C 42.75,25.5 43,25.72 43,26 S 42.76,26.5 42.55,26.5 H 38.44 Z" fill="rgb(242, 159, 13)"/>
<path d="M 38.440000000000005,22.985 C 38.24,23 38,22.78 38,22.5 S 38.24,22 38.45,22 H 42.55 C 42.75,22 43,22.22 43,22.5 S 42.75,23 42.54,23 H 38.44 Z" fill="rgb(250, 193, 6)"/>
<path d="M 9.97,23.634999999999998 A 3.13,3.13 0 0,0 8.07,23 C 6.51,23 5,24.03 5,26 C 5,27.57 6.03,29 8.07,29 C 8.77,29 9.65,28.73 10,28.36 V 26.5 H 7.74 C 7.51,26.5 7.28,26.22 7.28,26 C 7.28,25.78 7.51,25.5 7.74,25.5 H 10.59 C 10.82,25.5 11,25.66 11,25.88 V 28.62 A 0.4,0.4 0 0,1 10.95,28.82 L 10.85,28.94 L 10.75,29.02 C 10.01,29.66 9.07,30 8.08,30 A 4.01,4.01 0 0,1 4,26 A 3.9,3.9 0 0,1 5.25,23.1 A 4.2,4.2 0 0,1 8.07,22 C 9.11,22 10.07,22.39 10.83,23.12 C 10.91,23.2 10.99,23.31 10.99,23.38 C 10.99,23.6 10.86,23.93 10.49,23.93 C 10.31,23.93 10.15,23.79 9.99,23.65 Z M 16,23 A 2.96,2.96 0 0,0 13,26 C 13,27.76 14.48,29 16,29 A 3,3 0 0,0 19,26 A 2.98,2.98 0 0,0 16,23 Z M 15.95,30 A 3.97,3.97 0 0,1 12,26 A 4.01,4.01 0 0,1 15.95,22 H 16 A 3.97,3.97 0 0,1 20,26 A 4,4 0 0,1 16.09,30 H 15.95 Z M 22,29.58 C 22,29.81 22.18,30 22.41,30 H 26.59 C 26.82,30 27,29.73 27,29.5 C 27,29.27 26.82,29 26.59,29 H 23 V 22.42 C 23,22.19 22.73,22 22.5,22 C 22.27,22 22,22.19 22,22.42 V 29.58 Z M 30,29 H 32.44 C 34.04,29 35,27.83 35,26 C 35,24.43 34.15,23 32.44,23 H 30 V 29 Z M 29.4,30 A 0.4,0.4 0 0,1 29,29.58 V 22.4 C 29.01,22.18 29.18,22 29.4,22 H 32.44 A 3.39,3.39 0 0,1 35.24,23.48 A 4.63,4.63 0 0,1 36,26 C 36,28.28 34.47,30 32.44,30 H 29.4 Z M 46,23.87 L 51.25,29.85 A 0.42,0.42 0 0,0 52,29.6 V 22.42 C 52,22.19 51.73,22 51.5,22 C 51.27,22 51,22.19 51,22.42 V 28.08 L 45.75,22.16 C 45.63,22.06 45.52,21.99 45.39,22 C 45.19,22.03 45.02,22.2 45,22.4 V 29.58 C 45,29.81 45.27,30 45.5,30 C 45.73,30 46,29.81 46,29.58 V 23.87 Z M 4.14,32.5 H 51.86 C 51.94,32.5 52,32.39 52,32.25 S 51.94,32 51.86,32 H 4.14 C 4.06,32 4,32.11 4,32.25 S 4.06,32.5 4.14,32.5 Z M 9.9,34 V 36 H 11.16 V 35.73 H 10.19 V 35.13 H 11.02 V 34.86 H 10.19 V 34.27 H 11.16 V 34 H 9.9 Z M 14.03,36 L 13.11,34.6 V 36 H 12.81 V 34 H 13.09 L 14,35.4 V 34 H 14.3 V 36 H 14.03 Z M 16.76,36 V 34.27 H 17.3 V 34 H 15.91 V 34.27 H 16.46 V 36 H 16.76 Z M 18.9,36 V 34 H 20.17 V 34.27 H 19.2 V 34.86 H 20.03 V 35.13 H 19.2 V 35.73 H 20.17 V 36 H 18.9 Z M 22.15,34.27 H 22.59 C 22.79,34.27 22.93,34.39 22.93,34.59 S 22.79,34.89 22.59,34.89 H 22.15 V 34.27 Z M 22.52,35.16 L 22.94,36 H 23.29 L 22.84,35.12 C 23.06,35.05 23.24,34.87 23.24,34.58 C 23.24,34.24 22.99,34 22.62,34 H 21.85 V 36 H 22.15 V 35.16 H 22.52 Z M 25.62,34.27 V 36 H 25.32 V 34.27 H 24.77 V 34 H 26.16 V 34.27 H 25.61 Z M 27.98,35.34 L 28.28,34.45 L 28.58,35.34 H 27.98 Z M 28.67,35.6 L 28.81,36 H 29.13 L 28.4,34 H 28.16 L 27.43,36 H 27.75 L 27.89,35.6 H 28.67 Z M 30.62,34 H 30.92 V 36 H 30.62 V 34 Z M 33.16,34.6 L 34.08,36 H 34.36 V 34 H 34.06 V 35.4 L 33.14,34 H 32.86 V 36 H 33.16 V 34.6 Z M 37.45,36 V 34.66 L 36.99,35.64 H 36.77 L 36.3,34.66 V 36 H 36 V 34 H 36.3 L 36.88,35.24 L 37.45,34 H 37.75 V 36 H 37.45 Z M 39.5,34 V 36 H 40.76 V 35.73 H 39.8 V 35.13 H 40.62 V 34.86 H 39.8 V 34.27 H 40.76 V 34 H 39.5 Z M 43.66,36 L 42.74,34.6 V 36 H 42.44 V 34 H 42.72 L 43.63,35.4 V 34 H 43.93 V 36 H 43.66 Z M 46.3,36 V 34.27 H 46.85 V 34 H 45.45 V 34.27 H 46 V 36 H 46.3 Z" fill="rgb(254, 254, 253)"/>
<defs>
<linearGradient id="a" x1="10.42" x2="68.15" y1="9.71" y2="76.02" gradientUnits="userSpaceOnUse">
<stop stop-color="rgb(25, 29, 31)" offset="0"/>
<stop stop-color="rgb(5, 5, 8)" offset="1"/>
</linearGradient>
</defs>
</svg>
