<?xml version="1.0" encoding="UTF-8"?>
<!-- generated by Finnhub -->
<svg viewBox="0 0 55.5 55.5" xmlns="http://www.w3.org/2000/svg">
<path d="M 0,0 H 55.5 V 55.5 H 0 Z" fill="rgb(188, 26, 31)"/>
<path d="M 15.99,33.728 V 21.273 S 15.973,21.09 16.27,20.921 C 17.188,20.398 20.152,18.711 20.5,18.5 C 20.666,18.4 21,18.276 21,18 V 14.5 S 21,14.197 20.5,14.465 C 19.5,15 13.918,18.291 13.5,18.5 C 13.082,18.709 13,18.805 13,19 V 35.5 C 13,36 13.127,36.273 13.5,36.5 C 16.761,38.48 19.433,40.091 20.5,40.734 C 21,41 21,40.658 21,40.658 V 20.746 S 21,20.392 20.582,20.643 C 20.143,20.906 19.378,21.363 18.373,21.947 C 17.933,22.203 18,22.423 18,22.423 V 34.786 S 18.037,35.016 17.75,34.892 C 17.465,34.769 16.268,34.136 16.268,34.136 S 16,34 16,33.743 Z M 23,17 V 13.5 C 23,13.083 22.99,12.982 23.24,12.863 C 23.374,12.799 25.5,11.5 27.767,10.133 C 27.981,10.005 28.223,10.133 28.223,10.133 L 32.773,12.863 S 33,13 33,13.367 V 41.5 C 33,41.914 33.11,42.052 32.5,42.434 C 32.185,42.631 28.5,44.699 28.41,44.753 C 28.061,44.963 28.032,44.95 27.675,44.753 C 24.5,43 24.5,43 23.5,42.434 C 22.921,42.106 23,42 23,41.5 V 20 C 23,19.6 22.946,19.47 23.312,19.242 C 24.5,18.5 24.5,18.5 26.5,17.122 C 26.785,16.925 27,17.074 27,17.5 V 40.215 C 27,41.035 28.98,41.172 28.98,40.215 L 29,14.785 C 29,14.375 28.27,14.101 28,14.238 C 27.764,14.358 24.117,16.568 23.206,17.121 C 23,17.246 23,17 23,17 Z M 35,23.694 V 14.309 S 35,14.102 35.346,14.309 C 36.706,15.125 41.674,18.103 42.754,18.739 A 0.513,0.513 0 0,1 43,19.155 V 22.733 S 43,23.001 42.664,22.777 C 41.988,22.326 39.286,20.643 38.334,20.051 C 38,19.844 38,20 38,20.5 V 21.5 C 38,22 37.984,22.024 38.374,22.255 C 39.258,22.777 42.664,25.159 42.664,25.159 S 43,25.369 43,25.619 V 36 S 43,36.281 42.782,36.377 C 42.766,36.384 37.217,39.61 35.5,40.607 C 35,40.898 35,40.5 35,40.5 V 27 C 35,26.5 35.296,26.706 35.296,26.706 L 37.719,28.398 S 38,28.592 38,28.832 V 34.5 C 38,35 38.284,34.858 38.284,34.858 L 39.688,34.156 S 40,34 40,33.5 V 27.5 C 40,27.322 39.732,27.183 39.732,27.183 L 35.332,24.223 S 35,24 35,23.692 Z" fill="rgb(254, 254, 253)"/>
</svg>
