<?xml version="1.0" encoding="UTF-8"?>
<!-- generated by Finnhub -->
<svg viewBox="0 0 55.5 55.5" xmlns="http://www.w3.org/2000/svg">
<path d="M 0,0 H 55.5 V 55.5 H 0 Z" fill="rgb(239, 242, 248)"/>
<path d="M 41.14,30.985 C 41.34,32.98 41.3,35 41.01,36.96 C 37.73,40.62 26.41,42.43 19.21,41.91 A 9.82,9.82 0 0,1 17.44,36.93 C 26.58,38.62 36.35,35.88 41.14,31 Z" fill="rgb(233, 90, 35)"/>
<path d="M 43.690000000000005,26.945 C 42,19.1 33.03,11.68 26.86,11 C 26.36,11.31 25.95,11.7 25.61,12.15 C 29.21,12.48 32.33,14.83 35.93,18.6 C 38.73,21.53 40.6,26.22 41.06,31.15 C 41.24,33.1 41.2,35.09 40.92,37.03 A 10.88,10.88 0 0,0 43.7,26.96 Z" fill="rgb(241, 144, 2)"/>
<path d="M 33.56,32.655 L 33.27,32.6 C 31.67,31.94 30.04,30.41 28.62,28.46 C 33.41,22.84 30.76,18.58 27.41,17.71 C 26.41,17.42 25.35,17.49 24.41,17.89 A 8.44,8.44 0 0,1 27.45,17.05 C 29.95,16.92 32.57,17.59 34.25,19.99 C 36.39,23.29 35.96,29.24 33.57,32.67 Z" fill="rgb(1, 104, 177)"/>
<path d="M 27.939999999999998,17.025 C 27.11,17.77 25.84,18.86 24.96,19.79 C 24.76,19.01 24.67,18.1 24.59,17.35 C 24.59,17.33 24.6,17.33 24.61,17.33 C 25.96,17.03 26.96,17.03 27.95,17.03 Z M 17.57,36.97 C 17.27,33.19 18.87,29.06 21.18,25.37 C 20.98,23.62 20.92,21.88 20.93,20.33 C 17.14,23.76 12.6,30.39 12.06,35.39 C 11.76,37.99 12.58,40.15 15.15,41.19 C 16.23,41.56 17.68,41.81 19.37,41.92 A 9.65,9.65 0 0,1 17.57,36.97 Z" fill="rgb(168, 169, 2)"/>
<path d="M 33.47,32.335 C 31.89,31.69 30.28,30.19 28.89,28.25 A 24.34,24.34 0 0,1 25.12,20.17 C 24.92,19.37 24.76,18.55 24.68,17.78 C 24.45,15.58 24.75,13.58 25.79,12.2 C 26.13,11.75 26.55,11.36 27.06,11.05 C 25.18,10.85 23.56,11.25 22.49,12.45 C 21.67,13.35 21.16,14.7 21.09,16.59 A 40.93,40.93 0 0,0 21.09,25.48 C 21.84,31.98 24.46,38.45 31.66,34.42 A 6.5,6.5 0 0,0 33.78,32.42 L 33.48,32.35 Z" fill="rgb(97, 183, 230)"/>
</svg>
