<?xml version="1.0" encoding="UTF-8"?>
<!-- generated by Finnhub -->
<svg viewBox="0 0 55.5 55.5" xmlns="http://www.w3.org/2000/svg">
<path d="M 0,0 H 55.5 V 55.5 H 0 Z" fill="rgb(1, 108, 86)"/>
<path d="M 12.136000000000001,21.995 A 6.584,6.584 0 0,0 8.446,23.447 A 9.47,9.47 0 0,0 7.874,23.989 A 6.09,6.09 0 0,0 6.662,25.714 A 6.414,6.414 0 0,0 6.052,27.73 C 5.972,28.298 5.986,29.293 6.082,29.817 C 6.416,31.633 7.398,33.17 8.864,34.171 A 6.368,6.368 0 0,0 11.381,35.21 C 11.838,35.301 12.831,35.322 13.353,35.254 A 6.438,6.438 0 0,0 16.101,34.209 C 16.514,33.929 16.754,33.729 17.114,33.364 C 17.386,33.091 17.5,33 17.5,33 L 17.198,35 H 19.103 L 19.71,28 H 14 V 30 H 16.45 A 3.993,3.993 0 0,1 15.275,31.854 A 4.231,4.231 0 0,1 13.215,32.867 A 4.915,4.915 0 0,1 11.82,32.87 A 4.336,4.336 0 0,1 10.068,32.122 A 5.373,5.373 0 0,1 9.066,31.082 A 4.77,4.77 0 0,1 8.402,29.49 C 8.362,29.296 8.35,29.117 8.353,28.613 C 8.353,27.998 8.356,27.971 8.449,27.627 C 8.668,26.797 9.02,26.179 9.612,25.593 A 4.022,4.022 0 0,1 12.507,24.395 C 13.004,24.395 13.359,24.454 13.824,24.61 A 4.022,4.022 0 0,1 15.466,25.64 C 15.784,25.967 16.012,26.282 16.222,26.688 L 16.372,26.979 L 16.54,26.626 C 16.63,26.432 16.898,25.864 17.138,25.36 L 17.568,24.45 L 17.458,24.315 A 8.903,8.903 0 0,0 16.612,23.479 A 6.502,6.502 0 0,0 12.146,22.011 Z" fill="rgb(254, 254, 253)"/>
<path d="M 18.49,21.985 S 18.304,24.433 18.162,26.106 A 74.8,74.8 0 0,0 18.106,26.788 C 18.09,26.971 18.07,27.177 18.062,27.243 L 18.048,27.368 H 19.216 C 19.861,27.368 20.386,27.365 20.386,27.359 L 20.453,26.643 C 20.493,26.251 20.551,25.625 20.584,25.251 C 20.62,24.877 20.708,24 20.708,24 H 22.046 C 23.467,24.012 23.708,24.245 23.796,24.29 C 24.371,24.595 24.539,25.915 24.191,26.637 C 24.033,26.967 23.5,28 23,28 H 20.415 L 20.345,28.95 C 20.306,29.48 20.281,30 20.281,30 H 21.438 C 21.452,30.02 21.944,30.868 22.528,32.289 L 23.591,35 H 26.508 S 25.617,33.085 25.148,32.138 C 24.186,30.195 23.891,29.586 23.891,29.558 C 23.891,29.54 24.058,29.47 24.261,29.398 C 24.917,29.168 25.357,28.908 25.754,28.508 C 26.23,28.035 26.552,27.365 26.686,26.568 C 27.042,24.445 26.32,22.618 24.563,22.139 C 24.339,22.079 23.493,22.02 22.5,22 C 20.732,21.964 18.5,22 18.5,22 Z M 26.723,35 H 34.507 L 34.785,33 H 29.254 L 29.699,29 H 34.499 L 34.889,27 H 29.882 L 30.178,24 H 35.651 L 35.911,22 H 28.001 L 26.723,35 Z M 37.166,22.012 L 35.912,35 H 38.362 L 39.651,22 L 37.166,22.012 Z M 40.472,22 L 39.235,35 H 41.645 L 42.156,29 H 47.11 L 47.402,26.991 L 42.383,27 L 42.696,24 H 48.097 L 48.375,22 H 40.472 Z" fill="rgb(254, 254, 253)"/>
</svg>
