<?xml version="1.0" encoding="UTF-8"?>
<!-- generated by Finnhub -->
<svg viewBox="0 0 55.5 55.5" xmlns="http://www.w3.org/2000/svg">
<rect width="56" height="56" fill="rgb(239, 242, 248)"/>
<path d="M 41.113,26.985 C 41.0339,26.6911 41.0451,26.3975 40.9656,26.3975 C 40.9265,26.3975 40.9153,26.414 40.907,26.4224 C 40.6498,26.7411 40.4431,27 39.7502,27 C 39.0703,27 38.5268,26.6818 38.5268,26.0709 C 38.5268,25.3429 39.6425,25.0418 40.3042,24.7742 C 40.8666,24.5483 41,24.5307 41,23.9883 C 41,23.5695 40.8178,23.2516 40.2353,23.2516 C 39.296,23.2516 39.6639,24 39.0215,24 C 38.8057,24 38.6566,23.8964 38.6566,23.6959 C 38.6566,23.1269 39.6717,23 40.4331,23 C 41.133,23 41.7376,23.1348 41.7376,23.678 V 25.5204 C 41.7376,26.0125 41.7056,26.6564 42.0121,27 H 41.123 Z M 40.116,26.5309 C 40.7091,26.5309 41,26.0796 41,25.6024 V 24.758 L 40.4722,24.9831 C 39.7419,25.2937 39.3559,25.4603 39.3559,25.9373 C 39.3559,26.3391 39.6717,26.5309 40.116,26.5309 Z" fill="rgb(18, 31, 136)"/>
<path d="M 32.377,33.985 C 32.2979,33.6911 32.3091,33.3975 32.2296,33.3975 C 32.1905,33.3975 32.1793,33.414 32.1709,33.4224 C 31.9138,33.7411 31.707,34 31.0142,34 C 30.3342,34 29.7908,33.6818 29.7908,33.0709 C 29.7908,32.3429 30.9065,32.0418 31.5682,31.7742 C 32.1305,31.5483 32.264,31.5307 32.264,30.9883 C 32.264,30.5695 32.0818,30.2516 31.4993,30.2516 C 30.5599,30.2516 30.9279,31 30.2854,31 C 30.0697,31 29.9206,30.8964 29.9206,30.6959 C 29.9206,30.1269 30.9357,30 31.6971,30 C 32.3969,30 33.0016,30.1348 33.0016,30.678 V 32.5204 C 33.0016,33.0125 32.9695,33.6564 33.276,34 H 32.387 Z M 31.38,33.5309 C 31.9731,33.5309 32.264,33.0796 32.264,32.6024 V 31.758 L 31.7362,31.9831 C 31.0059,32.2937 30.6199,32.4603 30.6199,32.9373 C 30.6199,33.3391 30.9357,33.5309 31.38,33.5309 Z" fill="rgb(18, 31, 136)"/>
<path d="M 43.730000000000004,25.953 V 23.3745 C 44.1937,23.3239 44.6332,23.2675 44.8221,22.9995 C 44.4736,23.0273 44.1078,22.9917 43.74,22.9995 V 21.9988 L 43.0004,22.1637 V 22.9965 L 42.5465,22.9971 V 23.4133 L 43.0004,23.4125 V 26.0977 C 43.0004,26.6267 43.2473,26.9995 43.8968,26.9995 C 44.2729,26.9995 44.7371,26.7393 44.7467,26.6615 L 44.7865,26.2893 C 44.6784,26.3845 44.3623,26.4965 44.1853,26.4965 C 43.7894,26.4965 43.74,26.2539 43.74,25.968 Z" fill="rgb(18, 31, 136)"/>
<path d="M 38.731,32.953 V 30.3745 C 39.1947,30.3239 39.6342,30.2675 39.823,29.9995 C 39.4745,30.0273 39.1087,29.9917 38.741,29.9995 V 28.9988 L 38.0014,29.1637 V 29.9965 L 37.5474,29.9971 V 30.4133 L 38.0014,30.4125 V 33.0977 C 38.0014,33.6267 38.2482,33.9995 38.8978,33.9995 C 39.2738,33.9995 39.7381,33.7393 39.7477,33.6615 L 39.7874,33.2893 C 39.6794,33.3845 39.3633,33.4965 39.1863,33.4965 C 38.7904,33.4965 38.741,33.2539 38.741,32.968 Z" fill="rgb(18, 31, 136)"/>
<path d="M 30.381999999999998,22.051 C 29.7203,21.5734 29.1567,21.3935 28.3966,21.3935 C 26.8664,21.3935 26.0002,22.5669 26.0002,23.8744 C 26.0002,25.5309 26.8468,26.6058 28.7518,26.6058 C 29.0083,26.6058 29.2369,26.5792 29.4834,26.5433 C 29.5818,26.2384 29.5818,25.925 29.5818,25.6207 V 25.1814 C 29.5818,24.889 29.5789,24.5619 29.4988,24.2886 C 29.4472,24.119 29.2731,24.1104 29.0307,24.0003 H 30.468 L 30.4709,26.0777 C 30.4709,26.3096 30.5,26.6325 30.5398,26.857 C 29.9371,26.9461 29.1282,27.0003 28.4354,27.0003 C 26.3534,27.0003 25.0002,26.1671 25.0002,24.1531 C 25.0002,21.9849 26.6888,21.0003 28.9009,21.0003 C 29.3943,21.0003 29.889,21.0632 30.392,21.0988 V 22.066 Z" fill="rgb(18, 31, 136)"/>
<path d="M 31.988,24.509 C 31.998,23.909 31.998,23.1818 31.74,23.0001 H 32.5694 C 32.7476,23.0001 32.6389,23.5196 32.7476,23.5196 C 32.7973,23.5196 33.1224,23.0001 33.7049,23.0001 C 34.0521,23.0001 34.2486,23.1225 34.2486,23.329 C 34.2486,23.4936 34.1483,23.6154 33.903,23.6154 C 33.7148,23.6154 33.5183,23.5891 33.2814,23.5891 C 32.7874,23.5891 32.728,23.8922 32.728,24.2729 V 26.0559 C 32.728,26.3759 32.728,26.7487 32.9066,27.0001 H 31.8195 C 31.998,26.7487 31.998,26.3759 31.998,26.0559 V 24.524 Z" fill="rgb(18, 31, 136)"/>
<path d="M 44.625,31.509 C 44.635,30.909 44.635,30.1818 44.3769,30.0001 H 45.2063 C 45.3846,30.0001 45.2759,30.5196 45.3846,30.5196 C 45.4343,30.5196 45.7594,30.0001 46.3419,30.0001 C 46.6891,30.0001 46.8856,30.1225 46.8856,30.329 C 46.8856,30.4936 46.7853,30.6154 46.54,30.6154 C 46.3518,30.6154 46.1553,30.5891 45.9184,30.5891 C 45.4243,30.5891 45.365,30.8922 45.365,31.2729 V 33.0559 C 45.365,33.3759 45.365,33.7487 45.5436,34.0001 H 44.4564 C 44.635,33.7487 44.635,33.3759 44.635,33.0559 V 31.524 Z" fill="rgb(18, 31, 136)"/>
<path d="M 35.278,24.441 C 35.2685,24.6159 35.2489,24.749 35.2489,24.9252 C 35.2489,25.703 35.6644,26.4479 36.69,26.4479 C 37.1744,26.4479 37.6489,26.2804 37.8865,26.0547 V 26.1467 C 37.8865,26.5899 37.0558,26.9998 36.3261,26.9998 C 35.0316,26.9998 34.4199,26.0123 34.4199,24.9998 C 34.4199,23.9127 35.13,22.9998 36.4839,22.9998 C 37.4312,22.9998 37.9929,23.5277 37.9929,24.0721 C 37.9929,24.456 37.6682,24.456 37.0558,24.456 H 35.288 Z M 36.3778,24.2052 C 36.8615,24.2052 37.1187,24.2052 37.1187,23.887 C 37.1187,23.5772 36.8522,23.2512 36.3681,23.2512 C 35.7452,23.2512 35.4791,23.7617 35.3605,24.2052 H 36.3778 Z" fill="rgb(18, 31, 136)"/>
<path d="M 41.128,31.441 C 41.1185,31.6159 41.0989,31.749 41.0989,31.9252 C 41.0989,32.703 41.5144,33.4479 42.54,33.4479 C 43.0244,33.4479 43.4989,33.2804 43.7365,33.0547 V 33.1467 C 43.7365,33.5899 42.9058,33.9998 42.1761,33.9998 C 40.8815,33.9998 40.2698,33.0123 40.2698,31.9998 C 40.2698,30.9127 40.98,29.9998 42.3338,29.9998 C 43.2812,29.9998 43.8429,30.5277 43.8429,31.0721 C 43.8429,31.456 43.5181,31.456 42.9058,31.456 H 41.138 Z M 42.2277,31.2052 C 42.7115,31.2052 42.9686,31.2052 42.9686,30.887 C 42.9686,30.5772 42.7022,30.2512 42.2181,30.2512 C 41.5952,30.2512 41.3291,30.7617 41.2105,31.2052 H 42.2277 Z" fill="rgb(18, 31, 136)"/>
<path d="M 26.500999999999998,33.608 H 27.6932 C 28.3398,33.623 29.008,33.4816 29.4978,33.0869 L 29.3108,33.9526 C 29.028,33.9712 28.6842,33.9991 28.3086,33.9991 H 25.2678 C 25.4982,33.6795 25.511,33.1899 25.511,32.767 V 29.2323 C 25.511,28.8083 25.5293,28.3197 25.2993,28.0001 H 28.9654 L 29.008,28.7238 C 28.6416,28.4413 28.079,28.3766 27.4629,28.3766 H 26.511 V 30.5279 C 27.3134,30.5279 28.141,30.5279 28.9447,30.4616 C 28.5796,30.9977 27.3488,30.9977 26.7019,30.9977 H 26.511 V 33.623 Z" fill="rgb(18, 31, 136)"/>
<path d="M 37.051,32.788 C 37.061,33.5978 36.1537,34.0001 35.3135,34.0001 C 34.9178,34.0001 34.5831,33.9319 34.2173,33.8147 C 34.108,33.7812 34.0493,33.7479 34.0493,33.6311 C 34.0493,33.4306 34.0891,33.2291 34.099,33.0205 C 34.4062,33.4393 34.6514,33.6973 35.3038,33.6973 C 35.8864,33.6973 36.2313,33.4647 36.2313,32.9859 C 36.2313,31.9663 34.2766,32.1335 34.2766,30.8958 C 34.2766,30.2679 34.8508,30.0001 35.7777,30.0001 C 36.0729,30.0001 36.3801,30.042 36.6757,30.0999 C 36.7058,30.1091 36.8039,30.1259 36.8039,30.1751 C 36.8039,30.3264 36.7949,30.5687 36.7837,30.7451 C 36.399,30.3344 36.2018,30.2517 35.7469,30.2517 C 35.3622,30.2517 35.007,30.4013 35.007,30.7622 C 35.007,31.7566 37.061,31.6395 37.061,32.803" fill="rgb(18, 31, 136)"/>
<path d="M 48.274,29.985 V 30.3903 C 48.284,30.4589 48.2735,30.5281 48.3424,30.5281 C 48.4318,30.5281 48.8666,30 49.6363,30 C 50.3779,30 50.7468,30.3203 50.7468,31.1253 V 33.0648 C 50.7468,33.3863 50.8411,33.7578 50.9995,34 H 49.9995 V 31.6279 C 49.9995,31.0738 50.0217,30.4676 49.2317,30.4676 C 48.4511,30.4676 48.3036,31.0828 48.3036,31.6713 V 33.0648 C 48.3036,33.3863 48.3036,33.7578 48.4812,34 H 47.395 C 47.5733,33.7578 47.5733,33.3863 47.5733,33.0648 V 31.004 C 47.5733,30.6487 47.5733,30.1733 47.3655,30 H 48.284 Z" fill="rgb(18, 31, 136)"/>
<path d="M 19.218,24.846999999999998 S 19.2459,25.7764 20.654,25.2427 C 21.0396,25.0953 21.6221,24.9374 21.9311,25.0063 C 22.0413,25.0308 21.6862,24.7158 20.6889,25.099 C 19.6552,25.4965 19.228,24.862 19.228,24.862 Z M 22.6008,23.3343 S 22.7942,23.222 22.7763,22.8897 C 22.7673,22.7053 22.7734,22.5853 22.7734,22.5853 S 22.822,22.5782 22.889,22.5223 C 22.9642,22.4587 23.0087,22.3932 22.9572,22.288 C 22.8986,22.1688 22.8464,22.3243 22.6677,22.2898 C 22.4916,22.256 22.2011,22.3202 22.3132,22.3934 C 22.4198,22.461 22.6552,22.5855 22.6552,22.5855 S 22.6725,22.6547 22.6725,22.9129 C 22.6725,23.1704 22.6008,23.3343 22.6008,23.3343 Z M 20.8551,22.417 L 20.9582,22.1737 S 20.7661,22.0542 20.5336,22.0307 C 20.2671,22.0024 19.9411,22.1675 19.9411,22.1675 S 20.2415,22.1582 20.4692,22.2258 C 20.7219,22.3003 20.8292,22.4834 20.8292,22.4834 L 20.8551,22.417 Z M 19.4771,28.8437 C 19.6664,29.0823 20.3693,29.491 20.4305,29.0413 C 20.3693,29.3386 19.6776,28.8229 19.4797,28.493 C 19.2753,28.1511 19.2641,27.8473 19.1319,27.8104 C 19.0589,27.7899 18.7463,28.0847 18.7447,28.6516 C 18.9509,28.2612 19.0428,28.0847 19.1428,28.2882 C 19.2014,28.408 19.3407,28.6736 19.4771,28.8437 Z M 17.4877,28.5228 C 17.89,29.1695 18.4843,29.2042 18.5679,29.2042 C 18.4843,29.2042 17.7766,28.8759 17.4378,28.0558 C 17.2523,27.6056 17.2059,27.3452 17.2059,27.3452 C 17.016,27.2754 16.9645,28.1405 16.846,28.1405 C 16.7262,28.1405 16.388,27.8473 16.0623,27.1739 C 15.9377,26.921 15.9592,26.4385 15.9627,25.8027 C 15.7712,26.5784 15.808,26.9511 16.0204,27.5258 C 16.2087,28.0301 16.7954,28.5523 16.9142,28.5486 C 17.1313,28.5407 16.9971,27.8594 17.1864,27.928 C 17.1864,27.928 17.2274,28.1089 17.4877,28.5228 Z M 18.2233,22.0812 C 18.5333,22.012 18.795,22.2671 18.795,22.2671 S 18.6515,21.8513 18.1756,21.9211 C 17.7007,21.9903 17.5108,22.358 17.7257,22.7726 C 17.939,23.1878 18.32,23.1642 18.32,23.1642 S 18.32,23.6933 18.5096,23.9936 C 18.6989,24.2928 19.0079,24.5916 19.0079,24.5916 S 18.6515,23.9936 18.6047,23.7168 C 18.5567,23.4403 18.5567,23.0031 18.5567,23.0031 S 18.0808,22.9562 17.9639,22.7034 C 17.8442,22.4508 17.8304,22.1703 18.2233,22.0812 Z M 23.6566,32.8192 C 23.8215,33.0829 24.1306,33.5428 23.94,33.8308 C 23.7777,34.0002 22.4464,34.0002 22.4464,34.0002 H 21.2895 C 21.0631,34.0002 20.915,33.7506 20.7968,33.5657 C 20.6783,33.3829 20.654,33.3249 20.6658,33.0829 C 20.6783,32.8421 20.6421,32.9798 20.3581,32.3599 C 20.0727,31.7386 19.7762,31.4746 19.5744,31.3585 C 19.3727,31.2437 19.4082,31.1748 19.4316,31.1171 C 19.4563,31.0597 19.5383,30.9219 19.3484,30.4965 C 19.1597,30.0701 19.0175,29.9221 19.0175,29.9221 C 18.6723,30.2064 17.7593,30.4276 17.7593,30.4276 S 17.7593,30.6914 17.9255,31.4746 C 18.0683,32.1482 18.3396,32.727 18.4469,32.7719 C 18.5554,32.8191 18.9042,32.6208 19.1777,32.6283 C 19.6148,32.6397 19.6314,32.9743 19.7288,33.4053 C 19.823,33.8242 19.7288,33.9998 19.4316,33.9998 H 17.4657 C 16.9783,33.9768 17.0589,33.7627 16.8934,33.5778 C 16.7262,33.3931 16.7979,33.1294 16.7749,32.9919 C 16.7499,32.8535 16.2628,32.0269 16.1449,31.8541 C 16.0255,31.6809 15.8952,31.6809 15.777,31.5431 C 15.6585,31.405 15.7171,31.2437 15.7539,31.1171 C 15.7888,30.9902 15.7421,30.7379 15.7421,30.7379 S 15.3856,30.758 15.0295,30.758 C 14.6731,30.758 14.3535,30.7028 14.3535,30.7028 S 14.0083,31.0143 13.5231,31.1748 C 13.036,31.3367 12.5028,31.4385 12.3718,31.5093 C 12.2412,31.5775 12.3363,31.7265 12.4778,32.1522 C 12.621,32.5776 12.8698,32.8575 12.8698,32.8575 L 13.2259,32.7424 C 13.4744,32.6626 13.6903,32.6782 13.8072,32.7666 C 14.0355,32.9373 14.2116,33.4908 14.1863,33.7667 C 14.1649,34.0002 13.7639,34.0002 12.8224,34.0002 C 11.9525,34.0002 11.7429,33.9501 11.5882,33.9051 C 11.4351,33.8576 11.3627,33.6622 11.3502,33.5477 C 11.339,33.4329 11.4114,33.3984 11.1136,32.8352 C 10.817,32.2708 10.8526,32.1752 10.5916,32.0132 C 10.3312,31.854 10.3178,31.8748 10.2825,31.6809 C 10.2089,31.27 10.5205,31.2207 10.8407,31.082 C 11.161,30.9442 11.3153,30.5895 11.3153,30.5895 L 10.9951,30.6113 S 10.6742,31.0022 9.6895,31.2086 C 8.70379,31.4165 8.1219,31.5512 7.7136,31.8425 C 7.48847,32.0039 7.17463,32.8501 7.17463,32.8501 S 7.29312,32.793 7.57782,32.7114 C 7.86188,32.6322 7.92144,32.7114 8.15906,33.1495 C 8.39573,33.5852 8.28771,33.9928 7.84802,34.0043 H 6.65282 C 5.88833,34.0043 5.69221,34.0043 5.51192,33.8753 C 5.38094,33.741 5.41937,33.4794 5.42065,33.3068 C 5.42355,33.0828 5.57885,33.0006 5.69222,32.7821 C 5.76107,32.6484 5.98812,32.1891 6.13127,31.8999 C 6.36121,31.4345 6.39035,31.1431 6.42718,30.8753 C 6.44607,30.727 6.73557,30.5079 6.97224,30.5315 C 7.48175,30.5793 7.75587,30.1746 7.95795,29.922 C 8.15906,29.6685 8.38388,29.2897 8.38388,29.2897 S 7.41417,29.77 6.21968,29.4808 C 5.00598,29.1882 4.77408,28.108 5.19168,27.4623 C 5.53147,26.9351 6.37088,26.5773 7.19478,26.4665 C 8.1443,26.3387 8.72198,26.365 8.81678,26.1457 C 8.85905,26.0479 8.61886,25.6824 8.75112,25.2641 C 8.86961,24.8855 9.06016,24.7515 9.35799,24.4759 C 9.65453,24.1997 9.61995,23.9698 9.61995,23.9698 S 10.2713,25.1071 9.9149,25.7509 C 9.29682,26.8684 7.8852,26.7874 7.0666,26.9819 C 6.24837,27.1768 5.5855,27.6665 5.5954,28.1543 C 5.61204,29.0721 7.4858,29.2509 8.0161,28.6334 C 8.65659,27.8899 9.2049,27.1678 11.2915,27.0589 C 13.0478,26.9661 13.4743,27.1619 14.7928,26.2648 C 14.9442,26.1609 15.0794,26.0622 15.2004,25.9697 C 15.1643,25.7239 15.1726,25.4009 15.2776,24.9829 C 15.4371,24.3419 15.8243,23.7634 15.7753,23.7172 C 15.7282,23.6707 15.4678,23.9704 15.3961,23.8544 C 15.3244,23.7405 15.71,22.8468 16.0843,22.4276 C 16.7024,21.7372 17.3679,21.6673 17.4627,21.5532 C 17.5587,21.4371 17.013,21.5299 17.0825,21.4148 C 17.1543,21.299 17.6535,21.0002 18.7949,21.0002 C 20.0547,20.9996 19.7457,21.2308 20.1729,21.3226 C 20.5998,21.4148 21.0055,21.4833 21.2185,21.5532 C 21.4321,21.6218 21.5275,21.8287 21.6457,21.8979 C 21.7655,21.9671 21.835,21.9448 22.3118,21.9907 C 22.7874,22.0363 22.9962,22.1576 23.0154,22.2886 C 23.049,22.5086 23.0253,22.8654 22.9263,23.1354 C 22.8386,23.3781 22.5264,23.4175 22.5264,23.4175 S 22.1927,23.5096 21.597,23.3718 C 21.0055,23.2334 20.8147,23.2334 20.8147,23.8543 C 20.8147,24.4771 20.9568,24.4303 21.6694,24.4303 C 22.3835,24.4303 22.5491,24.1327 22.6676,24.1327 C 22.7874,24.1327 22.7874,24.2701 22.7874,24.4994 C 22.7874,24.73 22.7637,24.9609 22.6445,25.053 C 22.5264,25.1452 22.1331,25.0372 22.1331,25.0372 S 22.364,25.3475 22.4002,25.547 C 22.6125,26.7585 21.7626,27.5532 21.6444,27.5367 C 21.4465,27.5085 21.4747,26.6886 21.2489,26.8531 C 21.1487,26.9264 21.2489,27.4178 20.9492,27.8579 L 21.0187,28.4034 S 21.1765,29.8059 21.5791,31.0819 C 21.9839,32.3597 22.3752,32.6344 22.4572,32.761 C 22.5408,32.8879 22.7656,32.7153 23.0865,32.6229 C 23.4067,32.531 23.4903,32.5548 23.6565,32.8192 Z" fill="rgb(226, 28, 24)"/>
<path d="M 21.462999999999997,24.017 S 21.6708,23.6546 22.0276,23.6031 C 22.3841,23.5512 22.7147,23.6922 23.0266,23.5978 C 23.2289,23.5358 23.3828,23.4483 23.3828,23.4483 S 23.2456,23.7742 23.0449,23.9287 C 22.7772,24.135 22.5258,24.1042 22.0094,23.9805 C 21.7231,23.9118 21.473,24.0318 21.473,24.0318" fill="rgb(226, 28, 24)"/>
</svg>
