<?xml version="1.0" encoding="UTF-8"?>
<!-- generated by Finnhub -->
<svg viewBox="0 0 55.5 55.5" xmlns="http://www.w3.org/2000/svg">
<path d="M 0,0 H 55.5 V 55.5 H 0 Z" fill="rgb(239, 242, 248)"/>
<path d="M 12.702,35.071 C 16.762,36.758 24.566,38.34 28.057,38.9 C 34.067,38.033 40.517,36.19 43.299,35.123 C 47.121,33.383 47.342,31.267 47.47,30.048 L 47.474,30.013 S 47.884,25.688 47.996,22.945 C 48.107,20.202 45.871,20.023 43.92,20.023 L 28.057,19.097 C 23.545,19.341 13.811,19.88 10.972,20.077 C 8.132,20.272 7.89,22.099 8.03,23.369 L 8.51,29.62 C 8.705,32.867 10.879,34.33 12.712,35.086 Z" fill="url(#z)" stroke="rgb(7, 2, 2)" stroke-width=".2"/>
<path d="M 28.029999999999998,29.583 L 10.267,27.92 C 10.267,28.177 10.304,29.017 10.45,30.32 S 12.077,32.655 12.799,33.008 C 15.309,34.49 24.006,36.169 28.039,36.824 C 32.491,36.327 39.968,34.436 43.062,33.157 C 45.204,32.151 45.737,30.375 45.736,29.613 L 45.859,27.923 L 28.039,29.598 Z" fill="url(#o)"/>
<path d="M 23.622999999999998,31.250999999999998 L 22.89,30.551 L 22.977,34.891 L 23.684,34.488 L 23.633,31.266 Z" fill="rgb(78, 78, 77)"/>
<path d="M 22.887999999999998,30.563 L 22.21,29.879 V 35.332 L 22.988,34.887 L 22.898,30.578 Z M 33.18,30.555 L 33.82,29.866 V 35.348 L 33.125,34.863 L 33.18,30.555 Z" fill="rgb(36, 36, 35)"/>
<path d="M 23.595,31.266 L 22.867,30.531 L 28.029,31.141 V 31.821 L 23.605,31.281 Z" fill="rgb(105, 103, 102)"/>
<path d="M 32.486000000000004,31.247 L 33.176,30.552 L 28.028,31.137 V 31.832 L 32.496,31.262 Z" fill="rgb(62, 57, 55)"/>
<path d="M 28.046999999999997,38.885 C 24.566,38.34 16.761,36.758 12.712,35.086 C 10.879,34.329 8.705,32.867 8.51,29.62 L 8.38,26.534 V 26.503 V 26.533 C 8.397,26.881 8.608,30.11 10.74,32.407 C 11.26,32.967 12.1,33.645 13.744,34.269 C 18.378,36.028 27.024,37.719 28.057,37.651 C 30.944,37.456 43.835,34.865 45.316,32.407 C 45.316,32.407 47.056,30.667 47.686,26.517 L 47.474,30.013 L 47.47,30.048 C 47.342,31.268 47.12,33.383 43.3,35.124 C 40.518,36.189 34.068,38.034 28.057,38.9 Z" fill="url(#h)"/>
<path d="M 9.452,23.807 C 9.45,22.772 10.116,22.33 10.451,22.239 C 10.021,22.646 9.947,23.239 9.964,23.485 C 10.085,25.513 10.351,29.694 10.451,30.195 C 10.56,30.742 10.524,31.907 13.711,33.46 C 16.261,34.703 24.352,36.233 28.078,36.843 C 30.728,36.648 41.19,34.302 43.483,32.934 C 45.404,31.789 45.711,30.333 45.733,29.637 L 46.127,23.539 C 46.127,22.707 45.777,22.326 45.603,22.239 A 1.493,1.493 0 0,1 46.652,23.822 C 46.6,25.223 46.423,28.487 46.127,30.332 C 45.831,32.179 44.543,33.187 43.937,33.46 C 39.593,35.748 31.554,37.202 28.078,37.642 C 19.514,36.476 13.88,34.368 12.134,33.46 C 10.482,32.55 10.039,30.996 10.024,30.333 C 9.842,28.6 9.474,24.871 9.462,23.822 Z" fill="url(#g)" stroke="rgb(239, 221, 176)" stroke-width=".2"/>
<path d="M 11.085,21.773 C 9.593,21.822 9.387,22.918 9.472,23.462 C 9.705,22.312 10.366,22.18 11.443,21.93 C 12.305,21.73 22.907,21.278 28.101,21.077 C 33.116,21.305 44.357,21.991 44.839,22.069 C 46.193,22.289 46.609,23.015 46.648,23.367 C 46.741,22.037 45.481,21.743 44.838,21.763 C 40.041,21.443 29.976,20.805 28.101,20.823 C 26.225,20.84 15.982,21.473 11.095,21.788 Z" fill="url(#f)"/>
<path d="M 10.588000000000001,26.458 L 10.141,26.859 L 9.968,23.612 C 10.01,22.291 10.368,22.057 11.771,21.872 C 13.174,21.687 25.808,21.046 28.031,20.957 C 29.81,20.885 40.14,21.666 45.083,22.065 C 46.095,22.13 46.2,23.283 46.127,23.852 L 45.916,26.86 L 45.5,26.445 L 45.69,23.66 C 45.599,22.922 45.596,22.489 44.62,22.26 C 43.776,22.064 38.55,21.814 36.043,21.668 C 35.858,21.631 35.45,21.512 35.281,21.512 C 35.113,21.512 34.591,21.576 34.344,21.576 C 31.04,21.221 24.544,21.334 21.797,21.546 C 21.642,21.526 21.227,21.526 20.785,21.578 C 20.343,21.63 19.998,21.64 19.885,21.695 C 18.455,21.76 12.803,22.054 11.519,22.25 C 10.493,22.407 10.355,23.175 10.415,23.54 L 10.598,26.473 Z" fill="rgb(64, 43, 17)"/>
<path d="M 10.97,22.761 L 10.802,22.529 C 10.444,22.728 10.366,23.229 10.413,23.621 L 10.59,26.489 L 11.038,25.944 L 10.979,22.776 Z M 45.113,22.805 L 45.32,22.539 C 45.679,22.739 45.738,23.372 45.71,23.633 L 45.505,26.51 L 45.057,25.965 L 45.113,22.805 Z" fill="rgb(34, 33, 32)"/>
<path d="M 12.206,22.125 C 11.462,22.225 11.017,22.335 10.802,22.534 L 10.985,22.804 L 19.16,22.356 L 19.876,21.809 L 19.947,21.608 C 17.684,21.75 12.97,22.055 12.217,22.14 Z" fill="rgb(27, 26, 25)"/>
<path d="M 43.869,22.133 C 44.633,22.234 44.891,22.285 45.329,22.543 L 45.113,22.824 L 36.941,22.379 L 36.218,21.83 L 36.148,21.63 C 38.41,21.771 43.125,22.063 43.878,22.148 Z" fill="rgb(40, 42, 41)"/>
<path d="M 19.622999999999998,26.997 L 19.888,21.785 L 19.158,22.342 L 18.969,26.407 L 19.633,27.012 Z" fill="rgb(34, 33, 32)"/>
<path d="M 36.432,27.005 L 36.206,21.807 L 36.946,22.332 L 37.126,26.428 L 36.442,27.021 Z" fill="rgb(40, 42, 41)"/>
<path d="M 19.642,26.995 L 10.602,26.465 L 11.038,25.908 L 18.969,26.406 L 19.652,27.01 Z" fill="rgb(27, 26, 25)"/>
<path d="M 36.42,26.997 L 45.493,26.487 L 45.057,25.93 L 37.126,26.427 L 36.43,27.012 Z" fill="rgb(56, 50, 47)"/>
<path d="M 11.393,23.096999999999998 L 10.967,22.768 L 11.031,25.953 L 11.484,25.403 L 11.403,23.112 Z M 44.691,23.133 L 45.127,22.79 L 45.059,25.98 L 44.574,25.402 L 44.691,23.133 Z" fill="rgb(78, 78, 77)"/>
<path d="M 19.169999999999998,22.333 L 10.969,22.793 L 11.403,23.123 L 18.38,22.851 L 19.18,22.348 Z M 36.949,22.364 L 45.137,22.793 L 44.691,23.145 L 37.715,22.873 L 36.949,22.363 Z" fill="rgb(86, 85, 84)"/>
<path d="M 18.967,26.410999999999998 L 19.157,22.354 L 18.38,22.84 L 18.238,25.79 L 11.486,25.4 L 11.031,25.93 L 18.977,26.426 Z" fill="rgb(19, 18, 17)"/>
<path d="M 18.38,22.825 L 11.39,23.105 L 11.477,25.41 L 18.247,25.8 L 18.391,22.84 Z" fill="url(#e)"/>
<path d="M 37.728,22.858 L 44.691,23.145 L 44.585,25.42 L 37.88,25.8 L 37.738,22.873 Z" fill="url(#d)"/>
<path d="M 17.65,23.203 L 11.592,23.348 L 11.686,24.806 L 17.566,25.079 L 17.661,23.219 Z" fill="url(#c)"/>
<path d="M 38.424,23.224999999999998 L 44.503,23.37 L 44.409,24.828 L 38.528,25.1 L 38.434,23.24 Z" fill="url(#b)"/>
<path d="M 37.752,22.855 L 36.934,22.343 L 37.114,26.442 L 37.884,25.789 L 37.762,22.87 Z" fill="rgb(19, 18, 17)"/>
<path d="M 44.583000000000006,25.398 L 37.875,25.781 L 37.105,26.441 L 45.038,25.933 L 44.593,25.413 Z" fill="rgb(36, 36, 35)"/>
<path d="M 20.043,21.612 L 19.879,21.676 L 19.634,27 L 19.894,27.33 L 20.053,21.627 Z" fill="rgb(68, 59, 28)"/>
<path d="M 20.767,21.441 C 20.732,21.456 20.262,21.588 20.043,21.652 L 19.906,27.33 L 20.777,27.535 C 20.797,25.509 20.823,21.456 20.777,21.456 Z" fill="url(#a)"/>
<path d="M 21.673,21.474999999999998 H 20.789 V 27.535 L 21.989,27.399 L 21.683,21.49 Z" fill="url(#y)"/>
<path d="M 21.843,21.578 L 21.672,21.488 L 21.988,27.41 L 22.34,27.182 L 21.853,21.592 Z" fill="rgb(68, 59, 28)"/>
<path d="M 34.388000000000005,21.493 L 34.223,21.578 L 33.75,27.176 L 34.133,27.402 L 34.398,21.508 Z" fill="rgb(103, 91, 76)"/>
<path d="M 35.32,21.458 L 34.388,21.517 L 34.135,27.403 L 35.331,27.525 V 21.473 Z" fill="url(#x)"/>
<path d="M 36.036,21.59 L 35.313,21.477 L 35.339,27.534 L 36.194,27.359 L 36.046,21.604 Z" fill="url(#w)"/>
<path d="M 36.209,21.704 C 36.226,21.656 36.085,21.625 36.035,21.602 L 36.195,27.367 L 36.453,26.997 L 36.219,21.719 Z" fill="rgb(103, 91, 76)"/>
<path d="M 28.008,21.134999999999998 L 21.734,21.524 L 21.854,21.605 V 21.735 L 28.064,21.485 L 34.232,21.75 L 34.262,21.586 L 34.366,21.524 L 28.018,21.15 Z" fill="rgb(4, 1, 2)"/>
<path d="M 28.049999999999997,21.456 L 21.863,21.734 L 22.547,22.199 L 28.06,22.004 V 21.471 Z" fill="rgb(0, 49, 120)"/>
<path d="M 28.029999999999998,21.458 L 34.244,21.736 L 33.572,22.181 L 28.039,21.996 V 21.473 Z M 22.55,22.189 L 21.865,21.734 L 22.332,27.187 L 22.977,26.543 L 22.551,22.189 Z" fill="rgb(1, 70, 155)"/>
<path d="M 33.548,22.169 L 34.215,21.744 L 33.765,27.204 L 33.113,26.554 L 33.558,22.184 Z" fill="rgb(1, 70, 155)"/>
<path d="M 23.307,22.633 L 22.546,22.184 L 22.98,26.566 L 23.596,25.91 L 23.317,22.648 Z" fill="rgb(1, 133, 207)"/>
<path d="M 32.782000000000004,22.628 L 33.563,22.179 L 33.133,26.579 L 32.496,25.926 L 32.792,22.643 Z" fill="rgb(1, 55, 146)"/>
<path d="M 28.032999999999998,21.974999999999998 L 22.523,22.184 L 23.305,22.642 L 28.043,22.481 V 21.989 Z" fill="rgb(1, 109, 186)"/>
<path d="M 28.017,21.969 L 33.602,22.172 L 32.801,22.664 L 28.027,22.484 V 21.984 Z" fill="rgb(1, 90, 170)"/>
<path d="M 28.035999999999998,22.462 L 23.311,22.643 L 23.603,25.905 L 28.046,26.135 V 22.477 Z" fill="url(#v)"/>
<path d="M 28.032999999999998,22.462 L 32.809,22.648 L 32.523,25.918 L 28.043,26.135 V 22.477 Z" fill="rgb(15, 145, 210)"/>
<path d="M 28.035999999999998,26.121 L 23.606,25.899 L 22.984,26.549 L 28.046,26.802 V 26.136 Z" fill="rgb(1, 55, 146)"/>
<path d="M 28.032999999999998,26.121 L 32.493,25.899 L 33.117,26.549 L 28.043,26.802 V 26.136 Z" fill="rgb(1, 49, 121)"/>
<path d="M 28.035999999999998,27.480999999999998 L 22.316,27.184 L 22.984,26.537 L 28.046,26.797 V 27.497 Z" fill="url(#u)"/>
<path d="M 28.032999999999998,27.489 L 33.789,27.184 L 33.115,26.537 L 28.043,26.797 V 27.504 Z" fill="url(#t)"/>
<path d="M 10.598,26.429 L 10.142,26.851 L 10.227,27.529 C 10.473,26.918 11.057,26.884 11.381,26.913 L 20.753,27.529 L 19.894,27.307 L 19.661,27.011 L 10.608,26.444 Z" fill="rgb(101, 80, 48)"/>
<path d="M 45.52,26.431 L 45.91,26.847 L 45.865,27.534 C 45.625,26.855 45.059,26.875 44.715,26.9 L 35.339,27.534 L 36.202,27.358 L 36.426,27.012 L 45.53,26.446 Z" fill="rgb(80, 64, 40)"/>
<path d="M 21.974999999999998,27.384999999999998 L 20.78,27.54 L 28.035,28.042 L 35.339,27.533 L 34.135,27.402 L 33.76,27.165 L 28.035,27.484 L 22.337,27.177 L 21.985,27.4 Z" fill="rgb(85, 68, 43)"/>
<path d="M 11.404,26.901 C 10.279,26.902 10.17,27.577 10.257,27.916 L 28.054,29.616 L 45.876,27.923 C 45.944,26.865 45.057,26.843 44.516,26.908 L 28.054,28.047 C 22.98,27.676 12.548,26.93 11.414,26.917 Z" fill="url(#s)"/>
<path d="M 19.772,29.567 L 10.649,28.492 L 11.289,29.066 L 19.309,30.082 L 19.782,29.582 Z" fill="rgb(1, 77, 128)"/>
<path d="M 36.224000000000004,29.555 L 45.4,28.46 L 44.775,29.017 L 36.754,30.059 L 36.235,29.569 Z" fill="rgb(1, 48, 81)"/>
<path d="M 12.678,32.375 C 10.896,31.376 10.582,29.368 10.648,28.492 L 11.262,29.037 C 11.438,30.387 11.677,31.255 13.527,32.227 C 15.007,33.004 18.247,33.97 19.687,34.345 L 20.207,34.76 V 34.902 L 20.158,34.889 C 17.538,34.18 14.304,33.305 12.688,32.39 Z M 43.36,32.36 C 45.151,31.346 45.466,29.338 45.399,28.461 L 44.786,29.006 C 44.609,30.357 44.386,31.246 42.536,32.218 C 41.055,32.995 37.801,33.94 36.36,34.315 L 35.841,34.73 V 34.872 L 35.89,34.859 C 38.51,34.15 41.743,33.275 43.36,32.359 Z" fill="rgb(1, 83, 165)"/>
<path d="M 13.616,32.275 C 15.156,33.07 18.322,34 19.704,34.358 L 18.816,33.465 C 15.516,32.651 13.998,32.027 13.454,31.698 C 12.178,30.968 11.834,30.013 11.822,29.626 L 11.262,29.036 C 11.409,30.429 11.712,31.316 13.626,32.29 Z M 42.46,32.276 C 40.93,33.056 37.742,33.974 36.36,34.332 L 37.242,33.461 C 40.542,32.647 42.05,31.997 42.594,31.668 C 43.87,30.938 44.214,29.982 44.225,29.596 L 44.793,29.008 C 44.646,30.402 44.373,31.301 42.46,32.276 Z" fill="rgb(1, 49, 121)"/>
<path d="M 19.674,34.348 L 19.293,30.083 L 19.77,29.57 L 20.2,34.757 L 19.684,34.363 Z M 36.387,34.3 L 36.755,30.052 L 36.276,29.596 L 35.847,34.727 L 36.387,34.301 Z" fill="rgb(5, 43, 133)"/>
<path d="M 19.27,30.055 L 11.262,29.04 L 11.81,29.626 L 18.52,30.711 L 19.28,30.071 Z M 36.725,30.047 L 44.797,29.007 L 44.237,29.596 L 37.555,30.702 L 36.725,30.047 Z" fill="rgb(1, 90, 170)"/>
<path d="M 19.685,34.333 L 19.289,30.043 L 18.508,30.699 L 18.778,33.474 L 19.695,34.348 Z M 36.371,34.316 L 36.742,30.052 L 37.54,30.669 L 37.27,33.444 L 36.371,34.316 Z" fill="rgb(1, 70, 155)"/>
<path d="M 14.507,32.19 C 12.387,31.453 11.825,30.14 11.809,29.613 L 18.508,30.691 L 18.802,33.475 C 17.729,33.223 16.744,32.991 14.517,32.205 Z" fill="url(#r)"/>
<path d="M 41.542,32.176 C 43.632,31.431 44.232,30.111 44.248,29.586 L 37.54,30.694 L 37.25,33.481 C 38.323,33.229 39.334,33.001 41.552,32.191 Z" fill="url(#q)"/>
<path d="M 19.942999999999998,29.512 L 19.758,29.582 L 20.198,34.859 L 20.378,35.106 L 19.953,29.527 Z" fill="rgb(52, 45, 21)"/>
<path d="M 20.775,29.512 H 19.953 L 20.369,35.097 L 21.125,35.458 L 20.785,29.528 Z" fill="url(#p)"/>
<path d="M 21.871,29.692999999999998 L 20.775,29.528 L 21.125,35.458 H 22.005 L 21.881,29.708 Z" fill="url(#n)"/>
<path d="M 22.201999999999998,29.845 L 21.872,29.71 L 21.992,35.457 L 22.242,35.324 L 22.212,29.86 Z" fill="rgb(52, 45, 21)"/>
<path d="M 36.046,29.509 L 36.306,29.604 L 35.848,34.871 L 35.663,35.125 L 36.056,29.524 Z M 34.17,29.698 L 33.82,29.851 V 35.344 L 34.028,35.487 L 34.169,29.698 Z" fill="rgb(63, 54, 44)"/>
<path d="M 35.265,29.512 L 34.179,29.708 L 34.028,35.496 H 34.898 L 35.275,29.527 Z" fill="url(#m)"/>
<path d="M 36.06,29.512 H 35.285 L 34.897,35.515 L 35.663,35.125 L 36.069,29.527 Z" fill="url(#l)"/>
<path d="M 28.022,30.442 L 22.187,29.863 L 22.867,30.574 L 28.032,31.152 V 30.457 Z" fill="url(#k)"/>
<path d="M 28.022,30.442 L 33.851,29.867 L 33.223,30.559 L 28.033,31.152 V 30.457 Z" fill="url(#j)"/>
<path d="M 33.18,30.52 L 32.487,31.252 L 32.428,34.488 L 33.141,34.884 L 33.191,30.535 Z"/>
<path d="M 28.046,36.311 L 22.196,35.324 L 22.984,34.871 L 28.056,35.668 V 36.326 Z" fill="rgb(62, 57, 55)"/>
<path d="M 28.029999999999998,36.302 L 33.826,35.347 L 33.15,34.865 L 28.04,35.66 V 36.317 Z"/>
<path d="M 23.666999999999998,34.453 L 22.954,34.881 L 28.036,35.685 V 35.141 L 23.676,34.469 Z" fill="rgb(36, 36, 35)"/>
<path d="M 32.428000000000004,34.464999999999996 L 28.027,35.14 V 35.685 L 33.157,34.871 L 32.437,34.481 Z" fill="rgb(36, 36, 35)"/>
<path d="M 28.008999999999997,31.785999999999998 L 23.604,31.264 L 23.666,34.468 L 28.019,35.158 L 32.441,34.48 L 32.496,31.242 L 28.019,31.802 Z" fill="url(#i)"/>
<path d="M 28.011,32.265 L 24.247,31.887 L 24.29,34.173 L 28.021,34.709 V 32.28 Z" fill="rgb(141, 148, 154)"/>
<path d="M 28.011,32.265 L 31.795,31.887 L 31.752,34.173 L 28.022,34.709 V 32.28 Z" fill="rgb(89, 87, 86)"/>
<defs>
<linearGradient id="z" x1="28" x2="28" y1="19.097" y2="35.773" gradientUnits="userSpaceOnUse">
<stop stop-color="rgb(253, 247, 234)" offset="0"/>
<stop stop-color="rgb(144, 109, 86)" offset="1"/>
</linearGradient>
<linearGradient id="o" x1="31.771" x2="25.266" y1="29.447" y2="36.12" gradientUnits="userSpaceOnUse">
<stop stop-color="rgb(80, 65, 42)" offset="0"/>
<stop stop-color="rgb(123, 99, 72)" offset="1"/>
</linearGradient>
<linearGradient id="h" x1="8.523" x2="47.398" y1="30.034" y2="30.782" gradientUnits="userSpaceOnUse">
<stop stop-color="rgb(84, 62, 26)" offset="0"/>
<stop stop-color="rgb(17, 8, 1)" offset="1"/>
</linearGradient>
<linearGradient id="g" x1="28.061" x2="28.061" y1="22.239" y2="37.642" gradientUnits="userSpaceOnUse">
<stop stop-color="rgb(229, 199, 144)" offset="0"/>
<stop stop-color="rgb(146, 120, 87)" offset=".63"/>
<stop stop-color="rgb(241, 226, 200)" offset="1"/>
</linearGradient>
<linearGradient id="f" x1="46.653" x2="9.456" y1="22.142" y2="22.48" gradientUnits="userSpaceOnUse">
<stop stop-color="rgb(151, 124, 89)" offset="0"/>
<stop stop-color="rgb(41, 21, 12)" offset=".496"/>
<stop stop-color="rgb(162, 136, 96)" offset="1"/>
</linearGradient>
<linearGradient id="e" x1="11.596" x2="18.105" y1="23.412" y2="25.755" gradientUnits="userSpaceOnUse">
<stop stop-color="rgb(133, 146, 151)" offset="0"/>
<stop stop-color="rgb(108, 110, 117)" offset="1"/>
</linearGradient>
<linearGradient id="d" x1="37.738" x2="44.698" y1="23.068" y2="25.142" gradientUnits="userSpaceOnUse">
<stop stop-color="rgb(132, 142, 148)" offset="0"/>
<stop stop-color="rgb(107, 109, 117)" offset="1"/>
</linearGradient>
<linearGradient id="c" x1="11.788" x2="17.665" y1="23.605" y2="25.064" gradientUnits="userSpaceOnUse">
<stop stop-color="rgb(153, 168, 174)" offset="0"/>
<stop stop-color="rgb(114, 121, 124)" offset="1"/>
</linearGradient>
<linearGradient id="b" x1="38.434" x2="44.505" y1="23.487" y2="24.69" gradientUnits="userSpaceOnUse">
<stop stop-color="rgb(151, 163, 168)" offset="0"/>
<stop stop-color="rgb(112, 117, 121)" offset="1"/>
</linearGradient>
<linearGradient id="a" x1="20.354" x2="20.354" y1="21.456" y2="27.535" gradientUnits="userSpaceOnUse">
<stop stop-color="rgb(106, 88, 73)" offset="0"/>
<stop stop-color="rgb(250, 236, 207)" offset=".532"/>
<stop stop-color="rgb(226, 204, 172)" offset="1"/>
</linearGradient>
<linearGradient id="y" x1="21.389" x2="21.389" y1="21.491" y2="27.535" gradientUnits="userSpaceOnUse">
<stop stop-color="rgb(52, 41, 34)" offset="0"/>
<stop stop-color="rgb(197, 166, 123)" offset=".504"/>
<stop stop-color="rgb(189, 161, 127)" offset="1"/>
</linearGradient>
<linearGradient id="x" x1="34.733" x2="34.733" y1="21.473" y2="27.525" gradientUnits="userSpaceOnUse">
<stop stop-color="rgb(97, 81, 66)" offset="0"/>
<stop stop-color="rgb(247, 233, 203)" offset=".5"/>
<stop stop-color="rgb(226, 204, 172)" offset="1"/>
</linearGradient>
<linearGradient id="w" x1="35.767" x2="35.767" y1="21.473" y2="27.534" gradientUnits="userSpaceOnUse">
<stop stop-color="rgb(61, 49, 41)" offset="0"/>
<stop stop-color="rgb(202, 171, 125)" offset=".499"/>
<stop stop-color="rgb(186, 159, 127)" offset="1"/>
</linearGradient>
<linearGradient id="v" x1="23.52" x2="28.046" y1="24.306" y2="24.306" gradientUnits="userSpaceOnUse">
<stop stop-color="rgb(170, 213, 240)" offset="0"/>
<stop stop-color="rgb(110, 194, 236)" offset="1"/>
</linearGradient>
<linearGradient id="u" x1="25.195" x2="25.195" y1="26.537" y2="27.474" gradientUnits="userSpaceOnUse">
<stop stop-color="rgb(1, 90, 170)" offset="0"/>
<stop stop-color="rgb(1, 32, 60)" offset="1"/>
</linearGradient>
<linearGradient id="t" x1="30.9" x2="30.9" y1="26.537" y2="27.474" gradientUnits="userSpaceOnUse">
<stop stop-color="rgb(1, 70, 155)" offset="0"/>
<stop stop-color="rgb(1, 28, 62)" offset="1"/>
</linearGradient>
<linearGradient id="s" x1="28.057" x2="28.057" y1="27.902" y2="29.615" gradientUnits="userSpaceOnUse">
<stop stop-color="rgb(252, 229, 188)" offset="0"/>
<stop stop-color="rgb(251, 250, 247)" offset=".524"/>
<stop stop-color="rgb(202, 183, 153)" offset="1"/>
</linearGradient>
<linearGradient id="r" x1="12.344" x2="18.561" y1="30.083" y2="33.154" gradientUnits="userSpaceOnUse">
<stop stop-color="rgb(152, 209, 241)" offset="0"/>
<stop stop-color="rgb(1, 152, 221)" offset="1"/>
</linearGradient>
<linearGradient id="q" x1="37.592" x2="42.57" y1="30.704" y2="31.524" gradientUnits="userSpaceOnUse">
<stop stop-color="rgb(152, 209, 241)" offset="0"/>
<stop stop-color="rgb(16, 172, 228)" offset="1"/>
</linearGradient>
<linearGradient id="p" x1="20.539" x2="20.539" y1="29.527" y2="35.458" gradientUnits="userSpaceOnUse">
<stop stop-color="rgb(81, 67, 55)" offset="0"/>
<stop stop-color="rgb(248, 233, 205)" offset=".498"/>
<stop stop-color="rgb(226, 204, 172)" offset="1"/>
</linearGradient>
<linearGradient id="n" x1="21.39" x2="21.39" y1="29.527" y2="35.458" gradientUnits="userSpaceOnUse">
<stop stop-color="rgb(49, 39, 32)" offset="0"/>
<stop stop-color="rgb(196, 165, 123)" offset=".476"/>
<stop stop-color="rgb(186, 159, 127)" offset="1"/>
</linearGradient>
<linearGradient id="m" x1="34.651" x2="34.651" y1="29.527" y2="35.496" gradientUnits="userSpaceOnUse">
<stop stop-color="rgb(96, 80, 66)" offset="0"/>
<stop stop-color="rgb(251, 237, 208)" offset=".445"/>
<stop stop-color="rgb(226, 204, 172)" offset="1"/>
</linearGradient>
<linearGradient id="l" x1="35.483" x2="35.483" y1="29.527" y2="35.515" gradientUnits="userSpaceOnUse">
<stop stop-color="rgb(42, 33, 27)" offset="0"/>
<stop stop-color="rgb(197, 166, 124)" offset=".488"/>
<stop stop-color="rgb(186, 159, 127)" offset="1"/>
</linearGradient>
<linearGradient id="k" x1="25.123" x2="25.123" y1="29.866" y2="31.152" gradientUnits="userSpaceOnUse">
<stop stop-color="rgb(25, 16, 5)" offset="0"/>
<stop stop-color="rgb(63, 60, 58)" offset="1"/>
</linearGradient>
<linearGradient id="j" x1="30.942" x2="30.942" y1="29.866" y2="31.152" gradientUnits="userSpaceOnUse">
<stop stop-color="rgb(8, 5, 3)" offset="0"/>
<stop stop-color="rgb(46, 38, 35)" offset="1"/>
</linearGradient>
<linearGradient id="i" x1="23.604" x2="32.478" y1="32.919" y2="33.208" gradientUnits="userSpaceOnUse">
<stop stop-color="rgb(146, 155, 161)" offset="0"/>
<stop stop-color="rgb(83, 80, 79)" offset="1"/>
</linearGradient>
</defs>
</svg>
