<?xml version="1.0" encoding="UTF-8"?>
<!-- generated by Finnhub -->
<svg viewBox="0 0 55.5 55.5" xmlns="http://www.w3.org/2000/svg">
<path d="M 0,0 H 55.5 V 55.5 H 0 Z" fill="url(#a)"/>
<path d="M 26.99,13.985 C 18.714,14 12,20.714 12,29 S 18.714,44 27,44 S 42,37.286 42,29 S 35.286,14 27,14 Z M 27,18.783 C 32.638,18.783 37.217,23.363 37.217,29 C 37.217,34.638 32.637,39.217 27,39.217 C 21.362,39.217 16.826,34.637 16.826,29 C 16.826,23.362 21.362,18.783 27,18.783 Z" fill="rgb(252, 180, 15)"/>
<path d="M 30.941,21.985 C 28.551,25.048 27.878,26.527 26.844,29.137 C 25.606,26.647 24.129,24.927 21.572,23.788 C 21.088,23.665 20.849,23.594 20.523,24.049 C 20.197,24.505 20.395,24.915 20.785,25.398 C 21.809,26.664 22.96,27.834 23.758,29.268 C 24.693,30.951 25.857,33.723 26.249,34.445 C 26.561,35.019 27.315,35.271 27.604,35.271 C 29.151,35.089 29.152,34.306 29.447,32.949 C 29.899,30.846 30.477,28.676 33,26.111 C 33.147,25.961 33.3,25.811 33.46,25.659 V 22 H 30.951 Z" fill="rgb(254, 254, 253)"/>
<path d="M 44.99,9.985 H 44 V 11 H 43 V 12 H 41 V 13 H 40 V 15 H 39 V 14 H 38 V 15 H 39 V 16 H 36 V 17 H 35 V 18 H 34 V 20 H 33 V 21 H 32 V 22 H 31 V 23 H 32 V 22 H 33 V 26 H 34 V 24 H 35 V 23 H 36 V 22 H 37 V 21 H 38 V 20 H 40 V 19 H 41 V 16 H 42 V 15 H 43 V 14 H 42 V 13 H 43 V 12 H 44 V 13 H 45 V 12 H 44 V 11 H 45 V 10 Z M 41,14 H 42 V 15 H 41 V 14 Z M 40,16 H 39 V 17 H 40 V 16 Z M 40,16 V 15 H 41 V 16 H 40 Z M 36,22 H 35 V 21 H 36 V 22 Z M 35,18 H 36 V 19 H 35 V 18 Z" fill="rgb(254, 254, 253)" fill-rule="evenodd"/>
<path d="M 28.99,25.985 V 27 H 30 V 26 H 29 Z M 29,28 V 29 H 30 V 28 H 29 Z M 26,29 V 30 H 27 V 29 H 26 Z" fill="rgb(254, 254, 253)"/>
<defs>
<linearGradient id="a" x1="10.418" x2="68.147" y1="9.712" y2="76.017" gradientUnits="userSpaceOnUse">
<stop stop-color="rgb(25, 29, 31)" offset="0"/>
<stop stop-color="rgb(5, 5, 8)" offset="1"/>
</linearGradient>
</defs>
</svg>
