<?xml version="1.0" encoding="UTF-8"?>
<!-- generated by Finnhub -->
<svg viewBox="0 0 55.5 55.5" xmlns="http://www.w3.org/2000/svg">
<path d="M 0,0 H 55.5 V 55.5 H 0 Z" fill="rgb(7, 100, 164)"/>
<path d="M 10.99,18.985 A 3,3 0 0,0 8,22 V 32.23 A 2.77,2.77 0 0,0 10.77,35 H 13 V 35.84 C 13,37.07 12.28,38 11.42,38 H 10 V 39 H 11.42 C 13.31,39 14,37.1 14,36.12 V 22 A 3,3 0 0,0 11,19 Z M 13,34 H 10.72 C 9.77,34 9,33.23 9,32.28 V 22 A 2,2 0 1,1 13,22 V 34 Z M 36,19 A 3,3 0 0,0 33,22 V 32 A 3,3 0 0,0 39,32 V 22 A 3,3 0 0,0 36,19 Z M 36,20 A 2,2 0 0,0 34,22 V 32 A 2,2 0 1,0 38,32 V 22 A 2,2 0 0,0 36,20 Z M 45,19 A 3,3 0 0,0 42,22 V 35 H 43 V 22 A 2,2 0 1,1 47,22 V 35 H 48 V 22 A 3,3 0 0,0 45,19 Z M 20,19 A 3,3 0 0,0 17,22 V 32 A 3,3 0 0,0 23,32 V 31 H 22 V 32 A 2,2 0 1,1 18,32 V 22 A 2,2 0 1,1 22,22 V 28 H 23 V 22 A 3,3 0 0,0 20,19 Z M 22,27 H 20 V 28 H 22 V 27 Z M 27,35 V 21.89 C 27.05,20.97 27.72,19.1 29.94,19 H 31 V 20 H 29.94 C 28.74,20 28.04,21.18 28,22.9 V 35 H 27 Z" fill="rgb(254, 254, 253)" fill-rule="evenodd"/>
</svg>
