<?xml version="1.0" encoding="UTF-8"?>
<!-- generated by Finnhub -->
<svg viewBox="0 0 55.5 55.5" xmlns="http://www.w3.org/2000/svg">
<path d="M 0,0 H 55.5 V 55.5 H 0 Z" fill="url(#a)"/>
<path d="M 9.767,28.932 L 9.933,28.961 C 10.545,29.004 10.758,29.104 10.829,29.161 C 10.886,29.203 11,29.374 11,30.043 V 32.248 C 11,32.348 10.972,32.433 10.929,32.475 C 10.9,32.504 10.899,32.575 10.487,32.717 C 10.288,32.788 10.089,32.831 9.876,32.859 A 4.47,4.47 0 0,1 9.306,32.902 C 8.368,32.902 7.571,32.561 6.931,31.878 C 6.291,31.195 5.963,30.228 5.963,29.004 C 5.963,27.51 6.29,26.429 6.931,25.789 C 7.571,25.149 8.325,24.821 9.164,24.821 C 10.004,24.821 10.658,25.091 11.17,25.632 C 11.455,25.945 11.74,26.443 12.024,27.083 L 12.066,27.183 H 12.664 L 12.55,23.939 H 11.967 L 11.924,24.039 A 0.805,0.805 0 0,1 11.754,24.309 C 11.724,24.338 11.64,24.381 11.44,24.381 C 11.412,24.381 11.284,24.366 10.587,24.167 A 5.585,5.585 0 0,0 8.965,23.939 C 7.443,23.939 6.191,24.466 5.266,25.519 C 4.426,26.472 4,27.624 4,28.947 C 4,30.455 4.54,31.679 5.593,32.589 C 6.547,33.4 7.742,33.813 9.136,33.813 C 9.89,33.813 10.672,33.67 11.483,33.4 C 12.564,33.03 13,32.803 13,32.59 V 29.858 C 13,29.474 13.071,29.203 13.228,29.089 C 13.27,29.047 13.413,28.989 13.825,28.961 L 13.982,28.947 V 28.364 H 9.777 V 28.947 Z M 22.014,24.57 L 22.171,24.583 C 23.029,24.663 23.001,25.637 23.001,26.315 V 30.315 C 23.001,31.896 21.702,33.26 20.176,33.26 C 18.51,33.26 18,32.157 18,30.7 V 25.737 C 18,25.075 18.135,24.644 18.844,24.597 L 19,24.583 V 24 H 15 V 24.583 L 15.157,24.598 C 15.797,24.64 15.744,24.768 15.815,24.825 C 15.886,24.882 16,25.081 16,25.679 V 30.5 C 16,32.702 17.725,34.199 19.863,34.199 C 21.943,34.199 24,32.541 24,30.315 V 26.301 C 24,25.69 24.102,24.671 24.858,24.583 L 25,24.57 V 24 H 22 V 24.57 H 22.014 Z M 34.189,31.293 C 33.847,32.047 33.477,32.516 33.065,32.701 C 32.638,32.901 31.969,33 31.059,33 C 30.006,33 29.256,32.957 29.142,32.929 C 29.114,32.915 29,32.886 29,32.602 V 29 H 31.358 C 32.055,29 32.282,29.128 32.354,29.213 C 32.454,29.313 32.61,29.63 32.724,30.256 L 32.752,30.398 H 33.378 V 26.663 H 32.752 L 32.723,26.805 C 32.61,27.431 32.467,27.687 32.368,27.787 C 32.297,27.872 32.069,28 31.358,28 H 29 V 25.299 C 29,25.034 29.005,25 29.27,25 H 31.543 C 32.51,25 32.866,25.128 33.008,25.242 C 33.15,25.342 33.335,25.48 33.478,26.177 L 33.506,26.319 H 34.16 L 34.103,24 H 26.014 V 24.583 L 26.171,24.598 C 26.783,24.64 26.772,24.768 26.829,24.825 C 26.901,24.896 27,25.095 27,25.679 V 32.349 C 27,32.989 26.886,33.146 26.83,33.189 C 26.758,33.246 26.768,33.359 26.157,33.417 L 26,33.43 V 34 H 34.189 L 34.914,31.207 H 34.203 L 34.189,31.293 Z M 41.16,28.222 L 39.936,27.468 C 39.496,27.198 39.168,26.941 38.969,26.699 A 1.225,1.225 0 0,1 38.684,25.889 C 38.684,25.547 38.798,25.277 39.04,25.092 C 39.296,24.892 39.58,24.793 39.922,24.793 C 40.377,24.793 40.832,24.963 41.302,25.291 C 41.772,25.618 42.113,26.216 42.326,27.055 L 42.355,27.183 H 42.995 L 42.654,23.897 H 42.084 L 42.056,24.025 A 0.906,0.906 0 0,1 41.942,24.309 C 41.914,24.352 41.828,24.366 41.729,24.366 C 41.7,24.366 41.587,24.338 41.017,24.139 C 40.562,23.982 40.15,23.897 39.822,23.897 C 39.012,23.897 38.357,24.153 37.859,24.637 C 37.361,25.134 37.119,25.76 37.119,26.5 C 37.119,27.07 37.333,27.596 37.759,28.065 A 9.656,9.656 0 0,0 39.822,29.746 C 40.492,30.159 40.932,30.472 41.132,30.671 C 41.43,30.97 41.572,31.325 41.572,31.738 C 41.572,32.193 41.43,32.535 41.146,32.776 A 1.514,1.514 0 0,1 40.107,33.161 C 39.339,33.161 38.713,32.861 38.187,32.251 C 37.887,31.895 37.617,31.411 37.39,30.813 L 37.347,30.7 H 36.721 L 37.176,33.986 H 37.774 L 37.802,33.844 A 0.68,0.68 0 0,1 37.888,33.587 C 37.916,33.545 37.973,33.517 38.073,33.517 C 38.101,33.517 38.215,33.545 38.827,33.744 C 39.31,33.914 39.78,34 40.221,34 C 41.117,34 41.857,33.744 42.441,33.232 A 2.494,2.494 0 0,0 43.322,31.282 C 43.322,30.7 43.152,30.202 42.824,29.775 C 42.497,29.376 41.928,28.705 41.16,28.222 Z M 51.502,29.789 C 51.175,29.376 50.62,28.705 49.852,28.222 L 48.628,27.468 C 48.188,27.198 47.86,26.941 47.661,26.699 A 1.225,1.225 0 0,1 47.376,25.889 C 47.376,25.547 47.49,25.277 47.732,25.092 C 47.988,24.892 48.272,24.793 48.614,24.793 C 49.069,24.793 49.524,24.963 49.994,25.291 C 50.464,25.618 50.805,26.216 51.018,27.055 L 51.047,27.183 H 51.687 L 51.346,23.897 H 50.776 L 50.748,24.025 A 0.904,0.904 0 0,1 50.634,24.309 C 50.606,24.352 50.52,24.366 50.407,24.366 C 50.378,24.366 50.264,24.338 49.695,24.139 C 49.24,23.982 48.828,23.897 48.5,23.897 C 47.69,23.897 47.035,24.153 46.537,24.637 C 46.039,25.134 45.797,25.76 45.797,26.5 C 45.797,27.07 46.011,27.596 46.437,28.065 A 9.654,9.654 0 0,0 48.5,29.746 C 49.169,30.159 49.61,30.472 49.81,30.671 C 50.108,30.97 50.25,31.325 50.25,31.738 C 50.25,32.193 50.108,32.535 49.824,32.776 A 1.514,1.514 0 0,1 48.784,33.161 C 48.017,33.161 47.391,32.861 46.864,32.251 C 46.566,31.895 46.295,31.411 46.068,30.813 L 46.025,30.7 H 45.399 L 45.854,33.986 H 46.452 L 46.48,33.844 A 0.68,0.68 0 0,1 46.566,33.587 C 46.594,33.545 46.651,33.517 46.751,33.517 C 46.779,33.517 46.893,33.545 47.505,33.744 C 47.988,33.914 48.458,34 48.899,34 C 49.795,34 50.535,33.744 51.119,33.232 A 2.494,2.494 0 0,0 52,31.282 A 2.42,2.42 0 0,0 51.502,29.789 Z" fill="rgb(254, 254, 253)"/>
<defs>
<linearGradient id="a" x1="10.418" x2="68.147" y1="9.712" y2="76.017" gradientUnits="userSpaceOnUse">
<stop stop-color="rgb(25, 29, 31)" offset="0"/>
<stop stop-color="rgb(5, 5, 8)" offset="1"/>
</linearGradient>
</defs>
</svg>
