<?xml version="1.0" encoding="UTF-8"?>
<!-- generated by Finnhub -->
<svg viewBox="0 0 55.5 55.5" xmlns="http://www.w3.org/2000/svg">
<path d="M 0,0 H 55.5 V 55.5 H 0 Z" fill="rgb(172, 40, 47)"/>
<path d="M 27.988999999999997,48.535 C 26.976,41.382 25.808,34.158 25.041,26.972 C 26.173,26.405 26.501,25.18 26.849,24.027 C 27.068,22.784 27.396,21.412 27.305,20.132 C 25.132,20.187 22.758,20.407 20.786,21.358 C 18.358,21.358 18.194,17.919 20.732,17.7 C 22.904,18.541 25.077,18.852 27.397,18.926 C 27.287,16.64 27.049,14.482 26.191,12.361 C 26.191,11.739 26.337,11.391 26.739,10.934 C 28.2,9.983 29.587,10.604 29.825,12.324 C 28.93,14.518 28.802,16.511 28.62,18.852 C 28.657,18.87 28.693,18.889 28.747,18.925 C 30.976,18.815 33.221,18.615 35.285,17.7 C 37.786,17.938 37.658,21.358 35.212,21.358 C 33.24,20.37 30.811,20.224 28.638,20.168 C 28.784,21.522 28.93,26.478 31.012,26.99 C 30.902,28.087 30.829,28.16 28.711,43.997 C 28.638,44.07 28.072,48.422 27.999,48.55 Z" fill="rgb(239, 242, 248)"/>
</svg>
