<?xml version="1.0" encoding="UTF-8"?>
<!-- generated by Finnhub -->
<svg viewBox="0 0 55.5 55.5" xmlns="http://www.w3.org/2000/svg">
<path d="M 0,0 H 55.5 V 55.5 H 0 Z" fill="rgb(239, 242, 248)"/>
<path d="M 20.99,31.987000000000002 C 21,26.258 25.318,22.905 28,18 C 31.008,22.778 35,28.54 35,32.002 C 35,36.205 30.711,38.002 27.998,38.002 C 22.372,38.002 21,33.449 21,32.002 Z" fill="rgb(235, 27, 43)"/>
<path d="M 27.988,41.98 C 35.729,41.995 41.996,35.728 41.996,27.998 C 41.996,20.267 35.73,14 27.998,14 C 20.268,14 14,20.267 14,27.998 C 14,35.728 20.267,41.995 27.998,41.995 Z M 27.998,43.995 C 36.833,43.995 43.996,36.833 43.996,27.998 C 43.996,19.162 36.833,12 27.998,12 C 19.163,12 12,19.162 12,27.998 C 12,36.833 19.163,43.995 27.998,43.995 Z" fill="rgb(1, 98, 166)" fill-rule="evenodd"/>
</svg>
