<?xml version="1.0" encoding="UTF-8"?>
<!-- generated by Finnhub -->
<svg viewBox="0 0 55.5 55.5" xmlns="http://www.w3.org/2000/svg">
<path d="M 0,0 H 55.5 V 55.5 H 0 Z" fill="rgb(239, 242, 248)"/>
<circle cx="28" cy="28" r="16" fill="rgb(5, 65, 114)"/>
<path d="M 36.0,14.135 A 15.9,15.9 0 0,0 30.45,12.19 C 29.36,12.99 28.55,13.77 29,14 C 29.5,14.25 29.38,14.75 29.25,15.25 S 29,16.25 29.5,16.5 C 29.77,16.63 30.07,16.84 30.38,17.05 C 31.23,17.62 32.13,18.23 32.5,17.5 C 32.75,17 33.13,16.75 33.5,16.5 C 33.88,16.25 34.25,16 34.5,15.5 C 34.7,15.1 35.16,14.77 35.59,14.46 L 36.01,14.15 Z M 14.73,36.95 A 16,16 0 0,1 27.96,12 C 27.91,12.82 27.77,13.73 27.5,14 C 27,14.5 25.5,16 24,16.5 L 23.35,16.7 C 22.23,17.04 21.58,17.23 22,18.5 C 22.23,19.18 21.94,19.45 21.7,19.68 C 21.4,19.96 21.18,20.18 22,21 C 22.71,21.71 22.86,22.31 22.98,22.8 C 23.11,23.34 23.21,23.74 24,24 C 24.46,24.15 24.93,24.26 25.38,24.37 C 26.38,24.6 27.31,24.81 28,25.5 C 28.42,25.92 28.76,26.08 29,26.2 C 29.33,26.35 29.5,26.42 29.5,27 C 29.5,27.8 28.83,28.67 28.5,29 C 27.83,29.33 26.4,30.1 26,30.5 C 25.5,31 23.5,31 24,30.5 S 26,27 25,27.5 C 24.5,27.75 24.25,28.25 24.06,28.62 C 23.88,29 23.75,29.25 23.5,29 C 23.37,28.87 23.25,28.69 23.12,28.5 C 22.75,27.94 22.38,27.37 22,28.5 C 21.5,30 20.5,32 20.5,31 C 20.5,30.27 20.23,30.34 19.9,30.43 C 19.77,30.46 19.63,30.5 19.5,30.5 C 19.3,30.5 18.94,30.66 18.58,30.82 C 18.04,31.06 17.5,31.3 17.5,31 C 17.5,30.5 17.5,30 17,29.5 C 16.78,29.28 16.66,29.16 16.55,29.17 C 16.41,29.19 16.28,29.43 16,30 C 15.6,30.8 15.17,33 15,34 L 14.73,36.95 Z M 37.78,15.34 A 15.97,15.97 0 0,1 43.81,30.5 H 43 C 41.4,30.5 41.23,30.1 41.06,29.67 C 40.96,29.43 40.86,29.18 40.5,29 A 7.48,7.48 0 0,1 39.59,28.5 C 39.3,28.3 39.06,28.06 38.5,27.5 C 37.87,26.87 37.64,26.84 37.17,26.77 A 5.88,5.88 0 0,1 36,26.5 C 34.78,26.1 34.55,26.35 33.97,27 L 33.5,27.5 C 33.05,27.95 32.9,28.4 32.79,28.76 C 32.65,29.2 32.55,29.5 32,29.5 C 31.27,29.5 31.34,28.96 31.43,28.28 C 31.46,28.04 31.5,27.77 31.5,27.5 C 31.5,26.91 30.99,26.33 30.56,25.84 C 30.26,25.5 30,25.21 30,25 C 30,24.71 30.65,24.43 31.3,24.14 C 31.8,23.93 32.29,23.71 32.5,23.5 C 32.9,23.1 33.33,23.67 33.5,24 C 33.83,23.67 34.5,22.9 34.5,22.5 C 34.5,22.23 34.07,21.96 33.52,21.62 A 8.34,8.34 0 0,1 32,20.5 C 31.4,19.9 31.7,19.84 32.05,19.78 C 32.27,19.74 32.5,19.7 32.5,19.5 C 32.5,19.2 33.97,19.81 35.24,20.35 C 36.07,20.69 36.8,21 37,21 C 37.5,21 38,20.5 37.5,20 A 5.43,5.43 0 0,0 37.06,19.62 C 36.59,19.25 36.12,18.87 36.5,18.5 C 36.75,18.25 36.75,17.87 36.75,17.5 C 36.75,17.12 36.75,16.75 37,16.5 C 37.2,16.3 37.5,15.83 37.78,15.34 Z" fill="url(#a)"/>
<path d="M 40.99,28.235 L 36,31.5 V 33 L 38,32 V 34.5 L 40,33.5 V 30.75 L 41,30 V 28.25 Z M 40,34 L 38,35 V 36 L 40,35 V 34 Z M 38,37 V 36.5 L 40,35.5 V 36 L 38,37 Z M 22,37 V 32.5 L 24,33.5 V 35.5 C 24.8,35.9 26.33,36 27,36 V 33.5 H 29 V 38 H 27 V 37.5 C 26.2,37.5 24.67,37.17 24,37 V 37.5 L 22,37 Z M 24,38 L 22,37.5 V 38.5 L 24,39 V 38 Z M 22,39 L 24,39.5 V 40 L 22,39.5 V 39 Z M 27,38.5 H 29 V 39.5 H 27 V 38.5 Z M 27,40 V 40.5 H 29 V 40 H 27 Z M 36,33.5 C 36,33.17 35.6,32.5 34,32.5 S 30.67,33.83 30,34.5 C 29.33,35.17 29.2,37.4 32,37 C 32.67,36.83 34.1,36.6 34.5,37 L 36.5,36 C 36.33,35.67 35.8,35 35,35 C 34.67,35 34.28,35.06 33.89,35.11 C 33.11,35.22 32.33,35.33 32,35 C 31.83,34.83 31.7,34.4 32.5,34 C 33.3,33.6 33.83,34.17 34,34.5 L 36,33.5 Z M 30,38.5 L 32,38 C 32,38.17 32.3,38.4 33.5,38 S 34.67,37.5 34.5,37.5 L 36.5,36.5 C 36.67,36.5 36.8,36.7 36,37.5 L 31.5,39 C 31,39 30,38.9 30,38.5 Z M 36,38 L 32,39.5 C 32.17,39.67 33.7,39.4 34.5,39 S 36,38.17 36,38 Z M 19.5,33.5 L 21.5,34.5 C 21.5,33.67 20.9,31.7 18.5,30.5 C 15.5,29 15,29 14.5,31.5 V 32 L 17,34 C 17,33 17.3,31.1 18.5,31.5 C 19.7,31.9 19.67,33 19.5,33.5 Z M 18.5,34.75 V 34 L 21.5,35.5 V 37 L 20,36.5 V 35.5 L 18.5,34.75 Z M 21.5,38 V 37.5 C 18.3,36.3 15.5,34 14.5,33 V 33.5 C 16.1,35.1 19.83,37.17 21.5,38 Z M 15.3,35.32 L 15,35 L 20,38 C 19.67,38 19.1,37.8 17.5,37 C 16.22,36.36 15.7,35.78 15.3,35.32 Z" fill="rgb(254, 252, 253)"/>
<defs>
<linearGradient id="a" x1="12" x2="44" y1="27" y2="26.5" gradientUnits="userSpaceOnUse">
<stop stop-color="rgb(112, 79, 59)" offset="0"/>
<stop stop-color="rgb(206, 199, 192)" offset=".21"/>
<stop stop-color="rgb(112, 125, 94)" offset=".33"/>
<stop stop-color="rgb(83, 100, 80)" offset=".64"/>
<stop stop-color="rgb(196, 191, 192)" offset=".76"/>
<stop stop-color="rgb(165, 102, 81)" offset="1"/>
</linearGradient>
</defs>
</svg>
