<?xml version="1.0" encoding="UTF-8"?>
<!-- generated by Finnhub -->
<svg viewBox="0 0 55.5 55.5" xmlns="http://www.w3.org/2000/svg">
<path d="M 0,0 H 55.5 V 55.5 H 0 Z" fill="rgb(239, 242, 248)"/>
<path d="M 41.13,38.985 C 38.12,42.91 32.92,45 28.12,45 C 23.92,45 18.77,43.56 15.06,39 H 41.14 Z M 28.22,11 C 38.17,11 43.46,18.93 44.35,23.04 L 35.6,20.67 L 28.02,16.25 L 25.25,15.75 V 17.79 L 27.38,19.77 L 24.41,19.52 S 24.51,19.67 26.98,22.3 L 38.27,24.18 L 40.25,25.48 L 35.1,25.72 L 32.97,33.5 L 26,38 H 21.45 L 22.98,35.14 L 22.74,35.04 L 18.62,38 H 17.63 L 21.83,32.26 C 22.03,30.57 21.93,31.32 22.19,28.3 L 21.54,27.4 L 19.86,33.95 L 16.34,38 H 15.45 L 17.53,35.24 L 20.45,26.26 L 19.71,26.61 L 18.42,30.18 L 17.53,30.68 S 15.45,35.73 14.36,38.21 A 17.3,17.3 0 0,1 11,27.51 C 11,19.46 17.88,11 28.22,11 Z M 42.72,28.74 L 45,29.54 A 16.04,16.04 0 0,1 41.83,38 H 38.02 L 41.63,32.46 L 42.73,28.74 Z M 39.8,27.6 L 42.08,28.54 L 40.5,32.26 L 39.06,33.5 L 36.18,38 H 34.31 L 36.19,34.84 L 37.67,33.6 L 39.8,27.6 Z M 35.3,32.66 L 35.74,33.5 L 33.27,38 H 30.9 L 35.3,32.66 Z M 28.22,12.1 C 18.52,12.1 12.19,20.08 12.19,27.51 C 12.19,31.78 13.23,33.91 14.36,35.94 L 18.66,24.39 S 20.01,23.69 20.01,23.79 L 21.94,18.89 L 23.18,18.24 L 24.71,14.97 L 28.07,15.52 L 34.9,19.34 L 42.57,21.47 C 40.6,16.4 35,12.1 28.22,12.1 Z M 36.34,26.22 L 39.25,27.42 L 37.18,31.33 L 36.04,31.53 L 36.34,29.25 L 36.04,28.8 L 36.34,26.22 Z" fill="rgb(1, 32, 63)"/>
</svg>
