<?xml version="1.0" encoding="UTF-8"?>
<!-- generated by Finnhub -->
<svg viewBox="0 0 55.5 55.5" xmlns="http://www.w3.org/2000/svg">
<path d="M 0,0 H 55.5 V 55.5 H 0 Z" fill="rgb(239, 242, 248)"/>
<path d="M 28.319999999999997,30.655 A 15.3,15.3 0 0,0 26.95,28.17 L 26.79,27.83 C 26.53,27.33 26.19,26.76 25.74,26.13 A 26.25,26.25 0 0,0 20.16,20.29 A 24.12,24.12 0 0,0 13.14,16.54 A 0.14,0.14 0 0,1 13.04,16.44 L 13,16.26 V 14.28 L 13.05,14.05 C 13.06,14.01 13.09,13.99 13.13,14 A 28,28 0 0,1 26.8,23.6 A 29.19,29.19 0 0,1 30.97,31.01 A 30.77,30.77 0 0,1 32.93,39.64 C 32.99,40.39 33.01,41.15 32.99,41.92 C 32.99,41.96 32.97,41.98 32.94,41.98 L 30.9,42 C 30.78,42 30.72,41.94 30.72,41.8 A 28.4,28.4 0 0,0 28.32,30.67 Z" fill="rgb(8, 65, 98)"/>
<path d="M 42.99,14.985 V 15.59 A 27,27 0 0,0 29.51,25.23 A 0.15,0.15 0 0,1 29.38,25.29 A 0.15,0.15 0 0,1 29.26,25.21 L 29.02,24.83 C 28.97,24.75 28.97,24.67 29.03,24.59 A 27.92,27.92 0 0,1 42.84,14.87 C 42.9,14.85 42.96,14.89 43,14.99 Z" fill="rgb(97, 143, 194)"/>
<path d="M 24.259999999999998,32.785 A 19.87,19.87 0 0,0 14.3,23.94 A 7.26,7.26 0 0,0 13.18,23.57 A 0.13,0.13 0 0,1 13.08,23.47 L 13,23.22 V 21.39 L 13.06,21.05 C 13.08,21 13.11,20.99 13.16,21.02 L 13.23,21.07 L 13.29,21.1 A 22.38,22.38 0 0,1 24.17,28.4 A 21.43,21.43 0 0,1 29,41.84 C 29,41.88 28.99,41.92 28.96,41.95 A 0.15,0.15 0 0,1 28.84,42 L 26.74,42.01 A 0.12,0.12 0 0,1 26.65,41.98 A 0.1,0.1 0 0,1 26.62,41.89 A 18.99,18.99 0 0,0 24.27,32.81 Z" fill="rgb(8, 65, 98)"/>
<path d="M 42.99,21.355 V 21.82 A 0.62,0.62 0 0,1 42.9,21.96 A 0.36,0.36 0 0,1 42.77,22.04 A 20.27,20.27 0 0,0 32.21,30.22 C 32.11,30.38 32.01,30.37 31.94,30.2 L 31.82,29.95 A 0.52,0.52 0 0,1 31.86,29.42 A 21.13,21.13 0 0,1 42.8,21.24 C 42.88,21.19 42.95,21.24 43,21.37 Z" fill="rgb(97, 143, 194)"/>
<path d="M 12.99,29.724999999999998 V 27.54 L 13.07,27.28 C 13.08,27.22 13.11,27.2 13.17,27.22 A 15.47,15.47 0 0,1 24,41.92 C 24,41.98 23.98,42 23.93,42 H 21.7 C 21.64,42 21.61,41.97 21.61,41.91 C 21.55,41.01 21.5,40.41 21.45,40.11 C 21.27,38.81 20.85,37.51 20.2,36.21 A 12.92,12.92 0 0,0 13,29.74 Z" fill="rgb(8, 65, 98)"/>
<path d="M 26.93,27.875 L 27.1,28.22 C 27.1,28.37 27.28,28.42 27.28,28.55 C 27.28,28.72 27.26,28.72 27.18,28.86 C 26.98,29.23 26.83,29.59 26.7,29.95 C 26.63,30.15 26.52,30.18 26.37,30.02 A 0.87,0.87 0 0,1 26.22,29.77 A 0.66,0.66 0 0,1 26.25,29.17 L 26.95,27.89 Z M 43,28.27 V 28.82 A 13.6,13.6 0 0,0 34.27,38.4 C 34.11,39.01 34.02,39 34,38.37 C 34,38.27 33.98,38.12 33.95,37.91 A 5,5 0 0,1 33.9,37.38 C 33.9,37.18 33.92,37.02 33.97,36.88 C 34.97,34.15 36.6,31.92 38.86,30.19 C 39.92,29.39 41.16,28.73 42.57,28.22 A 0.4,0.4 0 0,0 42.72,28.13 L 42.79,28.07 C 42.84,28.02 42.89,28.02 42.92,28.08 C 42.96,28.13 42.98,28.19 43,28.27 Z" fill="rgb(97, 143, 194)"/>
<path d="M 29.66,33.695 C 29.78,33.79 29.85,34.21 29.91,34.35 C 29.94,34.47 29.94,34.58 29.91,34.66 C 29.61,35.54 29.37,36.42 29.21,37.29 C 29.16,37.52 29.12,37.52 29.09,37.29 A 5.68,5.68 0 0,1 28.93,36.24 C 28.91,35.99 28.93,35.77 29,35.58 L 29.24,34.85 C 29.38,34.38 29.44,34.15 29.67,33.71 Z M 24.58,33.58 C 24.58,33.76 24.64,33.89 24.75,34 C 24.79,34.34 24.79,34.71 24.74,35.11 A 15.85,15.85 0 0,1 24.48,36.51 C 24.34,37.15 24.25,37.87 24.21,38.67 C 24.21,38.69 24.21,38.7 24.18,38.72 H 24.17 C 24.15,38.72 24.13,38.72 24.13,38.69 C 24.07,38.3 23.99,37.89 23.87,37.49 A 1.97,1.97 0 0,1 23.83,36.78 C 23.88,36.51 23.96,36.08 24.1,35.52 L 24.38,34.22 C 24.41,34 24.48,33.78 24.58,33.58 Z" fill="rgb(37, 107, 179)"/>
</svg>
