<?xml version="1.0" encoding="UTF-8"?>
<!-- generated by Finnhub -->
<svg viewBox="0 0 55.5 55.5" xmlns="http://www.w3.org/2000/svg">
<path d="M 0,0 H 55.5 V 55.5 H 0 Z" fill="rgb(239, 242, 248)"/>
<path d="M 47.11,23.595 C 47.29,23.48 47.5,23.39 47.72,23.35 C 47.75,23.28 47.79,23.2 47.85,23.14 C 47.67,22.9 47.45,22.7 47.2,22.55 C 46.82,22.34 46.4,22.19 45.98,22.11 A 8.56,8.56 0 0,0 43.6,22.06 C 42.06,22.23 40.54,22.58 39.08,23.1 C 37.61,23.6 36.18,24.22 34.8,24.94 C 33.4,25.66 32.07,26.49 30.81,27.44 C 30.17,27.93 29.57,28.45 29.01,29.02 A 7.33,7.33 0 0,0 27.58,31.01 C 27.39,31.39 27.3,31.81 27.32,32.24 A 1.55,1.55 0 0,0 27.85,33.31 C 28.13,33.55 28.48,33.73 28.85,33.82 C 29.2,33.92 29.57,33.97 29.93,33.99 C 31.41,34.06 32.89,33.77 34.33,33.38 C 35.79,32.97 37.22,32.44 38.59,31.81 A 27.98,27.98 0 0,1 34.31,33.15 C 32.88,33.47 31.41,33.67 30.04,33.53 C 29.37,33.45 28.68,33.28 28.28,32.86 A 1.04,1.04 0 0,1 27.96,32.12 C 27.97,31.81 28.06,31.5 28.21,31.22 C 28.56,30.6 29.01,30.04 29.55,29.56 C 30.1,29.06 30.68,28.59 31.29,28.16 A 25.74,25.74 0 0,1 35.19,25.96 A 29.64,29.64 0 0,1 39.33,24.42 C 40.68,24.02 42.08,23.77 43.49,23.68 A 6.8,6.8 0 0,1 45.39,23.82 A 1.33,1.33 0 0,1 46.24,24.42 C 46.3,24.54 46.59,24.33 46.64,24.42 C 46.74,24.2 46.59,23.96 46.8,23.82 C 46.9,23.74 47,23.66 47.12,23.62 Z" fill="rgb(114, 136, 150)" opacity=".3"/>
<path d="M 47.61,24.375 C 48.03,24 48.1,23.39 47.76,23.03 C 47.42,22.67 46.81,22.69 46.39,23.08 C 45.98,23.47 45.91,24.08 46.25,24.44 C 46.59,24.8 47.2,24.78 47.62,24.39 Z M 8.5,27.44 V 27.88 A 2.04,2.04 0 0,1 7.9,29.41 A 2.14,2.14 0 0,1 6.35,30 A 2.28,2.28 0 0,1 4,27.7 A 2.23,2.23 0 0,1 4.66,26.07 A 2.22,2.22 0 0,1 6.3,25.41 C 6.69,25.41 7.07,25.5 7.42,25.69 C 7.74,25.86 8.02,26.12 8.2,26.43 L 7.37,26.97 C 7.13,26.61 6.77,26.39 6.3,26.4 C 5.53,26.4 5,27.06 5,27.7 C 5,28.43 5.55,29.02 6.35,28.99 C 6.91,29.01 7.35,28.61 7.45,28.3 H 6.3 V 27.43 H 8.5 Z M 10,29 H 11.55 V 30.01 H 9 V 25.41 H 10 V 29 Z M 15.91,29.34 A 2.22,2.22 0 0,1 14.29,30 A 2.21,2.21 0 0,1 12.67,29.34 A 2.2,2.2 0 0,1 12,27.7 A 2.21,2.21 0 0,1 12.67,26.07 A 2.2,2.2 0 0,1 14.29,25.41 A 2.22,2.22 0 0,1 15.91,26.07 A 2.2,2.2 0 0,1 16.58,27.7 A 2.2,2.2 0 0,1 15.91,29.33 Z M 14.3,29 C 14.94,28.99 15.63,28.5 15.6,27.7 C 15.63,26.93 14.98,26.42 14.3,26.42 S 12.98,26.93 13,27.71 C 12.98,28.48 13.66,29.01 14.3,29 Z M 19.89,27.62 A 1.14,1.14 0 0,1 20.49,28.67 A 1.22,1.22 0 0,1 20.09,29.63 C 19.8,29.87 19.43,30.01 19.06,30 H 17 V 25.42 H 18.92 C 19.29,25.41 19.64,25.54 19.92,25.78 A 1.2,1.2 0 0,1 20.32,26.71 A 1.1,1.1 0 0,1 19.89,27.62 Z M 18.82,26.42 H 18 V 27.27 H 18.82 C 19.1,27.27 19.32,27.13 19.32,26.86 C 19.32,26.59 19.1,26.41 18.82,26.42 Z M 18.96,29 C 19.26,29 19.5,28.82 19.49,28.53 C 19.49,28.24 19.26,28.07 18.96,28.07 H 18 V 29 H 18.96 Z M 24.08,30 L 23.7,29 H 22.35 L 22.05,30 H 20.93 L 22.48,25.42 H 23.55 L 25.1,30 H 24.08 Z M 22.62,28 H 23.55 L 23.02,26.46 L 22.62,28 Z M 26.5,29 H 28.24 V 30.01 H 25.5 V 25.41 H 26.5 V 29 Z" fill="rgb(38, 169, 101)"/>
<path d="M 35.760000000000005,25.405 L 35.59,26.39 H 34.46 L 34.09,29.99 L 33.09,30 L 33.54,26.39 H 32.35 L 32.53,25.42 H 35.77 Z" fill="rgb(33, 67, 88)"/>
<path d="M 39.31,29.325 A 2.54,2.54 0 0,1 36.77,29.85 A 1.91,1.91 0 0,1 35.68,28.58 A 2.59,2.59 0 0,1 36.54,26.08 A 2.53,2.53 0 0,1 39.09,25.58 A 1.92,1.92 0 0,1 40.19,26.85 A 2.59,2.59 0 0,1 39.33,29.35 Z" fill="rgb(38, 169, 101)"/>
<path d="M 45.32,25.405 L 44.71,30 H 43.7 L 44.1,27.03 L 42.72,29.15 H 42.62 L 41.82,27.04 L 41.42,30 H 40.4 L 41.02,25.42 H 42.1 L 42.88,27.58 L 44.28,25.42 H 45.33 Z M 46.25,25.42 H 47.25 L 46.65,30 H 45.65 L 46.26,25.42 Z M 49.6,30 A 1.91,1.91 0 0,1 48.06,29.34 A 1.99,1.99 0 0,1 47.64,27.71 C 47.72,27.07 48.04,26.49 48.52,26.08 C 48.99,25.65 49.61,25.41 50.25,25.42 C 50.63,25.42 50.99,25.51 51.32,25.7 C 51.62,25.87 51.86,26.14 52,26.46 L 51.06,27.12 A 1,1 0 0,0 50.1,26.45 C 49.56,26.46 48.8,26.94 48.69,27.87 C 48.59,28.7 49.33,29 49.72,28.97 C 50.27,28.91 50.59,28.62 50.8,28.35 L 51.65,28.96 A 2.52,2.52 0 0,1 49.6,30 Z M 30.99,30 L 30.77,29 H 29.42 L 28.93,30 H 27.8 L 29.96,25.42 H 31.04 L 31.97,30 H 31 Z M 29.79,28 H 30.59 L 30.37,26.46 L 29.79,28 Z" fill="rgb(33, 67, 88)"/>
</svg>
