<?xml version="1.0" encoding="UTF-8"?>
<!-- generated by Finnhub -->
<svg viewBox="0 0 55.5 55.5" xmlns="http://www.w3.org/2000/svg">
<path d="M 0,0 H 55.5 V 55.5 H 0 Z" fill="rgb(239, 242, 248)"/>
<path d="M 9.99,18.985 H 24 V 21 H 10 Z" fill="rgb(178, 74, 72)"/>
<path d="M 28.99,21.985 H 25 V 35 H 34 V 32 H 29 V 22 Z M 39,22 H 35 V 35 H 46 V 32 H 39 V 30 H 45 V 27 H 39 V 25 H 46 V 22 H 39 Z M 17.3,35 C 19.26,35 21.69,34.13 23,33 V 28 H 19 V 31.42 A 2.9,2.9 0 0,1 17.3,32 C 15.51,32 14,30.33 14,28.5 S 15.51,25 17.3,25 C 18.52,25 19.59,25.7 20.13,26.75 L 23,24.45 A 7.63,7.63 0 0,0 17.3,22 C 13.26,22 10,24.91 10,28.5 C 10,32.09 13.26,35 17.3,35 Z" fill="rgb(30, 30, 29)"/>
</svg>
