<?xml version="1.0" encoding="UTF-8"?>
<!-- generated by Finnhub -->
<svg viewBox="0 0 55.5 55.5" xmlns="http://www.w3.org/2000/svg">
<path d="M 0,0 H 55.5 V 55.5 H 0 Z" fill="rgb(239, 242, 248)"/>
<path d="M 27.99,44.985 C 18.63,45 11,37.37 11,28 C 11,18.62 18.63,11 28,11 C 37.37,11 45,18.63 45,28 C 45,37.37 37.37,45 28,45 Z M 28,11.54 A 16.48,16.48 0 0,0 11.54,28 C 11.54,37.07 18.93,44.46 28,44.46 C 37.08,44.46 44.46,37.07 44.46,28 C 44.46,18.92 37.07,11.54 28,11.54 Z" fill="rgb(34, 30, 30)"/>
<path d="M 42.49,21.985 A 1.5,1.5 0 1,0 42.5,19 A 1.5,1.5 0 0,0 42.5,22 Z" fill="rgb(238, 55, 39)"/>
<path d="M 18.99,25.435 C 18.65,25.76 18.31,26 17.8,26 C 16.84,26 16,25.21 16,23.5 C 16,21.8 16.83,21 17.9,21 C 18.69,21 19.35,21.35 19.94,21.72 L 19.48,22.48 A 3.16,3.16 0 0,0 18.03,21.93 C 17.39,21.93 17.01,22.53 17.01,23.5 C 17.01,24.47 17.35,25.12 18.01,25.12 C 18.45,25.12 18.79,24.77 19,24.57 V 24 H 18 V 23 H 20 V 26 H 19 V 25.45 Z M 24.52,22.46 A 3.1,3.1 0 0,0 23.09,21.92 C 22.44,21.92 22.05,22.52 22.05,23.5 C 22.05,24.47 22.44,25.07 23.09,25.07 C 23.55,25.07 24.04,24.82 24.52,24.54 L 25,25.3 A 4,4 0 0,1 22.97,26 C 21.85,26 21,25.21 21,23.5 S 21.85,21 22.97,21 A 4,4 0 0,1 25,21.7 L 24.52,22.46 Z M 26,26 V 21 H 27 V 26 H 26 Z M 15,34 V 29 H 16 V 33 H 18 V 34 H 15 Z M 19,29 H 20 V 30 H 19 V 29 Z M 19.03,34 L 19,30.5 H 20 V 34 H 19.03 Z M 21,29 H 22 V 30.78 C 22.33,30.53 22.84,30.3 23.44,30.3 C 24.35,30.3 25,30.9 25,32.16 C 25,33.41 24.35,34 23.44,34 C 22.84,34 22.33,33.78 22,33.54 V 34 H 21 V 29 Z M 22,31.55 V 32.77 C 22.28,33.06 22.75,33.22 23.11,33.22 C 23.63,33.22 24,32.85 24,32.16 C 24,31.46 23.62,31.09 23.11,31.09 C 22.75,31.09 22.28,31.25 22,31.55 Z M 27.16,32.23 C 27.22,32.87 27.52,33.22 28.06,33.22 C 28.53,33.22 29.09,32.99 29.57,32.75 L 30,33.41 C 29.67,33.58 28.88,34 27.95,34 C 26.88,34 26,33.37 26,32.01 C 26,30.73 26.79,30 28.05,30 C 29.3,30 29.98,30.72 29.98,31.7 C 29.98,32 29.91,32.23 29.91,32.23 H 27.16 Z M 27.16,31.66 H 28.87 C 28.88,31.06 28.59,30.76 28.05,30.76 C 27.52,30.76 27.25,31.09 27.16,31.66 Z M 32,30.88 C 32.08,30.68 32.51,29.94 33.5,30 V 31.02 C 32.2,31.02 32,32.28 32,32.28 V 34 H 31 V 30 H 32 V 30.88 Z M 34.5,30 H 35 V 29.14 L 36,29 V 30 H 37.23 V 30.77 H 36 V 32.73 C 36,33.05 36.32,33.09 36.49,33.09 C 36.68,33.09 37.01,32.96 37.11,32.92 L 37.5,33.69 C 37.25,33.8 36.74,34 36.21,34 C 35.45,34 35,33.6 35,32.71 V 30.77 H 34.5 V 30 Z M 39.1,30 L 40,32.9 L 40.88,30 H 42 L 39.93,36 H 38.83 L 39.47,34.31 L 38,30 H 39.11 Z" fill="rgb(34, 30, 30)"/>
</svg>
