<?xml version="1.0" encoding="UTF-8"?>
<!-- generated by Finnhub -->
<svg fill="none" viewBox="0 0 55.5 55.5" xmlns="http://www.w3.org/2000/svg">
<path d="M 0,0 H 55.5 V 55.5 H 0 Z" fill="rgb(0, 44, 97)"/>
<path d="M 30.493,29.985 A 4.5,4.5 0 1,1 21.503,30 A 4.5,4.5 0 0,1 30.503,30 Z" stroke="rgb(254, 254, 253)"/>
<path d="M 24.895999999999997,26.555 L 26.421,28.755 L 29.011,27.989 L 27.345,30.066 L 28.895,32.227 L 26.349,31.327 L 24.716,33.429 L 24.81,30.795 L 22.25,29.933 L 24.854,29.205 L 24.906,26.57 Z" fill="rgb(254, 254, 253)"/>
<path d="M 19.563,31.306 S 13.657,21.709 13.131,19.712 C 13.131,19.712 12.416,17.855 12.559,16.184 C 12.559,16.184 11.986,15.719 12.034,15.069 C 12.034,15.069 12.13,14.048 13.036,14.001 C 13.036,14.001 13.99,14.048 14.038,14.744 V 15.626 S 18.904,17.576 20.478,18.598 C 20.478,18.598 23.389,20.316 23.914,20.688 C 24.439,21.059 26.757,22.8 29.401,22.917 L 38.752,24.217 S 34.744,27.699 34.506,31.042 C 34.506,31.042 41.137,35.222 44,42.002 C 44,42.002 39.611,40.051 32.454,39.308 L 27.588,38.705 S 24.582,38.055 23.438,36.986 C 23.438,36.986 21.242,35.083 18.667,35.593 M 18.332,29.464 S 16.677,36.422 21.539,38.823" stroke="rgb(254, 254, 253)"/>
<path d="M 21.947999999999997,36.089999999999996 L 23.438,39.959 L 22.196,40.376 L 20.432,35.733" stroke="rgb(254, 254, 253)"/>
</svg>
