<?xml version="1.0" encoding="UTF-8"?>
<!-- generated by Finnhub -->
<svg viewBox="0 0 55.5 55.5" xmlns="http://www.w3.org/2000/svg">
<path d="M 0,0 H 55.5 V 55.5 H 0 Z" fill="rgb(239, 242, 248)"/>
<path d="M 13.83,15.985 C 14.21,16 14.52,16.06 14.76,16.19 C 15.01,16.31 15.23,16.45 15.42,16.62 C 15.53,16.72 15.62,16.72 15.67,16.66 C 15.74,16.58 15.78,16.27 15.8,16 H 16 V 18.36 H 15.77 L 15.65,17.67 A 1.8,1.8 0 0,0 15.26,16.85 C 15.1,16.62 14.89,16.45 14.66,16.35 C 14.41,16.25 14.16,16.2 13.89,16.2 C 12.34,16.2 12,18.42 12,19.56 C 12,20.73 12.38,22.8 13.96,22.8 C 14.19,22.8 14.43,22.75 14.69,22.65 C 14.94,22.54 15.14,22.38 15.29,22.16 C 15.45,21.97 15.56,21.76 15.61,21.53 C 15.68,21.28 15.73,20.96 15.77,20.55 H 16 V 23 H 15.8 A 1.95,1.95 0 0,0 15.68,22.35 C 15.63,22.28 15.54,22.29 15.42,22.38 C 15.2,22.55 14.98,22.69 14.74,22.82 A 2,2 0 0,1 13.83,23 C 11.9,23 11,21.3 11,19.56 C 11,17.86 11.92,16 13.84,16 Z" fill="rgb(59, 84, 137)"/>
<path d="M 13.83,23.985 C 14.21,24 14.52,24.06 14.76,24.19 C 15.01,24.31 15.23,24.45 15.42,24.62 C 15.53,24.72 15.62,24.72 15.67,24.66 C 15.74,24.58 15.78,24.27 15.8,24 H 16 V 26.36 H 15.77 L 15.65,25.67 A 1.8,1.8 0 0,0 15.26,24.85 C 15.1,24.62 14.89,24.45 14.66,24.35 C 14.41,24.25 14.16,24.2 13.89,24.2 C 12.34,24.2 12,26.42 12,27.56 C 12,28.73 12.38,30.8 13.96,30.8 C 14.19,30.8 14.43,30.75 14.69,30.65 C 14.94,30.54 15.14,30.38 15.29,30.16 C 15.45,29.97 15.56,29.76 15.61,29.53 C 15.68,29.28 15.73,28.96 15.77,28.55 H 16 V 31 H 15.8 A 1.95,1.95 0 0,0 15.68,30.35 C 15.63,30.28 15.54,30.29 15.42,30.38 C 15.2,30.55 14.98,30.69 14.74,30.82 A 2,2 0 0,1 13.83,31 C 11.9,31 11,29.3 11,27.56 C 11,25.86 11.92,24 13.84,24 Z" fill="rgb(129, 129, 132)"/>
<path d="M 18.49,17.985 V 18.14 C 18.07,18.14 18,18.28 18,18.72 V 22.31 C 18,22.72 18.05,22.84 18.46,22.84 H 18.93 C 19.92,22.84 20.21,22.16 20.3,21.4 H 20.5 V 23 H 16.5 V 22.86 C 16.93,22.84 17,22.72 17,22.28 V 18.72 C 17,18.29 16.93,18.15 16.5,18.14 V 18 H 18.5 Z M 23.5,18 C 24.95,18 26,19.08 26,20.5 C 26,21.9 24.94,23 23.5,23 A 2.44,2.44 0 0,1 21,20.49 C 21,19.09 22.07,18 23.5,18 Z M 23.48,18.12 C 22.3,18.12 22,19.6 22,20.5 C 22,21.43 22.36,22.88 23.53,22.88 C 24.69,22.88 25,21.41 25,20.5 C 25,19.58 24.64,18.12 23.48,18.12 Z M 31.34,18 V 18.14 C 30.86,18.16 30.76,18.43 30.76,18.87 V 20.93 C 30.76,22.05 30.36,23 29.09,23 C 27.76,23 27,22.17 27,20.95 V 18.72 C 27,18.28 26.43,18.15 26,18.14 V 18 H 28.71 V 18.14 C 28.27,18.14 28,18.28 28,18.72 V 21.17 C 28,21.97 28.27,22.77 29.23,22.77 C 30.27,22.77 30.6,21.92 30.6,21 V 18.9 C 30.6,18.4 30.42,18.16 29.92,18.14 V 18 H 31.34 Z M 34.45,18 C 34.77,18 35.03,18.05 35.23,18.14 C 35.43,18.22 35.61,18.32 35.77,18.44 C 35.84,18.49 35.88,18.51 35.92,18.51 C 36.02,18.51 36.07,18.28 36.1,18 H 36.27 C 36.24,18.56 36.24,19.12 36.24,19.68 H 36.07 A 4.18,4.18 0 0,0 35.93,19.08 A 1.05,1.05 0 0,0 35.65,18.6 C 35.52,18.46 35.35,18.35 35.13,18.26 C 34.93,18.18 34.71,18.14 34.49,18.14 C 33.28,18.14 33,19.57 33,20.55 C 33,22.18 33.45,22.86 34.54,22.86 C 34.7,22.86 34.84,22.84 34.94,22.8 C 35.2,22.71 35.34,22.61 35.38,22.52 C 35.4,22.47 35.5,22.4 35.5,22.32 V 21.65 C 35.5,21.12 35.2,21.15 34.68,21.14 V 21 H 36.86 V 21.14 C 36.49,21.15 36.5,21.24 36.5,21.56 V 23 H 36.35 C 36.33,22.59 35.91,22.46 35.62,22.64 A 1.92,1.92 0 0,1 34.46,23 C 33,23 32,22.06 32,20.57 C 32,19.15 32.98,18 34.45,18 Z M 40.5,23 V 22.86 C 40.93,22.84 41,22.63 41,22.18 V 18.82 C 41,18.38 40.93,18.15 40.5,18.14 V 18 H 42.5 V 18.14 C 42.07,18.14 42,18.38 42,18.82 V 22.18 C 42,22.62 42.07,22.84 42.5,22.86 V 23 H 40.5 Z M 37.5,23 V 22.86 C 37.93,22.84 38,22.63 38,22.18 V 18.82 C 38,18.29 37.93,18.15 37.5,18.14 V 18 H 39.5 V 18.14 C 39.07,18.14 39,18.38 39,18.82 V 22.18 C 39,22.62 39.07,22.84 39.5,22.86 V 23 H 37.5 Z M 38.54,20.55 V 20.42 H 41.41 V 20.55 H 38.54 Z" fill="rgb(59, 84, 137)"/>
<path d="M 19.58,25.985 L 21.4,30.41 C 21.54,30.76 21.74,30.85 21.9,30.86 V 31 H 19.98 V 30.86 C 20.42,30.84 20.59,30.71 20.41,30.27 L 19.07,26.86 L 19.19,26.73 L 17.96,29.78 A 2.2,2.2 0 0,0 17.8,30.3 C 17.75,30.74 18.06,30.85 18.44,30.86 V 31 H 17 V 30.86 C 17.2,30.81 17.42,30.66 17.61,30.21 L 19.33,26 H 19.59 Z M 20.37,29 V 29.14 H 18.15 L 18.23,29 H 20.37 Z M 21.99,26 H 24.11 C 24.98,26 25.99,26.39 25.99,27.42 C 25.99,28.52 24.92,28.99 23.95,28.99 H 23.22 V 28.85 H 23.87 C 24.71,28.85 25,28.29 25,27.5 C 25,26.61 24.79,26.13 23.95,26.13 C 23.53,26.13 23.5,26.38 23.5,26.77 V 30.24 C 23.5,30.78 23.71,30.84 24.2,30.85 V 31 H 21.99 V 30.86 C 22.44,30.83 22.5,30.71 22.5,30.26 V 26.77 C 22.5,26.33 22.43,26.15 21.99,26.13 V 26 Z M 28.5,26 V 26.13 C 28.05,26.15 28,26.32 28,26.76 V 30.24 C 28,30.69 28.05,30.84 28.5,30.86 V 31 H 26.46 V 30.86 C 26.91,30.83 27,30.72 27,30.27 V 26.79 C 27,26.34 26.9,26.15 26.46,26.13 V 26 H 28.49 Z M 33.63,26 V 27.59 H 33.43 C 33.32,26.81 33.1,26.19 32.21,26.19 H 32 V 30.19 C 32,30.75 32.14,30.84 32.66,30.86 V 31 H 30.32 V 30.86 C 30.83,30.84 31,30.75 31,30.19 V 26.19 H 30.71 C 29.85,26.19 29.61,26.8 29.51,27.59 H 29.31 V 26 H 33.63 Z M 35.59,26 L 37.4,30.41 C 37.54,30.76 37.74,30.85 37.9,30.86 V 31 H 35.98 V 30.86 C 36.42,30.84 36.59,30.71 36.41,30.27 L 35.07,26.86 L 35.19,26.73 L 33.96,29.78 A 2.2,2.2 0 0,0 33.8,30.3 C 33.75,30.74 34.06,30.85 34.44,30.86 V 31 H 33 V 30.86 C 33.2,30.81 33.42,30.66 33.61,30.21 L 35.33,26 H 35.59 Z M 36.37,29 V 29.14 H 34.15 L 34.23,29 H 36.37 Z M 40.1,26 V 26.14 C 39.65,26.15 39.5,26.32 39.5,26.77 V 30.28 C 39.5,30.71 39.63,30.84 40.05,30.84 H 40.54 C 41.41,30.84 41.7,30.22 41.8,29.44 H 42 V 31 H 38 V 30.86 C 38.45,30.83 38.5,30.71 38.5,30.26 V 26.77 C 38.5,26.3 38.44,26.15 38,26.14 V 26 H 40.1 Z M 11,32 L 13.65,32.01 C 14.86,32.01 16,32.66 16,34 C 16,35.47 14.8,36.2 13.44,36.2 H 12.54 V 36 H 13.35 C 14.49,36 15,35.01 15,34 C 15,33.02 14.57,32.2 13.45,32.2 C 13,32.2 13,32.54 13,33.05 V 37.93 C 13,38.63 13.1,38.78 13.76,38.79 V 39 H 11 V 38.8 C 11.6,38.76 12,38.52 12,37.93 V 33.03 C 12,32.45 11.6,32.22 11,32.2 V 32 Z M 18.44,34 L 20.14,38.33 C 20.28,38.67 20.47,38.85 20.62,38.86 V 39 H 18.8 V 38.86 C 19.22,38.85 19.37,38.61 19.2,38.2 L 17.94,34.89 L 18.06,34.76 L 16.89,37.72 C 16.81,37.92 16.76,38.09 16.74,38.23 C 16.7,38.65 16.98,38.85 17.34,38.86 V 39 H 16 V 38.86 C 16.2,38.82 16.4,38.57 16.57,38.13 L 18.2,34 H 18.44 Z M 19.17,37 V 37.14 H 17.1 L 17.17,37 H 19.18 Z M 20.5,34 H 22.7 C 23.45,34 24.5,34.42 24.5,35.35 C 24.5,36.36 23.38,36.62 22.54,36.62 H 21.87 V 36.48 H 22.47 C 23.21,36.48 23.5,36.08 23.5,35.35 C 23.5,34.63 23.33,34.13 22.55,34.13 C 22.15,34.13 22,34.43 22,34.81 V 38.28 C 22,38.7 22.18,38.84 22.54,38.86 V 39 H 20.7 V 38.86 C 21,38.85 21,38.72 21,38.28 V 34.81 C 21,34.39 20.93,34.14 20.5,34.13 V 33.99 Z M 21.88,36.5 A 10.85,10.85 0 0,1 23.1,36.6 C 23.45,36.64 23.7,36.73 23.86,36.87 C 24.02,37 24.14,37.21 24.2,37.49 L 24.37,38.19 C 24.41,38.39 24.46,38.52 24.5,38.6 C 24.56,38.69 24.63,38.73 24.73,38.73 C 24.8,38.73 24.86,38.7 24.91,38.67 L 25.07,38.5 L 25.17,38.58 C 25.07,38.72 24.95,38.83 24.83,38.9 A 0.93,0.93 0 0,1 24.36,39 A 0.89,0.89 0 0,1 23.85,38.85 C 23.71,38.75 23.61,38.55 23.55,38.26 L 23.41,37.58 L 23.27,37.08 A 0.8,0.8 0 0,0 23.05,36.74 C 22.95,36.66 22.83,36.62 22.65,36.62 H 21.9 L 21.88,36.5 Z M 29.07,34 L 29.04,35.51 H 28.88 C 28.78,34.77 28.65,34.16 27.8,34.16 H 27.5 V 38.22 C 27.5,38.75 27.66,38.84 28.16,38.86 V 39 H 25.9 V 38.86 C 26.4,38.84 26.49,38.72 26.49,38.19 V 34.16 H 26 C 25.15,34.16 25.29,34.77 25.19,35.51 H 25.03 L 25,34 H 29.07 Z M 34.24,34 V 34.14 C 33.76,34.16 33.69,34.44 33.69,34.87 V 39 H 33.46 L 30.49,34.65 V 38.1 C 30.49,38.6 30.61,38.83 31.14,38.86 V 39 H 29.77 V 38.86 C 30.24,38.82 30.33,38.56 30.33,38.13 V 34.73 C 30.33,34.55 30.31,34.43 30.28,34.35 C 30.23,34.19 30.08,34.15 29.78,34.14 V 34 H 30.97 L 33.53,37.64 V 34.9 C 33.53,34.4 33.39,34.16 32.88,34.14 V 34 H 34.24 Z M 38.33,34 L 38.3,35.3 H 38.14 C 38.06,34.64 37.86,34.16 37.13,34.16 H 36.64 C 36.24,34.16 36,34.29 36,34.69 V 38.31 C 36,38.71 36.24,38.84 36.64,38.84 H 37.1 C 37.93,38.84 38.18,38.21 38.28,37.46 H 38.44 L 38.47,39 C 38.44,38.96 34.5,39 34.5,39 V 38.86 C 34.93,38.84 35,38.74 35,38.31 V 34.75 C 35,34.33 34.93,34.15 34.5,34.14 V 34 H 38.33 Z M 37.16,36.41 V 36.55 H 35.9 V 36.41 H 37.17 Z M 37.36,35.51 L 37.39,37.45 H 37.23 L 37.13,37.02 A 0.67,0.67 0 0,0 36.93,36.68 C 36.83,36.59 36.69,36.55 36.49,36.55 V 36.41 A 0.6,0.6 0 0,0 36.84,36.32 A 0.58,0.58 0 0,0 37.04,36.09 C 37.09,35.99 37.12,35.89 37.14,35.79 L 37.2,35.51 H 37.37 Z M 39,34 H 41.07 C 41.82,34 43,34.27 43,35.2 C 43,36.25 41.84,36.62 40.91,36.62 H 40.24 V 36.48 H 40.84 C 41.58,36.48 42,36.24 42,35.5 C 42,34.78 41.7,34.13 40.92,34.13 C 40.52,34.13 40.5,34.33 40.5,34.7 V 38.26 C 40.5,38.69 40.58,38.84 41,38.86 V 39 H 39 V 38.86 C 39.43,38.84 39.5,38.71 39.5,38.28 V 34.72 C 39.5,34.29 39.43,34.14 39,34.13 V 33.99 Z M 40.25,36.5 A 10.84,10.84 0 0,1 41.47,36.6 C 41.82,36.64 42.07,36.73 42.23,36.87 C 42.39,37 42.5,37.21 42.57,37.49 L 42.74,38.19 C 42.78,38.39 42.83,38.52 42.87,38.6 C 42.92,38.69 43,38.73 43.1,38.73 C 43.17,38.73 43.23,38.7 43.28,38.67 L 43.44,38.5 L 43.54,38.58 C 43.44,38.72 43.32,38.83 43.2,38.9 A 0.93,0.93 0 0,1 42.73,39 A 0.89,0.89 0 0,1 42.21,38.85 C 42.07,38.75 41.97,38.55 41.91,38.26 L 41.77,37.58 C 41.73,37.38 41.68,37.22 41.63,37.08 A 0.79,0.79 0 0,0 41.42,36.74 C 41.32,36.66 41.2,36.62 41.02,36.62 H 40.27 L 40.25,36.5 Z M 45.3,34 C 45.55,34 45.73,34.03 45.87,34.08 L 46.21,34.26 L 46.34,34.33 A 0.3,0.3 0 0,0 46.44,34.35 C 46.49,34.35 46.53,34.33 46.54,34.28 A 0.83,0.83 0 0,0 46.6,34.05 H 46.76 L 46.74,34.35 L 46.73,34.78 V 35.5 H 46.57 A 1.96,1.96 0 0,0 46.41,34.85 A 1.2,1.2 0 0,0 46.03,34.35 A 0.97,0.97 0 0,0 45.4,34.15 A 0.86,0.86 0 0,0 44.8,34.35 A 0.7,0.7 0 0,0 44.58,34.9 C 44.58,35.1 44.63,35.27 44.73,35.4 C 44.83,35.53 44.97,35.66 45.15,35.78 L 45.77,36.16 C 46,36.3 46.21,36.45 46.4,36.6 C 46.58,36.74 46.73,36.9 46.84,37.07 C 46.94,37.24 47,37.45 47,37.69 C 47,37.99 46.93,38.23 46.78,38.43 C 46.64,38.62 46.45,38.76 46.22,38.86 C 45.98,38.96 45.72,39 45.43,39 A 1.92,1.92 0 0,1 44.41,38.75 A 0.51,0.51 0 0,0 44.18,38.65 C 44.13,38.65 44.1,38.68 44.08,38.73 C 44.05,38.78 44.04,38.85 44.02,38.95 H 43.86 L 43.88,38.6 V 38.07 L 43.89,37.25 H 44.05 C 44.07,37.53 44.12,37.79 44.2,38.04 C 44.3,38.28 44.43,38.48 44.6,38.64 C 44.79,38.78 45.03,38.85 45.33,38.85 C 45.48,38.85 45.63,38.82 45.77,38.76 A 0.74,0.74 0 0,0 46.1,38.48 C 46.18,38.36 46.22,38.19 46.22,37.99 A 0.87,0.87 0 0,0 46.08,37.5 A 1.42,1.42 0 0,0 45.7,37.11 A 5.52,5.52 0 0,0 45.14,36.74 C 44.92,36.6 44.72,36.47 44.53,36.33 C 44.33,36.19 44.18,36.03 44.06,35.85 A 1.2,1.2 0 0,1 43.9,35.21 C 43.9,34.93 43.96,34.71 44.1,34.52 C 44.23,34.35 44.4,34.22 44.61,34.12 C 44.83,34.04 45.05,34 45.3,34 Z" fill="rgb(129, 129, 132)"/>
</svg>
