<?xml version="1.0" encoding="UTF-8"?>
<!-- generated by Finnhub -->
<svg viewBox="0 0 55.5 55.5" xmlns="http://www.w3.org/2000/svg">
<path d="M 0,0 H 55.5 V 55.5 H 0 Z" fill="url(#a)"/>
<path d="M 27.59,12.885 C 28.12,12.9 28.54,12.47 28.54,11.95 A 0.94,0.94 0 0,0 27.61,11 A 0.95,0.95 0 1,0 27.13,12.76 L 26.04,14.94 A 0.76,0.76 0 0,0 25.09,15.68 C 25.09,16.09 25.43,16.44 25.84,16.44 C 26.14,16.44 26.41,16.26 26.53,16 L 29.39,16.12 C 29.43,16.72 29.92,17.2 30.52,17.2 C 31.12,17.2 31.62,16.73 31.65,16.13 L 34.44,16.07 A 0.76,0.76 0 0,0 35.32,16.64 L 36.29,19.07 A 0.95,0.95 0 0,0 36.71,20.87 A 0.94,0.94 0 0,0 37.61,19.67 L 42.42,18.47 C 42.52,18.77 42.8,18.97 43.12,18.97 L 43.81,24.27 A 0.92,0.92 0 0,0 43.58,24.37 L 41.25,21.39 A 0.95,0.95 0 0,0 40.64,19.73 A 0.94,0.94 0 0,0 39.7,20.67 A 0.94,0.94 0 0,0 41.08,21.51 L 43.41,24.51 A 0.95,0.95 0 0,0 44.07,26.13 C 44.58,26.13 45,25.71 45,25.19 A 0.94,0.94 0 0,0 44.02,24.24 L 43.32,18.94 A 0.76,0.76 0 0,0 43.88,18.21 A 0.76,0.76 0 0,0 43.13,17.45 A 0.76,0.76 0 0,0 42.38,18.26 L 37.53,19.46 A 0.95,0.95 0 0,0 37.21,19.12 L 38.52,16.4 C 38.59,16.42 38.66,16.44 38.73,16.44 C 39.15,16.44 39.49,16.09 39.49,15.67 A 0.76,0.76 0 0,0 38.73,14.91 A 0.76,0.76 0 1,0 38.33,16.31 L 37.03,19.03 A 0.92,0.92 0 0,0 36.48,19 L 35.52,16.56 A 0.76,0.76 0 0,0 35.17,15.12 C 34.76,15.12 34.43,15.45 34.41,15.86 L 31.65,15.92 C 31.62,15.65 31.49,15.42 31.31,15.23 L 33.11,12.79 A 0.76,0.76 0 0,0 34.23,12.13 A 0.76,0.76 0 0,0 33.49,11.37 A 0.77,0.77 0 1,0 32.95,12.67 L 31.15,15.1 C 30.97,14.98 30.75,14.9 30.52,14.9 C 29.95,14.9 29.47,15.34 29.4,15.9 L 26.59,15.79 V 15.67 A 0.76,0.76 0 0,0 26.23,15.02 L 27.31,12.84 C 27.41,12.88 27.51,12.89 27.61,12.89 Z M 41.58,32.07 V 32.23 C 41.58,32.86 42.08,33.37 42.7,33.37 C 43.33,33.37 43.84,32.86 43.84,32.23 A 1.13,1.13 0 1,0 41.64,31.87 L 39.89,31.42 V 31.37 A 0.76,0.76 0 0,0 39.14,30.61 A 0.76,0.76 0 0,0 38.39,31.37 C 38.39,31.68 38.57,31.95 38.83,32.07 L 37.96,35.03 A 0.94,0.94 0 0,0 36.97,35.51 L 34.17,34.72 A 1.4,1.4 0 0,0 34.13,33.92 A 7.42,7.42 0 0,0 35.55,30.43 A 19.93,19.93 0 0,0 39.21,28.03 A 5,5 0 0,0 40.32,26.73 C 40.57,26.26 40.67,25.75 40.48,25.23 C 40.28,24.75 39.86,24.36 39.26,24.07 C 38.95,23.91 38.56,23.77 38.12,23.64 A 1.32,1.32 0 0,0 36.84,22.61 C 36.12,22.61 35.53,23.21 35.53,23.94 C 35.53,24.68 36.12,25.27 36.84,25.27 C 37.34,25.27 37.76,25 37.99,24.6 C 38.33,24.7 38.61,24.81 38.84,24.93 C 39.33,25.17 39.53,25.41 39.59,25.59 C 39.66,25.75 39.65,25.96 39.49,26.27 C 39.32,26.57 39.02,26.93 38.59,27.32 C 37.84,27.97 36.8,28.65 35.64,29.3 C 35.64,29.04 35.64,28.8 35.61,28.58 A 4.94,4.94 0 0,0 35.31,27.28 L 35.32,27.15 C 35.32,26.39 34.72,25.77 33.96,25.77 C 33.33,25.77 32.81,26.19 32.64,26.77 C 32.52,26.77 32.39,26.79 32.25,26.81 C 31.43,26.91 30.45,27.2 29.43,27.55 C 27.96,28.07 26.39,28.75 25.1,29.38 A 1.35,1.35 0 0,0 24.16,29 C 23.41,29 22.8,29.62 22.8,30.38 C 22.8,31.15 23.4,31.77 24.16,31.77 A 1.37,1.37 0 0,0 25.52,30.24 C 26.79,29.63 28.32,28.96 29.74,28.46 A 14.35,14.35 0 0,1 32.71,27.72 A 1.37,1.37 0 0,0 34.63,28.35 A 5.22,5.22 0 0,1 34.67,29.82 A 38.87,38.87 0 0,1 20.77,34.14 A 8.39,8.39 0 0,1 19.71,32.65 A 5.64,5.64 0 0,1 19.03,29.98 C 19.6,29.61 20.23,29.24 20.9,28.88 A 47.66,47.66 0 0,1 29,25.54 A 1.36,1.36 0 0,0 31.48,24.75 C 31.48,23.99 30.88,23.37 30.12,23.37 C 29.41,23.37 28.82,23.91 28.76,24.61 A 48.58,48.58 0 0,0 20.46,28.03 C 19.99,28.29 19.53,28.54 19.09,28.81 C 19.16,28.26 19.29,27.71 19.47,27.15 H 19.5 C 20.3,27.15 20.96,26.48 20.96,25.66 C 20.96,25.31 20.84,24.98 20.63,24.72 A 9.32,9.32 0 0,1 23.97,21.59 C 24.27,21.87 24.66,22.04 25.09,22.04 C 25.89,22.04 26.56,21.44 26.69,20.67 C 28.54,20.37 30.27,20.69 31.5,21.12 L 31.48,21.38 C 31.48,22.29 32.21,23.03 33.11,23.03 C 34.01,23.03 34.73,22.29 34.73,21.38 C 34.73,20.48 34,19.74 33.11,19.74 C 32.64,19.74 32.22,19.94 31.93,20.25 C 30.56,19.76 28.64,19.39 26.57,19.72 A 1.62,1.62 0 0,0 23.5,20.75 A 10.27,10.27 0 0,0 19.83,24.21 A 1.48,1.48 0 0,0 18.04,25.86 L 15.96,26.53 A 0.76,0.76 0 0,0 15.43,26.03 L 16.03,22.57 H 16.07 C 16.59,22.57 17.01,22.14 17.01,21.62 A 0.94,0.94 0 0,0 16.07,20.67 A 0.94,0.94 0 0,0 15.14,21.62 C 15.14,22.06 15.44,22.42 15.83,22.53 L 15.22,26 C 14.92,26 14.65,26.2 14.54,26.47 L 12.24,25.59 L 12.26,25.32 A 1.131,1.131 0 1,0 10,25.32 C 10,25.95 10.5,26.47 11.13,26.47 C 11.59,26.47 11.99,26.19 12.17,25.79 L 14.49,26.68 A 0.76,0.76 0 0,0 15.24,27.52 C 15.66,27.52 16,27.18 16,26.76 V 26.74 L 18.08,26.08 C 18.17,26.38 18.35,26.64 18.58,26.82 A 9.9,9.9 0 0,0 18.08,29.45 C 17.53,29.83 17.04,30.22 16.62,30.6 C 16.14,31.04 15.75,31.5 15.49,31.97 C 15.24,32.43 15.11,32.94 15.22,33.46 C 15.42,34.44 16.4,34.87 17.44,35.06 C 18.26,35.2 19.28,35.21 20.4,35.13 C 21.18,35.9 22.1,36.46 23.2,36.8 C 23.8,36.99 24.44,37.1 25.13,37.15 C 25.33,37.85 25.96,38.36 26.71,38.36 C 27.55,38.36 28.23,37.73 28.34,36.92 C 28.97,36.81 29.63,36.65 30.32,36.45 C 31.04,36.25 31.68,35.96 32.23,35.63 A 1.37,1.37 0 0,0 34.11,34.93 L 36.89,35.71 A 0.94,0.94 0 0,0 37.79,36.91 C 37.99,36.91 38.18,36.84 38.33,36.74 L 40.03,38.89 A 0.56,0.56 0 0,0 39.95,39.02 L 34.98,38.37 A 0.94,0.94 0 0,0 34.04,37.47 A 0.94,0.94 0 0,0 33.17,38.75 L 28.83,41.36 A 0.75,0.75 0 0,0 28.25,41.09 A 0.76,0.76 0 0,0 27.5,41.86 C 27.5,42.28 27.84,42.62 28.25,42.62 A 0.76,0.76 0 0,0 28.95,41.54 L 33.26,38.94 C 33.31,39.02 33.37,39.09 33.44,39.15 A 1154.2,1154.2 0 0,0 32.21,41.51 A 0.76,0.76 0 0,0 31.22,42.24 C 31.22,42.66 31.57,43 31.98,43 A 0.76,0.76 0 1,0 32.4,41.6 A 475.93,475.93 0 0,1 33.62,39.27 A 0.94,0.94 0 0,0 34.96,38.59 L 39.91,39.23 V 39.25 C 39.91,39.55 40.15,39.81 40.46,39.81 C 40.76,39.81 41.01,39.56 41.01,39.25 A 0.55,0.55 0 0,0 40.2,38.75 L 38.49,36.59 A 0.95,0.95 0 0,0 38.16,35.09 L 39.03,32.13 H 39.14 C 39.47,32.13 39.74,31.93 39.85,31.63 L 41.58,32.07 Z M 33.49,33.17 A 6.5,6.5 0 0,0 34.48,30.99 A 39.94,39.94 0 0,1 21.71,34.99 C 22.24,35.39 22.82,35.69 23.48,35.89 C 23.98,36.04 24.54,36.15 25.14,36.19 A 1.64,1.64 0 1,1 28.2,35.97 C 28.78,35.87 29.4,35.72 30.06,35.53 A 6.97,6.97 0 0,0 31.58,34.9 A 1.37,1.37 0 0,1 33.5,33.17 Z M 19.59,34.22 C 19.34,33.88 19.11,33.52 18.89,33.12 A 6.34,6.34 0 0,1 18.12,30.61 C 17.8,30.84 17.51,31.08 17.25,31.31 C 16.82,31.71 16.51,32.09 16.32,32.43 C 16.14,32.76 16.1,33.03 16.14,33.26 C 16.21,33.6 16.59,33.94 17.6,34.11 A 10,10 0 0,0 19.6,34.21 Z M 23.47,42.62 C 22.85,42.62 22.35,42.12 22.33,41.5 L 20.98,41.45 A 0.76,0.76 0 0,1 20.25,42.03 A 0.76,0.76 0 0,1 19.5,41.27 A 0.751,0.751 0 0,1 21,41.24 L 22.35,41.28 C 22.38,41.09 22.46,40.91 22.58,40.77 L 19.06,37.59 A 0.75,0.75 0 0,1 18.31,37.75 L 17.54,39.49 A 1.15,1.15 0 0,1 17.01,41.65 C 16.38,41.65 15.88,41.14 15.88,40.51 A 1.14,1.14 0 0,1 17.34,39.41 L 18.12,37.66 A 0.76,0.76 0 0,1 18.55,36.26 A 0.774,0.774 0 0,1 19.2,37.43 L 22.72,40.61 A 1.14,1.14 0 0,1 24.6,41.47 C 24.6,42.11 24.1,42.62 23.47,42.62 Z M 18.13,14.43 A 0.94,0.94 0 0,1 17,13.5 C 17,12.99 17.43,12.56 17.94,12.56 A 0.947,0.947 0 0,1 18.33,14.37 L 19.77,18.22 A 0.92,0.92 0 0,1 20.37,18.24 L 21.63,15.94 A 0.76,0.76 0 0,1 22.04,14.53 C 22.46,14.53 22.8,14.87 22.8,15.29 A 0.76,0.76 0 0,1 21.82,16.02 L 20.55,18.34 A 0.95,0.95 0 0,1 20.03,20.08 A 0.95,0.95 0 1,1 19.58,18.3 L 18.13,14.43 Z M 12.1,35.96 C 12.52,35.96 12.86,35.62 12.86,35.19 A 0.76,0.76 0 0,0 12.1,34.43 A 0.76,0.76 0 0,0 11.35,35.19 C 11.35,35.62 11.69,35.96 12.1,35.96 Z M 13.61,19.13 C 14.03,19.13 14.37,18.79 14.37,18.37 A 0.76,0.76 0 0,0 13.61,17.6 A 0.76,0.76 0 0,0 12.86,18.37 C 12.86,18.79 13.2,19.13 13.61,19.13 Z" fill="rgb(254, 254, 253)" fill-rule="evenodd"/>
<defs>
<linearGradient id="a" x1="10.42" x2="68.15" y1="9.71" y2="76.02" gradientUnits="userSpaceOnUse">
<stop stop-color="rgb(25, 29, 31)" offset="0"/>
<stop stop-color="rgb(5, 5, 8)" offset="1"/>
</linearGradient>
</defs>
</svg>
