<?xml version="1.0" encoding="UTF-8"?>
<!-- generated by Finnhub -->
<svg viewBox="0 0 55.5 55.5" xmlns="http://www.w3.org/2000/svg">
<path d="M 0,0 H 55.5 V 55.5 H 0 Z" fill="rgb(239, 242, 248)"/>
<path d="M 27.99,42.985 C 29.66,43 31,41.43 31,39.5 S 29.66,36 28,36 S 25,37.57 25,39.5 S 26.34,43 28,43 Z M 28,35 C 29.65,35 31,33.43 31,31.5 S 29.65,28 28,28 C 26.33,28 25,29.55 25,31.5 C 25,33.45 26.35,35 28,35 M 25.52,27.58 C 26.2,26.17 25.28,24.32 23.48,23.45 A 4.42,4.42 0 0,0 21.5,23 C 20.38,23.02 19.4,23.52 18.97,24.43 C 18.29,25.85 19.2,27.68 21.01,28.55 C 22.81,29.42 24.84,28.99 25.51,27.58 Z" fill="rgb(98, 100, 103)"/>
<path d="M 17.759999999999998,23.564999999999998 C 18.45,22.17 17.54,20.32 15.74,19.45 C 13.93,18.59 11.91,19.01 11.23,20.43 C 10.55,21.85 11.46,23.68 13.26,24.55 C 15.07,25.42 17.09,25 17.77,23.58 Z" fill="rgb(60, 128, 115)"/>
<path d="M 30.549999999999997,27.564999999999998 C 29.88,26.17 30.79,24.32 32.6,23.45 C 33.23,23.15 33.89,23 34.5,23 C 35.65,23 36.66,23.5 37.1,24.43 C 37.8,25.85 36.87,27.68 35.07,28.55 C 33.26,29.42 31.24,29 30.56,27.58 Z M 38.23,23.57 C 37.55,22.17 38.46,20.32 40.26,19.45 C 42.06,18.58 44.06,19 44.76,20.43 C 44.93,20.77 45.01,21.13 45,21.5 C 44.97,22.67 44.1,23.89 42.74,24.55 C 40.94,25.42 38.93,25 38.23,23.57 Z" fill="rgb(98, 100, 103)"/>
</svg>
