<?xml version="1.0" encoding="UTF-8"?>
<!-- generated by Finnhub -->
<svg viewBox="0 0 55.5 55.5" xmlns="http://www.w3.org/2000/svg">
<path d="M 0,0 H 55.5 V 55.5 H 0 Z" fill="rgb(63, 63, 62)"/>
<path d="M 13.0,24.205 L 6,21 V 24.22 L 13.01,27.3 L 20,24.22 V 21 L 13.01,24.22 Z" fill="rgb(254, 254, 253)"/>
<path d="M 13.0,28.055 L 6,24.85 V 28.07 L 13.01,31.14 L 20,28.07 V 24.85 L 13.01,28.07 Z" fill="rgb(219, 28, 35)"/>
<path d="M 13.0,31.905 L 6,28.7 V 31.92 L 13.01,35 L 20,31.92 V 28.7 L 13.01,31.92 Z M 25.53,22 H 23 V 34 H 31 V 31 H 26 V 29.5 H 30 V 26.5 H 26 V 25 H 31 V 22 H 25.53 Z M 34.53,22 H 32 V 34 H 40 V 31 H 35 V 29.5 H 39 V 26.5 H 35 V 25 H 40 V 22 H 34.53 Z M 43,22 A 2,2 0 0,0 41,24 V 32 C 41,33.1 41.9,34 43,34 H 50 V 26.5 H 45.5 V 29.5 H 47 V 31 H 44.5 A 0.5,0.5 0 0,1 44,30.5 V 25.5 C 44,25.23 44.22,25 44.5,25 H 50 V 22 H 43 Z" fill="rgb(254, 254, 253)"/>
</svg>
