<?xml version="1.0" encoding="UTF-8"?>
<!-- generated by Finnhub -->
<svg fill="none" viewBox="0 0 55.5 55.5" xmlns="http://www.w3.org/2000/svg">
<path d="M 0,0 H 55.5 V 55.5 H 0 Z" fill="rgb(1, 41, 99)"/>
<path d="M 37.99,13.985 S 24.613,14.486 23,27.005 H 8 S 13.342,12.982 38,14 Z M 38.004,41.997 S 25.114,41.555 23,30 H 8 S 13.345,42.977 38.004,41.997 Z" fill="rgb(223, 33, 51)"/>
<path d="M 42.25,19.532 C 43,20.197 43.83,20.937 43.83,20.937 C 43.83,22.855 40.996,23.897 37.483,23.519 C 33.968,23.139 31.178,21.465 31.178,19.548" stroke="rgb(254, 254, 253)" stroke-width=".75"/>
<path d="M 46.242000000000004,24.552 C 46.252,27.721 42.387,29.711 37.228,29.033 C 31.586,28.291 27.735,25.598 27.86,22.376" stroke="rgb(254, 254, 253)" stroke-width=".75"/>
<path d="M 46.906,28.615 C 46.107,32.598 41.76,35.042 36.032,34.132 C 29.863,33.152 26.389,29.816 26.343,25.782 M 37.64,17.857 C 37.38,20.602 36.01,31.455 35.19,38.354" stroke="rgb(254, 254, 253)" stroke-width=".75"/>
<path d="M 38.626000000000005,18.235 C 36.729,17.974 34.763,21.244 32.664,26.625 C 31.276,30.185 30.53,34.15 31.246,37.199" stroke="rgb(254, 254, 253)" stroke-width=".75"/>
<path d="M 39.924,18.445 C 37.211,18.108 34.62,19.324 31.539,23.399 C 29.262,26.411 27.103,31.109 28.574,35.168" stroke="rgb(254, 254, 253)" stroke-width=".75"/>
<path d="M 26.482,31.041 C 26.349,28.476 26.592,25.087 31.401,20.919 C 34.077,18.648 39.094,17.493 42.893,20.121 M 27.503,23.002 C 29.089,20.966 32.498,17.618 37.805,18.004 M 37.737,17.985 S 31.197,19.38 30.513,19.819" stroke="rgb(254, 254, 253)" stroke-width=".75"/>
<path d="M 37.811,17.957 C 39.816,18.982 44.406,25.947 44.151,32.102 C 44.078,33.864 43.69,35.502 42.577,36.816" stroke="rgb(254, 254, 253)" stroke-width=".75"/>
<path d="M 38.802,38.339 C 40.218,36.126 40.443,32.972 40.287,29.765 C 40.004,23.958 38.17,18.088 37.717,18.004 C 37.717,18.004 41.803,18.536 45.067,22.265" stroke="rgb(254, 254, 253)" stroke-width=".75"/>
<path d="M 45.546,33.702 C 47.387,25.044 39.29,18.103 37.822,18.004 C 37.822,18.004 44.232,18.05 46.782,26.246" stroke="rgb(254, 254, 253)" stroke-width=".75"/>
<circle cx="36.517" cy="28.312" r="10.379" stroke="rgb(254, 254, 253)"/>
</svg>
