<?xml version="1.0" encoding="UTF-8"?>
<!-- generated by Finnhub -->
<svg viewBox="0 0 55.5 55.5" xmlns="http://www.w3.org/2000/svg">
<path d="M 0,0 H 55.5 V 55.5 H 0 Z" fill="rgb(239, 242, 248)"/>
<path d="M 29.79,11.985 H 26.26 A 15.59,15.59 0 0,0 18.86,14.54 C 17.81,15.24 16.71,16.18 15.56,17.34 A 15.31,15.31 0 0,0 11.89,23.49 A 16.9,16.9 0 0,0 12.54,35.95 A 16.94,16.94 0 0,0 17.11,41.85 C 17.17,41.9 17.22,41.9 17.27,41.85 L 19.42,39.95 A 0.19,0.19 0 0,1 19.62,39.9 L 21.7,40.48 C 21.8,40.51 21.9,40.5 21.99,40.45 C 22.85,40.01 23.69,39.5 24.51,38.9 C 24.81,38.69 24.89,38.4 24.75,38.06 A 0.18,0.18 0 0,0 24.6,37.94 L 24.29,37.9 C 24.01,37.87 23.87,37.7 23.86,37.43 A 7.1,7.1 0 0,0 22.94,34.53 C 22.79,34.22 22.83,34 23.04,33.88 C 23.49,33.63 23.81,33.18 24,32.55 A 0.37,0.37 0 0,0 23.99,32.3 L 23.71,31.7 A 6.43,6.43 0 0,1 23.19,30.33 C 23.14,30.13 23.02,30.05 22.82,30.1 A 0.77,0.77 0 0,0 22.59,30.2 A 0.46,0.46 0 0,0 22.37,30.66 C 22.41,31.04 22.52,31.41 22.69,31.78 C 22.93,32.31 22.97,32.76 22.8,33.14 C 22.52,33.77 22.4,34.48 22.42,35.25 C 22.44,35.84 22.32,36.36 22.05,36.83 C 21.74,37.37 21.32,37.67 20.78,37.72 C 20.15,37.78 19.68,37.42 19.35,36.65 C 19.29,36.49 19.33,36.45 19.49,36.52 C 19.72,36.62 19.97,36.67 20.25,36.66 C 20.38,36.66 20.48,36.61 20.55,36.5 C 20.61,36.39 20.61,36.28 20.55,36.16 A 6.17,6.17 0 0,1 20.18,35.27 C 20.08,34.97 20.08,34.49 20.2,33.83 L 20.3,33.26 A 0.5,0.5 0 0,0 20.21,32.92 C 20.17,32.85 20.11,32.85 20.07,32.92 A 2.7,2.7 0 0,1 19.79,33.26 A 0.25,0.25 0 0,1 19.57,33.35 C 19.47,33.34 19.45,33.29 19.49,33.21 C 19.63,32.94 19.66,32.56 19.58,32.06 A 3.22,3.22 0 0,1 19.8,30.12 C 20.05,29.54 20.4,29.14 20.85,28.92 C 21.59,28.58 22.37,28.63 23.18,29.07 C 23.28,29.12 23.34,29.1 23.38,29.01 C 23.75,28.21 24.36,27.68 25.25,27.39 C 26.67,26.93 27.35,25.99 27.27,24.54 C 27.26,24.21 27.19,24.2 27.08,24.52 A 3,3 0 0,0 27,24.81 C 26.85,25.46 26.48,26 25.9,26.44 C 25.59,26.67 25.51,26.61 25.67,26.26 C 25.97,25.59 25.89,24.68 25.45,23.53 L 25.33,23.21 C 25.28,23.09 25.23,23.09 25.2,23.21 C 25.05,23.67 25.06,24.21 25.22,24.83 C 25.33,25.23 25.27,25.26 25.03,24.92 A 3.9,3.9 0 0,1 24.4,22.35 C 24.4,22.3 24.38,22.27 24.33,22.25 L 24.26,22.24 H 24.25 C 24.15,22.61 23.98,22.88 23.71,23.04 C 23.6,23.12 23.56,23.1 23.61,22.96 C 23.76,22.46 23.85,22.04 23.85,21.68 V 21.61 C 23.85,20.59 24.06,19.86 24.47,19.41 C 24.51,19.37 24.51,19.33 24.47,19.29 L 24.43,19.25 H 24.42 C 24.15,19.5 23.85,19.62 23.52,19.6 C 23.41,19.6 23.39,19.55 23.46,19.47 C 23.77,19.09 24.03,18.67 24.25,18.24 C 24.33,18.08 24.51,17.94 24.8,17.8 C 24.94,17.74 24.93,17.69 24.8,17.64 A 1.01,1.01 0 0,1 24.5,17.51 C 24.38,17.44 24.4,17.38 24.52,17.35 C 24.8,17.29 25.05,17.16 25.26,16.97 C 25.96,16.37 26.6,16.07 27.19,16.09 C 28.32,16.11 29.01,15.79 29.25,15.11 C 29.3,14.97 29.35,14.96 29.42,15.1 C 29.61,15.49 29.67,15.92 29.59,16.39 C 29.55,16.67 29.64,16.73 29.86,16.55 C 29.92,16.5 29.99,16.45 30.05,16.38 L 32.36,13.83 C 32.38,13.8 32.41,13.8 32.46,13.82 C 32.49,13.84 32.5,13.87 32.48,13.91 L 30.6,17.21 C 30.52,17.35 30.54,17.49 30.66,17.61 A 12.32,12.32 0 0,1 32.15,19.29 C 32.43,19.68 32.54,19.99 32.45,20.25 C 32.34,20.63 32.15,20.92 31.87,21.13 C 31.68,21.28 31.5,21.27 31.34,21.09 A 3.43,3.43 0 0,1 31.26,21.01 C 30.71,20.43 30.27,20.15 29.93,20.16 C 29.76,20.16 29.67,20.26 29.67,20.42 C 29.65,21.16 30.02,21.64 30.77,21.88 C 32.01,22.28 32.84,22.98 33.25,24.02 C 33.33,24.21 33.43,24.22 33.55,24.05 C 34.21,23.07 34.79,22.94 35.3,23.65 L 37.03,26.11 C 37.14,26.28 37.17,26.45 37.1,26.64 L 36.67,27.87 C 36.65,27.93 36.61,27.95 36.55,27.92 C 36.02,27.66 35.72,27.31 35.65,26.85 C 35.62,26.75 35.66,26.67 35.75,26.62 L 36.02,26.49 C 36.17,26.41 36.19,26.31 36.08,26.19 C 35.73,25.77 35.33,25.39 34.87,25.06 C 34.7,24.94 34.54,24.95 34.38,25.1 C 34.09,25.37 33.78,25.6 33.42,25.8 C 33.33,25.85 33.32,25.92 33.38,26 L 33.42,26.06 C 33.44,26.1 33.47,26.11 33.52,26.09 L 34.32,25.71 A 0.3,0.3 0 0,1 34.54,25.69 C 34.93,25.81 35.16,26.09 35.24,26.54 C 35.33,27.12 35.49,27.67 35.73,28.18 C 35.97,28.72 35.99,29.23 35.79,29.71 C 35.59,30.21 35.19,30.51 34.61,30.64 A 0.58,0.58 0 0,0 34.27,30.85 C 34.01,31.17 33.68,31.39 33.27,31.5 C 33.19,31.53 33.14,31.5 33.13,31.4 C 33.1,30.82 33.23,30.25 33.52,29.7 C 33.55,29.64 33.61,29.61 33.68,29.62 L 33.98,29.66 C 34.07,29.67 34.14,29.66 34.2,29.6 L 34.91,29 C 34.99,28.92 35.01,28.84 34.97,28.73 A 8.18,8.18 0 0,0 34.27,27.35 C 34.19,27.21 34.07,27.16 33.91,27.21 L 33.03,27.49 A 0.64,0.64 0 0,0 32.65,27.81 A 5.6,5.6 0 0,1 31,29.67 A 8.2,8.2 0 0,1 29.15,30.55 L 28.77,30.7 C 28.57,30.78 28.54,30.9 28.68,31.05 C 29.15,31.57 29.16,32.29 28.7,33.2 C 28.25,34.08 28.22,34.77 28.6,35.28 C 29.03,35.83 29.48,36.23 29.95,36.48 C 30.24,36.64 30.45,36.87 30.57,37.18 C 30.61,37.28 30.67,37.35 30.77,37.4 C 31.06,37.57 31.21,37.81 31.21,38.14 C 31.21,38.24 31.25,38.3 31.32,38.36 C 31.47,38.46 31.63,38.56 31.8,38.64 C 32.56,38.99 33.3,39.3 34.04,39.55 C 34.34,39.65 34.64,39.81 34.89,40.02 A 8.3,8.3 0 0,0 37.04,41.37 C 37.52,41.54 37.98,41.74 38.42,41.97 C 38.58,42.04 38.67,41.99 38.69,41.82 L 38.7,41.75 C 38.72,41.63 38.67,41.55 38.55,41.54 A 4.49,4.49 0 0,1 36.53,40.62 C 36.49,40.58 36.49,40.54 36.53,40.51 C 37.42,39.81 38.33,39.17 39.27,38.6 A 0.22,0.22 0 0,1 39.47,38.58 L 41.21,39.23 C 41.31,39.27 41.38,39.25 41.45,39.18 C 41.78,38.83 42.09,38.43 42.37,37.98 A 16.9,16.9 0 0,0 44.7,25.78 A 16.4,16.4 0 0,0 38.6,15.65 A 16.2,16.2 0 0,0 29.8,12 Z M 27.08,35.3 C 26.91,35.2 26.86,35.06 26.94,34.88 C 27.23,34.22 27.23,33.56 26.94,32.9 C 26.87,32.75 26.76,32.7 26.61,32.76 A 3.9,3.9 0 0,0 24.43,34.62 A 0.49,0.49 0 0,0 24.38,34.92 C 24.5,36.05 24.9,36.88 25.58,37.38 C 25.68,37.47 25.78,37.64 25.86,37.89 V 37.91 C 25.91,38.04 25.99,38.08 26.11,38.04 L 28.16,37.32 A 0.68,0.68 0 0,1 28.69,37.34 L 29.69,37.79 C 29.78,37.84 29.83,37.81 29.83,37.7 C 29.84,37.48 29.73,37.35 29.5,37.31 C 29.2,37.27 29,37.16 28.88,36.98 A 5.17,5.17 0 0,0 27.08,35.31 Z M 30.42,39.84 L 30.37,40.31 C 30.35,40.48 30.27,40.51 30.13,40.41 L 28.96,39.55 A 0.18,0.18 0 0,0 28.77,39.53 L 28.43,39.7 A 0.22,0.22 0 0,1 28.23,39.7 L 27.47,39.31 A 0.38,0.38 0 0,0 27.12,39.31 C 25.99,39.81 24.85,40.34 23.72,40.86 A 0.93,0.93 0 0,1 22.93,40.87 C 22.82,40.82 22.81,40.77 22.91,40.69 L 24.17,39.81 C 24.59,39.51 25.26,39.2 26.17,38.89 A 36.14,36.14 0 0,0 28.36,38.09 C 28.49,38.04 28.66,38.04 28.86,38.11 C 29.91,38.41 30.82,38.79 31.62,39.21 C 32.01,39.43 32.42,39.59 32.84,39.71 C 33.47,39.9 34.1,40.26 34.74,40.81 C 34.84,40.89 34.82,40.93 34.69,40.93 L 33.09,40.99 A 0.97,0.97 0 0,1 32.57,40.85 L 30.63,39.73 C 30.5,39.65 30.43,39.69 30.42,39.83 Z M 42.42,40.51 L 42.58,40.39 A 0.2,0.2 0 0,1 42.81,40.37 C 43.05,40.49 43.28,40.57 43.51,40.6 C 43.61,40.62 43.63,40.58 43.55,40.5 C 43.03,39.98 42.57,39.72 42.18,39.72 C 41.28,39.72 40.42,39.57 39.6,39.24 A 0.49,0.49 0 0,0 39.15,39.27 L 37.88,40.02 C 37.57,40.22 37.59,40.27 37.95,40.18 C 38.05,40.16 38.2,40.12 38.41,40.05 A 2.63,2.63 0 0,1 39.7,39.88 C 40.02,39.96 40.32,40.07 40.62,40.2 C 40.7,40.24 40.77,40.25 40.85,40.24 C 41.35,40.18 41.83,40.27 42.27,40.52 C 42.32,40.55 42.37,40.54 42.42,40.51 Z" fill="rgb(31, 45, 89)"/>
</svg>
