<?xml version="1.0" encoding="UTF-8"?>
<!-- generated by Finnhub -->
<svg viewBox="0 0 55.5 55.5" xmlns="http://www.w3.org/2000/svg">
<path d="M 0,0 H 55.5 V 55.5 H 0 Z" fill="rgb(239, 242, 248)"/>
<path d="M 6.6000000000000005,31.985 H 6 C 6.02,32.5 6.04,33 6.04,33.5 V 34.5 C 6.04,35 6.02,35.52 6,36 H 6.61 C 6.59,35.5 6.57,35 6.57,34.5 V 33.5 C 6.57,33 6.59,32.48 6.61,32 Z M 10.5,32 H 10.1 C 10.13,32.82 10.13,34 10.13,34.95 L 7.65,32.27 L 7.4,32 H 7.26 C 7.28,32.25 7.28,32.79 7.28,33.49 S 7.2,35.73 7.16,36 H 7.61 C 7.59,35.77 7.57,34.54 7.57,34.04 S 7.57,33.2 7.59,32.99 L 7.77,33.19 C 8.65,34.13 9.54,35.09 10.3,36 H 10.42 L 10.4,33.96 C 10.4,33.38 10.48,32.33 10.5,32 Z M 24.13,32 H 23.72 C 23.76,32.82 23.76,34 23.76,34.95 C 23.15,34.31 22.11,33.18 21.28,32.27 L 21.03,32 H 20.89 C 20.91,32.25 20.91,32.79 20.91,33.49 S 20.83,35.73 20.79,36 H 21.24 C 21.21,35.77 21.19,34.54 21.19,34.04 S 21.19,33.2 21.21,32.99 L 21.4,33.19 C 22.27,34.13 23.17,35.09 23.92,36 H 24.04 L 24.02,33.96 C 24.02,33.38 24.11,32.33 24.12,32 Z M 14,32 H 11.1 V 32.41 L 12.26,32.33 C 12.28,32.73 12.28,33.12 12.28,33.51 V 34.51 C 12.28,35.01 12.26,35.52 12.24,36 H 12.85 C 12.83,35.5 12.81,35 12.81,34.5 V 33.53 C 12.81,33.13 12.81,32.75 12.83,32.36 L 14,32.41 V 32 Z M 30.45,32 H 27.55 V 32.41 L 28.71,32.33 C 28.73,32.73 28.73,33.12 28.73,33.51 V 34.51 C 28.73,35.01 28.71,35.52 28.69,36 H 29.3 C 29.28,35.5 29.26,35 29.26,34.5 V 33.53 C 29.26,33.13 29.26,32.75 29.28,32.36 L 30.45,32.41 V 32 Z M 16.73,35.57 H 16.71 A 9.1,9.1 0 0,1 15.26,35.63 V 34 C 15.26,33.87 16.18,34.02 16.56,34.04 H 16.61 A 0.9,0.9 0 0,1 16.59,33.87 C 16.59,33.81 16.59,33.75 16.61,33.7 H 16.57 C 16.24,33.72 15.87,33.76 15.27,33.76 L 15.28,32.31 C 15.81,32.31 16.1,32.33 16.4,32.36 H 16.7 A 0.9,0.9 0 0,1 16.7,32.01 H 14.7 L 14.73,33.51 V 34.5 C 14.73,35 14.71,35.51 14.69,36.01 H 16.73 A 0.84,0.84 0 0,1 16.71,35.86 C 16.71,35.8 16.71,35.74 16.73,35.69 V 35.58 Z M 18.75,34.05 C 19.17,33.97 19.85,33.67 19.85,32.95 C 19.85,32.21 19.44,32 18.69,32 H 17.4 C 17.42,32.5 17.44,32.98 17.44,33.48 V 34.46 C 17.44,34.96 17.42,35.53 17.4,36 H 18 V 34.12 H 18.14 C 18.64,34.71 19.12,35.34 19.54,36 H 20.24 L 18.74,34.05 Z M 18,33.88 V 32.3 H 18.5 C 18.75,32.3 19.32,32.36 19.32,33.03 C 19.32,33.69 18.79,33.88 18.3,33.88 H 18 Z M 37.17,34.05 C 37.6,33.97 38.27,33.67 38.27,32.95 C 38.27,32.21 37.87,32 37.11,32 H 35.83 C 35.85,32.5 35.87,32.98 35.87,33.48 V 34.46 C 35.87,34.96 35.85,35.53 35.83,36 H 36.43 V 34.12 H 36.56 C 37.07,34.71 37.54,35.34 37.96,36 H 38.66 L 37.17,34.05 Z M 36.43,33.88 V 32.3 H 36.93 C 37.17,32.3 37.74,32.36 37.74,33.03 C 37.74,33.69 37.21,33.88 36.72,33.88 H 36.42 Z M 27,35.57 L 25.51,35.61 V 33.99 C 25.51,33.86 26.71,34.03 26.86,34.03 A 0.83,0.83 0 0,1 26.86,33.69 C 26.41,33.69 25.96,33.75 25.51,33.75 L 25.53,32.3 C 26.02,32.3 27,32.35 27,32.35 V 32 H 24.96 C 24.98,32.45 25,33 25,33.5 V 34.49 C 25,34.99 24.98,35.5 24.96,36 H 27 V 35.57 Z M 35,32.33 A 2.77,2.77 0 0,0 33.6,32 C 32.26,32 31.45,32.76 31.45,34 C 31.45,35.25 32.22,36 33.58,36 C 34.06,35.98 34.55,35.89 35,35.73 V 34 H 34.48 V 35.6 A 2,2 0 0,1 33.64,35.76 C 32.64,35.76 32.04,35.12 32.04,34.06 S 32.61,32.33 33.6,32.33 A 1.56,1.56 0 0,1 34.78,32.86 H 34.91 C 34.93,32.72 34.97,32.58 35.03,32.46 V 32.43 L 35.01,32.33 Z M 40.82,32 C 39.55,32 38.74,32.78 38.74,34 S 39.55,36 40.82,36 C 42.08,36 42.89,35.22 42.89,34 S 42.08,32 40.82,32 Z M 40.82,35.71 C 39.88,35.71 39.33,35.08 39.33,33.98 S 39.86,32.24 40.82,32.24 C 41.77,32.24 42.3,32.88 42.3,33.98 S 41.77,35.71 40.82,35.71 Z M 46.7,32.02 H 46.3 C 46.33,32.23 46.33,32.78 46.33,33.85 C 46.33,34.59 46.33,35.68 45.17,35.68 S 44,34.72 44,33.94 V 32 H 43.48 V 34.34 C 43.48,35.45 43.98,36 45.05,36 C 46.13,36 46.62,35.39 46.64,34.34 C 46.66,33.28 46.7,32.54 46.74,32 H 46.7 V 32.02 Z M 48.7,32 H 47.4 C 47.42,32.5 47.44,33 47.44,33.5 V 34.5 C 47.44,35 47.42,35.52 47.4,36 H 48 V 34.26 H 48.42 C 49.19,34.26 50,33.93 50,33 C 50,32.07 49.02,32 48.7,32 Z M 49.4,33.04 C 49.4,33.87 48.74,33.98 48.36,33.98 L 48,33.93 V 32.28 H 48.47 C 49.04,32.28 49.4,32.41 49.4,33.07 V 33.04 Z" fill="rgb(88, 86, 85)"/>
<path d="M 28.639999999999997,27.985 L 31.12,24.22 L 32.47,29 H 35.17 L 32.43,20 H 31.3 L 27.98,25.34 L 24.65,20 H 23.53 L 20.79,29 H 23.49 L 24.83,24.18 L 27.31,28 H 28.65 Z M 20.95,24 H 13.15 C 12.83,24.07 12.58,24.33 12.58,24.66 S 12.83,25.3 13.15,25.37 C 13.26,25.39 13.37,25.39 13.48,25.37 H 17.89 C 17.35,26.77 15.59,27.77 13.48,27.77 C 11.36,27.77 9,26.27 9,24.46 C 9,22.64 10.96,21.18 13.48,21.18 A 5.42,5.42 0 0,1 16.95,22.32 H 20.05 C 18.75,20.96 16.32,20 13.52,20 C 9.38,19.91 6,21.96 6,24.46 S 9.38,29 13.52,29 C 17.67,29 21,27 21,24.46 C 21,24.29 20.98,24.16 20.95,24 Z M 42.5,20 C 38.37,20 35,22.02 35,24.5 S 38.37,29 42.5,29 S 50,26.98 50,24.5 S 46.63,20 42.5,20 Z M 42.5,27.79 C 39.98,27.79 38,26.3 38,24.5 S 39.98,21.26 42.5,21.26 S 47,22.74 47,24.5 C 47,26.25 45.02,27.79 42.5,27.79 Z" fill="rgb(1, 90, 170)"/>
</svg>
