<?xml version="1.0" encoding="UTF-8"?>
<!-- generated by Finnhub -->
<svg viewBox="0 0 55.5 55.5" xmlns="http://www.w3.org/2000/svg">
<path d="M 0,0 H 55.5 V 55.5 H 0 Z" fill="rgb(239, 242, 248)"/>
<path d="M 15.99,15.985 L 8,24 H 24 V 16 H 16 Z" fill="rgb(15, 167, 156)"/>
<path d="M 15.99,31.965 V 24 H 8 L 16,31.98 Z" fill="rgb(8, 71, 106)"/>
<path d="M 39.99,31.985 H 48 L 40,24 V 32 Z" fill="rgb(246, 147, 27)"/>
<path d="M 23.99,47.985 V 40 H 32 L 24,48 Z" fill="rgb(8, 71, 106)"/>
<path d="M 39.99,31.985 H 32 V 40 H 40 L 48,32 H 40 Z M 40,16 L 32,8 V 24 H 40 V 16 Z" fill="rgb(15, 167, 156)"/>
<path d="M 23.99,15.985 H 32 V 8 L 24,16 Z" fill="rgb(8, 71, 106)"/>
<path d="M 15.99,31.985 V 40.01 H 16.06 H 16 L 24,48 V 32 H 16 Z" fill="rgb(15, 167, 156)"/>
</svg>
