<?xml version="1.0" encoding="UTF-8"?>
<!-- generated by Finnhub -->
<svg viewBox="0 0 55.5 55.5" xmlns="http://www.w3.org/2000/svg">
<path d="M 0,0 H 55.5 V 55.5 H 0 Z" fill="rgb(239, 242, 248)"/>
<path d="M 25.22,34.985 A 8.11,8.11 0 0,0 29,28.2 C 29,23.67 25.2,20 20.5,20 S 12,23.67 12,28.2 C 12,29.35 12.25,30.45 12.7,31.45 A 6.98,6.98 0 0,1 12.52,29.86 C 12.52,25.88 15.86,22.66 19.99,22.66 A 7.34,7.34 0 0,1 27.47,29.86 C 27.47,31.87 26.61,33.69 25.23,35 Z" fill="rgb(59, 110, 144)"/>
<path d="M 23.9,37.985 C 30.6,38 36,32.85 36,26.5 S 30.59,15 23.91,15 C 19.1,15 14.94,17.68 13,21.55 A 10.8,10.8 0 0,1 21.61,17.37 C 27.48,17.37 32.24,21.9 32.24,27.49 C 32.24,33.07 27.48,37.59 21.61,37.59 C 21.25,37.59 20.9,37.59 20.55,37.55 C 21.62,37.85 22.75,38 23.91,38 Z" fill="rgb(36, 113, 165)"/>
<path d="M 13.01,36.015 C 17.62,43.66 27.76,46.27 35.69,41.85 C 43.64,37.44 46.36,27.65 41.77,20 C 37.75,13.29 29.43,10.45 22.09,12.84 A 14.8,14.8 0 0,1 36.69,19.74 C 40.72,26.48 38.32,35.08 31.34,38.97 A 15,15 0 0,1 13.02,36.03 Z" fill="rgb(14, 116, 186)"/>
</svg>
