<?xml version="1.0" encoding="UTF-8"?>
<!-- generated by Finnhub -->
<svg viewBox="0 0 55.5 55.5" xmlns="http://www.w3.org/2000/svg">
<path d="M 0,0 H 55.5 V 55.5 H 0 Z" fill="rgb(239, 242, 248)"/>
<path d="M 20.2,30.155 C 20.25,30.16 20.27,30.14 20.27,30.09 V 29.05 C 20.27,29.01 20.3,29 20.34,29 H 24.37 C 24.39,29 24.4,29.04 24.4,29.05 A 6.37,6.37 0 0,1 22.23,34.01 A 7.86,7.86 0 0,1 17.91,35.91 C 15.81,36.16 13.73,35.91 11.68,35.11 A 6.82,6.82 0 0,1 8.94,33.16 A 7.56,7.56 0 0,1 7.05,29.08 C 6.85,27.52 7.21,26.08 8.11,24.75 A 9.3,9.3 0 0,1 9.77,22.91 A 15.45,15.45 0 0,1 15.09,19.93 A 23.64,23.64 0 0,1 23.72,19.06 C 25.57,19.16 27.44,19.39 29.33,19.72 A 72.6,72.6 0 0,1 39.86,22.43 C 42.45,23.31 44.98,24.26 47.47,25.29 C 47.5,25.3 47.51,25.32 47.51,25.35 V 26.09 C 47.51,26.12 47.49,26.13 47.46,26.13 C 45.08,25.6 42.73,25.13 40.42,24.72 A 77.77,77.77 0 0,0 26.85,23.44 C 25.75,23.44 24.63,23.5 23.47,23.61 C 22.15,23.74 20.94,23.98 19.82,24.32 A 7.14,7.14 0 0,0 16.15,26.64 C 15.85,27.03 15.65,27.44 15.53,27.9 C 15.4,28.4 15.41,28.85 15.56,29.26 C 15.8,29.92 16.49,30.29 17.64,30.38 C 18.4,30.43 19.26,30.36 20.21,30.17 Z" fill="rgb(15, 91, 168)"/>
<path d="M 38.730000000000004,33.945 L 41.27,27.03 C 41.27,27.01 41.29,27.01 41.3,27.01 L 42.53,27 C 42.56,27 42.57,27.01 42.56,27.04 L 40.04,33.97 C 40.04,33.99 40.02,34 40.01,34 H 38.77 C 38.74,34 38.73,33.99 38.74,33.96 Z M 43.04,32.67 L 43.08,32.69 C 43.78,32.71 44.52,32.72 45.28,32.7 C 45.32,32.7 45.33,32.72 45.32,32.76 L 44.89,33.94 C 44.88,33.98 44.85,34 44.81,34 H 41.26 C 41.24,34 41.24,34 41.24,33.97 L 43.24,28.44 L 43.79,27.04 C 43.8,27.01 43.82,27 43.85,27 H 45.03 C 45.06,27 45.07,27.01 45.06,27.04 L 43.03,32.63 V 32.67 Z" fill="rgb(34, 30, 30)"/>
<path d="M 34.21,33.805 C 34.57,33.96 34.97,34.02 35.39,33.99 A 3.7,3.7 0 0,0 38.01,32.54 A 5.84,5.84 0 0,0 39.29,29.94 C 39.46,29.13 39.41,28.46 39.15,27.94 C 38.84,27.3 38.24,26.99 37.35,27 C 36.63,27 35.96,27.23 35.35,27.66 A 4.7,4.7 0 0,0 33.96,29.19 A 4.98,4.98 0 0,0 33.16,32.45 C 33.2,32.69 33.26,32.9 33.36,33.08 C 33.54,33.41 33.82,33.65 34.22,33.82 Z M 34.94,30.04 C 34.7,30.54 34.56,31.06 34.52,31.57 C 34.5,31.94 34.56,32.24 34.72,32.46 C 34.92,32.71 35.22,32.81 35.62,32.76 C 36.02,32.71 36.37,32.53 36.66,32.21 A 4.88,4.88 0 0,0 37.88,29.82 C 37.95,29.45 37.95,29.12 37.88,28.85 C 37.78,28.45 37.54,28.25 37.18,28.21 C 36.7,28.18 36.26,28.35 35.86,28.74 A 4.3,4.3 0 0,0 34.94,30.04 Z" fill="rgb(34, 30, 30)" fill-rule="evenodd"/>
<path d="M 46.17,33.265 C 45.91,32.82 45.94,32.28 46.3,31.68 C 46.63,31.09 47.03,30.54 47.49,30.02 C 47.51,29.99 47.53,29.99 47.55,30.02 C 47.88,30.42 48.22,30.9 48.57,31.44 C 49.19,32.4 49.14,33.15 48.43,33.7 C 48.08,33.97 47.67,34.06 47.2,33.96 C 46.74,33.87 46.4,33.64 46.18,33.28 Z M 30.5,30.63 C 30.49,30.68 30.5,30.69 30.54,30.65 C 30.84,30.38 31.2,30.18 31.61,30.07 C 31.97,29.97 32.26,29.98 32.5,30.11 C 32.75,30.26 32.87,30.53 32.84,30.91 C 32.8,31.37 32.67,31.85 32.44,32.35 C 32.19,32.89 31.98,33.42 31.8,33.95 C 31.8,33.98 31.78,34 31.75,34 H 30.71 C 30.66,34 30.64,33.98 30.66,33.93 L 31.41,31.96 C 31.53,31.63 31.58,31.37 31.56,31.18 C 31.54,31.03 31.45,30.95 31.29,30.93 A 0.56,0.56 0 0,0 30.9,31.05 C 30.45,31.38 30.09,31.98 29.81,32.85 L 29.45,33.92 A 0.1,0.1 0 0,1 29.35,34 H 28.3 C 28.26,34 28.25,33.98 28.26,33.94 L 28.73,32.66 C 29.15,31.54 29.5,30.58 29.68,30.02 C 29.68,30 29.7,30 29.71,30 H 30.63 C 30.68,30 30.7,30.02 30.68,30.07 L 30.49,30.63 Z" fill="rgb(15, 91, 168)"/>
<path d="M 26.439999999999998,33.105 C 25.95,33.11 25.71,32.9 25.71,32.5 C 25.71,32.46 25.73,32.44 25.77,32.44 C 26.57,32.44 27.18,32.35 27.62,32.19 C 27.88,32.09 28.09,31.94 28.25,31.71 C 28.42,31.49 28.5,31.26 28.52,31.01 A 0.87,0.87 0 0,0 28.32,30.37 C 28.15,30.17 27.89,30.05 27.55,30.01 A 2.5,2.5 0 0,0 25.55,30.73 A 2.74,2.74 0 0,0 24.58,32.61 C 24.53,33.35 24.87,33.79 25.6,33.94 C 26.2,34.07 26.84,33.99 27.5,33.71 A 0.06,0.06 0 0,0 27.54,33.66 L 27.61,32.95 C 27.61,32.91 27.6,32.9 27.56,32.91 C 27.15,33.06 26.77,33.13 26.45,33.11 Z M 27.05,30.79 C 26.61,30.79 26.26,31.05 26.01,31.57 C 25.99,31.59 26.01,31.61 26.03,31.61 C 27.03,31.65 27.49,31.47 27.4,31.05 C 27.37,30.88 27.25,30.8 27.04,30.79 Z" fill="rgb(15, 91, 168)" fill-rule="evenodd"/>
</svg>
