<?xml version="1.0" encoding="UTF-8"?>
<!-- generated by Finnhub -->
<svg viewBox="0 0 55.5 55.5" xmlns="http://www.w3.org/2000/svg">
<path d="M 0,0 H 55.5 V 55.5 H 0 Z" fill="rgb(239, 242, 248)"/>
<path d="M 35.99,23.485 L 28,28 L 36,32.5 L 44,28 L 36,23.5 Z" fill="url(#d)"/>
<path d="M 27.99,36.985 V 46 L 44,37 V 28 L 28,37 Z" fill="url(#c)"/>
<path d="M 43.99,27.985 L 36,32.5 L 44,37 V 28 Z" fill="url(#b)"/>
<path d="M 27.99,36.985 L 20,32.5 V 23.5 L 12,19 V 37 L 28,46 V 37 Z" fill="rgb(179, 1, 38)"/>
<path d="M 27.99,9.985 L 12,19 L 20,23.5 L 28,19 L 36,23.5 L 44,19 L 28,10 Z" fill="url(#a)"/>
<defs>
<linearGradient id="d" x1="28" x2="44" y1="28" y2="28" gradientUnits="userSpaceOnUse">
<stop stop-color="rgb(42, 96, 156)" offset="0"/>
<stop stop-color="rgb(1, 34, 73)" offset="1"/>
</linearGradient>
<linearGradient id="c" x1="28" x2="37.52" y1="37" y2="37" gradientUnits="userSpaceOnUse">
<stop stop-color="rgb(9, 164, 223)" offset="0"/>
<stop stop-color="rgb(48, 116, 184)" offset="1"/>
</linearGradient>
<linearGradient id="b" x1="36" x2="52.6" y1="32.5" y2="32.5" gradientUnits="userSpaceOnUse">
<stop stop-color="rgb(49, 114, 188)" offset="0"/>
<stop stop-color="rgb(1, 34, 73)" offset="1"/>
</linearGradient>
<linearGradient id="a" x1="43.65" x2="12.8" y1="16.75" y2="16.75" gradientUnits="userSpaceOnUse">
<stop stop-color="rgb(49, 114, 188)" offset="0"/>
<stop stop-color="rgb(9, 164, 223)" offset="1"/>
</linearGradient>
</defs>
</svg>
