<?xml version="1.0" encoding="UTF-8"?>
<!-- generated by Finnhub -->
<svg viewBox="0 0 55.5 55.5" xmlns="http://www.w3.org/2000/svg">
<path d="M 0,0 H 55.5 V 55.5 H 0 Z" fill="rgb(239, 242, 248)"/>
<path d="M 28.02,36.485 L 23.48,39.28 L 22.24,37.47 L 10,17.91 A 7.87,7.87 0 0,1 16.68,14.24 L 28.58,33.12 L 28.03,36.49 Z" fill="url(#d)"/>
<path d="M 27.959999999999997,19.485 L 32.52,16.72 L 33.75,18.52 L 46,38.09 A 7.87,7.87 0 0,1 39.32,41.76 L 27.42,22.88 L 27.97,19.51 Z" fill="url(#c)"/>
<path d="M 45.99,17.835 C 44.15,15.25 40.94,14.24 39.56,14.05 L 25.36,36.61 C 24.44,38.22 22.87,37.84 22.2,37.44 C 23.72,39.93 25.54,42 28.1,42 C 30.13,42 31.77,40.46 32.34,39.7 L 46,17.84 Z" fill="url(#b)"/>
<path d="M 9.99,38.135 C 11.85,40.75 15.06,41.76 16.44,41.95 L 30.64,19.39 C 31.56,17.78 33.13,18.16 33.8,18.56 C 32.28,16.07 30.46,14 27.9,14 C 25.87,14 24.23,15.54 23.66,16.3 L 10,38.16 Z" fill="url(#a)"/>
<defs>
<linearGradient id="d" x1="12.55" x2="25.6" y1="15.36" y2="36.79" gradientUnits="userSpaceOnUse">
<stop stop-color="rgb(88, 181, 211)" offset="0"/>
<stop stop-color="rgb(100, 181, 210)" offset=".4"/>
<stop stop-color="rgb(139, 194, 135)" offset=".88"/>
<stop stop-color="rgb(132, 172, 144)" offset="1"/>
</linearGradient>
<linearGradient id="c" x1="43.45" x2="30.4" y1="40.64" y2="19.21" gradientUnits="userSpaceOnUse">
<stop stop-color="rgb(187, 146, 189)" offset="0"/>
<stop stop-color="rgb(169, 155, 187)" offset=".4"/>
<stop stop-color="rgb(136, 163, 189)" offset=".88"/>
<stop stop-color="rgb(132, 149, 168)" offset="1"/>
</linearGradient>
<linearGradient id="b" x1="43.39" x2="25.48" y1="15.54" y2="41.13" gradientUnits="userSpaceOnUse">
<stop stop-color="rgb(162, 208, 85)" offset="0"/>
<stop stop-color="rgb(146, 204, 152)" offset=".61"/>
<stop stop-color="rgb(119, 206, 224)" offset="1"/>
</linearGradient>
<linearGradient id="a" x1="12.61" x2="30.52" y1="40.46" y2="14.87" gradientUnits="userSpaceOnUse">
<stop stop-color="rgb(77, 189, 202)" offset="0"/>
<stop stop-color="rgb(155, 168, 199)" offset=".61"/>
<stop stop-color="rgb(187, 150, 190)" offset="1"/>
</linearGradient>
</defs>
</svg>
