<?xml version="1.0" encoding="UTF-8"?>
<!-- generated by Finnhub -->
<svg viewBox="0 0 55.5 55.5" xmlns="http://www.w3.org/2000/svg">
<path d="M 0,0 H 55.5 V 55.5 H 0 Z" fill="rgb(5, 174, 232)"/>
<path d="M 4.0,28.865 C 4.01,30.6 5.014,31.004 6.713,31.004 H 8.971 C 11.091,31.004 12,30.926 12,29.236 V 27.562 L 8,27.502 V 29 H 10 C 10,29.566 9.626,29.593 9.14,29.593 H 7.135 C 6.188,29.593 5.999,29.378 5.999,28.371 V 27.642 C 5.999,26.634 6.189,26.415 7.135,26.415 H 9.175 C 9.773,26.415 10.001,26.597 10.001,26.996 H 12.001 V 26.81 C 12.001,25.663 11.667,25.004 9.538,25.004 H 6.705 C 5.014,25.004 4.002,25.407 4.002,27.128 V 28.88 H 4.01 Z M 13.01,31.004 H 19 V 29.56 H 15 V 28.601 H 18.68 V 27.357 H 15 V 26.397 H 19 V 25.003 H 13.01 V 31.003 Z M 21,31 H 22.996 V 26.992 H 23.012 L 26.202,31 H 28.992 L 29,25 H 27.005 V 28.997 H 26.989 L 23.791,25 H 21 V 31 Z M 30.01,27.003 L 32.004,27.022 V 31 H 34 V 27.003 H 36 V 25 H 30.01 V 27.003 Z M 37,31.002 H 43 V 29.558 H 39 V 28.598 H 42.68 V 27.354 H 39 V 26.394 H 43 V 24.998 H 37 V 31.002 Z M 44.004,31 H 46.218 L 47.998,28.82 L 49.778,31 H 52 L 49.358,27.996 L 51.815,25 H 49.679 L 47.999,27.1 L 46.325,25 H 44.19 L 46.646,27.996 L 44.005,31 Z" fill="rgb(245, 247, 251)"/>
</svg>
