<?xml version="1.0" encoding="UTF-8"?>
<!-- generated by Finnhub -->
<svg viewBox="0 0 55.5 55.5" xmlns="http://www.w3.org/2000/svg">
<path d="M 0,0 H 55.5 V 55.5 H 0 Z" fill="rgb(239, 242, 248)"/>
<path d="M 26.52,30.655 C 26.17,30.95 25.74,31.14 25.22,31.14 C 23.4,31.14 26.72,23.98 27.88,22.13 C 28.1,21.77 28.34,21.35 28.59,20.9 C 29.51,19.25 30.64,17.24 31.99,16.8 L 31.07,19 H 36.27 L 39,12 H 34 L 33.54,13.1 C 33.37,12.55 32.89,12 31.8,12 C 29.83,12 25.69,13.93 21.34,22.54 C 17.03,31.07 18.9,36.7 25.07,34.54 L 20.76,46 H 26.22 L 34.52,23 H 29.42 L 26.52,30.67 Z" fill="rgb(33, 66, 48)"/>
</svg>
