<?xml version="1.0" encoding="UTF-8"?>
<!-- generated by Finnhub -->
<svg viewBox="0 0 55.5 55.5" xmlns="http://www.w3.org/2000/svg">
<path d="M 0,0 H 55.5 V 55.5 H 0 Z" fill="rgb(239, 242, 248)"/>
<path d="M 26.34,31.285 C 26.55,29.44 26.59,27.61 26.5,25.81 A 16.52,16.52 0 0,0 19.42,19.72 A 17.56,17.56 0 0,0 10.09,18.28 C 10.03,18.28 9.99,18.32 10,18.38 A 16.7,16.7 0 0,0 13.7,27.95 A 16.87,16.87 0 0,0 26.3,34.13 C 26.45,34.12 26.53,34.03 26.53,33.86 C 26.55,33.13 26.53,32.43 26.43,31.78 C 24.74,31.71 23.16,31.4 21.69,30.85 A 14.33,14.33 0 0,1 15.3,26.13 A 14.41,14.41 0 0,1 12.73,20.62 C 12.71,20.55 12.73,20.52 12.81,20.52 A 15.07,15.07 0 0,1 21.09,23.43 A 13.61,13.61 0 0,1 25.21,28.33 A 16.48,16.48 0 0,1 26.35,31.3 Z" fill="rgb(1, 131, 67)"/>
<path d="M 26.299999999999997,34.185 L 26.4,34.18 C 26.37,34.18 26.34,34.18 26.31,34.2 Z M 26.53,33.93 C 26.53,34.06 26.49,34.14 26.4,34.18 H 26.44 C 26.49,34.19 26.51,34.22 26.51,34.26 L 26.56,41.41 C 26.56,41.53 26.49,41.59 26.36,41.58 A 14.04,14.04 0 0,1 17.44,37.14 A 12.77,12.77 0 0,1 14.29,31.44 C 14.24,31.24 14.14,31.07 13.99,30.92 C 13.08,30.07 12.29,29.18 11.63,28.23 C 11.49,28.03 11.43,28.05 11.43,28.3 C 11.49,30.96 12.18,33.43 13.47,35.73 C 14.71,37.92 16.39,39.73 18.5,41.16 A 16.2,16.2 0 0,0 33.28,43.01 A 16,16 0 0,0 43.36,23.58 A 15.86,15.86 0 0,0 38.62,16.12 A 15.95,15.95 0 0,0 30.62,12.26 A 16.38,16.38 0 0,0 16.13,16.74 C 16.07,16.8 16.08,16.84 16.17,16.87 C 17.04,17.07 17.87,17.3 18.67,17.57 C 18.72,17.59 18.77,17.57 18.82,17.54 A 14.14,14.14 0 0,1 26.32,14.4 C 26.42,14.39 26.47,14.43 26.47,14.53 L 26.5,25.89 C 26.6,27.69 26.54,29.51 26.35,31.37 C 26.31,31.43 26.35,31.59 26.43,31.85 C 26.53,32.5 26.55,33.2 26.53,33.93 Z M 39.57,20.9 A 13.82,13.82 0 0,0 31.38,15.02 C 31.25,14.99 31.23,15.02 31.33,15.12 A 16.53,16.53 0 0,1 35.51,20.95 C 35.52,20.99 35.55,21.01 35.6,21.01 H 39.5 C 39.6,21.01 39.61,20.97 39.57,20.91 Z M 32.05,23.2 C 32.07,23.27 32.05,23.3 31.97,23.3 H 29.07 C 29.03,23.3 29,23.33 29,23.39 V 26.63 C 29,26.7 29.06,26.73 29.14,26.73 H 32.67 C 32.73,26.73 32.77,26.77 32.77,26.83 V 28.95 C 32.77,29 32.74,29.01 32.69,29.01 H 29.12 C 29.07,29.01 29,29.04 29,29.1 V 32.46 C 29,32.51 29.12,32.54 29.17,32.54 H 31.97 C 32.06,32.54 32.09,32.58 32.06,32.65 C 31.81,33.41 31.53,34.28 31.2,34.96 C 31.18,35.01 31.14,35.01 31.1,35.01 H 29.12 C 29.07,35.01 29,35.11 29,35.16 V 39.91 C 29,39.99 29.07,40 29.12,39.95 A 16.13,16.13 0 0,0 33.29,34.38 A 15.5,15.5 0 0,0 33.27,21.49 C 32.31,19.36 30.91,17.49 29.09,15.91 C 29.03,15.86 29.01,15.88 29.01,15.95 V 20.92 C 29.01,20.97 29.03,21.01 29.08,21.01 H 31.08 C 31.14,21.01 31.18,21.01 31.2,21.07 C 31.52,21.76 31.8,22.47 32.05,23.2 Z M 40.85,23.43 A 26.8,26.8 0 0,1 41.55,26.69 C 41.55,26.72 41.53,26.74 41.5,26.74 H 36.96 C 36.92,26.74 36.89,26.71 36.89,26.67 A 14.7,14.7 0 0,0 36.36,23.41 C 36.34,23.34 36.36,23.31 36.44,23.31 H 40.69 C 40.77,23.31 40.82,23.35 40.84,23.43 Z M 40.68,32.47 C 40.75,32.47 40.8,32.43 40.83,32.36 C 41.19,31.33 41.43,30.24 41.55,29.08 C 41.55,29.03 41.54,29.01 41.49,29.01 H 36.96 C 36.92,29.01 36.9,29.08 36.9,29.11 A 15.1,15.1 0 0,1 36.39,32.34 C 36.36,32.46 36.4,32.51 36.52,32.51 L 40.68,32.47 Z M 31.38,41.12 A 17.26,17.26 0 0,0 35.52,35.11 C 35.55,35.05 35.6,35.01 35.67,35.01 H 39.54 C 39.63,35.01 39.65,35.05 39.6,35.11 C 37.61,38.21 34.9,40.24 31.45,41.23 C 31.29,41.27 31.26,41.23 31.39,41.12 Z" fill="rgb(1, 103, 163)" fill-rule="evenodd"/>
</svg>
