<?xml version="1.0" encoding="UTF-8"?>
<!-- generated by Finnhub -->
<svg viewBox="0 0 55.5 55.5" xmlns="http://www.w3.org/2000/svg">
<path d="M 0,0 H 55.5 V 55.5 H 0 Z" fill="rgb(112, 177, 199)"/>
<g fill="rgb(254, 254, 253)" opacity=".8">
<path d="M 27.953,37.89 C 22.062,37.905 17.262,33.09 17.262,27.17 S 22.062,16.434 27.962,16.434 C 33.864,16.434 38.664,21.25 38.664,27.17 C 38.676,33.09 33.876,37.905 27.963,37.905 Z M 27.963,16.533 C 22.111,16.533 17.361,21.312 17.361,27.17 C 17.361,33.028 22.124,37.806 27.963,37.806 S 38.565,33.028 38.565,27.17 S 33.815,16.533 27.963,16.533 Z" opacity=".59"/>
<path d="M 29.982,39.255 C 29.052,39.27 28.099,39.146 27.172,38.898 A 10.818,10.818 0 0,1 20.59,33.834 C 17.596,28.634 19.378,21.969 24.561,18.978 A 10.819,10.819 0 0,1 39.369,22.949 C 42.363,28.15 40.582,34.815 35.399,37.806 A 10.755,10.755 0 0,1 29.992,39.27 Z M 29.955,17.6 C 28.087,17.6 26.255,18.085 24.598,19.053 C 19.464,22.019 17.708,28.634 20.664,33.773 A 10.755,10.755 0 0,0 29.992,39.159 C 31.811,39.159 33.654,38.699 35.349,37.719 C 40.483,34.753 42.239,28.138 39.283,22.999 A 10.674,10.674 0 0,0 32.763,17.973 C 31.823,17.725 30.883,17.601 29.955,17.601 Z" opacity=".59"/>
<path d="M 28.372999999999998,39.342 C 25.402,39.357 22.507,38.141 20.515,35.746 C 18.734,33.599 17.942,30.843 18.289,27.989 C 18.635,25.134 20.082,22.516 22.346,20.617 C 27.035,16.707 33.839,17.117 37.513,21.547 C 41.188,25.978 40.359,32.755 35.683,36.677 C 33.53,38.464 30.932,39.357 28.383,39.357 Z M 29.658,18.023 C 27.146,18.023 24.561,18.904 22.42,20.679 C 20.169,22.553 18.746,25.159 18.4,27.989 S 18.833,33.549 20.602,35.671 C 22.569,38.041 25.439,39.246 28.396,39.246 C 30.907,39.246 33.493,38.364 35.633,36.59 C 40.273,32.705 41.101,25.99 37.452,21.597 C 35.484,19.239 32.614,18.023 29.658,18.023 Z" opacity=".59"/>
<path d="M 26.233999999999998,39.068 C 24.214,39.083 22.322,38.463 20.751,37.259 C 18.623,35.621 17.373,33.101 17.225,30.16 C 17.077,27.219 18.066,24.215 19.984,21.696 C 21.914,19.176 24.549,17.451 27.406,16.818 C 30.276,16.198 33.023,16.756 35.163,18.394 C 37.291,20.033 38.541,22.552 38.689,25.494 C 38.837,28.434 37.848,31.438 35.93,33.958 C 34,36.478 31.365,38.202 28.508,38.835 C 27.741,38.996 26.986,39.083 26.244,39.083 Z M 20.825,37.185 C 22.928,38.81 25.662,39.356 28.495,38.735 C 31.34,38.115 33.951,36.403 35.868,33.895 C 37.773,31.401 38.751,28.41 38.615,25.493 C 38.479,22.577 37.229,20.083 35.126,18.469 C 33.023,16.843 30.301,16.297 27.456,16.918 C 24.611,17.538 22,19.251 20.083,21.758 C 18.178,24.252 17.2,27.243 17.336,30.16 C 17.473,33.064 18.71,35.559 20.825,37.184 Z" opacity=".59"/>
<path d="M 26.331999999999997,39.987 C 20.899,40.002 16.47,34.789 16.47,28.372 C 16.47,21.956 20.9,16.744 26.342,16.744 C 31.786,16.744 36.215,21.956 36.215,28.373 C 36.215,34.789 31.785,40.002 26.342,40.002 Z M 26.342,16.855 C 20.949,16.855 16.569,22.031 16.569,28.385 S 20.949,39.915 26.342,39.915 C 31.736,39.915 36.116,34.739 36.116,28.385 S 31.736,16.855 26.342,16.855 Z" opacity=".59"/>
<path d="M 27.31,39.752 C 25.377,39.767 23.398,39.295 21.555,38.315 A 12.133,12.133 0 0,1 15.678,31.327 C 14.713,28.337 14.973,25.184 16.421,22.454 L 16.471,22.478 L 16.421,22.454 C 17.868,19.724 20.33,17.75 23.349,16.881 C 26.367,16.025 29.584,16.372 32.404,17.886 C 38.219,21.002 40.52,28.113 37.526,33.748 C 35.497,37.583 31.501,39.767 27.32,39.767 Z M 26.652,16.521 C 25.563,16.521 24.462,16.671 23.398,16.981 C 20.404,17.837 17.968,19.798 16.532,22.503 C 15.097,25.209 14.837,28.336 15.79,31.303 C 16.755,34.269 18.82,36.726 21.617,38.228 C 27.381,41.318 34.495,39.283 37.464,33.698 C 40.434,28.113 38.157,21.064 32.38,17.973 C 30.573,17.018 28.606,16.521 26.652,16.521 Z" opacity=".59"/>
<path d="M 28.831,37.183 C 23.484,37.198 19.13,32.444 19.13,26.598 C 19.13,20.754 23.485,16 28.84,16 C 34.197,16 38.552,20.753 38.552,26.599 C 38.552,32.432 34.197,37.198 28.84,37.198 Z M 28.841,16.087 C 23.546,16.087 19.229,20.803 19.229,26.587 C 19.229,32.382 23.546,37.086 28.841,37.086 S 38.454,32.37 38.454,26.586 C 38.454,20.791 34.136,16.086 28.841,16.086 Z" opacity=".59"/>
<path d="M 26.814999999999998,39.355 C 25.588,39.37 24.338,39.158 23.138,38.724 C 20.38,37.744 18.178,35.734 16.916,33.09 C 15.666,30.434 15.506,27.455 16.496,24.687 A 10.928,10.928 0 0,1 22.112,18.445 L 22.136,18.495 L 22.112,18.445 C 24.759,17.191 27.728,17.03 30.487,18.023 C 33.246,19.003 35.447,21.013 36.71,23.657 C 37.959,26.313 38.12,29.292 37.13,32.059 A 10.928,10.928 0 0,1 31.514,38.302 A 10.783,10.783 0 0,1 26.825,39.369 Z M 26.8,17.49 C 25.217,17.49 23.633,17.849 22.149,18.544 A 10.73,10.73 0 0,0 16.582,24.724 A 10.813,10.813 0 0,0 17.002,33.052 A 10.72,10.72 0 0,0 23.163,38.637 C 25.897,39.617 28.841,39.469 31.464,38.215 A 10.731,10.731 0 0,0 37.031,32.035 A 10.812,10.812 0 0,0 36.611,23.707 A 10.72,10.72 0 0,0 30.45,18.122 A 10.858,10.858 0 0,0 26.8,17.489 Z" opacity=".59"/>
</g>
<path d="M 7.4670000000000005,27.532 C 7.477,28.434 7.033,29.497 6.012,29.51 C 4.885,29.497 4.509,28.34 4.535,27.384 C 4.559,26.491 4.997,25.544 6.012,25.544 C 7.086,25.558 7.477,26.624 7.477,27.547 Z M 7.477,26.009 C 7.18,25.382 6.664,25 5.947,25 C 4.563,25.012 3.99,26.303 4,27.52 C 4,28.717 4.591,29.977 5.93,30.001 C 6.557,30.001 7.157,29.659 7.477,29.121 C 7.522,30.219 7.167,31.488 5.947,31.52 C 5.336,31.52 4.804,31.29 4.649,30.658 H 4.114 C 4.185,31.558 5.144,31.985 5.947,32 C 7.37,31.98 8.003,30.764 7.975,29.422 V 25 H 7.477 V 26.009 Z M 10.962,30.001 C 12.325,29.988 12.962,28.754 12.97,27.53 C 12.97,26.268 12.347,25.024 10.962,25 C 9.587,25.024 8.958,26.278 8.958,27.53 C 8.967,28.746 9.604,29.987 10.962,30.001 Z M 12.435,27.53 C 12.435,28.466 12.037,29.498 10.962,29.51 C 9.9,29.497 9.493,28.45 9.493,27.53 C 9.493,26.59 9.89,25.51 10.963,25.486 C 12.069,25.499 12.445,26.563 12.435,27.53 Z M 13.676,28.405 C 13.731,29.328 14.396,29.99 15.325,30.001 C 16.184,30.001 17.075,29.598 17.088,28.631 C 17.088,27.779 16.414,27.461 15.7,27.282 C 15.199,27.174 14.313,27.015 14.313,26.349 C 14.318,25.831 14.672,25.504 15.316,25.486 C 15.963,25.486 16.38,25.874 16.459,26.531 H 16.969 C 16.819,25.529 16.291,24.979 15.325,25 C 14.521,25.01 13.778,25.533 13.778,26.398 C 13.778,27.262 14.511,27.451 15.165,27.702 C 15.725,27.814 16.553,27.914 16.553,28.639 C 16.553,29.231 16.008,29.502 15.483,29.51 C 14.752,29.528 14.319,29.16 14.186,28.405 H 13.676 Z M 17.855,28.405 C 17.91,29.328 18.575,29.99 19.504,30.001 C 20.362,30.001 21.254,29.598 21.266,28.631 C 21.266,27.708 20.582,27.458 19.879,27.282 C 19.385,27.176 18.491,27.002 18.491,26.349 C 18.497,25.831 18.851,25.504 19.495,25.486 C 20.142,25.486 20.559,25.874 20.638,26.531 H 21.148 C 20.998,25.529 20.469,24.979 19.504,25 C 18.7,25.01 17.957,25.533 17.957,26.398 C 17.957,27.241 18.669,27.442 19.344,27.702 C 19.887,27.811 20.732,27.922 20.732,28.639 C 20.732,29.231 20.187,29.502 19.662,29.51 C 18.931,29.528 18.498,29.16 18.365,28.405 H 17.855 Z M 25.086,27.41 V 28.144 C 25.066,29.024 24.34,29.51 23.506,29.51 C 23.013,29.51 22.578,29.184 22.568,28.67 C 22.579,28.054 22.986,27.721 23.788,27.671 C 24.223,27.648 24.661,27.581 25.086,27.411 Z M 22.034,28.653 C 22.044,29.464 22.685,30.001 23.478,30.001 C 24.12,29.995 24.651,29.781 25.086,29.268 C 25.092,29.43 25.119,29.578 25.168,29.71 C 25.253,29.928 25.498,29.989 25.711,29.989 C 25.858,29.989 26.031,29.926 26.107,29.9 V 29.476 C 25.9,29.553 25.76,29.561 25.687,29.503 C 25.607,29.447 25.572,29.317 25.58,29.113 L 25.588,26.513 C 25.574,25.553 24.944,25 24.013,25 C 23.028,25 22.328,25.604 22.233,26.606 H 22.743 C 22.844,25.896 23.288,25.474 24,25.486 C 24.688,25.496 25.203,25.928 25.062,26.769 C 24.98,27.085 24.509,27.102 24.242,27.141 C 23.289,27.274 22.034,27.419 22.034,28.653 Z M 27.339,27.349 C 27.339,27.136 27.361,26.912 27.404,26.677 C 27.508,26.078 27.924,25.487 28.574,25.487 C 29.251,25.487 29.526,26.007 29.526,26.632 V 30 H 30.028 V 27.349 C 30.028,27.136 30.051,26.912 30.098,26.677 C 30.195,26.074 30.635,25.487 31.285,25.487 C 31.962,25.487 32.22,26.007 32.22,26.632 V 30 H 32.722 V 26.91 C 32.722,25.993 32.482,25 31.367,25 C 30.733,25 30.27,25.36 29.963,25.96 C 29.767,25.358 29.293,25.01 28.668,25 C 28.073,25.006 27.652,25.341 27.355,25.89 H 27.339 V 25 H 26.837 V 30 H 27.339 V 27.349 Z M 34.175,27.203 C 34.266,26.386 34.72,25.499 35.631,25.486 C 36.556,25.498 36.998,26.358 36.998,27.203 H 34.175 Z M 37.533,27.653 C 37.495,25.935 36.861,25.012 35.631,25 C 34.292,25.025 33.64,26.338 33.64,27.547 C 33.63,28.807 34.252,29.977 35.631,30.001 C 36.615,29.991 37.261,29.359 37.501,28.431 H 36.941 C 36.756,29.145 36.32,29.504 35.631,29.511 C 34.624,29.498 34.175,28.551 34.175,27.654 H 37.533 Z M 39.043,27.574 C 39.038,27.032 39.136,26.574 39.337,26.199 C 39.544,25.831 39.921,25.588 40.474,25.588 V 25 C 40.117,25 39.829,25.13 39.606,25.275 C 39.383,25.425 39.202,25.688 39.063,26.062 H 39.043 V 25 H 38.545 V 30 H 39.043 V 27.574 Z M 41.863,27.512 C 41.863,26.619 42.3,25.512 43.323,25.486 C 44.469,25.499 44.85,26.692 44.801,27.671 C 44.785,28.57 44.343,29.511 43.324,29.511 C 42.272,29.497 41.863,28.417 41.863,27.512 Z M 41.863,29.05 H 41.879 C 42.166,29.597 42.758,29.988 43.381,30.001 C 44.786,29.977 45.34,28.806 45.34,27.539 C 45.34,26.327 44.767,25.024 43.41,25 C 42.772,25 42.182,25.378 41.863,25.934 V 23 H 41.361 V 30 H 41.863 V 29.05 Z M 46.989,30 V 25 H 46.487 V 30 H 46.989 Z M 47.038,24 V 23 H 46.487 V 24 H 47.037 Z M 49.992,30.001 C 51.355,29.988 51.992,28.754 52,27.53 C 52,26.268 51.377,25.024 49.992,25 C 48.617,25.024 47.988,26.278 47.988,27.53 C 47.997,28.746 48.634,29.987 49.992,30.001 Z M 51.465,27.53 C 51.465,28.466 51.067,29.498 49.992,29.51 C 48.93,29.497 48.523,28.45 48.523,27.53 C 48.523,26.59 48.92,25.51 49.993,25.486 C 51.098,25.499 51.475,26.563 51.465,27.53 Z" fill="rgb(254, 254, 253)"/>
</svg>
