<?xml version="1.0" encoding="UTF-8"?>
<!-- generated by Finnhub -->
<svg viewBox="0 0 55.5 55.5" xmlns="http://www.w3.org/2000/svg">
<path d="M 0,0 H 55.5 V 55.5 H 0 Z" fill="rgb(238, 38, 39)"/>
<path d="M 15.49,19.485 C 15.5,19.22 15.72,19 16,19 H 18 C 18.28,19 18.5,19.22 18.5,19.5 V 20 H 25.5 C 25.78,20 26,20.22 26,20.5 V 21.5 A 0.5,0.5 0 0,1 25.5,22 H 8.5 A 0.5,0.5 0 0,1 8,21.5 V 20.5 C 8,20.22 8.22,20 8.5,20 H 15.5 V 19.5 Z M 11.5,23 A 0.5,0.5 0 0,0 11,23.5 V 26.5 C 11,26.78 11.22,27 11.5,27 H 22.5 A 0.5,0.5 0 0,0 23,26.5 V 23.5 A 0.5,0.5 0 0,0 22.5,23 H 11.5 Z M 13.2,24.5 A 0.2,0.2 0 0,0 13,24.7 V 25.3 C 13,25.41 13.09,25.5 13.2,25.5 H 20.8 A 0.2,0.2 0 0,0 21,25.3 V 24.7 A 0.2,0.2 0 0,0 20.8,24.5 H 13.2 Z M 31.5,24 H 29.5 A 0.5,0.5 0 0,0 29,24.5 V 25.5 C 29,25.78 29.22,26 29.5,26 H 30.7 C 30.87,26 31,26.13 31,26.3 V 36 A 1,1 0 0,0 32,37 H 47.5 A 0.5,0.5 0 0,0 48,36.5 V 35.5 A 0.5,0.5 0 0,0 47.5,35 H 33.3 A 0.3,0.3 0 0,1 33,34.7 V 24.5 A 0.5,0.5 0 0,0 32.5,24 H 31.5 Z M 36,24.5 C 36,24.22 36.22,24 36.5,24 H 45.5 C 45.78,24 46,24.22 46,24.5 V 25.5 A 0.5,0.5 0 0,1 45.5,26 H 42 V 27 H 46.5 C 46.78,27 47,27.22 47,27.5 V 28.5 A 0.5,0.5 0 0,1 46.5,29 H 42 V 33 A 1,1 0 0,1 41,34 H 38.5 A 0.5,0.5 0 0,1 38,33.5 V 32.5 C 38,32.22 38.22,32 38.5,32 H 39.7 A 0.3,0.3 0 0,0 40,31.7 V 29 H 35.5 A 0.5,0.5 0 0,1 35,28.5 V 27.5 C 35,27.22 35.22,27 35.5,27 H 40 V 26 H 36.5 A 0.5,0.5 0 0,1 36,25.5 V 24.5 Z M 9.5,28 A 0.5,0.5 0 0,0 9,28.5 V 36.5 C 9,36.78 9.22,37 9.5,37 H 10.5 A 0.5,0.5 0 0,0 11,36.5 V 30 C 11,29.72 11.22,29.5 11.5,29.5 H 22.5 C 22.78,29.5 23,29.72 23,30 V 36.5 C 23,36.78 23.22,37 23.5,37 H 24.5 A 0.5,0.5 0 0,0 25,36.5 V 28.5 A 0.5,0.5 0 0,0 24.5,28 H 9.5 Z M 12,31.5 C 12,31.22 12.22,31 12.5,31 H 21.5 C 21.78,31 22,31.22 22,31.5 V 34.5 A 0.5,0.5 0 0,1 21.5,35 H 12.5 A 0.5,0.5 0 0,1 12,34.5 V 31.5 Z M 14,32.6 C 14,32.49 14.09,32.4 14.2,32.4 H 19.8 C 19.91,32.4 20,32.49 20,32.6 V 33.4 A 0.2,0.2 0 0,1 19.8,33.6 H 14.2 A 0.2,0.2 0 0,1 14,33.4 V 32.6 Z M 30.66,20.24 A 0.5,0.5 0 0,1 31.09,19.74 L 32.44,19.58 C 32.74,19.54 33,19.78 33,20.08 V 22.36 A 0.5,0.5 0 0,1 32.55,22.86 L 31.21,23 A 0.5,0.5 0 0,1 30.66,22.5 V 20.24 Z M 35.76,30 A 0.5,0.5 0 0,0 35.26,30.41 L 34.73,33.41 A 0.5,0.5 0 0,0 35.22,34 H 36.32 A 0.5,0.5 0 0,0 36.82,33.59 L 37.37,30.59 A 0.5,0.5 0 0,0 36.87,30 H 35.75 Z M 45.85,30.41 A 0.5,0.5 0 0,0 45.35,30 H 44.23 A 0.5,0.5 0 0,0 43.73,30.59 L 44.29,33.59 A 0.5,0.5 0 0,0 44.78,34 H 45.88 A 0.5,0.5 0 0,0 46.38,33.41 L 45.85,30.41 Z M 34.2,21.61 L 39.72,19.3 C 39.95,19.2 40.52,19 41.02,19 S 42.11,19.2 42.33,19.3 L 47.59,21.51 C 47.77,21.57 48.09,21.78 47.98,22.16 L 47.5,23.23 C 47.45,23.33 47.25,23.47 46.88,23.31 L 42.28,21.37 C 42.07,21.27 41.51,21.08 41.02,21.09 C 40.54,21.1 39.95,21.28 39.72,21.37 L 35.16,23.33 C 34.88,23.45 34.64,23.41 34.54,23.18 L 34.08,22.18 C 34,22.04 33.91,21.74 34.2,21.62 Z" fill="rgb(254, 254, 253)" fill-rule="evenodd"/>
</svg>
