<?xml version="1.0" encoding="UTF-8"?>
<!-- generated by Finnhub -->
<svg viewBox="0 0 55.5 55.5" xmlns="http://www.w3.org/2000/svg">
<path d="M 0,0 H 55.5 V 55.5 H 0 Z" fill="rgb(35, 64, 143)"/>
<path d="M 21.79,12.065 A 6.33,6.33 0 0,0 16.66,18.78 A 5.85,5.85 0 0,0 18.41,22.67 A 6,6 0 0,0 21.54,24.41 L 21.77,24.46 L 21.43,24.73 C 20.22,25.7 19.52,27.71 19.76,29.53 A 11.93,11.93 0 0,0 20.33,31.87 C 20.35,31.97 20.13,32.07 19.43,32.32 C 17.83,32.88 16.31,33.52 15.62,33.92 C 13.58,35.13 12.65,36.92 13.12,38.74 C 13.28,39.36 13.61,39.96 13.98,40.33 C 15.23,41.55 17.46,41.96 19.12,42 C 21.35,42.05 23.57,41.36 25.56,40.21 L 26.11,39.89 L 26.89,40.47 C 27.87,41.2 29.12,42.03 30.39,42 C 31.34,41.98 32.24,41.4 33.11,41 H 45 V 38.13 C 45,34.77 45.13,35.27 43.95,37.15 A 8.29,8.29 0 0,1 40.52,40.41 C 40.02,40.66 39.07,40.81 38.45,40.74 L 38,40.68 V 36.53 C 38,33.58 38,31.9 38.07,31.61 C 38.2,31.01 38.69,30.51 39.28,30.38 C 39.52,30.33 39.79,30.28 39.88,30.28 C 39.97,30.28 40.04,30.23 40.04,30.16 C 40.04,30.06 39.94,30 38.71,30 H 34.46 L 34.96,29.88 C 35.66,29.68 36.52,29.39 37.12,28.76 C 37.9,27.94 38.01,27.65 38.01,26.33 C 38.01,25.28 38.01,25.23 37.74,24.68 A 7.1,7.1 0 0,0 37.3,23.87 C 36.94,23.36 36.08,22.87 33.84,21.87 A 28.07,28.07 0 0,1 31.33,20.67 C 30.79,20.26 30.61,19.45 30.93,18.91 C 31.15,18.55 31.85,18.21 32.51,18.16 C 32.95,18.12 33.16,18.15 33.65,18.32 C 35.15,18.84 36.05,19.73 36.72,21.38 A 3,3 0 0,0 37.1,22.14 C 37.15,22.16 37.2,21.4 37.2,20.02 C 37.22,18.26 37.2,17.88 37.11,17.88 C 37.05,17.88 36.96,18.05 36.91,18.33 C 36.78,18.86 36.54,19.21 36.29,19.21 C 36.19,19.21 35.71,18.81 35.07,18.48 A 5.36,5.36 0 0,0 31.93,17.81 C 31.31,17.85 30.77,18.4 30.17,18.82 C 29.95,18.98 29.79,19.01 26.47,19 H 22.88 C 22.81,19.03 22.75,19.12 22.75,19.19 C 22.75,19.28 22.89,19.3 23.29,19.3 C 23.59,19.3 23.96,19.36 24.11,19.42 C 24.63,19.64 24.65,19.38 24.65,21.38 C 24.65,23.08 24.65,23.2 24.48,23.41 C 24.21,23.75 23.89,23.87 23.26,23.87 C 22.56,23.87 22.25,23.69 21.87,23.06 C 21.2,21.93 20.86,17.96 21.26,15.97 C 21.61,14.23 22.28,13.18 23.29,12.79 C 23.43,12.74 23.79,12.69 24.08,12.69 C 25.53,12.67 27.44,14.14 28.32,16.4 C 28.52,16.9 28.67,17.35 28.67,17.42 C 28.67,17.49 28.75,17.54 28.84,17.54 C 29,17.54 29,17.49 29,16.1 V 13.52 C 28.95,12.5 28.88,12.38 28.75,12.38 C 28.67,12.38 28.48,12.55 28.34,12.75 C 28.04,13.17 27.61,13.42 27.33,13.33 C 27.23,13.3 26.73,13.07 26.23,12.83 A 7.64,7.64 0 0,0 21.8,12.08 Z M 29.53,19.37 C 29.53,19.4 29.36,19.69 29.14,20 C 28.81,20.48 28.74,20.55 28.72,20.39 C 28.65,19.89 28.87,19.46 29.24,19.36 C 29.5,19.3 29.54,19.3 29.54,19.36 Z M 28.08,23.87 L 28.38,24.08 V 30 L 28.11,30.05 C 27.88,30.07 27.83,30.12 27.81,30.31 L 27.79,30.54 H 28.44 C 30.27,30.54 31.26,31.54 31.01,33.16 C 30.88,34.01 30.21,35.23 29.27,36.38 L 28.87,36.86 L 28.27,36.18 C 27.27,35.04 26.47,34.07 25.25,32.49 L 24.08,31 L 24.68,30.7 C 25.9,30.05 26.59,29.32 26.86,28.39 C 27.06,27.69 26.98,26.39 26.7,25.77 A 3.97,3.97 0 0,0 25.47,24.34 C 25.24,24.26 25.28,24.17 25.58,24.07 L 26.31,23.8 C 26.93,23.57 27.66,23.6 28.08,23.89 Z M 29.18,24 C 29.62,24.43 30.84,25.06 32.71,25.83 C 34.25,26.46 34.89,26.79 35.26,27.15 C 35.56,27.45 35.78,27.98 35.7,28.22 C 35.68,28.28 35.64,28.43 35.62,28.56 C 35.56,28.84 35.12,29.34 34.79,29.51 C 34.49,29.66 33.52,29.67 32.98,29.53 A 7.35,7.35 0 0,1 31.04,28.53 A 7.51,7.51 0 0,1 29.36,26.43 A 6.4,6.4 0 0,1 28.75,23.63 C 28.77,23.63 28.97,23.79 29.18,24 Z M 24.38,24.9 C 25.08,25.54 25.68,27.1 25.68,28.29 C 25.68,29.19 25.38,29.69 24.53,30.22 C 23.73,30.7 23.85,30.76 23,29.44 C 21.7,27.44 21.38,26.54 21.63,25.69 C 21.73,25.35 21.85,25.14 22.11,24.89 L 22.47,24.57 H 23.24 L 24.02,24.56 L 24.38,24.9 Z M 31.52,29.29 C 32.04,29.53 32.69,29.8 32.96,29.88 L 33.46,30 H 28.72 L 28.79,29.79 C 28.89,29.42 29.16,29.08 29.47,28.92 C 29.93,28.69 30.45,28.78 31.52,29.29 Z M 34,31.35 L 34.01,35.49 V 38.98 L 33.87,39.16 C 33.02,39.74 32.05,39.83 30.92,38.88 C 30.71,38.7 30.27,38.26 29.95,37.91 L 29.38,37.26 L 29.55,37.04 C 30.17,36.23 30.8,35.29 31.45,34.18 C 31.69,33.8 33.14,31.03 33.78,31.03 C 33.82,31.03 33.92,31.18 34,31.35 Z M 20.89,33 A 32.67,32.67 0 0,0 25.05,38.71 C 25.42,39.11 25.73,39.48 25.73,39.52 C 25.73,39.65 24.14,40.42 23.33,40.69 C 21.36,41.36 19.39,40.98 18.12,39.69 A 4.7,4.7 0 0,1 16.73,36.06 C 16.8,34.47 17.62,33.55 19.72,32.68 L 20.52,32.36 C 20.54,32.36 20.71,32.65 20.89,33 Z" fill="rgb(254, 254, 253)"/>
</svg>
