<?xml version="1.0" encoding="UTF-8"?>
<!-- generated by Finnhub -->
<svg viewBox="0 0 55.5 55.5" xmlns="http://www.w3.org/2000/svg">
<path d="M 0,0 H 55.5 V 55.5 H 0 Z" fill="rgb(239, 242, 248)"/>
<path d="M 35.99,17.465 A 3.7,3.7 0 0,1 35.06,19.88 C 34.57,20.42 33.98,20.8 33.28,20.91 C 32.9,20.97 32.51,21.03 32.13,20.98 A 3.34,3.34 0 0,1 30.27,20.1 C 29.92,19.77 29.57,19.44 29.37,18.97 A 4.34,4.34 0 0,1 29.06,16.5 C 29.16,15.77 29.44,15.14 29.94,14.65 C 30.18,14.41 30.46,14.23 30.79,14.23 L 30.17,14.89 A 0.9,0.9 0 0,1 30.24,14.99 C 30.74,14.77 31.22,14.54 31.72,14.35 C 32.16,14.19 32.6,14.03 33.07,14.22 C 33.1,14.24 33.14,14.23 33.18,14.23 C 33.22,14.23 33.25,14.22 33.29,14.17 L 32.92,14.07 V 14.02 L 33.03,14 C 33.23,13.99 33.41,14.04 33.61,14.02 C 33.81,14.01 34.05,14.22 34.27,14.32 C 35.06,14.69 35.49,15.44 35.83,16.22 C 35.99,16.59 36.01,17.06 35.99,17.49 Z" fill="rgb(185, 34, 48)"/>
<path d="M 41.99,35.705 C 42,41.47 36,45 30.8,45 C 29.7,45 28.63,44.9 27.59,44.68 A 3.6,3.6 0 0,1 27.79,42 C 28.79,42.23 29.84,42 30.91,42 C 34.82,42 39.04,39.86 39.04,35.59 C 39.04,27.5 23,28.4 23,18.38 C 23,13.76 28.14,11.86 31.89,12.01 C 28.84,12.01 24.93,13.96 25,17.35 C 25.2,26.87 42,25.19 42,35.71 Z" fill="rgb(185, 34, 48)"/>
<path d="M 36.82,12.434999999999999 L 36.8,12.49 C 34.8,11.91 32.9,11.19 30.76,11.36 A 15.59,15.59 0 0,0 16.6,29.91 C 16.82,31.11 17.18,32.25 17.65,33.32 A 2.8,2.8 0 0,0 15.4,34.81 A 17.2,17.2 0 0,1 14,28.03 C 14,27.3 14,26.47 14.14,25.76 C 15.23,17.48 22.5,11 30.76,11 C 33,11 34.88,11.44 36.83,12.45 Z" fill="rgb(31, 189, 193)"/>
<path d="M 27.58,44.665 A 16.82,16.82 0 0,1 15.4,34.8 A 2.8,2.8 0 0,1 17.66,33.32 A 14.81,14.81 0 0,0 27.8,41.96 A 3.65,3.65 0 0,0 27.6,44.66 H 27.59 Z" fill="rgb(47, 79, 161)"/>
<path d="M 17.639999999999997,33.315 C 16.83,33.4 16.01,33.78 15.4,34.81 C 14.84,33.51 14.43,32.12 14.2,30.67 C 14.94,29.97 15.82,30 16.63,30 C 16.85,31.2 17.18,32.26 17.65,33.33 Z" fill="rgb(32, 140, 188)"/>
<path d="M 32.21,44.915 C 31.77,45.01 31.25,45 30.8,45 C 29.7,45 28.61,44.89 27.58,44.68 A 3.7,3.7 0 0,1 27.78,41.98 C 29,42 29.84,42 30.91,42 C 31.16,42 31.41,42 31.67,41.98 H 31.68 C 31.48,42.81 31.52,44.08 32.22,44.93 Z" fill="rgb(115, 46, 102)"/>
</svg>
