<?xml version="1.0" encoding="UTF-8"?>
<!-- generated by Finnhub -->
<svg viewBox="0 0 55.5 55.5" xmlns="http://www.w3.org/2000/svg">
<path d="M 0,0 H 55.5 V 55.5 H 0 Z" fill="rgb(239, 242, 248)"/>
<path d="M 9.22,25.625 C 9.01,25.43 8.34,25 7.49,25 C 6.44,25 5,25.74 5,27.57 C 5,29.39 6.49,30 7.5,30 C 8.3,30 8.99,29.66 9.23,29.5 V 27.33 H 7.7 V 28 H 8.45 V 29.1 A 2.5,2.5 0 0,1 7.49,29.34 C 7.02,29.34 5.83,29.01 5.83,27.57 S 6.79,25.69 7.49,25.69 C 8.06,25.69 8.59,26.01 8.79,26.17 L 9.23,25.64 Z M 10.2,25 V 30 H 11 V 27.98 H 11.64 L 12.94,30 H 13.87 L 12.47,27.91 C 13.05,27.72 13.47,27.16 13.47,26.49 C 13.47,25.67 12.83,25 12.05,25 H 10.2 Z M 11.92,25.74 H 11 V 27.37 H 11.92 A 0.8,0.8 0 0,0 12.69,26.55 A 0.8,0.8 0 0,0 11.92,25.74 Z M 14,30 V 25 H 17 V 25.72 H 14.82 V 27.12 H 16.57 V 27.76 H 14.82 V 29.25 H 17 V 30 H 14 Z M 18,25 V 30 H 21 V 29.25 H 18.82 V 27.76 H 20.57 V 27.13 H 18.82 V 25.72 H 21 V 25 H 18 Z M 22,25 V 30 H 22.75 V 26.5 L 25.4,30 H 26 V 25 H 25.27 V 28.5 L 22.65,25 H 22 Z M 28,25 V 30 H 29.76 C 30.31,29.98 31.4,29.63 31.4,28.46 C 31.4,27.77 30.75,27.46 30.43,27.4 C 30.7,27.32 31.25,26.96 31.25,26.22 C 31.25,25.29 30.23,25 29.55,25 H 28 Z M 28.79,25.74 H 29.84 C 30.19,25.74 30.48,26.05 30.48,26.44 C 30.48,26.82 30.19,27.13 29.84,27.13 H 28.79 V 25.74 Z M 28.79,27.77 H 29.92 C 30.31,27.77 30.62,28.1 30.62,28.52 C 30.62,28.93 30.31,29.27 29.92,29.27 H 28.8 V 27.77 Z M 32.25,30 V 25 H 34.05 C 34.8,25 35.42,25.67 35.42,26.5 C 35.42,27.15 35.02,27.73 34.47,27.93 L 35.8,30 H 34.9 L 33.65,28 H 33 V 30 H 32.25 Z M 33,25.74 H 33.91 C 34.33,25.74 34.67,26.1 34.67,26.56 C 34.67,27.01 34.33,27.37 33.91,27.37 H 33 V 25.74 Z M 45.36,25 C 46.16,25 46.79,25.43 47,25.64 L 46.59,26.17 C 46.39,26.01 45.89,25.69 45.36,25.69 C 44.69,25.69 43.78,26.13 43.78,27.57 S 44.91,29.34 45.36,29.34 C 45.71,29.34 46.1,29.18 46.26,29.1 V 28 H 45.56 V 27.38 H 47 V 29.49 C 46.77,29.66 46.11,30 45.36,30 C 44.41,30 43,29.4 43,27.57 S 44.36,25 45.36,25 Z M 48,30 H 51 V 29.25 H 48.83 V 27.76 H 50.58 V 27.13 H 48.83 V 25.72 H 51 V 25 H 48 V 30 Z M 36.8,25 H 36 V 30 H 36.8 V 25 Z M 38.2,25 V 30 H 39.93 C 41.18,30 42.2,28.88 42.2,27.5 S 41.18,25 39.93,25 H 38.2 Z M 39,25.7 V 29.3 H 39.9 C 40.8,29.3 41.54,28.49 41.54,27.5 S 40.81,25.7 39.91,25.7 H 39 Z" fill-rule="evenodd"/>
</svg>
