<?xml version="1.0" encoding="UTF-8"?>
<!-- generated by Finnhub -->
<svg viewBox="0 0 55.5 55.5" xmlns="http://www.w3.org/2000/svg">
<path d="M 0,0 H 55.5 V 55.5 H 0 Z" fill="rgb(239, 242, 248)"/>
<path d="M 7.99,37.985 H 21.8 H 13.45 L 21.22,25.3 L 8,38 Z" fill="rgb(60, 123, 199)"/>
<path d="M 29.349999999999998,11.985 L 21.22,25.3 L 21.52,25.01 L 28.36,29.9 L 34.82,21.91 L 29.36,12 Z" fill="rgb(25, 65, 136)"/>
<path d="M 21.509999999999998,24.995 L 21.22,25.3 L 13.45,38 H 21.81 L 28.37,29.9 L 21.52,25 Z" fill="rgb(30, 25, 76)"/>
<path d="M 37.59,18.465 L 34.82,21.91 L 43.7,38 H 21.8 H 48 L 37.6,18.48 Z" fill="rgb(60, 123, 199)"/>
<path d="M 34.81,21.895 L 28.36,29.9 L 39.7,38 H 43.7 L 34.82,21.91 Z" fill="rgb(55, 91, 171)"/>
<path d="M 28.36,29.884999999999998 L 21.8,38 H 39.7 L 28.36,29.9 Z" fill="rgb(30, 25, 76)"/>
</svg>
