<?xml version="1.0" encoding="UTF-8"?>
<!-- generated by Finnhub -->
<svg viewBox="0 0 55.5 55.5" xmlns="http://www.w3.org/2000/svg">
<path d="M 0,0 H 55.5 V 55.5 H 0 Z" fill="rgb(239, 242, 248)"/>
<path d="M 11.67,19.985 H 27.36 C 25.13,21.26 24.24,22.86 24.11,24.45 L 24.1,25 H 18.6 C 18.06,22.97 17,21.58 15.76,21.58 C 13.99,21.58 12.56,24.43 12.56,27.95 C 12.56,31.46 13.99,34.31 15.76,34.31 C 17.35,34.31 18.66,32.01 18.92,29 H 16 V 27 H 24.45 A 5.92,5.92 0 0,0 26.24,29.74 A 8.9,8.9 0 0,1 28.22,32.84 C 26.92,32.84 25.74,32.24 25.32,31.95 L 24.92,32.27 C 25.77,33 27.48,33.37 28.22,33.45 L 28.04,34.21 A 6.9,6.9 0 0,1 23.84,32.65 L 23.29,32.85 C 24.27,34.13 26.65,34.71 27.72,34.84 L 27.12,35.52 A 10.02,10.02 0 0,1 21.83,33.07 H 21.31 C 22.19,34.58 24.79,35.65 25.98,36 H 11.68 C 7.58,35.33 6.18,31.44 6,29.58 V 26.8 C 6.43,21.91 9.97,20.22 11.68,19.99 Z M 23.17,30.12 L 23.56,30.76 L 23.88,30.59 L 23.56,29.97 L 23.17,30.12 Z M 20.07,31.04 L 19.82,30.32 H 20.2 L 20.52,31.04 H 20.06 Z M 20.82,32.45 L 20.35,31.7 H 20.82 L 21.32,32.45 H 20.82 Z M 21.61,30.42 L 21.95,31.12 L 22.4,31.04 L 22.05,30.42 H 21.61 Z M 22.75,32.36 L 22.28,31.7 L 22.82,31.6 L 23.25,32.2 L 22.75,32.36 Z M 24.37,31.8 L 23.88,31.28 L 24.3,31.12 L 24.73,31.6 L 24.37,31.8 Z M 29.49,27.7 C 29.49,28.63 28.71,29.39 27.75,29.39 C 26.78,29.39 26,28.63 26,27.69 C 26,26.76 26.78,26 27.75,26 C 28.71,26 29.49,26.76 29.49,27.7 Z M 28.18,36 H 37 V 30 H 40.37 C 40.99,30.08 41.88,30.55 42,32.1 V 36 H 50 A 2.04,2.04 0 0,1 49.07,34.41 V 31.5 A 4.1,4.1 0 0,0 45.84,28.04 C 46.91,27.74 49.07,26.54 49.07,24.18 C 49.07,21.23 46.62,20.18 44.5,20 H 29.93 C 30.93,20.33 33.23,21.42 34.41,23.2 H 33.81 A 8.3,8.3 0 0,0 28.67,20.48 L 28.02,21.34 C 28.78,21.29 30.72,21.63 32.4,23.43 L 31.88,23.61 A 6.57,6.57 0 0,0 27.83,21.91 L 27.68,22.84 C 28.39,22.88 30.01,23.21 30.78,24.14 L 30.38,24.37 A 5.14,5.14 0 0,0 27.83,23.43 C 28.03,23.99 28.73,25.38 29.93,26.46 A 6.1,6.1 0 0,1 31.75,30.73 A 5.55,5.55 0 0,1 28.18,36 Z M 34.38,23.9 H 34.92 L 35.35,24.78 H 34.92 L 34.39,23.9 Z M 32.97,24 L 32.43,24.12 L 32.97,24.85 L 33.45,24.78 L 32.97,24 Z M 30.94,24.78 L 31.35,24.53 L 31.81,25.13 L 31.47,25.39 L 30.94,24.78 Z M 31.81,25.85 L 32.16,25.68 L 32.43,26.29 L 32.16,26.42 L 31.81,25.85 Z M 33.31,25.39 H 33.79 L 34.03,26.03 H 33.61 L 33.31,25.39 Z M 35.66,25.39 H 35.22 L 35.52,26.21 H 35.95 L 35.65,25.39 Z M 37,22 H 39.5 A 2.5,2.5 0 0,1 39.5,27 H 37 V 22 Z" fill="rgb(0, 94, 167)" fill-rule="evenodd"/>
</svg>
