<?xml version="1.0" encoding="UTF-8"?>
<!-- generated by Finnhub -->
<svg viewBox="0 0 55.5 55.5" xmlns="http://www.w3.org/2000/svg">
<path d="M 0,0 H 55.5 V 55.5 H 0 Z" fill="rgb(239, 242, 248)"/>
<path d="M 17.99,11.985 A 6,6 0 0,0 12,18 V 38 A 6,6 0 0,0 18,44 H 38 A 6,6 0 0,0 44,38 V 18 A 6,6 0 0,0 38,12 H 18 Z M 18,14 A 4,4 0 0,0 14,18 V 38 A 4,4 0 0,0 18,42 H 38 A 4,4 0 0,0 42,38 V 18 A 4,4 0 0,0 38,14 H 18 Z" fill="url(#b)" fill-rule="evenodd"/>
<path d="M 18.459999999999997,15.985 A 2.24,2.24 0 0,1 20.59,17.66 L 19.11,17.9 C 19.01,17.24 18.54,17.1 18.37,17.12 C 17.73,17.15 17.51,17.89 17.5,18.53 C 17.49,19.18 17.89,19.81 18.37,19.81 C 18.75,19.81 19.06,19.46 19.11,19.29 H 18.3 V 18.19 H 20.6 V 21 H 19.8 L 19.62,20.46 C 19.34,20.87 18.62,20.99 18.3,21 C 16.8,21 16,19.88 16,18.61 C 16,17.35 16.75,15.96 18.47,16.01 Z" fill="rgb(1, 25, 81)"/>
<path d="M 15.99,21.985 H 18.79 A 1.5,1.5 0 0,1 18.79,25 H 17.5 V 27 H 16 V 22 Z M 17.5,23 H 18.32 A 0.5,0.5 0 1,1 18.32,24 H 17.5 V 23 Z" fill="rgb(1, 25, 81)" fill-rule="evenodd"/>
<path d="M 27.4,15.985 H 26.5 V 21 H 30 V 20 H 28 V 19 H 29.64 V 18 H 28 V 17 H 30 V 16 H 27.41 Z M 31.77,16 H 30.79 V 21 H 34.36 V 20 H 32.29 V 19 H 34 V 18 H 32.3 V 17 H 34.36 V 16 H 31.77 Z" fill="rgb(1, 25, 81)"/>
<path d="M 24.189999999999998,15.985 H 21.25 V 21 H 22.75 V 19 H 23.19 L 23.99,21 H 25.69 L 24.83,18.86 A 1.5,1.5 0 0,0 24.2,16 Z M 23.66,17 H 22.75 V 18 H 23.65 A 0.5,0.5 0 0,0 23.65,17 Z M 23.95,22 H 21 V 27 H 22.5 V 25 H 22.94 L 23.74,27 H 25.45 L 24.59,24.86 A 1.5,1.5 0 0,0 23.95,22 Z M 23.41,23 H 22.5 V 24 H 23.41 A 0.5,0.5 0 1,0 23.41,23 Z" fill="rgb(1, 25, 81)" fill-rule="evenodd"/>
<path d="M 34.99,15.985 V 21 H 36.5 V 18.53 L 38.14,21 H 39.5 V 16 H 38 V 18.31 L 36.53,16 H 35 Z" fill="rgb(1, 25, 81)"/>
<path d="M 28.4,26.985 A 2.46,2.46 0 0,0 30.83,24.5 C 30.83,23.12 29.75,22 28.41,22 A 2.46,2.46 0 0,0 26,24.5 C 26,25.88 27.08,27 28.41,27 Z M 28.41,26 C 28.88,26 29.25,25.33 29.25,24.5 S 28.88,23 28.41,23 C 27.95,23 27.58,23.67 27.58,24.5 S 27.95,26 28.41,26 Z" fill="rgb(1, 25, 81)" fill-rule="evenodd"/>
<path d="M 41.99,31.355 A 7.93,7.93 0 0,0 37.8,29.99 C 35.45,29.95 27.9,31.55 27,41.32 C 26.98,42.68 27.32,45.54 28.87,47 A 3.03,3.03 0 0,1 30.81,43.4 L 31.56,43.11 C 34.46,42.03 39.93,39.98 42,35.37 V 31.37 Z M 40.02,33.42 A 5.88,5.88 0 0,0 34.22,34.87 A 7.18,7.18 0 0,0 32.02,40.55 C 33.06,40.88 35.88,41.22 38,38.99 C 39.81,37.09 40.3,34.42 40.02,33.42 Z" fill="url(#a)" fill-rule="evenodd"/>
<path d="M 15.99,29.985 V 28.5 H 19 L 18.63,30 H 16 Z M 19.83,29 L 19.56,30 H 28.51 L 28.8,29 H 19.83 Z M 29.63,29 L 29.36,30 H 33.72 L 34,29 H 29.63 Z M 22.02,32 L 21.74,33 H 29.19 L 29.48,32 H 22.02 Z M 16,32 V 33 H 20.72 L 21,32 H 16 Z" fill="rgb(92, 95, 169)"/>
<defs>
<linearGradient id="b" x1="12" x2="44" y1="27.61" y2="28" gradientUnits="userSpaceOnUse">
<stop stop-color="rgb(113, 163, 50)" offset="0"/>
<stop stop-color="rgb(27, 109, 37)" offset="1"/>
</linearGradient>
<linearGradient id="a" x1="42.42" x2="27" y1="35.03" y2="35.55" gradientUnits="userSpaceOnUse">
<stop stop-color="rgb(27, 109, 37)" offset="0"/>
<stop stop-color="rgb(113, 163, 50)" offset="1"/>
</linearGradient>
</defs>
</svg>
