<?xml version="1.0" encoding="UTF-8"?>
<!-- generated by Finnhub -->
<svg viewBox="0 0 55.5 55.5" xmlns="http://www.w3.org/2000/svg">
<path d="M 0,0 H 55.5 V 55.5 H 0 Z" fill="rgb(14, 37, 28)"/>
<path d="M 15.99,18.384999999999998 A 8.4,8.4 0 0,1 24.4,10 H 31.6 A 8.4,8.4 0 0,1 40,18.4 V 37.6 A 8.4,8.4 0 0,1 31.6,46 H 24.4 A 8.4,8.4 0 0,1 16,37.6 V 18.4 Z M 24.4,11 H 31.6 C 35.58,11 39,14.42 39,18.4 V 21.75 L 34.64,17.59 L 28.22,23.94 L 28.98,24.86 L 34.56,19.21 L 39,23.45 V 37.6 C 39,37.8 38.99,38 38.96,38.22 L 34.57,34.38 L 23.97,44.98 H 24 A 7.56,7.56 0 0,1 17,37.6 V 34.89 L 26.16,27.61 L 29.98,31.42 L 30.82,30.58 L 26.24,25.99 L 17,33.34 V 18.4 C 17,14.42 20.42,11 24.4,11 Z M 25.65,45 H 31.6 A 8.19,8.19 0 0,0 38.65,39.54 L 34.63,36.02 L 25.65,45 Z" fill="rgb(118, 137, 132)" fill-rule="evenodd"/>
</svg>
