<?xml version="1.0" encoding="UTF-8"?>
<!-- generated by Finnhub -->
<svg viewBox="0 0 55.5 55.5" xmlns="http://www.w3.org/2000/svg">
<path d="M 0,0 H 55.5 V 55.5 H 0 Z" fill="rgb(20, 46, 89)"/>
<path d="M 49.95,29.985 H 48.31 L 50.35,25 H 52 L 49.96,30 Z M 49.63,25.56 L 47.78,30 H 46.11 L 47.95,25.56 H 49.63 Z M 47.33,26 L 45.66,30 H 44 L 45.72,26 H 47.33 Z" fill="rgb(248, 171, 24)"/>
<path d="M 14.99,29.985 H 14 V 25 H 15 V 30 Z M 19.42,30 H 18.38 V 29.5 C 18.11,29.89 17.58,30 17.2,30 C 16.23,30 15.52,29.2 15.52,27.96 C 15.52,26.71 16.28,26 17.26,26 C 17.63,26 18.16,26.1 18.38,26.43 V 25 H 19.42 V 30 Z M 18.38,27.92 C 18.38,27.27 18.05,26.88 17.56,26.88 C 17.06,26.88 16.74,27.32 16.74,27.92 C 16.74,28.52 17.06,29.04 17.56,29.04 C 18,29.04 18.38,28.64 18.38,27.92 Z M 22.3,28 H 21 V 30 H 20 V 25 H 21.9 C 23.03,25 23.9,25.22 24.15,26 C 24.42,26.8 24.02,27.48 23.25,27.78 L 24.52,30 H 23.3 L 22.3,28 Z M 21,26 V 27 H 21.92 C 22.46,27 22.95,27 22.95,26.49 C 22.95,26.01 22.51,26 21.92,26 H 21 Z M 28.73,31 V 30.08 H 29 C 29.4,30.08 29.6,30.05 29.71,29.78 L 29.76,29.68 L 28.34,26 H 29.6 L 30.31,28.27 L 31.07,26 H 32.33 L 30.8,29.73 C 30.42,30.7 30.15,31 29.16,31 H 28.73 Z M 32.35,27.27 C 32.46,26.28 33.39,26.01 34.22,26.01 C 35.37,26.01 36,26.45 36,27.54 V 28.36 C 36,28.85 36,29.46 36.05,30 H 35 V 29.5 C 34.73,29.83 34.27,30 33.72,30 C 32.79,30 32.24,29.4 32.24,28.74 C 32.24,28.36 32.35,28.14 32.63,27.97 A 3.4,3.4 0 0,1 34.22,27.54 L 34.98,27.43 V 27.32 C 34.98,26.94 34.6,26.82 34.16,26.82 C 33.78,26.82 33.5,26.99 33.5,27.32 L 32.35,27.27 Z M 35,28.17 L 34.23,28.23 C 33.57,28.29 33.46,28.46 33.46,28.68 S 33.62,29.13 34.01,29.13 S 35,28.9 35,28.4 V 28.18 Z M 37.7,30 H 36.58 V 25 H 37.7 V 30 Z M 39,25 H 40 V 26 H 41.08 V 27 H 40 V 28.56 C 40,28.95 40.1,29 40.48,29 H 40.81 V 30 H 40.11 C 39.19,30 39,29.83 39,28.9 V 27 H 38 V 26 H 39 V 25 Z M 41,31 V 30 H 41.27 C 41.77,30 41.82,29.95 41.93,29.68 L 41.98,29.57 L 40.56,26 H 41.82 L 42.52,28.45 L 43.29,26 H 44.55 L 43.02,29.7 C 42.64,30.68 42.42,31 41.44,31 H 41 Z M 8.97,26.48 L 7.77,26.64 C 7.66,26.28 7.27,25.97 6.62,25.97 C 5.86,25.97 5.32,26.51 5.32,27.54 C 5.32,28.56 5.86,29.07 6.68,29.07 C 7.22,29.07 7.82,28.72 7.82,28.1 V 28 H 6.57 V 27 H 9 V 30 H 8 V 29.37 C 7.73,29.77 7.17,30 6.46,30 C 4.93,30 4,29.07 4,27.54 C 4,26 5.1,25 6.62,25 C 7.77,25 8.7,25.56 8.97,26.48 Z" fill="rgb(254, 254, 253)"/>
<path d="M 26.52,25.985 C 27.56,26 28.53,26.61 28.53,28 C 28.53,29.39 27.61,30 26.53,30 S 24.53,29.39 24.53,28 C 24.53,26.67 25.45,26 26.53,26 Z M 26.49,29.11 C 26.93,29.11 27.32,28.71 27.32,28.04 S 26.98,26.98 26.49,26.98 C 25.99,26.98 25.66,27.38 25.66,28.04 C 25.66,28.72 25.99,29.11 26.49,29.11 Z M 11.46,26 C 12.48,26 13.46,26.61 13.46,28 C 13.46,29.39 12.54,30 11.46,30 C 10.43,30 9.46,29.39 9.46,28 C 9.46,26.67 10.43,26 11.46,26 Z M 11.41,29.11 C 11.91,29.11 12.24,28.71 12.24,28.04 S 11.91,26.98 11.41,26.98 C 10.91,26.98 10.59,27.38 10.59,28.04 C 10.59,28.72 10.92,29.11 11.41,29.11 Z" fill="rgb(254, 254, 253)"/>
</svg>
