<?xml version="1.0" encoding="UTF-8"?>
<!-- generated by Finnhub -->
<svg viewBox="0 0 55.5 55.5" xmlns="http://www.w3.org/2000/svg">
<path d="M 0,0 H 55.5 V 55.5 H 0 Z" fill="url(#a)"/>
<path d="M 47.456,30.985 C 47.083,32.056 46.502,33.061 45.751,34 H 37.178 A 12.688,12.688 0 0,0 38.497,31 H 47.466 Z M 36.506,35 H 44.861 C 43.748,36.132 42.373,37.144 40.791,38 H 33.245 A 11.683,11.683 0 0,0 36.506,35 Z M 24.923,39 A 9.8,9.8 0 0,0 31.096,39 H 38.676 C 35.593,40.267 31.938,41 28.018,41 C 24.098,41 20.438,40.267 17.349,39 H 24.923 Z M 22.771,38 A 11.716,11.716 0 0,1 19.502,35 H 11.15 C 12.267,36.132 13.646,37.144 15.232,38 H 22.772 Z M 8.536,31 C 8.921,32.056 9.503,33.061 10.256,34 H 18.828 A 12.675,12.675 0 0,1 17.505,31 H 8.536 Z M 47.766,30 H 38.745 C 38.912,29.187 39,28.35 39,27.5 C 39,27.335 38.995,27.168 38.984,27 H 47.911 C 47.97,27.338 48,27.672 48,28 C 48,28.68 47.92,29.348 47.765,30 Z M 17.256,30 A 12.379,12.379 0 0,1 17,27.5 C 17,27.336 17.006,27.17 17.018,27 H 8.101 A 5.205,5.205 0 0,0 8,28 C 8,28.68 8.08,29.348 8.236,30 H 17.256 Z M 17.154,26 H 8.382 A 9.723,9.723 0 0,1 9.406,24 H 17.758 A 11.002,11.002 0 0,0 17.154,26 Z M 38.3,24 C 38.555,24.667 38.746,25.34 38.863,26 H 47.656 A 9.432,9.432 0 0,0 46.7,24 H 38.3 Z M 46.005,23 H 37.865 A 13.782,13.782 0 0,0 36.675,21 H 44.161 C 44.862,21.646 45.481,22.317 46.005,23 Z M 18.212,23 C 18.555,22.318 18.966,21.644 19.434,21 H 12.03 A 17.01,17.01 0 0,0 10.133,23 H 18.212 Z M 21.187,19 H 14.633 C 15.165,18.65 15.723,18.316 16.305,18 H 22.379 C 21.963,18.308 21.565,18.643 21.187,19 Z M 41.582,19 H 34.932 C 34.552,18.642 34.152,18.307 33.732,18 H 39.908 C 40.491,18.316 41.05,18.65 41.582,19 Z M 35.016,16 C 32.833,15.367 30.469,15 28,15 C 25.59,15 23.28,15.369 21.141,16 H 35.016 Z" fill="rgb(254, 254, 253)"/>
<defs>
<linearGradient id="a" x1="10.418" x2="68.147" y1="9.712" y2="76.017" gradientUnits="userSpaceOnUse">
<stop stop-color="rgb(25, 29, 31)" offset="0"/>
<stop stop-color="rgb(5, 5, 8)" offset="1"/>
</linearGradient>
</defs>
</svg>
