<?xml version="1.0" encoding="UTF-8"?>
<!-- generated by Finnhub -->
<svg viewBox="0 0 55.5 55.5" xmlns="http://www.w3.org/2000/svg">
<path d="M 0,0 H 55.5 V 55.5 H 0 Z" fill="rgb(11, 58, 104)"/>
<path d="M 27.99,8.985 L 27.16,10.9 A 8.37,8.37 0 0,1 16.5,15.3 L 14.56,14.56 L 15.31,16.5 A 8.37,8.37 0 0,1 10.89,27.16 L 9,28 L 10.9,28.84 A 8.37,8.37 0 0,1 15.3,39.5 L 14.56,41.44 L 16.5,40.69 A 8.37,8.37 0 0,1 27.16,45.11 L 28,47 L 28.84,45.1 A 8.37,8.37 0 0,1 39.5,40.7 L 41.44,41.43 L 40.69,39.5 A 8.37,8.37 0 0,1 45.11,28.84 L 47,28 L 45.1,27.16 A 8.37,8.37 0 0,1 40.7,16.5 L 41.43,14.56 L 39.5,15.31 A 8.37,8.37 0 0,1 28.84,10.89 L 28,9 Z M 28,10.4 L 27.68,11.12 A 8.94,8.94 0 0,1 16.29,15.84 L 15.56,15.56 L 15.84,16.29 A 8.94,8.94 0 0,1 11.12,27.69 L 10.4,28 L 11.12,28.32 A 8.94,8.94 0 0,1 15.84,39.71 L 15.56,40.44 L 16.29,40.16 A 8.94,8.94 0 0,1 27.69,44.88 L 28,45.6 L 28.32,44.88 A 8.94,8.94 0 0,1 39.71,40.16 L 40.44,40.44 L 40.16,39.71 A 8.94,8.94 0 0,1 44.88,28.31 L 45.6,28 L 44.88,27.68 A 8.94,8.94 0 0,1 40.16,16.29 L 40.44,15.56 L 39.71,15.84 A 8.94,8.94 0 0,1 28.31,11.12 L 28,10.4 Z M 39,27.66 L 43,28 L 39,28.34 A 11,11 0 0,1 28.34,38.99 L 28,43 L 27.66,39 A 11,11 0 0,1 17.01,28.34 L 13,28 L 17,27.66 A 11,11 0 0,1 27.66,17.01 L 28,13 L 28.34,17 A 11,11 0 0,1 38.99,27.66 Z M 27.58,18.01 A 10,10 0 0,0 18,27.58 L 26.82,26.83 L 27.57,18.01 Z M 28.42,18.01 A 10,10 0 0,1 38,27.58 L 29.18,26.83 L 28.43,18.01 Z M 18.01,28.42 A 10,10 0 0,0 27.58,38 L 26.83,29.18 L 18.01,28.43 Z M 28.42,38 A 10,10 0 0,0 38,28.42 L 29.18,29.17 L 28.43,37.99 Z" fill="rgb(254, 254, 253)" fill-rule="evenodd"/>
</svg>
