<?xml version="1.0" encoding="UTF-8"?>
<!-- generated by Finnhub -->
<svg viewBox="0 0 55.5 55.5" xmlns="http://www.w3.org/2000/svg">
<path d="M 0,0 H 55.5 V 55.5 H 0 Z" fill="rgb(24, 188, 200)"/>
<path d="M 14.639,21.13 C 17.439,21.145 19.047,23.549 19.419,24.762 H 18.703 C 17.683,22.308 15.791,21.722 14.649,21.722 C 10.737,21.722 9.631,25.198 9.674,26.812 C 9.942,31.03 13.102,31.973 14.649,31.917 C 17.877,31.583 18.873,28.714 18.968,27.321 H 14.458 V 26.736 H 19.585 V 32.576 H 18.968 V 29.754 C 18.509,30.759 17.128,32.576 14.648,32.576 C 11.557,32.576 9,30.333 9,26.812 C 9,23.941 10.993,21.145 14.649,21.145 Z M 21.425,32.576 V 23.43 H 22.059 V 25.068 C 22.865,23.6 24.509,23.371 25.231,23.441 V 24.108 C 23.126,23.775 22.059,25.964 22.059,26.757 V 32.575 H 21.425 Z M 33.942,32.576 L 31.445,23.431 H 32.142 L 34.234,31.386 L 36.374,23.431 H 37.023 L 39.131,31.386 L 41.223,23.431 H 41.887 L 39.487,32.576 H 38.79 L 36.7,24.602 L 34.592,32.576 H 33.943 Z M 25.263,29.64 C 25.263,28.013 27.203,24.916 28.172,23.431 C 29.175,24.839 31.166,28.052 31.1,29.641 C 31.018,31.626 29.72,32.576 28.172,32.576 C 26.542,32.576 25.263,31.393 25.263,29.64 Z" fill="rgb(254, 254, 253)"/>
<path d="M 25.791999999999998,29.563 C 25.802,28.331 27.383,25.727 28.173,24.516 C 28.992,25.664 30.615,28.283 30.561,29.578 C 30.494,31.196 29.436,31.971 28.173,31.971 C 26.845,31.971 25.803,31.007 25.803,29.578 Z" fill="url(#a)"/>
<path d="M 28.099999999999998,16.86 L 28.225,14.123 L 28.422,16.875 C 29.337,16.771 29.635,15.96 29.646,15.295 C 29.656,14.629 29.103,13.829 28.752,13.341 C 28.472,12.95 28.284,12.284 28.225,12 C 28.163,12.606 27.949,13.053 27.72,13.34 C 27.005,14.239 26.835,14.904 26.835,15.294 C 26.865,16.44 27.692,16.825 28.111,16.874 Z M 28.11,39.125 L 28.225,41.877 L 28.422,39.125 C 29.337,39.229 29.635,40.04 29.646,40.705 C 29.656,41.371 29.103,42.171 28.752,42.659 C 28.472,43.05 28.284,43.716 28.225,44 C 28.163,43.394 27.949,42.947 27.72,42.66 C 27.005,41.761 26.835,41.096 26.835,40.706 C 26.865,39.56 27.692,39.175 28.111,39.126 Z M 31.917,17.45 L 33.049,14.928 L 32.207,17.56 C 33.097,17.789 33.677,17.14 33.936,16.524 C 34.194,15.908 33.976,14.966 33.832,14.386 C 33.716,13.923 33.79,13.236 33.842,12.95 C 33.557,13.493 33.192,13.833 32.871,14.02 C 31.87,14.601 31.463,15.16 31.318,15.524 C 30.919,16.601 31.545,17.254 31.917,17.449 Z M 31.919,38.549 L 33.05,41.071 L 32.209,38.438 C 33.099,38.208 33.679,38.858 33.937,39.474 C 34.195,40.09 33.977,41.032 33.832,41.612 C 33.716,42.076 33.79,42.763 33.841,43.049 C 33.557,42.506 33.191,42.166 32.871,41.979 C 31.871,41.398 31.465,40.839 31.319,40.475 C 30.921,39.397 31.547,38.744 31.919,38.549 Z M 24.565,17.45 L 23.432,14.928 L 24.275,17.56 C 23.384,17.789 22.804,17.14 22.545,16.524 C 22.288,15.908 22.505,14.966 22.649,14.386 C 22.765,13.923 22.692,13.236 22.64,12.95 C 22.924,13.493 23.29,13.833 23.61,14.02 C 24.612,14.601 25.018,15.16 25.164,15.524 C 25.562,16.601 24.936,17.254 24.564,17.449 Z M 24.563,38.549 L 23.432,41.071 L 24.272,38.438 C 23.382,38.208 22.802,38.858 22.545,39.474 C 22.287,40.09 22.505,41.032 22.649,41.612 C 22.765,42.076 22.692,42.763 22.641,43.049 C 22.924,42.506 23.29,42.166 23.611,41.979 C 24.611,41.398 25.017,40.839 25.162,40.475 C 25.56,39.397 24.934,38.744 24.562,38.549 Z M 21.11,19.307 L 19.192,17.291 L 20.874,19.505 C 20.11,20.008 19.344,19.581 18.893,19.083 C 18.442,18.584 18.329,17.625 18.27,17.031 C 18.224,16.556 17.923,15.931 17.778,15.678 C 18.228,16.099 18.688,16.303 19.054,16.376 C 20.195,16.603 20.767,17 21.028,17.296 C 21.768,18.186 21.396,19.004 21.111,19.307 Z M 21.111,36.694 L 19.192,38.71 L 20.875,36.496 C 20.11,35.994 19.345,36.42 18.893,36.919 C 18.442,37.417 18.329,38.376 18.27,38.969 C 18.224,39.445 17.922,40.069 17.778,40.322 C 18.228,39.902 18.688,39.698 19.054,39.625 C 20.196,39.398 20.768,39.001 21.028,38.705 C 21.768,37.815 21.396,36.998 21.111,36.695 Z" fill="rgb(94, 38, 92)"/>
<path d="M 21.506999999999998,22.169 L 19.649,20.816 L 21.353,22.379 C 20.807,22.898 20.118,22.66 19.675,22.319 C 19.233,21.978 18.997,21.213 18.86,20.737 C 18.75,20.357 18.41,19.891 18.255,19.706 C 18.685,19.984 19.091,20.084 19.4,20.09 C 20.363,20.112 20.89,20.353 21.146,20.558 C 21.882,21.176 21.703,21.895 21.516,22.184 Z M 21.517,33.816 L 19.649,35.184 L 21.353,33.621 C 20.807,33.102 20.118,33.339 19.675,33.681 C 19.233,34.022 18.997,34.787 18.86,35.263 C 18.75,35.643 18.41,36.109 18.255,36.294 C 18.685,36.016 19.091,35.917 19.4,35.91 C 20.363,35.888 20.89,35.647 21.146,35.442 C 21.882,34.824 21.703,34.105 21.516,33.816 Z" fill="rgb(250, 173, 64)"/>
<path d="M 24.115,22.893 L 22.785,21.492 L 23.959,23.046 C 23.422,23.396 22.887,23.096 22.571,22.746 C 22.256,22.396 22.179,21.725 22.14,21.308 C 22.108,20.976 21.898,20.538 21.797,20.36 C 22.112,20.656 22.434,20.799 22.69,20.85 C 23.489,21.012 23.888,21.291 24.07,21.5 C 24.586,22.123 24.325,22.695 24.125,22.908 Z M 24.125,33.092 L 22.785,34.508 L 23.959,32.954 C 23.422,32.604 22.887,32.904 22.571,33.254 C 22.256,33.604 22.179,34.275 22.14,34.692 C 22.108,35.024 21.898,35.462 21.797,35.64 C 22.112,35.344 22.434,35.201 22.69,35.15 C 23.489,34.988 23.888,34.709 24.07,34.5 C 24.586,33.877 24.325,33.305 24.125,33.092 Z M 32.398,22.93 L 33.738,21.513 L 32.564,23.067 C 33.1,23.417 33.636,23.117 33.951,22.767 C 34.266,22.417 34.343,21.747 34.383,21.33 C 34.415,20.997 34.625,20.559 34.725,20.382 C 34.411,20.677 34.089,20.82 33.833,20.872 C 33.034,21.034 32.634,21.312 32.453,21.521 C 31.936,22.145 32.198,22.717 32.398,22.929 Z M 32.398,33.07 L 33.738,34.487 L 32.564,32.933 C 33.1,32.583 33.636,32.883 33.951,33.233 C 34.266,33.583 34.343,34.253 34.383,34.67 C 34.415,35.003 34.625,35.441 34.725,35.618 C 34.411,35.323 34.089,35.18 33.833,35.128 C 33.034,34.966 32.634,34.688 32.453,34.479 C 31.936,33.855 32.198,33.283 32.398,33.071 Z M 26.057,21.864 L 25.365,20.058 L 25.849,21.931 C 25.217,22.057 24.837,21.581 24.682,21.141 C 24.526,20.7 24.715,20.05 24.84,19.65 C 24.94,19.33 24.915,18.847 24.89,18.645 C 25.067,19.035 25.31,19.287 25.526,19.43 C 26.203,19.875 26.466,20.28 26.552,20.54 C 26.788,21.31 26.324,21.742 26.057,21.864 Z M 26.057,34.136 L 25.365,35.942 L 25.849,34.069 C 25.217,33.943 24.837,34.419 24.682,34.859 C 24.526,35.3 24.715,35.95 24.84,36.35 C 24.94,36.67 24.915,37.153 24.89,37.355 C 25.067,36.965 25.31,36.713 25.526,36.57 C 26.203,36.126 26.466,35.72 26.552,35.46 C 26.788,34.69 26.324,34.258 26.057,34.136 Z M 30.467,21.886 L 31.158,20.079 L 30.674,21.952 C 31.307,22.078 31.686,21.602 31.842,21.162 C 31.998,20.722 31.809,20.072 31.684,19.672 C 31.584,19.352 31.609,18.868 31.634,18.667 C 31.456,19.057 31.214,19.308 30.997,19.451 C 30.32,19.896 30.059,20.302 29.971,20.562 C 29.735,21.33 30.2,21.763 30.467,21.886 Z M 30.467,34.114 L 31.158,35.92 L 30.674,34.048 C 31.307,33.922 31.686,34.398 31.842,34.838 C 31.998,35.278 31.809,35.928 31.684,36.328 C 31.584,36.648 31.609,37.132 31.634,37.333 C 31.456,36.943 31.214,36.691 30.997,36.549 C 30.32,36.104 30.059,35.698 29.971,35.438 C 29.735,34.669 30.2,34.237 30.467,34.114 Z M 28.369,21.449 L 28.27,19.523 L 28.15,21.451 C 27.509,21.384 27.295,20.818 27.283,20.352 C 27.271,19.887 27.653,19.322 27.895,18.979 C 28.09,18.703 28.216,18.235 28.255,18.036 C 28.303,18.46 28.456,18.772 28.618,18.972 C 29.125,19.596 29.249,20.06 29.252,20.334 C 29.238,21.136 28.662,21.412 28.369,21.449 Z M 28.369,34.551 L 28.27,36.477 L 28.15,34.549 C 27.509,34.616 27.295,35.182 27.283,35.648 C 27.271,36.114 27.653,36.678 27.895,37.022 C 28.09,37.297 28.216,37.765 28.255,37.964 C 28.303,37.54 28.456,37.228 28.618,37.028 C 29.125,36.404 29.249,35.94 29.252,35.666 C 29.238,34.864 28.662,34.589 28.369,34.551 Z" fill="rgb(165, 205, 59)"/>
<path d="M 34.997,22.169 L 36.874,20.816 L 35.169,22.379 C 35.716,22.898 36.405,22.66 36.847,22.319 C 37.29,21.978 37.527,21.213 37.663,20.737 C 37.773,20.357 38.113,19.891 38.268,19.706 C 37.838,19.984 37.432,20.084 37.123,20.09 C 36.159,20.112 35.633,20.353 35.377,20.558 C 34.641,21.176 34.82,21.895 35.007,22.184 Z M 35.007,33.816 L 36.874,35.184 L 35.169,33.621 C 35.716,33.102 36.405,33.339 36.847,33.681 C 37.29,34.022 37.527,34.787 37.663,35.263 C 37.773,35.643 38.113,36.109 38.268,36.294 C 37.838,36.016 37.432,35.917 37.123,35.91 C 36.159,35.888 35.633,35.647 35.377,35.442 C 34.641,34.824 34.82,34.105 35.007,33.816 Z M 23.88,20.268 L 22.67,18.318 L 23.654,20.39 C 22.949,20.672 22.4,20.201 22.12,19.723 C 21.84,19.245 21.913,18.449 21.967,17.958 C 22.011,17.565 21.874,17.009 21.8,16.78 C 22.093,17.195 22.431,17.435 22.715,17.554 C 23.602,17.926 23.997,18.341 24.157,18.624 C 24.605,19.466 24.163,20.068 23.88,20.268 Z M 23.88,35.732 L 22.67,37.682 L 23.654,35.61 C 22.949,35.328 22.4,35.799 22.12,36.277 C 21.84,36.755 21.913,37.551 21.967,38.042 C 22.011,38.435 21.874,38.991 21.8,39.22 C 22.093,38.805 22.431,38.564 22.715,38.446 C 23.602,38.074 23.997,37.659 24.157,37.376 C 24.605,36.534 24.163,35.932 23.88,35.732 Z M 32.642,20.268 L 33.852,18.318 L 32.868,20.39 C 33.574,20.672 34.122,20.201 34.402,19.723 C 34.682,19.245 34.609,18.449 34.555,17.958 C 34.512,17.565 34.648,17.009 34.722,16.78 C 34.429,17.195 34.091,17.435 33.807,17.554 C 32.921,17.926 32.525,18.341 32.365,18.624 C 31.918,19.466 32.359,20.068 32.642,20.268 Z M 32.642,35.732 L 33.852,37.682 L 32.868,35.61 C 33.574,35.328 34.122,35.799 34.402,36.277 C 34.682,36.755 34.609,37.551 34.555,38.042 C 34.512,38.435 34.648,38.991 34.722,39.22 C 34.429,38.805 34.091,38.564 33.807,38.446 C 32.921,38.074 32.525,37.659 32.365,37.376 C 31.918,36.534 32.359,35.932 32.642,35.732 Z M 26.839,19.266 L 26.35,17.037 L 26.585,19.309 C 25.823,19.349 25.463,18.729 25.359,18.188 C 25.255,17.646 25.591,16.918 25.807,16.471 C 25.981,16.114 26.037,15.545 26.045,15.305 C 26.182,15.791 26.422,16.127 26.65,16.33 C 27.362,16.964 27.597,17.483 27.653,17.802 C 27.793,18.741 27.173,19.168 26.839,19.266 Z M 26.84,36.735 L 26.35,38.964 L 26.585,36.692 C 25.823,36.652 25.464,37.272 25.359,37.813 C 25.255,38.355 25.591,39.083 25.808,39.529 C 25.981,39.887 26.038,40.456 26.045,40.696 C 26.182,40.21 26.422,39.874 26.65,39.671 C 27.362,39.037 27.597,38.518 27.653,38.199 C 27.793,37.26 27.173,36.833 26.839,36.735 Z M 29.684,19.266 L 30.172,17.037 L 29.938,19.309 C 30.7,19.349 31.059,18.729 31.164,18.188 C 31.268,17.646 30.931,16.918 30.715,16.471 C 30.542,16.114 30.485,15.545 30.478,15.305 C 30.34,15.791 30.101,16.127 29.873,16.33 C 29.16,16.964 28.926,17.483 28.87,17.802 C 28.73,18.741 29.35,19.168 29.684,19.266 Z M 29.683,36.735 L 30.173,38.964 L 29.938,36.692 C 30.699,36.652 31.059,37.272 31.164,37.813 C 31.268,38.355 30.931,39.083 30.715,39.529 C 30.542,39.887 30.485,40.456 30.478,40.696 C 30.34,40.21 30.101,39.874 29.873,39.671 C 29.16,39.037 28.926,38.518 28.87,38.199 C 28.73,37.26 29.349,36.833 29.683,36.735 Z" fill="rgb(250, 173, 64)"/>
<path d="M 35.36,19.291999999999998 L 37.29,17.291 L 35.607,19.505 C 36.371,20.008 37.137,19.581 37.588,19.083 C 38.04,18.584 38.152,17.625 38.211,17.031 C 38.258,16.556 38.559,15.931 38.703,15.678 C 38.253,16.099 37.793,16.303 37.427,16.376 C 36.286,16.603 35.714,17 35.453,17.296 C 34.714,18.186 35.085,19.004 35.37,19.307 Z M 35.37,36.694 L 37.29,38.71 L 35.606,36.496 C 36.371,35.994 37.137,36.42 37.588,36.919 C 38.04,37.417 38.152,38.376 38.211,38.969 C 38.258,39.445 38.559,40.069 38.703,40.322 C 38.253,39.902 37.793,39.698 37.427,39.625 C 36.285,39.398 35.714,39.001 35.453,38.705 C 34.713,37.815 35.085,36.998 35.37,36.695 Z M 37.904,22.269 L 40.408,21.004 L 38.058,22.533 C 38.603,23.258 39.472,23.109 40.069,22.789 C 40.666,22.469 41.104,21.603 41.365,21.063 C 41.573,20.632 42.073,20.143 42.296,19.953 C 41.726,20.2 41.223,20.24 40.854,20.188 C 39.702,20.026 39.026,20.211 38.678,20.404 C 37.675,20.997 37.741,21.889 37.904,22.269 Z M 37.904,33.731 L 40.408,34.996 L 38.058,33.467 C 38.603,32.742 39.472,32.891 40.069,33.211 C 40.666,33.531 41.104,34.397 41.365,34.937 C 41.573,35.368 42.073,35.857 42.296,36.047 C 41.726,35.8 41.223,35.76 40.854,35.812 C 39.702,35.974 39.026,35.789 38.678,35.596 C 37.675,35.003 37.741,34.111 37.904,33.731 Z M 18.619,33.745 L 16.115,35.01 L 18.465,33.481 C 17.92,32.756 17.051,32.905 16.454,33.225 C 15.856,33.545 15.419,34.411 15.158,34.95 C 14.95,35.382 14.45,35.87 14.226,36.06 C 14.796,35.813 15.3,35.774 15.669,35.826 C 16.821,35.988 17.497,35.803 17.845,35.61 C 18.848,35.017 18.782,34.125 18.619,33.745 Z M 18.438,22.043 L 16.035,20.603 L 17.036,21.389 C 15.896,20.701 15.253,20.962 15.111,20.603 C 14.936,20.158 14.439,19.626 14.231,19.42 C 14.781,19.708 15.279,19.783 15.651,19.758 C 16.813,19.678 17.473,19.911 17.805,20.128 C 18.762,20.791 18.629,21.676 18.438,22.043 Z" fill="rgb(94, 38, 92)"/>
<defs>
<linearGradient id="a" x1="28.182" x2="28.182" y1="24.516" y2="31.971" gradientUnits="userSpaceOnUse">
<stop stop-color="rgb(254, 254, 253)" offset="0"/>
<stop stop-color="rgb(157, 216, 222)" offset="1"/>
</linearGradient>
</defs>
</svg>
