<?xml version="1.0" encoding="UTF-8"?>
<!-- generated by Finnhub -->
<svg viewBox="0 0 55.5 55.5" xmlns="http://www.w3.org/2000/svg">
<path d="M 0,0 H 55.5 V 55.5 H 0 Z" fill="rgb(1, 132, 252)"/>
<path d="M 18.799999999999997,19.035 C 21.3,19.05 23.57,19.95 25.29,21.45 A 10.5,10.5 0 1,0 25.29,35.55 A 9.83,9.83 0 0,1 18.81,37.95 C 13.45,37.95 9,33.72 9,28.5 C 9,23.28 13.45,19.05 18.81,19.05 Z M 22,32.98 A 4.98,4.98 0 0,1 19,34 C 16.24,34 14,31.54 14,28.5 S 16.24,23 19,23 A 5.06,5.06 0 0,1 23.72,26.67 H 21.44 C 20.93,25.72 20.02,25 19,25 C 17.4,25 16,26.62 16,28.5 S 17.4,32 19,32 C 20.2,32 21.24,31.23 21.67,30 H 20 V 28 H 24 V 34 H 22 V 32.98 Z M 33,23 V 25 H 29.5 V 34 H 27.5 V 25 H 24 V 23 H 33 Z M 36,23 H 34 V 34 H 41 V 32 H 36 V 23 Z M 44,23 H 42 V 34 H 49 V 32 H 44 V 23 Z" fill="rgb(254, 254, 253)"/>
</svg>
