<?xml version="1.0" encoding="UTF-8"?>
<!-- generated by Finnhub -->
<svg fill="none" viewBox="0 0 55.5 55.5" xmlns="http://www.w3.org/2000/svg">
<path d="M 0,0 H 55.5 V 55.5 H 0 Z" fill="rgb(1, 70, 131)"/>
<path d="M 27.99,33.494 C 41.205,33.509 51.91,31.044 51.91,28.002 C 51.91,24.961 41.205,22.496 28,22.496 S 4.09,24.96 4.09,28.002 S 14.795,33.509 28,33.509 Z" stroke="rgb(254, 254, 253)"/>
<path d="M 27.99,31.982 C 40.15,31.997 50,30.207 50,27.997 C 50,25.788 40.15,23.997 28,23.997 S 6,25.788 6,27.997 C 6,30.207 15.85,31.997 28,31.997 Z" fill="rgb(254, 254, 253)"/>
<path d="M 16.197999999999997,27.094 L 16.065,27.029 S 15.966,26.674 15.735,26.549 C 15.504,26.423 14.722,26.229 13.688,26.251 C 12.653,26.274 11,26.811 11,27.909 C 11,29.006 12.444,29.68 13.842,29.68 C 15.845,29.68 15.845,29.177 16.164,29.006 C 16.329,28.994 16.539,28.994 16.539,28.994 L 16.241,29.749 S 15.878,29.76 15.768,29.794 C 15.658,29.829 14.788,30 13.831,30 C 12.829,30 10,29.589 10,27.931 C 10,26.274 13.192,26 13.677,26 C 14.161,26 15.614,26.16 15.845,26.183 C 16.076,26.206 16.55,26.171 16.55,26.171 S 16.572,26.251 16.56,26.354 C 16.55,26.457 16.208,27.109 16.208,27.109 Z M 18.5,28.179 V 29.423 C 18.533,29.745 18.818,29.723 18.884,29.723 H 19.346 L 19.349,30 H 18.069 H 16.77 V 29.735 H 17.21 C 17.277,29.735 17.5,29.735 17.5,29.422 V 26.578 C 17.5,26.278 17.308,26.253 17.242,26.253 H 16.77 V 26 H 19.35 L 19.347,26.253 H 18.907 C 18.841,26.253 18.534,26.255 18.501,26.578 V 27.741 H 23 V 26.578 C 22.967,26.255 22.724,26.253 22.658,26.253 H 22.228 L 22.225,26 H 24.583 V 26.253 H 24.305 C 24.239,26.253 24,26.278 24,26.578 V 29.422 C 24,29.71 24.292,29.722 24.358,29.722 S 24.583,29.734 24.583,29.734 V 30 H 23.505 H 22.225 L 22.228,29.723 H 22.688 C 22.753,29.723 22.967,29.745 23,29.423 V 28.179 H 18.5 Z M 33.656,27.697 C 33.625,27.628 33.616,26.842 33.634,26.547 C 33.649,26.319 33.751,26.274 33.817,26.27 C 33.977,26.262 34.471,26.257 34.471,26.257 C 34.966,26.257 36.683,26.357 36.683,26.971 S 36.155,27.731 34.581,27.731 C 34.185,27.731 33.688,27.766 33.656,27.697 Z M 34.474,26 H 32.115 V 26.257 S 32.4,26.298 32.467,26.298 C 32.533,26.298 32.999,26.335 32.999,26.615 V 29.461 C 32.999,29.749 32.499,29.749 32.433,29.749 H 32.117 V 30 H 34.475 L 34.472,29.738 H 34.019 C 33.953,29.738 33.669,29.741 33.636,29.428 C 33.604,29.134 33.656,28.333 33.656,28.065 C 33.656,28.065 34.163,28.032 34.361,28.055 C 34.559,28.077 34.977,28.088 35.264,28.311 C 35.55,28.534 35.968,29.003 37.014,29.461 C 38.059,29.919 38.334,30.02 38.874,29.997 C 39.414,29.975 39.524,29.886 39.524,29.886 L 39.512,29.729 S 38.918,29.718 38.665,29.629 C 38.412,29.539 37.925,29.351 37.221,28.905 C 36.517,28.458 36.408,28.367 36.056,27.976 C 36.75,27.82 37.41,27.552 37.41,26.96 C 37.41,26.368 36.496,26 35.737,26 H 34.473 Z M 39.248,26.504 C 38.929,26.504 38.753,26.538 38.643,26.594 C 38.533,26.65 38.39,26.84 38.39,26.84 L 38.016,26.83 L 38.489,26 S 38.676,26.09 38.775,26.112 C 38.875,26.134 39.625,26.17 40.362,26.192 C 41.099,26.215 41.727,26.205 43.202,26.194 C 44.678,26.183 44.665,26 44.665,26 H 45 L 44.698,26.82 L 44.279,26.842 S 44.301,26.708 44.324,26.64 C 44.346,26.573 44.346,26.528 44.236,26.506 C 44.126,26.483 43.511,26.463 43.136,26.451 C 42.762,26.441 42.74,26.483 42.464,26.495 C 42.189,26.505 42,26.73 42,26.875 V 29.4 C 42,29.715 42.564,29.702 42.63,29.702 C 42.696,29.702 43.257,29.732 43.257,29.732 L 43.26,30 H 40 V 29.733 S 40.505,29.691 40.571,29.691 C 40.637,29.691 40.901,29.702 40.956,29.411 C 41.011,29.119 41,28.298 41,28.03 C 41,27.76 40.993,27.336 41,27.01 C 41.011,26.483 40.846,26.506 40.78,26.506 H 40.35 L 39.248,26.504 Z M 27.246,28.632 C 27.048,28.632 26.839,28.702 26.796,28.747 C 26.751,28.793 26.355,29.287 26.289,29.357 C 26.223,29.425 26.157,29.552 26.223,29.621 S 26.476,29.723 26.586,29.723 C 26.696,29.723 27.114,29.736 27.114,29.736 V 30 H 24.847 V 29.736 L 25.254,29.7 C 25.386,29.689 25.562,29.575 25.672,29.425 C 25.782,29.275 28.325,26 28.325,26 H 28.622 S 30.945,29.276 31.055,29.425 C 31.165,29.575 31.341,29.689 31.473,29.7 L 31.881,29.736 V 30 H 29.613 V 29.736 S 29.646,29.723 29.756,29.723 C 29.866,29.723 30.053,29.69 30.119,29.621 C 30.185,29.551 30.119,29.425 30.053,29.356 S 29.591,28.793 29.547,28.747 C 29.503,28.701 29.294,28.632 29.096,28.632 H 28.215 H 27.246 Z M 28.204,28.287 C 28.369,28.287 29.173,28.241 29.173,28.241 L 28.193,26.977 L 27.213,28.241 S 28.039,28.287 28.204,28.287 Z" fill="rgb(1, 70, 131)"/>
</svg>
