<?xml version="1.0" encoding="UTF-8"?>
<!-- generated by Finnhub -->
<svg viewBox="0 0 55.5 55.5" xmlns="http://www.w3.org/2000/svg">
<path d="M 0,0 H 55.5 V 55.5 H 0 Z" fill="rgb(243, 65, 54)"/>
<path d="M 17.99,17.985 H 29.55 C 29.8,18 30,17.85 30,17.6 V 15.44 C 30,15.2 29.8,15 29.55,15 H 15.45 C 15.2,15 15,15.2 15,15.44 V 21.55 C 15,21.8 15.2,22 15.45,22 H 17.55 C 17.79,22 18,21.8 18,21.55 V 18 Z M 38,38 H 27.45 C 27.2,38 27,38.2 27,38.45 V 40.55 C 27,40.8 27.2,41 27.45,41 H 40.55 C 40.8,41 41,40.8 41,40.56 V 34.44 C 41,34.2 40.8,34 40.55,34 H 38.48 C 38.23,34 38,34.2 38,34.44 V 38 Z M 40.54,15 H 33.45 C 33.2,15 33,15.2 33,15.45 V 17.57 C 33,17.82 33.2,18 33.45,18 H 35.84 L 15,37.93 V 40.54 C 15,40.79 15.2,41 15.46,41 H 23.56 C 23.81,41 24,40.8 24,40.54 V 38.48 C 24,38.23 23.8,38 23.55,38 H 19.25 L 38,20.07 V 21.57 C 38,21.83 38.23,22 38.48,22 H 40.54 C 40.79,22 41,21.82 41,21.57 V 15.46 C 41,15.2 40.8,15 40.54,15 Z" fill="rgb(254, 254, 253)"/>
</svg>
