<?xml version="1.0" encoding="UTF-8"?>
<!-- generated by Finnhub -->
<svg viewBox="0 0 55.5 55.5" xmlns="http://www.w3.org/2000/svg">
<path d="M 0,0 H 55.5 V 55.5 H 0 Z" fill="rgb(239, 242, 248)"/>
<path d="M 18.56,16.495 C 17.36,16.37 16.25,17.81 15.99,18.15 A 2.3,2.3 0 0,1 15.94,18.21 C 15.5,18.74 14.74,19.99 15.24,20.67 C 15.74,21.35 17.22,19.99 17.9,19.23 C 18.56,18.38 19.62,16.63 18.57,16.51 Z M 37.55,16.51 C 38.76,16.37 39.87,17.81 40.14,18.15 L 40.18,18.21 C 40.63,18.74 41.39,19.99 40.88,20.67 C 40.38,21.35 38.9,19.99 38.22,19.23 C 37.56,18.38 36.51,16.63 37.55,16.51 Z M 41.29,30.43 C 41.54,29.55 41.39,26.86 41.29,25.62 C 42.19,26.3 43.11,27.5 43.45,28.02 C 42.89,29 41.77,30.04 41.29,30.43 Z" fill="rgb(40, 51, 141)"/>
<path d="M 27.99,43.535 C 29.5,43.55 30.7,42.68 30.7,41.61 S 29.5,39.67 28,39.67 S 25.3,40.54 25.3,41.61 S 26.5,43.55 28,43.55 Z M 28,43.01 C 28.97,43.01 29.75,42.45 29.75,41.76 C 29.75,41.06 28.97,40.5 28,40.5 S 26.25,41.06 26.25,41.76 C 26.25,42.45 27.03,43.01 28,43.01 Z" fill="rgb(40, 51, 141)" fill-rule="evenodd"/>
<path d="M 38.17,36.665 A 2.11,2.11 0 0,0 38.68,36.18 L 40.55,36.38 C 40.53,36.48 40.53,36.58 40.54,36.67 C 39.88,37.57 39.08,38.34 38.6,38.76 A 0.99,0.99 0 0,0 38.02,38.72 L 38.18,36.68 Z" fill="rgb(40, 51, 141)"/>
<path d="M 27.99,44.985 A 17,17 0 1,0 28,11 A 17,17 0 0,0 28,45 Z M 22.43,13.3 V 12.87 C 23.29,12.56 25.66,12 28.27,12 C 30.87,12 32.94,12.61 33.64,12.96 V 13.31 C 32.58,13.26 29.98,13.39 28.1,14.29 A 13.23,13.23 0 0,0 22.43,13.31 Z M 22.39,14.01 L 22.12,16.71 C 22.94,16.41 25.25,16 27.97,16 C 30.69,16 33.13,16.37 34.01,16.65 L 33.77,14.01 C 32.51,14.02 29.61,14.24 28.09,15.06 C 26.53,14.19 23.64,14 22.39,14.01 Z M 18.62,19.78 C 19.26,19.89 20.79,20.68 21.47,21.08 L 22.11,20.06 A 22.48,22.48 0 0,0 19.28,18.76 C 19.74,17.99 20.42,16.29 19.4,15.76 C 18.13,15.12 16.18,17.06 15.36,18.03 C 14.54,19 13.68,21.13 14.66,21.71 C 15.63,22.28 17.96,20.79 18.62,19.78 Z M 12.22,31 C 12.02,29.59 11.75,26.17 12.46,24.22 C 12.49,24.22 12.48,24.24 12.7,24.22 C 13.63,24.13 16.04,23.91 17.76,23.94 C 17.43,25.27 17.02,28.95 17.95,33.02 L 15.95,31 H 12.23 Z M 36.72,15.77 C 35.7,16.29 36.38,17.99 36.85,18.77 C 37.03,19.17 37.23,19.45 37.5,19.78 C 38.16,20.79 40.49,22.28 41.46,21.71 C 42.44,21.13 41.58,19.01 40.76,18.03 S 37.99,15.11 36.72,15.77 Z M 36.85,21.01 C 37.15,20.71 37.06,20.11 36.64,19.69 C 36.21,19.27 35.63,19.17 35.32,19.47 C 35.02,19.77 35.12,20.37 35.54,20.79 C 35.96,21.21 36.55,21.31 36.85,21.01 Z M 35.01,20.83 C 35.23,21.05 35.25,21.37 35.06,21.56 C 34.88,21.76 34.55,21.73 34.33,21.51 C 34.11,21.29 34.09,20.96 34.28,20.78 C 34.46,20.58 34.79,20.61 35.01,20.83 Z M 31.53,26.83 L 25,20.81 C 24.2,21.93 24.83,23.03 26.25,24.39 C 27.38,25.47 27.65,26.47 27.64,26.83 A 548.34,548.34 0 0,0 23.17,23.03 L 23.13,23 C 22.64,22.6 22.63,22.6 22.41,23.24 C 22.24,23.78 22.49,24.23 22.63,24.39 L 25.81,27.55 C 26.39,28.13 26.41,28.6 26.33,28.75 A 184.7,184.7 0 0,0 22.08,24.94 C 21.75,24.71 21.41,25.08 21.6,25.99 C 21.75,26.71 23.16,28.08 24.09,28.98 L 24.69,29.57 C 25.24,30.14 25.13,30.61 25,30.77 L 22.41,28.17 C 21.89,29 22.3,29.58 22.89,30.44 L 23.25,30.97 C 24.03,32.17 26.65,36.16 30.55,35.07 C 33.67,34.18 34.44,30.94 34.43,29.42 L 35.14,23.92 C 33.91,23.92 33.62,24.08 33.02,25.36 C 32.53,26.37 31.83,26.76 31.54,26.83 Z M 44,28.05 C 44,30.87 43,33 41.51,33 C 40.03,33 39,30.87 39,28.05 C 39,25.23 40.03,23 41.51,23 C 43,23 44,25.23 44,28.05 Z M 18.72,35.8 C 17.18,33.77 15.12,33.14 14.16,33.16 L 14.31,34.07 L 14.48,34.1 C 15.03,34.2 16.09,34.37 17.73,36.05 A 5.29,5.29 0 0,1 19.16,40.31 L 20.11,40.56 C 20.21,39.88 20.11,37.63 18.71,35.8 Z M 17.43,36.85 C 16.41,35.5 15.08,34.95 14.44,34.96 L 14.54,35.92 L 14.61,35.94 C 14.93,36 15.36,36.08 16.49,37.24 C 17.32,38.09 17.53,39.19 17.44,39.73 L 18.36,40.03 C 18.42,39.57 18.36,38.07 17.43,36.85 Z M 16.53,39.02 C 16.73,38.87 16.57,38.3 16.17,37.75 C 15.77,37.19 15.27,36.86 15.07,37.01 C 14.87,37.16 15.04,37.72 15.44,38.28 C 15.84,38.83 16.33,39.17 16.54,39.02 Z M 22.54,38.49 C 22.42,39.51 22.67,42.22 22.81,43.44 A 20,20 0 0,0 27.84,44 C 29.9,44 32.28,43.72 33.24,43.44 L 33.59,38.49 L 31.54,38.95 L 30.76,38 H 25.36 L 24.59,38.95 L 22.54,38.49 Z M 38.9,39.11 C 39.02,39.58 38.65,40.35 37.94,40.98 C 37.11,41.72 36.14,41.98 35.78,41.58 C 35.41,41.17 35.78,40.23 36.61,39.49 C 36.84,39.29 37.08,39.12 37.31,38.99 L 37.43,36.97 A 0.76,0.76 0 0,1 36.93,36.83 C 36.48,36.49 36.53,35.7 37.03,35.05 C 37.53,34.39 38.28,34.14 38.72,34.47 C 38.95,34.65 39.05,34.97 39.01,35.32 L 40.92,35.56 C 41.21,35.18 41.56,34.98 41.77,35.1 C 42,35.24 41.95,35.76 41.65,36.26 C 41.41,36.67 41.07,36.94 40.83,36.96 A 31.6,31.6 0 0,1 38.9,39.11 Z" fill="rgb(40, 51, 141)" fill-rule="evenodd"/>
</svg>
