<?xml version="1.0" encoding="UTF-8"?>
<!-- generated by Finnhub -->
<svg viewBox="0 0 55.5 55.5" xmlns="http://www.w3.org/2000/svg">
<path d="M 0,0 H 55.5 V 55.5 H 0 Z" fill="rgb(239, 242, 248)"/>
<path d="M 12.99,25.985 C 12.53,24.68 11,24 9.61,24 C 7.43,24 6,25.98 6,28 C 6,30.07 7.48,32 9.7,32 C 11.41,32 13,30.76 13,29 H 10 V 28 H 14 V 29 C 14,31.43 12.02,33 9.7,33 C 6.82,33 5,30.78 5,28 C 5,25.28 6.77,23 9.61,23 C 11.72,23 13.59,23.98 14,26 H 13 Z M 23,23 H 24 V 29.5 C 24,31.72 22.06,33 20,33 S 16,31.72 16,29.5 V 23 H 17 V 29.41 C 17,30.97 18.53,32 20,32 S 23,30.97 23,29.41 V 23 Z M 50,23 H 51 V 29.5 C 51,31.72 49.06,33 47,33 S 43,31.72 43,29.5 V 23 H 44 V 29.41 C 44,30.97 45.53,32 47,32 S 50,30.97 50,29.41 V 23 Z M 27,33 V 23 H 28 V 32 H 33 V 33 H 27 Z M 34,24 V 23 H 41 V 24 H 38 V 33 H 37 V 24 H 34 Z"/>
</svg>
