<?xml version="1.0" encoding="UTF-8"?>
<!-- generated by Finnhub -->
<svg viewBox="0 0 55.5 55.5" xmlns="http://www.w3.org/2000/svg">
<path d="M 0,0 H 55.5 V 55.5 H 0 Z" fill="rgb(239, 242, 248)"/>
<path d="M 36.99,9.705 L 38,9 V 35.99 A 13.47,13.47 0 0,0 42.7,22.69 A 15.98,15.98 0 0,1 37,42.23 V 9.72 Z M 36,13 L 35,14.1 V 43.4 C 35.34,43.24 35.67,43.06 36,42.87 V 13 Z M 32,16.58 L 34,15 V 43.84 C 33.35,44.1 32.69,44.32 32,44.5 V 16.58 Z M 31,17.5 L 29,19.25 V 44.97 C 29.68,44.93 30.35,44.84 31,44.72 V 17.5 Z M 28,20 L 23,24.95 V 37.34 A 13.5,13.5 0 0,1 22.43,13.99 A 16,16 0 0,0 28,45 V 20 Z" fill="rgb(205, 1, 10)"/>
</svg>
