<?xml version="1.0" encoding="UTF-8"?>
<!-- generated by Finnhub -->
<svg viewBox="0 0 55.5 55.5" xmlns="http://www.w3.org/2000/svg">
<path d="M 0,0 H 55.5 V 55.5 H 0 Z" fill="rgb(239, 242, 248)"/>
<path d="M 27.99,39.585 V 16.47 L 38.72,22.83 V 32.56 L 28,39.61 Z" fill="rgb(81, 194, 239)"/>
<path d="M 18.97,17.005 L 28,16 V 16.53 L 18.65,23 C 18.22,23.3 18,23.76 18,24.27 V 31.76 C 18,32.26 18.22,32.73 18.64,33.02 L 28,39.5 V 40 L 18.98,39.05 C 18.74,39.03 18.5,38.95 18.29,38.82 L 8.59,32.91 A 1.2,1.2 0 0,1 8,31.89 V 24.14 C 8,23.72 8.22,23.34 8.6,23.11 L 18.3,17.25 C 18.5,17.13 18.73,17.05 18.98,17.02 Z" fill="rgb(1, 77, 149)"/>
<path d="M 37.010000000000005,16.974999999999998 L 28,16 V 16.53 L 37.35,22.97 C 37.78,23.27 38,23.74 38,24.24 V 31.74 C 38,32.24 37.78,32.71 37.36,33 L 28,39.5 V 40 L 37.02,39.04 C 37.26,39.02 37.5,38.94 37.71,38.81 L 47.41,32.89 C 47.78,32.67 48,32.29 48,31.87 V 24.11 C 48,23.69 47.78,23.31 47.4,23.08 L 37.7,17.22 C 37.5,17.09 37.26,17.02 37.02,16.99 Z" fill="rgb(1, 127, 202)"/>
</svg>
