<?xml version="1.0" encoding="UTF-8"?>
<!-- generated by Finnhub -->
<svg viewBox="0 0 55.5 55.5" xmlns="http://www.w3.org/2000/svg">
<rect width="56" height="56" fill="rgb(239, 242, 248)"/>
<path d="M 40.99,44.985 V 10 L 12,17 V 38 L 41,45 Z M 38,41 V 14 L 15,19 V 36 L 38,41 Z" clip-rule="evenodd" fill="rgb(63, 13, 43)" fill-rule="evenodd"/>
<path d="M 31.99,19.674 V 23.0004 S 29.7913,21.9455 27.5194,21.9455 C 25.2476,21.9455 22,23.1176 22,27.0077 C 22,30.2384 24.3641,31.9345 27.1408,32.0004 C 27.7718,32.0004 28.6983,31.8536 29.3925,31.6558 L 28,34.9856 S 27.9072,35.0049 27.5,34.9994 C 25.4098,34.9713 19,34.2913 19,27.0072 C 19,20.8094 23.6278,19.0004 27.6667,19.0004 C 29.2917,19.0004 30.9903,19.2275 32,19.689 Z" clip-rule="evenodd" fill="rgb(63, 13, 43)" fill-rule="evenodd"/>
<path d="M 27.99,27.985 H 31 L 30,30 H 27 L 28,28 Z" clip-rule="evenodd" fill="rgb(63, 13, 43)" fill-rule="evenodd"/>
<path d="M 31.99,27.985 H 33 V 34 S 31.6,34.7705 29,35 L 32,28 Z" clip-rule="evenodd" fill="rgb(63, 13, 43)" fill-rule="evenodd"/>
</svg>
