<?xml version="1.0" encoding="UTF-8"?>
<!-- generated by Finnhub -->
<svg viewBox="0 0 55.5 55.5" xmlns="http://www.w3.org/2000/svg">
<path d="M 0,0 H 55.5 V 55.5 H 0 Z" fill="rgb(239, 242, 248)"/>
<path d="M 48.99,28.445 A 7.45,7.45 0 0,1 41.48,36 A 7.39,7.39 0 0,1 34,28.5 C 34,24.36 37.22,21 41.52,21 S 49,24.32 49,28.46 Z M 45,28.5 C 45,26.4 43.6,24.6 41.48,24.6 C 39.35,24.6 38,26.38 38,28.46 S 39.4,32.39 41.52,32.39 C 43.62,32.39 45,30.59 45,28.5 Z" fill="rgb(254, 57, 2)"/>
<path d="M 30.369999999999997,28.285 L 35.35,36 H 30.73 L 27.96,31.46 L 25.16,36 H 20.65 L 25.62,28.37 L 20.86,21 H 25.47 L 28.02,25.22 L 30.62,21 H 35.14 L 30.38,28.3 Z M 14.5,21 C 10.2,21 7,24.3 7,28.5 V 28.54 C 7,32.91 10.23,36 14.58,36 C 17.14,36 19.18,35.03 20.65,33.75 V 27.43 H 15.62 L 13.67,30 H 17 V 32.19 S 16,33 14.74,33 C 12.53,33 11,30.85 11,28.5 C 11,26.3 12,24 14.5,24 C 15.73,24 16.26,24.45 16.98,24.9 L 19,22.2 A 8.16,8.16 0 0,0 14.5,21 Z" fill="rgb(254, 57, 2)"/>
</svg>
