<?xml version="1.0" encoding="UTF-8"?>
<!-- generated by Finnhub -->
<svg viewBox="0 0 55.5 55.5" xmlns="http://www.w3.org/2000/svg">
<path d="M 0,0 H 55.5 V 55.5 H 0 Z" fill="rgb(239, 242, 248)"/>
<path d="M 14.99,35.985 C 16.9,36 18.63,35.34 20,34.25 V 28.95 H 19.5 V 33.93 A 7.48,7.48 0 0,1 7.5,27.96 A 7.48,7.48 0 0,1 20,22.4 V 21.75 A 8,8 0 1,0 15,36 Z M 22,27.5 V 20 H 30 V 20.5 H 22.5 V 27.5 H 30 V 28 H 22.5 V 35.5 H 30 V 36 H 22 V 27.5 Z M 42.25,27.61 H 37.35 L 39.08,31.41 L 42.25,36 H 48 L 42.25,27.61 Z" fill="rgb(33, 31, 31)"/>
<path d="M 42.79,19.985 H 47.7 L 42.25,27.61 H 37.35 L 42.82,20 Z M 37.33,27.61 H 42.23 L 36.48,36 H 31.58 L 37.33,27.61 Z" fill="rgb(163, 166, 170)"/>
<path d="M 36.760000000000005,19.985 H 31.87 L 37.33,27.61 H 42.23 L 36.77,20 Z" fill="rgb(102, 103, 106)"/>
</svg>
