<?xml version="1.0" encoding="UTF-8"?>
<!-- generated by Finnhub -->
<svg viewBox="0 0 55.5 55.5" xmlns="http://www.w3.org/2000/svg">
<path d="M 0,0 H 55.5 V 55.5 H 0 Z" fill="rgb(254, 209, 2)"/>
<path d="M 27.389999999999997,23.715 L 27.85,9 L 28.53,23.72 L 32.77,9.61 L 29.62,24 L 37.37,11.46 L 30.6,24.56 L 41.33,14.45 L 31.4,25.35 L 44.38,18.36 L 31.97,26.31 L 46.31,22.93 L 32.27,27.39 L 47,27.84 L 32.28,28.52 L 46.39,32.76 L 32,29.62 L 44.54,37.37 L 31.44,30.6 L 41.55,41.33 L 30.66,31.4 L 37.64,44.38 L 29.69,31.97 L 33.07,46.31 L 28.61,32.27 L 28.15,47 L 27.47,32.28 L 23.23,46.39 L 26.38,32 L 18.63,44.54 L 25.4,31.44 L 14.67,41.55 L 24.6,30.65 L 11.62,37.64 L 24.03,29.69 L 9.7,33.06 L 23.74,28.6 L 9,28.15 L 23.72,27.47 L 9.61,23.23 L 24,26.38 L 11.46,18.63 L 24.56,25.4 L 14.45,14.67 L 25.34,24.6 L 18.36,11.62 L 26.31,24.03 L 22.94,9.7 L 27.4,23.74 Z" fill="rgb(254, 235, 167)"/>
<path d="M 19.669999999999998,28.655 L 19.72,28.61 L 19.7,28.59 H 19.68 L 15.56,29.2 L 15.53,29.24 L 15.59,29.29 L 15.55,29.35 L 15.61,29.4 L 15.56,29.47 L 15.62,29.52 L 15.58,29.58 L 15.64,29.63 L 15.6,29.69 L 15.65,29.74 L 15.61,29.8 L 15.67,29.85 L 15.63,29.91 L 15.68,29.96 L 15.64,30.02 L 15.7,30.07 L 15.66,30.13 L 15.72,30.18 L 15.67,30.24 L 15.73,30.29 L 15.69,30.35 L 15.75,30.4 L 16.11,32.93 H 16.06 L 16.05,32.95 L 16.11,32.99 L 16.07,33.05 V 33.06 L 16.12,33.11 L 16.09,33.15 V 33.18 L 16.14,33.21 L 16.11,33.25 L 16.12,33.3 L 16.15,33.32 L 16.13,33.36 L 16.15,33.42 L 16.17,33.44 L 16.15,33.46 L 16.17,33.53 L 16.18,33.54 V 33.55 L 16.19,33.65 L 16.23,33.83 L 16.28,34.21 L 16.32,34.23 H 16.36 L 16.39,34.19 L 16.43,34.22 H 16.47 L 16.5,34.18 L 16.54,34.2 H 16.58 L 16.61,34.16 L 16.65,34.19 H 16.7 L 16.73,34.15 L 16.76,34.17 H 16.81 L 16.84,34.14 L 16.87,34.16 L 16.93,34.15 L 16.95,34.12 L 16.97,34.14 H 17.04 L 17.06,34.11 L 17.08,34.13 L 17.15,34.12 L 17.17,34.1 L 17.19,34.11 H 17.26 L 17.28,34.08 L 17.3,34.1 L 17.38,34.09 L 17.39,34.07 L 17.41,34.08 H 17.48 L 17.45,33.88 C 17.59,33.85 18.74,33.6 18.89,33.58 L 18.92,33.78 L 18.96,33.72 L 19.02,33.76 L 19.07,33.71 L 19.13,33.75 L 19.19,33.69 L 19.25,33.74 L 19.3,33.68 L 19.36,33.73 L 19.41,33.67 L 19.47,33.71 L 19.52,33.65 L 19.58,33.7 L 19.63,33.64 L 19.69,33.69 L 19.73,33.63 L 19.8,33.67 L 19.85,33.61 L 19.9,33.66 L 19.95,33.6 L 20.01,33.65 L 20.06,33.59 L 20.11,33.62 L 20.07,33.32 L 20.13,33.3 L 19.93,32.37 L 19.85,31.73 H 19.91 L 19.78,30.52 L 17.62,30.76 L 17.75,31.97 L 18.65,31.87 L 18.72,32.37 L 17.28,32.67 L 16.94,30.23 L 19.87,29.8 L 19.84,29.77 L 19.88,29.71 L 19.82,29.66 L 19.86,29.6 L 19.81,29.55 L 19.85,29.49 L 19.79,29.44 L 19.83,29.38 L 19.78,29.33 L 19.82,29.27 L 19.76,29.22 L 19.8,29.16 L 19.74,29.11 L 19.79,29.05 L 19.73,29 L 19.77,28.94 L 19.71,28.89 L 19.75,28.83 L 19.7,28.78 L 19.74,28.72 L 19.68,28.67 Z M 20.08,35.01 V 35 L 19.99,34.97 H 19.97 L 19.96,34.96 L 19.9,34.93 L 19.87,34.95 L 19.85,34.92 L 19.8,34.9 L 19.76,34.91 L 19.74,34.87 L 19.7,34.86 L 19.66,34.88 L 19.63,34.83 H 19.61 L 19.55,34.84 L 19.52,34.79 H 19.5 L 19.44,34.81 L 19.41,34.75 L 19.34,34.78 L 19.3,34.71 L 19.24,34.75 L 19.2,34.68 L 19.13,34.71 L 19.11,34.68 L 18.35,36.63 L 18.21,36.65 L 17.02,34.99 V 35.03 L 16.94,35.02 L 16.92,35.09 H 16.85 L 16.83,35.15 H 16.76 L 16.74,35.21 H 16.66 L 16.64,35.28 L 16.57,35.27 L 16.55,35.34 L 16.48,35.33 L 16.46,35.4 L 16.39,35.39 L 16.37,35.46 L 16.3,35.45 L 16.28,35.52 H 16.21 L 16.19,35.58 H 16.13 L 17.83,37.97 L 17.9,37.92 L 18.18,39.57 L 18.21,39.53 L 18.27,39.58 L 18.32,39.52 L 18.38,39.57 L 18.43,39.51 L 18.49,39.55 L 18.55,39.5 L 18.61,39.54 L 18.66,39.48 L 18.72,39.53 L 18.77,39.47 L 18.83,39.51 L 18.88,39.46 L 18.93,39.49 H 18.95 L 18.99,39.44 L 19.04,39.48 H 19.07 L 19.1,39.43 L 19.14,39.46 H 19.18 L 19.22,39.42 L 19.25,39.44 L 18.96,37.71 L 19.06,37.75 L 20.13,35.02 L 20.09,35.01 Z M 24.33,32.13 V 32.15 L 24.4,32.18 L 24.37,32.21 L 24.42,32.26 L 24.38,32.31 V 32.33 L 24.43,32.37 L 24.39,32.42 V 32.44 L 24.44,32.48 L 24.4,32.53 V 32.55 L 24.45,32.6 L 24.41,32.65 V 32.66 L 24.46,32.71 L 24.42,32.76 V 32.78 L 24.47,32.82 L 24.43,32.87 V 32.89 H 24.45 L 28.12,32.54 L 28.1,32.53 L 28.15,32.47 L 28.09,32.42 L 28.14,32.36 L 28.08,32.31 L 28.13,32.25 L 28.07,32.2 L 28.12,32.14 L 28.06,32.08 L 28.11,32.03 L 28.05,31.98 L 28.1,31.92 L 28.04,31.87 L 28.09,31.81 L 28.03,31.76 L 28.08,31.7 L 28.02,31.65 L 28.07,31.59 L 28.01,31.54 L 28.06,31.48 L 28.04,31.47 L 25.71,31.69 L 27.49,28.95 L 27.72,28.9 L 27.67,28.68 L 27.77,28.52 L 27.64,28.43 L 27.61,28.41 L 27.6,28.35 L 27.56,28.32 L 27.58,28.28 V 28.25 L 27.53,28.22 L 27.56,28.17 V 28.14 L 27.51,28.11 L 27.54,28.05 L 27.53,28.03 L 27.48,28 L 27.51,27.94 V 27.92 L 27.46,27.89 L 27.47,27.85 L 27.41,27.87 L 23.86,28.62 L 23.84,28.64 L 23.91,28.69 L 23.86,28.75 L 23.93,28.8 L 23.88,28.86 L 23.95,28.91 L 23.91,28.98 L 23.97,29.02 L 23.93,29.08 L 23.99,29.13 L 23.95,29.19 L 24.01,29.24 L 23.97,29.3 L 24.03,29.35 L 23.99,29.41 V 29.42 L 24.05,29.46 L 24.01,29.51 V 29.53 L 24.07,29.57 L 24.04,29.62 V 29.64 L 24.08,29.67 L 26,29.27 L 24.2,32.05 L 24.33,32.13 Z M 25.35,34.4 L 25.39,34.34 L 25.34,34.29 L 25.38,34.23 L 25.32,34.18 L 25.36,34.12 L 25.3,34.08 L 25.35,34.01 L 25.29,33.97 L 25.33,33.9 L 25.27,33.86 L 25.32,33.8 L 25.26,33.75 L 25.3,33.69 L 25.24,33.64 L 25.29,33.58 L 25.23,33.53 L 25.27,33.47 L 25.21,33.43 L 25.26,33.36 L 25.23,33.34 L 25.17,33.35 L 21.02,33.96 L 21.06,34 L 21.03,34.05 V 34.07 L 21.08,34.11 L 21.05,34.16 V 34.18 L 21.09,34.22 L 21.06,34.27 V 34.3 L 21.11,34.33 L 21.08,34.38 V 34.41 L 21.13,34.45 L 21.1,34.49 V 34.52 L 21.14,34.56 L 21.11,34.6 V 34.63 L 21.16,34.67 L 21.13,34.72 V 34.75 L 21.17,34.78 L 21.14,34.83 V 34.86 L 21.19,34.89 L 21.16,34.94 V 34.97 L 21.21,35.01 L 21.17,35.05 V 35.08 L 21.22,35.12 L 21.19,35.16 H 21.26 L 21.61,37.68 L 21.55,37.7 L 21.73,38.59 L 21.78,38.95 L 21.83,38.98 L 21.88,38.93 L 21.94,38.97 L 21.99,38.91 L 22.05,38.95 L 22.1,38.89 L 22.16,38.94 L 22.21,38.88 L 22.27,38.92 L 22.32,38.86 L 22.38,38.9 L 22.43,38.84 L 22.49,38.89 L 22.54,38.83 L 22.6,38.87 L 22.65,38.81 L 22.7,38.86 L 22.75,38.8 L 22.81,38.84 L 22.86,38.78 L 22.92,38.82 L 22.97,38.77 L 22.95,38.64 L 24.39,38.33 L 24.42,38.53 L 24.45,38.56 H 24.47 L 24.51,38.51 L 24.56,38.54 H 24.57 L 24.62,38.49 L 24.68,38.53 L 24.73,38.47 L 24.79,38.51 L 24.84,38.45 L 24.9,38.5 L 24.95,38.44 L 25.01,38.48 L 25.06,38.42 L 25.12,38.46 L 25.17,38.4 L 25.23,38.44 L 25.27,38.38 L 25.34,38.42 L 25.38,38.37 L 25.44,38.41 L 25.49,38.35 L 25.55,38.39 L 25.6,38.33 L 25.56,38.08 L 25.63,38.06 L 25.43,37.12 L 25.34,36.49 L 25.39,36.48 L 25.4,36.46 V 36.43 L 25.35,36.4 L 25.39,36.34 V 36.32 L 25.34,36.29 L 25.38,36.23 V 36.22 L 25.32,36.18 L 25.36,36.12 L 25.31,36.06 L 25.35,36 L 25.29,35.96 L 25.34,35.89 L 25.28,35.85 L 25.32,35.79 L 25.26,35.74 L 25.31,35.67 L 25.25,35.63 L 25.29,35.57 L 25.23,35.52 L 25.27,35.46 L 25.22,35.41 L 25.26,35.35 L 25.2,35.3 L 25.22,35.27 L 23.16,35.51 L 23.12,35.56 V 35.58 L 23.17,35.62 L 23.13,35.68 L 23.19,35.73 L 23.15,35.8 L 23.2,35.85 L 23.16,35.91 L 23.22,35.96 L 23.18,36.02 L 23.24,36.07 L 23.19,36.13 L 23.25,36.18 L 23.21,36.24 L 23.27,36.29 L 23.22,36.35 L 23.28,36.4 L 23.24,36.46 L 23.3,36.51 L 23.25,36.57 L 23.31,36.62 L 23.27,36.68 L 23.31,36.72 L 24.15,36.62 L 24.22,37.12 C 24.08,37.15 22.93,37.4 22.78,37.42 L 22.44,34.98 L 25.41,34.54 L 25.36,34.51 L 25.41,34.45 L 25.35,34.4 Z M 24.05,32.54 L 23.6,28.74 H 23.58 L 23.54,28.79 L 23.49,28.75 H 23.48 L 23.43,28.81 L 23.37,28.77 L 23.32,28.82 L 23.25,28.78 L 23.2,28.84 L 23.14,28.8 L 23.09,28.86 L 23.03,28.81 L 22.98,28.87 L 22.91,28.83 L 22.87,28.89 L 22.81,28.85 L 22.75,28.9 L 22.69,28.86 L 22.65,28.92 L 22.58,28.88 L 22.53,28.94 L 22.51,28.92 V 28.95 L 22.89,32.13 L 21.62,32.4 L 21.07,29.07 H 21.04 L 21.01,29.11 L 20.96,29.08 H 20.93 L 20.9,29.13 L 20.85,29.1 H 20.82 L 20.78,29.15 L 20.74,29.12 H 20.71 L 20.67,29.16 L 20.63,29.13 H 20.59 L 20.56,29.18 L 20.53,29.15 H 20.48 L 20.45,29.19 L 20.42,29.17 H 20.37 L 20.35,29.21 L 20.31,29.18 L 20.26,29.19 L 20.24,29.22 L 20.2,29.2 H 20.15 L 20.13,29.24 L 20.1,29.22 H 20.05 L 20.03,29.25 L 20,29.23 H 19.98 L 20.66,33.33 L 20.82,33.31 L 20.89,33.64 L 24.14,32.97 L 24.04,32.54 Z M 34.12,29.29 L 34.29,28.47 L 34.69,29.23 L 34.12,29.29 Z M 39.37,26.22 H 39.34 L 39.31,26.27 L 39.26,26.24 H 39.24 L 39.2,26.28 L 39.16,26.25 H 39.13 L 39.09,26.3 L 39.05,26.27 H 39.02 L 38.98,26.32 L 38.94,26.29 H 38.91 L 38.88,26.34 L 38.83,26.3 H 38.81 L 38.77,26.35 L 38.72,26.32 H 38.7 L 38.66,26.37 L 38.61,26.34 H 38.59 L 38.56,26.39 L 38.51,26.35 H 38.49 L 38.45,26.4 L 38.4,26.37 H 38.38 L 38.35,26.42 L 38.31,26.39 L 38.64,28.59 L 37.52,26.39 L 37.49,26.4 L 37.47,26.46 L 37.42,26.44 L 37.4,26.45 L 37.38,26.51 L 37.32,26.49 L 37.3,26.5 L 37.28,26.56 L 37.23,26.54 L 37.2,26.55 L 37.18,26.61 L 37.13,26.59 L 37.1,26.6 L 37.09,26.65 L 37.04,26.64 L 37.01,26.65 L 36.99,26.7 L 36.94,26.69 L 36.91,26.7 L 36.9,26.75 L 36.85,26.73 L 36.82,26.75 L 36.81,26.8 L 36.76,26.78 L 36.74,26.79 L 36.72,26.84 L 36.7,26.8 L 36.24,26.85 S 36.64,30.22 36.68,30.68 L 34.58,26.74 L 34.57,26.79 L 34.5,26.77 L 34.47,26.84 L 34.41,26.82 L 34.39,26.83 L 34.37,26.89 L 34.32,26.87 L 34.3,26.89 L 34.28,26.93 L 34.23,26.92 L 34.21,26.93 L 34.19,26.98 L 34.15,26.97 C 34.13,26.97 34.1,27.02 34.1,27.02 L 34.07,26.99 L 33.51,26.88 L 32.61,31.36 L 32.69,31.38 V 31.34 L 32.73,31.39 H 32.75 L 32.8,31.36 L 32.84,31.41 H 32.86 L 32.91,31.38 L 32.95,31.44 H 32.96 L 33.02,31.4 L 33.06,31.46 H 33.07 L 33.13,31.42 L 33.18,31.48 L 33.24,31.44 L 33.29,31.5 L 33.35,31.46 L 33.39,31.52 L 33.46,31.48 L 33.5,31.54 L 33.57,31.5 L 33.61,31.56 L 33.67,31.53 L 33.89,30.4 L 35.25,30.27 L 35.78,31.27 L 35.82,31.26 V 31.23 H 35.85 L 35.9,31.21 L 35.92,31.17 L 35.96,31.18 L 36,31.16 L 36.01,31.12 H 36.06 L 36.09,31.11 L 36.11,31.06 H 36.18 L 36.2,31 L 36.26,31.02 L 36.29,30.94 L 36.36,30.96 L 36.38,30.89 L 36.45,30.91 L 36.46,30.83 L 36.53,30.85 L 36.55,30.79 V 30.85 L 36.7,30.78 L 36.72,31.02 L 36.74,31 L 36.77,31.02 L 36.83,31.01 L 36.86,30.98 L 36.89,31 H 36.95 L 36.97,30.97 L 37,30.99 H 37.06 L 37.08,30.96 L 37.11,30.98 L 37.17,30.97 L 37.19,30.94 L 37.22,30.96 H 37.28 L 37.3,30.93 L 37.33,30.95 H 37.39 L 37.41,30.92 L 37.44,30.94 L 37.51,30.93 L 37.53,30.91 L 37.55,30.93 L 37.62,30.92 L 37.64,30.9 L 37.66,30.91 H 37.73 L 37.75,30.88 L 37.77,30.9 H 37.79 L 37.55,28.84 L 38.56,30.83 H 38.59 L 38.95,30.64 L 38.96,30.74 L 39,30.77 L 39.05,30.71 L 39.11,30.75 L 39.16,30.69 L 39.22,30.73 L 39.27,30.67 L 39.33,30.71 L 39.38,30.65 L 39.44,30.7 L 39.49,30.64 L 39.55,30.68 L 39.6,30.62 L 39.66,30.66 L 39.71,30.6 L 39.77,30.64 L 39.82,30.58 L 39.88,30.63 L 39.93,30.57 L 40,30.61 L 40.02,30.57 L 39.37,26.22 Z M 39.82,35.32 L 40.85,32.84 L 41.05,32.8 L 40.99,32.5 L 41.07,32.31 L 41.03,32.29 V 32.3 L 41.01,32.29 V 32.3 V 32.29 H 41 V 32.31 L 40.99,32.28 H 40.98 V 32.31 L 40.96,32.27 V 32.32 L 40.92,32.3 L 40.94,32.26 V 32.21 L 40.9,32.19 L 40.92,32.15 L 40.91,32.11 L 40.87,32.08 L 40.89,32.03 V 32 L 40.84,31.97 L 40.87,31.92 V 31.89 L 40.82,31.86 L 40.85,31.8 V 31.78 L 40.79,31.75 L 40.81,31.71 L 40.74,31.73 L 37.64,32.38 L 37.7,32.42 L 37.66,32.49 L 37.72,32.54 L 37.68,32.6 L 37.74,32.65 L 37.69,32.71 L 37.75,32.76 L 37.71,32.82 L 37.77,32.87 L 37.73,32.94 L 37.79,32.99 L 37.75,33.05 L 37.81,33.1 L 37.77,33.16 L 37.83,33.21 L 37.79,33.27 L 37.85,33.32 L 37.8,33.38 L 37.86,33.43 L 37.83,33.49 L 39.52,33.13 L 38.55,35.45 L 38.28,35.47 L 38.33,35.97 L 38.25,36.18 L 38.35,36.23 C 38.37,36.3 38.39,36.58 38.39,36.58 L 39.06,36.52 L 39.28,36.61 L 39.33,36.49 L 41.49,36.28 L 41.46,36.25 L 41.51,36.19 L 41.45,36.14 L 41.5,36.08 L 41.44,36.03 L 41.49,35.97 L 41.43,35.92 L 41.48,35.86 L 41.42,35.81 L 41.47,35.75 L 41.41,35.7 L 41.45,35.64 L 41.4,35.59 L 41.44,35.53 L 41.39,35.48 L 41.43,35.42 L 41.38,35.37 L 41.42,35.31 V 35.3 L 41.37,35.26 L 41.41,35.21 V 35.19 L 41.38,35.17 L 39.82,35.32 Z M 33.71,32.75 L 33.66,32.81 L 33.6,32.77 L 33.55,32.82 L 33.49,32.78 L 33.44,32.84 L 33.39,32.8 H 33.38 L 33.33,32.85 L 33.28,32.82 H 33.26 L 33.22,32.87 L 33.17,32.83 H 33.16 L 33.12,32.89 L 33.06,32.85 H 33.05 L 33.01,32.9 L 32.96,32.86 H 32.94 L 32.9,32.92 L 32.85,32.88 H 32.83 L 32.79,32.93 L 32.74,32.9 H 32.72 L 32.69,32.95 L 32.63,32.91 H 32.62 L 32.66,33.16 L 32.08,33.11 L 31.84,35.93 L 30.4,33.13 H 30.38 L 30.32,33.16 L 30.31,33.19 H 30.27 L 30.23,33.21 L 30.22,33.25 H 30.14 L 30.12,33.31 L 30.06,33.29 L 30.05,33.3 L 30.03,33.36 H 29.96 L 29.94,33.42 L 29.87,33.41 L 29.85,33.48 L 29.78,33.46 L 29.77,33.53 L 29.69,33.52 V 33.58 L 29.68,33.52 L 29.63,33.54 L 29.66,33.5 L 29.62,33.53 L 29.34,33.56 L 29.82,37.78 L 29.85,37.8 H 29.89 L 29.92,37.75 L 29.97,37.79 H 30 L 30.03,37.74 L 30.08,37.77 H 30.1 L 30.14,37.72 L 30.2,37.76 H 30.21 L 30.25,37.71 L 30.31,37.75 L 30.36,37.69 L 30.42,37.73 L 30.47,37.67 L 30.54,37.72 L 30.58,37.66 L 30.64,37.7 L 30.69,37.64 L 30.75,37.68 L 30.8,37.63 L 30.85,37.67 L 30.9,37.61 L 30.92,37.62 L 30.75,36.22 L 31.49,37.65 L 31.98,37.39 L 32.82,37.46 L 33,35.39 L 33.3,37.34 L 33.32,37.36 L 33.37,37.3 L 33.43,37.34 L 33.48,37.29 L 33.54,37.33 L 33.59,37.27 L 33.65,37.31 L 33.7,37.25 L 33.76,37.3 L 33.81,37.24 L 33.87,37.28 L 33.92,37.22 L 33.98,37.26 L 34.03,37.21 L 34.09,37.25 L 34.14,37.19 L 34.19,37.23 L 34.24,37.17 L 34.3,37.22 L 34.35,37.16 L 34.38,37.18 L 33.71,32.75 Z" fill="rgb(34, 30, 30)"/>
<path d="M 31.939999999999998,27.245 L 31.94,27.28 L 31.91,27.26 L 31.85,27.27 L 31.83,27.3 L 31.8,27.28 H 31.74 L 31.72,27.32 L 31.69,27.3 H 31.63 L 31.61,27.33 L 31.58,27.31 H 31.53 L 31.5,27.35 L 31.47,27.33 H 31.43 L 31.4,27.37 L 31.36,27.34 L 31.32,27.35 L 31.29,27.39 L 31.24,27.36 H 31.21 L 31.18,27.41 L 31.13,27.38 H 31.11 L 31.07,27.43 L 31.02,27.4 H 31.01 L 30.97,27.45 L 30.91,27.41 H 30.9 L 30.89,27.43 L 30.92,27.66 L 30.85,27.71 L 30.8,27.65 L 30.74,27.7 L 30.69,27.64 L 30.63,27.69 L 30.57,27.63 L 30.51,27.68 L 30.46,27.62 L 30.41,27.67 L 30.36,27.62 L 30.14,30.35 L 28.74,27.62 L 28.67,27.65 V 27.67 H 28.64 A 0.79,0.79 0 0,0 28.58,27.7 L 28.57,27.73 L 28.54,27.72 C 28.52,27.72 28.5,27.74 28.49,27.75 L 28.47,27.78 H 28.44 L 28.4,27.79 L 28.38,27.83 H 28.34 L 28.3,27.84 L 28.29,27.89 L 28.24,27.87 L 28.21,27.89 L 28.2,27.94 L 28.14,27.92 L 28.13,27.93 L 28.11,27.99 L 28.05,27.97 H 28.04 L 28.02,28.04 L 28,27.98 L 27.99,28.01 H 27.98 L 27.7,28.04 L 28.17,32.11 L 28.24,32.16 L 28.29,32.1 L 28.35,32.15 L 28.4,32.09 L 28.46,32.14 L 28.51,32.08 L 28.57,32.13 L 28.62,32.07 L 28.68,32.12 L 28.74,32.07 L 28.79,32.11 L 28.85,32.06 L 28.9,32.1 H 28.91 L 28.96,32.05 L 29.01,32.09 H 29.03 V 32.08 L 29.07,32.04 L 29.1,32.07 H 29.12 V 32.06 V 32.07 H 29.14 V 32.05 L 29.15,32.06 L 29.18,32.03 L 29.2,32.04 L 29.21,32.06 V 32.04 H 29.23 V 32.06 H 29.25 L 29.08,30.65 L 29.79,32.03 L 29.84,31.98 L 29.86,31.99 L 30.24,31.8 V 31.73 L 30.29,31.79 L 30.35,31.75 L 30.39,31.79 H 30.41 L 30.46,31.76 L 30.5,31.8 H 30.53 L 30.57,31.77 L 30.61,31.81 H 30.64 L 30.68,31.79 L 30.71,31.82 H 30.76 L 30.79,31.8 L 30.82,31.83 H 30.88 L 30.9,31.82 L 30.92,31.84 H 31.02 L 31.09,31.85 L 31.25,29.85 L 31.55,31.75 L 31.56,31.77 L 31.61,31.72 L 31.67,31.76 L 31.73,31.7 L 31.78,31.74 L 31.84,31.68 L 31.89,31.72 H 31.9 L 31.94,31.67 L 32,31.71 H 32.01 L 32.05,31.65 L 32.11,31.69 L 32.16,31.63 L 32.22,31.67 L 32.27,31.62 L 32.33,31.66 H 32.34 L 32.38,31.6 L 32.43,31.64 H 32.45 L 32.49,31.59 L 32.53,31.62 H 32.55 L 32.59,31.57 H 32.6 L 31.95,27.26 Z M 37.42,33.02 L 37.4,33 L 37.42,32.94 L 37.38,32.89 L 37.4,32.83 L 37.36,32.79 L 37.38,32.73 L 37.34,32.68 L 37.36,32.62 L 37.31,32.58 L 37.33,32.51 L 37.29,32.47 L 37.31,32.41 L 37.27,32.36 L 37.29,32.31 H 37.23 L 34.84,32.81 L 34.09,32.89 L 34.59,37.11 L 34.99,37.06 L 35.02,37.2 L 38.08,36.57 L 38.09,36.53 L 38.05,36.48 L 38.07,36.42 L 38.03,36.37 L 38.05,36.31 L 38,36.26 L 38.02,36.21 L 37.98,36.16 L 38,36.1 L 37.96,36.06 L 37.98,35.99 L 37.93,35.95 L 37.95,35.89 L 37.91,35.84 L 37.93,35.78 L 37.89,35.73 L 37.91,35.68 L 37.86,35.63 L 37.88,35.57 L 37.84,35.52 V 35.51 L 35.59,35.97 L 35.51,35.27 C 35.65,35.27 37.17,35.1 37.51,35.06 L 37.52,35.05 L 37.48,35 L 37.51,34.94 L 37.47,34.89 L 37.5,34.83 L 37.46,34.78 L 37.48,34.72 L 37.45,34.67 L 37.47,34.61 L 37.43,34.56 L 37.46,34.5 L 37.42,34.45 L 37.45,34.39 L 37.41,34.34 L 37.44,34.28 L 37.4,34.23 L 37.42,34.17 L 37.39,34.12 L 37.41,34.07 L 37.37,34.02 L 37.39,33.97 L 35.38,34.19 L 35.33,33.82 L 37.33,33.42 L 37.3,33.37 L 37.33,33.31 L 37.29,33.27 L 37.32,33.22 L 37.28,33.17 L 37.31,33.11 L 37.27,33.07 L 37.32,33.1 V 33.04 L 37.35,33.09 V 33.04 L 37.37,33.09 V 33.03 L 37.4,33.08 V 33.03 L 37.42,33.08 V 33.02 Z M 28.4,36.81 L 27.09,37.08 L 26.74,34.93 L 28.14,34.63 L 28.4,36.81 Z M 29.04,33.46 L 28.92,33.48 H 28.9 V 33.47 L 28.86,33.44 L 28.89,33.4 L 28.87,33.35 H 28.86 L 28.79,33.36 L 26.56,33.83 V 33.79 L 25.5,33.96 L 25.48,33.99 L 25.54,34.04 L 25.49,34.11 L 25.55,34.16 L 25.51,34.22 L 25.57,34.27 L 25.52,34.33 L 25.58,34.38 L 25.54,34.44 L 25.6,34.49 L 25.56,34.55 L 25.62,34.6 L 25.57,34.66 L 25.63,34.71 L 25.59,34.77 L 25.65,34.82 L 25.6,34.88 L 25.66,34.93 L 25.62,34.99 L 25.68,35.04 L 25.64,35.09 L 25.69,35.14 L 25.65,35.2 L 25.71,35.24 L 25.67,35.29 L 25.72,35.34 L 25.68,35.35 L 26.14,38.22 L 26.15,38.18 L 26.17,38.22 H 26.18 V 38.17 L 26.2,38.21 L 26.22,38.17 V 38.21 H 26.23 L 26.26,38.18 L 26.22,38.24 V 38.25 L 26.28,38.3 L 26.25,38.35 V 38.38 L 26.27,38.39 L 29.03,37.81 L 29.35,37.77 L 29.46,37.76 H 29.47 L 29.57,37.75 L 29.58,37.73 L 29.59,37.74 H 29.63 L 29.13,33.46 H 29.04 Z M 31.6,17.08 C 31.9,17.15 32.67,17.06 32.67,17.06 C 32.93,16.99 33.15,16.89 33.34,16.74 A 0.44,0.44 0 0,0 33.02,16.76 C 32.64,16.98 32.46,16.96 32.1,16.98 A 4.78,4.78 0 0,0 29.78,17.46 C 30.18,17.36 30.5,17.24 30.85,17.15 C 31.1,17.08 31.37,17.03 31.6,17.08 Z M 30.15,18.21 C 30.61,18.09 31.12,17.96 31.56,18.09 C 31.56,18.05 31.56,18 31.54,17.96 C 31.42,17.71 31.25,17.5 31,17.46 C 30.97,17.46 31,17.54 31.02,17.56 A 1.43,1.43 0 0,0 30.62,17.5 C 30.6,17.5 30.54,17.48 30.53,17.54 C 30.53,17.59 30.65,17.57 30.65,17.62 A 0.79,0.79 0 0,0 30.38,17.61 C 30.31,17.61 30.18,17.61 30.16,17.68 C 30.15,17.71 30.25,17.7 30.29,17.73 C 30.21,17.75 30.13,17.74 30.04,17.77 L 29.84,17.83 C 29.81,17.85 29.79,17.88 29.79,17.91 C 29.63,17.93 29.53,18 29.41,18.05 C 29.38,18.07 29.37,18.11 29.37,18.11 C 29.27,18.31 29.09,18.45 28.93,18.57 C 28.89,18.71 28.78,18.81 28.74,18.95 L 28.77,18.92 L 29.1,18.72 C 29.38,18.5 29.74,18.32 30.15,18.22 Z M 26.62,22.34 C 26.72,22.39 26.88,22.34 26.95,22.26 C 26.99,22.2 26.92,22.12 26.88,22.08 C 26.75,21.94 26.56,21.88 26.42,21.74 A 0.26,0.26 0 0,1 26.4,21.42 C 26.46,21.36 26.62,21.32 26.77,21.3 A 0.52,0.52 0 0,0 26.61,21.24 C 26.44,21.21 26.31,21.08 26.31,20.86 C 26.23,20.89 26.14,20.98 26.08,20.99 A 1.48,1.48 0 0,1 26.01,20.58 L 25.87,20.76 C 25.82,20.86 25.74,20.96 25.79,21.16 C 25.91,21.21 26.01,21.44 25.94,21.63 C 25.93,21.73 25.91,21.83 25.96,21.93 C 26.02,22.05 26.16,22.07 26.29,22.08 C 26.42,22.15 26.5,22.27 26.62,22.34 Z M 26.4,23.01 C 26.34,23.07 26.37,23.16 26.4,23.21 C 26.44,23.26 26.5,23.26 26.55,23.21 C 26.59,23.17 26.65,23.12 26.65,23.04 L 26.66,22.97 C 26.58,22.94 26.45,22.94 26.4,23.01 Z M 27.35,23.93 C 27.23,23.83 27.09,23.69 27.1,23.43 C 27.17,23.3 27.3,23.18 27.33,23.01 C 27.3,22.81 27.19,22.67 27.13,22.51 C 27.11,22.53 27.06,22.57 27.07,22.61 C 27.13,22.88 26.91,23.04 26.67,23.06 L 26.69,23.09 C 26.71,23.13 26.65,23.22 26.71,23.26 C 26.77,23.3 26.86,23.32 26.89,23.39 C 27.07,23.91 27.43,24.22 27.81,24.49 C 27.89,24.53 27.98,24.58 28.11,24.59 C 28.11,24.59 28.16,24.57 28.15,24.56 C 27.88,24.31 27.59,24.15 27.35,23.93 Z M 30.94,19.03 C 30.84,19.05 30.74,19.07 30.66,19.03 C 30.62,19.02 30.66,18.9 30.72,18.88 C 30.81,18.87 30.91,18.88 30.95,18.95 C 30.97,18.97 30.95,19.03 30.95,19.03 Z M 30.17,19.1 C 30.16,19.13 30.13,19.13 30.1,19.13 C 30.1,19.11 30.08,19.08 30.1,19.05 C 30.14,19.02 30.18,19.05 30.17,19.1 Z M 29.97,19.23 C 29.92,19.23 29.87,19.26 29.85,19.23 C 29.81,19.18 29.87,19.15 29.89,19.13 C 29.93,19.12 29.99,19.08 30.02,19.15 C 30.02,19.18 30.01,19.25 29.96,19.23 Z M 29.85,19.95 C 30.22,19.75 30.63,19.58 31.11,19.47 C 31.29,19.42 31.46,19.42 31.63,19.42 C 31.66,19.32 31.77,19.35 31.81,19.28 C 31.87,19.18 31.87,19.01 31.83,18.85 C 31.69,18.65 31.51,18.48 31.39,18.25 C 31.36,18.21 31.31,18.19 31.29,18.21 C 31.19,18.29 31.13,18.39 31.03,18.44 C 30.86,18.44 30.73,18.4 30.58,18.4 C 30.09,18.56 29.75,18.84 29.26,19 A 0.62,0.62 0 0,0 28.89,19.3 L 29.03,19.25 C 29.06,19.23 29.05,19.29 29.09,19.26 C 29.25,19.16 29.45,19.03 29.66,18.93 C 29.92,18.8 30.17,18.65 30.52,18.6 C 30.57,18.6 30.59,18.65 30.59,18.7 C 30.23,18.75 29.97,18.9 29.73,19.07 C 29.56,19.27 29.43,19.48 29.08,19.55 C 29.04,19.55 28.92,19.55 28.96,19.6 C 29.03,19.68 29.12,19.63 29.19,19.63 C 29.12,19.69 28.99,19.73 28.96,19.83 C 29.02,19.81 29.18,19.81 29.23,19.76 C 29.37,19.63 29.5,19.42 29.75,19.33 A 7.02,7.02 0 0,0 31.2,19.03 C 31.23,19.02 31.28,19.06 31.26,19.09 C 31.21,19.15 31.18,19.25 31.11,19.29 C 30.81,19.42 30.47,19.52 30.12,19.61 C 29.99,19.77 29.82,19.91 29.58,19.91 C 29.53,19.91 29.58,19.97 29.61,19.98 C 29.69,19.99 29.78,19.98 29.85,19.95 Z M 18.19,20.88 V 20.89 V 20.88 Z M 23.31,23.19 L 23.36,23.24 A 2.3,2.3 0 0,0 22.88,22.64 C 22.72,22.49 22.58,22.27 22.35,22.22 L 22.3,22.26 C 22.26,22.42 22.35,22.64 22.23,22.77 C 22.11,22.89 21.83,22.94 21.66,22.92 C 21.42,22.89 21.35,22.78 21.16,22.95 C 20.96,23.12 20.87,23.16 20.61,23.1 C 20.26,23.01 20.26,22.82 20.21,22.5 C 20.17,22.32 20.09,22.05 20.16,21.87 C 20.21,21.74 20.31,21.74 20.37,21.64 C 20.44,21.54 20.41,21.49 20.42,21.36 C 20.45,21.04 20.39,20.79 20.36,20.48 C 20.33,20.19 20.23,20.2 19.99,20.12 V 20.04 H 20.14 C 20.23,19.8 19.89,19.64 19.72,19.58 C 19.41,19.45 19.08,19.2 18.72,19.25 C 18.36,19.3 17.98,19.62 17.81,19.95 L 17.7,19.97 C 17.69,20.25 17.78,20.51 17.76,20.8 C 17.74,21.01 17.7,21.21 17.69,21.42 C 17.79,21.25 18,21.04 18.19,20.88 C 18.25,20.47 18.39,20.25 18.75,20.01 C 19.01,19.85 19.19,19.91 19.5,19.98 C 19.73,20.03 19.75,20.06 19.86,20.25 C 19.98,20.46 20.05,20.55 20.02,20.8 L 19.91,21.37 C 19.86,21.65 19.85,21.79 19.7,21.99 C 19.57,22.17 19.46,22.36 19.37,22.56 C 19.18,22.96 18.95,23.32 18.8,23.71 C 18.66,24.05 18.63,24.87 18.96,25.11 C 18.41,24.48 19.24,23.48 19.56,23.01 C 19.72,23.21 19.52,23.64 19.44,23.81 C 19.39,23.91 19.28,24.12 19.27,24.25 C 19.25,24.41 19.24,24.4 19.43,24.45 C 19.38,24.66 19.17,24.74 19.11,24.95 C 19.06,25.1 19.05,25.32 19.04,25.52 C 18.95,25.59 18.85,25.55 18.74,25.55 L 18.62,25.31 A 1.89,1.89 0 0,1 18.44,24.14 C 18.47,24.01 18.6,23.89 18.62,23.78 C 18.64,23.68 18.57,23.61 18.54,23.53 A 3.7,3.7 0 0,1 18.35,22.32 C 18.35,22.09 18.43,21.88 18.43,21.66 C 18.43,21.48 18.37,21.32 18.63,21.23 C 18.82,21.16 19.06,21.32 19.26,21.23 C 19.38,21.18 19.49,21.04 19.6,20.95 C 19.47,21.02 19.2,21.05 19.09,21.09 C 18.89,21.16 18.71,21.21 18.56,21.04 C 18.59,21.04 18.64,20.98 18.68,20.97 L 18.64,20.9 C 19.06,20.83 19.46,20.66 19.88,20.72 C 19.81,20.31 19.33,20.25 19.01,20.35 C 18.82,20.41 18.66,20.47 18.51,20.59 C 18.41,20.69 18.31,20.85 18.19,20.91 V 20.89 C 18.08,21.14 18.01,21.16 17.84,21.29 C 17.72,21.39 17.56,21.54 17.67,21.69 C 17.73,21.5 17.79,21.33 18.07,21.42 C 18.03,21.58 17.89,21.7 17.82,21.86 C 17.75,22.03 17.74,22.24 17.72,22.43 C 17.69,22.61 17.66,22.85 17.68,23.03 C 17.72,23.25 17.84,23.46 17.85,23.7 C 17.85,24 17.95,24.25 17.98,24.54 C 18.02,24.91 18.13,24.84 18.26,25.23 C 18.32,25.39 18.41,25.73 18.52,25.84 L 18.53,25.9 C 18.65,26.11 19.03,26.55 19.22,26.73 C 19.62,27.13 20.1,27.27 20.62,27.37 C 21.25,27.49 21.75,27.27 22.35,27.11 C 22.55,27.05 23.18,26.76 23.13,26.46 C 22.92,26.67 22.66,26.68 22.37,26.74 C 21.96,26.82 21.37,26.92 20.93,26.84 C 20.5,26.77 19.93,26.42 20.23,25.94 C 20.36,25.72 20.57,25.71 20.8,25.67 C 21.1,25.63 21.3,25.55 21.57,25.44 C 21.78,25.36 21.87,25.32 22.06,25.14 C 22.14,25.07 22.31,24.94 22.3,24.8 C 21.92,24.82 21.57,24.95 21.19,24.98 C 20.84,25 20.29,25.04 19.9,24.9 H 20 C 20.02,24.85 20.02,24.83 20,24.81 C 20.16,24.7 20.27,24.57 20.5,24.56 C 20.8,24.56 21.07,24.56 21.36,24.54 C 21.68,24.5 21.99,24.48 22.3,24.46 C 22.5,24.45 22.7,24.36 22.88,24.39 C 23.02,24.42 23.11,24.54 23.23,24.56 C 23.23,24.27 22.81,24.26 22.61,24.26 C 22.24,24.25 21.83,24.21 21.49,24.36 C 21.25,24.46 21.12,24.36 20.89,24.31 C 20.69,24.26 20.42,24.36 20.24,24.23 C 20.01,24.06 20.28,23.35 20.5,23.29 C 21,23.16 20.83,23.93 21.16,24 C 21.18,23.82 21.14,23.54 21.21,23.36 C 21.27,23.21 21.46,23.13 21.61,23.06 C 21.79,22.99 21.99,23.06 22.16,22.98 C 22.36,22.89 22.34,22.68 22.41,22.49 C 22.53,22.72 22.85,22.79 23.01,23.02 L 22.85,22.92 C 22.98,23.02 23.07,23.1 23.15,23.24 L 23.12,23.27 C 23.22,23.54 23.49,23.75 23.58,24.03 C 23.66,24.29 23.61,24.5 23.5,24.74 C 23.54,24.64 23.63,24.58 23.66,24.47 C 23.69,24.35 23.69,24.17 23.7,24.03 C 23.7,23.68 23.4,23.49 23.3,23.19 Z M 19.61,20.95 A 0.17,0.17 0 0,0 19.67,20.89 L 19.6,20.95 Z M 17.68,21.7 L 17.67,21.68 L 17.61,21.82 L 17.68,21.7 Z" fill="rgb(34, 30, 30)"/>
<path d="M 36.190000000000005,20.115 C 35.97,20.28 35.83,20.51 35.9,20.87 C 35.89,21.05 36,21.12 36.06,21.2 L 36.16,21.71 C 36.1,21.91 36.02,22.07 35.89,22.21 C 35.64,22.44 35.6,22.86 35.69,23.31 C 35.69,23.36 35.66,23.4 35.64,23.44 C 35.58,23.42 35.51,23.34 35.54,23.28 C 35.51,23.25 35.36,23.15 35.32,23.01 C 35.27,22.85 35.33,22.65 35.33,22.56 C 35.28,22.41 35.27,22.24 35.23,22.06 C 35.23,22.04 35.27,22.01 35.3,22.02 C 35.4,22.02 35.48,22.16 35.49,22.28 C 35.49,22.33 35.54,22.25 35.57,22.24 C 35.67,22.17 35.7,22.04 35.77,21.94 C 35.77,21.87 35.8,21.78 35.77,21.7 A 1.87,1.87 0 0,0 35.22,20.87 C 35.17,20.56 34.96,20.41 34.8,20.24 C 34.66,20.09 34.46,20.02 34.37,19.82 C 34.32,19.72 34.29,19.62 34.27,19.53 C 34.26,19.47 34.3,19.38 34.27,19.36 A 1.38,1.38 0 0,0 33.87,19.16 C 33.87,19.13 33.89,19.08 33.92,19.08 C 34.31,19.1 34.72,19.08 35.14,19.1 C 35.26,19.1 35.47,19.07 35.52,18.98 C 35.38,18.95 35.18,19 35.07,18.94 C 35.43,18.84 35.81,18.86 36,19.08 C 36.41,19.57 36.43,19.85 36.2,20.13 Z M 33.77,18.69 C 33.87,18.59 34.1,18.58 34.28,18.57 C 34.34,18.57 34.41,18.54 34.47,18.52 A 0.27,0.27 0 0,1 34.37,18.6 C 34.25,18.64 34.11,18.64 33.97,18.65 C 33.97,18.7 34.02,18.72 34.07,18.73 C 34.29,18.76 34.52,18.66 34.68,18.55 L 35.1,18.4 C 35.14,18.39 35.19,18.38 35.22,18.4 C 35.27,18.45 35.32,18.54 35.3,18.56 C 34.94,18.82 34.24,18.93 33.82,18.76 C 33.79,18.76 33.78,18.72 33.77,18.69 Z M 34.02,18.49 C 33.97,18.51 33.91,18.54 33.88,18.49 C 33.87,18.44 33.89,18.39 33.93,18.37 C 33.97,18.35 34.03,18.34 34.05,18.39 C 34.07,18.43 34.05,18.49 34.02,18.49 Z M 34.15,18.4 C 34.1,18.4 34.13,18.33 34.15,18.32 C 34.17,18.32 34.19,18.32 34.21,18.34 C 34.22,18.37 34.18,18.41 34.15,18.4 Z M 34.85,18.31 C 34.77,18.33 34.68,18.39 34.62,18.33 C 34.58,18.31 34.62,18.25 34.65,18.23 L 34.7,18.19 C 34.76,18.19 34.83,18.21 34.88,18.25 C 34.9,18.27 34.87,18.3 34.85,18.31 Z M 33.74,18.21 C 33.8,18.11 33.89,18.03 34.01,17.96 C 34.41,17.86 34.64,17.94 34.88,18.01 C 34.97,18.03 35.03,18.09 35.1,18.09 C 35.02,17.97 34.89,17.91 34.78,17.82 C 34.7,17.82 34.61,17.8 34.51,17.78 C 34.82,17.7 35.06,17.83 35.18,18.02 C 35.2,18.04 35.22,18.1 35.19,18.11 H 34.42 C 34.14,18.14 33.93,18.24 33.76,18.35 C 33.74,18.32 33.71,18.25 33.74,18.21 Z M 35.39,17.61 L 35.36,17.55 C 35.38,17.54 35.46,17.51 35.49,17.55 C 35.63,17.77 35.56,18.06 35.41,18.18 C 35.43,18.03 35.44,17.81 35.39,17.6 Z M 33.07,21.86 C 33.03,21.89 32.99,21.86 32.99,21.82 C 32.99,21.77 32.99,21.72 33.02,21.69 S 33.09,21.69 33.1,21.73 C 33.11,21.77 33.12,21.83 33.07,21.86 Z M 31.22,22.28 C 31.22,22.32 31.2,22.38 31.16,22.4 C 31.12,22.43 31.12,22.38 31.13,22.36 L 31.16,22.24 C 31.16,22.23 31.16,22.19 31.19,22.21 C 31.21,22.22 31.23,22.25 31.22,22.28 Z M 36.52,19.48 C 36.4,19.25 36.32,18.98 36.12,18.84 C 36.14,18.68 36.03,18.64 36.02,18.51 C 36.01,18.44 35.9,18.41 35.92,18.33 C 35.94,18.15 35.96,18 35.92,17.77 C 36,17.62 36.02,17.37 35.89,17.23 C 35.77,16.73 35.62,16.27 35.46,15.83 C 35.41,15.71 35.46,15.57 35.41,15.39 C 35.36,15.31 35.31,15.19 35.28,15.05 C 35.12,14.8 34.95,14.55 34.74,14.35 C 34.9,14.41 35.01,14.55 35.14,14.68 C 35.12,14.51 35.04,14.41 35,14.26 C 34.85,14.2 34.74,14.07 34.63,13.94 L 34.69,13.96 C 34.73,13.96 34.77,13.91 34.75,13.89 C 34.6,13.75 34.44,13.61 34.33,13.42 C 34.41,13.41 34.53,13.42 34.57,13.34 C 34.49,13.34 34.42,13.28 34.33,13.28 A 0.43,0.43 0 0,1 34,13.12 C 34.06,13.08 34.17,13.07 34.2,13.02 C 34.23,12.98 34.2,12.93 34.16,12.92 L 33.59,12.84 C 33.65,12.81 33.71,12.79 33.74,12.72 A 2.17,2.17 0 0,1 33.09,12.52 C 33.06,12.39 32.96,12.32 32.81,12.35 C 32.81,12.27 32.77,12.17 32.68,12.15 A 3.4,3.4 0 0,0 31.31,12.03 C 31.19,11.98 31.09,11.91 30.98,11.91 C 30.64,12.01 30.29,11.99 30,11.94 A 0.76,0.76 0 0,0 29.3,11.88 C 28.98,12.02 28.71,12.2 28.4,12.34 C 28.28,12.4 28.1,12.44 28,12.39 C 27.74,12.44 27.6,12.6 27.44,12.69 L 27.15,12.72 C 27.06,12.74 27.08,12.85 27.06,12.9 C 27.03,12.96 26.98,12.98 26.94,12.98 C 26.7,12.94 26.58,13.1 26.58,13.25 C 26.43,13.42 26.29,13.55 26.12,13.67 C 25.96,13.7 25.87,13.81 25.82,13.92 A 0.63,0.63 0 0,0 25.52,14.32 C 25.52,14.37 25.54,14.42 25.58,14.44 V 14.41 C 25.62,14.35 25.7,14.19 25.75,14.16 A 0.5,0.5 0 0,1 25.58,14.44 C 25.46,14.54 25.34,14.66 25.24,14.83 A 2.3,2.3 0 0,0 24.8,15.67 L 24.66,15.61 A 0.76,0.76 0 0,1 24.39,15.41 C 24.36,15.36 24.39,15.29 24.36,15.24 C 24.26,15.12 24.08,15.15 23.96,15.07 C 23.76,14.92 23.76,14.79 23.49,14.71 C 23.39,14.68 23.14,14.69 23.06,14.61 C 22.88,14.46 23.04,14.41 22.8,14.38 C 22.62,14.36 22.5,14.41 22.33,14.42 C 22.17,14.43 22.02,14.4 21.86,14.42 C 21.62,14.46 21.39,14.47 21.14,14.46 C 20.8,14.43 20.49,14.62 20.16,14.71 C 20.13,14.66 19.76,14.93 19.63,14.99 C 19.52,15.04 19.37,15.05 19.27,15.09 C 19.15,15.15 19.11,15.26 19.03,15.36 C 18.95,15.44 18.89,15.45 18.83,15.51 C 18.32,15.94 17.91,16.28 17.58,16.86 C 17.51,16.98 17.4,17.12 17.34,17.24 S 17.32,17.41 17.29,17.54 C 17.25,17.69 17.12,17.82 17.09,17.97 C 17.05,18.09 17.06,18.24 17.03,18.37 C 16.96,18.68 16.88,19.03 16.87,19.45 C 16.85,19.9 16.93,20.29 16.98,20.7 C 17.01,20.9 17.06,21.16 17.12,21.36 C 17.2,21.65 17.45,21.84 17.52,22.14 L 17.5,22 C 17.74,21.75 17.63,21.45 17.64,21.16 C 17.66,20.81 17.61,20.46 17.62,20.08 C 17.62,19.77 17.67,19.6 17.88,19.35 C 18.01,19.19 18.58,19.05 18.56,18.84 L 18.4,18.81 C 18.4,18.63 18.74,18.15 18.91,18.05 A 1.96,1.96 0 0,1 18.88,17.85 C 18.63,17.98 18.41,17.99 18.2,18.2 C 18.05,18.35 17.89,18.48 17.72,18.59 C 17.76,18.39 17.81,18.06 17.89,17.88 C 17.99,17.64 18.23,17.48 18.38,17.26 C 18.51,17.07 18.58,16.8 18.77,16.69 C 18.84,16.65 19.03,16.63 19.11,16.61 C 19.28,16.56 19.38,16.45 19.52,16.39 C 19.62,16.34 19.73,16.37 19.85,16.38 L 19.86,16.32 H 20.16 C 20.11,16.22 20.02,16.12 20.08,16.02 C 20.19,16.1 20.36,16.24 20.49,16.22 L 20.47,16.09 C 20.64,16.11 20.72,16.34 20.88,16.14 C 20.95,16.06 20.91,15.91 20.97,15.81 C 21.1,15.84 21.18,15.98 21.32,15.95 V 15.7 C 21.65,15.7 21.91,15.92 22.21,15.99 C 22.51,16.05 22.47,15.97 22.61,15.75 C 22.84,15.79 22.88,15.99 23.03,16.05 C 23.33,16.17 23.26,15.73 23.27,15.64 C 23.31,15.74 23.4,15.78 23.45,15.88 C 23.51,16 23.45,16.16 23.53,16.26 C 23.53,16.23 23.58,16.2 23.59,16.14 C 23.77,16.24 23.71,16.75 23.71,16.93 C 23.81,16.89 23.88,16.77 23.89,16.66 C 23.93,16.74 24.01,17.03 24.02,17.13 C 24.04,17.36 23.9,17.41 23.99,17.64 C 24.12,18 24.4,18.26 24.59,18.56 C 24.76,18.81 24.79,19.04 24.76,19.36 C 24.76,19.5 24.73,19.64 24.74,19.78 C 24.76,19.88 24.9,20.23 24.98,20.01 C 24.99,20.07 24.92,20.04 24.96,20.19 L 25.04,20.16 A 0.1,0.1 0 0,0 25.07,20.22 A 0.19,0.19 0 0,0 25.04,20.28 C 25.04,20.31 25.03,20.46 25.01,20.51 C 24.96,20.68 24.83,20.83 24.92,21.05 C 24.99,21.2 25.15,21.29 25.23,21.43 C 25.31,21.56 25.41,21.81 25.56,21.81 C 25.57,21.58 25.42,21.47 25.3,21.29 C 25.15,21.09 25.1,20.95 25.13,20.69 C 24.95,20.61 25.2,20.24 25.38,20.1 L 25.56,20.01 C 25.83,20.03 26.08,20.2 26.32,20.34 A 2,2 0 0,0 26.37,20.39 C 26.49,20.49 26.72,20.56 26.87,20.69 C 26.96,20.76 26.98,20.84 27.08,20.89 L 27.07,20.91 H 27.09 C 27.03,20.93 27.04,20.9 27.14,20.97 A 1.9,1.9 0 0,1 27.17,20.8 L 27.25,20.7 H 27.26 C 27.68,20.8 27.89,20 28.19,19.83 L 28.13,19.85 L 28.17,19.81 A 1,1 0 0,0 27.63,20.19 C 27.66,20.07 27.68,19.82 27.76,19.68 H 27.74 V 19.66 C 27.61,19.71 27.49,19.77 27.38,19.85 C 27.41,19.55 27.43,19.25 27.5,18.97 C 27.55,18.76 27.66,18.56 27.7,18.34 V 18.21 A 0.55,0.55 0 0,0 27.67,18.1 L 27.59,17.78 V 17.75 C 27.61,17.72 27.65,17.69 27.63,17.63 L 27.64,17.59 C 27.59,17.59 27.54,17.63 27.51,17.59 V 17.56 C 27.51,17.54 27.51,17.5 27.48,17.47 L 27.47,17.46 V 17.41 C 27.47,17.31 27.32,17.23 27.22,17.27 C 27.16,17.29 27.11,17.19 27.1,17.12 V 17 C 27.14,16.83 27.24,16.63 27.3,16.51 C 27.3,16.49 27.3,16.47 27.32,16.45 A 0.78,0.78 0 0,0 27.35,16.35 L 27.36,16.32 V 16.28 C 27.39,16.08 27.36,15.93 27.41,15.7 A 0.62,0.62 0 0,1 27.51,15.5 L 27.47,15.4 C 27.44,15.3 27.38,15.2 27.32,15.11 C 27.49,15.16 27.62,15.21 27.76,15.23 L 27.68,14.69 C 27.75,14.69 27.82,14.69 27.87,14.73 C 27.91,14.68 27.95,14.61 27.91,14.55 C 27.85,14.45 27.74,14.4 27.62,14.33 H 27.77 C 28.11,14.37 28.39,14.53 28.72,14.62 C 28.89,14.67 29.1,14.62 29.17,14.47 C 29.18,14.52 29.15,14.6 29.19,14.65 C 29.23,14.69 29.29,14.69 29.33,14.68 C 29.57,14.62 29.73,14.48 29.93,14.38 L 30.03,14.67 C 30.07,14.65 30.07,14.62 30.09,14.6 C 30.25,14.49 30.49,14.45 30.72,14.4 C 30.86,14.54 31.03,14.69 31.31,14.7 C 31.23,14.62 31.14,14.6 31.09,14.54 C 31.07,14.52 31.03,14.48 31.06,14.44 A 0.2,0.2 0 0,0 30.95,14.37 H 31 C 31.28,14.53 31.67,14.66 32.14,14.52 C 32.04,14.44 31.91,14.41 31.79,14.38 C 31.71,14.36 31.63,14.34 31.57,14.28 C 31.57,14.27 31.52,14.25 31.59,14.23 C 31.86,14.18 32.08,14.24 32.27,14.33 C 32.45,14.43 32.62,14.53 32.77,14.69 A 0.97,0.97 0 0,0 32.63,14.23 C 32.71,14.24 32.76,14.28 32.83,14.28 C 32.78,14.26 32.76,14.2 32.74,14.16 C 32.84,14.16 32.91,14.24 32.97,14.31 C 32.97,14.21 32.93,14.14 32.92,14.05 C 33.02,14.11 33.07,14.22 33.13,14.31 C 33.19,14.39 33.24,14.51 33.25,14.64 C 33.25,14.69 33.33,14.77 33.39,14.77 C 33.65,14.82 33.91,14.87 34.1,14.98 C 34.15,15.01 34.14,15.08 34.15,15.12 C 34.17,15.17 34.18,15.21 34.23,15.24 C 34.34,15.32 34.29,15.52 34.2,15.57 L 34.28,15.71 L 34.08,15.75 C 33.99,15.76 33.75,15.8 33.79,15.88 C 33.97,15.95 34.2,15.98 34.44,15.98 C 34.52,16.07 34.64,16.1 34.72,16.18 C 34.77,16.23 34.77,16.31 34.73,16.38 C 34.72,16.4 34.67,16.51 34.57,16.54 C 34.41,16.59 34.17,16.58 34.11,16.6 C 33.95,16.65 33.81,16.7 33.68,16.76 C 33.68,16.81 33.73,16.82 33.76,16.81 C 33.97,16.7 34.73,16.63 34.96,16.71 C 35.04,16.74 35.02,16.84 34.98,16.89 C 34.92,16.96 34.82,16.97 34.76,17.02 C 34.52,17.02 34.23,17.1 34.03,17.18 C 33.99,17.19 33.98,17.17 33.99,17.14 L 33.92,17.15 C 33.78,17.23 33.69,17.32 33.58,17.41 C 33.58,17.34 33.64,17.28 33.58,17.22 C 33.54,17.17 33.52,17.29 33.48,17.3 C 33.31,17.37 33.21,17.54 33.21,17.74 C 33.05,17.95 33.01,18.3 33.17,18.62 C 33.32,18.91 33.52,19.16 33.63,19.52 C 33.69,19.72 33.77,19.92 33.91,20.03 C 34.11,20.07 34.29,20.15 34.37,20.33 C 34.43,20.46 34.17,20.73 34.11,20.87 C 34.05,21.02 33.91,21.24 33.63,21.24 C 33.45,21.24 33.28,21.24 33.16,21.19 A 1.2,1.2 0 0,0 32.21,21.17 C 32.09,21.17 32,21.14 31.91,21.12 C 31.73,21.08 31.59,20.86 31.62,20.63 C 31.73,20.41 31.98,20.24 32.33,20.25 C 32.19,20.17 32,20.18 31.77,20.17 C 31.75,20.17 31.69,20.21 31.63,20.22 C 31.36,20.29 31.13,20.4 30.97,20.56 C 30.8,20.84 30.7,21.19 30.57,21.5 A 2.1,2.1 0 0,0 30.19,22.98 C 30.23,22.81 30.27,22.65 30.37,22.55 C 30.81,22.14 31.22,21.7 31.51,21.17 C 31.58,21.23 31.65,21.27 31.71,21.34 A 0.5,0.5 0 0,0 31.59,21.72 C 31.59,21.77 31.63,21.75 31.64,21.72 C 31.68,21.61 31.69,21.49 31.74,21.41 C 31.77,21.37 31.86,21.39 31.85,21.42 C 31.83,21.5 31.78,21.61 31.83,21.72 A 0.37,0.37 0 0,0 32.03,21.47 C 32.04,21.44 32.09,21.49 32.1,21.51 C 32.11,21.56 32.17,21.51 32.2,21.51 S 32.25,21.54 32.27,21.57 C 32.31,21.57 32.34,21.51 32.39,21.53 C 32.43,21.54 32.41,21.61 32.42,21.65 L 32.59,21.63 C 32.61,21.63 32.64,21.59 32.67,21.57 C 32.71,21.55 32.75,21.58 32.77,21.62 C 32.8,21.68 32.73,21.82 32.67,21.8 C 32.61,21.77 32.5,21.78 32.38,21.82 C 32.36,21.82 32.34,21.89 32.3,21.92 C 32.25,21.96 32.19,21.84 32.17,21.85 L 31.95,22.01 C 31.92,22.03 31.86,22 31.83,21.96 C 31.79,21.98 31.76,22 31.72,22 C 31.67,21.99 31.69,22.07 31.67,22.1 C 31.63,22.17 31.61,22.04 31.6,21.99 C 31.56,22.03 31.51,22.09 31.45,22.09 V 21.91 C 31.43,21.91 31.4,21.91 31.39,21.94 C 31.39,21.94 31.42,21.84 31.38,21.88 C 31.33,21.92 31.31,22.11 31.3,22.23 C 31.25,22.18 31.28,22.07 31.26,22.02 C 31.14,22.12 31.08,22.26 30.97,22.39 C 30.95,22.43 30.96,22.51 30.9,22.54 C 30.82,22.46 30.85,22.35 30.94,22.27 A 0.57,0.57 0 0,0 30.58,22.82 C 30.58,22.92 30.65,22.99 30.65,23.12 C 30.73,23.22 30.85,23.27 30.96,23.35 C 31.08,23.3 31.07,23.15 31.03,23.03 C 31.01,22.98 30.97,22.95 30.94,22.91 C 30.98,22.91 31.07,22.91 31.13,22.89 C 31.49,22.68 31.93,22.44 32.52,22.42 C 32.76,22.42 33.02,22.42 33.22,22.5 C 33.25,22.51 33.34,22.52 33.3,22.55 C 33.13,22.65 32.9,22.71 32.65,22.71 C 32.55,22.71 32.47,22.71 32.4,22.76 C 32.35,22.79 32.27,22.76 32.18,22.76 C 32.15,22.76 32.13,22.81 32.17,22.82 C 32.42,22.88 32.74,22.89 33.05,22.81 C 33.36,22.72 33.72,22.62 34.07,22.63 C 34.11,22.63 34.15,22.67 34.17,22.7 C 34.23,22.8 34.19,22.88 34.14,22.93 C 33.83,23.24 33.27,23.4 32.66,23.46 C 32.58,23.46 32.52,23.53 32.46,23.55 C 32.42,23.55 32.42,23.61 32.46,23.61 C 32.67,23.63 32.92,23.61 33.12,23.64 C 33.45,23.7 33.92,23.75 34.26,23.57 L 34.42,23.51 C 34.48,23.47 34.51,23.54 34.49,23.58 C 34.45,23.66 34.41,23.74 34.39,23.84 C 34.38,23.87 34.39,23.96 34.4,23.99 C 34.42,24.06 34.5,24.1 34.51,24.17 L 34.57,24.4 C 34.65,24.74 34.57,24.99 34.41,25.16 C 34.33,25.24 34.19,25.28 34.08,25.34 C 33.7,25.55 33.08,25.53 32.65,25.53 C 32.38,25.43 32.1,25.36 31.85,25.25 C 31.74,25.2 31.61,25.12 31.44,25.11 C 31.9,25.45 32.41,25.7 33.1,25.69 C 33.66,25.74 34.3,25.62 34.66,25.33 L 34.65,25.42 C 34.25,25.73 33.75,25.98 33.05,26.06 A 2.37,2.37 0 0,0 32.25,26.11 C 31.89,26.11 31.55,26.05 31.25,25.95 L 31.29,25.98 A 4,4 0 0,0 34.68,26 C 35.15,25.72 35.38,25.27 35.58,24.76 C 35.79,24.54 35.95,24.24 36.11,23.96 C 36.21,23.76 36.23,23.49 36.26,23.24 C 36.63,22.52 36.89,21.68 36.69,20.53 C 36.73,20.24 36.68,19.76 36.52,19.48 Z" fill="rgb(34, 30, 30)"/>
<path d="M 21.24,19.544999999999998 C 21.15,19.73 21.13,19.83 21.3,19.92 C 21.45,20 21.5,20.24 21.65,20.28 C 21.71,20.14 21.69,20.1 21.81,20 C 21.96,19.88 22.07,19.77 22.27,19.77 C 22.4,19.77 22.54,19.8 22.67,19.82 C 22.83,19.83 22.95,19.79 23.1,19.8 C 23.34,19.81 23.56,20.03 23.78,20.12 C 23.86,20.15 24.1,20.22 24.19,20.2 C 24.43,20.16 24.17,19.94 24.08,19.85 C 23.85,19.62 23.65,19.35 23.35,19.2 C 23.24,19.15 23.09,19.15 22.97,19.1 C 22.95,19.17 22.99,19.22 23.06,19.25 L 22.95,19.24 C 22.96,19.29 23.1,19.44 23.15,19.51 C 23.23,19.64 23.35,19.75 23.45,19.87 C 23.13,19.78 23.01,19.24 22.68,19.19 C 22.69,19.27 22.72,19.34 22.74,19.41 C 22.67,19.36 22.61,19.29 22.51,19.28 V 19.35 A 0.47,0.47 0 0,1 22.31,19.3 V 19.42 C 22.27,19.42 21.94,19.22 22.03,19.43 C 21.98,19.43 21.95,19.41 21.9,19.39 L 21.88,19.57 L 21.78,19.61 C 21.76,19.61 21.72,19.61 21.69,19.59 C 21.66,19.67 21.61,19.83 21.53,19.83 C 21.48,19.83 21.46,19.77 21.43,19.76 A 0.5,0.5 0 0,0 21.23,19.69 L 21.21,19.6" fill="rgb(34, 30, 30)"/>
<path d="M 24.45,20.585 A 0.34,0.34 0 0,1 24.56,20.55 C 24.41,20.56 24.26,20.59 24.1,20.57 C 23.9,20.55 23.82,20.45 23.64,20.35 C 23.39,20.21 23.1,20.14 22.84,20.05 A 0.94,0.94 0 0,0 21.94,20.17 C 21.8,20.27 21.75,20.37 21.57,20.37 C 21.44,20.38 21.3,20.35 21.17,20.33 L 21.23,20.37 C 21.33,20.38 21.73,20.34 21.72,20.51 C 21.72,20.52 21.72,20.54 21.7,20.55 L 21.82,20.5 A 0.82,0.82 0 0,1 22.27,20.46 V 20.47 C 22.03,20.53 21.82,20.83 21.62,20.92 C 21.59,21.06 21.8,21.02 21.87,21 L 21.86,20.97 C 22.06,21.01 22.31,20.9 22.52,20.89 H 22.88 C 23.11,20.92 23.33,20.98 23.55,20.99 C 23.23,20.79 22.8,20.79 22.45,20.69 C 22.45,20.61 22.5,20.59 22.55,20.53 A 0.39,0.39 0 0,0 22.47,20.49 L 22.57,20.48 C 22.87,20.42 23.21,20.42 23.52,20.49 C 23.79,20.56 24.04,20.79 24.3,20.87 C 24.35,20.89 24.4,20.89 24.45,20.89 L 24.25,20.79 C 24.33,20.77 24.39,20.64 24.45,20.59 Z M 24.46,20.89 C 24.49,20.91 24.54,20.93 24.58,20.93 C 24.68,20.95 24.78,20.88 24.88,20.83 C 24.74,20.83 24.6,20.88 24.45,20.89 Z M 24.56,20.55 C 24.63,20.54 24.69,20.53 24.76,20.54 A 0.5,0.5 0 0,0 24.56,20.54 Z M 21.39,20.89 C 21.46,20.79 21.66,20.66 21.7,20.55 A 0.87,0.87 0 0,0 21.49,20.69 C 21.44,20.75 21.43,20.82 21.39,20.89 Z M 24.45,21.05 C 24.57,21.13 24.75,21.21 24.85,21.32 C 24.87,21.34 24.94,21.5 25.01,21.46 C 25.16,21.37 24.55,21.04 24.44,21.02 M 24.29,21.17 C 24.53,21.37 24.96,21.71 24.87,22.07 C 24.67,21.84 24.56,21.53 24.43,21.27 M 25.03,22.51 C 25.04,22.75 25.23,22.97 25.31,23.2 C 25.37,23.4 25.43,23.66 25.45,23.88 C 25.5,24.26 25.46,24.59 25.34,24.95 C 25.37,24.72 25.56,24.57 25.66,24.38 C 25.78,24.18 25.81,23.93 25.92,23.74 C 25.94,23.89 25.9,24.03 25.86,24.17 C 25.77,24.5 25.66,24.83 25.54,25.13 C 25.36,25.53 24.94,25.63 24.71,26 C 24.57,26.23 24.55,26.36 24.31,26.5 C 24.17,26.6 24.04,26.67 23.91,26.78 C 23.72,26.92 23.57,26.95 23.36,27.01 C 23.21,27.05 23.13,27.1 22.96,27.11 L 22.51,27.1 H 22.56 C 22.62,26.98 22.86,26.88 22.97,26.8 C 23.05,26.74 23.16,26.7 23.23,26.64 C 23.27,26.59 23.33,26.47 23.36,26.41 C 23.46,26.24 23.54,26.1 23.7,25.97 C 23.81,25.88 23.94,25.81 24.02,25.69 C 24.24,25.33 24.29,24.9 24.47,24.53 A 0.9,0.9 0 0,0 24.57,24.11 C 24.58,23.91 24.56,23.71 24.56,23.53 C 24.59,23.7 24.66,23.89 24.66,24.07 C 24.66,24.34 24.72,24.7 24.63,24.97 C 24.53,25.25 24.36,25.58 24.17,25.8 C 24.07,25.93 23.97,26.33 23.79,26.35 C 24.01,26.25 24.21,26.15 24.35,25.96 C 24.51,25.76 24.67,25.53 24.8,25.31 C 24.9,25.15 25,25.03 25.04,24.85 C 25.08,24.69 25.09,24.52 25.13,24.35 C 25.19,24.06 25.28,23.81 25.2,23.5 C 25.13,23.21 25.18,22.85 25.03,22.6 M 30.47,41.1 A 0.15,0.15 0 0,0 30.35,41.08 A 0.19,0.19 0 0,0 30.26,41.12 A 1.7,1.7 0 0,0 30.11,41.26 A 2.9,2.9 0 0,1 29.85,41.5 A 0.18,0.18 0 0,1 29.78,41.53 C 29.73,41.53 29.71,41.51 29.7,41.46 C 29.7,41.43 29.7,41.38 29.73,41.31 L 29.8,41.11 L 29.87,40.89 A 0.98,0.98 0 0,0 29.94,40.46 A 0.28,0.28 0 0,0 29.82,40.26 A 0.33,0.33 0 0,0 29.58,40.21 A 0.58,0.58 0 0,0 29.37,40.29 A 0.6,0.6 0 0,0 29.19,40.44 V 40.42 A 0.15,0.15 0 0,0 29.13,40.32 A 0.19,0.19 0 0,0 28.99,40.29 A 0.17,0.17 0 0,0 28.88,40.35 A 0.67,0.67 0 0,0 28.79,40.55 L 28.52,41.43 L 28.48,41.47 L 28.24,41.7 A 0.26,0.26 0 0,1 28.12,41.76 C 28.07,41.76 28.04,41.74 28.03,41.69 C 28.03,41.66 28.03,41.6 28.07,41.52 L 28.09,41.45 L 28.11,41.37 L 28.17,41.21 A 0.48,0.48 0 0,0 28.2,41.01 A 0.13,0.13 0 0,0 28.14,40.91 A 0.18,0.18 0 0,0 28.01,40.89 C 27.96,40.89 27.91,40.92 27.88,40.96 A 0.7,0.7 0 0,0 27.78,41.18 L 27.74,41.34 L 27.69,41.5 L 27.68,41.55 C 27.61,41.65 27.55,41.74 27.49,41.79 A 0.29,0.29 0 0,1 27.33,41.88 A 0.1,0.1 0 0,1 27.23,41.85 A 0.18,0.18 0 0,1 27.19,41.74 A 0.55,0.55 0 0,1 27.26,41.44 C 27.32,41.31 27.4,41.2 27.51,41.1 A 1.5,1.5 0 0,1 28.15,40.72 A 0.44,0.44 0 0,0 28.32,40.63 C 28.35,40.6 28.36,40.56 28.36,40.51 C 28.34,40.41 28.26,40.36 28.13,40.38 C 28.06,40.38 27.98,40.41 27.89,40.44 A 2.02,2.02 0 0,0 27.39,40.73 C 27.19,40.88 27.03,41.06 26.92,41.27 C 26.86,41.39 26.82,41.51 26.81,41.63 L 26.78,41.64 L 26.58,41.78 A 2.62,2.62 0 0,1 25.95,42.07 C 25.81,42.09 25.73,42.04 25.72,41.93 C 25.71,41.87 25.72,41.78 25.77,41.68 S 25.87,41.48 25.96,41.38 C 26.04,41.27 26.13,41.18 26.22,41.11 A 0.6,0.6 0 0,0 26.19,41.35 C 26.19,41.39 26.21,41.42 26.25,41.45 C 26.28,41.47 26.32,41.48 26.37,41.47 C 26.44,41.47 26.49,41.41 26.52,41.31 L 26.56,41.21 L 26.61,41.03 L 26.64,40.91 V 40.78 A 0.15,0.15 0 0,0 26.58,40.67 A 0.21,0.21 0 0,0 26.43,40.64 A 0.9,0.9 0 0,0 26.1,40.78 A 1.78,1.78 0 0,0 25.5,41.38 A 1.29,1.29 0 0,0 25.32,41.88 L 25.27,41.93 C 25.11,42.1 25,42.18 24.94,42.19 C 24.89,42.2 24.86,42.18 24.86,42.13 C 24.86,42.1 24.86,42.05 24.88,41.98 L 25.13,41.18 A 0.5,0.5 0 0,0 25.17,40.98 A 0.15,0.15 0 0,0 25.1,40.88 A 0.18,0.18 0 0,0 24.97,40.84 C 24.92,40.85 24.87,40.87 24.85,40.91 A 0.68,0.68 0 0,0 24.77,41.11 L 24.52,41.91 L 24.5,41.97 L 24.44,42.02 C 24.31,42.12 24.2,42.2 24.11,42.25 A 0.64,0.64 0 0,1 23.89,42.35 A 0.1,0.1 0 0,1 23.8,42.32 A 0.79,0.79 0 0,1 23.7,42.14 L 23.62,41.94 L 24.02,41.6 C 24.14,41.5 24.22,41.4 24.27,41.34 A 0.3,0.3 0 0,0 24.32,41.14 C 24.32,41.08 24.29,41.04 24.25,41 A 0.19,0.19 0 0,0 24.1,40.97 A 0.17,0.17 0 0,0 23.96,41.08 L 23.94,41.13 A 0.3,0.3 0 0,1 23.89,41.23 L 23.72,41.38 L 23.47,41.59 L 23.33,41.27 A 0.35,0.35 0 0,0 23.23,41.13 A 0.14,0.14 0 0,0 23.13,41.1 A 0.2,0.2 0 0,0 23,41.17 A 0.17,0.17 0 0,0 22.96,41.31 L 23,41.45 L 23.17,41.85 L 22.82,42.15 L 22.7,42.24 C 22.56,42.35 22.42,42.44 22.26,42.52 C 22.11,42.6 21.99,42.65 21.9,42.66 C 21.82,42.67 21.78,42.66 21.77,42.6 C 21.77,42.56 21.77,42.52 21.81,42.49 A 0.82,0.82 0 0,1 21.98,42.36 L 22.17,42.24 A 5.83,5.83 0 0,0 22.41,42.06 A 0.15,0.15 0 0,0 22.43,41.96 A 0.15,0.15 0 0,0 22.37,41.86 A 0.15,0.15 0 0,0 22.25,41.82 A 1,1 0 0,0 21.95,41.97 A 0.25,0.25 0 0,1 21.93,41.89 C 21.93,41.85 21.93,41.81 21.95,41.79 A 0.48,0.48 0 0,1 22.08,41.67 L 22.23,41.58 L 22.44,41.45 A 0.14,0.14 0 0,0 22.49,41.32 A 0.15,0.15 0 0,0 22.42,41.21 A 0.17,0.17 0 0,0 22.29,41.18 A 2.15,2.15 0 0,0 21.89,41.38 C 21.65,41.55 21.54,41.74 21.56,41.94 A 0.5,0.5 0 0,0 21.66,42.17 C 21.44,42.32 21.34,42.5 21.37,42.68 C 21.39,42.8 21.44,42.89 21.54,42.95 C 21.64,43 21.75,43.02 21.9,43 A 1.5,1.5 0 0,0 22.5,42.8 C 22.74,42.66 22.93,42.52 22.97,42.49 L 23.02,42.45 L 23.32,42.2 L 23.38,42.36 C 23.43,42.48 23.48,42.56 23.52,42.62 C 23.56,42.67 23.61,42.71 23.66,42.72 A 0.5,0.5 0 0,0 23.86,42.73 C 24.04,42.71 24.26,42.6 24.49,42.41 C 24.52,42.46 24.55,42.51 24.59,42.53 C 24.67,42.59 24.76,42.61 24.87,42.59 C 25.04,42.57 25.22,42.46 25.42,42.27 L 25.43,42.28 C 25.49,42.35 25.56,42.4 25.65,42.43 C 25.75,42.45 25.85,42.46 25.97,42.43 C 26.09,42.43 26.21,42.39 26.33,42.33 A 2.7,2.7 0 0,0 26.86,42.03 C 26.89,42.09 26.92,42.13 26.96,42.17 C 27.06,42.24 27.16,42.27 27.3,42.25 A 0.56,0.56 0 0,0 27.51,42.18 C 27.57,42.15 27.65,42.08 27.74,41.99 C 27.78,42.12 27.88,42.17 28.02,42.15 A 0.75,0.75 0 0,0 28.4,41.99 L 28.45,42.05 C 28.49,42.07 28.53,42.08 28.58,42.08 C 28.64,42.07 28.68,42.05 28.7,42.02 C 28.73,41.98 28.75,41.92 28.79,41.82 L 29.06,40.92 L 29.28,40.71 C 29.36,40.65 29.42,40.61 29.46,40.61 C 29.5,40.61 29.53,40.62 29.54,40.66 C 29.54,40.69 29.52,40.78 29.47,40.92 C 29.38,41.16 29.34,41.32 29.32,41.4 A 0.68,0.68 0 0,0 29.3,41.62 C 29.31,41.72 29.36,41.81 29.44,41.86 C 29.51,41.92 29.6,41.93 29.71,41.92 C 29.89,41.89 30.11,41.76 30.34,41.52 C 30.47,41.39 30.54,41.29 30.52,41.21 A 0.14,0.14 0 0,0 30.47,41.11 Z M 25.15,40.76 A 0.22,0.22 0 0,0 25.31,40.66 A 0.28,0.28 0 0,0 25.35,40.46 A 0.2,0.2 0 0,0 25.27,40.33 A 0.2,0.2 0 0,0 25.12,40.3 A 0.22,0.22 0 0,0 24.96,40.4 A 0.26,0.26 0 0,0 24.92,40.58 C 24.92,40.64 24.96,40.69 25,40.73 C 25.04,40.76 25.1,40.77 25.15,40.76 Z M 21.7,40.37 A 0.21,0.21 0 0,0 21.6,40.21 A 0.3,0.3 0 0,0 21.4,40.18 C 21.3,40.19 21.19,40.23 21.08,40.28 L 20.77,40.53 C 20.68,40.61 20.6,40.71 20.53,40.81 L 20.3,41.22 A 0.78,0.78 0 0,0 20.17,40.89 A 0.92,0.92 0 0,0 19.92,40.64 A 1.12,1.12 0 0,0 19.17,40.48 A 1.57,1.57 0 0,0 17.97,41.5 C 17.91,41.67 17.89,41.84 17.92,42 C 17.93,42.12 17.97,42.23 18.02,42.33 C 18.09,42.43 18.16,42.5 18.24,42.55 C 18.32,42.61 18.4,42.63 18.49,42.61 A 0.2,0.2 0 0,0 18.62,42.54 A 0.17,0.17 0 0,0 18.66,42.4 A 0.17,0.17 0 0,0 18.58,42.28 L 18.52,42.24 A 0.6,0.6 0 0,1 18.38,42.11 A 0.36,0.36 0 0,1 18.32,41.95 A 0.72,0.72 0 0,1 18.36,41.6 A 1.18,1.18 0 0,1 18.86,41 A 0.94,0.94 0 0,1 19.22,40.88 C 19.42,40.85 19.58,40.89 19.72,41.01 C 19.86,41.12 19.95,41.29 19.98,41.51 C 20.01,41.77 19.94,42.04 19.78,42.34 A 0.86,0.86 0 0,0 19.7,42.48 C 19.69,42.52 19.68,42.55 19.69,42.58 C 19.69,42.62 19.71,42.65 19.75,42.68 L 19.87,42.71 C 19.94,42.7 20.01,42.65 20.07,42.55 C 20.14,42.46 20.22,42.31 20.3,42.1 L 20.46,41.74 C 20.61,41.4 20.74,41.14 20.88,40.98 C 21,40.82 21.12,40.71 21.24,40.63 L 20.55,42.83 A 0.58,0.58 0 0,0 20.52,43.03 C 20.52,43.08 20.55,43.12 20.59,43.15 C 20.63,43.18 20.68,43.19 20.73,43.18 C 20.78,43.18 20.83,43.15 20.86,43.11 A 0.68,0.68 0 0,0 20.95,42.9 L 21.65,40.67 A 0.83,0.83 0 0,0 21.7,40.37 Z M 19.69,41.17 A 0.17,0.17 0 0,0 19.61,41.07 A 0.19,0.19 0 0,0 19.47,41.03 C 19.42,41.03 19.37,41.06 19.35,41.1 A 0.73,0.73 0 0,0 19.25,41.31 L 18.7,43.08 A 0.55,0.55 0 0,0 18.66,43.28 C 18.66,43.33 18.69,43.38 18.73,43.4 C 18.77,43.43 18.83,43.44 18.87,43.44 C 18.93,43.43 18.97,43.41 19,43.36 A 0.69,0.69 0 0,0 19.1,43.16 L 19.65,41.38 L 19.69,41.18 Z M 32.83,39.07 V 39.05 L 32.84,39.02 A 0.75,0.75 0 0,0 32.9,38.72 A 0.2,0.2 0 0,0 32.78,38.57 A 0.5,0.5 0 0,0 32.5,38.55 A 1.97,1.97 0 0,0 31.37,39.14 C 31.23,39.29 31.12,39.46 31.05,39.64 S 30.95,40 30.98,40.17 C 30.99,40.27 31.03,40.37 31.08,40.47 A 0.66,0.66 0 0,0 31.44,40.8 C 31.5,40.82 31.55,40.82 31.6,40.82 C 31.66,40.81 31.7,40.79 31.74,40.75 A 0.16,0.16 0 0,0 31.78,40.62 A 0.14,0.14 0 0,0 31.74,40.54 A 0.93,0.93 0 0,0 31.64,40.47 A 0.46,0.46 0 0,1 31.38,40.12 A 0.77,0.77 0 0,1 31.48,39.64 C 31.56,39.47 31.68,39.33 31.85,39.2 C 32.02,39.07 32.21,38.99 32.41,38.94 L 32.46,38.93 L 31.72,41.31 A 0.52,0.52 0 0,0 31.68,41.51 C 31.69,41.56 31.72,41.59 31.76,41.62 C 31.79,41.65 31.84,41.66 31.89,41.66 A 0.2,0.2 0 0,0 32.02,41.59 C 32.05,41.55 32.08,41.48 32.11,41.39 L 32.83,39.09 V 39.07 Z M 33.43,40.97 A 0.1,0.1 0 0,0 33.43,40.95 L 33.01,40.03 L 34.26,38.63 C 34.32,38.58 34.36,38.53 34.36,38.5 C 34.38,38.47 34.39,38.44 34.38,38.4 C 34.38,38.35 34.35,38.31 34.31,38.28 A 0.17,0.17 0 0,0 34.18,38.25 A 0.15,0.15 0 0,0 34.09,38.29 L 33.95,38.43 L 32.68,39.85 A 0.5,0.5 0 0,0 32.61,39.94 A 0.11,0.11 0 0,0 32.61,40.01 C 32.61,40.03 32.62,40.08 32.66,40.16 L 33.12,41.14 C 33.17,41.24 33.2,41.3 33.24,41.33 C 33.27,41.35 33.31,41.37 33.37,41.36 C 33.42,41.35 33.46,41.33 33.49,41.29 A 0.17,0.17 0 0,0 33.52,41.16 A 0.67,0.67 0 0,0 33.46,41.01 A 0.8,0.8 0 0,1 33.44,40.96 Z" fill="rgb(34, 30, 30)"/>
<path d="M 34.120000000000005,39.205 A 0.22,0.22 0 0,0 34.09,39.41 C 34.09,39.46 34.12,39.51 34.17,39.54 C 34.21,39.57 34.27,39.58 34.32,39.57 C 34.4,39.57 34.45,39.53 34.49,39.47 A 0.24,0.24 0 0,0 34.53,39.3 C 34.52,39.24 34.49,39.2 34.45,39.17 A 0.22,0.22 0 0,0 34.29,39.14 A 0.22,0.22 0 0,0 34.13,39.22 Z" fill="rgb(34, 30, 30)"/>
<path d="M 41.74,39.575 A 0.14,0.14 0 0,0 41.65,39.56 A 0.2,0.2 0 0,0 41.55,39.6 A 2.57,2.57 0 0,0 41.25,39.9 A 0.59,0.59 0 0,1 41.15,39.97 A 0.2,0.2 0 0,1 41.09,39.99 C 41.04,40 41.02,39.98 41.01,39.93 C 41.01,39.9 41.01,39.85 41.04,39.78 L 41.1,39.58 L 41.17,39.38 A 0.94,0.94 0 0,0 41.24,38.95 A 0.27,0.27 0 0,0 41.13,38.75 A 0.32,0.32 0 0,0 40.9,38.71 A 0.58,0.58 0 0,0 40.69,38.79 A 0.59,0.59 0 0,0 40.52,38.93 V 38.92 A 0.15,0.15 0 0,0 40.46,38.82 A 0.17,0.17 0 0,0 40.33,38.79 A 0.17,0.17 0 0,0 40.21,38.85 A 0.73,0.73 0 0,0 40.13,39.05 L 39.87,39.89 L 39.86,39.9 C 39.72,40.01 39.58,40.1 39.44,40.18 C 39.29,40.26 39.17,40.3 39.08,40.32 C 39.01,40.32 38.96,40.31 38.96,40.25 C 38.96,40.21 38.96,40.18 39,40.15 A 0.84,0.84 0 0,1 39.16,40.02 L 39.34,39.9 L 39.47,39.82 A 0.3,0.3 0 0,0 39.57,39.73 A 0.15,0.15 0 0,0 39.6,39.63 A 0.15,0.15 0 0,0 39.53,39.53 A 0.15,0.15 0 0,0 39.43,39.5 A 0.97,0.97 0 0,0 39.14,39.64 A 0.23,0.23 0 0,1 39.11,39.56 C 39.11,39.52 39.11,39.49 39.14,39.46 A 0.46,0.46 0 0,1 39.26,39.36 L 39.4,39.26 L 39.6,39.14 A 0.14,0.14 0 0,0 39.65,39.01 A 0.14,0.14 0 0,0 39.59,38.91 A 0.17,0.17 0 0,0 39.46,38.88 A 0.62,0.62 0 0,0 39.31,38.94 C 39.22,38.98 39.14,39.03 39.08,39.08 C 38.84,39.24 38.73,39.42 38.76,39.62 C 38.77,39.69 38.8,39.77 38.86,39.84 A 0.8,0.8 0 0,0 38.65,40.04 L 38.55,40.14 A 3.83,3.83 0 0,1 38.3,40.37 A 0.2,0.2 0 0,1 38.23,40.4 C 38.19,40.4 38.16,40.38 38.15,40.33 C 38.15,40.31 38.15,40.26 38.18,40.18 L 38.25,39.98 L 38.32,39.78 A 1,1 0 0,0 38.38,39.35 A 0.27,0.27 0 0,0 38.28,39.15 A 0.3,0.3 0 0,0 38.04,39.11 A 0.6,0.6 0 0,0 37.69,39.31 L 37.91,38.57 A 0.51,0.51 0 0,0 37.95,38.38 A 0.15,0.15 0 0,0 37.89,38.28 A 0.18,0.18 0 0,0 37.76,38.24 A 0.17,0.17 0 0,0 37.65,38.3 A 0.78,0.78 0 0,0 37.56,38.5 L 37.03,40.25 L 36.99,40.28 L 36.79,40.41 C 36.69,40.48 36.59,40.54 36.47,40.59 A 1,1 0 0,1 36.18,40.69 C 36.05,40.71 35.98,40.67 35.96,40.56 C 35.96,40.49 35.97,40.41 36.01,40.31 A 1.33,1.33 0 0,1 36.45,39.76 A 0.56,0.56 0 0,0 36.41,39.99 C 36.42,40.03 36.44,40.06 36.48,40.09 C 36.51,40.11 36.55,40.12 36.6,40.11 C 36.66,40.1 36.71,40.05 36.74,39.95 L 36.77,39.85 L 36.82,39.68 L 36.85,39.57 A 0.44,0.44 0 0,0 36.86,39.44 A 0.15,0.15 0 0,0 36.79,39.33 A 0.22,0.22 0 0,0 36.65,39.3 A 0.87,0.87 0 0,0 36.33,39.43 C 36.21,39.51 36.1,39.6 36,39.71 A 1.7,1.7 0 0,0 35.6,40.35 V 40.41 A 0.28,0.28 0 0,0 35.48,40.47 L 35.38,40.57 L 35.12,40.77 A 0.4,0.4 0 0,1 34.95,40.85 C 34.91,40.85 34.89,40.84 34.88,40.8 C 34.88,40.76 34.89,40.69 34.93,40.58 L 35.13,39.88 L 35.4,39.85 L 35.6,39.8 C 35.65,39.76 35.68,39.7 35.67,39.63 C 35.67,39.57 35.64,39.53 35.59,39.52 A 0.44,0.44 0 0,0 35.39,39.52 L 35.25,39.53 L 35.3,39.34 A 0.5,0.5 0 0,0 35.34,39.15 A 0.14,0.14 0 0,0 35.27,39.05 A 0.18,0.18 0 0,0 35.15,39.02 A 0.16,0.16 0 0,0 35.04,39.08 A 0.65,0.65 0 0,0 34.95,39.28 L 34.85,39.58 L 34.72,39.61 A 0.55,0.55 0 0,0 34.52,39.66 A 0.17,0.17 0 0,0 34.46,39.73 A 0.17,0.17 0 0,0 34.45,39.83 C 34.45,39.88 34.48,39.92 34.54,39.93 C 34.57,39.95 34.64,39.95 34.73,39.94 H 34.75 L 34.55,40.58 V 40.6 L 34.43,40.71 C 34.28,40.88 34.17,40.96 34.11,40.97 C 34.06,40.97 34.03,40.95 34.03,40.91 L 34.05,40.77 L 34.29,39.97 A 0.47,0.47 0 0,0 34.33,39.79 A 0.15,0.15 0 0,0 34.26,39.69 A 0.18,0.18 0 0,0 34.14,39.66 A 0.16,0.16 0 0,0 34.02,39.72 A 0.67,0.67 0 0,0 33.94,39.92 L 33.7,40.68 A 1.9,1.9 0 0,0 33.65,40.91 A 0.59,0.59 0 0,0 33.65,41.07 C 33.65,41.17 33.7,41.25 33.77,41.3 C 33.85,41.35 33.93,41.37 34.04,41.35 A 0.96,0.96 0 0,0 34.53,41.09 C 34.55,41.13 34.58,41.16 34.63,41.19 C 34.69,41.23 34.78,41.25 34.89,41.24 C 35.04,41.21 35.25,41.1 35.49,40.9 C 35.55,40.87 35.59,40.83 35.63,40.8 C 35.64,40.84 35.66,40.87 35.69,40.9 A 0.4,0.4 0 0,0 35.9,41.04 C 35.99,41.06 36.1,41.07 36.2,41.05 C 36.32,41.03 36.44,41 36.56,40.95 C 36.66,40.9 36.77,40.85 36.88,40.78 V 40.79 C 36.89,40.84 36.91,40.87 36.95,40.89 C 36.98,40.92 37.03,40.93 37.07,40.93 H 37.09 L 37.15,40.9 A 0.2,0.2 0 0,0 37.22,40.82 A 0.82,0.82 0 0,0 37.27,40.67 L 37.54,39.8 C 37.6,39.72 37.67,39.66 37.74,39.6 C 37.82,39.54 37.88,39.5 37.92,39.5 C 37.96,39.5 37.99,39.51 37.99,39.55 C 37.99,39.58 37.98,39.67 37.93,39.81 A 3.6,3.6 0 0,0 37.78,40.27 A 0.64,0.64 0 0,0 37.77,40.49 C 37.77,40.59 37.82,40.66 37.9,40.72 C 37.97,40.77 38.06,40.79 38.16,40.78 C 38.22,40.77 38.29,40.74 38.37,40.7 C 38.45,40.66 38.53,40.6 38.61,40.53 L 38.64,40.51 L 38.74,40.59 C 38.83,40.65 38.94,40.67 39.09,40.65 C 39.21,40.63 39.33,40.59 39.46,40.54 L 39.74,40.39 C 39.74,40.44 39.77,40.47 39.81,40.49 C 39.84,40.52 39.88,40.53 39.93,40.53 C 39.98,40.52 40.03,40.5 40.05,40.47 L 40.13,40.27 L 40.4,39.4 L 40.6,39.2 A 0.41,0.41 0 0,1 40.78,39.1 C 40.82,39.1 40.85,39.11 40.85,39.15 A 5.85,5.85 0 0,0 40.64,39.87 A 0.7,0.7 0 0,0 40.62,40.09 C 40.64,40.19 40.68,40.26 40.76,40.32 C 40.83,40.37 40.92,40.39 41.02,40.37 C 41.2,40.35 41.4,40.22 41.63,39.98 C 41.76,39.86 41.81,39.76 41.8,39.68 A 0.14,0.14 0 0,0 41.75,39.58 Z" fill="rgb(34, 30, 30)"/>
</svg>
