<?xml version="1.0" encoding="UTF-8"?>
<!-- generated by Finnhub -->
<svg viewBox="0 0 55.5 55.5" xmlns="http://www.w3.org/2000/svg">
<path d="M 0,0 H 55.5 V 55.5 H 0 Z" fill="rgb(239, 242, 248)"/>
<path d="M 15.27,26.985 V 28.5 H 9.43 V 27 H 15.28 Z M 10,22 V 33 H 8 V 22 H 10 Z M 17,22 V 33 H 15 V 22 H 17 Z M 23.44,23.57 L 20.14,33 H 18.15 L 22.3,22 H 23.57 L 23.44,23.57 Z M 26.19,33 L 22.89,23.57 L 22.75,22 H 24.03 L 28.19,33 H 26.19 Z M 26,29 L 26.04,30.54 H 20.04 L 20,29 H 26 Z M 33.72,23.57 L 30.42,33 H 28.44 L 32.58,22 H 33.86 L 33.72,23.57 Z M 36.48,33 L 33.18,23.57 L 33.03,22 H 34.31 L 38.48,33 H 36.48 Z M 36.32,29 V 30.54 H 30.32 V 29 H 36.32 Z M 46.1,29.37 H 48 C 47.8,31.69 45.92,33 43.68,33 C 40.8,33 39,30.63 39,27.95 V 27.05 C 39,24.35 40.86,22 43.74,22 C 46.02,22 47.76,23.37 48,25.68 H 46.1 C 45.96,24.3 45.16,23.48 43.74,23.48 C 41.76,23.48 41,25.3 41,27 V 28 C 41,29.65 41.7,31.53 43.68,31.53 C 45.09,31.53 45.93,30.77 46.1,29.37 Z"/>
</svg>
