<?xml version="1.0" encoding="UTF-8"?>
<!-- generated by Finnhub -->
<svg viewBox="0 0 55.5 55.5" xmlns="http://www.w3.org/2000/svg">
<rect width="56" height="56" fill="rgb(239, 242, 248)"/>
<path d="M 16.208,23.998 C 16.3048,24.0286 16.4627,24.1388 16.3995,24.4541 C 16.3362,24.7694 16.2521,25.2111 16.218,25.3925 C 16.7794,25.4412 17.9307,25.85 17.9997,27.0955 V 29.6717 C 18.0154,30.0537 17.7455,30.854 16.5855,30.9994 C 16.1545,31.0073 15.297,30.8666 15.3158,30.2407 C 15.3498,30.08 15.5274,29.8235 15.9663,30.0827 C 16.0552,30.167 16.3034,30.334 16.5855,30.3277 C 16.9382,30.3198 17.2517,30.059 17.2674,29.5374 V 27.0085 C 17.2444,26.6898 17.0024,26.0492 16.218,26.0365 C 16.0897,26.026 15.7971,26.0507 15.6528,26.2341 C 15.5086,26.4174 15.2322,26.7109 15.112,26.8347 C 15.018,26.8847 14.8032,26.9406 14.6966,26.7636 C 14.59,26.5865 14.7463,26.3895 14.8377,26.3131 C 15.1094,26.0629 15.6905,25.2952 15.8409,24.2268 C 15.8624,24.1291 15.9678,23.9494 16.218,24.013 Z M 11.7058,25.7623 C 12.2683,25.362 13.4528,24.4912 13.691,24.211 C 13.795,24.1276 14.037,24.0108 14.1731,24.211 C 14.3093,24.4112 14.192,24.5947 14.1164,24.6614 C 14.0739,24.709 14.0257,24.8415 14.1731,24.9902 L 14.5773,25.505 C 14.6293,25.5812 14.6907,25.7637 14.5206,25.8838 C 14.3504,26.0039 14.218,25.9339 14.1731,25.8838 L 13.7548,25.3977 C 13.7194,25.362 13.6272,25.3119 13.5421,25.3977 S 13.5067,25.5812 13.5421,25.6193 L 13.8683,26.0769 C 13.9132,26.1531 13.9675,26.3299 13.8257,26.4272 C 13.6839,26.5244 13.5019,26.4295 13.4287,26.37 L 13.0387,25.8838 C 12.9938,25.8409 12.8856,25.7737 12.8118,25.8481 C 12.7381,25.9224 12.7811,26.0554 12.8118,26.1126 L 13.1734,26.5558 C 13.2183,26.6249 13.2812,26.796 13.1734,26.9276 C 13.0657,27.0591 12.8591,26.949 12.7693,26.8775 L 12.3013,26.3199 C 12.2352,26.2603 12.0844,26.1641 12.0107,26.2556 C 11.9369,26.3471 11.7296,26.2375 11.6491,26.1555 C 11.5718,26.0769 11.5462,25.8767 11.7058,25.7623 Z M 15.7977,27.2476 C 15.6614,27.1136 15.4431,27.1163 15.3102,27.2537 S 15.1801,27.6111 15.3164,27.7452 L 16.3636,28.7751 C 16.4999,28.9091 16.7182,28.9064 16.8511,28.769 S 16.9813,28.4115 16.845,28.2775 L 15.7977,27.2476 Z M 13.6637,27.0226 C 13.1276,28.1387 12.3901,28.4442 11.7286,28.6936 C 11.4876,28.8163 11.4952,28.9792 11.5895,29.1848 C 11.672,29.3647 11.8876,29.3646 12.0179,29.3319 C 12.9689,29.1837 13.7921,28.289 14.0848,27.8602 C 14.1791,27.9256 14.1747,28.0342 14.1607,28.0804 C 13.3326,29.391 12.6138,29.5557 12.1946,29.6519 C 12.1602,29.6597 12.1278,29.6672 12.0976,29.6747 C 11.6985,29.7744 11.6574,29.989 11.7286,30.2036 C 11.7999,30.4185 12.0248,30.4361 12.1729,30.4105 C 12.962,30.2818 13.8269,29.5751 14.1607,29.2378 V 29.782 C 14.1607,30.3369 13.7638,30.3346 13.5396,30.3334 C 13.513,30.3332 13.4888,30.3331 13.468,30.3339 C 13.2722,30.3416 13.0162,30.3799 13.0162,30.6712 C 13.0162,30.9624 13.4454,31.1004 14.1607,30.9164 C 14.733,30.7693 14.8359,30.2368 14.8158,29.989 L 14.7631,27.9808 C 14.7631,27.8479 14.6923,27.4534 14.4092,26.9383 S 13.7943,26.7799 13.6637,27.0226 Z M 5.0769,23.9997 C 4.88737,23.9997 4.73372,24.1533 4.73372,24.3429 C 4.73372,24.5324 4.88737,24.6861 5.0769,24.6861 H 6.5544 V 25.0001 H 5.1076 C 4.40159,25.0173 4.2074,25.3471 4.15275,25.5042 C 3.76937,26.6062 4.19615,27.0311 4.44933,27.0095 C 4.84392,26.9506 4.83792,26.6893 4.82814,26.2634 C 4.82716,26.2208 4.82614,26.1766 4.82549,26.1308 C 4.8197,25.7275 5.21852,25.6555 5.41865,25.6699 H 6.55435 V 25.9997 H 5.64021 C 5.47911,25.9997 5.34851,26.1303 5.34851,26.2914 S 5.47911,26.5831 5.64021,26.5831 H 6.55435 V 26.9997 H 5.64021 C 5.47911,26.9997 5.34851,27.1303 5.34851,27.2914 S 5.47911,27.5831 5.64021,27.5831 H 8.65701 C 8.81811,27.5831 8.94871,27.4525 8.94871,27.2914 S 8.81811,26.9997 8.65701,26.9997 H 7.68281 V 26.5831 H 8.65701 C 8.81811,26.5831 8.94871,26.4525 8.94871,26.2914 S 8.81811,25.9997 8.65701,25.9997 H 7.68281 V 25.6699 H 8.77511 C 9.41168,25.6411 9.50813,25.9652 9.47678,26.1308 C 9.44302,26.4549 9.47967,27.0844 9.89633,27.0095 C 10.4171,26.9159 10.3737,26.03 10.1495,25.5042 C 9.97012,25.0836 9.50572,24.9929 9.29594,25.0001 H 7.68284 V 24.6861 H 9.20044 C 9.38997,24.6861 9.54362,24.5324 9.54362,24.3429 C 9.54362,24.1533 9.38997,23.9997 9.20044,23.9997 H 5.07684 Z M 4.0017,30.6287 C 3.98116,30.5035 4.11015,30.2456 4.7904,30.2156 C 4.98962,30.2135 5.42382,30.0691 5.56677,29.5083 L 5.5858,29.4331 C 5.75788,28.7512 5.94598,28.0058 7.2058,27.9997 C 8.4237,27.9939 8.6186,28.6955 8.8042,29.3637 C 8.81766,29.4121 8.83108,29.4604 8.84483,29.5083 C 9.04816,30.2156 9.42402,30.2156 9.88613,30.2156 C 10.2558,30.2156 10.4037,30.4497 10.4037,30.6287 C 10.4037,30.7758 10.3347,30.968 9.88613,30.998 H 9.2638 C 9.05841,31.0168 8.58109,30.8866 8.3149,30.2156 C 8.3149,30.1956 8.11362,29.5855 8.01298,29.2829 C 7.95958,29.1202 7.72338,28.7972 7.2058,28.8072 S 6.46024,29.1285 6.41095,29.2829 L 6.10902,30.2156 C 6.05151,30.4639 5.77383,30.968 5.12316,30.998 H 4.42073 C 4.28106,30.998 4.00173,30.9242 4.00173,30.6287 Z M 19.9997,23.9997 H 19.2497 V 30.9997 H 19.9997 V 23.9997 Z M 23.9997,23.9997 H 24.7497 V 26.7143 C 25.2006,26.2723 25.8183,25.9997 26.4997,25.9997 H 28.9997 V 28.4582 C 29.0431,29.1058 29.448,30.1017 30.8408,30.2373 C 31.2055,30.2572 32.0553,30.041 32.5372,29.0163 C 32.6725,29.4432 33.2257,30.2852 34.3567,30.2373 C 34.8238,30.1894 35.8073,29.8111 36.004,28.6811 V 25.9997 H 36.6309 V 28.8607 C 36.6104,29.4632 36.1269,30.7329 34.3567,30.9914 C 34.0493,31.0273 33.2552,30.9651 32.5372,30.4288 C 32.3078,30.6163 31.6472,30.9914 30.8408,30.9914 C 29.892,30.9914 29.1066,30.4188 28.7715,29.7826 V 30.9997 H 28.1957 V 26.8052 H 26.4474 C 25.5164,26.8052 24.7617,27.5599 24.7617,28.4909 C 24.7617,29.4218 25.5164,30.1765 26.4474,30.1765 H 26.9997 V 30.9997 H 26.4997 C 25.8183,30.9997 25.2006,30.7271 24.7497,30.2851 V 30.9997 H 23.9997 V 23.9997 Z M 20.2497,23.9997 H 20.9997 V 26.6585 H 22.9997 V 23.9997 H 23.7497 V 27.3413 H 20.2497 V 23.9997 Z M 20.9997,30.9997 H 20.2497 V 27.7837 H 23.7497 V 30.9997 H 22.9997 V 28.606 H 20.9997 V 30.9997 Z M 26.4984,27.0024 C 25.6707,27.0024 24.9997,27.6734 24.9997,28.501 C 24.9997,29.3287 25.672,29.9997 26.4997,29.9997 H 26.9997 V 29.2173 H 26.5195 C 26.1242,29.2173 25.8038,28.8969 25.8038,28.5016 V 28.4769 C 25.8038,28.068 26.1353,27.7365 26.5442,27.7365 H 27.2097 V 30.4161 H 27.2058 V 30.9997 H 27.9997 V 27.0024 H 26.4984 Z M 40.4994,30.924 C 41.3777,30.924 42.1502,30.478 42.5961,29.8034 C 43.0355,30.5209 43.8266,30.9997 44.7297,30.9997 H 45.2297 V 30.1765 H 44.6773 C 43.784,30.1765 43.0531,29.4817 42.9954,28.603 C 42.998,28.5563 42.9994,28.5092 42.9994,28.4619 C 42.9994,28.4261 42.9986,28.3905 42.9971,28.355 C 43.0663,27.4876 43.7921,26.8052 44.6773,26.8052 H 46.4257 V 30.9997 H 47.7494 V 28.4763 H 47.7498 C 47.7495,28.4642 47.7494,28.4521 47.7494,28.4399 C 47.7494,27.5226 48.5186,26.779 49.4675,26.779 S 51.1856,27.5226 51.1856,28.4399 L 51.1853,28.4691 H 51.9984 C 51.9991,28.4467 51.9994,28.4241 51.9994,28.4015 C 51.9994,27.075 50.8801,25.9997 49.4994,25.9997 C 48.6633,25.9997 47.923,26.394 47.4692,26.9997 H 47.2297 V 25.9997 H 44.7297 C 43.8429,25.9997 43.064,26.4614 42.6201,27.1575 C 42.1783,26.4622 41.3937,25.9997 40.4994,25.9997 C 39.1389,25.9997 38.0322,27.07 38.0001,28.4023 H 37.9994 V 32.9997 H 38.7494 V 28.4787 H 38.7495 C 38.7618,27.5487 39.5262,26.7987 40.4675,26.7987 C 41.4164,26.7987 42.1856,27.5609 42.1856,28.5013 C 42.1856,29.4416 41.4164,30.2039 40.4675,30.2039 C 40.3052,30.2039 40.1482,30.1816 39.9994,30.14 V 30.8748 C 40.161,30.9071 40.3282,30.924 40.4994,30.924 Z M 43.2297,28.501 C 43.2297,27.6734 43.9006,27.0024 44.7283,27.0024 H 46.2297 V 30.9997 H 45.4357 V 30.4161 H 45.4397 V 27.7365 H 44.7742 C 44.3653,27.7365 44.0338,28.068 44.0338,28.4769 V 28.5016 C 44.0338,28.8969 44.3542,29.2173 44.7495,29.2173 H 45.2297 V 29.9997 H 44.7297 C 43.902,29.9997 43.2297,29.3287 43.2297,28.501 Z M 35.7639,25.9997 V 28.7646 C 35.722,29.1446 35.368,29.923 34.2874,29.9956 C 33.2067,30.0683 32.7341,29.1514 32.6329,28.6838 V 25.9997 H 33.3135 V 28.3508 C 33.31,28.593 33.4622,29.0875 34.0989,29.0875 C 34.7062,29.0875 34.8005,28.5627 34.8005,28.2903 V 25.9997 H 35.7639 Z M 29.2678,28.7646 V 25.9997 H 30.2312 V 28.2903 C 30.2312,28.5628 30.3254,29.0875 30.9328,29.0875 C 31.5695,29.0875 31.7216,28.5931 31.7181,28.3509 V 25.9997 H 32.3988 V 28.6839 C 32.2976,29.1514 31.8249,30.0683 30.7443,29.9957 C 29.6636,29.923 29.3097,29.1447 29.2678,28.7646 Z M 38.9994,32.9996 H 39.7494 V 28.6242 H 39.752 C 39.7503,28.6036 39.7494,28.5826 39.7494,28.5615 C 39.7494,28.1572 40.0731,27.8295 40.4723,27.8295 S 41.1952,28.1572 41.1952,28.5615 C 41.1952,28.9657 40.8715,29.2934 40.4723,29.2934 C 40.2915,29.2934 40.1262,29.2262 39.9994,29.1151 V 29.9335 C 40.1558,29.9895 40.3241,30.0199 40.4994,30.0199 C 41.3278,30.0199 41.9994,29.34 41.9994,28.5012 S 41.3278,26.9825 40.4994,26.9825 S 38.9994,27.6624 38.9994,28.5012 L 38.9995,28.5203 L 39,28.5433 H 38.9994 V 32.9996 Z M 51.0834,28.463 V 28.4691 H 50.2405 C 50.2127,28.1051 49.8934,27.818 49.5037,27.818 C 49.0957,27.818 48.7649,28.1327 48.7649,28.5209 V 28.5231 H 48.762 V 29.7218 V 29.9548 V 30.6972 V 30.9997 H 47.9993 V 28.4811 H 47.9994 L 47.9993,28.463 C 47.9993,27.6576 48.6897,27.0046 49.5414,27.0046 C 50.393,27.0046 51.0834,27.6576 51.0834,28.463 Z" clip-rule="evenodd" fill="rgb(175, 96, 14)" fill-rule="evenodd"/>
</svg>
