<?xml version="1.0" encoding="UTF-8"?>
<!-- generated by Finnhub -->
<svg viewBox="0 0 55.5 55.5" xmlns="http://www.w3.org/2000/svg">
<path d="M 0,0 H 55.5 V 55.5 H 0 Z" fill="rgb(239, 242, 248)"/>
<path d="M 8.99,25.985 H 14.9 C 20.2,23.7 22.85,22.43 28.5,22.43 C 34.2,22.43 37.01,23.7 42.11,26 H 48 C 40.7,23.2 35.81,22 28.5,22 S 16.28,23.2 9,26 Z" fill="rgb(83, 184, 70)"/>
<path d="M 49.49,28.555 C 49.5,27.99 49.71,27.7 50.2,27.7 C 50.63,27.7 51,27.9 51,28.26 V 30 H 52 V 28.21 C 52,27.47 51.43,27 50.71,27 C 50.18,27 49.84,27.2 49.5,27.57 V 26 H 48.5 V 30 H 49.5 V 28.57 Z M 48.2,28 C 48.15,27.65 47.99,27.46 47.68,27.28 C 47.38,27.1 46.98,27 46.44,27 A 2.2,2.2 0 0,0 45.02,27.4 C 44.68,27.68 44.52,28.06 44.52,28.55 C 44.52,29.02 44.68,29.38 45.01,29.63 C 45.33,29.87 45.8,30 46.41,30 C 47.01,30 47.46,29.9 47.76,29.7 C 48.06,29.52 48.22,29.4 48.24,29 H 47.07 C 47.07,29.26 46.61,29.35 46.42,29.35 A 0.72,0.72 0 0,1 45.87,29.14 A 0.9,0.9 0 0,1 45.68,28.53 C 45.68,28.23 45.75,28.01 45.88,27.85 A 0.66,0.66 0 0,1 46.42,27.61 C 46.67,27.61 47.02,27.71 47.06,28 H 48.19 Z M 43.26,28.7 C 43.26,28.9 43.19,29.07 43.06,29.2 A 0.89,0.89 0 0,1 42.49,29.36 A 0.86,0.86 0 0,1 42.07,29.28 A 0.26,0.26 0 0,1 41.92,29.05 C 41.92,28.9 42.02,28.79 42.2,28.73 C 42.38,28.66 42.7,28.63 43.17,28.63 H 43.26 V 28.7 Z M 43.29,29.55 C 43.29,29.62 43.29,29.68 43.31,29.75 C 43.31,29.81 43.33,29.95 43.36,30 H 44.41 L 44.37,29.75 L 44.36,29.55 V 28.09 C 44.36,27.72 44.23,27.45 43.96,27.26 C 43.7,27.08 43.3,27 42.73,27 C 42.15,27 41.72,27.07 41.43,27.23 C 41.13,27.37 40.98,27.69 40.93,28 H 42.08 C 42.1,27.88 42.16,27.7 42.26,27.65 A 1,1 0 0,1 42.72,27.57 C 42.9,27.57 43.04,27.61 43.14,27.69 C 43.24,27.77 43.28,27.89 43.28,28.05 V 28.13 H 42.73 C 42.27,28.13 41.93,28.15 41.72,28.17 C 41.5,28.2 41.34,28.25 41.22,28.33 A 0.9,0.9 0 0,0 40.76,29.13 C 40.76,29.4 40.86,29.62 41.06,29.77 C 41.26,29.92 41.56,30 41.92,30 C 42.24,30 42.52,29.95 42.76,29.87 S 43.17,29.67 43.3,29.51 V 29.55 H 43.29 Z M 39.58,29.04 A 0.37,0.37 0 0,1 39.38,29.32 A 0.78,0.78 0 0,1 38.96,29.42 A 0.84,0.84 0 0,1 38.4,29.24 A 0.68,0.68 0 0,1 38.18,28.75 H 40.73 V 28.65 C 40.73,28.11 40.58,27.69 40.29,27.42 C 39.99,27.14 39.56,27 38.97,27 A 2.2,2.2 0 0,0 37.55,27.4 C 37.21,27.68 37.05,28.06 37.05,28.55 C 37.05,29.02 37.21,29.38 37.54,29.63 C 37.86,29.87 38.32,30 38.92,30 C 39.46,30 39.89,29.92 40.19,29.75 C 40.49,29.59 40.65,29.35 40.67,29.03 H 39.57 Z M 38.19,28.18 A 0.58,0.58 0 0,1 38.41,27.75 C 38.54,27.65 38.71,27.6 38.93,27.6 C 39.14,27.6 39.31,27.65 39.43,27.75 C 39.56,27.85 39.63,28 39.63,28.17 H 38.2 M 34.89,28.3 C 35.27,28.3 35.53,28.33 35.65,28.4 C 35.76,28.46 35.83,28.57 35.83,28.74 S 35.76,29.04 35.63,29.1 C 35.51,29.17 35.26,29.2 34.89,29.2 H 34 V 28.3 H 34.89 Z M 34.81,26.74 C 35.16,26.74 35.38,26.78 35.48,26.84 C 35.59,26.89 35.65,27 35.65,27.14 C 35.65,27.31 35.59,27.43 35.47,27.48 C 35.36,27.55 35.14,27.58 34.81,27.58 H 34 V 26.74 H 34.81 Z M 35.04,30 C 35.49,30 35.82,29.96 36.04,29.91 C 36.26,29.87 36.44,29.8 36.59,29.69 C 36.72,29.59 36.83,29.47 36.89,29.34 C 36.96,29.2 37,29.04 37,28.86 C 37,28.56 36.91,28.33 36.73,28.17 A 1.2,1.2 0 0,0 35.96,27.89 C 36.27,27.83 36.49,27.72 36.63,27.59 A 0.74,0.74 0 0,0 36.83,27.03 A 1,1 0 0,0 36.67,26.48 A 0.84,0.84 0 0,0 36.23,26.13 A 1.75,1.75 0 0,0 35.79,26.03 A 7.53,7.53 0 0,0 35.03,26 H 33 V 30 H 35.04 Z M 29,30 V 28.52 C 29,28.24 29.07,28.02 29.2,27.88 S 29.63,27.67 29.9,27.67 C 30.1,27.67 30.26,27.72 30.36,27.82 C 30.46,27.92 30.52,28.07 30.52,28.26 V 30 H 31.66 V 28.2 C 31.66,27.83 31.54,27.54 31.32,27.33 A 1.3,1.3 0 0,0 30.38,27 A 2.05,2.05 0 0,0 29.01,27.54 L 29,27.3 L 28.98,26.99 H 27.94 L 27.97,27.37 C 27.98,27.47 28,27.6 28,27.75 V 30 H 29 Z M 25.66,30 A 2.6,2.6 0 0,0 27.19,29.63 C 27.53,29.38 27.7,29.01 27.7,28.51 C 27.7,28.01 27.53,27.65 27.19,27.39 C 26.85,27.14 26.35,27 25.69,27 C 25.05,27 24.56,27.13 24.22,27.38 C 23.88,27.64 23.7,28.01 23.7,28.49 C 23.7,28.99 23.87,29.35 24.2,29.61 C 24.54,29.87 25.02,30 25.66,30 Z M 25.71,29.36 C 25.44,29.36 25.25,29.29 25.11,29.14 C 24.97,28.98 24.9,28.76 24.9,28.47 C 24.9,28.19 24.97,27.97 25.12,27.81 A 0.78,0.78 0 0,1 25.72,27.57 C 25.97,27.57 26.16,27.65 26.32,27.82 C 26.46,27.98 26.54,28.2 26.54,28.47 C 26.54,28.75 26.46,28.97 26.32,29.12 A 0.83,0.83 0 0,1 25.72,29.36 Z"/>
<path d="M 22.99,25.985 L 22.71,26.13 C 22.63,26.17 22.55,26.19 22.48,26.21 L 22,26.4 V 27 H 21.2 V 27.7 H 22 V 29.08 C 22,29.39 21.98,29.62 22.19,29.77 C 22.39,29.92 22.72,29.99 23.17,29.99 C 23.3,29.99 23.42,29.99 23.54,29.97 C 23.66,29.97 23.78,29.94 23.9,29.92 V 29.21 L 23.62,29.22 L 23.44,29.23 C 23.27,29.23 23.14,29.21 23.08,29.15 C 23.01,29.09 23,28.98 23,28.84 V 27.7 H 23.9 V 27 H 23 V 26 Z M 21,30 V 26 H 20 V 30 H 21 Z M 18.44,30 H 19.57 V 27 H 18.44 V 30 Z M 18.4,26.63 H 19.62 V 26 H 18.4 V 26.63 Z M 13.37,29.97 V 28.5 C 13.37,28.21 13.42,28 13.55,27.86 C 13.67,27.72 13.85,27.66 14.09,27.66 C 14.27,27.66 14.4,27.7 14.51,27.8 C 14.61,27.9 14.66,28.03 14.66,28.2 V 30 H 15.76 V 28.5 C 15.76,28.21 15.82,28 15.93,27.86 C 16.05,27.72 16.23,27.66 16.47,27.66 C 16.65,27.66 16.79,27.7 16.89,27.8 C 16.99,27.9 17,28.03 17,28.21 V 30 H 18.05 V 28.25 C 18.05,27.85 18.05,27.54 17.83,27.33 A 1.34,1.34 0 0,0 16.87,27 C 16.62,27 16.38,27.05 16.17,27.15 C 15.97,27.25 15.8,27.4 15.67,27.61 A 0.88,0.88 0 0,0 15.27,27.15 C 15.1,27.05 14.87,27 14.6,27 C 14.36,27 14.14,27.05 13.93,27.14 C 13.73,27.24 13.55,27.36 13.38,27.54 L 13.35,27.31 L 13.32,27 H 12.22 L 12.24,27.38 L 12.25,27.76 V 30 H 13.37 V 29.97 Z M 10.83,28.7 C 10.83,28.9 10.77,29.07 10.63,29.2 A 0.89,0.89 0 0,1 10.06,29.36 A 0.86,0.86 0 0,1 9.64,29.28 A 0.26,0.26 0 0,1 9.5,29.05 C 9.5,28.9 9.6,28.79 9.77,28.74 C 9.96,28.67 10.27,28.64 10.75,28.64 H 10.83 V 28.7 Z M 10.87,29.55 C 10.87,29.69 10.89,29.89 10.94,30 H 12.04 A 1.6,1.6 0 0,1 12,29.55 V 28.09 C 12,27.72 11.8,27.45 11.55,27.26 C 11.28,27.08 10.88,27 10.31,27 C 9.73,27 9.3,27.07 9.01,27.23 C 8.71,27.37 8.56,27.69 8.52,28 H 9.67 C 9.69,27.88 9.74,27.7 9.84,27.65 A 1,1 0 0,1 10.31,27.57 C 10.48,27.57 10.62,27.61 10.71,27.69 C 10.81,27.77 10.86,27.89 10.86,28.05 V 28.13 H 10.31 C 9.85,28.13 9.51,28.15 9.3,28.17 C 9.08,28.2 8.92,28.25 8.8,28.33 A 0.9,0.9 0 0,0 8.34,29.13 C 8.34,29.4 8.44,29.62 8.64,29.77 C 8.84,29.93 9.14,30 9.51,30 C 9.83,30 10.11,29.95 10.34,29.87 C 10.58,29.79 10.76,29.67 10.88,29.51 V 29.55 H 10.87 Z M 4,26 H 5 V 27.53 H 7 V 26 H 8 V 30 H 7 V 28.35 H 5 V 30 H 4 V 26 Z"/>
</svg>
