<?xml version="1.0" encoding="UTF-8"?>
<!-- generated by Finnhub -->
<svg viewBox="0 0 55.5 55.5" xmlns="http://www.w3.org/2000/svg">
<path d="M 0,0 H 55.5 V 55.5 H 0 Z" fill="rgb(20, 32, 38)"/>
<path d="M 16.99,29.671 C 17.597,29.686 18,29.174 18,28.253 V 24 H 16 V 28.253 C 16,29.173 16.212,29.686 17,29.686 Z" fill="rgb(237, 52, 34)"/>
<path d="M 33.533,29.985 C 34.005,30 34.218,29.843 34.218,29.5 C 34.218,29.17 34.004,29 33.543,29 H 32 V 30 H 33.543 Z M 33.023,27 C 33.473,27 33.675,26.83 33.675,26.5 C 33.675,26.183 33.473,26 33.024,26 H 32 V 27 H 33.023 Z M 29,24 L 33.47,24.005 C 35.348,24.005 36.4,24.7 36.4,26.21 C 36.4,26.952 36.033,27.507 35.395,27.837 C 36.435,28.109 37.039,28.734 37.039,29.807 C 37.039,31.187 35.939,32.024 34.013,32.024 L 29,32 V 24 Z M 40.684,29 H 42.447 L 41.566,26.551 L 40.684,29.001 Z M 40.028,24.004 H 43.103 L 46,32 H 43.374 L 42.984,31 H 40.135 L 39.733,32 H 37.109 L 40.029,24.004 Z M 53,24 H 50.036 L 48.5,26.5 L 47,24 H 44 L 47,28.918 V 32 H 50 V 28.91 L 53,24 Z M 13,28.497 V 24.004 L 10,24 V 27 H 8 V 24.004 L 5,24.008 V 32 H 8 V 29 H 10 V 32 H 15.804 C 14.044,31.594 13,30.27 13,28.497 Z M 24.588,30 H 24 V 26 H 24.833 C 25.792,26 26,26.867 26,28 C 26,29.108 25.546,30 24.588,30 Z M 24.683,24.004 H 21 V 28.497 C 21,30.142 19.877,31.562 18.103,32 H 24.707 C 27.083,32 28.5,30.583 28.5,28 C 28.5,25.393 27.059,24.016 24.683,24.004 Z" fill="rgb(254, 254, 253)"/>
</svg>
