<?xml version="1.0" encoding="UTF-8"?>
<!-- generated by Finnhub -->
<svg viewBox="0 0 55.5 55.5" xmlns="http://www.w3.org/2000/svg">
<path d="M 0,0 H 55.5 V 55.5 H 0 Z" fill="rgb(1, 133, 117)"/>
<path d="M 13.99,11.985 H 36.78 A 4.21,4.21 0 0,1 41,16.2 V 39.8 C 41,42.12 39.1,44 36.78,44 H 18.95 A 5.63,5.63 0 0,1 15.89,42.83 A 5.08,5.08 0 0,1 14,38.7 C 13.98,36.1 14.99,33.39 15.95,30.86 L 16.05,30.62 C 17,28.1 18,25.83 18,23.82 C 18,20.56 16.53,15.37 14,12 Z M 15.76,13 A 20.32,20.32 0 0,1 19,23.82 C 19,26.02 17.94,28.47 17.02,30.87 L 16.89,31.21 C 15.91,33.77 14.98,36.31 15,38.68 C 15.02,40.36 15.7,41.4 16.5,42.05 C 17.34,42.7 18.34,42.96 19,43 H 36.78 A 3.21,3.21 0 0,0 40,39.8 V 16.2 C 40,14.44 38.56,13 36.78,13 H 15.76 Z" fill="rgb(254, 254, 253)"/>
<path d="M 17.619999999999997,13.985 H 37.08 C 38.14,14 39,14.85 39,15.9 V 40.1 C 39,41.15 38.14,42 37.08,42 H 19.58 C 18.36,41.93 16.03,41.23 16,37.92 C 16.77,33.22 20,27.54 20,24.68 C 20,21.3 19.96,18.6 17.63,14 Z M 29.28,17.34 L 28.91,27.19 L 24.21,21.75 L 28.37,27.92 L 21.2,28.46 L 28.37,29.01 L 24.21,35.07 L 28.91,29.74 L 29.28,39.57 L 29.69,29.74 L 34.5,35.27 L 30.25,29.01 L 37.8,28.46 L 30.25,27.92 L 34.41,21.75 L 29.69,27.19 L 29.28,17.34 Z" fill="rgb(254, 254, 253)"/>
</svg>
