<?xml version="1.0" encoding="UTF-8"?>
<!-- generated by Finnhub -->
<svg viewBox="0 0 55.5 55.5" xmlns="http://www.w3.org/2000/svg">
<path d="M 0,0 H 55.5 V 55.5 H 0 Z" fill="rgb(239, 242, 248)"/>
<path d="M 33.13,18.145 C 33.14,18.26 32.84,18.53 32.48,18.76 C 32.11,18.98 31.82,19.3 31.82,19.46 C 31.82,19.69 31.66,19.74 31.15,19.68 C 30.79,19.64 30.49,19.66 30.49,19.74 S 30.36,20.01 30.21,20.17 C 29.97,20.41 29.8,20.42 29.31,20.25 A 3.72,3.72 0 0,1 28.41,19.82 A 3.96,3.96 0 0,0 27.38,19.37 C 26.76,19.19 26.58,19.2 26.32,19.43 C 25.93,19.79 25.1,20.24 24.62,20.1 C 24.17,19.97 23.88,20.03 23.25,20.4 C 22.25,20.98 22.15,20.98 21.53,20.4 C 21.23,20.12 20.9,19.97 20.73,20.04 C 20.36,20.18 19.51,19.74 19.51,19.39 C 19.51,19.25 19.47,19.14 19.41,19.14 C 19.18,19.14 18.46,19.66 18.13,20.05 C 17.73,20.55 17.38,20.6 17.05,20.2 A 0.85,0.85 0 0,0 16.48,19.9 C 16.3,19.9 16.05,19.67 15.92,19.34 C 15.8,19.04 15.54,18.64 15.34,18.46 C 15.01,18.16 14.96,18.17 14.41,18.74 C 14.1,19.07 13.83,19.43 13.83,19.53 C 13.83,19.63 13.64,19.76 13.4,19.82 C 13.16,19.88 12.88,20.12 12.78,20.35 C 12.58,20.79 12.51,20.81 11.8,20.59 C 11.51,20.5 11.37,20.54 11.37,20.7 C 11.37,20.83 11.14,21.19 10.87,21.48 L 10.35,22.03 L 9.71,21.4 L 9.07,20.77 L 8.77,21.21 C 8.42,21.75 8.21,21.75 7.78,21.21 L 7.45,20.79 L 7.32,21.22 C 7.2,21.59 6.97,21.74 6.76,21.59 C 6.58,21.46 6.66,22.17 4.54,23.29 C 3.5,23.83 4.1,23.79 5.2,23.23 C 5.63,23.01 6.46,22.65 6.82,22.03 C 7.02,22.03 7.22,21.89 7.28,21.73 C 7.34,21.58 7.48,21.45 7.61,21.45 C 7.75,21.45 7.7,21.6 7.49,21.83 C 7.03,22.35 7.27,22.53 7.87,22.14 C 8.22,21.91 8.35,21.89 8.35,22.07 C 8.35,22.2 8.51,22.1 8.7,21.85 L 9.05,21.39 L 9.38,21.89 C 9.65,22.3 9.81,22.38 10.2,22.28 C 10.47,22.21 10.88,21.93 11.12,21.66 C 11.36,21.38 11.55,21.26 11.56,21.4 C 11.56,21.53 11.66,21.64 11.77,21.64 C 11.89,21.64 11.93,21.51 11.87,21.35 C 11.81,21.19 11.85,21.06 11.95,21.06 S 12.13,21.2 12.13,21.37 C 12.13,21.54 12.34,21.94 12.6,22.25 C 13.13,22.89 13.25,22.75 12.77,22.05 C 12.52,21.69 12.51,21.51 12.67,21.12 C 12.94,20.55 13.34,20.62 13.43,21.27 C 13.46,21.52 13.67,21.93 13.88,22.17 C 14.33,22.66 14.78,22.77 14.38,22.29 C 14.1,21.94 13.98,21.43 13.95,20.49 C 13.93,19.95 13.99,19.82 14.26,19.87 C 14.44,19.9 14.59,19.83 14.59,19.72 C 14.59,19.62 14.68,19.52 14.79,19.52 C 14.89,19.52 14.97,19.72 14.97,19.97 C 14.97,20.43 15.47,20.97 16.3,21.41 C 16.58,21.55 16.43,21.35 15.93,20.89 C 15.28,20.3 15.15,20.09 15.37,20 C 15.73,19.87 16.67,20.21 16.67,20.48 L 16.69,20.82 C 16.71,21.06 17.29,21.64 17.49,21.64 C 17.62,21.64 17.61,21.54 17.47,21.41 C 17.13,21.07 17.19,20.68 17.58,20.68 C 17.77,20.68 18.04,20.57 18.18,20.44 C 18.38,20.24 18.38,20.27 18.22,20.6 C 18.1,20.83 18.06,21.06 18.12,21.13 C 18.19,21.19 18.14,21.37 18.01,21.53 C 17.71,21.89 17.93,22.32 18.27,22.03 C 18.4,21.93 18.57,21.89 18.63,21.96 C 18.8,22.13 18.79,22.04 18.58,21.3 C 18.42,20.74 18.44,20.68 18.79,20.68 C 19.09,20.68 19.13,20.62 18.98,20.43 C 18.73,20.13 19.01,19.61 19.32,19.81 C 19.45,19.89 19.52,20.2 19.47,20.51 C 19.43,20.81 19.46,21.06 19.55,21.06 C 19.63,21.06 19.7,20.96 19.7,20.85 C 19.7,20.73 19.83,20.69 19.99,20.75 C 20.14,20.81 20.27,20.78 20.27,20.69 S 20.4,20.47 20.57,20.41 C 20.77,20.33 20.92,20.47 21.06,20.87 C 21.16,21.19 21.34,21.45 21.44,21.45 C 21.54,21.45 21.56,21.35 21.5,21.25 C 21.43,21.13 21.63,21.09 22.05,21.15 C 22.42,21.2 22.77,21.15 22.83,21.05 C 23.03,20.72 23.48,20.85 23.36,21.21 C 23.25,21.51 23.28,21.51 23.65,21.18 C 23.87,20.98 24.05,20.69 24.05,20.55 C 24.05,20.21 24.7,20.22 24.98,20.55 C 25.11,20.71 25.4,20.78 25.69,20.72 C 26.07,20.65 26.16,20.68 26.05,20.87 C 25.95,21.03 25.98,21.08 26.15,21.02 C 26.3,20.97 26.42,20.71 26.42,20.43 C 26.42,19.81 26.77,19.43 27.19,19.6 C 27.39,19.67 27.47,19.86 27.41,20.1 C 27.34,20.36 27.42,20.48 27.72,20.52 C 28.2,20.59 28.18,21.19 27.68,21.58 C 27.41,21.78 27.43,21.82 27.88,21.82 C 28.18,21.82 28.41,21.9 28.41,21.98 S 28.57,22.13 28.77,22.13 C 29.07,22.13 29.1,22.06 28.96,21.79 C 28.86,21.6 28.69,21.45 28.58,21.45 C 28.48,21.45 28.41,21.34 28.44,21.21 C 28.47,21.07 28.38,20.77 28.25,20.53 C 27.98,20.03 28.17,19.97 28.7,20.38 C 28.9,20.54 29.26,20.67 29.49,20.68 C 30.09,20.68 30.19,20.98 29.69,21.34 C 29.15,21.72 29.39,21.73 30.12,21.34 C 30.45,21.17 30.68,20.9 30.68,20.68 C 30.68,20.2 30.76,20.16 32.05,20 C 33.4,19.83 33.46,20.08 32.21,20.65 C 31.7,20.89 31.17,21.22 31.03,21.4 C 30.8,21.7 30.82,21.7 31.29,21.4 C 31.57,21.21 31.98,21.06 32.19,21.06 C 32.79,21.06 33.71,20.29 33.71,19.78 C 33.71,19.53 33.79,19.33 33.9,19.33 C 34,19.33 34.09,19.42 34.09,19.53 C 34.09,19.63 34.22,19.72 34.37,19.72 C 34.53,19.72 34.66,19.62 34.66,19.52 C 34.66,19.38 34.77,19.38 35.01,19.52 C 35.41,19.72 35.72,20.67 35.46,20.85 C 35.26,20.98 34.96,21.67 35,21.88 C 35.02,21.96 34.97,22.02 34.88,22.02 C 34.8,22.02 34.58,22.14 34.38,22.28 C 34.06,22.52 34.08,22.53 34.62,22.45 C 34.95,22.4 35.31,22.25 35.43,22.1 A 0.8,0.8 0 0,1 35.96,21.83 C 36.2,21.83 36.21,21.79 36.01,21.66 C 35.87,21.56 35.83,21.45 35.91,21.39 C 36.01,21.33 36.11,21 36.13,20.65 C 36.2,19.79 36.28,19.76 36.93,20.39 C 37.59,21.03 37.65,21.51 37.12,21.97 C 36.47,22.53 36.7,22.67 37.39,22.14 C 37.76,21.85 38.29,21.64 38.61,21.64 C 39.05,21.64 39.16,21.57 39.08,21.35 C 39.02,21.19 39.06,21.06 39.18,21.06 C 39.29,21.06 39.38,21.13 39.38,21.22 C 39.38,21.53 40.87,22.04 41.38,21.91 C 41.74,21.81 41.86,21.84 41.78,21.98 C 41.63,22.22 41.75,22.31 42.5,22.48 C 42.97,22.6 43.02,22.58 42.82,22.34 C 42.56,22.02 42.6,21.66 42.95,21.28 C 43.15,21.06 43.25,21.06 43.53,21.33 C 43.71,21.5 44.02,21.63 44.2,21.63 C 44.42,21.63 44.5,21.73 44.43,21.92 C 44.35,22.12 44.46,22.18 44.88,22.12 C 45.19,22.08 45.48,22.12 45.54,22.22 C 45.6,22.32 45.77,22.34 45.94,22.28 C 46.14,22.2 46.07,22.06 45.6,21.71 C 45.27,21.46 45.1,21.25 45.25,21.25 C 45.39,21.25 45.65,21.39 45.84,21.55 C 46.12,21.82 46.45,21.95 46.99,22.01 C 47.06,22.01 47.24,22.13 47.38,22.26 A 2.6,2.6 0 0,0 48.85,22.98 C 49.06,22.98 49.23,23.07 49.23,23.17 S 49.53,23.41 49.91,23.48 C 50.28,23.55 50.63,23.72 50.68,23.86 C 50.78,24.13 51.84,24.63 51.99,24.48 C 52.19,24.28 49.41,22.71 48.49,22.51 C 48.16,22.43 47.79,22.21 47.66,22.01 C 47.53,21.79 47.22,21.64 46.93,21.64 C 46.43,21.64 45.93,21.29 45.78,20.84 C 45.73,20.67 45.5,20.72 45.01,21.02 C 44.38,21.39 43.74,21.42 43.74,21.09 C 43.74,21.02 43.56,20.85 43.34,20.71 C 43,20.49 42.89,20.51 42.54,20.84 C 42.15,21.21 41.27,21.64 40.89,21.64 C 40.79,21.64 40.37,21.32 39.96,20.94 C 39.24,20.29 39.16,20.26 38.47,20.44 C 37.84,20.59 37.68,20.56 37.2,20.17 C 36.9,19.92 36.41,19.72 36.13,19.72 C 35.78,19.72 35.48,19.53 35.19,19.14 C 34.96,18.82 34.64,18.56 34.47,18.56 C 34.3,18.56 34,18.43 33.79,18.28 C 33.37,17.95 33.14,17.91 33.14,18.16 Z M 9.2,27.86 V 25.99 L 9.21,25.89 C 9.21,25.62 9.22,25.34 8.89,25.27 A 2.5,2.5 0 0,0 8.51,25.21 V 25 H 10.72 V 25.2 A 2.5,2.5 0 0,0 10.34,25.27 A 0.42,0.42 0 0,0 10.11,25.38 A 0.45,0.45 0 0,0 10.01,25.62 L 10,25.99 V 30.06 C 10,30.21 10,30.34 10.02,30.43 C 10.04,30.53 10.07,30.6 10.12,30.66 C 10.18,30.71 10.25,30.76 10.35,30.78 C 10.45,30.81 10.57,30.83 10.72,30.84 V 31 H 8.51 V 30.84 C 8.67,30.84 8.8,30.82 8.89,30.8 C 9.23,30.7 9.22,30.37 9.21,30.07 V 28.24 H 6.8 V 30.06 C 6.8,30.21 6.8,30.34 6.82,30.43 C 6.84,30.53 6.88,30.6 6.93,30.66 C 6.99,30.71 7.06,30.76 7.16,30.78 C 7.26,30.81 7.38,30.83 7.54,30.84 V 31 H 5.26 V 30.84 C 5.43,30.84 5.56,30.82 5.66,30.8 A 0.4,0.4 0 0,0 5.87,30.66 A 0.53,0.53 0 0,0 5.97,30.4 C 5.99,30.28 6,30.13 6,29.95 V 25.99 C 6,25.83 5.99,25.71 5.97,25.62 A 0.42,0.42 0 0,0 5.87,25.38 A 0.38,0.38 0 0,0 5.65,25.27 A 2.5,2.5 0 0,0 5.26,25.21 V 25 H 7.55 V 25.2 A 2.5,2.5 0 0,0 7.16,25.27 A 0.42,0.42 0 0,0 6.94,25.38 A 0.5,0.5 0 0,0 6.84,25.62 C 6.82,25.71 6.81,25.83 6.81,25.99 V 27.86 H 9.21 Z M 12.7,26.99 V 30.11 L 12.72,30.5 C 12.74,30.59 12.77,30.66 12.81,30.72 C 12.85,30.77 12.91,30.81 12.99,30.82 C 13.07,30.85 13.19,30.86 13.33,30.88 V 31 H 11.35 V 30.88 C 11.5,30.87 11.61,30.85 11.7,30.83 A 0.4,0.4 0 0,0 11.9,30.72 A 0.44,0.44 0 0,0 11.99,30.5 L 12,30.16 V 28.07 C 12,27.87 11.99,27.74 11.94,27.67 C 11.9,27.58 11.84,27.54 11.74,27.54 A 1.48,1.48 0 0,0 11.44,27.57 H 11.39 V 27.45 L 12.67,26.96 L 12.71,26.99 Z M 12.3,25 C 12.4,25 12.5,25.05 12.6,25.14 C 12.67,25.23 12.71,25.34 12.71,25.45 C 12.71,25.58 12.67,25.69 12.59,25.78 A 0.4,0.4 0 0,1 12.29,25.9 A 0.4,0.4 0 0,1 11.99,25.78 A 0.47,0.47 0 0,1 11.87,25.45 C 11.87,25.33 11.91,25.23 11.99,25.14 C 12.08,25.04 12.18,25 12.29,25 Z M 16.74,27.98 A 2.39,2.39 0 0,0 16.63,27.58 H 17.32 V 27.26 H 16.68 A 0.85,0.85 0 0,1 16.45,27.23 L 16.22,27.15 L 16.03,27.07 A 1.83,1.83 0 0,0 15.36,26.94 C 15.17,26.94 14.99,26.98 14.82,27.05 A 1.4,1.4 0 0,0 14.09,27.83 C 14.02,28.01 13.99,28.19 13.99,28.39 C 13.99,28.67 14.04,28.9 14.16,29.09 C 14.28,29.27 14.48,29.43 14.76,29.57 L 14.4,29.93 L 14.1,30.26 A 0.47,0.47 0 0,0 14.02,30.53 C 14.02,30.63 14.05,30.71 14.1,30.77 C 14.17,30.83 14.28,30.9 14.45,30.99 L 14.64,31.03 L 14.9,31.07 A 6.7,6.7 0 0,0 15.98,31.14 C 16.35,31.14 16.62,31.17 16.78,31.24 C 16.93,31.3 17.01,31.41 17.01,31.57 C 17.01,31.69 16.97,31.81 16.89,31.91 C 16.82,32.01 16.71,32.11 16.57,32.18 C 16.43,32.26 16.27,32.32 16.07,32.36 L 15.83,32.4 L 16.11,32.72 A 2.52,2.52 0 0,0 16.63,32.47 C 17.06,32.24 17.46,32.02 17.46,31.41 C 17.46,30.7 16.76,30.52 16.24,30.5 L 15.17,30.44 C 14.94,30.44 14.77,30.41 14.67,30.37 C 14.57,30.33 14.51,30.27 14.51,30.21 C 14.51,30.16 14.53,30.11 14.56,30.06 A 0.94,0.94 0 0,1 14.68,29.9 A 0.88,0.88 0 0,1 15.01,29.66 L 15.17,29.68 A 4.26,4.26 0 0,0 15.49,29.71 C 15.67,29.71 15.83,29.67 15.99,29.61 A 1.43,1.43 0 0,0 16.67,28.86 C 16.74,28.7 16.77,28.53 16.77,28.34 C 16.77,28.21 16.77,28.09 16.74,27.98 Z M 14.73,28.65 A 2.77,2.77 0 0,1 14.67,28.06 V 28.03 C 14.67,27.78 14.72,27.57 14.83,27.42 A 0.54,0.54 0 0,1 15.29,27.19 C 15.42,27.19 15.53,27.23 15.64,27.31 C 15.74,27.39 15.84,27.49 15.9,27.63 A 2.37,2.37 0 0,1 16.14,28.68 C 16.14,28.93 16.09,29.13 15.97,29.28 A 0.53,0.53 0 0,1 15.53,29.49 A 0.66,0.66 0 0,1 15.17,29.39 A 1,1 0 0,1 14.9,29.1 A 1.8,1.8 0 0,1 14.73,28.65 Z M 18.7,30.11 C 18.7,30.26 18.7,30.38 18.72,30.48 C 18.73,30.58 18.76,30.65 18.8,30.7 C 18.84,30.75 18.9,30.8 18.96,30.82 L 19.26,30.88 V 31 H 17.46 V 30.88 C 17.59,30.86 17.68,30.84 17.75,30.81 A 0.3,0.3 0 0,0 17.91,30.7 A 0.47,0.47 0 0,0 17.98,30.48 L 18,30.11 V 25.97 C 18,25.87 18,25.8 17.98,25.75 A 0.23,0.23 0 0,0 17.92,25.61 A 0.2,0.2 0 0,0 17.79,25.54 A 1.16,1.16 0 0,0 17.47,25.54 V 25.38 L 17.7,25.32 A 6.15,6.15 0 0,1 18.24,25.15 A 9.02,9.02 0 0,1 18.65,25 L 18.7,25.03 V 27.71 C 18.89,27.44 19.08,27.24 19.26,27.13 C 19.46,27.02 19.74,26.96 19.98,26.96 C 20.33,26.96 20.59,27.08 20.76,27.32 C 20.92,27.55 21,27.9 21,28.36 V 30.11 C 21,30.26 21,30.38 21.02,30.47 C 21.02,30.56 21.05,30.63 21.08,30.69 C 21.12,30.74 21.18,30.78 21.24,30.81 C 21.31,30.84 21.4,30.86 21.51,30.88 V 31 H 19.75 V 30.88 L 20.05,30.82 A 0.35,0.35 0 0,0 20.21,30.7 A 0.43,0.43 0 0,0 20.29,30.48 L 20.31,30.11 V 28.38 C 20.31,27.76 20.11,27.45 19.71,27.45 C 19.53,27.45 19.31,27.49 19.16,27.57 C 19.03,27.65 18.87,27.79 18.7,27.99 V 30.11 Z M 28.74,26.68 L 28.86,27.05 H 29.05 L 28.97,25.07 H 28.8 A 0.4,0.4 0 0,1 28.66,25.28 A 0.3,0.3 0 0,1 28.46,25.36 A 0.98,0.98 0 0,1 28.13,25.28 C 27.73,25.14 27.32,25.07 26.9,25.07 A 2.82,2.82 0 0,0 25.1,25.76 C 24.78,26.03 24.54,26.38 24.37,26.79 C 24.21,27.19 24.13,27.65 24.13,28.16 A 2.76,2.76 0 0,0 26.89,31 A 2.7,2.7 0 0,0 29.15,29.89 L 29.01,29.73 A 2.6,2.6 0 0,1 27.15,30.62 C 25.73,30.62 25.09,29.32 25.09,28.03 C 25.09,27.63 25.14,27.28 25.23,26.95 C 25.33,26.63 25.45,26.35 25.63,26.13 C 25.8,25.9 26.01,25.73 26.25,25.6 A 1.82,1.82 0 0,1 27.75,25.55 C 27.95,25.65 28.15,25.77 28.31,25.95 A 2.12,2.12 0 0,1 28.62,26.39 C 28.66,26.48 28.71,26.57 28.74,26.68 Z M 31.51,26.96 C 31.77,26.96 32.01,27.01 32.24,27.11 A 1.86,1.86 0 0,1 33.2,28.15 C 33.3,28.39 33.34,28.65 33.34,28.95 C 33.34,29.99 32.62,31 31.49,31 C 30.43,31 29.68,30.06 29.68,29.03 C 29.68,28.73 29.72,28.45 29.81,28.19 C 29.9,27.94 30.02,27.72 30.18,27.54 A 1.8,1.8 0 0,1 31.5,26.96 Z M 31.38,27.21 C 31.09,27.21 30.86,27.33 30.68,27.59 C 30.51,27.84 30.42,28.17 30.42,28.59 C 30.42,29.34 30.62,30.76 31.61,30.76 C 32.37,30.76 32.58,29.86 32.58,29.25 C 32.58,28.87 32.53,28.53 32.43,28.2 C 32.33,27.88 32.19,27.63 32.02,27.47 A 0.88,0.88 0 0,0 31.72,27.27 A 0.9,0.9 0 0,0 31.38,27.21 Z M 36.95,30.78 L 37.52,30.61 V 30.48 H 37.48 C 37.28,30.48 37.16,30.45 37.1,30.38 C 37.04,30.32 37,30.18 37,29.98 V 27 H 35.7 V 27.19 C 35.82,27.19 35.93,27.2 36.01,27.22 C 36.09,27.24 36.16,27.27 36.2,27.31 C 36.25,27.35 36.28,27.41 36.3,27.48 L 36.32,27.74 V 29.74 C 36.32,29.85 36.32,29.94 36.29,30.02 A 0.35,0.35 0 0,1 36.17,30.18 C 36.06,30.28 35.94,30.37 35.81,30.42 A 0.79,0.79 0 0,1 35.47,30.5 A 0.55,0.55 0 0,1 35.05,30.3 A 0.7,0.7 0 0,1 34.88,29.83 V 27 H 33.68 V 27.19 C 33.88,27.2 34.01,27.25 34.08,27.32 C 34.15,27.4 34.18,27.54 34.18,27.75 V 29.86 C 34.18,30.21 34.28,30.49 34.46,30.69 C 34.64,30.89 34.89,31 35.19,31 C 35.35,31 35.45,30.97 35.6,30.9 C 35.75,30.84 35.88,30.75 36,30.62 L 36.36,30.25 V 30.98 L 36.38,30.99 C 36.59,30.91 36.78,30.83 36.96,30.78 Z M 37.79,27.36 A 14,14 0 0,0 38.93,26.96 L 39,26.98 V 27.68 A 8.03,8.03 0 0,1 39.66,27.12 A 0.98,0.98 0 0,1 40.2,26.97 C 40.5,26.97 40.74,27.07 40.92,27.31 C 41.09,27.54 41.18,27.86 41.18,28.28 V 30.3 C 41.18,30.5 41.21,30.65 41.28,30.73 C 41.35,30.8 41.48,30.85 41.68,30.88 V 31 H 39.96 V 30.88 L 40.21,30.83 A 0.33,0.33 0 0,0 40.37,30.7 A 0.48,0.48 0 0,0 40.46,30.48 L 40.48,30.13 V 28.3 C 40.48,27.74 40.28,27.46 39.88,27.46 A 0.83,0.83 0 0,0 39.28,27.71 L 39.18,27.79 L 39,27.96 V 30.43 C 39,30.59 39.05,30.7 39.13,30.77 C 39.2,30.83 39.35,30.87 39.56,30.89 V 31 H 37.8 V 30.88 C 37.91,30.87 38,30.85 38.06,30.83 A 0.35,0.35 0 0,0 38.22,30.72 A 0.46,0.46 0 0,0 38.3,30.52 L 38.32,30.22 V 28.03 A 1,1 0 0,0 38.25,27.59 C 38.21,27.51 38.13,27.47 38.01,27.47 A 0.6,0.6 0 0,0 37.79,27.51 V 27.36 Z M 43,27.32 H 44 V 27 H 43 V 26.03 L 42.99,25.93 L 42.95,25.92 A 0.76,0.76 0 0,1 42.86,26.05 A 0.96,0.96 0 0,0 42.78,26.16 C 42.46,26.66 42.19,26.96 41.98,27.1 C 41.88,27.16 41.84,27.22 41.84,27.27 C 41.84,27.3 41.84,27.32 41.87,27.32 H 42.3 V 29.97 C 42.3,30.72 42.55,31.09 43.04,31.09 C 43.44,31.09 43.78,30.87 44.04,30.43 L 43.94,30.33 C 43.84,30.44 43.76,30.53 43.69,30.57 A 0.5,0.5 0 0,1 43.43,30.63 C 43.28,30.63 43.17,30.58 43.1,30.46 C 43.04,30.33 43,30.13 43,29.85 V 27.32 Z M 44.26,27.45 A 14.28,14.28 0 0,1 44.89,27.21 A 10.53,10.53 0 0,1 45.49,26.96 L 45.54,26.98 V 27.78 A 4.57,4.57 0 0,1 46.05,27.14 A 0.72,0.72 0 0,1 46.28,27 A 0.78,0.78 0 0,1 46.53,26.96 C 46.67,26.96 46.78,27.01 46.86,27.09 C 46.94,27.18 46.98,27.29 46.98,27.42 S 46.96,27.65 46.9,27.72 A 0.3,0.3 0 0,1 46.66,27.82 A 0.44,0.44 0 0,1 46.5,27.79 A 0.74,0.74 0 0,1 46.33,27.65 A 0.58,0.58 0 0,0 46.21,27.55 A 0.22,0.22 0 0,0 46.11,27.52 A 0.32,0.32 0 0,0 45.92,27.6 A 1.14,1.14 0 0,0 45.59,28 A 0.54,0.54 0 0,0 45.54,28.24 V 30.22 C 45.54,30.34 45.54,30.44 45.57,30.52 A 0.4,0.4 0 0,0 45.67,30.72 C 45.73,30.77 45.8,30.81 45.89,30.83 C 45.99,30.86 46.1,30.88 46.24,30.88 V 31 H 44.24 V 30.88 C 44.37,30.85 44.48,30.83 44.55,30.8 A 0.48,0.48 0 0,0 44.74,30.7 C 44.78,30.65 44.81,30.6 44.82,30.53 L 44.84,30.26 V 28.07 A 0.9,0.9 0 0,0 44.77,27.67 C 44.73,27.58 44.66,27.54 44.55,27.54 A 1.26,1.26 0 0,0 44.26,27.58 V 27.45 Z M 50.68,27.29 A 0.41,0.41 0 0,1 50.92,27.19 V 27 H 49.8 V 27.19 C 49.92,27.19 50.02,27.21 50.1,27.25 C 50.17,27.28 50.2,27.34 50.2,27.41 C 50.2,27.45 50.2,27.5 50.16,27.55 L 49.36,29.97 L 48.41,27.76 A 0.82,0.82 0 0,1 48.34,27.59 A 1,1 0 0,1 48.32,27.42 C 48.32,27.34 48.36,27.29 48.42,27.26 C 48.5,27.22 48.62,27.2 48.8,27.19 V 27 H 47.1 V 27.17 C 47.32,27.21 47.46,27.31 47.51,27.46 L 48.46,29.62 L 48.49,29.69 A 0.83,0.83 0 0,0 48.61,29.95 A 5.45,5.45 0 0,1 48.98,30.85 C 48.98,31.13 48.56,31.84 48.22,31.84 C 48.11,31.84 48.01,31.8 47.9,31.77 C 47.8,31.74 47.7,31.7 47.58,31.7 C 47.48,31.7 47.39,31.73 47.33,31.8 A 0.39,0.39 0 0,0 47.23,32.08 C 47.23,32.23 47.28,32.35 47.39,32.44 C 47.51,32.54 47.66,32.59 47.84,32.59 C 48.54,32.59 49.03,31.74 49.24,31.17 L 50.51,27.57 C 50.56,27.44 50.62,27.34 50.68,27.29 Z"/>
<path d="M 24.99,32.985 H 29.14 A 1.04,1.04 0 0,1 29.64,34.94 A 1.07,1.07 0 0,1 29.27,37 H 25 V 33 Z M 26.27,34 H 28.63 A 0.3,0.3 0 0,1 28.63,34.59 H 26.27 V 34 Z M 26.3,35.37 H 28.72 A 0.32,0.32 0 1,1 28.72,36 H 26.3 V 35.37 Z" fill-rule="evenodd"/>
<path d="M 30.319999999999997,36.985 L 32.59,33 H 34.59 L 36.78,37 H 35.24 L 34.9,36.38 H 32.25 L 31.92,37 H 30.33 Z M 32.77,35.43 H 34.37 L 33.57,33.98 L 32.77,35.43 Z M 37,33 V 37 H 38.34 V 34.15 L 40.49,37 H 42.62 V 33 H 41.34 V 35.91 L 39.21,33 H 37 Z M 44.4,33 H 43 V 37 H 44.4 V 35.57 H 45.06 L 46.81,37 H 49 L 46.38,35.02 L 48.87,33 H 46.8 L 45.05,34.53 H 44.4 V 33 Z"/>
</svg>
