<?xml version="1.0" encoding="UTF-8"?>
<!-- generated by Finnhub -->
<svg viewBox="0 0 55.5 55.5" xmlns="http://www.w3.org/2000/svg">
<path d="M 0,0 H 55.5 V 55.5 H 0 Z" fill="rgb(239, 242, 248)"/>
<path d="M 37.24,17.185 C 37.47,17.3 37.66,17.49 37.79,17.7 C 37.92,17.92 37.99,18.18 38,18.43 V 29.56 A 1.38,1.38 0 0,1 37.25,30.8 A 1.53,1.53 0 0,1 35.76,30.8 L 30.75,28.03 A 1.4,1.4 0 0,1 30.21,27.51 C 30.08,27.29 30.01,27.04 30,26.78 V 21.22 A 1.38,1.38 0 0,1 30.75,19.98 L 35.76,17.19 A 1.54,1.54 0 0,1 37.26,17.19 Z M 32.24,44.8 L 37.25,42.02 C 37.47,41.91 37.66,41.72 37.79,41.51 C 37.92,41.29 37.99,41.04 38,40.78 V 35.22 A 1.39,1.39 0 0,0 37.25,33.97 L 32.25,31.19 A 1.55,1.55 0 0,0 30.75,31.19 A 1.46,1.46 0 0,0 30,32.43 V 43.56 A 1.39,1.39 0 0,0 30.75,44.81 A 1.54,1.54 0 0,0 32.25,44.81" fill="rgb(186, 187, 190)"/>
<path d="M 25.24,11.184999999999999 C 25.48,11.3 25.66,11.49 25.79,11.7 C 25.93,11.92 25.99,12.18 26,12.43 V 23.56 A 1.38,1.38 0 0,1 25.25,24.8 A 1.53,1.53 0 0,1 23.76,24.8 L 18.75,22.03 A 1.4,1.4 0 0,1 18.21,21.51 C 18.08,21.29 18.01,21.04 18.01,20.78 V 15.22 A 1.38,1.38 0 0,1 18.76,13.98 L 23.76,11.19 A 1.54,1.54 0 0,1 25.26,11.19 Z M 20.24,38.8 L 25.25,36.02 C 25.47,35.91 25.66,35.72 25.79,35.51 C 25.92,35.29 25.99,35.04 26,34.78 V 29.22 A 1.39,1.39 0 0,0 25.25,27.97 L 20.25,25.19 A 1.55,1.55 0 0,0 18.75,25.19 A 1.46,1.46 0 0,0 18,26.43 V 37.56 A 1.39,1.39 0 0,0 18.75,38.81 A 1.54,1.54 0 0,0 20.25,38.81" fill="rgb(170, 122, 22)"/>
</svg>
