<?xml version="1.0" encoding="UTF-8"?>
<!-- generated by Finnhub -->
<svg viewBox="0 0 55.5 55.5" xmlns="http://www.w3.org/2000/svg">
<path d="M 0,0 H 55.5 V 55.5 H 0 Z" fill="rgb(11, 66, 118)"/>
<path d="M 24.99,10.985 H 16 V 43 H 41.996 V 28.305 C 41.996,25.391 40.846,23.124 40.271,22.355 C 39.635,21.201 37.289,18.894 33.002,18.894 S 25.719,20.846 25,22 V 11 Z" fill="rgb(254, 254, 253)"/>
<path d="M 28.802,27.192 C 35.142,27.232 36.601,30.362 36.538,32 H 31 C 31,30.3 28.812,30.328 27.891,30.804 C 26.448,31.804 27.403,32.536 28.061,32.776 C 28.248,32.813 29.345,33.037 32.231,33.637 C 35.631,34.344 37.067,35.481 37,38.723 C 36.955,40.9 35.099,42.685 34.225,43 H 24.26 C 21.735,42.533 21.04,39.346 20.999,38 H 26.999 C 26.999,39.226 28.142,40.214 29.289,40.172 C 30.208,40.14 30.753,39.777 31.054,39.276 C 31.47,38.764 31.197,37.612 26.786,37.096 C 22.374,36.58 21.292,33.585 21.303,32.152 C 21.168,30.493 22.48,27.182 28.811,27.207 Z" fill="rgb(11, 66, 118)"/>
</svg>
