<?xml version="1.0" encoding="UTF-8"?>
<!-- generated by Finnhub -->
<svg viewBox="0 0 55.5 55.5" xmlns="http://www.w3.org/2000/svg">
<path d="M 0,0 H 55.5 V 55.5 H 0 Z" fill="rgb(239, 242, 248)"/>
<path d="M 28.9,19.955 C 28.55,20.8 28.12,21.76 28.01,23 A 9.92,9.92 0 0,0 27.09,20.05 C 26.76,19.3 26.48,18.66 26.5,18.02 C 26.5,17.09 26.86,16.24 28,15 C 29.14,16.24 29.5,17.04 29.5,18.02 C 29.5,18.64 29.23,19.26 28.91,19.97 Z M 25.38,23.63 C 24.75,24.22 23.5,23.83 23.5,22.46 C 23.5,21.68 24.32,21 25.09,21 C 26.63,21 27.35,22.66 27.35,23.44 C 27.4,24.02 27.11,25 26.1,25 C 26.58,24.76 26.72,24.22 26.68,23.78 C 26.63,23.29 26.34,22.66 25.67,22.66 C 25.28,22.66 25.04,22.9 25.04,23.15 C 25.04,23.44 25.18,23.63 25.38,23.63 Z M 30.62,23.63 C 31.25,24.22 32.5,23.83 32.5,22.46 C 32.5,21.68 31.68,21 30.91,21 C 29.37,21 28.65,22.66 28.65,23.44 C 28.6,24.02 28.89,25 29.9,25 C 29.42,24.76 29.28,24.22 29.32,23.78 C 29.37,23.29 29.66,22.66 30.33,22.66 C 30.72,22.66 30.96,22.9 30.96,23.15 C 30.96,23.44 30.86,23.63 30.62,23.63 Z" fill="rgb(237, 45, 34)"/>
<path d="M 17.99,26.985 H 17 V 35 H 18 V 27 Z M 15,35 H 14 V 31 H 9 V 35 H 8 V 27 H 9 V 30 H 14 V 27 H 15 V 35 Z M 44.7,30.83 L 48,35 H 46.65 L 44,31.7 L 41.35,35 H 40 L 43.35,30.83 L 40.23,27 H 41.58 L 44,30.02 L 46.42,27 H 47.77 L 44.7,30.83 Z M 35.98,27 A 3.88,3.88 0 0,1 40,31 C 40,33.1 38.48,35 35.98,35 A 3.87,3.87 0 0,1 32,31 A 3.84,3.84 0 0,1 35.98,27 Z M 36,34 C 37.65,34 39,32.72 39,31 S 37.65,28 36,28 S 33,29.28 33,31 S 34.35,34 36,34 Z"/>
<path d="M 31.389999999999997,32.935 A 3.16,3.16 0 0,1 29,34 C 27.3,34 26,32.72 26,31 S 27.3,28 29,28 C 29.92,28 30.81,28.4 31.36,29 L 31.96,28.02 A 4.08,4.08 0 0,0 29.12,27 A 3.95,3.95 0 0,0 25,31 C 25,33.1 26.6,35 29.07,35 C 30.31,35 31.27,34.58 32,33.93 L 31.4,32.95 Z M 23.4,28.64 A 2.9,2.9 0 0,0 21.55,28 C 20.77,28 20,28.26 20,28.92 C 20,30.42 24,30.42 24,32.89 C 24,34.53 22.4,35.04 21.14,34.99 A 4.26,4.26 0 0,1 19,34.34 V 33.22 C 19.68,33.64 20.28,33.89 21,33.99 C 21.78,34.03 23,33.83 23,32.89 C 23,31.26 19,31.21 19,29.1 C 19,27.84 20.1,27 21.4,27 C 22.27,27 22.86,27.19 23.4,27.51 V 28.64 Z"/>
</svg>
