<?xml version="1.0" encoding="UTF-8"?>
<!-- generated by Finnhub -->
<svg viewBox="0 0 55.5 55.5" xmlns="http://www.w3.org/2000/svg">
<path d="M 0,0 H 55.5 V 55.5 H 0 Z" fill="rgb(239, 242, 248)"/>
<path d="M 5.99,28.387999999999998 C 6,26.5 4.489,24.674 4,24 H 5 C 5.7,24 7,27.06 7,28 H 10 C 10,26.594 11.275,24 12,24 H 13 C 12.519,24.47 10.977,26.561 11,28.403 C 11.029,30.76 12.543,32.466 13,33 H 12 C 11.12,33 10.069,29.767 10,29 H 7 C 6.89,30.62 5.273,33 5,33 H 4.052 C 4.825,31.726 6,30.645 6,28.403 Z"/>
<path d="M 9.99,23.989 H 7 C 7.605,24.651 8.165,26.184 8.37,26.868 C 8.388,26.931 8.416,27.004 8.517,27.004 C 8.621,27.004 8.657,26.908 8.663,26.868 C 8.937,25.517 9.668,24.396 10,24.004 Z M 10,33 H 7 C 7.605,32.353 8.165,30.821 8.37,30.136 C 8.388,30.073 8.416,30 8.517,30 C 8.621,30 8.657,30.096 8.663,30.136 C 8.937,31.487 9.668,32.608 10,33 Z" fill="rgb(176, 97, 72)"/>
<path d="M 18.145,26.479 C 19.065,27.268 19.108,29.215 18.932,30 H 14.002 C 14.144,31.633 15.752,31.948 16.639,32 C 17.349,32.042 18.357,31.895 18.772,31.812 V 32.752 C 18.742,32.773 18.308,32.902 16.883,32.986 C 15.44,33.071 14.433,32.591 14.108,32.309 C 13.718,32.032 12.951,31.021 13.002,29.2 C 13.054,27.379 14,26.56 14.467,26.377 C 15.205,25.982 17.246,25.721 18.155,26.494 Z M 45.143,26.494 C 46.051,27.268 46.093,29.215 45.918,30 H 41 C 41.142,31.633 42.747,31.948 43.631,32 C 44.339,32.042 45.345,31.895 45.76,31.812 V 32.752 C 45.73,32.773 45.296,32.902 43.875,32.986 C 42.435,33.071 41.431,32.591 41.106,32.309 C 40.717,32.032 39.952,31.021 40.004,29.2 C 40.054,27.379 40.999,26.56 41.464,26.377 C 42.2,25.982 44.237,25.721 45.144,26.494 Z M 20,33 V 25.996 H 20.864 L 21,26.8 C 21.602,26.13 22.603,25.985 23,25.996 V 27 C 22.064,26.982 21.193,27.549 21,27.828 V 33 H 20 Z"/>
<path d="M 16.145999999999997,26.991 C 14.407,26.946 13.991,28.313 14.001,29.004 H 17.971 C 18.094,28.364 17.905,27.067 16.156,27.006 Z M 43.155,27.006 C 41.406,26.946 40.99,28.313 41,29.004 H 44.97 C 45.093,28.364 44.904,27.067 43.155,27.006 Z" fill="rgb(239, 242, 248)"/>
<path d="M 27.282999999999998,25.983 C 27.903,25.974 28.689,26.148 29.005,26.238 V 27.195 C 28.309,26.979 27.358,26.977 26.969,27 C 26.429,27 25,27.58 25,29.432 C 25,31.762 26.87,31.985 27.483,32.002 C 27.973,32.016 28.702,31.869 29.005,31.793 V 32.835 C 28.303,33.08 27.085,32.972 26.515,32.972 C 25.612,32.899 23.969,32.168 24,29.432 C 24.04,26.012 26.529,26.028 27.293,25.998 Z M 30,30.714 V 25.996 H 31 V 30.714 C 31,31.311 31.69,32.008 32.859,32.002 C 34.028,31.996 34.766,31.235 35,30.968 V 25.996 H 36 V 33 H 34.996 L 34.796,32.176 C 33.992,32.796 32.871,32.977 32.41,32.99 C 30.432,33.102 29.98,31.519 30,30.714 Z M 38,33 V 24 H 39 V 33 H 38 Z M 49.641,25.996 C 50.315,26.006 51.311,26.242 51.725,26.359 V 27.476 S 51.539,27.269 50.505,27.086 C 49.472,26.902 48.746,27.045 48.568,27.148 C 48.4,27.201 47.996,27.432 48.001,28.055 C 48.005,28.679 48.483,28.896 48.568,28.93 C 48.713,28.987 49.124,29.005 49.578,29 C 50.433,28.99 50.97,29.167 51.131,29.263 C 51.411,29.37 51.975,29.72 51.999,30.913 C 52.029,32.407 50.959,32.877 49.699,32.981 C 48.689,33.063 47.683,32.793 47.306,32.648 V 31.61 C 48.259,32.096 49.842,32.042 50.391,31.954 C 50.593,31.916 51.016,31.677 51,31.001 C 50.984,30.326 50.6,30.118 50.39,30.103 C 49.486,30.057 48.559,30.023 48.332,30.011 C 47.9,29.977 47.028,29.589 47.001,28.055 C 46.966,26.139 48.799,25.983 49.641,25.996 Z"/>
</svg>
