<?xml version="1.0" encoding="UTF-8"?>
<!-- generated by Finnhub -->
<svg fill="none" viewBox="0 0 55.5 55.5" xmlns="http://www.w3.org/2000/svg">
<path d="M 0,0 H 55.5 V 55.5 H 0 Z" fill="url(#a)"/>
<path d="M 7.99,25.979 H 9.5 V 23 H 12.5 V 26 H 14 V 19 H 12.5 V 22 H 9.5 V 19 H 8 V 25.994 Z M 20.726,26 H 22.226 V 19 H 20.726 V 26 Z M 16.907,21.03 A 2.584,2.584 0 0,0 14.765,23.09 C 14.617,23.859 14.899,24.744 15.457,25.283 C 16.249,26.033 17.679,26.226 18.767,25.713 C 19.19,25.513 19.668,24.985 19.668,24.985 L 18.478,24.302 C 18.008,24.999 16.677,24.847 16.334,24.302 A 0.649,0.649 0 0,1 16.25,24 H 20 V 23.577 C 20,22.447 19.384,21.53 18.384,21.171 C 17.948,21.017 17.33,20.959 16.907,21.031 Z M 18.008,22.357 C 18.29,22.537 18.393,22.75 18.535,23.005 H 16.305 C 16.312,22.908 16.548,22.485 16.776,22.357 C 17.085,22.177 17.661,22.135 18.008,22.357 Z M 24.905,21.03 A 2.584,2.584 0 0,0 22.764,23.09 C 22.616,23.859 22.898,24.744 23.455,25.283 C 24.248,26.033 25.678,26.226 26.765,25.713 C 27.188,25.513 27.666,24.985 27.666,24.985 L 26.476,24.302 C 26.006,24.999 24.676,24.847 24.333,24.302 A 0.649,0.649 0 0,1 24.248,24 H 27.998 V 23.577 C 27.998,22.447 27.383,21.53 26.383,21.171 C 25.946,21.017 25.328,20.959 24.906,21.031 Z M 26.006,22.357 C 26.289,22.537 26.392,22.75 26.533,23.005 H 24.303 C 24.31,22.908 24.546,22.485 24.775,22.357 C 25.083,22.177 25.66,22.135 26.007,22.357 Z M 31.5,21 C 30.907,21 30.458,21.209 30,21.545 V 21 H 28.444 V 26 H 30 V 24.393 C 30.04,22.663 30.137,22.571 30.447,22.393 C 30.756,22.269 31.074,22.281 31.287,22.501 C 31.499,22.721 31.499,23.588 31.499,24.347 V 26 H 33 V 22 C 33,21.323 32.095,21 31.5,21 Z M 21.535,27.133 C 20.871,27.387 20.567,27.89 20.5,28.684 V 29 H 20 V 30 H 20.5 V 34 H 21.999 L 22,30 H 23 V 29 H 22.02 L 22,28.858 C 22,28.402 22.233,28.259 22.824,28.298 L 23,28.318 V 27.699 C 23,27.198 23.02,27.033 22.932,27 C 22.697,26.916 21.858,27.01 21.535,27.133 Z M 26,28 H 27.802 V 34 H 29.225 V 28 H 30.995 V 27 H 26 V 28 Z M 14,31.502 C 14,33.122 15.441,34.049 16.792,34.019 C 18.142,33.99 19.386,33.135 19.386,31.502 S 18.229,29.041 16.792,28.999 C 15.354,28.957 14.022,29.967 14,31.502 Z M 17.357,30.56 C 17.657,30.765 17.86,31.04 17.851,31.489 C 17.841,31.938 17.643,32.209 17.357,32.394 C 17.071,32.579 16.458,32.595 16.145,32.394 C 15.784,32.162 15.6,31.858 15.6,31.489 C 15.6,31.023 15.859,30.642 16.281,30.474 C 16.553,30.364 17.057,30.354 17.357,30.56 Z M 34.003,31.493 C 34.003,33.106 35.444,34.029 36.795,34 C 38.145,33.97 39.389,33.12 39.389,31.493 C 39.389,29.868 38.232,29.043 36.795,29.002 C 35.357,28.96 34.025,29.965 34.003,31.493 Z M 37.36,30.555 C 37.66,30.759 37.863,31.034 37.854,31.48 C 37.844,31.927 37.646,32.198 37.36,32.382 C 37.074,32.566 36.461,32.582 36.148,32.382 C 35.787,32.15 35.603,31.848 35.603,31.481 C 35.603,31.017 35.862,30.637 36.284,30.47 C 36.556,30.36 37.06,30.351 37.36,30.555 Z" fill="rgb(254, 254, 253)"/>
<path d="M 30.480999999999998,28.985 L 30.489,32 L 30.491,34 H 32.001 V 32.624 C 32.029,31.469 32.105,31.158 32.211,30.97 C 32.411,30.628 32.931,30.522 33.491,30.522 V 29.763 L 33.494,29 C 32.894,28.965 32.49,29.27 32,29.552 V 29 L 31.327,28.998 C 30.759,28.998 30.491,29 30.491,29 Z M 39.5,29 L 41.395,33.933 L 40.751,36 L 42.389,36.002 L 44.998,29 H 43.498 L 42.242,32 L 41,29 H 39.5 Z" fill="rgb(254, 254, 253)"/>
<path d="M 8.99,27.985 V 38 H 46.997 V 18 H 35" stroke="rgb(162, 164, 166)" stroke-width="2"/>
<defs>
<linearGradient id="a" x1="10.418" x2="68.147" y1="9.712" y2="76.017" gradientUnits="userSpaceOnUse">
<stop stop-color="rgb(25, 29, 31)" offset="0"/>
<stop stop-color="rgb(5, 5, 8)" offset="1"/>
</linearGradient>
</defs>
</svg>
