<?xml version="1.0" encoding="UTF-8"?>
<!-- generated by Finnhub -->
<svg viewBox="0 0 55.5 55.5" xmlns="http://www.w3.org/2000/svg">
<path d="M 0,0 H 55.5 V 55.5 H 0 Z" fill="rgb(239, 242, 248)"/>
<path d="M 11.790000000000001,29.485 A 1,1 0 0,1 12.67,29 H 16.71 A 1,1 0 0,1 17.59,30.48 L 15.42,34.48 A 1,1 0 0,1 14.54,35 H 10.36 A 1,1 0 0,1 9.5,33.5 L 11.8,29.5 Z M 9.33,23.24 A 0.5,0.5 0 0,1 9.76,23 H 12.66 A 0.5,0.5 0 0,1 13.09,23.75 L 11.33,26.75 A 0.5,0.5 0 0,1 10.9,27 H 7.9 A 0.5,0.5 0 0,1 7.47,26.24 L 9.33,23.24 Z" fill="rgb(87, 202, 227)"/>
<path d="M 40.99,19.645 C 38,19.52 36.57,22.2 36.23,23.56 A 12.63,12.63 0 0,0 43.06,27.83 C 44.55,28.13 47.26,27.63 46.98,25.67 C 46.64,23.21 44.75,19.84 41,19.67 Z" fill="url(#b)"/>
<path d="M 44.03,20.025 C 42.95,19.03 39.7,17 35.35,17 C 29.92,17 24.24,20.88 20.21,26.87 C 19.73,27.58 19.3,28.3 18.91,29 H 22.79 A 1,1 0 0,1 23.67,30.47 L 21.52,34.47 A 1,1 0 0,1 20.64,35 H 17.04 C 17.02,37.38 18.36,39 21.57,39 C 28.66,39 31.67,35.07 32.54,31.93 C 33.24,29.41 33.7,26.92 33.84,25.99 C 34.34,22.83 37.04,17.22 44.04,20.04 Z" fill="url(#a)"/>
<defs>
<linearGradient id="b" x1="37.45" x2="45.94" y1="21.83" y2="26.47" gradientUnits="userSpaceOnUse">
<stop stop-color="rgb(66, 35, 102)" offset="0"/>
<stop stop-color="rgb(100, 41, 129)" offset="1"/>
</linearGradient>
<linearGradient id="a" x1="38.18" x2="18.06" y1="29.34" y2="29.63" gradientUnits="userSpaceOnUse">
<stop stop-color="rgb(129, 53, 155)" offset=".1"/>
<stop stop-color="rgb(146, 77, 156)" offset="1"/>
</linearGradient>
</defs>
</svg>
