<?xml version="1.0" encoding="UTF-8"?>
<!-- generated by Finnhub -->
<svg viewBox="0 0 55.5 55.5" xmlns="http://www.w3.org/2000/svg">
<path d="M 0,0 H 55.5 V 55.5 H 0 Z" fill="rgb(233, 105, 42)"/>
<path d="M 14.99,21.965 V 26.003 H 13 V 22 V 21.852 C 13.006,21.22 13.013,20.477 12.197,20.477 C 11.267,20.477 11,21.127 11,22.291 V 26.003 H 9 V 17 H 11 V 19.76 C 11.535,19.232 11.977,19 12.729,19 C 14.59,19 15,20.465 15,21.98 Z M 18,21.797 H 20.584 C 20.526,20.944 20.098,20.464 19.35,20.464 S 18.13,20.913 18,21.797 Z M 22.621,23 H 17.956 C 17.956,23.712 18.46,24.5 19.4,24.5 S 20.716,24 20.716,24 H 22.529 C 22,25.484 20.617,26 19.316,26 C 17.211,26 16,24.55 16,22.5 C 16,20.832 17.148,19 19.4,19 C 21.824,19 22.653,20.895 22.621,23 Z M 26.967,20.552 C 25.973,20.552 25.437,21.259 25.437,22.7 C 25.437,23.67 25.887,24.514 26.967,24.514 C 28.108,24.514 28.502,23.518 28.502,22.544 C 28.502,21.581 28.059,20.552 26.967,20.552 Z M 30.5,22.545 C 30.5,24.5 29.47,26.003 27.431,26.003 C 26.593,26.003 25.951,25.631 25.5,24.943 V 28 H 23.5 V 19 H 25.444 V 20.152 C 25.911,19.438 26.601,19 27.475,19 C 29.4,19 30.5,20.59 30.5,22.545 Z M 38,26.003 V 19 H 40 V 26.003 H 38 Z M 40,17.5 C 40.027,18.796 37.974,18.77 38,17.5 C 38,16.252 40,16.229 40,17.5 Z M 14,34.586 C 14,33.192 13.505,32.5 12.526,32.5 C 11.34,32.5 11,33.593 11,34.586 C 11,35.578 11.454,36.536 12.576,36.536 C 13.65,36.536 14,35.496 14,34.586 Z M 16,34.586 C 15.942,36.273 14.96,38 13.047,38 C 12.161,38 11.507,37.744 11,37.035 V 38 H 9 V 29 H 11 V 31.983 C 11.479,31.313 12.194,31 13.025,31 C 15.012,31 16.062,32.774 16,34.586 Z M 18.5,31.001 V 35.191 C 18.5,35.924 18.637,36.543 19.49,36.543 C 20.55,36.543 21,35.71 21,34.793 V 31 H 23 V 38 H 21 V 36.928 C 20.502,37.627 19.792,38 18.904,38 C 17.144,38 16.5,36.731 16.5,35.19 V 31 H 18.5 Z M 28,31.001 V 32.819 C 27.295,32.739 26.579,32.726 26.205,33.434 C 26.068,33.696 26,34.099 26,34.643 V 38 H 24 V 31 H 26 V 32.281 C 26.532,31.405 26.94,30.944 28,31.001 Z M 40,34.437 C 40,33.493 39.64,32.537 38.518,32.551 C 37.4,32.551 37,33.476 37,34.437 C 37,35.4 37.372,36.505 38.505,36.505 C 39.609,36.505 40,35.401 40,34.437 Z M 40,32.033 V 29 H 42 V 38 H 40 V 36.947 C 39.522,37.708 38.7,38 37.8,38 C 35.97,38 35,36.21 35,34.567 C 35,32.755 36.065,31 38.119,31 C 39.474,31 40,32.033 40,32.033 Z M 32.444,34.601 C 32.105,34.811 31.742,34.876 31.38,34.939 L 31.222,34.967 L 31.145,34.981 C 30.589,35.077 29.989,35.181 29.989,35.855 C 29.989,36.382 30.343,36.713 30.866,36.713 C 31.818,36.713 32.424,36.2 32.444,35.26 V 34.6 Z M 32.5,38 V 37.1 C 31.934,37.709 31.193,38 30.35,38 C 29.15,38 28.217,37.218 28.217,35.986 C 28.217,34.462 29.436,34.015 30.753,33.849 C 30.828,33.839 30.921,33.833 31.025,33.826 C 31.581,33.787 32.451,33.726 32.451,33.116 C 32.451,32.656 32.055,32.424 31.297,32.424 C 30.657,32.424 30.246,32.68 30.144,33.314 H 28.434 C 28.539,31.679 29.803,31 31.357,31 C 32.747,31 34.501,31.5 34.501,33.065 V 38 H 32.501 Z M 47,34.6 A 1.91,1.91 0 0,1 46.656,34.77 C 46.429,34.85 46.179,34.887 45.928,34.926 C 45.57,34.98 45.209,35.035 44.908,35.209 C 44.452,35.473 44.298,36.158 44.745,36.51 C 45.227,36.893 46.032,36.692 46.492,36.377 C 46.818,36.153 46.987,35.851 47,35.259 V 34.599 Z M 47,38 V 37.1 C 46.434,37.709 45.693,38 44.85,38 C 43.65,38 42.718,37.218 42.718,35.986 C 42.718,35.153 43.041,34.657 43.688,34.284 C 44.174,34.005 44.724,33.951 45.269,33.896 C 45.735,33.849 46.199,33.803 46.618,33.618 C 46.873,33.511 47,33.343 47,33.115 C 46.994,32.655 46.554,32.424 45.798,32.424 C 45.157,32.424 44.747,32.68 44.644,33.314 H 42.934 C 43.039,31.679 44.303,31 45.858,31 C 47.248,31 48.988,31.46 48.988,33.065 V 36.174 C 48.987,36.389 49,38 49,38 H 47 Z M 33.044,24.324 C 32.919,24.196 32.838,23.978 32.8,23.672 H 31 C 31,25.398 32.658,26 34.133,26 C 35.547,26 37.21,25.462 37.21,23.782 C 37.21,23.286 37.036,22.873 36.687,22.542 C 36.334,22.216 35.804,21.972 35.097,21.811 C 34.036,21.585 33.417,21.426 33.242,21.333 A 0.448,0.448 0 0,1 32.981,20.904 C 32.981,20.747 33.063,20.61 33.227,20.493 C 33.392,20.376 33.667,20.318 34.055,20.318 C 34.525,20.318 34.858,20.434 35.055,20.668 C 35.158,20.798 35.223,20.973 35.248,21.194 H 37.023 C 36.863,19.568 35.511,19 34.027,19 C 32.697,19 31.205,19.708 31.205,21.225 C 31.205,21.74 31.363,22.135 31.679,22.409 C 31.994,22.688 32.538,22.919 33.309,23.105 C 34.381,23.35 35,23.524 35.167,23.625 C 35.529,23.845 35.474,24.34 35.107,24.519 C 34.9,24.619 34.621,24.669 34.271,24.669 C 33.674,24.669 33.265,24.555 33.044,24.325 Z" clip-rule="evenodd" fill="rgb(254, 254, 253)" fill-rule="evenodd"/>
</svg>
