<?xml version="1.0" encoding="UTF-8"?>
<!-- generated by Finnhub -->
<svg viewBox="0 0 55.5 55.5" xmlns="http://www.w3.org/2000/svg">
<path d="M 0,0 H 55.5 V 55.5 H 0 Z" fill="rgb(170, 33, 39)"/>
<path d="M 40.96,34.455 C 36.61,39.74 29.43,43.15 23,42.99 C 16.67,42.84 10.98,38.65 11,32 C 11.02,26.54 14.1,21.67 18.43,18.23 L 18.2,18 L 18.5,18.16 C 22.57,14.96 27.71,13.02 32.49,13 C 38.85,12.98 44.84,16.96 44.99,23.69 C 45.08,27.63 43.55,31.27 41.09,34.32 L 41.89,35 L 40.96,34.47 Z M 39.92,33.87 C 35.77,38.8 29.09,42.02 23,42 C 17.12,41.97 11.62,38.2 11.52,32 C 11.44,26.68 14.45,21.91 18.72,18.53 L 19.29,19.14 C 13.43,23.72 11.32,30.64 14.62,35.18 C 18.15,40.03 26.54,40.3 33.36,35.78 C 34.89,34.78 36.2,33.61 37.29,32.36 L 39.92,33.86 Z M 40.18,33.55 A 16.25,16.25 0 0,0 44,23.69 C 44.13,17.15 38.8,13.31 32.5,13.35 C 27.91,13.39 22.9,15.28 18.92,18.37 L 19.75,18.8 A 20.32,20.32 0 0,1 23.1,16.8 V 16.78 V 16.79 C 29.35,13.83 36.22,14.56 39.32,18.82 A 8.75,8.75 0 0,1 40.64,25.96 L 40.86,26.01 L 40.82,26.17 L 40.78,26.33 L 40.56,26.28 A 14.4,14.4 0 0,1 37.89,31.62 L 40.19,33.55 Z M 22.93,17.24 A 20.21,20.21 0 0,0 20.09,18.97 L 23.34,20.67 A 8.92,8.92 0 0,1 23.74,20.39 L 22.94,17.24 Z M 23.83,20.69 L 23.81,20.7 L 23.64,20.82 L 23.89,20.95 L 23.82,20.69 Z M 24.3,21.16 L 24.13,20.5 L 24.63,20.2 L 25.23,21.56 L 25.15,21.6 L 24.3,21.16 Z M 24.05,20.2 L 23.26,17.15 L 24.51,19.94 C 24.35,20.02 24.2,20.1 24.05,20.2 Z M 25.24,19.9 L 26.14,21.21 C 26.44,21.12 26.74,21.06 27.03,21.03 L 28.13,19.26 C 27.2,19.26 26.21,19.48 25.23,19.91 Z M 26.33,21.5 L 27.09,22.61 L 27.23,22.68 L 29.15,21.74 A 3.55,3.55 0 0,0 26.33,21.5 Z M 23.29,17.06 L 25.07,19.66 A 7.6,7.6 0 0,1 28.28,19 L 30.58,15.28 A 17.6,17.6 0 0,0 23.28,17.06 Z M 37.2,31.04 A 14.2,14.2 0 0,0 39.81,26.12 L 39.6,26.07 C 37.25,25.87 34.1,25.62 32.01,25.47 C 31.88,25.74 31.71,26.01 31.54,26.28 L 37.2,31.04 Z M 36.47,31.9 L 29.85,28.11 A 9,9 0 0,1 29.38,28.46 L 31.75,35.66 A 20.37,20.37 0 0,0 36.47,31.9 Z M 31.03,25.85 L 31.31,25.42 L 30.45,25.36 L 31.03,25.85 Z M 29.7,24.73 A 2.8,2.8 0 0,0 30.04,23.16 L 28.82,23.99 L 29.7,24.73 Z M 28.13,23.41 L 29.81,22.45 A 1.87,1.87 0 0,0 29.44,21.97 L 27.53,22.9 L 28.13,23.41 Z M 27.43,21.01 H 27.93 L 28.83,19.31 A 5.48,5.48 0 0,0 28.5,19.27 L 27.44,21 Z M 28.65,19.02 L 30.92,15.35 L 28.97,19.06 L 28.65,19.02 Z M 29.33,19.39 L 28.63,21.14 A 3,3 0 0,1 29.52,21.55 L 31.41,20.62 A 3.64,3.64 0 0,0 29.33,19.39 Z M 31.72,20.47 A 4.22,4.22 0 0,0 29.42,19.15 L 31,15.28 C 33.6,15.33 35.95,16.09 37.63,17.56 L 31.73,20.47 Z M 22.15,22.17 L 22.82,22.87 L 21.64,22.82 C 21.8,22.6 21.97,22.38 22.15,22.17 Z M 25.34,25.53 L 24.91,25.08 L 22.88,26.18 A 1.87,1.87 0 0,0 23.18,26.65 L 25.43,25.59 L 25.33,25.53 Z M 22.76,26.85 C 22.66,26.7 22.56,26.55 22.5,26.38 L 20.86,27.28 C 20.91,27.41 20.98,27.54 21.06,27.66 L 22.76,26.86 Z M 21.25,27.95 L 22.98,27.12 C 23.19,27.34 23.45,27.52 23.73,27.66 L 23.53,27.58 L 22.83,29.08 A 3.46,3.46 0 0,1 21.25,27.94 Z M 20.7,27.83 A 3.7,3.7 0 0,1 20.53,27.45 L 13.7,31.15 L 20.7,27.83 Z M 13.6,31.56 L 20.87,28.12 L 20.96,28.25 C 21.37,28.84 21.94,29.28 22.61,29.57 L 19.18,37.02 L 18.89,37.49 A 8.23,8.23 0 0,1 14.91,34.62 A 7.4,7.4 0 0,1 13.61,31.56 Z M 13.55,31.22 C 13.19,28.57 14.12,25.58 16.1,22.88 L 20.74,23.82 A 5.01,5.01 0 0,0 20.36,26.91 L 13.56,31.21 Z M 23.45,26.9 L 25.63,25.86 L 26.43,27.26 C 25.28,27.58 24.16,27.46 23.45,26.9 Z M 23.6,23.7 L 24.3,24.43 L 22.72,25.43 C 22.7,24.85 22.9,24.23 23.29,23.65 L 23.59,23.69 Z M 22.6,24.19 C 22.38,24.69 22.3,25.19 22.33,25.67 L 20.67,26.71 A 4.5,4.5 0 0,1 21.05,23.88 L 22.59,24.18 Z M 22.74,23.88 L 22.9,23.58 L 21.31,23.35 A 6.6,6.6 0 0,0 21.2,23.57 L 22.74,23.87 Z M 16.33,22.59 A 18.3,18.3 0 0,1 19.53,19.39 L 21.94,21.95 A 7.8,7.8 0 0,0 21.29,22.81 L 16.34,22.59 H 16.33 Z M 16.49,22.62 L 20.89,23.51 L 20.99,23.31 L 16.49,22.62 Z M 27.51,26.77 L 27.57,26.81 L 27.53,26.83 L 27.51,26.77 Z M 28.18,27.16 L 28.68,27.45 L 28.85,27.95 C 28.64,28.1 28.42,28.24 28.19,28.35 L 27.77,27.39 L 28.18,27.16 Z M 29.13,27.7 L 29.18,27.73 L 29.14,27.75 L 29.13,27.7 Z M 31.93,20.74 L 37.89,17.8 L 32.15,21.1 A 3.7,3.7 0 0,0 31.93,20.75 V 20.74 Z M 24.2,27.84 C 24.95,28.07 25.84,28.05 26.74,27.8 L 27.3,28.79 A 7.11,7.11 0 0,1 24.23,29.35 L 24.95,28.17 L 24.65,28 L 23.85,29.32 A 4.97,4.97 0 0,1 23.45,29.25 L 24.2,27.85 Z M 31.67,24.72 L 30.41,24.52 C 30.46,24.36 30.5,24.2 30.52,24.04 L 31.82,24.33 L 31.67,24.72 Z M 31.93,24.02 L 30.56,23.71 C 30.58,23.41 30.55,23.13 30.47,22.87 L 32.01,21.83 C 32.18,22.51 32.15,23.25 31.93,24.01 Z M 31.82,21.29 L 30.19,22.23 A 2.4,2.4 0 0,0 29.81,21.78 L 31.61,20.9 C 31.69,21.03 31.76,21.16 31.82,21.3 Z M 23.16,29.77 L 19.94,35.77 L 23.52,29.87 A 5.08,5.08 0 0,1 23.16,29.77 Z M 23.88,29.93 L 19.22,37.6 C 22.7,38.7 27.22,38.14 31.36,35.88 L 27.66,29.41 A 7.2,7.2 0 0,1 23.88,29.93 Z M 28.48,29.02 L 31.43,35.84 H 31.45 L 29.09,28.66 C 28.89,28.79 28.69,28.91 28.48,29.02 Z M 32.29,24.82 L 38.2,25.76 L 32.4,24.46 L 32.3,24.82 Z M 32.49,24.14 L 39.89,25.79 C 40.53,23.27 40.21,20.79 38.77,18.81 A 7.51,7.51 0 0,0 37.91,17.83 L 32.37,21.58 C 32.67,22.37 32.7,23.25 32.49,24.14 Z" fill="rgb(252, 252, 251)" fill-rule="evenodd"/>
</svg>
