<?xml version="1.0" encoding="UTF-8"?>
<!-- generated by Finnhub -->
<svg viewBox="0 0 55.5 55.5" xmlns="http://www.w3.org/2000/svg">
<path d="M 0,0 H 55.5 V 55.5 H 0 Z" fill="rgb(239, 242, 248)"/>
<path d="M 27.99,32.345 A 9.96,9.96 0 0,1 28,23.64 V 32.36 Z M 28,32.8 V 38 H 26 V 29 H 15 V 38 H 13 V 18 H 15 V 27 H 26 V 18 H 28 V 23.2 A 10.16,10.16 0 0,0 28,32.8 Z" fill="rgb(3, 3, 100)"/>
<path d="M 42.99,33.285 A 8,8 0 1,1 43.19,22.94 L 44.72,21.64 A 10,10 0 1,0 45,34 V 34.01 V 28.01 H 37 V 30.01 H 43 V 33.31 Z" fill="rgb(125, 184, 7)"/>
</svg>
