<?xml version="1.0" encoding="UTF-8"?>
<!-- generated by Finnhub -->
<svg viewBox="0 0 55.5 55.5" xmlns="http://www.w3.org/2000/svg">
<path d="M 0,0 H 55.5 V 55.5 H 0 Z" fill="rgb(239, 242, 248)"/>
<path d="M 34.99,8.985 H 21 V 46 H 35 V 9 Z"/>
<path d="M 32.71,12.305 A 0.46,0.46 0 0,0 32.42,12.19 A 0.53,0.53 0 0,1 32.15,12.14 A 0.49,0.49 0 0,1 31.95,11.96 L 31.75,11.48 C 31.71,11.28 31.64,11.1 31.53,10.93 C 31.53,10.93 30.79,9.81 31.04,9.13 C 31.29,8.46 30.72,7.63 30.23,7.06 C 29.93,6.71 29.07,8.04 29.31,8.48 C 29.64,9.11 29.44,12.88 29.44,12.88 L 29.42,13.48 L 29.38,17.65 C 29.34,18.81 28.89,20.25 28.85,21.18 C 28.82,22.16 29.15,23.6 29.34,24.54 C 29.47,25.24 28.54,27.94 28.26,28.18 C 27.92,28.48 27.98,29.12 28.07,29.59 C 28.37,31.15 27.81,32.67 27.58,34.21 C 27.41,35.38 28.63,35.93 28.41,37.27 A 4.63,4.63 0 0,1 27.29,39.41 A 0.9,0.9 0 0,0 27.09,39.95 S 27.15,41.37 27.05,41.68 C 26.82,42.37 27.46,43.98 27.46,43.98 L 27.68,44.55 S 29.35,48.81 32.03,49.68 C 32.75,49.91 33.65,50.26 33.91,49.68 C 34.37,48.71 32.88,48.47 32.77,48.27 C 32.37,47.54 32.84,46.65 32.24,45.98 C 31.24,44.87 30.02,46.18 29.77,44.65 C 29.64,43.85 29.21,44.41 28.97,43.83 C 28.79,43.39 29.09,42.53 29.09,42.53 L 29.31,41.97 L 29.89,39.68 C 29.94,39.49 29.96,39.29 29.96,39.09 L 29.94,37.79 C 29.94,37.59 29.91,37.39 29.88,37.2 C 29.88,37.2 29.66,35.88 29.45,34.82 C 29.34,34.3 29.55,32.84 29.63,32.04 C 29.89,29.48 30.57,27.34 30.96,24.84 C 31.1,23.98 30.26,23 30.04,21.99 C 29.94,21.54 30.55,20.91 30.57,20.47 C 30.62,19.52 30.57,19.04 31.07,18.17 C 31.75,16.94 31.73,16.61 31.47,15.26 C 31.21,13.93 33.16,13.5 32.72,12.32" fill="rgb(237, 49, 34)"/>
<path d="M 29.849999999999998,17.855 C 29.88,17.93 29.46,18.45 29.43,18.86 C 29.33,19.2 29.57,19.6 29.39,20.1 C 29.26,20.43 28.99,20.77 28.96,21.07 C 29.02,20.89 29.12,20.73 29.26,20.57 C 29.82,19.97 29.52,19.17 29.63,18.6 C 29.67,18.34 29.89,18 29.85,17.87 M 33.85,48.63 A 21.15,21.15 0 0,0 32.41,47.49 C 31.93,46.89 32.4,45.91 31.73,45.25 A 2.54,2.54 0 0,0 30.66,44.63 C 29.8,44.42 28.96,44.58 28.94,44.51 C 28.76,44.51 28.37,43.43 27.94,43.31 C 27.57,43.5 27.67,42.67 27.94,42.15 C 28.43,41.27 28.74,40.09 28.94,39.1 C 29.1,38 28.85,37.18 28.57,36.1 C 28.57,36.1 28.47,35.77 28.29,34.82 A 9.43,9.43 0 0,1 28.35,31.62 C 28.72,29.3 29.55,27.11 29.97,24.82 C 30.3,23.69 29.32,22.96 28.93,22.04 C 28.89,21.95 28.93,21.73 28.82,21.68 C 28.72,21.62 28.68,21.78 28.68,21.84 C 28.68,22.24 29.08,22.68 29.31,23.04 C 29.59,23.43 29.76,23.85 29.82,24.3 C 29.87,24.89 29.49,25.68 29.38,26.3 C 28.76,27.95 28.06,29.84 27.88,31.6 C 27.83,32.5 27.57,33.5 27.71,34.39 L 27.68,34.26 C 27.88,35.31 28.08,36.36 28.21,37.41 L 28.22,37.81 C 28.22,38.07 28.44,38.29 28.39,38.52 C 28.26,39.45 27.84,40.37 27.56,41.27 C 27.43,41.72 27.07,42.21 27.01,42.74 C 26.91,43.09 26.99,43.83 27.73,43.86 C 28.06,43.9 27.91,44.49 28.29,44.87 C 28.9,45.43 29.85,45.02 30.57,45.35 C 31.7,45.88 31,47.25 31.77,48.05 C 31.94,48.15 33.19,49.05 32.96,49.08 C 32.76,49.17 32.54,49.22 32.32,49.23 C 30.31,49.21 28.71,47.96 27.6,46.63 A 12.02,12.02 0 0,1 25.18,42.1 C 24.95,41.43 25.24,40.15 25.28,39.43 C 25.62,38.83 26.7,37.98 26.86,37.03 C 27.25,35.98 26.21,35.05 25.99,34.39 C 25.59,32.77 26.99,30.99 26.63,29.23 C 26.55,28.84 26.52,28.42 26.66,28.23 C 27.59,27.5 28.09,25.55 28.2,24.48 C 28.06,23.48 27.8,22.79 27.68,21.95 C 27.31,20.41 28.32,18.82 28.29,17.01 C 28.37,15.31 28.37,13.59 28.56,11.85 C 28.61,11.21 28.66,10.51 28.62,9.65 C 29.07,9.65 29.17,10.47 29.43,10.85 C 29.81,11.27 29.96,11.95 30.46,12.25 C 30.73,12.39 31.15,12.38 31.38,12.56 C 31.83,12.92 30.83,13.51 30.63,13.69 C 30.4,13.9 30.23,14.14 30.11,14.4 C 30.05,14.55 30.01,14.7 30.01,14.85 C 30.01,14.97 30.03,15.08 30.07,15.19 C 30.09,15.23 30.12,15.34 30.18,15.34 C 30.25,15.34 30.25,15.27 30.24,15.24 C 30.04,14.8 30.32,14.34 30.67,13.98 C 31.07,13.6 31.6,13.38 31.8,12.84 A 0.86,0.86 0 0,0 31.86,12.37 A 0.51,0.51 0 0,0 31.55,12.01 C 31.35,11.94 31.14,12.04 30.97,11.91 C 30.6,11.49 30.71,10.85 30.33,10.41 C 30.09,9.95 29.83,9.44 30.03,8.94 C 30.19,8.14 29.72,7.5 29.23,6.76 C 28.88,6.29 28.53,5.99 28.23,6 C 27.43,6.04 26.9,7.61 27.37,8.58 C 27.63,9.77 27.45,11.78 27.22,13.2 A 38.46,38.46 0 0,0 26.96,16.53 C 26.99,17.76 26.67,18.8 26.39,20.18 C 26.09,21.63 26.61,22.98 26.89,24.25 C 27.01,25.1 26.22,26.8 25.82,27.47 C 24.85,28.37 25.45,29.27 25.42,29.78 C 25.51,30.96 25.14,32.05 24.86,33.18 C 24.74,33.58 24.56,34.33 24.91,34.92 C 25.58,36.04 25.96,36.4 25.56,37.22 C 25.23,37.92 24.58,38.38 24.21,39.06 C 24.13,39.24 24.1,39.43 24.11,39.62 C 24.12,40.16 24.21,40.75 24.03,41.27 C 23.93,41.97 24.13,42.43 24.27,42.94 C 25.02,44.84 26.12,46.67 27.9,48.24 C 29.16,49.4 31.12,50.26 32.85,49.93 C 33.29,49.83 33.89,49.65 33.99,49.15 A 0.74,0.74 0 0,0 33.86,48.62" fill="rgb(239, 242, 248)"/>
</svg>
