<?xml version="1.0" encoding="UTF-8"?>
<!-- generated by Finnhub -->
<svg viewBox="0 0 55.5 55.5" xmlns="http://www.w3.org/2000/svg">
<path d="M 0,0 H 55.5 V 55.5 H 0 Z" fill="rgb(76, 23, 32)"/>
<path d="M 27.99,11.985 L 46,19.04 L 45.14,20 H 10.86 L 10,19.04 L 28,12 Z M 11,22 V 21 H 45 V 22 H 11 Z M 11,41 V 39 H 45 V 41 H 11 Z M 11,38 V 37 H 45 V 38 H 11 Z M 40.2,19 H 43.77 L 28,12.69 L 12.23,19 H 15.79 L 28,14.56 L 40.2,19 Z M 37.97,19 H 39.43 L 28,14.95 L 16.8,19 H 18.24 L 28,15.55 L 37.97,19 Z M 28,19 C 28.72,19 29.3,18.45 29.3,17.65 S 28.72,16.35 28,16.35 C 27.28,16.35 26.7,16.85 26.7,17.65 S 27.28,19 28,19 Z M 21,35 H 17 V 34.6 C 17.72,34.5 18,34.43 18,33.44 V 30 H 14 V 33.44 C 14,34.44 14.28,34.5 15,34.59 V 35 H 11 V 34.6 C 11.72,34.48 12,34.4 12,33.44 V 25.56 C 12,24.52 11.58,24.47 11.03,24.41 H 11 V 24 H 15 V 24.4 C 14.4,24.46 14,24.49 14,25.56 V 29 H 18 V 25.56 C 18,24.49 17.6,24.46 17,24.41 V 24 H 21 V 24.4 C 20.42,24.46 20,24.5 20,25.56 V 33.44 C 20,34.41 20.28,34.48 21,34.59 V 35 Z M 22.63,35 H 27.41 V 34.6 H 27.4 C 26.65,34.53 26,34.47 26,33.44 V 25.56 C 26,24.48 26.74,24.44 27.38,24.41 H 27.41 V 24 H 22.63 V 24.4 L 22.67,24.41 C 23.29,24.46 24,24.51 24,25.56 V 33.44 C 24,34.44 23.37,34.51 22.64,34.59 V 35 Z M 44.7,27 C 44.41,25.92 43.46,24.5 41.58,24.5 C 40.75,24.5 40,24.96 40,25.96 C 40,26.8 40.04,27.24 41.37,27.89 L 43.71,29.02 C 44.26,29.28 45.61,30.08 45.61,31.77 C 45.61,33.13 44.59,35 41.66,35 C 40.7,35 40.06,34.79 39.59,34.63 A 2.28,2.28 0 0,0 38.94,34.47 C 38.61,34.47 38.53,34.75 38.46,35 H 38 V 31 H 38.46 C 38.78,32.56 39.7,34.49 41.72,34.49 C 43.63,34.49 43.72,32.96 43.72,32.76 C 43.72,31.72 43.09,31.22 42.05,30.74 L 40.99,30.24 C 38.27,28.99 38,27.79 38,27.07 C 38,26.13 38.64,24.03 41.66,24.03 C 42.46,24.03 43.05,24.23 43.49,24.37 C 43.76,24.47 43.97,24.54 44.14,24.54 C 44.51,24.54 44.59,24.3 44.67,24.01 H 45 V 27.01 H 44.7 Z M 28.7,35 V 34.57 H 29.35 C 29.66,34.57 30,34.29 30,33.95 V 25.05 C 30,24.71 29.66,24.43 29.35,24.43 H 28.69 V 24 H 36 V 27.42 H 35.76 C 35.77,26.55 35.3,25.04 33.34,25 H 32 V 29 H 32.57 C 33.34,29 34,28.21 34,27.36 V 27 H 34.41 V 32 H 34 V 31.28 C 34,30.42 33.34,30 32.57,30 H 32 V 33.95 C 32,34.29 32.24,34.57 32.55,34.57 H 33.19 V 35 H 28.69 Z" fill="rgb(254, 254, 253)"/>
</svg>
