<?xml version="1.0" encoding="UTF-8"?>
<!-- generated by Finnhub -->
<svg viewBox="0 0 55.5 55.5" xmlns="http://www.w3.org/2000/svg">
<path d="M 0,0 H 55.5 V 55.5 H 0 Z" fill="rgb(239, 242, 248)"/>
<path d="M 36.61,42.985 L 10,35.21 L 12.34,32.43 L 36,39.33 L 36.62,43 Z M 34.59,34.03 L 15.34,28.77 L 17.81,26.12 L 33.88,30.75 L 34.58,34.03 Z M 32.34,25.44 L 20.77,22.16 L 28.94,12 L 32.34,25.43 Z" fill="rgb(99, 172, 225)"/>
<path d="M 36.49,19.925 L 32.33,25.46 L 28.92,12 L 36.51,19.94 Z M 34.58,34.04 L 33.88,30.77 L 38.4,21.74 L 39.81,23.34 L 34.58,34.04 Z M 36.6,42.94 L 35.98,39.31 L 42.04,25.99 L 43,27.71 L 36.6,42.94 Z" fill="rgb(35, 73, 94)"/>
</svg>
