<?xml version="1.0" encoding="UTF-8"?>
<!-- generated by Finnhub -->
<svg viewBox="0 0 55.5 55.5" xmlns="http://www.w3.org/2000/svg">
<path d="M 0,0 H 55.5 V 55.5 H 0 Z" fill="rgb(1, 222, 128)"/>
<path d="M 21.99,20.915 C 21.17,19.85 21.39,18.8 21.83,18.35 C 22.05,18.12 22.36,17.97 22.79,18 C 23.23,18.03 23.86,18.26 24.63,18.93 L 25.06,19.31 L 25.61,19.12 C 26.17,18.93 27.11,18.62 28,18.62 C 28.9,18.62 29.83,18.93 30.39,19.12 L 30.94,19.31 L 31.37,18.93 C 32.14,18.26 32.77,18.03 33.21,18 C 33.64,17.98 33.95,18.12 34.17,18.35 C 34.61,18.8 34.83,19.85 34,20.93 L 33.54,21.53 L 33.98,22.13 C 34.68,23.1 35.18,24.34 35.43,25.91 L 35.54,26.61 L 36.24,26.73 C 39.16,27.23 40.39,28.68 40.9,30.17 C 41.34,31.46 41.27,32.89 41.05,34 H 38.23 A 2,2 0 1,0 34.77,34 H 21.23 A 2,2 0 1,0 17.77,34 H 14.95 A 7.67,7.67 0 0,1 15.1,30.17 C 15.61,28.67 16.84,27.23 19.76,26.73 L 20.46,26.61 L 20.57,25.91 C 20.83,24.34 21.32,23.1 22.02,22.13 L 22.46,21.53 L 22,20.93 Z M 46,34 H 43.09 C 43.29,32.7 43.32,31.08 42.79,29.52 C 42.09,27.45 40.42,25.64 37.27,24.9 C 37.01,23.64 36.58,22.52 35.98,21.54 C 36.88,19.94 36.71,18.1 35.61,16.95 A 3.16,3.16 0 0,0 33.08,16.01 C 32.24,16.06 31.37,16.41 30.51,17.05 A 8.64,8.64 0 0,0 28,16.61 C 27.05,16.61 26.12,16.86 25.49,17.05 A 4.87,4.87 0 0,0 22.92,16.01 C 21.92,15.94 21.02,16.31 20.39,16.95 C 19.29,18.1 19.12,19.94 20.02,21.54 C 19.42,22.52 18.99,23.64 18.72,24.9 C 15.58,25.64 13.92,27.45 13.22,29.52 A 9.46,9.46 0 0,0 12.92,34 H 10 V 36 H 46 V 34 Z M 26.5,25.5 A 1.5,1.5 0 1,1 23.5,25.5 A 1.5,1.5 0 0,1 26.5,25.5 Z M 31,27 A 1.5,1.5 0 1,1 31,24 A 1.5,1.5 0 0,1 31,27 Z" fill="rgb(254, 254, 253)"/>
</svg>
