<?xml version="1.0" encoding="UTF-8"?>
<!-- generated by Finnhub -->
<svg viewBox="0 0 55.5 55.5" xmlns="http://www.w3.org/2000/svg">
<rect width="56" height="56" fill="rgb(239, 242, 248)"/>
<rect x="21" y="23" width="3" height="12" fill="rgb(1, 171, 253)"/>
<path d="M 7.99,22.985 H 11 V 27 H 16 V 23 H 19 V 35 H 16 V 30 H 11 V 35 H 8 V 23 Z" clip-rule="evenodd" fill="rgb(1, 171, 253)" fill-rule="evenodd"/>
<path d="M 39.99,22.985 H 37 V 29.5 C 37,32.5376 39.4624,35 42.5,35 S 48,32.5376 48,29.5 V 23 H 45 V 29.5 C 45,30.8807 43.8807,32 42.5,32 S 40,30.8807 40,29.5 V 23 Z" clip-rule="evenodd" fill="rgb(1, 171, 253)" fill-rule="evenodd"/>
<path d="M 25.99,27.985 V 35 H 29 V 31 H 29.6337 L 32.1684,35 H 36 L 33.0916,30.4102 C 34.2365,29.7065 35,28.4424 35,26.9999 C 35,24.7908 33.2091,22.9999 31,22.9999 H 26 V 28 Z M 31,28 H 29 V 26 H 31 C 31.5523,26 32,26.4477 32,27 C 32,27.5522 31.5523,28 31,28 Z" clip-rule="evenodd" fill="rgb(1, 171, 253)" fill-rule="evenodd"/>
<path d="M 24.293,16.985 L 22.512,14 L 20.7209,17 C 19.7891,18.2143 19.7318,20.0993 20.7209,21.1854 C 21.7101,22.2715 23.3139,22.2715 24.303,21.1854 C 25.2922,20.0993 25.1716,18.2143 24.303,17 Z M 23.0819,21.2856 C 23.1868,21.2856 23.2719,21.1897 23.2719,21.0713 C 23.2719,20.953 23.1868,20.8571 23.0819,20.8571 S 22.8919,20.953 22.8919,21.0713 C 22.8919,21.1897 22.977,21.2856 23.0819,21.2856 Z M 22.0104,16.2368 C 22.0693,16.2793 22.0865,16.3677 22.0488,16.4341 L 21.035,18.221 L 21.0343,18.2221 C 20.9651,18.3392 20.8023,18.7539 20.8023,19.3571 C 20.8023,19.436 20.7456,19.5 20.6756,19.5 C 20.6057,19.5 20.549,19.436 20.549,19.3571 C 20.549,18.7047 20.7231,18.2344 20.8228,18.0648 L 21.8354,16.2801 C 21.8731,16.2136 21.9514,16.1943 22.0104,16.2368 Z M 24.2785,18.169 C 24.2564,18.0942 24.1847,18.0537 24.1183,18.0787 C 24.052,18.1036 24.0161,18.1845 24.0382,18.2594 C 24.1777,18.7312 24.262,19.8775 23.5019,20.6814 C 23.4508,20.7354 23.4482,20.8258 23.4961,20.8833 C 23.5439,20.9409 23.6241,20.9438 23.6751,20.8898 C 24.536,19.9794 24.4346,18.6971 24.2785,18.169 Z" clip-rule="evenodd" fill="rgb(1, 171, 253)" fill-rule="evenodd"/>
</svg>
