<?xml version="1.0" encoding="UTF-8"?>
<!-- generated by Finnhub -->
<svg viewBox="0 0 55.5 55.5" xmlns="http://www.w3.org/2000/svg">
<path d="M 0,0 H 55.5 V 55.5 H 0 Z" fill="rgb(1, 135, 196)"/>
<path d="M 35.99,14.395 V 13 H 38 V 16.66 L 41.14,13 H 43.29 L 38,19.17 V 23.63 L 44,16.4 V 18.78 L 38,26 V 31.62 L 44,24.39 V 26.77 L 38,34 V 44 H 36 V 30.6 L 30,38.82 V 44 H 28 V 38.01 L 21,29.99 L 22.13,29 L 28,35.72 V 30.15 L 22.07,23.31 L 19,26.94 V 44 H 17 V 33.05 L 12,27.34 V 24.95 L 17,30.66 V 26.14 L 12,21.01 V 18.86 L 17,23.99 V 20 L 12,14.17 V 13 H 13 L 17,17.66 V 13 H 19 V 14.66 L 20.43,13 H 23.85 L 28,18.37 V 14.6 L 26.76,13 H 30 V 14.64 L 36,22.39 V 16.83 L 32.89,13 H 34.85 L 36,14.41 Z M 28,20.81 V 27.61 L 23.16,22.03 L 24,21.03 L 22.9,20 L 21.49,21.67 L 21,22.08 L 21.07,22.16 L 19,24.61 V 17 L 22.19,13.29 L 28,20.8 Z M 30,35.4 V 27.95 L 33,24.06 L 31.81,23 L 30,25.35 V 17.19 L 36,24.94 V 27.18 L 30,35.4 Z" fill="rgb(243, 254, 251)" fill-rule="evenodd"/>
</svg>
