<?xml version="1.0" encoding="UTF-8"?>
<!-- generated by Finnhub -->
<svg viewBox="0 0 55.5 55.5" xmlns="http://www.w3.org/2000/svg">
<path d="M 0,0 H 55.5 V 55.5 H 0 Z" fill="rgb(1, 134, 41)"/>
<path d="M 50.99,24.985 V 25.236 S 50.744,25.338 50.744,25.638 L 50.746,30.678 A 0.323,0.323 0 0,1 50.424,31 H 49.434 L 47.255,27.562 S 47.301,27.846 47.301,28.204 V 31 H 46 V 25 H 46.876 C 47.275,25 47.566,25.165 47.776,25.494 L 49.599,28.366 S 49.54,28.189 49.54,27.716 V 25 H 51 Z M 28,25 V 30.678 A 0.323,0.323 0 0,1 27.678,31 H 26.512 L 24.334,27.562 S 24.379,27.846 24.379,28.204 V 31 H 23 V 25 H 23.954 C 24.354,25 24.644,25.165 24.854,25.494 L 26.677,28.366 S 26.619,28.189 26.619,27.716 V 25 H 28 Z M 12.897,25 H 11.284 V 27.3 H 10 V 25 H 8 V 25.236 S 8.256,25.332 8.256,25.638 V 31 H 10 V 28.396 H 11.284 V 31 H 13 V 25 H 12.897 Z M 18.122,25 H 14.527 V 30.463 C 14.527,30.775 14.823,31 15.134,31 H 18.122 A 0.324,0.324 0 0,0 18.445,30.677 V 30 H 16.243 A 0.244,0.244 0 0,1 16,29.756 V 28.396 H 17.978 V 27.299 H 16 V 26 H 18.445 V 25.323 A 0.324,0.324 0 0,0 18.122,25 Z M 21.528,25 H 20 V 30.678 C 20,30.855 20.146,31 20.323,31 H 21.528 V 25 Z M 44.404,25 H 40.81 V 30.463 C 40.81,30.763 41.105,31 41.415,31 H 44.404 A 0.324,0.324 0 0,0 44.727,30.677 V 30 H 42.665 A 0.244,0.244 0 0,1 42.423,29.756 V 28.396 H 44.26 V 27.299 H 42.423 V 26 H 44.727 V 25.323 A 0.324,0.324 0 0,0 44.404,25 Z M 33.049,25 H 29.455 V 30.463 C 29.455,30.763 29.75,31 30.061,31 H 33.049 A 0.324,0.324 0 0,0 33.372,30.677 V 30 H 31.242 A 0.244,0.244 0 0,1 31,29.756 V 28.396 H 33 V 27.299 H 31 V 26 H 33.372 V 25.323 A 0.324,0.324 0 0,0 33.05,25 Z M 39.876,25 H 38.712 A 0.85,0.85 0 0,0 37.995,25.327 L 36.351,27.222 V 25 H 34.738 V 30.678 C 34.738,30.855 34.883,31 35.06,31 H 36.351 V 28.279 L 37.772,30.503 C 37.986,30.836 38.196,31 38.68,31 H 40.006 L 37.742,27.46" fill="rgb(254, 254, 253)"/>
<path d="M 5.5840000000000005,26.849 C 5.512,26.928 5.406,26.844 5.437,26.743 C 5.482,26.599 6.299,23.889 6.299,23.889 L 4.043,22.127 C 3.962,22.062 4.003,21.929 4.103,21.929 H 6.893 S 7.711,19.222 7.753,19.077 C 7.783,18.975 7.917,18.973 7.948,19.077 C 7.991,19.223 8.81,21.929 8.81,21.929 H 11.6 C 11.698,21.929 11.74,22.062 11.658,22.127 L 10.313,23.178 H 8.72 L 8.228,21.551 L 7.736,23.178 H 6.143 L 7.432,24.184 L 6.939,25.812 L 5.594,26.864 Z" fill="rgb(236, 27, 34)"/>
</svg>
