<?xml version="1.0" encoding="UTF-8"?>
<!-- generated by Finnhub -->
<svg viewBox="0 0 55.5 55.5" xmlns="http://www.w3.org/2000/svg">
<path d="M 0,0 H 55.5 V 55.5 H 0 Z" fill="rgb(1, 68, 138)"/>
<path d="M 18.45,35.985 H 20.5 A 0.5,0.5 0 0,0 21,35.5 V 21.5 A 0.47,0.47 0 0,0 20.86,21.16 A 0.47,0.47 0 0,0 20.52,21 H 18.46 C 18.17,21 18,21.22 18,21.5 V 26.49 C 18,26.76 17.73,27 17.45,27 H 12.59 C 12.31,27 12,26.76 12,26.49 V 21.49 C 12,21.22 11.85,21 11.59,21 H 9.5 A 0.5,0.5 0 0,0 9,21.5 V 35.5 C 9,35.65 9.06,35.74 9.14,35.84 C 9.24,35.94 9.36,36 9.5,36 H 11.59 C 11.87,36 12,35.78 12,35.5 V 30.48 C 12,30.2 12.31,30 12.6,30 H 17.45 C 17.73,30 18,30.2 18,30.48 V 35.51 C 18,35.65 18.01,35.76 18.1,35.84 C 18.2,35.92 18.31,36 18.46,36 Z M 42.56,36 C 42.84,36 43,35.78 43,35.5 V 24.52 C 43,24.25 43.27,24.01 43.55,24.01 H 46.01 C 46.29,24.01 46.64,23.85 46.84,23.66 L 48.92,21.28 C 49.11,21.06 48.92,21.01 48.68,21.01 H 37.55 C 37.27,21.01 36.9,21.13 36.72,21.35 L 34.71,23.65 C 34.53,23.87 34.62,24.01 34.86,24.01 H 39.52 C 39.8,24.01 40,24.25 40,24.52 V 35.52 C 40,35.64 40.05,35.75 40.13,35.83 L 40.17,35.87 C 40.25,35.95 40.37,36.01 40.51,36.01 H 42.56 Z M 34.98,35.67 C 35.04,35.87 34.94,36 34.71,36 H 31.96 A 0.97,0.97 0 0,1 31.36,35.72 L 31.22,35.57 L 28.38,30.76 L 27.92,30.01 C 27.79,29.77 27.56,29.78 27.35,29.95 C 26.76,30.4 26,31.17 26,31.77 V 35.49 C 26,35.76 25.81,36 25.54,36 H 23.48 C 23.36,36 23.25,35.92 23.15,35.84 A 0.47,0.47 0 0,1 23,35.49 V 21.49 C 23,21.22 23.21,21 23.48,21 H 25.54 C 25.7,21 25.83,21.08 25.91,21.18 C 25.98,21.28 26,21.38 26,21.49 V 26.5 C 26,26.78 26.15,26.82 26.33,26.62 L 30.94,21.37 C 31.11,21.16 31.46,21 31.73,21 H 34.58 C 34.71,21 34.81,21.04 34.83,21.12 C 34.86,21.2 34.83,21.28 34.75,21.37 L 30.05,26.93 A 0.7,0.7 0 0,0 29.99,27.71 L 30.45,28.44 L 34.95,35.59 L 34.98,35.67 Z" fill="rgb(254, 254, 253)"/>
</svg>
