<?xml version="1.0" encoding="UTF-8"?>
<!-- generated by Finnhub -->
<svg viewBox="0 0 55.5 55.5" xmlns="http://www.w3.org/2000/svg">
<path d="M 0,0 H 55.5 V 55.5 H 0 Z" fill="url(#a)"/>
<path d="M 15.994000000000002,24.985 L 11.004,27.57 L 16.004,31 V 25 Z" fill="rgb(177, 162, 135)"/>
<path d="M 39.99,24.985 L 45,27.57 L 40,31 V 25 Z" fill="rgb(228, 216, 194)"/>
<path d="M 31.99,11.988999999999999 H 43 V 13 H 42 L 41,14 V 42 L 42,43 H 43 V 44 H 32 V 43 H 33 L 34,42 V 14 L 33,13 H 32 V 12.004 Z" fill="rgb(177, 162, 135)"/>
<path d="M 12.99,11.988999999999999 H 24 V 13.002 H 23 L 22,14 V 42 L 23,43 H 24 V 44 H 13 V 43 H 14 L 15,42 V 14 L 14,13.005 H 13 V 12.004 Z M 28,19 L 38,23.95 V 31.218 L 28,36 V 19 Z" fill="rgb(228, 216, 194)"/>
<path d="M 27.99,18.985 L 19,23.573 V 31.08 L 28,36 V 19 Z" fill="rgb(177, 162, 135)"/>
<defs>
<linearGradient id="a" x1="10.418" x2="68.147" y1="9.712" y2="76.017" gradientUnits="userSpaceOnUse">
<stop stop-color="rgb(25, 29, 31)" offset="0"/>
<stop stop-color="rgb(5, 5, 8)" offset="1"/>
</linearGradient>
</defs>
</svg>
