<?xml version="1.0" encoding="UTF-8"?>
<!-- generated by Finnhub -->
<svg viewBox="0 0 55.5 55.5" xmlns="http://www.w3.org/2000/svg">
<path d="M 0,0 H 55.5 V 55.5 H 0 Z" fill="rgb(1, 61, 103)"/>
<path d="M 8.99,26.235 C 8.85,29.03 10.6,31.34 12.03,32.4 V 32.38 C 12.63,32.92 13.43,33.6 14,33.98 V 31 H 21 V 35.8 C 21,36.17 20.69,36.47 20.32,36.47 H 19.77 A 0.27,0.27 0 0,0 19.51,36.73 C 19.51,36.88 19.62,37 19.77,37 H 24.2 C 24.35,37 24.47,36.88 24.47,36.73 A 0.27,0.27 0 0,0 24.2,36.47 H 23.7 C 23.34,36.47 23,36.17 23,35.8 V 25.06 C 23,24.69 23.34,24.39 23.7,24.39 H 24.27 C 24.37,24.39 24.47,24.31 24.47,24.19 A 0.2,0.2 0 0,0 24.27,24 H 19.7 A 0.2,0.2 0 0,0 19.5,24.2 C 19.5,24.3 19.6,24.4 19.7,24.4 H 20.32 C 20.69,24.4 21,24.7 21,25.06 V 30 H 14 V 25.06 C 14,24.69 14.2,24.39 14.57,24.39 H 15.14 C 15.24,24.39 15.34,24.31 15.34,24.19 A 0.2,0.2 0 0,0 15.14,24 H 12.48 L 12,25.28 V 31.5 A 6.9,6.9 0 0,1 10.39,26.52 C 11.28,19.35 21.21,15.77 30.89,15.62 C 38.65,15.5 44.86,18.31 46.99,19.73 C 42.77,15.19 33.72,14.02 29.72,14 C 11.36,14.76 9.16,23.47 9,26.25 Z M 40.55,24 H 45.48 A 0.2,0.2 0 1,1 45.48,24.4 H 44.9 C 44.53,24.4 44.01,24.7 44.01,25.06 V 35.8 C 44.01,36.17 44.53,36.47 44.91,36.47 H 45.41 A 0.27,0.27 0 1,1 45.41,37 H 40.61 A 0.27,0.27 0 0,1 40.35,36.73 C 40.35,36.59 40.47,36.47 40.62,36.47 H 41.16 C 41.53,36.47 42.01,36.17 42.01,35.8 V 25.06 C 42.01,24.69 41.53,24.39 41.16,24.39 H 40.55 A 0.2,0.2 0 0,1 40.35,24.19 C 40.35,24.09 40.44,24 40.55,24 Z M 12,35.8 V 33.56 A 30.2,30.2 0 0,0 14,35.04 V 35.8 C 14,36.17 14.2,36.47 14.57,36.47 H 15.07 C 15.21,36.47 15.33,36.59 15.33,36.73 C 15.33,36.88 15.21,37 15.07,37 H 10.44 A 0.27,0.27 0 0,1 10.17,36.73 C 10.17,36.59 10.29,36.47 10.44,36.47 H 11.31 C 11.67,36.47 12,36.17 12,35.8 Z M 26.34,23.67 C 26.54,23.76 27.07,23.94 27.65,24 H 36.45 C 36.78,24 37.51,23.91 37.8,23.67 V 26.43 C 37.8,26.54 37.72,26.63 37.61,26.63 A 0.2,0.2 0 0,1 37.41,26.43 V 26.34 C 37.41,25.64 36.85,25 36.14,25 H 33 V 35.5 C 33,36 33.51,36.4 34,36.4 H 34.59 C 34.75,36.4 34.89,36.53 34.89,36.7 A 0.3,0.3 0 0,1 34.59,37 H 29.53 A 0.3,0.3 0 0,1 29.23,36.7 C 29.23,36.53 29.37,36.4 29.53,36.4 H 30.02 C 30.45,36.4 31,36.04 31,35.6 V 25 H 28 C 27.56,24.98 26.61,25.17 26.34,25.82 C 26,26.63 25.8,26.52 25.87,25.64 C 25.94,24.93 26.21,24.04 26.34,23.67 Z" fill="rgb(254, 254, 253)"/>
</svg>
