<?xml version="1.0" encoding="UTF-8"?>
<!-- generated by Finnhub -->
<svg viewBox="0 0 55.5 55.5" xmlns="http://www.w3.org/2000/svg">
<path d="M 0,0 H 55.5 V 55.5 H 0 Z" fill="rgb(200, 17, 40)"/>
<path d="M 16.075,12.695 C 13.114,13.237 9.711,14.342 9.203,19.605 C 9.076,21.026 9.025,22.895 9,24.921 C 9.044,27.806 9.258,29.887 9.414,31.401 L 9.483,32.079 C 9.584,33.132 10.016,36.369 10.574,38.026 C 11.336,40.316 12.022,40.974 12.834,41.658 C 14.18,42.811 16.328,43.218 17.079,43.361 L 17.253,43.395 C 19.996,43.921 25.558,44 27.996,44 C 30.459,44 35.996,43.895 38.738,43.395 L 38.888,43.365 C 39.614,43.224 41.797,42.8 43.157,41.658 C 43.969,40.974 44.655,40.316 45.417,38.026 C 45.976,36.368 46.407,33.158 46.509,32.079 L 46.584,31.329 C 46.739,29.809 46.948,27.765 46.991,24.921 C 47.017,22.921 46.991,21.053 46.839,19.605 C 46.331,14.342 42.929,13.237 39.957,12.71 C 38.459,12.447 35.792,12.237 34.091,12.158 C 32.592,12.053 29.088,12 28.021,12 C 26.954,12 23.45,12.053 21.951,12.158 C 20.251,12.237 17.584,12.448 16.085,12.711 Z M 12.251,37 C 11.743,35.184 11.387,32.658 11.082,28.447 C 10.905,25.895 10.93,21.79 11.209,19.605 C 11.571,16.678 12.857,15.043 15.516,14.273 C 15.635,16.159 16.102,23.551 16.329,26.883 C 16.541,30.143 17.079,38.822 17.271,41.946 C 16.249,41.724 15.039,41.324 14.079,40.421 C 13.266,39.658 12.708,38.605 12.251,37 Z M 22.023,42.498 C 23.983,42.612 26.157,42.658 28.021,42.658 C 30.193,42.658 32.757,42.596 34.924,42.44 C 34.367,40.252 33.664,37.51 32.9,36.289 C 32.225,35.234 31.223,35.094 30.608,35.009 L 30.55,35 C 29.622,34.857 28.84,34.857 28.462,34.857 C 28.114,34.857 27.302,34.886 26.375,35 L 26.318,35.008 C 25.703,35.094 24.701,35.234 24.026,36.288 C 23.341,37.384 22.743,39.704 22.216,41.748 L 22.022,42.498 Z M 39.671,41.708 C 40.456,41.458 41.274,41.069 41.963,40.421 C 42.776,39.658 43.334,38.579 43.792,37 C 44.3,35.184 44.68,32.658 44.96,28.447 C 45.138,25.921 45.112,21.816 44.833,19.605 C 44.532,16.985 43.486,15.4 41.393,14.552 C 41.252,16.802 40.815,23.72 40.598,26.882 C 40.391,30.086 39.875,38.408 39.671,41.708 Z M 38.446,13.856 A 54.145,54.145 0 0,0 33.786,13.421 C 32.16,13.316 29.519,13.263 28.021,13.263 C 26.548,13.237 23.881,13.316 22.281,13.421 C 20.963,13.491 19.59,13.605 18.356,13.758 C 19.338,18.053 20.707,22.982 20.707,22.982 S 22.07,28.851 23.114,30.225 C 24.158,31.628 25.578,31.914 26.535,32.028 C 27.028,32.086 27.405,32.114 28.478,32.114 S 29.928,32.086 30.421,32.028 C 31.378,31.914 32.798,31.628 33.842,30.225 C 34.886,28.851 36.278,22.982 36.278,22.982 S 37.462,18.228 38.446,13.855 Z" fill="rgb(254, 254, 253)" fill-rule="evenodd"/>
</svg>
