<?xml version="1.0" encoding="UTF-8"?>
<!-- generated by Finnhub -->
<svg viewBox="0 0 55.5 55.5" xmlns="http://www.w3.org/2000/svg">
<path d="M 0,0 H 55.5 V 55.5 H 0 Z" fill="rgb(23, 111, 86)"/>
<path d="M 22.99,27.985 V 20 H 17.28 L 28.02,8 L 38.6,20 H 33 V 28 H 23 Z M 37,37.62 V 25.99 C 37,23.45 36.88,22.2 37.45,21.59 C 38,20.98 39.26,21 42,21 V 43 H 14 V 21 C 19.03,21 19.02,21.84 19,25.27 V 37.63 C 19,38.96 18,38.99 17,39 V 40 H 25 V 39.15 C 23.92,39.16 23,38.85 23,37.62 V 30 H 33 V 37.62 C 33.15,38.84 32,39.17 31,39.15 V 40 H 39 V 39 C 38.02,39.01 37,39 37,37.62 Z" fill="rgb(254, 254, 253)"/>
</svg>
