<?xml version="1.0" encoding="UTF-8"?>
<!-- generated by Finnhub -->
<svg viewBox="0 0 55.5 55.5" xmlns="http://www.w3.org/2000/svg">
<path d="M 0,0 H 55.5 V 55.5 H 0 Z" fill="rgb(239, 242, 248)"/>
<path d="M 5.3,24.985 V 27.3 H 7.7 V 25 H 9 V 31 H 7.69 V 28.42 H 5.3 V 31 H 4 V 25 H 5.31 Z M 14.46,25 V 26 H 11.32 V 27.5 H 14 V 28.5 H 11.32 V 30 H 14.54 V 31 H 10 V 25 H 14.46 Z M 17.05,25 L 19.67,29.04 H 19.69 V 25 H 21 V 31 H 19.6 L 17,26.99 V 31 H 15.67 V 25 H 17.05 Z M 23.03,29.45 C 23.1,29.59 23.2,29.69 23.33,29.77 C 23.44,29.85 23.57,29.91 23.73,29.95 C 23.89,29.99 24.06,30.01 24.23,30.01 C 24.35,30.01 24.47,30.01 24.59,29.99 S 24.84,29.93 24.96,29.89 C 25.08,29.83 25.16,29.77 25.25,29.67 C 25.33,29.57 25.37,29.45 25.37,29.31 A 0.5,0.5 0 0,0 25.23,28.93 C 25.13,28.83 25,28.75 24.83,28.68 A 3.6,3.6 0 0,0 24.28,28.52 C 24.08,28.48 23.88,28.42 23.65,28.36 A 5.84,5.84 0 0,1 23.01,28.16 C 22.81,28.08 22.62,27.98 22.46,27.86 A 1.33,1.33 0 0,1 21.93,26.73 A 1.51,1.51 0 0,1 22.6,25.43 A 2.45,2.45 0 0,1 24.08,25 C 24.38,25 24.68,25.04 24.96,25.1 C 25.25,25.16 25.49,25.28 25.7,25.42 C 25.92,25.56 26.09,25.77 26.21,25.99 C 26.33,26.23 26.39,26.49 26.39,26.83 H 25.16 C 25.14,26.67 25.12,26.53 25.06,26.41 A 0.62,0.62 0 0,0 24.82,26.15 C 24.72,26.09 24.59,26.05 24.47,26.01 A 2.84,2.84 0 0,0 24.04,25.97 C 23.94,25.97 23.84,25.99 23.74,26.01 C 23.63,26.03 23.53,26.07 23.44,26.13 A 0.96,0.96 0 0,0 23.24,26.33 A 0.48,0.48 0 0,0 23.16,26.63 C 23.16,26.75 23.18,26.83 23.22,26.91 A 0.6,0.6 0 0,0 23.48,27.11 C 23.61,27.17 23.79,27.23 24.02,27.3 C 24.24,27.36 24.53,27.44 24.9,27.52 A 4.01,4.01 0 0,1 25.92,27.9 C 26.11,28.02 26.27,28.18 26.42,28.38 C 26.56,28.58 26.62,28.85 26.62,29.17 A 1.71,1.71 0 0,1 26.01,30.47 C 25.8,30.64 25.55,30.76 25.25,30.86 C 24.94,30.96 24.59,31 24.2,31 A 3.4,3.4 0 0,1 23.28,30.88 A 2.04,2.04 0 0,1 21.93,29.89 A 1.8,1.8 0 0,1 21.73,29 H 22.95 C 22.93,29.16 22.97,29.3 23.03,29.45 Z M 30,30 C 31.1,30 31.65,29.02 31.65,28.03 S 31.11,26 30,26 C 28.88,26 28.35,27.03 28.35,28.03 C 28.35,29.04 28.94,30 30,30 Z M 27.21,26.84 C 27.34,26.47 27.54,26.15 27.79,25.89 A 3.05,3.05 0 0,1 30,25 C 30.47,25 30.9,25.08 31.26,25.24 A 2.74,2.74 0 0,1 32.79,26.84 C 32.91,27.2 33,27.61 33,28.03 C 33,28.45 32.94,28.83 32.79,29.2 C 32.66,29.57 32.46,29.87 32.21,30.15 C 31.95,30.41 31.65,30.64 31.26,30.78 C 30.9,30.94 30.47,31 30,31 S 29.12,30.92 28.74,30.78 A 2.57,2.57 0 0,1 27.22,29.2 A 3.47,3.47 0 0,1 27,28.03 C 27.02,27.61 27.09,27.23 27.21,26.83 Z M 35.36,25 V 30 H 38 V 31 H 34 V 25 H 35.36 Z M 41.49,30 C 42.47,30 43,29.03 43,28.1 C 43,27.03 42.47,26 41.26,26 H 40.33 V 30 H 41.49 Z M 41.57,25 C 41.95,25 42.31,25.06 42.65,25.19 A 2.3,2.3 0 0,1 44.09,26.67 A 4.26,4.26 0 0,1 44.13,29.18 A 2.42,2.42 0 0,1 42.78,30.77 C 42.44,30.92 42.04,31 41.58,31 H 39 V 25 H 41.57 Z M 44.31,26 V 25 H 49 V 26 H 47.33 V 31 H 46 V 26 H 44.31 Z" fill="rgb(123, 123, 122)"/>
<path d="M 42.18,22.005 C 42.36,22 42.56,22 42.73,22 C 44.66,22 46.35,23 47.39,24.53 H 46.3 A 5.67,5.67 0 0,0 42.19,22.03 Z M 46.28,31.47 A 5.66,5.66 0 0,1 42.17,33.97 A 5.63,5.63 0 0,0 47.37,31.47 H 46.28 Z M 47.84,26.21 V 30.68 A 6.09,6.09 0 0,0 48.19,26.21 H 47.84 Z" fill="rgb(74, 176, 99)"/>
<path d="M 38.78,22.005 C 38.96,22 39.15,22 39.33,22 C 41.26,22 42.95,23 43.99,24.53 H 42.88 A 5.59,5.59 0 0,0 38.78,22.03 Z M 42.88,31.47 A 5.66,5.66 0 0,1 38.77,33.97 A 5.63,5.63 0 0,0 43.97,31.47 H 42.88 Z" fill="rgb(1, 159, 55)"/>
<path d="M 51.99,28.005 C 52,24.7 49.44,22 46.28,22 C 46.08,22 45.91,22 45.74,22.02 C 48.64,22.32 51,24.87 51,28 C 51,31.3 48.66,33.36 45.74,33.98 C 45.91,34 46.11,34 46.28,34 C 49.54,34 52,31.27 52,28.02 Z" fill="rgb(142, 201, 142)"/>
</svg>
