<?xml version="1.0" encoding="UTF-8"?>
<!-- generated by Finnhub -->
<svg viewBox="0 0 55.5 55.5" xmlns="http://www.w3.org/2000/svg">
<path d="M 0,0 H 55.5 V 55.5 H 0 Z" fill="rgb(0, 156, 222)"/>
<path d="M 10.34,21.985 H 8.8 L 5,31 H 7.15 L 7.89,29.25 H 11.26 L 12.01,31 H 14.16 L 10.35,22 Z M 8.49,27.54 L 9.57,24.74 L 10.67,27.54 H 8.48 Z M 38.2,24.57 A 2.33,2.33 0 0,0 36.6,24 A 2.4,2.4 0 0,0 34.85,24.72 L 34.77,24 H 33 V 31 H 35 V 26.28 C 35.3,26 35.58,25.73 36.01,25.72 C 36.81,25.7 37,26.45 37,27.12 V 31 H 39 V 26.98 C 39,25.51 38.5,24.86 38.2,24.58 Z M 16.83,24 H 15 V 31 H 17 V 26.21 C 17.16,26.06 17.32,25.93 17.52,25.84 C 17.74,25.73 18.29,25.53 18.69,25.87 C 18.99,26.13 19,26.76 19,26.94 V 31 H 21 V 26.1 C 21.19,25.98 21.29,25.87 21.5,25.79 C 21.95,25.58 22.46,25.69 22.63,25.8 C 23,26.06 23,26.66 23,26.92 V 31 H 25 V 26.86 C 25,26.13 24.9,25.21 24.26,24.62 C 23.62,24.02 22.63,24 22.42,24 C 21.66,24.03 20.92,24.26 20.27,24.7 A 2.5,2.5 0 0,0 17.87,24.12 C 17.5,24.24 17.17,24.44 16.9,24.7 L 16.83,24 Z M 32,24 H 30 V 28.75 C 29.7,29 29.41,29.21 29,29.24 C 28.17,29.29 28,28.6 28,27.88 V 24 H 26 V 28.06 C 26,29.65 26.81,31.13 28.6,30.99 A 2.36,2.36 0 0,0 30.13,30.27 L 30.21,31 H 32 V 24 M 44,22 V 24.16 C 43.67,24.07 43.3,24 42.97,24 C 41.66,24 40.95,24.65 40.64,24.94 C 40,25.61 39.64,26.49 39.65,27.41 C 39.65,29.61 40.84,30.47 41.44,30.75 A 2.73,2.73 0 0,0 42.72,31 C 43.22,30.97 43.69,30.77 44.08,30.46 L 44.14,31 H 46 V 22 H 44 Z M 44,28.84 C 43.87,29 43.67,29.12 43.48,29.19 C 43.06,29.36 42.58,29.32 42.21,29 C 41.39,28.3 41.41,26.6 42.34,25.97 C 42.59,25.79 42.9,25.7 43.21,25.71 C 43.47,25.71 43.75,25.76 44,25.85 V 28.85 Z M 49,22.5 C 49,23.03 48.66,23.5 48,23.5 C 47.34,23.5 47,23.02 47,22.5 S 47.37,21.5 48,21.5 S 49,21.98 49,22.5 Z M 49,24 H 47 V 31 H 49 V 24 Z M 49,33 H 5 V 35 H 49 V 33 Z" fill="rgb(254, 254, 253)"/>
</svg>
