<?xml version="1.0" encoding="UTF-8"?>
<!-- generated by Finnhub -->
<svg viewBox="0 0 55.5 55.5" xmlns="http://www.w3.org/2000/svg">
<path d="M 0,0 H 55.5 V 55.5 H 0 Z" fill="rgb(23, 26, 28)"/>
<path d="M 22.99,19.985 H 10 V 28 H 15 V 29 H 9.78 L 8,31.88 V 33 H 9.78 L 11.58,31 H 15 V 32 H 11 V 34 H 15 V 35 H 8 V 37 H 25 V 35 H 18 V 34 H 23 V 32 H 18 V 31 H 24 V 29 H 18 V 28 H 23 V 20 Z M 21,22 H 12 V 26 H 21 V 22 Z M 13,23 H 20 V 25 H 13 V 23 Z M 38,20 H 28 V 29 H 32 V 31 H 29 V 33 H 32 V 34.8 L 28,35.35 L 28.18,37 L 38,35.65 L 37.82,34 L 34,34.53 V 33 H 37 V 31 H 34 V 29 H 38 V 20 Z M 36,22 H 30 V 27 H 36 V 22 Z M 32.35,23 H 33.65 V 23.24 C 33.65,23.67 34.11,24.02 34.68,24.02 H 35 V 24.98 H 34.68 C 34.11,24.98 33.65,25.33 33.65,25.76 V 26 H 32.35 V 25.76 C 32.35,25.33 31.89,24.98 31.32,24.98 H 31 V 24.02 H 31.32 C 31.89,24.02 32.35,23.67 32.35,23.24 V 23 Z" fill="rgb(249, 249, 248)" fill-rule="evenodd"/>
<path d="M 43.99,28.985 V 37 H 42 V 29 H 44 Z" fill="rgb(249, 249, 248)"/>
<path d="M 47.99,25.985 H 40 V 27.5 H 46.1 C 46.16,27.7 46.27,28.13 46.27,28.3 C 46.27,28.5 45.42,29.39 45,29.8 L 45.8,31 L 48,28.54 V 26 Z M 48,20 H 40 V 21.5 H 45.86 C 45.94,21.68 46.06,21.9 46.06,22.04 C 46.06,22.21 44.29,23.57 43.81,23.94 L 44.71,25 L 48,22.25 V 20 Z" fill="rgb(249, 249, 248)"/>
</svg>
