<?xml version="1.0" encoding="UTF-8"?>
<!-- generated by Finnhub -->
<svg viewBox="0 0 55.5 55.5" xmlns="http://www.w3.org/2000/svg">
<path d="M 0,0 H 55.5 V 55.5 H 0 Z" fill="rgb(139, 184, 202)"/>
<path d="M 18.2,21.985 H 21.72 L 21.62,22.4 H 21.39 C 21.02,22.4 20.96,22.44 20.83,22.5 H 20.81 A 0.73,0.73 0 0,0 20.48,22.87 C 20.31,23.3 20.17,23.74 20.06,24.19 L 18.89,29.73 C 18.77,30.16 18.67,30.6 18.59,31.03 A 0.46,0.46 0 0,0 18.69,31.45 C 18.79,31.53 18.84,31.58 19.16,31.58 H 19.48 L 19.38,31.98 H 15.86 L 15.97,31.58 H 16.27 C 16.57,31.58 16.62,31.55 16.73,31.48 L 16.79,31.45 C 16.94,31.35 17.07,31.22 17.14,31.05 C 17.3,30.61 17.44,30.16 17.55,29.71 L 18.04,27.41 H 13.58 L 13.08,29.74 C 12.96,30.17 12.86,30.61 12.78,31.04 A 0.46,0.46 0 0,0 12.9,31.46 C 13,31.55 13.04,31.59 13.36,31.59 H 13.68 L 13.58,32 H 10.06 L 10.16,31.6 H 10.46 C 10.76,31.6 10.81,31.56 10.93,31.48 L 10.99,31.45 C 11.14,31.35 11.27,31.22 11.34,31.05 C 11.5,30.61 11.64,30.16 11.74,29.71 L 12.94,24.17 C 13.06,23.74 13.15,23.31 13.22,22.87 C 13.24,22.69 13.2,22.57 13.11,22.51 H 13.09 C 12.99,22.44 12.95,22.41 12.56,22.41 H 12.14 C 11.72,22.5 11.42,22.68 10.8,23.17 C 10.02,23.79 9.1,24.56 8.11,25.49 C 8.48,26.15 9.03,26.94 9.52,27.66 L 10.3,28.82 C 10.72,29.47 10.92,29.6 11.41,29.66 L 11.35,30 H 8.38 L 8.41,29.69 S 9.01,29.67 9.04,29.49 A 0.84,0.84 0 0,0 8.9,29.02 L 8.69,28.68 L 8.52,28.41 C 7.92,27.48 7.25,26.41 6.97,25.89 L 6.49,28.17 C 6.23,29.5 6.29,29.58 7.21,29.66 L 7.13,30 H 4 L 4.07,29.66 C 4.93,29.58 5.04,29.5 5.32,28.16 L 6.23,23.84 C 6.52,22.51 6.43,22.42 5.53,22.34 L 5.6,22 H 8.74 L 8.67,22.35 C 7.8,22.42 7.69,22.51 7.41,23.83 L 6.99,25.8 H 7.02 L 7.46,25.43 L 7.74,25.18 C 8.44,24.58 9.54,23.52 10.1,22.94 C 10.45,22.58 10.45,22.44 10.13,22.41 L 9.7,22.35 L 9.78,22 H 15.92 L 15.82,22.42 H 15.59 C 15.22,22.42 15.16,22.45 15.03,22.5 L 15.01,22.52 A 0.74,0.74 0 0,0 14.68,22.87 C 14.5,23.3 14.37,23.75 14.26,24.2 L 13.68,27 H 18.14 L 18.73,24.17 C 18.85,23.74 18.95,23.31 19.02,22.87 C 19.03,22.69 18.99,22.57 18.9,22.51 H 18.89 C 18.79,22.44 18.74,22.41 18.36,22.41 H 18.1 L 18.21,22.01 Z M 39.51,30 H 41.18 L 41.14,30.21 H 41.06 C 40.95,30.21 40.83,30.21 40.72,30.26 A 0.3,0.3 0 0,0 40.59,30.42 C 40.53,30.62 40.48,30.82 40.44,31.03 L 40.04,32.95 A 5.79,5.79 0 0,0 39.94,33.65 L 39.99,33.74 C 40.09,33.79 40.19,33.81 40.29,33.8 H 40.4 L 40.36,34 H 38.69 L 38.73,33.8 H 38.88 C 38.98,33.8 39.09,33.79 39.18,33.74 C 39.25,33.7 39.3,33.64 39.33,33.55 C 39.39,33.35 39.44,33.15 39.48,32.93 L 39.65,32.03 H 37.87 L 37.68,32.95 A 5.33,5.33 0 0,0 37.59,33.66 A 0.2,0.2 0 0,0 37.63,33.73 C 37.73,33.79 37.83,33.81 37.93,33.79 H 38.06 L 38.02,33.99 H 36.35 L 36.39,33.79 H 36.51 C 36.61,33.8 36.73,33.79 36.83,33.73 C 36.89,33.69 36.94,33.63 36.97,33.55 C 37.03,33.35 37.08,33.15 37.12,32.93 L 37.52,31.01 A 4.3,4.3 0 0,0 37.61,30.33 A 0.17,0.17 0 0,0 37.56,30.25 A 0.64,0.64 0 0,0 37.23,30.21 H 37.13 L 37.17,30.01 H 38.84 L 38.8,30.21 H 38.71 C 38.59,30.21 38.48,30.21 38.37,30.26 A 0.3,0.3 0 0,0 38.24,30.42 C 38.17,30.62 38.12,30.82 38.08,31.03 L 37.93,31.77 H 39.72 L 39.87,31.01 C 39.91,30.81 39.95,30.61 39.97,30.41 V 30.39 L 39.96,30.31 A 0.16,0.16 0 0,0 39.91,30.25 A 0.63,0.63 0 0,0 39.59,30.2 H 39.46 L 39.5,30 Z M 42.53,31.65 A 0.9,0.9 0 0,1 42.87,31.92 A 1.01,1.01 0 0,1 43,32.78 C 42.93,33.13 42.75,33.45 42.47,33.68 C 42.22,33.88 41.91,34 41.58,34 A 0.91,0.91 0 0,1 40.83,33.67 A 0.87,0.87 0 0,1 40.65,33.12 C 40.65,33 40.65,32.89 40.68,32.78 C 40.76,32.44 40.95,32.13 41.21,31.92 C 41.46,31.7 41.78,31.57 42.11,31.57 C 42.26,31.57 42.41,31.59 42.53,31.65 Z M 42.16,33.6 C 42.32,33.45 42.43,33.17 42.52,32.79 C 42.6,32.4 42.61,32.13 42.52,31.97 A 0.44,0.44 0 0,0 42.09,31.74 A 0.73,0.73 0 0,0 41.54,31.98 C 41.38,32.14 41.26,32.42 41.18,32.8 C 41.1,33.19 41.1,33.46 41.18,33.61 A 0.45,0.45 0 0,0 41.61,33.83 A 0.74,0.74 0 0,0 42.16,33.6 Z M 46.11,31.7 C 45.95,31.79 45.79,31.9 45.66,32.05 A 0.55,0.55 0 0,0 45.51,31.7 A 0.59,0.59 0 0,0 45.09,31.56 A 1,1 0 0,0 44.62,31.68 C 44.48,31.76 44.35,31.87 44.22,31.98 L 44.26,31.73 L 44.24,31.59 V 31.56 H 44.18 C 43.98,31.63 43.76,31.66 43.55,31.69 H 43.53 L 43.48,31.87 H 43.52 A 0.4,0.4 0 0,1 43.74,31.91 A 0.1,0.1 0 0,1 43.78,31.96 V 32.02 L 43.7,32.49 L 43.55,33.19 L 43.43,33.67 A 0.2,0.2 0 0,1 43.33,33.77 A 0.56,0.56 0 0,1 43.1,33.82 H 43.07 L 43.03,34 H 44.15 L 44.19,33.82 H 44.16 C 44.08,33.82 44,33.82 43.93,33.78 A 0.11,0.11 0 0,1 43.89,33.68 V 33.66 L 43.96,33.31 L 43.98,33.2 L 44.18,32.25 C 44.3,32.12 44.43,32.01 44.58,31.92 C 44.68,31.85 44.8,31.82 44.92,31.81 A 0.3,0.3 0 0,1 45.15,31.89 A 0.26,0.26 0 0,1 45.23,32.1 C 45.22,32.25 45.19,32.4 45.16,32.54 L 45.03,33.18 C 45,33.35 44.96,33.51 44.9,33.68 A 0.2,0.2 0 0,1 44.8,33.78 A 0.55,0.55 0 0,1 44.57,33.82 H 44.55 L 44.51,34 H 45.6 L 45.64,33.82 H 45.6 A 0.3,0.3 0 0,1 45.4,33.78 A 0.11,0.11 0 0,1 45.38,33.73 L 45.37,33.69 V 33.66 L 45.45,33.2 L 45.65,32.3 C 45.77,32.15 45.91,32.02 46.05,31.92 C 46.16,31.84 46.28,31.8 46.41,31.79 C 46.49,31.79 46.58,31.81 46.64,31.87 C 46.67,31.89 46.69,31.92 46.7,31.95 L 46.72,32.05 C 46.72,32.17 46.7,32.28 46.67,32.39 L 46.51,33.16 C 46.48,33.33 46.44,33.5 46.39,33.66 A 0.2,0.2 0 0,1 46.29,33.76 A 0.55,0.55 0 0,1 46.05,33.8 H 46.03 L 45.99,34 H 47.12 L 47.16,33.8 H 47.12 C 47.04,33.81 46.96,33.8 46.89,33.77 A 0.1,0.1 0 0,1 46.85,33.72 A 4.8,4.8 0 0,1 46.93,33.18 L 47.08,32.5 C 47.13,32.33 47.15,32.16 47.16,31.99 A 0.41,0.41 0 0,0 46.99,31.69 A 0.62,0.62 0 0,0 46.59,31.56 A 0.99,0.99 0 0,0 46.11,31.69 Z M 50.11,32.19 A 0.9,0.9 0 0,1 50.59,31.59 A 0.66,0.66 0 0,1 50.85,31.54 A 0.46,0.46 0 0,1 51.27,31.76 L 51.39,31.59 V 31.57 H 51.54 L 51.38,32.32 H 51.23 V 32.29 A 0.76,0.76 0 0,0 51.13,31.88 A 0.33,0.33 0 0,0 51,31.75 A 0.32,0.32 0 0,0 50.83,31.71 C 50.73,31.71 50.64,31.75 50.57,31.81 A 0.41,0.41 0 0,0 50.43,32.03 A 0.26,0.26 0 0,0 50.47,32.26 C 50.57,32.36 50.68,32.45 50.81,32.5 C 51.09,32.65 51.24,32.79 51.28,32.93 A 0.84,0.84 0 0,1 51.01,33.82 A 0.81,0.81 0 0,1 50.48,34 A 0.58,0.58 0 0,1 50.01,33.77 A 0.82,0.82 0 0,0 49.87,33.98 V 34 H 49.71 L 49.89,33.2 H 50.03 V 33.23 C 50.06,33.63 50.21,33.83 50.5,33.83 A 0.4,0.4 0 0,0 50.8,33.71 A 0.53,0.53 0 0,0 50.95,33.45 A 0.32,0.32 0 0,0 50.92,33.19 C 50.82,33.09 50.7,32.99 50.57,32.93 C 50.42,32.85 50.27,32.73 50.17,32.6 A 0.5,0.5 0 0,1 50.11,32.19 Z M 49.58,31.83 C 49.46,31.64 49.25,31.56 48.97,31.56 C 48.65,31.56 48.35,31.69 48.13,31.91 C 47.87,32.15 47.7,32.45 47.63,32.79 C 47.57,33.01 47.58,33.23 47.65,33.44 A 0.84,0.84 0 0,0 48.47,34 C 48.67,34 48.87,33.94 49.05,33.83 C 49.24,33.73 49.39,33.58 49.49,33.39 L 49.51,33.35 H 49.34 L 49.33,33.36 A 0.9,0.9 0 0,1 48.58,33.79 A 0.41,0.41 0 0,1 48.31,33.73 A 0.43,0.43 0 0,1 48.14,33.53 A 0.9,0.9 0 0,1 48.09,33.21 C 48.09,33.02 48.11,32.84 48.16,32.66 L 48.21,32.45 H 49.71 V 32.27 A 0.8,0.8 0 0,0 49.58,31.83 Z M 49.25,32.18 L 49.22,32.28 L 48.26,32.27 C 48.41,31.9 48.62,31.71 48.92,31.71 A 0.33,0.33 0 0,1 49.2,31.83 C 49.24,31.89 49.27,31.96 49.26,32.03 L 49.25,32.18 Z M 42.88,23.6 A 0.67,0.67 0 0,0 42.64,23.95 A 0.44,0.44 0 0,0 42.7,24.33 A 0.38,0.38 0 0,0 43.02,24.49 A 0.6,0.6 0 0,0 43.41,24.34 C 43.52,24.24 43.61,24.12 43.64,23.98 A 0.43,0.43 0 0,0 43.59,23.61 A 0.37,0.37 0 0,0 43.27,23.45 A 0.61,0.61 0 0,0 42.88,23.6 Z M 28.48,25 H 27.18 L 27.11,25.31 H 27.19 A 0.36,0.36 0 0,1 27.46,25.41 C 27.48,25.43 27.49,25.46 27.49,25.49 A 0.3,0.3 0 0,1 27.49,25.56 A 2.7,2.7 0 0,1 27.14,26.18 L 25.92,28.08 L 25.51,25.97 A 2.62,2.62 0 0,1 25.44,25.5 C 25.44,25.46 25.46,25.44 25.48,25.41 A 0.17,0.17 0 0,1 25.55,25.36 A 0.98,0.98 0 0,1 25.89,25.31 H 25.94 L 26,25 H 24.3 L 24.23,25.31 H 24.3 A 0.32,0.32 0 0,1 24.57,25.41 C 24.65,25.59 24.71,25.77 24.73,25.96 L 25.33,29 H 25.65 L 27.4,26.3 C 27.58,26.02 27.77,25.75 28,25.5 A 0.6,0.6 0 0,1 28.37,25.32 H 28.41 L 28.48,25 Z M 29.98,25.7 C 30.18,25.5 30.41,25.34 30.65,25.21 C 30.9,25.08 31.17,25.01 31.45,25.01 C 32.36,24.94 32.48,25.81 32.3,26.51 L 32.03,27.69 A 7.99,7.99 0 0,0 31.88,28.56 L 31.94,28.63 C 32.05,28.68 32.18,28.7 32.31,28.69 H 32.38 L 32.31,28.99 H 30.41 L 30.47,28.69 H 30.6 C 30.73,28.69 30.87,28.67 30.99,28.6 C 31.05,28.55 31.09,28.48 31.12,28.4 C 31.15,28.32 31.21,28.07 31.3,27.66 L 31.56,26.46 C 31.61,26.26 31.65,26.05 31.66,25.84 A 0.4,0.4 0 0,0 31.53,25.54 A 0.53,0.53 0 0,0 31.15,25.42 C 30.93,25.42 30.71,25.49 30.53,25.61 C 30.28,25.76 30.06,25.96 29.87,26.18 L 29.53,27.69 A 7.19,7.19 0 0,0 29.38,28.49 C 29.38,28.52 29.38,28.55 29.4,28.57 C 29.4,28.59 29.43,28.61 29.45,28.63 A 0.7,0.7 0 0,0 29.82,28.69 H 29.9 L 29.83,29 H 27.92 L 27.99,28.69 H 28.03 A 1,1 0 0,0 28.43,28.63 C 28.51,28.6 28.57,28.53 28.6,28.46 C 28.69,28.2 28.76,27.92 28.8,27.65 L 29.06,26.53 A 7.04,7.04 0 0,0 29.2,25.65 A 0.16,0.16 0 0,0 29.15,25.59 A 0.7,0.7 0 0,0 28.77,25.53 H 28.7 L 28.77,25.21 H 28.81 C 29.15,25.18 29.49,25.1 29.82,25 H 30.01 V 25.07 L 30.02,25.18 C 30.02,25.36 30.01,25.53 29.98,25.7 Z M 39.26,25.2 C 39.01,25.33 38.79,25.5 38.58,25.69 A 2.76,2.76 0 0,0 38.62,25.02 V 25 H 38.43 C 38.1,25.1 37.76,25.17 37.43,25.2 H 37.38 L 37.31,25.52 H 37.36 C 37.5,25.52 37.63,25.52 37.76,25.58 C 37.81,25.61 37.84,25.68 37.83,25.73 C 37.79,26 37.73,26.26 37.67,26.53 L 37.42,27.64 C 37.37,27.92 37.3,28.19 37.22,28.45 C 37.12,28.66 36.85,28.69 36.64,28.68 H 36.6 L 36.53,29 H 38.44 L 38.51,28.68 H 38.43 C 38.26,28.7 37.99,28.68 37.99,28.46 C 38.03,28.2 38.08,27.94 38.15,27.68 L 38.48,26.18 C 38.68,25.95 38.89,25.76 39.14,25.61 C 39.33,25.49 39.54,25.42 39.76,25.41 C 39.9,25.41 40.04,25.45 40.14,25.55 C 40.18,25.58 40.22,25.63 40.24,25.68 C 40.26,25.73 40.28,25.78 40.28,25.84 C 40.26,26.04 40.23,26.25 40.18,26.45 L 39.91,27.65 L 39.73,28.41 C 39.66,28.63 39.43,28.71 39.21,28.69 H 39.08 L 39.01,29 H 40.92 L 40.99,28.69 H 40.92 C 40.78,28.7 40.45,28.69 40.48,28.47 C 40.48,28.38 40.54,28.12 40.64,27.69 L 40.9,26.52 C 40.97,26.25 41,25.98 41,25.71 C 40.98,25.24 40.5,24.97 40.06,25.01 C 39.78,25.01 39.51,25.07 39.26,25.21 Z M 42.09,25.24 C 42.51,25.21 42.92,25.13 43.31,25 H 43.51 L 42.91,27.69 A 10,10 0 0,0 42.76,28.44 C 42.7,28.7 43.04,28.69 43.23,28.69 H 43.3 L 43.23,29 H 41.22 L 41.29,28.69 H 41.35 C 41.6,28.69 41.9,28.69 42,28.41 L 42.18,27.65 L 42.43,26.51 C 42.55,25.98 42.57,25.79 42.55,25.73 C 42.57,25.53 42.25,25.54 42.07,25.55 H 41.98 L 42.05,25.24 H 42.09 Z M 50.27,25.2 C 50.02,25.33 49.8,25.5 49.59,25.69 A 2.8,2.8 0 0,0 49.63,25.06 V 25 H 49.44 C 49.11,25.1 48.78,25.17 48.44,25.2 H 48.39 L 48.32,25.52 H 48.39 C 48.65,25.52 48.74,25.55 48.77,25.58 C 48.79,25.59 48.81,25.62 48.82,25.65 C 48.83,25.67 48.84,25.7 48.83,25.73 A 7,7 0 0,1 48.68,26.53 L 48.43,27.64 C 48.37,27.92 48.3,28.19 48.22,28.45 A 0.33,0.33 0 0,1 48.06,28.62 C 47.91,28.67 47.76,28.68 47.61,28.68 L 47.54,29 H 49.45 L 49.52,28.68 H 49.45 C 49.29,28.7 49,28.68 49.01,28.46 L 49.16,27.68 L 49.5,26.18 C 49.69,25.95 49.9,25.75 50.15,25.6 C 50.35,25.48 50.55,25.42 50.77,25.41 C 50.91,25.4 51.05,25.45 51.16,25.54 A 0.4,0.4 0 0,1 51.29,25.83 C 51.27,26.03 51.24,26.24 51.19,26.45 L 50.93,27.65 L 50.75,28.4 C 50.67,28.62 50.45,28.7 50.22,28.68 H 50.1 L 50,29 H 51.92 L 51.99,28.69 H 51.91 C 51.77,28.7 51.44,28.69 51.48,28.47 C 51.48,28.38 51.54,28.12 51.63,27.69 L 51.9,26.52 C 51.97,26.25 52,25.98 52,25.71 C 51.97,25.23 51.49,24.97 51.05,25.01 C 50.78,25.01 50.51,25.07 50.27,25.21 Z M 35.83,28.54 C 36.06,28.54 36.19,28.3 36.26,28.11 H 36.53 C 36.39,28.61 36.1,28.99 35.55,28.99 C 35.22,29.04 34.93,28.75 34.95,28.42 V 28.4 C 34.69,28.57 34.42,28.71 34.13,28.83 C 33.91,28.93 33.68,28.99 33.43,29 C 33.08,29.01 32.67,28.76 32.66,28.36 C 32.66,28.29 32.66,28.21 32.68,28.14 C 32.76,27.82 32.98,27.54 33.32,27.3 C 33.75,27.03 34.21,26.8 34.68,26.64 L 35.39,26.36 L 35.42,26.22 L 35.43,26.2 C 35.49,25.96 35.59,25.6 35.35,25.43 A 0.73,0.73 0 0,0 34.89,25.31 C 34.48,25.31 34.23,25.45 34.12,25.72 C 33.99,26.05 33.82,26.22 33.6,26.22 A 0.25,0.25 0 0,1 33.33,25.88 C 33.38,25.7 33.54,25.5 33.83,25.3 C 34.13,25.1 34.52,25 35.03,25 C 35.4,25 35.67,25.06 35.86,25.19 C 36.27,25.43 36.25,25.94 36.13,26.34 L 35.8,27.81 C 35.73,28.01 35.7,28.23 35.7,28.45 C 35.7,28.5 35.72,28.54 35.83,28.54 Z M 34.33,28.41 C 34.57,28.3 34.79,28.17 35.01,28.02 L 35.05,27.84 L 35.31,26.71 L 34.9,26.87 C 34.1,27.17 33.65,27.55 33.54,28 C 33.49,28.23 33.56,28.57 33.86,28.54 C 34.03,28.53 34.19,28.49 34.34,28.41 Z M 23.71,25.58 C 23.42,25.2 23,25 22.45,25 S 21.37,25.2 20.95,25.57 C 20.51,25.92 20.2,26.42 20.07,26.97 C 19.93,27.59 20,28.08 20.3,28.45 C 20.6,28.82 21.01,29 21.55,29 S 22.61,28.81 23.03,28.47 C 23.5,28.11 23.82,27.59 23.93,27.01 C 24.07,26.45 23.99,25.97 23.71,25.58 Z M 23.1,27 A 2.76,2.76 0 0,1 22.5,28.32 A 1.27,1.27 0 0,1 21.58,28.69 C 21.24,28.69 21,28.57 20.87,28.33 A 0.93,0.93 0 0,1 20.77,27.91 C 20.77,27.61 20.81,27.31 20.88,27.03 C 21.03,26.41 21.23,25.96 21.48,25.7 A 1.25,1.25 0 0,1 22.4,25.31 C 22.75,25.31 22.99,25.44 23.12,25.68 C 23.24,25.93 23.24,26.38 23.1,27 Z M 46.83,28.53 C 47.06,28.53 47.18,28.3 47.25,28.11 H 47.53 L 47.5,28.19 C 47.35,28.72 47.03,29 46.55,29 C 46.21,29 45.92,28.74 45.95,28.42 V 28.4 C 45.68,28.57 45.41,28.71 45.13,28.83 C 44.91,28.93 44.67,28.99 44.43,29 C 43.95,29.02 43.56,28.61 43.68,28.14 C 43.75,27.82 43.97,27.54 44.32,27.31 C 44.75,27.03 45.21,26.81 45.69,26.63 L 46.39,26.36 L 46.43,26.21 C 46.47,26.04 46.5,25.87 46.5,25.7 V 25.69 C 46.47,25.4 46.14,25.29 45.9,25.31 C 45.48,25.31 45.23,25.45 45.12,25.72 C 44.99,26.05 44.82,26.22 44.6,26.22 A 0.25,0.25 0 0,1 44.33,25.88 C 44.38,25.7 44.54,25.5 44.83,25.3 C 45.13,25.1 45.52,25 46.03,25 C 46.4,25 46.68,25.06 46.86,25.19 C 47.27,25.43 47.25,25.94 47.13,26.34 L 46.8,27.8 C 46.73,28.01 46.7,28.23 46.7,28.44 C 46.7,28.49 46.72,28.54 46.83,28.54 Z M 45.34,28.4 C 45.57,28.3 45.8,28.17 46.01,28.02 A 120.94,120.94 0 0,1 46.31,26.72 L 45.9,26.87 C 45.1,27.17 44.65,27.55 44.55,27.99 C 44.49,28.23 44.57,28.56 44.86,28.53 C 45.03,28.53 45.19,28.48 45.34,28.4 Z" fill="rgb(254, 254, 253)"/>
</svg>
