<?xml version="1.0" encoding="UTF-8"?>
<!-- generated by Finnhub -->
<svg viewBox="0 0 55.5 55.5" xmlns="http://www.w3.org/2000/svg">
<path d="M 0,0 H 55.5 V 55.5 H 0 Z" fill="rgb(239, 242, 248)"/>
<path d="M 9.99,23.985 V 32 H 8.64 V 28.56 H 5.36 V 32 H 4 V 24 H 5.36 V 27.27 H 8.64 V 24 H 10 Z M 13.5,32 C 13.14,32 12.77,31.97 12.4,31.9 A 2,2 0 0,1 11.62,31.54 C 11.41,31.39 11.25,31.17 11.15,30.93 C 11.05,30.63 10.99,30.3 11,29.97 V 26 H 12.38 V 29.77 L 12.41,30.22 C 12.43,30.33 12.48,30.45 12.56,30.53 C 12.65,30.63 12.76,30.7 12.89,30.73 C 13.09,30.78 13.29,30.8 13.5,30.8 C 13.7,30.8 13.91,30.78 14.1,30.73 A 0.7,0.7 0 0,0 14.45,30.53 C 14.52,30.44 14.57,30.33 14.59,30.22 L 14.62,29.77 V 26 H 16 V 29.96 C 16,30.72 15.8,31.25 15.39,31.55 C 14.99,31.85 14.36,32 13.51,32 Z M 16.5,32 V 24 H 18 V 26.44 C 18.15,26.3 18.26,26.19 18.45,26.12 C 18.77,26.02 19.1,25.96 19.43,25.98 C 20.09,25.98 20.61,26.13 20.99,26.42 C 21.37,26.72 21.5,27.22 21.5,27.91 V 32 H 20 V 28.2 C 20,27.47 19.82,26.98 19.13,27 C 18.26,26.98 17.99,27.65 18,28.48 V 32 H 16.5 Z" fill="rgb(1, 39, 108)"/>
<path d="M 30.99,31.985 V 28.02 C 31,27.69 31.04,27.37 31.15,27.07 C 31.25,26.83 31.39,26.61 31.59,26.45 C 31.8,26.29 32.05,26.17 32.31,26.11 C 32.63,26.04 32.96,26.01 33.29,26.01 C 33.63,26.01 33.98,26.06 34.31,26.18 C 34.57,26.27 34.81,26.43 34.99,26.65 C 35.18,26.43 35.42,26.25 35.69,26.17 A 4,4 0 0,1 37.69,26.11 C 37.95,26.17 38.19,26.28 38.41,26.45 C 38.61,26.61 38.76,26.82 38.85,27.07 C 38.95,27.37 39.01,27.69 39,28.01 V 32 H 37.5 V 28.22 C 37.5,27.54 37.37,27.18 36.64,27.2 C 36.05,27.18 35.74,27.47 35.75,28.1 V 32 H 34.25 V 28.22 C 34.25,27.85 34.29,27.38 33.86,27.26 C 33.52,27.18 33.16,27.18 32.82,27.26 C 32.4,27.38 32.5,27.86 32.5,28.22 V 32 H 31 Z M 46.5,28.37 L 48.22,26 H 49.77 L 47.62,28.76 L 50,32 H 48.4 L 46.5,29.31 V 32 H 45 V 24 H 46.5 V 28.37 Z M 52,24.75 A 0.85,0.85 0 0,1 51.83,25.33 A 1.07,1.07 0 0,1 50.67,25.33 A 0.8,0.8 0 0,1 50.5,24.75 A 0.84,0.84 0 0,1 50.67,24.18 A 1.04,1.04 0 0,1 51.83,24.18 A 0.8,0.8 0 0,1 52,24.75 Z M 52,26 H 50.5 V 32 H 52 V 26 Z" fill="rgb(63, 129, 208)"/>
<path d="M 24.369999999999997,30.485 C 23.66,30.51 23.48,30.37 23.5,29.66 V 27.5 H 24.83 L 25,26 H 23.5 V 24 L 22,24.22 V 26 H 21.5 V 27.5 H 22 V 29.74 C 21.97,31.27 22.88,32.03 24.28,32 H 25.14 L 25.5,30.5 H 24.38 Z M 29.04,28.21 C 29,27.41 29.04,27.5 27.99,27.5 H 25.97 L 26.2,26 H 28.1 C 28.98,26 29.62,26.17 30.03,26.5 C 30.43,26.83 30.64,27.35 30.63,28.05 V 30.92 C 30.63,31.32 30.55,31.61 30.38,31.76 C 30.21,31.92 29.91,32 29.49,32 H 27.74 C 26.98,32 26.44,31.85 26.11,31.54 C 25.79,31.24 25.64,30.79 25.64,30.21 V 29.96 C 25.64,28.72 26.59,28 27.81,28 C 28.26,27.99 28.65,28.05 29.04,28.21 Z M 29.04,30.13 C 29.04,29.48 28.78,29.49 28.19,29.5 H 28.03 C 27.31,29.5 27.01,29.4 27.01,30.2 C 27.01,30.3 27,30.4 27.03,30.5 C 27.16,30.85 27.57,31 27.93,31 H 29.03 V 30.13 Z" fill="rgb(1, 39, 108)"/>
<path d="M 42.99,28.195 C 42.96,27.41 42.9,27.5 41.86,27.5 H 39.84 L 40.06,26 H 41.97 C 42.84,26 43.48,26.17 43.89,26.5 C 44.3,26.83 44.5,27.35 44.5,28.05 V 30.92 C 44.5,31.32 44.41,31.61 44.24,31.76 C 44.07,31.92 43.78,32 43.36,32 H 41.6 C 40.84,32 40.3,31.85 39.98,31.54 C 39.66,31.24 39.5,30.79 39.5,30.21 V 29.96 C 39.5,28.72 40.45,28 41.67,28 C 42.12,27.99 42.61,28.05 43,28.21 Z M 43,30.13 C 43.01,29.48 42.64,29.49 42.06,29.5 H 41.9 C 41.17,29.5 40.88,29.4 40.88,30.2 C 40.87,30.3 40.86,30.4 40.89,30.5 C 41.02,30.85 41.43,31 41.79,31 H 43 V 30.13 Z" fill="rgb(63, 129, 208)"/>
</svg>
