<?xml version="1.0" encoding="UTF-8"?>
<!-- generated by Finnhub -->
<svg viewBox="0 0 55.5 55.5" xmlns="http://www.w3.org/2000/svg">
<path d="M 0,0 H 55.5 V 55.5 H 0 Z" fill="rgb(239, 242, 248)"/>
<path d="M 10.99,19.485 L 9,21 V 33 L 11,34.5 V 19.5 Z M 20,11 L 16,14 V 39.5 L 20,43 V 11 Z" fill="rgb(32, 89, 141)"/>
<path d="M 7.99,27.985 H 48 V 29 H 8 Z M 22,21 V 24.8 C 22,25.7 22.38,26.02 23.17,26.02 C 23.97,26.02 24.5,25.7 24.5,24.82 V 21 H 25.5 V 24.8 C 25.5,26.08 24.46,27 23.17,27 C 21.87,27 21,26.08 21,24.8 V 21 H 22 Z M 28.38,21 A 3.06,3.06 0 0,1 31.5,24 A 3,3 0 0,1 28.38,27 H 26.5 V 21 H 28.38 Z M 28.38,26.02 C 29.69,26.02 30.5,25.35 30.5,24 C 30.5,22.75 29.67,22.03 28.38,22.03 L 27.5,22 V 26 L 28.38,26.02 Z M 34.1,27 C 33.1,27 32.12,26.4 32.12,25.32 L 33.1,25.15 C 33.14,25.65 33.5,26.02 34.1,26.02 C 34.73,26.02 35.03,25.82 35.03,25.32 C 35.03,24.65 34.37,24.48 33.85,24.34 C 32.95,24.09 32.14,23.74 32.14,22.67 C 32.14,21.59 33.05,21 34.06,21 C 35.03,21 35.88,21.58 35.96,22.6 H 34.95 C 34.91,22.09 34.46,22 34,22 C 33.47,22 33.07,22.1 33.07,22.64 C 33.07,23.27 33.79,23.44 34.28,23.57 C 35.18,23.83 36.03,24.21 36.03,25.27 C 36.03,26.34 35.09,27 34.1,27 Z M 39.5,27 C 37.84,27 36.5,25.61 36.5,24 C 36.5,22.4 37.85,21 39.5,21 A 3,3 0 0,1 42.5,23.97 A 3.05,3.05 0 0,1 39.5,27 Z M 39.5,26 C 40.71,26 41.5,25.11 41.5,23.97 C 41.5,22.84 40.7,21.97 39.5,21.97 C 38.29,21.97 37.5,22.87 37.5,24 C 37.5,25.14 38.28,26 39.5,26 Z M 48,27 H 47 L 44,22.56 V 27 H 43 V 21 H 44 L 47,25.44 V 21 H 48 V 27 Z" fill="rgb(32, 89, 141)"/>
<path d="M 24.009999999999998,32.205 C 24.02,33.05 23.21,33.38 22.49,33.38 H 21.71 V 35 H 21 V 31 H 22.5 C 23.2,31 24.02,31.43 24.02,32.22 Z M 22.49,32.85 C 23.03,32.85 23.29,32.62 23.29,32.22 C 23.29,31.79 23.02,31.57 22.49,31.57 H 21.71 V 32.85 H 22.49 Z M 27.92,34.17 H 26.1 L 25.79,35 H 25.05 L 26.6,31 H 27.42 L 28.96,35 H 28.22 L 27.91,34.17 Z M 27.72,33.64 L 27.02,31.82 L 26.31,33.64 H 27.71 Z M 30.03,33 C 30.03,32.62 30.13,32.27 30.33,31.97 C 30.53,31.67 30.79,31.43 31.13,31.26 C 31.46,31.09 31.83,31 32.23,31 C 32.69,31 33.1,31.1 33.46,31.31 C 33.82,31.51 34.08,31.81 34.24,32.18 H 33.39 C 33.28,31.98 33.12,31.82 32.92,31.72 A 1.5,1.5 0 0,0 32.23,31.56 C 31.95,31.56 31.69,31.62 31.47,31.74 C 31.25,31.85 31.07,32.02 30.94,32.24 A 1.5,1.5 0 0,0 30.76,33 C 30.76,33.29 30.82,33.54 30.94,33.76 C 31.07,33.98 31.24,34.15 31.47,34.26 C 31.69,34.38 31.95,34.44 32.23,34.44 C 32.5,34.44 32.73,34.39 32.93,34.29 C 33.13,34.19 33.28,34.03 33.39,33.83 H 34.24 C 34.08,34.2 33.82,34.49 33.46,34.7 C 33.1,34.9 32.69,35 32.23,35 C 31.83,35 31.46,34.92 31.13,34.75 C 30.79,34.57 30.53,34.34 30.33,34.03 C 30.13,33.73 30.03,33.38 30.03,33 Z M 36.7,31 V 35 H 36 V 31 H 36.7 Z M 40.54,31 V 31.57 H 38.71 V 32.73 H 40.14 V 33.25 H 38.7 V 35 H 38 V 31 H 40.54 Z M 42.7,31 V 35 H 42 V 31 H 42.7 Z M 43.79,33 C 43.79,32.62 43.89,32.27 44.09,31.97 C 44.28,31.67 44.55,31.43 44.89,31.26 C 45.22,31.09 45.59,31 45.99,31 C 46.45,31 46.86,31.1 47.22,31.31 C 47.58,31.51 47.84,31.81 48,32.18 H 47.15 C 47.04,31.98 46.88,31.82 46.68,31.72 A 1.5,1.5 0 0,0 45.99,31.56 C 45.71,31.56 45.45,31.62 45.23,31.74 C 45.01,31.85 44.83,32.02 44.7,32.24 A 1.5,1.5 0 0,0 44.52,33 C 44.52,33.29 44.58,33.54 44.7,33.76 C 44.83,33.98 45,34.15 45.23,34.26 C 45.45,34.38 45.71,34.44 45.99,34.44 C 46.25,34.44 46.49,34.39 46.69,34.29 C 46.89,34.19 47.04,34.03 47.15,33.83 H 48 C 47.84,34.2 47.58,34.49 47.22,34.7 C 46.86,34.9 46.45,35 45.99,35 C 45.59,35 45.22,34.92 44.89,34.75 C 44.55,34.57 44.28,34.34 44.09,34.03 C 43.89,33.73 43.79,33.38 43.79,33 Z M 23.35,37.91 C 23.35,38.55 22.7,38.78 22.16,38.78 H 21.56 V 40 H 21 V 37 H 22.16 C 22.7,37 23.35,37.28 23.35,37.91 Z M 22.16,38.39 C 22.58,38.39 22.78,38.21 22.78,37.91 C 22.78,37.59 22.58,37.43 22.16,37.43 H 21.56 V 38.39 H 22.16 Z M 25.75,40 L 24.97,38.8 H 24.55 V 40 H 24 V 37 H 25.16 C 25.7,37 26.35,37.28 26.35,37.92 C 26.35,38.29 26.11,38.64 25.57,38.76 L 26.4,40 H 25.75 Z M 24.55,38.41 H 25.16 C 25.58,38.41 25.78,38.21 25.78,37.91 S 25.58,37.43 25.16,37.43 H 24.56 V 38.41 Z M 28.46,40 C 28.16,40 27.86,39.94 27.6,39.81 A 1.6,1.6 0 0,1 26.97,39.27 A 1.38,1.38 0 0,1 26.75,38.5 C 26.75,38.21 26.82,37.95 26.98,37.73 C 27.13,37.5 27.34,37.33 27.6,37.19 C 27.86,37.06 28.15,37 28.46,37 C 28.78,37 29.06,37.06 29.33,37.2 C 29.59,37.32 29.8,37.5 29.95,37.73 C 30.11,37.95 30.18,38.21 30.18,38.5 C 30.18,38.78 30.11,39.04 29.95,39.27 C 29.8,39.5 29.59,39.68 29.33,39.81 C 29.07,39.94 28.78,40 28.46,40 Z M 28.46,39.58 C 28.69,39.58 28.89,39.54 29.06,39.45 C 29.23,39.36 29.36,39.23 29.46,39.07 C 29.56,38.91 29.62,38.71 29.62,38.5 C 29.62,38.28 29.57,38.1 29.47,37.93 A 0.96,0.96 0 0,0 29.06,37.55 A 1.31,1.31 0 0,0 28.46,37.42 C 28.24,37.42 28.04,37.47 27.87,37.55 A 1,1 0 0,0 27.31,38.5 A 1.02,1.02 0 0,0 27.87,39.45 C 28.04,39.54 28.24,39.58 28.47,39.58 Z M 33,37.91 C 33,38.55 32.35,38.78 31.81,38.78 H 31.21 V 40 H 30.65 V 37 H 31.81 C 32.35,37 33,37.28 33,37.91 Z M 31.81,38.39 C 32.23,38.39 32.43,38.21 32.43,37.91 C 32.43,37.59 32.23,37.43 31.81,37.43 H 31.21 V 38.39 H 31.81 Z M 34,37.43 V 38.29 H 35.21 V 38.68 H 34 V 39.58 H 35.36 V 40 H 33.5 V 37 H 35.36 V 37.43 H 34 Z M 37.75,40 L 36.97,38.8 H 36.55 V 40 H 36 V 37 H 37.16 C 37.7,37 38.35,37.28 38.35,37.92 C 38.35,38.29 38.11,38.64 37.57,38.76 L 38.4,40 H 37.75 Z M 36.55,38.41 H 37.16 C 37.58,38.41 37.78,38.21 37.78,37.91 S 37.58,37.43 37.16,37.43 H 36.56 V 38.41 Z M 41.36,37 V 37.43 H 40.46 V 40 H 39.92 V 37.43 H 39.02 V 37 H 41.36 Z M 42.55,37 V 40 H 42 V 37 H 42.55 Z M 43.7,37.43 V 38.29 H 44.85 V 38.68 H 43.7 V 39.58 H 45 V 40 H 43.14 V 37 H 45 V 37.43 H 43.7 Z M 46.84,40 C 46.61,40 46.41,39.97 46.23,39.9 A 1,1 0 0,1 45.8,39.6 A 0.68,0.68 0 0,1 45.65,39.16 H 46.24 C 46.25,39.29 46.31,39.39 46.41,39.47 C 46.51,39.55 46.66,39.59 46.84,39.59 C 47.03,39.59 47.18,39.56 47.28,39.48 C 47.39,39.4 47.44,39.29 47.44,39.16 C 47.44,39.06 47.41,38.99 47.34,38.92 A 0.65,0.65 0 0,0 47.1,38.78 C 47,38.75 46.86,38.71 46.69,38.68 L 46.15,38.52 A 0.9,0.9 0 0,1 45.8,38.27 A 0.64,0.64 0 0,1 45.66,37.84 A 0.7,0.7 0 0,1 45.8,37.39 C 45.9,37.27 46.04,37.17 46.21,37.1 C 46.38,37.03 46.59,37 46.81,37 C 47.14,37 47.41,37.07 47.61,37.22 C 47.82,37.36 47.94,37.55 47.96,37.8 H 47.36 C 47.34,37.7 47.28,37.6 47.18,37.52 A 0.7,0.7 0 0,0 46.76,37.41 A 0.66,0.66 0 0,0 46.37,37.51 A 0.35,0.35 0 0,0 46.22,37.81 C 46.22,37.91 46.25,37.98 46.32,38.04 C 46.38,38.1 46.46,38.14 46.55,38.18 C 46.65,38.21 46.78,38.25 46.95,38.28 C 47.17,38.34 47.35,38.39 47.49,38.45 C 47.63,38.5 47.75,38.58 47.85,38.7 C 47.95,38.8 48,38.95 48,39.14 C 48,39.29 47.95,39.43 47.86,39.56 A 0.95,0.95 0 0,1 47.46,39.88 A 1.5,1.5 0 0,1 46.84,40 Z" fill="rgb(75, 147, 194)"/>
</svg>
