<?xml version="1.0" encoding="UTF-8"?>
<!-- generated by Finnhub -->
<svg viewBox="0 0 55.5 55.5" xmlns="http://www.w3.org/2000/svg">
<path d="M 0,0 H 55.5 V 55.5 H 0 Z" fill="rgb(239, 242, 248)"/>
<path d="M 31.529999999999998,21.044999999999998 C 30.27,22.16 29.73,23.11 28.82,24.73 C 29.1,25.24 29.34,25.78 29.37,26.43 L 29.85,25.66 C 30.75,24.26 32.15,22.82 33.97,22 L 34,22.03 V 22.09 C 32.22,23.34 29.97,27.37 29.52,28.07 C 30.52,27.68 31.39,26.99 32.04,27 C 32.26,27 32.44,27.06 32.6,27.28 L 32.75,27 H 33.39 L 32.39,29.33 C 32.33,29.57 32.35,29.77 32.8,29.23 C 33.33,28.63 33.63,27.68 34.26,27.22 C 34.36,27.12 34.62,27 34.85,27 C 35.02,27 35.18,27.06 35.23,27.24 L 35.33,27.46 C 35.64,27.3 35.96,26.99 36.29,27 C 36.83,27.02 36.89,27.57 36.71,27.98 C 36.23,28.73 35.69,30.52 37.04,29.02 C 37.58,28.29 38.09,27 39.11,27 C 39.24,27 39.38,27.02 39.52,27.06 C 39.73,27.19 39.79,27.28 39.73,27.46 C 39.67,27.58 39.49,27.64 39.37,27.58 C 39.19,27.49 39.28,27.09 38.8,27.4 C 38.43,27.8 38.07,28.75 37.92,29.09 C 37.83,29.33 37.86,29.57 38.13,29.66 C 38.46,29.7 38.65,29.41 38.89,29.16 C 39.61,28.41 40.33,27 41.45,27 C 41.55,27 41.65,27 41.75,27.03 C 42.39,27.24 42,28.03 42.79,27.58 C 43.32,27.29 43.59,26.98 44.12,27 C 44.25,27 44.4,27.02 44.57,27.07 C 44.72,27.16 44.87,27.31 44.87,27.49 C 44.84,27.61 44.78,27.64 44.69,27.71 C 44.33,27.83 44.57,27.16 44.06,27.41 C 43.72,27.61 43.51,28.04 43.27,28.5 C 42.87,29.07 43.05,30.24 43.88,29.39 C 44.36,28.89 44.69,28.47 44.9,28.22 C 46.75,26.24 46.87,25.42 48.86,23.62 C 49.23,23.22 49.7,23 50,23 C 50.3,23 50.44,23.24 50.1,23.75 C 50,23.87 49.98,23.9 49.7,24.17 C 49.13,24.75 48.77,24.94 48.07,25.39 C 47.59,26.08 47,26.67 46.62,27.43 C 47.02,27.2 47.47,26.98 47.96,27 C 48.58,27.03 48.54,27.66 48.41,27.87 C 47.92,28.57 47.08,28.87 46.35,29.02 C 47.23,29.6 47.65,30.27 48.38,31.4 C 49.46,31.57 52,31.9 52,33.33 C 52,33.75 51.62,34 51.07,34 C 49.55,33.99 48.59,32.89 47.83,31.77 C 44.87,31.37 41.45,31.7 39.06,32 L 39,31.94 A 25.82,25.82 0 0,1 47.44,31.24 C 47.11,30.67 46.38,29.21 45.93,29.09 C 45.72,29.39 45.45,30 45.45,30 H 44.54 C 44.81,29.48 45.2,28.49 45.42,28 C 44.93,28.55 44.51,29.2 44.02,29.57 C 43.61,29.84 43.3,30.01 43.07,30 C 42.04,29.97 42.44,28.45 42.63,27.86 C 42.36,27.92 42.4,28.09 42.07,28 C 41.7,28.79 41.46,30.04 40.34,30 C 39.52,29.97 39.6,28.96 39.74,28.37 C 39.23,28.86 38.64,29.91 37.86,29.89 A 0.9,0.9 0 0,1 37.53,29.82 C 37.29,29.7 37.23,29.45 37.2,29.24 L 37.26,29.06 C 36.76,29.63 36.26,30.02 35.86,30 A 0.65,0.65 0 0,1 35.41,29.8 C 35.11,29.44 35.74,28.2 35.9,27.89 L 35.96,27.76 C 36.23,27.34 35.68,27.46 35.59,27.52 C 35.26,27.64 34.99,28.45 34.72,28.93 L 34.2,30 H 33.36 C 33.72,29.33 34.08,28.31 34.41,27.64 C 34.44,27.55 34.44,27.28 34.14,27.52 L 33.54,28.34 C 33.31,28.67 32.65,30.03 32.04,30 C 31.81,29.99 31.68,29.9 31.6,29.7 C 31.57,29.63 31.63,29.54 31.6,29.57 C 31.3,29.85 30.97,30.03 30.52,30 C 30.27,30 30,29.76 30,29.54 C 30,29 30.07,28.37 30.34,28 L 29.43,28.28 C 29.16,28.71 28.94,29.54 28.67,30 H 27.71 L 28.31,28.4 C 27.91,28.4 27.34,28.25 27.11,28.13 C 26.61,29.01 25.92,29.78 25.01,29.97 A 3.52,3.52 0 0,1 22.89,29.52 C 22.52,29.82 21.98,30 21.58,30 C 21.05,30 20.97,29.7 21.33,28.9 C 21.5,28.5 21.57,28.22 21.73,27.92 C 22.05,27.46 21.42,27.09 20.73,28.28 C 20.43,28.77 20.3,29.3 19.88,30 H 19.12 C 19.49,29.33 19.88,28.37 20.24,27.73 C 20.36,27.53 20.27,27.19 19.84,27.67 L 19.79,27.77 C 19.55,28.07 19.03,29.15 18.67,29.57 C 18.4,29.89 18.13,30.01 17.9,30 C 17.55,29.99 17.32,29.68 17.52,29.15 C 17.74,28.57 17.82,28.34 18,27.95 C 18.46,27.22 17.5,27.68 16.77,29.12 L 16.25,30 H 15.47 S 16.43,28 16.89,27.19 L 16.74,27.31 C 16.46,27.58 16.14,27.76 15.77,27.76 C 15.57,28.66 15.1,30.02 13.97,30.03 C 13.51,30.03 13.2,29.73 13.2,29.27 C 13.23,28.69 13.56,27.95 13.9,27.49 C 13.65,27.59 13.32,27.59 13.02,27.67 C 11.51,30.6 10.48,36.12 6.22,36 C 5.53,35.98 5.02,35.65 5,34.93 C 5,31 9.02,28.91 12.02,27.76 A 20.82,20.82 0 0,1 16,22.8 C 15.71,22.95 15.33,23.01 14.93,23.01 C 14.2,23.01 13.4,22.8 12.99,22.44 C 13.17,23.66 12.09,24.61 11,25.01 C 12,24.19 12.99,23.45 12.75,22.23 C 12.59,22.02 12.5,22.05 12.41,21.77 C 12.38,21.44 12.69,21.47 12.84,21.89 C 13.14,22.35 13.8,22.77 14.56,22.8 C 15.53,22.77 16.1,22.5 16.74,22.01 L 16.77,22.11 A 19.93,19.93 0 0,0 13.17,27.38 A 6.48,6.48 0 0,1 14.97,27.01 C 15.42,27.01 15.47,27.31 15.8,27.47 C 16.16,27.59 16.98,26.8 17.46,26.16 C 18.34,25.03 18.65,24.1 20.46,23.06 A 0.48,0.48 0 0,1 20.67,23.01 C 20.84,23.01 21,23.11 21,23.3 C 21,23.39 20.97,23.5 20.88,23.64 C 20.58,24.16 19.64,25.04 19.06,25.41 C 18.61,25.71 18.13,26.34 17.56,27.26 C 17.79,27.15 18.23,27.01 18.55,27.01 C 18.87,27.01 19.08,27.15 18.85,27.71 C 18.79,27.9 18.52,28.73 18.31,29.07 C 18.06,29.34 18.21,29.74 18.67,29.16 C 18.79,29.03 19.15,28.14 19.3,27.96 C 19.74,27.42 20.02,27 20.5,27.01 C 20.88,27.01 20.97,27.24 20.97,27.59 C 21.31,27.33 21.71,26.99 22.17,27.01 C 22.7,27.03 22.63,27.56 22.45,27.93 L 21.81,29.31 C 21.69,29.58 21.78,29.83 22.18,29.71 C 22.48,29.58 22.57,29.52 22.78,29.41 C 22.63,29.21 22.45,29.07 22.6,29.01 L 22.96,29.28 C 23.66,28.76 24.5,27.8 25.35,26.77 A 3.02,3.02 0 0,1 25.19,25.67 C 25.24,24.74 25.81,24.01 27.04,24.01 L 27.31,22.81 C 27.37,22.44 27.46,22.17 27.34,21.61 C 27.31,21.47 27.31,21.31 27.44,21.25 C 27.77,21.28 27.64,21.68 27.74,21.89 C 27.83,22.11 27.89,22.29 28.1,22.35 C 29.52,22.96 30.76,21.22 31.57,21.01 L 31.54,21.07 Z M 20.1,23.66 C 19.5,24.36 19.42,24.64 19.18,25.12 A 6.7,6.7 0 0,0 20.68,23.69 C 20.98,23.36 20.53,23.16 20.1,23.66 Z M 49.5,23.47 C 48.95,23.96 48.7,24.39 48.35,24.97 L 48.89,24.57 C 49.25,24.3 49.43,24.14 49.65,23.9 C 50.4,23.1 49.8,23.1 49.5,23.47 Z M 25.47,26.51 A 7.5,7.5 0 0,0 26.89,24.24 C 25.95,24.24 25.41,24.89 25.35,25.65 A 2,2 0 0,0 25.47,26.51 Z M 27.13,24.27 A 8.6,8.6 0 0,1 25.65,26.7 L 25.59,26.79 C 25.77,27.09 26.01,27.28 26.32,27.46 C 26.89,26.52 27.4,25.86 28.12,24.74 C 27.95,24.47 27.34,24.27 27.13,24.27 Z M 28.7,25 L 27.22,27.95 C 27.58,28.1 28.12,28.22 28.4,28.22 C 29.1,27.12 29.16,25.98 28.7,25 Z M 25.4,27 C 24.86,27.6 24.26,28.54 23.17,29.36 C 23.57,29.57 24.07,29.54 24.53,29.48 C 25.29,29.33 25.8,28.31 26.19,27.7 L 25.41,27 Z M 31.57,27.49 C 31.12,28.04 31.04,28.4 30.85,28.99 C 30.71,29.42 30.7,29.63 30.85,29.73 C 31,29.79 31.15,29.73 31.45,29.43 C 31.82,28.93 31.85,28.43 32.21,27.83 C 32.44,27.39 32.35,27.23 32.15,27.23 A 0.72,0.72 0 0,0 31.57,27.49 Z M 41.67,27.67 C 41.76,27.07 41.21,27.19 40.52,28.22 C 40.04,28.92 40.22,30.42 41.37,29.09 C 41.49,28.87 41.57,28.43 41.67,28.22 C 41.94,27.7 41.64,27.86 41.64,27.73 L 41.67,27.67 Z M 47.07,27.4 C 46.71,27.58 46.47,27.73 46.02,28.5 C 46.62,28.4 47.14,28.35 47.44,27.96 C 47.84,27.44 47.41,27.22 47.08,27.4 Z M 11.84,28 C 9.2,29.15 5.28,31.5 5.28,34.93 C 5.3,35.45 5.66,35.7 6.15,35.71 C 9.22,35.79 10.65,30.36 11.84,28.01 Z M 48.68,31.98 C 49.23,32.77 50.24,33.76 51.26,33.76 C 51.57,33.76 51.74,33.58 51.73,33.33 C 51.69,32.15 49.5,32.09 48.68,31.98 Z M 27.58,22.25 A 15.1,15.1 0 0,1 27.25,24.03 C 27.52,24.03 28.01,24.28 28.28,24.5 C 28.79,23.8 29.28,22.8 29.64,22.4 C 29.34,22.68 28.1,22.98 27.58,22.25 Z M 15.31,27.63 C 15.34,27.43 15.27,27.33 15.13,27.33 C 14.93,27.33 14.62,27.55 14.26,28.13 C 13.7,28.93 13.76,29.5 14.04,29.5 C 14.36,29.5 14.98,28.83 15.34,28.1 C 15.56,27.61 15.28,27.79 15.31,27.66 V 27.63 Z" fill="rgb(49, 65, 149)"/>
</svg>
