<?xml version="1.0" encoding="UTF-8"?>
<!-- generated by Finnhub -->
<svg viewBox="0 0 55.5 55.5" xmlns="http://www.w3.org/2000/svg">
<path d="M 0,0 H 55.5 V 55.5 H 0 Z" fill="rgb(239, 242, 248)"/>
<path d="M 42.99,15.715 V 40.27 L 41.77,40.77 L 39.86,41.59 A 30.31,30.31 0 0,1 16.14,41.59 L 14.23,40.77 L 13,40.27 V 15.73 L 14.23,15.23 L 16.14,14.41 A 30.31,30.31 0 0,1 39.86,14.41 L 41.77,15.23 L 43,15.73 Z M 28,40.77 C 33.03,40.77 37.43,40.77 42,38.91 V 17.16 C 37.43,15.3 33.03,15.23 28,15.23 C 22.97,15.23 18.57,14.93 14,16.79 V 38.91 C 18.57,40.77 22.97,40.77 28,40.77 Z" fill="rgb(92, 159, 216)"/>
<path d="M 41.99,39.585 V 16.4 L 41.34,16.14 L 39.43,15.33 A 29.22,29.22 0 0,0 16.57,15.33 L 14.66,16.13 L 14,16.41 V 39.59 L 14.66,39.86 L 16.57,40.67 A 29.23,29.23 0 0,0 39.43,40.67 L 41.34,39.87 L 42,39.59 Z M 26.39,27.76 L 28.01,26.66 L 29.63,27.76 L 28.01,28.86 L 26.39,27.76 Z M 37.26,36.68 C 37.37,36.8 37.53,36.86 37.7,36.87 H 37.94 L 38.21,37.97 H 30.66 L 31,36.87 H 31.25 A 0.73,0.73 0 0,0 31.69,36.68 L 31.74,36.63 C 31.86,36.53 32,36.39 32,36.25 V 29.27 L 37,32.64 V 36.26 C 37,36.42 37.14,36.57 37.26,36.68 Z M 24.17,36.68 C 24.29,36.8 24.45,36.86 24.61,36.87 L 24.85,36.89 L 25.12,37.99 H 17.74 L 18.08,36.89 H 18.33 A 0.6,0.6 0 0,0 18.76,36.7 C 18.88,36.59 19,36.44 19,36.28 V 32.43 L 24,29.09 V 36.26 C 24,36.42 24.05,36.57 24.17,36.68 Z M 37,19.71 V 28.66 L 38.65,29.66 V 31.9 L 32.54,28 L 28,25.02 L 23.45,27.79 L 18.91,30.68 L 17.34,31.68 V 29.46 L 19,28.44 V 19.74 C 19,19.58 18.85,19.42 18.74,19.31 A 0.65,0.65 0 0,0 18.3,19.13 H 18.05 L 17.72,18.03 H 25.14 L 24.87,19.13 H 24.63 A 0.65,0.65 0 0,0 24.19,19.31 A 0.61,0.61 0 0,0 24,19.74 V 25.16 L 28,22.78 L 32,25.36 V 19.71 A 0.61,0.61 0 0,0 31.81,19.28 A 0.65,0.65 0 0,0 31.37,19.1 H 31.13 L 30.79,18 H 38.19 L 37.91,19.1 H 37.67 A 0.65,0.65 0 0,0 37.23,19.28 C 37.12,19.4 37,19.55 37,19.71 Z" fill="rgb(29, 64, 123)"/>
</svg>
