<?xml version="1.0" encoding="UTF-8"?>
<!-- generated by Finnhub -->
<svg viewBox="0 0 55.5 55.5" xmlns="http://www.w3.org/2000/svg">
<path d="M 0,0 H 55.5 V 55.5 H 0 Z" fill="rgb(239, 242, 248)"/>
<path d="M 19.639999999999997,23.055 A 1.63,1.63 0 0,0 18.51,22.53 L 17.55,15.75 A 0.2,0.2 0 0,1 17.73,15.53 L 33.98,14 C 34.18,13.98 34.28,14.25 34.1,14.36 L 19.65,23.07 Z M 45.52,22.69 L 39.57,22.79 A 1.65,1.65 0 0,0 37.83,21.5 H 37.78 L 35.92,14.78 C 35.87,14.6 36.09,14.46 36.23,14.58 L 45.64,22.35 A 0.2,0.2 0 0,1 45.52,22.69 Z M 32.15,29.22 L 36.65,24.12 A 1.64,1.64 0 0,1 37.17,21.7 L 35.24,14.7 A 0.2,0.2 0 0,0 34.96,14.58 L 19.98,23.62 C 20.04,23.79 20.08,23.98 20.08,24.18 C 20.08,24.33 20.05,24.48 20.01,24.62 L 29.96,29.72 A 1.64,1.64 0 0,1 32.16,29.22 Z M 29.72,30.3 A 1.64,1.64 0 0,0 30.84,32.2 L 30.19,43.42 C 30.17,43.62 29.92,43.67 29.82,43.51 L 19.45,25.47 C 19.55,25.39 19.65,25.29 19.73,25.19 L 29.73,30.29 Z M 40.54,35.12 A 0.2,0.2 0 0,0 40.81,34.89 L 38.02,24.79 H 37.96 C 37.66,24.79 37.37,24.69 37.12,24.55 L 32.62,29.64 A 1.63,1.63 0 0,1 32.87,31.19 L 40.54,35.12 Z M 17.89,22.62 C 17.34,22.82 16.93,23.29 16.82,23.88 L 9.5,23.98 A 0.2,0.2 0 0,1 9.36,23.66 L 16.65,16.11 A 0.2,0.2 0 0,1 16.98,16.21 L 17.88,22.63 Z M 32.54,31.74 C 32.27,32.04 31.89,32.24 31.46,32.27 L 30.8,43.79 C 30.79,43.96 30.98,44.06 31.1,43.96 L 40.9,36.33 A 0.2,0.2 0 0,0 40.88,36 L 32.54,31.74 Z M 38.64,24.64 C 39.12,24.42 39.48,23.97 39.58,23.43 L 45.8,23.33 A 0.2,0.2 0 0,1 45.99,23.58 L 41.82,34.85 A 0.2,0.2 0 0,1 41.45,34.83 L 38.64,24.63 Z M 17.32,25.38 A 1.64,1.64 0 0,1 16.82,24.51 L 9.19,24.62 A 0.2,0.2 0 0,0 9.01,24.88 L 11.91,33.62 A 0.2,0.2 0 0,0 12.26,33.66 L 17.32,25.38 Z M 18.44,25.82 C 18.59,25.82 18.74,25.8 18.88,25.76 L 24.72,35.9 A 0.2,0.2 0 0,1 24.52,36.2 L 12.78,34.53 A 0.2,0.2 0 0,1 12.65,34.23 L 17.85,25.71 C 18.04,25.78 18.23,25.82 18.44,25.82 Z" fill="rgb(0, 89, 253)"/>
</svg>
