<?xml version="1.0" encoding="UTF-8"?>
<!-- generated by Finnhub -->
<svg viewBox="0 0 55.5 55.5" xmlns="http://www.w3.org/2000/svg">
<path d="M 0,0 H 55.5 V 55.5 H 0 Z" fill="rgb(239, 242, 248)"/>
<path d="M 10.99,27.985 A 17,17 0 1,1 45.02,28.02 A 17,17 0 0,1 11,28 Z M 13,28 C 13,19.66 19.64,13 28,13 C 36.34,13 43,19.64 43,28 C 43,36.34 36.36,43 28,43 C 19.66,43 13,36.36 13,28 Z" fill-rule="evenodd"/>
<path d="M 33.84,31.044999999999998 C 32.61,31.06 31.19,30.26 31.14,29 H 29 A 3.75,3.75 0 0,0 30.83,32.28 C 32.45,32.64 33.93,32.82 35.27,32.76 A 3.66,3.66 0 0,0 38,29.28 C 38,27.24 36.26,26.24 34.46,25.64 C 33.39,25.3 31.56,24.94 31.56,23.48 C 31.56,22.5 32.48,21.94 33.39,21.94 C 34.32,21.94 35.46,22.62 35.46,23.61 H 37.65 C 37.58,21.34 35.58,20 33.4,20 C 31.32,20 29.33,21.3 29.4,23.61 C 29.4,26.2 31.8,26.79 33.84,27.49 C 34.74,27.8 35.99,28.42 35.99,29.46 C 36.04,30.56 34.82,31.06 33.84,31.06 Z M 20,31.35 V 27.37 H 26 V 31.33 C 26.73,31.44 27.23,31.58 28,31.77 V 20 H 26 V 25.44 H 20 V 20 H 18 V 31.95 C 18.7,31.7 19.23,31.49 20,31.35 Z"/>
<path d="M 16.74,34.485 C 19.22,33.4 23.23,32.5 29.84,34.23 C 33.89,35.3 36.92,35.16 39.14,34.51 C 39.14,34.62 35.94,41.27 28,41.27 C 20.36,41.27 17,34.99 16.75,34.51 Z" fill="rgb(85, 146, 199)"/>
</svg>
