<?xml version="1.0" encoding="UTF-8"?>
<!-- generated by Finnhub -->
<svg viewBox="0 0 55.5 55.5" xmlns="http://www.w3.org/2000/svg">
<path d="M 0,0 H 55.5 V 55.5 H 0 Z" fill="rgb(252, 205, 0)"/>
<path d="M 47.52,35.985 H 6 L 6.5,34 H 48 L 47.53,36 Z" fill="rgb(254, 254, 253)"/>
<path d="M 16.189999999999998,19.985 L 14.94,26 H 10.51 L 11.81,20 H 9.31 L 6.75,32 H 9.26 L 10.11,28 H 14.48 L 13.63,32 H 16.13 L 18.67,20 H 16.18 Z M 37.28,29.63 C 36.93,29.26 37.11,28.41 37.29,27.57 L 37.33,27.43 L 38.06,24 H 40.7 L 41.12,22 H 38.47 L 38.91,20 H 36.42 L 34.79,27.63 C 34.54,28.77 34.45,29.66 34.95,30.63 C 35.42,31.52 37.01,32.37 39.02,31.83 L 39.46,29.92 C 38.1,30.09 37.55,29.92 37.28,29.62 Z M 28.86,26.25 C 29.18,24.73 29.67,23.77 30.54,23.03 A 4.73,4.73 0 0,1 34.84,22.18 L 34.42,24.04 C 33.42,23.96 32.6,23.99 32.03,24.58 C 31.62,25.01 31.43,25.71 31.2,26.82 L 30.14,32 H 27.64 L 28.86,26.25 Z M 50,22 H 42.22 L 41.74,24 H 46.58 L 40.61,29.78 L 40.15,32 H 47.93 L 48.41,30 H 43.57 L 49.55,24.2 L 50,22 Z M 20.63,23.14 A 5.12,5.12 0 0,1 23.76,22 C 24.1,22 25.98,22.02 27,23.4 C 28.2,25.03 27.37,28 27.36,28 H 20.83 C 20.56,31.21 24.57,29.7 25.4,29.07 L 26.4,30.73 A 7.13,7.13 0 0,1 22.3,32 C 16.82,32 18.08,25.12 20.63,23.14 Z M 21.38,26 H 25.38 S 25.64,24.16 23.95,24 C 22.37,23.86 21.52,25.47 21.38,26 Z"/>
</svg>
