<?xml version="1.0" encoding="UTF-8"?>
<!-- generated by Finnhub -->
<svg viewBox="0 0 55.5 55.5" xmlns="http://www.w3.org/2000/svg">
<path d="M 0,0 H 55.5 V 55.5 H 0 Z" fill="rgb(239, 242, 248)"/>
<path d="M 26.99,41.985 A 14,14 0 0,0 39.4,34.49 L 35.85,31.27 L 35.59,31.86 C 34.61,29.96 32.75,27.68 29.92,27.2 A 36.24,36.24 0 0,0 30.96,19.82 A 9.25,9.25 0 0,1 35.89,24.82 C 36.85,24.01 38.49,22.6 39.49,21.66 A 14,14 0 0,0 14.72,21.26 A 65.1,65.1 0 0,0 18.36,24.26 A 9.54,9.54 0 0,1 27,19 C 28.33,19 29.59,19.26 30.73,19.72 C 27.77,24.17 21.37,25.17 18.47,25.11 C 22.46,28.47 23.09,32.41 22.35,35.85 A 9.26,9.26 0 0,1 18.42,31.86 L 14.79,34.86 A 14.07,14.07 0 0,0 20.52,40.42 C 19.92,41.44 19.25,42.32 18.63,43 H 23.96 L 24.57,41.8 C 25.37,41.93 26.17,42 27,42 Z M 26.76,37 A 66.38,66.38 0 0,0 29.02,30.62 C 30.28,31.43 32.12,33.18 32.27,35.49 A 9.83,9.83 0 0,1 26.76,36.99 Z M 7,26 H 8 V 28 H 9 V 26 H 10 V 30 H 9 V 28.3 H 8 V 30 H 7 V 26 Z M 41,30 H 40 V 26.3 C 40.97,25.9 42.03,25.9 43,26.3 V 30 H 42 V 28.76 H 41 V 30 Z M 41,28.48 H 42 V 26.38 H 41 V 28.48 Z M 12,26 H 11 V 29.7 C 11.97,30.1 13.03,30.1 14,29.7 V 26 H 13 V 29.62 H 12 V 26 Z M 15,30 H 16 V 28.76 H 17 V 30 H 18 V 26.3 C 17.03,25.9 15.97,25.9 15,26.3 V 30 Z M 17,28.48 H 16 V 26.38 H 17 V 28.48 Z M 45,30 H 44 V 26 S 46.03,25.92 47,26.32 V 30 H 46 V 26.4 H 45 V 30 Z M 36,29.75 V 26.49 A 2.8,2.8 0 0,1 39,26.49 V 27.3 H 38 V 26.5 H 37 V 29.67 H 38 V 28.3 H 37.5 V 28 H 39 V 29.75 C 38.03,30.15 36.97,30.15 36,29.75 Z M 48,26.44 V 29.69 C 48.97,30.1 50.03,30.1 51,29.69 V 28 H 49.5 V 28.3 H 50 V 29.62 H 49 V 26.44 H 50 V 27.3 H 51 V 26.44 A 2.8,2.8 0 0,0 48,26.44 Z" fill="rgb(217, 36, 26)"/>
</svg>
