<?xml version="1.0" encoding="UTF-8"?>
<!-- generated by Finnhub -->
<svg viewBox="0 0 55.5 55.5" xmlns="http://www.w3.org/2000/svg">
<path d="M 0,0 H 55.5 V 55.5 H 0 Z" fill="url(#a)"/>
<path d="M 24.99,25.985 H 28.36 C 28.94,26 29.42,26.46 29.42,27.03 V 27.58 C 29.42,28.09 29.02,28.52 28.52,28.59 L 29.52,30 H 28.38 L 27.38,28.6 H 26 V 30 H 25 V 26 Z M 26,27.91 H 27.93 C 28.19,27.91 28.39,27.71 28.39,27.46 V 27.14 C 28.39,26.89 28.19,26.69 27.93,26.69 H 26 V 27.91 Z M 21,26 H 20 V 28.85 C 20,29.48 20.47,30 21.05,30 H 22.95 C 23.53,30 24,29.48 24,28.85 V 26 H 23 V 28.9 C 23,29.18 22.72,29.4 22.48,29.4 H 21.52 C 21.28,29.4 21,29.18 21,28.9 V 26 Z M 15,26 H 16 V 27.6 H 18 V 26 H 19 V 30 H 18 V 28.3 H 16 V 30 H 15 V 26 Z M 33.53,29.96 C 34.93,29.9 35,29.16 35,28.58 H 34 V 28.8 C 34.05,29.2 33.35,29.32 33.07,29.32 C 32.97,29.34 32.59,29.36 31.94,29.32 C 31.29,29.29 30.99,28.87 31,28.66 V 27.23 C 31.02,26.78 31.76,26.66 32.04,26.66 H 33.07 C 33.65,26.67 34,26.92 34,27.04 V 27.37 H 34.92 V 27.09 C 34.79,26.21 34.42,26.01 32.19,26 C 30.4,26 30.05,26.74 30.05,27.16 A 6,6 0 0,0 30.05,28.84 C 30.17,30.08 31.76,30.05 33.53,29.96 Z M 38.25,29.34 V 29.99 C 36.23,30.09 36,29.21 36,28.63 V 27.83 C 36,27.4 36,26.67 36.37,26.37 C 36.83,26.01 37.79,25.99 38.25,26.01 V 26.67 C 37.23,26.57 36.99,27.12 37,27.4 V 28.63 C 36.99,29.25 37.83,29.36 38.25,29.34 Z M 38.75,29.34 V 29.99 C 40.77,30.09 41,29.21 41,28.63 V 27.83 C 41,27.4 41,26.67 40.63,26.37 C 40.18,26.01 39.22,25.99 38.75,26.01 V 26.67 C 39.77,26.57 40.01,27.12 40,27.4 V 28.63 C 40.01,29.25 39.17,29.36 38.75,29.34 Z" fill="rgb(254, 254, 253)"/>
<path d="M 37.45,27.544999999999998 C 37.46,27.26 37.7,27 37.99,27 H 38.99 C 39.27,27 39.51,27.25 39.51,27.56 V 28.44 C 39.51,28.74 39.27,29 38.98,29 H 38 A 0.55,0.55 0 0,1 37.47,28.44 V 27.56 Z" fill="rgb(1, 181, 228)"/>
<path d="M 27.99,42.985 A 15,15 0 1,0 28,13 A 15,15 0 0,0 28,43 Z M 28,45 A 17,17 0 1,0 28,11 A 17,17 0 0,0 28,45 Z" fill="rgb(1, 181, 228)" fill-rule="evenodd"/>
<defs>
<linearGradient id="a" x1="10.42" x2="68.15" y1="9.71" y2="76.02" gradientUnits="userSpaceOnUse">
<stop stop-color="rgb(25, 29, 31)" offset="0"/>
<stop stop-color="rgb(5, 5, 8)" offset="1"/>
</linearGradient>
</defs>
</svg>
