<?xml version="1.0" encoding="UTF-8"?>
<!-- generated by Finnhub -->
<svg viewBox="0 0 55.5 55.5" xmlns="http://www.w3.org/2000/svg">
<path d="M 0,0 H 55.5 V 55.5 H 0 Z" fill="rgb(239, 242, 248)"/>
<path d="M 37.67,15.165 L 36,17.38 L 37.09,17.26 L 37.12,17.56 C 36.65,17.59 36.19,17.65 35.75,17.71 L 33.35,20.84 C 33.45,20.97 33.48,21.08 33.49,21.16 C 33.96,20.57 34.89,19.66 36.13,19 L 36.36,18.72 L 38.13,16.64 L 38.35,16.82 L 36.77,18.69 A 6.24,6.24 0 0,1 39.78,18.18 L 41.4,16.97 L 41.57,17.2 L 40.19,18.24 C 40.71,18.34 41.19,18.53 41.65,18.78 L 42.38,18.35 C 43.05,17.95 43.54,17.61 43.75,17.41 L 43.95,17.61 C 43.72,17.85 43.2,18.2 42.53,18.6 A 39,39 0 0,1 41.93,18.94 C 42.16,19.09 42.38,19.24 42.58,19.41 C 42.9,19.21 43.15,19.01 43.34,18.82 L 43.54,19.02 C 43.36,19.22 43.11,19.41 42.82,19.6 C 43.3,20.03 43.72,20.51 44.07,20.98 C 44.35,20.86 44.6,20.73 44.83,20.6 L 44.97,20.85 C 44.75,20.98 44.51,21.1 44.25,21.22 C 44.46,21.54 44.65,21.84 44.79,22.12 C 45.77,21.92 46.74,21.77 47.59,21.69 L 47.62,21.98 C 46.8,22.05 45.87,22.2 44.92,22.38 L 45,22.55 A 21.9,21.9 0 0,0 44.75,22.42 C 43.61,22.64 42.46,22.92 41.45,23.17 L 47.95,23.49 L 47.94,23.79 L 40.87,23.44 C 41.49,23.73 42.04,24.13 42.53,24.57 L 49.87,27.39 L 49.77,27.66 L 43.04,25.08 C 43.31,25.36 43.54,25.65 43.76,25.95 L 50.67,29.77 L 50.53,30.03 C 48.83,29.08 46.13,27.58 44.13,26.49 L 44.2,26.59 L 51,31.08 L 50.84,31.32 L 44.54,27.16 C 44.74,27.52 44.9,27.86 45,28.12 C 44.52,27.79 43.8,27.34 43,26.86 L 45.17,28.61 L 44.99,28.84 A 369.16,369.16 0 0,1 41.52,26 C 40.62,25.52 39.69,25.06 38.85,24.74 A 817.57,817.57 0 0,1 44.49,29.57 L 44.31,29.79 A 813.87,813.87 0 0,0 38.07,24.46 L 37.77,24.38 A 5.8,5.8 0 0,0 35.25,24.16 A 83.9,83.9 0 0,0 37.62,26.01 L 37.44,26.24 A 150.21,150.21 0 0,1 34.91,24.26 C 34.68,24.35 34.54,24.46 34.49,24.57 L 36.34,27.43 L 37.93,29.48 L 37.7,29.66 L 36.36,27.93 C 35.52,27.17 33.91,25.64 32.99,24.76 C 31.81,25.01 29.55,25.46 28.37,25.62 L 28,25.84 V 24.84 C 28.37,24.57 28.74,24.29 29.12,24.03 C 29.9,23.36 30.76,22.71 31,22.53 C 31.56,22.15 31.73,21.01 29.58,20.74 A 36.75,36.75 0 0,0 26.58,20.49 C 25.95,20.9 25.33,21.41 24.74,21.99 H 24.05 C 24.79,21.22 25.56,20.56 26.38,20.04 L 26.39,20.05 C 27.08,19.57 28.35,18.73 29.74,18.05 C 31.38,17.25 34.05,16.45 35.18,16.15 L 35.25,16.43 A 35,35 0 0,0 29.87,18.31 C 29.27,18.61 28.68,18.94 28.17,19.25 C 28.56,19.13 28.99,19.05 29.45,19.05 A 27.63,27.63 0 0,1 35.59,17.43 L 37.45,15 L 37.68,15.18 Z M 14.24,37 C 13.42,37.87 12.71,38.66 12.14,39.32 L 12.51,39.63 C 13.15,38.9 13.96,38 14.91,37 H 14.24 Z M 15.81,37 C 15.01,38 14.34,38.88 13.82,39.6 L 14.22,39.87 C 14.75,39.13 15.46,38.2 16.31,37.15 A 50.4,50.4 0 0,0 15.33,40.9 L 15.8,41 C 16.04,39.9 16.4,38.52 16.86,37 H 15.81 Z M 40.49,23.13 L 40.01,23.1 L 38.88,22.77 A 39.3,39.3 0 0,0 40.96,22.31 C 41.7,22.11 42.46,21.91 43.16,21.66 C 43.58,21.84 43.98,22.03 44.33,22.2 C 42.95,22.49 41.58,22.83 40.49,23.13 Z M 38.19,22.6 A 39.72,39.72 0 0,0 42.76,21.48 C 42.11,21.21 41.41,20.94 40.76,20.73 L 39.89,21.13 C 38.86,21.59 37.78,22.03 36.87,22.36 C 37.28,22.42 37.72,22.5 38.18,22.6 Z M 39.33,20.37 C 39.64,20.42 39.98,20.5 40.34,20.61 L 39.77,20.87 A 55.22,55.22 0 0,1 36.25,22.27 L 35.73,22.22 C 36.77,21.7 38.07,21.04 39.33,20.37 Z M 35.16,22.18 C 36.16,21.68 37.49,21.01 38.81,20.32 H 38.71 C 37.03,20.3 35.01,21.54 34.21,22.16 C 34.45,22.16 34.77,22.16 35.16,22.18 Z M 30.12,19.11 C 31.35,18.66 33.19,18.11 35.33,17.77 L 33.17,20.6 A 5.53,5.53 0 0,0 30.69,19.25 A 4.3,4.3 0 0,0 30.12,19.11 Z" fill="rgb(233, 191, 83)" fill-rule="evenodd"/>
<path d="M 24.729999999999997,21.985 H 28 V 24.86 C 27.07,25.56 26.15,26.32 25.26,27.1 A 63.89,63.89 0 0,0 18.26,32.97 C 18.62,32.03 19.01,31.09 19.44,30.15 C 20.87,27.03 22.64,24.05 24.74,22 Z M 24.05,22 H 13 V 37 H 14.24 C 15.18,36 16.26,34.89 17.44,33.74 C 17.9,32.5 18.42,31.21 19,29.94 C 20.36,27 22.04,24.1 24.05,22 Z M 14.9,37 H 15.8 L 16.7,35.92 C 16.81,35.55 16.94,35.17 17.07,34.79 C 16.3,35.56 15.57,36.3 14.9,37 Z M 16.86,37 L 17.12,36.16 A 79.41,79.41 0 0,1 25.56,27.48 C 26.38,26.89 27.19,26.34 28,25.85 V 37 H 16.86 Z M 17.54,34.93 L 17.86,34.02 A 88.83,88.83 0 0,1 21.1,31.04 A 85.67,85.67 0 0,0 17.54,34.93 Z" fill="url(#b)"/>
<path d="M 28.99,20.985 H 12 V 38 H 29 V 21 Z M 28,22 H 13 V 37 H 28 V 22 Z" fill="url(#a)" fill-rule="evenodd"/>
<path d="M 18.169999999999998,35.985 H 13 V 35.38 H 13.97 C 14.5,35.38 15,34.98 15,34.47 V 24.42 C 15,23.92 14.5,23.5 13.97,23.5 H 13 V 23 H 18.18 V 23.5 H 17.46 A 0.93,0.93 0 0,0 16.5,24.42 V 29 H 24.5 V 24.42 C 24.5,23.92 24,23.5 23.4,23.5 H 22.35 V 23 H 28 V 23.5 H 27.21 C 26.63,23.5 26,23.91 26,24.42 V 34.47 C 26,34.97 26.63,35.38 27.21,35.38 H 28 V 36 H 22.35 V 35.38 H 23.41 C 23.99,35.38 24.5,34.98 24.5,34.47 V 30 H 16.5 V 34.47 C 16.5,34.97 16.92,35.38 17.46,35.38 H 18.18 V 36 Z" fill="rgb(1, 0, 2)"/>
<path d="M 26.91,40.985 C 28.66,41 30.37,40.4 31,40.1 V 36 H 28 V 37 H 29.4 V 39.5 C 29.06,39.77 28.09,40.32 26.99,40.32 A 5.16,5.16 0 0,1 22.24,35.23 C 22.24,32.16 24.3,29.63 26.99,29.63 A 3.54,3.54 0 0,1 30.39,32.13 H 30.83 L 30.56,29.71 A 9.02,9.02 0 0,0 26.99,29 C 23.5,29 21,31.45 21,35.38 C 21,39.3 24.74,41 26.92,41 Z" fill="rgb(221, 179, 125)"/>
<defs>
<linearGradient id="b" x1="20.23" x2="20.23" y1="22.61" y2="37.12" gradientUnits="userSpaceOnUse">
<stop stop-color="rgb(208, 153, 65)" offset="0"/>
<stop stop-color="rgb(238, 230, 212)" offset=".39"/>
<stop stop-color="rgb(206, 167, 112)" offset="1"/>
</linearGradient>
<linearGradient id="a" x1="20.23" x2="20.23" y1="21.62" y2="38.11" gradientUnits="userSpaceOnUse">
<stop stop-color="rgb(251, 231, 187)" offset="0"/>
<stop stop-color="rgb(238, 218, 178)" offset=".17"/>
<stop stop-color="rgb(212, 160, 42)" offset=".42"/>
<stop stop-color="rgb(238, 202, 126)" offset=".61"/>
<stop stop-color="rgb(233, 199, 129)" offset="1"/>
</linearGradient>
</defs>
</svg>
