<?xml version="1.0" encoding="UTF-8"?>
<!-- generated by Finnhub -->
<svg viewBox="0 0 55.5 55.5" xmlns="http://www.w3.org/2000/svg">
<path d="M 0,0 H 55.5 V 55.5 H 0 Z" fill="rgb(193, 0, 20)"/>
<path d="M 27.259999999999998,43.755 C 27.57,45.2 29.53,45.2 29.87,45.2 H 29.93 C 30.57,45.24 30.56,45.75 30.48,46 L 29.93,45.74 C 29.12,46.08 27.23,45.61 26.39,45.34 L 24.89,45.84 L 25.05,45.2 L 26.2,44.54 C 26.04,40.37 24.1,37.91 23.14,37.2 C 22.74,36.93 21.82,36.35 21.48,36.23 C 21.13,36.12 20.82,36.57 20.71,36.82 A 4.49,4.49 0 0,1 18.59,34.51 L 18.38,35.41 C 17.71,35.01 17.49,34.51 17.46,34.31 L 16.94,34.51 L 16.33,33.27 C 16.21,33.45 15.93,33.8 15.78,33.8 C 15.16,32.94 15.22,31.52 15.33,30.92 C 14.93,31.12 14.02,31.47 13.63,31.36 C 13.23,31.25 13.58,30.62 13.8,30.33 C 13.47,30.48 12.72,30.68 12.35,30.33 C 11.99,29.97 12.5,29.23 12.81,28.91 C 12.53,28.96 11.97,28.97 11.97,28.61 C 11.97,28.26 12.53,27.63 12.81,27.36 C 12.51,27.22 11.93,26.89 11.91,26.66 C 11.89,26.42 12.82,25.76 13.29,25.46 A 3.1,3.1 0 0,1 12.48,25.26 C 13.38,23.97 14.48,23.57 15.1,23.34 C 15.3,23.27 15.44,23.22 15.52,23.16 H 15.36 A 7.11,7.11 0 0,0 11,25.13 C 11.14,23.59 12.64,20.5 17.58,20.5 C 22.51,20.5 24.08,25.63 24.25,28.19 C 29.77,26 29.98,25.05 30.57,22.32 C 30.75,21.47 30.97,20.46 31.4,19.18 C 32.84,14.85 34.74,14.52 35.5,14.9 C 35.02,14.52 33.95,14.66 33.48,14.78 A 11.93,11.93 0 0,0 31.73,13.63 C 31.42,13.53 32.45,14.43 33,14.9 C 32.9,14.92 32.68,14.98 32.6,15.02 C 31.32,14.48 30.62,13.09 31.4,12.76 C 31.79,12.6 32.3,12.87 32.71,13.09 C 33.11,13.3 33.41,13.46 33.38,13.09 C 33.32,12.35 33.38,12.14 33.43,12.09 C 34.13,11.65 35.33,13.01 35.53,13.26 H 35.55 C 35.69,13.44 35.83,13.36 35.87,13.31 C 35.86,12.64 36.06,12.51 36.17,12.54 C 36.61,12.74 36.98,13.53 37.11,13.9 C 37.37,13.71 37.91,13.4 38.1,13.63 C 38.28,13.87 37.99,14.43 37.82,14.68 C 38.01,14.72 38.38,14.85 38.32,15.02 C 38.27,15.18 37.76,15.55 37.52,15.72 C 37.74,15.9 38.27,16.32 38.59,16.61 C 39,16.96 39.05,17.11 38.97,17.29 C 38.91,17.44 38.77,17.44 38.38,17.43 H 38.18 C 37.66,17.43 37.38,17.52 37.38,17.73 C 37.38,17.89 37.47,18.07 37.51,18.13 C 38.61,19.08 38.71,19.23 38.71,19.87 C 38.71,20.5 38.19,21.38 37.03,21.38 C 36.1,21.38 35.63,21.04 35.51,20.87 C 35.73,21.58 36.41,21.73 36.71,21.72 A 7.8,7.8 0 0,1 38.19,24.2 L 37.83,24.38 C 38.46,25.43 38.85,27.08 38.97,27.77 L 38.44,27.9 A 7.97,7.97 0 0,1 35.64,35.1 L 35.23,34.8 C 33.53,36.65 30.43,38.1 29.1,38.58 C 28.72,38.96 27.87,39.83 27.54,40.23 C 27.12,40.73 26.94,42.21 27.27,43.77 Z M 34.27,36.28 A 24.56,24.56 0 0,1 29.82,38.93 L 29.46,39.96 C 30.35,40.34 31.12,41.67 31.73,42.74 L 32.24,43.59 C 32.78,44.43 32.78,44.79 32.7,44.88 C 32.17,45.23 32.01,45.71 32,45.9 L 33.76,45.31 C 34.18,45.44 35.1,45.71 35.47,45.71 C 35.84,45.71 36.33,45.54 36.53,45.45 L 37,45.71 C 37.05,45.01 36.54,45.01 36.02,45 L 35.71,44.99 A 6.22,6.22 0 0,1 33.84,44.19 C 33.57,43.62 32.94,42.29 32.6,41.42 A 2.88,2.88 0 0,1 32.4,39.69 L 34.67,36.75 L 34.27,36.28 Z M 35.53,15.48 C 35.07,15.47 34.82,15.69 34.75,15.8 C 35.28,15.8 36.04,15.95 36.35,16.03 C 36.27,15.84 36,15.47 35.53,15.47 Z M 35.06,16.21 L 35.93,16.35 C 35.86,16.49 35.63,16.76 35.38,16.76 C 35.13,16.76 35.06,16.4 35.06,16.21 Z M 33.96,16.94 L 33.95,16.95 C 33.88,17.07 33.37,17.97 34.75,18.27 C 34.51,17.99 34.04,17.34 33.95,16.94 Z M 12.8,22.88 H 12.83 H 12.8 Z M 12.83,22.88 C 13.93,22.48 16.61,21.96 18.74,23.04 A 16.17,16.17 0 0,1 23.04,26.19 C 19.58,19.54 13.84,22.38 12.92,22.83 L 12.82,22.87 Z M 30.2,30.24 C 33.72,28.78 33.96,27.57 34.04,26.73 A 16.67,16.67 0 0,1 30.2,29.38 C 29.14,29.82 27.3,30.46 27,30.24 C 26.77,30.07 27.18,29.32 27.41,29.07 L 27.37,29.08 C 26.13,29.56 24.89,30.03 25.22,30.97 C 25.32,31.24 25.8,32.07 30.2,30.24 Z M 34.54,28.59 C 34.46,29.44 33.42,31.49 29.9,32.95 C 25.5,34.79 23.91,34.17 23.82,33.9 C 23.49,32.96 24.73,32.49 25.97,32.01 L 26.01,32 C 25.78,32.25 25.37,33 25.6,33.17 C 25.9,33.4 28.84,32.53 29.9,32.09 A 16.7,16.7 0 0,0 34.54,28.59 Z M 35.07,30.62 C 34.99,31.58 33.92,33.92 30.27,35.6 C 25.71,37.7 24.11,37.06 24.12,36.73 C 24.14,36.41 24.95,35.28 26.24,34.73 C 26,35.03 25.57,35.66 25.81,35.86 C 26.11,36.11 29.17,35.13 30.27,34.62 C 31.37,34.12 34.09,32 35.07,30.62 Z M 14.23,24.47 C 15.25,24.04 18.6,22.65 21.9,26.48 C 19.46,24.74 15.58,24.48 13.94,24.58 C 13.98,24.58 14.08,24.53 14.24,24.47 Z M 19.47,25.82 A 7.9,7.9 0 0,0 13.44,28.44 L 13.45,28.34 C 13.51,27.7 13.8,24.48 19.47,25.82 Z M 14.6,30.1 A 9.57,9.57 0 0,1 21.9,26.92 C 15.04,25.3 14.69,29.2 14.62,29.97 L 14.6,30.1 Z M 19.07,28.6 C 18.5,29 17.63,30.5 18.74,33.44 C 18.87,32.2 19.37,29.51 20.33,28.61 L 18.74,30.08 L 19.07,28.61 Z M 20.46,35.28 C 19.35,32.35 20.72,29.84 21.29,29.45 V 30.18 L 23.34,29.03 C 22.39,29.93 20.59,34.05 20.46,35.28 Z M 31.8,22.03 C 31.79,22.23 31.82,22.73 32.04,23.11 C 32.12,22.91 32.23,22.41 32.09,21.94 C 32.26,22.06 32.59,22.44 32.59,22.94 C 32.59,23.45 32.15,23.89 31.93,24.04 C 31.56,23.67 31.02,22.75 31.8,22.04 Z M 33.64,25.29 A 2.2,2.2 0 0,1 33.4,24.21 C 32.62,24.93 33.17,25.85 33.53,26.22 C 33.75,26.07 34.19,25.63 34.19,25.12 C 34.19,24.62 33.86,24.24 33.69,24.12 C 33.83,24.6 33.72,25.1 33.64,25.29 Z M 36,26 C 35.94,26.19 36.04,27.34 36.14,27.77 C 36.27,27.6 36.49,25.43 36.49,24.94 C 36.62,25.1 37.08,26 36.99,26.88 A 2.27,2.27 0 0,1 35.77,28.64 C 35.52,28.18 35.06,26.48 36,26 Z M 33.16,20.28 L 33.31,19.7 H 33.54 L 33.81,20.15 L 33.59,20.68 H 33.39 L 33.16,20.28 Z M 34.48,22.62 L 34.45,23.22 L 34.77,23.57 L 34.95,23.53 L 35.06,22.96 L 34.71,22.57 L 34.48,22.62 Z M 37.55,17.05 C 37.26,17.07 37.05,17.08 36.93,17.03 C 36.7,16.93 36.59,16.88 36.76,16.65 L 36.84,16.53 C 36.97,16.34 37.09,16.18 37.27,16.19 C 37.5,16.21 38.25,16.81 38.47,17.03 C 38.12,17.01 37.81,17.03 37.55,17.05 Z M 35.79,18.52 C 35.73,19.02 36.04,20.19 37.72,20.84 C 35.05,20.7 35.32,19.24 35.79,18.52 Z" fill="rgb(254, 254, 253)" fill-rule="evenodd"/>
</svg>
