<?xml version="1.0" encoding="UTF-8"?>
<!-- generated by Finnhub -->
<svg viewBox="0 0 55.5 55.5" xmlns="http://www.w3.org/2000/svg">
<path d="M 0,0 H 55.5 V 55.5 H 0 Z" fill="rgb(239, 242, 248)"/>
<path d="M 5.99,33.815 V 22.07 L 6.2,22 S 14.5,17 28.17,17 C 41.84,17 49.79,21.73 49.79,21.73 L 50,21.8 V 33.87 L 49.86,33.93 S 43.24,39 27.96,39 C 12.7,39 6.22,34.03 6.22,34.03 L 6.01,33.83 Z M 7,22.47 V 33.53 C 8.05,34.2 14.26,38 28,38 C 41.74,38 47.95,34.2 49,33.53 V 22.27 C 47.74,21.67 40.52,18 28.17,18 C 15.77,18 8.26,21.86 7,22.47 Z" fill="rgb(189, 0, 55)"/>
<path d="M 7.99,23.335 V 32.45 L 10,33.25 V 29 H 11 V 33.4 L 13,34 V 21.4 L 11,22 V 26.22 L 10,26.35 V 22.54 L 8,23.34 Z" fill="rgb(189, 0, 55)"/>
<path d="M 17.99,20.435 L 15.41,21.12 L 13.67,34.12 L 15.79,34.6 L 16,32.3 L 17.44,32.5 L 17.64,35 L 19.81,35.4 L 18,20.45 Z M 17,29.65 L 16.59,24.15 L 16,29.52 L 17,29.65 Z" fill="rgb(189, 0, 55)" fill-rule="evenodd"/>
<path d="M 19.18,20.634999999999998 L 21,20.25 L 21.62,30 L 22.52,20 H 24.34 L 25.04,30 L 25.8,20 H 27.55 L 26.37,36 H 24 L 23.36,26 L 22.81,36 L 20.51,35.73 L 19.19,20.65 Z M 28,20 H 30 V 25.7 L 31.52,20 L 33.62,20.2 L 31.73,26.92 L 33.8,35.73 L 31.5,36 L 30.4,30.43 L 30,31.64 V 36 H 28 V 20 Z M 34,20.21 L 36,20.41 V 35.45 L 34,35.72 V 20.22 Z M 37,20.57 L 39.18,21 L 40,29 V 21.2 L 42,21.74 V 34.27 L 40,35 L 39,27 V 35 L 37,35.38 V 20.58 Z M 43,30.43 L 44.81,30.16 S 44.81,31.91 45.51,31.64 C 46.77,31.24 46.07,29.62 45.09,29.08 C 44.67,28.88 43,28.81 43,24.9 C 43,20.99 45.65,22.13 45.65,22.13 S 47.67,22.74 47.75,25.78 C 46.49,25.64 46.28,25.64 46,25.51 C 46,25.37 45.93,24.09 45.37,24.09 C 44.74,24.09 44.74,25.1 44.88,25.51 C 45.02,25.91 45.72,26.71 46.48,27.06 C 47.25,27.39 48,28.54 48,30.02 C 48,31.51 46.77,33.66 44.4,33.66 C 42.78,33.66 43,30.43 43,30.43 Z" fill="rgb(189, 0, 55)"/>
</svg>
