<?xml version="1.0" encoding="UTF-8"?>
<!-- generated by Finnhub -->
<svg viewBox="0 0 55.5 55.5" xmlns="http://www.w3.org/2000/svg">
<path d="M 0,0 H 55.5 V 55.5 H 0 Z" fill="rgb(239, 242, 248)"/>
<path d="M 11.99,16.985 L 28,16 L 44,17 L 28,19 L 12,17 Z" fill="rgb(208, 210, 210)"/>
<path d="M 11.99,17.985 V 37 L 27,43.54 V 20 L 12,18 Z M 17,20.5 L 14,20 V 35.5 L 17,36.5 V 30.5 L 22,32 V 39 L 25,40 V 22 L 22,21.5 V 28.5 L 17,27 V 20.5 Z" fill-rule="evenodd"/>
<path d="M 28.99,19.985 V 43.5 L 44,37.5 V 18 L 29,20 Z M 35.13,21.17 L 31,21.81 L 36,31.71 V 39 L 39,37.73 V 30.81 L 43,20 L 39.8,20.47 L 37.42,26.93 L 35.12,21.17 Z" fill="rgb(229, 177, 32)" fill-rule="evenodd"/>
<path d="M 13.49,15.985 V 12.5 H 14.5 V 16 H 13.5 Z" fill="rgb(127, 129, 131)"/>
<path d="M 18.189999999999998,12.215 L 18.26,15.71 L 15,15.97 V 12.36 L 18.2,12.23 Z" fill="rgb(166, 168, 170)"/>
<path d="M 21.52,15.334999999999999 L 21.5,12 H 22.5 V 15.35 H 21.53 Z" fill="rgb(127, 129, 131)"/>
<path d="M 22.99,11.985 H 25.65 V 15.1 L 23,15.32 V 12 Z M 31.6,43.21 L 33.78,42.31 L 35.26,42.89 L 35.58,43.51 L 34.65,43.93 L 33.08,43.83 L 31.6,43.21 Z" fill="rgb(166, 168, 170)"/>
<path d="M 30.27,43.785 L 33.08,45 H 34.65 L 35.58,44.58 V 43.89 L 34.65,44.32 L 33.08,44.22 L 31.12,43.41 L 30.28,43.8 Z" fill="rgb(127, 129, 131)"/>
<path d="M 39.75,39.815 L 41.53,39.08 L 42.97,39.54 L 43.42,40.02 L 42.65,40.39 L 41.2,40.29 L 39.76,39.83 Z" fill="rgb(166, 168, 170)"/>
<path d="M 38.39,40.375 L 41.2,41.29 L 42.65,41.36 L 43.42,41.03 V 40.42 L 42.68,40.77 L 41.2,40.67 L 39.24,40.02 L 38.41,40.39 Z" fill="rgb(127, 129, 131)"/>
</svg>
