<?xml version="1.0" encoding="UTF-8"?>
<!-- generated by Finnhub -->
<svg viewBox="0 0 55.5 55.5" xmlns="http://www.w3.org/2000/svg">
<path d="M 0,0 H 55.5 V 55.5 H 0 Z" fill="rgb(239, 242, 248)"/>
<path d="M 9.99,30.695 A 1.71,1.71 0 1,0 10,27.29 A 1.71,1.71 0 0,0 10,30.71 Z M 10,35 A 6,6 0 1,0 10,23 A 6,6 0 0,0 10,35 Z" fill="url(#a)" fill-opacity=".7" fill-rule="evenodd"/>
<path d="M 19.79,30.985 C 19.24,31 18.76,30.9 18.34,30.69 C 17.92,30.49 17.59,30.19 17.35,29.83 C 17.12,29.46 17,29.03 17,28.53 C 17,28 17.12,27.55 17.35,27.17 A 2.55,2.55 0 0,1 19.5,26 A 2.8,2.8 0 0,1 21.2,26.58 A 2.25,2.25 0 0,1 22,28.23 A 0.3,0.3 0 0,1 21.9,28.43 A 0.35,0.35 0 0,1 21.67,28.5 H 17.37 L 17.25,28 H 21.46 L 21.33,28.11 V 27.92 C 21.3,27.62 21.19,27.38 21,27.17 A 1.8,1.8 0 0,0 20.33,26.7 A 2.19,2.19 0 0,0 18.84,26.66 A 1.8,1.8 0 0,0 17.79,27.62 C 17.68,27.87 17.62,28.16 17.62,28.5 C 17.62,28.86 17.71,29.2 17.88,29.5 C 18.05,29.8 18.3,30.04 18.62,30.21 C 18.94,30.39 19.33,30.47 19.78,30.47 A 2.26,2.26 0 0,0 20.98,30.14 C 21.13,30.04 21.26,29.92 21.36,29.81 A 0.4,0.4 0 0,1 21.59,29.72 C 21.66,29.72 21.73,29.75 21.78,29.8 C 21.83,29.85 21.86,29.9 21.86,29.97 S 21.83,30.11 21.76,30.17 C 21.54,30.39 21.26,30.59 20.92,30.76 C 20.58,30.92 20.2,31 19.79,31 Z M 29.8,31 C 29.24,31 28.76,30.9 28.34,30.69 C 27.92,30.49 27.59,30.19 27.35,29.83 C 27.12,29.46 27,29.03 27,28.53 C 27,28 27.12,27.55 27.35,27.17 A 2.55,2.55 0 0,1 29.5,26 A 2.8,2.8 0 0,1 31.2,26.58 A 2.25,2.25 0 0,1 32,28.23 A 0.3,0.3 0 0,1 31.9,28.43 A 0.35,0.35 0 0,1 31.67,28.5 H 27.37 L 27.25,28 H 31.46 L 31.33,28.11 V 27.92 C 31.3,27.62 31.19,27.38 31,27.17 A 1.8,1.8 0 0,0 30.33,26.7 A 2.19,2.19 0 0,0 28.84,26.66 A 1.8,1.8 0 0,0 27.79,27.62 C 27.68,27.87 27.62,28.16 27.62,28.5 C 27.62,28.86 27.71,29.2 27.88,29.5 C 28.05,29.8 28.3,30.04 28.62,30.21 C 28.94,30.39 29.33,30.47 29.78,30.47 A 2.26,2.26 0 0,0 30.98,30.14 C 31.13,30.04 31.26,29.92 31.36,29.81 A 0.4,0.4 0 0,1 31.59,29.72 C 31.66,29.72 31.73,29.75 31.78,29.8 C 31.83,29.85 31.86,29.9 31.86,29.97 S 31.83,30.11 31.76,30.17 C 31.54,30.39 31.26,30.59 30.92,30.76 C 30.58,30.92 30.2,31 29.79,31 Z M 26.3,26 C 26.47,26 26.58,26.12 26.58,26.25 V 29.93 C 26.58,31.25 25.38,32 24.14,32 C 23.59,32 23.09,31.89 22.79,31.72 A 0.46,0.46 0 0,1 22.61,31.58 A 0.16,0.16 0 0,1 22.61,31.4 A 0.28,0.28 0 0,1 22.75,31.24 A 0.32,0.32 0 0,1 22.96,31.25 C 23.34,31.42 23.73,31.55 24.15,31.55 C 25.12,31.55 26,30.95 26,29.93 V 29.33 L 26.07,29.53 C 25.73,30.13 24.87,30.42 24.21,30.42 C 23.21,30.42 22.41,29.84 22.41,28.81 V 26.25 C 22.41,26.12 22.53,26 22.71,26 C 22.88,26 23,26.12 23,26.25 V 28.73 C 23,29.52 23.44,29.95 24.33,29.95 C 25.01,29.95 26,29.54 26,28.73 V 26.25 C 26,26.11 26.13,26 26.3,26 Z M 34.52,26 C 35.65,26 36,26.84 36,27.9 V 30.72 C 36,30.87 35.87,31 35.71,31 A 0.27,0.27 0 0,1 35.43,30.72 V 27.94 C 35.43,27.16 35.34,26.5 34.52,26.5 C 33.76,26.5 33,27.12 33,27.94 V 30.72 C 33,30.87 32.87,31 32.71,31 A 0.27,0.27 0 0,1 32.43,30.72 V 26.29 C 32.43,26.14 32.55,26 32.71,26 C 32.88,26 33,26.14 33,26.3 V 27.24 L 32.78,27.58 C 32.79,27.38 32.86,27.18 32.98,27 C 33.34,26.42 33.82,26 34.52,26 Z M 41.5,28.5 C 41.5,29.91 40.4,31 39,31 S 36.5,29.9 36.5,28.5 S 37.6,26 39,26 S 41.5,27.1 41.5,28.5 Z M 40.9,28.5 C 40.9,27.43 40.1,26.53 39,26.53 C 37.9,26.53 37.1,27.43 37.1,28.5 C 37.1,29.58 37.9,30.47 39,30.47 C 40.1,30.47 40.9,29.59 40.9,28.5 Z M 41.34,26 C 41.4,26 41.46,26.02 41.51,26.05 C 41.57,26.08 41.61,26.13 41.65,26.19 L 43.56,30.17 L 43.42,30.25 L 45.38,26.19 C 45.43,26.06 45.54,26 45.69,26.01 C 45.77,26.01 45.84,26.03 45.9,26.08 C 45.97,26.11 46,26.18 46,26.25 C 46,26.29 46,26.32 45.98,26.35 L 45.96,26.41 L 43.81,30.81 C 43.75,30.93 43.65,30.99 43.51,31 C 43.45,31 43.39,31 43.31,30.96 A 0.37,0.37 0 0,1 43.19,30.82 L 41.03,26.42 A 0.27,0.27 0 0,1 41.01,26.35 A 0.26,0.26 0 0,1 41.09,26.08 C 41.15,26.03 41.23,26 41.34,26 Z M 46.8,30.73 A 0.27,0.27 0 0,1 46.52,31 A 0.29,0.29 0 0,1 46.32,30.92 A 0.27,0.27 0 0,1 46.24,30.73 V 26.27 C 46.24,26.2 46.26,26.13 46.31,26.08 A 0.29,0.29 0 0,1 46.51,26 C 46.6,26 46.67,26.03 46.71,26.08 C 46.77,26.13 46.8,26.2 46.8,26.27 V 30.73 Z M 46.52,25.75 A 0.48,0.48 0 0,1 46.22,25.67 A 0.33,0.33 0 0,1 46.12,25.42 V 25.33 C 46.12,25.23 46.16,25.14 46.23,25.09 A 0.46,0.46 0 0,1 46.53,25 C 46.65,25 46.73,25.03 46.8,25.09 C 46.87,25.14 46.9,25.22 46.9,25.33 V 25.42 C 46.9,25.52 46.87,25.62 46.8,25.67 C 46.74,25.72 46.64,25.75 46.52,25.75 Z M 51.69,26 A 0.3,0.3 0 0,1 51.91,26.08 C 51.97,26.14 52,26.21 52,26.29 V 30.72 C 52,30.79 51.97,30.86 51.9,30.92 A 0.32,0.32 0 0,1 51.69,31 A 0.33,0.33 0 0,1 51.46,30.92 A 0.27,0.27 0 0,1 51.37,30.72 V 29.5 L 51.55,29.42 C 51.55,29.6 51.5,29.78 51.38,29.96 A 2.23,2.23 0 0,1 49.46,31 A 2.45,2.45 0 0,1 47,28.49 A 2.44,2.44 0 0,1 49.45,26 C 50.23,26 51.07,26.36 51.43,27.09 C 51.53,27.29 51.59,27.51 51.59,27.74 L 51.37,27.59 V 26.29 C 51.37,26.21 51.4,26.14 51.46,26.09 A 0.33,0.33 0 0,1 51.69,26 Z M 49.52,30.47 A 1.8,1.8 0 0,0 51.16,29.51 C 51.33,29.21 51.42,28.86 51.42,28.49 C 51.42,27.43 50.6,26.53 49.52,26.53 C 48.42,26.53 47.62,27.4 47.62,28.49 C 47.62,29.57 48.4,30.47 49.52,30.47 Z"/>
<defs>
<linearGradient id="a" x1="6.5" x2="12.57" y1="24.5" y2="34.14" gradientUnits="userSpaceOnUse">
<stop stop-color="rgb(136, 185, 170)" offset="0"/>
<stop stop-color="rgb(97, 168, 138)" offset=".11"/>
<stop stop-color="rgb(88, 170, 108)" offset=".24"/>
<stop stop-color="rgb(14, 121, 183)" offset=".4"/>
<stop stop-color="rgb(3, 118, 187)" offset=".53"/>
<stop stop-color="rgb(39, 136, 102)" offset=".74"/>
<stop stop-color="rgb(22, 139, 47)" offset=".9"/>
<stop stop-color="rgb(120, 171, 173)" offset="1"/>
</linearGradient>
</defs>
</svg>
