<?xml version="1.0" encoding="UTF-8"?>
<!-- generated by Finnhub -->
<svg viewBox="0 0 55.5 55.5" xmlns="http://www.w3.org/2000/svg">
<path d="M 0,0 H 55.5 V 55.5 H 0 Z" fill="rgb(239, 242, 248)"/>
<path d="M 41.99,15.504999999999999 C 42,15.32 41.96,15.12 41.92,14.97 A 2.45,2.45 0 0,0 39.18,13.04 A 2.47,2.47 0 0,0 37,15.52 V 21.69 C 37,22 37,22 36.7,22 H 19.3 C 19.08,22 19,21.92 19,21.69 V 15.52 A 2.5,2.5 0 0,0 16.6,13 H 16.48 A 2.42,2.42 0 0,0 14,15.44 V 40.52 A 2.5,2.5 0 0,0 19,40.52 V 33.32 C 19,33 19,33 19.3,33 H 36.7 C 37,33 37,33 37,33.32 V 40.47 A 2.5,2.5 0 0,0 39.91,42.95 A 2.52,2.52 0 0,0 41.96,40.47 C 42,32.17 42,23.85 42,15.52 Z M 36.7,29 H 19.26 C 19.06,29 18.99,28.96 18.99,28.73 V 26.27 C 18.99,26.04 19.07,26 19.26,26 H 36.7 C 37.01,26 37.01,26 37.01,26.31 V 28.73 C 36.97,28.96 36.89,29 36.71,29 Z M 42,15.52 C 42,15.32 41.96,15.12 41.92,14.97 A 2.45,2.45 0 0,0 39.18,13.04 A 2.47,2.47 0 0,0 37,15.52 V 21.69 C 37,22 37,22 36.7,22 H 19.3 C 19.08,22 19,21.92 19,21.69 V 15.52 A 2.5,2.5 0 0,0 16.6,13 H 16.48 A 2.42,2.42 0 0,0 14,15.44 V 40.52 A 2.5,2.5 0 0,0 19,40.52 V 33.32 C 19,33 19,33 19.3,33 H 36.7 C 37,33 37,33 37,33.32 V 40.47 A 2.5,2.5 0 0,0 39.91,42.95 A 2.52,2.52 0 0,0 41.96,40.47 C 42,32.17 42,23.85 42,15.52 Z M 36.7,29 H 19.26 C 19.06,29 18.99,28.96 18.99,28.73 V 26.27 C 18.99,26.04 19.07,26 19.26,26 H 36.7 C 37.01,26 37.01,26 37.01,26.31 V 28.73 C 36.97,28.96 36.89,29 36.71,29 Z M 42,15.52 C 42,15.32 41.96,15.12 41.92,14.97 A 2.45,2.45 0 0,0 39.18,13.04 A 2.47,2.47 0 0,0 37,15.52 V 21.69 C 37,22 37,22 36.7,22 H 19.3 C 19.08,22 19,21.92 19,21.69 V 15.52 A 2.5,2.5 0 0,0 16.6,13 H 16.48 A 2.42,2.42 0 0,0 14,15.44 V 40.52 A 2.5,2.5 0 0,0 19,40.52 V 33.32 C 19,33 19,33 19.3,33 H 36.7 C 37,33 37,33 37,33.32 V 40.47 A 2.5,2.5 0 0,0 39.91,42.95 A 2.52,2.52 0 0,0 41.96,40.47 C 42,32.17 42,23.85 42,15.52 Z M 36.7,29 H 19.26 C 19.06,29 18.99,28.96 18.99,28.73 V 26.27 C 18.99,26.04 19.07,26 19.26,26 H 36.7 C 37.01,26 37.01,26 37.01,26.31 V 28.73 C 36.97,28.96 36.89,29 36.71,29 Z M 42,15.52 C 42,15.32 41.96,15.12 41.92,14.97 A 2.45,2.45 0 0,0 39.18,13.04 A 2.47,2.47 0 0,0 37,15.52 V 21.69 C 37,22 37,22 36.7,22 H 19.3 C 19.08,22 19,21.92 19,21.69 V 15.52 A 2.5,2.5 0 0,0 16.6,13 H 16.48 A 2.42,2.42 0 0,0 14,15.44 V 40.52 A 2.5,2.5 0 0,0 19,40.52 V 33.32 C 19,33 19,33 19.3,33 H 36.7 C 37,33 37,33 37,33.32 V 40.47 A 2.5,2.5 0 0,0 39.91,42.95 A 2.52,2.52 0 0,0 41.96,40.47 C 42,32.17 42,23.85 42,15.52 Z M 36.7,29 H 19.26 C 19.06,29 18.99,28.96 18.99,28.73 V 26.27 C 18.99,26.04 19.07,26 19.26,26 H 36.7 C 37.01,26 37.01,26 37.01,26.31 V 28.73 C 36.97,28.96 36.89,29 36.71,29 Z M 42,15.52 C 42,15.32 41.96,15.12 41.92,14.97 A 2.45,2.45 0 0,0 39.18,13.04 A 2.47,2.47 0 0,0 37,15.52 V 21.69 C 37,22 37,22 36.7,22 H 19.3 C 19.08,22 19,21.92 19,21.69 V 15.52 A 2.5,2.5 0 0,0 16.6,13 H 16.48 A 2.42,2.42 0 0,0 14,15.44 V 40.52 A 2.5,2.5 0 0,0 19,40.52 V 33.32 C 19,33 19,33 19.3,33 H 36.7 C 37,33 37,33 37,33.32 V 40.47 A 2.5,2.5 0 0,0 39.91,42.95 A 2.52,2.52 0 0,0 41.96,40.47 C 42,32.17 42,23.85 42,15.52 Z M 36.7,29 H 19.26 C 19.06,29 18.99,28.96 18.99,28.73 V 26.27 C 18.99,26.04 19.07,26 19.26,26 H 36.7 C 37.01,26 37.01,26 37.01,26.31 V 28.73 C 36.97,28.96 36.89,29 36.71,29 Z" fill="url(#a)"/>
<defs>
<linearGradient id="a" x1="14" x2="43" y1="26" y2="26" gradientUnits="userSpaceOnUse">
<stop stop-color="rgb(50, 52, 110)" offset="0"/>
<stop stop-color="rgb(91, 51, 103)" offset="1"/>
</linearGradient>
</defs>
</svg>
