<?xml version="1.0" encoding="UTF-8"?>
<!-- generated by Finnhub -->
<svg viewBox="0 0 55.5 55.5" xmlns="http://www.w3.org/2000/svg">
<path d="M 0,0 H 55.5 V 55.5 H 0 Z" fill="rgb(88, 43, 127)"/>
<path d="M 13.99,20.985 H 11 V 34 H 14 V 21 Z M 12.5,19 A 1.5,1.5 0 1,0 12.5,16 A 1.5,1.5 0 0,0 12.5,19 Z" fill="rgb(239, 242, 248)"/>
<path d="M 25.99,20.985 H 29 V 34 H 25.94 V 32.84 A 6.13,6.13 0 0,1 22.37,33.99 C 18.85,33.99 16,31 16,27.32 A 6.22,6.22 0 0,1 22.37,21 C 23.69,21 24.98,21.42 26,22.15 V 21 Z M 22.37,24 A 3.56,3.56 0 0,1 25.94,27.5 C 25.94,29.48 24.25,31 22.37,31 A 3.39,3.39 0 0,1 19,27.5 C 19,25.52 20.48,24 22.37,24 Z M 45,21.03 V 24.32 H 43.98 A 5.45,5.45 0 0,1 45,27.5 A 6.37,6.37 0 0,1 40.56,33.54 A 4.91,4.91 0 0,1 38.6,43 A 4.95,4.95 0 0,1 36.51,33.54 A 6.29,6.29 0 0,1 32,27.5 C 32,23.88 34.91,21 38.5,21 C 40.67,21 42.83,21.03 45,21.03 Z M 38.6,36 C 39.7,36 40.6,36.91 40.6,38.03 C 40.6,39.15 39.7,40.06 38.6,40.06 C 37.48,40.06 36.58,39.16 36.58,38.03 C 36.58,36.91 37.48,36 38.59,36 Z M 38.5,24 C 40.43,24 42,25.55 42,27.5 A 3.49,3.49 0 1,1 35,27.5 C 35,25.55 36.57,24 38.5,24 Z" fill="rgb(239, 242, 248)" fill-rule="evenodd"/>
</svg>
