<?xml version="1.0" encoding="UTF-8"?>
<!-- generated by Finnhub -->
<svg viewBox="0 0 55.5 55.5" xmlns="http://www.w3.org/2000/svg">
<path d="M 0,0 H 55.5 V 55.5 H 0 Z" fill="rgb(239, 242, 248)"/>
<path d="M 40.09,27.765 A 0.12,0.12 0 0,1 40.02,27.74 A 0.1,0.1 0 0,1 39.99,27.67 V 27.61 L 40.01,27.57 A 0.08,0.08 0 0,1 40.07,27.55 H 45.89 C 45.92,27.55 45.95,27.55 45.97,27.57 A 0.1,0.1 0 0,1 46,27.65 V 27.71 C 46,27.73 46,27.75 45.98,27.77 A 0.09,0.09 0 0,1 45.92,27.79 C 44.86,27.87 44.12,27.99 44.07,29.05 A 87.35,87.35 0 0,0 44,33.75 C 44,33.79 43.98,33.82 43.96,33.85 A 0.13,0.13 0 0,1 43.86,33.88 C 43.13,33.88 42.11,34.11 40.81,34.58 C 39.93,34.88 38.91,35.03 37.75,35 C 32.56,34.87 29.87,29.99 31.45,25.7 C 32.6,22.58 35.18,20.78 38.8,21.02 C 40.14,21.12 41.31,21.57 42.3,22.41 C 43.14,23.11 43.48,22.22 43.54,21.61 C 43.54,21.57 43.57,21.54 43.59,21.51 A 0.16,0.16 0 0,1 43.7,21.48 H 43.71 C 43.75,21.48 43.78,21.49 43.81,21.52 C 43.83,21.54 43.85,21.58 43.85,21.62 V 25.74 L 43.82,25.83 A 0.15,0.15 0 0,1 43.63,25.85 A 0.13,0.13 0 0,1 43.57,25.77 C 43.08,23.36 41.58,21.54 38.89,21.27 C 37.93,21.18 37.03,21.34 36.19,21.73 C 34.23,22.66 33.53,24.23 33.29,26.32 C 33.05,28.45 33.12,31.56 34.78,33.25 A 4.95,4.95 0 0,0 38.72,34.73 C 40.48,34.66 41.98,33.73 42,31.93 V 28.78 C 41.84,27.73 40.95,27.88 40.1,27.78 Z M 16.9,21 A 0.1,0.1 0 0,1 16.97,21.04 C 16.99,21.06 17,21.09 17,21.12 V 21.18 C 17,21.2 17,21.21 16.98,21.23 A 0.07,0.07 0 0,1 16.93,21.25 C 15.37,21.25 14.98,21.81 15,23.34 V 32.66 C 14.98,34.19 15.37,34.74 16.93,34.75 C 16.95,34.75 16.96,34.75 16.98,34.77 L 17,34.82 V 34.89 A 0.11,0.11 0 0,1 16.97,34.96 A 0.1,0.1 0 0,1 16.89,34.99 A 495.87,495.87 0 0,1 11.07,34.99 A 0.1,0.1 0 0,1 11.01,34.93 L 11,34.89 V 34.82 C 11,34.8 11,34.79 11.02,34.77 A 0.07,0.07 0 0,1 11.07,34.75 C 12.63,34.75 13.02,34.19 13,32.66 V 23.34 C 13.02,21.81 12.63,21.26 11.07,21.24 L 11.02,21.23 A 0.07,0.07 0 0,1 11,21.18 V 21.11 C 11,21.08 11.01,21.06 11.03,21.04 A 0.1,0.1 0 0,1 11.11,21 H 16.89 Z M 25.4,27.33 C 25.43,27.3 25.62,27.25 25.97,27.19 C 26.93,27.01 27.6,26.13 27.76,25.27 C 28.03,23.76 27.82,22.05 26.05,21.48 C 25.44,21.29 24.52,21.22 23.15,21.28 A 0.15,0.15 0 0,0 23.05,21.33 A 0.13,0.13 0 0,0 23,21.42 V 27.35 L 23.01,27.4 L 23.04,27.44 L 23.09,27.46 L 23.14,27.47 L 25.06,27.44 A 0.3,0.3 0 0,1 25.16,27.46 A 3,3 0 0,0 25.71,27.64 C 27.31,27.78 28.89,28.06 29.94,29.16 C 30.76,30.01 30.99,31.33 30.58,32.42 C 29.7,34.78 27.18,34.98 24.74,34.99 H 18.6 A 0.12,0.12 0 0,1 18.52,34.96 A 0.1,0.1 0 0,1 18.49,34.89 V 34.84 A 0.1,0.1 0 0,1 18.49,34.8 A 0.1,0.1 0 0,1 18.52,34.77 A 0.11,0.11 0 0,1 18.6,34.74 C 20.7,34.86 21,34.22 21,32.37 V 24.52 C 20.99,23.43 20.93,22.68 20.84,22.27 C 20.64,21.31 19.54,21.37 18.76,21.38 A 0.13,0.13 0 0,1 18.67,21.35 A 0.11,0.11 0 0,1 18.64,21.27 V 21.21 C 18.64,21.19 18.64,21.18 18.66,21.16 A 250.7,250.7 0 0,1 24.08,21 C 26.51,20.96 30.58,21.57 29.9,24.82 C 29.52,26.64 27.2,27.32 25.44,27.42 H 25.41 A 0.05,0.05 0 0,1 25.39,27.39 A 0.05,0.05 0 0,1 25.39,27.33 Z M 23,27.83 V 33.38 C 23.03,34.08 23.42,34.65 24.27,34.71 C 26.16,34.84 27.97,34.45 28.47,32.51 C 28.92,30.74 28.57,28.53 26.34,27.97 A 9.9,9.9 0 0,0 23.12,27.73 A 0.12,0.12 0 0,0 23.04,27.76 C 23.02,27.78 23,27.81 23,27.84 Z M 44.93,38 A 0.07,0.07 0 0,0 44.98,37.98 A 0.07,0.07 0 0,0 45,37.93 V 37.05 L 45.02,37.02 A 0.05,0.05 0 0,1 45.06,37 H 46.94 A 0.06,0.06 0 0,1 46.98,37.02 A 0.07,0.07 0 0,1 47,37.07 V 39.86 A 0.15,0.15 0 0,1 46.95,39.96 A 0.14,0.14 0 0,1 46.85,40 H 9.15 L 9.1,39.99 A 0.14,0.14 0 0,1 9.02,39.91 A 0.15,0.15 0 0,1 9.01,39.86 V 37.07 A 0.07,0.07 0 0,1 9.02,37.02 A 0.07,0.07 0 0,1 9.07,37 H 10.95 C 10.96,37 10.98,37 10.99,37.02 L 11,37.05 V 37.93 A 0.07,0.07 0 0,0 11.05,38 H 44.93 Z M 44.93,18 A 0.07,0.07 0 0,1 44.98,18.02 A 0.07,0.07 0 0,1 45,18.07 V 18.95 L 45.02,18.98 L 45.06,19 H 46.93 A 0.06,0.06 0 0,0 46.98,18.98 A 0.07,0.07 0 0,0 47,18.93 V 16.14 A 0.15,0.15 0 0,0 46.95,16.04 A 0.14,0.14 0 0,0 46.85,16 H 9.15 L 9.1,16.01 A 0.14,0.14 0 0,0 9.02,16.09 L 9.01,16.14 L 9,18.93 A 0.07,0.07 0 0,0 9.02,18.98 A 0.07,0.07 0 0,0 9.07,19 H 10.95 C 10.96,19 10.97,19 10.98,18.98 A 0.06,0.06 0 0,0 11,18.94 V 18.07 A 0.08,0.08 0 0,1 11.03,18.02 A 0.07,0.07 0 0,1 11.08,18 H 44.93 Z" fill="rgb(22, 29, 42)"/>
</svg>
