<?xml version="1.0" encoding="UTF-8"?>
<!-- generated by Finnhub -->
<svg viewBox="0 0 55.5 55.5" xmlns="http://www.w3.org/2000/svg">
<path d="M 0,0 H 55.5 V 55.5 H 0 Z" fill="rgb(32, 74, 23)"/>
<path d="M 10.99,25.985 H 9 V 25.56 H 11 C 11.787,25.56 12.508,25.509 13,25 V 35.592 H 15 V 36 H 9 V 35.592 H 11 V 26 Z M 32,26 H 30 V 25.56 H 32 C 32.786,25.56 33.508,25.509 34,25 V 35.592 H 36 V 36 H 30 V 35.592 H 32 V 26 Z M 11.5,19 C 12.323,19 13,19.676 13,20.5 C 13,21.323 12.323,22 11.5,22 C 10.676,22 10,21.323 10,20.5 C 10,19.676 10.676,19 11.5,19 Z M 22.57,35.591 H 20 V 26.641 H 21.868 C 24.534,26.641 27,28.074 27,30.937 C 27,33.927 25.026,35.591 22.57,35.591 Z M 20,18.409 H 21.822 C 25.236,18.409 26.5,20.902 26.5,22.258 C 26.5,25.734 24.277,26.233 22.15,26.233 H 20 V 18.409 Z M 23.856,26.489 V 26.437 C 25.539,26.259 28.5,25.901 28.5,21.989 C 28.5,19.917 26.615,18 23.132,18 H 16 V 18.409 H 18 V 35.591 H 16 V 36 H 23.997 C 26.194,36 29,34.619 29,31.168 C 29,27.92 26.405,26.718 23.856,26.488 Z M 46,31.466 C 46,33.622 45.405,35.605 42.5,35.605 C 39.594,35.605 39,33.622 39,31.467 V 29.534 C 39,27.378 39.594,25.396 42.5,25.396 C 45.405,25.396 46,27.378 46,29.534 V 31.467 Z M 42.5,25 C 39.153,25 37,27.651 37,30.5 C 37,33.349 39.153,36 42.5,36 S 48,33.35 48,30.5 S 45.847,25 42.5,25 Z" fill="rgb(254, 254, 253)"/>
<path d="M 37.99,15.261 A 8.265,8.265 0 0,0 35.937,15 H 35.895 C 31.142,15.013 28.34,19.534 31.075,22.716 C 31.528,17.69 35.083,16.812 35.088,16.822 C 33.836,17.976 32.161,18.479 31.835,22.772 V 23 H 32.353 C 39.675,22.325 34.936,17.706 38,15.276 Z" fill="rgb(139, 176, 65)"/>
</svg>
