<?xml version="1.0" encoding="UTF-8"?>
<!-- generated by Finnhub -->
<svg viewBox="0 0 55.5 55.5" xmlns="http://www.w3.org/2000/svg">
<path d="M 0,0 H 55.5 V 55.5 H 0 Z" fill="rgb(239, 242, 248)"/>
<path d="M 20.913999999999998,20.500999999999998 C 27.849,13.716 36.249,11.952 39.61,16.586 C 42.972,21.221 40.017,30.589 33.093,37.389 C 26.169,44.239 17.769,46.002 14.356,41.317 C 11.048,36.634 14.003,27.314 20.924,20.517 Z" fill="rgb(239, 98, 31)"/>
<path d="M 25.497999999999998,16.874 C 24.744,17.443 23.981,18.097 23.218,18.805 C 17.158,24.746 14.611,32.905 17.616,36.987 C 20.721,41.065 28.154,39.555 34.366,33.56 C 37.727,30.338 39.966,26.61 40.883,23.135 C 41.137,20.567 40.781,18.299 39.61,16.587 C 36.964,12.961 31.261,13.261 25.508,16.889 Z" fill="rgb(173, 39, 44)"/>
<path d="M 34.254000000000005,17.628999999999998 V 17.794 C 34.214,18.651 33.704,19.708 32.788,20.614 C 31.414,21.924 29.582,22.427 28.816,21.674 C 27.951,20.869 28.462,19.104 29.836,17.694 C 31.261,16.334 33.093,15.882 33.856,16.687 C 34.111,16.939 34.264,17.241 34.264,17.644 Z M 28.971,40.764 C 25.711,43.18 22.352,44.391 19.092,43.887 C 20.466,43.937 21.589,42.425 22.505,40.411 C 23.421,38.346 23.93,36.433 24.388,34.618 C 25.049,31.748 25.1,29.733 24.744,29.28 C 24.184,28.573 22.963,28.726 21.535,29.532 C 20.823,29.935 19.907,29.683 20.978,28.374 C 22.098,27.064 26.424,23.94 27.951,23.437 C 29.683,22.984 31.617,23.638 30.956,25.501 C 30.496,26.861 24.49,42.374 28.971,40.763 Z" fill="rgb(254, 254, 253)"/>
</svg>
