<?xml version="1.0" encoding="UTF-8"?>
<!-- generated by Finnhub -->
<svg viewBox="0 0 55.5 55.5" xmlns="http://www.w3.org/2000/svg">
<path d="M 0,0 H 55.5 V 55.5 H 0 Z" fill="rgb(18, 130, 115)"/>
<ellipse cx="10.367" cy="27.5" rx="6.367" ry="6.5" fill="rgb(254, 254, 253)"/>
<ellipse cx="22.305" cy="27.5" rx="6.367" ry="6.5" fill="rgb(254, 254, 253)"/>
<ellipse cx="34.4" cy="27.5" rx="6.367" ry="6.5" fill="rgb(254, 254, 253)"/>
<ellipse cx="45.633" cy="27.5" rx="6.367" ry="6.5" fill="rgb(254, 254, 253)"/>
<path d="M 34.39,29.522 C 33.16,29.535 32.278,28.664 32.276,27.46 C 32.278,26.256 33.16,25.346 34.4,25.343 C 35.638,25.346 36.531,26.256 36.533,27.46 C 36.531,28.663 35.638,29.535 34.4,29.537 Z M 34.4,23.676 C 32.249,23.676 30.504,25.37 30.504,27.46 S 32.248,31.243 34.4,31.243 C 36.55,31.243 38.295,29.549 38.295,27.46 C 38.295,25.37 36.549,23.676 34.4,23.676 Z M 42,31 V 24.535 C 42.002,23.989 42.42,23.699 42.937,23.698 C 43.185,23.702 43.53,23.852 43.699,24.059 L 47,27.604 V 24.535 C 47,23.989 47.438,23.666 47.955,23.665 C 48.472,23.666 48.999,23.989 49,24.535 V 30.385 C 48.999,30.93 48.517,31.189 48,31.189 C 47.751,31.186 47.463,31.093 47.285,30.889 L 44,27.416 V 31 H 42 Z M 25.062,29.288 A 0.834,0.834 0 0,0 24.372,28.921 A 0.875,0.875 0 0,0 23.925,29.058 C 23.525,29.406 22.997,29.537 22.42,29.537 C 21.18,29.535 20.29,28.642 20.288,27.438 C 20.29,26.235 21.18,25.365 22.421,25.363 C 23.251,25.363 24.101,25.767 24.488,26.413 L 25.651,25.363 L 25.569,25.255 A 3.926,3.926 0 0,0 22.421,23.697 C 20.27,23.697 18.525,25.391 18.525,27.481 S 20.27,31.264 22.421,31.264 C 23.348,31.264 24.204,30.95 24.876,30.423 A 0.775,0.775 0 0,0 25.1,29.345 L 25.062,29.288 Z M 10.541,24 H 10.459 C 9.929,24 9.5,24.36 9.5,24.806 V 31 H 11.5 V 24.806 C 11.5,24.361 11.07,24 10.541,24 Z" fill="rgb(1, 132, 119)"/>
</svg>
