<?xml version="1.0" encoding="UTF-8"?>
<!-- generated by Finnhub -->
<svg viewBox="0 0 55.5 55.5" xmlns="http://www.w3.org/2000/svg">
<path d="M 0,0 H 55.5 V 55.5 H 0 Z" fill="rgb(239, 242, 248)"/>
<path d="M 30.189999999999998,18.915 A 6.86,6.86 0 0,0 27.44,27.78 C 27.87,28.73 29.29,30.65 32.46,31.6 C 35.84,32.04 38.5,29.85 39.82,26.82 C 41.22,23.61 42.6,20.4 43.95,17.2 A 0.14,0.14 0 0,0 43.8,17 C 40.61,17.3 37.43,17.6 34.25,17.93 C 32.81,18.07 31.01,18.47 30.21,18.93 Z M 28.66,27.39 C 26.83,23.08 29.72,19.71 33.9,19.25 C 36.55,18.97 39.2,18.72 41.84,18.52 C 41.9,18.52 41.94,18.58 41.92,18.64 C 40.9,21.09 39.82,23.66 38.78,26.07 C 37.07,30.03 32.3,32.57 28.66,27.39 Z" fill="rgb(186, 214, 43)"/>
<path d="M 37.99,27.515 A 6.81,6.81 0 0,0 28.76,27.58 C 27.99,28.28 26.61,30.22 26.66,33.54 C 27.28,36.9 30.17,38.78 33.46,39.11 C 36.93,39.47 40.39,39.81 43.85,40.13 C 43.95,40.13 44.03,40.03 43.99,39.93 C 42.73,36.97 41.47,34.03 40.19,31.08 C 39.62,29.75 38.69,28.16 38.01,27.53 Z M 29.5,28.63 C 33.05,25.56 37.12,27.3 38.83,31.16 C 39.91,33.6 40.95,36.05 41.95,38.51 C 41.97,38.57 41.92,38.64 41.85,38.63 C 39.22,38.4 36.45,38.15 33.85,37.89 C 29.56,37.46 25.69,33.69 29.51,28.62 Z" fill="rgb(187, 204, 138)"/>
<path d="M 21.189999999999998,22.015 A 6.83,6.83 0 0,1 28.62,27.55 C 28.83,28.57 28.81,30.96 26.81,33.6 C 24.33,35.96 20.9,35.75 18.05,34.08 A 797.44,797.44 0 0,1 9.07,28.74 A 0.14,0.14 0 0,1 9.07,28.5 L 17.34,23.6 C 18.59,22.87 20.27,22.13 21.19,22.03 Z M 27.41,27.95 C 26.36,23.39 22.04,22.38 18.39,24.47 C 16.09,25.81 13.8,27.17 11.55,28.57 C 11.49,28.59 11.5,28.68 11.55,28.71 A 566.1,566.1 0 0,0 18.45,32.86 C 22.16,35.06 27.51,34.3 27.41,27.96 Z" fill="rgb(66, 167, 172)"/>
<path d="M 32.46,37.425 A 6.86,6.86 0 0,0 29.57,28.64 C 28.67,28.12 26.4,27.39 23.27,28.47 C 20.27,30.09 19.38,33.43 20.08,36.67 C 20.81,40.09 21.56,43.5 22.32,46.89 C 22.35,46.99 22.48,47.03 22.55,46.97 C 24.97,44.86 27.38,42.74 29.77,40.62 C 30.86,39.66 32.09,38.29 32.47,37.44 Z M 28.81,29.67 C 32.81,32.1 32.41,36.52 29.28,39.34 A 265.45,265.45 0 0,1 23.28,44.58 C 23.22,44.63 23.14,44.6 23.13,44.53 C 22.53,41.95 21.91,39.23 21.36,36.66 C 20.45,32.45 22.83,27.59 28.81,29.66 Z" fill="rgb(144, 191, 172)"/>
<path d="M 32.46,19.544999999999998 A 6.86,6.86 0 0,1 29.57,28.36 C 28.67,28.88 26.4,29.61 23.27,28.53 C 20.27,26.91 19.39,23.57 20.08,20.33 C 20.81,16.91 21.56,13.5 22.32,10.11 C 22.35,10.01 22.48,9.97 22.55,10.03 C 24.97,12.14 27.38,14.26 29.77,16.38 C 30.87,17.34 32.09,18.71 32.47,19.56 Z M 28.81,27.33 C 32.81,24.9 32.41,20.48 29.29,17.66 A 265.65,265.65 0 0,0 23.27,12.42 C 23.22,12.37 23.14,12.4 23.13,12.47 C 22.53,15.05 21.91,17.77 21.36,20.34 C 20.45,24.56 22.83,29.41 28.81,27.34 Z" fill="rgb(20, 108, 126)"/>
<path d="M 30.45,22.585 A 0.4,0.4 0 1,0 30.46,21.81 A 0.4,0.4 0 0,0 30.46,22.61 Z M 30,24 A 0.4,0.4 0 1,0 30,23.19 A 0.4,0.4 0 0,0 30,23.99 Z" fill="rgb(19, 108, 126)"/>
<path d="M 23.16,24.995 A 0.39,0.39 0 1,0 23.17,24.24 A 0.39,0.39 0 0,0 23.17,25.01 Z" fill="rgb(66, 167, 172)"/>
<path d="M 29.569999999999997,25.355 A 0.4,0.4 0 1,0 29.58,24.57 A 0.4,0.4 0 0,0 29.58,25.37 Z" fill="rgb(19, 108, 126)"/>
<path d="M 24.29,25.835 A 0.4,0.4 0 1,0 24.3,25.06 A 0.4,0.4 0 0,0 24.3,25.86 Z M 25.49,26.71 A 0.4,0.4 0 1,0 25.49,25.9 A 0.4,0.4 0 0,0 25.49,26.71 Z" fill="rgb(66, 167, 172)"/>
<path d="M 32.09,28.805 A 0.39,0.39 0 1,0 32.1,28.04 A 0.39,0.39 0 0,0 32.1,28.82 Z M 33.54,28.83 A 0.39,0.39 0 1,0 33.54,28.04 A 0.39,0.39 0 0,0 33.54,28.83 Z M 35,28.85 A 0.39,0.39 0 1,0 35,28.07 A 0.39,0.39 0 0,0 35,28.85 Z" fill="rgb(186, 214, 43)"/>
<path d="M 25.49,30.985 A 0.4,0.4 0 1,0 25.5,30.2 A 0.4,0.4 0 0,0 25.5,31 Z M 24.34,31.84 A 0.4,0.4 0 1,0 24.34,31.04 A 0.4,0.4 0 0,0 24.34,31.84 Z" fill="rgb(144, 191, 172)"/>
<path d="M 29.569999999999997,32.315 A 0.4,0.4 0 1,0 29.58,31.53 A 0.4,0.4 0 0,0 29.58,32.33 Z" fill="rgb(187, 204, 138)"/>
<path d="M 23.16,32.685 A 0.39,0.39 0 1,0 23.17,31.92 A 0.39,0.39 0 0,0 23.17,32.7 Z" fill="rgb(144, 191, 172)"/>
<path d="M 29.66,33.225 C 29.64,33.48 29.78,33.69 29.98,33.71 C 30.18,33.74 30.37,33.58 30.4,33.34 C 30.43,33.11 30.3,32.9 30.1,32.88 C 29.9,32.85 29.7,33.01 29.67,33.24 Z M 30.1,34.63 C 30.08,34.87 30.23,35.07 30.44,35.08 C 30.64,35.1 30.82,34.92 30.84,34.68 C 30.86,34.45 30.7,34.25 30.5,34.24 C 30.3,34.22 30.12,34.4 30.1,34.64 Z" fill="rgb(187, 204, 138)"/>
</svg>
