<?xml version="1.0" encoding="UTF-8"?>
<!-- generated by Finnhub -->
<svg viewBox="0 0 55.5 55.5" xmlns="http://www.w3.org/2000/svg">
<path d="M 0,0 H 55.5 V 55.5 H 0 Z" fill="rgb(202, 1, 0)"/>
<path d="M 27.988999999999997,14.458 C 20.532,14.473 14.477,20.533 14.477,27.999 C 14.477,35.466 20.532,41.523 27.999,41.523 C 35.465,41.523 41.52,35.466 41.52,27.999 C 41.52,20.534 35.465,14.473 27.999,14.473 Z M 27.999,12 C 19.159,12 12,19.16 12,27.999 C 12,36.838 19.158,44 28,44 C 36.837,44 44,36.838 44,27.999 C 44,19.159 36.837,12 28,12 Z M 19,19 H 27.042 V 22 H 22 V 24 H 27 V 32 H 22 V 34 H 27.043 V 37 H 19.001 V 29 H 24 V 27 H 19 V 19 Z M 37,19 H 28.957 V 22 H 34 V 24 H 29 V 32 H 34 V 34 H 28.957 V 37 H 37 V 29 H 32 V 27 H 37 V 19 Z" fill="rgb(254, 254, 253)" fill-rule="evenodd"/>
</svg>
