<?xml version="1.0" encoding="UTF-8"?>
<!-- generated by Finnhub -->
<svg viewBox="0 0 55.5 55.5" xmlns="http://www.w3.org/2000/svg">
<path d="M 0,0 H 55.5 V 55.5 H 0 Z" fill="rgb(239, 242, 248)"/>
<path d="M 28.08,17.985 L 48.72,21.97 A 2.76,2.76 0 0,1 51,24.64 V 31.36 C 51,32.66 50.05,33.78 48.72,34.03 L 28.1,38 L 7.3,34.03 A 2.76,2.76 0 0,1 5,31.35 V 24.65 C 5,23.35 5.96,22.22 7.28,21.97 L 28.1,18 Z M 28.12,20.96 L 47.75,23.77 C 49.01,23.96 49.92,24.75 49.92,25.67 V 30.44 C 49.92,31.37 49.02,32.16 47.75,32.34 L 28.12,35.16 L 8.32,32.34 C 7.05,32.16 6.14,31.36 6.14,30.44 V 25.68 C 6.14,24.75 7.05,23.96 8.31,23.78 L 28.11,20.96 Z" fill-rule="evenodd"/>
<path d="M 38.39,25.985 H 17.6 L 21,24.3 V 24.88 L 24,23.52 V 24.3 L 28,22.47 L 32,24.3 V 23.52 L 35,24.88 V 24.3 L 38.4,26 Z M 7.63,27.44 H 8.63 V 30.33 H 7.63 Z M 16,27.44 H 17 V 30.33 H 16 Z M 18,27.42 H 19 V 30.31 H 18 Z"/>
<path d="M 16.52,28.505 H 18.12 V 29.2 H 16.53 Z M 28,27.42 H 27.12 V 28 H 28 V 30.3 H 29 V 28 H 29.84 V 27.42 H 28 Z M 37,27.42 H 36.17 V 28 H 37 V 30.3 H 38 V 28 H 38.81 V 27.42 H 37.01 Z M 45,27.42 H 46 V 30.31 H 45 V 27.41 Z M 39.44,27.42 H 39 V 30.31 H 41.46 V 29.63 H 40 V 29.2 H 41.02 V 28.52 H 40 V 28 H 41.46 V 27.42 H 39.44 Z"/>
<path d="M 10.55,27.425 H 9 V 30.32 H 10.56 A 1.44,1.44 0 0,0 10.56,27.44 Z M 10.14,28 H 10 V 29.72 H 10.14 A 0.86,0.86 0 0,0 10.14,28 Z" fill-rule="evenodd"/>
<path d="M 11.93,30.275 L 13.36,27.44 H 14.5 L 15.74,30.29 H 14.74 L 14.51,29.69 H 13.24 L 12.98,30.29 H 11.94 Z M 13.5,29.06 H 14.26 L 13.89,28.13 L 13.5,29.06 Z M 32.74,30.3 L 34.16,27.44 H 35.3 L 36.54,30.3 H 35.54 L 35.31,29.7 H 34.04 L 33.79,30.3 H 32.74 Z M 34.3,29.07 H 35.06 L 34.7,28.13 L 34.3,29.07 Z"/>
<path d="M 20.93,30.355 C 22.07,30.38 22.7,29.71 22.7,28.89 S 22.15,27.41 20.94,27.4 C 19.74,27.4 19.19,28.07 19.19,28.89 S 19.82,30.36 20.94,30.37 Z M 20.94,29.75 C 21.49,29.75 21.79,29.36 21.79,28.89 C 21.79,28.41 21.52,28.03 20.94,28.02 C 20.36,28.02 20.09,28.41 20.09,28.89 C 20.09,29.36 20.39,29.74 20.94,29.75 Z" fill-rule="evenodd"/>
<path d="M 26.709999999999997,27.375 L 26.89,28.11 C 26.65,28.01 25.79,27.85 25.79,28.11 C 25.77,28.32 25.96,28.45 26.05,28.49 C 26.37,28.66 27,29.11 27.01,29.55 C 27.01,30.1 26.41,30.35 25.91,30.35 C 25.52,30.35 25.11,30.3 24.97,30.27 L 24.75,29.47 C 24.87,29.57 25.22,29.74 25.65,29.72 C 26.18,29.69 26.16,29.38 25.49,29 C 24.95,28.7 24.81,28.31 24.81,28.16 C 24.82,27.48 25.41,27.34 25.91,27.34 C 26.32,27.34 26.61,27.37 26.71,27.39 Z M 30,27.45 V 30.29 H 31 V 28 H 31.46 C 31.58,28 31.82,28.14 31.8,28.4 C 31.78,28.64 31.56,28.74 31.46,28.76 H 31.06 L 31.68,30.29 H 32.74 L 32.09,29.08 A 0.9,0.9 0 0,0 32.74,28.28 C 32.75,27.61 32.04,27.45 31.68,27.45 H 30 Z M 43.33,27.45 C 43.75,27.43 44.13,27.51 44.27,27.55 L 44.45,28.23 C 43.66,27.91 42.5,27.95 42.47,28.95 C 42.44,29.74 43.27,29.75 43.68,29.65 V 29.2 H 43.33 V 28.64 H 44.56 V 30.18 C 44.14,30.3 43.6,30.33 43.39,30.33 C 42.75,30.33 41.49,30.07 41.54,28.95 C 41.6,27.55 42.81,27.47 43.34,27.45 Z M 46.22,28.86 C 46.19,27.4 47.83,27.32 48.65,27.46 L 48.83,28.16 C 48.56,28.07 47.06,27.72 47.13,28.93 C 47.18,29.9 48.29,29.77 48.83,29.58 L 48.65,30.27 C 48.45,30.33 46.25,30.67 46.22,28.86 Z"/>
</svg>
