<?xml version="1.0" encoding="UTF-8"?>
<!-- generated by Finnhub -->
<svg viewBox="0 0 55.5 55.5" xmlns="http://www.w3.org/2000/svg">
<path d="M 0,28 A 28,28 0 1,1 56,28 A 28,28 0 0,1 0,28 Z" fill="rgb(45, 40, 76)"/>
<path d="M 6.49,22.985 V 33 H 5 V 23 H 6.5 Z M 11.2,23 C 14.43,23 16,25.1 16,28 S 14.43,33 11.2,33 H 8 V 23 H 11.2 Z M 11.18,24.5 H 9.5 V 31.5 H 11.18 C 13.35,31.5 14.5,30.24 14.5,28 S 13.35,24.5 11.18,24.5 Z M 24,23 V 24.5 H 18.5 V 27 H 24 V 28.5 H 18.5 V 31.5 H 24 V 33 H 17 V 23 H 24 Z M 25,33 L 29,23 H 31 L 35,33 H 33.5 L 32.63,31 H 27.37 L 26.5,33 H 25 Z M 28,29.41 H 32 L 30,24.5 L 28,29.41 Z M 41,33 L 45,23 H 47 L 51,33 H 49.5 L 48.63,31 H 43.37 L 42.5,33 H 41 Z M 44,29.41 H 48 L 46,24.5 L 44,29.41 Z M 39,34 S 40.53,34.18 41.36,36.01 C 42.57,38.69 41.92,41.09 41,42 V 41.33 C 40.98,37.36 39.84,35.48 39,34 Z" fill="rgb(254, 254, 253)"/>
<path d="M 39.49,14.985 C 39.8,15.62 40.06,16.33 40.27,17.13 C 41.38,21.49 40.01,24.77 38.32,29.14 C 36.7,33.34 34.98,36.89 35,39.79 C 35,40.16 35.03,40.52 35.1,40.87 C 35.44,42.79 36.07,43.84 37,44 C 36.47,43.11 36.26,42.06 36.26,40.41 C 36.26,37.53 38.26,33.25 39.49,30.11 C 40.41,27.76 41.97,24.21 42,20.67 C 42.02,18.9 41.5,15.5 39.5,15 Z" fill="rgb(254, 254, 253)"/>
<path d="M 36.49,29.985 C 34.2,23.72 33.39,21.2 34.49,19 C 34.71,22.5 36.17,25.09 36.77,26.83 A 3.77,3.77 0 0,1 36.5,30 Z" fill="rgb(254, 254, 253)"/>
<path d="M 38.620000000000005,18.985 H 39.41 C 39.56,19 39.71,19.16 39.71,19.32 C 39.71,19.49 39.56,19.64 39.41,19.65 H 38.63 C 38.46,19.65 38.31,19.5 38.31,19.32 C 38.31,19.15 38.45,18.99 38.63,19 Z" fill="rgb(231, 43, 36)"/>
<path d="M 37.46,19.985 H 39.54 C 39.7,20 39.84,20.16 39.84,20.32 C 39.84,20.49 39.7,20.64 39.54,20.65 H 37.47 C 37.31,20.64 37.17,20.49 37.17,20.32 C 37.17,20.16 37.31,20.01 37.47,20 Z" fill="rgb(235, 76, 34)"/>
<path d="M 36.31,20.985 H 39.68 C 39.86,21 40,21.15 40,21.32 C 40,21.5 39.86,21.65 39.68,21.65 H 36.32 C 36.14,21.65 36,21.5 36,21.32 C 36,21.15 36.14,20.99 36.32,21 Z" fill="rgb(240, 113, 34)"/>
<path d="M 36.29,21.985 H 39.7 C 39.86,22 40,22.16 40,22.32 C 40,22.49 39.86,22.64 39.7,22.65 H 36.3 C 36.14,22.64 36,22.49 36,22.32 C 36,22.16 36.14,22.01 36.3,22 Z" fill="rgb(243, 151, 33)"/>
<path d="M 36.15,23.305 C 36.16,23.15 36.3,23 36.46,23 H 39.07 C 39.23,23 39.37,23.16 39.37,23.32 C 39.37,23.49 39.23,23.64 39.07,23.65 H 36.47 C 36.3,23.65 36.16,23.49 36.16,23.32 Z" fill="rgb(246, 185, 28)"/>
<path d="M 36.82,24.305 C 36.83,24.15 36.97,24 37.13,24 H 38.7 C 38.86,24 39,24.16 39,24.32 C 39,24.49 38.86,24.64 38.7,24.65 H 37.13 C 36.97,24.65 36.83,24.49 36.83,24.32 Z" fill="rgb(247, 198, 35)"/>
<path d="M 37.35,25.305 C 37.36,25.15 37.5,25 37.66,25 H 38.06 C 38.22,25 38.36,25.16 38.36,25.32 C 38.36,25.49 38.22,25.64 38.06,25.65 H 37.66 C 37.5,25.65 37.36,25.49 37.36,25.32 Z" fill="rgb(247, 208, 36)"/>
<path d="M 37.11,40.375 H 37.71 C 37.86,40.39 38,40.53 38,40.69 C 38,40.86 37.86,41 37.7,41 H 37.12 C 36.97,41 36.83,40.86 36.83,40.7 C 36.83,40.53 36.97,40.39 37.13,40.39 Z" fill="rgb(62, 145, 205)"/>
<path d="M 36.99,39.375 H 38.7 C 38.86,39.39 39,39.53 39,39.69 C 39,39.86 38.86,40 38.7,40 H 37 C 36.84,40 36.7,39.86 36.7,39.7 C 36.7,39.53 36.84,39.39 37,39.39 Z" fill="rgb(55, 175, 203)"/>
<path d="M 39.99,38.685 C 40,38.86 39.86,39 39.7,39 H 37.18 C 37.01,39 36.88,38.86 36.88,38.7 C 36.88,38.53 37.01,38.38 37.18,38.39 H 39.71 C 39.86,38.39 40,38.53 40,38.69 Z" fill="rgb(112, 191, 140)"/>
<path d="M 39.64,37.685 C 39.65,37.86 39.52,38 39.36,38 H 37.42 C 37.25,38 37.12,37.86 37.12,37.7 C 37.12,37.53 37.25,37.38 37.42,37.39 H 39.36 C 39.52,37.39 39.66,37.53 39.66,37.69 Z" fill="rgb(165, 203, 78)"/>
<path d="M 39.02,36.985 H 37.86 C 37.69,37 37.56,36.86 37.56,36.7 C 37.56,36.53 37.69,36.38 37.86,36.39 H 39.03 C 39.18,36.39 39.31,36.53 39.31,36.69 C 39.31,36.85 39.18,36.99 39.03,37 Z" fill="rgb(202, 216, 59)"/>
<path d="M 38.43,35.375 H 38.63 C 38.78,35.39 38.92,35.53 38.92,35.69 C 38.92,35.86 38.78,36 38.62,36 H 38.44 C 38.29,36 38.14,35.86 38.14,35.7 C 38.14,35.53 38.29,35.39 38.44,35.39 Z" fill="rgb(231, 228, 42)"/>
</svg>
