<?xml version="1.0" encoding="UTF-8"?>
<!-- generated by Finnhub -->
<svg viewBox="0 0 55.5 55.5" xmlns="http://www.w3.org/2000/svg">
<path d="M 0,0 H 55.5 V 55.5 H 0 Z" fill="rgb(239, 242, 248)"/>
<path d="M 14.99,12.985 H 43 V 40.88 L 28.62,37.03 C 28.59,37.03 28.58,37 28.59,36.97 L 39.22,16.99 C 39.26,16.91 39.24,16.89 39.17,16.94 L 19.7,28.12 C 19.65,28.15 19.61,28.14 19.6,28.08 A 5954.04,5954.04 0 0,1 14.97,13.03 L 15,13 Z" fill="rgb(2, 58, 90)"/>
<path d="M 12.99,31.845 V 13.7 L 17.9,29.08 C 17.9,29.12 17.9,29.16 17.85,29.18 L 13,31.86 Z" fill="url(#c)"/>
<path d="M 21.77,35.115 L 20.2,30 A 0.04,0.04 0 0,1 20.22,29.95 L 34.54,21.72 A 0.04,0.04 0 0,1 34.6,21.78 L 26.78,36.48 A 0.04,0.04 0 0,1 26.73,36.51 L 21.83,35.16 A 0.04,0.04 0 0,1 21.79,35.13 Z" fill="url(#b)"/>
<path d="M 14.65,33.135 L 18.43,30.98 A 0.04,0.04 0 0,1 18.49,31.01 L 19.56,34.49 A 0.04,0.04 0 0,1 19.55,34.53 A 0.04,0.04 0 0,1 19.51,34.54 L 14.67,33.23 A 0.04,0.04 0 0,1 14.64,33.17 C 14.64,33.16 14.64,33.15 14.66,33.15 Z M 13,43 V 34.81 L 20.22,36.75 C 20.23,36.75 20.24,36.75 20.25,36.77 L 20.27,36.8 L 22.16,42.93 C 22.17,42.97 22.16,43 22.11,43 H 13 Z M 25.8,38.32 L 23.92,41.85 L 23.91,41.86 A 0.04,0.04 0 0,1 23.86,41.86 L 23.85,41.84 L 22.49,37.44 V 37.41 A 0.04,0.04 0 0,1 22.54,37.38 L 25.77,38.26 H 25.78 A 0.04,0.04 0 0,1 25.8,38.3 V 38.32 Z" fill="rgb(152, 129, 59)"/>
<path d="M 27.74,38.745 L 42.95,42.89 A 0.06,0.06 0 0,1 42.97,42.99 A 0.06,0.06 0 0,1 42.93,43 H 25.65 A 0.15,0.15 0 0,1 25.55,42.97 A 0.14,0.14 0 0,1 25.51,42.88 C 25.51,42.86 25.51,42.78 25.53,42.74 L 27.64,38.8 C 27.66,38.76 27.7,38.74 27.74,38.76 Z" fill="url(#a)"/>
<defs>
<linearGradient id="c" x1="15.46" x2="15.46" y1="13.57" y2="31.9" gradientUnits="userSpaceOnUse">
<stop stop-color="rgb(173, 165, 117)" offset="0"/>
<stop stop-color="rgb(224, 215, 183)" offset="1"/>
</linearGradient>
<linearGradient id="b" x1="34.59" x2="21.91" y1="21.72" y2="35.28" gradientUnits="userSpaceOnUse">
<stop stop-color="rgb(165, 150, 80)" offset="0"/>
<stop stop-color="rgb(239, 231, 217)" offset="1"/>
</linearGradient>
<linearGradient id="a" x1="26.43" x2="38.96" y1="41.74" y2="42.99" gradientUnits="userSpaceOnUse">
<stop stop-color="rgb(234, 228, 215)" offset="0"/>
<stop stop-color="rgb(194, 184, 148)" offset="1"/>
</linearGradient>
</defs>
</svg>
