<?xml version="1.0" encoding="UTF-8"?>
<!-- generated by Finnhub -->
<svg viewBox="0 0 55.5 55.5" xmlns="http://www.w3.org/2000/svg">
<path d="M 0,0 H 55.5 V 55.5 H 0 Z" fill="rgb(78, 122, 166)"/>
<path d="M 3.99,23.985 H 5 V 31 H 4 V 24 Z M 46,31 V 24 H 47 L 51,29.6 V 24 H 52 V 31 H 51 L 47,25.4 V 31 H 46 Z M 26,24 L 29,31 H 28 L 27.143,29 H 23.857 L 23,31 H 22 L 25,24 H 26 Z M 25.5,25.167 L 26.714,28 H 24.286 L 25.5,25.167 Z M 34,24 H 35 V 27 H 39 V 24 H 40 V 31 H 39 V 28 H 35 V 31 H 34 V 24 Z M 12,28 C 12,26.208 13.183,25 14.5,25 C 15.007,25 15.501,25.224 15.927,25.617 L 16.605,24.882 C 16.04,24.36 15.313,24 14.5,24 C 12.503,24 11,25.792 11,28 A 3.5,3.5 0 0,0 16.962,30.488 L 16.259,29.777 A 2.5,2.5 0 0,1 12,28 Z" fill="rgb(254, 254, 253)" fill-rule="evenodd"/>
</svg>
