<?xml version="1.0" encoding="UTF-8"?>
<!-- generated by Finnhub -->
<svg viewBox="0 0 55.5 55.5" xmlns="http://www.w3.org/2000/svg">
<path d="M 0,0 H 55.5 V 55.5 H 0 Z" fill="rgb(239, 242, 248)"/>
<path d="M 10.99,28.985 H 18 V 29.291 H 16.971 A 0.971,0.971 0 0,0 16,30.263 V 38.737 C 16,39.274 16.435,39.709 16.971,39.709 H 18 V 40 H 11 V 39.709 H 12.029 A 0.971,0.971 0 0,0 13,38.737 V 30.263 A 0.971,0.971 0 0,0 12.029,29.291 H 10.999 V 29 Z M 25.832,29 C 22.216,29 19.5,31.465 19.5,34.506 C 19.5,38.249 22.746,39.988 26.227,40 C 27.694,40.005 29.011,39.8 31,38.934 V 36.194 A 0.9,0.9 0 0,1 31.904,35.275 H 32.371 V 35 H 26.597 V 35.275 H 27.064 C 27.581,35.275 28,35.686 28,36.193 V 39.026 C 27.539,39.293 26.879,39.338 26.227,39.346 C 23.616,39.346 22.5,36.992 22.5,34.437 C 22.5,31.726 23.966,29.527 26.29,29.527 C 28.177,29.527 30.184,31.006 30.72,33 H 31 V 29.298 H 30.72 S 30.493,30.34 28.94,29.644 A 7.675,7.675 0 0,0 25.832,29 Z M 34,34.5 C 34,31.46 36.669,29 40.111,29 C 41.169,29 42.166,29.233 43.039,29.644 C 44.518,30.34 44.733,29.298 44.733,29.298 H 45 V 33 H 44.733 C 44.223,31.007 42.343,29.527 40.548,29.527 C 38.334,29.527 37,31.79 37,34.5 C 37,37.114 38.001,39.346 40.548,39.346 C 42.518,39.346 44.198,38.13 45,37.2 V 38.05 C 43.842,39.05 42.389,40.005 40.548,40 C 37.209,39.99 34,38.24 34,34.5 Z" clip-rule="evenodd" fill="rgb(18, 14, 134)" fill-rule="evenodd"/>
<path d="M 42.561,11.485 C 39.657,20.243 26.543,27.14 24.6,28.112 C 25.895,28.112 28,28.112 29.943,28.986 C 34.8,26.557 42.086,19.757 43.348,13.929 L 42.571,11.5 Z" fill="rgb(218, 1, 36)"/>
<path d="M 44.699000000000005,18.674 C 43.251,22.477 38.199,27.529 36.257,29.18 C 37.067,28.792 39.171,28.015 40.726,28.015 C 41.859,26.719 44.223,23.545 45,21.215 L 44.709,18.689 Z" fill="rgb(18, 14, 134)"/>
<path d="M 21.619999999999997,12.062999999999999 L 22.422,12.873 L 23.298,12.614 L 23.028,13.612 L 23.672,14.569 L 22.712,14.391 L 22.234,15.241 L 21.912,14.134 L 20.972,13.702 L 21.732,13.196 L 21.63,12.078 Z M 20.554,16.169 L 19.768,15.029 L 19.446,16.376 L 18.119,16.771 L 19.299,17.494 L 19.265,18.878 L 20.317,17.978 L 21.623,18.438 L 21.093,17.16 L 21.933,16.06 L 20.553,16.17 Z M 14.917,17.313 L 17,19.78 L 20.147,19.88 L 18.545,22.66 L 19.465,25.784 L 16.393,25.034 L 13.813,26.864 L 13.517,23.621 L 11.003,21.627 L 13.892,20.374 L 14.917,17.312 Z M 23.035,19.757 L 24.389,21.701 L 26.749,21.502 L 25.319,23.39 L 26.237,25.573 L 24,24.797 L 22.207,26.345 L 22.254,23.977 L 20.228,22.75 L 22.495,22.063 L 23.035,19.757 Z M 25.989,17.824 L 25.405,16.981 L 25.168,17.979 L 24.186,18.273 L 25.061,18.807 L 25.038,19.833 L 25.816,19.165 L 26.784,19.505 L 26.389,18.557 L 27.011,17.742 L 25.989,17.824 Z" clip-rule="evenodd" fill="rgb(18, 14, 134)" fill-rule="evenodd"/>
</svg>
