<?xml version="1.0" encoding="UTF-8"?>
<!-- generated by Finnhub -->
<svg viewBox="0 0 55.5 55.5" xmlns="http://www.w3.org/2000/svg">
<path d="M 0,0 H 55.5 V 55.5 H 0 Z" fill="rgb(22, 88, 99)"/>
<path d="M 46.99,30.985 V 25 H 49.46 C 50.86,25 52,26.21 52,27.7 V 28.3 C 52,29.79 50.86,31 49.46,31 H 47 Z M 48,30 V 26 H 49.03 C 50.12,26 51,26.9 51,28 S 50.12,30 49.03,30 H 48 Z M 4,31 V 25 H 5 V 31 H 4 Z M 6,31 V 25 H 7.15 L 9.5,28.71 V 25 H 10.5 V 31 H 9.4 C 8.63,29.8 7,27.41 7,27.41 V 31 H 6 Z M 11,26 H 13 V 31 H 14 V 26 H 16 V 25 H 11 V 26 Z M 39,26 H 37 V 25 H 42 V 26 H 40 V 31 H 39 V 26 Z M 16.99,31 V 25 H 20.49 V 26 H 18 V 27.5 H 20 V 28.5 H 18 V 30 H 20.49 V 31 H 16.99 Z M 42.5,31 H 46 V 30 H 43.51 V 28.5 H 45.51 V 27.5 H 43.51 V 26 H 46 V 25 H 42.5 V 31 Z M 25.26,27 H 26.5 C 26.4,26.29 25.76,25 23.93,25 C 21.65,25 21,26.65 21,28.14 C 21,29.62 21.65,31 23.62,31 C 24.42,31 24.99,30.71 25.38,30.36 L 25.6,31 H 26.43 V 28 H 23.59 V 29 H 25.2 V 29.14 C 24.88,29.57 24.38,30 23.7,30 C 22.44,30 22,28.76 22,27.9 C 22,27.03 22.6,26 23.93,26 C 24.99,26 25.26,26.65 25.26,27 Z M 28,31 H 27 V 25 H 30.15 A 1.9,1.9 0 0,1 32,26.94 C 32,27.78 31.49,28.57 30.77,28.87 L 31.8,31 H 30.6 L 29.61,29 H 28 V 31 Z M 29.98,26 H 28 V 28 H 29.98 C 30.54,28 31,27.55 31,27 S 30.54,26 29.98,26 Z M 34.05,25 H 35.55 L 37.73,31 H 36.36 L 36,30 H 33.44 L 33.09,31 H 31.89 L 34.05,25 Z M 33.79,29 H 35.65 L 34.71,26.37 L 33.79,29 Z" fill="url(#a)" fill-rule="evenodd"/>
<defs>
<linearGradient id="a" x1="5.37" x2="48.54" y1="26.21" y2="26.21" gradientUnits="userSpaceOnUse">
<stop stop-color="rgb(208, 119, 22)" offset="0"/>
<stop stop-color="rgb(250, 233, 0)" offset="1"/>
</linearGradient>
</defs>
</svg>
