<?xml version="1.0" encoding="UTF-8"?>
<!-- generated by Finnhub -->
<svg viewBox="0 0 55.5 55.5" xmlns="http://www.w3.org/2000/svg">
<path d="M 0,0 H 55.5 V 55.5 H 0 Z" fill="rgb(239, 242, 248)"/>
<circle cx="13.25" cy="25.75" r=".75" fill="rgb(254, 148, 58)"/>
<path d="M 14.99,23.985 V 32 H 16.5 V 28.74 C 16.74,28.4 17.14,28 17.61,28 C 18.22,28 18.44,28.6 18.45,28.9 V 32 H 20 V 28.79 C 20,28.32 19.9,27 18.41,27 C 17.52,27 16.87,27.47 16.5,27.88 V 24 H 15 Z M 12.5,27.5 V 32 H 14 V 27 L 12.5,27.5 Z M 26,27 V 32 H 24.5 V 31.1 A 2.6,2.6 0 0,1 22.57,32 C 21.07,32 21,30.68 21,30.21 V 27 H 22.5 V 30.1 C 22.51,30.4 22.76,31 23.38,31 C 23.85,31 24.26,30.6 24.5,30.25 V 27 H 26 Z M 27,32 V 27 H 28.5 V 27.69 C 28.9,27.33 29.52,27 30.32,27 C 31.27,27 31.69,27.48 31.87,27.97 A 2.62,2.62 0 0,1 33.87,27 C 35.36,27 35.5,28.32 35.5,28.79 V 32 H 34 V 28.9 C 33.99,28.6 33.67,28 33.06,28 C 32.62,28 32.24,28.34 32,28.67 V 32 H 30.5 V 28.9 C 30.49,28.6 30.11,28 29.47,28 C 29.09,28 28.75,28.23 28.5,28.5 V 32 H 27 Z M 42,32 V 27 H 43.55 V 27.83 C 43.93,27.43 44.56,27 45.41,27 C 46.9,27 47,28.32 47,28.79 V 32 H 45.5 V 28.9 C 45.49,28.6 45.22,28 44.61,28 C 44.17,28 43.8,28.35 43.55,28.67 V 32 H 42 Z M 36.5,27.48 V 28.41 C 36.8,28.23 37.58,27.86 38.38,27.86 C 39.18,27.86 39.48,28.46 39.5,28.76 V 29 H 38.55 C 37.7,29.02 36,29.38 36,30.64 C 36,31.67 37.23,31.98 37.84,32 A 2.8,2.8 0 0,0 39.5,31.38 V 32 H 41 V 28.92 C 41,27.55 39.85,27 38.7,27 C 37.78,27 36.85,27.32 36.5,27.48 Z M 38.55,29.74 H 39.5 V 30.34 C 39.26,30.64 38.76,31.09 38.2,31.09 C 37.56,31.09 37.39,30.66 37.38,30.45 C 37.43,30.21 37.73,29.75 38.55,29.75 Z" fill="rgb(90, 166, 55)"/>
<path d="M 7.79,23.615 C 7.8,25.76 10.23,26.55 11.44,26.68 C 9.96,26.59 7,25.9 7,23.84 S 9.3,19.67 10.45,18.88 C 11.32,18.25 13.82,17 16.9,17 C 20.75,17 21.6,19.16 21.6,20.26 A 3.9,3.9 0 0,1 20.64,22.46 C 22.14,18.63 19.36,17.67 16.9,17.67 C 14.94,17.67 12.83,18.47 12.02,18.87 C 10.62,19.57 7.81,21.5 7.81,23.63 Z" fill="rgb(254, 148, 58)"/>
</svg>
