<?xml version="1.0" encoding="UTF-8"?>
<!-- generated by Finnhub -->
<svg viewBox="0 0 55.5 55.5" xmlns="http://www.w3.org/2000/svg">
<path d="M 0,0 H 55.5 V 55.5 H 0 Z" fill="rgb(239, 242, 248)"/>
<circle cx="28" cy="28" r="17" fill="url(#c)"/>
<circle cx="23.39" cy="21.87" r="9" fill="rgb(184, 181, 178)" fill-opacity=".7"/>
<path d="M 33.74,29.835 C 33.75,37.97 29.72,43.39 27.29,45 C 36.97,45 41.27,39.35 42.62,36.68 C 42.78,35.67 43.09,33 43.09,29.85 S 39.61,21.3 37.87,19 L 31.62,21.28 C 33.43,24.15 33.79,28.19 33.75,29.85 Z" fill="url(#b)"/>
<circle cx="23.39" cy="21.87" r="6.65" fill="rgb(196, 193, 190)"/>
<circle cx="23.39" cy="21.87" r="3.21" fill="rgb(216, 214, 212)"/>
<path d="M 35.03,16.625 L 29.86,18.47 C 28.74,16.41 25.59,14.33 24.16,13.55 C 29.76,13.55 33.76,15.61 35.04,16.64 Z" fill="url(#a)"/>
<defs>
<linearGradient id="c" x1="17.32" x2="36.15" y1="13.9" y2="36.93" gradientUnits="userSpaceOnUse">
<stop stop-color="rgb(182, 178, 176)" offset=".42"/>
<stop stop-color="rgb(68, 67, 65)" offset="1"/>
</linearGradient>
<linearGradient id="b" x1="31.27" x2="44.22" y1="28.19" y2="34.56" gradientUnits="userSpaceOnUse">
<stop stop-color="rgb(228, 61, 49)" offset="0"/>
<stop stop-color="rgb(132, 27, 14)" offset="1"/>
</linearGradient>
<linearGradient id="a" x1="29.6" x2="29.6" y1="13.55" y2="18.47" gradientUnits="userSpaceOnUse">
<stop stop-color="rgb(134, 28, 15)" offset="0"/>
<stop stop-color="rgb(206, 55, 43)" offset="1"/>
</linearGradient>
</defs>
</svg>
