<?xml version="1.0" encoding="UTF-8"?>
<!-- generated by Finnhub -->
<svg viewBox="0 0 55.5 55.5" xmlns="http://www.w3.org/2000/svg">
<path d="M 0,0 H 55.5 V 55.5 H 0 Z" fill="rgb(7, 42, 81)"/>
<path d="M 36.99,14.985 V 17 H 19 V 15 H 37 Z M 24,20 V 18 H 22 V 20 H 24 Z M 27,20 V 18 H 25 V 20 H 27 Z M 31,18 V 20 H 29 V 18 H 31 Z M 34,20 V 18 H 32 V 20 H 34 Z M 24,21 V 23 H 22 V 21 H 24 Z M 24,26 V 24 H 22 V 26 H 24 Z M 24,27 V 29 H 22 V 27 H 24 Z M 24,32 V 30 H 22 V 32 H 24 Z M 24,33 V 35 H 22 V 33 H 24 Z M 24,38 V 36 H 22 V 38 H 24 Z M 24,39 V 41 H 22 V 39 H 24 Z M 24,44 V 42 H 22 V 44 H 24 Z M 27,21 V 23 H 25 V 21 H 27 Z M 27,26 V 24 H 25 V 26 H 27 Z M 27,27 V 29 H 25 V 27 H 27 Z M 27,32 V 30 H 25 V 32 H 27 Z M 31,21 V 23 H 29 V 21 H 31 Z M 31,26 V 24 H 29 V 26 H 31 Z M 31,27 V 29 H 29 V 27 H 31 Z M 31,32 V 30 H 29 V 32 H 31 Z M 34,21 V 23 H 32 V 21 H 34 Z M 34,26 V 24 H 32 V 26 H 34 Z M 34,27 V 29 H 32 V 27 H 34 Z M 34,32 V 30 H 32 V 32 H 34 Z M 34,33 V 35 H 32 V 33 H 34 Z M 34,36 H 32 V 38 H 34 V 36 Z M 34,39 V 41 H 32 V 39 H 34 Z M 34,44 V 42 H 32 V 44 H 34 Z M 27,33 L 25,37 V 33 H 27 Z M 31,36.5 L 29,33 H 31 V 36.5 Z M 21,18 H 19 V 46 H 21 V 18 Z M 37,18 H 35 V 46 H 37 V 18 Z M 28,8 L 38,14 H 18 L 28,8 Z M 27,41 H 29 V 47 H 27 V 41 Z" fill="rgb(239, 242, 248)"/>
<path d="M 24.669999999999998,45.985 H 22 V 47 H 23.9 V 47.67 H 26.7 V 48 H 29.29 V 47.67 H 32.08 V 47 H 34 V 46 H 31.32 V 46.67 H 24.68 V 46 Z" fill="rgb(239, 242, 248)"/>
<path d="M 27.99,30.985 L 24,38 H 32 L 28,31 Z M 28,31.94 L 24.82,37.51 H 31.18 L 28,31.94 Z M 31.65,38.32 H 24.35 V 46.68 H 31.65 V 38.32 Z M 24,38 V 47 H 32 V 38 H 24 Z" fill="rgb(239, 242, 248)" fill-rule="evenodd"/>
</svg>
