<?xml version="1.0" encoding="UTF-8"?>
<!-- generated by Finnhub -->
<svg viewBox="0 0 55.5 55.5" xmlns="http://www.w3.org/2000/svg">
<path d="M 0,0 H 55.5 V 55.5 H 0 Z" fill="rgb(239, 242, 248)"/>
<path d="M 45.42,29.044999999999998 V 28.62 V 28.58 A 1.48,1.48 0 0,0 45.35,26.19 V 26.03 C 45.35,25.91 45.31,25.75 45.31,25.63 C 45.55,25.27 45.67,24.83 45.55,24.35 A 1.53,1.53 0 0,0 44.9,23.52 C 44.86,23.4 44.82,23.28 44.82,23.16 C 44.82,23.12 44.82,23.08 44.78,23.04 C 44.74,22.92 44.7,22.84 44.7,22.72 C 44.66,22.64 44.66,22.56 44.62,22.52 C 44.78,22.2 44.86,21.81 44.74,21.45 A 1.5,1.5 0 0,0 43.78,20.45 V 20.41 C 43.7,20.29 43.66,20.17 43.58,20.01 C 43.58,19.97 43.54,19.93 43.54,19.93 C 43.7,19.49 43.62,18.93 43.3,18.53 C 43.06,18.22 42.7,18.03 42.34,17.98 C 42.26,17.98 42.26,17.94 42.22,17.9 L 41.98,17.58 C 41.9,17.46 41.78,17.34 41.7,17.22 C 41.7,17.22 41.7,17.18 41.66,17.18 C 41.7,16.83 41.58,16.47 41.34,16.15 A 1.47,1.47 0 0,0 40.22,15.59 L 39.98,15.35 L 39.82,15.19 A 1.44,1.44 0 0,0 39.1,13.84 A 1.4,1.4 0 0,0 37.97,13.72 C 37.89,13.64 37.77,13.6 37.65,13.52 L 37.29,13.28 L 37.09,13.16 A 1.33,1.33 0 0,0 36.41,12.36 A 1.6,1.6 0 0,0 35.29,12.2 C 35.17,12.16 35.09,12.09 34.97,12.05 C 34.81,11.97 34.65,11.93 34.49,11.85 A 1.4,1.4 0 0,0 33.77,10.85 C 33.17,10.53 32.49,10.65 32.01,11.05 H 31.97 L 31.53,10.93 H 31.44 C 31.2,10.65 30.84,10.41 30.44,10.37 C 30.08,10.33 29.72,10.41 29.44,10.61 H 29.36 C 29.2,10.61 29.08,10.57 28.92,10.57 H 28.44 C 28.24,10.29 27.92,10.05 27.52,10.01 A 1.5,1.5 0 0,0 26.12,10.65 H 25.96 C 25.84,10.65 25.68,10.69 25.56,10.69 H 25.52 C 25.16,10.45 24.72,10.33 24.27,10.45 C 23.91,10.57 23.59,10.81 23.43,11.09 C 23.27,11.21 23.19,11.21 23.07,11.25 C 23.03,11.25 22.99,11.25 22.95,11.29 L 22.63,11.41 C 22.55,11.45 22.47,11.45 22.43,11.49 A 1.45,1.45 0 0,0 21.35,11.37 A 1.5,1.5 0 0,0 20.35,12.32 C 20.23,12.4 20.11,12.44 19.99,12.52 C 19.95,12.52 19.91,12.56 19.91,12.56 H 19.87 C 19.67,12.48 19.47,12.48 19.23,12.48 H 19.03 C 18.99,12.48 18.99,12.48 18.95,12.52 C 18.91,12.52 18.87,12.56 18.87,12.56 C 18.83,12.56 18.83,12.56 18.79,12.6 C 18.75,12.6 18.71,12.64 18.67,12.64 C 18.67,12.64 18.63,12.64 18.63,12.68 L 18.47,12.8 C 18.15,13.04 17.95,13.4 17.91,13.76 C 17.87,13.8 17.82,13.8 17.82,13.84 L 17.5,14.08 C 17.38,14.16 17.26,14.28 17.14,14.36 L 17.1,14.4 C 16.82,14.36 16.54,14.44 16.3,14.55 C 16.26,14.55 16.22,14.59 16.22,14.59 C 16.18,14.63 16.14,14.63 16.1,14.67 C 16.06,14.71 16.02,14.75 15.98,14.75 C 15.7,15.03 15.54,15.39 15.54,15.79 L 15.3,16.03 C 15.26,16.11 15.18,16.15 15.14,16.23 A 1.45,1.45 0 0,0 13.78,16.95 C 13.58,17.3 13.54,17.7 13.66,18.06 C 13.58,18.14 13.54,18.26 13.5,18.34 L 13.26,18.7 L 13.14,18.9 C 12.82,19.02 12.5,19.22 12.34,19.57 C 12.14,19.93 12.1,20.33 12.18,20.69 C 12.14,20.81 12.06,20.89 12.02,21.01 L 11.86,21.41 C 11.86,21.45 11.82,21.45 11.82,21.49 C 11.42,21.57 11.02,21.81 10.82,22.2 C 10.49,22.8 10.62,23.48 11.06,23.96 L 10.93,24.43 V 24.51 C 10.65,24.75 10.41,25.11 10.37,25.51 C 10.33,25.87 10.41,26.23 10.61,26.51 V 26.59 C 10.61,26.75 10.57,26.9 10.57,27.02 V 27.5 A 1.48,1.48 0 0,0 10.65,29.89 V 30.01 C 10.65,30.13 10.69,30.29 10.69,30.41 V 30.45 C 10.45,30.81 10.33,31.25 10.45,31.68 C 10.57,32.04 10.81,32.36 11.1,32.52 C 11.02,32.64 11.02,32.72 11.06,32.84 C 11.06,32.88 11.06,32.92 11.1,32.96 L 11.22,33.28 C 11.26,33.36 11.26,33.44 11.3,33.48 C 11.14,33.8 11.06,34.19 11.18,34.55 C 11.3,35.03 11.7,35.43 12.14,35.55 C 12.18,35.67 12.26,35.79 12.3,35.91 C 12.3,35.95 12.34,35.99 12.34,35.99 S 12.34,36.03 12.38,36.03 C 12.22,36.55 12.3,37.06 12.62,37.5 C 12.86,37.82 13.22,38.02 13.58,38.06 C 13.58,38.1 13.62,38.1 13.62,38.14 C 13.7,38.26 13.78,38.38 13.86,38.46 C 13.94,38.58 14.02,38.7 14.1,38.78 C 14.1,38.82 14.14,38.82 14.14,38.86 C 14.1,39.21 14.22,39.57 14.46,39.89 C 14.74,40.25 15.18,40.45 15.58,40.45 L 15.78,40.65 L 15.98,40.85 C 15.94,41.41 16.22,41.92 16.7,42.2 C 17.06,42.4 17.46,42.44 17.83,42.36 C 17.91,42.44 18.03,42.48 18.15,42.56 L 18.47,42.76 C 18.55,42.8 18.63,42.84 18.71,42.92 C 18.83,43.24 19.03,43.56 19.39,43.72 C 19.75,43.92 20.15,43.95 20.51,43.88 L 20.79,43.99 C 20.95,44.07 21.11,44.11 21.27,44.19 H 21.31 C 21.39,44.59 21.63,44.99 22.03,45.19 C 22.63,45.51 23.31,45.39 23.79,44.95 L 24.23,45.07 C 24.27,45.07 24.31,45.07 24.31,45.11 C 24.55,45.39 24.91,45.63 25.31,45.67 C 25.68,45.71 26.04,45.63 26.31,45.39 H 26.36 C 26.52,45.39 26.68,45.43 26.8,45.43 H 27.28 C 27.52,45.75 27.88,45.95 28.28,45.99 C 28.84,46.07 29.4,45.79 29.68,45.35 H 29.76 C 29.92,45.35 30.04,45.31 30.2,45.31 H 30.24 C 30.6,45.55 31.04,45.67 31.49,45.55 C 31.85,45.43 32.17,45.19 32.33,44.91 L 32.65,44.83 C 32.69,44.83 32.73,44.83 32.73,44.79 C 32.81,44.75 32.93,44.71 33.01,44.71 C 33.09,44.67 33.21,44.67 33.29,44.63 C 33.61,44.79 34.01,44.87 34.37,44.75 H 34.41 L 34.57,44.71 S 34.61,44.71 34.61,44.67 C 34.65,44.63 34.69,44.63 34.73,44.59 C 34.73,44.59 34.77,44.59 34.77,44.55 L 34.89,44.43 L 35.01,44.31 C 35.13,44.15 35.25,43.99 35.33,43.8 C 35.45,43.76 35.57,43.68 35.69,43.64 C 35.73,43.64 35.77,43.6 35.77,43.6 C 35.81,43.6 35.81,43.56 35.85,43.56 C 36.01,43.6 36.17,43.64 36.29,43.64 S 36.53,43.64 36.61,43.6 H 36.65 C 36.69,43.6 36.69,43.6 36.73,43.56 C 36.77,43.56 36.81,43.52 36.81,43.52 C 36.85,43.52 36.85,43.52 36.89,43.48 C 36.93,43.48 36.97,43.44 37.01,43.44 C 37.01,43.44 37.05,43.44 37.05,43.4 C 37.09,43.36 37.13,43.36 37.17,43.32 C 37.49,43.08 37.69,42.72 37.73,42.36 C 37.77,42.36 37.77,42.32 37.81,42.32 L 38.13,42.08 C 38.26,42 38.38,41.88 38.5,41.8 C 38.54,41.8 38.54,41.76 38.58,41.76 C 38.94,41.8 39.3,41.68 39.62,41.48 C 39.98,41.21 40.18,40.77 40.18,40.37 C 40.26,40.29 40.3,40.21 40.38,40.17 L 40.58,39.97 C 41.1,40.01 41.66,39.73 41.94,39.21 C 42.14,38.86 42.18,38.46 42.06,38.1 C 42.1,38.02 42.18,37.94 42.22,37.86 L 42.46,37.5 A 0.83,0.83 0 0,1 42.62,37.26 C 42.94,37.14 43.26,36.94 43.42,36.58 C 43.62,36.23 43.66,35.83 43.58,35.47 L 43.7,35.19 C 43.74,35.07 43.82,34.91 43.86,34.75 C 43.86,34.71 43.9,34.71 43.9,34.67 C 44.3,34.59 44.7,34.35 44.94,33.96 C 45.27,33.36 45.14,32.68 44.7,32.2 L 44.82,31.76 V 31.72 C 45.15,31.49 45.35,31.12 45.39,30.72 C 45.43,30.37 45.35,30.02 45.15,29.73 V 29.61 C 45.43,29.33 45.43,29.21 45.43,29.06 Z" fill="rgb(187, 222, 235)"/>
<circle cx="28" cy="28" r="16" fill="rgb(32, 141, 203)"/>
<circle cx="28" cy="28" r="14" fill="rgb(26, 120, 187)"/>
<circle cx="28" cy="28" r="11" fill="rgb(41, 55, 142)"/>
<path d="M 33.92,42.425 C 33.37,42.68 32.93,43.12 32.73,43.72 L 32.65,43.99 L 32.81,44.27 C 33.17,44.91 34.05,45.07 34.93,44.75 C 35.77,44.39 36.29,43.72 36.13,43.04 L 36.01,42.68 L 35.73,42.52 A 2.2,2.2 0 0,0 33.93,42.44 Z" fill="url(#aa)"/>
<path d="M 34.160000000000004,43.025 C 33.77,43.2 33.45,43.52 33.33,43.91 C 33.49,44.23 34.05,44.31 34.61,44.07 C 35.17,43.87 35.49,43.44 35.41,43.07 C 35.05,42.92 34.57,42.87 34.17,43.04 Z" fill="url(#y)"/>
<path d="M 22.66,11.985 L 22.59,12.28 L 22.75,12.56 C 23.11,13.08 23.67,13.44 24.27,13.52 C 24.87,13.6 25.52,13.4 25.96,13 L 26.2,12.8 V 12.52 C 26.2,11.81 25.52,11.21 24.6,11.09 C 23.67,10.97 22.87,11.37 22.67,12.01 Z" fill="url(#x)"/>
<path d="M 24.34,12.865 C 24.8,12.92 25.2,12.8 25.52,12.52 C 25.52,12.16 25.08,11.85 24.47,11.77 C 23.91,11.69 23.39,11.89 23.27,12.2 C 23.51,12.56 23.91,12.84 24.35,12.88 Z" fill="url(#w)"/>
<path d="M 41.53,17.605 L 41.26,17.74 L 41.14,18.02 C 40.94,18.62 40.98,19.26 41.3,19.82 C 41.62,20.33 42.14,20.73 42.74,20.85 L 43.02,20.93 L 43.26,20.77 C 43.82,20.33 43.9,19.45 43.42,18.62 C 42.98,17.82 42.22,17.42 41.54,17.62 Z" fill="url(#v)"/>
<path d="M 44.21,31.555 A 2.09,2.09 0 0,0 43.1,34.6 L 43.26,34.83 L 43.54,34.91 C 44.22,35.07 44.98,34.55 45.31,33.64 C 45.63,32.76 45.43,31.92 44.82,31.61 L 44.54,31.45 L 44.22,31.57 Z" fill="url(#u)"/>
<path d="M 36.92,20.985 H 36.61 L 36.41,21.25 A 2.1,2.1 0 0,0 37.01,24.44 L 37.25,24.59 L 37.53,24.51 C 38.21,24.28 38.58,23.48 38.37,22.52 C 38.21,21.65 37.61,21.01 36.93,21.01 Z" fill="url(#t)"/>
<path d="M 32.190000000000005,15.815 L 32.05,16.11 L 32.17,16.39 C 32.41,16.99 32.89,17.42 33.49,17.62 C 34.05,17.82 34.69,17.74 35.25,17.46 L 35.49,17.3 L 35.57,17.02 C 35.73,16.35 35.17,15.59 34.29,15.32 C 33.37,15.03 32.53,15.23 32.21,15.83 Z" fill="url(#s)" opacity=".97"/>
<path d="M 21.139999999999997,14.584999999999999 C 20.67,15 20.43,15.55 20.43,16.03 C 20.43,16.23 20.47,16.47 20.59,16.63 L 20.75,16.91 L 21.07,16.95 C 21.71,17.02 22.35,16.87 22.79,16.43 C 23.23,16.03 23.51,15.43 23.51,14.83 V 14.55 L 23.27,14.35 C 22.75,13.88 21.83,13.95 21.15,14.59 Z" fill="url(#r)"/>
<path d="M 35.6,31.035 C 35.13,31.45 34.89,32.05 34.89,32.65 V 32.92 L 35.13,33.12 C 35.65,33.6 36.57,33.48 37.29,32.88 C 37.97,32.28 38.22,31.45 37.85,30.85 L 37.69,30.57 L 37.37,30.53 A 2.4,2.4 0 0,0 35.61,31.05 Z" fill="url(#q)"/>
<path d="M 23.9,20.595 C 23.43,21.01 23.19,21.57 23.19,22.04 C 23.19,22.24 23.23,22.48 23.35,22.64 L 23.51,22.92 L 23.83,22.96 C 24.47,23.04 25.12,22.88 25.56,22.44 C 26.04,22.04 26.28,21.44 26.28,20.84 V 20.57 L 26.04,20.37 C 25.52,19.85 24.64,19.97 23.91,20.61 Z" fill="url(#p)"/>
<path d="M 24.06,30.634999999999998 C 23.59,31.17 23.71,32.08 24.31,32.8 C 24.91,33.48 25.76,33.72 26.36,33.36 L 26.64,33.2 L 26.68,32.88 A 2.03,2.03 0 0,0 26.16,31.17 C 25.76,30.73 25.16,30.45 24.56,30.45 H 24.27 L 24.07,30.65 Z" fill="url(#o)"/>
<path d="M 41.690000000000005,25.415 C 41.1,25.67 40.66,26.15 40.46,26.75 A 2.16,2.16 0 0,0 40.62,28.5 L 40.78,28.74 L 41.06,28.82 C 41.74,28.98 42.5,28.42 42.78,27.54 C 43.06,26.67 42.86,25.83 42.26,25.51 L 41.98,25.35 L 41.7,25.43 Z" fill="url(#n)"/>
<path d="M 33.04,36.535 C 32.45,36.66 31.93,37.02 31.61,37.58 L 31.44,37.82 L 31.53,38.1 C 31.77,38.78 32.57,39.13 33.53,38.94 C 34.41,38.74 35.05,38.14 35.05,37.46 V 37.14 L 34.81,36.94 A 2.34,2.34 0 0,0 33.05,36.54 Z" fill="url(#m)"/>
<path d="M 13.21,22.305 C 12.94,23.2 13.14,24.04 13.74,24.36 L 14.02,24.51 L 14.3,24.39 C 14.9,24.16 15.34,23.68 15.54,23.12 C 15.74,22.56 15.66,21.92 15.38,21.37 L 15.22,21.13 L 14.94,21.05 C 14.26,20.89 13.54,21.45 13.22,22.32 Z" fill="url(#l)"/>
<path d="M 17.729999999999997,27.044999999999998 C 17.06,27.3 16.7,28.1 16.9,29.06 C 17.1,29.93 17.7,30.57 18.39,30.57 H 18.71 L 18.91,30.33 A 2.11,2.11 0 0,0 18.31,27.14 L 18.07,26.98 L 17.74,27.06 Z" fill="rgb(42, 56, 142)"/>
<path d="M 16.25,34.935 C 15.78,35.47 15.9,36.39 16.5,37.1 C 17.1,37.78 17.95,38.02 18.55,37.66 L 18.83,37.5 L 18.87,37.18 A 2.02,2.02 0 0,0 18.35,35.47 C 17.95,35.03 17.35,34.75 16.75,34.75 H 16.46 L 16.26,34.95 Z" fill="url(#k)"/>
<path d="M 24.06,40.235 L 23.83,40.41 L 23.75,40.69 C 23.59,41.37 24.15,42.12 25.04,42.4 C 25.92,42.68 26.76,42.48 27.08,41.88 L 27.24,41.6 L 27.12,41.33 A 2.13,2.13 0 0,0 25.8,40.09 A 2.04,2.04 0 0,0 24.07,40.25 Z" fill="url(#j)"/>
<path d="M 41.85,19.485 C 42.06,19.9 42.46,20.13 42.86,20.21 C 43.14,20.01 43.14,19.45 42.86,18.94 C 42.58,18.42 42.1,18.14 41.78,18.26 C 41.62,18.66 41.66,19.1 41.86,19.49 Z" fill="url(#i)"/>
<path d="M 43.81,32.985 C 43.66,33.4 43.74,33.84 43.94,34.2 C 44.3,34.27 44.7,33.92 44.9,33.36 C 45.1,32.8 45.02,32.28 44.7,32.12 C 44.3,32.24 43.94,32.56 43.82,33 Z" fill="url(#h)"/>
<path d="M 36.6,22.865 C 36.69,23.32 36.97,23.68 37.33,23.88 C 37.65,23.76 37.85,23.24 37.73,22.64 C 37.61,22.08 37.25,21.64 36.93,21.69 C 36.65,22 36.53,22.44 36.61,22.89 Z" fill="url(#g)"/>
<path d="M 33.68,17.005 C 34.09,17.18 34.53,17.1 34.89,16.91 C 34.97,16.55 34.61,16.15 34.05,15.95 C 33.49,15.75 32.97,15.87 32.81,16.15 C 32.93,16.55 33.25,16.91 33.69,17.02 Z" fill="url(#f)"/>
<path d="M 22.34,15.934999999999999 C 22.67,15.67 22.83,15.23 22.87,14.83 C 22.59,14.59 22.07,14.71 21.59,15.11 C 21.15,15.51 20.99,15.99 21.15,16.31 C 21.55,16.35 21.99,16.23 22.35,15.95 Z" fill="url(#e)"/>
<path d="M 36.0,31.555 C 35.69,31.84 35.53,32.28 35.49,32.68 C 35.77,32.92 36.29,32.8 36.77,32.4 C 37.21,32 37.37,31.53 37.21,31.2 C 36.81,31.17 36.37,31.25 36.01,31.57 Z" fill="rgb(69, 138, 200)"/>
<path d="M 25.11,21.905 C 25.44,21.65 25.6,21.21 25.64,20.81 C 25.36,20.57 24.84,20.69 24.35,21.09 C 23.91,21.49 23.75,21.96 23.91,22.29 C 24.31,22.32 24.76,22.24 25.11,21.92 Z" fill="url(#d)"/>
<path d="M 25.669999999999998,31.555 A 1.73,1.73 0 0,0 24.55,31.05 C 24.31,31.33 24.43,31.85 24.84,32.32 C 25.24,32.76 25.72,32.92 26.04,32.76 C 26.08,32.36 25.96,31.92 25.68,31.56 Z" fill="url(#c)"/>
<path d="M 33.160000000000004,37.165 C 32.73,37.26 32.37,37.54 32.17,37.9 C 32.29,38.22 32.81,38.42 33.41,38.3 C 33.97,38.18 34.41,37.82 34.37,37.5 C 34.05,37.22 33.61,37.1 33.17,37.18 Z" fill="url(#b)"/>
<path d="M 41.09,26.884999999999998 C 40.94,27.3 41.02,27.74 41.22,28.1 C 41.58,28.18 41.98,27.82 42.18,27.26 C 42.38,26.71 42.26,26.19 41.98,26.03 C 41.58,26.19 41.22,26.51 41.1,26.9 Z" fill="url(#a)"/>
<path d="M 10.97,29.044999999999998 C 10.41,29.22 10.05,29.86 10.05,30.57 C 10.05,30.73 10.05,30.89 10.09,31.05 C 10.25,31.96 10.85,32.56 11.58,32.56 H 11.9 L 12.1,32.32 A 2.1,2.1 0 0,0 11.5,29.14 L 11.26,28.98 L 10.98,29.06 Z" fill="url(#ak)"/>
<path d="M 11.85,30.675 C 11.78,30.25 11.5,29.89 11.14,29.69 C 10.81,29.81 10.61,30.33 10.74,30.93 C 10.85,31.49 11.22,31.93 11.54,31.93 C 11.82,31.57 11.94,31.13 11.86,30.69 Z" fill="url(#aj)"/>
<path d="M 17.61,40.955 L 17.34,41.05 L 17.22,41.33 C 16.9,41.96 17.22,42.8 18.02,43.32 C 18.79,43.84 19.67,43.84 20.15,43.36 L 20.39,43.12 L 20.35,42.8 C 20.27,42.16 19.95,41.6 19.43,41.25 A 2.4,2.4 0 0,0 17.63,40.97 Z" fill="url(#ai)"/>
<path d="M 18.979999999999997,41.785 C 18.63,41.56 18.19,41.48 17.79,41.6 C 17.62,41.92 17.87,42.4 18.35,42.76 C 18.83,43.08 19.39,43.12 19.63,42.88 C 19.59,42.48 19.39,42.08 18.99,41.8 Z" fill="url(#ah)"/>
<path d="M 14.93,22.865 C 15.1,22.48 15.02,22.04 14.82,21.68 C 14.46,21.61 14.06,21.96 13.86,22.52 C 13.66,23.08 13.78,23.6 14.06,23.76 C 14.46,23.64 14.78,23.32 14.94,22.88 Z" fill="url(#ag)"/>
<path d="M 17.889999999999997,35.855 A 1.73,1.73 0 0,0 16.78,35.35 C 16.54,35.63 16.66,36.15 17.06,36.62 C 17.46,37.06 17.95,37.22 18.26,37.06 C 18.31,36.66 18.19,36.23 17.91,35.86 Z" fill="url(#af)"/>
<path d="M 25.63,40.675 C 25.24,40.53 24.8,40.61 24.44,40.81 C 24.35,41.17 24.72,41.56 25.28,41.76 C 25.84,41.96 26.36,41.84 26.52,41.56 C 26.36,41.16 26.04,40.85 25.64,40.69 Z" fill="url(#ae)"/>
<path d="M 14.77,15.254999999999999 C 14.38,15.67 14.18,16.19 14.18,16.63 C 14.18,16.91 14.26,17.14 14.42,17.34 L 14.62,17.58 H 14.94 C 15.58,17.62 16.18,17.38 16.62,16.95 C 17.06,16.51 17.26,15.91 17.18,15.27 L 17.14,14.99 L 16.9,14.79 C 16.34,14.39 15.46,14.59 14.78,15.27 Z" fill="url(#ad)"/>
<path d="M 16.09,16.485 C 16.42,16.19 16.54,15.75 16.5,15.35 C 16.22,15.15 15.66,15.31 15.26,15.71 C 14.86,16.15 14.74,16.67 14.94,16.95 C 15.38,16.95 15.78,16.83 16.1,16.51 Z" fill="url(#ac)"/>
<path d="M 42.17,36.805 C 41.54,36.78 40.94,37.02 40.5,37.46 A 2.12,2.12 0 0,0 39.9,39.13 L 39.94,39.41 L 40.18,39.57 C 40.74,40.01 41.62,39.81 42.3,39.13 C 42.94,38.46 43.1,37.63 42.7,37.06 L 42.5,36.82 H 42.18 Z" fill="url(#ab)"/>
<path d="M 41.21,38.045 C 40.9,38.38 40.78,38.78 40.78,39.21 C 41.06,39.41 41.58,39.29 42.02,38.86 C 42.42,38.46 42.58,37.94 42.38,37.62 C 41.98,37.62 41.54,37.74 41.22,38.06 Z" fill="url(#z)"/>
<path d="M 19.99,32.985 H 17 V 22 H 20 V 33 Z M 30,22 V 24 H 33 V 33 H 36 V 24 H 39 V 22 H 30 Z M 31,25 H 27.52 L 25.06,28.26 H 25 V 25 H 22 V 33 H 25 V 29.16 H 25.06 L 27.56,33 H 31 L 27.6,28.61 L 31,25 Z" fill="rgb(254, 254, 253)"/>
<defs>
<linearGradient id="aa" x1="34.97" x2="33.73" y1="44.69" y2="42.15" gradientUnits="userSpaceOnUse">
<stop stop-color="rgb(240, 241, 240)" offset="0"/>
<stop stop-color="rgb(38, 169, 223)" offset=".5"/>
<stop stop-color="rgb(27, 116, 186)" offset="1"/>
</linearGradient>
<linearGradient id="y" x1="33.32" x2="35.42" y1="43.57" y2="43.57" gradientUnits="userSpaceOnUse">
<stop stop-color="rgb(69, 138, 200)" offset="0"/>
<stop stop-color="rgb(42, 56, 142)" offset="1"/>
</linearGradient>
<linearGradient id="x" x1="24.35" x2="24.42" y1="11.5" y2="14.42" gradientUnits="userSpaceOnUse">
<stop stop-color="rgb(240, 241, 240)" offset="0"/>
<stop stop-color="rgb(38, 169, 223)" offset=".5"/>
<stop stop-color="rgb(27, 116, 186)" offset="1"/>
</linearGradient>
<linearGradient id="w" x1="23.29" x2="25.52" y1="12.33" y2="12.33" gradientUnits="userSpaceOnUse">
<stop stop-color="rgb(69, 138, 200)" offset="0"/>
<stop stop-color="rgb(42, 56, 142)" offset="1"/>
</linearGradient>
<linearGradient id="v" x1="43.41" x2="40.28" y1="18.68" y2="20.32" gradientUnits="userSpaceOnUse">
<stop stop-color="rgb(240, 241, 240)" offset="0"/>
<stop stop-color="rgb(38, 169, 223)" offset=".5"/>
<stop stop-color="rgb(27, 116, 186)" offset="1"/>
</linearGradient>
<linearGradient id="u" x1="42.34" x2="44.87" y1="33.21" y2="33.21" gradientUnits="userSpaceOnUse">
<stop stop-color="rgb(27, 116, 186)" offset="0"/>
<stop stop-color="rgb(38, 169, 223)" offset=".5"/>
<stop stop-color="rgb(240, 241, 240)" offset="1"/>
</linearGradient>
<linearGradient id="t" x1="35.93" x2="38.44" y1="22.81" y2="22.81" gradientUnits="userSpaceOnUse">
<stop stop-color="rgb(42, 56, 142)" offset="0"/>
<stop stop-color="rgb(27, 116, 186)" offset="1"/>
</linearGradient>
<linearGradient id="s" x1="32.04" x2="35.57" y1="16.49" y2="16.49" gradientUnits="userSpaceOnUse">
<stop stop-color="rgb(42, 56, 142)" offset="0"/>
<stop stop-color="rgb(27, 116, 186)" offset="1"/>
</linearGradient>
<linearGradient id="r" x1="20.39" x2="23.5" y1="15.5" y2="15.5" gradientUnits="userSpaceOnUse">
<stop stop-color="rgb(42, 56, 142)" offset="0"/>
<stop stop-color="rgb(27, 116, 186)" offset="1"/>
</linearGradient>
<linearGradient id="q" x1="34.86" x2="37.97" y1="32" y2="32" gradientUnits="userSpaceOnUse">
<stop stop-color="rgb(42, 56, 142)" offset="0"/>
<stop stop-color="rgb(27, 116, 186)" offset="1"/>
</linearGradient>
<linearGradient id="p" x1="23.17" x2="26.28" y1="21.5" y2="21.5" gradientUnits="userSpaceOnUse">
<stop stop-color="rgb(42, 56, 142)" offset="0"/>
<stop stop-color="rgb(27, 116, 186)" offset="1"/>
</linearGradient>
<linearGradient id="o" x1="23.77" x2="26.7" y1="31.96" y2="31.96" gradientUnits="userSpaceOnUse">
<stop stop-color="rgb(42, 56, 142)" offset="0"/>
<stop stop-color="rgb(27, 116, 186)" offset="1"/>
</linearGradient>
<linearGradient id="n" x1="40.34" x2="42.93" y1="27.05" y2="27.05" gradientUnits="userSpaceOnUse">
<stop stop-color="rgb(42, 56, 142)" offset="0"/>
<stop stop-color="rgb(27, 116, 186)" offset="1"/>
</linearGradient>
<linearGradient id="m" x1="31.45" x2="35.05" y1="37.74" y2="37.74" gradientUnits="userSpaceOnUse">
<stop stop-color="rgb(42, 56, 142)" offset="0"/>
<stop stop-color="rgb(27, 116, 186)" offset="1"/>
</linearGradient>
<linearGradient id="l" x1="13.09" x2="15.68" y1="22.76" y2="22.76" gradientUnits="userSpaceOnUse">
<stop stop-color="rgb(42, 56, 142)" offset="0"/>
<stop stop-color="rgb(27, 116, 186)" offset="1"/>
</linearGradient>
<linearGradient id="k" x1="15.99" x2="18.91" y1="36.27" y2="36.27" gradientUnits="userSpaceOnUse">
<stop stop-color="rgb(69, 138, 200)" offset="0"/>
<stop stop-color="rgb(42, 56, 142)" offset="1"/>
</linearGradient>
<linearGradient id="j" x1="23.73" x2="27.25" y1="41.25" y2="41.25" gradientUnits="userSpaceOnUse">
<stop stop-color="rgb(42, 56, 142)" offset="0"/>
<stop stop-color="rgb(27, 116, 186)" offset="1"/>
</linearGradient>
<linearGradient id="i" x1="41.68" x2="43.08" y1="19.23" y2="19.23" gradientUnits="userSpaceOnUse">
<stop stop-color="rgb(69, 138, 200)" offset="0"/>
<stop stop-color="rgb(42, 56, 142)" offset="1"/>
</linearGradient>
<linearGradient id="h" x1="43.72" x2="44.99" y1="33.15" y2="33.15" gradientUnits="userSpaceOnUse">
<stop stop-color="rgb(69, 138, 200)" offset="0"/>
<stop stop-color="rgb(42, 56, 142)" offset="1"/>
</linearGradient>
<linearGradient id="g" x1="36.6" x2="37.78" y1="22.78" y2="22.78" gradientUnits="userSpaceOnUse">
<stop stop-color="rgb(69, 138, 200)" offset="0"/>
<stop stop-color="rgb(42, 56, 142)" offset="1"/>
</linearGradient>
<linearGradient id="f" x1="32.78" x2="34.9" y1="16.49" y2="16.49" gradientUnits="userSpaceOnUse">
<stop stop-color="rgb(69, 138, 200)" offset="0"/>
<stop stop-color="rgb(42, 56, 142)" offset="1"/>
</linearGradient>
<linearGradient id="e" x1="21.06" x2="22.84" y1="15.5" y2="15.5" gradientUnits="userSpaceOnUse">
<stop stop-color="rgb(69, 138, 200)" offset="0"/>
<stop stop-color="rgb(42, 56, 142)" offset="1"/>
</linearGradient>
<linearGradient id="d" x1="23.84" x2="25.61" y1="21.5" y2="21.5" gradientUnits="userSpaceOnUse">
<stop stop-color="rgb(69, 138, 200)" offset="0"/>
<stop stop-color="rgb(42, 56, 142)" offset="1"/>
</linearGradient>
<linearGradient id="c" x1="24.44" x2="26.04" y1="31.96" y2="31.96" gradientUnits="userSpaceOnUse">
<stop stop-color="rgb(69, 138, 200)" offset="0"/>
<stop stop-color="rgb(42, 56, 142)" offset="1"/>
</linearGradient>
<linearGradient id="b" x1="32.17" x2="34.38" y1="37.74" y2="37.74" gradientUnits="userSpaceOnUse">
<stop stop-color="rgb(69, 138, 200)" offset="0"/>
<stop stop-color="rgb(42, 56, 142)" offset="1"/>
</linearGradient>
<linearGradient id="a" x1="41.01" x2="42.27" y1="27.09" y2="27.09" gradientUnits="userSpaceOnUse">
<stop stop-color="rgb(69, 138, 200)" offset="0"/>
<stop stop-color="rgb(42, 56, 142)" offset="1"/>
</linearGradient>
<linearGradient id="ak" x1="10.37" x2="13.04" y1="30.77" y2="30.77" gradientUnits="userSpaceOnUse">
<stop stop-color="rgb(240, 241, 240)" offset="0"/>
<stop stop-color="rgb(38, 169, 223)" offset=".5"/>
<stop stop-color="rgb(27, 116, 186)" offset="1"/>
</linearGradient>
<linearGradient id="aj" x1="10.72" x2="11.89" y1="30.8" y2="30.8" gradientUnits="userSpaceOnUse">
<stop stop-color="rgb(42, 56, 142)" offset="0"/>
<stop stop-color="rgb(27, 116, 186)" offset="1"/>
</linearGradient>
<linearGradient id="ai" x1="17.92" x2="19.5" y1="43.59" y2="40.99" gradientUnits="userSpaceOnUse">
<stop stop-color="rgb(240, 241, 240)" offset="0"/>
<stop stop-color="rgb(38, 169, 223)" offset=".5"/>
<stop stop-color="rgb(27, 116, 186)" offset="1"/>
</linearGradient>
<linearGradient id="ah" x1="17.75" x2="19.64" y1="42.3" y2="42.3" gradientUnits="userSpaceOnUse">
<stop stop-color="rgb(42, 56, 142)" offset="0"/>
<stop stop-color="rgb(27, 116, 186)" offset="1"/>
</linearGradient>
<linearGradient id="ag" x1="13.75" x2="15.01" y1="22.73" y2="22.73" gradientUnits="userSpaceOnUse">
<stop stop-color="rgb(69, 138, 200)" offset="0"/>
<stop stop-color="rgb(42, 56, 142)" offset="1"/>
</linearGradient>
<linearGradient id="af" x1="16.65" x2="18.25" y1="36.27" y2="36.27" gradientUnits="userSpaceOnUse">
<stop stop-color="rgb(42, 56, 142)" offset="0"/>
<stop stop-color="rgb(27, 116, 186)" offset="1"/>
</linearGradient>
<linearGradient id="ae" x1="24.4" x2="26.52" y1="41.25" y2="41.25" gradientUnits="userSpaceOnUse">
<stop stop-color="rgb(69, 138, 200)" offset="0"/>
<stop stop-color="rgb(42, 56, 142)" offset="1"/>
</linearGradient>
<linearGradient id="ad" x1="14.5" x2="18.26" y1="15.24" y2="18.14" gradientUnits="userSpaceOnUse">
<stop stop-color="rgb(240, 241, 240)" offset="0"/>
<stop stop-color="rgb(38, 169, 223)" offset=".5"/>
<stop stop-color="rgb(27, 116, 186)" offset="1"/>
</linearGradient>
<linearGradient id="ac" x1="14.85" x2="16.52" y1="16.1" y2="16.1" gradientUnits="userSpaceOnUse">
<stop stop-color="rgb(42, 56, 142)" offset="0"/>
<stop stop-color="rgb(27, 116, 186)" offset="1"/>
</linearGradient>
<linearGradient id="ab" x1="39.59" x2="41.95" y1="37.47" y2="38.54" gradientUnits="userSpaceOnUse">
<stop stop-color="rgb(27, 116, 186)" offset="0"/>
<stop stop-color="rgb(38, 169, 223)" offset=".5"/>
<stop stop-color="rgb(240, 241, 240)" offset="1"/>
</linearGradient>
<linearGradient id="z" x1="41.06" x2="42.2" y1="38.18" y2="38.73" gradientUnits="userSpaceOnUse">
<stop stop-color="rgb(69, 138, 200)" offset="0"/>
<stop stop-color="rgb(42, 56, 142)" offset="1"/>
</linearGradient>
</defs>
</svg>
