<?xml version="1.0" encoding="UTF-8"?>
<!-- generated by Finnhub -->
<svg viewBox="0 0 55.5 55.5" xmlns="http://www.w3.org/2000/svg">
<rect width="56" height="56" fill="rgb(239, 242, 248)"/>
<path d="M 24.448999999999998,14.985 L 28.0448,11.4142 L 31.6306,15 H 24.459 Z M 23.0448,15 L 28.0448,10 L 33.0448,15 H 41.0025 V 22.9576 L 45.9996,27.9548 L 41.0025,32.9519 V 41 H 32.9544 L 27.9544,46 L 22.9544,41 H 14.9996 V 33.0452 L 9.9996,28.0452 L 14.9996,23.0452 V 15 H 23.0448 Z M 15.9996,22.0452 V 16 H 22.0448 L 15.9996,22.0452 Z M 15.9996,34.0452 V 40 H 21.9544 L 15.9996,34.0452 Z M 15.6683,32.2997 L 11.4138,28.0452 L 15.7645,23.6945 L 20.0148,27.9489 L 15.6683,32.2997 Z M 16.3754,33.0068 L 22.8316,39.463 L 27.2529,35.0799 L 25.1202,32.9702 L 27.2497,30.8663 L 25.0082,28.6518 L 22.8485,30.7854 L 20.7216,28.6564 L 16.3754,33.0068 Z M 27.9614,31.5692 L 26.5429,32.9706 L 27.9634,34.3758 L 29.3804,32.971 L 27.9614,31.5692 Z M 28.6743,35.0791 L 30.802,32.9698 L 28.6729,30.8663 L 30.9145,28.6518 L 33.0745,30.7857 L 35.2007,28.6531 L 39.5445,32.996 L 33.0917,39.4488 L 28.6743,35.0791 Z M 27.9642,35.7832 L 23.7106,40 H 32.227 L 27.9642,35.7832 Z M 40.2512,32.2889 L 44.5853,27.9548 L 40.2344,23.6039 L 35.9063,27.945 L 40.2512,32.2889 Z M 35.1992,27.2379 L 39.5273,22.8968 L 33.078,16.4474 L 28.6713,20.8161 L 30.8016,22.9281 L 28.6725,25.0315 L 30.914,27.2461 L 33.0735,25.1127 L 35.1992,27.2379 Z M 31.6255,27.9489 L 33.0687,29.3748 L 34.4931,27.9461 L 33.0693,26.5226 L 31.6255,27.9489 Z M 30.2026,27.9489 L 27.9611,25.7344 L 25.7195,27.9489 L 27.961,30.1635 L 30.2026,27.9489 Z M 21.4283,27.9489 L 22.853,29.3751 L 24.2966,27.9489 L 22.853,26.5228 L 21.4283,27.9489 Z M 27.9611,20.1121 L 32.1089,16 H 23.8132 L 27.9611,20.1121 Z M 22.9282,16.5307 L 27.2509,20.8161 L 25.1205,22.9281 L 27.2496,25.0315 L 25.0081,27.2461 L 22.8484,25.1125 L 20.7215,27.2415 L 16.4715,22.9874 L 22.9282,16.5307 Z M 29.38,22.9269 L 27.9611,21.5202 L 26.5421,22.9269 L 27.9611,24.3287 L 29.38,22.9269 Z M 24.3685,40.9999 L 27.9543,44.5857 L 31.5401,40.9999 H 24.3685 Z M 33.9543,39.9999 H 40.0024 V 33.9518 L 33.9543,39.9999 Z M 34.0447,15.9999 L 40.0024,21.9575 V 15.9999 H 34.0447 Z" clip-rule="evenodd" fill="rgb(15, 72, 71)" fill-rule="evenodd"/>
</svg>
