<?xml version="1.0" encoding="UTF-8"?>
<!-- generated by Finnhub -->
<svg viewBox="0 0 55.5 55.5" xmlns="http://www.w3.org/2000/svg">
<path d="M 0,0 H 55.5 V 55.5 H 0 Z" fill="rgb(239, 242, 248)"/>
<path d="M 11.99,19.945 C 12,19.52 12.23,19.11 12.61,18.89 L 27.4,10.16 A 1.2,1.2 0 0,1 28.59,10.16 L 43.39,18.9 C 43.77,19.11 44,19.52 44,19.96 V 37.03 C 44,37.46 43.77,37.86 43.4,38.08 L 28.63,46.83 C 28.43,46.94 28.21,47 28,47 C 27.79,47 27.6,46.95 27.4,46.83 L 12.6,38.08 C 12.23,37.86 12,37.46 12,37.03 V 19.96 Z M 13,20.14 C 13,19.92 13.13,19.72 13.32,19.61 L 27.68,11.07 C 27.78,11.02 27.9,11 28,11 S 28.19,11.02 28.28,11.08 L 42.72,19.71 C 42.91,19.81 43,20.01 43,20.24 V 36.8 C 43,37.01 42.91,37.21 42.73,37.32 L 28.32,45.88 C 28.22,45.93 28.1,45.98 28,45.98 S 27.8,45.93 27.7,45.88 L 13.32,37.42 A 0.63,0.63 0 0,1 13,36.89 V 20.14 Z M 28,22 H 26 V 26.94 S 26.07,30 29.53,30 C 33,30 33,26.94 33,26.94 V 22 H 31 V 26.16 S 31.18,28.5 29.53,28.5 C 27.89,28.5 28,26.16 28,26.16 V 22 Z M 17,22 H 15 V 30 H 17 V 22 Z M 21,22 H 19 V 30 H 25 V 28.5 H 21 V 22 Z M 40.23,24 L 40.69,22.8 S 39.53,22 37.94,22 C 36.2,22 34.5,22.56 34.5,24.31 C 34.5,25.84 36.03,26.28 37.05,26.57 L 37.46,26.67 C 38.31,26.89 39,27.07 39,27.63 C 39,28.28 38.13,28.5 37.22,28.5 C 35.94,28.5 34.72,27.8 34.72,27.8 L 34,29.2 S 35.5,30 37.22,30 C 39.16,30 41,29.2 41,27.63 C 41,26.31 40.23,25.81 39,25.43 L 38.06,25.2 C 37.18,25 36.37,24.83 36.37,24.31 C 36.37,23.61 37.4,23.5 38.22,23.5 C 39.25,23.5 40.23,24 40.23,24 Z" fill="rgb(157, 120, 66)" fill-rule="evenodd"/>
<path d="M 14.99,31.985 H 15.4 V 34 H 15 V 32 Z M 20.75,32 H 22 V 32.36 H 21.15 V 32.76 H 22 V 33.16 H 21.15 V 33.62 H 22 V 34 H 20.75 V 32 Z M 23.5,32 H 22.8 V 34 H 23.2 V 33.28 H 23.48 L 23.85,34 H 24.3 L 23.9,33.2 C 24.1,33.11 24.24,32.93 24.24,32.62 C 24.24,32.15 23.91,32 23.5,32 Z M 23.84,32.62 C 23.84,32.82 23.7,32.92 23.47,32.92 H 23.2 V 32.36 H 23.47 C 23.71,32.36 23.84,32.43 23.84,32.62 Z M 31.6,32 H 32 V 34 H 31.6 V 32 Z M 33.55,32 C 33.05,32 32.7,32.36 32.7,33 C 32.7,33.62 33.05,34 33.55,34 C 34.06,34 34.41,33.62 34.41,33 C 34.41,32.36 34.06,32 33.55,32 Z M 33.1,33 C 33.1,32.6 33.3,32.4 33.55,32.4 C 33.91,32.4 34.01,32.76 34.01,33 C 34.01,33.38 33.81,33.6 33.55,33.6 C 33.3,33.6 33.1,33.38 33.1,33 Z M 37.88,32 H 38.41 L 39,34 H 38.55 L 38.43,33.52 H 37.84 L 37.72,34 H 37.3 L 37.88,32 Z M 38.3,32.98 L 38.34,33.18 H 37.94 L 37.98,32.98 L 38.13,32.34 H 38.14 L 38.21,32.61 L 38.3,32.98 Z M 40,32 H 39.6 V 34 H 41 V 33.6 H 40 V 32 Z M 16.4,32 H 16.88 L 17.6,33.22 V 32 H 18 V 34 H 17.55 L 16.83,32.72 V 34 H 16.4 V 32 Z M 25.48,32 H 25 V 34 H 25.43 V 32.72 L 26.15,34 H 26.6 V 32 H 26.2 V 33.22 L 25.48,32 Z M 27.88,32 H 28.41 L 29,34 H 28.55 L 28.43,33.52 H 27.84 L 27.72,34 H 27.3 L 27.88,32 Z M 28.3,32.98 L 28.34,33.18 H 27.94 L 27.98,32.98 L 28.13,32.34 H 28.14 L 28.21,32.61 L 28.3,32.98 Z M 18.6,32.38 H 19.1 V 34 H 19.5 V 32.38 H 20 V 32 H 18.6 V 32.37 Z M 30,32.38 H 29.5 V 32 H 30.9 V 32.38 H 30.4 V 34 H 30 V 32.37 Z M 35.48,32 H 35 V 34 H 35.43 V 32.72 L 36.15,34 H 36.6 V 32 H 36.2 V 33.22 L 35.48,32 Z" fill="rgb(28, 28, 25)" fill-rule="evenodd"/>
</svg>
