<?xml version="1.0" encoding="UTF-8"?>
<!-- generated by Finnhub -->
<svg viewBox="0 0 55.5 55.5" xmlns="http://www.w3.org/2000/svg">
<path d="M 0,0 H 55.5 V 55.5 H 0 Z" fill="rgb(239, 242, 248)"/>
<path d="M 10.49,20.985 A 2.5,2.5 0 1,0 10.5,16 A 2.5,2.5 0 0,0 10.5,21 Z M 45.38,29 H 50 A 7.12,7.12 0 0,0 42.74,22.57 A 7.33,7.33 0 0,0 36.06,26.83 A 7.43,7.43 0 0,0 29.31,22.57 C 27.34,22.57 25.33,23.33 24,24.56 A 6.9,6.9 0 0,0 19.15,22.57 A 7.88,7.88 0 0,0 13,25.5 V 23 H 8 V 33 H 16 V 29.72 C 16,28.22 17.47,27 19,27 S 22,28.21 22,29.72 V 33 H 26 V 30.14 C 26,28.14 27.33,27 29.03,27 C 30.72,27 32,28.3 32,29.8 C 32,31.3 31,32.51 29.5,32.57 V 37 A 7.3,7.3 0 0,0 36.07,32.77 A 7.33,7.33 0 0,0 42.74,37 A 7.19,7.19 0 0,0 50,30.5 H 45.38 A 2.65,2.65 0 0,1 42.74,32.47 C 41.24,32.47 40,31.27 40,29.79 C 40,28.3 41.04,27 42.74,27 C 44.16,27 45.09,27.83 45.38,29 Z M 27.32,37 C 27.72,37 28,36.78 28,36.37 C 28,36.1 27.88,35.93 27.53,35.82 L 27.43,35.8 C 27.26,35.75 27.12,35.72 27.12,35.56 C 27.12,35.42 27.24,35.37 27.38,35.37 C 27.55,35.37 27.75,35.44 27.9,35.57 V 35.15 A 1.06,1.06 0 0,0 27.37,35 C 26.98,35 26.71,35.22 26.71,35.61 C 26.71,35.88 26.83,36.06 27.18,36.17 L 27.28,36.2 C 27.45,36.24 27.59,36.28 27.59,36.44 C 27.59,36.58 27.47,36.64 27.32,36.64 C 27.12,36.64 26.9,36.54 26.76,36.4 V 36.86 C 26.92,36.95 27.12,37 27.32,37 Z M 26,37 H 26.42 V 35 H 26 V 37 Z M 24.7,36.63 V 36.15 H 25 C 25.16,36.15 25.26,36.25 25.26,36.39 C 25.26,36.53 25.16,36.63 24.99,36.63 H 24.7 Z M 24.7,35.83 V 35.37 H 24.92 C 25.07,35.37 25.16,35.45 25.16,35.59 S 25.06,35.82 24.91,35.82 H 24.71 Z M 24.3,37 H 24.98 C 25.4,37 25.67,36.72 25.67,36.37 C 25.67,36.15 25.57,35.99 25.39,35.91 C 25.49,35.81 25.56,35.68 25.56,35.52 C 25.56,35.22 25.33,35 24.98,35 H 24.3 V 37 Z M 22.9,36.22 L 23.14,35.52 L 23.38,36.22 H 22.9 Z M 22.2,37 H 22.64 L 22.77,36.58 H 23.51 L 23.64,37 H 24.09 L 23.39,35 H 22.91 L 22.21,37 Z M 21.63,35 V 36.3 L 20.74,35 H 20.35 V 37 H 20.74 V 35.72 L 21.62,37 H 22 V 35 H 21.63 Z M 19.62,35 V 36.3 L 18.72,35 H 18.34 V 37 H 18.72 V 35.72 L 19.61,37 H 20 V 35 H 19.62 Z M 16.92,36.22 L 17.16,35.52 L 17.4,36.22 H 16.91 Z M 16.22,37 H 16.66 L 16.79,36.58 H 17.53 L 17.66,37 H 18.11 L 17.41,35 H 16.93 L 16.23,37 Z M 15.52,37 C 15.72,37 15.89,36.96 16.03,36.88 V 36.46 A 0.65,0.65 0 0,1 15.59,36.62 C 15.24,36.62 15.01,36.38 15.01,36.01 C 15.01,35.63 15.23,35.39 15.59,35.39 C 15.77,35.39 15.92,35.44 16.03,35.55 V 35.1 C 15.9,35.03 15.74,35 15.56,35 C 14.98,35 14.58,35.41 14.58,36.03 C 14.58,36.63 14.96,37 15.52,37 Z M 13.75,37 L 13.51,35 H 13 L 12.53,36.45 L 12.07,35 H 11.54 L 11.3,37 H 11.68 L 11.85,35.61 L 12.29,37 H 12.73 L 13.18,35.6 L 13.36,37 H 13.76 Z M 9.94,36.22 L 10.18,35.52 L 10.43,36.22 H 9.94 Z M 9.24,37 H 9.68 L 9.82,36.58 H 10.55 L 10.69,37 H 11.14 L 10.44,35 H 9.96 L 9.25,37 Z M 8,37 H 8.42 V 35 H 8 V 37 Z" fill="rgb(213, 64, 33)"/>
</svg>
