<?xml version="1.0" encoding="UTF-8"?>
<!-- generated by Finnhub -->
<svg viewBox="0 0 55.5 55.5" xmlns="http://www.w3.org/2000/svg">
<path d="M 0,0 H 55.5 V 55.5 H 0 Z" fill="rgb(239, 242, 248)"/>
<path d="M 30.99,14.725 A 2.74,2.74 0 0,1 33.74,12 H 41 V 19.26 A 2.74,2.74 0 0,1 38.26,22 H 31 V 14.74 Z M 12,33.74 A 2.74,2.74 0 0,1 14.74,31 H 22 V 38.26 A 2.74,2.74 0 0,1 19.26,41 H 12 V 33.74 Z M 31,23.74 A 2.74,2.74 0 0,0 28.26,21 H 21 V 28.26 A 2.74,2.74 0 0,0 23.74,31 H 31 V 23.74 Z M 41,33.74 A 2.74,2.74 0 0,0 38.26,31 H 31 V 38.26 A 2.74,2.74 0 0,0 33.74,41 H 41 V 33.74 Z" fill="rgb(165, 169, 171)"/>
</svg>
