<?xml version="1.0" encoding="UTF-8"?>
<!-- generated by Finnhub -->
<svg viewBox="0 0 55.5 55.5" xmlns="http://www.w3.org/2000/svg">
<path d="M 0,0 H 55.5 V 55.5 H 0 Z" fill="rgb(239, 242, 248)"/>
<path d="M 5.99,29.985 H 5 V 29 H 6 V 30 Z M 6,35 H 5 V 31 H 6 V 35 Z M 13,32.42 C 13,32.14 12.74,32 12.48,32 H 8 V 35 H 7 V 31 H 12.66 C 13.11,31 13.46,31.13 13.68,31.39 C 13.89,31.63 14,31.91 14,32.22 V 35 H 13 V 32.42 Z M 21,35 H 17.5 C 16.73,35 16,34.5 16,33.71 V 32 H 15.33 V 31 H 16 V 29 H 17 V 31 H 21 V 32 H 17 V 33.4 C 17,33.75 17.54,34 17.84,34 H 21 V 35 Z M 23.9,34 H 29 V 35 H 24.15 C 23.45,35 22.92,34.82 22.55,34.47 A 1.94,1.94 0 0,1 22,33 C 22,32.37 22.18,31.88 22.55,31.53 C 22.92,31.18 23.45,31 24.15,31 H 29 V 32 H 23.9 C 23.43,32 23.22,32.13 23,32.53 V 32.55 H 29 V 33.45 H 23 V 33.47 C 23.21,33.87 23.44,34 23.9,34 Z M 34.76,32.42 A 0.4,0.4 0 0,0 34.62,32.1 A 0.44,0.44 0 0,0 34.32,32 H 31 V 35 H 30 V 31 H 34.54 C 35.02,31 35.39,31.13 35.65,31.4 C 35.88,31.63 36,31.9 36,32.22 V 32.63 H 34.76 V 32.42 Z M 41.76,32.42 A 0.4,0.4 0 0,0 41.62,32.1 A 0.44,0.44 0 0,0 41.32,32 H 38 V 35 H 37 V 31 H 41.54 C 42.02,31 42.39,31.13 42.65,31.4 C 42.88,31.63 43,31.9 43,32.22 V 32.63 H 41.76 V 32.42 Z M 44.44,32 V 31 H 49.37 C 49.87,31 50.27,31.12 50.56,31.37 C 50.74,31.53 50.86,31.71 50.93,31.91 C 50.98,32.07 51,32.28 51,32.56 V 35 H 45.34 C 44.51,35 44,34.55 44,33.77 S 44.6,32.55 45.34,32.55 H 50 C 50,32.04 49.45,32 49.05,32 H 44.44 Z M 50,34 V 33.45 H 45.4 C 45.14,33.45 45,33.55 45,33.75 C 45,33.95 45.14,34 45.4,34 H 50 Z" fill="rgb(145, 152, 163)"/>
<path d="M 39.06,23.224999999999998 L 40.11,22.44 C 40.76,21.91 41.54,21.47 42.36,21.05 C 42.75,20.86 43.11,20.66 43.49,20.46 C 43.83,20.28 43.91,20.28 44.23,20.46 A 5.45,5.45 0 0,1 46.16,22.12 C 46.99,23.28 47.76,24.46 48.95,25.52 C 49.38,25.89 49.62,26.35 49.94,26.78 C 50.1,27 50.24,27.23 50.37,27.46 C 50.4,27.52 50.38,27.59 50.39,27.66 C 50.26,27.66 50.11,27.68 50.02,27.65 A 7.2,7.2 0 0,1 47.62,26.33 C 47.19,25.93 46.75,25.55 46.32,25.17 C 46.08,24.96 45.82,24.76 45.62,24.54 A 6.45,6.45 0 0,0 43.92,23.29 C 43.4,23.01 42.99,22.69 42.89,22.27 C 42.88,22.23 42.83,22.21 42.76,22.13 L 39.44,23.81 C 39.52,23.94 39.56,24.03 39.63,24.11 C 40.53,25.25 41.11,26.45 41.47,27.7 C 41.51,27.83 41.57,27.96 41.58,28.09 C 41.58,28.13 41.51,28.21 41.44,28.22 A 0.66,0.66 0 0,1 41.17,28.2 C 41.12,28.19 41.09,28.15 41.06,28.12 L 39.55,26.73 C 39.33,26.53 39.15,26.31 38.93,26.12 A 9.53,9.53 0 0,1 36.13,22.07 L 35.7,20.97 C 35.31,21.04 35.06,21.2 34.84,21.36 C 34.34,21.72 33.71,21.86 32.94,21.84 C 32.36,21.84 31.77,21.9 31.18,21.92 C 30.88,21.94 30.52,22.02 30.33,21.81 C 30.15,21.61 30.41,21.47 30.57,21.31 C 30.84,21.07 31.14,20.82 31.4,20.57 C 31.78,20.22 31.94,19.82 31.97,19.41 C 32.05,18.35 31.99,18.05 31.45,16.87 C 31.33,16.95 31.2,17 31.12,17.07 C 30.69,17.47 30.25,17.85 29.86,18.26 C 28.99,19.18 28.09,20.09 26.82,20.83 C 26.32,21.12 25.76,21.37 25.22,21.63 C 24.94,21.78 24.62,21.91 24.35,22.07 C 23.55,22.55 22.75,23.03 21.99,23.54 C 21.53,23.85 21.12,24.2 20.76,24.56 C 20.36,24.97 19.9,25.36 19.33,25.7 C 18.93,25.95 18.58,26.23 18.23,26.5 C 17.78,26.85 17.28,27.15 16.67,27.39 C 16.5,27.45 16.3,27.54 16.14,27.42 C 16.06,27.35 16.04,27.21 16.09,27.12 C 16.21,26.91 16.36,26.69 16.54,26.49 L 19.38,23.36 C 19.48,23.26 19.56,23.14 19.66,23.01 C 19.02,23.01 18.33,23.29 17.94,22.75 C 17.72,22.85 17.51,22.93 17.34,23.02 L 15.6,24.05 C 15.03,24.4 14.49,24.78 13.87,25.09 C 13.44,25.32 12.94,25.5 12.42,25.65 C 11.73,25.84 11.07,25.74 10.5,25.44 L 10.02,25.19 C 9.89,25.25 9.76,25.3 9.66,25.37 L 8.61,26.06 L 5.51,27.9 C 5.38,27.98 5.21,28.03 5,28.06 C 5.1,27.8 5.32,27.6 5.57,27.4 L 7.36,26.05 L 11.26,23.09 C 11.34,23.03 11.39,22.97 11.47,22.89 C 11.97,23.15 11.9,23.52 12.26,23.79 L 12.74,23.56 C 15.87,22.06 18.75,20.36 21.65,18.69 C 21.83,18.59 22.03,18.49 22.32,18.36 L 22.52,18.82 L 22.96,20.32 C 22.98,20.38 23.03,20.45 23.09,20.54 L 23.29,20.45 L 25.53,18.95 C 26.6,18.25 27.71,17.56 28.77,16.85 C 29.64,16.27 30.56,15.72 31.59,15.25 C 31.77,15.16 31.97,15.09 32.2,15 C 32.3,15.1 32.41,15.16 32.44,15.23 C 33.04,16.65 33.87,18.02 34.83,19.36 C 34.93,19.5 35.01,19.65 35.11,19.81 L 35.61,19.59 C 36.01,19.43 36.21,19.47 36.4,19.72 L 38.86,22.97 L 39.07,23.24 Z" fill="rgb(28, 69, 169)"/>
</svg>
