<?xml version="1.0" encoding="UTF-8"?>
<!-- generated by Finnhub -->
<svg viewBox="0 0 55.5 55.5" xmlns="http://www.w3.org/2000/svg">
<path d="M 0,0 H 55.5 V 55.5 H 0 Z" fill="rgb(239, 242, 248)"/>
<path d="M 47.99,21.985 C 48.63,22.98 49,24.26 49,25.34 C 49,26.32 48.73,27.26 48.19,28.16 C 46.09,32.65 37.9,36 28,36 C 16.5,35.96 7.05,31.45 7.05,25.92 C 7.05,23.32 9.11,20.92 12.51,19.16 C 13.14,18.76 13.87,18.36 14.63,18 C 9.4,20.03 6,23.24 6,26.86 C 6,33.01 15.84,38 28,38 C 40.16,38 50,33 50,26.86 A 7.32,7.32 0 0,0 48,22 Z" fill="rgb(1, 124, 192)"/>
<path d="M 42.49,21.985 C 42.94,22.75 43.34,23.76 43.34,24.59 C 43.34,28.99 36.55,32.5 28.16,32.5 C 19.76,32.5 13,29 13,24.59 C 13,23.32 13.96,22.09 15,21 C 13.36,22.3 12,23.88 12,25.6 C 12,30.23 19.16,34 28,34 C 36.84,34 44,30.23 44,25.6 C 44,24.4 43.35,23 42.5,22 Z" fill="rgb(1, 124, 192)"/>
<path d="M 38.99,21.985 C 39.32,22.51 39.55,22.9 39.55,23.48 C 39.55,26.54 34.66,29 28.63,29 C 22.59,29 17.7,26.54 17.7,23.48 C 17.7,22.6 18.27,21.77 19,21 C 17.82,21.91 17,23 17,24.17 C 17,27.37 22.14,30 28.5,30 C 34.86,30 40,27.38 40,24.17 C 40.03,23.33 39.6,22.73 39,22 Z" fill="rgb(1, 124, 192)"/>
<path d="M 35.35,21.544999999999998 C 35.56,21.9 35.68,22.27 35.68,22.65 C 35.68,24.71 32.48,26.36 28.58,26.36 C 24.65,26.36 21.48,24.71 21.48,22.65 C 21.48,22.05 21.52,21.49 22,21 C 21.23,21.6 21,22.35 21,23.14 C 21,25.27 24.36,27 28.52,27 C 32.64,27 36,25.24 36,23.1 C 36,22.54 35.78,22.01 35.36,21.56 Z" fill="rgb(1, 124, 192)"/>
<path d="M 28.49,22.985 C 27.1,23 26,22.55 26,22 S 27.14,21 28.5,21 C 29.9,21 31,21.45 31,22 S 29.86,23 28.5,23 Z" fill="rgb(1, 124, 192)"/>
</svg>
