<?xml version="1.0" encoding="UTF-8"?>
<!-- generated by Finnhub -->
<svg viewBox="0 0 55.5 55.5" xmlns="http://www.w3.org/2000/svg">
<path d="M 0,0 H 55.5 V 55.5 H 0 Z" fill="rgb(239, 242, 248)"/>
<path d="M 4.99,26.985 H 6 V 34 H 5 Z M 39,27 H 40 V 34 H 39 Z M 7,29.47 A 2.47,2.47 0 0,1 11.5,28.07 A 2.47,2.47 0 0,1 16,29.47 V 34 H 15 V 29.5 A 1.5,1.5 0 1,0 12,29.5 V 34 H 11 V 29.5 A 1.5,1.5 0 0,0 8,29.5 V 34 H 7 V 29.47 Z M 17,29.47 A 2.47,2.47 0 0,1 21.5,28.07 A 2.47,2.47 0 0,1 26,29.47 V 34 H 25 V 29.5 A 1.5,1.5 0 1,0 22,29.5 V 34 H 21 V 29.5 A 1.5,1.5 0 0,0 18,29.5 V 34 H 17 V 29.47 Z"/>
<path d="M 26.99,30.025 C 27,28.36 28.4,27 30.13,27 H 30.87 A 3.09,3.09 0 0,1 34,30.04 V 32.51 C 34,32.78 34.02,33.17 34.69,33.15 V 34 C 33.77,34 33.29,33.76 33.06,33.13 C 32.49,33.67 31.72,34 30.86,34 H 30.13 A 3.09,3.09 0 0,1 27,30.96 V 30.04 Z M 28,30.21 C 28,28.91 29.02,28 30.37,28 H 30.63 C 31.98,28 33,28.9 33,30.21 V 30.91 C 33,32.23 31.98,33 30.63,33 H 30.37 C 29.02,33 28,32.23 28,30.92 V 30.22 Z" fill-rule="evenodd"/>
<path d="M 35.99,26.985 V 26 H 37 V 27 H 38 V 28 H 37 V 32.37 C 37,32.83 37.2,32.98 37.35,33 H 38 V 34 H 37.26 A 1.36,1.36 0 0,1 36,32.6 V 28 H 35 V 27 H 36 Z M 40.7,30.04 A 3.04,3.04 0 0,1 43.72,27 H 44.43 C 45.33,27 46.13,27.39 46.68,28 L 45.94,28.7 A 2.2,2.2 0 0,0 44.2,28 H 43.95 C 42.65,28 41.68,28.9 41.68,30.21 V 30.91 C 41.68,32.23 42.64,33 43.95,33 H 44.2 A 2.2,2.2 0 0,0 45.94,32.25 L 46.62,33.06 C 46.07,33.64 45.29,34 44.43,34 H 43.72 A 3.04,3.04 0 0,1 40.68,30.96 V 30.04 Z M 49.3,27 C 50.11,27.02 50.66,27.57 50.84,27.85 L 50.1,28.45 C 49.91,28.12 49.49,28.02 49.3,28 C 48.58,28 48.37,28.5 48.35,28.75 C 48.33,29 48.48,29.48 49.3,29.87 C 50.11,30.25 50.96,30.79 51,31.89 C 51.04,32.99 50.3,34.01 48.95,34 A 2.47,2.47 0 0,1 47,33.14 L 47.73,32.47 C 48.13,32.92 48.66,33.01 48.86,33 C 49.83,32.89 50.01,32.24 50,31.89 C 49.99,31.53 49.74,31.14 48.86,30.75 C 47.99,30.36 47.44,29.66 47.38,28.75 C 47.33,27.83 48.28,26.98 49.3,27 Z"/>
<path d="M 46.49,24.985 A 3.5,3.5 0 1,0 46.5,18 A 3.5,3.5 0 0,0 46.5,25 Z M 45.53,24.18 A 0.84,0.84 0 1,0 45.53,22.5 A 0.84,0.84 0 0,0 45.53,24.18 Z" fill="rgb(36, 169, 224)" fill-rule="evenodd"/>
<path d="M 30.61,20.095 C 30.78,19.19 30.7,18.45 30.62,18.11 A 3.5,3.5 0 0,0 29.05,19 C 29.23,19.22 29.76,19.7 30.62,20.11 Z M 30.5,20.7 A 4.9,4.9 0 0,1 28.62,19.51 A 3.5,3.5 0 0,0 31.09,25 C 30.12,22.73 30.26,21.83 30.49,20.7 Z M 31.04,20.91 A 6.48,6.48 0 0,1 34.12,23.83 C 33.54,24.48 32.72,24.92 31.81,25 A 6.56,6.56 0 0,1 31.04,20.91 Z M 34.53,23.26 C 33.15,21.15 32.33,20.81 31.21,20.36 C 31.2,20.36 31.18,20.36 31.16,20.34 C 31.41,19.14 31.38,18.41 31.27,18.01 L 31.5,18 A 3.5,3.5 0 0,1 34.53,23.26 Z" fill="rgb(236, 26, 34)"/>
<path d="M 38.99,24.985 A 3.5,3.5 0 1,0 39,18 A 3.5,3.5 0 0,0 39,25 Z M 39.52,19.77 A 0.5,0.5 0 1,0 39.17,19.65 L 39,20.11 A 1,1 0 0,0 37.86,21.05 L 37.14,21.18 A 0.5,0.5 0 1,0 37.19,21.54 L 37.92,21.42 A 1,1 0 0,0 38.33,21.93 L 38.16,22.41 H 38.09 A 0.84,0.84 0 1,0 38.55,22.55 L 38.72,22.07 A 1,1 0 0,0 39.85,21.09 L 40.5,20.99 A 0.62,0.62 0 1,0 40.44,20.61 L 39.78,20.72 A 1,1 0 0,0 39.36,20.23 L 39.52,19.77 Z" fill="rgb(99, 186, 68)" fill-rule="evenodd"/>
</svg>
