<?xml version="1.0" encoding="UTF-8"?>
<!-- generated by Finnhub -->
<svg viewBox="0 0 55.5 55.5" xmlns="http://www.w3.org/2000/svg">
<path d="M 0,0 H 55.5 V 55.5 H 0 Z" fill="rgb(33, 61, 120)"/>
<path d="M 21.99,35.985 C 20.798,36.894 17.242,38.5 16.004,39 C 17.761,40.074 20.172,39.995 21,40 C 25.063,39.136 30.187,36.992 32.199,36.028 C 33.991,35.004 38.466,32.158 42.025,28.966 C 45.583,25.773 47.49,22.3 48,20.963 C 45.922,23.487 43.26,25.846 42.19,26.711 C 43.715,24.597 43.981,23.44 44,23 C 42.847,24.266 40.154,26.475 38.876,27.548 C 40.086,26.03 40.874,24.496 41,24 C 39.675,25.355 37.115,27.289 36.118,28.006 C 37.128,27.049 37.511,25.96 37.577,25.535 C 35.917,27.188 32.623,29.908 31,31 H 33 C 33.209,31.151 33.632,31.452 33.707,31.516 C 33.783,31.581 34.13,31.639 34.295,31.66 C 34.874,31.87 34.77,32.668 34.62,33.092 C 34.571,32.795 34.417,32.677 34.346,32.655 H 33.134 L 31,34 C 28.596,33.041 23.132,26.784 20.62,23.66 C 17.035,19.366 15.717,14.098 15.506,12 C 13.903,15.226 15.594,20.01 16.639,21.998 C 14.552,20.145 13.802,16.232 13.687,14.506 C 12.043,17.23 14.127,22.18 15.374,24.314 C 13.877,23.137 12.642,20.209 12.211,18.892 C 11.411,22.118 13.986,25.866 15.374,27.337 C 13.898,26.291 12.51,23.981 12.001,23 C 11.937,26.465 18.767,33.13 22,36 Z" fill="rgb(254, 254, 253)"/>
</svg>
