<?xml version="1.0" encoding="UTF-8"?>
<!-- generated by Finnhub -->
<svg viewBox="0 0 55.5 55.5" xmlns="http://www.w3.org/2000/svg">
<path d="M 0,0 H 55.5 V 55.5 H 0 Z" fill="rgb(239, 242, 248)"/>
<path d="M 6.99,23.985 H 4 V 32 H 7 V 24 Z M 17.05,32 H 18.91 A 4.25,4.25 0 0,1 17,30.79 V 24 H 14 V 28.5 L 12.72,24 H 8 V 32 H 11 V 27.5 L 12.28,32 H 17 V 31.98 L 17.05,32 Z M 40,24 H 44.88 L 46,28.58 L 47.12,24 H 52 V 32 H 49 V 25.29 L 47.31,32 H 44.7 L 43,25.29 V 32 H 38.2 L 37.55,30 H 34.68 L 34.03,32 H 29 C 29,31 28.79,29.28 27.67,29.28 H 27 V 32 H 21.87 C 22.72,31.78 24.59,31.2 25.25,30.63 L 24.25,26.86 L 21.45,27.56 L 22.01,29.68 C 21.84,29.79 21.38,30.01 20.86,30.01 C 20.21,30.01 19,29.41 19,27.71 C 19,26.02 20.82,25.09 23.36,25.25 L 23.02,24 H 29.29 C 30.19,24.03 32,24.5 32,26.1 A 2.04,2.04 0 0,1 29.92,28.22 C 30.46,28.34 31.56,28.78 31.62,29.61 C 31.62,29.8 31.65,29.97 31.68,30.14 L 33.95,24 H 38.29 L 40,28.65 V 24 Z M 36.9,28 L 36.12,25.6 L 35.33,28 H 36.9 Z M 27,26 H 28.1 C 28.6,26 29,26.45 29,27 S 28.6,28 28.1,28 H 27 V 26 Z" fill="rgb(34, 116, 188)" fill-rule="evenodd"/>
</svg>
