<?xml version="1.0" encoding="UTF-8"?>
<!-- generated by Finnhub -->
<svg viewBox="0 0 55.5 55.5" xmlns="http://www.w3.org/2000/svg">
<path d="M 0,0 H 55.5 V 55.5 H 0 Z" fill="rgb(28, 42, 76)"/>
<path d="M 21.99,20.985 H 32 C 34.82,21 37,23.18 37,26 S 34.82,31 32,31 H 24 V 36 H 22 V 21 Z M 24,29 H 32 C 33.74,29 35,27.73 35,26 S 33.74,23 32,23 H 24 V 29 Z" fill="rgb(254, 254, 253)"/>
<path d="M 15.34,17.935 C 18.59,16.72 23.95,15 28.5,15 C 33.61,15 38.3,16.66 41.08,17.9 A 5.15,5.15 0 0,1 44,22.7 V 33.17 A 5.27,5.27 0 0,1 40.93,38.1 C 38.1,39.3 33.47,40.94 29.01,41 C 24.41,41.06 18.78,39.29 15.41,38.04 A 5.4,5.4 0 0,1 12,32.9 V 23.06 A 5.37,5.37 0 0,1 15.35,17.95 Z M 28.5,16.04 C 24.13,16.04 18.92,17.7 15.69,18.93 A 4.34,4.34 0 0,0 13,23.06 V 32.9 A 4.35,4.35 0 0,0 15.74,37.06 C 19.11,38.3 24.58,40.02 28.99,39.96 C 33.26,39.9 37.75,38.33 40.55,37.14 A 4.23,4.23 0 0,0 43,33.17 V 22.7 A 4.1,4.1 0 0,0 40.69,18.85 C 37.97,17.65 33.42,16.04 28.5,16.04 Z" fill="url(#b)"/>
<path d="M 39.410000000000004,38.695 C 39.97,38.51 40.47,38.29 40.93,38.1 A 5.27,5.27 0 0,0 44,33.17 V 22.7 A 5.15,5.15 0 0,0 41.08,17.9 C 38.3,16.66 33.61,15 28.5,15 H 28 V 16.05 L 28.5,16.04 C 33.42,16.04 37.97,17.64 40.69,18.85 A 4.1,4.1 0 0,1 43,22.7 V 33.17 C 43,34.92 42.07,36.49 40.55,37.14 C 39.96,37.39 39.3,37.65 38.58,37.92 L 39.42,38.71 Z" fill="url(#a)"/>
<defs>
<linearGradient id="b" x1="16" x2="34.5" y1="17.5" y2="40" gradientUnits="userSpaceOnUse">
<stop stop-color="rgb(195, 128, 147)" offset="0"/>
<stop stop-color="rgb(254, 204, 151)" offset=".35"/>
<stop stop-color="rgb(217, 216, 184)" offset="1"/>
</linearGradient>
<linearGradient id="a" x1="27.5" x2="39.8" y1="17.28" y2="37.03" gradientUnits="userSpaceOnUse">
<stop stop-color="rgb(228, 170, 149)" offset="0"/>
<stop stop-color="rgb(136, 105, 171)" offset=".24"/>
<stop stop-color="rgb(226, 241, 212)" offset="1"/>
</linearGradient>
</defs>
</svg>
