<?xml version="1.0" encoding="UTF-8"?>
<!-- generated by Finnhub -->
<svg viewBox="0 0 55.5 55.5" xmlns="http://www.w3.org/2000/svg">
<path d="M 0,0 H 55.5 V 55.5 H 0 Z" fill="rgb(1, 51, 100)"/>
<path d="M 19.66,12.235 A 10.09,10.09 0 0,0 12.97,17.55 A 9.83,9.83 0 0,0 12.02,22.85 C 12.21,26.74 14.06,30.05 17.49,31.71 C 19.58,32.71 20.99,32.97 25.01,32.97 H 28.44 L 28.32,32.55 C 28.12,31.85 27.67,31.58 26.35,31.36 C 23.53,30.89 21.95,28.89 21.95,26.63 C 21.95,25.41 22.24,24.66 23,23.89 C 25.18,21.71 28.35,22.95 29,26.13 C 29,26.13 28.93,29.71 29,33.29 V 38.17 C 29.02,38.97 29.28,40.32 29.64,41.05 C 30.95,43.65 34.27,44.4 37.08,43.81 A 5.9,5.9 0 0,0 40.19,42.21 C 42.63,39.83 42.59,34.88 40.13,32.58 C 38.9,31.44 38.13,30.98 35.63,30.98 C 33.6,30.98 33.49,31.02 33.49,31.34 C 33.49,32.01 33.98,32.45 34.85,32.56 C 36.6,32.79 36.84,32.87 37.45,33.43 C 39.75,35.5 38.55,38.96 35.5,38.96 C 31.76,38.96 32.03,31.76 32,28.79 V 21.67 C 31.98,19.9 31.4,17.97 30.48,16.5 C 28.28,13.04 23.91,11.31 19.68,12.25 Z" fill="rgb(254, 254, 253)"/>
</svg>
