<?xml version="1.0" encoding="UTF-8"?>
<!-- generated by Finnhub -->
<svg viewBox="0 0 55.5 55.5" xmlns="http://www.w3.org/2000/svg">
<path d="M 0,0 H 55.5 V 55.5 H 0 Z" fill="rgb(239, 242, 248)"/>
<path d="M 5.2700000000000005,26.985 H 8 L 6.72,33 H 4 L 5.28,27 Z M 40.5,27 H 43.22 L 41.93,33 H 39.22 L 40.5,27 Z M 10.89,24 H 13.63 L 18.12,29.43 L 19.26,24 H 22 L 20.11,33 H 17.37 L 12.93,27.33 L 11.74,33 H 9 L 10.89,24 Z M 37.04,24 H 40 L 37.96,33 H 35 L 37.04,24 Z M 5.9,24 H 8.45 L 8,26 H 5.45 L 5.9,24 Z" fill="rgb(254, 123, 34)"/>
<path d="M 41.99,26.985 H 51 L 50.64,29 H 42 V 27 Z M 41.39,24 H 52 L 51.65,26 H 41 L 41.39,24 Z" fill="rgb(254, 123, 34)"/>
<path d="M 30.7,22.985 L 29.67,23.59 L 29.53,23.48 A 1.11,1.11 0 0,0 28.03,23.8 L 24,29.88 L 24.23,30.02 A 1.5,1.5 0 1,0 26,31.5 V 33 H 32.2 A 0.8,0.8 0 0,0 33,32.19 V 31.81 A 0.8,0.8 0 0,0 32.2,31 H 26 V 31.5 C 26,31.3 25.96,31.1 25.88,30.91 L 29.86,24.91 C 29.92,24.81 29.96,24.72 29.99,24.63 L 30.03,24.8 C 30.08,25.02 29.9,25.35 29.74,25.65 C 29.62,25.87 29.51,26.08 29.51,26.22 C 29.51,26.52 30.55,27.02 30.71,27.02 C 30.84,27.02 30.98,26.74 31.04,26.6 C 30.73,26.46 30.11,26.12 30.11,25.9 C 30.11,25.64 30.83,24.91 31.16,24.91 C 31.48,24.91 32.24,25.03 32.24,25.41 C 32.24,25.71 31.86,26.05 31.68,26.18 L 32,26.45 C 32.33,26.15 33,25.51 33,25.3 C 33,25.08 32.12,24.57 31.68,24.34 L 30.7,23 Z M 24.5,32.4 A 0.9,0.9 0 1,0 24.5,30.6 A 0.9,0.9 0 0,0 24.5,32.4 Z M 24.5,32 A 0.5,0.5 0 1,0 24.5,31 A 0.5,0.5 0 0,0 24.5,32 Z" fill="rgb(254, 123, 34)" fill-rule="evenodd"/>
</svg>
