<?xml version="1.0" encoding="UTF-8"?>
<!-- generated by Finnhub -->
<svg viewBox="0 0 55.5 55.5" xmlns="http://www.w3.org/2000/svg">
<path d="M 0,0 H 55.5 V 55.5 H 0 Z" fill="rgb(239, 242, 248)"/>
<path d="M 24.56,37.845 C 24.57,40.76 27.85,43.83 29.49,45 C 24.69,43.5 22,40 22,36.37 S 25.24,27.73 31.06,23.47 C 38.04,18.35 38.36,13.03 37.66,11 C 38.11,11.6 39,13.22 39,14.84 C 39,18.99 35.87,22.94 32.85,25.92 C 26.92,32 24.57,34.24 24.57,37.86 Z" fill="rgb(61, 181, 204)"/>
<path d="M 38.980000000000004,17.405 C 40.98,19.05 42.54,21.15 43.47,23.55 A 15.45,15.45 0 0,0 39.15,16.4 C 39.12,16.73 39.06,17.07 38.99,17.42 Z M 36.72,15.89 A 15.72,15.72 0 0,0 29.08,13.93 C 20.6,13.93 13.73,20.56 13.73,28.73 A 14.8,14.8 0 0,0 23.03,42.33 A 15.6,15.6 0 0,1 12,27.56 C 12,18.96 19.16,12 28,12 C 31.36,12 34.48,13 37.05,14.73 C 37.03,15.06 36.94,15.46 36.72,15.89 Z" fill="rgb(67, 180, 209)"/>
<path d="M 43.99,27.884999999999998 C 44,33.12 41,37.67 36.57,40.05 A 13.44,13.44 0 0,0 42.49,28.85 C 42.49,25.12 40.99,21.73 38.56,19.31 C 38.73,18.73 38.91,18.06 39.03,17.43 A 13.64,13.64 0 0,1 44,27.9 Z M 36.83,15.9 A 14.9,14.9 0 0,0 29.5,14 C 21.5,14 15,20.22 15,27.9 C 15,32.66 17.5,36.86 21.3,39.37 C 18.25,36.92 16.3,33.12 16.3,28.86 C 16.3,21.47 22.16,15.49 29.4,15.49 C 31.75,15.49 33.96,16.12 35.87,17.23 C 36.35,16.78 36.65,16.33 36.83,15.9 Z" fill="rgb(11, 82, 159)"/>
<path d="M 24.59,18.985 A 7.84,7.84 0 0,0 23,23.36 C 23,24.67 23.61,26.15 24.96,28.23 L 26.61,26.37 C 24.89,24.11 24.01,21.91 24.61,19 Z M 29.5,29.65 L 29.75,30.15 L 27.84,32.27 L 29.43,34.36 C 30.61,35.85 32.33,38.18 32.33,40.31 C 32.33,42.43 30.93,44.88 27.93,47 C 29.75,46.68 35,44.45 35,39.67 C 35,37.03 32.89,33.24 29.5,29.65 Z" fill="rgb(108, 187, 34)"/>
<circle cx="29" cy="21" r="2" fill="rgb(108, 187, 34)"/>
</svg>
