<?xml version="1.0" encoding="UTF-8"?>
<!-- generated by Finnhub -->
<svg viewBox="0 0 55.5 55.5" xmlns="http://www.w3.org/2000/svg">
<path d="M 0,0 H 55.5 V 55.5 H 0 Z" fill="rgb(13, 43, 76)"/>
<path d="M 5.99,21.585 H 8 V 23 H 6 V 21.6 Z M 6,24 H 8 V 30 H 6 V 24 Z M 9,24 H 11 V 24.61 C 11.42,24.23 12,24 12.65,24 C 13.95,24 15,24.95 15,26.12 V 30 H 13 V 26.51 A 1,1 0 0,0 12,25.5 A 1,1 0 0,0 11,26.51 V 30 H 9 V 24 Z M 18,24 H 16 V 30 H 18 V 26.51 A 1,1 0 0,1 19,25.5 A 1,1 0 0,1 20,26.51 V 30 H 22 V 27 A 3,3 0 1,0 28,26.79 L 29.13,30 H 30.75 L 33,24 H 31.08 L 29.98,27.6 L 28.92,24 H 27 L 27.45,25.27 A 3,3 0 0,0 22,27 V 26.13 C 22,24.96 20.95,24.01 19.65,24.01 C 19.01,24.01 18.42,24.24 18,24.62 V 24 Z M 26.5,27 A 1.5,1.5 0 1,1 23.5,27 A 1.5,1.5 0 0,1 26.5,27 Z M 33.62,24 L 30.5,32 H 32.7 L 33.03,31 H 35.93 L 36.26,32 H 38.5 L 37.98,30.63 A 3,3 0 0,0 42,31.6 V 32.31 C 41.99,32.57 41.85,33.43 40.75,33.43 C 40.42,33.41 39.85,33.31 39.75,33 H 37.65 C 37.81,33.73 38.63,35 40.61,35 C 43.08,35 44.01,33.83 44.01,32 L 44,31.86 V 29 A 3,3 0 0,0 49.83,30 H 47.96 A 1.38,1.38 0 0,1 45.71,29.5 H 49.96 A 3,3 0 1,0 44,29 V 26 H 42 V 26.4 A 3,3 0 0,0 37.53,29.45 L 35.46,24 H 33.62 Z M 34.48,26.6 L 35.27,29 H 33.69 L 34.48,26.6 Z M 42,29.04 C 42,29.9 41.33,30.59 40.5,30.59 S 39,29.89 39,29.04 C 39,28.19 39.67,27.5 40.5,27.5 S 42,28.2 42,29.04 Z M 47,27.62 C 46.41,27.62 45.91,27.98 45.7,28.5 H 48.3 C 48.09,27.98 47.59,27.62 47,27.62 Z" fill="rgb(254, 252, 252)" fill-rule="evenodd"/>
</svg>
