<?xml version="1.0" encoding="UTF-8"?>
<!-- generated by Finnhub -->
<svg viewBox="0 0 55.5 55.5" xmlns="http://www.w3.org/2000/svg">
<path d="M 0,0 H 55.5 V 55.5 H 0 Z" fill="rgb(36, 52, 79)"/>
<path d="M 21.74,44.845 C 22.64,45.08 24.33,45.15 26.15,44.23 C 28.8,42.9 30,38.5 30,34.08 V 17.68 C 29.94,16.31 30.12,13.63 31.99,13.29 C 31.97,13.39 31.97,13.49 31.97,13.58 C 31.97,14.75 32.87,15.71 33.98,15.71 C 35.1,15.71 36,14.75 36,13.58 C 36,12.73 35.54,12 34.86,11.66 V 11.63 A 5.01,5.01 0 0,0 29.92,11.69 C 27.25,13.26 26,16.6 26,21.5 V 35.37 C 26,38.15 25.85,42.39 24.03,42.84 V 42.7 C 24.03,41.5 23.13,40.53 22.02,40.53 C 20.9,40.53 20,41.5 20,42.7 C 20,43.8 20.76,44.7 21.75,44.85 Z" fill="rgb(254, 254, 253)"/>
</svg>
