<?xml version="1.0" encoding="UTF-8"?>
<!-- generated by Finnhub -->
<svg viewBox="0 0 55.5 55.5" xmlns="http://www.w3.org/2000/svg">
<path d="M 0,0 H 55.5 V 55.5 H 0 Z" fill="rgb(239, 242, 248)"/>
<path d="M 32.65,26.134999999999998 L 32.41,26.08 L 32.79,24.73 H 32.95 C 32.96,24.97 33.25,25 33.39,25 H 37.58 C 37.92,25 38.08,24.82 38.11,24.73 H 38.28 L 38.11,26.15 H 37.88 C 37.91,25.45 37.41,25.27 37.16,25.27 H 36.2 C 36.07,25.32 36,25.46 36,25.62 V 30.36 C 36,30.56 36.12,30.73 36.33,30.73 H 36.73 V 31 H 34.21 V 30.73 H 34.62 C 34.83,30.73 35,30.57 35,30.36 V 25.62 C 35,25.46 34.9,25.32 34.76,25.27 H 33.76 C 33.06,25.27 32.74,25.86 32.66,26.15 Z M 4,25.25 V 25 H 6.74 V 25.25 H 6.34 C 6.12,25.25 6,25.41 6,25.62 V 30.36 C 6,30.56 6.12,30.73 6.33,30.73 H 6.74 V 31 H 4 V 30.73 H 4.63 C 4.83,30.73 5,30.57 5,30.36 V 25.62 C 5,25.42 4.83,25.25 4.63,25.25 H 4 Z M 21.18,25.25 V 25 H 23.78 V 25.25 H 23.34 C 23.11,25.25 23,25.41 23,25.62 V 30.36 C 23,30.56 23.11,30.73 23.34,30.73 H 23.78 V 31 H 21.18 V 30.73 H 21.64 C 21.86,30.73 22,30.57 22,30.36 V 25.62 C 22,25.42 21.86,25.25 21.64,25.25 H 21.18 Z M 29.18,25 V 25.25 H 29.63 C 29.86,25.25 30,25.41 30,25.62 V 30.36 C 30,30.56 29.86,30.73 29.63,30.73 H 29.17 V 31 H 31.81 V 30.73 H 31.36 C 31.13,30.73 31,30.57 31,30.36 V 25.62 C 31,25.42 31.13,25.25 31.36,25.25 H 31.81 V 25 H 29.17 Z M 7.24,31 V 30.78 H 7.48 C 7.75,30.78 7.99,30.57 7.99,30.3 V 25.66 L 7.66,25.36 A 0.38,0.38 0 0,0 7.39,25.25 H 7.09 V 25 H 8.55 L 12.55,29.66 V 25.83 A 0.59,0.59 0 0,0 11.95,25.25 H 11.61 V 25 H 13.74 V 25.25 H 13.53 C 13.2,25.25 12.99,25.51 12.99,25.83 V 31 H 12.7 L 8.43,26.17 V 30.3 C 8.43,30.57 8.65,30.78 8.92,30.78 H 9.32 V 31 H 7.25 Z M 14.23,25 V 25.25 H 14.65 C 14.85,25.25 14.99,25.41 14.99,25.62 V 30.36 C 14.99,30.56 14.86,30.73 14.65,30.73 H 14.23 V 31 H 16.63 V 30.73 H 16.22 C 16.02,30.73 15.99,30.57 15.99,30.36 V 28 H 18.99 V 30.36 C 18.99,30.56 18.84,30.73 18.6,30.73 H 18.13 V 31 H 20.84 V 30.73 H 20.38 C 20.14,30.73 19.99,30.57 19.99,30.36 V 25.62 C 19.99,25.42 20.14,25.25 20.38,25.25 H 20.84 V 25 H 18.14 V 25.25 H 18.6 C 18.84,25.25 18.99,25.41 18.99,25.62 V 27.5 H 15.99 V 25.62 C 15.99,25.42 16.01,25.25 16.22,25.25 H 16.62 V 25 H 14.22 Z M 46.16,30.74 V 31 H 48.69 V 30.74 H 48.44 C 48.17,30.74 47.99,30.53 47.99,30.26 V 28.26 H 48.49 C 48.56,28.29 48.62,28.34 48.66,28.4 L 49.8,30.08 C 50.04,30.38 50.7,31 51.4,31 C 51.57,31 51.87,30.95 51.99,30.92 V 30.8 A 1.51,1.51 0 0,1 51.02,30.3 C 50.72,29.95 49.88,28.73 49.43,28.06 C 49.98,27.84 50.49,27.4 50.49,26.53 C 50.49,25.31 49.43,25 48.86,25 H 46.25 V 25.34 H 46.61 C 46.79,25.34 46.99,25.49 46.99,25.66 V 30.26 C 46.99,30.53 46.72,30.74 46.45,30.74 H 46.16 Z M 48,27.93 V 25.49 C 48,25.42 48.06,25.29 48.26,25.29 H 48.59 C 48.86,25.29 49.5,25.72 49.5,26.63 C 49.5,27.77 48.88,28.13 48,27.93 Z M 24.38,25 V 25.24 H 24.72 C 24.97,25.24 25,25.43 25,25.66 V 30.36 C 25,30.59 24.97,30.78 24.72,30.78 H 24.38 V 31 H 26.87 C 27.85,31 29.36,30.64 29.36,29.28 C 29.36,28.18 28.37,27.76 27.88,27.69 V 27.63 C 28.2,27.51 28.84,27.09 28.84,26.37 C 28.84,25.27 27.72,25 27.15,25 H 24.38 Z M 26,27.44 V 25.5 C 26,25.43 26.06,25.3 26.34,25.3 H 26.36 C 26.74,25.3 28,25.3 28,26.5 C 28,27.59 26.9,27.65 26.23,27.66 C 26.1,27.66 26,27.56 26,27.44 Z M 26,28 V 30.02 C 26.02,30.26 26.2,30.75 26.9,30.75 C 27.76,30.75 28.46,30.51 28.46,29.25 C 28.46,28.35 27.36,28 26.84,28 H 26 Z" fill="rgb(8, 112, 204)" fill-rule="evenodd"/>
<path d="M 43.550000000000004,29.995 C 44.69,30.01 45.61,29.15 45.61,28.1 C 45.61,27.04 44.69,26.18 43.56,26.18 S 41.52,27.04 41.52,28.1 C 41.52,29.15 42.43,30.01 43.56,30.01 Z M 43.56,29.8 C 44.66,29.8 45.01,29.04 45.01,28.1 S 44.36,26.4 43.56,26.4 C 42.5,26.4 42.12,27.16 42.12,28.1 S 42.77,29.8 43.56,29.8 Z" fill="rgb(51, 127, 109)" fill-rule="evenodd"/>
<path d="M 43.080000000000005,30.735 A 2.63,2.63 0 0,0 45.74,28.14 A 2.63,2.63 0 0,0 43.09,25.53 A 2.63,2.63 0 0,0 40.44,28.13 A 2.63,2.63 0 0,0 43.09,30.75 Z M 43.09,30.46 C 44.51,30.46 44.96,29.42 44.96,28.14 S 44.12,25.82 43.09,25.82 C 41.72,25.82 41.22,26.86 41.22,28.14 S 42.06,30.46 43.09,30.46 Z" fill="rgb(25, 138, 112)" fill-rule="evenodd"/>
<path d="M 42.49,31.485 A 3.5,3.5 0 1,0 42.5,24.5 A 3.5,3.5 0 0,0 42.5,31.5 Z M 42.5,31.11 C 44.37,31.11 44.97,29.71 44.97,28 C 44.97,26.28 43.87,24.89 42.5,24.89 C 40.69,24.89 40.03,26.29 40.03,28 C 40.03,29.72 41.13,31.11 42.5,31.11 Z" fill="rgb(1, 150, 116)" fill-rule="evenodd"/>
</svg>
