<?xml version="1.0" encoding="UTF-8"?>
<!-- generated by Finnhub -->
<svg viewBox="0 0 55.5 55.5" xmlns="http://www.w3.org/2000/svg">
<path d="M 0,0 H 55.5 V 55.5 H 0 Z" fill="rgb(110, 32, 56)"/>
<path d="M 34.49,31.985 L 32,26 H 33 L 35,31 L 37,26 H 38 L 35.5,32 H 34.5 Z M 43.5,32 L 41,26 H 42 L 44,31 L 46,26 H 47 L 44.5,32 H 43.5 Z M 49.5,26 L 47,32 H 48 L 50,27 L 52,32 H 53 L 50.5,26 H 49.5 Z M 24,27 L 27.326,25 V 26 L 25,27.459 V 30.496 L 27.326,32 V 33 L 24,31 V 27 Z" fill="rgb(254, 254, 253)"/>
<path d="M 30.99,26.985 L 27.674,25 V 26 L 30,27.459 V 30.496 L 27.674,32 V 33 L 31,31 V 27 Z" fill="rgb(211, 162, 35)"/>
<path d="M 4.99,25.985 H 6 V 32 H 5 Z M 39,26 H 40 V 32 H 39 Z M 8,32 V 26 H 9.017 L 13.008,30.455 V 26 H 14 V 32 H 13.008 L 9.017,27.59 V 32 H 8 Z M 16,32 V 26 H 17.017 L 21.008,30.455 V 26 H 22 V 32 H 21.008 L 17.017,27.59 V 32 H 16 Z" fill="rgb(254, 254, 253)"/>
</svg>
