<?xml version="1.0" encoding="UTF-8"?>
<!-- generated by Finnhub -->
<svg viewBox="0 0 55.5 55.5" xmlns="http://www.w3.org/2000/svg">
<path d="M 0,0 H 55.5 V 55.5 H 0 Z" fill="rgb(239, 242, 248)"/>
<path d="M 21.99,12.985 H 13 V 22 H 22 V 13 Z M 16,33.25 C 16,32.85 16,32.5 15.5,32.5 H 13 V 23.5 H 22 V 32.5 H 19.5 C 19,32.5 19,33.08 19,33.25 C 19,33.92 19.23,33.99 19.4,34 H 22 V 36.5 C 22,37 22.25,37 22.75,37 C 23.5,37 23.5,36.67 23.5,36.5 V 34 H 32.5 V 43 H 23.5 V 40.5 C 23.5,40 22.92,40 22.75,40 C 22.08,40 22.01,40.23 22,40.4 V 43 H 13 V 34 H 15.5 C 16,34 16,33.5 16,33.25 Z M 23.5,13 H 32.5 V 22 H 23.5 V 13 Z M 43,13 H 34 V 22 H 43 V 13 Z M 32.5,23.5 H 23.5 V 32.5 H 32.5 V 23.5 Z M 34,23.5 H 43 V 32.5 H 34 V 23.5 Z M 43,34 H 34 V 43 H 43 V 34 Z" fill="url(#a)"/>
<defs>
<linearGradient id="a" x1="39.5" x2="16.5" y1="15.5" y2="40.5" gradientUnits="userSpaceOnUse">
<stop stop-color="rgb(161, 200, 229)" offset="0"/>
<stop stop-color="rgb(89, 125, 150)" offset="1"/>
</linearGradient>
</defs>
</svg>
