<?xml version="1.0" encoding="UTF-8"?>
<!-- generated by Finnhub -->
<svg viewBox="0 0 55.5 55.5" xmlns="http://www.w3.org/2000/svg">
<path d="M 0,0 H 55.5 V 55.5 H 0 Z" fill="rgb(239, 242, 248)"/>
<path d="M 8.99,22.985 H 13 V 37 H 9 Z" fill="rgb(27, 48, 74)"/>
<circle cx="11" cy="20" r="2" fill="rgb(27, 48, 74)"/>
<path d="M 24.49,17.985 A 9.5,9.5 0 1,1 24.5,37 A 9.5,9.5 0 0,1 24.5,18 Z M 24.5,22 A 5.5,5.5 0 1,0 24.5,33 A 5.5,5.5 0 0,0 24.5,22 Z" fill="rgb(27, 48, 74)"/>
<path d="M 47.15,26.985 C 47.78,27.42 49,28.87 49,31.26 C 49,34.26 46.52,37 42.04,37 S 35.73,34.43 35,31.05 H 38.59 C 38.76,31.95 39.68,34 42.03,34 C 44.29,34 45.33,32.44 45.33,31.05 C 45.33,30.38 45.16,29.9 45.07,29.75 L 47.17,27 Z M 48,18.98 C 48,19.43 47.84,19.72 47.2,20.58 C 46.68,21.28 43.18,25.81 41.5,28 L 39.57,25.5 L 42.97,21 H 36 V 18 H 48 V 18.98 Z" fill="url(#a)"/>
<defs>
<linearGradient id="a" x1="42.21" x2="42.21" y1="18.33" y2="36.3" gradientUnits="userSpaceOnUse">
<stop stop-color="rgb(54, 90, 165)" offset=".05"/>
<stop stop-color="rgb(28, 188, 187)" offset=".86"/>
</linearGradient>
</defs>
</svg>
