<?xml version="1.0" encoding="UTF-8"?>
<!-- generated by Finnhub -->
<svg viewBox="0 0 55.5 55.5" xmlns="http://www.w3.org/2000/svg">
<path d="M 0,0 H 55.5 V 55.5 H 0 Z" fill="rgb(239, 242, 248)"/>
<path d="M 4.002,31.985 C 3.996,32 3.996,31.691 4.012,31.691 H 5 C 5,31.726 5.017,31.691 5,31.691 V 23.291 C 5.033,23.291 5,23.257 5,23.291 H 4.012 C 3.996,23.291 3.996,23 4.012,23 H 7.988 C 8.004,23 8.004,23.309 7.988,23.309 H 7 C 7,23.274 6.95,23.309 7,23.309 V 31.691 C 6.95,31.691 7,31.726 7,31.691 H 7.988 C 8.004,31.691 8.004,32 7.988,32 H 4.012 Z M 24,23.044 L 21.075,31.975 C 21.058,32.008 20.791,32.008 20.775,31.975 L 17.249,23.377 C 17.232,23.344 17.216,23.327 17.149,23.327 H 16.012 C 15.996,23.327 15.996,23.027 16.012,23.027 H 20.323 C 20.34,23.027 20.34,23.327 20.323,23.327 H 19.171 C 19.137,23.327 19.104,23.344 19.121,23.377 L 21.593,29.576 L 23.732,23.044 C 23.749,22.977 24.016,22.994 23.999,23.044 Z M 36.99,23 L 34.553,23.025 C 34.505,23 34.505,23.32 34.553,23.32 H 35.544 C 35.594,23.32 35.609,23.336 35.609,23.37 V 28.916 L 32.265,23.222 C 32.184,23.057 32.103,23 32.021,23 H 29 V 23.304 H 30.088 C 30.153,23.304 30.153,23.32 30.153,23.353 V 31.672 C 30.153,31.705 30.153,31.721 30.088,31.721 H 29.308 C 29.26,31.721 29.228,31.705 29.228,31.705 L 26.268,23.025 C 26.252,22.992 26.008,22.992 25.992,23.025 L 23.003,32 C 22.987,32.033 23.247,32.033 23.263,32 L 24.205,29.064 H 26.675 L 27.408,31.688 C 27.424,31.688 27.391,31.705 27.359,31.705 H 26.369 C 26.352,31.705 26.352,32 26.369,32 H 31.55 C 31.567,32 31.567,31.705 31.55,31.705 H 30.527 C 30.478,31.705 30.478,31.688 30.478,31.655 V 23.501 L 35.626,31.969 C 35.658,32.019 35.918,32.002 35.918,31.969 V 23.353 C 35.918,23.32 35.934,23.303 35.983,23.303 H 36.99 C 37.007,23.303 37.007,23 36.99,23 Z M 24.303,28.769 L 25.473,25.273 L 26.577,28.769 H 24.303 Z M 43.71,31.967 C 43.694,31.82 43.522,31.607 43.179,31.607 C 42.613,31.607 41.686,32 41,32 C 38.718,32 37.002,29.905 37.002,27.5 S 38.65,23 40.932,23 C 41.515,23 42.562,23.295 43.127,23.295 C 43.471,23.295 43.694,23.131 43.727,23 C 43.727,22.984 44.002,22.984 44.002,23 V 26 C 44.002,26.017 43.728,26.017 43.728,26 C 43.728,24.806 42.132,23.295 40.931,23.295 C 40.382,23.295 40.039,23.409 39.713,23.736 C 39.181,24.293 39,25.487 39,27.516 C 39,29.546 39.181,30.724 39.713,31.28 C 40.039,31.624 40.451,31.722 41,31.722 C 42.458,31.722 43.71,30.587 43.71,29 C 43.71,28.984 44.002,28.984 44.002,29 V 31.967 H 43.711 Z M 51.967,32 H 45.013 C 44.996,32 44.996,31.692 45.013,31.692 H 46 C 46,31.726 46.033,31.692 46,31.692 V 23.308 C 46.05,23.308 46,23.274 46,23.308 H 45.013 C 44.996,23.308 44.996,23 45.013,23 H 51.331 C 51.398,23 51.398,23.017 51.398,23.034 V 26 C 51.398,26.017 51.098,26.017 51.098,26 C 51.098,24.82 50.496,23.308 49.025,23.308 H 48 C 48,23.274 47.933,23.308 48,23.308 V 27.226 H 48.088 C 49.025,27.226 49.75,26.873 49.75,26 C 49.75,25.983 50,25.983 50,26 V 29 C 50,29.017 49.75,29.017 49.75,29 C 49.75,28.145 49.041,27.517 48.088,27.517 H 48 V 31.675 C 47.933,31.675 48,31.709 48,31.675 H 49.075 C 51.014,31.675 51.732,30.3 51.732,29 C 51.732,28.983 52,28.983 52,29 V 31.932 C 52,31.982 51.983,32 51.967,32 Z" fill="rgb(2, 59, 88)"/>
<path d="M 13.804,30.442 A 3.325,3.325 0 0,1 9.688,27.229 C 9.688,26.832 9.768,26.435 9.896,26.085 C 9.88,26.196 9.88,26.307 9.88,26.435 C 9.864,28.613 11.632,30.394 13.814,30.458 Z" fill="rgb(129, 188, 63)"/>
<path d="M 13.47,30.808 A 3.325,3.325 0 0,1 9.354,27.595 C 9.354,27.198 9.434,26.8 9.561,26.45 C 9.545,26.561 9.545,26.673 9.545,26.8 C 9.545,28.978 11.297,30.76 13.48,30.823 Z" fill="rgb(160, 204, 111)"/>
<path d="M 13.151,31.174 A 3.309,3.309 0 0,1 12.365,31.284 A 3.328,3.328 0 0,1 9.02,27.961 C 9.02,27.564 9.1,27.166 9.227,26.816 C 9.211,26.927 9.211,27.039 9.211,27.166 A 4.036,4.036 0 0,0 13.161,31.189 Z" fill="rgb(192, 221, 158)"/>
<path d="M 12.817,31.445 A 3.325,3.325 0 0,1 8.7,28.231 C 8.7,27.833 8.78,27.435 8.907,27.085 C 8.891,27.197 8.891,27.308 8.891,27.435 C 8.875,29.614 10.628,31.395 12.826,31.458 Z" fill="rgb(223, 237, 206)"/>
<path d="M 12.482000000000001,31.762999999999998 A 3.325,3.325 0 0,1 8.366,28.55 C 8.366,28.152 8.446,27.755 8.573,27.405 C 8.557,27.516 8.557,27.627 8.557,27.755 C 8.541,29.933 10.31,31.714 12.492,31.778 Z" fill="rgb(235, 244, 225)"/>
<path d="M 16.99,27.485 A 4.51,4.51 0 0,1 12.492,32 H 12.38 A 3.701,3.701 0 0,0 11.488,24.701 A 3.722,3.722 0 0,0 8,27.118 A 4.506,4.506 0 0,1 12.492,23 A 4.51,4.51 0 0,1 17,27.5 Z" fill="rgb(2, 59, 88)"/>
</svg>
