<?xml version="1.0" encoding="UTF-8"?>
<!-- generated by Finnhub -->
<svg viewBox="0 0 55.5 55.5" xmlns="http://www.w3.org/2000/svg">
<path d="M 0,0 H 55.5 V 55.5 H 0 Z" fill="url(#a)"/>
<path d="M 4.48,30.985 H 4 V 27 H 4.49 V 31 Z M 7,27 V 27.786 C 7.141,27.547 7.28,27.313 7.49,27.189 C 7.7,27.063 7.934,27 8.188,27 C 8.591,27 8.935,27.123 9.131,27.357 C 9.328,27.591 9.416,27.994 9.418,28.461 V 31 H 9.005 V 28.457 C 9.002,28.112 8.943,27.802 8.801,27.632 C 8.662,27.463 8.396,27.372 8.088,27.372 C 7.831,27.372 7.602,27.455 7.403,27.622 C 7.206,27.787 7.093,28.062 6.997,28.344 V 31 H 6.584 V 27 H 7 Z M 11.786,26 V 27 H 12.564 V 27.357 H 11.786 V 29.983 C 11.786,30.198 11.823,30.358 11.897,30.463 C 11.974,30.567 12.1,30.62 12.276,30.62 C 12.346,30.62 12.458,30.608 12.613,30.584 L 12.63,30.934 C 12.521,30.975 12.373,30.995 12.185,30.995 C 11.901,30.995 11.693,30.911 11.564,30.741 C 11.434,30.57 11.369,30.318 11.369,29.987 V 27.357 H 10.678 V 27 H 11.369 V 26 H 11.786 Z M 15.587,31 C 14.503,31 14,30.023 14,29 C 14,28.072 14.467,27 15.492,27 C 16.433,27 17.002,27.92 17.002,28.776 V 29 H 14.417 C 14.417,29.792 14.643,30.654 15.604,30.654 C 16.051,30.654 16.38,30.494 16.657,30.128 L 16.917,30.332 C 16.627,30.742 16.168,31 15.587,31 Z M 15.492,27.365 C 14.825,27.373 14.491,28.017 14.417,28.651 H 16.587 C 16.587,28.035 16.159,27.357 15.492,27.365 Z M 20.32,27.436 A 1.508,1.508 0 0,0 20.039,27.411 C 19.779,27.411 19.559,27.486 19.379,27.637 C 19.201,27.784 19.076,28.055 18.999,28.338 V 30.995 H 18.586 V 27 H 18.992 L 18.999,27.741 C 19.217,27.229 19.57,27 20.056,27 C 20.172,27 20.264,27.015 20.331,27.047 L 20.321,27.437 Z M 25,29 C 25,29.99 24.57,31.008 23.624,31.008 C 23.167,31.008 22.894,30.859 22.633,30.561 V 32.998 H 22 V 27 L 22.609,26.996 V 27.496 C 22.87,27.163 23.194,26.996 23.66,26.996 C 24.693,27 25,28.009 25,28.999 Z M 24.376,28.985 C 24.376,28.249 24.264,27.558 23.508,27.558 C 23.119,27.558 22.828,27.735 22.633,28.09 V 29.94 C 22.825,30.292 23.119,30.468 23.515,30.468 C 24.135,30.468 24.376,29.721 24.376,28.985 Z M 28.322,31 C 28.285,30.924 28.255,30.718 28.232,30.522 C 27.933,30.842 27.682,31 27.268,31 C 26.602,31 26,30.55 26,29.846 C 26,29.036 26.522,28.584 27.596,28.584 H 28.222 V 28.28 C 28.222,27.815 27.947,27.522 27.426,27.522 C 27.003,27.517 26.616,27.695 26.616,28 H 26 C 26,27.314 26.802,27 27.464,27 C 28.328,27 28.846,27.46 28.864,28.244 V 30.024 C 28.864,30.38 28.908,30.79 28.996,31 H 28.322 Z M 27.362,30.415 C 27.752,30.415 28.052,30.205 28.222,29.846 V 29.052 C 27.646,29.052 26.642,28.935 26.642,29.753 C 26.642,30.168 26.94,30.415 27.362,30.415 Z M 32.175,27.665 A 1.87,1.87 0 0,0 31.859,27.64 C 31.437,27.64 31.151,27.825 31,28.194 V 31 H 30.358 V 27 H 31 V 27.518 C 31.21,27.173 31.503,27 31.89,27 A 0.64,0.64 0 0,1 32.175,27.05 V 27.665 Z M 34,31 V 27.518 H 33.417 V 27 H 34 V 26.673 C 34,26.258 34.119,25.937 34.334,25.711 C 34.674,25.354 35.234,25.306 35.689,25.432 L 35.654,26 C 35.109,25.892 34.654,26.04 34.654,26.662 V 27 H 35.456 V 27.518 H 34.654 V 31 H 34 Z M 39.622,30.487 C 39.372,30.789 38.999,31 38.514,31 C 37.564,31 37.004,30.485 37,29.517 V 27 H 37.653 V 29.5 C 37.653,30.086 38.129,30.439 38.619,30.439 S 39.443,30.191 39.605,29.814 V 27 H 40.248 V 31 H 39.636 L 39.622,30.487 Z M 42.635,27 L 42.652,27.499 C 42.928,27.165 43.456,26.999 43.924,26.999 C 44.45,26.999 44.866,27.207 45.056,27.622 C 45.359,27.172 45.883,26.998 46.41,26.998 C 47.235,26.998 47.654,27.448 47.668,28.346 V 31 H 47 V 28.386 C 47,27.861 46.77,27.56 46.223,27.56 C 45.692,27.56 45.256,27.818 45.199,28.373 V 31 H 44.553 V 28.405 C 44.553,27.843 44.285,27.561 43.75,27.561 C 43.329,27.561 42.825,27.744 42.67,28.114 V 31 H 42 V 27 H 42.635 Z M 51.357,29.913 C 51.357,29.448 50.844,29.321 50.475,29.241 C 49.884,29.11 49.141,28.858 49.141,28.131 C 49.141,27.395 49.871,26.998 50.531,26.998 C 50.957,26.998 51.301,27.111 51.566,27.338 C 51.832,27.564 52,27.854 52,28.207 H 51.357 C 51.357,27.8 50.887,27.542 50.531,27.542 C 50.063,27.542 49.784,27.772 49.784,28.11 C 49.784,28.538 50.305,28.629 50.631,28.704 C 51.251,28.846 52.001,29.111 52.001,29.866 C 52.001,30.651 51.245,31.011 50.551,31.011 C 49.825,31.011 49,30.558 49,29.748 H 49.645 C 49.668,30.192 50.024,30.471 50.551,30.471 C 51.042,30.471 51.357,30.248 51.357,29.913 Z M 4,26 H 4.482 V 26.598 H 4 Z" fill="rgb(254, 254, 253)"/>
<defs>
<linearGradient id="a" x1="10.418" x2="68.147" y1="9.712" y2="76.017" gradientUnits="userSpaceOnUse">
<stop stop-color="rgb(25, 29, 31)" offset="0"/>
<stop stop-color="rgb(5, 5, 8)" offset="1"/>
</linearGradient>
</defs>
</svg>
