<?xml version="1.0" encoding="UTF-8"?>
<!-- generated by Finnhub -->
<svg viewBox="0 0 55.5 55.5" xmlns="http://www.w3.org/2000/svg">
<rect width="56" height="56" fill="rgb(239, 242, 248)"/>
<path d="M 33.29,20.985 C 33.3,15.8637 29.1363,11.7 24,11.7 S 14.7,15.8637 14.7,21 C 14.7,26.1363 18.8637,30.3 24,30.3 S 33.3,26.1363 33.3,21 Z M 34,21 C 34,15.4771 29.5229,11 24,11 S 14,15.4771 14,21 S 18.4771,31 24,31 S 34,26.5229 34,21 Z" clip-rule="evenodd" fill="rgb(110, 110, 109)" fill-rule="evenodd"/>
<path d="M 41.29,34.985 C 41.3,29.8637 37.1363,25.7 32,25.7 S 22.7,29.8637 22.7,35 S 26.8637,44.3 32,44.3 S 41.3,40.1363 41.3,35 Z M 42,35 C 42,29.4771 37.5229,25 32,25 S 22,29.4771 22,35 S 26.4771,45 32,45 S 42,40.5229 42,35 Z" clip-rule="evenodd" fill="rgb(110, 110, 109)" fill-rule="evenodd"/>
<path d="M 23.057,18.002 S 17.9998,18.7866 17.9998,22.298 C 17.9998,23.4212 18.9998,23.7046 18.9998,24.7512 C 18.9998,25.3748 18.3473,25.9816 17.588,26.6877 C 16.5317,27.6699 14.9998,28.8443 14.9998,30.5235 C 14.9998,33.4096 17.8234,36.0003 20.6469,36.0003 C 20.8097,36.0003 20.9714,36 21.1316,35.9997 C 23.75,35.9945 26.0927,35.9019 26.9004,37.3071 C 27.7576,38.7983 29.7728,39.9996 32.3947,39.9996 C 35.0166,39.9996 38.9998,38.7971 38.9998,34.8046 C 38.9998,31.3208 34.5124,29.9943 33.2519,29.9943 C 32.7389,29.9943 32.0645,29.9974 31.385,29.9943 C 30.395,29.9899 29.394,29.8447 28.8653,28.5994 C 28.1965,27.024 27.045,26.0745 25.6452,25.1842 C 25.2223,24.9152 25.0292,24.5732 24.9998,24.2359 C 24.966,23.8493 25.1472,23.4689 25.4434,23.212 C 25.998,22.7309 27.0503,21.8651 27.0503,20.5663 C 27.0503,19.2676 25.1847,17.8246 23.067,18.017 Z M 24.7882,22.4565 C 25.2808,22.0292 26.0503,21.4175 26.0503,20.5663 C 26.0503,19.4031 24.022,18.9416 23.1846,19.0105 L 23.1626,19.0139 C 23.1292,19.0193 23.0773,19.0279 23.0097,19.0404 C 21.1915,19.3749 18.9998,20.1115 18.9998,22.298 C 18.9998,23.2141 19.9998,23.7476 19.9998,24.7512 C 19.9998,25.5285 19.5259,26.1422 19.1575,26.5483 C 18.8932,26.8396 18.5498,27.1591 18.2271,27.4594 C 18.0871,27.5897 17.951,27.7163 17.827,27.8355 C 16.8989,28.7269 15.9998,29.5361 15.9998,30.5235 C 15.9998,32.7356 18.2455,35.0003 20.6469,35.0003 C 20.8072,35.0003 20.9684,35 21.1298,34.9996 C 23.0069,34.9952 26.9998,34.9996 27.6651,36.567 C 28.3374,37.7367 30.1177,38.9996 32.3947,38.9996 C 34.9607,38.9996 37.9998,37.7761 37.9998,34.8046 C 37.9998,32.9996 35.2346,30.9943 33.2519,30.9943 C 32.61,30.9943 31.9746,31.0021 31.3308,30.9943 C 29.836,30.9763 28.5428,30.3987 27.9449,28.9902 C 27.3564,27.604 26.3358,26.8084 25.1085,26.028 C 24.4625,25.6171 24.0638,25.014 24.0036,24.3227 C 23.9377,23.5681 24.2897,22.8889 24.7882,22.4565 Z" clip-rule="evenodd" fill="rgb(42, 42, 40)" fill-rule="evenodd"/>
</svg>
