<?xml version="1.0" encoding="UTF-8"?>
<!-- generated by Finnhub -->
<svg viewBox="0 0 55.5 55.5" xmlns="http://www.w3.org/2000/svg">
<path d="M 0,0 H 55.5 V 55.5 H 0 Z" fill="rgb(27, 148, 207)"/>
<path d="M 37.160000000000004,14.305 C 39.28,14.77 40.95,16.01 42.15,18.01 C 44.4,21.76 44.39,27.49 43.23,31.19 C 42.55,33.35 39.55,37.68 33.14,38.48 C 27.63,39.16 22.38,39.43 21.15,39.49 H 21.09 L 14.44,45 L 16.91,37 C 15.62,36.29 11.91,33.93 11.14,30.37 C 10.67,28.22 11.38,26.03 13.24,23.88 C 19.14,17.06 27.88,14 33.94,14 C 35.09,14 36.18,14.11 37.17,14.32 Z M 41.87,31.73 C 42,31.46 42.14,31.09 42.21,30.85 C 43.31,27.39 43.47,22.11 41.39,18.65 C 39.79,16 36.85,15 33.93,15 C 28.16,15 19.63,18.08 13.98,24.62 C 12.37,26.48 11.75,28.34 12.13,30.12 C 12.51,31.94 14.03,33.45 15.3,34.5 C 15.55,33.62 16.37,31.56 18.68,31.06 A 4.44,4.44 0 0,1 23.24,32.8 S 23.76,28 28.32,27.7 C 32.89,27.4 34.42,31.88 34.42,31.88 S 35.26,29.64 38.37,29.64 C 40.37,29.64 41.43,30.89 41.87,31.73 Z M 38,29 A 3,3 0 1,0 38,23 A 3,3 0 0,0 38,29 Z M 32,22 A 4,4 0 1,1 24,22 A 4,4 0 0,1 32,22 Z M 19.5,30 A 2.5,2.5 0 1,0 19.5,25 A 2.5,2.5 0 0,0 19.5,30 Z" fill="rgb(254, 254, 253)"/>
</svg>
