<?xml version="1.0" encoding="UTF-8"?>
<!-- generated by Finnhub -->
<svg viewBox="0 0 55.5 55.5" xmlns="http://www.w3.org/2000/svg">
<path d="M 0,0 H 55.5 V 55.5 H 0 Z" fill="rgb(239, 242, 248)"/>
<path d="M 51.99,21.985 H 44 L 46,24 H 52 V 22 Z M 52,34 H 44 L 46,32 H 52 V 34 Z M 52,29 H 46 V 27 H 52 V 29 Z M 33,34 H 31 V 29 H 33 V 34 Z M 40,34 L 31,25.33 V 22 L 38,28.67 V 22 H 40 V 34 Z M 19,22 H 17 V 28.5 C 17,30.5 18,34 22,34 S 27,30 27,28 H 25 C 25,29.33 24.5,32 22,32 S 19,29.83 19,28.5 V 22 Z" fill="rgb(10, 43, 75)"/>
<circle cx="6" cy="28" r="1" fill="rgb(245, 180, 49)"/>
<path d="M 5.87,23.985 L 4,22 H 7.75 C 9.83,22 14,23.2 14,28 C 14,32.8 9.83,34 7.75,34 H 4 L 5.88,32 H 7.75 C 9.21,32 12,31.2 12,28 S 9.2,24 7.75,24 H 5.87 Z" fill="rgb(10, 43, 75)"/>
</svg>
