<?xml version="1.0" encoding="UTF-8"?>
<!-- generated by Finnhub -->
<svg viewBox="0 0 55.5 55.5" xmlns="http://www.w3.org/2000/svg">
<path d="M 0,0 H 55.5 V 55.5 H 0 Z" fill="url(#a)"/>
<path d="M 38.47,43.985 H 32.7 C 29.01,44 26,40.98 26,37.27 V 30 L 34.03,28.6 C 37.43,28.6 40,33.36 40,36.67 V 42.47 C 40,43.31 39.31,44 38.48,44 Z" fill="rgb(39, 89, 238)"/>
<path d="M 13.51,15.985 H 19.29 C 22.99,16 29.03,18.9 28.05,22.46 L 26,30 H 18.16 C 14.76,30 12,26.63 12,23.32 V 17.52 C 12,16.68 12.68,16 13.52,16 Z" fill="rgb(119, 207, 253)"/>
<path d="M 19.29,15.985 C 23,16 26,19.02 26,22.73 V 30 H 33.85 C 37.25,30 40,33.37 40,36.68 V 19.66 A 3.66,3.66 0 0,0 36.36,16 H 19.3 Z" fill="rgb(73, 145, 253)"/>
<defs>
<linearGradient id="a" x1="10.42" x2="68.15" y1="9.71" y2="76.02" gradientUnits="userSpaceOnUse">
<stop stop-color="rgb(25, 29, 31)" offset="0"/>
<stop stop-color="rgb(5, 5, 8)" offset="1"/>
</linearGradient>
</defs>
</svg>
