<?xml version="1.0" encoding="UTF-8"?>
<!-- generated by Finnhub -->
<svg viewBox="0 0 55.5 55.5" xmlns="http://www.w3.org/2000/svg">
<path d="M 0,0 H 55.5 V 55.5 H 0 Z" fill="rgb(1, 36, 82)"/>
<path d="M 14.0,20.134999999999998 L 13.45,19.69 C 13.5,19.64 13.55,19.59 13.5,19.44 H 19.3 C 19.51,19.44 19.71,19.54 19.81,19.64 L 21.93,21.33 C 22.63,21.88 23.35,22.44 24.05,23.01 L 27.05,25.35 L 29.95,27.63 A 4.26,4.26 0 0,0 34.05,28.07 C 34.93,27.69 35.66,27.12 36.35,26.59 L 36.42,26.54 L 36.47,26.49 L 45.5,19.39 C 45.86,19.14 46.16,18.84 45.9,18.45 C 45.7,18.05 45.2,18 44.7,18 L 42.13,18.01 C 40.43,18.02 38.73,18.03 37.03,18 H 36.5 C 36.17,18.06 35.79,18.1 35.46,18.25 C 35.25,18.37 35.04,18.54 34.82,18.71 L 34.4,19.04 L 33.36,19.89 C 33.02,20.17 32.68,20.46 32.33,20.73 C 31.12,21.67 29.91,22.62 28.75,23.56 C 28.15,24.06 27.99,24.06 27.43,23.61 A 138.46,138.46 0 0,1 24.61,21.37 A 95.82,95.82 0 0,1 21.07,18.6 A 2.2,2.2 0 0,0 19.56,18 H 11.28 C 10.78,18 10.38,18.2 10.12,18.55 C 9.87,18.95 10.12,19.19 10.42,19.44 L 11.89,20.58 L 13.35,21.72 L 15.47,23.41 L 17.59,25.1 L 19.16,26.31 C 19.67,26.72 20.19,27.13 20.72,27.53 C 21.07,27.78 21.48,27.78 21.93,27.63 C 22.39,27.48 22.43,27.13 22.29,26.83 A 0.99,0.99 0 0,0 22,26.5 L 21.88,26.39 L 18.53,23.74 C 17.43,22.86 16.33,21.99 15.22,21.13 C 14.8,20.82 14.42,20.49 14.02,20.15 Z M 37.02,19.54 H 42.72 A 1204.7,1204.7 0 0,1 34.04,26.47 L 33.89,26.59 C 33.14,27.23 31.98,27.23 31.22,26.64 A 46.35,46.35 0 0,1 29.6,25.3 C 29.6,25.26 29.58,25.23 29.56,25.2 A 1.15,1.15 0 0,1 29.5,25.1 L 31.03,23.87 L 32.53,22.67 L 34,21.49 C 34.71,20.92 35.42,20.34 36.17,19.79 C 36.37,19.64 36.72,19.54 37.02,19.54 Z M 45.12,36.2 C 45.32,36.36 45.54,36.51 45.7,36.71 C 45.9,36.91 46,37.26 45.8,37.61 C 45.7,37.81 45.3,38 45,38 H 35.9 C 35.7,38 35.45,37.9 35.3,37.8 L 32.34,35.47 L 29.39,33.14 A 14.8,14.8 0 0,1 28.86,32.74 L 28.33,32.34 C 28.08,32.14 27.88,32.14 27.63,32.34 L 27.11,32.75 A 237.93,237.93 0 0,0 23.17,35.85 C 22.32,36.53 21.47,37.2 20.61,37.85 C 20.51,37.95 20.21,38 20.01,38 H 11.02 C 10.57,38 10.32,37.9 10.12,37.6 C 9.91,37.3 9.96,37.06 10.26,36.8 L 12.56,34.97 C 13.33,34.37 14.1,33.76 14.86,33.14 L 17.59,30.96 L 20.36,28.76 C 21.06,28.22 21.82,27.78 22.88,27.63 C 24.09,27.48 25.15,27.73 25.96,28.33 C 27.58,29.56 29.14,30.8 30.76,32.09 L 33.18,34.03 L 34.67,35.17 C 35.16,35.56 35.65,35.94 36.15,36.31 C 36.35,36.46 36.66,36.56 36.91,36.56 H 42.06 C 42.16,36.56 42.25,36.54 42.38,36.52 L 42.67,36.46 C 41.86,35.76 41.2,35.22 40.5,34.67 L 40.41,34.61 A 577.63,577.63 0 0,1 34,29.56 C 33.55,29.22 33.55,28.76 34,28.47 C 34.46,28.17 35.01,28.22 35.47,28.57 L 38.04,30.61 L 40.62,32.64 L 41.24,33.14 A 245.72,245.72 0 0,0 45.12,36.2 Z M 23.84,33.1 C 24.68,32.44 25.53,31.78 26.36,31.11 C 26.62,30.91 26.62,30.76 26.36,30.66 L 25.66,30.11 L 24.85,29.47 C 23.99,28.83 23.08,28.77 22.22,29.47 C 20.05,31.17 17.88,32.85 15.72,34.59 C 15.24,34.96 14.79,35.33 14.31,35.72 L 13.39,36.47 C 13.59,36.47 13.73,36.49 13.87,36.5 L 14.2,36.52 H 18.8 C 19.3,36.52 19.65,36.42 20,36.12 A 195.76,195.76 0 0,1 23.83,33.09 Z" fill="rgb(241, 186, 22)"/>
</svg>
