<?xml version="1.0" encoding="UTF-8"?>
<!-- generated by Finnhub -->
<svg viewBox="0 0 55.5 55.5" xmlns="http://www.w3.org/2000/svg">
<path d="M 0,0 H 55.5 V 55.5 H 0 Z" fill="rgb(239, 242, 248)"/>
<path d="M 32.690000000000005,42.235 A 15,15 0 1,1 32.7,13.75 A 16,16 0 0,0 32.7,42.25 Z M 34.47,41.54 A 15.99,15.99 0 0,1 34.47,14.46 A 15,15 0 0,1 34.47,41.54 Z M 34,42.84 A 15.96,15.96 0 0,0 41.5,43.94 A 15.9,15.9 0 0,1 35.5,42.14 A 16,16 0 0,0 35.5,13.86 A 15.9,15.9 0 0,1 41.5,12.06 A 16.2,16.2 0 0,0 34,13.16 A 16,16 0 1,0 34,42.83 Z" fill="rgb(64, 43, 101)"/>
</svg>
