<?xml version="1.0" encoding="UTF-8"?>
<!-- generated by Finnhub -->
<svg viewBox="0 0 55.5 55.5" xmlns="http://www.w3.org/2000/svg">
<path d="M 0,0 H 55.5 V 55.5 H 0 Z" fill="rgb(239, 242, 248)"/>
<path d="M 27.99,7.985 C 24.72,8 22,10.72 22,14 C 22,17.28 24.72,20 28,20 S 34,17.28 34,14 A 6.1,6.1 0 0,0 28,8 Z M 28,16.56 A 2.53,2.53 0 0,1 25.44,14 A 2.53,2.53 0 0,1 28,11.44 A 2.53,2.53 0 0,1 30.56,14 A 2.63,2.63 0 0,1 28,16.56 Z" fill="rgb(101, 101, 100)"/>
<path d="M 27.99,44.155 C 26.33,43.09 24.04,41.85 24.04,41.85 S 22.21,42.55 20.08,42.55 C 20.54,32.5 28,27.58 28,27.58 S 25.41,26.08 24.73,26 C 21.68,28.58 16.51,34.9 17.03,45.8 C 19.55,46.38 26.4,45.17 28,44.17 Z" fill="rgb(203, 13, 12)"/>
<path d="M 18.74,31.435 C 19.68,29.95 21.08,28.05 21.08,28.05 S 20,25.9 20,24 C 28.94,24.47 34.07,31.21 34.07,31.21 S 35.17,28.53 35.24,27.82 C 33.6,25.7 26.64,20.45 17,21 C 17,24 17.9,30.03 18.75,31.45 Z" fill="rgb(101, 101, 100)"/>
<path d="M 27.759999999999998,22.835 C 29.41,23.56 31.97,24.98 31.97,24.98 S 34.23,24.43 35.78,24.51 C 34.93,32.08 30.5,36.97 27.7,38.63 C 28.24,38.86 29.72,39.73 30.96,40.2 C 34,38.15 39,31 39,21 C 36.28,20.84 29.17,21.99 27.77,22.85 Z" fill="rgb(203, 13, 12)"/>
<path d="M 36.940000000000005,35.535 C 36.02,37.05 34.62,38.95 34.62,38.95 S 35.08,40.91 35.08,42.8 C 26.14,42.33 21.63,35.79 21.63,35.79 S 20.53,38.47 20.46,39.18 C 22.09,41.31 28.39,46.51 38.04,45.96 C 38.58,43.59 37.81,36.97 36.94,35.55 Z" fill="rgb(101, 101, 100)"/>
</svg>
