<?xml version="1.0" encoding="UTF-8"?>
<!-- generated by Finnhub -->
<svg viewBox="0 0 55.5 55.5" xmlns="http://www.w3.org/2000/svg">
<path d="M 0,0 H 55.5 V 55.5 H 0 Z" fill="rgb(239, 242, 248)"/>
<path d="M 35.93,14.945 C 33.61,16.87 32.07,20.61 31.5,23.82 C 31.06,26.4 31.54,26.53 30.75,29.78 C 30,32.85 29.35,35.88 28.77,38.99 C 28.55,40.24 28.42,41.57 28.15,42.77 C 27.98,41.31 28.07,30 28.11,27.51 C 28.11,26.18 30,22.5 30,18 C 30,16 29.17,12.2 28.02,11 C 27.01,12.16 26,15.9 26,18 C 26,23 27.71,25.82 27.89,27.11 C 28.02,28.04 27.93,41.8 27.89,42.64 L 26.49,35.16 C 26.17,33.74 24.89,28.8 24.81,27.86 C 24.72,26.36 24.72,25.24 24.46,23.73 A 17.14,17.14 0 0,0 23.49,20.21 A 14.13,14.13 0 0,0 20.54,15.41 C 20.32,15.18 20.14,14.96 19.93,15.01 C 19.45,17.59 20.33,20.61 21.16,22.61 C 22.22,25.15 23.66,26.31 24.64,28.18 C 25.07,29.02 27.76,41.98 27.63,43.13 C 27.23,42.02 26.93,40.82 26.53,39.7 A 69.42,69.42 0 0,0 22.35,30.05 C 21.91,29.2 21.6,27.78 21.07,26.71 C 19.8,24.04 17.45,20.48 14.5,19.5 C 15.03,23.6 18,26.98 21.07,29.2 C 21.73,29.7 21.91,29.6 22.3,30.31 C 23.4,32.31 24.37,34.45 25.2,36.68 C 25.65,37.84 26.09,38.95 26.44,40.1 C 26.74,41 27.41,42.82 27.49,43.7 C 27.32,43.26 27.01,42.77 26.83,42.29 A 45.11,45.11 0 0,0 21.95,34.41 L 20.9,33.25 C 20.32,32.72 20.41,32.76 20.06,31.96 C 18.43,28.58 16.02,25.79 12.5,24.5 C 12.59,25.92 13.77,27.55 14.56,28.62 A 13.73,13.73 0 0,0 19.18,32.27 C 20.81,33.07 21.25,33.74 22.44,35.3 C 23.05,36.1 23.58,36.86 24.15,37.75 C 25.03,39.13 26.65,41.75 27.1,43.22 C 26.92,43.04 26.83,42.95 26.7,42.77 L 23.84,39.35 C 22.44,37.75 20.72,36.59 19.09,35.3 C 18.74,35.03 18.57,34.72 18.21,34.36 C 17.55,33.79 16.98,33.16 16.28,32.72 C 15.13,31.96 12.85,30.73 11,31 A 11.12,11.12 0 0,0 18.21,35.25 C 19.05,35.39 18.96,35.39 19.53,35.83 C 19.97,36.14 20.23,36.37 20.68,36.73 C 21.08,37.03 21.34,37.26 21.68,37.61 L 23.67,39.48 C 23.97,39.79 24.37,40.15 24.64,40.51 L 27.76,44.73 C 27.98,45.04 27.76,44.83 28.02,45 C 28.15,44.91 28.07,45.04 28.24,44.78 L 28.81,43.88 C 30.61,41.18 32.81,38.86 35.28,36.77 C 37.83,34.63 37.7,35.65 40.65,34.41 C 42.32,33.7 44.38,32.34 45,31 C 42,31 39.68,32.5 37.79,34.4 C 36.59,35.61 35.59,36.14 34.4,37.21 C 33.39,38.15 32.02,39.35 31.19,40.37 L 28.8,43.4 C 28.98,42.77 29.82,41.17 30.17,40.6 A 38.94,38.94 0 0,1 35.27,33.16 C 35.8,32.63 37.2,32.05 37.87,31.65 C 40.24,30.14 42.7,27.62 43.49,24.5 C 40.24,25.17 37.29,29.07 35.89,31.87 C 35.45,32.72 35.53,32.58 34.96,33.21 A 39.96,39.96 0 0,0 29.82,40.77 C 29.55,41.27 28.54,43.13 28.41,43.62 C 28.41,42.51 30.17,37.92 30.65,36.68 C 31.13,35.43 33.2,30.23 34.04,29.65 C 35.67,28.4 37.12,27.51 38.44,25.86 C 39.54,24.48 41.27,21.9 41.49,19.5 C 40.57,19.72 39.32,20.84 38.7,21.32 A 12.6,12.6 0 0,0 36.54,23.72 A 22.13,22.13 0 0,0 34.17,28.27 C 33.99,28.76 33.77,29.6 33.55,30 C 31.97,32.8 29.02,39.62 28.32,43.09 C 28.14,42.11 29.33,36.77 29.6,35.48 C 29.86,34.23 30.12,33.03 30.43,31.83 C 30.61,30.98 31,28.93 31.27,28.23 C 31.49,27.69 32.77,26.26 33.16,25.64 C 34.7,23.24 35.93,20.34 36.06,17.36 C 36.15,16.92 36.36,15.14 35.93,14.96 Z" fill="rgb(0, 0, 3)"/>
</svg>
