<?xml version="1.0" encoding="UTF-8"?>
<!-- generated by Finnhub -->
<svg viewBox="0 0 55.5 55.5" xmlns="http://www.w3.org/2000/svg">
<path d="M 0,0 H 55.5 V 55.5 H 0 Z" fill="rgb(239, 242, 248)"/>
<path d="M 19.99,36.985 H 22 V 31.87 C 22.92,32.57 23.83,33.06 24.98,33 C 28.12,32.87 30.14,30.07 29.99,27.05 C 29.81,24.07 27.43,21.81 24.67,22.01 C 22.05,22.2 20.02,24.54 20,27.37 V 37 Z M 24.97,31 C 23.26,31.02 22.03,29.3 22,27.44 C 21.98,25.58 23.16,24.04 24.88,24 H 25 C 26.72,24.04 28.03,25.6 28,27.45 C 27.97,29.27 26.65,30.96 24.97,31 Z M 41,22 V 24.02 C 40.75,24.07 40.5,24.1 40.26,24.16 C 38.87,24.56 38.01,25.89 38,27.52 C 37.99,29.36 38,31.18 38,33 H 36 V 27.56 C 36,24.66 38.02,22.23 40.64,22.01 L 41,22 Z M 32,22 H 34 V 33 H 32 V 22 Z M 50.56,23.77 A 5.36,5.36 0 0,0 46.89,22.01 L 46.49,22 A 5.43,5.43 0 0,0 41.42,25.39 A 5.59,5.59 0 0,0 42.73,31.53 A 5.45,5.45 0 0,0 51.15,30.32 C 51.42,29.87 51.65,29.38 51.82,28.88 L 51.9,28.63 H 49.82 L 49.77,28.75 A 3.44,3.44 0 0,1 46.6,31 A 3.78,3.78 0 0,1 43.03,28 H 51.99 V 27.9 C 51.99,27.77 52.01,27.8 52.01,27.65 A 5.66,5.66 0 0,0 50.57,23.77 Z M 43.16,26.38 L 43.19,26.28 A 3.53,3.53 0 0,1 46.47,24 C 47.95,24 49.44,24.96 49.87,26.4 H 43.16 V 26.38 Z M 19,29.7 C 19,29.93 18.98,30.14 18.95,30.36 C 18.66,31.74 17.54,33 16.05,33 H 9 V 31 H 15.88 C 16.58,31 17,30.34 17,29.7 C 17,29.54 17,29.36 16.93,29.2 A 1.17,1.17 0 0,0 16.31,28.56 A 1.08,1.08 0 0,0 15.88,28.47 H 12.03 A 2.7,2.7 0 0,1 10.82,28.2 A 3.61,3.61 0 0,1 9.5,27 A 3.57,3.57 0 0,1 9,25.18 A 3.53,3.53 0 0,1 9.5,23.39 A 3.02,3.02 0 0,1 12.03,21.99 H 18 V 23.99 H 12.24 C 11.54,23.99 11,24.47 11,25.19 A 1.38,1.38 0 0,0 11.36,26.14 C 11.46,26.26 11.6,26.36 11.74,26.44 C 11.9,26.49 12.06,26.53 12.24,26.53 H 16.04 C 16.24,26.53 16.44,26.55 16.64,26.59 C 16.82,26.62 17.01,26.69 17.19,26.79 C 17.36,26.86 17.53,26.96 17.69,27.08 A 3.4,3.4 0 0,1 18.47,27.93 A 3.56,3.56 0 0,1 18.91,29.07 C 18.98,29.28 19,29.48 19,29.7 Z M 5,22 H 7 V 33 H 5 V 22 Z"/>
</svg>
