<?xml version="1.0" encoding="UTF-8"?>
<!-- generated by Finnhub -->
<svg viewBox="0 0 55.5 55.5" xmlns="http://www.w3.org/2000/svg">
<path d="M 0,0 H 55.5 V 55.5 H 0 Z" fill="rgb(6, 44, 106)"/>
<path d="M 41.89,20.785 L 44.23,16.83 C 43.55,16.55 40.75,16 34.95,16 C 27.7,16 24.39,18.13 24.39,19.95 C 24.39,21.76 27.35,23.16 31.05,23.55 C 34.75,23.93 38,24.28 38,24.85 C 38,25.42 36.72,26 33.5,26 C 29.3,26 27.28,24.03 26.74,22.97 L 25.42,22.75 L 23,26.75 C 24.1,27.17 27.68,28 33.28,28 C 40.26,28 45,26.19 45,23.83 S 41.68,21.06 39.07,20.43 C 36.05,20.11 31.63,19.5 31.05,19.15 C 31.05,18.32 33.28,17.91 34.95,17.91 C 38.35,17.91 40.13,19.69 40.59,20.58 L 41.91,20.81 Z" fill="rgb(253, 251, 251)"/>
<path d="M 39.39,19.285 H 40.73 A 8.8,8.8 0 0,0 35.28,17.19 C 32.12,17.19 30.36,18.03 30.36,19.01 C 30.36,19.28 30.67,19.55 30.83,19.66 L 31.33,19.26 A 1.36,1.36 0 0,1 31.05,19.16 C 31.05,18.32 33.28,18 34.95,18 C 37,18 38.45,18.61 39.39,19.3 Z" fill="rgb(31, 26, 21)"/>
<path d="M 37.03,24.335 L 38.73,24.09 C 38.31,23.86 36.41,23.28 32.14,22.81 C 27.87,22.35 25.98,21.39 25.56,20.97 V 21.81 C 26.76,22.68 28.76,23.31 31.06,23.54 C 33.53,23.8 35.81,24.04 37.04,24.34 Z" fill="rgb(54, 45, 49)"/>
<path d="M 43.940000000000005,21.965 H 43.27 C 43.6,22.13 44.27,22.73 44.27,23.98 C 44.27,25.53 40.42,27.36 34,27.36 C 28.87,27.36 25.14,26.62 23.92,26.25 L 23.09,26.79 C 24.28,27.21 27.83,28 33.28,28 C 40.26,28 45,26.19 45,23.83 C 45,23.01 44.6,22.42 43.95,21.98 Z" fill="rgb(55, 51, 62)"/>
<path d="M 44.18,16.884999999999998 L 41.91,20.8 L 40.65,20.6 L 41.12,20.03 H 41.6 L 43.1,17.26 L 44.19,16.9 Z" fill="rgb(78, 71, 65)"/>
<path d="M 40.93,33.185 L 44.74,28.9 C 43.63,28.6 39.04,28 29.55,28 C 17.7,28 12,30.31 12,32.28 C 12,34.24 17.12,35.76 23.18,36.18 C 29.24,36.58 35,36.97 35,37.58 C 35,38.21 32.66,39 27.4,39 C 20.52,39 17.01,36.7 16.11,35.55 L 13.95,35.31 L 10,39.66 C 11.8,40.1 17.66,41 26.81,41 C 38.25,41 46,39.03 46,36.48 S 40.57,33.48 36.3,32.79 C 31.35,32.45 24.13,31.79 23.18,31.41 C 23.18,30.51 26.81,30 29.55,30 C 35.12,30 38.02,32 38.78,32.97 L 40.94,33.21 Z" fill="rgb(253, 251, 251)"/>
<path d="M 36.93,31.555 L 39.01,31.58 C 37.76,30.82 34.21,29.28 30.09,29.28 C 24.93,29.28 22.04,30.2 22.04,31.26 C 22.04,31.56 22.56,31.85 22.82,31.96 L 23.63,31.53 C 23.43,31.49 23.27,31.45 23.18,31.41 C 23.18,30.51 26.81,30 29.56,30 C 32.99,30 35.41,30.76 36.94,31.57 Z" fill="rgb(31, 26, 21)"/>
<path d="M 33.14,37.005 L 35.74,36.77 C 35.05,36.52 31.94,35.88 24.96,35.38 C 17.98,34.88 14.86,33.84 14.19,33.38 V 34.38 C 16.24,35.28 19.54,35.92 23.18,36.18 L 23.44,36.19 C 27.34,36.46 31.04,36.71 33.14,37.02 Z" fill="rgb(54, 45, 49)"/>
<path d="M 44.28,34.464999999999996 H 43.17 C 43.71,34.64 44.8,35.29 44.8,36.64 C 44.8,38.32 38.5,40.3 28,40.3 C 19.6,40.3 13.5,39.5 11.5,39.1 L 10.14,39.69 C 12.1,40.15 17.9,41 26.82,41 C 38.25,41 46,39.03 46,36.48 C 46,35.58 45.33,34.95 44.29,34.48 Z" fill="rgb(55, 51, 62)"/>
<path d="M 44.660000000000004,28.955 L 40.94,33.21 L 38.89,32.98 L 39.65,32.36 H 40.43 L 42.88,29.36 L 44.67,28.97 Z" fill="rgb(78, 71, 65)"/>
<path d="M 11.99,15.985 V 17.88 C 12.54,17.93 14,18.27 14,19.18 V 24.88 C 13.96,25.27 13.46,26.05 12,26.05 V 28 H 23 V 26.05 C 21.54,26.05 21.04,25.27 21,24.87 V 19.17 C 21,18.27 22.46,17.93 23,17.87 V 16 H 12 Z" fill="rgb(253, 251, 251)"/>
<path d="M 13.16,18.185 C 13.54,17.94 14.07,17.6 14.35,17.49 C 14.13,17.15 13.32,16.95 12.95,16.89 L 12.03,17.88 C 12.31,17.91 12.77,18.01 13.17,18.2 Z" fill="rgb(66, 59, 66)"/>
<path d="M 22.83,15.985 L 22,17 C 21.48,16.97 20.43,17.19 20.43,18.07 V 25.5 C 20.79,25.5 20.79,25.35 21.06,25.08 A 0.86,0.86 0 0,1 21.01,24.88 V 19.18 C 21.01,18.27 22.47,17.93 23.01,17.88 V 16 H 22.85 Z" fill="rgb(28, 23, 42)"/>
<path d="M 22.99,26.285 L 22.34,27.3 H 12.66 L 12,27.96 V 28 H 23 V 26.3 Z" fill="rgb(58, 53, 49)"/>
</svg>
