<?xml version="1.0" encoding="UTF-8"?>
<!-- generated by Finnhub -->
<svg viewBox="0 0 55.5 55.5" xmlns="http://www.w3.org/2000/svg">
<path d="M 0,0 H 55.5 V 55.5 H 0 Z" fill="rgb(239, 242, 248)"/>
<path d="M 20.49,28.985 A 7.5,7.5 0 1,0 20.5,14 A 7.5,7.5 0 0,0 20.5,29 Z M 20.5,25.5 A 4,4 0 1,0 20.5,17.5 A 4,4 0 0,0 20.5,25.5 Z" fill="rgb(55, 25, 13)" fill-rule="evenodd"/>
<path d="M 35.49,28.985 A 7.5,7.5 0 1,0 35.5,14 A 7.5,7.5 0 0,0 35.5,29 Z M 35.5,25.5 A 4,4 0 1,0 35.5,17.5 A 4,4 0 0,0 35.5,25.5 Z" fill="rgb(55, 25, 13)" fill-rule="evenodd"/>
<ellipse cx="32.92" cy="36.62" rx="4.55" ry="4.51" fill="rgb(218, 91, 68)"/>
<path d="M 27.99,43.985 A 14,14 0 0,1 14,30 H 17.5 C 17.5,35.43 21.62,39.9 26.9,40.44 A 7.09,7.09 0 0,1 26,36.96 A 6.86,6.86 0 0,1 32.75,30 C 34.95,30 36.9,31.08 38.13,32.76 C 38.37,31.88 38.5,30.96 38.5,30 H 42 A 14,14 0 0,1 28,44 Z M 36.05,36.74 A 3.35,3.35 0 0,0 32.75,33.55 A 3.36,3.36 0 0,0 29.45,36.95 C 29.45,38.28 30.18,39.42 31.25,39.99 C 33.15,39.37 34.8,38.23 36.05,36.74 Z" fill="rgb(55, 25, 13)"/>
</svg>
