<?xml version="1.0" encoding="UTF-8"?>
<!-- generated by Finnhub -->
<svg viewBox="0 0 55.5 55.5" xmlns="http://www.w3.org/2000/svg">
<path d="M 0,0 H 55.5 V 55.5 H 0 Z" fill="rgb(239, 242, 248)"/>
<path d="M 27.22,11.985 H 28.87 A 17.5,17.5 0 0,1 37.53,14.85 C 38.03,15.17 38.29,15.59 38.31,16.11 A 0.27,0.27 0 0,1 38.09,16.39 C 35.74,16.84 33.72,18.37 31.74,19.61 C 25.94,23.24 23.08,17.41 18.01,16.39 A 0.28,0.28 0 0,1 17.78,16.14 C 17.73,15.31 18.68,14.69 19.31,14.34 A 18.07,18.07 0 0,1 27.23,12 Z M 12,28.73 V 27.25 C 12.15,24.45 12.9,21.83 14.23,19.38 C 14.6,18.71 15.23,17.75 16.08,17.68 C 16.26,17.67 16.37,17.75 16.4,17.93 C 16.99,21.13 19.32,22.83 20.52,26.21 C 21.2,28.13 20.64,29.93 19.62,31.63 C 18.37,33.7 16.86,35.63 16.39,38.06 A 0.14,0.14 0 0,1 16.29,38.16 C 15.65,38.42 15.07,37.8 14.74,37.28 A 17.57,17.57 0 0,1 12,28.73 Z M 39.79,17.8 C 40.42,17.67 40.95,18.2 41.27,18.7 A 17.48,17.48 0 0,1 41.99,36.23 C 41.56,37.06 40.79,38.38 39.82,38.29 A 0.24,0.24 0 0,1 39.61,38.09 C 39.11,35.25 36.96,33.09 35.75,30.48 C 33.52,25.68 38.79,22.38 39.61,17.98 A 0.22,0.22 0 0,1 39.79,17.8 Z M 37.8,39.56 C 38.22,39.66 38.37,39.87 38.2,40.28 C 37.9,40.98 37.04,41.48 36.4,41.83 A 17.33,17.33 0 0,1 18.61,41.23 C 18.21,40.97 17.38,40.17 17.8,39.67 A 0.22,0.22 0 0,1 17.92,39.59 C 20.44,39.13 22.54,37.43 24.66,36.18 C 28.66,33.81 31.49,36.28 34.97,38.44 C 35.82,38.97 36.76,39.34 37.8,39.56 Z" fill="rgb(236, 31, 43)"/>
</svg>
