<?xml version="1.0" encoding="UTF-8"?>
<!-- generated by Finnhub -->
<svg viewBox="0 0 55.5 55.5" xmlns="http://www.w3.org/2000/svg">
<path d="M 0,0 H 55.5 V 55.5 H 0 Z" fill="rgb(239, 242, 248)"/>
<path d="M 4.99,24.985 H 4 V 32 H 5 V 25 Z M 8,27 V 26 H 7 V 32 H 8 V 28.44 C 8,27.88 8.71,27 9.65,27 C 10.57,27 11,27.81 11,28.6 V 32 H 12 V 28.46 C 12.01,27.08 11.03,26 9.71,26 C 8.77,26 8.1,26.64 8,27 Z M 15,26 V 27 C 15.1,26.64 15.77,26 16.71,26 C 18.03,26 19.01,27.08 19,28.46 V 32 H 18 V 28.6 C 18,27.81 17.57,27 16.65,27 C 15.71,27 15,27.88 15,28.44 V 32 H 14 V 26 H 15 Z M 44,27 V 26 H 43 V 32 H 44 V 28.44 C 44,27.88 44.71,27 45.65,27 C 46.57,27 47,27.81 47,28.6 V 32 H 48 V 28.46 C 48.01,27.08 47.03,26 45.71,26 C 44.77,26 44.1,26.64 44,27 Z M 29,26 L 31.5,32 H 32.5 L 35,26 H 34 L 32,31 L 30,26 H 29 Z M 52,26 V 27 H 51 V 30.32 C 51,31.05 51.53,31.02 51.87,31.01 L 52,31 V 31.93 C 51.75,31.98 51.51,32.01 51.3,32 C 50.54,31.98 49.98,31.62 50,30.59 V 27 H 49 V 26 H 50 V 25 H 51 V 26 H 52 Z M 41.54,30 A 3.14,3.14 0 0,1 38.69,32 A 3,3 0 0,1 38.69,26 C 40.74,26 41.89,27.86 41.69,29.5 H 36.76 C 36.86,30 37.44,31 38.7,31 A 2,2 0 0,0 40.41,30 H 41.54 Z M 38.69,27 A 2,2 0 0,0 36.76,28.5 H 40.62 A 1.99,1.99 0 0,0 38.7,27 Z" fill="rgb(1, 84, 144)"/>
<path d="M 24.439999999999998,24.985 C 25.5,25.02 26.25,25.44 26.51,25.6 C 24.34,25.5 21.97,26.65 21.97,28.67 A 2.5,2.5 0 0,0 24.64,31.27 C 25.34,31.21 25.9,30.74 26.14,30.54 C 26.36,30.43 26.32,30.59 26.28,30.68 C 25.74,31.53 24.64,31.95 23.67,31.95 A 3.21,3.21 0 0,1 20.5,28.67 C 20.52,26.15 22.77,24.97 24.45,25 Z" fill="url(#b)"/>
<path d="M 24.54,32.985 A 4.06,4.06 0 0,1 22.49,32.4 C 24.66,32.5 27.03,31.35 27.03,29.33 C 27.03,27.31 25.43,26.63 24.36,26.73 A 2.9,2.9 0 0,0 22.86,27.46 C 22.65,27.57 22.68,27.41 22.72,27.32 C 23.26,26.47 24.36,26.05 25.34,26.05 C 26.39,26.05 28.51,26.88 28.5,29.33 C 28.49,31.85 26.24,33.03 24.55,33 Z" fill="url(#a)"/>
<defs>
<linearGradient id="b" x1="25.8" x2="21.11" y1="25.45" y2="30.51" gradientUnits="userSpaceOnUse">
<stop stop-color="rgb(156, 215, 246)" offset="0"/>
<stop stop-color="rgb(0, 87, 164)" offset="1"/>
</linearGradient>
<linearGradient id="a" x1="23.49" x2="27.88" y1="32.82" y2="27.29" gradientUnits="userSpaceOnUse">
<stop stop-color="rgb(156, 215, 246)" offset="0"/>
<stop stop-color="rgb(0, 87, 164)" offset="1"/>
</linearGradient>
</defs>
</svg>
