<?xml version="1.0" encoding="UTF-8"?>
<!-- generated by Finnhub -->
<svg viewBox="0 0 55.5 55.5" xmlns="http://www.w3.org/2000/svg">
<path d="M 0,0 H 55.5 V 55.5 H 0 Z" fill="rgb(239, 242, 248)"/>
<path d="M 27.99,39.985 C 34.08,40 39,34.63 39,28 S 34.08,16 28,16 S 17,21.37 17,28 C 17,34.63 21.92,40 28,40 Z M 28,39 C 32.42,39 36,36.88 36,28 S 32.42,17 28,17 S 20,19.32 20,28 S 23.58,39 28,39 Z" fill="rgb(122, 175, 223)" fill-rule="evenodd"/>
<path d="M 40.63,40.625 C 46.92,34.36 46.35,23.61 39.37,16.63 S 21.64,9.08 15.37,15.36 C 9.08,21.64 9.65,32.39 16.63,39.37 S 34.36,46.92 40.63,40.64 Z M 40,40 C 44.3,35.7 45.48,29.9 35.8,20.2 C 26.1,10.52 20.3,11.7 16,16 S 10.73,26.32 20.2,35.8 C 29.68,45.27 35.7,44.3 40,40 Z" fill="rgb(122, 175, 223)" fill-rule="evenodd"/>
<path d="M 22.04,33.935 C 25.01,36.9 30.07,36.64 33.35,33.35 C 36.64,30.07 36.9,25.01 33.95,22.05 C 30.99,19.1 25.93,19.36 22.65,22.65 C 19.36,25.93 19.1,30.99 22.05,33.95 Z M 22.35,33.65 C 24.38,35.67 27.11,36.23 31.67,31.67 S 35.67,24.37 33.65,22.35 C 31.62,20.33 28.79,19.87 24.33,24.33 S 20.33,31.63 22.35,33.65 Z" fill="rgb(3, 46, 103)" fill-rule="evenodd"/>
</svg>
