<?xml version="1.0" encoding="UTF-8"?>
<!-- generated by Finnhub -->
<svg viewBox="0 0 55.5 55.5" xmlns="http://www.w3.org/2000/svg">
<path d="M 0,0 H 55.5 V 55.5 H 0 Z" fill="rgb(239, 242, 248)"/>
<path d="M 7.99,31.755 V 32 H 4 V 31.77 H 4.32 A 1,1 0 0,0 5.15,31.47 C 5.27,31.35 5.32,31.05 5.32,30.57 V 25.4 C 5.35,25.13 5.32,24.85 5.24,24.6 A 0.53,0.53 0 0,0 4.95,24.35 A 1.3,1.3 0 0,0 4.32,24.2 H 4 V 24 H 8 V 24.23 H 7.65 A 1,1 0 0,0 6.82,24.53 C 6.71,24.63 6.65,24.93 6.65,25.4 V 30.58 C 6.62,30.85 6.65,31.13 6.73,31.38 C 6.79,31.48 6.91,31.58 7.03,31.63 C 7.23,31.73 7.43,31.77 7.65,31.77 H 8 Z M 10,28.04 C 10.65,27.34 11.16,27 11.74,27 C 12.76,27 13,28 13,28.83 V 30.91 C 13,31.5 13.39,31.89 14,31.81 V 32 H 11.29 V 31.8 H 11.41 C 12.06,31.88 12,31.38 12,30.87 V 28.86 C 12,28.29 12,27.53 11.31,27.59 C 10.84,27.59 10.48,27.81 10,28.29 V 30.87 C 10,31.5 10.16,31.84 10.79,31.77 V 31.97 H 8.08 V 31.77 H 8.2 C 8.75,31.84 9,31.5 9,30.87 V 29.06 C 9,28.7 9,28.33 8.95,27.97 C 8.92,27.88 8.93,27.79 8.85,27.7 A 0.46,0.46 0 0,0 8.6,27.63 C 8.45,27.63 8.23,27.66 8.1,27.73 L 8,27.6 L 9.66,27.01 H 10 V 28.03 Z M 25,28.04 C 25.65,27.34 26.16,27 26.74,27 C 27.76,27 28,28 28,28.83 V 30.91 C 28,31.5 28.39,31.89 29,31.81 V 32 H 26.29 V 31.8 H 26.41 C 27.06,31.88 27,31.38 27,30.87 V 28.86 C 27,28.29 27,27.53 26.31,27.59 C 25.84,27.59 25.48,27.81 25,28.29 V 30.87 C 25,31.5 25.16,31.84 25.79,31.77 V 31.97 H 23.08 V 31.77 H 23.2 C 23.75,31.84 24,31.5 24,30.87 V 29.06 C 24,28.7 24,28.33 23.95,27.97 C 23.92,27.88 23.93,27.79 23.85,27.7 A 0.46,0.46 0 0,0 23.6,27.63 C 23.45,27.63 23.23,27.66 23.1,27.73 L 23,27.61 L 24.66,27.02 H 25 V 28.04 Z M 14,27 H 16.2 V 27.2 H 16.04 C 15.94,27.2 15.83,27.22 15.74,27.29 A 0.42,0.42 0 0,0 15.64,27.56 C 15.64,27.71 15.68,27.85 15.74,28 L 16.83,30.68 L 17.91,27.89 C 17.98,27.76 18.02,27.6 18.02,27.45 A 0.17,0.17 0 0,0 17.98,27.33 A 0.38,0.38 0 0,0 17.83,27.23 A 0.96,0.96 0 0,0 17.47,27.2 V 27 H 19 V 27.2 A 0.7,0.7 0 0,0 18.64,27.31 C 18.49,27.47 18.38,27.65 18.32,27.85 L 16.66,32 H 16.45 L 14.81,27.9 A 1.18,1.18 0 0,0 14.6,27.5 A 0.74,0.74 0 0,0 14.34,27.29 C 14.24,27.25 14.11,27.22 14,27.2 V 27 Z M 34,30.07 C 33.84,31.05 33.07,32 32.01,32 C 30.72,32 29.96,30.67 30.01,29.5 C 29.96,28.2 30.93,27 32.27,27 C 32.68,26.98 33.09,27.11 33.42,27.37 C 33.68,27.55 33.85,27.83 33.87,28.13 C 33.87,28.4 33.65,28.59 33.39,28.59 C 33.03,28.63 32.83,28.29 32.83,27.98 A 0.61,0.61 0 0,0 32.62,27.52 A 0.71,0.71 0 0,0 32.12,27.37 C 31.24,27.37 30.97,28.29 31,29.07 C 31,29.97 31.32,31.2 32.4,31.2 C 33.13,31.2 33.6,30.62 33.87,30 L 34,30.07 Z M 37,27 V 30.9 C 37,31.32 37.04,31.9 37.61,31.8 V 32 H 35.37 V 31.8 C 35.96,31.9 36,31.33 36,30.9 V 29.04 C 36,28.7 36,28.37 35.96,28.01 A 0.55,0.55 0 0,0 35.87,27.76 A 0.28,0.28 0 0,0 35.69,27.7 C 35.57,27.7 35.49,27.72 35.39,27.78 L 35.33,27.58 L 36.83,27 H 37 Z M 46,24 V 30.9 C 46,31.32 46.04,31.9 46.61,31.8 V 32 H 44.37 V 31.8 C 44.96,31.9 45,31.33 45,30.9 V 26.04 C 45,25.7 45,25.37 44.96,25.01 A 0.55,0.55 0 0,0 44.87,24.76 A 0.28,0.28 0 0,0 44.69,24.7 C 44.57,24.7 44.49,24.72 44.39,24.78 L 44.33,24.58 L 45.83,24 H 46 Z M 40,28.03 C 40.46,27.35 40.96,27 41.5,27 C 42.77,27 43.32,28.04 43.32,29.12 C 43.32,30.6 42.35,32 40.87,32 C 40.26,32 39.47,31.73 39,31.35 V 26.13 C 39,25.78 39,25.43 38.96,25.08 A 0.82,0.82 0 0,0 38.83,24.8 A 0.35,0.35 0 0,0 38.61,24.73 C 38.48,24.73 38.37,24.77 38.24,24.82 L 38.17,24.63 L 39.77,24 H 40 V 28.03 Z M 40,28.38 V 31.06 C 40.3,31.38 40.69,31.63 41.13,31.63 C 42.16,31.56 42.4,30.44 42.43,29.45 C 42.46,28.64 42.08,27.8 41.09,27.8 C 40.64,27.8 40.29,28.07 40,28.38 Z M 48,29 C 48,30.21 48.85,31.15 50.1,31.15 C 50.84,31.15 51.54,30.73 51.81,30.02 L 52,30.13 A 2.45,2.45 0 0,1 49.58,32 C 48.25,32 47.01,30.95 47.01,29.57 C 47,28 47.88,27 49.7,27 C 50.9,27 51.99,27.5 51.99,29 H 47.99 Z M 48,28.61 H 50.66 C 50.66,27.83 50.07,27.37 49.36,27.35 C 48.64,27.33 48,27.86 48,28.61 Z M 21.18,26 C 20.29,25.98 20.05,26.62 20,27.46 V 32.96 C 20,33.41 19.84,33.78 19.55,33.78 C 19.26,33.78 19.13,33.6 19.13,33.23 C 19.13,33.06 19,32.93 18.82,32.93 C 18.63,32.93 18.5,33.06 18.5,33.23 C 18.5,33.65 18.87,34 19.32,34 A 1.6,1.6 0 0,0 21,32.54 V 27 C 21,26.54 21.16,26.19 21.45,26.19 C 21.74,26.19 21.87,26.36 21.87,26.73 C 21.87,26.91 22,27.03 22.18,27.03 C 22.37,27.03 22.5,26.91 22.5,26.73 C 22.5,26.33 21.63,25.99 21.18,25.99 Z" fill="rgb(5, 5, 4)"/>
<path d="M 20.49,24.985 A 0.5,0.5 0 1,0 20.5,24 A 0.5,0.5 0 0,0 20.5,25 Z" fill="rgb(152, 1, 2)"/>
<path d="M 36.49,24.985 A 0.5,0.5 0 1,0 36.5,24 A 0.5,0.5 0 0,0 36.5,25 Z" fill="rgb(5, 5, 4)"/>
</svg>
