<?xml version="1.0" encoding="UTF-8"?>
<!-- generated by Finnhub -->
<svg viewBox="0 0 55.5 55.5" xmlns="http://www.w3.org/2000/svg">
<path d="M 0,0 H 55.5 V 55.5 H 0 Z" fill="rgb(239, 242, 248)"/>
<path d="M 42.510000000000005,24.985 H 38.86 A 10.46,10.46 0 0,0 31,17.47 V 15.5 C 36.85,16.43 41.24,20.06 42.52,25 Z M 16.79,29 C 17.15,34.43 21.38,38.48 27,38.83 V 29 H 16.8 Z M 29,27 H 46 V 29 H 42.85 C 42.47,34.91 37.65,39.44 31,40.5 V 38.53 C 35.65,37.4 38.89,33.76 39.21,29 H 29 V 44 H 27 V 40.71 C 19.38,40.41 13.55,35.5 13.14,29 H 10 V 27 H 27 V 17.17 A 10.6,10.6 0 0,0 17.14,25 H 13.48 C 14.91,19.5 20.21,15.58 27,15.3 V 12 H 29 V 27 Z"/>
</svg>
