<?xml version="1.0" encoding="UTF-8"?>
<!-- generated by Finnhub -->
<svg viewBox="0 0 55.5 55.5" xmlns="http://www.w3.org/2000/svg">
<path d="M 0,0 H 55.5 V 55.5 H 0 Z" fill="rgb(17, 171, 140)"/>
<path d="M 23.299999999999997,12.245 C 24.08,12.8 24.3,14.32 23.49,14.88 C 23.29,15.01 22.94,15.08 22.43,15.08 C 20.31,15.11 18.11,14.76 16.11,15.96 C 16,16.03 15.97,16 16.04,15.86 L 17.29,13.36 C 18.16,11.61 21.33,12.02 22.85,12.09 C 23.01,12.1 23.17,12.16 23.31,12.26 Z M 16.03,37.42 V 33.75 C 16.03,33.65 16.08,33.6 16.18,33.63 C 17.87,34.03 20.33,34.93 20.58,32.17 C 20.68,31.05 20.68,29.89 20.55,28.69 C 20.34,26.71 17.3,26.67 15.93,26.45 C 15.85,26.45 15.81,26.39 15.8,26.31 C 15.31,21.57 16.08,19.25 21,19 C 25.94,18.75 32.2,19.03 37.15,19.18 C 38.03,19.2 41.47,19.28 40.85,17.8 C 40.32,16.53 37.17,16.7 36.07,16.7 C 31.35,16.74 25.71,17.04 21,17 C 18.36,16.98 15.13,17.72 14.02,20.46 C 13.45,21.86 13.71,24.07 13.69,25.69 C 13.69,25.78 13.65,25.82 13.56,25.82 C 13.23,25.8 13.06,25.65 13.04,25.37 A 69.9,69.9 0 0,1 13.01,21.45 C 13.04,17.46 16.67,16.42 19.94,16.41 C 26.26,16.39 31.9,16.29 34.84,16.11 C 37.62,15.93 42.6,15.5 42.82,19.51 C 42.9,20.93 43,22.28 43,24 V 34.5 C 43,39.33 41.22,41.99 36,42 H 22 C 19.07,42 16.49,41.36 16,37.89 A 0.2,0.2 0 0,0 15.85,37.71 C 14.53,37.28 13.55,36.41 13.25,35.07 C 13.08,34.39 13.24,33.57 13.15,32.79 C 13.15,32.69 13.19,32.63 13.3,32.64 C 13.63,32.68 13.76,32.89 13.7,33.28 C 13.42,35.08 14,36.98 15.9,37.51 C 15.99,37.53 16.03,37.5 16.03,37.41 Z M 40.08,24.14 A 2.45,2.45 0 0,0 39.4,22.44 A 2.35,2.35 0 0,0 37.74,21.74 A 2.3,2.3 0 0,0 36.08,22.44 A 2.4,2.4 0 0,0 35.38,24.14 C 35.38,24.78 35.64,25.39 36.08,25.84 A 2.32,2.32 0 0,0 39.4,25.84 C 39.84,25.39 40.08,24.78 40.08,24.14 Z" fill="rgb(254, 254, 253)"/>
<path d="M 37.49,24.985 A 1.5,1.5 0 1,0 37.5,22 A 1.5,1.5 0 0,0 37.5,25 Z M 12.96,25.13 C 12.86,27.41 17.43,27.39 18.76,27.71 C 20.3,28.1 19.97,29.94 19.97,31.08 C 19.97,32.37 19.62,33.2 18.16,32.96 C 16.52,32.7 12.39,31.8 12.13,29.63 C 11.93,28.02 11.96,26.63 12.19,25.44 C 12.25,25.16 12.46,25.01 12.82,25 C 12.92,25 12.96,25.04 12.96,25.13 Z M 18.91,31.33 C 19.23,29.89 18.71,29.08 17.35,28.89 C 17.29,28.89 17.27,28.91 17.29,28.97 C 17.49,29.61 17.56,30.27 17.48,30.95 C 17.36,31.94 18.77,31.97 18.91,31.34 Z" fill="rgb(254, 254, 253)"/>
</svg>
