<?xml version="1.0" encoding="UTF-8"?>
<!-- generated by Finnhub -->
<svg viewBox="0 0 55.5 55.5" xmlns="http://www.w3.org/2000/svg">
<path d="M 0,0 H 55.5 V 55.5 H 0 Z" fill="rgb(239, 242, 248)"/>
<path d="M 51.99,27.985 C 52,30.8 49.7,33.37 45.92,35.32 A 1.68,1.68 0 0,1 44.25,37.06 C 43.79,37.06 43.38,36.86 43.07,36.56 A 44.3,44.3 0 0,1 28,39 C 21.3,39 15.25,37.74 10.9,35.72 A 5.92,5.92 0 0,1 7.3,34.75 V 33.56 C 5.2,31.93 4,30.03 4,28 C 4,25.34 6.06,22.9 9.5,21 A 2.61,2.61 0 0,1 12.08,18.54 C 12.71,18.54 13.29,18.77 13.74,19.15 A 45.18,45.18 0 0,1 28,17 C 41.25,17 52,21.92 52,28 Z M 51.41,27.84 C 51.41,30.44 49.21,32.82 45.59,34.64 V 34.74 C 45.59,35.62 44.86,36.34 43.96,36.34 C 43.49,36.34 43.07,36.14 42.77,35.84 A 44.89,44.89 0 0,1 27.95,38.15 C 21.42,38.15 15.5,36.98 11.25,35.08 C 9.85,35.22 8.4,34.58 7.77,34.17 V 33.1 C 5.69,31.56 4.49,29.76 4.49,27.84 C 4.49,25.32 6.56,23 9.99,21.21 A 2.12,2.12 0 0,1 12.14,19.15 C 12.69,19.15 13.2,19.35 13.58,19.69 A 45.42,45.42 0 0,1 27.95,17.53 C 40.91,17.53 51.41,22.15 51.41,27.84 Z" fill="rgb(181, 181, 180)" fill-rule="evenodd"/>
<path d="M 40.050000000000004,35.415 C 36.59,36.37 32.46,36.91 28.03,36.91 C 22.24,36.91 16.97,35.99 13.03,34.47 C 13.29,34.27 13.64,33.96 13.87,33.62 C 17.62,34.9 22.59,35.68 28.03,35.68 C 32.54,35.68 36.73,35.14 40.17,34.22 L 40.06,35.43 Z M 45.26,33.47 C 48.38,31.87 50.24,29.83 50.24,27.61 C 50.24,22.47 40.29,18.31 28.03,18.31 C 22.87,18.31 18.13,19.04 14.35,20.28 C 14.43,20.49 14.53,20.85 14.59,21.37 A 46.11,46.11 0 0,1 28.03,19.54 C 39.73,19.54 49.2,23.15 49.2,27.61 C 49.2,29.52 47.46,31.27 44.55,32.66 L 45.27,33.47 Z M 10.5,23.07 C 10.3,22.82 10.05,22.5 9.9,22.24 C 7.31,23.75 5.8,25.6 5.8,27.6 C 5.8,29 6.53,30.31 7.84,31.5 V 30.06 C 7.19,29.28 6.84,28.46 6.84,27.6 C 6.84,25.92 8.19,24.36 10.49,23.06 Z" fill="rgb(237, 27, 35)"/>
<path d="M 12.43,23.155 C 13.3,23.17 14,22.47 14,21.59 C 14,20.71 13.3,20 12.44,20 C 11.58,20 10.89,20.71 10.89,21.59 C 10.89,22.46 11.59,23.17 12.44,23.17 Z M 14,24 V 31.56 C 14,32.41 13.37,34.28 11.23,34.35 C 10.8,34.36 9.67,34.24 8.59,33.65 V 30.85 C 9.31,31.39 10.92,32.05 11,30.3 V 24 H 14 Z" fill="rgb(1, 113, 185)"/>
<path d="M 26.99,21.985 H 24 V 31 H 27 V 28.36 L 28.27,31 H 31.76 L 29.87,27.75 L 31.76,24.5 H 28.27 L 27,27.14 V 22 Z" fill="rgb(237, 27, 35)"/>
<path d="M 34.99,20.985 H 32 V 31 H 35 V 27.89 L 36.48,31 H 39.97 L 37.92,27.42 L 39.88,24 H 36.39 L 35,26.92 V 21 Z" fill="rgb(1, 113, 185)"/>
<path d="M 19.99,30.165 A 2.8,2.8 0 0,1 18.04,31 C 16.36,31 15,29.43 15,27.5 S 16.36,24 18.04,24 C 18.79,24 19.47,24.31 20,24.82 V 24 H 23 V 31 H 20 V 30.18 Z M 20,27.5 C 20,28.12 19.55,28.62 19,28.62 S 18,28.12 18,27.5 C 18,26.88 18.45,26.38 19,26.38 S 20,26.88 20,27.5 Z" fill="rgb(1, 165, 80)" fill-rule="evenodd"/>
<path d="M 43.6,23.985 C 44.7,24 45.61,24.32 45.93,24.47 V 26.67 A 6.2,6.2 0 0,0 44.1,26 C 43.59,25.96 43.45,26.16 43.44,26.26 C 43.39,26.36 43.43,26.6 43.94,26.68 C 44.56,26.78 46.23,27.12 46.24,28.52 C 46.25,29.92 44.81,31.01 42.99,31.01 A 5.85,5.85 0 0,1 40.27,30.45 V 28.17 C 41.07,28.79 41.82,28.94 42.17,28.94 C 42.64,28.94 42.99,28.9 42.99,28.6 C 42.99,28.36 42.79,28.26 42.57,28.26 C 41.77,28.26 40.02,28.02 40.11,26.4 C 40.23,24.36 42.25,24 43.61,24.01 Z" fill="rgb(1, 165, 80)"/>
<path d="M 19.63,31.985 H 20.91 C 21.01,32 21.14,32.05 21.25,32.15 C 21.37,32.25 21.45,32.42 21.45,32.65 C 21.45,32.9 21.31,33.05 21.15,33.15 A 0.95,0.95 0 0,1 20.7,33.25 H 19.94 V 34 H 19.64 V 32 Z M 19.94,32.95 H 20.7 C 20.79,32.95 20.91,32.93 21,32.88 C 21.1,32.83 21.15,32.76 21.15,32.64 C 21.15,32.5 21.1,32.42 21.05,32.37 A 0.3,0.3 0 0,0 20.89,32.3 H 19.94 V 32.95 Z"/>
<path d="M 22.689999999999998,33.075 H 23.42 L 23.06,32.39 L 22.7,33.09 Z M 23.56,33.38 L 23.88,34 H 24.2 L 23.2,32 H 22.93 L 21.89,34 H 22.23 L 22.55,33.38 H 23.56 Z" fill-rule="evenodd"/>
<path d="M 26.18,32.285 C 25.76,32.3 25.43,32.62 25.43,33 C 25.43,33.38 25.76,33.7 26.19,33.7 C 26.55,33.7 26.84,33.48 26.93,33.18 L 27.21,33.27 C 27.09,33.69 26.67,34 26.19,34 C 25.61,34 25.13,33.56 25.13,33 S 25.61,32 26.19,32 C 26.63,32 27.01,32.25 27.17,32.62 L 26.9,32.74 A 0.77,0.77 0 0,0 26.19,32.3 Z M 35.83,32.3 C 35.4,32.3 35.07,32.62 35.07,33 C 35.07,33.38 35.4,33.7 35.83,33.7 C 36.19,33.7 36.49,33.47 36.57,33.18 L 36.86,33.27 C 36.73,33.69 36.32,34 35.83,34 C 35.26,34 34.77,33.56 34.77,33 S 35.26,32 35.83,32 C 36.27,32 36.66,32.25 36.82,32.62 L 36.54,32.74 A 0.76,0.76 0 0,0 35.84,32.3 Z M 28.61,34 V 32 H 28.91 V 34 H 28.61 Z M 33.32,34 V 32 H 33.62 V 34 H 33.32 Z M 30.42,32 H 32.15 V 32.3 H 30.72 V 32.83 H 31.96 V 33.13 H 30.72 V 34 H 30.42 V 32 Z"/>
<path d="M 40.15,31.985 C 39.93,31.78 40.06,31.47 40.16,31.34 L 42.11,33.06 H 42.98 L 43.14,32.81 L 44.08,33.35 C 43.78,33.78 43.34,33.63 43.14,33.5 H 42.69 L 44.65,35.22 A 0.55,0.55 0 0,1 43.95,35.35 C 43.75,35.23 43.7,34.95 43.69,34.81 L 42.47,33.85 L 41.36,35.08 L 42.11,33.35 L 40.7,32.13 C 40.61,32.18 40.4,32.22 40.16,32 Z" fill="rgb(109, 110, 113)"/>
<path d="M 40.77,31.285 C 40.55,31.11 40.27,31.27 40.16,31.34 L 42.11,33.07 H 42.98 L 43.11,32.87 L 44.07,33.35 C 44.15,33.17 44.19,32.92 43.95,32.7 C 43.75,32.53 43.39,32.58 43.23,32.62 L 44.11,31.38 L 43.76,31.12 L 42.2,32.77 L 40.96,31.78 C 41,31.7 41.01,31.48 40.78,31.3 Z M 44.66,35.22 L 42.68,33.49 H 43.03 L 44.11,34.44 C 44.77,34.51 44.75,34.99 44.66,35.22 Z" fill="rgb(175, 178, 184)"/>
<path d="M 40.84,35.605 L 41.36,35.08 L 40.89,34.78 L 40.53,35.37 L 40.85,35.62 Z" fill="rgb(109, 110, 113)"/>
<path d="M 42.03,33.245 C 41.56,33.76 41.07,34.49 40.88,34.79 L 41.37,35.08 L 42.14,33.39 L 42.04,33.26 Z" fill="rgb(175, 178, 184)"/>
<path d="M 41.46,33.745 C 41.75,33.79 41.92,33.51 41.95,33.3 H 41.08 C 41.07,33.44 41.18,33.74 41.47,33.76 Z" fill="rgb(109, 110, 113)"/>
<path d="M 41.06,33.295 H 41.95 C 41.91,33.23 41.8,32.95 41.53,32.95 C 41.18,32.95 41.11,33.19 41.07,33.31 Z" fill="rgb(175, 178, 184)"/>
</svg>
