<?xml version="1.0" encoding="UTF-8"?>
<!-- generated by Finnhub -->
<svg viewBox="0 0 55.5 55.5" xmlns="http://www.w3.org/2000/svg">
<path d="M 0,0 H 55.5 V 55.5 H 0 Z" fill="rgb(68, 72, 83)"/>
<path d="M 35.92,18.985 C 32.34,19 30.19,20.56 29.21,23.9 L 26.73,31.47 C 25.81,34.07 24.31,35 21.63,35 H 15.43 C 14.65,35 14,35.69 14,36.49 V 40.67 C 14,41.4 14.59,42 15.37,42 H 40.57 C 41.35,42 42,41.33 42,40.53 V 20.43 C 42,19.63 41.41,19 40.63,19 H 35.93 Z M 15.5,14 C 14.72,14 14,14.73 14,15.53 V 26.45 C 14,27.32 14.65,28 15.5,28 H 20.85 C 23.27,28 26.66,27.33 27.58,22.93 L 29,15.87 C 29.2,14.87 28.48,14 27.5,14 H 15.5 Z" fill="rgb(118, 142, 177)"/>
</svg>
