<?xml version="1.0" encoding="UTF-8"?>
<!-- generated by Finnhub -->
<svg viewBox="0 0 55.5 55.5" xmlns="http://www.w3.org/2000/svg">
<path d="M 0,0 H 55.5 V 55.5 H 0 Z" fill="rgb(239, 242, 248)"/>
<path d="M 27.99,10.985 A 2,2 0 1,0 28,7 A 2,2 0 0,0 28,11 Z" fill="rgb(65, 101, 145)"/>
<path d="M 30.889999999999997,11.045 C 30.8,10.96 30.63,10.99 30.52,11.09 C 29.9,11.84 29,12.48 28,12.48 S 26.1,11.81 25.48,11.09 C 25.38,10.99 25.24,10.96 25.1,11.06 C 25,11.16 24.96,11.29 25.06,11.42 C 25.72,12.2 26.46,12.93 27.5,13 V 49.5 C 27.5,49.63 27.65,50 28,50 S 28.5,49.66 28.5,49.5 V 13 C 29.54,12.93 30.28,12.2 30.94,11.42 C 31.04,11.32 31.01,11.16 30.9,11.06 Z" fill="rgb(53, 53, 52)"/>
<path d="M 23.99,12.985 A 25.04,25.04 0 0,0 20.54,17.02 C 20.02,17.78 19.61,18.62 19.34,19.51 A 7.4,7.4 0 0,0 19.02,22.26 C 19.09,23.17 19.33,24.09 19.72,24.94 C 21.62,29.21 25.65,31.75 28.33,35.47 A 12.72,12.72 0 0,1 31,42.63 C 31.12,45.29 30.36,47.77 29,50 C 30.67,47.88 32,45.34 32,42.57 C 32,39.76 30.77,37.23 29.2,34.95 A 35.67,35.67 0 0,0 25.6,30.76 C 22.95,28.26 20,25.25 20,21.32 C 20,19.92 20.28,18.52 21.03,17.29 C 21.86,15.75 22.83,14.41 24,13 Z" fill="rgb(191, 1, 2)"/>
<path d="M 31.99,12.985 A 25.04,25.04 0 0,1 35.46,17.02 C 35.98,17.78 36.39,18.62 36.66,19.51 C 36.94,20.39 37.05,21.34 36.98,22.26 A 8.1,8.1 0 0,1 36.28,24.94 C 34.38,29.21 30.35,31.75 27.67,35.47 A 12.72,12.72 0 0,0 25,42.63 C 24.88,45.29 25.64,47.77 27,50 C 25.33,47.88 24,45.34 24,42.57 C 24,39.76 25.23,37.23 26.8,34.95 A 35.67,35.67 0 0,1 30.4,30.76 C 33.05,28.26 36,25.25 36,21.32 C 36,19.92 35.72,18.52 34.97,17.29 A 25.32,25.32 0 0,0 32,13 Z" fill="rgb(65, 101, 145)"/>
</svg>
