<?xml version="1.0" encoding="UTF-8"?>
<!-- generated by Finnhub -->
<svg viewBox="0 0 55.5 55.5" xmlns="http://www.w3.org/2000/svg">
<path d="M 0,0 H 55.5 V 55.5 H 0 Z" fill="rgb(239, 242, 248)"/>
<path d="M 43.99,19.925 V 36.06 C 44,36.66 43.57,37.41 43.04,37.71 L 28.96,45.77 C 28.43,46.07 27.57,46.07 27.04,45.77 L 12.96,37.71 A 2.1,2.1 0 0,1 12,36.06 V 19.94 C 12,19.34 12.43,18.59 12.96,18.29 L 27.04,10.23 C 27.57,9.93 28.44,9.93 28.96,10.23 L 43.04,18.29 C 43.57,18.59 44,19.33 44,19.94 Z M 31.76,36.22 L 28.02,34.09 L 24.27,36.23 L 27.1,37.85 C 27.6,38.13 28.42,38.13 28.91,37.85 L 31.76,36.22 Z M 23.46,35.76 L 27.21,33.62 L 25.09,32.42 A 0.4,0.4 0 0,1 24.89,32.13 L 24.03,27.02 C 23.96,26.59 23.55,26.02 23.18,25.8 L 19,23.42 V 32.15 C 19,32.71 19.35,33.41 19.85,33.7 L 23.45,35.76 Z M 19.38,22.7 L 23.58,25.1 A 2.84,2.84 0 0,1 24.83,26.87 L 25.68,31.99 H 30.38 L 31.21,26.87 C 31.32,26.21 31.87,25.43 32.46,25.09 L 36.64,22.71 C 36.5,22.54 36.34,22.38 36.17,22.28 L 28.91,18.14 A 2.06,2.06 0 0,0 27.1,18.14 L 19.84,22.28 C 19.68,22.38 19.52,22.53 19.38,22.7 Z M 37,23.85 V 23.44 L 32.86,25.8 C 32.49,26.02 32.08,26.59 32.01,27.01 L 31.15,32.13 A 0.4,0.4 0 0,1 30.95,32.41 L 28.83,33.62 L 32.57,35.75 L 36.17,33.7 C 36.67,33.41 37,32.71 37,32.14 V 23.84 Z" fill="rgb(1, 73, 237)"/>
</svg>
