<?xml version="1.0" encoding="UTF-8"?>
<!-- generated by Finnhub -->
<svg viewBox="0 0 55.5 55.5" xmlns="http://www.w3.org/2000/svg">
<path d="M 0,0 H 55.5 V 55.5 H 0 Z" fill="rgb(239, 242, 248)"/>
<path d="M 13.99,27.985 C 14.5,28.5 15.5,29.7 15.5,30.5 S 15.17,33.17 15,34 H 17.5 V 30.5 C 17.5,29.3 18.83,28 19.5,27.5 C 19.9,28.3 21,29.17 21.5,29.5 C 21.9,28.7 22,27.5 22,27 C 23.07,27.8 24.11,27.67 24.5,27.5 L 23,26 H 20 C 19.2,26 19.67,25.33 20,25 A 2.8,2.8 0 0,1 20,22 C 19.2,22 18.67,21 18.5,20.5 H 18 C 18.4,19.3 18.17,18.67 18,18.5 C 17.2,18.5 16,19.83 15.5,20.5 A 6.7,6.7 0 0,0 13.5,18.5 C 13.11,19.27 13.32,20.73 13.48,21.43 C 13.3,21.05 11.78,20.66 11,20.5 L 11.5,22.5 C 10.7,22.5 9.5,23.5 9,24 C 9.4,24.4 10.83,24.5 11.5,24.5 C 9.9,24.9 9.17,27 9,28 C 10.6,28 11.67,27.33 12,27 A 3.55,3.55 0 0,0 12,29.5 A 9.1,9.1 0 0,0 14,28 Z M 14.5,22.5 L 15,24 L 15.5,23 L 14.5,22.5 Z M 16.5,23.5 L 16,24 V 25 L 17.5,24 L 16.5,23.5 Z M 15.5,27.5 V 26 L 14.5,27 L 16,29 V 27.5 H 15.5 Z M 17,27 V 28.5 L 19,27 V 26 L 17,27 Z" fill="rgb(250, 214, 159)" fill-rule="evenodd"/>
<path d="M 26.49,34.985 C 26.67,33.83 27,31.2 27,30 C 27,28.8 25.67,26.83 25,26 C 24.83,26.17 24.4,26.4 24,26 S 23.5,24.83 23.5,24.5 C 22.83,24.83 21.2,25.3 20,24.5 C 20.17,23.83 20.9,22.3 22.5,21.5 C 22,21.33 20.8,20.9 20,20.5 C 20.33,20 21.4,19 23,19 C 22.67,18.67 22,17.8 22,17 C 22.83,17 24.6,17.2 25,18 V 14.5 C 25.67,14.83 27.1,15.7 27.5,16.5 C 27.83,15.83 28.8,14.4 30,14 C 30.5,14.33 31.4,15.4 31,17 C 31.33,16.67 32.4,16 34,16 A 5,5 0 0,1 33.5,18 H 35.5 L 34,20 C 35,19.83 37.4,19.8 39,21 C 38.67,21.33 37.8,22 37,22 C 37.5,22.67 38.5,24.4 38.5,26 C 37.83,26 36.3,25.8 35.5,25 C 35.67,25.33 35.8,26.4 35,28 C 34.17,27.83 32.5,27.2 32.5,26 C 31.83,26.33 30.4,27.6 30,30 C 29.6,32.4 30.17,34.67 30.5,35.5 L 26.5,35 Z M 27.5,20 L 26,19 L 26.5,20.5 L 27.5,20 Z M 28.5,20 L 27.5,21 L 28,22.5 L 30,21 L 28.5,20 Z M 26,25.5 L 27,24 L 27.5,26 H 28 V 27.5 L 26,25.5 Z M 29.5,25.5 V 27 L 32,25 L 31.5,23.5 L 29.5,25.5 Z M 31.5,21.5 L 34,22 L 31.98,22.95 L 31.5,21.5 Z" fill="rgb(162, 28, 52)" fill-rule="evenodd"/>
<path d="M 38.49,35.485 C 38.83,34.67 39.5,32.7 39.5,31.5 C 39.5,30.3 38.5,28.67 38,28 L 37,28.5 L 36.5,26.5 L 39,27.5 L 40,29 L 40.5,27.5 L 39.5,27 C 39.67,26.5 40,25.4 40,25 L 41.5,24 L 40.5,23.5 L 39.5,24 L 39,22.5 L 40,21.5 C 40.17,20.67 40.8,18.8 42,18 C 42.33,18.67 42.9,20.2 42.5,21 C 42.67,20.67 43.4,20 45,20 C 45,20.5 44.9,21.6 44.5,22 H 46 L 45,23 C 45.83,23 47.7,23.2 48.5,24 C 48.17,24.33 47.4,25 47,25 C 47.33,25.17 48.1,26 48.5,28 C 48,27.83 46.8,27.4 46,27 V 29.5 C 45.33,29.17 43.9,28.3 43.5,27.5 C 42.83,27.83 41.5,29 41.5,31 S 41.83,34.83 42,35.5 H 38.5 Z M 44,24.5 L 44.5,26 L 46,24.5 H 44 Z M 41,28.5 V 27 L 43,26 L 43.5,27 L 41,28.5 Z" fill="rgb(244, 167, 27)" fill-rule="evenodd"/>
<path d="M 37.010000000000005,19.134999999999998 C 37.88,19.58 38.71,20.08 39.5,20.64 L 39.75,19.59 C 39.03,19.11 38.27,18.66 37.5,18.27 L 37.02,19.15 Z M 21.15,17.15 C 20.2,17.48 19.28,17.87 18.39,18.33 L 19.3,18.99 A 20,20 0 0,1 21.57,18.06 L 21.15,17.15 Z M 47.7,29.73 L 46.79,30.14 A 20,20 0 0,1 47.98,36 H 8.02 A 20,20 0 0,1 9.6,29.15 L 8.62,28.91 A 21,21 0 0,0 7,37 H 49 A 21.05,21.05 0 0,0 47.7,29.73 Z" fill="rgb(244, 167, 27)"/>
<path d="M 11.02,38.985 V 34.01 C 12.4,33.68 16.07,33.01 19.77,33.01 C 24.4,33.01 29.03,35.01 35.2,35.01 C 40.14,35.01 43.77,34.01 44.97,33.51 V 38.01 C 43.09,38.67 38.49,40.01 35.2,40.01 C 31.09,40.01 23.89,37.51 20.29,37.51 C 17.41,37.51 12.91,38.51 11.03,39.01 Z" fill="rgb(28, 38, 85)"/>
<path d="M 9.99,33.214999999999996 L 10.78,33.04 A 42.9,42.9 0 0,1 19.78,32.02 A 34.8,34.8 0 0,1 27.11,33.03 C 29.61,33.53 32.23,34.01 35.2,34.01 C 40.02,34.01 43.51,33.04 44.57,32.6 L 46,32 V 38.7 L 45.32,38.94 C 43.42,39.62 38.68,41 35.2,41 C 33,41 30.04,40.34 27.32,39.73 L 27.15,39.69 C 24.39,39.07 21.9,38.5 20.29,38.5 C 17.55,38.5 13.18,39.47 11.29,39.97 L 10,40.3 V 33.22 Z M 11.03,39 L 12.06,38.75 C 14.25,38.22 17.84,37.51 20.29,37.51 C 22.03,37.51 24.61,38.09 27.27,38.69 C 30.12,39.34 33.07,40 35.2,40 C 38.5,40 43.09,38.67 44.97,38 V 33.51 C 44.73,33.61 44.38,33.74 43.94,33.87 C 42.24,34.37 39.13,35.01 35.2,35.01 C 31.9,35.01 29.03,34.44 26.37,33.91 C 24.07,33.44 21.92,33.01 19.77,33.01 C 16.07,33.01 12.4,33.68 11.03,34.01 V 39.01 Z" fill="rgb(244, 167, 27)"/>
<path d="M 15.91,33.985 A 6.02,6.02 0 0,0 15.91,34.76 H 15.81 C 15.81,34.6 15.78,34.46 15.75,34.36 A 0.33,0.33 0 0,0 15.61,34.16 A 0.58,0.58 0 0,0 15.31,34.1 H 14.98 A 0.6,0.6 0 0,0 14.78,34.12 C 14.74,34.14 14.71,34.17 14.69,34.22 A 0.82,0.82 0 0,0 14.67,34.45 V 36.55 C 14.67,36.65 14.67,36.73 14.69,36.78 C 14.71,36.83 14.74,36.86 14.79,36.88 C 14.83,36.9 14.89,36.9 14.99,36.9 H 15.26 C 15.43,36.9 15.55,36.88 15.63,36.83 A 0.4,0.4 0 0,0 15.81,36.6 C 15.85,36.49 15.88,36.34 15.9,36.15 H 15.98 A 3.18,3.18 0 0,0 15.98,36.69 L 16,37 A 10.46,10.46 0 0,0 15.12,36.99 H 14.9 A 10.52,10.52 0 0,0 14.3,36.99 L 14,37 V 36.92 A 0.7,0.7 0 0,0 14.2,36.88 A 0.15,0.15 0 0,0 14.29,36.78 A 0.85,0.85 0 0,0 14.31,36.55 V 34.45 C 14.31,34.35 14.31,34.27 14.29,34.22 A 0.15,0.15 0 0,0 14.19,34.12 A 0.54,0.54 0 0,0 14,34.08 V 34 A 157.58,157.58 0 0,0 14.61,34.01 H 15.52 L 15.92,34 Z M 15.26,35.45 V 35.53 H 14.56 V 35.45 H 15.26 Z M 15.37,34.89 A 6.23,6.23 0 0,0 15.38,36.09 H 15.29 A 4.01,4.01 0 0,0 15.26,35.83 A 0.4,0.4 0 0,0 15.16,35.62 C 15.12,35.56 15.04,35.53 14.92,35.53 V 35.45 C 15.01,35.45 15.07,35.43 15.12,35.39 A 0.34,0.34 0 0,0 15.22,35.25 A 5.5,5.5 0 0,1 15.29,34.89 H 15.37 Z M 18.44,34 C 18.52,34 18.59,34.02 18.64,34.05 C 18.69,34.08 18.74,34.11 18.76,34.14 C 18.82,34.2 18.86,34.16 18.87,34 H 18.94 A 7.05,7.05 0 0,0 18.93,34.63 H 18.86 C 18.86,34.53 18.83,34.45 18.8,34.36 A 0.5,0.5 0 0,0 18.68,34.16 A 0.28,0.28 0 0,0 18.47,34.07 A 0.23,0.23 0 0,0 18.3,34.14 C 18.25,34.19 18.23,34.26 18.23,34.35 C 18.23,34.43 18.25,34.49 18.28,34.55 C 18.32,34.6 18.36,34.65 18.42,34.69 A 11.4,11.4 0 0,1 18.8,35.02 C 18.86,35.08 18.91,35.15 18.94,35.22 C 18.98,35.3 19,35.38 19,35.48 C 19,35.6 18.98,35.69 18.93,35.77 A 0.46,0.46 0 0,1 18.75,35.94 A 0.51,0.51 0 0,1 18.38,35.99 A 0.44,0.44 0 0,1 18.28,35.95 A 0.64,0.64 0 0,1 18.15,35.85 C 18.13,35.83 18.12,35.83 18.1,35.85 A 0.27,0.27 0 0,0 18.07,35.97 H 18 A 8.99,8.99 0 0,0 18.01,35.24 H 18.08 C 18.09,35.38 18.11,35.5 18.14,35.6 C 18.16,35.7 18.2,35.78 18.26,35.84 A 0.3,0.3 0 0,0 18.48,35.93 C 18.52,35.93 18.56,35.92 18.6,35.89 A 0.26,0.26 0 0,0 18.7,35.79 A 0.45,0.45 0 0,0 18.74,35.58 C 18.74,35.47 18.71,35.38 18.64,35.31 A 2.02,2.02 0 0,0 18.41,35.09 A 4.45,4.45 0 0,1 18.21,34.92 A 0.76,0.76 0 0,1 18.07,34.73 A 0.55,0.55 0 0,1 18.01,34.48 C 18.01,34.36 18.03,34.28 18.07,34.21 C 18.11,34.14 18.17,34.08 18.23,34.05 A 0.45,0.45 0 0,1 18.44,34 Z M 21.52,34 V 34.48 H 21.92 V 34.54 H 21.52 V 35.65 C 21.52,35.75 21.53,35.81 21.56,35.85 C 21.6,35.88 21.64,35.9 21.69,35.9 C 21.75,35.9 21.79,35.87 21.84,35.83 A 0.63,0.63 0 0,0 21.94,35.59 L 22,35.6 A 0.66,0.66 0 0,1 21.89,35.88 C 21.84,35.96 21.75,36 21.64,36 A 0.4,0.4 0 0,1 21.48,35.97 A 0.31,0.31 0 0,1 21.38,35.91 A 0.37,0.37 0 0,1 21.28,35.75 A 1.08,1.08 0 0,1 21.27,35.5 V 34.54 H 21 V 34.48 H 21.27 V 34.04 L 21.4,34.03 L 21.52,34 Z M 27.36,35 V 37.41 C 27.36,37.6 27.41,37.71 27.51,37.78 C 27.61,37.85 27.77,37.88 28,37.88 V 38 A 20.27,20.27 0 0,0 26.07,38 V 37.88 C 26.29,37.88 26.46,37.85 26.58,37.78 C 26.71,37.72 26.77,37.6 26.77,37.41 V 36.03 A 0.94,0.94 0 0,0 26.7,35.63 C 26.66,35.54 26.58,35.48 26.46,35.46 A 2.08,2.08 0 0,0 26,35.42 V 35.29 C 26.32,35.29 26.58,35.26 26.8,35.22 C 27,35.17 27.2,35.1 27.36,35 Z M 31.04,36 C 31.34,36 31.57,36.1 31.74,36.3 C 31.91,36.51 32,36.8 32,37.17 A 1.69,1.69 0 0,1 31.24,38.67 C 31.1,38.76 30.96,38.83 30.81,38.88 C 30.67,38.94 30.53,38.98 30.41,39 L 30.38,38.91 C 30.51,38.88 30.64,38.83 30.78,38.76 C 30.92,38.7 31.04,38.6 31.16,38.48 C 31.27,38.35 31.36,38.18 31.43,37.98 C 31.51,37.77 31.54,37.5 31.54,37.18 C 31.54,36.88 31.51,36.67 31.46,36.51 A 0.68,0.68 0 0,0 31.25,36.18 A 0.42,0.42 0 0,0 30.99,36.08 C 30.89,36.08 30.81,36.12 30.73,36.18 A 0.61,0.61 0 0,0 30.53,36.48 C 30.48,36.61 30.46,36.78 30.46,37.01 C 30.46,37.21 30.48,37.39 30.52,37.51 C 30.57,37.64 30.63,37.73 30.72,37.79 C 30.79,37.85 30.88,37.87 30.97,37.87 A 0.6,0.6 0 0,0 31.57,37.38 L 31.62,37.36 A 0.69,0.69 0 0,1 31.45,37.75 A 0.76,0.76 0 0,1 31.15,37.95 A 0.84,0.84 0 0,1 30.43,37.9 A 0.89,0.89 0 0,1 30.12,37.56 A 1.1,1.1 0 0,1 30,37.04 C 30,36.82 30.05,36.63 30.14,36.47 C 30.24,36.32 30.36,36.2 30.52,36.12 C 30.68,36.04 30.85,36 31.04,36 Z M 36.02,36 C 36.26,36 36.44,36.06 36.58,36.19 C 36.72,36.31 36.79,36.48 36.79,36.71 C 36.79,36.86 36.76,37 36.69,37.13 C 36.63,37.27 36.55,37.39 36.45,37.52 A 6.2,6.2 0 0,1 35.78,38.21 C 35.66,38.31 35.58,38.43 35.5,38.54 H 36.55 C 36.69,38.54 36.78,38.52 36.81,38.48 A 0.44,0.44 0 0,0 36.89,38.25 H 36.98 A 15.69,15.69 0 0,0 37,39 L 36.83,38.98 H 35.03 V 38.88 C 35.13,38.75 35.25,38.62 35.39,38.48 C 35.54,38.34 35.68,38.18 35.81,38.02 C 35.95,37.85 36.06,37.67 36.15,37.48 C 36.25,37.28 36.29,37.06 36.29,36.83 C 36.29,36.62 36.25,36.46 36.15,36.37 A 0.49,0.49 0 0,0 35.78,36.22 A 0.61,0.61 0 0,0 35.39,36.36 C 35.28,36.45 35.17,36.58 35.09,36.76 L 35,36.7 C 35.05,36.58 35.12,36.47 35.2,36.37 C 35.3,36.26 35.4,36.17 35.54,36.1 C 35.67,36.03 35.84,36 36.02,36 Z M 41.02,35 C 41.26,35 41.44,35.06 41.58,35.19 C 41.72,35.31 41.79,35.48 41.79,35.71 C 41.79,35.86 41.76,36 41.69,36.13 C 41.63,36.27 41.55,36.39 41.45,36.52 A 6.2,6.2 0 0,1 40.78,37.21 C 40.66,37.31 40.58,37.43 40.5,37.54 H 41.55 C 41.69,37.54 41.78,37.52 41.81,37.48 A 0.44,0.44 0 0,0 41.89,37.25 H 41.98 A 15.69,15.69 0 0,0 42,38 L 41.83,37.98 H 40.03 V 37.88 C 40.13,37.75 40.25,37.62 40.39,37.48 C 40.54,37.34 40.68,37.18 40.81,37.02 C 40.95,36.85 41.06,36.67 41.15,36.48 C 41.25,36.28 41.29,36.06 41.29,35.83 C 41.29,35.62 41.25,35.46 41.15,35.37 A 0.49,0.49 0 0,0 40.78,35.22 A 0.61,0.61 0 0,0 40.39,35.36 C 40.28,35.45 40.17,35.58 40.09,35.76 L 40,35.7 C 40.05,35.58 40.12,35.47 40.2,35.37 C 40.3,35.26 40.4,35.17 40.54,35.1 C 40.67,35.03 40.84,35 41.02,35 Z M 23.37,36.5 C 23.37,36.65 23.26,36.76 23.11,36.76 A 0.25,0.25 0 0,1 22.86,36.51 C 22.86,36.37 22.97,36.26 23.11,36.26 C 23.26,36.26 23.37,36.37 23.37,36.51 Z" fill="rgb(254, 254, 253)"/>
</svg>
