<?xml version="1.0" encoding="UTF-8"?>
<!-- generated by Finnhub -->
<svg viewBox="0 0 55.5 55.5" xmlns="http://www.w3.org/2000/svg">
<rect width="56" height="56" fill="rgb(239, 242, 248)"/>
<path d="M 30.578,17.871 C 30.6105,18.2594 30.7273,18.5776 30.9385,18.8406 C 31.3497,20.1898 31.8755,22.0446 32.8978,23.1375 L 28.4334,27.7336 C 28.4134,27.7541 28.3999,27.78 28.3945,27.8082 S 28.3921,27.8656 28.4032,27.8921 S 28.349,27.9411 28.3728,27.9569 S 28.4245,27.981 28.453,27.9808 C 33.3751,27.9793 39.069,27.8328 44.006,27.8358 C 44.4524,27.8782 44.7788,28.0269 44.981,27.72 L 45.8977,28.0057 C 46.0326,28.048 46.0333,28.0904 45.9,28.1327 C 42.332,29.2861 38.7737,30.4516 35.225,31.6291 C 34.2619,31.9481 33.468,32.394 32.8434,32.9669 C 31.3559,31.3555 29.8363,29.8439 28.2845,28.432 C 28.1092,28.2733 28.0223,28.3126 28.0238,28.5499 L 28.0486,42.1839 C 27.8538,42.527 27.5198,42.8573 27.0465,43.1747 C 26.3814,40.9753 25.4362,38.1742 24.2109,34.7715 C 23.9548,34.0565 23.6365,33.5176 23.256,33.1548 C 23.262,33.0127 23.2275,32.9077 23.1526,32.8397 L 27.7385,28.3387 C 27.7588,28.3183 27.7727,28.2922 27.7784,28.2638 C 27.7842,28.2354 27.7815,28.2059 27.7707,28.179 C 27.7599,28.1522 27.7415,28.1291 27.7178,28.1128 C 27.6941,28.0964 27.6661,28.0875 27.6374,28.0871 L 16.2884,28.0576 C 18.3225,26.0652 20.6353,24.4568 23.2267,23.2324 L 27.7227,27.7333 C 27.8784,27.8905 27.9563,27.8573 27.9563,27.6336 L 27.9249,11.6546 C 27.9249,11.579 27.9331,11.4918 27.8597,11.4918 C 27.7534,11.4933 27.6816,11.485 27.5737,11.4351 C 27.6142,11.2924 28.003,10.0003 28.003,10.0003 L 30.5874,17.886 Z" fill="rgb(52, 120, 190)"/>
<path d="M 27.99,10.014999999999999 V 27.634 C 28,27.8577 27.8792,27.891 27.7234,27.7338 L 23.2274,23.2329 C 23.6678,22.6116 23.9974,21.9964 24.2161,21.3872 L 28,10.0302 Z" fill="rgb(30, 60, 140)"/>
<path d="M 39.056000000000004,15.238999999999999 L 37.8055,15.5715 C 37.7014,15.5973 37.6068,15.6528 37.5327,15.7316 C 37.4587,15.8103 37.4083,15.909 37.3876,16.0159 C 37.3381,16.2698 37.2281,16.4921 37.0573,16.6825 C 37.0316,16.7103 36.998,16.7293 36.9612,16.737 S 36.8861,16.7407 36.8516,16.7255 C 36.8171,16.7104 36.7881,16.6848 36.7686,16.6523 C 36.7491,16.6199 36.7401,16.5821 36.7427,16.5442 C 36.7937,15.9018 36.6251,15.3311 36.2372,14.8323 C 36.2085,14.7961 36.1937,14.7509 36.1956,14.7048 C 36.1974,14.6588 36.2158,14.6149 36.2473,14.5811 C 36.2789,14.5474 36.3215,14.526 36.3675,14.5209 C 36.4134,14.5158 36.4597,14.5273 36.4978,14.5534 L 37.3741,15.1543 C 37.434,15.1951 37.4984,15.2034 37.5673,15.1792 L 38.9739,14.6872 C 39.0126,14.6733 39.0477,14.6505 39.0761,14.6205 C 39.1046,14.5905 39.1257,14.5542 39.1377,14.5145 S 39.1523,14.4329 39.1453,14.3919 C 39.1383,14.351 39.1219,14.3124 39.0974,14.279 L 37.6864,12.363 C 37.6523,12.3172 37.6358,12.2604 37.6398,12.2033 C 37.6438,12.1461 37.6682,12.0923 37.7083,12.0518 C 37.7485,12.0113 37.8018,11.9867 37.8584,11.9827 C 37.9151,11.9786 37.9713,11.9953 38.0167,12.0297 L 40.7736,14.0704 C 40.8023,14.0917 40.8354,14.1062 40.8704,14.1129 C 40.9054,14.1195 40.9414,14.1182 40.9758,14.109 L 42.4385,13.7235 C 42.4804,13.7123 42.5246,13.7138 42.5657,13.7278 C 42.6067,13.7419 42.6428,13.7678 42.6695,13.8025 S 42.7124,13.879 42.7161,13.923 C 42.7197,13.967 42.7107,14.0111 42.6902,14.05 C 42.5284,14.347 41.4364,14.601 41.0859,14.7733 C 41.011,14.8096 40.9578,14.8663 40.9264,14.9434 C 40.5324,15.9199 40.1482,16.9002 39.7738,17.8843 C 39.7514,17.9425 39.714,17.9937 39.6653,18.0324 C 39.6167,18.071 39.5587,18.0959 39.4974,18.1042 C 39.2577,18.1375 39.1663,18.0082 39.2233,17.7165 C 39.3521,17.0559 39.4225,16.3333 39.4345,15.5488 C 39.4375,15.2903 39.3146,15.192 39.066,15.254 Z"/>
<path d="M 30.927999999999997,18.826 C 30.7268,18.578 30.61,18.2598 30.5875,17.8864 L 35.5373,15.4126 C 35.6182,15.3718 35.6894,15.3854 35.7508,15.4535 L 36.0856,15.8321 C 36.1209,15.8723 36.1466,15.9201 36.1607,15.9719 C 36.1747,16.0237 36.1767,16.078 36.1665,16.1305 C 36.1562,16.1831 36.134,16.2324 36.1017,16.2747 C 36.0693,16.3169 36.0277,16.351 35.98,16.374 L 30.938,18.841 Z"/>
<path d="M 32.888000000000005,23.123 C 33.3279,23.5824 33.7653,23.8893 34.2101,24.0586 L 45.9961,28.0002 H 28.4361 C 28.3147,28.0011 28.2457,27.882 28.3327,27.7931 L 32.8984,23.138 Z" fill="rgb(30, 60, 140)"/>
<path d="M 17.935,25.467 L 15.2555,28.1372 L 11.4673,28.001 C 11.3999,27.9995 11.3542,28.0312 11.3302,28.0962 C 11.2973,28.1854 11.2149,28.258 11.0831,28.3139 C 11.0831,28.3139 10.3904,28.1188 9.9999,28.001 C 13.0701,26.9605 17.945,25.482 17.945,25.482 Z" fill="rgb(52, 120, 190)"/>
<path d="M 16.279,27.985 H 27.638 C 27.7644,28.0018 27.872,28.2306 27.7864,28.3168 L 23.1532,32.8403 C 22.8881,32.5848 22.6192,32.4216 22.3466,32.3505 C 20.2076,31.1782 17.7989,30.6749 15.4644,29.854 C 15.4734,29.2327 15.7483,28.5759 16.289,28 Z" fill="rgb(30, 60, 140)"/>
<path d="M 15.44,27.985 L 14.645,29.6342 L 10.0025,28 H 15.45 Z" fill="rgb(30, 60, 140)"/>
<path d="M 32.834,32.952 C 32.119,33.9148 31.6354,34.9928 31.3823,36.0978 C 31.2287,36.4567 31.1296,36.6727 31.1101,36.9085 L 30.2421,39.3318 C 29.8392,40.3566 29.0589,41.4649 27.9999,42.3416 V 28.5496 C 27.9984,28.3122 28.1098,28.2729 28.2851,28.4317 C 29.8369,29.8435 31.3566,31.3552 32.844,32.9666 Z" fill="rgb(30, 60, 140)"/>
<path d="M 29.54,41.274 L 27.9999,46.0876 V 42.7878 C 28.3909,42.2602 28.9269,41.7607 29.55,41.289 Z" fill="rgb(30, 60, 140)"/>
<path d="M 27.99,42.772999999999996 V 46.0949 L 27.1977,43.5725 C 27.3731,43.2868 27.6207,43.0253 28,42.788 Z" fill="rgb(52, 120, 190)"/>
<path d="M 24.206,21.372 C 23.9973,21.9962 23.6677,22.6115 23.2274,23.2327 C 20.636,24.4572 18.3232,26.0656 16.289,28.0579 C 15.7483,28.6338 15.4734,29.2324 15.4644,29.8537 C 15.6846,30.9262 17.5316,31.3797 18.5089,31.6292 C 19.7312,31.939 21.0104,32.1794 22.3466,32.3502 C 22.6192,32.4213 22.8881,32.5845 23.1532,32.84 C 23.2281,32.908 23.2626,33.0131 23.2566,33.1552 C 21.1378,32.908 14.9634,32.3842 14.6443,29.6338 C 14.6443,29.6338 14.6443,28.9656 15.2555,28.1373 C 16.133,26.9479 17.945,25.4821 17.945,25.4821 C 19.8683,24.04 21.9586,22.6749 24.216,21.387 Z"/>
<path d="M 31.366999999999997,36.031 C 31.4421,36.4927 31.6623,36.8691 31.5859,37.3249 C 31.3163,38.9507 30.3861,40.0731 29.5503,41.2884 C 28.9929,41.8755 28.5574,42.2999 28.0291,42.7872 C 27.6941,43.0962 27.492,43.3218 27.1978,43.5718 C 24.8934,45.5295 23.1291,46.5293 20.0875,47.9927 C 20.0758,47.9999 20.0656,48.0015 20.059,47.9972 C 20.0524,47.993 20.0501,47.9831 20.0525,47.9699 C 20.0548,47.9567 20.0618,47.9411 20.0717,47.9267 C 20.0817,47.9123 20.0938,47.9001 20.1055,47.8929 C 22.4796,46.2654 24.3947,45.4391 27.0473,43.1749 C 27.4969,42.7912 27.7264,42.5087 28.0494,42.1841 C 29.1084,41.3073 29.8011,40.3414 30.204,39.3165 C 30.4527,38.6839 30.8273,37.5011 31.0489,36.8862 C 31.1408,36.6311 31.2289,36.359 31.377,36.046 Z"/>
</svg>
