<?xml version="1.0" encoding="UTF-8"?>
<!-- generated by Finnhub -->
<svg viewBox="0 0 55.5 55.5" xmlns="http://www.w3.org/2000/svg">
<path d="M 0,0 H 55.5 V 55.5 H 0 Z" fill="rgb(239, 242, 248)"/>
<path d="M 22.56,12.924999999999999 A 16.01,16.01 0 0,0 12,27.64 C 13.38,24.66 15.74,21.47 19.1,21.47 C 23.44,21.47 22.7,25.27 22,28.94 C 21.74,30.29 21.48,31.62 21.48,32.74 C 21.48,35.65 23,40.6 24.04,43.51 A 16.02,16.02 0 0,0 29.48,43.93 C 28.23,41.13 26.22,35.95 26.22,33.33 C 26.22,31.87 26.62,30.51 27.05,29.05 C 27.67,26.95 28.35,24.62 28,21.47 C 27.56,17.57 24.45,14.37 22.57,12.94 Z M 30.17,43.85 C 29.35,40.85 28.15,35.51 28.59,33.33 C 29.06,30.96 32.74,27.6 34.52,26.22 C 32.94,25.03 30.13,22.19 31.55,20.29 C 32.97,18.39 36.89,21.08 38.66,22.66 C 37.97,20.23 35.03,15.14 28.56,12 A 16,16 0 0,1 35.42,42.18 C 38.94,38.49 41.12,32.96 41.62,30.96 C 42.22,28.59 41.03,27.4 39.26,27.4 C 37.48,27.4 37.48,29.77 37.48,33.92 C 37.48,36.68 35.57,40.45 34.13,42.78 C 32.88,43.3 31.55,43.67 30.16,43.85 Z M 23.53,43.37 C 20.92,39.55 19.81,34.87 19,31.44 C 18.44,29.04 18.02,27.27 17.33,26.81 C 16.22,26.07 13.83,27.94 12.08,29.64 A 16.02,16.02 0 0,0 23.53,43.37 Z" fill="url(#a)"/>
<defs>
<linearGradient id="a" x1="28" x2="28" y1="11.99" y2="44" gradientUnits="userSpaceOnUse">
<stop stop-color="rgb(123, 145, 199)" offset="0"/>
<stop stop-color="rgb(3, 60, 127)" offset="1"/>
</linearGradient>
</defs>
</svg>
