<?xml version="1.0" encoding="UTF-8"?>
<!-- generated by Finnhub -->
<svg viewBox="0 0 55.5 55.5" xmlns="http://www.w3.org/2000/svg">
<path d="M 0,0 H 55.5 V 55.5 H 0 Z" fill="rgb(239, 242, 248)"/>
<path d="M 13.99,16.535 V 23.19 L 23.08,14.03 V 14 H 16.55 A 2.56,2.56 0 0,0 14,16.55 M 24,14 V 31 L 40.48,14.37 A 2.55,2.55 0 0,0 39.18,14 H 24 Z" fill="rgb(1, 111, 184)"/>
<path d="M 41.620000000000005,15.215 L 24,32.76 V 42 H 39.42 A 2.57,2.57 0 0,0 42,39.46 V 16.55 C 42,16.08 41.87,15.62 41.63,15.23 Z" fill="rgb(11, 175, 72)"/>
<path d="M 22.99,33.945 L 15.4,41.73 C 15.74,41.9 16.13,42 16.55,42 H 23 V 33.96 Z" fill="rgb(1, 111, 184)"/>
<path d="M 22.99,15.745 L 14,24.92 V 39.46 C 14,40.02 14.17,40.53 14.5,40.96 L 23,32.28 V 15.76 Z" fill="rgb(11, 175, 72)"/>
</svg>
