<?xml version="1.0" encoding="UTF-8"?>
<!-- generated by Finnhub -->
<svg viewBox="0 0 55.5 55.5" xmlns="http://www.w3.org/2000/svg">
<path d="M 0,28 A 28,28 0 1,1 56,28 A 28,28 0 0,1 0,28 Z" fill="rgb(239, 242, 248)"/>
<path d="M 6.99,21.985 H 10 V 27.5 C 10,31 8.5,31 5,31 V 29 H 5.73 S 7,28.9 7,27.5 V 22 Z"/>
<path d="M 20.99,24.585 C 21,21.92 16.56,22 16.56,22 C 12.16,21.87 12,24.6 12,24.6 V 28.67 S 12.29,31 16.56,31 C 20.82,31 21,28.5 21,28.5 V 24.6 Z M 18,25 C 18,24 16.5,24 16.5,24 C 15,24 15,25 15,25 V 28 S 15,29 16.5,29 S 18,28 18,28 V 25 Z" fill-rule="evenodd"/>
<path d="M 22.99,21.985 H 26.5 L 29,27 V 22 H 32 V 31 H 28.5 L 26,26.33 V 31 H 23 V 22 Z M 34,22 V 31 H 41 V 29 H 37 V 27.5 H 41 V 25.5 H 37 V 24 H 41 V 22 H 34 Z M 50.5,24.5 V 22.66 S 49.8,22 46.94,22 C 44.07,22 43,22.66 43,24.5 C 43,26 43.57,26.74 45,27 C 46.43,27.26 48,27.76 48,28.5 C 48,29 46.83,29 46.34,29 S 44.3,28.99 43,28.2 V 30.32 S 44.2,31 46.85,31 C 49.06,31 51,30.5 51,28 C 51,26.8 50.46,26.24 49.5,26 C 49,25.87 46,25.5 46,24.5 C 46,24.13 46.73,24 47.78,24 C 48.7,24 49.37,24.11 50.5,24.5 Z"/>
<path d="M 20.99,33.865 C 21,32.96 19.5,33 19.5,33 C 18.13,32.96 18.01,33.77 18,33.83 V 35.21 S 18.08,36 19.5,36 S 21,35.17 21,35.17 V 33.87 Z M 20,34 C 20,33.67 19.5,33.67 19.5,33.67 C 18.96,33.67 19,34 19,34 V 35.04 S 19,35.34 19.5,35.34 S 20,35.04 20,35.04 V 34 Z M 40,33.88 C 40,32.96 38.5,33 38.5,33 C 37.13,32.96 37.01,33.77 37,33.83 V 35.21 S 37.08,36 38.5,36 S 40,35.17 40,35.17 V 33.87 Z M 39,33.98 C 39,33.65 38.5,33.65 38.5,33.65 C 37.96,33.65 38,33.98 38,33.98 V 34.99 S 38,35.28 38.5,35.28 S 39,34.99 39,34.99 V 33.98 Z M 22,36 V 33 H 23.96 C 24.87,33 25,33.58 25,33.63 V 35.33 C 25,35.92 24,36 24,36 H 22 Z M 23,35.33 V 33.67 H 23.57 C 23.96,33.67 24,34.04 24,34.04 V 34.92 C 24,35.29 23.6,35.33 23.6,35.33 H 23 Z M 28.5,33 H 27.5 L 26,36 H 27 L 27.32,35.4 H 28.68 L 29,36 H 30 L 28.5,33 Z M 28.45,34.78 L 28,33.81 L 27.5,34.78 H 28.45 Z" fill-rule="evenodd"/>
<path d="M 16.99,33.815 V 33.17 S 16.2,33 15.48,33 C 14.82,33 14.01,33.17 14.01,33.67 S 13.91,34.5 14.53,34.62 C 15.15,34.75 16,34.83 16,35.17 C 16,35.5 14.9,35.46 14,35.12 V 35.79 S 14.58,36 15.58,36 C 16.53,36 16.87,35.7 16.96,35.3 C 17.06,34.88 17.01,34.54 16.48,34.38 C 15.96,34.21 15,34.25 15,33.88 C 15,33.5 15.86,33.62 17,33.83 Z M 42,35 H 41 V 36 H 42 V 35 Z M 36,33.81 V 33.17 S 35.75,33 34.7,33 S 33,33.34 33,33.69 V 35.23 S 33.1,36 34.4,36 C 35.7,36 36,35.87 36,35.87 V 35.19 S 35.6,35.36 34.85,35.36 C 34.15,35.36 34,35.01 34,35.01 V 34.07 S 34.05,33.69 34.75,33.69 C 35.1,33.69 35.4,33.69 36,33.81 Z"/>
</svg>
