<?xml version="1.0" encoding="UTF-8"?>
<!-- generated by Finnhub -->
<svg viewBox="0 0 55.5 55.5" xmlns="http://www.w3.org/2000/svg">
<path d="M 0,0 H 55.5 V 55.5 H 0 Z" fill="rgb(71, 9, 102)"/>
<path d="M 3.99,31.985 H 5 V 26 L 10,32 H 11 V 24 H 10 V 30 L 5,24 H 4 V 32 Z M 37,32 H 38 V 26 L 43,32 H 44 V 24 H 43 V 30.014 L 38,24 H 37 V 32 Z M 12,32 H 13 C 13.295,31.305 13.537,30.704 13.816,30.002 H 17.216 L 18,32 H 18.998 S 16.946,26.621 16,24 H 15 C 13.99,26.662 12.935,29.31 12,32 Z M 16.794,29.002 H 14.224 L 15.5,25.005 L 16.794,29.002 Z M 21,32 H 22 L 25,24 H 24 L 21.5,31 L 19,24 H 18 L 21,32 Z M 26,32 H 27 V 24 H 26 V 32 Z M 45,25 H 48 V 32 H 49 V 25 H 52 V 24 H 45 V 25 Z M 29,32 H 35 V 31 H 29 V 32 Z M 29,28.5 H 35 V 27.5 H 29 V 28.5 Z M 29,25 H 35 V 24 H 29 V 25 Z" fill="rgb(254, 254, 253)"/>
</svg>
