<?xml version="1.0" encoding="UTF-8"?>
<!-- generated by Finnhub -->
<svg viewBox="0 0 55.5 55.5" xmlns="http://www.w3.org/2000/svg">
<rect width="56" height="56" fill="rgb(239, 242, 248)"/>
<path d="M 34.442,38.272 C 35.2579,38.287 35.9112,37.6357 35.9112,36.8321 C 35.9112,36.0286 35.2579,35.3773 34.452,35.3773 C 33.646,35.3773 32.9927,36.0286 32.9927,36.8321 C 32.9927,37.6357 33.646,38.287 34.452,38.287 Z" fill="rgb(199, 200, 197)"/>
<path d="M 28.398,44.985 C 29.5249,45 30.4304,44.0972 30.4304,42.9837 C 30.4304,41.8701 29.5249,40.9674 28.408,40.9674 C 27.291,40.9674 26.3856,41.8701 26.3856,42.9837 C 26.3856,44.0972 27.291,45 28.408,45 Z" fill="rgb(199, 200, 197)"/>
<path d="M 44.49,30.985 C 44.7761,31 45,30.7761 45,30.5 S 44.7761,30 44.5,30 S 44,30.2239 44,30.5 S 44.2239,31 44.5,31 Z" fill="rgb(199, 200, 197)"/>
<path d="M 25.49,44.985 C 25.7761,45 26,44.7761 26,44.5 S 25.7761,44 25.5,44 S 25,44.2239 25,44.5 S 25.2239,45 25.5,45 Z" fill="rgb(199, 200, 197)"/>
<path d="M 41.619,33.283 C 42.3124,33.298 42.8663,32.7458 42.8663,32.0645 C 42.8663,31.3833 42.3124,30.8311 41.629,30.8311 C 40.9457,30.8311 40.3918,31.3833 40.3918,32.0645 C 40.3918,32.7458 40.9457,33.298 41.629,33.298 Z" fill="rgb(199, 200, 197)"/>
<path d="M 40.49,17.985 C 40.7761,18 41,17.7761 41,17.5 S 40.7761,17 40.5,17 S 40,17.2239 40,17.5 S 40.2239,18 40.5,18 Z" fill="rgb(199, 200, 197)"/>
<path d="M 39.49,22.985 C 39.7761,23 40,22.7761 40,22.5 S 39.7761,22 39.5,22 S 39,22.2239 39,22.5 S 39.2239,23 39.5,23 Z" fill="rgb(199, 200, 197)"/>
<path d="M 23.49,12.985 C 23.7761,13 24,12.7761 24,12.5 S 23.7761,12 23.5,12 S 23,12.2239 23,12.5 S 23.2239,13 23.5,13 Z" fill="rgb(199, 200, 197)"/>
<path d="M 35.925000000000004,19.366 C 36.592,19.381 37.1247,18.8499 37.1247,18.1949 S 36.592,17.0089 35.935,17.0089 S 34.7454,17.5399 34.7454,18.1949 S 35.278,19.381 35.935,19.381 Z" fill="rgb(199, 200, 197)"/>
<path d="M 28.770999999999997,14.907 C 29.2365,14.922 29.6058,14.5539 29.6058,14.0997 C 29.6058,13.6456 29.2365,13.2774 28.781,13.2774 S 27.9562,13.6456 27.9562,14.0997 C 27.9562,14.5539 28.3255,14.922 28.781,14.922 Z" fill="rgb(199, 200, 197)"/>
<path d="M 20.49,20.985 C 22.433,21 24,19.433 24,17.5 S 22.433,14 20.5,14 S 17,15.567 17,17.5 S 18.567,21 20.5,21 Z" fill="rgb(199, 200, 197)"/>
<path d="M 17.215999999999998,30.523 C 18.032,30.538 18.6853,29.8866 18.6853,29.0831 S 18.032,27.6282 17.226,27.6282 C 16.4201,27.6282 15.7667,28.2796 15.7667,29.0831 S 16.4201,30.538 17.226,30.538 Z" fill="rgb(199, 200, 197)"/>
<path d="M 15.49,38.985 C 15.7761,39 16,38.7761 16,38.5 S 15.7761,38 15.5,38 S 15,38.2239 15,38.5 S 15.2239,39 15.5,39 Z" fill="rgb(199, 200, 197)"/>
<path d="M 16.692,33.061 C 16.943,33.076 17.1382,32.8813 17.1382,32.6411 S 16.943,32.2062 16.702,32.2062 C 16.4611,32.2062 16.2658,32.4009 16.2658,32.6411 S 16.4611,33.076 16.702,33.076 Z" fill="rgb(199, 200, 197)"/>
<path d="M 11.99,25.985 C 12.5523,26 13,25.5523 13,25 S 12.5523,24 12,24 S 11,24.4477 11,25 S 11.4477,26 12,26 Z" fill="rgb(199, 200, 197)"/>
<path d="M 30.532,41.008 C 30.8267,41.023 31.0575,40.7929 31.0575,40.5091 C 31.0575,40.2252 30.8267,39.9951 30.542,39.9951 S 30.0265,40.2252 30.0265,40.5091 C 30.0265,40.7929 30.2573,41.023 30.542,41.023 Z" fill="rgb(1, 69, 117)"/>
<path d="M 22.99,43.985 C 25.2091,44 27,42.2091 27,40 S 25.2091,36 23,36 S 19,37.7909 19,40 S 20.7909,44 23,44 Z" fill="rgb(1, 69, 117)"/>
<path d="M 38.288000000000004,40.945 C 39.5551,40.96 40.5742,39.944 40.5742,38.6907 S 39.5551,36.4214 38.298,36.4214 S 36.0218,37.4374 36.0218,38.6907 S 37.0409,40.96 38.298,40.96 Z" fill="rgb(1, 69, 117)"/>
<path d="M 38.28,34.586999999999996 C 39.2493,34.602 40.0269,33.8267 40.0269,32.8704 C 40.0269,31.914 39.2493,31.1387 38.29,31.1387 C 37.3308,31.1387 36.5532,31.914 36.5532,32.8704 C 36.5532,33.8267 37.3308,34.602 38.29,34.602 Z" fill="rgb(1, 69, 117)"/>
<path d="M 31.325,44.432 C 31.5759,44.447 31.7712,44.2523 31.7712,44.0121 S 31.5759,43.5772 31.335,43.5772 S 30.8988,43.7719 30.8988,44.0121 S 31.0941,44.447 31.335,44.447 Z" fill="rgb(1, 69, 117)"/>
<path d="M 26.749,38.461999999999996 C 26.9999,38.477 27.1952,38.2823 27.1952,38.0421 C 27.1952,37.802 26.9999,37.6072 26.759,37.6072 S 26.3228,37.802 26.3228,38.0421 C 26.3228,38.2823 26.5181,38.477 26.759,38.477 Z" fill="rgb(1, 69, 117)"/>
<path d="M 27.49,40.985 C 27.7761,41 28,40.7761 28,40.5 S 27.7761,40 27.5,40 S 27,40.2239 27,40.5 S 27.2239,41 27.5,41 Z" fill="rgb(1, 69, 117)"/>
<path d="M 43.49,33.985 C 43.7761,34 44,33.7761 44,33.5 S 43.7761,33 43.5,33 S 43,33.2239 43,33.5 S 43.2239,34 43.5,34 Z" fill="rgb(1, 69, 117)"/>
<path d="M 43.49,31.985 C 43.7761,32 44,31.7761 44,31.5 S 43.7761,31 43.5,31 S 43,31.2239 43,31.5 S 43.2239,32 43.5,32 Z" fill="rgb(1, 69, 117)"/>
<path d="M 37.789,35.924 C 38.0399,35.939 38.2352,35.7443 38.2352,35.5041 S 38.0399,35.0692 37.799,35.0692 S 37.3628,35.2639 37.3628,35.5041 S 37.5581,35.939 37.799,35.939 Z" fill="rgb(1, 69, 117)"/>
<path d="M 40.802,34.429 C 41.0529,34.444 41.2482,34.2493 41.2482,34.0092 C 41.2482,33.769 41.0529,33.5743 40.812,33.5743 S 40.3758,33.769 40.3758,34.0092 C 40.3758,34.2493 40.5711,34.444 40.812,34.444 Z" fill="rgb(1, 69, 117)"/>
<path d="M 41.49,37.985 C 41.7761,38 42,37.7761 42,37.5 S 41.7761,37 41.5,37 S 41,37.2239 41,37.5 S 41.2239,38 41.5,38 Z" fill="rgb(1, 69, 117)"/>
<path d="M 32.657000000000004,40.85 C 33.324,40.865 33.8566,40.334 33.8566,39.679 C 33.8566,39.0239 33.324,38.4929 32.667,38.4929 S 31.4774,39.0239 31.4774,39.679 C 31.4774,40.334 32.01,40.865 32.667,40.865 Z" fill="rgb(1, 69, 117)"/>
<path d="M 31.27,38.311 C 31.6391,38.326 31.9303,38.0358 31.9303,37.6777 S 31.6391,37.0293 31.28,37.0293 C 30.9208,37.0293 30.6296,37.3196 30.6296,37.6777 S 30.9208,38.326 31.28,38.326 Z" fill="rgb(1, 69, 117)"/>
<path d="M 31.578999999999997,42.763 C 31.9482,42.778 32.2393,42.4877 32.2393,42.1296 S 31.9482,41.4813 31.589,41.4813 S 30.9386,41.7715 30.9386,42.1296 S 31.2298,42.778 31.589,42.778 Z" fill="rgb(1, 69, 117)"/>
<path d="M 37.955000000000005,30.753 C 38.3242,30.768 38.6154,30.4777 38.6154,30.1196 S 38.3242,29.4712 37.965,29.4712 S 37.3147,29.7615 37.3147,30.1196 S 37.6058,30.768 37.965,30.768 Z" fill="rgb(1, 69, 117)"/>
<path d="M 36.29,42.755 C 36.8695,42.77 37.3311,42.3098 37.3311,41.7421 S 36.8695,40.7142 36.3,40.7142 C 35.7306,40.7142 35.269,41.1744 35.269,41.7421 S 35.7306,42.77 36.3,42.77 Z" fill="rgb(1, 69, 117)"/>
<path d="M 37.702000000000005,20.118 C 37.9967,20.133 38.2275,19.9029 38.2275,19.6191 C 38.2275,19.3352 37.9967,19.1051 37.712,19.1051 S 37.1965,19.3352 37.1965,19.6191 C 37.1965,19.9029 37.4273,20.133 37.712,20.133 Z" fill="rgb(1, 69, 117)"/>
<path d="M 27.375,13.12 C 27.9764,13.135 28.4557,12.6571 28.4557,12.0675 C 28.4557,11.478 27.9764,11.0001 27.385,11.0001 C 26.7937,11.0001 26.3144,11.478 26.3144,12.0675 C 26.3144,12.6571 26.7937,13.135 27.385,13.135 Z" fill="rgb(1, 69, 117)"/>
<path d="M 29.944999999999997,18.402 C 30.358,18.417 30.6846,18.0913 30.6846,17.6895 C 30.6846,17.2878 30.358,16.9621 29.955,16.9621 S 29.2253,17.2878 29.2253,17.6895 C 29.2253,18.0913 29.552,18.417 29.955,18.417 Z" fill="rgb(1, 69, 117)"/>
<path d="M 31.99,15.985 C 33.1046,16 34,15.1046 34,14 S 33.1046,12 32,12 S 30,12.8954 30,14 S 30.8954,16 32,16 Z" fill="rgb(1, 69, 117)"/>
<path d="M 40.99,21.985 C 42.1046,22 43,21.1046 43,20 S 42.1046,18 41,18 S 39,18.8954 39,20 S 39.8954,22 41,22 Z" fill="rgb(1, 69, 117)"/>
<path d="M 27.200999999999997,18.465 C 28.1702,18.48 28.9479,17.7047 28.9479,16.7484 C 28.9479,15.792 28.1702,15.0167 27.211,15.0167 C 26.2517,15.0167 25.4741,15.792 25.4741,16.7484 C 25.4741,17.7047 26.2517,18.48 27.211,18.48 Z" fill="rgb(1, 69, 117)"/>
<path d="M 37.456,24.538 C 37.7069,24.553 37.9022,24.3583 37.9022,24.1181 S 37.7069,23.6832 37.466,23.6832 S 37.0298,23.8779 37.0298,24.1181 S 37.2251,24.553 37.466,24.553 Z" fill="rgb(1, 69, 117)"/>
<path d="M 36.337,16.416999999999998 C 36.5879,16.432 36.7832,16.2373 36.7832,15.9971 S 36.5879,15.5622 36.347,15.5622 S 35.9108,15.7569 35.9108,15.9971 C 35.9108,16.2373 36.1061,16.432 36.347,16.432 Z" fill="rgb(1, 69, 117)"/>
<path d="M 25.122999999999998,12.415999999999999 C 25.4615,12.431 25.7278,12.1655 25.7278,11.838 S 25.4615,11.245 25.133,11.245 S 24.5381,11.5105 24.5381,11.838 S 24.8045,12.431 25.133,12.431 Z" fill="rgb(1, 69, 117)"/>
<path d="M 29.49,15.985 C 29.7761,16 30,15.7761 30,15.5 S 29.7761,15 29.5,15 S 29,15.2239 29,15.5 S 29.2239,16 29.5,16 Z" fill="rgb(1, 69, 117)"/>
<path d="M 26.923,14.417 C 27.1739,14.432 27.3692,14.2373 27.3692,13.9971 S 27.1739,13.5622 26.933,13.5622 S 26.4968,13.7569 26.4968,13.9971 S 26.6921,14.432 26.933,14.432 Z" fill="rgb(1, 69, 117)"/>
<path d="M 21.49,12.985 C 21.7761,13 22,12.7761 22,12.5 S 21.7761,12 21.5,12 S 21,12.2239 21,12.5 S 21.2239,13 21.5,13 Z" fill="rgb(1, 69, 117)"/>
<path d="M 29.564,12.321 C 29.8149,12.336 30.0102,12.1413 30.0102,11.9011 S 29.8149,11.4662 29.574,11.4662 S 29.1378,11.6609 29.1378,11.9011 S 29.3331,12.336 29.574,12.336 Z" fill="rgb(1, 69, 117)"/>
<path d="M 36.99,22.985 C 37.5523,23 38,22.5523 38,22 S 37.5523,21 37,21 S 36,21.4477 36,22 S 36.4477,23 37,23 Z" fill="rgb(1, 69, 117)"/>
<path d="M 34.608000000000004,16.812 C 34.9772,16.827 35.2683,16.5367 35.2683,16.1786 S 34.9772,15.5303 34.618,15.5303 S 33.9676,15.8205 33.9676,16.1786 S 34.2588,16.827 34.618,16.827 Z" fill="rgb(1, 69, 117)"/>
<path d="M 34.49,20.985 C 34.7761,21 35,20.7761 35,20.5 S 34.7761,20 34.5,20 S 34,20.2239 34,20.5 S 34.2239,21 34.5,21 Z" fill="rgb(1, 69, 117)"/>
<path d="M 38.59,18.535999999999998 C 38.9592,18.551 39.2504,18.2607 39.2504,17.9026 S 38.9592,17.2542 38.6,17.2542 C 38.2409,17.2542 37.9497,17.5445 37.9497,17.9026 S 38.2409,18.551 38.6,18.551 Z" fill="rgb(1, 69, 117)"/>
<path d="M 24.964,19.034 C 25.3332,19.049 25.6244,18.7588 25.6244,18.4007 S 25.3332,17.7523 24.974,17.7523 S 24.3237,18.0426 24.3237,18.4007 S 24.6148,19.049 24.974,19.049 Z" fill="rgb(1, 69, 117)"/>
<path d="M 38.368,16.749 C 38.9475,16.764 39.4091,16.3037 39.4091,15.736 S 38.9475,14.7081 38.378,14.7081 C 37.8086,14.7081 37.347,15.1683 37.347,15.736 S 37.8086,16.764 38.378,16.764 Z" fill="rgb(1, 69, 117)"/>
<path d="M 15.979000000000001,24.371 C 16.2737,24.386 16.5045,24.1559 16.5045,23.8721 C 16.5045,23.5882 16.2737,23.3581 15.989,23.3581 S 15.4735,23.5882 15.4735,23.8721 C 15.4735,24.1559 15.7043,24.386 15.989,24.386 Z" fill="rgb(1, 69, 117)"/>
<path d="M 18.183,32.247 C 18.596,32.262 18.9226,31.9363 18.9226,31.5345 C 18.9226,31.1328 18.596,30.8071 18.193,30.8071 S 17.4633,31.1328 17.4633,31.5345 C 17.4633,31.9363 17.79,32.262 18.193,32.262 Z" fill="rgb(1, 69, 117)"/>
<path d="M 13.49,33.985 C 14.8807,34 16,32.8807 16,31.5 S 14.8807,29 13.5,29 S 11,30.1193 11,31.5 C 11,32.8807 12.1193,34 13.5,34 Z" fill="rgb(1, 69, 117)"/>
<path d="M 12.49,22.985 C 12.7761,23 13,22.7761 13,22.5 S 12.7761,22 12.5,22 S 12,22.2239 12,22.5 S 12.2239,23 12.5,23 Z" fill="rgb(1, 69, 117)"/>
<path d="M 20.008,22.252 C 20.2589,22.267 20.4542,22.0723 20.4542,21.8322 C 20.4542,21.592 20.2589,21.3973 20.018,21.3973 S 19.5818,21.592 19.5818,21.8322 C 19.5818,22.0723 19.7771,22.267 20.018,22.267 Z" fill="rgb(1, 69, 117)"/>
<path d="M 17.668,21.532999999999998 C 17.9189,21.548 18.1142,21.3533 18.1142,21.1131 S 17.9189,20.6782 17.678,20.6782 S 17.2418,20.8729 17.2418,21.1131 S 17.4371,21.548 17.678,21.548 Z" fill="rgb(1, 69, 117)"/>
<path d="M 13.512,27.288999999999998 C 13.763,27.304 13.9583,27.1093 13.9583,26.8691 S 13.763,26.4342 13.522,26.4342 C 13.2811,26.4342 13.0858,26.6289 13.0858,26.8691 S 13.2811,27.304 13.522,27.304 Z" fill="rgb(1, 69, 117)"/>
<path d="M 16.485999999999997,36.406 C 16.7369,36.421 16.9322,36.2263 16.9322,35.9861 S 16.7369,35.5512 16.496,35.5512 S 16.0598,35.7459 16.0598,35.9861 S 16.2551,36.421 16.496,36.421 Z" fill="rgb(1, 69, 117)"/>
<path d="M 17.874,41.482 C 18.1249,41.497 18.3202,41.3023 18.3202,41.0621 S 18.1249,40.6272 17.884,40.6272 S 17.4478,40.8219 17.4478,41.0621 S 17.6431,41.497 17.884,41.497 Z" fill="rgb(1, 69, 117)"/>
<path d="M 13.346,35.18 C 13.5969,35.195 13.7922,35.0003 13.7922,34.7601 S 13.5969,34.3252 13.356,34.3252 S 12.9198,34.5199 12.9198,34.7601 S 13.1151,35.195 13.356,35.195 Z" fill="rgb(1, 69, 117)"/>
<path d="M 15.99,26.985 C 16.5523,27 17,26.5523 17,26 S 16.5523,25 16,25 S 15,25.4477 15,26 S 15.4477,27 16,27 Z" fill="rgb(1, 69, 117)"/>
<path d="M 18.357999999999997,24.569 C 19.1345,24.584 19.7559,23.9645 19.7559,23.2003 C 19.7559,22.436 19.1345,21.8165 18.368,21.8165 C 17.6014,21.8165 16.98,22.436 16.98,23.2003 C 16.98,23.9645 17.6014,24.584 18.368,24.584 Z" fill="rgb(1, 69, 117)"/>
<path d="M 15.49,17.985 C 15.7761,18 16,17.7761 16,17.5 S 15.7761,17 15.5,17 S 15,17.2239 15,17.5 S 15.2239,18 15.5,18 Z" fill="rgb(1, 69, 117)"/>
<path d="M 14.043000000000001,24.601 C 14.4122,24.616 14.7034,24.3257 14.7034,23.9676 S 14.4122,23.3192 14.053,23.3192 S 13.4027,23.6095 13.4027,23.9676 S 13.6938,24.616 14.053,24.616 Z" fill="rgb(1, 69, 117)"/>
<path d="M 21.291999999999998,36.113 C 21.6612,36.128 21.9524,35.8377 21.9524,35.4796 C 21.9524,35.1216 21.6612,34.8313 21.302,34.8313 S 20.6517,35.1216 20.6517,35.4796 C 20.6517,35.8377 20.9428,36.128 21.302,36.128 Z" fill="rgb(1, 69, 117)"/>
<path d="M 11.99,28.985 C 12.5523,29 13,28.5523 13,28 S 12.5523,27 12,27 S 11,27.4477 11,28 S 11.4477,29 12,29 Z" fill="rgb(1, 69, 117)"/>
<path d="M 17.770999999999997,38.881 C 18.4643,38.896 19.0182,38.3438 19.0182,37.6625 C 19.0182,36.9813 18.4643,36.429 17.781,36.429 S 16.5437,36.9813 16.5437,37.6625 C 16.5437,38.3438 17.0977,38.896 17.781,38.896 Z" fill="rgb(1, 69, 117)"/>
<path d="M 33.577000000000005,44.028 C 34.1564,44.043 34.618,43.5828 34.618,43.0151 S 34.1564,41.9871 33.587,41.9871 C 33.0175,41.9871 32.5559,42.4474 32.5559,43.0151 S 33.0175,44.043 33.587,44.043 Z" fill="rgb(1, 133, 212)"/>
<path d="M 42.262,36.414 C 42.8633,36.429 43.3426,35.9511 43.3426,35.3615 C 43.3426,34.772 42.8633,34.2941 42.272,34.2941 C 41.6806,34.2941 41.2013,34.772 41.2013,35.3615 C 41.2013,35.9511 41.6806,36.429 42.272,36.429 Z" fill="rgb(1, 133, 212)"/>
<path d="M 34.49,41.985 C 34.7761,42 35,41.7761 35,41.5 S 34.7761,41 34.5,41 S 34,41.2239 34,41.5 S 34.2239,42 34.5,42 Z" fill="rgb(1, 133, 212)"/>
<path d="M 28.762999999999998,40.153999999999996 C 29.5395,40.169 30.1609,39.5495 30.1609,38.7853 S 29.5395,37.4016 28.773,37.4016 S 27.3851,38.0211 27.3851,38.7853 S 28.0065,40.169 28.773,40.169 Z" fill="rgb(1, 133, 212)"/>
<path d="M 41.49,29.985 C 43.433,30 45,28.433 45,26.5 S 43.433,23 41.5,23 S 38,24.567 38,26.5 S 39.567,30 41.5,30 Z" fill="rgb(1, 133, 212)"/>
<path d="M 32.562000000000005,19.525 C 33.3779,19.54 34.0313,18.8886 34.0313,18.0851 S 33.3779,16.6302 32.572,16.6302 C 31.766,16.6302 31.1127,17.2816 31.1127,18.0851 S 31.766,19.54 32.572,19.54 Z" fill="rgb(1, 133, 212)"/>
<path d="M 35.901,15.040999999999999 C 36.4804,15.056 36.942,14.5958 36.942,14.0281 S 36.4804,13.0002 35.911,13.0002 S 34.88,13.4604 34.88,14.0281 S 35.3416,15.056 35.911,15.056 Z" fill="rgb(1, 133, 212)"/>
<path d="M 24.99,14.985 C 25.5523,15 26,14.5523 26,14 S 25.5523,13 25,13 S 24,13.4477 24,14 S 24.4477,15 25,15 Z" fill="rgb(1, 133, 212)"/>
<path d="M 14.892,22.79 C 16.019,22.805 16.9244,21.9023 16.9244,20.7887 C 16.9244,19.6752 16.019,18.7725 14.902,18.7725 C 13.7851,18.7725 12.8796,19.6752 12.8796,20.7887 C 12.8796,21.9023 13.7851,22.805 14.902,22.805 Z" fill="rgb(1, 133, 212)"/>
<path d="M 18.49,35.985 C 19.3284,36 20,35.3284 20,34.5 S 19.3284,33 18.5,33 S 17,33.6716 17,34.5 S 17.6716,36 18.5,36 Z" fill="rgb(1, 133, 212)"/>
<path d="M 17.104999999999997,40.399 C 17.4436,40.414 17.7099,40.1485 17.7099,39.821 S 17.4436,39.228 17.115,39.228 C 16.7865,39.228 16.5202,39.4935 16.5202,39.821 S 16.7865,40.414 17.115,40.414 Z" fill="rgb(1, 133, 212)"/>
<path d="M 14.535,28.894 C 14.9042,28.909 15.1954,28.6187 15.1954,28.2606 C 15.1954,27.9026 14.9042,27.6123 14.545,27.6123 C 14.1859,27.6123 13.8947,27.9026 13.8947,28.2606 C 13.8947,28.6187 14.1859,28.909 14.545,28.909 Z" fill="rgb(1, 133, 212)"/>
<path d="M 18.064,26.554 C 18.4332,26.569 18.7243,26.2787 18.7243,25.9207 C 18.7243,25.5626 18.4332,25.2723 18.074,25.2723 S 17.4237,25.5626 17.4237,25.9207 C 17.4237,26.2787 17.7148,26.569 18.074,26.569 Z" fill="rgb(1, 133, 212)"/>
<path d="M 15.653,35.149 C 16.1186,35.164 16.4879,34.7958 16.4879,34.3416 C 16.4879,33.8875 16.1186,33.5193 15.663,33.5193 C 15.2075,33.5193 14.8382,33.8875 14.8382,34.3416 C 14.8382,34.7958 15.2075,35.164 15.663,35.164 Z" fill="rgb(1, 133, 212)"/>
<path d="M 36.092,35.481 C 36.505,35.496 36.8316,35.1704 36.8316,34.7686 S 36.505,34.0412 36.102,34.0412 S 35.3723,34.3668 35.3723,34.7686 S 35.699,35.496 36.102,35.496 Z" fill="rgb(1, 133, 212)"/>
<path d="M 35.068000000000005,40.185 C 35.4371,40.2 35.7283,39.9097 35.7283,39.5516 C 35.7283,39.1936 35.4371,38.9033 35.078,38.9033 C 34.7188,38.9033 34.4276,39.1936 34.4276,39.5516 C 34.4276,39.9097 34.7188,40.2 35.078,40.2 Z" fill="rgb(1, 133, 212)"/>
<path d="M 43.49,22.985 C 43.7761,23 44,22.7761 44,22.5 S 43.7761,22 43.5,22 S 43,22.2239 43,22.5 S 43.2239,23 43.5,23 Z" fill="rgb(1, 133, 212)"/>
<path d="M 14.583,37.616 C 15.1843,37.631 15.6637,37.1531 15.6637,36.5636 S 15.1843,35.4962 14.593,35.4962 S 13.5223,35.9741 13.5223,36.5636 S 14.0017,37.631 14.593,37.631 Z" fill="rgb(1, 133, 212)"/>
<path d="M 39.795,36.359 C 40.2605,36.374 40.6298,36.0058 40.6298,35.5516 C 40.6298,35.0975 40.2605,34.7293 39.805,34.7293 C 39.3494,34.7293 38.9801,35.0975 38.9801,35.5516 C 38.9801,36.0058 39.3494,36.374 39.805,36.374 Z" fill="rgb(1, 133, 212)"/>
</svg>
