<?xml version="1.0" encoding="UTF-8"?>
<!-- generated by Finnhub -->
<svg viewBox="0 0 55.5 55.5" xmlns="http://www.w3.org/2000/svg">
<path d="M 0,0 H 55.5 V 55.5 H 0 Z" fill="rgb(235, 133, 49)"/>
<path d="M 12.82,28.055 L 15.64,28.39 C 15.85,28.41 16.01,28.59 16.01,28.81 C 15.96,32.77 16.33,39.48 16.82,42.22 C 16.9,42.7 17.33,43 17.82,43 H 22.03 C 22.17,43 22.28,42.88 22.27,42.74 C 22.16,41.64 21.94,39.02 21.91,37.02 C 21.91,36.92 21.86,36.84 21.77,36.8 A 3.19,3.19 0 0,1 19.95,33.92 C 19.95,31.21 19.99,27.36 20.21,23.52 C 20.23,23.23 20.47,23 20.77,23.01 C 21.08,23.01 21.33,23.27 21.31,23.59 C 21.15,26.99 21.06,29.42 21.03,30.69 A 0.8,0.8 0 0,0 21.82,31.51 C 22.28,31.53 22.67,31.15 22.67,30.68 C 22.67,29.4 22.71,26.98 22.95,23.51 A 0.55,0.55 0 0,1 24.05,23.58 A 221.3,221.3 0 0,0 23.76,30.66 A 0.8,0.8 0 0,0 24.55,31.48 C 25.02,31.5 25.41,31.12 25.41,30.65 C 25.41,29.37 25.45,26.94 25.69,23.5 C 25.71,23.22 25.95,23 26.23,23 C 26.55,23.01 26.79,23.28 26.77,23.59 C 26.62,25.89 26.52,30.59 26.47,33.89 A 3.27,3.27 0 0,1 24.8,36.69 A 0.25,0.25 0 0,0 24.68,36.92 C 24.83,40.02 24.98,41.78 25.1,42.79 C 25.11,42.91 25.21,42.99 25.33,42.99 H 32.01 C 32.13,42.99 32.25,42.92 32.26,42.79 L 32.68,37.66 A 0.24,0.24 0 0,0 32.47,37.41 H 32.45 C 31.78,37.34 30.9,37.25 30.59,37.17 C 29.84,36.99 29.69,36.4 29.69,35.83 C 29.65,34.34 29.49,28.95 32.99,23.35 A 3.9,3.9 0 0,1 33.98,22.15 C 34.15,22.05 34.33,22.01 34.5,22 C 34.96,21.98 35.37,22.27 35.4,22.93 C 35.93,32.38 35.4,38.68 34.98,42.73 C 34.97,42.88 35.08,42.99 35.22,43 H 38.18 C 38.67,43.01 39.1,42.7 39.18,42.22 C 39.68,39.48 40.04,32.77 39.98,28.81 C 39.98,28.59 40.15,28.41 40.36,28.39 L 43.17,28.07 A 0.9,0.9 0 0,0 43.89,26.77 C 42.93,24.96 41.35,22.67 39.79,20.64 A 0.77,0.77 0 0,1 39.63,20.27 L 38.7,13.23 A 1.07,1.07 0 0,0 37.75,12.32 L 35,12 A 0.89,0.89 0 0,0 34.02,12.88 V 14.43 C 34.02,14.63 33.78,14.74 33.62,14.61 A 32.68,32.68 0 0,0 28.76,11.2 A 1.53,1.53 0 0,0 27.26,11.2 C 21.36,14.5 14.96,21.46 12.12,26.76 A 0.9,0.9 0 0,0 12.84,28.07 Z" fill="rgb(254, 254, 253)"/>
</svg>
