<?xml version="1.0" encoding="UTF-8"?>
<!-- generated by Finnhub -->
<svg viewBox="0 0 55.5 55.5" xmlns="http://www.w3.org/2000/svg">
<path d="M 0,0 H 55.5 V 55.5 H 0 Z" fill="rgb(37, 58, 84)"/>
<path d="M 46.99,22.985 A 2,2 0 1,0 47,19 A 2,2 0 0,0 47,23 Z M 44,24 H 50 C 49.7,24.16 49,24.59 49,25.06 V 31.95 C 49.05,32.3 49.4,33 50,33 H 44.32 C 44.57,32.9 45,32.56 45,31.95 V 25.06 C 44.94,24.71 44.71,24 44,24 Z M 8.33,33 C 8.51,32.92 9,32.6 9,31.94 V 22 C 8.95,21.72 8.57,21 8,21 H 14 C 13.68,21.15 13,21.68 13,22 V 28.47 A 5.1,5.1 0 0,1 8.33,33 Z M 6,32 A 2,2 0 1,0 6,28 A 2,2 0 0,0 6,32 Z M 18.59,24 H 13.27 C 13.79,24 13.96,24.75 14,25.06 V 29.46 C 14,32.38 16.08,33 17.46,33 C 18.5,33 19.28,32.26 19.73,31.83 L 19.82,31.75 C 18.22,32.38 18.06,31.28 18,30.65 V 25.06 C 18,24.65 18.39,24.14 18.59,24 Z M 24.76,24 H 19.41 C 19.77,24 19.97,24.62 20,24.93 V 33 H 24.76 C 24.36,33 24.09,32.46 24,32.19 V 24.93 C 24,24.58 24.5,24.16 24.76,24 Z M 26.94,25.23 C 26.94,24.4 27.98,24.07 28.5,24 C 24.2,24 24.52,27.7 25.98,28.93 C 26.3,29.2 26.88,29.45 27.48,29.73 C 28.59,30.22 29.81,30.76 29.81,31.49 C 29.81,32.39 28.83,32.87 28.31,32.99 C 29.51,33.09 32,32.35 32,30.19 C 32,28.46 29.89,27.25 28.83,26.86 C 28.2,26.66 26.93,26.06 26.93,25.23 Z M 25,32.82 V 30.07 C 25,31.11 26.33,32.09 27,32.44 C 25.95,32.44 25.23,32.69 25,32.82 Z M 32,26.81 V 24 C 31.84,24.14 31.36,24.35 30.98,24.35 H 30 C 30.67,24.68 32,25.63 32,26.81 Z M 38,21 H 32 C 32.59,21 32.9,21.66 33,22 V 32.1 C 33,32.6 32.34,32.9 32,33 H 37.84 C 37.42,33 37.09,32.55 37,32.32 V 25.18 C 38.51,24.74 38.94,25.78 39,26.38 V 32.05 C 39,32.47 38.67,32.85 38.46,33 H 43.72 C 43.16,33 43.05,32.37 43,32.05 V 27.6 C 43,24.63 41.18,24 39.68,24 C 38.66,24 37.59,24.61 37,25.05 V 22 C 37,21.61 37.68,21.18 38,21.01 Z" fill="rgb(254, 254, 253)"/>
</svg>
