<?xml version="1.0" encoding="UTF-8"?>
<!-- generated by Finnhub -->
<svg viewBox="0 0 55.5 55.5" xmlns="http://www.w3.org/2000/svg">
<path d="M 0,0 H 55.5 V 55.5 H 0 Z" fill="rgb(239, 242, 248)"/>
<path d="M 16.99,14.184999999999999 L 25.42,19.06 L 26.64,22.9 L 20,19.42 V 27.22 C 20,29.41 21.57,30.76 22.6,31.48 L 26.64,33.98 L 28.11,38.09 C 27.05,37.56 24.11,36 20.88,33.98 A 8.2,8.2 0 0,1 17,26.93 V 14.2 Z" fill="rgb(130, 196, 63)"/>
<path d="M 38.99,17.255 L 28.07,23.43 L 26.84,28.06 L 35,23.67 V 31.19 C 35,33.39 35.45,37.25 31.47,40.21 L 26.57,43.03 L 24.94,48 C 26,47.47 30.09,45.65 33.29,43.58 C 38.23,40.38 39.01,36.67 39.01,30.54 V 17.27 Z" fill="rgb(7, 133, 83)"/>
<path d="M 26.47,15.125 V 16 H 31.33 V 15.14 L 34,13.12 H 32.94 L 33.57,11.32 L 31.79,11.59 V 10.63 L 30.43,11.98 V 11 L 30.83,9.38 H 29.77 L 29.05,8 L 28.19,9.4 H 26.97 L 27.47,11.01 V 11.98 L 26.07,10.63 L 25.75,11.33 L 24.15,11.15 L 24.75,12.69 L 24,13.12 L 26.48,15.14 Z" fill="rgb(228, 24, 47)"/>
</svg>
