<?xml version="1.0" encoding="UTF-8"?>
<!-- generated by Finnhub -->
<svg viewBox="0 0 55.5 55.5" xmlns="http://www.w3.org/2000/svg">
<path d="M 0,0 H 55.5 V 55.5 H 0 Z" fill="rgb(1, 108, 68)"/>
<path d="M 19.965,12.16 L 17.595,13.396 L 12.655,15.866 A 1.156,1.156 0 0,0 12.025,16.913 V 22.371 A 0.69,0.69 0 0,0 13.025,22.996 L 20.362,19.3 A 1.156,1.156 0 0,0 20.997,18.258 V 12.806 C 21.012,12.295 20.439,11.924 19.975,12.176 Z M 40.968,12.084 L 12.637,26.504 A 1.156,1.156 0 0,0 12,27.55 V 32.996 A 0.702,0.702 0 0,0 12.662,33.696 A 0.697,0.697 0 0,0 13.006,33.626 L 41.348,19.22 A 1.158,1.158 0 0,0 41.984,18.172 V 12.708 A 0.69,0.69 0 0,0 41.314,11.999 A 0.687,0.687 0 0,0 40.967,12.083 Z M 43.975,38.546 A 1.289,1.289 0 0,0 43.362,37.198 L 28.355,29.705 A 1.228,1.228 0 0,0 27.135,29.705 L 12.637,36.945 A 1.266,1.266 0 0,0 12.024,38.295 V 43.057 A 0.77,0.77 0 0,0 13.128,43.671 L 27.124,36.621 C 27.304,36.535 27.502,36.491 27.702,36.494 C 27.912,36.488 28.119,36.531 28.308,36.621 L 42.854,43.923 C 43.329,44.157 43.947,43.833 44,43.309 L 43.975,38.546 Z" fill="rgb(254, 254, 253)"/>
</svg>
