<?xml version="1.0" encoding="UTF-8"?>
<!-- generated by Finnhub -->
<svg viewBox="0 0 55.5 55.5" xmlns="http://www.w3.org/2000/svg">
<path d="M 0,0 H 55.5 V 55.5 H 0 Z" fill="rgb(239, 242, 248)"/>
<path d="M 42.99,26.544999999999998 A 13.73,13.73 0 0,1 38.12,37.11 A 12.96,12.96 0 0,0 35.04,23.41 C 34.07,22.45 32.94,21.64 31.7,21.02 A 6.87,6.87 0 0,0 23.83,23.72 A 6.9,6.9 0 0,0 32.75,33.72 A 7.54,7.54 0 0,1 20,35.97 A 13.76,13.76 0 0,1 16.3,26.55 C 16.3,25.5 16.5,24.45 16.82,23.45 A 15.9,15.9 0 0,1 18.93,19.28 C 22.65,13.91 29,10 29,10 S 43,19.02 43,26.56 Z" fill="url(#b)"/>
<path d="M 38.89,32.635 A 13.1,13.1 0 0,1 37.85,37.77 A 13.48,13.48 0 0,1 13,30.5 A 13.5,13.5 0 0,1 18.93,19.3 A 15.9,15.9 0 0,0 16.81,23.47 A 10.2,10.2 0 0,0 16.31,26.57 C 16.31,30.22 17.71,33.53 19.99,35.98 L 20,35.99 A 7.45,7.45 0 0,0 25.7,38.59 A 7.54,7.54 0 0,0 33.23,31.05 A 7.54,7.54 0 0,0 23.83,23.73 A 6.89,6.89 0 0,1 31.7,21.03 A 12.95,12.95 0 0,1 38.9,32.66 Z" fill="url(#a)"/>
<defs>
<linearGradient id="b" x1="29.65" x2="29.65" y1="10" y2="38.59" gradientUnits="userSpaceOnUse">
<stop stop-color="rgb(240, 254, 142)" offset="0"/>
<stop stop-color="rgb(159, 207, 26)" offset=".35"/>
<stop stop-color="rgb(164, 192, 18)" offset="1"/>
</linearGradient>
<linearGradient id="a" x1="15.96" x2="34.28" y1="20.89" y2="40.65" gradientUnits="userSpaceOnUse">
<stop stop-color="rgb(163, 208, 20)" offset="0"/>
<stop stop-color="rgb(48, 151, 15)" offset=".49"/>
<stop stop-color="rgb(44, 150, 15)" offset="1"/>
</linearGradient>
</defs>
</svg>
