<?xml version="1.0" encoding="UTF-8"?>
<!-- generated by Finnhub -->
<svg viewBox="0 0 55.5 55.5" xmlns="http://www.w3.org/2000/svg">
<path d="M 0,0 H 55.5 V 55.5 H 0 Z" fill="rgb(239, 242, 248)"/>
<path d="M 48.93,31.375 C 48.57,33.93 46.14,35 44.04,35 C 42.17,35 41.21,34.5 40.51,34.14 A 2.45,2.45 0 0,0 39.41,33.76 C 38.96,33.76 38.54,34.43 38.51,35 H 37.61 V 30 H 38.48 C 38.88,31.04 40.95,33.9 43.55,33.97 C 45.08,34.01 46.65,33.45 46.72,31.92 C 46.78,30.4 45.17,30.05 43.28,29.64 L 42.54,29.47 C 39.64,28.81 37.62,27.21 37.74,24.99 C 37.89,22.37 40.1,20.99 42.97,21 A 6,6 0 0,1 46.07,21.89 C 46.41,22.07 46.67,22.21 46.87,22.21 C 47.43,22.21 47.77,21.37 47.77,21 H 48.67 V 26 H 47.8 L 47.79,25.97 C 47.46,25.27 46.08,22.33 43.24,22.05 C 41.6,21.89 40.09,22.55 39.9,23.63 C 39.6,25.35 41.84,25.81 43.77,26.2 L 43.98,26.25 C 46.5,26.76 49.45,27.97 48.94,31.39 Z M 16.4,24.49 C 16.84,24.05 17.3,23.63 17.78,23.24 C 18.15,22.94 18.54,22.66 18.96,22.44 C 19.29,22.24 19.64,22.1 20,22 C 20.43,21.89 20.68,21.88 20.9,21.87 H 21 V 21 H 14 V 21.87 H 14.54 C 15.22,21.87 15.66,21.93 15.88,22.05 C 16.11,22.18 16.23,22.35 16.23,22.57 C 16.23,22.74 16.17,22.92 16.06,23.12 C 15.95,23.32 15.68,23.64 15.26,24.1 L 11,28.44 V 22.94 C 10.99,22.09 11.64,21.85 12.38,21.87 H 13 V 21 H 6 V 21.87 H 6.38 C 6.6,21.87 6.83,21.88 7.05,21.92 C 7.58,22.02 7.61,22.46 7.6,22.95 V 33.05 C 7.61,33.92 7.2,34.15 6.38,34.13 H 6 V 35 H 13 V 34.13 H 12.38 C 11.64,34.14 10.98,33.9 11,33.05 V 29.91 L 12.6,28.36 L 15.45,32.93 L 15.63,33.26 C 15.68,33.36 15.7,33.46 15.71,33.58 C 15.71,33.71 15.66,33.88 15.42,34 A 5.1,5.1 0 0,1 14,34.13 V 35 H 21 V 34.13 C 20.73,34.12 20.7,34.11 20.65,34.09 L 20.56,34.07 A 1.7,1.7 0 0,1 20.12,33.94 A 0.95,0.95 0 0,1 19.78,33.68 L 19.48,33.26 L 14.84,26.09 L 14.96,25.96 L 16.4,24.49 Z M 22,34.13 V 35 H 30.92 C 31.91,35 32.76,34.9 33.43,34.69 C 34.11,34.49 34.66,34.2 35.08,33.87 C 35.49,33.54 35.79,33.14 35.98,32.71 C 36.16,32.27 36.25,31.8 36.25,31.32 C 36.25,30.72 36.1,30.15 35.8,29.73 C 35.5,29.31 35.12,28.98 34.65,28.71 A 6.24,6.24 0 0,0 33.08,28.07 C 32.55,27.92 32,27.82 31.45,27.77 L 31.36,27.76 V 27.72 L 31.44,27.7 A 6.64,6.64 0 0,0 34.59,26.59 C 35.23,26.07 35.55,25.21 35.55,24.34 A 2.77,2.77 0 0,0 34.15,21.88 C 33.7,21.59 33.15,21.38 32.52,21.22 A 9.5,9.5 0 0,0 30.37,21 H 22 V 21.87 H 22.75 C 22.97,21.87 23.19,21.88 23.41,21.92 C 23.94,22.02 24.01,22.46 24,22.95 V 33.05 C 24.01,33.92 23.56,34.15 22.75,34.13 H 22 Z M 28.35,21.92 C 28.65,21.88 28.97,21.86 29.29,21.87 C 30.21,21.87 30.92,22.07 31.41,22.47 C 31.91,22.87 32.16,23.53 32.16,24.42 C 32.16,26.4 31.06,27.31 28.86,27.31 H 27.4 V 23.66 C 27.4,23.28 27.46,22.96 27.5,22.74 V 22.72 A 0.97,0.97 0 0,1 27.77,22.16 C 27.91,22.04 28.1,21.96 28.35,21.92 Z M 27.45,33.4 A 1.45,1.45 0 0,1 27.4,33.05 V 28.38 H 29.83 C 30.7,28.38 31.39,28.55 31.89,29.08 C 32.38,29.6 32.62,30.33 32.62,31.24 C 32.62,32.28 32.31,33.04 31.68,33.47 C 31.06,33.91 30.14,34.13 28.95,34.13 C 28.68,34.13 28.42,34.12 28.16,34.08 A 0.99,0.99 0 0,1 27.69,33.89 A 0.63,0.63 0 0,1 27.49,33.53 L 27.45,33.4 Z" fill="rgb(35, 69, 95)"/>
</svg>
