<?xml version="1.0" encoding="UTF-8"?>
<!-- generated by Finnhub -->
<svg viewBox="0 0 55.5 55.5" xmlns="http://www.w3.org/2000/svg">
<path d="M 0,0 H 55.5 V 55.5 H 0 Z" fill="rgb(239, 242, 248)"/>
<path d="M 3.99,22.985 H 6.7 V 23.27 L 6.3,23.33 C 5.91,23.35 6,23.76 6,24.05 V 28.87 C 6,29.27 6.01,29.53 6.46,29.54 H 7.11 C 7.33,29.54 7.73,29.49 7.91,29.38 C 8.09,29.28 8.23,29.11 8.31,28.92 C 8.4,28.77 8.46,28.6 8.49,28.42 A 1.3,1.3 0 0,1 9.09,27.52 C 9.42,27.3 9.79,27.14 10.19,27.04 C 10.46,26.96 10.7,26.94 10.99,26.9 A 0.12,0.12 0 0,0 11,26.8 V 26 C 10.99,25.51 10.68,25.2 10.16,25.23 A 0.96,0.96 0 0,0 9.78,25.34 A 0.53,0.53 0 0,0 9.53,25.58 A 0.5,0.5 0 0,0 9.48,25.92 C 9.5,26.03 9.5,26.15 9.47,26.27 A 0.38,0.38 0 0,1 9.39,26.43 A 0.4,0.4 0 0,1 9.05,26.57 A 0.42,0.42 0 0,1 8.88,26.52 A 0.31,0.31 0 0,1 8.76,26.42 A 0.3,0.3 0 0,1 8.72,26.26 A 0.97,0.97 0 0,1 9.03,25.46 C 9.26,25.22 9.56,25.06 9.89,25 C 10.25,24.91 10.62,24.93 10.97,25.04 C 11.81,25.29 12,26.08 12,26.84 V 28.84 C 12,29.11 11.93,29.8 12.4,29.64 H 12.46 L 12.52,29.63 C 12.54,29.72 12.54,29.81 12.53,29.9 A 2.1,2.1 0 0,1 11.75,29.95 A 0.63,0.63 0 0,1 11.48,29.85 A 0.6,0.6 0 0,1 11.28,29.62 A 1.3,1.3 0 0,1 11.16,29.22 C 11.16,29.19 11.16,29.16 11.14,29.13 C 11.11,29.15 11.1,29.18 11.09,29.2 C 11.01,29.33 10.93,29.45 10.84,29.56 C 10.71,29.72 10.54,29.84 10.34,29.92 C 10.14,29.99 9.94,30.02 9.72,29.99 A 1.32,1.32 0 0,1 8.66,29.41 L 8.59,29.88 C 8.54,29.91 8.5,30 8.46,30 H 4 V 29.6 C 4.18,29.6 4.53,29.59 4.7,29.54 A 0.34,0.34 0 0,0 4.86,29.44 C 4.91,29.4 4.94,29.34 4.95,29.29 C 4.98,29.14 5.01,28.99 5,28.85 V 24.05 C 5,23.78 5,23.41 4.66,23.35 C 4.5,23.3 4.16,23.28 4,23.28 V 23 Z M 11,27.14 C 10.67,27.2 10.38,27.29 10.09,27.44 C 9.47,27.74 9.31,28.2 9.39,28.81 C 9.39,28.93 9.44,29.05 9.49,29.15 A 0.63,0.63 0 0,0 9.89,29.48 C 10.07,29.54 10.26,29.53 10.44,29.47 A 0.78,0.78 0 0,0 10.84,29.13 C 11.03,28.8 11,27.77 11,27.14 Z M 26.67,29.72 C 26.67,29.79 26.68,29.92 26.67,30 H 24.6 V 29.74 C 24.64,29.71 24.68,29.72 24.72,29.71 C 25.06,29.69 25,29.49 25,29.18 V 26.58 C 25,26.04 25.01,25.5 24.35,25.56 C 23.93,25.6 23.59,25.86 23.52,26.29 L 23.49,26.71 A 2458.14,2458.14 0 0,0 23.51,29.41 A 0.34,0.34 0 0,0 23.78,29.69 L 24.07,29.73 V 30 H 22.1 C 22.07,29.96 22.08,29.86 22.08,29.83 V 29.74 C 22.12,29.71 22.16,29.72 22.2,29.71 C 22.25,29.71 22.3,29.71 22.34,29.69 A 0.35,0.35 0 0,0 22.56,29.58 A 0.34,0.34 0 0,0 22.65,29.35 V 29.19 A 3948.94,3948.94 0 0,0 22.63,26.18 C 22.56,25.61 21.88,25.48 21.49,25.58 C 21.32,25.63 21.33,25.73 21.21,25.87 A 0.85,0.85 0 0,0 21.02,26.35 L 21,26.77 A 869.02,869.02 0 0,1 21.02,29.4 A 0.34,0.34 0 0,0 21.29,29.69 C 21.39,29.71 21.32,29.71 21.42,29.73 V 30 H 17.78 A 2.2,2.2 0 0,1 17.78,29.67 L 18.08,29.62 A 0.76,0.76 0 0,0 18.3,29.55 A 0.22,0.22 0 0,0 18.38,29.3 C 18.32,29 18.24,28.7 18.14,28.4 L 18.02,28 H 15.9 L 15.66,28.73 L 15.51,29.21 A 0.54,0.54 0 0,0 15.5,29.34 C 15.49,29.4 15.5,29.46 15.54,29.5 C 15.57,29.55 15.63,29.59 15.68,29.6 C 15.82,29.63 15.96,29.66 16.11,29.67 V 30 H 13.8 C 13.21,29.89 12.98,29.16 13,28.6 V 25.54 H 12.55 L 12.54,25.24 C 12.57,25.2 12.6,25.21 12.63,25.21 A 0.96,0.96 0 0,0 13.3,24.8 C 13.48,24.53 13.6,24.23 13.66,23.9 L 13.7,23.72 H 14 V 25.16 H 14.99 V 25.53 H 14.03 A 0.06,0.06 0 0,0 14,25.59 V 28.87 C 14,29.3 14.17,29.67 14.66,29.56 A 0.75,0.75 0 0,0 15.18,29.08 L 15.48,28.27 A 8528.4,8528.4 0 0,0 17.34,23 L 17.6,23.8 L 19.25,29 C 19.3,29.16 19.52,29.66 19.65,29.66 C 19.9,29.67 19.95,29.68 19.95,29.42 C 19.97,29.32 19.99,29.22 19.99,29.12 V 25.75 C 19.99,25.61 19.93,25.55 19.79,25.52 C 19.71,25.5 19.78,25.5 19.69,25.5 H 19.51 A 0.56,0.56 0 0,1 19.51,25.3 L 20.14,25.18 C 20.36,25.14 20.58,25.08 20.78,25 C 20.84,25.27 20.88,25.54 20.9,25.81 C 20.93,25.81 20.94,25.77 20.96,25.75 C 21.06,25.58 21.2,25.44 21.36,25.31 C 21.54,25.17 21.85,25.08 22.09,25.08 C 22.25,25.06 22.4,25.08 22.56,25.11 A 1.02,1.02 0 0,1 23.21,25.6 L 23.34,25.84 L 23.51,25.61 C 23.84,25.15 24.41,25.01 24.95,25.09 A 1.13,1.13 0 0,1 25.73,25.51 C 25.87,25.71 25.95,25.95 25.97,26.19 C 25.99,26.37 25.99,26.55 25.99,26.73 A 2322.83,2322.83 0 0,0 26.01,29.39 A 0.3,0.3 0 0,0 26.25,29.66 C 26.39,29.69 26.52,29.71 26.66,29.72 Z M 17.92,27.64 L 17.05,24.68 C 16.7,25.68 16.35,26.66 16.02,27.64 C 16.15,27.66 17.82,27.65 17.92,27.64 Z" fill="rgb(246, 36, 7)"/>
<path d="M 48.99,25.585 C 49.12,25.48 49.13,25.36 49.27,25.26 C 49.49,25.11 49.75,25.02 50.02,25.01 A 1.44,1.44 0 0,1 51.25,25.52 C 51.38,25.68 51.47,25.88 51.5,26.08 C 51.54,26.26 51.55,26.44 51.55,26.62 V 29.22 L 51.58,29.47 C 51.63,29.75 51.77,29.77 52,29.77 V 30 H 50.08 A 0.78,0.78 0 0,1 50.08,29.8 C 50.12,29.77 50.18,29.76 50.23,29.76 A 0.44,0.44 0 0,0 50.53,29.66 A 0.37,0.37 0 0,0 50.65,29.36 C 50.69,28.86 50.67,28.24 50.68,27.73 V 26.87 C 50.68,26.63 50.66,26.4 50.63,26.17 A 0.9,0.9 0 0,0 50.43,25.7 A 0.65,0.65 0 0,0 50,25.49 A 1,1 0 0,0 49.63,25.5 C 49.09,25.62 48.98,26.1 49,26.62 V 29.26 C 49,29.55 49.05,29.73 49.3,29.76 C 49.35,29.77 49.41,29.76 49.46,29.8 V 30 H 46.62 C 46.06,29.99 45.65,29.7 45.54,29.09 A 5.07,5.07 0 0,1 45.5,27.86 C 45.52,27.43 45.5,27 45.52,26.58 L 45.54,25.5 V 25.37 A 1.5,1.5 0 0,0 45.08,25.4 A 0.44,0.44 0 0,0 44.89,25.5 A 0.4,0.4 0 0,0 44.79,25.68 C 44.67,26.02 44.56,26.46 44.45,26.81 L 44.08,27.99 C 43.87,28.64 43.65,29.29 43.48,29.96 L 43.46,29.98 A 0.58,0.58 0 0,1 43.21,29.98 L 42.09,26.36 H 42.06 C 41.66,27.56 41.21,28.76 40.85,29.98 A 0.59,0.59 0 0,1 40.6,29.99 L 40.5,29.69 C 40.36,29.17 40.19,28.64 40.02,28.12 C 39.84,27.54 39.67,26.97 39.48,26.4 C 39.4,26.14 39.32,25.77 39.22,25.5 A 0.44,0.44 0 0,0 39.05,25.3 A 0.49,0.49 0 0,0 38.78,25.2 A 0.44,0.44 0 0,1 38.62,25.17 V 25 H 40.67 C 40.69,25.06 40.7,25.1 40.69,25.16 C 40.63,25.21 40.56,25.2 40.49,25.2 C 40.37,25.22 40.23,25.23 40.15,25.35 C 40.13,25.45 40.15,25.66 40.19,25.76 L 40.78,27.69 L 41.03,28.47 L 42.21,25 H 42.48 L 43.61,28.5 C 43.66,28.38 43.71,28.24 43.74,28.11 L 44.24,26.48 L 44.48,25.58 A 0.91,0.91 0 0,0 44.5,25.35 C 44.38,25.17 44.16,25.25 44,25.18 A 0.47,0.47 0 0,1 44,25 C 44.36,25 44.72,25.04 45.08,24.97 C 45.28,24.93 45.48,24.83 45.64,24.69 C 45.79,24.56 45.91,24.49 45.98,24.29 C 46.06,24.09 46.11,23.87 46.15,23.65 H 46.43 V 25 H 47.51 C 47.52,25.12 47.53,25.25 47.52,25.37 H 46.46 A 0.1,0.1 0 0,0 46.43,25.41 V 28.88 A 0.73,0.73 0 0,0 46.71,29.48 C 46.83,29.58 46.99,29.65 47.16,29.64 C 47.36,29.64 47.99,29.34 47.99,29.11 V 29 A 26413.8,26413.8 0 0,1 47.97,23.78 A 0.3,0.3 0 0,0 47.88,23.59 A 0.33,0.33 0 0,0 47.68,23.5 A 3.54,3.54 0 0,0 47.31,23.48 A 0.39,0.39 0 0,1 47.3,23.28 C 47.83,23.23 48.48,23.13 49,22.99 V 25.59 Z M 31.32,23.62 L 31.69,23.01 A 0.45,0.45 0 0,1 31.87,23.01 V 25.08 A 0.93,0.93 0 0,1 31.64,25.09 C 31.59,24.97 31.57,24.84 31.53,24.72 C 31.43,24.36 31.23,24.03 30.97,23.76 A 1.56,1.56 0 0,0 29.9,23.34 C 29.62,23.32 29.33,23.38 29.08,23.51 C 28.82,23.66 28.61,23.87 28.47,24.12 C 28.27,24.46 28.15,24.83 28.09,25.22 A 7.8,7.8 0 0,0 28.29,28.53 A 2,2 0 0,0 28.75,29.28 C 28.95,29.48 29.21,29.62 29.5,29.66 C 29.89,29.72 30.28,29.68 30.64,29.54 L 30.94,29.41 C 30.95,29.38 31.01,29.31 31,29.28 V 27.74 C 31.01,27.48 30.91,27.36 30.67,27.31 A 3.5,3.5 0 0,0 30.34,27.28 A 0.9,0.9 0 0,1 30.33,27 H 32.61 C 32.63,27.09 32.63,27.19 32.61,27.27 C 32.52,27.3 32.43,27.28 32.33,27.31 C 32.15,27.35 31.97,27.43 32,27.67 V 29.24 C 31.87,29.34 31.7,29.42 31.54,29.5 A 3.98,3.98 0 0,1 29.94,29.99 C 29.64,30.02 29.33,29.99 29.03,29.91 A 2.28,2.28 0 0,1 27.85,29.18 A 3.42,3.42 0 0,1 27.1,27.52 A 5.5,5.5 0 0,1 27.01,26.17 C 27.02,25.5 27.21,24.84 27.54,24.25 C 27.71,23.93 27.96,23.65 28.27,23.45 C 28.58,23.24 28.94,23.1 29.32,23.05 A 2.4,2.4 0 0,1 31.25,23.57 L 31.32,23.62 Z" fill="rgb(157, 157, 156)"/>
<path d="M 37.53,24.985 A 1.81,1.81 0 0,1 38.96,25.71 C 39.2,26.04 39.36,26.41 39.43,26.79 C 39.48,27.04 39.5,27.29 39.5,27.55 C 39.5,28.09 39.36,28.61 39.08,29.08 C 38.96,29.28 38.8,29.47 38.61,29.62 C 38.41,29.76 38.18,29.87 37.94,29.94 A 1.78,1.78 0 0,1 36.43,29.66 A 2.17,2.17 0 0,1 35.61,28.4 C 35.55,28.15 35.51,27.9 35.51,27.64 C 35.48,27.2 35.55,26.76 35.71,26.34 C 35.83,26.01 36.03,25.71 36.31,25.47 A 1.8,1.8 0 0,1 37.54,25 Z M 38.56,27.56 L 38.54,27.16 C 38.54,26.89 38.51,26.63 38.46,26.37 A 2,2 0 0,0 38.19,25.64 A 0.72,0.72 0 0,0 37.99,25.42 A 0.8,0.8 0 0,0 37.42,25.27 A 0.82,0.82 0 0,0 36.8,25.67 C 36.58,26.08 36.46,26.53 36.46,26.98 A 6.27,6.27 0 0,0 36.53,28.63 C 36.57,28.9 36.67,29.16 36.83,29.39 C 36.89,29.49 36.97,29.56 37.07,29.62 A 0.82,0.82 0 0,0 37.75,29.69 C 37.86,29.65 37.97,29.59 38.05,29.51 C 38.21,29.34 38.33,29.14 38.39,28.92 C 38.51,28.47 38.56,28.02 38.56,27.56 Z M 34.56,29.77 V 30 H 32.3 A 0.15,0.15 0 0,1 32.28,29.89 V 29.79 C 32.38,29.76 32.48,29.77 32.57,29.75 L 32.77,29.7 C 32.82,29.68 32.87,29.64 32.9,29.6 C 32.93,29.55 32.95,29.5 32.96,29.44 C 32.98,29.3 32.99,29.14 32.99,29 V 25.95 C 32.99,25.85 32.97,25.77 32.95,25.68 C 32.94,25.54 32.83,25.47 32.65,25.46 C 32.59,25.46 32.53,25.46 32.47,25.44 C 32.41,25.43 32.35,25.44 32.28,25.42 A 0.56,0.56 0 0,1 32.28,25.24 C 32.74,25.21 33.18,25.13 33.62,25 C 33.68,25.3 33.72,25.59 33.73,25.89 C 33.77,25.84 33.81,25.79 33.83,25.73 C 33.94,25.51 34.11,25.32 34.33,25.18 A 0.98,0.98 0 0,1 35.37,25.16 A 0.84,0.84 0 0,1 35.69,26.17 A 0.37,0.37 0 0,1 35.55,26.33 A 0.4,0.4 0 0,1 35.33,26.39 C 35.25,26.39 35.18,26.39 35.12,26.35 A 0.4,0.4 0 0,1 34.96,26.21 A 0.4,0.4 0 0,1 34.93,25.88 A 0.66,0.66 0 0,0 34.94,25.68 A 0.2,0.2 0 0,0 34.88,25.54 A 0.23,0.23 0 0,0 34.73,25.48 A 0.6,0.6 0 0,0 34.43,25.52 C 34.33,25.56 34.26,25.62 34.2,25.7 C 33.97,26 33.97,26.94 33.99,27.4 V 29.44 C 34.03,29.75 34.29,29.78 34.55,29.77 Z" fill="rgb(157, 157, 156)"/>
</svg>
