<?xml version="1.0" encoding="UTF-8"?>
<!-- generated by Finnhub -->
<svg viewBox="0 0 55.5 55.5" xmlns="http://www.w3.org/2000/svg">
<path d="M 0,0 H 55.5 V 55.5 H 0 Z" fill="rgb(229, 1, 44)"/>
<path d="M 33.72,33.985 C 33.38,33.48 33,32.6 32.6,31.7 C 32.34,31.09 32.07,30.47 31.79,29.9 C 31.04,28.39 29.07,27.74 28.38,27.76 C 26.22,27.76 25.13,28.79 24.73,29.5 L 24.41,29.06 C 24.22,28.96 24.04,28.84 23.86,28.71 A 5.52,5.52 0 0,1 18.5,35.44 A 5.5,5.5 0 1,1 21.31,25.21 A 7.06,7.06 0 0,1 28,16 A 7.06,7.06 0 0,1 34.67,25.28 A 5.5,5.5 0 1,1 33.73,34 Z M 30.11,34.2 A 8.5,8.5 0 1,0 37.84,21.5 A 10.11,10.11 0 0,0 28,13 C 23.1,13 19.01,16.67 18.16,21.5 A 8.5,8.5 0 1,0 24.88,35.62 L 26.64,37.9 L 28.14,39.87 A 4.76,4.76 0 0,0 35.67,40.4 C 33.79,41.11 32.61,40.26 32.27,39.75 L 25.07,29.81 C 25.22,29.64 25.56,29.43 26.17,29.43 C 27.1,29.43 27.53,29.67 27.87,30.09 C 27.98,30.22 28.26,30.75 28.61,31.43 C 29.05,32.29 29.61,33.38 30.11,34.2 Z M 25.01,29.9 L 25.03,29.87 L 25.01,29.9 Z" fill="rgb(254, 254, 253)"/>
</svg>
