<?xml version="1.0" encoding="UTF-8"?>
<!-- generated by Finnhub -->
<svg viewBox="0 0 55.5 55.5" xmlns="http://www.w3.org/2000/svg">
<path d="M 0,0 H 55.5 V 55.5 H 0 Z" fill="rgb(32, 12, 103)"/>
<path d="M 3.9850000000000003,35.080999999999996 L 6.266,20 H 11.08 L 10.205,25.818 L 14.29,20 H 25.122 S 28.999,20.111 30.738,21.937 C 31.638,22.881 32.188,23.479 32.465,24.35 C 30.615,24.552 28.773,24.84 26.942,25.213 L 26.82,25.238 L 26.806,25.221 C 26.159,24.419 25.362,24.211 25.362,24.211 H 23.356 L 23.05,26.142 A 61.02,61.02 0 0,0 17.932,27.788 L 18.903,21.333 L 13.888,28 L 14.434,29.21 A 61.932,61.932 0 0,0 10.027,31.374 L 9.549,30.182 L 9.31,31.768 A 62.654,62.654 0 0,0 3.995,35.096 Z M 49.807,34.576 L 49.514,36 H 44.779 L 45.309,32.48 C 44.86,33.003 44.301,33.464 43.611,34.034 L 43.575,34.064 C 41.605,35.69 38.2,36 38.2,36 H 30.898 L 31.508,31.949 C 31.006,32.716 30.323,33.279 29.41,34.034 L 29.374,34.064 C 27.404,35.69 23.998,36 23.998,36 H 11.883 L 10.527,32.622 A 60.57,60.57 0 0,1 14.984,30.427 L 16.897,34.667 L 17.705,29.302 A 59.788,59.788 0 0,1 22.819,27.592 L 22.153,31.79 H 24.319 S 25.599,31.373 26.405,30.526 L 26.608,30.316 C 27.274,29.627 27.584,29.306 27.689,28 C 27.744,27.319 27.701,26.847 27.567,26.45 A 59.048,59.048 0 0,1 37.377,25.352 L 36.354,31.79 H 38.52 S 39.8,31.373 40.607,30.526 L 40.809,30.316 C 41.475,29.627 41.786,29.306 41.89,28 C 41.999,26.652 41.724,26.127 41.124,25.367 C 44.439,25.487 47.746,25.885 51.013,26.563 L 49.807,34.577 Z M 51.211,25.241 L 52,20 H 47.186 L 46.571,24.087 C 46.271,23.351 45.746,22.783 44.939,21.937 C 43.2,20.11 39.323,20 39.323,20 H 33.305 L 32.654,24.33 A 60.309,60.309 0 0,1 51.211,25.241 Z M 9.057,33.449 L 8.673,36 H 5.035 A 61.337,61.337 0 0,1 9.057,33.45 Z" fill="rgb(254, 254, 253)"/>
</svg>
