<?xml version="1.0" encoding="UTF-8"?>
<!-- generated by Finnhub -->
<svg viewBox="0 0 55.5 55.5" xmlns="http://www.w3.org/2000/svg">
<path d="M 0,0 H 55.5 V 55.5 H 0 Z" fill="rgb(15, 58, 108)"/>
<circle cx="19" cy="33" r="8" fill="rgb(228, 39, 19)"/>
<circle cx="20" cy="24" r="8" fill="rgb(250, 153, 25)"/>
<path d="M 12.93,27.755 A 7.98,7.98 0 0,1 26.06,29.23 A 7.98,7.98 0 0,1 12.94,27.77 Z" fill="rgb(239, 120, 77)"/>
<circle cx="28" cy="20" r="8" fill="rgb(254, 210, 54)"/>
<path d="M 26.959999999999997,27.915 A 8,8 0 0,1 21.03,16.07 A 8,8 0 0,1 26.97,27.93 Z" fill="rgb(247, 185, 37)"/>
<circle cx="37" cy="33" r="8" fill="rgb(98, 204, 245)"/>
<circle cx="36" cy="24" r="8" fill="rgb(137, 203, 14)"/>
<path d="M 29.93,29.215 A 8,8 0 0,1 43.06,27.77 A 8,8 0 0,1 29.94,29.23 Z" fill="rgb(113, 201, 140)"/>
<path d="M 29.02,27.915 A 8,8 0 0,0 34.97,16.07 A 8,8 0 0,0 29.03,27.93 Z" fill="rgb(191, 207, 37)"/>
<circle cx="28" cy="32" r="8" fill="rgb(15, 58, 108)"/>
</svg>
