<?xml version="1.0" encoding="UTF-8"?>
<!-- generated by Finnhub -->
<svg viewBox="0 0 55.5 55.5" xmlns="http://www.w3.org/2000/svg">
<path d="M 0,0 H 55.5 V 55.5 H 0 Z" fill="rgb(239, 242, 248)"/>
<path d="M 14.13,35.985 A 16,16 0 0,0 41.86,36 H 14.14 Z M 42.39,21 H 13.61 A 16,16 0 0,1 42.39,21 Z M 30.15,24 H 14 V 23 H 30.11 A 1,1 0 1,1 30.15,24 Z M 21.84,25 A 1,1 0 1,0 21.89,26 H 43 V 25 H 21.84 Z M 36.18,28 A 1,1 0 1,0 36.1,27 H 13 V 28 H 36.18 Z M 18.9,29 A 1,1 0 1,0 18.82,30 H 43 V 29 H 18.9 Z M 33.15,32 A 1,1 0 1,0 33.11,31 H 13 V 32 H 33.15 Z M 26.89,33 A 1,1 0 1,0 26.85,34 H 43 V 33 H 26.89 Z" fill="rgb(206, 16, 41)"/>
</svg>
