<?xml version="1.0" encoding="UTF-8"?>
<!-- generated by Finnhub -->
<svg viewBox="0 0 55.5 55.5" xmlns="http://www.w3.org/2000/svg">
<path d="M 0,0 H 55.5 V 55.5 H 0 Z" fill="rgb(239, 242, 248)"/>
<path d="M 42.57,30.325 L 39.49,24.93 C 37.41,21.61 33.39,21.62 31.12,22.96 C 30.18,23.51 29.11,24.73 28,26.54 C 27.14,27.94 26.8,29.34 25.19,30.13 C 20.73,32.3 18.52,26.76 20.7,23.54 C 22.45,20.98 25.2,19.14 28,18.94 C 32.68,18.58 36.52,21.34 38.48,23.14 L 34.07,15.4 C 30.73,9.53 25.27,9.53 21.93,15.4 L 17.29,23.54 C 14.58,29.27 22.35,36.66 27.79,31.41 C 29.26,29.98 30.72,26.82 32.34,25.75 C 36.08,23.29 39.29,27.92 37.22,31.95 C 35.06,36.18 32.12,37.72 29.35,38.13 C 20.15,39.5 16.29,32.71 15.94,25.93 L 13.42,30.34 C 10.1,36.2 12.82,41 19.5,41 H 36.52 C 43.19,41 45.92,36.2 42.59,30.34 Z" fill="rgb(31, 60, 122)"/>
</svg>
