<?xml version="1.0" encoding="UTF-8"?>
<!-- generated by Finnhub -->
<svg viewBox="0 0 55.5 55.5" xmlns="http://www.w3.org/2000/svg">
<path d="M 0,0 H 55.5 V 55.5 H 0 Z" fill="rgb(239, 242, 248)"/>
<path d="M 30.86,21.345 A 6.75,6.75 0 0,1 34.8,28 C 34.6,34.55 23.74,40.45 23.74,40.45 S 29.38,35.21 29.38,28.66 C 29.38,25.44 28.16,23.68 25.91,22.86 C 23.66,22.11 21.39,21.92 16.99,22.93 C 16.99,22.93 25.71,18.96 30.86,21.36 Z" fill="url(#i)"/>
<path d="M 23.74,40.435 S 35.08,32.61 32.55,25.21 C 30.13,18.03 17,22.93 17,22.93 S 25.72,18.97 30.87,21.36 A 6.75,6.75 0 0,1 34.8,28 C 34.6,34.55 23.74,40.45 23.74,40.45 Z" fill="url(#h)"/>
<path d="M 23.74,40.435 S 35.08,32.61 32.55,25.21 C 30.13,18.03 17,22.93 17,22.93 S 28.43,19.36 30.7,25.51 C 33.41,32.87 23.75,40.45 23.75,40.45 Z" fill="url(#g)"/>
<path d="M 30.86,21.345 C 33.03,22.38 28.83,24.97 27.77,23.96 A 5.32,5.32 0 0,0 25.92,22.86 C 25.37,22.67 24.82,22.52 24.24,22.42 C 22.44,22.09 20.72,21.24 24.74,20.73 C 26.41,20.53 28.14,20.52 29.66,20.93 C 30.08,21.04 30.48,21.18 30.86,21.36 Z" fill="url(#f)" opacity=".56"/>
<path d="M 18.889999999999997,46.985 C 18.8,45.2 18.75,31.96 20.06,24.31 C 21.38,16.66 25.3,12.91 31.58,13.01 C 37.67,13.09 45,16.29 45,16.29 S 41.82,15.48 38.25,15.28 C 28.65,14.74 27.13,18 25.04,24.68 C 24.46,26.53 19.2,46.1 18.9,47 Z" fill="url(#e)"/>
<path d="M 18.889999999999997,46.985 C 21.5,31.2 22.4,21.07 26.77,16.65 C 31.84,11.54 45,16.3 45,16.3 S 41.82,15.49 38.25,15.29 C 28.65,14.75 27.13,18.01 25.04,24.69 C 24.46,26.54 19.2,46.11 18.91,47.01 Z" fill="url(#d)"/>
<path d="M 18.889999999999997,46.985 C 21.5,31.2 22.4,21.07 26.77,16.65 C 31.84,11.54 45,16.3 45,16.3 S 29.5,10.03 24.36,17.06 C 19.3,24 18.91,47 18.91,47 Z" fill="url(#c)"/>
<path d="M 32.15,17.015 C 31.5,17.68 31.5,18.73 32.16,19.38 C 32.89,20.1 33.96,20.1 34.61,19.44 C 35.34,18.72 35.34,17.68 34.61,16.97 C 33.95,16.31 32.89,16.31 32.16,17.03 Z" fill="url(#b)"/>
<path d="M 32.29,17.055 C 31.84,17.53 31.76,18.2 32.13,18.57 C 32.5,18.93 33.18,18.85 33.64,18.39 C 34.11,17.93 34.19,17.27 33.82,16.9 C 33.45,16.54 32.77,16.61 32.3,17.07 Z" fill="url(#a)" opacity=".5"/>
<defs>
<linearGradient id="i" x1="27.41" x2="26.08" y1="29.92" y2="25.22" gradientUnits="userSpaceOnUse">
<stop stop-color="rgb(213, 1, 43)" offset="0"/>
<stop stop-color="rgb(228, 122, 104)" offset=".5"/>
<stop stop-color="rgb(213, 1, 43)" offset="1"/>
</linearGradient>
<linearGradient id="h" x1="27.46" x2="25.8" y1="30.1" y2="24.2" gradientUnits="userSpaceOnUse">
<stop stop-color="rgb(233, 100, 11)" offset="0"/>
<stop stop-color="rgb(254, 210, 2)" offset=".5"/>
<stop stop-color="rgb(233, 100, 11)" offset="1"/>
</linearGradient>
<linearGradient id="g" x1="26.85" x2="25" y1="31.15" y2="24.6" gradientUnits="userSpaceOnUse">
<stop stop-color="rgb(229, 70, 40)" offset="0"/>
<stop stop-color="rgb(237, 129, 91)" offset=".5"/>
<stop stop-color="rgb(229, 70, 40)" offset="1"/>
</linearGradient>
<linearGradient id="f" x1="29.57" x2="25.31" y1="23.8" y2="20.41" gradientUnits="userSpaceOnUse">
<stop stop-color="rgb(254, 254, 253)" stop-opacity="0" offset="0"/>
<stop stop-color="rgb(151, 152, 153)" stop-opacity=".35" offset=".2"/>
<stop stop-color="rgb(112, 113, 114)" stop-opacity=".5" offset=".28"/>
<stop stop-color="rgb(80, 80, 81)" stop-opacity=".64" offset=".36"/>
<stop stop-color="rgb(53, 53, 54)" stop-opacity=".77" offset=".44"/>
<stop stop-color="rgb(19, 19, 19)" stop-opacity=".9" offset=".51"/>
<stop offset=".57"/>
</linearGradient>
<linearGradient id="e" x1="28.12" x2="33.5" y1="23.71" y2="16.95" gradientUnits="userSpaceOnUse">
<stop stop-color="rgb(58, 186, 231)" offset="0"/>
<stop stop-color="rgb(141, 208, 238)" offset=".23"/>
<stop stop-color="rgb(207, 233, 246)" offset=".5"/>
<stop stop-color="rgb(189, 226, 244)" offset=".56"/>
<stop stop-color="rgb(145, 209, 238)" offset=".69"/>
<stop stop-color="rgb(105, 197, 234)" offset=".82"/>
<stop stop-color="rgb(73, 189, 232)" offset=".92"/>
<stop stop-color="rgb(58, 186, 231)" offset="1"/>
</linearGradient>
<linearGradient id="d" x1="25.43" x2="38.28" y1="29.16" y2="13.02" gradientUnits="userSpaceOnUse">
<stop stop-color="rgb(1, 73, 151)" offset="0"/>
<stop stop-color="rgb(1, 77, 153)" offset=".06"/>
<stop stop-color="rgb(27, 87, 159)" offset=".14"/>
<stop stop-color="rgb(74, 107, 171)" offset=".24"/>
<stop stop-color="rgb(120, 138, 190)" offset=".35"/>
<stop stop-color="rgb(174, 182, 215)" offset=".48"/>
<stop stop-color="rgb(185, 191, 221)" offset=".5"/>
<stop stop-color="rgb(63, 101, 168)" offset=".85"/>
<stop stop-color="rgb(1, 73, 151)" offset="1"/>
</linearGradient>
<linearGradient id="c" x1="28.61" x2="34" y1="24.04" y2="17.27" gradientUnits="userSpaceOnUse">
<stop stop-color="rgb(1, 149, 208)" offset="0"/>
<stop stop-color="rgb(57, 165, 216)" offset=".13"/>
<stop stop-color="rgb(180, 212, 236)" offset=".42"/>
<stop stop-color="rgb(207, 227, 242)" offset=".5"/>
<stop stop-color="rgb(1, 149, 208)" offset="1"/>
</linearGradient>
<linearGradient id="b" x1="34.23" x2="32.23" y1="17.59" y2="19.44" gradientUnits="userSpaceOnUse">
<stop stop-color="rgb(5, 5, 5)" offset="0"/>
<stop stop-color="rgb(64, 64, 65)" offset=".23"/>
<stop stop-color="rgb(155, 156, 157)" offset=".36"/>
<stop stop-color="rgb(38, 38, 39)" offset=".6"/>
<stop stop-color="rgb(11, 11, 11)" offset=".77"/>
<stop offset="1"/>
</linearGradient>
<linearGradient id="a" x1="33.84" x2="32.74" y1="18.59" y2="17.33" gradientUnits="userSpaceOnUse">
<stop stop-color="rgb(254, 254, 253)" stop-opacity="0" offset=".82"/>
<stop stop-color="rgb(254, 254, 253)" offset="1"/>
</linearGradient>
</defs>
</svg>
