<?xml version="1.0" encoding="UTF-8"?>
<!-- generated by Finnhub -->
<svg viewBox="0 0 55.5 55.5" xmlns="http://www.w3.org/2000/svg">
<rect width="56" height="56" fill="rgb(239, 242, 248)"/>
<path d="M 39.044000000000004,28.985 C 38.5319,29 38.1034,29.4132 38.0436,29.9386 C 36.9138,39.8763 27.6346,43.4556 22.9996,43.9996 C 35.9376,43.7591 39.6456,35.0987 39.9976,29.9826 C 40.035,29.4381 39.5926,28.9998 39.0537,28.9998 Z" fill="rgb(254, 184, 52)"/>
<path d="M 25.99,28.431 C 26,30.8074 25.6034,32.4661 25.5,33.0002 C 25.8621,32.1287 27,29.9978 27,28.446 C 27,22.6267 22.1897,19.0002 18,19.0002 C 15.0429,19.0002 12.3228,21.8334 11.1748,23.4325 C 10.9276,23.7768 10.9497,24.2554 11.1964,24.6002 C 11.3961,24.8794 11.6974,25.0118 12,25.0002 C 12.2347,24.9912 12.4703,24.8955 12.6599,24.7144 C 13.8731,23.5554 15.9346,22.0002 18.7758,22.0002 C 23.2758,22.0002 26,25.4942 26,28.446 Z" fill="rgb(254, 184, 52)"/>
<path d="M 43.79,22.003 C 39.064,22.6446 37.2699,27.0602 37.0005,29.0001 C 39.0808,25.8995 42.3025,24.4587 44.051,23.9652 C 44.6424,23.7983 45.1257,23.4537 44.9715,22.8808 C 44.8442,22.4077 44.2933,21.8975 43.8,22.018 Z" fill="rgb(254, 184, 52)"/>
<path d="M 43.741,12.040999999999999 C 38.4766,14.1576 36.9288,21.5305 37.0026,25 C 38.3281,18.7988 42.1427,15.1885 44.3341,13.842 C 44.764,13.578 45.0881,13.2465 44.9787,12.7434 C 44.8623,12.2082 44.2476,11.8575 43.751,12.0554 Z" fill="rgb(254, 184, 52)"/>
<path d="M 15.027000000000001,18.924 C 16.994,18.071 19.8997,18.0618 21.0002,18.3189 C 19.0511,16.3562 16.1792,16.9735 14.5933,17.6944 C 14.2398,17.8551 14.0072,18.0587 14.0003,18.4125 C 13.9919,18.8456 14.6021,19.1319 15.037,18.939 Z" fill="rgb(254, 184, 52)"/>
<path d="M 21.552999999999997,42.985 C 16.7487,43 13.1819,41.8748 12.0003,41.3122 L 12.6598,39.7932 C 13.1819,40.1308 15.3143,41 19.667,41 C 28.158,41 31,31.7763 31,27.81 C 31,25.1939 28.8172,20.3838 24.5305,18.0209 C 21.8864,16.5635 19.5962,15.5192 18.5639,14.5282 C 18.039,14.0242 18.4834,13.2987 19.1914,13.1666 C 26.5366,11.7957 35.0004,19.0809 35.0004,27.8096 C 35.0004,37.008 27.581,42.9996 21.5634,42.9996 Z" fill="rgb(254, 184, 52)"/>
</svg>
