<?xml version="1.0" encoding="UTF-8"?>
<!-- generated by Finnhub -->
<svg viewBox="0 0 55.5 55.5" xmlns="http://www.w3.org/2000/svg">
<path d="M 0,0 H 55.5 V 55.5 H 0 Z" fill="rgb(11, 85, 61)"/>
<path d="M 38.14,24.085 L 42.14,22.39 A 2.1,2.1 0 0,1 44.2,21 C 44.41,21.01 44.78,21.3 44.52,22.36 C 45.22,22.22 47.16,22.34 49.42,23.93 L 49.26,24.63 C 49.74,24.73 50.96,25.11 52,25.8 C 51.66,26.53 50.88,28 50.44,28 L 50.02,28.37 C 49.98,28.14 49.9,27.71 49.85,27.79 L 49.61,28.12 L 49.37,27.72 A 1.07,1.07 0 0,0 48.77,27.56 C 48.45,27.56 48.22,28.06 48.15,28.31 H 48.48 L 48.68,28.01 L 48.78,28.37 L 49.14,28.01 L 49.26,28.37 L 49.51,28.48 L 49.72,28.26 L 49.78,28.57 L 50.31,28.72 C 50.21,29.01 49.88,29.6 49.37,29.6 L 48.91,29.57 C 48.21,29.51 47.18,29.43 46.17,29.96 C 45.15,30.49 44.25,32.21 43.92,33 L 41.59,28.26 L 43.97,30.58 A 6.86,6.86 0 0,1 46.52,29.19 C 46.42,28.31 46.57,26.5 48,26.36 C 47.95,26.37 46.83,27.14 47.01,29.12 A 6.49,6.49 0 0,1 49.37,29.12 L 49.56,28.72 L 47.67,28.48 C 47.84,28 48.34,27.06 49.01,27.16 C 49.33,27.21 49.57,27.31 49.77,27.39 C 50.09,27.53 50.32,27.63 50.64,27.4 A 1.1,1.1 0 0,0 50.25,25.45 C 50.05,25.38 49.87,25.32 49.71,25.25 C 48.89,24.96 48.4,24.79 48,24.33 L 48.92,24.39 L 48.82,24.02 C 47.97,23.57 45.86,22.72 44.2,22.86 C 44.3,22.36 44.37,21.34 43.9,21.34 C 43.3,21.34 42.32,22.13 42.43,23.69 L 42.4,23.64 C 42.33,23.54 42.2,23.34 42.12,23.07 L 38.15,24.09 Z M 35.47,32 L 36.64,25 H 38.83 L 38.34,27.82 L 40.63,25 H 43 L 40.2,28.55 L 41.83,32 H 39.32 L 38.1,29.26 L 37.63,32 H 35.47 Z M 5,32 L 6.17,25 H 8.36 L 7.87,27.82 L 10.16,25 H 12.53 L 9.73,28.55 L 11.36,32 H 8.85 L 7.62,29.26 L 7.15,32 H 5 Z M 11.57,29.44 C 11.57,31.51 12.72,32 14.43,32 C 17.97,32 18.42,29.35 18.42,27.88 C 18.42,26.41 18.03,25 15.47,25 S 11.57,26.84 11.57,29.44 Z M 13.86,28.92 C 13.76,30.1 14.33,30.45 14.63,30.47 C 15.75,30.59 16.03,29.1 16.11,28.26 C 16.19,27.42 16.14,26.61 15.33,26.52 C 14.52,26.44 14,27.45 13.86,28.92 Z M 18.38,32 L 19.45,25 H 23.95 C 24.45,25.04 25.45,25.58 25.45,27.36 C 25.45,29.58 24.62,32 22.41,32 H 18.38 Z M 20.78,30.4 L 21.36,26.6 H 22.39 C 22.93,26.6 23.2,26.9 23.2,27.88 C 23.2,29.09 22.76,30.41 21.56,30.41 H 20.78 Z M 25.4,32 H 27.63 L 28.76,25 H 26.6 L 25.4,32 Z M 28,32 H 30.24 L 30.84,30.5 H 32.72 L 32.84,32 H 35.14 L 34.2,25 H 31.1 L 28,32 Z M 32.6,29 L 32.41,26.52 L 31.43,29 H 32.6 Z M 42.78,23 C 42.78,22.97 43.13,22.4 43.3,22.13 L 43.25,21.88 C 43.5,21.84 44.01,21.8 44.01,21.88 C 44.01,21.95 43.88,22.5 43.82,22.76 L 43.63,22.22 L 42.78,23.01 Z" fill="rgb(254, 254, 253)" fill-rule="evenodd"/>
</svg>
