<?xml version="1.0" encoding="UTF-8"?>
<!-- generated by Finnhub -->
<svg viewBox="0 0 55.5 55.5" xmlns="http://www.w3.org/2000/svg">
<path d="M 0,0 H 55.5 V 55.5 H 0 Z" fill="rgb(239, 242, 248)"/>
<path d="M 23.52,14.934999999999999 C 23.17,14.59 23.04,14.21 23.13,13.81 C 23.23,13.41 23.53,13.16 24.04,13.07 A 4.8,4.8 0 0,1 26.54,13.34 C 26.61,13.36 26.66,13.34 26.68,13.26 C 26.92,12.3 27.38,11.48 28.08,10.79 A 2.9,2.9 0 0,1 29.1,10.09 C 29.55,9.93 29.94,9.98 30.26,10.25 C 30.69,10.62 30.81,11.15 30.6,11.84 C 30.3,12.84 30.45,13.76 31.02,14.59 C 31.05,14.64 31.09,14.66 31.14,14.67 A 15.8,15.8 0 0,1 38.08,17.43 A 12.15,12.15 0 0,1 42.45,23.29 C 43.04,24.94 43.4,26.73 43.53,28.68 C 43.53,28.74 43.56,28.78 43.61,28.8 C 45.44,29.6 46.22,31.03 45.95,33.07 A 5.03,5.03 0 0,1 43.81,36.56 A 8.2,8.2 0 0,1 39.88,38.04 A 0.45,0.45 0 0,0 39.65,38.14 A 16.6,16.6 0 0,1 32.22,41.51 C 29.68,41.97 27.04,42.11 24.3,41.91 A 19.86,19.86 0 0,1 18.67,40.81 A 7.99,7.99 0 0,1 14.32,37.27 A 0.3,0.3 0 0,0 14.18,37.14 A 5.48,5.48 0 0,1 11.1,33.02 A 4.34,4.34 0 0,1 11.25,30.62 C 11.55,29.82 12.1,29.25 12.88,28.92 A 0.13,0.13 0 0,0 12.96,28.8 C 12.91,27.85 12.89,27.3 12.9,27.16 C 13.24,22.16 15.61,18.55 20,16.31 C 20.82,15.89 21.98,15.47 23.5,15.06 C 23.57,15.04 23.58,15 23.53,14.95 Z" fill="rgb(88, 12, 12)"/>
<path d="M 29.919999999999998,11.075 C 29.13,11.81 28.86,12.65 29.1,13.61 C 29.3,14.4 29.77,14.91 30.5,15.18 C 30.6,15.28 30.72,15.33 30.83,15.34 C 31.71,15.47 32.53,15.64 33.29,15.88 C 34.67,16.76 35.56,17.34 35.95,17.64 C 38.19,19.33 39.65,21.86 40.32,25.24 C 40.63,26.8 40.75,28.29 40.67,29.73 A 7.4,7.4 0 0,0 36.97,33.89 C 36.89,34.1 36.96,34.26 37.17,34.36 C 37.66,34.59 38.07,34.91 38.42,35.3 C 37.61,36.26 36.67,37.05 35.59,37.67 C 35.39,37.27 35.12,36.89 34.76,36.57 A 10.47,10.47 0 0,0 33.38,35.55 C 33.3,35.49 33.29,35.43 33.35,35.35 C 33.43,35.23 33.54,35.13 33.65,35.06 A 7.18,7.18 0 0,0 36.43,32.16 C 37.06,30.9 37.16,29.61 36.71,28.3 A 5.18,5.18 0 0,0 33.72,25.11 A 5.48,5.48 0 0,0 29.32,25.18 C 28.56,25.53 27.88,26 27.29,26.58 C 26.81,27.06 26.31,27.7 25.81,28.48 A 1.9,1.9 0 0,1 25.11,29.18 C 24.77,29.35 24.51,29.24 24.33,28.84 L 24.29,28.74 A 13.84,13.84 0 0,0 23.19,26.64 A 4.32,4.32 0 0,0 19.21,24.79 C 18.51,24.88 17.86,25.15 17.27,25.59 A 5.27,5.27 0 0,0 15.28,29.42 C 15.22,30.39 15.38,31.3 15.76,32.17 C 16.03,32.77 16.51,33.55 17.21,34.5 C 17.27,34.6 17.26,34.67 17.17,34.75 L 16.8,35.01 C 16.37,35.33 16.08,35.6 15.94,35.81 C 15.74,36.13 15.64,36.47 15.6,36.82 C 15.58,37.1 15.61,37.45 15.7,37.88 C 15.7,37.9 15.7,37.91 15.68,37.92 H 15.63 A 4.29,4.29 0 0,1 14.88,36.68 L 14.73,35.8 A 10.37,10.37 0 0,1 15.01,34.04 C 15.11,33.59 15.06,33.24 14.84,32.97 C 14.44,32.47 13.93,32.17 13.28,32.09 C 13.45,31.76 13.8,31.65 14.32,31.76 C 14.38,31.77 14.4,31.76 14.38,31.69 L 13.81,29.63 A 0.11,0.11 0 0,0 13.74,29.55 L 13.67,29.53 C 13.77,29.55 13.8,29.51 13.78,29.39 C 13.54,27.55 13.63,25.88 14.08,24.37 A 11.44,11.44 0 0,1 19.88,17.18 C 21.56,16.28 23.32,15.71 25.15,15.47 C 25.23,15.46 25.25,15.42 25.19,15.37 C 24.86,14.95 24.46,14.62 24,14.37 A 0.31,0.31 0 0,1 23.83,14.08 C 23.83,13.96 23.88,13.88 23.98,13.82 A 4.09,4.09 0 0,1 27.18,14.49 C 27.24,14.53 27.27,14.51 27.27,14.44 C 27.31,12.93 27.91,11.74 29.06,10.9 C 29.36,10.68 29.6,10.65 29.8,10.82 C 29.88,10.9 29.93,10.99 29.93,11.09 Z" fill="rgb(181, 71, 38)"/>
<path d="M 29.919999999999998,11.075 C 29.99,11.19 30,11.26 29.98,11.32 A 4.12,4.12 0 0,0 30.51,15.18 A 2.1,2.1 0 0,1 29.1,13.61 C 28.86,12.65 29.13,11.81 29.93,11.09 Z M 42.77,29.35 A 4.76,4.76 0 0,0 40.67,29.73 C 40.75,28.29 40.63,26.8 40.32,25.23 C 39.65,21.86 38.19,19.33 35.95,17.64 C 35.55,17.34 34.67,16.76 33.29,15.88 A 12.4,12.4 0 0,1 37.69,17.96 A 11.75,11.75 0 0,1 41.3,22.35 A 17.66,17.66 0 0,1 42.78,27.89 C 42.85,28.41 42.84,28.89 42.77,29.35 Z" fill="rgb(158, 50, 32)"/>
<path d="M 35.18,37.925 L 35.18,37.99 L 35.14,38.03 A 20.95,20.95 0 0,1 27.25,40.21 C 24.17,40.47 21.2,40.26 18.35,39.61 C 18.12,39.46 17.86,39.31 17.57,39.16 A 7.62,7.62 0 0,1 16.39,38.28 A 0.34,0.34 0 0,1 16.29,38.13 C 15.88,36.98 16.06,36.14 16.84,35.61 L 17.44,35.15 C 17.64,35.01 17.72,34.8 17.69,34.54 A 1.19,1.19 0 0,0 17.4,33.91 C 17.14,33.61 16.84,33.15 16.5,32.55 A 5.12,5.12 0 0,1 16.13,27.85 A 4.08,4.08 0 0,1 18.25,25.58 A 3.37,3.37 0 0,1 21.31,25.65 C 21.92,25.95 22.43,26.4 22.84,26.98 A 12.14,12.14 0 0,1 23.96,29.18 C 24.01,29.29 24.16,29.45 24.43,29.64 C 24.48,29.67 24.53,29.7 24.6,29.7 A 1.4,1.4 0 0,0 25.98,29.06 L 27.11,27.52 A 5.95,5.95 0 0,1 30.05,25.42 A 4.94,4.94 0 0,1 36.33,28.69 C 36.62,29.59 36.57,30.52 36.19,31.48 C 35.85,32.34 35.29,33.13 34.49,33.85 C 34.34,33.99 33.89,34.32 33.12,34.83 A 0.4,0.4 0 0,0 33.02,34.93 C 32.82,35.2 32.77,35.44 32.87,35.66 C 32.95,35.8 33.14,35.99 33.46,36.21 L 33.56,36.28 C 34.03,36.6 34.35,36.85 34.52,37.02 C 34.79,37.27 35.02,37.58 35.19,37.94 Z" fill="rgb(251, 200, 159)"/>
<path d="M 34.09,30.105 C 34.1,30.9 33.83,31.57 33.27,32.12 C 32.72,32.68 32.05,32.96 31.27,32.96 C 30.47,32.96 29.81,32.68 29.25,32.13 A 2.74,2.74 0 0,1 28.42,30.12 C 28.42,29.33 28.7,28.66 29.25,28.1 A 2.75,2.75 0 0,1 31.26,27.27 C 32.05,27.27 32.72,27.55 33.27,28.1 C 33.83,28.66 34.11,29.33 34.11,30.12 Z M 22.18,30.06 C 22.18,30.79 21.92,31.42 21.4,31.94 C 20.88,32.46 20.26,32.72 19.52,32.72 C 18.79,32.72 18.16,32.46 17.64,31.94 A 2.56,2.56 0 0,1 16.86,30.06 C 16.86,29.32 17.12,28.7 17.64,28.18 A 2.56,2.56 0 0,1 19.52,27.4 C 20.26,27.4 20.88,27.66 21.4,28.18 C 21.92,28.7 22.18,29.32 22.18,30.06 Z" fill="rgb(254, 254, 253)"/>
<path d="M 33.9,30.035 C 33.91,30.65 33.69,31.18 33.26,31.6 C 32.83,32.04 32.31,32.25 31.7,32.25 C 31.1,32.25 30.58,32.04 30.15,31.6 A 2.12,2.12 0 0,1 29.5,30.05 C 29.5,29.44 29.71,28.92 30.15,28.49 C 30.58,28.06 31.1,27.84 31.7,27.84 C 32.31,27.84 32.83,28.06 33.26,28.49 C 33.69,28.92 33.91,29.44 33.91,30.05 Z M 22,30.04 C 22,30.61 21.8,31.1 21.4,31.5 C 21,31.9 20.5,32.1 19.94,32.1 C 19.37,32.1 18.88,31.9 18.48,31.5 C 18.08,31.1 17.88,30.61 17.88,30.04 S 18.08,28.99 18.48,28.58 C 18.88,28.18 19.37,27.98 19.94,27.98 S 20.99,28.18 21.4,28.58 C 21.8,28.98 22,29.48 22,30.04 Z" fill="rgb(88, 12, 12)"/>
<path d="M 32.690000000000005,30.285 A 0.73,0.73 0 1,0 32.7,28.84 A 0.73,0.73 0 0,0 32.7,30.29 Z M 20.92,30.4 A 0.69,0.69 0 1,0 20.92,29.02 A 0.69,0.69 0 0,0 20.92,30.4 Z" fill="rgb(254, 254, 253)"/>
<path d="M 42.760000000000005,29.335 C 43.57,29.48 44.17,29.8 44.57,30.3 A 4.57,4.57 0 0,1 44.16,34.15 C 43.76,34.77 43.23,35.28 42.56,35.69 C 41.93,36.07 41.22,36.32 40.44,36.46 L 39.2,36.66 A 3.13,3.13 0 0,0 38.42,35.3 C 38.08,34.9 37.66,34.6 37.16,34.36 C 36.96,34.26 36.89,34.1 36.98,33.89 A 7.4,7.4 0 0,1 40.67,29.73 C 41.4,29.43 42.1,29.31 42.77,29.35 Z M 13.67,29.53 L 13.74,29.55 C 13.77,29.57 13.8,29.59 13.81,29.63 L 14.38,31.69 C 14.4,31.75 14.38,31.77 14.32,31.76 C 13.8,31.65 13.45,31.76 13.28,32.09 C 12.98,33.53 13.46,34.69 14.73,35.56 C 14.75,35.66 14.74,35.74 14.73,35.8 A 1.15,1.15 0 0,1 14.38,35.7 A 5.53,5.53 0 0,1 11.75,32.03 C 11.71,31.47 11.84,30.93 12.15,30.4 C 12.49,29.82 12.99,29.53 13.67,29.53 Z" fill="rgb(251, 200, 159)"/>
<path d="M 44.57,30.285 C 45.18,31 45.43,31.8 45.32,32.7 A 4.6,4.6 0 0,1 43.24,36.08 A 8.45,8.45 0 0,1 39.4,37.39 L 39.2,36.66 L 40.44,36.46 C 41.22,36.32 41.93,36.06 42.56,35.69 C 43.23,35.29 43.76,34.77 44.16,34.15 C 44.86,33.05 44.99,31.77 44.58,30.3 Z" fill="rgb(224, 170, 133)"/>
<path d="M 43.43,31.765 C 42.64,31.77 41.94,31.95 41.31,32.33 A 6.18,6.18 0 0,0 39.18,34.49 C 38.85,34.32 38.7,34.07 38.72,33.72 C 38.72,33.67 38.74,33.62 38.76,33.57 C 39.19,32.86 39.72,32.27 40.36,31.84 C 41.1,31.34 41.85,31.14 42.59,31.23 C 42.91,31.27 43.19,31.45 43.44,31.78 Z" fill="rgb(181, 71, 38)"/>
<path d="M 39.160000000000004,34.485 A 6.18,6.18 0 0,1 41.31,32.33 A 3.91,3.91 0 0,1 43.44,31.78 C 43.72,32.54 43.69,33.27 43.34,33.95 C 43.11,34.43 42.74,34.85 42.24,35.21 A 4.7,4.7 0 0,1 40.71,35.94 A 0.53,0.53 0 0,1 40.09,35.72 L 39.17,34.49 Z M 14.73,35.8 L 14.88,36.68 A 4.7,4.7 0 0,1 11.75,32.03 A 5.53,5.53 0 0,0 14.38,35.7 C 14.44,35.74 14.55,35.77 14.73,35.8 Z" fill="rgb(239, 132, 113)"/>
<path d="M 13.27,32.085 C 13.93,32.18 14.45,32.47 14.84,32.97 C 15.06,33.24 15.11,33.59 15,34.04 C 14.87,34.55 14.78,35.06 14.73,35.56 C 13.46,34.68 12.97,33.53 13.28,32.09 Z" fill="rgb(239, 132, 113)"/>
<path d="M 24.02,36.885 A 3.87,3.87 0 0,1 23.96,35.13 C 23.98,35.06 23.96,35 23.89,34.96 A 1.73,1.73 0 0,1 23.39,34.48 A 0.24,0.24 0 0,1 23.36,34.26 A 0.24,0.24 0 0,1 23.52,34.1 A 2.1,2.1 0 0,1 25.06,34.18 C 25.14,34.21 25.19,34.27 25.21,34.34 C 25.23,34.42 25.22,34.49 25.17,34.56 C 25.07,34.71 24.92,34.85 24.7,34.97 A 0.22,0.22 0 0,0 24.6,35.13 C 24.48,35.7 24.5,36.27 24.66,36.85 C 24.67,36.91 24.71,36.94 24.78,36.93 A 7.22,7.22 0 0,0 27.54,35.88 A 0.26,0.26 0 0,1 27.78,35.86 C 27.87,35.89 27.92,35.96 27.95,36.04 L 27.98,36.16 C 28.01,36.27 27.98,36.36 27.88,36.41 A 8.1,8.1 0 0,1 22.59,37.59 C 22.4,37.57 22.29,37.46 22.29,37.27 V 37.26 C 22.29,37.18 22.31,37.12 22.37,37.06 A 0.26,0.26 0 0,1 22.57,36.99 L 23.91,37.05 C 24.01,37.05 24.05,37.01 24.03,36.91 Z" fill="rgb(88, 12, 12)"/>
<path d="M 38.410000000000004,35.285 C 38.82,35.74 39.09,36.2 39.2,36.66 L 39.4,37.39 A 12.1,12.1 0 0,1 35.7,39.66 C 35.64,39.68 35.62,39.66 35.64,39.61 C 35.84,38.94 35.83,38.3 35.59,37.67 A 10.83,10.83 0 0,0 38.42,35.3 Z" fill="rgb(158, 50, 32)"/>
<path d="M 18.34,39.585 C 21.2,40.26 24.17,40.47 27.25,40.21 A 20.95,20.95 0 0,0 35.18,38 V 37.95 C 35.25,37.98 35.28,38.02 35.3,38.05 C 35.44,38.61 35.44,39.17 35.3,39.74 A 0.2,0.2 0 0,1 35.18,39.88 L 34.37,40.2 A 26.91,26.91 0 0,1 24.24,41.14 C 22.78,41.02 21.31,40.74 19.84,40.31 A 5.78,5.78 0 0,1 18.35,39.61 Z" fill="rgb(224, 170, 133)"/>
</svg>
