<?xml version="1.0" encoding="UTF-8"?>
<!-- generated by Finnhub -->
<svg viewBox="0 0 55.5 55.5" xmlns="http://www.w3.org/2000/svg">
<path d="M 0,0 H 55.5 V 55.5 H 0 Z" fill="rgb(239, 242, 248)"/>
<path d="M 13.99,12.584999999999999 C 14,12.27 14.28,12 14.63,12 H 41.37 C 41.72,12 42,12.27 42,12.6 V 15.4 C 42,15.73 41.72,16 41.37,16 H 14.63 A 0.62,0.62 0 0,1 14,15.4 V 12.6 Z M 14,40.6 C 14,40.27 14.28,40 14.63,40 H 41.37 C 41.72,40 42,40.27 42,40.6 V 43.4 C 42,43.73 41.72,44 41.37,44 H 14.63 A 0.62,0.62 0 0,1 14,43.4 V 40.6 Z M 19,19.62 V 36.38 C 19,36.72 19.27,37 19.6,37 H 24.4 A 0.6,0.6 0 0,0 25,36.38 V 27.6 C 25,27.73 25.04,27.86 25.13,27.98 L 31.66,36.74 C 31.78,36.9 31.97,37 32.18,37 H 37.36 C 37.89,37 38.19,36.4 37.86,35.98 L 31.76,27.98 A 0.63,0.63 0 0,1 31.78,27.19 L 37.78,20.04 A 0.64,0.64 0 0,0 37.28,19 H 32.16 C 31.96,19 31.78,19.09 31.66,19.24 L 25.14,27.2 A 0.63,0.63 0 0,0 25,27.6 V 19.62 A 0.6,0.6 0 0,0 24.4,19 H 19.6 A 0.6,0.6 0 0,0 19,19.62 Z" fill="rgb(254, 104, 2)"/>
</svg>
