<?xml version="1.0" encoding="UTF-8"?>
<!-- generated by Finnhub -->
<svg viewBox="0 0 55.5 55.5" xmlns="http://www.w3.org/2000/svg">
<path d="M 0,0 H 55.5 V 55.5 H 0 Z" fill="rgb(239, 242, 248)"/>
<path d="M 10.99,31.485 L 7.5,28 C 8.24,30.26 7.5,35 7.5,35 L 11,31.5 Z" fill="rgb(1, 50, 100)"/>
<path d="M 7.08,28.405 L 4,31.5 L 6.74,34.24 C 7.36,32.37 7.48,30.36 7.09,28.42 Z" fill="rgb(252, 197, 2)"/>
<path d="M 10.99,24.485 L 7.5,21 C 8.24,23.27 7.5,28 7.5,28 L 11,24.5 Z" fill="rgb(1, 50, 100)"/>
<path d="M 7.08,21.405 L 4,24.5 L 6.74,27.24 C 7.36,25.36 7.48,23.36 7.09,21.42 Z" fill="rgb(252, 197, 2)"/>
<path d="M 21.99,24.985 H 27 V 26.5 H 24 V 27.69 H 26 V 29.19 H 24 V 30.39 H 27 V 32 H 22 V 25 Z M 28,25 H 30 V 30.5 H 33 V 32 H 28 V 25 Z M 34,25 H 36 V 30.5 H 39 V 32 H 34 V 25 Z M 40,25 H 45 V 26.6 H 42 V 27.69 H 44 V 29.19 H 42 V 30.39 H 45 V 32 H 40 V 25 Z M 48.83,28 C 49.3,28.02 49.71,27.8 49.69,27.33 A 0.78,0.78 0 0,0 48.83,26.5 H 48 V 28 H 48.82 Z M 46,25 H 49.01 C 50.41,24.98 51.62,25.8 51.61,27.3 A 2.3,2.3 0 0,1 50.44,29.32 L 52,32 H 49.93 L 48.69,29.5 H 48 V 32 H 46 V 25 Z M 21,25 H 18.68 L 17,27.18 V 25 H 15 V 32 H 17 V 29.82 L 18.68,32 H 21 L 17.95,28.5 L 21,25 Z" fill="rgb(1, 50, 100)"/>
</svg>
