<?xml version="1.0" encoding="UTF-8"?>
<!-- generated by Finnhub -->
<svg viewBox="0 0 55.5 55.5" xmlns="http://www.w3.org/2000/svg">
<path d="M 0,0 H 55.5 V 55.5 H 0 Z" fill="rgb(239, 242, 248)"/>
<path d="M 31.009999999999998,41.985 H 42.45 L 28.87,28 L 19.46,30.41 L 31.02,42 Z" fill="rgb(157, 181, 171)"/>
<path d="M 14.99,13.985 V 42 C 15.32,42 29,28 29,28 L 15,14 Z" fill="rgb(23, 67, 31)"/>
<path d="M 17.169999999999998,28.515 L 31.74,14 H 32.22 L 17.42,28.77 L 17.18,28.53 Z M 33.58,14 L 19,28.53 L 19.24,28.77 L 34.05,14 H 33.57 Z M 20.94,28.53 L 35.52,14 H 36 L 21.2,28.77 L 20.95,28.53 Z M 37.23,14 L 22.67,28.53 L 22.91,28.77 L 37.7,14 H 37.22 Z M 24.47,28.53 L 39.03,14 H 39.51 L 24.71,28.77 L 24.47,28.53 Z M 40.92,14 L 26.36,28.53 L 26.6,28.77 L 41.4,14 H 40.92 Z M 42.52,14 L 27.96,28.53 L 28.2,28.77 L 43,14 H 42.52 Z" fill="rgb(23, 67, 31)"/>
</svg>
