<?xml version="1.0" encoding="UTF-8"?>
<!-- generated by Finnhub -->
<svg viewBox="0 0 55.5 55.5" xmlns="http://www.w3.org/2000/svg">
<path d="M 0,0 H 55.5 V 55.5 H 0 Z" fill="rgb(254, 182, 2)"/>
<path d="M 38.987,23.985 C 39.647,24 40,23.59 40,23 C 40,22.372 39.687,22 38.997,22 S 38,22.374 38,23 C 38,23.583 38.389,24 38.997,24 Z M 39.128,27 H 38 V 29 H 39.128 C 39.744,29 40,28.6 40,27.946 C 40,27.305 39.744,27 39.128,27 Z M 15.19,29.138 A 1.95,1.95 0 0,1 14.732,28.127 A 1.429,1.429 0 0,1 14.961,27.318 L 23.896,15.063 A 0.603,0.603 0 0,0 23.999,14.684 A 0.692,0.692 0 0,0 23.796,14.196 A 0.676,0.676 0 0,0 23.309,14 H 14.042 A 2.058,2.058 0 0,0 12.604,14.615 C 12.222,15.002 12.006,15.525 12,16.072 V 39.952 A 2.073,2.073 0 0,0 12.601,41.404 A 2.03,2.03 0 0,0 14.042,41.998 H 23.309 A 0.67,0.67 0 0,0 23.795,41.801 A 0.69,0.69 0 0,0 23.999,41.314 A 0.853,0.853 0 0,0 23.871,40.884 L 15.191,29.138 Z M 38.575,33 H 39.415 L 39,31.996 L 38.575,33 Z" fill="rgb(236, 1, 2)"/>
<path d="M 42.003,13.988 H 33.043 A 2.924,2.924 0 0,0 31.03,14.963 L 16.1,27.85 A 0.37,0.37 0 0,0 16.1,28.355 L 31.428,41.419 A 2.58,2.58 0 0,0 33.043,42.001 H 41.988 A 1.982,1.982 0 0,0 43.414,41.403 A 2.036,2.036 0 0,0 44,39.954 V 16.077 A 2.084,2.084 0 0,0 43.423,14.629 A 2.027,2.027 0 0,0 42.013,14.003 Z M 37.056,16 H 38.048 V 17.903 L 39.773,16 H 41.024 L 39.201,18.019 L 41.024,20 H 39.809 L 38.048,18.187 V 20 H 37.058 L 37.056,16 Z M 39.04,21 C 40.29,21 41.024,21.843 41.024,23 C 41.024,24.135 40.311,25 39.04,25 C 37.77,25 37.057,24.135 37.057,23 C 37.059,21.843 37.79,21 39.04,21 Z M 41.024,28 C 41.024,29.104 40.678,30 39.481,30 H 37.056 V 26 H 39.481 C 40.678,26 41.024,26.896 41.024,28 Z M 39.773,40 L 38.048,38.015 V 40 H 37.056 V 36 H 38.048 V 37.732 L 39.773,36 H 41.024 L 39.201,38.015 L 41.024,40 H 39.773 Z M 40.032,35 L 39.712,34 H 38.357 L 38.048,35 H 37.056 L 38.544,31 H 39.536 L 41.024,35 H 40.032 Z" fill="rgb(236, 1, 2)"/>
</svg>
