<?xml version="1.0" encoding="UTF-8"?>
<!-- generated by Finnhub -->
<svg viewBox="0 0 55.5 55.5" xmlns="http://www.w3.org/2000/svg">
<path d="M 0,0 H 55.5 V 55.5 H 0 Z" fill="rgb(40, 59, 105)"/>
<path d="M 8.747,24.985 L 6.538,28 H 6 V 25 H 4 V 33 H 6 V 30 H 6.538 L 8.757,33 H 11 L 8,29 L 11,25 H 8.757 Z M 11,30.113 V 27.887 C 11,25.463 12.454,25 14.5,25 C 16.547,25 18,25.462 18,27.887 V 30.113 C 18,32.537 16.547,33 14.5,33 C 12.454,33 11,32.538 11,30.113 Z M 16,29.626 V 28.448 C 16,27.283 15.55,27 14.501,27 C 13.452,27 13.031,27.283 13,28.448 V 29.626 C 13.03,30.8 13.452,31 14.501,31 S 16,30.801 16,29.626 Z M 22.415,28.15 C 24.487,28.317 25,28.612 25,30.418 C 25,31.72 25.047,33 21.967,33 C 20.185,33 19,32.958 19,30.376 H 21 C 21,31.195 21.24,31.289 22.154,31.289 C 23.031,31.289 23,31.005 23,30.555 S 23.031,29.883 22.154,29.82 L 21.744,29.79 C 20.017,29.653 19.009,29.664 19.009,27.406 C 19.009,25.149 20.139,25.002 21.967,25.002 C 23.497,25.002 25,25.032 25,27.205 V 27.53 H 23 C 23,26.722 22.713,26.707 21.967,26.707 C 21,26.707 21,26.97 21,27.406 C 21,27.841 21.146,28.045 21.64,28.086 L 22.415,28.15 Z M 49.415,28.15 C 51.487,28.317 52,28.61 52,30.417 C 52,31.719 52.047,32.999 48.967,32.999 C 47.185,32.999 46,32.957 46,30.375 H 48 C 48,31.195 48.24,31.288 49.154,31.288 C 50.031,31.288 50,31.005 50,30.554 C 50,30.104 50.031,29.882 49.154,29.82 L 48.744,29.788 C 47.017,29.652 46.01,29.663 46.01,27.405 C 46.01,25.148 47.139,25.001 48.967,25.001 C 50.497,25.001 52,25.032 52,27.204 V 27.53 H 50 C 50,26.721 49.713,26.706 48.967,26.706 C 48,26.706 48,26.969 48,27.405 C 48,27.841 48.146,28.044 48.64,28.085 L 49.415,28.149 Z M 28,33 H 26 V 25 H 29 L 30.5,30 L 32,25 H 35 V 33 H 33 V 27 L 31.5,33 H 29.5 L 28,27 V 33 Z" fill="rgb(254, 254, 253)"/>
<circle cx="40.504" cy="29" r="4.5" fill="rgb(1, 96, 139)"/>
<path d="M 42.357,31.642 C 42.314,32.06 42.65,32.615 42.826,32.849 C 43.312,32.564 43.662,32.207 43.739,32.119 C 43.739,31.681 43.879,31.239 43.952,31.086 H 44.151 C 44.062,30.341 44.305,29.726 44.613,29.506 C 44.859,29.331 44.863,28.863 44.833,28.651 H 44.459 C 44.289,28.425 43.952,27.963 43.952,27.928 C 43.952,27.884 43.49,27.006 43.358,27.006 H 42.698 C 42.486,27.006 42.096,26.758 41.927,26.633 C 41.831,26.487 41.747,26.217 42.169,26.304 C 42.697,26.414 42.565,26.436 42.829,26.502 C 43.041,26.554 43.519,26.758 43.732,26.852 C 43.696,26.758 43.688,26.725 43.952,27.357 A 2.322,2.322 0 0,0 44.977,28.475 A 4.405,4.405 0 0,0 42.988,25.251 C 42.944,25.434 42.777,25.765 42.565,25.624 C 42.354,25.484 42.477,25.2 42.565,25.076 C 42.353,25.083 41.927,25.129 41.927,25.251 C 41.927,25.374 42.088,25.551 42.169,25.624 L 41.927,25.8 A 2.996,2.996 0 0,1 41.641,25.515 C 41.535,25.392 41.361,25.463 41.288,25.515 V 25.8 C 41.288,25.835 41.523,26.078 41.641,26.195 H 41.288 C 41.306,26.353 41.076,26.802 40.958,27.006 C 40.408,27.357 40.364,28.146 40.32,28.366 C 40.276,28.586 40.452,29.09 40.738,29.288 C 40.967,29.445 41.435,29.353 41.641,29.288 C 41.817,29.393 42.066,29.478 42.169,29.507 C 42.118,29.609 42.046,29.845 42.169,29.967 C 42.292,30.09 42.353,30.165 42.367,30.187 V 30.933 C 42.316,30.911 42.204,30.911 42.169,31.086 C 42.134,31.262 42.286,31.54 42.367,31.656 Z M 38.448,25.333 C 38.318,25.415 38.042,25.347 37.92,25.313 C 36.77,26.095 36.27,27.308 36.14,27.905 C 36.23,27.978 36.415,28.087 36.38,27.911 C 36.345,27.736 36.59,27.389 36.717,27.237 C 36.864,27.184 37.14,27.109 37.069,27.237 C 36.981,27.399 37.216,27.692 37.319,27.692 C 37.421,27.692 37.451,27.252 37.583,27.238 C 37.715,27.223 38.36,26.593 38.448,26.578 C 38.536,26.564 39.254,26.344 39.254,26.168 C 39.254,25.992 39.005,25.831 38.756,25.788 C 38.506,25.743 38.257,25.904 38.096,25.918 C 37.935,25.934 37.92,25.816 37.92,25.714 C 37.92,25.611 38.33,25.567 38.448,25.567 H 38.756 C 38.863,25.617 39.114,25.714 39.254,25.714 C 39.43,25.714 39.489,25.699 39.65,25.714 C 39.812,25.729 40.12,25.611 40.295,25.567 C 40.471,25.523 40.735,25 40.677,25 C 40.618,25 39.137,24.985 39.005,25 C 38.873,25.015 38.609,25.23 38.448,25.333 Z M 38.686,29.8 C 38.34,29.387 37.411,29.238 36.99,29.215 C 36.804,29.559 36.835,30.287 36.874,30.608 C 37.212,30.825 37.884,31.343 37.871,31.674 C 37.858,32.004 37.93,32.508 37.969,32.714 C 37.969,32.714 38.309,32.957 38.781,33.152 C 38.781,33.152 39.111,32.296 39.151,32.103 C 39.191,31.911 39.291,31.542 39.335,31.381 C 39.385,31.278 39.508,30.996 39.601,30.693 C 39.717,30.315 39.451,30.023 39.335,30.023 H 38.686 V 29.799 Z" fill="rgb(254, 254, 253)"/>
</svg>
