<?xml version="1.0" encoding="UTF-8"?>
<!-- generated by Finnhub -->
<svg viewBox="0 0 55.5 55.5" xmlns="http://www.w3.org/2000/svg">
<path d="M 0,0 H 55.5 V 55.5 H 0 Z" fill="url(#a)"/>
<path d="M 40.99,27.985 A 13,13 0 0,1 28,41 C 21.03,40.97 15,35.34 15,28 C 15,20.65 21,14.95 28,15 C 35.01,15.05 41,20.65 41,28 Z M 13,13 V 43 H 43 V 13 H 13 Z M 27.84,16.37 C 31.68,16.37 35.02,18.45 36.74,21.54 L 35.91,21.97 C 35.95,22.06 36.17,22.56 36.34,23.33 C 36.47,23.56 36.68,23.78 36.83,23.94 L 36.86,23.98 C 37.12,24.25 37.43,24.49 37.73,24.73 L 38.28,25.17 C 39.08,25.85 39.61,26.94 38.85,27.85 C 38.65,28.07 38.44,28.27 38.2,28.44 C 37.58,28.88 36.74,29.1 36,29.24 V 31.2 C 36,31.66 36,32.39 35.98,33.1 L 36.51,33.27 L 37.08,33.44 C 37.26,33.5 37.45,33.71 37.41,33.92 V 33.94 L 37.39,33.98 L 37.96,34.18 L 37.56,35.53 L 37,35.35 C 36.93,35.45 36.81,35.57 36.65,35.55 A 7,7 0 0,1 35.92,35.34 L 35.71,35.27 C 35.07,36.49 34.15,36.77 33.81,36.89 C 33.77,36.89 33.74,36.91 33.71,36.92 C 33.38,37.04 32,37 32,37 C 30.66,37 30.57,36.25 30.61,35.75 C 30.7,34.76 30.91,32.4 30.86,31.25 C 30.86,30.79 30.69,27.79 30.65,27.49 C 30.36,25.92 31.51,25.96 32.55,25.99 L 33,26 A 3,3 0 0,1 35.3,27.08 L 36.06,25.6 C 36.06,24.94 36,23.4 35.44,22.2 A 8.7,8.7 0 0,0 27.85,17.8 A 8.7,8.7 0 0,0 20.21,22.27 A 9.2,9.2 0 0,0 19.55,25.68 L 22.08,30.73 C 22.18,30.76 22.27,30.81 22.34,30.89 L 22.52,31.24 V 31.31 C 22.52,31.56 22.37,31.78 22.15,31.87 A 0.292,0.292 0 0,1 22.01,31.79 V 36.36 A 0.5,0.5 0 0,0 23.01,36.36 V 26.62 A 0.5,0.5 0 0,0 22.71,26.17 V 26.16 H 22.7 A 0.5,0.5 0 0,0 22,26.62 V 29.76 L 20.69,27.16 A 3.1,3.1 0 0,1 22.75,26 H 24.28 C 24.82,26 25.64,26.2 25.38,27.6 C 25.34,27.9 25.15,30.67 25.18,31.22 V 32.28 C 25.18,32.78 25.26,33.67 25.33,34.44 C 25.38,35.03 25.43,35.54 25.43,35.78 C 25.48,36.29 25.18,37 24.45,37 C 24.45,37 22.42,37.06 21.88,36.78 A 3.72,3.72 0 0,1 20.35,35.29 C 20.02,34.67 20.04,32.7 20.05,31.48 V 30.6 C 20.04,30.21 20.03,29.7 20.05,29.22 A 7.32,7.32 0 0,1 17.53,28.43 A 4.3,4.3 0 0,1 16.77,27.84 C 15.87,26.93 16.49,25.84 17.45,25.16 C 17.65,25.01 17.88,24.86 18.1,24.72 C 18.45,24.48 18.81,24.25 19.12,23.98 C 19.31,22.83 19.69,22.09 19.73,22.01 L 18.92,21.57 A 10.16,10.16 0 0,1 27.84,16.36 Z M 37.34,34.17 L 37.7,34.29 L 37.4,35.29 L 37.07,35.19 L 37.13,34.95 L 37.34,34.17 Z M 36.55,25.1 C 36.55,24.84 36.53,24.58 36.51,24.34 L 37.01,24.83 L 37.91,25.55 C 38.31,25.85 38.58,26.38 38.58,26.38 C 38.95,27.04 38.46,27.54 38.46,27.54 C 37.83,28.18 37.28,28.36 37.28,28.36 C 36.56,28.63 36.08,28.73 35.97,28.75 A 9.1,9.1 0 0,0 35.91,28.23 L 37.26,25.88 C 37.38,25.43 36.94,25.18 36.94,25.18 A 0.88,0.88 0 0,0 36.55,25.1 Z M 34,31.81 A 0.75,0.75 0 0,1 33.8,31.91 A 0.67,0.67 0 0,1 33.7,31.93 A 0.65,0.65 0 0,1 33.21,31.77 C 33.03,31.62 33,31.38 33,31.38 V 31.34 C 33,31.19 33.07,30.81 33.47,30.73 L 34,29.7 V 26.66 A 0.5,0.5 0 0,0 33.4,26.16 H 33.39 A 0.5,0.5 0 0,0 33,26.66 V 36.37 A 0.5,0.5 0 0,0 34,36.37 V 31.8 Z M 19.03,24.75 L 19.02,25.11 A 0.86,0.86 0 0,0 18.59,25.18 S 18.17,25.43 18.29,25.88 L 19.9,28.7 A 14,14 0 0,1 18.63,28.36 S 17.97,28.18 17.23,27.54 C 17.23,27.54 16.65,27.04 17.09,26.38 C 17.09,26.38 17.39,25.85 17.89,25.55 L 18.94,24.83 L 19.04,24.75 Z M 21.93,31.54 C 21.96,31.6 22.01,31.66 22.06,31.7 A 0.96,0.96 0 0,0 22.17,31.65 C 22.37,31.55 22.41,31.28 22.28,31.08 C 22.19,30.95 22.08,30.85 21.94,30.83 L 19.22,25.4 C 19.07,25.2 18.83,25.26 18.73,25.32 L 18.64,25.37 C 18.54,25.42 18.4,25.67 18.44,25.83 L 20.08,28.69 C 20.1,28.47 20.13,28.29 20.17,28.16 L 21.94,31.09 A 0.49,0.49 0 0,0 21.94,31.54 Z M 34.97,22.47 A 8.16,8.16 0 0,0 27.84,18.34 C 24.75,18.34 22.06,20.04 20.69,22.54 L 21.34,22.84 A 7.5,7.5 0 0,1 27.82,19.05 A 7.55,7.55 0 0,1 34.29,22.78 L 34.97,22.47 Z M 34.12,31.05 L 34.25,30.79 L 37.11,25.84 C 37.15,25.67 37.01,25.43 36.91,25.37 L 36.81,25.32 C 36.71,25.26 36.48,25.21 36.32,25.4 L 33.6,30.83 A 0.54,0.54 0 0,0 33.26,31.08 C 33.14,31.28 33.15,31.5 33.34,31.68 C 33.7,31.88 33.99,31.73 34.12,31.5 A 0.53,0.53 0 0,0 34.12,31.05 Z M 37.16,33.95 L 36.86,35.12 C 36.83,35.22 36.81,35.32 36.69,35.35 L 36.04,35.15 L 36.5,33.51 L 36.98,33.64 C 37.12,33.68 37.23,33.79 37.16,33.94 Z" fill="rgb(254, 254, 253)" fill-rule="evenodd"/>
<defs>
<linearGradient id="a" x1="10.42" x2="68.15" y1="9.71" y2="76.02" gradientUnits="userSpaceOnUse">
<stop stop-color="rgb(25, 29, 31)" offset="0"/>
<stop stop-color="rgb(5, 5, 8)" offset="1"/>
</linearGradient>
</defs>
</svg>
