<?xml version="1.0" encoding="UTF-8"?>
<!-- generated by Finnhub -->
<svg viewBox="0 0 55.5 55.5" xmlns="http://www.w3.org/2000/svg">
<path d="M 0,0 H 55.5 V 55.5 H 0 Z" fill="rgb(239, 242, 248)"/>
<path d="M 5.99,34.985 H 49 V 22 H 6 V 35 Z M 22.25,29.5 C 22.28,27.45 21.11,26 19.03,26 C 17.13,26 15.75,27.2 15.75,29.05 C 15.75,30.96 17.15,32 18.95,32 C 20.26,32 21.68,31.4 22.07,30 H 20.17 C 20.05,30.44 19.42,30.63 19.03,30.63 C 18.43,30.63 17.75,30.18 17.75,29.51 H 22.25 Z M 17.75,28.36 C 17.75,27.76 18.36,27.38 19.03,27.38 C 19.69,27.38 20.25,27.84 20.25,28.36 H 17.75 Z M 40.28,25.81 C 42.36,25.81 43.53,27.26 43.5,29.32 H 39 C 39,29.99 39.68,30.44 40.28,30.44 C 40.68,30.44 41.3,30.25 41.42,29.81 H 43.32 C 42.92,31.22 41.52,31.81 40.2,31.81 C 38.4,31.81 37,30.77 37,28.87 C 37,27.01 38.38,25.81 40.28,25.81 Z M 40.28,27.19 C 39.61,27.19 39,27.57 39,28.17 H 41.5 C 41.5,27.66 40.94,27.19 40.28,27.19 Z M 23,26 V 34 H 25 V 31.2 C 25.39,31.69 26.16,32 26.79,32 C 28.09,32 29.5,31.34 29.5,29.05 C 29.5,27.44 28.66,26 26.9,26 C 26.24,26 25.32,26.32 25,27.04 V 26 H 23 Z M 26.4,30.42 C 25.8,30.42 25.26,29.85 25.26,29.03 C 25.26,28.25 25.85,27.73 26.4,27.73 C 27.01,27.73 27.53,28.33 27.53,29.05 C 27.53,29.85 27.01,30.42 26.4,30.42 Z M 30,34 V 26 H 32 V 27.04 C 32.32,26.32 33.24,26 33.9,26 C 35.66,26 36.5,27.44 36.5,29.05 C 36.5,31.35 35.08,32 33.79,32 C 33.16,32 32.39,31.69 32,31.2 V 34 H 30 Z M 32.26,29.03 C 32.26,29.85 32.8,30.42 33.4,30.42 C 34.01,30.42 34.53,29.85 34.53,29.05 C 34.53,28.34 34.01,27.73 33.4,27.73 C 32.85,27.73 32.26,28.25 32.26,29.03 Z M 44,32 H 46 V 24 H 44 V 32 Z M 9,32 H 11 V 27.62 L 13.7,32 H 15.91 L 13.24,27.62 L 16,24 H 13.7 L 11,27.62 V 24 H 9 V 32 Z" fill="rgb(133, 140, 155)" fill-rule="evenodd"/>
<path d="M 19.38,18.985 L 17.14,22.32 L 16,24 H 18.69 L 19.79,22.32 H 19.8 L 20.91,20.64 L 22,19 H 19.39 Z" fill="rgb(237, 22, 29)"/>
</svg>
