<?xml version="1.0" encoding="UTF-8"?>
<!-- generated by Finnhub -->
<svg viewBox="0 0 55.5 55.5" xmlns="http://www.w3.org/2000/svg">
<path d="M 0,0 H 55.5 V 55.5 H 0 Z" fill="rgb(239, 242, 248)"/>
<path d="M 26.59,22.765 C 29.4,19.15 32.6,16.84 34.94,17.06 C 38.47,17.4 38.74,23.29 35.58,30.22 C 32.41,37.14 26.99,42.5 23.48,42.17 A 2.91,2.91 0 0,1 20.98,40 C 21.46,42.3 22.72,43.78 24.76,43.98 C 29.46,44.43 36.46,37.84 40.41,29.15 C 44.35,20.47 43.72,13.14 39.03,12.68 C 35.26,12.32 30.02,16.51 26.06,22.62" fill="rgb(226, 222, 26)"/>
<path d="M 28.04,27.705 C 28.67,25.39 27.32,23.67 25.02,23.92 A 6.9,6.9 0 0,0 19.68,28.62 C 19.05,30.94 20.4,32.66 22.7,32.41 A 6.9,6.9 0 0,0 28.05,27.71 Z M 24.36,20.43 C 24.79,18.85 23.85,17.73 22.31,17.89 A 4.64,4.64 0 0,0 18.67,21.05 C 18.24,22.64 19.17,23.79 20.75,23.62 A 4.68,4.68 0 0,0 24.32,20.43 H 24.36 Z M 24.76,13.75 C 25.04,12.7 24.43,11.93 23.37,12.01 A 3.23,3.23 0 0,0 20.87,14.16 A 1.24,1.24 0 0,0 21.02,15.47 A 1.27,1.27 0 0,0 22.28,15.92 A 3.14,3.14 0 0,0 24.72,13.77 L 24.76,13.75 Z" fill="rgb(231, 84, 31)"/>
<path d="M 18.34,30.425 C 16.33,31.84 15,33.46 14.93,34.83 C 14.84,37.09 18.33,37.76 22.75,36.33 C 27.16,34.9 30.77,31.89 30.9,29.63 A 1.82,1.82 0 0,0 29.78,27.88 A 2.69,2.69 0 0,1 31.84,30.6 C 31.72,33.63 27.18,37.53 21.7,39.32 S 11.9,40.1 12,37.07 C 12.09,34.81 14.68,32.04 18.24,30.06" fill="rgb(89, 86, 88)"/>
</svg>
