<?xml version="1.0" encoding="UTF-8"?>
<!-- generated by Finnhub -->
<svg viewBox="0 0 55.5 55.5" xmlns="http://www.w3.org/2000/svg">
<path d="M 0,0 H 55.5 V 55.5 H 0 Z" fill="rgb(239, 242, 248)"/>
<path d="M 3.99,22.985 V 33 H 52 V 23 H 4 Z M 30.5,31 H 29 V 25 H 30.9 C 32.2,25 33.7,25.26 33.7,26.87 C 33.7,27.8 33.2,28.4 32.28,28.58 L 34,31 H 32.06 L 30.5,28.65 V 31 Z M 30.5,28 V 26 H 30.84 C 31.56,26 32,26.37 32,27 C 32,27.53 31.54,28 30.82,28 H 30.5 Z M 43,28 C 43,29.66 41.62,31 40,31 C 38.39,31 37,29.66 37,28 S 38.39,25 40,25 C 41.62,25 43,26.34 43,28 Z M 40,29.68 C 40.87,29.68 41.5,28.94 41.5,28 C 41.5,27.07 40.85,26.32 40,26.32 C 39.13,26.32 38.5,27.06 38.5,28 S 39.1,29.68 40,29.68 Z M 48.5,31 H 47 V 28.26 L 45,25 H 46.63 C 46.74,25.24 46.9,25.5 47.06,25.75 A 4,4 0 0,1 47.68,27.05 C 47.76,26.62 48.04,26.19 48.31,25.78 C 48.48,25.51 48.65,25.25 48.76,25 H 50.39 L 48.5,28.26 V 31 Z M 21,31 H 25 V 29.5 H 22.5 V 25 H 21 V 31 Z M 16.5,31 H 15 V 25 H 16.5 V 31 Z M 6,25 H 7.5 V 27.73 L 9.3,25 H 11 L 9,28 L 11,31 H 9.18 L 7.5,28.3 V 31 H 6 V 25 Z" fill="rgb(206, 30, 45)" fill-rule="evenodd"/>
</svg>
