<?xml version="1.0" encoding="UTF-8"?>
<!-- generated by Finnhub -->
<svg fill="none" viewBox="0 0 55.5 55.5" xmlns="http://www.w3.org/2000/svg">
<rect width="56" height="56" fill="rgb(239, 242, 248)"/>
<path d="M 45.99,27.985 H 10 V 30 H 46 V 28 Z" fill="url(#d)"/>
<path d="M 18.764999999999997,39.985 H 16.7501 C 16.4391,40 16.1864,39.9052 15.9608,39.6924 C 15.9108,39.6438 15.8651,39.5913 15.8244,39.5354 L 13.678,36.5231 C 13.5677,36.3588 13.1836,35.9935 13.0001,36 H 12.0001 V 40 H 10.0001 V 31 H 12.0001 V 34.5045 H 13.0001 C 13.3198,34.5045 13.2805,34.4123 13.4233,34.226 L 15.5463,31.4031 C 15.6441,31.2638 15.7826,31.1546 15.9449,31.0891 C 16.1201,31.0293 16.3055,31.0011 16.4916,31.0061 H 18.4739 L 15.7029,34.6028 C 15.6143,34.7225 15.5105,34.8313 15.3939,34.9269 C 15.2927,35.0085 15.1831,35.0801 15.0667,35.1406 C 15.2273,35.1968 15.3779,35.276 15.5132,35.3756 C 15.6596,35.4876 15.7844,35.623 15.882,35.7756 L 18.775,40 Z M 43.175,35.7756 C 43.0774,35.623 42.9526,35.4876 42.8062,35.3756 C 42.6709,35.276 42.5203,35.1968 42.3597,35.1406 C 42.476,35.0799 42.5856,35.0083 42.6869,34.9269 C 42.8032,34.8313 42.9066,34.7224 42.9949,34.6028 L 45.7712,31.0061 L 43.7503,31.0053 C 43.5639,31.0004 43.4167,31.0294 43.2411,31.0891 C 43.0793,31.1549 42.9412,31.264 42.8435,31.4031 L 40.7206,34.226 C 40.5778,34.4123 40.3232,34.5 40.0003,34.5 L 39.0003,34.5031 V 31.0047 L 37.0003,31 V 40 H 39.0003 V 36 H 40.0003 C 40.1843,35.9935 40.8898,36.1083 41.0003,36.273 L 43.1206,39.5364 C 43.161,39.5925 43.2067,39.6451 43.2571,39.6934 C 43.4243,39.8527 43.7506,40.0033 43.9754,40 H 46.0003 L 43.175,35.7756 Z M 27.842,40 H 25.7925 C 25.4291,40 25.1051,39.7734 24.9463,39.5131 L 23.255,36.9283 C 23.2009,36.8286 23.1196,36.7446 23.0195,36.6852 C 22.8986,36.6306 22.7653,36.6055 22.6316,36.6123 H 22.0003 V 40 H 20.0003 V 31 L 22.947,31.0061 C 23.5314,30.9966 24.255,31.0648 24.8195,31.2086 C 26.0959,31.5304 27.0132,32.4845 27.0003,33.8125 C 27.0042,34.5643 26.3683,35.3325 25.7798,35.7594 C 25.5339,35.9366 25.2621,36.0786 24.973,36.1808 C 25.1088,36.2362 25.2402,36.3009 25.3662,36.3742 C 25.5361,36.4924 25.6808,36.6402 25.7925,36.8098 L 27.842,40 Z M 25.0003,33.8125 C 25.0523,32.8817 23.8291,32.5497 23.0195,32.5507 H 22.0003 V 35 H 23.0003 C 23.7766,35.0193 25.0087,34.7046 25.0003,33.8125 Z M 28.0003,31 V 36.275 C 27.9939,36.7883 28.0889,37.2982 28.2806,37.7781 C 28.4582,38.2202 28.7333,38.6212 29.0874,38.954 C 29.4525,39.2925 29.8881,39.5548 30.3663,39.7238 C 31.47,40.0921 32.4991,40.0921 33.6029,39.7238 C 34.0811,39.5549 34.5167,39.2926 34.8818,38.954 C 35.2367,38.6203 35.5131,38.2188 35.6928,37.776 C 35.8861,37.2965 36.0062,36.7926 36.0003,36.279 V 31.0061 L 34.0003,31 V 36.273 C 34.0003,37.5 33.0784,38 32.0003,38 C 31.0003,38 29.9806,37.547 30.0003,36.275 V 31 H 28.0003 Z" fill="url(#c)"/>
<path d="M 35.546,13.985 C 35.9883,16.4578 35.8021,18.9824 34.7984,21.2826 C 33.7948,23.5827 32.1315,25.5648 30.0004,27 H 39.4447 C 40.1598,24.7134 40.1852,22.2802 39.518,19.9804 C 38.8507,17.6805 37.4009,15.6076 35.556,14 Z" fill="url(#b)"/>
<path d="M 34.99,13.985 C 33.0167,12.6171 29.9636,11.9787 27.5464,12.0004 C 25.1293,12.0221 22.7787,12.7956 20.8204,14.2138 S 17.3931,17.6246 16.617,19.9156 C 15.8408,22.2065 15.7959,24.6824 16.4885,27 C 18.4427,25.4714 20.8889,22.3554 21.486,20.3092 C 22.656,16.3032 25.1958,15.087 27.478,15.8056 C 27.8691,15.9265 29.428,15.5236 30.9292,15.5036 C 32.2201,15.4868 32.67,15.9444 32.67,15.9444 S 31.0385,15.9118 29.4995,16.5756 C 28.3116,17.0911 28.1329,17.0859 28.2465,17.2268 C 28.36,17.3678 30.1765,16.9112 32.4724,17.4372 C 32.0719,17.9432 29.838,17.1932 28.7416,19.2751 C 28.299,20.1167 28.7363,21.2876 28.9592,21.9525 C 29.6898,24.1154 29.0727,26.0732 28.6817,26.9947 C 30.9526,25.8125 32.7501,23.887 33.7744,21.5393 C 34.7988,19.1915 35.6771,16.4705 35,14 Z" fill="url(#a)"/>
<defs>
<linearGradient id="d" x1="10" x2="46" y1="29" y2="29" gradientUnits="userSpaceOnUse">
<stop stop-color="rgb(14, 164, 63)" offset="0"/>
<stop stop-color="rgb(17, 172, 60)" offset=".1"/>
<stop stop-color="rgb(22, 185, 55)" offset=".3"/>
<stop stop-color="rgb(24, 189, 53)" offset=".5"/>
<stop stop-color="rgb(22, 185, 55)" offset=".7"/>
<stop stop-color="rgb(17, 172, 60)" offset=".9"/>
<stop stop-color="rgb(14, 164, 63)" offset="1"/>
</linearGradient>
<linearGradient id="c" x1="28.002" x2="28.002" y1="31.006" y2="40.003" gradientUnits="userSpaceOnUse">
<stop stop-color="rgb(1, 99, 208)" offset="0"/>
<stop stop-color="rgb(1, 79, 178)" offset="1"/>
</linearGradient>
<linearGradient id="b" x1="37.46" x2="37.46" y1="13.827" y2="27.06" gradientUnits="userSpaceOnUse">
<stop stop-color="rgb(1, 234, 128)" offset="0"/>
<stop stop-color="rgb(24, 189, 53)" offset=".38095"/>
<stop stop-color="rgb(1, 124, 78)" offset=".92614"/>
</linearGradient>
<linearGradient id="a" x1="18.159" x2="34.774" y1="26.475" y2="14.393" gradientUnits="userSpaceOnUse">
<stop stop-color="rgb(0, 81, 181)" offset="0"/>
<stop stop-color="rgb(0, 82, 183)" offset=".44302"/>
<stop stop-color="rgb(0, 84, 186)" stop-opacity=".28" offset="1"/>
</linearGradient>
</defs>
</svg>
