<?xml version="1.0" encoding="UTF-8"?>
<!-- generated by Finnhub -->
<svg viewBox="0 0 55.5 55.5" xmlns="http://www.w3.org/2000/svg">
<path d="M 0,0 H 55.5 V 55.5 H 0 Z" fill="rgb(239, 242, 248)"/>
<path d="M 8.99,19.075 V 18.29 C 9,18.13 9.15,18 9.33,18 H 14.87 C 15.5,18 16,18.46 16,19.02 V 27.98 C 16,28.54 15.5,29 14.87,29 H 9.33 C 9.15,29 9,28.87 9,28.7 V 27.9 C 9,27.73 9.15,27.6 9.33,27.6 H 13.6 C 13.86,27.6 14,27.4 14,27.17 V 24.43 C 14,24.19 13.86,24 13.6,24 H 10.05 C 9.78,24 9.57,23.8 9.57,23.56 V 23.06 C 9.57,22.82 9.78,22.63 10.05,22.63 H 13.6 C 13.86,22.63 14,22.43 14,22.19 V 19.82 C 14,19.58 13.86,19.38 13.6,19.38 H 9.33 C 9.15,19.38 9,19.25 9,19.09 Z M 17,19.17 V 27.83 C 17,28.47 17.55,29 18.22,29 H 22.78 A 1.2,1.2 0 0,0 24,27.83 V 23.77 A 1.2,1.2 0 0,0 22.78,22.6 H 19.51 C 19.18,22.6 19,22.33 19,22.01 V 19.95 C 19,19.62 19.18,19.36 19.51,19.36 H 23.37 A 0.3,0.3 0 0,0 23.67,19.06 V 18.29 A 0.3,0.3 0 0,0 23.37,18 H 18.22 A 1.2,1.2 0 0,0 17,19.17 Z M 19,24.59 C 19,24.26 19.25,24 19.55,24 H 21.45 C 21.75,24 22,24.26 22,24.6 V 26.9 C 22,27.24 21.75,27.5 21.44,27.5 H 19.55 C 19.25,27.5 19,27.24 19,26.9 V 24.6 Z M 29,18.45 V 28.82 C 29,29.2 29.43,29.33 29.6,29 L 35.15,18.7 C 35.38,18.27 35.81,18 36.29,18 H 38.62 C 38.95,18 39.16,18.36 39,18.66 L 34.43,27.33 C 34.17,27.83 34.17,28.41 34.43,28.9 L 39,38.34 C 39.16,38.64 38.95,39 38.62,39 H 36.3 A 1.3,1.3 0 0,1 35.15,38.3 L 32.51,33.27 A 0.43,0.43 0 0,0 31.75,33.27 L 28.8,38.77 A 0.43,0.43 0 0,1 28.42,39 H 26.22 C 25.57,39 25.05,38.47 25.05,37.81 V 19.19 C 25.05,18.53 25.57,18 26.21,18 H 28.5 C 28.74,18 29,18.2 29,18.45 Z M 41,38.7 V 31.73 A 3.8,3.8 0 0,1 44.84,28 H 46.7 C 46.87,28 47,28.13 47,28.29 V 30.57 C 47,30.73 46.87,31 46.7,31 H 45.78 C 44.96,31 44,31.5 44,32.3 V 38.71 C 44,38.87 43.9,39 43.73,39 H 41.3 A 0.3,0.3 0 0,1 41,38.71 Z" fill="rgb(46, 131, 249)"/>
</svg>
