<?xml version="1.0" encoding="UTF-8"?>
<!-- generated by Finnhub -->
<svg viewBox="0 0 55.5 55.5" xmlns="http://www.w3.org/2000/svg">
<path d="M 0,0 H 55.5 V 55.5 H 0 Z" fill="rgb(239, 242, 248)"/>
<path d="M 46.82,26.985 L 50.49,30.67 V 27 H 52 V 33 H 50.49 L 46.5,29.06 V 33 H 45 V 27 H 46.83 Z M 29.71,27 L 32.01,29.88 L 34.39,27 H 36 V 33 H 34.5 V 29.17 L 32.02,32 H 31.93 L 29.5,29.17 V 33 H 28 V 27 H 29.71 Z M 44,27 V 33 H 42.5 V 29.1 L 39.01,33 H 37 L 42.17,27 H 44 Z M 19,27 V 33 H 17.5 V 29.1 L 14.01,33 H 12 L 17.17,27 H 19 Z M 24.12,27 C 25.62,27 26.79,27.68 26.79,29.04 C 26.79,30.04 26.19,30.67 25.27,30.94 H 25.25 L 27,33 H 25 L 22.41,30 H 24.01 C 24.62,30 25.01,29.67 25.01,29.09 C 25.01,28.51 24.63,28.34 24.03,28.33 H 21.5 V 33 H 20 V 27 H 24.12 Z M 12.15,22.5 L 11.04,23.5 A 58.5,58.5 0 0,0 4.28,25.88 L 4,26 L 4.22,25.88 C 6.76,24.52 9.42,23.38 12.15,22.5 Z M 28,20 C 24.16,20 20.32,20.43 16.57,21.28 L 15.5,22.4 C 19.62,21.56 23.8,21 28,21 A 60.84,60.84 0 0,1 52,26 A 50.25,50.25 0 0,0 28,20 Z M 8.44,30.16 L 8.29,30 L 7,31.16 L 7.1,31.28 L 8.67,33 H 11 L 10.76,32.73 L 8.44,30.16 Z"/>
<path d="M 5.49,29.535 V 27 H 4 V 33 H 5.5 L 5.49,31.45 L 18,19 L 5.5,29.55 Z"/>
</svg>
