<?xml version="1.0" encoding="UTF-8"?>
<!-- generated by Finnhub -->
<svg viewBox="0 0 55.5 55.5" xmlns="http://www.w3.org/2000/svg">
<path d="M 0,0 H 55.5 V 55.5 H 0 Z" fill="rgb(239, 242, 248)"/>
<path d="M 26.81,17.275 C 26.38,13.86 24.42,13 23.5,13 L 22.95,15.14 L 24.05,32.3 C 27.55,34.62 35.02,39.76 37.33,40.88 C 39.53,41.95 42.24,42 43.41,41.42 C 44.52,40.86 43.78,39.27 43.41,38.73 L 27.93,29.08 C 27.74,26.58 27.26,20.72 26.82,17.28 Z" fill="url(#e)"/>
<path d="M 26.25,15.135 A 2.87,2.87 0 0,0 23.5,13 C 21.3,13 17.44,19.8 15.78,23.2 L 10.82,33.4 V 38.24 L 15.23,39.31 C 15.42,38.24 16.33,34.59 18.53,28.57 A 50.53,50.53 0 0,1 26.26,15.15 Z" fill="url(#d)"/>
<path d="M 13.02,35.545 C 11.7,35.56 11,34.12 10.83,33.41 C 8.62,38.99 11.37,40.75 13.03,40.93 C 17.99,40.93 25.26,34.4 27.91,32.33 C 30.67,30.2 42.8,19.44 42.8,19.44 V 16.22 H 39.49 C 37.83,17.3 32.87,20.95 26.26,26.96 C 17.99,34.48 14.68,35.56 13.03,35.56 Z" fill="url(#c)"/>
<path d="M 41.690000000000005,15.135 C 40.37,15.15 38.2,16.94 37.28,17.83 A 5.73,5.73 0 0,1 39.48,17.3 C 40.37,17.3 39.48,19.09 38.94,19.98 L 33.97,29.11 L 38.38,31.26 C 41.7,25.89 45,19.98 45,18.37 C 45,15.69 43.35,15.15 41.7,15.15 Z" fill="url(#b)"/>
<path d="M 38.370000000000005,28.025 C 37.5,26.32 36.69,24.81 36.51,24.28 C 35.41,25.53 33.53,28.47 33.97,30.18 C 34.53,32.33 38.94,38.78 38.94,40.38 C 38.94,41.68 36.91,40.57 35.63,39.85 A 8,8 0 0,0 41.14,42 C 44.44,42 44.44,39.85 44.44,38.78 C 44.44,38.08 43.9,37.17 42.24,34.48 C 40.2,31.16 39.49,30.18 38.38,28.04 Z" fill="url(#a)"/>
<defs>
<linearGradient id="e" x1="24.06" x2="41.5" y1="13.54" y2="42.44" gradientUnits="userSpaceOnUse">
<stop stop-color="rgb(8, 47, 133)" offset="0"/>
<stop stop-color="rgb(1, 111, 178)" offset=".32"/>
<stop stop-color="rgb(1, 90, 162)" offset=".45"/>
<stop stop-color="rgb(1, 79, 155)" offset=".54"/>
<stop stop-color="rgb(1, 107, 178)" offset=".75"/>
<stop stop-color="rgb(1, 69, 142)" offset="1"/>
</linearGradient>
<linearGradient id="d" x1="22.95" x2="17.05" y1="13" y2="39.39" gradientUnits="userSpaceOnUse">
<stop stop-color="rgb(1, 57, 134)" offset="0"/>
<stop stop-color="rgb(1, 112, 183)" offset=".15"/>
<stop stop-color="rgb(1, 134, 202)" offset=".32"/>
<stop stop-color="rgb(1, 137, 205)" offset=".45"/>
<stop stop-color="rgb(1, 120, 189)" offset=".54"/>
<stop stop-color="rgb(1, 103, 174)" offset=".64"/>
<stop stop-color="rgb(1, 51, 135)" offset="1"/>
</linearGradient>
<linearGradient id="c" x1="40.59" x2="12.02" y1="16.22" y2="41.13" gradientUnits="userSpaceOnUse">
<stop stop-color="rgb(5, 50, 135)" offset="0"/>
<stop stop-color="rgb(1, 126, 195)" offset=".22"/>
<stop stop-color="rgb(1, 132, 200)" offset=".47"/>
<stop stop-color="rgb(1, 123, 192)" offset=".69"/>
<stop stop-color="rgb(8, 47, 132)" offset="1"/>
</linearGradient>
<linearGradient id="b" x1="42.79" x2="37" y1="15.15" y2="30.82" gradientUnits="userSpaceOnUse">
<stop stop-color="rgb(1, 67, 146)" offset="0"/>
<stop stop-color="rgb(1, 116, 186)" offset=".46"/>
<stop stop-color="rgb(1, 108, 179)" offset=".69"/>
<stop stop-color="rgb(1, 98, 170)" offset="1"/>
</linearGradient>
<linearGradient id="a" x1="36.18" x2="42.5" y1="24.81" y2="42.11" gradientUnits="userSpaceOnUse">
<stop stop-color="rgb(1, 133, 201)" offset="0"/>
<stop stop-color="rgb(1, 127, 196)" offset=".55"/>
<stop stop-color="rgb(1, 58, 140)" offset="1"/>
</linearGradient>
</defs>
</svg>
