<?xml version="1.0" encoding="UTF-8"?>
<!-- generated by Finnhub -->
<svg viewBox="0 0 55.5 55.5" xmlns="http://www.w3.org/2000/svg">
<path d="M 0,0 H 55.5 V 55.5 H 0 Z" fill="rgb(239, 242, 248)"/>
<path d="M 24.99,24.985 H 27 V 35 H 25 Z M 47,21 H 49 V 30 H 47 Z" fill="rgb(7, 74, 141)"/>
<path d="M 51.99,24.985 V 27 H 47 V 25 Z M 49,30 A 3,3 0 0,0 52,33 V 35 A 5,5 0 0,1 47,30 H 49 Z M 28,27.76 A 3,3 0 0,1 33,30 H 35 A 5,5 0 0,0 28,25.42 V 27.76 Z M 4,21 H 6 V 35 H 4 Z M 7,24 A 3,3 0 0,0 10,21 H 12 A 5,5 0 0,1 7,26 V 24 Z M 8.5,29 C 7.94,29 7.42,29.19 7,29.5 V 27.26 A 4.49,4.49 0 0,1 13,31.5 V 35 H 11 V 31.5 A 2.5,2.5 0 0,0 8.5,29 Z M 19,35 C 19.71,35 20.39,34.85 21,34.58 V 32.24 A 3,3 0 1,1 22,30 V 35 H 24 V 30 A 5,5 0 1,0 19,35 Z M 41,35 C 41.71,35 42.39,34.85 43,34.58 V 32.24 A 3,3 0 1,1 44,30 V 35 H 46 V 30 A 5,5 0 1,0 41,35 Z" fill="rgb(7, 74, 141)"/>
</svg>
