<?xml version="1.0" encoding="UTF-8"?>
<!-- generated by Finnhub -->
<svg viewBox="0 0 55.5 55.5" xmlns="http://www.w3.org/2000/svg">
<path d="M 0,0 H 55.5 V 55.5 H 0 Z" fill="url(#a)"/>
<path d="M 27.93,17.384999999999998 C 27.84,15.03 25.41,13.9 24.21,13.62 C 24.31,13.97 24.25,14.1 24.21,14.12 C 24.07,13.78 23.76,13.14 23.72,13.36 A 0.81,0.81 0 0,1 23.48,13.79 C 23.48,13.52 23.41,12.97 23.24,13 C 23.07,13.04 22.94,13.63 22.9,13.92 C 22.07,15.08 16.58,18.19 13.94,19.6 C 13.04,19.49 11.17,20.02 11.01,23.01 C 10.85,26.01 13.07,26.85 14.2,26.9 C 17.63,27.8 21.46,29.88 22.94,30.8 C 23.16,31.22 23.95,32.04 25.44,32 C 27.29,31.95 27.6,30.6 27.74,29.35 C 27.84,28.35 27.34,27.3 27.08,26.9 V 26.2 C 26.94,26.22 26.67,26.25 26.76,26.13 C 26.86,25.99 26.89,25.42 26.65,25.63 L 26.55,25.71 C 26.4,25.84 26.38,25.86 26.31,25.86 C 26.42,25.51 26.31,25.38 26.23,25.36 C 25.12,25.69 20.66,23.93 18.57,23.01 L 20.27,22.21 C 20.03,22.24 19.77,22.02 20.92,21.44 C 22.08,20.84 22.08,21.11 21.97,21.39 L 25.4,19.59 C 25.82,19.49 25.84,19.33 25.8,19.27 C 26,18.97 26.64,19.15 26.93,19.27 C 27.68,19.07 27.91,17.94 27.93,17.4 Z M 20.6,16.45 C 20.64,16.51 20.62,16.59 20.55,16.63 L 16.51,19 A 0.13,0.13 0 0,1 16.33,18.95 A 0.13,0.13 0 0,1 16.38,18.77 L 20.42,16.41 A 0.13,0.13 0 0,1 20.6,16.46 Z M 16.95,26.07 A 0.13,0.13 0 0,0 16.77,26.13 C 16.74,26.2 16.77,26.28 16.83,26.31 L 17.37,26.58 C 17.44,26.62 17.52,26.59 17.55,26.52 A 0.13,0.13 0 0,0 17.49,26.35 L 16.95,26.07 Z M 16.3,26.34 A 0.13,0.13 0 0,0 16.13,26.41 C 16.1,26.48 16.13,26.56 16.2,26.59 L 17.5,27.13 C 17.57,27.16 17.65,27.13 17.68,27.06 A 0.13,0.13 0 0,0 17.6,26.88 L 16.3,26.34 Z M 15.7,26.62 A 0.13,0.13 0 0,0 15.52,26.71 C 15.5,26.77 15.53,26.85 15.6,26.88 C 16.44,27.18 17.79,27.7 19.13,28.3 C 20.47,28.9 21.79,29.55 22.57,30.12 C 22.63,30.17 22.71,30.15 22.75,30.09 A 0.13,0.13 0 0,0 22.72,29.91 A 21.1,21.1 0 0,0 19.23,28.05 A 58.6,58.6 0 0,0 15.69,26.62 Z M 19.08,27.32 A 0.13,0.13 0 0,0 18.9,27.38 C 18.87,27.45 18.9,27.52 18.97,27.56 C 19.57,27.84 20.89,28.46 21.31,28.74 C 21.37,28.78 21.45,28.76 21.49,28.7 A 0.13,0.13 0 0,0 21.45,28.51 C 21.01,28.22 19.68,27.59 19.08,27.31 Z M 42.76,16.67 C 42.71,14.67 41.26,14.27 40.54,14.32 C 37.92,14.69 33.94,13.77 32.2,13.36 C 31.81,13.26 31.53,13.2 31.4,13.19 C 30.86,13.11 30.94,13.41 31.04,13.57 C 31.28,13.71 31.64,14.09 31.24,14.57 C 30.82,15.07 30.73,15.58 30.73,15.78 C 30.83,17.6 32.01,17.66 32.84,17.7 C 33.36,17.72 34.11,17.65 34.72,17.6 C 35.08,17.56 35.39,17.53 35.56,17.53 C 36.02,17.53 35.56,18.3 35.31,18.62 C 35.11,18.87 35.27,19.04 35.37,19.1 C 35.57,18.76 36.02,18.05 36.22,17.9 C 36.42,17.74 36.48,17.83 36.48,17.9 A 8.32,8.32 0 0,0 35.56,19.2 C 35.47,19.46 35.56,19.52 35.61,19.52 C 35.93,19.09 36.61,18.19 36.84,18.03 C 37.08,17.87 37.12,18 37.11,18.09 L 37.06,18.16 C 36.54,18.78 35.49,20.04 35.61,20.13 C 35.74,20.22 37.04,18.75 37.23,18.5 C 37.38,18.3 37.48,18.36 37.53,18.42 C 37.33,18.61 36.37,19.66 36.48,19.79 C 36.6,19.91 37.38,19.2 37.6,18.88 C 37.78,18.62 37.9,18.68 37.94,18.75 C 37.73,18.89 37.22,19.47 37.32,19.52 C 37.4,19.55 37.91,19.32 38.15,19.2 C 38.08,19.25 37.91,19.4 37.71,19.6 C 37.51,19.79 37.66,19.8 37.75,19.79 C 37.97,19.64 38.38,19.38 38.32,19.52 A 0.37,0.37 0 0,0 38.32,19.83 C 38.58,19.83 38.94,19.3 39.08,19.03 C 39,19.2 39.11,19.43 39.18,19.52 L 40.32,18.82 C 39.99,19.1 39.47,19.61 40.07,19.35 C 40.59,19.11 40.7,19.19 40.81,19.27 C 40.86,19.3 40.91,19.33 40.98,19.35 C 41.25,19.39 42.81,19.19 42.76,16.67 Z M 39.33,20.02 C 36.88,19.9 34.49,21.61 33.6,22.48 C 33.77,22 34.24,20.91 34.82,20.44 C 35.55,19.84 34.94,18.81 33.46,18.22 A 5,5 0 0,0 30.83,17.86 C 30.4,17.86 30.05,18.07 30.08,18.22 C 29.6,17.78 29.59,18.11 29.65,18.32 C 29.48,18.02 29.16,17.5 29.21,17.86 C 29.27,18.21 29.32,18.97 29.35,19.31 C 29.03,20.4 28.34,22.81 28.13,23.71 C 27.91,24.61 27.53,25.3 27.36,25.52 C 26.89,26.59 28.1,28.09 28.76,28.72 C 29.39,29.7 31.16,29.25 31.16,28.83 C 31.18,28.5 31.76,27.44 32.06,26.96 L 33.39,25.7 C 33.49,25.26 34.34,24.81 34.75,24.65 H 35.06 C 35.76,24.55 36.78,24.45 37.19,24.41 C 39.55,24.39 38.79,26.06 38.73,26.11 C 39.36,26.43 38.19,26.99 37.53,27.23 V 26.96 A 5.89,5.89 0 0,1 34.91,27.48 C 34.01,27.24 32.18,26.82 32.06,27.08 C 31.95,27.34 33.36,27.6 34.26,27.77 L 34.91,27.9 C 35.21,27.99 34.93,28.06 34.75,28.08 C 33.8,27.83 31.91,27.37 31.91,27.58 C 31.91,27.75 32.94,28.01 33.71,28.2 C 34.01,28.28 34.29,28.35 34.43,28.4 C 34.83,28.52 34.64,28.6 34.5,28.64 C 33.77,28.37 32.3,27.91 32.21,28.19 C 32.15,28.39 32.88,28.59 33.53,28.75 C 33.98,28.87 34.39,28.98 34.5,29.08 C 34.73,29.28 34.54,29.26 34.46,29.25 A 2.25,2.25 0 0,1 34.26,29.19 C 33.82,29.04 32.67,28.64 32.56,28.83 C 32.43,29.08 34.66,29.7 35.06,29.81 C 35.39,29.91 35.33,30.01 35.26,30.05 C 34.52,29.76 33.03,29.25 32.95,29.47 C 32.85,29.71 34.69,30.29 35.42,30.52 L 35.68,30.6 C 35.94,30.69 35.94,30.8 35.91,30.85 C 35.16,30.62 33.61,30.15 33.39,30.13 C 33.16,30.11 33.29,30.28 33.39,30.37 C 34.47,30.71 36.53,31.41 36.17,31.4 C 35.81,31.4 34.53,31.08 33.94,30.92 C 33.77,31.17 34.21,31.72 37.26,31.86 C 41.06,32.05 45.1,29.28 45,25.58 C 44.9,21.88 42.4,20.18 39.33,20.02 Z M 29.48,20.76 C 29.55,20.78 29.6,20.86 29.58,20.92 L 28.62,24.45 A 0.13,0.13 0 1,1 28.37,24.38 L 29.32,20.85 C 29.34,20.78 29.42,20.74 29.48,20.75 Z M 28,34 H 32.34 A 3,3 0 0,1 34.08,39.45 L 35.43,42 H 32.73 L 31.67,40 H 30.5 V 42 H 28 V 34 Z M 30.5,38 H 32 A 1,1 0 1,0 32,36 H 30.5 V 38 Z M 14.5,34 H 12 V 42 H 14.5 V 38.43 L 16.79,42 H 19.79 L 17.22,38 L 19.78,34 H 16.78 L 14.5,37.57 V 34 Z M 22.5,34 H 20 V 38.25 A 3.75,3.75 0 1,0 27.5,38.25 V 34 H 25 V 38.23 A 1.25,1.25 0 0,1 22.5,38.23 V 34 Z M 38.79,34 L 35.66,42 H 38.53 L 38.94,40.71 H 41.71 L 42.11,42 H 45 L 41.83,34 H 38.79 Z M 40.31,36.64 L 39.64,38.63 H 41 L 40.3,36.64 Z" fill="rgb(254, 254, 253)" fill-rule="evenodd"/>
<defs>
<linearGradient id="a" x1="10.42" x2="68.15" y1="9.71" y2="76.02" gradientUnits="userSpaceOnUse">
<stop stop-color="rgb(25, 29, 31)" offset="0"/>
<stop stop-color="rgb(5, 5, 8)" offset="1"/>
</linearGradient>
</defs>
</svg>
