<?xml version="1.0" encoding="UTF-8"?>
<!-- generated by Finnhub -->
<svg viewBox="0 0 55.5 55.5" xmlns="http://www.w3.org/2000/svg">
<path d="M 0,0 H 55.5 V 55.5 H 0 Z" fill="rgb(239, 242, 248)"/>
<path d="M 11.99,39.635 C 15.89,37.85 28.2,32.47 44,39.57 C 44.06,39.6 43.72,40.96 43.65,40.94 C 40.03,40.52 29.75,36.84 12.4,41 A 4.81,4.81 0 0,1 12,39.65 Z M 17,16 H 23 V 33 H 17 V 16 Z M 34.68,21 A 7,7 0 0,0 38.45,19.68 L 43,16 H 35.99 A 7,7 0 0,0 32.21,17.32 L 27.67,21 H 34.67 Z M 42.2,33 L 27.66,21 L 23.51,24.34 A 0.4,0.4 0 0,0 23.35,24.66 C 23.35,24.78 23.41,24.89 23.51,24.97 L 33.34,33 H 42.2 Z" fill="rgb(1, 86, 116)"/>
</svg>
