<?xml version="1.0" encoding="UTF-8"?>
<!-- generated by Finnhub -->
<svg viewBox="0 0 55.5 55.5" xmlns="http://www.w3.org/2000/svg">
<path d="M 0,0 H 55.5 V 55.5 H 0 Z" fill="rgb(63, 57, 94)"/>
<path d="M 4.99,22.985 H 6 V 31.05 L 5,32 V 23 Z M 51,34 V 33 H 5.97 L 5,34 H 51 Z" fill="rgb(254, 254, 253)"/>
<path d="M 49.99,22.985 H 51 V 34 H 50 V 23 Z" fill="rgb(254, 254, 253)"/>
<path d="M 4.99,23.985 V 23 H 51 V 24 H 5 Z M 10,25 H 8.84 L 5,28.84 L 6,29 L 6.28,28.72 L 8.65,31 H 10 L 7,28 L 10,25 Z" fill="rgb(254, 254, 253)"/>
<path d="M 12.99,30.985 A 3,3 0 1,0 13,25 A 3,3 0 0,0 13,31 Z M 13,30.02 A 2,2 0 0,0 14.98,28 A 2,2 0 0,0 13,25.98 A 2,2 0 0,0 11.02,28 A 2,2 0 0,0 13,30.02 Z M 33,31 A 3,3 0 1,0 33,25 A 3,3 0 0,0 33,31 Z M 33,30 A 2,2 0 1,0 33,26 A 2,2 0 0,0 33,30 Z M 40,31 A 3,3 0 1,0 40,25 A 3,3 0 0,0 40,31 Z M 40,30 A 2,2 0 1,0 40,26 A 2,2 0 0,0 40,30 Z" fill="rgb(254, 254, 253)" fill-rule="evenodd"/>
<path d="M 16.99,24.985 H 18 L 22,29.29 V 25 H 23 V 31 H 22 L 18,26.77 V 31 H 17 V 25 Z M 26,25 H 24 V 26 H 26 V 31 H 27 V 26 H 29 V 25 H 26 Z M 45,29 V 31 H 44 V 25 H 46.32 C 47.25,25 48,25.92 48,27.06 C 48,27.87 47.62,28.51 47.07,28.81 L 49,31 H 47.64 L 45.88,29 H 45 Z M 45,28 H 46.16 C 46.62,28 47,27.55 47,27 S 46.62,26 46.16,26 H 45 V 28 Z" fill="rgb(254, 254, 253)"/>
</svg>
