<?xml version="1.0" encoding="UTF-8"?>
<!-- generated by Finnhub -->
<svg viewBox="0 0 55.5 55.5" xmlns="http://www.w3.org/2000/svg">
<path d="M 0,0 H 55.5 V 55.5 H 0 Z" fill="rgb(239, 242, 248)"/>
<path d="M 6.49,32.985 H 5 V 23 H 6.5 V 28 L 9.18,25 H 11 L 7.31,29.18 L 11,33 H 9.18 L 6.5,30.3 V 33 Z M 11,29 C 11,26.83 12.82,25 15,25 C 17.16,25 19,26.84 19,29 C 19,31.18 17.17,33 15,33 C 12.8,33 11,31.2 11,29 Z M 15,26.48 A 2.56,2.56 0 0,0 12.48,29 A 2.54,2.54 0 0,0 15,31.52 A 2.56,2.56 0 0,0 17.52,29 A 2.59,2.59 0 0,0 15,26.48 Z M 27,28.03 V 33 H 25.5 V 28.51 C 25.5,27.51 24.53,26.53 23.5,26.53 C 22.44,26.53 21.5,27.46 21.5,28.5 V 33 H 20 V 25 H 21.51 V 26.3 C 22.21,25.57 23.07,25 24.15,25 C 25.75,25 27,26.47 27,28.03 Z" fill="rgb(102, 102, 102)"/>
<path d="M 39.49,26.485 V 33 H 38 V 26.5 H 37 V 25 H 38 V 23 H 39.5 V 25 H 41 V 26.5 H 39.5 Z" fill="rgb(40, 170, 224)"/>
<path d="M 34.49,32.985 V 31.7 A 3.89,3.89 0 0,1 31.57,33 C 29.3,33 28,30.74 28,29 C 28,27.28 29.31,25 31.58,25 C 32.77,25 33.85,25.49 34.5,26.35 V 25 H 36 V 33 H 34.5 Z M 29.5,29 A 2.56,2.56 0 0,0 34.6,29 C 34.6,27.8 33.57,26.5 32.07,26.5 A 2.59,2.59 0 0,0 29.5,29 Z" fill="rgb(102, 102, 102)"/>
<path d="M 51.49,32.985 H 50 V 23 H 51.5 V 33 Z M 43.07,30.54 L 48.75,27.55 A 3.92,3.92 0 0,0 45,25 A 4.1,4.1 0 0,0 41.02,29.36 A 4.05,4.05 0 0,0 45,33 C 47.1,33 48.9,31.11 49,29 H 47.5 C 47.45,30.3 46.31,31.63 45,31.57 A 2.75,2.75 0 0,1 43.07,30.54 Z M 46.72,27.14 L 42.54,29.34 A 2.52,2.52 0 0,1 45,26.44 C 45.65,26.43 46.26,26.67 46.72,27.14 Z" fill="rgb(40, 170, 224)"/>
</svg>
