<?xml version="1.0" encoding="UTF-8"?>
<!-- generated by Finnhub -->
<svg viewBox="0 0 55.5 55.5" xmlns="http://www.w3.org/2000/svg">
<path d="M 0,0 H 55.5 V 55.5 H 0 Z" fill="rgb(245, 87, 73)"/>
<path d="M 39.99,28.485 A 3.55,3.55 0 0,1 43.5,25 C 45.46,25 47,26.65 47,28.5 A 3.56,3.56 0 0,1 43.5,32 A 3.54,3.54 0 0,1 40,28.5 Z M 43.7,25.25 A 1.43,1.43 0 0,0 43.44,25.23 C 42.05,25.21 41.48,27.19 41.48,28.48 C 41.48,29.76 41.94,31.5 43.28,31.76 C 43.4,31.78 43.5,31.79 43.6,31.78 C 44.96,31.74 45.6,29.65 45.6,28.44 C 45.6,27.24 44.96,25.5 43.7,25.25 Z M 40,25 H 37.82 V 25.2 C 38.24,25.2 38.52,25.44 38.52,25.97 C 38.52,26.27 38.4,26.77 38.15,27.49 C 37.8,28.44 37.45,29.54 37.05,30.79 C 36.88,30.18 36.55,29.22 36.14,28.13 L 35.78,27.12 C 35.58,26.56 35.48,26.12 35.48,25.83 C 35.48,25.43 35.66,25.22 36.02,25.18 V 25 H 33 V 25.18 C 33.41,25.22 33.74,25.62 34.18,26.82 L 36.1,32.02 C 36.35,32.71 36.33,33.32 36.02,33.88 C 35.79,34.38 35.49,34.62 35.12,34.62 C 34.65,34.62 34.26,34.42 34.26,34 C 34.26,33.83 34.56,33.5 34.56,33.19 C 34.56,32.76 34.24,32.55 33.86,32.55 C 33.35,32.55 33,32.92 33,33.48 C 33.01,34.3 33.84,34.99 34.74,34.99 C 35.71,35.08 36.25,34.14 36.5,33.31 C 36.75,32.71 36.92,32.06 37.11,31.43 A 81.27,81.27 0 0,1 38.75,26.65 C 39.05,25.87 39.45,25.4 39.65,25.31 C 39.76,25.25 39.88,25.21 40,25.18 V 25.01 Z M 23.3,30.8 V 27.83 C 23.28,26.09 22.44,25.01 20.64,25 C 19.64,25 18.34,25.72 18.34,26.85 C 18.34,27.33 18.6,27.69 19.02,27.69 C 19.48,27.69 19.8,27.42 19.8,27.05 C 19.8,26.77 19.62,26.38 19.62,26.12 C 19.62,25.64 19.97,25.22 20.58,25.22 C 21.36,25.22 22,25.82 22,27.16 V 27.96 C 21.86,27.99 21.63,28.02 21.5,28.06 C 20.85,28.21 20.2,28.36 19.58,28.61 C 18.84,28.91 18,29.47 18,30.39 C 18,31.49 18.75,32 19.8,32 C 20.63,32 21.6,31.55 22,30.7 C 22.02,31.85 22.97,32.22 24,31.84 V 31.67 C 23.36,31.77 23.3,30.99 23.3,30.81 Z M 20.52,31.32 C 19.88,31.32 19.47,30.9 19.47,30.12 C 19.47,29.74 19.67,29.39 19.83,29.19 A 3.3,3.3 0 0,1 21.18,28.46 C 21.43,28.36 21.77,28.28 22,28.16 V 29.89 C 22,30.66 21.27,31.32 20.52,31.32 Z M 16,30.7 C 16,31.42 16.31,31.76 16.68,31.83 L 16.98,31.87 V 32 H 12.23 C 11.73,32 11.42,31.76 11.08,31.17 L 9.66,28.72 L 9,29.4 V 30.7 C 9,31.4 9.23,31.76 9.68,31.83 V 32 H 7 V 31.83 C 7.36,31.78 7.7,31.48 7.7,30.7 V 23.67 C 7.7,23.02 7.35,22.66 7,22.66 V 22.47 L 9,22 V 29.13 L 10.58,26.86 C 11.28,25.99 11.32,25.44 10.71,25.19 V 25 H 13 V 25.2 C 12.29,25.44 11.64,26.07 10.83,27.01 L 9.73,28.65 A 1.68,1.68 0 0,1 10.83,28.71 C 11.18,28.86 11.48,29.11 11.68,29.45 L 12.64,31.05 C 12.88,31.47 13.28,31.85 13.79,31.85 H 13.86 C 14.43,31.8 14.66,31.2 14.66,30.7 V 23.64 C 14.66,22.94 14.36,22.62 14,22.66 V 22.47 L 16,22 V 30.7 Z M 31.66,24.34 A 0.67,0.67 0 0,1 31,23.68 C 31,23.31 31.3,23.01 31.66,23 A 0.7,0.7 0 0,1 32.34,23.68 C 32.34,24.04 32.03,24.34 31.66,24.34 Z M 46,25 H 51 L 49.95,23.5 L 51,22 H 46 V 25 Z" fill="rgb(254, 254, 253)"/>
<path d="M 32.38,30.595 V 25 H 27.73 V 25.17 C 28.34,25.27 28.63,25.77 28.35,26.57 C 26.92,30.75 27.01,30.57 26.92,30.9 C 26.82,30.58 26.62,29.79 26.28,28.8 L 25.63,26.85 C 25.28,25.69 25.4,25.25 25.97,25.18 V 25 H 23 V 25.18 C 23.44,25.28 23.83,25.83 24.16,26.81 L 24.62,28.08 C 25.12,29.46 25.71,31.35 25.9,32 H 26.89 C 27.21,31 28.49,27.03 28.65,26.62 C 28.84,26.16 29.05,25.82 29.28,25.57 C 29.5,25.31 29.95,25.17 30.28,25.17 C 30.3,25.17 31,25.17 31,25.92 V 30.62 C 31,31.4 30.65,31.76 30.28,31.82 V 32 H 33 V 31.82 C 32.62,31.76 32.39,31.4 32.39,30.62 Z" fill="rgb(254, 254, 253)"/>
</svg>
