<?xml version="1.0" encoding="UTF-8"?>
<!-- generated by Finnhub -->
<svg viewBox="0 0 55.5 55.5" xmlns="http://www.w3.org/2000/svg">
<path d="M 0,0 H 55.5 V 55.5 H 0 Z" fill="rgb(1, 65, 110)"/>
<path d="M 10.99,26.985 C 10.963,26.836 10.88,26.741 10.75,26.728 H 10 V 24.297 L 10.227,24.106 L 12,27 H 13.546 C 13.509,26.836 13.417,26.652 13.288,26.64 H 13.149 L 11.023,23.29 L 12.538,21.709 C 12.79,21.453 12.982,21.312 13.111,21.285 A 0.541,0.541 0 0,1 13.249,21.265 C 13.404,21.213 13.487,21.125 13.499,21 H 11.799 V 21.266 H 12.538 L 10,23.844 L 10.003,21.285 L 11,21.265 V 21 H 8 V 21.266 L 9,21.286 V 26.734 L 8,26.728 V 27 H 11 Z M 18.5,23 V 21 H 14 V 21.266 H 15 V 26.734 H 14 V 27 H 18.501 L 18.499,25 H 18.298 L 18.113,25.76 C 17.953,26.272 17.713,26.58 17.393,26.685 A 1.14,1.14 0 0,1 17.05,26.735 H 16 V 24.012 H 17.997 V 23.716 H 16 V 21.266 H 17.048 C 17.523,21.266 17.858,21.528 18.056,22.053 C 18.08,22.113 18.102,22.174 18.12,22.24 L 18.296,23 H 18.499 Z M 23.157,21.266 H 23.985 V 25.261 L 20.64,21 H 19.157 V 21.266 H 19.909 V 26.734 H 19.157 V 27 H 21.157 C 21.12,26.836 21.057,26.747 20.927,26.734 H 20.288 V 22.397 L 23.891,27 H 24.364 V 21.266 H 25.157 V 21 H 23.157 V 21.266 Z M 29.845,21.266 H 30.603 V 25.261 L 27.257,21 H 25.787 V 21.266 H 26.527 V 26.734 H 25.787 V 27 H 27.782 C 27.745,26.836 27.662,26.747 27.532,26.734 H 26.906 V 22.397 L 30.505,27 H 31 V 21.266 H 31.721 V 21 H 29.845 V 21.266 Z M 36.823,23 L 36.786,21 H 32 V 21.266 H 33 V 26.734 H 32 V 27 H 36.786 L 36.823,25 H 36.583 L 36.398,25.76 C 36.238,26.272 35.998,26.58 35.677,26.685 A 1.14,1.14 0 0,1 35.335,26.735 H 34 V 24.012 H 36 V 23.716 H 34 V 21.266 H 35.335 C 35.809,21.266 36.145,21.528 36.342,22.053 C 36.367,22.113 36.389,22.174 36.407,22.24 L 36.583,23 H 36.823 Z M 37,21 V 21.266 H 38 V 26.734 H 37 V 27 H 39.95 C 40.795,27 41.49,26.724 42.04,26.173 C 42.581,25.629 42.853,24.828 42.853,23.963 C 42.853,22.86 42.467,22.043 41.697,21.512 C 41.198,21.171 40.613,21 39.941,21 H 37 Z M 39.95,21.266 C 40.702,21.266 41.145,21.671 41.373,22.445 C 41.483,22.839 41.518,23.319 41.518,23.923 C 41.518,25.425 41.205,26.39 40.485,26.639 A 1.51,1.51 0 0,1 39.951,26.734 H 39 V 21.266 H 39.95 Z M 47,27 C 46.963,26.836 46.872,26.747 46.743,26.734 L 46,26.733 V 24.376 L 47.28,21.541 A 0.565,0.565 0 0,1 47.75,21.266 C 47.904,21.226 47.988,21.138 48,21 H 46.364 V 21.266 H 47.104 L 45.81,24.04 L 44.414,21.265 H 45 V 21 H 42.695 V 21.266 H 43.157 L 45,24.454 V 26.733 H 44 V 26.999 L 47,27 Z M 14.162,36 L 16.084,30.262 H 16.681 V 29.997 H 15.461 V 30.262 H 15.723 L 14.273,34.582 L 12.673,30.262 H 13.086 V 29.997 H 11 V 30.262 H 11.537 L 13.339,35.173 C 13.487,35.573 13.604,35.806 13.69,35.873 C 13.758,35.925 13.86,36 13.995,36 H 14.162 Z" fill="rgb(254, 254, 253)"/>
<path d="M 16.322,35.985 L 18.255,30.262 H 18.717 V 29.997 H 16.987 V 30.262 H 17.894 L 16.444,34.582 L 14.844,30.262 H 15.226 V 29.997 H 13.339 V 30.262 H 13.708 L 15.51,35.173 C 15.658,35.573 15.775,35.806 15.861,35.873 C 15.929,35.925 16.031,36 16.166,36 H 16.332 Z M 22,36 C 21.964,35.836 21.88,35.74 21.751,35.727 H 21 V 30.263 H 22 V 29.997 H 19 V 30.262 H 20 V 35.727 H 19 V 36 H 22 Z M 27,36 V 34 H 26.806 L 26.576,34.76 C 26.446,35.22 26.258,35.511 26.012,35.636 A 0.989,0.989 0 0,1 25.559,35.734 H 23.999 L 24,30.262 H 25 V 29.997 H 22.166 V 30.262 H 23 L 22.999,35.734 H 22.386 V 36 H 27 Z M 31.518,34.288 C 31.518,33.73 31.228,33.261 30.65,32.88 C 30.563,32.828 30.23,32.65 29.651,32.349 C 29.121,32.067 28.791,31.791 28.663,31.522 A 1.032,1.032 0 0,1 28.561,31.079 C 28.561,30.686 28.739,30.417 29.097,30.272 C 29.239,30.213 29.39,30.184 29.55,30.184 C 30.055,30.184 30.437,30.377 30.696,30.764 C 30.868,31.027 30.991,31.639 30.991,32 H 31.287 V 30 C 31.115,30 31.017,30.074 30.991,30.199 C 30.985,30.245 30.982,30.223 30.982,30.282 A 3.326,3.326 0 0,0 29.412,29.898 C 28.696,29.898 28.152,30.102 27.775,30.508 C 27.529,30.778 27.405,31.096 27.405,31.463 C 27.405,32.014 27.695,32.477 28.275,32.851 C 28.367,32.903 28.705,33.084 29.291,33.392 C 29.833,33.674 30.169,33.953 30.298,34.229 A 0.97,0.97 0 0,1 30.4,34.662 C 30.4,35.121 30.2,35.436 29.8,35.606 C 29.64,35.678 29.46,35.715 29.263,35.715 C 28.53,35.715 28.046,35.409 27.813,34.563 C 27.751,34.347 27.711,34.256 27.693,34 H 27.359 V 36 C 27.513,36 27.606,35.95 27.637,35.852 A 1.51,1.51 0 0,0 27.655,35.577 C 28.135,35.911 28.699,36 29.346,36 C 30.104,36 30.686,35.79 31.093,35.37 C 31.377,35.075 31.518,34.714 31.518,34.288 Z M 35.206,29.898 C 34.411,29.898 33.736,30.168 33.182,30.705 C 32.597,31.276 32.304,32.015 32.304,32.92 C 32.304,33.963 32.652,34.773 33.348,35.35 C 33.872,35.783 34.482,36 35.178,36 C 35.967,36 36.635,35.728 37.184,35.183 C 37.763,34.606 38.053,33.864 38.053,32.959 C 38.053,31.883 37.695,31.063 36.98,30.499 C 36.475,30.099 35.884,29.899 35.206,29.899 Z M 35.206,35.715 C 34.442,35.715 33.952,35.285 33.736,34.425 C 33.638,34.025 33.589,33.536 33.589,32.959 C 33.589,31.207 34.059,30.285 35.003,30.194 C 35.064,30.187 35.123,30.184 35.178,30.184 C 36.004,30.184 36.506,30.718 36.685,31.788 A 6.9,6.9 0 0,1 36.768,32.92 C 36.768,34.534 36.386,35.449 35.622,35.665 C 35.492,35.698 35.354,35.715 35.206,35.715 Z M 42.646,30.262 H 43.404 V 34.258 L 40,29.997 H 38.589 V 30.262 H 39.328 L 39.306,35.742 H 38.566 V 36 H 40.47 C 40.433,35.836 40.35,35.755 40.22,35.742 H 39.685 L 39.707,31.394 L 43.293,36 H 43.783 V 30.262 H 44.522 V 29.997 H 42.646 V 30.262 Z" fill="rgb(254, 254, 253)"/>
</svg>
