<?xml version="1.0" encoding="UTF-8"?>
<!-- generated by Finnhub -->
<svg viewBox="0 0 55.5 55.5" xmlns="http://www.w3.org/2000/svg">
<path d="M 0,0 H 55.5 V 55.5 H 0 Z" fill="rgb(239, 242, 248)"/>
<path d="M 17.13,22.985 C 17.16,23 17.17,23 17.17,23.02 L 18.56,27.89 L 18.58,27.9 H 18.59 L 19.97,23.04 C 19.98,23.01 20,23 20.02,23 H 22.02 C 22.06,23 22.07,23.02 22.08,23.04 L 23.47,27.91 L 23.48,27.93 C 23.49,27.93 23.5,27.93 23.5,27.91 L 24.89,23.05 C 24.89,23.02 24.92,23 24.95,23 H 27.37 C 27.4,23 27.41,23.01 27.4,23.04 L 24.75,31.54 C 24.75,31.56 24.72,31.57 24.69,31.57 C 23.86,31.41 23.05,31.32 22.26,31.32 C 22.24,31.32 22.22,31.3 22.22,31.28 L 21.03,27.12 H 21.01 L 19.74,31.57 C 19.74,31.59 19.72,31.61 19.69,31.62 L 17.48,32 C 17.45,32 17.43,32 17.42,31.97 L 14.64,23.04 C 14.64,23.01 14.64,23 14.67,23 H 17.14 Z M 6.54,23 C 6.57,23 6.58,23.01 6.58,23.04 V 26.96 L 6.59,26.98 H 6.61 L 9.38,23.04 A 0.09,0.09 0 0,1 9.46,23 H 12.47 C 12.48,23 12.49,23 12.5,23.02 V 23.05 L 9.3,27.29 V 27.35 L 12.26,31.48 V 31.51 H 12.23 A 12.97,12.97 0 0,0 9.02,31.25 L 6.62,27.71 H 6.59 L 6.58,27.72 V 31.6 C 6.58,31.61 6.58,31.62 6.56,31.62 C 5.72,31.79 4.89,31.92 4.04,32 C 4.01,32 4,31.99 4,31.96 V 23.04 C 4,23.01 4.02,23 4.05,23 H 6.54 Z M 51.89,23 C 51.91,23 51.92,23.01 51.92,23.04 V 25.14 S 51.92,25.16 51.9,25.16 H 47.63 C 47.59,25.16 47.58,25.17 47.58,25.21 V 26.45 C 47.58,26.46 47.58,26.47 47.6,26.47 H 51.49 C 51.51,26.47 51.52,26.49 51.52,26.51 V 28.55 C 51.52,28.57 51.52,28.58 51.5,28.58 H 47.63 C 47.59,28.58 47.58,28.59 47.58,28.63 V 30.05 C 47.58,30.06 47.58,30.07 47.6,30.07 H 51.97 C 51.99,30.07 52,30.08 52,30.11 V 31.96 C 52,31.99 51.98,32.01 51.95,32 L 51.62,31.93 A 37.63,37.63 0 0,0 49.04,31.5 C 48.11,31.4 47.27,31.39 46.5,31.48 C 46,31.53 45.52,31.61 45.03,31.69 C 45.01,31.69 45,31.69 45,31.67 V 23.02 C 45,23.01 45,23 45.02,23 H 51.89 Z M 37.83,23 C 37.85,23 37.86,23 37.87,23.03 L 39.69,28.47 L 39.71,28.48 L 39.73,28.47 L 41.58,23.04 C 41.58,23.01 41.61,23 41.64,23 H 44.21 C 44.24,23 44.25,23.01 44.24,23.04 L 40.92,31.97 C 40.91,31.99 40.9,32 40.88,32 C 40.06,31.94 39.22,31.82 38.36,31.65 A 0.06,0.06 0 0,1 38.31,31.61 L 35.17,23.04 C 35.17,23.02 35.17,23 35.2,23 H 37.83 Z M 32.64,23 C 32.67,23 32.69,23.01 32.69,23.04 L 35.78,31.24 C 35.78,31.26 35.78,31.26 35.76,31.26 C 35.14,31.22 34.46,31.24 33.72,31.33 A 39.27,39.27 0 0,0 31.04,31.77 C 30.24,31.91 29.53,31.98 28.87,32 A 10.71,10.71 0 0,1 26.73,31.81 L 30.07,23.04 A 0.06,0.06 0 0,1 30.13,23 H 32.64 Z M 31.36,25.8 H 31.34 L 29.96,29.9 C 29.96,29.92 29.96,29.93 29.99,29.93 H 32.71 C 32.73,29.93 32.74,29.93 32.73,29.91 L 31.38,25.81 C 31.38,25.8 31.38,25.79 31.36,25.79 Z" fill="rgb(30, 29, 60)"/>
</svg>
