<?xml version="1.0" encoding="UTF-8"?>
<!-- generated by Finnhub -->
<svg viewBox="0 0 55.5 55.5" xmlns="http://www.w3.org/2000/svg">
<path d="M 0,0 H 55.5 V 55.5 H 0 Z" fill="rgb(239, 242, 248)"/>
<path d="M 14.99,27.985 A 2,2 0 1,1 11,28 A 2,2 0 0,1 15,28 Z M 45,28 A 2,2 0 1,1 41,28 A 2,2 0 0,1 45,28 Z M 15.87,32.3 A 2,2 0 1,1 12.13,33.7 A 2,2 0 0,1 15.87,32.3 Z M 43.87,22.3 A 2,2 0 1,1 40.13,23.7 A 2,2 0 0,1 43.87,22.3 Z M 18.54,36.72 A 2,2 0 1,1 15.46,39.28 A 2,2 0 0,1 18.54,36.72 Z M 41.54,16.72 A 2,2 0 1,1 38.46,19.28 A 2,2 0 0,1 41.54,16.72 Z M 22,39.26 A 2,2 0 1,1 20,42.74 A 2,2 0 0,1 22,39.26 Z M 37,13.26 A 2,2 0 1,1 35,16.74 A 2,2 0 0,1 37,13.26 Z M 26.33,41.03 A 2,2 0 1,1 25.67,44.97 A 2,2 0 0,1 26.33,41.03 Z M 31.33,11.03 A 2,2 0 1,1 30.67,14.97 A 2,2 0 0,1 31.33,11.03 Z M 30.65,41.03 A 2,2 0 1,1 31.35,44.97 A 2,2 0 0,1 30.65,41.03 Z M 25.65,11.03 A 2,2 0 1,1 26.35,14.97 A 2,2 0 0,1 25.65,11.03 Z M 34,39.27 A 2,2 0 1,1 36,42.73 A 2,2 0 0,1 34,39.27 Z M 20,12.27 A 2,2 0 1,1 22,15.73 A 2,2 0 0,1 20,12.27 Z M 38.47,36.71 A 2,2 0 1,1 41.53,39.29 A 2,2 0 0,1 38.47,36.71 Z M 14.47,16.71 A 2,2 0 1,1 17.53,19.29 A 2,2 0 0,1 14.47,16.71 Z M 40.12,32.33 A 2,2 0 1,1 43.88,33.67 A 2,2 0 0,1 40.12,32.33 Z M 12.12,22.33 A 2,2 0 1,1 15.88,23.67 A 2,2 0 0,1 12.12,22.33 Z M 31,28 A 3,3 0 1,1 25,28 A 3,3 0 0,1 31,28 Z" fill="rgb(80, 189, 231)"/>
<path d="M 28.99,19.485 A 1.5,1.5 0 1,1 26,19.5 A 1.5,1.5 0 0,1 29,19.5 Z M 30,36.5 A 1.5,1.5 0 1,1 27,36.5 A 1.5,1.5 0 0,1 30,36.5 Z M 36.5,29 A 1.5,1.5 0 1,1 36.5,26 A 1.5,1.5 0 0,1 36.5,29 Z M 19.5,29 A 1.5,1.5 0 1,1 19.5,26 A 1.5,1.5 0 0,1 19.5,29 Z M 36.25,24.8 A 1.5,1.5 0 1,1 34.75,22.2 A 1.5,1.5 0 0,1 36.25,24.8 Z M 21.25,33.8 A 1.5,1.5 0 1,1 19.75,31.2 A 1.5,1.5 0 0,1 21.25,33.8 Z M 24.8,19.75 A 1.5,1.5 0 1,1 22.2,21.25 A 1.5,1.5 0 0,1 24.8,19.75 Z M 33.8,34.75 A 1.5,1.5 0 1,1 31.2,36.25 A 1.5,1.5 0 0,1 33.8,34.75 Z M 31.2,19.75 A 1.5,1.5 0 1,0 33.8,21.25 A 1.5,1.5 0 0,0 31.2,19.75 Z M 22.2,34.75 A 1.5,1.5 0 1,0 24.8,36.25 A 1.5,1.5 0 0,0 22.2,34.75 Z M 21.25,22.2 A 1.5,1.5 0 1,1 19.75,24.8 A 1.5,1.5 0 0,1 21.25,22.2 Z M 36.25,31.2 A 1.5,1.5 0 1,1 34.75,33.8 A 1.5,1.5 0 0,1 36.25,31.2 Z" fill="rgb(240, 82, 79)"/>
</svg>
