<?xml version="1.0" encoding="UTF-8"?>
<!-- generated by Finnhub -->
<svg viewBox="0 0 55.5 55.5" xmlns="http://www.w3.org/2000/svg">
<path d="M 0,0 H 55.5 V 55.5 H 0 Z" fill="rgb(239, 242, 248)"/>
<path d="M 27.99,15.985 H 28.04 A 34.92,34.92 0 0,1 33.82,16.52 C 35.9,16.9 37.84,17.48 39.66,18.26 C 40.72,18.71 41.73,19.25 42.68,19.86 C 43.54,20.42 44.33,21.04 45.04,21.73 C 45.4,22.07 45.74,22.44 46.06,22.85 C 46.59,23.52 47.02,24.22 47.35,24.95 A 7.74,7.74 0 0,1 47.95,28.83 C 47.86,29.6 47.65,30.33 47.35,31.04 A 9.51,9.51 0 0,1 46.05,33.16 C 45.73,33.56 45.4,33.93 45.05,34.27 C 44.33,34.97 43.54,35.59 42.68,36.14 C 41.73,36.75 40.72,37.29 39.66,37.74 A 26.98,26.98 0 0,1 33.82,39.48 A 31.66,31.66 0 0,1 28.04,40 H 27.96 A 34.92,34.92 0 0,1 22.18,39.48 A 26.98,26.98 0 0,1 16.34,37.74 C 15.28,37.29 14.27,36.75 13.32,36.14 A 15.32,15.32 0 0,1 10.96,34.27 C 10.6,33.93 10.26,33.56 9.95,33.15 A 9.52,9.52 0 0,1 8.65,31.05 A 7.74,7.74 0 0,1 8.05,27.17 C 8.14,26.4 8.35,25.67 8.65,24.96 C 8.98,24.22 9.41,23.51 9.95,22.84 C 10.27,22.44 10.6,22.07 10.95,21.73 C 11.67,21.03 12.46,20.41 13.32,19.86 C 14.27,19.25 15.28,18.71 16.34,18.26 A 26.98,26.98 0 0,1 22.18,16.52 A 31.71,31.71 0 0,1 27.96,16 H 28 Z"/>
<path d="M 47.45,27.985 C 47.46,28.75 47.34,29.5 47.09,30.24 A 8.42,8.42 0 0,1 45.98,32.38 C 45.49,33.08 44.89,33.74 44.18,34.37 C 43.48,34.99 42.66,35.57 41.76,36.1 C 40.86,36.63 39.87,37.1 38.81,37.53 A 26,26 0 0,1 35.45,38.58 A 30.2,30.2 0 0,1 28,39.46 A 32.6,32.6 0 0,1 20.55,38.58 A 26,26 0 0,1 17.19,37.53 C 16.13,37.11 15.14,36.63 14.24,36.1 C 13.34,35.57 12.53,35 11.82,34.37 C 11.11,33.74 10.51,33.07 10.02,32.38 A 8.42,8.42 0 0,1 8.92,30.24 A 6.94,6.94 0 0,1 8.92,25.76 C 9.16,25.03 9.53,24.31 10.02,23.62 C 10.51,22.92 11.11,22.26 11.82,21.63 C 12.52,21.01 13.34,20.43 14.24,19.9 C 15.14,19.37 16.13,18.9 17.19,18.47 A 30.2,30.2 0 0,1 28,16.54 A 32.6,32.6 0 0,1 35.45,17.42 C 36.63,17.7 37.75,18.06 38.81,18.47 C 39.87,18.89 40.86,19.37 41.76,19.9 C 42.66,20.43 43.47,21 44.18,21.63 C 44.89,22.26 45.49,22.93 45.98,23.62 C 46.47,24.32 46.84,25.02 47.08,25.76 C 47.34,26.5 47.46,27.25 47.46,28 Z" fill="rgb(253, 3, 4)"/>
<path d="M 34.690000000000005,25.884999999999998 C 34.84,25.96 35,26 35.16,25.99 C 35.56,25.98 35.92,25.84 36.23,25.56 C 36.36,25.44 36.49,25.29 36.61,25.13 A 2.48,2.48 0 0,0 37.11,23.73 C 37.11,23.59 37.09,23.45 37.07,23.3 C 37.02,22.98 36.91,22.71 36.73,22.5 C 36.42,22.12 36.06,21.96 35.65,22 L 35.38,22.04 A 0.82,0.82 0 0,0 35.13,22.11 C 35,22.16 34.87,22.24 34.73,22.32 A 5.8,5.8 0 0,0 34.27,22.8 C 34.23,22.87 34.17,22.95 34.13,23.05 C 34.03,23.25 33.96,23.41 33.91,23.55 A 2.08,2.08 0 0,0 34.31,25.62 C 34.42,25.74 34.55,25.83 34.69,25.89 Z M 34.63,25.65 C 34.7,25.71 34.78,25.76 34.9,25.8 L 35.06,25.85 A 0.99,0.99 0 0,0 35.56,25.79 C 35.72,25.73 35.86,25.63 35.99,25.47 C 36.12,25.29 36.24,25.11 36.33,24.9 C 36.44,24.64 36.53,24.38 36.6,24.12 A 2.3,2.3 0 0,0 36.47,22.65 C 36.26,22.28 35.97,22.11 35.61,22.14 C 35.47,22.14 35.33,22.19 35.19,22.27 C 35.06,22.34 34.94,22.43 34.83,22.55 C 34.71,22.68 34.61,22.85 34.53,23.03 C 34.43,23.27 34.34,23.51 34.28,23.76 C 34.16,24.22 34.17,24.67 34.29,25.11 A 1.54,1.54 0 0,0 34.63,25.65 Z M 28.48,22.18 L 28.51,22.16 A 1.16,1.16 0 0,1 29.2,22.23 C 29.33,22.3 29.44,22.41 29.52,22.56 A 1,1 0 0,1 29.66,23.05 A 1.1,1.1 0 0,1 29.13,24.02 C 28.95,24.15 28.7,24.19 28.41,24.16 C 28.39,24.16 28.38,24.16 28.38,24.18 L 28.37,24.22 C 28.37,24.24 28.37,24.25 28.39,24.25 C 28.53,24.29 28.66,24.31 28.77,24.32 L 29.07,24.29 A 1.48,1.48 0 0,0 29.85,23.81 A 0.94,0.94 0 0,0 30.01,23.47 L 30.02,23.41 C 30.05,23.29 30.07,23.21 30.07,23.15 C 30.07,23.05 30.07,22.95 30.05,22.85 A 1,1 0 0,0 29.68,22.26 L 29.46,22.12 C 29.26,22.02 29.06,21.99 28.86,22.01 A 5.09,5.09 0 0,1 27.57,22 C 27.56,22 27.55,22 27.54,22.02 L 27.52,22.12 S 27.52,22.14 27.54,22.14 H 27.71 C 27.78,22.14 27.88,22.14 27.99,22.16 C 28.03,22.17 28.06,22.19 28.07,22.22 A 0.3,0.3 0 0,1 28.07,22.32 V 22.34 L 27.97,22.89 L 27.96,23.01 A 1.05,1.05 0 0,0 27.94,23.15 A 39.52,39.52 0 0,1 27.79,24.05 A 31.42,31.42 0 0,1 27.5,25.67 C 27.48,25.74 27.42,25.78 27.34,25.81 C 27.22,25.84 27.09,25.86 26.95,25.87 C 26.94,25.87 26.93,25.87 26.93,25.89 V 25.98 C 26.93,25.99 26.93,26 26.95,26 C 27.15,25.97 27.32,25.96 27.48,25.96 A 58.43,58.43 0 0,0 28.1,25.98 L 28.31,26 C 28.33,26 28.33,26 28.33,25.98 V 25.86 A 0.73,0.73 0 0,0 28.18,25.82 C 28.09,25.82 28.03,25.8 27.98,25.78 C 27.91,25.76 27.88,25.71 27.89,25.63 L 27.91,25.48 A 10.65,10.65 0 0,0 28.05,24.68 A 75.38,75.38 0 0,0 28.48,22.18 Z M 33.37,22.18 C 33.42,22.2 33.46,22.22 33.47,22.25 C 33.5,22.29 33.52,22.34 33.53,22.39 C 33.54,22.49 33.55,22.59 33.54,22.71 L 33.55,22.73 H 33.61 C 33.62,22.73 33.63,22.73 33.63,22.71 A 9.61,9.61 0 0,0 33.75,22.07 A 1.12,1.12 0 0,0 33.41,22.01 L 32.81,22.02 C 32.61,22.03 32.4,22.08 32.18,22.16 C 31.68,22.36 31.27,22.62 30.93,22.96 C 30.76,23.14 30.61,23.34 30.49,23.58 L 30.34,23.9 C 30.21,24.25 30.19,24.61 30.29,24.98 C 30.35,25.2 30.46,25.39 30.6,25.54 C 30.86,25.8 31.16,25.94 31.5,25.98 A 4.1,4.1 0 0,0 32.95,25.84 A 220.6,220.6 0 0,0 33.16,25.14 L 33.09,25.12 H 33.08 C 32.98,25.31 32.9,25.42 32.85,25.49 A 0.88,0.88 0 0,1 32.41,25.81 L 32.14,25.87 C 31.84,25.89 31.57,25.84 31.36,25.72 A 1.4,1.4 0 0,1 30.83,25.24 A 0.5,0.5 0 0,1 30.77,25.11 A 1.91,1.91 0 0,1 30.81,23.96 C 30.88,23.78 30.94,23.64 31.01,23.53 A 5.64,5.64 0 0,1 31.52,22.86 C 31.76,22.62 32.02,22.43 32.32,22.3 C 32.44,22.25 32.56,22.21 32.7,22.19 C 32.77,22.17 32.86,22.17 32.97,22.17 A 6.2,6.2 0 0,0 33.37,22.19 Z M 22.62,25.83 C 22.67,25.83 22.72,25.83 22.76,25.81 A 1.44,1.44 0 0,0 22.97,25.64 A 35.21,35.21 0 0,1 24.64,23.87 A 16.53,16.53 0 0,0 25.32,23.16 A 64.69,64.69 0 0,0 26.08,22.32 A 193.15,193.15 0 0,0 26.36,22 H 26.5 V 22.02 L 26.49,22.27 L 26.47,22.53 A 5.91,5.91 0 0,0 26.46,22.89 A 27.05,27.05 0 0,0 26.4,23.79 A 285.62,285.62 0 0,1 26.3,25.49 V 25.77 L 26.34,25.79 A 10.03,10.03 0 0,1 26.77,25.89 V 25.98 H 26.75 A 3.1,3.1 0 0,0 26.01,25.96 L 25.7,25.98 L 25.38,26 H 25.31 L 25.3,25.98 V 25.91 L 25.31,25.9 L 25.43,25.88 C 25.56,25.87 25.68,25.84 25.82,25.81 C 25.84,25.81 25.85,25.79 25.86,25.78 A 11.4,11.4 0 0,0 25.96,24.48 H 25.81 C 25.49,24.48 25,24.49 24.32,24.52 C 24.26,24.52 24.22,24.54 24.18,24.59 A 0.98,0.98 0 0,1 24.08,24.69 L 23.96,24.81 L 23.68,25.1 L 23.42,25.4 L 23.35,25.47 A 2.27,2.27 0 0,1 23.18,25.67 A 0.12,0.12 0 0,0 23.15,25.77 L 23.16,25.79 L 23.27,25.83 L 23.65,25.88 C 23.66,25.88 23.67,25.89 23.67,25.91 L 23.65,25.97 C 23.65,25.99 23.64,25.99 23.63,25.99 L 23.3,25.97 H 22.96 C 22.73,25.97 22.56,25.99 22.43,26 H 22.34 L 22.26,25.99 A 5.93,5.93 0 0,0 19.09,25.99 C 19.07,25.98 19.07,25.97 19.07,25.96 V 25.88 A 6.03,6.03 0 0,0 19.46,25.82 C 19.62,25.8 19.71,25.71 19.74,25.54 L 19.89,24.51 A 541.68,541.68 0 0,0 20.16,22.39 C 20.16,22.32 20.12,22.27 20.06,22.25 A 1.13,1.13 0 0,0 19.66,22.17 C 19.65,22.17 19.64,22.17 19.65,22.16 L 19.66,22.07 L 19.68,22.06 H 19.93 A 9.37,9.37 0 0,0 21.13,22.06 C 21.14,22.06 21.15,22.06 21.15,22.08 V 22.16 C 21.15,22.18 21.14,22.18 21.13,22.18 L 20.92,22.2 A 0.48,0.48 0 0,0 20.73,22.26 A 0.3,0.3 0 0,0 20.61,22.45 L 20.56,22.7 L 20.53,22.95 A 118,118 0 0,1 20.23,24.93 A 8,8 0 0,0 20.14,25.66 C 20.14,25.72 20.15,25.76 20.19,25.8 A 0.2,0.2 0 0,0 20.32,25.84 H 21.27 C 21.53,25.84 21.79,25.81 22.03,25.72 C 22.13,25.68 22.23,25.62 22.32,25.56 C 22.42,25.49 22.49,25.41 22.55,25.32 A 10.93,10.93 0 0,0 22.75,25 H 22.82 L 22.83,25.01 C 22.83,25.06 22.83,25.11 22.81,25.16 L 22.62,25.83 Z M 25.49,23.18 A 15.45,15.45 0 0,1 26.11,22.58 A 57.32,57.32 0 0,0 25.99,24.29 C 25.99,24.3 25.99,24.31 25.97,24.31 A 12.16,12.16 0 0,1 24.41,24.35 V 24.33 A 46.76,46.76 0 0,1 24.74,23.97 L 25.03,23.67 L 25.49,23.17 Z M 25.39,30.45 V 30.44 A 0.36,0.36 0 0,0 25.41,30.31 A 0.9,0.9 0 0,0 25.34,29.91 A 0.34,0.34 0 0,0 25.26,29.79 C 25.16,29.69 25.03,29.62 24.89,29.56 H 24.88 A 0.96,0.96 0 0,0 24.78,29.51 H 24.68 C 24.65,29.51 24.63,29.51 24.63,29.54 L 24.64,29.62 A 17.07,17.07 0 0,0 25.04,30.38 L 25.13,30.48 V 30.49 A 15.02,15.02 0 0,1 23.72,30.68 A 0.04,0.04 0 0,0 23.69,30.7 V 30.74 C 23.74,30.81 23.79,30.86 23.87,30.87 C 23.96,30.89 24.05,30.9 24.15,30.9 C 24.16,30.9 24.17,30.9 24.17,30.92 L 24.19,31.02 A 13.52,13.52 0 0,1 24.53,32.42 A 3.15,3.15 0 0,0 24.7,33 A 12.73,12.73 0 0,0 24.16,33.07 A 4.77,4.77 0 0,1 23.14,33.15 C 23.08,33.15 23.04,33.15 23.03,33.18 C 22.99,33.21 22.99,33.25 23.03,33.28 C 23.05,33.31 23.09,33.34 23.15,33.37 L 23.41,33.48 C 23.49,33.5 23.56,33.51 23.63,33.48 C 24.05,33.36 24.46,33.28 24.87,33.23 A 19.87,19.87 0 0,1 27.55,33.13 C 27.65,33.13 27.69,33.09 27.69,33.05 C 27.69,33 27.65,32.95 27.58,32.89 A 0.67,0.67 0 0,0 27.41,32.79 A 3.3,3.3 0 0,0 27.11,32.69 L 26.99,32.71 A 11.45,11.45 0 0,1 25.65,32.89 L 25.78,32.62 C 25.91,32.29 26.02,31.95 26.12,31.6 A 3.99,3.99 0 0,1 26.31,30.96 A 0.15,0.15 0 0,0 26.27,30.86 A 0.71,0.71 0 0,0 26.07,30.7 A 4.3,4.3 0 0,0 26.74,30.5 C 26.76,30.49 26.77,30.46 26.75,30.42 A 0.15,0.15 0 0,0 26.69,30.35 A 1.03,1.03 0 0,0 26.49,30.25 A 0.34,0.34 0 0,0 26.29,30.25 C 25.99,30.33 25.69,30.4 25.39,30.45 Z M 24.88,32.8 C 24.88,32.86 24.87,32.91 24.85,32.97 L 25.45,32.92 H 25.47 L 25.69,31.89 A 6,6 0 0,0 25.78,30.85 A 0.69,0.69 0 0,1 25.76,30.75 V 30.73 A 25.47,25.47 0 0,1 24.29,30.91 A 2.95,2.95 0 0,1 24.88,32.81 Z M 31.66,29.55 A 84.5,84.5 0 0,1 31.19,29.6 A 0.55,0.55 0 0,0 31.2,29.37 A 0.3,0.3 0 0,0 31.04,29.14 A 1.68,1.68 0 0,0 30.77,29.04 C 30.63,28.99 30.55,28.99 30.53,29.02 C 30.51,29.04 30.51,29.07 30.53,29.09 A 4.86,4.86 0 0,0 30.87,29.64 L 30.11,29.74 L 29.84,29.79 L 29.28,29.84 C 29.24,29.84 29.21,29.86 29.2,29.9 V 29.92 L 29.26,29.99 L 29.5,30.14 L 29.59,30.17 C 29.61,30.17 29.65,30.17 29.69,30.15 C 29.86,30.08 30.05,30.03 30.23,29.99 A 8.13,8.13 0 0,1 32.36,29.83 L 32.43,29.84 H 32.59 C 32.65,29.82 32.67,29.79 32.66,29.74 A 0.22,0.22 0 0,0 32.58,29.62 A 0.9,0.9 0 0,0 32.28,29.47 A 45.57,45.57 0 0,0 31.66,29.55 Z M 31.53,31.02 L 31.57,31.06 A 0.2,0.2 0 0,1 31.64,31.13 V 31.16 L 31.61,31.18 H 31.33 A 64.56,64.56 0 0,1 30.49,31.27 C 30.49,31.3 30.47,31.32 30.45,31.34 C 30.43,31.36 30.4,31.36 30.38,31.34 A 0.39,0.39 0 0,1 30.31,31.22 A 17.1,17.1 0 0,0 30.2,30.69 C 30.17,30.58 30.12,30.49 30.04,30.45 L 30.03,30.43 C 30.03,30.39 30.04,30.36 30.08,30.36 L 30.23,30.37 A 0.2,0.2 0 0,0 30.32,30.39 L 30.47,30.37 A 37.08,37.08 0 0,1 31.53,30.23 C 31.67,30.31 31.76,30.38 31.82,30.44 C 31.86,30.49 31.86,30.53 31.84,30.56 L 31.73,30.66 A 4.98,4.98 0 0,0 31.53,31.01 Z M 30.5,30.58 C 30.7,30.52 30.9,30.48 31.11,30.47 C 31.27,30.45 31.35,30.47 31.34,30.55 A 4.57,4.57 0 0,1 31.26,30.95 L 30.87,31.01 A 4.86,4.86 0 0,1 30.5,31.03 L 30.44,30.6 C 30.44,30.59 30.44,30.58 30.46,30.58 H 30.5 Z M 29.49,31.96 A 132.32,132.32 0 0,0 29.57,33.53 A 1,1 0 0,1 29.5,33.73 A 0.1,0.1 0 0,1 29.43,33.79 C 29.41,33.8 29.39,33.79 29.37,33.78 A 1.17,1.17 0 0,1 29.23,33.52 A 0.21,0.21 0 0,1 29.22,33.42 L 29.24,33.13 C 29.24,32.83 29.22,32.53 29.18,32.24 A 1.17,1.17 0 0,0 29.03,31.84 A 0.28,0.28 0 0,1 29,31.78 V 31.71 C 29,31.68 29.02,31.66 29.05,31.65 A 0.2,0.2 0 0,1 29.14,31.65 L 29.34,31.72 C 29.37,31.73 29.4,31.74 29.43,31.73 L 29.76,31.7 L 31.7,31.52 L 31.87,31.5 C 32.07,31.48 32.28,31.45 32.49,31.4 C 32.52,31.39 32.56,31.4 32.6,31.43 A 4.38,4.38 0 0,1 32.97,31.69 C 32.99,31.72 33,31.75 33,31.79 L 32.96,31.89 A 0.78,0.78 0 0,0 32.9,32.05 L 32.85,32.35 A 429.18,429.18 0 0,1 32.76,33.33 V 33.37 A 0.88,0.88 0 0,1 32.36,33.95 A 0.3,0.3 0 0,1 32.24,34 C 32.18,34 32.14,34 32.1,33.97 A 0.38,0.38 0 0,1 32.02,33.86 C 31.92,33.66 31.79,33.49 31.66,33.33 C 31.64,33.31 31.64,33.3 31.65,33.27 V 33.26 C 31.68,33.25 31.72,33.26 31.78,33.3 L 31.84,33.32 C 31.98,33.37 32.08,33.39 32.14,33.4 C 32.2,33.4 32.24,33.38 32.29,33.33 L 32.37,33.18 A 4.39,4.39 0 0,0 32.46,31.78 L 32.4,31.74 A 23.17,23.17 0 0,0 29.49,31.96 Z M 30.54,33.04 L 30.52,33.11 C 30.51,33.14 30.49,33.16 30.47,33.16 C 30.43,33.16 30.39,33.13 30.35,33.05 A 0.56,0.56 0 0,1 30.32,32.92 L 30.25,32.54 A 0.83,0.83 0 0,0 30.21,32.41 A 0.28,0.28 0 0,0 30.11,32.28 C 30.1,32.28 30.09,32.28 30.09,32.26 L 30.1,32.22 C 30.11,32.2 30.13,32.19 30.15,32.19 L 30.28,32.2 L 30.38,32.22 L 30.48,32.2 A 29.94,29.94 0 0,1 31.48,32.06 C 31.59,32.11 31.68,32.18 31.76,32.26 A 0.2,0.2 0 0,1 31.8,32.32 C 31.81,32.35 31.81,32.37 31.8,32.39 L 31.67,32.52 A 7.62,7.62 0 0,1 31.49,32.86 C 31.54,32.89 31.57,32.92 31.59,32.96 V 33 H 31.58 A 26.95,26.95 0 0,0 30.54,33.05 Z M 30.91,32.32 L 31.09,32.3 H 31.19 C 31.24,32.3 31.27,32.31 31.29,32.33 V 32.4 A 3.95,3.95 0 0,1 31.22,32.8 L 30.56,32.84 C 30.55,32.84 30.54,32.84 30.54,32.82 L 30.51,32.42 L 30.53,32.4 L 30.91,32.32 Z" fill="rgb(239, 242, 248)" fill-rule="evenodd"/>
</svg>
