<?xml version="1.0" encoding="UTF-8"?>
<!-- generated by Finnhub -->
<svg viewBox="0 0 55.5 55.5" xmlns="http://www.w3.org/2000/svg">
<path d="M 0,0 H 55.5 V 55.5 H 0 Z" fill="url(#a)"/>
<path d="M 4.99,24.985 H 4 V 30 H 7.15 V 29.7 H 5 V 25 Z M 12.36,30 H 11.27 L 10.6,28.63 H 8.44 L 7.83,30 H 7.47 L 9.77,25 H 9.89 L 12.36,30 Z M 9.47,26.32 L 8.57,28.33 H 10.46 L 9.47,26.32 Z M 19.54,30 L 21.84,25 H 21.47 L 19.83,28.68 L 18.03,25 H 16.93 L 19.41,30 H 19.54 Z M 33.8,29.55 V 27.28 H 34.66 V 29.58 A 4.22,4.22 0 0,1 32.85,30 C 31.85,30 31.1,29.7 30.58,29.11 A 2.25,2.25 0 0,1 30,27.58 A 2.67,2.67 0 0,1 31.39,25.31 C 31.76,25.11 32.21,25 32.72,25 H 32.85 C 32.98,25 33.22,25.02 33.53,25.11 C 33.78,25.18 34.08,25.3 34.38,25.43 L 34.3,26.08 S 33.36,24.96 32.1,25.36 C 31.77,25.48 31.5,25.68 31.3,25.97 C 31.01,26.37 30.87,26.86 30.87,27.42 C 30.87,27.88 30.97,28.3 31.15,28.67 A 1.86,1.86 0 0,0 32.85,29.76 A 2.34,2.34 0 0,0 33.8,29.56 Z M 38.4,29.21 L 39,30 H 37.83 L 36.13,27.75 H 36 V 30 H 35 V 25 H 36.28 C 36.83,25 37.24,25.04 37.5,25.12 C 37.76,25.19 37.99,25.34 38.17,25.54 C 38.35,25.74 38.44,26 38.44,26.29 C 38.44,26.59 38.34,26.86 38.14,27.09 C 37.92,27.31 37.61,27.48 37.19,27.59 L 38.24,29 L 38.3,29.08 L 38.4,29.21 Z M 36.47,25.31 H 36 V 27.43 H 36.08 C 36.58,27.43 36.95,27.33 37.2,27.13 C 37.45,26.93 37.58,26.66 37.58,26.33 A 1,1 0 0,0 37.28,25.58 C 37.08,25.38 36.8,25.31 36.47,25.31 Z M 41.33,25 C 42,25 42.58,25.24 43.06,25.7 C 43.56,26.18 43.8,26.76 43.8,27.47 A 2.5,2.5 0 0,1 41.27,30 A 2.45,2.45 0 0,1 38.76,27.48 C 38.76,26.72 39.04,26.1 39.59,25.61 A 2.59,2.59 0 0,1 41.33,25 Z M 41.53,25.27 C 41.09,25.21 40.71,25.31 40.42,25.59 C 40.04,25.93 39.82,26.49 39.72,27.24 C 39.62,28.01 39.73,28.64 40.02,29.1 C 40.25,29.45 40.57,29.66 41,29.72 C 41.46,29.79 41.86,29.68 42.2,29.37 C 42.54,29.07 42.75,28.54 42.84,27.79 C 42.94,26.98 42.84,26.35 42.56,25.9 A 1.43,1.43 0 0,0 41.52,25.27 Z M 50,27.77 H 50.56 C 51.01,27.77 51.36,27.64 51.62,27.39 C 51.87,27.13 52,26.79 52,26.39 C 52,26.09 51.92,25.83 51.75,25.61 A 1.4,1.4 0 0,0 51.15,25.14 A 2.9,2.9 0 0,0 50.15,25 H 49 V 30 H 50 V 27.77 Z M 50,25.31 H 50.22 C 50.42,25.31 50.59,25.35 50.74,25.45 C 50.9,25.55 51.01,25.68 51.09,25.86 C 51.17,26.05 51.21,26.25 51.21,26.46 C 51.21,26.78 51.13,27.04 50.96,27.23 C 50.8,27.41 50.62,27.45 50.41,27.46 H 50 V 25.3 Z M 44,28.24 C 44,30.17 46.31,30 46.31,30 C 46.83,30 47.24,29.9 47.54,29.7 C 47.84,29.51 48.04,29.28 48.14,29.01 C 48.25,28.75 48.3,28.36 48.3,27.88 V 25 H 48 V 27.84 C 48,28.36 47.9,28.73 47.81,28.94 C 47.71,29.16 47.53,29.34 47.26,29.48 C 47,29.62 46.7,29.69 46.36,29.69 C 45.33,29.69 45,28.94 45,28.03 V 25 H 44 V 28.24 Z M 22,25 H 23 V 30 H 22 V 25 Z M 24,30 V 25.64 L 24.06,25.7 L 27.8,30 H 28 V 25 H 27.66 V 28.3 L 24.7,25 H 23.7 V 30 H 24 Z M 16.42,30 H 16.22 L 16.06,29.8 L 13,25.7 V 30 H 12.6 V 25 H 13.62 L 16,28.3 V 25 H 16.42 V 30 Z" fill="rgb(254, 254, 253)"/>
<defs>
<linearGradient id="a" x1="10.42" x2="68.15" y1="9.71" y2="76.02" gradientUnits="userSpaceOnUse">
<stop stop-color="rgb(25, 29, 31)" offset="0"/>
<stop stop-color="rgb(5, 5, 8)" offset="1"/>
</linearGradient>
</defs>
</svg>
