<?xml version="1.0" encoding="UTF-8"?>
<!-- generated by Finnhub -->
<svg viewBox="0 0 55.5 55.5" xmlns="http://www.w3.org/2000/svg">
<path d="M 0,0 H 55.5 V 55.5 H 0 Z" fill="rgb(239, 242, 248)"/>
<path d="M 25.09,13.254999999999999 A 3.92,3.92 0 0,1 31.45,14.05 L 41.93,33 H 31 A 5,5 0 0,0 31.87,25.85 L 25.1,13.27 Z M 24.47,14.19 L 13.51,34 A 4.05,4.05 0 0,0 15.95,39.87 L 23,28.87 A 5,5 0 0,1 29.98,24.41 L 24.48,14.19 Z M 23.2,30.4 L 17.04,40 H 39.04 A 4.02,4.02 0 0,0 42.49,34 H 28 A 5,5 0 0,1 23.2,30.4 Z" fill="rgb(172, 32, 96)"/>
</svg>
