<?xml version="1.0" encoding="UTF-8"?>
<!-- generated by Finnhub -->
<svg viewBox="0 0 55.5 55.5" xmlns="http://www.w3.org/2000/svg">
<path d="M 0,0 H 55.5 V 55.5 H 0 Z" fill="rgb(239, 242, 248)"/>
<path d="M 4.99,20.471999999999998 V 25.003 H 8 V 24 H 6 V 20.487 H 5 Z M 9.597,21.227 V 20.487 H 8.698 V 21.227 H 9.597 Z M 8.698,21.733 V 25.003 H 9.597 V 21.733 H 8.698 Z M 12.72,23.37 C 12.72,23.506 12.705,23.637 12.675,23.763 S 12.6,24.001 12.536,24.098 A 0.75,0.75 0 0,1 12.296,24.332 A 0.661,0.661 0 0,1 11.954,24.414 A 0.683,0.683 0 0,1 11.613,24.332 A 0.75,0.75 0 0,1 11.373,24.098 A 1.04,1.04 0 0,1 11.233,23.763 A 1.75,1.75 0 0,1 11.233,22.973 A 1.04,1.04 0 0,1 11.373,22.637 A 0.688,0.688 0 0,1 11.954,22.321 A 0.689,0.689 0 0,1 12.536,22.637 C 12.6,22.734 12.646,22.846 12.676,22.972 C 12.705,23.099 12.72,23.232 12.72,23.371 Z M 10.323,20.487 V 25.003 H 11.177 V 24.585 H 11.189 C 11.286,24.766 11.429,24.895 11.619,24.971 C 11.809,25.047 12.024,25.085 12.264,25.085 A 1.244,1.244 0 0,0 13.181,24.674 C 13.312,24.534 13.418,24.358 13.498,24.142 C 13.578,23.923 13.618,23.664 13.618,23.365 C 13.618,23.065 13.578,22.808 13.498,22.593 A 1.552,1.552 0 0,0 13.181,22.055 A 1.244,1.244 0 0,0 12.264,21.644 C 12.062,21.644 11.866,21.684 11.676,21.764 A 0.942,0.942 0 0,0 11.233,22.131 H 11.221 V 20.487 H 10.323 Z M 16.409,23 H 14.948 C 14.952,22.937 14.965,22.882 14.986,22.802 A 0.74,0.74 0 0,1 15.106,22.574 A 0.69,0.69 0 0,1 15.334,22.397 A 0.773,0.773 0 0,1 15.694,22.321 C 15.914,22.321 16.076,22.38 16.181,22.498 C 16.291,22.616 16.367,22.772 16.409,23 Z M 14.948,23.586 H 17.308 A 2.309,2.309 0 0,0 17.244,22.859 A 1.749,1.749 0 0,0 16.953,22.239 C 16.823,22.057 16.653,21.914 16.447,21.809 A 1.53,1.53 0 0,0 15.72,21.644 C 15.47,21.644 15.243,21.689 15.037,21.777 C 14.834,21.866 14.659,21.987 14.512,22.144 A 1.57,1.57 0 0,0 14.17,22.688 C 14.09,22.898 14.05,23.126 14.05,23.371 C 14.05,23.624 14.088,23.856 14.164,24.067 C 14.244,24.277 14.356,24.459 14.499,24.61 C 14.642,24.762 14.817,24.88 15.024,24.965 C 15.231,25.045 15.462,25.085 15.72,25.085 C 16.09,25.085 16.407,25 16.668,24.832 C 16.93,24.663 17.124,24.392 17.25,24 H 16.46 C 16.43,24.101 16.35,24.189 16.22,24.282 A 0.815,0.815 0 0,1 15.751,24.414 C 15.498,24.414 15.304,24.349 15.169,24.218 C 15.034,24.088 14.961,23.877 14.948,23.586 Z M 17.859,21.733 V 25.003 H 18.757 V 23.529 C 18.757,23.381 18.772,23.244 18.801,23.118 A 0.899,0.899 0 0,1 18.947,22.789 A 0.737,0.737 0 0,1 19.225,22.561 A 0.957,0.957 0 0,1 19.642,22.479 C 19.697,22.479 19.754,22.483 19.813,22.492 C 19.873,22.496 19.923,22.502 19.965,22.511 V 21.676 A 0.703,0.703 0 0,0 19.769,21.644 C 19.655,21.644 19.545,21.661 19.439,21.694 A 1.143,1.143 0 0,0 19.143,21.84 A 1.024,1.024 0 0,0 18.896,22.062 A 1.054,1.054 0 0,0 18.726,22.34 H 18.713 V 21.733 H 17.859 Z M 21.474,21.733 V 20.753 H 20.576 V 21.733 H 20.032 V 22.333 H 20.576 V 24.263 C 20.576,24.427 20.604,24.56 20.658,24.661 C 20.713,24.762 20.788,24.841 20.88,24.895 C 20.977,24.95 21.086,24.985 21.209,25.003 C 21.506,25.053 21.699,25.053 21.996,25.003 V 24.307 C 21.858,24.334 21.662,24.368 21.55,24.257 C 21.5,24.206 21.474,24.105 21.474,23.953 V 22.333 H 22.132 V 21.733 H 21.474 Z M 24.191,25.407 L 25.557,21.733 H 24.627 L 23.913,23.972 H 23.9 L 23.16,21.732 H 22.205 L 23.35,24.8 A 0.54,0.54 0 0,1 23.388,25.003 C 23.388,25.1 23.358,25.188 23.299,25.268 C 23.245,25.348 23.159,25.395 23.04,25.408 C 22.88,25.415 22.566,25.408 22.566,25.408 L 22.336,26.148 H 23.066 C 23.373,26.148 23.613,26.09 23.786,25.977 C 23.959,25.863 24.094,25.673 24.191,25.407 Z" fill="rgb(145, 145, 144)"/>
<path d="M 8.202,32.985 H 5.007 V 27 H 8.113 C 8.623,27 9.017,27.176 9.296,27.482 C 9.576,27.781 9.716,28.137 9.716,28.55 C 9.716,28.91 9.626,29.211 9.444,29.457 A 1.136,1.136 0 0,1 8.779,29.924 C 9.075,29.971 9.321,30.136 9.519,30.417 C 9.721,30.693 9.822,31.016 9.822,31.387 C 9.822,31.847 9.682,32.234 9.403,32.545 C 9.123,32.856 8.727,33 8.212,33 Z M 7.792,29.322 A 0.46,0.46 0 0,0 8.138,29.187 A 0.506,0.506 0 0,0 8.278,28.819 A 0.465,0.465 0 0,0 8.138,28.469 A 0.446,0.446 0 0,0 7.793,28.326 H 6.42 V 29.322 H 7.793 Z M 7.842,31.71 C 8.012,31.71 8.143,31.662 8.236,31.567 A 0.544,0.544 0 0,0 8.384,31.171 A 0.532,0.532 0 0,0 8.236,30.785 A 0.508,0.508 0 0,0 7.842,30.633 H 6.42 V 31.71 H 7.842 Z M 14.84,33 H 13.222 L 12.302,31 H 11.578 V 33 H 10.165 V 27 H 12.91 C 13.501,27 13.967,27.212 14.307,27.59 C 14.647,27.966 14.817,28.442 14.817,29.017 C 14.817,29.496 14.707,29.887 14.487,30.193 C 14.274,30.493 14.019,30.699 13.723,30.813 L 14.841,33 Z M 12.696,29.654 A 0.715,0.715 0 0,0 13.181,29.484 C 13.312,29.37 13.378,29.211 13.378,29.008 A 0.585,0.585 0 0,0 13.181,28.541 A 0.715,0.715 0 0,0 12.696,28.371 H 11.578 V 29.654 H 12.696 Z M 19.92,32.249 C 19.367,32.829 18.669,33.119 17.825,33.119 C 16.981,33.119 16.28,32.829 15.721,32.249 C 15.168,31.669 14.891,30.926 14.891,30.022 C 14.891,29.119 15.168,28.376 15.721,27.796 C 16.28,27.216 16.981,26.925 17.825,26.925 C 18.669,26.925 19.367,27.215 19.92,27.795 C 20.474,28.376 20.75,29.119 20.75,30.022 C 20.75,30.926 20.474,31.668 19.92,32.249 Z M 17.825,31.755 C 18.269,31.755 18.628,31.59 18.901,31.261 C 19.175,30.932 19.312,30.519 19.312,30.022 C 19.312,29.526 19.175,29.112 18.902,28.783 A 1.333,1.333 0 0,0 17.825,28.29 C 17.375,28.29 17.015,28.454 16.74,28.783 C 16.466,29.113 16.33,29.526 16.33,30.023 C 16.33,30.519 16.466,30.932 16.74,31.261 C 17.014,31.591 17.376,31.755 17.825,31.755 Z M 26.095,33 H 24.493 L 24.149,32 H 22.159 L 21.789,33 H 20.187 L 22.249,27 H 24.024 L 26.095,33 Z M 23.835,30.685 L 23.137,28.55 L 22.438,30.685 H 23.835 Z" fill="rgb(46, 78, 131)"/>
<path d="M 28.298,32.985 H 26 V 27 H 28.3 C 29.177,27 29.889,27.293 30.437,27.832 C 30.99,28.37 31.267,29.098 31.267,30.013 C 31.267,30.929 30.99,31.659 30.437,32.203 C 29.889,32.743 29.179,33 28.308,33 Z M 28.3,31.665 C 28.766,31.665 29.136,31.507 29.41,31.189 C 29.683,30.866 29.82,30.474 29.82,30.013 C 29.82,29.528 29.689,29.133 29.426,28.828 C 29.163,28.523 28.791,28.37 28.308,28.37 H 27.413 V 31.665 H 28.3 Z M 34.821,33 H 31.616 V 27 H 34.722 C 35.232,27 35.626,27.176 35.906,27.482 C 36.186,27.781 36.325,28.137 36.325,28.55 C 36.325,28.91 36.235,29.211 36.054,29.457 A 1.136,1.136 0 0,1 35.388,29.924 C 35.684,29.971 35.93,30.136 36.128,30.417 C 36.33,30.693 36.432,31.016 36.432,31.387 C 36.432,31.847 36.292,32.234 36.012,32.545 C 35.733,32.856 35.336,33 34.821,33 Z M 34.401,29.322 A 0.46,0.46 0 0,0 34.747,29.187 A 0.506,0.506 0 0,0 34.887,28.819 A 0.465,0.465 0 0,0 34.747,28.469 A 0.446,0.446 0 0,0 34.402,28.326 H 33 V 29.322 H 34.402 Z M 34.451,31.71 C 34.621,31.71 34.752,31.662 34.846,31.567 A 0.544,0.544 0 0,0 34.994,31.171 A 0.532,0.532 0 0,0 34.846,30.785 A 0.508,0.508 0 0,0 34.451,30.633 H 33 V 31.71 H 34.451 Z M 42.1,33 H 40.497 L 40.147,32 H 38.16 L 37.792,33 H 36.19 L 38.252,27 H 40.027 L 42.098,33 Z M 39.84,30.803 L 39.14,28.55 L 38.442,30.803 H 39.839 Z" fill="rgb(46, 78, 131)"/>
<path d="M 46.99,32.985 H 45.664 L 43.409,29.547 V 33 H 41.995 V 27 H 43.45 L 45.606,30.319 V 27 H 47 V 33 Z M 50.042,33 H 47.732 V 27 H 50.033 C 50.91,27 51.623,27.293 52.17,27.832 C 52.723,28.37 53,29.098 53,30.013 C 53,30.929 52.723,31.659 52.17,32.203 C 51.622,32.743 50.913,33 50.042,33 Z M 50.033,31.665 C 50.499,31.665 50.869,31.507 51.143,31.189 C 51.417,30.866 51.553,30.474 51.553,30.013 C 51.553,29.528 51.423,29.133 51.159,28.828 C 50.896,28.523 50.524,28.37 50.042,28.37 H 49 V 31.665 H 50.033 Z" fill="rgb(46, 78, 131)"/>
<path d="M 4.99,33.983 H 52 L 50,34.998 H 5 V 33.998 Z M 25.354,24 H 50 L 52,25 H 25 L 25.354,24 Z" fill="rgb(145, 145, 144)"/>
</svg>
