<?xml version="1.0" encoding="UTF-8"?>
<!-- generated by Finnhub -->
<svg viewBox="0 0 55.5 55.5" xmlns="http://www.w3.org/2000/svg">
<path d="M 0,0 H 55.5 V 55.5 H 0 Z" fill="rgb(239, 242, 248)"/>
<path d="M 30.189999999999998,30.645 A 4.02,4.02 0 0,1 31.67,32.4 L 34.71,32 A 7.01,7.01 0 0,0 32.21,28.4 L 30.21,30.66 Z M 32.04,28.28 A 6.97,6.97 0 0,0 28.1,27 V 30 C 28.8,30.02 29.46,30.22 30.03,30.55 L 32.04,28.28 Z M 32.99,27.51 C 33.64,27.94 34.22,28.45 34.74,29.03 L 38.75,21 L 33,27.5 Z M 38.73,20.71 L 32.83,27.4 A 8.98,8.98 0 0,0 31.41,26.67 L 38.73,20.72 Z M 27.9,30.01 V 27.01 A 6.97,6.97 0 0,0 23.85,28.36 L 25.91,30.59 A 3.98,3.98 0 0,1 27.91,30 Z M 25.74,30.7 L 23.69,28.48 A 7.01,7.01 0 0,0 21.32,31.91 L 24.35,32.36 C 24.65,31.69 25.14,31.11 25.75,30.7 Z M 24.27,32.55 L 21.27,32.1 A 7,7 0 0,0 21.07,35 H 24.13 A 4,4 0 0,1 24.27,32.55 Z M 19.64,31.66 C 19.8,31.26 19.99,30.87 20.2,30.5 H 11.86 L 19.64,31.66 Z M 11.25,30.61 L 19.57,31.85 C 19.3,32.55 19.13,33.3 19.05,34.08 L 11.25,30.61 Z M 23.05,27.49 C 23.53,27.17 24.04,26.89 24.58,26.67 L 16.83,20.75 L 23.05,27.49 Z M 16.76,20.97 L 22.88,27.6 C 22.28,28.01 21.73,28.5 21.25,29.05 L 16.76,20.97 Z M 28.1,26 A 9,9 0 0,1 30.46,26.34 L 28.1,16.42 V 26 Z M 27.9,16.52 V 26 C 27.27,26 26.65,26.08 26.06,26.21 L 27.9,16.52 Z M 34.76,32.19 L 31.75,32.59 A 4,4 0 0,1 31.87,35 H 34.93 A 7.06,7.06 0 0,0 34.76,32.19 Z M 36.47,31.96 L 44.74,30.84 L 36.97,34.29 A 8.96,8.96 0 0,0 36.47,31.96 Z M 45.39,30.55 L 36.4,31.76 A 8.97,8.97 0 0,0 35.5,30.02 L 45.5,30.5 L 45.39,30.55 Z" fill="rgb(2, 119, 138)"/>
<path d="M 48.99,29.985 L 38.5,35 C 38.5,34.83 38.8,34.3 40,33.5 S 46.5,30.83 49,30 Z M 9,30 L 18,35 C 18,34.83 17.7,34.47 16.5,33.67 S 11.5,30.83 9,30 Z M 36.5,29 L 49,30 H 41 C 38.6,30 37,29.33 36.5,29 Z M 20,29 L 9,30 H 15.5 C 17.9,30 19.5,29.33 20,29 Z M 41.5,17.5 L 36.5,29 A 2.4,2.4 0 0,1 36.5,27 C 36.9,26.2 40,20.33 41.5,17.5 Z M 14.18,18.34 L 20,29 C 20.17,28.67 20.4,27.8 20,27 C 19.62,26.23 15.8,21.24 14.18,18.34 L 14,18 L 14.18,18.34 Z M 31,25 L 41,17.5 C 39.5,19 36.2,22.2 35,23 C 33.8,23.8 31.83,24.67 31,25 Z M 24.5,25 L 14,17.5 C 15.5,19 19.3,22.2 20.5,23 C 21.7,23.8 23.67,24.67 24.5,25 Z M 31,25 L 28.5,13 C 28.67,14.83 29.1,18.8 29.5,20 C 29.9,21.2 30.67,23.83 31,25 Z M 25,25 L 28,13 C 27.83,14.83 26.9,18.9 26.5,20.5 C 26.1,22.1 25.5,24.17 25,25 Z" fill="rgb(168, 150, 113)"/>
<path d="M 48.99,34.985 H 9 V 34 H 49 V 35 Z" fill="rgb(2, 119, 138)"/>
</svg>
