<?xml version="1.0" encoding="UTF-8"?>
<!-- generated by Finnhub -->
<svg viewBox="0 0 55.5 55.5" xmlns="http://www.w3.org/2000/svg">
<path d="M 0,0 H 55.5 V 55.5 H 0 Z" fill="rgb(239, 242, 248)"/>
<path d="M 26.709999999999997,19.505 C 25.76,19.65 22.9,20.27 21.59,20.62 A 0.48,0.48 0 0,0 21.27,20.92 L 16,34.62 C 28.55,39.22 35.74,32.02 35.6,27.69 C 34.8,31.19 30.72,33.73 25.9,33.86 C 22.05,33.97 22.08,31.35 22.58,30.02 C 22.85,28.92 25.3,22.68 26.72,19.52 Z" fill="rgb(145, 196, 69)"/>
<path d="M 27.99,37.144999999999996 C 21.22,37.76 17.56,35.79 16,34.62 C 25.34,37.98 32.6,34.7 34.84,30.3 C 35.55,28.9 35.81,26.73 35.06,25.56 C 33.33,22.89 29.2,23 26.72,23.44 L 28.55,19.39 C 32.5,19.02 38.29,19.31 40.31,23.44 C 41.11,25.07 41.21,27.04 40.62,28.83 C 39.19,33.13 33.99,36.63 28.01,37.16 Z" fill="rgb(84, 40, 127)"/>
<path d="M 27.99,44.985 A 17,17 0 1,0 28,11 A 17,17 0 0,0 28,45 Z M 46,28 A 18,18 0 1,1 10,28 A 18,18 0 0,1 46,28 Z" fill="url(#a)"/>
<defs>
<linearGradient id="a" x1="42.5" x2="14" y1="16" y2="40.5" gradientUnits="userSpaceOnUse">
<stop stop-color="rgb(153, 205, 67)" offset="0"/>
<stop stop-color="rgb(93, 50, 240)" offset="1"/>
</linearGradient>
</defs>
</svg>
