<?xml version="1.0" encoding="UTF-8"?>
<!-- generated by Finnhub -->
<svg viewBox="0 0 55.5 55.5" xmlns="http://www.w3.org/2000/svg">
<path d="M 0,0 H 55.5 V 55.5 H 0 Z" fill="rgb(1, 44, 89)"/>
<path d="M 5.6610000000000005,30.233 C 5.735,30.219 6.088,30.015 6.088,30.015 C 6.195,29.95 6.295,29.881 6.395,29.803 A 4.521,4.521 0 0,0 6.209,29.745 C 5.783,29.58 4.295,29.499 4.154,30.107 C 4.138,30.175 4.189,30.246 4.232,30.293 C 4.49,30.579 5.364,30.384 5.672,30.248 Z M 10.815,25.351 A 8.279,8.279 0 0,0 12.318,24.668 C 12.469,24.564 12.619,24.464 12.78,24.374 C 13.43,24.01 14.046,23.344 14.426,22.7 C 14.47,22.626 14.544,22.415 14.496,22.334 C 14.279,21.959 12.804,22.982 12.568,23.165 C 12.368,23.321 12.154,23.499 11.975,23.68 A 3.873,3.873 0 0,0 11.578,24.176 C 11.451,24.356 10.901,25.212 10.815,25.351 Z M 7.376,30.203 C 7.25,30.143 7.114,30.083 6.974,30.023 C 6.774,30.127 6.576,30.218 6.407,30.283 C 5.737,30.537 4.772,30.878 4.154,30.465 C 4.124,30.419 4.071,30.398 4.065,30.339 C 4.018,30.269 3.978,30.177 4.013,30.092 C 3.999,30.024 4.049,29.959 4.08,29.904 C 4.406,29.337 5.517,29.363 6.06,29.462 C 6.102,29.47 6.15,29.48 6.198,29.492 C 6.342,29.513 6.488,29.552 6.632,29.602 C 6.775,29.472 6.931,29.318 7.118,29.13 C 7.86,28.332 9.049,26.763 9.283,26.46 C 9.316,26.417 9.361,26.362 9.41,26.303 C 9.514,26.165 9.644,25.986 9.795,25.785 A 5.95,5.95 0 0,1 9.165,25.885 C 9.115,25.888 9.049,25.887 8.981,25.883 C 8.619,25.899 8.254,25.922 7.899,25.852 C 7.069,25.685 5.999,25.362 5.652,24.467 C 5.601,24.336 5.592,24.189 5.578,24.051 C 5.594,23.996 5.578,23.947 5.589,23.891 A 0.982,0.982 0 0,1 5.826,23.391 C 6.536,22.645 7.81,22.413 8.778,22.628 C 8.856,22.645 9.332,22.764 9.349,22.83 C 9.354,22.849 9.319,22.876 9.305,22.876 C 9.155,22.876 8.998,22.845 8.849,22.834 C 8.369,22.801 7.881,22.777 7.406,22.869 C 6.805,22.985 5.661,23.289 5.756,24.135 C 5.77,24.263 5.838,24.503 5.9,24.615 C 6.12,25.009 6.668,25.283 7.065,25.435 C 7.755,25.701 8.571,25.772 9.301,25.672 L 9.381,25.662 L 9.479,25.655 C 9.637,25.638 9.794,25.614 9.947,25.584 A 30.01,30.01 0 0,1 11.341,23.978 C 11.764,23.534 14.057,21.456 14.653,22.135 C 14.79,22.292 14.787,22.503 14.719,22.692 C 14.439,23.476 13.409,24.288 12.461,24.84 L 12.435,24.857 C 11.98,25.165 11.302,25.405 10.678,25.577 C 10.458,25.942 10.341,26.147 10.248,26.299 A 0.184,0.184 0 0,1 10.228,26.325 L 10.073,26.625 A 10.65,10.65 0 0,1 9.413,27.726 C 8.973,28.368 8.484,28.993 7.863,29.458 L 7.782,29.518 A 4.504,4.504 0 0,1 7.262,29.865 C 7.396,29.929 7.521,29.991 7.628,30.041 C 8.15,30.266 9.222,30.594 9.458,30.652 C 9.755,30.725 10.06,30.752 10.366,30.755 C 10.608,30.758 10.848,30.701 11.089,30.698 C 11.1,30.698 11.139,30.715 11.133,30.732 C 11.089,30.864 10.143,30.98 10.106,31.01 C 9.896,31.013 9.284,30.994 9.101,30.934 C 8.687,30.799 8.291,30.621 7.892,30.446 C 7.744,30.381 7.6,30.306 7.452,30.236 A 1.53,1.53 0 0,1 7.376,30.203 Z M 12.079,27.196 C 11.816,27.042 11.054,27.794 10.679,28.188 A 0.292,0.292 0 0,0 10.623,28.238 C 10.523,28.354 10.358,28.505 10.358,28.505 S 10.658,28.435 10.815,28.363 C 11.299,28.147 12.084,27.488 12.094,27.223 L 12.079,27.196 Z M 14.374,27.536 C 14.084,27.193 12.386,28.926 12.146,29.23 C 12.064,29.332 11.499,29.952 11.675,30.06 C 11.875,30.185 12.759,29.4 12.958,29.279 C 13.171,29.149 14.072,28.268 14.222,28.047 C 14.271,27.977 14.33,27.87 14.363,27.791 C 14.393,27.721 14.431,27.602 14.374,27.535 Z M 17.834,27.593 C 17.809,27.53 17.708,27.503 17.649,27.513 C 17.102,27.596 15.683,29.129 15.276,29.576 C 15.218,29.64 14.883,30.013 15.023,30.091 C 15.388,30.294 18.031,28.078 17.834,27.593 Z M 15.134,31.186 C 14.865,31.23 13.503,32.393 13.274,32.639 C 13.162,32.759 12.473,33.588 12.639,33.723 C 12.929,33.957 14.242,32.297 14.471,32.056 C 14.687,31.776 14.968,31.482 15.135,31.186 Z M 11.756,31.166 C 11.689,31.092 11.157,31.512 11.071,31.586 C 10.437,32.124 9.758,32.576 9.324,33.318 C 9.286,33.383 9.208,33.568 9.22,33.643 C 9.224,33.671 9.261,33.693 9.287,33.696 C 9.489,33.713 10.139,33.118 10.284,32.948 C 10.476,32.723 11.756,31.317 11.756,31.167 Z M 21.431,27.261 C 21.171,27.172 20.365,27.909 20.045,28.281 C 19.947,28.396 19.823,28.527 19.823,28.527 S 19.942,28.52 20.179,28.422 L 20.329,28.36 C 20.798,28.113 21.494,27.525 21.476,27.307 C 21.474,27.284 21.452,27.268 21.432,27.261 Z M 22.681,30.308 A 0.597,0.597 0 0,1 22.523,29.971 L 22.517,29.925 A 0.686,0.686 0 0,1 22.514,29.824 C 22.519,29.715 22.554,29.668 22.554,29.668 S 22.384,29.764 22.289,29.828 L 22.215,29.877 C 21.782,30.177 21.096,30.608 20.779,30.308 A 0.6,0.6 0 0,1 20.622,29.971 L 20.617,29.925 A 0.688,0.688 0 0,1 20.613,29.824 C 20.618,29.715 20.653,29.668 20.653,29.668 S 20.483,29.764 20.389,29.828 C 20.245,29.922 20.057,30.051 19.869,30.161 A 2.344,2.344 0 0,1 19.448,30.373 C 18.824,30.56 18.262,29.99 18.538,29.359 C 18.564,29.302 18.558,29.228 18.595,29.179 L 18.569,29.134 C 18.539,29.134 18.222,29.31 17.962,29.459 C 17.805,29.549 17.664,29.632 17.627,29.656 C 17.291,29.873 16.915,30.026 16.581,30.248 C 16.335,30.411 16.171,30.706 15.988,30.934 C 15.358,31.718 14.178,33.334 13.288,33.822 C 13.093,33.928 12.768,34.079 12.558,33.952 C 12.3,33.796 12.388,33.442 12.505,33.227 C 12.797,32.695 13.217,32.327 13.663,31.937 C 13.976,31.663 14.315,31.437 14.649,31.193 C 14.939,30.982 15.473,30.714 15.695,30.503 C 15.882,30.326 16.259,29.881 16.351,29.645 L 16.307,29.63 C 15.907,29.844 15.458,30.358 14.99,30.392 C 14.82,30.405 14.665,30.236 14.608,30.084 C 14.526,29.861 14.661,29.608 14.719,29.397 C 14.711,29.379 14.692,29.358 14.671,29.363 A 64.492,64.492 0 0,0 13.181,30.206 A 1.845,1.845 0 0,0 12.815,30.563 C 12.491,30.956 12.132,31.527 11.905,31.819 C 11.405,32.461 10.652,33.34 9.955,33.745 C 9.77,33.852 9.431,34.01 9.224,33.925 C 9.144,33.892 9.042,33.797 9.024,33.707 C 8.849,32.851 10.576,31.678 11.167,31.254 C 11.253,31.192 11.347,31.136 11.437,31.079 C 11.813,30.839 12.146,30.602 12.427,30.311 A 3.1,3.1 0 0,0 12.913,29.649 L 12.977,29.535 A 2.376,2.376 0 0,0 12.838,29.623 C 12.518,29.839 12.078,30.259 11.712,30.343 C 11.437,30.406 11.242,30.069 11.263,29.824 C 11.267,29.776 11.323,29.537 11.193,29.614 C 11.105,29.666 11.003,29.744 10.92,29.809 C 10.848,29.865 10.775,29.919 10.7,29.965 C 10.29,30.212 9.605,30.547 9.235,30.065 A 0.713,0.713 0 0,1 9.079,29.641 A 1.27,1.27 0 0,1 9.194,29.118 C 9.278,28.968 9.343,28.828 9.439,28.684 C 9.672,28.331 9.999,27.984 10.336,27.738 C 10.716,27.46 11.456,26.974 11.92,26.933 C 12.09,26.918 12.315,26.963 12.38,27.15 C 12.513,27.538 12.018,27.933 11.764,28.13 C 11.401,28.412 10.909,28.584 10.47,28.688 L 10.425,28.697 A 0.094,0.094 0 0,0 10.397,28.699 A 3.84,3.84 0 0,1 10.154,28.737 L 10.061,28.828 A 1.6,1.6 0 0,0 9.971,28.922 A 1.786,1.786 0 0,0 9.845,29.073 C 9.615,29.37 9.369,29.793 9.495,29.969 C 9.716,30.282 10.371,29.906 10.854,29.58 C 11.067,29.436 11.249,29.3 11.341,29.24 C 11.531,29.118 11.661,28.88 11.808,28.707 C 12.101,28.36 12.474,27.999 12.858,27.761 C 13.142,27.584 14.171,27.009 14.471,27.253 C 14.535,27.305 14.603,27.497 14.616,27.509 C 14.696,27.586 14.856,27.257 15.06,27.257 C 15.115,27.257 15.546,27.172 15.472,27.341 C 15.415,27.474 14.808,28.089 14.664,28.264 C 14.462,28.509 13.615,29.497 13.525,29.706 L 13.555,29.733 C 13.784,29.653 14.155,29.453 14.493,29.247 A 6.26,6.26 0 0,0 15.153,28.794 C 15.376,28.61 15.59,28.388 15.803,28.188 C 16.227,27.788 17.184,27.17 17.775,27.238 C 18.011,27.265 17.985,27.526 18.087,27.554 C 18.197,27.51 18.278,27.396 18.372,27.326 C 18.43,27.283 18.868,27.238 18.895,27.333 C 18.91,27.387 18.829,27.466 18.798,27.501 C 18.166,28.229 17.485,28.939 16.941,29.741 L 16.967,29.779 A 1.14,1.14 0 0,0 17.375,29.591 C 17.55,29.468 17.75,29.378 17.935,29.271 C 18,29.235 18.063,29.196 18.124,29.153 C 18.294,29.032 18.484,28.953 18.65,28.821 C 18.738,28.751 18.823,28.693 18.914,28.631 C 19.042,28.541 19.139,28.378 19.251,28.268 C 19.573,27.952 19.878,27.703 20.241,27.448 C 20.54,27.238 21.558,26.694 21.771,27.228 A 0.488,0.488 0 0,1 21.801,27.351 C 21.807,27.407 21.795,27.481 21.795,27.481 A 0.62,0.62 0 0,1 21.717,27.661 C 21.554,27.934 21.217,28.223 20.946,28.374 C 20.75,28.484 20.564,28.586 20.359,28.645 C 19.967,28.758 19.564,28.82 19.564,28.82 L 19.492,28.901 C 19.32,29.085 18.414,30.202 19.192,30.16 C 19.372,30.15 19.612,30.043 19.811,29.928 C 19.92,29.864 20.021,29.804 20.064,29.782 C 20.544,29.537 21.619,28.417 22.486,27.464 H 21.992 C 21.946,27.464 21.936,27.438 21.97,27.406 L 22.135,27.247 A 0.235,0.235 0 0,1 22.277,27.19 H 22.735 C 23.29,26.572 23.712,26.08 23.75,26.036 C 23.803,25.976 24.179,25.564 24.213,25.544 A 0.258,0.258 0 0,1 24.339,25.501 H 24.872 C 24.917,25.501 24.927,25.527 24.895,25.559 L 24.855,25.604 C 24.762,25.747 24.149,26.412 23.438,27.19 H 23.662 C 23.707,27.19 23.717,27.216 23.684,27.247 L 23.518,27.407 A 0.236,0.236 0 0,1 23.376,27.464 H 23.187 C 22.11,28.646 20.925,29.971 21.002,30.121 C 21.081,30.277 21.644,29.991 22.016,29.761 C 22.625,29.357 23.559,28.374 24.387,27.464 H 23.81 C 23.765,27.464 23.755,27.438 23.788,27.406 L 23.953,27.247 A 0.238,0.238 0 0,1 24.096,27.19 H 24.636 C 25.19,26.572 25.612,26.08 25.65,26.036 C 25.703,25.976 26.08,25.564 26.114,25.544 A 0.258,0.258 0 0,1 26.24,25.501 H 26.773 C 26.818,25.501 26.828,25.527 26.795,25.559 L 26.755,25.604 C 26.663,25.747 26.05,26.412 25.338,27.19 H 25.993 C 26.039,27.19 26.048,27.216 26.015,27.247 L 25.85,27.407 A 0.236,0.236 0 0,1 25.707,27.464 H 25.087 C 24.011,28.646 22.827,29.971 22.902,30.121 C 22.947,30.208 23.134,30.157 23.354,30.055 C 23.692,29.889 24.089,29.607 24.262,29.477 C 24.429,29.35 24.66,29.127 24.832,29.034 C 24.851,29.024 24.886,29.02 24.899,29.042 C 24.925,29.083 24.912,29.134 24.899,29.179 C 24.845,29.369 24.223,29.805 23.724,30.102 C 23.634,30.158 23.541,30.212 23.448,30.258 C 23.151,30.407 22.86,30.478 22.68,30.308 Z M 47.865,30.308 A 0.596,0.596 0 0,1 47.708,29.971 L 47.703,29.925 A 0.748,0.748 0 0,1 47.699,29.824 C 47.704,29.715 47.739,29.668 47.739,29.668 S 47.569,29.764 47.474,29.828 L 47.401,29.877 C 46.968,30.177 46.281,30.608 45.965,30.308 A 0.597,0.597 0 0,1 45.808,29.971 L 45.802,29.925 A 0.801,0.801 0 0,1 45.798,29.824 C 45.803,29.715 45.838,29.668 45.838,29.668 S 45.669,29.764 45.574,29.828 C 45.431,29.922 45.243,30.051 45.054,30.161 C 44.843,30.285 44.629,30.385 44.481,30.381 C 44.345,30.377 44.191,30.251 44.144,30.121 C 44.124,30.065 44.144,29.932 44.153,29.825 C 44.177,29.697 44.208,29.593 44.208,29.593 S 44.007,29.73 43.92,29.793 A 0.126,0.126 0 0,0 43.883,29.834 C 43.571,30.087 43.182,30.458 42.779,30.354 C 42.58,30.302 42.539,30.11 42.544,29.919 A 0.27,0.27 0 0,0 42.551,29.862 A 2.16,2.16 0 0,1 42.633,29.392 S 42.433,29.53 42.346,29.593 A 0.164,0.164 0 0,0 42.324,29.612 C 41.862,29.952 41.057,30.628 40.688,30.217 C 40.508,30.017 40.546,29.689 40.651,29.469 C 41.426,27.843 44.02,25.328 45.461,24.285 C 45.694,24.116 46.834,23.249 47.029,23.763 C 47.259,24.368 43.953,26.849 43.655,27.073 C 43.107,27.484 42.472,27.882 41.997,28.378 C 41.741,28.645 41.487,29.009 41.296,29.328 C 41.206,29.478 40.956,29.841 40.981,30.018 C 41.005,30.197 41.32,30.034 41.396,29.999 C 41.989,29.725 42.516,29.223 43.028,28.817 C 43.113,28.749 43.158,28.661 43.243,28.592 C 43.377,28.483 43.488,28.332 43.621,28.222 C 44.188,27.754 44.801,27.313 45.512,27.127 C 45.898,27.026 46.09,27.33 46.176,27.31 C 46.243,27.295 46.354,27.2 46.426,27.175 C 46.495,27.151 46.848,27.143 46.921,27.154 C 47.211,27.149 46.883,27.402 46.577,27.703 C 46.064,28.207 45.204,29.015 44.771,29.648 C 44.728,29.711 44.502,30.035 44.622,30.079 C 44.671,30.097 44.842,30.01 44.995,29.925 C 45.105,29.864 45.205,29.804 45.249,29.782 C 45.729,29.537 46.805,28.417 47.672,27.464 H 47.177 C 47.132,27.464 47.122,27.438 47.155,27.406 L 47.32,27.247 A 0.238,0.238 0 0,1 47.462,27.19 H 47.92 C 48.475,26.572 48.897,26.08 48.935,26.036 C 48.988,25.976 49.365,25.564 49.399,25.544 A 0.26,0.26 0 0,1 49.525,25.501 H 50.057 C 50.103,25.501 50.113,25.527 50.08,25.559 L 50.04,25.604 C 49.947,25.747 49.334,26.412 48.623,27.19 H 48.847 C 48.892,27.19 48.902,27.216 48.869,27.247 L 48.704,27.407 A 0.237,0.237 0 0,1 48.562,27.464 H 48.372 C 47.296,28.646 46.112,29.971 46.188,30.121 C 46.266,30.277 46.828,29.991 47.201,29.761 C 47.811,29.357 48.745,28.374 49.572,27.464 H 48.996 C 48.951,27.464 48.941,27.438 48.973,27.406 L 49.139,27.247 A 0.238,0.238 0 0,1 49.281,27.19 H 49.821 C 50.376,26.572 50.798,26.08 50.836,26.036 C 50.889,25.976 51.265,25.564 51.299,25.544 A 0.258,0.258 0 0,1 51.425,25.501 H 51.959 C 52.004,25.501 52.013,25.527 51.981,25.559 L 51.941,25.604 C 51.848,25.747 51.235,26.412 50.524,27.19 H 51.179 C 51.224,27.19 51.233,27.216 51.2,27.247 L 51.035,27.407 A 0.236,0.236 0 0,1 50.893,27.464 H 50.273 C 49.196,28.646 48.012,29.971 48.088,30.121 C 48.132,30.208 48.319,30.157 48.539,30.055 C 48.877,29.889 49.275,29.607 49.447,29.477 C 49.614,29.35 49.845,29.127 50.017,29.034 C 50.037,29.024 50.071,29.02 50.085,29.042 C 50.111,29.083 50.097,29.134 50.085,29.179 C 50.03,29.369 49.408,29.805 48.909,30.102 A 3.41,3.41 0 0,1 48.633,30.258 C 48.336,30.407 48.045,30.478 47.865,30.308 Z M 45.905,27.441 C 45.759,27.066 44.603,28.089 44.451,28.227 C 44.094,28.552 43.131,29.517 42.993,29.951 C 42.897,30.258 43.398,29.921 43.45,29.891 C 43.941,29.591 44.394,29.115 44.792,28.696 C 45.078,28.396 45.562,28.01 45.79,27.696 C 45.832,27.638 45.934,27.517 45.905,27.441 Z M 43.669,26.53 C 43.417,26.794 43.137,27.046 42.916,27.338 C 42.861,27.408 42.824,27.458 42.824,27.458 S 42.952,27.375 43.157,27.225 C 43.422,27.037 43.754,26.8 43.943,26.614 C 44.175,26.384 44.46,26.179 44.711,25.969 C 44.963,25.758 46.665,24.233 46.658,24.035 C 46.654,23.939 46.413,24.093 46.379,24.112 C 46.049,24.295 45.706,24.623 45.423,24.878 C 44.821,25.419 44.229,25.94 43.669,26.53 Z M 29.546,28.27 C 29.393,28.432 28.826,27.998 28.329,28.293 C 27.812,28.6 27,29.936 27.649,30.425 C 28.026,30.709 28.951,30.353 29.193,29.985 C 29.286,29.843 29.363,29.665 29.401,29.5 C 29.121,29.376 28.861,29.358 28.555,29.372 C 28.333,29.382 28.177,29.665 28.344,29.845 C 28.362,29.865 28.445,29.914 28.468,29.877 C 28.33,29.605 28.818,29.416 28.788,29.81 C 28.78,29.938 28.653,30.013 28.564,30.044 C 28.126,30.191 28.028,29.72 28.131,29.39 C 28.237,29.045 28.698,28.916 29.011,28.9 C 29.654,28.866 30.349,29.22 30.976,29.113 C 31.588,29.007 31.427,28.375 31.032,28.51 C 31.17,29 30.494,29.101 30.494,28.632 C 30.494,28.089 31.631,28.236 31.588,28.838 A 0.802,0.802 0 0,1 31.488,29.128 C 31.19,29.71 30.465,29.758 29.92,29.595 C 29.851,29.711 29.796,29.848 29.706,29.948 C 29.206,30.512 28.356,30.986 27.602,30.921 C 27.234,30.889 26.766,30.533 26.649,30.169 C 26.538,29.819 26.535,29.676 26.657,29.3 C 26.891,28.579 27.423,28.185 28.128,28.01 C 28.181,27.997 28.469,27.96 28.469,27.886 C 28.469,27.792 28.391,27.74 28.395,27.556 C 28.409,27.049 29.051,26.646 29.475,26.519 C 29.932,26.383 30.445,26.306 30.784,26.74 C 30.864,26.844 30.924,27.037 30.891,27.168 C 30.814,27.477 30.289,27.843 30.08,27.465 C 29.852,27.056 30.742,27.047 30.661,26.851 C 30.431,26.291 29.219,27 29.03,27.574 C 28.868,28.064 29.624,27.895 29.546,28.27 Z M 42.808,23.628 A 4.74,4.74 0 0,1 43.177,23.388 A 2.017,2.017 0 0,0 42.89,23.037 C 42.533,22.69 42.197,22.625 41.685,22.563 C 40.281,22.393 38.397,23.55 37.635,24.721 C 37.53,24.885 37.412,25.131 37.398,25.328 C 37.385,25.502 37.388,25.693 37.502,25.832 C 38.375,26.905 40.938,24.989 41.18,23.94 C 41.354,23.765 41.292,24.218 41.236,24.325 C 41.084,24.613 40.473,25.262 40.213,25.465 A 5.284,5.284 0 0,1 38.844,26.232 A 1.5,1.5 0 0,1 37.932,26.308 C 37.578,26.227 37.2,25.831 37.161,25.454 C 37.124,25.102 37.321,24.581 37.509,24.29 C 37.716,23.97 38.177,23.46 38.525,23.215 C 39.418,22.588 40.234,22.355 41.306,22.295 C 41.697,22.275 42.038,22.35 42.347,22.47 C 42.607,22.57 42.832,22.726 43.026,22.91 C 43.129,23.017 43.256,23.148 43.362,23.28 C 43.467,23.22 43.569,23.161 43.659,23.111 L 43.708,23.085 C 43.753,23.061 44.42,22.731 44.764,22.765 C 44.905,22.779 45.032,22.821 44.791,22.891 C 43.929,23.141 43.536,23.381 43.467,23.42 A 0.811,0.811 0 0,1 43.563,23.604 L 43.576,23.638 C 43.696,24.013 43.799,24.281 43.713,24.688 C 43.634,25.065 43.513,25.446 43.305,25.77 A 4.145,4.145 0 0,1 40.205,27.643 A 8.112,8.112 0 0,1 39.952,27.654 C 39.826,27.856 39.685,28.074 39.529,28.301 C 39.299,28.613 39.065,28.928 38.785,29.192 C 37.623,30.289 36.32,30.68 34.758,30.68 C 34.115,30.68 33.561,30.475 33.081,30.184 C 32.544,29.857 32.342,28.907 32.577,28.338 C 32.911,27.528 34.075,26.763 34.757,26.495 C 35.543,26.187 37.004,26.058 37.684,26.64 C 37.809,26.748 37.904,26.876 37.98,27.026 C 38.167,27.393 37.992,27.92 37.754,28.22 C 37.244,28.861 35.986,29.313 35.202,29.318 C 35.04,29.319 34.741,29.322 34.632,29.181 C 34.608,29.151 34.598,29.096 34.642,29.081 C 34.894,29.075 35.139,29.146 35.392,29.123 C 36.009,29.069 36.524,28.86 37.068,28.57 C 37.482,28.35 37.955,27.813 37.898,27.3 C 37.863,26.977 37.587,26.71 37.302,26.606 C 35.587,25.976 31.773,27.684 32.903,29.745 C 33.043,29.999 33.367,30.213 33.623,30.317 C 34.717,30.765 35.984,30.306 36.908,29.673 C 37.452,29.301 37.858,28.825 38.321,28.364 A 9.985,9.985 0 0,0 38.721,27.933 C 38.801,27.842 38.871,27.757 38.907,27.701 L 39.02,27.564 A 0.617,0.617 0 0,1 38.806,27.478 C 38.613,27.332 38.443,27.136 38.792,27.324 C 38.885,27.374 39.002,27.41 39.134,27.432 L 39.174,27.386 C 39.217,27.364 39.736,26.726 39.812,26.64 C 40.002,26.423 40.205,26.213 40.387,25.988 C 40.693,25.608 40.992,25.208 41.317,24.848 C 41.659,24.47 42.17,24.085 42.582,23.791 C 42.654,23.739 42.732,23.685 42.808,23.628 Z M 43.363,23.964 A 1.047,1.047 0 0,0 43.261,23.546 C 43.157,23.617 42.881,23.811 42.649,24.008 C 41.79,24.738 40.904,25.884 40.349,26.951 C 40.274,27.091 40.152,27.318 40.079,27.44 C 40.138,27.431 40.195,27.423 40.249,27.413 C 40.513,27.39 41.208,27.14 41.38,27.06 C 42.147,26.706 42.884,25.655 43.209,24.882 C 43.289,24.69 43.371,24.275 43.363,23.964 Z" fill="rgb(254, 254, 253)"/>
</svg>
