<?xml version="1.0" encoding="UTF-8"?>
<!-- generated by Finnhub -->
<svg viewBox="0 0 55.5 55.5" xmlns="http://www.w3.org/2000/svg">
<path d="M 0,0 H 55.5 V 55.5 H 0 Z" fill="rgb(239, 242, 248)"/>
<path d="M 12.96,30.555 A 4.92,4.92 0 0,1 11.6,27.02 A 4.81,4.81 0 0,1 16.5,22 A 4.5,4.5 0 0,1 20.14,23.84 C 19.85,24.07 19.71,24.19 19.04,24.69 A 3.1,3.1 0 0,0 16.5,23.43 A 3.43,3.43 0 0,0 13,27.02 A 3.42,3.42 0 0,0 16.5,30.59 C 17.62,30.59 18.58,30.06 19.16,29.18 C 19.46,29.39 19.94,29.78 20.28,30.01 A 4.53,4.53 0 0,1 16.5,32 A 4.8,4.8 0 0,1 12.97,30.57 Z M 20.14,23.84 L 19.04,24.69 L 20.14,23.84 Z M 22.16,29 C 22.16,29.81 22.49,30.69 23.55,30.69 C 24.27,30.69 24.85,30.39 25.12,29.74 L 26.22,30.35 C 26.05,30.65 25.87,30.89 25.68,31.1 A 2.42,2.42 0 0,1 24.37,31.9 C 24.12,31.97 23.84,32 23.55,32 C 22.7,32 22.03,31.73 21.51,31.19 A 3.06,3.06 0 0,1 20.75,29.01 C 20.75,28.11 20.99,27.38 21.49,26.83 C 21.99,26.28 22.65,26 23.48,26 C 24.31,26 24.98,26.27 25.46,26.8 S 26.22,27.96 26.22,29 H 22.16 Z M 24.83,28.02 C 24.67,27.5 24.2,27.2 23.5,27.2 C 22.67,27.2 22.2,27.8 22.2,28.02 H 24.83 Z M 27,26 H 28.38 V 26.6 C 28.89,26.11 29.56,26 30.21,26 C 30.95,26 31.52,26.22 31.93,26.67 C 32.29,27.05 32.38,27.67 32.38,28.53 V 32 H 31 V 28.86 C 31,28.26 30.9,27.84 30.73,27.61 C 30.57,27.38 30.26,27.26 29.81,27.26 C 29.32,27.26 28.91,27.54 28.71,27.86 C 28.51,28.16 28.38,28.56 28.38,29.33 V 32 H 27 V 26 Z M 35.2,27.4 V 32 H 34 V 27.4 H 33.2 V 26 H 34 V 24 H 35.2 V 26 H 36.2 V 27.4 H 35.2 Z M 37.4,26 H 38.8 V 26.54 C 39.13,26.21 39.75,26 40.22,26 C 40.59,26 40.98,26.12 41.38,26.35 L 40.74,27.62 A 1.37,1.37 0 0,0 39.95,27.34 C 39.18,27.34 38.7,27.91 38.7,29.04 V 32 H 37.4 V 26 Z M 43.4,26 V 29.35 C 43.4,30.31 43.74,30.8 44.5,30.8 C 45.27,30.8 45.6,30.31 45.6,29.35 V 26 H 47 V 29.38 C 47,29.84 46.94,30.25 46.83,30.58 C 46.71,30.89 46.52,31.16 46.24,31.41 C 45.79,31.81 45.21,32 44.51,32 S 43.23,31.8 42.77,31.4 A 2.07,2.07 0 0,1 42.17,30.59 A 3.3,3.3 0 0,1 42,29.38 V 26 H 43.4 Z M 51.61,27.13 L 50.45,27.71 C 50.27,27.36 50.06,27.2 49.8,27.2 C 49.67,27.2 49.56,27.22 49.47,27.3 A 0.39,0.39 0 0,0 49.33,27.6 C 49.33,27.82 49.6,28.04 50.13,28.25 C 50.87,28.55 51.36,28.83 51.62,29.08 C 51.87,29.33 52,29.61 52,30.04 C 52,30.58 51.79,31.11 51.36,31.47 C 50.94,31.82 50.44,32 49.86,32 C 48.86,32 48.14,31.54 47.72,30.6 L 48.9,30.09 C 49.07,30.36 49.2,30.53 49.28,30.61 C 49.45,30.75 49.67,30.8 49.9,30.8 C 50.37,30.8 50.58,30.62 50.58,30.22 C 50.58,29.99 50.4,29.77 50.04,29.57 A 20.71,20.71 0 0,0 49.2,29.18 A 2.6,2.6 0 0,1 48.35,28.62 A 1.35,1.35 0 0,1 48,27.71 C 48,27.21 48.21,26.81 48.57,26.48 C 48.94,26.16 49.38,26 49.9,26 C 50.67,26 51.24,26.37 51.61,27.13 Z" fill="rgb(13, 73, 145)"/>
<path d="M 14.790000000000001,35.415 A 0.45,0.45 0 1,1 14.23,34.72 A 0.45,0.45 0 0,1 14.79,35.42 Z M 15.4,37.7 A 0.55,0.55 0 1,1 14.72,36.83 A 0.55,0.55 0 0,1 15.4,37.69 Z M 17.2,39.84 A 0.71,0.71 0 1,1 16.32,38.73 A 0.71,0.71 0 0,1 17.21,39.84 Z" fill="rgb(75, 156, 66)"/>
<circle cx="20.67" cy="22.67" r=".39" fill="rgb(75, 156, 66)"/>
<circle cx="18.41" cy="21.24" r=".39" fill="rgb(75, 156, 66)"/>
<path d="M 12.31,31.814999999999998 A 0.4,0.4 0 1,1 11.54,31.83 A 0.4,0.4 0 0,1 12.32,31.83 Z M 14.66,33.18 A 0.4,0.4 0 1,1 13.87,33.18 A 0.4,0.4 0 0,1 14.66,33.18 Z M 17.63,33.47 A 0.4,0.4 0 1,1 16.84,33.47 A 0.4,0.4 0 0,1 17.63,33.47 Z M 11.23,33.95 A 0.45,0.45 0 1,1 11.07,33.05 A 0.45,0.45 0 0,1 11.23,33.95 Z M 10.71,36.24 A 0.55,0.55 0 1,1 10.51,35.15 A 0.55,0.55 0 0,1 10.71,36.24 Z M 11.3,38.98 A 0.71,0.71 0 1,1 11.04,37.58 A 0.71,0.71 0 0,1 11.3,38.98 Z M 9.07,23.62 A 0.45,0.45 0 1,1 9.94,23.36 A 0.45,0.45 0 0,1 9.07,23.62 Z M 6.74,23.35 A 0.55,0.55 0 1,1 7.8,23.04 A 0.55,0.55 0 0,1 6.74,23.35 Z M 4.08,24.23 A 0.71,0.71 0 1,1 5.44,23.83 A 0.71,0.71 0 0,1 4.08,24.23 Z M 14.46,19.12 A 0.45,0.45 0 1,1 15.23,19.6 A 0.45,0.45 0 0,1 14.46,19.12 Z M 13.12,17.2 A 0.55,0.55 0 1,1 14.06,17.78 A 0.55,0.55 0 0,1 13.12,17.19 Z M 10.7,15.78 A 0.71,0.71 0 1,1 11.9,16.53 A 0.71,0.71 0 0,1 10.7,15.78 Z M 17.9,19 A 0.45,0.45 0 1,1 18.43,19.74 A 0.45,0.45 0 0,1 17.9,19.01 Z M 17.38,16.72 A 0.55,0.55 0 1,1 18.03,17.61 A 0.55,0.55 0 0,1 17.38,16.71 Z M 15.67,14.5 A 0.71,0.71 0 1,1 16.5,15.65 A 0.71,0.71 0 0,1 15.67,14.5 Z M 21.32,20.44 A 0.45,0.45 0 1,1 21.53,21.33 A 0.45,0.45 0 0,1 21.32,20.44 Z M 21.71,18.13 A 0.55,0.55 0 1,1 21.97,19.2 A 0.55,0.55 0 0,1 21.71,18.13 Z M 20.97,15.43 A 0.71,0.71 0 1,1 21.31,16.81 A 0.71,0.71 0 0,1 20.97,15.43 Z M 10.95,20.81 A 0.45,0.45 0 1,1 11.85,20.86 A 0.45,0.45 0 0,1 10.95,20.81 Z M 8.84,19.77 A 0.55,0.55 0 1,1 9.94,19.83 A 0.55,0.55 0 0,1 8.84,19.77 Z M 6.04,19.7 A 0.71,0.71 0 1,1 7.46,19.78 A 0.71,0.71 0 0,1 6.04,19.71 Z M 8.07,27.2 A 0.45,0.45 0 1,1 8.68,26.51 A 0.45,0.45 0 0,1 8.08,27.19 Z M 5.95,28.18 A 0.55,0.55 0 1,1 6.68,27.36 A 0.55,0.55 0 0,1 5.95,28.18 Z M 4.14,30.33 A 0.71,0.71 0 1,1 5.09,29.27 A 0.71,0.71 0 0,1 4.14,30.33 Z M 8.88,30.86 A 0.45,0.45 0 1,1 9.16,30 A 0.45,0.45 0 0,1 8.88,30.86 Z M 7.34,32.63 A 0.55,0.55 0 1,1 7.68,31.58 A 0.55,0.55 0 0,1 7.34,32.63 Z M 6.57,35.33 A 0.71,0.71 0 1,1 7,33.98 A 0.71,0.71 0 0,1 6.57,35.33 Z M 11.05,29.45 A 0.4,0.4 0 1,1 10.27,29.45 A 0.4,0.4 0 0,1 11.05,29.45 Z M 20.14,32.4 A 0.4,0.4 0 1,1 19.36,32.4 A 0.4,0.4 0 0,1 20.14,32.4 Z M 21.43,33.84 A 0.45,0.45 0 1,1 20.52,33.84 A 0.45,0.45 0 0,1 21.42,33.84 Z M 23.58,34.77 A 0.55,0.55 0 1,1 22.48,34.77 A 0.55,0.55 0 0,1 23.58,34.77 Z M 26.38,34.69 A 0.71,0.71 0 1,1 24.96,34.69 A 0.71,0.71 0 0,1 26.38,34.69 Z M 18.55,35.42 A 0.45,0.45 0 1,1 17.77,34.95 A 0.45,0.45 0 0,1 18.55,35.42 Z M 19.93,37.31 A 0.55,0.55 0 1,1 18.98,36.75 A 0.55,0.55 0 0,1 19.93,37.31 Z M 22.38,38.67 A 0.71,0.71 0 1,1 21.16,37.95 A 0.71,0.71 0 0,1 22.38,38.67 Z M 13.29,21.87 A 0.4,0.4 0 1,1 12.5,21.87 A 0.4,0.4 0 0,1 13.29,21.87 Z M 11.44,24.1 A 0.4,0.4 0 1,1 10.66,24.1 A 0.4,0.4 0 0,1 11.44,24.1 Z M 10.55,26.6 A 0.4,0.4 0 1,1 9.77,26.6 A 0.4,0.4 0 0,1 10.55,26.6 Z" fill="rgb(75, 156, 66)"/>
<circle cx="15.59" cy="21.04" r=".39" fill="rgb(75, 156, 66)"/>
</svg>
