<?xml version="1.0" encoding="UTF-8"?>
<!-- generated by Finnhub -->
<svg viewBox="0 0 55.5 55.5" xmlns="http://www.w3.org/2000/svg">
<path d="M 0,0 H 55.5 V 55.5 H 0 Z" fill="rgb(239, 242, 248)"/>
<path d="M 12.99,12.985 H 43 V 43 H 13 V 13 Z M 14,42 H 42.06 V 14 H 14 V 42 Z" fill="rgb(21, 38, 55)"/>
<path d="M 20.99,19.485 A 1.5,1.5 0 1,1 18,19.5 A 1.5,1.5 0 0,1 21,19.5 Z" fill="rgb(157, 118, 36)"/>
<path d="M 26.74,19.305 A 1.75,1.75 0 1,1 23.25,19.32 A 1.75,1.75 0 0,1 26.75,19.32 Z" fill="rgb(174, 128, 34)"/>
<path d="M 32.99,19.485 A 2,2 0 1,1 29,19.5 A 2,2 0 0,1 33,19.5 Z" fill="rgb(182, 133, 33)"/>
<path d="M 38.99,19.235 A 2.25,2.25 0 1,1 34.5,19.25 A 2.25,2.25 0 0,1 39,19.25 Z" fill="rgb(191, 138, 32)"/>
<path d="M 20.99,25.485 A 1.5,1.5 0 1,1 18,25.5 A 1.5,1.5 0 0,1 21,25.5 Z" fill="rgb(132, 103, 39)"/>
<path d="M 26.99,25.235 A 1.75,1.75 0 1,1 23.5,25.25 A 1.75,1.75 0 0,1 27,25.25 Z" fill="rgb(157, 118, 36)"/>
<path d="M 20.56,30.155 A 1.17,1.17 0 1,1 18.23,30.17 A 1.17,1.17 0 0,1 20.57,30.17 Z M 26,36.25 A 1.25,1.25 0 1,1 23.5,36.25 A 1.25,1.25 0 0,1 26,36.25 Z" fill="rgb(114, 93, 41)"/>
<path d="M 26.49,30.485 A 1.5,1.5 0 0,1 23.5,30.5 A 1.5,1.5 0 0,1 26.5,30.5 Z" fill="rgb(140, 108, 38)"/>
<path d="M 38.49,24.985 A 2,2 0 1,1 36.5,23 A 2,2 0 0,1 38.5,25 Z" fill="rgb(182, 133, 33)"/>
<path d="M 32.49,24.985 A 1.75,1.75 0 1,1 29,25 A 1.75,1.75 0 0,1 32.5,25 Z" fill="rgb(174, 128, 34)"/>
<path d="M 31.99,30.485 A 1.5,1.5 0 1,1 29,30.5 A 1.5,1.5 0 0,1 32,30.5 Z" fill="rgb(157, 118, 36)"/>
<path d="M 38.24,30.735 A 1.75,1.75 0 1,1 34.75,30.75 A 1.75,1.75 0 0,1 38.25,30.75 Z" fill="rgb(174, 128, 34)"/>
<path d="M 31.99,36.485 A 1.5,1.5 0 0,1 29,36.5 A 1.5,1.5 0 0,1 32,36.5 Z" fill="rgb(132, 103, 39)"/>
<path d="M 37.99,36.485 A 1.5,1.5 0 0,1 35,36.5 A 1.5,1.5 0 0,1 38,36.5 Z" fill="rgb(157, 118, 36)"/>
</svg>
