<?xml version="1.0" encoding="UTF-8"?>
<!-- generated by Finnhub -->
<svg viewBox="0 0 55.5 55.5" xmlns="http://www.w3.org/2000/svg">
<path d="M 0,0 H 55.5 V 55.5 H 0 Z" fill="rgb(239, 242, 248)"/>
<path d="M 17.389999999999997,32.985 C 16,33 14.93,32.61 14.16,31.84 C 13.39,31.07 13,29.97 13,28.54 C 13,27.07 13.36,25.94 14.07,25.14 A 4.17,4.17 0 0,1 17,24 V 26 C 16.07,26 15.6,26.42 15.6,27 H 18.34 C 19.34,28.3 19,29 19,29 H 15.55 C 15.6,30.14 16.53,31 17.69,31 C 18.55,31 19.29,30.77 20,30.33 L 21.02,31.91 S 19.22,33.12 17.4,33 Z M 21,29 H 19 C 19,28.37 18.76,28.1 18.34,27 C 18.34,26.56 17.93,26 17,26 V 24 C 19.78,24 21.14,25.68 21,29 Z" fill="rgb(115, 113, 115)"/>
<path d="M 27.99,32.985 H 24 C 23.61,30.21 23.32,28.16 22.99,25.27 C 22.57,28.17 22.31,30.11 22,33 H 18 L 15,22 H 18 C 18.58,24.63 19.42,27.4 20,30 C 20.56,27.31 21.43,24.66 22,22 H 24 C 24.54,24.67 25.47,27.36 26.04,30 C 26.58,27.36 27.41,24.63 28,22 H 31 L 28,33 Z M 33.92,30.9 C 34.26,30.9 34.56,30.78 34.81,30.56 C 35.05,30.33 35.18,30.03 35.18,29.66 V 29 L 34.52,29.04 C 33.57,29.07 33.1,29.44 33.1,30.12 C 33.1,30.64 33.37,30.91 33.92,30.91 Z M 35,33 V 32 C 33.92,33 33.1,33 32,33 C 30.36,33 30,31.64 29.98,31 C 29.86,27.39 33.14,27.61 35,27 C 35,26.66 34.9,26.17 34.15,26.17 C 33.55,26.17 32.7,26.2 32,27 L 31,25 C 31.88,24.18 33.52,24 35,24 C 36.79,24 38,25.26 38,27 V 33 H 35 Z M 39,33 H 42 V 21 H 39 V 33 Z M 46,28 C 46.7,26.66 47.22,25.56 48,24 H 51 L 48,28 L 51,33 H 48 L 46.63,29.76 L 46,30.49 V 33 H 43 V 21 H 46 V 28 Z" fill="rgb(239, 208, 3)"/>
<path d="M 7.99,23.985 C 9.01,24 10,24.14 10,25 S 9.07,26 8,26 V 24 Z M 11,28 C 12.2,27.3 13,26.25 13,25 C 13,23.36 11.98,22 9,22 H 5 V 33 H 8 V 29 H 8.7 L 11,33 H 14 L 11,28 Z" fill="rgb(115, 113, 115)"/>
<path d="M 19.99,30.305 A 4.29,4.29 0 0,1 17.44,30.97 L 18,33 C 19.6,32.87 21.02,31.91 21.02,31.91 L 20,30.32 Z M 18.34,27 C 18.34,26.55 17.93,26 17,26 C 16.65,26 16.36,26.05 16.13,26.16 L 15.6,24.22 A 5.12,5.12 0 0,1 18.53,24.2 S 19.29,27 19.77,29 H 16.91 L 16.36,27 H 18.34 Z M 21,29 A 8.23,8.23 0 0,0 20.8,26.73 S 20.3,28.56 20.22,29 H 21 Z" fill="rgb(111, 104, 3)"/>
</svg>
