<?xml version="1.0" encoding="UTF-8"?>
<!-- generated by Finnhub -->
<svg viewBox="0 0 55.5 55.5" xmlns="http://www.w3.org/2000/svg">
<path d="M 0,0 H 55.5 V 55.5 H 0 Z" fill="rgb(239, 242, 248)"/>
<path d="M 9.99,23.985 H 11.28 V 32 H 10 Z" fill="rgb(249, 165, 31)"/>
<path d="M 44.99,22.985 H 46.28 V 32 H 45 Z" fill="rgb(12, 44, 106)"/>
<path d="M 7.99,25.985 H 9.28 V 32 H 8 Z M 8,24 H 9.28 V 25 H 8 Z M 5.28,24 H 4 V 32 H 7.32 V 31 H 5.28 V 24 Z" fill="rgb(249, 165, 31)"/>
<path d="M 12.63,31.985 C 13.97,32 15.04,30.66 15.04,29 S 13.97,26 12.64,26 C 11.32,26 10.24,27.34 10.24,29 S 11.32,32 12.64,32 Z M 12.56,30.83 C 13.24,30.83 13.79,30.01 13.79,29 S 13.24,27.17 12.56,27.17 C 11.89,27.17 11.34,27.99 11.34,29 S 11.89,30.83 12.56,30.83 Z" fill="rgb(249, 165, 31)" fill-rule="evenodd"/>
<path d="M 41.81,31.985 C 43.29,32 44.49,30.66 44.49,29 S 43.29,26 41.82,26 C 40.34,26 39.14,27.34 39.14,29 S 40.34,32 41.82,32 Z M 41.82,30.83 C 42.57,30.83 43.18,30.01 43.18,29 S 42.57,27.17 41.82,27.17 C 41.06,27.17 40.45,27.99 40.45,29 S 41.06,30.83 41.82,30.83 Z" fill="rgb(12, 44, 106)" fill-rule="evenodd"/>
<path d="M 51.99,22.985 H 50.72 V 26.42 A 2.24,2.24 0 0,0 49.42,26 C 48.02,26 46.89,27.34 46.89,29 S 48.02,32 49.42,32 C 49.9,32 50.34,31.85 50.72,31.58 V 32 H 52 V 23 Z M 50.71,29 C 50.71,30.01 50.14,30.83 49.42,30.83 C 48.71,30.83 48.13,30.01 48.13,29 C 48.13,27.99 48.71,27.17 49.43,27.17 C 50.13,27.17 50.71,27.99 50.71,29 Z" fill="rgb(12, 44, 106)"/>
<path d="M 20.099999999999998,31.405 C 19.81,31.62 19,32.02 18.25,32 C 17.32,31.97 15.52,31.6 15.49,28.94 C 15.47,26.29 17.31,26.03 17.95,26 C 18.59,25.98 20.3,26.35 20.21,29.4 H 16.79 C 16.79,29.86 17.09,30.8 18.25,30.87 C 18.55,30.87 19.23,30.77 19.67,30.45 L 20.11,31.42 Z M 16.77,28.32 C 16.79,27.92 17.04,27.12 17.86,27.11 C 18.66,27.09 18.86,27.91 18.86,28.31 H 16.77 Z" fill="rgb(249, 165, 31)" fill-rule="evenodd"/>
<path d="M 22.279999999999998,31.985 H 21 V 26 H 22.1 L 22.21,26.65 C 23.18,25.67 24.07,26.01 24.39,26.3 L 23.96,27.25 C 23.19,26.79 22.53,27.3 22.29,27.62 V 32 Z M 25.37,26 V 24.79 L 26.65,24.39 V 26 H 28.33 L 27.95,27 H 26.65 V 30.25 C 26.65,31.12 27.51,30.75 27.95,30.45 L 28.39,31.46 C 27.74,31.94 27.09,32.02 26.84,32 A 1.41,1.41 0 0,1 25.37,30.6 V 27 H 24.49 V 26 H 25.37 Z" fill="rgb(249, 165, 31)"/>
<path d="M 30.86,31.245 L 28.45,26 H 29.83 L 31.46,29.66 L 32.76,26 H 34.03 L 31.79,32.18 C 30.75,34.43 29.01,34.13 28.26,33.7 L 28.59,32.63 S 28.79,32.89 29.51,32.85 C 30.24,32.81 30.72,31.77 30.87,31.26 Z M 37.47,26.3 L 38.32,25.14 L 39.12,25.74 L 38.22,26.91 L 37.47,26.31 Z" fill="rgb(249, 165, 31)"/>
<path d="M 36.45,30.005 C 37.7,30.02 38.7,29.12 38.7,28.02 C 38.7,27.56 38.53,27.14 38.26,26.81 L 37.39,27.84 A 0.9,0.9 0 0,1 37.43,28.08 C 37.43,28.6 36.99,29.02 36.44,29.02 A 0.97,0.97 0 0,1 35.46,28.08 C 35.46,27.56 35.9,27.14 36.44,27.14 C 36.54,27.14 36.64,27.15 36.72,27.17 L 37.48,26.22 C 37.18,26.08 36.83,26 36.46,26 C 35.22,26 34.21,26.9 34.21,28.01 C 34.21,28.61 34.51,29.16 34.98,29.53 C 34.62,29.83 34.14,30.5 34.71,31.08 C 34.41,31.25 33.83,31.77 33.86,32.5 C 33.89,33.41 34.81,34.01 36.66,34 C 38.5,33.99 39.16,32.83 39.14,32.3 C 39.14,31.77 38.97,30.97 37.24,30.73 C 35.6,30.49 35.52,30.43 35.8,29.93 C 36,29.99 36.23,30.03 36.46,30.03 Z M 36.39,32.97 C 34.49,32.71 35.04,31.87 35.56,31.49 C 35.8,31.61 36.18,31.64 36.56,31.67 C 37.2,31.72 37.84,31.77 37.86,32.24 C 37.89,32.84 36.9,32.98 36.39,32.97 Z" fill="rgb(12, 44, 106)"/>
</svg>
