<?xml version="1.0" encoding="UTF-8"?>
<!-- generated by Finnhub -->
<svg viewBox="0 0 55.5 55.5" xmlns="http://www.w3.org/2000/svg">
<path d="M 0,0 H 55.5 V 55.5 H 0 Z" fill="rgb(227, 111, 28)"/>
<path d="M 47.492000000000004,33.985 C 47.298,34 47,34.008 47,33.72 V 32.446 C 46.582,33.176 45.458,34 43.99,34 C 41.627,34 40.814,31.554 40.814,29.573 C 40.814,27.431 41.749,25 44.182,25 C 45.642,25 46.508,25.633 47,26.25 V 22.29 C 47,21.964 47.287,21.997 47.505,21.997 C 47.713,21.997 48,21.967 48,22.29 V 33.72 C 48,33.913 47.962,34 47.502,34 Z M 47,27.83 C 46.628,26.892 45.98,26 44.242,26 C 42.505,26 42.031,28.304 42.031,29.573 C 42.031,30.849 42.469,33.011 44.181,33 C 45.894,32.99 46.782,31.834 47,31.064 V 27.831 Z M 38.525,33.998 C 38.406,33.998 38,34.031 38,33.798 V 28.783 C 38,27.706 37.752,26 36.403,26 C 35.514,26 34.506,27.212 34,27.867 V 33.731 C 34,34.039 33.697,34 33.504,34 C 33.121,34 33,33.963 33,33.73 V 25.288 C 33,24.963 33.329,25 33.527,25 C 33.737,25 34,24.98 34,25.288 V 26.5 C 34.65,25.75 35.587,25 36.723,25 S 38.29,25.675 38.541,26.083 C 38.791,26.49 39,27.44 39,28.585 V 33.798 C 39,34.058 38.643,33.998 38.525,33.998 Z M 30.531,33.997 C 30.329,33.997 30,34.032 30,33.744 V 32.717 C 29.351,33.432 28.74,34 27.72,34 C 26.077,34 25,33.008 25,31.45 C 25,29.63 26.503,29 28.925,29 H 30.002 C 30.002,28.316 30.163,27.03 29.686,26.493 C 29.404,26.175 29.065,25.999 28.203,26 C 27.341,26 26.528,26.401 25.858,26.813 C 25.434,27.071 25.394,26.941 25.394,26.493 C 25.394,26.193 25.431,26.157 25.587,26 C 26.249,25.341 27.462,25 28.344,25 C 29.511,25 31,25.649 31,26.74 V 33.73 C 31,34.015 30.721,33.997 30.53,33.997 Z M 30,30 C 29.26,30 28.107,29.92 27.38,30.091 C 26.659,30.262 25.999,30.66 25.999,31.451 C 25.999,32.308 26.591,33 27.719,33 C 28.846,33 29.466,32.387 30.001,31.77 V 30 Z M 20.963,37 C 19.553,37 17.457,36.63 17.457,34.827 C 17.457,33.967 17.948,33.306 18.586,32.787 C 18.021,32.492 17.752,32.011 17.752,31.487 C 17.752,30.82 18.054,30.217 18.507,29.735 C 18.149,29.292 18,28.79 18,28 C 18,26.298 19.278,25 21,25 C 22.73,25 23.955,26.283 24,28 A 3.728,3.728 0 0,1 23.79,29.155 C 23.808,29.112 23.774,29.202 23.79,29.155 C 23.335,30.28 22.11,30.821 20.954,30.821 C 20.43,30.821 19.797,30.714 19.384,30.363 C 19.177,30.579 18.894,30.868 18.894,31.228 C 18.894,31.741 19.625,31.936 20.061,31.953 L 22.101,32.043 C 23.654,32.09 24.764,32.822 24.764,34.234 C 24.764,36.226 22.687,37 20.964,37 Z M 20.953,29.898 C 22.088,29.898 23.014,29.125 23.014,27.98 C 23.014,26.88 22.131,26 21.002,26 C 19.862,26 18.999,26.831 18.999,27.958 A 1.94,1.94 0 0,0 20.953,29.898 Z M 19.88,33 C 19.885,32.996 19.876,33.003 19.88,33 C 19.363,33.419 18.587,34.007 18.587,34.71 C 18.587,35.848 20.152,35.995 21.033,35.995 C 22.1,35.995 23.632,35.644 23.632,34.359 C 23.632,32.733 20.893,33.051 19.88,33 Z M 15.522,34 C 15.275,34 15,34.02 15,33.723 V 25.276 C 15,24.966 15.279,25.002 15.502,25.003 C 15.839,25.003 16,24.98 16,25.276 V 33.723 C 16,34.032 15.77,34 15.522,34 Z M 13.702,34 H 8.556 A 0.59,0.59 0 0,1 8.178,33.871 C 8.06,33.778 8.001,33.615 8.001,33.381 V 22.291 C 8.001,21.958 8.514,22.004 8.514,22.004 S 9,21.958 9,22.29 V 33 H 13.703 C 13.911,33 14.005,33.142 14.005,33.481 C 14.005,33.77 14.016,34 13.703,34 Z M 25,23.988 C 25,24.38 24.928,24.646 24.784,24.787 C 24.64,24.927 24.376,25 23.99,25 C 23.61,25 23.35,24.93 23.21,24.793 C 23.07,24.655 23,24.393 23,24.01 C 23,23.619 23.071,23.353 23.215,23.21 C 23.359,23.07 23.624,23 24.009,23 C 24.389,23 24.649,23.07 24.789,23.207 C 24.929,23.345 25,23.606 25,23.988 Z" fill="rgb(254, 254, 253)"/>
</svg>
