<?xml version="1.0" encoding="UTF-8"?>
<!-- generated by Finnhub -->
<svg viewBox="0 0 55.5 55.5" xmlns="http://www.w3.org/2000/svg">
<path d="M 0,0 H 55.5 V 55.5 H 0 Z" fill="rgb(239, 242, 248)"/>
<path d="M 3.99,25.134999999999998 V 31 H 7.176 L 7.507,30 H 5 V 25 L 4,25.15 Z M 13.397,28 A 3,3 0 1,1 7.397,28 A 3,3 0 0,1 13.397,28 Z M 12.393,28 A 1.999,1.999 0 1,1 10.395,26 C 11.498,26 12.393,26.895 12.393,28 Z M 44,31 A 3,3 0 1,0 44,25 A 3,3 0 0,0 44,31 Z M 43.998,30 A 1.999,1.999 0 1,0 43.996,26.002 A 1.999,1.999 0 0,0 43.998,30 Z M 14,31 V 25 L 17.5,28.603 V 25.123 L 18.5,25 V 31 L 15,27.471 V 30.868 L 14,31 Z M 47.5,31 L 48.5,30.868 V 27.47 L 52,31 V 25 L 51,25.122 V 28.602 L 47.5,25 V 31 Z M 24.198,30.13 C 23.647,30.668 22.888,31 22.05,31 C 20.365,31 19,29.657 19,28 S 20.365,25 22.05,25 C 22.857,25 23.59,25.308 24.136,25.812 L 23.433,26.605 A 2,2 0 1,0 23.198,29.602 V 28.532 H 21.63 L 21.9,27.532 H 24.198 V 30.13 Z M 28.184,25 H 25 V 31 H 28.362 L 28.567,30 H 26 V 28.468 H 28 V 27.468 H 25.999 V 26 H 28.389 L 28.184,25 Z M 34.082,25 H 36.672 L 36.877,26 H 34.486 V 27.468 H 36.487 V 28.468 H 34.486 V 30 H 37.054 L 36.849,31 H 33.486 V 25 H 34.082 Z M 30.768,31 L 28.426,25.221 L 29.432,25 L 30.769,28.372 L 32.053,25 L 33.1,25.221 L 30.768,31 Z M 40.581,26.748 C 40.534,24.943 38.467,24.881 37.439,25.076 V 31 L 38.44,30.819 V 28.623 L 40.01,31 L 41.027,30.758 L 39.397,28.37 C 40.383,27.975 40.597,27.124 40.581,26.748 Z M 39.594,26.773 C 39.588,26.033 38.822,25.959 38.44,26.015 V 27.635 C 38.828,27.656 39.6,27.513 39.594,26.773 Z" clip-rule="evenodd" fill-rule="evenodd"/>
</svg>
