<?xml version="1.0" encoding="UTF-8"?>
<!-- generated by Finnhub -->
<svg viewBox="0 0 55.5 55.5" xmlns="http://www.w3.org/2000/svg">
<path d="M 0,0 H 55.5 V 55.5 H 0 Z" fill="rgb(239, 242, 248)"/>
<path d="M 28.459999999999997,31.395 C 28.41,31.13 28.3,30.91 28.13,30.76 A 102.3,102.3 0 0,1 23.51,26.42 A 6.97,6.97 0 0,0 17.06,24.35 C 16.5,24.43 15.94,24.49 15.38,24.55 C 18,21.97 20.63,19.42 23.28,16.9 C 26.08,14.23 30.16,14.45 32.86,17.1 C 37.68,21.86 41.25,25.32 43.56,27.49 C 44.53,28.4 45.22,29.15 45.65,29.72 C 50.39,36.15 41.59,43.65 35.49,38.02 C 34.85,37.42 32.75,35.37 29.19,31.85 A 4.05,4.05 0 0,0 28.47,31.41 Z" fill="rgb(247, 112, 41)"/>
<path d="M 28.459999999999997,31.395 A 2.1,2.1 0 0,0 26.49,32.04 A 793.57,793.57 0 0,1 21.57,36.91 C 20.12,38.34 18.95,39.21 18.07,39.54 C 13.75,41.11 9.14,38.39 9,33.79 C 8.95,31.89 9.55,30.29 10.81,28.99 A 218,218 0 0,1 15.38,24.55 C 15.94,24.49 16.5,24.43 17.06,24.35 C 19.63,23.98 21.66,24.57 23.51,26.42 A 102.2,102.2 0 0,0 28.13,30.76 C 28.3,30.91 28.41,31.13 28.47,31.41 Z" fill="rgb(177, 78, 28)"/>
</svg>
