<?xml version="1.0" encoding="UTF-8"?>
<!-- generated by Finnhub -->
<svg viewBox="0 0 55.5 55.5" xmlns="http://www.w3.org/2000/svg">
<path d="M 0,0 H 55.5 V 55.5 H 0 Z" fill="rgb(1, 77, 130)"/>
<path d="M 31.49,27.884999999999998 V 28 H 29.66 V 27.9 H 29.77 C 29.87,27.9 29.96,27.87 30.02,27.83 A 0.26,0.26 0 0,0 30.12,27.69 C 30.14,27.64 30.15,27.52 30.15,27.32 V 24.68 C 30.15,24.48 30.15,24.35 30.12,24.3 A 0.27,0.27 0 0,0 30.01,24.17 A 0.4,0.4 0 0,0 29.77,24.11 H 29.66 V 24 H 31.5 V 24.1 H 31.38 C 31.28,24.1 31.2,24.13 31.14,24.17 A 0.27,0.27 0 0,0 31.03,24.31 C 31.01,24.36 31,24.48 31,24.68 V 27.32 C 31,27.52 31.01,27.65 31.03,27.7 C 31.05,27.75 31.09,27.8 31.15,27.83 C 31.21,27.87 31.29,27.89 31.38,27.89 H 31.5 Z M 45.44,24.54 A 1.85,1.85 0 0,0 43.98,24 A 1.8,1.8 0 0,0 42.57,24.54 C 42.19,24.92 42,25.4 42,25.97 C 42,26.48 42.15,26.92 42.44,27.29 C 42.81,27.76 43.34,27.99 44.01,27.99 C 44.69,27.99 45.21,27.75 45.58,27.26 C 45.86,26.89 46,26.46 46,25.96 C 46,25.4 45.81,24.92 45.44,24.54 Z M 43.22,24.72 C 43.4,24.36 43.66,24.18 44.01,24.18 C 44.2,24.18 44.36,24.24 44.51,24.34 C 44.65,24.44 44.77,24.62 44.86,24.88 C 44.96,25.13 45,25.51 45,26.02 C 45,26.45 44.95,26.8 44.86,27.06 C 44.77,27.33 44.64,27.52 44.48,27.64 A 0.78,0.78 0 0,1 44,27.78 A 0.77,0.77 0 0,1 43.34,27.46 C 43.12,27.14 43,26.66 43,26 C 43,25.44 43.08,25.02 43.22,24.72 Z M 24.92,25.42 C 24.66,25.14 24.32,24.98 23.89,25 C 23.49,24.98 23.17,25.14 22.89,25.43 C 22.63,25.73 22.49,26.08 22.49,26.52 C 22.49,26.91 22.59,27.18 22.8,27.46 C 23.07,27.82 23.44,28 23.91,28 C 24.39,28 24.76,27.8 25.02,27.43 C 25.22,27.15 25.32,26.89 25.32,26.52 C 25.32,26.08 25.18,25.72 24.92,25.42 Z M 23.36,25.57 C 23.48,25.3 23.66,25.16 23.91,25.16 C 24.04,25.16 24.16,25.2 24.26,25.28 C 24.36,25.36 24.45,25.49 24.51,25.68 C 24.58,25.88 24.61,26.17 24.61,26.56 C 24.61,26.88 24.58,27.08 24.51,27.28 A 0.9,0.9 0 0,1 24.25,27.73 C 24.15,27.8 24.05,27.83 23.91,27.83 A 0.53,0.53 0 0,1 23.44,27.58 C 23.28,27.34 23.2,27.04 23.2,26.54 C 23.2,26.12 23.25,25.79 23.36,25.57 Z M 7.99,27.17 H 8.92 L 9.07,27.53 L 9.12,27.69 L 9.14,27.77 C 9.14,27.81 9.12,27.85 9.09,27.87 C 9.05,27.9 8.98,27.92 8.88,27.92 H 8.82 V 28 H 10.11 V 27.92 A 0.3,0.3 0 0,1 9.92,27.84 A 1.5,1.5 0 0,1 9.69,27.41 L 8.74,25 H 8.7 L 7.75,27.34 C 7.65,27.57 7.58,27.71 7.52,27.79 A 0.39,0.39 0 0,1 7.29,27.92 V 28 H 8.17 V 27.92 A 0.7,0.7 0 0,1 7.91,27.86 C 7.85,27.83 7.81,27.76 7.81,27.68 C 7.81,27.62 7.84,27.54 7.87,27.45 L 7.99,27.16 Z M 8.46,25.99 L 8.86,27 H 8.06 L 8.46,25.99 Z M 12.63,26.68 A 1.3,1.3 0 0,0 12.1,26.44 A 1,1 0 0,0 12.6,26.12 C 12.68,26.01 12.73,25.88 12.73,25.74 A 0.7,0.7 0 0,0 12.63,25.36 A 0.68,0.68 0 0,0 12.33,25.09 C 12.19,25.03 11.98,25 11.67,25 H 10.4 V 25.08 C 10.52,25.08 10.6,25.09 10.65,25.12 A 0.2,0.2 0 0,1 10.75,25.22 C 10.76,25.26 10.77,25.36 10.77,25.52 V 27.48 C 10.77,27.64 10.76,27.74 10.74,27.78 A 0.21,0.21 0 0,1 10.64,27.88 A 0.57,0.57 0 0,1 10.4,27.92 V 28 H 11.75 C 12.13,28 12.41,27.9 12.61,27.73 A 0.7,0.7 0 0,0 12.85,27.19 C 12.85,26.98 12.78,26.81 12.63,26.68 Z M 11.77,26.27 A 0.78,0.78 0 0,1 11.39,26.38 V 25.16 C 11.58,25.16 11.72,25.18 11.8,25.23 C 11.89,25.27 11.96,25.33 12,25.42 C 12.05,25.5 12.07,25.61 12.07,25.74 S 12.05,25.97 12,26.06 A 0.48,0.48 0 0,1 11.8,26.26 H 11.77 Z M 11.39,27.49 V 26.55 C 11.59,26.55 11.74,26.57 11.84,26.61 C 11.94,26.66 12.02,26.73 12.08,26.84 C 12.13,26.95 12.16,27.07 12.16,27.21 C 12.16,27.33 12.14,27.44 12.09,27.54 A 0.5,0.5 0 0,1 11.89,27.76 A 0.57,0.57 0 0,1 11.6,27.84 C 11.53,27.84 11.48,27.82 11.44,27.78 C 11.4,27.74 11.39,27.68 11.39,27.6 V 27.5 Z M 14.22,26.59 V 27.49 C 14.22,27.64 14.22,27.74 14.25,27.79 C 14.26,27.82 14.3,27.86 14.34,27.88 C 14.38,27.9 14.47,27.92 14.59,27.92 V 28 H 13.23 V 27.92 C 13.35,27.92 13.43,27.9 13.48,27.88 A 0.21,0.21 0 0,0 13.57,27.78 A 0.95,0.95 0 0,0 13.6,27.48 V 25.52 C 13.6,25.36 13.59,25.26 13.57,25.22 A 0.2,0.2 0 0,0 13.47,25.12 A 0.57,0.57 0 0,0 13.23,25.08 V 25 H 14.46 C 14.78,25 15.02,25.02 15.16,25.07 C 15.32,25.12 15.44,25.21 15.53,25.35 C 15.63,25.48 15.67,25.63 15.67,25.81 C 15.67,26.03 15.6,26.21 15.47,26.35 A 0.85,0.85 0 0,1 15.08,26.55 L 15.72,27.6 L 15.9,27.84 C 15.96,27.89 16.02,27.91 16.09,27.92 V 28 H 15.25 L 14.39,26.6 H 14.22 Z M 14.22,25.16 V 26.44 H 14.33 C 14.51,26.44 14.65,26.43 14.74,26.39 C 14.83,26.35 14.9,26.29 14.95,26.19 C 15,26.09 15.03,25.97 15.03,25.81 C 15.03,25.59 14.98,25.43 14.89,25.31 C 14.79,25.21 14.64,25.16 14.43,25.16 H 14.22 Z M 16.95,27.16 H 17.89 L 18.03,27.53 L 18.09,27.69 V 27.77 C 18.09,27.81 18.09,27.85 18.05,27.87 C 18.01,27.9 17.94,27.92 17.84,27.92 H 17.78 V 28 H 19.07 V 27.92 A 0.3,0.3 0 0,1 18.88,27.84 A 1.5,1.5 0 0,1 18.66,27.41 L 17.7,25 H 17.66 L 16.71,27.34 C 16.61,27.57 16.54,27.71 16.48,27.79 A 0.39,0.39 0 0,1 16.25,27.92 V 28 H 17.13 V 27.92 A 0.7,0.7 0 0,1 16.87,27.86 C 16.81,27.83 16.78,27.76 16.78,27.68 C 16.78,27.62 16.8,27.54 16.83,27.45 L 16.95,27.16 Z M 17.42,25.99 L 17.82,27 H 17.02 L 17.42,25.99 Z M 19.33,27.99 V 27.92 H 19.42 C 19.5,27.92 19.55,27.9 19.59,27.88 A 0.24,0.24 0 0,0 19.69,27.77 L 19.7,27.49 V 25.5 C 19.7,25.35 19.7,25.26 19.68,25.22 A 0.2,0.2 0 0,0 19.59,25.12 A 0.31,0.31 0 0,0 19.42,25.08 H 19.33 V 25 H 20.52 C 20.84,25 21.09,25.05 21.29,25.14 C 21.52,25.26 21.7,25.44 21.82,25.67 A 1.98,1.98 0 0,1 21.92,27.11 C 21.86,27.28 21.78,27.43 21.68,27.54 C 21.58,27.65 21.48,27.74 21.35,27.81 A 1.66,1.66 0 0,1 20.52,28 H 19.33 Z M 20.34,25.17 V 27.52 C 20.34,27.64 20.34,27.72 20.36,27.74 C 20.36,27.77 20.39,27.79 20.41,27.8 A 0.3,0.3 0 0,0 20.56,27.84 C 20.78,27.84 20.95,27.75 21.06,27.59 C 21.22,27.37 21.3,27.02 21.3,26.55 C 21.3,26.18 21.25,25.82 21.14,25.59 A 0.72,0.72 0 0,0 20.81,25.23 C 20.71,25.19 20.56,25.17 20.34,25.17 Z M 26.62,26.6 V 27.48 C 26.62,27.64 26.62,27.74 26.64,27.78 C 26.66,27.82 26.69,27.86 26.74,27.88 C 26.78,27.9 26.87,27.92 26.99,27.92 V 28 H 25.63 V 27.92 C 25.75,27.92 25.83,27.9 25.88,27.88 A 0.21,0.21 0 0,0 25.97,27.78 A 0.96,0.96 0 0,0 26,27.48 V 25.52 C 26,25.36 25.99,25.26 25.97,25.22 A 0.2,0.2 0 0,0 25.87,25.12 A 0.57,0.57 0 0,0 25.63,25.08 V 25 H 26.86 C 27.18,25 27.42,25.02 27.56,25.07 C 27.72,25.12 27.84,25.21 27.93,25.35 C 28.03,25.48 28.07,25.63 28.07,25.81 C 28.07,26.03 28,26.21 27.87,26.35 A 0.85,0.85 0 0,1 27.48,26.55 L 28.12,27.6 L 28.3,27.84 C 28.35,27.89 28.42,27.91 28.49,27.92 V 28 H 27.65 L 26.79,26.6 H 26.62 Z M 26.62,25.16 V 26.44 H 26.73 C 26.91,26.44 27.05,26.43 27.13,26.39 C 27.23,26.35 27.3,26.29 27.35,26.19 C 27.4,26.09 27.43,25.97 27.43,25.81 C 27.43,25.59 27.38,25.43 27.29,25.31 C 27.19,25.21 27.04,25.16 26.83,25.16 H 26.62 Z M 32.64,27.48 V 26.6 H 32.81 L 33.67,28 H 34.51 V 27.92 A 0.31,0.31 0 0,1 34.32,27.84 C 34.29,27.81 34.22,27.74 34.14,27.6 L 33.5,26.55 A 0.84,0.84 0 0,0 33.88,26.35 A 0.73,0.73 0 0,0 34.09,25.81 A 0.77,0.77 0 0,0 33.95,25.35 A 0.71,0.71 0 0,0 33.59,25.07 A 2.45,2.45 0 0,0 32.89,25 H 31.65 V 25.08 C 31.77,25.08 31.85,25.09 31.9,25.12 A 0.2,0.2 0 0,1 31.99,25.22 L 32,25.41 V 27.58 L 31.99,27.78 A 0.21,0.21 0 0,1 31.89,27.88 A 0.57,0.57 0 0,1 31.65,27.92 V 28 H 33 V 27.92 A 0.57,0.57 0 0,1 32.75,27.88 A 0.21,0.21 0 0,1 32.65,27.78 A 1.05,1.05 0 0,1 32.63,27.48 Z M 32.64,26.44 V 25.16 H 32.84 C 33.06,25.16 33.21,25.21 33.31,25.32 C 33.41,25.42 33.45,25.59 33.45,25.82 A 0.8,0.8 0 0,1 33.37,26.19 A 0.42,0.42 0 0,1 33.16,26.39 C 33.06,26.43 32.93,26.44 32.76,26.44 H 32.64 Z M 36.19,25 C 36.61,24.98 36.95,25.14 37.22,25.43 C 37.48,25.72 37.62,26.08 37.62,26.52 C 37.62,26.89 37.52,27.15 37.32,27.43 C 37.06,27.81 36.69,28 36.22,28 A 1.3,1.3 0 0,1 35.1,27.46 C 34.9,27.18 34.8,26.91 34.8,26.52 C 34.8,26.08 34.93,25.72 35.2,25.43 C 35.46,25.13 35.8,24.98 36.19,25 Z M 36.21,25.16 C 35.97,25.16 35.78,25.3 35.65,25.56 C 35.55,25.79 35.5,26.12 35.5,26.54 C 35.5,27.04 35.58,27.34 35.74,27.58 C 35.84,27.75 36.01,27.83 36.2,27.83 C 36.34,27.83 36.45,27.8 36.54,27.73 A 0.9,0.9 0 0,0 36.81,27.28 C 36.87,27.08 36.91,26.88 36.91,26.56 C 36.91,26.16 36.87,25.88 36.81,25.69 A 0.85,0.85 0 0,0 36.56,25.28 A 0.55,0.55 0 0,0 36.21,25.16 Z M 40.23,26.88 L 38.92,25 H 37.98 V 25.08 C 38.06,25.08 38.12,25.1 38.16,25.12 C 38.21,25.15 38.26,25.2 38.31,25.27 L 38.37,25.35 V 27.49 C 38.37,27.64 38.34,27.75 38.28,27.82 C 38.23,27.88 38.12,27.92 37.98,27.92 V 28 H 38.92 V 27.92 H 38.86 A 0.36,0.36 0 0,1 38.62,27.82 C 38.55,27.77 38.52,27.65 38.52,27.49 V 25.56 L 40.3,28 H 40.37 V 25.56 C 40.37,25.42 40.37,25.32 40.4,25.26 C 40.42,25.21 40.45,25.16 40.49,25.14 A 0.61,0.61 0 0,1 40.71,25.08 V 25 H 39.84 V 25.08 C 39.98,25.08 40.09,25.12 40.15,25.2 C 40.2,25.26 40.22,25.38 40.22,25.56 V 26.88 Z M 47.31,26.6 V 27.48 C 47.31,27.64 47.31,27.74 47.33,27.78 C 47.35,27.82 47.38,27.86 47.43,27.88 C 47.47,27.9 47.55,27.92 47.67,27.92 V 28 H 46.31 V 27.92 C 46.44,27.92 46.52,27.9 46.56,27.88 A 0.21,0.21 0 0,0 46.66,27.78 A 0.95,0.95 0 0,0 46.68,27.48 V 25.52 C 46.68,25.36 46.68,25.26 46.66,25.22 A 0.2,0.2 0 0,0 46.56,25.12 A 0.57,0.57 0 0,0 46.31,25.08 V 25 H 47.55 C 47.87,25 48.11,25.02 48.25,25.07 A 0.78,0.78 0 0,1 48.75,25.81 C 48.76,26.03 48.69,26.21 48.55,26.35 A 0.85,0.85 0 0,1 48.17,26.55 L 48.81,27.6 C 48.89,27.73 48.95,27.81 48.99,27.84 C 49.04,27.89 49.1,27.91 49.17,27.92 V 28 H 48.34 L 47.48,26.6 H 47.31 Z M 47.31,25.16 V 26.44 H 47.41 C 47.6,26.44 47.74,26.43 47.83,26.39 C 47.92,26.35 47.99,26.29 48.03,26.19 C 48.09,26.09 48.12,25.97 48.12,25.81 C 48.12,25.59 48.07,25.43 47.97,25.31 C 47.87,25.21 47.73,25.16 47.52,25.16 H 47.31 Z M 50.4,26.42 V 25.17 H 50.67 C 50.87,25.17 51.01,25.18 51.08,25.21 C 51.21,25.25 51.3,25.32 51.38,25.41 C 51.44,25.51 51.49,25.66 51.53,25.87 H 51.61 V 25 H 49.38 V 25.08 H 49.47 C 49.56,25.08 49.62,25.1 49.67,25.14 A 0.2,0.2 0 0,1 49.75,25.26 V 27.5 C 49.75,27.64 49.75,27.73 49.73,27.77 A 0.2,0.2 0 0,1 49.66,27.87 A 0.34,0.34 0 0,1 49.47,27.92 H 49.38 V 28 H 51.68 L 51.8,27.06 H 51.73 C 51.66,27.32 51.55,27.52 51.4,27.64 A 0.89,0.89 0 0,1 50.8,27.84 H 50.65 C 50.57,27.84 50.52,27.82 50.48,27.8 A 0.18,0.18 0 0,1 50.41,27.71 A 1.38,1.38 0 0,1 50.4,27.41 V 26.59 A 0.6,0.6 0 0,1 50.69,26.64 C 50.75,26.68 50.81,26.75 50.86,26.86 C 50.91,26.96 50.94,27.1 50.96,27.26 H 51.03 V 25.73 H 50.96 C 50.94,25.96 50.89,26.13 50.81,26.25 C 50.74,26.37 50.61,26.42 50.45,26.42 H 50.4 Z M 7.06,28 L 7.19,26.6 H 7.09 C 7.01,26.91 6.92,27.15 6.83,27.31 A 0.92,0.92 0 0,1 6.52,27.66 A 0.86,0.86 0 0,1 6.06,27.78 H 5.77 C 5.61,27.78 5.51,27.77 5.47,27.75 A 0.22,0.22 0 0,1 5.35,27.63 A 1.51,1.51 0 0,1 5.31,27.23 V 24.68 C 5.31,24.48 5.32,24.36 5.34,24.31 A 0.27,0.27 0 0,1 5.44,24.17 A 0.42,0.42 0 0,1 5.69,24.11 H 5.84 V 24 H 4 V 24.1 H 4.11 C 4.21,24.1 4.29,24.13 4.34,24.17 C 4.4,24.21 4.44,24.25 4.46,24.3 C 4.48,24.35 4.49,24.48 4.49,24.68 V 27.32 C 4.49,27.52 4.48,27.64 4.46,27.69 A 0.26,0.26 0 0,1 4.36,27.83 A 0.42,0.42 0 0,1 4.11,27.89 H 4 V 28 H 7.06 Z M 7.51,30.22 C 7.71,30.22 7.89,30.31 8.03,30.48 C 8.18,30.65 8.25,30.86 8.25,31.12 S 8.18,31.56 8.03,31.74 A 0.68,0.68 0 0,1 7.49,32 A 0.68,0.68 0 0,1 6.96,31.74 A 0.88,0.88 0 0,1 6.74,31.12 C 6.74,30.85 6.82,30.62 6.99,30.45 A 0.7,0.7 0 0,1 7.51,30.22 Z M 7.49,30.32 A 0.4,0.4 0 0,0 7.16,30.49 C 7.06,30.63 7,30.84 7,31.12 A 1,1 0 0,0 7.16,31.73 C 7.25,31.85 7.36,31.91 7.49,31.91 C 7.64,31.91 7.76,31.84 7.85,31.71 C 7.95,31.59 7.99,31.43 7.99,31.15 C 7.99,30.85 7.94,30.63 7.84,30.49 A 0.4,0.4 0 0,0 7.49,30.31 Z M 5.54,32 H 5.12 L 4.6,31.19 H 4.44 V 31.69 C 4.44,31.8 4.45,31.87 4.47,31.89 C 4.5,31.93 4.54,31.95 4.6,31.95 H 4.66 V 32 H 4 V 31.95 H 4.06 C 4.12,31.95 4.17,31.93 4.2,31.88 A 0.45,0.45 0 0,0 4.22,31.69 V 30.57 C 4.22,30.46 4.22,30.39 4.19,30.37 C 4.16,30.33 4.12,30.31 4.06,30.31 H 4 V 30.26 H 4.56 C 4.73,30.26 4.85,30.27 4.92,30.3 A 0.4,0.4 0 0,1 5.12,30.45 C 5.18,30.52 5.2,30.61 5.2,30.71 S 5.17,30.91 5.11,30.99 A 0.5,0.5 0 0,1 4.82,31.15 L 5.14,31.65 C 5.22,31.77 5.28,31.85 5.34,31.88 C 5.38,31.92 5.45,31.94 5.54,31.95 V 32 Z M 4.44,31.1 H 4.5 C 4.65,31.1 4.76,31.07 4.84,31 A 0.36,0.36 0 0,0 4.94,30.72 C 4.94,30.62 4.92,30.52 4.86,30.46 A 0.3,0.3 0 0,0 4.62,30.36 A 0.9,0.9 0 0,0 4.44,30.38 V 31.11 Z M 11.14,30.26 H 10.6 V 30.31 A 0.2,0.2 0 0,1 10.69,30.32 A 0.1,0.1 0 0,1 10.74,30.37 L 10.75,30.43 C 10.75,30.47 10.73,30.53 10.69,30.61 L 10.39,31.15 L 10.06,30.59 A 0.43,0.43 0 0,1 9.99,30.42 A 0.1,0.1 0 0,1 10.04,30.34 A 0.18,0.18 0 0,1 10.14,30.31 H 10.17 V 30.26 H 9.5 V 30.31 L 9.56,30.32 C 9.62,30.35 9.66,30.38 9.67,30.4 C 9.69,30.42 9.73,30.47 9.77,30.56 L 10.2,31.29 V 31.69 C 10.2,31.79 10.2,31.86 10.18,31.89 C 10.15,31.93 10.1,31.95 10.04,31.95 H 9.98 V 32 H 10.64 V 31.95 H 10.59 C 10.53,31.95 10.48,31.93 10.45,31.9 C 10.43,31.87 10.42,31.8 10.42,31.7 V 31.26 L 10.79,30.6 L 10.91,30.42 A 0.34,0.34 0 0,1 11.01,30.34 A 0.21,0.21 0 0,1 11.1,30.31 H 11.13 V 30.26 Z M 13.12,31.42 H 12.52 L 12.42,31.69 A 0.48,0.48 0 0,0 12.38,31.84 C 12.38,31.87 12.39,31.89 12.41,31.91 C 12.44,31.93 12.48,31.95 12.56,31.95 V 32 H 12.07 V 31.95 C 12.14,31.94 12.17,31.92 12.2,31.9 A 0.81,0.81 0 0,0 12.33,31.65 L 12.87,30.22 H 12.91 L 13.45,31.67 C 13.49,31.78 13.53,31.86 13.56,31.89 C 13.6,31.93 13.65,31.95 13.71,31.95 V 32 H 13.11 V 31.95 C 13.17,31.95 13.21,31.94 13.23,31.92 A 0.1,0.1 0 0,0 13.26,31.85 C 13.26,31.81 13.25,31.75 13.22,31.67 L 13.12,31.42 Z M 13.09,31.32 L 12.83,30.62 L 12.56,31.32 H 13.09 Z M 16.26,31.52 H 16.22 A 0.9,0.9 0 0,1 16.1,31.76 A 0.33,0.33 0 0,1 15.97,31.86 A 0.73,0.73 0 0,1 15.72,31.89 H 15.61 L 15.43,31.88 A 0.08,0.08 0 0,1 15.39,31.84 A 0.4,0.4 0 0,1 15.37,31.69 V 30.59 C 15.37,30.49 15.37,30.43 15.39,30.4 A 0.15,0.15 0 0,1 15.46,30.33 L 15.63,30.31 V 30.26 H 14.93 V 30.31 H 14.99 C 15.05,30.31 15.09,30.33 15.12,30.36 C 15.14,30.39 15.15,30.46 15.15,30.56 V 31.69 C 15.15,31.79 15.15,31.85 15.13,31.88 C 15.1,31.93 15.05,31.95 14.99,31.95 H 14.93 V 32 H 16.13 L 16.26,31.53 Z M 18.59,30.26 L 18.6,30.66 H 18.56 A 0.54,0.54 0 0,0 18.53,30.51 A 0.24,0.24 0 0,0 18.43,30.41 A 0.29,0.29 0 0,0 18.28,30.37 H 18.06 V 31.7 C 18.06,31.82 18.07,31.95 18.22,31.95 H 18.28 V 32 H 17.62 V 31.95 H 17.68 C 17.83,31.95 17.84,31.82 17.84,31.7 V 30.37 H 17.66 C 17.58,30.37 17.53,30.37 17.5,30.39 A 0.22,0.22 0 0,0 17.4,30.49 A 0.41,0.41 0 0,0 17.35,30.67 H 17.31 L 17.33,30.26 H 18.59 Z M 21.46,30.26 H 20.92 V 30.31 A 0.2,0.2 0 0,1 21.01,30.32 A 0.1,0.1 0 0,1 21.06,30.37 L 21.07,30.43 C 21.07,30.47 21.05,30.53 21,30.61 L 20.7,31.15 L 20.38,30.59 A 0.43,0.43 0 0,1 20.31,30.42 A 0.1,0.1 0 0,1 20.35,30.34 A 0.18,0.18 0 0,1 20.45,30.31 H 20.49 V 30.26 H 19.83 V 30.31 L 19.89,30.32 C 19.95,30.35 19.99,30.38 20,30.4 C 20.02,30.42 20.06,30.47 20.1,30.56 L 20.53,31.29 V 31.69 C 20.53,31.79 20.53,31.86 20.5,31.89 C 20.48,31.93 20.43,31.95 20.37,31.95 H 20.31 V 32 H 20.97 V 31.95 H 20.92 C 20.85,31.95 20.81,31.93 20.78,31.9 C 20.76,31.87 20.75,31.8 20.75,31.7 V 31.26 L 21.12,30.6 C 21.17,30.52 21.2,30.46 21.24,30.42 A 0.34,0.34 0 0,1 21.34,30.34 A 0.21,0.21 0 0,1 21.43,30.31 H 21.46 V 30.26 Z M 25.68,30.22 L 25.71,30.82 H 25.68 A 0.77,0.77 0 0,0 25.48,30.42 A 0.46,0.46 0 0,0 25.16,30.32 C 25.06,30.32 24.96,30.34 24.88,30.4 A 0.57,0.57 0 0,0 24.68,30.68 A 1.4,1.4 0 0,0 24.68,31.53 C 24.73,31.64 24.8,31.73 24.88,31.79 C 24.98,31.86 25.08,31.89 25.19,31.89 A 0.5,0.5 0 0,0 25.46,31.81 A 0.95,0.95 0 0,0 25.71,31.53 L 25.75,31.55 A 0.88,0.88 0 0,1 25.48,31.89 C 25.38,31.96 25.25,31.99 25.11,31.99 A 0.67,0.67 0 0,1 24.51,31.68 A 0.87,0.87 0 0,1 24.36,31.16 C 24.36,30.98 24.39,30.82 24.46,30.68 A 0.8,0.8 0 0,1 24.75,30.34 A 0.7,0.7 0 0,1 25.15,30.22 C 25.25,30.22 25.36,30.25 25.47,30.32 L 25.54,30.34 C 25.56,30.34 25.58,30.34 25.59,30.32 A 0.21,0.21 0 0,0 25.64,30.22 H 25.68 Z M 28.34,30.48 A 0.66,0.66 0 0,0 27.82,30.22 A 0.7,0.7 0 0,0 27.3,30.45 A 0.94,0.94 0 0,0 27.05,31.12 C 27.05,31.39 27.13,31.57 27.27,31.74 C 27.41,31.91 27.59,32 27.81,32 C 28.01,32 28.2,31.91 28.34,31.74 A 0.88,0.88 0 0,0 28.57,31.12 A 0.95,0.95 0 0,0 28.34,30.48 Z M 27.47,30.48 A 0.4,0.4 0 0,1 27.8,30.31 A 0.4,0.4 0 0,1 28.15,30.49 C 28.25,30.63 28.3,30.86 28.3,31.15 C 28.3,31.43 28.26,31.59 28.16,31.72 C 28.06,31.84 27.95,31.91 27.8,31.91 A 0.38,0.38 0 0,1 27.48,31.73 A 1,1 0 0,1 27.31,31.12 C 27.31,30.84 27.37,30.63 27.47,30.49 Z M 31.37,32 H 30.97 L 30.44,31.19 H 30.28 V 31.69 C 30.28,31.8 30.28,31.87 30.31,31.89 C 30.34,31.93 30.38,31.95 30.44,31.95 H 30.5 V 32 H 29.84 V 31.95 H 29.9 C 29.96,31.95 30,31.93 30.04,31.88 A 0.45,0.45 0 0,0 30.06,31.69 V 30.57 C 30.06,30.46 30.06,30.39 30.03,30.37 C 30,30.33 29.96,30.31 29.9,30.31 H 29.84 V 30.26 H 30.4 C 30.57,30.26 30.69,30.27 30.76,30.3 A 0.4,0.4 0 0,1 30.96,30.45 C 31.02,30.52 31.04,30.61 31.04,30.71 S 31.01,30.91 30.95,30.99 A 0.5,0.5 0 0,1 30.66,31.15 L 30.98,31.65 C 31.06,31.77 31.12,31.85 31.17,31.88 C 31.22,31.92 31.29,31.94 31.37,31.95 V 32 Z M 30.27,31.1 H 30.34 C 30.49,31.1 30.6,31.07 30.67,31 A 0.36,0.36 0 0,0 30.79,30.72 C 30.79,30.62 30.76,30.52 30.69,30.46 A 0.3,0.3 0 0,0 30.46,30.36 A 0.9,0.9 0 0,0 30.28,30.38 V 31.11 Z M 32.97,31.7 V 31.18 A 1.4,1.4 0 0,0 33.24,31.22 C 33.39,31.22 33.5,31.18 33.59,31.09 C 33.67,30.99 33.71,30.89 33.71,30.74 A 0.45,0.45 0 0,0 33.43,30.31 A 0.89,0.89 0 0,0 33.1,30.26 H 32.54 V 30.31 H 32.59 C 32.65,30.31 32.69,30.33 32.73,30.36 C 32.75,30.39 32.76,30.46 32.76,30.56 V 31.69 C 32.76,31.79 32.75,31.85 32.73,31.88 C 32.71,31.93 32.66,31.95 32.59,31.95 H 32.54 V 32 H 33.2 V 31.95 H 33.14 C 33.08,31.95 33.04,31.93 33.01,31.9 C 32.99,31.87 32.98,31.8 32.98,31.7 Z M 33.08,31.13 L 32.98,31.11 V 30.39 A 0.6,0.6 0 0,1 33.12,30.36 A 0.3,0.3 0 0,1 33.3,30.41 A 0.3,0.3 0 0,1 33.41,30.56 C 33.44,30.62 33.45,30.69 33.45,30.76 A 0.4,0.4 0 0,1 33.37,31.03 A 0.26,0.26 0 0,1 33.17,31.13 A 0.6,0.6 0 0,1 33.08,31.13 Z M 35.79,30.22 C 35.99,30.22 36.17,30.31 36.31,30.48 C 36.46,30.65 36.53,30.86 36.53,31.12 S 36.46,31.56 36.31,31.74 A 0.68,0.68 0 0,1 35.77,32 A 0.68,0.68 0 0,1 35.24,31.74 A 0.88,0.88 0 0,1 35.02,31.12 C 35.02,30.85 35.1,30.62 35.27,30.45 A 0.7,0.7 0 0,1 35.79,30.22 Z M 35.77,30.32 A 0.4,0.4 0 0,0 35.44,30.49 C 35.34,30.63 35.28,30.84 35.28,31.12 A 1,1 0 0,0 35.44,31.73 C 35.53,31.85 35.64,31.91 35.77,31.91 C 35.92,31.91 36.04,31.84 36.13,31.71 C 36.23,31.59 36.27,31.43 36.27,31.15 C 36.27,30.85 36.22,30.63 36.12,30.49 A 0.4,0.4 0 0,0 35.77,30.31 Z M 38.93,32 H 39.34 V 31.95 A 0.44,0.44 0 0,1 39.14,31.88 A 0.86,0.86 0 0,1 38.94,31.65 L 38.64,31.15 A 0.5,0.5 0 0,0 38.92,30.99 C 38.98,30.91 39.02,30.81 39.02,30.71 C 39.02,30.61 38.98,30.52 38.92,30.45 A 0.4,0.4 0 0,0 38.73,30.3 C 38.65,30.27 38.53,30.26 38.37,30.26 H 37.81 V 30.31 H 37.86 C 37.92,30.31 37.96,30.33 38,30.36 C 38.02,30.39 38.03,30.46 38.03,30.56 V 31.69 C 38.03,31.79 38.02,31.85 38,31.88 C 37.98,31.93 37.93,31.95 37.86,31.95 H 37.81 V 32 H 38.47 V 31.95 H 38.41 C 38.35,31.95 38.31,31.93 38.28,31.9 C 38.26,31.87 38.25,31.8 38.25,31.7 V 31.19 H 38.41 L 38.93,31.99 Z M 38.28,31.1 H 38.25 V 30.38 A 0.9,0.9 0 0,1 38.42,30.36 C 38.52,30.36 38.6,30.39 38.66,30.46 S 38.76,30.62 38.76,30.72 C 38.76,30.84 38.72,30.92 38.64,31 C 38.57,31.07 38.46,31.1 38.31,31.1 H 38.28 Z M 41.53,31.42 H 40.93 L 40.83,31.69 A 0.48,0.48 0 0,0 40.79,31.84 C 40.79,31.87 40.8,31.89 40.82,31.91 C 40.85,31.93 40.89,31.95 40.97,31.95 V 32 H 40.48 V 31.95 C 40.55,31.94 40.58,31.92 40.61,31.9 A 0.81,0.81 0 0,0 40.74,31.65 L 41.28,30.22 H 41.32 L 41.86,31.67 C 41.9,31.78 41.94,31.86 41.97,31.89 C 42.01,31.93 42.06,31.95 42.12,31.95 V 32 H 41.52 V 31.95 C 41.57,31.95 41.62,31.94 41.64,31.92 A 0.1,0.1 0 0,0 41.67,31.85 C 41.67,31.81 41.66,31.75 41.62,31.67 L 41.53,31.42 Z M 41.5,31.32 L 41.24,30.62 L 40.97,31.32 H 41.5 Z M 44.4,30.67 L 44.38,30.26 H 43.12 L 43.1,30.66 H 43.15 C 43.15,30.59 43.17,30.53 43.2,30.48 A 0.22,0.22 0 0,1 43.3,30.38 A 0.46,0.46 0 0,1 43.45,30.37 H 43.64 V 31.7 C 43.64,31.8 43.63,31.86 43.61,31.89 C 43.59,31.93 43.54,31.95 43.47,31.95 H 43.42 V 32 H 44.07 V 31.95 H 44.02 C 43.96,31.95 43.92,31.93 43.89,31.9 C 43.87,31.87 43.86,31.8 43.86,31.7 V 30.37 H 44.07 C 44.14,30.37 44.19,30.38 44.23,30.4 C 44.27,30.43 44.3,30.46 44.33,30.51 L 44.36,30.67 H 44.4 Z M 46.32,31.95 V 32 H 45.66 V 31.95 H 45.71 C 45.78,31.95 45.82,31.93 45.85,31.89 C 45.87,31.86 45.88,31.79 45.88,31.69 V 30.57 L 45.87,30.39 A 0.11,0.11 0 0,0 45.82,30.34 A 0.2,0.2 0 0,0 45.72,30.31 H 45.66 V 30.26 H 46.32 V 30.31 H 46.27 C 46.2,30.31 46.16,30.33 46.13,30.37 C 46.11,30.4 46.1,30.47 46.1,30.57 V 31.69 L 46.11,31.87 L 46.16,31.92 A 0.2,0.2 0 0,0 46.26,31.95 H 46.32 Z M 48.89,30.48 A 0.66,0.66 0 0,0 48.37,30.22 A 0.7,0.7 0 0,0 47.85,30.45 A 0.94,0.94 0 0,0 47.6,31.12 C 47.6,31.39 47.67,31.57 47.82,31.74 C 47.96,31.91 48.14,32 48.36,32 C 48.56,32 48.74,31.91 48.89,31.74 A 0.88,0.88 0 0,0 49.12,31.12 A 0.95,0.95 0 0,0 48.89,30.48 Z M 48.02,30.48 A 0.4,0.4 0 0,1 48.35,30.31 A 0.4,0.4 0 0,1 48.7,30.49 C 48.8,30.63 48.85,30.86 48.85,31.15 C 48.85,31.43 48.81,31.59 48.71,31.72 C 48.61,31.84 48.5,31.91 48.35,31.91 A 0.38,0.38 0 0,1 48.03,31.73 A 1,1 0 0,1 47.86,31.12 C 47.86,30.84 47.92,30.63 48.02,30.49 Z M 50.32,30.26 H 50.74 L 51.68,31.56 V 30.56 C 51.68,30.46 51.67,30.39 51.65,30.36 C 51.62,30.33 51.58,30.31 51.52,30.31 H 51.46 V 30.26 H 52 V 30.31 H 51.95 C 51.88,30.31 51.83,30.33 51.81,30.37 C 51.79,30.4 51.78,30.47 51.78,30.57 V 32 H 51.74 L 50.72,30.63 V 31.7 C 50.72,31.8 50.73,31.87 50.75,31.9 C 50.78,31.93 50.83,31.95 50.89,31.95 H 50.94 V 32 H 50.4 V 31.95 H 50.46 C 50.52,31.95 50.57,31.93 50.6,31.89 L 50.62,31.69 V 30.49 A 0.73,0.73 0 0,0 50.52,30.37 A 0.35,0.35 0 0,0 50.42,30.32 A 0.32,0.32 0 0,0 50.32,30.31 V 30.26 Z M 52,29 H 4 V 29.5 H 52 V 29 Z" fill="rgb(254, 254, 253)"/>
</svg>
