<?xml version="1.0" encoding="UTF-8"?>
<!-- generated by Finnhub -->
<svg viewBox="0 0 55.5 55.5" xmlns="http://www.w3.org/2000/svg">
<path d="M 0,0 H 55.5 V 55.5 H 0 Z" fill="rgb(239, 242, 248)"/>
<path d="M 16.386,30.534 C 15.577,26.635 16.188,21.171 18.847,20.223 C 18.729,18.879 18.736,17.277 18.773,15.947 C 18.813,14.52 18.907,13.46 18.416,13.526 C 17.826,13.606 15.876,17.426 15.456,22.319 C 15.304,24.086 15.439,25.856 15.697,27.467 C 15.875,28.506 16.109,29.535 16.396,30.549 Z M 39.553,30.549 A 29.22,29.22 0 0,0 40.251,27.467 C 40.511,25.857 40.644,24.087 40.492,22.319 C 40.072,17.425 38.124,13.606 37.532,13.526 C 37.041,13.46 37.138,14.521 37.175,15.946 C 37.212,17.277 37.219,18.879 37.101,20.223 C 39.76,21.171 40.371,26.635 39.553,30.549 Z" fill="rgb(160, 38, 41)"/>
<path d="M 22.651999999999997,22.875 C 24.209,26.492 25.139,30.399 25.376,31.277 C 25.645,30.914 26.695,29.982 27.974,29.982 C 29.256,29.982 30.284,30.914 30.552,31.278 C 30.792,30.399 31.721,26.492 33.267,22.89 C 33.195,22.214 32.823,20.215 32.661,19.493 C 32.359,18.139 30.949,12 27.975,12 C 25,12 23.569,18.139 23.267,19.493 C 23.107,20.216 22.733,22.214 22.662,22.89 Z" fill="rgb(198, 54, 46)"/>
<path d="M 21.97,21.715 C 22.486,18.792 22.99,17.043 23.618,15.423 C 22.433,15.62 21.072,18.311 20.645,20.373 C 21.313,20.797 21.946,21.683 21.98,21.731 Z M 35.292,20.373 C 34.866,18.311 33.504,15.619 32.32,15.423 C 32.948,17.043 33.449,18.791 33.957,21.731 C 33.99,21.681 34.622,20.798 35.292,20.373 Z" fill="rgb(160, 38, 41)"/>
<path d="M 32.018,42.707 C 35.281,42.497 37.641,41.132 38.153,40.696 C 38.67,40.256 38.984,39.882 38.437,39.809 C 37.931,39.739 35.97,40.47 35.367,40.649 C 35.367,40.649 35.187,40.702 35.189,40.648 C 35.189,40.595 35.479,40.498 35.479,40.498 C 39.677,39.014 42.293,36.044 42.089,35.348 C 41.813,34.745 40.119,36.434 38.859,37.185 C 38.859,37.185 38.741,37.256 38.739,37.208 C 38.737,37.184 38.881,37.069 38.881,37.069 C 42.121,34.583 43.438,29.861 42.873,29.441 C 42.571,29.343 42.04,30.488 41.273,31.876 C 40.685,32.937 40.119,33.626 40.119,33.626 S 40.068,33.692 40.039,33.683 C 40.017,33.677 40.055,33.606 40.055,33.606 C 42.382,28.948 42.644,25.666 42.723,24.158 C 42.902,20.763 42.273,20.598 42.02,21.704 A 68.468,68.468 0 0,0 41.12,26.262 C 40.412,30.75 38.427,35.217 36.856,37.653 C 36.622,38.011 36.424,37.985 36.376,37.916 C 36.333,37.856 36.361,37.778 36.505,37.519 C 41.024,29.426 39.105,21.276 36.431,21.183 C 33.867,21.093 31.416,30.888 31.13,31.961 C 32.86,34.825 33.27,38.792 33.146,39.793 A 0.176,0.176 0 0,1 32.975,39.946 A 0.173,0.173 0 0,1 32.795,39.778 C 32.795,37.954 31.363,31 27.999,31 C 24.636,31 23.204,37.953 23.204,39.778 A 0.174,0.174 0 0,1 23.023,39.946 A 0.177,0.177 0 0,1 22.853,39.793 C 22.728,38.793 23.139,34.825 24.87,31.961 C 24.583,30.887 22.132,21.093 19.568,21.183 C 16.895,21.276 14.974,29.426 19.493,37.519 C 19.638,37.779 19.665,37.857 19.622,37.916 C 19.575,37.986 19.377,38.011 19.142,37.653 C 17.572,35.217 15.586,30.75 14.879,26.263 A 69.997,69.997 0 0,0 13.979,21.703 C 13.725,20.597 13.096,20.763 13.276,24.158 C 13.354,25.665 13.616,28.948 15.944,33.606 C 15.944,33.606 15.982,33.677 15.959,33.683 C 15.932,33.691 15.881,33.626 15.881,33.626 S 15.314,32.937 14.726,31.876 C 13.958,30.487 13.426,29.343 13.128,29.441 C 12.562,29.861 13.876,34.583 17.118,37.069 C 17.118,37.069 17.262,37.184 17.259,37.208 C 17.255,37.256 17.141,37.185 17.141,37.185 C 15.881,36.434 14.187,34.745 13.909,35.349 C 13.706,36.044 16.32,39.014 20.521,40.498 C 20.521,40.498 20.811,40.595 20.811,40.648 C 20.811,40.702 20.631,40.65 20.631,40.65 C 20.029,40.47 18.067,39.74 17.562,39.809 C 17.013,39.882 17.329,40.256 17.846,40.696 C 18.358,41.132 20.717,42.497 23.969,42.722 C 23.997,43.007 25.124,44 27.995,44 C 30.865,44 32.004,43.007 32.028,42.722 Z" fill="rgb(200, 93, 43)"/>
</svg>
