<?xml version="1.0" encoding="UTF-8"?>
<!-- generated by Finnhub -->
<svg viewBox="0 0 55.5 55.5" xmlns="http://www.w3.org/2000/svg">
<path d="M 0,0 H 55.5 V 55.5 H 0 Z" fill="rgb(239, 242, 248)"/>
<path d="M 26.99,27.985 V 24.14 C 27,23.94 27.05,23.74 27.1,23.56 C 27.2,23.28 27.43,23.12 27.72,23.04 C 28.24,22.91 28.66,23.07 28.91,23.55 L 29.77,26.77 C 29.78,26.81 29.79,26.85 29.82,26.87 C 29.86,26.91 29.92,26.93 29.95,26.92 C 29.98,26.92 30.01,26.86 30.02,26.82 C 30.04,26.78 30,26.72 30,26.68 V 23 H 31 V 26.85 C 31,27.01 30.97,27.17 30.93,27.34 C 30.83,27.72 30.53,27.95 30.13,27.99 C 29.64,28.04 29.27,27.86 29.06,27.41 L 28.21,24.21 C 28.19,24.17 28.18,24.13 28.15,24.11 C 27.99,24 28,24.19 28,24.31 V 28 H 27 Z M 38,28 V 24.14 C 38,23.94 38.05,23.74 38.1,23.56 C 38.2,23.28 38.43,23.12 38.72,23.04 C 39.24,22.91 39.66,23.07 39.91,23.55 L 40.77,26.77 C 40.78,26.81 40.79,26.85 40.82,26.87 C 40.86,26.91 40.92,26.93 40.95,26.92 C 40.98,26.92 41.01,26.86 41.02,26.82 C 41.04,26.78 41,26.72 41,26.68 V 23 H 42 V 26.85 C 42,27.01 41.97,27.17 41.93,27.34 C 41.83,27.72 41.53,27.95 41.13,27.99 C 40.64,28.04 40.27,27.86 40.06,27.41 L 39.21,24.21 C 39.19,24.17 39.18,24.13 39.15,24.11 C 38.99,24 39,24.19 39,24.31 V 28 H 38 Z M 21.98,24.73 H 21.08 C 21.05,24.73 21.02,24.7 21.01,24.68 C 20.78,24.16 20.28,24 19.81,24 C 18.92,24 18.38,24.73 18.41,25.57 C 18.45,26.42 19.01,26.97 19.78,27 C 20.08,27.01 20.36,27.03 20.62,26.87 C 20.8,26.77 20.95,26.63 21,26.39 C 21.03,26.22 21,26.18 20.84,26.18 H 19.75 L 19.69,26.17 V 25.3 H 21.5 C 21.83,25.3 21.98,25.47 21.99,25.82 C 21.99,26.4 21.87,26.93 21.49,27.35 C 21.19,27.69 20.79,27.87 20.37,27.95 C 19.69,28.07 19.04,27.99 18.46,27.56 A 2.36,2.36 0 0,1 17.5,25.71 C 17.46,25.11 17.57,24.53 17.88,24.03 C 18.28,23.41 18.82,23.09 19.49,23.03 A 2.2,2.2 0 0,1 21.31,23.56 C 21.63,23.84 21.84,24.2 21.95,24.64 L 21.97,24.74 Z M 15.98,26.13 L 17.1,28 L 16.97,28.01 H 16.12 C 16.05,28.01 16,27.99 15.96,27.91 L 15.08,26.39 C 15.04,26.33 15,26.3 14.92,26.3 H 13.97 V 28 H 13 V 23.9 C 13,23.35 13.34,23.01 13.84,23 C 14.38,23 15.09,23 15.64,23.02 C 16.29,23.05 16.81,23.56 16.96,24.27 C 17.1,25 16.82,25.64 16.2,26 L 15.98,26.13 Z M 13.99,25.33 L 14.05,25.35 H 15.49 C 15.69,25.35 15.86,25.25 15.96,25.05 A 0.8,0.8 0 0,0 15.98,24.31 C 15.88,24.08 15.68,24 15.45,24 H 14.19 C 14.04,24 13.99,24.02 13.99,24.2 V 25.34 Z M 12.6,28 H 11.63 C 11.51,27.62 11.38,27.38 11.24,27 H 9.31 C 9.19,27.38 9.06,27.62 8.93,28 H 8 C 8,27.97 8,27.94 8.02,27.9 L 9.5,23.6 C 9.72,22.97 10.2,22.91 10.65,23.08 C 10.88,23.17 11,23.38 11.09,23.63 C 11.49,24.75 11.87,25.88 12.26,27 L 12.57,27.91 C 12.59,27.94 12.59,27.96 12.59,28 Z M 10.9,26 S 10.53,24.7 10.34,24.14 C 10.34,24.11 10.3,24.08 10.28,24.05 C 10.2,24.11 9.68,25.79 9.65,26 H 10.91 Z M 47.6,28 H 46.63 C 46.51,27.62 46.38,27.38 46.24,27 H 44.31 C 44.19,27.38 44.06,27.62 43.93,28 H 43 C 43,27.97 43,27.94 43.02,27.9 L 44.5,23.6 C 44.72,22.97 45.2,22.91 45.65,23.08 C 45.88,23.17 46,23.38 46.09,23.63 C 46.49,24.75 46.87,25.88 47.26,27 L 47.57,27.91 C 47.59,27.94 47.59,27.96 47.59,28 Z M 45.9,26 S 45.53,24.7 45.34,24.14 C 45.34,24.11 45.3,24.08 45.28,24.05 C 45.2,24.11 44.68,25.79 44.65,26 H 45.91 Z M 35.5,23 V 24 H 34 V 28 H 33 V 24 H 31.5 V 23 H 35.5 Z M 37,28 H 36 V 23 H 37 V 28 Z" fill="rgb(1, 153, 235)"/>
<path d="M 48.99,20.985 H 7 V 20.69 C 7,20.31 7.27,20 7.59,20 H 48.4 C 48.72,20 48.98,20.31 48.98,20.69 V 21 H 49 Z M 7,21 V 23 H 7.32 C 7.7,23 8,22.76 8,22.48 V 21 H 7 Z M 49,21 V 23 H 48.68 C 48.3,23 48,22.76 48,22.48 V 21 H 49 Z M 49,35 V 34 H 48.68 C 48.3,34 48,34.18 48,34.4 V 35 H 49 Z M 7,35 V 34 H 7.32 C 7.7,34 8,34.18 8,34.4 V 35 H 7 Z M 7,35 H 49 V 35.32 C 49,35.7 48.73,36 48.41,36 H 7.6 C 7.27,36 7.01,35.69 7.01,35.32 V 35 Z" fill="rgb(42, 46, 54)"/>
<path d="M 23.99,31.634999999999998 V 32.96 C 24,32.99 23.99,33 23.96,33 H 23.76 C 23.72,33 23.71,32.98 23.71,32.95 V 30.45 C 23.71,30.41 23.69,30.38 23.65,30.37 C 23.61,30.36 23.58,30.38 23.57,30.42 L 23.52,30.52 L 22.82,32.06 V 32.09 C 22.75,32.23 22.66,32.32 22.5,32.32 S 22.25,32.22 22.19,32.08 L 21.92,31.49 L 21.45,30.46 L 21.42,30.4 C 21.4,30.38 21.37,30.37 21.35,30.37 C 21.33,30.37 21.31,30.4 21.3,30.42 V 32.86 C 21.3,33.02 21.3,33 21.17,33 C 21,33 21,33 21,32.82 V 30.34 C 21.02,30.2 21.07,30.08 21.2,30.04 C 21.34,29.98 21.48,29.99 21.59,30.11 L 21.69,30.28 L 22.39,31.84 L 22.44,31.94 C 22.48,32 22.52,32 22.55,31.94 L 22.59,31.87 L 23.29,30.31 L 23.36,30.19 C 23.46,29.99 23.67,29.98 23.81,30.04 C 23.93,30.09 23.98,30.2 23.99,30.34 V 30.49 L 24,31.65 Z M 36.33,31.34 V 32.52 C 36.33,32.58 36.33,32.66 36.3,32.73 C 36.2,33.03 35.8,33.08 35.61,32.87 L 35.47,32.67 L 34.29,30.5 A 0.49,0.49 0 0,0 34.2,30.37 C 34.14,30.31 34.05,30.34 34.04,30.42 C 34.04,30.46 34,30.5 34,30.54 V 32.84 C 34,32.99 34.04,33 33.9,33 H 33.71 L 33.7,32.78 V 30.5 C 33.7,30.43 33.7,30.36 33.73,30.29 A 0.38,0.38 0 0,1 34.03,30.01 C 34.2,29.98 34.34,30.01 34.44,30.15 A 1,1 0 0,1 34.56,30.32 C 34.95,31.04 35.33,31.75 35.73,32.46 L 35.81,32.6 C 35.85,32.65 35.89,32.67 35.93,32.65 C 35.98,32.63 35.99,32.59 35.99,32.55 L 36,32.43 V 30.14 C 36,30.01 35.98,29.99 36.12,30 H 36.32 V 30.22 L 36.33,31.34 Z M 44.62,31.5 H 45.2 C 45.35,31.5 45.43,31.57 45.43,31.73 C 45.44,32.23 45.23,32.64 44.75,32.85 C 44.26,33.07 43.76,33.05 43.28,32.79 A 1.3,1.3 0 0,1 42.68,32.04 C 42.54,31.65 42.55,31.27 42.7,30.89 C 42.9,30.39 43.26,30.12 43.77,30.03 C 44.12,29.96 44.47,30.01 44.79,30.18 C 45.09,30.34 45.29,30.58 45.4,30.89 C 45.43,30.96 45.42,30.96 45.35,30.97 H 45.17 C 45.11,30.97 45.08,30.95 45.05,30.9 A 0.93,0.93 0 0,0 44.48,30.38 C 44.01,30.23 43.58,30.3 43.23,30.65 C 43.05,30.83 42.96,31.05 42.93,31.3 C 42.89,31.57 42.93,31.83 43.04,32.08 C 43.19,32.36 43.41,32.54 43.7,32.63 C 44.05,32.73 44.38,32.71 44.7,32.53 C 44.91,32.43 45.05,32.24 45.1,31.99 C 45.12,31.82 45.1,31.79 44.93,31.79 H 44.03 C 43.94,31.79 43.94,31.79 43.94,31.7 L 43.95,31.52 L 44.13,31.51 H 44.63 Z M 41.5,31.86 C 41.75,32.24 42.01,32.61 42.28,32.99 H 41.93 C 41.9,32.99 41.87,32.95 41.85,32.92 L 41.35,32.19 C 41.29,32.11 41.23,32.04 41.18,31.95 A 0.12,0.12 0 0,0 41.07,31.88 H 40.4 C 40.33,31.88 40.33,31.88 40.33,31.98 V 32.85 C 40.33,33.01 40.34,33 40.19,32.99 L 40.01,32.98 L 40,32.8 V 30.45 C 40,30.39 40,30.33 40.02,30.27 A 0.34,0.34 0 0,1 40.36,30.01 C 40.68,30 41.01,29.99 41.34,30.01 A 0.9,0.9 0 0,1 42.23,30.85 C 42.23,30.95 42.23,31.05 42.21,31.15 A 0.87,0.87 0 0,1 41.63,31.81 L 41.56,31.84 L 41.49,31.86 Z M 40.32,30.98 V 31.48 C 40.32,31.58 40.32,31.58 40.4,31.58 L 41.3,31.57 C 41.37,31.57 41.45,31.55 41.53,31.52 C 41.76,31.42 41.9,31.25 41.91,30.99 C 41.93,30.73 41.84,30.53 41.61,30.39 A 0.68,0.68 0 0,0 41.27,30.31 H 40.47 C 40.36,30.31 40.33,30.34 40.32,30.48 V 30.98 Z M 31,31.5 V 30.45 C 31,30.39 31,30.34 31.02,30.29 A 0.35,0.35 0 0,1 31.34,30 H 32.9 C 32.97,30 32.98,30 32.98,30.08 V 30.26 C 32.98,30.3 32.96,30.32 32.92,30.32 H 31.5 C 31.36,30.32 31.34,30.35 31.34,30.49 V 31.22 C 31.34,31.32 31.34,31.32 31.44,31.32 H 32.78 C 32.91,31.32 32.91,31.32 32.91,31.44 C 32.91,31.65 32.93,31.62 32.73,31.62 H 31.4 C 31.36,31.62 31.33,31.64 31.34,31.69 V 32.6 C 31.35,32.65 31.38,32.68 31.44,32.68 L 31.54,32.69 H 32.94 C 32.98,32.69 33,32.71 33,32.75 V 32.77 L 32.98,32.99 L 32.78,33 H 31.45 C 31.17,33 31,32.86 31.01,32.55 L 31,31.5 Z M 45.6,30 H 45.9 C 45.95,30 45.97,30.04 45.99,30.08 L 46.49,31.05 L 46.73,31.49 L 46.76,31.55 C 46.79,31.59 46.82,31.59 46.86,31.55 L 46.9,31.47 L 47.61,30.09 C 47.64,30.02 47.69,29.99 47.75,30 H 48 L 47.97,30.08 L 47.11,31.72 C 47.08,31.76 47.06,31.81 47.01,31.84 C 46.98,31.88 46.97,31.93 46.97,31.98 V 32.96 C 46.97,32.99 46.95,33 46.92,33 H 46.69 C 46.66,33 46.65,32.98 46.65,32.95 V 32 C 46.65,31.94 46.64,31.9 46.59,31.85 A 0.4,0.4 0 0,1 46.49,31.73 L 45.62,30.06 L 45.59,30.01 Z M 12.31,31.66 V 32.96 C 12.31,32.98 12.28,33 12.27,33 H 12.04 C 12.01,33 12,32.98 12,32.95 V 30.4 C 12,30.3 12,30.3 11.9,30.3 H 11 C 10.97,30.3 10.96,30.28 10.96,30.26 V 30.03 C 10.96,30 10.97,29.99 11,29.99 H 13.3 C 13.37,29.99 13.37,29.99 13.37,30.07 V 30.2 C 13.37,30.3 13.37,30.3 13.27,30.3 H 12.51 L 12.34,30.32 L 12.33,30.5 V 31.65 Z M 14,31.49 V 30.1 C 14,30 14,30 14.09,30 H 14.24 C 14.29,30 14.31,30.02 14.31,30.07 V 31.18 C 14.31,31.27 14.31,31.27 14.39,31.27 H 15.92 C 16.01,31.27 16,31.27 16,31.17 V 30.13 C 16,29.99 16,30 16.13,30 L 16.29,30.01 L 16.31,30.21 V 32.86 C 16.31,33.01 16.31,33 16.18,33 H 16.02 L 16,32.8 V 31.64 C 16,31.6 16,31.58 15.96,31.58 H 14.36 C 14.33,31.58 14.31,31.6 14.31,31.63 V 32.95 C 14.31,32.98 14.3,33 14.26,33 H 14.06 C 14.02,33 14.01,32.98 14.01,32.94 V 32.86 L 14,31.5 Z M 37,31.5 V 30.45 C 37,30.4 37,30.35 37.02,30.3 A 0.35,0.35 0 0,1 37.37,30 H 38.93 C 38.97,30 38.98,30.02 38.98,30.06 V 30.08 C 38.98,30.38 39.03,30.31 38.76,30.32 H 37.54 C 37.35,30.32 37.34,30.33 37.34,30.53 V 31.21 C 37.34,31.32 37.33,31.31 37.44,31.31 H 38.83 C 38.91,31.31 38.91,31.32 38.91,31.41 V 31.57 C 38.91,31.61 38.89,31.63 38.86,31.63 H 37.4 C 37.35,31.63 37.34,31.65 37.34,31.69 V 32.57 C 37.34,32.65 37.37,32.69 37.46,32.69 H 38.94 C 38.98,32.69 39,32.72 39,32.75 V 32.78 L 38.99,32.98 L 38.79,33 H 37.44 C 37.13,33 36.99,32.82 37,32.55 V 31.5 Z M 20,31.01 V 30.14 L 20.02,30.06 C 20.02,30.03 20.03,30 20.06,30 H 20.3 C 20.32,30 20.33,30.03 20.34,30.05 V 31.81 C 20.34,32.05 20.29,32.28 20.15,32.49 C 19.95,32.78 19.69,32.94 19.35,32.99 C 19.05,33.02 18.77,32.99 18.52,32.82 A 1.1,1.1 0 0,1 18.02,31.96 C 18,31.86 18,31.76 18,31.66 V 30.13 C 18,30 17.99,30 18.12,30 L 18.31,30.02 L 18.32,30.2 V 31.78 C 18.32,31.91 18.34,32.03 18.38,32.15 C 18.5,32.47 18.74,32.65 19.06,32.69 C 19.37,32.73 19.73,32.61 19.92,32.27 A 0.83,0.83 0 0,0 20,31.87 V 31 Z M 8,31.34 V 30.06 C 8,30.02 8.02,30 8.06,30 H 8.27 C 8.31,30 8.33,30.02 8.33,30.05 V 32.48 C 8.33,32.67 8.35,32.69 8.53,32.69 H 9.75 C 9.78,32.69 9.8,32.71 9.8,32.74 V 32.95 C 9.8,32.99 9.78,33 9.75,33 H 8.4 C 8.15,33 8.01,32.85 8.01,32.59 L 8,31.34 Z M 10,31.5 V 30.06 C 10,30.02 10.02,30 10.06,30 H 10.27 C 10.31,30 10.33,30.02 10.33,30.05 V 32.91 C 10.33,33 10.33,33 10.24,33 H 10.04 C 10.02,33 10,32.98 10,32.95 V 31.5 Z M 17.32,31.51 V 32.96 C 17.32,32.98 17.31,33 17.27,33 H 17.05 C 17.01,33 17,32.98 17,32.95 V 30.08 C 17,30.01 17,30 17.07,30 H 17.25 C 17.32,30 17.32,30 17.32,30.07 V 31.51 Z" fill="rgb(254, 48, 72)"/>
<path d="M 14.99,18.985 H 11 V 18.68 C 11,18.31 11.27,18 11.6,18 H 14.4 C 14.73,18 15,18.31 15,18.68 V 19 Z M 45,19 H 41 V 18.68 C 41,18.3 41.28,18 41.6,18 H 44.39 C 44.72,18 44.99,18.31 44.99,18.68 V 19 H 45 Z" fill="rgb(42, 46, 54)"/>
<path d="M 25.99,22.985 H 23 V 24 H 26 V 23 Z M 26,27 H 23 V 28 H 26 V 27 Z M 26,25 H 23 V 26 H 26 V 25 Z" fill="rgb(1, 153, 235)"/>
<path d="M 29.029999999999998,31.305 H 29.54 C 29.62,31.32 29.62,31.32 29.62,31.4 L 29.6,31.61 L 29.4,31.62 H 29.24 C 29.2,31.62 29.19,31.64 29.19,31.68 V 32.52 L 29.18,32.66 C 29.14,32.86 28.99,32.99 28.78,33 H 27.8 A 0.84,0.84 0 0,1 27.38,32.88 A 0.76,0.76 0 0,1 27.01,32.08 A 0.74,0.74 0 0,1 27.4,31.52 L 27.46,31.49 V 31.45 L 27.35,31.39 A 0.67,0.67 0 0,1 27.05,30.84 A 0.74,0.74 0 0,1 27.63,30.04 C 27.9,29.97 28.17,29.99 28.42,30.13 A 0.8,0.8 0 0,1 28.82,30.78 C 28.82,30.84 28.82,30.85 28.75,30.85 H 28.55 C 28.52,30.85 28.5,30.84 28.49,30.79 A 0.59,0.59 0 0,0 28.46,30.66 A 0.5,0.5 0 0,0 28.17,30.36 A 0.67,0.67 0 0,0 27.63,30.36 C 27.27,30.51 27.3,31 27.53,31.18 C 27.64,31.26 27.77,31.3 27.91,31.31 H 28.11 C 28.14,31.31 28.16,31.33 28.16,31.37 V 31.57 C 28.16,31.61 28.14,31.62 28.1,31.62 C 28,31.62 27.88,31.62 27.78,31.64 C 27.58,31.68 27.42,31.78 27.35,31.99 C 27.25,32.31 27.37,32.59 27.7,32.67 L 27.9,32.69 H 28.67 C 28.82,32.69 28.87,32.64 28.88,32.47 V 31.75 C 28.88,31.65 28.86,31.63 28.76,31.63 H 28.51 C 28.46,31.63 28.44,31.61 28.44,31.56 V 31.39 C 28.44,31.33 28.47,31.32 28.52,31.32 H 29.04 Z" fill="rgb(254, 48, 72)"/>
</svg>
