<?xml version="1.0" encoding="UTF-8"?>
<!-- generated by Finnhub -->
<svg viewBox="0 0 55.5 55.5" xmlns="http://www.w3.org/2000/svg">
<path d="M 0,0 H 55.5 V 55.5 H 0 Z" fill="rgb(239, 242, 248)"/>
<path d="M 42.96,34.845 C 42.72,34.79 42.57,34.7 42.52,34.59 A 27.25,27.25 0 0,0 27.2,20.86 A 0.78,0.78 0 0,1 27.03,20.75 C 26.93,20.67 26.85,20.63 26.81,20.65 C 26.74,20.65 26.69,20.69 26.65,20.76 C 26.65,20.3 26.65,19.84 26.62,19.38 C 26.59,19 26.46,18.75 26.22,18.63 A 2.5,2.5 0 0,0 25.32,18.51 H 25.13 C 24.87,18.5 24.39,18.51 23.69,18.53 C 23,18.56 22.68,18.92 22.73,19.6 C 21.87,19.5 21.03,19.39 20.18,19.27 C 19.23,19.14 17.32,19.1 14.43,19.15 C 14.73,18.91 15.05,18.69 15.39,18.5 L 26.55,12.39 A 2.74,2.74 0 0,1 28.45,12.05 C 28.88,12.14 29.51,12.41 30.35,12.88 C 34.33,15.07 37.83,16.98 40.85,18.6 C 41.62,19 42.15,19.39 42.45,19.75 C 42.82,20.21 43.01,20.79 43,21.51 V 34.21 C 43,34.45 42.99,34.67 42.97,34.86 Z" fill="rgb(195, 153, 102)"/>
<path d="M 14.42,19.134999999999998 C 17.32,19.1 19.23,19.14 20.18,19.27 C 21.02,19.39 21.88,19.5 22.73,19.6 V 29.81 A 30.34,30.34 0 0,0 13,27.83 V 22.03 C 13,21.24 13.08,20.67 13.22,20.33 C 13.46,19.73 13.86,19.33 14.42,19.15 Z M 25.4,31.19 L 25.36,31.03 C 25.34,30.96 25.3,30.95 25.24,31 C 25.2,31.03 25.16,31.04 25.12,31.02 L 24.96,30.96 C 24.66,30.7 24.36,30.54 24,30.47 V 19.77 C 24,19.73 23.99,19.71 24.03,19.71 H 25.35 C 25.38,19.71 25.4,19.73 25.4,19.76 V 31.2 Z M 42.97,34.86 C 42.87,35.81 42.39,36.52 41.51,37 L 35.55,40.28 L 33.53,37.55 C 33.9,37.53 34.17,37.44 34.33,37.27 C 34.51,37.09 34.6,36.82 34.61,36.44 C 34.62,35.74 34.61,35.27 34.6,35.01 C 34.56,34.43 34.22,34.14 33.6,34.14 L 29.5,34.12 C 29.64,33.87 29.42,33.57 28.85,33.24 C 28.43,32.99 27.89,32.64 27.23,32.18 A 0.76,0.76 0 0,1 27,31.93 A 0.19,0.19 0 0,0 26.85,31.83 C 26.79,31.83 26.72,31.84 26.65,31.87 V 20.77 C 26.69,20.69 26.75,20.65 26.81,20.64 C 26.85,20.64 26.92,20.67 27.03,20.74 C 27.1,20.81 27.16,20.84 27.2,20.86 C 34.09,23.42 39.2,28 42.52,34.59 C 42.57,34.7 42.72,34.79 42.97,34.86 Z" fill="rgb(155, 124, 79)"/>
<path d="M 22.709999999999997,29.794999999999998 V 37.41 C 22.72,37.5 22.76,37.54 22.84,37.54 H 23.83 C 23.93,37.54 24,37.49 24,37.39 V 30.47 C 24.36,30.54 24.66,30.7 24.96,30.97 L 25.12,31.02 C 25.16,31.04 25.2,31.03 25.24,31 C 25.3,30.95 25.34,30.96 25.36,31.03 L 25.4,31.19 L 25.39,36.44 C 25.39,37.19 25.76,37.56 26.51,37.55 C 28.91,37.53 31.24,37.53 33.53,37.55 L 35.55,40.28 A 723.12,723.12 0 0,0 29.63,43.53 C 28.9,43.94 28.23,44.08 27.58,43.96 A 8.42,8.42 0 0,1 25.31,42.92 L 14.51,37.03 A 2.7,2.7 0 0,1 13.21,35.59 C 13.07,35.25 13.01,34.59 13.01,33.61 V 27.83 C 16.31,27.95 19.56,28.61 22.72,29.81 Z" fill="rgb(114, 87, 39)"/>
<path d="M 29.49,34.105 L 27.91,34.11 C 27.81,34.11 27.74,34.16 27.74,34.28 V 35.18 C 27.74,35.29 27.8,35.35 27.9,35.35 H 33.21 C 33.29,35.35 33.33,35.38 33.33,35.45 V 36.23 C 33.33,36.3 33.29,36.34 33.21,36.34 H 26.74 C 26.69,36.34 26.66,36.31 26.66,36.26 V 31.86 A 0.45,0.45 0 0,1 26.86,31.84 C 26.92,31.84 26.96,31.87 27,31.94 C 27.06,32.03 27.14,32.11 27.23,32.18 C 27.89,32.64 28.43,32.98 28.85,33.24 C 29.42,33.57 29.65,33.87 29.51,34.12 Z" fill="rgb(114, 87, 39)"/>
</svg>
