<?xml version="1.0" encoding="UTF-8"?>
<!-- generated by Finnhub -->
<svg viewBox="0 0 55.5 55.5" xmlns="http://www.w3.org/2000/svg">
<path d="M 0,0 H 55.5 V 55.5 H 0 Z" fill="rgb(239, 242, 248)"/>
<path d="M 14.99,12.985 H 41 V 43 H 15 V 13 Z M 28,24.695 L 28.003,24.699 H 28 C 25.76,24.699 24,26.424 24,28.553 C 24,30.681 25.76,32.406 28,32.406 S 32,30.681 32,28.553 C 32,28.123 31.928,27.709 31.795,27.323 C 33.688,27.695 34.532,28.279 35.25,28.933 C 34.185,31.263 31.492,33 28,33 C 24.713,33 22.098,31.696 20.5,28.933 C 21.722,25.974 24.742,24 28.43,24 C 31.137,24 34.136,24.799 36.594,26.531 C 36.899,25.571 37,24.6 37,24.6 S 33.415,22 28.43,22 C 22.651,22 19,25.566 18,28.766 C 19.166,31.889 22.75,35 28,35 C 33.236,35 36.806,31.902 38,28.766 C 35.781,26.25 32.156,24.696 28,24.696 Z M 28,30.491 C 29.078,30.491 30,29.605 30,28.541 C 30,27.476 29.078,26.614 28,26.614 C 26.922,26.614 26,27.476 26,28.541 C 26,29.605 26.922,30.491 28,30.491 Z" clip-rule="evenodd" fill="rgb(41, 108, 176)" fill-rule="evenodd"/>
</svg>
