<?xml version="1.0" encoding="UTF-8"?>
<!-- generated by Finnhub -->
<svg viewBox="0 0 55.5 55.5" xmlns="http://www.w3.org/2000/svg">
<path d="M 0,0 H 55.5 V 55.5 H 0 Z" fill="rgb(239, 242, 248)"/>
<path d="M 28.549999999999997,44.985 A 1.43,1.43 0 0,1 27.51,44.56 A 1.48,1.48 0 0,1 27.09,43.49 C 27.09,43.09 27.26,42.71 27.54,42.43 S 28.2,41.99 28.59,41.99 C 28.99,41.99 29.36,42.16 29.63,42.44 A 1.52,1.52 0 0,1 29.61,44.57 C 29.33,44.85 28.95,45 28.56,45 Z M 45,27.01 C 45,27.41 44.84,27.8 44.56,28.08 S 43.9,28.52 43.51,28.51 A 1.5,1.5 0 0,1 42.47,28.05 A 1.55,1.55 0 0,1 42.04,26.98 C 42.05,26.58 42.21,26.2 42.49,25.92 A 1.5,1.5 0 0,1 43.54,25.47 C 43.94,25.48 44.31,25.65 44.58,25.94 S 45,26.61 45,27.01 Z M 40.3,35.08 A 1.53,1.53 0 0,1 40.7,34 A 1.48,1.48 0 0,1 41.74,33.54 A 1.46,1.46 0 0,1 42.8,33.97 A 1.5,1.5 0 0,1 43.25,35.03 A 1.53,1.53 0 0,1 42.84,36.11 A 1.48,1.48 0 0,1 41.79,36.58 A 1.46,1.46 0 0,1 40.73,36.15 A 1.5,1.5 0 0,1 40.29,35.08 Z" fill="rgb(48, 90, 128)"/>
<path d="M 15.790000000000001,35.795 C 15.84,36.71 15.01,37.33 14.31,37.31 A 1.5,1.5 0 0,1 13.27,36.85 A 1.55,1.55 0 0,1 12.84,35.78 C 12.85,35.38 13.02,35 13.3,34.73 C 13.58,34.45 13.95,34.29 14.34,34.28 C 15.23,34.31 15.86,35.08 15.79,35.81 Z" fill="rgb(80, 174, 69)"/>
<path d="M 36.84,13.684999999999999 C 36.85,14.1 36.69,14.48 36.41,14.76 A 1.47,1.47 0 0,1 34.31,14.75 A 1.52,1.52 0 0,1 34.81,12.29 A 1.46,1.46 0 0,1 36.42,12.63 A 1.5,1.5 0 0,1 36.85,13.7 Z" fill="rgb(48, 90, 128)"/>
<path d="M 20.61,15.865 C 19.92,15.95 19.14,15.31 19.14,14.39 A 1.53,1.53 0 0,1 19.57,13.32 A 1.48,1.48 0 0,1 21.18,12.98 A 1.48,1.48 0 0,1 21.98,13.8 C 22.06,13.99 22.1,14.18 22.1,14.38 C 22.12,15.1 21.49,15.94 20.62,15.88 Z" fill="rgb(80, 174, 69)"/>
<path d="M 42.59,19.185 C 42.6,19.6 42.44,19.98 42.17,20.26 C 41.89,20.55 41.52,20.71 41.12,20.72 C 40.73,20.71 40.36,20.55 40.08,20.26 A 1.56,1.56 0 0,1 39.64,19.2 C 39.64,18.8 39.8,18.42 40.08,18.14 C 40.35,17.86 40.73,17.7 41.12,17.69 C 41.92,17.69 42.65,18.41 42.6,19.19 Z" fill="rgb(48, 90, 128)"/>
<path d="M 12.47,29.314999999999998 C 11.65,29.39 10.98,28.61 11,27.83 C 11,27.43 11.16,27.05 11.44,26.77 A 1.5,1.5 0 0,1 12.48,26.32 C 13.4,26.32 13.98,27.2 13.97,27.84 C 13.96,28.5 13.39,29.38 12.47,29.33 Z M 14.77,21.51 C 14.38,21.51 14.01,21.35 13.73,21.06 A 1.52,1.52 0 0,1 13.73,18.93 A 1.47,1.47 0 0,1 15.83,18.94 A 1.52,1.52 0 0,1 15.82,21.07 C 15.54,21.35 15.17,21.51 14.77,21.51 Z M 26.97,12.51 A 1.44,1.44 0 0,1 28.44,11 A 1.44,1.44 0 0,1 29.49,11.44 A 1.5,1.5 0 0,1 29.92,12.52 C 29.92,12.92 29.76,13.29 29.49,13.57 A 1.47,1.47 0 0,1 26.97,12.51 Z" fill="rgb(80, 174, 69)"/>
<path d="M 36.190000000000005,42.455 C 35.82,42.47 35.45,42.31 35.17,42.03 A 1.52,1.52 0 0,1 35.17,39.91 C 35.44,39.63 35.81,39.46 36.2,39.46 C 36.6,39.46 36.97,39.62 37.25,39.9 C 37.54,40.18 37.7,40.57 37.7,40.97 S 37.54,41.75 37.26,42.03 C 36.98,42.32 36.6,42.47 36.21,42.47 Z" fill="rgb(48, 90, 128)"/>
<path d="M 19.84,43.235 A 1.46,1.46 0 0,1 18.8,42.81 A 1.5,1.5 0 0,1 18.37,41.74 A 1.53,1.53 0 0,1 18.8,40.68 A 1.48,1.48 0 0,1 19.85,40.24 C 20.25,40.24 20.62,40.41 20.89,40.7 C 21.17,40.98 21.33,41.37 21.33,41.77 C 21.35,42.49 20.61,43.3 19.85,43.25 Z" fill="rgb(80, 174, 69)"/>
<path d="M 25.49,42.655 C 24.87,42.72 24.23,42.15 24.22,41.38 A 1.32,1.32 0 0,1 24.6,40.45 A 1.28,1.28 0 0,1 26,40.17 A 1.28,1.28 0 0,1 26.69,40.89 A 1.3,1.3 0 0,1 26.41,42.31 A 1.25,1.25 0 0,1 25.5,42.67 Z M 42.89,30.27 A 1.3,1.3 0 0,1 42.5,31.19 A 1.26,1.26 0 0,1 41.6,31.54 A 1.3,1.3 0 0,1 40.7,31.13 A 1.35,1.35 0 0,1 40.34,30.2 C 40.36,29.86 40.5,29.54 40.74,29.3 A 1.28,1.28 0 0,1 42.14,29.05 A 1.26,1.26 0 0,1 42.81,29.77 C 42.87,29.93 42.9,30.1 42.89,30.27 Z" fill="rgb(48, 90, 128)"/>
<path d="M 18.27,20.125 A 1.27,1.27 0 0,1 17.39,19.74 A 1.31,1.31 0 0,1 17.41,17.92 C 17.65,17.68 17.97,17.54 18.31,17.54 C 18.98,17.54 19.61,18.15 19.59,18.84 C 19.57,19.55 18.99,20.18 18.28,20.14 Z" fill="rgb(80, 174, 69)"/>
<path d="M 32.49,42.175 A 1.23,1.23 0 0,1 31.6,41.81 A 1.28,1.28 0 0,1 31.23,40.89 A 1.32,1.32 0 0,1 31.61,39.97 A 1.28,1.28 0 0,1 33.01,39.7 A 1.28,1.28 0 0,1 33.69,40.42 A 1.32,1.32 0 0,1 33.4,41.82 A 1.25,1.25 0 0,1 32.5,42.19 Z" fill="rgb(48, 90, 128)"/>
<path d="M 32.440000000000005,15.024999999999999 C 32.48,15.76 31.87,16.33 31.19,16.34 A 1.3,1.3 0 0,1 30.29,15.96 A 1.35,1.35 0 0,1 29.89,15.06 C 29.89,14.71 30.03,14.38 30.27,14.14 C 30.5,13.9 30.82,13.75 31.15,13.74 A 1.23,1.23 0 0,1 32.08,14.1 A 1.28,1.28 0 0,1 32.45,15.04 Z M 19.98,38.16 A 1.32,1.32 0 0,1 19.18,39.36 A 1.26,1.26 0 0,1 17.78,39.06 A 1.31,1.31 0 0,1 18.72,36.85 C 19.06,36.85 19.38,37 19.62,37.25 C 19.85,37.49 19.98,37.82 19.98,38.16 Z M 14.96,23.75 A 1.23,1.23 0 0,1 15.86,24.12 A 1.27,1.27 0 0,1 16.24,25.03 A 1.31,1.31 0 0,1 14.97,26.35 A 1.31,1.31 0 0,1 14.07,25.96 A 1.36,1.36 0 0,1 13.69,25.05 A 1.3,1.3 0 0,1 14.05,24.13 A 1.25,1.25 0 0,1 14.95,23.75 Z" fill="rgb(80, 174, 69)"/>
<path d="M 38.38,17.005 A 1.3,1.3 0 0,1 38.02,17.94 A 1.25,1.25 0 0,1 36.62,18.21 A 1.27,1.27 0 0,1 35.93,17.51 A 1.32,1.32 0 0,1 36.63,15.81 A 1.26,1.26 0 0,1 38.38,17.02 Z M 38.5,35.55 C 39.18,35.53 39.74,36.03 39.79,36.84 C 39.82,37.5 39.16,38.16 38.5,38.14 A 1.3,1.3 0 0,1 37.6,37.74 A 1.36,1.36 0 0,1 37.22,36.83 C 37.22,36.15 37.83,35.5 38.51,35.55 Z" fill="rgb(48, 90, 128)"/>
<path d="M 22.959999999999997,15.174999999999999 A 1.32,1.32 0 0,1 23.33,14.26 A 1.28,1.28 0 0,1 24.73,13.96 A 1.28,1.28 0 0,1 25.43,14.66 A 1.32,1.32 0 0,1 25.16,16.08 A 1.27,1.27 0 0,1 23.36,16.1 A 1.31,1.31 0 0,1 22.97,15.19 Z M 13.86,32.09 C 13.8,31.35 14.45,30.8 15.12,30.79 A 1.26,1.26 0 0,1 16.32,31.59 A 1.32,1.32 0 0,1 16.04,33.02 A 1.27,1.27 0 0,1 14.64,33.3 A 1.28,1.28 0 0,1 13.86,32.09 Z" fill="rgb(80, 174, 69)"/>
<path d="M 41.050000000000004,24.245 C 40.5,24.32 39.79,23.8 39.78,22.97 C 39.78,22.63 39.92,22.3 40.15,22.05 C 40.39,21.81 40.71,21.66 41.05,21.65 C 41.73,21.65 42.3,22.25 42.32,22.96 C 42.34,23.66 41.72,24.31 41.06,24.26 Z M 28.53,39.6 A 1.08,1.08 0 0,1 28.82,38.82 A 1.05,1.05 0 0,1 29.56,38.49 C 29.84,38.49 30.12,38.59 30.33,38.79 C 30.54,38.99 30.67,39.27 30.68,39.56 A 1.12,1.12 0 0,1 29.64,40.68 A 1.07,1.07 0 0,1 28.62,40.02 A 1.12,1.12 0 0,1 28.53,39.59 Z" fill="rgb(48, 90, 128)"/>
<path d="M 26.509999999999998,15.985 C 27.3,15.93 27.82,16.26 27.92,16.9 A 1.16,1.16 0 0,1 27.66,17.77 A 1.12,1.12 0 0,1 26.84,18.17 C 26.16,18 25.83,17.7 25.78,17.17 C 25.73,16.6 26.03,16.23 26.52,16 Z" fill="rgb(80, 174, 69)"/>
<path d="M 39.75,24.835 C 40.04,24.85 40.31,24.97 40.5,25.18 C 40.7,25.38 40.81,25.65 40.82,25.94 C 40.81,26.24 40.69,26.52 40.48,26.72 C 40.27,26.92 39.99,27.04 39.7,27.03 A 1.09,1.09 0 0,1 38.97,26.68 A 1.13,1.13 0 0,1 39,25.14 A 1.05,1.05 0 0,1 39.76,24.84 Z" fill="rgb(48, 90, 128)"/>
<path d="M 18.029999999999998,29.445 C 17.87,30.21 17.44,30.61 16.86,30.55 C 16.6,30.52 16.36,30.4 16.17,30.2 A 1.11,1.11 0 0,1 16.83,28.36 C 17.43,28.29 17.86,28.67 18.04,29.46 Z M 19,33.82 C 19.29,33.82 19.56,33.94 19.76,34.14 A 1.1,1.1 0 0,1 19.76,35.69 A 1.07,1.07 0 0,1 18,35.34 A 1.11,1.11 0 0,1 18.59,33.9 C 18.72,33.84 18.86,33.82 19.01,33.82 Z M 21.5,18.04 C 21.78,18.06 22.05,18.18 22.24,18.39 C 22.44,18.59 22.55,18.87 22.56,19.15 A 1.12,1.12 0 0,1 22.24,19.93 A 1.08,1.08 0 0,1 21.05,20.14 A 1.08,1.08 0 0,1 20.48,19.54 A 1.12,1.12 0 0,1 20.4,19.11 C 20.42,18.82 20.55,18.56 20.75,18.36 C 20.95,18.16 21.22,18.05 21.5,18.04 Z" fill="rgb(80, 174, 69)"/>
<path d="M 23.75,37.575 C 24.04,37.58 24.31,37.69 24.52,37.89 C 24.72,38.08 24.84,38.35 24.85,38.63 A 1.07,1.07 0 0,1 23.02,39.43 A 1.1,1.1 0 0,1 22.78,38.24 A 1.07,1.07 0 0,1 23.36,37.66 C 23.48,37.61 23.62,37.58 23.76,37.59 Z M 38.47,20.3 A 1.1,1.1 0 0,1 37.77,21.29 A 1.05,1.05 0 0,1 36.61,21.01 A 1.1,1.1 0 0,1 36.85,19.33 A 1.06,1.06 0 0,1 37.85,19.28 A 1.06,1.06 0 0,1 38.41,19.88 C 38.46,20.01 38.48,20.16 38.47,20.3 Z M 37.95,32.18 C 38.03,31.34 38.63,31 39.17,31.07 C 39.42,31.1 39.66,31.22 39.83,31.42 A 1.1,1.1 0 0,1 39.21,33.22 C 38.56,33.3 38.15,32.97 37.95,32.18 Z" fill="rgb(48, 90, 128)"/>
<path d="M 17.819999999999997,22.585 C 18.11,22.59 18.39,22.7 18.59,22.89 A 1.1,1.1 0 0,1 18.65,24.42 C 18.45,24.64 18.19,24.76 17.91,24.78 C 17.35,24.84 16.77,24.28 16.78,23.69 A 1.07,1.07 0 0,1 17.83,22.59 Z M 32.49,16.88 A 1.1,1.1 0 0,1 33.29,17.25 A 1.15,1.15 0 0,1 33.59,18.1 C 33.55,18.37 33.42,18.61 33.22,18.8 C 33.02,18.97 32.77,19.07 32.5,19.08 A 1.1,1.1 0 0,1 31.8,18.78 C 31.6,18.61 31.47,18.36 31.43,18.09 C 31.36,17.53 31.76,17.07 32.49,16.88 Z" fill="rgb(80, 174, 69)"/>
<path d="M 36.370000000000005,37.105 A 1.06,1.06 0 0,1 35.73,38.12 C 35.6,38.17 35.47,38.19 35.33,38.19 A 1.03,1.03 0 0,1 34.58,37.89 A 1.07,1.07 0 0,1 34.26,37.12 A 1.1,1.1 0 0,1 34.56,36.35 A 1.06,1.06 0 0,1 35.32,36.03 A 1.04,1.04 0 0,1 36.07,36.35 A 1.08,1.08 0 0,1 36.38,37.12 Z M 37.32,23.1 A 0.88,0.88 0 0,1 36.79,23.9 A 0.84,0.84 0 0,1 35.85,23.71 A 0.88,0.88 0 0,1 36.48,22.23 C 36.7,22.23 36.91,22.33 37.07,22.49 A 0.9,0.9 0 0,1 37.32,23.1 Z" fill="rgb(48, 90, 128)"/>
<path d="M 23.189999999999998,20.564999999999998 C 23.38,19.94 23.73,19.64 24.19,19.73 A 0.9,0.9 0 0,1 24.95,20.59 A 0.97,0.97 0 0,1 24.71,21.19 A 0.94,0.94 0 0,1 24.16,21.49 C 23.72,21.54 23.36,21.21 23.19,20.59 Z" fill="rgb(80, 174, 69)"/>
<path d="M 23.29,34.785 C 23.53,34.8 23.75,34.89 23.91,35.05 A 0.9,0.9 0 0,1 23.91,36.31 A 0.86,0.86 0 0,1 23.29,36.57 C 22.85,36.58 22.42,36.12 22.43,35.65 A 0.92,0.92 0 0,1 22.7,35.05 A 0.89,0.89 0 0,1 23.3,34.79 Z" fill="rgb(48, 90, 128)"/>
<path d="M 27.49,19.615 A 0.97,0.97 0 0,1 27.77,19.02 A 0.94,0.94 0 0,1 28.37,18.74 C 28.97,18.89 29.29,19.24 29.26,19.7 A 0.98,0.98 0 0,1 28.99,20.25 A 0.95,0.95 0 0,1 28.44,20.53 C 28,20.57 27.66,20.24 27.5,19.63 Z" fill="rgb(80, 174, 69)"/>
<path d="M 35.25,32.765 C 35.44,32.14 35.8,31.84 36.25,31.91 A 0.96,0.96 0 0,1 37.02,32.77 A 0.97,0.97 0 0,1 36.78,33.37 A 0.94,0.94 0 0,1 36.23,33.67 C 35.79,33.73 35.43,33.41 35.26,32.77 Z M 37.56,28.83 A 0.86,0.86 0 0,1 36.94,28.57 A 0.9,0.9 0 0,1 36.68,27.94 A 0.9,0.9 0 0,1 36.95,27.34 A 0.88,0.88 0 0,1 37.55,27.09 C 37.78,27.09 38,27.19 38.16,27.35 C 38.33,27.52 38.42,27.75 38.43,27.98 A 0.9,0.9 0 0,1 38.16,28.58 A 0.86,0.86 0 0,1 37.56,28.83 Z M 31.67,36.13 A 0.84,0.84 0 0,1 31.91,35.51 A 0.81,0.81 0 0,1 32.51,35.27 A 0.84,0.84 0 0,1 33.13,35.52 A 0.87,0.87 0 0,1 33.31,36.5 A 0.87,0.87 0 0,1 32.81,36.96 A 0.85,0.85 0 0,1 32.48,37.01 A 0.8,0.8 0 0,1 31.88,36.75 A 0.83,0.83 0 0,1 31.67,36.13 Z M 28.48,37.35 C 28.32,38 27.98,38.29 27.48,38.21 A 0.91,0.91 0 0,1 26.95,37.91 A 0.94,0.94 0 0,1 26.73,37.34 C 26.74,37.12 26.83,36.91 26.98,36.75 A 0.93,0.93 0 0,1 27.54,36.46 C 27.99,36.42 28.34,36.74 28.48,37.35 Z" fill="rgb(48, 90, 128)"/>
<path d="M 20.79,33.065 C 20.09,33.18 19.76,33.02 19.6,32.5 A 0.86,0.86 0 0,1 19.65,31.89 A 0.84,0.84 0 0,1 20.08,31.47 A 0.83,0.83 0 0,1 21.16,31.82 C 21.43,32.27 21.33,32.62 20.8,33.08 Z M 32.58,20.1 A 1,1 0 0,1 33.35,20.6 C 33.5,21.28 33.3,21.72 32.76,21.87 A 0.85,0.85 0 0,1 32.13,21.75 A 0.88,0.88 0 0,1 31.75,21.22 C 31.6,20.69 31.9,20.29 32.58,20.1 Z M 18.6,27.91 C 18.76,27.28 19.12,26.95 19.56,27.01 C 19.96,27.05 20.36,27.45 20.36,27.84 C 20.36,28.06 20.29,28.28 20.15,28.44 A 0.89,0.89 0 0,1 19.6,28.76 C 19.15,28.84 18.78,28.53 18.6,27.91 Z M 19.94,23.62 C 20.01,23.1 20.3,22.8 20.8,22.72 A 0.88,0.88 0 0,1 21.44,23.01 A 0.92,0.92 0 0,1 21.69,23.67 C 21.69,24.06 21.29,24.46 20.89,24.5 A 0.92,0.92 0 0,1 20.24,24.25 A 0.95,0.95 0 0,1 19.94,23.62 Z" fill="rgb(80, 174, 69)"/>
</svg>
