<?xml version="1.0" encoding="UTF-8"?>
<!-- generated by Finnhub -->
<svg viewBox="0 0 55.5 55.5" xmlns="http://www.w3.org/2000/svg">
<path d="M 0,0 H 55.5 V 55.5 H 0 Z" fill="rgb(239, 242, 248)"/>
<path d="M 10.99,26.985 H 12 V 31 H 14 V 32 H 11 V 27 Z M 15,27 H 16 V 29.5 C 16,30.402 16.243,31 17,31 C 17.746,31 18,30.391 18,29.5 V 27 H 19 V 29.5 C 19,31 18.5,32 17,32 S 15,31 15,29.5 V 27 Z M 20,27 H 21 L 22.5,29.5 L 24,27 H 25 V 32 H 24 V 28.5 L 22.5,31 L 21,28.5 V 32 H 20 V 27 Z M 47,27 H 48 L 49.5,29.5 L 51,27 H 52 V 32 H 51 V 28.5 L 49.5,31 L 48,28.5 V 32 H 47 V 27 Z M 26,27 H 29.448 V 28 H 27 V 29 H 29 V 30 H 27 V 31 H 29.5 V 32 H 26 V 27 Z M 31,27 H 32 L 34,30.3 V 27 H 35 V 32 H 34 L 32,28.682 V 32 H 31 V 27 Z M 38,28 H 36 V 27 H 41 V 28 H 39 V 32 H 38 V 28 Z M 42,27 H 43 V 29.5 C 43,30.402 43.243,31 44,31 C 44.746,31 45,30.391 45,29.5 V 27 H 46 V 29.5 C 46,31 45.5,32 44,32 S 42,31 42,29.5 V 27 Z" fill="rgb(65, 64, 65)"/>
<path d="M 3.99,32.316 L 8.16,28.161 L 8.548,28.548 L 4.378,32.708 L 4,32.331 Z" fill="url(#b)"/>
<path d="M 5.3740000000000006,28.145 L 9.544,24 L 9.864,24.31 L 5.694,28.48 L 5.384,28.16 Z" fill="url(#a)"/>
<defs>
<linearGradient id="b" x1="6.301" x2="10.024" y1="34.191" y2="30.469" gradientUnits="userSpaceOnUse">
<stop stop-color="rgb(5, 107, 178)" offset="0"/>
<stop stop-color="rgb(5, 113, 171)" offset=".06"/>
<stop stop-color="rgb(1, 126, 152)" offset=".185"/>
<stop stop-color="rgb(1, 148, 116)" offset=".363"/>
<stop stop-color="rgb(7, 165, 76)" offset=".5"/>
<stop stop-color="rgb(178, 207, 52)" offset="1"/>
</linearGradient>
<linearGradient id="a" x1="7.717" x2="11.41" y1="29.994" y2="26.3" gradientUnits="userSpaceOnUse">
<stop stop-color="rgb(200, 25, 134)" offset="0"/>
<stop stop-color="rgb(206, 43, 125)" offset=".098"/>
<stop stop-color="rgb(218, 75, 97)" offset=".315"/>
<stop stop-color="rgb(237, 107, 35)" offset=".6"/>
<stop stop-color="rgb(240, 129, 42)" offset=".739"/>
<stop stop-color="rgb(247, 176, 64)" offset="1"/>
</linearGradient>
</defs>
</svg>
