<?xml version="1.0" encoding="UTF-8"?>
<!-- generated by Finnhub -->
<svg viewBox="0 0 55.5 55.5" xmlns="http://www.w3.org/2000/svg">
<path d="M 0,0 H 55.5 V 55.5 H 0 Z" fill="rgb(239, 242, 248)"/>
<path d="M 15.99,32.985 L 12.45,40 V 35 H 9 L 12.5,28 V 33 H 16 Z" fill="rgb(107, 203, 217)"/>
<path d="M 8.52,23.035 L 9.39,22.43 C 9.35,22.19 9.21,22.06 9.04,21.95 A 3.1,3.1 0 0,0 7.2,21.5 C 6.26,21.5 5.18,22.2 5.18,23.17 C 5.18,23.85 5.54,24.37 6.2,24.63 L 6.71,24.78 L 7.04,24.88 L 7.34,24.94 C 7.57,24.98 7.79,25.02 8.01,25.19 C 8.39,25.69 7.91,26.01 7.31,25.99 C 6.73,25.99 6.34,25.63 5.97,25.29 L 5.94,25.25 C 5.7,25.3 5.19,25.64 5.04,25.78 A 0.38,0.38 0 0,0 5,26 C 5.03,26.2 5.24,26.35 5.39,26.47 C 5.81,26.76 6.31,26.94 6.82,26.97 C 7.74,27.06 9.04,26.99 9.44,25.94 C 9.85,24.88 9.24,23.95 8.17,23.67 L 7.77,23.55 L 6.94,23.32 C 6.54,23.2 6.54,22.76 6.92,22.6 A 1.2,1.2 0 0,1 8.18,22.8 L 8.4,22.96 L 8.52,23.06 Z M 18.33,27 C 19.98,27 20.87,25.76 20.87,24.26 C 20.87,22.93 20.25,21.62 18.63,21.5 H 17.96 C 16.74,21.5 15.75,22.61 15.64,23.83 C 15.5,25.53 16.48,27 18.33,27 Z M 19.25,24.54 C 19.25,25.15 18.98,26 18.23,26 C 17.32,26 17.28,24.82 17.28,24.07 C 17.28,23.41 17.56,22.47 18.23,22.47 C 19.13,22.47 19.25,23.67 19.25,24.54 Z M 21.05,21.5 H 22.61 L 23.54,24.6 L 24.44,21.5 H 25.78 L 26.72,24.75 L 27.62,21.5 H 29.22 L 27.54,27 H 25.9 L 24.99,23.89 L 24.07,26.99 H 22.73 L 21.07,21.5 Z M 15,27 H 13.8 L 11.49,23.86 V 27 H 10.2 V 21.5 H 11.63 L 13.67,24.36 L 13.71,24.34 V 21.51 H 15 V 27 Z M 41.17,21.5 H 42.67 V 23.67 L 42.72,23.69 L 44.38,21.51 H 45.91 L 44.43,23.33 L 46.22,27 H 44.6 C 44.45,26.92 44.4,26.79 44.34,26.65 A 11.06,11.06 0 0,1 44.08,26.09 L 43.95,25.8 L 43.6,25.06 L 43.39,24.64 A 43.5,43.5 0 0,1 42.73,25.48 C 42.68,25.55 42.68,25.66 42.68,25.75 V 27 H 41.16 V 21.5 Z M 39.45,27 H 40.71 C 40.37,26.06 38.81,21.5 38.81,21.5 H 37.45 L 35.47,27 H 36.79 L 37.28,25.85 H 38.96 L 39.45,27 Z M 38.67,24.65 H 37.54 L 37.61,24.44 L 38.11,23.07 L 38.67,24.65 Z M 51,27 H 46.75 V 21.5 H 50.82 V 22.62 H 48.3 V 23.67 H 50 V 24.75 H 48.31 V 25.83 H 51 V 27 Z M 42.8,31.51 H 43.56 L 44.47,33.73 L 45.45,36.13 L 47.33,31.51 H 48 V 37 H 47.43 V 32.76 H 47.39 L 46.56,34.82 L 45.7,37 H 45.15 L 43.36,32.7 V 37 H 42.8 V 31.51 Z M 31,27 H 35 V 25.82 H 32.53 V 21.5 H 31 V 27 Z M 30,31.5 H 30.6 V 33.9 H 33.4 V 31.5 H 34 V 37 H 33.4 V 34.41 H 30.6 V 37 H 30 V 31.5 Z M 38.2,31.5 H 37.56 V 35.3 C 37.61,36.21 38.19,36.93 39.14,36.99 C 39.48,37.01 39.82,36.99 40.15,36.94 C 40.93,36.79 41.48,36.26 41.49,35.48 V 31.5 H 40.89 V 35.3 C 40.89,35.93 40.57,36.32 39.99,36.44 C 39.66,36.51 39.33,36.5 39.01,36.42 C 38.5,36.3 38.2,35.86 38.19,35.35 V 31.5 Z M 26.76,32 H 25 V 31.5 H 29 V 32 H 27.4 V 37 H 26.76 V 32 Z M 19,31.5 V 37 H 22.35 V 36.46 H 19.65 L 19.64,31.5 H 19 Z M 24,37 H 23.35 V 31.5 H 24 V 37 Z M 35.35,37 H 36 V 31.5 H 35.35 V 37 Z" fill="rgb(23, 52, 73)"/>
</svg>
