<?xml version="1.0" encoding="UTF-8"?>
<!-- generated by Finnhub -->
<svg viewBox="0 0 55.5 55.5" xmlns="http://www.w3.org/2000/svg">
<path d="M 0,0 H 55.5 V 55.5 H 0 Z" fill="rgb(64, 65, 79)"/>
<path d="M 10.99,18.985 H 21 V 21 L 20.82,21.01 C 19.86,21.07 18.09,21.17 18,22.51 V 37 H 23.96 C 24.93,37 26,36.1 26,33 H 28 V 39 H 11 V 37 C 12.31,37 14,36.68 14,35.16 V 22.51 C 13.98,21.85 13.34,21 11,21 V 19 Z M 27,19 H 37 V 21 C 35.67,21 33.85,21.54 34.4,23.06 C 35.1,25.06 37.08,30.88 38.02,33.68 L 41.88,22.78 C 42.12,21.92 42.05,21 40,21 V 19 H 47 V 21 H 46.93 C 46.21,21 44.75,21 44.39,22.38 A 589.96,589.96 0 0,1 38.54,39 H 35.67 L 29.72,22.38 C 29.18,21.25 28.55,21 27,21 V 19 Z" fill="rgb(254, 254, 253)"/>
</svg>
