<?xml version="1.0" encoding="UTF-8"?>
<!-- generated by Finnhub -->
<svg viewBox="0 0 55.5 55.5" xmlns="http://www.w3.org/2000/svg">
<path d="M 0,0 H 55.5 V 55.5 H 0 Z" fill="url(#c)"/>
<path d="M 27.717,27.825 L 15.41,26.92 V 26.923 A 2.613,2.613 0 0,0 15.251,26.919 C 14.406,26.924 13.727,27.343 13.735,27.856 C 13.743,28.369 14.435,28.781 15.28,28.776 C 15.334,28.776 15.387,28.774 15.439,28.77 V 28.775 L 27.726,27.841 Z M 27.728,27.86 L 15.45,29.34 V 29.343 A 2.617,2.617 0 0,0 15.294,29.37 C 14.466,29.538 13.882,30.082 13.991,30.583 C 14.099,31.085 14.858,31.355 15.686,31.186 C 15.739,31.175 15.79,31.163 15.841,31.149 L 15.842,31.154 L 27.729,27.859 Z M 27.734,27.877 L 16.001,31.687 L 16.002,31.689 C 15.952,31.706 15.903,31.726 15.854,31.746 C 15.074,32.072 14.609,32.719 14.814,33.19 C 15.018,33.66 15.815,33.778 16.594,33.451 C 16.644,33.431 16.692,33.408 16.739,33.385 L 16.741,33.39 L 27.734,27.877 Z M 27.744,27.893 L 17.008,33.893 L 17.01,33.897 C 16.965,33.923 16.92,33.951 16.875,33.981 C 16.175,34.452 15.845,35.177 16.138,35.599 C 16.431,36.021 17.236,35.981 17.936,35.509 C 17.981,35.479 18.024,35.449 18.066,35.417 L 18.068,35.421 L 27.744,27.893 Z M 27.756,27.909 L 18.387,35.892 L 18.39,35.894 C 18.35,35.929 18.312,35.965 18.274,36.004 C 17.68,36.602 17.498,37.376 17.868,37.734 C 18.238,38.09 19.02,37.894 19.614,37.297 C 19.652,37.259 19.688,37.22 19.722,37.18 L 19.726,37.184 L 27.756,27.909 Z M 27.77,27.92 L 20.158,37.527 L 20.16,37.529 A 2.631,2.631 0 0,0 20.069,37.659 C 19.603,38.36 19.576,39.155 20.009,39.434 C 20.442,39.712 21.171,39.368 21.636,38.666 C 21.666,38.622 21.694,38.576 21.72,38.531 L 21.724,38.534 L 27.77,27.92 Z M 27.788,27.93 L 22.208,38.843 L 22.21,38.845 A 2.476,2.476 0 0,0 22.145,38.99 C 21.826,39.769 21.956,40.553 22.435,40.742 C 22.915,40.932 23.562,40.453 23.881,39.674 C 23.901,39.624 23.92,39.574 23.936,39.526 L 23.941,39.527 L 27.788,27.929 Z M 27.806,27.934 L 24.475,39.698 H 24.478 A 2.49,2.49 0 0,0 24.443,39.853 C 24.283,40.679 24.563,41.423 25.071,41.516 C 25.578,41.608 26.119,41.013 26.279,40.187 C 26.289,40.135 26.298,40.083 26.304,40.031 H 26.309 L 27.806,27.934 Z M 28.669,40.126 H 28.674 L 27.824,27.936 L 26.809,40.154 H 26.812 A 2.314,2.314 0 0,0 26.808,40.313 C 26.813,41.154 27.235,41.83 27.75,41.822 C 28.265,41.814 28.68,41.125 28.675,40.284 A 2.58,2.58 0 0,0 28.669,40.126 Z M 31.097,39.882 A 2.421,2.421 0 0,0 31.06,39.728 L 31.065,39.727 L 27.843,27.935 L 29.241,40.117 H 29.245 C 29.252,40.167 29.261,40.22 29.272,40.272 C 29.442,41.097 29.988,41.677 30.492,41.569 C 30.996,41.462 31.267,40.706 31.097,39.882 Z M 33.373,38.977 A 2.208,2.208 0 0,0 33.307,38.833 L 33.312,38.831 L 27.861,27.929 L 31.6,39.567 L 31.603,39.566 C 31.62,39.616 31.639,39.665 31.66,39.714 C 31.988,40.49 32.638,40.953 33.11,40.749 C 33.584,40.546 33.702,39.752 33.374,38.977 Z M 35.442,37.642 A 2.695,2.695 0 0,0 35.348,37.514 L 35.352,37.511 L 27.877,27.919 L 33.817,38.566 L 33.821,38.564 C 33.847,38.609 33.875,38.654 33.906,38.698 C 34.379,39.395 35.107,39.723 35.531,39.431 C 35.955,39.141 35.915,38.339 35.441,37.642 Z M 37.237,35.973 A 2.488,2.488 0 0,0 37.12,35.865 L 37.124,35.861 L 27.892,27.908 L 35.826,37.194 L 35.828,37.191 C 35.863,37.23 35.899,37.268 35.938,37.306 C 36.538,37.897 37.318,38.078 37.676,37.71 C 38.035,37.342 37.838,36.564 37.237,35.973 Z M 38.614,33.96 A 2.375,2.375 0 0,0 38.478,33.877 L 38.481,33.872 L 27.903,27.892 L 37.469,35.432 L 37.471,35.428 C 37.513,35.46 37.556,35.49 37.601,35.52 C 38.307,35.983 39.105,36.01 39.385,35.579 S 39.32,34.423 38.615,33.959 Z M 39.626,31.727 C 39.576,31.707 39.526,31.688 39.477,31.672 L 39.479,31.667 L 27.913,27.877 L 38.792,33.392 L 38.793,33.389 C 38.84,33.412 38.889,33.433 38.938,33.453 C 39.721,33.771 40.51,33.642 40.7,33.165 C 40.89,32.688 40.41,32.045 39.626,31.727 Z M 40.142,29.34 A 2.436,2.436 0 0,0 39.985,29.315 L 39.986,29.31 L 27.918,27.858 L 39.651,31.136 V 31.133 C 39.701,31.146 39.754,31.158 39.807,31.168 C 40.637,31.328 41.385,31.048 41.477,30.543 C 41.57,30.038 40.973,29.5 40.143,29.34 Z M 40.37,26.926 C 40.316,26.926 40.263,26.928 40.21,26.932 V 26.927 L 27.924,27.84 L 40.239,28.782 V 28.779 C 40.292,28.782 40.345,28.783 40.399,28.783 C 41.244,28.778 41.922,28.358 41.914,27.846 C 41.907,27.333 41.214,26.921 40.37,26.926 Z M 41.661,25.117 C 41.553,24.616 40.794,24.346 39.965,24.515 C 39.913,24.525 39.861,24.538 39.811,24.552 L 39.81,24.547 L 27.922,27.821 L 40.202,26.361 L 40.201,26.358 C 40.253,26.351 40.305,26.342 40.358,26.331 C 41.186,26.162 41.769,25.619 41.661,25.117 Z M 40.837,22.511 C 40.633,22.041 39.835,21.923 39.057,22.25 C 39.007,22.27 38.958,22.292 38.911,22.316 L 38.909,22.311 L 27.917,27.803 L 39.65,24.015 L 39.648,24.012 C 39.698,23.994 39.748,23.975 39.797,23.955 C 40.576,23.628 41.042,22.982 40.837,22.511 Z M 39.513,20.102 C 39.22,19.68 38.415,19.72 37.715,20.191 C 37.67,20.221 37.627,20.252 37.585,20.284 L 37.583,20.28 L 27.907,27.787 L 38.643,21.807 L 38.641,21.804 C 38.686,21.778 38.731,21.75 38.776,21.72 C 39.476,21.248 39.806,20.524 39.513,20.102 Z M 37.783,17.968 C 37.413,17.611 36.631,17.806 36.037,18.404 A 2.601,2.601 0 0,0 35.929,18.52 L 35.925,18.517 L 27.895,27.772 L 37.264,19.809 L 37.261,19.806 C 37.301,19.772 37.339,19.736 37.377,19.697 C 37.971,19.099 38.153,18.325 37.783,17.967 Z M 35.64,16.267 C 35.208,15.988 34.48,16.332 34.014,17.034 A 2.55,2.55 0 0,0 33.93,17.169 L 33.926,17.166 L 27.879,27.76 L 35.492,18.173 L 35.49,18.172 C 35.521,18.13 35.552,18.087 35.581,18.042 C 36.047,17.34 36.073,16.545 35.641,16.267 Z M 33.215,14.958 C 32.736,14.769 32.089,15.248 31.77,16.027 C 31.75,16.077 31.731,16.126 31.715,16.175 L 31.71,16.173 L 27.863,27.751 L 33.443,16.857 L 33.441,16.856 C 33.464,16.809 33.485,16.761 33.506,16.711 C 33.825,15.932 33.695,15.147 33.216,14.958 Z M 30.58,14.185 C 30.073,14.093 29.532,14.687 29.372,15.513 C 29.362,15.566 29.353,15.618 29.347,15.67 L 29.342,15.669 L 27.845,27.746 L 31.176,16.003 H 31.173 C 31.186,15.952 31.198,15.9 31.208,15.848 C 31.368,15.022 31.088,14.278 30.58,14.185 Z M 28.686,15.367 C 28.681,14.525 28.259,13.85 27.744,13.857 C 27.228,13.866 26.814,14.554 26.819,15.395 C 26.819,15.449 26.822,15.502 26.825,15.554 H 26.82 L 27.823,27.743 L 28.685,15.525 H 28.682 C 28.685,15.473 28.686,15.42 28.686,15.367 Z M 27.804,27.744 L 26.252,15.563 H 26.249 A 2.377,2.377 0 0,0 26.222,15.407 C 26.052,14.583 25.506,14.002 25.002,14.11 C 24.498,14.218 24.227,14.973 24.397,15.797 C 24.407,15.85 24.42,15.901 24.434,15.951 L 24.429,15.952 L 27.804,27.744 Z M 27.786,27.75 L 23.893,16.112 L 23.89,16.114 A 2.6,2.6 0 0,0 23.833,15.965 C 23.505,15.19 22.856,14.727 22.383,14.93 C 21.91,15.134 21.792,15.927 22.12,16.703 C 22.14,16.752 22.163,16.8 22.186,16.847 L 22.182,16.849 L 27.786,27.75 Z M 27.77,27.76 L 21.675,17.114 L 21.672,17.116 A 2.684,2.684 0 0,0 21.587,16.982 C 21.114,16.285 20.386,15.956 19.962,16.248 C 19.537,16.539 19.578,17.34 20.052,18.038 C 20.082,18.081 20.112,18.124 20.145,18.166 L 20.14,18.168 L 27.77,27.76 Z M 27.755,27.772 L 19.667,18.486 L 19.665,18.489 A 2.571,2.571 0 0,0 19.555,18.374 C 18.955,17.782 18.175,17.601 17.817,17.969 C 17.458,18.338 17.655,19.116 18.256,19.707 A 2.6,2.6 0 0,0 18.372,19.815 L 18.369,19.818 L 27.755,27.772 Z M 27.744,27.787 L 18.024,20.248 L 18.022,20.251 A 2.316,2.316 0 0,0 17.892,20.16 C 17.187,19.696 16.388,19.67 16.108,20.1 C 15.828,20.531 16.174,21.256 16.879,21.72 C 16.924,21.75 16.969,21.777 17.015,21.803 L 17.012,21.807 L 27.744,27.787 Z M 27.734,27.803 L 16.7,22.288 L 16.699,22.292 A 2.533,2.533 0 0,0 16.553,22.227 C 15.77,21.91 14.982,22.039 14.792,22.516 C 14.602,22.993 15.082,23.636 15.866,23.954 C 15.916,23.974 15.965,23.993 16.015,24.009 L 16.013,24.014 L 27.733,27.804 Z M 27.729,27.822 L 15.843,24.543 V 24.547 A 2.602,2.602 0 0,0 15.687,24.512 C 14.857,24.352 14.109,24.632 14.016,25.137 C 13.923,25.641 14.521,26.18 15.351,26.339 C 15.403,26.349 15.456,26.358 15.508,26.364 L 15.507,26.369 L 27.729,27.822 Z" fill="rgb(254, 254, 253)"/>
<path d="M 32.645,29.166 C 33.377,26.553 31.802,23.833 29.136,23.108 C 26.471,22.382 23.724,23.925 23.002,26.553 C 22.279,29.182 23.854,31.901 26.52,32.627 C 29.186,33.352 31.932,31.81 32.655,29.181 Z" fill="url(#b)"/>
<path d="M 31.962,27.512 L 31.919,27.528 V 27.527 L 27.832,27.837 L 31.909,28.15 V 28.149 A 0.848,0.848 0 0,0 31.962,28.151 C 32.242,28.152 32.472,28.014 32.475,27.841 C 32.477,27.669 32.252,27.528 31.972,27.527 Z M 31.958,28.35 A 0.9,0.9 0 0,0 31.906,28.342 V 28.34 L 27.831,27.843 L 31.776,28.95 V 28.948 A 0.897,0.897 0 0,0 31.828,28.961 C 32.102,29.017 32.354,28.927 32.39,28.758 C 32.426,28.59 32.233,28.408 31.958,28.351 Z M 31.772,29.149 A 0.98,0.98 0 0,0 31.722,29.129 L 27.829,27.849 L 31.477,29.701 V 29.699 A 0.817,0.817 0 0,0 31.526,29.721 C 31.785,29.831 32.049,29.791 32.117,29.634 C 32.185,29.475 32.031,29.258 31.772,29.149 Z M 31.433,29.9 A 0.76,0.76 0 0,0 31.388,29.871 L 27.826,27.855 L 31.036,30.383 L 31.038,30.382 L 31.081,30.412 C 31.313,30.572 31.581,30.585 31.677,30.443 C 31.775,30.301 31.665,30.058 31.433,29.9 Z M 30.969,30.579 A 0.774,0.774 0 0,0 30.931,30.542 L 27.822,27.86 L 30.487,30.975 H 30.488 A 0.867,0.867 0 0,0 30.524,31.013 C 30.721,31.214 30.981,31.28 31.104,31.16 C 31.227,31.04 31.166,30.78 30.969,30.579 Z M 30.373,31.135 A 0.843,0.843 0 0,0 30.343,31.091 L 27.817,27.863 L 29.824,31.429 H 29.825 L 29.853,31.473 C 30.008,31.709 30.249,31.825 30.393,31.731 C 30.537,31.638 30.528,31.371 30.373,31.135 Z M 29.684,31.582 A 0.737,0.737 0 0,0 29.662,31.533 H 29.664 L 27.811,27.866 L 29.088,31.762 H 29.09 C 29.095,31.779 29.101,31.795 29.108,31.812 C 29.214,32.074 29.428,32.234 29.588,32.171 C 29.747,32.107 29.79,31.843 29.684,31.581 Z M 28.922,31.872 A 1.08,1.08 0 0,0 28.91,31.82 H 28.911 L 27.806,27.868 L 28.302,31.932 H 28.304 A 0.907,0.907 0 0,0 28.313,31.984 C 28.366,32.262 28.545,32.461 28.713,32.43 C 28.882,32.4 28.975,32.15 28.922,31.872 Z M 28.135,31.973 H 28.136 L 27.8,27.87 L 27.518,31.965 H 27.52 A 0.853,0.853 0 0,0 27.518,32.018 C 27.516,32.301 27.654,32.532 27.825,32.534 C 27.995,32.537 28.135,32.31 28.138,32.027 A 0.85,0.85 0 0,0 28.136,31.974 Z M 27.793,27.869 L 26.723,31.829 H 26.725 A 0.957,0.957 0 0,0 26.713,31.882 C 26.657,32.159 26.747,32.412 26.913,32.449 C 27.081,32.485 27.263,32.289 27.319,32.013 A 0.893,0.893 0 0,0 27.328,31.961 L 27.793,27.869 Z M 27.787,27.866 L 25.978,31.529 H 25.98 A 0.761,0.761 0 0,0 25.958,31.578 C 25.848,31.838 25.888,32.105 26.045,32.173 C 26.202,32.241 26.417,32.086 26.526,31.825 A 0.968,0.968 0 0,0 26.546,31.775 V 31.776 L 27.787,27.866 Z M 27.782,27.863 L 25.302,31.085 V 31.086 A 0.687,0.687 0 0,0 25.272,31.129 C 25.115,31.363 25.102,31.633 25.242,31.73 C 25.382,31.828 25.624,31.718 25.782,31.484 L 25.81,31.439 L 27.782,27.863 Z M 27.777,27.86 L 24.713,30.531 L 24.714,30.533 A 0.807,0.807 0 0,0 24.675,30.569 C 24.475,30.767 24.411,31.029 24.53,31.152 C 24.649,31.276 24.907,31.215 25.106,31.017 A 0.734,0.734 0 0,0 25.143,30.977 V 30.979 L 27.777,27.859 Z M 27.773,27.854 L 24.263,29.863 V 29.864 A 0.713,0.713 0 0,0 24.219,29.892 C 23.985,30.048 23.87,30.292 23.963,30.436 C 24.056,30.581 24.321,30.572 24.555,30.416 L 24.598,30.386 L 27.773,27.854 Z M 27.77,27.849 L 23.932,29.122 V 29.124 A 0.937,0.937 0 0,0 23.882,29.142 C 23.622,29.249 23.463,29.465 23.526,29.625 C 23.59,29.785 23.851,29.829 24.111,29.722 A 0.783,0.783 0 0,0 24.159,29.701 L 27.77,27.849 Z M 27.768,27.843 L 23.763,28.331 V 28.332 A 0.837,0.837 0 0,0 23.711,28.341 C 23.436,28.394 23.238,28.575 23.268,28.745 C 23.299,28.914 23.548,29.008 23.823,28.955 A 0.73,0.73 0 0,0 23.875,28.943 L 27.768,27.843 Z M 27.766,27.837 L 23.689,27.53 V 27.531 A 0.824,0.824 0 0,0 23.636,27.529 C 23.356,27.528 23.126,27.666 23.123,27.839 C 23.12,28.011 23.346,28.152 23.626,28.153 L 23.679,28.152 V 28.153 L 27.766,27.837 Z M 27.767,27.83 L 23.822,26.73 V 26.732 A 0.827,0.827 0 0,0 23.77,26.72 C 23.495,26.663 23.243,26.753 23.207,26.922 C 23.172,27.09 23.365,27.272 23.64,27.33 A 0.904,0.904 0 0,0 23.692,27.339 L 27.767,27.83 Z M 27.769,27.824 L 24.12,25.98 L 24.119,25.982 A 0.949,0.949 0 0,0 24.071,25.96 C 23.812,25.85 23.548,25.89 23.48,26.048 C 23.412,26.206 23.566,26.423 23.825,26.532 A 0.727,0.727 0 0,0 23.875,26.552 H 23.874 L 27.768,27.825 Z M 27.772,27.819 L 24.561,25.297 L 24.56,25.298 A 0.917,0.917 0 0,0 24.517,25.267 C 24.285,25.109 24.017,25.095 23.92,25.237 C 23.823,25.379 23.933,25.622 24.165,25.781 C 24.18,25.791 24.195,25.801 24.21,25.809 L 27.772,27.819 Z M 27.776,27.814 L 25.111,24.704 V 24.706 A 0.874,0.874 0 0,0 25.074,24.666 C 24.877,24.466 24.617,24.4 24.494,24.52 C 24.372,24.64 24.432,24.9 24.63,25.101 A 0.822,0.822 0 0,0 24.668,25.138 H 24.667 L 27.776,27.813 Z M 27.78,27.81 L 25.774,24.251 L 25.773,24.252 A 0.796,0.796 0 0,0 25.745,24.207 C 25.591,23.971 25.349,23.855 25.205,23.949 C 25.062,24.042 25.071,24.309 25.225,24.545 L 25.255,24.589 L 27.781,27.809 Z M 27.787,27.807 L 26.51,23.917 L 26.509,23.918 A 0.89,0.89 0 0,0 26.49,23.868 C 26.385,23.607 26.17,23.446 26.01,23.509 C 25.852,23.573 25.808,23.836 25.914,24.099 A 0.826,0.826 0 0,0 25.936,24.147 H 25.935 L 27.787,27.807 Z M 27.793,27.805 L 27.296,23.748 H 27.294 A 0.609,0.609 0 0,0 27.286,23.696 C 27.233,23.418 27.053,23.218 26.885,23.249 C 26.717,23.28 26.623,23.531 26.677,23.808 A 0.727,0.727 0 0,0 26.688,23.86 L 27.793,27.805 Z M 28.133,23.656 C 28.135,23.374 27.997,23.142 27.826,23.14 C 27.656,23.137 27.516,23.364 27.514,23.646 L 27.515,23.7 L 27.8,27.804 L 28.133,23.709 H 28.131 A 0.845,0.845 0 0,0 28.133,23.656 Z M 28.736,23.224 C 28.569,23.188 28.388,23.384 28.332,23.66 A 0.887,0.887 0 0,0 28.322,23.713 L 27.807,27.804 L 28.927,23.844 H 28.925 A 0.82,0.82 0 0,0 28.937,23.791 C 28.994,23.514 28.904,23.261 28.737,23.224 Z M 29.605,23.5 C 29.448,23.431 29.233,23.587 29.124,23.848 A 1.17,1.17 0 0,0 29.104,23.898 V 23.897 L 27.812,27.807 L 29.672,24.144 H 29.67 A 0.71,0.71 0 0,0 29.692,24.095 C 29.802,23.835 29.762,23.568 29.605,23.5 Z M 30.409,23.943 C 30.269,23.845 30.027,23.955 29.869,24.189 A 0.748,0.748 0 0,0 29.841,24.234 L 27.818,27.81 L 30.35,24.588 L 30.348,24.587 A 0.83,0.83 0 0,0 30.379,24.544 C 30.536,24.31 30.549,24.041 30.409,23.943 Z M 31.12,24.52 C 31.001,24.397 30.743,24.458 30.543,24.657 A 0.82,0.82 0 0,0 30.507,24.695 H 30.506 L 27.822,27.814 L 30.937,25.142 L 30.936,25.141 A 0.774,0.774 0 0,0 30.974,25.105 C 31.174,24.905 31.239,24.645 31.12,24.521 Z M 31.687,25.237 C 31.594,25.092 31.33,25.101 31.095,25.257 A 0.813,0.813 0 0,0 31.052,25.287 L 27.826,27.819 L 31.387,25.809 A 0.796,0.796 0 0,0 31.432,25.781 C 31.666,25.625 31.78,25.381 31.687,25.237 Z M 32.124,26.048 C 32.061,25.888 31.799,25.844 31.54,25.951 A 0.817,0.817 0 0,0 31.491,25.972 L 27.83,27.824 L 31.719,26.551 V 26.549 A 0.878,0.878 0 0,0 31.768,26.531 C 32.028,26.424 32.188,26.208 32.124,26.048 Z M 32.382,26.928 C 32.352,26.759 32.102,26.665 31.828,26.718 A 0.846,0.846 0 0,0 31.776,26.73 L 27.831,27.83 L 31.887,27.343 V 27.341 A 0.805,0.805 0 0,0 31.939,27.332 C 32.214,27.279 32.413,27.098 32.382,26.928 Z" fill="rgb(254, 254, 253)"/>
<path d="M 13.508000000000001,30.587 H 41.98 V 25.084 H 13.518 V 30.602 Z" fill="url(#a)"/>
<path d="M 14.047,29.811 V 29.635 H 14.603 V 26.003 H 14.057 V 25.808 H 16.197 V 26.003 H 15.597 V 29.629 H 15.979 C 16.445,29.635 16.579,29.599 16.79,29.399 C 17.033,29.171 17.178,28.917 17.324,28.465 H 17.505 L 17.445,29.825 H 14.057 Z M 19.576,29.63 H 20.121 V 29.826 H 18.061 V 29.635 H 18.588 V 26.003 H 18.068 V 25.808 H 20.128 V 26.003 H 19.576 V 29.629 Z M 22.156,27.82 H 22.459 C 23.052,27.82 23.234,28.019 23.234,28.65 C 23.234,29.149 23.197,29.323 23.058,29.468 C 22.943,29.588 22.773,29.63 22.392,29.63 H 22.156 V 27.82 Z M 22.156,27.616 V 26.003 H 22.476 C 23.022,26.003 23.136,26.154 23.136,26.879 C 23.136,27.489 23.009,27.616 22.386,27.616 H 22.156 Z M 23.07,27.712 C 23.422,27.64 23.53,27.61 23.725,27.502 A 0.873,0.873 0 0,0 24.186,26.752 A 0.872,0.872 0 0,0 23.944,26.172 C 23.701,25.918 23.349,25.808 22.798,25.808 H 20.659 V 26.003 H 21.169 V 29.63 H 20.659 V 29.825 H 22.731 C 23.743,29.825 24.331,29.419 24.331,28.722 A 0.823,0.823 0 0,0 24.107,28.133 C 23.889,27.899 23.658,27.803 23.07,27.713 Z M 26.503,27.695 H 26.63 C 27.042,27.701 27.29,27.46 27.358,26.991 H 27.558 V 28.636 H 27.363 C 27.303,28.103 27.097,27.891 26.63,27.891 H 26.503 V 29.629 H 27.188 C 27.558,29.635 27.794,29.532 28,29.284 C 28.194,29.054 28.303,28.824 28.382,28.509 H 28.588 L 28.503,29.826 H 25 V 29.635 H 25.509 V 26.003 H 25 V 25.808 H 28.382 L 28.436,26.93 H 28.236 C 28.103,26.533 27.97,26.328 27.746,26.172 C 27.558,26.046 27.382,26.003 27.018,26.003 H 26.503 V 27.695 Z M 30.716,27.585 V 25.988 H 31.156 C 31.692,25.988 31.806,26.134 31.806,26.787 C 31.806,27.404 31.649,27.585 31.1,27.585 H 30.716 Z M 30.716,27.78 H 30.936 C 31.448,27.78 31.588,27.973 31.619,28.733 C 31.637,29.227 31.709,29.444 31.933,29.631 C 32.103,29.769 32.369,29.841 32.671,29.841 C 32.937,29.841 33.107,29.811 33.325,29.691 V 29.468 C 33.168,29.552 33.095,29.571 32.985,29.571 C 32.792,29.571 32.743,29.492 32.737,29.167 C 32.731,28.637 32.713,28.522 32.61,28.329 C 32.453,28.034 32.139,27.835 31.625,27.707 C 32.453,27.597 32.925,27.247 32.925,26.727 C 32.925,26.351 32.61,26.013 32.133,25.881 C 31.909,25.821 31.643,25.791 31.247,25.791 H 29.227 V 25.988 H 29.737 V 29.637 H 29.227 V 29.829 H 31.247 V 29.637 H 30.717 V 27.78 Z M 37.22,25.808 L 37.245,27.125 H 37.063 C 36.984,26.571 36.772,26.203 36.469,26.064 A 0.932,0.932 0 0,0 36.124,26.004 H 36.057 V 29.629 H 36.675 V 29.826 H 34.469 V 29.635 H 35.069 V 26.003 H 34.979 C 34.487,26.003 34.227,26.311 34.039,27.125 H 33.863 L 33.881,25.808 H 37.221 Z M 39.685,25.808 V 26.003 H 39.225 L 40.126,27.703 L 40.829,26.341 L 40.889,26.191 A 0.224,0.224 0 0,0 40.919,26.1 C 40.919,26.027 40.871,26.003 40.731,26.003 H 40.574 V 25.808 H 41.6 V 26.003 C 41.266,26.009 41.23,26.027 41.071,26.341 L 40.217,27.955 V 29.63 H 40.853 V 29.825 H 38.62 V 29.63 H 39.237 V 28.003 L 38.087,26.003 H 37.8 V 25.808 H 39.684 Z M 27.388,12.407 L 27.833,12.413 L 27.993,12 L 28.125,12.423 L 28.569,12.448 L 28.206,12.703 L 28.319,13.131 L 27.963,12.866 L 27.589,13.106 L 27.733,12.686 L 27.388,12.406 Z M 39.701,17.878 L 39.973,18.228 L 40.398,18.097 L 40.148,18.462 L 40.405,18.824 L 39.977,18.699 L 39.711,19.055 L 39.699,18.612 L 39.277,18.47 L 39.696,18.321 L 39.701,17.878 Z M 43.35,31.519 L 42.907,31.565 L 42.797,31.994 L 42.616,31.589 L 42.171,31.618 L 42.502,31.321 L 42.338,30.909 L 42.724,31.131 L 43.066,30.848 L 42.974,31.282 L 43.35,31.519 Z M 34.065,41.396 L 34.51,41.423 L 34.69,41.017 L 34.801,41.447 L 35.244,41.491 L 34.869,41.729 L 34.963,42.162 L 34.619,41.88 L 34.234,42.103 L 34.397,41.691 L 34.065,41.396 Z M 20.636,41.685 L 21.079,41.643 L 21.194,41.215 L 21.37,41.622 L 21.815,41.598 L 21.481,41.891 L 21.641,42.304 L 21.258,42.079 L 20.912,42.358 L 21.009,41.926 L 20.636,41.685 Z M 12.18,31.416 L 12.578,31.216 L 12.528,30.776 L 12.841,31.091 L 13.246,30.908 L 13.043,31.301 L 13.343,31.628 L 12.903,31.558 L 12.684,31.943 L 12.616,31.505 L 12.18,31.415 Z M 15.334,17.974 L 15.759,18.105 L 16.03,17.755 L 16.036,18.197 L 16.456,18.345 L 16.034,18.488 L 16.022,18.931 L 15.756,18.576 L 15.329,18.701 L 15.585,18.34 L 15.334,17.974 Z" fill="rgb(254, 254, 253)"/>
<path d="M 26.77,12.737 A 0.522,0.522 0 0,1 26.281,13.295 C 22.143,13.479 18.829,16.155 17.356,17.62 A 0.525,0.525 0 0,1 16.616,17.62 A 0.519,0.519 0 0,1 16.616,16.884 C 18.146,15.361 21.698,12.457 26.235,12.254 A 0.522,0.522 0 0,1 26.781,12.752 Z M 15.373,19.345 C 15.603,19.519 15.649,19.845 15.475,20.075 C 12.973,23.36 12.923,27.606 13.115,29.671 A 0.523,0.523 0 0,1 12.073,29.767 C 11.873,27.623 11.898,23.047 14.64,19.446 A 0.525,0.525 0 0,1 15.373,19.346 Z M 29.22,12.752 C 29.206,13.039 29.43,13.282 29.719,13.295 C 33.857,13.479 37.171,16.155 38.644,17.62 A 0.525,0.525 0 0,0 39.384,17.62 A 0.519,0.519 0 0,0 39.384,16.884 C 37.854,15.361 34.302,12.457 29.765,12.254 A 0.522,0.522 0 0,0 29.219,12.752 Z M 40.627,19.345 A 0.519,0.519 0 0,0 40.525,20.075 C 43.027,23.36 43.077,27.606 42.885,29.671 A 0.523,0.523 0 0,0 43.927,29.767 C 44.127,27.623 44.102,23.047 41.36,19.446 A 0.525,0.525 0 0,0 40.627,19.346 Z M 13.345,32.306 A 0.523,0.523 0 0,1 13.978,32.688 C 14.963,36.692 18.242,39.408 19.974,40.562 A 0.52,0.52 0 0,1 20.117,41.284 A 0.525,0.525 0 0,1 19.391,41.427 C 17.593,40.229 14.041,37.325 12.961,32.935 A 0.52,0.52 0 0,1 13.345,32.305 Z M 22.216,42.373 A 0.524,0.524 0 0,1 22.902,42.096 C 26.718,43.7 30.866,42.703 32.829,42.01 A 0.52,0.52 0 1,1 33.179,42.992 C 31.139,43.712 26.678,44.814 22.495,43.055 A 0.52,0.52 0 0,1 22.216,42.373 Z M 42.713,32.306 A 0.523,0.523 0 0,0 42.08,32.688 C 41.096,36.692 37.816,39.408 36.085,40.562 A 0.52,0.52 0 0,0 35.941,41.284 C 36.102,41.524 36.427,41.587 36.667,41.427 C 38.465,40.229 42.017,37.325 43.097,32.935 A 0.52,0.52 0 0,0 42.713,32.305 Z" fill="rgb(254, 254, 253)"/>
<defs>
<linearGradient id="c" x1="10.418" x2="68.147" y1="9.712" y2="76.017" gradientUnits="userSpaceOnUse">
<stop stop-color="rgb(25, 29, 31)" offset="0"/>
<stop stop-color="rgb(5, 5, 8)" offset="1"/>
</linearGradient>
<linearGradient id="b" x1="24.687" x2="34.851" y1="31.093" y2="19.27" gradientUnits="userSpaceOnUse">
<stop stop-color="rgb(25, 29, 31)" offset="0"/>
<stop stop-color="rgb(5, 5, 8)" offset="1"/>
</linearGradient>
<linearGradient id="a" x1="18.813" x2="20.698" y1="29.645" y2="18.477" gradientUnits="userSpaceOnUse">
<stop stop-color="rgb(25, 29, 31)" offset="0"/>
<stop stop-color="rgb(5, 5, 8)" offset="1"/>
</linearGradient>
</defs>
</svg>
