<?xml version="1.0" encoding="UTF-8"?>
<!-- generated by Finnhub -->
<svg viewBox="0 0 55.5 55.5" xmlns="http://www.w3.org/2000/svg">
<path d="M 0,0 H 55.5 V 55.5 H 0 Z" fill="rgb(239, 242, 248)"/>
<path d="M 41.690000000000005,25.985 H 43.17 C 43.82,26 45.11,26.2 45.11,27.09 C 45.11,28.2 44.04,28.5 43.84,28.55 C 44.19,28.55 45.04,29.07 45.24,29.37 C 45.43,29.67 46.2,30.73 47.59,30.73 C 47.84,30.73 48.19,30.51 48.33,30.41 V 30.61 C 48.21,30.74 47.86,31 47.36,31 C 46.74,31 46.07,30.88 44.51,29.47 L 44.27,29.26 C 43.87,28.91 43.46,28.55 42.59,28.55 V 30.53 C 42.64,30.65 42.79,30.88 42.97,30.88 V 31 H 41.67 V 30.9 C 41.79,30.85 42,30.7 42,30.53 V 26.43 C 41.97,26.33 41.86,26.17 41.7,26.15 V 26 Z M 42.59,26.45 V 28.33 C 43.2,28.37 44.44,28.23 44.44,27.36 C 44.44,26.54 43.2,26.45 42.59,26.45 Z M 27.67,26 H 26.77 V 26.1 C 26.95,26.2 27,26.39 27,26.47 V 30.51 C 27,30.65 26.83,30.81 26.74,30.87 V 31 H 27.85 V 30.87 C 27.68,30.87 27.6,30.63 27.57,30.51 V 27.11 L 30.57,31 V 26.41 C 30.57,26.27 30.73,26.15 30.81,26.11 V 26 H 29.81 V 26.1 C 29.93,26.15 29.98,26.33 30,26.41 V 29.21 L 27.67,26.26 V 26 Z M 13,31 V 30.92 C 13.1,30.92 13.29,30.78 13.34,30.34 A 422.4,422.4 0 0,1 13.86,26.47 C 13.86,26.34 13.8,26.21 13.66,26.11 V 26 H 14.41 L 15.52,28.1 L 16.62,26 H 17.35 V 26.1 C 17.22,26.21 17.15,26.34 17.15,26.47 L 17.17,26.77 L 17.67,30.34 C 17.72,30.78 17.91,30.91 18,30.92 V 31 H 16.94 V 30.9 C 17.04,30.87 17.18,30.71 17.18,30.58 C 17.18,30.48 17.15,30.32 17.14,30.26 L 16.73,27.16 L 15.53,29.21 L 14.3,27.16 L 13.9,30.26 C 13.88,30.32 13.85,30.47 13.85,30.58 C 13.85,30.71 13.99,30.87 14.1,30.89 V 31 H 13 Z M 7.92,30.06 L 8,30.13 C 7.84,30.2 7.57,30.73 7.45,30.98 C 6.32,30.99 4.05,31.02 4.05,30.98 C 4.17,30.89 4.25,30.71 4.28,30.63 V 26.53 C 4.28,26.33 4.09,26.17 4,26.11 L 4.08,26 H 5.1 C 5.13,26.02 5.3,26.07 5.3,26.13 C 5.14,26.17 5.03,26.41 5,26.53 V 30.5 C 5.17,30.55 5.5,30.63 5.92,30.63 C 6.8,30.63 7.62,30.25 7.92,30.06 Z M 9.74,26 H 10.91 V 26.16 A 0.5,0.5 0 0,0 10.65,26.6 V 30.32 C 10.65,30.52 10.75,30.68 10.91,30.76 V 31 H 9.74 V 30.76 A 0.5,0.5 0 0,0 10,30.32 V 26.6 A 0.5,0.5 0 0,0 9.74,26.16 V 26 Z M 38.74,26 H 39.91 V 26.16 A 0.5,0.5 0 0,0 39.65,26.6 V 30.32 C 39.65,30.52 39.75,30.68 39.91,30.76 V 31 H 38.74 V 30.76 A 0.5,0.5 0 0,0 39,30.32 V 26.6 A 0.5,0.5 0 0,0 38.74,26.16 V 26 Z"/>
<path d="M 22.49,30.985 A 2.5,2.5 0 1,0 22.5,26 A 2.5,2.5 0 0,0 22.5,31 Z M 22.42,26.59 C 21.82,26.59 20.62,26.94 20.62,28.36 A 2.2,2.2 0 0,0 22.72,30.54 C 23.8,30.54 24.44,29.47 24.44,28.57 C 24.44,27.67 23.8,26.59 22.42,26.59 Z" fill-rule="evenodd"/>
<path d="M 36.050000000000004,26.585 V 26 H 32.75 C 32.95,26.1 33,26.3 33,26.4 V 30.48 C 33,30.77 32.83,30.95 32.75,31 H 36.49 C 36.51,30.85 36.84,30.42 37,30.21 A 0.48,0.48 0 0,1 36.92,30.11 C 36.49,30.45 35.65,30.66 35.04,30.66 A 8.5,8.5 0 0,1 33.68,30.53 V 27.86 H 34.46 L 34.78,28.09 V 27.29 L 34.43,27.49 H 33.68 V 26.34 H 35.48 C 35.76,26.34 35.98,26.51 36.06,26.6 Z M 47,30.72 L 49.4,26 L 51.6,30.48 C 51.65,30.58 51.82,30.81 52,30.84 V 31 H 50.76 V 30.89 C 50.84,30.86 50.99,30.77 50.99,30.64 L 50.2,29 H 48.46 L 47.49,30.92 L 46.99,30.72 Z M 48.59,28.76 H 50.09 L 49.36,27.21 L 48.59,28.76 Z"/>
</svg>
