<?xml version="1.0" encoding="UTF-8"?>
<!-- generated by Finnhub -->
<svg fill="none" viewBox="0 0 55.5 55.5" xmlns="http://www.w3.org/2000/svg">
<rect width="56" height="56" fill="url(#a)"/>
<path d="M 27.956,11.985 H 28.0001 H 28.0342 C 28.423,12.0008 28.7376,12.3167 28.7368,12.7055 C 28.7359,13.0943 28.4201,13.4088 28.0313,13.408 H 28.0001 H 27.9689 C 27.5801,13.4088 27.2643,13.0943 27.2635,12.7055 C 27.2626,12.3167 27.5772,12.0008 27.966,12 Z M 26.3344,12.7774 C 26.3939,13.1616 26.1307,13.5213 25.7465,13.5809 C 25.726,13.584 25.7055,13.5873 25.6851,13.5905 C 25.3011,13.6517 24.9403,13.39 24.8791,13.0061 C 24.8179,12.6221 25.0796,12.2612 25.4635,12.2001 C 25.486,12.1965 25.5084,12.193 25.5309,12.1895 C 25.9151,12.1299 26.2748,12.3931 26.3344,12.7774 Z M 29.6658,12.7774 C 29.7254,12.3931 30.0851,12.1299 30.4693,12.1895 C 30.4918,12.193 30.5142,12.1965 30.5367,12.2001 C 30.9206,12.2612 31.1823,12.6221 31.1211,13.0061 C 31.0599,13.39 30.6991,13.6517 30.3151,13.5905 C 30.2947,13.5873 30.2742,13.584 30.2537,13.5809 C 29.8695,13.5213 29.6063,13.1616 29.6658,12.7774 Z M 23.9727,13.2228 C 24.092,13.5929 23.8887,13.9896 23.5187,14.1089 C 23.499,14.1152 23.4793,14.1216 23.4597,14.128 C 23.0901,14.2489 22.6926,14.0473 22.5717,13.6778 C 22.4508,13.3082 22.6524,12.9107 23.0219,12.7898 C 23.0435,12.7827 23.0651,12.7757 23.0867,12.7688 C 23.4567,12.6495 23.8534,12.8528 23.9727,13.2228 Z M 32.0275,13.2228 C 32.1468,12.8528 32.5435,12.6495 32.9135,12.7688 C 32.9351,12.7757 32.9567,12.7827 32.9783,12.7898 C 33.3478,12.9107 33.5494,13.3082 33.4285,13.6778 C 33.3076,14.0473 32.9101,14.2489 32.5405,14.128 C 32.5209,14.1216 32.5012,14.1152 32.4816,14.1089 C 32.1115,13.9896 31.9082,13.5929 32.0275,13.2228 Z M 21.7115,14.0348 C 21.8875,14.3814 21.7492,14.8052 21.4026,14.9812 C 21.3842,14.9906 21.3658,15 21.3474,15.0094 C 21.0015,15.1869 20.5772,15.0504 20.3996,14.7045 C 20.2221,14.3586 20.3586,13.9343 20.7045,13.7568 C 20.7246,13.7464 20.7448,13.7361 20.765,13.7259 C 21.1117,13.5498 21.5354,13.6881 21.7115,14.0348 Z M 34.2895,14.0348 C 34.4656,13.6881 34.8893,13.5498 35.236,13.7259 C 35.2562,13.7361 35.2764,13.7464 35.2965,13.7568 C 35.6424,13.9343 35.7789,14.3586 35.6014,14.7045 S 34.9995,15.1869 34.6536,15.0094 C 34.6352,15 34.6168,14.9906 34.5984,14.9812 C 34.2518,14.8052 34.1135,14.3814 34.2895,14.0348 Z M 19.6055,15.1922 C 19.8336,15.507 19.7633,15.9472 19.4485,16.1753 C 19.4317,16.1874 19.415,16.1996 19.3984,16.2118 C 19.0845,16.4412 18.644,16.3728 18.4146,16.0589 C 18.1851,15.745 18.2536,15.3046 18.5674,15.0751 C 18.5857,15.0617 18.604,15.0484 18.6223,15.0351 C 18.9372,14.807 19.3774,14.8773 19.6055,15.1922 Z M 36.3955,15.1922 C 36.6236,14.8773 37.0638,14.807 37.3787,15.0351 C 37.397,15.0484 37.4153,15.0617 37.4336,15.0751 C 37.7474,15.3046 37.8159,15.745 37.5864,16.0589 C 37.357,16.3728 36.9165,16.4412 36.6026,16.2118 C 36.586,16.1996 36.5693,16.1874 36.5526,16.1753 C 36.2377,15.9472 36.1674,15.507 36.3955,15.1922 Z M 17.7065,16.6644 C 17.9809,16.9399 17.9799,17.3857 17.7044,17.66 L 17.6606,17.7038 C 17.3863,17.9793 16.9405,17.9803 16.665,17.7059 C 16.3895,17.4316 16.3886,16.9858 16.6629,16.7103 L 16.7109,16.6623 C 16.9864,16.388 17.4322,16.3889 17.7065,16.6644 Z M 38.2945,16.6644 C 38.5688,16.3889 39.0146,16.388 39.2901,16.6623 L 39.3381,16.7103 C 39.6124,16.9858 39.6115,17.4316 39.336,17.7059 C 39.0605,17.9803 38.6147,17.9793 38.3404,17.7038 L 38.2966,17.66 C 38.0211,17.3857 38.0201,16.9399 38.2945,16.6644 Z M 16.0595,18.4142 C 16.3734,18.6436 16.4418,19.0841 16.2124,19.398 C 16.2002,19.4146 16.188,19.4313 16.1759,19.4481 C 15.9478,19.7629 15.5076,19.8332 15.1928,19.6051 C 14.8779,19.377 14.8076,18.9368 15.0357,18.6219 C 15.049,18.6036 15.0623,18.5853 15.0757,18.567 C 15.3052,18.2532 15.7456,18.1847 16.0595,18.4142 Z M 39.9415,18.4142 C 40.2554,18.1847 40.6958,18.2532 40.9253,18.567 C 40.9387,18.5853 40.952,18.6036 40.9653,18.6219 C 41.1934,18.9368 41.1231,19.377 40.8082,19.6051 C 40.4934,19.8332 40.0532,19.7629 39.8251,19.4481 C 39.813,19.4313 39.8008,19.4146 39.7886,19.398 C 39.5592,19.0841 39.6276,18.6436 39.9415,18.4142 Z M 14.7045,20.399 C 15.0504,20.5766 15.1869,21.0009 15.0094,21.3468 C 15,21.3652 14.9906,21.3836 14.9812,21.402 C 14.8052,21.7486 14.3814,21.8869 14.0348,21.7109 C 13.6881,21.5348 13.5498,21.1111 13.7259,20.7644 C 13.7361,20.7442 13.7464,20.724 13.7568,20.7039 C 13.9343,20.358 14.3586,20.2215 14.7045,20.399 Z M 41.2955,20.399 C 41.6414,20.2215 42.0657,20.358 42.2432,20.7039 C 42.2491,20.7153 42.2549,20.7267 42.2608,20.7381 C 42.2652,20.7469 42.2697,20.7557 42.2741,20.7644 C 42.4502,21.1111 42.3119,21.5348 41.9652,21.7109 C 41.6186,21.8869 41.1948,21.7486 41.0188,21.402 C 41.0094,21.3836 41,21.3652 40.9906,21.3468 C 40.8131,21.0009 40.9496,20.5766 41.2955,20.399 Z M 13.6775,22.5716 C 14.047,22.6925 14.2486,23.09 14.1277,23.4596 C 14.1213,23.4792 14.1149,23.4989 14.1086,23.5186 C 13.9893,23.8886 13.5926,24.0919 13.2225,23.9726 C 12.8525,23.8533 12.6492,23.4566 12.7685,23.0866 C 12.7754,23.065 12.7824,23.0434 12.7895,23.0218 C 12.9104,22.6523 13.3079,22.4507 13.6775,22.5716 Z M 42.3215,22.5716 C 42.6911,22.4507 43.0886,22.6523 43.2095,23.0218 C 43.2132,23.0332 43.217,23.0447 43.2207,23.0561 C 43.224,23.0662 43.2272,23.0764 43.2305,23.0866 C 43.3498,23.4566 43.1465,23.8533 42.7765,23.9726 C 42.4064,24.0919 42.0097,23.8886 41.8904,23.5186 C 41.8841,23.4989 41.8777,23.4792 41.8713,23.4596 C 41.7504,23.09 41.952,22.6925 42.3215,22.5716 Z M 13.0055,24.879 C 13.3894,24.9402 13.6511,25.301 13.5899,25.685 C 13.5867,25.7054 13.5834,25.7259 13.5803,25.7464 C 13.5207,26.1306 13.161,26.3938 12.7768,26.3343 C 12.3925,26.2747 12.1293,25.915 12.1889,25.5308 C 12.1924,25.5083 12.1959,25.4859 12.1995,25.4634 C 12.2606,25.0795 12.6215,24.8178 13.0055,24.879 Z M 42.9935,24.879 C 43.3775,24.8178 43.7384,25.0795 43.7995,25.4634 C 43.8031,25.4859 43.8067,25.5083 43.8101,25.5308 C 43.8697,25.915 43.6065,26.2747 43.2222,26.3343 C 42.838,26.3938 42.4783,26.1306 42.4187,25.7464 C 42.4156,25.7259 42.4123,25.7054 42.4091,25.685 C 42.3479,25.301 42.6096,24.9402 42.9935,24.879 Z M 12.7055,27.2633 C 13.0943,27.2642 13.4088,27.58 13.408,27.9688 V 28 V 28.0312 C 13.4088,28.42 13.0943,28.7358 12.7055,28.7367 C 12.3167,28.7375 12.0008,28.4229 12,28.0341 V 28 V 27.9659 C 12.0008,27.5771 12.3167,27.2625 12.7055,27.2633 Z M 43.2945,27.2634 C 43.6833,27.2625 43.9992,27.5771 44,27.9659 V 28 V 28.0341 C 43.9992,28.4229 43.6833,28.7375 43.2945,28.7367 C 42.9057,28.7358 42.5912,28.42 42.592,28.0312 V 28 V 27.9688 C 42.5912,27.58 42.9057,27.2642 43.2945,27.2634 Z M 12.7775,29.6657 C 13.1617,29.6062 13.5214,29.8694 13.581,30.2536 C 13.5841,30.2741 13.5874,30.2946 13.5906,30.315 C 13.6518,30.699 13.3901,31.0598 13.0062,31.121 C 12.6222,31.1822 12.2613,30.9205 12.2002,30.5366 C 12.1966,30.5141 12.1931,30.4917 12.1896,30.4692 C 12.13,30.085 12.3932,29.7253 12.7775,29.6657 Z M 43.2225,29.6657 C 43.6068,29.7253 43.87,30.085 43.8104,30.4692 C 43.8069,30.4917 43.8034,30.5141 43.7998,30.5366 C 43.7387,30.9205 43.3778,31.1822 42.9938,31.121 C 42.6099,31.0598 42.3482,30.699 42.4094,30.315 C 42.4126,30.2946 42.4159,30.2741 42.419,30.2536 C 42.4786,29.8694 42.8383,29.6062 43.2225,29.6657 Z M 13.2225,32.0274 C 13.5926,31.9081 13.9893,32.1114 14.1086,32.4814 C 14.1149,32.5011 14.1213,32.5208 14.1277,32.5404 C 14.2486,32.91 14.047,33.3075 13.6775,33.4284 C 13.3079,33.5493 12.9104,33.3477 12.7895,32.9782 C 12.7824,32.9566 12.7754,32.935 12.7685,32.9134 C 12.6492,32.5434 12.8525,32.1467 13.2225,32.0274 Z M 42.7765,32.0274 C 43.1465,32.1467 43.3498,32.5434 43.2305,32.9134 C 43.2265,32.9259 43.2225,32.9383 43.2184,32.9508 C 43.2155,32.9599 43.2125,32.969 43.2095,32.9782 C 43.0886,33.3477 42.6911,33.5493 42.3215,33.4284 C 41.952,33.3075 41.7504,32.91 41.8713,32.5404 C 41.8755,32.5276 41.8797,32.5147 41.8839,32.5018 C 41.886,32.495 41.8882,32.4882 41.8904,32.4815 C 42.0097,32.1114 42.4064,31.9081 42.7765,32.0274 Z M 14.0345,34.2891 C 14.3811,34.1131 14.8049,34.2514 14.9809,34.598 C 14.9903,34.6164 14.9997,34.6348 15.0091,34.6532 C 15.1866,34.9991 15.0501,35.4234 14.7042,35.601 C 14.3583,35.7785 13.934,35.642 13.7565,35.2961 C 13.7461,35.276 13.7358,35.2558 13.7256,35.2356 C 13.5495,34.8889 13.6878,34.4652 14.0345,34.2891 Z M 41.9645,34.2891 C 42.3112,34.4652 42.4495,34.8889 42.2734,35.2356 C 42.2632,35.2558 42.2529,35.276 42.2425,35.2961 C 42.065,35.642 41.6407,35.7785 41.2948,35.601 S 40.8124,34.9991 40.9899,34.6532 C 40.9954,34.6425 41.0009,34.6318 41.0063,34.6211 C 41.0102,34.6134 41.0142,34.6057 41.0181,34.598 C 41.1941,34.2514 41.6179,34.1131 41.9645,34.2891 Z M 15.1915,36.3949 C 15.5063,36.1668 15.9465,36.2371 16.1746,36.552 C 16.1867,36.5687 16.1989,36.5854 16.2111,36.602 C 16.4405,36.9159 16.3721,37.3564 16.0582,37.5858 C 15.7443,37.8153 15.3039,37.7468 15.0744,37.433 C 15.061,37.4147 15.0477,37.3964 15.0344,37.3781 C 14.8063,37.0632 14.8766,36.623 15.1915,36.3949 Z M 40.8075,36.3949 C 41.1224,36.623 41.1927,37.0632 40.9646,37.3781 C 40.9513,37.3964 40.938,37.4147 40.9246,37.433 C 40.6951,37.7468 40.2547,37.8153 39.9408,37.5858 C 39.6269,37.3564 39.5585,36.9159 39.7879,36.602 C 39.8001,36.5854 39.8123,36.5687 39.8244,36.552 C 40.0525,36.2371 40.4927,36.1668 40.8075,36.3949 Z M 16.6645,38.2941 C 16.94,38.0197 17.3858,38.0207 17.6601,38.2962 C 17.9455,38.5828 18.0113,39.029 17.706,39.3356 C 17.3992,39.6437 16.9492,39.5777 16.6624,39.2897 C 16.3881,39.0142 16.389,38.5684 16.6645,38.2941 Z M 39.3355,38.2941 C 39.611,38.5684 39.6119,39.0142 39.3376,39.2897 L 39.2896,39.3377 C 39.0141,39.612 38.5683,39.6111 38.294,39.3356 C 38.0196,39.0601 38.0206,38.6143 38.2961,38.34 L 38.3399,38.2962 C 38.6142,38.0207 39.06,38.0197 39.3355,38.2941 Z M 18.4145,39.9411 C 18.6439,39.6272 19.0844,39.5588 19.3983,39.7882 C 19.7248,40.0269 19.8592,40.4575 19.6054,40.8078 C 19.3503,41.1599 18.8954,41.1648 18.5673,40.9249 C 18.2535,40.6954 18.185,40.255 18.4145,39.9411 Z M 37.5865,39.9411 C 37.816,40.255 37.7475,40.6954 37.4337,40.9249 C 37.4154,40.9383 37.3971,40.9516 37.3788,40.9649 C 37.0639,41.193 36.6237,41.1227 36.3956,40.8078 C 36.1675,40.493 36.2378,40.0528 36.5527,39.8247 C 36.5694,39.8126 36.5861,39.8004 36.6027,39.7882 C 36.9166,39.5588 37.3571,39.6272 37.5865,39.9411 Z M 20.3995,41.2955 C 20.5771,40.9496 21.0014,40.8131 21.3473,40.9906 C 21.7071,41.1753 21.9073,41.5795 21.7114,41.9652 C 21.5145,42.353 21.066,42.4288 20.7044,42.2432 C 20.3585,42.0657 20.222,41.6414 20.3995,41.2955 Z M 35.6015,41.2955 C 35.779,41.6414 35.6425,42.0657 35.2966,42.2432 C 35.2765,42.2536 35.2563,42.2639 35.2361,42.2741 C 34.8894,42.4502 34.4657,42.3119 34.2896,41.9652 C 34.1136,41.6186 34.2519,41.1948 34.5985,41.0188 C 34.6169,41.0094 34.6353,41 34.6537,40.9906 C 34.9996,40.8131 35.4239,40.9496 35.6015,41.2955 Z M 22.5725,42.3222 C 22.6934,41.9527 23.0909,41.7511 23.4605,41.872 C 23.8449,41.9977 24.1063,42.3653 23.9735,42.7772 C 23.8542,43.1472 23.4575,43.3505 23.0875,43.2312 C 23.0659,43.2243 23.0443,43.2173 23.0227,43.2102 C 22.6532,43.0893 22.4516,42.6918 22.5725,42.3222 Z M 33.4295,42.3222 C 33.5504,42.6918 33.3488,43.0893 32.9793,43.2102 C 32.9577,43.2173 32.9361,43.2243 32.9145,43.2312 C 32.5445,43.3505 32.1478,43.1472 32.0285,42.7772 C 31.9092,42.4071 32.1125,42.0104 32.4825,41.8911 C 32.5022,41.8848 32.5219,41.8784 32.5415,41.872 C 32.9111,41.7511 33.3086,41.9527 33.4295,42.3222 Z M 24.8801,42.9939 C 24.9444,42.5901 25.3272,42.3531 25.7173,42.4144 C 26.107,42.4756 26.3979,42.8193 26.3354,43.2226 C 26.2688,43.6525 25.866,43.8639 25.4645,43.7999 C 25.0806,43.7388 24.8189,43.3779 24.8801,42.9939 Z M 31.1221,42.9939 C 31.1833,43.3779 30.9216,43.7388 30.5377,43.7999 C 30.5152,43.8035 30.4928,43.8071 30.4703,43.8105 C 30.0861,43.8701 29.7264,43.6069 29.6668,43.2226 C 29.6073,42.8384 29.8705,42.4787 30.2547,42.4191 C 30.2752,42.416 30.2957,42.4127 30.3161,42.4095 C 30.7001,42.3483 31.0609,42.61 31.1221,42.9939 Z M 27.2644,43.2945 C 27.2653,42.9057 27.5811,42.5912 27.9699,42.592 H 28.0011 H 28.0323 C 28.4211,42.5912 28.7369,42.9057 28.7378,43.2945 C 28.7386,43.6833 28.424,43.9992 28.0352,44 H 28.0011 H 27.967 C 27.5782,43.9992 27.2636,43.6833 27.2644,43.2945 Z" clip-rule="evenodd" fill="rgb(186, 219, 153)" fill-rule="evenodd"/>
<path d="M 27.956999999999997,10.985 C 28.195,10.9998 28.4154,11.1245 28.4149,11.3828 C 28.4144,11.6396 28.1956,11.7639 27.9685,11.7641 C 27.7575,11.7645 27.5861,11.5938 27.5857,11.3828 S 27.756,11.0004 27.967,11 Z M 29.5931,11.453 C 29.6233,11.1971 29.8558,11.0986 30.0832,11.1264 C 30.2926,11.152 30.4416,11.3425 30.4161,11.5519 C 30.3849,11.8066 30.1542,11.904 29.9276,11.8772 C 29.7181,11.8524 29.5683,11.6625 29.5931,11.453 Z M 26.4075,11.453 C 26.4323,11.6625 26.2825,11.8524 26.073,11.8772 C 25.8464,11.904 25.6157,11.8066 25.5845,11.5519 C 25.559,11.3425 25.708,11.152 25.9174,11.1264 C 26.1448,11.0986 26.3773,11.1971 26.4075,11.453 Z M 31.5762,11.7632 C 31.6372,11.513 31.8797,11.4431 32.1021,11.4982 C 32.3068,11.549 32.4317,11.7561 32.381,11.9609 C 32.3193,12.2099 32.0786,12.2788 31.857,12.2248 C 31.652,12.1748 31.5263,11.9682 31.5762,11.7632 Z M 24.4244,11.7632 C 24.4743,11.9682 24.3486,12.1748 24.1436,12.2248 C 23.922,12.2788 23.6813,12.2099 23.6196,11.9609 C 23.5689,11.7561 23.6938,11.549 23.8985,11.4982 C 24.1209,11.4431 24.3634,11.513 24.4244,11.7632 Z M 22.4934,12.3115 C 22.5679,12.5089 22.4682,12.7293 22.2708,12.8038 C 22.0573,12.8843 21.81,12.8453 21.7184,12.6056 C 21.6432,12.4085 21.742,12.1877 21.9391,12.1124 C 22.1532,12.0307 22.4025,12.0704 22.4934,12.3115 Z M 33.5074,12.3115 C 33.5983,12.0704 33.8476,12.0307 34.0617,12.1124 C 34.2588,12.1877 34.3576,12.4085 34.2824,12.6056 C 34.1908,12.8453 33.9435,12.8843 33.73,12.8038 C 33.5326,12.7293 33.4329,12.5089 33.5074,12.3115 Z M 20.6434,13.0903 C 20.7413,13.2772 20.6691,13.5081 20.4821,13.6059 C 20.28,13.7117 20.0298,13.7029 19.9099,13.4761 C 19.8113,13.2895 19.8827,13.0584 20.0692,12.9598 C 20.2717,12.8528 20.524,12.8621 20.6434,13.0903 Z M 35.3574,13.0903 C 35.4768,12.8621 35.7291,12.8528 35.9316,12.9598 C 36.1182,13.0584 36.1895,13.2895 36.0909,13.4761 C 35.971,13.7029 35.7208,13.7117 35.5187,13.6059 C 35.3317,13.5081 35.2595,13.2772 35.3574,13.0903 Z M 18.9004,14.0872 C 19.0201,14.261 18.9762,14.4989 18.8025,14.6185 C 18.6146,14.7479 18.365,14.7694 18.2187,14.5587 C 18.0984,14.3854 18.1413,14.1473 18.3146,14.027 C 18.5028,13.8963 18.7543,13.875 18.9004,14.0872 Z M 37.0994,14.0872 C 37.2405,13.8823 37.4962,13.8957 37.6852,14.027 C 37.8585,14.1473 37.9014,14.3854 37.7811,14.5587 C 37.6348,14.7694 37.3852,14.7479 37.1973,14.6185 C 37.0236,14.4989 36.9797,14.261 37.0994,14.0872 Z M 17.2904,15.2867 C 17.43,15.4449 17.4151,15.6863 17.2569,15.826 C 17.0859,15.977 16.8408,16.0282 16.6702,15.8366 C 16.5299,15.679 16.544,15.4375 16.7016,15.2972 C 16.8727,15.1449 17.1199,15.0936 17.2904,15.2867 Z M 38.7084,15.2867 C 38.879,15.0936 39.1261,15.1449 39.2972,15.2972 C 39.4548,15.4375 39.4689,15.679 39.3286,15.8366 C 39.158,16.0282 38.9129,15.977 38.7419,15.826 C 38.5837,15.6863 38.5688,15.4449 38.7084,15.2867 Z M 15.8354,16.6706 C 15.993,16.8109 16.007,17.0524 15.8667,17.21 C 15.7151,17.3804 15.4778,17.4606 15.2855,17.2908 C 15.1274,17.1511 15.1124,16.9097 15.2521,16.7516 C 15.4037,16.5798 15.6429,16.4993 15.8354,16.6706 Z M 40.1624,16.6706 C 40.3499,16.5037 40.5936,16.5792 40.7457,16.7516 C 40.8854,16.9097 40.8704,17.1511 40.7123,17.2908 C 40.52,17.4606 40.2827,17.3804 40.1311,17.21 C 39.9908,17.0524 40.0048,16.8109 40.1624,16.6706 Z M 14.5574,18.2188 C 14.7307,18.3391 14.7736,18.5772 14.6533,18.7505 C 14.5231,18.9379 14.2973,19.046 14.0859,18.9005 C 13.9122,18.7808 13.8683,18.543 13.988,18.3692 C 14.1179,18.1805 14.3457,18.0718 14.5574,18.2188 Z M 41.4404,18.2188 C 41.6521,18.0718 41.8799,18.1805 42.0098,18.3692 C 42.1295,18.543 42.0856,18.7808 41.9119,18.9005 C 41.7004,19.0461 41.4742,18.9371 41.3445,18.7505 C 41.2242,18.5772 41.2671,18.3391 41.4404,18.2188 Z M 13.4754,19.9093 C 13.6619,20.0079 13.7332,20.239 13.6347,20.4256 C 13.5281,20.6273 13.3169,20.7618 13.0896,20.6428 C 12.9027,20.545 12.8305,20.3141 12.9283,20.1272 C 13.0345,19.9243 13.2476,19.789 13.4754,19.9093 Z M 42.5234,19.9093 C 42.7513,19.7889 42.9644,19.9249 43.0705,20.1272 C 43.1683,20.3141 43.0961,20.545 42.9092,20.6428 C 42.7223,20.7407 42.4914,20.6685 42.3936,20.4815 C 42.2878,20.2794 42.2966,20.0292 42.5234,19.9093 Z M 12.6054,21.7181 C 12.8025,21.7934 12.9013,22.0142 12.826,22.2113 C 12.7447,22.4244 12.5514,22.5837 12.3113,22.4931 C 12.1139,22.4187 12.0142,22.1983 12.0887,22.0009 C 12.1696,21.7865 12.3646,21.6262 12.6054,21.7181 Z M 43.3944,21.7181 C 43.6352,21.6262 43.8302,21.7865 43.9111,22.0009 C 43.9856,22.1983 43.8859,22.4187 43.6885,22.4931 C 43.4911,22.5676 43.2707,22.4679 43.1962,22.2705 C 43.1157,22.057 43.1547,21.8097 43.3944,21.7181 Z M 44.0391,23.6193 C 44.2891,23.5574 44.4634,23.7399 44.5176,23.9625 C 44.5675,24.1675 44.4418,24.3741 44.2368,24.4241 C 43.9876,24.4848 43.815,24.3034 43.7602,24.082 C 43.7094,23.8772 43.8343,23.67 44.0391,23.6193 Z M 11.9611,23.6193 C 12.1659,23.67 12.2908,23.8772 12.24,24.082 C 12.1852,24.3034 12.0126,24.4848 11.7634,24.4241 C 11.5584,24.3741 11.4327,24.1675 11.4826,23.9625 C 11.5369,23.7399 11.7111,23.5574 11.9611,23.6193 Z M 44.4481,25.5842 C 44.7039,25.553 44.8546,25.7555 44.8816,25.983 C 44.9063,26.1925 44.7566,26.3824 44.547,26.4072 C 44.3375,26.432 44.1476,26.2822 44.1228,26.0727 C 44.0962,25.8477 44.193,25.6154 44.4481,25.5842 Z M 11.5521,25.5842 C 11.7615,25.6098 11.9106,25.8004 11.885,26.0098 C 11.8573,26.2363 11.708,26.4374 11.4532,26.4072 C 11.1973,26.377 11.0988,26.1445 11.1266,25.9171 C 11.1522,25.7077 11.3427,25.5587 11.5521,25.5842 Z M 44.6171,27.5854 C 44.8754,27.5849 45.0001,27.8053 44.9999,28.0333 C 44.9995,28.2443 44.8281,28.415 44.6171,28.4146 S 44.2354,28.2428 44.2358,28.0318 C 44.236,27.8046 44.3603,27.5859 44.6171,27.5854 Z M 11.3831,27.5854 C 11.616,27.5859 11.7646,27.781 11.7643,28 C 11.7646,28.219 11.616,28.4141 11.3831,28.4146 C 11.1721,28.415 11.0007,28.2443 11.0003,28.0333 C 11.0001,27.8053 11.1248,27.5849 11.3831,27.5854 Z M 44.5471,29.5928 C 44.803,29.623 44.9015,29.8555 44.8737,30.0829 C 44.8481,30.2923 44.6576,30.4413 44.4482,30.4158 C 44.2388,30.3902 44.0897,30.1996 44.1153,29.9902 C 44.143,29.7637 44.2923,29.5626 44.5471,29.5928 Z M 11.4531,29.5928 C 11.6626,29.568 11.8525,29.7178 11.8773,29.9273 C 11.9041,30.1539 11.8067,30.3846 11.552,30.4158 C 11.2962,30.447 11.1454,30.2445 11.1185,30.017 C 11.0938,29.8075 11.2435,29.6176 11.4531,29.5928 Z M 44.2371,31.5759 C 44.4873,31.6369 44.5572,31.8794 44.5021,32.1018 C 44.4513,32.3065 44.2442,32.4314 44.0394,32.3807 S 43.7097,32.1228 43.7605,31.918 C 43.8153,31.6966 43.9879,31.5152 44.2371,31.5759 Z M 11.7631,31.5759 C 11.9681,31.526 12.1747,31.6517 12.2247,31.8567 C 12.2787,32.0783 12.2098,32.319 11.9608,32.3807 C 11.7108,32.4426 11.5366,32.2601 11.4823,32.0375 C 11.4324,31.8325 11.5581,31.6259 11.7631,31.5759 Z M 12.3114,33.5069 C 12.5088,33.4324 12.7292,33.5321 12.8037,33.7295 C 12.8842,33.943 12.8452,34.1903 12.6055,34.2819 C 12.4084,34.3571 12.1876,34.2583 12.1123,34.0612 C 12.0306,33.8471 12.0703,33.5978 12.3114,33.5069 Z M 43.6884,33.5069 C 43.9295,33.5978 43.9692,33.8471 43.8875,34.0612 C 43.8122,34.2583 43.5914,34.3571 43.3943,34.2819 C 43.1972,34.2066 43.0984,33.9858 43.1737,33.7887 C 43.2547,33.5764 43.4482,33.4163 43.6884,33.5069 Z M 13.0904,35.3572 C 13.2773,35.2593 13.5082,35.3315 13.606,35.5185 C 13.7118,35.7206 13.703,35.9708 13.4762,36.0907 C 13.2484,36.211 13.0353,36.0757 12.9291,35.8728 C 12.8313,35.6859 12.9035,35.455 13.0904,35.3572 Z M 42.9094,35.3572 C 43.1376,35.4766 43.1469,35.7289 43.0399,35.9314 C 42.9413,36.118 42.7102,36.1893 42.5236,36.0907 C 42.3371,35.9921 42.2658,35.761 42.3643,35.5744 C 42.4709,35.3727 42.6821,35.2382 42.9094,35.3572 Z M 14.0874,37.0995 C 14.2923,36.9584 14.5258,37.0638 14.6548,37.2495 C 14.7751,37.4228 14.7322,37.6609 14.5589,37.7812 S 14.1475,37.8586 14.0272,37.6853 C 13.8965,37.4971 13.8752,37.2456 14.0874,37.0995 Z M 41.9134,37.0995 C 42.1256,37.2456 42.1043,37.4971 41.9736,37.6853 C 41.8533,37.8586 41.6152,37.9015 41.4419,37.7812 S 41.2257,37.4228 41.346,37.2495 C 41.4762,37.0621 41.702,36.954 41.9134,37.0995 Z M 15.2874,38.7092 C 15.4456,38.5696 15.687,38.5845 15.8267,38.7427 C 15.9777,38.9137 16.0289,39.1588 15.8373,39.3294 C 15.6448,39.5007 15.4056,39.4202 15.254,39.2484 C 15.1143,39.0903 15.1293,38.8489 15.2874,38.7092 Z M 40.7144,38.7092 C 40.9075,38.8798 40.8562,39.1269 40.7039,39.298 C 40.5636,39.4556 40.3221,39.4697 40.1645,39.3294 S 39.9929,38.9476 40.1332,38.79 C 40.2848,38.6196 40.5221,38.5394 40.7144,38.7092 Z M 16.6714,40.1634 C 16.842,39.9718 17.0871,40.023 17.2581,40.174 C 17.4163,40.3137 17.4312,40.5551 17.2916,40.7133 C 17.1519,40.8714 16.9105,40.8864 16.7524,40.7467 C 16.5806,40.5951 16.5001,40.3559 16.6714,40.1634 Z M 39.3304,40.1634 C 39.5017,40.3559 39.4212,40.5951 39.2494,40.7467 C 39.0913,40.8864 38.8499,40.8714 38.7102,40.7133 C 38.5706,40.5551 38.5855,40.3137 38.7437,40.174 C 38.9147,40.023 39.1598,39.9718 39.3304,40.1634 Z M 18.2194,41.4413 C 18.3397,41.268 18.5778,41.2251 18.7511,41.3454 C 18.9385,41.4756 19.0466,41.7014 18.9011,41.9128 C 18.755,42.125 18.5035,42.1037 18.3153,41.973 C 18.142,41.8527 18.0991,41.6146 18.2194,41.4413 Z M 37.7814,41.4413 C 37.9284,41.653 37.8197,41.8808 37.631,42.0107 C 37.4572,42.1304 37.2194,42.0865 37.0997,41.9128 C 36.98,41.739 37.0239,41.5011 37.1976,41.3815 C 37.3855,41.2521 37.635,41.2306 37.7814,41.4413 Z M 19.9094,42.5239 C 20.008,42.3374 20.2391,42.2661 20.4257,42.3646 C 20.6256,42.4703 20.7586,42.6887 20.6429,42.9097 C 20.5267,43.1318 20.2695,43.1462 20.0687,43.0402 C 19.8822,42.9416 19.8108,42.7105 19.9094,42.5239 Z M 36.0904,42.5239 C 36.2066,42.7438 36.0736,42.9656 35.8725,43.071 C 35.6856,43.1688 35.4547,43.0966 35.3569,42.9097 C 35.259,42.7228 35.3312,42.4919 35.5182,42.3941 C 35.7203,42.2883 35.9705,42.2971 36.0904,42.5239 Z M 21.7174,43.3944 C 21.7927,43.1973 22.0135,43.0985 22.2106,43.1738 C 22.4238,43.2551 22.583,43.4484 22.4924,43.6885 C 22.4015,43.9296 22.1522,43.9693 21.9381,43.8876 C 21.741,43.8123 21.6422,43.5915 21.7174,43.3944 Z M 34.2814,43.3944 C 34.3733,43.6352 34.213,43.8302 33.9986,43.9111 C 33.8012,43.9856 33.5808,43.8859 33.5064,43.6885 C 33.4319,43.4911 33.5316,43.2707 33.729,43.1962 C 33.9425,43.1157 34.1898,43.1547 34.2814,43.3944 Z M 32.3802,44.0391 C 32.4421,44.2891 32.2596,44.4634 32.037,44.5176 C 31.832,44.5675 31.6254,44.4418 31.5754,44.2368 C 31.5255,44.0318 31.6512,43.8252 31.8562,43.7752 C 32.0778,43.7212 32.3185,43.7901 32.3802,44.0391 Z M 23.6188,44.0391 C 23.6695,43.8343 23.8767,43.7094 24.0815,43.7602 C 24.3029,43.815 24.4843,43.9876 24.4236,44.2368 C 24.3626,44.487 24.1201,44.5569 23.8977,44.5018 C 23.693,44.451 23.5681,44.2439 23.6188,44.0391 Z M 25.5837,44.4481 C 25.6093,44.2387 25.7999,44.0896 26.0093,44.1152 C 26.2358,44.1429 26.4369,44.2922 26.4067,44.547 C 26.3764,44.8031 26.1431,44.9013 25.9166,44.8736 C 25.7072,44.848 25.5582,44.6575 25.5837,44.4481 Z M 30.4153,44.4481 C 30.4465,44.7039 30.244,44.8546 30.0165,44.8816 C 29.807,44.9063 29.6171,44.7566 29.5923,44.547 C 29.5675,44.3375 29.7173,44.1476 29.9268,44.1228 C 30.1534,44.096 30.3841,44.1934 30.4153,44.4481 Z M 27.5849,44.6172 C 27.5853,44.4062 27.7567,44.2355 27.9677,44.2359 C 28.1949,44.2361 28.4136,44.3604 28.4141,44.6172 C 28.4146,44.8755 28.1942,45.0002 27.9662,45 C 27.7552,44.9996 27.5845,44.8282 27.5849,44.6172 Z" clip-rule="evenodd" fill="rgb(212, 232, 191)" fill-rule="evenodd"/>
<path d="M 27.955,13.985 H 28.0001 H 28.0352 C 28.4218,14.001 28.7344,14.3152 28.7334,14.7018 C 28.7325,15.0884 28.4183,15.401 28.0317,15.4 H 28.0001 H 27.9685 C 27.5819,15.401 27.2677,15.0884 27.2668,14.7018 C 27.2658,14.3152 27.5784,14.001 27.965,14 Z M 26.4119,14.7753 C 26.4776,15.1562 26.2221,15.5184 25.8411,15.5841 C 25.8205,15.5877 25.7998,15.5913 25.7792,15.595 C 25.3986,15.6626 25.0352,15.4089 24.9675,15.0283 S 25.1536,14.2843 25.5342,14.2166 C 25.5571,14.2125 25.5801,14.2085 25.603,14.2045 C 25.984,14.1388 26.3461,14.3943 26.4119,14.7753 Z M 29.5883,14.7753 C 29.6541,14.3943 30.0162,14.1388 30.3972,14.2045 C 30.4201,14.2085 30.4431,14.2125 30.466,14.2166 C 30.8466,14.2843 31.1004,14.6477 31.0327,15.0283 S 30.6016,15.6626 30.221,15.595 C 30.2004,15.5913 30.1797,15.5877 30.1591,15.5841 C 29.7781,15.5184 29.5226,15.1562 29.5883,14.7753 Z M 24.1394,15.2496 C 24.2708,15.6132 24.0825,16.0144 23.7189,16.1458 C 23.6992,16.1529 23.6796,16.16 23.66,16.1672 C 23.297,16.3004 22.8949,16.1141 22.7617,15.7512 C 22.6285,15.3882 22.8148,14.9861 23.1777,14.8529 C 23.1996,14.8449 23.2214,14.8369 23.2433,14.829 C 23.6069,14.6977 24.0081,14.886 24.1394,15.2496 Z M 31.8608,15.2496 C 31.9921,14.886 32.3933,14.6977 32.7569,14.829 C 32.7788,14.8369 32.8006,14.8449 32.8225,14.8529 C 33.1854,14.9861 33.3717,15.3882 33.2385,15.7512 C 33.1053,16.1141 32.7032,16.3004 32.3402,16.1672 C 32.3206,16.16 32.301,16.1529 32.2813,16.1458 C 31.9177,16.0144 31.7294,15.6132 31.8608,15.2496 Z M 21.9845,16.1143 C 22.1773,16.4494 22.0619,16.8773 21.7268,17.0701 C 21.7087,17.0806 21.6905,17.091 21.6724,17.1016 C 21.3383,17.296 20.9098,17.1828 20.7153,16.8486 C 20.5209,16.5145 20.6341,16.086 20.9683,15.8915 C 20.9884,15.8798 21.0085,15.8682 21.0287,15.8566 C 21.3638,15.6638 21.7918,15.7792 21.9845,16.1143 Z M 34.0155,16.1143 C 34.2082,15.7792 34.6362,15.6638 34.9713,15.8566 C 34.9915,15.8682 35.0116,15.8798 35.0317,15.8915 C 35.3659,16.086 35.4791,16.5145 35.2847,16.8486 C 35.0902,17.1828 34.6617,17.296 34.3276,17.1016 C 34.3095,17.091 34.2913,17.0806 34.2732,17.0701 C 33.9381,16.8773 33.8227,16.4494 34.0155,16.1143 Z M 20.0135,17.3411 C 20.2614,17.6377 20.2219,18.0792 19.9252,18.3271 C 19.9092,18.3406 19.8931,18.354 19.8771,18.3675 C 19.5817,18.6169 19.14,18.5796 18.8907,18.2842 C 18.6413,17.9888 18.6786,17.5472 18.974,17.2978 C 18.9918,17.2828 19.0096,17.2678 19.0275,17.2529 C 19.3241,17.005 19.7655,17.0445 20.0135,17.3411 Z M 35.9865,17.3411 C 36.2345,17.0445 36.6759,17.005 36.9726,17.2529 C 36.9904,17.2678 37.0082,17.2828 37.026,17.2978 C 37.3214,17.5472 37.3587,17.9888 37.1093,18.2842 C 36.86,18.5796 36.4183,18.6169 36.1229,18.3676 C 36.1069,18.354 36.0908,18.3406 36.0748,18.3271 C 35.7781,18.0792 35.7386,17.6377 35.9865,17.3411 Z M 18.2845,18.8906 C 18.5799,19.1399 18.6172,19.5816 18.3679,19.877 C 18.3543,19.893 18.3409,19.9091 18.3274,19.9251 C 18.0795,20.2218 17.638,20.2613 17.3414,20.0134 C 17.0448,19.7654 17.0053,19.324 17.2532,19.0273 C 17.2681,19.0095 17.2831,18.9917 17.2981,18.9739 C 17.5475,18.6785 17.9891,18.6412 18.2845,18.8906 Z M 37.7165,18.8906 C 38.0119,18.6412 38.4535,18.6785 38.7029,18.9739 C 38.7179,18.9917 38.7329,19.0095 38.7478,19.0274 C 38.9957,19.324 38.9562,19.7654 38.6596,20.0134 C 38.363,20.2613 37.9215,20.2218 37.6736,19.9251 C 37.666,19.916 37.6584,19.9069 37.6507,19.8979 C 37.6449,19.8909 37.639,19.8839 37.6332,19.877 C 37.3838,19.5816 37.4211,19.1399 37.7165,18.8906 Z M 16.8495,20.7152 C 17.1837,20.9097 17.2969,21.3382 17.1025,21.6723 C 17.0919,21.6904 17.0815,21.7086 17.071,21.7267 C 16.8782,22.0618 16.4503,22.1772 16.1152,21.9844 S 15.6647,21.3637 15.8575,21.0286 C 15.8691,21.0084 15.8807,20.9883 15.8924,20.9682 C 16.0869,20.634 16.5154,20.5208 16.8495,20.7152 Z M 39.1525,20.7152 C 39.4866,20.5208 39.9151,20.634 40.1096,20.9682 C 40.1171,20.9812 40.1247,20.9942 40.1322,21.0073 C 40.1363,21.0144 40.1404,21.0215 40.1445,21.0286 C 40.3373,21.3637 40.2219,21.7917 39.8868,21.9844 C 39.5517,22.1772 39.1238,22.0618 38.931,21.7267 C 38.9205,21.7086 38.9101,21.6904 38.8995,21.6723 C 38.7051,21.3382 38.8183,20.9097 39.1525,20.7152 Z M 15.7525,22.7616 C 16.1154,22.8948 16.3017,23.2969 16.1685,23.6599 C 16.1613,23.6795 16.1542,23.6991 16.1471,23.7188 C 16.0157,24.0824 15.6145,24.2707 15.2509,24.1393 C 14.8873,24.008 14.699,23.6068 14.8303,23.2432 C 14.8382,23.2213 14.8462,23.1995 14.8542,23.1776 C 14.9874,22.8147 15.3895,22.6284 15.7525,22.7616 Z M 40.2505,22.7616 C 40.6135,22.6284 41.0156,22.8147 41.1488,23.1776 C 41.1526,23.1879 41.1563,23.1983 41.1601,23.2086 C 41.1643,23.2201 41.1685,23.2316 41.1727,23.2432 C 41.304,23.6068 41.1157,24.008 40.7521,24.1393 C 40.3885,24.2707 39.9873,24.0824 39.8559,23.7188 C 39.8488,23.6991 39.8417,23.6795 39.8345,23.6599 C 39.7013,23.2969 39.8876,22.8948 40.2505,22.7616 Z M 15.0305,24.9674 C 15.4111,25.0351 15.6648,25.3985 15.5972,25.7791 C 15.5935,25.7997 15.5899,25.8204 15.5863,25.841 C 15.5206,26.222 15.1584,26.4775 14.7775,26.4118 C 14.3965,26.346 14.141,25.9839 14.2067,25.6029 C 14.2107,25.58 14.2147,25.557 14.2188,25.5341 C 14.2865,25.1535 14.6499,24.8997 15.0305,24.9674 Z M 40.9735,24.9674 C 41.3541,24.8997 41.7175,25.1535 41.7852,25.5341 C 41.7893,25.557 41.7933,25.58 41.7973,25.6029 C 41.863,25.9839 41.6075,26.346 41.2265,26.4118 C 40.8456,26.4775 40.4834,26.222 40.4177,25.841 C 40.4141,25.8204 40.4105,25.7997 40.4068,25.7791 C 40.3392,25.3985 40.5929,25.0351 40.9735,24.9674 Z M 14.7035,27.2667 C 15.0901,27.2676 15.4027,27.5818 15.4017,27.9684 V 27.9931 V 28 V 28.0316 C 15.4027,28.4182 15.0901,28.7324 14.7035,28.7333 C 14.3169,28.7343 14.0027,28.4217 14.0017,28.0351 V 28 V 27.9649 C 14.0027,27.5783 14.3169,27.2657 14.7035,27.2667 Z M 41.2995,27.2667 C 41.6861,27.2657 42.0003,27.5783 42.0013,27.9649 V 27.9837 V 28 V 28.0351 C 42.0003,28.4217 41.6861,28.7343 41.2995,28.7333 C 40.9129,28.7324 40.6003,28.4182 40.6013,28.0316 V 28 V 27.9684 C 40.6003,27.5818 40.9129,27.2676 41.2995,27.2667 Z M 14.7765,29.5882 C 15.1574,29.5225 15.5196,29.778 15.5853,30.159 C 15.5889,30.1796 15.5925,30.2003 15.5962,30.2209 C 15.6638,30.6015 15.4101,30.9649 15.0295,31.0326 S 14.2855,30.8465 14.2178,30.4659 C 14.2137,30.443 14.2097,30.42 14.2057,30.3971 C 14.14,30.0161 14.3955,29.654 14.7765,29.5882 Z M 41.2255,29.5882 C 41.6065,29.654 41.862,30.0161 41.7963,30.3971 L 41.7897,30.4349 C 41.7879,30.4452 41.786,30.4556 41.7842,30.4659 C 41.7165,30.8465 41.3531,31.1003 40.9725,31.0326 S 40.3382,30.6015 40.4058,30.2209 C 40.4095,30.2003 40.4131,30.1796 40.4167,30.159 C 40.4824,29.778 40.8446,29.5225 41.2255,29.5882 Z M 15.2505,31.8607 C 15.6141,31.7293 16.0153,31.9176 16.1467,32.2812 C 16.1538,32.3009 16.1609,32.3205 16.1681,32.3401 C 16.3013,32.7031 16.115,33.1052 15.7521,33.2384 C 15.3891,33.3716 14.987,33.1853 14.8538,32.8224 C 14.8458,32.8005 14.8378,32.7787 14.8299,32.7568 C 14.6986,32.3932 14.8869,31.992 15.2505,31.8607 Z M 40.7515,31.8607 C 41.1151,31.992 41.3034,32.3932 41.172,32.7568 C 41.1642,32.7787 41.1562,32.8005 41.1482,32.8224 C 41.015,33.1853 40.6129,33.3716 40.2499,33.2384 C 39.887,33.1052 39.7007,32.7031 39.8339,32.3401 L 39.8444,32.3113 C 39.8481,32.3013 39.8517,32.2912 39.8553,32.2812 C 39.9867,31.9176 40.3879,31.7293 40.7515,31.8607 Z M 16.1155,34.0156 C 16.4506,33.8228 16.8785,33.9382 17.0713,34.2733 C 17.0818,34.2914 17.0922,34.3096 17.1028,34.3277 C 17.2972,34.6618 17.184,35.0903 16.8498,35.2848 C 16.5157,35.4792 16.0872,35.366 15.8927,35.0318 C 15.881,35.0117 15.8694,34.9916 15.8578,34.9714 C 15.665,34.6363 15.7804,34.2083 16.1155,34.0156 Z M 39.8865,34.0156 C 40.2216,34.2083 40.337,34.6363 40.1442,34.9714 C 40.1326,34.9916 40.121,35.0117 40.1093,35.0318 C 39.9148,35.366 39.4863,35.4792 39.1522,35.2848 C 38.818,35.0903 38.7048,34.6618 38.8992,34.3277 C 38.9098,34.3096 38.9202,34.2914 38.9307,34.2733 C 39.1235,33.9382 39.5514,33.8228 39.8865,34.0156 Z M 17.3415,35.9866 C 17.6381,35.7387 18.0796,35.7782 18.3275,36.0749 C 18.341,36.0909 18.3544,36.107 18.3679,36.123 C 18.6173,36.4184 18.58,36.8601 18.2846,37.1094 C 17.9892,37.3588 17.5476,37.3215 17.2982,37.0261 C 17.2832,37.0083 17.2682,36.9905 17.2533,36.9726 C 17.0054,36.676 17.0449,36.2346 17.3415,35.9866 Z M 38.6595,35.9866 C 38.9561,36.2346 38.9956,36.676 38.7477,36.9727 C 38.7328,36.9905 38.7178,37.0083 38.7028,37.0261 C 38.4534,37.3215 38.0118,37.3588 37.7164,37.1094 C 37.421,36.8601 37.3837,36.4184 37.633,36.123 C 37.6466,36.107 37.66,36.0909 37.6735,36.0749 C 37.9214,35.7782 38.3629,35.7387 38.6595,35.9866 Z M 18.8915,37.7158 C 19.1408,37.4204 19.5825,37.3831 19.8779,37.6324 C 19.8939,37.646 19.91,37.6594 19.926,37.6729 C 20.2227,37.9208 20.2622,38.3623 20.0143,38.6589 C 19.7663,38.9555 19.3249,38.995 19.0282,38.7471 C 19.0104,38.7322 18.9926,38.7172 18.9748,38.7022 C 18.6794,38.4528 18.6421,38.0112 18.8915,37.7158 Z M 37.1105,37.7158 C 37.3599,38.0112 37.3226,38.4528 37.0272,38.7022 C 37.0094,38.7172 36.9916,38.7322 36.9737,38.7471 C 36.6771,38.995 36.2357,38.9555 35.9877,38.6589 C 35.7398,38.3623 35.7793,37.9208 36.076,37.6729 C 36.0838,37.6664 36.0915,37.6599 36.0993,37.6533 C 36.1076,37.6464 36.1158,37.6394 36.1241,37.6325 C 36.4195,37.3831 36.8612,37.4204 37.1105,37.7158 Z M 20.7165,39.1514 C 20.911,38.8172 21.3395,38.704 21.6736,38.8984 C 21.6917,38.909 21.7099,38.9194 21.728,38.9299 C 22.0631,39.1227 22.1785,39.5506 21.9857,39.8857 S 21.365,40.3362 21.0299,40.1434 C 21.0097,40.1318 20.9896,40.1202 20.9695,40.1085 C 20.6353,39.914 20.5221,39.4855 20.7165,39.1514 Z M 35.2865,39.1514 C 35.4809,39.4855 35.3677,39.914 35.0335,40.1085 C 35.0134,40.1202 34.9933,40.1318 34.9731,40.1434 C 34.638,40.3362 34.21,40.2208 34.0173,39.8857 C 33.8245,39.5506 33.9399,39.1227 34.275,38.9299 C 34.2884,38.9221 34.3019,38.9144 34.3153,38.9066 C 34.32,38.9039 34.3247,38.9011 34.3294,38.8984 C 34.6635,38.704 35.092,38.8172 35.2865,39.1514 Z M 22.7635,40.2488 C 22.8967,39.8859 23.2988,39.6996 23.6618,39.8328 C 23.6814,39.84 23.701,39.8471 23.7207,39.8542 C 24.0843,39.9856 24.2726,40.3868 24.1412,40.7504 C 24.0099,41.114 23.6087,41.3023 23.2451,41.1709 C 23.2232,41.1631 23.2014,41.1551 23.1795,41.1471 C 22.8166,41.0139 22.6303,40.6118 22.7635,40.2488 Z M 33.2405,40.2488 C 33.3737,40.6118 33.1874,41.0139 32.8245,41.1471 C 32.8026,41.1551 32.7808,41.1631 32.7589,41.171 C 32.3953,41.3023 31.9941,41.114 31.8628,40.7504 C 31.7314,40.3868 31.9197,39.9856 32.2833,39.8542 C 32.303,39.8471 32.3226,39.84 32.3422,39.8328 C 32.7052,39.6996 33.1073,39.8859 33.2405,40.2488 Z M 24.9695,40.9717 C 25.0372,40.5911 25.4006,40.3374 25.7812,40.405 C 25.8018,40.4087 25.8225,40.4123 25.8431,40.4159 C 26.2241,40.4816 26.4796,40.8438 26.4139,41.2247 C 26.3481,41.6057 25.986,41.8612 25.605,41.7955 C 25.5821,41.7915 25.5591,41.7875 25.5362,41.7834 C 25.1556,41.7157 24.9018,41.3523 24.9695,40.9717 Z M 31.0347,40.9717 C 31.1024,41.3523 30.8486,41.7157 30.468,41.7834 C 30.4451,41.7875 30.4221,41.7915 30.3992,41.7955 C 30.0182,41.8612 29.6561,41.6057 29.5903,41.2247 C 29.5246,40.8438 29.7801,40.4816 30.1611,40.4159 C 30.1704,40.4143 30.1798,40.4126 30.1891,40.411 C 30.2004,40.409 30.2117,40.407 30.223,40.405 C 30.6036,40.3374 30.967,40.5911 31.0347,40.9717 Z M 27.2688,41.2982 C 27.2697,40.9116 27.5839,40.599 27.9705,40.6 H 28.0021 H 28.0176 H 28.0337 C 28.4203,40.599 28.7345,40.9116 28.7354,41.2982 C 28.7364,41.6848 28.4238,41.999 28.0372,42 H 28.0021 H 27.967 C 27.5804,41.999 27.2678,41.6848 27.2688,41.2982 Z" clip-rule="evenodd" fill="rgb(121, 192, 64)" fill-rule="evenodd"/>
<path d="M 28.718,16.869 C 28.7359,17.38 28.3402,17.7886 27.8442,17.7965 C 27.8252,17.7968 27.8062,17.7971 27.7873,17.7975 C 27.2913,17.8082 26.8805,17.4148 26.8698,16.9188 S 27.2525,16.0121 27.7485,16.0014 C 27.7709,16.0009 27.7932,16.0005 27.8155,16.0001 C 28.3116,15.9922 28.7201,16.3879 28.728,16.884 Z M 29.7762,17.0033 C 29.895,16.5216 30.3817,16.2274 30.8634,16.3462 C 30.8851,16.3515 30.9067,16.3569 30.9283,16.3624 C 31.4093,16.4838 31.7007,16.9723 31.5793,17.4533 C 31.4578,17.9343 30.9694,18.2257 30.4884,18.1043 C 30.47,18.0996 30.4516,18.095 30.4332,18.0905 C 29.9516,17.9717 29.6574,17.4849 29.7762,17.0033 Z M 25.8269,17.0775 C 25.9626,17.5547 25.6859,18.0516 25.2087,18.1874 C 25.1995,18.19 25.1904,18.1926 25.1812,18.1952 C 25.172,18.1979 25.1628,18.2005 25.1537,18.2032 C 24.6773,18.3416 24.1789,18.0675 24.0405,17.5911 S 24.1761,16.6163 24.6525,16.4779 C 24.6633,16.4748 24.674,16.4717 24.6848,16.4686 C 24.6955,16.4655 24.7063,16.4624 24.717,16.4594 C 25.1942,16.3236 25.6911,16.6004 25.8269,17.0775 Z M 32.5606,17.84 C 32.7996,17.4053 33.3458,17.2466 33.7805,17.4856 C 33.8,17.4964 33.8195,17.5071 33.8389,17.518 C 34.2724,17.7594 34.428,18.3065 34.1866,18.7399 S 33.3981,19.3289 32.9647,19.0875 C 32.9481,19.0783 32.9316,19.0691 32.915,19.06 C 32.4802,18.821 32.3215,18.2748 32.5606,17.84 Z M 23.0725,18.0106 C 23.3268,18.4365 23.1877,18.988 22.7618,19.2424 C 22.7455,19.2521 22.7293,19.2619 22.713,19.2717 C 22.2885,19.5284 21.7363,19.3925 21.4795,18.9679 C 21.2228,18.5434 21.3587,17.9912 21.7832,17.7344 C 21.8024,17.7229 21.8215,17.7114 21.8407,17.6999 C 22.2666,17.4455 22.8181,17.5846 23.0725,18.0106 Z M 35.0355,19.3659 C 35.3785,19.0075 35.9471,18.9951 36.3055,19.3381 C 36.3216,19.3535 36.3377,19.369 36.3537,19.3845 C 36.7102,19.7295 36.7194,20.2982 36.3744,20.6547 C 36.0293,21.0111 35.4607,21.0204 35.1042,20.6754 C 35.0906,20.6622 35.0769,20.6491 35.0632,20.636 C 34.7049,20.2929 34.6924,19.7243 35.0355,19.3659 Z M 20.6545,19.6257 C 21.0109,19.9708 21.0202,20.5394 20.6752,20.8959 C 20.662,20.9095 20.6489,20.9232 20.6358,20.9369 C 20.2927,21.2952 19.7241,21.3077 19.3657,20.9646 C 19.0073,20.6216 18.9949,20.053 19.3379,19.6946 C 19.3533,19.6785 19.3688,19.6624 19.3843,19.6464 C 19.7293,19.2899 20.298,19.2807 20.6545,19.6257 Z M 37.0315,21.4794 C 37.456,21.2227 38.0082,21.3586 38.265,21.7831 C 38.2765,21.8023 38.288,21.8214 38.2995,21.8406 C 38.5539,22.2665 38.4148,22.818 37.9888,23.0724 C 37.5629,23.3267 37.0114,23.1876 36.757,22.7617 C 36.7473,22.7454 36.7375,22.7292 36.7277,22.7129 C 36.471,22.2884 36.6069,21.7362 37.0315,21.4794 Z M 18.7395,21.8135 C 19.1729,22.0549 19.3285,22.602 19.0871,23.0354 C 19.0779,23.052 19.0687,23.0685 19.0596,23.0851 C 18.8206,23.5199 18.2744,23.6786 17.8396,23.4395 C 17.4049,23.2005 17.2462,22.6543 17.4852,22.2196 C 17.496,22.2001 17.5067,22.1806 17.5176,22.1612 C 17.759,21.7277 18.3061,21.5721 18.7395,21.8135 Z M 38.4085,24.0404 C 38.8849,23.902 39.3833,24.176 39.5217,24.6524 C 39.5248,24.6632 39.5279,24.6739 39.531,24.6847 C 39.5341,24.6954 39.5372,24.7062 39.5402,24.7169 C 39.676,25.1941 39.3992,25.691 38.9221,25.8268 C 38.4449,25.9625 37.948,25.6858 37.8122,25.2086 C 37.8096,25.1994 37.807,25.1903 37.8044,25.1811 C 37.8017,25.1719 37.7991,25.1627 37.7964,25.1536 C 37.658,24.6772 37.9321,24.1788 38.4085,24.0404 Z M 17.4525,24.4208 C 17.9335,24.5423 18.2249,25.0307 18.1035,25.5117 C 18.0988,25.5301 18.0942,25.5485 18.0897,25.5669 C 17.9709,26.0485 17.4841,26.3427 17.0025,26.2239 C 16.5208,26.1051 16.2266,25.6184 16.3454,25.1367 C 16.3507,25.115 16.3561,25.0934 16.3616,25.0718 C 16.483,24.5908 16.9715,24.2994 17.4525,24.4208 Z M 39.0805,26.8697 C 39.5765,26.859 39.9872,27.2524 39.9979,27.7484 C 39.9984,27.7708 39.9988,27.7931 39.9992,27.8154 C 40.0071,28.3115 39.6114,28.72 39.1153,28.7279 C 38.6193,28.7358 38.2108,28.3401 38.2028,27.8441 C 38.2025,27.8251 38.2022,27.8061 38.2018,27.7872 C 38.1911,27.2912 38.5845,26.8804 39.0805,26.8697 Z M 16.8835,27.2721 C 17.3795,27.2642 17.7881,27.6599 17.796,28.1559 C 17.7963,28.1749 17.7966,28.1939 17.797,28.2128 C 17.8077,28.7088 17.4143,29.1196 16.9183,29.1303 S 16.0116,28.7476 16.0009,28.2516 C 16.0004,28.2292 16,28.2069 15.9996,28.1846 C 15.9917,27.6885 16.3874,27.28 16.8835,27.2721 Z M 38.9965,29.7761 C 39.4782,29.8949 39.7724,30.3816 39.6536,30.8633 C 39.6483,30.885 39.6429,30.9066 39.6374,30.9282 C 39.516,31.4092 39.0275,31.7006 38.5465,31.5792 C 38.0655,31.4577 37.7741,30.9693 37.8955,30.4883 C 37.9002,30.4699 37.9048,30.4515 37.9093,30.4331 C 38.0281,29.9515 38.5149,29.6573 38.9965,29.7761 Z M 17.0775,30.1732 C 17.5547,30.0375 18.0516,30.3142 18.1874,30.7914 C 18.19,30.8006 18.1926,30.8097 18.1952,30.8189 C 18.1979,30.8281 18.2005,30.8373 18.2032,30.8464 C 18.3416,31.3228 18.0675,31.8212 17.5911,31.9596 C 17.1147,32.098 16.6163,31.824 16.4779,31.3476 C 16.4748,31.3368 16.4717,31.3261 16.4686,31.3153 C 16.4655,31.3046 16.4624,31.2938 16.4594,31.2831 C 16.3236,30.8059 16.6004,30.309 17.0775,30.1732 Z M 38.1595,32.5605 C 38.5942,32.7995 38.7529,33.3457 38.5139,33.7804 C 38.5031,33.7999 38.4923,33.8194 38.4815,33.8388 C 38.2401,34.2723 37.693,34.4279 37.2596,34.1865 S 36.6706,33.398 36.912,32.9646 C 36.9212,32.948 36.9304,32.9315 36.9395,32.9149 C 37.1785,32.4801 37.7247,32.3214 38.1595,32.5605 Z M 18.0105,32.9276 C 18.4364,32.6733 18.9879,32.8124 19.2423,33.2383 C 19.252,33.2546 19.2618,33.2708 19.2716,33.2871 C 19.5283,33.7116 19.3924,34.2638 18.9678,34.5206 C 18.5433,34.7773 17.9911,34.6414 17.7343,34.2169 C 17.7228,34.1977 17.7113,34.1786 17.6998,34.1594 C 17.4454,33.7335 17.5845,33.182 18.0105,32.9276 Z M 36.6345,35.0354 C 36.9929,35.3784 37.0053,35.947 36.6623,36.3054 C 36.6469,36.3215 36.6314,36.3376 36.6159,36.3536 C 36.2709,36.7101 35.7022,36.7193 35.3457,36.3743 C 34.9893,36.0292 34.98,35.4606 35.325,35.1041 C 35.3382,35.0905 35.3513,35.0768 35.3644,35.0631 C 35.7075,34.7048 36.2761,34.6923 36.6345,35.0354 Z M 19.6265,35.3453 C 19.9716,34.9889 20.5402,34.9796 20.8967,35.3246 C 20.9103,35.3378 20.924,35.3509 20.9377,35.364 C 21.296,35.7071 21.3085,36.2757 20.9654,36.6341 C 20.6224,36.9925 20.0538,37.0049 19.6954,36.6619 C 19.6793,36.6465 19.6632,36.631 19.6472,36.6155 C 19.2907,36.2705 19.2815,35.7018 19.6265,35.3453 Z M 34.5215,37.0321 C 34.7782,37.4566 34.6423,38.0088 34.2178,38.2656 C 34.1986,38.2771 34.1795,38.2886 34.1603,38.3001 C 33.7344,38.5545 33.1829,38.4154 32.9285,37.9894 C 32.6742,37.5635 32.8133,37.012 33.2392,36.7576 C 33.2555,36.7479 33.2717,36.7381 33.288,36.7283 C 33.7125,36.4716 34.2647,36.6075 34.5215,37.0321 Z M 21.8145,37.2601 C 22.0559,36.8267 22.603,36.6711 23.0364,36.9125 C 23.053,36.9217 23.0695,36.9309 23.0861,36.94 C 23.5209,37.179 23.6796,37.7252 23.4405,38.16 C 23.2015,38.5947 22.6553,38.7534 22.2206,38.5144 C 22.2011,38.5036 22.1816,38.4928 22.1622,38.482 C 21.7287,38.2406 21.5731,37.6935 21.8145,37.2601 Z M 31.9605,38.4089 C 32.0989,38.8853 31.8249,39.3837 31.3485,39.5221 C 31.3377,39.5252 31.327,39.5283 31.3162,39.5314 C 31.3055,39.5345 31.2947,39.5376 31.284,39.5406 C 30.8068,39.6764 30.3099,39.3996 30.1741,38.9225 C 30.0384,38.4453 30.3151,37.9484 30.7923,37.8126 C 30.8015,37.81 30.8106,37.8074 30.8198,37.8048 C 30.829,37.8021 30.8382,37.7995 30.8473,37.7968 C 31.3237,37.6584 31.8221,37.9325 31.9605,38.4089 Z M 24.4217,38.5467 C 24.5432,38.0657 25.0316,37.7743 25.5126,37.8957 C 25.531,37.9004 25.5494,37.905 25.5678,37.9095 C 26.0494,38.0283 26.3436,38.5151 26.2248,38.9967 C 26.106,39.4784 25.6193,39.7726 25.1376,39.6538 C 25.1159,39.6485 25.0943,39.6431 25.0727,39.6376 C 24.5917,39.5162 24.3003,39.0277 24.4217,38.5467 Z M 29.1312,39.0812 C 29.1419,39.5772 28.7485,39.9879 28.2525,39.9986 C 28.2301,39.9991 28.2078,39.9995 28.1855,39.9999 C 27.6894,40.0078 27.2809,39.6121 27.273,39.116 C 27.2651,38.62 27.6608,38.2115 28.1568,38.2035 C 28.1758,38.2032 28.1948,38.2029 28.2137,38.2025 C 28.7097,38.1918 29.1205,38.5852 29.1312,39.0812 Z" clip-rule="evenodd" fill="rgb(57, 57, 58)" fill-rule="evenodd"/>
<path d="M 27.313,18.909 C 27.3389,18.3981 27.7781,17.9846 28.3041,18.0004 C 28.3297,18.0012 28.3553,18.0021 28.3809,18.0031 C 28.9067,18.023 29.3168,18.4654 29.2969,18.9912 C 29.2769,19.5171 28.8345,19.9272 28.3087,19.9072 C 28.288,19.9064 28.2673,19.9057 28.2466,19.9051 C 27.7207,19.8892 27.3072,19.45 27.323,18.924 Z M 26.4501,19.034 C 26.5936,19.5402 26.2995,20.0669 25.7933,20.2104 C 25.7833,20.2133 25.7732,20.2161 25.7632,20.219 L 25.7332,20.2277 C 25.228,20.375 24.6991,20.0849 24.5518,19.5797 C 24.4045,19.0746 24.6946,18.5456 25.1998,18.3983 C 25.2121,18.3948 25.2244,18.3912 25.2367,18.3876 C 25.249,18.3841 25.2614,18.3806 25.2737,18.3771 C 25.7799,18.2336 26.3067,18.5277 26.4501,19.034 Z M 30.1603,19.1596 C 30.3384,18.6645 30.8842,18.4075 31.3793,18.5856 C 31.4034,18.5943 31.4274,18.603 31.4513,18.6118 C 31.9451,18.7938 32.1979,19.3415 32.016,19.8352 C 31.8341,20.329 31.2863,20.5818 30.7926,20.3999 C 30.7732,20.3927 30.7537,20.3857 30.7343,20.3787 C 30.2391,20.2005 29.9822,19.6547 30.1603,19.1596 Z M 23.7538,19.9502 C 24.0466,20.3874 23.9295,20.9792 23.4923,21.272 C 23.4751,21.2835 23.458,21.2951 23.4409,21.3067 C 23.0059,21.6029 22.4133,21.4904 22.1171,21.0554 C 21.8209,20.6205 21.9334,20.0278 22.3684,19.7317 C 22.3895,19.7173 22.4108,19.7029 22.432,19.6887 C 22.8693,19.3959 23.461,19.513 23.7538,19.9502 Z M 32.7856,20.2611 C 33.1073,19.8448 33.7057,19.7681 34.1221,20.0898 C 34.1423,20.1054 34.1624,20.1211 34.1825,20.1369 C 34.5964,20.4618 34.6685,21.0607 34.3436,21.4746 S 33.4198,21.9607 33.0059,21.6358 C 32.9896,21.623 32.9733,21.6103 32.9569,21.5976 C 32.5405,21.2759 32.4638,20.6775 32.7856,20.2611 Z M 21.4746,21.6567 C 21.8885,21.9816 21.9607,22.5805 21.6358,22.9944 C 21.623,23.0107 21.6103,23.027 21.5976,23.0434 C 21.2759,23.4598 20.6775,23.5365 20.2611,23.2147 C 19.8448,22.893 19.7681,22.2946 20.0898,21.8782 C 20.1054,21.858 20.1211,21.8379 20.1369,21.8178 C 20.4618,21.4039 21.0607,21.3318 21.4746,21.6567 Z M 34.9446,22.1168 C 35.3796,21.8206 35.9723,21.9331 36.2684,22.3681 C 36.2828,22.3892 36.2972,22.4105 36.3114,22.4317 C 36.6042,22.869 36.4871,23.4607 36.0499,23.7535 S 35.0209,23.9292 34.7281,23.492 C 34.7166,23.4748 34.705,23.4577 34.6934,23.4406 C 34.3972,23.0056 34.5097,22.413 34.9446,22.1168 Z M 19.8356,23.9843 C 20.3294,24.1662 20.5822,24.714 20.4003,25.2077 C 20.3931,25.2271 20.3861,25.2466 20.3791,25.266 C 20.2009,25.7612 19.6551,26.0181 19.16,25.84 S 18.4079,25.1161 18.586,24.621 C 18.5947,24.5969 18.6034,24.5729 18.6122,24.549 C 18.7942,24.0552 19.3419,23.8024 19.8356,23.9843 Z M 36.4206,24.5515 C 36.9257,24.4042 37.4547,24.6943 37.602,25.1995 C 37.6055,25.2118 37.6091,25.2241 37.6126,25.2364 C 37.6162,25.2487 37.6197,25.2611 37.6232,25.2734 C 37.7667,25.7796 37.4726,26.3064 36.9663,26.4498 C 36.4601,26.5933 35.9334,26.2992 35.7899,25.793 C 35.787,25.783 35.7842,25.7729 35.7813,25.7629 C 35.7798,25.7579 35.7784,25.7528 35.7769,25.7478 C 35.7755,25.7428 35.7741,25.7379 35.7726,25.7329 C 35.6253,25.2277 35.9154,24.6988 36.4206,24.5515 Z M 18.9916,26.7034 C 19.5175,26.7234 19.9276,27.1658 19.9076,27.6916 C 19.9068,27.7123 19.9061,27.733 19.9055,27.7537 C 19.8896,28.2796 19.4504,28.6931 18.9244,28.6773 C 18.3985,28.6614 17.985,28.2222 18.0008,27.6962 C 18.0016,27.6706 18.0025,27.645 18.0035,27.6194 C 18.0234,27.0936 18.4658,26.6835 18.9916,26.7034 Z M 37.0766,27.3227 C 37.6025,27.3386 38.016,27.7778 38.0002,28.3038 C 37.9997,28.3194 37.9992,28.3351 37.9986,28.3507 C 37.9983,28.3607 37.9979,28.3706 37.9975,28.3806 C 37.9776,28.9064 37.5352,29.3165 37.0094,29.2966 C 36.4835,29.2766 36.0734,28.8342 36.0934,28.3084 C 36.0942,28.2877 36.0949,28.267 36.0955,28.2463 C 36.1114,27.7204 36.5506,27.3069 37.0766,27.3227 Z M 19.0346,29.5502 C 19.5408,29.4067 20.0675,29.7008 20.211,30.207 C 20.2128,30.2134 20.2147,30.2198 20.2165,30.2262 C 20.2175,30.2298 20.2186,30.2334 20.2196,30.2371 C 20.2225,30.2471 20.2254,30.2571 20.2283,30.2671 C 20.3756,30.7723 20.0855,31.3012 19.5803,31.4485 C 19.0752,31.5958 18.5462,31.3057 18.3989,30.8005 C 18.3954,30.7882 18.3918,30.7759 18.3882,30.7636 C 18.3847,30.7513 18.3812,30.7389 18.3777,30.7266 C 18.2342,30.2204 18.5283,29.6936 19.0346,29.5502 Z M 36.8406,30.16 C 37.3357,30.3381 37.5927,30.8839 37.4146,31.379 C 37.4059,31.4031 37.3972,31.4271 37.3884,31.451 C 37.2064,31.9448 36.6587,32.1976 36.165,32.0157 C 35.6712,31.8338 35.4184,31.286 35.6003,30.7923 C 35.6075,30.7729 35.6145,30.7534 35.6215,30.734 C 35.7997,30.2388 36.3455,29.9819 36.8406,30.16 Z M 19.9506,32.2465 C 20.3878,31.9537 20.9796,32.0708 21.2724,32.508 C 21.2839,32.5252 21.2955,32.5423 21.3071,32.5594 C 21.6033,32.9944 21.4908,33.587 21.0558,33.8832 C 20.6209,34.1794 20.0282,34.0669 19.7321,33.6319 C 19.7177,33.6108 19.7033,33.5895 19.6891,33.5683 C 19.3963,33.131 19.5134,32.5393 19.9506,32.2465 Z M 35.7396,32.7853 C 36.1559,33.107 36.2326,33.7054 35.9109,34.1218 C 35.8953,34.142 35.8796,34.1621 35.8638,34.1822 C 35.5389,34.5961 34.94,34.6682 34.5261,34.3433 S 34.04,33.4195 34.3649,33.0056 C 34.3777,32.9893 34.3904,32.973 34.4031,32.9566 C 34.7248,32.5402 35.3232,32.4635 35.7396,32.7853 Z M 21.6576,34.5254 C 21.9825,34.1115 22.5814,34.0393 22.9953,34.3642 C 23.0116,34.377 23.0279,34.3897 23.0443,34.4024 C 23.4607,34.7241 23.5374,35.3225 23.2156,35.7389 C 22.8939,36.1552 22.2955,36.2319 21.8791,35.9102 C 21.8589,35.8946 21.8388,35.8789 21.8187,35.8631 C 21.4048,35.5382 21.3327,34.9393 21.6576,34.5254 Z M 33.8836,34.9445 C 34.1798,35.3795 34.0673,35.9722 33.6323,36.2683 C 33.6112,36.2827 33.5899,36.2971 33.5687,36.3113 C 33.1314,36.6041 32.5397,36.487 32.2469,36.0498 S 32.0712,35.0208 32.5084,34.728 C 32.5256,34.7165 32.5427,34.7049 32.5598,34.6933 C 32.9948,34.3971 33.5874,34.5096 33.8836,34.9445 Z M 23.9847,36.1648 C 24.1666,35.671 24.7144,35.4182 25.2081,35.6001 C 25.2275,35.6073 25.247,35.6143 25.2664,35.6213 C 25.7616,35.7995 26.0185,36.3453 25.8404,36.8404 S 25.1165,37.5925 24.6214,37.4144 C 24.5973,37.4057 24.5733,37.397 24.5494,37.3882 C 24.0556,37.2062 23.8028,36.6585 23.9847,36.1648 Z M 31.4489,36.4203 C 31.5962,36.9254 31.3061,37.4544 30.8009,37.6017 C 30.7886,37.6052 30.7763,37.6088 30.764,37.6123 C 30.7517,37.6159 30.7393,37.6194 30.727,37.6229 C 30.2208,37.7664 29.694,37.4723 29.5506,36.966 C 29.4071,36.4598 29.7012,35.9331 30.2074,35.7896 C 30.2174,35.7867 30.2275,35.7839 30.2375,35.781 C 30.2423,35.7796 30.2471,35.7782 30.2518,35.7769 C 30.2571,35.7753 30.2623,35.7738 30.2675,35.7723 C 30.7727,35.625 31.3016,35.9151 31.4489,36.4203 Z M 26.7038,37.0088 C 26.7238,36.4829 27.1662,36.0728 27.692,36.0928 C 27.7127,36.0936 27.7334,36.0943 27.7541,36.0949 C 28.28,36.1108 28.6935,36.55 28.6777,37.076 C 28.6618,37.6019 28.2226,38.0154 27.6966,37.9996 C 27.671,37.9988 27.6454,37.9979 27.6198,37.9969 C 27.094,37.977 26.6839,37.5346 26.7038,37.0088 Z" clip-rule="evenodd" fill="rgb(87, 87, 87)" fill-rule="evenodd"/>
<path d="M 27.447,20.721 C 27.4694,20.3171 27.819,19.9875 28.238,19.9998 C 28.262,20.0005 28.2859,20.0014 28.3099,20.0023 C 28.7287,20.0184 29.0552,20.3711 29.039,20.7899 S 28.6702,21.5351 28.2514,21.519 C 28.232,21.5182 28.2126,21.5176 28.1932,21.517 C 27.7743,21.5046 27.4446,21.155 27.457,20.736 Z M 26.7608,20.8237 C 26.8748,21.227 26.6403,21.6464 26.237,21.7605 C 26.2276,21.7631 26.2182,21.7658 26.2088,21.7685 S 26.19,21.7739 26.1806,21.7767 C 25.7783,21.8943 25.3568,21.6634 25.2392,21.2611 S 25.3525,20.4374 25.7548,20.3198 C 25.7663,20.3164 25.7778,20.3131 25.7894,20.3098 C 25.8009,20.3064 25.8125,20.3031 25.824,20.2999 C 26.2273,20.1858 26.6467,20.4204 26.7608,20.8237 Z M 29.7277,20.9242 C 29.8694,20.5297 30.304,20.3247 30.6984,20.4664 C 30.721,20.4745 30.7434,20.4826 30.7659,20.4909 C 31.1591,20.6361 31.3602,21.0725 31.215,21.4657 C 31.0699,21.8589 30.6334,22.06 30.2402,21.9148 C 30.222,21.9081 30.2038,21.9015 30.1855,21.8949 C 29.7911,21.7533 29.5861,21.3187 29.7277,20.9242 Z M 24.6028,21.5566 C 24.8358,21.9051 24.7422,22.3764 24.3938,22.6094 C 24.3776,22.6202 24.3615,22.631 24.3455,22.642 C 23.9992,22.8781 23.5271,22.7888 23.2909,22.4425 C 23.0548,22.0962 23.1441,21.624 23.4904,21.3879 C 23.5102,21.3744 23.5301,21.361 23.55,21.3476 C 23.8985,21.1147 24.3698,21.2082 24.6028,21.5566 Z M 31.8289,21.8054 C 32.085,21.4736 32.5615,21.4122 32.8934,21.6683 C 32.9123,21.6829 32.9312,21.6976 32.95,21.7124 C 33.2795,21.9714 33.3367,22.4485 33.0776,22.778 C 32.8186,23.1075 32.3415,23.1647 32.012,22.9057 C 31.9967,22.8937 31.9814,22.8817 31.9661,22.8699 C 31.6342,22.6138 31.5728,22.1372 31.8289,21.8054 Z M 22.7787,22.9221 C 23.1082,23.1811 23.1654,23.6582 22.9064,23.9877 C 22.8944,24.003 22.8824,24.0183 22.8706,24.0336 C 22.6145,24.3655 22.1379,24.4269 21.8061,24.1708 S 21.4129,23.4382 21.669,23.1063 C 21.6836,23.0874 21.6983,23.0685 21.7131,23.0497 C 21.9721,22.7202 22.4492,22.663 22.7787,22.9221 Z M 33.5567,23.2902 C 33.903,23.0541 34.3752,23.1434 34.6113,23.4897 C 34.6248,23.5095 34.6382,23.5294 34.6516,23.5493 C 34.8845,23.8978 34.791,24.3691 34.4426,24.6021 C 34.0941,24.8351 33.6228,24.7415 33.3898,24.3931 C 33.379,24.3769 33.3682,24.3608 33.3572,24.3448 C 33.1211,23.9985 33.2104,23.5264 33.5567,23.2902 Z M 21.4657,24.7847 C 21.8589,24.9298 22.06,25.3663 21.9148,25.7595 C 21.9081,25.7777 21.9015,25.7959 21.8949,25.8142 C 21.7533,26.2086 21.3187,26.4136 20.9242,26.272 C 20.5297,26.1303 20.3247,25.6957 20.4664,25.3013 C 20.4745,25.2787 20.4826,25.2563 20.4909,25.2338 C 20.6361,24.8406 21.0725,24.6395 21.4657,24.7847 Z M 34.7377,25.2385 C 35.14,25.1209 35.5614,25.3518 35.679,25.7541 C 35.6824,25.7656 35.6857,25.7771 35.689,25.7887 C 35.6924,25.8002 35.6957,25.8118 35.6989,25.8233 C 35.813,26.2266 35.5784,26.646 35.1751,26.7601 C 34.7718,26.8741 34.3524,26.6396 34.2383,26.2363 C 34.2376,26.2335 34.2368,26.2307 34.236,26.2279 C 34.2341,26.2213 34.2322,26.2147 34.2303,26.2081 C 34.2276,26.1987 34.2249,26.1893 34.2221,26.1799 C 34.1045,25.7776 34.3354,25.3561 34.7377,25.2385 Z M 20.7897,26.9607 C 21.2085,26.9769 21.5349,27.3295 21.5188,27.7483 C 21.518,27.7677 21.5174,27.7871 21.5168,27.8065 C 21.5044,28.2254 21.1548,28.5551 20.7358,28.5427 C 20.3169,28.5303 19.9873,28.1807 19.9996,27.7617 C 20.0003,27.7377 20.0012,27.7138 20.0021,27.6898 C 20.0182,27.271 20.3709,26.9445 20.7897,26.9607 Z M 35.2627,27.4563 C 35.6816,27.4687 36.0112,27.8183 35.9989,28.2373 C 35.9982,28.2613 35.9973,28.2852 35.9964,28.3092 C 35.9803,28.728 35.6276,29.0545 35.2088,29.0383 S 34.4636,28.6695 34.4797,28.2507 C 34.4805,28.2313 34.4811,28.2119 34.4817,28.1925 C 34.4941,27.7736 34.8437,27.4439 35.2627,27.4563 Z M 20.8237,29.2389 C 21.227,29.1249 21.6464,29.3594 21.7605,29.7627 C 21.7631,29.7721 21.7658,29.7815 21.7685,29.7909 S 21.7739,29.8097 21.7767,29.8191 C 21.8943,30.2214 21.6634,30.6429 21.2611,30.7605 S 20.4374,30.6472 20.3198,30.2449 C 20.3164,30.2334 20.3131,30.2219 20.3098,30.2103 C 20.3064,30.1988 20.3031,30.1872 20.2999,30.1757 C 20.1858,29.7724 20.4204,29.353 20.8237,29.2389 Z M 35.0747,29.727 C 35.4692,29.8687 35.6742,30.3033 35.5325,30.6977 C 35.5244,30.7203 35.5163,30.7427 35.508,30.7652 C 35.3628,31.1584 34.9264,31.3595 34.5332,31.2143 C 34.14,31.0692 33.9389,30.6327 34.0841,30.2395 C 34.0908,30.2213 34.0974,30.2031 34.104,30.1848 C 34.2456,29.7904 34.6802,29.5854 35.0747,29.727 Z M 21.5567,31.3969 C 21.9052,31.1639 22.3765,31.2575 22.6095,31.6059 C 22.6203,31.6221 22.6311,31.6382 22.6421,31.6542 C 22.8782,32.0005 22.7889,32.4726 22.4426,32.7088 C 22.0963,32.9449 21.6241,32.8556 21.388,32.5093 C 21.3745,32.4895 21.3611,32.4696 21.3477,32.4497 C 21.1148,32.1012 21.2083,31.6299 21.5567,31.3969 Z M 34.1937,31.8282 C 34.5255,32.0843 34.5869,32.5608 34.3308,32.8927 C 34.3162,32.9116 34.3015,32.9305 34.2867,32.9493 C 34.0277,33.2788 33.5506,33.336 33.2211,33.0769 C 32.8916,32.8179 32.8344,32.3408 33.0934,32.0113 C 33.1054,31.996 33.1174,31.9807 33.1292,31.9654 C 33.3853,31.6335 33.8619,31.5721 34.1937,31.8282 Z M 22.9217,33.221 C 23.1807,32.8915 23.6578,32.8343 23.9873,33.0933 C 24.0026,33.1053 24.0179,33.1173 24.0332,33.1291 C 24.3651,33.3852 24.4265,33.8618 24.1704,34.1936 S 23.4378,34.5868 23.1059,34.3307 C 23.087,34.3161 23.0681,34.3014 23.0493,34.2866 C 22.7198,34.0276 22.6626,33.5505 22.9217,33.221 Z M 32.7084,33.5565 C 32.9445,33.9028 32.8552,34.375 32.5089,34.6111 C 32.4891,34.6246 32.4692,34.638 32.4493,34.6514 C 32.1008,34.8843 31.6295,34.7908 31.3965,34.4424 C 31.1635,34.0939 31.2571,33.6226 31.6055,33.3896 C 31.6149,33.3834 31.6242,33.3771 31.6335,33.3709 C 31.6403,33.3663 31.647,33.3617 31.6538,33.357 C 32.0001,33.1209 32.4722,33.2102 32.7084,33.5565 Z M 24.7843,34.5333 C 24.9294,34.1401 25.3659,33.939 25.7591,34.0842 C 25.7773,34.0909 25.7955,34.0975 25.8138,34.1041 C 26.2082,34.2457 26.4132,34.6803 26.2716,35.0748 C 26.1299,35.4693 25.6953,35.6743 25.3009,35.5326 C 25.2783,35.5245 25.2559,35.5164 25.2334,35.5081 C 24.8402,35.3629 24.6391,34.9265 24.7843,34.5333 Z M 30.7601,34.7379 C 30.8777,35.1402 30.6468,35.5616 30.2445,35.6792 C 30.233,35.6826 30.2215,35.6859 30.2099,35.6892 C 30.1984,35.6926 30.1868,35.6959 30.1753,35.6991 C 29.772,35.8132 29.3526,35.5786 29.2385,35.1753 C 29.1245,34.772 29.359,34.3526 29.7623,34.2385 C 29.7717,34.2359 29.7811,34.2332 29.7905,34.2305 S 29.8093,34.2251 29.8187,34.2223 C 30.221,34.1047 30.6425,34.3356 30.7601,34.7379 Z M 26.9603,35.2091 C 26.9765,34.7903 27.3291,34.4639 27.7479,34.48 C 27.7576,34.4804 27.7674,34.4807 27.7771,34.4811 C 27.7868,34.4814 27.7964,34.4817 27.8061,34.482 C 28.225,34.4944 28.5547,34.844 28.5423,35.263 C 28.5299,35.6819 28.1803,36.0115 27.7613,35.9992 C 27.7373,35.9985 27.7134,35.9976 27.6894,35.9967 C 27.2706,35.9806 26.9441,35.6279 26.9603,35.2091 Z" clip-rule="evenodd" fill="rgb(108, 109, 111)" fill-rule="evenodd"/>
<path d="M 27.735,22.387 C 27.7515,22.1735 27.9419,21.9934 28.1705,21.9999 C 28.1938,22.0005 28.2171,22.0013 28.2404,22.0022 C 28.4688,22.0114 28.6466,22.2039 28.6375,22.4324 C 28.6284,22.6608 28.4358,22.8386 28.2074,22.8295 C 28.1873,22.8287 28.1672,22.828 28.1472,22.8274 C 27.9186,22.821 27.7386,22.6305 27.745,22.402 Z M 26.8863,22.5094 C 26.9482,22.7294 26.82,22.958 26.5999,23.0199 C 26.5902,23.0227 26.5805,23.0254 26.5708,23.0282 S 26.5514,23.0338 26.5417,23.0367 C 26.3223,23.1011 26.0923,22.9755 26.0279,22.7562 C 25.9634,22.5368 26.089,22.3068 26.3084,22.2423 C 26.3196,22.2391 26.3308,22.2358 26.342,22.2326 C 26.3533,22.2293 26.3645,22.2261 26.3757,22.223 C 26.5958,22.1611 26.8244,22.2893 26.8863,22.5094 Z M 29.4869,22.5977 C 29.5639,22.3824 29.8008,22.2703 30.0161,22.3473 C 30.038,22.3551 30.0599,22.3631 30.0817,22.3712 C 30.296,22.4506 30.4054,22.6888 30.3259,22.9032 C 30.2465,23.1175 30.0083,23.2269 29.7939,23.1474 C 29.7751,23.1405 29.7563,23.1336 29.7374,23.1268 C 29.5221,23.0499 29.41,22.813 29.4869,22.5977 Z M 25.2432,23.1213 C 25.3701,23.3115 25.3187,23.5685 25.1285,23.6953 C 25.1117,23.7065 25.0951,23.7177 25.0785,23.729 C 24.8898,23.8581 24.6322,23.8097 24.5032,23.621 C 24.3741,23.4323 24.4225,23.1747 24.6112,23.0457 C 24.6304,23.0325 24.6498,23.0194 24.6692,23.0065 C 24.8594,22.8797 25.1164,22.9311 25.2432,23.1213 Z M 31.0831,23.3222 C 31.2226,23.141 31.4825,23.1072 31.6636,23.2466 C 31.6821,23.2608 31.7004,23.2751 31.7187,23.2895 C 31.8983,23.431 31.9291,23.6913 31.7876,23.8708 C 31.646,24.0504 31.3858,24.0812 31.2062,23.9397 C 31.1905,23.9273 31.1746,23.9149 31.1587,23.9027 C 30.9776,23.7633 30.9437,23.5034 31.0831,23.3222 Z M 23.8712,24.2122 C 24.0508,24.3538 24.0816,24.614 23.9401,24.7936 C 23.9277,24.8093 23.9153,24.8252 23.9031,24.8411 C 23.7637,25.0222 23.5038,25.0561 23.3226,24.9167 C 23.1414,24.7772 23.1076,24.5173 23.247,24.3362 C 23.2612,24.3177 23.2755,24.2994 23.2899,24.2811 C 23.4314,24.1015 23.6917,24.0707 23.8712,24.2122 Z M 32.3788,24.5028 C 32.5675,24.3737 32.8251,24.4221 32.9541,24.6108 C 32.9673,24.63 32.9804,24.6494 32.9933,24.6688 C 33.1201,24.859 33.0687,25.116 32.8785,25.2428 C 32.6883,25.3697 32.4313,25.3183 32.3045,25.1281 C 32.2933,25.1113 32.2821,25.0947 32.2708,25.0781 C 32.1417,24.8894 32.1901,24.6318 32.3788,24.5028 Z M 22.9036,25.6739 C 23.1179,25.7533 23.2273,25.9915 23.1478,26.2059 C 23.1409,26.2247 23.134,26.2435 23.1272,26.2624 C 23.0503,26.4777 22.8134,26.5898 22.5981,26.5129 C 22.3828,26.4359 22.2707,26.199 22.3477,25.9837 C 22.3555,25.9618 22.3635,25.9399 22.3716,25.9181 C 22.451,25.7038 22.6892,25.5944 22.9036,25.6739 Z M 33.2436,26.0275 C 33.463,25.963 33.693,26.0886 33.7575,26.308 C 33.7607,26.3192 33.764,26.3304 33.7672,26.3416 C 33.7705,26.3529 33.7737,26.3641 33.7768,26.3753 C 33.8387,26.5954 33.7105,26.824 33.4904,26.8859 C 33.2704,26.9478 33.0418,26.8196 32.9799,26.5995 C 32.9771,26.5898 32.9744,26.5801 32.9716,26.5704 S 32.966,26.551 32.9631,26.5413 C 32.8987,26.3219 33.0243,26.0919 33.2436,26.0275 Z M 22.4326,27.3623 C 22.661,27.3714 22.8388,27.564 22.8297,27.7924 C 22.8289,27.8125 22.8282,27.8326 22.8276,27.8526 C 22.8212,28.0812 22.6307,28.2612 22.4022,28.2548 C 22.1737,28.2483 21.9936,28.0579 22.0001,27.8293 C 22.0007,27.806 22.0015,27.7827 22.0024,27.7594 C 22.0116,27.531 22.2041,27.3532 22.4326,27.3623 Z M 33.5976,27.7446 C 33.8261,27.7511 34.0062,27.9415 33.9997,28.1701 C 33.9991,28.1934 33.9983,28.2167 33.9974,28.24 C 33.9882,28.4684 33.7957,28.6462 33.5672,28.6371 C 33.3388,28.628 33.161,28.4354 33.1701,28.207 C 33.1709,28.1869 33.1716,28.1668 33.1722,28.1468 C 33.1786,27.9182 33.3691,27.7382 33.5976,27.7446 Z M 22.5096,29.1135 C 22.7296,29.0516 22.9582,29.1798 23.0201,29.3999 C 23.0229,29.4096 23.0256,29.4193 23.0284,29.429 S 23.034,29.4484 23.0369,29.4581 C 23.1013,29.6775 22.9757,29.9075 22.7564,29.9719 C 22.537,30.0364 22.307,29.9108 22.2425,29.6914 C 22.2393,29.6802 22.236,29.669 22.2328,29.6578 C 22.2295,29.6465 22.2263,29.6353 22.2232,29.6241 C 22.1613,29.404 22.2895,29.1754 22.5096,29.1135 Z M 33.4016,29.4865 C 33.6169,29.5635 33.729,29.8004 33.652,30.0157 C 33.6442,30.0376 33.6362,30.0595 33.6281,30.0813 C 33.5487,30.2956 33.3105,30.405 33.0961,30.3255 C 32.8818,30.2461 32.7724,30.0079 32.8519,29.7935 C 32.8588,29.7747 32.8657,29.7559 32.8725,29.737 C 32.9494,29.5217 33.1863,29.4096 33.4016,29.4865 Z M 23.1216,30.7566 C 23.3118,30.6297 23.5688,30.6811 23.6956,30.8713 C 23.7068,30.8881 23.718,30.9047 23.7293,30.9213 C 23.8584,31.11 23.81,31.3676 23.6213,31.4966 C 23.4326,31.6257 23.175,31.5773 23.046,31.3886 C 23.0328,31.3694 23.0197,31.35 23.0068,31.3306 C 22.88,31.1404 22.9314,30.8834 23.1216,30.7566 Z M 32.6775,31.0827 C 32.8587,31.2222 32.8925,31.4821 32.7531,31.6632 C 32.7389,31.6817 32.7246,31.7 32.7102,31.7183 C 32.5687,31.8979 32.3084,31.9287 32.1289,31.7872 C 31.9493,31.6456 31.9185,31.3854 32.06,31.2058 C 32.0724,31.1901 32.0848,31.1742 32.097,31.1583 C 32.2364,30.9772 32.4963,30.9433 32.6775,31.0827 Z M 24.2125,32.1286 C 24.3541,31.949 24.6143,31.9182 24.7939,32.0597 C 24.8096,32.0721 24.8255,32.0845 24.8414,32.0967 C 25.0225,32.2361 25.0564,32.496 24.917,32.6772 C 24.7775,32.8584 24.5176,32.8922 24.3365,32.7528 C 24.318,32.7386 24.2997,32.7243 24.2814,32.7099 C 24.1018,32.5684 24.071,32.3081 24.2125,32.1286 Z M 31.4969,32.3784 C 31.626,32.5671 31.5776,32.8247 31.3889,32.9537 C 31.3697,32.9669 31.3503,32.98 31.3309,32.9929 C 31.1407,33.1197 30.8837,33.0683 30.7569,32.8781 C 30.63,32.6879 30.6814,32.4309 30.8716,32.3041 C 30.8884,32.2929 30.905,32.2817 30.9216,32.2704 C 31.1103,32.1413 31.3679,32.1897 31.4969,32.3784 Z M 25.6742,33.0962 C 25.7536,32.8819 25.9918,32.7725 26.2062,32.852 C 26.225,32.8589 26.2438,32.8658 26.2627,32.8726 C 26.478,32.9495 26.5901,33.1864 26.5132,33.4017 C 26.4362,33.617 26.1993,33.7291 25.984,33.6521 C 25.9621,33.6443 25.9402,33.6363 25.9184,33.6282 C 25.7041,33.5488 25.5947,33.3106 25.6742,33.0962 Z M 29.9722,33.2432 C 30.0367,33.4626 29.9111,33.6926 29.6917,33.7571 C 29.6805,33.7603 29.6693,33.7636 29.6581,33.7668 C 29.6468,33.7701 29.6356,33.7733 29.6244,33.7764 C 29.4043,33.8383 29.1757,33.7101 29.1138,33.49 C 29.0519,33.27 29.1801,33.0414 29.4002,32.9795 C 29.4099,32.9767 29.4196,32.974 29.4293,32.9712 S 29.4487,32.9656 29.4584,32.9627 C 29.6778,32.8983 29.9078,33.0239 29.9722,33.2432 Z M 27.3626,33.567 C 27.3717,33.3386 27.5643,33.1608 27.7927,33.1699 C 27.8128,33.1707 27.8329,33.1714 27.8529,33.172 C 28.0815,33.1784 28.2615,33.3689 28.2551,33.5974 C 28.2486,33.8259 28.0582,34.006 27.8296,33.9995 C 27.8063,33.9989 27.783,33.9981 27.7597,33.9972 C 27.5313,33.988 27.3535,33.7955 27.3626,33.567 Z" clip-rule="evenodd" fill="rgb(128, 129, 130)" fill-rule="evenodd"/>
<defs>
<linearGradient id="a" x1="28" x2="28" y2="56" gradientUnits="userSpaceOnUse">
<stop stop-color="rgb(23, 26, 28)" offset="0"/>
<stop stop-color="rgb(23, 26, 28)" offset="1"/>
</linearGradient>
</defs>
</svg>
