<?xml version="1.0" encoding="UTF-8"?>
<!-- generated by Finnhub -->
<svg viewBox="0 0 55.5 55.5" xmlns="http://www.w3.org/2000/svg">
<path d="M 0,0 H 55.5 V 55.5 H 0 Z" fill="rgb(239, 242, 248)"/>
<path d="M 4.99,29.985 H 7 V 31 H 4 V 25 H 5 V 30 Z M 13.58,30 H 11.5 L 11.12,31 H 10 L 11.89,25 H 13.11 L 15,31 H 13.89 L 13.59,30 Z M 13.26,29 L 12.5,26.4 L 11.74,29 H 13.26 Z M 23,31 H 22 L 19,26.89 V 31 H 18 V 25 H 19 L 22,29.12 V 25 H 23 V 31 Z M 28,25 C 29.75,25 31,26.26 31,28 C 31,29.76 29.74,31 28,31 H 26 V 25 H 28 Z M 27.95,30 C 29.13,30 30,29.16 30,28 C 30,26.86 29.13,26 27.95,26 H 27 V 30 H 27.95 Z M 36.98,27.92 C 37.64,28.06 38,28.75 38,29.38 C 38,30.38 37.23,31 36.27,31 H 34 V 25 H 36.17 C 37.09,25 37.87,25.57 37.87,26.55 C 37.88,27.25 37.53,27.73 36.98,27.92 Z M 35,27.5 H 36.02 C 36.52,27.5 36.8,27.2 36.8,26.73 C 36.8,26.25 36.52,26 36.02,26 H 35 V 27.5 Z M 36.12,30 C 36.63,30 36.93,29.73 36.93,29.23 C 36.93,28.71 36.6,28.5 36.09,28.5 H 35 V 30 H 36.12 Z M 43.54,30 H 41.45 L 41.11,31 H 40 L 41.89,25 H 43.11 L 45,31 H 43.89 L 43.54,30 Z M 43.26,29 L 42.5,26.4 L 41.74,29 H 43.26 Z M 52,25 L 50,28.91 V 31 H 49 V 28.91 L 47,25 H 48.29 L 49.51,27.74 L 50.73,25 H 52 Z"/>
</svg>
