<?xml version="1.0" encoding="UTF-8"?>
<!-- generated by Finnhub -->
<svg viewBox="0 0 55.5 55.5" xmlns="http://www.w3.org/2000/svg">
<path d="M 0,0 H 55.5 V 55.5 H 0 Z" fill="rgb(239, 242, 248)"/>
<path d="M 4.368,36.985 C 7.084,35.119 14.674,30.964 23.187,30.964 H 24.227 C 17.033,31.72 10.723,34.765 7.907,37 H 9.272 C 11.94,35.396 19.368,31.818 27.754,31.73 C 20.302,32.572 15.461,35.265 13.242,37 H 14.76 C 17.058,35.803 21.349,33.23 29.022,32.569 C 27.708,32.795 26.582,33.088 25.604,33.415 C 23.529,34.108 22.204,34.908 21.018,35.623 C 20.968,35.653 20.613,35.891 20.258,36.13 C 19.898,36.37 19.215,37 19.166,37.03 L 20.775,37 S 21.398,36.521 21.5,36.46 C 22.666,35.757 23.928,34.995 25.9,34.336 C 27.376,33.843 29.224,33.426 31.616,33.211 A 20.45,20.45 0 0,0 30.971,33.415 C 28.897,34.108 27.495,34.954 26.386,35.623 C 26.335,35.654 25.994,35.894 25.654,36.133 C 25.314,36.373 24.844,36.971 24.794,37 H 26.224 C 26.447,36.739 26.766,36.52 26.868,36.46 C 27.973,35.793 29.295,34.995 31.268,34.336 A 22.376,22.376 0 0,1 34.722,33.496 C 32.777,34.173 31.44,34.98 30.374,35.623 C 30.323,35.654 30.005,35.896 29.69,36.136 C 29.377,36.374 28.989,36.886 28.913,37 H 30.239 C 30.414,36.752 30.754,36.521 30.855,36.46 C 31.96,35.794 33.283,34.995 35.255,34.336 C 37.412,33.616 40.36,33 44.634,33 H 49.57 L 50.638,30 H 23.188 C 14.434,30 5.993,34.211 3,37 H 4.378 Z" fill="rgb(10, 120, 189)"/>
<path d="M 16.208,25.308 H 13.948 L 13.398,27.996 H 12.19 L 13.419,22 H 14.624 L 14.151,24.324 H 16.421 L 16.899,22 H 18.105 L 16.879,27.996 H 15.67 L 16.219,25.323 Z M 18.178,27.996 L 19.403,22 H 23.756 L 23.551,23 H 20.408 L 20.128,24.373 H 23.167 L 22.963,25.373 H 19.923 L 19.555,26.996 H 22.971 L 22.762,27.996 H 18.178 Z M 28.422,27.996 H 27.297 L 25.712,23.976 L 24.887,27.996 H 23.762 L 24.987,22 H 26.116 L 27.706,26.017 L 28.526,22 H 29.648 L 28.422,27.996 Z M 29.686,27.996 L 30.915,22 H 32.12 L 30.895,27.996 H 29.685 Z M 32.102,27.996 L 33.327,22 H 37.68 L 37.476,23 H 34.332 L 34.052,24.373 H 37.092 L 36.887,25.373 H 33.847 L 33.48,26.996 H 36.895 L 36.687,27.996 H 32.102 Z M 38.887,27.996 H 37.677 L 38.908,22 H 41.515 C 41.963,22 42.312,22.062 42.56,22.157 C 42.81,22.249 43.013,22.421 43.165,22.671 C 43.319,22.921 43.397,23.225 43.397,23.581 C 43.397,24.09 43.247,24.51 42.948,24.841 C 42.649,25.171 42.197,25.375 41.591,25.454 C 41.746,25.595 41.891,25.782 42.027,26.013 C 42.297,26.481 42.597,27.142 42.928,27.996 H 41.63 C 41.526,27.659 41.322,27.132 41.017,26.416 C 40.852,26.031 40.676,25.771 40.489,25.638 C 40.374,25.558 40.174,25.519 39.889,25.519 H 39.396 L 38.887,27.996 Z M 39.58,24.622 H 40.22 C 40.87,24.622 41.299,24.582 41.51,24.503 C 41.724,24.424 41.89,24.3 42.01,24.132 A 0.9,0.9 0 0,0 42.19,23.602 A 0.54,0.54 0 0,0 41.93,23.112 C 41.824,23.046 41.593,23 41.238,23 H 39.908 L 39.58,24.622 Z M 43.662,27.996 L 44.887,22 H 49.24 L 49.036,23 H 45.892 L 45.612,24.373 H 48.652 L 48.447,25.373 H 45.407 L 45.04,26.996 H 48.455 L 48.247,27.996 H 43.662 Z M 10.664,26 H 11.881 A 2.967,2.967 0 0,1 10.812,27.466 C 10.337,27.819 9.78,27.996 9.142,27.996 C 8.424,27.996 7.862,27.776 7.456,27.336 C 7.053,26.894 6.852,26.256 6.852,25.417 C 6.852,24.737 6.987,24.115 7.256,23.552 C 7.529,22.987 7.905,22.554 8.386,22.255 C 8.866,21.955 9.389,21.806 9.956,21.806 C 10.59,21.806 11.104,21.98 11.496,22.328 C 11.889,22.674 12.096,23.399 12.166,23.998 H 11.008 C 10.89,23.353 10.656,22.867 9.931,22.867 C 9.597,22.867 9.285,22.97 8.994,23.177 C 8.706,23.384 8.474,23.707 8.301,24.148 C 8.128,24.586 8.041,25.024 8.041,25.462 C 8.041,25.941 8.153,26.311 8.377,26.572 C 8.604,26.833 8.886,26.964 9.222,26.964 C 9.767,26.964 10.494,26.536 10.664,26 Z" fill="rgb(7, 8, 11)"/>
</svg>
