<?xml version="1.0" encoding="UTF-8"?>
<!-- generated by Finnhub -->
<svg viewBox="0 0 55.5 55.5" xmlns="http://www.w3.org/2000/svg">
<path d="M 0,0 H 55.5 V 55.5 H 0 Z" fill="rgb(239, 242, 248)"/>
<path d="M 27.169999999999998,10.985 C 17.04,16.12 12.58,26.5 11.43,31.82 A 17.07,17.07 0 0,1 11.13,25.93 A 34.77,34.77 0 0,1 23.07,11.71 C 24.38,11.31 25.76,11.07 27.17,11 Z" fill="url(#h)"/>
<path d="M 31.419999999999998,11.315 C 30.63,11.16 29.83,11.06 29,11.01 C 17.92,17.17 13.76,29.51 12.91,35.84 C 13.68,37.3 14.65,38.64 15.78,39.82 C 17.6,22.91 26.58,14.02 31.43,11.32 Z" fill="url(#g)"/>
<path d="M 35.4,12.665 C 26.27,21.58 22.11,36.64 21.1,43.54 A 16.98,16.98 0 0,1 18.17,41.87 C 18.7,28.55 27.32,16.83 32.57,11.6 C 33.55,11.88 34.51,12.24 35.41,12.68 Z" fill="url(#f)"/>
<path d="M 39.07,15.075 A 17.04,17.04 0 0,0 37,13.55 C 29.34,23 25.36,37.24 24.08,44.55 C 25.34,44.85 26.65,45 28,45 H 28.07 C 31.44,30.73 36.6,19.5 39.07,15.09 Z" fill="url(#e)"/>
<path d="M 44.99,28.064999999999998 V 28 C 45,26.73 44.86,25.49 44.6,24.3 C 33.27,16.78 21.54,15.23 16.58,15.4 C 16.31,15.64 16.06,15.9 15.81,16.15 C 31.38,18.1 41.45,24.64 45,28.08 Z" fill="url(#d)"/>
<path d="M 14.92,17.095 C 21.25,17.92 34.79,21.85 44.51,32.08 A 16.9,16.9 0 0,1 43.08,35.85 C 38.45,30.36 26.91,19.97 14.12,18.17 C 14.37,17.81 14.64,17.46 14.92,17.11 Z" fill="url(#c)"/>
<path d="M 13.49,19.085 C 20.25,21.88 33.98,29.06 41.52,38.3 A 17.1,17.1 0 0,1 39.22,40.76 C 34.33,35.57 23,25.14 12.7,20.56 C 12.94,20.06 13.21,19.57 13.5,19.1 Z" fill="url(#b)"/>
<path d="M 12.25,21.544999999999998 C 17.56,25.54 29.28,34.86 36.75,42.58 A 16.9,16.9 0 0,1 32.78,44.32 C 27.82,39 17.48,28.19 11.72,23.07 C 11.88,22.56 12.06,22.05 12.26,21.56 Z" fill="url(#a)"/>
<path d="M 12.28,23.564999999999998 L 13.09,22.19 L 14.69,23.42 A 35,35 0 0,0 13.86,25.02 L 12.29,23.58 Z" fill="rgb(20, 83, 125)"/>
<path d="M 13.8,21.064999999999998 C 14.14,20.59 14.48,20.11 14.82,19.66 C 15.36,19.89 15.94,20.16 16.54,20.44 C 16.19,20.94 15.86,21.45 15.54,21.96 C 14.96,21.66 14.39,21.36 13.81,21.08 Z" fill="rgb(23, 84, 129)"/>
<path d="M 20.99,22.655 C 20.08,22.17 19.19,21.72 18.33,21.3 C 17.98,21.85 17.65,22.4 17.34,22.96 C 18.23,23.48 19.12,24.02 20,24.59 C 20.32,23.93 20.66,23.29 21,22.67 Z" fill="rgb(19, 76, 120)"/>
<path d="M 18.99,26.805 C 18.1,26.09 17.22,25.4 16.4,24.75 C 16.09,25.38 15.8,26.01 15.54,26.63 C 16.37,27.43 17.24,28.28 18.12,29.16 C 18.4,28.36 18.69,27.57 19,26.82 Z" fill="rgb(17, 68, 112)"/>
<path d="M 15.75,18.435 C 16.06,18.08 16.36,17.73 16.66,17.39 C 17.26,17.49 17.91,17.63 18.6,17.79 C 18.28,18.15 17.97,18.52 17.68,18.89 C 17.05,18.72 16.41,18.58 15.76,18.45 Z" fill="rgb(19, 83, 130)"/>
<path d="M 23.25,19.064999999999998 C 22.31,18.78 21.38,18.5 20.5,18.26 C 20.19,18.66 19.88,19.06 19.59,19.46 C 20.51,19.76 21.42,20.09 22.32,20.46 L 23.26,19.08 Z" fill="rgb(23, 81, 130)"/>
<path d="M 26.84,18.465 L 28,16.9 C 29,17.16 30.03,17.46 31.09,17.8 C 30.69,18.36 30.31,18.93 29.95,19.5 C 28.95,19.15 27.93,18.8 26.85,18.48 Z" fill="rgb(19, 75, 126)"/>
<path d="M 24.81,21.575 C 25.15,21.04 25.49,20.51 25.82,19.99 C 26.82,20.37 27.85,20.79 28.88,21.26 C 28.51,21.89 28.16,22.54 27.82,23.19 C 26.84,22.62 25.84,22.09 24.82,21.59 Z" fill="rgb(20, 70, 117)"/>
<path d="M 22.319999999999997,26.155 C 22.69,25.43 23.06,24.71 23.43,24.01 A 96.2,96.2 0 0,1 26.51,25.83 C 26.11,26.69 25.74,27.55 25.39,28.4 C 24.39,27.64 23.37,26.89 22.33,26.17 Z" fill="rgb(22, 63, 106)"/>
<path d="M 17.569999999999997,16.365 L 18.55,15.41 C 19.21,15.44 19.93,15.49 20.71,15.57 C 20.31,15.94 19.93,16.33 19.56,16.72 L 17.58,16.38 Z" fill="rgb(23, 91, 140)"/>
<path d="M 25.459999999999997,16.305 C 24.5,16.12 23.57,15.95 22.68,15.82 C 22.27,16.24 21.87,16.66 21.48,17.1 C 22.44,17.3 23.36,17.52 24.27,17.75 C 24.67,17.25 25.07,16.77 25.47,16.32 Z" fill="rgb(18, 88, 136)"/>
<path d="M 20.22,31.255 C 20.54,30.37 20.88,29.49 21.23,28.63 L 24.32,31.19 A 72.4,72.4 0 0,0 23.26,34.35 C 22.26,33.32 21.24,32.28 20.23,31.27 Z" fill="rgb(34, 55, 97)"/>
<path d="M 36.63,19.905 C 35.57,19.45 34.51,19.02 33.47,18.62 C 33.1,19.22 32.75,19.84 32.41,20.46 C 33.59,20.94 34.69,21.45 35.73,21.96 C 36.04,21.24 36.35,20.56 36.64,19.92 Z" fill="rgb(22, 69, 117)"/>
<path d="M 34.72,24.285 A 53.7,53.7 0 0,0 31.36,22.44 C 30.99,23.19 30.63,23.94 30.28,24.7 C 31.45,25.46 32.57,26.25 33.63,27.05 C 34,26.1 34.37,25.18 34.73,24.31 Z" fill="rgb(22, 63, 109)"/>
<path d="M 32.54,29.925 A 78.37,78.37 0 0,0 29.07,27.48 C 28.67,28.46 28.3,29.43 27.94,30.4 C 29.14,31.37 30.3,32.34 31.39,33.3 C 31.78,32.14 32.16,31.02 32.55,29.94 Z" fill="rgb(22, 56, 93)"/>
<path d="M 30.369999999999997,36.455 C 29.24,35.44 28.08,34.41 26.91,33.4 C 26.51,34.63 26.15,35.84 25.82,37 A 683.4,683.4 0 0,1 29.21,40.53 C 29.58,39.13 29.98,37.78 30.38,36.47 Z" fill="rgb(27, 45, 80)"/>
<defs>
<linearGradient id="h" x1="27.19" x2="10.51" y1="10.98" y2="31.03" gradientUnits="userSpaceOnUse">
<stop stop-color="rgb(20, 107, 165)" offset="0"/>
<stop stop-color="rgb(3, 74, 118)" offset="1"/>
</linearGradient>
<linearGradient id="g" x1="29.9" x2="12.89" y1="11.41" y2="37.99" gradientUnits="userSpaceOnUse">
<stop stop-color="rgb(9, 111, 183)" offset="0"/>
<stop stop-color="rgb(1, 59, 110)" offset=".72"/>
</linearGradient>
<linearGradient id="f" x1="33.24" x2="19.22" y1="11.65" y2="43.56" gradientUnits="userSpaceOnUse">
<stop stop-color="rgb(9, 111, 181)" offset="0"/>
<stop stop-color="rgb(1, 57, 102)" offset=".69"/>
</linearGradient>
<linearGradient id="e" x1="37.9" x2="25.61" y1="14.51" y2="45" gradientUnits="userSpaceOnUse">
<stop stop-color="rgb(1, 114, 197)" offset="0"/>
<stop stop-color="rgb(1, 60, 106)" offset=".72"/>
</linearGradient>
<linearGradient id="d" x1="16.14" x2="45.67" y1="15.22" y2="27.45" gradientUnits="userSpaceOnUse">
<stop stop-color="rgb(43, 156, 221)" offset="0"/>
<stop stop-color="rgb(1, 62, 111)" offset=".77"/>
</linearGradient>
<linearGradient id="c" x1="14.47" x2="47.64" y1="16.88" y2="26.58" gradientUnits="userSpaceOnUse">
<stop stop-color="rgb(43, 156, 221)" offset="0"/>
<stop stop-color="rgb(1, 62, 111)" offset=".63"/>
</linearGradient>
<linearGradient id="b" x1="13.03" x2="45.33" y1="18.83" y2="26.57" gradientUnits="userSpaceOnUse">
<stop stop-color="rgb(43, 156, 221)" offset="0"/>
<stop stop-color="rgb(1, 62, 111)" offset=".57"/>
</linearGradient>
<linearGradient id="a" x1="12.01" x2="40.55" y1="21.28" y2="26.93" gradientUnits="userSpaceOnUse">
<stop stop-color="rgb(43, 156, 221)" offset="0"/>
<stop stop-color="rgb(1, 62, 111)" offset=".55"/>
</linearGradient>
</defs>
</svg>
