<?xml version="1.0" encoding="UTF-8"?>
<!-- generated by Finnhub -->
<svg viewBox="0 0 55.5 55.5" xmlns="http://www.w3.org/2000/svg">
<path d="M 0,0 H 55.5 V 55.5 H 0 Z" fill="rgb(9, 19, 71)"/>
<path d="M 13.99,16.925 V 35.34 C 14,38.47 16.5,41 19.57,41 H 29.07 C 29.58,41 30,40.58 30,40.06 V 37.88 C 30,37.36 29.58,37 29.07,37 H 19.02 C 18.5,37 18,36.51 18,36 V 16.93 C 18,16.41 17.67,15.99 17.16,15.99 H 14.93 A 0.94,0.94 0 0,0 14,16.93 Z M 27,16.67 C 27,16.3 27.33,16 27.73,16 H 44.27 C 44.67,16 45,16.3 45,16.67 V 19.33 C 45,19.7 44.67,20 44.27,20 H 38 V 40.26 C 38,40.66 37.7,41 37.33,41 H 34.67 C 34.3,41 34,40.67 34,40.26 V 20 H 27.73 C 27.33,20 27,19.7 27,19.33 V 16.67 Z" fill="rgb(254, 254, 253)"/>
</svg>
