<?xml version="1.0" encoding="UTF-8"?>
<!-- generated by Finnhub -->
<svg viewBox="0 0 55.5 55.5" xmlns="http://www.w3.org/2000/svg">
<path d="M 0,0 H 55.5 V 55.5 H 0 Z" fill="rgb(239, 242, 248)"/>
<path d="M 47.99,18.985 V 28 H 8 V 27.6 C 29.05,27.6 43.44,21.87 48,19 Z M 12,32 H 11 V 30.54 L 10.1,31.68 H 9.9 L 9,30.58 V 32 H 8 V 29 H 9.07 L 10.02,30.25 L 10.92,29 H 12 V 32 Z M 17,32 H 15.78 L 15.55,31.37 H 14.37 L 14.16,32 H 13 L 14.25,29 H 15.7 L 17,32 Z M 15.3,30.66 L 14.95,29.73 L 14.63,30.66 H 15.3 Z M 30,32 H 28.78 L 28.55,31.37 H 27.37 L 27.16,32 H 26 L 27.25,29 H 28.7 L 30,32 Z M 28.3,30.66 L 27.95,29.73 L 27.63,30.66 H 28.3 Z M 43,32 H 41.78 L 41.55,31.37 H 40.37 L 40.16,32 H 39 L 40.25,29 H 41.7 L 43,32 Z M 41.3,30.66 L 40.95,29.73 L 40.63,30.66 H 41.3 Z M 21,32 H 20.02 L 19,30.46 V 32 H 18 V 29 H 18.98 L 20,30.54 V 29 H 21 V 32 Z M 47,32 H 46.02 L 45,30.46 V 32 H 44 V 29 H 44.98 L 46,30.54 V 29 H 47 V 32 Z M 25,32 H 24 V 30.7 H 23 V 32 H 22 V 29 H 23 V 30 H 24 V 29 H 25 V 32 Z M 34,29.74 H 33 V 32 H 32 V 29.74 H 31 V 29 H 34 V 29.74 Z M 38,29.74 H 37 V 32 H 36 V 29.74 H 35 V 29 H 38 V 29.74 Z M 10,34.56 A 0.5,0.5 0 0,1 9.95,34.82 C 9.87,34.94 9.68,35 9.37,35 H 8 V 33 H 9.35 C 9.69,33 10,33.07 10,33.44 V 33.64 C 10,33.82 9.9,33.91 9.64,33.96 C 9.88,34.02 10,34.15 10,34.33 V 34.56 Z M 9.26,33.71 V 33.54 C 9.26,33.51 9.24,33.49 9.2,33.49 H 8.72 V 33.75 H 9.2 C 9.24,33.75 9.26,33.74 9.26,33.71 Z M 9.28,34.46 V 34.27 C 9.28,34.24 9.26,34.22 9.22,34.22 H 8.72 V 34.51 H 9.22 C 9.26,34.51 9.28,34.49 9.28,34.46 Z M 13,35 H 12.28 L 11.88,34.24 H 11.67 V 35 H 11 V 33 H 12.18 C 12.48,33 12.66,33.06 12.72,33.19 A 0.6,0.6 0 0,1 12.76,33.44 V 33.8 C 12.76,33.91 12.76,33.99 12.73,34.04 A 0.3,0.3 0 0,1 12.53,34.2 L 13,35 Z M 12.1,33.73 V 33.53 C 12.1,33.51 12.07,33.49 12.03,33.49 H 11.67 V 33.77 H 12.03 C 12.07,33.77 12.1,33.76 12.1,33.73 Z M 14.74,35 H 14 V 33 H 14.74 V 35 Z M 38.74,35 H 38 V 33 H 38.74 V 35 Z M 18,34.56 A 0.5,0.5 0 0,1 17.95,34.82 C 17.87,34.94 17.68,35 17.36,35 H 16 V 33 H 17.36 C 17.69,33 17.89,33.06 17.96,33.19 C 17.98,33.24 18,33.33 18,33.44 V 34.56 Z M 17.27,34.46 V 33.54 C 17.27,33.51 17.25,33.49 17.21,33.49 H 16.73 V 34.51 H 17.21 C 17.25,34.51 17.27,34.49 17.27,34.46 Z M 21,34.56 C 21,34.72 20.95,34.84 20.86,34.9 C 20.78,34.97 20.62,35 20.4,35 H 19.6 C 19.38,35 19.22,34.97 19.13,34.9 C 19.04,34.84 19,34.72 19,34.56 V 33.44 C 19,33.28 19.04,33.17 19.13,33.1 C 19.23,33.03 19.38,33 19.6,33 H 20.4 C 20.62,33 20.77,33.03 20.86,33.1 C 20.96,33.16 21,33.28 21,33.44 V 33.53 L 20.3,33.63 V 33.49 H 19.7 V 34.51 H 20.3 V 34.29 H 19.98 V 33.82 H 21 V 34.56 Z M 24,35 H 22 V 33 H 24 V 33.5 H 22.84 V 33.71 H 23.69 V 34.18 H 22.84 V 34.51 H 24 V 35 Z M 31,34.56 C 31,34.72 30.95,34.84 30.86,34.9 C 30.78,34.97 30.62,35 30.4,35 H 29.6 C 29.38,35 29.22,34.97 29.13,34.9 C 29.04,34.84 29,34.72 29,34.56 V 33.44 C 29,33.28 29.04,33.17 29.13,33.1 C 29.23,33.03 29.38,33 29.6,33 H 30.4 C 30.62,33 30.77,33.03 30.86,33.1 C 30.96,33.16 31,33.28 31,33.44 V 33.66 L 30.3,33.77 V 33.49 H 29.7 V 34.51 H 30.3 V 34.18 L 31,34.29 V 34.56 Z M 34,35 H 33.4 L 33.27,34.58 H 32.69 L 32.58,35 H 32 L 32.62,33 H 33.35 L 34,35 Z M 33.15,34.11 L 32.97,33.49 L 32.81,34.11 H 33.15 Z M 37,33.8 A 0.5,0.5 0 0,1 36.94,34.07 C 36.87,34.19 36.66,34.24 36.34,34.24 H 35.76 V 35 H 35 V 33 H 36.34 C 36.68,33 36.88,33.06 36.95,33.19 C 36.98,33.24 37,33.33 37,33.44 V 33.8 Z M 36.24,33.73 V 33.53 C 36.24,33.51 36.22,33.49 36.17,33.49 H 35.76 V 33.77 H 36.17 C 36.22,33.77 36.24,33.76 36.24,33.73 Z M 42,33.5 H 41.35 V 35 H 40.65 V 33.5 H 40 V 33 H 42 V 33.5 Z M 45,35 H 44.4 L 44.27,34.58 H 43.69 L 43.58,35 H 43 L 43.62,33 H 44.35 L 45,35 Z M 44.15,34.11 L 43.97,33.49 L 43.81,34.11 H 44.15 Z M 48,35 H 46 V 33 H 46.78 V 34.5 H 48 V 35 Z" fill="rgb(28, 138, 62)"/>
</svg>
