<?xml version="1.0" encoding="UTF-8"?>
<!-- generated by Finnhub -->
<svg viewBox="0 0 55.5 55.5" xmlns="http://www.w3.org/2000/svg">
<path d="M 0,28 A 28,28 0 1,1 56,28 A 28,28 0 0,1 0,28 Z" fill="rgb(1, 168, 182)"/>
<path d="M 5.55,24.985 H 4 V 32 H 8 V 30.56 H 5.56 V 25 Z M 18.72,25 H 17 L 19.57,32 H 21.41 L 24,25 H 22.39 L 20.56,30.15 H 20.54 L 18.72,25 Z M 40.5,25 H 42.3 L 44.97,32 H 43.29 L 42.74,30.5 H 39.89 L 39.34,32 H 37.77 L 40.5,25 Z M 41.33,26.67 L 40.35,29.17 H 42.29 L 41.33,26.67 Z M 9,28.5 C 9,26.47 10.43,25 12.5,25 C 14.56,25 16,26.47 16,28.5 C 16,30.53 14.57,32 12.5,32 A 3.36,3.36 0 0,1 9,28.5 Z M 10.52,28.5 C 10.52,29.66 11.24,30.56 12.5,30.56 C 13.75,30.56 14.48,29.66 14.48,28.5 C 14.48,27.34 13.75,26.44 12.5,26.44 S 10.52,27.34 10.52,28.5 Z M 27.5,30.56 V 26.44 H 30 V 25 H 26 V 32 H 30 V 30.56 H 27.5 Z M 30,27.75 H 28.5 V 29.25 H 30 V 27.75 Z M 36.15,26.8 A 2.44,2.44 0 0,0 34.65,26.34 C 34.04,26.34 33.61,26.56 33.61,27 C 33.61,27.41 33.95,27.57 34.47,27.69 L 35.21,27.87 C 36.37,28.16 37,28.78 37,29.89 C 37,31.19 35.95,32 34.48,32 A 3.88,3.88 0 0,1 32,31.21 L 32.67,30.04 C 33.16,30.44 33.77,30.67 34.39,30.66 C 35.22,30.66 35.56,30.35 35.56,29.96 C 35.56,29.58 35.2,29.35 34.65,29.21 L 33.87,29.01 C 32.78,28.74 32.18,28.16 32.18,27.09 C 32.18,26.02 32.84,25 34.54,25 C 35.94,25 36.6,25.46 36.84,25.63 L 36.15,26.8 Z M 50.25,30.4 C 50.52,30.28 50.75,30.1 50.93,29.87 L 52,30.89 C 51.4,31.58 50.5,32 49.42,32 C 47.4,32 46,30.53 46,28.5 C 46,26.47 47.4,25 49.42,25 C 50.48,25 51.38,25.41 51.98,26.1 L 50.92,27.12 A 1.87,1.87 0 0,0 49.42,26.44 C 48.19,26.44 47.48,27.34 47.48,28.5 C 47.48,29.66 48.19,30.56 49.42,30.56 C 49.71,30.57 49.99,30.52 50.25,30.4 Z" fill="rgb(254, 254, 253)"/>
</svg>
