<?xml version="1.0" encoding="UTF-8"?>
<!-- generated by Finnhub -->
<svg viewBox="0 0 55.5 55.5" xmlns="http://www.w3.org/2000/svg">
<path d="M 0,0 H 55.5 V 55.5 H 0 Z" fill="rgb(10, 80, 151)"/>
<path d="M 4.99,22.985 H 4 V 33 H 8 V 32 H 5 V 23 Z" fill="rgb(254, 254, 253)"/>
<path d="M 46.99,23.985 V 23 H 52 V 24 Z M 47,33 V 32 H 52 V 33 Z M 47,28.5 V 27.5 H 50.997 V 28.5 H 47 Z M 9,23 H 10 V 33 H 9 Z M 37,23 H 38 V 33 H 37 Z" fill="rgb(254, 254, 253)"/>
<path d="M 11.839,22.985 H 11 V 33 H 12 V 24 H 13.662 C 14.459,24 15.936,24.201 16,26.026 C 16.064,27.851 14.425,28.152 13.54,28.091 L 14.274,29 C 16.464,28.825 17.004,26.944 17,26.026 C 16.972,23.708 15.037,23 14.113,23 H 11.849 Z" fill="rgb(254, 254, 253)"/>
<path d="M 21.99,32.985 A 5,5 0 1,0 22,23 A 5,5 0 0,0 22,33 Z M 21.996,31.996 A 4,4 0 1,0 21.996,23.996 A 4,4 0 0,0 21.996,31.996 Z" fill="rgb(254, 254, 253)" fill-rule="evenodd"/>
<path d="M 36.574000000000005,29.985 A 5.001,5.001 0 0,1 27,28 A 5,5 0 0,1 36.584,26 H 35.464 A 4,4 0 1,0 35.464,30 H 36.584 Z M 39,23 H 40.362 L 44.996,31.585 V 33 H 44.676 L 40,24.52 V 33 H 39 V 23 Z M 45,23 H 46 V 33 H 45 V 23 Z" fill="rgb(254, 254, 253)"/>
</svg>
