<?xml version="1.0" encoding="UTF-8"?>
<!-- generated by Finnhub -->
<svg viewBox="0 0 55.5 55.5" xmlns="http://www.w3.org/2000/svg">
<path d="M 0,0 H 55.5 V 55.5 H 0 Z" fill="rgb(239, 242, 248)"/>
<path d="M 27.99,14.344999999999999 C 28,11.06 27.07,9.41 26.44,9 C 32.08,9.42 33.9,13.3 34,15.18 V 21.18 C 34,23.42 34.35,25.3 34.63,25.96 C 29.19,24.84 27.83,20.67 28,18.73 V 14.36 Z" fill="rgb(233, 58, 43)"/>
<path d="M 18.009999999999998,34.095 C 17.63,27.54 23.17,19.33 26,16.05 V 21.94 C 26,26.13 29.27,28.11 31.86,29.34 C 34.45,30.56 37.88,32.19 38,37.08 C 38.12,41.98 34.27,46.06 28.91,46 C 23.56,45.94 18.5,42.33 18.01,34.11 Z" fill="rgb(25, 112, 146)"/>
</svg>
