<?xml version="1.0" encoding="UTF-8"?>
<!-- generated by Finnhub -->
<svg viewBox="0 0 55.5 55.5" xmlns="http://www.w3.org/2000/svg">
<path d="M 0,0 H 55.5 V 55.5 H 0 Z" fill="rgb(196, 0, 59)"/>
<path d="M 41.394000000000005,14.543999999999999 C 37.738,10.892 33.244,9 27.922,9 C 22.719,9 18.225,10.892 14.558,14.559 C 10.892,18.224 9,22.718 9,27.922 S 10.892,37.62 14.558,41.286 C 18.225,44.952 22.718,46.844 27.922,46.844 C 33.244,46.844 37.738,44.952 41.404,41.286 S 46.963,33.126 46.963,27.922 C 46.963,22.719 45.071,18.225 41.404,14.558 Z" fill="rgb(254, 254, 253)"/>
<path d="M 27.932,11.942 C 23.566,11.957 19.88,13.593 16.806,16.786 C 13.731,19.742 12.174,23.546 12.174,27.922 C 12.174,32.18 13.75,35.964 16.707,39.157 C 19.9,42.114 23.685,43.642 27.942,43.642 C 32.318,43.642 36.102,42.114 39.177,39.157 C 42.252,35.964 43.76,32.298 43.76,27.922 V 27 H 33 V 29 H 42.33 C 42.094,32.666 40.567,35.718 37.847,38.32 C 35.008,40.922 31.727,42.213 27.942,42.213 C 23.922,42.213 20.61,40.813 17.89,37.975 C 15.051,35.255 13.603,31.943 13.603,27.922 C 13.603,24.02 15.051,20.61 17.89,17.772 C 20.61,14.933 23.921,13.484 27.942,13.484 H 28.73 V 11.957 H 27.942 Z M 27,19 V 36 H 33 V 34 H 29 V 19 H 27 Z" fill="rgb(196, 0, 59)"/>
<circle cx="22" cy="22" r="2" fill="rgb(196, 0, 59)"/>
</svg>
