<?xml version="1.0" encoding="UTF-8"?>
<!-- generated by Finnhub -->
<svg viewBox="0 0 55.5 55.5" xmlns="http://www.w3.org/2000/svg">
<path d="M 0,0 H 55.5 V 55.5 H 0 Z" fill="rgb(239, 242, 248)"/>
<path d="M 5.99,23.985 H 5 V 31 H 8.5 L 9,30 H 6 V 24 Z M 11,24 H 10 V 31 H 11 V 24 Z M 15.5,31 C 16.118,31 16.698,30.84 17.202,30.559 L 18.295,31.654 L 19,30.947 L 18.002,29.947 A 3.5,3.5 0 1,0 15.5,31 Z M 15.5,30 C 16.782,30 17.821,28.88 17.821,27.5 S 16.781,25 15.5,25 C 14.218,25 13.179,26.12 13.179,27.5 S 14.219,30 15.5,30 Z M 21,24 H 20 V 28.5 C 20,30.237 21.483,31 23,31 S 26,30.237 26,28.5 V 24 H 25 V 28 A 2,2 0 0,1 21,28 V 24 Z M 29,24 H 28 V 31 H 29 V 24 Z M 33.5,24 H 31 V 31 H 33.5 A 3.5,3.5 0 1,0 33.5,24 Z M 33.5,25 H 32 V 30 H 33.5 A 2.5,2.5 0 0,0 33.5,25 Z M 39,24 H 38 V 31 H 39 V 24 Z M 45,25 V 24 H 40 V 25 H 42 V 31 H 43 V 25 H 45 Z M 48,28.387 L 45.5,24 H 46.632 L 48.5,27.28 L 50.368,24 H 51.5 L 49,28.39 V 31 H 48 V 28.387 Z M 27.058,34.715 C 27.264,34.905 27.534,35 27.866,35 A 0.84,0.84 0 0,0 28.371,34.846 A 0.533,0.533 0 0,0 28.586,34.388 A 0.443,0.443 0 0,0 28.451,34.046 A 1.099,1.099 0 0,0 28.05,33.829 A 1.104,1.104 0 0,1 27.79,33.713 C 27.735,33.676 27.707,33.631 27.707,33.58 C 27.707,33.53 27.73,33.49 27.774,33.458 A 0.294,0.294 0 0,1 27.943,33.41 C 28.065,33.41 28.186,33.46 28.304,33.562 L 28.592,33.232 A 1.074,1.074 0 0,0 27.912,33 A 0.822,0.822 0 0,0 27.395,33.175 A 0.54,0.54 0 0,0 27.171,33.618 C 27.171,33.872 27.356,34.055 27.726,34.168 C 27.836,34.202 27.914,34.235 27.961,34.268 A 0.166,0.166 0 0,1 28.035,34.415 A 0.147,0.147 0 0,1 27.958,34.545 A 0.324,0.324 0 0,1 27.787,34.59 A 0.554,0.554 0 0,1 27.361,34.382 L 27.058,34.715 Z M 30.711,33.428 H 31.52 V 33 H 30.19 V 35 H 31.52 V 34.572 H 30.711 V 34.21 H 31.5 V 33.78 H 30.711 V 33.428 Z M 34.162,35 L 33.7,34.269 H 33.63 V 35 H 33.11 V 33 H 33.899 C 33.985,33 34.069,33.013 34.15,33.038 C 34.234,33.06 34.311,33.097 34.383,33.147 A 0.51,0.51 0 0,1 34.554,33.347 A 0.62,0.62 0 0,1 34.618,33.634 C 34.618,33.899 34.483,34.084 34.211,34.191 L 34.796,35 H 34.162 Z M 33.776,33.39 H 33.63 V 33.888 H 33.783 C 33.881,33.888 33.955,33.866 34.006,33.822 A 0.222,0.222 0 0,0 34.086,33.641 A 0.228,0.228 0 0,0 34.006,33.459 C 33.953,33.413 33.876,33.391 33.776,33.391 Z M 38.14,33 H 37.574 L 37.134,34.337 L 36.69,33 H 36.121 L 36.905,35 H 37.355 L 38.138,33 Z M 40.189,33 V 35 H 39.669 V 33 H 40.189 Z M 42.096,34.712 C 42.294,34.904 42.551,35 42.867,35 C 43.114,35 43.329,34.937 43.51,34.81 L 43.238,34.415 C 43.138,34.508 43.018,34.555 42.877,34.555 A 0.515,0.515 0 0,1 42.482,34.394 A 0.563,0.563 0 0,1 42.335,34.004 A 0.56,0.56 0 0,1 42.482,33.612 A 0.51,0.51 0 0,1 42.877,33.449 A 0.51,0.51 0 0,1 43.237,33.585 L 43.51,33.19 C 43.324,33.063 43.11,33 42.867,33 C 42.551,33 42.294,33.096 42.096,33.288 A 0.96,0.96 0 0,0 41.802,34.002 C 41.802,34.282 41.9,34.52 42.096,34.712 Z M 47.829,34.715 C 48.035,34.905 48.305,35 48.637,35 A 0.84,0.84 0 0,0 49.143,34.846 A 0.533,0.533 0 0,0 49.357,34.388 A 0.443,0.443 0 0,0 49.222,34.046 A 1.1,1.1 0 0,0 48.822,33.829 A 1.104,1.104 0 0,1 48.561,33.713 C 48.506,33.676 48.478,33.631 48.478,33.58 C 48.478,33.53 48.501,33.49 48.546,33.458 A 0.293,0.293 0 0,1 48.714,33.41 C 48.837,33.41 48.957,33.46 49.075,33.562 L 49.363,33.232 A 1.074,1.074 0 0,0 48.683,33 A 0.822,0.822 0 0,0 48.166,33.175 A 0.54,0.54 0 0,0 47.943,33.618 C 47.943,33.872 48.127,34.055 48.497,34.168 C 48.607,34.202 48.685,34.235 48.732,34.268 A 0.166,0.166 0 0,1 48.806,34.415 A 0.147,0.147 0 0,1 48.729,34.545 A 0.324,0.324 0 0,1 48.558,34.59 A 0.554,0.554 0 0,1 48.132,34.382 L 47.829,34.715 Z M 46.329,33.428 H 45.521 V 33.78 H 46.311 V 34.21 H 45.521 V 34.572 H 46.33 V 35 H 45 V 33 H 46.329 V 33.428 Z" clip-rule="evenodd" fill="rgb(18, 75, 132)" fill-rule="evenodd"/>
<path d="M 42.99,19.816 C 41.306,17.975 34.95,14.431 29,20 H 32.78 C 37.47,16.287 42.384,19.156 43,19.831 Z" fill="rgb(40, 169, 223)"/>
<path d="M 37.99,20.154 C 39.694,22.025 46.05,25.569 52,19.999 H 48.22 C 43.53,23.713 38.616,20.844 38,20.169 Z" fill="rgb(140, 196, 63)"/>
</svg>
