<?xml version="1.0" encoding="UTF-8"?>
<!-- generated by Finnhub -->
<svg viewBox="0 0 55.5 55.5" xmlns="http://www.w3.org/2000/svg">
<path d="M 0,0 H 55.5 V 55.5 H 0 Z" fill="rgb(239, 242, 248)"/>
<path d="M 23.831999999999997,19.537 L 36.801,16.046 C 37.703,15.802 37.976,16.584 38,17.005 V 20.456 C 32.975,20.684 22.94,21.004 23,20.456 C 23.061,19.908 23.587,19.626 23.842,19.552 Z" fill="rgb(14, 90, 164)"/>
<path d="M 22.991,20.855 C 23.001,20.038 23.668,19.777 24.001,19.75 H 38.707 C 39.709,19.75 39.982,20.496 39.993,20.87 C 39.998,26.337 40.005,37.543 39.993,38.62 C 39.982,39.697 39.335,39.989 39.013,40 C 34.359,39.99 24.842,39.976 24.001,40 C 23.161,40.023 22.984,39.288 23.001,38.917 V 20.87 Z" fill="rgb(35, 191, 219)"/>
<path d="M 16.99,17.985 H 20 V 21 H 17 Z M 12,23 H 15 V 26 H 12 Z" fill="rgb(241, 198, 21)"/>
<path d="M 16.99,22.985 H 20 V 26 H 17 Z" fill="rgb(24, 169, 180)"/>
<path d="M 19.99,25.985 H 23 V 29 H 20 Z" fill="rgb(241, 198, 21)"/>
<path d="M 16.99,28.985 H 20 V 32 H 17 Z" fill="rgb(24, 169, 180)"/>
<path d="M 13.99,31.985 H 17 V 35 H 14 Z" fill="rgb(241, 198, 21)"/>
<path d="M 22.99,28.985 H 26 V 32 H 23 Z" fill="rgb(14, 90, 164)"/>
<path d="M 22.99,34.985 H 26 V 38 H 23 Z" fill="rgb(254, 254, 253)"/>
<path d="M 19.99,34.985 H 23 V 38 H 20 Z" fill="rgb(24, 169, 180)"/>
<path d="M 25.99,31.985 H 29 V 34.997 H 26 Z" fill="rgb(14, 90, 164)"/>
<path d="M 25.99,28.985 H 29 V 32 H 26 Z" fill="rgb(254, 254, 253)"/>
<path d="M 22.99,22.985 H 26 V 26 H 23 Z" fill="rgb(14, 90, 164)"/>
<path d="M 28.99,20.985 H 32 V 24 H 29 Z" fill="rgb(254, 254, 253)"/>
<path d="M 28.99,25.985 H 32 V 29 H 29 Z" fill="rgb(14, 90, 164)"/>
<path d="M 34.99,28.985 H 38 V 32 H 35 Z M 32,32 H 35 V 35 H 32 Z" fill="rgb(254, 254, 253)"/>
</svg>
