<?xml version="1.0" encoding="UTF-8"?>
<!-- generated by Finnhub -->
<svg viewBox="0 0 55.5 55.5" xmlns="http://www.w3.org/2000/svg">
<path d="M 0,0 H 55.5 V 55.5 H 0 Z" fill="rgb(239, 242, 248)"/>
<path d="M 39.99,38.815 L 38.31,45 L 33,25 L 36.5,25.68 L 40,38.83 Z M 38.88,29.72 L 38,26 L 44.1,27.28 L 45,31 L 38.88,29.72 Z" fill="rgb(15, 28, 89)"/>
<path d="M 29.99,30.985 L 24,29.85 V 25 L 30,31 Z M 36,45 L 26,31 L 31.13,32.25 L 33.86,35.71 L 36,45 Z" fill="rgb(38, 75, 117)"/>
<path d="M 21.99,30.314999999999998 V 35 L 12,29.03 L 22,25 V 30.33 Z M 30,41 L 23,36 V 31 L 30,41 Z M 17,16 L 23,17 L 11,23.8 L 17,16 Z M 33,15.5 L 25.5,16.5 L 18,15 L 26.3,13 L 33,15.5 Z" fill="rgb(15, 28, 89)"/>
<path d="M 43.99,20.335 V 25 L 38,24.1 L 41.78,22.14 L 40.08,20 L 44,20.35 Z" fill="rgb(38, 75, 117)"/>
<path d="M 36.71,16.985 L 38,18.86 L 34.5,21 L 34.74,19 L 32,17 H 36.72 Z" fill="rgb(15, 28, 89)"/>
<path d="M 22.99,18.985 L 24,22 L 11,27 L 23,19 Z M 33,31 L 25,23 L 24,18 L 31,24 L 33,31 Z" fill="rgb(38, 75, 117)"/>
</svg>
