<?xml version="1.0" encoding="UTF-8"?>
<!-- generated by Finnhub -->
<svg viewBox="0 0 55.5 55.5" xmlns="http://www.w3.org/2000/svg">
<path d="M 0,0 H 55.5 V 55.5 H 0 Z" fill="rgb(239, 242, 248)"/>
<path d="M 24.259999999999998,10.985 H 17.87 L 14,36 H 27.26 L 28.13,30 H 21.3 L 24.28,11 Z" fill="rgb(124, 0, 62)"/>
<path d="M 34.89,18.985 C 38.4,19.04 41.09,20.93 42,21.87 L 39.27,26.9 C 36.13,23.56 32.73,24.23 32.83,26.13 C 32.92,27.65 34.93,28.85 35.93,29.26 C 39.88,31.62 40.92,33 40.92,37.06 C 40.92,41.1 37.16,45.06 31.5,45 A 10.87,10.87 0 0,1 23,40.85 L 26.35,35.77 C 30.57,40.85 34.33,39.1 34.48,37.05 C 34.61,35.41 32.17,33.97 30.93,33.46 A 6.84,6.84 0 0,1 26.35,26.9 C 26.35,21.77 30.52,18.95 34.89,19 Z" fill="rgb(118, 119, 122)"/>
</svg>
