<?xml version="1.0" encoding="UTF-8"?>
<!-- generated by Finnhub -->
<svg viewBox="0 0 55.5 55.5" xmlns="http://www.w3.org/2000/svg">
<path d="M 0,0 H 55.5 V 55.5 H 0 Z" fill="url(#a)"/>
<path d="M 24.349,15.985 H 18.207 C 17.641,16 17.457,16.348 17.435,16.52 L 16.064,22.068 C 15.824,22.796 16.321,22.993 16.599,23 H 22.879 C 23.411,23 23.602,22.668 23.63,22.502 L 24.96,16.976 C 25.148,16.161 24.638,15.986 24.359,16.001 Z M 22.434,25 H 16.282 C 15.716,25 15.532,25.348 15.511,25.52 L 14.139,31.068 C 13.899,31.796 14.396,31.993 14.675,32 H 20.955 C 21.487,32 21.677,31.668 21.705,31.502 L 23.035,25.976 C 23.223,25.161 22.713,24.986 22.435,25.001 Z M 20.359,34 H 14.207 C 13.641,34 13.457,34.347 13.435,34.52 L 12.064,40.068 C 11.824,40.796 12.321,40.993 12.6,41 H 18.88 C 19.412,41 19.602,40.668 19.63,40.502 L 20.96,34.976 C 21.148,34.161 20.638,33.986 20.359,34.001 Z M 29.742,34 H 23.59 C 23.024,34 22.84,34.347 22.819,34.52 L 21.447,40.068 C 21.207,40.796 21.704,40.993 21.983,41 H 28.263 C 28.795,41 28.985,40.668 29.013,40.502 L 30.343,34.976 C 30.531,34.161 30.021,33.986 29.743,34.001 Z M 39.359,34 H 33.207 C 32.641,34 32.457,34.347 32.435,34.52 L 31.064,40.068 C 30.824,40.796 31.321,40.993 31.599,41 H 37.879 C 38.411,41 38.602,40.668 38.63,40.502 L 39.96,34.976 C 40.148,34.161 39.638,33.986 39.359,34.001 Z" fill="rgb(254, 193, 31)"/>
<path d="M 31.912,24.985 H 25.77 C 25.204,25 25.02,25.348 24.998,25.52 L 23.626,31.068 C 23.386,31.796 23.884,31.993 24.162,32 H 30.442 C 30.974,32 31.164,31.668 31.192,31.502 L 32.522,25.976 C 32.711,25.161 32.2,24.986 31.922,25.001 Z M 41.359,25 H 35.207 C 34.641,25 34.457,25.348 34.435,25.52 L 33.064,31.068 C 32.824,31.796 33.321,31.993 33.599,32 H 39.879 C 40.411,32 40.602,31.668 40.63,31.502 L 41.96,25.976 C 42.148,25.161 41.638,24.986 41.359,25.001 Z M 33.997,16 H 27.845 C 27.279,16 27.095,16.348 27.073,16.52 L 25.701,22.068 C 25.461,22.796 25.959,22.993 26.237,23 H 32.517 C 33.049,23 33.239,22.668 33.268,22.502 L 34.598,16.976 C 34.786,16.161 34.276,15.986 33.997,16.001 Z M 43.359,16 H 37.207 C 36.641,16 36.457,16.348 36.435,16.52 L 35.064,22.068 C 34.824,22.796 35.321,22.993 35.599,23 H 41.879 C 42.411,23 42.602,22.668 42.63,22.502 L 43.96,16.976 C 44.148,16.161 43.638,15.986 43.359,16.001 Z" fill="rgb(254, 254, 253)"/>
<defs>
<linearGradient id="a" x1="10.418" x2="68.147" y1="9.712" y2="76.017" gradientUnits="userSpaceOnUse">
<stop stop-color="rgb(25, 29, 31)" offset="0"/>
<stop stop-color="rgb(5, 5, 8)" offset="1"/>
</linearGradient>
</defs>
</svg>
