<?xml version="1.0" encoding="UTF-8"?>
<!-- generated by Finnhub -->
<svg viewBox="0 0 55.5 55.5" xmlns="http://www.w3.org/2000/svg">
<path d="M 0,0 H 55.5 V 55.5 H 0 Z" fill="rgb(239, 242, 248)"/>
<path d="M 27.99,11.985 A 16,16 0 0,0 20.1,41.92 A 12.78,12.78 0 0,1 27.6,39.22 V 44 H 28.4 V 39.21 C 31.22,39.3 33.81,40.3 35.9,41.92 A 16,16 0 0,0 28,12 Z M 38.05,30.84 A 3.2,3.2 0 0,1 33.88,33.9 A 3.2,3.2 0 0,1 28,36.33 A 3.2,3.2 0 0,1 22.1,33.89 A 3.2,3.2 0 0,1 19.67,28 A 3.2,3.2 0 0,1 22.12,22.1 A 3.2,3.2 0 0,1 28,19.67 A 3.2,3.2 0 0,1 33.9,22.11 A 3.2,3.2 0 0,1 36.32,28 A 3.2,3.2 0 0,1 38.04,30.84 Z" fill="rgb(238, 50, 62)"/>
<path d="M 31.139999999999997,31.665 L 28.35,28.88 V 34.87 A 2.49,2.49 0 1,0 32.58,33.11 L 31.15,31.68 Z M 24.83,31.68 L 23.4,33.1 A 2.48,2.48 0 1,0 27.63,34.86 V 28.87 L 24.83,31.67 Z M 32.83,28.36 H 28.86 L 33.09,32.59 A 2.48,2.48 0 1,0 34.85,28.36 H 32.83 Z M 23.16,27.64 H 27.13 L 22.89,23.41 A 2.48,2.48 0 1,0 21.13,27.64 H 23.16 Z M 23.4,19.39 A 2.49,2.49 0 0,0 23.4,22.9 L 27.63,27.13 V 21.14 A 2.49,2.49 0 0,0 23.4,19.38 Z M 31.15,24.32 L 32.58,22.89 A 2.48,2.48 0 1,0 28.35,21.13 V 27.12 L 31.15,24.32 Z M 36.6,23.41 A 2.49,2.49 0 0,0 33.1,23.41 L 31.66,24.83 L 28.86,27.63 H 34.85 A 2.48,2.48 0 0,0 36.61,23.41 Z M 24.32,31.17 L 27.12,28.37 H 21.15 A 2.49,2.49 0 0,0 19.39,32.6 C 20.35,33.57 21.92,33.57 22.89,32.6 L 24.32,31.17 Z" fill="rgb(238, 50, 62)"/>
</svg>
