<?xml version="1.0" encoding="UTF-8"?>
<!-- generated by Finnhub -->
<svg viewBox="0 0 55.5 55.5" xmlns="http://www.w3.org/2000/svg">
<path d="M 0,0 H 55.5 V 55.5 H 0 Z" fill="url(#a)"/>
<path d="M 40.46,25.985 C 39.98,26 39.51,25.93 39.07,25.78 C 38.62,25.62 38.27,25.42 38,25.18 L 38.4,24.2 C 38.65,24.42 38.96,24.6 39.33,24.74 A 3.13,3.13 0 0,0 41.26,24.84 C 41.46,24.76 41.62,24.65 41.71,24.52 C 41.81,24.39 41.86,24.23 41.86,24.07 C 41.86,23.86 41.79,23.69 41.65,23.57 A 1.4,1.4 0 0,0 41.11,23.27 A 6.87,6.87 0 0,0 40.39,23.05 C 40.13,22.99 39.86,22.91 39.59,22.83 C 39.33,22.74 39.09,22.63 38.87,22.49 A 1.7,1.7 0 0,1 38.34,21.93 C 38.2,21.69 38.14,21.39 38.14,21.03 C 38.14,20.66 38.22,20.33 38.4,20.03 C 38.59,19.71 38.86,19.46 39.23,19.28 C 39.61,19.09 40.08,19 40.66,19 C 41.03,19 41.4,19.05 41.77,19.16 C 42.14,19.26 42.47,19.41 42.74,19.6 L 42.37,20.58 A 3.19,3.19 0 0,0 40.65,20.05 C 40.33,20.05 40.06,20.09 39.86,20.18 A 1,1 0 0,0 39.42,20.51 A 0.83,0.83 0 0,0 39.29,20.97 C 39.29,21.18 39.35,21.35 39.49,21.47 C 39.62,21.6 39.79,21.7 40.01,21.77 L 40.75,21.98 C 41.01,22.05 41.28,22.12 41.55,22.21 C 41.81,22.29 42.05,22.41 42.27,22.54 C 42.49,22.68 42.67,22.86 42.79,23.09 C 42.93,23.33 43,23.62 43,23.98 S 42.9,24.68 42.72,24.98 C 42.54,25.29 42.27,25.54 41.89,25.73 C 41.52,25.91 41.04,26 40.47,26 Z M 35,26 V 19 H 36 V 26 H 35 Z M 31,26 C 29.22,26 28,25.06 28,23.5 V 19 H 29 V 23.45 C 29,24.4 29.85,25 31,25 C 31.92,25 33,24.85 33,23.45 V 19 H 34 V 23.45 C 34,25 32.76,26 31,26 Z M 23.5,26 A 3.41,3.41 0 0,1 20.98,25 A 3.38,3.38 0 0,1 20,22.5 C 20,22 20.09,21.53 20.26,21.11 A 3.34,3.34 0 0,1 22.11,19.26 C 22.53,19.09 23,19 23.5,19 C 24,19 24.47,19.09 24.9,19.26 A 3.34,3.34 0 0,1 26.74,21.11 C 26.91,21.53 27,21.99 27,22.5 C 27,23 26.91,23.47 26.74,23.9 A 3.25,3.25 0 0,1 24.89,25.74 C 24.47,25.91 24.01,26 23.51,26 Z M 23.5,24.9 C 23.83,24.9 24.13,24.83 24.41,24.72 A 2.13,2.13 0 0,0 25.61,23.46 C 25.73,23.17 25.78,22.85 25.78,22.5 A 2.48,2.48 0 0,0 25.13,20.79 C 24.93,20.57 24.69,20.4 24.41,20.29 A 2.33,2.33 0 0,0 23.5,20.11 A 2.18,2.18 0 0,0 21.87,20.79 A 2.37,2.37 0 0,0 21.22,22.5 C 21.22,22.84 21.27,23.16 21.38,23.45 C 21.5,23.75 21.66,24 21.87,24.22 C 22.07,24.43 22.31,24.6 22.59,24.72 C 22.87,24.83 23.17,24.89 23.5,24.89 Z M 14,19 V 26 H 19 V 25 H 16 C 15.6,25 15.17,25.33 15,25.5 V 19 H 14 Z M 43,35 V 29 H 41 V 28 H 46 V 29 H 44 V 35 H 43 Z M 38,35 V 29 H 36 V 28 H 41 V 29 H 39 V 35 H 38 Z M 31,32 V 34 H 35 V 35 H 30 V 28 H 35 V 29 H 31 V 31.5 C 31,31.33 31.2,31 32,31 H 35 V 32 H 31 Z M 48,32 V 34 H 52 V 35 H 47 V 28 H 52 V 29 H 48 V 31.5 C 48,31.33 48.2,31 49,31 H 52 V 32 H 48 Z M 20.44,35 A 3.4,3.4 0 0,1 17.97,34.02 A 3.72,3.72 0 0,1 17,31.5 C 17.01,31 17.1,30.53 17.27,30.1 A 3.25,3.25 0 0,1 19.09,28.26 A 3.5,3.5 0 0,1 20.46,28 C 20.99,28 21.47,28.1 21.91,28.3 C 22.34,28.48 22.71,28.76 23.01,29.14 L 22.24,29.91 A 2.29,2.29 0 0,0 18.38,30.54 C 18.28,30.83 18.22,31.15 18.22,31.5 S 18.27,32.17 18.38,32.46 A 2.2,2.2 0 0,0 20.51,33.89 C 20.85,33.89 21.17,33.83 21.45,33.69 C 21.75,33.56 22,33.36 22.24,33.09 L 23.01,33.86 C 22.71,34.23 22.34,34.51 21.91,34.71 C 21.47,34.91 20.99,35 20.45,35 Z M 10,35 L 12.49,28 H 13.5 L 16,35 H 14.92 L 12.78,28.69 H 13.19 L 11.06,35 H 10 Z M 11.22,33 L 11.5,32 H 14.49 L 14.76,33 H 11.22 Z M 8,28 H 9 V 35 H 8 V 32 H 6 C 5.6,32 5.17,32.33 5,32.5 V 35 H 4 V 28 H 5 V 31.5 C 5.17,31.33 5.6,31 6,31 H 8 V 28 Z M 28,28 H 29 V 35 H 28 V 32 H 26 C 25.6,32 25.17,32.33 25,32.5 V 35 H 24 V 28 H 25 V 31.5 C 25.17,31.33 25.6,31 26,31 H 28 V 28 Z" fill="rgb(254, 254, 253)"/>
<defs>
<linearGradient id="a" x1="10.42" x2="68.15" y1="9.71" y2="76.02" gradientUnits="userSpaceOnUse">
<stop stop-color="rgb(25, 29, 31)" offset="0"/>
<stop stop-color="rgb(5, 5, 8)" offset="1"/>
</linearGradient>
</defs>
</svg>
