<?xml version="1.0" encoding="UTF-8"?>
<!-- generated by Finnhub -->
<svg viewBox="0 0 55.5 55.5" xmlns="http://www.w3.org/2000/svg">
<path d="M 0,0 H 55.5 V 55.5 H 0 Z" fill="rgb(239, 242, 248)"/>
<path d="M 12.99,18.985 H 9 V 36 H 20 V 33 H 13 V 19 Z M 41,19 H 37 V 36 H 48 V 33 H 41 V 19 Z M 33,20.28 A 9.73,9.73 0 0,0 28.37,19 C 25.64,18.95 21.92,20.72 22,23.97 C 22.08,27.22 25.61,28.5 27.88,29.29 C 30.14,30.09 30.47,30.78 30.47,31.65 C 30.47,32.52 29.78,33.44 27.87,33.52 C 25.97,33.59 22.47,32.26 22,32.06 V 34.75 C 22.68,35.16 25.1,36 27.88,36 C 31.34,36 34.45,33.72 34.42,30.85 C 34.39,27.99 31.39,26.55 28.69,25.45 C 26.05,24.37 26.03,23.79 26,23.19 V 23.15 C 25.97,22.53 27.03,21.54 29.02,21.56 C 30.62,21.58 32.34,22.01 33,22.23 V 20.28 Z" fill="rgb(30, 64, 116)"/>
</svg>
