<?xml version="1.0" encoding="UTF-8"?>
<!-- generated by Finnhub -->
<svg viewBox="0 0 55.5 55.5" xmlns="http://www.w3.org/2000/svg">
<path d="M 0,0 H 55.5 V 55.5 H 0 Z" fill="rgb(36, 111, 184)"/>
<path d="M 39.218,44.214999999999996 L 28.059,37.08 L 16.891,44.23 L 20.575,31.77 L 10,23.693 L 23.427,23.116 L 28.059,11 L 32.693,23.116 L 46,23.693 L 35.545,31.77 L 39.228,44.23 Z" fill="rgb(254, 254, 253)"/>
<path d="M 22.043,36.57 C 16.962,36.472 14.183,35.09 12.446,31.982 C 10.595,28.873 14.066,24.846 14.066,24.846 S 8.975,29.681 11.752,33.708 C 14.531,37.852 22.4,38.542 28.072,37.046 C 33.857,35.666 40.109,32.673 42.308,29.794 C 36.291,34.514 27.148,36.817 22.053,36.585 Z" fill="rgb(254, 254, 253)"/>
<path d="M 44.004000000000005,24.971 C 44.714,23.141 42.847,18.799 37.012,18.474 C 22.423,17.496 15.538,24.877 15.538,24.877 S 24.525,18.257 34.676,19.45 C 41.213,20.319 42.029,22.164 42.029,22.164 S 44.479,24.768 41.328,28.458 C 38.763,31.499 43.314,26.831 44.014,24.986 Z" fill="rgb(254, 254, 253)"/>
</svg>
