<?xml version="1.0" encoding="UTF-8"?>
<!-- generated by Finnhub -->
<svg viewBox="0 0 55.5 55.5" xmlns="http://www.w3.org/2000/svg">
<path d="M 0,0 H 55.5 V 55.5 H 0 Z" fill="rgb(239, 242, 248)"/>
<path d="M 6.99,30.985 H 9 V 34 H 4 V 23 H 7 V 31 Z M 10,34 H 13 V 23 H 10 V 34 Z M 26.5,26 H 28 V 34 H 31 V 26 H 32.5 V 23 H 26.5 V 26 Z M 14,34 H 17 V 30 H 18.5 V 27 H 17 V 26 H 19 V 23 H 14 V 34 Z M 20,34 H 25 V 31 H 23 V 30 H 24.6 V 27 H 23 V 26 H 25 V 23 H 20 V 34 Z M 33,34 H 36 V 23 H 33 V 34 Z M 41.46,28.5 L 40.38,23 H 37 V 34 H 40 V 29.13 L 40.93,34 H 42.13 L 43,29.13 V 34 H 46 V 23 H 42.59 L 41.46,28.5 Z M 52,34 H 47 V 23 H 52 V 26 H 50 V 27 H 51.6 V 30 H 50 V 31 H 52 V 34 Z" fill="rgb(161, 168, 170)"/>
</svg>
