<?xml version="1.0" encoding="UTF-8"?>
<!-- generated by Finnhub -->
<svg viewBox="0 0 55.5 55.5" xmlns="http://www.w3.org/2000/svg">
<path d="M 0,0 H 55.5 V 55.5 H 0 Z" fill="url(#a)"/>
<path d="M 25.99,19.985 V 22 H 30.63 C 31.93,22 33.5,22.31 33.5,24.5 S 31.93,27 30.63,27 H 26 L 33.22,36 H 36 L 30.44,29 C 33.3,29 35.5,27.2 35.5,24.5 C 35.5,21.75 33.75,20 32.04,20 H 26 Z M 37,20 H 39.6 L 43.5,26.03 L 47.26,20 H 50 L 44.75,27.87 L 50,36 H 47.26 L 43.5,29.81 L 39.42,36 H 37 L 42.14,27.87 L 37,20 Z M 9,20 H 7 V 36 H 15 V 34 H 9 V 20 Z M 25,20 V 22 H 21 V 36 H 19 V 22 H 15 V 20 H 25 Z" fill="rgb(254, 254, 253)"/>
<defs>
<linearGradient id="a" x1="-7.5" x2="60.5" y1="10.5" y2="40" gradientUnits="userSpaceOnUse">
<stop stop-color="rgb(190, 40, 37)" offset=".11"/>
<stop stop-color="rgb(228, 63, 34)" offset=".49"/>
<stop stop-color="rgb(236, 84, 33)" offset=".88"/>
</linearGradient>
</defs>
</svg>
