<?xml version="1.0" encoding="UTF-8"?>
<!-- generated by Finnhub -->
<svg viewBox="0 0 55.5 55.5" xmlns="http://www.w3.org/2000/svg">
<path d="M 0,0 H 55.5 V 55.5 H 0 Z" fill="url(#a)"/>
<path d="M 24.419999999999998,25.985 H 25.43 V 31 H 24.43 Z M 5,26 H 4 V 31 H 7.65 V 30 H 5 V 26 Z" fill="rgb(254, 254, 253)"/>
<path d="M 43.99,25.985 H 43 V 31 H 46.65 V 30 H 44 V 26 Z" fill="rgb(184, 135, 42)"/>
<path d="M 18.99,25.985 V 31 H 21.2 A 2.3,2.3 0 0,0 23.5,28.7 V 28.3 A 2.3,2.3 0 0,0 21.2,26 H 19 Z M 20,27 V 30 H 21.1 C 21.87,30 22.5,29.37 22.5,28.6 V 28.4 C 22.5,27.63 21.87,27 21.1,27 H 20 Z" fill="rgb(254, 254, 253)" fill-rule="evenodd"/>
<path d="M 47.49,25.985 V 31 H 49.7 A 2.3,2.3 0 0,0 52,28.7 V 28.3 A 2.3,2.3 0 0,0 49.7,26 H 47.5 Z M 48.5,27 V 30 H 49.6 C 50.37,30 51,29.37 51,28.6 V 28.4 C 51,27.63 50.37,27 49.6,27 H 48.5 Z" fill="rgb(184, 135, 42)" fill-rule="evenodd"/>
<path d="M 8.99,25.985 H 8 V 29.1 C 8,30.15 8.85,31 9.9,31 H 10.6 A 1.9,1.9 0 0,0 12.5,29.1 V 26 H 11.5 V 28.9 C 11.5,29.5 11,30 10.4,30 H 10.1 C 9.5,30 9,29.5 9,28.9 V 26 Z M 13.5,26 V 31 H 14.5 V 27.59 L 16.8,31 H 18 V 26 H 17 V 29.52 L 14.66,26 H 13.5 Z M 26.5,26 V 31 H 27.5 V 27.59 L 29.8,31 H 31 V 26 H 30 V 29.52 L 27.66,26 H 26.5 Z" fill="rgb(254, 254, 253)"/>
<path d="M 39.660000000000004,30.985 C 41.12,31 42,29.88 42,28.5 S 41.09,25.98 39.67,26 C 38.25,26.02 37.34,27.12 37.34,28.5 S 38.21,31 39.67,31 Z M 39.66,30 C 40.48,30 40.98,29.33 40.98,28.5 S 40.47,27 39.66,27 C 38.86,27.01 38.34,27.67 38.34,28.5 S 38.84,30 39.66,30 Z" fill="rgb(184, 135, 42)" fill-rule="evenodd"/>
<path d="M 36.42,29.505 L 36.44,29.5 V 29.51 V 28.25 H 34.44 V 29 H 35.54 V 29.03 C 35.37,29.6 34.94,30 34.3,30 C 33.49,30 33,29.33 33,28.5 S 33.5,27.01 34.3,27 C 34.81,27 35.2,27.27 35.42,27.7 H 36.5 A 2.2,2.2 0 0,0 34.3,26 C 32.9,26.02 32,27.12 32,28.5 S 32.86,31 34.3,31 C 34.85,31 35.32,30.84 35.68,30.56 L 35.77,31 H 36.43 V 29.52 Z M 7.65,30.58 L 4.75,31 H 7.65 V 30.58 Z M 12.24,30.06 L 8.62,30.51 C 8.85,30.71 9.12,30.86 9.42,30.94 L 11.71,30.64 C 11.93,30.49 12.11,30.29 12.24,30.06 Z M 16.97,29.48 L 15.88,29.63 L 16.13,30 L 18,29.73 V 29.34 L 17,29.48 V 29.52 L 16.97,29.48 Z M 14.5,30.23 V 29.82 L 13.51,29.95 L 13.5,29.98 V 30.38 L 14.5,30.23 Z M 23.5,28.68 L 22.48,28.81 C 22.47,28.91 22.45,28.99 22.42,29.07 L 23.49,28.92 L 23.5,28.7 V 28.68 Z M 19,29.57 L 20,29.42 V 29.12 L 19,29.25 V 29.57 Z M 24.43,28.79 V 28.59 L 25.43,28.43 V 28.65 L 24.43,28.79 Z M 29,28.02 L 27.88,28.15 L 27.97,28.28 L 29.07,28.13 L 29,28.02 Z M 30,28 L 31,27.87 V 27.77 L 30,27.89 V 28 Z M 27.5,28.34 V 28.2 L 26.5,28.33 V 28.48 L 27.5,28.34 Z" fill="rgb(184, 135, 42)"/>
<defs>
<linearGradient id="a" x1="10.42" x2="68.15" y1="9.71" y2="76.02" gradientUnits="userSpaceOnUse">
<stop stop-color="rgb(25, 29, 31)" offset="0"/>
<stop stop-color="rgb(5, 5, 8)" offset="1"/>
</linearGradient>
</defs>
</svg>
