<?xml version="1.0" encoding="UTF-8"?>
<!-- generated by Finnhub -->
<svg viewBox="0 0 55.5 55.5" xmlns="http://www.w3.org/2000/svg">
<path d="M 0,0 H 55.5 V 55.5 H 0 Z" fill="url(#a)"/>
<path d="M 43.92,33.455 A 3.64,3.64 0 0,1 42.01,33.61 C 41.81,33.56 41.72,33.48 41.87,33.33 A 3.99,3.99 0 0,1 43.47,32.72 C 43.55,32.88 44.32,33.33 43.93,33.47 Z M 51.88,30.47 C 51.76,30.27 51.45,30.19 50.95,30.22 C 50.26,30.27 49.57,30.34 48.89,30.44 C 47.61,30.61 46.34,30.84 45.07,31.07 C 44.78,31.07 44.5,31.21 44.2,31.21 C 44.14,31.21 43.98,31.09 43.72,30.86 C 43.28,30.46 42.29,29.61 42.29,28.96 C 42.35,28.86 42.46,28.81 42.63,28.79 C 42.96,28.76 43.3,28.86 43.61,28.98 C 43.82,29.06 44.02,29.08 44.21,29.05 C 44.64,28.96 45.07,28.48 44.84,28.01 A 0.41,0.41 0 0,0 44.57,27.78 C 44.07,27.52 43.27,27.36 42.72,27.36 C 42.18,27.36 41.78,27.56 41.44,27.8 C 40.89,28.2 40.72,28.97 41,29.57 C 41.3,30.47 42,31.16 42.65,31.82 C 42.2,32.05 41.71,32.22 41.23,32.39 C 40.77,32.54 39.91,33.16 39.91,33.7 C 39.85,33.9 39.88,34.05 40,34.17 C 40.71,34.91 42.28,34.84 43.2,34.79 C 43.9,34.79 46.35,34.53 45.94,33.28 C 45.82,32.9 45.54,32.61 45.3,32.29 C 45.48,32.19 45.8,32.1 46.26,32.01 C 47.52,31.75 48.83,31.67 50.1,31.49 C 50.56,31.43 50.86,31.45 51.01,31.54 L 51.41,31.7 C 51.73,31.85 52.01,31.16 52,30.93 A 1.34,1.34 0 0,0 51.88,30.46 Z M 27.66,28.25 A 3,3 0 0,1 27.47,28.77 C 27.23,28.11 27.05,27.32 26.95,26.39 C 26.73,24.52 26.67,22.57 26.97,20.7 C 27.09,19.94 27.31,19.55 27.61,19.55 C 28.66,19.55 28.27,24.23 28.23,25.05 C 28.17,26.15 27.95,27.2 27.66,28.25 Z M 38.26,32.81 C 38.13,32.11 38.02,31.41 38.13,30.7 C 38.18,30.3 38.78,29.56 38.38,29.28 C 38.08,29.08 37.48,28.64 37.14,28.96 C 36.75,29.31 36.66,29.86 36.44,30.32 A 6,6 0 0,1 34.93,32.29 C 34.59,32.49 34.38,32.42 34.29,32.11 C 34.01,31.15 34.69,29.84 35.15,29.05 C 35.34,28.7 35.35,28.45 35.18,28.3 C 35.01,28.14 34.78,27.98 34.47,27.83 C 34.04,27.61 33.73,27.83 33.53,28.49 A 9.03,9.03 0 0,1 31.02,32.55 C 30.61,32.95 30.22,33.11 29.85,33.05 C 29.22,33.05 28.5,31.72 28.27,31.26 C 28.13,30.97 27.97,30.63 28.11,30.32 C 28.86,28.97 29.06,27.4 29.31,25.9 C 29.59,23.75 29.57,21.39 29.07,19.27 C 28.83,18.46 28.27,18 27.47,18 C 25.17,18 25.47,22.46 25.47,24.07 C 25.47,25.88 25.63,27.7 26.06,29.52 C 26.06,29.72 26.52,30.41 26.38,30.55 C 26.32,30.61 26.29,30.68 26.24,30.75 C 25.63,31.37 25.12,32.05 24.39,32.55 C 23.82,32.95 23.29,33.15 22.76,33.19 C 22.4,33.19 22.26,32.63 22.26,32.34 C 22.16,31.51 22.14,30.74 22.4,29.94 C 22.62,29.49 21.72,28.75 21.3,28.81 C 20.8,28.99 20.74,29.47 20.66,29.94 C 20.53,30.74 20.3,31.51 19.79,32.15 C 19.59,32.31 19.34,32.65 19.06,32.58 A 0.64,0.64 0 0,1 18.54,32.18 C 18.22,31.48 18.38,30.68 18.38,29.94 A 0.99,0.99 0 0,0 18.1,29.34 C 17.78,29.22 17.4,28.92 17.05,29 C 16.72,29.09 16.83,29.36 16.64,29.57 C 14.87,31.02 13.2,33.27 10.79,33.57 C 10.61,33.59 10.49,33.57 10.45,33.49 A 4.13,4.13 0 0,1 10,32 V 21.38 C 10,20.6 10,19.68 9.85,19.08 C 9.71,18.46 9.25,18.05 8.71,18.05 C 8.48,18.05 8,18.01 8,18.28 C 8,18.41 8.04,18.52 8.11,18.64 C 8.57,19.3 8.57,20.81 8.57,21.72 V 30.88 C 8.54,32.04 8.54,34.94 10.24,35 A 5.2,5.2 0 0,0 12.75,34.4 C 13.73,33.9 14.68,33.28 15.5,32.53 C 15.73,32.31 16.91,31.63 16.91,31.31 C 17.09,32.44 17.57,34.08 18.97,34.08 C 19.81,34.08 20.41,33.42 20.89,32.81 C 20.92,32.75 20.94,32.73 20.96,32.76 C 21.28,33.46 21.61,34.14 22.36,34.46 C 22.85,34.75 23.72,34.41 24.18,34.17 A 8.92,8.92 0 0,0 26.17,32.74 L 27.15,31.82 C 27.18,31.82 27.28,32 27.45,32.36 C 27.81,33.14 28.64,34.16 29.49,34.46 C 29.77,34.53 30.11,34.62 30.39,34.56 A 5,5 0 0,0 32.09,33.45 C 32.49,33.02 32.69,32.81 32.73,32.81 C 32.73,33.49 33.36,33.98 33.96,34.08 C 34.72,34.26 35.39,33.81 35.93,33.33 C 36.29,33.02 36.51,32.75 36.75,32.43 C 36.49,32.7 37.22,34.05 37.37,34.27 C 37.63,34.64 37.96,34.75 38.35,34.6 C 38.91,34.43 39.33,33.73 39.38,33.16 C 39.41,32.82 39.22,31.93 38.74,32.39 C 38.51,32.61 38.35,32.75 38.26,32.81 Z" fill="rgb(254, 254, 253)"/>
<defs>
<linearGradient id="a" x1="10.42" x2="68.15" y1="9.71" y2="76.02" gradientUnits="userSpaceOnUse">
<stop stop-color="rgb(25, 29, 31)" offset="0"/>
<stop stop-color="rgb(5, 5, 8)" offset="1"/>
</linearGradient>
</defs>
</svg>
