<?xml version="1.0" encoding="UTF-8"?>
<!-- generated by Finnhub -->
<svg viewBox="0 0 55.5 55.5" xmlns="http://www.w3.org/2000/svg">
<path d="M 0,0 H 55.5 V 55.5 H 0 Z" fill="rgb(239, 242, 248)"/>
<path d="M 26.15,16.585 L 12,27.52 C 12.78,18.59 18.82,14.32 21.74,13.31 L 26.16,16.6 Z M 37.06,20.94 L 25.32,12.16 C 34.16,11.17 39.41,14.96 40.92,16.98 L 37.06,20.94 Z M 22.16,42.93 C 14.66,39.53 12.3,33.38 12.05,30.72 L 17.92,26.52 C 17.89,28.06 18.15,31.62 19.45,33.49 C 21.58,37.15 26.33,38.23 28.45,38.3 L 22.15,42.93 Z M 37.8,34.77 L 26.13,43.9 C 34.96,44.77 40.4,40.35 42.01,38.03 L 37.81,34.78 Z" fill="rgb(1, 210, 192)"/>
<path d="M 29.04,35.045 C 24.67,35.06 21.88,31.44 21.88,29.24 C 21.88,24.78 25.91,21.72 29.05,19.27 C 33.29,22.8 35.85,26 35.85,28.67 S 33.43,35.07 29.05,35.07 Z" fill="rgb(1, 210, 192)"/>
</svg>
