<?xml version="1.0" encoding="UTF-8"?>
<!-- generated by Finnhub -->
<svg viewBox="0 0 55.5 55.5" xmlns="http://www.w3.org/2000/svg">
<path d="M 0,0 H 55.5 V 55.5 H 0 Z" fill="rgb(239, 242, 248)"/>
<path d="M 25.49,34.595 C 23.64,35.97 21.82,37.77 19.38,37.73 C 17.5,37.73 15.89,36.89 15.21,35.7 A 11.92,11.92 0 0,0 18.69,39.62 C 26.5,43.5 34.98,44.18 41.19,39.62 L 48,34.62 A 19.33,19.33 0 0,0 25.5,34.62" fill="url(#b)"/>
<path d="M 13.99,31.355 C 14,38.57 22.4,42.97 28.76,42.97 C 29.15,42.99 29.91,42.99 29.91,42.99 C 31.85,43.01 33.77,42.77 35.64,42.25 A 5.7,5.7 0 0,1 34.45,42.4 C 31.95,42.4 30,40.9 30,39.07 V 24.69 C 30,18.23 22.79,13 14,13 V 31.37 Z" fill="url(#a)"/>
<path d="M 34.440000000000005,42.385 C 31.95,42.4 30,40.91 30,39.08 V 32.32 A 17.4,17.4 0 0,0 25.49,34.62 L 22.54,36.78 C 21.61,37.42 20.5,38.02 19.38,38 A 5,5 0 0,1 15.16,35.75 C 17.93,40.76 24.05,42.89 29.49,43 H 29.92 C 31.77,43 33.61,42.77 35.4,42.3 C 35.09,42.36 34.77,42.4 34.46,42.4" fill="rgb(79, 43, 28)"/>
<defs>
<linearGradient id="b" x1="15.2" x2="48" y1="37.1" y2="37.1" gradientUnits="userSpaceOnUse">
<stop stop-color="rgb(56, 180, 72)" offset=".35"/>
<stop stop-color="rgb(214, 222, 33)" offset="1"/>
</linearGradient>
<linearGradient id="a" x1="24.82" x2="24.82" y1="43" y2="13" gradientUnits="userSpaceOnUse">
<stop stop-color="rgb(37, 33, 95)" offset="0"/>
<stop stop-color="rgb(237, 42, 121)" offset="1"/>
</linearGradient>
</defs>
</svg>
