<?xml version="1.0" encoding="UTF-8"?>
<!-- generated by Finnhub -->
<svg viewBox="0 0 55.5 55.5" xmlns="http://www.w3.org/2000/svg">
<path d="M 0,0 H 55.5 V 55.5 H 0 Z" fill="url(#a)"/>
<path d="M 48.940000000000005,29.985 C 48.97,30 49,29.99 49,29.96 C 49,29.94 48.99,29.92 48.96,29.91 A 2.66,2.66 0 0,1 47.44,28.86 L 40.34,18.71 A 1.66,1.66 0 0,0 38.98,18 H 33.05 A 0.05,0.05 0 0,0 33,18.05 C 33,18.07 33.01,18.09 33.03,18.1 C 33.35,18.21 33.63,18.43 33.83,18.71 L 40.95,28.88 A 2.7,2.7 0 0,0 42.83,30 H 36.61 C 35.76,30 34.94,29.58 34.43,28.85 L 27.34,18.71 A 1.67,1.67 0 0,0 25.98,18 H 20.05 A 0.05,0.05 0 0,0 20,18.05 C 20,18.07 20.01,18.09 20.03,18.1 C 20.35,18.21 20.63,18.43 20.83,18.71 L 27.95,28.88 C 28.45,29.59 29.25,30 30.13,30 H 36.33 C 35.57,30.08 34.88,30.5 34.43,31.14 L 28.73,38.29 L 14.33,18.71 C 14.03,18.27 13.52,18 12.98,18 H 7.05 C 7.02,18 7,18.02 7,18.05 C 7,18.07 7.01,18.09 7.03,18.1 C 7.35,18.21 7.63,18.43 7.83,18.71 L 23.63,40.3 C 23.94,40.74 24.45,41.01 24.99,41.01 H 32.49 C 33.03,41.01 33.53,40.74 33.85,40.3 L 40.94,31.17 A 2.68,2.68 0 0,1 43.1,30 H 48.94 Z" fill="rgb(254, 254, 253)"/>
<defs>
<linearGradient id="a" x1="10.42" x2="68.15" y1="9.71" y2="76.02" gradientUnits="userSpaceOnUse">
<stop stop-color="rgb(25, 29, 31)" offset="0"/>
<stop stop-color="rgb(5, 5, 8)" offset="1"/>
</linearGradient>
</defs>
</svg>
