<?xml version="1.0" encoding="UTF-8"?>
<!-- generated by Finnhub -->
<svg viewBox="0 0 55.5 55.5" xmlns="http://www.w3.org/2000/svg">
<path d="M 0,0 H 55.5 V 55.5 H 0 Z" fill="rgb(239, 242, 248)"/>
<path d="M 43.045,26.649 L 43.995,26.677 V 32.997 H 44.995 V 25.252 L 45.535,24 H 44.455 L 43.055,26.664 Z M 49,24 H 46 V 25 H 51.316 L 52,24 H 50 V 23.55 H 49 V 24 Z" fill="rgb(25, 92, 159)"/>
<path d="M 15.576,23.988 L 18.429,27.888 L 21.112,24.003 H 20.076 L 18.422,26.383 L 16.695,24.003 H 15.586 Z M 22.374,24.344 C 22.623,25.124 23.031,26.349 23.124,27.19 C 23.309,28.853 23.064,31.103 22.53,32.681 L 22.422,33 H 23.429 L 23.549,32.595 C 23.811,31.697 24.003,30.058 24.079,29.165 C 24.231,27.447 23.823,25.989 23.369,24.36 L 23.269,24.003 H 22.266 L 22.374,24.344 Z" fill="rgb(226, 14, 87)"/>
<path d="M 24.99,28.258 V 33 H 26 V 29.204 L 25.996,26.162 L 30.991,33 H 32 V 24 L 31.591,24.003 L 31,24 L 30.99,27.65 L 31,31.07 L 25.996,24 H 25 V 28.273 Z M 4,33 H 8 V 32 H 5 V 24 L 4.51,24.003 H 4 V 33 Z M 9,33 H 14 V 32 H 10 V 29 H 14 V 28 H 10 V 25 H 14 V 24.003 H 9 V 33 Z M 34.484,24.003 L 33.69,28 H 38 V 32 H 37 V 33 H 38.46 L 39,31.92 V 28 H 41 V 27 H 39 V 26 H 38 V 27 H 34.883 L 35.309,25 H 40.51 L 40.97,24.003 H 34.484 Z M 46,27 H 52 V 26 H 46 V 27 Z M 46,29 H 52 V 28 H 46 V 29 Z" fill="rgb(25, 92, 159)"/>
<path d="M 15.705,32.974 L 16.779,33 L 18.432,30.546 L 20.172,33 H 21.278 L 18.432,29.084 L 15.715,32.989 Z" fill="rgb(226, 14, 87)"/>
<path d="M 33.507000000000005,32.985 H 34.559 L 36.194,29 H 35.204 L 33.517,33 Z M 39.473,29.004 L 41.153,33 H 42.249 L 40.499,29 L 39.473,29.004 Z M 46,33 H 51.997 L 52,32.04 V 30 H 46 V 33 Z M 51,32 H 47 V 31 H 51 V 32 Z" fill="rgb(25, 92, 159)"/>
</svg>
