<?xml version="1.0" encoding="UTF-8"?>
<!-- generated by Finnhub -->
<svg viewBox="0 0 55.5 55.5" xmlns="http://www.w3.org/2000/svg">
<path d="M 0,0 H 55.5 V 55.5 H 0 Z" fill="rgb(239, 242, 248)"/>
<path d="M 23.99,7.985 C 23.6,8 23.17,8.35 23,8.53 H 24 C 24.5,8.53 25,9.58 25.5,9.58 S 26,9.06 26.5,9.06 C 26.9,9.06 27.33,9.41 27.5,9.58 V 8.53 C 27.33,8.35 26.9,8 26.5,8 C 26,8 26,8.53 25.5,8.53 S 24.5,8 24,8 Z" fill="url(#d)"/>
<path d="M 27.49,16.955 C 25.9,16.97 22.5,18.73 21,19.61 C 21.5,18.91 22.5,17.08 22.5,15.39 S 21.83,12.22 21.5,11.69 C 22.33,11.52 25.5,11.17 27.5,11.17 S 32.33,11.52 33.5,11.69 C 33.17,12.57 32.5,14.54 32.5,15.39 C 32.5,16.23 33.5,18.56 34,19.61 C 32.5,18.73 29.1,16.97 27.5,16.97 Z" fill="url(#c)"/>
<path d="M 26.99,30.155 C 24.2,30.59 20.83,32.45 19.5,33.33 C 23.5,35.44 24,39.67 24,40.73 C 24,41.78 23.69,42.83 21,42.83 C 19.4,42.83 18.33,44.24 18,44.94 A 22,22 0 0,0 24.5,43.89 C 24.9,44.73 26.33,44.94 27,44.94 V 30.17 Z M 28,30.17 C 30.8,30.59 34.17,32.45 35.5,33.33 C 31.5,35.44 31,39.67 31,40.73 C 31,41.78 32,42.83 34,42.83 C 35.6,42.83 36.67,44.24 37,44.94 A 22,22 0 0,1 30.5,43.89 C 30.1,44.73 28.67,44.94 28,44.94 V 30.17 Z" fill="rgb(79, 75, 62)"/>
<path d="M 27.49,18.544999999999998 C 26.3,18.56 21.33,20.31 19,21.19 C 19.33,22.43 20,25.1 20,25.94 C 20,26.79 18,31.22 17,33.34 C 19.67,31.93 25.5,29.11 27.5,29.11 S 35.33,31.93 38,33.33 C 37,31.4 35,27.21 35,25.94 C 35,24.68 35.67,22.25 36,21.19 C 33.67,20.31 28.7,18.56 27.5,18.56 Z" fill="url(#b)"/>
<path d="M 27.59,7.985 V 44.94 H 27.4 V 8 H 27.6 Z" fill="rgb(79, 75, 62)"/>
<path d="M 33.49,42.285 C 31.5,42.3 30.5,44.42 28,44.42 C 26.02,44.42 24.53,42 24.01,40.76 C 24.03,42.38 22.5,42.83 21,42.83 C 19.5,42.83 19,44.42 19,44.94 C 19,45.47 20,46 21,46 C 21.8,46 23.33,44.6 24,43.89 C 24.5,44.59 26,46 28,46 S 32.5,44.06 33.5,43.36 A 3.75,3.75 0 0,0 37,44.42 C 36.5,43.72 35.1,42.31 33.5,42.31 Z" fill="url(#a)"/>
<path d="M 25.99,26.985 H 24.5 V 26.47 C 24.9,26.47 25,26.12 25,25.94 V 22.25 L 24.5,21.72 H 26 L 27.5,25.94 L 29.5,21.72 H 30.5 L 30,22.25 V 25.95 C 30,26.37 30.33,26.47 30.5,26.47 V 27 H 29 V 26.47 C 29.4,26.47 29.5,26.12 29.5,25.94 V 22.78 L 27.5,27 H 27 L 25.5,22.78 V 25.94 C 25.5,26.37 25.83,26.47 26,26.47 V 27 Z" fill="rgb(79, 75, 62)"/>
<defs>
<linearGradient id="d" x1="23.5" x2="27.51" y1="8.53" y2="9" gradientUnits="userSpaceOnUse">
<stop stop-color="rgb(170, 118, 47)" offset="0"/>
<stop stop-color="rgb(248, 204, 73)" offset=".46"/>
<stop stop-color="rgb(171, 112, 38)" offset="1"/>
</linearGradient>
<linearGradient id="c" x1="22" x2="33" y1="13.81" y2="13.81" gradientUnits="userSpaceOnUse">
<stop stop-color="rgb(159, 106, 48)" offset="0"/>
<stop stop-color="rgb(212, 164, 40)" offset=".35"/>
<stop stop-color="rgb(249, 206, 74)" offset=".52"/>
<stop stop-color="rgb(213, 163, 50)" offset=".66"/>
<stop stop-color="rgb(171, 112, 38)" offset="1"/>
</linearGradient>
<linearGradient id="b" x1="19.5" x2="36" y1="27.53" y2="27.53" gradientUnits="userSpaceOnUse">
<stop stop-color="rgb(170, 117, 36)" offset="0"/>
<stop stop-color="rgb(224, 178, 48)" offset=".24"/>
<stop stop-color="rgb(251, 201, 44)" offset=".48"/>
<stop stop-color="rgb(229, 182, 49)" offset=".67"/>
<stop stop-color="rgb(163, 109, 55)" offset="1"/>
</linearGradient>
<linearGradient id="a" x1="19" x2="36.5" y1="43.89" y2="44.36" gradientUnits="userSpaceOnUse">
<stop stop-color="rgb(161, 111, 36)" offset="0"/>
<stop stop-color="rgb(241, 200, 72)" offset="1"/>
</linearGradient>
</defs>
</svg>
