<?xml version="1.0" encoding="UTF-8"?>
<!-- generated by Finnhub -->
<svg viewBox="0 0 55.5 55.5" xmlns="http://www.w3.org/2000/svg">
<path d="M 0,0 H 55.5 V 55.5 H 0 Z" fill="rgb(239, 242, 248)"/>
<path d="M 3.99,23.985 H 5.23 L 6.27,26.46 H 6.31 L 7.35,24 H 8.58 V 28 H 7.62 V 25.56 H 7.58 L 6.6,28 H 5.98 L 5,25.54 V 28 H 4 V 24 Z M 10,24 V 28 H 9 V 24 H 10 Z M 14.36,25.46 H 13.36 A 0.8,0.8 0 0,0 13.27,25.2 A 0.65,0.65 0 0,0 12.87,24.87 A 0.97,0.97 0 0,0 12.57,24.83 C 12.37,24.83 12.19,24.87 12.05,24.96 A 0.9,0.9 0 0,0 11.72,25.36 C 11.64,25.54 11.6,25.76 11.6,26 C 11.6,26.26 11.64,26.48 11.72,26.65 C 11.8,26.82 11.91,26.95 12.05,27.05 C 12.19,27.13 12.36,27.17 12.55,27.17 C 12.66,27.17 12.76,27.17 12.85,27.13 A 0.65,0.65 0 0,0 13.25,26.83 A 0.75,0.75 0 0,0 13.35,26.58 H 14.35 C 14.34,26.76 14.29,26.93 14.2,27.09 A 1.63,1.63 0 0,1 13.28,27.88 C 13.07,27.96 12.82,28 12.54,28 C 12.16,28 11.84,27.92 11.54,27.77 C 11.24,27.61 11.02,27.39 10.84,27.09 C 10.68,26.79 10.59,26.43 10.59,26 C 10.59,25.57 10.68,25.2 10.85,24.91 C 11.02,24.61 11.25,24.39 11.55,24.23 A 2.3,2.3 0 0,1 13.22,24.1 C 13.43,24.16 13.62,24.26 13.78,24.38 C 13.94,24.51 14.07,24.66 14.17,24.84 C 14.27,25.02 14.33,25.24 14.36,25.46 Z M 15,28 V 24 H 16.7 C 17.5,24 18.2,24.54 18.2,25.35 C 18.2,25.89 17.95,26.27 17.49,26.47 C 17.26,26.57 16.99,26.61 16.68,26.61 H 15.6 V 25.87 H 16.48 C 16.63,25.87 16.76,25.85 16.86,25.82 C 16.96,25.78 17.04,25.72 17.09,25.65 A 0.52,0.52 0 0,0 17.17,25.35 A 0.53,0.53 0 0,0 17.09,25.05 A 0.47,0.47 0 0,0 16.86,24.87 C 16.76,24.83 16.63,24.81 16.48,24.81 H 16 V 28 H 15 Z M 17.32,26.17 L 18.34,28 H 17.26 L 16.26,26.17 H 17.32 Z M 22.7,26 C 22.7,26.43 22.6,26.8 22.44,27.09 C 22.26,27.39 22.03,27.61 21.74,27.77 C 21.44,27.92 21.11,28 20.74,28 S 20.04,27.92 19.74,27.77 C 19.45,27.61 19.22,27.38 19.04,27.09 C 18.87,26.79 18.79,26.43 18.79,26 C 18.79,25.57 18.87,25.2 19.04,24.91 C 19.22,24.61 19.45,24.39 19.74,24.23 C 20.04,24.08 20.37,24 20.74,24 S 21.44,24.08 21.74,24.23 C 22.03,24.39 22.26,24.61 22.44,24.91 C 22.61,25.21 22.7,25.57 22.7,26 Z M 21.68,26 C 21.68,25.75 21.65,25.53 21.57,25.36 A 0.85,0.85 0 0,0 21.25,24.96 A 0.92,0.92 0 0,0 20.74,24.83 C 20.54,24.83 20.37,24.87 20.24,24.96 A 0.86,0.86 0 0,0 19.91,25.36 C 19.83,25.53 19.8,25.75 19.8,26 S 19.83,26.47 19.9,26.64 C 19.98,26.82 20.1,26.95 20.23,27.04 C 20.37,27.13 20.54,27.17 20.73,27.17 C 20.93,27.17 21.11,27.13 21.25,27.04 A 0.85,0.85 0 0,0 21.57,26.64 C 21.65,26.47 21.68,26.25 21.68,26 Z M 24.09,28 H 23.02 L 24.4,24 H 25.72 L 27.1,28 H 26.04 L 25.08,25.03 H 25.05 L 24.09,28 Z M 23.93,26.28 H 26.15 V 27 H 23.93 V 26.28 Z M 28,28 V 24 H 29 V 27.18 H 30.57 V 28 H 28 Z M 31,28 V 24 H 32 V 27.18 H 33.67 V 28 H 31 Z M 35.45,24 V 28 H 34.45 V 24 H 35.45 Z M 37.04,28 H 35.98 L 37.36,24 H 38.68 L 40.06,28 H 38.99 L 38.03,25.03 H 38 L 37.04,28 Z M 36.89,26.28 H 39.12 V 27 H 36.89 V 26.28 Z M 44,24 V 28 H 43.15 L 41.52,25.7 H 41.49 V 28 H 40.5 V 24 H 41.35 L 43,26.3 V 24 H 44 Z M 48.5,25.46 H 47.5 A 0.8,0.8 0 0,0 47.41,25.2 A 0.65,0.65 0 0,0 47.01,24.87 A 0.97,0.97 0 0,0 46.7,24.83 C 46.5,24.83 46.33,24.87 46.19,24.96 A 0.9,0.9 0 0,0 45.86,25.36 A 1.6,1.6 0 0,0 45.74,26 C 45.74,26.26 45.78,26.48 45.86,26.65 C 45.94,26.82 46.05,26.95 46.19,27.05 C 46.33,27.13 46.49,27.17 46.69,27.17 C 46.8,27.17 46.9,27.17 46.99,27.13 A 0.65,0.65 0 0,0 47.39,26.83 A 0.74,0.74 0 0,0 47.49,26.58 H 48.49 C 48.48,26.76 48.42,26.93 48.34,27.09 A 1.64,1.64 0 0,1 47.42,27.88 C 47.2,27.96 46.95,28 46.67,28 C 46.3,28 45.97,27.92 45.67,27.77 C 45.39,27.61 45.15,27.39 44.99,27.09 C 44.82,26.79 44.73,26.43 44.73,26 C 44.73,25.57 44.82,25.2 44.99,24.91 C 45.16,24.61 45.39,24.39 45.69,24.23 A 2.3,2.3 0 0,1 47.36,24.1 C 47.57,24.16 47.76,24.26 47.92,24.38 C 48.08,24.51 48.21,24.66 48.31,24.84 C 48.41,25.02 48.47,25.24 48.49,25.46 Z M 49,28 V 24 H 52 V 24.82 H 50 V 25.62 H 52 V 26.38 H 50 V 27.18 H 52 V 28 H 49 Z M 20.71,32.33 A 0.67,0.67 0 0,0 20.45,31.96 A 0.7,0.7 0 0,0 20.23,31.86 A 1,1 0 0,0 19.96,31.83 C 19.76,31.83 19.6,31.87 19.46,31.96 A 0.89,0.89 0 0,0 19.12,32.36 C 19.04,32.53 19,32.75 19,32.99 C 19,33.24 19.04,33.46 19.12,33.63 C 19.19,33.81 19.3,33.94 19.44,34.03 C 19.59,34.13 19.76,34.17 19.96,34.17 C 20.14,34.17 20.3,34.15 20.42,34.09 A 0.64,0.64 0 0,0 20.71,33.85 C 20.77,33.75 20.81,33.62 20.81,33.48 L 20.99,33.5 H 19.99 V 32.82 H 21.75 V 33.33 C 21.75,33.68 21.67,33.98 21.52,34.23 C 21.36,34.48 21.15,34.67 20.88,34.8 C 20.61,34.93 20.31,35 19.96,35 A 2.1,2.1 0 0,1 18.93,34.76 A 1.7,1.7 0 0,1 18.25,34.07 C 18.08,33.77 18,33.42 18,33.01 C 18,32.69 18.05,32.41 18.15,32.16 A 1.8,1.8 0 0,1 19.18,31.13 C 19.42,31.04 19.68,31 19.94,31 C 20.18,31 20.4,31.03 20.6,31.1 C 20.8,31.16 20.98,31.25 21.14,31.37 C 21.3,31.49 21.43,31.63 21.52,31.79 C 21.62,31.95 21.68,32.13 21.71,32.33 H 20.71 Z M 22.41,35 V 31 H 24.09 C 24.88,31 25.58,31.55 25.58,32.35 C 25.58,32.62 25.52,32.85 25.39,33.04 C 25.27,33.23 25.09,33.37 24.87,33.47 C 24.64,33.57 24.37,33.61 24.07,33.61 H 23 V 32.87 H 23.88 C 24.03,32.87 24.15,32.85 24.25,32.82 C 24.35,32.78 24.43,32.72 24.48,32.65 A 0.52,0.52 0 0,0 24.56,32.35 A 0.53,0.53 0 0,0 24.48,32.05 A 0.46,0.46 0 0,0 24.25,31.87 A 1,1 0 0,0 23.88,31.81 H 23.4 V 35 H 22.41 Z M 24.71,33.17 L 25.71,35 H 24.64 L 23.65,33.17 H 24.7 Z M 30.04,33 C 30.04,33.43 29.95,33.8 29.78,34.09 C 29.61,34.39 29.38,34.61 29.08,34.77 C 28.78,34.92 28.46,35 28.1,35 C 27.73,35 27.4,34.92 27.1,34.77 C 26.82,34.61 26.58,34.38 26.41,34.09 C 26.24,33.79 26.16,33.43 26.16,33 C 26.16,32.57 26.24,32.2 26.41,31.91 C 26.58,31.61 26.81,31.39 27.11,31.23 C 27.41,31.08 27.73,31 28.1,31 C 28.46,31 28.79,31.08 29.08,31.23 C 29.38,31.39 29.61,31.61 29.78,31.91 C 29.95,32.21 30.04,32.57 30.04,33 Z M 29.04,33 C 29.04,32.75 29,32.53 28.92,32.36 A 0.85,0.85 0 0,0 28.6,31.96 A 0.9,0.9 0 0,0 28.1,31.83 C 27.9,31.83 27.73,31.87 27.6,31.96 A 0.86,0.86 0 0,0 27.27,32.36 C 27.2,32.53 27.16,32.75 27.16,33 S 27.2,33.47 27.27,33.64 C 27.35,33.82 27.45,33.95 27.59,34.04 C 27.73,34.13 27.9,34.17 28.09,34.17 A 0.9,0.9 0 0,0 28.59,34.04 A 0.85,0.85 0 0,0 28.92,33.64 C 29,33.47 29.03,33.25 29.03,33 Z M 33,31 H 34 V 33.56 C 34,34.52 33.17,35 32.31,35 C 31.27,35 30.59,34.43 30.59,33.56 V 31 H 31.57 V 33.48 C 31.57,33.88 31.87,34.18 32.31,34.18 C 32.73,34.18 33,33.91 33,33.48 V 31 Z M 35,35 V 31 H 36.52 C 37.32,31 38,31.6 38,32.4 C 38,33.2 37.42,33.74 36.49,33.74 H 35.55 V 33 H 36.3 C 36.45,33 36.58,32.97 36.68,32.92 C 36.78,32.87 36.85,32.8 36.9,32.72 C 36.96,32.62 36.98,32.52 36.98,32.4 A 0.6,0.6 0 0,0 36.9,32.09 A 0.51,0.51 0 0,0 36.68,31.89 A 0.86,0.86 0 0,0 36.3,31.81 H 36 V 35 H 35 Z"/>
</svg>
