<?xml version="1.0" encoding="UTF-8"?>
<!-- generated by Finnhub -->
<svg viewBox="0 0 55.5 55.5" xmlns="http://www.w3.org/2000/svg">
<path d="M 0,0 H 55.5 V 55.5 H 0 Z" fill="url(#a)"/>
<path d="M 31.99,20.835 A 3.99,3.99 0 0,1 38.5,21.56 A 4,4 0 0,1 46,23.5 V 31 H 43 V 24 A 2,2 0 1,0 39,24 V 31 H 36 V 24 A 2,2 0 1,0 32,24 V 31 H 29 V 20 H 32 V 20.85 Z M 10,20 L 13.46,31 H 16.61 L 18.5,23.3 L 20.4,31 H 23.54 L 27,20 H 23.78 L 21.87,27.15 L 20.1,20 H 16.88 L 15.12,27.15 L 13.22,20 H 10 Z" fill="rgb(1, 206, 187)"/>
<path d="M 16.49,36.985 L 18,35 C 21,37 24.5,38 28,38 S 35,37 38,35 L 39.5,37 C 37.67,38.33 33.5,41 28,41 S 18.33,38.33 16.5,37 Z" fill="rgb(254, 254, 253)"/>
<defs>
<linearGradient id="a" x1="10.42" x2="68.15" y1="9.71" y2="76.02" gradientUnits="userSpaceOnUse">
<stop stop-color="rgb(25, 29, 31)" offset="0"/>
<stop stop-color="rgb(5, 5, 8)" offset="1"/>
</linearGradient>
</defs>
</svg>
