<?xml version="1.0" encoding="UTF-8"?>
<!-- generated by Finnhub -->
<svg viewBox="0 0 55.5 55.5" xmlns="http://www.w3.org/2000/svg">
<path d="M 0,0 H 55.5 V 55.5 H 0 Z" fill="rgb(239, 242, 248)"/>
<path d="M 6.24,25.505 L 5.1,29.97 C 4.96,30.49 5.01,30.84 5.62,30.83 H 5.63 A 0.03,0.03 0 0,1 5.65,30.86 L 5.62,30.97 A 0.04,0.04 0 0,1 5.58,31 H 4.02 A 0.02,0.02 0 0,1 4,30.97 L 4.03,30.87 C 4.03,30.85 4.04,30.84 4.06,30.83 C 4.43,30.8 4.7,30.65 4.82,30.23 L 6.02,25.75 C 6.14,25.26 5.93,25.2 5.52,25.17 C 5.51,25.17 5.5,25.16 5.5,25.14 L 5.53,25.03 C 5.53,25.01 5.55,25 5.56,25 H 7 V 25.02 L 7.46,29.94 H 7.47 L 10.6,25 H 11.99 L 12.01,25.03 L 11.98,25.14 C 11.98,25.16 11.97,25.17 11.95,25.17 C 11.33,25.2 11.25,25.41 11.1,25.97 L 10.02,30.07 C 9.9,30.57 9.94,30.81 10.49,30.83 C 10.51,30.83 10.51,30.84 10.51,30.86 L 10.5,30.97 C 10.5,30.99 10.48,31 10.46,31 H 8.4 C 8.38,31 8.37,30.99 8.38,30.97 L 8.4,30.86 C 8.4,30.85 8.4,30.84 8.42,30.83 H 8.44 C 8.8,30.84 9.09,30.73 9.19,30.35 L 10.39,25.75 L 10.47,25.55 H 10.46 A 20488.6,20488.6 0 0,1 6.99,30.99 A 0.11,0.11 0 0,1 6.86,30.96 A 0.11,0.11 0 0,1 6.83,30.9 L 6.28,25.52 A 0.01,0.01 0 0,0 6.27,25.51 H 6.26 V 25.52 Z M 34.64,25.02 C 34.64,25.01 34.65,25 34.67,25 H 36.87 A 0.03,0.03 0 0,1 36.88,25.03 L 36.86,25.13 C 36.86,25.16 36.84,25.17 36.82,25.17 C 36.3,25.19 36.11,25.3 35.97,25.79 A 806.9,806.9 0 0,0 34.72,30.24 C 34.67,30.44 34.62,30.74 34.93,30.78 C 35.19,30.8 35.44,30.82 35.7,30.81 C 36.5,30.81 37.08,30.74 37.47,29.98 C 37.6,29.72 37.71,29.48 37.8,29.25 C 37.8,29.23 37.82,29.22 37.84,29.22 H 37.97 A 0.03,0.03 0 0,1 38,29.23 V 29.25 A 10.14,10.14 0 0,0 37.54,31 H 33.04 C 33.01,31 33,30.99 33,30.96 L 33.03,30.86 C 33.03,30.84 33.03,30.84 33.05,30.83 H 33.07 C 33.72,30.83 33.82,30.55 33.97,29.99 L 35.17,25.71 C 35.3,25.23 35.02,25.21 34.63,25.17 A 0.03,0.03 0 0,1 34.61,25.16 V 25.14 L 34.64,25.02 Z M 14.31,27.5 V 27.51 H 14.32 L 14.4,27.12 C 14.4,27.1 14.42,27.1 14.43,27.1 C 14.62,27.1 14.8,27.06 14.98,27 C 15,27 15,27 15,27.03 L 14.17,30.4 C 14.14,30.53 14.15,30.75 14.32,30.72 C 14.62,30.67 14.79,30 14.86,29.72 C 14.86,29.7 14.87,29.7 14.89,29.7 H 14.96 C 14.98,29.7 14.98,29.7 14.98,29.72 C 14.86,30.18 14.74,30.72 14.32,30.95 C 14.08,31.07 13.72,30.98 13.68,30.62 C 13.65,30.32 13.8,29.86 13.88,29.56 H 13.87 V 29.55 H 13.85 C 13.68,30.01 13.43,30.52 13.07,30.82 C 12.8,31.04 12.37,31.09 12.15,30.76 C 11.97,30.46 11.98,29.99 12.04,29.64 C 12.2,28.74 12.65,27.72 13.34,27.19 C 13.53,27.05 13.86,26.93 14.07,27.05 C 14.23,27.15 14.27,27.31 14.31,27.51 Z M 13.97,27.16 C 13.65,27.04 13.31,27.56 13.17,27.82 A 5.72,5.72 0 0,0 12.62,29.51 C 12.57,29.77 12.47,30.74 12.78,30.76 C 13.04,30.77 13.36,30.28 13.48,30.05 C 13.83,29.43 14.07,28.75 14.21,28.03 C 14.25,27.77 14.25,27.26 13.97,27.16 Z M 18.15,25.2 C 17.95,25.43 17.95,25.75 18.14,25.9 C 18.33,26.07 18.64,26.02 18.84,25.8 C 19.04,25.57 19.05,25.25 18.86,25.1 C 18.67,24.93 18.36,24.98 18.16,25.2 Z M 16.9,30.71 C 17.35,30.87 17.73,29.96 17.82,29.73 L 17.83,29.72 L 17.85,29.71 L 17.97,29.7 H 17.99 L 18,29.71 V 29.73 C 17.77,30.3 17.5,31.03 16.58,31 C 15.78,30.97 15.98,30.35 16.16,29.97 L 17.18,27.65 C 17.24,27.52 17.28,27.24 16.97,27.28 C 16.54,27.34 16.3,28 16.17,28.28 L 16.16,28.3 H 16 V 28.27 C 16.08,28.06 16.18,27.84 16.28,27.63 C 16.69,26.81 18.41,26.67 17.85,27.95 L 16.93,30.04 C 16.86,30.2 16.63,30.63 16.88,30.71 Z M 19.62,30.8 C 20.17,31 20.74,30.7 20.75,30.12 C 20.75,29.78 20.62,29.53 20.41,29.22 C 20.23,28.97 20,28.69 19.91,28.44 C 19.65,27.79 20.07,27.14 20.79,27.02 C 21.26,26.94 22.02,27.04 22,27.64 C 21.99,28.12 21.32,28.16 21.34,27.69 C 21.34,27.53 21.41,27.38 21.53,27.26 A 0.03,0.03 0 0,0 21.53,27.23 V 27.21 L 21.51,27.2 C 20.65,26.86 20.22,27.71 20.66,28.34 C 20.89,28.69 21.15,29.02 21.31,29.4 C 21.58,30.03 21.26,30.65 20.61,30.9 C 20.18,31.07 19.41,31.05 19.11,30.66 C 18.94,30.43 18.92,29.89 19.37,29.95 C 19.73,29.99 19.64,30.55 19.6,30.77 C 19.6,30.78 19.6,30.79 19.62,30.8 Z M 23.04,30.21 C 22.84,29.19 23.45,27.71 24.32,27.18 C 24.67,26.97 25.22,26.93 25.57,27.14 C 25.91,27.36 26.02,27.8 26,28.21 A 3.5,3.5 0 0,1 25.08,30.51 C 24.52,31.11 23.25,31.31 23.04,30.21 Z M 24.42,27.49 A 4.78,4.78 0 0,0 23.62,30.39 C 23.63,30.67 23.75,30.82 23.98,30.84 C 24.57,30.9 24.98,29.89 25.13,29.42 C 25.27,28.99 25.63,27.5 25.19,27.2 C 24.93,27.03 24.59,27.27 24.42,27.5 Z M 28.3,28.82 C 28.24,29.04 28.25,29.04 28.34,28.83 C 28.59,28.25 29.08,27.38 29.76,27.11 C 30.48,26.81 31.12,27.14 30.85,27.93 L 29.98,30.34 C 29.94,30.44 29.94,30.52 29.94,30.62 C 29.94,30.62 29.94,30.64 29.96,30.65 C 30.06,30.75 30.16,30.75 30.3,30.68 C 30.58,30.5 30.74,30.03 30.84,29.73 C 30.84,29.71 30.86,29.7 30.88,29.7 H 30.98 C 31,29.7 31,29.7 31,29.72 L 30.77,30.32 C 30.57,30.8 30.13,31.12 29.57,30.96 C 29.14,30.85 29.27,30.34 29.37,30.06 L 30.1,28 C 30.17,27.8 30.35,27.37 30.1,27.27 C 29.61,27.06 28.93,28.07 28.75,28.37 A 8.75,8.75 0 0,0 27.71,30.89 H 27.03 A 0.02,0.02 0 0,1 27.03,30.86 L 28.03,27.54 C 28.11,27.29 27.83,27.21 27.65,27.34 C 27.4,27.54 27.25,27.99 27.15,28.28 L 27.13,28.29 L 27.11,28.3 H 27 A 0.02,0.02 0 0,1 27,28.27 C 27.19,27.72 27.4,26.93 28.24,27.01 C 28.71,27.06 28.64,27.55 28.54,27.87 L 28.28,28.82 Z M 41.68,29.12 H 41.67 L 41.66,29.13 C 41.45,29.63 41.19,30.08 40.86,30.46 C 40.24,31.21 38.71,31.3 39.2,29.93 L 40.04,27.67 A 0.7,0.7 0 0,0 40.07,27.39 L 40.06,27.36 C 39.85,27.13 39.55,27.42 39.46,27.6 C 39.34,27.8 39.26,28 39.18,28.21 C 39.15,28.29 39.11,28.33 39.02,28.3 C 39,28.3 39,28.29 39,28.27 C 39.2,27.68 39.45,26.89 40.35,27.01 C 40.95,27.09 40.74,27.74 40.62,28.06 C 40.23,29.09 39.96,29.84 39.8,30.3 C 39.74,30.45 39.74,30.8 40.04,30.77 C 41.14,30.64 42.05,27.92 42.25,27.13 C 42.25,27.11 42.26,27.11 42.28,27.11 A 3.2,3.2 0 0,0 43,27.02 L 41.95,30.41 A 0.4,0.4 0 0,0 41.95,30.66 L 41.98,30.69 C 42.44,30.92 42.75,29.98 42.83,29.73 L 42.86,29.71 L 42.97,29.7 H 43 V 29.73 C 42.87,30.08 42.75,30.52 42.45,30.78 C 42.13,31.06 41.32,31.16 41.35,30.54 C 41.38,30.08 41.57,29.56 41.7,29.12 Z M 45.5,27.38 C 45.15,27.18 44.91,28.01 44.83,28.27 C 44.83,28.29 44.81,28.29 44.8,28.29 H 44.71 C 44.69,28.29 44.69,28.29 44.69,28.27 C 44.82,27.86 44.96,27.28 45.37,27.07 C 45.75,26.89 46.19,27.07 46.26,27.52 A 17.51,17.51 0 0,1 46.38,28.41 V 28.4 C 46.58,27.96 47.15,26.96 47.72,27.01 C 48.32,27.07 47.88,27.99 47.19,27.47 A 0.03,0.03 0 0,0 47.15,27.47 C 46.82,27.79 46.59,28.24 46.43,28.66 A 0.39,0.39 0 0,0 46.4,28.84 L 46.55,30.17 C 46.57,30.37 46.61,30.77 46.91,30.64 C 47.12,30.54 47.29,30.01 47.37,29.74 L 47.38,29.72 L 47.4,29.71 H 47.5 C 47.51,29.71 47.52,29.71 47.51,29.74 C 47.35,30.24 47.18,31 46.51,31 C 46.12,31 45.97,30.68 45.93,30.33 A 58.32,58.32 0 0,1 45.8,29.4 C 45.6,29.86 44.81,31.18 44.18,30.98 C 43.73,30.84 44.19,30.05 44.81,30.54 H 44.85 A 4.6,4.6 0 0,0 45.78,29.14 A 0.2,0.2 0 0,0 45.78,29.03 C 45.74,28.56 45.68,28.1 45.63,27.63 C 45.63,27.56 45.57,27.43 45.5,27.38 Z M 49.04,29.6 C 49.22,28.66 49.85,27.56 50.76,27.15 C 51.18,26.96 52.04,26.83 52,27.55 C 51.95,28.45 50.52,29.03 49.8,29.25 A 0.04,0.04 0 0,0 49.78,29.28 C 49.7,29.64 49.62,30.23 49.84,30.52 C 49.97,30.7 50.18,30.75 50.48,30.66 A 1.48,1.48 0 0,0 51.35,29.96 H 51.37 L 51.45,29.99 A 0.03,0.03 0 0,1 51.45,30.03 C 51.09,30.63 50.42,31.13 49.69,30.97 C 49.04,30.82 48.93,30.14 49.04,29.59 Z M 50.59,27.6 C 50.24,28.02 49.99,28.52 49.83,29.08 C 49.83,29.1 49.83,29.11 49.86,29.11 C 50.78,28.83 51.51,28.31 51.39,27.24 A 0.12,0.12 0 0,0 51.28,27.14 C 51.04,27.14 50.74,27.41 50.59,27.59 Z"/>
</svg>
