<?xml version="1.0" encoding="UTF-8"?>
<!-- generated by Finnhub -->
<svg viewBox="0 0 55.5 55.5" xmlns="http://www.w3.org/2000/svg">
<path d="M 0,0 H 55.5 V 55.5 H 0 Z" fill="rgb(239, 242, 248)"/>
<path d="M 43.99,14.555 V 36.82 C 44,37.03 43.65,37.08 43.63,36.84 A 27.66,27.66 0 0,0 21.16,14.38 C 20.93,14.33 20.96,14 21.18,14 H 43.42 C 43.75,14 44,14.26 44,14.57 Z M 22,30.5 V 40 H 25 V 30.5 C 25,28.82 25.36,27.56 26.06,26.7 C 26.76,25.84 27.77,25.42 29.06,25.4 C 30.36,25.42 31.38,25.84 32.07,26.7 C 32.79,27.56 33,28.85 33,30.57 V 40 H 36 V 30.28 C 36,27.81 35.38,25.96 34.16,24.78 C 32.94,23.59 31.3,23 29.24,23 C 26.83,23 25.12,23.6 23.9,24.78 L 23.7,25 L 23.5,25.22 C 23.38,25.07 23.25,24.92 23.1,24.78 C 21.86,23.59 20.17,23 17.76,23 C 15.7,23 14.06,23.6 12.84,24.78 C 11.62,25.96 11,27.81 11,30.28 V 40 H 14 V 30.57 C 14,28.87 14.26,27.57 14.98,26.7 C 15.68,25.84 16.69,25.42 17.98,25.4 C 19.28,25.42 20.29,25.84 20.99,26.7 C 21.69,27.56 21.98,28.82 22,30.5 Z" fill="rgb(161, 169, 179)"/>
</svg>
