<?xml version="1.0" encoding="UTF-8"?>
<!-- generated by Finnhub -->
<svg viewBox="0 0 55.5 55.5" xmlns="http://www.w3.org/2000/svg">
<path d="M 0,0 H 55.5 V 55.5 H 0 Z" fill="url(#a)"/>
<path d="M 35.13,16.755 L 31,37 H 34.51 L 34.87,34.44 C 35.17,35.29 36.47,37 39.26,37 C 44.12,37 47,32.55 47,27.85 S 44.69,22 41.78,22 C 39.45,22 37.83,23.19 37.38,23.8 L 40.43,10 L 35.14,16.77 Z M 40.2,25 C 36.99,25 36.08,28.87 36.03,30.81 C 35.83,32.4 36.59,34 38.8,34 C 41,34 43,31.52 43,28.2 C 43,25.53 41.13,24.96 40.2,25 Z M 7,37 L 10.2,22 H 13.81 L 13.39,24.17 A 5.9,5.9 0 0,1 18.17,22 C 20.83,22 21.76,23.81 21.88,24.72 A 5.78,5.78 0 0,1 26.98,22 C 30.68,22 31.64,24.96 31.26,27.24 C 30.96,29.06 29.54,35.92 28.86,39.13 L 23.27,46 L 27.41,26.86 C 27.38,26.14 26.96,24.72 25.52,24.72 C 23.72,24.72 22.56,25.99 22.07,28.12 L 20.63,34.76 L 20.15,37 H 16.15 L 18.18,27.24 C 18.33,26.4 18.16,24.72 16.3,24.72 C 13.98,24.72 13.19,27.52 12.82,28.92 C 12.59,29.82 11.87,33.02 11.32,35.39 L 10.96,37 H 7 Z" fill="rgb(254, 254, 253)" fill-rule="evenodd"/>
<defs>
<linearGradient id="a" x1="28" x2="28" y2="56" gradientUnits="userSpaceOnUse">
<stop stop-color="rgb(41, 127, 139)" offset="0"/>
<stop stop-color="rgb(3, 91, 92)" offset="1"/>
</linearGradient>
</defs>
</svg>
