<?xml version="1.0" encoding="UTF-8"?>
<!-- generated by Finnhub -->
<svg viewBox="0 0 55.5 55.5" xmlns="http://www.w3.org/2000/svg">
<path d="M 39.99,32.985 H 41 V 40 H 40 Z M 26,33 H 27 V 34 L 27.06,33.9 C 27.24,33.62 27.63,33 28.64,33 C 29.17,33 29.64,33.39 29.87,34.02 C 30.25,33.57 30.87,33 31.64,33 C 32.36,33 33,33.73 33,34.82 V 40 H 32 V 34.64 C 32,34.5 32,34 31.36,34 C 30.86,34 30.16,35 30,35.36 V 40 H 29 V 34.64 C 29,34.5 29,34 28.36,34 C 27.86,34 27.16,35 27,35.36 V 40 H 26 V 33 Z" fill="rgb(6, 89, 118)"/>
<circle cx="40.5" cy="31.5" r=".5" fill="rgb(6, 89, 118)"/>
<path d="M 45.99,34.985 C 46,34.5 45.76,33 43.87,33 C 43.09,33 42.3,33.74 42,34.11 L 42.5,35 C 42.69,34.73 43.33,34 43.8,34 C 44.36,34 45,34.5 45,35.73 V 36.27 A 2,2 0 1,0 45,39.73 V 40 H 46 V 35 Z M 44,39 A 1,1 0 1,0 44,37 A 1,1 0 0,0 44,39 Z" fill="rgb(6, 89, 118)" fill-rule="evenodd"/>
<path d="M 10.99,15.985 H 35 V 27.67 L 33.99,28.19 L 33.98,17 H 12 L 12.02,39 H 25 V 40 H 11 V 16 Z M 34,30.37 L 35,29.85 V 33.7 C 35.42,33.26 35.94,33 36.5,33 C 37.88,33 39,34.57 39,36.5 S 37.88,40 36.5,40 C 35.94,40 35.42,39.74 35,39.3 V 40 H 34 V 30.37 Z M 35,38.67 C 35.3,38.87 35.64,39 36,39 C 37.1,39 38,37.88 38,36.5 S 37.1,34 36,34 C 35.64,34 35.3,34.12 35,34.33 V 38.67 Z" fill="rgb(6, 89, 118)"/>
</svg>
