<?xml version="1.0" encoding="UTF-8"?>
<!-- generated by Finnhub -->
<svg viewBox="0 0 55.5 55.5" xmlns="http://www.w3.org/2000/svg">
<path d="M 0,0 H 55.5 V 55.5 H 0 Z" fill="rgb(239, 242, 248)"/>
<path d="M 42.77,21.665 L 44,23.7 L 42.59,24.49 L 41.33,23.41 L 38.88,21.07 L 37.58,24.32 L 36.72,24.97 L 37.82,27.37 L 36.7,29.09 L 41.33,30.59 L 41.55,31.87 L 39.3,34.97 L 38.48,34.58 H 37.47 L 36.45,33.8 L 38.25,32.93 L 38.48,33.37 V 33.8 L 38.88,34.06 V 33.6 H 39.3 L 40.2,31.72 L 39.77,31.32 H 35.27 L 34,32.09 L 36.92,35.31 L 36.16,36.37 L 33.68,36.9 L 32.76,37.33 H 31.92 L 30.6,36.47 H 29.94 L 28.9,35.97 L 30.73,34.69 L 31.42,35.31 V 36.05 H 31.77 L 32.22,35.52 L 33.72,35.97 L 35.3,35.65 L 30.48,31.72 L 26.48,31.05 L 24.53,35.66 L 26.03,38.5 L 26.76,39.24 L 26.86,39.78 L 28.3,40.98 L 28.79,42.01 L 26.47,41.81 L 26.64,40.99 L 25.9,40.67 L 25.6,40.81 L 25.06,38.69 L 24.92,40.81 L 23.53,38.83 L 24.41,38.16 H 23.53 L 23.26,37.56 L 20.91,36.26 L 18.76,35.52 L 19.61,32.21 L 18.27,30.73 L 16.29,27.85 L 16.76,25.4 L 16.08,25.15 L 15.59,27.57 L 16.29,31.59 L 15.07,32.69 L 11.02,35.07 L 11.82,33.27 L 8.52,36.3 L 9.55,34.4 L 6.21,36.09 L 8.81,33.79 L 7.73,33.32 L 11.38,31.35 L 11.83,29.85 L 10.53,29.35 L 11.37,25.4 L 13.33,24.16 L 17.12,23.41 L 20.66,21.69 L 28.12,22.78 L 26.42,21.99 L 29.4,21.49 L 27.56,20.82 L 32.06,19.78 L 28.5,19.23 L 34.18,18.28 L 32.72,17.13 L 35.36,17.7 L 34.13,16.27 L 37.69,16.55 L 36.74,15.07 L 39.21,16.97 V 15 H 39.87 L 40.7,17.99 L 41.96,19.69 L 42.78,21.69 Z" fill="rgb(9, 86, 141)"/>
<path d="M 42.75,21.615 L 42.56,24.45 L 41.29,23.37 V 21.63 H 42.76 Z M 41.44,21.63 L 41.96,19.66 L 40.71,17.97 L 41.44,21.63 Z" fill="rgb(103, 140, 165)"/>
<path d="M 40.690000000000005,17.965 L 37.48,19.57 L 41.45,21.63 L 40.71,17.98 Z" fill="rgb(153, 179, 193)"/>
<path d="M 38.89,21.055 L 37.51,19.57 L 41.46,21.62 L 38.89,21.07 Z" fill="rgb(2, 48, 73)"/>
<path d="M 39.22,16.955 L 37.5,19.57 L 39.31,18.67 L 39.23,16.97 Z M 36.69,15.01 L 39.22,16.97 L 37.68,16.55 L 36.69,15.01 Z" fill="rgb(103, 140, 165)"/>
<path d="M 34.080000000000005,16.215 L 37.66,16.53 L 35.35,17.68 L 34.09,16.23 Z" fill="rgb(153, 179, 193)"/>
<path d="M 32.61,17.044999999999998 L 35.36,17.66 L 34.11,18.29 L 32.61,17.06 Z" fill="rgb(103, 140, 165)"/>
<path d="M 28.479999999999997,19.195 L 34.18,18.27 L 32.07,19.79 L 28.49,19.21 Z M 26.41,21.97 L 29.51,21.45 L 28.18,22.81 L 26.41,21.97 Z" fill="rgb(2, 48, 73)"/>
<path d="M 33.84,20.314999999999998 L 37.65,16.52 L 35.51,21.44 L 33.85,20.34 L 31.11,21.9 L 29.45,21.48 L 32.14,19.73 L 33.85,20.33 Z" fill="rgb(103, 140, 165)"/>
<path d="M 37.480000000000004,19.564999999999998 L 37.66,16.53 L 35.5,21.45 L 37.49,19.58 Z" fill="rgb(2, 48, 73)"/>
<path d="M 37.56,24.325 L 37.51,19.56 L 38.89,21.06 L 37.57,24.34 Z" fill="rgb(103, 140, 165)"/>
<path d="M 37.52,19.525 L 36,23.63 L 37.58,24.32 L 35.04,26.27 L 36,23.63 L 35.51,21.43 L 37.53,19.53 Z" fill="rgb(153, 179, 193)"/>
<path d="M 33.510000000000005,24.335 L 35.52,21.44 L 35.06,26.27 L 33.52,24.35 Z" fill="rgb(153, 179, 193)"/>
<path d="M 31.119999999999997,21.884999999999998 L 35.55,21.42 L 33.52,24.34 L 31.13,21.9 Z" fill="rgb(49, 102, 135)"/>
<path d="M 27.689999999999998,23.224999999999998 L 29.5,21.46 L 31.14,21.88 L 27.71,23.24 L 33.51,24.34 L 30.21,26.84 L 23.64,25.06 L 19.38,26.29 L 24.15,22.19 L 23.65,25.06 L 27.71,23.24 Z" fill="rgb(153, 179, 193)"/>
<path d="M 35.27,28.974999999999998 L 36.74,24.99 L 37.84,27.33 L 35.28,29 L 32.98,29.44 L 33.51,24.34 L 35.06,26.26 L 35.28,29 Z" fill="rgb(103, 140, 165)"/>
<path d="M 31.22,28.485 L 33.51,24.33 L 33.01,29.41 L 31.23,28.51 Z M 35.28,28.98 L 37.85,27.32 L 35.28,31.31 L 32.24,33.18 L 30.48,31.71 L 35.28,31.31 V 28.98 Z" fill="rgb(2, 48, 73)"/>
<path d="M 31.22,28.465 L 33.03,29.41 L 30.5,31.69 L 27.76,29.66 L 23.02,31.21 V 30.45 L 24.22,29.57 L 27.76,29.67 L 31.23,28.48 Z" fill="rgb(153, 179, 193)"/>
<path d="M 27.75,29.645 L 23.01,31.2 L 29.38,30.86 L 27.76,29.66 Z" fill="rgb(11, 72, 102)"/>
<path d="M 24.49,35.735 L 23.02,31.2 L 26.5,31 L 24.51,35.74 Z" fill="rgb(103, 140, 165)"/>
<path d="M 27.759999999999998,29.655 L 30.22,26.83 L 31.25,28.48 L 27.77,29.68 Z" fill="rgb(11, 72, 102)"/>
<path d="M 21.18,29.525 L 30.22,26.84 L 27.77,29.67 L 21.19,29.54 Z" fill="rgb(103, 140, 165)"/>
<path d="M 21.22,29.525 L 19.4,26.27 L 30.22,26.84 L 21.23,29.54 Z" fill="rgb(153, 179, 193)"/>
<path d="M 16.279999999999998,27.825 L 20.65,21.68 L 19.41,26.28 L 16.29,27.84 Z" fill="rgb(2, 48, 73)"/>
<path d="M 16.27,27.835 L 17.12,23.39 L 20.65,21.68 L 16.28,27.85 Z" fill="rgb(153, 179, 193)"/>
<path d="M 20.4,28.044999999999998 L 16.29,27.84 L 19.41,26.27 L 20.41,28.07 Z" fill="rgb(103, 140, 165)"/>
<path d="M 19.689999999999998,29.705 L 16.28,27.84 L 20.41,28.04 L 21.26,29.5 L 24.26,29.59 L 23.04,30.45 L 21.26,29.5 L 19.69,29.72 Z" fill="rgb(11, 72, 102)"/>
<path d="M 22.99,30.415 L 19.7,29.72 L 21.25,29.5 L 22.99,30.43 Z" fill="rgb(2, 48, 73)"/>
<path d="M 19.68,29.705 L 18.29,30.75 L 23.03,31.2 V 30.43 L 19.69,29.72 Z" fill="rgb(49, 102, 135)"/>
<path d="M 21.31,34.155 L 18.27,30.74 L 23.03,31.2 L 21.32,34.17 Z" fill="rgb(103, 140, 165)"/>
<path d="M 22.529999999999998,33.615 L 23.26,31.9 L 24.5,35.6 L 22.54,33.63 Z" fill="rgb(2, 48, 73)"/>
<path d="M 18.729999999999997,35.485 L 19.58,32.2 L 21.31,34.16 L 21.71,35.06 L 23.74,35.98 L 22.54,33.62 L 24.5,35.5 L 25.55,37.53 L 24.21,36.34 L 24.06,38.17 H 23.54 L 23.25,37.57 L 20.94,36.27 L 18.74,35.5 Z" fill="rgb(153, 179, 193)"/>
<path d="M 25.209999999999997,37.214999999999996 L 24.19,36.25 L 24.06,38.16 H 24.38 L 23.52,38.82 L 24.92,40.82 L 25.22,37.23 Z" fill="rgb(103, 140, 165)"/>
<path d="M 25.54,37.505 L 25.21,37.22 L 25.05,38.8 L 25.62,40.81 L 25.92,40.66 L 26.64,40.96 L 26.46,41.79 L 28.76,41.99 L 28.3,40.96 L 26.87,39.77 L 26.79,39.25 L 26.02,38.5 L 25.55,37.52 Z" fill="rgb(2, 48, 73)"/>
<path d="M 13.32,24.134999999999998 L 17.14,23.38 L 16.74,25.43 L 13.33,24.15 Z" fill="rgb(103, 140, 165)"/>
<path d="M 11.36,25.384999999999998 L 13.35,24.15 L 16.09,25.18 L 15.59,27.56 L 16.29,31.58 L 10.51,29.33 L 15.6,27.56 L 11.37,25.39 Z" fill="rgb(11, 72, 102)"/>
<path d="M 11.82,29.835 L 16.31,31.57 L 15.07,32.68 L 11,35.1 L 11.84,33.25 L 15.08,32.69 L 11.38,31.35 L 11.84,29.86 Z" fill="rgb(49, 102, 135)"/>
<path d="M 8.36,36.485 L 11.85,33.26 L 9.56,34.38 L 8.37,36.49 Z" fill="rgb(2, 48, 73)"/>
<path d="M 5.99,36.195 L 11.85,33.26 L 8.8,33.78 L 6,36.2 Z M 35.27,31.32 L 36.74,29.05 L 41.34,30.57 L 41.57,31.85 L 39.31,34.99 V 33.55 L 40.18,31.71 L 39.75,31.31 L 41.35,30.57 L 35.27,31.32 Z" fill="rgb(153, 179, 193)"/>
<path d="M 39.330000000000005,34.985 V 33.55 H 38.88 V 34.03 L 38.52,33.77 V 33.37 L 38.25,32.89 L 36.43,33.77 L 37.47,34.57 L 38.52,34.61 L 39.34,34.99 Z M 34,32.08 L 32.24,33.18 L 36.18,36.36 L 34,32.08 Z" fill="rgb(103, 140, 165)"/>
<path d="M 33.99,32.075 L 36.94,35.29 L 36.18,36.36 L 33.67,36.9 L 32.8,37.32 H 31.9 L 31.04,36.76 L 31.74,36.03 L 32.18,35.48 L 33.67,35.94 L 35.28,35.64 L 36.18,36.36 L 34,32.09 Z" fill="rgb(153, 179, 193)"/>
<path d="M 30.59,36.455 L 31.04,36.77 L 31.76,36.02 H 31.44 L 31.41,35.3 L 30.73,34.67 L 28.88,35.94 L 29.93,36.47 H 30.6 Z" fill="rgb(103, 140, 165)"/>
</svg>
