<?xml version="1.0" encoding="UTF-8"?>
<!-- generated by Finnhub -->
<svg viewBox="0 0 55.5 55.5" xmlns="http://www.w3.org/2000/svg">
<path d="M 0,0 H 55.5 V 55.5 H 0 Z" fill="rgb(239, 242, 248)"/>
<path d="M 7.99,17.985 A 4,4 0 0,1 12,14 H 44 A 4,4 0 0,1 48,18 V 38 A 4,4 0 0,1 44,42 H 12 A 4,4 0 0,1 8,38 V 18 Z" fill="rgb(27, 103, 154)"/>
<path d="M 42.39,16.985 H 13.6 C 12.12,17 11,18.13 11,19.43 V 36.57 C 11,37.87 12.12,39 13.6,39 H 42.4 C 43.88,39 45,37.87 45,36.57 V 19.43 C 45,18.13 43.88,17 42.4,17 Z M 13.6,16 A 3.52,3.52 0 0,0 10,19.43 V 36.57 C 10,38.47 11.61,40 13.6,40 H 42.4 C 44.39,40 46,38.47 46,36.57 V 19.43 C 46,17.53 44.39,16 42.4,16 H 13.6 Z" fill="rgb(254, 254, 253)" fill-rule="evenodd"/>
<path d="M 19.63,22.985 L 19.7,23.46 L 17.75,27.3 L 17.69,27.42 A 4.12,4.12 0 0,0 17.49,28 H 17.41 L 17.31,27.57 L 19.63,23 Z M 14.86,27.5 V 28 H 14 V 27.93 H 14.12 C 14.26,27.93 14.39,27.9 14.5,27.83 C 14.6,27.75 14.67,27.63 14.7,27.5 H 14.86 Z M 15.09,27.61 V 27.64 C 15.09,27.72 15.12,27.79 15.17,27.85 A 0.3,0.3 0 0,0 15.39,27.94 H 15.51 V 28 H 15.03 V 27.61 H 15.09 Z M 15.27,23 H 15.35 L 15.51,23.4 L 15.05,28 H 14.63 L 15.27,23 Z M 15.35,23 L 17.59,27.28 L 17.41,28 L 15.21,23.77 L 15.35,23 Z M 19.71,23 L 20.38,28 H 19.78 L 19.35,23.74 L 19.64,23 H 19.71 Z M 20.15,27.5 H 20.31 C 20.33,27.64 20.41,27.75 20.51,27.82 C 20.61,27.9 20.74,27.93 20.88,27.93 H 21 V 28 H 20.15 V 27.5 Z M 19.73,27.61 H 19.79 V 28.01 H 19.31 V 27.94 H 19.43 C 19.52,27.94 19.59,27.91 19.65,27.85 A 0.3,0.3 0 0,0 19.73,27.65 V 27.61 Z M 23.5,23 C 24,23 24.43,23.1 24.8,23.32 C 25.18,23.52 25.47,23.82 25.68,24.19 C 25.89,24.56 26,25 26,25.5 S 25.9,26.44 25.68,26.81 C 25.48,27.19 25.18,27.48 24.8,27.69 C 24.43,27.89 24,28 23.5,28 S 22.57,27.9 22.2,27.7 C 21.82,27.48 21.53,27.19 21.31,26.81 C 21.11,26.44 21,26 21,25.5 S 21.1,24.56 21.31,24.19 C 21.53,23.81 21.82,23.52 22.2,23.32 C 22.57,23.11 23,23 23.5,23 Z M 23.5,27.8 A 1.83,1.83 0 0,0 25.21,26.7 C 25.38,26.36 25.46,25.96 25.46,25.5 C 25.46,25.04 25.38,24.64 25.21,24.3 A 1.83,1.83 0 0,0 23.49,23.2 C 23.11,23.2 22.76,23.3 22.47,23.5 C 22.17,23.69 21.95,23.95 21.77,24.3 C 21.62,24.64 21.54,25.04 21.54,25.5 C 21.54,25.96 21.62,26.36 21.78,26.7 A 1.85,1.85 0 0,0 23.5,27.8 Z M 27.41,23 H 28.65 C 29.47,23 30.2,23.46 30.2,24.34 A 1.4,1.4 0 0,1 28.85,25.71 C 28.94,25.74 29.04,25.81 29.15,25.91 A 3.41,3.41 0 0,1 29.53,26.35 C 30.02,26.95 30.12,27.93 31,27.93 V 28 H 30.56 C 29.41,28 29.39,26.99 28.75,26.2 L 28.63,26.04 C 28.53,25.92 28.41,25.81 28.29,25.71 A 0.62,0.62 0 0,0 27.89,25.56 V 25.49 H 28.01 A 7.5,7.5 0 0,0 28.77,25.43 C 29.3,25.32 29.64,24.85 29.61,24.31 C 29.59,23.67 29.21,23.26 28.61,23.23 H 27.5 L 27.48,23.16 A 0.65,0.65 0 0,0 27.44,23.06 L 27.42,23 Z M 27.51,23 V 28 H 27 V 23 H 27.52 Z M 27.02,27.48 V 28 H 26.5 V 27.93 H 26.6 C 26.86,27.93 26.99,27.74 27,27.48 H 27.02 Z M 27.02,23.52 H 27 C 26.99,23.27 26.88,23.07 26.6,23.07 H 26.5 V 23 H 27.02 V 23.52 Z M 27.49,27.48 H 27.52 C 27.52,27.6 27.68,27.71 27.78,27.8 S 28,27.93 28.14,27.93 H 28.24 V 28 H 27.49 V 27.48 Z M 32.41,23 H 33.65 C 34.47,23 35.2,23.46 35.2,24.34 A 1.4,1.4 0 0,1 33.85,25.71 C 33.94,25.74 34.04,25.81 34.15,25.91 A 3.41,3.41 0 0,1 34.53,26.35 C 35.02,26.95 35.12,27.93 36,27.93 V 28 H 35.56 C 34.41,28 34.39,26.99 33.75,26.2 L 33.63,26.04 C 33.53,25.92 33.41,25.81 33.29,25.71 A 0.62,0.62 0 0,0 32.89,25.56 V 25.49 H 33.01 A 7.5,7.5 0 0,0 33.77,25.43 C 34.3,25.32 34.64,24.85 34.61,24.31 C 34.59,23.67 34.21,23.26 33.61,23.23 H 32.5 L 32.47,23.16 A 98.17,98.17 0 0,0 32.41,23 Z M 32.5,23 V 28 H 32 V 23 H 32.5 Z M 32.02,27.48 V 28 H 31.5 V 27.93 H 31.6 C 31.86,27.93 31.99,27.74 32,27.48 H 32.02 Z M 32.02,23.52 H 32 C 31.99,23.27 31.88,23.07 31.6,23.07 H 31.5 V 23 H 32.02 V 23.52 Z M 32.5,27.48 C 32.5,27.6 32.68,27.71 32.78,27.8 C 32.88,27.89 33,27.93 33.14,27.93 H 33.24 V 28 H 32.5 V 27.48 Z M 37.75,23 V 28 H 37.25 V 23 H 37.75 Z M 37.25,27.48 V 28 H 36.5 V 27.93 H 36.62 C 36.86,27.93 37.24,27.76 37.25,27.48 Z M 37.25,23.52 C 37.24,23.25 36.85,23.07 36.62,23.07 H 36.5 V 23 H 37.25 V 23.52 Z M 37.75,27.48 C 37.76,27.78 38.12,27.93 38.38,27.93 H 38.5 V 28 H 37.75 V 27.48 Z M 37.75,23.52 V 23 H 38.5 V 23.07 H 38.38 C 38.12,23.07 37.76,23.23 37.75,23.52 Z M 40.6,23 A 3.14,3.14 0 0,1 41.2,23.05 A 2.9,2.9 0 0,1 41.65,23.15 V 23.91 H 41.58 C 41.58,23.69 41.48,23.52 41.3,23.4 C 41.12,23.27 40.9,23.2 40.63,23.2 C 40.33,23.2 40.08,23.29 39.89,23.45 A 0.7,0.7 0 0,0 39.61,24 C 39.61,24.08 39.63,24.19 39.67,24.3 C 39.72,24.42 39.81,24.53 39.94,24.63 L 41.58,25.88 C 41.75,26.01 41.86,26.14 41.92,26.29 A 1.2,1.2 0 0,1 41.58,27.64 C 41.3,27.88 40.92,28 40.44,28 A 3.9,3.9 0 0,1 39.44,27.85 C 39.28,27.79 39.14,27.71 39.03,27.62 A 1.87,1.87 0 0,1 39.13,26.67 H 39.2 C 39.17,26.9 39.2,27.1 39.3,27.27 C 39.4,27.45 39.55,27.59 39.74,27.67 C 39.94,27.77 40.16,27.8 40.4,27.79 C 40.7,27.78 40.97,27.69 41.18,27.53 A 0.78,0.78 0 0,0 41.52,26.87 A 0.8,0.8 0 0,0 41.19,26.23 L 39.59,25.01 A 1.1,1.1 0 0,1 39.24,24.59 A 1.1,1.1 0 0,1 39.14,24.16 C 39.14,23.96 39.2,23.78 39.31,23.6 C 39.41,23.43 39.58,23.28 39.8,23.17 C 40.02,23.06 40.3,23 40.6,23 Z M 41.65,23.07 V 23.21 H 41.02 V 23.07 H 41.65 Z M 21.49,31 H 22.04 C 22.29,31 22.49,31.03 22.66,31.09 C 22.83,31.15 22.96,31.23 23.05,31.34 C 23.14,31.44 23.18,31.57 23.18,31.72 A 0.6,0.6 0 0,1 23.1,32.03 A 0.71,0.71 0 0,1 22.88,32.25 A 0.92,0.92 0 0,1 22.6,32.37 C 22.79,32.39 22.95,32.44 23.08,32.52 C 23.22,32.59 23.32,32.69 23.39,32.81 A 0.7,0.7 0 0,1 23.5,33.19 C 23.5,33.35 23.45,33.49 23.36,33.62 A 0.93,0.93 0 0,1 22.94,33.9 C 22.76,33.97 22.54,34 22.28,34 H 21.7 V 33.85 H 22.26 C 22.44,33.85 22.59,33.82 22.72,33.77 A 0.63,0.63 0 0,0 23.01,33.53 C 23.07,33.43 23.11,33.31 23.11,33.16 A 0.62,0.62 0 0,0 22.99,32.77 A 0.7,0.7 0 0,0 22.7,32.55 A 1.4,1.4 0 0,0 22.32,32.45 A 2.7,2.7 0 0,0 21.92,32.41 V 32.38 L 22.19,32.35 A 1,1 0 0,0 22.47,32.27 C 22.57,32.23 22.64,32.17 22.7,32.08 S 22.79,31.88 22.79,31.75 A 0.6,0.6 0 0,0 22.69,31.42 A 0.5,0.5 0 0,0 22.44,31.21 A 1.05,1.05 0 0,0 22.02,31.14 H 21.54 L 21.52,31.1 A 0.54,0.54 0 0,0 21.5,31.03 L 21.49,31 Z M 21.74,31 V 34 H 21.4 V 31 H 21.74 Z M 21.42,33.69 V 34 H 21 V 33.96 H 21.07 C 21.16,33.96 21.24,33.93 21.3,33.88 C 21.37,33.83 21.4,33.76 21.4,33.68 H 21.42 Z M 21.42,31.31 H 21.4 A 0.23,0.23 0 0,0 21.3,31.12 A 0.36,0.36 0 0,0 21.07,31.04 H 21 L 21,31 H 21.42 V 31.31 Z M 26.51,31 L 27.72,33.97 H 27.37 L 26.43,31.4 L 26.51,31 Z M 25.63,33.7 A 0.22,0.22 0 0,0 25.63,33.84 C 25.63,33.88 25.66,33.91 25.69,33.93 C 25.72,33.95 25.75,33.96 25.79,33.96 H 25.82 V 34 H 25 V 33.96 H 25.04 C 25.1,33.96 25.16,33.94 25.23,33.9 A 0.46,0.46 0 0,0 25.4,33.7 H 25.63 Z M 26.51,31 L 26.55,31.3 L 25.52,33.99 H 25.27 L 26.32,31.43 L 26.34,31.38 A 2.38,2.38 0 0,0 26.47,31 H 26.51 Z M 27.09,32.87 V 33 H 25.8 V 32.87 H 27.08 Z M 27.27,33.69 H 27.61 C 27.65,33.79 27.71,33.86 27.77,33.89 A 0.4,0.4 0 0,0 27.97,33.96 H 28 V 34 H 27.08 V 33.96 H 27.12 C 27.17,33.96 27.22,33.94 27.26,33.89 C 27.3,33.84 27.3,33.78 27.27,33.69 Z M 29.82,31 L 32.14,33.55 L 32.18,34 L 29.86,31.45 L 29.82,31 Z M 29.83,33.7 V 34 H 29.5 V 33.96 H 29.58 C 29.64,33.96 29.7,33.93 29.75,33.88 C 29.8,33.84 29.82,33.78 29.82,33.71 H 29.83 Z M 30,33.7 C 30,33.78 30,33.84 30.08,33.88 C 30.12,33.93 30.18,33.96 30.25,33.96 H 30.32 V 34 H 30 V 33.7 Z M 29.82,31 L 30,31.23 V 34 H 29.82 V 31.51 C 29.82,31.37 29.82,31.25 29.8,31.15 L 29.78,31 H 29.82 Z M 32.18,31 V 33.47 A 3.97,3.97 0 0,0 32.22,34 H 32.18 L 32,33.78 V 31 H 32.18 Z M 32.5,31 V 31.04 H 32.43 A 0.23,0.23 0 0,0 32.26,31.12 A 0.25,0.25 0 0,0 32.18,31.29 H 32.17 V 31 H 32.5 Z M 31.68,31 H 32 V 31.3 A 0.25,0.25 0 0,0 31.92,31.12 A 0.22,0.22 0 0,0 31.75,31.04 H 31.68 V 31 Z M 35.44,32.35 L 36.61,33.78 C 36.67,33.84 36.72,33.88 36.78,33.91 C 36.84,33.94 36.91,33.95 37,33.96 V 34 H 36.7 L 36.54,33.97 A 0.6,0.6 0 0,1 36.21,33.76 L 36.13,33.66 A 13.8,13.8 0 0,0 35.71,33.13 A 11.28,11.28 0 0,0 35.29,32.6 L 35.22,32.5 L 35.44,32.35 Z M 36.63,31.03 L 35.4,32.51 H 35.22 L 36.35,31.03 H 36.63 Z M 36.91,31 V 31.04 H 36.9 A 0.59,0.59 0 0,0 36.45,31.25 L 36.19,31.24 C 36.22,31.19 36.23,31.14 36.2,31.1 C 36.18,31.06 36.14,31.04 36.09,31.04 H 36.05 V 31 H 36.91 Z M 35,31 V 34 H 34.73 V 31 H 35 Z M 34.75,33.69 V 34 H 34.5 V 33.96 H 34.55 C 34.7,33.96 34.73,33.83 34.73,33.69 H 34.75 Z M 34.75,31.31 H 34.73 C 34.73,31.16 34.7,31.04 34.55,31.04 H 34.5 V 31 H 34.75 V 31.31 Z M 34.99,33.69 H 35 C 35,33.84 35.2,33.96 35.35,33.96 H 35.4 V 34 H 35 V 33.69 Z M 34.99,31.31 V 31 H 35.4 V 31.04 H 35.35 C 35.21,31.04 35.01,31.16 35,31.31 H 34.99 Z" fill="rgb(254, 254, 253)"/>
</svg>
