<?xml version="1.0" encoding="UTF-8"?>
<!-- generated by Finnhub -->
<svg viewBox="0 0 55.5 55.5" xmlns="http://www.w3.org/2000/svg">
<path d="M 0,0 H 55.5 V 55.5 H 0 Z" fill="rgb(239, 242, 248)"/>
<path d="M 28.02,11.985 C 25.87,12 23.8,12.47 21.93,13.24 L 31.21,15.84 L 26.51,21.28 L 42.38,25.71 L 36.07,33.15 L 37.47,40.49 L 32.94,39.36 L 31.32,31.86 L 34.62,27.92 L 31.42,27.11 L 28.02,30.94 L 29.43,38.39 L 24.79,37.15 L 23.22,29.65 L 26.68,25.81 L 23.44,24.84 L 20.09,28.57 L 21.44,36.23 L 16.8,34.88 L 15.3,27.43 L 23.17,18.21 L 17.02,16.42 A 15.94,15.94 0 0,0 28.02,44 A 16,16 0 0,0 28.02,12 Z" fill="rgb(16, 67, 151)"/>
</svg>
