<?xml version="1.0" encoding="UTF-8"?>
<!-- generated by Finnhub -->
<svg viewBox="0 0 55.5 55.5" xmlns="http://www.w3.org/2000/svg">
<path d="M 0,0 H 55.5 V 55.5 H 0 Z" fill="rgb(239, 242, 248)"/>
<path d="M 9.99,23.985 V 27 H 7 V 24 H 6 V 31 H 7 V 28 H 10 V 31 H 11 V 24 H 10 Z M 15,24 V 31 H 20 V 30 H 16 V 28 H 20 V 27 H 16 V 25 H 20 V 24 H 15 Z M 24,24 V 31 H 28 V 30 H 25 V 24 H 24 Z M 40,31 H 41 V 24 H 40 V 31 Z M 34,30 C 34.55,30 35,29.84 35,29 C 35,28.34 34.57,28 34,28 H 32 V 30 H 34 Z M 34,27 C 34.5,27 35,26.76 35,26 C 35,25.33 34.5,25 34,25 H 32 V 27 H 34 Z M 31,24 H 34 C 35.3,24 36,24.88 36,25.81 C 36,26.69 35.65,27.28 35,27.41 C 35.73,27.53 36,28.28 36,29.14 C 36,30.19 35.3,31 34,31 H 31 V 24 Z M 48.53,25 L 45,30 V 31 H 50 V 30 H 46.58 L 50,25 V 24 H 45 V 25 H 48.53 Z"/>
</svg>
