<?xml version="1.0" encoding="UTF-8"?>
<!-- generated by Finnhub -->
<svg viewBox="0 0 55.5 55.5" xmlns="http://www.w3.org/2000/svg">
<path d="M 0,0 H 55.5 V 55.5 H 0 Z" fill="rgb(239, 242, 248)"/>
<path d="M 7.99,20.175 C 8,18.98 8.95,18 10.12,18 H 45.88 C 47.05,18 48,18.98 48,20.19 V 35.81 C 48,37.02 47.05,38 45.88,38 H 10.12 A 2.15,2.15 0 0,1 8,35.81 V 20.19 Z" fill="rgb(12, 12, 9)"/>
<path d="M 9.99,19.985 H 46 V 29 H 10 Z" fill="rgb(160, 130, 17)"/>
<path d="M 10.99,27.435 C 11,27.24 11.11,27.08 11.34,26.97 C 11.68,26.82 11.65,26.33 11.68,26.01 C 11.72,25.51 11.74,24.83 11.74,23.96 L 11.75,23.2 C 11.75,22.91 11.78,22.5 11.53,22.28 A 2.9,2.9 0 0,0 11.38,22.17 C 11.18,22.01 11.07,21.85 11.07,21.67 C 11.07,21.44 11.18,21.28 11.4,21.17 C 11.62,21.07 11.95,21.01 12.4,21.01 C 12.66,21.01 12.89,21.03 13.09,21.06 C 13.29,21.09 13.42,21.13 13.47,21.17 C 13.96,21.5 14.26,22.56 14.5,23.08 C 14.76,23.64 14.96,23.92 15.08,23.92 C 15.21,23.92 15.38,23.66 15.59,23.15 C 16,22.17 16.31,21.5 16.72,21.22 C 16.93,21.07 17.26,21 17.71,21 C 18.19,21 18.52,21.05 18.71,21.15 C 18.91,21.25 19,21.42 19,21.65 C 19,21.81 18.92,21.95 18.76,22.05 L 18.68,22.1 C 18.58,22.2 18.5,22.4 18.46,22.74 A 22.79,22.79 0 0,0 18.44,26.02 C 18.47,26.29 18.43,26.67 18.69,26.83 C 18.89,26.96 18.99,27.13 18.99,27.35 C 18.99,27.58 18.87,27.75 18.63,27.85 C 18.39,27.95 17.96,28 17.35,28 C 16.75,28 16.33,27.95 16.09,27.85 A 0.53,0.53 0 0,1 15.74,27.33 C 15.74,27.14 15.83,27 16,26.88 A 0.68,0.68 0 0,0 16.13,26.78 A 0.9,0.9 0 0,0 16.26,26.35 C 16.28,26.15 16.29,25.79 16.29,25.28 A 0.74,0.74 0 0,0 16.24,24.97 C 16.21,24.9 16.16,24.87 16.09,24.87 C 15.99,24.87 15.86,25.05 15.72,25.43 L 15.28,26.57 C 14.96,27.4 14.73,27.82 14.58,27.82 C 14.43,27.82 14.18,27.41 13.85,26.59 C 13.7,26.22 13.55,25.84 13.42,25.46 C 13.27,25 13.14,24.77 13.03,24.77 C 12.96,24.77 12.91,24.85 12.88,24.99 A 8.65,8.65 0 0,0 12.88,26.74 C 12.92,26.84 12.98,26.93 13.08,26.97 C 13.32,27.08 13.43,27.24 13.43,27.44 C 13.43,27.64 13.34,27.79 13.16,27.87 C 12.98,27.96 12.66,28 12.22,28 C 11.78,28 11.47,27.96 11.28,27.87 C 11.09,27.78 11,27.64 11,27.45 Z M 20,25.5 C 20,24.79 20.28,24.19 20.83,23.71 A 3.04,3.04 0 0,1 22.89,23 C 23.51,23 24.02,23.13 24.41,23.4 C 24.81,23.65 25,23.99 25,24.39 C 25,24.92 24.57,25.37 24.03,25.37 A 0.87,0.87 0 0,1 23.61,25.27 A 1.14,1.14 0 0,1 23.15,24.73 C 23.04,24.48 22.88,24.35 22.69,24.35 A 0.46,0.46 0 0,0 22.32,24.53 A 0.7,0.7 0 0,0 22.18,24.99 C 22.18,25.62 22.71,26.24 23.36,26.24 C 23.55,26.24 23.76,26.19 24.01,26.1 C 24.26,26 24.42,25.95 24.51,25.95 C 24.65,25.95 24.76,26.01 24.85,26.12 C 24.95,26.22 25,26.36 25,26.52 C 25,26.89 24.76,27.22 24.28,27.54 C 23.8,27.84 23.25,28 22.63,28 C 21.23,28 20,26.95 20,25.5 Z M 28.77,23.95 C 28.87,23.99 28.95,24 29.02,24 C 29.47,24 29.65,23.64 29.65,22.92 C 29.65,22.64 29.61,22.33 29.51,22.2 S 29.26,22 29.05,22 C 28.93,22 28.85,22.04 28.81,22.13 A 3.4,3.4 0 0,0 28.75,22.92 V 23.62 L 28.77,23.95 Z M 28.8,25.05 V 25.99 C 28.8,26.29 28.8,26.54 28.83,26.63 C 28.86,26.72 28.91,26.79 28.98,26.84 C 29.18,26.97 29.38,27.12 29.38,27.38 C 29.38,27.61 29.25,27.77 29.01,27.86 C 28.77,27.96 28.34,28 27.73,28 C 27.11,28 26.66,27.95 26.4,27.85 C 26.13,27.75 26,27.58 26,27.35 C 26,27.09 26.24,26.93 26.44,26.82 C 26.51,26.78 26.57,26.5 26.61,26.07 A 26.55,26.55 0 0,0 26.64,22.66 C 26.62,22.39 26.58,22.22 26.53,22.16 A 0.88,0.88 0 0,0 26.35,22.04 C 26.12,21.91 26,21.76 26,21.58 C 26,21.39 26.1,21.26 26.29,21.17 C 26.48,21.07 26.76,21.03 27.14,21.03 H 27.52 C 28.25,21.04 28.98,21 29.71,21 C 31.19,21 32.01,21.63 32.01,22.77 A 1.49,1.49 0 0,1 31.21,24.15 C 31.09,24.22 31.02,24.28 31.02,24.34 C 31.02,24.41 31.11,24.47 31.28,24.54 L 31.57,24.65 C 31.74,24.75 31.88,24.9 32.01,25.12 C 32.16,25.38 32.26,26.65 32.51,26.77 L 32.61,26.82 C 32.87,26.92 33,27.06 33,27.24 C 33,27.47 32.87,27.65 32.6,27.79 C 32.34,27.93 31.99,28 31.55,28 C 30.43,28 30.01,27.32 29.81,26.29 C 29.61,25.43 29.35,25 29.03,25 L 28.91,25.01 A 0.74,0.74 0 0,0 28.81,25.04 Z M 36.53,26.01 C 36.53,25.91 36.53,25.85 36.5,25.81 C 36.47,25.79 36.41,25.78 36.31,25.78 A 0.39,0.39 0 0,0 35.99,25.93 A 0.7,0.7 0 0,0 35.88,26.36 C 35.88,26.53 35.91,26.66 35.97,26.76 C 36.02,26.84 36.11,26.89 36.22,26.89 C 36.34,26.89 36.42,26.84 36.47,26.74 C 36.51,26.64 36.53,26.4 36.53,26.01 Z M 36.53,25.11 L 36.55,24.94 V 24.69 C 36.55,24.36 36.52,24.14 36.47,24.01 C 36.41,23.88 36.32,23.81 36.19,23.81 C 36.04,23.81 35.87,23.94 35.69,24.19 A 1.8,1.8 0 0,1 35.25,24.65 A 0.72,0.72 0 0,1 34.86,24.75 A 0.49,0.49 0 0,1 34.48,24.59 A 0.6,0.6 0 0,1 34.34,24.17 C 34.34,23.85 34.54,23.57 34.94,23.34 C 35.34,23.11 35.85,23 36.45,23 C 37.13,23 37.65,23.14 37.99,23.41 C 38.34,23.69 38.52,24.09 38.52,24.61 A 16.68,16.68 0 0,1 38.49,25.66 C 38.49,26.1 38.5,26.37 38.53,26.46 C 38.56,26.56 38.61,26.62 38.69,26.63 C 38.8,26.67 38.89,26.71 38.93,26.76 A 0.3,0.3 0 0,1 39,26.96 C 39,27.21 38.86,27.45 38.57,27.67 C 38.28,27.89 37.95,28 37.57,28 A 0.82,0.82 0 0,1 36.96,27.75 A 1.24,1.24 0 0,0 36.69,27.49 C 36.33,27.49 35.95,28 35.49,28 C 34.66,28 34,27.4 34,26.55 C 34,26.11 34.18,25.75 34.54,25.46 A 2.05,2.05 0 0,1 36.11,25.02 C 36.21,25.02 36.35,25.07 36.54,25.1 Z M 44.48,25.67 H 42.28 C 42.18,25.67 42.09,25.67 42.05,25.7 C 42.02,25.72 42,25.75 42,25.8 C 42,26.36 42.77,26.7 43.25,26.7 C 43.69,26.7 44.2,26.3 44.61,26.3 C 44.83,26.3 45,26.5 45,26.77 C 45,27.67 43.27,28 42.62,28 C 41.22,28 40,26.98 40,25.53 C 40,24.09 41.27,23 42.66,23 C 43.81,23 45,23.73 45,24.98 C 45,25.22 44.96,25.4 44.88,25.51 C 44.8,25.61 44.67,25.67 44.48,25.67 Z M 42.52,24.77 C 42.85,24.77 43.05,24.75 43.11,24.72 C 43.17,24.69 43.21,24.6 43.21,24.46 C 43.21,24.12 42.98,24 42.66,24 C 42.32,24 42,24.19 42,24.52 C 42,24.62 42.02,24.69 42.05,24.72 C 42.15,24.8 42.4,24.77 42.52,24.77 Z"/>
<path d="M 8.99,30.985 H 12 V 32 H 11 V 34 H 12 V 35 H 9 V 34 H 10 V 32 H 9 V 31 Z M 37,31 H 40 V 32 H 39 V 34 H 40 V 35 H 37 V 34 H 38 V 32 H 37 V 31 Z M 46,34 V 31 H 45 V 35 H 47 V 34 H 46 Z M 32,31 H 29 V 32 H 30 V 35 H 31 V 32 H 32 V 31 Z M 15,32.79 L 14,31 H 13 V 35 H 14 V 33.25 L 15,35 H 16 V 31 H 15 V 32.79 Z" fill="rgb(160, 130, 17)"/>
<path d="M 18.24,30.985 H 17 V 35 H 18.25 C 19.22,35 20,34.1 20,33 S 19.22,31 18.25,31 Z M 18.42,32 H 18 V 34 H 18.42 C 18.74,34 19,33.55 19,33 S 18.74,32 18.42,32 Z" fill="rgb(160, 130, 17)" fill-rule="evenodd"/>
<path d="M 21.99,30.985 H 21 V 33.29 C 21,34.23 21.67,35 22.5,35 S 24,34.23 24,33.29 V 31 H 23 V 33.32 C 23,33.7 22.78,34 22.5,34 S 22,33.7 22,33.32 V 31 Z M 34.08,33.5 L 35,35 H 36 L 35,33.5 C 35.5,33.41 36,33.16 36,32.38 C 36,31.73 35.73,31 34.73,31 H 33 V 35 H 34 V 33.5 H 34.08 Z M 34,33 V 32 H 34.44 C 34.74,32 35,32.18 35,32.5 S 34.74,33 34.44,33 H 34 Z M 42.2,34 L 42,35 H 41 L 42,31 H 43 L 44,35 H 43 L 42.83,34 H 42.19 Z M 42.24,33.36 H 42.74 L 42.5,32 L 42.24,33.36 Z M 27.72,31.42 L 27.62,32.01 C 27.4,31.77 26.74,31.63 26.45,31.63 C 26.17,31.63 26,31.8 26,32.01 C 26,32.21 26.5,32.39 26.7,32.49 C 27.1,32.69 28,32.84 28,33.79 C 28,34.72 27.12,35 26.33,35 A 2.4,2.4 0 0,1 25,34.62 V 33.64 C 25.25,33.92 25.98,34.34 26.33,34.34 C 26.67,34.34 27,34.1 27,33.89 C 27,33.68 26.67,33.5 26.33,33.33 C 25.98,33.16 25,32.7 25,32.15 C 25,31.59 25.35,31 26.39,31 C 27.22,31 27.62,31.28 27.72,31.42 Z" fill="rgb(160, 130, 17)"/>
</svg>
