<?xml version="1.0" encoding="UTF-8"?>
<!-- generated by Finnhub -->
<svg viewBox="0 0 55.5 55.5" xmlns="http://www.w3.org/2000/svg">
<path d="M 0,0 H 55.5 V 55.5 H 0 Z" fill="rgb(239, 242, 248)"/>
<path d="M 27.99,13.985 L 40,21 V 25 H 36 V 23.4 L 28.05,18.74 L 20,23.4 V 25 H 16 V 21 L 28,14 Z M 16,31 V 35 L 28,42 L 40,35 V 31 H 36 V 32.7 L 28.05,37.36 L 20,32.71 V 31 H 16 Z" fill="rgb(112, 53, 149)"/>
<circle cx="28" cy="28" r="2" fill="rgb(111, 192, 109)"/>
<path d="M 5.99,25.884999999999998 V 30.07 L 24.9,28.5 C 25.49,28.45 25.49,27.6 24.9,27.54 L 6,25.9 Z M 50,25.9 V 30.07 L 31.1,28.5 C 30.51,28.45 30.51,27.6 31.1,27.54 L 50,25.9 Z" fill="rgb(112, 53, 149)"/>
</svg>
