<?xml version="1.0" encoding="UTF-8"?>
<!-- generated by Finnhub -->
<svg viewBox="0 0 55.5 55.5" xmlns="http://www.w3.org/2000/svg">
<path d="M 0,0 H 55.5 V 55.5 H 0 Z" fill="rgb(51, 117, 142)"/>
<path d="M 17.169999999999998,25.835 A 5.8,5.8 0 0,1 16.95,25.73 A 2,2 0 0,0 15.35,25.53 C 14.82,25.71 14.52,26.13 14.45,26.76 C 14.41,27.07 14.45,27.36 14.53,27.63 C 14.63,27.93 14.81,28.17 15.06,28.31 C 15.39,28.51 15.76,28.59 16.2,28.54 C 16.61,28.49 16.98,28.35 17.3,28.11 C 17.33,28.1 17.35,28.11 17.36,28.13 L 17.74,29.36 C 17.75,29.4 17.74,29.43 17.71,29.46 A 2.9,2.9 0 0,1 16.33,29.97 C 15.83,30.03 15.35,30 14.87,29.86 A 2.38,2.38 0 0,1 13.52,28.91 C 13.22,28.48 13.05,27.96 13.02,27.35 C 12.95,26.45 13.12,25.69 13.51,25.11 A 2.52,2.52 0 0,1 15.54,24.01 C 16.27,23.96 16.94,24.12 17.54,24.51 C 17.58,24.54 17.6,24.58 17.58,24.63 L 17.24,25.83 C 17.24,25.86 17.21,25.87 17.18,25.85 Z M 48.11,28.35 A 0.2,0.2 0 0,1 48.15,28.4 L 48.18,28.43 C 48.55,28.63 48.85,28.76 49.09,28.83 C 49.39,28.9 49.71,28.91 50.04,28.83 C 50.34,28.78 50.54,28.66 50.65,28.48 C 50.77,28.28 50.75,28.05 50.57,27.8 A 0.75,0.75 0 0,0 50.32,27.6 A 1.6,1.6 0 0,0 49.98,27.46 A 4.5,4.5 0 0,1 48.22,26.66 C 47.7,26.2 47.59,25.61 47.9,24.9 C 48.1,24.44 48.5,24.16 49.13,24.05 C 49.63,23.96 50.13,23.99 50.67,24.13 A 5.37,5.37 0 0,1 51.88,24.7 C 51.91,24.71 51.91,24.73 51.89,24.75 L 51.29,25.49 C 51.28,25.51 51.25,25.52 51.22,25.5 A 7.64,7.64 0 0,0 50.48,25.15 A 2.07,2.07 0 0,0 49.75,25.01 A 0.82,0.82 0 0,0 49.31,25.12 A 0.69,0.69 0 0,0 49.05,25.4 C 48.98,25.53 49,25.65 49.08,25.76 C 49.22,25.93 49.43,26.06 49.71,26.15 L 50.11,26.27 C 50.51,26.39 50.8,26.49 50.97,26.57 C 51.25,26.71 51.48,26.87 51.65,27.09 C 51.85,27.32 51.96,27.62 51.99,27.99 C 52.02,28.33 51.97,28.65 51.85,28.95 C 51.68,29.38 51.41,29.67 51.05,29.83 C 50.75,29.97 50.35,30.03 49.85,29.99 A 5.34,5.34 0 0,1 47.55,29.34 A 0.1,0.1 0 0,1 47.5,29.27 C 47.5,29.24 47.5,29.21 47.52,29.19 L 48.05,28.36 C 48.07,28.33 48.09,28.33 48.11,28.36 Z M 5.28,26.44 V 29.93 C 5.28,29.97 5.26,29.99 5.23,29.99 A 11.89,11.89 0 0,1 4.18,29.99 C 4.06,29.99 4,29.94 4,29.82 V 24.03 C 4,24.01 4.01,24 4.04,24 H 5.27 C 5.32,24 5.36,24.02 5.38,24.07 L 7.13,27.7 L 7.15,27.71 L 7.18,27.7 L 8.92,24.09 A 0.15,0.15 0 0,1 9.06,24 H 10.19 C 10.27,24 10.31,24.04 10.31,24.12 V 28.62 C 10.31,28.69 10.28,28.72 10.21,28.72 H 9.74 C 9.71,28.72 9.69,28.74 9.69,28.77 V 29.3 C 9.69,29.35 9.67,29.37 9.62,29.37 H 9.12 C 9.05,29.37 9.02,29.34 9.02,29.27 V 26.44 H 9 L 7.68,29.2 A 0.1,0.1 0 0,1 7.58,29.26 H 6.75 A 0.14,0.14 0 0,1 6.61,29.18 L 5.3,26.44 C 5.29,26.42 5.28,26.42 5.28,26.44 Z M 46.97,24 H 45.73 A 0.03,0.03 0 0,0 45.69,24.04 V 29.97 C 45.69,29.98 45.71,30 45.73,30 H 46.97 C 46.99,30 47,29.98 47,29.96 V 24.03 A 0.03,0.03 0 0,0 46.97,24 Z M 44.97,30 H 41.03 C 41.01,30 41,29.99 41,29.97 V 24.03 C 41,24.01 41.01,24 41.03,24 H 42.26 C 42.28,24 42.29,24.01 42.29,24.03 V 28.54 C 42.29,28.56 42.29,28.57 42.32,28.57 H 44.97 C 44.99,28.57 45,28.58 45,28.6 V 29.97 C 45,29.99 44.99,30 44.97,30 Z M 12.26,24 H 11.04 A 0.04,0.04 0 0,0 11,24.04 V 29.96 C 11,29.98 11.02,30 11.04,30 H 12.26 C 12.28,30 12.3,29.98 12.3,29.96 V 24.04 A 0.04,0.04 0 0,0 12.26,24 Z M 26.48,24 C 27.4,24 28.12,24.28 28.66,24.84 C 29.19,25.39 29.45,26.11 29.45,27.01 C 29.45,27.91 29.18,28.63 28.65,29.17 A 2.9,2.9 0 0,1 26.46,30 A 2.9,2.9 0 0,1 24.29,29.16 A 2.98,2.98 0 0,1 23.5,26.99 C 23.5,26.09 23.77,25.37 24.3,24.83 A 2.9,2.9 0 0,1 26.48,24 Z M 26.49,25.08 C 25.57,25.08 24.81,25.96 24.82,27.04 C 24.82,28.12 25.57,29 26.5,29 C 27.43,29 28.18,28.12 28.18,27.04 C 28.18,25.95 27.42,25.08 26.49,25.08 Z M 37.75,24 C 38.62,24 39.31,24.3 39.8,24.87 C 40.27,25.41 40.5,26.12 40.5,27 C 40.5,27.88 40.26,28.6 39.8,29.14 C 39.3,29.71 38.61,30 37.75,30 C 36.88,30 36.2,29.71 35.7,29.13 A 3.16,3.16 0 0,1 35,27 C 35,26.12 35.24,25.4 35.7,24.86 C 36.2,24.29 36.89,24 37.75,24 Z M 37.77,25.08 C 36.91,25.08 36.21,25.96 36.21,27.04 S 36.91,29 37.77,29 C 38.63,29 39.33,28.12 39.33,27.04 S 38.63,25.08 37.77,25.08 Z M 32.24,24 C 32.68,24 33.01,24.04 33.21,24.12 C 33.94,24.42 34.27,25.15 34.21,26.32 C 34.15,27.22 33.8,27.79 33.13,28.02 C 32.95,28.09 32.63,28.12 32.21,28.12 C 31.88,28.1 31.58,28.1 31.31,28.11 C 31.27,28.11 31.26,28.13 31.26,28.16 V 29.96 C 31.26,29.98 31.24,30 31.21,30 H 30.05 C 30.02,30 30,29.98 30,29.95 V 24.05 C 30,24.02 30.01,24 30.04,24.01 L 32.24,24 Z M 31.29,25.42 C 31.27,25.42 31.26,25.43 31.26,25.45 V 26.65 C 31.26,26.68 31.26,26.69 31.29,26.69 H 32.38 C 32.53,26.69 32.65,26.64 32.76,26.53 A 0.5,0.5 0 0,0 32.92,26.16 V 25.96 A 0.5,0.5 0 0,0 32.76,25.58 A 0.53,0.53 0 0,0 32.38,25.42 H 31.28 Z M 21.29,24 C 21.74,24 22.06,24.03 22.27,24.13 C 22.72,24.33 23.01,24.73 23.13,25.34 C 23.23,25.84 23.21,26.38 23.07,26.92 C 22.96,27.32 22.74,27.62 22.4,27.82 C 22.37,27.84 22.36,27.86 22.38,27.89 L 23.58,29.96 C 23.6,29.99 23.59,30 23.56,30 H 22.3 A 0.07,0.07 0 0,1 22.23,29.96 L 21.02,28.04 A 0.1,0.1 0 0,0 20.94,27.99 H 20.29 C 20.26,27.99 20.24,28.01 20.24,28.04 V 29.96 C 20.24,29.99 20.23,30 20.2,30 H 19.05 C 19.02,30 19,29.99 19,29.95 V 24.04 C 19,24.01 19.01,24 19.04,24 H 21.29 Z M 20.27,25.43 C 20.25,25.43 20.24,25.43 20.24,25.46 V 26.56 C 20.24,26.57 20.25,26.58 20.27,26.58 H 21.43 C 21.57,26.58 21.69,26.53 21.79,26.43 A 0.5,0.5 0 0,0 21.93,26.07 V 25.93 A 0.5,0.5 0 0,0 21.79,25.57 A 0.48,0.48 0 0,0 21.43,25.42 H 20.27 Z M 10.25,30.3 H 9.7 A 0.07,0.07 0 0,0 9.63,30.37 V 30.93 C 9.63,30.97 9.66,31 9.7,31 H 10.24 C 10.28,31 10.31,30.97 10.31,30.93 V 30.37 A 0.07,0.07 0 0,0 10.24,30.3 Z" fill="rgb(253, 252, 249)"/>
</svg>
