<?xml version="1.0" encoding="UTF-8"?>
<!-- generated by Finnhub -->
<svg viewBox="0 0 55.5 55.5" xmlns="http://www.w3.org/2000/svg">
<path d="M 0,0 H 55.5 V 55.5 H 0 Z" fill="rgb(239, 242, 248)"/>
<path d="M 7.53,21.985 H 5 V 34 H 7 V 25.74 H 7.1 L 10.25,34 H 11.73 L 14.89,25.76 H 14.99 V 34 H 16.99 V 22 H 14.45 L 11.05,30.7 H 10.92 L 7.53,22 Z M 23.7,34 H 20 V 22 H 23.77 C 27.21,22 29,24.78 29,27.99 C 29,31.24 27.17,34 23.7,34 Z M 22,32 H 23.6 C 26.05,32 27,30.22 27,27.99 C 27,25.79 26.08,24 23.66,24 H 22 V 32 Z M 38.93,26 H 41 C 40.68,23.52 38.66,22 36.2,22 C 32.85,22 31,24.9 31,28 C 31,31.11 32.84,34 36.2,34 A 4.7,4.7 0 0,0 41,30 H 38.93 C 38.68,31.33 37.53,32 36.23,32 C 33.97,32 33,29.96 33,28 C 33,26.05 34,24 36.23,24 C 37.58,24 38.7,24.65 38.93,26 Z M 51,22 H 43 V 34 H 51 V 32 H 45 V 29 H 50.54 V 27 H 45 V 24 H 51 V 22 Z"/>
</svg>
