<?xml version="1.0" encoding="UTF-8"?>
<!-- generated by Finnhub -->
<svg viewBox="0 0 55.5 55.5" xmlns="http://www.w3.org/2000/svg">
<path d="M 0,0 H 55.5 V 55.5 H 0 Z" fill="rgb(242, 110, 61)"/>
<path d="M 29.037999999999997,16.256 C 26.623,22.101 19.04,32.891 15.4,36.8 C 15.248,36.949 15.097,37.104 14.95,37.26 A 16.02,16.02 0 0,1 14.025,35.796 L 14.4,35.4 C 16.847,32.8 22.8,20.4 24.8,12.6 L 24.9,12.3 A 16.08,16.08 0 0,1 28,12 C 29.038,12 30.053,12.099 31.036,12.288 C 30.459,13.162 29.806,14.449 29.048,16.271 Z" fill="rgb(254, 254, 253)"/>
<path d="M 16.366,38.98 A 16.084,16.084 0 0,1 15.451,37.926 C 15.642,37.764 15.852,37.582 16.081,37.38 C 19,34.8 27.4,24.4 31.8,15.4 L 33.14,12.843 A 15.95,15.95 0 0,1 37.173,14.889 C 36.266,16.068 34.769,18.631 33.883,20.086 C 30.599,25.478 23.4,33.912 17.269,38.298 C 16.963,38.517 16.656,38.758 16.376,38.995 Z" fill="rgb(254, 254, 253)"/>
<path d="M 16.919999999999998,39.536 C 17.413,40.015 17.925,40.449 18.464,40.849 C 22.892,38.3 30.13,33.035 36.6,24.844 C 37.721,23.424 40.187,20.173 41.285,19.081 A 16.086,16.086 0 0,0 38.791,16.186 L 36.6,19.4 C 28,31.8 21.131,36.87 17.854,38.974 C 17.506,39.198 17.199,39.389 16.929,39.551 Z" fill="rgb(254, 254, 253)"/>
<path d="M 20.685,42.224 A 15.971,15.971 0 0,1 19.403,41.497 C 28.645,36.754 35.923,28.942 42.377,20.97 A 15.88,15.88 0 0,1 43.537,24.163 C 42.942,24.713 41.971,25.786 40.859,27.013 C 35.295,33.158 28.7,39.34 20.8,42.2 L 20.695,42.239 Z" fill="rgb(254, 254, 253)"/>
<path d="M 22.218,42.912 A 15.961,15.961 0 0,0 28,44 C 36.837,44 44,36.837 44,28 C 44,27.559 43.982,27.122 43.947,26.69 L 41.4,29.312 C 32.976,37.626 25.941,41.708 22.228,42.927 Z M 13.604,34.992 C 16.206,30.322 20.802,21.196 22.2,14 C 22.268,13.65 22.337,13.318 22.406,13.005 C 16.328,15.273 12,21.131 12,28 C 12,30.507 12.577,32.88 13.604,34.992 Z" fill="rgb(254, 254, 253)"/>
</svg>
