<?xml version="1.0" encoding="UTF-8"?>
<!-- generated by Finnhub -->
<svg viewBox="0 0 55.5 55.5" xmlns="http://www.w3.org/2000/svg">
<path d="M 0,0 H 55.5 V 55.5 H 0 Z" fill="rgb(61, 70, 76)"/>
<path d="M 4.99,31.665 L 5.67,24.28 C 5.69,24.1 5.79,24 5.97,24 H 6.46 C 6.63,24 6.73,24.07 6.81,24.24 L 9.51,30.39 L 12.21,24.24 C 12.27,24.07 12.39,24 12.54,24 H 13.04 C 13.21,24 13.31,24.1 13.33,24.28 L 14,31.68 C 14.01,31.88 13.9,32 13.71,32 H 13.35 C 13.16,32 13.05,31.9 13.03,31.72 L 12.58,25.76 L 9.93,31.76 C 9.87,31.92 9.76,32 9.6,32 H 9.4 C 9.24,32 9.13,31.92 9.05,31.76 L 6.46,25.76 L 5.96,31.72 C 5.94,31.9 5.84,32 5.65,32 H 5.29 C 5.09,32 4.99,31.89 5,31.68 Z M 15,28 A 4,4 0 1,1 19,32 C 16.8,32 15,30.2 15,28 Z M 22,28 C 22,26.2 20.72,25 19,25 C 17.3,25 16,26.2 16,28 C 16,29.81 17.3,31 19,31 C 20.72,31 22,29.81 22,28 Z M 24,31.68 V 24.3 C 24,24.1 24.13,23.99 24.33,23.99 H 26.67 C 29.3,24 31,25.8 31,28 S 29.29,32 26.67,32 H 24.33 C 24.11,31.99 24,31.87 24,31.68 Z M 26.67,31 C 28.7,31 30,29.78 30,28 C 30,26.2 28.69,25 26.67,25 H 25 V 31 H 26.67 Z M 33,31.7 V 24.3 C 33,24.11 33.13,24 33.34,24 H 33.66 C 33.88,24 34,24.11 34,24.3 V 31.7 C 34,31.89 33.87,32 33.66,32 H 33.34 C 33.14,32 33,31.89 33,31.7 Z M 38.9,31.75 L 36.02,24.35 C 35.95,24.13 36.05,24 36.29,24 H 36.69 C 36.89,24 37.01,24.08 37.07,24.25 L 39.51,30.61 L 41.91,24.25 C 41.95,24.08 42.1,24 42.29,24 H 42.7 C 42.93,24 43.05,24.14 42.98,24.35 L 40.11,31.75 C 40.05,31.93 39.91,32 39.73,32 H 39.29 C 39.09,32 38.95,31.93 38.89,31.75 Z" fill="rgb(254, 254, 253)"/>
<path d="M 43.49,30.985 C 43.23,31 43,30.86 43,30.69 V 28.31 C 43,28.14 43.21,28 43.5,28 C 43.77,28 44,28.14 44,28.31 V 30.69 C 44,30.86 43.77,31 43.5,31 Z" fill="rgb(65, 148, 181)"/>
<path d="M 45.49,30.985 C 45.23,31 45,30.84 45,30.63 V 25.37 C 45,25.17 45.21,25 45.5,25 C 45.77,25 46,25.16 46,25.37 V 30.63 C 45.98,30.83 45.77,31 45.5,31 Z" fill="rgb(243, 115, 32)"/>
<path d="M 47.49,31.985 C 47.23,32 47,31.85 47,31.65 V 21.35 C 47,21.15 47.21,21 47.5,21 C 47.77,21 48,21.15 48,21.35 V 31.65 C 47.98,31.85 47.77,32 47.5,32 Z" fill="rgb(121, 202, 240)"/>
<path d="M 49.49,27.985 C 49.23,28 49,27.84 49,27.63 V 19.37 C 49,19.17 49.21,19 49.5,19 C 49.77,19 50,19.16 50,19.37 V 27.63 C 50,27.83 49.79,28 49.5,28 Z" fill="rgb(181, 182, 170)"/>
<path d="M 51.49,25.985 C 51.23,26 51,25.86 51,25.68 V 22.32 C 51,22.14 51.21,22 51.5,22 C 51.77,22 52,22.14 52,22.32 V 25.68 C 52,25.86 51.79,26 51.5,26 Z" fill="rgb(84, 144, 176)"/>
</svg>
