<?xml version="1.0" encoding="UTF-8"?>
<!-- generated by Finnhub -->
<svg viewBox="0 0 55.5 55.5" xmlns="http://www.w3.org/2000/svg">
<path d="M 0,0 H 55.5 V 55.5 H 0 Z" fill="rgb(239, 242, 248)"/>
<path d="M 49.67,23.585 H 6.32 C 5.39,23.6 4.63,24.32 4.63,25.2 V 30.8 C 4.63,31.68 5.39,32.4 6.32,32.4 H 49.68 C 50.61,32.4 51.37,31.68 51.37,30.8 V 25.2 C 51.37,24.32 50.61,23.6 49.68,23.6 Z M 6.32,23 C 5.04,23 4,23.98 4,25.2 V 30.8 C 4,32.01 5.04,33 6.32,33 H 49.68 C 50.96,33 52,32.02 52,30.8 V 25.2 C 52,23.99 50.96,23 49.68,23 H 6.32 Z" fill="rgb(34, 30, 30)" fill-rule="evenodd"/>
<path d="M 6.87,25.165 H 11.12 C 11.51,25.18 11.82,25.49 11.82,25.88 V 27.93 A 9.42,9.42 0 0,0 11.54,26.93 A 3.58,3.58 0 0,0 11.14,26.08 C 10.99,25.87 10.81,25.71 10.59,25.71 C 10.44,25.71 10.31,25.81 10.22,25.94 C 10.12,26.08 10.04,26.27 9.97,26.48 C 9.82,26.92 9.71,27.5 9.6,28.08 L 9.56,28.26 C 9.46,28.77 9.36,29.26 9.26,29.64 C 9.2,29.85 9.14,30.03 9.07,30.14 C 9,30.26 8.95,30.29 8.91,30.29 C 8.89,30.29 8.86,30.28 8.81,30.23 A 2.3,2.3 0 0,1 8.56,29.64 C 8.45,29.22 8.35,28.64 8.25,28.07 C 8.15,27.5 8.05,26.92 7.93,26.49 C 7.87,26.27 7.8,26.09 7.73,25.95 C 7.65,25.82 7.55,25.71 7.41,25.71 C 7.31,25.71 7.22,25.75 7.14,25.82 C 7.06,25.89 6.99,25.99 6.92,26.11 C 6.78,26.33 6.65,26.65 6.53,26.99 C 6.4,27.39 6.27,27.83 6.18,28.23 V 25.88 C 6.18,25.49 6.49,25.18 6.88,25.18 Z M 6.18,29.08 V 30.12 C 6.18,30.51 6.49,30.82 6.88,30.82 H 11.12 A 0.7,0.7 0 0,0 11.82,30.12 V 28.9 A 5.97,5.97 0 0,0 10.93,27.92 C 10.83,27.85 10.73,27.82 10.68,27.82 C 10.66,27.82 10.63,27.82 10.58,27.89 S 10.48,28.05 10.42,28.18 A 10.24,10.24 0 0,0 10.07,29.08 C 9.93,29.41 9.79,29.75 9.6,30.01 C 9.42,30.26 9.2,30.46 8.91,30.46 C 8.62,30.46 8.41,30.26 8.24,30.01 C 8.07,29.75 7.94,29.41 7.82,29.08 L 7.72,28.78 A 8.67,8.67 0 0,0 7.5,28.18 C 7.45,28.05 7.4,27.96 7.35,27.89 C 7.3,27.83 7.26,27.81 7.24,27.81 C 7.16,27.81 7.07,27.85 6.96,27.94 C 6.86,28.02 6.76,28.14 6.66,28.27 C 6.46,28.54 6.28,28.85 6.18,29.07 Z M 6,25.88 C 6,25.4 6.4,25 6.88,25 H 11.12 C 11.61,25 12,25.4 12,25.88 V 30.12 C 12,30.6 11.6,31 11.12,31 H 6.88 A 0.88,0.88 0 0,1 6,30.12 V 25.88 Z M 6.69,27.83 L 6.56,28.11 C 6.66,27.99 6.76,27.89 6.86,27.81 C 6.96,27.71 7.1,27.65 7.24,27.65 C 7.34,27.65 7.42,27.71 7.49,27.79 L 7.67,28.11 L 7.89,28.74 L 7.99,29.03 C 8.1,29.34 8.22,29.65 8.37,29.88 C 8.21,29.57 8.07,29.15 7.92,28.73 L 7.85,28.53 C 7.73,28.18 7.62,27.85 7.51,27.59 A 2.29,2.29 0 0,0 7.33,27.22 A 0.42,0.42 0 0,0 7.26,27.13 L 7.24,27.12 C 7.17,27.12 7.08,27.17 6.98,27.3 S 6.78,27.62 6.68,27.83 Z M 10.04,28.67 L 10,28.78 L 10.01,28.73 L 10.09,28.45 C 10.19,28.13 10.27,27.82 10.36,27.58 L 10.53,27.22 C 10.6,27.14 10.64,27.12 10.68,27.12 A 0.2,0.2 0 0,1 10.78,27.16 C 10.83,27.19 10.88,27.23 10.93,27.29 A 7.91,7.91 0 0,1 11.52,28.24 A 4.68,4.68 0 0,0 11.03,27.79 A 0.66,0.66 0 0,0 10.68,27.65 C 10.58,27.65 10.5,27.72 10.44,27.8 C 10.38,27.88 10.32,27.99 10.26,28.11 L 10.04,28.67 Z M 11.38,26.98 L 11.48,27.32 A 2.75,2.75 0 0,0 11.1,26.7 C 10.96,26.53 10.79,26.41 10.59,26.41 C 10.45,26.41 10.34,26.5 10.26,26.61 C 10.17,26.73 10.1,26.89 10.04,27.08 C 9.94,27.41 9.84,27.84 9.76,28.28 L 9.73,28.42 A 14.93,14.93 0 0,1 9.73,28.3 L 9.77,28.1 C 9.88,27.53 10,26.96 10.14,26.54 C 10.21,26.33 10.28,26.16 10.36,26.04 C 10.45,25.93 10.52,25.88 10.59,25.88 C 10.72,25.88 10.86,25.98 11,26.18 C 11.14,26.38 11.27,26.66 11.38,26.98 Z M 11.34,27.43 C 11.41,27.57 11.47,27.72 11.52,27.86 A 6.79,6.79 0 0,0 11.06,27.17 A 0.97,0.97 0 0,0 10.88,27.01 A 0.37,0.37 0 0,0 10.68,26.94 C 10.56,26.94 10.46,27.02 10.39,27.12 C 10.32,27.22 10.25,27.36 10.19,27.52 C 10.1,27.77 10.01,28.08 9.92,28.4 L 9.9,28.5 V 28.46 L 9.93,28.31 C 10.03,27.88 10.11,27.46 10.21,27.13 C 10.27,26.95 10.33,26.81 10.4,26.72 C 10.47,26.62 10.53,26.59 10.59,26.59 C 10.71,26.59 10.84,26.66 10.97,26.82 C 11.1,26.97 11.23,27.19 11.34,27.43 Z M 7.79,27.08 C 7.88,27.33 7.96,27.64 8.05,27.96 A 16.4,16.4 0 0,0 7.76,26.53 A 2.3,2.3 0 0,0 7.57,26.03 C 7.5,25.91 7.45,25.88 7.41,25.88 C 7.37,25.88 7.32,25.9 7.26,25.96 C 7.2,26.01 7.14,26.09 7.07,26.2 A 4.6,4.6 0 0,0 6.7,27.05 A 11.29,11.29 0 0,0 6.6,27.38 C 6.7,27.12 6.8,26.88 6.91,26.72 C 7.01,26.55 7.15,26.42 7.32,26.42 C 7.39,26.42 7.44,26.44 7.48,26.48 A 0.6,0.6 0 0,1 7.59,26.62 C 7.66,26.74 7.73,26.89 7.79,27.08 Z M 7.62,27.14 C 7.72,27.44 7.83,27.82 7.94,28.23 L 7.68,27.52 C 7.61,27.36 7.55,27.22 7.48,27.12 A 0.59,0.59 0 0,0 7.38,27 A 0.22,0.22 0 0,0 7.24,26.94 C 7.1,26.94 6.99,27.02 6.89,27.14 C 6.95,27.01 7,26.9 7.06,26.81 C 7.16,26.65 7.25,26.59 7.32,26.59 L 7.36,26.61 C 7.39,26.63 7.41,26.66 7.44,26.71 C 7.5,26.81 7.56,26.95 7.62,27.14 Z" fill="rgb(14, 63, 135)" fill-rule="evenodd"/>
<path d="M 16.99,24.985 H 15 V 31 H 16.5 V 27 L 18,31 H 20 L 21.5,27 V 31 H 23 V 25 H 21 L 19,29.5 L 17,25 Z M 28.41,25 C 29.28,24.95 31,25.15 31,26.46 V 29.73 C 31,30.15 30.48,31 28.41,31 H 25 V 25 H 28.41 Z M 26.5,26 V 30 H 28 C 28.5,30 29.5,30 29.5,29.37 V 26.64 C 29.5,26.4 29.26,26 28.1,26 H 26.5 Z M 33.6,25 H 32 L 34,31 H 35.6 L 36.9,26.73 L 38.2,31 H 39.8 L 42,25 H 40.4 L 39.1,29.27 L 37.8,25 H 36.2 L 34.9,29.27 L 33.6,25 Z M 44.5,25 H 43 V 31 H 44.5 V 27.9 L 47.06,31 H 49 L 46.1,27.73 L 48.6,25 H 46.86 L 44.49,27.73 V 25 Z" fill="rgb(34, 30, 30)"/>
</svg>
