<?xml version="1.0" encoding="UTF-8"?>
<!-- generated by Finnhub -->
<svg viewBox="0 0 55.5 55.5" xmlns="http://www.w3.org/2000/svg">
<path d="M 0,0 H 55.5 V 55.5 H 0 Z" fill="rgb(239, 242, 248)"/>
<path d="M 27.91,41.985 C 38.92,42 48,35.73 48,28 S 38.92,14 27.92,14 S 8,20.27 8,28 C 8,35.73 16.92,42 27.92,42 Z M 28,40 C 37.94,40 46,34.63 46,28 S 37.94,16 28,16 S 10,21.37 10,28 C 10,34.63 18.06,40 28,40 Z" fill="rgb(234, 27, 44)" fill-rule="evenodd"/>
<path d="M 13.99,23.645 C 14,22.74 14.78,22 15.74,22 H 24.26 C 25.22,22 26,22.74 26,23.66 V 34 H 23 V 26 A 1,1 0 1,0 21,26 V 34 H 19 V 26 A 1,1 0 1,0 17,26 V 34 H 14 V 23.66 Z M 28.67,22 C 27.75,22 27,22.73 27,23.64 V 32.36 C 27,33.26 27.75,34 28.67,34 H 32.33 C 33.25,34 34,33.27 34,32.36 V 30 H 32 A 1,1 0 1,1 30,30 V 29 H 34 V 23.64 C 34,22.74 33.25,22 32.33,22 H 28.67 Z M 32,26 V 27 H 30 V 26 A 1,1 0 1,1 32,26 Z M 35,23.64 C 35,22.74 35.75,22 36.67,22 H 40.33 C 41.25,22 42,22.73 42,23.64 V 26 H 40 A 1,1 0 1,0 38,26 V 30 A 1,1 0 1,0 40,30 H 42 V 32.36 C 42,33.26 41.25,34 40.33,34 H 36.67 C 35.75,34 35,33.27 35,32.36 V 23.64 Z" fill="rgb(234, 27, 44)"/>
</svg>
