<?xml version="1.0" encoding="UTF-8"?>
<!-- generated by Finnhub -->
<svg viewBox="0 0 55.5 55.5" xmlns="http://www.w3.org/2000/svg">
<path d="M 0,0 H 55.5 V 55.5 H 0 Z" fill="rgb(30, 106, 152)"/>
<path d="M 26.189999999999998,19.365 C 25.98,19.4 25.76,19.45 25.53,19.51 C 25.33,19.56 25.11,19.61 24.89,19.64 C 24.15,19.74 23.42,19.84 22.69,19.96 C 22.36,20.01 22.1,20.03 21.91,20.01 A 0.11,0.11 0 0,1 21.84,19.99 A 0.12,0.12 0 0,1 21.81,19.86 L 21.84,19.8 L 22.11,19.6 C 22.21,19.53 22.3,19.47 22.41,19.37 L 23.66,18.3 C 23.83,18.17 23.96,18.1 24.2,18.08 C 24.97,18.04 25.7,17.98 26.37,17.91 L 27.11,17.87 A 7.59,7.59 0 0,0 28.31,17.73 A 0.05,0.05 0 0,0 28.31,17.69 L 28.3,17.65 H 28.29 L 27.02,17.52 A 0.19,0.19 0 0,1 26.91,17.47 A 0.2,0.2 0 0,1 26.87,17.24 A 0.2,0.2 0 0,1 26.96,17.14 C 27.7,16.79 29.16,16.14 31.36,15.19 C 31.69,15.05 32.11,14.96 32.61,14.93 L 35.65,14.71 C 35.77,14.71 35.9,14.68 36.02,14.65 C 36.2,14.62 36.38,14.59 36.52,14.59 L 36.59,14.6 L 41.06,16.65 A 0.12,0.12 0 0,0 41.23,16.58 L 42.33,14.07 A 0.11,0.11 0 0,1 42.4,14.01 A 0.11,0.11 0 0,1 42.48,14.01 C 42.53,14.03 42.6,14.11 42.71,14.27 C 42.75,14.32 42.84,14.53 43.01,14.88 C 43.07,15.03 43.11,15.25 43.09,15.54 C 43.06,16.29 43.11,17.12 43.22,18.04 C 43.23,18.14 43.26,18.22 43.3,18.3 L 44.06,19.88 L 44.1,19.98 L 44.67,22.76 C 44.72,22.98 44.88,23.39 45.17,23.96 C 45.69,25.04 46.31,26.43 46.69,27.26 L 46.94,27.8 C 47.04,28.02 47.02,28.23 46.89,28.43 L 45.77,30.21 A 25.18,25.18 0 0,0 45.55,30.65 A 0.1,0.1 0 0,1 45.5,30.67 L 43.65,30.84 C 43.59,30.84 43.54,30.83 43.49,30.8 A 0.25,0.25 0 0,1 43.39,30.67 C 43.16,29.99 42.85,29.16 42.47,28.18 A 3.8,3.8 0 0,0 42.18,27.64 A 0.14,0.14 0 0,0 42.12,27.58 L 37.75,25.18 A 0.41,0.41 0 0,0 37.4,25.16 L 33.87,26.48 A 0.12,0.12 0 0,0 33.81,26.53 A 3870.12,3870.12 0 0,1 33.91,31.29 C 33.91,31.42 34.04,31.61 34.3,31.88 C 35.22,32.85 36.27,33.89 37.46,35 C 37.63,35.17 37.69,35.37 37.66,35.66 L 37.56,37.8 C 37.56,37.91 37.58,38.02 37.59,38.11 C 37.61,38.21 37.63,38.31 37.62,38.39 A 0.2,0.2 0 0,1 37.55,38.53 C 37.31,38.73 37.13,38.91 37,39.08 C 36.6,39.6 36.2,40.08 35.8,40.55 C 35.41,41 35.04,41.44 34.68,41.91 A 35.9,35.9 0 0,1 32.94,43.98 A 0.2,0.2 0 0,1 32.86,44 L 28,43.97 A 0.11,0.11 0 0,1 27.9,43.93 A 0.12,0.12 0 0,1 27.89,43.83 A 324.73,324.73 0 0,1 29.43,41.24 C 29.55,41.04 29.71,40.99 29.92,41.09 L 31.3,41.69 C 31.53,41.79 31.72,41.76 31.87,41.59 A 448.65,448.65 0 0,1 34.39,38.93 C 34.57,38.58 34.65,38.18 34.62,37.71 A 0.13,0.13 0 0,0 34.58,37.62 A 0.12,0.12 0 0,0 34.49,37.59 H 26.53 C 25.98,37.59 25.2,37.55 24.17,37.46 C 23.37,37.39 22.67,37.35 21.97,37.3 C 21.41,37.27 20.86,37.24 20.25,37.19 A 39.24,39.24 0 0,0 18.31,37.06 C 18.2,37.06 18.11,37.02 18.04,36.94 A 0.14,0.14 0 0,1 18.04,36.76 A 0.14,0.14 0 0,1 18.08,36.72 L 23.21,34.04 A 0.24,0.24 0 0,0 23.34,33.88 L 23.67,32.26 A 0.55,0.55 0 0,1 23.91,31.91 L 25.12,31.11 A 0.32,0.32 0 0,0 25.22,30.97 A 0.11,0.11 0 0,0 25.16,30.83 A 67.62,67.62 0 0,0 18.19,31.21 C 18.02,31.21 17.89,31.25 17.76,31.28 A 6.3,6.3 0 0,1 17.48,31.35 C 17.32,31.43 16.82,31.64 15.96,31.98 A 48.61,48.61 0 0,0 12.44,33.49 C 12.26,33.59 12.08,33.63 11.9,33.64 L 11.87,33.63 A 0.06,0.06 0 0,1 11.86,33.53 L 12.13,33.23 C 12.46,32.86 12.8,32.47 13.07,32.22 C 13.99,31.35 14.79,30.57 15.46,29.86 C 15.58,29.73 15.73,29.64 15.9,29.58 C 18.09,28.89 20.33,28.21 22.61,27.53 C 22.97,27.43 23.4,27.26 23.71,27.07 C 24.68,26.45 25.44,25.95 25.97,25.59 A 0.16,0.16 0 0,0 26.05,25.49 A 0.07,0.07 0 0,0 26.02,25.41 A 0.07,0.07 0 0,0 25.95,25.41 C 24.6,25.88 23.32,26.35 22.1,26.81 C 21.74,26.94 21.38,26.98 21,26.93 C 20.38,26.85 19.4,26.76 18.06,26.65 A 9.64,9.64 0 0,1 16.74,26.47 A 0.12,0.12 0 0,1 16.71,26.36 L 16.74,26.3 A 658.08,658.08 0 0,1 22.06,24.66 C 22.28,24.6 22.5,24.48 22.71,24.31 L 25.32,22.21 C 25.46,22.1 25.62,22.03 25.79,22.01 C 26.37,21.91 26.85,21.81 27.25,21.72 C 27.58,21.65 27.87,21.6 28.12,21.58 A 34.66,34.66 0 0,0 29.01,21.48 A 0.05,0.05 0 0,0 29.01,21.42 C 28.96,21.34 28.84,21.26 28.64,21.2 C 28.3,21.1 27.87,20.97 27.36,20.85 A 1.46,1.46 0 0,0 26.66,20.85 C 25.61,21.1 24.75,21.29 24.1,21.42 L 23.39,21.57 C 22.99,21.67 22.61,21.76 22.19,21.79 H 22.06 A 0.09,0.09 0 0,1 22.01,21.77 A 0.1,0.1 0 0,1 22.03,21.62 L 26.25,19.56 A 0.1,0.1 0 0,0 26.29,19.51 A 0.1,0.1 0 0,0 26.26,19.4 A 0.09,0.09 0 0,0 26.2,19.38 Z M 42.04,17.31 A 0.12,0.12 0 0,0 42.15,17.34 A 0.12,0.12 0 0,0 42.23,17.25 L 42.79,15.08 A 0.13,0.13 0 0,0 42.77,14.98 L 42.56,14.68 A 0.12,0.12 0 0,0 42.45,14.62 A 0.12,0.12 0 0,0 42.35,14.69 L 41.48,16.72 A 0.13,0.13 0 0,0 41.51,16.86 L 42.04,17.31 Z M 30.16,17.67 H 30.18 L 35.28,15.17 L 35.29,15.15 A 0.04,0.04 0 0,0 35.29,15.11 L 35.26,15.1 L 32.08,15.19 H 32.06 L 27.56,17.15 L 27.55,17.16 A 0.04,0.04 0 0,0 27.55,17.21 L 27.57,17.22 L 30.16,17.67 Z M 28.46,18.83 A 0.14,0.14 0 0,0 28.39,18.9 A 0.15,0.15 0 0,0 28.43,19.08 C 28.46,19.1 28.49,19.11 28.53,19.11 L 35.06,19.19 C 35.09,19.19 35.12,19.19 35.15,19.16 A 0.15,0.15 0 0,0 35.2,19.09 L 36.3,15.27 A 0.15,0.15 0 0,0 36.25,15.12 A 0.14,0.14 0 0,0 36.09,15.1 L 28.46,18.83 Z M 40.7,20.34 H 40.72 L 40.74,20.32 A 0.04,0.04 0 0,0 40.74,20.28 L 36.66,15.14 A 0.04,0.04 0 0,0 36.62,15.13 H 36.6 L 36.59,15.16 L 35.44,19.16 A 0.04,0.04 0 0,0 35.46,19.21 H 35.47 L 40.7,20.34 Z M 37.24,15.39 C 37.24,15.43 37.26,15.46 37.28,15.49 C 37.68,15.97 38.03,16.41 38.34,16.82 C 38.51,17.05 38.69,17.26 38.85,17.45 C 39.05,17.68 39.25,17.9 39.4,18.14 C 39.62,18.44 39.88,18.76 40.13,19.06 C 40.45,19.45 40.77,19.82 40.98,20.19 C 41.01,20.24 41.06,20.29 41.11,20.31 C 41.36,20.41 41.61,20.37 41.88,20.16 A 0.13,0.13 0 0,0 41.91,20.12 L 42.79,18.42 A 0.25,0.25 0 0,0 42.81,18.24 A 0.24,0.24 0 0,0 42.71,18.1 L 42.13,17.7 C 41.53,17.28 41.01,16.92 40.36,16.64 A 91.22,91.22 0 0,1 37.33,15.29 A 0.1,0.1 0 0,0 37.25,15.34 A 0.1,0.1 0 0,0 37.25,15.39 Z M 42.81,16.66 C 42.81,16.65 42.81,16.63 42.79,16.62 A 0.06,0.06 0 0,0 42.72,16.62 A 0.06,0.06 0 0,0 42.69,16.64 C 42.6,16.86 42.55,17.16 42.54,17.53 C 42.54,17.59 42.56,17.64 42.6,17.68 A 0.2,0.2 0 0,0 42.74,17.75 H 42.81 A 0.1,0.1 0 0,0 42.89,17.73 A 0.1,0.1 0 0,0 42.92,17.64 L 42.82,16.66 Z M 22.67,19.6 C 22.72,19.63 22.77,19.65 22.81,19.64 A 594.99,594.99 0 0,1 26.25,19.14 C 26.75,19.08 27.36,19.01 27.81,18.87 C 28.01,18.81 28.2,18.71 28.38,18.61 C 28.56,18.51 28.74,18.41 28.92,18.35 C 29.16,18.27 29.3,18.2 29.33,18.14 A 0.05,0.05 0 0,0 29.33,18.09 L 29.32,18.07 H 29.3 A 2.86,2.86 0 0,0 28.73,18.03 C 27.27,18.11 25.77,18.23 24.21,18.37 A 0.75,0.75 0 0,0 23.81,18.56 A 187,187 0 0,1 22.65,19.52 A 0.07,0.07 0 0,0 22.65,19.58 L 22.67,19.6 Z M 44.2,22.7 A 0.1,0.1 0 0,0 44.31,22.69 A 0.1,0.1 0 0,0 44.35,22.59 L 43.82,20.07 L 43.81,20.05 L 43.21,18.75 A 0.16,0.16 0 0,0 42.92,18.75 L 42.29,20.03 A 0.66,0.66 0 0,0 42.29,20.61 L 42.95,21.93 C 43,22.03 43.08,22.12 43.18,22.17 L 44.2,22.7 Z M 23.95,21.18 L 26.77,20.5 A 0.98,0.98 0 0,1 27.26,20.51 L 29.74,21.18 H 29.79 C 29.92,21.08 30.16,21.03 30.39,20.98 C 30.56,20.94 30.72,20.91 30.85,20.86 A 197.82,197.82 0 0,1 33.27,19.91 A 2.66,2.66 0 0,1 34.15,19.63 L 34.17,19.61 A 0.05,0.05 0 0,0 34.17,19.56 C 34.12,19.48 34.01,19.44 33.85,19.44 A 80.77,80.77 0 0,1 27.8,19.34 C 27.43,19.4 27.03,19.54 26.6,19.74 C 25.2,20.41 24.4,20.79 24.22,20.9 C 24.05,21 23.95,21.08 23.92,21.13 A 0.03,0.03 0 0,0 23.92,21.16 L 23.93,21.18 H 23.95 Z M 35.6,19.62 C 35.61,19.79 35.68,20.02 35.8,20.3 A 64.26,64.26 0 0,1 37.57,24.54 A 0.1,0.1 0 0,0 37.71,24.52 L 40.69,21.02 A 0.16,0.16 0 0,0 40.67,20.79 L 40.52,20.65 A 0.25,0.25 0 0,0 40.4,20.59 L 35.66,19.57 A 0.05,0.05 0 0,0 35.62,19.58 L 35.61,19.6 V 19.62 Z M 37.27,24.89 A 0.13,0.13 0 0,0 37.35,24.82 A 0.14,0.14 0 0,0 37.35,24.71 L 35.3,19.72 A 0.14,0.14 0 0,0 35.2,19.64 A 0.13,0.13 0 0,0 35.09,19.67 L 31.54,22.64 A 0.14,0.14 0 0,0 31.51,22.82 L 33.59,26.15 L 33.67,26.2 H 33.76 L 37.27,24.9 Z M 34.22,19.79 A 0.53,0.53 0 0,1 34.02,19.93 A 1569.83,1569.83 0 0,1 29.95,21.5 A 4.5,4.5 0 0,0 29.11,21.65 C 28.59,21.8 28.31,21.82 27.86,21.86 L 27.57,21.89 A 0.53,0.53 0 0,0 27.2,22.07 L 27.18,22.09 A 0.05,0.05 0 0,0 27.2,22.14 H 27.23 C 28.19,22.26 29.17,22.34 30.19,22.39 C 30.37,22.39 30.64,22.43 30.99,22.48 C 31.16,22.5 31.33,22.45 31.51,22.3 C 32.4,21.6 33.27,20.88 34.13,20.15 L 34.33,19.89 A 0.07,0.07 0 0,0 34.32,19.79 H 34.31 A 0.07,0.07 0 0,0 34.21,19.79 Z M 42.18,27.27 H 42.2 A 0.04,0.04 0 0,0 42.24,27.24 L 42.74,22.24 A 0.04,0.04 0 0,0 42.74,22.2 L 41.22,20.84 A 0.04,0.04 0 0,0 41.17,20.84 L 37.8,24.82 A 0.04,0.04 0 0,0 37.8,24.85 V 24.87 L 37.81,24.88 L 42.18,27.27 Z M 22.95,24.43 A 0.08,0.08 0 0,0 22.95,24.56 L 23.01,24.58 L 27.76,24.44 L 27.8,24.43 L 30.59,22.85 L 30.62,22.81 A 0.09,0.09 0 0,0 30.6,22.71 A 0.08,0.08 0 0,0 30.55,22.69 L 25.62,22.39 L 25.57,22.4 L 22.95,24.43 Z M 42.59,26.68 L 42.6,26.72 L 42.63,26.74 H 42.67 L 42.7,26.71 L 44.44,23.16 A 0.06,0.06 0 0,0 44.41,23.09 L 43.11,22.41 A 0.05,0.05 0 0,0 43.05,22.41 L 43.03,22.43 V 22.46 L 42.59,26.68 Z M 24.28,27.21 C 24.39,27.22 24.57,27.19 24.75,27.15 L 25.13,27.09 L 32.48,26.39 H 32.82 C 32.94,26.39 33.06,26.39 33.18,26.37 A 0.12,0.12 0 0,0 33.28,26.3 A 0.13,0.13 0 0,0 33.28,26.18 L 31.29,23.03 A 0.22,0.22 0 0,0 31.16,22.93 A 0.2,0.2 0 0,0 31,22.96 C 30.3,23.4 29.6,23.81 28.89,24.21 C 28.29,24.55 27.69,24.89 27.09,25.26 C 26.05,25.91 25.17,26.46 24.47,26.93 A 0.7,0.7 0 0,0 24.24,27.15 V 27.17 A 0.05,0.05 0 0,0 24.26,27.21 H 24.28 Z M 42.54,27.47 A 0.06,0.06 0 0,0 42.55,27.54 L 45.09,30.02 L 45.13,30.04 L 45.16,30.03 L 45.19,30 V 29.96 L 44.54,23.86 C 44.54,23.85 44.54,23.83 44.52,23.82 A 0.06,0.06 0 0,0 44.49,23.8 L 44.45,23.81 A 0.06,0.06 0 0,0 44.42,23.84 L 42.54,27.47 Z M 45.44,29.99 A 0.07,0.07 0 0,0 45.49,30.06 A 0.07,0.07 0 0,0 45.57,30.03 L 46.57,28.46 C 46.68,28.27 46.72,28.13 46.68,28.03 A 52.99,52.99 0 0,0 44.98,24.33 A 0.1,0.1 0 0,0 44.9,24.31 A 0.1,0.1 0 0,0 44.86,24.33 V 24.39 C 44.97,25.59 45.14,27.09 45.38,28.85 C 45.43,29.22 45.45,29.6 45.44,29.99 Z M 17.86,26.39 L 21.57,26.63 C 21.61,26.63 21.66,26.63 21.7,26.61 C 22.94,26.18 24.14,25.76 25.3,25.33 C 25.7,25.18 26,25.13 26.18,25.19 A 0.11,0.11 0 0,0 26.28,25.16 C 26.39,25.06 26.53,24.99 26.7,24.95 L 26.73,24.93 A 0.05,0.05 0 0,0 26.73,24.87 L 26.69,24.85 C 25.84,24.79 24.97,24.81 24.11,24.83 L 22.87,24.85 C 22.61,24.85 22.3,24.9 22.09,24.97 C 20.99,25.33 19.83,25.67 18.63,26 A 4.82,4.82 0 0,0 17.81,26.32 A 0.05,0.05 0 0,0 17.83,26.38 L 17.86,26.4 Z M 26.13,30.43 L 26.15,30.45 H 26.17 L 32.84,26.75 L 32.86,26.73 V 26.7 L 32.84,26.68 H 32.82 L 23.92,27.48 H 23.9 L 23.81,27.56 A 0.04,0.04 0 0,0 23.8,27.59 V 27.62 L 26.13,30.43 Z M 33.57,26.88 A 0.18,0.18 0 0,0 33.47,26.75 A 0.17,0.17 0 0,0 33.31,26.75 L 26.54,30.6 A 0.06,0.06 0 0,0 26.52,30.63 V 30.66 C 26.52,30.68 26.52,30.69 26.54,30.69 L 26.57,30.71 C 27.57,30.67 28.64,30.78 29.73,30.94 C 30.06,31 30.39,31.02 30.72,31.04 C 31.09,31.07 31.47,31.09 31.86,31.16 A 16.88,16.88 0 0,0 33.53,31.33 A 0.12,0.12 0 0,0 33.6,31.26 L 33.61,31.21 L 33.51,27.26 C 33.51,27.21 33.51,27.14 33.53,27.06 A 1,1 0 0,0 33.57,26.88 Z M 12.9,32.86 C 12.98,32.9 13.06,32.91 13.15,32.87 A 118.05,118.05 0 0,1 17.67,31 C 18.67,30.87 19.66,30.8 20.62,30.78 C 21.63,30.76 22.47,30.71 23.28,30.67 C 24.04,30.62 24.78,30.58 25.64,30.57 L 25.7,30.54 A 0.12,0.12 0 0,0 25.75,30.43 A 33.39,33.39 0 0,0 23.75,28 L 23.65,27.85 C 23.6,27.75 23.55,27.66 23.45,27.61 C 23.4,27.58 23.28,27.6 23.1,27.66 C 22.02,28.02 20.92,28.36 19.8,28.7 C 18.57,29.08 17.34,29.46 16.15,29.87 C 15.9,29.95 15.7,30.07 15.55,30.24 A 62.21,62.21 0 0,1 12.87,32.82 V 32.84 L 12.9,32.86 Z M 43.02,28.34 A 0.07,0.07 0 0,0 42.94,28.34 A 0.07,0.07 0 0,0 42.91,28.37 V 28.41 L 43.64,30.45 L 43.66,30.49 H 43.7 L 45.04,30.46 A 0.07,0.07 0 0,0 45.1,30.42 A 0.07,0.07 0 0,0 45.08,30.34 L 43.02,28.34 Z M 23.58,33.92 A 0.08,0.08 0 0,0 23.6,34 A 0.07,0.07 0 0,0 23.67,34.02 L 32.34,31.68 L 32.38,31.65 A 0.08,0.08 0 0,0 32.37,31.55 A 0.07,0.07 0 0,0 32.33,31.53 L 26,30.85 L 25.95,30.86 L 24.02,32.26 A 0.08,0.08 0 0,0 24,32.3 L 23.58,33.92 Z M 32.68,31.82 L 32.4,31.96 A 0.56,0.56 0 0,1 32.28,32.01 L 23.57,34.28 A 3.8,3.8 0 0,0 18.87,36.76 V 36.78 L 18.88,36.8 H 18.9 L 26,37.24 A 0.57,0.57 0 0,0 26.45,37.07 C 26.65,36.87 26.91,36.69 27.15,36.52 C 27.31,36.41 27.47,36.3 27.61,36.18 C 28.49,35.45 29.45,34.7 30.47,33.94 L 31.65,32.99 L 32.37,32.41 C 32.56,32.26 32.7,32.11 32.8,31.95 A 0.1,0.1 0 0,0 32.74,31.81 A 0.1,0.1 0 0,0 32.68,31.81 Z M 26.93,37.35 C 27.12,37.29 27.27,37.26 27.4,37.25 A 332.2,332.2 0 0,1 34.94,37.25 L 36.86,38.02 A 0.14,0.14 0 0,0 37.02,37.98 A 0.15,0.15 0 0,0 37.05,37.92 C 37.05,37.9 37.05,37.88 37.03,37.85 A 95.86,95.86 0 0,1 33.77,31.82 L 33.76,31.8 A 0.06,0.06 0 0,0 33.71,31.8 H 33.69 C 33.37,32.01 33.12,32.2 32.91,32.36 A 149.3,149.3 0 0,1 29.16,35.3 A 15.96,15.96 0 0,0 28.03,36.22 C 27.63,36.52 27.19,36.88 26.88,37.27 A 0.05,0.05 0 0,0 26.88,37.33 A 0.05,0.05 0 0,0 26.93,37.35 Z M 34.6,32.8 L 37.14,37.52 A 0.1,0.1 0 0,0 37.2,37.57 A 0.1,0.1 0 0,0 37.28,37.55 C 37.31,37.53 37.33,37.5 37.33,37.47 L 37.36,35.62 A 0.6,0.6 0 0,0 37.19,35.17 L 34.69,32.73 A 0.05,0.05 0 0,0 34.61,32.73 A 0.06,0.06 0 0,0 34.6,32.8 Z M 32.9,40.98 L 32.89,41.02 A 0.06,0.06 0 0,0 32.94,41.07 H 32.98 L 34.48,40.07 C 35.22,39.58 35.95,39.09 36.71,38.65 A 0.94,0.94 0 0,0 36.96,38.38 A 0.03,0.03 0 0,0 36.96,38.36 H 36.95 L 35.13,37.63 A 0.16,0.16 0 0,0 34.97,37.65 A 0.17,0.17 0 0,0 34.9,37.79 C 34.9,38.12 34.85,38.45 34.76,38.79 C 34.73,38.92 34.6,39.1 34.39,39.33 L 33.02,40.79 L 32.9,40.98 Z M 36.53,39.21 A 0.04,0.04 0 0,0 36.53,39.16 L 36.51,39.15 H 36.48 L 31.94,42.02 A 0.04,0.04 0 0,0 31.92,42.04 V 42.07 L 32.87,43.64 L 32.88,43.66 H 32.92 L 32.93,43.65 L 36.53,39.21 Z M 28.33,43.61 A 0.08,0.08 0 0,0 28.33,43.69 A 0.08,0.08 0 0,0 28.4,43.73 H 32.48 L 32.52,43.72 L 32.55,43.69 A 0.08,0.08 0 0,0 32.55,43.6 L 31.57,42.17 A 0.08,0.08 0 0,0 31.53,42.14 L 29.8,41.34 H 29.74 A 0.08,0.08 0 0,0 29.69,41.38 L 28.33,43.6 Z M 21.66,18.66 C 21.7,18.78 21.67,18.88 21.56,18.96 C 20.46,19.81 19.59,20.53 18.96,21.13 C 18.89,21.2 18.71,21.22 18.43,21.19 L 17.56,21.11 A 0.5,0.5 0 0,0 17.32,21.15 L 15.92,21.69 A 0.65,0.65 0 0,1 15.52,21.72 A 0.08,0.08 0 0,1 15.48,21.7 A 0.09,0.09 0 0,1 15.46,21.61 L 15.48,21.57 L 16.86,20.27 A 0.3,0.3 0 0,1 17.04,20.19 C 17.54,20.14 18.02,20.09 18.47,20.02 C 18.59,20.01 18.73,19.96 18.9,19.88 A 329.5,329.5 0 0,0 21.62,18.62 A 0.07,0.07 0 0,1 21.66,18.66 Z M 16.42,21.22 L 17.35,20.86 A 0.61,0.61 0 0,1 17.53,20.82 C 17.74,20.81 18.08,20.82 18.56,20.85 C 18.76,20.87 18.91,20.82 19.01,20.72 A 14.41,14.41 0 0,1 20.23,19.6 L 20.22,19.56 A 0.06,0.06 0 0,0 20.14,19.54 L 18.88,20.19 C 18.77,20.25 18.65,20.29 18.53,20.3 L 17.23,20.45 A 0.41,0.41 0 0,0 17,20.56 L 16.38,21.15 L 16.36,21.17 V 21.2 L 16.39,21.22 H 16.42 Z" fill="rgb(254, 254, 253)"/>
<path d="M 12.43,23.955 C 12.46,24 12.48,24.01 12.51,24.02 C 12.75,24.09 13.27,24.07 14.01,24.04 L 14.91,24.01 C 15.3,24.01 15.57,24.07 15.91,24.24 L 17.13,24.84 A 0.34,0.34 0 0,0 17.39,24.85 A 354.44,354.44 0 0,0 22.15,23.01 A 0.15,0.15 0 0,0 22.18,22.95 V 22.89 A 0.18,0.18 0 0,0 22.16,22.82 C 22.14,22.79 22.11,22.78 22.06,22.78 C 21.85,22.78 21.64,22.81 21.44,22.86 C 21.07,22.96 20.83,22.96 20.51,22.96 H 20.21 L 19.59,23.03 C 18.55,23.17 17.85,23.24 17.49,23.24 C 17.1,23.24 16.69,23.1 16.03,22.89 L 15.43,22.7 A 0.58,0.58 0 0,0 15.04,22.72 L 12.5,23.77 A 0.13,0.13 0 0,0 12.44,23.82 A 0.14,0.14 0 0,0 12.44,23.97 Z M 14.06,23.75 A 0.88,0.88 0 0,1 13.56,23.62 L 13.54,23.6 A 0.04,0.04 0 0,1 13.55,23.56 L 13.57,23.55 C 14.01,23.45 14.48,23.3 15.01,23.05 C 15.12,23.01 15.29,23.01 15.51,23.05 L 17.1,23.51 C 17.2,23.53 17.36,23.54 17.6,23.52 C 18.43,23.46 19.27,23.36 20.1,23.22 C 20.24,23.2 20.38,23.22 20.52,23.27 A 0.07,0.07 0 0,1 20.57,23.34 C 20.57,23.35 20.57,23.37 20.55,23.38 L 20.52,23.4 L 20.22,23.45 C 20.02,23.47 19.92,23.53 19.8,23.61 C 19.73,23.65 19.66,23.7 19.56,23.73 C 19.09,23.91 18.35,24.18 17.34,24.53 A 0.14,0.14 0 0,1 17.24,24.53 L 15.78,23.86 A 1.21,1.21 0 0,0 15.27,23.76 H 14.06 Z M 8.86,28.07 A 0.1,0.1 0 0,1 8.74,28.04 A 0.12,0.12 0 0,1 8.73,27.91 C 8.89,27.63 9.13,27.45 9.37,27.28 L 9.68,27.05 C 10.02,26.76 10.6,26.29 11.42,25.65 A 0.32,0.32 0 0,1 11.65,25.57 L 12.81,25.65 C 12.88,25.65 12.95,25.65 13.03,25.63 A 9.49,9.49 0 0,0 14.93,25.03 L 14.98,25.06 A 0.1,0.1 0 0,1 15.02,25.14 C 15,25.3 14.94,25.42 14.82,25.49 C 14.48,25.73 14.12,26.02 13.73,26.37 C 13.37,26.71 12.9,26.71 12.43,26.71 L 12.03,26.72 A 0.52,0.52 0 0,0 11.85,26.76 L 8.86,28.06 Z M 9.92,27.35 L 11.7,26.48 C 11.8,26.43 11.92,26.4 12.03,26.39 L 13.13,26.35 C 13.19,26.35 13.23,26.34 13.28,26.32 C 13.54,26.2 13.75,26.02 13.91,25.76 A 0.07,0.07 0 0,0 13.9,25.68 A 0.06,0.06 0 0,0 13.82,25.67 C 13.1,26.09 12.59,25.99 11.77,25.84 A 0.2,0.2 0 0,0 11.63,25.87 C 11.18,26.17 10.69,26.53 10.15,26.96 C 9.96,27.1 9.86,27.21 9.85,27.29 A 0.06,0.06 0 0,0 9.87,27.34 A 0.05,0.05 0 0,0 9.92,27.34 Z M 14.82,27.95 A 0.16,0.16 0 0,0 14.72,27.95 L 12.25,28.87 C 12.15,28.9 12.04,28.91 11.94,28.9 L 10.36,28.72 A 0.75,0.75 0 0,0 9.76,28.9 C 8.38,30.08 7.17,31.09 6.14,31.92 C 6.04,32 5.99,32.09 6,32.18 A 0.14,0.14 0 0,0 6.07,32.28 A 0.13,0.13 0 0,0 6.19,32.28 L 10.44,30.33 A 0.3,0.3 0 0,1 10.52,30.31 L 12.54,30.13 A 0.55,0.55 0 0,0 12.85,30 L 14.88,28.24 A 0.17,0.17 0 0,0 14.91,28.03 A 0.17,0.17 0 0,0 14.82,27.95 Z M 12.32,29.14 L 13.76,28.6 H 13.79 L 13.81,28.62 A 0.04,0.04 0 0,1 13.81,28.67 L 13.57,28.95 C 13.27,29.17 13.01,29.39 12.78,29.61 C 12.65,29.73 12.48,29.81 12.31,29.81 L 10.51,29.91 C 10.46,29.92 10.41,29.93 10.37,29.96 L 7.33,31.55 A 0.08,0.08 0 0,1 7.24,31.54 A 0.09,0.09 0 0,1 7.22,31.45 C 7.23,31.39 7.26,31.35 7.3,31.31 C 7.55,31.08 8.4,30.38 9.83,29.21 A 0.71,0.71 0 0,1 10.36,29.04 C 10.73,29.08 11.28,29.13 12.01,29.18 C 12.11,29.18 12.23,29.18 12.33,29.14 Z" fill="rgb(254, 254, 253)"/>
</svg>
