<?xml version="1.0" encoding="UTF-8"?>
<!-- generated by Finnhub -->
<svg viewBox="0 0 55.5 55.5" xmlns="http://www.w3.org/2000/svg">
<path d="M 0,0 H 55.5 V 55.5 H 0 Z" fill="rgb(1, 89, 149)"/>
<path d="M 27.116999999999997,26.999 C 27.043,28.034 25.923,28.041 25.373,27.916 C 24.954,28.306 24.805,29.125 24.783,29.486 C 24.667,31.372 26.752,32.026 27.808,32.117 V 33.67 C 25.443,35.199 26.875,36.76 27.886,37.35 V 38.695 C 25.797,40.005 27.094,41.335 28.003,41.837 V 42.937 C 26.485,43.955 27.371,44.918 28.003,45.272 V 46 C 25.402,45.024 26.314,43.306 27.095,42.57 C 24.516,40.765 25.791,38.863 26.75,38.138 C 24.205,36.533 25.199,34.268 26.014,33.336 C 24.938,33.002 22.831,31.766 23.014,29.486 C 23.197,27.205 24.716,26.234 25.452,26.034 C 26.045,25.936 27.21,25.994 27.127,27.014 Z" fill="rgb(254, 254, 253)"/>
<path d="M 28.866999999999997,26.999 C 28.96,28.034 30.081,28.041 30.631,27.916 C 31.049,28.306 31.198,29.125 31.22,29.486 C 31.336,31.372 29.252,32.026 28.195,32.117 V 33.67 C 30.56,35.199 29.128,36.76 28.117,37.35 V 38.695 C 30.206,40.005 28.909,41.335 28,41.837 V 42.937 C 29.518,43.955 28.632,44.918 28,45.272 V 46 C 30.601,45.024 29.689,43.306 28.908,42.57 C 31.487,40.765 30.212,38.863 29.253,38.138 C 31.798,36.533 30.804,34.268 29.989,33.336 C 31.065,33.002 33.172,31.766 32.989,29.486 C 32.806,27.205 31.287,26.234 30.551,26.034 C 29.958,25.936 28.793,25.994 28.877,27.014 Z" fill="rgb(254, 254, 253)"/>
<path d="M 22.886999999999997,16.985 C 24.08,17 26.087,18.66 26.894,19.572 L 26.732,17.5 L 28.112,17.125 L 29.22,17.5 L 29.014,19.572 C 29.92,18.711 31.844,17 32.974,17 S 34.816,17.5 36.277,17.5 H 48 L 46.753,18.533 L 35.803,18.373 C 35.265,18.373 34.392,18.192 32.974,18.046 C 31.557,17.9 29.693,19.708 28.891,20.701 V 21.655 C 30.621,19.662 32.276,19.312 33.165,19.312 C 33.877,19.312 34.921,19.624 35.995,19.624 L 44.903,19.74 L 43.093,21 C 40.921,21.074 36.274,21.222 35.063,21.222 C 33.853,21.222 33.293,20.652 33.165,20.367 L 32.974,20.57 C 33.399,21.81 34.287,22 34.909,22 H 41.452 L 39.425,23.304 H 34.723 C 34.143,23.308 33.837,23.304 33.571,23.01 L 33.442,23.175 C 33.78,24.148 34.372,24.57 35.063,24.57 H 37.859 L 34.524,26.839 C 32.804,23.608 29.937,23.837 28.671,24.427 L 28.253,47.518 C 28.263,47.668 28.227,47.981 28.005,48 C 27.781,48.02 27.718,47.684 27.714,47.518 L 27.279,24.428 C 23.683,23.285 21.699,25.606 21.204,26.838 L 18.047,24.645 C 18.674,24.678 20.091,24.645 20.768,24.645 C 21.451,24.645 22.298,23.991 22.298,23.092 L 22.161,23 C 21.681,23.304 21.234,23.308 20.982,23.308 H 16.354 L 14.339,22 H 20.983 C 21.877,22 22.622,21.091 22.897,20.576 L 22.605,20.421 C 22.171,20.985 21.343,21.157 20.983,21.172 L 12.673,20.993 L 10.873,19.715 L 19.69,19.625 C 20.233,19.625 21.233,19.437 22.676,19.312 C 24.12,19.187 26.215,20.774 27.034,21.655 V 20.7 C 24.701,18.168 23.625,18.045 22.897,18.045 C 22.107,18.045 20.695,18.373 19.788,18.373 L 8.98,18.516 L 8,17.43 H 19.788 C 20.531,17.43 21.588,17 22.897,17 Z" fill="rgb(254, 254, 253)"/>
<path d="M 29.99,15.986999999999998 A 2,2 0 1,1 26,16.002 A 2,2 0 0,1 30,16.002 Z" fill="rgb(254, 254, 253)"/>
</svg>
