<?xml version="1.0" encoding="UTF-8"?>
<!-- generated by Finnhub -->
<svg viewBox="0 0 55.5 55.5" xmlns="http://www.w3.org/2000/svg">
<path d="M 0,0 H 55.5 V 55.5 H 0 Z" fill="rgb(239, 242, 248)"/>
<path d="M 44.49,27.985 H 43 V 21 H 44.5 V 28 Z M 44.21,24.32 H 43.79 C 43.79,22.89 44.43,21 46.12,21 C 47.58,21 48,22.34 48,23.6 V 28 H 46.5 V 23.58 C 46.5,22.9 46.3,22.33 45.55,22.33 C 44.54,22.33 44.21,23.49 44.21,24.32 Z M 40,23.33 C 40,22.64 39.62,22.21 38.93,22.21 C 38.39,22.21 37.83,22.39 37.83,23 H 36.15 C 36.15,21.54 37.8,21 39.03,21 C 40.47,21 41.5,21.8 41.5,23.34 V 28 H 40 V 23.33 Z M 40.28,23.76 L 40.3,24.74 H 39.24 C 38.98,24.74 38.74,24.77 38.54,24.82 C 38.04,24.95 37.5,25.32 37.5,25.85 C 37.5,26.41 38.14,26.73 38.67,26.73 C 39.27,26.73 40.11,26.33 40.15,25.63 L 40.63,26.35 A 2.37,2.37 0 0,1 38.33,28 C 37.16,28 36,27.24 36,25.98 C 36,24.26 37.71,23.76 39.16,23.76 H 40.28 Z M 33.52,21 H 35 V 27.3 C 35,29.08 33.52,30 31.87,30 C 30.99,30 29.97,29.69 29.4,28.98 L 30.13,28.06 C 30.58,28.56 31.14,28.81 31.79,28.81 C 32.7,28.81 33.5,28.25 33.5,27.31 L 33.52,21 Z M 29,24.38 V 24.26 C 29,22.63 29.88,21 31.69,21 C 33.5,21 34.09,22.62 34.29,24.16 V 24.5 C 34.09,26 33.42,27.6 31.68,27.6 C 29.91,27.6 29,25.98 29,24.38 Z M 30.5,24.26 V 24.38 C 30.5,25.29 31.01,26.37 32.08,26.37 C 33.03,26.37 33.53,25.69 33.63,24.8 V 23.87 C 33.55,23.01 33.06,22.24 32.1,22.24 C 31.01,22.24 30.5,23.34 30.5,24.26 Z M 26.5,28 H 25 V 21 H 26.53 L 26.5,28 Z M 29,21.08 L 28.97,22.65 A 3.34,3.34 0 0,0 28.29,22.59 C 27.33,22.59 26.38,23.14 26.34,24.12 L 25.95,24.07 C 25.95,22.72 26.82,21 28.41,21 A 2.14,2.14 0 0,1 29,21.08 Z M 18,24.57 V 24.44 C 18,22.64 19.07,21 21,21 S 24,22.64 24,24.44 V 24.57 C 24,26.37 22.93,28 21,28 S 18,26.37 18,24.57 Z M 19.5,24.44 V 24.57 C 19.5,25.5 19.87,26.7 21,26.7 S 22.5,25.49 22.5,24.57 V 24.44 C 22.5,23.52 22.11,22.3 21,22.3 C 19.88,22.3 19.5,23.53 19.5,24.44 Z M 8.71,19 H 10.13 L 12.5,25.77 L 14.86,19 H 16.29 L 13.07,28 H 11.93 L 8.7,19 Z M 8,19 H 9.5 V 28 H 8 V 19 Z M 15.6,19 H 17 V 28 H 15.5 V 25.22 L 15.6,19 Z M 39.5,41 H 38 V 32 H 39.5 V 41 Z M 44,35.26 V 35.39 C 44,39.52 39.27,39.49 38.71,35.57 V 35.17 C 38.91,33.65 39.59,32 41.36,32 C 43.2,32 44,33.62 44,35.26 Z M 42.5,35.39 V 35.26 C 42.5,34.35 42.01,33.25 40.92,33.25 C 39.94,33.25 39.34,33.98 39.26,34.88 V 35.87 C 39.37,36.73 40,37.42 40.94,37.42 C 42.04,37.42 42.5,36.29 42.5,35.39 Z M 35.5,32 H 37 V 39 H 35.48 L 35.5,32 Z M 35.5,35.82 L 36.04,35.8 C 36.04,37.48 35.19,39 33.34,39 C 31.8,39 31,37.93 31,36.44 V 32 H 32.5 V 36.45 C 32.5,37.15 33.08,37.66 33.81,37.66 C 34.93,37.66 35.5,36.88 35.5,35.82 Z M 24,35.57 V 35.44 C 24,33.69 25.07,32 27,32 S 30,33.64 30,35.44 V 35.57 C 30,37.37 28.93,39 27,39 S 24,37.37 24,35.57 Z M 25.5,35.44 V 35.57 C 25.5,36.5 25.87,37.7 27,37.7 S 28.5,36.49 28.5,35.57 V 35.44 C 28.5,34.52 28.11,33.3 27,33.3 C 25.89,33.3 25.5,34.54 25.5,35.44 Z M 21.5,39 H 20 V 32 H 21.5 V 39 Z M 24,32.08 L 23.97,33.65 A 3.34,3.34 0 0,0 23.29,33.59 C 22.33,33.59 21.38,34.14 21.34,35.12 L 20.95,35.07 C 20.95,33.72 21.79,32 23.41,32 A 2.14,2.14 0 0,1 24,32.08 Z M 19,34 V 37.76 C 18.25,38.72 16.87,39 15.73,39 C 13.32,39 12,37.05 12,34.8 V 34.21 C 12,32 13.2,30 15.6,30 C 17.41,30 18.78,31.16 19,33 H 17.5 C 17.36,32.04 16.62,31.3 15.64,31.3 C 14.08,31.3 13.5,32.92 13.5,34.2 V 34.8 C 13.5,36.18 14.2,37.7 15.81,37.7 C 16.35,37.7 17.11,37.62 17.5,37.2 V 35.5 H 16 V 34 H 19 Z" fill="rgb(225, 24, 42)"/>
</svg>
