<?xml version="1.0" encoding="UTF-8"?>
<!-- generated by Finnhub -->
<svg viewBox="0 0 55.5 55.5" xmlns="http://www.w3.org/2000/svg">
<path d="M 0,0 H 55.5 V 55.5 H 0 Z" fill="rgb(239, 242, 248)"/>
<path d="M 18.99,29.985 V 34 H 20 V 31.14 L 20.56,34 H 21.5 L 22,31.43 V 34 H 23 V 30 H 21.56 L 21.03,32.71 L 20.5,30 H 19 Z M 37.68,30 C 38.83,30 39.28,30.69 39.37,31.03 L 38.24,31.27 A 0.73,0.73 0 0,0 37.56,30.79 C 37.24,30.79 36.68,31.03 36.68,31.94 C 36.68,32.84 37.24,33.09 37.56,33.09 C 37.81,33.09 38.2,32.89 38.36,32.79 V 32.49 H 37.62 V 31.69 H 39.49 V 33.27 C 39.31,33.52 38.66,34 37.56,34 C 36.18,34 35.49,32.79 35.49,31.94 C 35.49,31.09 36.24,30 37.69,30 Z M 50.88,31.03 C 50.79,30.69 50.34,30 49.18,30 C 47.75,30 47,31.1 47,31.94 C 47,32.79 47.69,34 49.06,34 C 50.16,34 50.79,33.5 51,32.9 L 50.05,32.5 C 49.95,32.7 49.63,33.1 49.06,33.1 C 48.75,33.1 48.19,32.85 48.19,31.94 C 48.19,31.03 48.75,30.79 49.06,30.79 C 49.37,30.79 49.62,30.97 49.75,31.27 L 50.88,31.03 Z M 26,30 H 26.98 L 28,32.02 V 30 H 29 V 34 H 28.07 L 27,31.94 V 34 H 26 V 30 Z M 32,30 H 32.98 L 34,32.02 V 30 H 35 V 34 H 34.07 L 33,31.94 V 34 H 32 V 30 Z M 43,30 H 43.98 L 45,32.02 V 30 H 46 V 34 H 45.07 L 44,31.94 V 34 H 43 V 30 Z" fill="rgb(11, 34, 61)"/>
<path d="M 3.99,33.985 H 8 V 30.55 H 10.08 L 11.38,34 H 12.61 L 16,25 V 34 H 18 V 23 H 14.97 L 12.04,30.6 L 9.2,23 H 6 V 29.42 L 4,31.16 V 34 Z M 9.88,30 H 8 V 28.55 H 9.33 L 9.88,30 Z M 9.13,28 L 8,25 V 28 H 9.13 Z M 19,23 H 21.63 L 22.55,27.07 L 23.47,23 H 26 V 29 H 24.25 V 25.14 L 23.38,29 H 21.72 L 20.75,24.71 V 29 H 19 V 23 Z M 29.06,23 H 30.94 L 33,29 H 31.2 L 30.95,28.1 H 29.05 L 28.79,29 H 27 L 29.06,23 Z M 30.59,26.82 L 30,24.74 L 29.41,26.82 H 30.59 Z M 48.51,23 H 48.06 L 46,29 H 47.8 L 48.05,28.1 H 49.95 L 50.21,29 H 52 L 49.94,23 H 48.51 Z M 49,24.74 L 49.59,26.82 H 48.41 L 49,24.74 Z M 36.28,23 C 38.01,23 38.68,24.03 38.81,24.55 L 37.12,24.91 A 1.1,1.1 0 0,0 36.09,24.18 C 35.62,24.18 34.79,24.55 34.79,25.91 C 34.79,27.27 35.63,27.64 36.09,27.64 C 36.47,27.64 37.06,27.34 37.31,27.18 V 26.73 H 36.2 V 25.55 H 39 V 27.91 C 38.72,28.27 37.74,29 36.1,29 C 34.03,29 33,27.18 33,25.9 C 33,24.64 34.13,23 36.28,23 Z M 41.55,23 H 40 V 29 H 41.55 V 25.9 L 43.45,29 H 45 V 23 H 43.45 V 26.13 L 41.55,23.08 V 23 Z" fill="url(#a)"/>
<path d="M 8.290000000000001,33.985 H 4 V 31.02 L 6,29.28 V 23 H 9.41 L 12.05,29.76 L 14.77,23 H 18 V 34 H 15.7 V 26.65 L 12.82,34 H 11.17 L 9.87,30.85 H 8.3 V 34 Z M 10.08,30.55 L 11.38,33.7 H 12.61 L 16,25 V 33.7 H 17.7 V 23.3 H 14.97 L 12.04,30.6 L 9.2,23.3 H 6.3 V 29.42 L 4.3,31.16 V 33.7 H 8 V 30.55 H 10.08 Z M 18.7,23 H 21.86 L 22.55,25.72 L 23.23,23 H 26.3 V 29 H 23.95 V 27.82 L 23.61,29 H 21.48 L 21.05,27.4 V 29 H 18.7 V 23 Z M 20.75,24.71 L 21.72,28.7 H 23.38 L 24.25,25.14 V 28.7 H 26 V 23.3 H 23.47 L 22.55,27.07 L 21.62,23.3 H 19 V 28.7 H 20.75 V 24.71 Z M 28.85,23 H 31.15 L 33,29 H 30.98 L 30.72,28.4 H 29.28 L 29.02,29 H 27 L 28.85,23 Z M 29.05,28.1 H 30.95 L 31.21,28.7 H 32.58 L 30.94,23.3 H 29.06 L 27.42,28.7 H 28.79 L 29.05,28.1 Z M 47.85,23 H 50.15 L 52,29 H 49.98 L 49.72,28.4 H 48.28 L 48.02,29 H 46 L 47.85,23 Z M 48.05,28.1 H 49.95 L 50.21,28.7 H 51.58 L 49.94,23.3 H 48.06 L 46.42,28.7 H 47.79 L 48.05,28.1 Z M 39.18,24.78 L 38.88,24.84 L 37.2,25.2 L 37.01,25.25 H 39.3 V 28 L 39.24,28.08 C 38.89,28.53 37.83,28.99 36.09,28.99 C 34.23,28.99 33,27.9 33,25.89 C 33,24.47 33.95,22.99 36.28,22.99 C 38.15,22.99 38.95,23.82 39.1,24.46 L 39.18,24.76 Z M 36.94,25.25 L 36.84,25.02 C 36.7,24.67 36.43,24.48 36.09,24.48 A 0.93,0.93 0 0,0 35.47,24.75 C 35.27,24.95 35.08,25.29 35.08,25.91 C 35.08,26.53 35.27,26.87 35.48,27.07 C 35.68,27.27 35.93,27.34 36.09,27.34 C 36.22,27.34 36.41,27.28 36.63,27.19 L 36.98,27.03 H 35.88 V 25.25 H 36.94 Z M 37.31,27.18 C 37.06,27.33 36.47,27.64 36.09,27.64 C 35.62,27.64 34.79,27.27 34.79,25.91 C 34.79,24.55 35.63,24.18 36.09,24.18 C 36.56,24.18 36.94,24.45 37.12,24.91 A 71,71 0 0,1 38.82,24.55 A 1.38,1.38 0 0,0 38.71,24.26 C 38.44,23.72 37.73,23.3 36.28,23.3 C 34.12,23.3 33.3,24.64 33.3,25.9 C 33.3,27.18 34.03,28.7 36.1,28.7 C 37.74,28.7 38.72,28.27 39,27.9 V 25.55 H 36.19 V 26.73 H 37.31 V 27.18 Z M 41.85,23 H 40 V 29 H 41.85 V 26.97 L 43.28,29 H 45 V 23 H 43.15 V 25.08 L 41.85,23 Z M 43.45,26.13 L 41.55,23.3 H 40.3 V 28.7 H 41.55 V 25.9 L 43.45,28.7 H 44.7 V 23.3 H 43.45 V 26.13 Z M 9.88,30 L 9.33,28.55 H 8 V 30 H 9.88 Z M 8.3,28.85 V 29.7 H 9.44 L 9.12,28.85 H 8.3 Z M 8,25 V 28 H 9.13 L 8,25 Z M 8.3,26.65 V 27.7 H 8.7 L 8.3,26.65 Z M 30,24.74 L 29.41,26.82 H 30.59 L 30,24.74 Z M 30,25.84 L 29.8,26.52 H 30.2 L 30,25.84 Z M 49,24.74 L 48.41,26.82 H 49.59 L 49,24.74 Z M 49,25.84 L 48.8,26.52 H 49.2 L 49,25.84 Z" fill-rule="evenodd"/>
<path d="M 23.99,29.985 H 25 V 34 H 24 Z M 30,30 H 31 V 34 H 30 Z M 41,30 H 42 V 34 H 41 Z M 51,33 H 52 V 34 H 51 Z" fill="rgb(11, 34, 61)"/>
<defs>
<linearGradient id="a" x1="27.83" x2="27.83" y1="23" y2="34" gradientUnits="userSpaceOnUse">
<stop stop-color="rgb(196, 197, 198)" offset="0"/>
<stop stop-color="rgb(128, 129, 131)" offset=".16"/>
<stop stop-color="rgb(158, 160, 162)" offset=".38"/>
<stop stop-color="rgb(93, 94, 95)" offset=".59"/>
<stop stop-color="rgb(195, 196, 197)" offset=".76"/>
<stop stop-color="rgb(128, 129, 131)" offset=".95"/>
</linearGradient>
</defs>
</svg>
