<?xml version="1.0" encoding="UTF-8"?>
<!-- generated by Finnhub -->
<svg viewBox="0 0 55.5 55.5" xmlns="http://www.w3.org/2000/svg">
<path d="M 0,0 H 55.5 V 55.5 H 0 Z" fill="rgb(2, 85, 65)"/>
<path d="M 48.752,28.732 L 12,44.561 V 12.249 L 11,11.495 V 46 L 49.443,29.059 L 48.762,28.747 Z" fill="rgb(254, 254, 253)"/>
<path d="M 12.99,9.985 V 43.26 L 50,27.004 L 13,10 Z M 19.976,30 L 19.543,28.623 H 17.067 L 16.633,30 H 14.9 L 17.376,23 H 19.481 L 22.088,30 H 19.976 Z M 30.252,30 H 28.767 V 24.637 L 27.28,30 H 25.732 L 24.37,24.637 V 30 H 22.885 V 23 H 25.67 L 26.723,28 L 27.713,23 H 30.375 L 30.251,30 Z M 34.586,29.993 C 32.5,30 31.49,28.17 31.49,26.24 S 32.667,23 34.586,23 C 36.071,22.938 37.681,23.187 37.681,24.993 H 35.948 C 35.886,24.37 35.39,24.183 34.833,24.183 C 33.657,24.183 33.223,25.243 33.223,26.239 C 33.223,27.484 33.813,28.809 35.081,28.809 C 35.391,28.809 35.691,28.747 36,28.685 V 27.502 H 34.648 V 26.318 H 37.619 V 29.682 C 36.381,29.869 36.133,29.993 34.586,29.993 Z" fill="rgb(254, 254, 253)"/>
<path d="M 18.294999999999998,24.808 L 17.5,27.44 H 19.172 L 18.367,24.824 H 18.305 Z" fill="rgb(254, 254, 253)"/>
</svg>
