<?xml version="1.0" encoding="UTF-8"?>
<!-- generated by Finnhub -->
<svg viewBox="0 0 55.5 55.5" xmlns="http://www.w3.org/2000/svg">
<path d="M 0,0 H 55.5 V 55.5 H 0 Z" fill="rgb(239, 242, 248)"/>
<path d="M 46.421,39.985 H 9 V 39.655 L 47.967,25.33 V 38.265 C 47.967,39.621 46.943,39.987 46.431,40 Z" fill="rgb(180, 10, 9)"/>
<path d="M 7.9990000000000006,17.352 V 39.287 L 48,24.692 V 17.67 C 48,16.186 46.687,15.945 46.031,16.01 H 9.711 C 8.198,16.01 7.946,16.915 8.009,17.367 Z" fill="rgb(52, 11, 111)"/>
<path d="M 43.796,33.1 L 42.498,29.569 C 42.733,29.237 43.25,29.023 43.478,28.958 C 43.856,28.848 44.718,28.798 45.146,29.471 C 45.604,30.191 45.495,30.889 45.146,31.293 C 44.868,31.615 44.361,31.683 44.143,31.675 L 44.557,32.81 L 43.806,33.115 Z M 41.725,32.853 L 40.69,30.311 C 41.247,29.647 41.99,29.554 42.291,29.591 C 42.317,29.787 42.368,30.191 42.368,30.234 C 41.74,30.348 41.598,30.558 41.605,30.649 L 42.368,32.526 L 41.725,32.853 Z M 32.94,33.246 L 32.651,32.546 L 33.166,32.282 L 33.49,32.943 L 34.427,32.545 C 34.69,30.166 36.74,30.492 36.92,30.537 C 37.1,30.582 37.176,30.627 37.266,30.867 C 37.338,31.06 37.156,31.209 37.056,31.259 C 36.726,31.199 35.419,31.139 35.336,32.372 C 35.27,33.358 35.974,33.779 36.335,33.866 C 36.841,33.962 38.032,33.694 38.032,32.372 C 38.032,30.659 39.17,30.537 39.549,30.537 C 40.119,30.537 40.96,30.97 40.96,32.161 C 40.96,33.349 40.134,33.621 39.549,33.621 C 39.163,33.621 38.693,33.428 38.497,33.246 C 38.047,34.076 37.627,34.632 36.47,34.632 C 35.457,34.632 34.751,33.668 34.523,33.132 L 33.693,33.53 C 33.801,33.796 33.98,34.218 34.097,34.453 C 34.243,34.746 34.344,34.925 34.523,34.925 C 34.666,34.925 34.864,34.729 34.946,34.632 L 35.336,35.12 C 35.19,35.202 34.87,35.428 34.427,35.545 C 33.985,35.663 33.757,35.3 33.693,35.12 L 33.061,33.77 L 32.814,33.866 L 32.651,33.442 L 32.941,33.246 Z M 31.17,36.685 L 30.178,34.143 C 30.368,34.023 30.897,33.784 31.431,33.523 C 31.935,33.277 32.423,33.523 32.553,33.784 L 33.481,35.724 L 32.7,36.066 L 31.935,34.42 C 31.662,34.002 31.311,34.246 31.17,34.42 L 31.935,36.375 L 31.17,36.685 Z M 41.016,27.244 L 38.966,21.824 L 40.161,21.317 L 41.141,23.696 L 43.455,22.791 L 42.566,20.458 L 43.762,19.982 L 45.857,25.478 L 44.694,25.901 L 43.762,23.696 L 41.387,24.616 L 42.277,26.782 L 41.017,27.244 Z M 38.445,21.916 L 33.955,23.634 L 34.369,24.617 L 35.932,24.003 L 37.644,28.474 L 38.87,28.026 L 37.143,23.542 L 38.859,22.929 L 38.445,21.916 Z M 31.335,24.602 L 31.235,30.812 L 32.368,30.398 V 28.95 L 34.63,28.129 L 35.531,29.242 L 36.631,28.843 L 32.481,24.135 L 31.335,24.602 Z M 26.907,32.39 L 24.91,26.96 L 26.753,26.155 C 27.479,25.9 29.04,25.705 29.483,26.96 C 29.927,28.215 29.299,28.964 28.929,29.181 L 31.211,30.82 L 30.068,31.24 L 28.084,29.64 L 27.335,29.93 L 28.101,31.954 L 26.907,32.39 Z M 25.437,38.803 L 24.035,35.043 L 25.33,34.486 C 25.84,34.31 26.879,34.176 27.19,35.042 C 27.502,35.91 27.118,36.427 26.859,36.577 L 28.455,37.7 L 27.657,38.007 L 26.265,36.935 L 25.739,37.095 L 26.265,38.487 L 25.437,38.803 Z M 10.208,32.336 L 12.184,37.762 L 13.304,37.363 L 11.896,33.586 L 14.754,36.057 L 15.514,35.751 L 16.062,32.134 L 17.437,35.846 L 18.472,35.484 L 16.319,30.039 L 15.204,30.406 L 14.674,34.728 L 11.249,31.902 L 10.208,32.336 Z M 17.887,30.206 C 18.315,29.778 19.007,29.849 19.3,29.939 C 19.3,30.129 19.274,30.512 19.167,30.512 C 19.033,30.512 18.307,30.532 18.25,31.162 C 18.204,31.668 18.562,31.871 18.746,31.909 C 19.084,32.049 19.778,32.012 19.854,30.742 C 19.95,29.154 20.714,28.58 21.631,28.025 C 22.364,27.581 23.427,27.573 23.866,27.624 C 24.038,27.655 24.382,27.811 24.382,28.178 C 24.382,28.546 24.216,28.714 24.133,28.752 C 21.841,28.58 21.287,29.518 21.268,30.742 C 21.248,31.966 22.185,32.98 23.178,32.885 C 23.973,32.808 24.554,32.33 24.745,32.1 L 24.382,31.259 L 23.542,31.603 L 23.178,30.742 L 25.088,29.939 L 26.063,32.33 C 25.496,32.713 24.541,33.247 24.135,33.404 C 21.632,34.37 20.516,32.891 20.083,31.909 C 19.778,32.521 19.128,32.699 18.842,32.713 C 17.635,32.667 17.384,31.724 17.409,31.259 C 17.39,31.086 17.459,30.635 17.887,30.206 Z" fill="rgb(254, 254, 253)"/>
<path d="M 25.453,36.473 L 24.977,35.298 C 25.36,35.061 26.178,34.753 26.388,35.413 C 26.598,36.073 25.859,36.405 25.463,36.488 Z" fill="rgb(180, 10, 9)"/>
<path d="M 30.215999999999998,35.509 L 28.604,36.284 C 28.604,36.444 28.722,36.762 29.194,36.762 C 29.665,36.762 29.995,36.368 30.101,36.172 L 30.555,36.489 C 30.475,36.875 29.715,37.375 29.114,37.387 C 28.634,37.396 28.218,37.065 28.07,36.898 C 27.674,36.326 27.3,35.171 28.377,34.626 C 29.517,34.049 30.108,35.039 30.226,35.524 Z" fill="rgb(254, 254, 253)"/>
<path d="M 32.330000000000005,28.029 V 25.352 L 34.065,27.364 L 32.34,28.044 Z M 27.086,28.986 L 26.393,27.266 C 26.938,26.923 28.103,26.476 28.403,27.432 C 28.702,28.387 27.649,28.866 27.086,28.987 Z" fill="rgb(52, 11, 111)"/>
<path d="M 29.467,35.327 L 28.433,35.83 C 28.343,35.694 28.206,35.342 28.649,35.092 C 29.131,34.819 29.416,35.175 29.477,35.342 Z" fill="rgb(180, 10, 9)"/>
<ellipse transform="rotate(-21.086 106.01 -90.068) skewX(-.058)" rx=".589" ry=".917" fill="rgb(180, 10, 9)"/>
<ellipse transform="rotate(-21.086 103.46 -103.24) skewX(-.058)" rx=".589" ry=".83" fill="rgb(180, 10, 9)"/>
</svg>
