<?xml version="1.0" encoding="UTF-8"?>
<!-- generated by Finnhub -->
<svg viewBox="0 0 55.5 55.5" xmlns="http://www.w3.org/2000/svg">
<path d="M 0,0 H 55.5 V 55.5 H 0 Z" fill="rgb(239, 242, 248)"/>
<path d="M 27.99,12.285 L 14,20.17 V 35.83 L 28,43.7 L 42,35.83 V 20.17 L 28,12.29 Z M 44,19 L 28,10 L 12,19 V 37 L 28,46 L 44,37 V 19 Z" fill="rgb(80, 102, 194)" fill-rule="evenodd"/>
<path d="M 27.069999999999997,14.004999999999999 L 15,20.75 V 20.88 L 20,26.47 L 27.08,14.02 Z M 15,21.41 V 34.75 L 22.11,33.05 L 15,21.43 Z M 15,35 V 35.25 L 27.68,42.32 L 30.02,35 H 15 Z M 27.93,42.46 L 28,42.5 L 41,35.25 V 34.87 L 35.68,29.81 L 27.93,42.46 Z M 41,34.4 V 20.75 L 40.35,20.39 L 33.25,22.34 L 41,34.41 Z M 39.66,20 H 25.62 L 27.8,13.61 L 28,13.5 L 39.66,20 Z" fill="rgb(80, 102, 194)"/>
</svg>
