<?xml version="1.0" encoding="UTF-8"?>
<!-- generated by Finnhub -->
<svg viewBox="0 0 55.5 55.5" xmlns="http://www.w3.org/2000/svg">
<path d="M 0,0 H 55.5 V 55.5 H 0 Z" fill="rgb(10, 57, 89)"/>
<path d="M 41.982,24.645 C 42.327,24.741 42.68,24.715 43,24.586 C 42.681,24.135 41.975,24.014 41.523,24.334 A 2.034,2.034 0 0,0 41.445,23.243 A 0.783,0.783 0 0,0 40.887,23.983 C 40.891,24.24 40.84,24.425 40.554,24.469 A 0.512,0.512 0 0,1 40.369,24.439 A 0.913,0.913 0 0,1 40.355,24.375 L 40.313,24.425 C 40.225,24.405 40.143,24.394 40.1,24.449 C 40.057,24.503 40.078,24.576 40.12,24.659 C 39.11,25.872 38.01,27.083 36.528,27.611 C 36.221,27.721 35.902,27.798 35.585,27.884 C 35.98,26.234 37.094,24.827 38.374,23.696 C 38.711,23.396 39.134,23.013 39.588,22.906 C 39.77,22.863 39.876,22.953 40.041,22.94 C 40.194,22.93 40.456,22.71 40.186,22.647 A 1.435,1.435 0 0,0 39.736,22.616 L 39.774,21.542 A 0.217,0.217 0 0,1 39.806,21.415 A 0.212,0.212 0 0,1 39.956,21.356 A 3.52,3.52 0 0,1 41.091,21.427 A 0.819,0.819 0 0,0 40.165,20.95 C 40.372,20.732 40.494,20.448 40.509,20.148 C 40.351,20.115 40.195,20.219 40.085,20.339 C 39.975,20.459 39.887,20.602 39.747,20.684 A 0.875,0.875 0 0,0 39.501,20.141 A 0.952,0.952 0 0,0 39.24,20.796 A 0.866,0.866 0 0,0 38.625,20.604 C 38.709,21.004 39.139,21.298 39.545,21.234 V 22.302 C 39.545,22.512 39.572,22.561 39.429,22.669 C 39.317,22.754 39.099,22.782 38.968,22.853 C 38.596,23.053 38.28,23.339 37.973,23.627 C 37.06,24.481 36.168,25.398 35.635,26.525 C 35.362,27.101 35.163,27.754 34.699,28.18 C 34.624,28.213 34.55,28.25 34.479,28.29 C 34.096,28.5 33.749,28.804 33.319,28.875 A 0.433,0.433 0 0,1 33.327,28.74 L 33.624,26.962 C 33.679,26.635 33.735,26.302 33.85,25.987 C 34.27,26.277 34.736,26.498 35.228,26.64 C 35.128,26.307 34.91,26.02 34.615,25.833 C 34.937,25.903 35.267,25.928 35.596,25.907 A 0.935,0.935 0 0,0 34.673,25.445 C 34.973,25.278 35.253,25.078 35.508,24.848 A 1.335,1.335 0 0,0 34.172,25.173 A 1.016,1.016 0 0,1 34.535,24.057 C 34.837,23.839 35.229,23.805 35.594,23.729 C 35.959,23.653 36.352,23.491 36.495,23.149 A 1.228,1.228 0 0,0 35.175,23.175 C 35.288,22.723 35.302,22.252 35.218,21.794 A 1.51,1.51 0 0,0 34.63,22.527 A 1.876,1.876 0 0,0 34.276,21.707 A 1.065,1.065 0 0,0 34.343,22.611 A 0.848,0.848 0 0,0 33.713,22.241 A 1.252,1.252 0 0,0 34.408,23.483 C 34.455,23.506 34.513,23.533 34.524,23.586 C 34.534,23.638 34.499,23.68 34.468,23.716 C 33.756,24.583 33.578,25.752 33.405,26.857 C 33.291,27.589 33.153,28.349 32.849,29.016 A 1.206,1.206 0 0,0 32.661,29.258 A 3.21,3.21 0 0,1 31.111,30.478 C 31.21,30.314 31.271,30.128 31.341,29.948 C 31.447,29.672 31.576,29.405 31.692,29.135 C 31.991,28.446 32.217,27.73 32.368,26.995 C 32.471,26.492 32.538,25.971 32.488,25.462 C 32.575,25.007 32.458,24.224 32.423,24.025 C 32.895,24.05 33.323,23.565 33.234,23.103 L 32.556,23.532 C 32.646,23.242 32.615,22.93 32.471,22.663 A 1.33,1.33 0 0,0 32.191,23.391 A 2.184,2.184 0 0,0 31.753,22.566 C 31.677,22.89 31.699,23.229 31.814,23.541 A 0.904,0.904 0 0,0 30.995,23.201 C 31.085,23.685 31.553,24.071 32.05,24.071 A 0.246,0.246 0 0,1 32.198,24.098 C 32.248,24.134 32.259,24.203 32.265,24.263 C 32.278,24.416 32.283,24.569 32.278,24.723 A 0.321,0.321 0 0,0 32.26,24.699 L 32.223,25.372 C 32.218,25.466 32.205,25.578 32.123,25.63 A 0.212,0.212 0 0,1 31.893,25.61 A 0.613,0.613 0 0,1 31.738,25.424 L 31.469,25.003 C 31.39,25.328 31.429,25.67 31.577,25.97 A 0.787,0.787 0 0,1 31.037,26.09 A 2.372,2.372 0 0,1 30.494,25.946 C 30.574,26.231 30.894,26.376 31.186,26.432 C 31.363,26.466 31.543,26.482 31.723,26.479 A 0.227,0.227 0 0,1 31.862,26.506 A 0.203,0.203 0 0,1 31.924,26.637 C 32.001,27.046 31.939,27.471 31.807,27.866 C 31.674,28.26 31.474,28.628 31.265,28.989 A 13.998,13.998 0 0,1 30.193,30.613 C 29.538,31.197 29.011,32.01 28.184,32.141 C 28.151,31.841 28.098,31.541 28.134,31.243 C 28.174,30.911 28.323,30.603 28.454,30.296 C 29.032,28.944 29.334,27.491 29.592,26.044 C 29.665,25.633 29.737,25.219 29.878,24.828 C 30.042,24.377 30.296,23.963 30.581,23.576 C 30.706,23.406 30.84,23.236 30.903,23.036 C 30.903,23.032 30.906,23.026 30.907,23.022 C 31.128,22.82 31.307,22.54 31.548,22.353 C 31.952,22.039 32.501,22.01 33.005,21.915 C 33.475,21.825 33.93,21.669 34.355,21.451 C 34.647,21.303 34.934,21.124 35.258,21.079 C 35.438,21.062 35.621,21.067 35.8,21.094 L 36.28,21.147 A 0.863,0.863 0 0,1 36.49,21.187 C 36.589,21.224 36.67,21.297 36.755,21.357 A 1.527,1.527 0 0,0 37.996,21.598 A 2.022,2.022 0 0,0 37.517,21.093 A 1.113,1.113 0 0,0 38.403,20.99 A 1.382,1.382 0 0,0 37.385,20.762 A 1.46,1.46 0 0,0 37.857,20.255 A 2.363,2.363 0 0,0 36.584,20.648 C 36.442,20.741 36.301,20.857 36.136,20.901 C 35.908,20.962 35.669,20.884 35.434,20.875 A 11.387,11.387 0 0,0 36.951,19.439 C 37.323,19.949 38.143,20.056 38.635,19.659 A 1.53,1.53 0 0,0 37.793,19.087 A 1.138,1.138 0 0,0 38.793,18.847 A 1.856,1.856 0 0,0 37.909,18.754 C 38.189,18.528 38.394,18.224 38.495,17.879 C 37.995,17.959 37.535,18.199 37.185,18.563 A 0.975,0.975 0 0,0 36.993,17.599 A 1.543,1.543 0 0,0 36.813,18.454 A 1.13,1.13 0 0,0 36.33,17.843 C 36.244,18.333 36.349,18.837 36.624,19.253 C 36.656,19.293 36.679,19.339 36.691,19.389 C 36.705,19.492 36.621,19.579 36.543,19.649 A 13.75,13.75 0 0,1 34.911,20.876 C 34.318,21.256 33.685,21.595 32.992,21.734 C 32.465,21.842 31.897,21.821 31.4,21.627 C 31.494,21.529 31.592,21.44 31.692,21.347 L 32.522,20.591 C 32.711,20.419 32.929,20.149 33.185,20.073 C 33.324,20.033 34.776,20.498 34.773,20.432 C 34.749,20.002 34.331,19.636 33.899,19.664 A 2.498,2.498 0 0,0 35.125,19.274 C 35.035,19.042 34.765,18.917 34.516,18.923 C 34.266,18.929 34.031,19.039 33.812,19.157 C 34.072,18.562 34.38,17.989 34.732,17.442 A 2.43,2.43 0 0,0 36.338,16.992 C 36.183,16.712 35.778,16.719 35.458,16.766 A 3.85,3.85 0 0,0 36.255,16.171 A 1.16,1.16 0 0,0 35.215,16.326 A 0.806,0.806 0 0,0 35.245,15.696 C 34.705,16.161 34.481,16.878 34.215,17.536 A 9.465,9.465 0 0,1 33.678,18.65 C 33.678,18.656 33.678,18.662 33.675,18.667 C 33.632,18.863 33.515,18.962 33.397,19.115 C 33.073,19.539 32.778,19.964 32.391,20.336 C 32.301,20.423 31.215,21.289 31.185,21.23 C 30.946,20.76 31.034,20.186 31.232,19.697 C 31.431,19.208 31.732,18.765 31.927,18.275 C 32.464,18.441 33.107,18.116 33.283,17.588 A 0.253,0.253 0 0,0 33.3,17.458 C 33.273,17.324 33.091,17.299 32.956,17.323 A 1.56,1.56 0 0,0 32.154,17.726 C 32.094,17.366 31.954,17.023 31.744,16.724 A 1.525,1.525 0 0,0 31.427,17.358 L 31.054,16.921 A 0.522,0.522 0 0,0 31.014,17.505 A 1.238,1.238 0 0,0 30.59,17.237 A 0.758,0.758 0 0,0 30.61,17.421 C 30.5,17.287 30.49,17.087 30.54,16.918 C 30.596,16.731 30.71,16.57 30.803,16.399 C 31.017,16.001 31.112,15.55 31.075,15.101 C 31.327,15.228 31.625,15.05 31.815,14.846 C 32.003,14.642 32.169,14.389 32.435,14.306 A 1.376,1.376 0 0,0 31.426,14.486 C 31.532,14.19 31.521,13.866 31.396,13.578 A 1.696,1.696 0 0,0 31.091,14.3 A 1.018,1.018 0 0,0 30.39,13.952 A 1.004,1.004 0 0,0 30.57,14.799 C 30.637,14.886 30.719,14.962 30.769,15.059 C 30.853,15.223 30.833,15.42 30.789,15.6 A 2.485,2.485 0 0,1 30.198,16.708 C 29.902,16.491 29.912,16.062 29.848,15.703 C 29.798,15.423 29.686,15.157 29.653,14.875 A 1.532,1.532 0 0,1 30.015,13.702 A 1.631,1.631 0 0,0 31.596,13.061 A 1.801,1.801 0 0,0 30.035,13.14 C 30.123,12.754 30.069,12.35 29.881,12 A 1.803,1.803 0 0,0 29.611,13.041 A 1.077,1.077 0 0,0 28.491,12.72 A 1.4,1.4 0 0,0 28.884,13.425 C 29.082,13.617 29.332,13.747 29.603,13.8 A 2.126,2.126 0 0,0 29.436,14.287 A 1.238,1.238 0 0,0 28.363,15.184 C 28.363,14.941 28.353,14.693 28.26,14.468 C 28.166,14.243 27.977,14.047 27.736,14 C 27.684,14.252 27.667,14.515 27.738,14.762 C 27.81,15.01 27.98,15.236 28.22,15.331 C 27.965,15.571 27.466,16.247 27.435,15.553 C 27.411,15.034 27.486,14.493 27.518,13.974 A 2.38,2.38 0 0,0 28.593,13.731 A 0.624,0.624 0 0,0 27.948,13.347 A 2.59,2.59 0 0,0 27.829,12.687 A 1.264,1.264 0 0,0 27.531,13.33 A 1.058,1.058 0 0,0 27.279,12.722 C 27.149,12.938 27.075,13.182 27.061,13.434 A 1.002,1.002 0 0,0 26.311,13.111 C 26.351,13.497 26.825,13.695 26.973,14.059 C 27.032,14.202 27.035,14.361 27.036,14.516 A 40.873,40.873 0 0,1 26.921,17.947 A 12.137,12.137 0 0,0 25.676,14.98 A 1.216,1.216 0 0,0 26.863,14.521 A 1.457,1.457 0 0,0 25.59,14.593 C 25.752,14.2 25.756,13.76 25.6,13.363 A 1.108,1.108 0 0,0 25.04,14.206 A 1.366,1.366 0 0,0 24.256,13.628 A 1.077,1.077 0 0,0 24.745,14.551 A 1.018,1.018 0 0,0 23.755,14.661 C 23.842,14.923 24.163,15.024 24.441,15.036 C 24.718,15.047 25.017,15.019 25.254,15.163 C 25.482,15.303 25.593,15.567 25.69,15.813 C 26.36,17.534 27.013,19.262 27.665,20.989 L 28.169,22.32 C 28.333,22.756 28.499,23.192 28.64,23.636 C 28.771,24.048 28.878,24.466 28.96,24.89 A 3.98,3.98 0 0,1 28.924,25.37 A 7.85,7.85 0 0,1 28.674,26.45 A 142.38,142.38 0 0,1 27.628,29.967 C 27.035,28.771 26.418,27.587 25.778,26.416 A 65.96,65.96 0 0,1 25.221,25.059 L 25.887,22.884 A 1.484,1.484 0 0,0 27.258,22.722 A 0.978,0.978 0 0,0 26.108,22.542 C 26.413,22.3 26.632,21.968 26.734,21.595 C 26.434,21.625 26.15,21.733 25.907,21.909 A 1.347,1.347 0 0,0 25.907,21.574 C 26.312,21.495 26.69,21.304 26.944,21.008 C 26.577,20.798 26.206,20.928 25.845,21.063 A 0.635,0.635 0 0,0 26.246,20.537 A 0.748,0.748 0 0,0 25.671,20.786 C 25.787,20.642 25.739,20.418 25.615,20.282 C 25.49,20.146 25.311,20.075 25.138,20.009 C 25.123,20.379 25.123,20.789 25.374,21.064 C 25.051,20.779 24.501,20.8 24.202,21.11 C 24.529,21.462 25.029,21.625 25.532,21.614 C 25.546,21.728 25.572,21.833 25.578,21.858 C 25.593,21.959 25.608,22.072 25.62,22.191 A 0.433,0.433 0 0,0 25.577,22.281 C 25.541,22.393 25.556,22.513 25.56,22.63 C 25.573,22.97 25.494,23.308 25.41,23.64 C 25.316,24.014 25.213,24.388 25.103,24.763 A 67.137,67.137 0 0,1 24.053,21.896 C 23.922,21.511 23.793,21.113 23.83,20.708 C 23.87,20.271 24.099,19.877 24.302,19.485 C 24.797,18.518 25.15,17.38 24.782,16.358 C 25.027,16.054 25.184,15.69 25.237,15.304 A 1.119,1.119 0 0,0 24.345,16.02 A 1.541,1.541 0 0,0 23.496,15.707 C 23.578,15.897 23.693,16.073 23.835,16.225 A 2.467,2.467 0 0,0 23.065,16.115 C 23.369,16.527 23.975,16.686 24.445,16.48 A 4.513,4.513 0 0,1 23.227,20.15 A 18.747,18.747 0 0,1 22.257,18.504 A 2,2 0 0,0 23.662,18.53 A 1.188,1.188 0 0,0 22.514,18.185 A 1.75,1.75 0 0,0 23.057,17.101 A 1.303,1.303 0 0,0 22.047,17.301 A 0.713,0.713 0 0,0 21.446,16.743 A 0.657,0.657 0 0,0 21.762,17.143 A 1.306,1.306 0 0,0 20.847,17.077 L 21.157,17.357 A 0.743,0.743 0 0,0 20.313,17.278 C 20.475,17.598 20.68,17.952 21.031,18.031 C 21.163,18.061 21.304,18.047 21.433,18.089 C 21.602,18.145 21.722,18.287 21.824,18.436 A 6.666,6.666 0 0,0 21.312,19.515 C 20.948,19.075 20.116,19.21 19.842,18.71 C 19.607,18.281 19.99,17.743 19.866,17.27 C 19.686,17.462 19.53,17.676 19.403,17.907 A 3.33,3.33 0 0,0 19.09,17.202 A 1.01,1.01 0 0,0 18.992,18.11 A 0.747,0.747 0 0,0 18.02,18.008 C 18.376,18.169 18.66,18.453 18.822,18.806 A 1.576,1.576 0 0,0 18.716,18.797 C 18.736,18.843 18.741,18.894 18.728,18.943 C 18.701,19.041 18.6,19.098 18.528,19.171 A 0.452,0.452 0 0,0 18.455,19.27 A 0.479,0.479 0 0,0 18.413,19.01 A 0.343,0.343 0 0,0 18.209,18.854 A 0.63,0.63 0 0,0 18.209,18.932 C 18.209,19.035 18.239,19.135 18.297,19.221 A 0.326,0.326 0 0,1 18.36,19.321 A 0.915,0.915 0 0,0 18.06,19.058 A 0.647,0.647 0 0,0 17.96,19.016 C 18.032,19.213 18.085,19.416 18.12,19.624 H 17.8 A 0.821,0.821 0 0,0 17.51,19.09 L 17.48,19.59 A 2.005,2.005 0 0,0 16.425,19.584 A 0.92,0.92 0 0,0 17.227,19.997 A 1.86,1.86 0 0,0 17.049,20.991 C 17.223,20.941 17.384,20.854 17.521,20.735 C 17.706,20.569 17.829,20.326 17.815,20.081 C 18.063,20.023 18.296,19.914 18.499,19.761 A 5.02,5.02 0 0,0 19.052,19.284 C 19.191,19.109 19.342,18.944 19.502,18.79 A 0.578,0.578 0 0,0 19.85,19.125 C 19.947,19.159 20.053,19.167 20.15,19.199 C 20.267,19.244 20.376,19.308 20.473,19.386 C 20.891,19.688 21.313,19.994 21.651,20.383 C 22.157,20.965 22.451,21.705 22.599,22.459 C 22.747,23.212 22.759,23.986 22.759,24.751 C 22.759,25.032 22.689,25.438 22.703,25.775 C 22.326,25.425 21.952,25.073 21.581,24.717 C 21.128,24.282 20.676,23.837 20.347,23.303 C 20.018,22.769 19.82,22.133 19.923,21.515 C 20.074,21.745 20.372,21.848 20.647,21.826 C 20.921,21.805 21.177,21.676 21.407,21.525 A 1.143,1.143 0 0,0 20.181,21.215 A 1.21,1.21 0 0,0 20.496,20.265 A 0.977,0.977 0 0,0 19.79,21.077 C 19.816,20.687 19.73,20.297 19.541,19.954 A 1.293,1.293 0 0,0 19.474,20.949 A 1.737,1.737 0 0,0 18.474,20.313 A 1.536,1.536 0 0,0 19.455,21.505 C 19.475,21.82 19.532,22.132 19.623,22.434 A 0.696,0.696 0 0,0 19.449,22.34 C 18.95,22.145 18.345,22.08 17.823,21.951 C 16.887,21.721 15.937,21.491 14.973,21.503 A 1.581,1.581 0 0,0 14.513,20.012 A 1.543,1.543 0 0,0 14.616,21.318 A 1.372,1.372 0 0,0 13.284,21.038 A 1.388,1.388 0 0,0 14.571,21.668 A 1.04,1.04 0 0,1 13.462,21.872 C 13.462,22.247 13.814,22.582 14.19,22.567 C 14.565,22.552 14.89,22.188 14.859,21.818 C 15.255,21.808 15.651,21.828 16.043,21.882 C 15.613,21.88 15.188,22.264 15.206,22.702 A 1.448,1.448 0 0,1 16.5,22.234 C 16.467,22.688 16.266,23.114 15.934,23.43 C 16.464,23.38 16.649,22.681 17.102,22.404 C 17.473,22.177 17.951,22.271 18.375,22.373 C 18.905,22.5 19.477,22.653 19.851,23.031 C 19.921,23.179 20,23.323 20.087,23.461 C 20.319,23.833 20.608,24.164 20.896,24.494 L 21.296,24.954 A 0.365,0.365 0 0,0 21.25,24.986 C 21.044,25.126 20.766,25.09 20.53,25.011 C 20.295,24.932 20.066,24.814 19.818,24.804 C 19.598,24.796 19.383,24.874 19.163,24.886 C 18.943,24.898 18.686,24.812 18.618,24.606 C 19.011,24.73 19.482,24.458 19.567,24.058 A 0.79,0.79 0 0,0 19.177,24.198 L 19.47,23.793 A 1.498,1.498 0 0,0 18.132,24.261 C 18.156,23.913 17.822,23.585 17.472,23.612 A 0.891,0.891 0 0,0 17.474,24.158 A 0.873,0.873 0 0,1 16.605,24.305 C 16.648,24.47 16.813,24.581 16.983,24.604 C 17.153,24.626 17.322,24.574 17.477,24.504 C 17.59,24.685 17.503,24.938 17.335,25.07 C 17.167,25.203 16.943,25.24 16.729,25.252 C 16.844,25.407 16.986,25.576 17.179,25.58 A 0.58,0.58 0 0,0 17.437,25.509 C 17.68,25.392 17.905,25.239 18.102,25.056 C 18.205,24.962 18.311,24.85 18.451,24.83 C 18.607,24.808 18.753,24.904 18.875,25.004 C 19.041,25.139 19.205,25.305 19.233,25.518 C 18.939,25.32 18.547,25.378 18.196,25.448 A 0.826,0.826 0 0,0 19.224,25.735 A 0.764,0.764 0 0,0 19,26.281 A 0.714,0.714 0 0,0 18.868,26.301 C 18.884,26.653 19.309,26.805 19.628,26.963 A 1.96,1.96 0 0,1 20.684,28.851 C 20.67,29.001 20.59,29.187 20.441,29.176 C 20.293,29.165 20.195,28.996 20.057,28.948 L 20.048,28.946 L 20.001,28.88 L 19.068,28.166 A 5.021,5.021 0 0,0 18.758,27.941 A 3.456,3.456 0 0,1 18.38,27.442 A 1.477,1.477 0 0,1 18.162,26.931 C 18.14,26.761 18.142,26.588 18.167,26.419 L 18.246,25.637 A 0.523,0.523 0 0,0 17.912,26.027 A 0.943,0.943 0 0,0 17.968,26.554 A 1.105,1.105 0 0,0 16.928,26.227 A 1.351,1.351 0 0,0 17.976,26.773 C 18.04,27.051 18.104,27.334 18.236,27.586 C 18.259,27.633 18.283,27.675 18.311,27.716 A 72.29,72.29 0 0,0 15.629,25.451 A 0.851,0.851 0 0,0 16.021,24.796 A 0.842,0.842 0 0,0 15.726,24.094 A 0.915,0.915 0 0,1 15.516,24.684 C 15.444,24.514 15.246,24.424 15.059,24.422 C 14.872,24.421 14.693,24.491 14.519,24.562 A 2.037,2.037 0 0,0 14.164,23.32 A 1.296,1.296 0 0,0 14.128,24.49 A 2.204,2.204 0 0,0 13,24.117 A 0.93,0.93 0 0,0 13.874,24.793 C 14.019,24.793 14.162,24.757 14.306,24.764 C 14.596,24.779 14.848,24.961 15.076,25.138 A 25.82,25.82 0 0,1 16.857,26.728 A 1.855,1.855 0 0,0 16.521,26.768 A 3.8,3.8 0 0,1 16.304,26.798 C 15.872,26.733 15.256,26.794 15.013,26.406 C 15.255,26.15 15.155,25.666 14.828,25.527 C 14.834,25.793 14.854,26.059 14.888,26.323 C 14.778,26.098 14.588,25.923 14.355,25.83 C 14.413,26.06 14.517,26.277 14.662,26.466 A 1.09,1.09 0 0,0 13.532,26.152 C 13.692,26.554 14.212,26.764 14.612,26.6 C 14.277,26.752 13.922,26.956 13.844,27.309 A 0.093,0.093 0 0,0 13.848,27.376 C 13.856,27.386 13.866,27.393 13.878,27.399 A 0.887,0.887 0 0,0 14.637,27.217 A 0.874,0.874 0 0,0 14.939,26.539 C 14.945,26.743 15.356,26.854 15.505,26.898 C 15.655,26.943 15.81,26.973 15.966,26.986 C 16.005,26.989 16.044,26.99 16.083,26.989 L 16.087,26.992 A 0.966,0.966 0 0,0 16.244,26.98 A 2.67,2.67 0 0,1 16.537,26.962 C 16.628,26.966 16.719,26.977 16.809,26.995 L 16.966,27.022 H 16.962 A 0.627,0.627 0 0,0 16.798,27.08 C 16.671,27.153 16.625,27.267 16.61,27.394 A 0.852,0.852 0 0,0 16.504,27.794 C 16.444,27.934 16.364,28.067 16.268,28.186 C 16.242,28.214 16.038,28.351 16.038,28.361 A 1.738,1.738 0 0,0 15.888,27.479 A 0.765,0.765 0 0,0 15.811,28.286 C 15.597,27.996 15.281,27.796 14.927,27.725 C 14.981,27.907 15.037,28.094 15.151,28.247 C 15.265,28.4 15.434,28.507 15.619,28.498 A 0.818,0.818 0 0,0 14.941,29.058 C 15.539,29.183 16.201,28.843 16.442,28.291 C 16.537,28.081 16.618,27.897 16.609,27.671 V 27.654 C 16.629,27.599 16.645,27.54 16.659,27.494 A 0.735,0.735 0 0,1 16.949,27.201 A 0.733,0.733 0 0,1 17.279,27.141 C 17.597,27.449 17.926,27.749 18.303,27.971 C 18.724,28.272 19.14,28.581 19.545,28.904 A 5.585,5.585 0 0,0 18.399,28.938 C 18.297,28.953 18.189,28.971 18.092,28.935 A 0.815,0.815 0 0,1 17.888,28.795 A 1.12,1.12 0 0,0 16.499,28.836 L 17.28,28.924 C 17.007,28.964 16.756,29.099 16.573,29.304 C 16.96,29.314 17.345,29.261 17.715,29.149 A 1.308,1.308 0 0,0 17.385,30.431 A 0.974,0.974 0 0,1 17.752,29.896 C 17.84,29.832 17.941,29.778 17.994,29.683 C 18.047,29.588 18.034,29.476 18.074,29.377 C 18.154,29.173 18.409,29.104 18.63,29.085 C 19.1,29.048 19.572,29.115 20.012,29.283 C 20.212,29.45 20.407,29.621 20.599,29.795 C 21.306,30.44 21.966,31.138 22.62,31.835 C 23.87,33.165 25.142,34.528 26.076,36.078 C 26.361,36.769 26.601,37.478 26.794,38.201 C 26.878,38.765 26.874,39.347 26.867,39.921 L 26.83,43 H 22 V 44 H 34 V 43 H 28.52 A 55.367,55.367 0 0,1 28.532,38.713 C 28.584,38.498 28.646,38.286 28.721,38.077 C 28.969,37.367 29.338,36.702 29.576,35.988 C 30.026,34.631 30.014,33.091 30.849,31.928 C 31.075,31.626 31.334,31.35 31.622,31.105 C 32.286,30.66 33.072,30.381 33.857,30.194 C 34.963,29.93 36.104,29.823 37.2,29.524 L 37.26,29.507 A 0.759,0.759 0 0,0 37.224,29.76 C 37.229,29.954 37.383,30.11 37.534,30.233 C 37.777,30.429 38.041,30.596 38.322,30.731 A 1.168,1.168 0 0,0 37.846,29.606 A 1.518,1.518 0 0,0 39.152,29.73 A 1.06,1.06 0 0,0 38.039,29.251 C 38.399,29.069 38.714,28.812 38.964,28.498 C 38.911,28.565 38.488,28.607 38.388,28.643 A 2.9,2.9 0 0,0 37.85,28.904 C 37.668,29.018 37.5,29.13 37.382,29.276 C 37.319,29.298 37.255,29.322 37.191,29.341 C 36.471,29.575 35.717,29.681 34.967,29.783 C 34.376,29.863 33.735,29.929 33.203,29.692 C 33.495,29.419 33.809,29.171 34.143,28.951 C 34.281,28.863 34.423,28.783 34.568,28.709 L 34.553,28.727 A 0.242,0.242 0 0,1 34.572,28.707 C 34.678,28.652 34.786,28.6 34.897,28.551 L 34.911,28.547 A 11.308,11.308 0 0,1 39.337,28.36 A 0.584,0.584 0 0,1 39.542,28.419 A 0.618,0.618 0 0,1 39.731,28.623 C 39.852,28.803 39.983,28.984 40.163,29.109 C 40.342,29.234 40.581,29.294 40.784,29.215 L 40.445,28.631 A 1.146,1.146 0 0,0 41.526,28.543 A 1.697,1.697 0 0,0 40.47,28.333 C 40.658,28.263 40.847,28.193 41.007,28.073 C 41.167,27.952 41.297,27.779 41.315,27.581 C 40.868,27.657 40.443,27.831 40.072,28.089 A 0.866,0.866 0 0,0 40.382,27.12 A 1.96,1.96 0 0,1 38.7,28.134 C 38.41,28.134 38.124,28.072 37.838,28.028 A 6.186,6.186 0 0,0 36.358,27.984 C 36.688,27.864 37.012,27.725 37.327,27.57 A 7.788,7.788 0 0,0 38.761,26.617 C 39.134,26.477 39.562,26.456 39.971,26.445 A 1.72,1.72 0 0,1 40.434,26.473 C 40.704,26.539 40.921,26.728 41.171,26.848 A 1.498,1.498 0 0,0 42.361,26.881 A 1.279,1.279 0 0,0 41.576,26.359 A 0.905,0.905 0 0,0 42.321,25.849 A 1.828,1.828 0 0,0 41.25,26.05 C 41.144,26.107 41.04,26.175 40.923,26.199 A 0.928,0.928 0 0,1 40.695,26.206 L 40.205,26.181 C 40.064,26.174 39.922,26.166 39.793,26.106 A 0.406,0.406 0 0,1 39.578,25.882 C 39.876,25.593 40.164,25.294 40.448,24.992 C 40.637,25.04 40.738,24.857 40.915,24.833 C 41.165,24.8 41.202,25.023 41.37,25.193 C 41.53,25.35 41.724,25.471 41.936,25.545 C 42.063,25.59 42.486,25.566 42.553,25.625 L 41.893,25.051 C 42.191,25.231 42.51,25.375 42.843,25.48 A 1.262,1.262 0 0,0 41.992,24.66 Z M 30.695,17.798 A 0.921,0.921 0 0,0 30.736,17.698 A 0.854,0.854 0 0,0 31.367,18.083 C 31.438,18.088 31.517,18.087 31.571,18.133 C 31.665,18.213 31.618,18.367 31.565,18.477 L 31.188,19.257 C 31.128,19.379 31.064,19.507 30.952,19.584 A 0.32,0.32 0 0,1 30.716,19.631 A 3.779,3.779 0 0,0 30.622,19.088 C 30.522,18.644 30.494,18.227 30.695,17.798 Z M 28.502,21.863 C 28.505,21.796 28.51,21.729 28.516,21.663 C 28.559,21.245 28.669,20.837 28.737,20.423 C 28.817,19.937 28.837,19.444 28.8,18.953 A 0.977,0.977 0 0,0 29.953,18.565 A 2.049,2.049 0 0,0 29.003,18.691 C 29.198,18.621 29.333,18.434 29.389,18.237 C 29.444,18.039 29.441,17.83 29.436,17.625 C 28.906,17.819 28.653,18.426 28.593,18.984 C 28.534,19.541 28.606,20.117 28.449,20.656 A 0.897,0.897 0 0,1 28.221,21.056 C 27.995,20.396 27.786,19.73 27.649,19.046 A 15.9,15.9 0 0,1 27.375,17.149 C 27.334,16.577 27.895,16.029 28.278,15.669 C 28.702,15.271 29.174,14.884 29.422,14.359 A 2.121,2.121 0 0,0 29.397,14.939 C 29.434,15.314 29.569,15.67 29.667,16.033 C 29.876,16.797 29.927,17.593 30.041,18.376 C 30.085,18.696 30.148,19.012 30.229,19.324 L 30.601,20.839 C 30.59,21.475 30.549,22.109 30.481,22.742 C 30.241,23.098 29.99,23.445 29.731,23.784 A 0.269,0.269 0 0,1 29.663,23.854 C 29.593,23.9 29.509,23.874 29.437,23.821 C 29.011,23.241 28.745,22.549 28.502,21.863 Z M 22.213,20.642 C 22.065,20.412 21.899,20.186 21.839,19.921 C 21.792,19.713 21.814,19.496 21.828,19.283 C 21.846,19.011 21.849,18.737 21.841,18.464 L 21.881,18.524 C 22.352,19.247 22.806,19.984 23.151,20.774 C 23.847,22.367 24.099,24.176 24.796,25.742 C 24.708,26.011 24.616,26.278 24.52,26.544 C 24.44,26.764 24.358,26.986 24.293,27.212 A 85.303,85.303 0 0,1 23.445,26.453 A 3.59,3.59 0 0,1 23.235,25.475 C 23.185,24.867 23.235,24.256 23.2,23.648 A 6.271,6.271 0 0,0 22.213,20.642 Z M 27.223,36.935 A 7.182,7.182 0 0,1 26.98,36.734 C 26.2,35.446 25.254,34.257 24.313,33.077 A 7.192,7.192 0 0,0 23.939,32.632 A 3.077,3.077 0 0,1 23.639,32.028 A 1.848,1.848 0 0,1 24.029,30.22 C 23.877,30.314 23.723,30.407 23.604,30.54 C 23.484,30.671 23.403,30.846 23.423,31.021 A 2.371,2.371 0 0,1 23.164,30.181 C 23.142,29.986 23.149,29.773 23.264,29.612 C 23.459,29.337 23.876,29.334 24.2,29.432 C 24.073,29.104 23.59,28.976 23.317,29.202 C 23.427,29.064 23.545,28.902 23.512,28.729 A 0.91,0.91 0 0,0 23.012,29.486 A 0.622,0.622 0 0,0 22.287,29.039 A 0.944,0.944 0 0,0 23.012,29.615 C 23.019,30.125 23.027,30.641 23.174,31.129 C 23.247,31.375 23.354,31.613 23.38,31.871 C 23.389,31.958 23.383,32.051 23.384,32.143 A 5.672,5.672 0 0,1 23.196,31.985 C 22.596,31.457 22.176,30.762 21.765,30.078 C 21.505,29.647 21.243,29.206 21.12,28.718 C 20.954,28.055 21.06,27.346 20.894,26.682 C 20.818,26.788 20.821,26.928 20.796,27.057 C 20.77,27.186 20.686,27.324 20.556,27.323 C 20.472,27.323 20.403,27.263 20.344,27.205 C 20.128,26.992 19.947,26.743 19.711,26.55 A 1.192,1.192 0 0,0 19.177,26.292 C 19.353,26.108 19.521,25.917 19.71,25.747 C 19.953,25.526 20.24,25.337 20.564,25.279 C 21.016,25.197 21.457,25.372 21.866,25.606 C 22.085,25.867 22.319,26.116 22.566,26.351 C 23.107,26.848 23.788,27.253 24.176,27.853 C 24.157,28.187 24.216,28.528 24.398,28.808 A 3.252,3.252 0 0,0 23.193,28.087 A 0.872,0.872 0 0,0 23.011,27.04 A 1.774,1.774 0 0,0 22.932,27.622 A 1.992,1.992 0 0,0 22.187,27.312 L 22.452,27.862 A 0.767,0.767 0 0,0 21.572,27.706 C 21.732,27.93 21.974,28.084 22.246,28.139 A 0.5,0.5 0 0,0 21.796,28.466 C 22.052,28.62 22.362,28.779 22.635,28.658 C 22.833,28.57 22.973,28.347 23.19,28.342 C 23.331,28.339 23.454,28.436 23.562,28.523 L 23.986,28.873 C 24.132,28.983 24.265,29.111 24.383,29.251 C 24.666,29.611 24.724,30.088 24.771,30.541 C 24.837,31.178 24.894,31.82 25.058,32.439 C 25.193,32.949 25.405,33.447 25.728,33.861 C 26.268,34.894 27.268,35.78 27.224,36.935 Z M 26.203,33.331 C 25.962,32.881 25.812,32.372 25.713,31.869 C 25.545,31.007 25.494,30.116 25.208,29.284 C 25.001,28.676 24.668,28.098 24.642,27.46 C 24.624,27.017 24.755,26.583 24.885,26.16 L 24.927,26.024 C 25.104,26.39 25.316,26.738 25.56,27.064 L 25.778,27.439 C 26.712,29.076 27.201,30.924 27.471,32.795 L 27.494,35.024 A 15.7,15.7 0 0,0 26.204,33.331 Z M 29.332,34.343 C 29.152,34.998 28.942,35.817 28.549,36.383 C 28.261,36.799 28.143,36.201 28.161,35.963 C 28.213,35.27 28.318,34.576 28.556,33.923 C 28.794,33.269 29.172,32.656 29.706,32.206 C 29.65,32.929 29.526,33.644 29.333,34.343 H 29.332 Z" fill="rgb(254, 254, 253)"/>
<path d="M 33.667,18.634999999999998 L 33.687,18.59 L 33.543,18.881 C 33.589,18.805 33.633,18.728 33.677,18.651 Z M 32.25,15.093 C 32.61,15.507 33.11,15.775 33.657,15.848 C 33.735,16.475 33.764,17.108 33.743,17.739 C 33.733,18.015 33.738,18.315 33.689,18.591 L 34.004,17.968 A 26.31,26.31 0 0,1 33.862,15.816 A 0.966,0.966 0 0,0 35.052,15.376 A 0.945,0.945 0 0,0 35.164,14.936 A 2.626,2.626 0 0,1 34.305,15.072 A 0.732,0.732 0 0,0 34.252,14.37 A 3.08,3.08 0 0,0 33.788,14.964 A 2.197,2.197 0 0,0 33.508,13.831 A 1.316,1.316 0 0,0 33.131,15.131 A 0.943,0.943 0 0,0 32.249,15.093 Z" fill="rgb(254, 254, 253)"/>
</svg>
