<?xml version="1.0" encoding="UTF-8"?>
<!-- generated by Finnhub -->
<svg viewBox="0 0 55.5 55.5" xmlns="http://www.w3.org/2000/svg">
<path d="M 0,0 H 55.5 V 55.5 H 0 Z" fill="rgb(239, 242, 248)"/>
<circle cx="16" cy="16" r="3" fill="rgb(16, 112, 185)"/>
<circle cx="32.02" cy="16" r="3" fill="rgb(16, 112, 185)"/>
<circle cx="40" cy="16" r="3" fill="rgb(51, 51, 50)"/>
<circle cx="40" cy="24" r="3" fill="rgb(16, 112, 185)"/>
<circle cx="40" cy="40" r="3" fill="rgb(16, 112, 185)"/>
<circle cx="24" cy="40" r="3" fill="rgb(16, 112, 185)"/>
<circle cx="16" cy="40" r="3" fill="rgb(51, 51, 50)"/>
<circle cx="16" cy="32" r="3" fill="rgb(16, 112, 185)"/>
<path d="M 26.99,15.985 A 3,3 0 0,1 25.87,18.35 C 25.39,18.97 24.39,20.58 26.12,22.17 C 27.55,23.49 29.17,22.81 29.88,21.85 L 29.9,21.86 A 2.99,2.99 0 0,1 35,24 A 3,3 0 0,1 33.78,26.41 C 32.63,28.14 33.24,29.02 33.78,29.58 C 33.91,29.68 34.05,29.8 34.18,29.93 C 34.53,30.23 35.08,30.68 35.88,30.66 C 36.68,30.65 37.48,30.18 37.85,29.9 A 3,3 0 0,1 43,32 A 3,3 0 0,1 37.67,33.89 A 2.39,2.39 0 0,0 35.87,33.11 A 2.1,2.1 0 0,0 34.39,33.81 C 34.32,33.91 34.25,33.99 34.17,34.07 A 2.94,2.94 0 0,0 33.93,37.69 H 33.91 A 3,3 0 1,1 30.06,37.71 C 31.19,36.27 30.49,34.87 29.98,34.21 A 3,3 0 0,1 30.12,29.66 C 30.48,29.3 30.84,28.76 30.8,27.9 C 30.73,26.45 29.27,25.38 27.9,25.36 C 26.8,25.35 26.07,25.83 25.82,26.16 C 24.45,27.91 25.45,29.21 26.12,29.87 A 3,3 0 0,1 24,35 A 3,3 0 0,1 21.89,29.87 C 21.95,29.77 22.03,29.67 22.11,29.58 C 22.71,28.82 23.37,28 22.37,26.38 C 21.47,24.91 19.85,25.12 19.16,25.41 C 18.96,25.49 18.61,25.76 18.25,26.03 L 18.09,26.15 A 2.99,2.99 0 0,1 13,24 A 3,3 0 0,1 17.55,21.43 C 17.88,21.57 18.12,21.81 18.38,22.05 C 18.85,22.51 19.33,22.98 20.38,22.83 A 2.85,2.85 0 0,0 22.88,19.96 A 2,2 0 0,0 22.33,18.49 A 3,3 0 1,1 27,16 Z" fill="rgb(51, 51, 50)"/>
</svg>
