<?xml version="1.0" encoding="UTF-8"?>
<!-- generated by Finnhub -->
<svg viewBox="0 0 55.5 55.5" xmlns="http://www.w3.org/2000/svg">
<path d="M 0,0 H 55.5 V 55.5 H 0 Z" fill="rgb(239, 242, 248)"/>
<path d="M 31.119999999999997,12.934999999999999 C 24.29,30.03 18.03,39.17 15.76,41.6 H 18.64 C 28.5,31.6 31.07,18.34 31.13,12.95 Z M 34.9,42.66 C 20.59,42.53 13,43.69 11,44.28 C 15.34,45.58 32.14,44.82 40,44.28 L 34.9,42.66 Z" fill="rgb(188, 197, 222)"/>
<path d="M 38.02,7.985 L 23.49,40.8 L 26.79,39.98 C 28.94,38.03 32.24,30.15 33.61,26.46 C 34.34,30.44 30.18,38.49 28.01,42.02 C 30.39,42.13 33.71,41.25 35.07,40.79 C 42.23,30.14 40.03,14.5 38.03,8 Z" fill="rgb(0, 28, 121)"/>
</svg>
