<?xml version="1.0" encoding="UTF-8"?>
<!-- generated by Finnhub -->
<svg viewBox="0 0 55.5 55.5" xmlns="http://www.w3.org/2000/svg">
<path d="M 0,0 H 55.5 V 55.5 H 0 Z" fill="rgb(239, 242, 248)"/>
<path d="M 28.93,16.384999999999998 A 1.78,1.78 0 0,0 28.55,16.18 A 2.27,2.27 0 0,0 27.65,16 C 26.69,16 25.69,16.49 24.95,17.23 C 24.7,16.49 24.02,16 23.07,16 C 22.13,16 21.15,16.47 20.41,17.19 L 20.75,16 H 17.17 L 14.57,24 H 18.22 L 19.68,19.63 C 19.78,19.33 20.11,19.08 20.41,19.08 S 20.88,19.33 20.77,19.63 L 19.32,24 H 22.98 L 24.43,19.63 C 24.53,19.33 24.86,19.08 25.17,19.08 C 25.47,19.08 25.63,19.33 25.53,19.63 L 24.07,24 H 27.72 L 28.52,21.1 L 26.45,23.83 L 28.28,20.9 L 25.76,22.68 L 28.19,20.54 L 25.72,21.01 L 28.26,20.09 L 26.34,19.16 L 28.49,19.64 L 27.49,17.5 L 28.83,19.28 L 28.94,16.41 Z" fill="rgb(2, 124, 198)"/>
<path d="M 29.529999999999998,18.955 L 31.62,16.17 L 29.79,19.17 L 32.31,17.36 L 29.88,19.54 L 32.35,19.06 L 29.8,20 L 31.73,20.95 L 29.58,20.46 L 30.58,22.65 L 29.24,20.83 L 29.12,23.83 L 28.87,21.03 L 27.74,24 H 31.5 L 34.11,16 H 30.35 L 29.55,18.97 Z M 31.43,13 L 30.56,15.56 H 34.33 L 35.21,13 H 31.43 Z" fill="rgb(167, 168, 172)"/>
<path d="M 42.36,21.025 C 41.78,21.04 41.47,20.57 41.67,19.99 C 41.86,19.42 42.49,18.95 43.07,18.95 C 43.4,18.95 43.64,19.09 43.76,19.32 L 47,18.6 C 46.95,17.08 45.83,16 44.08,16 A 6.18,6.18 0 0,0 38.67,20 C 37.91,22.2 39.12,24 41.36,24 C 43.1,24 44.96,22.91 46.05,21.4 L 43.29,20.67 C 43.02,20.9 42.69,21.04 42.37,21.04 Z" fill="rgb(2, 124, 198)"/>
<path d="M 32.89,20.825 L 33.1,20.99 C 33.51,21.3 34.14,21.69 34.78,21.69 C 35.03,21.69 35.38,21.56 35.48,21.28 C 35.63,20.86 35.18,20.84 34.88,20.8 C 33.68,20.63 32.68,20.12 33.18,18.68 C 33.83,16.76 36.05,16 37.72,16 C 38.69,16 39.82,16.19 40.52,16.65 L 38.87,18.77 C 38.5,18.42 37.96,18.13 37.34,18.13 C 37.11,18.13 36.78,18.21 36.68,18.48 C 36.56,18.85 36.96,18.88 37.45,18.97 C 38.73,19.19 39.66,19.65 39.14,21.19 C 38.46,23.18 36.18,24 34.42,24 C 33.19,24 32.12,23.62 31.16,23.15 L 32.91,20.85 Z M 28.96,16.39 L 29.21,18.99 L 29.63,17.93 C 29.66,17.28 29.41,16.73 28.96,16.39 Z" fill="rgb(2, 124, 198)"/>
<path d="M 20.209999999999997,27.865 C 15.72,32.28 13.28,30.64 12.22,29.26 L 10.67,31.36 L 11.92,33.41 L 16.25,34.13 L 21.25,31.36 L 29.47,30.5 C 35.05,31.98 38.97,31.56 40.74,30.5 L 42.2,25.44 C 36.76,33.44 31.59,30.08 30.43,29.42 C 29.77,29.04 25.25,22.97 20.23,27.88 Z" fill="url(#c)"/>
<path d="M 20.34,29.564999999999998 C 15.85,33.98 13.61,32.66 12.55,31.28 L 11,33.37 L 12.26,35.42 L 16.59,36.14 L 21.58,33.37 L 29.81,32.51 C 35.37,34 40.23,29.77 42,28.71 L 43.03,25.08 C 38.03,31.99 32.44,29.78 31.28,29.12 C 30.62,28.75 25.63,24.42 20.35,29.58 Z" fill="url(#b)"/>
<path d="M 20.459999999999997,31.845 C 16.66,36.9 13.61,35.4 12.56,34.01 L 10.99,36.11 L 12.25,38.17 L 16.58,38.89 L 21.28,35.26 L 29.47,29.96 C 35.04,31.43 40.8,29.22 42.57,28.16 L 43.86,24.71 C 38.86,31.61 31.78,29.34 31.12,28.96 H 31.11 C 30.41,28.56 25.21,25.59 20.47,31.86 Z" fill="url(#a)"/>
<path d="M 11.01,34.675 L 9,41 H 39.73 L 45.63,23.2 C 40.26,31.01 34.05,30.47 31.63,29.23 C 29.83,28.31 25.08,28.1 20.49,34.69 C 15.89,41.28 12.26,37.43 11.02,34.69 Z" fill="rgb(2, 124, 198)"/>
<defs>
<linearGradient id="c" x1="11.31" x2="41.78" y1="30.39" y2="30.39" gradientUnits="userSpaceOnUse">
<stop stop-color="rgb(239, 242, 248)" offset=".08"/>
<stop stop-color="rgb(45, 142, 202)" offset=".48"/>
<stop stop-color="rgb(2, 124, 198)" offset=".76"/>
<stop stop-color="rgb(211, 227, 241)" offset="1"/>
</linearGradient>
<linearGradient id="b" x1="10.99" x2="41.51" y1="33.14" y2="32.74" gradientUnits="userSpaceOnUse">
<stop stop-color="rgb(239, 242, 248)" offset=".08"/>
<stop stop-color="rgb(20, 133, 202)" offset=".48"/>
<stop stop-color="rgb(2, 124, 198)" offset=".75"/>
<stop stop-color="rgb(109, 181, 229)" offset="1"/>
</linearGradient>
<linearGradient id="a" x1="11.83" x2="41.14" y1="35.9" y2="34.71" gradientUnits="userSpaceOnUse">
<stop stop-color="rgb(239, 242, 248)" offset=".07"/>
<stop stop-color="rgb(30, 142, 204)" offset=".33"/>
<stop stop-color="rgb(15, 130, 196)" offset=".49"/>
<stop stop-color="rgb(2, 124, 198)" offset=".86"/>
<stop stop-color="rgb(117, 177, 217)" offset="1"/>
</linearGradient>
</defs>
</svg>
