<?xml version="1.0" encoding="UTF-8"?>
<!-- generated by Finnhub -->
<svg viewBox="0 0 55.5 55.5" xmlns="http://www.w3.org/2000/svg">
<path d="M 0,0 H 55.5 V 55.5 H 0 Z" fill="rgb(239, 242, 248)"/>
<path d="M 7.99,21.985 V 35 H 10 V 25.25 L 13.88,35 H 15.09 L 19,25.25 V 35 H 21 V 22 H 18.83 L 14.5,32.24 L 10.17,22 H 8 Z M 27,22 V 35 H 29 V 30 H 32.55 C 33.78,30 35.31,30.26 35.31,31.75 L 35.41,34.19 C 35.41,34.36 35.51,34.6 35.71,34.91 L 35.77,35 H 39.32 L 40.74,31 H 45.83 L 47.24,35 H 49 L 44.42,22 H 42.15 L 37.65,34.76 C 37.52,34.56 37.45,34.4 37.45,34.27 L 37.35,31.75 C 37.35,30.59 36.59,29.6 35.63,29 A 3.38,3.38 0 0,0 38,25.81 C 38,23.21 35.58,22 33.27,22 H 27 Z M 33.27,28.5 H 29 V 23.5 H 33.27 C 34.7,23.5 36,24.2 36,25.8 C 36,27.43 34.73,28.5 33.27,28.5 Z M 41.24,29.65 H 45.32 L 43.28,24.03 L 41.24,29.65 Z M 23,22 V 35 H 25 V 22 H 23 Z" fill="rgb(34, 30, 30)" fill-rule="evenodd"/>
</svg>
