<?xml version="1.0" encoding="UTF-8"?>
<!-- generated by Finnhub -->
<svg fill="none" viewBox="0 0 55.5 55.5" xmlns="http://www.w3.org/2000/svg">
<rect width="56" height="56" fill="rgb(32, 62, 99)"/>
<rect x="35" y="20" width="1" height="14" fill="url(#c)"/>
<rect x="38" y="20" width="1" height="14" fill="url(#b)"/>
<path d="M 36.49,17.985 H 37.5 V 37 H 36.5 V 18 Z" fill="url(#a)"/>
<path d="M 4.4953,29.342 L 5.08033,25.1668 C 5.09775,25.0575 5.1326,24.9997 5.17907,24.9997 S 5.26039,25.0318 5.33589,25.1989 L 6.87429,29.0149 L 8.50139,25.1539 C 8.54786,25.0511 8.5769,24.9997 8.62917,24.9997 C 8.68145,24.9997 8.7163,25.064 8.73373,25.1989 L 9.26228,29.1707 C 9.31456,29.5755 9.37264,29.7619 9.54689,29.8198 C 9.71533,29.8776 9.8315,29.884 9.90701,29.884 C 9.95928,29.884 9.99994,29.8904 9.99994,29.929 C 9.99994,29.9804 9.93024,29.9997 9.84892,29.9997 H 8.66982 C 8.53623,29.9868 8.50138,29.9676 8.50138,29.929 C 8.50138,29.8969 8.52461,29.8776 8.56527,29.8583 C 8.60012,29.8455 8.61755,29.7234 8.59432,29.5434 L 8.24582,26.5136 C 8.07637,26.897 7.27221,29.1707 6.82552,29.9933 C 6.26801,28.9094 5.65602,27.0658 5.28932,26.3349 L 4.94082,29.3442 C 4.9292,29.4599 4.92339,29.5434 4.92339,29.6462 C 4.92339,29.7683 4.9989,29.8262 5.09764,29.8519 C 5.20219,29.8776 5.28351,29.884 5.34159,29.884 C 5.38806,29.884 5.42872,29.8969 5.42872,29.929 C 5.42872,29.9868 5.37644,29.9997 5.28932,29.9997 H 4.67944 H 4.10442 C 4.04634,29.9997 3.99987,29.9868 3.99987,29.929 C 3.99987,29.8969 4.03472,29.884 4.0928,29.884 C 4.13927,29.884 4.17993,29.884 4.26705,29.8647 C 4.42969,29.8262 4.47615,29.5755 4.50519,29.357 Z" fill="rgb(254, 254, 253)"/>
<path d="M 10.99,28.451 V 27.5348 C 11,26.7306 11,26.5824 10.9876,26.4131 C 10.9693,26.1474 10.7846,26.0956 10.5541,26.0956 C 10.4922,26.0956 10.4551,26.0851 10.4551,26.0427 C 10.4551,26.011 10.5046,26.0004 10.6037,26.0004 H 11.8699 C 11.9504,26.0004 11.9999,26.011 11.9999,26.0427 C 11.9999,26.0851 11.9628,26.0956 11.9009,26.0956 C 11.6718,26.0956 11.5296,26.1551 11.5123,26.4131 C 11.4999,26.5824 11.4999,26.7306 11.4999,27.5348 V 28.466 C 11.4999,28.9792 11.4999,29.3972 11.5247,29.6247 C 11.5624,29.9147 11.8256,29.9052 12.0619,29.9052 C 12.13,29.9052 12.1609,29.921 12.1609,29.9475 C 12.1609,29.9845 12.1114,30.0004 12.0433,30.0004 H 10.5913 C 10.5108,30.0004 10.4675,29.9845 10.4675,29.9475 C 10.4675,29.921 10.4922,29.9052 10.5665,29.9052 C 10.7871,29.9052 10.9392,29.8659 10.969,29.6194 C 11,29.3972 11,28.9792 11,28.466 Z" fill="rgb(254, 254, 253)"/>
<path d="M 40.49,28.451 V 27.5348 C 40.5,26.7306 40.5,26.5824 40.4876,26.4131 C 40.4693,26.1474 40.3171,26.0956 40.0866,26.0956 C 40.0247,26.0956 39.9876,26.0851 39.9876,26.0427 C 39.9876,26.011 40.0371,26.0004 40.1362,26.0004 H 41.3962 C 41.4767,26.0004 41.5262,26.011 41.5262,26.0427 C 41.5262,26.0851 41.4891,26.0956 41.4272,26.0956 C 41.1981,26.0956 41.0296,26.1551 41.0123,26.4131 C 40.9999,26.5824 40.9999,26.7306 40.9999,27.5348 V 28.466 C 40.9999,28.9792 40.9999,29.3972 41.0247,29.6247 C 41.0624,29.9147 41.3519,29.9052 41.5882,29.9052 C 41.6563,29.9052 41.6872,29.921 41.6872,29.9475 C 41.6872,29.9845 41.6377,30.0004 41.5696,30.0004 H 40.1238 C 40.0433,30.0004 39.9999,29.9845 39.9999,29.9475 C 39.9999,29.921 40.0247,29.9052 40.099,29.9052 C 40.3196,29.9052 40.4392,29.8659 40.469,29.6194 C 40.5,29.3972 40.5,28.9792 40.5,28.466 Z" fill="rgb(254, 254, 253)"/>
<path d="M 14.99,28.479 V 26.3641 L 14.1183,26.3849 C 13.7751,26.3953 13.6331,26.4213 13.5444,26.5356 C 13.4852,26.6135 13.4556,26.6758 13.4438,26.7174 C 13.4319,26.7589 13.4142,26.7797 13.3787,26.7797 C 13.3373,26.7797 13.3254,26.7537 13.3254,26.6966 C 13.3254,26.6135 13.4379,26.1408 13.4497,26.0992 C 13.4675,26.0317 13.4852,26.0005 13.5207,26.0005 H 17.0384 C 17.0798,26.0005 17.0857,26.0317 17.0857,26.1096 C 17.0857,26.2187 17.068,26.5771 17.068,26.7122 C 17.0621,26.7641 17.0502,26.7953 17.0147,26.7953 C 16.9674,26.7953 16.9556,26.7693 16.9496,26.6914 L 16.9437,26.6343 C 16.9319,26.4992 16.7721,26.3901 16.2455,26.3797 L 15.4999,26.3641 V 28.494 C 15.4999,28.9719 15.4999,29.3823 15.5295,29.6057 C 15.5659,29.9034 15.8117,29.907 16.0621,29.907 C 16.1272,29.907 16.1567,29.9226 16.1567,29.9486 C 16.1567,29.9849 16.1094,30.0005 16.0443,30.0005 H 14.6095 C 14.5325,30.0005 14.4911,29.9849 14.4911,29.9486 C 14.4911,29.9226 14.5148,29.907 14.5858,29.907 C 14.8152,29.907 14.9411,29.8491 14.9704,29.6005 C 15,29.3823 15,28.9719 15,28.494 Z" fill="rgb(254, 254, 253)"/>
<path d="M 18.002,28.457 V 27.5541 C 18.012,26.7614 18.012,26.6154 18.0001,26.4485 C 17.9811,26.1647 17.7493,26.0939 17.5131,26.0939 C 17.4477,26.0939 17.4121,26.0834 17.4121,26.0469 S 17.4536,26 17.5428,26 H 20.4645 C 20.4942,26 20.5001,26.0209 20.5001,26.0469 C 20.5001,26.0834 20.4704,26.146 20.4526,26.3859 C 20.4467,26.4381 20.4348,26.6675 20.4229,26.7301 C 20.417,26.7562 20.4051,26.7875 20.3635,26.7875 S 20.31,26.7614 20.31,26.7145 C 20.31,26.678 20.3041,26.5893 20.2744,26.5267 C 20.2328,26.4329 20.1734,26.3703 19.8764,26.339 C 19.7754,26.3286 18.6605,26.3181 18.5417,26.3181 C 18.512,26.3181 18.5001,26.3338 18.5001,26.3703 V 27.6897 C 18.5001,27.7262 18.5061,27.7471 18.5417,27.7471 C 18.6724,27.7471 19.8467,27.7471 19.9833,27.7366 C 20.1259,27.7262 20.215,27.7106 20.2685,27.6584 C 20.31,27.6167 20.3338,27.5906 20.3635,27.5906 C 20.3873,27.5906 20.4051,27.601 20.4051,27.6323 S 20.3813,27.7471 20.3576,28.013 C 20.3516,28.1173 20.3338,28.3259 20.3338,28.3625 C 20.3338,28.4042 20.3338,28.4615 20.2803,28.4615 C 20.2388,28.4615 20.2269,28.4407 20.2269,28.4146 C 20.2209,28.3625 20.2209,28.2947 20.2031,28.2269 C 20.1734,28.1226 20.0902,28.0443 19.8704,28.0235 C 19.7576,28.013 18.6784,28.0078 18.5358,28.0078 C 18.5061,28.0078 18.5001,28.0287 18.5001,28.06 V 28.472 C 18.5001,28.6493 18.4942,29.1291 18.5001,29.2803 C 18.512,29.6402 19.0982,29.7184 19.7041,29.7184 C 19.8586,29.7184 20.1081,29.7184 20.2625,29.6558 C 20.417,29.5932 20.4883,29.4837 20.5298,29.2699 C 20.5417,29.2125 20.5536,29.1917 20.5952,29.1917 C 20.6427,29.1917 20.6427,29.2334 20.6427,29.2855 C 20.6427,29.4055 20.5952,29.7601 20.5655,29.8644 C 20.5239,30 20.4704,30 20.2447,30 H 17.6199 C 17.5427,30 17.5011,29.9844 17.5011,29.9478 C 17.5011,29.9218 17.5249,29.9061 17.5962,29.9061 C 17.831,29.9061 17.9434,29.8305 17.9823,29.5828 C 18.012,29.3638 18.012,28.9518 18.012,28.472 Z" fill="rgb(254, 254, 253)"/>
<path d="M 23.174,29.985 C 22.7677,30 22.4448,29.9643 22.1362,29.8673 C 22.0213,29.8316 21.9998,29.8061 21.9998,29.6939 C 21.9998,29.4133 22.0285,29.1071 22.0357,29.0255 C 22.0429,28.949 22.0644,28.8929 22.1218,28.8929 C 22.1864,28.8929 22.1936,28.9388 22.1936,28.9796 C 22.1936,29.0459 22.2223,29.1531 22.2582,29.2398 C 22.4161,29.6173 22.8395,29.7551 23.2845,29.7551 C 23.9304,29.7551 24.4998,29.4439 24.4998,29.1735 C 24.4998,28.9235 24.1386,28.6888 23.5429,28.3571 L 23.2127,28.1735 C 22.4232,27.7347 21.9998,27.3776 21.9998,26.9643 C 21.9998,26.4031 22.8108,26 23.8084,26 C 24.2749,26 24.5764,26.051 24.763,26.0867 C 24.8276,26.0969 24.8634,26.1122 24.8634,26.148 C 24.8634,26.2143 24.8347,26.3622 24.8347,26.7602 C 24.8347,26.8724 24.8132,26.9133 24.7558,26.9133 C 24.7055,26.9133 24.684,26.8827 24.684,26.8214 C 24.684,26.7755 24.6481,26.6173 24.4974,26.4847 C 24.3898,26.3878 24.1816,26.2347 23.7151,26.2347 C 23.184,26.2347 22.4998,26.4541 22.4998,26.7602 C 22.4998,26.9949 23.0261,27.1735 23.6218,27.4949 L 23.8228,27.602 C 24.6912,28.0663 24.9998,28.4184 24.9998,28.9031 C 24.9998,29.7838 23.8638,30 23.184,30 Z" fill="rgb(254, 254, 253)"/>
<path d="M 28.005999999999997,29.985 C 26.8016,30 26.0002,29.1422 26.0002,27.9388 C 26.0002,26.8383 26.7588,26 27.8693,26 C 28.1369,26 28.2966,26.0204 28.4952,26.051 C 28.6592,26.0765 28.7973,26.1224 28.9268,26.1378 C 28.9743,26.1429 28.9916,26.1684 28.9916,26.199 C 28.9916,26.2398 28.9786,26.301 28.97,26.4796 C 28.9614,26.648 28.9657,26.9286 28.957,27.0306 C 28.9527,27.1071 28.9441,27.148 28.9052,27.148 C 28.8707,27.148 28.8621,27.1071 28.8621,27.0357 C 28.8578,26.8776 28.8016,26.699 28.6937,26.5663 C 28.5513,26.3878 28.2146,26.25 27.8175,26.25 C 26.9095,26.25 26.5002,27.0983 26.5002,27.8878 C 26.5002,29.102 27.3901,29.7041 27.9685,29.7041 C 28.3527,29.7041 28.5858,29.6531 28.7585,29.4184 C 28.8319,29.3214 28.888,29.1735 28.9052,29.0816 C 28.9182,29 28.9268,28.9796 28.9614,28.9796 C 28.9916,28.9796 29.0002,29.0153 29.0002,29.0561 C 29.0002,29.1173 28.9484,29.5612 28.9052,29.7347 C 28.8837,29.8214 28.8664,29.8469 28.793,29.8827 C 28.6203,29.9643 28.2923,30 28.016,30 Z" fill="rgb(254, 254, 253)"/>
<path d="M 49.006,29.985 C 47.8016,30 47.0002,29.1422 47.0002,27.9388 C 47.0002,26.8383 47.7588,26 48.8693,26 C 49.1369,26 49.2966,26.0204 49.4952,26.051 C 49.6592,26.0765 49.7973,26.1224 49.9268,26.1378 C 49.9743,26.1429 49.9916,26.1684 49.9916,26.199 C 49.9916,26.2398 49.9786,26.301 49.97,26.4796 C 49.9614,26.648 49.9657,26.9286 49.957,27.0306 C 49.9527,27.1071 49.9441,27.148 49.9052,27.148 C 49.8707,27.148 49.8621,27.1071 49.8621,27.0357 C 49.8578,26.8776 49.8016,26.699 49.6937,26.5663 C 49.5513,26.3878 49.2146,26.25 48.8175,26.25 C 47.9095,26.25 47.5002,27.0983 47.5002,27.8878 C 47.5002,29.102 48.3901,29.7041 48.9685,29.7041 C 49.3527,29.7041 49.5858,29.6531 49.7585,29.4184 C 49.8319,29.3214 49.888,29.1735 49.9052,29.0816 C 49.9182,29 49.9268,28.9796 49.9614,28.9796 C 49.9916,28.9796 50.0002,29.0153 50.0002,29.0561 C 50.0002,29.1173 49.9484,29.5612 49.9052,29.7347 C 49.8837,29.8214 49.8664,29.8469 49.793,29.8827 C 49.6203,29.9643 49.2923,30 49.016,30 Z" fill="rgb(254, 254, 253)"/>
<path d="M 31.962999999999997,29.985 C 30.5678,30 29.9999,28.9031 29.9999,28 C 29.9999,27.1276 30.5531,26 32.0219,26 C 33.241,26 33.9999,26.7398 33.9999,27.9082 C 33.9999,29.0765 33.2165,30 31.973,30 Z M 32.1786,29.7449 C 32.5213,29.7449 33.4999,29.5714 33.4999,28.0969 C 33.4999,26.9541 32.6829,26.2449 31.8799,26.2449 C 31.3169,26.2449 30.4999,26.5714 30.4999,27.8418 C 30.4999,28.9031 31.2386,29.7449 32.1786,29.7449 Z" fill="rgb(254, 254, 253)"/>
<path d="M 42.99,27.091 V 29.3073 C 43.0123,29.7198 43.1364,29.9086 43.5458,29.9086 C 43.6112,29.9086 43.6468,29.9188 43.6468,29.9493 C 43.6468,29.9901 43.5933,30.0003 43.5101,30.0003 H 42.1308 C 42.0535,30.0003 42,29.9952 42,29.9493 C 42,29.9188 42.0357,29.9086 42.0951,29.9086 C 42.5296,29.9086 42.5415,29.6586 42.547,29.2513 L 42.6005,26.1735 C 42.6005,26.0716 42.6183,26.0003 42.6778,26.0003 C 42.7432,26.0003 42.7967,26.0665 42.8977,26.1583 C 43.4503,26.6713 45,28.0003 46,29.0003 V 26.5812 C 45.9941,26.2704 45.9596,26.1735 45.8169,26.1226 C 45.7277,26.092 45.585,26.092 45.5018,26.092 C 45.4304,26.092 45.4067,26.0767 45.4067,26.0462 C 45.4067,26.0054 45.4721,26.0003 45.5612,26.0003 H 46.8633 C 46.9405,26.0003 47,26.0054 47,26.0462 C 47,26.0767 46.9643,26.092 46.893,26.092 C 46.5975,26.092 46.5008,26.2439 46.4946,26.5404 L 46.4293,29.8423 C 46.4293,29.9544 46.4055,30.0003 46.352,30.0003 C 46.2866,30.0003 46.2152,29.9442 46.1498,29.8882 C 45.5709,29.4157 44,28.0003 43,27.106 Z" fill="rgb(254, 254, 253)"/>
<circle cx="51.5" cy="29.5" r=".5" fill="rgb(254, 254, 253)"/>
<defs>
<linearGradient id="c" x1="35.5" x2="35.5" y1="20" y2="34" gradientUnits="userSpaceOnUse">
<stop stop-color="rgb(104, 123, 149)" offset="0"/>
<stop stop-color="rgb(241, 244, 244)" offset=".26562"/>
<stop stop-color="rgb(242, 245, 245)" offset=".46875"/>
<stop stop-color="rgb(238, 241, 242)" offset=".83854"/>
<stop stop-color="rgb(126, 143, 165)" offset="1"/>
</linearGradient>
<linearGradient id="b" x1="38.5" x2="38.5" y1="20" y2="34" gradientUnits="userSpaceOnUse">
<stop stop-color="rgb(104, 123, 149)" offset="0"/>
<stop stop-color="rgb(241, 244, 244)" offset=".26562"/>
<stop stop-color="rgb(242, 245, 245)" offset=".46875"/>
<stop stop-color="rgb(238, 241, 242)" offset=".83854"/>
<stop stop-color="rgb(126, 143, 165)" offset="1"/>
</linearGradient>
<linearGradient id="a" x1="36.5" x2="36.5" y1="18" y2="37" gradientUnits="userSpaceOnUse">
<stop stop-color="rgb(104, 123, 149)" offset="0"/>
<stop stop-color="rgb(241, 244, 244)" offset=".26562"/>
<stop stop-color="rgb(242, 245, 245)" offset=".46875"/>
<stop stop-color="rgb(238, 241, 242)" offset=".83854"/>
<stop stop-color="rgb(126, 143, 165)" offset="1"/>
</linearGradient>
</defs>
</svg>
