<?xml version="1.0" encoding="UTF-8"?>
<!-- generated by Finnhub -->
<svg viewBox="0 0 55.5 55.5" xmlns="http://www.w3.org/2000/svg">
<path d="M 0,0 H 55.5 V 55.5 H 0 Z" fill="rgb(239, 242, 248)"/>
<path d="M 42.99,12.985 H 13 V 43 H 43 V 13 Z M 22.09,18 L 15.46,33 H 17.09 L 19.48,27 H 24.37 L 27.15,33.8 C 28.78,37.4 31.95,37.93 34.8,38 C 37.08,38.05 39.15,37.39 40,37.05 V 31 H 38 V 36.48 C 37.54,36.71 36.56,37 35.03,37 C 33.1,37 28.62,36.3 28.65,31.09 C 28.68,25.89 31.63,24.03 34.8,24 C 37.34,23.97 38.98,25.23 39.48,25.92 H 39.8 L 40.21,24.34 A 11.25,11.25 0 0,0 34.81,23 C 29.14,23.18 27.15,26.48 26.86,28.06 L 22.56,18 H 22.09 Z M 23.96,26 H 19.88 L 21.89,20.93 L 23.96,26 Z" fill="rgb(1, 84, 148)" fill-rule="evenodd"/>
</svg>
