<?xml version="1.0" encoding="UTF-8"?>
<!-- generated by Finnhub -->
<svg viewBox="0 0 55.5 55.5" xmlns="http://www.w3.org/2000/svg">
<path d="M 0,0 H 55.5 V 55.5 H 0 Z" fill="rgb(239, 242, 248)"/>
<path d="M 48.99,27.785 C 49,28.11 49,28.16 49.3,28.16 H 49.72 C 50.31,28.16 50.32,27.51 50.46,27.51 C 50.51,27.51 50.59,27.5 50.59,27.69 L 50.64,28.95 C 50.64,29.04 50.69,29.29 50.53,29.29 C 50.31,29.29 50.5,28.55 49.79,28.55 H 49.27 C 48.96,28.55 48.99,28.63 48.99,29.04 V 29.95 C 48.99,30.39 48.96,30.64 49.45,30.64 C 50.73,30.64 50.67,29.72 50.92,29.72 C 50.95,29.72 51,29.74 51,29.87 C 51,30.42 50.6,31 50.04,31 H 47.6 C 47.51,31 47.47,30.97 47.47,30.92 C 47.47,30.6 47.99,30.98 47.99,30.12 V 26.8 C 47.99,26.17 47.22,26.4 47.22,26.11 C 47.22,26.05 47.28,25.99 47.37,25.99 H 50.83 C 50.9,25.99 50.96,26.05 50.96,26.12 L 50.99,26.82 C 50.99,26.92 51.03,27.15 50.87,27.15 C 50.55,27.15 51.14,26.32 49.83,26.32 C 49,26.32 48.98,26.32 48.98,26.82 L 48.99,27.8 Z M 30.62,26.42 C 30.92,26.42 31,26.46 31,26.8 V 30.08 C 31,30.91 30.16,30.58 30.16,30.85 C 30.16,31 30.29,31 30.42,31 H 32.59 C 32.8,31 32.95,31.02 32.95,30.85 C 32.95,30.65 32,30.85 32,29.99 V 26.8 C 32,26.46 32.08,26.43 32.38,26.43 H 32.97 C 33.82,26.4 33.57,27.18 33.87,27.18 C 34.07,27.18 33.98,26.9 33.97,26.82 L 33.89,26.17 C 33.89,26.1 33.89,26 33.77,26 H 29.25 C 29.14,26 29.14,26.1 29.14,26.17 L 29.02,27.1 C 29,27.2 28.96,27.35 29.12,27.35 C 29.45,27.35 29.23,26.42 30.07,26.42 H 30.62 Z M 42,26.12 C 42,26.45 42.7,26 42.7,27.34 V 30.05 C 42.7,30.76 42.1,30.64 42.1,30.92 C 42.1,31 42.23,31 42.3,31 H 43.59 C 43.66,31 43.83,31 43.83,30.91 C 43.83,30.58 43,31.06 43,29.71 V 27.42 C 43,27.36 43.02,27.32 43.05,27.32 C 43.08,27.32 43.12,27.35 43.16,27.4 L 46.07,30.9 C 46.1,30.96 46.17,31 46.23,31 C 46.31,31 46.31,30.94 46.31,30.8 V 26.87 C 46.31,26.13 46.85,26.3 46.85,26.09 C 46.85,26.07 46.85,26 46.73,26 H 45.33 C 45.27,26 45.23,26.05 45.23,26.12 C 45.23,26.35 46,26.22 46,26.86 V 29.03 C 46,29.2 45.98,29.29 45.95,29.29 C 45.92,29.29 45.84,29.2 45.75,29.1 L 43.36,26.18 C 43.26,26.05 43.33,26 43.13,26 H 42.1 C 42.04,26 41.99,26.05 41.99,26.12 Z M 25.1,29.24 C 24.94,29.24 25.01,29.44 25.03,29.54 L 25.24,30.48 C 25.27,30.65 25.26,30.7 25.44,30.75 C 25.81,30.83 26.14,31 26.54,31 C 27.4,31 28,30.36 28,29.48 C 28,27.86 25.58,27.97 25.58,27.02 C 25.58,26.56 25.93,26.3 26.36,26.3 C 27.48,26.3 27.58,27.58 27.73,27.58 C 27.88,27.58 27.9,27.5 27.88,27.35 L 27.81,26.42 C 27.8,26.26 27.81,26.16 27.72,26.16 S 27.47,26.27 27.38,26.27 C 27.18,26.27 26.9,26 26.37,26 A 1.34,1.34 0 0,0 25.03,27.38 C 25.03,28.94 27.49,28.74 27.49,29.78 C 27.49,30.35 27.09,30.68 26.59,30.68 C 25.87,30.68 25.46,30.05 25.25,29.39 C 25.23,29.29 25.21,29.24 25.11,29.24 Z M 22.3,28.16 C 22,28.16 22,28.11 22,27.81 V 26.82 C 22,26.33 22.02,26.33 22.84,26.33 C 24.16,26.33 23.56,27.16 23.88,27.16 C 24.04,27.16 24,26.92 24,26.83 L 23.97,26.13 A 0.13,0.13 0 0,0 23.84,26 H 20.15 C 20.05,26 20,26.06 20,26.12 C 20,26.4 21,26.18 21,26.81 V 30.11 C 21,30.98 20.25,30.6 20.25,30.92 C 20.25,30.97 20.29,31 20.38,31 H 23.43 C 23.99,31 24.39,30.42 24.39,29.87 C 24.39,29.74 24.34,29.72 24.31,29.72 C 24.05,29.72 24.15,30.64 22.46,30.64 C 21.97,30.64 22,30.39 22,29.95 V 29.04 C 22,28.64 21.97,28.54 22.29,28.54 H 22.79 C 23.49,28.54 23.31,29.29 23.52,29.29 C 23.69,29.29 23.64,29.04 23.64,28.95 L 23.59,27.69 C 23.59,27.49 23.51,27.51 23.46,27.51 C 23.33,27.51 23.31,28.16 22.72,28.16 H 22.29 Z M 18.46,30.64 C 17.97,30.64 18,30.38 18,29.94 V 26.64 C 18,26.09 18.48,26.36 18.48,26.09 C 18.48,26 18.44,26 18.3,26 H 16.45 C 16.31,26 16.23,26.06 16.23,26.12 C 16.23,26.37 17,26.18 17,26.78 V 30.12 C 17,30.98 16.48,30.6 16.48,30.92 C 16.48,30.97 16.52,31 16.61,31 H 19.04 C 19.6,31 20,30.42 20,29.87 C 20,29.73 19.95,29.71 19.92,29.71 C 19.67,29.71 19.76,30.64 18.46,30.64 Z M 15.96,30.9 C 15.96,30.67 15,31 15,30.13 V 26.76 C 15,26.09 15.65,26.34 15.65,26.1 C 15.65,26.02 15.6,26 15.35,26 H 13.32 C 13.25,26 13.02,25.98 13.02,26.1 C 13.02,26.35 14,26.15 14,26.8 V 30.19 C 14,30.85 13.38,30.67 13.38,30.91 C 13.38,30.96 13.42,31.01 13.48,31 H 15.68 C 15.88,31 15.96,30.97 15.96,30.9 Z M 6.61,30.84 C 6.61,30.44 5.56,31.01 5.61,29.32 L 5.71,26.55 C 5.71,26.49 5.71,26.3 5.78,26.3 C 5.82,26.3 5.86,26.41 5.88,26.47 L 7.75,30.72 C 7.8,30.83 7.84,31 7.99,31 C 8.15,31 8.19,30.85 8.24,30.72 L 10.06,26.82 C 10.16,26.57 10.31,26.34 10.47,26.12 C 10.6,26.05 10.59,26.45 10.59,26.75 L 10.69,29.75 C 10.75,30.85 10,30.52 10,30.85 C 10,31.03 10.22,31 10.44,31 H 12.49 C 12.83,31 12.96,31 12.96,30.83 C 12.96,30.47 11.84,30.9 11.79,29.61 L 11.74,25.21 C 11.7,24.07 12.69,24.47 12.69,24.11 C 12.69,24.04 12.68,24 12.41,24 H 11.15 C 10.97,24 10.94,24.13 10.91,24.2 L 8.59,28.8 C 8.59,28.82 8.49,29 8.44,29 C 8.38,29 8.33,28.87 8.29,28.78 L 6.18,24.28 C 6.04,24 5.95,24 5.84,24 H 4.1 C 4.04,24 3.99,24.08 3.99,24.14 C 3.99,24.57 5.29,23.97 5.21,25.74 L 5.08,29.72 C 5.04,30.75 4.25,30.51 4.25,30.86 C 4.25,30.92 4.29,31 4.43,31 H 6.37 C 6.64,31 6.6,30.88 6.6,30.84 Z" fill="rgb(1, 75, 149)"/>
<path d="M 39.330000000000005,26.615 C 39.24,26.6 39.08,26.44 39.06,26.35 C 39.03,26.25 39.26,26.18 39.33,26.18 C 39.42,26.2 39.61,26.25 39.63,26.35 C 39.65,26.45 39.48,26.45 39.43,26.51 C 39.41,26.57 39.43,26.63 39.33,26.63 Z M 37.1,28.87 C 37.1,28.94 37.43,29.07 37.49,29.07 C 37.52,29.07 37.59,29.04 37.59,29 C 37.59,28.9 37.12,28.73 37.1,28.87 Z M 39.9,27.16 C 39.92,27.21 39.96,27.26 40.02,27.22 C 40.05,27.2 40.1,27.16 40.09,27.12 C 40.09,27.07 39.99,26.88 39.98,26.85 C 39.95,26.8 39.88,26.74 39.82,26.74 C 39.78,26.74 39.76,26.8 39.77,26.84 C 39.8,26.95 39.85,27.04 39.89,27.16 Z M 42,28.5 A 3.54,3.54 0 0,1 38.53,32 A 3.56,3.56 0 0,1 35,28.42 A 3.55,3.55 0 0,1 38.5,25 C 40.4,25 42,26.6 42,28.5 Z M 41.8,29.13 L 41.84,28.89 A 0.12,0.12 0 0,1 41.79,28.86 C 41.7,28.74 41.69,28.56 41.64,28.42 A 0.12,0.12 0 0,0 41.52,28.32 C 41.45,28.34 41.42,28.42 41.43,28.48 C 41.48,28.6 41.51,28.66 41.53,28.8 C 41.57,28.93 41.71,29.03 41.8,29.13 Z M 36.96,31.49 C 37.09,31.26 37.16,30.82 37.13,30.57 A 0.3,0.3 0 0,0 36.98,30.42 C 36.78,30.3 36.65,29.97 36.66,29.74 C 36.68,29.67 36.93,29.47 36.81,29.4 C 36.36,29.1 35.84,28.91 35.39,28.6 C 35.27,28.5 35.22,28.36 35.15,28.22 L 35.14,28.52 C 35.14,29.76 35.86,30.92 36.96,31.49 Z M 38.5,31.86 C 39.3,31.86 40.09,31.57 40.7,31.05 C 40.63,30.92 40.62,30.72 40.53,30.61 C 40.39,30.42 40.61,30.26 40.57,30.06 A 0.26,0.26 0 0,0 40.47,29.96 C 39.99,29.61 39.27,29.37 39.4,28.64 C 39.41,28.42 39.81,28.2 39.93,28.08 C 39.99,28.02 40.05,27.98 40.13,27.95 C 40.28,27.88 40.53,27.87 40.56,28.09 C 40.58,28.37 40.91,28.09 41.04,28.19 C 41.13,28.28 41.17,28.27 41.28,28.26 C 41.34,28.17 41.48,28.14 41.48,28.03 A 0.12,0.12 0 0,0 41.41,28.02 C 41.35,28.02 41.28,28.15 41.22,28.11 C 41.04,27.94 41.04,27.95 40.76,27.62 C 40.68,27.52 40.73,27.69 40.74,27.72 C 40.79,27.82 40.78,28.02 40.61,27.98 C 40.57,27.96 40.56,27.93 40.56,27.88 C 40.56,27.81 40.63,27.68 40.49,27.66 A 0.5,0.5 0 0,0 40.09,27.81 C 40.01,27.88 39.93,28.01 39.82,28.01 C 39.72,28.01 39.68,27.86 39.68,27.77 C 39.68,27.67 39.82,27.71 39.88,27.7 C 40.07,27.58 40.08,26.92 40.4,26.96 C 40.52,26.98 40.61,27.03 40.74,27 C 40.88,26.96 41.09,26.79 41.2,26.69 C 41.17,26.61 41.06,26.63 41,26.64 A 0.12,0.12 0 0,1 40.88,26.59 C 40.85,26.53 40.9,26.47 40.97,26.43 A 0.22,0.22 0 0,0 41.07,26.35 L 41,26.25 C 40.9,26.32 40.83,26.41 40.73,26.45 C 40.6,26.57 40.93,26.71 40.77,26.84 C 40.67,26.91 40.28,26.87 40.24,26.74 C 40.19,26.58 40.31,26.36 40.42,26.26 L 40.7,25.96 C 40.3,25.61 39.82,25.36 39.3,25.23 C 39.31,25.34 39.34,25.48 39.32,25.59 A 1.9,1.9 0 0,1 38.97,26.15 C 38.84,26.23 38.67,26.21 38.54,26.29 C 38.39,26.36 38.41,26.69 38.24,26.69 C 37.94,26.63 37.78,26.19 37.75,25.93 C 37.75,25.71 37.75,25.39 37.42,25.49 C 37.32,25.49 37.22,25.49 37.14,25.42 C 37.04,25.47 36.93,25.52 36.82,25.59 L 37.46,26.02 C 37.52,26.06 37.58,26.12 37.58,26.2 C 37.58,26.33 37.43,26.43 37.32,26.45 C 36.77,26.54 37.06,26.09 36.82,26.01 C 36.69,26.11 36.28,26.46 36.28,26.69 C 36.28,26.7 36.78,27.12 36.86,27.01 C 36.92,26.87 36.76,26.72 36.82,26.59 C 36.92,26.39 37.45,26.63 37.54,26.77 C 37.63,26.89 37.77,27.02 37.82,27.17 C 37.84,27.38 37.23,27.67 37.12,27.82 C 36.92,28.09 36.97,28.26 36.82,28.5 C 36.62,28.58 36.08,28.08 36.08,28.58 C 36.08,28.81 36.35,28.68 36.47,28.73 C 36.64,28.81 36.55,29.16 36.77,29.16 C 37.02,29.15 37.37,29.06 37.62,29.15 C 37.82,29.25 37.88,29.55 38.08,29.67 C 38.18,29.73 38.77,29.79 38.65,30.01 C 38.61,30.09 38.55,30.11 38.53,30.21 C 38.45,30.62 38.36,30.63 38.07,31 L 37.47,31.68 C 37.8,31.8 38.15,31.86 38.5,31.86 Z" fill="url(#a)"/>
<defs>
<linearGradient id="a" x1="36.02" x2="40.97" y1="26.03" y2="30.97" gradientUnits="userSpaceOnUse">
<stop stop-color="rgb(174, 178, 177)" offset="0"/>
<stop stop-color="rgb(207, 209, 208)" offset=".25"/>
<stop stop-color="rgb(192, 193, 192)" offset=".5"/>
<stop stop-color="rgb(213, 214, 213)" offset=".75"/>
<stop stop-color="rgb(172, 175, 174)" offset="1"/>
</linearGradient>
</defs>
</svg>
