<?xml version="1.0" encoding="UTF-8"?>
<!-- generated by Finnhub -->
<svg viewBox="0 0 55.5 55.5" xmlns="http://www.w3.org/2000/svg">
<path d="M 0,0 H 55.5 V 55.5 H 0 Z" fill="rgb(239, 242, 248)"/>
<path d="M 40.99,20.985 H 39.67 V 22.33 H 41 V 21 Z M 44.33,20 H 43 V 21.33 H 44.33 V 20 Z M 43.33,23 H 42 V 24.33 H 43.33 V 23 Z M 46,23 H 45 V 24 H 46 V 23 Z M 48.07,21.6 H 47.1 V 22.57 H 48.07 V 21.6 Z M 45.67,25.33 H 45 V 26 H 45.67 V 25.33 Z M 47.33,27.67 H 47 V 28 H 47.33 V 27.67 Z M 48,25 H 47 V 26 H 48 V 25 Z M 50,24 H 49 V 25 H 50 V 24 Z M 50,27 H 49 V 28 H 50 V 27 Z M 51.57,26 H 51 V 26.57 H 51.57 V 26 Z M 38,23 H 37 V 24 H 38 V 23 Z M 35.57,24.43 H 35 V 25 H 35.57 V 24.43 Z" fill="rgb(100, 186, 167)"/>
<path d="M 10.99,29.835 L 8.4,24 L 6,33 H 7.34 L 8.67,27.95 L 11,33 L 13.34,28 L 14.64,33 H 16 L 13.61,24 L 11.01,29.85 Z M 19,27 C 18.17,27 17.46,27.3 16.87,27.89 A 2.91,2.91 0 0,0 16,29.97 A 2.94,2.94 0 0,0 19,33 C 20.1,33 21,32.57 21.65,31.73 L 21.71,31.65 L 20.69,30.88 L 20.64,30.96 A 1.93,1.93 0 0,1 17.94,31.36 C 17.64,31.14 17.43,30.79 17.33,30.34 H 22 V 30.23 A 3.08,3.08 0 0,0 21.13,27.9 C 20.55,27.3 19.83,27 19.01,27 Z M 17.5,29.19 C 17.83,28.59 18.32,28.29 19.02,28.29 C 19.66,28.29 20.13,28.59 20.49,29.19 H 17.49 Z M 24.3,25 H 23 V 33 H 24.3 V 25 Z M 28.02,27 C 27.17,27 26.47,27.3 25.88,27.89 A 2.9,2.9 0 0,0 25,29.97 A 2.94,2.94 0 0,0 28,33 C 29.11,33 30,32.57 30.66,31.73 L 30.73,31.65 L 29.7,30.88 L 29.63,30.96 A 1.94,1.94 0 0,1 26.93,31.36 C 26.63,31.14 26.42,30.79 26.31,30.34 H 31 V 30.23 A 3.07,3.07 0 0,0 30.12,27.9 C 29.57,27.3 28.84,27 28.02,27 Z M 26.48,29.19 C 26.82,28.59 27.31,28.29 28.02,28.29 C 28.66,28.29 29.12,28.59 29.48,29.19 H 26.48 Z M 37.58,27 H 35.75 L 34.52,28.56 L 33.25,27 H 31.42 L 33.62,29.72 L 31,33 H 32.8 L 34.5,31 L 36.2,33 H 38 L 35.4,29.72 L 37.59,27 Z M 40.3,25 H 39 V 26 H 40.3 V 25 Z M 40.3,27 H 39 V 33 H 40.3 V 27 Z M 43.29,29.28 C 42.59,29 42.49,28.78 42.49,28.67 C 42.49,28.48 42.55,28.27 43.06,28.27 C 43.24,28.27 43.38,28.3 43.51,28.37 C 43.64,28.43 43.81,28.53 44.01,28.68 L 44.07,28.73 L 44.98,27.92 L 44.88,27.83 C 44.23,27.28 43.64,27 43.11,27 C 42.57,27 42.13,27.17 41.77,27.48 C 41.41,27.8 41.23,28.22 41.23,28.7 C 41.23,29.1 41.36,29.43 41.62,29.7 C 41.87,29.97 42.31,30.22 42.94,30.47 C 43.5,30.68 43.79,30.93 43.79,31.18 C 43.79,31.32 43.73,31.43 43.58,31.55 A 0.91,0.91 0 0,1 43.02,31.72 C 42.72,31.72 42.42,31.57 42.12,31.28 L 42.08,31.23 L 41,31.77 L 41.08,31.88 C 41.58,32.63 42.24,33 43.04,33 C 43.56,33 44.02,32.82 44.41,32.45 C 44.81,32.08 45,31.65 45,31.17 C 45,30.75 44.85,30.38 44.6,30.08 C 44.31,29.78 43.87,29.52 43.29,29.28 Z" fill="rgb(19, 54, 73)"/>
</svg>
