<?xml version="1.0" encoding="UTF-8"?>
<!-- generated by Finnhub -->
<svg viewBox="0 0 55.5 55.5" xmlns="http://www.w3.org/2000/svg">
<path d="M 0,0 H 55.5 V 55.5 H 0 Z" fill="rgb(239, 242, 248)"/>
<path d="M 37.29,22.305 A 172.45,172.45 0 0,0 28.2,8.1 A 0.28,0.28 0 0,0 27.88,8.03 A 0.28,0.28 0 0,0 27.78,8.1 A 171.24,171.24 0 0,0 18.7,22.33 C 13.27,32.76 13.84,42.31 20.16,46.65 C 20.35,46.78 20.55,46.89 20.76,46.98 C 20.79,47 20.83,47.01 20.87,47.01 A 0.27,0.27 0 0,0 21.12,46.84 A 0.29,0.29 0 0,0 21.07,46.54 C 17.92,43.19 18.77,36.16 23.37,27.7 C 24.19,26.2 25.14,24.72 26.06,23.3 L 28,20.17 C 28.58,21.17 29.25,22.2 29.94,23.27 C 30.86,24.71 31.81,26.19 32.62,27.67 C 37.22,36.14 38.07,43.17 34.92,46.51 A 0.28,0.28 0 0,0 35.05,46.97 C 35.11,46.99 35.17,46.98 35.23,46.96 C 35.44,46.86 35.64,46.75 35.83,46.62 C 42.15,42.29 42.73,32.74 37.3,22.31 Z" fill="rgb(180, 17, 25)"/>
<path d="M 33.57,34.315 C 32.98,32.85 30.71,27.39 30.2,26.59 A 0.28,0.28 0 0,0 29.97,26.46 A 0.27,0.27 0 0,0 29.74,26.59 C 29.37,27.17 28.45,29.34 28,30.43 A 42.53,42.53 0 0,0 26.26,26.59 A 0.29,0.29 0 0,0 26.03,26.47 A 0.28,0.28 0 0,0 25.79,26.59 C 25.29,27.38 23.03,32.85 22.42,34.33 C 20.27,39.65 20.51,44.53 23.04,46.77 L 23.3,46.97 C 23.34,46.99 23.39,47 23.44,47 A 0.27,0.27 0 0,0 23.64,46.9 A 0.28,0.28 0 0,0 23.66,46.55 C 22.62,45.15 22.96,39.13 25.96,34.61 L 27.74,39.58 A 0.3,0.3 0 0,0 28,39.74 A 0.28,0.28 0 0,0 28.26,39.58 L 30.04,34.61 C 33.04,39.13 33.36,45.15 32.34,46.55 A 0.28,0.28 0 0,0 32.51,47 C 32.58,47 32.64,47 32.7,46.96 C 32.79,46.91 32.88,46.84 32.96,46.77 C 35.49,44.54 35.73,39.67 33.57,34.33 Z" fill="rgb(1, 61, 124)"/>
</svg>
