<?xml version="1.0" encoding="UTF-8"?>
<!-- generated by Finnhub -->
<svg viewBox="0 0 55.5 55.5" xmlns="http://www.w3.org/2000/svg">
<path d="M 0,0 H 55.5 V 55.5 H 0 Z" fill="rgb(239, 242, 248)"/>
<path d="M 6.46,26.985 L 8.14,20 H 11.04 L 11.34,23.37 L 13.64,20 H 16.47 L 14.77,27 H 12.57 L 13.84,22.47 L 10.52,27 L 9.45,22.47 L 8.45,27 H 6.48 Z M 18.83,21 H 16.88 L 17.33,20 H 19.2 L 18.83,21 Z M 16.63,22 L 15.41,27 H 17.39 L 18.78,22 H 16.63 Z M 21.41,22.72 A 4.3,4.3 0 0,1 23.42,22 C 24.84,22 24.78,23.14 24.1,27 H 22.2 C 22.66,25.81 23.29,23.4 22.2,23.26 C 21.82,23.21 21.49,23.43 21.2,23.79 L 20.56,27 H 18.7 L 19.84,22 H 21.56 L 21.42,22.72 Z M 28.38,22 C 26.28,22 25.48,23.84 25.35,24.76 C 25.35,26.12 26.04,27 27.81,27 C 29.22,27 30.28,25.83 30.63,25.24 H 28.93 C 28.83,25.44 28.45,25.82 27.81,25.82 C 27.17,25.82 27.04,25.12 27.06,24.76 H 30.63 C 30.75,23.84 30.47,22 28.38,22 Z M 28.93,23.99 H 27.05 C 27.11,23.66 27.43,23 28.18,23 C 28.94,23 29,23.66 28.93,23.99 Z M 38,24.76 C 38.14,23.84 38.94,22 41.03,22 S 43.4,23.84 43.28,24.76 H 39.7 C 39.68,25.11 39.8,25.82 40.45,25.82 C 41.09,25.82 41.47,25.44 41.58,25.24 H 43.27 C 42.92,25.83 41.87,27 40.45,27 C 38.68,27 37.99,26.12 37.99,24.76 Z M 39.83,24 H 41.73 C 41.79,23.67 41.73,23 40.97,23 S 39.9,23.67 39.83,24 Z M 32.83,20 L 31,26.84 H 32.66 L 32.81,26.33 C 33.06,26.63 33.64,27 34.68,27 C 36.33,27 37.55,25.31 37.55,24.15 C 37.55,23.28 37.13,22.17 35.63,22.17 C 34.89,22.17 34.28,22.46 33.86,22.77 L 34.67,20 H 32.82 Z M 33.41,24.34 C 33.51,24.14 33.93,23.26 34.93,23.26 C 36.03,23.26 35.87,24.37 35.65,24.81 C 35.45,25.25 34.79,25.92 34.24,25.92 C 33.68,25.92 33.18,25.62 33.39,24.38 L 33.41,24.34 Z M 44.1,23.68 H 46.04 C 46.12,23.51 46.37,23.17 46.75,23.17 C 47.24,23.17 47.42,23.5 47.16,24.19 C 46.02,24.07 43.72,24.27 43.72,25.96 C 43.72,26.31 43.99,27 45.09,27 S 46.75,26.57 46.89,26.35 V 27 H 48.37 C 48.59,26.09 49.02,24.13 49.02,23.57 C 49.02,22.87 48.22,22 46.89,22 C 45.55,22 44.47,22.92 44.09,23.68 Z M 46.92,25.04 C 46.85,25.39 46.52,26.08 45.82,26.08 C 45.68,26.1 45.4,26.03 45.4,25.59 C 45.4,25.04 46.13,25.04 46.92,25.04 Z M 6.6,36 L 8.25,29 H 11.1 L 11.4,32.37 L 13.68,29 H 16.48 L 14.8,36 H 12.62 L 13.88,31.47 L 10.6,36 L 9.54,31.47 L 8.56,36 H 6.6 Z M 47.76,30 H 45.9 L 46.18,29 H 48.09 L 47.76,30 Z M 45.62,31 L 44.52,36 H 46.3 L 47.54,31 H 45.62 Z M 17.07,30 H 18.93 L 19.3,29 H 17.45 L 17.07,30 Z M 15.55,36 L 16.9,31 H 18.88 L 17.51,36 H 15.55 Z M 37.58,30.84 C 38.21,30.39 38.94,30 39.55,30 C 40.18,30 40.51,30.28 40.63,31 C 41.31,30.48 42.13,30 42.81,30 C 44.42,30 44.27,30.98 43.77,34.11 L 43.5,36 H 41.6 C 41.7,35.52 41.82,35.05 41.92,34.62 C 42.35,32.81 42.67,31.52 41.6,31.52 C 41.25,31.52 40.93,31.77 40.66,32.15 C 40.62,33.05 40.46,34.31 40.21,36 H 38.34 C 38.44,35.35 38.56,34.78 38.66,34.28 C 39.01,32.48 39.17,31.65 38.34,31.52 C 37.97,31.45 37.64,31.72 37.36,32.12 L 36.72,35.97 H 34.87 L 36,30.12 H 37.7 L 37.58,30.84 Z M 20.33,29 C 19.93,30.77 19.16,34.48 19.22,35.12 C 19.3,35.92 19.82,36 20.62,36 C 21.26,36 21.65,35.9 21.77,35.84 L 22.17,34.51 C 21.73,34.63 20.89,34.71 20.93,34.1 C 20.96,33.75 21.17,32.68 21.41,31.54 H 22.73 L 23.1,30.27 H 21.68 L 21.97,29 H 20.33 Z M 26.33,31.67 H 28.18 C 28.18,30.91 27.72,30 25.96,30 C 23.77,30 23.55,31.8 23.55,32.1 C 23.55,32.41 24,33.27 24.95,33.4 C 25.72,33.52 25.95,33.92 25.96,34.11 C 25.94,34.29 25.78,34.65 25.36,34.65 C 24.82,34.65 24.68,34.25 24.68,34.07 H 22.95 C 22.95,34.71 23.41,36 25.21,36 C 27.44,36 27.81,34.27 27.89,33.94 V 33.93 C 27.96,33.63 27.64,32.56 26.24,32.33 C 25.93,32.28 25.3,32.07 25.3,31.67 C 25.3,31.18 25.64,31.13 25.84,31.13 S 26.32,31.23 26.32,31.67 Z M 28.73,34.58 L 29.5,30 H 31.34 A 90.3,90.3 0 0,0 30.52,33.64 C 30.47,34.07 30.54,34.41 31.2,34.41 C 31.73,34.41 32,34.02 32.08,33.83 L 32.85,30 H 34.88 L 33.69,36 H 32.17 L 31.93,34.87 A 2.07,2.07 0 0,1 30.04,36 C 28.92,36 28.7,35.05 28.74,34.58 Z" fill="rgb(1, 77, 166)"/>
</svg>
