<?xml version="1.0" encoding="UTF-8"?>
<!-- generated by Finnhub -->
<svg viewBox="0 0 55.5 55.5" xmlns="http://www.w3.org/2000/svg">
<path d="M 0,0 H 55.5 V 55.5 H 0 Z" fill="rgb(1, 168, 76)"/>
<path d="M 40.49,28.985 L 42.043,24 H 45.321 S 45.785,23.956 45.983,24.352 L 47.434,29 H 40.5 Z M 47.768,22 H 37 V 24 H 39.385 L 35.859,33.991 L 39,34 L 40,31 H 48 L 49,34 L 52,33.991 L 47.768,22.001 Z M 35.007,22 H 25.262 C 23.358,22 23,23.82 23,23.82 V 26.945 S 22.908,27.697 23.602,28.349 C 24.328,29.029 25.207,29 25.207,29 H 32.611 S 32.787,29.048 32.919,29.171 C 32.993,29.242 33,29.385 33,29.443 V 31.623 S 32.993,31.805 32.91,31.891 C 32.829,31.975 32.635,32 32.635,32 H 24 V 33.991 L 32.968,33.999 S 33.804,34.037 34.4,33.519 C 34.974,33.019 35,32.265 35,32.265 V 28.7 S 35.029,28.28 34.406,27.677 C 33.63,26.925 32.99,27 32.99,27 H 25.352 C 24.972,26.944 25,26.625 25,26.625 V 24.377 S 25.013,24.188 25.097,24.105 C 25.222,23.977 25.371,24 25.371,24 H 35 L 35.007,22 Z M 23,31.56 L 21.832,31.548 C 21.595,31.548 21.48,31.472 21.45,31.228 C 21.414,30.954 20.328,22 20.328,22 H 15.63 L 13.72,28.987 L 12.977,31.512 L 12.297,29.046 L 10.37,22 H 5.66 L 4,33.991 H 6.779 L 8.045,24 H 8.545 L 11.459,33.991 H 14.333 L 17.393,24 H 17.87 L 18.802,32.23 S 18.855,32.843 19.466,33.447 C 19.983,33.955 20.702,33.991 20.702,33.991 L 23,34.01 V 31.56 Z" fill="rgb(254, 254, 253)"/>
</svg>
