<?xml version="1.0" encoding="UTF-8"?>
<!-- generated by Finnhub -->
<svg viewBox="0 0 55.5 55.5" xmlns="http://www.w3.org/2000/svg">
<path d="M 0,0 H 55.5 V 55.5 H 0 Z" fill="url(#a)"/>
<path d="M 7.49,19.985 V 21 H 9 V 25 H 10 V 21 H 11.5 V 20 H 7.5 Z M 7.5,32 V 33 H 9 V 37 H 10 V 33 H 11.5 V 32 H 7.5 Z M 26.5,27 V 26 H 30.5 V 27 H 29 V 31 H 28 V 27 H 26.5 Z M 26.5,32 V 33 H 28 V 37 H 29 V 33 H 30.5 V 32 H 26.5 Z M 48,27 H 46.5 V 31 H 44.95 L 43,27.57 V 31 H 42 V 26 H 43.34 L 45.5,29.87 V 26 H 50.5 V 27 H 49 V 31 H 48 V 27 Z M 12,20 V 25 H 13 V 23 H 15 V 25 H 16 V 20 H 15 V 22 H 13 V 20 H 12 Z M 17,20 V 25 H 20.5 V 24 H 18 V 23 H 20 V 22 H 18 V 21 H 20.5 V 20 H 17 Z M 19,31 V 26 H 22.5 V 27 H 20 V 28 H 22 V 29 H 20 V 30 H 22.5 V 31 H 19 Z M 38,26 V 31 H 41.5 V 30 H 39 V 29 H 41 V 28 H 39 V 27 H 41.5 V 26 H 38 Z M 23,20 V 25 H 24 V 21.74 L 25.38,25 H 26.57 L 28,21.74 V 25 H 29 V 20 H 27.51 L 26.01,23.83 L 24.5,20 H 23 Z M 31,31 V 26 H 32.5 L 34.01,29.83 L 35.51,26 H 37 V 31 H 36 V 27.74 L 34.57,31 H 33.37 L 32,27.74 V 31 H 31 Z M 36.84,20 H 35.5 V 25 H 36.5 V 21.57 L 38.45,25 H 40 V 20 H 39 V 23.87 L 36.84,20 Z M 9,26 V 31 H 10 V 27.57 L 11.95,31 H 13.5 V 26 H 12.5 V 29.87 L 10.34,26 H 9 Z M 35,22.5 A 2.5,2.5 0 1,1 30,22.5 A 2.5,2.5 0 0,1 35,22.5 Z M 34,22.5 A 1.5,1.5 0 1,1 31,22.5 A 1.5,1.5 0 0,1 34,22.5 Z M 48.81,21.65 H 47.61 C 47.61,21.08 47.2,21 47,21 S 46.29,21 46.29,21.47 C 46.29,21.82 46.96,21.93 47.39,22 L 47.46,22.01 C 48.7,22.31 49.01,22.91 49,23.5 C 48.99,24.09 48.56,25 46.94,25 S 44.97,23.83 45,23.24 H 46.1 C 46.1,23.84 46.76,23.98 46.94,23.98 H 46.97 C 47.19,23.98 47.81,23.99 47.81,23.53 C 47.81,23.19 47.41,23.09 46.81,22.94 L 45.99,22.72 C 45.17,22.45 44.99,21.76 45,21.52 C 45.06,21.02 45.52,20 46.94,20 A 1.78,1.78 0 0,1 48.81,21.65 Z M 25.31,27.65 H 26.51 A 1.78,1.78 0 0,0 24.64,26 C 23.22,26 22.76,27.02 22.7,27.53 C 22.69,27.76 22.87,28.45 23.7,28.72 C 23.99,28.82 24.26,28.88 24.5,28.94 C 25.11,29.09 25.51,29.19 25.51,29.54 C 25.51,29.99 24.89,29.99 24.67,29.98 H 24.64 C 24.46,29.98 23.8,29.84 23.8,29.24 H 22.7 C 22.67,29.83 23.02,31 24.64,31 C 26.26,31 26.69,30.09 26.7,29.5 C 26.71,28.91 26.4,28.3 25.16,28.01 H 25.1 C 24.66,27.93 23.99,27.82 23.99,27.47 C 23.99,27 24.5,27 24.7,27 C 24.9,27 25.3,27.08 25.3,27.65 Z M 25.81,33.65 H 24.61 C 24.61,33.08 24.2,33 24,33 S 23.29,33 23.29,33.47 C 23.29,33.82 23.96,33.93 24.39,34 L 24.46,34.01 C 25.7,34.31 26.01,34.91 26,35.5 C 25.99,36.09 25.56,37 23.94,37 S 21.97,35.83 22,35.24 H 23.1 C 23.1,35.84 23.76,35.98 23.94,35.98 H 23.97 C 24.19,35.98 24.81,35.99 24.81,35.53 C 24.81,35.19 24.41,35.09 23.81,34.94 L 22.99,34.72 C 22.17,34.45 21.99,33.76 22,33.52 C 22.06,33.02 22.52,32 23.94,32 A 1.78,1.78 0 0,1 25.81,33.65 Z M 42,25 H 41 V 20 H 42 V 21.8 L 43.71,20 H 45 L 42.86,22.13 L 45,24.98 H 43.7 L 42.26,22.88 L 41.99,23.19 V 25 Z M 7,31 V 26 H 8 V 31 H 7 Z M 14,26 L 15.44,31 H 16.85 L 18.5,26 H 17.5 L 16.21,29.96 L 15.07,26 H 14 Z M 12,37 V 32 H 14.4 C 15.28,32 16,32.63 16,33.5 C 16,34 15.76,34.42 15.4,34.69 C 15.81,34.85 15.97,35.21 16,35.41 V 36.4 C 16,36.6 16.25,36.89 16.36,37 H 15 V 35.83 C 15,35.47 14.67,35.1 14.23,35 H 13 V 37 H 12 Z M 13,33 V 34 H 14.43 C 14.74,34 15,33.78 15,33.5 S 14.74,33 14.43,33 H 13 Z M 33,32 V 37 H 34 V 35 H 35.4 C 36.29,35 37,34.37 37,33.5 S 36.29,32 35.4,32 H 33 Z M 35.43,34 H 34 V 33 H 35.43 C 35.74,33 36,33.22 36,33.5 S 35.74,34 35.43,34 Z M 17,35.4 V 32 H 18 V 35.1 C 18,35.52 18.45,36 19.25,36 S 20.5,35.52 20.5,35.1 V 32 H 21.5 V 35.4 C 21.5,36.28 20.72,37 19.75,37 H 18.75 C 17.78,37 17,36.28 17,35.4 Z M 38,32 V 37 H 41 V 36 H 39 V 32 H 38 Z M 45.28,35.5 A 2.24,2.24 0 0,1 43.23,37 C 42,37 41,35.88 41,34.5 S 42,32 43.23,32 C 44.15,32 44.93,32.62 45.28,33.5 H 44.27 C 44.03,33.2 43.68,33 43.3,33 C 42.58,33 42,33.67 42,34.5 S 42.58,36 43.3,36 C 43.69,36 44.03,35.8 44.27,35.5 H 45.28 Z" fill="rgb(254, 254, 253)" fill-rule="evenodd"/>
<defs>
<linearGradient id="a" x1="10.42" x2="68.15" y1="9.71" y2="76.02" gradientUnits="userSpaceOnUse">
<stop stop-color="rgb(25, 29, 31)" offset="0"/>
<stop stop-color="rgb(5, 5, 8)" offset="1"/>
</linearGradient>
</defs>
</svg>
