<?xml version="1.0" encoding="UTF-8"?>
<!-- generated by Finnhub -->
<svg viewBox="0 0 55.5 55.5" xmlns="http://www.w3.org/2000/svg">
<path d="M 0,0 H 55.5 V 55.5 H 0 Z" fill="url(#a)"/>
<path d="M 27.869999999999997,11.445 C 28.59,12.27 28.93,13.25 29,13.96 V 21.95 C 29,22.51 28.55,23 28,23 S 27,22.5 27,21.95 V 20.48 C 26.68,20.21 26.2,19.91 25.62,19.76 A 2.85,2.85 0 0,0 23.15,20.26 A 1,1 0 1,1 22,18.63 A 4.85,4.85 0 0,1 27,18.13 V 14.1 A 2.59,2.59 0 0,0 26.38,12.79 C 26,12.35 25.4,11.99 24.45,12 A 2.3,2.3 0 0,0 22.31,13.25 C 21.91,13.99 21.81,14.85 21.81,15.2 V 16.08 L 20.93,16.19 C 20.13,16.3 18.84,16.77 17.95,17.77 C 17.22,18.58 16.66,19.84 16.96,21.79 A 5.85,5.85 0 0,1 21.38,22.61 A 1,1 0 0,1 20.22,24.24 C 19.01,23.38 17.55,23.69 16.55,23.91 C 15.49,24.54 13.73,25.94 14.04,28.71 A 3.6,3.6 0 0,0 15.14,31.14 C 15.88,31.79 16.94,32.02 17.94,32 C 17.54,31.13 17.27,30 17.46,28.68 A 1,1 0 1,1 19.44,28.96 C 19.21,30.56 20,31.71 20.34,32.02 C 20.69,32.36 21.94,33.27 23.62,33.79 A 1,1 0 1,1 23.04,35.69 C 21.42,35.2 20.12,34.4 19.39,33.84 A 7.29,7.29 0 0,1 15.05,33.44 C 14.85,34.39 14.8,35.49 15.11,36.49 C 15.52,37.83 16.63,39.16 19.38,39.67 C 20.45,39.65 21.42,39.37 22.06,38.57 A 1,1 0 1,1 23.62,39.84 A 4.96,4.96 0 0,1 20.39,41.59 C 20.48,41.89 20.62,42.23 20.83,42.55 C 21.26,43.17 22.03,43.8 23.47,44.01 A 1,1 0 1,1 23.18,45.99 A 5.6,5.6 0 0,1 19.18,43.68 C 18.68,42.95 18.43,42.17 18.34,41.48 C 15.39,40.76 13.82,39.08 13.2,37.08 C 12.65,35.34 12.9,33.48 13.33,32.13 A 5.85,5.85 0 0,1 12.05,28.93 A 6.6,6.6 0 0,1 15.05,22.5 C 14.53,19.8 15.23,17.8 16.46,16.43 A 7.13,7.13 0 0,1 19.87,14.37 C 19.97,13.77 20.17,13 20.57,12.28 A 4.28,4.28 0 0,1 24.41,10 A 4.38,4.38 0 0,1 27.87,11.46 Z M 30.58,10.91 A 1,1 0 0,1 31.67,10.01 C 32.47,10.08 33.63,10.41 34.55,11.25 C 35.35,11.97 35.92,13.01 35.95,14.39 C 37.08,14.69 38.45,15.26 39.51,16.36 C 40.81,17.71 41.47,19.69 40.86,22.43 A 6.38,6.38 0 0,1 43.6,25.65 C 44.3,27.54 44.16,29.92 42.5,32.66 C 42.83,34.18 42.88,36.22 42.2,37.99 A 5.62,5.62 0 0,1 40.22,40.6 A 5.9,5.9 0 0,1 37.44,41.61 A 5.77,5.77 0 0,1 36.84,43.57 A 4.33,4.33 0 0,1 35.24,45.28 C 34.47,45.74 33.51,46 32.33,46 A 4.76,4.76 0 0,1 27.95,43.54 A 8.53,8.53 0 0,1 27,39.43 H 29 C 29,40.46 29.18,41.66 29.69,42.56 C 30.16,43.38 30.92,44 32.33,44 C 33.21,44 33.8,43.8 34.21,43.57 C 34.61,43.32 34.88,43 35.08,42.63 C 35.27,42.27 35.38,41.89 35.43,41.55 A 6.29,6.29 0 0,1 32.24,39.92 A 1,1 0 1,1 33.66,38.5 A 4.5,4.5 0 0,0 39.06,38.97 C 39.64,38.56 40.06,37.97 40.33,37.27 C 40.89,35.83 40.8,34.02 40.45,32.76 L 40.33,32.32 L 40.58,31.94 C 42.2,29.46 42.2,27.61 41.73,26.36 A 4.3,4.3 0 0,0 39.34,23.91 L 39.19,23.85 L 39.1,23.78 C 39.09,23.78 39,23.74 38.82,23.7 A 5.6,5.6 0 0,0 37.9,23.61 A 4.45,4.45 0 0,0 36.09,23.87 A 1,1 0 1,1 35.22,22.07 C 36.02,21.68 37.1,21.59 37.95,21.61 C 38.31,21.62 38.65,21.65 38.97,21.71 C 39.35,19.71 38.8,18.5 38.07,17.74 A 5.46,5.46 0 0,0 35.59,16.37 C 35.08,17.38 33.92,18.47 31.84,19.04 A 1,1 0 1,1 31.31,17.11 C 33.6,16.48 33.9,15.28 33.91,15.16 V 15.06 C 34.08,13.85 33.68,13.16 33.21,12.73 A 3.16,3.16 0 0,0 31.48,12 A 1,1 0 0,1 30.58,10.9 Z M 35.62,32.81 C 33.95,33.64 32.75,33.83 31.92,33.74 A 2.72,2.72 0 0,1 29.97,32.67 A 5.01,5.01 0 0,1 29.13,30.93 C 29.01,30.5 28.99,30.03 28.61,29.75 A 1,1 0 0,0 27.31,29.83 C 27.07,30.06 27,30.37 27,30.69 V 39.43 H 29 V 34.55 C 29.67,35.15 30.55,35.61 31.71,35.73 C 33.01,35.87 34.56,35.55 36.41,34.64 C 36.67,35.02 36.97,35.39 37.34,35.76 A 1,1 0 0,0 38.75,34.34 A 4.54,4.54 0 0,1 37.74,32.89 A 2.99,2.99 0 0,1 37.52,31.33 C 37.64,30.45 38.12,29.7 38.52,29.31 A 1,1 0 0,0 37.12,27.88 A 5.64,5.64 0 0,0 35.54,31.08 C 35.47,31.63 35.49,32.21 35.62,32.8 Z M 24.4,25.58 C 24.13,25.91 24,26.32 24,26.64 V 30 A 1,1 0 0,1 22,30 V 26.65 C 22,25.87 22.3,25 22.85,24.32 A 3.33,3.33 0 0,1 25.47,23.09 C 26.58,23.09 27.44,23.53 28.03,24.18 A 3.3,3.3 0 0,1 30.5,23.08 C 31.69,23.08 32.6,23.62 33.2,24.44 C 33.76,25.22 34,26.2 34,27.14 V 30 A 1,1 0 0,1 32,30 V 27.14 C 32,26.51 31.84,25.97 31.58,25.61 A 1.24,1.24 0 0,0 30.5,25.09 C 30.02,25.09 29.66,25.31 29.4,25.65 C 29.11,26.02 29,26.45 29,26.65 V 27.75 A 1,1 0 0,1 27,27.75 V 26.65 C 27,25.85 26.43,25.09 25.47,25.09 C 24.99,25.09 24.64,25.29 24.4,25.59 Z" fill="rgb(3, 26, 69)"/>
<defs>
<linearGradient id="a" x1="7.19" x2="47.86" y1="9.61" y2="46.44" gradientUnits="userSpaceOnUse">
<stop stop-color="rgb(64, 168, 220)" offset="0"/>
<stop stop-color="rgb(233, 159, 183)" offset="1"/>
</linearGradient>
</defs>
</svg>
