<?xml version="1.0" encoding="UTF-8"?>
<!-- generated by Finnhub -->
<svg viewBox="0 0 55.5 55.5" xmlns="http://www.w3.org/2000/svg">
<path d="M 0,0 H 55.5 V 55.5 H 0 Z" fill="url(#b)"/>
<path d="M 27.97,11.985 L 12,16.48 L 27.98,25.83 L 44,16.48 L 27.98,12 Z" fill="rgb(56, 166, 120)"/>
<path d="M 20.24,22.875 L 12,25.7 L 27.98,35.05 L 44,25.7 L 35.71,22.87 C 35.14,23.25 33.37,24.29 31.67,25.28 C 29.82,26.38 28.06,27.41 28.06,27.46 C 28.06,27.49 27.28,27.02 26.16,26.34 C 24.5,25.34 22.07,23.87 20.26,22.88 Z" fill="rgb(59, 175, 174)"/>
<path d="M 34.29,22.125 L 28.06,19.69 L 21.4,21.98 L 27.98,25.83 L 34.31,22.13 Z" fill="rgb(39, 146, 103)"/>
<path d="M 19.5,31.785 L 12,34.84 L 27.98,46 L 44,34.85 L 36.56,31.83 C 35.57,32.43 34,33.35 32.48,34.24 C 30.24,35.56 28.12,36.81 28.12,36.87 C 28.12,36.91 27.18,36.35 25.82,35.52 C 24.06,34.45 21.57,32.95 19.51,31.79 Z" fill="url(#a)"/>
<path d="M 34.730000000000004,31.095 C 32.84,30.38 29.87,29.21 28.08,28.5 L 20.96,30.95 L 27.98,35.05 L 34.74,31.11 Z" fill="rgb(42, 142, 139)"/>
<defs>
<linearGradient id="b" x1="28" x2="28" y2="56" gradientUnits="userSpaceOnUse">
<stop stop-color="rgb(10, 87, 96)" offset="0"/>
<stop stop-color="rgb(13, 101, 104)" offset="1"/>
</linearGradient>
<linearGradient id="a" x1="28" x2="28" y1="31.79" y2="46" gradientUnits="userSpaceOnUse">
<stop stop-color="rgb(47, 166, 221)" offset="0"/>
<stop stop-color="rgb(59, 155, 206)" offset="1"/>
</linearGradient>
</defs>
</svg>
