<?xml version="1.0" encoding="UTF-8"?>
<!-- generated by Finnhub -->
<svg viewBox="0 0 55.5 55.5" xmlns="http://www.w3.org/2000/svg">
<path d="M 0,0 H 55.5 V 55.5 H 0 Z" fill="rgb(239, 242, 248)"/>
<path d="M 3.99,22.985 V 29 H 5 V 24.57 L 7.23,27.54 L 9.5,24.57 V 29 H 10.5 V 23 H 9.28 L 7.23,25.88 L 5.25,23 H 4 Z M 14.16,30.77 A 3.4,3.4 0 0,0 16.88,25.42 L 16.42,26.07 A 2.66,2.66 0 0,1 14.16,30.03 A 2.62,2.62 0 0,1 11.56,27.39 A 2.62,2.62 0 0,1 14.16,24.75 C 14.63,24.75 15.06,24.87 15.45,25.09 L 15.95,24.53 A 3.28,3.28 0 0,0 14.16,24 A 3.4,3.4 0 0,0 11.59,29.55 L 10.97,30.19 L 10.78,30.01 L 8.5,32.3 L 9.2,33.01 L 11.47,30.75 L 11.34,30.62 L 11.97,29.95 A 3.3,3.3 0 0,0 14.17,30.78 Z M 18,29 V 24 H 19 V 25.03 C 19.22,24.61 19.77,24 20.74,24 C 22.11,24 22.5,25 22.5,25.86 V 29 H 21.5 V 26.01 A 1.18,1.18 0 0,0 20.32,25 C 19.33,25 19.06,25.77 19,26.15 V 29 H 18 Z M 24.1,27 H 27.99 C 28.08,26.05 27.72,24 25.55,24 S 22.95,25.76 23,26.64 C 23.07,27.43 23.68,29 25.67,29 A 2.9,2.9 0 0,0 27.78,28.12 L 27.07,27.57 C 26.9,27.77 26.39,28 25.67,28 C 24.77,28 24.26,27.72 24.1,27 Z M 24.13,26 H 26.93 C 26.88,25.67 26.53,25 25.53,25 C 24.54,25 24.18,25.67 24.13,26 Z M 28.72,24 H 27.57 L 29.67,29.43 V 29.45 C 29.59,29.65 29.34,30.05 28.92,30.05 C 28.51,30.05 28.3,29.93 28.26,29.86 L 27.89,30.68 C 27.99,30.78 28.36,31 29.09,31 C 29.99,31 30.32,30.34 30.48,29.99 C 30.61,29.7 31.99,25.88 32.66,24 H 31.53 L 30.16,28 L 28.72,24 Z" fill="rgb(6, 106, 154)" fill-rule="evenodd"/>
<path d="M 33.99,22.985 H 33 V 29 H 34 V 26.5 H 37 V 29 H 38 V 23 H 37 V 25.5 H 34 V 23 Z M 43.49,27 H 39.6 C 39.73,27.57 40.27,28 41.17,28 C 41.89,28 42.4,27.77 42.57,27.57 L 43.28,28.12 A 2.9,2.9 0 0,1 41.17,29 A 2.55,2.55 0 0,1 38.5,26.64 C 38.45,25.76 38.88,24 41.05,24 S 43.58,26.05 43.49,27 Z M 42.43,26 H 39.63 C 39.68,25.67 40.04,25 41.03,25 C 42.03,25 42.38,25.67 42.43,26 Z M 45,24 H 44 V 29 H 45 V 26.64 A 1.99,1.99 0 0,1 47,25.12 V 24 C 45.97,24 45.3,24.7 45,25.2 V 24 Z M 52,26.5 A 2.5,2.5 0 1,1 47,26.5 A 2.5,2.5 0 0,1 52,26.5 Z M 51,26.5 A 1.5,1.5 0 1,1 48,26.5 A 1.5,1.5 0 0,1 51,26.5 Z" fill="rgb(118, 169, 65)" fill-rule="evenodd"/>
<path d="M 14.28,28.985 C 13.92,27.9 12.61,26.52 12,25.96 C 12.44,25.98 13.52,26.16 14.29,26.73 C 16.8,23.76 18.33,23.01 18.79,23 C 17.49,23.94 15.25,27.4 14.29,29 Z" fill="rgb(118, 169, 65)"/>
</svg>
