<?xml version="1.0" encoding="UTF-8"?>
<!-- generated by Finnhub -->
<svg viewBox="0 0 55.5 55.5" xmlns="http://www.w3.org/2000/svg">
<path d="M 0,0 H 55.5 V 55.5 H 0 Z" fill="rgb(239, 242, 248)"/>
<path d="M 19.99,21.105 C 20.08,21.75 20.3,23.28 20.6,24.32 C 20.98,25.6 21.3,28.51 21.36,29.32 C 21.41,29.97 21.93,32.66 22.18,33.92 C 22.61,34.38 23.69,35.3 24.54,35.3 C 25.39,35.3 25.88,33.87 26.02,33.16 C 26.19,32.5 26.62,31.06 26.99,30.56 C 27.46,29.93 28.05,26.68 28.23,24.16 C 28.64,25.26 29.23,30.16 28.23,40.84 C 29.13,41.98 31.09,43.58 31.8,40.84 C 32.03,39.66 32.5,37.21 32.6,36.83 C 32.72,36.35 33.44,33.16 33.37,31.15 C 33.8,28.53 34.49,21.83 33.87,15.97 C 34.89,17.85 36.41,25.46 34.37,40.84 C 34.12,42.97 34.11,47.18 36.03,46.98 C 36.49,47.08 37.46,46.71 37.57,44.38 C 37.69,42.03 38.11,38.68 38.3,37.31 C 38.75,33.8 39.44,25.79 38.61,21.84 C 37.57,16.9 35.73,9.03 32.14,9 C 31.88,9.08 31.56,9.82 32.37,12.07 C 33.37,14.87 33.72,18.34 31.95,26.94 C 31.3,22.22 29.15,12.96 25.77,13.73 C 25.42,13.79 24.87,14.33 25.45,15.97 C 26.18,18.02 25.6,23.64 24.55,26.61 C 24.25,24.44 23.12,20.12 20.83,20.21 C 20.52,20.24 19.92,20.45 20.01,21.11 Z M 16.5,32 A 3.5,3.5 0 1,0 16.5,25 A 3.5,3.5 0 0,0 16.5,32 Z" fill="rgb(4, 78, 123)"/>
</svg>
