<?xml version="1.0" encoding="UTF-8"?>
<!-- generated by Finnhub -->
<svg viewBox="0 0 55.5 55.5" xmlns="http://www.w3.org/2000/svg">
<path d="M 0,0 H 55.5 V 55.5 H 0 Z" fill="rgb(254, 67, 100)"/>
<path d="M 24.741,27.745 C 24.751,31.206 21.915,34 18.416,34 C 14.918,34 12,31.206 12,27.76 C 12,19.675 24.751,19.716 24.751,27.76 Z M 44,27.76 C 44,31.206 40.999,34 37.5,34 S 31.33,31.206 31.33,27.76 C 31.33,19.698 44,19.698 44,27.76 Z" fill="rgb(254, 254, 253)"/>
<path d="M 43.99,27.745 L 32.739,31.748 A 6.764,6.764 0 0,0 27.963,29.786 C 26.105,29.786 24.45,30.535 23.277,31.748 L 12,27.76 C 12,19.056 19.163,12 28,12 C 36.837,12 44,19.056 44,27.76 Z" fill="rgb(254, 254, 253)"/>
<path d="M 34.29,37.785 A 6.3,6.3 0 1,1 21.7,37.8 A 6.3,6.3 0 0,1 34.3,37.8 Z" fill="rgb(254, 254, 253)"/>
</svg>
