<?xml version="1.0" encoding="UTF-8"?>
<!-- generated by Finnhub -->
<svg viewBox="0 0 55.5 55.5" xmlns="http://www.w3.org/2000/svg">
<path d="M 0,0 H 55.5 V 55.5 H 0 Z" fill="rgb(239, 242, 248)"/>
<path d="M 7.930000000000001,29.525 L 5.3,24 L 4,31 H 5.1 L 5.7,27.36 L 7.9,32 L 10.17,27.36 L 10.74,31 H 11.79 L 10.65,24 L 7.94,29.54 Z M 19,24 A 3.9,3.9 0 0,0 16.17,25.2 A 4.1,4.1 0 0,0 15,28.1 C 15,29.25 15.3,30.26 16,31 H 18 A 3.3,3.3 0 0,1 16,28.1 A 3.2,3.2 0 0,1 19.04,25 C 20.7,25 22,26.55 22,28.14 C 22,29.42 21.1,30.42 20,31 H 21.96 C 22.66,30.22 23,29.3 23,28.2 C 22.92,26.03 21.26,24 19,24 Z M 48,24 A 3.9,3.9 0 0,0 45.17,25.2 A 4.1,4.1 0 0,0 44,28.1 C 44,29.25 44.3,30.26 45,31 H 47 A 3.3,3.3 0 0,1 45,28.1 A 3.2,3.2 0 0,1 48.04,25 C 49.7,25 51,26.55 51,28.14 C 51,29.42 50.1,30.42 49,31 H 50.96 C 51.66,30.22 52,29.3 52,28.2 C 51.92,26.03 50.26,24 48,24 Z M 29.55,27.9 C 29.84,27.48 30,26.96 30,26.4 C 30,25.64 29.76,25.03 29.3,24.61 C 28.9,24.19 28.2,24 27.27,24 H 26 V 31 H 27 V 29 H 27.39 L 28.74,31 H 29.96 L 28.41,28.75 A 2,2 0 0,0 29.55,27.9 Z M 27,25 H 27.43 C 28.41,25 29,25.6 29,26.44 C 29,27.34 28.4,28 27.39,28 H 27 V 25 Z M 34,24 H 33 V 31 H 34 V 24 Z M 42,25 V 24 H 37 V 25 H 39 V 31 H 40 V 25 H 42 Z" fill="rgb(34, 23, 19)"/>
</svg>
