<?xml version="1.0" encoding="UTF-8"?>
<!-- generated by Finnhub -->
<svg viewBox="0 0 55.5 55.5" xmlns="http://www.w3.org/2000/svg">
<path d="M 0,0 H 55.5 V 55.5 H 0 Z" fill="rgb(239, 242, 248)"/>
<path d="M 13.950000000000001,17.985 C 12.56,18 11.36,18.92 11.12,20.19 L 8.03,35.86 C 7.81,36.97 8.74,38 9.97,38 H 42.04 C 43.44,38 44.64,37.08 44.88,35.81 L 47.97,20.14 C 48.19,19.03 47.26,18 46.03,18 H 13.96 Z M 14.16,20 C 13.39,20 12.73,20.49 12.6,21.15 L 10.02,34.52 C 9.87,35.3 10.55,36 11.45,36 H 41.84 C 42.61,36 43.27,35.51 43.4,34.85 L 45.98,21.48 C 46.13,20.7 45.45,20 44.55,20 H 14.16 Z" fill="rgb(25, 65, 136)" fill-rule="evenodd"/>
<path d="M 15.44,20.985 C 14.95,21 14.51,21.34 14.42,21.81 L 13.03,29 H 15.29 L 16,24 H 18 L 17.9,24.67 C 18.38,24.34 19.1,24 19.8,24 C 20.55,24 20.97,24.44 21.2,24.84 A 4.19,4.19 0 0,1 23.45,24 C 24.48,24 25,24.76 25,25.25 L 24.25,31 H 22.15 L 22.69,26.73 C 22.65,26.59 22.39,26.31 22.01,26.31 C 21.76,26.31 21.46,26.37 21.21,26.49 L 20.6,31 H 18.49 L 19.04,26.73 C 19,26.59 18.74,26.31 18.36,26.31 C 18.11,26.31 17.86,26.37 17.64,26.49 L 17,31 H 12.64 L 12.01,34.27 C 11.94,34.65 12.24,35 12.65,35 H 25 L 27.06,24 H 29 L 28.92,24.45 A 2.8,2.8 0 0,1 30.97,24.05 C 32.57,24.4 33.43,26.22 32.91,28.13 C 32.39,30.03 30.68,31.29 29.09,30.94 C 28.61,30.84 28.19,30.6 27.86,30.26 L 27,35 H 40.55 C 41.05,35 41.49,34.66 41.58,34.19 L 42.2,31 H 38 L 38.08,30.41 C 37.45,30.9 36.68,31.11 35.96,30.94 C 34.46,30.6 33.66,28.78 34.14,26.87 C 34.63,24.97 36.23,23.71 37.72,24.06 C 38.18,24.16 38.58,24.41 38.89,24.76 L 39,24 H 41 L 40.29,29 H 42.59 L 43.99,21.73 C 44.06,21.35 43.76,21 43.35,21 H 15.45 Z M 30.88,27.83 C 30.61,28.64 30.01,29.15 29.52,28.96 C 29.04,28.78 28.86,27.98 29.12,27.16 C 29.39,26.36 29.99,25.86 30.48,26.04 C 30.96,26.22 31.14,27.02 30.88,27.84 Z M 37.61,26.05 C 37.17,25.84 36.54,26.32 36.21,27.12 C 35.87,27.92 35.95,28.74 36.39,28.95 C 36.83,29.16 37.46,28.68 37.79,27.88 C 38.13,27.08 38.05,26.26 37.61,26.05 Z" fill="rgb(192, 1, 46)"/>
</svg>
