<?xml version="1.0" encoding="UTF-8"?>
<!-- generated by Finnhub -->
<svg viewBox="0 0 55.5 55.5" xmlns="http://www.w3.org/2000/svg">
<path d="M 0,0 H 55.5 V 55.5 H 0 Z" fill="rgb(1, 70, 126)"/>
<path d="M 35.99,24.985 H 32 V 31 H 36 V 29.5 H 34 V 28.75 H 36 V 27.25 H 34 V 26.5 H 36 V 25 Z M 39,25 H 37 V 31 H 39 V 28 L 41,31 H 43 V 25 H 41 V 28 L 39,25 Z M 30,32 H 28 V 39 H 30 V 36 L 32,39 H 34 V 32 H 32 V 35.5 L 30,32 Z M 46,25 H 44 V 31 H 46 V 28 L 48,31 H 50 V 25 H 48 V 28 L 46,25 Z M 9,25 H 7 L 6,31 H 8 L 8.5,28.5 L 9,31 H 11 L 11.5,28.5 L 12,31 H 14 L 13,25 H 11 L 10,28.5 L 9,25 Z" fill="rgb(254, 250, 246)"/>
<path d="M 21.99,15.985 C 18,16 13.67,20 12,22 C 13.4,20.74 16.75,18.16 19,18 S 20.94,20.93 20.5,22.5 C 21.83,21.17 25.1,18.5 27.5,18.5 S 29.5,21.17 29,22.5 C 32.5,19.5 34.5,18.5 35.5,18.5 S 37,19 37,19.5 S 36.5,20.5 35.5,20.5 C 34.7,20.5 34.17,20.17 34,20 C 33.83,20.5 34.1,21.5 36.5,21.5 C 39.5,21.5 41,19 41,17.5 C 41,16.3 39.67,16 39,16 C 36.2,16 33.17,18 32,19 C 32.67,18 33.3,16 30.5,16 S 24.67,18 23.5,19 C 24.7,16.6 23,16 22,16 Z" fill="rgb(247, 154, 14)"/>
<path d="M 14.99,24.985 H 17 V 31 H 15 Z" fill="rgb(254, 250, 246)"/>
<path d="M 18.99,24.985 H 18 V 31 H 21 C 21.67,31 23,30.4 23,28 S 21.67,25 21,25 H 19 Z M 20,27 V 29 C 20.33,29 21,28.8 21,28 S 20.33,27 20,27 Z M 14,32 H 13 V 39 H 16.78 C 18.5,39 19,38 19,37 S 18,35.5 17.5,35.5 C 17.94,35.5 18.5,35 18.5,34 C 18.5,32.4 17.33,32 16.78,32 H 14 Z M 15,33.5 V 35 H 15.5 C 16,35 16.5,34.65 16.5,34.25 S 16.22,33.5 15.5,33.5 H 15 Z M 15,36.5 V 37.6 H 16.22 C 16.64,37.6 17,37.4 17,37 C 17,36.6 16.5,36.5 16.22,36.5 H 15 Z M 27,25 H 26 V 31 H 28 V 29 H 29 C 29.67,29 31,28.6 31,27 S 29.67,25 29,25 H 27 Z M 28,26.5 V 27.5 H 28.5 C 28.67,27.5 29,27.4 29,27 S 28.67,26.5 28.5,26.5 H 28 Z" fill="rgb(254, 250, 246)" fill-rule="evenodd"/>
<path d="M 36.99,31.985 H 35 V 39 H 37 V 36 L 38.5,39 H 41 L 39,35.5 L 41,32 H 38.5 L 37,35 V 32 Z" fill="rgb(254, 254, 248)"/>
<path d="M 21.99,31.985 H 25 L 27,39 H 24.5 L 24.2,37.5 H 22.8 L 22.5,39 H 20 L 22,32 Z M 23.1,36 H 23.9 L 23.5,34 L 23.1,36 Z" fill="rgb(254, 250, 246)"/>
</svg>
