<?xml version="1.0" encoding="UTF-8"?>
<!-- generated by Finnhub -->
<svg viewBox="0 0 55.5 55.5" xmlns="http://www.w3.org/2000/svg">
<path d="M 0,0 H 55.5 V 55.5 H 0 Z" fill="rgb(239, 242, 248)"/>
<path d="M 22.15,21.835 C 25.12,17.35 29,13 35.2,13 A 9,9 0 0,1 41,15.47 V 16.89 A 7.13,7.13 0 0,0 36.06,15 C 30.83,15 28.11,18.28 25.62,21.85 L 14.6,40 H 11 L 22.16,21.85 Z M 41,17.86 V 19.63 A 4.9,4.9 0 0,0 37.12,18 C 32.63,18 29,22.89 29,28 C 29,33.37 31.53,37 35.5,37 A 11,11 0 0,0 38,36.74 V 39.19 C 36.9,39.73 35.76,40 34.63,40 C 28.5,40 26,34.01 26,29.1 C 26,22.37 29.66,16 36.38,16 C 38.22,16 39.88,16.69 41,17.86 Z M 41,22.18 A 2.87,2.87 0 0,0 38.62,21 C 35.92,21 34,24.4 34,27.56 C 34,30.72 34.95,32 37.13,32 H 38 V 35.53 C 37.21,35.88 36.4,36 35.62,36 C 31.87,36 30,32.25 30,28.19 C 30,23 33.56,19 37.47,19 C 39.13,19 40.32,19.68 41,20.61 V 22.18 Z M 24.97,40 H 21.97 L 25.67,34 C 26.09,35.3 26.45,35.92 27,36.78 L 24.97,40 Z" fill="rgb(27, 45, 103)"/>
<path d="M 17.49,39.985 H 21.03 L 26,32.06 A 20.3,20.3 0 0,1 26,26.03 L 17.5,40 Z" fill="rgb(253, 190, 60)"/>
</svg>
