<?xml version="1.0" encoding="UTF-8"?>
<!-- generated by Finnhub -->
<svg viewBox="0 0 55.5 55.5" xmlns="http://www.w3.org/2000/svg">
<path d="M 0,0 H 55.5 V 55.5 H 0 Z" fill="rgb(239, 242, 248)"/>
<path d="M 5.99,23.985 H 6.26 L 9,30.13 L 11.74,24 H 13 V 32 H 12 V 26.2 L 9.36,31.99 V 32 H 8.65 L 6,26.2 V 32 H 5 V 24 H 6 Z M 19,24 L 21.78,32 H 20.7 L 20.02,30 H 17.38 L 17.71,29 H 19.69 L 18.5,25.48 L 16.3,32 H 15.24 L 18,24 H 19 Z M 50,24 H 49 V 32 H 50 V 24 Z M 46.27,32 L 43.49,24 H 42.49 L 39.73,32 H 40.79 L 42.99,25.48 L 44.17,29 H 42.2 L 41.87,30 H 44.51 L 45.18,32 H 46.28 Z M 24,24 H 26.93 A 2.53,2.53 0 0,1 29.5,26.5 A 2.5,2.5 0 0,1 28.1,28.72 L 30,32 H 29 L 27.2,28.99 L 26.93,29 H 25.5 V 28 H 26.65 C 27.56,28 28.3,27.32 28.3,26.5 S 27.56,25 26.65,25 H 25 V 32 H 24 V 24 Z M 34,24 H 33 V 32 H 34 V 25 H 35.87 C 36.77,25 37.5,25.67 37.5,26.5 S 36.77,28 35.87,28 H 34.5 V 29 H 35.93 A 2.53,2.53 0 0,0 38.5,26.5 C 38.5,25.12 37.35,24 35.93,24 H 34 Z" fill="url(#a)"/>
<defs>
<linearGradient id="a" x1="1.62" x2="53.41" y1="28.77" y2="28.77" gradientUnits="userSpaceOnUse">
<stop stop-color="rgb(0, 177, 223)" offset="0"/>
<stop stop-color="rgb(28, 37, 199)" offset="1"/>
</linearGradient>
</defs>
</svg>
