<?xml version="1.0" encoding="UTF-8"?>
<!-- generated by Finnhub -->
<svg viewBox="0 0 55.5 55.5" xmlns="http://www.w3.org/2000/svg">
<path d="M 0,0 H 55.5 V 55.5 H 0 Z" fill="rgb(239, 242, 248)"/>
<path d="M 29.349999999999998,21.265 C 23.83,19.54 22.12,18.03 21.96,17.49 C 21.02,18.09 19.11,19.89 18.99,21.26 A 6.07,6.07 0 0,0 21.73,24.06 C 26.58,23.86 34.88,23.02 29.36,21.28 Z M 28.33,32.12 C 22.41,30.38 20.58,28.86 20.41,28.32 C 19.41,28.92 17.31,30.64 17.18,32.02 A 5.48,5.48 0 0,0 20.17,34.89 C 25.35,34.69 34.24,33.86 28.33,32.12 Z" fill="rgb(143, 213, 229)"/>
<path d="M 18.889999999999997,24.134999999999998 C 22.48,20.4 35,21.04 35,21.04 L 40.5,24.14 L 35,27 S 29.05,26.87 24.75,27.74 C 20.72,28.55 17.17,32.01 17.17,32.01 S 16.19,27.91 18.9,24.15 Z" fill="rgb(1, 137, 168)"/>
<path d="M 20.369999999999997,14.635 C 23.27,11.5 33.37,12.03 33.37,12.03 L 37.81,14.65 L 33.34,17 S 28.57,16.94 25.1,17.67 C 21.85,18.35 18.98,21.27 18.98,21.27 S 18.18,17.81 20.38,14.65 Z" fill="rgb(57, 160, 187)"/>
<path d="M 16.419999999999998,34.695 C 20.99,30.31 36.97,31.05 36.97,31.05 L 44,34.7 L 36.76,38 S 29.02,37.67 23.89,38.63 C 18.75,39.59 14.22,44 14.22,44 S 12.96,39.16 16.42,34.71 Z" fill="rgb(1, 117, 150)"/>
</svg>
