<?xml version="1.0" encoding="UTF-8"?>
<!-- generated by Finnhub -->
<svg viewBox="0 0 55.5 55.5" xmlns="http://www.w3.org/2000/svg">
<path d="M 0,0 H 55.5 V 55.5 H 0 Z" fill="rgb(239, 242, 248)"/>
<circle cx="13.5" cy="29.5" r="2.5" fill="rgb(1, 185, 240)"/>
<path d="M 20.27,30.285 C 19.54,36.8 18.53,39.13 18.12,39.48 C 16.38,37.62 15.75,33.68 15.65,32.06 C 17.65,30 16.75,27.8 15.91,26.94 C 16.34,16.59 18.09,13.34 18.92,13 H 24.41 C 20.61,17.69 21.21,22.16 20.28,30.3 Z M 28.9,25.22 C 29.11,16.95 30.96,13.6 31.87,13 C 33.57,14.54 34.44,17.24 34.65,18.36 C 33.9,20.11 33.65,25.89 33.33,28.65 C 32.46,36.05 31.5,38.79 31.12,39.19 C 29.32,39.4 28.16,35.28 27.8,33.19 C 28.38,31.79 28.78,27.29 28.9,25.22 Z" fill="rgb(24, 51, 89)"/>
<path d="M 28.049999999999997,31.965 C 27.05,20.8 26.6,14.37 24.4,13 A 13.18,13.18 0 0,0 21.75,18.1 C 22.33,20.25 22.57,23.8 23.33,31.98 C 24.1,40.15 26.95,41.17 28.76,40.98 A 3.16,3.16 0 0,0 31.24,39.02 C 29.27,38.21 28.3,33.98 28.06,31.98 Z M 37.2,13 H 31.84 C 36.22,17.76 35.73,27.22 36.14,31.22 C 36.62,35.98 37.79,40.99 40.51,40.99 A 4,4 0 0,0 44,39.24 C 42,38.12 40.56,32.84 40.05,23.34 C 39.64,15.72 37.98,13.27 37.2,13 Z M 15.77,41 C 13.22,41 12.39,35 11.87,32.66 A 3.8,3.8 0 0,0 15.66,32.06 C 15.96,36.07 17.59,38.6 18.26,39.31 A 3.01,3.01 0 0,1 15.78,41 Z" fill="rgb(42, 84, 142)"/>
</svg>
