<?xml version="1.0" encoding="UTF-8"?>
<!-- generated by Finnhub -->
<svg viewBox="0 0 55.5 55.5" xmlns="http://www.w3.org/2000/svg">
<path d="M 0,0 H 55.5 V 55.5 H 0 Z" fill="rgb(239, 242, 248)"/>
<path d="M 42.99,17.985 H 24.573 C 23.393,17.997 22.159,17.204 21.203,16.531 C 20.791,16.254 20.14,15.838 19.778,15.501 C 19.506,15.204 19.076,15 18.738,15 C 18.588,14.99 18.433,15.023 18.279,15.047 L 16.656,14 L 17.167,15.854 A 1.568,1.568 0 0,0 17.3,17.407 C 17.545,17.831 18,18.279 18.172,18.734 C 18.445,19.427 18.789,20.301 18.833,21.09 C 18.858,21.527 18.796,21.895 18.686,22.291 L 14,40 S 21.259,36.795 23.375,28.719 C 23.375,28.719 26.82,30.359 29.813,34.25 C 31.565,36.529 33.217,39.563 33.68,44 C 33.68,44 35.4,41.717 35.4,37 C 38.602,37.879 40.432,37.467 42.577,36.94 C 31.28,32.925 29.7,24 29.7,24 C 37.977,24 43,18 43,18 Z" fill="rgb(21, 55, 120)"/>
</svg>
