<?xml version="1.0" encoding="UTF-8"?>
<!-- generated by Finnhub -->
<svg viewBox="0 0 55.5 55.5" xmlns="http://www.w3.org/2000/svg">
<path d="M 0,0 H 55.5 V 55.5 H 0 Z" fill="rgb(239, 242, 248)"/>
<path d="M 3.99,32.985 L 6.81,21 H 10.49 L 11.08,29.97 H 11.16 L 16.16,21 H 20 L 17.19,33 H 14.64 L 15.96,27.32 A 52.55,52.55 0 0,1 16.96,23.7 H 16.87 L 11.7,33 H 9.14 L 8.58,23.7 H 8.51 L 8.36,24.68 A 58.58,58.58 0 0,1 7.8,27.42 L 6.5,33 H 4 Z M 22.54,33 C 21.84,33 21.22,32.88 20.69,32.63 A 2.81,2.81 0 0,1 19.45,31.52 C 19.15,31.02 19,30.4 19,29.65 C 19,28.92 19.1,28.22 19.32,27.55 C 19.53,26.87 19.85,26.26 20.27,25.73 A 4.66,4.66 0 0,1 24,24 C 25,24 25.75,24.22 26.25,24.67 C 26.75,25.11 27,25.67 27,26.37 C 27,26.82 26.9,27.24 26.68,27.61 C 26.48,27.98 26.15,28.31 25.73,28.57 C 25.3,28.84 24.77,29.04 24.12,29.19 C 23.47,29.33 22.72,29.39 21.85,29.39 H 21.44 L 21.42,29.56 V 29.72 C 21.42,30.18 21.56,30.55 21.84,30.82 C 22.12,31.1 22.51,31.24 23.02,31.24 C 23.49,31.24 23.92,31.19 24.3,31.08 C 24.68,30.98 25.13,30.81 25.66,30.57 V 32.33 C 25.19,32.55 24.71,32.73 24.22,32.83 C 23.74,32.95 23.18,33 22.54,33 Z M 21.7,27.82 H 22.06 C 22.68,27.82 23.18,27.76 23.56,27.62 C 23.96,27.5 24.24,27.32 24.42,27.12 C 24.6,26.9 24.69,26.67 24.69,26.42 C 24.69,26.17 24.61,25.99 24.46,25.87 A 0.92,0.92 0 0,0 23.85,25.69 C 23.55,25.69 23.25,25.78 22.96,25.96 C 22.66,26.14 22.41,26.39 22.18,26.71 C 21.96,27.03 21.8,27.41 21.7,27.82 Z M 27,33 L 29.1,24 H 31.15 L 30.96,25.8 H 31.06 C 31.32,25.43 31.61,25.1 31.93,24.84 C 32.24,24.57 32.58,24.36 32.95,24.22 A 3.19,3.19 0 0,1 34.6,24.02 C 34.77,24.04 34.9,24.06 35,24.09 L 34.41,26.38 L 34.03,26.29 A 3,3 0 0,0 33.53,26.25 A 2.64,2.64 0 0,0 31.75,26.95 A 3.4,3.4 0 0,0 31.07,27.83 A 5,5 0 0,0 30.61,29.05 L 29.67,33 H 27 Z M 37.34,33 C 36.81,33 36.38,32.9 36.04,32.7 C 35.68,32.49 35.43,32.2 35.26,31.81 A 3.32,3.32 0 0,1 35,30.46 A 7.28,7.28 0 0,1 35.2,28.78 L 36.25,24 H 38.73 L 37.6,29.16 L 37.5,29.67 L 37.47,30.11 C 37.47,30.44 37.54,30.68 37.69,30.84 C 37.84,31 38.06,31.08 38.36,31.08 C 38.74,31.08 39.08,30.93 39.37,30.62 C 39.67,30.31 39.94,29.89 40.17,29.38 C 40.39,28.86 40.57,28.28 40.71,27.66 L 41.51,24 H 44 L 42.04,33 H 40.14 L 40.32,31.2 H 40.23 C 39.99,31.55 39.73,31.86 39.45,32.14 C 39.17,32.41 38.85,32.62 38.51,32.77 C 38.16,32.92 37.77,33 37.34,33 Z M 46.96,33 C 46.33,33 45.78,32.96 45.31,32.88 C 44.84,32.81 44.41,32.68 44,32.5 V 30.57 A 5.93,5.93 0 0,0 46.82,31.27 C 47.1,31.27 47.36,31.23 47.6,31.17 C 47.85,31.1 48.05,31 48.2,30.86 A 0.68,0.68 0 0,0 48.43,30.33 A 0.68,0.68 0 0,0 48.31,29.94 A 1.46,1.46 0 0,0 47.87,29.57 C 47.66,29.43 47.35,29.26 46.94,29.07 C 46.54,28.87 46.19,28.65 45.9,28.44 C 45.62,28.23 45.4,27.99 45.25,27.72 A 1.94,1.94 0 0,1 45.03,26.77 C 45.03,26.17 45.18,25.67 45.48,25.26 C 45.78,24.84 46.21,24.53 46.77,24.32 A 5.77,5.77 0 0,1 48.79,24 C 49.36,24 49.91,24.06 50.44,24.17 C 50.97,24.28 51.49,24.47 52,24.74 L 51.12,26.41 A 6.46,6.46 0 0,0 50.02,25.94 A 3.82,3.82 0 0,0 48.84,25.75 C 48.56,25.75 48.3,25.81 48.07,25.93 A 0.58,0.58 0 0,0 47.72,26.48 C 47.72,26.62 47.76,26.74 47.85,26.86 C 47.93,26.96 48.07,27.08 48.26,27.19 C 48.46,27.31 48.73,27.44 49.06,27.59 C 49.46,27.78 49.82,27.98 50.13,28.2 C 50.43,28.42 50.68,28.67 50.86,28.96 C 51.04,29.25 51.12,29.59 51.12,29.98 C 51.12,30.64 50.95,31.2 50.62,31.65 C 50.27,32.09 49.79,32.43 49.16,32.65 C 48.54,32.89 47.81,33 46.96,33 Z" fill="rgb(71, 142, 163)"/>
</svg>
