<?xml version="1.0" encoding="UTF-8"?>
<!-- generated by Finnhub -->
<svg viewBox="0 0 55.5 55.5" xmlns="http://www.w3.org/2000/svg">
<path d="M 0,0 H 55.5 V 55.5 H 0 Z" fill="rgb(59, 70, 173)"/>
<path d="M 51.99,24.985 H 51.077 L 49.691,28.247 V 31.011 H 50.691 V 28.348 L 52.001,25 Z M 35.894,29.945 V 25.925 C 35.613,26.107 35.048,26.757 35.035,27.895 C 35.023,29.035 35.602,29.736 35.894,29.945 Z M 6.226,25.369 A 1.277,1.277 0 0,1 7.472,26.091 L 7.719,25.959 C 7.125,24.814 5.862,24.984 5.305,25.212 C 4.032,26.071 4.539,27.359 4.952,27.896 L 5.172,27.756 C 5.412,27.53 6.006,27.079 6.472,27.079 C 6.939,27.079 7.215,27.204 7.295,27.266 V 30.394 L 6.473,30.557 C 5.135,30.744 4.624,29.717 4.536,29.18 C 4.518,28.845 4.43,28.176 4.217,28.176 C 4.005,28.176 3.987,28.581 4.005,28.783 C 3.979,30.603 5.73,31.023 6.473,30.977 C 7.067,30.94 7.551,30.681 7.719,30.557 V 27.079 C 7.637,26.924 7.272,26.626 6.472,26.682 C 5.673,26.738 5.126,27.178 4.952,27.391 C 4.428,26.006 5.302,25.413 6.226,25.369 Z M 9.001,28.822 C 9.042,29.724 8.349,30.291 7.997,30.462 V 27.163 C 8.315,27.32 8.96,27.921 9.001,28.823 Z M 11,25 H 9.003 V 25.462 H 10 V 31 H 11 V 25 Z M 46,25 H 44 V 25.461 H 45 V 30.998 H 46 V 25 Z M 11.354,31 V 25 H 13 V 25.456 H 11.74 V 31 H 11.354 Z M 46.338,31 V 25 H 47.713 V 25.456 H 46.702 V 31 H 46.338 Z M 13.39,29.928 V 25 H 13.808 V 29.514 C 13.808,30.309 14.265,30.514 15.103,30.53 C 15.941,30.545 16.283,30.05 16.283,29.514 V 25 H 16.683 V 29.439 C 16.728,29.959 16.474,31 15.103,31 C 13.885,31 13.39,30.32 13.39,29.928 Z" fill="rgb(254, 254, 253)"/>
<path d="M 14.99,30.252 V 25 H 16 V 29.614 C 15.833,30.186 15.264,30.254 15,30.266 Z M 19.287,31 V 25 H 20.517 C 21.331,25.096 22.985,25.81 23,27.904 C 23.016,29.999 21.344,30.841 20.518,31 H 19.288 Z" fill="rgb(254, 254, 253)"/>
<path d="M 19.615,30.602999999999998 V 25.368 H 20.623 C 21.283,25.452 22.606,26.078 22.618,27.91 C 22.631,29.742 21.293,30.479 20.623,30.618 H 19.625 Z" fill="rgb(59, 70, 173)"/>
<path d="M 17.593999999999998,25.354 V 25 H 19.006 V 31 H 18 V 25.369 H 17.604 Z M 24,25.378 H 23.62 V 25 H 25.648 V 31 H 25.29 V 25.378 H 25 V 31 H 24 V 25.378 Z M 41.374,25.378 H 40.999 V 25 H 42.999 V 31 H 42.646 V 25.378 H 42.361 V 31 H 41.374 V 25.378 Z M 32.557,27.954 C 32.477,25.715 30.631,25 29.457,25 C 28.411,25 27.713,25.477 27.495,25.715 V 30.164 C 27.841,30.723 28.996,31 29.457,31 C 32.097,31 32.59,28.891 32.557,27.954 Z" fill="rgb(254, 254, 253)"/>
<path d="M 32.158,27.935 C 32.1,25.99 30.525,25.363 29.524,25.363 C 28.631,25.363 28.036,25.781 27.851,25.99 V 29.951 C 28.247,30.533 29.131,30.618 29.524,30.618 C 31.776,30.618 32.196,28.771 32.168,27.95 Z" fill="rgb(59, 70, 173)"/>
<path d="M 27.203999999999997,30.089 V 25.84 C 26.928,26.03 26.358,26.714 26.369,27.927 C 26.38,29.141 26.937,29.885 27.214,30.105 Z M 38.19,25.002 C 39.39,24.962 40.022,25.599 40.188,25.922 C 40.023,26.106 39.844,25.999 39.775,25.922 C 39.258,25.528 39.04,25.412 38.191,25.412 C 37.481,25.412 36.818,25.714 36.571,25.922 V 29.866 C 36.738,30.129 37.295,30.645 38.191,30.606 C 39.311,30.556 39.568,30.039 39.879,29.866 C 40.189,29.694 40.292,29.943 40.292,30.096 C 40.045,30.397 39.279,31 38.191,31 C 37.102,31 36.382,30.397 36.158,30.096 V 25.791 C 36.336,25.544 36.992,25.041 38.191,25.001 Z M 49.086,28.156 L 48.013,25 H 48.418 L 49.317,27.556 L 50.453,25 H 50.81 L 49.464,28.156 V 31 H 49.086 V 28.156 Z" fill="rgb(254, 254, 253)"/>
</svg>
