<?xml version="1.0" encoding="UTF-8"?>
<!-- generated by Finnhub -->
<svg viewBox="0 0 55.5 55.5" xmlns="http://www.w3.org/2000/svg">
<path d="M 0,0 H 55.5 V 55.5 H 0 Z" fill="rgb(239, 242, 248)"/>
<path d="M 33.59,20.555 L 36.41,23.41 L 24.19,33.59 L 21.58,30.59 L 33.6,20.57 Z" fill="rgb(226, 225, 224)"/>
<path d="M 22.99,43.985 A 12,12 0 1,0 23,20 A 12,12 0 0,0 23,44 Z M 23,41 A 9,9 0 1,0 23,23 A 9,9 0 0,0 23,41 Z" fill="rgb(83, 186, 228)" fill-rule="evenodd"/>
<path d="M 34.99,31.985 A 10,10 0 1,0 35,12 A 10,10 0 0,0 35,32 Z M 35,29 A 7,7 0 1,0 35,15 A 7,7 0 0,0 35,29 Z" fill="rgb(166, 81, 163)" fill-rule="evenodd"/>
<path d="M 34.99,31.985 A 10,10 0 0,1 31.99,31.54 A 8.95,8.95 0 0,0 30.89,27.67 A 6.96,6.96 0 0,0 34.62,28.99 C 34.87,29.95 35,30.96 35,32 Z M 25.16,20.2 A 10.06,10.06 0 0,0 25.08,23.24 C 26.42,23.56 27.65,24.18 28.68,25.02 A 6.97,6.97 0 0,1 28.06,21.12 C 27.15,20.69 26.18,20.38 25.16,20.19 Z" fill="rgb(131, 68, 156)"/>
<circle cx="23" cy="32" r="2" fill="rgb(210, 210, 209)"/>
<circle cx="35" cy="22" r="2" fill="rgb(210, 210, 209)"/>
</svg>
