<?xml version="1.0" encoding="UTF-8"?>
<!-- generated by Finnhub -->
<svg viewBox="0 0 55.5 55.5" xmlns="http://www.w3.org/2000/svg">
<path d="M 0,0 H 55.5 V 55.5 H 0 Z" fill="rgb(239, 242, 248)"/>
<path d="M 35.830000000000005,40.985 H 10 L 12,35 L 18.62,28 L 17,23 H 23 L 24.77,28 L 18.5,35 H 34 L 35.5,31 H 30.38 C 29.08,31 27.98,30.1 28,28.87 C 28,28.67 28.04,28.47 28.1,28.27 L 29,25 H 39.34 C 41.3,25 42.66,27.08 42,29.06 L 38.67,38.86 A 3.03,3.03 0 0,1 35.84,41 Z M 18.52,16.7 A 2.5,2.5 0 0,1 20.86,15 H 43.69 C 45.29,15 46.41,16.68 45.85,18.26 L 44.88,21 H 17 L 18.52,16.7 Z" fill="rgb(253, 1, 2)"/>
</svg>
