<?xml version="1.0" encoding="UTF-8"?>
<!-- generated by Finnhub -->
<svg viewBox="0 0 55.5 55.5" xmlns="http://www.w3.org/2000/svg">
<path d="M 0,0 H 55.5 V 55.5 H 0 Z" fill="rgb(238, 49, 46)"/>
<path d="M 3.99,34.985 H 7 L 11,25 L 11.991,35 H 15 L 22.036,25 L 22.068,25.053 S 20.539,31.71 20,35 H 23 L 26,21 H 20 L 15,29 V 21 L 12.786,21.004 L 9,21 L 4,35 Z M 27,26 C 27,27.184 27.009,28.392 28.284,29.248 C 28.776,29.398 28.838,29.594 31.135,29.601 C 32.323,29.601 33.453,29.591 33.5,29.601 C 34.156,29.732 34.216,31.985 33.142,31.985 L 29.167,32.003 H 26 L 25,35 H 29.31 C 35.132,35 36.93,35.452 37.09,30.7 C 37.123,29.761 37.288,27.785 36.402,27.092 C 35.492,26.168 34.22,26.342 33,26.34 C 33,26.34 31.021,26.414 30.384,26.194 C 29.808,25.995 29.996,24 30.648,24 H 38 L 39,21 L 35,21.004 C 30.384,21 27,20.428 27,26 Z M 43.743,21 C 43.316,21.062 42.833,21.294 42.475,21.546 A 3.407,3.407 0 0,0 41.391,22.892 C 41.204,23.322 41.245,23.175 40.749,25.131 C 40.481,26.196 40.503,26.1 40.476,26.221 C 40.465,26.271 40.412,26.483 40.36,26.688 A 79.894,79.894 0 0,1 40.004,28.105 C 39.904,28.492 39.797,28.909 39.77,29.034 A 11,11 0 0,1 39.679,29.392 C 39.659,29.463 39.629,29.579 39.612,29.647 C 39.593,29.716 39.543,29.918 39.497,30.099 C 39.45,30.279 39.406,30.454 39.4,30.489 A 2.568,2.568 0 0,1 39.362,30.629 C 39.339,30.694 39.312,30.803 39.29,30.924 C 39.284,30.94 39.237,31.136 39.182,31.36 C 39.066,31.821 39,32.22 39,32.435 C 39,32.678 39.08,33.117 39.166,33.35 C 39.246,33.565 39.428,33.927 39.475,33.964 A 0.9,0.9 0 0,1 39.56,34.076 C 39.662,34.232 40.015,34.516 40.313,34.68 C 40.464,34.764 40.613,34.84 40.643,34.846 C 40.671,34.852 40.751,34.874 40.82,34.896 C 41.176,35.004 41.501,35.014 44.516,34.998 H 48.286 C 50.186,34.998 50.894,30.534 51,30.003 H 48.003 C 48.003,30.16 47.903,31.105 47.258,31.96 L 47.078,32.003 L 44.708,32 C 43.213,31.997 42.735,32.05 42.649,32.003 C 42.374,31.851 42.591,31.211 42.872,30.13 C 42.988,29.685 43.09,29.295 43.095,29.264 A 627.864,627.864 0 0,1 43.965,25.832 C 44.209,24.872 44.262,24.433 44.373,24.268 A 0.99,0.99 0 0,1 44.593,24.041 L 44.712,24.001 H 46.524 C 47.425,23.994 48.93,23.991 48.996,24.001 C 49.076,24.016 49.128,24.028 49.18,24.087 C 49.288,24.209 49.067,25.485 49.067,25.485 S 48.997,25.988 48.997,26 C 48.997,26.016 49.725,26 49.725,26 H 51.62 L 51.722,25.616 C 51.939,24.778 52,24.511 52,24.01 C 52,23.421 51.926,23.072 51.702,22.63 A 1.56,1.56 0 0,1 51.603,22.406 A 0.042,0.042 0 0,0 51.581,22.368 A 1.26,1.26 0 0,1 51.457,22.2 A 3.15,3.15 0 0,0 50.867,21.562 A 1.426,1.426 0 0,1 50.721,21.437 C 50.699,21.403 50.395,21.253 50.186,21.175 C 49.73,21.004 49.777,20.997 46.736,21 H 43.744 Z" fill="rgb(254, 254, 253)"/>
</svg>
