<?xml version="1.0" encoding="UTF-8"?>
<!-- generated by Finnhub -->
<svg viewBox="0 0 55.5 55.5" xmlns="http://www.w3.org/2000/svg">
<path d="M 0,0 H 55.5 V 55.5 H 0 Z" fill="rgb(1, 53, 124)"/>
<path d="M 34.826,37.031 C 35.368,36.288 35.881,35.299 36.071,34.899 C 38.124,35.278 40.009,34.362 40.695,33.857 H 41.645 V 36.825 L 40.885,36.478 C 38.807,37.488 35.987,37.278 34.835,37.046 Z M 37.285,33.293 C 37.602,32.423 37.839,31.335 37.919,30.899 C 39.999,30.733 41.581,29.36 42.112,28.695 L 43.029,28.448 L 43.803,31.315 L 42.978,31.176 C 41.236,32.691 38.457,33.218 37.285,33.293 Z M 38.227,28.912 C 38.249,27.987 38.126,26.88 38.061,26.442 C 39.98,25.622 41.04,23.818 41.33,23.019 L 42.12,22.493 L 43.77,24.963 L 42.945,25.095 C 41.778,27.085 39.313,28.468 38.227,28.912 Z M 30.845,39.172 C 31.712,38.687 32.493,37.933 32.775,37.617 C 35.018,38.797 37.605,38.478 38.619,38.17 L 37.165,41.571 L 36.61,40.912 C 33.775,40.976 31.586,39.779 30.845,39.172 Z M 31.004,43.206 C 28.698,42.405 26.941,40.341 26.35,39.41 C 26.837,39.41 28.14,38.9 28.73,38.645 C 30.634,40.86 33.014,41.395 33.965,41.387 L 31.321,43.944 L 31.004,43.206 Z M 24.905,43.12 C 22.98,41.323 22.205,38.82 22.058,37.793 C 22.499,38.004 23.934,38.145 24.596,38.189 C 25.338,40.601 27.393,42.173 28.327,42.657 L 24.905,44 V 43.12 Z M 19.366,40.808 C 18.288,38.413 18.534,35.775 18.792,34.755 C 19.339,35.265 20.432,35.819 20.911,36.032 C 20.751,39.202 22.007,41.036 22.654,41.557 H 18.99 L 19.366,40.808 Z M 15.127,36.538 C 14.95,33.738 16.187,31.512 16.827,30.748 C 17.056,31.365 17.967,32.282 18.393,32.664 C 17.104,35.059 17.488,37.609 17.842,38.585 L 14.531,37.132 L 15.127,36.538 Z M 12.785,30.96 C 13.615,28.54 15.704,26.808 16.644,26.244 C 16.746,27.192 17.153,28.26 17.344,28.676 C 15.342,30.283 14.672,32.8 14.587,33.856 L 12.043,31.277 L 12.785,30.96 Z M 12.827,24.933 C 14.71,22.869 17.175,22.17 18.172,22.078 C 17.952,22.788 17.924,24.038 17.938,24.574 C 15.359,25.267 13.824,27.358 13.378,28.317 L 12,24.933 H 12.827 Z M 17.483,17.85 L 18.917,14.53 L 19.467,15.13 C 22.342,15.074 24.56,16.284 25.309,16.896 C 24.743,17.094 23.751,18.002 23.326,18.432 C 21.06,17.217 18.486,17.537 17.483,17.849 Z M 37.083,14.424 H 33.418 C 35.089,16.387 35.259,18.974 35.135,20.021 C 35.985,20.303 36.965,20.939 37.348,21.221 C 37.958,18.171 37.188,15.925 36.728,15.183 L 37.083,14.424 Z M 40.962,19.522 C 40.982,21.196 40.628,22.426 40.449,22.832 H 37.912 C 38.897,20.678 38.497,18.33 38.156,17.43 L 41.645,18.89 L 40.962,19.522 Z M 31.178,12 L 27.771,13.408 C 30.02,14.535 31.231,16.894 31.555,17.932 C 32.359,17.869 33.523,18.073 34.005,18.182 C 33.653,15.628 31.974,13.56 31.178,12.845 V 11.999 Z M 24.741,12.046 L 22.156,14.593 C 25.196,14.937 26.901,16.578 27.373,17.355 C 27.963,16.999 29.25,16.726 29.82,16.634 C 28.28,14.314 25.967,13.12 25.003,12.814 L 24.741,12.046 Z M 14.423,22.68 V 19.013 L 15.137,19.38 C 17.526,18.293 20.186,18.51 21.217,18.754 C 20.663,19.376 20.207,20.48 20.049,20.954 C 17.071,20.714 15.058,22.004 14.423,22.681 Z M 20,33.004 L 22.998,23.004 C 26.634,23.004 34.148,23.004 35.118,23.015 C 36.088,23.025 36.066,23.945 35.935,24.403 L 33,33.004 H 30.777 C 29.85,33.004 29.943,32.072 30.105,31.605 C 30.725,29.552 32.142,25.328 32.272,24.856 C 32.402,24.384 32.272,24 32.047,24 H 30.68 L 28,33.004 H 25 C 25.755,30.515 27.24,25.4 27.372,24.856 C 27.504,24.312 27.311,24 27.08,24 H 25.76 L 22.999,33.004 H 20 Z" fill="rgb(254, 254, 253)"/>
</svg>
