<?xml version="1.0" encoding="UTF-8"?>
<!-- generated by Finnhub -->
<svg viewBox="0 0 55.5 55.5" xmlns="http://www.w3.org/2000/svg">
<path d="M 0,0 H 55.5 V 55.5 H 0 Z" fill="rgb(1, 58, 90)"/>
<path d="M 9.99,33.985 H 8 L 8.998,22 H 11 L 15,30 L 19,22 H 21 L 22,34 H 19 L 18.51,25.966 L 15,34 H 14 L 10.535,25.966 L 10,34 Z M 27.354,23.37 C 25.546,24.182 25,26.156 25,28.264 C 25,30.372 25.42,31.938 27.017,32.689 C 27.889,33.018 29.025,33.223 30,32.689 V 29.012 H 33 V 33.018 C 29.586,34.458 24.365,34.772 22.49,30.761 A 5.395,5.395 0 0,1 22.001,28.427 A 7.012,7.012 0 0,1 22.527,25.626 C 23.61,23.06 26.309,21.983 28.831,22.003 C 30.221,21.975 31.771,22.323 33,23.003 L 32.083,25.006 C 30.995,23.454 29.047,22.646 27.354,23.372 Z M 34,22 H 36.994 L 37,34 H 34 V 22 Z M 47.563,33.03 C 43.842,35.366 37.963,33.285 38.001,28.435 A 7.342,7.342 0 0,1 38.565,25.461 C 39.6,23.048 42.1,21.975 44.618,22 C 45.755,22.008 47.008,22.42 48,22.999 L 47,24.999 C 47,24.548 46.478,23.062 44.523,23.062 C 41.909,23.062 40.947,25.954 41,28.208 C 40.947,30.532 42.032,33.012 44.669,33.03 C 45.769,33.023 47.258,32.802 48,31.999 L 47.562,33.029 Z" fill="rgb(254, 254, 253)"/>
</svg>
