<?xml version="1.0" encoding="UTF-8"?>
<!-- generated by Finnhub -->
<svg viewBox="0 0 55.5 55.5" xmlns="http://www.w3.org/2000/svg">
<path d="M 0,0 H 55.5 V 55.5 H 0 Z" fill="rgb(227, 34, 17)"/>
<path d="M 28.84,31.314999999999998 A 3.28,3.28 0 0,0 31.72,33 C 32.44,33 32.99,32.87 32.99,32.87 L 33.35,30.69 C 32.63,30.79 31.93,30.72 31.7,29.88 A 1.96,1.96 0 0,1 31.66,28.96 L 32.23,26.33 H 34.19 L 34.54,24.29 H 32.54 L 32.96,22 L 29.87,22.87 L 29.62,24.29 H 28.5 L 28.14,26.33 H 29.28 L 28.63,29.38 C 28.58,29.62 28.56,29.86 28.56,30.08 C 28.56,30.56 28.66,30.98 28.85,31.33 Z M 35.98,24 H 39.08 L 38.9,25.24 V 25.27 L 38.91,25.25 C 39.28,24.85 39.73,24.58 40.12,24.4 A 4.7,4.7 0 0,1 41.45,24.03 A 5.7,5.7 0 0,1 42.47,24.03 L 42.7,24.05 L 42.15,27.04 S 41.69,27 41.46,27 C 40.7,27 39.98,27.2 39.34,27.6 A 2.45,2.45 0 0,0 38.4,28.72 C 38.3,28.95 38.23,29.21 38.17,29.5 C 37.96,30.45 37.52,33 37.52,33 H 34.44 L 35.98,24 Z M 46.43,33 A 5.69,5.69 0 0,1 44.73,32.74 C 44.23,32.57 43.78,32.32 43.42,32 A 3.26,3.26 0 0,1 42.57,30.83 C 42.37,30.38 42.27,29.87 42.27,29.3 A 5.2,5.2 0 0,1 44.35,25.14 C 45.35,24.39 46.62,24 47.87,24 H 47.89 C 48.5,24 49.16,24.1 49.76,24.34 C 50.07,24.46 50.37,24.62 50.65,24.82 C 51.05,25.11 51.38,25.48 51.62,25.94 C 51.86,26.41 52,26.97 52,27.64 A 5.49,5.49 0 0,1 51.1,30.66 C 50.7,31.24 50.21,31.7 49.68,32.04 C 48.61,32.74 47.38,33 46.44,33 Z M 46.26,26.68 C 46.09,26.88 45.93,27.13 45.81,27.43 A 4.67,4.67 0 0,0 45.45,29.29 C 45.45,29.9 45.6,30.31 45.85,30.56 C 45.95,30.66 46.05,30.74 46.18,30.79 L 46.1,30.99 L 46.18,30.79 C 46.36,30.87 46.56,30.91 46.76,30.91 H 46.78 A 1.58,1.58 0 0,0 48.06,30.27 C 48.23,30.06 48.37,29.8 48.49,29.5 A 5.4,5.4 0 0,0 48.83,27.68 C 48.83,27.43 48.81,27.21 48.75,27.02 A 1.4,1.4 0 0,0 48.52,26.52 C 48.38,26.34 48.19,26.22 47.95,26.14 A 1.5,1.5 0 0,0 47.55,26.09 H 47.53 C 47.05,26.09 46.61,26.29 46.26,26.69 Z M 21.65,32.92 A 5.73,5.73 0 0,1 20.57,32.64 C 19.39,32.2 18.41,30.86 18.4,29.16 C 18.4,28.96 18.42,28.76 18.44,28.56 A 6.7,6.7 0 0,1 18.94,26.73 A 4.27,4.27 0 0,1 21.46,24.33 A 6.24,6.24 0 0,1 23.79,24 A 3.9,3.9 0 0,1 26.27,24.97 A 3.46,3.46 0 0,1 27.44,27.67 A 5,5 0 0,1 27.3,28.8 L 27.26,29 H 21.22 A 0.6,0.6 0 0,1 21.22,29.02 V 29.06 C 21.22,30.26 22.38,31 23.48,31 C 24.42,31 25.37,30.84 26.23,30.47 L 26.64,30.3 L 25.92,32.4 L 25.84,32.43 A 7.3,7.3 0 0,1 22.86,33 C 22.46,33 22.03,32.97 21.65,32.92 Z M 24.73,27.3 V 27.29 L 24.75,27.01 V 27 C 24.75,26.62 24.63,26.3 24.42,26.1 A 1.11,1.11 0 0,0 23.85,25.8 C 23.75,25.78 23.63,25.77 23.51,25.77 H 23.49 C 22.62,25.77 21.91,26.33 21.61,27.29 H 24.73 Z M 9.86,27.4 L 8.7,33 H 11.86 L 12.9,27.43 C 13,26.99 13.4,26.65 13.86,26.64 A 0.68,0.68 0 0,1 14.32,26.82 C 14.44,26.94 14.51,27.1 14.51,27.28 L 14.49,27.44 L 13.4,33 H 16.51 L 17.59,27.65 C 17.66,27.3 17.69,26.95 17.69,26.62 C 17.69,26.25 17.65,25.9 17.53,25.58 A 2.14,2.14 0 0,0 16.1,24.21 L 15.8,24.12 A 4.6,4.6 0 0,0 14.73,24 H 14.67 C 14.17,24 13.63,24.15 13.13,24.35 C 12.62,24.56 12.13,24.85 11.74,25.18 A 3.01,3.01 0 0,0 9.47,24 L 9.07,23.99 C 8.4,23.99 7.85,24.09 7.38,24.29 C 6.91,24.49 6.53,24.76 6.23,25.09 A 4.1,4.1 0 0,0 5.49,26.27 A 7,7 0 0,0 5.07,27.65 L 4,33 H 7.09 L 8.27,27.4 C 8.37,26.96 8.78,26.61 9.23,26.61 A 0.7,0.7 0 0,1 9.53,26.68 A 0.6,0.6 0 0,1 9.7,26.79 C 9.81,26.9 9.88,27.07 9.88,27.24 C 9.88,27.3 9.88,27.35 9.86,27.41 Z" fill="rgb(254, 254, 253)"/>
</svg>
