<?xml version="1.0" encoding="UTF-8"?>
<!-- generated by Finnhub -->
<svg viewBox="0 0 55.5 55.5" xmlns="http://www.w3.org/2000/svg">
<path d="M 0,0 H 55.5 V 55.5 H 0 Z" fill="rgb(239, 242, 248)"/>
<path d="M 15.69,27.245 C 16.18,27.12 16.68,27.06 17.17,27.06 C 17.84,27.06 18.15,27.24 18.15,27.56 A 0.8,0.8 0 0,1 18.1,27.8 H 17.84 C 16.52,27.8 14.94,28.22 14.94,29.63 C 14.94,30.48 15.51,31 16.57,31 C 17.27,31.01 17.98,30.94 18.67,30.8 C 18.74,30.32 18.84,29.86 18.97,29.4 C 19.18,28.78 19.33,28.14 19.41,27.49 C 19.41,26.61 18.85,26 17.51,26 C 17.01,26 16.5,26.07 16,26.17 L 15.7,27.26 Z M 17.46,28.83 H 17.83 L 17.57,29.76 C 17.37,29.8 17.16,29.83 16.95,29.83 C 16.51,29.83 16.39,29.59 16.39,29.42 C 16.39,29.08 16.61,28.82 17.45,28.82 H 17.46 Z M 24.27,28.57 C 24.38,28.22 24.45,27.86 24.47,27.49 C 24.47,26.69 23.87,26 22.42,26 A 9.6,9.6 0 0,0 20.52,26.27 C 20.5,26.81 20.42,27.35 20.28,27.87 L 19.4,31 H 20.82 L 21.84,27.36 C 22.02,27.29 22.2,27.26 22.39,27.26 C 22.83,27.26 22.99,27.51 22.99,27.8 C 22.97,28.06 22.92,28.31 22.84,28.55 C 22.74,28.86 22.18,31 22.18,31 H 23.59 L 24.27,28.57 Z M 25.82,26 L 24.46,31 H 25.88 L 27.24,26 H 25.82 Z M 30.84,26 H 29.96 L 30.27,25 H 28.83 L 28.53,26 H 27.79 L 27.54,27 H 28.29 L 27.18,31 H 28.61 L 29.71,27 H 30.59 L 30.84,26 Z M 42.92,26 H 41.72 L 40,29.24 V 26 H 38.65 L 37,29.24 V 26 H 35.63 L 35.83,31 H 37.31 L 38.65,28.38 V 31 H 40.31 L 43.21,26 H 42.92 Z M 45.43,26 C 44.68,26.03 43.97,26.35 43.45,26.92 A 3.13,3.13 0 0,0 42.63,29.02 C 42.63,30.24 43.41,31 44.63,31 A 2.82,2.82 0 0,0 46.61,30.08 C 47.14,29.51 47.43,28.74 47.42,27.95 C 47.42,26.84 46.72,26 45.42,26 Z M 45.33,27.23 C 45.77,27.23 45.97,27.53 45.97,28.03 C 45.97,28.75 45.47,29.77 44.72,29.77 C 44.32,29.77 44.08,29.5 44.08,28.98 C 44.08,28.21 44.61,27.23 45.33,27.23 Z M 33.15,26 C 32.41,26.03 31.7,26.35 31.18,26.92 A 3.13,3.13 0 0,0 30.36,29.02 C 30.36,30.24 31.14,31 32.36,31 A 2.82,2.82 0 0,0 34.34,30.08 C 34.87,29.51 35.16,28.74 35.15,27.95 C 35.15,26.84 34.44,26 33.15,26 Z M 33.04,27.23 C 33.48,27.23 33.68,27.53 33.68,28.03 C 33.68,28.75 33.18,29.77 32.43,29.77 C 32.03,29.77 31.79,29.5 31.79,28.98 C 31.78,28.21 32.31,27.23 33.04,27.23 Z M 52,26.26 A 3.17,3.17 0 0,0 50.68,26 A 2.61,2.61 0 0,0 48.72,26.77 A 2.85,2.85 0 0,0 47.86,28.77 V 28.93 C 47.84,29.46 48.02,29.97 48.36,30.36 A 1.87,1.87 0 0,0 49.91,31 C 50.22,31 50.53,30.93 50.83,30.8 L 51.08,29.53 C 50.85,29.65 50.59,29.72 50.33,29.73 A 0.9,0.9 0 0,1 49.66,29.53 A 0.97,0.97 0 0,1 49.32,28.9 V 28.77 C 49.31,28.38 49.44,28 49.68,27.72 C 49.93,27.42 50.28,27.25 50.64,27.22 H 50.71 C 51.01,27.23 51.29,27.32 51.54,27.46 L 52,26.26 Z" fill="rgb(68, 84, 96)"/>
<path d="M 15.19,24.985 H 13.57 L 11.64,28.54 V 25 H 8.57 L 6.72,31 H 8.57 L 10,26.3 V 31 H 11.81 L 14.63,26.3 L 13.27,31 H 15.2 A 6,6 0 1,1 15.2,25 Z" fill="rgb(240, 27, 38)"/>
</svg>
