<?xml version="1.0" encoding="UTF-8"?>
<!-- generated by Finnhub -->
<svg viewBox="0 0 55.5 55.5" xmlns="http://www.w3.org/2000/svg">
<path d="M 38.910000000000004,12.985 H 17.2 A 4.2,4.2 0 0,0 13,17.14 V 38.86 A 4.2,4.2 0 0,0 17.2,43 H 38.92 A 4.1,4.1 0 0,0 43,38.86 V 17.14 A 4.1,4.1 0 0,0 38.92,13 Z M 14,32.68 V 30.51 H 16.17 L 14,32.68 Z M 14,30.14 V 28.52 H 18.02 L 16.52,30.14 H 14 Z M 14,26.39 H 20.02 L 18.5,28 H 14 V 26.39 Z M 23.4,26.39 H 29.46 L 28.21,28 H 25.18 L 23.4,26.39 Z M 21.68,24.5 H 30.85 L 29.64,26 H 22.99 L 21.69,24.5 Z M 14,22.64 H 32.54 L 31.27,24 H 14 V 22.64 Z M 27.78,28.52 L 26.88,29.57 L 25.73,28.52 H 27.78 Z M 41.98,27.22 L 41.08,26.39 H 41.98 V 27.22 Z M 41.98,26 H 40.58 L 39.31,24.5 H 41.99 V 26 Z M 41.98,24 H 38.92 L 37.5,22.64 H 42 V 24 Z M 41.98,22.11 H 36.96 L 35.37,20.5 H 41.98 V 22.11 Z M 33.06,22.11 H 14 V 20.5 H 34.43 L 33.06,22.11 Z M 14,24.5 H 21.5 L 20.35,26 H 14 V 24.5 Z M 41.99,20 H 14 V 18.49 H 41.98 V 20 Z M 14,18 C 14.1,17.5 14.11,17 14.2,16.5 H 41.95 C 41.97,16.64 41.99,17 41.99,17.14 V 18 H 14 Z M 17.2,14.07 H 38.92 C 40.13,14.07 41.43,14.93 41.82,16 H 14.32 A 3.21,3.21 0 0,1 17.19,14.07 Z" fill="rgb(1, 45, 107)"/>
<path d="M 15.99,32.335 V 32 H 19 L 20.6,36.94 L 22.25,32 H 25.1 V 32.35 C 24.38,32.41 24,32.53 24,33.35 V 38.53 C 24,39.28 24.28,39.51 25,39.51 V 40 H 21.51 V 39.52 C 22.24,39.52 22.49,39.28 22.49,38.52 V 32.9 H 22.47 L 20.21,39.88 H 19.85 L 17.57,33.12 H 17.55 V 37.49 C 17.55,39.21 17.65,39.43 18.54,39.53 V 40 H 16 V 39.52 C 16.88,39.33 17,39.22 17,37.48 V 33.34 C 17,32.54 16.67,32.35 16,32.35 Z M 28,33.27 L 29.54,37.9 L 30.86,33.86 C 30.93,33.62 31.03,33.38 31.03,33.13 C 31.03,32.58 30.63,32.39 30.2,32.35 V 32 H 32.66 V 32.35 C 32.04,32.5 31.75,32.59 31.31,34.05 L 29.4,40 H 28.55 L 26.52,33.92 C 26.29,33.25 26.12,32.44 25.34,32.35 V 32 H 28.67 V 32.35 C 27.97,32.41 27.88,32.55 27.88,32.81 C 27.88,32.96 27.94,33.13 27.99,33.27 Z M 33,39.87 V 39.52 C 33.72,39.52 34,39.28 34,38.52 V 33.35 C 34,32.59 33.63,32.35 32.91,32.35 V 32 H 36.55 C 39.11,32 39.5,32.85 39.5,33.8 C 39.5,34.92 38.62,35.43 37.74,35.62 V 35.65 C 38.86,35.88 40,36.32 40,37.78 C 40,39.04 39.14,40 37.18,40 H 33 V 39.87 Z" fill="rgb(231, 234, 240)"/>
<path d="M 35.49,32.985 H 37 A 1,1 0 1,1 37,35 H 35.5 V 33 Z M 35.5,36.5 H 37.25 A 1.25,1.25 0 1,1 37.25,39 H 35.5 V 36.5 Z" fill="rgb(1, 45, 107)"/>
</svg>
