<?xml version="1.0" encoding="UTF-8"?>
<!-- generated by Finnhub -->
<svg viewBox="0 0 55.5 55.5" xmlns="http://www.w3.org/2000/svg">
<path d="M 0,0 H 55.5 V 55.5 H 0 Z" fill="url(#a)"/>
<path d="M 12.71,25.985 H 12 A 16.04,16.04 0 0,1 32.05,12.53 C 33.25,12.84 33.85,13.73 34.29,14.83 C 35.21,17.14 35.17,19.91 34.34,23.31 C 33.66,26.09 32.53,30.15 31.87,32.51 A 188,188 0 0,0 31.39,34.25 L 30.63,33.72 L 31.13,31.72 C 32.11,27.85 33.33,22.98 32.83,19.5 C 32.57,17.8 31.27,15.8 29.38,17.5 C 28.18,18.6 27.23,20.62 26.52,22.28 L 25.43,22.49 C 29.33,11.63 15.38,14.5 12.72,26 Z" fill="rgb(64, 219, 48)"/>
<path d="M 12.5,32.455 A 16.06,16.06 0 0,0 27.94,44 C 29.67,44 31.34,43.73 32.89,43.22 L 32.59,42.8 C 28.15,43.51 23.41,42.8 19.88,39.87 C 17.86,38.2 16.82,36.11 19.38,34.57 C 21.15,33.5 23.42,33.5 23.42,33.5 V 33.47 L 22.55,32.49 C 20.09,32.45 18.05,32.23 16.89,31.61 C 12.07,29.06 29.23,24.24 30.45,24 L 29.95,23.5 L 28.89,23.68 C 23.89,24.55 16.08,25.9 13.11,30.05 C 12.59,30.78 12.25,31.56 12.51,32.47 Z" fill="rgb(64, 219, 48)"/>
<path d="M 35.46,40.785 C 36.39,40.99 37.31,41.04 38.09,40.4 A 15.94,15.94 0 0,0 37.98,15.51 V 17.11 C 41.98,21.81 41.76,28.37 39.82,32.13 C 39.39,32.96 38.77,33.32 37.82,32.97 C 36.7,32.57 35.39,31.42 34.49,30.53 L 34.25,31.35 C 35.23,32.57 38.25,36.64 35.47,37 C 33.42,37.27 28.39,36 21.68,28.1 L 20.91,28.5 A 85.7,85.7 0 0,1 23.58,31.52 C 26.92,35.42 30.68,39.8 35.47,40.79 Z" fill="rgb(64, 219, 48)"/>
<defs>
<linearGradient id="a" x1="10.42" x2="68.15" y1="9.71" y2="76.02" gradientUnits="userSpaceOnUse">
<stop stop-color="rgb(25, 29, 31)" offset="0"/>
<stop stop-color="rgb(5, 5, 8)" offset="1"/>
</linearGradient>
</defs>
</svg>
