<?xml version="1.0" encoding="UTF-8"?>
<!-- generated by Finnhub -->
<svg viewBox="0 0 55.5 55.5" xmlns="http://www.w3.org/2000/svg">
<rect width="56" height="56" fill="rgb(254, 214, 2)"/>
<path d="M 10.99,24.829 C 11,25.2551 11.1925,25.5111 11.6261,25.5111 C 12.5631,25.5111 13,24.1812 13,23.4502 C 13,22.3911 12.3867,21.2455 11.2225,21.1689 L 11.326,20.8652 C 12.2896,20.9156 12.4696,19.7774 12.4696,19.0485 C 12.4696,18.5095 12.2693,17.4879 11.5485,17.4879 C 11.197,17.4879 11,17.7494 11,18.0955 V 24.844 Z M 11.1035,16.9995 C 13.1049,16.9995 14.0168,17.7345 14.0168,19.108 C 14.0168,19.8575 13.6137,20.5872 12.9146,20.9009 V 20.9902 C 14.0779,21.1486 14.6429,22.196 14.6429,23.3072 C 14.6429,25.0561 13.2299,25.9995 11.5485,25.9995 C 10.5215,25.9995 9.5,25.8148 9.5,24.5164 V 18.0002 C 9.5,17.7818 9.36891,17.6726 9.10672,17.6726 C 8.41249,17.6726 7.46632,18.2573 7.46632,19.0485 C 7.46632,19.2393 7.50771,19.689 7.72505,19.7573 C 7.76645,19.7652 7.79577,19.7692 7.81302,19.7692 C 8.08125,19.7692 8.20332,19.4535 8.43915,19.4535 C 8.7346,19.4535 8.99996,19.7664 8.99996,19.9995 C 8.99996,20.4995 8.48668,20.9902 7.99996,20.9902 C 7.30528,20.9902 6.99996,20.1016 6.99996,19.4654 C 6.99996,18.1777 7.90825,17.4514 9.09116,17.1961 C 9.75681,17.0524 10.2933,16.9995 11.1035,16.9995 Z" fill="rgb(127, 100, 8)"/>
<path d="M 15.99,22.979 C 16,21.4978 16.8533,19.9997 18.5,19.9997 C 20.1373,19.9997 21,21.4032 21,22.9143 C 21,24.3955 20.1583,25.9997 18.5,25.9997 C 16.8508,25.9997 16,24.4892 16,22.994 Z M 19.5,22.9371 C 19.5,22.3423 19.4627,20.5803 18.5,20.5803 C 17.5761,20.5803 17.5,22.4269 17.5,22.994 C 17.5,23.5646 17.5728,25.4191 18.5,25.4191 C 19.424,25.4191 19.5,23.5046 19.5,22.9371 Z" fill="rgb(127, 100, 8)"/>
<path d="M 24.982,23.125 C 24.992,22.6375 25.027,21.0005 24.1776,21.0005 C 23.8174,21.0005 23.6085,21.4677 23.4998,21.6284 V 25.3842 C 23.4998,25.8196 23.1593,26.0005 22.7563,26.0005 C 22.3681,26.0005 21.9999,25.8094 21.9999,25.3842 V 21.0238 C 21.9999,20.7967 21.9176,20.6052 21.7101,20.6052 C 21.5988,20.6052 21.5316,20.6536 21.44,20.7389 L 21.3368,20.5935 C 21.6841,20.2539 22.1371,20.0005 22.6335,20.0005 C 23.1104,20.0005 23.4436,20.3154 23.4802,20.7912 C 23.4933,20.9152 23.4998,21.0199 23.4998,21.1052 C 23.7912,20.6111 24.3042,20.0005 24.9389,20.0005 C 25.8369,20.0005 26.4998,20.6817 26.4998,23.0005 C 26.4998,25.0005 25.868,26.9373 23.9468,27.0005 L 23.8928,26.7621 C 25.0678,26.4376 24.992,24.1282 24.992,23.14 Z" fill="rgb(127, 100, 8)"/>
<path d="M 35.982,23.125 C 35.992,22.6375 36.027,21.0005 35.1776,21.0005 C 34.8174,21.0005 34.6085,21.4677 34.4998,21.6284 V 25.3842 C 34.4998,25.8196 34.1593,26.0005 33.7563,26.0005 C 33.3681,26.0005 32.9999,25.8094 32.9999,25.3842 V 21.0238 C 32.9999,20.7967 32.9176,20.6052 32.7101,20.6052 C 32.5988,20.6052 32.5316,20.6536 32.44,20.7389 L 32.3368,20.5935 C 32.6841,20.2539 33.1371,20.0005 33.6335,20.0005 C 34.1104,20.0005 34.4436,20.3154 34.4802,20.7912 C 34.4933,20.9152 34.4998,21.0199 34.4998,21.1052 C 34.7912,20.6111 35.3042,20.0005 35.9389,20.0005 C 36.8369,20.0005 37.4998,20.6817 37.4998,23.0005 C 37.4998,25.0005 36.868,26.9373 34.9468,27.0005 L 34.8928,26.7621 C 36.0678,26.4376 35.992,24.1282 35.992,23.14 Z" fill="rgb(127, 100, 8)"/>
<path d="M 30.474,22.945 C 30.484,22.7702 30.2703,22.6696 30.0965,22.6696 C 29.403,22.6696 28.9996,23.4497 28.9996,23.9998 C 28.9996,24.4998 29.2028,25.1858 29.7368,25.1858 C 30.1368,25.1858 30.484,24.7011 30.484,24.3489 V 22.96 Z M 29.5647,20.4666 C 29.2102,20.4666 28.9287,20.6089 28.8035,20.7797 C 28.7618,20.8328 28.741,20.8841 28.741,20.9334 C 28.741,20.9903 28.767,21.0321 28.8192,21.0586 C 29.0487,21.1526 29.2623,21.2697 29.2623,21.5482 C 29.2623,21.8495 29.0118,21.9998 28.7097,21.9998 C 28.3227,21.9998 27.9996,21.7958 27.9996,21.3148 C 27.9996,20.3547 29.1448,19.9998 29.9453,19.9998 C 31.0027,19.9998 31.9996,20.5635 31.9996,21.7247 V 24.941 C 31.9996,25.0907 32.0222,25.2882 32.2133,25.2882 C 32.3429,25.2882 32.4507,25.1575 32.5314,25.0548 L 32.6617,25.1744 C 32.3614,25.6333 32.0377,25.9998 31.4589,25.9998 C 31.0186,25.9998 30.645,25.7176 30.5413,25.1288 C 30.2044,25.6232 29.5951,25.9998 28.9756,25.9998 C 28.0922,25.9998 27.4996,25.2481 27.4996,24.44 C 27.4996,23.5426 28.2434,22.9787 29.0329,22.6526 C 29.6516,22.4003 30.4996,22.1984 30.4996,21.3945 C 30.4996,20.8322 30.0855,20.4666 29.5647,20.4666 Z" fill="rgb(127, 100, 8)"/>
<path d="M 47.474000000000004,22.945 C 47.484,22.7702 47.2703,22.6696 47.0965,22.6696 C 46.403,22.6696 45.9996,23.4497 45.9996,23.9998 C 45.9996,24.4998 46.2028,25.1858 46.7368,25.1858 C 47.1368,25.1858 47.484,24.7011 47.484,24.3489 V 22.96 Z M 46.5647,20.4666 C 46.2102,20.4666 45.9287,20.6089 45.8035,20.7797 C 45.7618,20.8328 45.741,20.8841 45.741,20.9334 C 45.741,20.9903 45.767,21.0321 45.8192,21.0586 C 46.0487,21.1526 46.2623,21.2697 46.2623,21.5482 C 46.2623,21.8495 46.0118,21.9998 45.7097,21.9998 C 45.3227,21.9998 44.9996,21.7958 44.9996,21.3148 C 44.9996,20.3547 46.1448,19.9998 46.9453,19.9998 C 48.0027,19.9998 48.9996,20.5635 48.9996,21.7247 V 24.941 C 48.9996,25.0907 49.0131,25.2332 49.1427,25.2332 S 49.2886,25.1025 49.3693,24.9998 L 49.4996,25.1193 C 49.1993,25.5783 49.0377,25.9998 48.4589,25.9998 C 48.0186,25.9998 47.645,25.7176 47.5413,25.1288 C 47.2044,25.6232 46.5951,25.9998 45.9756,25.9998 C 45.0922,25.9998 44.4996,25.2481 44.4996,24.44 C 44.4996,23.5426 45.2434,22.9787 46.0329,22.6526 C 46.6516,22.4003 47.4996,22.1984 47.4996,21.3945 C 47.4996,20.8322 47.0855,20.4666 46.5647,20.4666 Z" fill="rgb(127, 100, 8)"/>
<path d="M 13.99,32.473 H 13 V 36.0351 C 13,37.9932 11.6113,39.0002 9.7911,39.0002 C 9.42113,39.0002 8.3512,38.9449 8.3512,38.3809 C 8.3512,38.134 8.49382,38.0002 8.77762,38.0002 C 9.02979,38.0002 9.23159,38.4403 9.50863,38.5563 C 9.60462,38.5964 9.72461,38.6165 9.8686,38.6165 C 11.0183,38.6165 11.4999,37.5921 11.4999,36.5174 V 35.9364 C 11.193,36.0015 11.0117,36.0351 10.6162,36.0351 C 8.3177,36.0351 6.9999,34.2128 6.9999,32.0002 C 6.9999,29.0002 8.5882,27.0002 11.0149,27.0002 C 11.8609,27.0002 12.9999,26.9956 12.9999,28.0904 C 12.9999,28.546 12.6721,29.0002 12.1914,29.0002 C 11.2162,29.0002 12.2317,27.4716 11.1866,27.4716 C 9.4286,27.4716 8.4999,29.5002 8.4999,32.0002 C 8.4999,33.4123 9.21049,35.4541 10.9706,35.4541 C 11.2299,35.4541 11.3306,35.4119 11.4999,35.339 V 32.488 H 10.4999 V 32.0002 H 13.9999 V 32.488 Z" fill="rgb(127, 100, 8)"/>
<path d="M 41.254000000000005,20.941 C 41.297,20.9066 41.325,20.8535 41.3481,20.7966 C 41.3744,20.7396 41.3876,20.6865 41.3876,20.6372 C 41.3876,20.493 41.2245,20.4379 40.6905,20.4379 C 40.5257,20.4379 40.3889,20.4607 40.2801,20.5062 C 39.9512,20.6439 39.7813,21.3487 39.5038,21.3487 C 39.2287,21.3487 39.1775,20.9071 39.1775,20.7112 C 39.1775,20.0436 40.4291,19.9996 40.8734,19.9996 C 41.4104,19.9996 42.9896,19.9058 42.9896,20.8023 C 42.9896,20.863 42.9764,20.9313 42.9501,21.0072 C 42.927,21.0793 42.8973,21.1495 42.8611,21.2178 C 42.2076,22.572 41.3678,23.8555 40.6262,25.1628 C 40.6074,25.1988 40.5471,25.2805 40.5471,25.3848 C 40.5471,25.5168 40.681,25.5613 41.2739,25.5613 C 41.6779,25.5613 42.0687,25.4214 42.2826,25.0603 C 42.3815,24.8858 42.449,24.7264 42.515,24.6277 C 42.5512,24.5783 42.5974,24.5537 42.6534,24.5537 S 42.7589,24.5783 42.8017,24.6277 C 42.9512,24.7865 42.9995,25.0545 42.9995,25.2653 C 42.9995,26.0102 41.5443,25.9996 41.0217,25.9996 C 39.5521,25.9996 38.9995,25.7298 38.9995,25.1856 C 38.9995,24.9609 39.0936,24.7606 39.2616,24.4854 L 41.264,20.956 Z" fill="rgb(127, 100, 8)"/>
<path d="M 13.99,32.979 C 14,32.4969 14.0684,32.0623 14.2052,31.6904 C 14.342,31.3147 14.5238,31.0016 14.7505,30.7511 C 14.9809,30.5006 15.2473,30.3128 15.5497,30.1876 C 15.8521,30.0623 16.1688,29.9997 16.5,29.9997 S 17.1479,30.0585 17.4503,30.1762 C 17.7527,30.29 18.0173,30.4665 18.2441,30.7056 C 18.4744,30.9447 18.658,31.2483 18.7948,31.6164 C 18.9316,31.9807 19,32.4134 19,32.9143 C 19,33.4115 18.9316,33.8517 18.7948,34.235 S 18.4744,34.9409 18.2441,35.2027 C 18.0173,35.4646 17.7527,35.6638 17.4503,35.8005 C 17.1479,35.9333 16.8312,35.9997 16.5,35.9997 S 15.8521,35.9371 15.5497,35.8118 C 15.2473,35.6828 14.9809,35.4931 14.7505,35.2426 C 14.5238,34.9921 14.342,34.679 14.2052,34.3033 S 14,33.4912 14,32.994 Z M 17.3207,32.9371 C 17.3207,32.6335 17.3099,32.3413 17.2883,32.0604 C 17.2703,31.7758 17.2325,31.5234 17.1749,31.3033 C 17.1174,31.0832 17.0346,30.9086 16.9266,30.7796 C 16.8186,30.6468 16.6764,30.5803 16.5,30.5803 S 16.1814,30.6506 16.0734,30.791 C 15.9654,30.9276 15.8826,31.1098 15.8251,31.3375 C 15.7675,31.5614 15.7297,31.8175 15.7117,32.106 C 15.6937,32.3944 15.6847,32.6904 15.6847,32.994 S 15.6937,33.5955 15.7117,33.8877 C 15.7297,34.1762 15.7675,34.4342 15.8251,34.6619 C 15.8826,34.8896 15.9654,35.0737 16.0734,35.2141 C 16.1814,35.3507 16.3236,35.4191 16.5,35.4191 S 16.8186,35.3469 16.9266,35.2027 S 17.1174,34.8688 17.1749,34.6335 C 17.2325,34.3982 17.2703,34.1325 17.2883,33.8365 C 17.3099,33.5405 17.3207,33.2407 17.3207,32.9371 Z" fill="rgb(127, 100, 8)"/>
<path d="M 21.99,35.39 C 22,35.8133 21.6631,36.0004 21.2851,36.0004 C 20.9051,36.0004 20.5,35.7808 20.5,35.3935 V 28.008 C 20.5,27.7841 20.5348,27.5958 20.3439,27.5958 C 20.2464,27.5958 20.1796,27.6332 20.0905,27.7218 L 20,27.5844 C 20.3142,27.256 20.7272,27.0004 21.1946,27.0004 C 21.7857,27.0004 22,27.414 22,27.9451 V 35.405 Z" fill="rgb(127, 100, 8)"/>
<path d="M 42.99,35.39 C 43,35.8133 42.6631,36.0004 42.2851,36.0004 C 41.9051,36.0004 41.5,35.7808 41.5,35.3935 V 28.008 C 41.5,27.7841 41.5348,27.5958 41.3439,27.5958 C 41.2464,27.5958 41.1796,27.6332 41.0905,27.7218 L 41,27.5844 C 41.3142,27.256 41.7272,27.0004 42.1946,27.0004 C 42.7857,27.0004 43,27.414 43,27.9451 V 35.405 Z" fill="rgb(127, 100, 8)"/>
<path d="M 34.99,35.39 C 35,35.8133 34.6631,36.0004 34.2851,36.0004 C 33.9051,36.0004 33.5,35.7808 33.5,35.3935 V 30.008 C 33.5,29.7841 33.5348,29.5958 33.3439,29.5958 C 33.2464,29.5958 33.1796,29.6332 33.0905,29.7218 L 33,29.5844 C 33.3142,29.256 33.7272,29.0004 34.1946,29.0004 C 34.7857,29.0004 35,29.414 35,29.9451 V 35.405 Z" fill="rgb(127, 100, 8)"/>
<path d="M 26.49,32.785 C 26.5,32.1405 26.5003,30.5958 25.5108,30.5958 C 24.9501,30.5958 24.5,31.3531 24.5,32.9889 C 24.5,33.5971 24.6215,35.4164 25.4784,35.4164 C 26.0544,35.4164 26.5,34.5443 26.5,32.8 Z M 26.4352,30.2809 C 26.2505,29.25 25.5644,27.5844 24.2635,27.5844 C 23.8639,27.5844 23.3983,27.7383 23.1099,28.0004 L 22.9695,27.8 C 23.3465,27.2837 24.1335,27.0004 24.7711,27.0004 C 27.4174,27.0004 28,30.0716 28,32.1702 C 28,33.8415 27.4086,36.0004 25.4136,36.0004 C 23.7593,36.0004 23,34.4304 23,32.9889 C 23,31.5935 23.7608,30.0004 25.3596,30.0004 C 25.7,30.0004 26.1695,30.0696 26.4352,30.2809 Z" fill="rgb(127, 100, 8)"/>
<path d="M 47.49,32.785 C 47.5,32.1405 47.5003,30.5958 46.5108,30.5958 C 45.9501,30.5958 45.5,31.3531 45.5,32.9889 C 45.5,33.5971 45.6215,35.4164 46.4784,35.4164 C 47.0544,35.4164 47.5,34.5443 47.5,32.8 Z M 47.4352,30.2809 C 47.2505,29.25 46.5644,27.5844 45.2635,27.5844 C 44.8639,27.5844 44.3983,27.7383 44.1099,28.0004 L 43.9695,27.8 C 44.3465,27.2837 45.1335,27.0004 45.7711,27.0004 C 48.4174,27.0004 49,30.0716 49,32.1702 C 49,33.8415 48.4086,36.0004 46.4136,36.0004 C 44.7593,36.0004 44,34.4304 44,32.9889 C 44,31.5935 44.7608,30.0004 46.3596,30.0004 C 46.7,30.0004 47.1695,30.0696 47.4352,30.2809 Z" fill="rgb(127, 100, 8)"/>
<path d="M 31.264,27.395 C 30.6318,27.41 30.5,28.2045 30.5,28.6998 V 29.9999 H 32 V 30.4999 H 30.5 V 35.2733 C 30.5,37.2671 29.6295,38.9999 27.4858,38.9999 C 27.0882,38.9999 26,38.9219 26,38.3282 C 26,38.0713 26.1373,37.7101 26.4407,37.7101 C 26.5951,37.7101 26.7043,38.0373 26.7684,38.144 C 26.9198,38.4336 27.2459,38.5838 27.5649,38.5838 C 28.9341,38.5838 29,36.5305 29,35.5764 V 30.4999 H 28 V 29.9999 H 29 V 29.4664 C 29,28.0972 29.7466,26.9999 31.1271,26.9999 C 31.619,26.9999 33,27.0758 33,27.7488 C 33,28.0003 32.859,28.3729 32.5593,28.3729 C 32.1666,28.3729 31.8946,27.41 31.274,27.41 Z" fill="rgb(127, 100, 8)"/>
<path d="M 37.49,33.287 C 37.5,34.2381 38.6413,35.2297 39.6089,35.2297 C 40.1089,35.2297 40.4954,34.9649 40.8575,34.648 L 41,34.7849 C 40.4281,35.5559 39.5593,35.9997 38.6055,35.9997 C 37.0014,35.9997 36,34.6525 36,33.1309 C 36,31.5117 37.3256,29.9997 38.9818,29.9997 C 39.6696,29.9997 40.5,30.268 40.5,31.1176 C 40.5,31.4719 40.4329,31.7583 40.0878,31.9731 L 37.5,33.302 Z M 39.2434,32.0586 C 39.4592,31.9258 39.5,31.7461 39.5,31.4997 C 39.5,31.1446 39.322,30.5814 38.6397,30.5814 C 37.8302,30.5814 37.4621,31.8958 37.4487,32.4465 C 37.4449,32.5986 37.443,32.7278 37.443,32.8343 L 39.2434,32.0586 Z" fill="rgb(127, 100, 8)"/>
<circle cx="34.242" cy="27.759" r=".75858" fill="rgb(127, 100, 8)"/>
</svg>
