<?xml version="1.0" encoding="UTF-8"?>
<!-- generated by Finnhub -->
<svg viewBox="0 0 55.5 55.5" xmlns="http://www.w3.org/2000/svg">
<path d="M 0,0 H 55.5 V 55.5 H 0 Z" fill="rgb(239, 242, 248)"/>
<path d="M 38.660000000000004,13.985 H 17.33 A 4.37,4.37 0 0,0 13,18.32 V 37.68 A 4.37,4.37 0 0,0 17.33,42 H 38.67 A 4.37,4.37 0 0,0 43,37.68 V 18.32 A 4.37,4.37 0 0,0 38.67,14 Z M 17.33,13 A 5.33,5.33 0 0,0 12,18.32 V 37.68 A 5.33,5.33 0 0,0 17.33,43 H 38.67 A 5.33,5.33 0 0,0 44,37.68 V 18.32 A 5.33,5.33 0 0,0 38.67,13 H 17.33 Z" fill="rgb(248, 99, 6)" fill-rule="evenodd"/>
<path d="M 14.99,24.985 A 7,7 0 1,1 29,25 V 31 H 27 V 25 A 5,5 0 0,0 23,20.1 V 31 H 21 V 20.1 A 5,5 0 0,0 17,25 V 31 H 15 V 25 Z" fill="rgb(248, 99, 6)"/>
<path d="M 26.99,30.985 A 7,7 0 1,0 41,31 V 25 H 39 V 31 A 5,5 0 0,1 35,35.9 V 25 H 33 V 35.9 A 5,5 0 0,1 29,31 V 25 H 27 V 31 Z" fill="rgb(248, 99, 6)"/>
</svg>
