<?xml version="1.0" encoding="UTF-8"?>
<!-- generated by Finnhub -->
<svg viewBox="0 0 55.5 55.5" xmlns="http://www.w3.org/2000/svg">
<path d="M 0,0 H 55.5 V 55.5 H 0 Z" fill="rgb(239, 242, 248)"/>
<path d="M 19.99,23.415 V 26 H 22.92 A 5.13,5.13 0 0,1 27.58,23.25 C 29.51,23.25 30.68,23.97 31.41,24.53 A 6.2,6.2 0 0,1 35.31,23.25 C 37.71,23.25 41,25.2 41,28 V 38 H 39 V 28 C 39,26.91 37.63,25.18 34.98,25.18 C 32.52,25.18 31.48,27.18 31.46,27.21 L 31.4,27.33 L 31.35,27.2 S 31.13,26.7 30.58,26.22 A 4.17,4.17 0 0,0 27.74,25.24 A 3.36,3.36 0 0,0 24.17,28 H 18 V 23.02 C 18.04,22.92 19.25,20 22.27,20 C 25.24,20 26.37,22.76 26.42,22.86 L 26.45,22.93 L 26.38,22.95 S 25.31,23.16 24.63,23.68 C 24.63,23.66 24,22.01 22.27,22.01 C 20.88,22.01 20.17,23.08 20,23.43 Z M 38,38 V 28.7 A 2.85,2.85 0 0,0 34.98,26 C 32.73,26 32.13,27.97 32,28.85 V 38 H 34 V 28.85 C 34.05,28.65 34.08,28 34.94,28 C 35.73,28 35.92,28.51 36,28.7 V 38 H 38 Z M 31,38 V 28.44 A 3.07,3.07 0 0,0 27.89,26 C 25.63,26 25.13,27.7 25,28.59 V 38 H 27 V 29 C 27.05,28.79 27.14,28 28,28 C 28.79,28 28.92,28.39 29,28.59 V 38 H 31 Z M 45,39.3 V 16.57 C 45,15.11 43.75,14.22 42.6,14.02 L 42.5,14 H 14.26 C 12.14,14 11.24,15.34 11.04,16.13 L 11,16.28 V 39.4 C 11,40.35 11.4,40.93 11.75,41.26 C 12.45,41.93 13.36,42 13.72,42 H 17 V 22.9 C 17.7,19.95 20.1,19 22.1,19 C 24.11,19 26.76,20.26 27.12,22.86 A 5.29,5.29 0 0,1 29.46,23.03 C 28.65,19.7 25.6,17 22.11,17 A 7.3,7.3 0 0,0 15,22.55 V 40 H 13.56 C 13.14,40 13,39.54 13,39.46 V 16.64 C 13,16.48 13.21,16 14.09,16 H 42.25 C 42.73,16 43,16.48 43,16.57 V 39.3 C 43,39.71 42.43,40 42.2,40 H 20 V 31 H 22 V 38 H 24 V 29 H 18 V 42 H 42.2 C 43.35,42 44,41.54 44.35,41.16 C 44.99,40.46 45.02,39.62 45,39.3 Z" fill="rgb(27, 41, 59)"/>
</svg>
