<?xml version="1.0" encoding="UTF-8"?>
<!-- generated by Finnhub -->
<svg viewBox="0 0 55.5 55.5" xmlns="http://www.w3.org/2000/svg">
<path d="M 0,0 H 55.5 V 55.5 H 0 Z" fill="rgb(239, 242, 248)"/>
<path d="M 40.550000000000004,19.985 H 41.76 L 43.47,23.36 H 43.53 L 45.25,20 H 46.45 L 44,24.39 V 27 H 43 V 24.39 L 40.56,20 Z M 10,20 H 11.27 L 13.47,25.07 H 13.54 L 15.68,20 H 17 V 27 H 16 V 22.2 L 13.93,26.98 H 13.07 L 11,22.18 V 27 H 10 V 20 Z M 17.64,20 H 18.97 L 20.56,23.1 H 20.62 L 22.21,20 H 23.54 L 21,24.39 V 27 H 20 V 24.39 L 17.64,20 Z M 30.36,22.4 H 31.5 A 2.62,2.62 0 0,0 28.86,20 C 26.94,20 26,21.78 26,23.5 C 26,25.23 26.94,27 28.86,27 C 30.23,27 31.32,26 31.5,24.65 H 30.36 C 30.24,25.35 29.62,26 28.87,26 C 27.6,26 27,24.59 27,23.5 C 27,22.42 27.6,21 28.88,21 C 29.65,21 30.24,21.64 30.36,22.4 Z M 34,20 V 27 H 33 V 20 H 34 Z M 35,20 V 21 H 37 V 27 H 38 V 21 H 40 V 20 H 35 Z M 8,36 V 29 H 10.57 C 11.68,29 12.7,29.59 12.7,30.82 C 12.7,31.55 12.28,32.12 11.57,32.31 V 32.37 C 12.46,32.42 13,33.27 13,34.09 C 13,35.39 11.89,36 10.71,36 H 8 Z M 9,35 H 10.75 C 11.36,35 12,34.7 12,34 C 12,33.31 11.43,33 10.79,33 H 9 V 35 Z M 9,32 H 10.54 C 11.13,32 11.7,31.6 11.7,30.98 S 11.14,30 10.57,30 H 9 V 32 Z M 18,29 H 19 V 33.5 C 19,34.95 17.94,36 16.5,36 A 2.41,2.41 0 0,1 14,33.5 V 29 H 15 V 33.4 C 15,34.22 15.66,35 16.5,35 C 17.35,35 18,34.22 18,33.4 V 29 Z M 21,29 V 36 H 20 V 29 H 21 Z M 22,29 V 36 H 26 V 35 H 23 V 29 H 22 Z M 33,36 V 29 H 36.98 V 30 H 34 V 32 H 36.77 V 33 H 34 V 35 H 37 V 36 H 33 Z M 46.4,30.29 C 46.62,30.45 46.75,30.67 46.78,30.96 H 47.91 C 47.91,30.58 47.81,30.24 47.61,29.95 A 2,2 0 0,0 46.78,29.25 A 2.76,2.76 0 0,0 45.56,29 C 45.11,29 44.7,29.08 44.34,29.25 C 43.98,29.42 43.69,29.65 43.48,29.95 C 43.28,30.25 43.18,30.61 43.18,31.01 C 43.18,31.49 43.33,31.88 43.64,32.18 C 43.94,32.48 44.37,32.69 44.91,32.83 L 45.65,33.03 C 45.88,33.1 46.09,33.17 46.26,33.25 C 46.44,33.32 46.57,33.42 46.67,33.54 C 46.77,33.65 46.82,33.8 46.82,33.98 C 46.82,34.18 46.76,34.34 46.65,34.48 A 1.1,1.1 0 0,1 46.19,34.83 C 46,34.91 45.78,34.95 45.52,34.95 C 45.27,34.95 45.05,34.91 44.85,34.83 C 44.65,34.75 44.49,34.63 44.37,34.48 C 44.25,34.32 44.17,34.12 44.17,33.88 H 43 C 43.02,34.34 43.13,34.72 43.34,35.04 C 43.54,35.35 43.84,35.59 44.21,35.75 C 44.58,35.92 45.02,36 45.53,36 C 46.05,36 46.49,35.92 46.86,35.75 C 47.23,35.58 47.51,35.35 47.71,35.04 C 47.91,34.74 48,34.39 48,33.99 A 1.7,1.7 0 0,0 47.4,32.66 A 2.48,2.48 0 0,0 46.8,32.26 C 46.57,32.16 46.33,32.09 46.09,32.03 L 45.47,31.87 A 3.71,3.71 0 0,1 45.07,31.74 C 44.95,31.7 44.83,31.64 44.72,31.56 A 0.71,0.71 0 0,1 44.37,30.93 C 44.37,30.76 44.42,30.61 44.51,30.48 C 44.61,30.34 44.74,30.24 44.91,30.16 C 45.09,30.08 45.31,30.04 45.55,30.04 C 45.9,30.04 46.18,30.12 46.4,30.29 Z M 38,36 V 29 H 40.45 C 41.82,29 42.57,29.89 42.57,31.24 C 42.57,32.15 42.22,32.86 41.58,33.22 L 43,36 H 41.68 L 40.42,33.5 H 39 V 36 H 38 Z M 39,30 V 32.5 H 40.28 C 41.03,32.5 41.56,32 41.56,31.24 C 41.56,30.47 41.03,30 40.27,30 H 39 Z M 27,36 H 29.06 C 31.06,36 32,34.32 32,32.5 C 32,30.7 31.07,29 29.1,29 H 27 V 36 Z M 29,35 H 28 V 30 H 29.04 C 30.42,30 31,31.27 31,32.5 C 31,33.74 30.4,35 29,35 Z"/>
</svg>
