<?xml version="1.0" encoding="UTF-8"?>
<!-- generated by Finnhub -->
<svg viewBox="0 0 55.5 55.5" xmlns="http://www.w3.org/2000/svg">
<path d="M 0,0 H 55.5 V 55.5 H 0 Z" fill="rgb(239, 242, 248)"/>
<path d="M 10.76,17.985 C 12.58,18.05 14.4,18 16.21,18.02 H 45.18 C 45.67,19.21 46.41,20.24 46.96,21.4 L 47,21.5 C 40.79,21.5 34.58,21.48 28.37,21.5 C 29.07,22.84 29.8,24.25 30.53,25.57 C 30.91,26.32 31.31,26.94 31.77,27.76 C 32.27,28.96 32.95,30.05 33.59,31.16 C 33.04,32.41 32.31,33.56 31.66,34.76 C 28.61,29.21 25.59,23.65 22.56,18.09 C 21.88,19.21 21.28,20.38 20.62,21.51 C 19.28,21.49 17.95,21.49 16.62,21.51 C 16.71,21.97 17,22.34 17.22,22.74 L 18.42,24.87 C 19.56,26.97 20.74,29.05 21.89,31.14 C 21.36,32.4 20.61,33.54 19.96,34.74 C 17.81,30.84 15.66,26.94 13.53,23.04 C 12.61,21.36 11.73,19.66 10.77,18 Z" fill="rgb(154, 162, 132)"/>
<path d="M 10.76,17.985 C 11.72,19.66 12.61,21.36 13.53,23.04 L 19.96,34.74 C 20.61,33.54 21.36,32.4 21.89,31.14 L 23.73,27.89 C 23.83,27.74 23.86,27.53 23.75,27.37 C 23.29,26.52 22.8,25.68 22.35,24.83 C 21.83,23.69 21.1,22.67 20.62,21.51 C 21.28,20.38 21.88,19.21 22.55,18.09 C 25.59,23.65 28.61,29.21 31.66,34.76 C 32.31,33.56 33.04,32.41 33.59,31.16 C 34.78,29.08 35.89,27.09 37.06,25 C 38.47,25 39.89,24.97 41.3,25 C 41.03,25.68 40.63,26.17 40.28,26.8 C 37.93,31.04 35.6,35.3 33.23,39.52 C 32.78,40.32 32.43,41.2 31.83,41.91 C 30.54,39.55 29.23,37.21 27.95,34.84 C 27.65,34.14 27.3,33.48 26.93,32.83 C 26.63,32.31 26.37,31.75 26.02,31.27 C 25.78,31.59 25.59,31.94 25.41,32.29 C 23.63,35.49 21.86,38.69 20.06,41.86 C 16.36,35.26 12.79,28.59 9.14,21.97 A 0.9,0.9 0 0,1 9.14,21.02 C 9.69,20.02 10.3,19.05 10.77,18 Z" fill="rgb(61, 95, 111)"/>
<path d="M 16.61,21.485 H 20.62 C 21.1,22.67 21.86,23.65 22.42,25 H 18.5 C 18.08,24.3 17.63,23.45 17.22,22.74 C 17.01,22.34 16.72,21.97 16.62,21.51 Z M 28.37,21.51 C 34.58,21.49 40.79,21.51 47,21.5 C 46.55,22.5 45.99,23.44 45.46,24.4 C 42.39,29.98 39.31,35.54 36.25,41.12 C 36.05,41.48 35.85,41.98 35.39,41.99 L 32,42 L 31.83,41.9 C 32.43,41.2 32.78,40.32 33.23,39.5 C 35.6,35.26 37.93,31 40.28,26.74 C 40.63,26.1 41.03,25.68 41.3,25 C 39.89,24.97 38.47,25 37.06,25 C 35.96,25.02 34.88,25 33.79,25 C 33.49,24.96 33.29,25.03 33.16,25.28 C 32.71,26.09 32.22,26.91 31.76,27.71 C 30.42,25.49 29.42,23.55 28.37,21.51 Z M 25.4,32.29 C 25.6,31.94 25.78,31.59 26.02,31.27 C 26.37,31.75 26.62,32.31 26.92,32.83 C 27.3,33.48 27.65,34.15 27.95,34.84 C 27.24,35.89 26.68,37.04 26.07,38.14 C 25.37,39.32 24.73,40.54 24.06,41.73 C 23.96,41.96 23.7,41.99 23.49,41.98 H 20.93 C 20.63,41.98 20.32,42.01 20.03,41.91 L 20.06,41.86 C 21.86,38.68 23.63,35.48 25.41,32.29 Z" fill="rgb(122, 125, 128)"/>
</svg>
