<?xml version="1.0" encoding="UTF-8"?>
<!-- generated by Finnhub -->
<svg viewBox="0 0 55.5 55.5" xmlns="http://www.w3.org/2000/svg">
<path d="M 0,0 H 55.5 V 55.5 H 0 Z" fill="rgb(239, 242, 248)"/>
<path d="M 32.32,14.635 H 24.27 V 14.15 H 32.33 V 14.65 Z M 32.29,16.73 H 24.22 V 16.23 H 32.29 V 16.73 Z M 25.13,18.5 H 31.16 V 18 H 25.13 V 18.5 Z M 29.55,20.09 H 26.56 V 19.59 H 29.55 V 20.09 Z M 26.89,22.83 H 29.88 V 22.33 H 26.89 V 22.83 Z M 31.09,24.46 H 25.13 V 23.96 H 31.08 V 24.46 Z M 24.42,26.18 H 32.11 V 25.68 H 24.42 V 26.18 Z M 32.3,28.28 H 23.63 V 27.78 H 32.3 V 28.28 Z M 23.74,30.32 H 32.41 V 29.82 H 23.74 V 30.32 Z M 31.09,32.02 H 25.09 V 31.52 H 31.09 V 32.02 Z M 26.27,33.72 H 29.73 V 33.22 H 26.27 V 33.72 Z M 29.56,36.47 H 26.1 V 35.97 H 29.56 V 36.47 Z M 24.77,38.08 H 31.04 V 37.58 H 24.77 V 38.08 Z M 31.64,39.84 H 23.7 V 39.34 H 31.63 V 39.84 Z M 23.38,41.94 H 32.12 V 41.44 H 23.38 V 41.94 Z" fill="rgb(1, 165, 154)"/>
<path d="M 24.569999999999997,14.405 C 24.58,14.79 24.28,15.09 23.88,15.09 C 23.5,15.09 23.18,14.79 23.18,14.42 C 23.18,14.05 23.5,13.75 23.88,13.75 C 24.28,13.75 24.58,14.05 24.58,14.42 Z M 24.88,16.48 A 0.6,0.6 0 0,1 24.28,17.06 A 0.6,0.6 0 0,1 23.68,16.48 A 0.6,0.6 0 0,1 24.28,15.9 C 24.62,15.9 24.88,16.16 24.88,16.48 Z M 25.28,18.78 C 25.6,18.78 25.85,18.53 25.85,18.23 C 25.85,17.93 25.6,17.68 25.28,17.68 A 0.56,0.56 0 0,0 24.71,18.23 C 24.71,18.53 24.97,18.78 25.28,18.78 Z M 26.08,19.84 C 26.08,20.1 26.29,20.3 26.56,20.3 C 26.82,20.3 27.04,20.08 27.04,19.83 C 27.04,19.57 26.82,19.37 26.55,19.37 A 0.47,0.47 0 0,0 26.07,19.84 Z M 32,26.5 A 0.6,0.6 0 0,0 32.6,25.92 A 0.6,0.6 0 0,0 32,25.33 A 0.6,0.6 0 0,0 31.4,25.92 C 31.4,26.24 31.66,26.5 32,26.5 Z M 31.58,24.17 C 31.58,24.47 31.32,24.72 31.01,24.72 A 0.56,0.56 0 0,1 30.44,24.17 C 30.44,23.87 30.69,23.62 31.01,23.62 C 31.32,23.62 31.58,23.87 31.58,24.17 Z M 29.73,23.03 C 29.99,23.03 30.21,22.82 30.21,22.56 A 0.48,0.48 0 0,0 29.73,22.09 A 0.48,0.48 0 0,0 29.25,22.56 C 29.25,22.82 29.46,23.03 29.73,23.03 Z M 24.37,39.6 C 24.37,40.01 24.03,40.35 23.6,40.35 A 0.76,0.76 0 0,1 22.83,39.6 C 22.83,39.2 23.18,38.86 23.6,38.86 C 24.03,38.86 24.37,39.19 24.37,39.6 Z M 24.84,38.62 A 0.8,0.8 0 0,0 25.65,37.84 A 0.8,0.8 0 0,0 24.85,37.06 A 0.8,0.8 0 0,0 24.03,37.84 C 24.03,38.27 24.4,38.62 24.84,38.62 Z M 27.07,36.21 C 27.07,36.66 26.69,37.03 26.22,37.03 A 0.84,0.84 0 0,1 25.37,36.21 C 25.37,35.75 25.75,35.39 26.22,35.39 S 27.07,35.75 27.07,36.21 Z M 23.31,42.34 C 23.71,42.34 24.01,42.04 24.01,41.67 A 0.69,0.69 0 0,0 23.31,41 C 22.93,41 22.61,41.3 22.61,41.67 C 22.61,42.04 22.93,42.34 23.31,42.34 Z M 26.94,34.84 C 26.94,35.3 27.34,35.69 27.84,35.69 C 28.32,35.69 28.72,35.29 28.72,34.82 S 28.32,33.97 27.82,33.97 C 27.33,33.97 26.94,34.37 26.94,34.83 Z M 32.11,30.8 C 32.53,30.8 32.88,30.46 32.88,30.05 A 0.76,0.76 0 0,0 32.11,29.31 A 0.76,0.76 0 0,0 31.34,30.05 C 31.34,30.46 31.68,30.8 32.11,30.8 Z M 31.68,31.82 A 0.8,0.8 0 0,1 30.87,32.6 A 0.8,0.8 0 0,1 30.06,31.82 A 0.8,0.8 0 0,1 30.86,31.04 A 0.8,0.8 0 0,1 31.68,31.82 Z M 29.48,34.27 C 29.95,34.27 30.34,33.9 30.34,33.45 A 0.84,0.84 0 0,0 29.49,32.63 A 0.84,0.84 0 0,0 28.64,33.45 C 28.64,33.9 29.02,34.27 29.49,34.27 Z M 33.11,27.99 C 33.11,28.36 32.79,28.66 32.41,28.66 C 32.01,28.66 31.71,28.36 31.71,27.99 C 31.71,27.62 32.01,27.32 32.41,27.32 C 32.79,27.32 33.11,27.62 33.11,27.99 Z" fill="rgb(1, 165, 154)"/>
<path d="M 32.68,13.504999999999999 A 0.84,0.84 0 0,0 31.84,14.34 C 31.84,14.8 32.22,15.16 32.69,15.16 C 33.15,15.16 33.54,14.8 33.54,14.34 A 0.84,0.84 0 0,0 32.69,13.52 Z M 32.39,15.52 A 0.9,0.9 0 0,0 31.48,16.41 C 31.48,16.91 31.89,17.3 32.4,17.3 C 32.9,17.3 33.32,16.9 33.32,16.4 A 0.9,0.9 0 0,0 32.4,15.51 Z M 31.16,17.24 A 0.95,0.95 0 0,0 30.2,18.17 C 30.2,18.69 30.63,19.1 31.16,19.1 C 31.68,19.1 32.12,18.69 32.12,18.17 A 0.95,0.95 0 0,0 31.16,17.24 Z M 29.78,18.84 C 29.23,18.84 28.78,19.26 28.78,19.8 S 29.23,20.77 29.78,20.77 C 30.32,20.77 30.78,20.34 30.78,19.8 A 0.99,0.99 0 0,0 29.78,18.83 Z M 23.89,25.08 A 0.9,0.9 0 0,0 22.97,25.98 C 22.97,26.48 23.39,26.87 23.89,26.87 S 24.81,26.47 24.81,25.97 A 0.9,0.9 0 0,0 23.89,25.08 Z M 25.13,23.28 A 0.95,0.95 0 0,0 24.17,24.21 C 24.17,24.73 24.61,25.14 25.13,25.14 C 25.66,25.14 26.09,24.74 26.09,24.21 A 0.95,0.95 0 0,0 25.13,23.28 Z M 26.51,21.61 C 25.97,21.61 25.51,22.04 25.51,22.58 S 25.97,23.55 26.51,23.55 C 27.06,23.55 27.51,23.12 27.51,22.58 A 0.99,0.99 0 0,0 26.51,21.61 Z M 28.17,20.17 C 27.6,20.17 27.14,20.63 27.14,21.19 S 27.62,22.19 28.18,22.19 C 28.76,22.19 29.22,21.73 29.22,21.18 C 29.22,20.62 28.74,20.18 28.18,20.18 Z M 32.12,40.76 A 0.84,0.84 0 0,0 31.27,41.58 C 31.27,42.04 31.65,42.4 32.12,42.4 C 32.58,42.4 32.97,42.04 32.97,41.58 A 0.84,0.84 0 0,0 32.12,40.76 Z M 31.72,38.79 A 0.74,0.74 0 0,0 30.97,39.52 C 30.97,39.93 31.31,40.25 31.72,40.25 C 32.12,40.25 32.47,39.93 32.47,39.52 C 32.47,39.12 32.13,38.79 31.72,38.79 Z M 30.72,37.07 C 30.32,37.07 30,37.37 30,37.77 C 30,38.17 30.32,38.47 30.72,38.47 C 31.11,38.47 31.44,38.17 31.44,37.77 C 31.44,37.37 31.11,37.07 30.72,37.07 Z M 29.44,35.56 A 0.62,0.62 0 0,0 28.81,36.18 C 28.81,36.53 29.11,36.78 29.45,36.78 A 0.64,0.64 0 0,0 30.08,36.17 C 30.08,35.81 29.78,35.56 29.44,35.56 Z M 23.59,27.24 A 0.84,0.84 0 0,0 22.74,28.06 C 22.74,28.52 23.13,28.88 23.59,28.88 C 24.06,28.88 24.44,28.52 24.44,28.06 A 0.84,0.84 0 0,0 23.59,27.24 Z M 24,29.38 A 0.74,0.74 0 0,0 23.25,30.11 C 23.25,30.52 23.59,30.85 24,30.85 S 24.75,30.52 24.75,30.11 C 24.75,29.71 24.41,29.38 24,29.38 Z M 25,31.17 C 24.6,31.17 24.27,31.47 24.27,31.87 C 24.27,32.26 24.6,32.57 24.99,32.57 C 25.39,32.57 25.71,32.26 25.71,31.87 C 25.71,31.47 25.39,31.17 24.99,31.17 Z M 26.26,32.86 A 0.62,0.62 0 0,0 25.63,33.48 C 25.63,33.83 25.93,34.09 26.27,34.09 H 26.28 A 0.64,0.64 0 0,0 26.9,33.47 C 26.9,33.12 26.6,32.86 26.26,32.86 Z" fill="rgb(189, 29, 43)"/>
<path d="M 27.99,11.985 A 16,16 0 1,0 28,44 A 16,16 0 0,0 28,12 Z M 11,28 A 17,17 0 1,1 45,28 A 17,17 0 0,1 11,28 Z" fill="rgb(1, 165, 154)"/>
</svg>
