<?xml version="1.0" encoding="UTF-8"?>
<!-- generated by Finnhub -->
<svg viewBox="0 0 55.5 55.5" xmlns="http://www.w3.org/2000/svg">
<path d="M 0,0 H 55.5 V 55.5 H 0 Z" fill="rgb(254, 130, 2)"/>
<path d="M 37.440000000000005,14.945 L 28,10 L 18.65,14.96 L 19,17.19 L 14,20.04 L 17.68,37.56 L 28,47 L 38.38,37.56 L 42,20.04 L 37,17.2 L 37.45,14.96 Z M 21.5,16.36 L 28,13.08 L 34.5,16.36 L 34,18.44 L 39,21.24 L 36,36.27 L 28,43.61 L 20,36.27 L 17,21.24 L 22,18.72 L 21.5,16.36 Z M 31,24.3 C 31,22.5 29.69,21.99 28,21.99 V 28.43 C 29.88,27.74 31,25.79 31,24.3 Z M 34,24.3 C 34,28 31,30 28,31.6 V 39 L 25,36.45 L 24.78,32.47 L 23.26,33 L 22,30.41 L 24.6,29.62 L 24,19.6 L 24.26,19.53 C 24.99,19.31 25.96,19.01 27.55,19.01 C 30.47,19.01 34,20.13 34,24.32 Z" fill="rgb(254, 254, 253)"/>
</svg>
