<?xml version="1.0" encoding="UTF-8"?>
<!-- generated by Finnhub -->
<svg viewBox="0 0 55.5 55.5" xmlns="http://www.w3.org/2000/svg">
<path d="M 0,0 H 55.5 V 55.5 H 0 Z" fill="rgb(1, 113, 166)"/>
<path d="M 25.799999999999997,19.985 L 28.94,24.33 L 32.08,20 H 37.89 L 32,28.45 V 36 H 26 V 28.45 L 20,20 H 25.81 Z M 15.1,25.28 L 18.28,20 L 24,28.86 V 36 H 18 V 29.3 L 15.1,34.22 L 12,29.6 V 36 H 6 V 20 H 11.81 L 15.1,25.28 Z M 48,24.6 A 4.23,4.23 0 0,1 44,29 L 50,36 H 43.69 L 40,31.3 V 36 H 34 V 28.9 L 39.88,20 H 43.62 C 46.15,20 48,22.06 48,24.6 Z" fill="rgb(254, 254, 253)"/>
</svg>
