<?xml version="1.0" encoding="UTF-8"?>
<!-- generated by Finnhub -->
<svg viewBox="0 0 55.5 55.5" xmlns="http://www.w3.org/2000/svg">
<path d="M 0,0 H 55.5 V 55.5 H 0 Z" fill="rgb(239, 242, 248)"/>
<path d="M 20.049999999999997,40.985 H 12 C 13.8,40.33 15.28,22.72 16.03,14 H 23.97 C 24.27,16.36 21.93,32.98 20.06,41 Z" fill="url(#d)"/>
<path d="M 41.49,28.445 C 42.14,34.74 43.5,39.56 44,41 H 36 C 34.4,39.6 32.93,22.42 32,14 H 40 C 40.27,16.32 40.86,22.2 41.5,28.46 Z" fill="url(#c)"/>
<path d="M 35.99,28.445 C 36.6,25.43 38.88,17.52 40,14 H 32 C 31.26,15.27 28.74,24.25 28,28.46 A 64.02,64.02 0 0,1 24,41 H 32 C 33.49,41 35.26,32.26 36,28.46 Z" fill="url(#b)"/>
<path d="M 23.99,13.985 H 16 C 20.5,28.95 20.5,32.32 24,41 H 32 C 29,31.36 27,22.68 24,14 Z" fill="url(#a)"/>
<path d="M 15.99,14.385 C 15.24,23.25 13.77,40.34 12,41 H 20.06 C 20.52,39.02 21.01,36.52 21.48,33.84 A 77.85,77.85 0 0,0 24,41 H 32 C 32.81,41 33.71,38.38 34.48,35.39 C 34.96,38.39 35.48,40.54 36,41 H 44 A 62.46,62.46 0 0,1 41.5,28.46 L 41.23,25.79 C 40.7,20.58 40.23,16 40,14 H 32 C 31.3,15.2 29.03,23.21 28.15,27.67 C 26.85,23.02 25.56,18.51 24,14 H 16 L 16.02,14.07 L 15.99,14.4 Z" fill="rgb(171, 172, 173)" fill-opacity=".3"/>
<defs>
<linearGradient id="d" x1="18" x2="18" y1="14" y2="41" gradientUnits="userSpaceOnUse">
<stop stop-color="rgb(136, 135, 135)" offset="0"/>
<stop stop-color="rgb(130, 130, 131)" offset=".27"/>
<stop stop-color="rgb(162, 163, 163)" offset=".49"/>
<stop stop-color="rgb(152, 154, 154)" offset=".7"/>
<stop stop-color="rgb(190, 192, 192)" offset="1"/>
</linearGradient>
<linearGradient id="c" x1="38" x2="38" y1="14" y2="41" gradientUnits="userSpaceOnUse">
<stop stop-color="rgb(140, 135, 136)" offset="0"/>
<stop stop-color="rgb(175, 174, 174)" offset=".38"/>
<stop stop-color="rgb(126, 126, 127)" offset=".69"/>
<stop stop-color="rgb(192, 193, 194)" offset="1"/>
</linearGradient>
<linearGradient id="b" x1="31.72" x2="31.72" y1="14" y2="41" gradientUnits="userSpaceOnUse">
<stop stop-color="rgb(209, 209, 208)" offset="0"/>
<stop stop-color="rgb(159, 159, 164)" offset=".22"/>
<stop stop-color="rgb(138, 138, 141)" offset=".36"/>
<stop stop-color="rgb(94, 94, 95)" offset=".61"/>
<stop stop-color="rgb(174, 174, 175)" offset=".82"/>
<stop stop-color="rgb(193, 193, 193)" offset="1"/>
</linearGradient>
<linearGradient id="a" x1="24" x2="24" y1="14" y2="41" gradientUnits="userSpaceOnUse">
<stop stop-color="rgb(164, 164, 165)" offset="0"/>
<stop stop-color="rgb(229, 229, 232)" offset=".26"/>
<stop stop-color="rgb(105, 105, 109)" offset=".46"/>
<stop stop-color="rgb(118, 118, 119)" offset=".71"/>
<stop stop-color="rgb(164, 164, 165)" offset="1"/>
</linearGradient>
</defs>
</svg>
