<?xml version="1.0" encoding="UTF-8"?>
<!-- generated by Finnhub -->
<svg viewBox="0 0 55.5 55.5" xmlns="http://www.w3.org/2000/svg">
<path d="M 0,0 H 55.5 V 55.5 H 0 Z" fill="rgb(239, 242, 248)"/>
<path d="M 26.389999999999997,36.985 H 21.8 L 38.75,17 L 43.36,23.3 C 45.41,25.91 48.12,31.09 43.36,35.35 A 6.9,6.9 0 0,1 38.74,37 C 36.98,37.04 35.06,36.64 34.12,35.74 L 31.56,33.12 L 34.12,30.11 L 36.17,32.21 C 37.03,33.08 39.25,34.31 41.3,32.73 C 43.67,30.91 42.67,28.18 41.81,26.96 L 38.74,22.76 L 26.4,37 Z" fill="rgb(46, 94, 169)"/>
<path d="M 5.99,36.985 H 11.26 L 21.8,24.37 L 26,29.1 L 29.16,25.95 L 21.79,17 L 6,37 Z" fill="rgb(104, 14, 13)"/>
<path d="M 7.86,36.985 L 21.8,19.1 L 28.3,26.82 L 29.17,25.95 L 21.79,17 L 6,37 H 7.87 Z" fill="rgb(212, 133, 57)"/>
</svg>
