<?xml version="1.0" encoding="UTF-8"?>
<!-- generated by Finnhub -->
<svg viewBox="0 0 55.5 55.5" xmlns="http://www.w3.org/2000/svg">
<path d="M 0,0 H 55.5 V 55.5 H 0 Z" fill="rgb(239, 242, 248)"/>
<path d="M 21.77,24.945 H 8.18 V 26.62 H 25.18 L 21.78,24.96 Z M 8.18,31.1 H 21.72 L 25.13,29.44 H 8.18 V 31.1 Z M 8.18,18.36 V 22.12 H 15.95 L 8.18,18.36 Z M 17.18,22.71 H 8.18 V 24.37 H 20.56 L 17.18,22.71 Z M 28.09,27.98 L 26.42,27.18 H 8.18 V 28.81 H 26.36 L 28.09,27.98 Z" fill="rgb(238, 61, 64)"/>
<path d="M 28.08,27.965 L 29.76,27.18 H 47.97 V 28.81 H 29.82 L 28.09,27.98 Z" fill="rgb(1, 72, 142)"/>
<path d="M 8.17,37.655 L 15.89,33.94 H 8.18 V 37.67 Z M 8.18,33.35 H 17.12 L 20.5,31.69 H 8.18 V 33.35 Z M 47.79,27.07 H 47.97 V 18.36 L 30.27,26.95 H 47.8 V 27.07 Z M 30.15,29.02 L 47.97,37.67 V 28.93 H 47.79 V 29.03 H 30.15 Z" fill="rgb(238, 61, 64)"/>
<path d="M 47.75,17.985 H 8 V 38 H 48 V 18 H 47.76 Z M 47,19 V 37 H 9 V 19 H 47 Z" fill="rgb(1, 72, 142)"/>
<path d="M 12.99,35.325 L 8.18,37.67 V 18.36 L 13,20.69 V 35.34 Z" fill="rgb(1, 72, 142)"/>
<path d="M 9.28,19.195 L 9.53,19.92 H 10.27 L 9.67,20.37 L 9.91,21.08 L 9.28,20.67 L 8.66,21.08 L 8.9,20.38 L 8.3,19.93 H 9.05 L 9.29,19.21 Z M 11.49,20.46 L 11.74,21.17 H 12.48 L 11.88,21.62 L 12.13,22.32 L 11.5,21.92 L 10.87,22.32 L 11.11,21.62 L 10.51,21.17 H 11.26 L 11.5,20.46 Z M 9.29,21.64 L 9.53,22.36 H 10.27 L 9.67,22.8 L 9.91,23.51 L 9.28,23.1 L 8.66,23.51 L 8.9,22.8 L 8.3,22.36 H 9.05 L 9.29,21.64 Z M 11.49,22.89 L 11.74,23.6 H 12.48 L 11.88,24.04 L 12.13,24.76 L 11.5,24.34 L 10.87,24.76 L 11.11,24.04 L 10.51,23.6 H 11.26 L 11.5,22.89 Z M 9.29,24.19 L 9.53,24.9 H 10.27 L 9.67,25.35 L 9.91,26.05 L 9.28,25.65 L 8.66,26.05 L 8.9,25.35 L 8.3,24.9 H 9.05 L 9.29,24.2 Z M 11.49,25.44 L 11.74,26.14 H 12.48 L 11.88,26.59 L 12.13,27.3 L 11.5,26.89 L 10.87,27.3 L 11.11,26.6 L 10.51,26.15 H 11.26 L 11.5,25.44 Z M 9.29,26.74 L 9.53,27.45 H 10.27 L 9.67,27.9 L 9.91,28.6 L 9.28,28.2 L 8.66,28.6 L 8.9,27.9 L 8.3,27.45 H 9.05 L 9.29,26.75 Z M 11.49,27.99 L 11.74,28.69 H 12.48 L 11.88,29.14 L 12.13,29.85 L 11.5,29.44 L 10.87,29.85 L 11.11,29.15 L 10.51,28.7 H 11.26 L 11.5,27.99 Z M 9.29,29.29 L 9.53,30 H 10.27 L 9.67,30.44 L 9.91,31.16 L 9.28,30.74 L 8.66,31.16 L 8.9,30.44 L 8.3,30 H 9.05 L 9.29,29.29 Z M 11.49,30.53 L 11.74,31.24 H 12.48 L 11.88,31.69 L 12.13,32.4 L 11.5,31.99 L 10.87,32.4 L 11.11,31.69 L 10.51,31.24 H 11.26 L 11.5,30.54 Z M 9.29,31.83 L 9.53,32.55 H 10.27 L 9.67,32.99 L 9.91,33.7 L 9.28,33.29 L 8.66,33.7 L 8.9,33 L 8.3,32.55 H 9.05 L 9.29,31.84 Z M 11.49,33.08 L 11.74,33.79 H 12.48 L 11.88,34.24 L 12.13,34.94 L 11.5,34.54 L 10.87,34.94 L 11.11,34.24 L 10.51,33.79 H 11.26 L 11.5,33.09 Z M 9.29,34.38 L 9.53,35.1 H 10.27 L 9.67,35.54 L 9.91,36.25 L 9.28,35.84 L 8.66,36.25 L 8.9,35.55 L 8.3,35.1 H 9.05 L 9.29,34.39 Z" fill="rgb(254, 254, 253)"/>
</svg>
