<?xml version="1.0" encoding="UTF-8"?>
<!-- generated by Finnhub -->
<svg viewBox="0 0 55.5 55.5" xmlns="http://www.w3.org/2000/svg">
<path d="M 0,0 H 55.5 V 55.5 H 0 Z" fill="rgb(239, 242, 248)"/>
<path d="M 40.010000000000005,40.005 A 16.38,16.38 0 0,0 45,28 C 45,23.3 43.34,19.3 40.02,15.98 A 16.38,16.38 0 0,0 28,11 C 23.3,11 19.3,12.66 15.98,15.98 A 16.38,16.38 0 0,0 11,28 C 11,32.7 12.66,36.7 15.98,40.02 A 16.38,16.38 0 0,0 28,45 C 32.7,45 36.7,43.34 40.02,40.02 Z M 25.55,13.16 C 23.9,14.16 22.55,15.9 21.53,18.4 C 20.73,20.36 20.19,22.5 19.93,24.79 C 19.92,24.89 19.95,24.91 20.03,24.83 A 33.14,33.14 0 0,1 33.19,16.09 C 33.25,16.07 33.26,16.03 33.22,15.98 C 32.69,15.17 32.1,14.48 31.46,13.9 A 5.34,5.34 0 0,0 28.62,12.51 A 4.58,4.58 0 0,0 25.55,13.16 Z M 18.42,25.25 C 18.86,20.22 20.37,16.28 22.94,13.41 C 23.02,13.31 23,13.29 22.89,13.33 C 20.09,14.29 17.78,15.93 15.93,18.24 A 15.87,15.87 0 0,0 12.56,26.1 C 12.55,26.19 12.58,26.22 12.66,26.2 C 13.2,26.03 13.77,25.9 14.38,25.8 C 15.68,25.6 16.98,25.46 18.28,25.38 C 18.36,25.38 18.41,25.33 18.42,25.25 Z M 36.92,15.29 L 34.78,15.57 C 34.76,15.57 34.74,15.57 34.72,15.55 L 33.02,13.32 C 32.92,13.17 32.94,13.14 33.1,13.22 L 36.94,15.17 C 37.06,15.23 37.06,15.27 36.92,15.29 Z M 37.59,24.59 C 39.59,21.66 40.41,19.58 40.07,18.34 C 39.81,17.4 38.47,17.28 36.05,17.99 C 35.95,18.02 35.93,18.08 35.96,18.17 C 36.76,20.22 37.28,22.35 37.49,24.57 C 37.5,24.67 37.54,24.67 37.59,24.59 Z M 24.92,24.28 C 28.05,21.68 31.22,19.78 34.42,18.56 C 34.5,18.53 34.54,18.56 34.57,18.62 C 35.37,20.67 35.87,22.84 36.09,25.12 C 36.09,25.22 36.06,25.25 35.97,25.25 C 32.05,25.03 28.12,24.98 24.19,25.1 C 24.07,25.1 24.06,25.06 24.14,24.98 C 24.38,24.75 24.64,24.51 24.92,24.28 Z M 41.97,21.6 C 41.71,22.84 41.17,24.14 40.32,25.5 C 40.27,25.58 40.29,25.62 40.39,25.63 C 41.35,25.73 42.35,25.92 43.37,26.2 C 43.43,26.22 43.46,26.2 43.45,26.13 A 16.6,16.6 0 0,0 42.15,21.58 C 42.07,21.4 42.01,21.4 41.97,21.6 Z M 35.93,26.7 C 35.99,26.7 36,26.72 35.97,26.77 C 35.27,27.63 34.55,28.44 33.77,29.21 A 0.68,0.68 0 0,1 33.31,29.41 C 30.41,29.54 27.35,29.55 24.15,29.45 C 22.76,29.4 21.43,29.35 20.15,29.32 C 19.99,29.32 19.96,29.25 20.07,29.12 L 22.2,26.77 A 0.44,0.44 0 0,1 22.5,26.62 C 23.14,26.57 23.78,26.53 24.4,26.52 C 28.2,26.44 32.05,26.5 35.93,26.69 Z M 12.58,28.16 C 12.77,28.29 12.96,28.38 13.15,28.43 C 14.18,28.71 15.3,28.9 16.51,28.99 C 16.57,28.99 16.62,28.97 16.66,28.92 L 18.18,26.89 C 18.21,26.85 18.2,26.83 18.15,26.83 C 16.69,26.95 15.32,27.12 14.03,27.35 C 13.52,27.45 13.05,27.59 12.62,27.79 C 12.4,27.89 12.39,28.02 12.58,28.16 Z M 43.39,28.2 C 42.96,28.4 42.49,28.55 42.01,28.64 C 40.69,28.88 39.33,29.05 37.93,29.16 C 37.83,29.16 37.8,29.13 37.87,29.05 L 39.33,27.08 C 39.37,27.02 39.43,27 39.5,27 C 40.8,27.1 41.97,27.31 43.01,27.62 C 43.17,27.67 43.31,27.75 43.44,27.85 C 43.61,27.99 43.59,28.11 43.39,28.2 Z M 14.01,34.41 C 14.33,33.07 14.89,31.77 15.68,30.51 C 15.73,30.43 15.71,30.38 15.61,30.37 C 14.56,30.25 13.57,30.07 12.64,29.81 C 12.58,29.8 12.55,29.81 12.56,29.88 C 12.78,31.48 13.21,33 13.85,34.43 C 13.92,34.58 13.97,34.58 14.01,34.41 Z M 43.43,29.86 A 15.14,15.14 0 0,1 40.12,37.71 A 16.11,16.11 0 0,1 33.16,42.67 C 32.96,42.74 32.94,42.71 33.08,42.56 C 35.6,39.97 37.1,36.04 37.58,30.74 C 37.6,30.67 37.63,30.64 37.7,30.64 C 38.86,30.55 40.12,30.42 41.48,30.22 C 42.13,30.13 42.75,29.99 43.35,29.79 C 43.41,29.77 43.44,29.79 43.43,29.86 Z M 31.9,30.9 C 27.8,31.03 23.82,30.98 19.98,30.74 C 19.92,30.74 19.89,30.76 19.9,30.82 C 20.11,33.17 20.63,35.37 21.43,37.42 C 21.45,37.45 21.47,37.46 21.51,37.45 A 32.6,32.6 0 0,0 31.86,31.03 A 0.13,0.13 0 0,0 31.91,30.91 Z M 36.06,31.2 C 35.47,36.45 33.85,40.16 31.17,42.33 C 29.67,43.55 28.1,43.85 26.47,43.25 A 7.5,7.5 0 0,1 22.77,39.99 C 22.74,39.96 22.75,39.93 22.79,39.91 C 27.61,38.23 31.99,35.31 35.97,31.16 C 36.04,31.09 36.07,31.1 36.06,31.2 Z M 18.36,31.45 C 17.67,32.48 17.06,33.55 16.52,34.65 A 5.83,5.83 0 0,0 15.84,37.13 C 15.83,38.51 17.21,38.8 19.97,38 C 20.04,37.98 20.07,37.94 20.04,37.87 A 24.04,24.04 0 0,1 18.51,31.49 C 18.49,31.34 18.44,31.33 18.36,31.45 Z M 22.91,42.68 A 14.39,14.39 0 0,1 19.14,40.76 C 19.04,40.68 19.04,40.65 19.18,40.65 C 19.82,40.65 20.48,40.56 21.15,40.4 C 21.22,40.38 21.28,40.4 21.32,40.46 C 21.83,41.27 22.38,41.99 22.96,42.61 C 23.03,42.69 23.02,42.71 22.91,42.68 Z" fill="rgb(2, 75, 62)" fill-rule="evenodd"/>
</svg>
