<?xml version="1.0" encoding="UTF-8"?>
<!-- generated by Finnhub -->
<svg viewBox="0 0 55.5 55.5" xmlns="http://www.w3.org/2000/svg">
<path d="M 0,0 H 55.5 V 55.5 H 0 Z" fill="rgb(17, 57, 92)"/>
<path d="M 29.99,12.985 H 29 V 43 H 30 V 13 Z M 23.75,35.97 L 12.5,24.35 V 32.59 C 12.5,34.21 12.74,35.45 14.49,35.55 V 36 H 9 V 35.55 C 10.85,35.4 11,34.18 11,32.59 V 20.8 C 11,20.1 11.53,19.83 11.83,20.1 L 23,31.86 V 23.48 C 23,21.88 23,20.56 21.51,20.56 V 20 H 26 V 20.55 C 24.53,20.63 24.5,22.25 24.5,23.47 V 35.55 C 24.5,36.15 23.75,35.97 23.75,35.97 Z M 39.06,20 C 40.79,20 42.09,20.33 42.96,21 C 43.83,21.67 44.26,22.9 44.26,24.21 C 44.26,24.69 44.19,25.14 44.06,25.57 A 2.6,2.6 0 0,1 43.1,26.9 A 2.52,2.52 0 0,1 42.2,27.37 L 41.53,27.6 C 41.86,27.68 42.13,27.76 42.37,27.84 C 42.61,27.92 42.83,28.02 43.01,28.13 C 43.2,28.23 43.36,28.33 43.51,28.46 C 43.67,28.58 43.81,28.72 43.97,28.89 A 4.41,4.41 0 0,1 44.61,33.56 C 44.39,34.08 44.07,34.52 43.66,34.89 A 4.4,4.4 0 0,1 42.14,35.71 C 41.54,35.91 40.88,36 40.14,36 H 33 V 35.57 C 34.47,35.52 35,34.83 35,33.48 V 22.56 C 35,21.18 34.48,20.56 33,20.47 V 20 H 39.06 Z M 37,33.48 C 37,34.3 38.01,35 39.07,35 C 41.14,35 42.7,33.97 42.7,31.8 A 3.5,3.5 0 0,0 40.64,28.61 C 39.69,28.19 38.02,28.11 37,28.11 V 33.48 Z M 39.32,27 C 41.08,27 42.19,26.15 42.19,24.21 A 3.3,3.3 0 0,0 39.18,21 C 38.56,21 37,21.12 37,21.99 V 27 H 39.32 Z" fill="rgb(254, 254, 253)"/>
</svg>
