<?xml version="1.0" encoding="UTF-8"?>
<!-- generated by Finnhub -->
<svg viewBox="0 0 55.5 55.5" xmlns="http://www.w3.org/2000/svg">
<path d="M 0,28 A 28,28 0 1,1 56,28 A 28,28 0 0,1 0,28 Z" fill="rgb(22, 50, 115)"/>
<path d="M 22.99,26.384999999999998 V 12.8 C 24.57,12.28 26.25,12 28,12 V 28.02 C 28,31.02 24,32.52 24,36.02 V 43.52 A 15.91,15.91 0 0,1 19,41.26 V 33.63 C 19,33.33 19.09,33.04 19.25,32.79 L 22.58,27.79 C 22.85,27.39 23,26.9 23,26.41 Z" fill="rgb(254, 254, 253)"/>
<path d="M 17.99,25.384999999999998 V 15.51 C 19.2,14.55 20.55,13.75 22,13.16 V 26.41 C 22,26.71 21.91,26.99 21.75,27.24 L 18.42,32.24 C 18.15,32.64 18,33.14 18,33.63 V 40.52 A 16.09,16.09 0 0,1 14,35.77 V 32.63 C 14,32.33 14.09,32.03 14.25,31.79 L 17.58,26.79 C 17.85,26.39 18,25.9 18,25.41 Z" fill="rgb(254, 254, 253)"/>
<path d="M 16.99,25.384999999999998 V 16.4 A 15.98,15.98 0 0,0 13,33.61 V 32.64 C 13,32.14 13.15,31.66 13.42,31.24 L 16.75,26.25 C 16.91,26 17,25.71 17,25.42 Z M 44,28.02 C 44,31.5 42.89,34.72 41,37.35 V 18.68 C 42.89,21.31 44,24.53 44,28.02 Z M 40,17.42 A 16.06,16.06 0 0,0 35,13.61 V 42.42 A 16.1,16.1 0 0,0 40,38.61 V 17.42 Z M 34,13.16 A 15.9,15.9 0 0,0 29,12.03 V 44 C 30.76,43.9 32.44,43.5 34,42.87 V 13.17 Z" fill="rgb(254, 254, 253)"/>
</svg>
