<?xml version="1.0" encoding="UTF-8"?>
<!-- generated by Finnhub -->
<svg viewBox="0 0 55.5 55.5" xmlns="http://www.w3.org/2000/svg">
<path d="M 0,0 H 55.5 V 55.5 H 0 Z" fill="rgb(239, 242, 248)"/>
<path d="M 3.99,30.255 V 23.1 A 9.6,9.6 0 0,1 6.73,21.08 L 12,27.87 V 20.57 C 12.02,20.1 12.44,19.99 12.62,20 H 13.46 C 13.88,20 13.98,20.36 13.98,20.58 L 14,30.36 C 13.96,30.95 13.67,31 13.46,31 H 12.94 C 12.56,31 12.32,30.8 12.21,30.69 L 6,22.76 V 30.26 C 6.02,30.84 5.65,30.99 5.46,31 H 4.56 C 4.11,30.98 4,30.5 4,30.27 Z" fill="rgb(29, 43, 81)"/>
<path d="M 20.49,29.705 A 3.22,3.22 0 0,1 17.95,31 C 16.13,31 14.65,29.43 14.65,27.5 S 16.13,24 17.95,24 C 18.98,24 19.89,24.5 20.5,25.28 V 24.5 C 20.5,24.22 20.72,24 21,24 H 21.5 C 21.78,24 22,24.22 22,24.5 V 30.5 A 0.5,0.5 0 0,1 21.5,31 H 21 A 0.5,0.5 0 0,1 20.5,30.5 V 29.72 Z M 20.48,27.5 C 20.48,28.81 19.48,29.87 18.24,29.87 C 17.01,29.87 16.01,28.81 16.01,27.5 S 17.01,25.13 18.24,25.13 C 19.48,25.13 20.48,26.19 20.48,27.5 Z" fill="rgb(29, 43, 81)" fill-rule="evenodd"/>
<rect x="50.54" y="24" width="1.46" height="7" rx=".5" fill="rgb(29, 43, 81)"/>
<rect x="31" y="24" width="1.46" height="7" rx=".5" fill="rgb(29, 43, 81)"/>
<path d="M 35.730000000000004,24.485 C 35.74,24.22 35.96,24 36.24,24 H 36.7 C 36.97,24 37.2,24.22 37.2,24.5 V 30.45 L 35.74,29.45 V 24.5 Z" fill="rgb(29, 43, 81)"/>
<path d="M 24.49,20.735 L 23,20 V 30.5 C 23,30.78 23.22,31 23.5,31 H 24 A 0.5,0.5 0 0,0 24.5,30.5 V 29.96 C 25.1,30.6 25.93,31 26.85,31 A 3.4,3.4 0 0,0 30.16,27.5 A 3.4,3.4 0 0,0 26.86,24 C 25.93,24 25.1,24.4 24.5,25.04 V 20.75 Z M 24.51,27.5 C 24.51,28.81 25.47,29.87 26.66,29.87 C 27.84,29.87 28.8,28.81 28.8,27.5 S 27.84,25.13 26.66,25.13 C 25.47,25.13 24.51,26.19 24.51,27.5 Z" fill="rgb(29, 43, 81)" fill-rule="evenodd"/>
<path d="M 34.21,25.325 C 33.06,25.54 32.42,26.82 32.25,27.44 L 32.31,25.74 C 33.03,24.26 33.88,24 34.41,24 C 34.85,24 34.98,24.23 35,24.34 V 25.03 C 34.99,25.31 34.7,25.36 34.55,25.34 H 34.22 Z M 43.17,24.36 L 41.25,29.54 V 32.24 H 41.68 L 44.49,24.67 C 44.69,24.15 44.45,24.03 44.27,24 H 43.71 C 43.41,23.99 43.26,24.16 43.17,24.36 Z M 39.32,24.36 L 41.25,29.54 V 32.24 H 40.81 L 38.01,24.67 C 37.81,24.15 38.05,24.03 38.23,24 H 38.79 C 39.09,23.99 39.24,24.16 39.32,24.36 Z M 47.51,31 A 3.47,3.47 0 0,1 44.75,27.52 C 44.75,25.58 46.24,24 48.07,24 C 49.91,24 51.4,25.58 51.4,27.52 C 51.4,28.37 51.12,29.14 50.65,29.75 C 50.7,29.39 50.69,29.01 50.67,28.67 C 50.67,28.38 50.65,28.12 50.68,27.92 L 50.58,28.05 C 50.61,27.88 50.63,27.7 50.63,27.53 C 50.63,26.21 49.62,25.13 48.37,25.13 C 47.12,25.13 46.12,26.21 46.12,27.53 C 46.12,28.84 47.12,29.91 48.37,29.91 C 48.68,29.91 48.97,29.85 49.25,29.73 A 4.1,4.1 0 0,1 47.5,31 Z" fill="rgb(29, 43, 81)"/>
<path d="M 13.99,17.985 C 9.08,17.96 5.3,20.21 4.04,21.35 V 22.3 C 7.42,19.22 12.1,18.51 14.01,18.54 C 22.21,18.69 26.96,22.63 28.04,23.4 C 30.38,25.06 36.88,32.72 44.69,33 C 48.26,33.12 50.13,31.13 50.61,30.36 V 28.01 C 50.01,31.81 46.62,32.44 44.69,32.44 C 37.08,32.51 30.82,25.09 28.04,22.99 C 24.51,20.32 20.17,18.06 14.01,18 Z" fill="url(#a)"/>
<circle cx="36.47" cy="22.43" r=".76" fill="rgb(29, 43, 81)"/>
<path d="M 14.53,32.985 L 15.84,36 H 15.54 L 15.17,35.15 H 13.9 L 13.54,36 H 13.24 L 14.54,33 Z M 14.03,34.85 H 15.05 L 14.54,33.65 L 14.03,34.85 Z M 16.36,33.33 V 34.55 C 16.6,34.58 16.9,34.57 17.15,34.49 A 0.75,0.75 0 0,0 17.49,34.29 A 0.5,0.5 0 0,0 17.61,33.93 A 0.53,0.53 0 0,0 17.48,33.56 A 0.76,0.76 0 0,0 17.13,33.36 A 2.04,2.04 0 0,0 16.36,33.33 Z M 16.36,34.86 C 16.62,34.88 16.95,34.86 17.23,34.78 A 0.92,0.92 0 0,0 17.71,34.49 A 0.8,0.8 0 0,0 17.91,33.92 A 0.82,0.82 0 0,0 17.69,33.36 C 17.56,33.22 17.39,33.13 17.21,33.08 C 16.86,32.98 16.45,33 16.18,33.05 L 16.06,33.07 V 36 H 16.36 V 34.86 Z M 11.38,33.32 V 34.39 C 11.53,34.39 11.71,34.39 11.88,34.37 C 12.1,34.34 12.3,34.27 12.43,34.18 C 12.56,34.09 12.63,33.98 12.63,33.81 A 0.4,0.4 0 0,0 12.5,33.51 A 0.78,0.78 0 0,0 12.15,33.35 A 2.34,2.34 0 0,0 11.38,33.32 Z M 11.38,34.69 V 36 H 11.08 V 33.06 L 11.2,33.04 C 11.47,33 11.87,32.98 12.22,33.06 C 12.4,33.1 12.57,33.18 12.7,33.3 C 12.84,33.42 12.92,33.59 12.93,33.8 C 12.93,34.09 12.8,34.3 12.6,34.43 C 12.48,34.52 12.33,34.57 12.18,34.62 L 13.12,36 H 12.76 L 11.84,34.68 C 11.68,34.69 11.52,34.7 11.38,34.69 Z M 4.87,33.29 H 4 V 33 H 6 V 33.3 H 5.17 V 36 H 4.87 V 33.3 Z M 9,33 H 10.78 V 33.3 H 9.3 V 34.37 H 10.48 V 34.67 H 9.3 V 35.7 H 10.78 V 36 H 9 V 33 Z M 18.15,33 H 19.83 V 33.3 H 18.45 V 34.37 H 19.55 V 34.67 H 18.45 V 35.7 H 19.83 V 36 H 18.15 V 33 Z M 23.61,33.3 H 22.79 V 33 H 24.74 V 33.3 H 23.91 V 36 H 23.61 V 33.3 Z M 26.22,33.32 C 26.52,33.08 26.88,33 27.16,33 C 27.62,33 27.96,33.23 28.08,33.35 L 27.88,33.56 A 1.08,1.08 0 0,0 27.16,33.3 C 26.93,33.3 26.64,33.37 26.41,33.55 C 26.18,33.73 26.01,34.02 26.01,34.49 S 26.19,35.29 26.41,35.46 C 26.65,35.64 26.94,35.71 27.16,35.71 C 27.31,35.71 27.48,35.65 27.62,35.57 C 27.77,35.49 27.89,35.39 27.95,35.32 L 28.16,35.52 C 28.08,35.62 27.95,35.73 27.77,35.82 C 27.6,35.92 27.39,36 27.16,36 C 26.89,36 26.53,35.93 26.24,35.7 C 25.94,35.46 25.71,35.05 25.71,34.5 C 25.71,33.93 25.92,33.55 26.22,33.32 Z M 28.58,33.22 C 28.75,33.07 28.98,33 29.25,33 C 29.7,33 29.95,33.24 30.02,33.4 L 29.75,33.53 C 29.73,33.47 29.58,33.3 29.25,33.3 A 0.72,0.72 0 0,0 28.78,33.45 A 0.47,0.47 0 0,0 28.62,33.82 C 28.62,33.95 28.69,34.07 28.82,34.15 C 28.96,34.25 29.12,34.29 29.25,34.29 H 29.27 C 29.72,34.35 30.07,34.79 30.07,35.19 A 0.8,0.8 0 0,1 29.82,35.79 A 0.93,0.93 0 0,1 29.18,36 C 28.98,36 28.78,35.95 28.64,35.87 A 1.31,1.31 0 0,1 28.32,35.63 L 28.54,35.43 A 1.01,1.01 0 0,0 29.18,35.71 C 29.37,35.71 29.52,35.66 29.62,35.57 A 0.5,0.5 0 0,0 29.77,35.19 C 29.77,34.93 29.53,34.64 29.24,34.59 C 29.06,34.59 28.84,34.52 28.66,34.4 A 0.7,0.7 0 0,1 28.32,33.82 C 28.32,33.58 28.41,33.37 28.58,33.22 Z M 6.36,33 H 6.66 V 34.37 H 8.35 V 33 H 8.65 V 36 H 8.35 V 34.67 H 6.65 V 36 H 6.35 V 33 Z M 20.28,34.98 V 33 H 20.58 V 34.98 C 20.58,35.1 20.61,35.28 20.73,35.44 C 20.85,35.58 21.06,35.71 21.44,35.71 C 21.77,35.71 21.94,35.6 22.05,35.46 A 0.8,0.8 0 0,0 22.2,34.98 V 33 H 22.5 V 34.98 C 22.5,35.18 22.45,35.43 22.3,35.64 C 22.12,35.86 21.85,36 21.44,36 C 20.98,36 20.68,35.85 20.5,35.63 A 1.03,1.03 0 0,1 20.28,34.98 Z M 25.43,36 H 25.13 V 33 H 25.43 V 36 Z" fill="rgb(122, 154, 66)" fill-rule="evenodd"/>
<defs>
<linearGradient id="a" x1="4.04" x2="51.59" y1="21.88" y2="29.37" gradientUnits="userSpaceOnUse">
<stop stop-color="rgb(29, 43, 81)" offset="0"/>
<stop stop-color="rgb(144, 173, 92)" offset=".33"/>
<stop stop-color="rgb(144, 173, 92)" offset=".66"/>
<stop stop-color="rgb(29, 43, 81)" offset="1"/>
</linearGradient>
</defs>
</svg>
