<?xml version="1.0" encoding="UTF-8"?>
<!-- generated by Finnhub -->
<svg viewBox="0 0 55.5 55.5" xmlns="http://www.w3.org/2000/svg">
<path d="M 0,0 H 55.5 V 55.5 H 0 Z" fill="url(#a)"/>
<path d="M 22.689999999999998,46.835 C 22.74,46.46 22.97,46.15 23.13,45.82 A 95.02,95.02 0 0,0 26.39,38.54 C 26.48,38.34 26.61,38.14 26.57,37.84 C 25.97,37.26 25.3,36.67 24.69,36.02 A 16.75,16.75 0 0,1 22.07,32.39 C 20.45,29.35 20.76,26.39 22.4,23.5 C 23.87,20.93 26.05,19.08 28.5,17.53 C 29.13,17.13 29.74,16.71 30.5,16.41 C 31.4,17.43 31.9,18.67 32.37,19.92 C 33.92,24.1 33.77,28.29 32.47,32.49 A 28.82,28.82 0 0,1 30.15,37.89 C 30.6,38.66 31.34,39.19 31.99,39.93 C 30.99,39.95 30.23,39.48 29.37,39.25 A 33.6,33.6 0 0,1 26.55,43.13 C 25.37,44.48 24.3,45.94 22.83,47 L 22.71,46.85 Z M 27.63,34.7 C 27.75,34.4 27.85,34.2 27.92,34 C 28.65,31.48 29.29,28.96 29.54,26.34 C 29.68,24.77 29.72,23.2 29.68,21.63 A 3.57,3.57 0 0,0 29.38,20.04 C 25.58,22.02 23.6,29.48 27.63,34.7 Z" fill="rgb(250, 206, 2)"/>
<path d="M 31.59,8.985 C 33.3,9 34.79,10.5 34.8,12.24 C 34.8,13.92 33.22,15.51 31.57,15.48 A 3.23,3.23 0 0,1 29.34,14.5 C 28.74,13.9 28.41,13.07 28.4,12.22 C 28.4,11.36 28.74,10.54 29.34,9.94 C 29.94,9.34 30.75,9 31.59,9 Z M 24.68,12.13 A 2.73,2.73 0 0,1 27.48,14.85 C 27.5,16.38 26.22,17.73 24.78,17.73 C 23.3,17.73 21.91,16.4 21.95,14.96 C 22.02,13.13 23.36,12.1 24.68,12.13 Z M 36.27,20.99 A 2.7,2.7 0 0,1 33.48,18.25 A 2.88,2.88 0 0,1 35.21,15.6 C 35.55,15.45 35.91,15.38 36.29,15.38 C 37.64,15.38 38.99,16.74 39,18.17 C 39.01,19.68 37.77,21.05 36.27,20.99 Z" fill="rgb(250, 131, 3)"/>
<defs>
<linearGradient id="a" x1="10.42" x2="68.15" y1="9.71" y2="76.02" gradientUnits="userSpaceOnUse">
<stop stop-color="rgb(25, 29, 31)" offset="0"/>
<stop stop-color="rgb(5, 5, 8)" offset="1"/>
</linearGradient>
</defs>
</svg>
