<?xml version="1.0" encoding="UTF-8"?>
<!-- generated by Finnhub -->
<svg viewBox="0 0 55.5 55.5" xmlns="http://www.w3.org/2000/svg">
<path d="M 0,0 H 55.5 V 55.5 H 0 Z" fill="rgb(239, 242, 248)"/>
<path d="M 19.099999999999998,39.065 C 17.72,37.68 16.65,36.08 15.9,34.38 A 13.87,13.87 0 0,1 16.14,21.09 A 15.53,15.53 0 0,1 38.5,14.75 A 16.83,16.83 0 0,0 15.96,15.97 A 17.07,17.07 0 0,0 15.94,40 A 16.83,16.83 0 0,0 38.48,41.25 A 15.53,15.53 0 0,1 19.11,39.07 Z" fill="url(#b)"/>
<path d="M 37.85,18.185 A 13.86,13.86 0 0,1 37.84,37.73 A 13.67,13.67 0 0,1 20.8,39.6 A 14.82,14.82 0 0,0 40.64,38.54 A 15.02,15.02 0 0,0 40.66,17.37 A 14.82,14.82 0 0,0 20.82,16.27 A 13.68,13.68 0 0,1 37.87,18.19 Z" fill="url(#a)"/>
<path d="M 14.99,27.985 A 13,13 0 1,1 41,28 A 13,13 0 0,1 15,28 Z M 19.28,19.28 A 12.3,12.3 0 0,0 19.28,36.72 A 12.29,12.29 0 0,0 28,40.33 A 12.29,12.29 0 0,0 40.33,28 A 12.3,12.3 0 0,0 28,15.67 A 12.3,12.3 0 0,0 19.28,19.28 Z" fill="rgb(30, 64, 122)"/>
<path d="M 37.260000000000005,26.985 C 38.11,26.44 38.94,25.56 38.94,24.42 C 38.94,23.64 38.5,22 35.82,22 H 33.12 L 33.17,21.6 C 33.17,21.5 33.12,21.44 33.05,21.44 C 32.98,21.44 32.92,21.52 32.8,21.63 C 32.66,21.78 32.56,22 32,22 H 29.2 C 29.11,22 29,21.82 29,21.73 V 18.1 C 29,18.02 29.03,17.97 29.1,17.97 C 29.42,17.97 31.54,18 31.8,18.04 C 32.56,18.1 32.68,18.31 32.8,18.57 C 32.89,18.74 32.9,19 32.9,19.11 C 32.9,19.23 32.92,19.3 33.03,19.3 C 33.15,19.3 33.18,19.12 33.2,19.05 C 33.24,18.88 33.27,18.25 33.29,18.09 C 33.32,17.41 33.41,17.24 33.41,17.14 C 33.41,17.07 33.39,17 33.31,17 H 25.98 C 25.75,17 25.72,17.16 25.72,17.26 S 25.82,17.41 25.98,17.41 C 26.2,17.41 26.46,17.43 26.58,17.47 C 27.07,17.6 26.97,17.73 27,18.23 C 27.02,18.65 27,19.29 27,21 H 25.02 C 24.8,21 24.62,20.99 24.62,21.11 C 24.62,21.21 24.69,21.25 24.87,21.25 C 25.08,21.25 25.44,21.25 25.67,21.35 C 26.03,21.5 25.99,21.55 26,22.5 V 29.43 L 18.28,20.96 C 18.02,20.68 17.88,20.48 17.72,20.48 C 17.57,20.48 17.52,20.69 17.52,21 L 17.39,30.14 C 17.38,31.2 17.46,32.72 16.24,32.72 C 16.09,32.72 16,32.75 16,32.85 C 16,32.98 16.14,33 16.33,33 H 19.83 C 20.04,33 20.18,32.97 20.18,32.85 C 20.18,32.75 20.08,32.72 19.92,32.72 C 18.76,32.72 18.64,31.4 18.61,30.32 L 18.44,23.82 H 18.49 C 20.93,26.45 23.37,29.07 25.89,31.62 A 4.35,4.35 0 0,0 25,34.6 C 25,38.2 27.54,40 31,40 C 31.86,40 32.87,39.72 33.4,39.5 C 33.62,39.41 34.03,37.74 34.03,37.58 C 34.03,37.48 33.97,37.35 33.87,37.35 S 33.74,37.41 33.71,37.61 C 33.46,39 32.13,39 31,39 C 29.22,39 27,37.61 27,34.5 C 27,32.12 27.94,30.58 30.55,30.58 C 31.5,30.58 32.5,30.65 33,30.95 C 32.99,31.82 32.65,33.65 31.68,33.65 C 31.5,33.65 31.45,33.75 31.45,33.81 C 31.45,33.91 31.55,33.97 31.74,33.97 C 33.18,33.97 34.61,34 36.05,34 A 3.86,3.86 0 0,0 40,30.17 C 40,28.44 38.48,27.39 37.27,26.99 Z M 35,23.17 C 35,23.01 35.03,23.01 35.13,22.99 C 35.29,22.96 35.21,22.99 35.41,22.99 C 36.69,22.99 37.27,24.12 37.27,25.1 C 37.27,25.8 36.98,26.34 36.59,26.65 C 36.34,26.86 35.92,26.99 35.43,26.99 C 35.26,26.99 35,27 35,26.71 V 23.17 Z M 29,24 V 22.82 C 29,22.74 29.02,22.67 29.09,22.67 C 29.47,22.67 31.5,22.7 31.79,22.74 C 32.84,22.84 32.94,23.17 33,23.92 V 27.24 C 32.6,27.38 31.74,27.4 31.36,27.4 C 29.81,27.4 29.03,27.18 29,26.17 C 28.98,25.74 29,24.5 29,24 Z M 30.5,29.49 C 29.1,29.49 27.83,30 27,30.47 L 27.04,27.99 H 33 V 29.99 C 32,29.49 31.3,29.49 30.5,29.49 Z M 36,33.49 C 35,33.49 35,31.93 35,31.02 V 28.1 C 35,28.02 35.03,28 35.08,28 H 35.36 A 2.58,2.58 0 0,1 38.04,30.58 C 38.04,32.21 36.79,33.5 36,33.5 Z" fill="rgb(30, 64, 122)"/>
<defs>
<linearGradient id="b" x1="18.96" x2="30.78" y1="8.63" y2="37.69" gradientUnits="userSpaceOnUse">
<stop stop-color="rgb(30, 64, 122)" offset=".28"/>
<stop stop-color="rgb(254, 254, 253)" offset=".48"/>
<stop stop-color="rgb(30, 64, 122)" offset=".66"/>
</linearGradient>
<linearGradient id="a" x1="37.25" x2="29.75" y1="41.11" y2="25.71" gradientUnits="userSpaceOnUse">
<stop stop-color="rgb(179, 150, 88)" offset=".28"/>
<stop stop-color="rgb(254, 254, 253)" offset=".48"/>
<stop stop-color="rgb(179, 150, 88)" offset=".66"/>
</linearGradient>
</defs>
</svg>
