<?xml version="1.0" encoding="UTF-8"?>
<!-- generated by Finnhub -->
<svg viewBox="0 0 55.5 55.5" xmlns="http://www.w3.org/2000/svg">
<path d="M 0,0 H 55.5 V 55.5 H 0 Z" fill="rgb(239, 242, 248)"/>
<path d="M 7.99,30.745 V 28.96 C 8,28.4 7.81,28.24 7.27,28.19 V 28 H 9.67 V 28.2 C 9.11,28.24 9,28.4 9,28.97 V 33.06 C 9,33.62 9.13,33.79 9.68,33.84 V 34 H 7.28 V 33.84 C 7.93,33.8 8,33.51 8,32.95 V 31.15 H 5.74 V 33.06 C 5.74,33.21 5.74,33.34 5.76,33.43 C 5.78,33.53 5.82,33.6 5.87,33.65 C 5.93,33.71 6.01,33.75 6.11,33.78 L 6.51,33.84 V 34 H 4 V 33.84 C 4.17,33.83 4.3,33.81 4.41,33.79 C 4.51,33.77 4.59,33.72 4.64,33.66 C 4.69,33.6 4.73,33.51 4.74,33.4 C 4.76,33.28 4.77,33.14 4.77,32.95 V 28.97 C 4.77,28.81 4.76,28.69 4.74,28.59 A 0.4,0.4 0 0,0 4.63,28.37 A 0.4,0.4 0 0,0 4.4,28.25 L 4,28.2 V 28 H 6.5 V 28.2 C 6.33,28.2 6.2,28.23 6.1,28.25 A 0.45,0.45 0 0,0 5.86,28.37 A 0.48,0.48 0 0,0 5.76,28.59 C 5.74,28.69 5.74,28.81 5.74,28.97 V 30.76 H 8 Z M 16.53,34 H 14.16 V 33.84 H 14.36 A 2.05,2.05 0 0,0 14.56,33.8 A 0.54,0.54 0 0,0 14.64,33.76 A 0.26,0.26 0 0,0 14.74,33.67 A 0.23,0.23 0 0,0 14.77,33.55 C 14.77,33.41 14.72,33.21 14.6,32.95 L 14.24,32.12 H 12.24 L 11.84,33.14 L 11.79,33.31 A 0.93,0.93 0 0,0 11.77,33.48 C 11.77,33.6 11.82,33.68 11.91,33.75 C 12,33.81 12.15,33.84 12.36,33.84 V 34 H 10.54 V 33.84 C 10.64,33.84 10.74,33.81 10.81,33.78 C 10.89,33.75 10.96,33.69 11.04,33.59 C 11.12,33.49 11.2,33.35 11.28,33.17 C 11.38,32.97 11.48,32.72 11.62,32.4 L 13.42,28 H 13.59 L 15.75,33.07 L 15.93,33.47 L 16.1,33.69 C 16.16,33.74 16.22,33.78 16.28,33.79 C 16.35,33.82 16.44,33.83 16.53,33.84 V 34 Z M 14.13,31.77 L 13.29,29.57 L 12.39,31.77 H 14.13 Z M 20.67,34 H 20.54 L 18.22,29.16 V 32.72 C 18.22,32.94 18.23,33.12 18.26,33.27 C 18.28,33.4 18.32,33.51 18.38,33.59 A 0.5,0.5 0 0,0 18.63,33.77 C 18.74,33.8 18.88,33.83 19.04,33.84 V 34 H 17.01 V 33.84 C 17.19,33.82 17.33,33.8 17.44,33.77 C 17.54,33.73 17.64,33.67 17.69,33.59 C 17.75,33.51 17.79,33.4 17.81,33.27 C 17.83,33.12 17.84,32.94 17.84,32.72 V 28.95 C 17.84,28.8 17.83,28.67 17.81,28.57 A 0.38,0.38 0 0,0 17.69,28.34 A 0.45,0.45 0 0,0 17.45,28.23 C 17.35,28.2 17.2,28.19 17.03,28.18 V 28 H 18.74 L 20.88,32.51 L 22.92,28 H 24.75 V 28.18 C 24.59,28.18 24.46,28.2 24.37,28.23 A 0.49,0.49 0 0,0 24.14,28.35 A 0.44,0.44 0 0,0 24.03,28.58 C 24.01,28.68 24,28.8 24,28.95 V 33.06 C 24,33.21 24.01,33.34 24.03,33.43 C 24.05,33.53 24.09,33.61 24.14,33.66 C 24.2,33.72 24.27,33.76 24.37,33.78 C 24.47,33.81 24.6,33.83 24.75,33.84 V 34 H 22.21 V 33.84 C 22.38,33.83 22.51,33.81 22.62,33.78 C 22.72,33.76 22.81,33.72 22.86,33.65 A 0.5,0.5 0 0,0 22.96,33.4 C 22.99,33.28 23,33.14 23,32.95 V 28.78 L 20.67,34 Z M 26,28.95 C 26,28.37 25.79,28.21 25.2,28.18 V 28 H 27.78 V 28.18 C 27.06,28.2 27,28.3 27,28.95 V 33.06 C 27,33.67 27.06,33.82 27.78,33.84 V 34 H 25.2 V 33.84 C 25.8,33.82 25.99,33.64 25.99,33.06 V 28.96 Z M 33.3,32.49 L 32.88,33.99 H 28.23 V 33.84 C 28.9,33.79 29,33.64 29,33.06 V 28.96 C 29,28.42 28.8,28.21 28.23,28.18 V 28 H 30.79 V 28.18 C 30.25,28.21 30,28.35 30,28.95 V 33.3 C 30,33.71 30.45,33.66 30.73,33.66 H 31.19 C 31.56,33.66 31.87,33.62 32.11,33.53 C 32.36,33.45 32.56,33.31 32.71,33.13 A 6.31,6.31 0 0,0 33.08,32.48 H 33.31 Z M 35.62,28.37 C 35.37,28.37 35.17,28.37 35.02,28.4 A 0.8,0.8 0 0,0 34.64,28.56 C 34.54,28.65 34.46,28.76 34.4,28.91 C 34.35,29.05 34.3,29.24 34.24,29.48 H 34.04 L 34.08,28 H 38.97 L 39.02,29.48 H 38.82 C 38.76,29.24 38.7,29.05 38.64,28.91 A 0.81,0.81 0 0,0 38.42,28.56 A 0.76,0.76 0 0,0 38.04,28.4 A 3.93,3.93 0 0,0 37.43,28.37 H 37 V 33.06 C 37,33.66 37.24,33.81 37.8,33.84 V 34 H 35.28 V 33.84 C 35.92,33.8 36,33.59 36,32.95 V 28.37 H 35.62 Z M 42.5,28 C 42.9,28 43.3,28.09 43.66,28.26 C 44.04,28.43 44.36,28.67 44.61,28.98 C 44.82,29.24 44.99,29.54 45.11,29.88 C 45.22,30.23 45.28,30.6 45.28,31 C 45.28,31.44 45.21,31.84 45.07,32.22 A 2.73,2.73 0 0,1 43.59,33.78 C 43.24,33.93 42.86,34 42.45,34 C 42.03,34 41.65,33.93 41.3,33.78 A 2.6,2.6 0 0,1 39.82,32.2 A 3.53,3.53 0 0,1 39.83,29.77 A 2.74,2.74 0 0,1 41.33,28.22 C 41.68,28.07 42.07,28 42.49,28 Z M 42.42,28.3 A 1.73,1.73 0 0,0 40.93,29.3 A 3.87,3.87 0 0,0 40.64,30.38 A 4.93,4.93 0 0,0 40.81,32.38 C 40.95,32.79 41.14,33.1 41.38,33.3 C 41.68,33.56 42.04,33.69 42.46,33.69 A 1.56,1.56 0 0,0 43.59,33.22 C 44.06,32.76 44.29,32 44.29,30.95 C 44.29,30.45 44.22,30 44.08,29.61 C 43.94,29.21 43.75,28.91 43.5,28.71 C 43.18,28.44 42.82,28.31 42.42,28.31 Z M 51.04,34 L 47.21,29.37 V 32.7 C 47.21,32.92 47.21,33.1 47.24,33.25 C 47.26,33.38 47.3,33.49 47.36,33.57 A 0.5,0.5 0 0,0 47.61,33.75 C 47.72,33.78 47.86,33.81 48.02,33.82 V 33.98 H 46 V 33.82 C 46.18,33.8 46.32,33.78 46.43,33.75 C 46.53,33.71 46.63,33.65 46.68,33.57 C 46.74,33.49 46.78,33.38 46.8,33.25 C 46.82,33.1 46.83,32.92 46.83,32.7 V 28.66 A 4.2,4.2 0 0,0 46.61,28.41 A 0.65,0.65 0 0,0 46.24,28.2 A 1.06,1.06 0 0,0 46,28.18 V 28 H 47.48 L 50.81,32.09 V 29.29 C 50.81,28.75 50.73,28.43 50.56,28.31 A 0.64,0.64 0 0,0 50.34,28.22 A 2,2 0 0,0 49.98,28.18 V 28 H 52 V 28.18 C 51.84,28.18 51.72,28.2 51.64,28.23 A 0.72,0.72 0 0,0 51.44,28.33 C 51.27,28.44 51.18,28.76 51.18,29.28 V 34 H 51.04 Z M 22.04,17.25 A 0.9,0.9 0 0,0 21.8,17.28 A 0.28,0.28 0 0,0 21.65,17.39 A 0.72,0.72 0 0,0 21.55,17.63 L 21.49,18.03 H 21.41 L 21.43,17 H 23.38 L 23.4,18.03 H 23.32 L 23.25,17.63 A 0.69,0.69 0 0,0 23.15,17.39 A 0.27,0.27 0 0,0 23.01,17.28 A 0.92,0.92 0 0,0 22.77,17.25 H 22.58 V 20.35 L 22.59,20.61 C 22.6,20.68 22.62,20.73 22.64,20.77 C 22.66,20.81 22.7,20.84 22.74,20.86 L 22.91,20.89 V 21 H 21.91 V 20.89 A 0.8,0.8 0 0,0 22.08,20.86 A 0.19,0.19 0 0,0 22.18,20.76 C 22.2,20.72 22.21,20.66 22.22,20.58 L 22.23,20.28 V 17.25 H 22.04 Z M 34.05,21 H 32.45 V 20.89 C 32.5,20.89 32.55,20.87 32.58,20.85 A 0.17,0.17 0 0,0 32.65,20.77 C 32.67,20.73 32.69,20.67 32.69,20.61 L 32.7,20.35 V 17.4 A 0.44,0.44 0 0,0 32.66,17.24 A 0.18,0.18 0 0,0 32.58,17.16 A 0.39,0.39 0 0,0 32.44,17.12 V 17 H 34.03 V 17.87 H 33.96 A 3.14,3.14 0 0,0 33.92,17.54 A 0.51,0.51 0 0,0 33.84,17.34 A 0.22,0.22 0 0,0 33.71,17.25 A 0.8,0.8 0 0,0 33.51,17.23 H 33.11 C 33.07,17.23 33.04,17.25 33.02,17.27 A 0.43,0.43 0 0,0 33,17.44 V 18.78 H 33.46 C 33.52,18.78 33.57,18.78 33.61,18.76 A 0.17,0.17 0 0,0 33.71,18.68 C 33.73,18.63 33.75,18.58 33.76,18.5 L 33.79,18.2 H 33.86 V 19.6 H 33.79 A 3.92,3.92 0 0,0 33.76,19.3 A 0.52,0.52 0 0,0 33.71,19.13 A 0.17,0.17 0 0,0 33.61,19.05 A 0.45,0.45 0 0,0 33.46,19.03 H 33 V 20.52 L 33.01,20.65 L 33.03,20.71 C 33.04,20.73 33.08,20.75 33.13,20.76 A 1,1 0 0,0 33.32,20.78 H 33.4 C 33.51,20.78 33.6,20.77 33.67,20.75 A 0.37,0.37 0 0,0 33.86,20.62 A 0.8,0.8 0 0,0 33.99,20.38 C 34.03,20.28 34.07,20.14 34.1,19.98 H 34.19 L 34.05,21 Z M 28.28,18.84 V 17.66 L 28.27,17.4 A 0.41,0.41 0 0,0 28.23,17.24 A 0.15,0.15 0 0,0 28.13,17.16 A 0.61,0.61 0 0,0 27.99,17.12 V 17 H 28.89 V 17.12 A 0.62,0.62 0 0,0 28.74,17.16 A 0.16,0.16 0 0,0 28.66,17.24 A 0.45,0.45 0 0,0 28.62,17.4 L 28.61,17.66 V 20.61 L 28.66,20.76 A 0.2,0.2 0 0,0 28.75,20.85 L 28.9,20.89 V 21 H 27.99 V 20.89 C 28.05,20.89 28.1,20.87 28.14,20.86 A 0.17,0.17 0 0,0 28.23,20.76 C 28.25,20.72 28.26,20.66 28.27,20.58 V 19.1 H 27.28 V 20.35 L 27.29,20.61 C 27.29,20.67 27.31,20.72 27.33,20.76 C 27.35,20.8 27.38,20.83 27.43,20.85 L 27.57,20.89 V 21 H 26.66 V 20.89 C 26.72,20.89 26.78,20.87 26.81,20.86 A 0.17,0.17 0 0,0 26.9,20.76 C 26.92,20.72 26.93,20.66 26.94,20.58 V 17.4 A 0.41,0.41 0 0,0 26.9,17.24 A 0.15,0.15 0 0,0 26.81,17.16 A 0.62,0.62 0 0,0 26.66,17.12 V 17 H 27.57 V 17.12 A 0.62,0.62 0 0,0 27.42,17.16 A 0.16,0.16 0 0,0 27.33,17.24 A 0.5,0.5 0 0,0 27.29,17.4 V 18.84 H 28.28 Z M 13.32,36.3 A 4.35,4.35 0 0,0 13.18,35.72 A 1.5,1.5 0 0,0 13.11,35.58 A 0.73,0.73 0 0,0 12.91,35.32 A 0.39,0.39 0 0,0 12.66,35.22 A 0.44,0.44 0 0,0 12.36,35.35 A 0.98,0.98 0 0,0 12.13,35.7 A 2.4,2.4 0 0,0 11.98,36.25 A 4.56,4.56 0 0,0 12.21,38.45 C 12.34,38.65 12.51,38.75 12.69,38.75 C 12.81,38.75 12.93,38.7 13.04,38.61 C 13.14,38.51 13.26,38.37 13.37,38.16 L 13.42,38.26 C 13.33,38.5 13.22,38.68 13.07,38.81 A 0.7,0.7 0 0,1 12.59,39 A 0.67,0.67 0 0,1 12.18,38.86 C 12.05,38.76 11.95,38.63 11.86,38.46 A 2.43,2.43 0 0,1 11.65,37.84 A 4.1,4.1 0 0,1 11.67,36.14 C 11.73,35.86 11.82,35.64 11.93,35.45 C 12.03,35.31 12.13,35.2 12.25,35.12 A 0.6,0.6 0 0,1 12.6,35 C 12.75,35 12.9,35.05 13.05,35.14 C 13.1,35.18 13.14,35.19 13.17,35.19 S 13.22,35.18 13.24,35.14 A 0.34,0.34 0 0,0 13.29,35 H 13.36 L 13.39,36.3 H 13.32 Z M 17.7,35 A 0.8,0.8 0 0,1 18.2,35.17 C 18.35,35.29 18.48,35.45 18.59,35.65 C 18.68,35.82 18.74,36.03 18.79,36.25 A 3.61,3.61 0 0,1 18.78,37.81 A 2.2,2.2 0 0,1 18.53,38.44 C 18.43,38.62 18.31,38.75 18.16,38.85 A 0.83,0.83 0 0,1 17.21,38.85 C 17.07,38.75 16.94,38.62 16.84,38.45 C 16.74,38.26 16.66,38.05 16.6,37.8 A 3.67,3.67 0 0,1 16.6,36.18 C 16.66,35.94 16.74,35.73 16.85,35.55 C 16.95,35.38 17.08,35.25 17.22,35.15 C 17.37,35.05 17.53,35 17.71,35 Z M 17.68,35.2 C 17.58,35.2 17.48,35.24 17.39,35.32 A 0.91,0.91 0 0,0 17.16,35.62 C 17.12,35.68 17.09,35.77 17.06,35.87 A 3.76,3.76 0 0,0 16.93,36.99 C 16.93,37.34 16.95,37.65 17.01,37.92 S 17.15,38.4 17.25,38.53 C 17.37,38.71 17.52,38.79 17.69,38.79 C 17.79,38.79 17.87,38.76 17.95,38.71 A 0.73,0.73 0 0,0 18.16,38.48 C 18.36,38.18 18.46,37.67 18.46,36.97 C 18.46,36.63 18.43,36.33 18.36,36.07 A 1.63,1.63 0 0,0 18.13,35.47 C 18,35.29 17.85,35.2 17.68,35.2 Z M 23.18,39 H 23.12 L 22.15,35.68 V 38.11 L 22.16,38.49 C 22.17,38.59 22.19,38.66 22.22,38.72 S 22.28,38.82 22.33,38.84 C 22.38,38.87 22.44,38.88 22.51,38.89 V 39 H 21.61 V 38.89 A 0.7,0.7 0 0,0 21.8,38.84 A 0.24,0.24 0 0,0 21.9,38.72 A 0.68,0.68 0 0,0 21.96,38.49 L 21.98,38.11 V 35.66 C 21.98,35.56 21.98,35.46 21.96,35.4 A 0.33,0.33 0 0,0 21.91,35.24 A 0.19,0.19 0 0,0 21.81,35.16 A 0.75,0.75 0 0,0 21.61,35.12 V 35 H 22.38 L 23.27,38.05 L 24.13,35 H 24.9 V 35.12 A 0.63,0.63 0 0,0 24.72,35.16 A 0.22,0.22 0 0,0 24.62,35.24 A 0.4,0.4 0 0,0 24.57,35.4 V 38.61 C 24.58,38.68 24.6,38.73 24.62,38.77 C 24.65,38.81 24.68,38.83 24.72,38.85 L 24.9,38.89 V 39 H 23.8 V 38.89 A 0.7,0.7 0 0,0 23.99,38.85 A 0.2,0.2 0 0,0 24.09,38.76 C 24.12,38.72 24.13,38.66 24.14,38.58 L 24.16,38.28 V 35.54 L 23.16,39 Z M 28.44,38.35 L 28.45,38.62 C 28.46,38.69 28.48,38.74 28.51,38.78 C 28.54,38.82 28.58,38.84 28.63,38.86 A 0.9,0.9 0 0,0 28.83,38.89 V 39 H 27.68 V 38.89 A 0.78,0.78 0 0,0 27.86,38.85 A 0.2,0.2 0 0,0 27.96,38.75 C 27.99,38.71 28,38.65 28.01,38.58 V 35.4 A 0.34,0.34 0 0,0 27.96,35.25 A 0.2,0.2 0 0,0 27.86,35.16 A 0.84,0.84 0 0,0 27.68,35.12 V 35 H 28.76 C 28.96,35 29.14,35.04 29.3,35.13 C 29.47,35.21 29.6,35.33 29.68,35.46 C 29.78,35.64 29.83,35.86 29.83,36.1 C 29.83,36.3 29.8,36.48 29.73,36.66 A 0.99,0.99 0 0,1 29.43,37.06 A 0.84,0.84 0 0,1 29.13,37.21 C 29.02,37.24 28.88,37.26 28.72,37.26 H 28.58 L 28.44,37.25 V 38.35 Z M 28.44,37 A 3.81,3.81 0 0,0 28.67,37.02 C 29.15,37.02 29.38,36.72 29.38,36.13 C 29.38,35.82 29.32,35.59 29.18,35.44 C 29.06,35.3 28.85,35.23 28.58,35.23 C 28.52,35.23 28.48,35.24 28.47,35.27 C 28.45,35.29 28.44,35.35 28.44,35.43 V 37 Z M 34.9,39 H 33.92 V 38.9 H 34 L 34.06,38.88 L 34.1,38.86 L 34.13,38.84 A 0.22,0.22 0 0,0 34.19,38.69 C 34.19,38.59 34.16,38.46 34.11,38.29 L 33.95,37.72 H 32.95 L 32.76,38.42 A 1.75,1.75 0 0,0 32.73,38.65 C 32.73,38.73 32.75,38.79 32.79,38.83 C 32.83,38.87 32.9,38.89 32.99,38.89 V 39 H 32.23 V 38.9 C 32.27,38.89 32.32,38.88 32.35,38.85 A 0.32,0.32 0 0,0 32.45,38.72 A 16.5,16.5 0 0,0 32.71,37.91 L 33.51,35 H 33.59 L 34.55,38.37 A 5.5,5.5 0 0,0 34.71,38.79 C 34.73,38.83 34.76,38.85 34.79,38.86 C 34.82,38.88 34.86,38.89 34.9,38.89 V 39 Z M 33.9,37.48 L 33.45,35.84 L 33.01,37.48 H 33.9 Z M 39.57,39 L 37.84,35.73 V 38.06 L 37.86,38.43 C 37.87,38.53 37.89,38.6 37.92,38.66 C 37.94,38.71 37.98,38.76 38.03,38.78 C 38.08,38.8 38.13,38.82 38.21,38.82 V 38.93 H 37.3 V 38.83 A 0.73,0.73 0 0,0 37.49,38.78 A 0.23,0.23 0 0,0 37.6,38.66 A 0.66,0.66 0 0,0 37.66,38.43 L 37.67,38.06 V 35.45 A 2.76,2.76 0 0,0 37.49,35.18 A 0.2,0.2 0 0,0 37.4,35.14 A 0.32,0.32 0 0,0 37.3,35.12 V 35 H 37.96 L 39.46,37.88 V 35.88 C 39.46,35.51 39.43,35.29 39.36,35.21 A 0.24,0.24 0 0,0 39.26,35.15 A 0.62,0.62 0 0,0 39.09,35.12 V 35 H 40.01 V 35.12 A 0.52,0.52 0 0,0 39.84,35.16 A 0.3,0.3 0 0,0 39.75,35.22 C 39.68,35.3 39.64,35.52 39.64,35.87 V 39 H 39.57 Z M 45.28,35.12 A 0.4,0.4 0 0,0 45.13,35.16 A 0.43,0.43 0 0,0 45,35.27 L 44.86,35.47 L 44.7,35.8 L 44.07,37.17 V 38.35 C 44.07,38.46 44.07,38.55 44.09,38.62 C 44.09,38.69 44.12,38.74 44.14,38.78 C 44.18,38.82 44.22,38.85 44.28,38.86 C 44.34,38.88 44.41,38.89 44.5,38.89 V 39 H 43.21 V 38.89 C 43.31,38.89 43.38,38.87 43.44,38.86 C 43.5,38.84 43.54,38.81 43.57,38.76 C 43.6,38.72 43.62,38.66 43.62,38.59 L 43.64,38.28 V 37.23 L 43.09,36.07 A 16.45,16.45 0 0,0 42.66,35.27 A 0.37,0.37 0 0,0 42.53,35.15 A 0.26,0.26 0 0,0 42.4,35.12 V 35 H 43.58 V 35.12 H 43.48 C 43.35,35.13 43.28,35.19 43.28,35.29 C 43.28,35.37 43.31,35.46 43.36,35.57 L 43.98,36.9 L 44.58,35.54 A 0.51,0.51 0 0,0 44.64,35.32 C 44.64,35.25 44.62,35.2 44.58,35.17 C 44.54,35.14 44.46,35.12 44.35,35.12 V 35 H 45.28 V 35.12 Z" fill="rgb(8, 122, 138)"/>
<path d="M 3.99,23.985 V 27 H 51 V 24 H 48.98 V 22 H 47.5 V 24 H 47 V 23 H 45 V 24.67 H 43.57 V 23 H 42.67 V 21.96 L 42,22.51 V 24.67 H 41.72 V 22 H 41 V 23.69 H 40.3 V 24.26 H 40 V 18 H 36.77 L 36,18.73 V 23 H 34.97 V 22 H 34.21 V 24 H 33.57 V 21.56 H 32.64 V 24 H 31.18 V 24.67 H 30.35 V 23.69 H 29.3 V 24.26 H 29.03 V 22 H 28.19 V 25 H 27.7 V 23.34 H 26.45 V 25 H 25.98 V 22.51 H 25.31 V 25 H 24.8 V 23 H 24.03 V 22.51 H 22.5 L 22.01,23.11 V 24 H 21.2 V 24.67 H 20.41 V 23.1 H 19.54 V 18.07 L 18.48,17 V 24.27 H 18 V 17 L 17,18.08 V 24.27 H 15.62 V 22.75 H 14 V 23.46 H 13 V 24.42 H 11.86 V 23.59 H 10.56 V 24.42 H 10 V 24 H 9 V 24.42 H 8.71 V 22 H 8.28 V 24.42 H 7.82 V 23 H 6.32 V 24 H 4 Z" fill="rgb(99, 103, 105)"/>
</svg>
