<?xml version="1.0" encoding="UTF-8"?>
<!-- generated by Finnhub -->
<svg viewBox="0 0 55.5 55.5" xmlns="http://www.w3.org/2000/svg">
<path d="M 0,0 H 55.5 V 55.5 H 0 Z" fill="rgb(1, 110, 79)"/>
<path d="M 22.067,11.665 C 20.127,10.444 21.187,8.686 22,8 H 25 L 22.568,9.826 L 30.111,13.687 L 33,12 L 32,11 H 34.453 C 35.491,12.05 34.802,13.03 34.369,13.456 L 32.219,14.806 L 34.369,16.313 C 35.505,17.517 34.842,18.668 34.369,19.093 L 27.029,23.185 L 31,25 H 27 L 24.88,24.15 L 22,26 V 24.15 L 23.096,23.185 C 22.676,23.16 21.766,22.715 21.474,21.139 C 21.182,19.564 22.082,18.552 22.568,18.243 L 27.638,14.807 C 26.597,14.279 24.028,12.915 22.077,11.679 Z M 39,44 H 17 V 40 L 24,32 V 29 H 22 V 26 H 26 V 33 L 19,40.49 V 41 H 37 V 40.49 L 30,33 V 26 H 34 V 29 H 32 V 32 L 39,40 V 44 Z" fill="rgb(254, 254, 253)"/>
<path d="M 32.99,17.641 L 29.78,16 C 28.002,16.998 24.262,19.157 23.517,19.805 C 22.773,20.453 22.992,20.874 23.195,21.003 C 23.35,21.133 23.818,21.475 24.448,21.813 C 25.078,22.151 25.712,21.954 25.951,21.813 L 33,17.656 Z" fill="rgb(1, 110, 79)"/>
</svg>
