<?xml version="1.0" encoding="UTF-8"?>
<!-- generated by Finnhub -->
<svg viewBox="0 0 55.5 55.5" xmlns="http://www.w3.org/2000/svg">
<path d="M 0,0 H 55.5 V 55.5 H 0 Z" fill="rgb(239, 242, 248)"/>
<path d="M 34.99,31.985 V 24.2 C 36.96,23.76 40,23.85 40,26.43 C 40,28.95 37.7,28.94 37.08,28.93 H 37.03 C 36.6,28.93 36.21,28.88 36,28.85 V 32 H 35 Z M 36,27.92 V 25 C 36.23,24.95 36.76,24.84 37.08,24.84 C 37.48,24.84 39,25 39,26.48 S 37.78,28.09 37.08,28.09 C 36.52,28.09 36.13,27.99 36,27.93 Z M 27,24 V 29.58 C 26.97,30.28 26.46,31.52 24.62,30.89 L 24.4,31.67 C 24.54,31.78 24.99,32 25.6,32 C 26.36,32 28,31.57 28,29.58 V 24 H 27 Z M 29.02,32 H 27.92 L 30.82,24 H 31.97 L 34.92,32 H 33.79 L 32.92,29.45 H 29.88 L 29.02,32 Z M 31.4,24.94 L 32.65,28.64 H 30.15 L 31.4,24.94 Z M 38.84,32 H 39.89 L 40.71,29.45 H 43.61 L 44.44,32 H 45.51 L 42.71,24 H 41.61 L 38.84,32 Z M 43.35,28.64 L 42.16,24.94 L 40.98,28.64 H 43.35 Z M 46,24 V 32 H 47 V 25.6 L 51.02,32 H 52 V 24 H 51 V 30.18 L 47.21,24 H 46 Z M 4,32 V 24 H 6.22 L 9,29.33 V 24 H 10.64 V 32 H 8.8 L 5.57,26.05 V 32 H 4 Z M 11.3,24 V 32 H 16.3 V 30.58 H 13 V 28.5 H 16 V 27 H 13 V 25.37 H 16.3 V 24 H 11.3 Z M 20.25,32 C 22.51,32 24,30.21 24,28 C 24,25.8 22.7,24 20.25,24 C 17.79,24 16.5,25.8 16.5,28 C 16.5,30.21 17.8,32 20.25,32 Z M 20.25,30.57 C 21.39,30.57 22.15,29.42 22.15,28 C 22.15,26.59 21.49,25.44 20.25,25.44 C 19.01,25.44 18.35,26.59 18.35,28 C 18.35,29.42 19.01,30.57 20.25,30.57 Z" fill="rgb(216, 1, 2)" fill-rule="evenodd"/>
</svg>
