<?xml version="1.0" encoding="UTF-8"?>
<!-- generated by Finnhub -->
<svg viewBox="0 0 55.5 55.5" xmlns="http://www.w3.org/2000/svg">
<path d="M 0,28 A 28,28 0 1,1 56,28 A 28,28 0 0,1 0,28 Z" fill="rgb(239, 242, 248)"/>
<path d="M 27.04,10.264999999999999 L 12,18.93 L 17.11,26.16 L 27.05,10.28 Z" fill="rgb(111, 189, 214)"/>
<path d="M 28.5,9.985 L 23.69,18 H 33.19 L 44,34.8 V 18.93 L 28.51,10 Z" fill="rgb(34, 100, 83)"/>
<path d="M 28.5,9.985 L 23.69,18 H 33.19 L 28.51,10 Z" fill="url(#b)"/>
<path d="M 28.939999999999998,45.705 L 44,37.07 L 38.89,29.84 L 28.95,45.72 Z" fill="rgb(112, 189, 214)"/>
<path d="M 27.479999999999997,45.985 L 32.49,38 H 23 L 12,21.2 V 37.07 L 27.49,46 Z" fill="rgb(34, 100, 83)"/>
<path d="M 27.479999999999997,45.985 L 32.49,38 H 23 L 27.49,46 Z" fill="url(#a)"/>
<defs>
<linearGradient id="b" x1="31.43" x2="25.3" y1="14.96" y2="14.96" gradientUnits="userSpaceOnUse">
<stop stop-color="rgb(2, 68, 48)" offset="0"/>
<stop stop-color="rgb(35, 101, 82)" offset="1"/>
</linearGradient>
<linearGradient id="a" x1="24.57" x2="30.7" y1="41.04" y2="41.04" gradientUnits="userSpaceOnUse">
<stop stop-color="rgb(2, 68, 48)" offset="0"/>
<stop stop-color="rgb(35, 101, 82)" offset="1"/>
</linearGradient>
</defs>
</svg>
