<?xml version="1.0" encoding="UTF-8"?>
<!-- generated by Finnhub -->
<svg viewBox="0 0 55.5 55.5" xmlns="http://www.w3.org/2000/svg">
<path d="M 0,0 H 55.5 V 55.5 H 0 Z" fill="rgb(1, 76, 132)"/>
<path d="M 6.26,21.985 L 4,33 H 6.27 L 7.67,26.14 L 10.33,33 H 12.52 L 14.79,22 H 12.52 L 11.12,28.85 L 8.4,22 H 6.27 Z M 20.95,30.75 C 19.83,32.73 17.45,33.56 15.62,32.6 C 13.8,31.63 13.22,29.24 14.35,27.25 C 15.47,25.27 17.85,24.44 19.68,25.4 C 21.19,26.2 21.84,27.99 21.38,29.7 H 16 C 16,30.22 16.26,31.26 17.37,31.3 C 17.89,31.31 18.47,31.08 18.87,30.3 H 21.17 C 21.11,30.45 21.04,30.6 20.95,30.75 Z M 16.25,28.28 C 16.32,27.75 16.75,26.69 17.95,26.68 C 19,26.68 19.26,27.74 19.17,28.28 H 16.25 Z M 37.85,32.6 C 39.67,33.56 42.06,32.73 43.18,30.75 C 43.26,30.6 43.34,30.45 43.4,30.29 H 41.1 C 40.7,31.09 40.11,31.31 39.6,31.29 C 38.5,31.26 38.22,30.22 38.23,29.71 H 43.61 C 44.07,27.99 43.42,26.21 41.91,25.41 C 40.08,24.44 37.69,25.27 36.57,27.25 C 35.45,29.24 36.02,31.63 37.85,32.6 Z M 40.18,26.69 C 38.98,26.69 38.55,27.75 38.48,28.28 H 41.39 C 41.49,27.74 41.22,26.68 40.19,26.68 Z M 22.38,33 L 21.32,25 H 23.41 L 23.91,29.72 L 26.13,25 H 28.15 L 28.4,29.72 L 30.56,25 H 33.34 L 33.55,24.02 L 36.21,22.5 L 35.72,25 H 36.92 L 36.54,27 H 35.33 L 34.5,30.47 C 34.35,31.1 34.87,31.21 35.15,31.18 H 35.85 L 35.43,32.86 C 35.1,32.96 34.35,33 34.02,33 C 32.12,32.98 31.99,31.43 32.16,30.66 L 33,27 H 32.03 L 29.02,33 H 26.92 L 26.55,28.46 L 24.42,33 H 22.37 Z M 45.43,22 L 43.13,33 H 45.43 L 45.92,30.67 L 47.1,29.54 L 48.16,33 H 50.49 L 48.85,28.01 L 52,25 H 48.99 L 46.57,27.36 L 47.69,22 H 45.43 Z" fill="rgb(254, 254, 253)" fill-rule="evenodd"/>
</svg>
