<?xml version="1.0" encoding="UTF-8"?>
<!-- generated by Finnhub -->
<svg viewBox="0 0 55.5 55.5" xmlns="http://www.w3.org/2000/svg">
<path d="M 0,0 H 55.5 V 55.5 H 0 Z" fill="rgb(239, 242, 248)"/>
<path d="M 23.09,18.585 C 23.98,12.94 26.84,11.18 28.16,11 C 28.78,12.02 28.73,15.94 28.62,17.78 C 26.22,17.57 23.94,18.24 23.1,18.6 Z M 39.81,29.96 C 44.22,33.62 44.25,36.86 43.73,38.08 C 42.53,38.09 39.19,36.04 37.67,35 A 12.5,12.5 0 0,0 39.81,29.96 Z M 21.73,38.6 C 16.39,40.66 13.43,39.06 12.62,38 C 13.18,36.96 16.62,35.05 18.26,34.22 A 12.73,12.73 0 0,0 21.73,38.6 Z" fill="rgb(251, 112, 51)"/>
<path d="M 28.15,10.985 C 28.68,11.08 29.98,11.41 31.1,12.1 C 31.7,15.26 32.37,23.06 30.22,29.04 C 32.42,31.24 38.19,36.1 43.75,38.03 A 9,9 0 0,1 41.47,39.97 C 38.34,38.9 31.07,35.57 27.07,30.77 C 24.19,31.52 17.26,34 12.66,38.03 C 12.54,37.76 12.27,36.83 12.1,35.3 C 14.07,33.41 19.89,29.17 27.36,27.28 C 28.1,24.84 29.31,17.09 28.16,11 Z M 33.16,13.13 C 33.73,13.47 34.97,14.27 35.48,14.73 C 35.85,17.49 36.16,24.8 34.38,30 H 32.21 C 33.85,26.95 34.15,16.73 33.17,13.13 Z M 37.03,42.59 C 37.69,42.39 39,41.7 39.58,41.39 C 35.96,40.45 27.69,35.34 25.87,32.4 L 24.79,34.3 C 28.41,38.42 34.46,41.54 37.03,42.59 Z M 12,32.91 C 12.01,32.25 12.07,30.77 12.21,30.1 C 14.39,28.38 20.09,24.66 25.47,23.54 L 26.58,25.41 C 23.12,25.55 14.6,30.23 12,32.91 Z M 39.54,18.97 C 39.24,18.46 38.05,17.05 37.43,16.62 C 38.11,19.75 37.43,27.86 36.16,30 H 38.38 C 39.71,26.92 39.9,21.19 39.54,18.97 Z M 34.42,43.34 C 33.74,43.67 31.92,44 31.34,44 C 29.24,43.2 24.48,40.26 22.48,37.58 L 23.58,35.65 C 24.81,37.81 31.38,42.37 34.42,43.34 Z M 13.8,24.45 C 13.51,24.96 12.9,26.7 12.85,27.46 C 15.2,25.28 22.4,21.82 24.89,21.82 L 23.76,19.91 C 20.43,20.33 15.53,23.01 13.8,24.45 Z M 39.8,30 C 40.28,28.9 41.19,25.76 41,21.67 C 41.54,22.25 42.48,24.67 41.9,30 H 39.8 Z M 28.27,43.9 A 20.86,20.86 0 0,1 21.59,38.69 L 20.54,40.5 C 24.88,43.67 27.5,44.09 28.27,43.9 Z M 23.22,18.58 C 22.04,18.73 18.81,19.58 15.38,21.83 C 15.6,21.07 17.27,18.99 22.16,16.78 L 23.22,18.58 Z" fill="rgb(36, 63, 94)"/>
</svg>
