<?xml version="1.0" encoding="UTF-8"?>
<!-- generated by Finnhub -->
<svg fill="none" viewBox="0 0 55.5 55.5" xmlns="http://www.w3.org/2000/svg">
<path d="M 0,0 H 55.5 V 55.5 H 0 Z" fill="rgb(239, 242, 248)"/>
<path d="M 28.418,27.627 C 25.959,24.968 26,21.446 26,21.446 V 9.987 C 35.16,17.613 39.19,23.631 39.19,23.631 C 44.26,30.185 40.916,36.355 40.916,36.355 C 35.602,48.765 24.78,44.519 24.78,44.519 C 32.158,44.422 33.634,39.153 33.634,39.153 C 35.25,34.937 31.296,30.836 31.296,30.836 S 28.698,27.936 28.428,27.642 Z" fill="rgb(1, 106, 180)"/>
<path d="M 27.99,33.12 V 41.463 S 27.998,41.986 28.51,42 C 28.51,42 29.46,42.03 29.948,40.352 C 29.948,40.352 31.168,36.699 28,33.135 Z M 25,21 V 38.195 S 24.944,42.123 28.153,42.871 C 28.153,42.871 24.819,45.247 20.757,42.641 C 20.757,42.641 16.413,40.329 17.576,33.864 C 17.576,33.864 18.131,29.527 25,21 Z" fill="rgb(1, 155, 218)"/>
<path d="M 27.99,47.985 C 39.045,48 48,39.046 48,28 S 39.044,8 28,8 C 16.954,8 8,16.954 8,28 S 16.954,48 28,48 Z" stroke="rgb(251, 185, 99)" stroke-width="1.319"/>
</svg>
