<?xml version="1.0" encoding="UTF-8"?>
<!-- generated by Finnhub -->
<svg viewBox="0 0 55.5 55.5" xmlns="http://www.w3.org/2000/svg">
<path d="M 0,0 H 55.5 V 55.5 H 0 Z" fill="rgb(239, 242, 248)"/>
<path d="M 43.99,21.985 H 43 V 32 H 44 V 22 Z M 39.26,25.92 L 38,24.65 H 39.26 V 25.92 Z M 40.39,26.56 L 39.87,24.84 L 40.99,25.44 L 40.39,26.56 Z M 41.44,25.93 L 40.99,27.66 L 42.09,27.02 L 41.44,25.93 Z M 42.26,27.68 L 40.99,28.95 H 42.26 V 27.68 Z M 36.26,27.71 L 35,28.98 V 27.7 H 36.26 Z M 39.3,32 L 38.03,30.74 V 32 H 39.3 Z M 36.24,28.95 L 35.82,30.69 L 35.16,29.61 L 36.24,28.95 Z M 37.39,31.79 L 36.91,30.07 L 36.29,31.17 L 37.39,31.79 Z M 36.89,26.62 L 35.14,27.01 L 35.83,25.94 L 36.89,26.62 Z M 36.26,25.52 L 38.01,25.89 L 37.31,24.83 L 36.26,25.53 Z M 40.37,30.06 L 42.1,29.61 L 41.46,30.7 L 40.37,30.06 Z M 41,31.13 L 39.26,30.74 L 39.93,31.81 L 41,31.13 Z" fill="rgb(9, 9, 8)"/>
<path d="M 16.99,24.985 L 19.38,31 H 20.08 L 21.97,26.09 L 23.71,31 H 24.37 L 27,25 H 26.39 L 24.32,29.96 L 22.56,25 H 21.84 L 19.94,29.98 L 18.13,25 H 17 Z M 11.83,27.52 C 11.75,26.6 12.4,25.45 13.43,25.4 C 14.65,25.34 15.08,26.49 14.99,27.52 H 11.83 Z M 15.75,29.74 C 15.11,30.01 14.38,30.94 13,30.37 C 12.57,30.2 12.22,29.88 12.03,29.47 A 3.26,3.26 0 0,1 11.76,28 H 16 C 15.97,27.14 16.04,26.55 15.48,25.83 C 15.05,25.27 14.4,25.06 13.71,25.01 C 12.31,24.91 10.97,25.71 10.68,27.13 A 3.9,3.9 0 0,0 10.92,29.34 C 11.59,30.71 12.89,31.22 14.36,30.91 C 14.72,30.84 14.99,30.74 15.31,30.58 C 15.75,30.36 15.71,30.19 15.75,29.74 Z M 4,25 V 31 H 5 V 27.64 C 5,26.68 5.53,25.71 6.73,25.64 C 7.95,25.58 8,26.69 8,27.64 V 31 H 9 V 26.94 C 8.99,25.62 8.33,25 7.06,25.02 C 6.16,25.02 5.46,25.59 5,25.95 V 25 H 4 Z" fill="rgb(126, 107, 43)"/>
<path d="M 31.56,24.985 C 30.17,25 28.67,25.2 28.37,26.8 C 28.34,27.97 28.72,28.45 29.47,29.18 C 29.02,29.41 28.68,29.49 28.62,30.14 C 28.59,30.52 28.69,30.67 28.85,30.94 L 29.07,31.13 L 29.32,31.33 L 29.4,31.4 C 27.35,31.97 27.5,34.68 30.2,34.97 C 34.27,35.4 35.44,30.82 31.88,30.6 C 31.27,30.57 28.64,30.95 29.56,29.62 C 30.01,28.97 33.5,30.3 33.12,26.59 A 2.36,2.36 0 0,0 32.52,25.47 H 34 V 25 H 31.57 Z M 30.85,25.32 C 31.39,25.32 32.01,25.59 32.22,26.44 C 32.44,27.35 32.11,28.49 31.52,28.78 C 29.26,29.88 28.44,26.32 30.23,25.44 C 30.39,25.37 30.61,25.32 30.85,25.32 Z M 30.95,31.37 C 32.19,31.35 33.39,31.97 32.88,33.37 C 32.21,35.21 28.58,35.16 29.04,32.58 C 29.18,31.84 30,31.38 30.96,31.37 Z M 50,28.83 C 49.7,32.65 45.66,32.29 46.02,28.31 C 46.37,24.48 50.3,24.99 50,28.83 Z M 50,26.56 A 3.64,3.64 0 0,0 49.4,25.71 C 48.67,24.89 47.46,24.89 46.75,25.26 C 45.62,25.84 44.99,26.96 45,28.71 C 45.01,30.23 45.63,31.38 46.68,31.83 C 47.63,32.23 48.69,31.89 49.38,31.26 C 49.48,31.16 49.94,30.66 50,30.46 V 32 H 51 V 22 H 50 V 26.56 Z" fill="rgb(9, 9, 8)"/>
</svg>
