<?xml version="1.0" encoding="UTF-8"?>
<!-- generated by Finnhub -->
<svg viewBox="0 0 55.5 55.5" xmlns="http://www.w3.org/2000/svg">
<path d="M 0,0 H 55.5 V 55.5 H 0 Z" fill="rgb(1, 138, 200)"/>
<path d="M 45.27,22.977 L 44.272,24 L 45.28,25.008 L 46.288,24 L 45.28,22.992 Z M 33.432,23.998 V 30.998 H 34.014 V 23.998 H 33.432 Z M 16.027,26 V 31 H 16.609 V 26 H 16.027 Z M 15.998,24 V 25 H 16.638 V 24 H 15.998 Z M 14.97,31.056 A 3.3,3.3 0 0,0 14.688,31.124 A 1.45,1.45 0 0,1 14.3,31.172 C 14.01,31.172 13.786,31.102 13.63,30.959 C 13.482,30.81 13.408,30.549 13.408,30.173 V 26.497 H 12.5 V 26 H 13.408 V 24.615 H 13.99 V 26 H 15 V 26.497 H 13.99 V 29.94 C 13.99,30.063 13.993,30.17 14,30.26 C 14.006,30.351 14.025,30.425 14.058,30.484 C 14.09,30.542 14.138,30.584 14.203,30.61 A 0.88,0.88 0 0,0 14.494,30.648 C 14.572,30.648 14.649,30.642 14.727,30.629 A 2.7,2.7 0 0,0 14.969,30.581 V 31.056 Z M 3,31 H 3.595 V 28.33 C 3.595,28.156 3.601,27.994 3.615,27.845 C 3.627,27.696 3.663,27.541 3.721,27.38 A 1.517,1.517 0 0,1 4.216,26.701 C 4.338,26.61 4.474,26.539 4.623,26.487 C 4.772,26.429 4.937,26.4 5.118,26.4 C 5.583,26.4 5.916,26.513 6.117,26.74 C 6.317,26.966 6.417,27.305 6.417,27.758 V 31 H 7 V 27.748 A 4.33,4.33 0 0,0 6.962,27.157 A 1.209,1.209 0 0,0 6.748,26.594 A 1.441,1.441 0 0,0 6.078,26.041 A 2.23,2.23 0 0,0 5.216,25.876 C 4.866,25.876 4.566,25.954 4.314,26.109 A 3.768,3.768 0 0,0 3.596,26.71 V 26 H 3 V 31 Z" fill="rgb(254, 254, 253)"/>
<path d="M 10.819,28.044999999999998 A 7.2,7.2 0 0,1 10.441,28.118 L 9.636,28.225 C 8.466,28.38 7.88,28.885 7.88,29.738 C 7.88,29.984 7.925,30.198 8.016,30.378 C 8.106,30.553 8.229,30.701 8.384,30.824 C 8.54,30.947 8.717,31.038 8.918,31.096 C 9.125,31.154 9.338,31.183 9.558,31.183 A 2.48,2.48 0 0,0 10.586,30.97 C 10.903,30.828 11.184,30.62 11.43,30.349 C 11.43,30.439 11.437,30.527 11.45,30.611 A 0.886,0.886 0 0,0 11.518,30.834 A 0.746,0.746 0 0,0 11.663,31.009 A 0.474,0.474 0 0,0 11.896,31.096 C 11.98,31.116 12.067,31.125 12.158,31.125 A 0.853,0.853 0 0,0 12.41,31.086 L 12.614,31.028 V 30.572 C 12.368,30.662 12.203,30.679 12.119,30.621 C 12.041,30.556 12.003,30.411 12.003,30.184 V 27.45 C 12.003,27.159 11.954,26.913 11.857,26.712 A 1.13,1.13 0 0,0 11.469,26.237 A 1.503,1.503 0 0,0 10.887,25.975 A 3.04,3.04 0 0,0 9.403,25.985 C 9.163,26.043 8.95,26.14 8.763,26.276 C 8.582,26.406 8.433,26.576 8.317,26.79 C 8.2,26.997 8.132,27.25 8.113,27.547 H 8.705 C 8.73,27.327 8.782,27.146 8.86,27.004 C 8.944,26.854 9.047,26.738 9.17,26.654 C 9.3,26.564 9.448,26.502 9.616,26.47 A 2.46,2.46 0 0,1 10.169,26.412 C 10.622,26.412 10.942,26.509 11.129,26.702 C 11.324,26.89 11.421,27.132 11.421,27.43 C 11.421,27.52 11.408,27.621 11.381,27.731 A 0.294,0.294 0 0,1 11.207,27.954 C 11.11,27.999 10.984,28.035 10.829,28.061 Z M 10.674,28.613 C 10.926,28.58 11.174,28.513 11.421,28.409 V 29.195 C 11.421,29.447 11.369,29.667 11.265,29.855 A 1.403,1.403 0 0,1 10.848,30.31 A 1.841,1.841 0 0,1 10.266,30.572 C 10.046,30.63 9.82,30.659 9.587,30.659 A 1.75,1.75 0 0,1 9.18,30.611 A 1.24,1.24 0 0,1 8.83,30.446 A 1.016,1.016 0 0,1 8.588,30.165 A 0.9,0.9 0 0,1 8.501,29.757 C 8.501,29.415 8.624,29.159 8.869,28.991 C 9.122,28.823 9.471,28.723 9.917,28.691 C 10.169,28.671 10.422,28.645 10.674,28.613 Z M 19.904,31.172 A 2.659,2.659 0 0,1 18.992,30.998 A 2.089,2.089 0 0,1 18.255,30.503 A 2.414,2.414 0 0,1 17.76,29.678 A 3.3,3.3 0 0,1 17.576,28.524 C 17.576,28.156 17.624,27.813 17.721,27.496 C 17.818,27.173 17.964,26.891 18.158,26.652 C 18.352,26.412 18.594,26.225 18.885,26.089 C 19.176,25.947 19.515,25.876 19.904,25.876 C 20.298,25.876 20.641,25.947 20.932,26.089 C 21.222,26.225 21.465,26.413 21.659,26.652 C 21.853,26.885 21.996,27.162 22.086,27.486 C 22.183,27.81 22.232,28.156 22.232,28.524 C 22.232,28.925 22.177,29.287 22.067,29.611 C 21.957,29.934 21.798,30.212 21.591,30.445 C 21.391,30.678 21.145,30.859 20.854,30.988 A 2.375,2.375 0 0,1 19.904,31.172 Z M 21.611,28.524 C 21.611,28.227 21.578,27.949 21.514,27.69 A 1.924,1.924 0 0,0 21.214,27.02 A 1.427,1.427 0 0,0 20.689,26.565 C 20.476,26.455 20.214,26.4 19.904,26.4 C 19.6,26.4 19.338,26.461 19.118,26.584 A 1.479,1.479 0 0,0 18.594,27.06 C 18.458,27.254 18.358,27.48 18.294,27.738 A 3.15,3.15 0 0,0 18.196,28.524 C 18.196,28.834 18.232,29.122 18.303,29.387 C 18.381,29.647 18.491,29.869 18.633,30.057 C 18.775,30.244 18.953,30.39 19.166,30.493 C 19.38,30.597 19.626,30.648 19.904,30.648 A 1.6,1.6 0 0,0 20.68,30.474 C 20.9,30.351 21.077,30.189 21.213,29.989 S 21.449,29.562 21.513,29.309 C 21.578,29.058 21.611,28.796 21.611,28.524 Z" fill="rgb(254, 254, 253)"/>
<path d="M 23.0,30.991 H 23.593 V 28.336 C 23.593,28.161 23.599,28 23.613,27.851 A 1.85,1.85 0 0,1 23.719,27.385 A 1.515,1.515 0 0,1 24.214,26.706 C 24.336,26.616 24.472,26.544 24.621,26.493 C 24.77,26.435 24.935,26.406 25.116,26.406 C 25.581,26.406 25.914,26.519 26.115,26.745 C 26.315,26.971 26.415,27.311 26.415,27.763 V 31.006 H 26.997 V 27.754 C 26.997,27.547 26.984,27.35 26.959,27.162 A 1.21,1.21 0 0,0 26.745,26.599 A 1.443,1.443 0 0,0 26.075,26.047 A 2.233,2.233 0 0,0 25.213,25.882 C 24.863,25.882 24.563,25.959 24.311,26.114 A 3.77,3.77 0 0,0 23.593,26.716 V 26.006 H 23.011 V 31.006 Z" fill="rgb(254, 254, 253)"/>
<path d="M 30.439999999999998,28.083 C 30.56,28.085 30.689,28.065 30.837,28.04 A 1.49,1.49 0 0,0 31.216,27.933 A 0.294,0.294 0 0,0 31.39,27.71 C 31.416,27.6 31.43,27.5 31.43,27.41 A 0.967,0.967 0 0,0 31.138,26.682 C 30.95,26.488 30.63,26.391 30.178,26.391 C 29.978,26.391 29.793,26.41 29.625,26.449 A 1.143,1.143 0 0,0 29.179,26.633 C 29.056,26.717 28.952,26.833 28.869,26.983 C 28.791,27.125 28.739,27.306 28.713,27.526 H 28.121 C 28.141,27.228 28.209,26.976 28.325,26.769 C 28.442,26.556 28.59,26.384 28.771,26.255 C 28.959,26.119 29.172,26.022 29.411,25.964 A 3.036,3.036 0 0,1 30.896,25.954 A 1.5,1.5 0 0,1 31.478,26.216 C 31.646,26.332 31.775,26.491 31.866,26.691 C 31.963,26.891 32.011,27.138 32.011,27.429 V 30.164 C 32.011,30.39 32.05,30.536 32.127,30.6 C 32.211,30.659 32.377,30.642 32.622,30.552 V 31.008 L 32.419,31.066 A 0.856,0.856 0 0,1 32.166,31.105 C 32.076,31.105 31.988,31.095 31.904,31.075 A 0.476,0.476 0 0,1 31.672,30.988 A 0.75,0.75 0 0,1 31.526,30.814 A 0.887,0.887 0 0,1 31.458,30.591 A 1.713,1.713 0 0,1 31.438,30.329 A 2.529,2.529 0 0,1 30.595,30.949 C 30.278,31.092 29.935,31.163 29.567,31.163 C 29.347,31.163 29.133,31.133 28.927,31.076 A 1.544,1.544 0 0,1 28.393,30.804 A 1.364,1.364 0 0,1 28.024,30.358 A 1.415,1.415 0 0,1 27.889,29.718 C 27.889,28.864 28.474,28.36 29.644,28.204 L 30.449,28.098 Z M 31.43,28.388 A 2.86,2.86 0 0,1 30.682,28.592 C 30.43,28.625 30.178,28.651 29.926,28.67 C 29.479,28.702 29.13,28.803 28.878,28.97 C 28.632,29.139 28.509,29.394 28.509,29.737 A 0.9,0.9 0 0,0 28.597,30.145 C 28.661,30.255 28.742,30.348 28.839,30.425 C 28.943,30.497 29.059,30.552 29.189,30.591 C 29.324,30.623 29.46,30.639 29.596,30.639 C 29.829,30.639 30.055,30.61 30.275,30.552 C 30.495,30.494 30.689,30.406 30.857,30.29 C 31.031,30.167 31.17,30.015 31.274,29.834 C 31.377,29.646 31.429,29.427 31.429,29.174 V 28.389 Z M 37.218,25.75 C 37.477,25.75 37.702,25.789 37.895,25.868 C 38.223,26.004 38.489,26.253 38.691,26.616 V 26 H 40.003 V 30.771 C 40.003,31.437 39.891,31.939 39.666,32.277 C 39.281,32.858 38.542,33.149 37.45,33.149 C 36.79,33.149 36.251,33.019 35.835,32.76 C 35.418,32.501 35.187,32.115 35.143,31.6 H 36.611 C 36.649,31.758 36.711,31.871 36.796,31.94 C 36.941,32.064 37.186,32.126 37.53,32.126 C 38.017,32.126 38.342,31.963 38.506,31.638 C 38.613,31.429 38.667,31.078 38.667,30.586 V 30.255 C 38.537,30.475 38.399,30.641 38.25,30.752 C 37.982,30.957 37.633,31.06 37.203,31.06 C 36.54,31.06 36.01,30.828 35.613,30.364 C 35.217,29.896 35.02,29.264 35.02,28.469 C 35.02,27.702 35.211,27.058 35.593,26.537 C 35.975,26.013 36.517,25.75 37.218,25.75 Z M 37.554,29.927 C 37.87,29.927 38.137,29.808 38.354,29.572 C 38.572,29.332 38.681,28.952 38.681,28.43 C 38.681,27.94 38.577,27.568 38.369,27.313 A 1.007,1.007 0 0,0 37.539,26.929 C 37.066,26.929 36.739,27.152 36.559,27.597 C 36.465,27.833 36.417,28.126 36.417,28.473 A 2,2 0 0,0 36.569,29.273 C 36.752,29.709 37.08,29.927 37.554,29.927 Z" fill="rgb(254, 254, 253)"/>
<path d="M 43.875,25.873 A 0.33,0.33 0 0,0 43.824,25.883 C 43.419,25.883 43.091,25.989 42.838,26.2 C 42.812,26.222 42.785,26.243 42.757,26.264 C 42.621,26.368 42.467,26.487 42.294,26.772 V 25.998 H 41.005 V 30.998 H 42.365 V 28.567 C 42.365,28.153 42.417,27.847 42.521,27.647 C 42.707,27.294 43.072,27.117 43.615,27.117 A 3.466,3.466 0 0,1 44.004,27.141 V 25.893 L 43.943,25.89 H 43.932 C 43.918,25.888 43.907,25.888 43.898,25.888 H 43.885 Z M 44.66,25.998 H 46.029 V 30.998 H 44.659 V 25.998 Z" fill="rgb(254, 254, 253)"/>
<path d="M 50.004000000000005,25.945 A 1.65,1.65 0 0,0 49.18,25.75 C 48.501,25.75 47.958,26.003 47.55,26.509 C 47.147,27.014 46.945,27.707 46.945,28.588 C 46.945,29.352 47.15,29.978 47.56,30.468 C 47.974,30.954 48.482,31.198 49.085,31.198 C 49.452,31.198 49.758,31.128 50.005,30.989 C 50.25,30.85 50.47,30.628 50.663,30.321 V 31 H 52 V 24 H 50.606 V 26.527 A 1.62,1.62 0 0,0 50.014,25.959 Z M 50.345,29.634 C 50.146,29.919 49.855,30.061 49.474,30.061 C 49.092,30.061 48.806,29.919 48.617,29.634 C 48.43,29.347 48.337,28.965 48.337,28.488 C 48.337,28.046 48.429,27.677 48.612,27.38 C 48.798,27.08 49.089,26.93 49.483,26.93 C 49.743,26.93 49.969,27.012 50.165,27.176 C 50.485,27.448 50.644,27.899 50.644,28.531 C 50.644,28.983 50.544,29.351 50.345,29.635 Z" fill="rgb(254, 254, 253)"/>
</svg>
