<?xml version="1.0" encoding="UTF-8"?>
<!-- generated by Finnhub -->
<svg viewBox="0 0 55.5 55.5" xmlns="http://www.w3.org/2000/svg">
<path d="M 0,0 H 55.5 V 55.5 H 0 Z" fill="url(#a)"/>
<path d="M 40.854,33.06 C 40.588,33.815 39.616,35.371 37.988,36.445 C 36.358,37.519 34.544,39.239 32.782,39.986 C 30.558,40.931 28.642,41.094 27.637,41.389 C 26.631,41.686 24.975,42.339 23.935,42.339 S 21.175,42.296 19.962,41.593 C 18.749,40.889 18.09,40.556 17.639,37.852 C 17.188,35.148 18.229,32.702 18.367,31.518 C 18.507,30.334 20.437,25.701 20.923,24.48 C 21.408,23.255 22.523,19.828 23.598,18.087 C 24.671,16.347 24.526,14.803 25.815,14.271 C 26.78,13.876 27.203,14.248 28.004,14.553 C 28.863,14.881 30.188,15.663 30.985,16.369 C 31.782,17.073 36.15,22.109 36.15,22.109 C 37.156,23.555 38.507,25.074 39.27,26.518 C 40.032,27.962 40.588,28.702 40.726,30.185 C 40.864,31.665 41.142,32.333 40.864,33.075 Z M 42.47,27.925 C 42.034,26.755 41.357,22.775 40.344,21.443 C 36.677,16.617 33.758,15.554 32.578,14.664 C 31.401,13.776 29.082,12.794 27.657,12.344 C 27.04,12.148 25.75,11.776 24.467,12.183 C 22.764,12.723 22.318,13.517 21.243,15.035 C 20.169,16.554 19.06,20.665 18.506,22.035 C 17.951,23.406 15.766,28.072 15.143,29.185 C 14.708,29.96 11.711,34.481 12.023,36.665 C 12.187,37.817 12.127,40.408 14.589,41.667 C 18.128,43.477 21.07,44 23.462,44 C 25.854,44 27.409,43.332 29.494,43.332 C 31.469,43.332 33.931,43.408 35.942,42.37 C 37.953,41.333 39.962,40.666 41.557,38.813 C 43.152,36.963 43.811,36.703 43.984,34.739 C 44.157,32.778 42.881,29.035 42.47,27.926 Z" fill="rgb(10, 104, 198)"/>
<path d="M 33.54,34.161 C 32.458,35.01 29.888,36.669 28.506,37.288 C 26.822,38.04 24.866,38.675 23.931,38.538 C 22.576,38.336 22.292,36.009 22.553,34.954 C 22.812,33.898 22.943,31.536 23.619,29.704 C 24.295,27.869 25.777,24.508 26.089,23.62 C 26.4,22.73 27.752,19.758 28.324,19.758 C 28.896,19.758 29.649,20.55 30.274,21.424 C 31.106,22.591 31.366,23.091 31.729,23.591 C 32.093,24.091 33.446,26.148 33.862,27.091 C 34.277,28.035 35.195,29.66 35.369,30.925 C 35.579,32.425 34.642,33.342 33.549,34.175 Z M 37.12,28.74 C 36.435,25.982 36.08,25.703 34.487,23.408 C 32.891,21.11 31.435,19.925 29.944,18.924 C 28.569,18.002 26.706,16.698 26.304,16.887 C 25.817,17.117 25.403,18.221 24.987,19.257 C 24.572,20.296 23.792,21.422 23.379,22.814 C 22.942,24.295 22.235,27.094 22.076,27.704 C 21.66,29.296 21.036,30.445 20.55,31.852 C 20.065,33.26 19.65,35.816 20.1,37.667 C 20.397,38.887 20.828,39.407 22.423,39.777 C 24.018,40.148 25.819,39.853 27.206,39.704 C 28.593,39.556 30.996,39.081 32.382,38.34 C 33.768,37.599 33.862,37.222 34.763,36.518 C 35.675,35.807 37.293,34.591 37.694,33.647 C 38.051,32.807 37.711,31.12 37.12,28.74 Z" fill="rgb(10, 104, 198)"/>
<path d="M 30.81,31.049 C 30.69,31.536 30.04,31.621 29.104,32.119 C 28.168,32.62 26.992,33.461 26.686,33.176 C 26.478,32.981 27.05,31.704 27.102,31.092 C 27.155,30.482 27.668,29.467 27.856,29.009 C 28.038,28.564 28.346,27.77 28.506,27.731 C 28.666,27.691 29.969,28.876 30.326,29.704 C 30.638,30.425 30.894,30.798 30.82,31.064 Z M 32.874,29.704 C 32.614,29.091 31.157,27.369 30.482,26.424 C 29.806,25.481 28.502,23.954 27.778,23.953 C 27.272,23.953 26.738,26.537 26.27,27.648 C 25.802,28.758 25.126,31.981 24.97,32.648 C 24.815,33.314 24.165,34.843 24.762,35.204 C 25.158,35.444 26.738,34.648 27.726,34.426 C 28.714,34.204 29.5,33.673 30.274,33.26 C 31.106,32.815 32.25,32.482 32.874,31.815 C 33.498,31.148 33.134,30.313 32.874,29.704 Z" fill="rgb(213, 54, 27)"/>
<defs>
<linearGradient id="a" x1="10.418" x2="68.147" y1="9.712" y2="76.017" gradientUnits="userSpaceOnUse">
<stop stop-color="rgb(25, 29, 31)" offset="0"/>
<stop stop-color="rgb(5, 5, 8)" offset="1"/>
</linearGradient>
</defs>
</svg>
