<?xml version="1.0" encoding="UTF-8"?>
<!-- generated by Finnhub -->
<svg viewBox="0 0 55.5 55.5" xmlns="http://www.w3.org/2000/svg">
<rect width="56" height="56" fill="rgb(215, 234, 247)"/>
<path d="M 3.99,31.3588 L 4,26.6262 C 4,26.2163 4.18447,26 4.53398,26 H 5.39806 C 5.74757,26 6,26.2163 6,26.6262 C 6,26.6701 6,27 6,27 C 6.23301,26.5446 6.32039,26 7.20388,26 C 8.21359,26 9,26.5465 9,28.1973 V 31.3738 C 9,31.7837 8.81553,32 8.46602,32 H 7.53398 C 7.18447,32 7,31.7837 7,31.3738 V 29 C 7,28.4535 6.86893,28 6.5,28 C 6.13107,28 6,28.5161 6,29.3472 V 31.3738 C 6,31.7837 5.81553,32 5.46602,32 H 4.53398 C 4.18447,32 4,31.7837 4,31.3738 Z" fill="rgb(38, 35, 121)"/>
<path d="M 9.99,31.3442 V 26.6408 C 10,26.2214 10.2197,26 10.6358,26 H 11.3642 C 11.7803,26 12,26.2214 12,26.6408 V 31.3592 C 12,31.7786 11.7803,32 11.3642,32 H 10.6358 C 10.2197,32 10,31.7786 10,31.3592 Z" fill="rgb(38, 35, 121)"/>
<path d="M 19.99,31.3696 V 24.6154 C 20,24.2126 20.2214,24 20.6408,24 H 21.3748 C 21.7942,24 22,24.2126 22,24.6154 C 22,25.4103 22,26.2051 22,27 H 22.0233 C 22.3612,26.4294 23.0524,26 23.8447,26 C 25.0563,26 26,26.6406 26,28.2629 V 31.3846 C 26,31.7874 25.7786,32 25.3592,32 H 24.6408 C 24.2214,32 24,31.7874 24,31.3846 V 28.621 C 24,28.0839 23.7631,28 23.3204,28 C 22.4466,28 22,28.5203 22,29.4042 V 31.3846 C 22,31.7874 21.7942,32 21.3748,32 H 20.6408 C 20.2214,32 20,31.7874 20,31.3846 Z" fill="rgb(38, 35, 121)"/>
<path d="M 26.99,29.988 V 28.0061 H 26.605 C 26.2129,28.0061 26,27.8042 26,27.4219 V 26.5842 C 26,26.2018 26.2129,26 26.6162,26 H 27 V 25.5842 C 27,25.2018 27.2129,25 27.6162,25 H 28.3838 C 28.7871,25 29,25.2018 29,25.5842 V 26 H 29.3838 C 29.7871,26 30,26.2018 30,26.5842 V 27.4219 C 30,27.8042 29.7871,28.0061 29.395,28.0061 H 29 V 29.6631 C 29,30.1305 29.0364,30.3111 29.3838,30.3536 C 29.8319,30.4067 30,30.5341 30,30.9378 V 31.4158 C 30,31.8513 29.7199,32 29.2045,32 C 28.3529,32 27,31.6282 27,30.003 Z" fill="rgb(38, 35, 121)"/>
<path d="M 30.99,31.373 V 28 H 30.618 C 30.2135,28 30,27.7886 30,27.388 L 30,26.6119 C 30,26.2114 30.2135,26 30.618,26 H 31 V 25.7218 C 31,23.8971 32.5843,24.0001 33.191,24.0001 H 33.382 C 33.7865,24.0001 34,24.2115 34,24.612 V 25.0237 C 34,25.7921 33,25.1093 33,25.822 V 26 H 33.382 C 33.7865,26 34,26.2114 34,26.6119 V 27.388 C 34,27.7886 33.7865,28 33.382,28 H 33 V 31.388 C 33,31.7886 32.7865,32 32.382,32 H 31.618 C 31.2135,32 31,31.7886 31,31.388 Z" fill="rgb(38, 35, 121)"/>
<path d="M 42.980000000000004,25.985 C 41.3359,26 40.0003,27.2134 40.0003,29.0167 C 40.0003,30.8089 41.3359,32 43.0003,32 S 46.0003,30.8089 46.0003,29.0167 C 46.0003,27.2134 44.6647,26 42.99,26 Z M 42.0003,29.0176 C 42.0003,29.9198 42.4618,30.4706 43.0003,30.4706 S 44.0003,29.9198 44.0003,29.0176 C 44.0003,28.1036 43.5388,27.5294 43.0003,27.5294 S 42.0003,28.1036 42.0003,29.0176 Z" clip-rule="evenodd" fill="rgb(38, 35, 121)" fill-rule="evenodd"/>
<path d="M 36.980000000000004,25.985 C 35.3359,26 34.0003,27.2134 34.0003,29.0167 C 34.0003,30.8089 35.3359,32 37.0003,32 S 40.0003,30.8089 40.0003,29.0167 C 40.0003,27.2134 38.6647,26 36.99,26 Z M 36.0003,29.0176 C 36.0003,29.9198 36.4618,30.4706 37.0003,30.4706 S 38.0003,29.9198 38.0003,29.0176 C 38.0003,28.1036 37.5388,27.5294 37.0003,27.5294 S 36.0003,28.1036 36.0003,29.0176 Z" clip-rule="evenodd" fill="rgb(38, 35, 121)" fill-rule="evenodd"/>
<path d="M 45.99,29.014 C 46,27.2353 47.0809,26.0001 48.5919,26.0001 C 49.739,26.0001 50,26.6301 50,26.6301 V 26.377 V 24.6053 C 50,24.2092 50.2096,24.0001 50.6066,24.0001 H 51.3934 C 51.7904,24.0001 52,24.2092 52,24.6053 V 31.2628 C 52,31.659 51.7904,32.0001 51.3934,32.0001 H 50.7279 C 50.3309,32.0001 50,31.681 50,31.3178 V 31.1748 S 49.7279,32.0001 48.5588,32.0001 C 47.0147,32.0001 46,30.7896 46,29.029 Z M 48,29.0001 C 48,29.8474 48.3713,30.5001 49.0331,30.5001 C 49.6066,30.5001 50,29.9795 50,29.0001 C 50,28.3178 49.7831,27.5001 49.0331,27.5001 C 48.4375,27.5001 48,28.1308 48,29.0001 Z" fill="rgb(38, 35, 121)"/>
<path d="M 15.99,29.985 C 17.6569,30 19,29.1046 19,28 C 19,27.9292 18.9945,27.8593 18.9837,27.7904 L 19.2755,27.6684 C 19.4057,27.614 19.4914,27.4792 19.4914,27.329 V 26.7423 C 19.4914,26.5143 19.2988,26.3424 19.0903,26.3844 L 18.1144,26.5812 C 17.572,26.222 16.8249,26 16,26 C 14.3431,26 13,26.8954 13,28 C 13,28.4507 13.2236,28.8666 13.6009,29.201 C 13.3635,29.3882 13.1071,29.6891 13.1071,30.0602 C 13.1071,30.5783 13.5357,30.9237 13.75,31.0316 C 13.5,31.1756 13,31.6037 13,32.165 C 13,32.8666 13.8036,34 16.0536,34 S 19,32.8127 19,32.0571 S 18.4643,30.5459 16.6964,30.5459 C 14.9286,30.5459 14.3393,30.2221 14.3393,29.9522 C 14.3393,29.8584 14.4135,29.7883 14.5136,29.7376 C 14.9518,29.9046 15.4592,30 16,30 Z M 16,29 C 16.5523,29 17,28.5523 17,28 S 16.5523,27 16,27 S 15,27.4477 15,28 S 15.4477,29 16,29 Z M 16.2143,31.6253 C 15.5714,31.6253 15.0536,31.4814 14.875,31.4094 C 14.7857,31.5174 14.6071,31.7872 14.6071,32.0031 C 14.6071,32.2729 15.25,32.8127 16,32.8127 S 17.125,32.2729 17.125,32.0571 C 17.125,31.8412 17.0179,31.6253 16.2143,31.6253 Z" clip-rule="evenodd" fill="rgb(38, 35, 121)" fill-rule="evenodd"/>
<path d="M 11.182,22.125999999999998 C 10.7146,22.2359 10.3555,22.6473 10.3555,23.1404 C 10.3555,23.7037 10.8243,24.1604 11.4025,24.1604 C 11.6248,24.1604 11.8309,24.0929 12.0004,23.9779 C 11.7957,24.5722 11.2193,25.0004 10.5402,25.0004 C 9.68981,25.0004 9.0004,24.3288 9.0004,23.5004 S 9.68981,22.0004 10.5402,22.0004 C 10.7732,22.0004 10.9941,22.0508 11.192,22.141 Z" clip-rule="evenodd" fill="rgb(38, 35, 121)" fill-rule="evenodd"/>
</svg>
