<?xml version="1.0" encoding="UTF-8"?>
<!-- generated by Finnhub -->
<svg viewBox="0 0 55.5 55.5" xmlns="http://www.w3.org/2000/svg">
<path d="M 0,0 H 55.5 V 55.5 H 0 Z" fill="rgb(239, 242, 248)"/>
<path d="M 14.53,27.845 H 13 V 21.66 H 14 L 17.54,25.36 V 21.66 H 19 V 27.86 H 18 L 14.57,24.33 L 14.54,27.86 Z M 19,27.86 L 21.56,22.72 H 22.46 L 25,27.9 H 23.75 L 23,26.67 H 20.95 L 20.27,27.87 H 19 Z M 22.57,25.56 L 22,24.52 L 21.48,25.54 H 22.58 Z M 24,22.71 H 29.72 V 26.11 S 29.72,26.85 30.76,26.85 C 31.36,26.85 31.8,26.73 31.8,26.19 V 22.71 H 33 V 26.61 S 32.84,27.82 31.25,27.85 H 30.32 C 29.31,27.85 28.62,27.39 28.62,26.65 V 23.75 H 27 V 27.85 H 26 V 23.75 H 24 V 22.71 Z M 34,27.85 V 22.71 H 37.46 S 38.5,23.01 38.5,24.27 S 37.8,25.81 37.8,25.81 L 39,27.85 H 37.7 L 36.5,25.85 H 35 V 27.85 H 34 Z M 39,27.85 L 41.56,22.71 H 42.46 L 45,27.86 H 43.75 L 43.01,26.66 H 40.96 L 40.28,27.86 H 39 Z M 35,24.8 V 23.75 H 37.05 S 37.55,23.75 37.55,24.24 C 37.55,24.74 37.19,24.8 37.19,24.8 H 35 Z M 42.03,24.52 L 42.6,25.54 H 41.5 L 42.03,24.52 Z M 49,26.9 H 46.17 V 22.7 H 45 V 27.85 H 49 V 26.9 Z M 14.72,29.7 V 35 H 16.15 V 32.85 H 17.79 L 19.29,35 H 20.72 L 19.22,32.85 S 20.22,32.52 20.22,31.26 C 20.22,29.98 18.72,29.7 18.72,29.7 H 14.72 Z M 16.07,30.75 V 31.8 H 18.51 S 18.97,31.74 18.97,31.24 S 18.33,30.75 18.33,30.75 H 16.07 Z M 38.72,29.7 V 35 H 40.15 V 32.85 H 41.79 L 43.33,35 H 44.77 L 43.22,32.85 S 44.22,32.52 44.22,31.26 C 44.22,29.98 42.72,29.7 42.72,29.7 H 38.72 Z M 40.07,30.75 V 31.8 H 42.51 S 42.97,31.74 42.97,31.24 S 42.33,30.75 42.33,30.75 H 40.07 Z M 32.72,29.73 V 35 H 37.72 V 33.9 H 34 V 32.85 H 36.12 V 31.8 H 34 V 30.75 H 37.72 V 29.7 L 32.72,29.73 Z M 48.97,31.55 L 49.6,30.68 S 48.32,29.7 47.17,29.7 C 46.02,29.7 45.12,30.27 45.01,30.93 C 44.9,31.6 45.19,32.38 46.31,32.58 C 47.44,32.78 48.75,32.74 48.59,33.25 C 48.43,33.76 47.89,33.82 47.49,33.82 C 47.1,33.82 45.59,33.4 45.37,33.07 C 44.99,33.43 44.72,33.89 44.72,33.89 S 45.8,35 47.45,35 C 49.09,35 49.7,34.3 49.7,33.33 A 1.6,1.6 0 0,0 48.16,31.68 C 47.4,31.68 46.13,31.6 46.13,31.35 C 46.13,31.09 46.45,30.83 47.15,30.83 S 48.97,31.55 48.97,31.55 Z M 30.8,31.82 L 31.72,31.14 S 30.89,29.7 29.42,29.7 C 27.94,29.7 26.72,30.85 26.72,32.23 C 26.72,33.62 27.54,35 29.3,35 C 31.07,35 31.72,33.43 31.72,33.43 L 30.87,32.7 S 30.49,33.9 29.39,33.9 C 28.3,33.9 27.83,33.1 27.83,32.36 C 27.83,31.63 28.39,30.82 29.33,30.82 C 30.26,30.8 30.8,31.82 30.8,31.82 Z M 10.72,31.35 V 32.3 H 12.47 S 12.28,33.62 10.72,33.62 S 8.31,32.44 8.31,31.43 C 8.31,30.43 9.01,29.33 10.5,29.33 C 11.98,29.33 12.75,30.66 12.75,30.66 L 14.17,29.7 S 13.05,27.92 10.5,27.92 A 3.6,3.6 0 0,0 6.72,31.37 C 6.72,32.87 7.78,35 10.28,35 C 12.06,35 12.48,34.17 12.48,34.17 V 35 H 13.72 V 31.37 L 10.72,31.35 Z" fill="rgb(23, 26, 28)"/>
<path d="M 22.56,28.585 C 22.64,28.63 23.04,28.77 23.07,29.5 C 23.07,29.63 23.09,29.77 23.14,29.85 C 23.04,29.8 22.77,29.63 22.19,29.66 C 21.42,29.69 20.72,29.99 20.72,31.61 C 20.72,33.22 22.12,34.97 22.49,35 C 22.84,35.03 23.17,34.83 23.37,34.8 C 23.57,34.78 24.01,35.06 24.34,34.89 C 24.69,34.72 25.69,32.49 25.71,31.22 C 25.74,29.94 24.74,29.7 24.14,29.7 C 23.84,29.7 23.61,29.76 23.44,29.84 C 23.36,29.7 23.29,29.41 23.34,29.33 C 23.47,29.13 24.14,29.1 24.49,28.96 A 5.05,5.05 0 0,0 25.61,27.6 C 25.56,27.6 24.46,27.57 24.14,27.94 C 23.82,28.3 23.24,29.1 23.24,29.1 S 23.07,28.19 22.82,28.24 C 22.57,28.27 22.42,28.41 22.57,28.6 Z" fill="rgb(23, 26, 28)"/>
<path d="M 13.53,26.985 H 12 V 21 H 13 L 16.54,24.52 V 21 H 18 V 27 H 17 L 13.57,23.54 L 13.54,27 Z M 18,27 L 20.56,22 H 21.46 L 24,26.94 H 22.75 L 22,25.76 H 19.95 L 19.28,27 H 18 Z M 21.57,24.7 L 21,23.72 L 20.48,24.7 H 21.58 Z M 23,22 H 28.72 V 25.24 S 28.72,25.94 29.76,25.94 C 30.36,25.94 31,25.84 31,25.32 V 22 H 32 V 25.72 S 31.84,26.97 30.25,27 H 29.32 C 28.31,27 27.62,26.46 27.62,25.75 V 23 H 26 V 27 H 25 V 23 H 23 V 22 Z M 33,27 V 22 H 36.46 S 37.5,22.3 37.5,23.5 C 37.5,24.69 36.8,24.95 36.8,24.95 L 38,27 H 36.7 L 35.5,25 H 34 V 27 H 33 Z M 44,27 L 41.46,22 H 40.56 L 38,27 H 39.28 L 39.96,25.76 H 42.01 L 42.75,27 H 44 Z M 44,27 V 22 H 45 V 26 H 48 V 27 H 44 Z M 34,24 V 23 H 36.05 S 36.55,23 36.55,23.46 C 36.55,23.93 36.19,24 36.19,24 H 34 Z M 41.03,23.72 L 41.6,24.7 H 40.5 L 41.03,23.72 Z" fill="rgb(235, 133, 50)" fill-rule="evenodd"/>
<path d="M 11.69,27.285 V 20.7 H 13.12 L 16.24,23.8 V 20.7 H 18.3 V 25.76 L 20.38,21.7 H 21.65 L 24.49,27.24 H 22.58 L 21.84,26.06 H 20.14 L 19.46,27.3 H 16.87 L 13.87,24.26 L 13.84,27.3 H 11.7 Z M 13.57,23.54 L 17,27 H 19.28 L 19.96,25.76 H 22.01 L 22.75,26.94 H 24 L 21.46,22 H 20.56 L 18,27 V 21 H 16.54 V 24.52 L 13,21 H 12 V 27 H 13.54 L 13.57,23.54 Z M 29.02,21.7 V 25.28 C 29.03,25.32 29.05,25.37 29.09,25.42 C 29.15,25.5 29.31,25.65 29.76,25.65 C 30.05,25.65 30.31,25.62 30.49,25.55 A 0.4,0.4 0 0,0 30.66,25.45 A 0.17,0.17 0 0,0 30.7,25.32 V 21.7 H 32.3 V 25.76 L 32,25.72 V 22 H 31 V 25.32 C 31,25.84 30.36,25.95 29.76,25.95 C 28.72,25.95 28.72,25.24 28.72,25.24 V 22 H 23 V 23 H 25 V 27 H 26 V 23 H 27.62 V 25.75 C 27.62,26.46 28.31,27 29.32,27 H 30.25 C 31.84,26.97 32,25.72 32,25.72 L 32.3,25.76 V 25.79 A 1.36,1.36 0 0,1 32.23,26.01 C 32.19,26.15 32.1,26.34 31.96,26.53 C 31.66,26.93 31.14,27.28 30.26,27.3 H 29.31 C 28.21,27.3 27.31,26.7 27.31,25.75 V 23.3 H 26.3 V 27.3 H 24.7 V 23.3 H 22.7 V 21.7 H 29.02 Z M 32.7,21.7 H 36.5 L 36.54,21.71 L 36.46,22 H 33 V 27 H 34 V 25 H 35.5 L 36.7,27 H 39.28 L 39.96,25.76 H 42.01 L 42.75,27 H 48 V 26 H 45 V 22 H 44 V 27 L 41.46,22 H 40.56 L 38,27 L 36.8,24.95 S 36.86,24.93 36.95,24.85 C 37.16,24.7 37.5,24.32 37.5,23.49 C 37.5,22.29 36.46,22 36.46,22 L 36.54,21.71 H 36.56 A 1.07,1.07 0 0,1 36.76,21.79 C 36.86,21.85 37.02,21.94 37.18,22.07 C 37.49,22.34 37.8,22.79 37.8,23.49 C 37.8,24.15 37.6,24.59 37.38,24.86 C 37.32,24.94 37.25,25 37.2,25.05 L 37.98,26.38 L 40.38,21.7 H 41.65 L 43.7,25.75 V 21.7 H 45.3 V 25.7 H 48.3 V 27.3 H 42.58 L 41.84,26.06 H 40.14 L 39.46,27.3 H 36.54 L 35.34,25.3 H 34.3 V 27.3 H 32.7 V 21.7 Z M 21,23.72 L 20.48,24.7 H 21.58 L 21,23.72 Z M 21.01,24.34 L 20.98,24.4 H 21.05 L 21.01,24.34 Z M 34,24 V 23 H 36.05 S 36.55,23 36.55,23.46 C 36.55,23.93 36.19,24 36.19,24 H 34 Z M 36.14,23.7 L 36.17,23.68 C 36.19,23.66 36.24,23.61 36.24,23.46 C 36.24,23.4 36.23,23.37 36.22,23.36 A 0.13,0.13 0 0,0 36.17,23.32 A 0.33,0.33 0 0,0 36.05,23.29 H 34.3 V 23.7 H 36.14 Z M 41.03,23.72 L 40.51,24.7 H 41.6 L 41.03,23.72 Z M 41.04,24.34 L 41.01,24.4 H 41.08 L 41.04,24.34 Z" fill="rgb(239, 242, 248)"/>
<path d="M 13.99,28.985 V 34 H 15.44 V 32 H 17.07 L 18.57,34 H 20 L 18.5,32 S 19.5,31.69 19.5,30.49 C 19.5,29.27 18,29 18,29 H 14 Z M 15.35,30 V 31 H 17.79 S 18.25,30.94 18.25,30.46 C 18.25,29.98 17.61,30 17.61,30 H 15.35 Z" fill="rgb(235, 133, 50)" fill-rule="evenodd"/>
<path d="M 13.69,28.685 H 18.05 L 18,29 H 14 V 34 H 15.44 V 32 H 17.07 L 18.57,34 H 20 L 18.5,32 S 18.62,31.96 18.77,31.87 C 19.07,31.67 19.5,31.27 19.5,30.49 C 19.5,29.27 18,29 18,29 L 18.05,28.7 H 18.08 A 2.14,2.14 0 0,1 18.32,28.77 C 18.48,28.82 18.69,28.9 18.9,29.03 C 19.33,29.28 19.8,29.73 19.8,30.49 A 1.86,1.86 0 0,1 18.95,32.11 L 20.6,34.3 H 18.42 L 16.92,32.3 H 15.74 V 34.3 H 13.7 V 28.7 Z M 17.61,30 H 15.35 V 31 H 17.79 S 18.25,30.94 18.25,30.46 C 18.25,29.98 17.61,30 17.61,30 Z M 17.76,30.7 A 0.3,0.3 0 0,0 17.86,30.66 C 17.9,30.63 17.95,30.58 17.95,30.46 C 17.95,30.42 17.94,30.4 17.93,30.39 A 0.24,0.24 0 0,0 17.83,30.34 A 0.67,0.67 0 0,0 17.63,30.3 H 15.65 V 30.7 H 17.76 Z" fill="rgb(239, 242, 248)" fill-rule="evenodd"/>
<path d="M 37.99,28.985 V 34 H 39.44 V 32 H 41.07 L 42.57,34 H 44 L 42.5,32 S 43.5,31.69 43.5,30.49 C 43.5,29.27 42,29 42,29 H 38 Z M 39.35,30 V 31 H 41.79 S 42.25,30.94 42.25,30.46 C 42.25,29.98 41.61,30 41.61,30 H 39.35 Z" fill="rgb(235, 133, 50)" fill-rule="evenodd"/>
<path d="M 37.690000000000005,28.685 H 42.05 L 42,29 H 38 V 34 H 39.44 V 32 H 41.07 L 42.57,34 H 44 L 42.5,32 S 42.62,31.96 42.77,31.87 C 43.07,31.67 43.5,31.27 43.5,30.49 C 43.5,29.27 42,29 42,29 L 42.05,28.7 H 42.08 A 2.14,2.14 0 0,1 42.32,28.77 C 42.48,28.82 42.69,28.9 42.9,29.03 C 43.33,29.28 43.8,29.73 43.8,30.49 A 1.86,1.86 0 0,1 42.95,32.11 L 44.6,34.3 H 42.42 L 40.92,32.3 H 39.74 V 34.3 H 37.7 V 28.7 Z M 41.61,30 H 39.35 V 31 H 41.79 S 42.25,30.94 42.25,30.46 C 42.25,29.98 41.61,30 41.61,30 Z M 41.76,30.7 A 0.3,0.3 0 0,0 41.86,30.66 C 41.9,30.63 41.95,30.58 41.95,30.46 C 41.95,30.42 41.94,30.4 41.93,30.39 A 0.24,0.24 0 0,0 41.83,30.34 A 0.67,0.67 0 0,0 41.63,30.3 H 39.65 V 30.7 H 41.76 Z" fill="rgb(239, 242, 248)" fill-rule="evenodd"/>
<path d="M 31.99,29.015 V 34 H 37 V 33 H 33.28 V 32 H 35.4 V 31 H 33.28 V 30 H 37 V 29 L 32,29.03 Z" fill="rgb(235, 133, 50)"/>
<path d="M 31.689999999999998,28.715 L 37.3,28.7 V 30.3 H 33.58 V 30.7 H 35.7 V 32.3 H 33.58 V 32.7 H 37.3 V 34.3 H 31.7 V 28.73 Z M 37,30 H 33.28 V 31 H 35.4 V 32 H 33.28 V 33 H 37 V 34 H 32 V 29.03 L 37,29 V 30 Z" fill="rgb(239, 242, 248)" fill-rule="evenodd"/>
<path d="M 48.25,30.745 L 48.89,29.93 S 47.6,29 46.45,29 C 45.31,29 44.41,29.54 44.29,30.18 C 44.18,30.81 44.47,31.55 45.59,31.75 C 46.73,31.95 48.03,31.89 47.87,32.38 C 47.72,32.88 47.17,32.92 46.77,32.92 C 46.39,32.92 44.87,32.52 44.65,32.22 C 44.27,32.55 44,33 44,33 S 45.04,34 46.68,34 C 48.32,34 49,33.39 49,32.46 C 49,31.52 48.21,30.89 47.45,30.89 C 46.68,30.89 45.42,30.81 45.42,30.57 C 45.42,30.32 45.73,30.07 46.43,30.07 S 48.26,30.77 48.26,30.77 Z" fill="rgb(235, 133, 50)"/>
<path d="M 48.49,30.915 C 48.97,31.26 49.3,31.79 49.3,32.46 C 49.3,33 49.1,33.49 48.63,33.82 C 48.18,34.14 47.53,34.3 46.68,34.3 A 4.41,4.41 0 0,1 43.81,33.23 L 43.8,33.22 L 44,33 S 45.04,34 46.68,34 C 48.32,34 49,33.39 49,32.46 C 49,31.52 48.21,30.89 47.45,30.89 C 46.68,30.89 45.42,30.81 45.42,30.57 C 45.42,30.32 45.73,30.07 46.43,30.07 S 48.26,30.77 48.26,30.77 L 48.89,29.93 L 49.06,29.69 L 49.31,29.87 L 48.51,30.93 Z M 48.64,29.77 A 4.62,4.62 0 0,0 46.45,29 C 45.31,29 44.41,29.54 44.29,30.18 C 44.18,30.81 44.47,31.55 45.59,31.75 L 46.53,31.87 C 47.33,31.95 47.99,32.03 47.87,32.38 C 47.72,32.88 47.17,32.92 46.77,32.92 A 5.26,5.26 0 0,1 44.65,32.22 L 44.44,32.42 C 44.17,32.72 44,33 44,33 L 43.74,32.84 L 43.76,32.81 A 3.64,3.64 0 0,1 43.94,32.55 A 4,4 0 0,1 44.45,31.99 L 44.7,31.76 L 44.9,32.04 L 44.96,32.08 A 4.96,4.96 0 0,0 46.37,32.56 L 46.77,32.62 C 46.97,32.62 47.16,32.61 47.31,32.55 A 0.4,0.4 0 0,0 47.56,32.35 C 47.49,32.32 47.36,32.28 47.16,32.25 C 46.98,32.22 46.75,32.19 46.5,32.17 L 46.42,32.16 L 45.55,32.04 A 1.92,1.92 0 0,1 44.24,31.3 C 43.98,30.93 43.93,30.5 44,30.12 C 44.08,29.68 44.41,29.32 44.84,29.09 C 45.27,28.84 45.84,28.7 46.45,28.7 C 47.1,28.7 47.75,28.96 48.24,29.2 A 7,7 0 0,1 49.04,29.68 H 49.06 L 48.89,29.93 L 48.64,29.77 Z M 44,33 L 43.8,33.21 L 43.62,33.04 L 43.74,32.84 L 44,33 Z M 47.23,30.59 C 46.94,30.47 46.65,30.38 46.43,30.38 C 46.16,30.38 45.97,30.42 45.86,30.48 L 46.18,30.52 C 46.5,30.56 46.9,30.58 47.23,30.59 Z" fill="rgb(239, 242, 248)"/>
<path d="M 30.069999999999997,30.995 L 31,30.37 S 30.17,29 28.7,29 C 27.23,29 26,30.1 26,31.41 C 26,32.73 26.83,34 28.59,34 C 30.35,34 31,32.56 31,32.56 L 30.15,31.86 S 29.77,33.01 28.68,33.01 C 27.58,33.01 27.12,32.23 27.12,31.54 C 27.12,30.84 27.67,30.07 28.62,30.07 C 29.55,30.04 30.08,31.01 30.08,31.01 Z" fill="rgb(235, 133, 50)"/>
<path d="M 29.81,31.145 A 0.84,0.84 0 0,0 29.74,31.04 A 2.08,2.08 0 0,0 29.49,30.75 A 1.23,1.23 0 0,0 28.62,30.37 A 1.18,1.18 0 0,0 27.71,32.33 C 27.91,32.54 28.21,32.71 28.68,32.71 C 29.11,32.71 29.4,32.49 29.59,32.24 A 1.8,1.8 0 0,0 29.87,31.77 L 29.97,31.44 L 29.82,31.16 Z M 30.06,31.4 L 31.36,32.47 L 31.27,32.68 L 31,32.56 L 30.15,31.86 S 30.11,31.98 30.02,32.14 C 29.83,32.48 29.42,33.01 28.68,33.01 C 27.58,33.01 27.12,32.23 27.12,31.54 C 27.12,30.84 27.67,30.07 28.62,30.07 C 29.24,30.05 29.69,30.48 29.92,30.77 L 30.08,31.01 L 31,30.37 L 31.26,30.21 L 31.4,30.45 L 30.06,31.4 Z M 30.82,30.12 A 2.8,2.8 0 0,0 28.7,29 C 27.23,29 26,30.1 26,31.41 C 26,32.73 26.83,34 28.59,34 C 30.35,34 31,32.56 31,32.56 L 31.27,32.68 V 32.71 A 1.67,1.67 0 0,1 31.12,32.95 A 2.94,2.94 0 0,1 28.59,34.3 A 2.8,2.8 0 0,1 26.41,33.4 A 2.98,2.98 0 0,1 25.7,31.41 C 25.7,29.9 27.1,28.7 28.7,28.7 C 29.54,28.7 30.18,29.09 30.6,29.46 A 3.8,3.8 0 0,1 31.24,30.19 L 31.25,30.21 L 31,30.37 L 30.86,30.17 A 2.51,2.51 0 0,0 30.82,30.12 Z" fill="rgb(239, 242, 248)"/>
<path d="M 9.99,30.555 V 31.47 H 11.76 S 11.56,32.73 10,32.73 S 7.59,31.61 7.59,30.65 S 8.3,28.65 9.79,28.65 A 2.8,2.8 0 0,1 12.03,29.91 L 13.46,29 S 12.33,27.3 9.78,27.3 S 6,29.18 6,30.6 S 7.07,34 9.56,34 C 11.35,34 11.76,33.25 11.76,33.25 V 34 H 13 V 30.6 L 10,30.57 Z" fill="rgb(235, 133, 50)"/>
<path d="M 9.69,30.245 L 11.9,30.29 L 11.78,30.07 L 11.77,30.06 L 11.75,30.03 A 2.82,2.82 0 0,0 11.27,29.51 A 2.3,2.3 0 0,0 9.78,28.95 A 1.9,1.9 0 0,0 8.35,29.5 C 8.05,29.82 7.89,30.24 7.89,30.65 C 7.89,31.44 8.6,32.43 10,32.43 C 10.69,32.43 11.04,32.16 11.23,31.92 L 11.33,31.77 H 9.7 V 30.27 Z M 11.76,31.47 S 11.74,31.6 11.66,31.77 C 11.5,32.15 11.07,32.73 10,32.73 C 8.44,32.73 7.59,31.61 7.59,30.65 S 8.3,28.65 9.79,28.65 A 2.8,2.8 0 0,1 12.03,29.91 L 13.46,29 L 13.71,28.83 L 13.88,29.09 L 12,30.29 H 13.3 V 34.3 H 11.46 V 33.9 C 11.08,34.11 10.48,34.3 9.56,34.3 A 3.72,3.72 0 0,1 5.7,30.6 C 5.7,29 7.06,27 9.78,27 A 5.05,5.05 0 0,1 13.46,28.53 A 3.33,3.33 0 0,1 13.69,28.81 L 13.7,28.83 L 13.46,29 S 13.39,28.9 13.26,28.76 A 4.59,4.59 0 0,0 9.78,27.31 C 7.23,27.3 6,29.17 6,30.6 C 6,32.02 7.07,34 9.56,34 C 10.58,34 11.16,33.76 11.46,33.55 C 11.68,33.39 11.76,33.25 11.76,33.25 V 34 H 13 V 30.6 L 10,30.57 V 31.47 H 11.76 Z" fill="rgb(239, 242, 248)"/>
<path d="M 22.619999999999997,28.875 C 22.63,29.02 22.65,29.15 22.7,29.23 C 21.4,28.53 20.3,29.53 20.3,30.89 C 20.3,32.41 21.92,34 22.1,34 C 22.42,34 22.73,33.88 22.92,33.85 C 23.12,33.83 23.42,34 23.78,34 C 24.4,34 25.23,31.73 25.25,30.52 C 25.28,29.35 23.98,28.77 23,29.22 C 22.92,29.08 22.85,28.81 22.9,28.73 C 23.02,28.55 23.7,28.52 24.04,28.39 A 4.82,4.82 0 0,0 25.15,27.1 C 25.11,27.1 24.01,27.08 23.69,27.42 C 23.37,27.76 22.8,28.52 22.8,28.52 S 22.63,27.65 22.38,27.71 C 21.72,27.78 22.61,28.5 22.63,28.89 Z" fill="rgb(96, 171, 75)"/>
<path d="M 22.889999999999997,28.915 A 0.73,0.73 0 0,1 22.89,28.89 V 28.73 H 22.9 A 0.24,0.24 0 0,1 22.99,28.66 A 0.73,0.73 0 0,1 23.11,28.61 C 23.23,28.57 23.38,28.54 23.54,28.51 C 23.72,28.48 23.9,28.44 24.04,28.39 A 4.09,4.09 0 0,0 25.15,27.1 A 5.26,5.26 0 0,0 24.81,27.1 C 24.45,27.13 23.91,27.2 23.69,27.42 A 12.74,12.74 0 0,0 22.81,28.51 L 22.8,28.52 L 22.79,28.47 A 2.33,2.33 0 0,0 22.7,28.16 C 22.63,27.93 22.52,27.68 22.38,27.71 C 21.97,27.75 22.17,28.05 22.38,28.37 A 4.9,4.9 0 0,1 22.59,28.74 A 0.49,0.49 0 0,1 22.63,28.89 C 22.63,28.99 22.64,29.1 22.68,29.19 L 22.7,29.23 A 8.5,8.5 0 0,0 22.67,29.21 H 22.66 A 3.1,3.1 0 0,0 22.34,29.08 C 21.2,28.72 20.3,29.66 20.3,30.88 C 20.3,32.41 21.92,34 22.1,34 C 22.3,34 22.5,33.95 22.68,33.9 L 22.92,33.85 C 23.02,33.85 23.13,33.87 23.26,33.91 C 23.41,33.95 23.58,34.01 23.78,34.01 C 24.4,34.01 25.23,31.73 25.25,30.51 C 25.28,29.36 24.02,28.78 23.03,29.2 L 23,29.22 A 0.8,0.8 0 0,1 22.95,29.1 L 22.94,29.08 L 22.9,28.93 Z M 23.77,28.77 C 23.9,28.74 24.04,28.71 24.14,28.67 H 24.15 L 24.16,28.66 C 24.31,28.59 24.46,28.46 24.58,28.33 A 6.44,6.44 0 0,0 25.43,27.23 L 25.45,27.12 C 25.45,27.09 25.45,27.02 25.41,26.94 A 0.3,0.3 0 0,0 25.15,26.8 H 25.09 A 5.9,5.9 0 0,0 24.49,26.84 C 24.32,26.85 24.14,26.89 23.96,26.94 C 23.8,26.99 23.61,27.07 23.48,27.21 C 23.31,27.39 23.1,27.65 22.92,27.88 A 1.3,1.3 0 0,0 22.79,27.64 C 22.74,27.56 22.59,27.37 22.34,27.41 A 0.66,0.66 0 0,0 22.03,27.51 A 0.44,0.44 0 0,0 21.84,27.84 C 21.84,27.94 21.86,28.04 21.89,28.12 L 21.99,28.33 C 22.04,28.4 22.09,28.46 22.12,28.53 A 5.61,5.61 0 0,1 22.26,28.75 C 21.73,28.63 21.23,28.75 20.83,29.05 C 20.3,29.45 20,30.13 20,30.89 C 20,31.74 20.45,32.59 20.9,33.19 A 6.13,6.13 0 0,0 21.79,34.17 A 1,1 0 0,0 21.97,34.27 C 21.99,34.28 22.04,34.3 22.09,34.3 A 2.31,2.31 0 0,0 22.77,34.2 L 22.97,34.15 H 23.03 L 23.18,34.2 H 23.21 C 23.35,34.25 23.55,34.3 23.78,34.3 A 0.7,0.7 0 0,0 24.2,34.14 C 24.31,34.04 24.42,33.93 24.5,33.8 A 7.3,7.3 0 0,0 25.54,30.52 A 1.66,1.66 0 0,0 24.64,29 A 2,2 0 0,0 23.77,28.77 Z" fill="rgb(239, 242, 248)" fill-rule="evenodd"/>
</svg>
