<?xml version="1.0" encoding="UTF-8"?>
<!-- generated by Finnhub -->
<svg viewBox="0 0 55.5 55.5" xmlns="http://www.w3.org/2000/svg">
<path d="M 0,0 H 55.5 V 55.5 H 0 Z" fill="rgb(239, 242, 248)"/>
<path d="M 35.99,19.995 C 34.95,20.11 34.2,20.31 33.36,20.68 A 9.04,9.04 0 0,0 29.17,25 C 28.8,25.76 28.41,26.8 28.22,27.56 C 28.17,27.76 28.17,27.78 28.2,27.84 C 28.26,27.94 28.38,27.94 28.68,27.84 C 29.05,27.7 29.3,27.66 29.71,27.64 A 3.47,3.47 0 0,1 32.5,28.73 C 33.18,29.45 33.48,30.39 33.4,31.54 A 7.42,7.42 0 0,1 32.07,35.14 C 30.79,37.13 28.91,38.5 26.16,39.46 C 25.4,39.72 24.63,39.92 23.64,40.13 C 23.34,40.19 23.09,40.25 23.09,40.26 L 23.19,40.33 C 23.46,40.45 25.55,40.39 26.95,40.23 C 30.77,39.79 33.75,38.51 36.05,36.32 A 8.82,8.82 0 0,0 38.85,31.36 C 38.95,30.86 38.96,30.6 38.96,30.01 C 38.96,27.93 38.33,26.43 37.04,25.41 A 4.91,4.91 0 0,0 33.25,24.41 C 32.9,24.45 32.46,24.54 32.25,24.61 C 32.07,24.66 31.93,24.67 31.91,24.61 C 31.89,24.56 31.95,24.51 32.15,24.41 A 5.85,5.85 0 0,1 35.27,23.98 C 36.67,24.2 37.83,24.88 38.62,25.95 A 7.78,7.78 0 0,1 39.97,30.96 A 9.99,9.99 0 0,1 37.6,36.36 A 14.14,14.14 0 0,1 30.66,40.55 C 28.22,41.22 25.63,41.38 21.95,41.07 C 20.54,40.95 17.95,40.64 17.52,40.54 C 17.3,40.49 17.19,40.5 17.14,40.57 C 17.09,40.64 17.1,40.77 17.14,40.85 C 17.24,41 18.1,41.79 18.54,42.14 A 14.26,14.26 0 0,0 26.1,44.94 A 19.77,19.77 0 0,0 36.39,42.94 C 40.29,40.94 43,37.52 44.45,32.78 C 44.7,31.96 44.87,31.21 44.95,30.42 C 45.01,29.98 45.02,28.71 44.97,28.31 A 10.53,10.53 0 0,0 42.27,22.34 A 7.58,7.58 0 0,0 40.51,20.99 A 8.25,8.25 0 0,0 35.99,20.01 Z" fill="rgb(1, 95, 153)"/>
<path d="M 26.61,11.004999999999999 L 26.1,11.07 C 25.63,11.1 25.5,11.12 25.1,11.24 A 7.31,7.31 0 0,0 22.34,12.74 C 22.11,12.96 22.04,13 21.95,13 C 21.88,13 21.86,12.98 21.82,12.91 A 1.18,1.18 0 0,1 21.72,12.69 C 21.66,12.46 21.58,12.35 21.46,12.3 C 21.36,12.26 21.35,12.26 21.22,12.3 C 21,12.36 20.4,12.63 20.01,12.85 A 17.07,17.07 0 0,0 13.83,18.49 C 12.73,20.19 12.13,21.69 11.99,23.17 A 4.34,4.34 0 0,0 12.18,24.9 L 11.98,24.76 C 11.78,24.6 11.68,24.56 11.55,24.59 C 11.46,24.61 11.31,24.75 11.25,24.87 C 11.18,25.01 11.12,25.37 11.09,25.85 A 15.7,15.7 0 0,0 10.99,28.08 A 6.37,6.37 0 0,0 11.09,29.78 A 17.42,17.42 0 0,0 13.87,37.68 C 14.3,38.34 14.41,38.44 14.57,38.41 C 14.79,38.37 15.5,37.63 15.97,36.96 C 16.75,35.82 17.37,34.4 17.75,32.86 C 18.01,31.82 18.13,30.96 18.26,29.36 L 18.36,28.11 C 18.52,26.56 18.84,25.24 19.32,24.24 C 19.62,23.64 20.03,23.05 20.42,22.73 C 20.55,22.61 20.76,22.49 20.9,22.46 C 20.98,22.44 20.99,22.43 20.79,22.7 A 8.4,8.4 0 0,0 19.45,26.34 C 19.34,27.1 19.29,27.74 19.25,28.94 C 19.22,30.14 19.19,30.68 19.09,31.46 A 15.8,15.8 0 0,1 17.07,37.54 C 16.99,37.69 16.97,37.75 16.97,37.84 C 16.97,38.04 17.13,38.17 17.34,38.12 A 13.86,13.86 0 0,0 20.14,36.87 C 23.24,35.06 25.41,32.23 26.63,28.39 L 26.93,27.33 C 27.28,26.04 27.41,25.63 27.68,24.99 C 29.02,21.81 31.17,19.79 34.28,18.81 A 13,13 0 0,1 40.99,18.61 C 41.43,18.71 41.54,18.71 41.62,18.62 C 41.74,18.52 41.76,18.37 41.67,18.22 A 16.04,16.04 0 0,0 39.01,15.22 A 16.78,16.78 0 0,0 29.36,11.03 C 29.2,11 28.93,11 27.94,11 C 27.26,11 26.67,11.01 26.62,11.02 Z" fill="rgb(70, 136, 41)"/>
</svg>
