<?xml version="1.0" encoding="UTF-8"?>
<!-- generated by Finnhub -->
<svg viewBox="0 0 55.5 55.5" xmlns="http://www.w3.org/2000/svg">
<path d="M 0,0 H 55.5 V 55.5 H 0 Z" fill="rgb(239, 242, 248)"/>
<path d="M 16.99,21.355 C 15.82,21.5 15,21.57 15,23.84 V 34 H 14.68 L 7,23.41 V 30.95 C 7,32.94 7.63,33.58 9,33.63 V 34 H 4 V 33.63 C 5.42,33.53 6,33.03 6,30.95 V 22.43 C 5.23,21.46 4.75,21.37 4,21.37 V 21 H 7.2 L 14,30.3 V 23.84 C 14,21.62 13.27,21.46 12,21.37 V 21 H 17 V 21.37 Z" fill="rgb(1, 104, 64)"/>
<path d="M 15.99,33.685 C 17,33.5 17,33.53 17,32 V 27.47 C 17,26.31 16.68,26.29 16.4,26.29 C 16.17,26.29 15.95,26.33 15.73,26.37 V 26.07 C 16.61,25.74 17.81,25.37 18.68,25 L 19,25.05 V 32 C 19,33.3 19,33.5 20,33.7 V 34 H 16 V 33.7 Z M 17.98,22 A 1,1 0 0,1 19,23 C 19,23.57 18.57,24 17.98,24 C 17.28,24 17,23.37 17,23 S 17.3,22 17.98,22 Z M 27,31 C 26.02,33.18 24.85,34 23.38,34 C 21.93,34 20,32.76 20,29.73 C 20,26.59 22.1,25 24.05,25 C 24.7,25 25.52,25.29 25.97,25.6 C 26.51,26 26.75,26.59 26.75,26.93 C 26.75,27.37 26.45,27.73 25.91,27.78 C 25.44,27.81 25.14,27.32 25.03,26.9 L 24.92,26.47 C 24.77,25.9 24.68,25.56 23.72,25.56 C 23.06,25.56 21.5,26.19 21.5,29 C 21.5,31.2 22.53,32.5 24.05,32.5 C 25.35,32.5 26.13,31.8 26.75,30.82 L 27,30.99 Z" fill="rgb(1, 104, 64)"/>
<path d="M 31.389999999999997,24.985 A 4.3,4.3 0 0,0 27,29.44 A 4.37,4.37 0 0,0 31.47,34 C 34.57,34 36,31.34 36,29.44 C 36,26.67 34.08,25 31.4,25 Z M 31.76,33.46 C 29.31,33.46 29,29.92 29,28.5 C 29,26.5 29.96,25.54 31.25,25.54 C 33.12,25.54 34,27.63 34,30 C 34,32.74 32.8,33.46 31.76,33.46 Z M 36.03,33.72 C 37,33.5 37,33.45 37,32.4 V 23.32 C 37,22.47 37,22.1 36.57,22.1 C 36.35,22.1 36.2,22.12 36,22.14 V 21.84 C 36.89,21.59 37.78,21.32 38.67,21 L 39,21.04 V 32.4 C 39,33.5 39.08,33.72 40,33.72 V 34 H 36.03 V 33.72 Z M 46.72,30.67 C 46.32,31.37 45.56,32.5 44,32.5 C 42.84,32.5 41.43,31.89 41.22,28.5 H 46.67 C 46.47,26 45.23,25 43.57,25 C 42.17,25 40,26.17 40,29.71 C 40,32.43 41.33,34 43.28,34 C 45.81,34 46.82,31.4 47,30.8 L 46.72,30.67 Z M 41.26,28 C 41.54,26.32 42.23,25.69 43.19,25.69 C 44.58,25.69 44.75,27.09 44.88,28 H 41.26 Z M 51.55,26 H 50 V 31.35 C 50,31.93 50,33.03 50.6,33.03 C 51.21,33.03 51.55,32.62 51.76,32.38 L 52,32.58 C 51.55,33.38 50.67,34 49.8,34 C 48.84,34 48,33.5 48,31.63 V 26 H 47.07 C 47.04,25.98 47,25.92 47,25.87 C 47,25.64 47.41,25.53 47.83,25.12 C 48.73,24.22 49,23.99 49.87,22.99 C 50,22.99 50,23.09 50,23.23 V 25.49 H 51.55 V 25.99 Z" fill="rgb(1, 104, 64)"/>
</svg>
