<?xml version="1.0" encoding="UTF-8"?>
<!-- generated by Finnhub -->
<svg viewBox="0 0 55.5 55.5" xmlns="http://www.w3.org/2000/svg">
<path d="M 0,0 H 55.5 V 55.5 H 0 Z" fill="rgb(239, 242, 248)"/>
<path d="M 33.49,16.985 C 34.32,17 35.04,16.6 35.5,16 H 38 V 40 H 35.74 L 20,19.6 V 32.5 A 2.5,2.5 0 1,0 23,32.5 V 28.4 L 34.26,43 H 41 V 13 H 35.5 A 2.5,2.5 0 1,0 33.5,17 Z M 21.75,13 H 15 V 43 H 19.5 A 2.5,2.5 0 1,0 19.5,40 H 18 V 16 H 20.25 L 35,35.46 V 22.5 A 2.5,2.5 0 1,0 32,22.5 V 26.54 L 21.75,13 Z" fill="rgb(190, 43, 53)"/>
</svg>
