<?xml version="1.0" encoding="UTF-8"?>
<!-- generated by Finnhub -->
<svg viewBox="0 0 55.5 55.5" xmlns="http://www.w3.org/2000/svg">
<path d="M 0,0 H 55.5 V 55.5 H 0 Z" fill="rgb(17, 70, 110)"/>
<path d="M 20.99,26.985 H 20 V 32 H 21 V 27 Z M 40.997,25 H 39.997 V 32 H 40.997 V 25 Z" fill="rgb(254, 254, 253)"/>
<path d="M 51.99,26.985 H 51 V 32 H 52 V 27 Z" fill="rgb(167, 168, 171)"/>
<path d="M 20.99,24.985 H 20 V 26 H 21 V 25 Z M 4,32 V 25 H 5 L 9,30 V 25 H 10 V 32 H 9 L 5,26.996 V 32 H 4 Z M 36.661,27 C 35.779,26.984 34.833,27.264 34.471,27.405 L 34.858,28.288 C 34.913,28.219 35.395,28 36.31,28 C 37.34,28 38,28.703 38,29.19 C 37.942,29.115 37.079,28.946 36.114,28.946 C 34.907,28.946 33.947,29.543 34.002,30.551 C 34.058,31.56 34.979,32 35.915,32 C 36.665,32 37.785,31.593 38,31.39 V 32 H 39 V 28.947 C 39,28 38.524,27.595 38.32,27.491 C 38.135,27.334 37.544,27.018 36.661,27.001 Z M 13.661,27 C 12.779,26.984 11.833,27.264 11.471,27.405 L 11.858,28.288 C 11.913,28.219 12.395,28 13.31,28 C 14.34,28 15,28.703 15,29.19 C 14.942,29.115 14.079,28.946 13.114,28.946 C 11.907,28.946 10.947,29.543 11.002,30.551 C 11.058,31.56 11.979,32 12.915,32 C 13.665,32 14.785,31.593 15,31.39 V 32 H 16 V 28.947 C 16,28 15.524,27.595 15.32,27.491 C 15.135,27.334 14.544,27.018 13.661,27.001 Z" fill="rgb(254, 254, 253)"/>
<path d="M 37.61,30.243 V 29.979 C 36.36,29.562 35.662,29.894 35.557,30.156 C 35.438,30.456 35.439,31.046 36.398,31.013 C 37.358,30.979 37.62,30.571 37.62,30.258 Z M 14.38,30.258 V 29.979 C 13.122,29.562 12.422,29.894 12.318,30.156 C 12.198,30.456 12.2,31.046 13.159,31.013 C 14.119,30.979 14.381,30.571 14.381,30.258 Z" fill="rgb(17, 70, 110)"/>
<path d="M 16.99,26.985 V 26 H 18 V 27 H 19 V 28 H 18 V 30.402 C 17.996,30.985 18.639,30.799 19,30.633 V 31.712 C 18.66,31.928 18.169,31.993 17.965,31.999 C 16.919,31.999 17,31.158 17,30.653 V 28 H 16 V 27 H 17 Z" fill="rgb(254, 254, 253)"/>
<ellipse cx="24.501" cy="29.5" rx="2.501" ry="2.5" fill="rgb(254, 254, 253)"/>
<ellipse cx="24.498" cy="29.499" rx="1.5" ry="1.499" fill="rgb(17, 70, 110)"/>
<path d="M 27.99,31.985 V 27 H 29 V 27.806 C 29.454,27.131 30.849,26.988 31.218,27.001 C 32.435,27.001 33.003,28.097 33,28.649 V 32 H 32 V 29.437 C 32,28.649 31.524,28 30.656,28 C 29.826,28 29,28.423 29,29.126 V 32 H 28 Z" fill="rgb(254, 254, 253)"/>
<path d="M 41.99,31.985 V 27 H 43 L 45.5,29.067 L 48,27 H 49.003 V 32 H 48 V 28.5 L 45.5,30.5 L 43,28.5 V 32 H 42 Z M 42,24.5 V 25.996 H 43.005 C 43.111,25.608 44.491,24.483 47,24.502 C 49.51,24.521 50.89,25.624 51,25.996 H 52 V 24.5 L 47,23 L 42,24.5 Z" fill="rgb(167, 168, 171)"/>
</svg>
