<?xml version="1.0" encoding="UTF-8"?>
<!-- generated by Finnhub -->
<svg viewBox="0 0 55.5 55.5" xmlns="http://www.w3.org/2000/svg">
<path d="M 0,0 H 55.5 V 55.5 H 0 Z" fill="rgb(239, 242, 248)"/>
<path d="M 27.99,32.985 C 27.38,33 26.77,32.82 26.24,32.45 L 17.55,26.35 A 1.3,1.3 0 0,1 17.24,24.55 A 1.31,1.31 0 0,1 19.06,24.24 L 27.74,30.33 C 27.89,30.43 28.1,30.43 28.25,30.33 L 36.95,24.23 A 1.3,1.3 0 0,1 38.76,24.55 C 39.18,25.14 39.04,25.95 38.45,26.35 L 29.75,32.45 C 29.23,32.82 28.61,33 28,33 Z" fill="rgb(92, 218, 117)"/>
<path d="M 27.99,24.985 C 27.36,25 26.73,24.82 26.18,24.45 L 21.58,21.35 A 1.25,1.25 0 0,1 21.25,19.55 A 1.4,1.4 0 0,1 23.13,19.24 L 27.74,22.34 C 27.9,22.44 28.1,22.44 28.26,22.34 L 32.86,19.24 A 1.4,1.4 0 0,1 34.76,19.55 C 35.18,20.13 35.04,20.94 34.43,21.35 L 29.82,24.45 C 29.27,24.82 28.64,25 28,25 Z" fill="rgb(92, 218, 117)"/>
<path d="M 22.45,43.985 A 4.6,4.6 0 0,1 20.45,43.53 A 16.7,16.7 0 0,1 11,28.5 C 11.03,20.38 17.25,13.43 25.18,12.02 C 25.91,11.89 26.6,12.36 26.74,13.06 A 1.3,1.3 0 0,1 25.66,14.58 A 14.22,14.22 0 0,0 14,28.5 C 13.94,33.85 16.37,38.75 21.34,41.21 A 1.78,1.78 0 0,0 23.09,41.14 C 23.66,40.8 24,40.21 24,39.56 C 24,38.86 23.65,38.2 23.05,37.79 L 18.57,34.36 A 1.28,1.28 0 0,1 18.24,32.55 A 1.39,1.39 0 0,1 20.11,32.23 L 24.91,35.67 A 4.73,4.73 0 0,1 27,39.57 C 27,41.12 26.18,42.54 24.8,43.35 A 4.6,4.6 0 0,1 22.46,44 Z M 33.54,44 A 4.6,4.6 0 0,0 35.55,43.53 A 16.7,16.7 0 0,0 45,28.5 C 44.97,20.38 38.75,13.43 30.82,12.02 A 1.34,1.34 0 0,0 29.26,13.06 A 1.3,1.3 0 0,0 30.34,14.58 A 14.22,14.22 0 0,1 42,28.5 C 42.06,33.85 39.63,38.75 34.66,41.21 A 1.78,1.78 0 0,1 32.91,41.14 A 1.82,1.82 0 0,1 32,39.56 C 32,38.86 32.35,38.2 32.95,37.79 L 37.43,34.36 A 1.28,1.28 0 0,0 37.76,32.55 A 1.36,1.36 0 0,0 35.89,32.24 L 31.09,35.67 A 4.73,4.73 0 0,0 29,39.57 C 29,41.12 29.82,42.54 31.2,43.35 A 4.6,4.6 0 0,0 33.54,44 Z" fill="rgb(92, 218, 117)"/>
</svg>
