<?xml version="1.0" encoding="UTF-8"?>
<!-- generated by Finnhub -->
<svg viewBox="0 0 55.5 55.5" xmlns="http://www.w3.org/2000/svg">
<path d="M 0,0 H 55.5 V 55.5 H 0 Z" fill="rgb(239, 242, 248)"/>
<path d="M 11.99,26.985 A 16.07,16.07 0 0,1 27,12 V 19 A 9.11,9.11 0 0,0 19,27 H 12 Z" fill="rgb(237, 47, 46)"/>
<path d="M 43.99,26.985 A 16.07,16.07 0 0,0 29,12 V 19 A 9.11,9.11 0 0,1 37,27 H 44 Z" fill="rgb(121, 173, 220)"/>
<path d="M 11.99,28.985 A 16.07,16.07 0 0,0 27,44 V 37 A 9.11,9.11 0 0,1 19,29 H 12 Z" fill="rgb(243, 142, 149)"/>
<path d="M 43.99,28.985 A 16.07,16.07 0 0,1 29,44 V 37 A 9.11,9.11 0 0,0 37,29 H 44 Z" fill="rgb(17, 90, 166)"/>
</svg>
