<?xml version="1.0" encoding="UTF-8"?>
<!-- generated by Finnhub -->
<svg viewBox="0 0 55.5 55.5" xmlns="http://www.w3.org/2000/svg">
<path d="M 0,0 H 55.5 V 55.5 H 0 Z" fill="rgb(239, 242, 248)"/>
<path d="M 18.009999999999998,21.985 H 34.82 L 32.65,33.1 L 26.73,24 H 20.98 L 18.02,37 H 22.5 L 24.56,28.3 L 30.76,37 H 36.3 L 39.1,23.13 L 35.56,18 H 13.77 V 17.75 C 18.24,12.4 23.1,11 27.9,11 C 32.69,11 45,14.76 45,27.5 C 45,40.21 34.31,45 27.05,45 C 19.8,45 11,38.43 11,30.52 C 11,24.19 15.68,22.16 18.02,22 Z" fill="url(#e)"/>
<path d="M 28.389999999999997,10.995 C 25.99,11.27 23.65,12.13 22.2,14.12 C 21.42,15.18 21.27,16.48 21.54,18 H 35.56 L 39.1,23.13 L 37.4,31.68 C 40.14,30.75 43.33,27.7 43.36,20.21 C 40,13.56 32.32,11.21 28.41,11.01 Z M 23.02,22 C 23.38,22.71 23.79,23.29 24.23,24 H 26.74 L 32.66,33.1 L 34.82,22 H 23.02 Z" fill="url(#d)"/>
<path d="M 21.54,21.985 H 18.02 C 15.68,22.16 11,24.19 11,30.52 C 11,38.43 19.8,45 27.05,45 C 29.48,45 32.3,44.46 34.97,43.28 C 31.62,43.69 28.21,43.6 25.57,42.38 C 23.13,41.28 21.83,39.15 21.22,37 H 18.02 L 20.98,24 H 21.55 V 22 Z" fill="url(#c)"/>
<path d="M 18.22,24.985 H 20.76 L 19.22,31.74 L 16.73,31.61 L 18.23,25.01 Z" fill="url(#b)"/>
<path d="M 24.139999999999997,29.925 L 24.52,28.3 L 28.69,34.26 L 27.62,35.01 L 24.15,29.94 Z" fill="url(#a)"/>
<defs>
<linearGradient id="e" x1="18.89" x2="37.1" y1="14.31" y2="42.68" gradientUnits="userSpaceOnUse">
<stop stop-color="rgb(245, 137, 33)" offset="0"/>
<stop stop-color="rgb(249, 157, 37)" offset=".11"/>
<stop stop-color="rgb(249, 162, 36)" offset=".86"/>
<stop stop-color="rgb(243, 125, 32)" offset="1"/>
</linearGradient>
<linearGradient id="d" x1="41.63" x2="28.28" y1="15.2" y2="26.13" gradientUnits="userSpaceOnUse">
<stop stop-color="rgb(254, 208, 3)" offset="0"/>
<stop stop-color="rgb(251, 177, 31)" offset="1"/>
</linearGradient>
<linearGradient id="c" x1="23.81" x2="12.75" y1="30.74" y2="36.37" gradientUnits="userSpaceOnUse">
<stop stop-color="rgb(249, 154, 37)" offset="0"/>
<stop stop-color="rgb(240, 100, 35)" offset="1"/>
</linearGradient>
<linearGradient id="b" x1="18.93" x2="18.58" y1="24.91" y2="31.7" gradientUnits="userSpaceOnUse">
<stop stop-color="rgb(240, 103, 29)" offset="0"/>
<stop stop-color="rgb(240, 103, 29)" stop-opacity="0" offset="1"/>
</linearGradient>
<radialGradient id="a" cx="0" cy="0" r="1" gradientTransform="matrix(3.6488 6.3976 -4.2983 2.4515 24.65 29.35)" gradientUnits="userSpaceOnUse">
<stop stop-color="rgb(241, 106, 29)" offset="0"/>
<stop stop-color="rgb(241, 106, 29)" stop-opacity="0" offset="1"/>
</radialGradient>
</defs>
</svg>
