<?xml version="1.0" encoding="UTF-8"?>
<!-- generated by Finnhub -->
<svg viewBox="0 0 55.5 55.5" xmlns="http://www.w3.org/2000/svg">
<path d="M 0,0 H 55.5 V 55.5 H 0 Z" fill="rgb(239, 242, 248)"/>
<path d="M 45.63,23.985 H 10.62 L 8,16 C 8.87,17.19 11.96,19.56 17.31,19.56 S 26.8,17.19 28.2,16 A 16.07,16.07 0 0,0 37.9,19.56 C 42.41,19.56 46.51,17.49 48,16.46 L 45.64,24 Z" fill="rgb(246, 167, 12)"/>
<path d="M 19.24,33.265 L 25,39 V 31.3 L 18.74,25 H 11 V 39 H 18.3 V 33.28 H 19.25 Z" fill="rgb(19, 41, 148)"/>
<path d="M 24.99,25.185 H 32 V 39 H 25 Z" fill="rgb(180, 187, 229)"/>
<path d="M 19.02,24.985 H 11 V 39 H 18.66 V 33.54 H 19.03 L 24.55,39 H 32.5 V 35 H 38 V 39 H 46 V 25 H 38 V 29 H 32.5 V 25 H 24.55 V 30.64 L 19.03,25 Z M 25,25.54 V 31.08 C 25,31.41 24.7,31.57 24.48,31.34 L 18.81,25.54 H 11.53 V 38.46 H 18 V 33 H 19.25 L 24.77,38.46 H 32 V 34.5 H 38.5 V 38.45 H 45.47 V 25.54 H 38.5 V 29.52 H 32 V 25.54 H 25 Z" fill="rgb(4, 15, 66)" fill-rule="evenodd"/>
</svg>
