<?xml version="1.0" encoding="UTF-8"?>
<!-- generated by Finnhub -->
<svg viewBox="0 0 55.5 55.5" xmlns="http://www.w3.org/2000/svg">
<path d="M 0,0 H 55.5 V 55.5 H 0 Z" fill="rgb(237, 49, 39)"/>
<path d="M 36.99,28.985 A 8,8 0 0,1 22.85,34.116 C 23.94,34.251 25.494,34.123 27.705,33.452 C 30.962,32.462 33.722,30.076 35.324,27.953 A 6.833,6.833 0 0,0 35.237,27.474 C 33.398,29.338 30.549,31.296 27.694,32.005 C 23.059,33.158 21.688,31.789 21.32,31.17 L 21.276,31.085 A 8,8 0 1,1 37,29 Z" fill="rgb(254, 254, 253)"/>
<path d="M 34.991,36.985 A 9.985,9.985 0 0,0 39,29 A 9.985,9.985 0 0,0 35.001,21 H 42 V 26.962 L 45.066,21 H 51 L 42,37 H 35.001 Z M 22.999,21 A 9.985,9.985 0 0,0 19,29 A 9.985,9.985 0 0,0 22.999,37 H 16 L 12.875,31.038 V 37 H 7 V 21 H 12.925 L 16,26.962 V 21 H 22.999 Z" fill="rgb(254, 254, 253)"/>
</svg>
