<?xml version="1.0" encoding="UTF-8"?>
<!-- generated by Finnhub -->
<svg viewBox="0 0 55.5 55.5" xmlns="http://www.w3.org/2000/svg">
<path d="M 0,0 H 55.5 V 55.5 H 0 Z" fill="url(#a)"/>
<path d="M 11.99,29.985 C 12,31.79 12.29,33.5 12.83,35.11 L 15.7,34.21 A 13,13 0 1,1 40.3,34.24 L 43.17,35.1 A 16,16 0 1,0 12,30 Z M 9,39 C 12.13,37.32 20.32,33.97 27.98,34 C 35.64,34.03 43.85,37.35 47,39 C 43.6,38.16 35.04,36.5 27.98,36.5 C 20.56,36.5 12.38,38.13 9,39 Z" fill="rgb(254, 254, 253)"/>
<defs>
<linearGradient id="a" x1="49.4" x2="6.53" y1="9.95" y2="47.11" gradientUnits="userSpaceOnUse">
<stop stop-color="rgb(254, 203, 2)" offset="0"/>
<stop stop-color="rgb(254, 102, 48)" offset="1"/>
</linearGradient>
</defs>
</svg>
