<?xml version="1.0" encoding="UTF-8"?>
<!-- generated by Finnhub -->
<svg viewBox="0 0 55.5 55.5" xmlns="http://www.w3.org/2000/svg">
<path d="M 0,0 H 55.5 V 55.5 H 0 Z" fill="rgb(239, 242, 248)"/>
<path d="M 4.99,23.985 V 31 H 6.5 V 29 H 10.73 C 11.98,29 13,27.9 13,26.52 C 13,25.12 11.98,24 10.73,24 H 5 Z M 6.5,25.5 H 10.74 C 11.16,25.5 11.5,25.95 11.5,26.5 S 11.16,27.5 10.74,27.5 H 6.5 V 25.5 Z M 14.5,31 H 13 V 24 H 18.64 C 19.94,24 21,25.13 21,26.52 C 21,27.56 20.4,28.43 19.57,28.8 L 22.43,32 H 20.3 L 17.62,29 H 14.5 V 31 Z M 18.75,25.5 H 14.5 V 27.5 H 18.75 C 19.16,27.5 19.5,27.05 19.5,26.5 S 19.16,25.5 18.75,25.5 Z M 22,24 H 29 V 25.5 H 23.7 V 26.5 H 28 V 28 H 23.7 V 29.5 H 29 V 31 H 22 V 24 Z M 29.08,28.42 V 29.92 C 29.08,29.98 29.11,30.13 29.19,30.18 C 29.29,30.25 30.73,31 32.62,31 C 34.52,31 36.5,30.66 36.5,28.52 C 36.5,26.81 34.92,26.57 34.13,26.67 H 32.05 C 31.56,26.69 30.57,26.65 30.57,26.29 C 30.57,25.84 31.9,25.55 33.29,25.55 C 34.39,25.55 35.55,25.97 36,26.18 V 24.54 A 7.86,7.86 0 0,0 33,24 C 31.14,24 29,24.32 29,26.37 C 29,28.01 30.58,28.3 31.37,28.24 H 33.55 C 34.01,28.24 34.94,28.31 34.94,28.61 C 34.94,28.98 33.99,29.43 32.53,29.43 A 9.24,9.24 0 0,1 29.08,28.42 Z M 39,24 H 36.5 V 26 H 39 V 31 H 40.5 V 26 H 43 V 24 H 39 Z M 52,27.5 C 52,29.43 51.01,31 47.5,31 S 43,29.43 43,27.5 S 44.07,24 47.5,24 C 50.93,24 52,25.57 52,27.5 Z M 50.53,27.5 C 50.53,28.53 49.86,29.37 47.5,29.37 S 44.47,28.53 44.47,27.5 C 44.47,26.47 45.19,25.63 47.5,25.63 C 49.8,25.63 50.53,26.47 50.53,27.5 Z" fill-rule="evenodd"/>
</svg>
