<?xml version="1.0" encoding="UTF-8"?>
<!-- generated by Finnhub -->
<svg viewBox="0 0 55.5 55.5" xmlns="http://www.w3.org/2000/svg">
<path d="M 0,0 H 55.5 V 55.5 H 0 Z" fill="rgb(239, 242, 248)"/>
<path d="M 46.117000000000004,32.985 C 46.293,32.118 45.584,32 44.975,32 C 44.035,32 43.456,32.05 43.242,33.172 C 43.032,34.275 43.811,34.187 44.551,34.246 C 45.181,34.29 45.479,34.157 45.339,34.883 C 45.207,35.569 44.678,35.48 44.319,35.48 C 43.526,35.48 43.334,35.402 43.409,35.03 L 43.461,34.726 H 42.918 L 42.852,35.089 C 42.686,35.956 43.469,36 44.222,36 C 44.992,36 45.676,35.956 45.882,34.863 C 46.127,33.593 45.277,33.751 44.402,33.692 C 43.864,33.662 43.68,33.712 43.811,33.02 C 43.903,32.535 44.222,32.545 44.875,32.545 C 45.426,32.545 45.658,32.608 45.584,33 H 46.126 Z M 40.842,34.78 L 40.816,34.927 C 40.711,35.476 40.466,35.525 39.752,35.525 C 38.816,35.525 38.768,35.23 39,34 H 41.514 L 41.584,33.623 C 41.864,32.187 41.543,32 40.422,32 C 39.179,32 38.789,32.403 38.483,34.015 C 38.199,35.495 38.313,36 39.665,36 C 40.44,36 41.153,35.946 41.35,34.922 L 41.376,34.78 H 40.842 Z M 39.107,33.54 C 39.303,32.738 39.631,32.5 40.326,32.5 C 41.02,32.5 41.186,32.76 41.063,33.54 H 39.107 Z M 37.18,32 H 36.66 L 35.92,36 H 36.44 L 37.18,32 Z M 37.37,31 H 36.848 L 36.73,31.61 H 37.251 L 37.369,31 Z M 32.792,32 L 32.052,36 H 32.574 L 33.038,33.535 C 33.147,32.849 33.428,32.501 34.075,32.501 C 34.508,32.501 34.626,32.663 34.535,33.143 L 34.482,33.403 H 34.982 L 35.034,33.123 C 35.169,32.398 34.946,32 34.276,32 C 33.886,32 33.453,32.138 33.186,32.565 L 33.182,32.55 L 33.3,32 H 32.792 Z M 31.434,32 H 30.071 L 30.304,31.003 H 29.784 L 29.551,32 H 29.105 L 29.013,32.475 H 29.459 L 29.004,34.829 C 28.834,35.74 28.969,36 29.784,36 C 30.497,36 30.847,35.637 30.992,34.868 L 31.053,34.578 H 30.558 L 30.498,34.868 C 30.431,35.24 30.375,35.525 29.884,35.525 C 29.499,35.525 29.42,35.432 29.494,35.01 L 29.979,32.475 H 31.338 L 31.434,32 Z M 27.684,33 C 27.85,32.118 27.141,32 26.532,32 C 25.592,32 25.013,32.05 24.799,33.172 C 24.589,34.275 25.368,34.187 26.108,34.246 C 26.738,34.29 27.035,34.157 26.895,34.883 C 26.765,35.569 26.235,35.48 25.875,35.48 C 25.083,35.48 24.891,35.402 24.965,35.03 L 25.018,34.726 H 24.475 L 24.409,35.089 C 24.243,35.956 25.026,36 25.779,36 C 26.549,36 27.232,35.956 27.439,34.863 C 27.683,33.593 26.834,33.751 25.959,33.692 C 25.42,33.662 25.236,33.712 25.368,33.02 C 25.46,32.535 25.779,32.545 26.432,32.545 C 26.983,32.545 27.215,32.608 27.141,33 H 27.683 Z M 22.069,36 H 22.599 L 23.339,32 H 22.818 L 22.362,34.466 C 22.183,35.392 21.78,35.525 21.045,35.525 C 20.371,35.525 20.397,35.191 20.515,34.565 L 20.993,32 H 20.473 L 19.995,34.564 C 19.803,35.588 20.048,36 20.967,36 C 21.422,36 21.877,35.912 22.157,35.436 H 22.171 L 22.071,36 Z M 16.551,35.525 C 15.803,35.525 15.597,35.363 15.855,34.015 C 16.113,32.658 16.328,32.501 17.125,32.501 C 17.978,32.501 18.005,32.951 17.807,34.015 C 17.575,35.215 17.365,35.525 16.551,35.525 Z M 17.435,36 H 17.961 L 18.967,31 H 18.442 L 18.083,32.55 H 18.07 C 18.004,32.08 17.435,32 17.055,32 C 15.811,32 15.531,32.849 15.317,34.015 C 15.089,35.201 15.063,36 16.302,36 C 16.77,36 17.225,35.917 17.514,35.451 L 17.527,35.466 L 17.435,36 Z M 11.629,32 H 11.103 L 10.363,36 H 10.884 L 11.318,33.692 C 11.488,32.795 11.725,32.501 12.578,32.501 C 13.165,32.501 13.393,32.618 13.253,33.329 L 12.759,36 H 13.279 L 13.77,33.373 C 13.99,32.295 13.613,32 12.72,32 C 12.321,32 11.8,32.08 11.546,32.545 H 11.533 L 11.63,32 Z M 9.549,31 H 8.988 L 8,36 H 8.56 L 9.55,31 Z" fill="rgb(88, 88, 87)"/>
<path d="M 31.351,19.985 H 27.453 L 26.459,24.462 C 28.173,23.247 29.892,21.767 31.361,20 Z M 25.462,28.93 H 27.959 L 28.47,26.643 H 30.68 C 33.288,26.643 34.066,25.786 34.627,23.273 C 34.721,22.85 34.775,22.473 34.789,22.138 C 33.839,22.955 30.266,25.872 25.75,27.638 L 25.462,28.93 Z M 43.36,25.81 C 43.057,27.168 43.124,27.429 44.16,27.429 C 45.159,27.429 45.317,27.169 45.62,25.81 C 45.922,24.453 45.884,24.178 44.885,24.178 C 43.849,24.178 43.662,24.453 43.36,25.81 Z M 47.767,25.81 C 47.194,28.381 46.494,29 43.773,29 C 41.088,29 40.655,28.31 41.212,25.81 C 41.783,23.25 42.462,22.607 45.198,22.607 C 47.944,22.607 48.355,23.167 47.767,25.81 Z M 38.637,25.107 C 38.736,24.667 38.869,24.178 38.282,24.178 C 37.634,24.178 37.376,24.666 37.261,25.179 L 36.425,28.929 H 34.277 L 35.601,23 H 37.686 L 37.466,24 H 37.553 C 37.999,23.285 38.708,22.607 39.507,22.607 C 41.005,22.607 40.869,23.774 40.615,24.917 L 40.506,25.405 H 38.571 L 38.638,25.107 Z" fill="rgb(238, 17, 7)"/>
<path d="M 31.166999999999998,22.072 H 29.466 L 28.909,24.695 H 30.62 C 31.614,24.659 31.775,24.55 32.032,23.385 C 32.237,22.463 32.152,22.087 31.177,22.087 Z M 21.892,29 H 24.041 L 24.207,28.244 C 23.466,28.477 22.705,28.673 21.933,28.817 L 21.893,29 Z M 20.649,25.532 C 20.82,24.762 21.103,24.211 22.064,24.211 C 22.764,24.211 22.871,24.512 22.749,25.124 L 22.33,27.018 C 23.105,26.616 23.936,26.148 24.788,25.614 L 25.004,24.644 C 25.304,23.288 24.787,22.628 23.339,22.628 C 22.328,22.628 21.634,23.004 21.102,24 H 21.013 L 21.221,23 H 19.072 L 17.735,29 L 20.082,28.095 L 20.649,25.532 Z M 13.057,23.5 H 17.053 L 16.684,25.5 H 12.69 L 12.303,27 H 16.647 L 16.213,29 H 9.37 L 11.36,20 H 18.115 L 17.679,22 H 13.422 L 13.057,23.5 Z" fill="rgb(88, 88, 87)"/>
</svg>
