<?xml version="1.0" encoding="UTF-8"?>
<!-- generated by Finnhub -->
<svg viewBox="0 0 55.5 55.5" xmlns="http://www.w3.org/2000/svg">
<path d="M 0,0 H 55.5 V 55.5 H 0 Z" fill="url(#a)"/>
<path d="M 27.479999999999997,29.985 H 23 V 14 H 17.9 A 1.9,1.9 0 0,0 16.34,15.13 L 11.24,27.11 A 1.88,1.88 0 0,0 11.24,28.97 L 16.42,40.95 C 16.58,41.51 17.16,42 17.73,42 H 32.5 L 27.49,30 Z M 28.54,26 H 33 V 42 H 38.1 A 1.9,1.9 0 0,0 39.66,40.87 L 44.76,28.89 C 45.08,28.32 45.08,27.68 44.76,27.03 L 39.58,15.13 C 39.33,14.57 39,14 38.27,14 H 23.53 L 28.54,26 Z" fill="rgb(254, 254, 253)"/>
<defs>
<linearGradient id="a" x1="10.42" x2="68.15" y1="9.71" y2="76.02" gradientUnits="userSpaceOnUse">
<stop stop-color="rgb(25, 29, 31)" offset="0"/>
<stop stop-color="rgb(5, 5, 8)" offset="1"/>
</linearGradient>
</defs>
</svg>
