<?xml version="1.0" encoding="UTF-8"?>
<!-- generated by Finnhub -->
<svg viewBox="0 0 55.5 55.5" xmlns="http://www.w3.org/2000/svg">
<path d="M 0,0 H 55.5 V 55.5 H 0 Z" fill="rgb(239, 242, 248)"/>
<path d="M 4.99,24.985 H 4 V 32 H 5 V 26.5 L 9,32 H 10 V 25 H 9 V 30.5 L 5,25 Z M 41,25 H 40 V 32 H 41 V 26.5 L 45,32 H 46 V 25 H 45 V 30.5 L 41,25 Z" fill="rgb(3, 6, 5)"/>
<path d="M 51.99,24.985 H 47 V 26 H 49 V 32 H 50 V 26 H 52 V 25 Z"/>
<path d="M 15.99,24.985 H 11 V 32 H 16 V 31 H 12 V 29 H 15 V 28 H 12 V 26 H 16 V 25 Z M 24,25 H 27 C 28.14,25 29,26.03 29,27.1 S 28.14,29 27,29 H 25 V 32 H 24 V 25 Z M 25,28 H 27 C 27.5,28 28,27.62 28,27 C 28,26.37 27.5,26 27,26 H 25 V 28 Z M 38,25 H 39 V 32 H 38 Z" fill="rgb(3, 6, 5)"/>
<path d="M 33.49,30.985 A 2.5,2.5 0 1,0 33.5,26 A 2.5,2.5 0 0,0 33.5,31 Z M 33.5,32 A 3.5,3.5 0 1,0 33.5,25 A 3.5,3.5 0 0,0 33.5,32 Z" fill="rgb(3, 6, 5)" fill-rule="evenodd"/>
<path d="M 22.99,24.985 H 21.75 L 19.51,28.5 L 21.8,32 H 23 L 20.73,28.5 L 23,25 Z" fill="rgb(99, 95, 94)"/>
<path d="M 17.119999999999997,24.985 H 18.38 L 20.73,28.47 L 18.2,32 H 17 L 19.5,28.5 L 17.13,25 Z"/>
</svg>
