<?xml version="1.0" encoding="UTF-8"?>
<!-- generated by Finnhub -->
<svg viewBox="0 0 55.5 55.5" xmlns="http://www.w3.org/2000/svg">
<path d="M 0,0 H 55.5 V 55.5 H 0 Z" fill="rgb(239, 242, 248)"/>
<path d="M 4.73,27.615 V 28 H 6.98 V 27.63 C 6.3,27.63 6.01,26.88 6,26.5 V 23 H 6.25 L 9.51,30 V 24.3 C 9.51,22.85 10.25,21.57 11.01,21.4 V 21 C 9.27,21 8.69,23.76 8.61,25.15 H 8.44 L 7.09,22 H 4 V 22.28 H 4.95 S 5.35,22.3 5.57,22.45 V 26.5 A 1.2,1.2 0 0,1 4.74,27.63 Z M 11.75,28 C 12.72,28 13.5,27.1 13.5,26 S 12.72,24 11.75,24 S 10,24.9 10,26 S 10.78,28 11.75,28 Z M 11.75,24.4 C 11.34,24.4 11,24.66 11,24.97 V 27.03 C 11,27.34 11.34,27.6 11.75,27.6 S 12.5,27.34 12.5,27.03 V 24.97 C 12.5,24.66 12.16,24.4 11.75,24.4 Z M 13.52,22 V 22.25 H 13.75 C 13.89,22.25 14.01,22.37 14.01,22.51 V 27.47 C 14.01,27.61 13.89,27.73 13.75,27.73 H 13.52 V 28 H 15.52 C 16.84,28 17.5,27.35 17.5,25.93 C 17.5,24.5 17.09,24 16.41,24 C 15.87,24 15.21,24.2 15,24.57 V 22 H 13.52 Z M 15,25.15 C 15,24.87 15.34,24.65 15.75,24.65 S 16.5,24.87 16.5,25.15 V 27.27 C 16.5,27.55 16.16,27.78 15.75,27.78 S 15,27.55 15,27.28 V 25.15 Z M 19.35,28 H 17.52 V 27.77 H 17.71 C 17.85,27.77 18,27.65 18,27.5 V 22.55 C 18,22.4 17.85,22.29 17.7,22.29 H 17.52 V 22 H 19 V 27.5 C 19,27.65 19.13,27.77 19.28,27.77 H 19.35 V 28 Z M 23,26 H 21 C 21,27.18 21.17,27.46 21.7,27.46 C 22.12,27.46 22.62,26.88 22.64,26.76 H 23 C 22.81,27.29 22.44,28 21.53,28 C 20.61,28 20,26.99 20,26.1 C 20,25.56 20.04,24 21.53,24 C 22.7,24 23,25.45 23,26 Z M 22,25.58 H 21 V 24.86 C 21,24.58 21.22,24.36 21.5,24.36 S 22,24.58 22,24.86 V 25.58 Z M 24.42,28 H 27.06 V 27.6 H 26.83 C 26.68,27.6 26.5,27.48 26.5,27.33 V 25.22 H 27.1 C 27.38,25.39 27.9,26.05 27.97,27.32 C 27.98,27.48 27.86,27.6 27.71,27.6 H 27.62 V 28 H 29.91 V 27.6 H 29.49 C 29.54,27.04 29.39,25.75 28.45,25.05 C 28.77,24.88 29.4,24.33 29.4,23.55 C 29.4,22.58 28.93,22 27.85,22 H 23.75 V 22.23 H 24.72 C 24.87,22.23 25,22.35 25,22.5 V 27.33 C 25,27.48 24.87,27.6 24.72,27.6 H 24.42 V 28 Z M 26.5,24.9 V 22.78 C 26.5,22.5 26.84,22.28 27.25,22.28 S 28,22.5 28,22.78 V 24.11 C 28,24.54 27.49,24.89 26.86,24.89 H 26.5 Z M 31.75,28 C 32.72,28 33.5,27.1 33.5,26 S 32.72,24 31.75,24 S 30,24.9 30,26 S 30.78,28 31.75,28 Z M 31.75,24.4 C 31.34,24.4 31,24.66 31,24.97 V 27.03 C 31,27.34 31.34,27.6 31.75,27.6 C 32.16,27.6 32.5,27.34 32.5,27.03 V 24.97 C 32.5,24.66 32.16,24.4 31.75,24.4 Z M 34,24.3 H 33.75 V 24 H 35 V 24.29 C 35.27,24.13 35.6,24 36,24 C 36.47,24 36.72,24.15 36.85,24.37 C 37.14,24.17 37.52,24 37.98,24 C 39,24 39,24.72 39,25.23 V 27.48 C 39,27.63 39.12,27.75 39.26,27.75 H 39.41 V 28 H 37.7 V 27.75 H 37.77 C 37.92,27.75 38.01,27.63 38.01,27.48 V 25.27 C 37.99,25.05 37.96,24.67 37.34,24.67 A 0.7,0.7 0 0,0 36.99,24.77 C 37.01,24.92 37.01,25.07 37.01,25.2 V 27.48 C 37.01,27.63 37.16,27.75 37.31,27.75 H 37.46 V 28 H 35.68 V 27.75 H 35.75 C 35.89,27.75 36.01,27.63 36.01,27.48 V 25.3 C 36,25.09 35.88,24.67 35.53,24.67 C 35.37,24.67 35.18,24.74 35.01,24.85 V 27.46 C 35.01,27.62 35.06,27.75 35.21,27.75 H 35.34 V 28 H 33.47 V 27.75 H 33.75 C 33.9,27.75 34.01,27.62 34.01,27.46 V 24.3 Z M 43.34,24.01 H 41.66 C 41.11,24.01 40,24.38 40,25.8 S 40.27,28 41.35,28 C 41.53,28 41.92,27.95 42.13,27.69 V 28 H 43.34 V 27.75 H 43.29 A 0.3,0.3 0 0,1 43,27.45 V 24.53 A 0.3,0.3 0 0,1 43.3,24.24 H 43.34 V 24 Z M 41.5,24.63 C 41.22,24.63 41,24.88 41,25.19 V 27 C 41,27.3 41.22,27.55 41.5,27.55 S 42,27.3 42,27 V 25.18 C 42,24.87 41.78,24.62 41.5,24.62 Z M 43.77,27.73 V 28 H 45.3 V 27.72 H 45.28 A 0.29,0.29 0 0,1 45,27.44 V 25.02 C 45.1,24.85 45.35,24.62 45.61,24.62 C 45.92,24.62 46.01,24.94 46,25.1 V 28 L 47.15,30 H 47.35 C 47.15,29.26 47.02,28.4 47,28.07 V 25.26 C 47,25 47,24 46,24 C 45.42,24 45.13,24.23 45,24.44 V 24 H 43.77 V 24.26 H 44 V 27.44 C 44,27.6 43.95,27.72 43.8,27.72 H 43.77 Z M 49.3,28.01 H 49 V 26.67 H 49.3 C 49.3,27.78 50.93,28.11 50.93,27.4 C 50.93,27.07 50.53,26.86 50.09,26.62 C 49.57,26.33 49,26.02 49,25.47 C 49,24.46 49.87,24.01 50.5,24.01 C 51.02,24.01 51.57,24.16 51.78,24.23 V 25.04 H 51.5 C 51.5,24.34 50.06,23.88 50.06,24.65 C 50.06,25.01 50.47,25.23 50.92,25.47 C 51.44,25.75 52,26.05 52,26.63 C 52,27.69 51.11,28.01 50.39,28.01 C 49.81,28.01 49.57,27.87 49.52,27.81 L 49.3,28.01 Z M 47.6,25.13 A 2.3,2.3 0 0,0 48.67,23.23 C 48.67,22.97 48.53,22.45 48,22.45 C 47.34,22.45 47.3,22.98 47.3,23.23 C 47.3,23.55 47.47,23.69 47.63,23.82 C 47.77,23.93 47.91,24.05 47.91,24.29 C 47.91,24.7 47.71,25.02 47.61,25.13 Z M 24.25,29.76 A 0.75,0.75 0 1,1 22.75,29.76 A 0.75,0.75 0 0,1 24.25,29.76 Z M 18,30 V 36 H 19 V 34 H 20.03 C 21.12,34 22,33.03 22,32 V 31.86 C 22,30.83 21.12,30 20.03,30 H 18 Z M 19,31 H 19.93 C 20.75,31 21,31.45 21,32 C 21,32.55 20.75,33 19.93,33 H 19 V 31 Z M 25,32 V 33 H 26.61 L 24.45,36 H 28.33 V 35 H 26.48 L 28.49,32 H 25 Z M 24,32 V 36 H 23 V 32 H 24 Z M 29,33 V 32 H 32.53 L 30.53,35 H 32.37 V 36 H 28.49 L 30.65,33 H 29 Z M 36,35.48 C 35.68,35.8 35.26,36 34.8,36 C 33.8,36 33,35.1 33,34 S 33.8,32 34.8,32 C 35.26,32 35.68,32.2 36,32.52 V 32 H 37 V 36 H 36 V 35.48 Z M 36,34 A 1,1 0 1,1 34,34 A 1,1 0 0,1 36,34 Z" fill="rgb(219, 30, 44)" fill-rule="evenodd"/>
</svg>
