<?xml version="1.0" encoding="UTF-8"?>
<!-- generated by Finnhub -->
<svg viewBox="0 0 55.5 55.5" xmlns="http://www.w3.org/2000/svg">
<path d="M 0,0 H 55.5 V 55.5 H 0 Z" fill="rgb(96, 125, 180)"/>
<path d="M 19.29,10.985 C 19.23,11 16.45,16.97 29.3,21.76 C 42.17,26.54 39.61,30.48 28.16,33.47 L 32.24,36 S 42.77,35.21 43.94,27.69 C 45.27,19.19 23.34,18.67 19.3,11 Z" fill="rgb(253, 253, 252)"/>
<path d="M 35.7,44.985 C 35.78,45 38.45,39.03 26.11,34.24 C 13.76,29.46 16.21,25.52 27.21,22.53 C 23.78,20.31 26.21,21.87 23.29,20 C 23.29,20 13.18,20.79 12.06,28.31 C 10.78,36.81 31.83,37.33 35.71,45 Z" fill="rgb(253, 253, 252)"/>
</svg>
