<?xml version="1.0" encoding="UTF-8"?>
<!-- generated by Finnhub -->
<svg viewBox="0 0 55.5 55.5" xmlns="http://www.w3.org/2000/svg">
<path d="M 0,0 H 55.5 V 55.5 H 0 Z" fill="rgb(239, 242, 248)"/>
<path d="M 12.99,13.985 H 23 V 14.41 L 33,28.21 V 14 H 33.73 V 29.22 L 34.16,29.81 V 14 H 34.89 V 30.82 L 35.32,31.41 V 14 H 36.05 V 32.42 L 36.48,33.01 V 14 H 37.21 V 34.02 L 37.63,34.61 V 14 H 38.37 V 35.61 L 38.79,36.21 V 14 H 39.52 V 37.21 L 39.95,37.81 V 14 H 40.68 V 38.81 L 41.11,39.41 V 14 H 41.84 V 40.41 L 42.27,41 V 14 H 43 V 42 H 33 V 41.65 L 23,27.81 V 42 H 22.27 V 26.8 L 21.84,26.2 V 42 H 21.11 V 25.2 L 20.68,24.6 V 42 H 19.95 V 23.6 L 19.52,23 V 42 H 18.79 V 21.99 L 18.37,21.39 V 42 H 17.63 V 20.38 L 17.21,19.79 V 42 H 16.48 V 18.78 L 16.05,18.19 V 42 H 15.32 V 17.18 L 14.89,16.58 V 42 H 14.16 V 15.57 L 13.73,14.98 V 42 H 13 V 14 Z"/>
</svg>
