<?xml version="1.0" encoding="UTF-8"?>
<!-- generated by Finnhub -->
<svg viewBox="0 0 55.5 55.5" xmlns="http://www.w3.org/2000/svg">
<path d="M 0,0 H 55.5 V 55.5 H 0 Z" fill="rgb(239, 242, 248)"/>
<path d="M 42.330000000000005,27.985 A 6.9,6.9 0 0,0 46,21.87 C 46,18.07 43.01,15 39.32,15 A 6.63,6.63 0 0,0 33.74,18.1 A 6.63,6.63 0 0,0 28.14,15 A 6.64,6.64 0 0,0 22.41,18.35 A 6.64,6.64 0 0,0 16.68,15 A 6.77,6.77 0 0,0 10,21.87 C 10,24.55 11.49,26.87 13.66,28 A 6.9,6.9 0 0,0 10,34.13 C 10,37.93 12.99,41 16.68,41 A 6.64,6.64 0 0,0 22.41,37.65 C 23.58,39.65 25.71,41 28.15,41 C 30.49,41 32.55,39.76 33.74,37.9 A 6.63,6.63 0 0,0 39.32,41 A 6.77,6.77 0 0,0 46,34.13 C 46,31.45 44.51,29.13 42.34,28 Z M 15,34.05 V 21.85 C 15,20.83 15.85,20 16.9,20 C 17.45,20 17.96,20.22 18.32,20.61 L 26,28.87 V 21.95 C 26,20.87 26.9,20 28,20 S 30,20.87 30,21.95 V 34.32 A 1.7,1.7 0 0,1 28.27,36 C 27.79,36 27.34,35.8 27.01,35.46 L 19.01,27.08 V 34.05 C 19.01,35.13 18.11,36 17.01,36 C 15.9,36 15,35.13 15,34.05 Z" fill="url(#a)"/>
<defs>
<linearGradient id="a" x1="12.58" x2="43.75" y1="23.4" y2="23.4" gradientUnits="userSpaceOnUse">
<stop stop-color="rgb(239, 26, 27)" offset="0"/>
<stop stop-color="rgb(203, 28, 34)" offset="1"/>
</linearGradient>
</defs>
</svg>
