<?xml version="1.0" encoding="UTF-8"?>
<!-- generated by Finnhub -->
<svg viewBox="0 0 55.5 55.5" xmlns="http://www.w3.org/2000/svg">
<path d="M 0,0 H 55.5 V 55.5 H 0 Z" fill="rgb(239, 242, 248)"/>
<path d="M 48.95,35.655 C 49.03,35.76 49.01,35.89 48.92,35.96 A 0.2,0.2 0 0,1 48.79,36 H 45.77 A 0.2,0.2 0 0,1 45.59,35.9 L 44.04,33.86 A 0.26,0.26 0 0,1 44.04,33.56 L 45.57,31.24 A 0.18,0.18 0 0,1 45.87,31.24 L 48.96,35.67 Z M 45.55,27.73 L 44.08,25.5 A 0.21,0.21 0 0,1 44.08,25.26 L 45.62,23.09 A 0.2,0.2 0 0,1 45.79,23 H 48.79 C 48.91,23 48.99,23.1 48.99,23.21 C 48.99,23.26 48.99,23.3 48.96,23.33 L 45.88,27.73 A 0.2,0.2 0 0,1 45.55,27.73 Z" fill="rgb(1, 63, 91)"/>
<path d="M 44.71,29.615 L 44.7,29.66 L 43.22,31.83 L 40.45,35.9 L 40.43,35.93 A 0.24,0.24 0 0,1 40.28,36 H 37.27 A 0.24,0.24 0 0,1 37.03,35.76 C 37.03,35.71 37.04,35.66 37.07,35.62 L 41.27,29.63 L 41.35,29.51 L 41.26,29.39 L 37.04,23.32 V 23.3 A 0.2,0.2 0 0,1 37.08,23.04 A 0.18,0.18 0 0,1 37.18,23 H 40.33 A 0.2,0.2 0 0,1 40.45,23.08 L 43.24,27.16 L 44.71,29.33 L 44.73,29.36 C 44.78,29.44 44.78,29.56 44.72,29.63 Z M 27,28 H 28.18 C 30.41,28 32,27.26 32,25.22 C 32,23.42 30.55,22.5 28.07,22.5 C 27.74,22.5 27.3,22.56 27,22.58 V 28 Z M 26.79,36 H 24.22 A 0.22,0.22 0 0,1 24,35.79 V 20.47 C 24,20.37 24.09,20.29 24.19,20.27 C 25.48,20.1 26.77,20.01 28.07,20 C 32.36,20 34.77,21.85 34.77,25.16 C 34.77,27.46 33.35,29.11 31.45,29.8 L 35.45,35.66 A 0.2,0.2 0 0,1 35.41,35.96 A 0.23,0.23 0 0,1 35.28,36 H 32.18 A 0.22,0.22 0 0,1 32.01,35.91 L 28.45,30.62 A 0.23,0.23 0 0,0 28.27,30.54 H 27.22 C 27.1,30.54 27,30.64 27,30.75 V 35.79 C 27,35.9 26.9,35.99 26.79,36 Z" fill="rgb(254, 170, 59)"/>
<path d="M 17.99,30.955 V 20.24 C 18,20.1 18.12,20 18.25,20 H 20.75 C 20.88,20 21,20.1 21,20.24 V 35.74 C 21,35.88 20.89,35.99 20.75,35.99 H 18.4 A 0.26,0.26 0 0,1 18.2,35.89 L 10,25.07 V 35.75 C 10,35.89 9.9,36 9.76,36 H 7.26 A 0.25,0.25 0 0,1 7,35.76 V 20.24 C 7,20.1 7.12,20 7.26,20 H 9.76 C 9.86,20 9.93,20.04 9.98,20.1 L 18,30.98 Z" fill="rgb(1, 63, 91)"/>
</svg>
