<?xml version="1.0" encoding="UTF-8"?>
<!-- generated by Finnhub -->
<svg viewBox="0 0 55.5 55.5" xmlns="http://www.w3.org/2000/svg">
<path d="M 0,0 H 55.5 V 55.5 H 0 Z" fill="rgb(239, 242, 248)"/>
<path d="M 46.99,25.985 V 29 S 46,29.1 46,28.1 V 25 H 49.72 C 50.82,25 52,25.5 52,26.98 V 29.5 C 52,30.4 51.4,31 50.5,31 H 42.19 L 43,30 H 50 C 50.77,30 51,29.73 51,29.14 V 26.7 C 51,26.3 50.6,26 50.2,26 H 47 Z" fill="rgb(30, 60, 122)"/>
<path d="M 36.99,25.735 V 31 C 37.41,31 37.91,30.82 38,30.38 V 27 L 40.52,30.77 C 40.64,30.93 40.82,31 41,31 S 41.36,30.93 41.48,30.77 L 44,27 V 28.5 C 44,29.1 44.29,29.58 45.52,29.58 H 47 V 29.25 S 46.14,29.27 45.81,29.17 C 45.48,29.07 45,28.93 45,28.2 V 25.75 C 45,25.16 44.66,25 44.36,25 C 44.16,25 43.98,25.06 43.92,25.14 C 43.76,25.34 41,29.6 41,29.6 C 40.5,28.86 39.42,27.14 39.42,27.14 S 38.36,25.44 38.05,25.14 A 0.69,0.69 0 0,0 37.65,25 C 37.32,25 37,25.28 37,25.75 Z" fill="rgb(140, 197, 61)"/>
<path d="M 3.99,24.985 H 5 V 31 H 4 V 25 Z M 23,25 H 24 V 31 H 23 V 25 Z M 11,25 V 31 H 10 L 7,26.69 V 31 H 6 V 25 H 7 L 10,29.31 V 25 H 11 Z M 11.77,29 H 12.89 C 12.89,29.6 13.29,30 13.96,30 S 15.22,29.79 15.22,29.25 S 14.77,28.57 13.84,28.38 C 12.6,28.13 12,27.56 12,26.66 C 12,25.7 12.89,25 14.06,25 S 16,25.74 16,26.68 H 15 C 15,26.13 14.26,26 14.06,26 C 13.86,26 13,26.06 13,26.68 C 13,27.18 13.37,27.33 14.25,27.52 C 15.62,27.8 16.23,28.29 16.23,29.25 C 16.23,30.43 15.29,31 14.07,31 C 12.47,31 11.77,29.98 11.77,29 Z M 22,27 C 22,28.06 21.07,29 19.83,29 H 18 V 31 H 17 V 25 H 19.83 C 21.07,25 22,25.93 22,27 Z M 21,27 C 21,26.35 20.54,26 19.82,26 H 18 V 28 H 19.82 C 20.54,28 21,27.65 21,27 Z M 30,30.02 V 31 H 29.57 C 28.88,31 28.47,31 27.87,30.4 L 26.66,29 H 26 V 31 H 25 V 25 H 27.76 C 28.86,25 29.76,25.78 29.76,26.98 S 28.79,28.86 28,29 L 28.6,29.72 C 28.84,30 29.31,30.02 29.66,30.02 H 30 Z M 26,28 H 27.52 C 28.15,28 28.66,27.61 28.66,26.98 C 28.66,26.36 28.16,26 27.52,26 H 26 V 28 Z M 35,30 V 31 H 31 V 25 H 35 V 26 H 32 V 27.53 H 34.5 V 28.52 H 32 V 30 H 35 Z" fill="rgb(30, 60, 122)"/>
</svg>
