<?xml version="1.0" encoding="UTF-8"?>
<!-- generated by Finnhub -->
<svg viewBox="0 0 55.5 55.5" xmlns="http://www.w3.org/2000/svg">
<path d="M 0,0 H 55.5 V 55.5 H 0 Z" fill="rgb(239, 242, 248)"/>
<path d="M 5.99,20.985 H 8 V 31 H 6 Z M 40,24 H 42 V 31 H 40 Z M 40,22 H 42 V 23 H 40 Z M 32,20 H 34 V 20.47 H 32 Z M 32,21.11 H 34 V 21.45 H 32 Z M 32,23.2 H 34 V 23.37 H 32 Z M 36,20 H 38 V 20.17 H 36 Z" fill="rgb(157, 169, 176)"/>
<path d="M 35.99,21.724999999999998 H 38 V 21.99 H 36 Z" fill="rgb(210, 69, 28)"/>
<path d="M 35.99,24.215 H 38 V 24.48 H 36 Z" fill="rgb(157, 169, 176)"/>
<path d="M 35.99,20.585 H 38 V 21.44 H 36 Z" fill="rgb(210, 69, 28)"/>
<path d="M 35.99,22.425 H 38 V 22.91 H 36 Z M 36,23.21 H 38 V 23.68 H 36 Z M 36,25.31 H 38 V 25.85 H 36 Z M 36,26.21 H 38 V 26.88 H 36 Z M 36,27.89 H 38 V 28.37 H 36 Z M 32,27.06 H 34 V 27.23 H 32 Z M 36,27.41 H 38 V 27.58 H 36 Z M 36,29.02 H 38 V 29.19 H 36 Z M 36,30.83 H 38 V 31 H 36 Z" fill="rgb(157, 169, 176)"/>
<path d="M 35.99,29.634999999999998 H 38 V 30.37 H 36 Z" fill="rgb(210, 69, 28)"/>
<path d="M 31.99,29.175 H 34 V 29.42 H 32 Z M 32,23.67 H 34 V 24.14 H 32 Z" fill="rgb(157, 169, 176)"/>
<path d="M 31.99,24.465 H 34 V 25.48 H 32 Z" fill="rgb(210, 69, 28)"/>
<path d="M 31.99,25.765 H 34 V 26.25 H 32 Z M 32,27.58 H 34 V 28.2 H 32 Z M 32,30.37 H 34 V 31 H 32 V 30.37 Z M 32,21.74 H 34 V 22.39 H 32 Z M 12,24.17 A 3.1,3.1 0 0,1 14.5,23 C 16.14,23.06 16.98,24.13 17,25.9 V 31 H 15 V 25.9 C 15,25.4 14.78,24.56 13.77,24.55 C 12.51,24.53 12,26.1 12,26.46 V 31 H 10 V 23 H 12 V 24.17 Z M 21,24 V 22 L 19,22.6 V 24 H 17.64 V 25.5 H 19 V 28.75 C 18.98,30.66 20.66,30.98 21.4,31 C 22,31.01 22.47,30.9 22.63,30.84 V 29.47 C 21.29,29.91 21.01,29.17 21,28.75 V 25.5 H 22.63 V 24 H 21 Z M 24,26.5 A 3.5,3.5 0 1,1 31,26.5 V 27.5 H 26 C 25.98,28.16 26.28,29.47 27.75,29.49 C 28.08,29.5 28.81,29.35 29.15,28.64 H 30.81 A 3.5,3.5 0 0,1 24,27.5 V 26.5 Z M 27.54,24.5 C 26.43,24.5 26.05,25.7 26,26.28 H 29 C 28.98,25.68 28.61,24.5 27.54,24.5 Z" fill="rgb(157, 169, 176)"/>
<path d="M 43.99,23.615 A 5.16,5.16 0 0,1 46.72,23 C 48.46,23.05 49.9,23.61 50,25.9 V 31 H 48 V 29.9 C 47.8,30.25 47.3,31 45.8,31 C 43.93,31 43,29.74 43,28.55 C 43,27.41 43.84,26.06 46.52,26 H 48 C 48.07,25.45 47.97,24.46 46.52,24.44 C 45.08,24.42 44.26,25 44,25.3 V 23.63 Z M 48,27.3 C 48.06,27.96 47.65,29.5 46.3,29.5 C 45.89,29.5 45,29.4 45,28.54 C 45,27.53 46.04,27.3 46.53,27.3 H 47.99 Z" fill="rgb(157, 169, 176)" fill-rule="evenodd"/>
<path d="M 7.99,32.985 H 6 V 33.45 H 6.8 V 36 H 7.2 V 33.45 H 8 V 33 Z M 40,33 H 38 V 33.45 H 40 V 33 Z M 38.8,33.45 V 36 H 39.2 V 33.45 H 38.8 Z M 42,36 V 33 H 42.41 V 36 Z M 16,33 H 14 V 36 H 16 V 35.55 H 14.45 V 34.68 H 16 V 34.23 H 14.45 V 33.45 H 16 V 33 Z M 32,33 H 30 V 36 H 32 V 35.55 H 30.45 V 34.68 H 32 V 34.23 H 30.45 V 33.45 H 32 V 33 Z M 11.62,33 V 36 H 12 V 33 H 11.62 Z M 10,36 V 33 H 10.38 V 34.23 H 11.62 V 34.68 H 10.38 V 36 H 10 Z M 26.9,33 H 27.7 A 0.84,0.84 0 1,1 27.7,34.68 H 27 V 36 H 26.54 V 33 H 26.89 Z M 27,33.4 V 34.28 H 27.66 A 0.44,0.44 0 0,0 27.66,33.4 H 27 Z M 18.93,33 H 18 V 36 H 18.41 V 34.68 H 18.91 L 19.55,35.98 H 20 L 19.3,34.6 A 0.84,0.84 0 0,0 18.93,33 Z M 18.41,34.28 V 33.4 H 18.94 A 0.44,0.44 0 0,1 18.94,34.28 H 18.41 Z" fill="rgb(210, 69, 28)"/>
<path d="M 21.99,35.985 L 23.3,33 H 23.72 L 25,36 H 24.49 L 24.16,35.27 H 22.81 L 22.49,36 H 22 Z M 22.96,34.86 L 23.49,33.52 L 24.04,34.86 H 22.96 Z" fill="rgb(210, 69, 28)" fill-rule="evenodd"/>
<path d="M 34.36,32.985 H 33.92 V 34.78 A 1.22,1.22 0 0,0 36.36,34.78 V 33 H 35.92 V 34.87 A 0.77,0.77 0 1,1 34.37,34.87 V 33 Z M 46.32,35.82 C 46.1,35.94 45.84,36 45.57,36 C 44.69,36 43.98,35.33 43.98,34.5 S 44.69,33 45.57,33 C 45.84,33 46.1,33.06 46.32,33.18 V 33.67 C 46.12,33.5 45.86,33.39 45.57,33.39 C 44.94,33.39 44.44,33.89 44.44,34.49 C 44.44,35.11 44.94,35.61 45.57,35.61 C 45.86,35.61 46.12,35.51 46.32,35.33 V 35.83 Z M 48.62,33.17 C 48.82,33.05 49.05,33 49.23,33 C 49.5,33 49.8,33.11 49.93,33.18 L 49.73,33.53 A 1.24,1.24 0 0,0 49.23,33.4 A 0.77,0.77 0 0,0 48.83,33.5 A 0.36,0.36 0 0,0 48.66,33.83 C 48.66,33.93 48.72,34.02 48.9,34.12 L 49.19,34.25 L 49.21,34.26 L 49.51,34.4 C 49.58,34.44 49.71,34.5 49.8,34.62 C 49.9,34.75 49.97,34.92 49.97,35.15 C 49.97,35.45 49.82,35.67 49.62,35.8 C 49.42,35.94 49.19,36 48.97,36 A 1.7,1.7 0 0,1 48.2,35.8 L 48.43,35.47 L 48.45,35.48 A 1.3,1.3 0 0,0 48.97,35.6 A 0.7,0.7 0 0,0 49.39,35.47 A 0.38,0.38 0 0,0 49.57,35.15 A 0.42,0.42 0 0,0 49.49,34.88 A 0.54,0.54 0 0,0 49.31,34.75 L 49.05,34.63 H 49.03 A 3.4,3.4 0 0,1 48.7,34.47 C 48.5,34.35 48.26,34.16 48.26,33.83 C 48.26,33.52 48.42,33.3 48.62,33.17 Z" fill="rgb(210, 69, 28)"/>
</svg>
