<?xml version="1.0" encoding="UTF-8"?>
<!-- generated by Finnhub -->
<svg viewBox="0 0 55.5 55.5" xmlns="http://www.w3.org/2000/svg">
<path d="M 0,28 A 28,28 0 1,1 56,28 A 28,28 0 0,1 0,28 Z" fill="rgb(239, 242, 248)"/>
<ellipse cx="22" cy="21.5" rx="9" ry="9.5" fill="rgb(1, 155, 220)"/>
<ellipse cx="22" cy="34.5" rx="9" ry="9.5" fill="rgb(152, 201, 58)"/>
<ellipse cx="34" cy="34.5" rx="9" ry="9.5" fill="rgb(1, 155, 220)"/>
<ellipse cx="34" cy="21.5" rx="9" ry="9.5" fill="rgb(152, 201, 58)"/>
<path d="M 15.43,27.985 A 8.76,8.76 0 0,1 22,25 A 8.76,8.76 0 0,1 28.56,28 A 8.76,8.76 0 0,1 22,31 A 8.76,8.76 0 0,1 15.44,28 Z" fill="rgb(1, 93, 125)"/>
<path d="M 27.99,41.565 A 9.71,9.71 0 0,0 31,34.5 A 9.71,9.71 0 0,0 28,27.42 A 9.71,9.71 0 0,0 25,34.5 A 9.71,9.71 0 0,0 28,41.58 Z" fill="rgb(1, 93, 125)"/>
<path d="M 27.43,27.985 A 8.76,8.76 0 0,1 34,25 A 8.76,8.76 0 0,1 40.56,28 A 8.76,8.76 0 0,1 34,31 A 8.76,8.76 0 0,1 27.44,28 Z" fill="rgb(1, 93, 125)"/>
<path d="M 27.99,28.564999999999998 A 9.71,9.71 0 0,0 31,21.5 A 9.71,9.71 0 0,0 28,14.42 A 9.71,9.71 0 0,0 25,21.5 A 9.71,9.71 0 0,0 28,28.58 Z" fill="rgb(1, 93, 125)"/>
<path d="M 29.99,29.985 S 28.86,29.38 27.75,28.28 S 26,26 26,26 S 27.24,26.58 28.35,27.68 A 8.5,8.5 0 0,1 30,30 Z" fill="rgb(254, 254, 253)"/>
<path d="M 25.99,29.985 S 27.14,29.38 28.25,28.28 S 30,26 30,26 S 28.76,26.58 27.65,27.68 A 8.5,8.5 0 0,0 26,30 Z" fill="rgb(254, 254, 253)"/>
</svg>
