<?xml version="1.0" encoding="UTF-8"?>
<!-- generated by Finnhub -->
<svg viewBox="0 0 55.5 55.5" xmlns="http://www.w3.org/2000/svg">
<path d="M 0,0 H 55.5 V 55.5 H 0 Z" fill="rgb(239, 242, 248)"/>
<path d="M 39.86,16.085 A 0.81,0.81 0 1,1 41.5,16.1 A 0.81,0.81 0 0,1 39.87,16.1 Z" fill="rgb(185, 185, 184)"/>
<path d="M 38.28,15.965 C 38.04,15.98 37.82,16.18 37.82,16.46 C 37.82,16.74 38.04,16.94 38.29,16.94 C 38.53,16.94 38.76,16.74 38.76,16.46 A 0.48,0.48 0 0,0 38.29,15.98 Z M 38.29,15.41 A 1.06,1.06 0 1,0 38.29,17.52 A 1.06,1.06 0 0,0 38.29,15.41 Z M 22.56,41.84 C 22.31,41.84 22.09,42.04 22.09,42.32 C 22.09,42.6 22.31,42.8 22.56,42.8 C 22.8,42.8 23.03,42.6 23.03,42.32 A 0.48,0.48 0 0,0 22.56,41.84 Z M 22.56,41.26 A 1.06,1.06 0 1,0 22.56,43.38 A 1.06,1.06 0 0,0 22.56,41.26 Z M 31.32,16.76 C 30.7,16.76 30.18,17.26 30.18,17.91 C 30.18,18.56 30.7,19.06 31.32,19.06 C 31.94,19.06 32.46,18.56 32.46,17.91 C 32.46,17.26 31.94,16.76 31.32,16.76 Z M 31.32,16.19 A 1.73,1.73 0 1,0 31.32,19.64 A 1.73,1.73 0 0,0 31.32,16.19 Z M 19.59,34.18 C 18.97,34.18 18.45,34.68 18.45,35.33 C 18.45,35.98 18.97,36.48 19.59,36.48 C 20.21,36.48 20.73,35.98 20.73,35.33 C 20.73,34.68 20.21,34.18 19.59,34.18 Z M 19.59,33.61 A 1.73,1.73 0 1,0 19.59,37.06 A 1.73,1.73 0 0,0 19.59,33.61 Z M 19.8,28.58 A 1.61,1.61 0 1,0 19.8,31.82 C 20.68,31.82 21.41,31.1 21.41,30.19 C 21.41,29.29 20.68,28.58 19.81,28.58 Z M 19.8,28 A 2.2,2.2 0 1,0 19.8,32.4 A 2.2,2.2 0 0,0 19.8,28 Z M 23,22.54 A 2.45,2.45 0 0,0 20.56,25 C 20.56,26.37 21.66,27.46 23,27.46 A 2.45,2.45 0 0,0 25.44,25 C 25.44,23.63 24.34,22.54 23,22.54 Z M 23,22 A 3,3 0 1,0 23,28 A 3,3 0 0,0 23,22 Z M 26.8,18.47 C 25.92,18.47 25.19,19.19 25.19,20.1 C 25.19,21 25.92,21.72 26.8,21.72 C 27.68,21.72 28.41,21.01 28.41,20.1 C 28.41,19.19 27.68,18.47 26.8,18.47 Z M 26.8,17.9 A 2.2,2.2 0 1,0 26.8,22.3 A 2.2,2.2 0 0,0 26.8,17.9 Z" fill="rgb(185, 185, 184)" fill-rule="evenodd"/>
<path d="M 23.139999999999997,44.175 A 0.81,0.81 0 1,1 24.78,44.19 A 0.81,0.81 0 0,1 23.15,44.19 Z" fill="rgb(185, 185, 184)"/>
<path d="M 32.02,12.575 A 0.8,0.8 0 0,0 32.85,11.79 A 0.8,0.8 0 0,0 32.03,11 A 0.8,0.8 0 0,0 31.22,11.8 C 31.22,12.23 31.58,12.59 32.03,12.59 Z M 33.44,14.65 C 34.03,14.65 34.5,14.19 34.5,13.62 C 34.5,13.05 34.03,12.59 33.44,12.59 C 32.86,12.59 32.38,13.05 32.38,13.62 C 32.38,14.19 32.86,14.65 33.44,14.65 Z M 18.77,38.87 C 18.77,39.43 18.3,39.9 17.71,39.9 C 17.13,39.9 16.66,39.43 16.66,38.87 C 16.66,38.3 17.13,37.83 17.71,37.83 C 18.3,37.83 18.77,38.3 18.77,38.87 Z M 16.13,39.22 A 0.8,0.8 0 0,1 15.31,40.02 A 0.8,0.8 0 0,1 14.5,39.22 C 14.5,38.78 14.86,38.42 15.31,38.42 A 0.8,0.8 0 0,1 16.13,39.22 Z M 36.4,16.71 C 36.4,17.49 35.75,18.12 34.95,18.12 C 34.15,18.12 33.49,17.49 33.49,16.71 C 33.49,15.93 34.14,15.29 34.95,15.29 C 35.75,15.29 36.4,15.93 36.4,16.71 Z M 21.06,40 C 21.86,40 22.51,39.37 22.51,38.59 C 22.51,37.81 21.86,37.17 21.06,37.17 C 20.26,37.17 19.6,37.81 19.6,38.59 C 19.6,39.37 20.25,40 21.06,40 Z M 26.41,37.44 A 1.7,1.7 0 0,1 24.68,39.12 A 1.7,1.7 0 0,1 22.95,37.44 C 22.95,36.51 23.73,35.75 24.68,35.75 C 25.64,35.75 26.41,36.51 26.41,37.44 Z M 36.41,22.11 A 1.7,1.7 0 0,0 38.14,20.43 A 1.7,1.7 0 0,0 36.41,18.75 A 1.7,1.7 0 0,0 34.68,20.43 C 34.68,21.36 35.46,22.11 36.41,22.11 Z M 38.14,25.45 C 38.14,26.63 37.16,27.59 35.94,27.59 C 34.73,27.59 33.74,26.63 33.74,25.45 C 33.74,24.26 34.73,23.31 35.94,23.31 C 37.16,23.31 38.14,24.26 38.14,25.45 Z M 33,34 A 3,3 0 1,0 33,28 A 3,3 0 0,0 33,34 Z M 30.95,35.3 C 30.95,36.5 29.96,37.45 28.75,37.45 C 27.54,37.45 26.55,36.49 26.55,35.31 C 26.55,34.13 27.54,33.17 28.75,33.17 C 29.96,33.17 30.95,34.13 30.95,35.31 Z" fill="rgb(73, 174, 231)"/>
</svg>
