<?xml version="1.0" encoding="UTF-8"?>
<!-- generated by Finnhub -->
<svg viewBox="0 0 55.5 55.5" xmlns="http://www.w3.org/2000/svg">
<path d="M 0,0 H 55.5 V 55.5 H 0 Z" fill="rgb(239, 242, 248)"/>
<path d="M 14.290000000000001,12.934999999999999 A 4.06,4.06 0 0,1 19.83,13.24 L 42,37.5 A 3.6,3.6 0 0,1 41.7,42.75 A 4.06,4.06 0 0,1 36.17,42.46 L 14,18.2 A 3.6,3.6 0 0,1 14.3,12.95 Z" fill="rgb(241, 198, 67)"/>
<path d="M 34.99,11.985 H 43 V 22 H 35 Z M 13,44 H 21 V 34 H 13 Z" fill="rgb(4, 5, 8)"/>
<path d="M 34.99,21.985 H 43 V 39.88 C 43,42.15 41.2,44 39,44 S 35,42.15 35,39.87 V 22 Z M 13,34 H 21 V 16.12 C 21,13.85 19.2,12 17,12 S 13,13 13,16.13 V 34 Z" fill="rgb(62, 198, 239)"/>
</svg>
