<?xml version="1.0" encoding="UTF-8"?>
<!-- generated by Finnhub -->
<svg viewBox="0 0 55.5 55.5" xmlns="http://www.w3.org/2000/svg">
<path d="M 0,0 H 55.5 V 55.5 H 0 Z" fill="rgb(1, 26, 88)"/>
<path d="M 8.66,20.435 L 9,20 H 7.04 L 7.42,20.45 V 26.51 L 7,27 H 8.53 L 8,26.5 V 21.26 L 12.32,26.51 L 11.94,27 H 13.41 L 13,26.5 V 20.45 L 13.4,20 H 11.94 L 12.32,20.45 V 25.22 L 8.67,20.45 Z M 14.53,21.02 L 15,21.58 V 26.41 L 14.53,27 H 18.87 L 19.23,27.4 V 25.63 L 18.87,26.3 H 15.7 V 24.02 H 17.55 L 17.99,24.5 V 22.88 L 17.55,23.3 H 15.7 V 21.7 H 18.87 L 19.23,22.01 V 20.4 L 18.71,21.03 H 14.53 Z M 19.38,21 H 21.15 L 20.69,21.56 L 22.03,25.38 L 23.13,21.56 L 22.67,21 H 24.57 L 24.11,21.56 L 25.37,25.38 L 26.63,21.56 L 26.17,21 H 27.92 L 27.36,21.56 L 25.84,26.29 L 26.17,27 H 24.57 L 24.89,26.29 L 23.56,22.5 L 22.29,26.29 L 22.67,27 H 20.95 L 21.35,26.29 L 19.92,21.56 L 19.38,21 Z M 28,21 L 28.3,21.47 V 26.53 L 28,27 H 31.64 C 32.09,26.98 33,26.65 33,25.43 C 33,24.23 32.49,23.88 32.23,23.86 C 32.4,23.76 32.73,23.37 32.73,22.53 C 32.73,21.47 32.05,21 31.31,21 H 28 Z M 29,21.7 H 31.26 C 31.68,21.7 32.03,22.1 32.03,22.62 C 32.03,23.13 31.68,23.55 31.26,23.55 H 29 V 21.7 Z M 29,24.36 H 31.46 C 31.92,24.36 32.29,24.78 32.29,25.29 C 32.29,25.81 31.92,26.3 31.46,26.3 H 29 V 24.36 Z M 33.66,21 L 34,21.4 V 25.18 C 34,26.18 34.7,27 35.58,27 H 37.12 C 37.99,27 38.7,26.18 38.7,25.18 V 21.39 L 39.03,21 H 37.64 L 38,21.4 V 25.04 C 38,25.88 37.4,26.32 36.67,26.32 H 36 C 35.28,26.32 34.69,25.88 34.69,25.04 V 21.4 L 35.03,21.01 H 33.65 Z M 40,21.48 L 39.6,21 H 43.33 C 44.08,21 44.69,21.74 44.69,22.66 C 44.69,23.58 44.09,24.32 43.33,24.32 H 43.3 L 44.35,26.32 L 45.02,27 H 43.36 L 43.59,26.44 L 42.49,24.32 H 40.7 V 26.44 L 41.14,27 H 39.6 L 40,26.44 V 21.48 Z M 40.7,21.7 V 23.66 H 43.15 C 43.62,23.66 44,23.22 44,22.68 S 43.62,21.7 43.15,21.7 H 40.7 Z M 44.63,21 L 45.15,21.46 C 45.75,22.39 47,24.26 47,24.26 V 26.52 L 46.56,27 H 48.12 L 47.7,26.52 V 24.25 L 49.53,21.45 L 50,21 H 48.32 L 48.66,21.54 L 47.37,23.4 L 46,21.46 L 46.34,21 H 44.64 Z M 12,35.27 L 12.92,33.64 L 13.12,34.32 C 13.35,34.56 14.12,35.04 15.4,35.04 C 17,35.04 17.48,34.34 17.48,33.79 C 17.48,33.25 17.32,32.89 15.74,32.89 S 12.47,32.84 12.47,31.03 C 12.47,29.21 14.81,29 15.47,29 C 16.15,29 16.95,29.12 17.86,29.65 L 18.3,29.61 V 29.55 L 18.7,30 H 22.8 L 23.2,29.55 V 31.2 L 22.8,30.7 H 21 V 35.53 L 21.43,36 H 19.9 L 20.31,35.53 V 30.7 H 18.71 L 18.31,31.2 V 29.68 L 17.54,31.03 L 17.36,30.37 C 17.2,30.2 16.58,29.87 15.41,29.87 C 13.95,29.87 13.35,30.33 13.35,31.03 S 14.8,31.88 15.75,31.93 C 16.7,31.97 18.45,32.23 18.45,33.79 C 18.45,35.36 16.69,36 15.41,36 C 14.38,36 13.22,35.42 12.77,35.12 L 12.01,35.27 Z M 29.53,30 L 30,30.64 V 35.42 L 29.53,36 H 33.88 L 34.24,36.5 V 34.66 L 33.88,35.3 H 30.7 V 33 H 32.53 L 32.97,33.55 V 31.76 L 32.53,32.3 H 30.7 V 30.7 H 33.88 L 34.24,31.07 V 29.47 L 33.72,30 H 29.53 Z M 24,30.48 L 23.56,30 H 27.29 C 28.04,30 28.65,30.74 28.65,31.66 C 28.65,32.58 28.04,33.32 27.29,33.32 H 27.26 L 28.31,35.32 L 28.97,36 H 27.31 L 27.54,35.44 L 26.44,33.32 H 24.7 V 35.44 L 25.1,36 H 23.56 L 24,35.44 V 30.48 Z M 24.7,30.62 V 32.58 H 27.05 C 27.51,32.58 27.88,32.14 27.88,31.6 C 27.88,31.05 27.51,30.62 27.05,30.62 H 24.7 Z M 39.52,31.16 V 29.5 L 39.95,30 H 44.57 L 45.01,29.5 V 31.16 L 44.57,30.7 H 42.7 V 35.53 L 43.2,36 H 41.5 L 42,35.53 V 30.7 H 39.95 L 39.52,31.16 Z M 35,30.64 L 34.53,30 H 38.73 L 39.24,29.47 V 31.07 L 38.88,30.7 H 35.7 V 32.3 H 37.53 L 37.97,31.76 V 33.56 L 37.53,33 H 35.7 V 35.3 H 38.88 L 39.24,34.66 V 36.5 L 38.88,36 H 34.53 L 35,35.42 V 30.64 Z" fill="rgb(242, 251, 253)"/>
</svg>
