<?xml version="1.0" encoding="UTF-8"?>
<!-- generated by Finnhub -->
<svg viewBox="0 0 55.5 55.5" xmlns="http://www.w3.org/2000/svg">
<path d="M 0,0 H 55.5 V 55.5 H 0 Z" fill="rgb(239, 242, 248)"/>
<path d="M 25.04,12.985 H 25.13 C 25.53,13.2 25.87,13.5 26.13,13.88 C 26.19,13.97 26.27,14 26.37,13.98 A 4.52,4.52 0 0,1 28.87,14.2 C 28.99,14.25 29.1,14.24 29.21,14.16 C 29.51,13.96 29.85,13.87 30.23,13.9 C 30.35,13.91 30.43,13.86 30.46,13.73 C 30.52,13.48 30.68,13.33 30.96,13.31 C 31.04,13.3 31.13,13.31 31.2,13.37 L 32.28,14.04 C 32.38,14.11 32.5,14.12 32.62,14.06 L 33.68,13.56 A 0.35,0.35 0 0,1 34.03,13.56 L 35.66,14.48 C 35.76,14.54 35.86,14.55 35.97,14.52 C 36.33,14.42 36.59,14.49 36.78,14.73 A 3.35,3.35 0 0,0 40.1,16.15 C 40.2,16.14 40.3,16.15 40.4,16.21 C 40.62,16.34 40.84,16.36 41.08,16.28 C 41.18,16.24 41.27,16.25 41.35,16.29 C 41.89,16.57 42.18,17.02 42.2,17.64 C 42.21,17.77 42.28,17.84 42.4,17.84 C 42.84,17.89 43.1,18.13 43.17,18.54 C 43.19,18.67 43.27,18.74 43.39,18.76 C 44.15,18.85 44.84,19.11 45.47,19.53 C 45.57,19.59 45.67,19.63 45.78,19.65 L 46.18,19.73 C 46.32,19.76 46.38,19.84 46.36,19.99 C 46.32,20.32 46.21,20.62 46.04,20.89 C 45.96,21.03 45.98,21.14 46.11,21.23 L 46.93,21.8 C 47.01,21.85 47.03,21.92 46.97,22 L 46.07,23.56 C 45.97,23.71 46.01,23.83 46.17,23.9 L 47.77,24.7 A 0.43,0.43 0 0,1 47.98,25.22 C 47.82,25.74 46.9,26.13 46.22,26.4 C 46.12,26.44 46.01,26.45 45.9,26.42 C 45.48,26.32 45.15,26.44 44.9,26.79 A 0.31,0.31 0 0,1 44.63,26.93 L 41.18,26.84 A 0.4,0.4 0 0,0 40.93,26.92 L 40.11,27.51 C 40.01,27.58 39.9,27.61 39.77,27.59 C 39.37,27.53 39.02,27.6 38.69,27.81 C 38.59,27.88 38.47,27.91 38.35,27.91 H 37.52 A 0.28,0.28 0 0,0 37.25,28.09 C 36.88,28.85 34.87,29.01 34.29,29.04 C 34.19,29.04 34.09,29.08 34.01,29.14 C 33.21,29.78 31.31,30.32 30.31,30.44 A 0.47,0.47 0 0,0 30.01,30.58 L 29.36,31.28 A 0.68,0.68 0 0,0 29.2,31.53 C 29.01,32.11 28.69,32.6 28.24,33 C 28.16,33.07 28,33.17 28,33.28 V 38.7 C 28,38.8 28.27,39.04 28.32,39.11 C 28.87,39.84 29.3,39.24 29.86,39.26 C 30.36,39.28 30.82,39.42 31.25,39.7 A 0.6,0.6 0 0,0 31.55,39.8 C 34.4,39.98 37.34,40.14 40.15,40.72 C 40.27,40.74 40.28,40.8 40.2,40.89 L 40.12,40.97 A 0.1,0.1 0 0,1 40.05,41 H 17.15 C 16.55,41 15.95,40.96 15.35,40.88 C 15.23,40.87 15.17,40.8 15.19,40.68 C 15.26,40.05 24.32,39.77 25.29,39.76 C 25.42,39.76 25.49,39.69 25.49,39.56 C 25.56,38.26 25.57,36.96 25.52,35.67 C 25.49,35.08 25.64,33.97 25.36,33.18 C 24.96,32.05 24.78,31.12 24.46,30.07 A 0.46,0.46 0 0,0 24.26,29.81 L 22.26,28.56 A 0.52,0.52 0 0,0 21.91,28.49 C 21.41,28.55 20.17,28.92 19.87,28.35 C 19.8,28.23 19.84,28.15 19.97,28.1 L 20.34,27.96 C 20.51,27.89 20.52,27.82 20.35,27.73 L 19.46,27.26 A 0.5,0.5 0 0,0 19.18,27.2 C 18.42,27.26 17.7,27.1 17.03,26.7 A 0.27,0.27 0 0,0 16.71,26.71 C 16.08,27.19 15.37,27.36 14.59,27.23 A 0.25,0.25 0 0,0 14.33,27.34 C 14.14,27.61 13.89,27.77 13.58,27.82 A 0.4,0.4 0 0,0 13.28,28.02 C 13,28.49 12.63,28.59 12.16,28.33 A 0.63,0.63 0 0,0 11.82,28.25 C 11.05,28.29 10.12,27.95 9.45,28.25 C 9.35,28.3 9.25,28.3 9.15,28.25 C 7.46,27.49 7.99,26.21 8.49,24.86 A 0.5,0.5 0 0,0 8.5,24.56 L 8.38,24.1 C 8.34,23.94 8.4,23.86 8.56,23.84 C 9.48,23.76 9.84,23.26 9.66,22.35 A 0.46,0.46 0 0,1 9.76,21.95 A 0.44,0.44 0 0,1 10.16,21.82 C 10.55,21.88 10.92,21.84 11.27,21.7 C 11.4,21.65 11.43,21.56 11.37,21.43 L 10.97,20.6 A 0.28,0.28 0 0,1 11.02,20.28 C 11.33,19.9 13.02,18.11 12.89,17.75 C 12.84,17.62 12.87,17.51 12.99,17.43 C 13.29,17.21 13.46,16.91 13.52,16.53 A 0.36,0.36 0 0,1 13.74,16.25 A 0.34,0.34 0 0,1 14.09,16.31 C 14.44,16.62 14.84,16.71 15.3,16.55 A 0.35,0.35 0 0,1 15.63,16.6 C 15.82,16.74 16.03,16.78 16.27,16.74 C 16.37,16.72 16.47,16.68 16.57,16.62 C 17.39,16.12 17.94,16.65 18.69,15.74 A 0.4,0.4 0 0,1 18.99,15.58 C 19.42,15.55 19.81,15.67 20.16,15.92 A 0.4,0.4 0 0,0 20.73,15.82 L 21.45,14.8 A 0.33,0.33 0 0,1 21.69,14.65 C 22.16,14.61 22.57,14.42 22.91,14.08 C 23.01,13.99 23.12,13.95 23.25,13.95 L 24.63,14.01 A 0.2,0.2 0 0,0 24.83,13.87 A 0.2,0.2 0 0,0 24.83,13.78 C 24.76,13.35 24.83,13.09 25.05,13 Z M 29.29,27.85 C 29.21,27.05 28.07,27.05 27.63,27.51 C 27.48,27.67 27.51,27.76 27.72,27.8 L 29.08,28.05 C 29.24,28.08 29.31,28.01 29.29,27.85 Z M 25.25,27.75 L 24.8,27.42 C 24.69,27.34 24.6,27.36 24.56,27.49 C 24.42,27.81 24.95,28.26 25.26,27.98 A 0.15,0.15 0 0,0 25.31,27.86 A 0.15,0.15 0 0,0 25.25,27.75 Z M 28.08,29.06 L 27.57,28.86 C 27.43,28.8 27.35,28.85 27.34,29 L 27.22,30.32 C 27.2,30.62 27.29,30.67 27.5,30.45 L 28.48,29.45 C 28.59,29.33 28.58,29.23 28.43,29.15 C 28.3,29.07 28.19,29.04 28.08,29.06 Z" fill="rgb(34, 30, 30)"/>
</svg>
