<?xml version="1.0" encoding="UTF-8"?>
<!-- generated by Finnhub -->
<svg viewBox="0 0 55.5 55.5" xmlns="http://www.w3.org/2000/svg">
<path d="M 0,0 H 55.5 V 55.5 H 0 Z" fill="rgb(1, 127, 163)"/>
<path d="M 37.010000000000005,20.285 S 39.95,20.15 42.164,22.57 A 7.88,7.88 0 0,1 44,25.858 C 42.94,18.038 36.183,12.008 28,12 C 19.817,12.009 13.06,18.038 12,25.86 C 12.4,24.412 13.1,23.377 13.835,22.571 C 16.049,20.151 18.978,20.301 18.978,20.301 C 26.264,20.664 26,27.925 26,27.925 V 43.921 C 26.342,43.955 26.653,43.981 27,43.998 V 26.914 C 27,24.586 26.59,22.324 24.956,20.708 C 23.453,19.215 21.506,18.388 19.466,18.361 A 10.31,10.31 0 0,1 22.978,14.716 A 9.572,9.572 0 0,1 27.998,13.292 H 28.001 C 29.771,13.292 31.509,13.785 33.021,14.717 A 10.289,10.289 0 0,1 36.534,18.361 C 34.494,18.387 32.549,19.215 31.046,20.708 C 29.41,22.324 29,24.588 29,26.917 V 43.997 C 29.346,43.981 29.66,43.957 30,43.921 V 27.926 S 29.737,20.664 37.02,20.299 Z M 37.676,28.94 S 36.582,28.958 35.661,29.533 C 34.56,30.215 33,31.52 33,34.378 V 43 C 36.24,41.84 39.431,39.782 41.336,37.004 C 42.596,34.969 42.659,33.349 42.34,32.182 C 41.893,30.67 40.494,28.785 37.676,28.94 Z M 41.796,25.183 C 40.815,24.424 39.356,23.846 37.184,23.846 C 37.184,23.846 31,23.883 31,29.218 V 43.736 C 31.347,43.667 31.662,43.593 32,43.504 V 30.643 S 32.031,29.323 32.612,28.179 C 33.242,26.872 34.605,25.735 37.498,25.655 C 37.498,25.655 39.936,25.431 41.754,27.399 C 42.609,28.369 43.381,29.513 43.398,32.76 C 44.926,28.254 42.59,25.862 41.796,25.183 Z M 18.816,23.846 C 16.646,23.846 15.189,24.424 14.206,25.183 C 13.412,25.863 11.076,28.253 12.603,32.76 C 12.619,29.513 13.391,28.368 14.246,27.4 C 16.066,25.431 18.503,25.655 18.503,25.655 C 21.393,25.735 22.666,26.873 23.295,28.179 C 23.879,29.324 24,30.643 24,30.643 V 43.506 C 24.338,43.594 24.652,43.67 25,43.739 V 29.219 C 25,23.883 18.816,23.846 18.816,23.846 Z M 20.343,29.533 C 19.419,28.958 18.326,28.94 18.326,28.94 C 15.506,28.785 14.107,30.67 13.661,32.182 C 13.344,33.349 13.405,34.971 14.665,37.004 C 16.572,39.782 19.762,41.84 23,43 V 34.378 C 23,31.52 21.44,30.215 20.343,29.533 Z" fill="rgb(254, 254, 253)"/>
</svg>
