<?xml version="1.0" encoding="UTF-8"?>
<!-- generated by Finnhub -->
<svg viewBox="0 0 55.5 55.5" xmlns="http://www.w3.org/2000/svg">
<path d="M 0,0 H 55.5 V 55.5 H 0 Z" fill="rgb(239, 242, 248)"/>
<path d="M 27.93,40.985 C 13,41 8.42,28.19 8,21.78 C 10.33,19.44 17.64,18.05 27.94,26.61 C 36.19,33.47 41.89,34.03 43.72,33.46 C 39.05,39.43 33.74,41 27.94,41 Z" fill="rgb(127, 194, 176)"/>
<path d="M 28.049999999999997,40.985 C 43,41 47.58,28.19 48,21.78 C 45.67,19.44 38.36,18.05 28.06,26.61 C 19.81,33.47 14.11,34.03 12.28,33.46 C 16.95,39.43 22.48,41 28.06,41 Z" fill="rgb(121, 175, 212)"/>
<path d="M 27.99,40.985 C 27.12,41 26.24,40.96 25.37,40.87 A 20.2,20.2 0 0,1 20.92,39.89 A 18.67,18.67 0 0,1 12.28,33.46 C 14.1,34.03 19.78,33.46 28,26.66 C 36.21,33.46 41.9,34.03 43.72,33.46 A 20.15,20.15 0 0,1 38.16,38.49 A 19.43,19.43 0 0,1 29.28,40.97 C 28.86,40.99 28.43,41 28,41 Z" fill="rgb(58, 135, 150)"/>
</svg>
