<?xml version="1.0" encoding="UTF-8"?>
<!-- generated by Finnhub -->
<svg viewBox="0 0 55.5 55.5" xmlns="http://www.w3.org/2000/svg">
<path d="M 0,0 H 55.5 V 55.5 H 0 Z" fill="rgb(239, 242, 248)"/>
<path d="M 21.979999999999997,36.985 L 17.79,29.67 L 22.28,21.67 A 11.04,11.04 0 0,1 31.88,16 H 33.69 L 22,37 Z" fill="rgb(125, 86, 196)"/>
<path d="M 16.9,28.405 L 10,16 L 13.72,16.01 C 18.36,16.01 21.3,20.61 19.06,24.61 L 16.91,28.42 Z" fill="rgb(95, 37, 156)"/>
<path d="M 34.29,42.985 L 30.09,35.67 L 34.59,27.67 A 11.04,11.04 0 0,1 44.19,22 H 46 L 34.3,43 Z" fill="rgb(251, 102, 24)"/>
<path d="M 29.209999999999997,34.265 L 22.3,22 H 26.02 C 30.66,22 33.6,26.48 31.35,30.47 L 29.21,34.28 Z" fill="rgb(251, 126, 61)"/>
<path d="M 29.709999999999997,23.115 L 26.35,29.18 L 22.3,22 H 26.02 C 27.44,22 28.71,22.42 29.72,23.13 Z" fill="rgb(95, 37, 156)"/>
</svg>
