<?xml version="1.0" encoding="UTF-8"?>
<!-- generated by Finnhub -->
<svg viewBox="0 0 55.5 55.5" xmlns="http://www.w3.org/2000/svg">
<path d="M 0,0 H 55.5 V 55.5 H 0 Z" fill="rgb(239, 242, 248)"/>
<path d="M 8.870000000000001,27.685 L 16.48,29.83 L 19.76,30.27 L 29.53,30.88 L 36.76,29.44 L 47.06,27.71 L 35.61,28.49 L 46.51,25.9 L 35.41,27.7 L 45.27,23.7 L 34.85,26.77 L 43.19,20.73 L 33.83,25.66 L 40.76,18.3 L 32.68,24.88 L 37.78,16.26 L 31.4,24.26 L 34.42,14.84 L 29.87,23.71 L 31.15,14 L 28.38,23.7 L 27.78,14 L 27.02,23.7 L 24.42,14 L 25.55,23.7 L 21.21,14.84 L 24.18,24.26 L 17.86,16.26 L 22.88,24.88 L 14.81,18.3 L 21.89,25.9 L 12.53,20.73 L 20.75,26.77 L 10.48,23.71 L 19.76,27.71 L 8.88,25.91 L 15.2,27.71 V 28.49 L 8.88,27.71 Z" fill="rgb(252, 184, 69)"/>
<path d="M 51.99,33.985 H 4 C 11.12,27.05 16.55,25.96 17.36,25.96 C 18.01,25.96 19.58,27.03 20.29,27.56 C 21.14,27.21 22.52,27.72 23.1,28.02 A 30.11,30.11 0 0,0 29.97,30.46 L 25.85,28.02 L 29.28,26.41 C 31.34,26.28 31.03,28.01 32.78,28.01 C 34.18,28.01 35.15,28.36 35.46,28.53 L 38.39,29.3 L 37.46,28.53 C 37.62,28.49 38.16,28.33 39.02,28.02 C 39.87,27.71 40.99,27.33 41.45,27.18 A 26.8,26.8 0 0,1 52,34 Z"/>
</svg>
