<?xml version="1.0" encoding="UTF-8"?>
<!-- generated by Finnhub -->
<svg viewBox="0 0 55.5 55.5" xmlns="http://www.w3.org/2000/svg">
<path d="M 0,0 H 55.5 V 55.5 H 0 Z" fill="url(#a)"/>
<path d="M 12.015,32.011 A 1.14,1.14 0 0,1 12.214,31.126 C 12.402,30.861 12.694,30.676 13.026,30.613 L 20.552,29.189 A 1.364,1.364 0 0,1 21.513,29.366 C 21.653,29.454 21.773,29.566 21.867,29.696 C 21.961,29.828 22.027,29.974 22.059,30.129 A 1.127,1.127 0 0,1 21.871,31.03 A 1.243,1.243 0 0,1 21.519,31.362 C 21.379,31.45 21.222,31.512 21.058,31.542 L 13.533,32.966 A 1.351,1.351 0 0,1 12.572,32.789 A 1.201,1.201 0 0,1 12.025,32.026 Z" fill="rgb(242, 111, 31)"/>
<path d="M 22.939999999999998,25.852999999999998 A 1.244,1.244 0 0,1 22.597,26.2 A 1.364,1.364 0 0,1 21.175,26.204 L 14.785,22.221 A 1.246,1.246 0 0,1 14.426,21.891 A 1.126,1.126 0 0,1 14.417,20.551 C 14.511,20.42 14.632,20.306 14.772,20.218 A 1.361,1.361 0 0,1 16.202,20.224 L 22.591,24.207 C 22.731,24.294 22.851,24.406 22.945,24.537 A 1.125,1.125 0 0,1 22.949,25.869" fill="rgb(252, 182, 18)"/>
<path d="M 27.782999999999998,22.018 C 27.855,22.343 27.783,22.663 27.596,22.924 A 1.287,1.287 0 0,1 26.788,23.429 C 26.459,23.491 26.117,23.429 25.835,23.258 A 1.202,1.202 0 0,1 25.285,22.508 L 23.767,15.453 A 1.128,1.128 0 0,1 23.946,14.541 A 1.24,1.24 0 0,1 24.299,14.204 A 1.363,1.363 0 0,1 25.733,14.203 C 25.874,14.293 25.995,14.406 26.088,14.539 C 26.181,14.673 26.245,14.822 26.276,14.979 L 27.793,22.033 Z" fill="rgb(216, 37, 48)"/>
<path d="M 30.967,22.605 L 35.225,16.628 C 35.413,16.363 35.705,16.179 36.037,16.116 A 1.35,1.35 0 0,1 36.997,16.294 A 1.2,1.2 0 0,1 37.544,17.056 A 1.14,1.14 0 0,1 37.354,17.956 L 33.108,23.948 C 33.017,24.083 32.898,24.2 32.758,24.291 C 32.618,24.382 32.46,24.446 32.294,24.48 A 1.364,1.364 0 0,1 31.319,24.306 A 1.241,1.241 0 0,1 30.962,23.97 A 1.126,1.126 0 0,1 30.978,22.62" fill="rgb(242, 111, 31)"/>
<path d="M 42.939,27.386 L 35.425,28.825 A 1.35,1.35 0 0,1 34.463,28.648 A 1.2,1.2 0 0,1 33.916,27.885 A 1.14,1.14 0 0,1 34.105,26.984 C 34.293,26.719 34.585,26.534 34.918,26.471 L 42.443,25.049 A 1.363,1.363 0 0,1 43.418,25.215 C 43.561,25.302 43.683,25.415 43.778,25.547 A 1.127,1.127 0 0,1 43.778,26.895 A 1.245,1.245 0 0,1 43.418,27.226 A 1.331,1.331 0 0,1 42.948,27.401 Z" fill="rgb(252, 182, 18)"/>
<path d="M 41.542,37.445 A 1.241,1.241 0 0,1 41.2,37.791 A 1.36,1.36 0 0,1 39.778,37.794 L 33.384,33.812 A 1.198,1.198 0 0,1 32.847,33.052 C 32.783,32.742 32.851,32.42 33.037,32.157 C 33.224,31.894 33.514,31.71 33.844,31.647 A 1.35,1.35 0 0,1 34.8,31.815 L 41.189,35.798 C 41.329,35.885 41.449,35.996 41.544,36.127 A 1.125,1.125 0 0,1 41.552,37.459 Z" fill="rgb(216, 37, 48)"/>
<defs>
<linearGradient id="a" x1="10.418" x2="68.147" y1="9.712" y2="76.017" gradientUnits="userSpaceOnUse">
<stop stop-color="rgb(25, 29, 31)" offset="0"/>
<stop stop-color="rgb(5, 5, 8)" offset="1"/>
</linearGradient>
</defs>
</svg>
