<?xml version="1.0" encoding="UTF-8"?>
<!-- generated by Finnhub -->
<svg viewBox="0 0 55.5 55.5" xmlns="http://www.w3.org/2000/svg">
<path d="M 0,0 H 55.5 V 55.5 H 0 Z" fill="rgb(39, 140, 191)"/>
<path d="M 38.049,23.131999999999998 L 31.243,18.673 L 24.438,23.159 A 0.497,0.497 0 0,1 23.754,23.019 L 23.58,22.751 A 0.503,0.503 0 0,1 23.72,22.063 L 30.883,17.344 C 31.103,17.204 31.382,17.204 31.603,17.344 L 38.778,22.052 C 39.009,22.203 39.068,22.506 38.917,22.739 L 38.743,23.007 A 0.487,0.487 0 0,1 38.059,23.147 Z M 44.898,19 H 44.602 A 0.61,0.61 0 0,0 44,19.611 V 33.389 A 0.61,0.61 0 0,0 44.602,34 H 44.898 A 0.61,0.61 0 0,0 45.5,33.389 V 19.623 A 0.612,0.612 0 0,0 44.898,19 Z M 48.898,17 H 48.602 A 0.608,0.608 0 0,0 48,17.609 V 33.39 C 48,33.724 48.272,33.999 48.602,33.999 H 48.898 C 49.228,33.999 49.5,33.724 49.5,33.39 V 17.62 A 0.611,0.611 0 0,0 48.898,16.999 Z M 16.657,25 C 15.437,25 14.381,25.466 13.615,26.329 C 12.895,27.145 12.5,28.264 12.5,29.465 V 29.617 C 12.512,30.817 12.918,31.913 13.638,32.706 C 14.393,33.546 15.438,34 16.657,34 C 17.957,34 18.956,33.522 19.594,33.172 A 0.57,0.57 0 0,0 19.873,32.799 A 0.605,0.605 0 0,0 19.78,32.333 L 19.652,32.158 A 0.563,0.563 0 0,0 18.932,31.983 C 18.875,32.018 18.816,32.041 18.758,32.076 C 18.294,32.321 17.725,32.636 16.819,32.636 C 15.019,32.636 14.021,31.341 14.021,30.326 L 14.009,30.245 C 14.009,30.175 14.033,30.117 14.079,30.07 C 14.125,30.023 14.172,29.996 14.23,29.996 H 20.059 A 0.39,0.39 0 0,0 20.454,29.639 C 20.477,29.487 20.5,29.207 20.5,29.067 C 20.5,27.983 20.117,26.83 19.42,26.119 C 18.712,25.396 17.725,25 16.657,25 Z M 18.944,28.73 A 0.192,0.192 0 0,1 18.804,28.788 H 14.218 A 0.165,0.165 0 0,1 14.079,28.718 A 0.178,0.178 0 0,1 14.044,28.566 C 14.288,27.342 15.368,26.317 16.657,26.317 C 17.226,26.317 17.783,26.539 18.213,26.947 C 18.631,27.332 18.909,28.018 18.991,28.577 A 0.234,0.234 0 0,1 18.944,28.729 Z M 38.157,25 C 36.937,25 35.881,25.466 35.115,26.329 C 34.395,27.145 34,28.264 34,29.465 V 29.617 C 34.012,30.817 34.418,31.913 35.138,32.706 C 35.893,33.546 36.938,34 38.157,34 C 39.457,34 40.456,33.522 41.094,33.172 A 0.57,0.57 0 0,0 41.373,32.799 A 0.605,0.605 0 0,0 41.28,32.333 L 41.152,32.158 A 0.563,0.563 0 0,0 40.432,31.983 C 40.374,32.018 40.316,32.041 40.258,32.076 C 39.794,32.321 39.225,32.636 38.319,32.636 C 36.519,32.636 35.521,31.341 35.521,30.326 L 35.509,30.245 C 35.509,30.175 35.533,30.117 35.579,30.07 C 35.626,30.023 35.672,29.996 35.73,29.996 H 41.559 A 0.39,0.39 0 0,0 41.954,29.639 C 41.977,29.487 42,29.207 42,29.067 C 42,27.983 41.617,26.83 40.92,26.119 C 40.212,25.396 39.225,25 38.157,25 Z M 40.444,28.73 A 0.192,0.192 0 0,1 40.304,28.788 H 35.718 A 0.165,0.165 0 0,1 35.579,28.718 C 35.544,28.671 35.533,28.624 35.544,28.566 C 35.788,27.342 36.868,26.317 38.157,26.317 C 38.726,26.317 39.283,26.539 39.713,26.947 C 40.131,27.332 40.409,28.018 40.491,28.577 A 0.234,0.234 0 0,1 40.444,28.729 Z M 32.466,25 H 32.127 A 0.55,0.55 0 0,0 31.602,25.398 L 30.025,31.109 L 27.677,25.398 A 0.55,0.55 0 0,0 27.175,25.058 H 26.837 A 0.532,0.532 0 0,0 26.334,25.398 L 23.987,31.109 L 22.41,25.409 A 0.55,0.55 0 0,0 21.885,25.012 H 21.545 A 0.553,0.553 0 0,0 21.114,25.222 A 0.524,0.524 0 0,0 21.02,25.69 L 23.204,33.602 A 0.55,0.55 0 0,0 23.73,34 H 23.928 C 24.15,34 24.348,33.871 24.431,33.66 L 27,27.4 L 29.57,33.649 C 29.651,33.848 29.85,33.989 30.072,33.989 H 30.27 A 0.55,0.55 0 0,0 30.796,33.59 L 32.98,25.679 A 0.517,0.517 0 0,0 32.886,25.211 A 0.53,0.53 0 0,0 32.466,25 Z M 7.453,24.983 C 6.31,24.983 5.37,25.276 4.6,25.57 A 0.885,0.885 0 0,0 4,26.391 V 33.419 C 4,33.748 4.26,34.006 4.566,34.006 H 4.86 C 5.177,34.006 5.5,33.736 5.5,33.419 V 27.013 C 5.5,26.883 5.506,26.767 5.619,26.72 A 4.65,4.65 0 0,1 7.43,26.356 C 8.144,26.356 8.8,26.579 9.276,26.989 C 9.751,27.4 10,27.975 10,28.609 V 33.407 C 10,33.736 10.272,33.994 10.578,33.994 H 10.872 C 11.189,33.994 11.5,33.724 11.5,33.407 V 28.61 C 11.523,26.486 9.82,24.984 7.453,24.984 Z" fill="rgb(254, 254, 253)"/>
</svg>
