<?xml version="1.0" encoding="UTF-8"?>
<!-- generated by Finnhub -->
<svg viewBox="0 0 55.5 55.5" xmlns="http://www.w3.org/2000/svg">
<path d="M 0,0 H 55.5 V 55.5 H 0 Z" fill="rgb(0, 68, 116)"/>
<path d="M 15.99,12.985 A 3,3 0 0,0 13,16 V 40 A 3,3 0 0,0 16,43 H 40 A 3,3 0 0,0 43,40 V 16 A 3,3 0 0,0 40,13 H 16 Z M 16,15 A 1,1 0 0,0 15,16 V 40 A 1,1 0 0,0 16,41 H 40 A 1,1 0 0,0 41,40 V 16 A 1,1 0 0,0 40,15 H 16 Z M 28,32 A 7,7 0 1,0 28,18 A 7,7 0 0,0 28,32 Z M 28,30 A 5,5 0 1,0 28,20 A 5,5 0 0,0 28,30 Z M 17,36 H 18.44 L 19.47,34.06 A 2,2 0 0,1 21.24,33 H 34.9 A 2,2 0 0,1 36.65,34.05 L 37.72,36 H 39 V 38 H 36.48 L 34.46,35 H 21.56 L 19.74,38 H 17 V 36 Z" fill="rgb(254, 254, 253)" fill-rule="evenodd"/>
</svg>
