<?xml version="1.0" encoding="UTF-8"?>
<!-- generated by Finnhub -->
<svg viewBox="0 0 55.5 55.5" xmlns="http://www.w3.org/2000/svg">
<path d="M 0,0 H 55.5 V 55.5 H 0 Z" fill="rgb(239, 242, 248)"/>
<path d="M 45.190000000000005,24.985 L 48,25.37 C 45.61,30.05 41.84,30.98 39.1,31 C 37.66,31 36.51,30.76 36,30.68 C 41.78,30.15 44.54,26.68 45.2,25 Z" fill="rgb(214, 101, 22)"/>
<path d="M 49.36,25.985 L 52,26.28 A 11.47,11.47 0 0,1 43,31 C 47.27,29.52 49.03,27.05 49.37,26 Z M 18.79,27 C 24.05,27 28.45,28.17 30,28.76 A 85.1,85.1 0 0,0 22.47,28.36 C 15.81,28.36 10.24,30.79 8.29,32 L 7,30.05 A 25.85,25.85 0 0,1 18.79,27 Z" fill="rgb(214, 101, 22)"/>
<path d="M 10.65,35.985 L 9,33.49 C 13.15,30.49 19.55,29.34 29.1,29.59 C 37.08,29.79 38.7,25.91 39.04,24 C 40.14,24.2 42.24,24.44 43,24.56 C 41.98,25.96 41.15,29.84 28.64,30.5 C 19.29,31 12.35,34.38 10.66,36 Z M 12.85,24 C 17.65,24 22.28,25.49 24,26.23 A 34.05,34.05 0 0,0 5.46,28 L 4,25.85 C 4.95,25.23 8.05,24 12.85,24 Z" fill="rgb(214, 101, 22)"/>
</svg>
