<?xml version="1.0" encoding="UTF-8"?>
<!-- generated by Finnhub -->
<svg viewBox="0 0 55.5 55.5" xmlns="http://www.w3.org/2000/svg">
<path d="M 0,0 H 55.5 V 55.5 H 0 Z" fill="url(#a)"/>
<path d="M 12.49,20.884999999999998 A 16.74,16.74 0 0,1 16.98,15 A 17.29,17.29 0 0,1 24.73,11.3 C 29.9,10.33 35.21,11.77 39.11,15.2 C 42.5,18.15 45,22.74 45,27.32 C 45.12,32.12 43.37,36.7 39.9,40.12 A 16.6,16.6 0 0,1 26.68,44.92 A 17.13,17.13 0 0,1 14.88,38.65 A 17.33,17.33 0 0,1 11.03,28.66 C 10.9,25.94 11.39,23.35 12.51,20.88 Z M 14.07,19.77 L 14.51,20.02 A 0.06,0.06 0 0,0 14.57,20.02 L 14.9,19.84 C 15.05,19.76 15.12,19.85 15.1,20 L 15.07,20.33 C 15.07,20.35 15.07,20.37 15.09,20.38 L 15.77,20.78 C 15.79,20.8 15.81,20.79 15.82,20.77 C 18.72,15.93 24.33,13.17 30.07,14.05 C 34.32,14.71 37.9,17.13 40.14,20.71 C 40.2,20.81 40.24,20.89 40.26,20.98 C 40.26,20.99 40.27,21 40.29,20.98 L 40.92,20.6 A 0.15,0.15 0 0,0 40.99,20.46 L 40.95,20.09 C 40.95,20.06 40.95,20.05 40.99,20.05 C 41.19,20.05 41.35,20.15 41.49,20.23 H 41.55 L 41.98,19.98 L 42.01,19.95 L 42,19.9 A 16.36,16.36 0 0,0 25.4,12.02 A 16.29,16.29 0 0,0 14.05,19.7 C 14.04,19.73 14.05,19.76 14.07,19.77 Z M 28.07,14.65 C 28.11,14.49 28.2,14.35 28.35,14.27 V 14.23 H 28.33 C 28.15,14.23 27.9,14.19 27.75,14.25 C 27.73,14.25 27.72,14.27 27.75,14.28 C 27.89,14.38 27.98,14.5 28.04,14.66 C 28.05,14.7 28.06,14.7 28.07,14.66 Z M 26.97,14.93 A 0.02,0.02 0 0,0 26.99,14.95 H 27 L 27.03,14.93 C 27.05,14.93 27.05,14.91 27.05,14.89 C 26.96,14.62 27.04,14.42 27.28,14.29 A 0.02,0.02 0 0,0 27.29,14.26 V 14.25 H 27.27 L 26.63,14.3 C 26.59,14.3 26.59,14.31 26.63,14.33 C 26.88,14.45 26.99,14.65 26.97,14.93 Z M 29.09,14.73 C 29.09,14.82 29.04,14.88 29.05,14.96 L 29.06,14.97 H 29.09 L 29.1,14.95 C 29.08,14.68 29.2,14.48 29.43,14.36 H 29.44 V 14.33 H 29.43 L 28.89,14.26 H 28.87 L 28.86,14.28 V 14.31 C 29,14.41 29.07,14.56 29.09,14.74 Z M 26.04,15.03 C 25.94,14.78 25.95,14.52 26.18,14.39 L 26.2,14.38 V 14.36 L 26.19,14.35 H 26.17 L 25.58,14.43 A 0.03,0.03 0 0,0 25.56,14.46 A 0.03,0.03 0 0,0 25.58,14.49 C 25.81,14.59 25.93,14.78 25.92,15.04 C 25.92,15.08 25.94,15.09 25.97,15.08 L 26.02,15.07 L 26.03,15.06 A 0.03,0.03 0 0,0 26.04,15.02 Z M 29.84,14.38 C 30.07,14.51 30.19,14.78 30.08,15.04 C 30.07,15.06 30.08,15.07 30.1,15.08 H 30.12 C 30.14,15.08 30.15,15.08 30.15,15.05 C 30.16,14.78 30.3,14.6 30.56,14.52 H 30.57 A 0.02,0.02 0 0,0 30.57,14.48 H 30.56 L 29.84,14.36 A 0.01,0.01 0 0,0 29.83,14.38 Z M 24.54,14.72 C 24.76,14.82 24.87,14.99 24.87,15.23 C 24.87,15.25 24.88,15.26 24.9,15.26 H 24.94 A 0.04,0.04 0 0,0 24.98,15.25 A 0.04,0.04 0 0,0 24.98,15.21 C 24.85,14.95 24.9,14.73 25.12,14.55 V 14.53 H 25.11 A 128.07,128.07 0 0,1 24.51,14.69 L 24.52,14.71 H 24.54 Z M 31.17,15.05 C 31.17,15.12 31.12,15.21 31.13,15.28 L 31.14,15.29 H 31.16 L 31.18,15.28 A 0.67,0.67 0 0,1 31.35,14.9 C 31.41,14.83 31.51,14.81 31.58,14.76 C 31.61,14.73 31.61,14.72 31.58,14.71 L 30.97,14.56 H 30.95 L 30.94,14.57 V 14.61 C 31.11,14.71 31.18,14.86 31.17,15.05 Z M 23.55,15.09 C 23.73,15.17 23.85,15.3 23.9,15.49 L 23.93,15.51 H 23.95 A 0.03,0.03 0 0,0 23.97,15.49 V 15.46 C 23.83,15.24 23.84,15.04 24.01,14.85 V 14.83 A 0.02,0.02 0 0,0 23.99,14.82 L 23.44,15 L 23.42,15.01 L 23.41,15.03 V 15.06 L 23.43,15.07 C 23.45,15.08 23.48,15.09 23.51,15.08 H 23.55 Z M 32.15,15.57 C 32.28,15.3 32.42,15.12 32.75,15.14 H 32.77 L 32.78,15.12 V 15.1 L 32.76,15.09 L 32.06,14.84 A 0.03,0.03 0 0,0 32.02,14.87 V 14.88 C 32.23,15.08 32.26,15.3 32.12,15.54 V 15.56 L 32.13,15.57 H 32.16 Z M 22.27,39.83 C 22.05,40.62 20.92,40.09 21.46,39.39 A 0.03,0.03 0 0,0 21.45,39.35 L 21.43,39.34 H 21.42 A 0.05,0.05 0 0,0 21.37,39.37 C 21.09,40.04 20.07,39.43 20.61,38.82 A 0.03,0.03 0 0,0 20.61,38.79 A 0.03,0.03 0 0,0 20.59,38.77 L 20.51,38.75 H 20.49 L 20.47,38.77 C 20.13,39.47 19.14,38.74 19.72,38.19 V 38.16 H 19.68 C 19.21,38.77 18.42,37.94 18.98,37.51 L 18.99,37.49 V 37.48 L 18.98,37.46 H 18.96 C 18.94,37.46 18.91,37.46 18.9,37.49 C 18.46,38.04 17.77,37.45 18.07,36.95 A 0.8,0.8 0 0,1 18.29,36.77 C 18.32,36.76 18.32,36.74 18.29,36.72 L 18.24,36.68 A 0.04,0.04 0 0,0 18.19,36.68 A 0.5,0.5 0 0,1 17.45,36.01 C 17.47,36 17.46,35.99 17.44,36 L 17.23,36.05 H 17.17 C 16.67,35.92 16.55,35.32 17.04,35.07 V 35.04 C 17.04,35.02 17.02,35.02 17,35.04 C 16.43,35.5 15.76,34.62 16.48,34.19 V 34.17 H 16.46 C 15.77,34.6 15.26,33.49 16.02,33.29 L 16.04,33.28 A 0.03,0.03 0 0,0 16.04,33.23 H 16 C 15.92,33.23 15.85,33.27 15.78,33.28 C 15.23,33.35 14.99,32.68 15.44,32.34 C 15.46,32.32 15.46,32.31 15.43,32.31 C 14.79,32.31 14.65,31.51 15.3,31.31 C 15.31,31.31 15.32,31.31 15.32,31.29 S 15.31,31.27 15.29,31.27 C 14.44,31.42 14.35,30.36 15.07,30.31 C 15.1,30.31 15.11,30.29 15.1,30.27 V 30.24 A 0.03,0.03 0 0,0 15.08,30.22 A 0.03,0.03 0 0,0 15.06,30.22 C 14.19,30.38 14.26,29.16 14.84,29.25 L 14.93,29.24 L 14.92,29.22 C 14.12,29.25 14.07,28.21 14.86,28.21 H 14.87 L 14.88,28.19 L 14.87,28.18 C 14.07,28.17 14.04,27.15 14.87,27.16 A 0.03,0.03 0 0,0 14.91,27.14 V 27.12 L 14.89,27.11 C 14.77,27.06 14.64,27.06 14.55,26.99 C 14.19,26.73 14.31,26.22 14.73,26.09 C 14.76,26.09 14.76,26.07 14.73,26.05 C 14.2,25.71 14.5,24.95 15.14,25.12 A 0.03,0.03 0 0,0 15.18,25.12 A 0.03,0.03 0 0,0 15.18,25.08 C 15.17,25.06 15.14,25.04 15.11,25.04 C 14.37,24.89 14.68,23.8 15.43,24.1 L 15.45,24.09 V 24.07 C 15.45,24.05 15.45,24.04 15.43,24.03 C 14.63,23.91 15.03,22.73 15.76,23.13 L 15.77,23.12 L 15.79,23.11 A 0.02,0.02 0 0,0 15.79,23.08 C 14.99,22.75 15.53,21.78 16.21,22.18 L 16.22,22.17 L 16.23,22.15 V 22.13 L 16.22,22.11 C 15.59,21.8 15.96,20.9 16.68,21.21 H 16.74 C 16.76,21.21 16.76,21.19 16.74,21.19 C 16,20.77 16.66,19.87 17.29,20.35 H 17.31 L 17.32,20.33 V 20.31 C 17.02,20.16 16.93,19.92 17.06,19.61 A 0.02,0.02 0 0,0 17.05,19.58 H 17.02 C 9.97,28.91 17.12,42.79 28.94,42.01 C 31.16,41.86 33.21,41.23 35.1,40.1 A 14.08,14.08 0 0,0 41.57,31.27 A 13.9,13.9 0 0,0 32.85,15.14 C 32.83,15.15 32.83,15.17 32.85,15.18 C 33.12,15.31 33.22,15.52 33.15,15.82 V 15.84 H 33.17 C 33.23,15.77 33.27,15.69 33.33,15.64 C 33.57,15.48 33.8,15.5 34.02,15.7 C 34.23,15.9 34.16,16.11 34.06,16.35 A 0.02,0.02 0 0,0 34.06,16.37 H 34.08 C 34.15,16.31 34.18,16.23 34.23,16.17 C 34.43,16 34.63,15.98 34.83,16.1 C 35.11,16.26 35.13,16.47 35.05,16.75 V 16.76 L 35.06,16.77 H 35.07 C 35.29,16.51 35.62,16.52 35.85,16.76 C 36.03,16.96 36.02,17.2 35.81,17.46 V 17.49 H 35.84 C 36.05,17.32 36.3,17.12 36.57,17.33 C 36.87,17.55 36.91,17.81 36.67,18.1 C 36.6,18.2 36.61,18.2 36.7,18.12 C 37.25,17.62 37.92,18.32 37.42,18.83 A 0.02,0.02 0 0,0 37.42,18.85 H 37.47 C 37.99,18.33 38.62,19.11 38.11,19.59 V 19.62 C 38.11,19.64 38.13,19.64 38.14,19.63 C 38.48,19.36 38.94,19.51 39,19.95 C 39.02,20.13 38.88,20.28 38.78,20.42 C 38.75,20.46 38.76,20.46 38.8,20.43 C 39.33,20.06 39.92,20.9 39.34,21.27 C 39.32,21.27 39.32,21.29 39.34,21.31 H 39.39 C 39.92,21.07 40.37,21.81 39.84,22.21 A 0.04,0.04 0 0,0 39.86,22.29 L 39.89,22.27 C 40.41,21.95 40.95,22.85 40.27,23.17 L 40.26,23.19 C 40.26,23.2 40.26,23.21 40.28,23.2 C 40.98,23 41.32,23.87 40.64,24.13 L 40.63,24.14 V 24.16 H 40.65 C 40.83,24.16 41.1,24.16 41.2,24.36 C 41.39,24.73 41.28,25 40.9,25.15 H 40.88 V 25.18 L 40.9,25.19 C 41.08,25.19 41.34,25.19 41.44,25.39 C 41.6,25.7 41.54,25.96 41.24,26.14 C 41.22,26.15 41.22,26.16 41.24,26.17 C 41.8,26.29 41.79,27.04 41.2,27.15 A 0.04,0.04 0 0,0 41.17,27.19 S 41.17,27.21 41.19,27.21 L 41.21,27.22 C 41.88,27.23 41.94,28.14 41.22,28.22 H 41.21 V 28.24 L 41.22,28.25 C 41.86,28.31 41.82,29.22 41.25,29.22 H 41.24 V 29.24 A 0.02,0.02 0 0,0 41.24,29.25 C 41.86,29.47 41.7,30.28 41.04,30.25 H 41.02 L 41.01,30.27 V 30.29 L 41.03,30.3 C 41.72,30.53 41.49,31.36 40.81,31.28 H 40.79 V 31.31 C 41.47,31.51 41.11,32.48 40.54,32.27 H 40.53 V 32.29 C 40.85,32.47 40.93,32.71 40.79,33 C 40.66,33.27 40.39,33.25 40.13,33.22 H 40.12 L 40.11,33.23 A 0.02,0.02 0 0,0 40.11,33.26 C 40.41,33.43 40.57,33.69 40.35,34 C 40.19,34.22 39.99,34.27 39.74,34.15 H 39.69 C 39.66,34.17 39.66,34.18 39.69,34.19 C 39.89,34.32 40.03,34.59 39.89,34.82 C 39.75,35.08 39.49,35.22 39.21,35.03 H 39.18 C 39.15,35.03 39.14,35.03 39.17,35.06 C 39.47,35.33 39.47,35.6 39.2,35.87 C 39.06,36 38.87,35.97 38.7,35.94 H 38.69 V 35.96 C 38.79,36.06 38.89,36.23 38.81,36.37 C 38.76,36.47 38.77,36.55 38.69,36.63 C 38.49,36.85 38.25,36.86 37.99,36.66 A 0.03,0.03 0 0,0 37.96,36.66 A 0.03,0.03 0 0,0 37.94,36.67 L 37.93,36.72 V 36.74 C 38.55,37.28 37.73,37.98 37.3,37.47 A 0.12,0.12 0 0,0 37.23,37.43 H 37.22 A 0.01,0.01 0 0,0 37.22,37.45 C 37.72,37.93 37.02,38.69 36.47,38.09 H 36.45 V 38.11 A 0.04,0.04 0 0,0 36.46,38.14 C 37.08,38.66 36.06,39.39 35.73,38.74 C 35.72,38.72 35.7,38.72 35.68,38.74 L 35.67,38.76 A 0.05,0.05 0 0,0 35.67,38.82 C 36.02,39.43 35.21,39.95 34.84,39.35 C 34.83,39.33 34.81,39.33 34.8,39.33 C 34.77,39.33 34.76,39.33 34.78,39.35 C 35.2,39.87 34.54,40.47 34.03,40 C 34.01,39.98 34,39.99 34,40 C 34.01,40.4 33.82,40.6 33.44,40.59 C 33.31,40.59 33.22,40.52 33.14,40.44 C 33.11,40.41 33.09,40.42 33.09,40.45 V 40.61 C 33.09,40.63 33.09,40.65 33.07,40.66 C 32.88,41.14 32.27,41.11 32.14,40.6 C 32.14,40.59 32.14,40.58 32.12,40.57 H 32.09 C 32.07,40.57 32.06,40.58 32.07,40.6 C 32.32,41.39 31.27,41.62 31.15,40.86 C 31.15,40.84 31.14,40.84 31.12,40.84 C 31.09,40.84 31.08,40.86 31.09,40.88 C 31.32,41.67 30.22,41.84 30.17,41.04 C 30.17,41.02 30.15,41.01 30.13,41.03 H 30.11 A 0.03,0.03 0 0,0 30.1,41.06 C 30.2,41.88 29.09,41.86 29.17,41.16 C 29.17,41.14 29.17,41.12 29.14,41.12 H 29.12 C 29.09,41.12 29.08,41.14 29.07,41.16 C 29.07,41.23 29.1,41.29 29.09,41.36 C 29.05,41.68 28.86,41.83 28.52,41.79 C 28.29,41.77 28.21,41.57 28.13,41.39 C 28.13,41.36 28.11,41.36 28.1,41.39 C 27.9,42.09 27.03,41.82 27.17,41.19 A 0.04,0.04 0 0,0 27.15,41.15 L 27.13,41.14 A 0.03,0.03 0 0,0 27.1,41.14 L 27.08,41.15 V 41.17 C 27.07,41.92 26,41.84 26.14,41.08 C 26.14,41.04 26.14,41.02 26.1,41.02 H 26.08 A 0.04,0.04 0 0,0 26.05,41.04 V 41.06 C 26.05,41.89 24.82,41.63 25.16,40.88 C 25.18,40.85 25.16,40.84 25.13,40.84 H 25.1 C 25.08,40.84 25.07,40.85 25.06,40.87 C 24.98,41.57 24.02,41.47 24.12,40.73 C 24.12,40.71 24.13,40.7 24.15,40.69 A 0.12,0.12 0 0,0 24.2,40.59 C 24.2,40.57 24.2,40.56 24.18,40.55 A 0.06,0.06 0 0,0 24.14,40.54 A 0.08,0.08 0 0,0 24.09,40.56 A 0.08,0.08 0 0,0 24.07,40.6 C 23.99,41.36 22.82,41.06 23.21,40.26 L 23.2,40.24 H 23.19 C 23.02,40.54 22.28,41.07 22.21,40.17 C 22.21,40.06 22.28,39.94 22.31,39.83 V 39.81 H 22.29 C 22.28,39.81 22.27,39.81 22.26,39.83 Z M 22.95,15.79 C 22.85,15.54 22.88,15.39 23.04,15.19 C 23.07,15.15 23.06,15.14 23.02,15.15 L 22.44,15.38 C 22.41,15.4 22.41,15.41 22.44,15.42 C 22.65,15.52 22.85,15.57 22.9,15.83 V 15.84 L 22.91,15.85 H 22.93 L 22.95,15.82 V 15.79 Z M 21.47,15.89 C 21.7,15.96 21.87,16.09 21.95,16.27 C 21.95,16.29 21.98,16.31 22,16.32 H 22 L 22.02,16.3 V 16.27 C 21.83,16.02 21.86,15.86 22.01,15.6 C 22.03,15.57 22.02,15.56 21.99,15.58 L 21.45,15.86 A 0.02,0.02 0 0,0 21.45,15.88 V 15.89 Z M 40.13,27.06 L 40.41,27.1 C 40.43,27.1 40.44,27.09 40.44,27.07 C 40.42,26.7 40.38,26.36 40.33,26.04 A 12.5,12.5 0 0,0 17.58,21.31 A 12.05,12.05 0 0,0 15.68,27.06 H 15.7 L 16,27.01 C 16.02,27.01 16,27.02 16,27.01 C 16.29,23.86 17.72,20.97 20.16,18.91 A 12.14,12.14 0 0,1 40.1,27.01 C 40.1,27.04 40.1,27.06 40.13,27.06 Z M 20.93,16.6 L 20.96,16.62 H 20.98 L 20.99,16.61 V 16.59 A 0.38,0.38 0 0,1 21.03,16.17 A 0.03,0.03 0 0,0 21.03,16.13 H 21 L 20.58,16.39 L 20.57,16.41 V 16.43 A 0.03,0.03 0 0,0 20.6,16.45 A 0.55,0.55 0 0,1 20.95,16.6 Z M 20.9,27.4 C 21.3,27.47 21.05,27.98 20.76,27.73 A 0.07,0.07 0 0,1 20.73,27.69 C 20.72,27.55 20.63,27.49 20.63,27.38 C 20.63,27.28 20.66,27.21 20.73,27.14 A 6.17,6.17 0 0,1 20.99,25.96 C 21.01,25.88 20.99,25.87 20.93,25.93 C 20.61,26.28 19.9,26.63 19.48,26.25 C 19.37,26.15 19.4,26.02 19.57,26 L 19.8,26.01 L 19.86,26 C 19.93,25.96 19.98,25.9 20.01,25.82 C 20.02,25.8 20.03,25.79 20.06,25.78 A 0.87,0.87 0 0,1 20.56,25.72 A 0.06,0.06 0 0,0 20.61,25.7 L 21.21,25.12 V 25.1 L 21.2,25.09 H 21.18 C 20.51,25.4 19.97,25.74 19.23,25.3 C 19.08,25.22 18.93,25.07 19.04,24.9 C 19.1,24.8 19.2,24.78 19.34,24.82 C 19.37,24.82 19.39,24.84 19.41,24.86 L 19.44,24.94 C 19.45,25.13 19.75,25.17 19.89,25.19 C 20.29,25.23 21.06,24.79 21.39,24.59 C 21.42,24.56 21.49,24.54 21.57,24.51 C 21.59,24.51 21.6,24.49 21.61,24.47 C 21.65,24.37 21.7,24.29 21.75,24.2 A 7.44,7.44 0 0,1 34.58,24.51 C 34.58,24.55 34.61,24.56 34.65,24.55 L 34.71,24.56 C 35.03,24.77 35.41,24.97 35.85,25.16 C 36.14,25.28 36.42,25.26 36.68,25.13 A 0.06,0.06 0 0,0 36.71,25.08 C 36.74,24.88 36.97,24.75 37.11,24.94 C 37.38,25.3 36.58,25.54 36.35,25.56 A 2.4,2.4 0 0,1 35.05,25.16 H 35.04 V 25.2 L 35.54,25.71 L 35.57,25.72 L 36.07,25.79 C 36.09,25.79 36.1,25.79 36.12,25.82 L 36.3,26.03 A 0.05,0.05 0 0,0 36.34,26.05 C 36.49,26.05 36.67,26 36.78,26.15 A 0.05,0.05 0 0,1 36.78,26.19 C 36.63,26.43 36.4,26.44 36.12,26.42 C 35.72,26.4 35.46,26.19 35.21,25.9 H 35.18 L 35.17,25.92 C 35.28,26.28 35.37,26.64 35.42,27.02 C 35.43,27.07 35.41,27.13 35.48,27.18 L 35.52,27.22 C 35.64,27.39 35.51,27.56 35.46,27.72 A 0.1,0.1 0 0,1 35.43,27.76 C 35.15,27.98 34.95,27.49 35.33,27.42 L 35.34,27.4 A 0.02,0.02 0 0,0 35.33,27.38 C 35.12,27.31 34.97,27.4 34.93,27.61 C 34.87,28.01 35.42,28.06 35.69,28.04 C 35.71,28.04 35.72,28.03 35.74,28.01 A 0.08,0.08 0 0,0 35.76,27.97 C 36.02,25.89 38.88,25.57 39.56,27.57 C 39.61,27.67 39.61,27.82 39.66,27.95 C 39.67,27.97 39.69,27.98 39.71,27.98 C 40.01,28 40.51,27.96 40.46,27.55 C 40.43,27.36 40.29,27.3 40.12,27.3 H 40.09 A 0.05,0.05 0 0,0 40.07,27.37 L 40.09,27.39 L 40.15,27.42 C 40.17,27.42 40.18,27.45 40.17,27.47 L 40.07,27.62 C 40.07,27.64 40.05,27.65 40.03,27.64 C 39.9,27.58 39.84,27.47 39.85,27.33 A 8.34,8.34 0 0,0 39.28,24.45 H 39.26 V 24.47 C 39.18,24.81 39.12,25.08 38.71,25.17 H 38.66 C 38.6,25.11 38.63,25.03 38.68,24.97 C 38.95,24.64 38.7,24.4 38.86,24.09 C 38.94,23.93 39.12,23.91 39.03,23.67 A 5.6,5.6 0 0,0 38.73,23.07 L 38.71,23.08 V 23.1 C 38.73,23.76 38.49,24.7 37.75,24.91 C 37.58,24.96 37.43,24.91 37.45,24.71 C 37.45,24.68 37.46,24.65 37.49,24.62 A 0.15,0.15 0 0,1 37.59,24.58 C 38.04,24.58 38.28,23.97 38.34,23.65 C 38.4,23.32 38.52,22.55 38.34,22.25 A 11.95,11.95 0 0,0 24.6,16.8 C 21.71,17.75 19.48,19.5 17.9,22.07 C 17.53,22.67 17.76,24.17 18.43,24.52 H 18.48 A 0.2,0.2 0 0,1 18.69,24.58 L 18.71,24.63 C 18.71,24.81 18.69,24.95 18.44,24.87 C 17.67,24.61 17.43,23.82 17.41,23.11 A 0.03,0.03 0 0,0 17.39,23.08 H 17.37 L 17.36,23.1 L 17.09,23.67 V 23.73 C 17.12,23.83 17.18,23.91 17.26,23.98 L 17.27,24 L 17.33,24.1 L 17.34,24.15 L 17.32,24.62 L 17.33,24.67 L 17.53,24.97 C 17.57,25.05 17.49,25.15 17.41,25.12 A 0.7,0.7 0 0,1 16.93,24.7 C 16.9,24.62 16.9,24.52 16.88,24.42 L 16.87,24.41 A 0.02,0.02 0 0,0 16.84,24.41 A 12.17,12.17 0 0,0 16.28,27.05 C 16.26,27.18 16.33,27.26 16.28,27.38 C 16.25,27.48 16.22,27.66 16.13,27.72 C 15.95,27.83 15.78,27.61 15.88,27.42 C 15.88,27.4 15.9,27.39 15.92,27.38 L 16.06,27.33 A 0.03,0.03 0 0,0 16.07,27.3 V 27.28 H 16.05 C 15.63,27.18 15.54,27.68 15.83,27.85 C 16,27.95 16.22,27.98 16.47,27.94 C 16.49,27.94 16.5,27.92 16.5,27.91 A 1.94,1.94 0 0,1 19.27,26.36 C 19.93,26.66 20.34,27.2 20.47,27.99 C 20.47,28.01 20.49,28.02 20.51,28.02 C 20.79,28.05 21.33,28.01 21.28,27.59 C 21.25,27.39 21.08,27.3 20.9,27.36 L 20.88,27.37 V 27.41 H 20.9 Z M 19.5,17.18 A 0.53,0.53 0 0,1 20.18,17.41 C 20.19,17.43 20.21,17.43 20.23,17.42 L 20.25,17.4 V 17.35 A 0.5,0.5 0 0,0 20.12,17.19 A 0.1,0.1 0 0,1 20.08,17.14 A 0.66,0.66 0 0,1 20.12,16.72 V 16.7 H 20.1 A 13.03,13.03 0 0,1 19.47,17.16 C 19.47,17.18 19.47,17.19 19.49,17.18 Z M 19.31,17.93 C 19.19,17.69 19.19,17.53 19.34,17.29 V 17.28 H 19.32 L 18.73,17.78 A 0.02,0.02 0 0,0 18.73,17.81 A 0.03,0.03 0 0,0 18.75,17.82 C 18.98,17.78 19.11,17.83 19.3,17.94 H 19.31 Z M 17.88,19.51 L 17.93,19.55 H 17.95 C 17.96,19.55 17.97,19.55 17.97,19.53 V 19.5 A 0.05,0.05 0 0,0 17.95,19.47 C 17.4,19.1 17.83,18.32 18.5,18.62 H 18.52 V 18.6 A 0.5,0.5 0 0,1 18.53,18 V 17.98 H 18.51 A 13.02,13.02 0 0,0 17.15,19.48 H 17.16 C 17.38,19.31 17.6,19.3 17.84,19.46 L 17.88,19.51 Z M 12.52,29.03 C 12.87,28.83 13.09,29.31 12.75,29.43 C 12.73,29.43 12.72,29.44 12.74,29.46 C 12.94,29.78 13.64,29.22 13.01,28.76 C 12.57,28.45 12.14,28.6 11.89,29.04 C 11.76,29.27 11.98,30.32 12.03,30.64 A 0.06,0.06 0 0,0 12.07,30.69 H 12.1 L 13.75,30.39 C 14.03,30.34 14.1,30.65 13.9,30.69 C 13.53,30.79 12.94,30.89 12.13,31 C 12.11,31 12.1,31.02 12.1,31.04 L 12.15,31.32 C 12.15,31.34 12.17,31.35 12.2,31.35 L 13.86,30.98 C 13.96,30.96 14.09,30.97 14.12,31.08 C 14.16,31.27 14,31.29 13.85,31.32 L 12.28,31.67 C 12.25,31.67 12.24,31.69 12.25,31.71 L 12.32,31.99 C 12.32,32.01 12.34,32.02 12.36,32.01 C 13.17,31.78 13.74,31.62 14.08,31.55 C 14.28,31.51 14.38,31.8 14.1,31.88 L 12.45,32.32 C 12.43,32.32 12.42,32.34 12.42,32.36 L 12.5,32.63 C 12.5,32.65 12.52,32.66 12.54,32.65 L 14.16,32.14 C 14.41,32.06 14.58,32.36 14.31,32.44 C 13.75,32.62 13.2,32.79 12.64,32.95 C 12.62,32.95 12.61,32.97 12.62,32.99 L 12.72,33.29 C 12.72,33.3 12.74,33.31 12.76,33.3 L 14.39,32.7 C 14.49,32.67 14.56,32.68 14.64,32.74 C 14.67,32.76 14.67,32.75 14.66,32.72 A 14,14 0 0,1 15.62,21.11 V 21.07 L 13.89,20.05 C 13.86,20.05 13.85,20.05 13.83,20.07 L 13.74,20.23 V 20.25 L 13.76,20.28 L 15.31,21.13 C 15.33,21.13 15.34,21.16 15.34,21.18 V 21.34 L 15.32,21.38 L 15.29,21.39 C 15.21,21.42 15.11,21.39 15,21.34 A 282.1,282.1 0 0,0 13.57,20.58 A 0.05,0.05 0 0,0 13.55,20.6 L 13.42,20.85 C 13.42,20.87 13.42,20.88 13.44,20.89 L 15.04,21.72 C 15.2,21.81 15.09,22.12 14.84,21.99 L 13.28,21.19 C 13.27,21.19 13.26,21.19 13.25,21.21 L 13.14,21.45 C 13.13,21.47 13.14,21.49 13.15,21.5 L 14.7,22.19 C 14.9,22.27 14.83,22.6 14.57,22.49 L 13.02,21.81 L 12.99,21.82 L 12.88,22.07 A 0.04,0.04 0 0,0 12.88,22.12 H 12.9 L 14.42,22.73 C 14.7,22.85 14.62,23.16 14.34,23.06 C 13.82,22.86 13.3,22.66 12.79,22.43 C 12.77,22.43 12.75,22.43 12.74,22.45 L 12.66,22.69 V 22.72 L 12.68,22.74 L 14.01,23.23 C 14.16,23.28 14.61,23.4 14.36,23.63 A 0.08,0.08 0 0,1 14.31,23.65 C 14.25,23.65 14.18,23.65 14.12,23.62 L 12.58,23.06 C 12.56,23.06 12.55,23.06 12.54,23.08 L 12.44,23.32 A 0.06,0.06 0 0,0 12.46,23.39 H 12.48 L 14.19,23.91 A 0.1,0.1 0 0,1 14.24,23.95 C 14.31,24.05 14.28,24.14 14.18,24.21 A 0.1,0.1 0 0,1 14.08,24.22 L 12.38,23.72 A 0.06,0.06 0 0,0 12.34,23.72 L 12.33,23.74 L 12.32,23.76 L 12.27,23.98 L 12.28,24.01 L 12.31,24.03 L 13.94,24.44 C 14.13,24.49 14.18,24.67 14.01,24.78 A 0.05,0.05 0 0,1 13.96,24.78 L 12.23,24.36 C 12.2,24.35 12.18,24.36 12.18,24.39 L 12.13,24.63 C 12.13,24.65 12.13,24.67 12.15,24.67 L 13.77,25.05 C 14.05,25.11 14.03,25.44 13.76,25.38 A 97.94,97.94 0 0,1 12.06,25.01 L 12.05,25.02 L 11.98,25.34 A 0.04,0.04 0 0,0 12.01,25.38 C 12.59,25.48 13.17,25.59 13.74,25.72 C 13.96,25.76 13.87,26.05 13.64,26.02 A 248.64,248.64 0 0,1 11.94,25.71 L 11.82,26.91 C 11.81,27.05 11.82,27.16 11.86,27.25 C 12.1,27.78 12.74,27.86 13.12,27.42 C 13.4,27.08 13.12,26.75 12.72,26.75 L 12.68,26.77 A 0.06,0.06 0 0,0 12.67,26.86 L 12.71,26.88 C 12.89,26.93 12.91,27.17 12.77,27.28 C 12.65,27.38 12.41,27.28 12.39,27.12 C 12.28,26.2 13.43,26.44 13.48,27.07 C 13.51,27.51 13.24,27.77 12.83,27.92 C 12.81,27.92 12.81,27.93 12.83,27.94 C 13.04,28 13.25,27.99 13.46,27.94 C 13.66,27.88 13.75,28.2 13.57,28.31 A 0.08,0.08 0 0,1 13.53,28.32 L 12.79,28.3 L 12.76,28.31 V 28.36 L 12.78,28.37 C 13.11,28.47 13.44,28.68 13.52,29.03 C 13.73,29.99 12.12,30.07 12.49,29.07 C 12.49,29.05 12.51,29.04 12.52,29.03 Z M 41.69,23.76 C 41.59,23.59 41.74,23.51 41.88,23.46 C 42.38,23.29 42.87,23.11 43.36,22.92 C 43.38,22.92 43.38,22.9 43.38,22.88 L 43.28,22.65 C 43.28,22.63 43.26,22.62 43.24,22.63 L 41.65,23.26 H 41.59 A 0.19,0.19 0 0,1 41.48,23.09 L 41.49,23.04 C 41.62,22.88 41.77,22.87 41.92,22.81 L 43.14,22.32 C 43.16,22.32 43.16,22.3 43.15,22.27 L 43.05,22.02 C 43.03,22.01 43.02,22 43,22.01 L 41.52,22.65 C 41.4,22.7 41.32,22.67 41.27,22.57 V 22.52 C 41.32,22.44 41.35,22.39 41.44,22.34 L 42.88,21.69 C 42.9,21.69 42.91,21.67 42.9,21.65 L 42.78,21.43 V 21.42 L 42.76,21.41 A 0.04,0.04 0 0,0 42.73,21.41 L 41.51,22.03 A 2.44,2.44 0 0,1 41.09,22.19 A 0.12,0.12 0 0,1 41.01,22.15 A 0.11,0.11 0 0,1 40.99,22.1 C 40.94,21.92 41.03,21.91 41.19,21.83 A 150.52,150.52 0 0,0 42.61,21.08 V 21.05 L 42.49,20.81 C 42.47,20.79 42.46,20.78 42.44,20.79 L 40.92,21.59 A 0.12,0.12 0 0,1 40.77,21.56 A 0.12,0.12 0 0,1 40.75,21.52 C 40.72,21.42 40.75,21.35 40.81,21.31 C 41.3,21.02 41.79,20.75 42.28,20.49 C 42.3,20.49 42.31,20.47 42.3,20.45 L 42.2,20.28 C 42.2,20.26 42.18,20.26 42.16,20.27 L 40.48,21.25 A 10.86,10.86 0 0,1 41.16,22.72 L 41.47,23.52 A 13.9,13.9 0 0,1 41.55,32.47 C 41.52,32.57 41.45,32.69 41.43,32.82 C 41.4,32.93 41.38,33.02 41.35,33.08 C 41.15,33.51 40.97,34.01 40.77,34.4 C 40.64,34.67 40.49,34.93 40.34,35.2 C 40.3,35.25 40.31,35.3 40.37,35.33 L 41.94,36.23 A 0.07,0.07 0 0,0 41.99,36.23 A 0.07,0.07 0 0,0 42.03,36.21 L 42.13,36.03 C 42.15,36.01 42.14,35.99 42.13,35.98 L 40.63,35.15 A 0.3,0.3 0 0,1 40.53,35.03 A 0.06,0.06 0 0,1 40.53,34.98 C 40.59,34.81 40.73,34.84 40.86,34.91 A 63.8,63.8 0 0,1 42.31,35.7 L 42.46,35.45 V 35.44 A 0.03,0.03 0 0,0 42.46,35.42 L 42.44,35.41 C 41.82,35.11 41.31,34.84 40.93,34.63 C 40.74,34.53 40.87,34.27 41.1,34.38 L 42.58,35.12 C 42.6,35.13 42.61,35.12 42.62,35.11 L 42.74,34.86 C 42.75,34.84 42.74,34.83 42.73,34.82 L 41.09,34.08 C 41.06,34.06 41.05,34.04 41.05,34.01 L 41.07,33.86 L 41.08,33.84 L 41.11,33.82 C 41.19,33.82 41.25,33.82 41.31,33.85 C 41.83,34.06 42.35,34.29 42.86,34.52 C 42.88,34.52 42.89,34.52 42.9,34.5 L 43,34.3 C 43,34.28 43,34.26 42.98,34.25 C 42.15,33.9 41.63,33.66 41.41,33.55 C 41.25,33.47 41.35,33.19 41.55,33.27 A 44.64,44.64 0 0,1 43.12,33.95 A 0.06,0.06 0 0,0 43.15,33.91 L 43.25,33.65 V 33.63 L 43.23,33.61 L 41.61,33.01 A 0.12,0.12 0 0,1 41.56,32.98 C 41.49,32.9 41.49,32.82 41.55,32.75 A 0.13,0.13 0 0,1 41.7,32.7 L 43.34,33.3 C 43.36,33.31 43.38,33.3 43.38,33.28 L 43.47,33.02 V 32.99 L 43.44,32.97 L 41.81,32.45 A 0.14,0.14 0 0,1 41.73,32.39 A 0.13,0.13 0 0,1 41.72,32.29 C 41.77,32.14 41.88,32.15 42.01,32.19 L 43.54,32.65 C 43.56,32.65 43.57,32.65 43.58,32.63 L 43.65,32.43 A 0.07,0.07 0 0,0 43.65,32.37 A 0.07,0.07 0 0,0 43.6,32.34 L 41.95,31.89 A 0.08,0.08 0 0,1 41.91,31.86 C 41.81,31.73 41.91,31.56 42.05,31.59 L 43.71,32.03 C 43.74,32.03 43.75,32.03 43.76,32 L 43.82,31.75 C 43.82,31.72 43.82,31.71 43.8,31.7 C 43.26,31.59 42.73,31.47 42.2,31.34 C 41.9,31.27 42,30.98 42.2,31.03 A 79,79 0 0,1 43.88,31.37 A 0.06,0.06 0 0,0 43.91,31.33 L 43.96,31.08 C 43.96,31.06 43.96,31.05 43.94,31.05 A 41.08,41.08 0 0,1 42.18,30.72 L 42.15,30.7 L 42.14,30.68 C 42.06,30.51 42.17,30.42 42.34,30.45 L 43.99,30.75 C 44.01,30.75 44.02,30.75 44.02,30.73 C 44.15,29.98 44.21,29.52 44.2,29.33 C 44.19,29.12 44.08,29.01 43.94,28.85 C 43.69,28.58 43.25,28.66 43,28.88 C 42.53,29.29 43.1,29.84 43.34,29.56 C 43.35,29.54 43.34,29.52 43.33,29.51 L 43.21,29.42 A 0.07,0.07 0 0,1 43.18,29.38 C 43.1,29.02 43.58,28.93 43.61,29.33 C 43.64,30.06 42.81,29.96 42.6,29.45 C 42.42,29.01 42.88,28.59 43.28,28.47 A 0.03,0.03 0 0,0 43.3,28.44 V 28.42 L 43.28,28.41 C 43.03,28.38 42.78,28.44 42.53,28.41 A 0.05,0.05 0 0,1 42.49,28.39 C 42.41,28.26 42.42,28.07 42.59,28.03 H 42.65 C 42.82,28.12 43.05,28.06 43.23,28.07 A 0.03,0.03 0 0,0 43.26,28.04 V 28.03 L 43.24,28.01 C 42.54,27.79 42.25,26.88 43.16,26.65 C 43.86,26.47 43.72,27.76 43.26,27.37 C 43.11,27.23 43.23,27.07 43.36,26.98 V 26.94 A 0.23,0.23 0 0,0 43.1,26.9 C 42.27,27.26 43.56,28.45 44.17,27.4 C 44.3,27.16 44.13,26.19 44.09,25.9 C 44.09,25.86 44.06,25.85 44.03,25.85 L 42.4,26.15 C 42.19,26.19 42.13,25.88 42.39,25.83 L 43.99,25.53 C 44.02,25.53 44.02,25.51 44.02,25.49 L 43.97,25.19 C 43.97,25.16 43.96,25.15 43.94,25.16 L 42.35,25.51 C 42.09,25.57 42,25.28 42.23,25.22 L 43.86,24.82 C 43.89,24.82 43.9,24.81 43.89,24.78 L 43.85,24.57 A 0.05,0.05 0 0,0 43.81,24.53 H 43.79 L 42.22,24.91 C 42.07,24.94 41.97,24.91 41.96,24.75 L 41.98,24.7 C 42.08,24.6 42.18,24.6 42.28,24.57 L 43.74,24.2 C 43.76,24.2 43.77,24.18 43.76,24.16 A 0.4,0.4 0 0,1 43.7,23.96 A 0.07,0.07 0 0,0 43.67,23.91 A 0.07,0.07 0 0,0 43.61,23.91 L 42.01,24.36 C 41.82,24.41 41.76,24.23 41.84,24.11 A 0.08,0.08 0 0,1 41.89,24.07 L 43.56,23.57 C 43.58,23.57 43.59,23.57 43.58,23.54 L 43.49,23.26 C 43.49,23.24 43.47,23.24 43.45,23.24 L 41.85,23.81 A 0.13,0.13 0 0,1 41.69,23.76 Z M 27.51,20.93 A 7.15,7.15 0 0,0 21,27.03 C 21,27.06 21,27.07 21.02,27.08 L 21.36,27.21 H 21.38 A 0.03,0.03 0 0,0 21.4,27.2 V 27.19 A 6.72,6.72 0 0,1 31.53,22.29 A 6.68,6.68 0 0,1 34.82,27.21 C 34.82,27.23 34.84,27.24 34.86,27.23 L 35.16,27.11 C 35.18,27.11 35.19,27.1 35.18,27.08 A 7.19,7.19 0 0,0 27.51,20.93 Z M 25.48,33.7 A 6.1,6.1 0 0,0 33.14,31.71 A 6.16,6.16 0 0,0 25.1,22.78 A 6.18,6.18 0 0,0 25.48,33.7 Z M 16.83,27.54 C 16.23,29.28 18.53,30.83 19.83,29.31 C 20.73,28.26 20.07,26.61 18.71,26.41 C 17.91,26.29 17.08,26.81 16.83,27.54 Z M 36.59,29.54 C 37.73,30.44 39.35,29.63 39.42,28.24 C 39.51,26.64 37.52,25.81 36.42,27.04 C 36.12,27.36 35.94,27.76 35.96,28.14 C 35.97,28.7 36.14,29.18 36.59,29.54 Z M 12.29,27.92 A 1.4,1.4 0 0,1 11.81,27.63 A 0.02,0.02 0 0,0 11.79,27.64 V 27.92 L 11.81,27.94 L 11.83,27.95 H 12.3 A 0.01,0.01 0 0,0 12.3,27.93 Z M 44.19,28.07 A 0.05,0.05 0 0,0 44.23,28.06 V 28.04 L 44.24,28.02 V 27.79 L 44.23,27.77 A 0.04,0.04 0 0,0 44.19,27.75 L 44.18,27.76 A 0.9,0.9 0 0,1 43.75,28.03 H 43.74 V 28.08 H 43.78 C 43.88,28.06 44.02,28.06 44.18,28.08 Z M 40.12,28.21 L 40.45,28.31 C 40.47,28.32 40.48,28.31 40.49,28.29 V 28.09 A 0.03,0.03 0 0,0 40.48,28.07 H 40.46 L 40.12,28.2 V 28.21 Z M 12.37,28.3 A 4.53,4.53 0 0,0 11.78,28.31 V 28.33 L 11.83,28.64 C 11.83,28.67 11.84,28.67 11.86,28.65 C 11.99,28.49 12.16,28.39 12.36,28.35 C 12.48,28.32 12.48,28.31 12.36,28.3 Z M 40.07,28.78 L 40.13,28.91 V 28.96 L 40.04,29.05 A 0.03,0.03 0 0,0 40.04,29.07 V 29.08 H 40.05 C 40.19,29.12 40.31,29.08 40.41,28.98 A 0.08,0.08 0 0,0 40.43,28.93 V 28.66 C 40.43,28.63 40.42,28.61 40.4,28.6 A 0.84,0.84 0 0,0 39.66,28.43 A 0.05,0.05 0 0,0 39.63,28.47 C 39.23,30.44 36.57,30.81 35.83,28.81 C 35.78,28.64 35.81,28.56 35.59,28.51 A 1.47,1.47 0 0,0 35.19,28.47 C 34.93,28.48 34.84,28.73 34.92,28.94 C 34.97,29.06 35.1,29.11 35.21,29.15 A 0.04,0.04 0 0,0 35.26,29.14 V 29.11 L 35.25,29.09 L 35.07,28.97 A 0.08,0.08 0 0,1 35.04,28.93 C 34.94,28.61 35.41,28.55 35.38,28.88 L 35.39,28.93 C 35.59,29.17 35.4,29.25 35.36,29.46 L 35.29,29.83 C 35.25,30.04 35.12,30.28 35.09,30.53 A 0.04,0.04 0 0,0 35.11,30.56 L 35.13,30.57 H 35.15 C 36.1,29.87 37.31,30.48 36.35,30.37 H 36.31 A 0.3,0.3 0 0,0 36.13,30.57 C 36.13,30.59 36.12,30.61 36.09,30.61 C 33.62,31.32 36.61,30.84 36.99,31.16 C 37.35,31.46 36.69,31.8 36.67,31.31 A 0.04,0.04 0 0,0 36.64,31.28 C 35.96,31.04 35.41,31.38 34.81,31.6 A 0.05,0.05 0 0,1 34.77,31.59 L 34.68,31.52 C 34.66,31.5 34.64,31.5 34.63,31.53 C 34.53,31.81 34.31,32.03 34.13,32.3 L 33.98,32.55 A 0.04,0.04 0 0,1 33.95,32.57 A 0.04,0.04 0 0,1 33.92,32.57 L 33.85,32.51 L 33.83,32.49 A 0.07,0.07 0 0,1 33.83,32.43 C 33.83,32.42 33.83,32.41 33.85,32.41 C 34.56,31.81 34.96,30.3 35.16,29.44 V 29.38 A 0.08,0.08 0 0,0 35.11,29.35 A 0.49,0.49 0 0,1 34.86,29.21 L 34.84,29.19 A 0.05,0.05 0 0,0 34.79,29.21 L 34.77,29.23 C 34.75,29.41 34.72,29.57 34.67,29.73 C 34.53,30.15 34.47,30.49 34.27,30.95 A 6.86,6.86 0 0,1 28.79,34.92 A 6.81,6.81 0 0,1 21.41,29.22 L 21.08,29.39 C 21.06,29.39 21.06,29.41 21.06,29.42 A 7.36,7.36 0 0,0 26.41,35.14 C 29.07,35.8 32.25,34.34 33.59,32.75 A 0.73,0.73 0 0,1 33.82,32.57 A 0.08,0.08 0 0,1 33.91,32.59 A 0.07,0.07 0 0,1 33.91,32.68 A 7.2,7.2 0 0,1 25.11,34.94 C 23.6,34.24 22.41,33.13 21.55,31.61 C 21.54,31.58 21.52,31.58 21.5,31.6 L 21.47,31.63 A 0.05,0.05 0 0,1 21.41,31.64 C 20.9,31.41 20.49,31.27 20.19,31.21 A 0.92,0.92 0 0,0 19.57,31.34 L 19.56,31.36 C 19.56,31.46 19.51,31.53 19.42,31.58 A 0.07,0.07 0 0,1 19.36,31.58 L 19.18,31.53 L 19.16,31.51 L 19.14,31.49 C 18.97,31.02 19.81,30.86 20.1,30.88 C 20.41,30.89 20.82,31.08 21.15,31.18 C 21.19,31.18 21.19,31.18 21.17,31.15 A 4.47,4.47 0 0,0 20.67,30.7 A 0.08,0.08 0 0,0 20.61,30.68 C 20.45,30.7 20.31,30.68 20.15,30.63 A 0.08,0.08 0 0,1 20.1,30.59 A 0.48,0.48 0 0,0 19.95,30.4 A 0.1,0.1 0 0,0 19.89,30.39 C 19.75,30.39 19.54,30.43 19.48,30.26 V 30.21 C 19.54,30.11 19.65,30.04 19.79,30.01 C 20.29,29.92 20.74,30.15 21.04,30.52 L 21.07,30.53 H 21.09 L 21.11,30.51 V 30.49 C 20.93,30.05 20.86,29.59 20.72,29.14 V 29.09 L 20.84,28.79 C 20.89,28.59 21.13,28.58 21.19,28.76 C 21.26,28.96 21.09,28.98 20.99,29.08 A 0.03,0.03 0 0,0 20.99,29.13 V 29.14 H 21.02 C 21.15,29.11 21.25,29.04 21.32,28.94 A 0.07,0.07 0 0,0 21.34,28.88 C 21.33,28.79 21.33,28.65 21.28,28.58 C 21.15,28.37 20.64,28.48 20.48,28.57 A 0.06,0.06 0 0,0 20.44,28.61 C 19.88,30.75 17.14,30.59 16.54,28.58 C 16.47,28.38 16.08,28.38 15.91,28.39 C 15.71,28.41 15.67,28.49 15.66,28.67 C 15.66,28.84 15.74,28.96 15.91,29.02 H 15.93 A 0.04,0.04 0 0,0 15.94,28.96 L 15.81,28.86 A 0.08,0.08 0 0,1 15.78,28.81 C 15.74,28.57 15.98,28.49 16.14,28.66 C 16.16,28.67 16.16,28.69 16.17,28.71 C 16.17,29.03 16.33,29.29 16.37,29.6 A 11.53,11.53 0 0,0 17.01,32.06 A 0.03,0.03 0 0,0 17.05,32.05 V 32.03 C 17.05,31.74 17.26,31.11 17.67,31.26 C 17.69,31.27 17.7,31.29 17.7,31.32 L 17.64,31.56 C 17.64,31.58 17.62,31.59 17.6,31.59 C 17.54,31.6 17.52,31.63 17.53,31.67 C 17.55,31.84 17.57,31.99 17.57,32.12 C 17.57,32.36 17.43,32.58 17.32,32.8 V 32.86 L 17.53,33.29 A 0.04,0.04 0 0,0 17.59,33.29 V 33.28 C 17.59,32.66 17.89,31.75 18.53,31.51 C 19.03,31.33 19.05,32.04 18.62,31.86 A 0.06,0.06 0 0,0 18.56,31.86 A 1.5,1.5 0 0,0 17.96,32.89 C 17.89,33.27 17.83,33.87 18.03,34.19 A 11.8,11.8 0 0,0 29.7,39.79 C 33.25,39.3 36.4,37.13 38.21,34.13 C 38.44,33.75 38.3,32.83 38.17,32.47 A 1.23,1.23 0 0,0 37.62,31.83 H 37.58 C 37.42,31.97 37.2,31.69 37.38,31.55 C 37.69,31.29 38.22,31.9 38.33,32.13 C 38.38,32.22 38.4,32.33 38.44,32.43 A 2.26,2.26 0 0,1 38.62,33.31 A 0.03,0.03 0 0,0 38.65,33.31 H 38.66 L 38.89,32.84 A 0.07,0.07 0 0,0 38.89,32.77 C 38.7,32.4 38.56,32.21 38.67,31.77 C 38.69,31.67 38.67,31.6 38.6,31.54 A 0.77,0.77 0 0,1 38.56,31.5 A 0.48,0.48 0 0,1 38.51,31.37 V 31.33 C 38.53,31.24 38.58,31.21 38.65,31.23 A 0.6,0.6 0 0,1 39.09,31.71 C 39.12,31.8 39.11,31.94 39.14,32.03 C 39.16,32.11 39.19,32.11 39.21,32.03 C 39.53,31.13 39.74,30.23 39.83,29.35 C 39.85,29.12 39.73,28.92 40.03,28.77 C 40.04,28.76 40.06,28.77 40.07,28.78 Z M 43.55,28.42 C 43.83,28.49 43.97,28.52 44.18,28.72 L 44.19,28.73 A 0.03,0.03 0 0,0 44.22,28.72 V 28.41 C 44.22,28.39 44.22,28.38 44.2,28.38 L 43.55,28.39 L 43.54,28.41 A 0.02,0.02 0 0,0 43.55,28.42 Z M 27.83,40.12 A 12.25,12.25 0 0,1 16.05,29.26 A 0.04,0.04 0 0,0 16.02,29.26 A 0.3,0.3 0 0,1 15.78,29.22 H 15.73 L 15.71,29.24 V 29.26 A 12.6,12.6 0 0,0 19.95,37.37 A 12.3,12.3 0 0,0 35.7,37.84 A 12.38,12.38 0 0,0 40.43,29.3 C 40.43,29.28 40.43,29.27 40.4,29.28 L 40.1,29.34 C 40.08,29.34 40.07,29.35 40.07,29.37 A 12.36,12.36 0 0,1 27.83,40.13 Z M 14.6,33.27 C 14.82,33.17 14.97,33.47 14.7,33.58 A 41.33,41.33 0 0,1 13.12,34.3 L 13.24,34.54 C 13.24,34.56 13.26,34.56 13.28,34.55 C 13.93,34.24 14.48,33.99 14.92,33.81 A 0.2,0.2 0 0,1 15.08,33.81 C 15.09,33.83 15.1,33.82 15.09,33.81 L 14.71,32.85 H 14.7 A 0.02,0.02 0 0,0 14.68,32.85 H 14.67 L 14.65,32.94 C 14.65,32.96 14.63,32.97 14.61,32.98 C 14.1,33.18 13.58,33.38 13.07,33.55 A 0.66,0.66 0 0,1 12.87,33.58 H 12.85 V 33.59 A 0.03,0.03 0 0,0 12.84,33.62 L 12.99,33.96 C 12.99,33.98 13.01,33.99 13.03,33.98 C 13.55,33.73 14.07,33.49 14.6,33.27 Z M 15.24,34.36 C 15.31,34.39 15.35,34.45 15.36,34.52 L 15.35,34.59 A 0.12,0.12 0 0,1 15.29,34.64 L 13.71,35.44 C 13.69,35.46 13.69,35.47 13.7,35.49 L 13.84,35.76 C 13.85,35.78 13.87,35.78 13.88,35.77 L 13.98,35.69 L 15.34,34.92 C 15.44,34.86 15.54,34.85 15.63,34.91 H 15.64 V 34.89 L 15.18,33.99 C 15.18,33.97 15.16,33.97 15.15,33.99 A 0.26,0.26 0 0,1 15.08,34.09 A 34.75,34.75 0 0,1 13.4,34.84 C 13.38,34.84 13.38,34.86 13.39,34.87 L 13.53,35.17 H 13.54 L 15.11,34.36 A 0.15,0.15 0 0,1 15.24,34.36 Z M 15.69,34.98 C 15.66,35.08 15.64,35.12 15.55,35.18 C 15.05,35.48 14.55,35.76 14.02,36.02 C 14.01,36.03 14,36.05 14.02,36.06 L 14.15,36.29 L 14.17,36.3 A 0.04,0.04 0 0,0 14.19,36.3 L 15.86,35.33 C 15.88,35.33 15.88,35.31 15.87,35.29 L 15.69,34.98 Z M 15.36,36.47 A 0.92,0.92 0 0,1 14.97,36.32 A 0.13,0.13 0 0,0 14.84,36.32 L 14.36,36.58 A 16.52,16.52 0 0,0 24.53,43.89 A 16.15,16.15 0 0,0 41.81,36.59 C 41.83,36.56 41.82,36.55 41.8,36.53 L 41.32,36.25 H 41.27 A 0.7,0.7 0 0,1 40.85,36.42 C 40.82,36.42 40.81,36.42 40.8,36.4 A 0.86,0.86 0 0,1 40.75,35.96 C 40.75,35.93 40.75,35.92 40.72,35.9 L 40.17,35.6 C 40.17,35.59 40.15,35.58 40.14,35.59 L 40.12,35.6 A 14.2,14.2 0 0,1 31.7,41.9 A 14.2,14.2 0 0,1 16.07,35.62 C 16.07,35.6 16.05,35.6 16.03,35.61 C 15.89,35.69 15.62,35.9 15.47,35.92 C 15.45,35.92 15.45,35.94 15.45,35.95 C 15.5,36.12 15.49,36.28 15.42,36.43 C 15.42,36.45 15.41,36.46 15.39,36.46 L 15.36,36.47 Z" fill="rgb(209, 169, 111)"/>
<path d="M 27.15,19.195 C 26.57,18.42 26.89,17.35 27.94,17.19 C 28.3,17.14 28.64,17.14 28.96,17.19 C 29.28,17.25 29.22,17.77 29.16,17.99 L 29.15,18.02 L 29.12,18.03 C 29.02,18.09 28.96,18.03 28.92,17.93 C 28.79,17.62 28.52,17.48 28.13,17.54 C 27.38,17.64 27.43,18.58 27.73,19.02 C 27.93,19.27 28.19,19.39 28.53,19.36 C 28.89,19.33 28.83,19.12 29.05,18.97 A 0.1,0.1 0 0,1 29.19,19 A 0.1,0.1 0 0,1 29.21,19.04 C 29.23,19.24 29.24,19.66 28.96,19.71 C 28.36,19.81 27.56,19.75 27.16,19.21 Z M 32.05,19.72 A 0.03,0.03 0 0,0 32.03,19.7 A 0.03,0.03 0 0,0 32,19.72 L 31.78,20.21 L 31.79,20.25 L 31.99,20.43 C 32.01,20.45 32.02,20.47 32,20.5 C 31.96,20.59 31.88,20.6 31.8,20.57 A 17.39,17.39 0 0,1 30.9,20.12 A 0.08,0.08 0 0,1 30.92,20.02 L 30.98,19.95 A 0.04,0.04 0 0,1 31.03,19.95 C 31.13,19.99 31.2,19.96 31.25,19.86 C 31.52,19.33 31.77,18.8 32.01,18.26 V 18.21 C 31.91,18.14 31.72,18.05 31.85,17.9 C 31.89,17.86 31.94,17.85 31.99,17.87 L 32.81,18.27 C 32.94,18.34 32.88,18.6 32.66,18.5 A 0.05,0.05 0 0,0 32.6,18.52 L 32.38,18.92 V 18.95 A 0.03,0.03 0 0,0 32.42,18.95 L 33.09,18.7 C 33.11,18.69 33.12,18.68 33.12,18.66 V 18.56 A 0.07,0.07 0 0,1 33.15,18.5 A 0.08,0.08 0 0,1 33.22,18.49 A 2.7,2.7 0 0,1 34.02,18.89 V 18.91 L 33.96,19.06 L 33.94,19.08 H 33.91 L 33.58,19 H 33.55 L 32.56,19.33 L 32.54,19.35 A 0.06,0.06 0 0,0 32.52,19.39 V 19.41 C 32.74,19.96 32.84,20.56 33.26,21 A 0.1,0.1 0 0,1 33.29,21.04 C 33.34,21.32 33.03,21.23 32.91,21.16 C 32.33,20.86 32.18,20.3 32.05,19.72 Z M 24.01,20.59 C 24.12,20.64 24.05,20.76 23.97,20.8 C 23.72,20.95 23.15,21.32 23.11,20.98 C 23.11,20.97 23.11,20.95 23.13,20.94 L 23.33,20.76 A 0.06,0.06 0 0,0 23.35,20.72 C 23.35,19.96 23.23,19.24 23.17,18.43 C 23.17,18.33 23.2,18.26 23.29,18.23 H 23.34 C 23.44,18.27 23.52,18.31 23.57,18.35 A 44.1,44.1 0 0,0 25.26,19.87 H 25.29 L 25.45,19.81 A 0.07,0.07 0 0,1 25.51,19.82 A 0.2,0.2 0 0,1 25.59,19.98 A 0.05,0.05 0 0,1 25.56,20.03 A 3.03,3.03 0 0,1 24.78,20.39 A 0.11,0.11 0 0,1 24.7,20.33 A 0.1,0.1 0 0,1 24.68,20.29 C 24.68,20.16 24.49,20.01 24.36,19.89 C 24.16,19.71 23.86,19.96 23.73,20.09 A 0.06,0.06 0 0,0 23.71,20.15 L 23.77,20.52 L 23.78,20.54 H 23.8 L 24.01,20.59 Z M 23.7,19.59 V 19.61 A 0.04,0.04 0 0,0 23.74,19.63 L 23.76,19.62 L 23.89,19.53 A 0.04,0.04 0 0,0 23.9,19.48 L 23.75,19.28 H 23.69 V 19.6 Z M 21.01,22.56 C 21.36,22.66 21.58,22.2 21.28,21.99 A 0.08,0.08 0 0,0 21.23,21.98 C 20.89,21.98 20.33,22.08 20.03,21.95 C 19.23,21.61 19.63,20.78 20.17,20.47 C 20.37,20.35 20.67,20.71 20.73,20.87 V 20.92 C 20.57,21.15 20.31,20.75 20.08,21.05 C 19.95,21.23 20.14,21.42 20.34,21.39 C 20.9,21.31 21.5,21.21 21.77,21.84 C 21.97,22.29 21.64,22.77 21.24,23.02 C 20.97,23.18 20.41,22.52 20.71,22.42 A 0.06,0.06 0 0,1 20.76,22.42 C 20.88,22.5 20.96,22.55 21.01,22.56 Z M 34.94,22.47 C 35.54,22.71 35.23,21.26 35.55,20.97 C 36.09,20.5 36.68,20.95 36.9,21.47 V 21.52 C 36.85,21.68 36.62,21.98 36.4,21.91 A 0.12,0.12 0 0,1 36.33,21.81 V 21.76 C 36.42,21.54 36.5,21.23 36.13,21.23 C 36.11,21.23 36.09,21.23 36.08,21.25 C 35.57,21.75 36.52,22.69 35.27,22.93 C 34.86,23.01 34.49,22.6 34.32,22.29 C 34.18,22.02 34.52,21.78 34.74,21.69 C 34.82,21.67 34.91,21.69 34.92,21.79 C 34.92,21.88 34.78,22.01 34.75,22.13 C 34.72,22.3 34.78,22.41 34.94,22.47 Z" fill="rgb(209, 169, 111)"/>
<path d="M 20.58,23.485 A 2.8,2.8 0 0,0 21.95,22.9 H 21.96 V 22.92 A 0.02,0.02 0 0,1 21.96,22.94 C 20.98,24.06 19.46,23.85 18.58,22.81 L 18.57,22.79 V 22.76 L 18.59,22.74 H 18.61 L 18.65,22.76 C 19.15,23.22 19.89,23.59 20.59,23.51 Z M 37.64,22.87 C 37.49,23.11 37.17,23.35 36.92,23.49 A 2.09,2.09 0 0,1 34.28,22.99 L 34.29,22.96 A 0.04,0.04 0 0,1 34.34,22.96 C 34.94,23.37 35.48,23.7 36.25,23.54 A 2.56,2.56 0 0,0 37.61,22.82 H 37.63 A 0.04,0.04 0 0,1 37.64,22.87 Z M 27.94,25.1 C 28.2,25.12 28.92,25.16 28.92,25.46 A 24.39,24.39 0 0,0 28.92,26.49 A 0.09,0.09 0 0,1 28.87,26.53 C 28.77,26.56 28.69,26.48 28.68,26.37 C 28.64,25.91 28.23,25.62 27.78,25.5 L 27.76,25.51 V 25.53 L 27.88,25.57 C 27.91,25.57 27.92,25.59 27.92,25.61 C 27.95,26.21 27.96,26.95 27.95,27.86 C 27.95,27.92 27.98,27.94 28.05,27.93 L 28.1,27.94 C 28.8,28.41 29.15,29.04 29.1,29.89 C 29.08,30.08 28.93,30.33 28.81,30.52 C 28.75,30.62 28.04,31.22 28.05,31.22 L 28.08,31.26 L 28.1,31.32 L 28.18,31.69 C 28.26,31.99 28.96,31.83 29.18,31.98 L 29.2,32.02 C 29.23,32.26 28.93,32.27 28.76,32.26 L 26.46,32.24 C 26.26,32.24 26.09,32.24 25.91,32.21 C 25.74,32.2 25.7,31.97 25.88,31.94 C 26.28,31.85 26.5,31.94 26.58,31.44 C 26.58,31.42 26.58,31.41 26.55,31.41 A 2.97,2.97 0 0,1 25.4,31.1 V 31.07 A 47.45,47.45 0 0,1 25.47,29.74 C 25.47,29.72 25.48,29.71 25.5,29.7 A 0.08,0.08 0 0,1 25.6,29.7 L 25.62,29.75 C 25.66,30.11 25.77,30.52 26.1,30.72 C 26.19,30.77 26.7,30.89 26.7,30.89 L 26.69,28.41 C 26.69,28.4 26.69,28.39 26.67,28.38 C 26.37,28.32 26.02,27.97 25.87,27.75 C 25.79,27.63 25.75,27.48 25.68,27.33 C 25.41,26.7 25.58,26.03 26.08,25.6 C 26.3,25.4 26.55,25.3 26.84,25.2 C 26.8,25.18 26.77,25.19 26.74,25.21 A 0.03,0.03 0 0,1 26.7,25.21 L 26.69,25.2 C 26.64,24.9 26.67,24.41 26.26,24.36 C 26.12,24.35 25.74,24.34 25.63,24.26 A 0.08,0.08 0 0,1 25.6,24.18 L 25.63,24.13 A 0.08,0.08 0 0,1 25.68,24.11 C 26.08,24.09 26.55,24.13 26.86,24.13 H 28.73 C 29.23,24.13 29.58,24.16 29.79,24.21 C 30.78,24.44 31.39,25.15 31.36,26.17 C 31.31,27.3 30.74,28.06 29.64,28.45 C 29.37,28.55 29.12,28.58 28.84,28.55 A 0.09,0.09 0 0,1 28.79,28.54 A 0.09,0.09 0 0,1 28.78,28.43 A 0.09,0.09 0 0,1 28.82,28.39 C 29.45,28.17 29.97,27.78 30.1,27.09 C 30.34,25.87 29.76,24.64 28.34,24.56 C 27.98,24.54 28.03,24.83 27.91,25.05 A 0.03,0.03 0 0,0 27.91,25.08 L 27.92,25.09 H 27.94 Z M 26.68,25.85 C 26.28,26.13 26.47,26.67 26.66,26.98 L 26.67,26.99 H 26.69 A 0.02,0.02 0 0,0 26.71,26.99 C 26.75,26.9 26.71,26.81 26.71,26.75 A 113.57,113.57 0 0,1 26.68,25.85 Z M 27.97,29.43 V 30.4 H 27.98 C 28.03,30.4 28.08,30.35 28.1,30.26 C 28.14,30.16 28.23,29.42 27.97,29.42 Z M 19.1,29.63 A 1.57,1.57 0 0,1 17.87,29.59 A 1.65,1.65 0 0,1 16.9,28.09 A 1.58,1.58 0 0,1 17.37,26.97 A 1.55,1.55 0 0,1 18.51,26.53 A 1.62,1.62 0 0,1 19.63,27.03 A 1.65,1.65 0 0,1 20.09,28.18 A 1.58,1.58 0 0,1 19.61,29.3 C 19.46,29.44 19.29,29.55 19.09,29.63 Z M 19.02,29.4 A 1.3,1.3 0 0,0 19.85,28.16 A 1.38,1.38 0 0,0 19.45,27.19 A 1.4,1.4 0 0,0 18.49,26.78 A 1.33,1.33 0 0,0 17.54,27.15 A 1.31,1.31 0 0,0 17.14,28.1 A 1.38,1.38 0 0,0 17.98,29.37 A 1.37,1.37 0 0,0 19.02,29.4 Z M 37.33,29.7 C 36.93,29.6 36.58,29.35 36.36,29 A 1.61,1.61 0 0,1 36.88,26.82 C 37.24,26.59 37.66,26.52 38.07,26.62 C 38.47,26.71 38.82,26.96 39.04,27.32 C 39.25,27.66 39.32,28.09 39.22,28.5 C 39.12,28.91 38.87,29.27 38.52,29.49 C 38.16,29.71 37.73,29.79 37.32,29.69 Z M 37.44,29.48 A 1.36,1.36 0 0,0 38.8,27.4 A 1.31,1.31 0 0,0 36.95,27.06 A 1.36,1.36 0 0,0 36.59,28.92 C 36.79,29.22 37.09,29.42 37.44,29.48 Z" fill="rgb(209, 169, 111)"/>
<path d="M 18.229999999999997,28.564999999999998 L 18.32,28.5 L 18.34,28.49 H 18.36 A 0.03,0.03 0 0,1 18.37,28.53 L 18.32,28.75 C 18.32,28.77 18.3,28.78 18.28,28.78 L 17.69,28.79 C 17.65,28.79 17.61,28.78 17.6,28.74 A 0.06,0.06 0 0,1 17.62,28.67 C 17.82,28.5 18.34,27.97 17.96,27.73 H 17.93 C 17.82,27.73 17.75,27.78 17.72,27.87 C 17.7,27.93 17.61,27.92 17.61,27.86 C 17.61,27.52 18.04,27.41 18.24,27.67 C 18.44,27.94 18.08,28.37 17.89,28.55 A 0.03,0.03 0 0,0 17.91,28.59 L 18.21,28.6 H 18.23 L 18.24,28.58 Z M 18.85,28.81 A 0.26,0.26 0 0,1 18.7,28.77 A 0.45,0.45 0 0,1 18.57,28.63 A 0.93,0.93 0 0,1 18.56,27.73 C 18.59,27.66 18.63,27.61 18.68,27.58 C 18.73,27.55 18.78,27.53 18.83,27.53 C 18.88,27.53 18.93,27.54 18.98,27.58 C 19.03,27.61 19.07,27.65 19.11,27.71 C 19.27,27.97 19.28,28.36 19.12,28.62 A 0.45,0.45 0 0,1 19,28.76 A 0.26,0.26 0 0,1 18.85,28.81 Z M 18.85,28.71 C 18.87,28.71 18.9,28.69 18.92,28.66 A 0.38,0.38 0 0,0 18.97,28.54 A 1.3,1.3 0 0,0 18.95,27.79 A 0.38,0.38 0 0,0 18.89,27.69 C 18.87,27.65 18.85,27.64 18.83,27.64 L 18.76,27.68 C 18.61,27.9 18.65,28.32 18.73,28.55 L 18.79,28.66 C 18.81,28.69 18.83,28.7 18.85,28.7 Z M 37.16,27.76 H 37.08 A 0.04,0.04 0 0,1 37.08,27.69 L 37.28,27.59 C 37.35,27.54 37.38,27.56 37.38,27.64 V 28.66 C 37.38,28.68 37.39,28.7 37.41,28.71 L 37.48,28.73 L 37.5,28.77 C 37.5,28.79 37.49,28.8 37.46,28.8 A 2.58,2.58 0 0,1 37.04,28.8 A 0.04,0.04 0 0,1 37.06,28.73 L 37.16,28.69 L 37.18,28.65 L 37.2,27.8 C 37.2,27.77 37.19,27.76 37.16,27.76 Z M 37.86,28.75 A 0.11,0.11 0 0,1 37.81,28.69 C 37.74,28.51 37.78,28.36 37.92,28.23 L 37.94,28.21 V 28.18 L 37.8,28 A 0.12,0.12 0 0,1 37.78,27.95 C 37.73,27.26 38.88,27.63 38.25,28.13 A 0.03,0.03 0 0,0 38.25,28.16 V 28.17 C 38.66,28.47 38.35,29.02 37.85,28.77 Z M 38.17,28.02 C 38.47,27.77 37.98,27.52 37.97,27.82 C 37.97,27.9 38.05,27.97 38.12,28.02 C 38.14,28.04 38.16,28.04 38.17,28.02 Z M 38.07,28.28 H 38.03 C 37.91,28.43 37.91,28.81 38.23,28.68 C 38.26,28.66 38.28,28.64 38.28,28.59 C 38.27,28.48 38.17,28.35 38.08,28.29 Z M 19.44,34.01 L 20.85,32.88 A 0.04,0.04 0 0,0 20.87,32.83 L 20.86,32.82 C 20.76,32.72 20.76,32.62 20.83,32.51 C 20.83,32.5 20.84,32.49 20.86,32.49 H 20.89 C 20.95,32.51 21.02,32.56 21.09,32.63 C 21.39,32.96 21.92,33.55 21.82,33.97 C 21.72,34.35 21.3,34.53 20.92,34.47 C 20.69,34.44 20.52,34.27 20.36,34.09 C 20.35,34.07 20.33,34.07 20.32,34.09 L 19.85,34.47 C 19.83,34.49 19.83,34.5 19.84,34.52 L 19.94,34.74 A 0.1,0.1 0 0,1 19.91,34.87 A 0.11,0.11 0 0,1 19.79,34.88 C 19.56,34.75 19.29,34.36 19.11,34.15 A 0.08,0.08 0 0,1 19.1,34.1 V 34 L 19.11,33.95 A 0.11,0.11 0 0,1 19.27,33.93 L 19.37,34.01 L 19.41,34.02 H 19.44 Z M 21.23,33.37 L 20.58,33.87 V 33.88 C 20.64,33.96 20.74,34.01 20.84,34.01 S 21.05,33.99 21.14,33.91 H 21.15 A 0.42,0.42 0 0,0 21.31,33.65 A 0.35,0.35 0 0,0 21.24,33.37 H 21.23 Z M 35.46,33.74 L 35.83,33.26 C 35.89,33.19 35.96,33.18 36.03,33.25 L 36.33,33.54 L 36.36,33.58 A 0.08,0.08 0 0,1 36.32,33.66 A 0.08,0.08 0 0,1 36.28,33.67 C 36.06,33.67 35.88,33.66 35.78,33.88 L 35.79,33.93 C 35.92,34.08 36.12,34.33 36.31,34.38 C 36.33,34.38 36.35,34.38 36.37,34.36 L 36.6,34.14 A 0.04,0.04 0 0,0 36.62,34.1 L 36.59,33.7 V 33.69 L 36.61,33.67 A 0.05,0.05 0 0,1 36.66,33.67 C 36.86,33.73 36.99,33.87 37.05,34.07 V 34.1 C 37.05,34.12 37.05,34.13 37.03,34.14 L 36.11,35.21 A 0.07,0.07 0 0,1 36.01,35.22 L 35.91,35.14 A 0.04,0.04 0 0,1 35.91,35.08 C 36.01,34.99 35.99,34.92 35.9,34.84 A 300.87,300.87 0 0,0 34.62,33.72 A 0.12,0.12 0 0,0 34.52,33.74 A 0.12,0.12 0 0,0 34.48,33.77 C 34.44,33.84 34.38,33.85 34.31,33.8 A 0.05,0.05 0 0,1 34.29,33.76 C 34.29,33.41 34.89,32.86 35.16,32.64 C 35.23,32.59 35.29,32.59 35.36,32.64 A 0.03,0.03 0 0,1 35.37,32.66 V 32.72 L 35.4,32.73 C 35.49,32.75 35.55,32.8 35.6,32.86 A 0.09,0.09 0 0,1 35.62,32.94 A 0.09,0.09 0 0,1 35.58,32.99 A 0.27,0.27 0 0,1 35.39,33.02 H 35.34 A 0.85,0.85 0 0,0 35.04,33.24 V 33.28 L 35.03,33.31 A 0.09,0.09 0 0,0 35.06,33.37 C 35.2,33.48 35.32,33.6 35.42,33.74 C 35.43,33.76 35.44,33.76 35.46,33.74 Z M 33.4,34.98 L 34.46,36.33 A 0.07,0.07 0 0,0 34.54,36.35 L 34.74,36.27 A 0.1,0.1 0 0,1 34.83,36.27 A 0.1,0.1 0 0,1 34.88,36.35 C 34.88,36.41 34.86,36.45 34.81,36.5 C 34.67,36.63 34.14,37.16 33.94,37.03 A 0.12,0.12 0 0,1 33.89,36.94 V 36.89 L 33.93,36.84 A 0.18,0.18 0 0,0 34,36.74 V 36.72 L 33.99,36.7 L 33.01,35.36 A 0.04,0.04 0 0,0 32.98,35.34 H 32.97 L 32.95,35.35 L 32.61,35.62 A 0.05,0.05 0 0,0 32.59,35.67 A 0.4,0.4 0 0,1 32.55,35.93 L 32.53,35.96 A 0.07,0.07 0 0,1 32.46,35.96 L 32.44,35.95 C 32.34,35.86 32.06,35.49 32.24,35.38 C 32.78,35.08 33.26,34.65 33.75,34.28 C 33.88,34.18 34.11,34.56 34.15,34.68 C 34.17,34.68 34.16,34.7 34.15,34.72 C 34.08,34.8 34.01,34.81 33.93,34.72 H 33.87 L 33.6,34.8 A 0.07,0.07 0 0,0 33.56,34.84 C 33.53,34.9 33.49,34.93 33.42,34.94 C 33.38,34.94 33.38,34.95 33.4,34.98 Z M 20.86,36.18 C 20.79,36.12 20.69,36.08 20.76,35.96 C 20.83,35.82 21.01,35.94 21.1,35.99 H 21.16 C 21.76,35.63 22.34,35.27 22.92,34.89 C 22.99,34.85 23.06,34.81 23.14,34.79 H 23.19 C 23.3,34.82 23.34,34.89 23.32,34.99 L 22.82,37.05 V 37.25 C 22.82,37.27 22.83,37.29 22.85,37.3 L 22.95,37.4 C 22.97,37.42 22.97,37.44 22.95,37.46 L 22.88,37.58 L 22.86,37.6 L 22.83,37.59 A 3.83,3.83 0 0,1 22.12,37.03 L 22.13,36.98 A 0.96,0.96 0 0,0 22.37,36.36 A 0.11,0.11 0 0,0 22.31,36.26 L 21.96,36.04 A 0.09,0.09 0 0,0 21.86,36.04 L 21.56,36.24 A 0.05,0.05 0 0,0 21.53,36.3 L 21.59,36.48 A 0.08,0.08 0 0,1 21.56,36.58 A 0.1,0.1 0 0,1 21.46,36.58 A 3.2,3.2 0 0,1 20.86,36.18 Z M 22.46,35.93 H 22.47 L 22.48,35.92 L 22.6,35.68 A 0.03,0.03 0 0,0 22.59,35.64 A 0.03,0.03 0 0,0 22.55,35.64 L 22.3,35.77 C 22.28,35.78 22.28,35.8 22.3,35.82 C 22.33,35.87 22.39,35.91 22.45,35.93 Z M 24.76,38.16 L 24.88,38.24 C 24.9,38.26 24.92,38.28 24.92,38.31 V 38.39 A 0.12,0.12 0 0,1 24.78,38.44 L 23.91,38.14 A 0.13,0.13 0 0,1 23.83,38.04 A 0.12,0.12 0 0,1 23.88,37.94 C 23.93,37.89 23.98,37.89 24.04,37.91 A 0.08,0.08 0 0,0 24.12,37.89 L 24.13,37.87 L 24.71,36.27 C 24.74,36.17 24.71,36.12 24.61,36.1 L 24.57,36.08 C 24.5,36.02 24.49,35.95 24.53,35.86 L 24.57,35.82 A 5.68,5.68 0 0,1 25.64,36.15 C 26.1,36.35 26.31,36.79 25.96,37.22 C 25.86,37.35 25.69,37.43 25.54,37.53 C 25.52,37.54 25.52,37.56 25.53,37.58 C 25.64,37.85 25.76,38.12 25.89,38.38 C 25.97,38.55 26.17,38.62 26.22,38.79 A 0.05,0.05 0 0,1 26.2,38.84 C 26.16,38.88 26.1,38.89 26.03,38.88 C 25.38,38.78 25.22,38.33 25.1,37.76 C 25.08,37.67 25.04,37.53 24.94,37.52 C 24.86,37.51 24.82,37.57 24.81,37.64 A 11.5,11.5 0 0,1 24.71,38.1 L 24.76,38.16 Z M 25.21,36.48 L 25.02,37.13 A 0.08,0.08 0 0,0 25.05,37.21 C 25.37,37.45 25.63,36.8 25.51,36.58 A 0.32,0.32 0 0,0 25.31,36.43 H 25.25 A 0.08,0.08 0 0,0 25.21,36.48 Z M 30.67,38.42 L 30.77,38.4 C 30.82,38.38 30.87,38.4 30.89,38.45 C 30.91,38.5 30.92,38.55 30.9,38.6 L 30.89,38.63 H 30.86 L 30.08,38.89 H 30.03 C 29.86,38.79 29.94,38.64 30.08,38.6 C 30.1,38.6 30.11,38.59 30.12,38.57 V 38.53 C 29.96,37.93 29.77,37.33 29.56,36.75 C 29.51,36.62 29.53,36.51 29.61,36.43 A 0.05,0.05 0 0,1 29.67,36.42 L 31.49,37.32 C 31.55,37.35 31.57,37.33 31.55,37.27 L 31.25,36.4 C 31.17,36.2 31.09,36.3 30.95,36.26 C 30.9,36.24 30.88,36.23 30.87,36.21 A 0.1,0.1 0 0,1 30.92,36.06 C 31.07,35.99 31.61,35.76 31.75,35.84 A 0.11,0.11 0 0,1 31.81,35.93 A 0.1,0.1 0 0,1 31.76,36.03 L 31.65,36.1 L 31.63,36.12 V 36.15 L 32.24,38.07 A 0.15,0.15 0 0,1 32.19,38.23 A 0.16,0.16 0 0,1 32.02,38.25 L 30.24,37.35 A 0.02,0.02 0 0,0 30.21,37.36 V 37.37 C 30.31,37.73 30.44,38.07 30.62,38.4 C 30.63,38.42 30.65,38.43 30.67,38.42 Z M 27.92,38.6 C 28.22,38.78 28.38,38.6 28.55,38.38 L 28.58,38.36 H 28.6 C 28.79,38.46 28.68,38.87 28.61,39 L 28.59,39.02 H 28.57 C 28.11,39.02 27.66,39 27.21,38.98 C 27.09,38.98 27.01,38.9 27.07,38.78 L 27.11,38.75 L 27.25,38.71 C 27.28,38.71 27.29,38.69 27.29,38.67 A 32.99,32.99 0 0,0 27.33,36.89 C 27.33,36.88 27.33,36.87 27.31,36.86 L 27.29,36.85 L 27.09,36.8 L 27.08,36.78 L 27.07,36.76 C 27.04,36.61 27.16,36.56 27.29,36.56 A 13.4,13.4 0 0,0 28.59,36.61 C 28.7,36.74 28.66,36.93 28.63,37.08 C 28.62,37.18 28.58,37.25 28.46,37.21 A 0.07,0.07 0 0,1 28.42,37.18 C 28.32,37 28.17,36.93 27.96,36.95 C 27.94,36.95 27.93,36.97 27.92,36.99 L 27.9,37.46 C 27.9,37.48 27.91,37.5 27.94,37.51 C 28.12,37.56 28.29,37.55 28.46,37.48 A 0.09,0.09 0 0,1 28.53,37.48 A 0.08,0.08 0 0,1 28.57,37.54 C 28.6,37.74 28.59,37.92 28.55,38.11 A 0.1,0.1 0 0,1 28.49,38.18 A 0.1,0.1 0 0,1 28.39,38.16 A 0.44,0.44 0 0,1 28.27,37.98 A 0.07,0.07 0 0,0 28.24,37.93 A 0.4,0.4 0 0,0 27.94,37.91 L 27.91,37.92 V 37.95 L 27.89,38.56 C 27.89,38.58 27.89,38.6 27.92,38.61 Z" fill="rgb(209, 169, 111)"/>
<path d="M 20.549999999999997,15.514999999999999 A 17.14,17.14 0 0,0 16.38,19.12 L 15.6,18.5 A 18.13,18.13 0 0,1 20.04,14.68 A 14.33,14.33 0 0,1 27.48,12.38 C 34.46,12.38 39.32,17.19 40.4,18.48 L 39.63,19.13 C 38.63,17.92 34.02,13.38 27.48,13.38 C 24.9,13.38 22.51,14.33 20.56,15.53 Z M 20.56,40.58 A 17.14,17.14 0 0,1 16.38,36.99 L 15.6,37.61 A 18.13,18.13 0 0,0 20.04,41.43 A 14.33,14.33 0 0,0 27.48,43.73 C 34.46,43.73 39.32,38.92 40.4,37.63 L 39.63,36.98 C 38.63,38.19 34.02,42.73 27.48,42.73 C 24.9,42.73 22.51,41.78 20.56,40.58 Z" fill="rgb(209, 169, 111)" opacity=".5"/>
<defs>
<linearGradient id="a" x1="10.42" x2="68.15" y1="9.71" y2="76.02" gradientUnits="userSpaceOnUse">
<stop stop-color="rgb(25, 29, 31)" offset="0"/>
<stop stop-color="rgb(5, 5, 8)" offset="1"/>
</linearGradient>
</defs>
</svg>
