<?xml version="1.0" encoding="UTF-8"?>
<!-- generated by Finnhub -->
<svg viewBox="0 0 55.5 55.5" xmlns="http://www.w3.org/2000/svg">
<path d="M 0,0 H 55.5 V 55.5 H 0 Z" fill="rgb(144, 207, 18)"/>
<path d="M 17.99,38.985 V 27.15 V 26.92 C 13.61,26.95 10,23.34 10,18.85 V 17 A 1,1 0 0,1 11,16 H 15.97 A 1,1 0 0,1 16.97,17 V 18.6 C 16.97,20.04 18.11,21.2 19.52,21.2 C 21.56,17.5 25.44,15 29.9,15 H 30.95 C 37.05,15 42,20.05 42,26.28 V 39 A 1,1 0 0,1 41,40 H 36 A 1,1 0 0,1 35,39 V 27.12 C 35,24.06 33,22 30,22 S 25,24.06 25,27.12 V 39 A 1,1 0 0,1 24,40 H 19 A 1,1 0 0,1 18,39 Z" fill="rgb(254, 254, 253)"/>
</svg>
