<?xml version="1.0" encoding="UTF-8"?>
<!-- generated by Finnhub -->
<svg viewBox="0 0 55.5 55.5" xmlns="http://www.w3.org/2000/svg">
<path d="M 0,0 H 55.5 V 55.5 H 0 Z" fill="rgb(239, 242, 248)"/>
<path d="M 26.509999999999998,27.995 L 21,21 H 25.49 L 31,28.01 L 25.5,35 H 21 L 26.52,28.01 Z" fill="rgb(118, 176, 2)"/>
<path d="M 5.99,20.985 H 9 L 16,30.12 V 21 H 19 V 35 H 16 L 9,25.99 V 35 H 6 V 21 Z M 32.02,27 L 37,21 H 33 L 30,24.54 L 32.02,27 Z M 32.02,29 L 37,35 H 33 L 30,31.46 L 32.02,29 Z M 50,23.3 L 47.82,25.54 A 4.74,4.74 0 0,0 44.58,24 C 42.7,24 40,25.19 40,27.81 A 4.1,4.1 0 0,0 44.18,32 C 45.88,32 46.73,31.33 47,31 V 30 H 44 V 27 H 50 V 32.77 A 8.69,8.69 0 0,1 44.18,35 A 6.98,6.98 0 0,1 37,27.81 C 37,23.73 40.5,21 44.58,21 A 7.78,7.78 0 0,1 50,23.3 Z" fill="rgb(111, 110, 109)"/>
</svg>
