<?xml version="1.0" encoding="UTF-8"?>
<!-- generated by Finnhub -->
<svg viewBox="0 0 55.5 55.5" xmlns="http://www.w3.org/2000/svg">
<path d="M 0,0 H 55.5 V 55.5 H 0 Z" fill="rgb(239, 242, 248)"/>
<path d="M 27.99,8.985 C 27.37,9.69 25.54,12.15 24.7,13.3 L 28,17.86 L 31.3,13.3 L 28,9 Z M 17.48,24.37 C 18.91,22.02 22.13,16.83 23.58,14.82 L 27,19.4 C 25.57,21.47 22.42,26.38 21.28,29.5 L 17.48,24.37 Z M 28.02,20.96 C 26.1,23.56 23.62,28.54 22.38,31.2 C 23.85,33.2 26.75,38.84 28.02,41.4 C 28.86,38.8 32.05,33.51 33.53,31.2 C 33.28,29.66 29.75,23.73 28.02,20.96 Z M 24.8,45 A 15.01,15.01 0 0,1 15.56,36.47 C 14.94,34.98 14.3,30.82 16.72,26.1 L 20.59,31.6 A 11.31,11.31 0 0,0 20.77,39.19 A 14.6,14.6 0 0,0 24.8,45 Z M 21.9,33.49 C 23.18,35.36 26,40.19 27.02,44.49 A 11.55,11.55 0 0,1 21.89,33.49 Z M 38.52,24.37 A 227.78,227.78 0 0,0 32.42,14.82 L 29,19.4 C 30.43,21.47 33.58,26.38 34.72,29.5 L 38.52,24.37 Z M 40.42,36.47 A 15.01,15.01 0 0,1 31.2,45 A 14.6,14.6 0 0,0 35.23,39.19 C 36.49,36.03 35.87,32.82 35.41,31.61 L 39.28,26.11 C 41.7,30.82 41.06,34.98 40.44,36.47 Z M 34.08,33.49 C 32.8,35.36 29.98,40.19 28.95,44.49 A 11.55,11.55 0 0,0 34.08,33.49 Z" fill="url(#a)"/>
<defs>
<linearGradient id="a" x1="28" x2="28" y1="9" y2="45" gradientUnits="userSpaceOnUse">
<stop stop-color="rgb(82, 196, 229)" offset="0"/>
<stop stop-color="rgb(89, 192, 165)" offset="1"/>
</linearGradient>
</defs>
</svg>
