<?xml version="1.0" encoding="UTF-8"?>
<!-- generated by Finnhub -->
<svg viewBox="0 0 55.5 55.5" xmlns="http://www.w3.org/2000/svg">
<path d="M 0,0 H 55.5 V 55.5 H 0 Z" fill="url(#a)"/>
<path d="M 49.99,22.985 V 24 H 43 V 28.78 C 43,31.68 44.76,33 47.6,33 A 5.2,5.2 0 0,0 51,31.87 V 33.14 C 50.15,33.73 48.89,34 47.44,34 C 43.91,34 42,32.25 42,28.95 V 22 H 43 V 23 H 50 Z M 34.55,27.58 L 30.67,23 H 29 L 33.73,28.4 L 29,34 H 30.47 L 34.42,29.22 L 38.48,34 H 40 L 35.25,28.4 L 39.87,23 H 38.4 L 34.55,27.58 Z M 22.5,24 A 4.4,4.4 0 0,1 26.9,28 H 18.1 C 18.35,25.62 20.1,24 22.5,24 Z M 22.58,23 C 25.66,23 28,24.86 28,27.89 V 29 H 18.1 C 18.35,31.51 20.4,33 22.95,33 C 24.47,33 26.13,32.4 27.32,31.01 V 32.49 A 7,7 0 0,1 22.9,34 C 19.58,34 17,31.83 17,28.53 C 17,25.2 19.27,23 22.58,23 Z M 15,28.23 C 15,24.3 12.64,23 10.23,23 A 5.5,5.5 0 0,0 6,25 V 23 H 5 V 34 H 6 V 26.6 A 5.42,5.42 0 0,1 10.45,24 C 12.3,24 14,25.15 14,28.23 V 34 H 15 V 28.23 Z" fill="rgb(254, 254, 253)" fill-rule="evenodd"/>
<defs>
<linearGradient id="a" x1="10.42" x2="68.15" y1="9.71" y2="76.02" gradientUnits="userSpaceOnUse">
<stop stop-color="rgb(25, 29, 31)" offset="0"/>
<stop stop-color="rgb(5, 5, 8)" offset="1"/>
</linearGradient>
</defs>
</svg>
