<?xml version="1.0" encoding="UTF-8"?>
<!-- generated by Finnhub -->
<svg viewBox="0 0 55.5 55.5" xmlns="http://www.w3.org/2000/svg">
<path d="M 0,0 H 55.5 V 55.5 H 0 Z" fill="rgb(239, 242, 248)"/>
<path d="M 22.99,29.985 C 23,31.2 23.4,32 24.5,32 C 25.21,32 25.5,31.77 25.93,31.57 A 0.64,0.64 0 0,1 26.19,31.5 C 26.8,31.5 26.89,32.23 26.39,32.5 C 25.79,32.8 25.22,33 24.49,33 A 2.4,2.4 0 0,1 22.69,32.26 A 2.74,2.74 0 0,1 22,30.33 V 28.66 C 22,27.89 22.24,27.22 22.69,26.74 A 2.4,2.4 0 0,1 24.49,26 C 25.23,26 25.85,26.25 26.3,26.74 C 26.75,27.22 27,27.89 27,28.66 V 29.28 C 27,29.62 26.64,30 26.19,30 H 23 Z M 26,29 C 26,27.9 25.48,27 24.5,27 C 23.5,27 23,27.88 23,29 H 26 Z M 44,28.55 C 44,27.74 43.35,27 42.5,27 C 42.08,27 41.39,27.07 41,27.17 V 32.31 C 41,32.69 40.85,33 40.5,33 C 40.14,33 40,32.7 40,32.3 V 27.16 C 40,26.78 40.21,26.46 40.55,26.35 A 5.62,5.62 0 0,1 42.49,26 C 44,26 45,27.2 45,28.66 V 32.31 C 45,32.69 44.86,33 44.5,33 S 44,32.7 44,32.3 V 28.55 Z M 48.71,26 C 49.31,25.98 49.95,26.1 50.41,26.34 A 0.51,0.51 0 1,1 49.95,27.26 A 2.58,2.58 0 0,0 48.75,27 C 48.27,27.01 47.89,27.17 47.66,27.38 A 0.8,0.8 0 0,0 47.72,28.6 C 48.01,28.82 48.36,28.92 48.83,29.04 L 48.87,29.05 C 49.3,29.17 49.83,29.31 50.27,29.64 C 50.73,29.98 50.97,30.48 51,31 C 51.03,31.52 50.83,32.05 50.42,32.44 C 49.92,32.91 49.13,33.02 48.49,33 A 4.66,4.66 0 0,1 46.67,32.6 A 0.51,0.51 0 0,1 47.13,31.67 C 47.43,31.82 47.96,31.98 48.52,32 C 49.1,32.02 49.52,31.87 49.72,31.69 A 0.8,0.8 0 0,0 49.67,30.46 C 49.39,30.26 49.04,30.16 48.57,30.03 H 48.54 A 4.1,4.1 0 0,1 47.11,29.43 A 1.83,1.83 0 0,1 46.96,26.63 C 47.44,26.18 48.11,26.02 48.71,26 Z"/>
<path d="M 23.049999999999997,18.985 C 23.62,19 24.18,19.1 24.69,19.31 A 0.5,0.5 0 0,1 24.31,20.24 A 3.1,3.1 0 0,0 23.08,20 C 22.38,20.01 21.88,20.25 21.49,20.62 C 21.09,21.01 20.79,21.56 20.59,22.23 A 15.78,15.78 0 0,0 19.99,26.94 C 19.97,28.29 19.95,29.65 19.76,30.71 C 19.66,31.29 19.5,31.84 19.22,32.25 C 18.92,32.69 18.49,32.99 17.9,32.99 C 17.34,32.99 16.9,32.68 16.58,32.28 C 16.26,31.88 16.02,31.34 15.81,30.76 C 15.42,29.65 15.13,28.2 14.85,26.82 L 14.81,26.6 L 14.66,25.74 C 14.53,24.98 14.37,24 14.11,23.04 C 13.89,22.21 13.65,21.41 13.34,20.82 C 13.01,20.22 12.7,20 12.4,20 C 12.1,20 11.67,20.2 11.24,21.16 C 10.81,22.1 10.44,23.66 10.24,26.04 C 10.04,28.59 9.72,30.33 9.14,31.42 C 8.84,31.98 8.47,32.4 8.02,32.66 C 7.56,32.93 7.06,33.02 6.53,33 A 7.49,7.49 0 0,1 5.4,32.85 A 0.5,0.5 0 0,1 5.6,31.87 C 5.96,31.94 6.29,31.99 6.58,32 C 6.96,32.02 7.26,31.95 7.51,31.8 C 7.77,31.65 8.02,31.4 8.26,30.95 C 8.74,30.05 9.04,28.49 9.26,25.95 C 9.46,23.54 9.83,21.85 10.33,20.75 C 10.83,19.65 11.52,19 12.4,19 C 13.28,19 13.85,19.66 14.22,20.35 C 14.59,21.05 14.86,21.95 15.08,22.78 C 15.35,23.79 15.53,24.88 15.66,25.66 L 15.79,26.4 L 15.83,26.59 C 16.11,28 16.39,29.39 16.75,30.43 C 16.95,30.97 17.15,31.39 17.36,31.65 C 17.57,31.91 17.75,31.99 17.9,31.99 C 18.1,31.99 18.25,31.91 18.4,31.69 C 18.55,31.46 18.68,31.07 18.78,30.54 C 18.95,29.56 18.97,28.28 18.99,26.91 L 19,26.49 C 19.02,25.25 19.14,23.44 19.63,21.93 C 19.87,21.17 20.23,20.45 20.8,19.9 A 3.22,3.22 0 0,1 23.06,19 Z" fill="rgb(194, 35, 28)"/>
<path d="M 29.889999999999997,29.465 L 28.11,26.78 A 0.5,0.5 0 0,1 28.54,26 C 28.72,26 28.88,26.09 28.97,26.23 L 30.5,28.55 L 32.03,26.23 C 32.13,26.09 32.28,26 32.46,26 C 32.86,26 33.1,26.44 32.89,26.77 L 31.11,29.47 L 32.91,32.23 A 0.5,0.5 0 0,1 32.49,33 A 0.51,0.51 0 0,1 32.06,32.77 L 30.5,30.4 L 28.94,32.77 A 0.51,0.51 0 0,1 28.51,33 A 0.5,0.5 0 0,1 28.08,32.23 L 29.89,29.48 Z M 37.06,27.07 A 2.4,2.4 0 0,0 36.5,27.01 C 36.03,27.01 35.57,27.14 35.23,27.39 A 0.5,0.5 0 0,1 34.53,27.29 A 0.5,0.5 0 0,1 34.63,26.59 C 35.16,26.19 35.84,25.99 36.5,26 C 36.77,26 37.04,26.03 37.3,26.1 C 38.13,26.3 39,26.9 39,27.95 V 32.05 A 0.5,0.5 0 0,1 38.7,32.51 C 38.13,32.75 37.23,33.01 36.36,33 A 3.3,3.3 0 0,1 35.69,32.92 C 35.19,32.8 34.7,32.54 34.36,32.05 A 2.14,2.14 0 0,1 34,30.9 A 1.7,1.7 0 0,1 34.7,29.45 A 3.04,3.04 0 0,1 36.49,29.01 H 38 V 30.02 H 36.49 C 35.93,30.02 35.52,30.09 35.28,30.26 A 0.75,0.75 0 0,0 35,30.9 C 35,31.09 35.06,31.28 35.19,31.46 C 35.35,31.7 35.59,31.86 35.92,31.93 C 36.1,31.97 36.29,31.99 36.49,31.99 C 36.99,31.99 37.55,31.85 38,31.69 V 27.94 C 38,27.57 37.7,27.22 37.06,27.06 Z"/>
</svg>
