<?xml version="1.0" encoding="UTF-8"?>
<!-- generated by Finnhub -->
<svg viewBox="0 0 55.5 55.5" xmlns="http://www.w3.org/2000/svg">
<path d="M 0,0 H 55.5 V 55.5 H 0 Z" fill="rgb(239, 242, 248)"/>
<path d="M 27.31,23.544999999999998 A 38,38 0 0,1 37.92,15.44 A 15.98,15.98 0 0,0 27.06,12.03 C 23.14,12.26 19.17,14.22 16.4,17 H 23.14 L 27.07,22.15 A 32.7,32.7 0 0,0 23.51,26.28 L 16.4,17 A 14.36,14.36 0 0,0 12.98,22.47 A 16.01,16.01 0 0,0 18.49,40.87 A 36.42,36.42 0 0,1 27.32,23.57 Z" fill="rgb(246, 164, 26)"/>
<path d="M 39.56,38.985 L 29.71,25.83 A 47.1,47.1 0 0,1 40.01,17.42 C 42.68,20.46 44.11,24.42 43.99,28.47 A 15.13,15.13 0 0,1 39.57,39 Z M 26.3,30.17 C 28.18,32.79 32.86,39 32.86,39 H 39.59 A 17.17,17.17 0 0,1 30.35,43.83 C 26.95,44.33 23.48,43.73 20.45,42.11 A 43.65,43.65 0 0,1 26.3,30.17 Z" fill="rgb(147, 187, 2)"/>
</svg>
