<?xml version="1.0" encoding="UTF-8"?>
<!-- generated by Finnhub -->
<svg viewBox="0 0 55.5 55.5" xmlns="http://www.w3.org/2000/svg">
<path d="M 0,0 H 55.5 V 55.5 H 0 Z" fill="url(#a)"/>
<path d="M 34.39,21.245 L 13.54,32.17 C 13.07,32.42 12.87,33.01 13.09,33.51 C 19.32,47.28 32.26,45.33 38.75,39.9 C 41.25,37.81 40.1,34.2 37.31,32.57 A 0.5,0.5 0 0,0 36.63,32.74 C 31.76,40.3 24.33,38.29 21.49,35.54 C 21.25,35.32 21.33,34.93 21.62,34.78 L 42.45,23.98 C 42.91,23.75 43.12,23.2 42.93,22.71 C 38.3,11.14 25.72,8.96 17.05,16.09 C 14.79,17.96 15.41,21.44 17.85,23.07 L 18.51,23.52 A 0.5,0.5 0 0,0 19.23,23.33 L 19.24,23.31 C 24.21,15.46 31.46,17.52 34.53,20.47 C 34.77,20.7 34.69,21.1 34.4,21.26 Z" fill="rgb(254, 254, 253)"/>
<defs>
<linearGradient id="a" x1="43.03" x2="28" y1="4.75" y2="56" gradientUnits="userSpaceOnUse">
<stop stop-color="rgb(248, 59, 16)" offset="0"/>
<stop stop-color="rgb(254, 101, 2)" offset="1"/>
</linearGradient>
</defs>
</svg>
