<?xml version="1.0" encoding="UTF-8"?>
<!-- generated by Finnhub -->
<svg viewBox="0 0 55.5 55.5" xmlns="http://www.w3.org/2000/svg">
<path d="M 0,0 H 55.5 V 55.5 H 0 Z" fill="rgb(239, 242, 248)"/>
<path d="M 11.99,22.985 V 30.59 L 6.2,23 H 4 V 34 H 6 V 26.2 L 10.66,32.35 A 22.52,22.52 0 0,1 13.83,31.09 L 14,31.04 V 23 H 12 Z" fill="rgb(36, 36, 35)"/>
<path d="M 13.99,33.985 V 31.69 A 27.14,27.14 0 0,0 9,34 H 14 Z" fill="rgb(254, 200, 2)"/>
<path d="M 51.99,24.985 H 49.37 L 47.77,27.55 L 45.97,25 H 43.34 L 46.45,29.5 L 43.75,34 H 46.38 L 47.78,31.54 L 49.36,34 H 52 L 49.09,29.5 L 52,25 Z M 31.49,25 L 29.29,30.38 L 27.05,25 H 24.5 L 28.12,33.21 L 26.99,36 H 29.29 L 33.96,25 H 31.5 Z M 21.99,26.03 A 3.52,3.52 0 0,0 19.43,25 C 16.65,25 15,27.01 15,29.5 C 15,31.98 16.58,34 19.43,34 C 20.5,34 21.37,33.58 22.03,32.9 L 22.16,34 H 24 V 25 H 22.16 L 21.99,26.03 Z M 19.43,32 C 17.83,32 17,30.8 17,29.5 S 17.87,27 19.43,27 C 20.91,27 22,28.2 22,29.5 A 2.5,2.5 0 0,1 19.43,32 Z M 40.99,26.03 A 3.52,3.52 0 0,0 38.43,25 C 35.65,25 34,27.01 34,29.5 C 34,31.98 35.58,34 38.43,34 C 39.5,34 40.37,33.58 41.03,32.9 L 41.16,34 H 43 V 25 H 41.16 L 40.99,26.03 Z M 38.43,32 C 36.83,32 36,30.8 36,29.5 S 36.87,27 38.43,27 C 39.91,27 41,28.2 41,29.5 A 2.5,2.5 0 0,1 38.43,32 Z" fill="rgb(36, 36, 35)"/>
</svg>
