<?xml version="1.0" encoding="UTF-8"?>
<!-- generated by Finnhub -->
<svg viewBox="0 0 55.5 55.5" xmlns="http://www.w3.org/2000/svg">
<path d="M 0,0 H 55.5 V 55.5 H 0 Z" fill="rgb(239, 242, 248)"/>
<path d="M 38.760000000000005,34.985 H 52 L 45.4,28 L 38.77,35 Z" fill="rgb(50, 150, 209)"/>
<path d="M 51.99,20.985 L 45.4,28 L 52,35 V 21 Z" fill="rgb(1, 96, 160)"/>
<path d="M 4.01,20.985 H 38.8 L 45.4,28 L 38.77,35 H 4.02 V 21 Z"/>
<path d="M 13.24,32.985 L 9,27.97 V 33 H 6 V 23 H 8.75 L 13,28.04 V 23 H 16 V 33 H 13.25 Z M 17,33 V 31.09 L 22.61,25 H 17 V 23 H 26 V 24.91 L 20.37,31 H 26 V 33 H 17 Z M 34.53,33 L 32.5,29.93 L 30.47,33 H 27 L 30.85,27.88 L 27.25,23 H 30.69 L 32.5,25.83 L 34.3,23 H 37.76 L 34.16,27.88 L 38,33 H 34.53 Z" fill="rgb(239, 242, 248)"/>
<path d="M 51.99,34.985 V 21 H 4 V 35 H 52 Z M 5,22 H 51 V 34 H 5 V 22 Z" fill="rgb(1, 96, 160)"/>
</svg>
