<?xml version="1.0" encoding="UTF-8"?>
<!-- generated by Finnhub -->
<svg viewBox="0 0 55.5 55.5" xmlns="http://www.w3.org/2000/svg">
<path d="M 0,0 H 55.5 V 55.5 H 0 Z" fill="rgb(94, 36, 157)"/>
<path d="M 35.152,27.232 S 35.188,27.247 35.162,27.247 C 35.188,27.247 35.188,27.247 35.162,27.247 Z M 11.688,27.087 C 11.662,27.113 11.688,27.113 11.714,27.113 S 11.766,27.113 11.766,27.14 C 12.259,27.273 12.777,27.433 13.244,27.567 C 13.27,27.567 13.27,27.593 13.296,27.567 C 12.752,27.433 12.233,27.247 11.688,27.087 Z M 42.684,31.354 C 41.258,31.114 37.652,31.114 35.447,31.141 A 2.352,2.352 0 0,1 35.084,30.954 C 34.15,30.501 33.191,30.047 32.257,29.594 C 32.413,29.434 32.568,29.3 32.75,29.14 C 34.15,29.674 36.33,30.448 37.756,30.954 C 37.86,30.981 38.067,30.794 38.145,30.501 C 38.223,30.207 38.197,29.941 38.093,29.887 C 38.093,29.887 34.877,28.74 33.658,28.287 C 34.306,27.7 34.98,27.14 35.629,26.553 C 36.277,25.966 36.952,25.406 37.6,24.846 C 37.937,24.553 38.275,24.286 38.612,23.993 C 39.286,23.433 39.961,22.873 40.687,22.366 A 6.62,6.62 0 0,1 41.232,21.992 C 41.362,21.912 41.465,21.832 41.595,21.779 A 0.904,0.904 0 0,1 41.828,21.672 C 41.828,21.645 41.802,21.672 41.828,21.645 C 41.828,21.645 41.854,21.619 41.88,21.619 C 41.88,21.565 41.906,21.485 41.88,21.432 C 41.828,21.432 41.802,21.459 41.75,21.459 V 21.432 C 41.569,21.539 41.387,21.619 41.206,21.725 C 41.18,21.752 41.128,21.752 41.102,21.779 C 41.102,21.779 41.076,21.779 41.076,21.805 L 40.298,22.205 C 40.064,22.339 39.805,22.445 39.572,22.579 C 39.338,22.712 39.105,22.819 38.845,22.952 C 37.885,23.486 36.952,23.992 36.018,24.526 C 36.122,24.446 36.226,24.339 36.329,24.286 C 36.459,24.206 36.563,24.153 36.693,24.073 C 37.419,23.673 38.119,23.246 38.845,22.846 C 39.338,22.579 39.805,22.312 40.298,22.046 C 40.713,21.832 41.154,21.592 41.595,21.379 C 41.647,21.352 41.725,21.299 41.802,21.325 C 41.802,21.325 41.828,21.325 41.828,21.352 C 41.854,21.379 41.88,21.379 41.906,21.405 C 41.932,21.459 41.958,21.565 41.932,21.645 C 41.932,21.672 41.906,21.672 41.88,21.699 L 41.854,21.725 C 41.828,21.752 41.802,21.752 41.802,21.752 C 41.672,21.832 41.569,21.886 41.439,21.965 C 41.206,22.125 40.972,22.285 40.765,22.445 L 40.531,22.605 C 40.091,22.925 39.649,23.273 39.234,23.619 L 38.378,24.339 C 38.327,24.393 38.248,24.446 38.197,24.499 C 37.574,25.033 36.977,25.593 36.355,26.127 L 35.136,27.22 C 36.122,26.367 37.107,25.54 38.093,24.713 C 37.289,25.406 36.485,26.1 35.707,26.82 L 36.018,26.58 C 35.707,26.9 35.37,27.193 35.058,27.514 C 34.799,27.754 34.566,27.967 34.332,28.207 A 0.8,0.8 0 0,0 34.125,28.42 L 34.099,28.447 C 34.202,28.367 34.28,28.287 34.358,28.234 C 34.799,27.86 35.214,27.46 35.655,27.087 C 35.992,26.793 36.355,26.473 36.692,26.18 C 36.874,26.02 37.056,25.887 37.212,25.726 L 37.237,25.7 L 37.289,25.646 C 37.626,25.353 37.937,25.086 38.275,24.793 C 38.793,24.339 39.338,23.913 39.883,23.486 C 40.168,23.273 40.427,23.059 40.713,22.846 C 40.817,22.766 40.894,22.712 40.998,22.632 C 41.283,22.419 41.568,22.232 41.88,22.072 A 0.737,0.737 0 0,0 42.165,21.859 A 0.653,0.653 0 0,0 42.243,21.459 C 42.217,21.325 42.165,21.219 42.062,21.165 C 42.114,21.219 42.165,21.272 42.192,21.352 C 42.217,21.432 42.243,21.512 42.243,21.619 C 42.243,21.645 42.217,21.699 42.217,21.726 A 0.478,0.478 0 0,1 42.087,21.912 A 0.36,0.36 0 0,1 41.984,21.992 A 0.766,0.766 0 0,1 41.776,22.099 C 41.569,22.206 41.361,22.339 41.18,22.446 C 41.05,22.526 40.92,22.632 40.79,22.686 C 41.05,22.446 41.361,22.232 41.699,22.046 C 41.776,21.992 41.854,21.939 41.932,21.912 C 42.01,21.859 42.088,21.805 42.113,21.699 C 42.165,21.592 42.139,21.459 42.113,21.379 C 42.062,21.299 42.01,21.219 41.906,21.192 C 42.036,21.139 42.166,21.059 42.296,20.979 C 42.373,20.925 42.476,20.872 42.554,20.792 L 42.632,20.712 A 0.432,0.432 0 0,0 42.736,20.525 A 0.513,0.513 0 0,0 42.788,20.312 C 42.788,20.232 42.762,20.152 42.736,20.072 A 0.431,0.431 0 0,0 42.632,19.885 A 0.505,0.505 0 0,0 42.295,19.672 C 42.217,19.645 42.139,19.645 42.062,19.645 C 41.335,19.725 40.765,19.965 40.168,20.178 C 40.272,20.152 40.428,20.072 40.558,20.045 C 40.168,20.205 39.753,20.365 39.364,20.525 C 39.131,20.632 38.924,20.765 38.742,20.899 C 38.923,20.739 39.105,20.579 39.286,20.392 C 39.442,20.232 39.597,20.018 39.753,19.832 C 39.831,19.752 39.883,19.645 39.961,19.538 A 0.837,0.837 0 0,0 40.116,19.192 A 0.378,0.378 0 0,0 40.116,18.952 A 0.559,0.559 0 0,0 40.013,18.792 C 39.987,18.738 39.935,18.712 39.883,18.685 C 39.831,18.658 39.779,18.605 39.701,18.605 C 39.675,18.605 39.623,18.605 39.597,18.631 A 0.863,0.863 0 0,0 39.157,18.845 C 39.105,18.872 39.053,18.925 39.001,18.952 C 38.586,19.245 38.249,19.565 37.886,19.885 C 37.341,20.365 36.796,20.872 36.251,21.352 C 35.733,21.832 35.214,22.286 34.695,22.766 C 34.669,22.792 34.643,22.819 34.617,22.819 C 33.891,23.459 33.165,24.126 32.439,24.766 C 31.894,25.246 31.349,25.753 30.805,26.233 C 31.194,25.833 31.583,25.433 31.998,25.06 C 32.101,24.953 32.205,24.873 32.283,24.766 C 32.387,24.66 32.464,24.553 32.568,24.473 C 32.672,24.366 32.776,24.286 32.854,24.179 C 32.957,24.073 33.061,23.993 33.139,23.886 C 33.917,23.086 34.695,22.286 35.473,21.512 L 38.378,18.525 C 38.534,18.365 38.664,18.231 38.793,18.071 C 38.845,18.018 38.897,17.965 38.923,17.911 A 0.809,0.809 0 0,0 39.053,17.511 V 17.378 C 39.053,17.271 38.975,17.191 38.923,17.111 L 38.871,17.058 A 0.29,0.29 0 0,0 38.664,16.978 C 38.586,16.951 38.482,16.978 38.404,17.004 C 38.249,17.058 38.145,17.111 38.015,17.191 C 38.015,17.191 37.86,17.298 37.808,17.351 C 37.86,17.298 37.938,17.244 37.989,17.191 V 17.164 C 38.119,17.004 38.171,16.791 38.041,16.684 C 37.938,16.551 37.704,16.578 37.523,16.711 L 37.419,16.818 C 37.159,17.111 36.926,17.378 36.667,17.644 C 36.589,17.724 36.537,17.804 36.433,17.884 L 35.733,18.524 C 35.577,18.658 35.422,18.818 35.266,18.951 C 35.11,19.085 34.955,19.245 34.799,19.378 L 34.099,20.018 C 34.021,20.098 33.943,20.152 33.865,20.232 C 34.073,20.072 34.255,19.938 34.462,19.805 C 34.125,20.125 33.762,20.419 33.398,20.739 C 33.035,21.059 32.698,21.379 32.335,21.672 C 31.635,22.286 30.96,22.926 30.285,23.539 L 30.26,23.566 C 30.26,23.086 30.234,22.179 30.234,22.126 C 30.234,22.072 30.104,22.019 29.948,22.019 H 29.818 C 29.845,21.325 29.845,20.605 29.871,19.912 C 29.871,19.752 29.689,19.645 29.456,19.645 H 29.352 C 29.326,19.645 29.326,19.645 29.3,19.672 C 29.274,19.672 29.274,19.698 29.248,19.698 S 29.222,19.725 29.196,19.725 S 29.17,19.752 29.144,19.752 L 29.119,19.779 S 29.093,19.805 29.093,19.832 S 29.093,19.859 29.067,19.885 V 23.673 C 29.015,23.566 28.963,23.486 28.937,23.379 A 0.205,0.205 0 0,1 28.885,23.273 C 28.859,23.086 28.859,22.873 28.859,22.686 C 28.859,22.499 28.833,22.286 28.833,22.099 C 28.807,21.699 28.781,21.326 28.781,20.925 C 28.729,19.858 28.651,18.792 28.626,17.698 V 17.565 C 28.626,17.511 28.626,17.458 28.652,17.431 C 28.755,16.338 28.989,14.177 28.989,14.124 C 28.989,13.697 28.781,13.35 28.496,13.324 C 28.211,13.324 27.977,13.644 27.951,14.07 C 27.951,14.15 28.029,15.67 28.081,16.471 C 28.081,16.524 28.107,16.604 28.081,16.658 C 28.081,16.765 28.055,16.898 28.029,17.004 C 27.951,16.418 27.848,15.831 27.744,15.244 C 27.64,14.684 27.536,14.124 27.407,13.564 A 2.268,2.268 0 0,0 27.095,12.737 C 27.173,12.337 26.94,12.07 26.655,12.017 A 0.703,0.703 0 0,0 26.032,12.177 C 25.85,12.31 25.695,12.604 25.669,12.817 C 25.617,13.11 25.669,13.404 25.721,13.697 C 25.824,14.391 25.876,15.084 25.954,15.777 C 26.006,16.177 26.058,16.551 26.084,16.951 A 3.989,3.989 0 0,1 25.824,16.364 A 284.73,284.73 0 0,0 23.983,12.257 C 23.957,12.257 23.983,12.257 23.983,12.257 C 24.243,12.87 24.527,13.484 24.787,14.124 C 24.476,13.537 24.217,12.897 23.931,12.284 C 23.749,12.364 23.594,12.444 23.412,12.524 C 23.438,12.524 23.412,12.524 23.412,12.524 C 24.164,14.311 24.917,16.071 25.669,17.858 L 26.369,19.538 C 26.395,19.565 26.395,19.618 26.421,19.645 C 25.824,18.338 25.228,17.005 24.631,15.698 C 25.072,16.684 25.487,17.671 25.902,18.658 C 25.902,18.685 25.928,18.712 25.928,18.765 C 25.383,17.565 24.813,16.391 24.268,15.191 C 24.268,15.164 24.268,15.164 24.242,15.164 C 24.19,15.191 24.164,15.191 24.138,15.217 C 23.775,14.337 23.101,12.657 23.075,12.603 C 22.893,12.23 22.556,12.017 22.271,12.123 C 21.96,12.177 21.908,12.577 21.96,12.87 C 22.011,13.084 22.09,13.297 22.167,13.51 C 22.245,13.724 22.323,13.964 22.427,14.177 A 0.393,0.393 0 0,1 22.478,14.364 C 22.504,14.417 22.504,14.497 22.556,14.55 C 22.401,14.337 22.193,14.23 22.037,14.284 C 21.83,14.364 21.778,14.711 21.856,15.057 C 21.7,14.844 21.519,14.737 21.363,14.817 C 21.156,14.897 21.103,15.271 21.259,15.671 C 21.259,15.671 21.259,15.698 21.285,15.698 C 21.311,15.724 21.311,15.751 21.337,15.804 L 21.804,17.004 C 21.674,16.791 21.571,16.578 21.441,16.364 C 21.415,16.311 21.389,16.284 21.363,16.258 C 21.285,16.178 21.181,16.151 21.078,16.204 C 21,16.258 20.922,16.338 20.922,16.444 C 20.922,16.498 20.948,16.551 20.948,16.604 C 20.974,16.658 21,16.711 21,16.738 C 21.233,17.325 21.467,17.858 21.7,18.445 C 22.167,19.592 22.634,20.712 23.127,21.859 C 23.438,22.552 23.723,23.273 24.035,23.966 C 24.061,24.019 24.087,24.046 24.087,24.099 C 23.723,23.326 23.387,22.552 23.023,21.779 C 23.464,22.819 23.905,23.886 24.346,24.899 C 24.372,24.926 24.372,24.953 24.372,25.006 C 24.294,24.98 24.242,24.98 24.19,24.953 C 24.138,24.926 24.06,24.926 24.009,24.9 L 22.582,24.18 C 22.245,23.993 18.198,22.232 18.042,22.152 C 18.017,22.152 17.991,22.126 17.991,22.126 C 17.498,21.912 17.369,22.392 17.421,22.526 C 17.265,22.473 17.083,22.392 16.901,22.339 C 16.72,22.286 16.383,22.152 16.383,22.152 C 16.305,22.126 16.175,22.232 16.123,22.392 C 16.097,22.472 16.072,22.579 16.097,22.632 A 3.921,3.921 0 0,1 15.501,22.446 C 15.397,22.419 15.293,22.366 15.164,22.339 C 15.06,22.312 14.93,22.286 14.801,22.259 C 14.671,22.232 14.541,22.206 14.411,22.232 C 14.281,22.259 14.126,22.286 14.023,22.392 C 13.919,22.499 13.919,22.659 13.945,22.819 C 13.971,22.953 14.048,23.086 14.126,23.219 C 14.152,23.246 14.178,23.299 14.204,23.326 A 0.368,0.368 0 0,1 14.282,23.433 L 14.386,23.539 C 14.438,23.566 14.463,23.619 14.516,23.646 C 14.567,23.673 14.619,23.699 14.671,23.753 C 14.723,23.779 14.775,23.833 14.852,23.859 C 14.904,23.886 14.982,23.939 15.06,23.966 L 15.293,24.046 C 15.371,24.073 15.449,24.099 15.553,24.126 C 15.579,24.126 15.605,24.153 15.605,24.153 C 15.501,24.126 15.423,24.126 15.319,24.1 A 7.12,7.12 0 0,1 15.164,24.66 S 19.029,26.367 21,27.194 C 19.859,26.82 18.691,26.447 17.55,26.074 C 17.161,25.94 16.772,25.834 16.409,25.7 A 16.001,16.001 0 0,0 13.945,25.113 A 6.183,6.183 0 0,0 13.245,25.06 C 13.141,25.06 13.011,25.033 12.907,25.007 C 12.803,24.98 12.674,24.98 12.57,24.953 C 12.518,24.953 12.466,24.953 12.414,24.926 C 12.362,24.9 12.311,24.9 12.259,24.873 C 12.025,24.793 11.766,24.713 11.532,24.633 C 11.48,24.633 11.455,24.606 11.402,24.606 H 11.377 C 11.221,24.58 11.065,24.74 11.014,24.953 C 10.962,25.166 11.066,25.38 11.195,25.407 H 11.247 C 11.61,25.46 11.947,25.487 12.285,25.54 C 12.362,25.54 12.44,25.593 12.518,25.62 C 12.751,25.7 13.011,25.78 13.244,25.86 C 13.192,25.967 13.166,26.1 13.141,26.207 C 13.115,26.287 13.089,26.393 13.063,26.474 C 13.063,26.5 13.063,26.5 13.037,26.527 L 13.815,26.767 C 15.657,27.327 17.498,27.887 19.314,28.447 L 19.158,28.927 C 18.588,28.741 18.017,28.527 17.446,28.314 C 17.161,28.207 16.876,28.101 16.59,28.02 C 16.02,27.834 15.397,27.594 14.827,27.407 C 14.827,27.407 14.775,27.38 14.801,27.407 S 14.878,27.434 14.904,27.46 C 15.397,27.647 15.89,27.807 16.383,27.994 C 16.616,28.074 16.876,28.18 17.109,28.261 C 17.135,28.261 17.187,28.287 17.213,28.314 C 16.979,28.261 16.746,28.18 16.513,28.101 C 16.046,27.967 15.605,27.807 15.138,27.674 C 14.904,27.594 14.671,27.514 14.463,27.434 C 14.204,27.354 13.971,27.247 13.711,27.167 C 13.581,27.114 13.348,27.033 13.063,26.927 C 12.777,26.74 12.363,26.58 11.973,26.447 C 11.947,26.447 11.921,26.42 11.895,26.42 C 11.765,26.393 11.636,26.5 11.585,26.687 C 11.532,26.873 11.585,27.033 11.714,27.087 H 11.766 C 11.818,27.087 11.818,27.113 11.87,27.113 C 12.83,27.38 13.763,27.673 14.697,27.94 C 14.801,27.967 14.904,27.994 14.982,28.02 C 15.449,28.18 15.942,28.367 16.382,28.527 C 16.149,28.474 15.916,28.394 15.682,28.34 C 15.994,28.42 16.279,28.5 16.59,28.607 C 16.746,28.661 16.876,28.714 17.005,28.767 C 17.161,28.821 17.291,28.874 17.42,28.927 C 17.991,29.141 18.562,29.327 19.132,29.541 C 19.702,29.754 20.274,29.941 20.844,30.154 C 21.414,30.341 21.985,30.554 22.556,30.768 C 21.156,32.075 19.729,33.382 18.458,34.848 C 18.225,35.115 17.991,35.408 17.784,35.702 C 17.758,35.729 17.732,35.782 17.706,35.809 C 17.654,35.862 17.576,35.916 17.524,35.969 C 17.524,35.969 17.213,36.209 17.161,36.289 C 17.109,36.369 17.187,36.556 17.343,36.662 C 17.498,36.769 17.68,36.796 17.758,36.716 C 17.835,36.556 17.939,36.422 18.017,36.262 C 18.043,36.236 18.069,36.182 18.095,36.156 A 0.358,0.358 0 0,1 18.199,36.076 C 18.276,36.022 18.329,35.969 18.406,35.916 C 20.248,34.396 22.063,32.902 23.905,31.355 C 23.931,31.328 23.983,31.275 24.009,31.275 L 24.061,31.301 A 0.47,0.47 0 0,0 24.242,31.355 C 23.802,31.835 23.36,32.315 22.945,32.821 C 22.841,32.955 22.738,33.061 22.608,33.195 C 22.401,33.435 22.168,33.675 21.96,33.942 C 21.856,34.075 21.752,34.182 21.648,34.315 C 21.674,34.315 21.7,34.262 21.726,34.262 C 20.948,35.115 19.34,36.769 19.34,36.769 L 19.47,36.903 C 19.106,37.249 18.717,37.623 18.328,37.969 L 18.432,38.076 L 17.965,38.476 A 0.372,0.372 0 0,1 17.887,38.529 C 17.809,38.609 17.861,38.823 18.017,39.009 C 18.147,39.169 18.302,39.276 18.406,39.249 C 18.146,39.516 17.836,39.809 17.576,40.077 A 81.54,81.54 0 0,1 17.446,40.21 A 0.736,0.736 0 0,0 17.368,40.743 C 17.368,40.77 17.394,40.85 17.446,40.877 C 17.239,41.063 17.031,41.223 16.824,41.41 L 16.772,41.464 C 16.72,41.544 16.746,41.677 16.85,41.81 C 16.953,41.944 17.11,42.024 17.187,41.97 C 17.187,42.024 17.187,42.104 17.239,42.184 C 17.317,42.29 17.394,42.344 17.472,42.317 H 17.498 C 17.524,42.317 17.524,42.29 17.524,42.29 C 18.25,41.704 18.951,41.117 19.651,40.53 C 19.884,40.343 20.144,40.13 20.377,39.943 C 20.144,40.263 19.937,40.61 19.703,40.903 L 19.625,40.983 C 19.521,41.09 19.418,41.17 19.34,41.277 C 19.132,41.49 18.95,41.677 18.743,41.864 L 18.25,42.37 C 18.224,42.397 18.147,42.45 18.147,42.45 C 17.991,42.637 17.991,42.904 18.147,43.064 H 18.173 S 18.199,43.064 18.199,43.09 C 18.199,43.09 18.224,43.09 18.224,43.117 H 18.51 S 18.536,43.117 18.536,43.091 C 18.536,43.091 18.562,43.091 18.562,43.064 C 18.562,43.064 18.588,43.064 18.588,43.037 L 18.613,43.011 L 18.64,42.984 L 18.665,42.957 V 42.93 V 42.904 L 18.691,42.877 S 18.691,42.85 18.717,42.85 C 18.717,42.85 18.717,42.824 18.743,42.824 C 18.743,42.824 18.743,42.797 18.769,42.797 L 18.795,42.77 L 18.821,42.743 L 18.847,42.717 L 18.873,42.69 L 18.899,42.663 L 18.925,42.637 C 18.925,42.61 18.951,42.61 18.951,42.583 C 18.951,42.557 18.977,42.557 18.977,42.53 S 19.003,42.503 19.003,42.477 C 19.003,42.45 19.029,42.45 19.029,42.423 C 19.029,42.397 19.055,42.397 19.055,42.37 S 19.08,42.343 19.08,42.317 C 19.08,42.29 19.106,42.29 19.106,42.263 C 19.106,42.237 19.132,42.237 19.132,42.21 S 19.158,42.183 19.158,42.157 C 19.158,42.13 19.184,42.13 19.184,42.103 C 19.184,42.077 19.21,42.077 19.21,42.05 S 19.236,42.023 19.236,41.997 C 19.236,41.97 19.262,41.97 19.262,41.943 C 19.262,41.917 19.288,41.917 19.288,41.89 S 19.314,41.863 19.314,41.837 C 19.314,41.81 19.34,41.81 19.34,41.783 C 19.34,41.757 19.366,41.757 19.366,41.73 S 19.392,41.703 19.392,41.677 C 19.392,41.65 19.418,41.65 19.418,41.623 C 19.418,41.597 19.444,41.597 19.444,41.57 S 19.47,41.543 19.47,41.517 C 19.47,41.49 19.495,41.49 19.495,41.463 C 19.495,41.437 19.521,41.437 19.521,41.41 S 19.547,41.383 19.547,41.357 C 19.547,41.33 19.573,41.33 19.573,41.303 C 19.573,41.277 19.599,41.277 19.599,41.25 S 19.625,41.223 19.625,41.197 C 19.625,41.17 19.651,41.17 19.651,41.143 C 19.729,41.037 19.807,40.903 19.911,40.823 C 20.014,40.743 20.092,40.637 20.196,40.53 C 20.481,40.236 20.766,39.97 21.052,39.676 C 21.337,39.383 21.622,39.116 21.908,38.823 L 22.193,38.529 C 22.375,38.343 22.583,38.156 22.763,37.969 L 23.049,37.676 C 23.23,37.489 23.438,37.303 23.619,37.116 C 23.905,36.822 24.19,36.556 24.476,36.262 L 24.606,36.129 A 6.97,6.97 0 0,1 25.046,35.702 L 25.331,35.409 C 25.383,35.355 25.435,35.329 25.487,35.275 C 25.798,35.009 26.11,34.742 26.421,34.502 C 26.784,34.208 27.147,33.888 27.511,33.595 C 24.968,36.289 22.426,38.983 19.911,41.703 L 19.884,41.73 L 19.858,41.757 L 19.884,41.73 C 20.584,41.01 21.311,40.29 22.011,39.57 L 23.334,38.21 C 23.594,37.943 23.853,37.65 24.112,37.382 C 24.476,37.009 24.812,36.636 25.15,36.289 C 25.85,35.569 26.55,34.822 27.25,34.102 L 28.262,33.062 L 28.314,33.008 L 28.392,33.168 C 28.418,33.222 28.418,33.275 28.418,33.328 L 28.496,33.728 C 28.626,34.902 28.807,36.636 28.833,36.769 C 28.885,37.222 28.963,37.703 29.041,38.156 C 29.196,39.223 29.923,43.437 30.052,43.704 C 30.104,43.837 30.234,43.997 30.39,43.997 C 30.545,44.024 30.727,43.837 30.753,43.677 C 30.779,43.464 30.701,43.251 30.701,43.037 V 41.437 V 40.957 A 9.99,9.99 0 0,0 30.649,40.077 C 30.597,39.49 30.519,38.903 30.441,38.317 A 21.448,21.448 0 0,1 30.338,37.089 A 2951.44,2951.44 0 0,1 33.061,42.557 C 33.113,42.61 33.243,42.61 33.424,42.557 C 33.58,42.477 33.709,42.37 33.684,42.29 C 32.957,40.45 32.231,38.583 31.504,36.77 C 31.998,37.41 32.464,38.076 32.931,38.743 C 32.957,38.796 32.983,38.823 33.009,38.876 C 33.035,38.93 33.061,38.983 33.061,39.036 C 33.346,39.756 33.658,40.45 33.969,41.116 A 20.56,20.56 0 0,1 32.931,38.956 C 33.139,39.463 33.321,39.97 33.528,40.476 C 33.736,40.956 33.995,41.436 34.254,41.864 C 34.384,42.077 34.514,42.29 34.669,42.504 C 34.773,42.637 34.929,42.797 35.059,42.904 C 35.188,43.01 35.422,43.117 35.655,43.064 A 0.516,0.516 0 0,0 35.966,42.85 A 0.52,0.52 0 0,0 36.07,42.45 C 36.07,42.29 36.018,42.157 35.966,42.024 C 36.122,41.97 36.251,41.89 36.407,41.81 C 36.433,41.81 36.459,41.81 36.459,41.783 C 36.174,41.17 35.862,40.53 35.603,39.916 C 35.318,39.303 35.007,38.663 34.747,38.049 C 34.462,37.436 34.177,36.796 33.891,36.182 C 33.606,35.569 33.295,34.955 33.009,34.342 C 33.113,34.395 33.243,34.422 33.346,34.449 A 771.338,771.338 0 0,0 37.211,42.557 C 35.992,39.863 34.773,37.196 33.554,34.528 C 34.929,34.982 36.304,35.462 37.704,35.916 C 37.004,35.649 36.304,35.409 35.603,35.142 C 34.903,34.875 34.203,34.635 33.502,34.395 C 33.424,34.235 33.346,34.048 33.269,33.888 C 33.891,34.102 34.514,34.288 35.136,34.502 C 35.214,34.528 35.318,34.555 35.396,34.582 C 36.303,34.875 37.211,35.142 38.119,35.409 C 38.301,35.462 38.482,35.515 38.664,35.595 C 39.027,35.702 39.364,35.835 39.727,35.942 C 40.09,36.075 40.427,36.182 40.765,36.316 C 41.025,36.422 41.283,36.502 41.543,36.609 C 41.621,36.662 41.724,36.716 41.724,36.716 H 41.776 C 41.958,36.716 42.217,36.369 42.347,35.916 C 42.503,35.409 42.451,34.929 42.269,34.876 C 42.269,34.876 42.165,34.849 42.139,34.849 C 42.191,34.635 42.165,34.449 42.036,34.422 C 42.036,34.422 39.079,33.435 37.652,32.982 C 37.445,32.928 37.237,32.848 37.03,32.795 A 85.923,85.923 0 0,0 34.591,32.021 H 34.851 C 35.007,32.074 36.148,32.448 36.485,32.555 C 37.081,32.741 37.652,32.928 38.223,33.115 C 38.767,33.301 39.883,33.675 39.909,33.675 H 39.961 A 0.271,0.271 0 0,0 40.091,33.515 C 40.116,33.408 40.116,33.328 40.091,33.275 C 40.091,33.275 40.091,33.248 40.064,33.248 H 40.038 L 39.572,33.088 A 39.993,39.993 0 0,1 37.937,32.501 A 17.53,17.53 0 0,0 36.848,32.128 C 36.718,32.075 36.588,32.048 36.459,31.994 C 40.324,31.888 44.137,31.621 42.684,31.354 Z M 19.106,29.247 C 18.899,29.194 18.691,29.114 18.484,29.061 C 18.536,29.061 18.588,29.087 18.639,29.114 C 18.743,29.14 18.847,29.167 18.977,29.221 C 19.029,29.247 19.08,29.247 19.132,29.274 C 19.132,29.247 19.106,29.247 19.106,29.247 Z M 28.34,21.405 C 28.34,21.325 28.366,21.219 28.366,21.139 C 28.392,21.005 28.392,20.899 28.418,20.765 C 28.47,21.085 28.496,21.432 28.574,21.752 C 28.6,21.859 28.6,21.965 28.6,22.072 A 9.284,9.284 0 0,1 28.366,21.565 C 28.366,21.539 28.34,21.512 28.34,21.485 V 21.405 Z M 28.237,22.232 C 28.237,22.179 28.263,22.072 28.263,22.019 C 28.366,22.232 28.47,22.472 28.573,22.686 C 28.6,22.712 28.6,22.739 28.626,22.766 V 22.872 C 28.626,22.979 28.626,23.086 28.652,23.219 C 28.522,22.952 28.392,22.659 28.262,22.365 C 28.237,22.312 28.237,22.285 28.237,22.232 Z M 28.107,18.792 C 28.081,18.978 28.055,19.192 28.055,19.378 C 28.029,19.672 28.003,19.938 27.977,20.205 C 28.029,19.725 28.107,19.218 28.159,18.738 C 28.185,18.818 28.159,18.951 28.159,19.058 L 28.003,20.685 L 27.925,20.525 C 27.925,20.498 27.899,20.472 27.899,20.472 C 27.899,20.445 27.899,20.392 27.925,20.338 C 28.003,19.725 28.081,19.085 28.133,18.498 C 28.133,18.578 28.107,18.685 28.107,18.791 Z M 27.069,19.698 C 27.043,19.565 27.043,19.431 27.017,19.298 C 27.277,19.832 27.51,20.365 27.77,20.872 C 27.77,20.952 27.744,21.058 27.744,21.139 C 27.51,20.685 27.277,20.179 27.069,19.699 Z M 27.666,21.565 C 27.666,21.619 27.64,21.672 27.64,21.699 C 27.484,21.352 27.329,21.005 27.2,20.632 C 27.2,20.605 27.173,20.578 27.173,20.552 C 27.147,20.498 27.173,20.445 27.147,20.392 C 27.329,20.792 27.484,21.192 27.666,21.565 Z M 26.81,19.672 C 26.888,19.805 26.94,19.965 26.992,20.098 V 20.205 C 26.914,20.045 26.862,19.912 26.784,19.752 C 26.836,19.725 26.81,19.698 26.81,19.672 Z M 26.914,19.058 C 26.914,19.191 26.94,19.298 26.94,19.405 C 26.862,19.271 26.81,19.111 26.732,18.951 C 26.732,18.845 26.706,18.711 26.706,18.605 C 26.758,18.765 26.836,18.925 26.914,19.058 Z M 26.628,18.018 C 26.628,17.911 26.602,17.804 26.602,17.671 C 26.68,17.831 26.758,17.991 26.81,18.151 C 26.81,18.231 26.836,18.338 26.836,18.418 C 26.758,18.311 26.706,18.151 26.628,18.018 Z M 26.888,18.391 C 27.043,18.738 27.199,19.085 27.355,19.458 H 27.329 C 27.303,19.405 27.277,19.351 27.225,19.271 C 27.147,19.111 27.043,18.925 26.965,18.738 A 0.205,0.205 0 0,1 26.914,18.631 C 26.914,18.605 26.914,18.551 26.888,18.498 C 26.914,18.471 26.888,18.418 26.888,18.391 Z M 27.718,21.699 C 27.744,21.752 27.77,21.832 27.822,21.912 C 27.822,21.965 27.796,22.019 27.796,22.072 A 0.807,0.807 0 0,0 27.692,21.859 C 27.718,21.805 27.718,21.752 27.718,21.699 Z M 27.796,21.352 C 27.796,21.325 27.77,21.325 27.77,21.299 C 27.77,21.272 27.77,21.192 27.796,21.165 C 27.796,21.112 27.796,21.058 27.822,21.032 C 27.848,21.085 27.874,21.165 27.925,21.245 C 27.925,21.325 27.899,21.432 27.899,21.512 C 27.847,21.459 27.822,21.405 27.796,21.352 Z M 23.542,12.576 C 23.516,12.576 23.516,12.523 23.516,12.523 C 23.516,12.496 23.49,12.496 23.516,12.47 L 23.542,12.496 C 23.568,12.576 23.594,12.63 23.62,12.71 L 24.32,14.47 C 24.06,13.857 23.801,13.217 23.542,12.576 Z M 24.398,13.696 A 17.61,17.61 0 0,1 24.087,13.003 C 24.009,12.817 23.905,12.603 23.827,12.416 C 23.827,12.416 23.827,12.39 23.801,12.363 C 23.801,12.336 23.801,12.336 23.827,12.336 C 23.853,12.363 23.853,12.39 23.853,12.416 C 24.138,13.03 24.423,13.643 24.683,14.284 C 25.073,15.137 25.461,15.991 25.85,16.871 C 25.928,17.058 26.032,17.244 26.11,17.431 C 26.11,17.458 26.136,17.484 26.162,17.511 V 17.591 C 26.162,17.671 26.188,17.751 26.188,17.831 C 25.591,16.444 24.994,15.084 24.398,13.697 Z M 26.291,14.55 C 26.317,14.577 26.317,14.63 26.317,14.684 C 26.317,14.577 26.291,14.47 26.291,14.364 C 26.239,13.937 26.187,13.537 26.161,13.11 A 0.633,0.633 0 0,1 26.239,12.683 A 0.358,0.358 0 0,1 26.551,12.497 C 26.758,12.497 26.94,12.79 27.017,12.95 C 27.069,13.057 27.095,13.163 27.147,13.297 C 27.173,13.403 27.199,13.537 27.251,13.643 C 27.381,14.123 27.511,14.603 27.614,15.11 C 27.718,15.617 27.822,16.124 27.899,16.658 C 27.977,17.111 28.029,17.564 28.107,18.044 C 28.107,18.098 28.133,18.178 28.133,18.231 C 28.133,18.285 28.133,18.311 28.107,18.365 C 28.029,19.005 27.951,19.698 27.874,20.338 C 27.588,19.725 27.277,19.058 26.992,18.418 C 26.966,18.365 26.94,18.338 26.94,18.285 C 26.914,18.231 26.914,18.151 26.914,18.071 C 26.862,17.591 26.784,17.084 26.732,16.604 C 26.654,16.017 26.577,15.457 26.525,14.871 C 26.525,15.004 26.551,15.137 26.577,15.271 C 26.68,16.204 26.784,17.138 26.887,18.098 C 26.836,17.965 26.758,17.831 26.707,17.671 C 26.707,17.644 26.68,17.618 26.68,17.618 V 17.511 L 26.525,16.071 C 26.369,15.591 26.317,15.057 26.291,14.551 Z M 24.968,18.338 C 24.994,18.391 25.046,18.498 25.046,18.551 C 25.539,19.778 26.032,21.005 26.551,22.232 C 26.628,22.392 26.681,22.552 26.758,22.739 C 26.758,22.766 26.784,22.792 26.784,22.819 C 26.784,22.872 26.784,22.899 26.81,22.979 C 26.213,21.432 25.59,19.939 24.994,18.418 C 24.968,18.365 24.968,18.365 24.968,18.338 C 24.942,18.338 24.942,18.311 24.968,18.338 Z M 25.773,30.554 C 25.824,30.501 25.876,30.421 25.954,30.368 C 26.006,30.394 26.058,30.394 26.084,30.421 C 26.084,30.421 26.084,30.448 26.058,30.448 C 26.006,30.528 25.928,30.581 25.85,30.661 C 25.824,30.634 25.772,30.634 25.72,30.608 C 25.72,30.581 25.773,30.554 25.773,30.554 Z M 25.643,30.554 L 25.617,30.581 C 25.617,30.554 25.643,30.554 25.643,30.554 C 25.695,30.474 25.773,30.421 25.824,30.341 C 25.798,30.394 25.721,30.474 25.643,30.554 Z M 24.943,18.311 S 24.916,18.285 24.916,18.258 C 24.942,18.285 24.942,18.311 24.942,18.311 Z M 24.916,18.231 C 24.916,18.258 24.916,18.231 24.916,18.231 Z M 24.891,18.204 C 24.891,18.178 24.891,18.204 24.891,18.204 Z M 24.891,18.151 C 24.891,18.178 24.891,18.151 24.891,18.151 Z M 24.865,18.124 C 24.865,18.098 24.865,18.124 24.865,18.124 Z M 24.865,18.124 C 24.865,18.151 24.865,18.124 24.865,18.124 Z M 25.28,21.779 C 25.487,22.205 25.643,22.685 25.824,23.139 L 25.514,22.499 C 25.409,22.285 25.331,22.045 25.228,21.832 L 24.683,20.472 C 24.891,20.898 25.073,21.325 25.28,21.778 Z M 24.76,22.179 C 24.865,22.419 24.968,22.659 25.072,22.872 C 25.176,23.112 25.28,23.352 25.358,23.592 A 45.03,45.03 0 0,1 24.294,21.672 C 24.242,21.565 24.164,21.458 24.112,21.352 C 24.061,21.245 24.009,21.112 23.957,21.005 C 23.567,20.045 23.179,19.111 22.815,18.125 C 22.815,18.098 22.841,18.151 22.841,18.151 C 23.049,18.578 23.256,19.031 23.464,19.458 C 23.697,19.911 23.904,20.365 24.112,20.818 C 24.346,21.245 24.553,21.698 24.761,22.178 Z M 22.608,12.843 C 22.738,13.163 22.868,13.51 22.998,13.857 C 23.023,13.91 23.023,13.963 23.049,13.99 C 22.919,13.59 22.789,13.216 22.634,12.816 H 22.66 C 23.023,13.67 23.386,14.496 23.75,15.377 L 23.594,15.457 L 23.204,14.497 C 23.153,14.39 23.127,14.284 23.074,14.177 C 22.997,13.963 22.894,13.75 22.79,13.537 A 1.524,1.524 0 0,1 22.608,12.843 Z M 22.452,12.896 C 22.79,13.696 23.127,14.496 23.464,15.324 C 23.464,15.35 23.49,15.404 23.516,15.457 V 15.484 C 23.516,15.511 23.516,15.484 23.49,15.51 C 23.464,15.51 23.464,15.51 23.464,15.484 C 23.438,15.457 23.438,15.377 23.412,15.35 C 23.127,14.497 22.79,13.697 22.452,12.896 Z M 21.83,17.804 C 21.856,17.831 21.856,17.858 21.856,17.858 C 21.934,18.018 22.037,18.178 22.089,18.338 C 22.167,18.524 22.245,18.738 22.323,18.924 A 21.062,21.062 0 0,0 21.83,17.804 Z M 22.167,18.391 C 22.375,18.791 22.608,19.218 22.815,19.618 C 22.841,19.698 22.893,19.751 22.919,19.831 C 23.594,21.511 24.294,23.246 25.046,24.873 C 25.098,25.006 25.176,25.139 25.228,25.273 C 25.228,25.273 25.254,25.299 25.228,25.299 S 25.202,25.273 25.176,25.273 C 24.112,23.033 23.126,20.712 22.167,18.391 Z M 22.712,26.02 C 22.816,26.073 22.945,26.126 23.049,26.18 L 25.072,27.14 L 24.502,27.513 A 0.768,0.768 0 0,1 24.294,27.406 A 20.018,20.018 0 0,0 23.568,27.086 C 23.412,27.006 23.256,26.953 23.075,26.873 C 22.608,26.66 22.115,26.42 21.675,26.18 A 0.506,0.506 0 0,1 21.337,26.126 A 5.34,5.34 0 0,1 20.559,25.753 C 20.533,25.753 20.507,25.726 20.507,25.726 C 20.274,25.593 20.04,25.486 19.807,25.353 C 19.729,25.299 19.625,25.273 19.547,25.219 C 20.507,25.433 21.441,25.646 22.349,25.913 C 22.452,25.94 22.582,25.993 22.712,26.02 Z M 24.891,28.153 C 24.813,28.127 24.735,28.1 24.631,28.047 C 24.553,28.02 24.501,27.993 24.424,27.967 C 24.45,27.967 24.45,27.967 24.476,27.94 C 24.631,27.993 24.761,28.073 24.891,28.153 Z M 20.377,24.339 C 20.403,24.339 20.429,24.366 20.481,24.366 C 20.507,24.392 20.559,24.392 20.585,24.392 C 20.611,24.392 20.637,24.419 20.637,24.446 C 20.689,24.499 20.767,24.552 20.818,24.606 C 20.637,24.526 20.429,24.419 20.248,24.339 C 20.299,24.366 20.351,24.339 20.378,24.339 Z M 18.613,24.099 C 18.769,24.179 18.925,24.259 19.106,24.339 C 19.599,24.552 20.066,24.793 20.559,25.033 C 19.755,24.873 18.951,24.713 18.121,24.553 C 18.069,24.553 18.017,24.526 17.965,24.526 C 17.939,24.526 17.913,24.499 17.887,24.472 L 19.573,24.606 S 18.665,24.179 17.628,23.726 L 17.861,23.806 C 17.965,23.832 18.043,23.859 18.121,23.886 C 18.302,23.939 18.458,24.019 18.613,24.099 Z M 16.772,22.685 C 17.212,22.845 17.654,23.005 18.069,23.165 C 18.017,23.165 17.965,23.139 17.887,23.112 L 17.343,22.952 H 17.369 C 17.291,22.925 17.265,22.925 17.213,22.899 C 17.135,22.899 17.057,22.872 17.005,22.872 A 1.249,1.249 0 0,0 16.824,22.792 C 16.798,22.765 16.772,22.765 16.746,22.765 C 16.668,22.739 16.59,22.685 16.486,22.659 C 16.435,22.632 16.356,22.605 16.305,22.579 C 16.461,22.552 16.642,22.632 16.772,22.685 Z M 19.495,25.939 C 19.625,26.019 19.807,26.099 19.936,26.206 C 19.651,26.073 19.34,25.939 19.055,25.806 C 18.173,25.406 17.265,25.032 16.357,24.632 C 16.409,24.632 16.461,24.659 16.538,24.659 L 17.161,24.793 C 17.265,24.846 17.368,24.899 17.498,24.926 C 17.576,24.953 17.68,24.953 17.783,24.953 C 17.861,24.953 17.965,24.953 18.043,24.979 L 18.743,25.459 L 18.821,25.486 L 20.326,26.126 L 21.96,26.9 L 19.47,25.86 C 19.47,25.913 19.495,25.94 19.495,25.94 Z M 20.533,28.74 C 20.585,28.74 20.663,28.767 20.714,28.794 L 21.259,28.954 H 21.233 A 1.866,1.866 0 0,1 20.87,28.847 C 20.74,28.82 20.637,28.767 20.533,28.74 Z M 20.896,28.874 C 21.804,29.14 22.738,29.407 23.646,29.701 V 29.727 C 23.62,29.754 23.542,29.807 23.516,29.834 C 22.634,29.487 21.778,29.194 20.896,28.874 Z M 21.83,30.234 C 22.141,30.314 22.452,30.421 22.79,30.501 L 22.738,30.554 A 35.71,35.71 0 0,1 21.83,30.234 Z M 23.386,31.034 C 22.296,31.941 21.233,32.821 20.144,33.728 C 20.507,33.381 20.844,33.008 21.207,32.661 L 21.389,32.474 C 21.441,32.421 21.519,32.368 21.57,32.288 L 22.27,31.568 C 22.452,31.381 22.634,31.221 22.816,31.034 C 22.867,30.981 22.946,30.927 22.997,30.874 C 23.127,30.927 23.257,30.954 23.387,31.034 C 23.412,31.007 23.387,31.007 23.387,31.034 Z M 23.594,30.847 A 2.499,2.499 0 0,0 23.179,30.714 C 23.179,30.687 23.231,30.661 23.231,30.634 C 23.386,30.687 23.541,30.714 23.697,30.767 A 0.36,0.36 0 0,1 23.594,30.847 Z M 23.308,28.554 C 22.089,28.154 20.87,27.78 19.651,27.354 C 21.285,27.86 22.919,28.367 24.527,28.9 C 24.501,28.927 24.501,28.927 24.45,28.927 L 24.216,28.847 C 23.905,28.74 23.594,28.634 23.308,28.554 Z M 23.957,29.967 C 23.957,29.941 23.983,29.941 23.983,29.941 L 24.087,29.834 L 24.631,29.994 C 24.553,30.047 24.501,30.101 24.424,30.154 A 3.404,3.404 0 0,0 23.957,29.967 Z M 24.19,31.061 A 0.46,0.46 0 0,1 24.32,30.954 C 24.372,30.981 24.45,30.981 24.501,31.007 C 24.476,31.061 24.424,31.087 24.398,31.141 A 1.758,1.758 0 0,1 24.19,31.061 Z M 17.835,41.17 L 18.847,40.29 C 19.988,39.276 21.104,38.262 22.245,37.249 C 22.167,37.382 22.063,37.516 21.96,37.676 C 21.934,37.702 21.934,37.729 21.934,37.729 L 21.856,37.809 C 21.466,38.156 21.052,38.503 20.663,38.849 C 20.715,38.796 20.793,38.769 20.844,38.716 C 20.584,38.929 20.351,39.169 20.092,39.383 C 19.314,40.023 18.51,40.663 17.732,41.303 C 17.732,41.25 17.784,41.197 17.835,41.17 Z M 18.328,40.876 L 17.317,41.756 L 17.291,41.783 V 41.73 C 17.291,41.703 17.317,41.703 17.317,41.703 C 17.343,41.677 17.369,41.676 17.394,41.65 C 17.42,41.623 17.446,41.623 17.472,41.597 C 17.809,41.33 18.172,41.037 18.51,40.743 C 18.432,40.796 18.38,40.823 18.328,40.876 Z M 18.51,40.716 C 18.484,40.743 18.51,40.716 18.51,40.716 Z M 20.74,39.009 L 19.885,39.729 C 19.495,40.049 19.132,40.369 18.743,40.689 C 18.795,40.636 18.847,40.609 18.873,40.583 C 19.028,40.476 19.158,40.343 19.288,40.236 L 19.833,39.756 C 20.014,39.596 20.196,39.409 20.377,39.276 C 20.559,39.116 20.767,38.956 20.974,38.823 A 1.154,1.154 0 0,0 20.741,39.009 Z M 20.715,38.956 C 20.715,38.929 20.741,38.929 20.766,38.903 C 20.896,38.796 21.026,38.663 21.181,38.556 C 21.311,38.449 21.467,38.316 21.596,38.209 C 21.596,38.236 21.544,38.262 21.519,38.289 C 21.259,38.503 20.974,38.743 20.715,38.956 Z M 21.467,39.169 C 21.519,39.089 21.571,39.009 21.648,38.929 C 21.674,38.903 21.674,38.876 21.7,38.849 C 21.726,38.823 21.752,38.823 21.778,38.796 C 21.934,38.663 22.115,38.529 22.271,38.396 C 22.011,38.636 21.752,38.903 21.467,39.169 Z M 22.063,34.369 L 21.985,34.449 S 22.011,34.422 22.011,34.395 L 22.323,34.075 C 22.375,34.022 22.453,33.968 22.504,33.888 C 22.738,33.648 22.971,33.408 23.204,33.141 C 23.49,32.821 23.775,32.528 24.061,32.208 L 24.242,32.021 C 24.294,31.968 24.346,31.888 24.424,31.834 C 24.502,31.728 24.605,31.648 24.684,31.568 C 24.709,31.541 24.734,31.488 24.761,31.488 C 24.761,31.488 24.787,31.488 24.813,31.514 C 24.657,31.701 24.476,31.888 24.32,32.074 L 24.865,31.514 C 24.917,31.541 24.942,31.541 24.995,31.568 C 24.813,31.781 24.631,31.941 24.45,32.154 C 24.45,32.181 24.424,32.181 24.424,32.208 C 24.424,32.234 24.398,32.234 24.398,32.261 L 24.32,32.341 C 23.542,32.981 22.79,33.675 22.063,34.368 Z M 25.253,30.181 L 25.073,30.367 C 25.046,30.367 25.046,30.367 25.02,30.341 C 25.098,30.261 25.176,30.207 25.254,30.154 C 25.28,30.154 25.254,30.181 25.254,30.181 Z M 25.28,31.248 C 25.28,31.274 25.254,31.274 25.254,31.301 L 25.15,31.408 C 25.098,31.408 25.072,31.381 25.02,31.354 C 24.994,31.354 25.02,31.354 25.02,31.328 C 25.046,31.274 25.098,31.248 25.15,31.194 C 25.202,31.194 25.228,31.221 25.28,31.247 Z M 25.046,31.168 H 25.072 C 25.02,31.221 24.994,31.274 24.942,31.328 H 24.916 C 24.916,31.301 24.942,31.301 24.942,31.301 C 24.994,31.248 25.02,31.194 25.046,31.167 Z M 23.801,36.102 C 23.775,36.155 23.723,36.182 23.671,36.209 C 23.541,36.315 23.412,36.422 23.308,36.529 C 23.334,36.475 23.36,36.449 23.386,36.395 C 23.386,36.369 23.412,36.369 23.412,36.342 A 0.361,0.361 0 0,1 23.516,36.262 C 23.594,36.235 23.697,36.182 23.801,36.102 Z M 25.28,35.115 L 23.023,36.955 A 0.712,0.712 0 0,1 23.205,36.742 C 23.438,36.529 23.697,36.289 23.957,36.075 C 24.035,35.995 24.138,35.915 24.242,35.835 C 24.657,35.568 25.046,35.275 25.435,35.008 C 25.358,35.035 25.305,35.062 25.28,35.115 Z M 25.513,29.247 C 25.306,29.194 25.098,29.114 24.916,29.06 C 24.891,29.06 24.942,29.034 24.942,29.034 C 25.15,29.087 25.358,29.167 25.513,29.247 C 25.539,29.22 25.539,29.247 25.513,29.247 Z M 25.539,27.94 S 25.487,27.913 25.461,27.913 A 4.023,4.023 0 0,1 24.942,27.727 C 25.124,27.647 25.332,27.54 25.487,27.46 C 25.539,27.567 25.591,27.7 25.643,27.807 C 25.643,27.833 25.617,27.833 25.591,27.86 C 25.591,27.887 25.565,27.913 25.539,27.94 Z M 25.565,34.368 C 25.643,34.288 25.695,34.235 25.772,34.181 C 25.954,34.021 26.162,33.861 26.369,33.701 L 26.239,33.835 L 27.744,32.528 C 27.822,32.554 27.874,32.581 27.951,32.608 C 27.173,33.195 26.369,33.781 25.565,34.368 Z M 28.34,32.234 C 28.262,32.314 28.21,32.394 28.133,32.448 C 28.055,32.421 28.003,32.394 27.925,32.368 C 28.003,32.288 28.107,32.208 28.185,32.128 C 28.237,32.154 28.315,32.154 28.366,32.181 C 28.366,32.208 28.34,32.208 28.34,32.234 Z M 28.21,23.005 C 28.21,22.979 28.185,22.952 28.185,22.925 V 22.819 V 22.712 C 28.366,23.085 28.522,23.459 28.677,23.806 C 28.677,23.939 28.703,24.072 28.703,24.206 C 28.548,23.806 28.366,23.406 28.211,23.006 Z M 30.078,34.528 V 34.928 C 29.871,34.528 29.689,34.128 29.482,33.728 A 0.365,0.365 0 0,1 29.559,33.835 C 29.741,34.048 29.923,34.288 30.079,34.528 Z M 29.508,32.554 C 29.534,32.608 29.559,32.688 29.585,32.741 C 29.533,32.661 29.482,32.608 29.43,32.528 C 29.456,32.554 29.482,32.554 29.508,32.554 Z M 29.118,23.592 C 29.17,23.699 29.222,23.832 29.3,23.966 V 24.099 C 29.248,23.966 29.196,23.832 29.119,23.699 V 23.592 Z M 29.196,24.392 A 0.205,0.205 0 0,1 29.144,24.286 V 24.152 C 29.144,24.046 29.144,23.912 29.119,23.806 C 29.144,23.886 29.196,23.992 29.249,24.072 C 29.274,24.099 29.3,24.152 29.3,24.179 V 24.419 C 29.3,24.446 29.248,24.472 29.222,24.472 C 29.222,24.472 29.222,24.419 29.196,24.392 Z M 29.248,33.382 C 29.274,33.382 29.274,33.408 29.3,33.435 C 29.3,33.461 29.326,33.461 29.352,33.488 C 29.352,33.514 29.352,33.541 29.378,33.541 C 29.404,33.594 29.43,33.675 29.456,33.728 A 0.945,0.945 0 0,1 29.248,33.381 Z M 29.741,35.782 A 5.672,5.672 0 0,1 29.481,35.062 C 29.456,34.928 29.43,34.822 29.404,34.688 C 29.611,35.061 29.819,35.515 30.026,35.915 C 30.052,35.968 30.078,36.022 30.104,36.102 V 36.528 A 9.65,9.65 0 0,0 29.741,35.782 Z M 34.747,40.956 C 34.799,41.036 34.877,41.143 34.929,41.223 C 35.11,41.463 35.292,41.703 35.447,41.943 C 35.525,42.077 35.629,42.183 35.681,42.343 C 35.681,42.37 35.655,42.316 35.655,42.316 C 35.473,42.103 35.292,41.89 35.136,41.676 C 34.955,41.436 34.825,41.143 34.669,40.876 L 34.747,40.956 Z M 32.361,31.274 C 32.646,31.354 32.957,31.434 33.243,31.514 L 33.217,31.541 C 32.931,31.461 32.647,31.354 32.361,31.274 Z M 32.801,32.741 C 32.672,32.714 32.568,32.661 32.439,32.634 C 32.387,32.528 32.335,32.448 32.283,32.341 C 32.413,32.394 32.543,32.421 32.672,32.448 C 32.724,32.554 32.776,32.634 32.802,32.741 Z M 32.854,30.794 S 32.88,30.794 32.854,30.794 C 32.568,30.714 32.283,30.607 31.998,30.527 L 31.92,30.367 C 31.972,30.367 31.998,30.394 32.024,30.42 C 32.309,30.554 32.594,30.66 32.854,30.794 Z M 32.257,29.3 C 32.179,29.38 32.101,29.433 32.024,29.513 C 31.816,29.407 31.609,29.3 31.375,29.22 C 31.297,29.06 31.245,28.9 31.168,28.767 C 31.194,28.713 31.245,28.687 31.298,28.66 C 31.686,28.82 32.101,28.98 32.49,29.113 C 32.439,29.167 32.36,29.22 32.257,29.3 Z M 31.738,30.447 C 31.66,30.42 31.557,30.394 31.478,30.367 L 31.608,30.234 H 31.634 C 31.66,30.287 31.712,30.367 31.738,30.447 Z M 31.401,30.1 C 31.375,30.127 31.349,30.154 31.297,30.18 L 31.271,30.207 C 31.245,30.127 31.219,30.074 31.194,29.994 C 31.245,30.047 31.324,30.074 31.401,30.1 Z M 32.88,28.74 C 32.464,28.607 32.05,28.447 31.66,28.313 C 31.634,28.313 31.66,28.287 31.686,28.287 S 31.712,28.26 31.738,28.26 C 32.128,28.42 32.542,28.553 32.931,28.713 C 32.906,28.713 32.88,28.74 32.88,28.74 Z M 34.384,29.167 C 35.24,29.46 36.848,30.047 37.73,30.34 C 37.756,30.34 37.782,30.367 37.808,30.367 C 37.834,30.367 37.86,30.367 37.886,30.394 A 0.077,0.077 0 0,1 37.782,30.394 C 37.756,30.394 37.73,30.367 37.73,30.367 C 36.848,30.074 35.24,29.487 34.384,29.167 Z M 37.444,30.367 C 37.471,30.367 37.522,30.394 37.548,30.394 C 37.626,30.421 37.73,30.474 37.834,30.501 C 37.86,30.501 37.886,30.501 37.886,30.527 C 37.548,30.394 36.433,30.02 36.122,29.887 C 35.11,29.514 34.125,29.167 33.113,28.794 C 33.113,28.767 33.139,28.767 33.165,28.767 C 34.306,29.22 36.252,29.94 37.445,30.367 Z M 40.142,22.525 C 40.09,22.579 40.012,22.632 39.935,22.685 C 39.416,23.085 38.923,23.485 38.43,23.885 A 86.73,86.73 0 0,0 35.11,26.766 C 34.592,27.246 34.047,27.7 33.528,28.18 C 33.502,28.207 33.502,28.207 33.476,28.207 C 33.061,28.073 32.672,27.913 32.257,27.78 C 32.257,27.78 32.257,27.753 32.283,27.753 C 32.335,27.7 32.413,27.646 32.464,27.593 L 33.113,27.006 C 33.269,26.873 33.398,26.74 33.553,26.606 C 33.632,26.553 33.683,26.473 33.761,26.419 C 34.125,26.099 34.514,25.779 34.877,25.486 C 34.955,25.433 35.032,25.379 35.137,25.326 C 36.744,24.366 38.43,23.459 40.142,22.526 Z M 40.739,21.698 C 40.169,22.018 39.597,22.312 39.027,22.632 C 38.949,22.685 38.871,22.712 38.793,22.765 C 38.301,23.032 37.808,23.299 37.341,23.565 A 0.36,0.36 0 0,1 37.445,23.485 C 37.937,23.139 38.456,22.845 38.975,22.552 C 39.131,22.472 39.26,22.392 39.416,22.339 C 39.572,22.259 39.701,22.205 39.856,22.125 C 40.142,21.965 40.428,21.832 40.739,21.698 C 40.739,21.672 40.739,21.698 40.739,21.698 Z M 41.854,19.778 C 41.906,19.778 41.958,19.751 42.01,19.751 A 0.615,0.615 0 0,1 42.321,19.751 C 42.347,19.751 42.373,19.751 42.373,19.778 H 42.451 C 42.477,19.778 42.529,19.831 42.554,19.858 C 42.632,19.911 42.684,19.991 42.736,20.071 C 42.762,20.125 42.788,20.151 42.788,20.205 V 20.392 C 42.736,20.738 42.451,20.898 42.191,21.032 C 42.165,21.032 42.139,21.058 42.139,21.058 C 42.113,21.058 42.088,21.085 42.062,21.085 C 42.036,21.112 41.958,21.138 41.958,21.138 C 41.932,21.138 41.906,21.112 41.854,21.112 C 41.906,21.085 41.984,21.058 42.01,21.032 C 42.243,20.898 42.425,20.765 42.606,20.605 A 0.515,0.515 0 0,0 42.736,20.258 C 42.736,20.098 42.632,19.965 42.555,19.885 C 42.529,19.858 42.503,19.805 42.451,19.805 A 0.361,0.361 0 0,0 42.295,19.751 A 1.34,1.34 0 0,0 41.828,19.778 C 41.543,19.831 41.258,19.911 40.998,19.991 C 40.635,20.098 40.298,20.231 39.961,20.365 C 40.531,20.151 41.206,19.911 41.854,19.778 Z M 39.001,21.645 L 39.079,21.565 S 39.053,21.538 39.027,21.485 C 39.234,21.352 39.467,21.192 39.701,21.085 C 39.935,20.978 40.194,20.898 40.453,20.791 C 40.843,20.658 41.232,20.525 41.647,20.391 C 41.75,20.365 41.828,20.338 41.932,20.311 C 41.984,20.311 42.036,20.311 42.062,20.285 V 20.311 C 41.984,20.391 41.854,20.445 41.75,20.498 C 41.517,20.631 41.283,20.738 41.05,20.845 L 40.661,21.005 L 40.271,21.165 C 39.909,21.325 39.234,21.645 39.182,21.698 C 38.923,21.832 38.638,21.992 38.404,22.125 C 38.482,22.045 38.612,21.938 38.742,21.832 C 38.845,21.805 38.923,21.725 39.001,21.645 Z M 31.479,26.5 C 31.583,26.42 31.686,26.313 31.764,26.26 C 32.154,25.913 32.516,25.593 32.906,25.273 C 33.009,25.193 33.087,25.113 33.191,25.033 C 33.476,24.793 33.735,24.526 34.021,24.259 C 34.747,23.565 35.473,22.899 36.226,22.205 C 36.589,21.858 36.952,21.512 37.341,21.192 A 45.438,45.438 0 0,1 39.027,19.698 C 39.234,19.538 39.442,19.378 39.649,19.244 C 39.339,19.804 38.871,20.231 38.404,20.631 C 38.301,20.711 38.223,20.791 38.119,20.871 C 37.782,21.191 37.419,21.485 37.056,21.805 L 37.03,21.832 C 36.848,21.992 36.64,22.178 36.433,22.365 C 36.07,22.685 35.681,23.005 35.292,23.352 C 34.929,23.699 34.54,24.019 34.176,24.339 C 33.995,24.499 33.813,24.659 33.606,24.846 C 33.243,25.166 32.854,25.513 32.49,25.833 C 31.946,26.34 31.35,26.793 30.778,27.3 A 0.27,0.27 0 0,1 30.648,27.246 V 27.22 C 30.648,27.193 30.701,27.193 30.701,27.167 C 30.961,26.953 31.219,26.713 31.479,26.5 Z M 31.089,29.06 C 31.038,29.034 30.96,29.007 30.909,28.98 C 30.934,28.953 30.986,28.927 31.012,28.9 L 31.09,29.06 Z M 31.479,25.593 C 31.194,25.886 30.934,26.153 30.675,26.446 L 30.649,26.473 S 30.649,26.5 30.623,26.5 C 30.623,26.5 30.597,26.473 30.623,26.473 L 30.649,26.446 C 31.219,25.886 31.79,25.299 32.361,24.712 C 32.076,24.979 31.764,25.299 31.479,25.592 Z M 30.286,24.259 V 24.153 C 30.286,24.126 30.338,24.099 30.363,24.073 C 30.441,23.993 30.519,23.913 30.597,23.859 C 30.908,23.566 31.245,23.272 31.557,22.979 C 31.66,22.872 31.764,22.792 31.867,22.686 C 31.92,22.632 31.972,22.579 32.024,22.552 C 32.283,22.312 32.568,22.072 32.828,21.832 L 31.557,23.219 C 31.245,23.566 30.908,23.913 30.597,24.259 C 30.493,24.366 30.39,24.499 30.286,24.606 V 24.259 Z M 30.312,25.806 C 30.312,25.78 30.39,25.7 30.442,25.673 C 30.727,25.38 30.986,25.059 31.272,24.766 C 31.402,24.633 31.505,24.499 31.635,24.366 C 31.816,24.153 32.024,23.939 32.231,23.726 C 32.516,23.406 32.776,23.112 33.061,22.819 L 33.191,22.686 C 33.502,22.339 33.839,22.019 34.176,21.672 C 34.332,21.512 34.514,21.352 34.669,21.165 C 35.162,20.658 35.655,20.178 36.174,19.698 C 36.252,19.618 36.355,19.538 36.434,19.458 L 37.211,18.738 C 37.393,18.578 37.574,18.418 37.756,18.285 C 37.937,18.125 38.119,17.991 38.301,17.831 C 37.341,18.871 36.355,19.885 35.37,20.925 C 35.136,21.192 34.877,21.432 34.643,21.699 L 34.513,21.832 C 34.488,21.859 34.488,21.885 34.462,21.912 L 30.934,25.54 C 30.804,25.673 30.674,25.78 30.571,25.913 L 30.467,26.02 L 30.441,26.046 C 30.363,25.913 30.311,25.886 30.311,25.806 Z M 30.571,32.981 L 30.856,33.408 A 1.241,1.241 0 0,1 30.571,33.301 V 32.981 Z M 32.075,38.929 C 32.075,38.956 32.049,38.903 32.049,38.903 C 31.946,38.689 31.816,38.449 31.712,38.209 C 31.582,37.969 31.479,37.729 31.349,37.489 C 31.116,37.009 30.856,36.529 30.623,36.049 C 30.623,35.809 30.597,35.542 30.597,35.302 A 75.138,75.138 0 0,1 32.075,38.929 Z M 32.698,37.116 L 32.231,36.476 C 31.791,35.836 31.323,35.222 30.882,34.582 C 30.856,34.529 30.804,34.448 30.778,34.368 C 30.727,34.235 30.675,34.102 30.623,33.942 C 30.623,33.915 30.597,33.888 30.597,33.862 V 33.675 V 33.488 C 30.753,33.541 30.882,33.595 31.037,33.622 L 32.309,35.515 C 32.413,36.049 32.542,36.582 32.698,37.115 Z M 32.568,32.875 C 32.542,32.848 32.568,32.848 32.568,32.875 C 32.646,32.875 32.75,32.901 32.854,32.928 C 32.88,32.928 32.931,32.955 32.931,32.981 A 1.875,1.875 0 0,1 32.568,32.875 Z M 34.488,39.489 C 34.151,39.063 33.813,38.609 33.476,38.183 L 33.398,38.103 C 33.372,38.076 33.372,38.023 33.346,37.969 C 33.191,37.569 33.061,37.169 32.931,36.769 L 34.488,39.489 Z M 33.58,34.369 C 33.476,34.342 33.346,34.289 33.243,34.262 L 33.009,33.782 C 33.139,33.808 33.243,33.862 33.346,33.888 L 33.58,34.368 Z M 42.243,35.302 C 42.269,35.275 42.295,35.275 42.321,35.275 A 0.3,0.3 0 0,1 42.321,35.489 C 42.321,35.542 42.295,35.622 42.243,35.649 C 42.217,35.649 42.139,35.649 42.088,35.622 C 41.361,35.435 40.661,35.222 39.935,35.035 L 38.223,34.555 C 36.718,34.128 35.188,33.675 33.683,33.248 C 33.528,33.195 33.373,33.168 33.217,33.115 H 33.191 C 33.139,33.088 33.087,33.115 33.087,33.061 C 33.269,33.115 33.45,33.168 33.657,33.221 C 34.228,33.381 34.773,33.541 35.344,33.675 C 36.096,33.888 36.848,34.075 37.6,34.288 C 38.352,34.475 39.105,34.688 39.857,34.902 L 40.402,35.062 C 40.687,35.142 40.972,35.222 41.258,35.275 C 41.361,35.302 41.439,35.328 41.543,35.355 C 41.724,35.408 41.906,35.489 42.088,35.542 C 42.114,35.515 42.114,35.489 42.114,35.462 C 42.114,35.408 42.062,35.408 42.01,35.408 C 42.14,35.382 42.191,35.355 42.243,35.302 Z M 42.036,35.355 C 42.062,35.355 42.062,35.355 42.062,35.382 C 42.062,35.355 42.036,35.355 42.036,35.355 Z M 40.868,34.982 C 40.946,35.008 40.972,35.008 41.024,35.035 L 42.036,35.355 C 41.984,35.355 41.932,35.355 41.854,35.328 A 0.195,0.195 0 0,1 41.75,35.275 C 41.491,35.168 41.206,35.088 40.92,35.008 C 40.998,35.035 41.076,35.062 41.128,35.088 C 41.05,35.088 40.998,35.062 40.92,35.035 C 40.428,34.875 39.935,34.715 39.468,34.582 C 38.923,34.395 38.352,34.235 37.808,34.048 C 38.819,34.342 39.831,34.662 40.868,34.982 Z M 35.162,33.222 C 35.24,33.248 35.318,33.275 35.37,33.302 C 35.733,33.435 36.096,33.568 36.459,33.675 C 37.626,34.048 38.819,34.422 39.987,34.822 A 670.695,670.695 0 0,1 33.061,32.848 C 33.035,32.821 33.035,32.795 33.035,32.768 C 33.009,32.688 32.957,32.635 32.931,32.554 C 33.243,32.634 33.528,32.741 33.839,32.821 C 34.254,32.955 34.695,33.061 35.162,33.221 Z M 36.2,31.674 A 0.386,0.386 0 0,0 36.148,31.514 C 37.808,31.461 40.635,31.381 41.206,31.461 C 41.776,31.514 38.171,31.621 36.2,31.674" fill="rgb(254, 254, 253)"/>
</svg>
