<?xml version="1.0" encoding="UTF-8"?>
<!-- generated by Finnhub -->
<svg viewBox="0 0 55.5 55.5" xmlns="http://www.w3.org/2000/svg">
<path d="M 0,0 H 55.5 V 55.5 H 0 Z" fill="rgb(239, 242, 248)"/>
<path d="M 25.049999999999997,16.985 L 26.24,22.16 L 27.51,17 H 28.12 L 29.32,22.16 L 30.62,17 H 31.25 C 30.75,19 30.25,21 29.73,23 H 28.91 L 27.81,18.14 L 26.61,23 H 25.78 L 24.42,17 H 25.06 Z M 14.68,19.93 C 14.68,22.04 13.45,23.23 11.58,22.96 A 2.2,2.2 0 0,1 9.81,21.59 C 9.24,20.35 9.42,18.64 10.23,17.79 C 11.01,16.96 11.97,16.84 12.98,17.17 C 13.97,17.49 14.45,18.3 14.63,19.35 C 14.66,19.55 14.67,19.74 14.68,19.93 Z M 10.21,20.6 C 10.37,21.64 11.06,22.34 11.98,22.39 C 12.93,22.44 13.68,21.83 13.9,20.8 C 14.07,20.13 14.02,19.41 13.75,18.77 A 1.73,1.73 0 0,0 13.11,17.94 C 12.81,17.74 12.46,17.64 12.11,17.64 A 1.67,1.67 0 0,0 10.41,18.76 C 10.16,19.39 10.11,19.96 10.21,20.6 Z M 21.66,32 H 21 V 29.48 C 20.48,29.71 20.03,30.01 19.44,30 C 18.01,29.97 17.26,28.58 17.74,27.26 A 1.91,1.91 0 0,1 20.14,26.1 C 20.46,26.2 20.69,26.4 21,26.58 C 21.01,26.44 20.98,26.18 21,26 H 21.66 V 32 Z M 20.88,27.33 A 1.16,1.16 0 0,0 20.41,26.73 C 20.19,26.59 19.92,26.52 19.65,26.53 C 19.09,26.53 18.65,26.83 18.45,27.37 C 18.26,27.89 18.28,28.27 18.5,28.77 C 18.58,28.97 18.72,29.14 18.91,29.27 C 19.11,29.39 19.33,29.47 19.56,29.47 C 20.08,29.5 20.52,29.33 20.76,28.91 C 21.01,28.39 21.06,27.88 20.88,27.33 Z M 21.65,37.36 V 40 H 21 V 34 H 21.56 C 21.6,34.14 21.63,34.48 21.66,34.66 C 21.8,34.56 21.9,34.46 22.02,34.38 A 2.01,2.01 0 0,1 23.6,34.04 C 24.46,34.22 25.15,35.04 25.13,35.94 C 25.1,37.04 24.25,38 23.11,38 C 22.57,37.98 22.11,37.7 21.65,37.36 Z M 21.6,35.88 C 21.64,36.15 21.7,36.41 21.78,36.68 C 21.96,37.11 22.42,37.42 22.93,37.45 C 23.83,37.51 24.45,36.73 24.43,35.86 C 24.43,35.39 24.07,34.86 23.65,34.66 C 23.44,34.56 23.19,34.51 22.95,34.53 C 22.72,34.53 22.49,34.59 22.29,34.71 S 21.95,35.01 21.86,35.21 C 21.75,35.49 21.66,35.58 21.6,35.88 Z M 43.4,19.58 V 17 H 44 V 23 H 43.49 L 43.42,22.36 L 43.24,22.48 C 42.84,22.85 42.39,23 41.96,23 C 41.22,23 40.54,22.5 40.34,21.57 C 40.11,20.46 40.83,18.97 42.09,19.01 C 42.51,19.02 42.97,19.19 43.4,19.58 Z M 43.3,20.42 C 43.1,19.85 42.68,19.53 42.14,19.55 C 41.1,19.57 40.76,20.93 41.1,21.75 A 1.08,1.08 0 0,0 42.1,22.45 A 1.07,1.07 0 0,0 43.17,21.88 C 43.41,21.32 43.45,20.99 43.3,20.42 Z M 10.27,28.49 L 9.68,30 H 9 L 11.3,24 H 12.07 L 14.27,30 H 13.54 L 12.97,28.49 H 10.27 Z M 11.67,24.74 L 10.54,27.82 H 12.74 L 11.66,24.74 Z M 20.62,20.93 L 20,21.73 V 23 H 19.45 V 17 H 20 V 20.6 L 20.14,20.67 L 21.67,18.61 H 22.33 L 21.03,20.39 L 22.65,22.99 H 21.96 L 20.62,20.93 Z M 45,36 C 45,37.44 43.76,38.32 42.34,37.9 C 41.25,37.56 40.72,36.36 41.15,35.2 C 41.5,34.27 42.59,33.79 43.66,34.1 C 44.5,34.33 45,35.05 45,36 Z M 41.68,36 C 41.68,36.82 42.16,37.4 42.89,37.46 C 43.65,37.53 44.24,37.02 44.33,36.21 C 44.43,35.31 43.98,34.65 43.23,34.57 C 42.27,34.47 41.68,35.02 41.68,35.99 Z M 35.27,21 C 35.27,22.46 34.04,23.34 32.66,22.88 C 31.72,22.56 31.21,21.51 31.48,20.43 A 1.87,1.87 0 0,1 33.6,19.01 C 34.63,19.13 35.28,19.9 35.27,21.01 Z M 32.07,20.98 C 32.07,21.81 32.52,22.39 33.23,22.46 C 33.96,22.53 34.53,22.02 34.63,21.22 C 34.73,20.33 34.3,19.66 33.57,19.57 C 32.65,19.47 32.07,20.01 32.07,20.98 Z M 39.79,21 C 39.79,22.45 38.57,23.34 37.19,22.88 C 36.16,22.54 35.66,21.35 36.06,20.21 C 36.13,19.99 36.26,19.79 36.42,19.61 C 36.58,19.44 36.78,19.29 37,19.19 A 2.06,2.06 0 0,1 38.48,19.09 C 39.3,19.33 39.78,20.04 39.78,20.99 Z M 36.59,20.98 C 36.58,21.81 37.03,22.38 37.73,22.46 C 38.47,22.54 39.04,22.03 39.14,21.23 C 39.24,20.34 38.81,19.66 38.09,19.57 C 37.17,19.47 36.59,20.01 36.59,20.97 Z M 40.5,27.98 C 40.5,29.45 39.2,30.35 37.77,29.87 C 36.81,29.54 36.29,28.48 36.58,27.41 C 36.84,26.47 37.68,25.91 38.74,26.01 C 39.81,26.11 40.49,26.87 40.5,27.98 Z M 39.78,27.55 C 39.62,26.89 39.2,26.56 38.53,26.55 C 37.84,26.55 37.35,26.88 37.24,27.55 C 37.19,27.93 37.22,28.31 37.33,28.68 C 37.4,28.92 37.56,29.12 37.78,29.26 C 38,29.41 38.27,29.48 38.54,29.46 C 38.8,29.46 39.05,29.39 39.26,29.24 C 39.46,29.1 39.62,28.9 39.7,28.68 C 39.83,28.28 39.88,27.95 39.78,27.55 Z M 18.13,36 C 18.13,37.46 16.78,38.34 15.27,37.88 A 1.95,1.95 0 0,1 13.98,35.44 C 14.24,34.47 15.18,33.9 16.29,34.01 C 17.42,34.13 18.13,34.89 18.13,36.01 Z M 14.63,35.97 C 14.62,36.8 15.11,37.38 15.88,37.46 C 16.68,37.54 17.31,37.04 17.42,36.23 C 17.54,35.35 17.07,34.66 16.28,34.57 C 15.28,34.46 14.63,35 14.63,35.97 Z M 29.29,36 C 29.29,37.44 28.05,38.32 26.63,37.9 C 25.54,37.56 25.01,36.36 25.44,35.2 C 25.79,34.27 26.88,33.79 27.95,34.1 C 28.79,34.33 29.29,35.04 29.29,36 Z M 25.97,36 C 25.97,36.82 26.46,37.4 27.19,37.46 C 27.93,37.53 28.51,37.04 28.62,36.25 C 28.74,35.37 28.3,34.67 27.55,34.57 H 27.51 C 26.56,34.47 25.97,35.02 25.97,36 Z M 13.46,32.37 V 32.93 C 12.23,32.55 11.04,32.34 10.16,33.53 C 9.58,34.31 9.56,35.66 10.13,36.43 C 11.02,37.61 12.21,37.48 13.45,37.05 L 13.5,37.25 V 37.56 A 3.1,3.1 0 0,1 9.79,37.16 A 3.35,3.35 0 0,1 9.63,33.05 C 10.46,31.98 12.12,31.68 13.46,32.37 Z M 17.72,20.89 C 17.8,19.55 17.43,19.36 15.54,19.67 V 19.25 A 2.98,2.98 0 0,1 17.51,19.11 C 18.05,19.25 18.34,19.66 18.35,20.28 V 23 H 17.88 L 17.74,22.64 C 16.81,23.14 15.95,23.12 15.47,22.6 C 15.28,22.37 15.17,22.1 15.17,21.8 C 15.17,21.52 15.28,21.24 15.47,21 C 15.96,20.48 16.84,20.43 17.72,20.89 Z M 17.76,21.76 C 17.76,21.27 17.36,20.96 16.78,20.97 C 16.2,20.99 15.84,21.3 15.85,21.8 C 15.85,22.3 16.22,22.61 16.79,22.61 C 16.92,22.61 17.05,22.61 17.17,22.56 C 17.29,22.52 17.4,22.46 17.49,22.38 A 0.8,0.8 0 0,0 17.7,22.1 C 17.75,21.99 17.77,21.87 17.76,21.76 Z M 35.28,35.87 C 35.46,34.59 34.85,34.28 32.93,34.68 V 34.24 A 3.6,3.6 0 0,1 35.04,34.1 C 35.64,34.24 35.98,34.64 35.99,35.25 C 36.01,36.13 35.99,37.08 35.99,38 H 35.47 L 35.33,37.62 C 34.37,38.12 33.41,38.12 32.87,37.62 C 32.65,37.4 32.53,37.12 32.53,36.83 C 32.52,36.54 32.63,36.26 32.83,36.03 C 33.33,35.49 34.29,35.43 35.28,35.87 Z M 35.34,36.75 C 35.34,36.27 34.91,35.95 34.28,35.97 C 33.63,35.99 33.24,36.3 33.26,36.8 C 33.26,37.3 33.66,37.61 34.29,37.6 C 34.93,37.6 35.35,37.26 35.34,36.75 Z M 25.66,30 H 25.08 L 25.02,29.39 C 24.51,29.89 23.9,30.09 23.17,29.96 C 22.5,29.84 22.07,29.48 22.03,28.86 C 21.97,27.9 22,26 22,26 H 22.7 V 27.4 C 22.7,27.79 22.68,28.18 22.7,28.57 C 22.75,29.18 23.12,29.49 23.77,29.5 C 24.42,29.51 24.91,29.17 24.95,28.6 C 25,27.9 24.98,27.2 24.99,26.5 L 25,26 H 25.66 V 30 Z M 44.55,30 H 43.93 V 28.48 C 43.93,28.12 43.94,27.74 43.9,27.38 C 43.83,26.82 43.51,26.55 42.97,26.51 C 42.37,26.48 41.88,26.75 41.76,27.27 C 41.7,27.61 41.67,27.95 41.68,28.29 V 30 H 41 V 26 H 41.6 C 41.62,26.14 41.65,26.4 41.7,26.61 C 41.87,26.41 42.1,26.24 42.35,26.14 C 42.61,26.04 42.89,25.99 43.18,26 C 43.9,26.04 44.48,26.4 44.53,27.05 C 44.6,28.02 44.55,29 44.55,30 Z M 46,38 H 45.4 V 34 H 45.98 L 46.05,34.52 C 46.38,34.36 46.7,34.14 47.06,34.06 C 48.02,33.83 48.87,34.29 48.96,35.16 C 49.04,36.08 48.97,37.02 48.97,37.98 H 48.33 V 36.81 C 48.33,36.32 48.34,35.84 48.29,35.36 C 48.23,34.82 47.89,34.55 47.34,34.52 C 47.07,34.49 46.8,34.55 46.58,34.68 C 46.18,34.93 45.99,35.55 46,36 V 38 Z M 45.13,22.33 C 45.57,22.41 46.02,22.47 46.46,22.51 C 46.8,22.52 47.17,22.45 47.26,22.07 C 47.37,21.68 47.06,21.51 46.74,21.37 C 46.37,21.2 46,21.05 45.64,20.87 A 0.94,0.94 0 0,1 45.21,20.51 A 0.79,0.79 0 0,1 45.1,20 C 45.1,19.82 45.17,19.64 45.29,19.49 C 45.41,19.34 45.58,19.23 45.77,19.16 A 2.71,2.71 0 0,1 47.74,19.21 V 19.65 C 47.33,19.6 46.94,19.52 46.55,19.5 C 46.21,19.48 45.84,19.52 45.74,19.9 C 45.64,20.28 45.97,20.43 46.26,20.56 C 46.6,20.72 46.96,20.86 47.29,21.03 C 47.7,21.23 47.95,21.53 47.91,21.99 C 47.89,22.19 47.81,22.39 47.67,22.54 C 47.53,22.7 47.33,22.82 47.11,22.88 A 2.8,2.8 0 0,1 45.13,22.74 V 22.33 Z M 27.7,29.74 V 29.28 C 27.99,29.37 28.27,29.43 28.56,29.48 C 28.86,29.52 29.19,29.51 29.5,29.45 C 29.7,29.4 29.98,29.2 30,29.05 C 30,28.93 29.96,28.83 29.9,28.73 A 0.77,0.77 0 0,0 29.66,28.48 C 29.3,28.27 28.86,28.14 28.46,27.97 C 27.83,27.69 27.6,27.37 27.66,26.93 C 27.74,26.48 28.13,26.18 28.79,26.05 C 29.37,25.95 29.99,26.01 30.53,26.23 V 26.63 C 30.04,26.59 29.58,26.52 29.11,26.5 C 28.78,26.48 28.46,26.57 28.36,26.89 C 28.26,27.22 28.54,27.39 28.83,27.52 C 29.23,27.7 29.66,27.86 30.07,28.04 C 30.5,28.24 30.75,28.54 30.71,28.97 C 30.69,29.17 30.61,29.37 30.47,29.52 C 30.32,29.68 30.13,29.8 29.91,29.86 C 29.16,30.11 28.44,30 27.71,29.74 Z M 17.28,26.26 V 26.73 C 16.44,26.53 15.62,26.32 14.99,27.04 C 14.58,27.53 14.58,28.49 15.01,28.96 C 15.65,29.68 16.47,29.54 17.33,29.26 V 29.71 C 16.45,30.19 15.23,30.06 14.57,29.43 A 2.1,2.1 0 0,1 14.47,26.66 C 15.09,25.96 16.24,25.8 17.27,26.26 Z M 38.93,37.36 V 37.78 C 38.63,37.95 38.33,38 38.07,38 C 37.44,38.01 37,37.58 37,36.75 V 34.7 A 0.53,0.53 0 0,0 36.96,34.58 L 36.49,34.53 V 34.03 L 36.99,33.98 L 37.1,32.99 H 37.67 L 37.72,33.99 H 39 V 34.54 H 37.73 C 37.73,35.56 37.71,36.01 37.73,36.98 C 37.74,37.32 38.01,37.48 38.34,37.45 C 38.54,37.43 38.74,37.39 38.94,37.35 Z M 34.93,29.38 V 29.87 C 34.61,29.94 34.28,29.98 33.95,30 A 0.9,0.9 0 0,1 33.41,29.85 A 0.79,0.79 0 0,1 33.09,29.41 C 33.04,29.2 32.99,28.98 33,28.76 V 26.61 L 32.5,26.54 V 26.07 L 33,26 C 33.04,25.76 33.07,25.28 33.1,25 H 33.67 C 33.69,25.24 33.7,25.71 33.71,26 H 34.93 V 26.56 H 33.73 C 33.73,27.5 33.71,28.14 33.73,29.03 C 33.74,29.39 34.03,29.53 34.4,29.49 L 34.93,29.39 Z M 30.65,38 H 30 V 34 H 30.57 C 30.6,34.18 30.62,34.47 30.66,34.7 C 31.12,34.17 31.64,33.82 32.41,34.1 V 34.66 C 31.19,34.54 30.66,34.95 30.65,36.03 V 38 Z M 19,38 H 18.34 V 34 H 18.91 L 19.01,34.7 C 19.46,34.16 19.98,33.82 20.76,34.1 V 34.66 C 19.51,34.54 19.01,34.95 19,36.07 V 38 Z M 35.39,26 H 36 V 30 H 35.39 V 26 Z M 39.38,34 H 40 V 38 H 39.38 V 34 Z M 27,30 H 26.4 V 26 H 27 V 30 Z M 31.37,26 H 32 V 30 H 31.37 V 26 Z M 26.81,25.12 C 26.99,25.12 27.14,24.97 27.14,24.79 A 0.32,0.32 0 0,0 26.81,24.47 A 0.32,0.32 0 0,0 26.49,24.79 C 26.49,24.97 26.63,25.12 26.81,25.12 Z M 31.68,25.12 C 31.86,25.12 32,24.97 32,24.79 A 0.32,0.32 0 0,0 31.68,24.47 A 0.32,0.32 0 0,0 31.35,24.79 C 31.35,24.97 31.5,25.12 31.68,25.12 Z M 35.7,25 C 35.87,25 36.02,24.86 36.02,24.68 A 0.32,0.32 0 0,0 35.69,24.36 A 0.32,0.32 0 0,0 35.37,24.68 C 35.37,24.86 35.51,25 35.69,25 Z M 39.65,32.65 C 39.85,32.65 40,32.5 40,32.33 C 40,32.15 39.85,32 39.65,32 C 39.46,32 39.3,32.15 39.3,32.33 C 39.3,32.5 39.46,32.65 39.65,32.65 Z"/>
</svg>
