<?xml version="1.0" encoding="UTF-8"?>
<!-- generated by Finnhub -->
<svg viewBox="0 0 55.5 55.5" xmlns="http://www.w3.org/2000/svg">
<path d="M 0,0 H 55.5 V 55.5 H 0 Z" fill="rgb(239, 242, 248)"/>
<path d="M 13.21,42.425 C 14.31,43.51 15.84,44.01 17.65,44 C 22.37,43.98 29.01,40.55 34.85,34.83 C 40.62,29.15 44,22.64 44,18 C 44,13.9 41.11,12 37.26,12 C 33.83,12 29.86,13.38 27,16 C 30.22,14.78 32.74,14 34.5,14 C 37.88,14 39.99,16.66 40,20 C 40.01,24.17 37.09,29.99 31.93,35.05 C 26.86,40.03 21.13,42.95 16.94,43 A 6.08,6.08 0 0,1 13,41.78 C 13.1,41.91 13,42.22 13.22,42.44 Z" fill="rgb(232, 101, 59)"/>
<path d="M 37.79,17.275 A 5.3,5.3 0 0,0 34,16 C 30.03,16.03 24.49,18.79 19.64,23.4 C 14.79,28 11.98,33.3 12,37.08 C 12.01,40.26 14.3,42 17.35,42 C 20.37,42 24.52,40.2 27,38 C 24.1,39.05 21.58,39.98 20,40 C 17.24,40.04 14.98,38.13 15,35.35 C 15.03,31.95 17.82,27.29 22.08,23.23 C 26.34,19.19 31.16,17.02 34.68,17 C 36,17 37.14,17.3 38,17.97 C 37.91,17.87 38,17.47 37.8,17.29 Z"/>
</svg>
