<?xml version="1.0" encoding="UTF-8"?>
<!-- generated by Finnhub -->
<svg viewBox="0 0 55.5 55.5" xmlns="http://www.w3.org/2000/svg">
<path d="M 0,0 H 55.5 V 55.5 H 0 Z" fill="url(#a)"/>
<path d="M 26.549999999999997,33.985 C 28.98,33.96 30.9,32.83 31.89,31 A 6.36,6.36 0 0,1 31.21,28.05 C 31.21,26.88 31.46,25.85 31.92,24.97 C 30.95,23.07 29,21.96 26.56,22 C 23.06,22 20.56,24.39 20.56,28.05 C 20.56,31.61 23.06,34 26.56,34 Z M 30.49,27.92 C 30.49,30.36 28.94,32.16 26.58,32.16 C 24.24,32.16 22.68,30.36 22.68,27.92 C 22.68,25.65 24.24,23.84 26.58,23.84 C 28.94,23.84 30.49,25.64 30.49,27.92 Z M 38.23,34 C 39.48,34 40.71,33.65 41.66,32.89 A 5.34,5.34 0 0,1 40.28,31.44 C 39.71,31.91 38.98,32.17 38.25,32.16 C 35.91,32.16 34.35,30.36 34.35,27.92 C 34.35,25.65 35.91,23.84 38.25,23.84 C 38.88,23.84 39.58,24.08 40.25,24.63 C 40.6,24.07 41.05,23.58 41.57,23.18 A 5.08,5.08 0 0,0 38.23,22 C 34.73,22 32.23,24.39 32.23,28.05 C 32.23,31.61 34.73,34 38.23,34 Z M 50,32.81 A 5.39,5.39 0 0,1 46.49,34 C 42.99,34 40.49,31.61 40.49,28.05 C 40.49,24.39 42.99,22 46.49,22 C 47.76,22 48.93,22.4 49.92,23.26 C 49.4,23.66 48.97,24.16 48.63,24.73 A 3.28,3.28 0 0,0 46.5,23.83 C 44.16,23.83 42.6,25.64 42.6,27.92 C 42.6,30.35 44.16,32.16 46.5,32.16 C 47.3,32.16 48.07,31.87 48.66,31.33 C 49.01,31.91 49.46,32.41 50,32.81 Z M 14.11,22.27 L 18.35,29 H 16.69 C 16.38,27.69 15.4,27 14.04,27 H 10.21 L 13.14,22.27 A 0.62,0.62 0 0,1 13.63,22 A 0.59,0.59 0 0,1 14.11,22.27 Z M 6.3,33.92 A 0.6,0.6 0 0,1 6.08,33.69 A 0.64,0.64 0 0,1 6.11,33.05 L 6.7,32 H 14.01 C 15.38,32 16.37,31.32 16.68,30 H 19.24 L 21.14,33.05 A 0.63,0.63 0 0,1 21.16,33.69 C 20.94,34.03 20.66,33.99 20.66,33.99 H 6.6 C 6.5,34 6.39,33.97 6.3,33.92 Z M 15.54,30 H 13.74 C 13.34,30 13.02,29.86 13,29.5 C 12.98,29.14 13.24,29 13.66,29 H 15.46 A 1.8,1.8 0 0,0 14.65,27.87 A 1.8,1.8 0 1,0 14.65,31.06 C 15.1,30.82 15.46,30.37 15.55,30 Z" fill="rgb(254, 254, 253)"/>
<defs>
<linearGradient id="a" x2="56" y1="28" y2="28" gradientUnits="userSpaceOnUse">
<stop stop-color="rgb(110, 9, 28)" offset="0"/>
<stop stop-color="rgb(160, 17, 45)" offset=".51"/>
<stop stop-color="rgb(110, 9, 28)" offset="1"/>
</linearGradient>
</defs>
</svg>
