<?xml version="1.0" encoding="UTF-8"?>
<!-- generated by Finnhub -->
<svg viewBox="0 0 55.5 55.5" xmlns="http://www.w3.org/2000/svg">
<path d="M 0,0 H 55.5 V 55.5 H 0 Z" fill="rgb(239, 242, 248)"/>
<path d="M 21.36,37.144999999999996 C 20.6,36.42 18.97,35.05 18.71,35.46 C 18.37,35.98 19.9,38.39 25.23,40.16 C 24.81,39.86 24.04,39.21 24.36,39.04 C 24.76,38.83 27.14,39.24 27.4,40.17 C 27.37,40.26 27.25,40.47 27.08,40.61 C 27.76,40.59 29.18,40.68 29.38,41.12 C 29.27,41.19 28.84,41.32 27.92,41.32 C 26.76,41.32 27.29,42.29 28.16,42.5 C 29.03,42.71 30.32,42.94 32.7,42.96 C 31.76,42.88 29.86,42.52 29.8,41.76 C 29.74,40.81 33.34,40.8 34.76,41.12 L 33.46,40.32 C 33.49,40.08 33.28,39.52 32.21,39.16 C 31.14,38.8 28.01,37.5 26.57,36.9 L 21.37,37.16 Z M 32.14,39.94 C 31.28,40.37 27.92,40.43 27.92,39.3 C 27.92,39.1 28.42,39.04 29.25,39.3 C 29.31,39.3 29.54,39.36 29.87,39.44 C 30.41,39.57 31.22,39.77 32.14,39.94 Z" fill="rgb(82, 158, 181)"/>
<path d="M 14.84,23.675 C 15.58,16.73 20.55,14.1 22.95,13.65 C 16.28,19.27 17.2,24.99 18.5,27.15 C 18.55,26.11 18.94,25.4 19.13,25.17 C 19.63,29.28 22.74,32.12 24.09,32.79 A 10.5,10.5 0 0,1 26.55,34.59 C 28.76,37.07 35.06,38.5 36.16,38.77 C 37.04,38.99 37.26,39.33 37.26,39.47 L 30.39,37.67 L 36.16,40.5 C 36.36,41.35 39.12,41.18 40.48,41 C 39.64,41.2 37.59,41.57 36.16,41.4 A 5.57,5.57 0 0,1 33.34,40.39 C 33.34,39.85 32.72,39.36 32.35,39.24 L 26.55,36.96 C 27.93,37.79 27.83,38.34 27.61,38.5 C 26.26,39.15 22.78,37.86 21.21,37.13 C 22.14,37.13 22.17,36.75 22.08,36.56 C 22.96,36.85 24.75,37.37 24.83,37.13 C 24.91,36.89 22.09,34.81 20.67,33.8 C 20.17,33.59 19.82,33.04 19.71,32.79 L 20.06,32.56 C 19.1,32.02 18.45,30.41 18.24,29.67 A 6.66,6.66 0 0,1 15.51,26.07 C 15.88,30.21 17.54,30.92 18.24,31.93 C 18.8,32.73 18.31,33.68 17.99,34.06 C 17.79,33.14 17.13,31.11 16.01,30.34 C 14.88,29.57 14.19,27.17 13.98,26.07 L 15.14,28.17 C 15.11,26.96 14.94,24.68 14.85,23.69 Z" fill="rgb(1, 127, 157)"/>
<path d="M 24.95,13.165 C 28.29,13.18 30.34,15.69 30.95,16.95 C 24.81,14.57 21.49,20.38 20.6,23.59 C 19.38,20.3 21.9,16.99 23.3,15.75 C 18.65,17.09 17.71,21.72 17.83,23.86 C 18.31,30.07 24.61,34.68 27.7,36.21 C 21.34,33.44 16.27,28.21 16.6,23.59 C 16.95,18.97 20.8,13.19 24.96,13.19 Z" fill="rgb(1, 109, 138)"/>
<path d="M 27.38,15.434999999999999 C 30.22,15.22 31.22,17.1 31.25,17.81 C 29.88,15.71 27.77,16.11 26.99,16.83 C 22.25,16.87 21.06,20.27 21.05,21.96 A 7.2,7.2 0 0,0 21.47,24.7 C 20.47,23.52 20.33,22.46 20.39,22.08 A 7.63,7.63 0 0,1 27.39,15.45 Z" fill="rgb(1, 127, 157)"/>
<path d="M 26.99,16.805 C 28.33,16.92 29.41,17.86 29.8,18.32 C 26.89,17.02 25.37,18.36 24.97,19.18 L 24.04,20.65 C 22.78,20.65 22.01,21.17 21.86,22.58 C 21.74,23.7 22.48,25.93 22.88,26.88 A 6.1,6.1 0 0,1 21.23,20.65 C 22.23,17.4 25.36,16.69 27.01,16.82 Z" fill="rgb(1, 92, 124)"/>
<path d="M 21.779999999999998,22.884999999999998 C 21.78,21.3 22.88,20.68 23.63,20.62 A 5.76,5.76 0 0,0 24.73,26.65 A 8.45,8.45 0 0,1 22.43,23.35 A 15.8,15.8 0 0,0 22.88,26.95 C 22.53,26.26 21.8,24.5 21.79,22.9 Z" fill="rgb(1, 127, 157)"/>
<path d="M 24.709999999999997,26.615 A 6.73,6.73 0 0,1 24.05,20.63 H 23.62 C 22.54,23.63 23.92,25.91 24.72,26.63 Z" fill="rgb(76, 150, 172)"/>
<path d="M 17.02,15.584999999999999 C 19.95,12.52 24.35,12.81 26.24,13.32 C 21.12,13.12 17.86,16.32 16.81,17.98 C 14.84,21.19 14.91,26.09 15.18,28.14 L 14,26.16 L 13.72,24.39 L 13,23.85 L 13.72,23.35 C 13.6,22.05 14.1,18.69 17.02,15.61 Z" fill="rgb(1, 92, 124)"/>
<path d="M 21.509999999999998,25.765 L 20.55,23.38 L 22.8,26.69 A 12.14,12.14 0 0,0 24.74,29.85 L 24.39,30.1 A 10.67,10.67 0 0,0 27.86,32.91 C 27.46,32.85 26.13,32.32 24.18,30.45 A 11.23,11.23 0 0,1 20.9,25.15 L 21.52,25.78 Z" fill="rgb(82, 158, 181)"/>
<path d="M 18.49,26.925 C 16.05,20.55 20.47,16.24 23.34,15.71 C 19.06,19.8 20.87,24.21 21.59,25.94 L 20.16,24.34 C 21.83,31.86 29.65,34.82 33.41,35.36 C 24.16,34.08 20.01,28.11 19.12,25.23 A 3.9,3.9 0 0,0 18.51,26.94 Z" fill="rgb(1, 92, 124)"/>
<path d="M 26.11,32.515 C 22.17,30.36 20.45,26.08 20.09,24.22 L 20.99,25.22 C 21.94,29.14 25.49,31.72 27.15,32.53 H 26.12 Z" fill="rgb(1, 127, 157)"/>
<path d="M 23.75,32.685 C 20.53,30.8 19.25,26.92 19.14,25.23 C 19.58,26.37 20.33,27.82 24.08,31.5 C 25.47,32.86 27.94,33.94 30.08,34.58 A 13.91,13.91 0 0,1 26.1,32.51 C 26.56,32.34 27.36,32.64 27.7,32.79 C 28.47,33.42 30.33,34.03 31.16,34.26 C 31.69,34.34 33.14,34.62 34.68,35.12 C 36.23,35.61 37.78,34.92 38.38,34.5 C 30.63,34.53 26.25,30.77 25.03,28.89 C 30.59,32.94 35.03,33.18 36.57,32.79 L 37.15,33.34 L 39.79,32.79 V 33.34 C 42.37,32.57 42.88,33.02 42.81,33.34 L 44,33.14 V 35.12 L 42.8,35.46 L 44,35.76 C 43.23,37.31 38.95,37.65 37.15,37.44 C 35.72,37.28 35.31,37.51 35.29,37.65 C 37.79,39.81 42.13,38.89 44,38.15 V 38.88 C 43.54,39.16 42.57,39.68 42.37,39.48 C 42.12,39.22 40.07,39.04 39.31,39.48 C 38.71,39.82 37.74,39.62 37.33,39.48 C 37,39.14 36.65,38.91 36.45,38.88 C 32.35,38.1 28.23,36.26 27.23,35.26 C 26.57,34.6 24.53,33.16 23.76,32.71 Z" fill="rgb(82, 158, 181)"/>
<path d="M 42.75,35.425 L 44,35.1 V 38.13 H 42.3 V 37.67 C 41.72,38.24 39.46,38.48 38.4,38.53 L 38.92,38.99 C 38.15,38.99 34.89,38.24 35.17,37.67 C 35.4,37.21 36.97,37.28 37.67,37.41 C 41.69,37.51 43.47,36.39 43.89,35.79 L 42.76,35.44 Z" fill="rgb(1, 127, 157)"/>
<path d="M 19.869999999999997,34.485 C 20.94,34.7 21.12,34.28 21.08,34.04 C 22.44,34.98 25.1,36.91 24.81,37.18 C 24.53,37.46 22.94,36.91 22.19,36.61 A 5.63,5.63 0 0,1 19.88,34.51 Z" fill="rgb(1, 109, 138)"/>
<path d="M 29.79,41.665 C 29.8,42.67 31.77,42.95 32.68,43 C 30,41.71 32.99,41.2 34.83,41.11 C 33.19,40.75 29.8,40.72 29.8,41.68 Z" fill="rgb(1, 127, 157)"/>
<path d="M 36.77,42.065 C 36.36,42.09 36.18,41.61 36.16,41.37 H 37.42 L 36.78,42.08 Z M 31.24,20.36 C 32.38,17.52 29.46,14.08 26.97,16.83 C 27.74,16.84 29.74,17.5 31.24,20.36 Z" fill="rgb(82, 158, 181)"/>
<path d="M 36.09,40.455 L 30.3,37.61 C 32.72,38.27 38.05,39.73 38.86,39.62 C 39.66,39.52 39.94,39.74 39.99,39.86 C 39.72,40.16 38.92,40.71 37.85,40.47 S 36.24,40.37 36.1,40.47 Z" fill="rgb(1, 92, 124)"/>
</svg>
