<?xml version="1.0" encoding="UTF-8"?>
<!-- generated by Finnhub -->
<svg fill="none" viewBox="0 0 55.5 55.5" xmlns="http://www.w3.org/2000/svg">
<path d="M 0,0 H 55.5 V 55.5 H 0 Z" fill="rgb(239, 242, 248)"/>
<path d="M 41.452000000000005,23.985 A 12.748,12.748 0 0,0 30.759,18.189 A 12.748,12.748 0 0,0 20.055,24 H 10.115 C 12.892,18.089 18.898,13.995 25.862,13.995 C 32.825,13.995 38.832,18.089 41.608,24 H 41.462 Z" clip-rule="evenodd" fill="rgb(1, 147, 205)" fill-rule="evenodd"/>
<path d="M 18.612,26.985 C 20.285,21.886 25.09,18.189 30.759,18.189 C 36.372,18.189 41.138,21.813 42.845,26.849 C 40.905,20.49 34.993,15.864 28,15.864 C 20.952,15.864 15,20.564 13.11,27 H 18.622 Z" clip-rule="evenodd" fill="rgb(1, 111, 160)" fill-rule="evenodd"/>
<path d="M 14.488,31.98 A 12.749,12.749 0 0,0 25.202,37.807 C 29.686,37.807 33.63,35.494 35.905,31.995 H 45.845 C 43.07,37.907 37.062,42 30.1,42 C 23.137,42 17.13,37.907 14.354,31.995 H 14.499 Z" clip-rule="evenodd" fill="rgb(1, 163, 63)" fill-rule="evenodd"/>
<path d="M 37.327000000000005,28.985 C 35.673,34.112 30.869,37.807 25.202,37.807 C 19.589,37.807 14.822,34.183 13.115,29.147 C 15.055,35.505 20.967,40.131 27.961,40.131 C 35.007,40.131 40.957,35.434 42.85,29 H 37.337 Z" clip-rule="evenodd" fill="rgb(28, 129, 68)" fill-rule="evenodd"/>
<circle cx="28" cy="28" r="6" fill="url(#a)"/>
<circle cx="28" cy="28" r="3" fill="rgb(1, 1, 2)"/>
<circle cx="26.501" cy="25.776" r="1.21" fill="rgb(195, 195, 194)" opacity=".5"/>
<circle cx="26.501" cy="25.776" r=".547" fill="rgb(195, 195, 194)" opacity=".5"/>
<defs>
<linearGradient id="a" x1="28" x2="28" y1="22" y2="34" gradientUnits="userSpaceOnUse">
<stop stop-color="rgb(3, 109, 165)" offset="0"/>
<stop stop-color="rgb(1, 152, 87)" offset="1"/>
</linearGradient>
</defs>
</svg>
