<?xml version="1.0" encoding="UTF-8"?>
<!-- generated by Finnhub -->
<svg viewBox="0 0 55.5 55.5" xmlns="http://www.w3.org/2000/svg">
<path d="M 0,28 A 28,28 0 1,1 56,28 A 28,28 0 0,1 0,28 Z" fill="rgb(239, 242, 248)"/>
<path d="M 19.49,32.485 H 17 V 32 H 19.5 V 32.5 Z" fill="rgb(211, 161, 93)"/>
<path d="M 12.77,18.895 C 12.26,19.33 11.16,20.41 10.67,20.99 A 20.8,20.8 0 0,0 7.8,25.33 C 6.31,28.32 5.71,31.03 6.13,33.16 C 6.43,34.64 7.22,35.62 8.36,35.92 C 8.78,36.02 9.57,36.02 10.08,35.92 C 11.55,35.59 13.18,34.56 14.78,32.96 C 17.61,30.13 19.71,26.22 20.21,22.6 C 20.31,21.9 20.31,20.52 20.2,19.96 C 19.9,18.38 18.91,17.04 17.2,17 C 15.56,16.96 14.02,17.93 12.78,18.91 Z M 16.98,18.98 C 17.61,19.13 18.1,19.55 18.43,20.23 C 19.41,22.22 18.49,26.19 16.27,29.5 A 13.92,13.92 0 0,1 13.32,32.63 A 7.94,7.94 0 0,1 10.92,33.96 C 10.52,34.07 9.82,34.12 9.46,34.05 C 8.5,33.87 7.81,33.01 7.58,31.69 A 8.46,8.46 0 0,1 7.58,29.63 C 8.18,25.29 11.74,20.37 15.03,19.16 A 3.42,3.42 0 0,1 16.98,18.98 Z M 36.15,20.11 L 34.03,31 L 35.49,30.87 L 37.63,20 L 36.15,20.11 Z M 48.87,23.07 C 48.7,23.1 48.44,23.17 48.3,23.23 C 47.78,23.44 47.15,23.87 46.76,24.39 C 46.66,24.51 46.58,24.59 46.58,24.57 L 46.74,23.74 A 12,12 0 0,0 46.87,23 L 45.41,23.18 L 43.9,31 L 45.36,30.87 L 45.68,29.27 C 46,27.64 46.11,27.14 46.31,26.57 C 46.75,25.34 47.41,24.74 48.44,24.54 C 48.62,24.5 48.84,24.47 48.92,24.47 H 49.07 L 49.53,23.73 L 50,23 H 49.58 A 4,4 0 0,0 48.87,23.07 Z M 24.19,23.05 A 5.19,5.19 0 0,0 20.07,27 C 19.98,27.4 19.97,28.2 20.07,28.53 A 3.26,3.26 0 0,0 22.37,30.91 C 22.65,30.98 23.46,31.01 23.84,30.96 A 5.39,5.39 0 0,0 26.29,29.83 C 26.35,29.78 26.34,29.75 25.99,29.3 L 25.61,28.81 C 24.87,29.37 23.99,29.83 23.03,29.6 C 21.36,29.2 21.24,27.1 22,25.84 A 4,4 0 0,1 23.15,24.72 A 2.8,2.8 0 0,1 25.67,24.52 C 25.78,24.58 25.97,24.71 26.08,24.81 L 26.31,24.99 C 26.34,24.99 27.32,24.09 27.34,24.05 C 27.36,24.01 27.1,23.75 26.87,23.57 A 3.58,3.58 0 0,0 24.19,23.04 Z M 40.36,23.07 C 39.89,23.15 39.19,23.29 39.13,23.32 L 38.52,24.75 S 40.29,24.15 41.28,24.25 C 41.85,24.32 42.18,24.48 42.33,24.77 C 42.44,24.99 42.45,25.25 42.36,25.73 L 42.28,26.15 L 42.18,26.07 A 2.91,2.91 0 0,0 40.14,25.48 A 3.46,3.46 0 0,0 36.89,28.36 C 36.7,29.39 37.04,30.25 37.78,30.67 A 3.59,3.59 0 0,0 41.43,30.31 C 41.56,30.21 41.67,30.14 41.67,30.15 L 41.57,31 L 42.79,30.87 S 43.78,25.81 43.82,25.45 C 43.85,25.27 43.85,24.95 43.84,24.78 C 43.77,23.8 43.31,23.27 42.34,23.08 A 7.37,7.37 0 0,0 40.36,23.08 Z M 28.12,23.12 L 27.17,28.14 A 5.15,5.15 0 0,0 27.17,29.59 C 27.32,30.29 27.77,30.76 28.43,30.92 C 29.13,31.08 29.84,30.99 30.49,30.67 C 30.88,30.47 31.52,29.9 31.52,29.9 L 31.34,31 L 32.77,30.86 L 34.3,23 L 32.86,23.12 L 32.4,25.42 A 83.35,83.35 0 0,1 31.9,27.85 C 31.55,29.19 30.78,29.85 29.63,29.78 C 29.25,29.75 29,29.66 28.83,29.47 C 28.63,29.27 28.6,29.12 28.6,28.59 C 28.6,28.15 28.63,27.98 29.09,25.66 L 29.59,23 L 28.13,23.12 Z M 41.11,26.8 C 41.94,27.05 42.23,27.82 41.81,28.69 C 41.6,29.13 41.11,29.49 40.53,29.64 C 40.21,29.72 39.61,29.74 39.33,29.7 C 38.89,29.61 38.61,29.41 38.43,29.08 A 0.87,0.87 0 0,1 38.33,28.56 C 38.33,28.08 38.53,27.59 38.87,27.26 C 39.41,26.77 40.37,26.57 41.11,26.8 Z" fill="rgb(21, 49, 105)"/>
<path d="M 18.54,31.985 V 36 H 18.05 V 32 H 18.55 Z M 20.35,33.29 V 32 L 19.85,32.15 V 36 H 20.35 V 34.2 A 0.83,0.83 0 0,1 22,34.2 V 36 H 22.5 V 34.32 A 1.32,1.32 0 0,0 20.35,33.29 Z M 27,33.37 C 27.26,33.1 27.61,32.91 28,32.9 V 33.4 C 27.59,33.4 27,33.85 27,34.35 V 36 H 26.5 V 33 H 27 V 33.37 Z" fill="rgb(211, 161, 93)"/>
<path d="M 29.189999999999998,35.985 A 1,1 0 1,0 29.2,34 A 1,1 0 0,0 29.2,36 Z M 29.33,35.7 A 0.7,0.7 0 1,0 29.33,34.3 A 0.7,0.7 0 0,0 29.33,35.7 Z" fill="rgb(211, 161, 93)" fill-rule="evenodd"/>
<path d="M 28.389999999999997,33.125 V 33.64 S 29.4,33.22 29.77,33.48 A 0.5,0.5 0 0,1 30,33.88 V 36 H 30.5 V 33.95 A 1,1 0 0,0 29.9,33.03 C 29.43,32.83 28.87,33.05 28.4,33.14 Z" fill="rgb(211, 161, 93)"/>
<path d="M 24.58,35.545 C 25.28,35.56 25.75,35.03 25.75,35.03 V 35.56 S 25.28,36 24.59,36 A 1.5,1.5 0 0,1 23.07,34.5 A 1.5,1.5 0 0,1 25.93,33.81 L 23.73,35.13 C 23.93,35.39 24.23,35.56 24.59,35.56 Z M 25.27,33.69 L 24.78,33.99 L 23.54,34.71 A 1.06,1.06 0 0,1 24.59,33.44 C 24.85,33.44 25.09,33.54 25.27,33.69 Z M 36.28,35.56 C 36.98,35.56 37.44,35.03 37.44,35.03 V 35.56 S 36.97,36 36.28,36 A 1.5,1.5 0 0,1 34.77,34.5 A 1.5,1.5 0 0,1 37.62,33.81 L 35.42,35.13 C 35.62,35.39 35.93,35.56 36.28,35.56 Z M 36.97,33.69 L 36.47,33.99 L 35.24,34.71 A 1.06,1.06 0 0,1 36.28,33.44 C 36.54,33.44 36.78,33.54 36.97,33.69 Z M 34.2,34.5 A 1.5,1.5 0 0,1 31.7,35.62 V 37.5 H 31.2 V 33 H 31.7 V 33.38 A 1.5,1.5 0 0,1 34.2,34.5 Z M 31.7,34.83 V 34.17 A 1.05,1.05 0 1,1 31.7,34.83 Z" fill="rgb(211, 161, 93)" fill-rule="evenodd"/>
<path d="M 38.190000000000005,32.985 H 38.6 V 34.78 C 38.6,35.2 38.95,35.54 39.37,35.53 C 39.67,35.52 39.93,35.37 40.1,35.15 V 33 H 40.6 V 36 H 40.1 V 35.44 A 1,1 0 0,1 38.2,35 V 33 Z M 42,32 H 41.5 V 35.35 C 41.5,35.79 41.86,36.15 42.3,36.15 H 42.7 V 35.65 H 42.45 A 0.45,0.45 0 0,1 42,35.2 V 32 Z" fill="rgb(211, 161, 93)"/>
<path d="M 41.14,32.985 H 42.8 V 33.5 H 41 L 41.15,33 Z M 43.2,33 H 43.7 V 36 H 43.2 Z M 43.07,32.27 L 43.4,31.9 L 43.78,32.23 L 43.45,32.6 L 43.07,32.27 Z M 46.12,32.86 L 46.52,33.16 L 44.28,36.04 L 43.88,35.74 L 46.12,32.86 Z" fill="rgb(211, 161, 93)"/>
<path d="M 44.260000000000005,32.845 L 43.87,33.16 L 47.32,37.5 H 47.96 L 44.26,32.86 Z M 21,32 H 41 V 32.5 H 21 Z" fill="rgb(211, 161, 93)"/>
</svg>
