<?xml version="1.0" encoding="UTF-8"?>
<!-- generated by Finnhub -->
<svg viewBox="0 0 55.5 55.5" xmlns="http://www.w3.org/2000/svg">
<path d="M 0,0 H 55.5 V 55.5 H 0 Z" fill="rgb(239, 242, 248)"/>
<path d="M 7.95,34.985 L 7,33.75 V 23.2 L 7.96,22 H 12.72 L 14,23.24 V 27.37 C 14,27.67 13.86,27.97 13.62,28.14 L 12.36,28.89 A 0.9,0.9 0 0,0 12,29.66 V 33.75 L 10.82,35 H 7.96 Z M 9,24 V 33 H 10 V 31.33 C 10,30.79 10.43,30.28 10.8,29.95 L 11.41,29.39 C 11.78,29.05 12,28.54 12,28 V 24 H 9 Z M 14,32.97 V 35 H 18.85 L 20,33.72 V 29.78 C 20,29.41 20.24,29.06 20.54,28.87 L 21.52,28.21 C 21.82,28.01 22,27.66 22,27.29 V 23.26 L 20.8,22 H 16 V 30.32 C 16,30.64 15.77,30.96 15.52,31.16 L 14.38,32.12 C 14.14,32.32 14,32.64 14,32.97 Z M 18,33 H 16 V 31.78 C 16,31.34 16.18,30.94 16.54,30.71 L 17.32,30.21 C 17.68,29.99 18,29.59 18,29.15 V 24 H 19.62 L 20,24.43 V 28.21 C 20,28.71 19.8,29.17 19.4,29.45 L 18.7,29.93 C 18.3,30.21 18,30.67 18,31.17 V 33 Z M 22,35 V 32.97 C 22,32.64 22.14,32.33 22.38,32.12 L 23.52,31.16 C 23.77,30.96 24,30.64 24,30.32 V 22 H 28.8 L 30,23.26 V 27.29 C 30,27.67 29.82,28.01 29.52,28.21 L 28.54,28.87 C 28.24,29.07 28,29.41 28,29.78 V 33.72 L 26.85,35 H 22 Z M 24,33 H 26 V 31.17 C 26,30.67 26.3,30.21 26.7,29.93 L 27.4,29.45 C 27.8,29.17 28,28.71 28,28.21 V 24.43 L 27.62,24 H 26 V 29.15 C 26,29.59 25.68,29.99 25.32,30.22 L 24.54,30.72 C 24.18,30.94 24,31.34 24,31.78 V 33 Z M 34,22 H 32 V 35 H 34 V 22 Z M 37,22 H 35 V 24 H 37 V 35 H 39 V 24 H 41 V 22 H 37 Z M 42.5,22 H 44.68 L 46,26.71 L 47.89,22.01 H 50 L 47,29.18 V 35 H 45 V 29.18 L 42.5,22 Z"/>
<path d="M 33.63,15.985 L 32,19 H 32.58 L 32.34,21 L 34,18.01 H 33.43 L 33.63,16 Z" fill="rgb(68, 55, 246)"/>
</svg>
