<?xml version="1.0" encoding="UTF-8"?>
<!-- generated by Finnhub -->
<svg viewBox="0 0 55.5 55.5" xmlns="http://www.w3.org/2000/svg">
<path d="M 0,0 H 55.5 V 55.5 H 0 Z" fill="rgb(203, 41, 43)"/>
<path d="M 23.029999999999998,20.745 C 22.418,20.626 21,20.408 21,21.409 V 22 H 22.591 V 24 H 21 V 27.508 S 21.839,27.611 22.282,27.678 V 29 H 16.728 V 27.679 A 95.218,95.218 0 0,1 18,27.508 V 24 H 17 V 22 H 18 V 21.434 C 18,20.106 19.303,19 21.755,19 C 22.205,19 22.688,19.03 23.195,19.105 L 23.041,20.761 Z M 30.04,20.76 C 29.418,20.626 28,20.408 28,21.409 V 22 H 29.591 V 24 H 28 V 27.508 S 28.839,27.611 29.282,27.678 V 29 H 23.728 V 27.679 A 95.218,95.218 0 0,1 25,27.508 V 24 H 24 V 22 H 25 V 21.434 C 25,20.106 26.303,19 28.755,19 C 29.205,19 29.688,19.03 30.195,19.105 L 30.041,20.761 Z" fill="rgb(254, 254, 253)"/>
<path d="M 30.99,28.985 V 27.679 C 31.49,27.607 32,27.508 32,27.508 V 23.553 L 31,23.428 V 22 H 35 V 27.508 S 35.649,27.61 36.04,27.678 V 29 H 31 Z M 33.381,21.407 C 32.517,21.407 31.803,20.87 31.803,20.202 C 31.803,19.527 32.517,19 33.381,19 C 34.258,19 34.968,19.527 34.968,20.202 C 34.968,20.86 34.258,21.407 33.381,21.407 Z" fill="rgb(254, 254, 253)"/>
<path d="M 41.007000000000005,29.171 C 38.297,29.186 36.811,27.856 36.811,25.704 C 36.811,23.7 38.157,21.869 41.388,21.869 C 42.022,21.869 42.721,21.949 43.328,22.085 V 24.363 H 41.662 C 41.596,24.092 41.554,23.843 41.504,23.615 C 41.377,23.571 41.207,23.569 41.041,23.569 C 40.141,23.569 39.5,24.368 39.5,25.459 C 39.5,26.596 40.083,27.425 41.597,27.425 C 42.128,27.425 42.722,27.333 43.217,27.161 L 43.392,28.922 C 42.622,29.093 41.92,29.186 41.017,29.186 Z" fill="rgb(254, 254, 253)"/>
<path d="M 9.822000000000001,37.985 H 6 V 36.773 L 7,36.64 V 32.262 L 6,32.16 V 31 H 10.254 C 12.294,31 14.1,32.36 14.1,34.563 C 14.1,36.598 12.75,38 9.832,38 Z M 10.254,32.423 H 9 V 36.437 H 10.254 C 11.6,36.437 12.1,35.5 12.1,34.605 C 12.1,34.095 11.827,32.423 10.254,32.423 Z" fill="rgb(254, 254, 253)"/>
<path d="M 14.99,37.985 V 36.916 L 16,36.782 V 32.234 L 15,32.132 V 31 H 22.421 V 32.818 H 20.428 C 20.378,32.654 20.356,32.502 20.332,32.351 L 18,32.345 V 33.672 H 20.197 C 20.23,33.542 20.237,33.475 20.292,33.354 H 21.764 V 35.508 H 20.292 C 20.237,35.4 20.229,35.344 20.197,35.229 L 18,35.227 V 36.742 H 20.319 C 20.357,36.56 20.406,36.313 20.446,36.139 H 22.464 V 38 H 15" fill="rgb(254, 254, 253)"/>
<path d="M 27.415,36.083 C 27.365,36.098 27.217,36.098 27.025,36.092 V 36.79 L 28.368,36.926 V 38 H 24 V 36.926 L 25,36.794 V 32.27 L 24,32.168 V 31 H 27.268 C 29.908,31 31.1,32.145 31.1,33.598 C 31.1,34.882 30.067,36.098 27.425,36.098 Z M 27.593,32.434 H 27 L 27.002,34.74 H 27.541 C 28.279,34.74 29.1,34.407 29.1,33.78 C 29.1,33.154 28.6,32.434 27.593,32.434 Z" fill="rgb(254, 254, 253)"/>
<path d="M 47.24,32.985 L 47.114,32.402 H 46 V 36.796 L 47,36.929 V 38 L 43,38.005 V 36.929 L 44,36.791 V 32.402 H 43.071 L 42.933,33 H 41 V 31 H 49 V 33 H 47.25 Z" fill="rgb(254, 254, 253)"/>
<path d="M 40.614000000000004,34.6 C 40.624,36.852 38.734,38.192 36.219,38.192 C 33.706,38.192 31.824,36.851 31.824,34.615 C 31.824,32.423 33.714,31 36.219,31 S 40.624,32.423 40.624,34.615 Z M 34.339,34.598 C 34.339,35.635 35.036,36.521 36.22,36.521 S 38.1,35.635 38.1,34.598 C 38.1,33.635 37.46,32.682 36.22,32.682 C 34.978,32.682 34.34,33.635 34.34,34.598 Z" fill="rgb(254, 254, 253)"/>
<path d="M 10.59,29.335 C 13.693,29.35 16.2,26.977 16.2,24.05 S 13.693,18.75 10.6,18.75 S 5,21.123 5,24.05 S 7.507,29.35 10.6,29.35 Z M 10.7,27 C 12.191,27 13.4,25.657 13.4,24 S 12.191,21 10.7,21 S 8,22.343 8,24 S 9.209,27 10.7,27 Z" fill="rgb(254, 254, 253)" fill-rule="evenodd"/>
<path d="M 47.97,23.541999999999998 C 47.28,23.557 46.769,24.036 46.71,24.752 H 49.11 C 49.136,23.978 48.688,23.557 47.98,23.557 Z M 51.43,26 H 46.687 C 46.71,26.931 47.342,27.622 48.657,27.622 A 6.48,6.48 0 0,0 50.998,27.186 L 51.219,28.798 C 50.324,29.118 49.253,29.28 48.277,29.28 C 45.657,29.28 44.22,28.153 44.22,25.717 C 44.22,23.583 45.584,22 48.044,22 C 50.445,22 51.5,23.412 51.5,25.24 C 51.5,25.532 51.476,25.664 51.43,26 Z" fill="rgb(254, 254, 253)"/>
</svg>
