<?xml version="1.0" encoding="UTF-8"?>
<!-- generated by Finnhub -->
<svg viewBox="0 0 55.5 55.5" xmlns="http://www.w3.org/2000/svg">
<path d="M 0,0 H 55.5 V 55.5 H 0 Z" fill="url(#c)"/>
<path d="M 21.99,24.965 V 23 C 19.09,23.23 17.04,25.3 17,28.63 V 33 H 19 V 28.62 C 19,26.39 20.35,24.98 22,24.98 Z" fill="rgb(254, 254, 253)"/>
<path d="M 44.99,24.985 V 23 C 42.09,23.23 40.04,25.3 40,28.63 V 33 H 42 V 28.62 C 42,26.4 43.35,25 45,25 Z" fill="url(#b)"/>
<path d="M 45.99,24.985 V 23 C 48.91,23.23 50.96,25.3 51,28.63 V 33 H 49 V 28.62 C 49,26.4 47.65,25 46,25 Z" fill="rgb(61, 183, 116)"/>
<path d="M 32.99,32.985 A 5,5 0 1,0 33,23 A 5,5 0 0,0 33,33 Z M 33,31 A 3,3 0 1,0 33,25 A 3,3 0 0,0 33,31 Z" fill="url(#a)" fill-rule="evenodd"/>
<path d="M 9.99,32.985 A 5,5 0 1,0 10,23 A 5,5 0 0,0 10,33 Z M 10,31 A 3,3 0 1,0 10,25 A 3,3 0 0,0 10,31 Z" fill="rgb(254, 254, 253)" fill-rule="evenodd"/>
<path d="M 23.99,22.985 H 26 V 33 H 24 V 23 Z" fill="rgb(254, 254, 253)"/>
<defs>
<linearGradient id="c" x1="10.42" x2="68.15" y1="9.71" y2="76.02" gradientUnits="userSpaceOnUse">
<stop stop-color="rgb(25, 29, 31)" offset="0"/>
<stop stop-color="rgb(5, 5, 8)" offset="1"/>
</linearGradient>
<linearGradient id="b" x1="42.51" x2="44.13" y1="28.63" y2="23.31" gradientUnits="userSpaceOnUse">
<stop stop-color="rgb(68, 183, 165)" offset="0"/>
<stop stop-color="rgb(64, 183, 143)" offset="1"/>
</linearGradient>
<linearGradient id="a" x1="28.31" x2="38.03" y1="29.06" y2="29.06" gradientUnits="userSpaceOnUse">
<stop stop-color="rgb(66, 183, 232)" offset=".31"/>
<stop stop-color="rgb(67, 183, 207)" offset=".64"/>
<stop stop-color="rgb(69, 184, 180)" offset="1"/>
</linearGradient>
</defs>
</svg>
