<?xml version="1.0" encoding="UTF-8"?>
<!-- generated by Finnhub -->
<svg viewBox="0 0 55.5 55.5" xmlns="http://www.w3.org/2000/svg">
<path d="M 0,0 H 55.5 V 55.5 H 0 Z" fill="rgb(239, 242, 248)"/>
<path d="M 38.89,39.695 A 16,16 0 1,0 17.24,39.83 C 17.94,39.49 18.64,39.06 19.26,38.57 C 20.52,37.57 21,36.67 21,36 C 21,34.35 20.59,32.98 20.13,31.77 L 19.79,30.91 L 19.78,30.89 C 19.66,30.6 19.54,30.3 19.44,30.01 A 5.93,5.93 0 0,1 19,28 C 19,27.24 19.29,26.33 19.62,25.55 C 19.98,24.69 20.52,23.71 21.22,22.78 C 22.57,20.97 24.84,19 28,19 C 31.13,19 33.4,20.92 34.78,22.73 C 35.48,23.65 36.02,24.63 36.38,25.5 C 36.72,26.3 37,27.22 37,28 C 37,28.7 36.79,29.5 36.6,30.1 C 36.45,30.6 36.27,31.15 36.08,31.7 L 35.9,32.24 A 13.88,13.88 0 0,0 35,36 C 35.02,36.06 35.1,36.34 35.5,36.86 A 11.1,11.1 0 0,0 37.47,38.73 C 37.92,39.07 38.4,39.41 38.9,39.71 Z M 35.41,42.18 L 35.03,41.9 A 15.02,15.02 0 0,1 32.34,39.31 A 5.58,5.58 0 0,1 31,36 C 31,34.34 31.62,32.4 32.1,30.97 L 32.31,30.35 C 32.49,29.83 32.65,29.37 32.77,28.95 C 32.86,28.66 32.92,28.43 32.96,28.25 L 33,28 V 28 A 4.54,4.54 0 0,0 32.7,27.06 A 8.9,8.9 0 0,0 31.6,25.16 C 30.6,23.83 29.37,23 28,23 C 26.65,23 25.42,23.85 24.41,25.19 A 9.28,9.28 0 0,0 23.31,27.1 C 23.1,27.6 23.03,27.89 23.01,27.98 V 28 C 23.01,28.04 23.04,28.21 23.19,28.62 L 23.49,29.38 L 23.5,29.41 L 23.87,30.34 A 15.5,15.5 0 0,1 25,36 C 25,38.53 23.32,40.46 21.74,41.7 C 21.46,41.93 21.18,42.14 20.88,42.33 A 15.93,15.93 0 0,0 35.41,42.18 Z" fill="rgb(13, 92, 168)"/>
</svg>
