<?xml version="1.0" encoding="UTF-8"?>
<!-- generated by Finnhub -->
<svg viewBox="0 0 55.5 55.5" xmlns="http://www.w3.org/2000/svg">
<path d="M 0,0 H 55.5 V 55.5 H 0 Z" fill="rgb(239, 242, 248)"/>
<path d="M 33.39,38.935 V 36 H 31.95 V 36.42 A 3.11,3.11 0 0,0 30.38,36 A 2.96,2.96 0 0,0 27.66,40.2 C 27.84,40.59 28.11,40.93 28.44,41.2 A 2.91,2.91 0 0,0 27.38,43.46 A 2.98,2.98 0 0,0 30.38,46.43 A 2.99,2.99 0 0,0 33.12,42.22 A 2.91,2.91 0 0,0 32.34,41.21 A 2.93,2.93 0 0,0 33.4,38.95 Z M 28.82,38.95 A 1.57,1.57 0 0,1 31.95,38.95 V 39.13 A 1.58,1.58 0 0,1 30.38,40.51 C 29.52,40.51 28.82,39.8 28.82,38.95 Z M 31.94,43.64 A 1.58,1.58 0 0,1 30.38,45.02 C 29.52,45.02 28.82,44.31 28.82,43.46 A 1.57,1.57 0 0,1 31.95,43.46 V 43.64 Z M 41.96,38.74 C 41.96,37.64 41.37,37.4 40.79,37.4 C 40.2,37.4 39.47,37.63 39.47,38.71 V 42 H 38 V 36 H 39.47 V 36.52 C 39.79,36.29 40.34,36 41.11,36 C 42.35,36 43.42,36.73 43.42,38.5 V 42 H 41.96 V 38.74 Z M 35,42 H 36.47 V 36 H 35 V 42 Z M 24.54,42 H 26 V 36 H 24.54 V 42 Z M 19.8,36 H 21.27 V 36.42 C 21.82,36.02 22.36,36 23.45,36 V 37.4 C 21.58,37.4 21.27,38.17 21.27,39.14 V 42 H 19.8 V 36 Z M 15.6,42 Z M 15.6,37.4 C 14.74,37.4 14.04,38.17 14.04,39 C 14.04,39.84 14.74,40.6 15.6,40.6 A 1.6,1.6 0 0,0 17.17,39 C 17.17,38.17 16.47,37.4 15.6,37.4 Z" fill="rgb(254, 54, 58)"/>
<path d="M 15.64,17.755 A 12.97,12.97 0 0,1 28,9 C 33.62,9 38.6,12.53 40.35,17.77 A 12.59,12.59 0 0,1 35.68,32 A 13.2,13.2 0 0,0 20.32,32 C 15.78,28.75 13.9,23 15.65,17.77 Z M 28,28 A 7,7 0 1,0 28,14 A 7,7 0 0,0 28,28 Z" fill="url(#a)"/>
<defs>
<linearGradient id="a" x1="28" x2="28" y1="9" y2="32" gradientUnits="userSpaceOnUse">
<stop stop-color="rgb(254, 54, 58)" offset="0"/>
<stop stop-color="rgb(254, 198, 42)" offset="1"/>
</linearGradient>
</defs>
</svg>
