<?xml version="1.0" encoding="UTF-8"?>
<!-- generated by Finnhub -->
<svg viewBox="0 0 55.5 55.5" xmlns="http://www.w3.org/2000/svg">
<path d="M 0,0 H 55.5 V 55.5 H 0 Z" fill="url(#a)"/>
<path d="M 30.99,29.985 H 34 C 33.192,35.845 28.102,40 22.022,40 C 15.384,40 10,34.63 10,28.003 C 10,21.373 15.384,16 22.022,16 C 28.102,16 33.192,20.155 34,26 H 31 V 30 Z M 26,28.003 C 26,25.816 24.19,24 22,24 C 19.813,24 18,25.816 18,28.003 C 18,30.183 19.813,32 22,32 C 24.19,32 26,30.184 26,28.003 Z M 35,17 V 26 H 39 V 30 H 35 V 39 H 44 V 17" fill="rgb(254, 254, 253)"/>
<defs>
<linearGradient id="a" x1="10.418" x2="68.147" y1="9.712" y2="76.017" gradientUnits="userSpaceOnUse">
<stop stop-color="rgb(25, 29, 31)" offset="0"/>
<stop stop-color="rgb(5, 5, 8)" offset="1"/>
</linearGradient>
</defs>
</svg>
