<?xml version="1.0" encoding="UTF-8"?>
<!-- generated by Finnhub -->
<svg viewBox="0 0 55.5 55.5" xmlns="http://www.w3.org/2000/svg">
<path d="M 0,0 H 55.5 V 55.5 H 0 Z" fill="rgb(239, 242, 248)"/>
<path d="M 14.534,18.985 C 8.422,19 5.926,23.751 6.002,26 H 10.839 C 11.109,26 11.292,25.7 11.292,25.7 L 14.242,21 C 14.318,20.925 14.723,20.925 14.772,21 C 15.829,22.65 17.62,25.602 17.794,25.775 C 17.976,25.955 18.097,26 18.248,26 H 23 C 23,23.676 20.516,19 14.544,19 Z" fill="rgb(202, 31, 36)"/>
<path d="M 14.534,34.985 C 8.422,35 5.926,30.249 6.002,28 H 10.839 C 11.109,28 11.293,28.3 11.293,28.3 L 14.242,33 C 14.317,33.075 14.722,33.075 14.771,33 C 15.829,31.35 17.619,28.398 17.794,28.225 C 17.976,28.045 18.097,28 18.248,28 H 23 C 23,30.324 20.515,35 14.544,35 Z" fill="rgb(0, 0, 3)"/>
<path d="M 29.435,34.985 H 23.555 V 34.27 C 23.723,34.256 23.885,34.24 24.04,34.22 C 24.202,34.2 24.344,34.166 24.467,34.12 C 24.674,34.04 24.813,33.926 24.884,33.779 C 24.961,33.625 25,33.425 25,33.179 V 23.322 C 25,23.069 24.948,22.835 24.845,22.622 A 1.135,1.135 0 0,0 24.447,22.122 C 24.318,22.034 24.121,21.951 23.856,21.871 A 3.053,3.053 0 0,0 23.167,21.731 V 21 H 27.878 L 28.024,21.16 L 28,33.048 C 28,33.295 28.042,33.495 28.126,33.648 C 28.21,33.802 28.346,33.922 28.533,34.009 C 28.663,34.069 28.798,34.123 28.941,34.169 C 29.083,34.216 29.251,34.249 29.445,34.269 V 35 Z M 36.474,35 H 30.526 V 34.27 C 30.694,34.256 30.859,34.24 31.021,34.22 C 31.182,34.2 31.321,34.166 31.438,34.12 C 31.645,34.04 31.79,33.926 31.874,33.779 C 31.958,33.625 32,33.425 32,33.179 V 27.127 A 1.17,1.17 0 0,0 31.845,26.517 A 1.295,1.295 0 0,0 31.457,26.087 C 31.219,25.922 30.814,25.746 30.527,25.716 V 24.985 L 34.855,25 L 35,25.15 V 33.048 C 35,33.282 35.048,33.482 35.145,33.648 C 35.242,33.808 35.381,33.929 35.562,34.009 C 35.692,34.069 35.834,34.123 35.989,34.169 C 36.144,34.216 36.306,34.249 36.474,34.269 V 35 Z M 33,24.172 C 30.396,24.172 30.493,21.213 33,21.213 C 35.604,21.213 35.604,24.172 33,24.172 Z M 50.5,35 H 44.778 V 34.27 L 45.224,34.22 A 1.19,1.19 0 0,0 45.622,34.12 A 0.629,0.629 0 0,0 45.912,33.799 C 45.971,33.659 46,33.452 46,33.179 V 28.74 C 46,27.397 44.537,26.354 43.282,26.798 C 42.756,26.99 42,27.5 42,27.94 V 33.07 C 42,33.303 42.032,33.5 42.097,33.66 C 42.162,33.813 42.268,33.93 42.417,34.01 C 42.52,34.07 42.65,34.124 42.805,34.17 C 42.96,34.217 43.035,34.25 43.185,34.27 V 35 H 37.545 V 34.27 C 37.707,34.256 37.869,34.24 38.031,34.22 C 38.199,34.193 38.341,34.16 38.457,34.12 C 38.664,34.046 38.807,33.932 38.884,33.779 C 38.961,33.625 39,33.425 39,33.179 V 27.324 C 39,27.117 38.948,26.914 38.845,26.714 C 38.583,26.206 38.085,25.766 37.545,25.716 V 24.985 L 41.671,25 L 41.816,25.15 V 26.808 L 41.886,26.798 C 42.108,26.285 42.576,25.925 43.021,25.627 C 43.26,25.467 43.573,25.33 43.961,25.217 C 45.231,24.845 47.363,24.931 48.27,26.007 C 48.8,26.62 49.065,27.437 49.065,28.459 V 33.119 C 49.065,33.365 49.13,33.532 49.201,33.679 C 49.271,33.825 49.404,33.942 49.598,34.029 A 2.825,2.825 0 0,0 50.5,34.269 V 35 Z"/>
</svg>
