<?xml version="1.0" encoding="UTF-8"?>
<!-- generated by Finnhub -->
<svg viewBox="0 0 55.5 55.5" xmlns="http://www.w3.org/2000/svg">
<path d="M 0,0 H 55.5 V 55.5 H 0 Z" fill="rgb(239, 242, 248)"/>
<path d="M 20.889999999999997,24.695 C 20.5,25.47 21.18,26.91 21.58,27.54 C 22.2,27.68 23.73,27.96 24.9,27.94 C 26.36,27.93 29.25,27.72 30.53,27.85 C 31.82,27.98 32.59,29.38 33.17,30.53 C 33.74,31.69 33.1,32.33 32.49,32.73 C 31.89,33.14 31.98,33.18 32.01,33.47 C 32.04,33.7 32.55,34.1 32.8,34.27 C 33.58,33.83 35.21,32.9 35.44,32.74 C 35.72,32.54 37.63,29.98 37.84,28.8 C 38,27.86 36.85,25.23 36.26,24.04 A 15.24,15.24 0 0,0 28.24,21.73 C 23.51,21.73 21.42,23.76 20.91,24.71 Z" fill="url(#d)"/>
<path d="M 21.74,18.765 C 21.75,19.51 22.18,20.43 22.4,20.8 C 23.47,21.22 25.75,22.05 26.35,22.05 C 26.94,22.05 32.05,22.21 34.52,22.29 C 34.57,21.99 34.77,21.03 35.15,19.56 A 3.6,3.6 0 0,1 36.88,17.18 L 35.02,15.22 C 34.58,15.3 33.66,15.46 33.54,15.52 C 33.39,15.62 32.01,16.36 31.94,16.27 C 31.88,16.18 32.36,15.44 32.41,15.22 C 32.45,15 30.6,15.48 31.03,14.87 C 31.47,14.27 31.27,14.27 30.88,14.27 C 30.48,14.27 30.25,14.87 29.53,14.87 C 28.81,14.87 29.27,14.48 29.33,14.09 C 29.4,13.69 29.23,13.29 28.83,13.37 C 28.44,13.46 28.24,13.87 27.63,14.27 C 27.03,14.66 26.98,14.59 25.93,14.7 C 24.89,14.8 24.01,15.66 23.43,15.92 C 22.83,16.18 21.75,17.86 21.75,18.78 Z" fill="url(#c)"/>
<path d="M 24.38,34.525 C 24.31,34.34 24.26,34.03 24.32,33.96 C 24.39,33.9 24.57,33.76 24.72,34.04 C 24.85,34.3 24.87,34.31 25,34.34 L 25.03,34.36 H 25.21 C 25.37,34.35 25.51,34.33 25.36,34.62 C 25.28,34.78 25.15,34.89 25.04,34.98 C 24.88,35.12 24.79,35.19 25.04,35.32 C 25.24,35.43 25.34,35.5 25.4,35.48 C 25.46,35.47 25.5,35.38 25.62,35.19 C 25.85,34.79 25.96,34.16 25.96,33.96 C 25.96,33.9 25.99,33.84 26.02,33.77 C 26.1,33.63 26.17,33.49 25.88,33.37 A 1.09,1.09 0 0,1 25.59,33.21 C 25.51,33.15 25.49,33.13 25.25,33.16 C 25.09,33.18 25.02,33.24 24.97,33.27 C 24.89,33.33 24.87,33.34 24.72,33.09 A 1.6,1.6 0 0,0 24.55,32.88 C 24.44,32.75 24.41,32.71 24.32,32 C 24.2,31.02 25.76,28.5 26.46,28.25 C 27.16,28 28.91,27.83 29.81,27.95 C 30.71,28.09 30.7,26.9 29.88,26.75 C 29.63,26.7 29.36,26.66 29.12,26.63 C 28.55,26.55 28.13,26.49 28.52,26.38 C 28.74,26.31 29.1,26.33 29.48,26.36 C 30.03,26.39 30.6,26.42 30.76,26.18 L 30.86,26.04 C 31.03,25.77 31.05,25.74 31.12,25.37 C 31.18,25.02 31.12,24.71 31.04,24.41 L 31,24.24 C 30.98,24.14 30.98,24.05 30.99,23.97 C 31,23.72 31.02,23.51 30.43,23.39 L 29.91,23.27 A 3.8,3.8 0 0,0 27.95,23.16 L 27.1,23.34 C 26.3,23.51 25.4,23.69 24.7,24.05 L 24.27,24.28 C 23.31,24.78 22.05,25.44 21.93,25.69 C 21.8,25.98 21.85,26.19 22.15,26.38 C 22.44,26.56 22.67,26.88 22.69,26.98 A 3.96,3.96 0 0,1 21.47,26.38 C 21.29,26.16 21.32,25.51 21.36,25.21 C 22.11,24.39 24.62,22.75 28.65,22.75 C 33.68,22.75 37.43,26.93 37.43,28.87 C 37.43,30.42 36.89,31.46 36.63,31.79 A 4.28,4.28 0 0,0 37.63,26.75 C 35.46,22.95 32.23,22.1 28.43,22.1 C 25.38,22.1 22.57,23.53 21.55,24.24 C 24.32,22.04 27.35,21.74 28.52,21.86 C 31.23,21.86 32.12,22.21 33.41,22.72 L 34.19,23.02 C 35.83,23.64 37.25,25.82 37.56,26.29 L 37.62,26.38 C 37.69,26.46 37.82,26.41 37.87,26.38 C 37.73,26.18 37.43,25.76 37.3,25.61 C 37.18,25.47 37.19,25.41 37.2,25.26 V 24.47 C 37.45,24.23 37.93,23.71 37.87,23.47 C 37.8,23.22 37.15,23.31 36.83,23.39 A 0.74,0.74 0 0,0 36.78,23.03 A 3.07,3.07 0 0,0 36.3,22.43 C 36.33,22.38 36.42,22.2 36.49,21.95 C 36.58,21.63 36.69,21.01 36.3,21 C 36,20.98 35.6,21.29 35.45,21.44 A 3.5,3.5 0 0,1 34.65,20.7 C 34.56,20.53 34.45,20.55 34.28,20.59 C 34.2,20.6 34.12,20.62 34.02,20.62 H 33.8 C 33.39,20.64 32.66,20.66 32.5,20.49 C 32.37,20.34 32.37,20.34 32.22,20.32 A 3.5,3.5 0 0,1 31.98,20.28 C 31.65,20.22 31.44,20.7 31.38,20.95 L 30.67,20.12 C 30.62,20.08 30.57,20.12 30.47,20.18 C 30.39,20.24 30.27,20.33 30.12,20.36 C 29.88,20.42 29.72,20.23 29.68,20.12 L 29.06,20.7 A 2.52,2.52 0 0,0 28.65,20.07 C 28.53,19.99 28.5,20.12 28.47,20.29 L 28.43,20.49 C 28.36,20.74 28.13,20.69 28.08,20.62 A 5.1,5.1 0 0,0 27.27,20.12 A 1.2,1.2 0 0,1 26.95,19.84 L 25.98,20.94 A 1.15,1.15 0 0,0 25.42,20.36 C 25.15,20.24 25.2,20.59 25.26,20.96 C 25.29,21.16 25.32,21.36 25.3,21.5 C 25.26,21.72 25.2,21.65 25.09,21.5 C 24.99,21.38 24.88,21.23 24.7,21.11 C 24.46,20.95 24.51,20.88 24.56,20.81 C 24.58,20.78 24.61,20.74 24.54,20.7 A 6.3,6.3 0 0,0 22.69,20.82 C 22.48,20.86 22.29,20.99 22.13,21.12 C 21.98,21.23 21.85,21.33 21.72,21.33 A 0.64,0.64 0 0,1 21.29,21.2 A 3.57,3.57 0 0,0 21.16,21.11 C 21,21.02 20.94,21.11 20.85,21.21 L 20.69,21.38 C 20.48,21.54 20.43,21.65 20.49,21.88 L 20.61,22.12 C 20.71,22.3 20.82,22.5 20.69,22.66 L 20.51,22.86 C 20.31,23.08 20.1,23.32 20.1,23.43 C 20.1,23.59 20.1,23.63 19.84,23.66 C 19.68,23.69 19.62,23.58 19.58,23.51 C 19.55,23.46 19.53,23.43 19.5,23.43 C 19.43,23.45 19.1,23.66 18.95,23.76 L 19.68,24.92 L 19.5,25.3 C 19.46,25.39 19.5,25.5 19.53,25.62 C 19.57,25.74 19.62,25.87 19.59,25.99 C 19.54,26.19 19.14,26.28 18.95,26.29 L 19.5,26.75 A 7.56,7.56 0 0,0 19.16,29.32 C 19.16,30.76 20.4,32.04 21.02,32.5 A 3.2,3.2 0 0,1 20.1,30.37 C 20.28,30.81 20.8,31.91 21.47,32.75 C 22.13,33.59 23.69,34.29 24.39,34.55 Z M 31.17,21.33 C 31.31,21.65 31.23,21.7 31.17,21.69 C 30.72,21.57 30.37,20.97 30.37,20.79 C 30.35,20.61 30.47,20.27 30.58,20.36 C 30.7,20.45 30.99,20.93 31.18,21.33 Z M 29.22,21.14 C 28.99,21.41 29.05,21.49 29.12,21.49 C 29.58,21.51 30.09,21.03 30.15,20.86 C 30.21,20.69 30.2,20.33 30.07,20.38 C 29.93,20.44 29.51,20.81 29.22,21.14 Z M 26.05,21.75 C 25.99,21.75 25.92,21.69 26.1,21.39 C 26.34,21.02 26.7,20.59 26.83,20.52 C 26.95,20.44 27.02,20.8 26.98,20.98 C 26.94,21.15 26.51,21.7 26.05,21.75 Z M 31.77,21.27 C 31.92,20.99 31.94,20.92 31.93,20.77 C 31.93,20.62 32.07,20.44 32.17,20.55 L 32.2,20.57 C 32.31,20.69 32.49,20.86 32.38,21.02 A 2.5,2.5 0 0,0 32.3,21.13 C 32.21,21.29 32.11,21.45 31.95,21.45 H 31.89 C 31.79,21.47 31.66,21.48 31.77,21.27 Z M 22.7,21.65 C 22.71,21.72 22.75,21.99 22.93,22 L 23.03,22.01 C 23.19,22.03 23.33,22.05 23.43,21.82 L 23.5,21.68 C 23.65,21.38 23.86,20.95 23.47,21.1 C 23.09,21.24 22.8,21.52 22.7,21.64 V 21.65 Z M 24.12,21.29 C 23.79,21.23 23.7,21.68 23.65,21.93 C 23.64,22 23.63,22.06 23.61,22.08 C 23.67,22.08 23.82,22.05 23.95,21.93 C 24.05,21.83 24.12,21.93 24.2,22.05 C 24.25,22.12 24.3,22.2 24.37,22.27 C 24.57,22.46 24.8,22.19 25,21.76 C 25.16,21.42 24.8,21.37 24.41,21.33 L 24.12,21.29 Z M 28.12,21.65 C 28.18,21.65 28.25,21.59 28.06,21.29 C 27.83,20.92 27.46,20.49 27.34,20.41 C 27.21,20.34 27.14,20.7 27.18,20.87 C 27.22,21.05 27.65,21.6 28.12,21.65 Z M 32.43,21.89 C 32.39,21.82 32.37,21.61 32.63,21.43 C 32.75,21.34 32.81,21.23 32.85,21.13 C 32.9,21 32.93,20.94 33.13,21.17 L 33.44,21.5 C 33.73,21.78 34,22.05 33.88,22.14 C 33.72,22.24 33.58,22.17 33.44,22.01 C 33.39,21.96 33.36,21.91 33.34,21.86 C 33.3,21.77 33.27,21.72 33.13,21.83 L 33.05,21.89 C 32.85,22.06 32.57,22.27 32.43,21.89 Z M 34.11,21.85 C 33.96,21.78 33.74,21.25 33.74,21.19 C 34,20.91 34.24,21.27 34.37,21.45 L 34.44,21.54 C 34.53,21.62 34.25,21.93 34.11,21.85 Z" fill="url(#b)" fill-rule="evenodd"/>
<path d="M 26.819999999999997,27.775 L 26.1,25.84 C 26.22,25.41 26.57,25.73 26.62,25.84 C 26.66,25.96 27.27,27.74 27.4,27.74 C 27.52,27.74 27.66,27.69 27.66,27.47 C 27.66,27.26 27.26,25.37 27.66,25.33 C 27.99,25.29 28.11,26.11 28.12,26.53 L 28.26,27.61 C 28.36,27.63 28.59,27.65 28.78,27.61 C 28.97,27.56 28.95,27.09 28.92,26.86 C 28.92,26.33 28.97,25.28 29.18,25.28 C 29.44,25.27 29.39,25.71 29.39,25.84 L 29.27,27.9 A 7.9,7.9 0 0,0 26.68,28.18 C 25.35,28.58 24.64,29.84 24.38,30.29 A 3.02,3.02 0 0,0 24.1,31.58 C 24.1,31.64 23.35,31.38 23.19,31.34 C 23.02,31.31 23.04,31.12 23.05,30.99 C 23.07,30.87 23.75,30.97 23.89,30.86 C 23.99,30.77 24,30.6 23.99,30.53 A 9.4,9.4 0 0,1 22.84,30.41 C 22.6,30.34 22.56,29.99 22.78,29.99 C 22.95,29.99 23.73,30.19 24.1,30.29 L 24.38,29.94 L 23.6,29.59 C 23.4,29.49 23.23,29.08 23.4,29.13 C 23.54,29.17 24.2,29.46 24.52,29.59 L 24.75,29.35 C 24.54,29.15 24.02,28.71 23.7,28.48 C 23.3,28.2 23.19,27.74 23.35,27.79 C 23.49,27.83 24.41,28.67 24.85,29.08 L 25.16,28.76 C 24.85,28.37 24.2,27.56 24.1,27.4 C 23.98,27.2 23.87,26.82 24.1,27.02 C 24.34,27.22 25.28,28.62 25.38,28.54 C 25.46,28.48 25.81,28.27 25.98,28.18 A 12.07,12.07 0 0,1 24.81,26.4 C 24.71,26.09 25.01,26.14 25.16,26.2 C 25.49,26.8 26.22,28 26.48,27.97 C 26.75,27.95 26.83,27.84 26.83,27.79 Z" fill="rgb(104, 105, 102)"/>
<path d="M 30.0,27.285 L 29.71,27.86 C 30.94,28.11 31.75,28.86 32.01,29.16 A 7.21,7.21 0 0,0 28.51,28.17 A 4,4 0 0,0 25.47,29.73 C 28.8,27.38 32.29,29.45 32.57,29.95 C 32.83,30.45 33.13,31.42 33.2,31.66 C 33.27,31.9 33.3,32.16 33.42,32.06 C 33.51,31.99 33.5,31.48 33.49,31.24 C 33.49,31.19 33.49,31.08 33.53,31.07 C 33.57,31.07 34.18,30.88 34.15,30.69 C 34.12,30.53 33.55,30.59 33.26,30.64 L 33.2,30.42 C 33.61,30.26 34.46,29.91 34.5,29.85 C 34.57,29.77 34.55,29.63 34.18,29.62 C 33.88,29.62 33.28,29.92 33.03,30.06 L 32.87,29.73 C 33.35,29.49 34.36,28.99 34.51,28.89 C 34.7,28.76 34.53,28.51 34.26,28.53 C 34.04,28.55 33.03,29.12 32.56,29.4 L 32.36,29.16 C 32.52,29.04 32.82,28.79 32.84,28.76 C 32.85,28.73 33.95,28.03 34.04,27.94 C 34.14,27.85 34.32,27.58 33.91,27.54 C 33.57,27.5 32.63,28.36 32.19,28.8 L 31.89,28.41 C 32.26,28.01 33.08,27.16 33.34,26.97 C 33.66,26.73 33.41,26.61 33.34,26.53 C 33.26,26.45 32.84,26.69 32.74,26.86 C 32.64,27.03 31.59,28.25 31.55,28.28 C 31.52,28.32 31.28,28.06 31.22,27.94 C 31.16,27.82 31.66,27.07 32.01,26.49 C 32.35,25.91 32.25,25.78 32.01,25.76 C 31.76,25.76 30.92,27.56 30.77,27.86 C 30.62,28.16 30.33,27.95 30.24,27.8 C 30.15,27.66 30.39,27.19 30.45,27.02 C 30.51,26.86 30.76,26.07 30.92,25.68 C 31.08,25.29 30.86,25.41 30.62,25.42 C 30.42,25.42 30.22,26.3 30.13,26.74 C 30.13,26.88 30.08,27.19 30.01,27.3 Z" fill="rgb(104, 105, 102)"/>
<path d="M 35.27,27.765 C 34.19,25.89 31.92,24.9 30.93,24.64 V 24.17 C 32.08,24.49 34.57,25.67 35.28,27.78 Z" fill="rgb(112, 116, 114)"/>
<path d="M 25.189999999999998,31.745 C 25.14,31.96 26.53,32.12 26.6,32.13 C 26.13,32.3 25.47,32.03 25.24,32.11 C 25.02,32.18 25.44,32.48 25.57,32.48 C 25.69,32.48 26.7,32.69 26.97,32.71 C 27.23,32.72 27.57,32.41 27.68,32.48 C 27.79,32.56 28.27,33.08 28.62,33.17 C 28.97,33.27 28.98,33.26 29.09,33.67 C 29.19,34.01 29.71,34.45 29.97,34.63 C 30.07,34.73 30.41,35 30.95,35.31 C 31.64,35.7 31.13,35.86 31.15,36.08 C 31.16,36.29 31.29,36.52 31.49,36.55 C 31.7,36.58 31.78,37.12 31.64,37.35 C 31.49,37.57 31.62,37.98 31.78,38.05 C 31.94,38.11 32.78,37.66 32.91,37.82 C 33.04,37.98 33.14,39.19 33.69,40.12 C 34.12,40.85 34.19,41.25 34.16,41.35 L 37.11,38.46 C 36.55,37.73 35.37,36.17 35.11,35.86 A 3.3,3.3 0 0,0 33.96,34.93 C 33.55,34.73 33.24,34.53 33.14,34.45 C 34.78,33.32 37.05,32.02 37.05,29.44 A 4.45,4.45 0 0,0 35.35,25.76 C 35.82,26.32 36.75,27.85 36.75,29.44 C 36.75,31.77 34.1,33.57 32.77,34.18 A 5.64,5.64 0 0,1 32.25,33.26 C 32.24,33.12 32.65,32.54 32.43,31.76 C 32.21,30.99 30.44,29.76 28.98,29.76 C 27.52,29.76 26.72,30.51 26.7,30.58 C 26.68,30.65 27,30.78 27.57,30.97 C 28.13,31.16 27.53,31.49 27.31,31.41 C 27.08,31.33 26.31,31.21 26.05,31.19 C 25.8,31.19 25.27,31.57 25.21,31.76 Z" fill="url(#a)"/>
<path d="M 27.11,31.785 A 4.87,4.87 0 0,1 25.68,31.4 C 27.22,31.61 27.52,31.53 28.04,31.4 C 28.57,31.28 28.64,31.4 29.22,31.69 C 29.81,31.98 31.68,33.25 32.08,33.44 C 32.48,33.63 32.43,33.82 32.72,34.15 C 33,34.49 34,34.9 34.69,35.38 C 35.23,35.76 35.34,36.16 35.32,36.31 C 34.87,36.01 33.9,35.34 33.67,35.15 C 33.38,34.92 32.43,34.11 32.34,34.05 C 32.24,33.98 31.78,33.56 31.52,33.44 A 70.68,70.68 0 0,1 28.89,31.94 C 28.66,31.78 28.36,31.8 28.04,31.8 C 27.73,31.8 27.54,31.82 27.12,31.8 Z" fill="rgb(100, 105, 102)"/>
<path d="M 28.41,42.725 C 27.54,42.75 26.82,43.24 26.55,43.47 C 26.92,43.04 27.91,42.19 28.95,42.19 C 29.99,42.19 31.16,42.64 31.61,42.87 C 31.2,42.02 30.09,41.8 28.77,41.8 C 27.44,41.8 27.37,42.32 27.25,42.37 C 27.12,42.43 27.25,42.24 27.25,42.19 C 27.25,42.14 27.43,41.69 27.37,41.33 S 27.31,39.75 27.3,39 C 27.3,38.25 27.1,37.67 27.25,36.82 C 27.4,35.96 27.41,35.79 27.43,35.52 C 27.45,35.24 27.68,34.9 27.75,35 C 27.82,35.09 28.09,40.76 28.09,40.95 C 28.09,41.09 28.33,40.93 28.46,40.83 C 28.33,39.06 28.08,35.48 28.09,35.33 C 28.09,35.15 28.49,35.38 28.77,35.51 C 29.04,35.65 29.01,40.51 29.02,40.68 C 29.03,40.84 29.16,40.7 29.27,40.68 C 29.39,40.66 29.27,38.51 29.27,37.75 C 29.29,36.99 28.97,35.77 29.16,35.79 C 29.36,35.81 29.59,36.89 29.62,36.99 L 31.8,41.99 C 31.88,42.2 31.79,42.31 31.9,42.66 C 32,42.95 32.1,43.16 32.15,43.22 L 31.9,43.47 C 31.1,43.22 29.3,42.73 28.42,42.74 Z M 27.3,35.56 C 27.32,35.86 26.85,36.28 26.83,36.3 A 4.04,4.04 0 0,1 25.93,35.31 C 25.87,35.06 26.24,34.94 26.41,34.92 C 26.57,34.91 27.27,35.26 27.29,35.56 Z M 26.72,37.3 C 26.82,37.5 26.58,38.13 26.57,38.17 C 26.5,38.12 26.27,37.97 25.82,37.73 C 25.27,37.43 25.47,37.33 25.49,37.2 C 25.5,37.07 26.25,37 26.33,37 C 26.4,37 26.63,37.11 26.73,37.3 Z" fill="rgb(142, 143, 141)"/>
<path d="M 27.99,7.985 L 8,28 L 28,48 L 48,28 L 28,8 Z M 28,8.83 L 8.83,28 L 28,47.17 L 47.17,28 L 28,8.83 Z" fill="rgb(212, 213, 215)" fill-rule="evenodd"/>
<defs>
<linearGradient id="d" x1="21.78" x2="35.36" y1="25.45" y2="30.14" gradientUnits="userSpaceOnUse">
<stop stop-color="rgb(138, 136, 138)" offset="0"/>
<stop stop-color="rgb(200, 199, 199)" offset="1"/>
</linearGradient>
<linearGradient id="c" x1="29.31" x2="29.31" y1="13.36" y2="22.29" gradientUnits="userSpaceOnUse">
<stop stop-color="rgb(84, 86, 83)" offset="0"/>
<stop stop-color="rgb(138, 139, 138)" offset=".45"/>
<stop stop-color="rgb(224, 223, 225)" offset="1"/>
</linearGradient>
<linearGradient id="b" x1="28.5" x2="21.12" y1="25.8" y2="31.31" gradientUnits="userSpaceOnUse">
<stop stop-color="rgb(115, 121, 117)" offset="0"/>
<stop stop-color="rgb(145, 147, 146)" offset="1"/>
</linearGradient>
<linearGradient id="a" x1="35.92" x2="33.28" y1="35.91" y2="38.84" gradientUnits="userSpaceOnUse">
<stop stop-color="rgb(116, 122, 118)" offset="0"/>
<stop stop-color="rgb(198, 197, 198)" stop-opacity="0" offset="1"/>
</linearGradient>
</defs>
</svg>
