<?xml version="1.0" encoding="UTF-8"?>
<!-- generated by Finnhub -->
<svg viewBox="0 0 55.5 55.5" xmlns="http://www.w3.org/2000/svg">
<path d="M 0,0 H 55.5 V 55.5 H 0 Z" fill="rgb(239, 242, 248)"/>
<path d="M 27.959999999999997,11.985 C 36.83,12 44,19.18 44,28.05 C 44,36.57 37.38,43.48 29,44 L 36.47,36.57 A 12.05,12.05 0 1,0 19.43,19.53 L 12,27 C 12.55,18.63 19.47,12 27.97,12 Z" fill="rgb(242, 113, 72)"/>
<path d="M 21.74,21.605 A 8.93,8.93 0 1,1 34.38,34.25 L 24.85,43.79 A 15.9,15.9 0 0,1 21.31,42.64 L 32.35,31.6 A 5.62,5.62 0 0,0 24.4,23.65 L 13.37,34.68 C 12.86,33.56 12.47,32.37 12.23,31.13 L 21.75,21.62 Z" fill="rgb(242, 113, 72)"/>
<path d="M 27.299999999999997,25.615 A 2.16,2.16 0 0,1 30.37,28.69 L 18.25,40.8 A 16.14,16.14 0 0,1 15.2,37.75 L 27.3,25.63 Z" fill="rgb(242, 113, 72)"/>
</svg>
