<?xml version="1.0" encoding="UTF-8"?>
<!-- generated by Finnhub -->
<svg viewBox="0 0 55.5 55.5" xmlns="http://www.w3.org/2000/svg">
<path d="M 0,0 H 55.5 V 55.5 H 0 Z" fill="rgb(1, 65, 96)"/>
<path d="M 13.959,30.647 C 13.961,30.824 13.891,30.848 13.759,30.848 H 11.721 V 33.391 H 13.542 C 13.652,33.391 13.698,33.461 13.698,33.601 V 34.018 C 13.698,34.18 13.658,34.226 13.55,34.226 H 11.72 V 37.756 C 11.72,37.954 11.682,38 11.566,38 H 11.163 C 11.039,38 11,37.966 11,37.745 V 30.232 C 11,30.07 11.039,30 11.147,30 H 13.876 C 13.961,30 14,30.058 14,30.175 V 30.209 L 13.969,30.662 Z M 15.728,38 H 15.282 C 15.155,38 15.087,37.925 15.087,37.774 V 33.248 C 15.087,33.098 15.155,33 15.282,33 H 15.728 C 15.854,33 15.913,33.097 15.913,33.248 V 37.774 C 15.913,37.924 15.854,38 15.728,38 Z M 15.495,32.036 A 0.497,0.497 0 0,1 15,31.518 C 15,31.206 15.233,31 15.495,31 C 15.758,31 16,31.206 16,31.518 A 0.511,0.511 0 0,1 15.495,32.036 Z M 36.443,38.004 H 35.996 C 35.869,38.004 35.801,37.929 35.801,37.778 V 33.252 C 35.801,33.102 35.869,33.004 35.996,33.004 H 36.443 C 36.569,33.004 36.627,33.101 36.627,33.252 V 37.778 C 36.627,37.928 36.569,38.004 36.443,38.004 Z M 36.21,32.04 A 0.497,0.497 0 0,1 35.715,31.522 C 35.715,31.21 35.947,31.004 36.21,31.004 C 36.472,31.004 36.715,31.21 36.715,31.522 A 0.511,0.511 0 0,1 36.21,32.04 Z M 20.036,38 H 19.667 C 19.565,38 19.519,37.93 19.519,37.788 V 34.953 C 19.519,34.235 19.377,33.718 18.749,33.718 C 18.389,33.718 17.942,33.982 17.667,34.306 V 37.788 C 17.667,37.929 17.62,38 17.518,38 H 17.149 C 17.055,38 17,37.93 17,37.798 V 33.216 C 17,33.074 17.04,33 17.149,33 H 17.494 C 17.589,33 17.644,33.064 17.644,33.196 L 17.651,33.509 C 18.011,33.114 18.482,33 18.938,33 C 19.84,33 20.185,33.71 20.185,34.812 V 37.788 C 20.185,37.929 20.146,38 20.035,38 Z M 30.036,38 H 29.667 C 29.565,38 29.519,37.93 29.519,37.788 V 34.953 C 29.519,34.235 29.377,33.718 28.749,33.718 C 28.389,33.718 27.942,33.982 27.667,34.306 V 37.788 C 27.667,37.929 27.62,38 27.518,38 H 27.149 C 27.055,38 27,37.93 27,37.798 V 33.216 C 27,33.074 27.04,33 27.149,33 H 27.494 C 27.589,33 27.644,33.064 27.644,33.196 L 27.651,33.509 C 28.011,33.114 28.482,33 28.938,33 C 29.84,33 30.185,33.71 30.185,34.812 V 37.788 C 30.185,37.929 30.146,38 30.035,38 Z M 34.438,37.716 A 2.797,2.797 0 0,1 33.185,38.004 C 31.728,38.004 31.022,36.992 31.022,35.512 C 31.022,34.052 31.848,33 33.24,33 C 33.64,33 34.104,33.11 34.43,33.288 C 34.494,33.318 34.522,33.358 34.522,33.418 C 34.522,33.447 34.512,33.467 34.503,33.497 L 34.429,33.815 C 34.411,33.884 34.383,33.933 34.327,33.933 A 0.167,0.167 0 0,1 34.244,33.903 C 33.955,33.765 33.64,33.656 33.278,33.656 C 32.396,33.656 31.838,34.361 31.838,35.473 C 31.838,36.485 32.248,37.359 33.24,37.359 C 33.64,37.359 33.983,37.259 34.28,37.121 C 34.309,37.111 34.337,37.101 34.355,37.101 C 34.401,37.101 34.429,37.131 34.447,37.199 L 34.531,37.479 C 34.541,37.518 34.551,37.557 34.551,37.587 C 34.551,37.647 34.522,37.676 34.438,37.717 Z M 24.764,34.39 A 1.411,1.411 0 0,0 23.541,33.676 C 22.764,33.676 22.178,34.351 22.178,35.532 C 22.178,36.624 22.693,37.299 23.421,37.299 C 24.066,37.299 24.581,36.793 24.764,36.297 V 34.39 Z M 25.894,38.004 H 25.471 C 25.026,38.004 24.814,37.667 24.814,37.27 H 24.794 C 24.562,37.706 23.905,38.004 23.289,38.004 C 21.895,38.004 21.279,36.842 21.279,35.591 C 21.279,33.933 22.279,33 23.43,33 C 23.935,33 24.48,33.209 24.783,33.606 L 24.793,33.278 C 24.793,33.159 24.875,33.109 24.986,33.109 H 25.44 C 25.561,33.109 25.622,33.169 25.622,33.298 L 25.612,36.873 C 25.612,37.101 25.622,37.26 25.662,37.319 C 25.702,37.389 25.753,37.409 25.834,37.409 H 25.905 C 25.996,37.409 26.045,37.429 26.045,37.537 V 37.876 C 26.045,37.976 25.996,38.004 25.895,38.004 Z M 41.42,34.39 A 1.403,1.403 0 0,0 40.203,33.676 C 39.429,33.676 38.847,34.351 38.847,35.532 C 38.847,36.625 39.359,37.299 40.083,37.299 C 40.726,37.299 41.239,36.793 41.42,36.297 V 34.39 Z M 42.544,38.004 H 42.123 C 41.68,38.004 41.469,37.667 41.469,37.27 H 41.449 C 41.219,37.706 40.565,38.004 39.952,38.004 C 38.566,38.004 37.952,36.842 37.952,35.591 C 37.952,33.934 38.947,33.001 40.093,33.001 C 40.595,33.001 41.138,33.209 41.439,33.606 L 41.449,33.278 C 41.449,33.159 41.53,33.109 41.641,33.109 H 42.093 C 42.213,33.109 42.273,33.169 42.273,33.298 L 42.263,36.873 C 42.263,37.101 42.273,37.26 42.313,37.319 C 42.354,37.389 42.404,37.409 42.485,37.409 H 42.555 C 42.645,37.409 42.695,37.429 42.695,37.538 V 37.876 C 42.695,37.976 42.645,38.004 42.545,38.004 Z M 44.658,38.004 H 44.202 C 44.091,38.004 44.034,37.937 44.034,37.779 V 30.195 C 44.034,30.038 44.079,30.035 44.16,30.004 H 44.686 C 44.769,30.004 44.826,30.05 44.826,30.195 V 37.768 C 44.826,37.925 44.769,38.004 44.658,38.004 Z M 11.19,21.597 C 10.316,21.597 9.597,22.326 9.597,23.966 C 9.597,25.717 10.235,26.394 11.189,26.394 C 12.073,26.394 12.782,25.684 12.782,23.966 C 12.782,22.182 12.144,21.597 11.189,21.597 Z M 11.19,28 C 9.17,28 8.004,26.415 8.004,24.032 C 8.004,21.66 9.19,20 11.19,20 C 13.29,20 14.375,21.716 14.375,23.966 C 14.375,26.459 13.079,28 11.19,28 Z M 23.264,24.122 C 22.76,24.122 22.427,24.509 22.357,24.964 H 24.04 C 24.04,24.548 23.788,24.122 23.264,24.122 Z M 25.159,25.882 H 22.337 C 22.457,26.492 23.022,26.831 23.637,26.831 A 3.53,3.53 0 0,0 24.907,26.579 A 0.28,0.28 0 0,1 25.027,26.549 C 25.119,26.549 25.169,26.609 25.189,26.686 C 25.229,26.85 25.381,27.296 25.381,27.44 C 25.381,27.566 25.291,27.605 25.189,27.653 C 24.655,27.885 23.95,27.982 23.365,27.982 C 21.762,27.982 20.745,27.034 20.745,25.486 C 20.745,23.986 21.803,23 23.355,23 C 24,23 24.544,23.232 24.918,23.619 C 25.421,24.131 25.522,24.799 25.522,25.476 V 25.602 C 25.522,25.834 25.412,25.882 25.159,25.882 Z M 34.718,28 H 33.674 C 33.402,28 33.406,27.85 33.394,27.527 V 23.207 L 31.617,27.746 C 31.533,27.976 31.397,28 31.261,28 H 30.875 C 30.676,28 30.561,27.965 30.457,27.735 L 28.595,23.207 V 27.642 C 28.595,27.965 28.431,28 28.211,28 H 27.355 C 27.115,28 27,27.908 27,27.666 V 27.632 L 27.281,20.369 C 27.292,20.093 27.407,20 27.606,20 H 28.358 C 28.598,20 28.692,20.093 28.785,20.312 L 30.989,24.807 L 33.204,20.312 C 33.288,20.115 33.402,20 33.632,20 H 34.363 C 34.572,20 34.646,20.08 34.656,20.289 L 35,27.642 V 27.678 C 35,27.896 34.907,28 34.718,28 Z M 38.381,24.487 C 38.2,24.331 37.983,24.206 37.681,24.206 C 37.186,24.206 36.758,24.694 36.758,25.501 C 36.758,26.021 36.884,26.823 37.65,26.823 C 38.013,26.823 38.26,26.549 38.381,26.403 V 24.487 Z M 40.161,28 H 39.707 C 39.113,28 38.84,27.708 38.709,27.426 H 38.689 C 38.417,27.727 37.771,28 37.277,28 C 35.825,28 35.15,26.891 35.15,25.597 C 35.15,23.876 36.26,23 37.368,23 C 37.932,23 38.387,23.253 38.598,23.545 L 38.628,23.207 A 0.23,0.23 0 0,1 38.86,23 H 39.755 C 39.897,23 39.997,23.09 39.997,23.246 V 26.726 C 39.997,26.823 40.05,26.891 40.161,26.891 H 40.241 C 40.383,26.891 40.454,26.94 40.454,27.086 V 27.783 C 40.454,27.928 40.302,28 40.161,28 Z M 42.112,28 H 41.17 C 40.95,28 40.845,27.923 40.845,27.68 V 23.31 C 40.845,23.088 40.981,23 41.17,23 H 42.112 C 42.312,23 42.416,23.077 42.416,23.31 V 27.68 C 42.416,27.9 42.322,28 42.112,28 Z M 41.693,21.683 C 41.295,21.683 40.845,21.383 40.845,20.853 C 40.845,20.309 41.263,20 41.694,20 C 42.114,20 42.531,20.31 42.531,20.842 C 42.531,21.373 42.091,21.683 41.694,21.683 Z M 47.688,28 H 46.653 C 46.424,28 46.337,27.89 46.337,27.701 V 25.046 C 46.337,24.626 46.25,24.347 45.749,24.347 C 45.389,24.347 44.976,24.497 44.671,24.737 V 27.7 C 44.671,27.89 44.595,27.999 44.377,27.999 H 43.309 C 43.123,27.999 43.004,27.909 43.004,27.729 V 23.301 C 43.004,23.111 43.08,22.999 43.32,22.999 H 44.377 C 44.54,22.999 44.649,23.052 44.671,23.222 V 23.432 C 45.171,23.072 45.695,22.999 46.337,22.999 C 47.536,22.999 48.004,23.688 48.004,24.775 V 27.7 C 48.004,27.9 47.928,27.999 47.688,27.999 Z M 19.684,28 H 18.65 C 18.421,28 18.334,27.89 18.334,27.701 V 25.046 C 18.334,24.626 18.247,24.347 17.746,24.347 C 17.386,24.347 16.973,24.497 16.668,24.737 V 27.7 C 16.668,27.89 16.592,27.999 16.374,27.999 H 15.306 C 15.12,27.999 15.001,27.909 15.001,27.729 V 23.303 C 15.001,23.113 15.077,22.999 15.317,22.999 H 16.374 C 16.537,22.999 16.646,23.054 16.668,23.224 V 23.434 C 17.168,23.074 17.692,22.999 18.334,22.999 C 19.533,22.999 20.001,23.688 20.001,24.775 V 27.7 C 20.001,27.9 19.924,27.999 19.685,27.999 Z" fill="rgb(254, 254, 253)"/>
</svg>
