<?xml version="1.0" encoding="UTF-8"?>
<!-- generated by Finnhub -->
<svg viewBox="0 0 55.5 55.5" xmlns="http://www.w3.org/2000/svg">
<path d="M 0,0 H 55.5 V 55.5 H 0 Z" fill="url(#a)"/>
<path d="M 33.31,39.165 A 14.54,14.54 0 0,1 26.52,40.86 A 14.48,14.48 0 0,1 12,26.43 C 12,18.46 18.5,12 26.53,12 C 34.55,12 41.06,18.46 41.06,26.43 C 41.06,30.33 39.5,33.87 36.96,36.47 L 44,43 H 37.46 L 33.32,39.18 Z M 32.99,32.78 C 34.39,31.21 35.59,29.28 36.41,26.95 C 34.97,22.49 29.18,14.31 17.56,17.33 A 18.48,18.48 0 0,0 23.52,38.52 C 25,38.22 27.3,37.36 29.62,35.76 L 23.39,30 H 29.99 L 32.99,32.78 Z" fill="rgb(254, 254, 253)"/>
<defs>
<linearGradient id="a" x1="10.42" x2="68.15" y1="9.71" y2="76.02" gradientUnits="userSpaceOnUse">
<stop stop-color="rgb(25, 29, 31)" offset="0"/>
<stop stop-color="rgb(5, 5, 8)" offset="1"/>
</linearGradient>
</defs>
</svg>
