<?xml version="1.0" encoding="UTF-8"?>
<!-- generated by Finnhub -->
<svg viewBox="0 0 55.5 55.5" xmlns="http://www.w3.org/2000/svg">
<path d="M 0,0 H 55.5 V 55.5 H 0 Z" fill="rgb(239, 242, 248)"/>
<path d="M 27.99,10.985 A 17,17 0 1,1 28,45 A 17,17 0 0,1 28,11 Z M 33.8,15.64 A 11.36,11.36 0 0,0 28.25,14.56 A 12.8,12.8 0 0,0 18.3,19.84 A 0.25,0.25 0 0,0 18.33,20.03 L 18.4,20.1 L 21.25,22.11 C 21.29,22.14 21.31,22.18 21.32,22.22 C 21.33,22.26 21.32,22.31 21.3,22.35 L 20.76,23.31 L 23.7,25.42 A 0.35,0.35 0 0,1 23.84,25.76 L 23.74,26.53 L 26.64,28.63 A 0.26,0.26 0 0,1 26.74,28.92 C 26.64,29.31 26.6,29.62 26.64,29.84 L 29.24,31.62 A 0.3,0.3 0 0,1 29.38,31.89 C 29.35,32.44 29.38,33.02 29.44,33.63 A 8.6,8.6 0 0,0 32.12,38.97 A 7.29,7.29 0 0,0 33.92,38.33 C 37.78,36.33 41.03,32.19 41.22,27.71 C 41.44,22.39 38.62,17.9 33.81,15.64 Z"/>
<path d="M 34.7,26.564999999999998 C 34.7,23.77 33.56,20.55 31.08,19.06 A 8.63,8.63 0 0,0 24.76,18.03 C 24.62,18.15 24.48,18.13 24.32,17.93 C 28.98,16.18 33.95,16.93 37.01,21.13 C 38.81,23.63 39.21,26.5 38.21,29.75 A 0.19,0.19 0 0,1 37.98,29.87 L 34.75,28.94 A 0.16,0.16 0 0,1 34.63,28.78 L 34.71,26.58 Z" fill="rgb(89, 90, 93)"/>
<path d="M 34.7,26.564999999999998 L 31.58,25.68 A 0.2,0.2 0 0,1 31.43,25.52 L 30.97,23.57 A 6.95,6.95 0 0,0 25.9,18.42 C 25.52,18.31 25.15,18.18 24.76,18.02 C 27.06,17.57 29.16,17.92 31.08,19.06 C 33.56,20.55 34.7,23.76 34.71,26.58 Z" fill="rgb(150, 151, 154)"/>
<path d="M 24.31,17.915 C 24.48,18.13 24.62,18.15 24.76,18.03 C 25.15,18.18 25.52,18.31 25.9,18.43 A 6.95,6.95 0 0,1 30.97,23.57 L 28.01,22.77 A 0.37,0.37 0 0,1 27.74,22.51 A 5.82,5.82 0 0,0 23.87,18.23 A 0.09,0.09 0 0,1 23.87,18.11 C 23.97,18.01 24.13,17.95 24.32,17.93 Z" fill="rgb(197, 198, 199)"/>
<path d="M 23.72,26.515 C 23.38,28.71 23.43,30.65 23.89,32.35 C 24.85,35.91 27.19,38.08 30.93,38.85 A 0.3,0.3 0 0,0 31.06,38.85 L 31.36,38.77 C 31.48,38.93 31.66,39.03 31.9,39.07 C 27.18,39.69 22.7,37.59 20.9,33.04 A 13.64,13.64 0 0,1 20.76,23.31 L 23.7,25.42 A 0.34,0.34 0 0,1 23.84,25.76 L 23.74,26.53 Z" fill="rgb(89, 90, 93)"/>
<path d="M 23.72,26.515 L 26.63,28.63 A 0.26,0.26 0 0,1 26.73,28.92 C 26.63,29.31 26.6,29.62 26.63,29.84 C 26.31,33.18 27.34,35.8 29.71,37.71 C 30.18,38.08 30.81,38.41 31.36,38.77 L 31.06,38.84 A 0.3,0.3 0 0,1 30.93,38.84 C 27.19,38.08 24.85,35.91 23.89,32.35 C 23.44,30.65 23.39,28.71 23.73,26.53 Z" fill="rgb(150, 151, 154)"/>
<path d="M 32.11,38.955 L 31.9,39.07 A 0.78,0.78 0 0,1 31.36,38.77 C 30.82,38.41 30.18,38.08 29.71,37.71 C 27.34,35.8 26.31,33.18 26.63,29.84 L 29.24,31.62 A 0.3,0.3 0 0,1 29.38,31.89 C 29.35,32.44 29.38,33.02 29.44,33.63 A 8.6,8.6 0 0,0 32.12,38.97 Z" fill="rgb(197, 198, 199)"/>
</svg>
