<?xml version="1.0" encoding="UTF-8"?>
<!-- generated by Finnhub -->
<svg viewBox="0 0 55.5 55.5" xmlns="http://www.w3.org/2000/svg">
<path d="M 0,0 H 55.5 V 55.5 H 0 Z" fill="rgb(239, 242, 248)"/>
<path d="M 29.639999999999997,20.515 C 29.65,22.21 26.65,25.1 25.15,26.33 C 25.35,26.53 25.78,26.92 25.92,26.92 C 27.98,25.32 31.98,20.73 28.83,17.9 C 25.74,16.1 20.47,17.03 14.15,20.36 C 7.82,23.68 5,27.29 5,30.66 C 5,33.37 7.86,34.02 9.29,34 C 12.92,34 17.06,32.45 18.69,31.68 L 18.47,30.41 C 8.74,34.34 5.64,31.93 5.3,30.23 C 7.03,23.57 20.12,18.37 25.28,18.37 C 28.58,18.37 29.57,19.81 29.65,20.53 Z"/>
<path d="M 29.83,19.384999999999998 A 3.43,3.43 0 0,0 28.84,17.9 C 25.74,16.1 20.47,17.03 14.14,20.36 C 9.29,22.91 6.5,25.62 5.47,28.28 C 5.99,27.23 7.07,25.58 8.79,24.15 C 11.47,21.91 15.27,19.85 19.76,18.2 C 24.22,16.55 28.63,16.82 29.84,19.4 Z M 18.66,31.52 L 18.68,31.69 C 17.06,32.45 12.92,34 9.3,34 C 8.1,34.01 5.89,33.56 5.21,31.81 C 5.75,32.63 7.01,33.75 9.19,33.75 C 12.27,33.75 16.13,32.54 18.67,31.51 Z M 29.56,20.22 C 29.26,19.46 28.14,18.38 25.28,18.38 C 20.12,18.38 7.03,23.58 5.3,30.24 C 5.64,31.94 8.75,34.34 18.47,30.42 L 18.51,30.67 C 16.7,31.43 12.56,32.84 9.27,32.84 C 5.03,32.84 4.9,30.37 5.52,29.02 C 6.15,27.67 9.14,23.29 16.45,20.46 C 23.75,17.63 26.55,17.96 28.15,18.65 C 29.18,19.09 29.51,19.78 29.56,20.22 Z M 29.17,23.17 C 28.29,24.76 26.89,26.17 25.92,26.93 C 25.78,26.93 25.34,26.53 25.14,26.34 C 26.52,25.21 29.15,22.7 29.59,20.99 C 29.41,21.92 28.42,23.92 25.44,26.31 C 25.44,26.35 25.75,26.58 25.91,26.7 C 26.66,26.1 28.2,24.67 29.17,23.17 Z" fill="rgb(126, 20, 16)"/>
<path d="M 16.56,30.405 L 16.47,29.14 C 12.74,30.13 11.5,29.27 11.34,28.71 C 14.48,23.37 20.51,22.07 21.56,22.07 C 22.61,22.07 23.73,22.38 23.74,23.02 C 23.76,23.52 23.18,24.4 22.88,24.77 L 23.01,26.01 C 25.37,21.73 23.3,20.68 21.97,20.68 C 15.86,21.04 11.03,26.28 11.03,28.62 C 11.03,30.19 11.5,30.93 13.43,30.93 C 14.97,30.93 16.17,30.59 16.57,30.43 Z"/>
<path d="M 23.99,22.085 C 23.72,21.02 22.72,20.68 21.96,20.68 C 17.08,20.97 13.01,24.38 11.58,26.93 A 14.8,14.8 0 0,1 15.55,23.16 C 18.15,21.6 20.08,20.9 21.95,20.9 C 22.95,20.9 23.62,21.5 24,22.1 Z M 23.32,25.42 C 23.22,25.52 23.14,25.6 23.07,25.64 A 0.4,0.4 0 0,1 22.97,25.68 L 23.01,26.01 L 23.31,25.42 Z M 22.89,24.82 C 24.16,23.47 24.01,22.43 23.13,22.1 C 22.22,21.76 20.91,21.66 16.93,23.35 A 11.85,11.85 0 0,0 11.27,28.72 C 11.37,29.08 11.9,29.81 13.27,29.81 C 14.53,29.81 15.85,29.53 16.48,29.35 L 16.46,29.15 C 12.74,30.13 11.5,29.27 11.34,28.71 C 14.48,23.37 20.5,22.07 21.56,22.07 C 22.61,22.07 23.73,22.38 23.74,23.02 C 23.76,23.52 23.18,24.4 22.88,24.77 V 24.82 Z M 16.56,30.25 L 16.57,30.42 C 16.17,30.59 14.97,30.93 13.43,30.93 C 12.05,30.93 11.41,30.55 11.17,29.77 C 11.42,30.21 12.03,30.7 13.27,30.7 C 14.51,30.7 15.74,30.46 16.56,30.25 Z" fill="rgb(126, 20, 16)"/>
<path d="M 32.96,25.995 L 33.23,25 H 34.71 L 34.45,26.01 H 32.97 Z M 32.91,26.25 L 31.95,30 H 33.41 L 34.38,26.25 H 32.91 Z M 17,30 L 18.05,26 H 19.48 L 19.41,26.38 C 19.5,26.25 19.78,26 20.16,26 H 22.24 C 22.38,26.03 22.68,26.17 22.74,26.5 C 22.81,26.33 23.05,26 23.51,26 H 25.81 C 26.13,26 26.67,26.29 26.26,27.49 L 25.59,30 H 24.1 L 24.77,27.48 C 24.8,27.36 24.71,27.23 24.59,27.23 H 22.92 A 0.19,0.19 0 0,0 22.74,27.38 L 22.05,30 H 20.55 L 21.22,27.48 C 21.25,27.36 21.16,27.23 21.04,27.23 H 19.37 A 0.19,0.19 0 0,0 19.19,27.38 L 18.5,30 H 17 Z M 26.26,30 L 27.3,26 H 28.74 L 28.66,26.38 C 28.76,26.25 29.03,26 29.42,26 H 31.49 C 32.08,26.13 32.13,26.88 31.99,27.38 L 31.32,30 H 29.82 L 30.48,27.48 C 30.52,27.36 30.43,27.23 30.3,27.23 H 28.64 A 0.19,0.19 0 0,0 28.46,27.38 L 27.76,30 H 26.26 Z M 34.84,26.08 H 36.28 L 35.24,30 H 36.76 L 37.83,26.08 H 39.36 L 39.68,25 H 35.14 L 34.84,26.08 Z M 39.68,26.5 C 39.68,26.22 39.86,26 40.08,26 H 44.23 C 44.46,26 44.65,26.22 44.65,26.5 S 44.46,27 44.23,27 H 40.1 C 39.87,27 39.69,26.78 39.69,26.5 Z M 39.52,27.5 C 39.29,27.5 39.1,27.72 39.1,28 S 39.29,28.5 39.52,28.5 H 43.66 C 43.89,28.5 44.07,28.28 44.07,28 S 43.89,27.5 43.67,27.5 H 39.52 Z M 38.46,29.5 C 38.46,29.22 38.65,29 38.88,29 H 43.02 C 43.25,29 43.44,29.22 43.44,29.5 S 43.25,30 43.02,30 H 38.88 C 38.65,30 38.46,29.78 38.46,29.5 Z M 47.6,25 H 46.1 L 44.8,30 H 46.29 L 46.65,28.6 H 48.72 L 48.32,30 H 49.86 L 50.28,28.14 C 50.33,27.93 50.32,27.5 49.86,27.5 H 49.26 L 51,26 H 49.1 L 46.75,28.25 L 47.6,25 Z"/>
<path d="M 34.440000000000005,25.995 L 34.7,25 H 33.22 L 32.96,26.01 H 34.44 Z M 33.23,25.81 H 34.29 L 34.45,25.2 H 33.38 L 33.23,25.81 Z M 36.28,26.08 L 35.24,30 H 36.76 L 37.83,26.08 H 39.36 L 39.68,25 H 35.14 L 34.84,26.08 H 36.28 Z M 35.11,25.88 H 36.54 L 35.5,29.8 H 36.61 L 37.67,25.88 H 39.21 L 39.41,25.2 H 35.29 L 35.11,25.88 Z M 32.91,26.25 L 31.95,30 H 33.41 L 34.38,26.25 H 32.91 Z M 34.13,26.45 H 33.06 L 32.21,29.8 H 33.25 L 34.13,26.45 Z M 19.66,26.15 C 19.79,26.07 19.96,26 20.16,26 H 22.24 C 22.34,26.02 22.52,26.1 22.64,26.26 C 22.69,26.33 22.72,26.4 22.74,26.49 A 0.83,0.83 0 0,1 23.51,25.99 H 25.81 C 26.13,25.99 26.67,26.29 26.26,27.49 L 25.59,30 H 24.1 L 24.77,27.48 C 24.8,27.36 24.71,27.23 24.59,27.23 H 22.92 A 0.19,0.19 0 0,0 22.74,27.38 L 22.05,30 H 20.55 L 21.22,27.48 C 21.25,27.36 21.16,27.23 21.04,27.23 H 19.37 A 0.19,0.19 0 0,0 19.19,27.38 L 19,27.32 C 19.05,27.16 19.2,27.03 19.37,27.03 H 21.04 C 21.31,27.03 21.47,27.3 21.41,27.53 L 20.81,29.8 H 21.9 L 22.55,27.33 A 0.4,0.4 0 0,1 22.66,27.13 L 22.55,26.53 A 0.4,0.4 0 0,0 22.39,26.3 A 0.56,0.56 0 0,0 22.21,26.2 H 20.16 C 19.86,26.2 19.64,26.4 19.57,26.5 L 19.21,26.34 L 19.24,26.2 H 18.2 L 17.26,29.8 H 18.33 L 19,27.32 L 19.2,27.38 L 18.49,30 H 17 L 18.05,26 H 19.48 L 19.41,26.38 A 0.94,0.94 0 0,1 19.66,26.15 Z M 22.72,27.09 A 0.38,0.38 0 0,1 22.92,27.03 H 24.59 C 24.85,27.03 25.02,27.3 24.96,27.53 L 24.36,29.8 H 25.44 L 26.07,27.42 C 26.27,26.85 26.22,26.54 26.13,26.39 A 0.36,0.36 0 0,0 25.82,26.2 H 23.52 A 0.64,0.64 0 0,0 22.92,26.57 L 22.72,27.09 Z M 28.92,26.15 C 29.04,26.07 29.22,26 29.42,26 H 31.49 C 32.08,26.13 32.13,26.88 31.99,27.38 L 31.32,30 H 29.82 L 30.48,27.48 C 30.52,27.36 30.43,27.23 30.3,27.23 H 28.64 A 0.19,0.19 0 0,0 28.46,27.38 L 27.76,30 H 26.26 L 27.31,26 H 28.75 L 28.67,26.38 A 0.94,0.94 0 0,1 28.92,26.15 Z M 28.49,26.2 H 27.46 L 26.52,29.8 H 27.59 L 28.26,27.32 C 28.3,27.16 28.45,27.03 28.63,27.03 H 30.29 C 30.56,27.03 30.73,27.3 30.67,27.53 L 30.07,29.8 H 31.15 L 31.8,27.33 C 31.86,27.1 31.88,26.83 31.82,26.6 C 31.77,26.39 31.65,26.25 31.47,26.2 H 29.42 C 29.12,26.2 28.89,26.4 28.82,26.5 L 28.47,26.34 L 28.5,26.2 Z M 47.6,25 H 46.12 L 44.82,30 H 46.31 L 46.67,28.6 H 48.74 L 48.34,30 H 49.88 L 50.3,28.14 C 50.35,27.93 50.34,27.5 49.88,27.5 H 49.28 L 51,26 H 49.1 L 46.75,28.25 L 47.6,25 Z M 49.19,26.2 L 46.89,28.4 H 49 L 48.59,29.8 H 49.71 L 50.1,28.1 A 0.48,0.48 0 0,0 50.09,27.82 A 0.16,0.16 0 0,0 50.03,27.74 A 0.28,0.28 0 0,0 49.87,27.7 H 48.75 L 50.47,26.2 H 49.17 Z M 47.35,25.2 H 46.28 L 45.08,29.8 H 46.15 L 47.35,25.2 Z M 40.1,26.2 C 40.01,26.2 39.89,26.3 39.89,26.5 C 39.89,26.7 40.02,26.8 40.09,26.8 H 44.24 C 44.33,26.8 44.46,26.7 44.46,26.5 C 44.46,26.3 44.33,26.2 44.24,26.2 H 40.1 Z M 39.53,27.7 C 39.44,27.7 39.31,27.8 39.31,28 C 39.31,28.2 39.44,28.3 39.53,28.3 H 43.67 C 43.76,28.3 43.88,28.2 43.88,28 C 43.88,27.8 43.76,27.7 43.68,27.7 H 39.53 Z M 38.89,29.2 C 38.8,29.2 38.67,29.3 38.67,29.5 C 38.67,29.7 38.8,29.8 38.89,29.8 H 43.03 C 43.12,29.8 43.25,29.7 43.25,29.5 C 43.25,29.3 43.12,29.2 43.03,29.2 H 38.89 Z M 40.09,26 C 39.87,26 39.69,26.22 39.69,26.5 S 39.87,27 40.09,27 H 44.24 C 44.47,27 44.66,26.78 44.66,26.5 S 44.47,26 44.24,26 H 40.1 Z M 39.11,28 C 39.11,27.72 39.3,27.5 39.53,27.5 H 43.67 C 43.9,27.5 44.08,27.72 44.08,28 S 43.9,28.5 43.68,28.5 H 39.53 C 39.3,28.5 39.11,28.28 39.11,28 Z M 38.89,29 C 38.66,29 38.47,29.22 38.47,29.5 S 38.66,30 38.89,30 H 43.03 C 43.26,30 43.45,29.78 43.45,29.5 S 43.26,29 43.03,29 H 38.89 Z" fill="rgb(126, 20, 16)" fill-rule="evenodd"/>
<path d="M 32.99,30.985 H 20 V 32.5 H 33 V 31 Z M 51,31 H 34 V 32.5 H 51 V 31 Z" opacity=".5"/>
<path d="M 16.99,32.985 H 51 V 34 H 17 Z" fill="rgb(173, 5, 3)"/>
<path d="M 50.99,33.485 H 17 V 35 H 51 Z"/>
</svg>
