<?xml version="1.0" encoding="UTF-8"?>
<!-- generated by Finnhub -->
<svg viewBox="0 0 55.5 55.5" xmlns="http://www.w3.org/2000/svg">
<path d="M 0,0 H 55.5 V 55.5 H 0 Z" fill="rgb(239, 242, 248)"/>
<path d="M 17.99,42.985 H 13 V 31.18 C 15.33,31.18 18.64,30.39 20,30 V 31.18 C 19.07,31.65 18.39,31.78 18,31.78 V 43 Z" fill="rgb(159, 159, 158)"/>
<path d="M 21.99,42.985 H 21 V 18.7 C 25.62,17.76 29.08,13.17 30.23,11 H 36 V 43 H 31 V 15 C 29.62,16.42 24.12,18.7 22,19.3 V 43 Z" fill="rgb(4, 66, 122)"/>
<path d="M 24.99,28.765 V 43 H 26 V 29.96 C 27.6,29.49 28.67,28.98 29,28.78 V 27 C 28.2,27.95 26,28.58 25,28.78 Z M 37,22.42 V 26.05 L 38,25 V 43 H 43 V 20 H 38.2 L 37,22.42 Z" fill="rgb(230, 118, 43)"/>
</svg>
