<?xml version="1.0" encoding="UTF-8"?>
<!-- generated by Finnhub -->
<svg viewBox="0 0 55.5 55.5" xmlns="http://www.w3.org/2000/svg">
<path d="M 0,0 H 55.5 V 55.5 H 0 Z" fill="rgb(239, 242, 248)"/>
<path d="M 41.580000000000005,27.865 C 41.2,27.73 40.84,27.58 40.45,27.49 A 9.79,9.79 0 0,0 37.8,27.08 H 37 V 32 H 39.5 V 29.84 H 40.32 C 40.56,29.84 40.79,29.82 40.99,29.77 L 41.59,27.87 Z M 40.8,25.77 C 41.25,25.87 41.68,26.01 42.1,26.16 L 42.52,24.85 C 42.32,24.63 42.06,24.44 41.78,24.32 A 3.56,3.56 0 0,0 40.21,24 H 37 V 25.77 A 8.57,8.57 0 0,1 40.8,25.77 Z M 45.15,29.38 L 45.84,32 H 46.81 V 29.9 C 46.46,29.82 46.14,29.72 45.79,29.62 L 45.15,29.38 Z M 43.08,24 L 42.37,26.28 C 42.8,26.45 43.23,26.62 43.64,26.81 C 44.54,27.22 45.41,27.64 46.24,27.98 C 46.42,28.05 46.61,28.12 46.81,28.17 V 26.87 L 45.92,24 H 43.08 Z M 41.87,27.98 L 40.64,32 H 43.19 L 44,28.92 L 43.08,28.51 L 41.88,27.98 Z M 51.83,29.58 A 9.74,9.74 0 0,1 47,29.92 V 32 H 52 V 29.58 H 51.83 Z M 49.5,28.78 V 24 H 47 V 28.27 C 47.58,28.47 48.19,28.61 48.79,28.67 C 49.03,28.73 49.26,28.75 49.5,28.77 Z" fill="rgb(40, 183, 204)"/>
<path d="M 13.65,25.625 C 14.02,25.41 14.43,25.29 14.88,25.29 C 15.22,25.29 15.54,25.36 15.82,25.48 C 16.1,25.6 16.36,25.8 16.55,26.03 C 16.77,26.29 16.89,26.61 17,26.98 H 18.33 A 3.8,3.8 0 0,0 17.64,25.32 A 3.13,3.13 0 0,0 16.4,24.32 A 3.6,3.6 0 0,0 11.67,25.98 C 11.57,26.18 11.47,26.38 11.41,26.57 A 4.16,4.16 0 0,0 9.74,24.54 A 3.69,3.69 0 0,0 5.91,24.54 A 3.99,3.99 0 0,0 4,28 A 3.99,3.99 0 0,0 5.9,31.46 A 3.67,3.67 0 0,0 9.73,31.46 A 3.8,3.8 0 0,0 11.4,29.4 A 3.87,3.87 0 0,0 13,31.46 A 3.6,3.6 0 0,0 16.4,31.66 C 16.86,31.46 17.3,31.11 17.63,30.67 C 17.98,30.23 18.19,29.67 18.32,29.01 H 17 A 2.12,2.12 0 0,1 15.82,30.51 A 2.47,2.47 0 0,1 13.66,30.37 A 2.4,2.4 0 0,1 12.78,29.42 A 3.04,3.04 0 0,1 12.46,27.99 C 12.46,27.46 12.56,26.99 12.78,26.58 C 13,26.16 13.28,25.84 13.66,25.63 Z M 10.02,29.39 A 2.45,2.45 0 0,1 7.82,30.71 A 2.43,2.43 0 0,1 5.62,29.39 A 2.76,2.76 0 0,1 5.3,28 A 2.76,2.76 0 0,1 6.56,25.64 A 2.5,2.5 0 0,1 9.11,25.64 A 2.76,2.76 0 0,1 10.36,28 A 3,3 0 0,1 10.02,29.39 Z M 25.95,24 L 23.57,30.7 H 20.3 V 28.57 H 23 V 27.34 H 20.3 V 25.3 H 23.71 V 24 H 19 V 32 H 24.42 L 25,30.3 H 28 L 28.67,32 H 30 L 27.14,24 H 25.95 Z M 25.43,29 L 26.49,26.08 L 26.53,25.88 H 26.55 L 26.58,26.08 L 27.6,29 L 25.43,29 Z M 34.7,24 V 26.22 C 35.13,26.06 35.57,25.94 36,25.82 V 24 H 34.7 Z M 34.7,29.59 L 31.09,24 H 30 V 32 H 31.3 V 26.41 L 34.94,32 H 36 V 27.1 C 35.59,27.13 35.11,27.18 34.7,27.25 V 29.59 Z" fill="rgb(1, 71, 130)"/>
</svg>
