<?xml version="1.0" encoding="UTF-8"?>
<!-- generated by Finnhub -->
<svg viewBox="0 0 55.5 55.5" xmlns="http://www.w3.org/2000/svg">
<path d="M 0,0 H 55.5 V 55.5 H 0 Z" fill="rgb(239, 242, 248)"/>
<path d="M 22.729999999999997,36.995 C 20.96,34.92 19.83,31.84 19.75,28.38 V 27.63 C 19.82,24.16 20.98,21.08 22.74,18.99 C 25.04,16.01 28.41,14.68 32.23,14.68 C 34.58,14.68 36.79,14.84 38.66,16.08 A 15.83,15.83 0 0,0 28.06,12 H 28 A 16,16 0 0,0 27.24,43.99 L 28,44 C 32.1,44 35.84,42.46 38.66,39.92 C 36.79,41.17 34.7,41.22 32.35,41.22 C 28.55,41.24 25.02,40 22.74,37.02 Z" fill="rgb(254, 26, 43)"/>
<path d="M 22.729999999999997,18.974999999999998 C 24.2,17.25 26.1,16.21 28.18,16.21 C 32.84,16.21 36.61,21.49 36.61,28.01 C 36.61,34.54 32.84,39.81 28.18,39.81 C 26.1,39.81 24.21,38.76 22.74,37.04 A 12.06,12.06 0 0,0 32.25,41.91 C 34.59,41.91 36.79,41.2 38.66,39.95 A 16.05,16.05 0 0,0 38.66,16.07 A 11.48,11.48 0 0,0 32.26,14.11 C 28.44,14.11 25.03,16 22.74,18.99 Z" fill="rgb(155, 1, 2)"/>
</svg>
