<?xml version="1.0" encoding="UTF-8"?>
<!-- generated by Finnhub -->
<svg viewBox="0 0 55.5 55.5" xmlns="http://www.w3.org/2000/svg">
<path d="M 0,0 H 55.5 V 55.5 H 0 Z" fill="rgb(239, 242, 248)"/>
<path d="M 27.2,18.305 C 27.19,18.43 25.08,28.21 32.73,31.82 C 32.73,31.82 37.27,31.21 35.69,17.32 C 32.53,6.84 20.11,11.22 17.74,17.32 C 17.74,17.32 16.55,23.47 26.2,30.14 C 21.35,29.21 20.15,29.84 17.6,31.16 L 16.95,31.49 C 13.8,33.09 12,37.33 12,38.74 C 12,40.14 12,43.57 18.53,43.97 C 25.06,44.37 32.14,40.15 33.13,39.14 C 33.63,38.68 34.03,38.14 34.31,37.53 C 39.39,36.53 41.21,35.92 42.79,35.19 C 44.37,34.46 44.77,32.89 44.96,31.49 C 45.16,30.08 44.57,26.99 42.14,26.65 C 39.71,26.33 37.27,27.05 37.07,31.49 C 42.4,30.08 41.81,31.49 41.81,31.49 A 9.9,9.9 0 0,0 37.57,32.65 A 9.48,9.48 0 0,0 34.31,35.52 C 32.34,34.99 30.76,34.11 26.88,30.28 L 26.75,30.25 C 23.21,20.98 27.13,18.38 27.21,18.32 Z" fill="rgb(167, 182, 116)"/>
</svg>
