<?xml version="1.0" encoding="UTF-8"?>
<!-- generated by Finnhub -->
<svg viewBox="0 0 55.5 55.5" xmlns="http://www.w3.org/2000/svg">
<path d="M 0,0 H 55.5 V 55.5 H 0 Z" fill="rgb(239, 242, 248)"/>
<path d="M 4.24,27.455 C 4.98,25.63 7.15,24.29 8.61,23.65 A 42.3,42.3 0 0,1 18.47,20.88 C 22.07,20.28 24,20.2 27.56,20.08 A 70,70 0 0,1 38.81,20.44 C 43.34,20.91 47.03,21.76 50.61,22.84 L 51,24.02 A 73.41,73.41 0 0,0 39.87,22.29 A 68.96,68.96 0 0,0 29.42,22.16 C 22.82,22.48 17.98,23.62 14.43,24.95 C 16.31,25.73 17.58,27.09 17.58,28.65 C 17.58,31.05 14.54,33 10.79,33 S 4,31.05 4,28.64 C 4,28.24 4.09,27.84 4.25,27.47 Z M 7.55,28.5 C 7.55,27.64 9,26.93 10.79,26.93 C 12.59,26.93 14.03,27.63 14.03,28.5 C 14.03,29.37 12.58,30.07 10.79,30.07 C 9,30.07 7.55,29.37 7.55,28.5 Z M 21,30 H 23.28 C 23.6,29.96 23.98,29.57 23.98,29.26 C 23.98,28.96 23.62,28.7 23.29,28.66 H 21 V 30 Z M 22.23,31.44 H 21 V 33 H 19 V 27 H 23.58 C 24.88,27 25.93,28 25.93,29.23 C 25.93,30.19 25.26,30.99 24.36,31.3 L 26,33 H 23.3 L 22.23,31.44 Z M 30,27 H 28 V 33 H 30 V 27 Z M 51,27 H 49 V 30.2 L 45,27 H 43 V 33 H 45 V 29.76 L 49,33 H 51 V 27 Z M 36.5,27 C 34.01,27 32,28.34 32,30 S 34.01,33 36.5,33 C 38.98,33 41,31.66 41,30 S 38.98,27 36.5,27 Z M 36.5,28.89 C 35.37,28.89 34.46,29.39 34.46,30 C 34.46,30.61 35.37,31.11 36.5,31.11 S 38.54,30.61 38.54,30 C 38.54,29.39 37.63,28.89 36.5,28.89 Z" fill="rgb(1, 116, 188)" fill-rule="evenodd"/>
</svg>
