<?xml version="1.0" encoding="UTF-8"?>
<!-- generated by Finnhub -->
<svg viewBox="0 0 55.5 55.5" xmlns="http://www.w3.org/2000/svg">
<path d="M 0,0 H 55.5 V 55.5 H 0 Z" fill="rgb(239, 242, 248)"/>
<path d="M 11.91,34.065 A 13.82,13.82 0 0,0 16.39,30.28 C 16.69,29.88 16.97,29.43 17.27,28.98 L 16.82,26.48 L 16.89,26.45 C 17.04,26.7 17.2,26.95 17.34,27.22 C 17.47,27.49 17.57,27.75 17.7,28.09 L 19.16,24.15 L 18.38,22.03 L 18.18,22.47 C 17.58,23.99 16.98,25.52 16.35,27.04 A 14.31,14.31 0 0,1 14.26,30.56 C 14.16,30.68 14.11,30.91 13.86,30.86 A 16.89,16.89 0 0,0 15.72,26.42 C 16.04,24.94 16.55,23.5 17.23,22.14 C 17.26,22.04 17.29,21.94 17.3,21.84 L 17.31,21.87 L 17.33,21.85 H 17.3 A 12,12 0 0,0 14.67,22.49 L 13.24,25.47 L 13.3,25.55 C 13.97,25.3 14.7,25.22 15.4,25.33 L 12.96,26.35 C 12.67,27.18 12.49,28.05 12.41,28.92 A 13.99,13.99 0 0,1 11.22,33.72 C 11.17,33.85 11.09,33.97 11,34.07 C 11.13,33.5 11.29,32.92 11.37,32.34 C 11.51,31.46 11.6,30.57 11.66,29.68 C 11.74,28.29 11.91,26.9 12.18,25.53 C 12.42,24.18 12.82,22.87 13.38,21.63 A 14.47,14.47 0 0,1 16.98,16.82 A 19.76,19.76 0 0,1 23.55,12.84 A 14.3,14.3 0 0,1 29.63,12.05 C 34.49,12.5 38.3,14.83 41.1,18.84 A 16.05,16.05 0 0,1 43.85,26.02 C 44.45,30.62 43.25,34.74 40.35,38.33 A 15.49,15.49 0 0,1 33.5,43.29 C 32.32,43.72 31.08,43.95 29.83,43.99 C 27.47,44.07 25.15,43.77 22.94,42.88 A 13.44,13.44 0 0,1 16.52,37.59 C 16.42,37.45 16.36,37.31 16.29,37.19 C 17.11,37.82 17.9,38.49 18.76,39.09 A 16,16 0 0,0 25.17,41.74 C 27.05,42.06 28.97,41.98 30.82,41.52 A 15.3,15.3 0 0,0 36.59,38.85 A 12.3,12.3 0 0,0 41.26,31.45 C 41.6,29.77 41.68,28.05 41.49,26.34 A 13.8,13.8 0 0,0 40,21.14 A 12.17,12.17 0 0,0 34.04,15.59 A 14,14 0 0,0 27.22,14.37 C 25.67,14.48 24.2,14.95 22.77,15.56 C 20.68,16.42 18.77,17.66 17.13,19.24 C 16.36,19.98 15.69,20.82 15.13,21.74 A 3.88,3.88 0 0,1 17.5,21.64 L 17.74,21.19 A 12.3,12.3 0 0,1 20,18.12 C 20.28,17.88 20.58,17.66 20.89,17.46 C 21.02,17.38 21.17,17.34 21.32,17.32 C 20.24,18.8 19.16,20.25 18.44,21.92 L 19.49,23.28 L 20.65,19 H 22.55 C 22.55,19.1 22.55,19.23 22.53,19.33 A 33.75,33.75 0 0,1 18.98,28.49 A 14.5,14.5 0 0,1 15.95,32.26 C 14.95,33.16 13.74,33.78 12.43,34.06 L 11.93,34.08 H 11.92 Z" fill="rgb(228, 0, 17)"/>
<path d="M 32.21,27.375 L 31.92,27.74 L 24.92,38.56 C 24.85,38.68 24.77,38.8 24.62,39 L 22.82,28.23 L 22.48,28.7 A 41.05,41.05 0 0,1 19,33.14 A 7.58,7.58 0 0,1 14.78,35.38 A 9,9 0 0,1 12.48,35.53 C 12.54,35.49 12.61,35.45 12.68,35.43 A 8.34,8.34 0 0,0 16.84,32.97 A 15.14,15.14 0 0,0 19.6,28.87 A 47.67,47.67 0 0,0 23.11,19.36 L 23.23,19 H 25.86 C 26.14,22.42 26.37,25.85 26.71,29.3 L 33.13,19 H 35.33 L 34.21,32.5 H 30.9 C 31.01,32.08 31.11,31.53 31.22,31.14 L 32.17,27.7 L 32.21,27.38 C 32.23,27.36 32.25,27.33 32.21,27.37 C 32.23,27.32 32.23,27.35 32.22,27.39 Z M 36.58,38 H 34.2 L 35.75,19 H 37.75 L 38.13,19.02 L 36.58,38 Z" fill="rgb(139, 97, 2)"/>
<path d="M 33.86,36.335 L 33.7,38 H 29.38 C 29.85,36.33 30.3,34.67 30.78,33 H 34.16 L 34.01,34.6 H 32.56 L 32.24,36.35 H 33.86 Z" fill="rgb(139, 97, 2)"/>
</svg>
