<?xml version="1.0" encoding="UTF-8"?>
<!-- generated by Finnhub -->
<svg viewBox="0 0 55.5 55.5" xmlns="http://www.w3.org/2000/svg">
<path d="M 0,0 H 55.5 V 55.5 H 0 Z" fill="rgb(239, 242, 248)"/>
<path d="M 24.49,32.255 A 10,10 0 1,0 6.12,28.57 A 3.4,3.4 0 0,1 9.38,26.02 H 9.62 A 3.44,3.44 0 0,1 13,29.52 C 13,31.45 11.48,33.02 9.62,33.02 H 9.38 C 8.76,33.02 8.18,32.84 7.67,32.53 A 10,10 0 0,0 24,33 H 22.5 V 32.1 C 22.18,32.4 21.36,33 20.56,33 C 19.56,33 18.5,32.18 18.5,30.8 C 18.5,29.44 19.55,28.49 22.5,28.49 C 22.47,28.13 22.24,27.43 21.22,27.43 S 19.27,27.76 19,27.92 V 26.32 C 20.8,25.86 24.5,25.54 24.5,27.92 V 32.27 Z M 22.6,29.67 V 31.02 C 22.46,31.19 22.03,31.52 21.5,31.52 C 20.84,31.52 20.56,31.1 20.56,30.7 C 20.56,30.3 21.1,29.67 22.61,29.67 Z M 14,26 H 16 V 27.02 C 16.65,26.07 17.94,26.02 18.4,26 H 18.5 V 28.15 C 17.07,27.77 16.3,28.24 16,28.65 V 33 H 14 V 26 Z M 8.25,28.78 C 8.25,28.08 8.81,27.5 9.5,27.5 S 10.75,28.07 10.75,28.78 V 30.22 C 10.75,30.92 10.19,31.5 9.5,31.5 S 8.25,30.93 8.25,30.22 V 28.78 Z" fill="rgb(229, 60, 30)"/>
<path d="M 49.99,23.985 H 48 V 26.69 A 2.48,2.48 0 0,0 46.41,26 C 44.94,26 43.63,27.79 43.63,29.58 S 44.4,33 46.09,33 C 46.87,33 47.52,32.59 48,32.12 V 33 H 50 V 24 Z M 48,27.7 V 31.08 C 47.86,31.22 47.44,31.46 46.84,31.5 C 45.86,31.56 45.5,30.53 45.5,29.49 C 45.5,28.45 46.2,27.5 47.1,27.5 C 47.59,27.5 47.9,27.64 48,27.7 Z M 28,26 H 26 V 33 H 28 V 28.24 C 28.22,28 28.58,27.83 28.84,27.83 H 29.07 C 29.61,27.83 30,28.28 30,28.83 V 33 H 32 V 28.69 C 32,28.16 32.52,27.72 33.03,27.72 C 33.55,27.72 34,28.16 34,28.69 V 33 H 36 V 27.83 C 36,27.23 35.58,26 34.2,26 C 33.1,26 32.19,26.77 31.87,27.16 C 31.6,26.77 30.88,26 30.14,26 C 29.16,26 28.48,26.64 28,27.1 V 26 Z M 38.46,30 H 42.95 C 43.15,28.69 42.86,26 39.98,26 C 37.09,26 36.46,28.4 36.5,29.6 C 36.44,30.74 37.12,33 40.31,33 A 5,5 0 0,0 42.78,32.42 V 30.74 A 4.3,4.3 0 0,1 40.31,31.59 C 38.91,31.59 38.46,30.57 38.46,30 Z M 39.78,27.3 C 39.09,27.3 38.54,27.87 38.54,28.57 V 28.68 H 41.02 V 28.57 C 41.02,27.87 40.46,27.31 39.78,27.31 Z" fill="rgb(229, 60, 30)" fill-rule="evenodd"/>
</svg>
