<?xml version="1.0" encoding="UTF-8"?>
<!-- generated by Finnhub -->
<svg viewBox="0 0 55.5 55.5" xmlns="http://www.w3.org/2000/svg">
<path d="M 0,0 H 55.5 V 55.5 H 0 Z" fill="rgb(239, 242, 248)"/>
<path d="M 23.86,11.125 C 23.65,11.24 23.4,11.3 23.18,11.3 C 22.3,11.3 21.73,11.62 22.31,11.79 C 22.45,11.83 22.57,11.9 22.58,11.96 C 22.62,12.16 21.32,12.65 20.71,12.66 C 20.42,12.66 19.57,12.98 19.37,13.17 C 19.26,13.27 19.14,13.3 18.59,13.3 C 17.94,13.3 17.94,13.3 17.37,13.8 L 16.37,14.66 C 15.93,15.02 15.27,15.68 14.92,16.11 C 14.82,16.23 14.6,16.4 14.42,16.48 C 14.02,16.68 13.94,16.81 13.82,17.48 C 13.75,17.82 13.63,18.16 13.5,18.41 A 9.14,9.14 0 0,0 12.78,20.51 C 12.8,20.71 13.36,20.73 13.39,20.54 C 13.41,20.46 13.37,20.44 13.24,20.44 C 13.06,20.44 13.06,20.34 13.25,19.97 C 13.3,19.87 13.34,19.68 13.34,19.54 C 13.34,19.03 13.73,18.24 13.98,18.24 C 14.13,18.24 14.13,18.26 13.98,18.84 C 13.91,19.1 13.84,19.54 13.82,19.82 C 13.72,21.05 13.28,21.94 13.1,21.27 C 13.08,21.2 13.03,21.14 12.98,21.14 C 12.88,21.14 12.86,21.31 12.96,21.36 C 13.07,21.44 13.02,21.72 12.86,21.97 C 12.72,22.18 12.7,22.27 12.71,22.67 C 12.72,23.13 12.72,23.13 12.43,23.44 C 12.27,23.62 12.11,23.87 12.07,24.01 C 11.97,24.39 11.98,26.81 12.1,27.28 C 12.17,27.58 12.17,27.75 12.12,28.05 C 12.05,28.41 12.06,28.47 12.22,28.84 C 12.34,29.13 12.38,29.35 12.38,29.64 C 12.38,29.86 12.44,30.24 12.51,30.5 C 12.61,30.84 12.63,31.05 12.61,31.43 C 12.57,31.91 12.57,31.91 12.83,32.19 C 13.15,32.53 13.17,32.58 13.31,33.42 C 13.57,35.02 13.69,35.37 14.26,36.15 C 14.45,36.4 14.84,36.95 15.13,37.38 C 16.23,38.96 17.52,40.41 18.23,40.85 C 18.33,40.92 18.69,41.23 19.03,41.55 C 19.35,41.87 19.85,42.32 20.12,42.54 C 22.34,44.38 24.4,45 27.26,45 C 27.36,45 27.59,44.92 27.76,44.84 C 28.18,44.62 29.46,44.66 29.95,44.91 C 30.26,45.07 30.59,45.02 31.1,44.76 C 32.59,43.99 35.25,43.49 36.93,43.33 C 37.28,43.3 39.57,42.9 39.58,42.79 A 9.69,9.69 0 0,0 39.48,41.04 C 39.09,39.37 39.44,38.87 40.77,39.17 C 41.52,39.34 42.33,39.35 43.07,39.6 C 43.69,39.8 43.7,39.8 43.67,38.48 A 5.3,5.3 0 0,0 43.5,36.9 C 43.1,35.47 43.52,35.25 45.47,35.88 C 46.56,36.23 46.71,36.14 46.37,35.38 C 45.77,34.01 45.55,32.47 44.84,31.12 C 44.35,30.22 44.34,30.24 45.92,29.82 C 46.72,29.62 46.92,29.52 47.36,29.22 C 48.16,28.64 48.19,28.48 47.57,28.06 A 10.6,10.6 0 0,1 46.37,26.99 A 19.25,19.25 0 0,0 43.52,24.58 C 43.41,24.51 43.3,24.38 43.29,24.31 A 17.07,17.07 0 0,1 44.58,21.1 C 44.67,20.91 44.91,20.57 45.12,20.34 C 45.69,19.73 45.59,19 44.98,19.32 A 9.2,9.2 0 0,1 42.42,19.28 A 16.9,16.9 0 0,0 40.82,19.21 C 39.28,19.21 39.09,19.06 39.16,17.88 C 39.26,15.97 39.32,15.04 39.36,14.76 C 39.44,14.14 39,14.13 38.36,14.73 C 38.17,14.92 37.81,15.18 37.56,15.32 C 37.32,15.46 36.93,15.71 36.7,15.87 C 35.63,16.65 36.06,16.9 32.74,13.59 C 30.1,10.97 30.1,10.97 29.81,11.01 C 29.49,11.05 25.37,11.06 24.67,11.01 C 24.3,10.99 24.17,11.01 23.87,11.14 Z M 29.03,11.62 C 29.2,11.88 28.73,12.12 28.4,11.94 C 28.23,11.85 28.24,11.54 28.4,11.36 C 28.56,11.21 28.84,11.33 29.03,11.62 Z M 27.41,11.82 C 27.76,11.97 27.8,12.16 27.48,12.19 C 27.06,12.24 27.01,12.53 27.37,12.89 C 27.84,13.34 28.37,13.78 28.32,13.66 L 28.24,13.46 C 28.19,13.33 28.36,13.33 28.49,13.46 C 28.54,13.5 28.59,13.66 28.62,13.81 C 28.65,13.96 28.72,14.16 28.78,14.25 C 29.12,14.75 28.98,14.9 28.22,14.9 C 27.58,14.9 27.42,14.96 27.59,15.14 C 27.74,15.31 27.73,15.34 27.51,15.45 C 27.27,15.57 27.29,15.67 27.57,15.77 C 27.68,15.81 27.87,15.95 27.99,16.09 C 28.19,16.35 28.19,16.35 28.74,16.27 C 29.34,16.17 29.58,16.22 29.65,16.45 C 29.75,16.75 30.25,16.92 30.48,16.74 C 30.73,16.55 30.82,16.62 31.08,17.16 C 31.48,17.96 31.33,18.43 30.82,17.96 C 30.72,17.86 30.62,17.79 30.61,17.81 C 30.52,17.89 30.32,18.79 30.32,19.08 C 30.32,19.43 30.25,19.52 30.1,19.37 C 30,19.27 29.97,19.17 29.92,18.86 C 29.91,18.76 29.86,18.73 29.68,18.75 C 29.48,18.76 29.39,18.72 29.13,18.51 A 1.97,1.97 0 0,0 27.99,18.05 C 27.89,18.05 27.69,17.98 27.54,17.89 C 27.15,17.65 26.59,17.66 26.27,17.92 C 25.99,18.14 25.83,18.16 25.35,18.02 C 24.8,17.85 24.23,18.03 24.18,18.39 C 24.16,18.54 24.13,18.56 23.49,18.79 L 22.65,19.13 C 22.42,19.23 22.22,19.28 22.13,19.25 C 21.89,19.19 21.53,19.33 21.31,19.57 C 21.02,19.88 20.61,20.17 20.37,20.22 C 20.13,20.26 19.92,20.47 19.59,20.97 C 19.29,21.42 19.31,21.48 19.66,21.24 C 20.09,20.94 20.23,21.19 19.83,21.56 C 19.55,21.81 19.45,21.99 19.41,22.31 C 19.38,22.58 19.34,22.66 19.22,22.72 C 18.81,22.93 18.86,23.17 19.34,23.22 C 19.71,23.27 19.78,23.3 20.02,23.6 C 20.1,23.7 21.02,23.8 21.29,23.74 C 21.49,23.69 21.64,23.8 21.64,23.99 C 21.64,24.3 21.82,24.44 22.16,24.39 C 22.4,24.36 22.5,24.37 22.57,24.45 C 22.67,24.55 23.07,24.53 23.22,24.41 C 23.34,24.31 23.49,24.4 23.49,24.56 C 23.49,24.77 23.37,24.86 23.14,24.86 C 23.02,24.86 22.84,24.9 22.74,24.94 A 0.55,0.55 0 0,1 22.34,24.94 C 22.06,24.84 21.63,25.08 21.54,25.38 C 21.46,25.68 21.6,25.77 22.23,25.77 C 22.6,25.77 22.78,25.8 22.96,25.9 C 23.09,25.97 23.28,26.03 23.36,26.03 C 23.46,26.03 23.64,26.07 23.76,26.13 C 24.35,26.37 24.75,26.08 24.36,25.7 C 24.16,25.52 24.15,25.4 24.34,25.35 C 24.69,25.25 24.77,25.18 24.77,24.92 S 24.94,24.62 25.74,24.67 C 25.9,24.68 26.07,24.57 26.21,24.32 C 26.26,24.22 26.3,24.22 26.5,24.28 C 27.18,24.51 28.13,23.98 28.25,23.29 C 28.27,23.15 28.39,22.87 28.51,22.67 C 28.83,22.13 28.75,21.11 28.34,20.72 C 28.14,20.52 28.09,20.26 28.25,20.2 C 28.52,20.09 29.8,20.9 30.15,21.4 C 30.45,21.82 30.71,21.8 30.72,21.35 C 30.72,21.04 30.77,20.88 30.86,20.88 C 31.01,20.88 31.04,21.01 30.96,21.28 C 30.82,21.69 31.2,22.05 31.45,21.73 C 31.79,21.29 31.77,21.12 31.31,20.85 C 30.89,20.6 30.91,19.88 31.33,20.11 C 31.51,20.21 31.53,20.19 31.53,20.05 C 31.53,19.83 31.61,19.73 31.76,19.73 C 32.05,19.73 32.11,19.87 32.11,20.56 C 32.11,21.18 32.11,21.2 32.31,21.43 C 32.55,21.71 32.61,22.1 32.47,22.51 C 32.35,22.87 32.39,23.06 32.6,23.11 C 33,23.21 33.05,23.72 32.71,24.23 C 32.51,24.53 32.5,24.58 32.58,24.67 C 32.64,24.73 32.68,24.86 32.68,24.95 C 32.68,25.25 32.74,25.32 32.99,25.32 C 33.45,25.32 33.74,25.7 33.62,26.16 C 33.56,26.36 33.57,26.44 33.67,26.63 C 33.88,27.03 33.49,27.34 33.19,27.02 C 32.65,26.44 31.47,26.46 30.93,27.06 C 30.58,27.46 30.61,27.5 31.23,27.46 C 31.77,27.42 31.94,27.55 31.48,27.64 C 31.04,27.73 30.94,28.34 31.22,29.15 C 31.32,29.45 31.34,29.62 31.32,29.98 C 31.28,30.39 31.29,30.46 31.47,30.85 C 31.9,31.73 31.77,32.22 31.07,32.52 L 30.39,32.82 C 30.02,32.99 29.79,32.98 29.94,32.8 C 30.04,32.69 30.87,32.26 31,32.26 C 31.15,32.26 31.18,32.06 31.05,31.96 C 30.48,31.54 29.18,32.32 28.63,33.42 C 28.43,33.82 28.33,33.92 28.04,33.97 C 27.64,34.05 27.6,34.32 27.98,34.32 C 28.28,34.32 28.5,34.49 28.39,34.62 C 28.13,34.94 27.55,34.95 27.09,34.66 A 1.25,1.25 0 0,0 26.47,34.46 C 26.07,34.43 25.95,34.25 26.27,34.13 C 26.53,34.03 26.65,34.05 26.9,34.26 C 27.27,34.55 27.48,34.44 27.22,34.1 C 27.02,33.84 27.24,33.5 27.78,33.22 A 0.89,0.89 0 0,0 28.28,32.53 C 28.3,32.34 28.35,32.28 28.51,32.23 C 28.61,32.2 28.78,32.12 28.87,32.05 C 28.97,31.99 29.16,31.95 29.32,31.95 C 29.67,31.95 29.71,31.9 29.55,31.7 A 0.59,0.59 0 0,1 29.43,31.46 A 0.56,0.56 0 0,0 29.31,31.23 C 29.13,30.99 29.06,30.45 29.11,29.75 C 29.13,29.49 29.11,29.42 28.93,29.21 C 28.8,29.06 28.73,28.91 28.73,28.83 C 28.77,28.58 28.94,28.66 29.19,29.05 C 29.32,29.27 29.46,29.42 29.49,29.4 C 29.59,29.35 29.39,29.02 28.81,28.24 C 28.33,27.6 28.33,27.6 28.37,27.23 C 28.41,26.77 28.22,26.49 27.91,26.57 C 27.5,26.67 27.43,26.65 27.36,26.4 C 27.3,26.13 26.87,25.7 26.66,25.7 C 26.46,25.7 26.17,25.9 26.14,26.04 C 25.92,27.18 26.24,27.73 26.87,27.26 C 27.12,27.08 27.15,27.08 27.35,27.34 C 27.45,27.47 27.67,27.67 27.86,27.79 C 28.26,28.05 28.36,28.19 28.47,28.59 C 28.63,29.21 28.54,29.36 28.27,28.95 A 0.86,0.86 0 0,0 27.89,28.63 C 27.7,28.57 27.67,28.53 27.66,28.35 C 27.66,28.22 27.61,28.11 27.53,28.05 A 0.74,0.74 0 0,1 27.32,27.73 C 27.22,27.44 27.04,27.44 27.02,27.73 A 4,4 0 0,0 27.43,29.23 C 27.51,29.29 27.64,29.3 27.84,29.28 C 28.19,29.23 28.36,29.35 28.3,29.59 C 28.27,29.71 28.34,29.82 28.6,30.11 C 28.9,30.45 28.93,30.5 28.9,30.71 A 3.2,3.2 0 0,0 28.85,31.12 C 28.85,31.27 28.82,31.3 28.69,31.3 C 28.49,31.3 28.43,31.17 28.56,30.93 C 28.69,30.67 28.59,30.52 28.4,30.69 C 28.14,30.93 28.07,31.16 28.11,31.61 C 28.16,32.07 28.2,32.04 27.73,31.89 C 27.27,31.75 26.96,32.09 27.03,32.66 C 27.08,33.03 27.01,33.15 26.58,33.46 C 26.18,33.76 26.04,33.75 26.04,33.44 C 26.04,33.32 26.01,33.1 25.97,32.95 C 25.88,32.67 25.85,32.72 26.35,32.31 C 26.43,32.25 26.49,32.14 26.49,32.07 C 26.49,32 26.59,31.79 26.71,31.61 C 26.98,31.22 26.98,31.19 26.77,30.97 C 26.55,30.74 26.6,30.61 26.97,30.52 C 27.22,30.45 27.25,30.42 27.21,30.29 C 27.19,30.21 27.21,30.09 27.25,30.05 C 27.39,29.88 27.31,29.28 27.15,29.25 C 27.02,29.24 27,29.26 27,29.43 C 27,29.63 27,29.63 26.66,29.59 C 26.07,29.52 25.59,30.09 26.01,30.37 C 26.1,30.43 26.17,30.51 26.17,30.55 C 26.17,30.63 25.67,31.17 25.6,31.17 C 25.49,31.17 25.4,30.99 25.4,30.75 C 25.4,30.47 25.16,29.93 25.01,29.9 C 24.75,29.85 24.06,30.69 24.11,31 C 24.17,31.5 23.77,31.65 23.02,31.39 C 22.77,31.3 22.65,31.29 22.33,31.35 C 21.83,31.45 21.46,31.25 21.2,30.74 C 21.05,30.45 20.8,30.59 20.8,30.95 C 20.8,31.15 20.67,31.15 20.41,30.92 C 20.3,30.82 20.14,30.72 20.06,30.69 C 19.66,30.57 19.59,30.15 19.93,29.95 C 20.25,29.76 20.3,29.7 20.3,29.5 C 20.3,29.23 20.24,29.12 20.03,29.01 C 19.8,28.89 19.8,28.81 20.04,28.61 C 20.24,28.43 20.43,27.78 20.34,27.54 C 20.17,27.1 19.21,27.13 19.21,27.58 C 19.21,27.66 19.13,27.91 19.03,28.14 C 18.71,28.87 18.57,29.44 18.63,29.68 C 18.73,29.98 19.19,30.84 19.41,31.08 C 19.53,31.23 19.6,31.38 19.6,31.5 C 19.6,31.8 19.77,32.11 20.05,32.33 C 20.34,32.56 20.35,32.67 20.14,32.82 C 20,32.91 19.98,32.96 20.02,33.14 C 20.06,33.39 19.91,33.45 19.79,33.23 A 0.7,0.7 0 0,0 19.53,33 C 19.23,32.84 19.18,32.69 19.38,32.43 C 19.47,32.3 19.52,32.17 19.5,32.13 C 19.4,31.98 19.07,31.87 18.83,31.91 C 18.52,31.96 18.46,31.87 18.65,31.61 C 18.82,31.39 18.69,31.21 18.31,31.13 C 18.21,31.11 18.13,31.05 18.13,31.01 C 18.13,30.87 18.3,30.78 18.47,30.81 C 18.87,30.92 18.75,30.73 17.91,29.98 A 1.4,1.4 0 0,1 17.61,29.68 C 17.61,29.54 17.94,29.21 18.21,29.08 C 18.54,28.9 18.6,28.73 18.41,28.41 C 18.29,28.18 18.3,27.99 18.45,27.75 A 0.88,0.88 0 0,0 18.57,27.41 C 18.57,26.81 18.83,26.54 19.36,26.54 C 19.67,26.54 19.8,26.51 19.98,26.39 C 20.1,26.31 20.26,26.22 20.34,26.19 C 20.42,26.17 20.54,26.05 20.61,25.94 C 20.68,25.81 20.81,25.7 20.91,25.68 C 21.51,25.52 21.3,24.87 20.64,24.87 C 20.35,24.87 20.17,25.02 20.17,25.27 C 20.17,25.57 19.42,25.4 19.28,25.07 C 19.15,24.77 18.96,24.79 18.96,25.1 C 18.96,25.31 18.89,25.4 18.43,25.9 C 18.1,26.23 17.8,26.62 17.65,26.9 C 17.21,27.73 16.96,27.68 16.99,26.77 C 17,26.47 17.04,26.26 17.07,26.27 C 17.11,26.28 17.13,26.39 17.12,26.51 C 17.11,26.81 17.24,26.81 17.42,26.51 C 17.56,26.29 17.56,26.21 17.46,25.86 C 17.43,25.76 17.46,25.69 17.52,25.63 C 17.99,25.25 18.02,25.21 17.97,24.83 C 17.94,24.55 17.95,24.48 18.02,24.45 C 18.28,24.35 18.27,23.98 18,23.55 C 17.89,23.36 17.95,23.2 18.12,23.25 C 18.22,23.27 18.24,23.25 18.22,23.15 C 18.19,23.06 18.26,22.88 18.41,22.64 C 18.67,22.2 18.69,22.07 18.51,21.87 C 18.29,21.64 18.85,20.75 19.21,20.75 C 19.33,20.75 19.83,20.26 20.06,19.93 C 20.15,19.78 20.3,19.67 20.49,19.6 C 20.77,19.5 20.79,19.48 20.93,19.03 C 21.11,18.5 21.07,18.35 20.78,18.53 C 20.62,18.64 20.6,18.64 20.3,18.51 A 1.72,1.72 0 0,0 19.75,18.37 C 19.28,18.37 18.89,17.98 19.28,17.9 C 19.66,17.83 19.88,17.86 20.13,18.03 C 20.5,18.28 20.86,18.3 21.16,18.1 C 21.4,17.93 21.4,17.93 21.71,18.1 C 22.25,18.38 22.72,18.15 22.72,17.6 C 22.72,17.35 22.72,17.35 23,17.35 C 23.18,17.35 23.31,17.31 23.37,17.25 C 23.44,17.15 23.42,17.15 23.2,17.16 C 22.86,17.19 22.81,16.9 23.14,16.83 C 23.64,16.73 23.74,16.48 23.41,16.23 C 23.19,16.07 22.44,16.39 21.85,16.91 C 21.55,17.16 21.25,17.3 20.31,17.58 C 20.14,17.63 20.28,17.83 20.52,17.87 C 20.66,17.9 20.7,18.06 20.58,18.1 C 20.22,18.22 19.88,17.55 20.15,17.27 C 20.4,17.01 20.3,16.87 19.89,16.87 C 19.49,16.86 19.43,16.75 19.65,16.47 C 19.78,16.3 19.85,16.27 19.99,16.3 C 20.31,16.36 20.21,15.66 19.74,14.5 C 19.51,13.9 19.61,13.82 20.19,14.13 C 20.59,14.35 20.74,14.37 20.74,14.23 C 20.74,14.17 20.62,14.07 20.46,14 C 20.19,13.88 20.06,13.68 20.25,13.68 C 20.55,13.7 21.03,14.05 21.03,14.24 C 21.03,14.62 21.88,15.29 22.73,15.58 C 22.98,15.67 23.3,15.81 23.43,15.9 C 23.68,16.08 24.65,15.95 24.89,15.71 C 25.02,15.58 24.89,15.58 24.3,15.71 C 23.82,15.81 23.64,15.77 23.26,15.53 C 23.12,15.43 22.88,15.33 22.72,15.29 C 22.39,15.2 21.89,14.91 21.89,14.79 C 21.89,14.64 22.11,14.65 22.34,14.81 C 22.61,15 22.94,15.11 23.09,15.05 L 23.29,14.99 C 23.47,14.94 23.17,14.71 22.91,14.71 C 22.54,14.71 21.85,14.13 22.11,14.03 C 22.21,13.99 23.81,14.81 23.91,14.95 C 24.21,15.45 24.56,15.55 24.85,15.22 C 25.05,14.99 25.22,15 25.55,15.23 C 25.71,15.35 25.78,15.36 26.22,15.31 C 26.82,15.24 26.86,15.14 26.28,15.09 C 25.83,15.05 25.6,14.92 25.6,14.71 C 25.6,14.45 25.87,13.75 26.1,13.41 C 26.25,13.19 26.37,12.92 26.4,12.76 C 26.46,12.32 26.49,12.26 26.65,12.26 C 26.85,12.26 26.85,12.16 26.68,12.07 C 26.58,12.02 26.51,12.03 26.34,12.17 C 26.14,12.32 25.98,12.37 25.98,12.29 C 25.98,12.07 26.72,11.6 26.98,11.66 C 27.05,11.67 27.25,11.74 27.41,11.82 Z M 25.52,11.86 C 25.8,12 25.9,12.23 25.82,12.56 C 25.73,12.91 25.55,12.94 25.52,12.61 C 25.49,12.21 25.28,12.24 24.83,12.71 C 24.55,13.01 24.41,13.11 24.22,13.14 C 24.08,13.16 23.73,13.25 23.45,13.34 C 22.99,13.48 22.89,13.49 22.6,13.43 C 22.42,13.39 22.1,13.36 21.89,13.36 C 20.92,13.36 21.04,12.98 22.09,12.69 C 22.57,12.56 22.7,12.61 22.42,12.82 C 22.25,12.94 22.44,13.11 22.81,13.15 C 23.26,13.2 23.43,13.13 23.41,12.93 C 23.39,12.75 23.54,12.66 24.01,12.56 C 24.23,12.51 24.25,12.36 24.05,12.31 C 23.97,12.29 23.92,12.26 23.94,12.24 C 24.51,11.69 24.95,11.58 25.52,11.86 Z M 31.79,14.76 C 32.19,15.74 32.46,16.22 32.81,16.6 C 33.12,16.94 33.68,17.68 34.04,18.23 C 34.4,18.79 33.72,19.07 32.68,18.79 C 32.17,18.66 32.04,18.39 31.63,16.7 A 7.1,7.1 0 0,0 31.3,15.7 C 31.05,15.15 31,14.39 31.22,14.24 C 31.44,14.08 31.56,14.19 31.79,14.76 Z M 32.63,14.69 C 33.16,15.05 33.24,15.14 33.11,15.19 C 32.86,15.29 32.04,14.74 32.04,14.48 C 32.04,14.33 32.17,14.38 32.64,14.69 Z M 18,15 C 18.07,15.53 17.56,16.45 17.25,16.35 C 17.06,16.29 17.08,16.23 17.41,15.8 C 17.69,15.44 17.71,15.4 17.63,15.26 C 17.55,15.12 17.56,15.08 17.66,14.96 C 17.8,14.81 17.97,14.82 18,15 Z M 29.91,15.58 C 29.91,15.66 29.85,15.71 29.71,15.74 A 0.84,0.84 0 0,0 29.41,15.87 C 29.26,15.99 29.15,15.86 29.24,15.68 C 29.4,15.38 29.91,15.3 29.91,15.58 Z M 16.22,15.81 C 16.22,15.93 15.94,16.38 15.86,16.38 C 15.74,16.38 15.76,16.18 15.9,15.95 C 16.02,15.75 16.22,15.66 16.22,15.81 Z M 25.32,16.44 C 25.08,16.71 25.44,17.14 25.78,17.02 C 25.99,16.94 26.03,16.78 25.89,16.53 C 25.76,16.28 25.5,16.23 25.32,16.44 Z M 15.57,16.54 C 15.59,16.61 15.67,16.75 15.74,16.86 C 16.4,17.74 15.96,18.5 15.01,18.12 A 7.3,7.3 0 0,0 14.45,17.92 C 14.08,17.81 14.15,17.59 14.79,16.94 C 15.33,16.37 15.52,16.27 15.57,16.54 Z M 17.48,17.04 C 17.45,17.13 17.16,17.18 17.01,17.13 C 16.84,17.06 16.99,16.96 17.25,16.96 C 17.43,16.96 17.5,16.99 17.48,17.04 Z M 37.99,17.59 C 37.99,17.83 38.04,18.14 38.09,18.28 C 38.23,18.69 38.21,18.85 37.99,18.93 C 37.79,19.01 37.79,19.01 37.79,19.81 C 37.79,20.93 37.83,20.92 36.46,20.36 C 35.56,19.99 35.49,19.95 35.51,19.78 C 35.55,19.55 37.74,17.15 37.91,17.15 C 37.97,17.15 37.99,17.27 37.99,17.59 Z M 17.6,17.53 C 18.11,17.85 17.92,18.26 17.36,18.07 A 3.59,3.59 0 0,0 16.77,17.91 C 16.47,17.88 16.51,17.75 16.84,17.58 C 17.21,17.38 17.34,17.38 17.6,17.53 Z M 18.57,18.33 C 18.73,18.46 18.64,18.68 18.17,19.31 C 17.9,19.66 17.55,20.15 17.39,20.4 C 16.87,21.2 16.84,21.2 16.53,20.62 A 1.3,1.3 0 0,0 16.28,20.24 C 16.15,20.24 16.18,20.38 16.38,20.69 C 16.65,21.11 16.66,21.17 16.43,21.11 A 2.5,2.5 0 0,0 15.97,21.05 C 15.35,21.03 15.29,20.17 15.91,20.07 C 16.34,20 16.36,19.8 15.98,19.04 C 15.64,18.36 15.73,18.18 16.37,18.27 C 17.15,18.39 17.79,18.39 17.87,18.28 C 17.97,18.17 18.41,18.19 18.57,18.33 Z M 26.21,18.71 C 26.31,18.85 26.31,18.85 26.46,18.71 C 26.79,18.4 27.36,18.69 27.08,19.02 C 26.81,19.37 25.67,19.24 25.67,18.87 C 25.67,18.57 26.03,18.45 26.21,18.71 Z M 24.31,19.03 L 24.21,19.63 C 24.17,19.96 24.14,20.03 23.94,20.17 C 23.26,20.69 23.08,21.02 22.82,22.21 C 22.79,22.31 22.9,22.47 23.27,22.87 C 23.54,23.16 23.75,23.42 23.75,23.46 C 23.75,23.54 24.1,23.71 24.25,23.71 C 24.78,23.71 24.47,24.14 23.91,24.17 C 23.53,24.19 23.53,24.19 23.51,23.86 C 23.49,23.5 23.38,23.4 23.11,23.49 C 23.01,23.52 22.9,23.45 22.57,23.09 C 22.13,22.59 21.63,22.29 21.5,22.42 C 21.4,22.52 21.52,22.71 21.7,22.74 C 21.86,22.76 21.87,22.82 21.77,23.01 C 21.69,23.17 21.57,23.17 21.42,23.01 A 0.44,0.44 0 0,0 21.14,22.87 C 20.94,22.87 20.86,22.82 20.8,22.67 A 0.18,0.18 0 0,0 20.65,22.55 C 20.53,22.55 19.99,22.08 19.99,21.98 C 19.99,21.82 20.19,21.76 20.41,21.87 C 20.68,22 20.86,21.93 20.92,21.68 C 20.96,21.54 20.99,21.53 21.16,21.56 C 21.48,21.62 21.71,21.4 21.71,21.05 C 21.71,20.8 21.73,20.76 21.89,20.73 C 23.09,20.44 23.73,20.05 23.44,19.77 C 23.17,19.52 23.2,19.37 23.53,19.37 C 23.71,19.37 23.79,19.34 23.84,19.24 C 24.04,18.88 24.09,18.82 24.21,18.82 S 24.34,18.85 24.31,19.03 Z M 28.45,19.08 C 28.79,19.23 28.82,19.39 28.56,19.59 C 28.3,19.8 27.96,19.75 27.9,19.5 A 1.5,1.5 0 0,0 27.78,19.16 C 27.62,18.86 27.88,18.82 28.45,19.08 Z M 29.29,19.53 C 29.54,19.68 29.56,19.83 29.35,19.89 C 29.09,19.95 28.75,19.69 28.82,19.5 C 28.87,19.37 29.04,19.38 29.29,19.53 Z M 15.08,19.66 C 15.16,19.71 15.2,19.8 15.2,19.92 C 15.2,20.18 15.1,20.21 14.97,19.98 C 14.87,19.83 14.82,19.79 14.71,19.82 C 14.59,19.85 14.56,19.82 14.56,19.72 C 14.56,19.58 14.86,19.54 15.08,19.66 Z M 42.49,20.05 C 42.49,20.28 41.49,20.39 41.45,20.15 C 41.43,20.07 41.47,20.05 41.64,20.05 C 41.76,20.04 41.91,20.01 41.98,19.98 C 42.18,19.89 42.49,19.93 42.49,20.05 Z M 14.74,20.3 C 14.94,20.7 14.84,21.03 14.44,21.53 C 13.64,22.48 13.43,22.46 13.91,21.48 C 14.09,21.13 14.28,20.68 14.34,20.48 C 14.46,20.07 14.59,20.01 14.74,20.3 Z M 18.58,20.54 C 18.58,20.61 18.44,20.77 17.97,21.21 C 17.77,21.4 17.57,21.67 17.42,21.98 C 17.07,22.68 16.93,22.8 16.63,22.65 C 16.31,22.47 16.31,22.45 16.57,22.17 C 16.74,21.99 16.81,21.87 16.83,21.68 A 0.5,0.5 0 0,1 17.03,21.28 C 17.4,20.98 17.53,20.84 17.63,20.65 C 17.74,20.45 18.58,20.35 18.58,20.54 Z M 34.71,20.78 C 34.89,20.94 34.89,20.94 34.66,21.14 C 34.42,21.34 34.29,21.68 34.4,21.79 C 34.44,21.83 34.56,21.74 34.73,21.53 C 35.06,21.13 35.16,21.08 35.43,21.15 C 35.73,21.23 35.68,21.36 35.25,21.6 C 34.65,21.91 34.69,21.98 35.59,22.16 C 36.63,22.38 37.34,22.84 38.45,24.06 C 39.51,25.21 39.69,25.56 39.81,26.68 C 39.84,26.94 39.89,27.09 40.01,27.21 C 40.18,27.41 40.21,27.64 40.07,27.76 C 40.02,27.8 39.97,28.01 39.95,28.23 A 6.23,6.23 0 0,1 39.71,29.82 C 39.66,29.91 39.61,30.12 39.58,30.3 C 39.51,30.8 39.38,31.14 39.04,31.68 C 38.84,32 38.71,32.3 38.35,33.3 A 6.44,6.44 0 0,1 36.05,36.24 C 35.25,36.67 34.85,36.96 34.37,37.45 C 34.08,37.75 33.87,37.92 33.77,37.92 C 33.7,37.92 33.43,38.02 33.18,38.15 C 32.94,38.27 32.67,38.37 32.6,38.37 A 0.79,0.79 0 0,0 32.25,38.53 C 31.75,38.91 31.84,38.46 32.5,37.37 C 32.78,36.9 33.01,36.47 33.01,36.41 C 33.01,36.23 32.21,35.37 31.97,35.3 L 31.07,35.02 C 30.37,34.81 30.37,34.81 30.27,34.95 C 30,35.28 29.05,35.35 29.05,35.03 C 29.05,34.96 29.14,34.89 29.32,34.83 C 29.65,34.74 29.52,34.58 29.11,34.58 C 28.48,34.58 28.37,34.08 28.94,33.8 A 7.26,7.26 0 0,1 31.57,33 C 32.25,32.93 32.36,32.77 32.15,32.1 A 6.7,6.7 0 0,1 31.99,31.06 A 4.45,4.45 0 0,0 31.78,29.93 A 4.69,4.69 0 0,1 31.58,29.23 A 2.52,2.52 0 0,0 31.38,28.65 C 31.05,28 31.35,27.85 33.04,27.79 C 34.28,27.75 34.62,27.58 34.39,27.1 A 2.5,2.5 0 0,1 34.23,26.5 C 34.2,26.29 34.12,26.01 34.05,25.89 C 33.96,25.72 33.93,25.49 33.9,24.84 C 33.88,24.1 33.86,23.98 33.73,23.79 A 1.62,1.62 0 0,1 33.53,23.23 A 1.38,1.38 0 0,0 33.23,22.58 C 32.86,22.08 32.94,21.74 33.42,21.8 C 33.76,21.85 33.79,21.8 33.53,21.61 C 33.36,21.48 33.17,21.05 33.24,20.94 C 33.26,20.91 33.48,20.9 33.73,20.92 C 34.18,20.97 34.18,20.97 34.13,20.8 C 34.08,20.56 34.45,20.55 34.71,20.78 Z M 41.87,20.72 C 42.41,20.73 42.87,20.76 42.9,20.79 C 43.62,21.58 42.1,23.8 41.3,23.13 C 41.07,22.95 41,22.79 40.9,22.29 C 40.88,22.19 40.68,21.89 40.45,21.61 C 39.8,20.83 39.81,20.57 40.51,20.66 C 40.72,20.69 41.33,20.72 41.87,20.72 Z M 16.64,21.54 C 16.69,21.69 16.43,22.16 16.27,22.21 C 16.1,22.26 16,22.15 16.12,22.04 C 16.29,21.9 16.25,21.65 16.06,21.65 C 15.86,21.65 15.86,21.6 16.06,21.38 C 16.25,21.18 16.56,21.27 16.64,21.54 Z M 18.39,22.16 C 18.39,22.35 17.97,22.79 17.89,22.71 C 17.78,22.61 17.85,22.41 18.08,22.17 C 18.27,21.97 18.39,21.96 18.39,22.17 Z M 29.79,22.23 C 29.71,22.33 29.62,22.48 29.59,22.55 C 29.58,22.61 29.41,22.75 29.22,22.84 C 28.41,23.24 28.36,23.5 29.11,23.54 C 29.59,23.55 29.6,23.55 29.61,23.73 C 29.66,24.08 29.08,24.28 28.82,24 C 28.54,23.7 28.08,23.9 27.99,24.37 C 27.93,24.64 27.93,24.64 27.5,24.68 C 26.94,24.73 26.73,24.9 26.89,25.18 C 27.1,25.57 27.53,25.54 27.75,25.13 C 27.85,24.93 27.99,24.88 28.06,24.99 C 28.16,25.16 28.48,25.13 28.9,24.91 C 29.13,24.78 29.38,24.68 29.44,24.68 C 29.92,24.68 30.19,24.54 30.3,24.25 C 30.38,24.05 30.55,23.85 30.87,23.55 C 31.14,23.31 31.36,23.06 31.38,22.96 C 31.4,22.86 31.49,22.7 31.58,22.6 C 31.77,22.38 31.7,22.19 31.38,22.07 C 31.13,21.98 31.01,22.1 30.96,22.46 C 30.93,22.79 30.79,22.94 30.53,22.94 C 30.26,22.94 30.17,23.04 30.17,23.34 C 30.17,23.54 30.14,23.62 30.06,23.64 C 29.98,23.64 29.95,23.62 29.95,23.54 C 29.95,23.47 29.89,23.31 29.82,23.17 C 29.67,22.9 29.68,22.87 29.97,22.78 C 30.22,22.7 30.36,22.44 30.27,22.21 C 30.18,21.98 30,21.99 29.8,22.23 Z M 16.09,22.43 C 16.07,22.47 16.03,22.5 15.99,22.5 C 15.97,22.5 15.93,22.47 15.92,22.43 C 15.9,22.39 15.94,22.36 16,22.36 C 16.06,22.36 16.1,22.39 16.08,22.43 Z M 38.4,22.55 C 38.7,22.58 38.72,22.6 38.72,22.78 C 38.72,23.03 38.48,23.08 38.12,22.87 C 37.79,22.68 37.67,22.33 37.98,22.47 C 38.04,22.49 38.23,22.53 38.4,22.55 Z M 14.8,22.63 C 14.92,22.75 14.9,22.8 14.7,22.91 C 14.3,23.11 13.98,22.97 14.26,22.71 C 14.46,22.54 14.68,22.51 14.81,22.63 Z M 16.32,22.81 C 16.34,22.84 16.31,22.96 16.26,23.07 C 16.2,23.17 16.14,23.49 16.13,23.76 C 16.11,24.03 16.06,24.4 16.03,24.57 A 4,4 0 0,0 15.99,25.58 C 16.05,26.48 15.84,27.18 15.51,27.18 C 15.4,27.18 14.68,26.37 14.41,25.93 A 3.87,3.87 0 0,0 13.75,25.19 C 13.15,24.7 13.09,24.4 13.55,24.26 C 13.7,24.21 13.71,24.03 13.55,24.03 C 13.37,24.03 13.12,24.35 12.97,24.76 C 12.8,25.21 12.69,25.26 12.47,25.04 C 12.32,24.89 12.31,24.86 12.39,24.72 C 12.46,24.58 12.45,24.53 12.36,24.37 C 12.19,24.09 12.31,23.96 12.68,24.01 C 12.99,24.05 13.21,23.86 13.09,23.64 C 12.99,23.46 13.02,23.4 13.22,23.3 C 13.5,23.15 13.59,23.17 13.76,23.45 C 14,23.84 14.97,23.61 15.75,23 C 16.06,22.75 16.25,22.7 16.32,22.81 Z M 42.14,24.18 C 42.14,24.22 42.3,24.39 42.49,24.58 C 42.86,24.93 42.96,25.15 42.75,25.17 C 42.43,25.2 41.63,24.05 41.9,23.95 C 41.98,23.92 42.14,24.07 42.14,24.18 Z M 22.59,25.3 C 22.6,25.31 22.59,25.37 22.57,25.43 C 22.52,25.56 21.99,25.53 21.99,25.4 C 21.99,25.25 22.45,25.18 22.59,25.3 Z M 24.89,25.58 C 24.48,26 24.83,26.55 25.39,26.36 C 25.86,26.19 25.93,25.58 25.48,25.46 C 25.14,25.36 25.09,25.37 24.88,25.58 Z M 43.57,26.36 C 45.39,27.27 45.77,27.97 44.64,28.31 L 43.54,28.65 C 42.41,29 42.49,29.09 42.44,27.45 C 42.39,25.65 42.3,25.73 43.57,26.36 Z M 33.57,27.45 C 33.57,27.58 32.54,27.77 32.47,27.65 C 32.4,27.55 32.57,27.46 32.91,27.43 C 33.53,27.39 33.58,27.39 33.58,27.45 Z M 13.75,27.6 C 14.14,28.22 14.07,29.57 13.65,29.84 C 13.45,29.96 13.37,28.8 13.46,27.5 C 13.47,27.4 13.66,27.46 13.75,27.6 Z M 15.8,27.9 C 15.82,27.94 15.76,28 15.67,28.03 A 0.5,0.5 0 0,0 15.44,28.25 C 15.3,28.56 14.9,28.25 15.02,27.93 C 15.07,27.83 15.73,27.79 15.8,27.9 Z M 16.33,28.77 C 16.46,28.87 16.52,29.12 16.43,29.2 C 16.41,29.22 16.22,29.17 16,29.1 C 15.57,28.93 15.45,28.76 15.75,28.72 C 16.1,28.67 16.19,28.67 16.33,28.77 Z M 41.69,28.87 C 41.84,29.17 41.49,30.86 41.26,30.86 C 41.08,30.86 41.07,30.5 41.24,29.41 C 41.34,28.74 41.51,28.54 41.69,28.87 Z M 43.33,29.4 C 43.63,29.77 43.46,30.56 43.08,30.53 C 42.77,30.49 42.69,30.31 42.92,30.13 C 43.09,29.99 43.1,29.97 43.06,29.65 C 43.01,29.3 43.15,29.18 43.33,29.4 Z M 16.03,29.62 C 16.21,29.82 16.42,30.36 16.47,30.79 A 3,3 0 0,0 16.72,31.59 C 17.16,32.49 16.75,32.65 15.11,32.24 C 14.52,32.09 14.11,32.02 13.96,32.04 C 13.6,32.08 13.66,31.91 14.11,31.57 A 3,3 0 0,0 15.13,30.41 C 15.56,29.63 15.83,29.39 16.03,29.62 Z M 14.06,30.97 C 14.24,31.02 14.15,31.15 13.92,31.17 C 13.63,31.2 13.4,31.13 13.4,31.02 C 13.4,30.87 13.64,30.84 14.06,30.97 Z M 42.9,31.13 C 43.08,31.46 43.84,33.64 43.81,33.73 C 43.76,33.85 43.66,33.84 42.86,33.63 C 41.48,33.26 41.46,33.25 41.78,32.52 C 42.33,31.23 42.48,30.99 42.71,30.99 C 42.78,30.99 42.86,31.05 42.91,31.13 Z M 40.95,31.47 C 40.98,31.56 41.02,31.63 41.05,31.63 C 41.3,31.63 41.15,32.03 40.74,32.48 C 40.57,32.66 40.36,32.93 40.24,33.1 C 40.12,33.29 40.01,33.4 39.93,33.4 C 39.76,33.4 39.73,33.16 39.86,32.97 C 39.92,32.89 40.03,32.59 40.12,32.31 C 40.36,31.51 40.84,31.03 40.95,31.47 Z M 23.58,32.08 C 23.68,32.18 23.54,32.28 23.27,32.28 C 22.98,32.28 22.89,32.22 22.97,32.1 C 23.07,31.95 23.43,31.94 23.57,32.08 Z M 17.38,33.31 C 17.43,33.34 17.55,33.37 17.64,33.37 C 17.81,33.37 17.94,33.52 17.94,33.75 C 17.94,33.92 17.82,33.92 17.64,33.75 C 17.49,33.6 17.49,33.6 17.31,33.77 C 17.14,33.94 17.13,33.94 16.94,33.82 C 16.84,33.76 16.64,33.67 16.52,33.63 C 15.9,33.43 16.1,33.14 16.82,33.21 C 17.06,33.23 17.32,33.28 17.37,33.31 Z M 14.09,33.58 C 14.17,33.72 14.29,33.81 14.41,33.84 C 14.76,33.91 15.12,34.91 14.91,35.21 C 14.84,35.31 14.79,35.31 14.64,35.26 C 14.44,35.19 14.44,35.15 14.53,34.64 C 14.56,34.42 14.55,34.4 14.31,34.28 C 13.97,34.1 13.69,33.63 13.81,33.43 C 13.89,33.32 13.96,33.36 14.09,33.58 Z M 24.67,33.67 L 24.97,34.01 C 25.17,34.21 25.16,34.33 24.93,34.33 C 24.83,34.33 24.73,34.26 24.64,34.11 C 24.48,33.85 24.4,33.81 24.01,33.81 C 23.65,33.81 23.61,33.84 23.47,34.16 C 23.33,34.48 23.22,34.51 22.81,34.33 C 22.44,34.18 22.28,34.19 22.28,34.39 C 22.28,34.55 22.11,34.72 21.94,34.72 C 21.78,34.72 21.57,34.54 21.57,34.39 C 21.57,34.05 20.95,33.71 20.67,33.91 C 20.47,34.05 20.3,34.04 20.3,33.88 C 20.3,33.53 20.95,33.48 21.54,33.78 C 22.07,34.06 22.78,34.08 23.19,33.83 C 23.77,33.47 24.45,33.39 24.67,33.67 Z M 39.77,33.69 C 39.77,33.81 39.39,34.32 39.2,34.46 C 38.82,34.73 38.75,34.54 39.1,34.2 A 2,2 0 0,0 39.42,33.8 C 39.52,33.63 39.77,33.55 39.77,33.7 Z M 19.62,34.37 C 19.67,34.49 19.72,34.67 19.72,34.75 C 19.72,34.85 19.8,34.99 19.88,35.08 C 20.13,35.33 20.04,35.58 19.71,35.54 C 19.59,35.52 19.56,35.47 19.53,35.2 A 2.64,2.64 0 0,0 19.38,34.6 C 19.18,34.15 19.41,33.93 19.62,34.37 Z M 15.86,34.26 C 15.87,34.29 16.03,34.36 16.19,34.4 C 16.55,34.5 16.72,34.62 16.72,34.79 C 16.72,34.94 16.46,35.01 16.28,34.91 C 16.09,34.81 15.98,34.91 16.08,35.09 C 16.18,35.27 16.17,35.29 16.03,35.29 C 15.94,35.29 15.89,35.24 15.86,35.09 A 0.99,0.99 0 0,0 15.63,34.71 C 15.42,34.49 15.41,34.44 15.55,34.31 C 15.65,34.19 15.8,34.17 15.85,34.26 Z M 25.62,34.69 C 25.71,34.92 25.1,35.28 24.54,35.31 C 24.21,35.34 24.32,35.15 24.83,34.86 C 25.33,34.57 25.56,34.52 25.63,34.69 Z M 20.72,35.03 L 21.22,35.21 C 21.36,35.25 21.41,35.31 21.39,35.4 C 21.31,35.84 21.34,35.9 21.68,36.07 C 21.95,36.21 22.45,36.67 22.52,36.84 C 22.52,36.87 22.49,36.94 22.44,36.99 A 0.43,0.43 0 0,0 22.34,37.25 C 22.34,37.49 22.24,37.45 22.06,37.16 C 21.86,36.85 21.69,36.76 21.41,36.8 C 21.07,36.87 20.95,36.7 21.07,36.33 C 21.21,35.94 20.96,35.53 20.42,35.26 C 20.12,35.11 20.06,35.04 20.15,34.96 C 20.22,34.88 20.39,34.9 20.72,35.03 Z M 18.21,35.15 C 18.26,35.21 18.37,35.39 18.43,35.55 C 18.5,35.71 18.6,35.88 18.66,35.93 C 18.8,36.05 18.79,36.18 18.65,36.23 C 18.45,36.29 18.33,36.2 18.11,35.88 L 17.89,35.55 A 1.16,1.16 0 0,0 17.53,35.52 C 17.27,35.52 17.2,35.5 17.18,35.41 C 17.17,35.32 17.2,35.3 17.34,35.29 C 17.44,35.29 17.59,35.24 17.68,35.17 C 17.88,35.01 18.08,35 18.21,35.15 Z M 31.04,35.35 C 31.48,35.56 31.58,35.65 31.47,35.71 C 31.4,35.76 30.61,35.44 30.51,35.33 C 30.44,35.23 30.48,35.08 30.57,35.12 L 31.04,35.35 Z M 26.87,35.3 C 26.94,35.33 27.21,35.4 27.49,35.46 C 28.48,35.65 28.61,36.07 27.7,36.16 C 27.47,36.17 27.14,36.21 26.96,36.23 C 26.31,36.32 26,36.08 26.21,35.65 C 26.38,35.29 26.61,35.15 26.87,35.3 Z M 41.28,35.28 C 41.4,35.36 41.88,36.35 41.88,36.53 C 41.88,36.61 41.92,36.85 41.98,37.06 C 42.23,38.14 41.99,38.24 40.35,37.76 C 39.66,37.56 39.45,37.45 39.45,37.28 C 39.45,37.15 40.85,35.33 41,35.28 C 41.12,35.23 41.2,35.23 41.28,35.28 Z M 39.07,36.1 C 39.07,36.34 38.64,37.22 38.53,37.22 C 38.29,37.22 38.54,36.09 38.81,35.96 C 39,35.86 39.07,35.9 39.07,36.1 Z M 30.29,36.16 C 30.48,36.28 30.45,36.39 30.21,36.39 C 30.11,36.39 29.99,36.44 29.93,36.49 C 29.63,36.76 28.98,36.64 29.07,36.33 C 29.17,36.02 29.91,35.91 30.29,36.16 Z M 24.35,38.26 C 25.23,38.4 25.48,38.46 25.86,38.64 C 26.09,38.74 26.53,38.87 26.86,38.94 C 27.96,39.14 28.46,39.78 27.7,40.02 C 27.36,40.13 27.21,39.89 27.46,39.62 C 27.7,39.37 27.58,39.28 27,39.28 C 26.49,39.28 26.49,39.28 26.35,39.51 C 26.02,40.07 25.6,39.93 25.6,39.27 C 25.6,38.77 25.41,38.57 24.96,38.64 C 24.91,38.64 24.76,38.74 24.66,38.87 C 24.41,39.13 24.4,39.13 23.94,38.62 C 23.66,38.32 23.61,38.05 23.86,38.16 C 23.92,38.19 24.14,38.24 24.36,38.26 Z M 18.32,38.5 C 18.55,38.7 18.55,38.9 18.33,38.9 C 18.07,38.9 17.75,38.44 17.95,38.36 C 18.08,38.31 18.09,38.31 18.32,38.5 Z M 31.02,38.5 C 31.02,38.52 30.96,38.6 30.89,38.66 C 30.77,38.76 30.76,38.82 30.79,39.09 C 30.85,39.52 30.75,39.59 30.27,39.47 C 29.77,39.33 29.77,39.24 30.33,38.81 C 30.75,38.48 31.03,38.36 31.03,38.5 Z M 21.1,39.03 C 21.18,39.13 21.26,39.15 21.37,39.13 C 21.48,39.09 21.57,39.13 21.7,39.23 C 21.92,39.43 22.49,39.68 22.88,39.73 C 23.06,39.75 23.21,39.8 23.23,39.86 C 23.4,40.22 23.38,40.21 23.94,40.25 C 25,40.31 25.09,40.6 24.07,40.66 C 23.27,40.72 22.88,40.56 22.73,40.11 C 22.67,39.93 22.63,39.91 22.48,39.95 C 22.26,39.99 21.95,39.82 21.79,39.57 C 21.66,39.37 21.42,39.37 21.39,39.59 C 21.36,39.85 20.62,39.45 20.62,39.16 C 20.62,38.89 20.91,38.82 21.1,39.03 Z M 36.83,39.6 C 36.96,39.74 36.99,39.84 37.05,40.34 C 37.24,41.94 37.19,41.99 35.95,41.49 C 33.96,40.69 33.95,40.64 35.37,39.89 C 36.25,39.43 36.59,39.36 36.83,39.6 Z M 29.9,39.77 C 30.1,39.85 30,39.93 29.69,39.93 C 29.44,39.93 29.36,39.95 29.29,40.07 C 29.16,40.27 28.98,40.18 28.98,39.93 C 28.98,39.73 29.55,39.63 29.9,39.77 Z M 21.04,40.63 C 21.45,40.68 21.56,40.72 22.06,41.06 L 22.76,41.51 C 22.96,41.62 23.14,41.91 23.06,41.99 C 22.96,42.09 22.18,41.76 22.06,41.56 C 21.98,41.44 21.9,41.4 21.68,41.4 C 21.51,41.4 21.32,41.35 21.16,41.25 L 20.71,40.98 C 20.06,40.62 20.15,40.52 21.04,40.63 Z M 25.96,40.8 C 26.04,41.01 25.52,41.17 25.19,41.04 C 25.09,41 25.05,40.82 25.13,40.74 C 25.23,40.64 25.92,40.69 25.96,40.8 Z M 27.45,41.14 C 27.95,41.31 27.86,41.37 27.15,41.37 C 26.59,41.37 26.52,41.36 26.5,41.25 C 26.45,41 26.86,40.95 27.45,41.15 Z" fill="rgb(251, 191, 2)"/>
</svg>
