<?xml version="1.0" encoding="UTF-8"?>
<!-- generated by Finnhub -->
<svg viewBox="0 0 55.5 55.5" xmlns="http://www.w3.org/2000/svg">
<path d="M 0,0 H 55.5 V 55.5 H 0 Z" fill="rgb(226, 24, 52)"/>
<path d="M 46.99,19.985 H 42 L 39,36 H 44 L 47,20 Z M 7.496,26.378 C 9.126,21.086 14.86,19.924 17.524,20.004 C 19.721,20.004 26.233,20.645 24.794,27.862 C 23.357,35.078 18.085,36 14.728,36 C 8.991,36 5.688,32.25 7.497,26.378 Z M 30.277,20 H 40 L 39.001,24 H 32.972 C 31.353,24 31.304,25.128 31.505,26 H 36.077 C 36.941,26.057 38.608,27.159 38.362,30.633 C 38.117,34.106 35.792,36 34.576,36 H 24 L 25,32 H 32.154 C 32.972,32 33.128,30.633 32.972,30 H 29.39 C 28.173,30 25.672,28.82 26,25.128 C 26.328,21.436 28.698,20 30.277,20 Z" fill="rgb(254, 254, 253)"/>
<path d="M 12.124,27.52 C 12.804,24.552 15.437,23.939 16.67,24.005 C 20.075,24.242 20.266,26.891 19.83,28.285 C 18.734,31.797 15.89,32.219 14.542,31.922 C 13.46,31.702 11.465,30.517 12.134,27.535 Z" fill="rgb(226, 24, 52)"/>
</svg>
