<?xml version="1.0" encoding="UTF-8"?>
<!-- generated by Finnhub -->
<svg viewBox="0 0 55.5 55.5" xmlns="http://www.w3.org/2000/svg">
<path d="M 0,0 H 55.5 V 55.5 H 0 Z" fill="rgb(239, 242, 248)"/>
<path d="M 13.99,12.985 H 42 V 43 H 14 V 13 Z" fill="rgb(0, 129, 193)"/>
<path d="M 39.190000000000005,17.985 C 26.3,18.06 20,30.75 20,43 H 31 C 31,35.36 29.78,21.09 39.2,21 H 42 V 18 H 39.2 Z" fill="rgb(253, 202, 96)"/>
<path d="M 38.99,15.985 A 1,1 0 1,1 37,16 A 1,1 0 0,1 39,16 Z M 42,16 A 1,1 0 1,1 40,16 A 1,1 0 0,1 42,16 Z" fill="rgb(249, 202, 95)"/>
</svg>
