<?xml version="1.0" encoding="UTF-8"?>
<!-- generated by Finnhub -->
<svg viewBox="0 0 55.5 55.5" xmlns="http://www.w3.org/2000/svg">
<path d="M 0,0 H 55.5 V 55.5 H 0 Z" fill="url(#a)"/>
<path d="M 27.99,7.985 L 29,20.43 L 33.18,8.68 L 30.92,20.94 L 38,10.68 L 32.65,21.94 L 42.15,13.86 L 34.06,23.35 L 45.32,18 L 35.06,25.08 L 47.32,22.82 L 35.57,27 L 48,28 L 35.57,29 L 47.32,33.18 L 35.06,30.92 L 45.32,38 L 34.06,32.65 L 42.14,42.15 L 32.65,34.06 L 38,45.32 L 30.92,35.06 L 33.18,47.32 L 29,35.57 L 28,48 L 27,35.57 L 22.82,47.32 L 25.08,35.06 L 18,45.32 L 23.35,34.06 L 13.85,42.14 L 21.94,32.65 L 10.68,38 L 20.94,30.92 L 8.68,33.18 L 20.43,29 L 8,28 L 20.43,27 L 8.68,22.82 L 20.94,25.08 L 10.68,18 L 21.94,23.35 L 13.86,13.85 L 23.35,21.94 L 18,10.68 L 25.08,20.94 L 22.82,8.68 L 27,20.43 L 28,8 Z" fill="rgb(254, 254, 253)"/>
<circle cx="28" cy="28" r="3" fill="rgb(252, 215, 32)"/>
<ellipse transform="rotate(24.43 28.4 26.99)" cx="28.4" cy="26.99" rx="1.64" ry="1.42" fill="rgb(253, 246, 221)"/>
<defs>
<linearGradient id="a" x1="28" x2="28" y2="56" gradientUnits="userSpaceOnUse">
<stop stop-color="rgb(1, 85, 140)" offset="0"/>
<stop stop-color="rgb(107, 128, 172)" offset=".27"/>
<stop stop-color="rgb(251, 253, 253)" offset=".49"/>
<stop stop-color="rgb(107, 128, 172)" offset=".75"/>
<stop stop-color="rgb(1, 85, 140)" offset="1"/>
</linearGradient>
</defs>
</svg>
