<?xml version="1.0" encoding="UTF-8"?>
<!-- generated by Finnhub -->
<svg viewBox="0 0 55.5 55.5" xmlns="http://www.w3.org/2000/svg">
<path d="M 0,0 H 55.5 V 55.5 H 0 Z" fill="rgb(15, 26, 85)"/>
<path d="M 24.252,30.075 C 24.092,30.49 23.539,32.036 21.094,32.036 C 19.202,32.036 17.884,30.794 17.884,28.544 C 17.884,26.904 18.65,24.866 21.158,24.866 C 21.541,24.866 22.625,24.819 23.454,25.756 C 24.284,26.716 24.326,28.226 24.347,29 H 19.777 C 19.777,29.843 20.223,30.536 21.243,30.536 S 22.625,29.81 22.859,29.341 L 24.262,30.091 Z M 22.526,28 C 22.456,27.019 22.053,26.302 21.116,26.302 C 20.201,26.302 19.776,27.157 19.776,28 H 22.526 Z" fill="rgb(254, 254, 253)"/>
<path d="M 10.372,28.583 C 10.382,30.25 9.507,32.036 7.201,32.036 C 5.53,32.036 4,31.009 4,28.598 C 4,26.612 5.153,25.072 7.42,25.205 C 9.845,25.362 10.382,27.415 10.382,28.598 Z M 6.068,27.348 C 5.849,27.705 5.769,28.152 5.769,28.598 C 5.769,29.603 6.227,30.518 7.201,30.518 C 8.155,30.518 8.613,29.67 8.613,28.688 C 8.613,27.973 8.453,27.438 8.115,27.103 C 7.758,26.746 7.34,26.723 7.082,26.746 C 6.604,26.768 6.306,26.946 6.068,27.348 Z" fill="rgb(254, 254, 253)"/>
<path d="M 33.99,23.985 H 32 V 29.963 C 32,30.588 32.037,31.057 32.292,31.436 C 32.696,32.039 33.419,32.084 34.056,32.084 C 34.396,32.084 34.596,32.039 35,31.972 V 30.477 L 34.43,30.499 C 33.92,30.499 34,30.131 34,29.762 V 26.701 H 34.992 L 35.842,25.361 H 34 V 24 Z M 51,24 H 49 V 25.37 H 48.53 L 47.701,26.71 H 49.001 V 29.812 C 49.001,30.437 49.026,30.906 49.281,31.285 C 49.685,31.888 50.408,31.933 51.046,31.933 C 51.386,31.933 51.596,31.888 52,31.821 V 30.289 L 51.419,30.348 C 50.909,30.348 51,29.98 51,29.611 V 26.71 H 51.981 L 52.831,25.371 H 51.001 V 24 Z M 27.674,25.222 C 27.314,25.383 27.202,25.544 27,25.752 V 25 H 25 V 32 H 27 V 28.238 C 27,27.386 26.977,26.558 28.011,26.558 C 28.416,26.558 28.753,26.695 28.911,27.064 C 28.977,27.248 29,27.478 29,28.077 V 32 H 31 V 27.271 C 31,26.211 30.798,25.613 30.101,25.245 C 29.764,25.061 29.315,24.992 28.911,24.992 C 28.416,24.992 27.989,25.084 27.674,25.222 Z M 41.817,30.087 L 41.456,30.675 C 41.116,31.191 40.499,32.013 38.692,32.013 C 36.801,32.013 35.546,30.769 35.546,28.514 C 35.546,26.87 36.312,24.827 38.82,24.827 C 39.203,24.827 40.287,24.78 41.116,25.719 C 41.945,26.682 41.987,28.225 42.009,28.999 H 37.459 C 37.439,29.845 37.842,30.51 38.841,30.51 C 39.861,30.51 40.159,29.782 40.393,29.312 L 41.817,30.087 Z M 40.074,28 C 40.074,27.044 39.736,26.29 38.799,26.29 C 37.884,26.29 37.459,27.203 37.459,28 H 40.074 Z M 13,25.71 C 13.17,25.41 13.66,24.951 14.574,24.951 C 16.126,24.951 17.231,26.191 17.231,28.419 C 17.231,29.797 16.764,31.956 14.489,31.956 C 13.681,31.956 13.149,31.474 13,31.198 V 34 H 11 V 25 H 13 V 25.71 Z M 14.191,26.49 C 13.851,26.49 13.49,26.628 13.235,26.995 C 12.959,27.34 12.852,27.868 12.852,28.465 C 12.852,29.246 13.065,29.728 13.299,30.004 C 13.511,30.256 13.83,30.417 14.149,30.417 C 15.063,30.417 15.467,29.407 15.467,28.419 C 15.467,27.593 15.233,26.719 14.467,26.536 C 14.361,26.513 14.277,26.49 14.191,26.49 Z" fill="rgb(254, 254, 253)"/>
<path d="M 45.868,28.305 L 48.216,32 H 46.07 L 44.837,30.052 L 43.71,32 H 41.585 L 43.753,28.32 L 41.647,25 H 43.773 L 44.773,26.564 L 45.686,25 H 47.812 L 45.878,28.32 Z" fill="rgb(254, 254, 253)"/>
</svg>
