<?xml version="1.0" encoding="UTF-8"?>
<!-- generated by Finnhub -->
<svg viewBox="0 0 55.5 55.5" xmlns="http://www.w3.org/2000/svg">
<path d="M 0,0 H 55.5 V 55.5 H 0 Z" fill="rgb(1, 35, 77)"/>
<path d="M 8.88,22.285 A 2.49,2.49 0 0,1 10.49,22.03 A 2.42,2.42 0 0,1 12.28,23.49 C 12.31,23.54 12.35,23.57 12.4,23.57 H 12.98 C 12.99,23.57 13,23.57 13,23.59 V 24.09 L 12.98,24.1 H 12.52 C 12.49,24.1 12.47,24.12 12.48,24.15 A 2.5,2.5 0 0,1 11.5,26.4 A 0.1,0.1 0 0,0 11.47,26.46 L 11.42,27.08 C 11.38,27.58 11.26,28.1 11.08,28.61 C 10.78,29.41 10.32,30.09 9.7,30.62 C 9.1,31.13 8.38,31.5 7.52,31.72 C 6.37,32.03 5.2,32.08 4.02,31.88 C 4,31.88 4,31.86 4,31.84 L 7.53,24.14 C 7.54,24.12 7.53,24.1 7.5,24.1 H 7.08 C 7.03,24.1 7.01,24.08 7.01,24.03 V 23.65 C 7.01,23.59 7.03,23.56 7.09,23.56 H 7.76 C 7.78,23.56 7.8,23.56 7.81,23.53 A 2.4,2.4 0 0,1 8.9,22.3 Z M 8.96,24.14 C 8.81,24.09 8.55,24.09 8.16,24.12 A 0.06,0.06 0 0,0 8.12,24.15 L 4.85,31.28 V 31.32 L 4.89,31.33 C 5.93,31.23 6.83,30.83 7.59,30.11 A 5.9,5.9 0 0,0 9.17,27.53 L 9.65,27.63 C 9.67,27.63 9.67,27.65 9.67,27.66 C 9.41,28.44 9.07,29.13 8.63,29.73 A 5.51,5.51 0 0,1 6.93,31.3 C 7.29,31.24 7.64,31.14 7.99,31 A 4.3,4.3 0 0,0 10.11,29.35 C 10.57,28.65 10.84,27.78 10.92,26.76 C 10.92,26.73 10.92,26.72 10.88,26.73 A 2.37,2.37 0 0,1 8.16,25.91 L 8.4,25.38 H 8.42 C 8.7,25.82 9.05,26.11 9.46,26.24 A 1.88,1.88 0 0,0 11.65,25.44 C 11.89,25.07 11.98,24.64 11.92,24.15 C 11.92,24.12 11.9,24.11 11.87,24.11 C 11.53,24.09 11.31,24.1 11.24,24.11 C 10.99,24.16 10.76,24.26 10.57,24.41 C 10.4,24.53 10.24,24.71 10.07,24.93 C 10.05,24.96 10.03,24.96 10.01,24.93 C 9.74,24.53 9.38,24.26 8.96,24.13 Z M 10.06,22.54 C 9.7,22.54 9.37,22.62 9.08,22.8 C 8.8,22.98 8.58,23.22 8.4,23.54 C 8.38,23.56 8.4,23.58 8.42,23.58 A 2.09,2.09 0 0,1 10.04,24.12 H 10.08 C 10.54,23.71 11.08,23.52 11.68,23.56 C 11.72,23.56 11.73,23.56 11.71,23.53 C 11.54,23.21 11.31,22.97 11.02,22.8 A 1.8,1.8 0 0,0 10.05,22.53 Z M 45,26.04 H 45.29 C 45.32,26.04 45.34,26.06 45.35,26.09 L 46.29,28.98 C 46.29,29 46.31,29 46.32,29 C 46.34,29 46.35,29 46.36,28.98 L 47.28,26.03 C 47.28,26.01 47.29,26.01 47.31,26.01 H 47.99 V 26.02 L 46.67,29.95 C 46.67,29.98 46.64,30 46.61,30 H 46.04 C 46.01,30 45.99,29.99 45.98,29.96 L 45.02,27 A 0.06,0.06 0 0,0 44.98,27 L 44,29.95 C 43.99,29.98 43.97,30 43.94,30 H 43.37 A 0.07,0.07 0 0,1 43.31,29.95 L 42,26.02 L 42.01,26 H 42.69 C 42.71,26 42.72,26 42.72,26.02 L 43.64,28.97 C 43.64,28.99 43.65,29 43.67,29 C 43.69,29 43.7,29 43.7,28.98 L 44.65,26.09 A 0.06,0.06 0 0,1 44.71,26.04 H 45 Z M 49,29.97 V 26.03 C 49,26.01 49.01,26 49.03,26 H 49.6 C 49.62,26 49.63,26 49.63,26.03 V 29.38 C 49.63,29.4 49.64,29.41 49.66,29.41 H 51.97 C 51.99,29.41 52,29.41 52,29.43 V 29.97 C 52,29.99 51.99,30 51.97,30 H 49.03 C 49.01,30 49,30 49,29.97 Z M 39.17,26 C 39.67,26 40.1,26.17 40.47,26.53 C 40.82,26.88 41,27.31 41,27.81 V 28.17 C 41,28.67 40.83,29.11 40.47,29.47 C 40.12,29.82 39.69,30 39.19,30 H 38.83 C 38.33,30 37.89,29.83 37.53,29.47 A 1.75,1.75 0 0,1 37,28.2 V 27.84 C 37,27.34 37.17,26.9 37.53,26.54 C 37.88,26.19 38.31,26.01 38.81,26.01 H 39.17 Z M 38.87,26.57 C 38.17,26.57 37.62,27.13 37.62,27.82 V 28.18 C 37.62,28.88 38.17,29.43 38.86,29.43 H 39.13 C 39.82,29.43 40.38,28.88 40.38,28.19 V 27.82 C 40.38,27.13 39.82,26.57 39.13,26.57 H 38.87 Z M 32.88,26 C 32.89,26 32.9,26.01 32.9,26.03 V 26.56 C 32.9,26.58 32.9,26.59 32.88,26.59 H 30.63 C 30.61,26.59 30.6,26.59 30.6,26.62 V 27.62 C 30.6,27.63 30.6,27.64 30.63,27.64 H 32.76 C 32.78,27.64 32.78,27.65 32.79,27.67 V 28.2 C 32.79,28.22 32.78,28.23 32.76,28.23 H 30.63 C 30.61,28.23 30.6,28.23 30.6,28.26 V 29.37 C 30.6,29.39 30.6,29.4 30.63,29.4 H 32.97 C 32.99,29.4 33,29.4 33,29.43 V 29.97 C 33,29.99 33,30 32.97,30 H 30.03 C 30.01,30 30,30 30,29.97 V 26.03 C 30,26.01 30,26 30.03,26 H 32.88 Z M 21.58,26 C 21.6,26 21.61,26 21.61,26.03 V 29.37 C 21.61,29.39 21.61,29.4 21.64,29.4 H 23.97 C 23.99,29.4 24,29.4 24,29.42 V 29.97 C 24,29.99 24,30 23.97,30 H 21.03 C 21.01,30 21,30 21,29.97 V 26.03 C 21,26.01 21,26 21.03,26 H 21.58 Z M 25.5,26 C 25.52,26 25.54,26.01 25.54,26.04 V 28.44 C 25.54,29.08 25.87,29.4 26.5,29.4 C 27.13,29.4 27.45,29.08 27.46,28.44 V 26.04 C 27.46,26.01 27.48,26 27.5,26 H 27.97 C 27.99,26 28,26.01 28,26.04 V 28.07 C 28,28.59 27.96,28.95 27.88,29.15 C 27.74,29.49 27.52,29.73 27.21,29.87 C 27.01,29.96 26.77,30 26.5,30 C 26.23,30 26,29.96 25.8,29.87 A 1.27,1.27 0 0,1 25.11,29.15 C 25.03,28.95 25,28.59 25,28.07 V 26.04 C 25,26.01 25.01,26 25.03,26 H 25.5 Z M 17.51,26 C 18.42,26 18.88,26.36 18.88,27.06 A 0.9,0.9 0 0,1 18.48,27.86 C 18.45,27.87 18.45,27.89 18.48,27.91 C 18.81,28.09 18.98,28.38 19,28.78 C 19.01,29.21 18.87,29.53 18.58,29.74 A 1.7,1.7 0 0,1 17.59,30 H 16.04 C 16.01,30 16,29.98 16,29.95 V 26.03 C 16,26.01 16,26 16.02,26 H 17.52 Z M 16.58,28.2 C 16.55,28.2 16.54,28.2 16.54,28.23 V 29.37 C 16.54,29.4 16.54,29.41 16.57,29.41 H 17.77 C 17.95,29.41 18.1,29.37 18.22,29.27 C 18.35,29.17 18.42,29.04 18.42,28.9 V 28.73 A 0.47,0.47 0 0,0 18.22,28.36 A 0.69,0.69 0 0,0 17.78,28.2 H 16.58 Z M 16.56,26.59 C 16.54,26.59 16.53,26.59 16.53,26.61 L 16.54,27.61 S 16.54,27.63 16.57,27.63 L 17.71,27.62 C 17.87,27.62 18.01,27.57 18.13,27.48 C 18.24,27.38 18.3,27.28 18.3,27.16 V 27.02 A 0.4,0.4 0 0,0 18.12,26.7 A 0.67,0.67 0 0,0 17.7,26.58 H 16.56 Z" fill="rgb(254, 254, 253)"/>
</svg>
