<?xml version="1.0" encoding="UTF-8"?>
<!-- generated by Finnhub -->
<svg viewBox="0 0 55.5 55.5" xmlns="http://www.w3.org/2000/svg">
<path d="M 0,0 H 55.5 V 55.5 H 0 Z" fill="url(#a)"/>
<path d="M 24.459999999999997,41.845 C 25.02,41.26 25.67,40.6 26.06,40.29 A 8.24,8.24 0 0,1 25.59,40.23 C 25.19,40.59 24.67,41.13 24.21,41.62 A 48.36,48.36 0 0,0 23.14,42.8 S 23.14,42.82 23.12,42.82 L 21.66,43.22 C 21.02,43.4 20.44,43.35 20.44,43.77 C 20.44,43.77 19.78,44.12 19.94,44.65 C 19.94,44.65 21.27,43.59 22.4,43.42 C 22.4,43.42 21.7,43.87 21.77,44.48 C 21.77,44.48 22.71,43.08 23.8,43.93 C 23.8,43.93 23.31,43.27 23.52,42.91 L 24.47,41.86 Z M 22.37,25.4 A 0.5,0.5 0 0,1 21.73,25.13 L 21.71,25.08 L 21.57,25.12 C 21.69,25.47 22.05,25.67 22.38,25.55 A 0.59,0.59 0 0,0 22.6,25.42 A 0.67,0.67 0 0,0 22.76,24.72 L 22.43,24.82 A 0.4,0.4 0 0,1 22.46,24.99 A 0.32,0.32 0 0,1 22.44,25.12 L 22.59,25.22 A 0.53,0.53 0 0,1 22.49,25.32 A 0.4,0.4 0 0,1 22.36,25.4 Z M 35.77,24.34 L 29.22,25.92 L 42,20.42 L 31.47,21.71 L 37.11,17.61 L 31.07,19.96 L 31.98,18.14 L 27.66,21.24 L 27.62,21.17 L 33.75,8 L 23.79,19.72 L 23.73,13.33 L 20.07,21.87 L 19.88,19.36 L 18.08,25.91 S 18.33,25.73 18.66,25.63 L 18.73,25.61 H 18.74 L 18.82,25.59 H 18.83 A 0.76,0.76 0 0,1 18.92,25.58 L 19,25.57 H 19.02 A 0.44,0.44 0 0,1 19.12,25.57 H 19.19 A 0.59,0.59 0 0,1 19.3,25.6 L 19.39,25.63 C 20,25.85 20.53,25.63 20.53,25.63 S 21.11,26 21.11,26.31 S 20.34,26.35 20.34,26.01 C 20.34,26.01 19.37,25.67 18,26.17 L 20.88,27.4 S 20.73,26.86 20.89,26.67 C 20.95,26.61 21.04,26.59 21.19,26.64 C 21.23,26.65 21.27,26.65 21.29,26.63 C 21.52,26.4 20.43,24.4 20.43,24.4 S 19.46,24.3 18.61,25.19 L 18.45,25.38 C 18.53,25.23 18.81,24.79 19.26,24.42 A 2.79,2.79 0 0,1 20.29,23.87 C 20.39,23.6 20.26,23.77 20.49,23.64 A 8.15,8.15 0 0,1 22.67,19.26 S 22.31,19.93 22.31,20.39 C 22.32,20.37 22.67,19.85 23.16,19.38 S 23.16,19.38 23.14,19.39 C 23.05,19.59 22.4,20.99 22.46,21.39 V 21.4 L 23.8,20.19 C 23.75,20.25 22.54,21.87 22.42,22.43 L 24.44,21 C 24.44,21.02 24.18,21.36 24.08,21.55 A 0.59,0.59 0 0,0 24,21.75 L 25.08,21.29 L 24.96,21.43 L 24.56,21.83 L 24.46,21.94 L 23.72,22.68 L 23.71,22.7 L 23.15,23.26 L 22.79,23.62 S 22.5,23.92 22.46,24.08 C 22.43,24.24 22.59,24.33 22.59,24.33 C 22.74,24.42 22.86,24.55 22.93,24.7 C 22.97,24.8 22.99,24.9 22.99,25 A 0.75,0.75 0 0,1 22.76,25.54 A 0.81,0.81 0 0,1 22.19,25.77 A 0.81,0.81 0 0,1 21.67,25.58 C 21.69,25.62 22.09,26.11 22.82,25.73 L 23.72,25.07 L 23.76,25.04 L 24.69,24.37 C 24.91,24.62 25.12,24.93 25.3,25.29 A 65.45,65.45 0 0,0 22.87,27.71 C 22.31,28.29 21.75,28.91 21.27,29.51 L 21.6,27.94 L 21.63,27.81 H 21.62 L 21.61,27.82 L 21.59,27.84 L 21.57,27.85 L 21.56,27.86 L 21.54,27.87 L 21.53,27.88 L 21.51,27.9 L 21.5,27.91 L 21.48,27.93 L 21.46,27.94 L 21.44,27.96 L 21.42,27.97 L 21.4,28 L 21.38,28.02 L 21.35,28.04 L 21.33,28.06 A 0.13,0.13 0 0,1 21.3,28.09 A 0.1,0.1 0 0,0 21.28,28.1 A 0.22,0.22 0 0,1 21.26,28.12 A 0.62,0.62 0 0,0 21.21,28.18 L 21.18,28.21 L 21.15,28.24 L 21.13,28.26 L 21.12,28.27 L 21.11,28.28 A 0.92,0.92 0 0,0 21.09,28.3 L 21.06,28.33 L 21.05,28.35 A 0.08,0.08 0 0,1 21.03,28.37 A 0.2,0.2 0 0,1 20.99,28.41 L 20.97,28.44 L 20.93,28.48 L 20.9,28.52 L 20.86,28.56 L 20.83,28.6 C 20.83,28.62 20.81,28.63 20.79,28.65 L 20.76,28.68 C 20.76,28.7 20.74,28.72 20.72,28.74 L 20.7,28.77 L 20.64,28.84 L 20.62,28.87 L 20.55,28.97 L 20.48,29.07 A 0.34,0.34 0 0,1 20.46,29.11 L 20.4,29.19 L 20.38,29.23 L 20.33,29.31 L 20.3,29.35 L 20.25,29.43 L 20.23,29.48 L 20.18,29.56 A 0.82,0.82 0 0,0 20.15,29.61 L 20.1,29.69 L 20.08,29.74 L 19.86,30.17 L 19.49,30.23 C 19.56,30.04 19.63,29.87 19.71,29.71 L 19.11,30.56 L 19.71,30.5 A 12,12 0 0,0 18.81,35.42 L 19.31,35.12 A 5.25,5.25 0 0,0 21.78,38.65 V 38.63 A 9.7,9.7 0 0,0 25.77,40.08 L 26.18,40.12 H 26.26 C 27.08,40.2 27.86,40.17 28.62,40.06 A 1.23,1.23 0 0,0 28.62,40.15 C 28.62,40.63 28.89,41.03 29.24,41.07 C 28.53,42.27 27.95,43.87 27.95,43.87 C 27.92,43.95 27.87,44.08 27.81,44.12 C 27.63,44.16 27.61,44.17 27.43,44.23 C 27.36,44.17 26.8,44.06 26.23,44.28 C 25.91,44.42 25.59,44.68 25.38,45.11 C 25.61,44.92 26.04,44.61 26.4,44.66 C 25.98,44.9 25.25,45.35 25.17,46 C 25.17,46 27.68,44.25 28.92,44.57 C 28.92,44.57 28.74,44.77 29.16,45.53 L 29.36,44.83 C 29.58,44.15 28.72,44.05 28.36,44.03 S 28.4,43.91 28.47,43.73 C 28.69,43.19 29.18,41.98 29.73,41.11 A 0.3,0.3 0 0,0 29.75,41.06 L 29.65,40.92 L 29.75,40.78 C 29.83,40.67 29.93,40.48 29.93,40.22 C 29.93,40.02 29.88,39.77 29.74,39.46 L 30.06,39.31 L 30.11,39.43 L 30.13,39.47 L 30.16,39.54 L 30.17,39.58 L 30.2,39.66 V 39.69 L 32.04,39.14 L 31.64,38.81 L 31.62,38.79 H 31.61 L 24.66,32.49 C 26.59,33.42 28.84,34.51 32.66,36.27 C 36.44,38 38.83,39 40.06,39.5 L 40.09,39.52 L 40.55,39.7 L 41.07,39.9 L 41.14,39.88 L 27.09,30.3 L 35.77,24.34 Z M 26.04,27.29 L 23.94,28.87 L 25.45,25.58 A 9,9 0 0,1 26.05,27.28 Z M 33.52,38.62 L 33.57,38.87 L 36.02,40.31 L 36.64,40.66 L 36.3,39.8 C 38.32,40.39 39.96,40.42 41.05,39.91 C 39.15,40.47 34.43,38.89 33.52,38.62 Z" fill="rgb(238, 43, 49)"/>
<defs>
<linearGradient id="a" x1="10.42" x2="68.15" y1="9.71" y2="76.02" gradientUnits="userSpaceOnUse">
<stop stop-color="rgb(25, 29, 31)" offset="0"/>
<stop stop-color="rgb(5, 5, 8)" offset="1"/>
</linearGradient>
</defs>
</svg>
