<?xml version="1.0" encoding="UTF-8"?>
<!-- generated by Finnhub -->
<svg viewBox="0 0 55.5 55.5" xmlns="http://www.w3.org/2000/svg">
<path d="M 0,0 H 55.5 V 55.5 H 0 Z" fill="url(#a)"/>
<path d="M 28.99,28.985 V 14.86 C 29,13.92 28.95,13.8 27.88,14.26 C 27.17,14.62 26.45,14.86 25.62,14.98 L 25.27,15.06 C 24.92,15.12 24.55,15.19 24.55,15.45 C 24.55,15.8 24.9,15.8 25.15,15.8 C 26.81,15.8 27,16.63 27,17.69 V 29 H 13.24 C 13.12,29 13,29.14 13,29.29 V 30.71 C 13,30.86 13.12,31 13.24,31 H 27 V 41.46 L 27.03,41.98 C 27.06,42.33 27.09,42.7 27.02,43.02 C 26.9,43.98 27.49,43.98 27.85,43.02 C 28.21,42.3 28.32,42.18 29.04,42.66 A 7.76,7.76 0 0,0 33.42,44 C 34.77,44 36.05,43.69 37.02,42.6 C 39.99,39.35 39.4,32 33.68,32 A 8.1,8.1 0 0,0 29,33.84 V 31 H 42.76 C 42.88,31 43,30.86 43,30.71 V 29.3 C 43,29.15 42.88,29.01 42.76,29.01 H 29 Z M 29.87,42.35 C 29.4,41.75 29,41.15 29,40.44 V 35.52 C 29,34.2 31.18,33.36 32.5,33.36 C 36.78,33.36 38.56,39.84 36.06,42.59 A 3.59,3.59 0 0,1 33.36,43.75 A 4.33,4.33 0 0,1 29.87,42.35 Z M 13,22 C 13,20.37 13.61,18.87 14.84,17.75 A 5.84,5.84 0 0,1 19.24,16 C 20.96,16 22.31,16.5 23.41,17.63 A 5.72,5.72 0 0,1 25,21.88 C 25,23.63 24.39,25.13 23.16,26.25 A 5.84,5.84 0 0,1 18.76,28 C 17.04,28 15.69,27.5 14.59,26.37 A 6.82,6.82 0 0,1 13,22 Z M 14.96,21.25 C 14.96,23 15.33,24.5 16.18,25.63 C 17.04,26.75 18.02,27.38 19.24,27.38 C 20.47,27.38 21.44,27 22.06,26.13 C 22.8,25.25 23.04,24 23.04,22.5 C 23.04,20.75 22.67,19.25 21.82,18.12 A 3.3,3.3 0 0,0 18.88,16.5 C 17.65,16.5 16.68,16.88 16.06,17.75 C 15.33,18.63 14.96,19.75 14.96,21.25 Z" fill="rgb(254, 254, 253)"/>
<path d="M 32.74,18.415 L 36.35,27.46 C 36.48,27.86 36.59,28 36.83,28 C 36.94,28 36.94,28 37.06,27.87 C 37.17,27.73 37.17,27.6 37.29,27.47 L 41.6,17.89 C 41.83,17.49 41.95,17.21 42.07,17.08 C 42.18,16.94 42.3,16.81 42.42,16.81 C 42.42,16.67 42.53,16.67 42.65,16.67 C 42.88,16.67 43,16.54 43,16.4 C 43,16.27 43,16.13 42.88,16.13 C 42.77,16 42.65,16 42.53,16 H 39.03 C 38.81,16 38.69,16.13 38.69,16.13 C 38.57,16.27 38.57,16.27 38.57,16.4 C 38.57,16.67 38.69,16.8 39.04,16.8 H 39.27 C 39.62,16.94 39.85,17.08 39.97,17.21 C 40.09,17.35 40.2,17.61 40.2,17.89 C 40.2,18.29 40.2,18.69 40.09,19.1 C 39.97,19.5 39.85,19.91 39.62,20.45 L 37.64,24.9 L 37.52,25.03 H 37.29 S 37.17,25.03 37.17,24.9 L 34.5,17.89 V 17.49 C 34.5,17.35 34.5,17.21 34.61,17.08 C 34.78,16.88 34.94,16.81 35.19,16.81 C 35.66,16.81 35.89,16.54 35.89,16.41 C 35.89,16.27 35.89,16.13 35.78,16 H 31.47 C 31.25,16 31,16.19 31,16.4 C 31,16.65 31.48,16.94 31.7,16.94 C 31.93,17.08 32.16,17.21 32.28,17.48 C 32.4,17.75 32.63,18.02 32.75,18.43 Z" fill="rgb(254, 254, 253)"/>
<defs>
<linearGradient id="a" x1="10.42" x2="68.15" y1="9.71" y2="76.02" gradientUnits="userSpaceOnUse">
<stop stop-color="rgb(25, 29, 31)" offset="0"/>
<stop stop-color="rgb(5, 5, 8)" offset="1"/>
</linearGradient>
</defs>
</svg>
