<?xml version="1.0" encoding="UTF-8"?>
<!-- generated by Finnhub -->
<svg viewBox="0 0 55.5 55.5" xmlns="http://www.w3.org/2000/svg">
<path d="M 0,0 H 55.5 V 55.5 H 0 Z" fill="rgb(239, 242, 248)"/>
<path d="M 13.49,32.985 A 4.5,4.5 0 1,0 13.5,24 A 4.5,4.5 0 0,0 13.5,33 Z M 13.5,35 A 6.5,6.5 0 1,0 13.5,22 A 6.5,6.5 0 0,0 13.5,35 Z" fill="rgb(48, 49, 49)" fill-rule="evenodd"/>
<path d="M 23.959999999999997,33.785 L 20,24 H 22.2 L 25.52,32.42 L 28.84,24 H 31 L 27.05,33.8 C 26.78,34.36 26.32,35 25.52,35 C 24.62,35 24.12,34.2 23.97,33.8 Z M 46,20 H 48 V 29.5 H 46 Z" fill="rgb(48, 49, 49)"/>
<path d="M 45.99,29.485 A 3.5,3.5 0 1,1 45,27.05 V 24.6 A 5.5,5.5 0 1,0 46,25.26 V 29.5 Z" fill="rgb(48, 49, 49)"/>
<path d="M 34.04,18.995 C 36.78,15.77 36.83,14.31 36.52,14 C 37.61,14.86 38.27,16.82 35.3,20.13 C 32.34,23.43 31.75,25.53 31.83,26.16 C 31.43,25.13 31.32,22.26 34.05,19.01 Z" fill="rgb(85, 178, 75)"/>
<path d="M 34.04,23.985 C 36.78,20.75 36.83,19.3 36.52,18.98 C 37.61,19.84 38.27,21.8 35.3,25.1 C 32.34,28.4 31.75,30.5 31.83,31.14 C 31.43,30.11 31.32,27.24 34.05,23.99 Z" fill="rgb(6, 123, 187)"/>
<path d="M 34.04,28.835 C 36.78,25.61 36.83,24.15 36.52,23.84 C 37.61,24.71 38.27,26.66 35.3,29.97 C 32.34,33.27 31.75,35.37 31.83,36 C 31.43,34.97 31.32,32.1 34.05,28.85 Z" fill="rgb(85, 178, 75)"/>
</svg>
