<?xml version="1.0" encoding="UTF-8"?>
<!-- generated by Finnhub -->
<svg viewBox="0 0 55.5 55.5" xmlns="http://www.w3.org/2000/svg">
<path d="M 0,0 H 55.5 V 55.5 H 0 Z" fill="rgb(112, 209, 182)"/>
<path d="M 33.830000000000005,31.974999999999998 A 6.43,6.43 0 0,1 30.56,31.07 L 28.38,33.33 C 28.21,33.42 28.04,33.5 27.96,33.5 A 1.2,1.2 0 0,1 27.46,33.33 L 25.27,31.15 C 24.35,31.65 23.17,31.99 21.99,31.99 A 6.56,6.56 0 1,1 27.96,22.67 A 6.4,6.4 0 0,1 33.84,18.89 A 6.56,6.56 0 0,1 33.84,31.99 Z M 44,28.04 A 16.1,16.1 0 0,0 40.14,17.63 L 41.23,15.36 A 0.52,0.52 0 0,0 41.14,14.77 C 41.06,14.6 40.81,14.52 40.64,14.52 L 37.2,14.94 A 15.7,15.7 0 0,0 27.96,12 C 24.68,12 21.49,13 18.8,14.94 L 15.36,14.52 A 0.76,0.76 0 0,0 14.77,14.77 A 0.72,0.72 0 0,0 14.77,15.36 L 15.87,17.63 A 15.67,15.67 0 0,0 12,28.04 V 28.46 L 13.18,29.39 C 14.86,30.99 16.62,32.49 18.72,33.92 C 22.83,36.78 22.75,39.38 22.16,41.65 L 21.74,42.65 V 42.74 A 17.1,17.1 0 0,0 27.96,44 C 30.14,44 32.24,43.58 34.09,42.74 L 33.67,41.64 C 33.08,39.38 33,36.78 37.11,33.92 A 42.25,42.25 0 0,0 42.25,29.77 C 42.75,29.31 44,28.45 44,28.04 Z" fill="rgb(254, 254, 253)"/>
<path d="M 43.74,30.085 L 42.32,31.36 A 53.3,53.3 0 0,1 37.78,34.88 C 34.43,37.24 34.34,39.25 34.76,41.1 C 34.76,41.1 34.93,41.6 35.18,42.2 C 35.18,42.28 35.27,42.28 35.27,42.28 V 42.19 V 42.28 V 42.19 A 15.8,15.8 0 0,0 43.83,30.09 H 43.75 Z M 21.07,41.1 C 21.49,39.25 21.41,37.24 18.05,34.88 A 53.34,53.34 0 0,1 13.51,31.36 L 12.17,30.35 C 12.92,35.47 16.12,39.84 20.57,42.19 C 20.9,41.6 21.07,41.1 21.07,41.1 Z M 27.96,32.11 L 26.28,30.43 A 7.22,7.22 0 0,0 27.96,28.25 C 28.38,29.09 28.88,29.76 29.64,30.43 L 27.96,32.11 Z M 24.77,26.57 C 23.93,27.24 23,27.57 21.99,27.57 C 20.99,27.57 20.06,27.24 19.31,26.57 A 0.65,0.65 0 0,0 18.47,26.74 C 18.22,26.99 18.3,27.33 18.55,27.58 A 5.69,5.69 0 0,0 25.44,27.58 C 25.77,27.33 25.77,26.98 25.61,26.74 C 25.35,26.49 25.01,26.4 24.77,26.57 Z M 16.7,25.39 C 16.7,22.45 19.14,20.1 22.08,20.1 A 5.3,5.3 0 0,1 27.37,24.89 C 27.45,25.23 27.45,25.65 27.37,25.99 A 5.36,5.36 0 0,1 16.7,25.4 Z M 36.52,26.57 C 35.68,27.24 34.76,27.57 33.75,27.57 C 32.75,27.57 31.82,27.24 31.07,26.57 A 0.65,0.65 0 0,0 30.23,26.74 C 29.97,26.99 30.06,27.33 30.31,27.58 A 5.69,5.69 0 0,0 37.2,27.58 C 37.53,27.33 37.53,26.98 37.36,26.74 C 37.11,26.49 36.78,26.4 36.52,26.57 Z M 33.92,20.1 A 5.34,5.34 0 1,1 33.92,30.77 A 5.44,5.44 0 0,1 28.55,25.98 V 24.9 A 5.44,5.44 0 0,1 33.92,20.11 Z" fill="rgb(254, 254, 253)"/>
</svg>
