<?xml version="1.0" encoding="UTF-8"?>
<!-- generated by Finnhub -->
<svg viewBox="0 0 55.5 55.5" xmlns="http://www.w3.org/2000/svg">
<path d="M 0,0 H 55.5 V 55.5 H 0 Z" fill="rgb(239, 242, 248)"/>
<path d="M 51.99,19.985 H 47 V 36 H 52 V 20 Z" fill="rgb(147, 142, 187)"/>
<path d="M 3.99,19.985 H 46 V 36 H 4 V 20 Z M 24.5,23 V 23.42 H 21.45 V 26 H 24.38 V 26.43 H 21.45 V 30 H 21 V 23 H 24.5 Z M 10.5,23 C 8.6,23 7,24.58 7,26.5 S 8.6,30 10.5,30 S 14,28.42 14,26.5 S 12.4,23 10.5,23 Z M 10.5,23.4 A 3.11,3.11 0 0,1 13.57,26.5 C 13.57,28.18 12.17,29.6 10.5,29.6 A 3.11,3.11 0 0,1 7.43,26.5 A 3.1,3.1 0 0,1 10.5,23.4 Z M 40.27,30 H 39 V 23 H 40.27 C 41.29,23 42.11,23.17 42.88,23.88 A 3.53,3.53 0 0,1 44,26.47 A 3.63,3.63 0 0,1 42.92,29.07 C 42.14,29.81 41.32,30 40.27,30 Z M 39.45,23.42 V 29.58 H 40.25 C 41.18,29.58 41.95,29.4 42.62,28.74 A 3.1,3.1 0 0,0 43.55,26.44 A 3.17,3.17 0 0,0 42.54,24.18 C 41.86,23.58 41.14,23.42 40.26,23.42 H 39.45 Z M 34.82,23 C 35.92,23 36.72,23.81 36.72,24.81 C 36.72,25.68 36.07,26.41 35.21,26.58 L 38.25,29.3 V 30 L 34.08,26.28 H 34.46 C 35.5,26.28 36.24,25.74 36.22,24.83 C 36.2,23.81 35.57,23.39 34.4,23.4 H 33 V 30 H 32.5 V 23 H 34.82 Z M 26.5,25.16 A 2.44,2.44 0 0,0 27.6,28.76 A 2.39,2.39 0 0,0 29.85,28.52 A 2.43,2.43 0 0,0 30.88,26.02 A 2.44,2.44 0 0,0 28.98,24.12 A 2.4,2.4 0 0,0 26.5,25.16 Z M 28.12,29.33 C 28.67,29.33 29.18,29.12 29.62,28.86 L 29.44,28.92 C 29.18,29.02 28.86,29.12 28.61,29.12 A 2.66,2.66 0 0,1 25.89,26.52 A 2.66,2.66 0 0,1 29.54,24.1 C 29.12,23.87 28.64,23.68 28.12,23.68 C 26.52,23.68 25.22,24.94 25.22,26.5 C 25.22,28.06 26.52,29.33 28.12,29.33 Z M 28.5,23 A 3.5,3.5 0 1,0 28.5,30 A 3.5,3.5 0 0,0 28.5,23 Z M 16.43,26.5 L 13.39,30 H 14 L 16.76,26.83 L 19.48,29.98 H 20.03 L 17.05,26.46 L 20.04,23 H 19.48 L 16.72,26.14 L 13.93,23 H 13.41 L 16.43,26.5 Z M 7.5,31 H 8 V 33 H 7.5 V 31 Z M 10,33 H 10.45 V 31.66 L 11.69,33 H 12 V 31 H 11.55 V 32.34 L 10.31,31 H 10 V 33 Z M 14.57,31 C 14.76,31 15.02,31.08 15.16,31.21 L 14.96,31.47 A 0.4,0.4 0 0,0 14.63,31.31 C 14.5,31.31 14.37,31.41 14.37,31.53 C 14.37,31.66 14.52,31.71 14.69,31.78 C 14.93,31.87 15.23,31.98 15.23,32.35 C 15.23,32.73 14.96,33 14.52,33 A 0.78,0.78 0 0,1 13.85,32.63 L 14.12,32.4 A 0.44,0.44 0 0,0 14.52,32.67 A 0.26,0.26 0 0,0 14.77,32.51 A 0.27,0.27 0 0,0 14.79,32.4 C 14.79,32.21 14.61,32.15 14.45,32.1 L 14.42,32.09 C 14.14,31.99 13.94,31.86 13.94,31.57 C 13.94,31.25 14.2,31 14.57,31 Z M 18,31.34 H 18.5 V 31 H 17 V 31.34 H 17.5 V 33 H 18 V 31.34 Z M 21.5,31.6 C 21.5,31.87 21.27,32.12 20.99,32.16 L 21.69,33 H 21.1 L 20.5,32.2 V 33 H 20 V 31 H 20.66 C 21.16,31 21.5,31.18 21.5,31.6 Z M 20.55,31.32 H 20.5 V 32 H 20.55 C 20.82,32 21,31.86 21,31.61 C 21,31.37 20.81,31.32 20.55,31.32 Z M 23,32.17 C 23,32.64 23.28,33 24,33 S 25,32.64 25,32.17 V 31 H 24.5 V 32.09 C 24.5,32.33 24.45,32.67 24,32.67 S 23.5,32.33 23.5,32.09 V 31 H 23 V 32.17 Z M 29.6,33 H 29.11 L 28.91,31.78 L 28.34,33 H 28.17 L 27.62,31.78 L 27.39,33 H 26.9 L 27.32,31 H 27.67 L 28.29,32.27 L 28.88,31 H 29.23 L 29.6,33 Z M 32.3,31.34 V 31 H 31 V 33 H 32.3 V 32.66 H 31.5 V 32.12 H 32.26 V 31.78 H 31.5 V 31.34 H 32.3 Z M 34.5,33 H 34 V 31 H 34.5 L 35.5,32.34 V 31 H 36 V 33 H 35.5 L 34.5,31.66 V 33 Z M 39,31.34 H 39.5 V 31 H 38 V 31.34 H 38.5 V 33 H 39 V 31.34 Z M 42.1,31 C 42.31,31 42.62,31.08 42.78,31.21 L 42.55,31.47 A 0.46,0.46 0 0,0 42.38,31.35 A 0.53,0.53 0 0,0 42.17,31.31 C 42.01,31.31 41.87,31.41 41.87,31.53 C 41.87,31.66 42.04,31.71 42.24,31.78 C 42.52,31.87 42.86,31.98 42.86,32.35 C 42.86,32.73 42.55,33 42.03,33 A 1,1 0 0,1 41.59,32.9 A 0.87,0.87 0 0,1 41.26,32.63 L 41.58,32.4 C 41.62,32.48 41.68,32.54 41.76,32.6 C 41.84,32.64 41.93,32.67 42.03,32.67 L 42.16,32.66 A 0.32,0.32 0 0,0 42.26,32.6 A 0.27,0.27 0 0,0 42.33,32.5 A 0.24,0.24 0 0,0 42.35,32.4 C 42.35,32.21 42.15,32.15 41.95,32.1 L 41.92,32.09 C 41.6,31.99 41.36,31.86 41.36,31.57 C 41.36,31.25 41.67,31 42.09,31 Z" fill="rgb(42, 41, 103)" fill-rule="evenodd"/>
</svg>
