<?xml version="1.0" encoding="UTF-8"?>
<!-- generated by Finnhub -->
<svg viewBox="0 0 55.5 55.5" xmlns="http://www.w3.org/2000/svg">
<path d="M 0,0 H 55.5 V 55.5 H 0 Z" fill="rgb(239, 242, 248)"/>
<circle cx="12" cy="27" r="6" fill="rgb(43, 53, 100)"/>
<circle cx="12" cy="27" r="5" fill="rgb(231, 230, 235)"/>
<path d="M 11.870000000000001,23.235 C 12.2,23.7 11.84,24.63 11.08,25.32 C 10.32,26.02 9.44,26.21 9.12,25.75 C 8.8,25.3 9.16,24.37 9.92,23.68 C 10.68,22.98 11.56,22.79 11.88,23.25 Z" fill="rgb(250, 250, 247)"/>
<path d="M 46.99,32.985 H 46 V 25 H 47 V 27.05 C 47.4,26.19 47.9,25.64 48.29,25.38 C 48.69,25.13 49.09,25 49.5,25 L 50,25.03 V 26 H 49.74 C 48.43,26 47.05,27.64 47,28.9 V 33 Z M 43,30.5 L 43.87,30.76 C 43.42,32.18 42,33 40.57,33 C 38.34,33 37,31.15 37,29.04 C 37,26.94 38.36,25 40.6,25 C 43.18,25 43.98,26.89 44,29 H 38.15 C 38.15,30.46 38.98,32.03 40.65,32.03 C 41.65,32.03 42.59,31.5 43,30.5 Z M 43,28 C 42.97,26.8 41.96,26 40.63,26 C 39.33,26 38.24,26.77 38.15,28 H 43 Z M 36.5,32.01 V 32.96 C 36.05,33.02 35.83,33 35.5,33 C 33.91,33 33,32.22 33,30.66 V 26 H 32 V 25 H 33 V 23.1 L 34,23 V 25 H 36 V 26 H 34 V 30.85 C 34,31.65 34.8,32.05 35.68,32.05 C 35.98,32.05 36.13,32.07 36.5,32.01 Z M 25,30.83 L 26.21,30.6 C 26.48,31.55 27.33,32 28.76,32 C 29.54,32 31,31.73 31,30.77 C 31,30.17 30.2,29.8 29.26,29.63 L 27.54,29.33 C 26.43,29.13 25.34,28.49 25.34,27.23 C 25.34,25.66 27.01,25 28.35,25 C 30.13,25 31.22,25.64 31.64,26.93 L 30.47,27.16 C 30.14,26.37 29.44,26 28.4,26 C 27.7,26 26.5,26.22 26.5,27.1 C 26.5,27.66 27.06,28.02 27.9,28.16 L 29.5,28.43 C 31.17,28.71 32,29.45 32,30.67 C 32,32.42 30.03,33 28.6,33 C 26.66,33 25.46,32.28 25,30.83 Z M 25,25 L 21.62,34.04 C 21.13,35.34 20.35,36 19.28,36 C 18.94,36 18.56,35.94 18.15,35.83 V 34.85 C 18.49,34.92 18.78,34.95 19.03,34.95 C 19.44,34.95 19.79,34.85 20.07,34.61 C 20.35,34.38 20.63,33.83 20.91,32.95 L 18,25 H 19.23 L 21.5,31.5 L 23.9,25 H 25 Z" fill="rgb(43, 53, 100)"/>
</svg>
