<?xml version="1.0" encoding="UTF-8"?>
<!-- generated by Finnhub -->
<svg viewBox="0 0 55.5 55.5" xmlns="http://www.w3.org/2000/svg">
<path d="M 0,0 H 55.5 V 55.5 H 0 Z" fill="rgb(239, 242, 248)"/>
<path d="M 19.9,46.985 L 27.9,31 H 17 L 36.09,9 L 28.09,25 H 39 L 19.91,47 Z" fill="url(#a)"/>
<path d="M 22.319999999999997,16.285 A 13.5,13.5 0 0,0 17.12,20.75 C 13.17,26.65 14.95,34.85 20.76,38.9 C 21.06,39.1 21.36,39.28 21.66,39.46 L 19.96,42.96 C 18.86,42.34 17.65,41.46 17.74,41.16 L 18.02,40.16 L 18.21,39.5 C 18.36,38.98 18.03,38.72 17.66,38.41 C 17.53,38.31 17.4,38.2 17.28,38.07 C 16.84,37.61 16.32,37.82 15.81,38.03 C 15.27,38.25 14.74,38.46 14.33,37.89 L 13.96,37.39 C 13.21,36.43 11.99,34.86 12.66,34.21 A 130.96,130.96 0 0,1 14.03,32.88 C 13.91,32.13 13.72,31.4 13.45,30.7 L 12.58,30.48 L 11.87,30.3 C 11.12,30.11 11.12,30.04 11.08,29.35 L 11.07,29.07 C 11.04,28.69 10.87,25.97 11.22,25.88 L 12.06,25.67 L 12.8,25.48 A 1.76,1.76 0 0,0 13.56,22.68 A 5.49,5.49 0 0,0 13.23,22.41 C 12.88,22.13 12.4,21.75 12.35,21.51 C 12.75,20.61 13.22,19.76 13.78,18.96 L 13.98,18.61 C 14.22,18.17 14.51,17.61 14.88,17.72 L 15.08,17.79 L 16.53,18.19 C 17.08,18.35 17.49,17.88 17.88,17.42 C 18.03,17.24 18.18,17.07 18.32,16.94 C 18.37,16.74 18.2,16.3 18.07,15.97 L 17.95,15.65 A 5.7,5.7 0 0,0 17.83,15.27 C 17.68,14.85 17.63,14.69 18.14,14.32 A 17.71,17.71 0 0,1 20.39,12.84 C 21.03,12.44 21.4,12.22 22.02,12.85 A 172.67,172.67 0 0,1 23.15,14.02 C 23.89,13.9 24.62,13.7 25.32,13.44 L 25.72,11.86 C 25.92,11.03 26.29,11.03 27.01,11.03 H 27.54 C 28.04,11 30.06,10.93 30.14,11.21 L 30.53,12.79 L 30.64,13.16 L 29.06,15 C 26.76,14.9 24.43,15.29 22.33,16.3 Z M 44.43,30.23 L 43.21,30.53 C 42.45,30.73 42.38,31.06 42.27,31.64 C 42.23,31.84 42.19,32.06 42.11,32.32 C 41.93,32.9 42.06,33.02 42.39,33.29 L 42.69,33.55 C 42.74,33.61 42.84,33.69 42.96,33.79 C 43.24,34.01 43.62,34.31 43.66,34.51 C 43.3,35.35 41.6,38.42 41.14,38.29 A 135.41,135.41 0 0,1 39.48,37.82 C 38.97,37.67 38.7,38 38.4,38.37 C 38.3,38.49 38.18,38.63 38.05,38.75 C 37.65,39.13 37.71,39.32 37.85,39.71 L 37.97,40.07 L 38.12,40.52 C 38.3,41.01 38.42,41.31 37.87,41.7 C 37.29,42.14 36.68,42.55 36.05,42.92 L 35.67,43.16 C 35.16,43.49 34.63,43.83 34.19,43.36 L 32.97,42.11 A 4.57,4.57 0 0,0 30.69,42.58 L 30.29,44.16 C 30.1,44.91 30.03,44.92 29.34,44.96 H 29.06 A 16.8,16.8 0 0,1 25.89,44.86 C 25.69,44.5 25.58,44.1 25.56,43.68 L 27.7,41 C 28.66,41 30.3,40.98 31.33,40.7 C 34.65,39.8 36.73,37.74 38.88,35.26 C 42.9,29.27 41.06,21.16 35.25,17.12 C 34.9,16.88 34.55,16.67 34.18,16.47 L 35.92,13.02 C 37.05,13.61 38.41,14.42 38.27,14.86 L 37.95,16.01 L 37.75,16.74 C 37.65,17.06 38.24,17.57 38.68,17.95 L 39.07,18.31 C 39.5,18.43 39.89,18.22 40.27,18.03 C 40.77,17.76 41.24,17.51 41.68,18.13 A 18.01,18.01 0 0,1 43.33,20.77 C 43.65,21.37 43.71,21.47 43.15,22.01 L 41.98,23.14 C 42.1,23.88 42.29,24.61 42.56,25.32 L 43.26,25.5 L 44.42,25.79 C 45.16,25.98 45.08,30.06 44.79,30.13 L 44.42,30.23 Z" fill="rgb(1, 118, 53)"/>
<defs>
<linearGradient id="a" x1="39" x2="17" y1="26.01" y2="26.47" gradientUnits="userSpaceOnUse">
<stop stop-color="rgb(192, 141, 2)" offset=".09"/>
<stop stop-color="rgb(247, 199, 95)" offset=".29"/>
<stop stop-color="rgb(254, 220, 113)" offset=".4"/>
<stop stop-color="rgb(196, 136, 2)" offset=".69"/>
<stop stop-color="rgb(192, 141, 2)" offset=".98"/>
</linearGradient>
</defs>
</svg>
