<?xml version="1.0" encoding="UTF-8"?>
<!-- generated by Finnhub -->
<svg viewBox="0 0 55.5 55.5" xmlns="http://www.w3.org/2000/svg">
<path d="M 0,0 H 55.5 V 55.5 H 0 Z" fill="rgb(239, 242, 248)"/>
<path d="M 9.44,26.915 C 9.45,27.33 9.17,27.65 8.83,27.66 C 8.5,27.67 8.23,27.38 8.23,27 C 8.24,26.63 8.51,26.31 8.83,26.29 C 9.17,26.26 9.45,26.55 9.45,26.93 Z M 8.12,27.01 C 8.12,27.38 7.87,27.7 7.58,27.71 C 7.3,27.72 7.08,27.45 7.08,27.09 C 7.09,26.73 7.32,26.43 7.6,26.39 C 7.89,26.37 8.13,26.64 8.12,27.01 Z M 6.98,27.1 C 6.98,27.45 6.78,27.75 6.53,27.76 C 6.31,27.78 6.14,27.51 6.15,27.18 C 6.16,26.85 6.35,26.55 6.56,26.52 C 6.8,26.49 6.99,26.75 6.98,27.1 Z M 6.08,27.19 C 6.07,27.52 5.91,27.79 5.74,27.81 C 5.58,27.83 5.47,27.58 5.48,27.27 C 5.5,26.97 5.63,26.69 5.78,26.67 C 5.95,26.62 6.08,26.86 6.08,27.19 Z M 5.43,27.29 C 5.43,27.59 5.33,27.85 5.23,27.85 C 5.14,27.87 5.09,27.65 5.1,27.37 C 5.12,27.1 5.2,26.85 5.28,26.81 C 5.38,26.77 5.45,26.98 5.43,27.28 Z M 5.08,27.39 C 5.07,27.65 5.03,27.89 5.01,27.89 L 5,27.88 C 5,27.58 5.02,27.28 5.06,27 V 26.96 C 5.09,26.93 5.1,27.11 5.08,27.39 Z M 5.08,28.65 C 5.08,28.35 5.03,28.14 5.01,28.14 V 28.41 C 5.02,28.62 5.04,28.84 5.07,29.05 V 29.09 C 5.1,29.12 5.11,28.91 5.09,28.65 Z M 5.58,31.05 A 41.6,41.6 0 0,0 5.64,31.2 L 5.59,31.05 Z M 5.26,29.91 A 2.46,2.46 0 0,0 5.12,29.42 C 5.17,29.69 5.23,29.97 5.3,30.23 L 5.26,29.91 Z M 5.54,25.07 L 5.48,25.22 L 5.54,25.07 Z M 5.24,26.13 C 5.19,26.36 5.14,26.59 5.11,26.63 V 26.64 C 5.16,26.37 5.21,26.09 5.29,25.83 L 5.24,26.13 Z M 5.44,28.68 C 5.43,28.37 5.33,28.13 5.22,28.13 C 5.14,28.13 5.09,28.36 5.11,28.65 C 5.13,28.92 5.21,29.17 5.29,29.19 C 5.39,29.22 5.47,28.99 5.44,28.68 Z M 6.34,32.44 C 6.26,32.29 6.14,32.12 6.08,32.04 A 7.43,7.43 0 0,0 6.36,32.54 C 6.43,32.63 6.42,32.58 6.34,32.44 Z M 5.9,31.37 A 1.1,1.1 0 0,0 5.64,30.89 C 5.57,30.84 5.58,30.95 5.64,31.14 C 5.71,31.33 5.82,31.54 5.88,31.6 C 5.96,31.67 5.97,31.57 5.9,31.36 Z M 5.6,30.09 C 5.56,29.82 5.44,29.59 5.35,29.56 C 5.27,29.53 5.25,29.7 5.3,29.94 S 5.44,30.41 5.52,30.46 C 5.61,30.51 5.65,30.35 5.6,30.09 Z M 6.27,23.63 L 6.02,24.03 L 6,24.07 C 6.1,23.87 6.22,23.69 6.34,23.5 L 6.27,23.63 Z M 5.84,24.66 C 5.78,24.86 5.67,25.06 5.59,25.14 C 5.53,25.2 5.54,25.1 5.6,24.92 C 5.67,24.74 5.77,24.53 5.83,24.45 C 5.9,24.37 5.91,24.46 5.84,24.65 Z M 5.56,25.89 C 5.52,26.15 5.41,26.39 5.32,26.44 C 5.25,26.48 5.22,26.32 5.27,26.09 C 5.32,25.86 5.41,25.62 5.47,25.56 C 5.57,25.49 5.6,25.64 5.57,25.89 Z M 6.09,28.71 C 6.07,28.37 5.91,28.1 5.74,28.11 C 5.58,28.11 5.48,28.37 5.49,28.68 C 5.51,28.99 5.65,29.26 5.81,29.28 C 5.98,29.29 6.11,29.04 6.09,28.71 Z M 7.38,33.72 C 7.3,33.62 7.18,33.48 7.08,33.42 C 7,33.34 7,33.37 7.08,33.46 L 7.11,33.5 L 7.13,33.53 L 7.15,33.54 L 7.23,33.63 L 7.35,33.75 C 7.43,33.82 7.45,33.81 7.38,33.72 Z M 6.88,32.82 A 0.95,0.95 0 0,0 6.55,32.42 C 6.45,32.36 6.43,32.43 6.5,32.59 C 6.57,32.73 6.7,32.9 6.81,32.98 C 6.91,33.04 6.95,32.98 6.89,32.83 Z M 6.5,31.64 C 6.44,31.41 6.28,31.19 6.15,31.14 C 6.02,31.1 5.97,31.24 6.03,31.44 C 6.1,31.65 6.24,31.87 6.36,31.93 C 6.49,31.99 6.56,31.86 6.5,31.64 Z M 6.23,30.24 C 6.19,29.95 6.03,29.7 5.87,29.68 C 5.72,29.65 5.65,29.85 5.69,30.12 C 5.74,30.38 5.89,30.62 6.03,30.67 C 6.18,30.71 6.28,30.52 6.23,30.24 Z M 7.25,22.37 L 6.98,22.67 L 6.92,22.72 C 7.04,22.58 7.16,22.44 7.29,22.32 L 7.25,22.37 Z M 6.77,23.19 C 6.71,23.35 6.57,23.53 6.47,23.59 C 6.37,23.67 6.35,23.61 6.42,23.47 C 6.49,23.33 6.62,23.16 6.72,23.07 C 6.81,23 6.84,23.05 6.78,23.19 Z M 6.41,24.32 C 6.36,24.54 6.21,24.77 6.08,24.83 C 5.96,24.88 5.91,24.77 5.97,24.56 C 6.03,24.36 6.17,24.14 6.28,24.06 C 6.4,24 6.47,24.1 6.41,24.32 Z M 6.18,25.68 C 6.14,25.96 5.98,26.22 5.83,26.26 C 5.69,26.3 5.62,26.12 5.65,25.86 C 5.7,25.6 5.83,25.35 5.97,25.29 C 6.12,25.23 6.21,25.4 6.17,25.69 Z M 7,28.72 C 6.98,28.36 6.77,28.07 6.53,28.08 C 6.3,28.09 6.14,28.38 6.16,28.71 C 6.18,29.04 6.37,29.33 6.59,29.34 C 6.83,29.35 7.02,29.07 6.99,28.72 Z M 8.57,34.75 A 2.42,2.42 0 0,0 8.23,34.52 L 8.59,34.77 L 8.57,34.75 Z M 8.08,34.13 A 0.82,0.82 0 0,0 7.75,33.83 C 7.63,33.77 7.59,33.81 7.65,33.91 C 7.72,34.01 7.86,34.13 7.98,34.21 C 8.1,34.26 8.15,34.23 8.08,34.13 Z M 7.67,33.14 A 0.69,0.69 0 0,0 7.28,32.74 C 7.13,32.68 7.07,32.78 7.13,32.94 C 7.2,33.11 7.36,33.28 7.5,33.34 C 7.65,33.4 7.73,33.31 7.67,33.14 Z M 7.35,31.87 C 7.29,31.62 7.1,31.39 6.91,31.35 C 6.74,31.31 6.64,31.47 6.7,31.71 C 6.75,31.93 6.94,32.15 7.1,32.21 C 7.29,32.25 7.4,32.1 7.35,31.87 Z M 7.12,30.36 C 7.08,30.05 6.87,29.78 6.66,29.76 C 6.46,29.76 6.33,29.97 6.36,30.26 C 6.4,30.55 6.6,30.8 6.79,30.84 C 7.01,30.88 7.15,30.66 7.12,30.36 Z M 8.34,21.41 L 8.14,21.55 L 8.34,21.41 Z M 7.92,21.9 C 7.86,22 7.72,22.14 7.6,22.2 C 7.48,22.27 7.45,22.24 7.51,22.15 C 7.58,22.06 7.71,21.95 7.82,21.87 C 7.92,21.8 7.97,21.81 7.92,21.9 Z M 7.52,22.8 A 0.78,0.78 0 0,1 7.15,23.22 C 7.01,23.29 6.95,23.21 7.01,23.05 A 0.9,0.9 0 0,1 7.36,22.65 C 7.5,22.58 7.58,22.65 7.52,22.8 Z M 7.23,24.02 C 7.19,24.26 7,24.49 6.83,24.54 C 6.65,24.6 6.55,24.46 6.6,24.24 C 6.65,24.02 6.82,23.8 6.99,23.73 S 7.27,23.79 7.23,24.02 Z M 7.04,25.48 C 7.02,25.78 6.82,26.06 6.61,26.09 C 6.41,26.13 6.28,25.93 6.31,25.64 C 6.34,25.36 6.52,25.1 6.71,25.04 C 6.93,24.99 7.07,25.18 7.04,25.48 Z M 8.14,28.72 C 8.13,28.34 7.87,28.04 7.57,28.05 C 7.29,28.05 7.07,28.36 7.09,28.72 C 7.11,29.08 7.35,29.37 7.63,29.38 C 7.93,29.38 8.16,29.09 8.13,28.72 H 8.14 Z M 9.39,35.13 A 0.85,0.85 0 0,0 9.09,34.95 C 8.99,34.91 8.93,34.91 8.99,34.97 C 9.04,35.02 9.16,35.09 9.28,35.14 C 9.38,35.19 9.44,35.19 9.39,35.14 Z M 9.01,34.45 C 8.96,34.34 8.8,34.2 8.64,34.15 C 8.49,34.11 8.42,34.17 8.47,34.28 C 8.53,34.39 8.69,34.52 8.83,34.57 C 8.98,34.61 9.06,34.57 9.01,34.45 Z M 8.7,33.4 A 0.61,0.61 0 0,0 8.27,32.99 C 8.08,32.95 7.97,33.06 8.03,33.24 C 8.09,33.42 8.27,33.59 8.45,33.64 C 8.64,33.69 8.75,33.58 8.7,33.4 Z M 8.44,32.04 C 8.41,31.78 8.18,31.54 7.94,31.52 C 7.72,31.49 7.59,31.67 7.64,31.92 C 7.68,32.16 7.89,32.39 8.11,32.42 C 8.34,32.46 8.49,32.29 8.45,32.04 Z M 8.26,30.44 C 8.23,30.12 7.99,29.85 7.72,29.84 C 7.46,29.82 7.29,30.07 7.32,30.37 C 7.36,30.68 7.59,30.95 7.84,30.97 C 8.1,31 8.29,30.77 8.26,30.45 Z M 9.18,20.93 C 9.14,20.97 9.01,21.05 8.9,21.1 C 8.8,21.16 8.75,21.16 8.8,21.12 L 9.08,20.95 C 9.18,20.9 9.23,20.89 9.18,20.93 Z M 8.81,21.51 C 8.77,21.61 8.61,21.75 8.47,21.8 C 8.32,21.86 8.25,21.82 8.3,21.72 C 8.35,21.62 8.5,21.5 8.64,21.44 C 8.78,21.38 8.86,21.41 8.81,21.51 Z M 8.51,22.48 A 0.62,0.62 0 0,1 8.11,22.88 C 7.93,22.94 7.82,22.84 7.87,22.68 A 0.69,0.69 0 0,1 8.27,22.28 C 8.45,22.22 8.57,22.31 8.52,22.48 Z M 8.31,23.76 C 8.27,24.01 8.06,24.26 7.83,24.3 C 7.61,24.34 7.47,24.19 7.52,23.94 C 7.56,23.71 7.76,23.48 7.97,23.43 C 8.18,23.38 8.34,23.53 8.3,23.76 Z M 8.17,25.3 C 8.16,25.62 7.92,25.9 7.66,25.94 C 7.41,25.97 7.23,25.75 7.25,25.44 C 7.28,25.14 7.5,24.87 7.75,24.83 C 8,24.78 8.19,25 8.17,25.3 Z M 9.49,28.7 C 9.48,28.31 9.19,28 8.85,28.01 C 8.52,28.02 8.27,28.34 8.28,28.71 C 8.3,29.09 8.58,29.39 8.9,29.4 C 9.24,29.4 9.5,29.09 9.5,28.7 Z M 10.7,35.72 Z M 10.4,35.42 C 10.36,35.35 10.22,35.27 10.1,35.24 C 9.96,35.21 9.89,35.24 9.92,35.29 C 9.96,35.35 10.09,35.42 10.22,35.45 C 10.35,35.48 10.43,35.47 10.4,35.41 Z M 10.13,34.68 C 10.09,34.56 9.92,34.43 9.74,34.4 C 9.56,34.37 9.46,34.44 9.51,34.57 C 9.55,34.68 9.71,34.8 9.88,34.83 C 10.06,34.87 10.17,34.8 10.13,34.68 Z M 9.9,33.58 C 9.86,33.38 9.65,33.2 9.43,33.18 C 9.21,33.14 9.07,33.28 9.11,33.48 C 9.16,33.66 9.36,33.83 9.57,33.86 C 9.78,33.89 9.93,33.76 9.9,33.58 Z M 9.7,32.15 A 0.6,0.6 0 0,0 9.17,31.63 C 8.91,31.61 8.74,31.81 8.77,32.07 C 8.81,32.33 9.04,32.55 9.3,32.58 C 9.55,32.6 9.74,32.41 9.7,32.15 Z M 9.57,30.49 C 9.55,30.16 9.27,29.88 8.97,29.88 S 8.47,30.13 8.49,30.46 C 8.52,30.78 8.78,31.05 9.07,31.06 C 9.37,31.08 9.6,30.82 9.57,30.49 Z M 10.11,20.59 C 10.08,20.63 9.95,20.7 9.81,20.74 C 9.69,20.78 9.62,20.78 9.66,20.73 C 9.7,20.69 9.83,20.63 9.94,20.58 C 10.07,20.54 10.14,20.54 10.11,20.58 Z M 9.86,21.21 C 9.83,21.31 9.66,21.45 9.49,21.49 C 9.32,21.53 9.22,21.47 9.26,21.36 C 9.3,21.26 9.46,21.15 9.62,21.1 C 9.78,21.06 9.89,21.1 9.86,21.2 Z M 9.66,22.22 C 9.64,22.4 9.44,22.59 9.23,22.62 C 9.02,22.67 8.87,22.56 8.91,22.37 C 8.94,22.2 9.14,22.03 9.34,21.98 C 9.54,21.94 9.69,22.05 9.67,22.22 Z M 9.53,23.56 A 0.62,0.62 0 0,1 9.03,24.1 C 8.77,24.14 8.59,23.96 8.62,23.7 A 0.64,0.64 0 0,1 9.12,23.2 C 9.37,23.15 9.55,23.31 9.53,23.56 Z M 9.46,25.17 C 9.46,25.5 9.19,25.79 8.89,25.81 C 8.59,25.84 8.38,25.6 8.39,25.28 C 8.41,24.97 8.66,24.68 8.95,24.65 C 9.25,24.62 9.47,24.85 9.46,25.17 Z M 11.66,35.92 A 0.81,0.81 0 0,0 11.43,35.87 C 11.33,35.85 11.26,35.85 11.28,35.87 L 11.5,35.9 L 11.65,35.92 Z M 11.49,35.58 C 11.47,35.52 11.33,35.45 11.19,35.44 C 11.04,35.42 10.94,35.46 10.97,35.52 C 10.99,35.58 11.13,35.64 11.27,35.66 C 11.41,35.67 11.51,35.64 11.49,35.58 Z M 11.33,34.82 C 11.31,34.69 11.13,34.57 10.95,34.56 C 10.75,34.54 10.63,34.63 10.65,34.76 C 10.68,34.88 10.85,34.99 11.04,35.01 C 11.22,35.03 11.36,34.94 11.34,34.82 Z M 11.2,33.68 C 11.18,33.48 10.97,33.3 10.72,33.28 C 10.49,33.28 10.32,33.43 10.35,33.62 C 10.38,33.82 10.59,33.98 10.82,34 C 11.05,34.01 11.22,33.87 11.2,33.68 Z M 11.26,20.14 L 11.1,20.18 L 11.01,20.2 L 11.26,20.14 Z M 11.16,20.35 C 11.13,20.4 11.01,20.46 10.86,20.49 C 10.72,20.52 10.63,20.49 10.66,20.45 C 10.68,20.4 10.8,20.35 10.94,20.32 C 11.07,20.29 11.17,20.31 11.15,20.35 Z M 11.03,21 C 11.02,21.11 10.85,21.23 10.66,21.26 S 10.35,21.21 10.36,21.1 C 10.39,21 10.56,20.89 10.73,20.86 C 10.92,20.83 11.05,20.89 11.03,20.99 Z M 10.94,22.04 C 10.93,22.23 10.73,22.4 10.49,22.44 C 10.26,22.46 10.09,22.34 10.11,22.14 C 10.13,21.97 10.33,21.8 10.55,21.77 C 10.78,21.74 10.95,21.87 10.95,22.04 Z M 10.89,23.42 C 10.89,23.68 10.65,23.92 10.36,23.95 C 10.08,23.97 9.86,23.78 9.89,23.52 C 9.91,23.26 10.14,23.04 10.41,23.02 C 10.68,22.98 10.9,23.16 10.89,23.42 Z M 12.67,35.99 C 12.67,35.97 12.57,35.96 12.46,35.96 C 12.35,35.96 12.26,35.96 12.28,35.98 L 12.48,36 L 12.68,35.99 Z M 12.64,35.63 C 12.64,35.57 12.51,35.51 12.35,35.51 C 12.2,35.51 12.08,35.56 12.09,35.62 C 12.11,35.68 12.23,35.73 12.39,35.74 C 12.53,35.74 12.64,35.7 12.64,35.64 Z M 12.61,34.86 C 12.61,34.73 12.43,34.61 12.23,34.61 S 11.88,34.71 11.9,34.85 C 11.9,34.97 12.08,35.07 12.27,35.07 C 12.47,35.07 12.62,34.98 12.61,34.86 Z M 12.58,33.69 C 12.57,33.49 12.36,33.32 12.11,33.32 C 11.86,33.32 11.67,33.49 11.68,33.69 C 11.7,33.89 11.91,34.04 12.15,34.05 C 12.39,34.05 12.59,33.89 12.58,33.69 Z M 12.28,20.01 L 12.08,20.03 A 2.75,2.75 0 0,1 12.28,20.01 Z M 12.27,20.23 C 12.27,20.28 12.15,20.33 12,20.35 C 11.84,20.35 11.73,20.33 11.74,20.27 C 11.75,20.23 11.88,20.18 12.02,20.17 C 12.16,20.17 12.27,20.19 12.27,20.23 Z M 12.27,20.89 C 12.27,21 12.11,21.11 11.92,21.12 C 11.72,21.14 11.57,21.05 11.57,20.94 C 11.58,20.83 11.74,20.73 11.93,20.72 C 12.12,20.7 12.27,20.78 12.27,20.89 Z M 12.29,21.94 C 12.29,22.14 12.09,22.3 11.85,22.32 C 11.6,22.33 11.41,22.19 11.42,22 C 11.42,21.82 11.62,21.66 11.86,21.64 C 12.09,21.64 12.29,21.76 12.29,21.94 Z M 12.33,23.34 C 12.33,23.61 12.09,23.84 11.8,23.85 C 11.5,23.87 11.27,23.65 11.28,23.39 C 11.28,23.13 11.51,22.92 11.8,22.89 C 12.09,22.89 12.33,23.08 12.33,23.34 Z M 13.7,35.93 C 13.7,35.92 13.63,35.91 13.51,35.93 C 13.41,35.93 13.31,35.95 13.31,35.97 H 13.49 L 13.69,35.93 Z M 13.81,35.58 C 13.81,35.51 13.7,35.47 13.55,35.48 C 13.4,35.49 13.27,35.55 13.27,35.62 C 13.27,35.68 13.37,35.72 13.53,35.71 C 13.67,35.69 13.8,35.64 13.81,35.58 Z M 13.91,34.8 C 13.91,34.67 13.75,34.57 13.55,34.58 C 13.35,34.59 13.19,34.71 13.19,34.84 S 13.35,35.06 13.54,35.04 C 13.73,35.03 13.89,34.92 13.9,34.8 Z M 13.97,33.63 C 13.97,33.43 13.77,33.27 13.53,33.29 C 13.27,33.3 13.08,33.48 13.08,33.69 C 13.08,33.88 13.28,34.03 13.52,34.01 C 13.77,34 13.96,33.83 13.97,33.63 Z M 13.26,20.02 H 13.09 A 5.73,5.73 0 0,1 13.26,20.02 Z M 13.39,20.23 C 13.4,20.28 13.29,20.33 13.14,20.32 C 13,20.32 12.87,20.27 12.87,20.22 C 12.86,20.17 12.97,20.14 13.12,20.14 C 13.25,20.14 13.38,20.19 13.39,20.24 Z M 13.52,20.88 C 13.54,21 13.39,21.09 13.2,21.08 C 13,21.08 12.83,20.99 12.82,20.88 C 12.82,20.77 12.97,20.68 13.15,20.68 C 13.35,20.68 13.51,20.78 13.52,20.88 Z M 13.65,21.93 C 13.67,22.12 13.48,22.27 13.23,22.27 C 12.99,22.27 12.78,22.12 12.77,21.93 C 12.77,21.75 12.96,21.6 13.19,21.6 C 13.43,21.6 13.63,21.75 13.65,21.93 Z M 13.77,23.32 C 13.79,23.58 13.57,23.8 13.27,23.8 S 12.73,23.6 12.72,23.32 C 12.71,23.06 12.94,22.86 13.22,22.85 C 13.51,22.85 13.75,23.05 13.77,23.32 Z M 14.68,35.74 L 14.54,35.76 C 14.44,35.78 14.33,35.81 14.31,35.83 L 14.44,35.81 L 14.55,35.78 L 14.68,35.74 Z M 14.93,35.4 C 14.95,35.33 14.85,35.3 14.71,35.33 C 14.56,35.35 14.43,35.43 14.41,35.49 C 14.4,35.55 14.49,35.58 14.63,35.55 S 14.91,35.45 14.93,35.4 Z M 15.13,34.63 C 15.16,34.5 15.03,34.43 14.83,34.45 C 14.63,34.47 14.47,34.6 14.46,34.73 C 14.45,34.85 14.58,34.93 14.76,34.9 C 14.95,34.87 15.12,34.75 15.14,34.63 Z M 15.31,33.49 C 15.33,33.29 15.15,33.15 14.91,33.18 C 14.67,33.2 14.46,33.38 14.45,33.59 C 14.45,33.79 14.62,33.92 14.85,33.89 C 15.09,33.86 15.29,33.69 15.31,33.49 Z M 14.14,20.13 L 14.07,20.12 L 13.94,20.1 C 14.01,20.1 14.07,20.12 14.14,20.13 Z M 14.48,20.35 C 14.51,20.4 14.42,20.43 14.28,20.41 C 14.13,20.39 14,20.33 13.98,20.28 C 13.96,20.24 14.05,20.22 14.18,20.24 C 14.32,20.26 14.45,20.31 14.48,20.35 Z M 14.73,20.98 C 14.77,21.1 14.63,21.18 14.45,21.15 C 14.25,21.14 14.09,21.03 14.07,20.91 C 14.05,20.81 14.17,20.74 14.36,20.76 C 14.54,20.78 14.7,20.88 14.73,20.98 Z M 14.97,22.01 C 15,22.19 14.83,22.33 14.6,22.31 C 14.36,22.31 14.15,22.13 14.13,21.94 C 14.1,21.76 14.28,21.64 14.5,21.65 C 14.73,21.67 14.93,21.83 14.97,22 Z M 15.57,35.44 L 15.47,35.48 L 15.27,35.56 L 15.58,35.44 Z M 15.96,35.11 C 15.99,35.05 15.92,35.03 15.78,35.08 C 15.65,35.11 15.52,35.2 15.48,35.26 C 15.46,35.32 15.53,35.33 15.66,35.29 A 0.7,0.7 0 0,0 15.96,35.11 Z M 16.28,34.38 C 16.32,34.26 16.2,34.19 16.04,34.23 C 15.86,34.27 15.69,34.4 15.66,34.53 C 15.63,34.65 15.75,34.71 15.92,34.67 C 16.08,34.62 16.24,34.49 16.28,34.38 Z M 15.48,20.59 C 15.52,20.64 15.46,20.65 15.32,20.61 A 0.68,0.68 0 0,1 15.02,20.47 C 14.99,20.42 15.06,20.42 15.19,20.46 C 15.31,20.49 15.44,20.56 15.49,20.59 Z M 15.86,21.19 C 15.9,21.29 15.79,21.35 15.63,21.32 C 15.45,21.29 15.28,21.17 15.25,21.06 C 15.21,20.96 15.31,20.9 15.48,20.94 C 15.64,20.97 15.81,21.08 15.86,21.18 Z M 16.19,22.17 C 16.23,22.34 16.09,22.47 15.89,22.44 C 15.66,22.41 15.45,22.24 15.42,22.05 C 15.38,21.88 15.52,21.76 15.74,21.8 C 15.94,21.83 16.14,22 16.19,22.16 Z M 16.35,20.94 C 16.41,20.98 16.36,20.97 16.25,20.93 A 1.38,1.38 0 0,1 15.97,20.76 A 4.47,4.47 0 0,1 16.36,20.94 Z M 16.84,21.49 C 16.89,21.59 16.82,21.63 16.67,21.58 A 0.68,0.68 0 0,1 16.31,21.31 C 16.26,21.21 16.34,21.17 16.48,21.23 C 16.62,21.28 16.78,21.39 16.84,21.49 Z M 17.26,22.41 C 17.31,22.57 17.21,22.68 17.03,22.64 A 0.64,0.64 0 0,1 16.59,22.24 C 16.54,22.07 16.65,21.98 16.83,22.03 C 17.01,22.08 17.2,22.25 17.26,22.41 Z M 16.96,21.31 L 16.86,21.24 L 16.96,21.3 Z M 17.62,21.88 C 17.69,21.97 17.66,22 17.54,21.93 A 1.01,1.01 0 0,1 17.21,21.65 C 17.14,21.56 17.19,21.55 17.31,21.61 C 17.41,21.68 17.55,21.79 17.62,21.88 Z M 18.12,22.73 C 18.19,22.88 18.13,22.97 17.98,22.91 A 0.74,0.74 0 0,1 17.59,22.51 C 17.53,22.36 17.6,22.28 17.75,22.35 C 17.89,22.41 18.06,22.58 18.13,22.73 Z M 18.25,22.41 L 18.19,22.36 A 2.9,2.9 0 0,1 17.86,22.02 C 18,22.14 18.13,22.27 18.26,22.41 Z M 18.77,23.11 C 18.84,23.25 18.82,23.31 18.72,23.25 A 1.03,1.03 0 0,1 18.39,22.85 C 18.31,22.71 18.34,22.65 18.45,22.74 C 18.55,22.81 18.69,22.98 18.77,23.11 Z M 19.22,23.68 L 19.2,23.65 A 3.22,3.22 0 0,1 18.87,23.15 L 19.22,23.68 Z" fill="url(#a)"/>
<path d="M 12.620000000000001,31.735 V 32 H 11 V 30 H 12.58 V 30.25 H 11.32 V 30.86 H 12.44 V 31.11 H 11.32 V 31.75 H 12.62 Z M 17,30 V 32 H 16.73 L 15.33,30.5 V 32 H 15 V 30 H 15.27 L 16.67,31.5 V 30 H 17 Z M 21.63,31.75 V 32 H 20 V 30 H 21.58 V 30.25 H 20.32 V 30.86 H 21.44 V 31.11 H 20.32 V 31.75 H 21.62 Z M 26.5,32 L 26.01,31.38 L 25.87,31.39 H 25.32 V 31.99 H 25 V 30 H 25.87 C 26.46,30 26.81,30.26 26.81,30.7 C 26.81,31 26.63,31.23 26.31,31.33 L 26.85,32 H 26.5 Z M 26.49,30.7 C 26.49,30.41 26.27,30.25 25.86,30.25 H 25.32 V 31.15 H 25.86 C 26.27,31.15 26.49,30.98 26.49,30.7 Z M 31.74,30.99 H 32.04 V 31.75 C 31.82,31.92 31.51,32 31.19,32 C 30.51,32 30,31.58 30,31 C 30,30.42 30.5,30 31.2,30 C 31.55,30 31.85,30.1 32.06,30.3 L 31.86,30.47 A 0.97,0.97 0 0,0 31.21,30.25 C 30.69,30.25 30.32,30.56 30.32,31 C 30.32,31.43 30.7,31.75 31.21,31.75 C 31.4,31.75 31.58,31.71 31.74,31.62 V 31 Z M 36.3,31.3 V 32 H 36 V 31.3 L 35.1,30 H 35.44 L 36.15,31.05 L 36.87,30 H 37.19 L 36.3,31.31 Z" fill="rgb(236, 33, 34)"/>
<path d="M 13.53,26.035 C 13.54,26.7 13.04,27.09 12.23,27.09 H 11.45 V 28 H 11 V 25 H 12.23 C 13.05,25 13.54,25.4 13.54,26.05 Z M 13.09,26.05 C 13.09,25.62 12.79,25.37 12.21,25.37 H 11.45 V 26.72 H 12.21 C 12.79,26.72 13.09,26.48 13.09,26.05 Z M 16.2,27.25 H 14.52 L 14.18,28 H 13.71 L 15.14,25 H 15.58 L 17.01,28 H 16.54 L 16.19,27.25 Z M 16.04,26.91 L 15.36,25.44 L 14.68,26.91 H 16.04 Z M 20.7,25 V 28 H 20.34 L 18.45,25.76 V 28 H 18 V 25 H 18.37 L 20.26,27.24 V 25 H 20.71 Z" fill="rgb(52, 73, 157)"/>
<path d="M 21.819999999999997,26.855 L 21.49,26.61 L 21.16,26.36 H 21.99 L 22.13,25.94 L 22.25,25.54 L 22.38,25.94 L 22.51,26.36 H 23.34 L 23.02,26.61 L 22.67,26.87 L 22.8,27.29 L 22.93,27.69 L 22.6,27.44 L 22.25,27.18 L 21.9,27.44 L 21.58,27.69 L 21.7,27.29 L 21.83,26.87 Z" fill="rgb(236, 33, 34)"/>
<path d="M 26.189999999999998,27.235 H 24.53 L 24.19,28 H 23.72 L 25.15,25 H 25.59 L 27.02,28 H 26.55 L 26.21,27.25 Z M 26.05,26.91 L 25.37,25.44 L 24.69,26.91 H 26.05 Z M 31,28 V 25.8 L 29.83,27.62 H 29.62 L 28.44,25.82 V 28 H 28 V 25 H 28.38 L 29.73,27.11 L 31.07,25 H 31.45 V 28 H 31.01 Z M 34.85,27.63 V 28 H 32.56 V 25 H 34.78 V 25.37 H 33 V 26.29 H 34.59 V 26.66 H 33 V 27.63 H 34.85 Z M 38.1,28 L 37.43,27.08 H 36.45 V 28 H 36 V 25 H 37.23 C 38.05,25 38.54,25.4 38.54,26.05 C 38.54,26.51 38.29,26.85 37.84,26.99 L 38.59,27.99 H 38.1 V 28 Z M 38.1,26.05 C 38.1,25.62 37.79,25.37 37.21,25.37 H 36.45 V 26.72 H 37.21 C 37.79,26.72 38.09,26.47 38.09,26.05 Z M 39.5,25 H 40 V 28 H 39.5 V 25 Z M 41,26.5 C 41,25.63 41.71,25 42.67,25 C 43.15,25 43.57,25.15 43.87,25.46 L 43.57,25.72 A 1.21,1.21 0 0,0 42.69,25.37 C 41.98,25.37 41.45,25.85 41.45,26.5 C 41.45,27.15 41.98,27.63 42.69,27.63 C 43.03,27.63 43.33,27.51 43.57,27.28 L 43.87,27.54 C 43.57,27.84 43.15,28 42.67,28 C 41.71,28 41,27.37 41,26.5 Z M 46.67,27.25 H 45 L 44.65,28 H 44.19 L 45.61,25 H 46.06 L 47.49,28 H 47.02 L 46.67,27.25 Z M 46.51,26.91 L 45.83,25.44 L 45.15,26.91 H 46.51 Z M 51,25 V 28 H 50.6 L 48.5,25.76 V 28 H 48 V 25 H 48.4 L 50.5,27.24 V 25 H 51 Z" fill="rgb(52, 73, 157)"/>
<defs>
<linearGradient id="a" x1="12.11" x2="12.11" y1="36" y2="20" gradientUnits="userSpaceOnUse">
<stop stop-color="rgb(20, 19, 72)" offset=".03"/>
<stop stop-color="rgb(52, 74, 158)" offset=".18"/>
<stop stop-color="rgb(53, 97, 174)" offset=".38"/>
<stop stop-color="rgb(57, 158, 215)" offset=".8"/>
<stop stop-color="rgb(59, 190, 237)" offset="1"/>
</linearGradient>
</defs>
</svg>
