<?xml version="1.0" encoding="UTF-8"?>
<!-- generated by Finnhub -->
<svg viewBox="0 0 55.5 55.5" xmlns="http://www.w3.org/2000/svg">
<path d="M 0,0 H 55.5 V 55.5 H 0 Z" fill="rgb(1, 103, 154)"/>
<path d="M 14.014,42.667 C 12.711,41.532 12,39.725 12,37.785 V 18.31 C 12,16.181 12.948,14.882 14.516,13.77 C 15.319,13.356 16.176,13.205 16.941,13.356 C 17.707,13.45 18.965,13.582 20.807,15.353 C 21.518,16.049 26.022,19.515 26.697,20.494 C 27.371,21.417 28.173,22.397 28.41,23.282 C 29.122,25.692 27.462,27.03 27.462,27.03 L 14.024,42.682 Z" fill="rgb(254, 254, 253)"/>
<path d="M 18.99,11.985 H 38.488 C 41.821,12 44,14.731 44,18.215 V 37.785 C 44,41.307 41.388,44 38.056,44 H 22 C 25.062,40.101 31.86,30.703 32.887,29.366 C 34.004,27.878 36.309,29.234 36.309,29.234 L 41.064,32.662 L 43.91,28.669 S 42.721,27.839 41.388,26.672 C 38.506,24.167 34.598,20.362 31.986,18.649 C 28.222,16.106 22.494,13.413 20.045,12.527 C 19.775,12.396 19.505,12.339 19.252,12.245 L 19,12 Z" fill="rgb(254, 254, 253)"/>
</svg>
