<?xml version="1.0" encoding="UTF-8"?>
<!-- generated by Finnhub -->
<svg viewBox="0 0 55.5 55.5" xmlns="http://www.w3.org/2000/svg">
<path d="M 0,0 H 55.5 V 55.5 H 0 Z" fill="rgb(171, 12, 46)"/>
<path d="M 27.99,43.985 A 16,16 0 0,0 32,12.5 V 20.12 C 32.33,20.03 32.65,20 32.99,20 C 37.69,20 41,23.4 41,27.36 C 41,31.43 38.02,35 32.99,35 C 32.31,35 31.15,34.67 30.69,34.45 L 31.17,32.49 A 4.4,4.4 0 0,0 33,33 C 36.68,33 39.01,30.62 39.01,27.36 C 39.01,24.09 36.16,22 33,22 C 32.66,22 32.13,22.14 32.01,22.19 V 30.42 H 30.01 V 23.23 A 5.7,5.7 0 0,0 28.61,25 L 28.58,25.05 A 7.8,7.8 0 0,1 28.74,29.62 A 7.56,7.56 0 0,1 19,34.58 V 41.23 A 15.93,15.93 0 0,0 28,44 Z M 17,39.62 V 26.84 S 18.05,27.6 18.4,27.76 C 18.76,27.93 18.92,27.99 19.68,28.05 C 22.46,28.26 25.23,27.07 26.18,24.62 A 5.36,5.36 0 0,0 22.75,22.16 C 20.97,21.69 19.37,22.24 17.99,23.25 L 16.88,21.55 C 18.71,20.32 21.08,19.64 23.26,20.21 A 8.3,8.3 0 0,1 27.54,23 A 6.35,6.35 0 0,1 30,20.86 V 12.12 A 16,16 0 0,0 17,39.62 Z M 19.27,29.91 A 1.29,1.29 0 0,0 19,29.83 V 32.41 L 19.02,32.42 C 19.2,32.53 19.43,32.68 19.82,32.78 A 5.55,5.55 0 0,0 26.74,29.16 C 26.99,28.46 26.98,28.11 26.97,27.42 V 26.84 C 25.57,29.38 22.65,30.2 19.57,29.97 A 0.94,0.94 0 0,1 19.27,29.91 Z" fill="rgb(254, 254, 253)"/>
</svg>
