<?xml version="1.0" encoding="UTF-8"?>
<!-- generated by Finnhub -->
<svg viewBox="0 0 55.5 55.5" xmlns="http://www.w3.org/2000/svg">
<path d="M 0,0 H 55.5 V 55.5 H 0 Z" fill="rgb(239, 242, 248)"/>
<path d="M 3.99,35.985 H 12.82 V 38 H 4 V 36 Z" fill="rgb(210, 16, 67)"/>
<path d="M 3.99,27.985 H 13 V 29 H 4 V 28 Z" fill="rgb(160, 162, 164)"/>
<path d="M 3.99,29.985 H 13 V 31 H 4 V 30 Z" fill="rgb(210, 16, 67)"/>
<path d="M 3.99,31.985 H 13 V 33 H 4 V 32 Z" fill="rgb(1, 41, 90)"/>
<path d="M 3.99,33.985 H 13 V 35 H 4 V 34 Z" fill="rgb(160, 162, 164)"/>
<path d="M 51.99,35.985 H 43.18 V 38 H 52 V 36 Z" fill="rgb(210, 16, 67)"/>
<path d="M 51.99,27.985 H 43 V 29 H 52 V 28 Z" fill="rgb(160, 162, 164)"/>
<path d="M 51.99,29.985 H 43 V 31 H 52 V 30 Z" fill="rgb(210, 16, 67)"/>
<path d="M 51.99,31.985 H 43 V 33 H 52 V 32 Z" fill="rgb(1, 41, 90)"/>
<path d="M 51.99,33.985 H 43 V 35 H 52 V 34 Z" fill="rgb(160, 162, 164)"/>
<path d="M 11.99,27.985 H 44 V 38 H 12 V 28 Z M 26,15 H 30 V 28 H 26 V 15 Z M 27.046,12.741 H 28.943 V 14.619 H 27.046 V 12.74 Z" fill="rgb(1, 49, 97)"/>
<path d="M 27.49,12.107 H 28.45 V 14 H 27.5 V 12.122 Z" fill="rgb(1, 49, 97)"/>
<path d="M 26.49,13.674 H 29.547 V 14.637 H 26.5 V 13.689 Z M 21.392,11.474 C 21.392,11.212 21.604,11 21.866,11 H 34.193 A 0.474,0.474 0 0,1 34.193,11.948 H 21.866 A 0.474,0.474 0 0,1 21.392,11.474 Z M 24,22 H 32 V 24 H 24 V 22 Z M 24,25 H 32 V 26 H 24 V 25 Z M 19,26 H 20.517 V 28.144 H 19 Z M 21.023,26 H 22.54 V 28.144 H 21.023 Z" fill="rgb(1, 49, 97)"/>
<path d="M 18.438,26.469 H 23 V 27.684 H 18.448 V 26.484 Z M 33.505,26 H 35.022 V 28.144 H 33.505 Z M 35.529,26 H 37.046 V 28.144 H 35.529 Z" fill="rgb(1, 49, 97)"/>
<path d="M 32.99,26.469 H 37.551 V 27.683 H 33 Z M 19,38 H 20.517 V 40 H 19 V 38 Z M 21.023,38 H 22.541 V 40 H 21.023 V 38 Z" fill="rgb(1, 49, 97)"/>
<path d="M 18.49,38.42 H 22.984 V 39.512 H 18.5 V 38.435 Z M 33.395,38 H 34.913 V 40 H 33.396 V 38 Z M 35.42,38 H 36.937 V 40 H 35.42 V 38 Z" fill="rgb(1, 49, 97)"/>
<path d="M 32.99,38.42 H 37.379 V 39.512 H 33 V 38.435 Z M 25,21 H 31 V 22 H 25 V 21 Z M 24.052,36.742 C 24.052,36.486 24.26,36.278 24.516,36.278 H 31.536 A 0.465,0.465 0 0,1 31.536,37.207 H 31.5 A 0.5,0.5 0 0,0 31,37.707 V 40 A 1,1 0 0,1 30,41 H 26 A 1,1 0 0,1 25,40 V 37.68 A 0.474,0.474 0 0,0 24.526,37.207 H 24.516 A 0.464,0.464 0 0,1 24.052,36.742 Z M 28.7,13.817 L 32.714,11.059 L 33.251,11.841 L 29.237,14.599 L 28.7,13.817 Z M 27.12,13.694 L 23.3,11.07 L 22.764,11.852 L 26.584,14.476 L 27.12,13.694 Z M 26,8.655 A 0.5,0.5 0 1,1 27,8.655 V 11 H 26 V 8.655 Z M 27.531,14.637 H 28.481 V 15.585 H 27.531 V 14.637 Z" fill="rgb(1, 49, 97)"/>
</svg>
