<?xml version="1.0" encoding="UTF-8"?>
<!-- generated by Finnhub -->
<svg viewBox="0 0 55.5 55.5" xmlns="http://www.w3.org/2000/svg">
<path d="M 0,0 H 55.5 V 55.5 H 0 Z" fill="rgb(239, 242, 248)"/>
<path d="M 13.28,21.985 H 8 L 6,32 H 9.64 L 10.27,29 H 11.47 C 14.31,29 15.54,27.16 15.91,25.28 C 16.28,23.4 15.51,22 13.29,22 Z M 12.52,25.5 C 12.37,26.16 11.96,26.5 11.02,26.5 H 10.72 L 11.15,24.5 H 11.54 C 12.33,24.5 12.65,24.84 12.52,25.5 Z M 20.72,22 H 17.59 L 15.48,32 H 18.61 L 19.51,27.73 C 19.61,27.2 19.91,27 20.27,27 C 20.64,27 20.78,27.26 20.67,27.75 L 19.8,32 H 22.94 L 23.92,27.34 C 24.28,25.59 23.48,25 22.18,25 C 21.12,25 20.53,25.31 19.9,26 L 19.88,26.03 L 20.72,22 Z M 25.88,22 H 29.06 L 28.66,24 H 25.46 L 25.88,22 Z M 25.33,25 H 28.46 L 27,32 H 23.87 L 25.34,25 Z M 33.23,22 H 30.1 L 28,32 H 31.06 L 31.28,31.17 C 31.67,31.92 32.27,32 32.98,32 C 34.56,32 35.94,30.96 36.44,28.62 C 36.95,26.12 35.89,25 34.48,25 C 33.75,25 32.98,25.23 32.41,26 L 33.23,22 Z M 32.28,30 C 31.93,30 31.83,29.86 31.78,29.67 C 31.72,29.49 31.76,29.13 31.9,28.5 L 31.93,28.39 C 32.03,27.94 32.07,27.79 32.17,27.55 A 0.87,0.87 0 0,1 32.97,27 C 33.62,27 33.58,27.53 33.37,28.5 C 33.19,29.33 32.95,30 32.28,30 Z M 40.97,25 H 37.9 L 36.42,32 H 39.55 L 40.36,28.64 C 40.6,27.81 41.73,27.62 42.61,28 L 43.29,25 H 42.61 C 42.21,25 41.46,25.2 40.87,25.8 L 40.96,25 Z M 43.09,28.5 C 43.53,26.4 45.13,25 47.73,25 C 50.33,25 51.33,26.4 50.9,28.5 C 50.48,30.6 48.88,32 46.29,32 C 43.69,32 42.67,30.6 43.09,28.5 Z M 46.71,30 C 47.18,30 47.46,29.65 47.71,28.5 C 47.98,27.35 47.83,27 47.37,27 S 46.62,27.35 46.35,28.5 C 46.11,29.65 46.25,30 46.71,30 Z" fill="rgb(1, 60, 135)"/>
<path d="M 7.99,20.985 L 8.5,19 H 33.72 L 33.34,21 H 8 Z M 50.6,35 L 51,33 H 40.41 L 40.01,35 H 50.59 Z" fill="rgb(108, 177, 39)"/>
<path d="M 38.99,32.985 L 38.59,35 H 5 L 5.5,33 H 39 Z" fill="rgb(63, 116, 181)"/>
</svg>
