<?xml version="1.0" encoding="UTF-8"?>
<!-- generated by Finnhub -->
<svg viewBox="0 0 55.5 55.5" xmlns="http://www.w3.org/2000/svg">
<path d="M 0,0 H 55.5 V 55.5 H 0 Z" fill="rgb(239, 242, 248)"/>
<path d="M 26.889999999999997,32.725 C 24.9,35.62 21.86,37 18.26,37 A 10.13,10.13 0 0,1 8,27 C 8,21.48 12.57,17 18.24,17 C 20.37,17 22.4,17.38 24.04,18.46 A 10.06,10.06 0 0,1 27.83,23.26 C 28.97,21.75 30.23,20.16 31.03,19.49 C 32.73,18.11 34.87,17 37.25,17 A 9.72,9.72 0 0,1 47,26.62 C 47,28.72 46.58,30.66 45.4,32.24 C 43.61,34.59 41,37 37.76,37 H 34 V 43 H 29 V 32 H 37 C 39.46,32 42,30 42,26.62 C 42,24.22 39.7,22 37.25,22 C 33.62,22 33.15,23.78 26.91,32.74 Z M 23,27 C 23,29.66 20.73,32 18,32 A 5.1,5.1 0 0,1 13,27 C 13,24.34 15.27,22 18,22 S 23,24.34 23,27 Z" fill="rgb(1, 82, 160)" fill-rule="evenodd"/>
</svg>
