<?xml version="1.0" encoding="UTF-8"?>
<!-- generated by Finnhub -->
<svg viewBox="0 0 55.5 55.5" xmlns="http://www.w3.org/2000/svg">
<path d="M 0,0 H 55.5 V 55.5 H 0 Z" fill="rgb(1, 66, 106)"/>
<path d="M 9.99,21.995 V 30 H 11 V 22.47 H 12.48 C 13.75,22.48 13.98,23.49 14,23.99 C 13.9,25.86 12.28,26.04 11.5,25.86 L 11.99,26.4 C 13.28,26.36 14.99,25.94 15,23.85 C 15.01,22.18 13.33,21.93 12.48,22.01 H 10 Z M 18.4,22 L 15,30 H 15.75 L 18.4,23.45 L 20.9,30 H 22 L 18.7,22 H 18.4 Z M 42.4,22 L 39,30 H 39.75 L 42.4,23.45 L 44.9,30 H 46 L 42.7,22 H 42.4 Z M 27.56,22 H 22.7 V 22.68 C 23.66,22.43 24.61,22.58 24.99,22.68 V 30 H 25.99 V 22.68 H 28.12 L 27.55,22 Z M 31.61,22 H 28.6 L 29.1,22.63 C 30.2,22.33 32.41,22.13 32.46,23.8 C 32.52,25.48 30.81,25.77 29.96,25.7 L 32.88,30 H 34.13 L 31.31,26.07 C 31.94,25.93 33.34,25.59 33.43,23.8 C 33.5,22.38 32.25,22 31.61,22 Z M 36,22 H 37 V 30 H 36 Z M 29.12,33 C 21.49,33 9.19,33.59 4,34 H 52 C 47.55,33.74 40.94,33 29.12,33 Z" fill="rgb(254, 254, 253)"/>
</svg>
