<?xml version="1.0" encoding="UTF-8"?>
<!-- generated by Finnhub -->
<svg viewBox="0 0 55.5 55.5" xmlns="http://www.w3.org/2000/svg">
<path d="M 0,0 H 55.5 V 55.5 H 0 Z" fill="rgb(239, 242, 248)"/>
<path d="M 10.669,33.985 L 12.145,26 H 20.662 C 22.072,26 23.482,26.488 22.919,28.688 C 22.467,30.448 20.474,31 19.534,31 H 14.57 L 14.063,34 H 10.68 Z" fill="rgb(26, 93, 166)"/>
<path d="M 31.820999999999998,25.985 H 22.693 C 24.859,28.076 22.881,30.136 21.621,30.944 L 21.114,34 H 29.8 C 32.395,33.718 32.722,32.037 32.846,31.17 C 32.967,30.324 32.32,29.985 31.944,29.816 C 31.831,29.76 31.917,29.433 32.057,29.421 C 32.507,29.384 33.636,28.821 33.749,27.579 C 33.879,26.157 32.677,26 31.831,26 Z" fill="rgb(26, 93, 166)"/>
<path d="M 14.955,28.985 L 15.247,27.5 H 19.739 C 20.042,27.5 20.38,27.613 20.437,27.895 C 20.527,28.617 19.873,29 19.591,29 H 14.965 Z M 24.836,32 L 25.119,30.606 H 28.954 C 29.161,30.606 29.574,30.696 29.574,31.057 C 29.574,31.689 29.01,32 28.728,32 H 24.836 Z M 25.4,29 L 25.683,27.56 H 29.519 C 29.725,27.56 30.139,27.65 30.139,28.011 C 30.139,28.643 29.575,29.001 29.293,29.001 H 25.4 Z" fill="rgb(239, 242, 248)"/>
<path d="M 32.723,29.688 C 34.933,28.519 34.35,26.564 33.693,26 H 42.5 C 42.875,26 43.45,26.319 43.282,26.94 C 43.011,27.932 42.21,28 41.759,28 H 36.795 C 36.569,28 36.271,28.032 36.118,28.338 C 35.873,28.828 36.162,29 36.5,29 H 41.702 C 42.097,29 42.662,29.282 42.662,29.733 C 42.604,30.75 41.758,31 41.193,31 H 35.722 L 35,34 H 31.503 C 33.759,32.466 33.5,30.5 32.733,29.703 Z" fill="rgb(26, 93, 166)"/>
<path d="M 41.035000000000004,12.556999999999999 C 41.136,12.603 41.223,12.635 41.307,12.666 L 41.045,12.572 C 36.93,11.164 25.926,10.448 16.488,18.363 C 4.248,28.629 8.478,39.911 13.048,43.239 C 9.832,41.095 5.884,36.921 7.294,29.249 C 9.011,19.911 19.478,13.86 23.878,12.497 C 25.855,11.884 29.8,10.805 33.974,11.031 C 36.48,11.031 40.057,12.225 41.046,12.572 Z M 14.751,44.274 C 18.867,45.682 29.871,46.398 39.309,38.483 C 51.549,28.217 47.319,16.936 42.749,13.608 C 45.965,15.751 49.913,19.925 48.503,27.596 C 46.786,36.936 36.319,42.986 31.919,44.349 C 29.942,44.962 25.997,46.041 21.823,45.816 C 19.317,45.816 15.74,44.622 14.751,44.274 Z" fill="rgb(198, 46, 63)"/>
</svg>
