<?xml version="1.0" encoding="UTF-8"?>
<!-- generated by Finnhub -->
<svg viewBox="0 0 55.5 55.5" xmlns="http://www.w3.org/2000/svg">
<path d="M 0,0 H 55.5 V 55.5 H 0 Z" fill="rgb(52, 94, 174)"/>
<path d="M 27.99,11.985 A 16,16 0 1,0 28,44 A 16,16 0 0,0 28,12 Z M 28,43.147 A 15.147,15.147 0 1,1 28,12.853 A 15.147,15.147 0 0,1 28,43.147 Z M 22.69,15.887 H 22.513 A 13.286,13.286 0 1,0 28,14.702 H 27.633 C 27.36,14.702 27.206,14.892 27.206,15.2 S 27.36,15.698 27.621,15.698 H 27.953 A 12.243,12.243 0 1,1 22.892,16.788 C 23.129,16.681 23.188,16.444 23.07,16.16 A 0.497,0.497 0 0,0 22.69,15.887 Z M 22.536,19.111 A 0.45,0.45 0 0,0 22.252,19.206 A 10.478,10.478 0 0,0 22.252,36.723 A 0.45,0.45 0 0,0 22.536,36.818 A 0.594,0.594 0 0,0 23.034,36.498 A 0.546,0.546 0 0,0 22.963,35.692 A 9.232,9.232 0 0,1 22.963,20.284 A 0.545,0.545 0 0,0 23.2,19.929 A 0.746,0.746 0 0,0 23.058,19.467 A 0.616,0.616 0 0,0 22.536,19.111 Z M 27.775,37.197 C 27.479,37.197 27.253,37.398 27.253,37.825 S 27.455,38.441 27.775,38.441 H 28 A 10.477,10.477 0 0,0 28,17.487 H 27.775 C 27.455,17.487 27.253,17.737 27.253,18.116 S 27.455,18.744 27.775,18.744 H 28 A 9.232,9.232 0 1,1 28,37.209 L 27.775,37.197 Z M 21.849,23.52 A 0.676,0.676 0 0,1 22.856,23.449 A 0.664,0.664 0 0,1 23.07,24.433 A 6.175,6.175 0 0,0 23.07,31.543 A 0.664,0.664 0 0,1 22.856,32.527 A 0.675,0.675 0 0,1 21.849,32.457 A 7.68,7.68 0 0,1 21.849,23.52 Z" fill="url(#a)"/>
<path d="M 27.724999999999998,32.208999999999996 C 27.251,32.224 26.967,31.872 26.967,31.338 C 26.967,30.803 27.251,30.462 27.735,30.462 C 29.028,30.42 30.046,29.32 30,28 C 29.93,25.985 27.542,25.275 26,26.403 V 37.216 C 26,37.739 25.532,38 25,38 S 24.024,37.739 24.024,37.215 V 25.596 A 1.35,1.35 0 0,1 24.304,25.1 C 24.432,24.955 24.591,24.837 24.769,24.755 A 6.479,6.479 0 0,1 27.724,23.982 C 30.06,23.863 32,25.634 32,28 C 32,30.393 30.038,32.319 27.724,32.202 L 27.735,32.224 Z M 27.735,35.431 C 27.251,35.431 26.967,35.078 26.967,34.544 C 26.967,34.009 27.251,33.485 27.735,33.485 C 30.789,33.485 33,31.338 33,28.125 C 33,24.088 29.158,21.595 25.514,22.925 A 2.326,2.326 0 0,1 24.804,23.106 A 0.843,0.843 0 0,1 24.223,22.86 A 0.782,0.782 0 0,1 24.001,22.288 V 15.75 C 24.001,15.284 24.433,15 25,15 S 26,15.284 26,15.75 V 21.048 C 26.613,20.895 27.066,20.818 27.7,20.821 A 7.738,7.738 0 0,1 32.88,23.059 A 7.166,7.166 0 0,1 35,28.126 C 35,30.015 34.24,31.83 32.88,33.192 A 7.738,7.738 0 0,1 27.7,35.431 H 27.735 Z" fill="rgb(254, 254, 253)"/>
<defs>
<linearGradient id="a" x1="16.693" x2="39.461" y1="16.681" y2="39.449" gradientUnits="userSpaceOnUse">
<stop stop-color="rgb(254, 254, 253)" offset="0"/>
<stop stop-color="rgb(254, 254, 253)" stop-opacity=".79" offset=".12"/>
<stop stop-color="rgb(254, 254, 253)" stop-opacity=".62" offset=".24"/>
<stop stop-color="rgb(254, 254, 253)" stop-opacity=".5" offset=".35"/>
<stop stop-color="rgb(254, 254, 253)" stop-opacity=".43" offset=".44"/>
<stop stop-color="rgb(254, 254, 253)" stop-opacity=".4" offset=".5"/>
<stop stop-color="rgb(254, 254, 253)" stop-opacity=".43" offset=".56"/>
<stop stop-color="rgb(254, 254, 253)" stop-opacity=".51" offset=".66"/>
<stop stop-color="rgb(254, 254, 253)" stop-opacity=".65" offset=".77"/>
<stop stop-color="rgb(254, 254, 253)" stop-opacity=".84" offset=".9"/>
<stop stop-color="rgb(254, 254, 253)" offset="1"/>
</linearGradient>
</defs>
</svg>
