<?xml version="1.0" encoding="UTF-8"?>
<!-- generated by Finnhub -->
<svg viewBox="0 0 55.5 55.5" xmlns="http://www.w3.org/2000/svg">
<path d="M 0,0 H 55.5 V 55.5 H 0 Z" fill="rgb(239, 242, 248)"/>
<path d="M 26.869999999999997,37.195 C 27.42,37.28 28.15,37.27 29.03,37.08 L 28.81,36.8 L 26.75,36.7 A 2,2 0 0,0 26.63,37.13 L 26.22,37.06 H 26.24 C 26.44,37.12 26.66,37.17 26.88,37.21 Z M 26.08,37.02 V 37.01 L 26.21,37.06 C 26.23,36.95 26.26,36.82 26.31,36.68 L 24.95,36.62 C 25.31,36.78 25.69,36.92 26.07,37.02 Z M 24.02,36.15 L 26.48,36.26 C 26.65,35.93 26.9,35.56 27.24,35.18 A 30.7,30.7 0 0,1 24.27,33.48 L 24.29,33.45 L 23.55,33.39 C 23.69,33.71 23.85,33.99 23.98,34.2 L 23.63,34.42 C 23.84,34.54 24.03,34.64 24.21,34.71 L 24.04,35.11 A 6.77,6.77 0 0,1 22.88,34.46 L 22.78,34.7 L 22.36,34.57 L 22.51,34.19 C 22.09,33.87 21.67,33.49 21.29,33.03 A 20.9,20.9 0 0,1 20.83,32.93 A 8.9,8.9 0 0,0 24.03,36.15 Z M 20.56,32.42 L 20.88,32.51 C 20.18,31.51 19.69,30.24 19.75,28.71 C 19.8,27.18 20.27,25.8 20.89,24.64 V 24.47 C 20.69,24.67 20.5,24.87 20.32,25.09 A 8.83,8.83 0 0,0 20.55,32.42 Z M 21.62,22.92 C 21.66,22.97 21.73,23.03 21.84,23.1 L 21.89,23.06 A 9.97,9.97 0 0,1 23.51,21.34 L 23.78,21.68 A 7.4,7.4 0 0,0 23.13,22.28 C 24.01,21.78 24.94,21.38 25.87,21.08 L 25.45,20.54 A 8.4,8.4 0 0,0 24.89,20.44 L 24.9,20.4 A 8.89,8.89 0 0,0 21.62,22.91 Z M 26.68,19.82 L 27.75,19.88 A 14.1,14.1 0 0,0 27.63,19.68 C 27.31,19.71 26.99,19.76 26.68,19.83 Z M 28.11,19.65 A 9.1,9.1 0 0,1 29.83,19.74 C 29.92,19.84 30.01,19.99 30.03,20.2 L 29.83,20.22 C 29.3,20.09 28.77,20 28.29,19.94 L 28.11,19.64 Z M 30.38,19.85 C 30.42,19.94 30.45,20.05 30.46,20.16 L 31.21,20.12 A 4.57,4.57 0 0,0 31.08,20.02 A 8.8,8.8 0 0,0 30.38,19.84 Z M 32.38,20.54 H 32.28 C 32.54,20.82 32.81,21.15 33.08,21.54 C 33.43,21.74 33.78,21.98 34.11,22.24 C 34.13,22.06 34.13,21.86 34.11,21.64 C 33.59,21.21 33.01,20.84 32.39,20.54 Z M 34.55,22.03 C 34.55,22.22 34.52,22.39 34.49,22.57 C 34.91,22.93 35.31,23.35 35.69,23.82 L 36.13,23.99 A 8.9,8.9 0 0,0 34.55,22.03 Z M 36.49,24.67 A 2.72,2.72 0 0,0 36.17,24.49 C 36.47,24.93 36.74,25.41 36.98,25.93 A 8.8,8.8 0 0,0 36.49,24.67 Z M 37.11,26.42 L 36.79,26.55 C 36.41,25.64 35.95,24.85 35.43,24.18 C 35.11,24.08 34.73,23.98 34.3,23.92 A 11.22,11.22 0 0,1 34.95,28.22 C 35.76,28.32 36.38,28.54 36.86,28.85 C 36.97,28.17 37,27.57 36.99,27.12 L 37.25,27.11 A 8.81,8.81 0 0,0 37.11,26.41 Z M 37.36,28.36 L 37.24,29.14 L 37.34,29.22 A 8.98,8.98 0 0,0 37.36,28.36 Z M 37.26,29.81 A 2.7,2.7 0 0,0 37.14,29.66 A 11.63,11.63 0 0,1 36.04,32.58 L 36.08,33.09 A 8.8,8.8 0 0,0 37.26,29.81 Z M 35.67,33.71 L 35.66,33.2 A 8.73,8.73 0 0,1 33.16,35.72 C 32.8,35.96 32.46,36.16 32.12,36.35 V 36.44 L 32.11,36.5 H 32.16 V 36.53 H 32.24 A 8.9,8.9 0 0,0 35.67,33.7 Z M 31.76,37.43 A 9.5,9.5 0 1,0 31.73,37.43 H 31.75 Z M 31.12,36.97 L 31.16,36.91 H 30.98 C 30.72,37.01 30.48,37.11 30.23,37.19 C 30.53,37.13 30.83,37.06 31.13,36.97 Z M 23.06,34.07 L 23.61,34.41 A 7.19,7.19 0 0,1 23.24,33.74 A 5.7,5.7 0 0,0 23.06,34.06 Z M 23.78,32.98 L 24.46,33.04 L 24.45,33.22 L 24.51,33.12 C 25.18,33.57 26.29,34.23 27.55,34.86 L 27.6,34.81 A 21.66,21.66 0 0,1 26.12,30.91 A 9.85,9.85 0 0,0 23.78,32.98 Z M 26,30.47 C 24.8,31.23 23.92,32.07 23.32,32.85 C 22.99,31.99 22.69,30.91 22.57,29.68 L 22.67,29.64 C 22.62,29.56 22.59,29.47 22.55,29.39 C 22.53,29.08 22.52,28.75 22.52,28.42 A 19.6,19.6 0 0,0 25.49,28.32 C 25.62,28.96 25.79,29.7 25.99,30.47 Z M 26.5,30.68 A 21.5,21.5 0 0,0 27.93,34.52 C 28.33,34.2 28.79,33.89 29.35,33.6 A 44.65,44.65 0 0,1 27.29,30.25 C 27.01,30.39 26.75,30.54 26.5,30.68 Z M 27.07,29.86 L 26.37,30.24 A 31.6,31.6 0 0,1 25.91,28.26 L 26.24,28.21 A 29.78,29.78 0 0,0 27.07,29.86 Z M 27.67,30.06 A 44.36,44.36 0 0,0 29.74,33.41 L 30.34,33.16 L 30.5,33.56 C 30.32,33.62 30.15,33.7 29.98,33.77 C 30.32,34.27 30.69,34.79 31.08,35.32 L 31.44,35.18 C 31.44,33.81 31.34,32.13 30.96,30.58 C 30.82,30.09 30.64,29.59 30.46,29.1 C 29.4,29.36 28.48,29.7 27.67,30.07 Z M 29.59,33.96 L 30.67,35.48 L 29.75,35.84 C 29.27,35.65 28.78,35.44 28.3,35.22 L 28.13,34.92 A 7.5,7.5 0 0,1 29.59,33.96 Z M 30.94,35.83 L 30.36,36.06 C 30.66,36.16 30.96,36.24 31.24,36.32 L 31.29,36.3 L 30.94,35.83 Z M 28.68,35.86 L 29.17,36.06 L 28.89,36.18 L 28.68,35.86 Z M 29.76,36.3 L 29.47,36.4 L 30.16,36.44 L 29.76,36.3 Z M 31.44,35.64 L 31.35,35.67 L 31.43,35.78 V 35.64 Z M 32.1,35.61 L 32.09,35.38 L 32.29,35.31 L 32.09,35.61 Z M 33.49,34.84 L 32.92,35.06 L 32.63,35.55 L 32.92,35.37 A 8.43,8.43 0 0,0 35.59,32.49 A 15.4,15.4 0 0,0 34.86,29.34 C 34.61,31.28 33.96,33.05 33.23,34.48 L 33.33,34.44 L 33.49,34.84 Z M 32.07,34.94 L 32.62,34.72 A 15.2,15.2 0 0,0 34.5,28.62 A 10.85,10.85 0 0,0 31.5,28.87 C 31.56,29.23 31.6,29.6 31.65,29.97 C 31.89,32.22 32.01,33.83 32.07,34.93 Z M 30.29,28.68 A 16,16 0 0,0 27.46,29.68 A 33.1,33.1 0 0,1 26.68,28.13 A 9.47,9.47 0 0,0 29.58,27.1 C 29.83,27.62 30.07,28.15 30.28,28.68 Z M 30.87,29 C 31,29.32 31.11,29.65 31.22,29.97 C 31.18,29.63 31.14,29.29 31.08,28.95 L 30.88,29 Z M 31.01,28.51 L 30.71,28.58 C 30.47,28 30.21,27.43 29.94,26.88 L 29.95,26.86 L 30.55,26.46 C 30.72,27.12 30.88,27.81 31.01,28.51 Z M 34.41,28.17 C 33.91,28.15 33.37,28.17 32.75,28.22 C 32.29,28.28 31.85,28.35 31.43,28.43 C 31.29,27.67 31.11,26.93 30.91,26.21 C 31.57,25.77 32.14,25.38 32.63,25.01 L 32.64,25.04 A 16.92,16.92 0 0,1 34.41,28.17 Z M 35.07,28.68 C 35.51,29.84 35.78,30.92 35.93,31.84 A 10.48,10.48 0 0,0 36.77,29.34 C 36.37,29.03 35.83,28.8 35.07,28.68 Z M 22.98,33.32 L 22.7,33.79 C 22.46,33.61 22.22,33.39 22,33.17 L 22.98,33.32 Z M 21.52,32.64 C 21.92,32.72 22.37,32.8 22.87,32.87 C 22.53,31.95 22.23,30.8 22.13,29.5 C 21.95,29.1 21.8,28.73 21.66,28.37 L 21.32,28.33 C 21.16,28.47 21.02,28.59 20.92,28.7 L 20.61,28.4 L 20.98,28.06 L 21,27.86 L 21.19,27.89 L 21.43,27.69 C 21.17,26.87 21.03,26.14 20.95,25.49 A 8.77,8.77 0 0,0 20.17,28.72 A 5.78,5.78 0 0,0 21.52,32.64 Z M 21.32,24.74 C 21.34,25.47 21.47,26.37 21.8,27.42 L 22.17,27.16 C 22.29,26.11 22.56,25.01 23.03,23.89 A 4.53,4.53 0 0,1 21.99,23.65 C 21.76,23.98 21.53,24.35 21.32,24.74 Z M 34.94,23.61 C 34.7,23.55 34.44,23.51 34.14,23.47 C 34.23,23.33 34.3,23.18 34.36,23.03 C 34.56,23.21 34.76,23.4 34.94,23.61 Z M 31.92,23.46 C 32.54,23.39 33.12,23.38 33.64,23.42 A 9.86,9.86 0 0,0 32.78,21.85 A 10.9,10.9 0 0,0 30.3,20.79 A 6.67,6.67 0 0,1 29.54,21.65 A 11,11 0 0,1 31.92,23.46 Z M 33.34,23.83 C 33.01,23.82 32.65,23.83 32.28,23.85 L 32.72,24.4 A 6.92,6.92 0 0,0 33.34,23.83 Z M 29.38,22.06 C 30.08,22.46 30.78,22.96 31.4,23.55 C 30.96,23.63 30.54,23.72 30.13,23.82 C 29.88,23.19 29.63,22.6 29.38,22.06 Z M 31.76,23.91 C 31.25,24.01 30.76,24.11 30.28,24.23 C 30.46,24.73 30.63,25.24 30.79,25.78 C 31.41,25.36 31.94,25 32.39,24.66 C 32.19,24.4 31.98,24.15 31.76,23.91 Z M 28.96,22.15 C 29.21,22.69 29.46,23.29 29.71,23.93 C 29.3,24.03 28.9,24.14 28.51,24.26 C 28.24,23.81 27.98,23.38 27.71,22.97 A 9.91,9.91 0 0,0 28.96,22.15 Z M 29.86,24.33 L 28.74,24.63 C 29.08,25.23 29.42,25.85 29.74,26.49 L 30.42,26.03 A 27.1,27.1 0 0,0 29.86,24.33 Z M 27.33,23.17 L 28.09,24.39 C 27.19,24.68 26.35,24.99 25.59,25.32 C 25.49,24.97 25.43,24.68 25.4,24.47 L 24.98,24.52 C 25.01,24.77 25.08,25.1 25.19,25.5 C 24.19,25.95 23.34,26.42 22.64,26.86 C 22.78,25.91 23.04,24.93 23.47,23.94 L 24.28,23.96 C 25.36,23.96 26.41,23.63 27.33,23.17 Z M 28.32,24.77 C 27.36,25.07 26.49,25.39 25.72,25.73 C 25.89,26.28 26.14,26.95 26.49,27.73 A 9.12,9.12 0 0,0 29.39,26.72 C 29.05,26.04 28.69,25.39 28.32,24.76 Z M 22.57,27.41 C 23.3,26.93 24.22,26.41 25.32,25.91 C 25.42,26.2 25.52,26.52 25.66,26.87 L 25.25,26.93 L 25.4,27.89 L 25.13,27.92 C 24.21,28.02 23.31,28.02 22.53,27.99 L 22.57,27.41 Z M 25.83,27.84 A 22.3,22.3 0 0,1 25.67,26.89 C 25.78,27.18 25.91,27.49 26.06,27.81 C 25.98,27.81 25.91,27.83 25.83,27.84 Z M 27.73,35.43 L 27.99,35.55 C 28.15,35.83 28.32,36.1 28.49,36.35 L 26.96,36.29 C 27.12,36.01 27.34,35.69 27.64,35.39 L 27.73,35.43 Z M 29.38,36.83 L 29.5,36.97 L 29.9,36.85 L 29.38,36.83 Z M 22.12,27.71 L 21.93,27.85 L 21.97,27.96 L 22.11,27.97 L 22.12,27.71 Z M 32.96,24.75 L 33,24.8 C 33.62,25.67 34.12,26.55 34.53,27.4 A 10.7,10.7 0 0,0 33.84,23.9 A 4.73,4.73 0 0,1 32.96,24.75 Z M 33.91,22.99 A 2.36,2.36 0 0,0 34.01,22.72 L 33.62,22.42 L 33.92,22.99 Z M 28.77,21.75 L 28.75,21.71 L 28.68,21.68 C 28.23,21.45 27.78,21.26 27.35,21.1 L 26.58,21.3 H 26.57 C 26.85,21.7 27.16,22.14 27.47,22.62 A 9.46,9.46 0 0,0 28.77,21.75 Z M 29.15,21.44 L 29.07,21.4 L 28.77,20.8 L 29.81,20.66 L 29.87,20.67 A 6.54,6.54 0 0,1 29.15,21.43 Z M 28.43,21.09 L 28.33,20.89 L 28.09,20.93 L 28.43,21.09 Z M 28.56,20.41 Z M 28.11,20.49 L 28.03,20.34 A 14.36,14.36 0 0,0 26.12,20.26 C 26.51,20.36 26.93,20.49 27.38,20.66 C 27.63,20.59 27.87,20.54 28.11,20.49 Z M 26.11,20.69 L 26.63,20.85 A 20.14,20.14 0 0,0 26.3,20.95 L 26.11,20.7 Z M 31.68,20.53 L 32.16,21.04 C 31.76,20.85 31.36,20.69 30.96,20.56 L 31.68,20.53 Z M 26.13,21.44 A 14.26,14.26 0 0,0 22.29,23.3 A 6.67,6.67 0 0,0 27.09,22.81 C 26.76,22.31 26.43,21.85 26.13,21.44 Z M 21.43,23.34 C 21.45,23.34 21.47,23.36 21.48,23.37 L 21.42,23.42 L 21.44,23.33 Z" fill="rgb(25, 152, 204)" fill-rule="evenodd"/>
<path d="M 32.99,38.065 C 32.55,42.83 31.38,46 29.33,46 C 25.99,46 23.89,38.27 23.23,28.33 C 22.56,18.38 23.23,10 26.92,10 C 29.36,10 31,13.6 32.01,19.04 A 18.2,18.2 0 0,0 29.88,18.54 C 29.15,14.52 28.16,11.92 27.08,11.92 C 25.95,11.92 24.77,19.16 25.35,27.87 C 25.93,36.57 27.65,43.54 29.19,43.44 C 29.94,43.39 30.5,41.68 30.82,38.95 C 31.59,38.75 32.4,38.39 33,38.08 Z" fill="rgb(234, 179, 27)"/>
<path d="M 39.18,27.865 C 43.31,30.22 45.69,32.56 44.83,34.38 C 43.43,37.32 35.55,36 26.26,32.5 C 16.98,29.01 9.66,24.98 11.21,21.72 C 12.23,19.56 16.17,19.59 21.53,20.94 C 21.06,21.44 20.58,22.07 20.18,22.61 C 16.23,21.61 13.47,21.41 13.02,22.36 C 12.54,23.36 18.61,27.38 26.73,30.44 C 34.86,33.5 41.9,34.84 42.45,33.44 C 42.72,32.76 41.41,31.56 39.06,30.16 C 39.2,29.39 39.21,28.54 39.19,27.88 Z" fill="rgb(234, 179, 27)"/>
<path d="M 34.330000000000005,19.605 C 39.16,17.78 42.83,17.33 43.78,19.2 C 45.25,22.1 39.18,27.23 30.48,32.05 C 21.77,36.88 13.88,39.88 12.25,36.67 C 11.24,34.68 13.38,31.97 17.32,29.01 L 18.5,29.52 C 18.89,29.68 19.26,29.84 19.57,29.99 C 16,32.53 13.9,34.67 14.41,35.65 C 14.92,36.63 21.97,34.48 29.53,30.17 C 37.09,25.87 42.58,21.33 41.79,20.04 C 41.36,19.34 39.13,19.76 35.97,20.99 A 12.72,12.72 0 0,0 34.34,19.62 Z" fill="rgb(234, 179, 27)"/>
</svg>
