<?xml version="1.0" encoding="UTF-8"?>
<!-- generated by Finnhub -->
<svg viewBox="0 0 55.5 55.5" xmlns="http://www.w3.org/2000/svg">
<path d="M 0,0 H 55.5 V 55.5 H 0 Z" fill="rgb(239, 242, 248)"/>
<path d="M 31.4,11.985 C 38.36,12 44,17.64 44,24.59 V 31.41 C 44,38.36 38.36,44 31.41,44 H 24.59 A 12.59,12.59 0 0,1 12,31.41 V 24.59 C 12,17.64 17.64,12 24.59,12 H 31.41 Z M 26.94,22 C 26.23,22.06 25.59,22.2 25.21,22.48 C 23.87,23.5 24.04,25.78 24.02,27.3 C 24,29.85 23.98,31.8 24.02,33.15 A 0.9,0.9 0 0,0 24.9,34 H 26.21 A 0.8,0.8 0 0,0 27,33.18 V 31.26 C 27,30.36 27.78,30.19 28.57,30.09 C 29.44,29.97 30.42,30.03 31.12,29.62 C 32.5,28.82 33.04,27.42 33,25.96 A 6.76,6.76 0 0,0 32.63,23.97 C 32.25,22.86 31.53,22 30.18,22 H 26.94 Z M 28.29,23.99 C 29.14,23.96 29.97,24.72 29.99,25.81 V 26.05 C 30.02,27.13 29.22,27.96 28.38,27.99 H 27.76 C 27.36,28 27.01,27.62 27,27.14 V 24.9 C 26.99,24.42 27.28,24 27.67,23.98 H 28.29 Z" fill="rgb(1, 103, 198)"/>
</svg>
