<?xml version="1.0" encoding="UTF-8"?>
<!-- generated by Finnhub -->
<svg viewBox="0 0 55.5 55.5" xmlns="http://www.w3.org/2000/svg">
<path d="M 0,0 H 55.5 V 55.5 H 0 Z" fill="rgb(239, 242, 248)"/>
<path d="M 35.54,32.585 C 35.76,33.08 35.8,33.45 35.8,33.66 A 2.26,2.26 0 0,1 33.6,36 H 24 V 43 H 34.23 C 38.14,43 43,40.1 43,33.57 C 43,31.37 42.55,29.82 41.39,28.35 A 8.06,8.06 0 0,1 35.55,32.6 Z M 16,43 V 13 H 33.27 C 37.17,13 42,15.34 42,22.27 C 42,29.21 37.13,31 33.27,31 H 24 V 24 H 33.04 C 33.72,24 35,23.44 35,21.97 C 35,20.52 33.8,20 33.12,20 H 23 V 43 H 16 Z" fill="rgb(1, 92, 167)"/>
</svg>
