<?xml version="1.0" encoding="UTF-8"?>
<!-- generated by Finnhub -->
<svg viewBox="0 0 55.5 55.5" xmlns="http://www.w3.org/2000/svg">
<rect width="56" height="56" fill="rgb(239, 242, 248)"/>
<path d="M 5.99,22.985 V 34 H 8 V 30 H 11.6049 C 13.48,30 15,28.4653 15,26.5208 S 13.48,23 11.6049,23 H 6 Z M 8,25 H 11.3989 C 12.2832,25 13,25.6705 13,26.4975 C 13,27.3246 12.2832,27.9951 11.3989,27.9951 H 8 V 25 Z M 21.728,34 C 23.3604,34 24.8333,33.3444 25.8766,32.2924 L 24.3977,30.8723 C 23.724,31.5657 22.7589,32 21.6869,32 C 19.6506,32 17.9999,30.433 17.9999,28.5 S 19.6506,25 21.6869,25 C 22.8247,25 23.8422,25.4893 24.5185,26.2583 L 25.9999,24.8359 C 24.951,23.7092 23.4257,23 21.728,23 C 18.5644,23 15.9999,25.4624 15.9999,28.5 S 18.5644,34 21.728,34 Z M 49.877,32.2923 C 48.8337,33.3443 47.3608,34 45.7284,34 C 42.5648,34 40.0003,31.5376 40.0003,28.5 S 42.5648,23 45.7284,23 C 47.4261,23 48.9514,23.7092 50.0003,24.8359 L 48.5782,26.2013 C 47.8908,25.4652 46.8787,25 45.7503,25 C 43.6792,25 42.0003,26.567 42.0003,28.5 S 43.6792,32 45.7503,32 C 46.8124,32 47.7714,31.5879 48.4537,30.9256 L 49.877,32.2923 Z M 29,34 H 27 V 23 L 32.5,26.791 L 38,23 V 34 H 36 V 26.791 L 32.5,29.3079 L 29,26.791 V 34 Z" clip-rule="evenodd" fill="rgb(1, 1, 2)" fill-rule="evenodd"/>
<path d="M 32.49,25.0721 L 28,21.7404 L 32.5,18 V 25.0871 Z" fill="rgb(137, 145, 180)"/>
<path d="M 32.49,25.0721 L 37,21.7404 L 32.5,18 V 25.0871 Z" fill="rgb(8, 40, 116)"/>
</svg>
