<?xml version="1.0" encoding="UTF-8"?>
<!-- generated by Finnhub -->
<svg viewBox="0 0 55.5 55.5" xmlns="http://www.w3.org/2000/svg">
<path d="M 0,0 H 55.5 V 55.5 H 0 Z" fill="rgb(239, 242, 248)"/>
<path d="M 50.15,29.805 L 50.15,29.95 C 50.15,29.98 50.13,30 50.09,30 H 48.89 C 48.84,30 48.81,29.97 48.81,29.92 L 48.15,25.16 C 47.92,23.49 48.01,21.74 48.02,20.04 C 48.02,20.01 48.04,20 48.07,20 L 50.82,20.01 C 50.85,20.01 50.86,20.02 50.86,20.05 C 50.86,21.73 50.96,23.45 50.76,25.12 L 50.16,29.82 Z M 36,29.62 V 21.45 C 36,21.4 36.05,21.37 36,21.37 H 34.68 C 34.63,21.38 34.61,21.36 34.61,21.31 V 20.06 C 34.61,20.02 34.63,20 34.66,20 H 40 C 44.16,20.1 46.1,23.94 44.9,27.73 C 44.08,30.33 41.94,30.97 39.5,31 H 34.67 C 34.63,31 34.61,30.98 34.61,30.93 V 29.71 C 34.61,29.65 34.64,29.62 34.69,29.62 H 36 Z M 42.45,28.14 C 43.63,26.6 43.59,23.44 41.85,22.31 C 40.9,21.68 39.11,21.74 38,21.77 V 29.25 C 39.26,29.3 41.54,29.32 42.45,28.15 Z" fill="rgb(2, 100, 120)"/>
<path d="M 25.63,26.935 C 27.16,30.37 31.7,29.57 32.91,26.47 C 32.92,26.44 32.95,26.42 32.98,26.43 L 34.9,26.67 C 34.94,26.67 34.95,26.7 34.94,26.73 C 33.24,32.13 24.33,32.79 23.06,26.49 C 22.16,21.99 27.02,18.63 31.16,20.55 C 32.76,21.29 33.8,22.75 34.26,24.41 C 34.26,24.45 34.26,24.48 34.21,24.49 L 25.66,26.91 C 25.63,26.91 25.63,26.93 25.64,26.95 Z M 30.9,22.58 C 28.42,20.56 24.92,22.18 25.24,25.38 C 25.24,25.43 25.26,25.45 25.31,25.43 L 31.69,23.64 C 31.73,23.64 31.74,23.61 31.72,23.57 C 31.52,23.2 31.25,22.87 30.9,22.58 Z" fill="rgb(2, 100, 120)"/>
<path d="M 20.61,35.605 C 20.86,35.37 21,35.04 21,34.7 V 21.3 A 1.3,1.3 0 0,0 19.7,20 H 6.3 A 1.3,1.3 0 0,0 5,21.3 V 34.7 A 1.3,1.3 0 0,0 6.3,36 H 19.7 C 20.05,36 20.38,35.86 20.62,35.62 Z M 15.12,29.66 H 15.08 C 14.85,29.48 14.62,29.31 14.38,29.15 C 14.34,29.13 14.32,29.13 14.29,29.15 C 12.92,30.62 11.31,28.02 12.72,27.06 C 13.24,26.72 13.74,26.74 14.24,27.14 C 14.27,27.17 14.31,27.17 14.34,27.14 L 14.95,26.65 C 15.02,26.6 15.02,26.55 14.95,26.49 C 13.12,24.99 10.37,26.87 11.37,29.14 C 11.98,30.52 14.12,30.91 15.12,29.7 V 29.66 Z M 16.19,29.2 C 17.04,30 18.21,29.14 17.4,28.75 C 17.3,28.69 17.14,28.65 16.96,28.59 C 16.54,28.46 16.01,28.29 15.78,27.92 C 15.46,27.43 15.62,26.74 16.06,26.37 C 16.76,25.79 17.84,25.89 18.58,26.37 A 0.06,0.06 0 0,1 18.61,26.41 A 0.06,0.06 0 0,1 18.6,26.45 L 18.02,27.05 C 17.99,27.09 17.96,27.09 17.92,27.07 C 17.64,26.87 17.35,26.8 17.04,26.86 C 16.67,26.93 16.42,27.4 16.84,27.61 C 17.02,27.71 17.24,27.78 17.45,27.84 C 18.06,28.04 18.67,28.22 18.62,29.12 C 18.55,30.68 16.49,30.62 15.52,29.96 L 15.5,29.93 A 0.08,0.08 0 0,1 15.5,29.84 L 16.1,29.2 C 16.13,29.18 16.16,29.17 16.19,29.2 Z M 7.82,26.07 L 7.42,26.09 C 7.39,26.09 7.37,26.11 7.37,26.14 V 30.27 C 7.37,30.3 7.39,30.32 7.43,30.32 H 8.27 C 8.32,30.32 8.34,30.3 8.34,30.25 L 8.33,28.75 A 0.1,0.1 0 0,1 8.36,28.68 A 0.1,0.1 0 0,1 8.44,28.65 C 9.61,28.67 10.85,28.65 10.64,27.07 C 10.48,25.95 8.84,26.02 7.82,26.07 Z M 8.35,27.83 V 26.91 L 8.37,26.89 L 8.39,26.88 H 9.05 C 9.13,26.88 9.21,26.9 9.28,26.92 L 9.48,27.02 C 9.54,27.07 9.58,27.12 9.61,27.18 S 9.66,27.3 9.66,27.36 V 27.39 C 9.66,27.52 9.59,27.64 9.47,27.73 A 0.72,0.72 0 0,1 9.04,27.86 H 8.38 L 8.36,27.85 L 8.35,27.83 Z" fill="rgb(208, 57, 34)" fill-rule="evenodd"/>
<path d="M 37.32,35.485 H 37.63 C 37.67,35.5 37.69,35.52 37.7,35.57 L 37.73,35.91 C 37.73,35.97 37.71,36 37.66,36 H 36.81 C 36.78,36 36.76,35.98 36.76,35.94 V 35.7 C 36.76,35.64 36.73,35.63 36.68,35.66 C 36.1,36.07 35.18,36.22 35.18,35.12 V 33.58 C 35.18,33.54 35.16,33.52 35.12,33.52 H 33.82 C 33.76,33.52 33.74,33.54 33.74,33.6 V 35.06 C 33.74,35.14 33.77,35.22 33.82,35.27 C 33.87,35.33 33.94,35.37 34.02,35.37 C 34.22,35.37 34.39,35.32 34.56,35.2 C 34.62,35.17 34.65,35.18 34.65,35.26 L 34.63,35.7 A 0.1,0.1 0 0,1 34.57,35.79 C 34.12,36.03 33.24,36.18 33.24,35.34 L 33.22,33.59 C 33.22,33.54 33.2,33.52 33.16,33.52 L 32.57,33.5 C 32.53,33.5 32.51,33.48 32.51,33.43 V 33.08 C 32.51,33.04 32.53,33.02 32.57,33.02 H 33.15 C 33.2,33.02 33.22,32.99 33.22,32.94 V 32.63 C 33.22,32.58 33.24,32.55 33.27,32.52 L 33.66,32.12 C 33.71,32.08 33.73,32.09 33.73,32.16 V 32.95 C 33.73,32.99 33.75,33.02 33.8,33.02 H 35.66 C 35.69,33.02 35.7,33.03 35.7,33.07 V 35.24 C 35.7,35.3 35.71,35.35 35.74,35.39 A 0.2,0.2 0 0,0 35.88,35.46 C 36.2,35.49 36.48,35.38 36.72,35.13 A 0.14,0.14 0 0,0 36.76,35.03 V 33.58 C 36.76,33.51 36.73,33.48 36.67,33.49 L 36.38,33.52 C 36.33,33.52 36.31,33.5 36.3,33.45 L 36.27,33.1 C 36.27,33.04 36.29,33.01 36.34,33.01 H 37.21 C 37.25,33.01 37.27,33.03 37.27,33.08 V 35.43 C 37.27,35.48 37.29,35.5 37.33,35.5 Z" fill="rgb(166, 168, 171)"/>
<path d="M 50.96,31.985 H 48.03 A 0.03,0.03 0 0,0 48,32.03 V 34.97 C 48,34.99 48.02,35 48.03,35 H 50.98 L 51,34.97 V 32.02 A 0.03,0.03 0 0,0 50.97,31.99 Z" fill="rgb(2, 100, 120)"/>
<path d="M 30.349999999999998,33.325 C 30.98,32.94 31.92,32.66 31.94,33.86 L 31.97,35.41 C 31.97,35.45 31.98,35.47 32.02,35.47 H 32.33 C 32.39,35.47 32.43,35.5 32.43,35.57 V 35.94 C 32.43,35.98 32.4,36 32.36,36 H 31.49 C 31.44,36 31.42,35.98 31.42,35.93 V 33.83 A 0.3,0.3 0 0,0 31.33,33.62 A 0.25,0.25 0 0,0 31.13,33.54 C 30.83,33.55 30.57,33.66 30.34,33.87 A 0.14,0.14 0 0,0 30.3,33.97 V 35.42 C 30.3,35.47 30.32,35.49 30.36,35.49 L 30.67,35.47 C 30.72,35.47 30.74,35.49 30.75,35.54 L 30.77,35.92 C 30.77,35.97 30.75,36 30.71,36 H 29.35 C 29.32,36 29.3,35.98 29.29,35.94 L 29.25,35.58 C 29.25,35.51 29.28,35.48 29.35,35.48 H 29.67 C 29.72,35.48 29.75,35.45 29.75,35.38 V 33.63 C 29.75,33.57 29.73,33.55 29.68,33.55 H 29.34 C 29.29,33.55 29.27,33.53 29.27,33.48 V 33.12 C 29.26,33.08 29.27,33.05 29.32,33.05 H 30.22 C 30.27,33.05 30.3,33.07 30.3,33.12 V 33.3 C 30.3,33.36 30.32,33.37 30.36,33.34 Z M 39.16,33.54 C 39.39,33.13 39.74,32.95 40.2,33.01 C 40.24,33.01 40.26,33.04 40.26,33.08 V 33.38 A 0.2,0.2 0 0,1 40.21,33.51 A 0.17,0.17 0 0,1 40.15,33.55 A 0.16,0.16 0 0,1 40.08,33.57 C 39.05,33.57 39.18,34.53 39.22,35.45 C 39.22,35.48 39.23,35.5 39.26,35.5 H 39.71 C 39.75,35.5 39.77,35.52 39.77,35.56 V 35.94 C 39.77,35.98 39.75,36 39.71,36 H 38.24 C 38.19,36 38.16,35.97 38.16,35.92 V 35.58 C 38.16,35.52 38.18,35.5 38.23,35.5 H 38.63 C 38.68,35.5 38.71,35.47 38.71,35.42 V 33.63 C 38.71,33.58 38.68,33.55 38.64,33.55 H 38.24 C 38.19,33.55 38.16,33.52 38.16,33.45 V 33.15 C 38.16,33.08 38.19,33.05 38.25,33.05 H 39.04 C 39.08,33.05 39.11,33.08 39.11,33.13 V 33.53 C 39.11,33.59 39.12,33.59 39.16,33.53 Z M 41.17,34.69 C 41.31,35.67 42.31,35.69 42.84,35.11 C 42.87,35.07 42.91,35.06 42.94,35.08 L 43.27,35.22 C 43.32,35.25 43.33,35.28 43.3,35.32 C 42.85,35.91 42.3,36.12 41.62,35.94 C 39.92,35.5 40.42,32.7 42.17,33.03 C 42.87,33.16 43.27,33.67 43.33,34.57 C 43.33,34.61 43.32,34.64 43.27,34.64 H 41.21 C 41.18,34.64 41.17,34.65 41.17,34.69 Z M 41.2,34.19 L 42.73,34.2 H 42.74 V 34.19 A 0.68,0.68 0 0,0 42.53,33.68 A 0.77,0.77 0 0,0 41.99,33.47 H 41.96 C 41.76,33.47 41.56,33.54 41.42,33.67 A 0.7,0.7 0 0,0 41.19,34.17 V 34.18 L 41.2,34.19 Z M 44.37,35.86 C 44.27,36.01 44.12,36.04 43.94,35.96 A 0.07,0.07 0 0,1 43.9,35.89 V 35.03 C 43.9,34.99 43.92,34.96 43.96,34.96 H 44.31 C 44.35,34.96 44.38,34.99 44.38,35.03 L 44.4,35.18 C 44.4,35.22 44.43,35.26 44.46,35.28 C 44.76,35.52 45.06,35.55 45.39,35.38 A 0.15,0.15 0 0,0 45.46,35.29 C 45.74,34.49 43.76,35.06 43.91,33.8 C 44.01,33.05 44.82,32.9 45.38,33.2 C 45.43,33.22 45.45,33.2 45.45,33.14 V 33.08 C 45.45,33 45.48,32.98 45.55,33.01 C 45.63,33.06 45.72,33.06 45.81,33.01 C 45.88,32.99 45.91,33.01 45.91,33.09 V 33.96 C 45.91,34 45.88,34.03 45.84,34.03 L 45.47,34.06 C 45.42,34.06 45.41,34.04 45.43,33.99 L 45.45,33.96 A 0.1,0.1 0 0,0 45.43,33.85 C 45.16,33.51 44.85,33.45 44.49,33.65 A 0.15,0.15 0 0,0 44.42,33.73 C 44.34,33.94 44.38,34.07 44.53,34.1 C 44.94,34.19 45.59,34.26 45.86,34.56 C 46.23,34.99 46.02,35.66 45.49,35.86 C 45.14,36 44.79,35.99 44.45,35.84 C 44.42,35.82 44.39,35.83 44.37,35.86 Z M 25.62,33.54 L 24.79,35.97 L 24.77,35.99 L 24.74,36 H 24.32 L 24.29,35.99 L 24.28,35.97 L 23.42,33.55 A 0.05,0.05 0 0,0 23.41,33.52 H 23 C 22.98,33.52 22.97,33.5 22.96,33.49 A 0.06,0.06 0 0,1 22.95,33.46 V 33.06 L 22.96,33.02 L 23,33 H 24.28 L 24.29,33.02 L 24.3,33.04 V 33.06 L 24.26,33.46 L 24.25,33.5 L 24.21,33.51 H 24 L 23.98,33.53 A 0.06,0.06 0 0,0 23.98,33.58 L 24.48,35.06 L 24.5,35.08 L 24.53,35.09 H 24.56 L 24.58,35.06 L 25.08,33.57 A 0.06,0.06 0 0,0 25.08,33.52 L 25.06,33.51 H 25.04 L 24.79,33.53 H 24.76 L 24.74,33.5 V 33.05 L 24.75,33.02 L 24.79,33 H 25.99 S 26.01,33 26.02,33.02 L 26.03,33.05 V 33.5 L 26.01,33.52 H 26 L 25.98,33.53 L 25.68,33.5 L 25.65,33.51 L 25.63,33.54 Z M 26.73,34.7 C 26.86,35.66 27.86,35.74 28.37,35.1 C 28.4,35.07 28.43,35.06 28.47,35.08 L 28.81,35.25 C 28.85,35.27 28.86,35.3 28.83,35.35 C 27.96,36.48 26.08,36.1 26.13,34.48 C 26.22,32.48 28.8,32.51 28.86,34.58 C 28.86,34.63 28.84,34.66 28.8,34.66 L 26.77,34.65 C 26.74,34.65 26.72,34.67 26.73,34.71 Z M 26.73,34.22 L 28.29,34.2 A 0.7,0.7 0 0,0 28.06,33.68 A 0.78,0.78 0 0,0 27.52,33.48 H 27.49 A 0.79,0.79 0 0,0 26.95,33.69 A 0.72,0.72 0 0,0 26.74,34.21 Z" fill="rgb(166, 168, 171)"/>
</svg>
