<?xml version="1.0" encoding="UTF-8"?>
<!-- generated by Finnhub -->
<svg viewBox="0 0 55.5 55.5" xmlns="http://www.w3.org/2000/svg">
<path d="M 0,0 H 55.5 V 55.5 H 0 Z" fill="rgb(239, 242, 248)"/>
<path d="M 23.31,12.385 C 26.77,11.62 30.59,11.94 33.68,13.73 C 35.78,14.99 37.6,16.83 38.42,19.2 C 38.95,19.97 39.28,21.99 39.57,22.16 C 40.19,19.26 39.47,16.2 37.99,13.69 C 41.23,15.65 42.38,19.69 42.78,23.27 C 43.06,24.59 42.78,26.87 43.05,27.66 C 44.28,26.26 44.58,24.32 44.75,22.52 C 45.53,27.62 44.55,33.24 41.29,37.32 C 38.64,40.57 34.69,42.46 30.74,43.49 C 27.01,44.5 22.98,43.97 19.57,42.19 C 13.5,39.22 9.99,31.88 11.26,25.19 C 12.31,18.99 17.23,13.69 23.32,12.39 Z M 27.7,15.7 C 29.63,16.32 31.64,17.23 32.79,19 C 29.36,17.42 24.73,17.82 22.2,20.86 C 19.97,23.77 20.1,27.94 21.55,31.16 C 22.73,33.71 25.7,34.73 28.31,34.42 C 29.81,34.18 31.61,34.16 32.65,32.85 C 37.03,28.43 37.36,20.5 33.11,15.88 C 31.58,14.75 29.38,15.22 27.7,15.71 Z" fill="rgb(167, 221, 239)"/>
<path d="M 22.99,12.455 C 26.37,11.63 30.08,11.89 33.2,13.45 C 35.48,14.71 37.51,16.62 38.4,19.15 C 38.96,19.9 39.29,22.15 39.6,22.12 C 40.2,19.24 39.5,16.18 38.01,13.68 C 41.39,15.78 42.49,20.03 42.84,23.79 C 43.08,24.94 42.76,27.12 43.07,27.67 C 44.28,26.27 44.6,24.35 44.76,22.55 C 45.52,27.72 44.52,33.42 41.14,37.5 C 38.36,40.77 34.3,42.63 30.24,43.63 C 26.64,44.44 22.8,43.9 19.53,42.17 C 13.52,39.19 10.03,31.95 11.23,25.28 C 12.26,19.14 17.02,13.88 23.01,12.47 Z M 22.24,15.75 C 18.57,16.81 15.86,20.07 14.58,23.62 C 13.31,27.47 14.97,31.64 17.4,34.65 C 17.84,35.25 19.58,37.2 18.38,35.39 C 17.96,34.59 16.91,32.23 18.28,33.92 C 19.84,35.39 21.39,36.89 23.36,37.74 C 24.74,38.11 22.4,36.87 22.24,36.29 C 21.15,34.5 23.14,36.73 23.97,36.84 C 26.37,37.84 28.8,36.26 30.57,34.71 A 13.16,13.16 0 0,0 36.11,24.95 C 36.31,21.59 35.31,17.95 32.83,15.6 C 31.16,14.8 29.23,15.23 27.53,15.68 C 25.79,15.28 23.97,15.28 22.24,15.75 Z M 28,36.42 C 27.89,36.49 27.97,36.38 28,36.42 Z M 24.37,41.3 C 24.41,41.15 24.47,41.36 24.37,41.3 Z" fill="rgb(89, 165, 217)"/>
<path d="M 38.1,13.764999999999999 C 41.27,15.82 42.38,19.79 42.77,23.36 C 42.92,24.85 42.97,26.35 42.89,27.84 C 44.27,26.52 44.57,24.48 44.76,22.66 C 45.38,27.06 44.73,31.77 42.45,35.62 C 40.13,39.6 35.91,41.9 31.69,43.22 A 15.6,15.6 0 0,1 19.43,42.05 C 17.23,41.06 15.8,38.65 15.48,36.37 C 17.89,39.27 20.94,42.09 24.78,42.63 C 25.48,42.81 28.5,42.48 26.58,42.16 C 24.93,41.7 23.18,40.96 22.26,39.41 A 7.72,7.72 0 0,0 28.89,40.21 A 9.18,9.18 0 0,0 32.75,37.71 C 30.27,38.65 27.51,38.17 25.12,37.18 C 27.86,37.35 29.98,35.26 31.92,33.61 A 12.9,12.9 0 0,0 35.77,20.89 A 11,11 0 0,0 33,15.73 C 34.98,15.06 36.94,16.53 37.86,18.23 C 38.61,19.49 39.16,20.96 39.52,22.45 C 40.25,19.5 39.55,16.32 38.05,13.74 L 38.1,13.78 Z M 39.01,14.53 C 39.05,14.43 39.06,14.61 39.01,14.53 Z M 38.92,15.41 C 38.92,15.32 39,15.48 38.92,15.41 Z" fill="rgb(56, 87, 166)"/>
</svg>
