<?xml version="1.0" encoding="UTF-8"?>
<!-- generated by Finnhub -->
<svg viewBox="0 0 55.5 55.5" xmlns="http://www.w3.org/2000/svg">
<path d="M 0,0 H 55.5 V 55.5 H 0 Z" fill="rgb(210, 30, 40)"/>
<path d="M 16.99,24.961 L 8,19 L 17,13 V 24.976 Z M 38,24.976 L 28.794,19 L 38,13 V 24.976 Z M 39,24.976 L 47.975,19 L 39,13 V 24.976 Z M 47.975,33 L 39,38.992 V 27.016 L 47.975,33 Z M 38,38.992 L 28.794,33 L 38,27.016 V 38.992 Z M 37.732,40 L 28.512,46 V 34.024 L 37.732,40 Z M 27.488,46 L 18.55,40 L 27.488,34.024 V 46 Z M 39.268,26 L 49,32.523 V 19.507 L 39.268,26 Z M 27.206,19 L 18,24.976 V 13 L 27.206,19 Z M 17,38.992 L 8,33 L 17,27.016 V 38.992 Z M 27.206,33 L 18,38.992 V 27.016 L 27.206,33 Z M 7,32.523 L 16.73,26.015 L 7,19.507 V 32.522 Z" fill="rgb(254, 254, 253)"/>
</svg>
