<?xml version="1.0" encoding="UTF-8"?>
<!-- generated by Finnhub -->
<svg viewBox="0 0 55.5 55.5" xmlns="http://www.w3.org/2000/svg">
<path d="M 0,0 H 55.5 V 55.5 H 0 Z" fill="rgb(239, 242, 248)"/>
<path d="M 27.79,10.985 C 21.97,11 18.84,14.17 18,15.76 C 19.02,14.28 22.14,13 24.33,13 C 33.98,13 38,23.43 38,28.7 C 38,33.15 35.94,34.75 35.06,35 C 37.7,34.78 43,32.6 43,25.6 C 43,16.88 35.1,11 27.8,11 Z" fill="rgb(57, 174, 72)"/>
<path d="M 12.69,36.835 C 15.37,41.8 19.53,43.01 21.27,43 C 17.09,42.55 15.03,37.48 15,33.74 C 14.96,27.58 19.82,22.27 23.38,20.38 C 25.26,19.38 26.75,19 27.84,19 C 28.97,19 29.69,19.41 30,19.74 C 28.6,17.59 24.3,14.09 18.3,17.29 C 10.79,21.28 9.36,30.67 12.7,36.85 Z" fill="rgb(1, 92, 166)"/>
<path d="M 43.06,37.644999999999996 C 46.05,32.76 44.93,28.51 44,27 C 44.75,28.6 44.3,31.92 43.2,33.76 C 40.61,38 36.41,38.99 32.34,39 C 28.62,39.01 25.02,38.3 22.87,37.02 C 19.06,34.76 18.75,32.86 18.99,32 A 8.6,8.6 0 0,0 17.99,35.68 C 17.97,38.06 19.12,40.87 22.81,43.05 C 30.29,47.48 39.35,43.8 43.06,37.66 Z" fill="rgb(141, 144, 143)"/>
<path d="M 24.799999999999997,26.215 A 17.33,17.33 0 0,1 18,28 C 19.45,25.2 22.87,22.5 25.2,21.2 C 27.51,19.93 29.6,19.72 29.91,20.33 C 30.54,21.54 27.75,24.61 24.81,26.23 Z" fill="rgb(1, 92, 166)"/>
<path d="M 31.99,26.794999999999998 C 32,24.15 33.1,21.16 33.66,20 C 35.32,22.55 36,26.81 36,29.44 C 36,32.07 35.22,34 34.56,34 C 33.26,34 32,30.14 32,26.81 Z" fill="rgb(57, 174, 72)"/>
<path d="M 27.84,32.955 A 18.19,18.19 0 0,1 33,38 C 29.82,38.15 25.66,36.55 23.33,35.18 C 20.99,33.82 19.7,32.12 20.06,31.53 C 20.76,30.38 24.89,31.25 27.85,32.98 Z" fill="rgb(141, 144, 143)"/>
</svg>
