<?xml version="1.0" encoding="UTF-8"?>
<!-- generated by Finnhub -->
<svg viewBox="0 0 55.5 55.5" xmlns="http://www.w3.org/2000/svg">
<path d="M 0,0 H 55.5 V 55.5 H 0 Z" fill="rgb(0, 124, 193)"/>
<path d="M 27.99,19.407999999999998 C 32.868,19.423 37.024,22.156 38.655,26.001 C 37.581,21.425 33.218,18 28,18 C 22.782,18 18.42,21.425 17.345,26.001 C 18.976,22.156 23.131,19.423 28,19.423 Z M 23.91,23 H 24.136 L 24.364,31 H 31.636 L 31.864,23 H 32.091 L 33,32 H 23 L 23.91,23 Z M 21,27 H 10 V 29 H 7 V 31 H 4 V 32 H 21 V 27 Z M 46,27 H 35 V 32 H 52 V 31 H 49 V 29 H 46 V 27 Z" clip-rule="evenodd" fill="rgb(254, 254, 253)" fill-rule="evenodd"/>
</svg>
