<?xml version="1.0" encoding="UTF-8"?>
<!-- generated by Finnhub -->
<svg viewBox="0 0 55.5 55.5" xmlns="http://www.w3.org/2000/svg">
<path d="M 0,0 H 55.5 V 55.5 H 0 Z" fill="rgb(239, 242, 248)"/>
<path d="M 30.069999999999997,30.764 C 33.664,30.489 37.205,31.33 40,32.692 C 37.916,31.26 34.49,29.014 30,27.903 C 29.91,29.173 30.012,30.246 30.08,30.779 Z M 29.93,30.779 C 25.916,31.171 20.559,32.497 16.193,34.176 C 15.119,30.413 18.503,25.772 27.7,27.304 C 28.142,27.378 28.578,27.46 29,27.546 C 29.218,28.874 29.605,29.964 29.93,30.779 Z" fill="rgb(1, 165, 165)"/>
<path d="M 43.693000000000005,23.544999999999998 L 43.653,23.536 C 43.649,23.533 43.073,23.268 42.623,23.752 L 42.566,23.815 L 43.487,24.277 L 43.703,23.56 Z M 47.92,28.739 S 47.518,29.475 47.338,29.747 C 47.158,30.021 46.593,30.191 46.104,29.952 C 45.88,29.843 43.79,28.595 42.99,28.666 C 38.942,29.028 37.839,27.32 37.709,27.166 C 37.579,27.01 37.335,27.082 37.509,27.387 C 38.397,28.947 41.235,30.103 41.235,30.103 C 41.923,31.799 42.005,32.987 42.005,32.987 C 41.325,32.443 40.589,31.986 39.81,31.606 C 37.726,30.174 34.49,28.112 30,27 C 30.258,23.354 31.82,17.94 40.223,19.186 C 40.223,19.186 41.91,19.469 43.033,20.266 C 43.033,20.266 42.763,20.555 42.408,20.918 C 42.053,21.28 42.446,21.513 42.446,21.513 L 44.221,22.941 C 44.242,23.697 44.273,23.909 44.828,24.593 C 45.383,25.275 47.543,27.591 47.825,27.9 C 48.153,28.259 47.92,28.739 47.92,28.739 Z M 29.005,21.67 C 28.561,23.544 28.772,25.2 29,26.588 A 36.371,36.371 0 0,0 27.714,26.346 C 18.516,24.814 15.119,29.412 16.193,33.174 C 13.152,34.345 10.294,35.685 8,37 C 11.61,28.137 19.455,20.336 26.076,19.31 C 28.238,19.019 29.287,20.494 29.006,21.671 Z" fill="rgb(30, 36, 83)"/>
</svg>
