<?xml version="1.0" encoding="UTF-8"?>
<!-- generated by Finnhub -->
<svg viewBox="0 0 55.5 55.5" xmlns="http://www.w3.org/2000/svg">
<path d="M 0,0 H 55.5 V 55.5 H 0 Z" fill="rgb(239, 242, 248)"/>
<path d="M 11.99,13.985 H 44 V 42 H 12 V 14 Z" fill="rgb(193, 59, 64)"/>
<path d="M 43.99,19.564999999999998 A 28.37,28.37 0 0,0 28.5,15 A 28.37,28.37 0 0,0 12,20.26 V 22.76 A 26.54,26.54 0 0,1 16.1,20.08 L 23.6,37.31 C 23.23,37.56 22.88,37.84 22.55,38.14 L 12,27.59 V 30.41 L 21.27,39.68 C 20.97,40.14 20.72,40.63 20.52,41.15 L 12,37.01 V 39.23 L 17.69,42 H 22.34 A 6,6 0 0,1 33.66,42 H 37.5 L 44,39.17 V 36.99 L 35.32,40.77 A 7.97,7.97 0 0,0 34.73,39.68 L 44,30.41 V 27.6 L 33.45,38.14 C 33.12,37.84 32.76,37.55 32.38,37.31 L 39.92,19.58 C 41.35,20.27 42.72,21.08 44,22 V 19.58 Z M 32.58,42 A 5,5 0 0,0 23.42,42 H 25.76 A 3,3 0 0,1 30.24,42 H 32.58 Z M 25.41,36.43 L 17.9,19.21 A 26.36,26.36 0 0,1 27,17.04 V 36.06 C 26.45,36.13 25.92,36.26 25.4,36.43 Z M 29,36.06 V 17 C 32.2,17.06 35.26,17.69 38.08,18.78 L 30.58,36.43 C 30.08,36.25 29.55,36.13 29,36.06 Z" fill="rgb(182, 56, 60)"/>
<path d="M 16.61,23.845 L 15.17,28 H 14 L 15.98,23 H 16.73 L 16.63,23.86 Z M 17.82,28 L 16.37,23.86 L 16.25,23 H 17.01 L 19,28 H 17.83 Z M 17.76,26 V 27 H 14.94 V 26 H 17.76 Z M 27.62,23.86 L 26.17,28 H 25 L 26.98,23 H 27.73 L 27.63,23.86 Z M 28.82,28 L 27.37,23.86 L 27.25,23 H 28.01 L 30,28 H 28.83 Z M 28.76,26 V 27 H 25.94 V 26 H 28.76 Z M 22,28 H 20.47 V 27 H 22 C 22.91,27 23,26.5 23,26 V 25 C 23,24.5 22.9,24 22,24 H 20.47 L 20.45,23 H 22 C 23.37,23 24,23.63 24,25 V 26 C 24,27.38 23.37,28 22,28 Z M 21.03,23 V 28 H 20 V 23 H 21.03 Z M 31.54,23 H 32.54 L 34,26.67 L 35.46,23 H 36.46 L 34.4,28 H 33.6 L 31.54,23 Z M 31,23 H 32 V 28 H 31 V 23 Z M 36,23 H 37 V 28 H 36 V 23 Z M 41.04,26.65 C 41.04,26.13 40.31,25.99 39.91,25.87 C 39.17,25.65 38,25.28 38,24.36 C 38,23.37 39.27,23 40.09,23 C 40.99,23 41.99,23.48 41.99,24.5 H 41 C 41,24 40.52,23.77 40.07,23.77 C 39.71,23.77 39,23.92 39,24.36 C 39,24.82 39.93,24.98 40.27,25.08 C 41.05,25.3 42,25.7 42,26.65 C 42,27.65 40.96,28 40.11,28 C 39.15,28 38,27.52 38,26.4 H 39 C 39,27 39.57,27.23 40.11,27.23 C 40.48,27.23 41.04,27.09 41.04,26.65 Z" fill="rgb(254, 254, 253)"/>
<path d="M 19.99,29.985 V 34 H 19 V 30 H 20 Z M 22,31.7 V 32.35 H 19.69 V 31.71 H 22 Z M 22,30 V 30.65 H 19.69 V 30 H 22 Z M 25,30 H 26 V 32.5 C 26,33.37 25.34,34 24.5,34 S 23,33.38 23,32.5 V 30 H 24 V 32.5 C 24,32.94 24.04,33.26 24.5,33.26 C 24.97,33.26 25,32.94 25,32.5 V 30 Z M 30,30 V 34 H 29 L 28,31.5 V 34 H 27 V 30 H 28 L 29,32.5 V 30 H 30 Z M 32.2,34 H 31.35 V 33.36 H 32.2 C 32.92,33.36 33,33.13 33,32.5 V 31.5 C 33,30.88 32.92,30.65 32.21,30.65 H 31.33 V 30 H 32.21 C 33.29,30 34,30.46 34,31.5 V 32.5 C 34,33.55 33.28,34 32.2,34 Z M 32,30 V 34 H 31 V 30 H 32 Z M 37,32.92 C 37,32.52 36.75,32.4 36.43,32.3 C 35.85,32.11 35,31.8 35,31.09 C 35,30.33 35.92,30 36.57,30 C 37.27,30 38,30.42 38,31.2 H 37 C 37,30.82 36.9,30.62 36.55,30.62 C 36.26,30.62 36,30.75 36,31.09 C 36,31.33 36.17,31.46 36.37,31.55 C 37.04,31.83 38,32 38,32.92 C 38,33.7 37.26,34 36.58,34 C 35.82,34 35,33.58 35,32.73 H 36 C 36,33.19 36.16,33.39 36.58,33.39 C 36.88,33.39 37,33.26 37,32.92 Z" fill="rgb(187, 196, 197)"/>
</svg>
