<svg width="60" height="60" viewBox="0 0 60 60" fill="none" xmlns="http://www.w3.org/2000/svg">
<rect width="60" height="60" fill="white"/>
<g clip-path="url(#clip0_150_709)">
<path d="M45.0654 45.2305C36.7995 53.5333 23.4001 53.5333 15.1516 45.2305C6.88569 36.9278 6.88569 23.4687 15.1516 15.1835C23.4175 6.88074 36.8169 6.88074 45.0654 15.1835C53.3312 23.4862 53.3312 36.9453 45.0654 45.2305Z" fill="white"/>
<path d="M41.8808 14.4318C38.5919 11.9497 34.5198 10.4814 30.1172 10.4814C19.2758 10.4989 10.4879 19.326 10.4879 30.1982C10.4879 34.5855 11.9148 38.6233 14.3163 41.8919C27.5069 38.0465 37.9306 27.6462 41.8808 14.4318Z" fill="#EB1D39"/>
<path d="M46.5793 19.4834C46.9796 20.7769 47.1884 22.1403 47.1884 23.5561C47.1884 28.1357 44.9436 32.156 41.5502 34.673C35.6162 39.0603 26.9848 39.0603 15.0646 42.8359C18.6668 47.1533 24.0787 49.915 30.1172 49.915C40.9585 49.915 49.7465 41.0879 49.7465 30.1983C49.7291 26.2479 48.5805 22.5773 46.5793 19.4834Z" fill="#005891"/>
</g>
<defs>
<clipPath id="clip0_150_709">
<rect width="44" height="44" fill="white" transform="translate(8 8)"/>
</clipPath>
</defs>
</svg>
