<?xml version="1.0" encoding="UTF-8"?>
<!-- generated by Finnhub -->
<svg viewBox="0 0 55.5 55.5" xmlns="http://www.w3.org/2000/svg">
<path d="M 0,0 H 55.5 V 55.5 H 0 Z" fill="rgb(239, 242, 248)"/>
<path d="M 26.919999999999998,35.435 L 36.48,31.82 C 40.93,29.8 42,26.77 42,24 C 42,21.22 41.47,19.11 39.42,17.68 C 40.84,19.11 38.44,21.05 35.68,22.14 L 26.66,25.09 C 22.12,26.69 19,29.47 19,34.02 V 48 C 19.71,47.92 20.07,38.4 26.93,35.45 Z" fill="url(#c)"/>
<path d="M 25.779999999999998,22.375 L 30.51,24.07 L 35.68,22.13 C 38.44,21.03 40.84,19.1 39.42,17.67 C 38.52,16.99 37.19,16.32 35.5,15.73 L 19,10 V 15.14 C 19,17.92 21.25,20.95 25.79,22.39 Z" fill="url(#b)"/>
<path d="M 28.99,34.505 L 26.79,35.42 C 20.15,38.2 19.62,47.1 19,47.52 L 23.6,45.72 C 27.32,44.33 29.09,42.2 29,37.14 V 34.52 Z" fill="url(#a)"/>
<defs>
<linearGradient id="c" x1="20.27" x2="41.66" y1="37.87" y2="23" gradientUnits="userSpaceOnUse">
<stop stop-color="rgb(51, 157, 166)" offset="0"/>
<stop stop-color="rgb(149, 211, 204)" offset=".74"/>
</linearGradient>
<linearGradient id="b" x1="33.16" x2="9.52" y1="21.16" y2="4.94" gradientUnits="userSpaceOnUse">
<stop stop-color="rgb(10, 76, 131)" offset="0"/>
<stop stop-color="rgb(22, 91, 146)" offset=".08"/>
<stop stop-color="rgb(49, 124, 177)" offset=".27"/>
<stop stop-color="rgb(68, 148, 199)" offset=".46"/>
<stop stop-color="rgb(79, 162, 212)" offset=".63"/>
</linearGradient>
<linearGradient id="a" x1="24.17" x2="23.18" y1="41.96" y2="36.58" gradientUnits="userSpaceOnUse">
<stop stop-color="rgb(10, 76, 131)" offset="0"/>
<stop stop-color="rgb(4, 37, 45)" offset="1"/>
</linearGradient>
</defs>
</svg>
