<?xml version="1.0" encoding="UTF-8"?>
<!-- generated by Finnhub -->
<svg viewBox="0 0 55.5 55.5" xmlns="http://www.w3.org/2000/svg">
<path d="M 0,0 H 55.5 V 55.5 H 0 Z" fill="rgb(1, 34, 66)"/>
<path d="M 41.9,33.985 C 47.48,34 52,33.08 52,31.94 S 47.48,29.88 41.91,29.88 S 31.82,30.8 31.82,31.94 S 36.34,34 41.92,34 Z M 40.11,33.25 C 44.36,33.25 47.8,32.67 47.8,31.95 C 47.8,31.24 44.36,30.65 40.11,30.65 C 35.87,30.65 32.43,31.24 32.43,31.95 C 32.43,32.67 35.87,33.25 40.11,33.25 Z" fill="rgb(7, 91, 174)" fill-rule="evenodd"/>
<path d="M 39.17,32.845 C 42.73,32.86 45.61,32.41 45.61,31.86 C 45.61,31.29 42.73,30.84 39.18,30.84 S 32.75,31.29 32.75,31.85 S 35.63,32.86 39.18,32.86 Z M 37.82,32.35 C 40.12,32.35 41.99,32.1 41.99,31.81 C 41.99,31.51 40.12,31.27 37.82,31.27 S 33.66,31.51 33.66,31.81 C 33.66,32.11 35.52,32.35 37.82,32.35 Z" fill="rgb(7, 91, 174)" fill-rule="evenodd"/>
<ellipse cx="38.11" cy="31.85" rx=".3" ry=".35" fill="rgb(7, 91, 174)"/>
<path d="M 30.759999999999998,27.025 C 34.06,28.21 36.86,30.51 37.85,31.52 A 72.98,72.98 0 0,0 30.19,27.65 L 30.77,27.04 Z" fill="rgb(7, 91, 174)"/>
<path d="M 29.63,26.515 C 17.04,21.8 7.3,21.68 4,22.2 A 82.83,82.83 0 0,1 29.64,27.43 V 26.52 Z" fill="rgb(228, 24, 53)"/>
<path d="M 6.99,24.985 H 9.64 A 1.5,1.5 0 0,1 9.64,28 H 8.53 V 30 H 7 V 25 Z M 8.5,26 H 9.2 A 0.5,0.5 0 0,1 9.2,27 H 8.5 V 26 Z M 13.25,30 C 14.25,30 14.85,29.58 15.13,28.95 L 13.81,28.77 A 0.61,0.61 0 0,1 13.25,29.12 C 12.85,29.12 12.62,28.81 12.55,28.37 H 15.29 L 15.31,28 C 15.31,26.9 14.6,26 13.25,26 S 11.18,26.9 11.18,28 S 11.8,30 13.25,30 Z M 13.94,27.66 C 13.86,27.22 13.62,26.9 13.24,26.9 C 12.87,26.9 12.64,27.22 12.55,27.66 H 13.94 Z" fill="rgb(254, 254, 253)" fill-rule="evenodd"/>
<path d="M 16.99,25.985 H 15.65 V 30 H 17 V 28.03 C 17.12,27.52 17.41,27.07 18.01,27.33 L 18.41,26.23 C 18.05,26.02 17.31,25.82 17,26.61 V 26 Z M 18.66,26 V 30 H 20 V 27.81 C 20,27.45 20.2,27.16 20.46,27.16 S 21,27.45 21,27.81 V 30 H 22.27 V 27.82 C 22.27,27.45 22.48,27.16 22.74,27.16 S 23.22,27.46 23.22,27.82 V 30 H 24.55 V 27.16 C 24.51,26.77 24.24,26 23.46,26 C 22.69,26 22.27,26.4 22.16,26.6 C 22.1,26.4 21.83,26 21.16,26 C 20.35,26 20.13,26.4 20,26.6 V 26 H 18.66 Z" fill="rgb(254, 254, 253)"/>
<path d="M 24.93,27.175 C 24.9,26.76 25.26,25.93 26.94,26 C 28.64,26.07 28.74,27.01 28.74,27.55 V 29.23 C 28.74,29.35 28.8,29.65 28.91,29.9 H 27.61 L 27.47,29.48 C 27.33,29.66 26.87,30.01 26.15,30 C 25.25,29.99 24.84,29.43 24.84,28.93 C 24.84,28.43 25.07,28.01 26.01,27.76 C 26.76,27.56 27.26,27.41 27.41,27.36 C 27.42,27.21 27.34,26.89 26.95,26.89 C 26.47,26.89 26.32,27.18 26.24,27.37 L 24.94,27.19 Z M 27.39,28.12 V 28.56 C 27.38,28.76 27.19,29.15 26.64,29.18 C 25.99,29.22 26.14,28.56 26.36,28.48 L 27.4,28.12 Z" fill="rgb(254, 254, 253)" fill-rule="evenodd"/>
<path d="M 33.28,26.425 H 34.59 V 30 H 33.29 Z M 33.29,25 H 34.59 V 26 H 33.29 Z M 29.5,25 H 33 V 26 H 31 V 27 H 32.73 V 28 H 31 V 30 H 29.5 V 25 Z M 36.1,27.9 L 34.98,26 H 36.49 L 37.03,27.07 L 37.64,26 H 39.07 L 37.92,27.9 L 39.16,30 H 37.64 L 37.03,28.73 L 36.3,30 H 34.9 L 36.12,27.9 Z" fill="rgb(254, 254, 253)"/>
</svg>
