<?xml version="1.0" encoding="UTF-8"?>
<!-- generated by Finnhub -->
<svg viewBox="0 0 55.5 55.5" xmlns="http://www.w3.org/2000/svg">
<path d="M 0,0 H 55.5 V 55.5 H 0 Z" fill="rgb(239, 242, 248)"/>
<path d="M 37.190000000000005,21.205 C 35.26,18.95 33.88,17.43 32.65,15.62 C 31.51,13.95 30.81,12.52 30.81,11.06 C 30.81,9.63 31.38,8.12 31.38,8.12 L 31.34,8 C 29.67,12.07 28.72,14.5 29.04,17.96 C 29.37,21.66 32.04,24.63 34.32,27.1 C 36.16,29.1 37.28,30.36 37.79,32.65 C 38.14,34.25 38.35,37.61 35.99,40.85 C 33.85,43.77 30.51,44.75 29,45 V 46 C 30.68,45.8 34.7,45.01 37.56,42.39 C 40.12,40.04 41.13,38 41.8,34.84 C 42.36,32.16 41.73,28.34 40.07,25.39 A 26.36,26.36 0 0,0 37.19,21.22 Z M 19.88,40.81 A 10,10 0 0,1 18.28,32.62 C 18.78,30.33 19.89,29.07 21.73,27.07 C 24.02,24.6 26.73,21.65 27.06,17.96 C 27.38,14.5 26.42,12.06 24.76,8 L 24.72,8.12 S 25.29,9.63 25.29,11.06 C 25.29,12.52 24.59,13.94 23.45,15.62 C 22.22,17.43 20.83,18.95 18.9,21.22 A 26.6,26.6 0 0,0 15.97,25.39 C 14.31,28.33 13.63,32.16 14.2,34.84 C 14.87,38 15.79,40.04 18.35,42.39 C 21.37,45.16 25.56,45.85 27,46 V 45 C 25.7,44.8 22.15,43.92 19.88,40.81 Z" fill="rgb(1, 172, 238)"/>
<path d="M 36.99,35.065 A 8.8,8.8 0 0,0 34.27,28.69 A 33.83,33.83 0 0,1 29.79,23.36 C 28.36,21.03 28,19 28,19 S 27.63,21.04 26.19,23.36 A 35.11,35.11 0 0,1 21.65,28.78 A 8.76,8.76 0 0,0 19,35.04 A 9,9 0 0,0 28,44 C 32.97,44 37,40 37,35.08 Z" fill="rgb(22, 18, 97)"/>
<circle cx="28" cy="35" r="7" fill="rgb(236, 29, 33)"/>
</svg>
