<?xml version="1.0" encoding="UTF-8"?>
<!-- generated by Finnhub -->
<svg viewBox="0 0 55.5 55.5" xmlns="http://www.w3.org/2000/svg">
<path d="M 0,0 H 55.5 V 55.5 H 0 Z" fill="rgb(239, 242, 248)"/>
<path d="M 33.59,12.014999999999999 C 35.33,12.34 36.32,14.97 35.81,17.89 C 35.31,20.82 33.49,22.94 31.76,22.62 C 30.04,22.32 29.05,19.69 29.56,16.76 C 30.06,13.84 31.87,11.72 33.6,12.03 Z M 43.75,23.27 C 44.45,20.84 43.64,18.47 41.95,17.97 S 38.34,19.03 37.65,21.46 S 37.77,26.26 39.45,26.76 C 41.14,27.26 43.06,25.69 43.75,23.26 Z M 19.38,40.83 C 22.36,43.95 26.15,45.44 29.03,44.89 C 31.4,44.59 34.01,43.29 36.23,41.15 C 40.4,37.13 41.63,31.62 38.98,28.84 C 37.08,26.84 33.73,26.81 30.45,28.4 A 5.26,5.26 0 0,1 25.62,28.3 C 22.42,26.59 19.1,26.51 17.15,28.4 C 14.41,31.08 15.39,36.63 19.38,40.83 Z M 16.55,26.77 C 18.24,26.27 19.05,23.9 18.35,21.47 C 17.66,19.05 15.73,17.49 14.05,17.99 C 12.36,18.49 11.55,20.86 12.25,23.29 C 12.94,25.71 14.86,27.27 16.55,26.77 Z M 26.44,16.77 C 26.94,19.7 25.96,22.33 24.23,22.64 C 22.5,22.95 20.69,20.84 20.18,17.91 C 19.68,14.98 20.66,12.36 22.39,12.05 C 24.12,11.73 25.93,13.85 26.44,16.78 Z" fill="rgb(246, 17, 39)"/>
</svg>
