<?xml version="1.0" encoding="UTF-8"?>
<!-- generated by Finnhub -->
<svg viewBox="0 0 55.5 55.5" xmlns="http://www.w3.org/2000/svg">
<path d="M 0,0 H 55.5 V 55.5 H 0 Z" fill="rgb(239, 242, 248)"/>
<path d="M 3.99,30.985 V 24 H 6.5 C 7.85,24 9,24.66 9,26.05 C 9,27.49 7.87,28 6.5,28 H 4.84 V 27 H 6.49 C 7.68,27 8,26.74 8,26 S 7.4,25 6.46,25 H 5 V 31 H 4 Z M 11,31 V 26 H 11.5 V 28.5 H 14.5 V 26 H 15 V 31 H 14.5 V 29 H 11.5 V 31 H 11 Z M 17,31 V 26 H 20 V 26.54 H 17.5 V 28.23 H 20 V 28.76 H 17.5 V 30.46 H 20 V 31 H 17 Z M 26,26 V 31 H 25.51 L 22.55,27 H 22.5 V 31 H 22 V 26 H 22.48 L 25.45,30 H 25.5 V 26 H 26 Z M 28.5,26 V 31 H 28 V 26 H 28.5 Z M 44,24 V 31 H 43 V 24 H 44 Z M 36,31 V 24 H 41 V 25 H 37 V 27 H 40 V 28 H 37 V 31 H 36 Z M 30.5,26 L 31.98,28.1 H 32.02 L 33.5,26 H 34 L 32.4,28.5 L 34,31 H 33.5 L 32.02,28.9 H 31.98 L 30.5,31 H 30 L 31.65,28.5 L 30,26 H 30.5 Z M 52,24 V 31 H 50.81 L 47.07,25.75 H 47 V 31 H 46 V 24 H 47.17 L 50.93,29.25 H 51 V 24 H 52 Z" fill="rgb(21, 72, 120)"/>
</svg>
