<?xml version="1.0" encoding="UTF-8"?>
<!-- generated by Finnhub -->
<svg viewBox="0 0 55.5 55.5" xmlns="http://www.w3.org/2000/svg">
<path d="M 0,0 H 55.5 V 55.5 H 0 Z" fill="rgb(1, 86, 59)"/>
<circle cx="28" cy="28" r="17" fill="rgb(254, 254, 253)"/>
<path d="M 30.7,36.585 A 1.3,1.3 0 0,1 30.1,36.63 C 30.04,36.62 29.9,36.61 29.66,36.63 L 28.77,36.76 C 28.07,36.88 27.17,37.07 26.21,37.29 C 24.52,37.69 22.63,38.17 21.23,38.54 L 22.61,39.45 C 23.67,39.19 25.25,38.81 26.64,38.45 C 28.08,38.1 29.31,37.78 29.59,37.68 C 30.33,37.42 34,36.13 34.99,35.88 A 0.7,0.7 0 0,0 35.39,35.64 C 35.46,35.54 35.49,35.44 35.51,35.29 C 35.53,35.04 35.45,34.75 35.35,34.52 H 35.32 C 35.21,34.55 35.04,34.61 34.82,34.7 C 34.42,34.87 33.92,35.13 33.38,35.4 L 33.23,35.48 C 32.63,35.78 32.01,36.11 31.46,36.33 C 31.19,36.45 30.94,36.53 30.71,36.59 Z M 35.5,34 C 35.59,34.02 35.7,34.07 35.77,34.2 C 35.9,34.48 36.04,34.92 36,35.34 C 35.99,35.56 35.92,35.78 35.77,35.97 C 35.62,36.16 35.4,36.3 35.12,36.37 C 34.15,36.63 30.49,37.91 29.75,38.17 C 29.45,38.27 28.19,38.6 26.76,38.96 L 22.64,39.98 L 22.54,40 L 20,38.34 L 20.55,38.19 C 21.98,37.8 24.17,37.24 26.11,36.79 C 27.08,36.57 27.98,36.38 28.69,36.25 L 29.62,36.12 C 29.85,36.1 30.07,36.09 30.22,36.13 C 30.28,36.15 30.4,36.14 30.6,36.09 C 30.8,36.05 31.02,35.96 31.28,35.85 C 31.8,35.64 32.42,35.33 33.01,35.02 L 33.17,34.94 C 33.71,34.67 34.23,34.4 34.64,34.22 C 34.86,34.12 35.07,34.05 35.23,34.02 A 0.72,0.72 0 0,1 35.49,34.01 Z M 24.96,20.82 C 25.11,20.82 24.8,20.2 24.8,20 C 24.48,20 24,20.4 24,20.82 C 24,21.22 24.8,20.82 24.96,20.82 Z" fill="rgb(1, 86, 59)"/>
<path d="M 23.86,20.115 C 23.64,19.67 23.19,20.52 23,21 H 23.87 C 23.97,20.9 24.1,20.6 23.87,20.13 Z" fill="rgb(1, 86, 59)"/>
<path d="M 18.799999999999997,25.235 C 18.21,25.83 17,27.2 17,28 C 17,28.63 17.4,29.65 17.78,30.57 C 18,31.12 18.2,31.63 18.3,32 C 18.43,32.53 18.13,32.7 17.86,32.87 C 17.62,33.02 17.4,33.15 17.52,33.5 C 17.65,33.89 18.02,33.97 18.3,34 C 18.55,34.01 18.69,34 18.81,33.75 C 19.04,33.32 19.5,32.89 19.79,32.62 L 19.91,32.5 C 19.97,32.44 19.99,32.3 20,32.11 V 30.67 C 20.03,30.42 20.13,30 20.28,30 C 20.8,30 24,32 24.52,32.5 C 25.04,33 26.33,33.75 26.59,33.75 C 26.85,33.75 28.67,34.25 29.19,34.75 C 29.35,34.91 29.59,35.05 29.87,35.2 C 30.46,35.51 31.17,35.9 31.52,36.75 C 31.93,37.75 32.9,39.33 33.33,40 L 34.63,39.5 C 34.2,38.83 33.33,37.35 33.33,36.75 C 33.33,36.4 33.17,36.16 32.99,35.9 C 32.78,35.6 32.56,35.29 32.56,34.75 C 32.56,34.34 32.69,33.8 32.82,33.25 C 33.02,32.44 33.22,31.59 33.07,31 C 32.81,30 32.56,28.75 33.33,28 H 35.41 C 35.5,28 35.56,28.13 35.63,28.3 C 35.76,28.6 35.95,29 36.44,29 C 37.22,29 38,28 38,27.5 S 37.58,26 37,26 H 35.66 C 35.93,25.67 36.44,24.95 36.44,24.75 C 36.44,24.5 36.19,24 35.67,23.5 C 35.37,23.2 35.24,22.87 35.13,22.58 C 35.06,22.38 35,22.21 34.89,22.11 C 34.81,22.03 34.55,22.01 34.22,22 H 32.56 L 30.74,25.25 C 30.57,25.17 30.22,24.95 30.22,24.75 C 30.22,24.69 30.25,24.59 30.29,24.45 C 30.41,24.04 30.62,23.32 30.22,22.75 A 2.1,2.1 0 0,1 29.85,21.63 C 29.83,21.41 29.81,21.2 29.7,21 C 29.6,20.8 29.47,20.6 29.34,20.42 C 29.16,20.14 29,19.9 29,19.75 C 29,19.62 29.06,19.5 29.13,19.37 C 29.19,19.25 29.26,19.12 29.26,19 C 29.26,18.8 29.09,18.75 29,18.75 L 29.52,18.25 L 29,18 V 17 H 27 V 18.25 L 26.33,18.5 L 27,19 L 26.85,19.75 C 26.42,19.92 25.5,20.5 25.3,21.5 C 25.1,22.48 24.57,22.54 23.6,22.64 L 22.7,22.75 C 22.91,22.95 23.3,23.17 23.48,23.25 L 22,24 H 23.74 C 23.65,24.25 23.54,25.1 23.74,25.5 C 23.51,25.5 23.07,25.4 22.58,25.29 A 9.18,9.18 0 0,0 20.88,25 H 19.85 L 19.68,24.46 C 19.38,23.5 18.89,22 18.56,22 C 18.24,22 18.03,22.53 17.88,22.93 L 17.74,23.25 L 18,23.5 V 24.25 L 18.81,25.25 Z M 29.76,26 A 5.98,5.98 0 0,0 29.53,22 C 28.55,22.82 29.13,24.36 29.59,25.56 L 29.76,26 Z M 25.43,24.05 C 25.71,24.17 26.38,24.75 27,25.32 C 27,25.2 27.16,25.08 27.57,25 C 28.05,25.07 29,25.3 29,25.64 C 29,26.07 27.96,26.07 27.59,25.87 L 28,26.27 H 26.57 L 25.14,28 C 25.04,27.92 24.69,27.75 24,27.75 C 24,27.16 24.95,26.35 25.43,26.02 C 25.05,26.02 24.29,25.88 24.29,25.28 C 24.29,24.54 24.86,23.8 25.43,24.05 Z M 29,20 C 29,20.37 28.59,22.59 28.18,21.85 C 27.85,21.25 28.04,20.37 28.18,20 H 29 Z M 28.4,18.5 V 17.5 H 27.89 V 18.5 H 28.41 Z M 28,19.22 C 28,19.48 28,20 27.54,20 C 27.09,20 26.86,19.74 27.09,19.48 C 27.32,19.22 27.77,18.7 28,19.22 Z M 32,36.21 C 32.42,36.71 33.35,38.03 33.75,39.24 C 34,38.99 33.25,37.22 33,36.71 C 32.9,36.52 32.85,36.33 32.8,36.16 C 32.71,35.9 32.65,35.7 32.5,35.7 C 32.3,35.7 32.08,36.04 32,36.2 Z" fill="rgb(1, 86, 59)" fill-rule="evenodd"/>
<path d="M 37.65,20.985 C 37.33,21 36.41,21.67 36,22 C 36.55,22 37.7,21.92 37.86,21.6 C 38.07,21.2 38.07,21 37.66,21 Z" fill="rgb(1, 86, 59)"/>
<path d="M 27.99,41.985 A 14,14 0 1,0 28,14 A 14,14 0 0,0 28,42 Z M 28,41 A 13,13 0 1,0 28,15 A 13,13 0 0,0 28,41 Z" fill="rgb(1, 86, 59)" fill-rule="evenodd"/>
<path d="M 35.550000000000004,31.985 L 17,35.5 L 18,37 C 23.52,35.83 34.75,33.45 35.56,33.25 C 36.36,33.05 35.89,32.33 35.56,32 Z" fill="rgb(1, 86, 59)"/>
<path d="M 36.2,30.875 C 36.37,30.47 36.67,30 37.24,30 C 37.51,30 37.72,30.1 37.85,30.3 A 1,1 0 0,1 38,30.88 C 38,31.26 37.86,31.69 37.73,31.98 V 37.28 H 37.23 V 31.89 L 37.26,31.84 C 37.38,31.57 37.5,31.18 37.5,30.87 C 37.5,30.72 37.48,30.62 37.44,30.57 C 37.41,30.53 37.37,30.48 37.24,30.48 C 37.01,30.48 36.82,30.66 36.68,31.05 C 36.54,31.42 36.5,31.88 36.5,32.18 V 38 H 36 V 32.18 A 4,4 0 0,1 36.21,30.88 Z M 29.9,37.85 L 29.65,36.35 L 20.15,38.6 L 22.65,39.6 L 29.9,37.85 Z" fill="rgb(1, 86, 59)"/>
<circle cx="14.5" cy="35.5" r=".5" fill="rgb(1, 86, 59)"/>
<circle cx="41.5" cy="35.5" r=".5" fill="rgb(1, 86, 59)"/>
<path d="M 27.99,43.985 C 32.06,44 35.76,42.49 38.58,40 H 37 C 34.5,41.88 31.38,43 28,43 S 21.5,41.88 19,40 H 17.42 C 20.24,42.49 23.94,44 28,44 Z M 44,28 C 44,28.34 43.99,28.67 43.97,29 H 42.97 A 15,15 0 0,0 20.77,14.86 L 20.25,14 A 16,16 0 0,1 44,28 Z M 18.54,15.1 A 15.98,15.98 0 0,0 12.04,29 H 13.04 A 14.98,14.98 0 0,1 19.22,15.84 L 18.54,15.1 Z" fill="rgb(1, 86, 59)"/>
</svg>
