<?xml version="1.0" encoding="UTF-8"?>
<!-- generated by Finnhub -->
<svg viewBox="0 0 55.5 55.5" xmlns="http://www.w3.org/2000/svg">
<rect width="56" height="56" fill="rgb(239, 242, 248)"/>
<path d="M 27.023999999999997,15.193999999999999 C 26.9332,15.2094 26.8333,15.1896 26.74,15.1506 C 26.6468,15.1117 26.5619,15.0544 26.4904,14.9821 C 26.4188,14.9097 26.3619,14.8237 26.323,14.7289 C 26.284,14.6341 26.2638,14.5324 26.2634,14.4297 L 26.2603,13.7486 C 26.2594,13.5198 26.3007,13.293 26.3816,13.0813 C 26.4626,12.8695 26.5817,12.677 26.7322,12.5146 S 27.0616,12.2232 27.2586,12.1349 C 27.4557,12.0466 27.6671,12.0007 27.8807,11.9999 H 27.8931 C 28.3245,11.9983 28.7389,12.1803 29.0451,12.5058 C 29.3513,12.8314 29.5243,13.2739 29.526,13.7359 L 29.5291,14.417 C 29.5295,14.5198 29.5101,14.6216 29.4719,14.7167 S 29.3775,14.8983 29.3065,14.9712 C 29.2356,15.0442 29.1512,15.1022 29.0582,15.1419 S 28.8655,15.2022 28.7647,15.2027 L 27.034,15.209 Z" fill="rgb(3, 117, 0)"/>
<path d="M 28.554,14.681 H 27.158 C 27.0993,14.696 27.0418,14.6798 26.9915,14.6491 C 26.9411,14.6185 26.8999,14.5745 26.8721,14.5218 C 26.1124,13.063 28.3018,11.3584 29.0565,13.5825 C 29.1858,13.9637 28.939,14.696 28.564,14.696 Z" fill="rgb(4, 7, 3)"/>
<path d="M 36.304,19.764 C 36.3616,19.798 36.4129,19.8212 36.4678,19.8487 C 40.3074,21.7484 43.2215,24.033 45.2101,27.8693 C 45.2588,27.9643 45.3365,28.0001 45.4431,28.0001 H 50.9228 C 50.9434,28.0001 50.9632,28.0202 50.9777,28.035 C 50.9923,28.0499 51.0005,28.07 51.0005,28.091 V 35.921 C 51.0005,35.9738 50.9746,36.0002 50.9228,36.0002 H 5.0848 C 5.06255,36.0002 5.04121,35.9912 5.02547,35.9752 C 5.00974,35.9591 5.0009,35.9374 5.0009,35.9147 V 28.0744 C 5.0009,28.0227 5.02628,27.9968 5.07703,27.9968 H 10.8736 C 10.8958,27.9967 10.9174,27.9905 10.9363,27.9788 C 10.9552,27.967 10.9706,27.9503 10.9808,27.9303 C 12.9861,24.0464 15.924,21.751 19.7946,19.8471 C 19.7965,19.846 19.7981,19.8446 19.7994,19.8429 C 19.8006,19.8413 19.8015,19.8393 19.802,19.8374 C 19.8024,19.8354 19.8019,19.8315 19.8019,19.8315 L 19.7993,19.8265 L 19.1933,19.0947 C 19.1633,19.0578 19.125,19.0356 19.0784,19.0282 C 18.4942,18.9374 18.0224,18.6533 17.663,18.176 C 17.6288,18.1296 17.5838,18.1021 17.5279,18.0937 C 16.7749,17.9669 16.155,17.6063 15.6682,17.0118 C 15.636,16.9717 15.5951,16.9453 15.5454,16.9326 C 14.6371,16.6908 13.9338,16.166 13.4356,15.3582 C 13.4224,15.337 13.415,15.3126 13.4139,15.2876 C 13.4128,15.2625 13.4181,15.2375 13.4294,15.215 C 13.4406,15.1926 13.4574,15.1734 13.4781,15.1593 C 13.4988,15.1453 13.5227,15.1369 13.5474,15.1348 C 15.2145,15.0176 16.9763,14.9749 18.547,14.5567 C 19.9422,14.185 21.298,13.6908 22.6144,13.0741 C 23.0277,12.8809 23.862,12.6702 24.3436,12.7352 C 25.8103,12.93 26.2127,14.6185 25.526,15.8207 C 25.5127,15.8439 25.5055,15.8702 25.5049,15.8971 C 25.5044,15.924 25.5105,15.9506 25.5229,15.9743 C 25.801,16.505 26.4659,16.8994 26.9506,17.137 C 27.0159,17.1686 27.049,17.1475 27.0501,17.0736 L 27.0827,15.4801 C 27.0837,15.4295 27.1096,15.4041 27.1604,15.4041 L 28.6534,15.4184 C 28.7145,15.4194 28.7451,15.4511 28.7451,15.5134 V 17.0356 C 28.7451,17.1665 28.8015,17.2008 28.9144,17.1385 C 29.3836,16.8804 30.0035,16.4464 30.2987,15.9807 C 30.3131,15.9574 30.3208,15.9306 30.3208,15.9034 C 30.3208,15.8761 30.3131,15.8496 30.2987,15.827 C 29.5654,14.685 29.9445,13.0219 31.3039,12.7478 C 32.2237,12.5625 33.4277,13.1882 34.3692,13.5905 C 35.2983,13.9865 36.3149,14.3281 37.419,14.6153 C 38.8934,14.9986 40.5714,15.0129 42.1328,15.1539 C 42.198,15.1591 42.2503,15.1686 42.2897,15.1824 C 42.3024,15.1864 42.3141,15.1933 42.3239,15.2024 C 42.3338,15.2115 42.3416,15.2227 42.3468,15.2352 C 42.3519,15.2478 42.3544,15.2613 42.3539,15.2748 C 42.3534,15.2884 42.3501,15.3017 42.3441,15.3138 C 41.9028,16.204 41.199,16.7241 40.2327,16.874 C 40.1819,16.8814 40.1431,16.9073 40.1161,16.9516 C 39.7029,17.6306 39.0964,17.9775 38.2968,17.9923 C 38.2728,17.9928 38.2492,17.999 38.2282,18.0106 C 38.2071,18.0222 38.1891,18.0387 38.1756,18.0588 C 37.8173,18.5889 37.3139,18.8629 36.6655,18.8809 C 36.6075,18.883 36.5733,18.9136 36.563,18.9728 C 36.5215,19.2272 36.4283,19.4601 36.2833,19.6713 C 36.2491,19.7209 36.2595,19.7568 36.3144,19.779 Z M 24.715,13.3798 C 24.1432,12.9854 23.2173,13.3371 22.6113,13.6523 C 22.514,13.703 22.5192,13.7367 22.6269,13.7536 L 23.7579,13.9342 C 23.8276,13.9455 23.8922,13.9782 23.943,14.0281 C 23.9939,14.0779 24.0285,14.1425 24.0422,14.213 C 24.1748,14.9015 24.6078,15.1977 25.3411,15.1016 C 25.3587,15.0996 25.3748,15.0907 25.3861,15.0768 S 25.403,15.0451 25.4017,15.0271 C 25.3566,14.2716 25.3908,13.8455 24.715,13.3798 Z M 31.9518,13.8819 L 33.0937,13.8186 C 33.189,13.8133 33.1983,13.7811 33.1217,13.722 C 31.7296,12.6496 30.3515,13.2214 30.3655,15.1063 C 30.3657,15.1193 30.3688,15.132 30.3746,15.1434 C 30.3804,15.1549 30.3887,15.1648 30.3988,15.1724 C 30.409,15.1799 30.4206,15.1849 30.4329,15.1869 S 30.4578,15.1879 30.4696,15.184 L 31.551,14.8307 C 31.6048,14.8138 31.6385,14.7774 31.6519,14.7214 L 31.8322,13.9833 C 31.8388,13.9554 31.8541,13.9304 31.8757,13.9121 C 31.8972,13.8938 31.9239,13.8833 31.9518,13.8819 Z M 36.7976,14.9606 L 34.2869,14.129 C 34.2289,14.11 34.1745,14.118 34.1238,14.1528 L 33.782,14.3967 C 33.724,14.4369 33.7281,14.4696 33.7944,14.4949 C 34.9674,14.9479 35.825,15.3012 36.7945,15.0541 C 36.8043,15.0512 36.813,15.0453 36.8192,15.0371 C 36.8255,15.0289 36.8291,15.0189 36.8294,15.0085 C 36.8298,14.9981 36.8269,14.9879 36.8212,14.9793 C 36.8154,14.9707 36.8072,14.9641 36.7976,14.9606 Z M 21.9336,14.544 L 21.8108,14.11 C 21.8079,14.0987 21.8007,14.089 21.7908,14.0831 S 21.7691,14.0755 21.758,14.0784 L 21.7021,14.0958 C 20.9649,14.3113 20.2643,14.541 19.7538,14.7346 S 18.9645,15.0698 18.9785,15.1285 L 19.0018,15.2109 C 19.0206,15.2682 19.3306,15.2377 19.8641,15.1261 C 20.3976,15.0144 21.111,14.8308 21.8481,14.6153 L 21.904,14.5995 C 21.9096,14.5978 21.9147,14.5951 21.9192,14.5914 S 21.9274,14.5832 21.9302,14.578 C 21.9329,14.5729 21.9346,14.5672 21.9352,14.5614 C 21.9358,14.5555 21.9352,14.5497 21.9336,14.544 Z M 20.2945,15.9569 C 21.2329,16.2309 22.6094,15.4326 23.3116,14.8402 C 23.3197,14.8343 23.3252,14.8254 23.3271,14.8155 C 23.3289,14.8055 23.327,14.7952 23.3216,14.7867 S 23.3078,14.7721 23.2982,14.7696 C 23.2885,14.7672 23.2783,14.7687 23.2697,14.7737 C 22.3013,15.2246 21.3095,15.6148 20.2945,15.9442 C 20.281,15.9485 20.281,15.9527 20.2945,15.9569 Z M 35.4675,15.9728 L 32.5,14.8022 C 32.4172,14.7695 32.4063,14.7859 32.4674,14.8513 C 33.0516,15.4738 34.7031,16.185 35.4675,15.9886 C 35.4695,15.9886 35.4715,15.9878 35.473,15.9863 C 35.4744,15.9848 35.4752,15.9828 35.4752,15.9807 S 35.4744,15.9766 35.473,15.9751 C 35.4715,15.9736 35.4695,15.9728 35.4675,15.9728 Z M 19.1175,16.0504 L 17.8995,15.3233 C 17.8632,15.3022 17.8239,15.2932 17.7814,15.2964 L 14.295,15.6148 C 14.2515,15.618 14.2448,15.6359 14.2748,15.6686 C 15.2567,16.7204 17.8404,16.326 19.1082,16.0995 C 19.1134,16.0985 19.1182,16.0959 19.1219,16.0921 S 19.1282,16.0834 19.1292,16.0781 C 19.1302,16.0729 19.1296,16.0674 19.1275,16.0624 C 19.1254,16.0575 19.122,16.0533 19.1175,16.0504 Z M 37.9245,15.3408 C 37.875,15.3377 37.8254,15.351 37.7831,15.3788 L 36.8183,16.0345 C 36.8096,16.0406 36.8028,16.0491 36.7988,16.0591 C 36.7948,16.069 36.7937,16.0799 36.7957,16.0902 C 36.7977,16.1006 36.8027,16.1101 36.8101,16.1174 C 36.8174,16.1247 36.8268,16.1295 36.8369,16.1312 C 38.0192,16.3592 39.3756,16.3371 40.505,16.2658 C 40.8655,16.2426 41.1912,16.0414 41.4823,15.6623 C 41.5206,15.6127 41.5092,15.5857 41.4481,15.5815 L 37.9245,15.3408 Z M 23.6575,15.6845 L 21.5897,16.7457 L 21.5886,16.7462 L 21.5881,16.7473 L 21.5897,16.7489 C 21.605,16.7806 21.6465,16.7986 21.7117,16.8018 C 21.7769,16.8049 21.8647,16.7932 21.9698,16.7673 C 22.075,16.7415 22.1956,16.7019 22.3247,16.6509 S 22.5889,16.5385 22.7223,16.4701 L 22.7642,16.4479 C 23.0329,16.3102 23.2781,16.1528 23.4462,16.0103 C 23.6143,15.8677 23.6914,15.7517 23.6606,15.6876 L 23.6591,15.6861 L 23.6586,15.6849 L 23.6575,15.6845 Z M 34.1335,16.7077 L 32.2318,15.7067 C 32.2294,15.7053 32.2267,15.7045 32.224,15.7042 C 32.2212,15.704 32.2185,15.7043 32.2158,15.7052 C 32.2132,15.7061 32.2108,15.7075 32.2087,15.7094 C 32.2067,15.7113 32.205,15.7136 32.2039,15.7162 C 32.1872,15.7484 32.1953,15.7933 32.2278,15.8484 C 32.2603,15.9034 32.3166,15.9675 32.3934,16.037 C 32.4702,16.1064 32.566,16.1799 32.6753,16.2531 C 32.7846,16.3264 32.9053,16.3979 33.0304,16.4638 L 33.0661,16.4812 C 33.3183,16.614 33.5734,16.7155 33.7753,16.7633 C 33.9773,16.8111 34.1094,16.8014 34.1428,16.7362 C 34.1441,16.7337 34.1449,16.731 34.1452,16.7282 C 34.1454,16.7254 34.1451,16.7226 34.1442,16.7199 S 34.1419,16.7148 34.1401,16.7127 C 34.1382,16.7106 34.136,16.7089 34.1335,16.7077 Z M 28.1458,15.854 L 27.6766,15.8508 C 27.6646,15.8506 27.6527,15.8528 27.6416,15.8573 S 27.6204,15.8686 27.6119,15.8771 C 27.6033,15.8857 27.5966,15.8959 27.5919,15.9071 C 27.5873,15.9184 27.5849,15.9305 27.5849,15.9427 L 27.5772,18.2299 C 27.5755,18.7063 27.5784,19.1781 27.5858,19.6183 C 27.5931,20.0585 27.6046,20.4585 27.6198,20.7955 C 27.6349,21.1325 27.6534,21.3998 27.674,21.5822 C 27.6947,21.7647 27.7172,21.8586 27.7403,21.8587 H 28.0386 C 28.0851,21.859 28.1311,21.4771 28.1664,20.7972 C 28.2016,20.1173 28.2233,19.1949 28.2266,18.2331 L 28.2343,15.9458 C 28.2343,15.9217 28.2251,15.8986 28.2085,15.8814 S 28.1694,15.8544 28.1458,15.854 Z M 32.802,17.3144 L 31.1769,16.0979 C 31.1753,16.0966 31.1734,16.0957 31.1715,16.0952 C 31.1695,16.0947 31.1674,16.0946 31.1654,16.0949 S 31.1614,16.0959 31.1597,16.0969 C 31.1579,16.098 31.1564,16.0994 31.1552,16.1011 L 31.1505,16.1058 C 31.1166,16.1534 31.1694,16.2629 31.2973,16.4102 S 31.6177,16.7306 31.8326,16.8914 L 31.8621,16.9136 C 32.0769,17.0744 32.2963,17.2098 32.4723,17.29 S 32.7663,17.3886 32.8005,17.3413 L 32.8051,17.3365 C 32.8076,17.3332 32.8087,17.329 32.8081,17.3248 S 32.8053,17.3169 32.802,17.3144 Z M 24.6876,16.2333 C 24.67,16.2069 24.5627,16.244 24.3891,16.3366 C 24.2155,16.4291 23.9899,16.5695 23.762,16.7268 C 23.6492,16.8047 23.5391,16.8844 23.4382,16.9614 S 23.2474,17.1111 23.1737,17.1755 C 23.1001,17.2398 23.0441,17.2945 23.0089,17.3364 C 22.9738,17.3783 22.9602,17.4066 22.9689,17.4197 C 22.9864,17.4461 23.0938,17.409 23.2674,17.3164 C 23.441,17.2239 23.6665,17.0835 23.8944,16.9262 C 24.0073,16.8483 24.1173,16.7686 24.2183,16.6916 C 24.3192,16.6146 24.4091,16.5419 24.4827,16.4775 C 24.5564,16.4132 24.6124,16.3585 24.6475,16.3166 C 24.6827,16.2747 24.6963,16.2464 24.6876,16.2333 Z M 39.2946,17.1338 L 35.6591,16.6459 L 35.6536,16.6464 L 35.6487,16.649 L 35.6452,16.6533 L 35.6435,16.6586 V 16.6602 C 35.6346,16.7278 35.6726,16.8011 35.7554,16.8759 C 35.8383,16.9506 35.9643,17.0254 36.1263,17.0958 C 36.2884,17.1663 36.4832,17.2311 36.6997,17.2865 C 36.9163,17.342 37.1502,17.3869 37.3883,17.4189 L 37.4287,17.4237 C 37.9085,17.4881 38.3758,17.4958 38.728,17.445 S 39.2884,17.2891 39.307,17.1528 V 17.1512 C 39.3075,17.1492 39.3075,17.1472 39.3071,17.1452 S 39.3059,17.1413 39.3047,17.1396 C 39.3035,17.138 39.302,17.1366 39.3002,17.1356 C 39.2985,17.1346 39.2966,17.134 39.2946,17.1338 Z M 20.0866,16.6713 L 16.5288,17.1813 C 16.523,17.1821 16.5175,17.184 16.5125,17.187 S 16.5031,17.1939 16.4997,17.1987 C 16.4962,17.2034 16.4937,17.2088 16.4923,17.2145 S 16.4906,17.2262 16.4915,17.232 L 16.4977,17.2748 C 16.5107,17.3658 16.7123,17.4259 17.0584,17.4419 S 17.8667,17.4286 18.3434,17.3603 L 18.39,17.354 C 18.6265,17.3201 18.8594,17.2776 19.0755,17.229 C 19.2915,17.1804 19.4865,17.1266 19.6491,17.0707 S 19.9389,16.9579 20.0233,16.9032 S 20.1477,16.7972 20.141,16.7521 L 20.1348,16.7093 C 20.1332,16.6978 20.1273,16.6874 20.1183,16.6803 C 20.1093,16.6731 20.0979,16.6699 20.0866,16.6713 Z M 25.2253,16.9818 C 25.2219,16.9774 25.2176,16.9738 25.2128,16.9711 C 25.208,16.9683 25.2027,16.9666 25.1972,16.966 S 25.1862,16.9659 25.1809,16.9675 C 25.1756,16.969 25.1706,16.9716 25.1664,16.9752 L 24.2109,17.7556 C 24.2066,17.7591 24.203,17.7634 24.2004,17.7683 C 24.1977,17.7733 24.196,17.7787 24.1954,17.7842 C 24.1948,17.7898 24.1953,17.7955 24.1968,17.8009 C 24.1984,17.8063 24.2009,17.8113 24.2044,17.8157 L 24.251,17.875 C 24.2545,17.8794 24.2587,17.883 24.2635,17.8858 C 24.2684,17.8885 24.2737,17.8902 24.2792,17.8908 C 24.2846,17.8914 24.2902,17.8909 24.2955,17.8893 C 24.3008,17.8878 24.3057,17.8852 24.31,17.8817 L 25.2654,17.1013 C 25.2697,17.0977 25.2733,17.0934 25.276,17.0885 C 25.2786,17.0836 25.2803,17.0782 25.2809,17.0726 S 25.281,17.0613 25.2795,17.0559 S 25.2754,17.0455 25.272,17.0411 L 25.2253,16.9818 Z M 31.7117,17.8916 C 31.7263,17.8707 31.6768,17.8046 31.5742,17.7077 S 31.3243,17.4912 31.1647,17.3751 C 31.0856,17.3176 31.0059,17.2627 30.9301,17.2135 C 30.8542,17.1644 30.7838,17.1219 30.7228,17.0885 C 30.6618,17.0552 30.6114,17.0316 30.5744,17.0191 C 30.5375,17.0067 30.5148,17.0056 30.5076,17.0159 C 30.493,17.0368 30.5424,17.1029 30.645,17.1998 S 30.8949,17.4163 31.0546,17.5324 C 31.1337,17.5899 31.2134,17.6448 31.2892,17.694 C 31.365,17.7431 31.4354,17.7856 31.4964,17.819 C 31.5575,17.8523 31.6079,17.8759 31.6448,17.8883 C 31.6817,17.9008 31.7045,17.9019 31.7117,17.8916 Z M 21.4307,17.4712 L 21.1992,17.4046 C 21.1556,17.3912 21.1096,17.3912 21.0671,17.4046 L 18.5083,18.2109 C 18.4906,18.2161 18.4752,18.2276 18.465,18.2433 C 18.4549,18.259 18.4505,18.2779 18.4528,18.2966 C 18.455,18.3153 18.4637,18.3325 18.4773,18.3453 C 18.4909,18.358 18.5085,18.3654 18.5269,18.3661 C 19.5813,18.4168 20.5534,18.1496 21.4431,17.5646 C 21.5063,17.5234 21.5021,17.4923 21.4307,17.4712 Z M 37.2447,18.1887 L 34.4047,17.3476 C 34.4017,17.3466 34.3986,17.3463 34.3955,17.3466 C 34.3924,17.3468 34.3894,17.3477 34.3866,17.3492 C 34.3839,17.3507 34.3815,17.3527 34.3795,17.3551 C 34.3775,17.3576 34.376,17.3604 34.3752,17.3635 L 34.3721,17.3746 C 34.3439,17.4755 34.4655,17.6163 34.7102,17.7659 C 34.9549,17.9156 35.3027,18.062 35.6771,18.1729 L 35.7361,18.1903 C 35.9217,18.2452 36.1082,18.2898 36.2851,18.3215 C 36.462,18.3531 36.6257,18.3712 36.767,18.3748 C 36.9082,18.3783 37.0242,18.3672 37.1083,18.342 C 37.1924,18.3169 37.243,18.2783 37.2571,18.2283 L 37.2603,18.2188 C 37.2612,18.2158 37.2616,18.2126 37.2613,18.2094 C 37.261,18.2063 37.2602,18.2032 37.2587,18.2004 C 37.2573,18.1976 37.2553,18.1951 37.2529,18.1931 S 37.2477,18.1896 37.2447,18.1887 Z M 35.8356,19.1343 C 35.1261,18.8386 34.4383,18.5256 33.7723,18.195 C 33.4274,18.024 33.182,18.0256 32.8852,18.2505 C 32.8469,18.279 32.8479,18.3059 32.8883,18.3313 C 33.8034,18.8967 34.6968,19.486 35.8247,19.2484 C 35.8369,19.2456 35.848,19.2391 35.8563,19.2295 C 35.8646,19.22 35.8697,19.2081 35.8709,19.1954 S 35.8693,19.17 35.863,19.159 C 35.8566,19.148 35.847,19.1394 35.8356,19.1343 Z M 22.7926,17.9258 L 19.8904,19.1169 C 19.8837,19.1197 19.8783,19.1251 19.8754,19.1319 S 19.8723,19.1464 19.8749,19.1533 L 19.878,19.1628 C 19.934,19.3036 20.1404,19.3761 20.4518,19.3642 S 21.1542,19.2571 21.5388,19.0995 L 21.5917,19.0773 C 21.9763,18.9196 22.323,18.7124 22.5558,18.5012 C 22.7885,18.2901 22.8883,18.0922 22.833,17.9511 L 22.8299,17.9416 C 22.8285,17.938 22.8265,17.9347 22.8239,17.932 C 22.8212,17.9292 22.8181,17.927 22.8146,17.9256 C 22.8111,17.9241 22.8074,17.9233 22.8036,17.9234 C 22.7998,17.9234 22.7961,17.9242 22.7926,17.9258 Z M 23.9843,18.5673 L 21.9304,19.7917 C 21.927,19.7936 21.924,19.7963 21.9216,19.7994 C 21.9193,19.8025 21.9175,19.8061 21.9165,19.8099 C 21.9155,19.8138 21.9153,19.8178 21.9158,19.8217 S 21.9175,19.8294 21.9195,19.8328 L 21.9241,19.8408 C 21.9462,19.8799 21.9949,19.9028 22.0673,19.908 C 22.1398,19.9132 22.2347,19.9007 22.3465,19.8711 C 22.4584,19.8415 22.585,19.7955 22.7191,19.7357 C 22.8532,19.6758 22.9922,19.6034 23.1282,19.5224 L 23.1655,19.4986 C 23.4395,19.3353 23.6844,19.1475 23.8464,18.9765 C 24.0083,18.8054 24.0741,18.6651 24.0293,18.5863 L 24.0247,18.5784 C 24.0227,18.5749 24.0201,18.5719 24.0171,18.5695 C 24.014,18.5671 24.0105,18.5653 24.0067,18.5643 C 24.003,18.5632 23.999,18.563 23.9952,18.5635 C 23.9913,18.564 23.9876,18.5653 23.9843,18.5673 Z M 33.7367,19.889 C 33.7566,19.8527 33.6677,19.7561 33.4895,19.6204 C 33.3112,19.4847 33.0583,19.3211 32.7863,19.1655 C 32.6516,19.0884 32.5163,19.0156 32.3881,18.9513 C 32.2598,18.887 32.1412,18.8324 32.039,18.7906 S 31.8529,18.7207 31.7922,18.7078 C 31.7316,18.6949 31.6953,18.6975 31.6854,18.7154 C 31.6654,18.7517 31.7544,18.8483 31.9326,18.984 C 32.1108,19.1197 32.3637,19.2833 32.6357,19.439 C 32.7704,19.516 32.9058,19.5888 33.034,19.6531 S 33.2808,19.772 33.383,19.8138 C 33.4853,19.8556 33.5691,19.8838 33.6298,19.8967 S 33.7268,19.907 33.7367,19.889 Z M 25.7492,19.9849 L 26.453,19.9041 C 26.4892,19.9009 26.5022,19.8814 26.4918,19.8455 C 26.0832,18.4865 24.2359,19.0615 23.6067,19.8376 C 21.7393,22.1359 25.325,22.9976 26.7497,23.1037 C 27.6306,23.1686 28.4245,23.2478 29.3179,23.3318 C 29.3382,23.3338 29.3577,23.3412 29.3743,23.3533 C 29.3909,23.3653 29.4041,23.3817 29.4126,23.4006 S 29.4246,23.4404 29.4227,23.4611 C 29.4208,23.4819 29.4136,23.5017 29.4018,23.5187 C 28.8062,24.3677 28.2977,25.2668 27.8761,26.2162 C 27.8544,26.2658 27.8171,26.2864 27.7642,26.2779 C 27.0185,26.1686 26.1826,25.9516 25.6435,25.4606 C 25.0532,24.9252 25.2194,24.1032 25.7818,23.6248 C 25.8543,23.5625 25.8445,23.5224 25.7523,23.5044 L 24.514,23.2558 C 24.4571,23.2441 24.4156,23.2647 24.3898,23.3175 C 23.6642,24.7447 24.3618,25.6475 25.6109,26.3049 C 27.4193,27.2563 29.1568,27.1301 30.8234,25.9263 C 32.0787,25.0203 32.0865,23.6121 30.5639,22.9865 C 29.9103,22.7172 29.2878,22.5699 28.6964,22.5446 C 27.1739,22.4796 25.0283,22.7061 24.1722,21.6575 C 23.6813,21.0556 23.8351,20.1211 24.671,19.9358 C 24.7321,19.9221 24.7906,19.9284 24.8465,19.9548 L 25.4105,20.213 C 25.4644,20.2373 25.513,20.2294 25.5565,20.1892 C 25.5928,20.1554 25.6207,20.1153 25.6404,20.0688 C 25.6611,20.0192 25.6974,19.9912 25.7492,19.9849 Z M 29.8352,19.9374 L 30.1817,20.1195 C 30.2283,20.1449 30.2765,20.1491 30.3262,20.1322 C 30.8389,19.9643 31.5955,19.6839 31.8643,20.4205 C 32.147,21.1903 30.8606,22.0599 30.3495,22.4147 C 30.2977,22.4506 30.2956,22.4886 30.3433,22.5287 C 30.5686,22.7204 30.7705,22.6935 31.0051,22.505 C 31.6592,21.9743 32.972,21.0842 32.4997,20.2558 C 31.7617,18.9633 30.3107,18.572 29.3039,19.8566 C 29.277,19.8904 29.2847,19.9105 29.3272,19.9168 C 29.4536,19.9347 29.5758,19.9337 29.6939,19.9136 C 29.7436,19.9052 29.7907,19.9131 29.8352,19.9374 Z M 41.3522,24.2822 C 40.9514,23.8656 40.3936,23.2241 39.8172,22.7726 C 38.2874,21.5741 36.6105,20.6533 34.7866,20.0102 C 34.763,20.0014 34.7377,19.9984 34.7126,20.0014 S 34.6634,20.0134 34.6421,20.0277 L 34.3329,20.2304 C 34.2986,20.2529 34.2712,20.2848 34.2539,20.3225 C 34.2365,20.3601 34.2299,20.402 34.2347,20.4433 C 34.2396,20.4846 34.2557,20.5236 34.2813,20.556 S 34.341,20.6128 34.3795,20.6264 C 36.1289,21.2457 37.5287,22.1517 39.0824,23.2019 C 39.4708,23.4648 39.884,23.9416 40.0922,24.1285 C 41.6894,25.5509 42.9618,26.9741 43.9095,28.9192 C 43.9406,28.9836 43.9209,29.0001 43.8505,29.0001 H 12.4255 C 12.3799,29.0001 12.3665,28.9863 12.3851,28.943 C 13.5053,26.2851 15.8808,24.1491 18.174,22.5351 C 19.2662,21.7637 20.5992,21.1317 21.867,20.5266 C 21.8739,20.5234 21.8799,20.5183 21.8841,20.5118 C 21.8884,20.5053 21.8907,20.4977 21.8909,20.4899 C 21.891,20.4821 21.889,20.4744 21.885,20.4677 C 21.8811,20.461 21.8754,20.4556 21.8685,20.4522 L 21.1461,20.0704 C 21.1098,20.0504 21.0725,20.0493 21.0342,20.0673 C 16.8125,21.9722 13.6265,24.7228 11.4762,28.8875 C 11.4617,28.9161 11.4397,28.9401 11.4126,28.9569 C 11.3855,28.9736 11.3543,29.0001 11.3224,29.0001 H 6.192 C 6.14076,29.0001 6.09159,29.0081 6.05522,29.0452 C 6.01884,29.0823 5.9982,29.1326 5.99779,29.1853 L 5.998,34.8655 C 5.99779,34.8831 6.00106,34.9006 6.0076,34.9169 S 6.02384,34.9481 6.03612,34.9606 C 6.04841,34.9731 6.06303,34.9831 6.07916,34.9898 C 6.09528,34.9966 6.11258,35.0001 6.13006,35.0001 H 49.9981 V 29.1821 C 49.9977,29.1379 49.9801,29.0956 49.9493,29.0644 C 49.9185,29.0333 49.8768,29.0001 49.8334,29.0001 H 44.8373 C 44.7876,29.0001 44.7519,28.9847 44.7301,28.9382 C 43.8663,27.1008 42.7404,25.7225 41.3525,24.2822 Z" fill="rgb(3, 117, 0)"/>
<path d="M 28.134999999999998,15.838999999999999 C 28.1687,15.8544 28.1913,15.8642 28.2078,15.8814 C 28.2244,15.8986 28.2337,15.9217 28.2337,15.9458 L 28.2259,18.2331 C 28.2226,19.1949 28.2009,20.1173 28.1656,20.7972 S 28.0843,21.859 28.0377,21.8587 H 27.7389 C 27.7158,21.8586 27.6933,21.7647 27.6726,21.5822 C 27.6519,21.3998 27.6334,21.1325 27.6182,20.7955 S 27.5915,20.0585 27.5841,19.6183 C 27.5768,19.1781 27.5739,18.7063 27.5755,18.2299 L 27.5833,15.9427 C 27.5833,15.9305 27.5857,15.9184 27.5903,15.9071 C 27.595,15.8959 27.6018,15.8857 27.6103,15.8771 C 27.6188,15.8686 27.629,15.8619 27.6401,15.8573 C 27.6512,15.8528 27.6631,15.8506 27.6751,15.8508 L 28.145,15.854 Z" fill="rgb(4, 7, 3)"/>
<path d="M 41.342,24.267 C 42.7399,25.7224 43.8657,27.091 44.7296,28.9284 C 44.7513,28.9748 44.787,28.9981 44.8367,28.9981 H 49.8672 C 49.954,28.9981 49.9992,29.0663 50.0001,29.1548 V 35 H 6.1291 C 6.0592,35 5.99621,34.9358 5.99704,34.8654 V 29.1367 C 5.99786,29.0314 6.08879,28.9981 6.19127,28.9981 H 11.2814 C 11.3451,28.998 11.4203,28.9322 11.4493,28.875 C 13.5996,24.7103 16.8119,21.9721 21.0336,20.0671 C 21.0719,20.0492 21.1092,20.0502 21.1455,20.0703 L 21.8679,20.452 C 21.8748,20.4555 21.8805,20.4609 21.8845,20.4676 C 21.8884,20.4743 21.8904,20.482 21.8903,20.4898 C 21.8901,20.4976 21.8878,20.5051 21.8835,20.5116 C 21.8793,20.5181 21.8734,20.5233 21.8664,20.5265 C 20.5986,21.1315 19.2656,21.7635 18.1734,22.5349 C 15.8802,24.149 13.5253,26.2753 12.4051,28.9331 C 12.3865,28.9764 12.4,28.9981 12.4455,28.9981 L 43.8505,29 C 43.9209,29 43.9064,28.9928 43.8753,28.9284 C 42.9276,26.9833 41.6894,25.5508 40.0923,24.1284 C 39.8841,23.9415 39.4708,23.4647 39.0824,23.2018 C 37.5288,22.1516 36.1289,21.2456 34.3795,20.6263 C 34.341,20.6127 34.307,20.5883 34.2814,20.5559 S 34.2396,20.4844 34.2347,20.4431 C 34.2299,20.4018 34.2365,20.36 34.2539,20.3223 C 34.2712,20.2847 34.2986,20.2528 34.3329,20.2303 L 34.6421,20.0275 C 34.6634,20.0133 34.6876,20.0043 34.7126,20.0013 C 34.7377,19.9982 34.7631,20.0013 34.7866,20.0101 C 36.6106,20.6532 38.2874,21.574 39.8173,22.7725 C 40.3937,23.2239 40.9514,23.8654 41.3523,24.282 Z" fill="rgb(4, 7, 3)"/>
<path d="M 30.296999999999997,23.898 C 30.3826,23.933 30.4318,23.9858 30.4546,24.0714 C 30.7669,25.2641 29.5908,25.7979 28.7658,26.2271 C 28.7549,26.2328 28.7425,26.235 28.7303,26.2333 S 28.7067,26.2262 28.6976,26.2178 S 28.6821,26.1984 28.6793,26.1862 S 28.6774,26.1612 28.6819,26.1495 C 28.9916,25.3195 29.393,24.5392 29.886,23.8084 C 29.9181,23.762 29.9616,23.7414 30.0165,23.7467 C 30.1356,23.7593 30.2324,23.8148 30.307,23.913 Z" fill="rgb(3, 117, 0)"/>
<path d="M 7.410200000000001,32.574 V 33.9109 C 7.4202,33.9712 7.38706,34.0008 7.32077,33.9999 H 6.70293 C 6.64182,33.9989 6.60454,33.9617 6.60454,33.9053 V 30.1572 C 6.60454,30.1233 6.62267,30.1035 6.65892,30.0978 C 7.51653,29.9496 9.10432,29.8479 9.45702,30.7404 C 9.94331,31.9662 8.68642,32.6512 7.49172,32.5311 C 7.44407,32.5264 7.42025,32.5457 7.42025,32.589 Z M 7.42331,30.7348 V 31.7911 C 7.42331,31.8256 7.43837,31.8586 7.46517,31.883 C 7.49198,31.9074 7.52833,31.9211 7.56624,31.9211 H 7.88318 C 8.10075,31.9211 8.3094,31.8602 8.46324,31.7519 S 8.7035,31.4966 8.7035,31.3434 V 31.1824 C 8.7035,31.0293 8.61708,30.8823 8.46324,30.774 S 8.10075,30.6048 7.88318,30.6048 H 7.56624 C 7.52833,30.6048 7.49198,30.6185 7.46517,30.6429 C 7.43837,30.6673 7.42331,30.7003 7.42331,30.7348 Z" fill="rgb(239, 242, 248)"/>
<path d="M 19.412,32.432 V 33.9435 C 19.422,33.982 19.4002,34.0008 19.3567,33.9999 H 18.656 C 18.6063,33.9989 18.5675,33.959 18.5675,33.914 V 30.1859 C 18.5675,30.1305 18.5975,30.0981 18.6576,30.0888 C 19.4142,29.9691 21.0347,29.8381 21.4029,30.6561 C 21.6732,31.2596 21.4831,31.7365 20.8327,32.0865 C 20.784,32.1128 20.783,32.1405 20.8296,32.1696 C 21.3563,32.4906 21.4293,33.2072 21.6281,33.9027 C 21.6468,33.9684 21.6183,33.9999 21.5427,33.997 H 20.8861 C 20.8249,33.9942 20.7711,33.936 20.7566,33.8816 C 20.5903,33.2481 20.5499,32.2175 19.481,32.3836 C 19.4417,32.3902 19.422,32.4113 19.422,32.447 Z M 19.4158,30.7265 V 31.6562 C 19.4158,31.6957 19.4362,31.7361 19.4671,31.7641 S 19.5399,31.8078 19.5836,31.8078 L 19.8958,31.8064 C 20.1006,31.806 20.2968,31.7443 20.4413,31.635 S 20.6668,31.3777 20.6664,31.2235 V 31.1559 C 20.6663,31.0796 20.6461,31.004 20.6071,30.9335 S 20.5111,30.799 20.4393,30.7451 C 20.3674,30.6913 20.2822,30.6486 20.1884,30.6196 C 20.0946,30.5905 19.9941,30.5757 19.8927,30.5759 L 19.5805,30.5773 C 19.5368,30.5773 19.4949,30.593 19.464,30.621 S 19.4158,30.6869 19.4158,30.7265 Z" fill="rgb(239, 242, 248)"/>
<path d="M 36.542,32.432 V 33.9435 C 36.552,33.982 36.5302,34.0008 36.4867,33.9999 H 35.786 C 35.7363,33.9989 35.6975,33.959 35.6975,33.914 V 30.1859 C 35.6975,30.1305 35.7275,30.0981 35.7876,30.0888 C 36.5442,29.9691 38.1646,29.8381 38.5328,30.6561 C 38.8032,31.2596 38.6131,31.7365 37.9627,32.0865 C 37.914,32.1128 37.9129,32.1405 37.9596,32.1696 C 38.4862,32.4906 38.5593,33.2072 38.7581,33.9027 C 38.7768,33.9684 38.7483,33.9999 38.6727,33.997 H 38.016 C 37.9549,33.9942 37.901,33.936 37.8865,33.8816 C 37.7203,33.2481 37.6799,32.2175 36.611,32.3836 C 36.5716,32.3902 36.552,32.4113 36.552,32.447 Z M 36.5458,30.7265 V 31.6619 C 36.5458,31.7015 36.5662,31.7361 36.5971,31.7641 S 36.6699,31.8078 36.7135,31.8078 L 37.0258,31.8064 C 37.2306,31.806 37.4268,31.7443 37.5713,31.635 S 37.7968,31.3777 37.7964,31.2235 V 31.1559 C 37.7962,31.0796 37.7761,31.004 37.7371,30.9335 S 37.6411,30.799 37.5692,30.7451 C 37.4974,30.6913 37.4121,30.6486 37.3184,30.6196 C 37.2246,30.5905 37.1241,30.5757 37.0227,30.5759 L 36.7104,30.5773 C 36.6668,30.5773 36.6249,30.593 36.594,30.621 S 36.5458,30.6869 36.5458,30.7265 Z" fill="rgb(239, 242, 248)"/>
<path d="M 34.593,30.711 C 31.4012,29.9409 31.53,33.8161 34.1757,33.2936 C 34.2141,33.2862 34.2333,33.2643 34.2333,33.228 V 32.4694 C 34.2333,32.3996 34.1954,32.3647 34.1196,32.3647 H 33.5514 C 33.5009,32.3647 33.4756,32.3414 33.4756,32.2948 V 31.859 C 33.4756,31.8003 33.5074,31.7709 33.5711,31.7709 H 34.9182 C 34.9707,31.7709 34.997,31.7952 34.997,31.8436 V 33.653 C 34.997,33.6977 34.9555,33.7514 34.9091,33.7672 C 30.4132,35.2578 30.0026,29.0706 34.7833,30.1211 C 34.8077,30.1268 34.8287,30.141 34.8418,30.1606 C 34.8548,30.1802 34.8589,30.2037 34.853,30.2259 L 34.7424,30.6492 C 34.7242,30.7181 34.6777,30.7437 34.603,30.726 Z" fill="rgb(239, 242, 248)"/>
<path d="M 11.042,31.559 H 12.7299 C 12.7443,31.574 12.7581,31.5687 12.7683,31.5594 C 12.7785,31.55 12.7843,31.5373 12.7843,31.5241 V 30.0558 C 12.7843,30.0426 12.79,30.0299 12.8002,30.0205 C 12.8104,30.0112 12.8242,30.0002 12.8386,30.0002 H 13.5455 C 13.56,30.0002 13.5738,30.0112 13.584,30.0205 C 13.5942,30.0299 13.5999,30.0426 13.5999,30.0558 V 33.9503 C 13.5999,33.957 13.5985,33.9636 13.5956,33.9697 C 13.5928,33.9759 13.5887,33.9814 13.5834,33.9861 C 13.5782,33.9907 13.572,33.9944 13.5653,33.9968 C 13.5585,33.9992 13.5513,34.0004 13.544,34.0002 H 12.8355 C 12.8284,34 12.8214,33.99 12.8148,33.9873 C 12.8083,33.9846 12.8024,33.9808 12.7975,33.976 S 12.7888,33.9656 12.7862,33.9595 C 12.7837,33.9534 12.7825,33.9469 12.7827,33.9403 V 32.3151 C 12.7827,32.3019 12.7785,32.2793 12.7683,32.27 C 12.7581,32.2606 12.7443,32.2554 12.7299,32.2554 L 11.0488,32.2425 C 11.0344,32.2425 11.0206,32.2478 11.0104,32.2571 C 11.0002,32.2665 11.0001,32.2792 11.0001,32.2924 L 10.9991,33.9489 C 10.9991,33.9621 10.9934,33.9748 10.9832,33.9841 C 10.973,33.9935 10.9592,33.9988 10.9448,33.9988 L 10.2332,33.9959 C 10.226,33.9959 10.219,33.9946 10.2124,33.9921 S 10.1998,33.9859 10.1947,33.9813 C 10.1897,33.9767 10.1857,33.9712 10.183,33.9651 C 10.1802,33.9591 10.1788,33.9526 10.1788,33.946 L 10.1835,30.0501 C 10.1835,30.0434 10.1849,30.0368 10.1878,30.0307 C 10.1906,30.0245 10.1947,30.019 10.1999,30.0143 C 10.2052,30.0097 10.2113,30.006 10.2181,30.0036 S 10.2321,30 10.2394,30.0002 H 10.9156 C 10.9298,30.0006 10.9723,30.0245 10.9822,30.0339 C 10.9921,30.0432 10.9976,30.0557 10.9976,30.0686 V 31.5241 C 10.9976,31.5373 11.0033,31.55 11.0135,31.5594 C 11.0237,31.5687 11.0375,31.574 11.052,31.574 Z" fill="rgb(239, 242, 248)"/>
<path d="M 16.703,32.854 L 15.4409,32.8785 C 15.4288,32.8781 15.4169,32.8813 15.407,32.8878 C 15.3972,32.8943 15.3899,32.9036 15.3865,32.9142 L 15.0476,33.9639 C 15.0442,33.9741 15.0375,33.983 15.0283,33.9895 C 15.0191,33.9959 15.0078,33.9994 14.9963,33.9996 H 14.2536 C 14.2451,33.9995 14.2366,33.9976 14.229,33.994 S 14.2148,33.9852 14.2098,33.9787 C 14.2048,33.9723 14.2015,33.9649 14.2002,33.9572 C 14.1989,33.9494 14.1997,33.9414 14.2024,33.9339 L 15.5478,30.0424 C 15.5514,30.0325 15.5583,30.0239 15.5675,30.0177 C 15.5767,30.0116 15.5877,29.9997 15.5991,29.9996 H 16.5779 C 16.5895,29.9994 16.6009,30.0026 16.6104,30.0087 C 16.6199,30.0149 16.627,30.0237 16.6307,30.0339 L 18.0119,33.9339 C 18.0146,33.9414 18.0153,33.9494 18.014,33.9572 C 18.0127,33.9649 18.0094,33.9723 18.0044,33.9787 C 17.9994,33.9852 17.9929,33.9904 17.9853,33.994 C 17.9776,33.9976 17.9692,33.9995 17.9606,33.9996 H 17.1838 C 17.1722,33.9998 17.1608,33.9966 17.1512,33.9905 C 17.1417,33.9843 17.1346,33.9755 17.131,33.9653 L 16.7643,32.9032 C 16.7607,32.8933 16.7539,32.8847 16.7447,32.8785 C 16.7355,32.8724 16.7244,32.869 16.713,32.869 Z M 16.045,30.8147 L 15.6069,32.178 C 15.6027,32.1907 15.6019,32.204 15.6044,32.217 S 15.6127,32.2423 15.6213,32.2528 C 15.6299,32.2634 15.6411,32.272 15.654,32.2778 C 15.6669,32.2837 15.7034,32.2866 15.7177,32.2865 H 16.5157 C 16.5706,32.2865 16.5898,32.2627 16.5732,32.2152 L 16.0854,30.8133 C 16.0719,30.7733 16.0584,30.7738 16.045,30.8147 Z" fill="rgb(239, 242, 248)"/>
<path d="M 29.694,32.854 L 28.4318,32.8785 C 28.4197,32.8781 28.4078,32.8813 28.3979,32.8878 C 28.3881,32.8943 28.3809,32.9036 28.3774,32.9142 L 28.0385,33.9639 C 28.0352,33.9741 28.0284,33.983 28.0192,33.9895 C 28.01,33.9959 27.9988,33.9994 27.9872,33.9996 H 27.2446 C 27.236,33.9995 27.2275,33.9976 27.2199,33.994 S 27.2057,33.9852 27.2007,33.9787 C 27.1957,33.9723 27.1924,33.9649 27.1912,33.9572 C 27.1899,33.9494 27.1906,33.9414 27.1933,33.9339 L 28.5387,30.0424 C 28.5423,30.0325 28.5492,30.0239 28.5584,30.0177 C 28.5676,30.0116 28.5786,29.9997 28.59,29.9996 H 29.5688 C 29.5804,29.9994 29.5918,30.0026 29.6013,30.0087 C 29.6109,30.0149 29.618,30.0237 29.6216,30.0339 L 31.0028,33.9339 C 31.0055,33.9414 31.0062,33.9494 31.0049,33.9572 C 31.0036,33.9649 31.0004,33.9723 30.9954,33.9787 C 30.9904,33.9852 30.9838,33.9904 30.9762,33.994 C 30.9685,33.9976 30.9601,33.9995 30.9515,33.9996 H 30.1747 C 30.1631,33.9998 30.1517,33.9966 30.1422,33.9905 C 30.1326,33.9843 30.1255,33.9755 30.1219,33.9653 L 29.7552,32.9032 C 29.7517,32.8933 29.7448,32.8847 29.7356,32.8785 C 29.7264,32.8724 29.7153,32.869 29.704,32.869 Z M 29.0359,30.8147 L 28.5978,32.178 C 28.5936,32.1907 28.5928,32.204 28.5953,32.217 S 28.6036,32.2423 28.6122,32.2528 C 28.6208,32.2634 28.632,32.272 28.6449,32.2778 C 28.6578,32.2837 28.6943,32.2866 28.7086,32.2865 H 29.5066 C 29.5615,32.2865 29.5807,32.2627 29.5641,32.2152 L 29.0763,30.8133 C 29.0628,30.7733 29.0494,30.7738 29.0359,30.8147 Z" fill="rgb(239, 242, 248)"/>
<path d="M 23.105999999999998,31.067 C 23.1141,31.0755 23.1097,31.0698 23.1037,31.0661 S 23.0903,31.0608 23.0829,31.0617 C 23.0755,31.0625 23.0686,31.0657 23.0632,31.0708 C 23.0579,31.0758 23.0546,31.0823 23.0538,31.0892 L 22.9093,33.8988 C 22.9081,33.926 22.8955,33.9518 22.8741,33.9706 C 22.8526,33.9895 22.8241,34 22.7944,34 H 22.2009 C 22.1899,34 22.1791,33.998 22.169,33.994 C 22.159,33.99 22.15,33.9841 22.1425,33.9767 C 22.1351,33.9694 22.1294,33.9607 22.1258,33.9512 S 22.1208,33.9316 22.1216,33.9216 L 22.4137,30.0956 C 22.4179,30.0376 22.451,30 22.5132,30 H 23.4205 C 23.4443,29.9999 23.4674,30.0155 23.4865,30.0283 C 23.5055,30.0412 23.5194,30.0593 23.5261,30.0799 L 24.4288,32.7556 C 24.4288,32.759 24.4303,32.7622 24.4329,32.7646 S 24.4391,32.7684 24.4428,32.7684 S 24.45,32.767 24.4527,32.7646 C 24.4553,32.7622 24.4567,32.759 24.4567,32.7556 L 25.4122,30.1127 C 25.4309,30.0623 25.4687,30.0019 25.5256,30 L 26.4174,30.0001 C 26.4817,29.9982 26.5153,30.0262 26.5184,30.0842 L 26.7499,33.9159 C 26.753,33.972 26.724,34 26.6629,34 H 26.0554 C 25.9964,34 25.9653,33.9729 25.9622,33.9187 L 25.8038,31.015 C 25.7996,30.9485 25.7861,30.9471 25.7634,31.0108 L 24.7333,33.9202 C 24.7147,33.9734 24.6748,34 24.6137,34 H 24.1631 C 24.101,34 24.0601,33.9729 24.0404,33.9187 C 23.7038,32.9931 23.3956,32.0238 23.116,31.082 Z" fill="rgb(239, 242, 248)"/>
<path d="M 40.042,33.342999999999996 H 41.7843 C 41.7904,33.358 41.7965,33.3591 41.8022,33.3612 C 41.8078,33.3634 41.813,33.3665 41.8173,33.3705 S 41.825,33.3792 41.8274,33.3844 C 41.8297,33.3896 41.8309,33.3951 41.8309,33.4008 V 33.9571 C 41.8309,33.9627 41.8297,33.9683 41.8274,33.9735 C 41.825,33.9787 41.8216,33.9834 41.8173,33.9874 C 41.813,33.9913 41.8078,33.9945 41.8022,33.9966 C 41.7965,33.9988 41.7904,33.9999 41.7843,33.9999 H 39.2364 C 39.2302,33.9999 39.2242,33.9988 39.2185,33.9966 C 39.2129,33.9945 39.2077,33.9913 39.2034,33.9874 C 39.1991,33.9834 39.1956,33.9787 39.1933,33.9735 S 39.1898,33.9627 39.1898,33.9571 V 30.0427 C 39.1898,30.0371 39.191,30.0315 39.1933,30.0263 S 39.1991,30.0164 39.2034,30.0124 C 39.2077,30.0085 39.2129,30.0053 39.2185,30.0032 C 39.2242,30.001 39.2302,29.9999 39.2364,29.9999 H 41.6683 C 41.6807,29.9999 41.7309,30.0215 41.7396,30.0296 C 41.7483,30.0376 41.7532,30.0485 41.7532,30.0598 V 30.5691 C 41.7532,30.5747 41.752,30.5803 41.7497,30.5855 S 41.7439,30.5954 41.7396,30.5993 C 41.7353,30.6033 41.7301,30.6065 41.7245,30.6086 C 41.7188,30.6108 41.7128,30.6119 41.7066,30.6119 H 40.0411 C 40.0288,30.6119 40.0169,30.6164 40.0082,30.6244 C 39.9994,30.6324 40.0001,30.6433 40.0001,30.6547 V 31.5677 C 40.0001,31.579 40.0165,31.5899 40.0253,31.5979 C 40.034,31.6059 40.0772,31.6105 40.0895,31.6105 H 41.5761 C 41.5882,31.6104 41.5999,31.6148 41.6086,31.6225 S 41.6223,31.6407 41.6227,31.6518 L 41.6321,32.2082 C 41.6323,32.2139 41.6312,32.2196 41.629,32.225 C 41.6267,32.2303 41.6233,32.2352 41.619,32.2394 C 41.6146,32.2435 41.6094,32.2468 41.6037,32.249 C 41.5979,32.2512 41.5917,32.2524 41.5855,32.2524 H 40.052 C 40.0459,32.2524 40.0398,32.2535 40.0342,32.2557 C 40.0285,32.2578 40.0234,32.261 40.0191,32.2649 C 40.0147,32.2689 40.0113,32.2736 40.009,32.2788 C 40.0066,32.284 40.0001,32.2896 40.0001,32.2952 V 33.3152 C 40.0001,33.3208 40.0066,33.3263 40.009,33.3315 C 40.0113,33.3367 40.0147,33.3415 40.0191,33.3454 C 40.0234,33.3494 40.0285,33.3526 40.0342,33.3547 C 40.0398,33.3569 40.0459,33.358 40.052,33.358 Z" fill="rgb(239, 242, 248)"/>
<path d="M 43.514,33.342999999999996 H 45.2563 C 45.2624,33.358 45.2685,33.3591 45.2741,33.3612 C 45.2798,33.3634 45.2849,33.3665 45.2892,33.3705 C 45.2936,33.3745 45.297,33.3792 45.2993,33.3844 C 45.3017,33.3896 45.3029,33.3951 45.3029,33.4008 V 33.9571 C 45.3029,33.9627 45.3017,33.9683 45.2993,33.9735 C 45.297,33.9787 45.2936,33.9834 45.2892,33.9874 C 45.2849,33.9913 45.2798,33.9945 45.2741,33.9966 C 45.2685,33.9988 45.2624,33.9999 45.2563,33.9999 H 42.7083 C 42.7022,33.9999 42.6961,33.9988 42.6905,33.9966 C 42.6848,33.9945 42.6797,33.9913 42.6754,33.9874 C 42.671,33.9834 42.6676,33.9787 42.6653,33.9735 C 42.6629,33.9683 42.6617,33.9627 42.6617,33.9571 V 30.0427 C 42.6617,30.0371 42.6629,30.0315 42.6653,30.0263 C 42.6676,30.0211 42.671,30.0164 42.6754,30.0124 C 42.6797,30.0085 42.6848,30.0053 42.6905,30.0032 C 42.6961,30.001 42.7022,29.9999 42.7083,29.9999 H 45.1403 C 45.1526,29.9999 45.2028,30.0215 45.2116,30.0296 C 45.2203,30.0376 45.2252,30.0485 45.2252,30.0598 V 30.5691 C 45.2252,30.5747 45.224,30.5803 45.2217,30.5855 C 45.2193,30.5907 45.2159,30.5954 45.2116,30.5993 C 45.2072,30.6033 45.2021,30.6065 45.1964,30.6086 C 45.1908,30.6108 45.1847,30.6119 45.1786,30.6119 H 43.5131 C 43.5007,30.6119 43.4889,30.6164 43.4801,30.6244 C 43.4714,30.6324 43.472,30.6433 43.472,30.6547 V 31.5677 C 43.472,31.579 43.4885,31.5899 43.4972,31.5979 C 43.506,31.6059 43.5491,31.6105 43.5615,31.6105 H 45.0481 C 45.0602,31.6104 45.0718,31.6148 45.0805,31.6225 S 45.0943,31.6407 45.0947,31.6518 L 45.104,32.2082 C 45.1042,32.2139 45.1032,32.2196 45.1009,32.225 C 45.0987,32.2303 45.0953,32.2352 45.0909,32.2394 C 45.0866,32.2435 45.0814,32.2468 45.0756,32.249 C 45.0699,32.2512 45.0637,32.2524 45.0574,32.2524 H 43.524 C 43.5179,32.2524 43.5118,32.2535 43.5061,32.2557 C 43.5005,32.2578 43.4953,32.261 43.491,32.2649 C 43.4867,32.2689 43.4833,32.2736 43.4809,32.2788 C 43.4786,32.284 43.472,32.2896 43.472,32.2952 V 33.3152 C 43.472,33.3208 43.4786,33.3263 43.4809,33.3315 C 43.4833,33.3367 43.4867,33.3415 43.491,33.3454 C 43.4953,33.3494 43.5005,33.3526 43.5061,33.3547 C 43.5118,33.3569 43.5179,33.358 43.524,33.358 Z" fill="rgb(239, 242, 248)"/>
<path d="M 48.656,32.745 V 30.0857 C 48.665,30.0335 48.693,30 48.7499,30 H 49.3792 C 49.4309,30 49.4568,30.0439 49.4568,30.0914 V 33.9287 C 49.4568,33.9762 49.4309,34 49.3792,34 H 48.7158 C 48.6862,33.9999 48.6571,33.993 48.6313,33.9798 C 48.6055,33.9665 48.5837,33.9475 48.5682,33.9244 L 46.7908,31.1395 V 33.9102 C 46.7918,33.9596 46.7567,33.999 46.7018,34 H 46.1134 C 46.0986,34.0002 46.0839,33.9977 46.0701,33.9927 C 46.0564,33.9877 46.0439,33.9803 46.0333,33.9708 C 46.0228,33.9614 46.0144,33.9502 46.0087,33.9378 C 46.0029,33.9254 46,33.9122 46,33.8987 V 30.0914 C 46,30.0278 46.0342,29.9973 46.1025,30.0002 L 46.8535,30 C 46.9074,30.0019 46.9612,30.0496 46.9912,30.0914 L 48.666,32.76 Z" fill="rgb(239, 242, 248)"/>
</svg>
