<?xml version="1.0" encoding="UTF-8"?>
<!-- generated by Finnhub -->
<svg viewBox="0 0 55.5 55.5" xmlns="http://www.w3.org/2000/svg">
<path d="M 0,0 H 55.5 V 55.5 H 0 Z" fill="url(#a)"/>
<path d="M 5.99,25.695 V 27.43 H 8.48 C 9,27.43 9.27,27.14 9.27,26.57 C 9.27,26 9,25.72 8.47,25.71 H 6 Z M 4.5,24.57 L 4,24 H 8.48 C 10.06,24 11,24.86 11,26.57 C 11,28.3 10.06,29 8.48,29 H 6 V 31.43 L 6.63,32 H 4.5 V 24.57 Z M 14,31.43 L 14.55,32 H 12.5 V 24.57 L 11.91,24 H 14 V 27 H 17 V 24.57 L 16.49,24 H 18.5 V 31.43 L 19.12,32 H 17 V 28.5 H 14 V 31.43 Z M 25.3,30.5 L 26,30 V 32 H 20.5 V 24.57 L 20.03,24 H 26 V 26.02 L 25.3,25.5 H 22 V 27 H 25 V 29.14 L 24.44,28.5 H 22 V 30.5 H 25.3 Z M 29,31.43 L 29.5,32 H 27.5 V 24.57 L 26.98,24 H 29.09 L 32.5,29.43 V 24.57 L 32,24 H 34 V 31.43 L 34.5,32 H 32.38 L 29,26.84 V 31.43 Z M 38.82,30.29 C 40.04,30.29 40.92,29.17 40.92,27.99 C 40.92,26.91 40.15,25.85 39.02,25.73 C 37.68,25.58 36.74,26.77 36.72,28 C 36.7,29.15 37.6,30.3 38.82,30.29 Z M 38.82,31.99 C 36.68,32 35,30.05 35,28 C 35,25.97 36.68,24.01 38.82,24.01 C 40.95,24.01 42.5,25.97 42.5,28.01 S 40.95,32.01 38.82,32.01 Z M 45.5,31.43 L 46.2,32 H 44 V 24.57 L 43.5,24 H 45.5 L 47.79,27.32 L 50,24 H 52 L 51.5,24.57 V 32 H 49.5 L 50,31.43 V 27.02 L 47.79,30.34 L 45.5,27.02 V 31.42 Z" fill="rgb(209, 173, 107)"/>
<defs>
<linearGradient id="a" x1="10.42" x2="68.15" y1="9.71" y2="76.02" gradientUnits="userSpaceOnUse">
<stop stop-color="rgb(25, 29, 31)" offset="0"/>
<stop stop-color="rgb(5, 5, 8)" offset="1"/>
</linearGradient>
</defs>
</svg>
