<?xml version="1.0" encoding="UTF-8"?>
<!-- generated by Finnhub -->
<svg viewBox="0 0 55.5 55.5" xmlns="http://www.w3.org/2000/svg">
<path d="M 0,0 H 55.5 V 55.5 H 0 Z" fill="rgb(239, 242, 248)"/>
<path d="M 45.02,24.985 H 45.46 C 46,25.14 46.47,25.6 46.5,26.18 C 46.56,26.88 45.93,27.56 45.21,27.5 C 44.46,27.51 43.86,26.73 44.03,26.01 C 44.11,25.51 44.55,25.14 45.03,25 Z" fill="rgb(55, 180, 71)"/>
<path d="M 48.09,25.415 C 48.72,24.97 49.55,24.93 50.28,25.08 C 51.02,25.25 51.61,25.83 51.93,26.52 C 51.47,26.72 51,26.9 50.55,27.12 A 1.9,1.9 0 0,0 49.81,26.4 C 49.51,26.28 49.13,26.32 48.93,26.6 C 48.82,26.71 48.83,26.89 48.83,27.04 C 48.9,27.14 48.97,27.23 49.07,27.28 C 49.53,27.55 50.07,27.6 50.55,27.81 C 50.93,27.97 51.28,28.19 51.55,28.51 C 51.84,28.84 51.99,29.28 52,29.71 V 30.25 V 30.06 C 51.91,31.17 50.88,32 49.83,32 H 49.37 C 49.02,31.98 48.67,31.9 48.34,31.74 C 47.73,31.44 47.29,30.84 47,30.22 L 48.45,29.64 C 48.61,29.9 48.77,30.18 49.03,30.36 C 49.39,30.63 49.93,30.66 50.28,30.35 C 50.46,30.19 50.56,29.85 50.36,29.66 C 50.05,29.35 49.6,29.23 49.19,29.1 C 48.54,28.92 47.86,28.6 47.5,27.98 C 47.05,27.13 47.3,25.96 48.1,25.43 Z M 4,25 H 6.9 C 7.76,25.01 8.56,25.6 8.86,26.39 C 9.01,26.79 9.03,27.24 8.97,27.66 C 8.87,28.45 8.27,29.14 7.53,29.39 C 6.93,29.59 6.3,29.48 5.69,29.51 V 32 H 4 V 25 Z M 5.69,26.52 V 28 C 6.05,28 6.42,27.97 6.78,27.93 C 7.23,27.88 7.48,27.3 7.27,26.92 C 7.15,26.72 6.96,26.56 6.72,26.54 C 6.38,26.51 6.03,26.54 5.69,26.52 Z M 10,25 H 11.57 V 27.6 H 13.43 V 25 H 15 V 32 H 13.43 V 29.23 H 11.57 V 32 H 10 V 25 Z M 15.5,32 C 16.31,29.67 17.09,27.33 17.88,25 H 19.12 L 21.5,32 H 19.81 L 19.52,31 H 17.51 C 17.4,31.34 17.31,31.66 17.19,32 H 15.5 Z M 17.9,29.53 H 19.14 L 18.54,27.35 C 18.32,28.07 18.12,28.8 17.91,29.53 Z M 22,25 H 24.61 C 25.18,25 25.73,25.31 26.08,25.79 C 26.48,26.28 26.61,26.96 26.54,27.59 C 26.49,28.22 26.13,28.79 25.61,29.09 L 27,32 L 25.21,32.01 C 24.84,31.16 24.47,30.31 24.08,29.47 H 23.55 V 32 H 22 V 25 Z M 23.55,26.57 V 28 C 23.89,27.99 24.23,28.02 24.55,27.98 C 24.9,27.88 25.08,27.45 25,27.1 C 24.96,26.82 24.73,26.57 24.45,26.57 C 24.15,26.55 23.85,26.55 23.55,26.57 Z M 26.93,25 H 28.78 C 28.91,25.24 28.95,25.53 29.04,25.79 C 29.39,26.83 29.68,27.89 30.04,28.92 L 31.24,25 H 33.13 C 32.3,27.33 31.51,29.67 30.68,32 H 29.35 L 26.93,25 Z M 34.88,25 H 36.12 L 38.5,32 H 36.8 C 36.71,31.65 36.62,31.34 36.51,31 H 34.51 L 34.19,32 H 32.5 L 34.88,25 Z M 34.91,29.53 H 36.14 L 35.54,27.34 C 35.32,28.07 35.11,28.8 34.91,29.54 Z M 39,25 H 41.67 C 42.29,25.02 42.86,25.41 43.19,25.95 C 43.74,26.82 43.7,28.15 42.92,28.86 C 42.82,28.96 42.72,29.02 42.61,29.1 C 42.91,29.76 43.24,30.4 43.55,31.06 C 43.7,31.37 43.83,31.69 44,31.99 C 43.4,32.01 42.81,31.99 42.22,32 C 41.84,31.15 41.47,30.3 41.08,29.46 H 40.55 V 32 H 39 V 25 Z M 40.55,26.57 V 28 L 41.48,27.99 C 41.7,27.99 41.86,27.79 41.96,27.59 C 42.1,27.24 41.98,26.71 41.59,26.59 C 41.25,26.53 40.89,26.56 40.55,26.57 Z M 44.5,28 H 46 V 32 H 44.5 C 44.5,30.67 44.52,29.33 44.5,28 Z" fill="rgb(1, 173, 237)"/>
</svg>
