<?xml version="1.0" encoding="UTF-8"?>
<!-- generated by Finnhub -->
<svg viewBox="0 0 55.5 55.5" xmlns="http://www.w3.org/2000/svg">
<path d="M 0,0 H 55.5 V 55.5 H 0 Z" fill="rgb(239, 242, 248)"/>
<path d="M 38.57,32.045 C 38.15,37.83 32.76,50.94 23.78,45.08 L 23.61,44.94 C 23.77,43.89 23.99,42.47 24.11,41.44 L 25.41,30.93 C 25.81,30.98 26.21,31.01 26.61,31 C 31.59,31 36.91,26.17 37.45,19.62 C 38.89,24.32 38.89,27.76 38.58,32.06 Z M 20.45,39.5 L 20.28,40.66 A 25.3,25.3 0 0,1 17.2,28.64 C 17.02,19.1 22.07,9.84 27.8,9.84 C 30.9,9.84 32.53,12.68 32.53,17.31 C 32.53,23.2 30.21,29.01 27.13,29.01 C 26.63,28.97 26.13,28.9 25.63,28.79 L 26.83,19.25 C 27.03,17.74 27.26,15.59 27.7,13.1 C 25.7,14.14 22.97,14.34 22.24,14.48 L 22.04,15.99 C 22.13,15.94 22.24,15.91 22.34,15.93 C 22.71,15.93 23.09,16.55 23.09,17.31 C 23.06,17.96 22.99,18.61 22.9,19.25 L 20.45,39.5 Z M 36.2,13.63 C 34.5,10.39 31.24,8 28.16,8 C 20.3,8 15.53,19.02 16.04,29.8 C 16.31,35.82 19.2,41.76 20.27,43.17 C 21.1,44.4 22.15,45.47 23.36,46.31 C 31.13,52.02 38.59,42.21 39.69,32.46 C 40.16,28.43 40.72,21.74 36.23,13.66" fill="rgb(34, 30, 30)"/>
</svg>
