<?xml version="1.0" encoding="UTF-8"?>
<!-- generated by Finnhub -->
<svg viewBox="0 0 55.5 55.5" xmlns="http://www.w3.org/2000/svg">
<path d="M 0,0 H 55.5 V 55.5 H 0 Z" fill="rgb(239, 242, 248)"/>
<path d="M 30.77,24.925 H 32 L 32.16,24.28 H 30.91 S 29.82,24.32 30.14,23.43 C 30.14,23.43 30.48,22.95 30.91,23.36 C 30.91,23.36 31.08,23.48 31.53,23.96 L 32.85,22.78 S 31.84,21.51 30.53,22.21 C 29.96,22.51 29.1,23.73 29.1,23.73 S 28.81,24.22 28.07,24.33 L 27.91,24.97 H 28.93 C 28.53,27.71 28.29,28.77 28.29,28.77 C 28.29,28.75 27.88,30.96 27.59,31.54 C 27.59,31.54 27.13,32.79 26.29,33.19 C 25.79,33.42 25.12,33.35 25.12,33.35 C 24.43,33.35 23.75,32.72 23.75,32.14 C 23.75,31.64 24.22,31 25,31 H 27.23 C 27.42,30.38 27.38,30.35 27.38,30.35 H 25.05 C 23.92,30.35 23.03,31.09 23.03,32.08 C 23.03,33.03 24.01,33.98 25.13,33.98 C 25.13,33.98 27.46,34.36 28.98,31.52 C 28.98,31.52 29.6,30.7 30.21,27.89 C 30.81,25.08 30.78,24.94 30.78,24.94 Z M 5.37,29.18 V 29.2 V 29.12 V 29.18 Z M 5.37,29.18 L 6.42,23.48 C 6.56,22.51 5.4,22.65 5.4,22.65 L 5.64,22 H 9.88 L 10,22.66 S 8.88,22.46 8.7,23.36 L 7.62,29.36 S 7.25,30.43 8.57,30.39 L 8.37,31 H 4.11 L 4,30.37 S 5.19,30.59 5.37,29.18 Z M 9.04,24.48 L 11.84,24.09 L 11.7,24.87 C 13.21,23.63 14.22,24.08 14.22,24.08 C 15.12,24.31 14.89,25.8 14.89,25.8 L 14.43,28.4 C 14.13,29.35 15.13,29.16 15.13,29.16 L 15.05,29.63 L 12.23,30 L 12.89,26.48 C 13.16,25.28 12.34,25.26 12.34,25.26 C 11.59,25.28 11.52,25.87 11.52,25.87 L 10.76,30 H 8.86 L 9.58,26.07 C 9.91,24.72 8.96,24.97 8.96,24.97 L 9.04,24.49 Z M 17.96,29.96 S 16.44,30.2 15.78,29.52 C 15.78,29.52 14.57,28.57 15.74,26.22 C 16.91,23.89 19.5,24.19 19.5,24.19 L 19.64,23.45 S 19.76,22.77 18.66,22.9 L 18.82,22.4 L 21.81,22 L 20.59,28.42 S 20.32,29.21 21.55,29.12 L 21.48,29.56 L 18.43,29.96 L 19.37,24.92 S 18.3,24.63 17.64,26.27 C 17.64,26.27 16.44,29.27 18.16,29.47 L 18.09,29.92 L 17.96,29.96 Z M 24.12,29.32 S 25.12,29.68 25.58,27.26 C 25.96,25.24 25.53,24.69 25.08,24.66 C 25.08,24.66 24.22,24.34 23.72,26.75 C 23.22,29.21 24.12,29.32 24.12,29.32 Z M 21.57,26.98 C 21.78,25.33 23.32,23.99 25.01,24 A 2.63,2.63 0 0,1 27.69,27.01 A 3.5,3.5 0 0,1 24.26,30 A 2.63,2.63 0 0,1 21.57,26.98 Z M 35.25,27.26 C 34.79,29.68 33.79,29.32 33.79,29.32 S 32.89,29.22 33.39,26.75 C 33.89,24.34 34.75,24.66 34.75,24.66 C 35.2,24.69 35.63,25.24 35.25,27.26 Z M 34.68,24 A 3.51,3.51 0 0,0 31.25,26.98 C 31.04,28.64 32.24,29.99 33.93,30 A 3.51,3.51 0 0,0 37.36,27.01 C 37.56,25.36 36.36,24.01 34.68,24 Z M 40.45,29.32 S 41.45,29.68 41.9,27.26 C 42.28,25.24 41.85,24.69 41.4,24.66 C 41.4,24.66 40.54,24.34 40.05,26.75 C 39.55,29.21 40.45,29.32 40.45,29.32 Z M 37.9,26.98 C 38.1,25.33 39.64,23.99 41.33,24 C 43.02,24 44.23,25.36 44.02,27.01 C 43.81,28.67 42.27,30.01 40.58,30 A 2.63,2.63 0 0,1 37.9,26.98 Z M 9.1,30.4 H 23.45 C 22.91,30.62 22.8,31 22.8,31 H 8.93 L 9.11,30.4 Z M 29.85,31 H 50.55 L 50.68,30.4 H 30.06 C 30.02,30.73 29.86,31 29.86,31 Z M 47.35,29.47 L 47.28,29.92 L 47.15,29.96 S 45.64,30.2 44.97,29.53 C 44.97,29.53 43.77,28.57 44.93,26.23 C 46.1,23.88 48.69,24.19 48.69,24.19 L 48.83,23.45 S 48.96,22.77 47.86,22.9 L 48.01,22.4 L 51,22 L 49.78,28.42 S 49.52,29.21 50.75,29.12 L 50.67,29.56 L 47.62,29.96 L 48.56,24.92 S 47.49,24.63 46.84,26.27 C 46.84,26.27 45.64,29.27 47.36,29.47 Z" fill="rgb(1, 83, 154)"/>
</svg>
