<?xml version="1.0" encoding="UTF-8"?>
<!-- generated by Finnhub -->
<svg fill="none" viewBox="0 0 55.5 55.5" xmlns="http://www.w3.org/2000/svg">
<rect width="56" height="56" fill="url(#a)"/>
<path d="M 32.99,23.985 V 23 H 12 S 14.5045,24.6453 14,27 C 14,27 21.1337,23.9717 33,24 Z" clip-rule="evenodd" fill="rgb(199, 199, 198)" fill-rule="evenodd"/>
<path d="M 32.99,25.985 V 25 S 22.64,24.7741 15,28 C 15,28 17.7245,28.764 18,31 C 18,31 24.3263,26.5126 33,26 Z" clip-rule="evenodd" fill="rgb(199, 199, 198)" fill-rule="evenodd"/>
<path d="M 32.99,26.985 V 28 S 26.8877,28.1034 22,34 C 22,34 21.5138,32 19,32 C 19,32 22.6309,28.0343 33,27 Z" clip-rule="evenodd" fill="rgb(199, 199, 198)" fill-rule="evenodd"/>
<path d="M 10.99,21.985 C 11.7664,18.8163 10,18 10,18 H 24.977 C 34.5425,18 46,20.5588 46,26.7946 C 46,33.0305 38.9247,33 38.9247,33 H 33 C 33.0949,34.5041 32,38 32,38 C 35,38 35,37 35,37 L 34.341,36.9898 C 34.6895,35.5486 34,34 34,34 C 35.9009,34.6581 36.7602,37 36.7602,37 H 36 C 36.0636,39.8203 31,40 31,40 C 29.1607,43.7392 26.1392,43.999 25.7307,43.999 C 25.717,43.999 25.6999,43.9991 25.6797,43.9993 C 25.1021,44.0052 22,44.0364 22,40.765 C 22,38 28.0196,38.0156 28.0196,38.0156 C 28.0196,34.5 23,35 23,35 C 27.4502,29.8105 32.5,29 32.5,29 H 38.5 H 38.5171 C 39.0127,29.0003 41,29.0017 41,26.7946 C 41,24.5612 35.8339,22 27,22 H 11 Z M 24.896,40 H 27.9996 C 27.4481,41.6438 25.5167,42 25.1374,42 S 23.9996,41.8082 23.9996,41.0411 S 24.896,40 24.896,40 Z" clip-rule="evenodd" fill="rgb(199, 199, 198)" fill-rule="evenodd"/>
<defs>
<linearGradient id="a" x1="28" x2="28" y2="56" gradientUnits="userSpaceOnUse">
<stop stop-color="rgb(23, 26, 28)" offset="0"/>
<stop stop-color="rgb(23, 26, 28)" offset="1"/>
</linearGradient>
</defs>
</svg>
