<?xml version="1.0" encoding="UTF-8"?>
<!-- generated by Finnhub -->
<svg viewBox="0 0 55.5 55.5" xmlns="http://www.w3.org/2000/svg">
<path d="M 0,0 H 55.5 V 55.5 H 0 Z" fill="rgb(239, 242, 248)"/>
<path d="M 16.99,15.985 H 39 V 40 H 17 V 16 Z M 19,18 V 38 H 22 V 20 H 29.03 C 30.39,20 33.43,20.36 33.43,22.9 C 33.43,25.45 30.17,26.18 28.55,26.23 L 29.69,28 C 32.37,28 37.26,27.14 37.3,22.68 C 37.34,19.12 34.12,18.08 32.5,18 H 19 Z M 24,22 V 38 H 33.15 C 34.76,37.93 37.98,36.86 37.95,33.38 C 37.9,29.02 32.35,28.63 29.67,28.63 L 28.71,30.26 C 30.34,30.31 34.26,30.89 34.26,33.38 S 31.04,36 29.67,36 H 27 V 22 H 24 Z" fill="rgb(9, 104, 95)"/>
<path d="M 40.99,13.985 H 15 V 42 H 41 V 14 Z M 13,12 V 44 H 43 V 12 H 13 Z" fill="rgb(178, 134, 2)" fill-rule="evenodd"/>
</svg>
