<?xml version="1.0" encoding="UTF-8"?>
<!-- generated by Finnhub -->
<svg viewBox="0 0 55.5 55.5" xmlns="http://www.w3.org/2000/svg">
<path d="M 0,0 H 55.5 V 55.5 H 0 Z" fill="rgb(239, 242, 248)"/>
<path d="M 25.41,22.064999999999998 C 18.69,21.07 5.18,19.04 5,19 H 53 L 39.77,22.99 C 38.87,25.41 36.87,27.74 35.99,28.6 L 39.32,28.96 L 41.16,30.96 V 31.64 H 38.24 L 31.63,34.67 L 28.83,39.83 L 25.91,42.73 L 26.91,44 H 21.51 L 23.67,42.73 L 20.52,41.19 L 23.4,40.83 L 19.7,38.93 L 23.08,38.66 L 18.45,36.93 L 22.77,36.21 L 15.88,33.81 L 22.77,32.86 L 13.32,30.5 L 23.08,29.78 L 10.76,27.15 L 24.43,26.07 L 7.61,22.99 L 25.41,22.08 Z" fill="url(#a)"/>
<defs>
<linearGradient id="a" x1="45.09" x2="28.85" y1="21.06" y2="43.89" gradientUnits="userSpaceOnUse">
<stop stop-color="rgb(0, 82, 157)" offset=".19"/>
<stop stop-color="rgb(252, 253, 253)" offset=".4"/>
<stop stop-color="rgb(0, 82, 157)" offset=".63"/>
</linearGradient>
</defs>
</svg>
