<?xml version="1.0" encoding="UTF-8"?>
<!-- generated by Finnhub -->
<svg viewBox="0 0 55.5 55.5" xmlns="http://www.w3.org/2000/svg">
<path d="M 0,0 H 55.5 V 55.5 H 0 Z" fill="rgb(239, 242, 248)"/>
<path d="M 38.89,37.635 C 38.08,38.63 37.13,39.5 36.07,40.22 C 37.77,41.35 39.02,41.79 39.55,41.32 C 40.08,40.85 39.81,39.52 38.91,37.65 Z M 35.08,40.83 A 13.84,13.84 0 0,1 16.63,36.06 L 11.74,41 A 1.6,1.6 0 0,1 9.46,41 A 1.65,1.65 0 0,1 9.46,38.69 L 15.15,32.92 L 17.61,30.43 L 21.17,26.81 A 83.01,83.01 0 0,1 18.65,23.44 A 11.11,11.11 0 0,0 17.45,28.29 L 14.68,31.09 A 14.35,14.35 0 0,1 16.79,20.68 C 14.09,16.41 12.87,13.16 13.89,12.25 C 14.91,11.35 17.89,12.95 21.66,16.15 A 13.76,13.76 0 0,1 38.44,18.83 L 36.32,20.98 A 10.8,10.8 0 0,0 19.3,22.33 C 20.09,23.49 20.99,24.73 21.97,26 L 28.12,19.78 A 1.6,1.6 0 0,1 30.39,19.78 C 31.02,20.41 31.02,21.45 30.39,22.08 L 24.02,28.55 A 97.3,97.3 0 0,0 26.91,31.85 L 36.93,21.7 L 39.06,19.54 L 42.25,16.3 A 1.6,1.6 0 0,1 44.53,16.3 C 45.16,16.94 45.16,17.98 44.53,18.61 L 40.84,22.35 A 14.14,14.14 0 0,1 39.17,37.33 C 40.6,40.08 41.08,42.07 40.32,42.75 C 39.55,43.44 37.62,42.67 35.08,40.83 Z M 32.44,38.75 A 10.87,10.87 0 0,1 18.8,33.85 L 23.25,29.34 A 99.69,99.69 0 0,0 26.15,32.63 L 26,32.78 A 1.65,1.65 0 0,0 26,35.09 A 1.6,1.6 0 0,0 28.27,35.09 L 28.4,34.97 A 68.92,68.92 0 0,0 32.44,38.75 Z M 33.49,38.25 A 63.14,63.14 0 0,1 29.15,34.21 L 38.57,24.66 A 11.16,11.16 0 0,1 33.49,38.26 Z M 17.58,19.61 A 14.02,14.02 0 0,1 21.2,16.43 C 18.56,14.33 16.58,13.33 15.87,13.97 C 15.17,14.59 15.87,16.71 17.57,19.61 Z" fill="url(#a)" fill-rule="evenodd"/>
<defs>
<linearGradient id="a" x1="11.11" x2="44.66" y1="40.96" y2="19.14" gradientUnits="userSpaceOnUse">
<stop stop-color="rgb(50, 150, 231)" offset="0"/>
<stop stop-color="rgb(176, 200, 51)" offset="1"/>
</linearGradient>
</defs>
</svg>
