<?xml version="1.0" encoding="UTF-8"?>
<!-- generated by Finnhub -->
<svg viewBox="0 0 55.5 55.5" xmlns="http://www.w3.org/2000/svg">
<path d="M 0,0 H 55.5 V 55.5 H 0 Z" fill="rgb(239, 242, 248)"/>
<path d="M 7.99,20.155 C 9.4,19.79 12.18,19.8 12,22.82 C 10.66,23.21 8,23.22 8,20.17 Z" fill="rgb(144, 195, 75)"/>
<path d="M 17.99,28.985 A 5,5 0 0,1 10,33 V 38 H 8 V 29 A 5,5 0 0,1 18,29 Z M 10,29 A 3,3 0 1,0 16,29 A 3,3 0 0,0 10,29 Z M 21,20 H 19 V 29 A 5,5 0 0,0 24,34 V 32.16 A 3.5,3.5 0 0,1 21,28.7 V 20 Z M 25,24 H 27 V 29.5 A 2.5,2.5 0 0,0 32,29.5 V 24 H 34 V 34 H 32 V 33.24 A 4.5,4.5 0 0,1 25,29.5 V 24 Z M 42,34 H 44.05 V 28 C 44.05,27.88 44.05,27.76 44.03,27.65 A 2,2 0 0,1 48,28 V 34 H 50 V 28 A 4,4 0 0,0 43.02,25.33 A 3.99,3.99 0 0,0 38,24.56 V 24 H 36 V 34 H 38 V 28 A 2,2 0 0,1 42,28 V 34 Z"/>
</svg>
