<?xml version="1.0" encoding="UTF-8"?>
<!-- generated by Finnhub -->
<svg viewBox="0 0 55.5 55.5" xmlns="http://www.w3.org/2000/svg">
<path d="M 0,28 A 28,28 0 1,1 56,28 A 28,28 0 0,1 0,28 Z" fill="rgb(239, 242, 248)"/>
<path d="M 7.99,27.985 L 18.03,17.88 L 29.87,29.82 L 19.84,39.94 L 8,28 Z" fill="rgb(23, 153, 167)"/>
<path d="M 26.119999999999997,26.165 L 29.63,28 H 48 L 37.97,38.12 L 26.13,26.18 Z" fill="rgb(172, 205, 54)"/>
<path d="M 47.99,27.985 H 16.72 C 27.13,27.9 27.88,16.4 33.98,15.08 C 34.61,14.95 34.98,14.93 35.46,15.41 L 48,28 Z" fill="rgb(134, 186, 102)"/>
<path d="M 7.99,27.985 H 39.28 C 28.84,28.1 28.06,39.66 21.93,40.93 C 21.3,41.05 20.95,41.06 20.48,40.59 L 8,28 Z" fill="rgb(93, 168, 137)"/>
</svg>
