<?xml version="1.0" encoding="UTF-8"?>
<!-- generated by Finnhub -->
<svg viewBox="0 0 55.5 55.5" xmlns="http://www.w3.org/2000/svg">
<path d="M 0,0 H 55.5 V 55.5 H 0 Z" fill="url(#a)"/>
<path d="M 12.55,22.985 H 13.56 V 31 H 12.56 V 23 Z M 36.24,23 H 37.24 V 25 H 38.25 V 26 H 37.25 V 29 A 1.25,1.25 0 0,0 38.64,30.24 L 38.97,31.2 C 38.82,31.23 38.67,31.25 38.5,31.25 A 2.26,2.26 0 0,1 36.24,29 V 23 Z M 42.28,23 H 40.78 L 40.27,24 H 41.27 V 31 H 42.28 V 23 Z" fill="rgb(254, 254, 253)"/>
<path d="M 45.550000000000004,34.985 A 8.13,8.13 0 0,0 52,27.1 C 52,22.62 48.32,19 43.78,19 A 8.25,8.25 0 0,0 38,21.34 A 8.1,8.1 0 0,1 43.2,19.48 A 8,8 0 0,1 51.25,27.41 C 51.25,30.98 48.85,34.01 45.56,35 Z" fill="rgb(254, 80, 76)"/>
<path d="M 11.540000000000001,27.985 A 3.28,3.28 0 1,1 6.01,30.34 V 33 H 5 V 28 C 5,26.2 6.47,24.75 8.28,24.75 C 10.08,24.75 11.55,26.21 11.55,28 Z M 6.01,28 A 2.26,2.26 0 0,0 8.28,30.25 A 2.26,2.26 0 0,0 10.54,28 A 2.26,2.26 0 0,0 8.28,25.75 A 2.26,2.26 0 0,0 6,28 Z M 20.11,30.34 A 3.28,3.28 0 0,1 17.85,31.25 C 16.04,31.25 14.57,29.79 14.57,28 S 16.04,24.75 17.85,24.75 C 19.65,24.75 21.12,26.21 21.12,28 V 31 H 20.12 V 30.34 Z M 20.11,28 A 2.26,2.26 0 0,1 17.85,30.25 A 2.26,2.26 0 0,1 15.58,28 A 2.26,2.26 0 0,1 17.85,25.75 A 2.26,2.26 0 0,1 20.1,28 Z M 34.73,28 C 34.73,26.2 33.26,24.75 31.45,24.75 S 28.18,26.21 28.18,28 S 29.64,31.25 31.45,31.25 A 3.27,3.27 0 0,0 34.52,29.15 L 33.61,28.7 A 2.27,2.27 0 0,1 31.45,30.25 A 2.26,2.26 0 0,1 29.18,28 H 34.73 Z M 31.45,25.75 C 30.56,25.75 29.79,26.26 29.42,27 H 33.48 A 2.27,2.27 0 0,0 31.45,25.75 Z" fill="rgb(254, 254, 253)" fill-rule="evenodd"/>
<path d="M 24.639999999999997,24.685 A 2.51,2.51 0 0,0 22.13,27.2 V 31 H 23.13 V 27.2 C 23.13,26.37 23.81,25.7 24.65,25.7 C 25.48,25.7 26.16,26.37 26.16,27.2 V 31 H 27.16 V 27.2 A 2.51,2.51 0 0,0 24.65,24.7 Z M 47.33,26.39 A 2.16,2.16 0 0,0 45.81,22.7 A 2.16,2.16 0 0,0 43.67,24.5 H 44.71 A 1.16,1.16 0 0,1 46.97,24.85 C 46.97,25.5 46.31,26 46.03,26 H 45.31 V 27 H 46.09 C 46.82,27 47.52,27.75 47.52,28.58 C 47.52,29.46 46.8,30.18 45.92,30.18 A 1.6,1.6 0 0,1 44.3,28.5 H 43.3 V 28.58 A 2.61,2.61 0 0,0 45.91,31.18 A 2.61,2.61 0 0,0 48.53,28.58 A 2.6,2.6 0 0,0 47.33,26.38 Z" fill="rgb(254, 254, 253)"/>
<defs>
<linearGradient id="a" x1="10.42" x2="68.15" y1="9.71" y2="76.02" gradientUnits="userSpaceOnUse">
<stop stop-color="rgb(25, 29, 31)" offset="0"/>
<stop stop-color="rgb(5, 5, 8)" offset="1"/>
</linearGradient>
</defs>
</svg>
