<?xml version="1.0" encoding="UTF-8"?>
<!-- generated by Finnhub -->
<svg viewBox="0 0 55.5 55.5" xmlns="http://www.w3.org/2000/svg">
<path d="M 0,0 H 55.5 V 55.5 H 0 Z" fill="rgb(169, 115, 183)"/>
<path d="M 47.6,31.967 L 48,28.248 L 45.584,27.318 A 17.725,17.725 0 0,0 45.362,25.12 L 47.517,23.62 L 46.363,20.05 L 43.784,20.188 A 17.869,17.869 0 0,0 42.688,18.269 L 44.048,16.019 L 41.55,13.229 L 39.25,14.409 A 17.665,17.665 0 0,0 37.473,13.107 L 37.806,10.491 L 34.394,8.965 L 32.771,10.989 A 17.344,17.344 0 0,0 30.62,10.522 L 29.867,8 H 26.133 L 25.466,10.51 C 24.733,10.616 24.015,10.77 23.312,10.964 L 21.604,8.966 L 18.192,10.493 L 18.599,13.061 C 17.979,13.457 17.381,13.887 16.815,14.355 L 14.45,13.23 L 11.951,16.02 L 13.361,18.196 C 12.954,18.807 12.585,19.449 12.257,20.109 L 9.638,20.049 L 8.484,23.619 L 10.654,25.033 C 10.532,25.753 10.452,26.485 10.419,27.233 L 8,28.247 L 8.39,31.981 L 10.938,32.384 C 11.119,33.106 11.348,33.807 11.616,34.491 L 9.818,36.407 L 11.685,39.659 L 14.183,38.983 C 14.638,39.561 15.127,40.113 15.648,40.631 L 14.781,43.118 L 17.801,45.324 L 19.807,43.686 C 20.454,44.028 21.123,44.333 21.816,44.595 L 22.03,47.216 L 25.682,47.996 L 26.853,45.678 C 27.231,45.703 27.611,45.718 27.995,45.718 C 28.35,45.718 28.702,45.705 29.051,45.683 L 30.311,47.996 L 33.962,47.216 L 34.094,44.627 C 34.788,44.37 35.458,44.067 36.106,43.727 L 38.19,45.323 L 41.211,43.116 L 40.281,40.688 A 17.566,17.566 0 0,0 41.756,39.05 L 44.31,39.657 L 46.176,36.406 L 44.348,34.572 C 44.619,33.89 44.852,33.189 45.038,32.469 L 47.61,31.981 Z"/>
<path d="M 15.26,27.985 C 15.27,20.862 21.025,15.074 28.127,15.074 C 35.227,15.074 40.984,20.862 40.984,28 C 40.984,35.139 35.229,40.927 28.127,40.927 C 21.025,40.925 15.27,35.14 15.27,28 Z M 14.607,28 C 14.607,20.492 20.66,14.406 28.127,14.406 C 35.594,14.406 41.647,20.491 41.647,28 C 41.647,35.507 35.594,41.593 28.127,41.593 S 14.607,35.507 14.607,28 Z" fill="rgb(145, 92, 159)" fill-rule="evenodd"/>
<path d="M 13.995000000000001,24.444 H 15.599 V 24.51 C 15.708,24.462 15.819,24.425 15.934,24.397 A 1.39,1.39 0 0,1 16.286,24.353 C 16.546,24.353 16.786,24.402 17.01,24.5 A 1.81,1.81 0 0,1 17.974,25.491 C 18.067,25.717 18.114,25.956 18.114,26.209 A 1.908,1.908 0 0,1 17.602,27.522 A 1.803,1.803 0 0,1 16.286,28.062 C 16.136,28.062 15.995,28.047 15.866,28.017 A 1.955,1.955 0 0,1 15.489,27.897 V 29.061 H 16.004 V 29.997 H 13.996 V 29.061 H 14.436 V 25.395 H 14.005 V 24.459 Z M 16.21,25.296 A 0.77,0.77 0 0,0 15.807,25.409 A 0.962,0.962 0 0,0 15.489,25.727 V 26.725 A 0.846,0.846 0 0,0 16.21,27.118 A 0.86,0.86 0 0,0 16.542,27.053 A 0.85,0.85 0 0,0 17,26.578 A 0.949,0.949 0 0,0 17.068,26.216 C 17.068,26.072 17.045,25.943 17,25.83 A 0.804,0.804 0 0,0 16.545,25.361 A 0.868,0.868 0 0,0 16.21,25.296 Z M 18.524,22.682 H 20 V 27.064 L 20.53,27.054 V 27.99 L 18.524,28 V 27.064 H 19.004 V 23.618 H 18.524 V 22.682 Z M 23.44,27.809 C 23.36,27.859 23.287,27.902 23.22,27.939 A 1.213,1.213 0 0,1 23.022,28.02 A 1.463,1.463 0 0,1 22.584,28.085 C 22.373,28.085 22.183,28.057 22.014,28 A 1.315,1.315 0 0,1 21.59,27.76 A 1.067,1.067 0 0,1 21.235,26.95 C 21.235,26.787 21.265,26.635 21.327,26.496 A 0.994,0.994 0 0,1 21.6,26.141 C 21.719,26.041 21.864,25.963 22.035,25.908 C 22.208,25.851 22.405,25.823 22.625,25.823 A 3.856,3.856 0 0,1 23.438,25.912 V 25.802 A 0.479,0.479 0 0,0 23.388,25.573 A 0.425,0.425 0 0,0 23.245,25.413 A 0.594,0.594 0 0,0 23.022,25.32 A 1.231,1.231 0 0,0 22.739,25.29 A 2.098,2.098 0 0,0 21.703,25.536 L 21.375,24.873 C 21.607,24.713 21.85,24.591 22.103,24.507 C 22.358,24.422 22.628,24.38 22.913,24.38 C 23.134,24.38 23.338,24.405 23.525,24.456 C 23.714,24.503 23.875,24.583 24.01,24.695 C 24.145,24.805 24.25,24.948 24.325,25.125 C 24.402,25.303 24.441,25.52 24.441,25.775 V 27.064 H 24.916 V 28 H 23.439 V 27.809 Z M 22.66,27.279 C 22.822,27.279 22.969,27.253 23.101,27.2 C 23.233,27.148 23.346,27.084 23.439,27.009 V 26.558 H 22.619 A 0.506,0.506 0 0,0 22.329,26.65 A 0.37,0.37 0 0,0 22.233,26.76 A 0.318,0.318 0 0,0 22.199,26.91 C 22.199,27.015 22.236,27.102 22.311,27.173 C 22.389,27.243 22.505,27.279 22.661,27.279 Z M 28.55,25.963 C 28.55,25.765 28.497,25.61 28.392,25.498 A 0.54,0.54 0 0,0 27.975,25.328 A 0.897,0.897 0 0,0 27.616,25.406 A 0.95,0.95 0 0,0 27.264,25.7 V 27.064 H 27.838 V 28 H 25.638 V 27.064 H 26.157 V 25.395 H 25.644 V 24.459 H 27.257 V 24.77 A 1.782,1.782 0 0,1 28.334,24.394 C 28.76,24.394 29.088,24.514 29.318,24.753 C 29.548,24.99 29.663,25.337 29.663,25.795 V 27.063 H 30.166 V 28 H 28.549 V 25.963 Z M 31.547,26.452 L 31.557,26.558 A 0.719,0.719 0 0,0 31.684,26.828 A 0.875,0.875 0 0,0 31.899,27.023 A 0.989,0.989 0 0,0 32.172,27.143 C 32.272,27.167 32.374,27.18 32.477,27.18 A 2.343,2.343 0 0,0 33.037,27.111 A 4.08,4.08 0 0,0 33.539,26.944 L 33.916,27.644 C 33.786,27.724 33.666,27.793 33.556,27.85 C 33.45,27.904 33.341,27.95 33.232,27.986 C 33.122,28.023 33.006,28.049 32.883,28.065 A 2.964,2.964 0 0,1 32.453,28.092 C 32.145,28.092 31.871,28.042 31.633,27.942 C 31.393,27.839 31.191,27.702 31.027,27.528 A 1.803,1.803 0 0,1 30.655,26.92 A 2.148,2.148 0 0,1 30.661,25.45 A 1.803,1.803 0 0,1 31.632,24.452 C 31.86,24.354 32.113,24.305 32.391,24.305 S 32.915,24.352 33.129,24.445 C 33.346,24.536 33.529,24.665 33.676,24.828 C 33.824,24.99 33.938,25.181 34.018,25.402 C 34.098,25.622 34.141,25.857 34.148,26.11 C 34.155,26.167 34.158,26.224 34.158,26.28 C 34.16,26.335 34.159,26.392 34.155,26.452 H 31.547 Z M 32.364,25.16 A 0.997,0.997 0 0,0 32.036,25.207 A 0.638,0.638 0 0,0 31.663,25.515 C 31.627,25.584 31.598,25.655 31.578,25.73 H 33.058 A 1.112,1.112 0 0,0 32.989,25.512 A 0.539,0.539 0 0,0 32.664,25.208 A 0.816,0.816 0 0,0 32.364,25.16 Z M 36.017,24.459 H 36.725 V 25.355 H 36.011 L 36.004,26.852 C 36.004,26.938 36.011,27.009 36.024,27.064 A 0.344,0.344 0 0,0 36.082,27.19 C 36.11,27.222 36.142,27.243 36.178,27.255 A 0.425,0.425 0 0,0 36.305,27.272 A 0.979,0.979 0 0,0 36.534,27.248 C 36.6,27.23 36.666,27.209 36.732,27.186 L 36.879,27.846 A 1.597,1.597 0 0,1 35.983,28.086 A 1.13,1.13 0 0,1 35.583,28.014 A 0.937,0.937 0 0,1 35.252,27.798 A 1.073,1.073 0 0,1 35.022,27.433 A 1.351,1.351 0 0,1 34.941,26.923 L 34.951,25.355 H 34.441 V 24.459 H 34.955 L 34.961,23.611 L 36.024,23.105 L 36.017,24.459 Z M 18.261,30.459 H 18.907 V 31.355 H 18.261 V 33.063 H 18.914 V 34 H 16.716 V 33.063 H 17.246 V 31.354 H 16.709 V 30.459 H 17.246 V 29.871 C 17.246,29.664 17.283,29.481 17.356,29.324 C 17.428,29.167 17.526,29.034 17.646,28.928 A 1.26,1.26 0 0,1 18.07,28.685 C 18.23,28.63 18.397,28.603 18.572,28.603 A 1.787,1.787 0 0,1 19.191,28.706 A 1.032,1.032 0 0,1 19.516,28.897 L 19.123,29.618 A 0.656,0.656 0 0,0 18.703,29.492 A 0.43,0.43 0 0,0 18.388,29.612 A 0.417,0.417 0 0,0 18.295,29.758 A 0.542,0.542 0 0,0 18.261,29.96 V 30.459 Z M 19.512,30.459 H 21.102 V 33.063 H 21.594 V 34 H 19.512 V 33.063 H 20.045 V 31.395 H 19.512 V 30.459 Z M 19.991,29.317 C 19.991,29.233 20.006,29.154 20.035,29.081 A 0.608,0.608 0 0,1 20.831,28.757 A 0.619,0.619 0 0,1 21.153,29.081 A 0.606,0.606 0 1,1 19.991,29.317 Z M 23.549,30.459 H 24.256 V 31.355 H 23.542 L 23.545,32.766 C 23.545,32.853 23.552,32.923 23.565,32.978 A 0.345,0.345 0 0,0 23.624,33.105 C 23.651,33.136 23.684,33.158 23.72,33.169 A 0.424,0.424 0 0,0 23.846,33.187 A 0.985,0.985 0 0,0 24.076,33.163 C 24.141,33.144 24.207,33.123 24.273,33.101 L 24.42,33.761 A 1.594,1.594 0 0,1 23.525,34 C 23.385,34 23.253,33.976 23.125,33.928 A 0.936,0.936 0 0,1 22.793,33.713 A 1.075,1.075 0 0,1 22.564,33.347 A 1.351,1.351 0 0,1 22.482,32.837 V 31.354 H 21.973 V 30.459 H 22.486 L 22.493,29.611 L 23.556,29.105 L 23.549,30.459 Z M 27.859,31.963 C 27.859,31.765 27.806,31.61 27.702,31.498 A 0.54,0.54 0 0,0 27.285,31.328 A 0.897,0.897 0 0,0 26.925,31.406 A 0.95,0.95 0 0,0 26.574,31.7 V 33.063 H 27.148 V 34 H 24.947 V 33.063 H 25.467 V 31.395 H 24.953 V 30.459 H 26.567 V 30.77 A 1.78,1.78 0 0,1 27.643,30.394 C 28.07,30.394 28.398,30.514 28.628,30.753 C 28.858,30.99 28.973,31.337 28.973,31.795 V 33.063 H 29.476 V 34 H 27.859 V 31.963 Z M 30.856,32.452 V 32.472 A 0.719,0.719 0 0,0 31,32.735 A 0.875,0.875 0 0,0 31.215,32.93 A 0.984,0.984 0 0,0 31.489,33.05 C 31.589,33.075 31.69,33.087 31.793,33.087 A 2.343,2.343 0 0,0 32.353,33.019 A 4.013,4.013 0 0,0 32.856,32.852 L 33.232,33.552 C 33.102,33.632 32.982,33.7 32.873,33.757 C 32.766,33.812 32.658,33.857 32.548,33.894 C 32.438,33.931 32.323,33.957 32.2,33.973 A 2.98,2.98 0 0,1 31.769,34 C 31.461,34 31.188,33.95 30.949,33.85 A 1.793,1.793 0 0,1 30.344,33.436 A 1.8,1.8 0 0,1 29.971,32.828 C 29.887,32.595 29.838,32.441 29.838,32.182 C 29.838,31.922 29.882,31.678 29.971,31.45 A 1.804,1.804 0 0,1 31.701,30.305 C 31.979,30.305 32.225,30.352 32.439,30.445 C 32.655,30.536 32.838,30.665 32.986,30.828 C 33.134,30.99 33.248,31.181 33.328,31.402 C 33.408,31.622 33.451,31.857 33.458,32.11 C 33.464,32.167 33.468,32.224 33.468,32.28 C 33.47,32.335 33.468,32.392 33.464,32.452 H 30.856 Z M 31.673,31.16 A 0.998,0.998 0 0,0 31.345,31.207 A 0.638,0.638 0 0,0 30.973,31.515 C 30.936,31.584 30.908,31.655 30.887,31.73 H 32.367 A 1.112,1.112 0 0,0 32.299,31.512 A 0.538,0.538 0 0,0 31.974,31.208 A 0.815,0.815 0 0,0 31.674,31.16 Z M 36.25,31.543 A 0.263,0.263 0 0,0 36.195,31.385 A 0.418,0.418 0 0,0 36.041,31.255 A 0.93,0.93 0 0,0 35.789,31.163 A 1.485,1.485 0 0,0 35.453,31.129 A 0.94,0.94 0 0,0 35.146,31.184 A 0.335,0.335 0 0,0 35.03,31.269 A 0.197,0.197 0 0,0 34.985,31.402 A 0.3,0.3 0 0,0 34.995,31.481 C 35.005,31.506 35.021,31.53 35.043,31.553 A 0.383,0.383 0 0,0 35.136,31.618 A 0.695,0.695 0 0,0 35.293,31.662 L 35.935,31.789 C 36.168,31.834 36.363,31.891 36.52,31.959 C 36.677,32.028 36.804,32.108 36.9,32.199 A 0.8,0.8 0 0,1 37.104,32.503 A 0.994,0.994 0 0,1 37.169,32.865 C 37.169,33.068 37.122,33.245 37.026,33.398 C 36.932,33.551 36.808,33.598 36.653,33.7 C 36.501,33.8 36.327,33.875 36.133,33.925 A 2.336,2.336 0 0,1 35.203,33.98 A 1.812,1.812 0 0,1 34.923,33.915 A 1.321,1.321 0 0,1 34.702,33.819 A 1.469,1.469 0 0,1 34.524,33.693 H 33.905 V 32.824 H 34.873 V 32.844 A 0.295,0.295 0 0,0 34.934,33.019 A 0.507,0.507 0 0,0 35.084,33.142 C 35.148,33.176 35.22,33.202 35.3,33.221 C 35.38,33.237 35.464,33.245 35.553,33.245 C 35.758,33.245 35.907,33.218 36,33.166 C 36.094,33.111 36.14,33.042 36.14,32.958 A 0.228,0.228 0 0,0 36.072,32.79 A 0.492,0.492 0 0,0 35.83,32.677 L 35.173,32.537 C 34.761,32.457 34.45,32.325 34.24,32.141 A 0.918,0.918 0 0,1 33.926,31.423 C 33.926,31.252 33.966,31.097 34.046,30.958 C 34.126,30.817 34.233,30.698 34.37,30.599 C 34.507,30.499 34.666,30.421 34.849,30.367 A 2.07,2.07 0 0,1 35.439,30.285 A 2.4,2.4 0 0,1 36.123,30.377 C 36.213,30.404 36.29,30.437 36.356,30.477 C 36.424,30.512 36.485,30.551 36.537,30.592 H 37.132 V 31.542 H 36.25 Z M 40.017,31.543 A 0.263,0.263 0 0,0 39.962,31.385 A 0.418,0.418 0 0,0 39.808,31.255 A 0.93,0.93 0 0,0 39.555,31.163 A 1.485,1.485 0 0,0 39.22,31.129 A 0.94,0.94 0 0,0 38.913,31.184 A 0.335,0.335 0 0,0 38.796,31.269 A 0.197,0.197 0 0,0 38.752,31.402 A 0.3,0.3 0 0,0 38.762,31.481 C 38.772,31.506 38.787,31.53 38.81,31.553 A 0.383,0.383 0 0,0 38.902,31.618 A 0.695,0.695 0 0,0 39.059,31.662 L 39.702,31.789 C 39.935,31.834 40.129,31.891 40.286,31.959 C 40.444,32.028 40.57,32.108 40.666,32.199 A 0.8,0.8 0 0,1 40.871,32.503 A 0.994,0.994 0 0,1 40.936,32.865 C 40.936,33.068 40.888,33.165 40.792,33.317 C 40.699,33.47 40.575,33.597 40.42,33.7 C 40.267,33.8 40.094,33.875 39.9,33.925 A 2.336,2.336 0 0,1 38.97,33.98 A 1.812,1.812 0 0,1 38.69,33.915 A 1.321,1.321 0 0,1 38.468,33.819 A 1.46,1.46 0 0,1 38.29,33.693 H 37.672 V 32.824 H 38.639 V 32.844 A 0.295,0.295 0 0,0 38.701,33.019 A 0.507,0.507 0 0,0 38.851,33.142 C 38.915,33.176 38.987,33.202 39.066,33.221 C 39.146,33.237 39.23,33.245 39.319,33.245 C 39.524,33.245 39.674,33.218 39.767,33.166 C 39.86,33.111 39.907,33.042 39.907,32.958 A 0.228,0.228 0 0,0 39.839,32.79 A 0.492,0.492 0 0,0 39.596,32.677 L 38.94,32.537 C 38.527,32.457 38.216,32.325 38.007,32.141 A 0.918,0.918 0 0,1 37.692,31.423 C 37.692,31.252 37.732,31.097 37.812,30.958 C 37.892,30.817 38,30.698 38.137,30.599 C 38.273,30.499 38.433,30.421 38.615,30.367 A 2.07,2.07 0 0,1 39.206,30.285 A 2.4,2.4 0 0,1 39.89,30.377 C 39.979,30.404 40.056,30.437 40.123,30.477 C 40.191,30.512 40.251,30.551 40.303,30.592 H 40.898 V 31.542 H 40.016 Z" fill="rgb(254, 254, 253)"/>
</svg>
