<?xml version="1.0" encoding="UTF-8"?>
<!-- generated by Finnhub -->
<svg viewBox="0 0 55.5 55.5" xmlns="http://www.w3.org/2000/svg">
<path d="M 0,0 H 55.5 V 55.5 H 0 Z" fill="rgb(239, 242, 248)"/>
<path d="M 43.14,16.035 L 42.08,15.56 L 32.1,11 C 32.06,10.98 32,11.06 32,11.12 L 32.01,11.16 C 32.17,11.24 33.76,12.06 34.7,12.6 C 35.21,12.9 36.02,13.4 36,14.08 C 36.02,14.64 35.67,15.17 35.41,15.64 C 33.57,19.03 31.62,22.03 29.73,25.39 C 29.18,26.4 28.69,27.5 27.39,27.5 H 18.34 C 17.49,27.5 16.62,27.57 16.04,28.26 C 15.39,29.06 14.92,30.42 14.41,31.31 A 849.69,849.69 0 0,0 9,41 L 9.68,40.87 C 15.99,29.42 17.32,26.38 9.68,40.87 L 10.37,40.75 C 16.37,29.9 17.35,27.4 10.37,40.75 L 15.15,39.86 C 22.47,25.44 23.16,25.26 15.15,39.86 L 15.83,39.73 C 22.84,25.95 23.81,25.26 15.83,39.73 C 20.5,38.88 11.23,40.59 19.85,38.99 C 21.28,36.27 22.68,33.9 24.04,31.14 C 24.64,29.92 25.31,28.58 26.82,28.5 C 30.04,28.5 33.46,28.88 36.66,28.36 C 37.88,28.16 38.72,27.15 39.38,26.1 C 40.91,23.75 42.1,21.18 43.5,18.75 C 43.73,18.35 43.96,18.01 44,17.53 C 44.05,16.9 43.66,16.38 43.15,16.05 Z" fill="url(#a)"/>
<defs>
<linearGradient id="a" x1="32.17" x2="32.17" y1="11" y2="42.78" gradientUnits="userSpaceOnUse">
<stop stop-color="rgb(45, 57, 153)" offset=".12"/>
<stop stop-color="rgb(7, 174, 237)" offset=".49"/>
<stop stop-color="rgb(50, 53, 147)" offset=".9"/>
</linearGradient>
</defs>
</svg>
