<?xml version="1.0" encoding="UTF-8"?>
<!-- generated by Finnhub -->
<svg viewBox="0 0 55.5 55.5" xmlns="http://www.w3.org/2000/svg">
<path d="M 0,0 H 55.5 V 55.5 H 0 Z" fill="rgb(39, 51, 62)"/>
<path d="M 19.49,30.985 A 1,1 0 1,0 19.5,29 A 1,1 0 0,0 19.5,31 Z" fill="rgb(134, 208, 228)"/>
<path d="M 19.49,28.485 A 1,1 0 1,0 19.5,26.5 A 1,1 0 0,0 19.5,28.5 Z" fill="rgb(134, 208, 228)" opacity=".7"/>
<path d="M 19.49,25.985 A 1,1 0 1,0 19.5,24 A 1,1 0 0,0 19.5,26 Z" fill="rgb(134, 208, 228)" opacity=".6"/>
<path d="M 19.49,23.485 A 1,1 0 1,0 19.5,21.5 A 1,1 0 0,0 19.5,23.5 Z" fill="rgb(134, 208, 228)" opacity=".4"/>
<path d="M 19.49,20.985 A 1,1 0 1,0 19.5,19 A 1,1 0 0,0 19.5,21 Z" fill="rgb(134, 208, 228)" opacity=".15"/>
<path d="M 50.99,22.985 V 24.5 H 44.5 V 27.5 H 50.5 V 29 H 44.5 V 32.5 H 51 V 34 H 43 V 23 H 51 Z M 27.5,23 V 32.5 H 34 V 34 H 26 V 23 H 27.5 Z M 40.62,23.79 C 41.3,24.33 41.69,25.18 41.78,26.34 H 40.31 C 40.17,25.65 39.92,25.14 39.54,24.85 C 39.16,24.54 38.61,24.39 37.88,24.39 C 37.24,24.39 36.74,24.49 36.4,24.7 C 35.98,24.94 35.77,25.33 35.77,25.86 C 35.77,26.34 36.01,26.7 36.5,26.99 C 36.72,27.12 37.28,27.34 38.2,27.64 C 39.5,28.08 40.36,28.42 40.74,28.68 C 41.58,29.23 42,29.98 42,30.96 C 42,31.94 41.66,32.66 40.98,33.2 A 4.6,4.6 0 0,1 38.11,34 A 4.45,4.45 0 0,1 35.32,33.23 C 34.52,32.61 34.08,31.63 34,30.29 H 35.47 C 35.58,31.12 35.86,31.73 36.29,32.09 C 36.69,32.41 37.29,32.58 38.11,32.58 C 38.85,32.58 39.43,32.43 39.87,32.16 C 40.31,31.9 40.53,31.52 40.53,31.05 C 40.53,30.45 40.21,30 39.6,29.65 A 19.2,19.2 0 0,0 37.66,28.95 C 36.46,28.53 35.72,28.25 35.42,28.07 A 2.38,2.38 0 0,1 34.3,25.95 C 34.3,25.03 34.65,24.29 35.38,23.75 C 36.06,23.25 36.92,23 37.96,23 A 4,4 0 0,1 40.62,23.79 Z M 16.5,29.7 C 16.5,31.41 17.55,32.5 19.5,32.5 C 21.44,32.5 22.5,31.4 22.5,29.7 V 23 H 24 V 29.68 C 24,32.22 22.35,34 19.5,34 C 16.66,34 15,32.24 15,29.68 V 23 H 16.5 V 29.7 Z M 9.3,23 H 5 V 24.44 H 9.17 C 9.94,24.44 10.5,24.59 10.87,24.9 C 11.23,25.17 11.42,25.67 11.42,26.34 C 11.42,27.74 10.47,28.5 9.17,28.5 H 5 V 34 H 6.5 V 30 H 9.27 C 11.75,30 13,28.6 13,26.34 C 13,24.1 11.77,23 9.3,23 Z" fill="rgb(254, 254, 253)"/>
</svg>
