<?xml version="1.0" encoding="UTF-8"?>
<!-- generated by Finnhub -->
<svg viewBox="0 0 55.5 55.5" xmlns="http://www.w3.org/2000/svg">
<path d="M 0,0 H 55.5 V 55.5 H 0 Z" fill="rgb(221, 100, 42)"/>
<path d="M 26.84,10.565 H 29.15 C 35.95,10.58 41.46,16.25 41.46,23.25 V 32.75 C 41.46,39.75 35.96,45.42 29.16,45.42 H 26.85 C 20.05,45.42 14.54,39.75 14.54,32.75 V 23.25 C 14.54,16.25 20.04,10.58 26.84,10.58 Z M 13,23.25 C 13,15.38 19.2,9 26.85,9 H 29.15 C 36.8,9 43,15.38 43,23.25 V 32.75 C 43,40.62 36.8,47 29.15,47 H 26.85 C 19.2,47 13,40.62 13,32.75 V 23.25 Z M 26.46,11.77 H 29.54 C 35.27,11.77 39.92,16.56 39.92,22.46 V 33.54 C 39.92,39.44 35.27,44.23 29.54,44.23 H 26.46 C 20.73,44.23 16.08,39.44 16.08,33.54 V 22.46 C 16.08,16.56 20.73,11.77 26.46,11.77 Z M 15.31,22.46 C 15.31,16.12 20.31,10.98 26.46,10.98 H 29.54 C 35.7,10.98 40.69,16.12 40.69,22.46 V 33.54 C 40.69,39.88 35.69,45.02 29.54,45.02 H 26.46 C 20.3,45.02 15.31,39.88 15.31,33.54 V 22.46 Z M 19.73,25.62 C 18.65,26.1 17.23,26.35 16.65,26.42 C 16.96,26.89 17.81,27.14 18.19,27.21 L 20.5,26.41 L 18.58,27.41 A 7,7 0 0,0 19.73,27.81 L 21.85,26.61 L 20.12,28 L 21.08,28.4 L 23,27.2 L 21.27,28.6 L 22.42,28.99 C 24.12,28.67 25.82,26.35 26.46,25.23 C 25.69,24.77 24.04,23.84 23.58,23.84 C 23.22,23.84 22.33,24.31 21.39,24.8 C 20.83,25.1 20.24,25.4 19.73,25.62 Z M 27.43,28.79 C 27.43,28.32 27.03,27.67 26.85,27.41 C 26.38,28.04 24.35,28.86 23.38,29.19 A 8.7,8.7 0 0,0 26.85,25.62 H 29.15 C 29.15,26.42 31.72,28.33 33,29.19 C 31.62,29.03 29.86,27.93 29.15,27.41 C 29.03,27.61 28.77,28.16 28.77,28.79 C 28.77,29.15 28.85,29.42 28.93,29.73 C 29.03,30.1 29.15,30.51 29.15,31.17 C 29.15,32.12 28.65,37.37 28.38,39.87 H 27.62 C 27.36,37.24 26.85,31.8 26.85,31.17 C 26.85,30.74 27.01,30.27 27.17,29.81 C 27.3,29.43 27.42,29.07 27.42,28.79 Z M 27.23,39.88 L 26.85,36.71 C 26.52,36.71 26.09,37.86 25.73,38.83 C 25.57,39.25 25.43,39.63 25.31,39.88 A 5.05,5.05 0 0,1 23.58,41.46 A 9.21,9.21 0 0,0 27.23,39.87 Z M 29.15,36.71 L 28.77,39.87 C 29.67,40.4 31.65,41.46 32.42,41.46 A 8.28,8.28 0 0,1 30.69,39.87 C 30.45,39.55 30.29,39.02 30.11,38.47 C 29.86,37.72 29.61,36.94 29.15,36.71 Z M 29.54,25.23 C 30.18,24.77 31.62,23.84 32.24,23.84 C 32.59,23.84 33.77,24.33 35.12,24.88 C 36.62,25.5 38.33,26.21 39.35,26.42 L 38,27.2 L 35.5,26.2 L 37.42,27.4 L 36.27,27.8 L 34.15,26.6 L 36.08,28.19 L 34.73,28.39 L 32.81,27.19 L 34.35,28.59 L 33.38,28.98 C 32.23,28.18 29.85,26.33 29.54,25.22 Z M 25.31,35.53 C 25.46,34.89 26.14,34.33 26.46,34.13 C 26.33,34.47 26.04,35.2 25.88,35.53 C 25.78,35.72 25.78,35.92 25.78,36.13 C 25.78,36.36 25.78,36.61 25.69,36.91 C 25.56,37.32 25.05,37.73 24.62,38.08 C 24.44,38.23 24.27,38.37 24.15,38.49 C 23.91,38.74 23.82,39.14 23.75,39.51 C 23.69,39.72 23.65,39.93 23.58,40.07 C 23.46,40.31 23.14,40.33 22.82,40.36 C 22.6,40.37 22.38,40.39 22.23,40.46 C 21.85,40.66 21.46,40.66 21.08,40.46 C 20.91,40.38 20.74,40.33 20.58,40.29 C 20.39,40.23 20.22,40.19 20.12,40.07 C 19.92,39.87 20.5,39.47 21.08,39.28 C 21.65,39.08 22.04,39.48 22.23,39.68 C 22.43,39.88 23,39.68 23.19,38.68 C 23.32,38.02 23.63,37.8 23.99,37.54 C 24.17,37.42 24.35,37.29 24.54,37.1 C 25.06,36.57 25.11,36.35 25.26,35.74 L 25.31,35.52 Z M 28,25.22 C 28.42,25.22 28.77,24.69 28.77,24.03 C 28.77,23.38 28.42,22.84 28,22.84 C 27.57,22.84 27.23,23.38 27.23,24.04 C 27.23,24.69 27.57,25.22 28,25.22 Z M 28.38,15.72 C 28,15.46 27.46,14.69 28.38,13.74 C 28.71,14.07 29.15,14.93 28.38,15.72 Z M 29.73,16.71 C 29.6,16.11 29.65,14.81 30.88,14.33 C 30.95,14.93 30.81,16.23 29.73,16.71 Z M 26.27,24.43 A 3.51,3.51 0 0,0 23.97,23.43 C 24.15,23.37 24.69,23.24 25.31,23.24 C 25.24,22.71 24.69,21.66 23,21.66 C 21.3,21.66 18.7,22.18 17.62,22.45 L 18.77,21.85 L 17.81,20.87 L 18.96,21.46 C 19.99,21.52 22.16,21.5 22.62,20.86 C 23.19,20.07 21.65,18.49 20.5,17.7 L 22.23,18.49 V 17.5 L 21.27,15.92 L 22.23,16.71 L 22.62,15.13 L 22.81,18.89 C 22.74,19.09 23.23,19.92 25.69,21.66 C 25.89,21.33 26.35,20.23 26.65,18.49 V 19.78 L 27.62,19.28 C 27.23,19.74 26.54,20.71 26.85,20.87 C 27.15,21.02 28,20.67 28.38,20.47 C 27.74,20.87 26.42,21.85 26.27,22.65 C 26.12,23.44 26.21,24.16 26.27,24.43 Z M 25.12,20.27 C 24.47,20.01 23.31,19.08 23.77,17.5 C 24.35,17.7 25.42,18.53 25.12,20.27 Z M 21.46,20.27 C 21.26,19.55 20.46,18.17 18.76,18.49 C 18.9,19.12 19.62,20.37 21.46,20.27 Z M 22.42,22.45 A 2.3,2.3 0 0,0 19.54,23.44 C 20.31,23.57 21.96,23.56 22.42,22.44 Z M 33.38,22.45 C 33.96,22.25 35.31,22.13 36.08,23.24 C 35.56,23.5 34.31,23.72 33.38,22.44 Z M 34.54,20.47 A 2.72,2.72 0 0,1 37.62,18.89 C 37.36,19.48 36.38,20.63 34.54,20.47 Z M 30.69,20.47 C 30.56,19.81 30.69,18.41 32.23,18.09 C 32.29,18.75 32.08,20.15 30.69,20.47 Z M 27.04,16.51 C 26.65,16.44 25.84,16 25.69,14.73 C 26.14,14.8 27.04,15.24 27.04,16.51 Z M 23.38,15.32 L 24.35,15.72 V 14.92 C 24.41,15.12 24.69,15.68 25.31,16.32 C 25.92,16.95 27.23,17.63 27.81,17.9 L 27.61,16.21 C 27.68,16.51 27.88,17.07 28.19,16.91 C 28.5,16.75 28.83,16.18 28.96,15.91 C 28.71,16.58 28.23,17.98 28.38,18.29 C 28.54,18.61 28.96,18.82 29.15,18.89 C 29.47,18.29 30.23,17.07 30.69,16.91 C 31.14,16.75 31.43,15.71 31.53,15.17 C 31.43,15.77 31.29,16.87 31.53,16.71 C 31.78,16.55 32.49,15.98 32.81,15.71 C 32.81,16.05 32.65,16.79 32.04,17.11 L 31.78,17.24 C 31.07,17.59 30.28,17.98 30.12,18.69 C 29.96,19.32 30.18,21.06 30.31,21.85 C 31.08,21.33 32.69,20.07 33,19.28 C 33.3,18.49 33.38,16.58 33.38,15.72 C 33.51,15.98 33.81,16.55 33.96,16.71 C 34.12,16.87 34.41,16.64 34.54,16.51 C 34.09,17.11 33.27,18.33 33.58,18.49 C 33.88,18.65 35.12,18.03 35.69,17.69 A 7.3,7.3 0 0,0 33,20.89 C 33.26,21.09 34.04,21.48 35.12,21.48 C 36.19,21.48 37.74,20.82 38.38,20.48 L 37.04,21.68 L 37.81,22.95 A 2.59,2.59 0 0,0 36.08,22.07 C 35.55,22.01 35.07,21.89 34.62,21.79 C 33.74,21.59 33.02,21.42 32.42,21.68 A 5.28,5.28 0 0,0 30.69,23.26 C 30.89,23.06 31.46,22.78 32.23,23.26 C 31.72,23.26 30.5,23.5 29.73,24.45 C 29.79,23.65 29.58,21.91 28.19,21.28 L 29.35,21.48 C 29.35,21.21 29.12,20.41 28.19,19.3 C 27.27,18.2 25.5,17.65 24.73,17.52 L 25.31,17.25 L 23.38,15.35 Z M 38,23.25 C 37.97,23.16 37.9,23.05 37.8,22.94 L 38,23.25 Z M 29.54,33.94 C 29.86,34.14 30.54,34.69 30.69,35.32 L 30.74,35.54 C 30.89,36.16 30.94,36.37 31.46,36.91 C 31.65,37.1 31.83,37.23 32,37.35 C 32.37,37.6 32.68,37.82 32.8,38.49 C 33,39.48 33.58,39.68 33.77,39.48 C 33.97,39.28 34.35,38.88 34.92,39.08 C 35.5,39.28 36.08,39.68 35.88,39.88 C 35.78,39.98 35.61,40.03 35.41,40.09 C 35.26,40.14 35.09,40.19 34.92,40.27 C 34.54,40.47 34.15,40.47 33.77,40.27 C 33.62,40.19 33.4,40.17 33.18,40.16 C 32.86,40.14 32.54,40.11 32.42,39.88 C 32.35,39.73 32.31,39.53 32.26,39.31 C 32.18,38.94 32.09,38.54 31.85,38.29 A 5.94,5.94 0 0,0 31.38,37.89 C 30.95,37.54 30.44,37.12 30.31,36.71 C 30.21,36.41 30.21,36.16 30.21,35.94 C 30.21,35.72 30.21,35.52 30.11,35.32 C 29.96,35.01 29.67,34.27 29.54,33.94 Z" fill="rgb(246, 229, 210)" fill-rule="evenodd"/>
</svg>
