<?xml version="1.0" encoding="UTF-8"?>
<!-- generated by Finnhub -->
<svg viewBox="0 0 55.5 55.5" xmlns="http://www.w3.org/2000/svg">
<path d="M 0,0 H 55.5 V 55.5 H 0 Z" fill="url(#a)"/>
<path d="M 39.99,12.985 H 41 V 16 H 44 V 17 H 41 V 20 H 40 V 17 H 37 V 16 H 40 V 13 Z M 35,22.22 C 35,27.69 23.88,30.42 18.33,31.12 C 16.55,35.88 18.33,37.59 22.52,37.59 C 25.87,37.59 29.68,34.74 31.16,33.32 L 32.06,34.35 C 30.41,36.57 25.66,41 19.75,41 C 13.83,41 12.79,36.57 13.02,34.35 C 13.03,25.68 23.59,18 30.09,18 C 34.26,18 35.09,20.82 34.99,22.22 Z M 29.93,19.07 C 24.95,19.07 20.22,26.12 18.83,29.64 L 19.44,29.52 C 20.96,29.24 24.58,28.58 27.54,26.62 C 31.04,24.29 32.1,22.63 32.1,21.09 S 30.84,19.01 29.93,19.07 Z" fill="rgb(254, 254, 253)"/>
<defs>
<linearGradient id="a" x1="28" x2="28" y2="56" gradientUnits="userSpaceOnUse">
<stop stop-color="rgb(2, 84, 157)" offset="0"/>
<stop stop-color="rgb(47, 153, 212)" offset="1"/>
</linearGradient>
</defs>
</svg>
