<?xml version="1.0" encoding="UTF-8"?>
<!-- generated by Finnhub -->
<svg viewBox="0 0 55.5 55.5" xmlns="http://www.w3.org/2000/svg">
<path d="M 0,0 H 55.5 V 55.5 H 0 Z" fill="rgb(239, 242, 248)"/>
<path d="M 39.99,12.985 H 16 V 43 H 40 V 13 Z M 14,11 V 45 H 42 V 11 H 14 Z" fill="rgb(146, 147, 150)" fill-rule="evenodd"/>
<path d="M 39.99,12.985 H 16 V 43 H 40 V 13 Z M 29.42,19 H 22 V 19.5 C 23.6,19.55 24,20.13 24,21.7 V 34.3 C 24,35.92 23.6,36.4 22,36.5 V 37 H 29 V 36.5 C 27.26,36.46 27,36.15 27,34.25 V 21.7 C 27,20.3 27.5,19.51 29,19.51 C 31.96,19.51 33,21.81 33,24.51 C 33,27.31 31.6,29.51 28.58,29.51 H 28.04 V 30.01 H 28.84 C 32.4,30 36,28 36,24 C 36,20.36 32.57,19 29.42,19 Z" fill="rgb(167, 4, 48)" fill-rule="evenodd"/>
</svg>
