<?xml version="1.0" encoding="UTF-8"?>
<!-- generated by Finnhub -->
<svg viewBox="0 0 55.5 55.5" xmlns="http://www.w3.org/2000/svg">
<path d="M 0,0 H 55.5 V 55.5 H 0 Z" fill="rgb(239, 242, 248)"/>
<path d="M 30.7,30.905 C 30.64,31.1 30.6,31.3 30.61,31.5 A 1.43,1.43 0 0,0 31.09,32.62 C 31.38,32.88 31.75,33 32.13,33 C 32.52,33 32.88,32.84 33.16,32.57 A 1.42,1.42 0 0,0 33.6,31.51 A 1.52,1.52 0 0,0 32.1,30 C 31.91,30 31.71,30.04 31.53,30.12 C 31.35,30.19 31.18,30.3 31.04,30.45 C 30.9,30.58 30.79,30.75 30.71,30.92 Z M 32.09,32.61 C 31.41,32.61 30.98,32.06 31,31.5 C 31,30.93 31.47,30.41 32.1,30.41 C 32.73,30.41 33.21,30.93 33.2,31.51 C 33.2,32.07 32.7,32.61 32.09,32.61 Z M 28,30 V 33 H 27.6 V 30 H 28 Z M 23,33 V 30 H 23.5 C 23.69,30 23.87,30.01 24.04,30.05 C 24.17,30.07 24.29,30.13 24.39,30.2 C 24.49,30.28 24.56,30.38 24.61,30.49 A 0.8,0.8 0 0,1 24.7,30.84 C 24.7,30.94 24.68,31.04 24.63,31.14 A 0.72,0.72 0 0,1 24.42,31.38 A 0.78,0.78 0 0,1 25,32.13 A 0.8,0.8 0 0,1 24.72,32.73 C 24.62,32.83 24.49,32.89 24.35,32.93 C 24.16,32.97 23.97,32.99 23.77,32.99 L 23,33 Z M 23.4,31.3 H 23.67 C 23.82,31.3 23.97,31.27 24.08,31.19 C 24.13,31.14 24.16,31.09 24.18,31.03 A 0.4,0.4 0 0,0 24.21,30.86 C 24.22,30.8 24.21,30.74 24.19,30.68 A 0.41,0.41 0 0,0 24.08,30.53 A 0.63,0.63 0 0,0 23.68,30.4 H 23.4 V 31.3 Z M 23.4,32.6 H 23.82 C 24,32.61 24.18,32.55 24.32,32.46 C 24.38,32.42 24.42,32.36 24.46,32.31 A 0.38,0.38 0 0,0 24.5,32.13 A 0.37,0.37 0 0,0 24.46,31.95 A 0.42,0.42 0 0,0 24.33,31.8 A 0.93,0.93 0 0,0 23.76,31.67 H 23.4 V 32.6 Z M 37.19,30.4 V 33 H 36.79 V 30.4 H 36 V 30 H 38 V 30.4 H 37.19 Z M 40.8,30.4 H 42 V 30 H 40.4 V 33 H 42 V 32.6 H 40.8 V 31.54 H 42 V 31.14 H 40.8 V 30.4 Z M 47,30.21 V 30.73 C 46.78,30.53 46.48,30.41 46.18,30.4 C 45.58,30.39 44.98,30.83 45,31.5 C 45.02,32.19 45.6,32.6 46.18,32.6 C 46.48,32.6 46.78,32.45 47,32.26 V 32.79 C 46.75,32.93 46.46,33 46.17,33 C 45.37,33 44.6,32.42 44.6,31.51 C 44.6,30.61 45.37,29.98 46.2,30.01 C 46.48,30.01 46.76,30.07 47,30.21 Z M 51.6,31.2 H 50.4 V 30 H 50 V 33 H 50.4 V 31.6 H 51.6 V 33 H 52 V 30 H 51.6 V 31.2 Z" fill="rgb(65, 183, 253)"/>
<path d="M 4.62,25.905 V 27.09 C 4.63,27.87 4.62,28.29 4.59,28.51 C 4.56,28.73 4.49,28.87 4.38,28.87 H 4.1 C 4.03,28.88 4,28.88 4,28.93 C 4,29 4.05,29 4.15,29 H 6.3 C 6.39,29 6.43,28.98 6.43,28.93 S 6.39,28.88 6.31,28.88 H 5.94 C 5.78,28.86 5.69,28.72 5.66,28.52 C 5.63,28.38 5.63,28.07 5.63,27.6 V 24.43 C 5.63,24.36 5.64,24.3 5.69,24.3 H 5.97 C 6.65,24.3 7.21,24.91 7.21,25.58 C 7.21,25.88 7.05,26.36 6.82,26.58 A 0.85,0.85 0 0,1 6.55,26.78 A 0.93,0.93 0 0,1 6.22,26.86 C 6.08,26.86 6.01,26.89 6.01,26.94 C 6.01,27 6.04,27 6.11,27 C 6.39,27 6.69,26.98 6.95,26.9 A 1.64,1.64 0 0,0 8,25.33 C 8,24.43 7.2,23.98 6.28,23.99 H 4.16 C 4.05,23.99 4,23.99 4,24.06 C 4,24.12 4.04,24.12 4.12,24.12 H 4.32 C 4.41,24.14 4.49,24.19 4.55,24.26 S 4.63,24.41 4.63,24.5 V 25.91 Z M 11.72,26.7 H 9.8 V 26.46 A 21.56,21.56 0 0,1 9.8,25.42 C 9.8,25.24 9.85,25.1 9.97,25.1 H 10.16 C 10.22,25.1 10.3,25.1 10.3,25.05 S 10.22,25 10.14,25 H 8.61 C 8.54,25 8.51,25 8.51,25.05 S 8.53,25.1 8.59,25.1 H 8.79 C 8.86,25.11 8.92,25.15 8.96,25.2 C 9,25.26 9,25.32 9,25.38 V 28.6 C 9,28.78 8.92,28.9 8.84,28.9 H 8.64 C 8.59,28.9 8.57,28.9 8.57,28.95 S 8.6,29 8.67,29 H 10.18 C 10.25,29 10.3,28.99 10.3,28.95 S 10.26,28.91 10.2,28.91 H 9.98 L 9.93,28.9 C 9.81,28.88 9.8,28.7 9.8,28.54 V 27 H 11.72 V 28.62 C 11.72,28.79 11.66,28.9 11.55,28.9 H 11.38 C 11.34,28.9 11.31,28.9 11.31,28.95 S 11.35,29 11.43,29 H 12.89 C 12.97,29 13,28.99 13,28.95 S 12.97,28.91 12.92,28.91 H 12.72 C 12.61,28.89 12.54,28.77 12.52,28.61 A 104.57,104.57 0 0,0 12.5,27.5 V 25.46 C 12.5,25.28 12.57,25.1 12.68,25.1 H 12.91 C 12.97,25.1 13.01,25.1 13.01,25.05 S 12.96,25 12.89,25 H 11.33 C 11.26,25 11.22,25 11.22,25.05 S 11.25,25.1 11.31,25.1 H 11.51 C 11.66,25.13 11.71,25.27 11.71,25.4 V 26.7 Z M 31.9,27.65 H 30.7 S 30.66,27.65 30.65,27.7 L 30.33,28.43 C 30.27,28.53 30.24,28.64 30.23,28.75 C 30.23,28.85 30.32,28.9 30.48,28.9 H 30.69 C 30.75,28.9 30.81,28.92 30.81,28.95 C 30.81,28.97 30.75,28.99 30.68,29 H 29.12 C 29.04,29 29,29 29,28.95 S 29.02,28.9 29.06,28.9 H 29.26 C 29.5,28.88 29.63,28.68 29.74,28.5 L 29.76,28.47 L 29.78,28.45 L 31.29,25.21 C 31.36,25.07 31.42,25 31.46,25 C 31.51,25 31.56,25.06 31.61,25.16 L 33.13,28.34 C 33.3,28.68 33.48,28.87 33.67,28.9 H 33.92 C 33.97,28.9 34,28.93 34,28.96 C 34,28.96 34,29 33.94,29 H 32.48 C 32.36,29 32.3,29 32.3,28.96 C 32.3,28.91 32.33,28.9 32.39,28.9 C 32.44,28.9 32.47,28.85 32.44,28.8 L 31.94,27.68 L 31.92,27.66 H 31.9 Z M 30.83,27.4 H 31.81 C 31.84,27.4 31.85,27.4 31.84,27.37 L 31.41,26.3 C 31.39,26.24 31.37,26.2 31.35,26.2 C 31.32,26.2 31.3,26.24 31.29,26.29 L 31.28,26.3 L 30.83,27.34 C 30.81,27.37 30.81,27.4 30.83,27.4 Z M 14.83,27.65 H 16.02 L 16.04,27.66 L 16.06,27.68 L 16.56,28.79 C 16.59,28.85 16.56,28.89 16.51,28.9 C 16.45,28.9 16.41,28.91 16.41,28.96 C 16.41,29 16.48,29 16.61,29 H 17.94 C 18.01,29 18,28.96 18,28.96 C 18,28.93 17.98,28.9 17.93,28.9 H 17.9 A 0.48,0.48 0 0,1 17.82,28.9 H 17.79 C 17.6,28.87 17.42,28.68 17.25,28.34 A 274.7,274.7 0 0,1 15.73,25.16 C 15.68,25.06 15.63,25 15.58,25 C 15.54,25 15.48,25.07 15.41,25.2 L 13.9,28.45 L 13.86,28.49 C 13.75,28.68 13.62,28.89 13.38,28.9 H 13.19 C 13.14,28.9 13.12,28.9 13.12,28.95 S 13.16,29 13.24,29 H 14.8 C 14.87,29 14.93,28.97 14.93,28.95 C 14.93,28.92 14.87,28.9 14.81,28.9 H 14.6 C 14.44,28.9 14.35,28.85 14.35,28.75 A 0.88,0.88 0 0,1 14.45,28.43 L 14.77,27.7 C 14.78,27.65 14.83,27.65 14.83,27.65 Z M 15.93,27.4 H 14.95 C 14.93,27.4 14.93,27.37 14.95,27.34 L 15.4,26.3 V 26.29 C 15.42,26.24 15.44,26.21 15.47,26.21 C 15.49,26.21 15.51,26.24 15.53,26.3 L 15.96,27.37 C 15.96,27.4 15.96,27.4 15.93,27.4 Z M 18.79,27.47 V 25.4 A 0.28,0.28 0 0,0 18.72,25.2 A 0.33,0.33 0 0,0 18.53,25.1 H 18.3 C 18.24,25.1 18.2,25.1 18.2,25.04 C 18.2,24.99 18.25,24.99 18.33,24.99 H 19.97 C 20.58,24.99 21.6,25.19 21.6,26.04 C 21.6,26.69 21.22,27.03 20.72,27.11 L 21.14,27.61 C 21.39,27.93 21.63,28.21 21.94,28.52 C 22.12,28.7 22.24,28.81 22.49,28.86 L 22.69,28.89 C 22.79,28.89 22.79,28.91 22.79,28.93 C 22.79,28.96 22.76,28.99 22.69,28.99 H 21.99 C 21.78,28.99 21.56,28.97 21.37,28.89 C 21.11,28.72 20.99,28.52 20.84,28.29 A 6.91,6.91 0 0,0 20.46,27.74 L 20.14,27.28 A 0.14,0.14 0 0,0 20.04,27.25 H 19.64 C 19.59,27.25 19.59,27.29 19.59,27.34 V 27.36 C 19.59,27.96 19.6,28.44 19.62,28.6 C 19.65,28.78 19.72,28.88 19.85,28.9 H 20.13 C 20.18,28.9 20.21,28.9 20.21,28.93 S 20.17,28.99 20.09,28.99 H 18.4 C 18.3,28.99 18.19,28.99 18.19,28.93 C 18.19,28.89 18.26,28.89 18.33,28.89 H 18.4 C 18.63,28.89 18.71,28.84 18.75,28.59 C 18.77,28.41 18.78,28.08 18.78,27.46 Z M 19.59,25.41 V 26.88 C 19.59,26.92 19.59,26.95 19.64,26.96 C 19.78,27 19.93,27 20.08,27 C 20.52,27 20.78,26.58 20.78,26.12 A 0.83,0.83 0 0,0 19.94,25.3 C 19.82,25.3 19.72,25.31 19.61,25.34 C 19.61,25.34 19.59,25.37 19.59,25.41 Z M 23.99,25.13 L 23.43,28.49 C 23.39,28.74 23.35,28.91 23.27,28.9 H 23.22 A 0.7,0.7 0 0,1 23.05,28.9 C 23.02,28.9 23,28.9 23,28.94 C 23,29 23.04,29 23.1,29 H 24.26 C 24.36,29 24.4,28.98 24.4,28.94 C 24.4,28.91 24.37,28.9 24.32,28.9 H 24.29 C 24.22,28.9 24.15,28.9 24.07,28.88 C 23.96,28.86 23.9,28.8 23.9,28.72 V 28.48 L 24.2,26.59 C 24.5,27.19 24.83,27.75 25.17,28.32 L 25.42,28.77 C 25.52,28.94 25.6,29 25.64,29 C 25.68,29 25.74,28.9 25.84,28.71 L 27,26.6 L 27.34,28.65 C 27.36,28.78 27.34,28.89 27.29,28.9 H 27.26 C 27.21,28.92 27.16,28.93 27.16,28.95 C 27.16,29.01 27.29,29.01 27.4,29.01 H 28.66 C 28.76,29.01 28.81,28.99 28.81,28.95 C 28.81,28.92 28.78,28.91 28.72,28.91 C 28.6,28.91 28.48,28.91 28.37,28.87 A 0.3,0.3 0 0,1 28.26,28.81 A 0.27,0.27 0 0,1 28.19,28.71 A 1.3,1.3 0 0,1 28.09,28.35 L 27.57,25.17 C 27.55,25.07 27.51,25.01 27.47,25.01 C 27.43,25.01 27.39,25.05 27.34,25.13 L 25.78,27.81 L 24.25,25.17 C 24.19,25.07 24.15,25.01 24.1,25.01 C 24.05,25.01 24,25.05 24,25.14 Z M 37,29 A 3.2,3.2 0 0,1 34.8,28.31 A 2.38,2.38 0 0,1 34.01,26.43 A 2.26,2.26 0 0,1 34.76,24.69 A 3.1,3.1 0 0,1 36.79,24.01 A 7.18,7.18 0 0,1 38.36,24.19 H 38.41 V 25.36 C 38.41,25.46 38.4,25.5 38.36,25.5 C 38.31,25.5 38.29,25.46 38.29,25.36 A 1,1 0 0,0 38.06,24.72 C 37.72,24.37 37.2,24.31 36.76,24.31 C 35.49,24.33 35.02,25.36 35.02,26.43 C 35.02,27.49 35.72,28.67 36.99,28.71 C 37.45,28.71 37.89,28.56 38.15,28.28 C 38.26,28.16 38.34,28.01 38.37,27.86 C 38.37,27.77 38.4,27.71 38.45,27.71 C 38.49,27.71 38.51,27.76 38.51,27.83 C 38.51,27.89 38.51,28 38.47,28.2 A 10.76,10.76 0 0,0 38.37,28.67 A 0.27,0.27 0 0,1 38.2,28.85 C 37.81,28.98 37.4,29.03 37,29 Z M 40.9,27.65 V 28.09 C 40.9,28.25 40.9,28.37 40.88,28.49 V 28.61 C 40.85,28.86 40.76,28.91 40.55,28.91 H 40.53 C 40.45,28.91 40.41,28.91 40.41,28.95 C 40.41,29.01 40.45,29.01 40.52,29.01 H 42.19 C 42.27,29.01 42.31,28.99 42.31,28.95 C 42.31,28.91 42.28,28.91 42.21,28.91 H 42.11 C 42.01,28.92 41.89,28.92 41.81,28.85 A 0.23,0.23 0 0,1 41.73,28.7 V 28.64 A 3.42,3.42 0 0,1 41.68,28.09 V 27.65 C 41.68,27.47 41.72,27.29 41.78,27.12 A 10.1,10.1 0 0,1 42.82,25.44 C 42.92,25.33 43.02,25.24 43.15,25.17 A 0.58,0.58 0 0,1 43.4,25.11 C 43.47,25.11 43.51,25.1 43.51,25.05 C 43.51,25.01 43.48,25.01 43.41,25.01 H 42.11 C 42.05,25.01 42.01,25.04 42.01,25.06 C 42.01,25.08 42.05,25.12 42.13,25.12 C 42.16,25.12 42.31,25.13 42.33,25.16 C 42.35,25.18 42.36,25.21 42.36,25.24 C 42.36,25.34 42.33,25.44 42.28,25.52 C 41.96,26.05 41.72,26.38 41.43,26.78 L 41.42,26.8 L 40.72,25.73 L 40.5,25.4 A 0.54,0.54 0 0,1 40.43,25.21 C 40.43,25.19 40.43,25.17 40.45,25.15 A 0.1,0.1 0 0,1 40.51,25.12 L 40.59,25.1 C 40.64,25.1 40.68,25.1 40.68,25.06 C 40.68,25.01 40.63,25.01 40.58,25.01 H 39.1 C 39.03,25.01 38.99,25.01 38.99,25.06 S 39.02,25.11 39.08,25.11 C 39.16,25.11 39.25,25.13 39.33,25.17 C 39.49,25.27 39.63,25.41 39.73,25.57 L 39.93,25.87 A 35.26,35.26 0 0,1 40.76,27.1 C 40.84,27.27 40.89,27.46 40.89,27.65 Z M 45.68,27.52 V 25.32 H 44.8 A 0.64,0.64 0 0,0 44.2,25.67 A 0.93,0.93 0 0,0 44.15,25.87 L 44.13,25.95 C 44.13,25.98 44.09,26.01 44.06,26.01 C 44.03,26.01 44.01,25.98 44.01,25.92 V 25 H 48.01 V 25.92 C 48.01,25.97 48.01,26 47.97,26 C 47.92,26 47.91,25.96 47.9,25.9 L 47.88,25.78 C 47.85,25.61 47.65,25.31 47.21,25.3 H 46.48 V 27.51 A 9,9 0 0,0 46.51,28.63 C 46.54,28.78 46.57,28.85 46.69,28.87 L 46.84,28.88 L 47.11,28.9 C 47.17,28.9 47.21,28.9 47.21,28.95 C 47.21,28.99 47.18,29 47.11,29 H 45.13 C 45.05,29 45.01,29 45.01,28.95 C 45.01,28.91 45.04,28.91 45.1,28.9 H 45.38 C 45.47,28.9 45.63,28.8 45.66,28.63 C 45.68,28.49 45.68,28.1 45.68,27.51 Z M 49.21,26.53 V 27.64 A 8.62,8.62 0 0,1 49.17,28.68 C 49.16,28.82 49.14,28.91 49.05,28.91 H 48.75 C 48.65,28.91 48.5,28.91 48.5,28.96 C 48.5,29 48.57,29.01 48.66,29.01 H 51.55 A 10.81,10.81 0 0,1 51.81,29.01 A 0.17,0.17 0 0,0 51.91,28.89 C 51.97,28.7 52.01,28.29 52,28.1 C 52,28.04 51.98,28.01 51.94,28.01 A 0.07,0.07 0 0,0 51.87,28.09 C 51.85,28.35 51.74,28.71 51.5,28.71 H 50.22 C 50,28.71 49.98,28.43 50,28.31 V 27.07 C 50,27.01 50.06,27.01 50.06,27.01 H 51 C 51.2,27.03 51.4,27.07 51.4,27.29 V 27.3 C 51.4,27.4 51.4,27.48 51.46,27.48 C 51.51,27.48 51.51,27.42 51.51,27.35 V 26.5 C 51.51,26.46 51.51,26.45 51.48,26.46 C 51.46,26.46 51.43,26.5 51.4,26.58 A 0.18,0.18 0 0,1 51.26,26.69 H 50.05 C 50.01,26.69 50.01,26.68 50.01,26.64 V 25.34 C 50.01,25.29 50.03,25.29 50.05,25.29 H 51.31 C 51.56,25.29 51.71,25.36 51.76,25.47 C 51.84,25.6 51.86,25.74 51.88,25.84 C 51.9,25.94 51.91,25.99 51.94,25.99 C 52.01,25.99 52.01,25.8 52.01,25.73 C 52.01,25.5 51.99,25.38 51.98,25.29 V 25.26 C 51.94,25.04 51.8,25 51.77,24.99 H 48.66 C 48.56,24.99 48.51,24.99 48.51,25.05 C 48.51,25.09 48.54,25.09 48.6,25.09 H 48.62 C 48.81,25.08 49.21,25.14 49.21,25.42 V 26.52 Z"/>
</svg>
