<?xml version="1.0" encoding="UTF-8"?>
<!-- generated by Finnhub -->
<svg viewBox="0 0 55.5 55.5" xmlns="http://www.w3.org/2000/svg">
<path d="M 0,0 H 55.5 V 55.5 H 0 Z" fill="rgb(239, 242, 248)"/>
<path d="M 23.529999999999998,34.565 C 22.72,34.33 22.59,33.31 22.52,32.66 L 21.25,21.49 C 21.21,21.15 21.15,21 21.02,21 S 20.82,21.13 20.73,21.3 L 15.17,32.7 L 9.37,21.27 C 9.27,21.07 9.2,21 9.09,21 C 8.97,21 8.89,21.13 8.88,21.33 L 7.52,33.17 L 7.51,33.23 C 7.44,33.9 7.36,34.57 6.76,34.67 C 6.47,34.73 6.34,34.73 6.19,34.73 C 6.09,34.73 6,34.76 6,34.82 C 6,34.94 6.13,35 6.32,35 H 9.67 C 9.9,35 10.02,34.95 10.02,34.82 C 10.02,34.76 9.94,34.72 9.86,34.72 C 9.75,34.72 9.46,34.71 9.15,34.64 A 0.59,0.59 0 0,1 8.65,34.07 C 8.65,33.77 8.65,33.44 8.67,33.15 L 9.43,24.72 H 9.5 C 9.71,25.22 11.83,29.57 12,29.9 A 310.94,310.94 0 0,0 14.4,34.45 C 14.62,34.85 14.7,35 14.8,35 C 14.94,35 15,34.87 15.22,34.43 L 15.43,33.98 L 20.07,24.54 H 20.13 L 21.03,33.97 C 21.08,34.29 21.06,34.6 20.96,34.62 C 20.86,34.64 20.83,34.67 20.83,34.75 C 20.83,34.84 20.93,34.96 21.36,35 H 27.91 C 28.21,35 28.33,34.96 28.33,34.86 S 28.23,34.75 28.13,34.75 C 27.91,34.75 27.63,34.75 27.4,34.67 C 27.21,34.58 27.16,34.4 27.16,34.25 C 27.16,34.09 27.23,33.84 27.33,33.56 C 27.49,33.04 27.99,31.72 28.61,30.17 C 29.51,29.91 30.55,29.77 31.76,29.8 C 32.48,29.82 33.16,29.76 33.8,29.66 L 35.02,32.78 V 32.81 C 35.31,33.51 35.52,34.06 35.52,34.29 C 35.52,34.42 35.49,34.56 35.28,34.65 C 35.11,34.73 34.77,34.75 34.56,34.75 C 34.43,34.75 34.37,34.78 34.37,34.87 C 34.37,34.97 34.54,35 34.88,35 H 38.86 L 39.14,34.99 L 39.29,35 H 43.44 C 43.64,35 43.74,34.94 43.74,34.85 C 43.74,34.8 43.7,34.75 43.59,34.75 C 43.42,34.75 43,34.7 42.74,34.67 C 42.17,34.59 42.05,34.19 41.99,33.65 L 42,29.63 V 22.02 C 42,21.83 42.07,21.66 42.19,21.62 C 43.19,21.18 44.77,21.79 45.46,22.48 C 46.46,23.48 46.52,24.72 46.52,25.33 C 46.52,27.03 45.08,28.35 43.25,28.35 C 42.85,28.35 42.74,28.37 42.74,28.52 C 42.74,28.62 42.84,28.65 42.94,28.65 C 43.04,28.67 43.24,28.67 43.34,28.67 C 46.04,28.67 48,26.89 48,24.26 C 48,23.28 47.47,22.44 47.05,22.06 C 46.75,21.78 45.9,21 43.53,21 H 39 C 38.8,21 38.7,21.04 38.7,21.15 C 38.7,21.22 38.78,21.25 38.85,21.25 C 39.02,21.25 39.35,21.28 39.5,21.31 C 40,21.41 40,21.63 40,22.03 V 22.37 C 40.02,22.71 40.02,23.02 40.01,23.74 V 25.62 C 39.04,26.34 37.37,27.3 34.85,27.82 L 32.48,22.12 L 32.44,22.03 C 32.11,21.23 32.02,21 31.8,21 C 31.65,21 31.57,21.17 31.31,21.72 L 31.01,22.38 C 30.59,23.22 29.82,24.98 28.78,27.38 L 28.56,27.89 L 28.01,29.15 A 9.48,9.48 0 0,0 23.59,34.6 L 23.54,34.58 Z M 23.61,34.6 C 24.01,34.71 24.37,34.74 24.6,34.74 C 24.79,34.74 25.1,34.7 25.4,34.53 C 25.64,34.36 25.93,34.05 26.44,32.82 C 26.55,32.53 26.91,31.71 27.37,30.64 A 7.6,7.6 0 0,0 23.61,34.6 Z M 29.21,28.64 C 29.97,28.39 30.81,28.24 31.76,28.2 C 32.26,28.18 32.73,28.14 33.18,28.1 L 31.38,23.47 C 30.86,24.63 30.01,26.67 29.22,28.64 Z M 35.44,29.24 L 37.12,33.27 C 37.54,34.29 37.82,34.49 38.48,34.67 A 2.78,2.78 0 0,0 39.7,34.67 C 40.02,34.6 40.01,34.3 40,33.89 V 26.09 A 10.9,10.9 0 0,1 35.44,29.24 Z" fill="rgb(224, 6, 21)" fill-rule="evenodd"/>
</svg>
