<?xml version="1.0" encoding="UTF-8"?>
<!-- generated by Finnhub -->
<svg viewBox="0 0 55.5 55.5" xmlns="http://www.w3.org/2000/svg">
<path d="M 0,0 H 55.5 V 55.5 H 0 Z" fill="rgb(239, 242, 248)"/>
<path d="M 29.509999999999998,43.985 A 16.07,16.07 0 0,0 43.93,26.56 C 39.03,23.64 30.33,36.9 29.52,44 Z M 24.18,43.65 C 24.67,40.32 26.19,36.13 29.68,31.45 C 36.03,22.92 41.14,22.7 43.45,23.87 C 43.25,23.14 43.01,22.43 42.71,21.75 C 34.49,15.79 21.65,31.81 19.31,41.62 C 20.79,42.55 22.43,43.24 24.18,43.65 Z M 40.75,18.38 A 16.17,16.17 0 0,0 38.81,16.25 C 24.84,12.07 15.79,23.72 12.21,31.71 C 12.62,33.51 13.35,35.19 14.32,36.7 A 26.94,26.94 0 0,1 22.89,23.53 C 31.49,16.13 38.04,16.86 40.75,18.38 Z M 12,25.38 C 17.34,13.78 28.36,12.4 34.2,13.28 A 16.1,16.1 0 0,0 12,25.38 Z" fill="rgb(1, 132, 60)"/>
</svg>
