<?xml version="1.0" encoding="UTF-8"?>
<!-- generated by Finnhub -->
<svg viewBox="0 0 55.5 55.5" xmlns="http://www.w3.org/2000/svg">
<path d="M 0,0 H 55.5 V 55.5 H 0 Z" fill="rgb(254, 201, 210)"/>
<path d="M 26.99,13.485 L 28,6 L 29,13.5 H 27 Z M 26,13.5 L 24,14 L 23,7.5 L 26,13.5 Z M 30,13.5 L 32,14 L 33,7.5 L 30,13.5 Z M 26,16 A 1,1 0 1,1 24,16 A 1,1 0 0,1 26,16 Z M 28,17 A 1,1 0 1,0 28,15 A 1,1 0 0,0 28,17 Z M 31,17 A 1,1 0 1,0 31,15 A 1,1 0 0,0 31,17 Z M 28,41 A 9,9 0 1,0 28,23 A 9,9 0 0,0 28,41 Z M 28,46 A 14,14 0 1,0 28,18 A 14,14 0 0,0 28,46 Z" fill="rgb(40, 37, 31)" fill-rule="evenodd"/>
</svg>
