<?xml version="1.0" encoding="UTF-8"?>
<!-- generated by Finnhub -->
<svg viewBox="0 0 55.5 55.5" xmlns="http://www.w3.org/2000/svg">
<path d="M 0,0 H 55.5 V 55.5 H 0 Z" fill="rgb(1, 126, 188)"/>
<path d="M 11.99,23.405 V 24 H 14 V 22 L 12,23.42 Z M 43,33 H 45 V 22 H 43 V 33 Z M 4,27 L 6,26 C 6,23.86 5.78,24 9,24 L 11,23.28 C 11,22 9.2,22 7,22 H 4 V 27 Z M 9,25 C 9,27.67 9.4,27.44 6,27.44 L 4,29 V 33 H 6 V 29 H 8.3 C 10.12,29 11,28.66 11,27.67 V 24 L 9,25 Z M 17,25.52 V 25 H 15 V 33 H 17 V 28 S 17,27 18,27 S 19,28 19,28 V 33 H 21 V 29.87 C 21,27.45 20.99,26.49 20.39,25.71 C 19.79,24.93 17.89,24.66 17,25.51 Z M 24,25.53 V 25 H 22 V 33 H 24 V 28 S 24,27 25,27 S 26,28 26,28 V 33 H 28 V 29.88 C 28,27.46 27.99,26.5 27.39,25.72 C 26.79,24.94 24.89,24.67 24,25.52 Z M 32.01,25 C 30.08,25 29.01,26.28 29.01,27 V 27.65 H 31 V 27 C 31.3,26.01 33,26.3 33,27 C 33,27.89 32.77,27.83 30.98,28.42 C 29.32,29.12 29,30.02 29,31 C 29,31.78 29.1,32.16 29.48,32.56 C 29.8,32.9 30.37,33 31,33 C 32.02,33 32.69,32.51 33,32.38 V 33 H 35 V 29.62 C 35,27 35.15,25 32.01,25 Z M 33,30.81 C 33,31.51 32.29,31.55 32.29,31.55 C 31.85,31.55 31,31.55 31,30.81 V 30.19 C 31,29.52 32.29,29 33,29 V 30.81 Z M 36,29 C 36,32.02 36.73,33 39,33 S 42,32.06 42,30 H 40 C 40,30.9 39.87,31.61 39,31.61 C 38,31.61 38.01,30.74 38,29.01 C 37.99,27.26 38.15,26.63 39,26.63 C 39.62,26.63 40,26.95 40,28 H 42 C 42,26.01 41.16,25 39,25 C 36.34,25 36,26.63 36,29 Z M 46,28.95 C 46,31.47 46.35,33 49.35,33 C 51.09,32.91 51.71,31.53 52,30 H 50.13 C 50.13,30.84 50.01,31.52 49,31.52 C 47.99,31.52 48,30.42 48,30.42 V 29 H 52 C 52,26.9 51.74,25 49,25 C 46.44,25 46,26.87 46,28.95 Z M 49,26.38 C 50,26.37 50,27.08 50,28 H 48 C 48,27.11 48,26.4 49,26.38 Z M 12,33 H 14 V 25 H 12 V 33 Z" fill="rgb(254, 254, 253)"/>
</svg>
