<?xml version="1.0" encoding="UTF-8"?>
<!-- generated by Finnhub -->
<svg viewBox="0 0 55.5 55.5" xmlns="http://www.w3.org/2000/svg">
<path d="M 0,0 H 55.5 V 55.5 H 0 Z" fill="rgb(239, 242, 248)"/>
<path d="M 29.439999999999998,24.055 A 3.6,3.6 0 0,1 30.68,24.62 A 0.05,0.05 0 0,1 30.67,24.68 L 30.64,24.69 A 3.4,3.4 0 0,1 28.24,24.29 C 28.11,24.22 27.89,24.23 27.74,24.31 C 27.01,24.73 26.22,24.86 25.37,24.69 C 25.29,24.67 25.29,24.64 25.35,24.59 A 3.28,3.28 0 0,1 26.59,24.06 A 0.06,0.06 0 0,0 26.55,23.97 C 25.6,23.93 24.51,23.21 23.85,22.57 A 0.03,0.03 0 0,1 23.85,22.53 H 23.86 A 5.2,5.2 0 0,1 26.75,23.19 V 23.17 A 6.6,6.6 0 0,1 24.67,19.5 C 24.67,19.46 24.67,19.45 24.71,19.47 A 6.4,6.4 0 0,1 27.56,22.82 C 27.61,22.87 27.62,22.85 27.6,22.76 A 7.16,7.16 0 0,1 27.98,18.02 C 28,17.99 28.01,17.99 28.02,18.02 C 28.72,19.57 28.84,21.18 28.39,22.82 C 28.38,22.85 28.39,22.87 28.39,22.89 C 28.42,22.92 28.44,22.92 28.45,22.88 A 6.61,6.61 0 0,1 31.37,19.44 A 6.73,6.73 0 0,1 29.28,23.18 A 0.03,0.03 0 0,0 29.31,23.18 C 30.17,22.7 31.11,22.48 32.11,22.52 C 32.16,22.52 32.17,22.55 32.13,22.59 A 5.12,5.12 0 0,1 29.45,24.01 C 29.35,24.03 29.35,24.05 29.45,24.07 Z" fill="rgb(1, 121, 10)"/>
<path d="M 16.99,32.985 H 16.86 L 13.57,27.03 V 27 H 13.54 L 13.53,27.01 V 32.92 C 13.53,32.98 13.5,33 13.43,33 H 13.09 C 13.03,33 13,32.98 13,32.92 V 25.04 L 13.01,25.01 H 13.06 L 13.08,25.02 L 16.38,31.02 L 16.4,31.03 H 16.43 L 16.44,31.01 V 25.09 C 16.44,25.04 16.47,25 16.53,25 H 16.9 C 16.97,25 17,25.04 17,25.1 V 33 Z M 4,32.95 V 25.03 C 4.69,25.01 5.57,24.93 6.16,25.15 C 8.23,25.95 8.23,29.6 6.2,30.45 C 5.73,30.65 5.17,30.57 4.63,30.58 A 0.1,0.1 0 0,0 4.56,30.61 A 0.1,0.1 0 0,0 4.53,30.67 V 32.89 C 4.53,32.93 4.51,32.96 4.46,32.98 A 0.76,0.76 0 0,1 4,32.95 Z M 4.52,25.63 L 4.53,29.96 A 0.1,0.1 0 0,0 4.56,30.04 A 0.11,0.11 0 0,0 4.64,30.07 H 5.36 C 5.84,30.07 6.29,29.85 6.63,29.47 C 6.97,29.1 7.15,28.59 7.15,28.05 V 27.53 A 2.22,2.22 0 0,0 6.62,26.11 A 1.8,1.8 0 0,0 6.03,25.67 C 5.81,25.57 5.58,25.52 5.34,25.52 H 4.63 A 0.11,0.11 0 0,0 4.55,25.56 A 0.1,0.1 0 0,0 4.52,25.63 Z M 10.45,25 H 10.08 A 0.08,0.08 0 0,0 10,25.08 V 32.92 C 10,32.96 10.04,33 10.08,33 H 10.45 C 10.49,33 10.53,32.96 10.53,32.92 V 25.08 A 0.08,0.08 0 0,0 10.45,25 Z M 20.31,32.48 H 23.3 L 23.34,32.5 C 23.36,32.51 23.36,32.53 23.36,32.55 V 32.94 C 23.36,32.96 23.36,32.97 23.34,32.99 A 0.07,0.07 0 0,1 23.3,33 H 19.75 C 19.73,33 19.71,33 19.7,32.98 A 0.06,0.06 0 0,1 19.68,32.94 V 25.06 C 19.68,25.05 19.68,25.03 19.7,25.02 A 0.07,0.07 0 0,1 19.75,25 H 23.3 C 23.32,25 23.33,25 23.34,25.02 C 23.36,25.03 23.36,25.05 23.36,25.06 V 25.46 C 23.36,25.47 23.36,25.49 23.34,25.5 A 0.07,0.07 0 0,1 23.3,25.52 H 20.3 C 20.29,25.52 20.27,25.52 20.26,25.54 A 0.06,0.06 0 0,0 20.24,25.58 V 29.94 C 20.24,29.96 20.24,29.98 20.26,29.99 L 20.3,30 H 23.29 C 23.31,30 23.32,30.01 23.33,30.03 C 23.35,30.03 23.35,30.05 23.35,30.07 V 30.47 C 23.35,30.48 23.35,30.5 23.33,30.51 A 0.07,0.07 0 0,1 23.29,30.53 H 20.3 C 20.29,30.53 20.27,30.53 20.26,30.55 A 0.06,0.06 0 0,0 20.24,30.59 V 32.42 C 20.24,32.44 20.24,32.45 20.26,32.47 L 20.3,32.48 Z M 49.06,32.48 H 51.93 L 51.98,32.5 L 52,32.55 V 32.94 C 52,32.96 52,32.97 51.98,32.99 A 0.07,0.07 0 0,1 51.93,33 H 48.5 C 48.49,33 48.47,33 48.46,32.98 A 0.06,0.06 0 0,1 48.44,32.94 V 25.06 C 48.44,25.05 48.44,25.03 48.46,25.02 A 0.07,0.07 0 0,1 48.5,25 H 51.94 C 51.96,25 51.98,25 51.99,25.02 L 52.01,25.06 V 25.46 C 52.01,25.47 52.01,25.49 51.99,25.5 A 0.07,0.07 0 0,1 51.94,25.52 H 49.07 C 49.05,25.52 49.04,25.52 49.03,25.54 A 0.06,0.06 0 0,0 49.01,25.58 V 29.94 C 49.01,29.96 49.01,29.98 49.03,29.99 L 49.07,30 H 51.94 C 51.96,30 51.98,30.01 51.99,30.03 L 52.01,30.07 V 30.47 C 52.01,30.48 52.01,30.5 51.99,30.51 A 0.07,0.07 0 0,1 51.94,30.53 H 49.07 C 49.05,30.53 49.04,30.53 49.03,30.55 A 0.06,0.06 0 0,0 49.01,30.59 V 32.42 C 49.01,32.44 49.01,32.45 49.03,32.47 L 49.07,32.48 Z M 35.37,25.5 C 36.83,26.67 36.66,29.78 34.76,30.48 C 34.31,30.64 33.77,30.58 33.26,30.58 A 0.1,0.1 0 0,0 33.2,30.62 A 0.1,0.1 0 0,0 33.17,30.68 V 32.93 C 33.17,32.98 33.14,33 33.1,33 H 32.7 C 32.64,33 32.6,32.97 32.6,32.9 V 25.1 C 32.6,25.08 32.6,25.06 32.62,25.05 A 0.07,0.07 0 0,1 32.67,25.03 C 33.6,25.02 34.56,24.84 35.37,25.5 Z M 33.15,25.67 V 29.94 C 33.15,29.97 33.17,30.01 33.2,30.04 C 33.23,30.06 33.26,30.07 33.3,30.07 H 33.98 C 34.22,30.07 34.46,30.02 34.68,29.91 C 34.89,29.81 35.09,29.66 35.26,29.47 C 35.43,29.27 35.56,29.05 35.66,28.8 C 35.74,28.55 35.79,28.29 35.79,28.02 V 27.58 C 35.79,27.04 35.59,26.51 35.25,26.13 A 1.7,1.7 0 0,0 33.98,25.53 H 33.28 A 0.14,0.14 0 0,0 33.19,25.57 A 0.14,0.14 0 0,0 33.15,25.67 Z M 39.6,25 C 40.52,25.02 41.3,25.82 41.54,26.63 C 41.96,28 41.7,29.86 40.2,30.46 C 39.74,30.64 39.19,30.56 38.66,30.58 A 0.1,0.1 0 0,0 38.59,30.61 A 0.1,0.1 0 0,0 38.57,30.68 V 32.93 C 38.57,32.98 38.54,33 38.5,33 H 38.1 C 38.04,33 38,32.97 38,32.9 V 25.07 A 0.07,0.07 0 0,1 38.07,25 H 39.6 Z M 38.56,25.6 L 38.57,29.98 C 38.57,30 38.58,30.03 38.6,30.05 A 0.1,0.1 0 0,0 38.67,30.07 H 39.37 C 39.61,30.07 39.84,30.02 40.07,29.92 C 40.28,29.82 40.48,29.66 40.65,29.47 C 40.82,29.27 40.95,29.05 41.05,28.79 C 41.13,28.54 41.18,28.27 41.18,28 V 27.57 C 41.18,27.02 40.98,26.5 40.64,26.11 A 1.7,1.7 0 0,0 39.36,25.51 H 38.66 A 0.1,0.1 0 0,0 38.59,25.54 A 0.1,0.1 0 0,0 38.56,25.61 Z M 43.6,32.48 H 46.6 C 46.63,32.48 46.65,32.48 46.66,32.5 L 46.68,32.55 V 32.93 C 46.68,32.95 46.68,32.97 46.66,32.98 A 0.07,0.07 0 0,1 46.61,33 H 43.07 C 43.05,33 43.03,33 43.02,32.98 A 0.07,0.07 0 0,1 43,32.93 V 25.07 C 43,25.05 43,25.03 43.02,25.02 A 0.07,0.07 0 0,1 43.07,25 H 43.46 C 43.48,25 43.5,25 43.51,25.02 L 43.53,25.07 V 32.41 C 43.53,32.43 43.53,32.45 43.55,32.46 L 43.6,32.48 Z M 29.2,25.23 A 0.2,0.2 0 0,0 29.12,25.19 L 28.52,25.01 A 0.23,0.23 0 0,0 28.38,25.01 A 0.22,0.22 0 0,0 28.27,25.11 A 0.2,0.2 0 0,0 28.3,25.36 L 28.84,25.92 L 28.88,25.95 A 0.1,0.1 0 0,0 28.96,25.94 L 28.99,25.91 L 29.24,25.47 A 0.19,0.19 0 0,0 29.2,25.23 Z M 27.13,25.93 L 27.18,25.91 L 27.73,25.33 A 0.12,0.12 0 0,0 27.76,25.21 C 27.73,25.11 27.67,25.04 27.58,25.01 C 27.52,25 27.43,25.01 27.3,25.06 C 27.16,25.11 27.02,25.16 26.89,25.18 A 0.2,0.2 0 0,0 26.75,25.29 A 0.19,0.19 0 0,0 26.75,25.46 L 26.99,25.88 C 26.99,25.9 27.01,25.91 27.02,25.92 A 0.12,0.12 0 0,0 27.13,25.94 Z M 28.68,26.1 L 28.06,25.5 A 0.1,0.1 0 0,0 27.93,25.5 L 27.32,26.12 A 0.09,0.09 0 0,0 27.32,26.24 L 27.94,26.84 C 27.97,26.87 28.04,26.87 28.07,26.84 L 28.68,26.23 A 0.09,0.09 0 0,0 28.68,26.1 Z M 26.47,25.67 C 25.92,25.87 25.84,26.41 26.15,26.86 C 26.18,26.89 26.21,26.9 26.25,26.86 L 26.83,26.24 C 26.87,26.2 26.88,26.15 26.84,26.1 L 26.58,25.7 A 0.1,0.1 0 0,0 26.47,25.67 Z M 29.65,25.71 C 30.08,26.01 30.15,26.39 29.85,26.85 A 0.06,0.06 0 0,1 29.8,26.88 A 0.06,0.06 0 0,1 29.75,26.86 L 29.15,26.23 C 29.11,26.19 29.11,26.15 29.15,26.11 L 29.38,25.76 C 29.45,25.66 29.55,25.64 29.65,25.71 Z M 29.65,27.14 L 29.64,27.09 L 28.96,26.42 A 0.07,0.07 0 0,0 28.86,26.42 L 28.26,26.99 A 0.31,0.31 0 0,0 28.23,27.04 A 0.21,0.21 0 0,0 28.2,27.09 A 0.1,0.1 0 0,0 28.2,27.13 V 27.17 L 28.86,27.81 L 28.9,27.83 H 28.94 L 29,27.8 A 0.32,0.32 0 0,0 29.05,27.76 L 29.64,27.19 A 0.07,0.07 0 0,0 29.66,27.14 Z M 27.77,27.04 L 27.15,26.44 A 0.1,0.1 0 0,0 27.02,26.44 L 26.37,27.08 A 0.09,0.09 0 0,0 26.37,27.2 L 26.99,27.8 C 27.03,27.84 27.09,27.84 27.12,27.8 L 27.77,27.16 A 0.09,0.09 0 0,0 27.77,27.03 Z M 30.64,27.64 C 30.7,27.26 30.6,26.99 30.34,26.84 A 0.23,0.23 0 0,0 30.04,26.91 A 0.21,0.21 0 0,0 30.08,27.2 A 3.04,3.04 0 0,1 30.56,27.7 H 30.59 L 30.62,27.68 L 30.64,27.65 Z M 25.63,26.83 C 25.72,26.74 25.8,26.75 25.86,26.86 L 25.96,27.04 C 25.98,27.08 25.97,27.12 25.94,27.15 L 25.46,27.67 A 0.07,0.07 0 0,1 25.39,27.69 A 0.07,0.07 0 0,1 25.36,27.67 A 0.06,0.06 0 0,1 25.34,27.64 A 0.93,0.93 0 0,1 25.63,26.83 Z M 27.25,28.03 L 27.97,27.33 A 0.04,0.04 0 0,1 28.03,27.33 L 28.75,28.03 V 28.09 L 28.02,28.79 A 0.04,0.04 0 0,1 27.97,28.79 L 27.25,28.09 A 0.03,0.03 0 0,1 27.25,28.03 Z M 26.18,28.75 A 0.04,0.04 0 0,1 26.12,28.75 L 25.55,28.18 A 0.18,0.18 0 0,1 25.5,28.03 C 25.5,27.97 25.54,27.91 25.59,27.86 L 25.97,27.5 A 0.3,0.3 0 0,1 26.14,27.42 A 0.2,0.2 0 0,1 26.3,27.47 L 26.87,28.04 A 0.04,0.04 0 0,1 26.87,28.09 L 26.17,28.75 Z M 30.49,27.98 L 29.92,27.38 A 0.08,0.08 0 0,0 29.8,27.38 L 29.17,28.01 A 0.08,0.08 0 0,0 29.17,28.12 L 29.8,28.75 A 0.08,0.08 0 0,0 29.86,28.77 H 29.9 L 29.92,28.74 L 30.49,28.09 A 0.08,0.08 0 0,0 30.49,27.99 Z M 30.08,28.94 L 30.64,28.33 C 30.67,28.29 30.7,28.29 30.72,28.33 A 1.52,1.52 0 0,1 30.73,29.69 A 0.05,0.05 0 0,1 30.67,29.69 L 30.07,29.02 V 28.94 Z M 25.28,28.33 L 25.27,28.35 C 25.07,28.79 25.06,29.23 25.24,29.68 C 25.26,29.72 25.29,29.73 25.32,29.69 L 25.91,29.03 A 0.07,0.07 0 0,0 25.91,28.93 L 25.37,28.33 A 0.06,0.06 0 0,0 25.29,28.33 Z M 27.03,28.29 L 26.34,28.96 A 0.03,0.03 0 0,0 26.34,29.01 L 27.06,29.71 C 27.08,29.73 27.1,29.73 27.11,29.71 L 27.81,29.04 A 0.03,0.03 0 0,0 27.81,28.99 L 27.08,28.29 A 0.04,0.04 0 0,0 27.03,28.29 Z M 28.19,28.99 L 28.91,28.29 A 0.04,0.04 0 0,1 28.96,28.29 L 29.66,28.97 V 29 L 28.93,29.7 A 0.04,0.04 0 0,1 28.88,29.7 L 28.18,29.03 A 0.03,0.03 0 0,1 28.18,28.98 Z M 25.46,30.02 C 25.58,29.75 25.86,29.42 26.11,29.22 C 26.14,29.2 26.18,29.2 26.21,29.24 L 26.84,29.88 A 0.08,0.08 0 0,1 26.84,30 L 26.14,30.73 C 26.1,30.78 26.05,30.78 26.01,30.73 L 25.48,30.15 A 0.1,0.1 0 0,1 25.46,30.02 Z M 30.55,29.95 L 29.95,29.25 A 0.12,0.12 0 0,0 29.86,29.21 A 0.13,0.13 0 0,0 29.76,29.25 L 29.17,29.85 A 0.12,0.12 0 0,0 29.17,30.02 L 29.83,30.71 A 0.12,0.12 0 0,0 29.97,30.73 L 30.01,30.7 L 30.55,30.1 A 0.12,0.12 0 0,0 30.55,29.95 Z M 28.71,29.91 L 28.03,29.25 A 0.04,0.04 0 0,0 27.97,29.25 L 27.28,29.91 A 0.04,0.04 0 0,0 27.28,29.97 L 27.97,30.64 C 27.98,30.66 28.01,30.66 28.03,30.64 L 28.71,29.97 A 0.04,0.04 0 0,0 28.71,29.91 Z M 28.19,30.84 L 28.89,30.17 A 0.04,0.04 0 0,1 28.94,30.17 L 29.74,30.96 V 31 L 29.04,31.67 A 0.04,0.04 0 0,1 28.99,31.67 L 28.19,30.89 A 0.03,0.03 0 0,1 28.19,30.84 Z M 27.78,30.81 L 27.14,30.2 A 0.08,0.08 0 0,0 27.03,30.2 L 26.29,30.93 A 0.08,0.08 0 0,0 26.29,31.03 L 26.93,31.65 C 26.96,31.68 27.01,31.68 27.04,31.65 L 27.78,30.92 A 0.08,0.08 0 0,0 27.78,30.81 Z M 25.28,30.38 L 25.27,30.4 A 0.97,0.97 0 0,0 25.61,31.5 A 0.07,0.07 0 0,0 25.67,31.52 A 0.07,0.07 0 0,0 25.71,31.49 L 25.91,31.08 A 0.1,0.1 0 0,0 25.89,30.97 L 25.34,30.38 A 0.04,0.04 0 0,0 25.28,30.38 Z M 30.11,30.96 L 30.64,30.4 C 30.68,30.35 30.72,30.36 30.74,30.43 C 30.86,30.88 30.74,31.24 30.37,31.52 C 30.33,31.55 30.3,31.54 30.27,31.49 L 30.09,31.06 A 0.09,0.09 0 0,1 30.11,30.96 Z M 27.16,31.89 L 27.97,31.09 A 0.04,0.04 0 0,1 28.02,31.09 L 28.84,31.89 V 31.94 L 28.02,32.73 A 0.04,0.04 0 0,1 27.97,32.73 L 27.17,31.93 A 0.03,0.03 0 0,1 27.17,31.89 Z M 29.28,31.82 L 29.81,31.27 C 29.85,31.23 29.88,31.24 29.91,31.28 C 30.18,31.73 30.13,32.13 29.77,32.5 C 29.74,32.54 29.71,32.53 29.67,32.5 L 29.27,31.97 A 0.11,0.11 0 0,1 29.25,31.89 C 29.25,31.86 29.26,31.84 29.28,31.82 Z M 26.75,31.82 L 26.15,31.26 A 0.04,0.04 0 0,0 26.09,31.26 C 25.82,31.72 25.86,32.13 26.22,32.5 C 26.25,32.54 26.28,32.53 26.32,32.5 L 26.76,31.93 A 0.07,0.07 0 0,0 26.77,31.88 C 26.77,31.86 26.77,31.84 26.75,31.83 Z M 26.75,32.99 A 0.25,0.25 0 0,1 26.52,32.86 A 0.24,0.24 0 0,1 26.55,32.6 L 26.92,32.15 C 26.95,32.11 26.99,32.11 27.02,32.15 L 27.73,32.87 A 0.06,0.06 0 0,1 27.75,32.94 A 0.06,0.06 0 0,1 27.69,32.98 L 26.75,32.99 Z M 28.52,32.99 C 28.8,33 29.04,33.02 29.32,32.94 C 29.48,32.89 29.52,32.79 29.44,32.64 C 29.34,32.45 29.21,32.29 29.05,32.14 C 29.02,32.11 28.99,32.12 28.97,32.14 L 28.27,32.87 A 0.06,0.06 0 0,0 28.27,32.95 L 28.3,32.97 L 28.52,32.98 Z" fill="rgb(217, 172, 67)"/>
</svg>
