<?xml version="1.0" encoding="UTF-8"?>
<!-- generated by Finnhub -->
<svg viewBox="0 0 55.5 55.5" xmlns="http://www.w3.org/2000/svg">
<path d="M 0,0 H 55.5 V 55.5 H 0 Z" fill="rgb(239, 242, 248)"/>
<path d="M 14.790000000000001,24.705 A 0.8,0.8 0 0,0 15.58,23.91 C 15.58,23.26 15.13,22 15.13,22 S 14,23.14 14,23.9 C 14,24.36 14.36,24.72 14.8,24.72 Z M 5.1,24 L 4,30 H 5.73 L 6.14,28 H 7.3 C 8.54,28 9.7,27.07 9.7,25.54 C 9.7,24.32 8.73,24 8.25,24 H 5.1 Z M 6.58,25.34 L 6.34,26.72 H 7.14 C 7.44,26.72 8.04,26.44 8.04,25.92 C 8.04,25.51 7.66,25.36 7.47,25.34 H 6.57 Z M 11.66,26 H 10.26 L 9.46,30 H 10.98 L 11.27,28.33 C 11.48,27.78 11.97,27.57 12.23,27.53 H 12.79 L 13.11,26 C 12.27,26 11.81,26.24 11.54,26.72 L 11.66,26 Z M 12.93,30 H 14.46 L 15.24,26 H 13.84 L 12.93,30 Z M 15.28,30 H 16.82 L 17.22,27.84 C 17.41,27.54 17.72,27.18 18.06,27.18 C 18.46,27.18 18.51,27.56 18.48,27.76 L 18.01,30 H 19.54 A 66.35,66.35 0 0,0 19.98,27.65 C 20.17,27.41 20.42,27.18 20.68,27.18 C 21.08,27.18 21.13,27.56 21.11,27.76 L 20.6,30 H 22.15 C 22.22,29.64 22.41,28.7 22.55,27.84 C 22.73,26.74 22.63,26 21.52,26 A 2,2 0 0,0 19.99,26.8 C 19.91,26.3 19.62,26 18.91,26 C 18.21,26 17.7,26.41 17.41,26.76 L 17.55,26 H 16.17 L 15.28,30 Z M 27.72,28.34 H 24.66 C 24.66,28.63 24.82,29.14 25.33,29.14 C 25.73,29.14 25.96,28.9 26.03,28.78 H 27.5 C 27.25,29.36 26.36,30 25.17,30 C 23.98,30 23.14,29.43 23.14,28.53 S 24.05,26 25.9,26 C 27.76,26 27.82,27.28 27.82,27.6 C 27.82,27.87 27.76,28.2 27.72,28.34 Z M 26.36,27.57 H 24.93 A 0.78,0.78 0 0,1 25.74,26.89 C 26.33,26.89 26.4,27.34 26.36,27.57 Z M 27.98,30 L 29.2,24 H 33.08 L 32.91,24.75 H 29.65 L 29.36,26.35 H 32.42 L 32.24,27 H 29.24 L 28.82,29.33 H 32.1 L 31.94,30 H 27.98 Z M 34.3,26 H 33.73 L 32.89,30 H 33.56 L 34.04,27.4 C 34.36,27 34.86,26.54 35.39,26.54 C 36.09,26.54 36.11,27.11 36.02,27.4 L 35.34,30 H 36.02 L 36.54,27.83 C 36.82,26.65 36.52,26 35.65,26 C 35.05,26 34.48,26.38 34.18,26.65 L 34.3,26 Z M 39.98,28.69 H 40.6 A 2.12,2.12 0 0,1 38.54,30 C 36.91,30 37.15,28.26 37.29,27.83 C 37.42,27.39 38.09,26 39.54,26 C 41,26 41.14,27.33 40.79,28.2 H 37.84 C 37.78,28.62 37.86,29.46 38.74,29.46 C 39.6,29.46 39.93,28.95 39.98,28.69 Z M 38.05,27.67 H 40.24 C 40.32,27.28 40.29,26.51 39.44,26.51 C 38.58,26.51 38.16,27.28 38.05,27.67 Z M 42.75,26 H 42.07 L 41.25,30 H 41.93 L 42.43,27.56 C 43,26.66 43.63,26.62 43.89,26.71 L 43.99,26.01 C 43.44,25.91 42.91,26.38 42.59,26.79 L 42.75,26 Z M 43.46,30.74 H 44.18 C 44.15,30.97 44.27,31.41 44.98,31.41 C 45.85,31.41 46.18,30.71 46.38,29.99 L 46.5,29.43 C 46.19,29.7 45.68,30 45.1,30 C 44.13,30 43.82,29.4 43.82,28.69 C 43.82,27.98 44.34,26 46.01,26 A 1,1 0 0,1 47.03,26.7 L 47.17,26 H 47.79 L 46.97,30.17 C 46.89,30.77 46.35,31.99 44.9,32 C 43.73,32 43.45,31.16 43.46,30.74 Z M 46.89,27.47 C 46.79,27.07 46.55,26.57 46.01,26.57 C 45.16,26.57 44.49,27.58 44.49,28.69 C 44.49,28.96 44.65,29.49 45.29,29.49 C 45.91,29.49 46.47,28.8 46.71,28.4 L 46.89,27.47 Z M 48.37,26 H 49.12 L 49.48,29.5 L 51.2,26 H 52 L 49.01,31.42 C 48.91,31.62 48.54,32 47.99,32 H 47.57 L 47.71,31.24 A 0.6,0.6 0 0,0 48.13,31.42 C 48.33,31.42 48.75,30.77 48.94,30.44 L 48.37,26 Z" fill="rgb(16, 40, 141)" fill-rule="evenodd"/>
</svg>
