<?xml version="1.0" encoding="UTF-8"?>
<!-- generated by Finnhub -->
<svg viewBox="0 0 55.5 55.5" xmlns="http://www.w3.org/2000/svg">
<path d="M 0,0 H 55.5 V 55.5 H 0 Z" fill="rgb(239, 242, 248)"/>
<path d="M 15.99,20.044999999999998 V 19.73 C 16.18,19.49 16.43,19.31 16.76,19.18 C 16.92,19.12 17.22,19.04 17.66,18.94 A 7.45,7.45 0 0,1 22.91,19.65 L 22.93,19.64 A 0.04,0.04 0 0,0 22.93,19.59 A 12.2,12.2 0 0,0 18.86,15.09 C 18.73,15.01 18.66,14.86 18.66,14.64 C 18.65,14.29 18.83,14.07 19.2,14 A 7.53,7.53 0 0,1 25.04,15.15 H 25.07 A 0.05,0.05 0 0,0 25.08,15.09 A 13.2,13.2 0 0,0 22.8,11.05 C 22.64,10.85 22.56,10.65 22.66,10.4 C 22.78,10.11 22.99,9.98 23.29,10 A 7.63,7.63 0 0,1 28.03,12.09 L 28.08,12.07 A 7.54,7.54 0 0,1 32.76,10 C 33.16,9.97 33.46,10.3 33.42,10.69 C 33.42,10.8 33.32,10.97 33.14,11.19 A 12.8,12.8 0 0,0 30.91,15.36 A 0.03,0.03 0 0,0 30.94,15.36 A 7.55,7.55 0 0,1 37.04,14 C 37.37,14.06 37.64,14.28 37.62,14.63 C 37.62,14.85 37.54,15.01 37.39,15.11 A 12.44,12.44 0 0,0 33.42,19.39 L 33.43,19.41 A 0.04,0.04 0 0,0 33.48,19.42 A 7.52,7.52 0 0,1 39.25,19.12 C 39.55,19.22 39.94,19.34 39.99,19.72 C 40.05,20.17 39.85,20.31 39.47,20.48 C 37.77,21.26 36.32,22.38 35.12,23.84 A 8.31,8.31 0 0,0 33.97,25.96 L 34,26 C 35.74,27.57 36.04,30.21 36.01,32.43 C 35.99,34.04 35.99,35.86 36.01,37.88 C 36.04,41.35 34.53,44.91 30.84,45.83 C 30.36,45.95 29.72,46.01 28.94,46 C 27.64,45.99 26.89,45.98 26.67,45.99 A 5.36,5.36 0 0,1 25.14,45.81 C 21.86,44.94 20.07,42.17 20.01,38.68 V 31.63 C 20.01,29.37 20.43,27.5 22.04,26.01 A 0.08,0.08 0 0,0 22.06,25.92 A 8.29,8.29 0 0,0 20.23,23.1 A 12.31,12.31 0 0,0 16.35,20.45 A 0.68,0.68 0 0,1 16.01,20.06 Z M 24.7,11.53 C 24.69,11.55 24.7,11.58 24.71,11.6 A 12.07,12.07 0 0,1 26.62,16.42 C 26.64,16.52 26.68,16.6 26.75,16.67 A 13.28,13.28 0 0,1 28.11,18.39 A 0.06,0.06 0 0,0 28.18,18.37 A 12.46,12.46 0 0,1 29.42,16.77 V 16.72 C 28.6,14.28 27.17,12.37 24.72,11.52 H 24.71 A 0.02,0.02 0 0,0 24.7,11.52 Z M 31.35,11.51 A 6.77,6.77 0 0,0 28.85,13.03 L 28.86,13.08 A 6.92,6.92 0 0,1 29.8,14.57 A 0.06,0.06 0 0,0 29.87,14.57 L 29.89,14.54 A 12.54,12.54 0 0,1 31.38,11.52 H 31.35 Z M 26.15,22.19 H 26.17 A 0.02,0.02 0 0,0 26.19,22.19 A 21,21 0 0,1 27.41,19.57 A 0.1,0.1 0 0,0 27.4,19.52 C 25.84,17.04 23.9,15.21 20.94,15.04 L 20.91,15.05 L 20.9,15.07 V 15.12 A 11.01,11.01 0 0,1 24.6,20.66 C 24.61,20.73 24.65,20.79 24.7,20.83 L 26.16,22.19 Z M 35.37,15.07 L 35.35,15.06 A 7,7 0 0,0 30.15,17.77 A 16.43,16.43 0 0,0 27.88,21.31 A 65.4,65.4 0 0,0 27.04,23.26 L 27.05,23.29 L 27.74,24.1 L 27.78,24.13 C 27.95,24.17 28.09,24.17 28.23,24.13 A 0.22,0.22 0 0,0 28.34,24.05 A 17.5,17.5 0 0,1 31.62,20.59 A 0.42,0.42 0 0,0 31.76,20.38 A 11.05,11.05 0 0,1 35.38,15.1 V 15.07 Z M 29.82,24.19 A 6.78,6.78 0 0,1 32.94,25.19 L 32.97,25.18 L 32.98,25.15 A 10.96,10.96 0 0,1 37.73,20.02 A 0.04,0.04 0 0,0 37.73,19.97 H 37.71 C 36.11,19.76 34.61,20.08 33.21,20.94 A 14.23,14.23 0 0,0 29.79,24.16 V 24.18 H 29.82 Z M 26.17,24.19 H 26.19 L 26.2,24.17 A 0.04,0.04 0 0,0 26.2,24.12 A 14.06,14.06 0 0,0 22.8,21 A 6.66,6.66 0 0,0 18.32,20.08 A 0.04,0.04 0 0,0 18.34,20.12 A 10.84,10.84 0 0,1 23.08,25.22 A 0.07,0.07 0 0,0 23.14,25.2 A 6.7,6.7 0 0,1 26.17,24.2 Z M 25.58,25.45 L 25.54,25.46 A 0.08,0.08 0 0,0 25.55,25.59 L 27.04,26.42 A 0.07,0.07 0 0,0 27.12,26.41 L 27.14,26.38 L 27.62,25.48 A 0.08,0.08 0 0,0 27.59,25.38 C 27.58,25.36 27.56,25.36 27.55,25.36 L 25.58,25.45 Z M 31.18,29.82 A 0.05,0.05 0 0,0 31.23,29.83 A 0.05,0.05 0 0,0 31.27,29.8 L 32.84,26.67 V 26.62 A 5.77,5.77 0 0,0 29.01,25.39 A 0.12,0.12 0 0,0 28.97,25.45 L 28.12,27.14 V 27.18 A 22.53,22.53 0 0,1 31.19,29.82 Z M 26.39,27.44 L 24.02,26.13 A 0.1,0.1 0 0,0 23.94,26.13 C 22.77,26.78 22.28,27.75 21.71,29.03 A 0.1,0.1 0 0,0 21.71,29.1 A 0.1,0.1 0 0,0 21.75,29.15 C 22.7,29.59 23.21,30.09 24.05,30.63 A 0.1,0.1 0 0,0 24.19,30.61 A 25.06,25.06 0 0,0 26.44,27.55 A 0.1,0.1 0 0,0 26.42,27.47 A 0.1,0.1 0 0,0 26.39,27.44 Z M 34.24,34.01 L 34.94,33.14 A 0.35,0.35 0 0,0 34.99,32.96 C 34.99,31.17 35.2,28.99 34,27.53 L 33.78,27.52 A 0.06,0.06 0 0,0 33.73,27.52 L 33.71,27.55 A 28.04,28.04 0 0,1 32.11,30.76 C 32.11,30.78 32.11,30.8 32.14,30.82 C 33.11,31.52 33.47,33.02 34.12,34.01 A 0.07,0.07 0 0,0 34.18,34.04 L 34.21,34.03 L 34.24,34.01 Z M 28.27,33.93 A 26.88,26.88 0 0,0 30.57,30.92 C 30.57,30.9 30.55,30.89 30.54,30.87 A 23.74,23.74 0 0,0 27.46,28.23 L 27.44,28.24 L 27.42,28.26 A 22.86,22.86 0 0,1 25.15,31.36 A 0.04,0.04 0 0,0 25.17,31.39 A 23.63,23.63 0 0,1 28.23,33.95 A 0.06,0.06 0 0,0 28.27,33.93 Z M 21,33.67 C 21,33.69 21,33.71 21.02,33.72 A 0.1,0.1 0 0,0 21.06,33.76 C 21.08,33.77 21.1,33.78 21.12,33.77 A 0.1,0.1 0 0,0 21.17,33.75 L 23.23,31.66 A 0.1,0.1 0 0,0 23.21,31.49 L 21.22,30.39 C 21.15,30.35 21,30.42 21,30.5 V 33.67 Z M 31.36,31.89 A 23.8,23.8 0 0,1 29.07,34.84 L 29.08,34.87 A 22.6,22.6 0 0,1 31.44,37.87 A 0.06,0.06 0 0,0 31.49,37.85 C 32.31,37.03 32.66,36.15 33.38,35.2 A 0.1,0.1 0 0,0 33.38,35.1 C 32.66,33.93 32.31,32.86 31.47,31.88 A 0.06,0.06 0 0,0 31.42,31.86 H 31.39 L 31.36,31.89 Z M 21.58,35.1 C 22.71,35.83 23.33,36.6 24.23,37.4 L 24.27,37.42 C 24.29,37.42 24.31,37.42 24.33,37.4 A 24.08,24.08 0 0,0 27.36,34.84 A 0.05,0.05 0 0,0 27.35,34.8 A 24.34,24.34 0 0,0 24.31,32.28 L 24.28,32.3 C 23.34,33.27 22.7,34.17 21.58,35 A 0.06,0.06 0 0,0 21.55,35.05 A 0.06,0.06 0 0,0 21.58,35.1 Z M 28.18,35.75 A 25.29,25.29 0 0,1 25.19,38.31 V 38.32 A 23.18,23.18 0 0,1 27.52,40.95 A 0.1,0.1 0 0,0 27.59,40.93 A 23.63,23.63 0 0,0 30.52,38.73 L 30.51,38.68 A 24.75,24.75 0 0,0 28.22,35.73 A 0.06,0.06 0 0,0 28.18,35.75 Z M 34,36.35 C 33.37,37.18 33.04,38.03 32.14,38.91 A 0.08,0.08 0 0,0 32.13,39.01 A 33.23,33.23 0 0,1 33.87,42.44 A 0.07,0.07 0 0,0 33.97,42.44 C 34.99,41.09 35.04,39.68 34.98,37.91 A 0.5,0.5 0 0,0 34.94,37.71 L 34.12,36.37 A 0.07,0.07 0 0,0 34.07,36.33 A 0.07,0.07 0 0,0 34,36.36 Z M 21.02,39.3 A 0.1,0.1 0 0,0 21.07,39.39 A 0.1,0.1 0 0,0 21.17,39.39 L 23.17,38.23 A 0.1,0.1 0 0,0 23.22,38.15 A 0.1,0.1 0 0,0 23.18,38.06 L 21.16,36.39 C 21.09,36.34 21,36.39 21,36.47 L 21.02,39.3 Z M 21.54,40.7 C 21.9,41.73 22.1,42.6 22.9,43.32 A 0.11,0.11 0 0,0 23.02,43.34 L 26.43,41.66 A 0.05,0.05 0 0,0 26.46,41.63 A 0.06,0.06 0 0,0 26.46,41.58 A 26.47,26.47 0 0,0 24.16,39 H 24.13 C 23.21,39.6 22.62,40.14 21.57,40.63 A 0.07,0.07 0 0,0 21.54,40.71 Z M 28.24,42 A 21.18,21.18 0 0,1 29.89,44.74 A 5.95,5.95 0 0,0 32.99,43.42 V 43.38 L 31.26,39.84 A 0.07,0.07 0 0,0 31.18,39.8 L 31.15,39.82 A 25.7,25.7 0 0,1 28.25,42 Z M 24.18,44.12 L 24.17,44.14 V 44.17 H 24.18 C 24.99,44.57 25.85,44.78 26.74,44.8 A 103.15,103.15 0 0,0 28.52,44.8 L 28.54,44.79 A 0.06,0.06 0 0,0 28.54,44.73 L 27.27,42.67 A 0.07,0.07 0 0,0 27.24,42.64 H 27.19 L 24.19,44.12 Z" fill="rgb(175, 214, 178)"/>
</svg>
