<?xml version="1.0" encoding="UTF-8"?>
<!-- generated by Finnhub -->
<svg viewBox="0 0 55.5 55.5" xmlns="http://www.w3.org/2000/svg">
<path d="M 0,0 H 55.5 V 55.5 H 0 Z" fill="rgb(239, 242, 248)"/>
<path d="M 6.99,21.985 V 34 H 9 V 30 H 11.2 C 13.56,30 15,28.37 15,26 C 15,23.65 13.58,22 11.23,22 H 7 Z M 9,28 H 10.93 C 12.26,28 13,27.33 13,26 C 13,24.66 12.24,24 10.92,24 H 9 V 28 Z M 27,28 C 27,31 25.3,34 22,34 S 17,31 17,28 S 18.69,22 22,22 C 25.3,22 27,25 27,28 Z M 25,28 C 25,26.12 24.2,24 22,24 C 19.79,24 19,26.12 19,28 S 19.79,32 22,32 S 25,29.88 25,28 Z M 38,22 H 36 V 30.18 H 35.93 L 30.78,22 H 29 V 34 H 31 V 25.83 H 31.07 L 36.24,34 H 38 V 22 Z M 42.25,22 H 40 L 44,29.52 V 34 H 46 V 29.52 L 50,22 H 47.75 L 45.05,27.3 H 44.95 L 42.25,22 Z" fill-rule="evenodd"/>
</svg>
