<?xml version="1.0" encoding="UTF-8"?>
<!-- generated by Finnhub -->
<svg viewBox="0 0 55.5 55.5" xmlns="http://www.w3.org/2000/svg">
<path d="M 0,0 H 55.5 V 55.5 H 0 Z" fill="rgb(196, 31, 49)"/>
<path d="M 44.361000000000004,19.616 C 45.856,21.036 46.659,22.753 47.061,24.644 C 47.846,28.963 45.209,33.23 40.582,36.317 C 39.377,36.005 34.191,34.947 28.918,38.364 C 24.779,38.26 21.165,39.214 19.89,39.595 C 19.436,39.716 19.139,39.803 19.139,39.803 C 18.807,39.873 18.667,39.942 18.667,39.942 S 19.436,40.497 21.863,40.931 C 22.911,41.173 24.273,41.381 25.722,41.381 C 26.263,41.399 26.805,41.399 27.346,41.381 A 32.781,32.781 0 0,0 29.162,41.278 C 31.642,41.069 33.982,40.566 36.129,39.821 C 43.516,37.306 48.439,32.033 47.934,26.274 C 47.742,23.69 46.484,21.504 44.371,19.631 Z M 18.737,39.941 C 21.88,39.421 25.093,40.445 26.054,40.791 C 25.984,40.791 21.898,40.827 18.737,39.941 Z M 31.327,40.133 A 16.2,16.2 0 0,1 30.349,40.323 L 29.773,40.428 C 26.63,39.474 23.435,39.438 21.443,39.56 C 20.937,39.578 20.501,39.612 20.152,39.647 C 22.317,39.213 24.098,39.075 25.372,39.057 C 27.765,39.075 30.192,39.508 31.834,40.029 A 3.71,3.71 0 0,0 31.327,40.133 Z M 31.135,38.52 C 32.759,37.41 36.042,35.692 40.355,36.317 H 40.355 C 39.255,36.247 35.815,36.23 32.707,38.78 A 24.715,24.715 0 0,0 31.135,38.52 Z M 34.802,39.144 C 36.792,36.994 39.342,36.525 40.425,36.421 C 38.783,37.496 36.88,38.416 34.802,39.144 Z M 25.705,15.711 C 31.816,14.601 37.544,15.364 41.595,17.584 C 37.718,15.364 32.602,14.254 26.857,14.757 C 15.839,15.729 7.439,22.337 8.086,29.761 C 8.313,32.362 9.57,34.548 11.683,36.421 C 10.198,35.016 9.395,33.299 8.993,31.408 C 7.736,24.47 15.227,17.55 25.705,15.711 Z M 34.505,25.251 C 35.134,25.216 35.518,25.528 35.64,25.927 C 35.71,26.17 35.867,26.222 36.112,26.118 C 36.583,25.945 37.09,24.938 36.653,24.332 C 36.391,23.985 35.588,23.724 34.453,23.932 C 32.829,24.228 31.589,25.302 31.589,26.725 C 31.589,28.043 32.812,28.685 33.458,29.171 C 34.104,29.674 34.296,30.021 34.174,30.576 C 34.069,31.026 33.702,31.408 33.074,31.46 C 32.358,31.53 31.939,31.044 31.939,30.489 C 31.956,30.177 31.764,30.159 31.484,30.263 C 31.083,30.437 30.576,30.975 30.507,31.599 C 30.472,31.998 30.594,32.276 30.856,32.501 C 31.24,32.865 31.903,33.056 32.986,32.883 C 34.82,32.57 36.182,31.165 36.182,29.708 C 36.182,28.46 35.239,28.008 34.558,27.506 C 33.877,27.003 33.545,26.656 33.562,26.153 C 33.615,25.615 33.982,25.286 34.505,25.251 Z M 40.163,20.671 C 39.849,20.967 39.482,21.608 39.203,22.285 C 39.133,22.475 39.028,22.718 38.906,23.013 C 38.382,23.239 37.928,23.464 37.736,23.603 C 37.334,23.898 37.16,24.263 37.212,24.592 C 37.282,24.939 37.631,24.922 38.032,24.765 C 38.102,24.73 38.19,24.695 38.295,24.661 A 22.128,22.128 0 0,0 37.771,26.378 C 37.211,28.529 36.775,31.426 39.011,31.616 C 40.425,31.721 41.421,30.436 41.874,29.587 C 42.084,29.188 42.206,28.703 41.962,28.547 C 41.804,28.442 41.612,28.529 41.332,28.824 C 41.106,29.067 40.32,30.021 39.779,29.934 C 39.115,29.847 39.028,28.772 39.884,25.754 C 40.076,25.06 40.268,24.436 40.46,23.864 C 40.74,23.776 41.019,23.69 41.315,23.604 C 42.101,23.394 43.376,23.152 43.76,23.117 C 44.232,23.065 44.319,22.597 43.76,22.372 C 43.341,22.198 42.346,22.129 40.966,22.406 C 41.368,21.296 41.682,20.586 41.787,20.342 C 41.944,19.995 41.787,19.805 41.473,19.874 C 41.158,19.926 40.513,20.342 40.163,20.672 Z M 28.848,37.948 A 15.21,15.21 0 0,1 32.375,36.248 A 2.967,2.967 0 0,0 28.533,35.658 A 2.88,2.88 0 0,0 27.171,37.948 C 27.713,37.931 28.271,37.931 28.848,37.948 Z M 27.311,21.418 C 27.276,18.713 23.854,17.95 20.483,18.678 C 17.253,19.372 13.848,21.783 13.463,24.523 C 13.115,26.969 15.088,27.108 15.454,27.056 C 15.699,27.021 15.734,26.882 15.629,26.692 C 15.489,26.432 15.14,25.79 15.629,24.315 C 16.118,22.824 17.899,20.534 20.938,19.979 C 23.941,19.441 25.251,20.69 24.674,22.962 C 24.133,25.13 21.968,26.865 19.924,27.732 C 19.226,28.027 18.598,28.218 18.126,28.339 C 18.178,28.166 18.248,28.009 18.301,27.836 C 19.715,24.038 20.868,22.008 21.112,21.523 C 21.304,21.123 21.077,20.898 20.588,21.089 C 20.064,21.297 18.947,22.043 18.161,23.344 C 17.375,24.644 15.978,27.368 14.948,30.299 C 13.935,33.231 13.656,35.52 14.477,36.613 C 14.791,37.029 15.21,37.22 15.35,37.237 C 15.594,37.289 15.839,37.307 15.926,36.665 C 16.031,35.954 16.606,32.97 17.602,29.796 C 18.458,29.64 19.89,29.258 21.496,28.443 C 24.465,26.969 27.346,24.28 27.311,21.419 Z M 30.646,29.363 C 31.327,26.623 30.053,25.252 28.254,25.356 C 26.194,25.495 23.924,27.403 23.347,30.299 C 22.719,33.404 24.377,34.514 26.141,34.289 C 27.818,34.08 29.843,32.519 30.646,29.363 Z M 26.281,32.866 C 25.443,32.918 24.989,31.843 25.635,29.726 C 26.141,28.079 27.015,26.83 27.852,26.743 C 28.725,26.657 29.04,27.628 28.446,29.744 C 27.887,31.756 27.014,32.814 26.281,32.866 Z M 49.959,26.119 C 49.226,17.742 38.853,12.069 26.717,13.128 C 14.581,14.168 5.292,21.54 6.043,29.935 C 6.776,38.261 17.201,43.932 29.337,42.875 C 41.473,41.816 50.693,34.445 49.959,26.119 Z M 29.267,42.023 C 17.655,43.029 7.667,37.722 6.968,29.847 C 6.269,21.973 15.175,14.965 26.788,13.959 C 38.399,12.953 48.318,18.313 49.016,26.205 C 49.715,34.079 40.862,41.017 29.266,42.023 Z M 30.384,34.721 C 30.716,34.739 31.03,34.825 31.344,34.929 L 31.048,34.045 L 30.384,34.721 Z M 32.794,35.97 L 33.266,34.79 L 32.061,35.294 C 32.341,35.502 32.584,35.727 32.794,35.97 Z M 26.648,37.895 A 4.43,4.43 0 0,1 26.858,36.941 L 25.512,37.115 L 26.648,37.895 Z M 29.546,34.755 L 28.76,33.871 L 28.603,35.051 C 28.918,34.911 29.232,34.808 29.546,34.756 Z M 27.905,35.485 L 27.032,35.207 L 27.242,36.195 A 6.3,6.3 0 0,1 27.905,35.485 Z" fill="rgb(254, 254, 253)"/>
</svg>
