<?xml version="1.0" encoding="UTF-8"?>
<!-- generated by Finnhub -->
<svg viewBox="0 0 55.5 55.5" xmlns="http://www.w3.org/2000/svg">
<path d="M 0,0 H 55.5 V 55.5 H 0 Z" fill="rgb(239, 242, 248)"/>
<path d="M 15.5,14.684999999999999 L 38.15,11.05 A 4.18,4.18 0 0,1 42.64,16.85 L 30.24,44.53 A 4.21,4.21 0 0,1 23.19,45.49 A 4.1,4.1 0 0,1 22.57,44.46 L 12.33,20.42 A 4.52,4.52 0 0,1 12.06,19.52 C 12.01,19.21 11.99,18.9 12.01,18.58 A 4.23,4.23 0 0,1 13.78,15.4 A 4.6,4.6 0 0,1 15.52,14.7 Z M 33,28.6 V 19.67 C 33,18.67 32.34,17.99 31,17.99 H 23 V 18.81 L 24,19.34 V 36.64 L 23,37.16 V 38 H 28 V 37.17 L 27,36.64 V 30 H 31.13 C 32.09,30.09 33.1,29.63 32.99,28.61 Z M 30,29 H 27 V 19 H 30 V 29 Z" fill="rgb(14, 89, 60)"/>
</svg>
