<?xml version="1.0" encoding="UTF-8"?>
<!-- generated by Finnhub -->
<svg viewBox="0 0 55.5 55.5" xmlns="http://www.w3.org/2000/svg">
<path d="M 0,0 H 55.5 V 55.5 H 0 Z" fill="rgb(239, 242, 248)"/>
<path d="M 17.88,44.464999999999996 C 17.89,44.46 17.89,44.41 17.85,44.41 C 17.79,44.41 17.78,44.64 17.65,44.69 C 17.59,44.71 17.43,44.74 17.3,44.74 C 17.2,44.74 17.03,44.74 16.92,44.72 C 16.85,44.7 16.82,44.58 16.81,44.47 L 16.8,44.14 V 42.5 C 16.8,42.34 16.8,42.2 16.84,42.16 C 16.91,42.06 17.1,42.09 17.1,42.04 C 17.1,42 17.04,41.99 17.02,41.99 H 16.15 C 16.1,41.99 16.07,42 16.07,42.05 C 16.07,42.09 16.24,42.08 16.28,42.14 C 16.34,42.2 16.35,42.3 16.35,42.49 V 44.22 C 16.35,44.6 16.35,44.67 16.29,44.77 C 16.22,44.87 16,44.83 16,44.89 C 16,44.94 16.06,44.99 16.1,44.99 H 17.7 C 17.75,44.99 17.77,44.92 17.78,44.89 C 17.78,44.87 17.78,44.81 17.81,44.75 L 17.89,44.47 Z M 22.3,43.45 C 22.3,42.72 21.7,42 20.85,42 S 19.4,42.64 19.4,43.54 C 19.4,44.39 20.08,44.99 20.84,44.99 C 21.87,44.99 22.3,44.27 22.3,43.45 Z M 21.8,43.65 C 21.8,44.21 21.52,44.84 20.94,44.84 C 20.32,44.84 19.9,44.21 19.9,43.38 C 19.9,42.91 20.1,42.19 20.8,42.19 C 21.46,42.19 21.8,42.92 21.8,43.65 Z M 27.02,42.02 C 27.02,41.99 26.98,42 26.92,42 H 26.27 C 26.21,42 26.19,42 26.19,42.03 C 26.19,42.08 26.33,42.04 26.42,42.13 C 26.47,42.18 26.48,42.34 26.48,42.57 V 44.05 C 26.48,44.1 26.48,44.13 26.46,44.13 S 26.42,44.11 26.39,44.07 L 24.52,42.17 C 24.42,42.07 24.37,42 24.33,42 C 24.29,42 24.29,42.09 24.29,42.25 V 44.42 C 24.29,44.65 24.25,44.8 24.2,44.85 C 24.1,44.92 23.92,44.88 23.92,44.95 C 23.92,44.98 23.96,44.99 24,44.99 H 24.79 C 24.87,44.99 24.89,44.98 24.89,44.94 C 24.89,44.89 24.72,44.91 24.63,44.85 C 24.56,44.79 24.53,44.59 24.53,44.43 V 43.03 C 24.53,42.9 24.53,42.87 24.55,42.87 S 24.6,42.89 24.64,42.93 L 26.49,44.82 C 26.59,44.92 26.65,44.99 26.69,44.99 C 26.71,44.99 26.72,44.92 26.72,44.77 V 42.69 C 26.72,42.33 26.74,42.14 26.79,42.11 C 26.87,42.06 27.02,42.08 27.02,42.02 Z M 30.3,44.13 C 30.3,43.75 30.04,43.53 29.77,43.35 L 29.45,43.12 C 29.21,42.95 29.09,42.87 29.09,42.62 C 29.09,42.31 29.34,42.18 29.53,42.18 C 29.73,42.18 29.85,42.25 29.93,42.31 C 30.13,42.48 30.02,42.71 30.11,42.71 C 30.17,42.71 30.17,42.51 30.17,42.38 V 42.2 L 30.19,42.08 L 30.18,42.06 C 30.13,42.06 30.12,42.09 30.03,42.09 C 29.98,42.09 29.78,42.03 29.57,42.03 C 29.07,42.03 28.75,42.27 28.75,42.73 C 28.75,43.1 28.87,43.3 29.13,43.49 L 29.56,43.8 C 29.78,43.97 29.94,44.06 29.94,44.32 C 29.94,44.67 29.74,44.82 29.44,44.82 C 29.07,44.82 28.94,44.66 28.88,44.5 C 28.83,44.4 28.87,44.27 28.81,44.27 C 28.76,44.27 28.74,44.47 28.74,44.52 V 44.78 C 28.74,44.85 28.77,44.86 28.81,44.88 C 29.01,44.94 29.11,45 29.38,45 C 29.63,45 29.83,44.91 29.96,44.81 C 30.22,44.61 30.3,44.36 30.3,44.13 Z M 34.96,42.04 C 34.96,42.01 34.93,42 34.86,42 H 34.13 C 34.07,42 34.04,42 34.04,42.04 C 34.04,42.09 34.22,42.07 34.34,42.16 C 34.4,42.21 34.42,42.51 34.42,42.97 V 43.84 C 34.42,44.54 33.95,44.82 33.46,44.82 C 32.89,44.82 32.76,44.29 32.76,43.84 L 32.75,42.79 C 32.75,42.2 32.8,42.15 32.88,42.1 C 32.93,42.07 33.1,42.08 33.1,42.04 C 33.1,42.01 33.08,42 33.02,42 H 32.08 C 32.02,42 32.01,42.01 32.01,42.04 S 32.21,42.08 32.26,42.16 C 32.31,42.2 32.3,42.48 32.3,42.72 V 43.95 C 32.3,44.62 32.76,45 33.46,45 C 34.22,45 34.63,44.53 34.63,43.75 V 42.72 C 34.63,42.4 34.63,42.17 34.75,42.11 C 34.87,42.05 34.96,42.08 34.96,42.04 Z M 40,44.96 C 40,44.91 39.92,44.94 39.84,44.89 C 39.71,44.82 39.69,44.54 39.67,44.39 L 39.38,42.09 C 39.38,42.03 39.35,42 39.32,42 S 39.27,42.02 39.26,42.05 L 38.34,44 C 38.28,44.13 38.25,44.18 38.22,44.18 C 38.2,44.18 38.16,44.12 38.1,44.01 L 37.15,42.11 C 37.13,42.05 37.1,42.03 37.07,42.03 C 37.05,42.03 37.03,42.05 37.02,42.11 L 36.76,44.41 C 36.74,44.61 36.7,44.79 36.56,44.88 C 36.5,44.92 36.38,44.92 36.38,44.95 C 36.38,45 36.41,45.01 36.48,45.01 H 37.21 C 37.27,45.01 37.3,44.98 37.3,44.96 C 37.3,44.91 37.14,44.93 37.05,44.87 C 37,44.84 37.01,44.72 37.01,44.58 C 37.01,44.52 37.01,44.35 37.03,44.24 L 37.15,43.17 C 37.15,43.13 37.16,43.11 37.17,43.11 S 37.19,43.11 37.2,43.14 L 38.05,44.84 C 38.08,44.91 38.11,44.95 38.13,44.95 C 38.15,44.95 38.18,44.91 38.22,44.85 L 39.01,43.15 L 39.04,43.11 L 39.06,43.15 L 39.18,44.2 C 39.2,44.32 39.2,44.42 39.2,44.5 C 39.2,44.65 39.2,44.91 39.02,44.92 C 38.95,44.92 38.9,44.94 38.9,44.97 C 38.9,45.01 38.97,45.01 39.08,45.01 H 39.85 C 39.95,45.01 40,45.01 40,44.97 Z"/>
<path d="M 15.99,12.985 H 40 V 40 H 16 Z" fill="rgb(25, 149, 62)"/>
<path d="M 17.45,39.985 H 16 V 37.94 L 18.23,33.64 C 20.21,30.94 24.2,25.54 24.33,25.45 C 24.44,25.36 27.76,23.03 29.4,21.88 L 40,17.98 V 22.06 C 39.08,22.69 37.86,23.39 36.38,23.97 A 61.95,61.95 0 0,0 28.88,27.64 C 22.24,32.64 18.65,37.71 17.47,40.01 Z" fill="rgb(124, 181, 129)"/>
<path d="M 15.99,39.265 V 37.55 C 18.03,33.03 21.7,26.14 25.57,22.69 C 29.67,19.05 36.2,17.24 39.99,16.59 V 18.92 A 31,31 0 0,0 28.43,23.14 C 21.43,27.47 17.38,35.31 16,39.28 Z" fill="rgb(195, 220, 189)"/>
<path d="M 39.99,41.485 H 16 V 41 H 40 V 41.5 Z"/>
</svg>
