<?xml version="1.0" encoding="UTF-8"?>
<!-- generated by Finnhub -->
<svg viewBox="0 0 55.5 55.5" xmlns="http://www.w3.org/2000/svg">
<path d="M 0,0 H 55.5 V 55.5 H 0 Z" fill="rgb(239, 242, 248)"/>
<path d="M 43.99,22.985 H 47.341 C 48.024,23 48,23.667 48,23.667 V 29 L 44,23 Z" fill="rgb(231, 51, 50)"/>
<path d="M 47.99,28.985 H 51.345 C 52.07,29 51.998,29.777 51.998,29.68 V 35 L 48,29 Z" fill="rgb(202, 202, 202)"/>
<path d="M 43.422000000000004,31.558 H 43.568 C 43.568,31.621 43.608,32.519 44.368,32.874 C 44.468,32.921 44.816,33 45.048,33 H 49.76 L 48.528,31 H 45.056 C 44.008,31 43.632,30.347 43.496,29.927 C 43.36,30.339 42.976,31 41.936,31 H 4.128 L 5.384,33 H 42.136 C 42.898,32.937 43.432,32.347 43.432,31.573 Z" fill="rgb(231, 51, 50)"/>
<path d="M 41.926,35.982 C 43.176,35.997 43.432,34.777 43.432,34.455 H 43.568 C 43.568,35.295 44.212,35.997 45.056,35.997 H 51.12 L 49.864,34.002 C 48.192,34.002 46.519,33.994 44.848,33.994 C 44.188,33.923 43.682,33.449 43.512,32.818 C 43.384,33.279 43.016,34.002 41.944,34.002 H 5.472 L 6.696,35.997 H 41.936 Z" fill="rgb(202, 202, 202)"/>
<path d="M 12.294,26.985 H 14.72 V 26 H 12.304 V 24.243 C 12.304,24.299 12.256,24 12.552,24 H 15 V 23 H 11.456 C 10.496,23 10.352,24.027 10.352,24.39 V 28.878 C 10.352,29.679 10.848,29.994 11.456,29.994 H 15 V 29 H 12.56 C 12.352,29 12.304,28.813 12.304,28.732 V 27 Z M 23.488,29.995 L 23.48,23 H 21.792 C 21.4,23 20.952,23.392 20.736,23.83 C 20.64,24.03 19.368,26.805 19.368,26.805 S 18.008,24 17.912,23.83 C 17.736,23.5 17.44,23.008 16.768,23.008 H 15.24 V 29.995 H 16 C 17.072,29.995 17.256,29.027 17.256,28.819 L 17.264,25.629 L 19.368,30.088 L 21.472,25.614 V 28.819 C 21.472,29.626 22.192,29.995 22.704,29.995 C 23.04,29.988 23.488,29.995 23.488,29.995 Z M 32.416,28.824 C 32.416,29.854 31.4,30 31.192,30 H 30.544 V 24.176 C 30.544,23.646 30.752,23 31.56,23 H 32.416 V 28.824 S 32.416,27.81 32.416,28.824 Z M 38.032,29.992 H 39.784 V 23 H 38.92 C 38.792,23 37.68,23.077 37.68,24.176 V 27.365 L 37.656,27.334 S 36.312,24.944 35.544,23.654 C 35.28,23.208 34.88,22.992 34.6,23 C 34.44,23.008 33,23 33,23 V 29.992 S 33.592,30 33.712,30 C 33.84,30 35,29.885 35,28.809 V 25.559 S 36.032,27.519 36.8,28.847 C 37.32,29.754 37.648,29.992 38.032,29.992 Z M 48.152,30 S 45.256,26.04 43.8,23.89 C 43.248,23.073 42.792,23 42.296,23 H 40.2 V 30 H 41.072 C 42.032,30 42.296,29.125 42.296,28.777 V 28.005 H 43.886 S 44.61,28.939 44.994,29.44 C 45.25,29.772 45.554,30 45.946,30 H 48.152 Z M 42.296,27 V 25.385 L 43.283,27 H 42.296 Z M 48,23 H 51.313 C 51.901,23 52,23.412 52,23.63 V 29 L 48,23 Z M 7.808,23.008 L 4,23.016 V 30 H 4.872 C 5.392,30 6,29.64 6,28.815 V 27.423 S 6.176,27.431 7.816,27.431 C 9.424,27.431 9.984,25.975 9.984,25.321 C 9.984,25.005 9.944,24.593 9.72,24.188 C 9.384,23.574 8.736,23.008 7.808,23.008 Z M 7.904,25.256 C 7.904,26.266 6.96,26.469 6.752,26.469 H 6 V 24 H 6.752 C 7.168,24 7.904,24.213 7.904,25.256 Z M 28.696,26.492 S 29.96,26.023 29.96,24.815 C 29.96,23.446 28.136,23 27.648,23 H 24 V 30 S 27.496,29.992 28.072,29.992 C 28.648,29.992 30.152,29.408 30.152,28.123 C 30.144,26.831 28.696,26.493 28.696,26.493 Z M 26,24 H 26.744 C 27.248,24 27.832,24.3 27.832,24.946 C 27.832,25.592 27.064,26 26.76,26 H 26 V 24 Z M 26.808,29 H 26 V 27 H 26.792 C 27.216,27 27.952,27.346 27.952,28 C 27.952,28.685 27.136,29 26.808,29 Z" fill="rgb(34, 27, 26)"/>
</svg>
