<?xml version="1.0" encoding="UTF-8"?>
<!-- generated by Finnhub -->
<svg viewBox="0 0 55.5 55.5" xmlns="http://www.w3.org/2000/svg">
<path d="M 0,0 H 55.5 V 55.5 H 0 Z" fill="rgb(65, 181, 71)"/>
<path d="M 17.99,13.985 V 18 H 21 V 40 H 18.06 L 18,44 H 29 V 40 H 26 V 33 H 28.25 C 29.65,33 32.3,32.94 32.93,32.87 C 37.58,32.37 41,29.29 41,22.97 C 41,18.64 37.74,14 33,14 H 18 Z M 31.85,18.14 C 33.08,18.37 33.87,18.77 34.61,19.54 C 36.53,21.54 36.48,25.24 34.51,27.09 C 33.25,28.27 31.21,28.99 28.06,29 H 26 V 18 S 31.1,18 31.85,18.14 Z" fill="rgb(254, 254, 253)"/>
</svg>
