<?xml version="1.0" encoding="UTF-8"?>
<!-- generated by Finnhub -->
<svg viewBox="0 0 55.5 55.5" xmlns="http://www.w3.org/2000/svg">
<path d="M 0,0 H 55.5 V 55.5 H 0 Z" fill="rgb(26, 93, 166)"/>
<path d="M 33.074000000000005,22.358 C 33.084,22.952 32.561,23.457 32.001,23.457 A 1.112,1.112 0 0,1 30.917,22.373 C 30.917,21.813 31.423,21.291 32.001,21.291 C 32.561,21.291 33.084,21.812 33.084,22.373 Z M 33,24 H 31 V 32 H 33 V 24 Z M 49.005,27.663 C 49.005,30.083 47.205,31.609 44.888,31.609 C 42.594,31.609 40.792,30.082 40.792,27.663 C 40.792,25.247 42.594,23.723 44.888,23.723 C 47.204,23.723 49.005,25.247 49.005,27.663 Z M 42.764,27.663 C 42.764,29.225 43.604,30.391 44.888,30.391 C 46.073,30.391 46.998,29.225 46.998,27.663 C 46.998,26.104 46.073,24.938 44.888,24.938 C 43.501,24.938 42.764,26.087 42.764,27.663 Z" fill="rgb(254, 254, 253)"/>
<path d="M 40.137,34.43 C 40.677,33.973 41.048,33.374 41.131,32.685 C 41.319,31.022 40.121,30 38.474,30 H 36.314 C 35.818,30 35.028,29.993 35.028,29.324 C 35.028,28.709 35.868,28.57 36.331,28.57 H 37.084 C 38.61,28.57 40.069,27.748 40.069,26.137 C 40.069,25.58 39.795,25.164 39.619,24.957 A 8.12,8.12 0 0,0 41,24.647 V 23.458 C 40.013,23.768 39.192,23.892 38.222,23.882 C 37.949,23.813 37.555,23.72 36.76,23.72 C 34.856,23.72 33.914,25.004 33.914,26.137 C 33.914,27.097 34.446,27.593 34.839,27.833 C 34.187,28.055 33.502,28.828 33.502,29.737 C 33.502,30.749 34.102,31.192 34.446,31.381 C 33.966,31.621 33.073,32.257 33.073,33.406 C 33.073,33.626 33.111,33.825 33.18,34.004 C 24.291,33.011 15.605,30.861 7,33.313 V 33.853 C 20.753,29.933 35.247,38.976 49.005,34.926 V 33.255 C 46.115,34.079 43.105,34.441 40.147,34.445 Z M 36.966,24.815 C 37.925,24.815 38.337,25.52 38.337,26.153 C 38.337,26.873 37.89,27.456 36.966,27.456 C 36.09,27.456 35.594,26.872 35.594,26.153 C 35.594,25.52 36.09,24.816 36.966,24.816 Z M 35.782,31.607 H 38.234 C 38.988,31.607 39.605,31.983 39.468,32.857 C 39.367,33.646 38.218,34.367 37.032,34.367 C 35.97,34.367 34.649,34.057 34.616,33.199 C 34.597,32.445 35.388,31.846 35.782,31.607 Z" fill="rgb(254, 254, 253)"/>
<path d="M 17.782,30.34 C 16.28,30.355 15.532,29.543 15.532,28 H 20.424 C 20.424,25.105 18.897,23.723 17.142,23.723 C 15.208,23.723 13.596,25.428 13.596,27.725 C 13.596,30.142 15.078,31.608 17.271,31.608 C 17.468,31.608 17.65,31.602 17.821,31.593 A 5.574,5.574 0 0,0 19.866,31.143 C 19.907,30.73 19.949,30.316 19.989,29.901 A 6.083,6.083 0 0,1 18.839,30.267 A 5.678,5.678 0 0,1 17.792,30.355 Z M 17.092,24.956 C 17.955,24.956 18.572,25.486 18.572,27 H 15.565 C 15.532,25.986 16.15,24.956 17.093,24.956 Z M 7,32 V 20 H 10.326 C 13.002,20 14.086,21.858 14.086,23.45 C 14.086,25.303 12.674,27.012 10.256,27.012 H 9 V 32 H 7 Z M 9.93,21.99 H 9 V 25.36 C 9.132,25.281 9.266,25.022 9.486,25 C 9.706,24.978 9.931,25 9.931,25 C 11.235,25 12.06,24.702 12.06,23.45 C 12.06,22.302 11.32,21.99 9.93,21.99 Z M 25.546,23.937 A 2.01,2.01 0 0,0 24.866,23.82 C 23.871,23.82 23.28,24.426 23,24.923 L 22.74,24 H 21 V 32 H 23 V 26.268 C 23.36,25.525 23.993,24.834 24.992,25.349 M 30.547,23.927 A 2.004,2.004 0 0,0 29.867,23.811 C 28.873,23.811 28.28,24.426 28,24.923 L 27.742,24 H 26 V 32 H 28 V 26.268 C 28.36,25.525 28.994,24.834 29.993,25.349" fill="rgb(254, 254, 253)"/>
</svg>
