<?xml version="1.0" encoding="UTF-8"?>
<!-- generated by Finnhub -->
<svg viewBox="0 0 55.5 55.5" xmlns="http://www.w3.org/2000/svg">
<path d="M 0,0 H 55.5 V 55.5 H 0 Z" fill="rgb(0, 98, 158)"/>
<path d="M 43.99,20.939 V 38.449 A 1.34,1.34 0 0,1 43.385,39.506 L 42.808,39.849 L 38.414,42.371 L 35,44.428 V 25.506 L 18.334,16.038 L 26.17,11.554 L 26.892,11.146 A 1.368,1.368 0 0,1 28.122,11.146 L 38.984,17.376 L 43.996,20.25 V 20.954 H 44 Z M 31,27.605 L 27.78,25.664 L 19.865,21.125 A 1.39,1.39 0 0,0 18.635,21.125 L 11.611,25.153 L 11,25.506 L 23,32.336 V 46 L 29.767,41.976 L 30.385,41.633 A 1.357,1.357 0 0,0 31,40.576 V 27.606 Z M 11,39.17 L 19,43.897 V 34.436 L 11,39.17 Z" fill="rgb(68, 194, 38)"/>
</svg>
