<?xml version="1.0" encoding="UTF-8"?>
<!-- generated by Finnhub -->
<svg viewBox="0 0 55.5 55.5" xmlns="http://www.w3.org/2000/svg">
<path d="M 0,0 H 55.5 V 55.5 H 0 Z" fill="rgb(239, 242, 248)"/>
<path d="M 35.221000000000004,22.362 C 35.721,22.763 36.221,23.277 36.657,23.749 L 36.707,23.805 L 37.026,24.155 V 24.134 C 37.026,22.297 36.028,20.701 34.566,19.892 L 34.654,20.199 L 34.699,20.337 L 34.739,20.471 C 34.907,21.037 35.071,21.666 35.154,22.245 L 35.162,22.302 L 35.167,22.326 L 35.231,22.376 Z M 18.997,24.042 C 18.997,24.207 19.008,24.369 19.022,24.528 L 19.439,24.026 A 10.59,10.59 0 0,1 20.743,22.709 L 20.778,22.681 L 20.798,22.661 L 20.811,22.587 C 20.927,21.8 21.041,21.352 21.241,20.585 L 21.441,19.809 C 19.986,20.623 18.997,22.212 18.997,24.041 Z M 33.801,28.523 L 33.87,28.643 L 33.885,28.669 L 34.041,28.606 A 4.704,4.704 0 0,0 36.334,26.617 L 36.377,26.542 L 36.397,26.506 L 36.326,26.398 C 36.316,26.382 36.312,26.372 36.301,26.358 L 36.271,26.312 L 36.257,26.288 L 36.197,26.198 C 34.468,23.638 31.617,21.943 28.38,21.875 L 28.294,21.873 H 28.254 L 28.198,21.987 A 4.945,4.945 0 0,0 27.798,25.056 L 27.82,25.17 L 27.83,25.226 L 27.995,25.22 C 28.065,25.218 28.129,25.215 28.191,25.215 C 30.578,25.215 32.663,26.544 33.801,28.523 Z M 26.676,27.453 A 6.899,6.899 0 0,1 25.828,24.131 C 25.828,22.87 26.165,21.691 26.747,20.684 L 26.803,20.585 L 26.83,20.536 L 26.707,20.423 A 4.563,4.563 0 0,0 23.949,19.237 L 23.869,19.231 L 23.825,19.228 L 23.766,19.344 A 10.33,10.33 0 0,0 22.594,24.129 A 10.347,10.347 0 0,0 23.646,28.679 L 23.648,28.681 L 23.666,28.719 L 23.705,28.797 L 23.723,28.837 L 23.848,28.83 A 4.563,4.563 0 0,0 26.628,27.71 L 26.714,27.636 L 26.754,27.599 L 26.691,27.479 L 26.676,27.453 Z M 13.878,24.03 A 10.275,10.275 0 0,0 16.285,30.653 L 16.575,31.001 L 16.631,30.541 A 12.266,12.266 0 0,1 17.642,26.864 L 17.669,26.812 L 17.681,26.785 L 17.645,26.698 A 6.94,6.94 0 0,1 17.115,24.031 C 17.117,20.305 20.035,17.286 23.643,17.286 C 25.732,17.286 27.585,18.3 28.781,19.877 L 28.818,19.923 L 28.837,19.949 L 28.923,19.957 C 30.196,20.037 31.411,20.327 32.54,20.799 L 32.952,20.971 L 32.798,20.541 C 31.422,16.691 27.846,13.947 23.643,13.939 C 18.251,13.95 13.89,18.459 13.878,24.029 Z M 23.654,30.931 C 23.584,31.263 23.54,31.608 23.54,31.963 C 23.542,32.688 23.699,33.375 23.977,33.991 L 24.015,34.077 L 24.032,34.115 L 24.166,34.108 C 27.453,33.923 30.304,32.066 31.939,29.343 L 31.986,29.27 L 32.009,29.227 L 31.931,29.119 A 4.658,4.658 0 0,0 29.491,27.356 L 29.395,27.327 L 29.347,27.311 L 29.267,27.449 C 28.167,29.386 26.157,30.701 23.84,30.772 L 23.737,30.774 L 23.687,30.777 L 23.654,30.931 Z M 32.472,34.224 L 32.606,34.22 C 37.882,34.071 42.11,29.62 42.121,24.132 C 42.11,18.558 37.747,14.049 32.357,14.036 A 9.595,9.595 0 0,0 30.865,14.159 L 30.413,14.233 L 30.776,14.521 A 12.039,12.039 0 0,1 33.356,17.397 L 33.386,17.445 L 33.398,17.469 L 33.482,17.486 C 36.546,18.035 38.877,20.788 38.883,24.112 V 24.133 C 38.882,27.51 36.481,30.311 33.346,30.801 L 33.287,30.811 L 33.263,30.815 L 33.212,30.888 A 12.051,12.051 0 0,1 30.574,33.704 L 30.207,33.984 L 30.657,34.066 C 31.13,34.154 31.613,34.205 32.107,34.22 L 32.266,34.224 H 32.472 Z M 27.946,35.271 L 27.906,35.254 L 27.879,35.244 L 27.808,35.273 C 27.245,35.495 26.551,35.68 25.935,35.815 L 25.521,35.904 A 4.54,4.54 0 0,0 28.191,36.774 C 29.067,36.774 29.885,36.521 30.587,36.087 L 29.817,35.883 L 29.726,35.858 A 16.23,16.23 0 0,1 27.948,35.273 L 27.946,35.271 Z M 28.191,42.055 L 28.261,42.057 L 28.438,42.052 C 32.563,41.937 36.048,39.19 37.376,35.373 L 37.533,34.918 L 37.109,35.115 A 11.172,11.172 0 0,1 33.413,36.112 L 33.356,36.119 L 33.329,36.12 L 33.278,36.187 C 32.081,37.727 30.248,38.713 28.191,38.713 C 24.583,38.713 21.664,35.691 21.662,31.963 C 21.662,31.2 21.784,30.465 22.01,29.786 L 22.03,29.726 L 22.038,29.699 L 21.998,29.623 A 12.197,12.197 0 0,1 20.838,25.867 L 20.768,25.397 L 20.486,25.771 A 10.294,10.294 0 0,0 18.426,31.961 C 18.436,37.452 22.664,41.909 27.94,42.051 L 28.1,42.055 H 28.19 Z M 32.357,12.095 C 38.788,12.095 43.999,17.483 44,24.132 C 44,27.852 42.365,31.176 39.8,33.387 L 39.762,33.417 L 39.74,33.437 L 39.73,33.515 C 38.995,39.425 34.11,44 28.19,44 H 28.13 C 22.314,43.971 17.507,39.528 16.677,33.752 L 16.664,33.688 L 16.661,33.665 L 16.598,33.615 C 13.804,31.415 12.002,27.945 12,24.034 C 12.002,17.385 17.213,11.997 23.643,11.997 C 25.201,11.997 26.69,12.312 28.051,12.887 L 28.095,12.908 L 28.118,12.918 L 28.191,12.888 A 11.327,11.327 0 0,1 32.357,12.094 Z" fill="rgb(54, 52, 51)"/>
<path d="M 13.867,24.014 C 13.882,26.566 14.792,28.879 16.283,30.65 L 16.575,30.997 L 16.629,30.54 A 12.268,12.268 0 0,1 17.644,26.863 L 17.667,26.809 L 17.68,26.782 L 17.644,26.696 A 6.982,6.982 0 0,1 17.113,24.028 C 17.115,20.304 20.037,17.283 23.641,17.281 C 25.731,17.283 27.584,18.297 28.781,19.874 L 28.818,19.92 L 28.836,19.946 L 28.922,19.952 C 30.194,20.033 31.411,20.326 32.539,20.795 L 32.952,20.968 L 32.798,20.536 C 31.421,16.686 27.848,13.944 23.643,13.938 C 18.251,13.946 13.89,18.456 13.877,24.028 Z M 23.654,30.929 C 23.583,31.26 23.54,31.606 23.54,31.96 A 4.94,4.94 0 0,0 23.977,33.989 L 24.017,34.073 L 24.032,34.114 L 24.166,34.103 C 27.452,33.922 30.303,32.065 31.938,29.341 L 31.986,29.267 L 32.009,29.226 L 31.932,29.114 A 4.682,4.682 0 0,0 29.492,27.353 L 29.394,27.323 L 29.347,27.308 L 29.267,27.445 C 28.164,29.381 26.156,30.698 23.84,30.769 L 23.735,30.772 L 23.685,30.774" fill="rgb(68, 151, 208)"/>
<path d="M 26.666999999999998,27.436 A 6.91,6.91 0 0,1 25.831,24.128 C 25.831,22.868 26.167,21.688 26.75,20.682 L 26.805,20.583 L 26.833,20.535 L 26.71,20.422 A 4.536,4.536 0 0,0 23.952,19.236 L 23.872,19.229 L 23.829,19.227 L 23.768,19.343 A 10.35,10.35 0 0,0 22.598,24.127 A 10.35,10.35 0 0,0 23.649,28.678 L 23.668,28.716 L 23.708,28.796 L 23.725,28.834 L 23.851,28.828 A 4.552,4.552 0 0,0 26.631,27.705 L 26.717,27.632 L 26.759,27.597 L 26.694,27.477 L 26.677,27.453 V 27.451 Z M 32.477,34.219 L 32.609,34.216 C 37.885,34.069 42.113,29.615 42.122,24.128 C 42.112,18.553 37.75,14.044 32.362,14.035 A 9.423,9.423 0 0,0 30.868,14.157 L 30.416,14.229 L 30.777,14.518 A 11.977,11.977 0 0,1 33.357,17.395 L 33.387,17.443 L 33.402,17.465 L 33.485,17.483 C 36.547,18.033 38.879,20.785 38.888,24.109 V 24.129 C 38.886,27.509 36.483,30.306 33.347,30.799 L 33.29,30.807 L 33.264,30.812 L 33.216,30.887 A 12.049,12.049 0 0,1 30.577,33.7 L 30.21,33.98 L 30.659,34.063 C 31.131,34.149 31.615,34.203 32.111,34.216 L 32.269,34.219" fill="rgb(254, 55, 22)"/>
</svg>
