<?xml version="1.0" encoding="UTF-8"?>
<!-- generated by Finnhub -->
<svg viewBox="0 0 55.5 55.5" xmlns="http://www.w3.org/2000/svg">
<path d="M 56,0 H 0 V 56 H 56 V 0 Z" fill="rgb(239, 242, 248)"/>
<path d="M 16.15,22.985 H 12 V 26 H 16.19 C 17.87,26 19,26 19,24.5 S 17.92,23 16.16,23 Z M 11.98,33 H 8 L 8.02,20 C 8.72,20.02 10.62,20.01 12.69,20 C 15.54,19.98 18.66,19.97 19.24,20.04 C 20.96,20.24 22.1,21.01 22.61,22.5 C 23.27,24.45 23,26 22.11,27.5 C 22.59,27.93 22.71,27.94 23.18,27.97 L 23.5,28 H 28.53 C 29.5,28 31,28 31,29.07 C 30.95,29.92 30.45,30 29.59,30 A 957.8,957.8 0 0,1 24.5,29.99 C 23.59,29.93 23.38,29.49 23.34,28.57 L 21.82,28 C 20.92,29.03 19.39,29.02 17.81,29 H 17.28 L 15.55,28.99 A 72.61,72.61 0 0,0 12,29 L 11.98,33 Z M 47.26,21.55 C 47.76,22.28 48.13,24.42 48,25 H 44 A 2.99,2.99 0 0,1 43.96,24.56 C 43.94,23.88 43.91,23.03 42.3,23 H 39 C 37.42,23 36.31,23.29 36.04,25.12 C 35.98,25.48 35.99,25.96 36,26.38 V 26.76 C 36,27.86 36.33,28.46 37,29 H 38.18 A 120.99,120.99 0 0,0 40.27,29.01 C 41.04,29.02 41.81,29.03 42.57,29 H 43.19 C 43.86,29.03 44.02,29.03 44,28 H 48 V 28.46 C 48,29.56 48,30.61 47.31,31.5 C 46.44,32.62 44.75,33 43.11,33 H 38.24 C 36.75,33 35.04,32.84 33.87,32.25 C 33.9,32.2 33.97,32.15 34.05,32.1 C 34.4,31.86 35.09,31.38 35.19,29.66 C 35.36,26.63 34.82,25.37 31.99,25.03 L 28.5,25.02 L 25,25 C 24.37,24.92 24.02,24.55 24,23.88 C 24,23 25.09,23 26.24,23 H 30.01 C 30.7,23.14 30.99,23.25 31,23.98 H 34 V 23.55 C 34.02,22.48 34.03,21.68 33,21 C 33.85,20.36 36.46,20.02 37.75,20.02 L 39.31,20.01 C 40.43,20 41.56,19.99 42.66,20.02 C 44.29,20.07 46.36,20.25 47.26,21.55 Z" fill="rgb(178, 149, 90)"/>
<path d="M 11.99,37.985 H 11 V 34 H 14.49 C 15.71,34 16,34.59 16,35.37 V 35.71 C 16,36.31 15.73,36.99 14.82,36.99 H 12 V 38 Z M 14.16,35 H 12 V 36 H 14.27 C 14.57,36 14.69,35.81 14.69,35.57 V 35.42 C 14.69,35.15 14.55,34.99 14.16,34.99 Z M 18.02,38 H 17 V 35.05 H 17.96 V 35.61 C 18.09,35.14 18.5,35 18.96,35 C 19.71,35 20,35.35 20,36.16 V 36.13 C 20,36.06 20,35.93 19.99,36 H 19.11 C 19.07,36 19.05,35.98 19.02,35.97 C 18.97,35.93 18.89,35.87 18.62,35.87 C 18.27,35.87 18.02,36.01 18.02,36.37 V 38 Z M 22,35.18 H 21 V 38 H 22 V 35.18 Z M 22,34 H 21 V 34.83 H 22 V 34 Z M 24,38 H 23 V 35 H 23.83 V 35.63 H 23.84 C 23.89,35.2 24.19,35 24.62,35 H 24.95 C 25.37,35 25.65,35.23 25.81,35.69 C 25.96,35.16 26.15,35 26.65,35 H 26.91 C 27.71,35 28,35.5 28,36.34 V 38 H 27 V 36.33 C 27,35.99 27,35.87 26.53,35.87 C 26.11,35.87 26,35.98 26,36.37 V 38 H 25 V 36.33 C 25,35.96 24.96,35.87 24.43,35.87 C 24.05,35.87 24,35.98 24,36.44 V 38 Z M 29,36.85 C 29,37.81 29.64,38 30.19,38 H 31.81 C 32.36,38 33,37.8 33,36.85 V 36.15 C 33,35.19 32.36,35 31.81,35 H 30.19 C 29.64,35 29,35.2 29,36.15 V 36.85 Z M 30.08,36.36 C 30.08,35.95 30.33,35.82 30.82,35.82 H 31.08 C 31.78,35.82 31.92,35.92 31.92,36.3 V 36.7 C 31.92,37.09 31.78,37.18 31.08,37.18 H 30.82 C 30.32,37.18 30.08,37.05 30.08,36.64 V 36.36 Z M 35,38 H 34 V 35.05 H 34.96 V 35.61 C 35.09,35.14 35.5,35 35.96,35 C 36.71,35 37,35.35 37,36.16 V 36.36 L 36.99,36.42 H 36.11 C 36.11,36.05 36.03,35.87 35.61,35.87 C 35.27,35.87 35,36.01 35,36.37 V 38 Z M 39,35.18 H 38 V 38 H 39 V 35.18 Z M 39,34 H 38 V 34.83 H 39 V 34 Z M 41.39,38 C 40.37,38 40,37.77 40,37.05 H 41.14 C 41.14,37.21 41.19,37.32 41.82,37.32 H 42.21 C 42.73,37.32 42.86,37.28 42.86,37.1 C 42.86,36.93 42.78,36.86 42.39,36.86 H 41.35 C 40.33,36.86 40.02,36.63 40.02,35.83 C 40.02,35.11 40.61,35 41.37,35 H 42.13 C 43.58,35 43.83,35.2 43.83,35.88 H 42.73 C 42.68,35.71 42.58,35.68 41.92,35.68 C 41.28,35.68 41.16,35.7 41.16,35.9 C 41.16,36.03 41.25,36.07 41.82,36.07 H 42.58 C 43.9,36.07 44,36.51 44,37.03 C 44,37.8 43.69,38 42.43,38 H 41.4 Z" fill="rgb(42, 41, 39)"/>
</svg>
