<?xml version="1.0" encoding="UTF-8"?>
<!-- generated by Finnhub -->
<svg viewBox="0 0 55.5 55.5" xmlns="http://www.w3.org/2000/svg">
<path d="M 0,0 H 55.5 V 55.5 H 0 Z" fill="rgb(239, 242, 248)"/>
<path d="M 31.419999999999998,16.974999999999998 C 31.48,17.09 31.39,16.99 31.51,17.09 L 31.69,17.19 C 31.87,17.26 31.98,17.28 32.17,17.34 C 32.11,17.2 32.27,17.07 31.54,16.99 V 16.63 C 31.92,16.66 32.38,16.81 32.57,17.13 C 32.77,17.45 32.92,17.9 33.22,18.03 C 33.54,17.93 33.44,17.76 33.78,17.59 C 34.04,17.57 35.48,18.71 35.82,18.99 C 36,19.14 35.92,19.02 36.04,19.23 C 35.56,19.24 36,19.21 35.8,19.35 C 36.68,19.27 37.5,19.26 38.38,19.2 C 38.84,19.16 39.09,19.13 39.51,19.03 C 40.12,18.88 41.43,18.39 40.61,20.2 C 40.45,20.57 40.29,20.92 40.13,21.32 C 39.73,22.32 39.1,22.9 38.89,23.36 C 39.04,23.32 38.94,23.16 39.22,23.94 A 11.9,11.9 0 0,1 28.32,39.92 C 21.42,40.12 16.13,34.56 16.1,28.07 C 16.1,26.82 16.28,25.54 16.69,24.25 C 16.93,23.48 16.8,23.59 16.97,23.71 C 16.55,22.7 15.91,21.87 15.95,20.14 C 15.98,19.15 16.57,19.29 17.31,19.53 C 17.92,19.71 18.22,19.97 18.94,20.09 L 19.14,20.14 C 19.21,19.77 20.27,18.9 20.6,18.64 C 21.2,18.2 22.97,16.91 23.7,16.94 C 23.6,16.22 23.88,15.94 24.1,15.47 C 22.97,15.87 23.35,15.6 23.24,16.2 L 22.34,16.45 C 22.25,15.91 22.41,13.88 22.46,13.23 L 23.42,12.93 C 23.77,13.3 24.01,13.59 24.32,13.98 C 25.04,14.85 24.88,14.83 25.48,14.84 L 25.28,12.58 L 25.58,12.47 C 26.13,12.32 27,12.17 27.46,12.45 C 28.49,13.09 27.47,14.11 27.47,14.12 C 27.57,14.4 27.97,14.85 28.17,15.05 L 28.2,14.99 L 28.58,12.19 L 29.56,12.33 L 29.48,13.24 C 30.02,13.06 30.18,12.65 30.56,12.41 L 31.41,12.93 C 31.19,13.28 30.41,13.68 30.13,14.05 C 30.27,14.31 30.48,14.46 30.73,14.7 C 31.3,15.24 31.01,15.16 31.13,15.44 C 32.44,15.04 31.38,14.04 31.84,13.44 C 31.91,13.36 32.43,12.9 32.66,12.89 C 32.84,12.88 33.39,13.25 33.54,13.35 C 33.41,13.63 32.91,13.61 32.81,14.07 C 32.73,14.42 33.01,14.86 32.89,15.27 C 32.83,15.48 32.41,15.88 32.18,15.96 C 31.78,16.08 31.58,15.73 31.28,15.6 C 31.49,16.46 31.44,15.87 31.43,16.99 Z M 34.4,12.67 C 33.81,12.64 31.54,11.3 27.26,11.45 C 18.34,11.77 11.34,19.42 11.46,28.2 C 11.5,30.55 12.04,32.97 13.19,35.35 A 18.2,18.2 0 0,0 15.69,39.07 C 18.56,42.47 23.09,44.55 27.79,44.56 C 34.59,44.56 40.74,40.56 43.3,34.3 A 16.57,16.57 0 0,0 37,14.11 C 36.67,13.91 35.9,13.53 35.75,13.26 C 35.57,12.96 35.05,12.33 34.75,12.25 L 34.4,12.67 Z" fill="rgb(71, 19, 20)"/>
<path d="M 21.919999999999998,31.865 C 21.43,32.85 20,35.09 20.19,36.5 C 20.34,36.56 20.65,36.77 20.69,36.94 C 21.05,36.84 20.72,37.02 20.82,36.79 C 20.9,36.62 20.86,36.3 20.89,36.08 C 21.13,33.78 23.51,35.64 23.41,38.6 L 24.05,38.85 C 24.47,38.88 24.18,38.9 24.29,38.72 C 24.09,37.1 25.24,37.61 24.71,39.07 L 25.23,39.17 C 25.97,39.18 26.1,38.19 26.97,38.17 C 27.3,38.47 27.29,38.87 27.19,39.47 L 27.48,39.48 L 28.11,38.07 S 27.66,37.28 28.21,37.54 C 28.94,38.17 30.63,38.67 31.49,37.79 C 31.29,37.72 30.17,37.99 29.04,37.48 A 2.37,2.37 0 0,1 28.2,36.86 C 28.01,36.62 27.72,36.12 27.89,35.76 C 28.09,36.36 28.32,36.74 28.73,37.02 A 3.5,3.5 0 0,0 30.34,37.52 C 31.62,37.59 33.03,36.92 33.08,35.96 C 33.08,35.88 33.02,33.86 32.98,33.78 C 32.97,32.01 32.51,30.21 32.61,29.69 C 32.76,28.99 33.01,28.5 33.31,27.99 C 33.71,27.29 33.2,26.73 33.91,26.11 L 33.92,25.95 C 33.7,24.48 33.85,24.1 32.85,23.37 A 4.5,4.5 0 0,1 31.15,21.45 C 30.67,20.39 30.69,20.18 28.73,20.35 C 27.21,20.47 26.98,20.42 26.33,21.59 C 25.88,22.41 25.53,23.16 24.33,23.23 C 23.22,23.3 22.51,22.46 21.93,21.98 C 21.08,21.28 20.73,21.06 19.38,20.88 C 18.05,20.72 16.85,20.04 16.63,20.21 C 16.25,20.79 16.9,22.35 17.12,22.8 A 4.86,4.86 0 0,0 20.87,25.51 C 22.27,25.76 22.34,25.63 23.07,26.44 C 23.21,28.1 22.77,30.24 21.93,31.88 Z" fill="rgb(237, 165, 26)"/>
<path d="M 23.819999999999997,16.905 C 24.12,18 24.96,17.52 24.47,19.58 L 23.98,21.83 C 23.93,22.08 23.91,22.34 23.73,22.49 C 22.89,23.19 22.29,20.72 20.6,20.44 A 8.52,8.52 0 0,0 18.94,20.29 C 18.24,20.15 16.65,19.31 16.28,19.59 C 15.94,20.15 16.24,21.46 16.42,22.05 C 16.72,23.08 17.22,23.58 17.33,23.92 C 17.61,24.12 17.67,24.55 19.12,25.35 L 20.6,25.9 C 20.98,25.99 21.77,26.06 22.14,26.25 C 22.35,26.35 22.29,26.38 22.51,26.58 C 23.04,27.05 22.99,28 22.87,28.62 C 22.66,29.63 22.05,30.39 21.51,31.19 C 20.99,31.97 20.51,32.87 20.13,33.72 C 19.83,34.4 19.48,35.61 19.44,35.69 C 19.58,35.85 19.7,35.93 19.83,36.06 L 20.19,36.5 C 20,35.1 21.43,32.85 21.93,31.88 C 23,29.81 23.37,29.68 23.15,26.75 C 23.27,26.75 23.37,26.73 23.48,26.76 C 23.73,26.84 23.56,26.71 23.66,26.89 C 23.67,26.99 23.89,27.29 23.88,26.85 L 23.79,26.74 C 24.27,26.64 24.81,26.65 25.06,27 C 24.89,27.53 24.32,27.43 24.02,27.74 L 23.83,27.64 C 23.81,27.64 23.79,27.61 23.77,27.6 C 23.77,27.99 23.53,28.07 23.7,28.45 C 24.08,28.29 23.56,28.23 24.67,27.83 C 25.11,27.67 25.45,27.53 25.4,26.93 C 25.31,25.66 23.77,26.43 23.07,26.43 C 22.34,25.63 22.27,25.76 20.87,25.51 A 4.86,4.86 0 0,1 17.12,22.8 C 16.9,22.35 16.25,20.79 16.63,20.2 C 16.85,20.04 18.05,20.72 19.38,20.89 C 20.74,21.06 21.08,21.29 21.93,21.99 C 22.51,22.46 23.22,23.29 24.33,23.23 C 25.54,23.16 25.88,22.41 26.33,21.59 C 26.98,20.42 27.21,20.47 28.73,20.35 C 30.69,20.18 30.67,20.39 31.15,21.45 C 31.55,22.35 32.1,22.82 32.85,23.37 C 33.85,24.1 33.7,24.48 33.92,25.95 C 34.03,25.91 34.06,26.01 34.06,25.53 C 35.08,25.53 35.9,25.25 36.76,24.81 C 38.74,23.8 39.86,21.78 40.61,19.76 C 41.07,18.52 39.59,19.3 38.4,19.36 C 37.65,19.41 36.59,19.52 35.87,19.46 C 35.66,19.56 35.29,19.58 34.85,19.81 C 33.08,20.71 32.91,21.65 32.59,21.89 C 32.56,21.63 32.49,21.54 32.45,21.26 C 32.31,20.49 32.05,20.29 31.55,19.7 C 30.78,18.75 31.25,18.2 31.25,16.99 C 31.27,15.93 31.12,15.05 30.07,15.03 C 29.62,15.02 29.25,15.3 29.1,15.61 C 28.85,16.1 29.13,16.46 29.19,16.91 C 29.29,17.38 29.35,18.08 29.12,18.57 C 28.32,20.27 26.42,19.11 26.42,17.97 C 26.42,17.62 26.41,17.26 26.45,16.92 C 26.38,16.33 26.44,16.02 26.15,15.58 C 25.37,14.38 23.86,15.24 23.83,16.92 Z" fill="rgb(71, 20, 20)"/>
<path d="M 27.18,39.464999999999996 C 27.32,39.67 28.03,39.49 28.07,39.47 C 28.03,39.19 28.33,38.57 28.46,38.35 C 28.72,38.41 28.99,38.55 29.28,38.64 C 31.06,39.14 31.81,37.87 32,37.7 C 32.2,37.54 32.16,37.6 32.37,37.5 C 32.95,37.2 33.18,36.8 33.35,36.24 C 33.57,35.51 32.95,34.89 33.17,34.46 C 33.57,33.65 33,33.8 33.09,33.12 C 33.32,31.35 32.21,30.75 33.29,28.35 C 33.39,28.15 33.43,28.18 33.49,27.91 C 33.86,28 33.71,28.09 34.05,28.12 C 34.02,27.73 33.92,27.87 33.85,27.55 C 33.58,27.67 33.48,27.55 33.2,27.37 C 32.97,27.22 32.8,27.15 32.81,26.79 C 33.06,26.47 33.59,26.44 33.91,26.67 C 34.11,26.52 34.39,26.55 34.67,26.5 C 35.19,26.42 35.19,26.35 35.24,26.16 L 33.91,26.11 C 33.31,26.21 32.64,26.15 32.48,26.76 C 32.34,27.29 33.07,27.61 33.36,27.84 C 33.44,28.04 33.47,27.92 33.32,27.98 C 33.01,28.5 32.76,28.98 32.61,29.69 C 32.39,30.67 32.48,30.84 32.58,31.76 C 32.38,31.68 32.43,31.63 32.21,31.51 C 32.07,31.44 31.93,31.42 31.77,31.37 C 30.8,31.07 30.47,28.21 30.71,27.02 C 30.86,26.32 31.19,26.02 31.52,25.59 C 33.02,23.69 31.42,23.42 30.94,22.84 C 30.14,21.87 31.51,20.33 28.68,20.65 C 28.07,20.72 27.52,21 27.44,21.62 C 27.29,22.69 27.71,22.64 26.86,23.3 C 25.49,24.37 27.06,25.5 27.58,26.06 A 6.7,6.7 0 0,1 29.03,29.06 C 29.47,31.64 28.29,31.16 28.21,32.57 C 28.59,32.37 28.98,31.67 29.7,31.91 C 30.69,32.24 29.07,34.13 30.92,33.68 C 31.19,33.06 30.82,32.35 31.42,31.99 C 31.97,31.66 32.61,32.17 32.72,32.62 C 32.81,33.01 32.66,33.22 32.82,33.62 C 33,34.05 33.02,34.02 32.78,34.42 C 32.48,34.94 33.11,35.29 33.08,35.96 C 33.03,36.92 31.62,37.59 30.34,37.52 A 3.5,3.5 0 0,1 28.74,37.02 C 28.32,36.74 28.09,36.35 27.89,35.77 C 27.72,36.12 28.01,36.62 28.19,36.86 C 28.39,37.09 28.71,37.33 29.04,37.48 C 30.17,37.99 31.28,37.72 31.49,37.78 C 30.63,38.67 28.94,38.17 28.21,37.54 C 26.76,36.3 27.72,35.08 27.77,34.21 C 27.81,33.53 27.07,33.45 26.56,33.16 C 25.15,32.39 26.43,31.6 25.44,29.82 C 25.29,29.56 25.16,29.38 25.02,29.11 C 24.9,28.88 24.82,28.51 24.69,28.34 C 24.64,29.42 25.52,29.85 25.6,30.92 C 25.72,32.42 25.28,32.72 26.43,33.51 C 26.79,33.75 27.39,33.79 27.43,34.28 C 27.49,35.08 26.09,36.13 28.11,38.07 L 27.48,39.48 H 27.18 Z" fill="rgb(71, 20, 20)"/>
<path d="M 34.39,12.655 L 34.74,12.25 C 35.06,12.33 35.57,12.95 35.74,13.26 C 35.9,13.53 36.67,13.9 37,14.11 C 50.79,22.93 43.64,44.73 27.8,44.56 A 16.36,16.36 0 0,1 17.84,41.06 A 15.1,15.1 0 0,1 15.69,39.07 A 16.58,16.58 0 0,1 27.26,11.45 C 31.54,11.3 33.81,12.64 34.4,12.67 Z M 27.83,45 C 37.57,45 45.1,36.95 45,27.5 A 16.98,16.98 0 0,0 37.54,13.92 C 37.11,13.63 36.31,13.22 36.13,12.95 C 35.87,12.55 35.25,11.8 34.75,11.8 C 34.45,11.8 34.33,11.92 34.26,12.15 C 32.16,11.98 30.21,10.98 27.99,11 C 18.83,11.09 10.97,18.54 11,28 C 11.03,37.01 18.5,45 27.83,45 Z" fill="rgb(4, 3, 2)"/>
<path d="M 38.660000000000004,23.355 C 38.59,23.68 38.61,23.71 38.74,23.99 C 39.28,25.14 39.37,26.47 39.5,27.71 C 39.5,30 38.64,32.71 37.41,34.57 A 11.76,11.76 0 0,1 31.18,39.04 A 11.1,11.1 0 0,1 28.08,39.47 C 23.85,39.47 19.97,37.02 17.89,33.44 C 17.43,32.64 17.07,31.54 16.83,30.65 A 10.86,10.86 0 0,1 17.26,23.97 C 17.17,23.9 17.19,23.9 17.09,23.81 C 17.02,23.74 17.04,23.75 16.97,23.71 C 16.8,23.59 16.93,23.48 16.69,24.25 A 11.91,11.91 0 0,0 28.32,39.91 A 11.96,11.96 0 0,0 40,27.96 C 40,26.62 39.7,25.26 39.22,23.94 C 38.94,23.17 39.04,23.32 38.89,23.36 L 38.67,23.37 Z" fill="rgb(4, 3, 2)"/>
<path d="M 33.18,22.245 C 33.78,21.96 33.76,21.74 35.05,21.28 A 7.7,7.7 0 0,1 37.53,20.8 C 37.38,20.95 37.62,20.8 37.32,20.95 A 49.92,49.92 0 0,1 36.57,21.25 C 35.87,21.57 34.57,22.45 34.34,23.02 A 7.7,7.7 0 0,0 36.82,22.35 C 36.69,23.01 34.94,23.47 34.41,23.79 L 34.31,23.85 C 34.52,24.04 34.99,24.01 35.31,23.99 C 35.65,23.96 35.91,23.84 36.21,23.79 C 35.57,24.38 35.15,24.59 34.02,24.73 L 34.04,25.33 C 35.99,25.32 39.06,22.26 39.97,20.46 C 40.67,19.08 39.72,19.61 38.87,19.78 C 37.1,20.14 35.97,19.53 34.43,20.72 C 34.09,20.98 33.32,21.72 33.19,22.26 Z" fill="rgb(237, 165, 26)"/>
<path d="M 25.13,32.585 C 25.19,31.89 25.24,31.42 24.64,31.19 C 23.26,30.66 21.34,32.79 21.74,34.2 C 21.82,34.53 22.48,34.95 22.73,35.26 C 23.06,35.66 23.42,35.97 24.13,35.64 C 25.49,35.02 25.01,34.17 25.13,32.6 Z" fill="rgb(71, 19, 20)"/>
<path d="M 24.04,38.835 C 24.06,38.87 24.09,38.86 24.1,38.89 C 24.14,38.97 24.29,38.97 24.33,38.98 C 24.49,39.02 24.51,38.99 24.71,39.07 C 25.1,38.77 25.48,39.17 25.96,38.37 C 26.42,37.62 26.71,35.82 26.53,35.1 C 26.42,34.67 26.03,34.04 25.5,34.26 C 25.16,34.48 25.19,34.86 25.02,35.33 C 24.86,35.78 24.67,35.93 24.43,36.28 C 23.93,37.01 23.83,38.34 24.29,38.72 C 24.19,38.9 24.47,38.88 24.05,38.85 Z M 21.25,24 L 19.17,23.06 C 18.88,22.91 18.79,22.78 18.54,22.66 C 18.84,23.08 18.9,23.2 19.29,23.56 L 20.02,24.09 C 20.07,24.12 20.12,24.14 20.16,24.18 C 20.25,24.24 20.23,24.22 20.29,24.28 C 19.84,24.28 19.58,24.13 19.21,24.06 C 19.61,25.02 21.47,24.48 22.07,24.85 C 22.51,25.12 22.5,25.55 22.93,25.52 C 23.13,25.26 23.13,24.83 23.11,24.48 C 23.09,23.9 22.98,23.91 22.68,23.61 C 21.39,22.33 19.63,21.18 17.53,21.33 C 17.7,21.53 18.94,22.03 19.57,22.44 C 20.13,22.81 21.07,23.53 21.25,24 Z" fill="rgb(71, 19, 20)"/>
<path d="M 22.15,42.644999999999996 C 22.26,42.53 22.32,42.41 22.41,42.24 C 22.53,42.04 22.5,41.99 22.71,41.9 C 22.71,42.2 22.69,42.64 22.76,42.85 C 22.94,43.05 23.27,43.15 23.48,42.9 C 23.81,42.52 23.72,42.43 24.08,42.3 L 23.98,43.25 C 24.19,43.42 24.68,43.58 24.95,43.59 C 25.02,42.98 24.97,42.26 24.97,41.64 C 24.97,41.34 25,40.91 24.98,40.64 C 24.96,40.29 24.79,40.29 24.4,40.24 C 24.02,40.68 23.75,41.22 23.5,41.29 L 23.48,39.95 L 22.86,39.76 C 22.68,39.99 22.58,40.23 22.44,40.45 C 22.17,40.89 21.37,42.03 21.27,42.41 C 21.52,42.54 21.87,42.64 22.16,42.66 Z" fill="rgb(251, 251, 249)"/>
<path d="M 20.68,36.925 L 21.05,37.16 C 21.15,37.22 21.25,37.31 21.36,37.39 C 22.16,37.95 22.97,38.27 23.41,38.59 C 23.51,35.64 21.13,33.78 20.89,36.08 C 20.86,36.3 20.91,36.62 20.83,36.79 C 20.73,37.02 21.05,36.83 20.69,36.94 Z" fill="rgb(71, 19, 20)"/>
<path d="M 27.99,41.585 C 28,41.16 28,41.15 27.85,40.73 L 25.81,40.67 C 25.74,41.37 25.53,43.05 25.62,43.67 L 27.69,43.79 C 27.81,43.49 27.89,43.41 27.9,43.1 C 27.23,43.04 26.56,43.19 26.53,42.76 C 26.78,42.5 27.43,42.69 27.79,42.66 A 1.5,1.5 0 0,0 27.66,41.92 L 26.61,41.8 V 41.55 C 27.38,41.37 27.93,41.88 27.99,41.6 Z" fill="rgb(249, 248, 247)"/>
<path d="M 13.61,30.615 L 12.58,30.77 C 12.7,31.14 13.08,31.27 13.3,31.62 L 13.14,32.69 C 13.37,32.61 14.04,32.23 14.17,32.23 C 14.35,32.23 14.84,32.6 15.15,32.67 L 15,31.62 C 15.18,31.36 15.61,31.05 15.72,30.78 L 14.68,30.63 L 14.2,29.65 C 13.98,29.99 13.84,30.32 13.63,30.63 Z M 41.27,30.64 L 40.2,30.77 C 40.3,30.97 40.66,31.29 40.91,31.55 C 40.96,31.93 40.81,32.31 40.77,32.68 C 41.06,32.6 41.6,32.23 41.77,32.23 C 41.95,32.23 42.47,32.6 42.8,32.68 L 42.6,31.63 C 42.85,31.28 43.17,31.19 43.36,30.78 C 43.09,30.73 42.41,30.72 42.26,30.55 C 42.06,30.33 42.01,29.82 41.76,29.67 L 41.26,30.64 Z" fill="rgb(237, 165, 26)"/>
<path d="M 34.690000000000005,38.825 C 34.7,39.27 35.2,41.64 35.38,41.98 C 35.59,41.94 35.96,41.68 36.14,41.56 L 36.1,41.08 L 36.92,40.53 C 37.19,40.75 37.37,40.93 38.07,40.23 A 17.28,17.28 0 0,0 35.52,38.32 C 35.28,38.4 34.88,38.7 34.7,38.84 Z M 28.1,40.92 L 28.18,41.82 L 28.35,43.8 L 29.3,43.72 L 29.28,42.8 C 29.75,42.93 29.86,43.36 30.21,43.63 L 31.01,43.56 C 31.01,43.2 30.47,42.84 30.31,42.48 C 30.45,42.19 30.72,42.03 30.74,41.7 C 30.85,40.1 28.88,40.84 28.1,40.92 Z M 17.96,40.24 C 18.58,40.85 18.73,40.67 19.01,40.51 C 19.23,40.59 19.35,40.69 19.55,40.82 C 19.9,41.05 19.8,41.04 19.79,41.5 C 20.13,41.69 20.29,41.93 20.62,41.98 C 20.79,41.54 21.38,39.25 21.36,38.87 C 21.13,38.7 20.83,38.47 20.55,38.33 L 19.2,39.23 C 19,39.38 18.75,39.57 18.54,39.7 C 18.31,39.85 18.04,39.98 17.96,40.24 Z" fill="rgb(251, 251, 249)"/>
<path d="M 26.74,27.375 C 26.37,27.43 25.95,27.07 25.9,27.49 C 25.84,27.99 26.74,28.6 26.99,28.82 C 27.37,29.15 27.15,29.26 27.41,29.57 C 28.21,29.43 28.01,26.96 27.31,26.46 C 26.61,25.95 26.82,27.15 26.75,27.39 Z M 24.55,23.76 C 23.23,24.21 25.1,26.25 26.08,26.18 C 26.91,26.12 25.92,24.97 25.78,24.78 C 25.55,24.43 25.07,23.58 24.55,23.76 Z" fill="rgb(71, 19, 20)"/>
<path d="M 34.6,41.635 C 31.31,41.6 35.17,40.32 33.21,39.61 C 32.71,39.91 32.06,40.7 32.34,41.61 C 32.52,42.22 33.56,42.63 34.4,42.46 C 34.57,42.26 34.6,41.93 34.61,41.66 Z M 19.4,14.72 L 20.83,17.39 L 21.68,17 C 21.58,16.68 21.38,16.5 21.27,16.15 C 21.57,15.78 21.95,15.82 22,15.19 A 0.9,0.9 0 0,0 21.58,14.35 C 20.75,13.78 20.06,14.51 19.41,14.72 Z M 30.8,40.48 C 30.75,40.66 31.38,43.01 31.49,43.36 C 31.82,43.39 32.21,43.23 32.49,43.11 L 31.79,40.21 C 31.49,40.21 31.02,40.34 30.79,40.48 Z" fill="rgb(251, 251, 249)"/>
<path d="M 26.689999999999998,16.544999999999998 L 26.69,16.12 C 26.99,16.14 28.19,16.04 28.52,16.09 L 28.73,16.16 V 16.5 C 29,16.31 28.78,16.58 28.85,15.87 C 28.87,15.63 28.95,15.56 29.02,15.37 C 28.52,15.07 27.5,15.36 27.34,15.27 C 27.16,15.1 26.66,14.47 26.46,14.44 C 26.4,14.71 26.46,14.78 26.45,15.03 C 26.44,15.4 26.33,15.37 26.3,15.52 C 26.68,16.04 26.43,16.3 26.7,16.56 Z" fill="rgb(70, 19, 20)"/>
<path d="M 27.25,30.064999999999998 C 27.12,29.43 26.42,28.58 25.92,28.46 C 25.89,29.19 26.4,29.5 26.52,30.11 C 26.64,30.74 26.33,31.52 26.5,32.11 C 27.34,32.17 27.44,30.87 27.26,30.08 Z" fill="rgb(71, 19, 20)"/>
<path d="M 32.15,17.325 C 32.25,17.52 32.32,17.59 32.42,17.78 C 32.65,18.21 32.88,18.56 33.41,18.45 C 33.68,18.39 33.71,18.25 33.91,18.11 C 34.11,18.39 34.77,18.74 35.27,19.13 C 35.5,19.3 35.5,19.4 35.8,19.35 C 36,19.21 35.56,19.25 36.04,19.23 C 35.91,19.03 36,19.14 35.82,19 C 35.48,18.7 34.04,17.57 33.77,17.59 C 33.44,17.76 33.54,17.93 33.22,18.02 C 32.92,17.9 32.76,17.45 32.57,17.13 C 32.37,16.81 31.92,16.66 31.54,16.63 V 16.99 C 32.27,17.07 32.11,17.2 32.17,17.34 Z M 19.15,20.14 C 19.35,20.24 19.35,20.21 19.64,20.21 C 19.74,19.85 20.69,19.15 21,18.91 C 21.69,18.37 22.41,17.91 23.21,17.56 L 23.84,17.26 C 23.78,17.16 23.76,17.04 23.71,16.94 C 22.96,16.91 21.19,18.2 20.6,18.64 C 20.27,18.9 19.2,19.77 19.15,20.14 Z" fill="rgb(4, 3, 2)"/>
<path d="M 28.45,28.505 C 28.18,28.66 28.18,28.94 28.08,29.28 C 27.95,29.74 27.31,31.68 28.05,31.84 C 28.58,31.96 28.85,30.08 28.75,29.3 C 28.66,28.63 28.67,28.66 28.45,28.52 Z" fill="rgb(71, 19, 20)"/>
<path d="M 34.04,15.705 C 34.35,15.32 35.37,13.62 35.51,13.21 C 35.37,13.01 34.98,12.57 34.75,12.52 L 33.65,14.98 C 33.61,15.26 33.89,15.61 34.05,15.72 Z" fill="rgb(251, 251, 249)"/>
<path d="M 23.97,28.595 C 23.34,29.09 23.36,31.07 24.38,30.82 C 25.2,30.62 24.7,29.15 23.98,28.62 Z M 31.94,25.88 C 32.55,26.24 33.11,25.66 33.3,25.2 C 33.59,24.48 33.12,23.77 32.5,23.78 C 32.3,24.25 32.44,24.45 32.36,24.96 C 32.26,25.56 31.91,25.36 31.94,25.88 Z" fill="rgb(71, 19, 20)"/>
<path d="M 32.11,28.845 C 32.24,28.33 31.91,27.91 32.12,27.15 C 32.19,26.88 32.29,26.64 32.15,26.38 C 31.74,25.6 30.93,27.04 31.24,27.85 C 31.34,28.15 31.76,28.9 32.12,28.85 Z" fill="rgb(71, 18, 19)"/>
<path d="M 30.99,28.605 C 30.94,29.2 31.13,29.67 31.29,30.12 C 31.51,30.74 31.56,31.15 31.93,31.16 C 32.53,30.46 31.66,28.58 31,28.62 Z" fill="rgb(71, 19, 20)"/>
<path d="M 29.049999999999997,34.385 C 29.02,34 28.86,33.88 28.91,33.48 C 29.15,33.6 29.05,33.7 29.3,33.88 C 30.12,33.68 29.52,32.02 28.73,32.66 C 28.19,33.1 28.13,34.26 29.06,34.4 Z" fill="rgb(1, 1, 0)"/>
<path d="M 25.22,39.155 A 9,9 0 0,0 27.19,39.47 C 27.29,38.87 27.29,38.47 26.97,38.17 C 26.1,38.19 25.97,39.18 25.23,39.17 Z" fill="rgb(69, 17, 19)"/>
<path d="M 16.959999999999997,23.695 C 17.04,23.75 17.02,23.74 17.09,23.81 C 17.19,23.91 17.17,23.9 17.26,23.97 L 17.33,23.92 C 17.23,23.58 16.72,23.08 16.42,22.05 C 16.24,21.45 15.94,20.15 16.28,19.59 C 16.65,19.31 18.23,20.15 18.94,20.29 V 20.09 C 18.22,19.97 17.92,19.71 17.31,19.53 C 16.57,19.29 15.98,19.15 15.95,20.13 C 15.91,21.87 16.55,22.7 16.97,23.71 Z" fill="rgb(240, 236, 235)"/>
<path d="M 33.34,17.585 C 33.55,17.49 33.93,17 34.05,16.7 C 33.95,16.46 33.71,16.02 33.57,15.88 C 33.34,15.98 32.87,16.62 32.75,16.98 C 32.84,17.33 33.01,17.55 33.35,17.61 Z" fill="rgb(251, 251, 249)"/>
<path d="M 31.819999999999997,34.135 C 32.59,34.55 32.59,32.93 32.15,32.62 C 31.44,32.12 30.96,33.4 31.75,33.71 C 31.95,33.49 31.78,33.51 32.04,33.37 C 32.34,33.9 31.91,33.7 31.83,34.15 Z" fill="rgb(1, 1, 0)"/>
<path d="M 21.799999999999997,42.225 C 22.06,42.18 22.34,41.64 22.49,41.4 L 22.99,40.62 C 22.99,40.92 23.12,42.39 23.21,42.54 C 23.38,42.47 23.26,42.52 23.37,42.43 A 0.69,0.69 0 0,0 23.54,42.25 C 23.87,41.85 24.13,41.26 24.46,41.1 L 24.42,42.9 C 24.47,43.1 24.42,43 24.56,43.13 L 24.52,40.83 C 24.09,40.95 23.63,42.05 23.22,42.21 L 23.12,40.34 A 5.4,5.4 0 0,0 22.07,41.69 C 21.97,41.89 21.82,42.04 21.81,42.24 Z" fill="rgb(148, 118, 118)"/>
<path d="M 28.709999999999997,41.185 C 28.97,41.15 29.37,41.06 29.62,41.1 C 30.45,41.25 30.34,42.5 28.79,42.44 L 28.72,41.21 Z M 28.56,41.1 C 28.43,41.47 28.6,41.49 28.62,42.2 C 28.62,42.55 28.63,43.14 28.81,43.4 C 28.87,43.31 28.86,43.4 28.89,43.24 C 28.93,43.02 28.83,42.79 28.84,42.61 C 30.1,42.21 29.71,43.08 30.39,43.29 C 30.37,43.01 30.29,43.09 30.1,42.87 C 30,42.75 30.01,42.73 29.93,42.62 C 29.83,42.47 29.87,42.51 29.73,42.41 C 31.13,41.35 29.81,40.58 28.56,41.09 Z M 26.04,43.43 A 3.5,3.5 0 0,0 27.39,43.46 C 27.24,43.32 27.01,43.36 26.77,43.34 A 1.7,1.7 0 0,1 26.21,43.24 C 26.16,42.94 26.2,42.61 26.26,42.3 C 26.71,42.2 26.93,42.34 27.13,42.35 C 27.6,42.36 27.3,42.35 27.4,42.27 C 27.05,42.12 26.66,42.15 26.27,42.12 L 26.32,41.17 C 26.7,41.11 26.99,41.21 27.27,41.23 C 27.6,41.25 27.56,41.19 27.61,41.15 A 2.96,2.96 0 0,0 26.21,41 A 9.85,9.85 0 0,0 26.04,43.43 Z" fill="rgb(140, 114, 113)"/>
<path d="M 25.91,12.844999999999999 C 26.51,12.66 27.3,12.61 27.3,13.34 C 27.3,13.94 26.58,14 26.01,14.13 C 25.94,13.8 25.87,13.23 25.91,12.86 Z M 25.76,12.74 C 25.72,13.04 25.85,14.82 25.94,15 C 26.08,14.81 25.94,14.64 26.04,14.19 L 26.79,14.15 C 27.01,14.36 27.29,14.84 27.55,14.94 C 27.47,14.66 27.5,14.83 27.24,14.5 C 27.12,14.35 27.01,14.2 26.91,14.03 C 27.81,13.55 27.53,12.7 26.77,12.58 A 2.8,2.8 0 0,0 25.76,12.74 Z" fill="rgb(130, 99, 98)"/>
<path d="M 35.330000000000005,38.955 C 35.6,39.05 36.63,39.74 36.86,39.96 C 36.71,40.19 35.87,40.68 35.66,40.79 C 35.56,40.19 35.35,39.6 35.34,38.97 Z M 35.2,38.93 C 35.14,39.21 35.27,39.7 35.33,40.01 C 35.37,40.25 35.47,40.92 35.59,41.11 L 35.66,41.01 L 36.99,40.07 C 37.28,40.14 37.18,40.16 37.41,40.24 C 37.32,39.98 37.16,39.97 36.93,39.81 L 36.69,39.62 L 35.85,39.08 C 35.63,38.93 35.5,38.73 35.2,38.93 Z" fill="rgb(108, 73, 73)"/>
<path d="M 20.389999999999997,40.765 A 4.4,4.4 0 0,1 19.2,40.03 C 19.32,39.83 19.32,39.87 19.54,39.73 C 19.89,39.48 20.32,39.15 20.7,39 C 20.77,39.39 20.45,40.29 20.4,40.78 Z M 18.62,40.22 C 19.15,40.13 18.55,39.76 20.09,40.77 C 20.42,40.99 20.33,40.93 20.32,41.38 C 20.56,41.13 20.62,40.39 20.69,40.04 C 20.76,39.74 21.09,38.86 20.62,38.85 A 9.5,9.5 0 0,0 18.62,40.22 Z" fill="rgb(113, 75, 75)"/>
<path d="M 33.690000000000005,27.195 C 33.7,27.03 33.81,27.21 33.75,27.21 C 33.75,27.21 33.7,27.41 33.7,27.21 Z M 33.7,26.93 C 33.7,26.75 33.81,26.93 33.75,26.93 C 33.75,26.93 33.7,27.13 33.7,26.93 Z M 33.84,27.55 C 34.04,27.27 33.92,26.8 33.91,26.67 C 33.59,26.44 33.06,26.47 32.81,26.79 C 32.8,27.15 32.97,27.22 33.21,27.37 C 33.48,27.55 33.58,27.67 33.84,27.55 Z" fill="rgb(9, 7, 5)"/>
<path d="M 23.66,26.945 L 23.66,26.89 C 23.62,27.23 23.6,27.37 23.76,27.59 L 23.83,27.64 L 24.02,27.74 C 24.32,27.44 24.88,27.53 25.06,27 C 24.81,26.65 24.27,26.65 23.79,26.74 C 23.87,27 23.77,26.9 23.67,26.97 Z" fill="rgb(1, 1, 0)"/>
<path d="M 20.08,14.844999999999999 C 20.39,14.81 20.49,14.66 20.83,14.62 C 21.77,14.54 21.58,15.85 20.6,15.93 C 20.46,15.63 20.17,15.2 20.09,14.86 Z M 19.91,14.89 C 20.03,15.21 20.28,15.6 20.47,15.94 C 20.62,16.21 20.8,16.79 21.09,16.9 L 20.75,16.16 C 21.08,15.81 21.95,15.56 21.53,14.81 C 21.19,14.21 20.45,14.43 19.91,14.89 Z" fill="rgb(123, 90, 89)"/>
<path d="M 28.79,14.885 C 28.9,14.7 28.9,14.31 29.01,14.03 C 29.81,13.98 29.66,14.61 30.27,14.88 C 30.13,14.38 29.7,14.33 29.53,13.91 C 29.8,13.64 30.46,13.34 30.6,13.18 C 30.71,13.05 30.65,13.14 30.72,12.96 C 30.25,13.12 29.84,13.76 28.97,13.93 L 29.09,12.93 C 29.09,12.63 29.07,12.66 29.02,12.59 C 28.84,12.87 28.86,13.4 28.82,13.77 C 28.77,14.27 28.56,14.85 28.81,14.91 Z" fill="rgb(120, 84, 83)"/>
<path d="M 26.689999999999998,16.544999999999998 C 27.38,16.55 27.95,16.42 28.74,16.5 V 16.16 L 28.52,16.09 C 28.18,16.04 26.99,16.14 26.69,16.12 L 26.71,16.56 Z" fill="rgb(1, 1, 0)"/>
<path d="M 23.04,13.514999999999999 C 23.41,13.61 23.26,13.64 23.75,14.19 L 24.33,14.89 A 0.63,0.63 0 0,1 24.28,14.91 L 24.24,14.93 L 22.91,15.35 L 23.05,13.53 Z M 22.8,15.46 C 22.77,15.52 22.7,15.6 22.7,15.72 C 22.7,16.14 22.7,15.83 22.79,15.95 C 22.98,15.8 22.86,15.85 22.96,15.55 C 23.06,15.45 22.95,15.53 23.12,15.45 C 23.24,15.39 23.22,15.4 23.34,15.37 L 24.46,15.01 L 24.52,14.99 L 23.46,13.65 C 23.32,13.49 23.29,13.3 22.99,13.45 C 22.76,13.69 22.76,15.09 22.79,15.46 Z" fill="rgb(123, 90, 89)"/>
<path d="M 27.61,31.985 C 27.04,32.17 27.1,33.16 27.62,33.28 C 27.9,33.01 27.97,32.26 27.62,32 Z" fill="rgb(71, 19, 20)"/>
<path d="M 34.13,42.045 C 33.74,41.87 33.11,41.94 32.92,41.46 C 32.68,40.87 33.19,40.5 33.28,40.09 C 32.94,40.26 31.92,41.59 33.68,42.09 C 34.28,42.27 34.08,42.1 34.14,42.06 Z" fill="rgb(120, 84, 83)"/>
<path d="M 31.91,15.504999999999999 C 32.35,15.65 32.5,15 32.42,14.57 C 32.2,13.43 32.62,13.87 32.79,13.34 C 32.25,13.44 32.15,13.84 32.22,14.4 C 32.33,15.26 32.35,14.99 31.92,15.52 Z" fill="rgb(123, 90, 89)"/>
<path d="M 29.189999999999998,42.055 C 29.58,42.04 29.73,41.92 29.78,41.55 C 29.52,41.34 29.58,41.3 29.14,41.35 L 29.21,42.07 Z M 26.43,13.7 C 27.07,13.68 27.17,12.82 26.28,13.02 L 26.43,13.7 Z" fill="rgb(69, 16, 16)"/>
<path d="M 31.56,41.185 C 31.4,40.5 31.54,40.8 31.26,40.66 C 31.29,40.91 31.37,41.05 31.43,41.33 L 31.56,41.81 C 31.62,42.03 31.68,42.18 31.71,42.35 C 31.76,42.61 31.73,42.62 31.89,42.86 C 31.91,42.81 31.94,42.84 31.94,42.7 C 31.94,42.48 31.94,42.7 31.92,42.58 C 31.92,42.57 31.85,42.38 31.84,42.29 C 31.79,42.09 31.77,41.99 31.69,41.75 C 31.65,41.62 31.62,41.38 31.57,41.2 Z" fill="rgb(132, 105, 104)"/>
<path d="M 34.11,14.885 C 34.32,14.64 34.9,13.66 34.87,13.37 C 34.64,13.47 34.31,14.2 34.16,14.51 C 33.91,14.99 34.1,14.85 34.12,14.89 Z" fill="rgb(67, 32, 6)"/>
<path d="M 20.54,14.924999999999999 C 20.62,15.31 20.68,15.37 20.9,15.47 C 21.11,15.36 21.09,15.39 21.16,15.17 L 21.1,15.07 L 20.97,14.89 L 20.55,14.94 Z" fill="rgb(69, 16, 16)"/>
<path d="M 35.86,40.285 C 36.15,40.31 36.26,40.24 36.33,40.03 A 0.85,0.85 0 0,0 35.83,39.72 L 35.87,40.29 Z" fill="rgb(71, 20, 20)"/>
<path d="M 19.669999999999998,39.975 C 19.8,40.23 19.79,40.24 20.06,40.34 C 20.23,40.09 20.25,40.01 20.22,39.72 L 19.68,39.99 Z" fill="rgb(69, 17, 19)"/>
<path d="M 23.74,14.865 C 23.73,14.58 23.59,14.47 23.33,14.38 V 14.99 L 23.75,14.87 Z" fill="rgb(67, 13, 15)"/>
<path d="M 29.169999999999998,15.135 C 29.34,15.1 29.53,14.98 29.68,14.89 C 29.56,14.69 29.49,14.62 29.28,14.54 L 29.18,15.15 Z" fill="rgb(71, 20, 20)"/>
<path d="M 23.93,27.325 C 23.87,27.25 23.91,27.36 23.87,27.21 A 0.64,0.64 0 0,1 23.87,26.97 H 23.67 C 23.72,27.2 23.66,27.22 23.77,27.43 C 24.06,27.46 23.79,27.45 23.94,27.34 Z" fill="rgb(209, 208, 207)"/>
<path d="M 33.27,17.044999999999998 C 33.41,17.02 33.45,17.15 33.48,16.9 C 33.51,16.72 33.42,16.75 33.28,16.72 C 33.18,16.92 33.18,16.85 33.28,17.06 Z" fill="rgb(76, 46, 19)"/>
</svg>
