<?xml version="1.0" encoding="UTF-8"?>
<!-- generated by Finnhub -->
<svg viewBox="0 0 55.5 55.5" xmlns="http://www.w3.org/2000/svg">
<path d="M 0,0 H 55.5 V 55.5 H 0 Z" fill="rgb(239, 242, 248)"/>
<path d="M 47.99,32.726 L 47.995,32.739 V 32.74 S 34.955,29.798 16.154,36 C 16.154,36 18.024,34.132 23.662,31.085 C 24.022,30.892 24.376,30.689 24.725,30.477 C 19.77,30.713 14.153,31.377 8.001,32.733 C 8.001,32.733 10.539,30.648 17.901,27.578 C 25.533,24.395 22.095,22.891 19.624,21.055 C 17.154,19.219 28.364,18.091 48.001,32.741 Z" fill="url(#b)"/>
<path d="M 24.555999999999997,25.735 C 26.524,26.927 29.13,27.805 24.73,30.48 C 39.035,29.799 47.818,32.68 48,32.741 C 31.309,22.676 22.466,24.49 24.566,25.751 Z" fill="url(#a)"/>
<defs>
<linearGradient id="b" x1="31.373" x2="14.199" y1="24.395" y2="33.043" gradientUnits="userSpaceOnUse">
<stop stop-color="rgb(1, 189, 223)" offset="0"/>
<stop stop-color="rgb(1, 28, 65)" offset="1"/>
</linearGradient>
<linearGradient id="a" x1="37.367" x2="25.611" y1="23.243" y2="30.737" gradientUnits="userSpaceOnUse">
<stop stop-color="rgb(254, 216, 2)" offset="0"/>
<stop stop-color="rgb(246, 143, 28)" offset="1"/>
</linearGradient>
</defs>
</svg>
