<?xml version="1.0" encoding="UTF-8"?>
<!-- generated by Finnhub -->
<svg viewBox="0 0 55.5 55.5" xmlns="http://www.w3.org/2000/svg">
<path d="M 0,0 H 55.5 V 55.5 H 0 Z" fill="rgb(239, 242, 248)"/>
<path d="M 26.99,14.205 L 26.05,10.18 L 26.34,10.11 L 27.3,14.15 L 27,14.22 Z M 28.82,14.45 L 29.81,10.27 L 30.1,10.34 L 29.1,14.52 L 28.82,14.45 Z M 26.4,15.65 L 25.29,11.55 L 25.58,11.47 L 26.68,15.58 L 26.4,15.66 Z M 29.35,15.57 L 30.5,12.02 L 30.79,12.12 L 29.64,15.67 L 29.35,15.57 Z M 31.2,13.77 L 30.2,16.9 L 29.92,16.8 L 30.92,13.68 L 31.2,13.78 Z M 18.48,17.41 L 16.73,13.93 L 17,13.79 L 18.75,17.28 L 18.48,17.41 Z M 37.17,17.47 L 39.02,14.11 L 39.28,14.26 L 37.43,17.62 L 37.17,17.47 Z M 25.74,17.28 L 24.94,14.22 L 25.23,14.15 L 26.03,17.21 L 25.73,17.28 Z M 19.85,17.9 L 18.31,14.73 L 18.58,14.6 L 20.12,17.77 L 19.85,17.9 Z M 35.61,18.05 L 37.33,14.73 L 37.59,14.87 L 35.88,18.18 L 35.61,18.05 Z M 21.77,18.56 L 20.09,15.71 L 20.35,15.56 L 22.02,18.41 L 21.77,18.56 Z M 31.71,15.79 L 30.71,17.9 L 30.44,17.77 L 31.44,15.67 L 31.71,15.79 Z M 34.15,18.49 L 35.4,15.97 L 35.67,16.1 L 34.42,18.62 L 34.15,18.48 Z M 41.28,16.59 L 38.85,17.94 L 38.7,17.68 L 41.13,16.33 L 41.28,16.59 Z M 14.7,16.51 L 17.97,18.46 L 17.81,18.72 L 14.55,16.77 L 14.7,16.51 Z M 23.08,18.98 L 21.97,16.88 L 22.24,16.73 L 23.34,18.83 L 23.08,18.98 Z M 32.95,18.83 L 33.79,17.08 L 34.06,17.21 L 33.22,18.96 L 32.95,18.83 Z M 41.93,17.43 L 38.44,19.09 L 38.31,18.82 L 41.8,17.15 L 41.93,17.42 Z M 18.77,20.45 L 14.29,17.97 L 14.44,17.71 L 18.92,20.19 L 18.77,20.45 Z M 40.8,19.39 L 37.85,20.59 L 37.74,20.31 L 40.69,19.11 L 40.8,19.39 Z M 15.44,19.46 L 19.67,21.98 L 19.51,22.24 L 15.29,19.71 L 15.44,19.46 Z M 39.88,20.93 L 37.26,22.06 L 37.14,21.78 L 39.76,20.65 L 39.88,20.93 Z M 18.99,22.99 L 16.39,21.44 L 16.54,21.18 L 19.14,22.73 L 19,23 Z M 17.67,25.06 L 15.69,24.04 L 15.82,23.77 L 17.81,24.8 L 17.67,25.06 Z M 40.22,24.49 L 38.02,25.27 L 37.92,24.99 L 40.12,24.21 L 40.22,24.49 Z M 16.92,25.55 L 13.95,24.52 L 14.05,24.24 L 17.03,25.27 L 16.93,25.55 Z M 41.9,25.02 L 38.88,25.92 L 38.8,25.62 L 41.82,24.73 L 41.9,25.03 Z M 15.81,26.18 L 12.36,25.08 L 12.45,24.78 L 15.91,25.89 L 15.81,26.18 Z M 43.76,25.5 L 40.35,26.53 L 40.26,26.24 L 43.67,25.21 L 43.76,25.5 Z M 10.76,25.55 L 14.85,26.46 L 14.78,26.76 L 10.7,25.85 L 10.77,25.55 Z M 45.86,26.26 L 41.81,27.19 L 41.74,26.89 L 45.8,25.97 L 45.87,26.26 Z M 42.03,28.58 L 45.55,29.61 L 45.47,29.9 L 41.95,28.87 L 42.03,28.57 Z M 15.44,29.28 L 11.08,30.26 L 11.02,29.96 L 15.38,29 L 15.44,29.29 Z M 43.81,30.52 L 40.78,29.45 L 40.88,29.17 L 43.91,30.24 L 43.81,30.52 Z M 16.64,29.86 L 13.79,30.69 L 13.7,30.4 L 16.55,29.57 L 16.64,29.86 Z M 41.5,31.08 L 39.43,30.11 L 39.56,29.84 L 41.63,30.81 L 41.5,31.08 Z M 15.7,30.83 L 17.58,30.23 L 17.68,30.51 L 15.8,31.11 L 15.7,30.83 Z M 39.96,31.54 L 38.32,30.66 L 38.46,30.4 L 40.1,31.28 L 39.96,31.54 Z M 38.96,33.79 L 36.65,32.69 L 36.77,32.42 L 39.09,33.52 L 38.96,33.79 Z M 16.38,33.42 L 18.38,32.47 L 18.51,32.74 L 16.51,33.69 L 16.38,33.42 Z M 15.62,34.95 L 18.65,33.42 L 18.79,33.69 L 15.75,35.22 L 15.62,34.95 Z M 36.55,33.52 L 39.79,34.72 L 39.69,35.01 L 36.44,33.8 L 36.54,33.52 Z M 14.68,36.57 L 18.54,34.43 L 18.69,34.7 L 14.83,36.84 L 14.68,36.57 Z M 37.24,35.17 L 41.02,36.77 L 40.9,37.04 L 37.12,35.45 L 37.24,35.18 Z M 13.75,38.4 L 17.74,36.09 L 17.89,36.35 L 13.9,38.65 L 13.75,38.4 Z M 37.76,36.4 L 41.98,38.7 L 41.84,38.95 L 37.62,36.66 L 37.76,36.4 Z M 16.96,42.35 L 20.5,36.63 L 20.75,36.79 L 17.22,42.5 L 16.96,42.35 Z M 18.2,42.83 L 21.74,36.63 L 22,36.79 L 18.46,42.98 L 18.2,42.83 Z M 32.83,38.67 L 33.36,36.87 L 33.66,36.96 L 33.12,38.76 L 32.83,38.66 Z M 20.93,40.89 L 22.63,37.06 L 22.91,37.18 L 21.21,41.01 L 20.93,40.89 Z M 16.31,41.12 L 18.73,37.37 L 18.98,37.53 L 16.57,41.28 L 16.31,41.12 Z M 34.25,39.56 L 34.83,37.38 L 35.12,37.46 L 34.54,39.64 L 34.24,39.56 Z M 24.05,40.53 L 24.81,37.69 L 25.11,37.77 L 24.33,40.61 L 24.04,40.53 Z M 35.85,40.56 L 36.15,37.86 L 36.45,37.88 L 36.15,40.58 L 35.85,40.56 Z M 37.96,41.99 L 37.62,38.41 L 37.92,38.38 L 38.26,41.96 L 37.96,41.99 Z M 30.92,40.79 L 29.82,38.79 L 30.08,38.64 L 31.18,40.64 L 30.92,40.79 Z M 24.47,42.06 L 25.56,39.16 L 25.84,39.26 L 24.75,42.16 L 24.47,42.06 Z M 24.98,43.41 L 26.11,40.4 L 26.39,40.5 L 25.26,43.51 L 24.98,43.41 Z M 30.5,42.66 L 29.67,41.52 L 29.91,41.34 L 30.74,42.48 L 30.5,42.66 Z M 25.68,44.99 L 27.06,42.56 L 27.32,42.71 L 25.94,45.14 L 25.68,44.99 Z M 30.07,44.4 L 29.43,43.4 L 29.68,43.23 L 30.32,44.24 L 30.07,44.4 Z" fill="rgb(144, 185, 69)"/>
<path d="M 24.069999999999997,18.365 L 17.15,14.32 A 0.73,0.73 0 0,0 16.73,14.25 A 0.34,0.34 0 0,0 16.53,14.37 A 0.86,0.86 0 0,0 16.38,15.02 L 19.92,21.61 L 19.94,21.67 C 20.12,22.38 19.71,23.12 19,23.35 H 18.99 L 18.85,22.87 A 0.9,0.9 0 0,0 19.45,21.79 L 15.9,15.19 C 15.71,14.45 16.22,13.35 17.38,13.87 L 24.32,17.94 C 24.75,18.15 25.27,18 25.52,17.6 L 28.44,10.65 C 28.91,9.75 30.26,10.02 30.51,10.75 L 32.28,18.15 C 32.43,18.6 32.91,18.86 33.38,18.75 L 40.9,16.15 A 0.91,0.91 0 0,1 41.94,17.43 L 38,24.17 A 0.9,0.9 0 0,0 38.34,25.35 L 45.32,28.51 A 0.9,0.9 0 0,1 45.13,30.15 L 37.2,32.31 A 0.9,0.9 0 0,0 36.6,33.39 L 39.55,40.84 C 39.75,41.59 39.22,42.51 38.12,42.13 L 31.39,37.81 A 0.92,0.92 0 0,0 30.19,38.16 L 29.85,42.21 A 9.05,9.05 0 0,1 29.05,45 C 28.24,46.46 26.19,46.16 25.65,45 C 25.65,45 24.95,43.72 24.44,42.13 C 23.92,40.54 23.74,38.43 23.74,38.43 A 2.53,2.53 0 0,0 20.55,36.87 L 14.86,39.44 A 0.91,0.91 0 0,1 13.82,38.16 L 17.52,31.32 A 0.9,0.9 0 0,0 17.18,30.14 L 10.58,27.17 A 0.9,0.9 0 0,1 10.75,25.53 S 12.39,24.67 14.76,24.03 C 16.36,23.59 18.85,22.87 18.85,22.87 L 18.99,23.35 L 18.57,23.47 A 356.23,356.23 0 0,1 14.89,24.51 A 23.12,23.12 0 0,0 11,25.96 V 25.97 H 10.99 L 10.95,25.99 L 10.91,26 A 0.4,0.4 0 0,0 10.81,26.72 L 17.41,29.69 L 17.44,29.71 C 18.07,30.08 18.31,30.89 17.97,31.55 L 14.27,38.39 A 0.4,0.4 0 0,0 14.71,38.96 L 20.37,36.4 H 20.4 A 3.04,3.04 0 0,1 24.22,38.26 L 24.25,38.32 V 38.41 L 24.26,38.48 A 16.1,16.1 0 0,0 24.4,39.61 A 15.26,15.26 0 0,0 26.07,44.71 L 26.09,44.75 V 44.76 L 26.1,44.77 L 26.11,44.79 C 26.28,45.16 26.74,45.45 27.28,45.49 C 27.78,45.51 28.3,45.29 28.6,44.77 L 28.62,44.73 A 6.7,6.7 0 0,0 28.93,43.97 C 29.11,43.47 29.3,42.81 29.35,42.17 A 857.11,857.11 0 0,0 29.66,38.46 L 29.7,38 L 29.76,37.9 C 30.15,37.27 30.96,37.04 31.61,37.36 L 31.64,37.38 L 38.34,41.67 C 38.69,41.77 38.86,41.67 38.94,41.57 A 0.7,0.7 0 0,0 39.07,40.99 L 36.12,33.55 V 33.51 C 35.93,32.8 36.34,32.07 37.05,31.83 L 45,29.67 A 0.4,0.4 0 0,0 45.09,28.96 L 38.1,25.8 L 38.07,25.79 A 1.4,1.4 0 0,1 37.53,23.95 L 37.54,23.93 L 41.49,17.19 A 0.4,0.4 0 0,0 41.03,16.63 L 33.51,19.23 H 33.49 A 1.42,1.42 0 0,1 31.79,18.32 V 18.29 L 30.02,10.89 C 29.97,10.78 29.78,10.62 29.49,10.59 C 29.22,10.56 29,10.66 28.89,10.87 L 25.95,17.82 L 25.93,17.86 C 25.55,18.49 24.74,18.72 24.08,18.39 H 24.07 Z" fill="rgb(36, 60, 149)"/>
<path d="M 30.24,18.035 L 26.87,10.82 A 0.71,0.71 0 0,0 26.57,10.52 A 0.34,0.34 0 0,0 26.33,10.52 A 0.88,0.88 0 0,0 25.83,10.98 L 24.98,18.38 L 24.96,18.44 A 1.43,1.43 0 0,1 23.23,19.3 H 23.21 L 23.37,18.82 A 0.92,0.92 0 0,0 24.48,18.27 L 25.34,10.85 C 25.61,10.13 26.66,9.5 27.32,10.59 L 30.71,17.82 C 30.94,18.23 31.45,18.4 31.89,18.2 L 38.29,14.12 C 39.18,13.64 40.15,14.62 39.93,15.36 L 37.15,22.46 A 0.9,0.9 0 0,0 37.71,23.56 L 45.41,25.62 A 0.9,0.9 0 0,1 45.53,27.26 L 38.41,30.61 A 0.9,0.9 0 0,0 38.02,31.78 L 41.96,38.28 C 42.28,38.99 41.62,39.75 40.86,39.54 L 33.1,36.88 A 0.92,0.92 0 0,0 31.98,37.43 L 30.15,45.22 C 29.88,45.95 28.92,46.42 28.23,45.48 L 25.15,38.16 A 0.92,0.92 0 0,0 23.97,37.77 L 23.57,37.46 L 23.65,37.36 L 23.76,37.32 C 24.44,37.02 25.24,37.27 25.6,37.92 L 25.61,37.94 L 28.67,45.23 C 28.9,45.51 29.1,45.52 29.22,45.49 C 29.39,45.44 29.57,45.29 29.66,45.07 L 31.5,37.29 V 37.26 A 1.43,1.43 0 0,1 33.24,36.39 H 33.25 L 41.02,39.06 A 0.4,0.4 0 0,0 41.51,38.52 L 37.57,32.02 L 37.56,31.99 A 1.4,1.4 0 0,1 38.16,30.17 H 38.18 L 45.29,26.82 A 0.4,0.4 0 0,0 45.24,26.1 L 37.55,24.03 H 37.53 A 1.4,1.4 0 0,1 36.66,22.32 V 22.29 L 39.45,15.21 C 39.47,15.08 39.41,14.85 39.19,14.66 C 38.99,14.49 38.75,14.44 38.54,14.56 L 32.14,18.65 L 32.1,18.66 C 31.42,18.96 30.62,18.71 30.26,18.06 V 18.05 Z M 19.11,42.78 S 20.46,42.02 21.37,40.92 L 23.97,37.77 L 23.57,37.46 L 23.36,37.72 L 22.78,38.43 L 20.98,40.61 A 7.62,7.62 0 0,1 18.91,42.31 L 18.87,42.33 A 1.4,1.4 0 0,1 17.37,42.18 C 16.94,41.85 16.73,41.36 16.81,40.96 V 40.94 M 16.81,40.94 V 40.87 A 11.67,11.67 0 0,1 16.95,40.03 A 15.3,15.3 0 0,1 18.78,34.93 L 18.9,34.72 L 18.93,34.66 V 34.64 H 18.94 L 18.97,34.58 L 18.99,34.52 A 3,3 0 0,0 16.91,30.84 H 16.88 L 10.74,29.77 A 0.4,0.4 0 0,1 10.71,29.05 L 17.68,25.49 A 1.4,1.4 0 0,0 18.29,23.67 V 23.64 L 14.54,17.5 A 0.4,0.4 0 0,1 15.04,16.96 L 15.08,16.98 H 15.14 L 15.2,16.99 A 11.57,11.57 0 0,1 16.29,17.18 C 17.02,17.33 18.04,17.58 19.18,17.96 A 202.74,202.74 0 0,0 22.8,19.16 L 23.21,19.3 L 23.37,18.82 S 20.91,18.02 19.34,17.49 C 17.02,16.69 15.18,16.49 15.18,16.49 C 14.43,16.27 13.77,17.03 14.09,17.73 L 17.83,23.88 A 0.9,0.9 0 0,1 17.44,25.05 L 10.47,28.61 A 0.9,0.9 0 0,0 10.6,30.26 L 16.76,31.32 A 2.5,2.5 0 0,1 18.5,34.39 S 17.43,36.23 16.95,37.82 C 16.47,39.42 16.31,40.87 16.31,40.87 C 16.08,42.13 17.6,43.52 19.11,42.77" fill="rgb(36, 60, 149)"/>
</svg>
