<?xml version="1.0" encoding="UTF-8"?>
<!-- generated by Finnhub -->
<svg viewBox="0 0 55.5 55.5" xmlns="http://www.w3.org/2000/svg">
<path d="M 0,0 H 55.5 V 55.5 H 0 Z" fill="rgb(1, 163, 226)"/>
<path d="M 49.99,32.485 C 50,33.331 49.331,34 48.5,34 S 47,33.331 47,32.5 S 47.669,31 48.5,31 S 50,31.669 50,32.5 Z" fill="rgb(247, 150, 38)"/>
<path d="M 16.99,33.985 H 20 V 30.424 C 19.008,30.516 17.907,30.591 17,30.654 V 34 Z M 22.774,34 H 26.324 L 23.624,30.032 C 22.639,30.159 21.669,30.262 20.728,30.355 L 22.774,34 Z M 44.856,25.299 L 45.864,23.289 C 45.104,23.756 44.314,24.199 43.498,24.614 C 43.999,24.724 44.467,24.959 44.856,25.299 Z M 43.734,26.785 L 43.007,26.56 C 42.512,26.399 41.74,26.145 41.74,25.489 C 41.74,25.472 41.74,25.454 41.745,25.437 C 40.799,25.857 39.824,26.249 38.827,26.6 C 39.075,28.16 40.173,28.587 41.745,29.042 C 42.354,29.22 43.475,29.502 43.475,30.32 C 43.475,31.109 42.76,31.449 42.095,31.449 C 41.12,31.449 40.275,30.93 39.559,30.291 L 38.336,32.641 C 39.458,33.441 40.81,34 42.196,34 C 43.301,34 44.45,33.608 45.312,32.865 C 46.185,32.105 46.45,30.959 46.45,29.842 C 46.445,28.034 45.261,27.245 43.734,26.785 Z M 35.051,27.827 C 35.051,29.761 33.654,31.172 31.952,31.172 C 30.679,31.172 29.58,30.383 29.102,29.174 C 28.104,29.364 27.107,29.531 26.126,29.681 C 26.842,32.289 29.068,33.999 31.946,33.999 C 35.468,33.999 38.016,31.443 38.016,27.809 C 38.016,27.504 37.987,27.205 37.942,26.905 C 36.99,27.228 36.021,27.522 35.046,27.798 C 35.051,27.81 35.051,27.815 35.051,27.827 Z M 8,31 V 34 H 11 V 31 H 8 Z M 28.854,27.787 C 28.854,27.838 28.854,27.896 28.859,27.947 H 28.865 C 28.859,27.879 28.859,27.81 28.854,27.74 V 27.787 Z M 25.276,25.823 C 25.276,23.428 23.63,22 21.461,22 H 17 V 29.376 C 18.955,29.243 21.32,29.047 23.596,28.76 C 24.689,28.253 25.276,27.113 25.276,25.823 Z M 22.366,25.927 C 22.366,27.562 21.258,28 20.328,28 H 20.052 V 24 H 20.328 C 21.258,24 22.365,24.436 22.365,25.823 V 25.927 Z M 42.555,22 C 40.527,22 39.017,23.347 38.797,25.334 C 40.984,24.55 43.08,23.624 44.99,22.529 C 44.195,22.247 43.316,22 42.556,22 Z" fill="rgb(254, 254, 253)"/>
<path d="M 31.942999999999998,21.985 C 28.791,22 25.884,24.378 25.884,27.77 L 25.94,28.438 A 79.014,79.014 0 0,0 28.86,27.948 C 28.86,27.896 28.854,27.844 28.854,27.787 V 27.683 C 28.854,26.134 30.251,24.723 31.953,24.723 C 33.237,24.723 34.347,25.53 34.815,26.589 C 35.767,26.33 36.714,26.042 37.643,25.737 C 36.76,23.468 34.432,22 31.953,22 Z M 16.356,26.065 C 16.356,23.491 14.728,22 12.366,22 H 8 V 30 L 14.457,29.687 C 15.697,29.169 16.357,27.891 16.357,26.065 Z M 13.336,26.169 C 13.336,27.539 12.366,28 11.336,28 H 11 V 24 H 11.336 C 12.44,24 13.336,24.654 13.336,26.065 V 26.169 Z" fill="rgb(254, 254, 253)"/>
</svg>
