<?xml version="1.0" encoding="UTF-8"?>
<!-- generated by Finnhub -->
<svg viewBox="0 0 55.5 55.5" xmlns="http://www.w3.org/2000/svg">
<path d="M 0,0 H 55.5 V 55.5 H 0 Z" fill="rgb(25, 81, 135)"/>
<path d="M 17.99,30.985 A 3,3 0 1,0 18,25 A 3,3 0 0,0 18,31 Z M 18,30 A 2,2 0 1,0 18,26 A 2,2 0 0,0 18,30 Z M 30,28.65 A 0.67,0.67 0 1,0 30,27.3 A 0.67,0.67 0 0,0 30,28.65 Z M 32.96,27.5 A 3,3 0 1,0 32.96,28.5 H 31.94 A 2,2 0 1,1 31.94,27.5 H 32.96 Z M 34,28.5 A 2.5,2.5 0 0,0 39,28.5 H 38 A 1.5,1.5 0 0,1 35,28.5 H 34 Z M 35,27.5 H 34 V 25 H 35 V 27.5 Z M 38,27.5 H 39 V 25 H 38 V 27.5 Z M 40,28.5 V 31 H 41 V 28.5 H 40 Z M 41,27.5 H 40 V 25 H 41 L 42.8,27.5 H 41.47 L 41,26.88 V 27.5 Z M 42.23,28.5 L 44.13,31 H 45 V 28.5 H 44 V 29.17 L 43.52,28.5 H 42.22 Z M 44,27.5 H 45 V 25 H 44 V 27.5 Z M 46,28.5 V 31 H 48 A 3,3 0 0,0 50.96,28.5 H 49.94 A 2,2 0 0,1 48,30 H 47 V 28.5 H 46 Z M 47,27.5 H 46 V 25 H 48 A 3,3 0 0,1 50.96,27.5 H 49.94 A 2,2 0 0,0 48,26 H 47 V 27.5 Z M 52,27.7 H 31 V 28.3 H 52 V 27.7 Z" fill="rgb(254, 254, 253)" fill-rule="evenodd"/>
</svg>
