<?xml version="1.0" encoding="UTF-8"?>
<!-- generated by Finnhub -->
<svg viewBox="0 0 55.5 55.5" xmlns="http://www.w3.org/2000/svg">
<path d="M 0,0 H 55.5 V 55.5 H 0 Z" fill="rgb(0, 44, 109)"/>
<path d="M 19.259999999999998,12.745 L 26.26,10 L 25.41,16.55 L 19.27,12.76 Z M 14.03,15 L 21.45,16.04 L 16.85,21.14 L 14.02,15 Z M 20.83,27.68 L 23.13,27.54 L 21.98,25.97 L 24.51,22.18 L 26.41,26.31 L 31,21.2 L 25.66,20.46 L 28.45,16.29 L 32.93,23.03 L 30.66,24.81 L 35.05,26.23 L 36.11,27.83 L 36.79,27.37 L 36.3,26.64 L 37.8,27.12 L 36.05,20.58 L 33.57,22.52 L 28.45,14.81 L 24.76,20.33 L 23.58,20.17 L 24.11,21.31 L 21.47,25.26 L 19.17,22.08 L 15.66,28 L 19.82,27.75 L 17.42,31.33 L 17.02,31.22 L 17.17,31.71 L 15.83,33.71 L 16.51,34.18 L 17.48,32.72 L 18.99,37.69 L 24.23,33.27 L 18.25,31.57 L 20.85,27.68 Z M 22.16,31.98 L 29.62,31.24 L 25.48,25.93 L 22.16,31.97 Z M 32.36,34 H 24.86 L 28.43,39.73 L 32.35,34 Z M 33.32,34 H 40.81 L 36.89,39.73 L 33.32,34 Z M 33.16,33.4 H 40.61 L 36.94,27.74 L 33.16,33.39 Z M 45,40 H 37.51 L 41.33,34.21 L 45,40 Z M 28.95,40 H 36.44 L 32.77,34.21 L 28.95,40 Z M 27.95,40 H 20.45 L 24.27,34.21 L 27.94,40 Z M 12,40 H 19.49 L 15.81,34.27 L 12,40 Z M 36.12,28.03 L 28.71,27 L 31.53,33.14 L 36.13,28.03 Z" fill="rgb(254, 254, 253)"/>
</svg>
