<?xml version="1.0" encoding="UTF-8"?>
<!-- generated by Finnhub -->
<svg viewBox="0 0 55.5 55.5" xmlns="http://www.w3.org/2000/svg">
<path d="M 0,0 H 55.5 V 55.5 H 0 Z" fill="rgb(239, 242, 248)"/>
<path d="M 13.99,21.985 H 16 C 17.34,22 18,22.86 18,24 C 18,25.44 16.78,26 15.45,26 C 15.21,26 15.23,26.03 15,26 V 29 H 14 V 22 Z M 15,25.4 C 15.2,25.45 15.23,25.48 15.45,25.48 C 16.59,25.48 17,25.13 17,24 C 17,23.02 16.62,22.38 15.67,22.38 H 15 V 25.4 Z M 27,22 H 29 C 30.34,22 31,22.86 31,24 C 31,25.44 29.78,26 28.45,26 C 28.21,26 28.23,26.03 28,26 V 29 H 27 V 22 Z M 28,25.4 C 28.2,25.45 28.23,25.48 28.45,25.48 C 29.59,25.48 30,25.13 30,24 C 30,23.02 29.62,22.38 28.67,22.38 H 28 V 25.4 Z M 19,29 V 24 H 20 V 25.12 C 20.35,24.38 20.56,24 21.07,24 C 21.17,24 21.27,24.01 21.36,24.06 A 3.2,3.2 0 0,0 21.29,24.9 L 21.23,24.95 A 0.63,0.63 0 0,0 20.75,24.78 C 20.1,24.78 20,26 20,26 V 29 H 19 Z M 22,26.52 C 22,25.29 22.61,24 24,24 C 25.36,24 26,25.27 26,26.48 S 25.4,29 24.02,29 S 22,27.76 22,26.52 M 23,26.48 C 23,27.86 23.16,28.68 24,28.68 C 25,28.68 25,27.33 25,26.5 C 25,25.74 25,24.29 24,24.32 C 23.15,24.32 23,25.03 23,26.48 Z M 32,29 V 22 H 33 V 25.05 C 33.36,24.52 33.75,23.98 34.4,24 C 35.44,24 36,24.44 36,25.55 V 29 H 35 V 26 C 35,25.3 35.22,24.55 34.4,24.55 C 33.46,24.55 33,25.25 33,26.15 V 29 H 32 M 37.46,25 V 24.5 C 37.96,24.12 38.43,24 38.94,24 C 39.88,24 40.47,24.67 40.47,25.59 V 27.73 C 40.46,27.95 40.43,28.39 40.65,28.53 A 0.45,0.45 0 0,0 41,28.53 V 28.73 S 40.85,29 40.47,29 S 39.52,28.68 39.46,28.29 C 39.03,28.76 38.86,28.99 38.32,28.99 C 37.62,29.02 36.97,28.48 37,27.75 C 36.97,26.69 38.02,26.41 38.88,26.3 C 39.28,26.26 39.46,26.19 39.46,25.7 C 39.46,25.08 39.46,24.39 38.75,24.43 C 38.18,24.43 37.82,24.55 37.57,25 H 37.46 Z M 39.46,26.37 C 39.27,26.44 39.08,26.53 38.88,26.57 C 38.26,26.68 38,27 38,27.5 C 37.98,27.87 38,28.52 38.46,28.56 C 39,28.56 39.18,28.36 39.46,27.88 V 26.38 Z M 44.74,24.3 A 2,2 0 0,0 44.5,25 H 44.39 C 44.25,24.57 43.96,24.37 43.54,24.38 A 0.81,0.81 0 0,0 42.7,25.22 C 42.7,25.78 43.59,25.87 44,26 C 44.59,26.19 45,26.7 45,27.53 C 45,28.41 44.08,29.02 43.24,29 A 2.4,2.4 0 0,1 42,28.66 C 42.13,28.43 42.19,28.26 42.18,28 H 42.32 C 42.55,28.48 42.91,28.63 43.4,28.63 C 43.92,28.65 44.36,28.24 44.34,27.73 C 44.35,27.31 43.77,27.1 43.4,27 C 42.6,26.77 42,26.5 42,25.5 S 42.76,24 43.65,24 C 44.03,24 44.4,24.13 44.75,24.3 M 47,26.5 C 46.95,27.52 47.32,28.5 48.5,28.5 C 49.02,28.5 49.44,28.32 49.8,27.9 L 49.83,27.94 L 49.78,28.41 C 49.36,28.77 48.78,28.99 48.23,29 C 46.93,29.04 45.96,27.74 46,26.5 C 46,25.19 46.52,24 48,24 C 49.18,24 50,24.92 50,26.06 V 26.5 H 47 Z M 47,26 H 49 C 49,25.3 48.9,24.46 48,24.5 C 47.12,24.46 47.02,25.27 47,26 Z" fill="rgb(97, 186, 68)"/>
<path d="M 39.57,29.985 H 40 V 32.65 H 41.5 V 33 H 39.58 V 30 Z M 42,33 L 43.07,30 H 43.5 L 44.5,33 H 44.09 L 43.7,32 H 42.8 L 42.39,33 H 42 Z M 42.88,31.64 H 43.61 L 43.27,30.44 L 42.87,31.64 Z M 45,33 V 30 H 46.43 C 46.67,30 46.91,30.07 47.1,30.21 A 0.67,0.67 0 0,1 47.35,30.76 C 47.35,31.03 47.21,31.23 46.92,31.37 A 0.9,0.9 0 0,1 47.37,31.67 A 0.7,0.7 0 0,1 47.5,32.1 A 0.83,0.83 0 0,1 47.22,32.74 C 46.99,32.93 46.69,33.02 46.4,33 H 45 Z M 45.44,31.26 H 46.24 C 46.69,31.26 46.92,31.1 46.92,30.79 C 46.92,30.51 46.69,30.36 46.24,30.36 H 45.44 V 31.26 Z M 45.44,32.64 H 46.38 C 46.55,32.65 46.73,32.6 46.88,32.5 A 0.47,0.47 0 0,0 47.06,32.09 C 47.06,31.75 46.81,31.59 46.3,31.59 H 45.44 V 32.64 Z M 48.32,32.01 C 48.33,32.45 48.57,32.67 49.02,32.67 A 0.8,0.8 0 0,0 49.5,32.54 A 0.4,0.4 0 0,0 49.63,32.38 A 0.5,0.5 0 0,0 49.67,32.17 C 49.67,32.11 49.66,32.07 49.64,32.02 A 0.39,0.39 0 0,0 49.57,31.89 C 49.51,31.82 49.37,31.75 49.14,31.69 L 48.62,31.55 A 0.78,0.78 0 0,1 48.22,31.32 A 0.61,0.61 0 0,1 48.12,31.12 A 0.7,0.7 0 0,1 48.09,30.87 C 48.09,30.75 48.1,30.63 48.14,30.52 C 48.18,30.42 48.24,30.32 48.32,30.24 C 48.51,30.07 48.74,29.98 48.98,30 A 1,1 0 0,1 49.64,30.21 A 0.8,0.8 0 0,1 49.84,30.51 C 49.9,30.63 49.92,30.77 49.92,30.9 H 49.6 C 49.57,30.53 49.36,30.34 48.98,30.34 A 0.64,0.64 0 0,0 48.58,30.46 A 0.38,0.38 0 0,0 48.45,30.62 A 0.48,0.48 0 0,0 48.42,30.82 C 48.42,30.87 48.42,30.92 48.44,30.95 C 48.44,30.99 48.47,31.03 48.49,31.06 C 48.57,31.14 48.67,31.19 48.77,31.2 L 49.43,31.38 C 49.59,31.41 49.73,31.5 49.85,31.64 C 49.9,31.71 49.95,31.79 49.97,31.87 L 50,32.14 C 50,32.27 49.98,32.39 49.93,32.5 A 0.68,0.68 0 0,1 49.73,32.78 C 49.51,32.94 49.25,33.01 48.99,33 C 48.66,33 48.42,32.9 48.25,32.73 A 0.92,0.92 0 0,1 48.06,32.4 A 1.09,1.09 0 0,1 48,32 L 48.32,32.01 Z" fill="rgb(1, 169, 229)"/>
<path d="M 11.450000000000001,26.884999999999998 A 9.82,9.82 0 0,1 10.01,24 L 9.98,24.05 C 9.91,24.32 9.81,24.59 9.69,24.85 L 9.66,24.94 C 9.43,25.49 9.1,26 8.8,26.48 L 8.66,26.7 L 8.47,26.99 C 8.03,27.69 7.55,28.45 7.25,29.3 C 7.05,29.85 6.97,30.44 7.01,31.03 C 7.04,31.58 7.2,32.12 7.48,32.59 A 2.8,2.8 0 0,0 10.02,34 C 11.25,34 12.07,33.38 12.54,32.57 C 12.81,32.1 12.97,31.57 12.99,31.02 C 13.03,30.42 12.94,29.83 12.74,29.27 C 12.42,28.37 11.94,27.63 11.46,26.9 Z M 10,32.88 C 8.8,32.47 8.7,30.87 8.77,30.28 C 8.85,29.58 9.01,29.08 9.17,28.58 C 9.39,27.9 9.62,27.22 9.65,26 C 9.64,26.28 9.37,26.86 9.05,27.55 C 8.63,28.45 8.14,29.52 8.02,30.35 C 7.83,31.75 8.83,33.48 10,32.88 Z" fill="url(#a)" fill-rule="evenodd"/>
<path d="M 4.99,32.985 C 6,32.5 6.5,32.5 7,32.48 A 3.09,3.09 0 0,1 6.83,32 C 6.5,32 5.5,32.5 5,33 Z M 14.01,31.1 A 78.94,78.94 0 0,1 36,32 C 31.73,30.73 26.62,30 21.14,30 C 18.75,30 16.36,30.14 14,30.43 C 14.03,30.63 14.04,30.84 14.03,31.05 L 14.01,31.1 Z" fill="rgb(97, 186, 68)"/>
<defs>
<linearGradient id="a" x1="7" x2="13.01" y1="29" y2="29" gradientUnits="userSpaceOnUse">
<stop stop-color="rgb(192, 225, 245)" offset="0"/>
<stop stop-color="rgb(155, 214, 242)" offset=".08"/>
<stop stop-color="rgb(114, 202, 239)" offset=".18"/>
<stop stop-color="rgb(78, 192, 236)" offset=".29"/>
<stop stop-color="rgb(49, 184, 233)" offset=".4"/>
<stop stop-color="rgb(27, 177, 231)" offset=".52"/>
<stop stop-color="rgb(11, 173, 230)" offset=".65"/>
<stop stop-color="rgb(2, 170, 229)" offset=".8"/>
<stop stop-color="rgb(1, 169, 229)" offset="1"/>
</linearGradient>
</defs>
</svg>
