<?xml version="1.0" encoding="UTF-8"?>
<!-- generated by Finnhub -->
<svg viewBox="0 0 55.5 55.5" xmlns="http://www.w3.org/2000/svg">
<path d="M 0,0 H 55.5 V 55.5 H 0 Z" fill="rgb(239, 242, 248)"/>
<path d="M 19.229999999999997,25.985 H 22.34 C 22.62,27.2 23.39,28 24.69,28 C 25.15,26.8 25.39,25.51 25.95,24.33 A 5.4,5.4 0 0,0 22.98,23.56 C 20.65,23.61 18.21,24.53 18.21,27 C 18.21,27.86 19.24,29 19.24,29 S 16.5,28 15.04,28 C 13.12,28 12,29 12,29 C 12.52,25.18 15.68,21.33 20.52,21.33 C 23.12,21.33 25.31,22.36 26.32,23.47 C 29.4,17.15 34.42,11 38.39,11 C 40.97,11 42,14.33 42,17.75 C 42,22.53 35.51,26.29 29.65,28.22 C 30.62,31.41 30.62,34.02 30.62,36.06 C 30.62,38.76 30.3,46 26.58,46 C 24.41,46 23.38,42.28 23.38,37.66 C 23.38,34.79 23.65,31.92 24.41,29 C 22.01,29 20.21,27.74 19.24,26 Z M 26.32,29 A 26.3,26.3 0 0,0 25.45,36.38 C 25.45,37.44 25.59,41 27.29,41 C 28.62,41 29.59,38.87 29.59,35.26 C 29.59,33.01 29.39,30.54 28.86,28.55 A 9.9,9.9 0 0,1 26.32,29 Z M 27.29,25.29 C 27.87,26.08 28.28,26.95 28.55,27.59 C 27.72,27.92 27.42,27.92 26.58,28 C 26.7,27.69 26.74,26.94 27.29,25.29 Z M 36.16,16 C 38.32,16 38.9,18.54 38.9,20.02 C 38.9,23.28 33.73,25.58 29.26,27.28 C 28.96,26.66 28.36,25.29 27.72,24.53 C 29.52,20.83 32.95,16 36.16,16 Z" fill="rgb(115, 185, 185)" fill-rule="evenodd"/>
</svg>
