<?xml version="1.0" encoding="UTF-8"?>
<!-- generated by Finnhub -->
<svg viewBox="0 0 55.5 55.5" xmlns="http://www.w3.org/2000/svg">
<path d="M 0,0 H 55.5 V 55.5 H 0 Z" fill="rgb(1, 56, 96)"/>
<path d="M 13.99,14.615 V 41.36 C 14,41.71 14.29,42 14.64,42 H 19.36 C 19.72,42 20,41.71 20,41.36 V 20.61 C 20,20.26 20.29,20 20.64,20 H 34.91 C 35.26,20 35.5,20.15 35.5,20.5 S 35.26,21 34.9,21 H 21.65 A 0.66,0.66 0 0,0 21.01,21.66 V 34.36 C 21.01,34.71 21.3,35 21.65,35 H 34.9 C 35.25,35 35.49,35.1 35.49,35.45 V 35.49 C 35.49,35.84 35.25,35.99 34.89,35.99 H 21.64 A 0.63,0.63 0 0,0 21.01,36.63 V 41.36 C 21.01,41.71 21.29,42 21.64,42 H 41.37 C 41.72,42 42.01,41.71 42.01,41.36 V 29.66 A 0.65,0.65 0 0,0 41.37,29 H 28.07 C 27.72,29 27.51,28.85 27.51,28.5 S 27.72,28 28.07,28 H 41.37 C 41.72,28 42.01,27.71 42.01,27.36 V 14.63 A 0.64,0.64 0 0,0 41.37,14 H 14.64 A 0.64,0.64 0 0,0 14,14.63 Z" fill="rgb(254, 254, 252)"/>
</svg>
