<?xml version="1.0" encoding="UTF-8"?>
<!-- generated by Finnhub -->
<svg viewBox="0 0 55.5 55.5" xmlns="http://www.w3.org/2000/svg">
<path d="M 0,0 H 55.5 V 55.5 H 0 Z" fill="rgb(239, 242, 248)"/>
<path d="M 22.369999999999997,29.365 L 18.08,25.38 C 16.68,23.96 15.9,21.64 15.92,19.37 L 21.73,13.55 A 8.72,8.72 0 0,1 34.07,13.55 L 42.45,21.93 A 8.72,8.72 0 0,1 42.45,34.27 L 37.73,38.98 C 38.18,37 38.56,34.52 38.26,33.01 C 37.82,30.83 34.5,27.69 32.69,26.05 L 29.44,22.81 A 2.18,2.18 0 0,0 26.36,22.81 L 22.6,26.56 A 2.18,2.18 0 0,0 22.38,29.38 Z" fill="url(#b)"/>
<path d="M 33.61,26.605 L 37.92,30.62 C 39.32,32.04 40.1,34.36 40.08,36.63 L 34.27,42.45 A 8.72,8.72 0 0,1 21.93,42.45 L 13.55,34.07 A 8.72,8.72 0 0,1 13.55,21.73 L 18.27,17.02 C 17.82,19 17.44,21.48 17.74,22.99 C 18.24,25.48 21.09,27.73 22.81,29.44 L 26.56,33.19 C 27.41,34.05 28.79,34.05 29.64,33.19 L 33.4,29.44 C 34.17,28.67 34.24,27.47 33.62,26.62 Z" fill="url(#a)"/>
<defs>
<linearGradient id="b" x1="17.92" x2="42.45" y1="23.91" y2="25" gradientUnits="userSpaceOnUse">
<stop stop-color="rgb(200, 28, 33)" offset="0"/>
<stop stop-color="rgb(221, 28, 35)" offset=".42"/>
<stop stop-color="rgb(228, 28, 35)" offset="1"/>
</linearGradient>
<linearGradient id="a" x1="15.19" x2="36.99" y1="31" y2="33.18" gradientUnits="userSpaceOnUse">
<stop stop-color="rgb(228, 28, 35)" offset="0"/>
<stop stop-color="rgb(188, 28, 32)" offset="1"/>
</linearGradient>
</defs>
</svg>
