<?xml version="1.0" encoding="UTF-8"?>
<!-- generated by Finnhub -->
<svg viewBox="0 0 55.5 55.5" xmlns="http://www.w3.org/2000/svg">
<path d="M 0,0 H 55.5 V 55.5 H 0 Z" fill="rgb(239, 242, 248)"/>
<path d="M 28.24,31.985 H 26.75 L 27.5,30 L 28.25,32 Z M 25,34 H 26 L 26.46,32.78 H 28.55 L 29,34 H 30 L 28,29 H 27 L 25,34 Z M 48.25,32 H 46.75 L 47.5,30 L 48.25,32 Z M 45,34 H 46 L 46.46,32.78 H 48.55 L 49,34 H 50 L 48,29 H 47 L 45,34 Z M 33.8,29.97 A 2.6,2.6 0 0,0 32.8,29.77 C 32.47,29.77 32,29.91 32,30.43 C 32,31.27 34.19,30.92 34.19,32.53 C 34.19,33.6 33.34,34 32.34,34 C 31.8,34 31.56,33.93 31.08,33.81 L 31.17,32.94 C 31.51,33.12 31.9,33.24 32.28,33.24 C 32.66,33.24 33.19,33.04 33.19,32.6 C 33.19,31.68 31,32.08 31,30.48 C 31,29.39 31.85,29 32.72,29 C 33.15,29 33.54,29.06 33.9,29.17 L 33.8,29.97 Z M 36.5,29.75 H 35 V 29 H 39 V 29.75 H 37.5 V 34 H 36.5 V 29.75 Z M 41,29.79 H 41.43 C 41.96,29.79 42.67,29.86 42.67,30.46 C 42.67,31.08 41.95,31.21 41.43,31.21 H 41 V 29.79 Z M 40,34 H 41 V 32 H 41.42 C 41.87,32 42.01,32.07 42.16,32.44 L 42.8,34 H 44 L 43.14,32.04 C 43.04,31.82 42.87,31.55 42.57,31.53 V 31.51 C 43.26,31.43 43.67,30.94 43.67,30.35 C 43.67,29 42.31,29 41.16,29 H 40 V 34 Z M 32,24.14 C 30.76,24.22 28.4,24.58 26.48,24.9 C 24.56,25.22 23.62,25.44 22.81,25.63 C 20.66,26.13 17.44,27.01 15.74,27.53 C 14.22,28 10.24,29.61 10.12,29.58 C 10.06,29.57 9.93,29.44 10.13,29.31 C 9.73,29.57 15.74,24.56 26,22.91 V 22 H 6 V 32.57 A 54.8,54.8 0 0,1 26,29 V 26.65 C 30.08,25.17 35.19,24.53 42.9,23.75 V 23.49 A 120.44,120.44 0 0,0 32,24.14 Z" fill="rgb(19, 81, 150)"/>
<path d="M 42.89,23.335 S 38.1,22.97 32.04,23.4 C 30.15,23.54 28.14,23.81 26.28,24.12 C 22.32,24.77 19.02,25.59 19.02,25.59 S 18.78,25.59 19,25.46 C 19.36,25.24 22.27,23.98 26.28,23.21 C 27.15,23.05 28.06,22.91 29.01,22.81 C 29.15,22.79 29.01,22.64 29.01,22.64 C 28.07,22.69 27.14,22.75 26.26,22.87 C 21.26,23.57 17.63,25.04 15.45,26.07 C 15.3,26.14 15.82,25.83 12.76,27.47 C 12.76,27.47 10.86,28.7 10.73,28.83 C 10.53,29.01 12.29,28.25 13.53,27.83 C 14.69,27.43 17.79,26.58 18.49,26.38 A 83.07,83.07 0 0,1 26.08,24.95 H 26.18 L 28.45,24.59 C 29.02,24.49 32.15,24.12 32.19,24.12 C 37.58,23.54 42.99,23.49 42.89,23.49 L 42.9,23.35 Z" fill="rgb(171, 176, 207)"/>
</svg>
