<?xml version="1.0" encoding="UTF-8"?>
<!-- generated by Finnhub -->
<svg fill="none" viewBox="0 0 55.5 55.5" xmlns="http://www.w3.org/2000/svg">
<rect width="56" height="56" fill="rgb(239, 242, 248)"/>
<path d="M 3.99,31.985 V 27 H 7.5 C 8.68404,27 9,27.4886 9,28.6655 V 28.9946 C 9,30.1719 8.68579,30.5 7.5,30.5 H 5 V 32 H 4 Z M 5,29.5 H 7.43052 C 7.86817,29.5 8,29.3106 8,28.909 V 28.5507 C 8,28.1643 7.7666,28 7.37428,28 H 5 V 29.5 Z" fill="rgb(22, 57, 131)"/>
<path d="M 14.9749,30.585 C 14.9235,31.4964 14.3062,32 13.4211,32 H 11.5789 C 10.4664,32 10,31.4441 10,30.4015 V 29.5985 C 10,28.5591 10.4691,28 11.5789,28 H 13.4211 C 14.5279,28 15,28.5611 15,29.5985 V 30 H 11 V 30.5334 C 11,30.8599 11.1634,31.0107 11.5024,31.0107 H 13.4825 C 13.7857,31.0107 13.9486,30.896 13.9773,30.6 H 14.9849 Z M 11,29.6187 H 14 V 29.4817 C 14,29.1091 13.9247,29 13.4901,29 H 11.5099 C 11.0943,29 11,29.0809 11,29.4447 V 29.6187 Z" fill="rgb(22, 57, 131)"/>
<path d="M 18.124,31.985 C 17.3441,32 17.0005,31.4824 17.0005,30.6525 V 30.4279 V 29 H 16.0005 V 28 H 17.0005 V 27 H 18.0005 V 28 H 20.0005 V 29 H 18.0005 V 30.4515 C 18.0005,30.7947 18.1558,31 18.5005,31 C 18.9488,31 19.0005,30.8881 19.0005,30.5894 V 30 H 20.0005 V 30.7116 C 20.0005,31.5306 19.5979,32 18.8635,32 H 18.134 Z" fill="rgb(22, 57, 131)"/>
<path d="M 20.99,31.985 V 28 H 22 V 28.6148 C 22.2668,28.1477 22.583,28 23.2535,28 C 24.1579,28 24.5,28.4342 24.5,29.4358 V 30 H 23.4251 V 29.537 C 23.4251,29.1773 23.1162,29 22.7965,29 C 22.0466,29 22,29.3482 22,29.7882 V 32 H 21 Z" fill="rgb(22, 57, 131)"/>
<path d="M 29.115599999999997,28.985 L 27.8702,29 C 27.4261,29 27,28.992 27,29.52 L 27,30.4882 C 27,31.0113 27.4333,31 27.8702,31 L 29.1256,31 C 29.5632,31 30,31.013 30,30.4882 L 30,29.52 C 30,28.9924 29.5668,29 29.1256,29 Z M 29.1573,28 C 30.3492,28 31,28.5025 31,29.7114 L 31,30.2886 C 31,31.4943 30.3469,32 29.1573,32 L 27.8427,32 C 26.6495,32 26,31.4972 26,30.2886 L 26,29.7114 C 26,28.4996 26.6472,28 27.8427,28 L 29.1573,28 Z" fill="rgb(22, 57, 131)"/>
<path d="M 38.99,28.7452 H 38 C 37.9878,28.3827 37.8449,28 37.5,28 H 34.8323 C 34.0995,28 34,28.3585 34,28.9541 V 30.0525 C 34,30.6461 34.2711,31 35,31 H 37.2195 C 37.6122,31 38,30.9129 38,30.5 H 36 V 29.5 H 39 V 30.2908 C 39,31.4757 38.3236,32 36.9619,32 H 34.5 C 33.1423,32 33,31.1424 33,30.0525 V 29 C 33,27.7478 33.3189,27 34.5,27 H 37.5 C 38.4155,27 39,27.4635 39,28.4031 V 28.7602 Z" fill="url(#e)"/>
<path d="M 41.357,30.985 H 43.6444 C 43.8817,31 44.0004,30.8865 44.0004,30.6596 V 30.3441 C 44.0004,30.1122 43.8817,30 43.6444,30 H 41.367 C 41.1518,30 41.0004,30.1201 41.0004,30.3441 V 30.6596 C 41.0004,30.8865 41.125,31 41.367,31 Z M 40.1742,29.2803 C 40.1858,28.3746 40.5042,28.0704 42.0004,28 C 42.3059,27.9856 43.1396,28 43.5004,28 C 44.3774,28 45.0004,28.3422 45.0004,29.2803 V 32 H 44.0004 V 31.593 C 43.8008,31.8695 43.4992,32 43.1639,32 H 41.0006 C 40.3568,32 40.0004,31.5397 40.0004,30.9158 V 30.5532 C 40.0004,29.871 40.4933,29.5097 41.1395,29.5097 H 43.1995 C 43.5014,29.5097 43.8125,29.6168 44.0004,29.8649 V 29.3404 C 44.0004,29.1243 43.891,29 43.6729,29 H 42.0479 C 41.8421,29 41.5773,29.0491 41.5773,29.284 L 40.1742,29.2803 Z" fill="url(#d)"/>
<path d="M 45.99,30.608 H 47 C 47.0647,30.9651 47.3397,31.0004 47.6271,31.0004 H 49.1099 C 49.3758,31.0004 50,31.0004 50,30.7433 C 50,30.3818 49.3036,30.3649 49,30.3649 H 47.1022 C 46.5622,30.3229 46,30.0735 46,29.3584 V 29.0476 C 46,28.1158 47.1759,28.0004 47.8272,28.0004 H 49.1922 C 49.8303,28.0004 50.8118,28.1298 50.8118,29.0143 V 29.0994 H 50 C 49.9837,28.8047 49.6371,28.7812 49.427,28.7812 H 47.573 C 47.3232,28.7812 47,28.8151 47,29.1512 C 47,29.4218 47.2324,29.4614 47.4421,29.4768 H 49.9516 C 50.5027,29.5179 51,29.7369 51,30.5092 V 30.8422 C 51,31.7677 49.9958,32.0004 49.3036,32.0004 H 47.8092 C 47.0975,32.0004 46,31.879 46,30.8866 V 30.623 Z" fill="url(#c)"/>
<path d="M 41.907000000000004,23.206 L 41.0456,21.9997 C 40.4356,22.6478 39.9999,23.6198 39.9999,24.1931 S 40.4792,25.4643 41.111,25.4643 C 41.7427,25.4643 42.2438,24.7664 42.2438,24.1931 C 42.2438,23.7345 42.0259,23.354 41.917,23.221 Z" fill="url(#b)"/>
<path d="M 41.259,21.415 C 42.7018,19.8495 43.3983,18.4849 43.5675,18.0001 C 43.866,19.2623 44.7317,20.305 45.3287,20.9635 C 45.9257,21.6221 47.0003,22.3355 47.0003,23.8172 C 47.0003,26.2044 44.9406,27.0001 43.5675,27.0001 S 41.4182,26.3568 41.0003,26.0001 C 42.6421,26.0824 43.0003,24.8873 43.0003,24.2288 C 43.0003,23.2374 41.8437,22.0973 41.269,21.43 Z" fill="url(#a)"/>
<defs>
<linearGradient id="e" x1="34.266" x2="35.461" y1="27" y2="32.372" gradientUnits="userSpaceOnUse">
<stop stop-color="rgb(173, 173, 174)" offset=".1123"/>
<stop stop-color="rgb(207, 207, 206)" offset=".54643"/>
<stop stop-color="rgb(177, 177, 178)" offset=".97118"/>
</linearGradient>
<linearGradient id="d" x1="43.439" x2="42.654" y1="28" y2="32.239" gradientUnits="userSpaceOnUse">
<stop stop-color="rgb(173, 173, 174)" offset=".1123"/>
<stop stop-color="rgb(207, 207, 206)" offset=".54643"/>
<stop stop-color="rgb(177, 177, 178)" offset=".97118"/>
</linearGradient>
<linearGradient id="c" x1="49.306" x2="47.722" y1="28" y2="31.958" gradientUnits="userSpaceOnUse">
<stop stop-color="rgb(173, 173, 174)" offset=".1123"/>
<stop stop-color="rgb(207, 207, 206)" offset=".54643"/>
<stop stop-color="rgb(177, 177, 178)" offset=".97118"/>
</linearGradient>
<linearGradient id="b" x1="40" x2="42.101" y1="24.792" y2="24.664" gradientUnits="userSpaceOnUse">
<stop stop-color="rgb(173, 173, 174)" offset=".1123"/>
<stop stop-color="rgb(207, 207, 206)" offset=".54643"/>
<stop stop-color="rgb(177, 177, 178)" offset=".97118"/>
</linearGradient>
<linearGradient id="a" x1="46.254" x2="41.289" y1="21.787" y2="25.469" gradientUnits="userSpaceOnUse">
<stop stop-color="rgb(173, 173, 174)" offset=".21957"/>
<stop stop-color="rgb(207, 207, 206)" offset=".54643"/>
<stop stop-color="rgb(177, 177, 178)" offset=".86303"/>
</linearGradient>
</defs>
</svg>
