<?xml version="1.0" encoding="UTF-8"?>
<!-- generated by Finnhub -->
<svg viewBox="0 0 55.5 55.5" xmlns="http://www.w3.org/2000/svg">
<path d="M 0,0 H 55.5 V 55.5 H 0 Z" fill="rgb(1, 81, 60)"/>
<path d="M 7.99,27.375 V 28.59 C 8.4,32.79 12.08,35.79 15.64,37.44 C 17.5,38.29 19.4,38.92 21.35,39.32 C 27.65,40.6 34.52,40.13 40.39,37.42 C 44.64,35.45 49.03,31.46 47.79,26.22 C 46.63,21.36 40.85,18.32 36.48,17.14 A 32.22,32.22 0 0,0 20.08,16.99 A 23.85,23.85 0 0,0 14.38,19.21 A 16.16,16.16 0 0,0 10.64,22.04 A 8.93,8.93 0 0,0 8,27.4 Z M 41.57,35.78 C 45.17,33.72 47.19,30.92 47.19,28 S 45.17,22.28 41.57,20.22 S 33.09,17 28,17 C 22.9,17 18.02,18.16 14.42,20.22 S 8.8,25.08 8.8,28 S 10.82,33.72 14.42,35.78 S 22.9,39 28,39 C 33.09,39 37.97,37.84 41.57,35.78 Z" fill="rgb(249, 161, 27)" fill-rule="evenodd"/>
<path d="M 20.81,28.285 C 21.18,26.93 21.44,25.92 22.02,24.82 C 22.15,24.58 22.31,24.36 22.51,24.17 C 22.61,24.06 22.66,24.07 22.64,24.23 L 22.13,27.61 C 22.12,27.66 22.13,27.71 22.15,27.74 L 22.46,28.27 A 0.07,0.07 0 0,0 22.55,28.3 L 22.58,28.28 L 23.4,27.12 A 0.1,0.1 0 0,0 23.42,27.05 L 23.29,25.92 A 0.02,0.02 0 0,1 23.3,25.9 H 23.35 L 23.37,25.93 L 23.63,26.57 C 23.65,26.62 23.68,26.63 23.73,26.61 L 24,26.45 C 24.04,26.43 24.05,26.44 24.04,26.48 C 24,26.68 23.94,26.88 23.89,27.07 A 0.2,0.2 0 0,0 23.89,27.21 L 24.48,28.67 C 24.5,28.73 24.54,28.74 24.58,28.69 L 25.01,28.27 C 25.05,28.23 25.06,28.17 25.06,28.12 C 24.86,26.7 24.84,25.38 24.99,24.15 C 25.02,23.94 25.08,23.75 25.16,23.58 C 25.2,23.5 25.22,23.51 25.22,23.59 A 27.46,27.46 0 0,0 26.26,29.33 L 26.3,29.35 A 0.08,0.08 0 0,0 26.37,29.31 L 26.49,29.11 A 0.17,0.17 0 0,0 26.51,28.98 C 26.07,27.13 26.07,24.89 26.94,23.18 H 26.96 L 26.99,23.19 L 27,23.22 A 9.3,9.3 0 0,0 27.01,26.56 C 27.08,26.95 27.21,27.3 27.37,27.61 C 27.4,27.67 27.44,27.67 27.47,27.62 L 27.8,27.18 A 0.2,0.2 0 0,0 27.83,27.02 C 27.45,24.77 27.48,22.32 28.65,20.3 C 28.66,20.28 28.68,20.27 28.7,20.29 C 28.72,20.29 28.73,20.31 28.73,20.32 A 11.01,11.01 0 0,0 28.65,25.9 L 29.15,25.4 A 0.08,0.08 0 0,0 29.17,25.33 A 6.1,6.1 0 0,1 30.02,20.45 C 30.14,20.28 30.18,20.3 30.15,20.5 C 30.03,21.23 29.95,22.05 29.88,22.98 A 4.75,4.75 0 0,0 29.98,24.44 A 0.06,0.06 0 0,0 30.04,24.46 L 30.07,24.44 L 30.39,24.08 C 30.45,24.02 30.47,23.87 30.47,23.65 A 3.95,3.95 0 0,1 31.47,20.87 C 31.6,20.72 31.63,20.74 31.57,20.92 C 31.31,21.62 31.14,22.36 31.29,23.07 C 31.29,23.13 31.33,23.15 31.38,23.11 C 31.63,22.91 31.76,22.76 31.77,22.65 A 3.38,3.38 0 0,1 33.11,20.17 A 0.05,0.05 0 0,1 33.17,20.22 C 33.18,20.69 33.12,21.17 32.97,21.66 C 32.95,21.72 32.97,21.73 33.02,21.69 C 33.58,21.35 34.34,20.79 35.13,20.53 C 35.24,20.49 35.26,20.53 35.2,20.62 A 5.2,5.2 0 0,1 33.84,22.08 C 33.74,22.16 33.74,22.18 33.87,22.14 A 4.75,4.75 0 0,1 36.4,22.07 C 36.86,22.17 36.85,22.24 36.37,22.26 C 35.96,22.27 35.57,22.4 35.2,22.63 C 34.46,23.1 33.57,23.17 32.51,23.27 A 0.1,0.1 0 0,0 32.44,23.31 L 32.12,23.63 A 0.02,0.02 0 0,0 32.13,23.67 C 33.32,23.77 34.41,23.68 35.42,23.44 C 35.6,23.4 35.62,23.43 35.46,23.53 A 8.94,8.94 0 0,1 31.12,24.73 L 30.6,25.26 V 25.28 L 30.62,25.29 A 17.8,17.8 0 0,0 34.22,24.85 C 34.48,24.78 34.49,24.81 34.24,24.93 A 22.35,22.35 0 0,1 30.62,26.32 C 30.38,26.39 30.07,26.43 29.79,26.45 A 0.33,0.33 0 0,0 29.57,26.56 L 29.35,26.81 C 29.28,26.89 29.3,26.91 29.4,26.89 A 42.5,42.5 0 0,0 34.05,25.68 C 34.25,25.61 34.26,25.64 34.09,25.76 A 10.7,10.7 0 0,1 28.93,27.62 A 0.34,0.34 0 0,0 28.67,27.77 L 28.59,27.9 C 28.52,28 28.55,28.05 28.68,28.02 C 30.61,27.69 32.44,27.26 34.18,26.74 C 34.43,26.66 34.44,26.7 34.22,26.85 C 33.79,27.15 33.32,27.42 32.82,27.67 A 0.2,0.2 0 0,0 32.73,27.79 L 32.32,28.93 C 32.3,28.99 32.32,29.02 32.39,29 L 32.74,28.9 H 32.76 A 0.03,0.03 0 0,1 32.78,28.92 V 28.97 L 32.21,29.33 A 0.2,0.2 0 0,0 32.11,29.46 L 31.17,32.94 C 31.17,32.95 31.17,32.96 31.19,32.96 H 31.23 C 31.24,32.96 31.25,32.96 31.26,32.94 C 32,31.04 33.2,28.74 34.91,27.58 C 35.04,27.49 35.06,27.52 34.97,27.65 A 14.7,14.7 0 0,0 32.82,32.62 C 32.81,32.66 32.82,32.67 32.83,32.66 L 32.87,32.64 C 33.41,31.31 35.03,27.8 36.57,27.45 C 36.72,27.42 36.75,27.45 36.64,27.57 C 36.16,28.09 35.77,28.77 35.83,29.51 C 35.83,29.61 35.86,29.61 35.9,29.53 C 36.7,28.1 37.82,26.73 39.35,26.22 C 39.42,26.2 39.43,26.22 39.39,26.27 C 38.91,26.95 38.24,27.7 37.96,28.58 A 0.05,0.05 0 0,0 37.98,28.64 L 38.01,28.66 L 38.02,28.65 C 38.62,27.65 39.69,26.26 40.82,25.89 C 40.91,25.87 40.92,25.89 40.87,25.96 C 40.31,26.71 39.77,27.46 39.57,28.3 C 39.56,28.38 39.57,28.39 39.63,28.34 C 40.01,27.97 40.56,27.35 41.16,27.12 C 41.42,27.02 41.46,27.07 41.29,27.29 C 41.08,27.55 40.95,27.85 40.89,28.19 C 40.86,28.39 40.91,28.42 41.05,28.26 C 41.51,27.7 42.25,27.25 42.93,27.16 C 43.15,27.14 43.17,27.19 42.99,27.32 C 42.69,27.55 42.47,27.82 42.34,28.16 C 42.31,28.23 42.34,28.26 42.4,28.23 C 43.28,28 43.92,27.73 44.84,27.89 C 45.06,27.93 45.06,27.99 44.86,28.06 A 5.63,5.63 0 0,0 42.57,29.32 A 0.1,0.1 0 0,0 42.65,29.43 C 43.43,29.54 44.81,29.89 45.24,30.53 C 45.32,30.66 45.29,30.7 45.14,30.66 C 44.01,30.36 42.5,30.03 41.42,30.23 C 41.05,30.3 41.06,30.36 41.42,30.4 A 4.47,4.47 0 0,1 44.02,31.61 A 0.06,0.06 0 0,1 43.99,31.67 H 43.95 C 42.63,31.27 41.35,31.09 40.09,31.1 C 39.62,31.1 39.21,31.17 38.86,31.3 C 38.78,31.33 38.78,31.35 38.86,31.36 C 39.98,31.52 41.45,31.86 42.24,32.68 C 42.32,32.78 42.3,32.8 42.18,32.78 C 41.1,32.52 39.98,32.31 38.84,32.15 C 38.01,32.03 36.83,31.89 36.14,32.14 C 35.86,32.24 35.86,32.31 36.17,32.33 C 37.69,32.43 39.1,32.78 40.41,33.35 C 40.74,33.5 41.03,33.69 41.28,33.93 C 41.31,33.96 41.31,33.97 41.25,33.96 C 39.48,33.54 37.78,33.1 36,32.92 A 2.72,2.72 0 0,0 34.85,33.02 C 34.35,33.19 34.37,33.29 34.89,33.32 C 36.12,33.42 37.46,33.61 38.54,34.06 C 38.81,34.16 39.02,34.29 39.19,34.44 C 39.34,34.58 39.32,34.61 39.13,34.55 L 38.93,34.51 C 37.83,34.33 36.59,34.24 35.21,34.25 C 33.49,34.25 31.8,34.35 30.13,34.52 C 30.07,34.52 30.05,34.51 30.06,34.45 L 30.71,31.39 C 30.73,31.31 30.7,31.29 30.62,31.32 L 29.76,31.66 C 29.72,31.68 29.7,31.71 29.7,31.76 L 29.95,33.89 A 0.1,0.1 0 0,1 29.89,33.99 L 29.05,34.33 C 29,34.35 28.98,34.33 28.98,34.28 A 7.79,7.79 0 0,1 29.08,32.08 A 0.04,0.04 0 0,0 29.04,32.08 L 25.6,33.45 A 0.16,0.16 0 0,0 25.5,33.56 L 25.31,34.28 C 25.3,34.33 25.26,34.35 25.21,34.34 L 24.41,34.22 C 24.34,34.22 24.31,34.18 24.33,34.12 L 24.36,33.9 L 24.35,33.82 L 23.6,32.54 C 23.55,32.44 23.5,32.44 23.44,32.54 L 22.98,33.34 A 0.23,0.23 0 0,0 22.96,33.55 L 23.14,33.99 C 23.17,34.06 23.14,34.12 23.06,34.14 L 22.16,34.4 C 22.04,34.43 21.96,34.39 21.94,34.27 C 21.91,34.15 21.78,34.07 21.55,34.03 A 22.4,22.4 0 0,0 14.5,33.87 C 14.11,33.93 14.1,33.87 14.45,33.69 A 5.86,5.86 0 0,1 16.12,33.17 A 18.8,18.8 0 0,1 21.28,33.04 C 21.35,33.04 21.38,33.02 21.34,32.96 L 21.2,32.72 A 0.22,0.22 0 0,0 21.04,32.61 A 22.33,22.33 0 0,0 13.81,32.49 C 13.45,32.54 13.43,32.49 13.77,32.34 A 8.61,8.61 0 0,1 18.27,31.49 C 18.62,31.53 18.64,31.47 18.32,31.31 C 17.09,30.71 15.32,30.75 13.94,30.84 C 13.72,30.86 13.72,30.82 13.92,30.74 C 15.69,29.96 18.16,30.13 19.94,30.64 C 20,30.66 20.02,30.64 19.98,30.59 C 19.85,30.38 19.71,30.12 19.43,30.03 C 17.49,29.39 15.25,29.43 13.28,29.87 C 13.09,29.91 13.08,29.87 13.23,29.75 C 14.37,28.85 16.11,28.75 17.63,28.97 A 14.62,14.62 0 0,1 19.01,29.2 L 18.71,28.69 A 0.1,0.1 0 0,0 18.62,28.63 C 16.82,28.52 15.05,28.35 13.32,28.13 C 12.85,28.07 12.85,27.99 13.31,27.91 A 15.01,15.01 0 0,1 16.93,27.71 C 16.98,32.94 16.98,32.94 16.93,27.71 A 45.8,45.8 0 0,0 13.67,27.09 C 13.02,26.99 12.44,26.79 11.95,26.49 C 11.76,26.37 11.78,26.31 11.99,26.31 C 13.41,26.31 14.89,26.47 16.44,26.81 C 16.49,26.82 16.5,26.81 16.48,26.76 C 16.36,26.53 16.2,26.41 15.98,26.38 A 11.99,11.99 0 0,1 12.6,25.48 C 12.45,25.43 12.46,25.4 12.62,25.4 H 14.82 C 14.9,25.4 14.92,25.37 14.85,25.3 C 14.19,24.71 13.48,24.2 12.72,23.8 C 12.47,23.66 12.49,23.62 12.76,23.68 C 13.34,23.8 13.92,23.98 14.51,24.2 C 14.55,24.22 14.58,24.2 14.57,24.15 C 14.55,23.69 14.44,23.25 14.25,22.83 C 14.21,22.73 14.23,22.72 14.32,22.78 A 4.7,4.7 0 0,1 15.97,24.7 C 16.04,24.83 16.06,24.83 16.04,24.68 A 6.97,6.97 0 0,0 15.52,22.76 C 15.49,22.68 15.52,22.65 15.6,22.68 C 16.66,23.08 17.15,24.95 17.24,25.96 C 17.24,26.03 17.26,26.04 17.29,25.96 C 17.33,25.86 17.36,25.73 17.36,25.57 C 17.39,24.67 17.29,23.8 17.08,22.95 C 17.03,22.79 17.08,22.76 17.21,22.87 C 17.75,23.3 18.06,24.17 18.19,24.82 A 11.15,11.15 0 0,1 18.41,27.28 L 18.51,27.3 C 18.55,27.3 18.58,27.29 18.58,27.24 L 18.9,22.86 C 18.92,22.55 18.98,22.54 19.07,22.84 C 19.21,23.29 19.31,23.78 19.37,24.31 C 19.48,25.49 19.55,26.81 19.57,28.29 C 19.57,28.38 19.59,28.39 19.64,28.32 C 19.71,28.22 19.76,28.1 19.8,27.94 C 20.18,26.39 20.26,24.46 20.37,23.22 C 20.39,22.99 20.43,22.99 20.5,23.21 C 21.03,24.88 20.95,26.45 20.8,28.29 C 20.78,28.39 20.8,28.39 20.82,28.29 Z" fill="rgb(249, 161, 27)"/>
<path d="M 32.39,27.835 L 31.48,29.33 A 0.1,0.1 0 0,1 31.43,29.37 C 29.99,29.78 28.63,30.21 27.23,30.27 A 0.09,0.09 0 0,1 27.14,30.18 L 27.15,30.14 L 27.51,29.51 A 0.2,0.2 0 0,1 27.64,29.41 C 29.25,29.02 30.91,28.61 32.4,27.85 Z M 21.33,30.38 C 21.27,30.48 21.26,30.48 21.29,30.36 L 21.95,28.14 C 21.98,28.04 22.01,28.04 22.05,28.14 L 22.21,28.74 A 0.2,0.2 0 0,1 22.19,28.91 L 21.33,30.38 Z M 23.52,30.29 L 23.14,29.63 A 0.32,0.32 0 0,1 23.11,29.38 L 23.52,28.15 C 23.54,28.08 23.56,28.08 23.58,28.15 L 24,29.63 L 23.99,29.69 L 23.55,30.29 A 0.02,0.02 0 0,1 23.53,30.29 H 23.52 Z M 25.2,29.01 L 25.74,30.44 A 0.18,0.18 0 0,1 25.72,30.61 L 25.56,30.81 C 25.51,30.89 25.46,30.88 25.43,30.81 L 24.89,29.61 A 0.08,0.08 0 0,1 24.89,29.53 L 25.19,29.02 H 25.2 Z M 29.83,30.29 L 31.33,29.69 H 31.37 A 0.03,0.03 0 0,1 31.37,29.73 L 30.87,30.9 A 0.22,0.22 0 0,1 30.72,31.03 L 29.82,31.28 C 29.8,31.29 29.79,31.28 29.79,31.26 V 30.34 C 29.79,30.31 29.81,30.3 29.83,30.29 Z M 29.51,30.4 C 29.53,30.4 29.54,30.4 29.53,30.42 L 29.19,31.42 C 29.19,31.45 29.16,31.46 29.13,31.47 L 26.1,32.34 V 32.33 L 26.54,31.29 A 0.08,0.08 0 0,1 26.6,31.24 A 12.1,12.1 0 0,0 29.51,30.4 Z M 22.7,30.42 L 22.99,31.12 V 31.16 C 22.79,31.6 22.53,31.96 22.19,32.26 A 0.17,0.17 0 0,1 21.91,32.13 C 21.93,31.57 22.38,30.86 22.66,30.41 L 22.68,30.4 A 0.03,0.03 0 0,1 22.7,30.42 Z M 24.34,30.78 L 25.02,32.14 A 0.18,0.18 0 0,1 25.02,32.31 L 24.88,32.54 C 24.84,32.61 24.8,32.61 24.76,32.54 L 24.09,31.41 A 0.09,0.09 0 0,1 24.09,31.32 L 24.34,30.78 Z" fill="rgb(1, 81, 60)"/>
<path d="M 28.06,34.214999999999996 A 0.18,0.18 0 0,1 27.95,34.18 A 0.17,0.17 0 0,1 27.9,34.05 L 27.92,33.81 C 27.93,33.53 27.98,33.27 28.06,33.08 C 28.13,32.88 28.22,32.78 28.32,32.78 H 28.37 C 28.42,32.78 28.47,32.82 28.5,32.88 C 28.54,32.93 28.58,33.01 28.6,33.1 A 2.94,2.94 0 0,1 28.67,33.84 L 28.66,34.09 A 0.17,0.17 0 0,1 28.48,34.25 L 28.07,34.23 Z M 27.55,34.14 A 0.16,0.16 0 0,1 27.35,34.32 L 27.27,34.31 C 27.11,34.28 27.03,34.18 27.04,34.02 C 27.04,33.62 27.12,33.36 27.28,33.24 A 0.1,0.1 0 0,1 27.38,33.23 A 0.11,0.11 0 0,1 27.45,33.32 L 27.55,34.14 Z" fill="rgb(249, 161, 27)"/>
</svg>
