<?xml version="1.0" encoding="UTF-8"?>
<!-- generated by Finnhub -->
<svg viewBox="0 0 55.5 55.5" xmlns="http://www.w3.org/2000/svg">
<path d="M 0,0 H 55.5 V 55.5 H 0 Z" fill="rgb(239, 242, 248)"/>
<path d="M 16.24,18.314999999999998 C 13.95,21.19 17.3,17.77 15.42,20.61 C 15.98,20.41 17.31,18.51 16.95,20 C 17.16,19.9 17.35,19.46 17.62,19.53 C 17.59,19.87 17.72,19.74 17.98,19.68 C 17.68,20.14 17.27,20.98 17.46,21.34 C 18.28,20.76 17.74,20.94 18.03,21.5 C 18.52,21 18.48,21.15 18.8,21.55 C 19.56,20.35 19.1,21 19.87,21.55 C 20.15,20.59 19.47,18.19 20.69,17.74 C 22.25,17.17 19.23,19.14 20.84,18.46 C 21.52,18.18 20.26,19.37 20.44,19.81 C 21.91,18.94 20.77,20.03 20.94,20.92 C 20.97,21.29 21.2,20.96 21.31,20.81 C 21.28,21.79 21.55,21.15 21.95,20.9 C 21.91,21.27 21.98,21.67 22.05,22.1 C 22.31,23.04 22.42,20.89 22.57,20.58 C 23.1,20.82 22.26,21.9 23.09,21.13 C 23.08,21.37 22.81,21.63 23.19,21.69 C 23.19,21.91 22.92,22.64 23.56,22.12 C 23.72,23.22 22.74,24.59 21.78,23.45 C 22.14,23.22 23,23.22 23.18,22.87 C 21.38,23.07 20.81,24.2 19.36,22.35 C 19.15,22.08 19.15,22.23 19.16,22.46 C 18.46,22.24 16.8,21.22 16.49,21.74 C 17.03,21.9 18.21,22.44 16.99,22.44 C 18.25,23.21 17.29,23.01 16.39,22.99 C 16.89,23.45 15.97,23.46 15.79,23.59 C 15.43,24.19 16.45,23.36 15.58,24.71 C 16.91,24.33 16.22,24.76 15.66,25.39 C 15.96,26.02 16.79,24.5 15.98,26.52 C 15.68,27.23 16.2,26.75 16.53,26.55 L 16.51,27.02 C 16.45,27.32 17.01,26.82 16.84,27.57 L 16.81,28.12 C 17.19,27.87 17.15,26.93 17.36,28.26 C 18.1,26.76 17.58,28.42 18.26,28.64 C 18.25,27.34 18.19,27.46 18.93,28.26 C 18.87,27.41 19.4,28.36 19.73,28.53 C 19.79,27.53 20.6,28.83 20.92,29 C 20.92,27.6 18.38,26.69 19.2,25.2 C 19.66,25.01 19.05,25.86 19.44,25.91 C 19.93,25.44 19.76,25.88 19.75,26.27 C 20.33,26.27 19.82,27.04 20.55,26.3 C 20.37,29 21.32,24.9 21.28,28.76 C 21.99,28.81 21.45,26 22,27.22 L 22.33,28.2 C 22.71,28.68 22.39,26.6 23,28 C 23.05,27.9 22.93,26.92 23.2,27.29 C 23.77,28.82 23.3,26.8 23.59,26.55 C 23.87,26.82 23.8,27.46 24.14,27.57 C 23.79,24.92 24.39,27.21 24.64,26.7 C 24.61,25.75 22.64,23.9 24,24.44 C 24.6,24.2 23.88,25.3 24.57,24.66 C 24.51,25.66 24.78,25.18 24.87,24.52 C 25.07,24.38 25.42,23.69 25.53,24.28 C 26.03,24.18 25.68,23.51 25.48,23.11 C 25.4,22.99 24.85,21.97 25.21,22.09 C 25.57,22.7 26.08,23.13 25.81,22.13 C 26.3,22.53 26.67,23.53 27.05,23.96 C 27.01,22.9 25.95,21 26.36,20.91 C 27.97,23.31 27.27,21.95 27.1,20.33 C 27.42,20.44 27.6,20.89 27.81,21 C 28.2,19.55 28.44,22.08 28.71,22.22 C 29.14,20.16 28.61,21.12 27.44,19.45 C 27.11,18.74 26.81,17.97 27.61,17.66 C 28.47,16.03 27.8,17.91 27.71,18.93 C 27.96,18.93 28.01,18.5 28.09,18.33 C 28.52,18.55 28.37,17.69 28.8,17.57 C 28.84,18.09 28.15,20.35 28.96,19.64 C 29.16,20.9 29.11,19.98 29.76,19.7 C 29.88,20.83 30.2,19 30.32,20 C 31.1,19.83 29.97,17.52 31.04,18.18 C 31.88,18.78 30.86,17.32 31.86,17.95 L 31.69,17.32 C 31.97,17.39 32.36,18.1 32.41,17.61 C 32.61,17.74 33.06,18.26 32.79,17.7 C 33.85,18.1 32.36,16.5 32.13,16.2 C 30.91,15.27 31.92,15.35 32.93,15.4 C 33.61,15.39 34.83,18.42 33.94,17.33 C 33.71,16.93 33.75,17.61 33.69,17.69 C 33.83,19.19 32.51,17.98 31.81,18.49 C 31.65,18.73 31.97,18.79 30.86,18.79 C 31.9,19.64 30.35,20.35 29.81,21.03 C 29.25,21.91 30.61,20.68 31.11,20.68 C 31.18,22.08 29.18,21.98 28.37,22.8 C 27.93,23.17 28.07,22.04 27.64,22.13 C 28.12,23.46 26.3,26.21 28.09,24.09 C 28.15,24.33 27.23,25.61 27.93,25.22 C 27.99,25.3 27.85,26.17 28.09,26.12 C 28.41,25.02 28.2,26.43 28.55,26.55 C 28.7,26.15 28.67,25.42 29.17,25.27 L 29.31,26.6 C 29.73,25.88 29.46,25.98 29.84,26.6 C 29.93,26.3 30.01,25.58 30.29,25.38 C 30.64,25.62 30.64,27.18 30.91,27.5 C 31.12,26.52 31.1,25.58 31.85,27.02 C 32.45,28.06 31.41,25.66 32.45,26.37 C 32.52,26.03 31.73,25.79 32.12,25.44 C 32.48,25.1 32.85,25.01 32.69,25.62 C 33.85,25.46 33,24.16 32.84,23.68 C 33.32,23.69 33.52,24.61 33.79,24.52 C 34.68,23.92 33.61,25.05 33.43,25.37 C 32.85,25.85 32.93,26.51 32.93,27.16 C 33.18,27.02 33.27,26.64 33.58,26.69 C 33.34,28.59 33.74,27.41 34.22,26.57 C 34.34,27.35 34.05,28.47 34.75,26.8 C 35.12,28.17 34.52,28.6 35.45,26.9 C 35.65,27.36 35.83,28.21 36.13,28.58 C 36.13,26.96 35.6,24.53 36.72,27.98 C 36.85,27.07 36.84,26.12 37.67,27.21 C 37.64,26.98 36.54,24.77 36.53,24.54 C 37.33,25 38.94,28.04 38.43,25.97 C 39.88,26.97 36.15,22.77 38.74,23.9 C 38.11,22.77 36.65,23.03 35.51,23.13 C 35.47,22.13 34.18,22.03 33.44,22.33 C 33.44,22.36 34.42,23.04 33.98,23.29 C 33.34,22.99 32.18,22.09 31.54,21.71 C 31.55,20.77 32.41,21.58 32.77,21.83 C 32.91,21.14 33.61,22.65 33.3,21.42 C 33.78,21.72 33.57,21.12 33.6,20.87 C 33.91,20.95 33.94,21.72 34.16,21.72 C 34.3,21.39 33.96,20.24 34.5,21.02 C 34.79,21.39 35,21.12 34.99,21.82 C 35.35,21.79 35.47,21.6 35.47,22.16 C 36.06,22.21 36.35,20.52 35.52,21.26 C 35.36,21.1 34.97,20.46 35.46,20.56 C 34.42,19.08 34.6,18.28 36.44,19.4 C 36.92,19.8 36.78,20.01 36.17,19.97 C 36.92,20.9 36.22,21.75 35.93,22.67 C 36.39,22.55 36.8,21.42 36.8,22.55 C 36.93,22.93 37.19,21.93 37.24,21.9 C 37.87,21.89 38.07,22.56 38.44,22.71 C 37.34,20.14 39.09,22.79 39.91,23.51 C 39.81,23.13 39.69,22.88 39.51,22.6 C 38.63,21.22 39.36,22.03 39.57,22.04 C 38.92,19.9 40.61,23.58 40.65,23.24 C 40.39,22.41 40.47,20.96 39.76,20.28 C 41.38,20.5 41.3,20.38 40.15,19.59 C 39.61,19.16 38.53,18.97 37.99,18.59 C 38.38,18.35 40.35,18.92 39.52,18.33 C 39.2,18.04 40.24,18.24 40.45,18.3 C 40.42,17.53 37.11,17.76 38.66,17.48 C 39.21,17.41 39.1,17.46 39.1,17.23 C 38.9,17.19 38.07,17.33 38,17.14 C 38.08,17.03 39.02,17.1 39.1,16.74 C 37.84,16.54 37.83,16.87 38.22,16.17 C 37.8,16.31 37.71,16.42 37.86,15.88 C 37.66,15.9 37.17,16.3 37.36,15.88 C 36.76,15.96 37.17,16.42 36.58,16.5 C 35.46,16.82 34.32,17.3 34.11,15.8 C 35,16.19 34.85,16.85 34.83,15.45 C 35.51,15.6 35.24,16.83 35.75,15.88 C 36.23,16.54 35.87,15.28 35.9,15.32 C 36.26,15.35 36.52,15.86 36.54,16.14 C 36.88,14.51 37.37,15.59 38.49,15.63 C 38.81,14.98 36.96,14.33 36.57,13.99 C 37.01,13.88 37.57,13.81 36.94,13.52 C 38.17,13.38 36.96,13.02 36.44,13.04 C 36.01,12.97 34.69,13.25 35.32,12.96 C 36.57,12.34 35.25,12.59 34.64,12.71 C 34.46,12.07 35.74,12 35.84,11.54 C 34.54,11.07 31.5,14.44 31.92,13.15 C 32.32,12.73 34.02,11.7 33.63,11.32 C 33.28,11.5 32.52,12.28 32.8,11.45 C 32.47,11.36 31.37,12.99 31.73,12.21 C 32.06,11.67 31.41,12.03 31.28,12.2 C 31.33,11.58 32.48,11.13 32.51,10.75 C 31.96,10.93 32.45,10.35 32.36,9.94 C 31.9,10 31.79,10.63 31.53,10.89 C 31.78,9.3 30.73,12.11 29.98,12.2 C 30.08,11.76 31.35,9.86 30.53,10.7 C 30.32,11.02 29.94,11.34 29.63,11.55 C 29.57,11.3 30.15,10.66 29.78,10.51 C 28.74,12.19 29.48,9.11 28.56,9 C 28.7,9.5 28.87,10.37 28.54,10.78 C 28.41,10.35 28.27,9.55 27.86,9.33 C 28,10.85 28.7,11.82 27.22,10.12 C 27.61,11.3 27.5,10.94 26.67,10.5 C 26.75,10.92 28.44,12.76 26.72,11.9 C 27.53,12.66 27.74,13.93 28.48,14.69 C 28.38,14.13 28.7,14.02 29.18,14.49 C 29.73,14.92 28.98,13.86 29.61,14.08 C 29.71,15.21 31.82,13.71 30.98,14.83 C 29.22,14.66 26.42,15.26 26.23,17.55 C 26.93,16.91 26.86,17.17 26.78,17.93 C 25.92,17.79 24.99,18.35 24.22,18.78 C 23.87,18.89 23.91,19.26 23.87,19.6 C 24.73,19.45 24.07,19.7 23.97,20.03 C 24.55,19.83 24.11,20.54 23.75,20.49 A 3.3,3.3 0 0,0 22.53,18.36 C 21.99,17.39 23.13,15.87 24.04,15.96 C 23.51,16.21 22.64,16.83 23.8,16.66 C 22.75,17.69 22.82,17.61 24.42,17.09 C 24.11,17.33 22.37,18.61 23.56,18.26 C 23.48,18.86 23.86,18.41 24.08,18.16 C 24.48,17.61 24.75,17.67 24.42,18.31 C 24.92,17.84 25.68,17.53 26.08,17.05 C 25.92,16.24 28.07,13.1 26.2,15.07 C 26.36,14.67 27.27,13 26.42,13.7 L 26.36,12.44 C 26.19,12.47 26.2,12.84 26.08,12.99 C 25.78,12.66 26.13,10.68 25.65,12.29 C 24.59,10.47 25.21,12.49 25.25,13.51 C 24.78,12.99 25.08,13.6 24.98,13.86 C 23.98,14.02 25.13,12.42 24.7,11.97 C 24.16,12.94 24.42,11.47 24.43,10.96 C 24.07,11.15 23.93,11.73 23.84,12.09 C 23.44,12.23 24.06,10.61 24.18,10.19 C 24.15,8.87 23.02,12.81 23.2,10.9 C 23.35,9.57 22.66,12.33 22.74,9.48 C 22.11,9.88 22.22,10.89 22.16,11.55 C 21.66,11.32 20.46,9.62 21.11,10.9 C 22.63,13.36 21.61,12.28 19.41,11.96 C 19.61,12.24 20.57,12.64 19.88,12.54 C 19.71,12.54 19.16,12.42 19,12.48 C 19.15,13.06 18.06,12.71 18.1,13.2 C 18.2,13.27 18.76,13.14 18.74,13.3 C 17.59,14.2 19.67,13.19 20.29,13.4 C 20.53,13.61 19.66,13.74 19.49,13.88 C 18.52,14.66 20.25,13.95 20.62,14.17 C 20.39,14.22 19.25,14.63 18.95,14.74 C 18.55,15.96 19.01,15.27 19.95,15.02 C 19.42,15.95 19.21,16.57 20.43,15.77 C 20.89,15.27 24.75,16.03 22.38,14.83 C 21.43,14.43 25.04,14.33 24.61,15.27 C 22.54,14.57 24.67,15.51 23.08,15.69 C 22.5,15.97 20.19,15.87 20.92,16.44 C 20.3,16.58 20.76,16.54 20.89,16.84 C 20.57,16.92 19.15,17.24 20.41,17.3 C 19.41,18.43 18.76,16.15 17.58,16.29 C 16.85,16.03 14.47,17.11 16.26,16.97 C 16.02,17.19 15.66,17.3 15.43,17.55 C 14.63,18.63 15.02,18.35 16.03,17.95 C 15.83,18.32 15.73,18.45 16.25,18.33 Z" fill="rgb(53, 136, 90)"/>
<path d="M 30.84,46.985 C 29.49,47 27.05,46.96 25.68,46.97 C 24.98,46.91 23.28,47.24 23,46.59 C 23.3,46.49 23.45,46.32 23.39,45.99 C 23.92,46.06 26.24,45.76 25.81,45.17 C 26.95,45.47 27.11,45.71 26.66,44.42 C 27.53,44.93 26.16,42.73 27.24,43.72 C 27.97,45.32 28.16,45.39 29.11,43.75 C 26.71,45.78 28.58,43.05 28.26,42.05 C 27.9,42.29 27.99,43.05 27.56,43.29 C 27.18,42.84 26.44,40.76 27.06,40.69 C 27.4,40.79 27.41,41.64 27.9,41.88 C 27.53,40.84 28.04,41.05 28.73,41.46 C 29.17,41.5 28.49,39.47 28.25,40.69 C 27.2,40.56 28.79,38.15 28.78,39.49 C 29.05,39.44 28.95,39.05 28.96,38.84 C 28.7,38.81 28.43,39.1 28.11,38.96 C 27.76,37.9 27.86,40.08 27.69,40.4 C 27.19,40.17 25.79,37.3 26.99,38.24 C 27.55,39.06 27.99,37.89 27.81,37.34 C 27.46,38.62 26.24,35.72 26.74,35.51 C 27.24,36.55 28.4,37.31 28.69,38.41 C 28.91,37.6 28.07,36.63 27.86,35.88 C 27.62,36.28 27.53,35.85 27.42,35.61 C 27.15,35.16 26.39,33.51 27.4,34.48 C 27.84,34.77 28.57,36.83 28.98,36.19 C 28.98,35.37 28.35,35.49 28.12,35.19 C 27.76,34.54 27.52,34.04 28.13,33.45 C 28.47,32.18 28.06,32.85 27.75,33.59 C 27.08,33.41 26.7,32.25 27.59,32.11 C 27.41,32.27 26.46,29.96 26.79,30.14 C 27.36,30.58 28.19,30.77 28.49,31.28 C 28.59,31.38 28.49,32.16 28.69,31.91 C 29.39,31.3 28.38,31.18 28.42,30.29 C 28.28,30.47 28.25,30.67 28.02,30.45 C 27.72,29.38 27.69,30.28 27.35,29.99 C 27.04,29.49 26.15,27.86 27.41,28.37 C 27.97,27.67 26.01,26.15 26.71,26 C 29.15,26.93 27.04,29.48 28.2,28.15 C 28.43,27.74 28.48,27.77 28.8,27.87 C 27.27,30.55 29.49,29.75 28.57,29.02 C 28.65,28.48 29.37,27.74 29.95,27.84 C 29.54,28.58 28.87,28.96 29.87,29.52 C 30.21,30.32 29.02,31.18 29.63,31.98 C 29.53,32.43 29.13,33.78 28.93,34.11 C 28.2,33.23 28.17,34.31 28.75,34.76 C 29.75,33.46 30.03,33.99 29.51,35.32 C 29.31,35.86 29.95,36.12 29.59,36.64 C 29.59,36.66 29.01,37.71 29.33,37.37 C 29.43,37.22 29.46,37.22 29.68,37.21 C 30.04,37.57 29.48,38.21 29.38,38.59 C 30.55,38.22 30.04,39.17 29.5,39.55 C 29.4,40.51 29.36,40.57 30.12,39.89 C 30.49,40.4 29.72,41.05 29.68,41.45 C 29.82,42.17 29.18,42.25 29.02,42.97 C 30.52,41.8 29.23,43.39 30.12,44.14 C 30.34,44.94 29.17,46.23 29.96,45.71 C 30.91,44.43 30.4,45.47 30.98,45.35 C 32.38,44.83 31.36,45.99 32.07,45.51 C 32.4,45.29 32.49,45.46 32.56,45.76 C 32.84,45.47 33.06,45.74 33.18,46.03 C 33.58,45.99 34.08,46.08 33.71,46.48 C 35.03,47.02 31.47,46.93 30.85,47 Z" fill="rgb(53, 136, 90)"/>
</svg>
