<?xml version="1.0" encoding="UTF-8"?>
<!-- generated by Finnhub -->
<svg viewBox="0 0 55.5 55.5" xmlns="http://www.w3.org/2000/svg">
<path d="M 0,0 H 55.5 V 55.5 H 0 Z" fill="rgb(239, 242, 248)"/>
<path d="M 38.99,28.985 V 33 H 43 V 29 H 45 V 38 H 43 V 35 H 39 V 38 H 37 V 29 H 39 Z M 22,29 H 24 V 33.7 C 24,34.7 24.2,36 25.5,36 C 26.77,36 27,34.7 27,33.7 V 29 H 29 V 34.03 C 29,36.28 28.01,38 25.5,38 C 23.03,38 22,36.32 22,34.03 V 29 Z" fill="rgb(56, 56, 55)"/>
<path d="M 30.139999999999997,33.805 C 24.22,33.82 18.05,31.11 15.7,29.75 L 15.32,30.9 C 17.75,32.27 24.11,35 30.15,35 S 42.57,32.55 45,31.33 V 30.2 C 42.52,31.4 36.08,33.81 30.15,33.81 Z" fill="rgb(209, 79, 57)"/>
<path d="M 15.52,30.235 A 30.42,30.42 0 0,0 30.42,34.4 C 36.38,34.4 41.95,32.28 45,30.7 V 30.21 C 42.52,31.41 36.08,33.82 30.15,33.82 S 18.05,31.11 15.7,29.75 L 15.53,30.25 Z" fill="url(#b)"/>
<path d="M 6.99,23.495 C 7,20.91 9.41,19 11.9,19 C 13.02,19 14.14,19.41 15,20.14 V 20.91 A 4.27,4.27 0 0,0 11.9,19.49 C 9.7,19.49 7.5,21.29 7.5,23.56 C 7.5,25.76 9.76,27.5 11.86,27.5 C 12.98,27.5 14.24,26.98 15,26.14 V 26.91 C 14.1,27.61 13.06,28 11.88,28 C 9.43,28 7,26.08 7,23.51 Z M 16,24.96 A 2.9,2.9 0 0,1 19,22 C 19.9,22 20.94,22.37 21.47,23.12 L 21.5,22 H 22 V 28 H 21.5 L 21.47,26.84 C 20.98,27.62 19.93,28 19.03,28 A 3,3 0 0,1 16,24.96 Z M 16.5,24.96 A 2.56,2.56 0 0,0 19.02,27.5 A 2.54,2.54 0 0,0 21.54,24.9 C 21.54,23.54 20.32,22.5 18.97,22.5 A 2.54,2.54 0 0,0 16.5,24.96 Z M 43,24.96 A 2.9,2.9 0 0,1 46,22 C 46.9,22 47.94,22.37 48.47,23.12 L 48.5,22 H 49 V 28 H 48.5 L 48.47,26.84 C 47.98,27.62 46.93,28 46.03,28 A 3,3 0 0,1 43,24.96 Z M 43.5,24.96 A 2.56,2.56 0 0,0 46.02,27.5 A 2.54,2.54 0 0,0 48.54,24.9 C 48.54,23.54 47.32,22.5 45.97,22.5 A 2.54,2.54 0 0,0 43.5,24.96 Z M 23,22 H 23.5 V 22.89 C 23.76,22.34 24.6,22 25.25,22 C 25.47,22 25.72,22.05 26,22.14 L 25.63,22.64 C 25.49,22.58 25.33,22.54 25.14,22.54 C 23.88,22.54 23.5,23.77 23.5,24.76 V 28 H 23 V 22 Z" fill="rgb(121, 121, 120)"/>
<path d="M 25.99,25.005 A 3,3 0 1,1 32,25.02 A 3,3 0 0,1 26,25.02 Z" fill="url(#a)"/>
<path d="M 25.99,24.995 A 3.03,3.03 0 0,1 28.98,22 A 3,3 0 1,1 26,25.01 Z M 26.5,25.01 C 26.5,26.31 27.62,27.5 28.94,27.5 C 30.32,27.5 31.5,26.4 31.5,25.01 C 31.5,23.61 30.32,22.5 28.93,22.5 A 2.53,2.53 0 0,0 26.5,25.01 Z M 33,28 V 18 H 33.5 V 28 H 33 Z M 35,20.5 C 35,20.36 35.05,20.24 35.15,20.15 C 35.25,20.05 35.36,20 35.5,20 C 35.64,20 35.76,20.05 35.85,20.15 C 35.95,20.25 36,20.36 36,20.5 C 36,20.64 35.95,20.75 35.85,20.85 C 35.75,20.95 35.64,21 35.5,21 A 0.48,0.48 0 0,1 35.15,20.85 A 0.48,0.48 0 0,1 35,20.5 Z M 35.5,28 V 22 H 35 V 28 H 35.5 Z M 38.5,22 V 23.04 C 38.82,22.4 39.48,22 40.2,22 C 41.6,22 42,23.17 42,24.4 V 28 H 41.5 V 24.38 C 41.5,23.44 41.25,22.5 40.14,22.5 C 38.82,22.5 38.5,23.95 38.5,25.04 V 28 H 38 V 22 H 38.5 Z" fill="rgb(121, 121, 120)"/>
<path d="M 13.99,37.985 V 29 H 17.3 C 18.96,29 20,30.03 20,31.77 C 20,32.93 19.54,34.07 18.35,34.31 L 21,38 H 18.28 L 16,34.54 V 38 H 14 Z M 16,33 H 16.19 C 17.26,33 18,32.68 18,31.91 C 18,31.16 17.29,31 16.19,31 H 16 V 33 Z M 30,37.03 L 30.9,35.23 C 31.6,35.88 32.17,36 32.77,36 C 33.29,36 34,35.83 34,35.26 C 34,34.5 30.5,34.23 30.5,31.86 C 30.5,30.26 31.48,29 33.11,29 C 33.99,29 34.91,29.27 35.67,29.7 L 34.83,31.43 C 34.43,31.08 33.93,31 33.43,31 C 33.01,31 32.5,31.24 32.5,31.7 C 32.5,33.18 36,32.58 36,34.9 C 36,36.77 34.73,38 32.84,38 C 31.84,38 30.84,37.64 30,37.03 Z" fill="rgb(56, 56, 55)"/>
<defs>
<linearGradient id="b" x1="45" x2="15.51" y1="34.4" y2="34.4" gradientUnits="userSpaceOnUse">
<stop stop-color="rgb(224, 222, 210)" offset="0"/>
<stop stop-color="rgb(254, 222, 124)" offset="1"/>
</linearGradient>
<linearGradient id="a" x1="29" x2="29" y1="22" y2="28" gradientUnits="userSpaceOnUse">
<stop stop-color="rgb(254, 253, 247)" offset="0"/>
<stop stop-color="rgb(254, 203, 58)" offset="1"/>
</linearGradient>
</defs>
</svg>
