<?xml version="1.0" encoding="UTF-8"?>
<!-- generated by Finnhub -->
<svg viewBox="0 0 55.5 55.5" xmlns="http://www.w3.org/2000/svg">
<rect width="56" height="56" fill="rgb(208, 201, 192)"/>
<path d="M 25.886,15.241 C 28.6203,18.4127 28.5726,22.9892 25.7756,26.148 C 23.9034,28.2608 25.4529,31.35 28.2386,31.2285 C 30.2562,31.1408 31.5672,29.1068 30.9311,27.2415 C 30.7457,26.6999 30.3766,26.2422 30.006,25.7827 C 29.7315,25.4423 29.4563,25.101 29.2542,24.7238 C 27.7425,21.9098 27.7713,19.1175 29.3406,16.347 C 29.5343,16.0045 29.7857,15.7005 30.0361,15.3977 C 30.4024,14.9548 30.7665,14.5144 30.9447,13.9598 C 31.8354,11.1788 28.7498,8.9716 26.3482,10.4993 C 25.1598,11.2553 24.6395,12.7493 25.1508,14.061 C 25.3083,14.4645 25.5567,14.8628 25.896,15.2558 Z M 29.5516,28.218 C 29.5516,29.0519 28.869,29.7278 28.027,29.7278 S 26.5024,29.0519 26.5024,28.218 C 26.5024,27.3842 27.185,26.7083 28.027,26.7083 S 29.5516,27.3842 29.5516,28.218 Z M 29.4721,43.954 C 29.7039,44.6133 29.4358,45.448 28.7973,45.7855 C 27.8635,46.2805 26.8569,45.8868 26.5502,44.8855 C 26.273,43.9855 26.9069,43.0495 27.8544,43 C 28.7466,42.955 29.7175,42.895 30.7672,42.82 C 34.3769,42.5635 37.3731,41.1085 39.7558,38.455 C 42.1415,35.7985 43.2511,32.614 43.0845,28.9016 C 43.064,28.4133 42.8595,27.7091 42.3119,27.5696 C 41.3599,27.3288 41.1191,28.7036 41.1077,29.311 C 41.0327,34.342 39.3809,38.626 34.5322,40.775 C 30.0879,42.7437 24.3392,42.3252 19.9882,40.514 C 18.25,39.7895 16.689,38.516 15.3598,37.2357 C 13.0627,35.024 11.7244,32.0247 12.0471,28.8725 C 12.1001,28.3505 12.2705,27.8607 12.5583,27.4033 C 13.0536,26.6135 14.2192,26.3817 14.9236,27.0567 C 15.6279,27.7317 15.7552,28.76 15.7734,29.6937 C 15.8393,33.2217 17.4138,35.8565 20.7084,37.4922 C 24.7142,39.4857 30.9264,40.0797 34.7794,37.1457 C 37.041,35.4237 38.1157,33.0395 38.0036,29.993 C 37.9581,28.769 38.1869,27.6215 38.6898,26.5505 C 38.9026,26.0976 39.2286,25.6347 39.5643,25.158 C 40.3328,24.0668 41.1524,22.9032 40.7824,21.6208 C 40.1576,19.454 37.1993,19.4968 36.2745,21.38 C 35.7383,22.478 35.9064,23.9585 36.1768,25.1038 C 36.4192,26.1253 36.6433,27.1588 36.8493,28.2042 C 37.4068,31.0182 36.7759,33.4445 34.9567,35.483 C 32.8209,37.8747 29.4558,38.2437 26.3021,37.9152 C 23.2893,37.6025 20.5673,36.275 18.7723,33.872 C 17.584,32.2812 17.3522,30.047 17.1659,28.1323 C 17.0864,27.3223 16.7183,26.4965 16.2229,25.8485 C 15.1005,24.3725 14.0008,22.5185 15.0142,20.6555 C 15.789,19.2268 17.618,18.7903 19.0517,19.3595 C 21.417,20.2955 21.6056,22.7435 21.1716,24.9395 C 21.1024,25.2885 21.015,25.6355 20.9277,25.9828 C 20.7143,26.831 20.5007,27.6801 20.5491,28.5597 C 20.7399,31.964 22.7212,34.2905 26.243,34.9475 C 31.5712,35.942 34.918,32.6052 33.966,27.3493 C 33.8024,26.4403 33.5654,25.403 33.2548,24.2375 C 32.605,21.7918 33.0753,19.0873 35.4043,17.8183 C 35.8784,17.5603 36.4214,17.3473 37.0334,17.1793 C 38.0059,16.9138 39.201,16.25 38.8556,15.0463 C 38.6345,14.2738 38.0649,13.8553 37.147,13.7908 C 33.7956,13.5568 31.2145,16.5425 30.6192,19.5463 C 30.3374,20.9668 30.5298,22.3085 31.1963,23.5715 C 31.3901,23.9393 31.6391,24.2805 31.889,24.6229 C 32.1635,24.999 32.4391,25.3765 32.6436,25.7923 C 33.8956,28.337 33.2003,31.3992 30.6805,32.882 C 27.938,34.4975 24.1913,33.2915 23.1598,30.2517 C 22.4054,28.0333 22.9303,26.3458 24.1936,24.5593 C 25.7727,22.3228 25.9772,19.8298 24.6253,17.3525 C 23.4347,15.17 20.9876,13.2688 18.3837,13.9078 C 17.6279,14.0938 17.2234,14.5843 17.1704,15.3793 C 17.1023,16.4233 17.8702,16.97 18.7859,17.1905 C 20.4082,17.5798 22.0419,18.4528 22.7099,19.9378 C 23.462,21.6095 23.3529,23.1283 22.5895,24.7955 C 22.2592,25.52 21.9873,26.2273 21.7738,26.9173 C 21.7192,27.0943 21.695,27.0898 21.7011,26.9038 C 21.7032,26.8375 21.7012,26.7691 21.6992,26.7002 C 21.6949,26.554 21.6905,26.4054 21.726,26.2693 C 21.7719,26.0922 21.8187,25.9164 21.8652,25.7415 L 21.8653,25.7412 C 22.3056,24.0864 22.7244,22.5125 22.11,20.7748 C 21.5443,19.1683 20.0651,18.4123 18.4951,18.0028 C 16.8061,17.5633 16.0813,16.5373 16.3206,14.9248 C 16.5206,13.5658 17.9929,12.8728 19.2699,12.8908 C 22.9235,12.9425 25.7182,16.124 26.2976,19.4765 C 26.6793,21.677 26.0454,23.5333 24.7707,25.2905 C 23.6983,26.7665 23.3347,28.3662 24.055,30.0875 C 25.0843,32.549 27.9312,33.422 30.2647,32.1147 C 31.475,31.4352 32.165,30.3365 32.3346,28.8185 C 32.4755,27.5615 32.14,26.408 31.3281,25.358 C 29.5301,23.033 29.1514,20.5205 30.192,17.8205 C 31.2281,15.1363 33.8706,12.902 36.8539,12.893 C 37.9945,12.8908 39.2283,13.4533 39.6327,14.5333 C 40.5373,16.9593 37.9232,17.8483 36.2091,18.4312 L 36.1722,18.4438 C 35.5224,18.6643 34.9786,19.1203 34.5409,19.8118 C 33.8653,20.8768 33.6721,22.0145 33.9615,23.225 C 34.0214,23.4742 34.0833,23.7257 34.1456,23.9789 C 34.8611,26.8851 35.6348,30.0279 34.1341,32.7785 C 32.9095,35.0217 30.3556,36.0365 27.8449,35.978 C 23.003,35.8677 19.6789,32.9877 19.663,28.0423 C 19.6614,27.4873 19.775,26.825 20.0038,26.0555 C 20.6445,23.8933 21.2171,20.1155 17.7112,20.021 C 16.6524,19.9918 15.764,20.6713 15.5799,21.7153 C 15.3397,23.0873 16.081,24.1375 16.8329,25.2026 C 16.9983,25.437 17.1643,25.6721 17.3204,25.9115 C 17.8203,26.681 18.0134,27.6102 18.0952,28.508 C 18.3383,31.1742 18.8245,33.2735 21.1148,34.9835 C 23.8278,37.0085 27.236,37.535 30.4897,36.9365 C 34.6681,36.1692 36.8198,32.297 35.9723,28.2898 C 35.7269,27.1273 35.4792,25.9715 35.2293,24.8225 C 34.5931,21.9065 35.4838,18.9793 39.0579,19.1368 C 40,19.1788 40.7362,19.6445 41.2664,20.534 C 42.3956,22.4263 41.33,24.278 40.1735,25.8035 C 39.2237,27.0545 38.8193,28.742 38.8738,30.2832 C 38.992,33.5997 37.6529,36.2202 34.8567,38.1447 C 33.401,39.1482 31.6484,39.7542 29.599,39.9627 C 26.2453,40.3047 22.1646,39.5172 19.274,37.7127 C 16.6368,36.0672 15.1925,33.698 14.9411,30.605 C 14.9246,30.3954 14.9204,30.1641 14.9161,29.9236 C 14.9041,29.2658 14.8908,28.5387 14.623,27.995 C 14.3049,27.3493 13.4528,27.3943 13.1688,28.049 C 12.9507,28.556 12.8515,29.1342 12.8712,29.7837 C 12.9779,33.503 14.9502,35.9757 17.7971,38.1807 C 18.8726,39.0147 20.0375,39.6455 21.2917,40.073 C 25.2179,41.4072 30.0575,41.738 33.9067,40.1045 C 37.6406,38.5205 39.7082,35.54 40.1097,31.163 C 40.1362,30.8734 40.1471,30.5724 40.1582,30.2667 C 40.1928,29.316 40.229,28.3191 40.7413,27.473 C 41.2003,26.7193 42.0955,26.4245 42.8748,26.87 C 43.8269,27.4145 44.02,28.8275 43.9973,29.8422 C 43.8405,37.2897 38.2374,43.2022 30.7663,43.7062 C 30.3725,43.7332 29.9825,43.7542 29.5962,43.7692 C 29.472,43.7752 29.4303,43.8367 29.4712,43.9537 Z M 21.8884,27.84 C 21.8301,27.7448 21.7737,27.6527 21.7559,27.5402 C 21.7363,27.4202 21.6938,27.4112 21.6287,27.5132 C 21.506,27.7067 21.4076,27.8935 21.3333,28.0735 C 21.197,28.4095 21.3258,28.5775 21.7196,28.5775 C 21.9544,28.576 22.0619,28.4597 22.0422,28.2287 C 22.0287,28.0691 21.9572,27.9524 21.8884,27.84 Z" clip-rule="evenodd" fill="rgb(254, 254, 252)" fill-rule="evenodd"/>
</svg>
