<?xml version="1.0" encoding="UTF-8"?>
<!-- generated by Finnhub -->
<svg viewBox="0 0 55.5 55.5" xmlns="http://www.w3.org/2000/svg">
<path d="M 0,0 H 55.5 V 55.5 H 0 Z" fill="rgb(1, 74, 139)"/>
<path d="M 10.99,27.985 A 17,17 0 1,1 45,28 A 17,17 0 0,1 11,28 Z M 13,28 C 13,36.37 19.63,43 28,43 C 36.37,43 43,36.37 43,28 C 43,19.63 36.37,13 28,13 C 19.63,13 13,19.63 13,28 Z M 37,37.52 A 6.52,6.52 0 0,1 32.6,39 C 28.4,39 26,36.3 26,33.12 C 26,31.96 26.27,30.92 26.76,30.02 A 5.78,5.78 0 0,1 26,26.96 C 25.6,26.99 25.2,27 24.78,27 H 23 V 30.76 C 23,32.56 23.18,33 25,33 V 33.5 H 19 V 33 C 20.73,33 21,32.56 21,30.76 V 20.98 C 21,19.18 20.82,19 19,19 V 18.5 H 26.26 C 28.29,18.5 30.92,19.04 31.74,21.02 A 9.53,9.53 0 0,1 35.94,21.8 L 36.55,22.04 C 36.82,22.12 37,22.12 37,22.12 V 24 H 36.41 A 4.47,4.47 0 0,0 31.92,21.62 C 31.97,21.86 32,22.12 32,22.4 C 32,24.84 30.29,26.11 28,26.66 A 8.4,8.4 0 0,0 28.12,28.38 A 6.47,6.47 0 0,1 32.28,27 C 33.38,27 34.88,27.3 35.95,27.8 C 36.32,27.96 36.45,28 36.55,28.04 C 36.82,28.12 37,28.12 37,28.12 V 30 H 36.41 A 4.48,4.48 0 0,0 32.34,27.6 A 4,4 0 0,0 28.62,29.97 A 4.16,4.16 0 0,0 32.48,32.41 A 6.1,6.1 0 0,0 36.58,31.19 L 37,31.52 A 6.53,6.53 0 0,1 32.6,33 A 7.07,7.07 0 0,1 28.1,31.58 C 28.04,31.98 28,32.41 28,32.85 C 28,36.35 29.74,38.34 32.48,38.41 C 34.3,38.45 35.68,37.94 36.58,37.19 L 37,37.52 Z M 28.07,25.8 C 29.35,25.16 30,24.04 30,22.51 V 22.31 C 28.95,23.05 28.28,24.31 28.07,25.8 Z M 29.84,21.4 C 29.25,19.51 27.14,19 25.79,19 H 23 V 26.44 H 24.78 C 25.23,26.44 25.65,26.41 26.04,26.36 A 5.74,5.74 0 0,1 29.84,21.41 Z" fill="rgb(254, 254, 253)"/>
</svg>
