<?xml version="1.0" encoding="UTF-8"?>
<!-- generated by Finnhub -->
<svg viewBox="0 0 55.5 55.5" xmlns="http://www.w3.org/2000/svg">
<path d="M 0,0 H 55.5 V 55.5 H 0 Z" fill="rgb(239, 242, 248)"/>
<path d="M 44.99,27.985 A 17,17 0 1,1 11,28 A 17,17 0 0,1 45,28 Z M 40,28 A 12,12 0 1,1 16,28 A 12,12 0 0,1 40,28 Z M 19.01,24 H 18.5 L 19,25.77 V 32 H 21 V 30.4 H 22.37 A 3.16,3.16 0 0,0 25.5,27.2 C 25.5,25.43 24.1,24 22.37,24 H 19 Z M 22.11,28.59 H 21 V 25.8 H 22.12 C 22.77,25.8 23.31,26.42 23.31,27.19 C 23.31,27.95 22.77,28.58 22.11,28.58 Z M 31.9,20 H 24.6 L 25.05,22 H 28.83 L 24,36 H 32 L 31.34,34 H 27.22 L 31.89,20 Z M 31,24.38 V 28.76 A 3.26,3.26 0 0,0 34.28,32 H 34.72 A 3.26,3.26 0 0,0 38,28.76 V 24 L 36,24.38 V 28.82 C 36,29.47 35.12,30 34.46,30 S 33,29.47 33,28.82 V 24 L 31,24.38 Z" fill="url(#a)" fill-rule="evenodd"/>
<defs>
<linearGradient id="a" x1="11.71" x2="35.15" y1="10.6" y2="36.22" gradientUnits="userSpaceOnUse">
<stop stop-color="rgb(6, 198, 233)" offset="0"/>
<stop stop-color="rgb(2, 28, 89)" offset=".69"/>
</linearGradient>
</defs>
</svg>
