<?xml version="1.0" encoding="UTF-8"?>
<!-- generated by Finnhub -->
<svg viewBox="0 0 55.5 55.5" xmlns="http://www.w3.org/2000/svg">
<path d="M 0,0 H 55.5 V 55.5 H 0 Z" fill="rgb(239, 242, 248)"/>
<path d="M 9.99,23.255 H 11.59 V 25 H 10 V 23.27 Z M 22.7,23 H 24.32 V 31 H 22.7 V 23 Z M 42.36,23 H 44 V 28.29 L 45.57,26 H 47.49 L 45.57,28.19 L 47.7,31 H 45.72 L 44.42,29.03 L 43.99,29.51 V 31 H 42.35 V 23 Z M 18.17,26.58 C 18.7,26.18 19.36,25.99 19.99,26 C 20.63,26.03 21.31,26.26 21.74,26.8 C 22.22,27.38 22.36,28.25 22.21,29 H 18.77 C 18.8,29.25 18.91,29.54 19.12,29.68 C 19.42,29.91 19.81,29.98 20.17,30 C 20.71,30.01 21.24,29.95 21.76,29.8 C 21.82,30.12 21.9,30.36 21.96,30.68 C 21.4,30.88 20.81,30.98 20.22,31 A 3.32,3.32 0 0,1 18.03,30.37 C 17.8,30.17 17.58,29.93 17.46,29.64 A 2.56,2.56 0 0,1 18.18,26.59 Z M 19.17,27.21 C 18.95,27.39 18.82,27.71 18.77,28 H 20.76 C 20.75,27.68 20.63,27.3 20.36,27.13 C 19.99,26.92 19.51,26.94 19.18,27.21 Z M 35.27,26 C 36.05,25.96 36.89,26.18 37.49,26.74 C 38.34,27.51 38.44,29 37.76,29.92 C 37.32,30.52 36.62,30.85 35.93,30.95 C 35.11,31.05 34.23,30.92 33.54,30.39 A 2.23,2.23 0 0,1 32.69,28.87 C 32.61,28.17 32.79,27.4 33.28,26.91 C 33.78,26.31 34.55,26.06 35.27,26.01 Z M 35.17,27.03 C 34.72,27.13 34.43,27.6 34.37,28.07 C 34.3,28.57 34.34,29.25 34.66,29.59 C 35.03,30.06 35.79,30.14 36.17,29.67 C 36.44,29.37 36.52,28.87 36.51,28.47 C 36.51,28.05 36.4,27.55 36.11,27.26 C 35.86,27.01 35.49,26.96 35.17,27.03 Z M 40.7,26.33 C 41.05,26.07 41.48,25.99 42.01,25.99 V 27.41 C 41.56,27.34 40.94,27.35 40.58,27.69 C 40.35,27.89 40.28,28.21 40.28,28.51 V 31 H 38.68 V 26 H 40 L 40.1,27.04 C 40.28,26.78 40.44,26.51 40.7,26.34 Z M 49.61,26.06 A 3.84,3.84 0 0,1 51.78,26.3 C 51.7,26.63 51.6,26.95 51.51,27.27 C 51.07,27.11 50.61,26.94 50.13,27.02 C 49.93,27.05 49.68,27.22 49.72,27.47 C 49.72,27.69 49.94,27.75 50.1,27.83 C 50.66,28.05 51.3,28.15 51.72,28.63 C 52,28.93 52.05,29.39 51.98,29.78 C 51.88,30.12 51.67,30.42 51.38,30.58 C 50.75,30.98 49.99,31.02 49.28,30.96 A 4.16,4.16 0 0,1 48.03,30.65 C 48.13,30.31 48.23,29.98 48.31,29.63 C 48.85,29.9 49.47,30.03 50.06,29.97 C 50.21,29.95 50.4,29.87 50.45,29.69 C 50.49,29.54 50.46,29.36 50.34,29.27 C 50.06,29.07 49.73,29.02 49.42,28.9 C 48.98,28.75 48.54,28.5 48.29,28.08 C 48.09,27.74 48.14,27.32 48.31,26.98 C 48.59,26.5 49.11,26.17 49.61,26.06 Z M 6.25,26.26 C 6.9,25.96 7.68,25.94 8.32,26.28 C 8.82,26.54 9.22,27.02 9.39,27.58 C 9.55,28.04 9.55,28.55 9.47,29.02 A 2.33,2.33 0 0,1 8.49,30.57 C 7.84,31 7,31.1 6.29,30.82 C 6.06,30.74 5.89,30.57 5.69,30.44 V 33 H 4 V 26 H 5.42 C 5.45,26.22 5.47,26.6 5.51,26.8 C 5.74,26.62 5.96,26.39 6.24,26.27 Z M 6.5,27.02 C 6.05,27.12 5.67,27.55 5.7,28.05 C 5.7,28.43 5.68,29.23 5.83,29.48 C 6.21,30.13 7.2,30.15 7.63,29.55 C 7.86,29.21 7.91,28.5 7.86,28.09 A 1.28,1.28 0 0,0 7.41,27.21 C 7.15,27.01 6.81,26.96 6.5,27.02 Z M 15.9,25.99 H 17.61 L 15.9,28.45 L 17.6,31 H 15.8 L 14.85,29.33 L 13.87,31 H 12.11 L 13.9,28.47 L 12.16,26 H 13.94 L 14.95,27.68 L 15.9,26 Z M 10,26 H 11.6 V 31 H 10 V 26 Z M 24.9,26 H 26.54 L 27.28,29.64 L 28.28,26 H 29.56 L 30.49,29.64 L 31.31,26 H 32.89 L 31.26,31 H 29.75 L 28.85,27.73 L 27.97,31 H 26.44 L 24.89,26 Z"/>
<path d="M 21.99,22.985 V 25 C 19.04,24.74 12.56,24.19 12.28,24.09 C 12.38,24.04 22,23 22,23 Z" fill="rgb(236, 27, 34)"/>
</svg>
