<?xml version="1.0" encoding="UTF-8"?>
<!-- generated by Finnhub -->
<svg viewBox="0 0 55.5 55.5" xmlns="http://www.w3.org/2000/svg">
<path d="M 0,0 H 55.5 V 55.5 H 0 Z" fill="rgb(239, 242, 248)"/>
<path d="M 35.99,18.985 H 31 L 36,16 V 19 Z" fill="rgb(4, 117, 192)"/>
<path d="M 7.99,35.985 L 11.42,20 H 18.41 A 3.61,3.61 0 0,1 21.93,24.3 L 21.59,26.1 A 4.85,4.85 0 0,1 16.65,30 H 13.34 L 12.16,36 H 8 Z M 14,27 L 14.86,23 H 16.42 C 17.26,23 17.88,23.83 17.68,24.7 L 17.56,25.24 A 2.19,2.19 0 0,1 15.46,27 H 14 Z" fill="rgb(253, 176, 42)" fill-rule="evenodd"/>
<path d="M 25.9,27.485 L 23,20 H 27.78 L 29,23.57 L 31.14,20 H 36 L 30.37,27.63 L 33.22,36 H 28.37 L 27.26,31.86 L 24.2,36 H 19 L 25.91,27.5 Z" fill="rgb(4, 117, 192)"/>
<path d="M 47.99,21.445 L 45.6,24.26 C 43.55,22.67 40.55,22.99 40.55,24.41 C 40.55,25.54 42.23,26.1 43.06,26.23 C 46.02,26.91 46.52,28.85 46.48,29.56 C 46.48,34.07 42.01,36 38.51,36 C 35.71,36 33.77,35.07 33.15,34.6 L 35.24,31.63 A 7.6,7.6 0 0,0 38.82,32.83 C 39.77,32.83 41.72,32.55 41.72,31.3 C 41.72,30.3 40.62,29.86 40.07,29.77 C 38.49,29.57 35.41,28.39 35.74,25.17 C 36.17,21.14 40.79,20 43.38,20 A 8.7,8.7 0 0,1 48,21.46 Z" fill="rgb(65, 195, 216)"/>
</svg>
