<?xml version="1.0" encoding="UTF-8"?>
<!-- generated by Finnhub -->
<svg viewBox="0 0 55.5 55.5" xmlns="http://www.w3.org/2000/svg">
<path d="M 0,0 H 55.5 V 55.5 H 0 Z" fill="rgb(0, 76, 143)"/>
<path d="M 15.99,13.985 L 12,22 S 16.33,20.52 22,22 V 46 L 27,41 V 23.8 C 28.22,24.36 29.18,24.9 30,25.38 V 38 L 33,35 V 27.13 C 34.16,27.67 35.42,28 37.4,28 C 43.9,28 45,21 45,21 S 42.5,26 38,26 C 34.37,26 32.08,23.62 29.63,21.08 A 34.8,34.8 0 0,0 26.28,17.91 A 20.42,20.42 0 0,0 21.25,14.89 A 17.63,17.63 0 0,0 16,14 Z M 37.5,24 A 4.5,4.5 0 1,0 37.5,15 A 4.5,4.5 0 0,0 37.5,24 Z" fill="rgb(254, 254, 253)"/>
</svg>
