<?xml version="1.0" encoding="UTF-8"?>
<!-- generated by Finnhub -->
<svg viewBox="0 0 55.5 55.5" xmlns="http://www.w3.org/2000/svg">
<path d="M 0,28 A 28,28 0 1,1 56,28 A 28,28 0 0,1 0,28 Z" fill="rgb(239, 242, 248)"/>
<path d="M 8.26,29.985 H 9.73 C 9.87,30 10,29.87 10,29.73 V 26 H 11.66 C 13.46,26.08 15,24.8 15,23 S 13.5,20 11.65,20 H 8.27 A 0.27,0.27 0 0,0 8,20.27 V 29.73 C 8,29.88 8.13,30 8.27,30 Z M 10,21.5 H 11.53 C 12.33,21.5 13.01,22.21 13.01,23 C 13.01,23.81 12.34,24.5 11.53,24.5 H 10 V 21.5 Z M 19,25.01 V 29.73 C 19,29.88 19.14,30 19.29,30 H 20.71 C 20.86,30 21,29.87 21,29.73 V 25 L 24.45,20.41 A 0.26,0.26 0 0,0 24.5,20.28 C 24.5,20.12 24.37,20 24.22,20 H 22.74 C 22.64,20 22.55,20.05 22.5,20.13 L 20,23.5 L 17.5,20.13 A 0.3,0.3 0 0,0 17.26,20 H 15.79 C 15.64,20 15.49,20.12 15.5,20.28 C 15.5,20.33 15.52,20.38 15.55,20.41 L 19,25.01 Z M 38.71,20 H 37.29 C 37.13,20 37,20.12 37,20.27 V 29.73 C 37,29.88 37.13,30 37.29,30 H 38.71 C 38.87,30 39,29.88 39,29.73 V 20.27 C 39,20.12 38.87,20 38.71,20 Z M 44.43,28.5 C 43.44,28.5 42.21,27.58 42.13,27.54 A 0.39,0.39 0 0,0 41.85,27.48 A 0.36,0.36 0 0,0 41.62,27.64 L 41.07,28.5 A 0.38,0.38 0 0,0 41,28.7 C 41,28.78 41.06,28.84 41.15,28.92 C 41.45,29.18 42.58,30 44.5,30 C 46.64,30 48,28.68 48,27.25 C 48,25.45 46.3,24.65 44.82,24.11 C 43.58,23.65 43,23.23 43,22.58 C 43,22.13 43.5,21.5 44.36,21.5 C 45.2,21.5 46.36,22.28 46.48,22.35 A 0.3,0.3 0 0,0 46.66,22.39 A 0.5,0.5 0 0,0 47.01,22.19 L 47.59,21.39 A 0.32,0.32 0 0,0 47.64,21.21 C 47.64,21.11 47.59,21 47.49,20.93 A 5.71,5.71 0 0,0 44.45,20 C 42.03,20 41,21.4 41,22.64 C 41,24.28 42.45,25.14 43.88,25.67 C 45.16,26.14 46,26.62 46,27.33 C 46,27.93 45.23,28.5 44.43,28.5 Z" fill="rgb(14, 65, 105)"/>
<path d="M 17.86,31.985 H 17.13 A 0.14,0.14 0 0,0 17,32.13 V 35 L 14.5,32 H 14.12 A 0.12,0.12 0 0,0 14,32.13 V 36.87 C 14,36.94 14.06,37 14.13,37 H 14.87 C 14.94,37 15,36.94 15,36.87 V 34 L 17.5,37 H 17.88 C 17.91,37 17.94,36.99 17.96,36.96 A 0.13,0.13 0 0,0 18,36.87 V 32.13 A 0.14,0.14 0 0,0 17.87,32 Z M 22.55,35.6 A 0.12,0.12 0 0,0 22.47,35.57 A 0.12,0.12 0 0,0 22.39,35.6 A 1.46,1.46 0 0,1 19.93,34.49 C 19.93,33.62 20.55,33 21.39,33 C 21.76,33 22.12,33.15 22.39,33.41 A 0.1,0.1 0 0,0 22.48,33.45 A 0.1,0.1 0 0,0 22.56,33.41 L 22.96,32.85 A 0.13,0.13 0 0,0 22.96,32.65 A 2.2,2.2 0 0,0 21.39,32 A 2.42,2.42 0 0,0 19,34.5 C 19,35.78 20.01,37 21.36,37 C 22,37 22.53,36.76 22.96,36.33 A 0.15,0.15 0 0,0 22.96,36.13 L 22.56,35.6 Z M 32.87,36 H 31 V 32.14 C 31,32.06 30.93,32 30.86,32 H 30.14 A 0.15,0.15 0 0,0 30,32.14 V 36.86 C 30,36.93 30.07,37 30.14,37 H 32.86 C 32.93,37 33,36.93 33,36.86 V 36.13 A 0.14,0.14 0 0,0 32.87,36 Z" fill="rgb(223, 12, 121)"/>
<path d="M 28.99,23.845 L 30.26,22.66 L 28.39,20.13 A 0.32,0.32 0 0,0 28.14,20 H 26.32 C 26.16,19.98 25.99,20.1 26,20.27 C 26,20.32 26.02,20.37 26.05,20.41 L 28.8,24.2 C 28.86,24.08 28.9,23.96 29,23.86 Z M 32.05,26.06 L 30.85,27.22 L 32.72,29.87 C 32.78,29.95 32.88,30 32.99,30 H 34.69 C 34.84,30.02 35.01,29.9 35,29.73 C 35,29.68 34.98,29.63 34.95,29.59 L 32.27,25.69 C 32.2,25.82 32.15,25.95 32.05,26.06 Z" fill="rgb(14, 65, 105)"/>
<path d="M 31.99,22.985 L 31.27,24.25 L 31.93,25.53 L 35,19 L 29.5,24 H 30.9 L 32,23 Z" fill="rgb(223, 12, 121)"/>
<path d="M 30.7,24.485 H 29.21 L 26,31 L 31.5,26 L 30.71,24.5 Z" fill="rgb(14, 65, 105)"/>
<path d="M 42.870000000000005,34.485 H 41.62 C 41.56,34.5 41.5,34.56 41.5,34.63 V 34.88 C 41.5,34.94 41.56,35 41.62,35 H 42 V 35.83 C 41.75,35.93 41.64,36 41.37,36 C 40.53,35.99 39.99,35.3 40,34.48 C 40.01,33.68 40.53,33.01 41.36,33 C 41.73,33 42.12,33.14 42.39,33.4 A 0.1,0.1 0 0,0 42.47,33.45 A 0.1,0.1 0 0,0 42.56,33.41 L 42.96,32.84 A 0.15,0.15 0 0,0 43,32.74 A 0.15,0.15 0 0,0 42.96,32.64 A 2.46,2.46 0 0,0 41.35,32 C 40,32 39,33.2 39,34.5 S 40,37 41.35,37 C 41.91,37 42.45,36.84 42.95,36.55 A 0.13,0.13 0 0,0 42.99,36.5 L 43,36.44 V 34.64 C 43,34.56 42.94,34.5 42.88,34.5 Z M 47.37,32 H 46.67 A 0.14,0.14 0 0,0 46.57,32.07 L 45.5,33.7 L 44.42,32.06 A 0.14,0.14 0 0,0 44.31,31.99 H 43.63 C 43.55,31.99 43.5,32.06 43.5,32.13 C 43.5,32.15 43.5,32.18 43.52,32.2 L 45,34.5 V 36.85 C 45,36.89 45.01,36.92 45.04,36.95 C 45.06,36.98 45.09,36.99 45.13,36.99 H 45.87 C 45.91,36.99 45.94,36.97 45.96,36.95 A 0.15,0.15 0 0,0 46,36.85 V 34.5 L 47.48,32.2 A 0.14,0.14 0 0,0 47.5,32.14 C 47.5,32.07 47.45,32 47.37,32 Z" fill="rgb(223, 12, 121)"/>
<path d="M 10.49,36.985 A 2.5,2.5 0 1,0 10.5,32 A 2.5,2.5 0 0,0 10.5,37 Z M 10.5,36 A 1.5,1.5 0 1,0 10.5,33 A 1.5,1.5 0 0,0 10.5,36 Z M 26.5,37 A 2.5,2.5 0 1,0 26.5,32 A 2.5,2.5 0 0,0 26.5,37 Z M 26.5,36 A 1.5,1.5 0 1,0 26.5,33 A 1.5,1.5 0 0,0 26.5,36 Z M 35.5,37 A 2.5,2.5 0 1,0 35.5,32 A 2.5,2.5 0 0,0 35.5,37 Z M 35.5,36 A 1.5,1.5 0 1,0 35.5,33 A 1.5,1.5 0 0,0 35.5,36 Z" fill="rgb(223, 12, 121)" fill-rule="evenodd"/>
</svg>
