<?xml version="1.0" encoding="UTF-8"?>
<!-- generated by Finnhub -->
<svg viewBox="0 0 55.5 55.5" xmlns="http://www.w3.org/2000/svg">
<path d="M 0,0 H 55.5 V 55.5 H 0 Z" fill="rgb(113, 118, 120)"/>
<path d="M 12.99,23.985 H 7.09 C 6.05,24 5.15,24.84 5.01,26 V 30.95 A 2,2 0 0,0 7,33 H 8.12 C 8.35,33 8.52,32.79 8.52,32.54 V 31.33 C 8.52,31.19 8.3,31 8.03,31 H 7 V 26 H 13 V 31 H 10.5 C 10.23,31 10,31.09 10,31.38 V 33.56 C 10,33.81 10.27,34 10.5,34 H 11.5 C 11.77,34 12,33.76 12,33.47 V 33 H 13 C 14.1,33 15,32.16 15,31 V 26.14 C 15,24.97 14.1,24 13,24 Z M 26.6,24 H 25.42 C 25.19,24 25,24.2 25,24.45 V 31 L 19,31 V 24.44 C 19,24.19 18.82,24 18.6,24 H 17.4 C 17.18,24 17,24.2 17,24.44 V 31 C 17,32.17 17.9,33 19,33 H 25 C 26.1,33 27,32.17 27,31 V 24.44 C 26.95,24.19 26.77,24 26.6,24 Z M 37,27.5 V 26 H 31 V 31 H 37 V 29.5 H 32.4 A 0.4,0.4 0 0,1 32,29.09 V 28 C 32,27.7 32.23,27.49 32.5,27.49 H 37 Z M 29.5,33 C 29.23,33 29,32.76 29,32.46 V 24.44 C 29,24.2 29.18,24 29.4,24 H 37 C 38.1,24 39,24.98 39,26.15 V 27.33 C 39,27.77 38.86,28.16 38.68,28.45 C 38.91,28.79 39,29.18 39,29.63 V 30.99 C 39,32.07 38.18,33 37.18,33 H 29.5 Z M 51,32.56 V 31.5 C 51,31.26 50.73,31 50.5,31 H 43 V 26 H 50.5 C 50.73,26 51,25.74 51,25.5 V 24.44 C 51,24.19 50.73,24 50.5,24 H 42.93 C 41.92,24 41,24.93 41,26 V 31 C 41,32.17 41.9,33 43,33 H 50.5 C 50.83,33 51,32.8 51,32.56 Z M 44.47,27.5 C 44.21,27.5 44,27.7 44,27.95 V 29.05 C 44,29.3 44.21,29.5 44.47,29.5 H 50.53 C 50.79,29.5 51,29.3 51,29.05 V 27.95 A 0.46,0.46 0 0,0 50.53,27.5 H 44.47 Z" fill="rgb(254, 227, 10)"/>
</svg>
