<?xml version="1.0" encoding="UTF-8"?>
<!-- generated by Finnhub -->
<svg viewBox="0 0 55.5 55.5" xmlns="http://www.w3.org/2000/svg">
<path d="M 0,0 H 55.5 V 55.5 H 0 Z" fill="url(#a)"/>
<path d="M 30.369999999999997,13.965 A 3.06,3.06 0 0,1 34.28,12.18 C 36.97,13.14 39.34,14.72 41.21,16.75 A 2.97,2.97 0 0,1 41,21 A 3.08,3.08 0 0,1 36.7,20.8 A 11.26,11.26 0 0,0 32.2,17.83 A 2.99,2.99 0 0,1 30.38,13.99 Z M 25.54,13.89 A 2.98,2.98 0 0,1 23.92,17.82 A 11.23,11.23 0 0,0 17,28 C 17,32.46 19.97,36.55 24,38.22 A 2.98,2.98 0 0,1 25.62,42.15 A 3.07,3.07 0 0,1 21.63,43.75 A 17.26,17.26 0 0,1 11,28 C 11,21.01 15.38,14.85 21.55,12.29 A 3.07,3.07 0 0,1 25.55,13.89 Z M 41,35.01 A 2.97,2.97 0 0,1 41.2,39.25 A 17.37,17.37 0 0,1 34.29,43.82 A 3.06,3.06 0 0,1 30.39,42.02 A 2.99,2.99 0 0,1 32.21,38.18 A 11.26,11.26 0 0,0 36.69,35.22 A 3.08,3.08 0 0,1 40.99,35.02 Z" fill="rgb(254, 254, 253)"/>
<defs>
<linearGradient id="a" x1="47.41" x2="7.85" y1="8.21" y2="48.74" gradientUnits="userSpaceOnUse">
<stop stop-color="rgb(226, 36, 105)" offset="0"/>
<stop stop-color="rgb(240, 82, 56)" offset="1"/>
</linearGradient>
</defs>
</svg>
