<?xml version="1.0" encoding="UTF-8"?>
<!-- generated by Finnhub -->
<svg viewBox="0 0 55.5 55.5" xmlns="http://www.w3.org/2000/svg">
<path d="M 0,0 H 55.5 V 55.5 H 0 Z" fill="rgb(1, 68, 122)"/>
<path d="M 15.49,25.985 H 17 V 32 H 15.5 V 26 Z M 15.73,29.27 H 16.18 C 16.18,30.64 15.54,32 13.96,32 C 12.64,32 12,31.06 12,29.8 V 26 H 13.5 V 29.8 C 13.5,30.39 13.88,31 14.5,31 C 15.46,31 15.73,30.14 15.73,29.27 Z M 21.5,28 C 21.5,27.42 21.1,27.2 20.52,27.2 C 20.06,27.2 19.5,27.49 19.5,28 H 18 C 18,26.77 19.48,26 20.52,26 C 21.75,26 23,26.7 23,28 V 32 H 21.5 V 28 Z M 21.57,28.37 L 21.58,29.21 H 20.7 C 20.09,29.21 19.5,29.28 19.5,30 C 19.5,30.47 19.5,31 20.3,31 C 21,31 21.55,30.6 21.58,30 L 21.98,30.61 A 2.08,2.08 0 0,1 20,32 C 19,32 18,31.33 18,30.27 C 18,28.82 19.4,28.37 20.63,28.37 H 21.57 Z M 25.5,32 H 24 V 26 H 25.5 V 32 Z M 25.21,28.84 H 24.79 C 24.79,27.44 25.56,26 27.12,26 C 28.45,26 29,27 29,28.22 V 32 H 27.5 V 28.22 C 27.5,27.56 27.23,27.14 26.55,27.14 C 25.63,27.14 25.21,28.03 25.21,28.84 Z M 34,26 V 27 H 30 V 26 H 34 Z M 31,24 H 32.5 V 30.06 C 32.5,30.55 32.98,30.75 33.45,30.75 C 33.67,30.75 33.87,30.72 33.99,30.7 L 34,31.85 C 33.72,31.94 33.38,32 32.94,32 C 31.78,32 31,31.36 31,30.18 V 24 Z M 37.73,32 A 2.7,2.7 0 0,1 35,29.2 V 28.98 C 35,27.45 35.92,26 37.58,26 C 39.2,26 40,27.34 40,28.83 V 29.43 H 35.62 V 28.45 H 38.66 V 28.35 C 38.64,27.69 38.28,27.11 37.56,27.11 C 36.92,27.11 36.56,27.65 36.45,28.22 C 36.4,28.45 36.37,28.71 36.37,28.98 V 29.2 C 36.37,30.07 36.87,30.89 37.82,30.89 C 38.39,30.89 38.86,30.65 39.2,30.19 L 39.89,30.94 A 2.53,2.53 0 0,1 37.73,32 Z M 42.5,32 H 41 V 26 H 42.5 V 32 Z M 44,26.07 L 43.98,27.41 A 2.2,2.2 0 0,0 43.47,27.37 C 43.27,27.37 43.08,27.4 42.93,27.46 C 42.42,27.65 42.23,28.16 42.21,28.67 L 41.93,28.64 C 41.93,27.81 42.08,26.69 42.85,26.2 A 1.27,1.27 0 0,1 43.79,26.02 C 43.88,26.03 43.95,26.05 44,26.07 Z M 44.5,24 H 46 V 25 H 44.5 V 24 Z M 46.02,32 V 26 H 44.5 V 32 H 46.02 Z" fill="rgb(239, 242, 248)"/>
<path d="M 9.49,27.985 C 9.5,29.58 8.42,30.5 7.5,30.5 C 6.58,30.5 5.5,29.58 5.5,28 S 6.58,25.5 7.5,25.5 C 8.42,25.5 9.5,26.42 9.5,28 Z M 9.53,31.26 A 3.2,3.2 0 0,1 7.5,32 C 5.57,32 4,30.2 4,28 S 5.57,24 7.5,24 S 11,25.8 11,28 A 4.4,4.4 0 0,1 10.42,30.2 L 11,30.5 V 32 L 9.53,31.26 Z" fill="rgb(239, 242, 248)" fill-rule="evenodd"/>
<path d="M 48.510000000000005,25.985 L 49.49,27.9 L 50.49,26 H 51.93 L 50.33,28.94 L 52,32 H 50.55 L 49.5,30 L 48.45,32 H 47 L 48.67,28.94 L 47.07,26 H 48.52 Z" fill="rgb(239, 242, 248)"/>
</svg>
