<?xml version="1.0" encoding="UTF-8"?>
<!-- generated by Finnhub -->
<svg viewBox="0 0 55.5 55.5" xmlns="http://www.w3.org/2000/svg">
<path d="M 0,0 H 55.5 V 55.5 H 0 Z" fill="rgb(52, 174, 91)"/>
<path d="M 11.99,15.761999999999999 C 12,13.69 13.54,12 15.438,12 H 40.562 C 42.461,12 44,13.69 44,15.777 V 40.223 C 44,42.31 42.46,44 40.562,44 H 15.438 C 13.539,44 12,42.31 12,40.223 V 15.777 Z" fill="rgb(254, 254, 253)"/>
<path d="M 37.929,34.727 H 44 V 44 H 37.939 Z" fill="rgb(254, 254, 253)"/>
<path d="M 23.99,32.985 C 24,30.076 22,29.828 21,30.07 V 33 H 24 Z" fill="rgb(245, 177, 53)"/>
<path d="M 38.334,16.987 H 33.376 C 33.136,18.972 33.828,19.625 34.204,19.706 C 36.553,19.512 37.24,20.029 37.29,20.311 C 37.501,21.602 36.826,25.96 36.462,27.977 C 35.86,26.654 35.559,22.53 35.484,20.634 C 33.587,20.182 33.138,21.064 33.15,21.562 C 32.76,23.337 34.116,28.542 34.844,30.922 L 32.586,36.128 C 34.934,37.193 36.023,35.118 36.274,33.948 C 37.478,36.854 39.26,36.612 40,36.128 L 37.591,30.923 C 40.693,19.561 39.385,16.908 38.344,17.003 Z M 30,27 H 27 V 30 H 30 V 27 Z M 24.27,32.981 H 30 V 34.978 H 25.44 C 24.193,34.978 24.14,33.648 24.27,32.981 Z M 30,22 H 27 V 25 H 30 V 22 Z M 32,38.025 V 18.998 H 30 V 38.025 H 32 Z" fill="rgb(52, 174, 91)"/>
<path d="M 26.99,32.966 V 19.39 C 25.43,19.39 25.012,20.231 25,20.652 V 32.982 H 27 Z" fill="rgb(52, 174, 91)"/>
<path d="M 18.99,18.985 V 16.079 C 20.725,15.717 20.894,16.688 21,17.219 V 19 C 22.98,19 24.087,20.168 24,21 H 21 V 24 C 23.152,24 24.159,25.168 24,26 H 21 V 38 C 26.163,38.012 37.402,38.029 38.628,38 C 39.853,37.971 40.091,39.167 40,40 H 20.762 C 19.376,40 18.512,39.362 18.254,39.077 C 18.254,40.089 16.74,40.137 16,40 V 29.134 C 16,27.546 17.26,27.512 18,27.694 V 35.711 C 18,36.707 18.708,36.987 19,37 V 26 C 18.869,26.05 18.493,26.12 17.254,26 C 16.015,25.88 15.89,24.782 16,24 H 19 V 21 C 18.89,21.017 18.493,21.04 17.254,21 C 16.015,20.96 15.89,19.816 16,19 H 19 Z M 31.495,17 H 24.344 C 24.103,18.52 24.846,18.965 25.247,18.998 H 32.586 C 32.826,17.478 31.959,17.033 31.495,17 Z" fill="rgb(52, 174, 91)"/>
</svg>
