<?xml version="1.0" encoding="UTF-8"?>
<!-- generated by Finnhub -->
<svg viewBox="0 0 55.5 55.5" xmlns="http://www.w3.org/2000/svg">
<path d="M 0,0 H 55.5 V 55.5 H 0 Z" fill="rgb(13, 27, 66)"/>
<path d="M 17.99,28.365 L 12.34,31.28 A 16,16 0 0,0 30.77,43.76 L 26.94,37.95 A 10,10 0 0,1 18.01,28.38 Z" fill="url(#a)"/>
<path d="M 12.16,30.285 A 16,16 0 0,1 43.77,25.25 L 37.99,28.38 L 38,28 A 10,10 0 0,0 18.01,27.5 L 12.17,30.3 Z" fill="url(#b)"/>
<path d="M 31.849999999999998,43.515 A 16,16 0 0,0 43.91,26.33 L 37.9,29.44 A 10,10 0 0,1 28.09,38 L 31.86,43.53 Z" fill="url(#c)"/>
<defs>
<linearGradient id="a" x1="13.94" x2="26.06" y1="32.31" y2="44.24" gradientUnits="userSpaceOnUse">
<stop stop-color="rgb(214, 84, 242)" offset="0"/>
<stop stop-color="rgb(111, 44, 151)" offset=".3"/>
<stop stop-color="rgb(56, 27, 81)" offset="1"/>
</linearGradient>
<linearGradient id="b" x1="30.98" x2="27.78" y1="14.08" y2="30.29" gradientUnits="userSpaceOnUse">
<stop stop-color="rgb(150, 249, 253)" offset="0"/>
<stop stop-color="rgb(68, 188, 239)" offset=".38"/>
<stop stop-color="rgb(30, 66, 105)" offset="1"/>
</linearGradient>
<linearGradient id="c" x1="32.38" x2="30.42" y1="42.99" y2="29.76" gradientUnits="userSpaceOnUse">
<stop stop-color="rgb(252, 155, 85)" offset="0"/>
<stop stop-color="rgb(210, 86, 69)" offset=".19"/>
<stop stop-color="rgb(75, 62, 91)" offset="1"/>
</linearGradient>
</defs>
</svg>
