<?xml version="1.0" encoding="UTF-8"?>
<!-- generated by Finnhub -->
<svg viewBox="0 0 55.5 55.5" xmlns="http://www.w3.org/2000/svg">
<path d="M 0,28 A 28,28 0 1,1 56,28 A 28,28 0 1,1 0,28 Z" fill="rgb(144, 4, 125)"/>
<path d="M 12.99,42.985 H 43 V 13 H 13 V 43 Z M 42,42 H 14 V 14 H 42 V 42 Z M 38,24.5 C 38,20.69 35.44,16.09 28,16 C 21.41,16.18 18,19.8 18,24.5 C 18.18,31.2 24.14,33 28,33 C 34.33,32.98 38.17,29.27 38,24.5 Z M 33.12,27.05 A 3.98,3.98 0 0,1 32.95,27.73 V 27.78 A 5.2,5.2 0 0,1 23.09,27.78 L 23.08,27.75 A 3.96,3.96 0 0,1 23.08,21.25 V 21.2 A 5.2,5.2 0 0,1 32.94,21.2 V 21.23 A 3.97,3.97 0 0,1 33.11,21.93 A 12,12 0 0,1 33.11,27.05 Z M 17.3,31.65 L 17.02,32.56 A 0.4,0.4 0 0,0 17.19,33.02 L 31.16,40.8 A 1.7,1.7 0 0,0 33.06,40.58 L 38.83,35.38 C 39.03,35.2 39.05,34.9 38.9,34.68 A 0.56,0.56 0 0,0 38.25,34.5 L 37.55,34.85 A 15.26,15.26 0 0,1 25.58,34.83 L 17.84,31.42 A 0.4,0.4 0 0,0 17.3,31.66 Z" fill="rgb(254, 254, 253)"/>
</svg>
