<?xml version="1.0" encoding="UTF-8"?>
<!-- generated by Finnhub -->
<svg viewBox="0 0 55.5 55.5" xmlns="http://www.w3.org/2000/svg">
<path d="M 0,0 H 55.5 V 55.5 H 0 Z" fill="rgb(235, 104, 33)"/>
<path d="M 10.99,31.985 V 25 H 9.656 V 29.521 C 9.656,30.376 9.101,30.664 8.606,30.664 C 8.112,30.664 7.569,30.376 7.569,29.521 V 25 H 6 V 29.738 C 6,30.424 6.133,31.013 6.64,31.518 C 6.99,31.868 7.496,32.072 8.124,32.072 C 8.703,32.072 9.282,31.856 9.692,31.422 V 32 H 11 Z M 18.516,32 V 27.262 C 18.516,26.576 18.383,25.987 17.876,25.482 C 17.526,25.132 17.019,24.928 16.392,24.928 C 15.812,24.928 14.91,25.144 14.5,25.578 V 25 H 13 V 32 H 14.5 V 27.5 C 14.5,26.5 15.505,26.336 16,26.336 C 16.495,26.336 17,26.646 17,27.5 V 32 H 18.516 Z M 22,32 L 21.988,25.55 H 20.419 L 20.431,32 H 22 Z M 30.312,27.356 C 30.312,25.719 30.288,24.564 29.432,23.71 C 28.852,23.132 28.128,22.808 27.139,22.808 C 26.149,22.808 25.425,23.132 24.834,23.71 C 23.977,24.564 23.965,25.72 23.965,27.356 C 23.965,29.281 23.977,30.243 24.835,31.098 C 25.425,31.675 26.149,32 27.139,32 C 27.827,32 28.406,31.832 28.864,31.543 L 29.637,32.289 L 30.517,31.41 L 29.781,30.677 C 30.301,29.919 30.312,29.028 30.312,27.356 Z M 28.635,27.356 C 28.635,28.511 28.599,29.004 28.478,29.377 L 27.826,28.727 L 26.946,29.617 L 27.694,30.352 A 0.993,0.993 0 0,1 27.139,30.508 A 1.45,1.45 0 0,1 26.053,30.038 C 25.739,29.678 25.643,29.281 25.643,27.356 C 25.643,25.719 25.739,25.118 26.053,24.756 A 1.442,1.442 0 0,1 27.139,24.299 C 27.597,24.299 27.971,24.48 28.213,24.757 C 28.526,25.117 28.635,25.719 28.635,27.356 Z M 44.042,25.517 C 43.607,25.084 43.172,24.927 42.557,24.927 C 41.882,24.927 40.952,25.241 40.65,25.602 V 25 H 39 V 32 H 40.65 V 27.861 C 40.65,26.709 41.544,26.336 42.027,26.336 C 42.413,26.336 42.617,26.468 42.859,26.709 L 44.042,25.517 Z M 49.978,28.694 V 28.032 C 49.978,26.252 48.988,25 47.239,25 C 45.61,25 44.5,26.155 44.5,28.2 C 44.5,31.013 45.946,32 47.43,32 C 48.564,32 49.18,31.663 49.819,31.013 L 48.866,30.087 C 48.468,30.472 48.13,30.677 47.442,30.677 C 46.549,30.677 46,30 46.044,28.694 H 49.978 Z M 48.434,27.623 H 46.044 C 46.057,27.346 46.081,27.178 46.189,26.949 C 46.359,26.576 46.709,26.299 47.239,26.299 C 47.77,26.299 48.119,26.576 48.289,26.949 C 48.397,27.178 48.422,27.346 48.434,27.623 Z M 37,32 V 25 H 35.656 V 29.521 C 35.656,30.376 35.101,30.664 34.606,30.664 C 34.112,30.664 33.569,30.376 33.569,29.521 V 25 H 32 V 29.738 C 32,30.424 32.133,31.013 32.64,31.518 C 32.99,31.868 33.496,32.072 34.124,32.072 C 34.703,32.072 35.282,31.856 35.692,31.422 V 32 H 37 Z M 22.3,23.6 A 1.1,1.1 0 1,1 20.1,23.6 A 1.1,1.1 0 0,1 22.3,23.6 Z" fill="rgb(254, 254, 253)"/>
</svg>
