<?xml version="1.0" encoding="UTF-8"?>
<!-- generated by Finnhub -->
<svg viewBox="0 0 55.5 55.5" xmlns="http://www.w3.org/2000/svg">
<path d="M 0,0 H 55.5 V 55.5 H 0 Z" fill="rgb(239, 242, 248)"/>
<path d="M 32.14,7.985 C 27.1,13.11 17,25.7 17,35.17 C 17,38 18.8,47 27.81,47 C 35.33,47 39,40.83 39,35.93 C 39,32.89 37.21,29.81 35.34,26.57 C 33.28,23.02 31.11,19.27 31.11,15.23 C 31.11,12.55 31.81,9.3 32.15,8 Z M 29.28,17 C 28.95,17.97 28.28,20.54 28.28,23.07 C 28.28,24.73 28.69,26.1 29.08,27.39 C 29.42,28.56 29.75,29.67 29.75,30.89 C 29.75,33.47 29.11,35.76 26,37.01 C 26.07,37.56 27.15,38.53 30.87,37.97 C 30.57,38.49 29.47,39.6 27.51,39.84 C 27.71,40.56 28.81,42 31.56,42 C 35.02,42 37,39.09 37,35.89 C 37,33.03 35.52,31.13 33.86,28.99 C 31.72,26.23 29.28,23.09 29.28,17 Z" fill="url(#a)" fill-rule="evenodd"/>
<circle cx="33.5" cy="13.5" r="1.5" fill="rgb(110, 204, 230)"/>
<circle cx="36" cy="12" r="1" fill="rgb(110, 204, 230)"/>
<circle cx="36.5" cy="14.5" r=".5" fill="rgb(110, 204, 230)"/>
<defs>
<linearGradient id="a" x1="35.03" x2="16.91" y1="25.45" y2="37.25" gradientUnits="userSpaceOnUse">
<stop stop-color="rgb(39, 178, 229)" offset="0"/>
<stop stop-color="rgb(67, 146, 204)" offset="1"/>
</linearGradient>
</defs>
</svg>
