<?xml version="1.0" encoding="UTF-8"?>
<!-- generated by Finnhub -->
<svg viewBox="0 0 55.5 55.5" xmlns="http://www.w3.org/2000/svg">
<path d="M 0,0 H 55.5 V 55.5 H 0 Z" fill="rgb(239, 242, 248)"/>
<path d="M 27.959999999999997,9.985 H 28.04 C 28.17,10.14 28.26,10.3 28.31,10.48 C 28.49,11.04 28.79,11.48 29.37,11.67 C 30.34,11.99 31.11,11.47 31.53,10.59 C 31.6,10.44 31.67,10.37 31.83,10.42 A 0.11,0.11 0 0,1 31.92,10.52 C 31.95,11.17 32.04,11.75 32.57,12.17 C 33.55,12.97 34.5,12.45 35.18,11.6 A 0.11,0.11 0 0,1 35.24,11.57 C 35.64,11.48 35.42,12.19 35.41,12.35 C 35.39,13.64 36.65,14.49 37.83,13.89 C 38.01,13.79 38.6,13.21 38.73,13.56 V 13.63 C 38.58,14.11 38.41,14.46 38.51,14.97 C 38.71,16.07 39.93,16.63 40.95,16.09 C 41.11,16 41.39,15.79 41.51,16.06 A 0.09,0.09 0 0,1 41.51,16.13 C 41.48,16.2 41.45,16.3 41.41,16.36 A 1.69,1.69 0 0,0 41.41,18.55 C 41.91,19.14 42.64,19.19 43.39,18.97 C 43.54,18.93 43.67,18.95 43.71,19.11 A 0.1,0.1 0 0,1 43.7,19.18 C 43.66,19.24 43.63,19.3 43.58,19.35 C 42.3,20.45 42.89,22.38 44.64,22.35 A 23.44,23.44 0 0,1 45.14,22.37 L 45.17,22.4 L 45.23,22.56 A 0.06,0.06 0 0,1 45.21,22.63 C 44.49,23.15 43.87,23.63 44.07,24.63 C 44.25,25.53 44.99,25.87 45.87,25.99 A 0.1,0.1 0 0,1 45.93,26.03 C 45.96,26.06 45.99,26.1 46,26.15 V 26.26 L 45.95,26.31 A 0.15,0.15 0 0,1 45.89,26.35 C 45.39,26.51 44.96,26.74 44.68,27.19 C 44.08,28.15 44.58,29.22 45.58,29.61 C 45.74,29.67 45.85,29.71 45.93,29.76 A 0.1,0.1 0 0,1 45.98,29.82 C 46.03,29.98 45.95,30.06 45.79,30.08 C 45.04,30.2 44.43,30.45 44.13,31.19 C 43.75,32.15 44.28,32.86 45.1,33.36 C 45.25,33.45 45.26,33.56 45.13,33.69 A 0.08,0.08 0 0,1 45.07,33.72 A 8.87,8.87 0 0,0 44.46,33.71 C 43.31,33.77 42.46,34.95 43,36.02 C 43.14,36.3 43.35,36.56 43.63,36.81 A 0.1,0.1 0 0,1 43.66,36.87 C 43.69,37.1 43.52,37.14 43.33,37.09 C 42.53,36.88 41.83,36.92 41.3,37.59 C 40.7,38.34 40.93,39.05 41.4,39.79 C 41.48,39.92 41.46,40.05 41.32,40.12 A 0.14,0.14 0 0,1 41.19,40.12 C 40.4,39.62 39.46,39.58 38.8,40.31 C 38.26,40.91 38.36,41.59 38.63,42.31 C 38.69,42.47 38.63,42.6 38.46,42.61 A 0.1,0.1 0 0,1 38.39,42.59 C 37.77,42.12 37.22,41.75 36.39,42.06 C 35.6,42.36 35.21,43.1 35.37,43.96 C 35.41,44.16 35.46,44.48 35.19,44.46 A 0.09,0.09 0 0,1 35.13,44.43 C 34.57,43.75 33.93,43.27 33.05,43.53 C 32.28,43.76 31.86,44.42 31.88,45.21 C 31.88,45.37 31.83,45.49 31.74,45.58 A 0.15,0.15 0 0,1 31.5,45.53 C 31.13,44.73 30.55,44.13 29.58,44.25 C 28.67,44.37 28.33,45.1 28.16,45.91 A 0.07,0.07 0 0,1 28.12,45.96 L 28.03,46 H 27.88 C 27.85,45.97 27.8,45.92 27.8,45.87 C 27.7,45.26 27.37,44.49 26.71,44.31 C 25.69,44.02 24.99,44.55 24.55,45.44 C 24.47,45.6 24.33,45.67 24.19,45.51 A 0.12,0.12 0 0,1 24.17,45.45 C 24.14,44.95 24.09,44.52 23.79,44.11 C 23.2,43.31 22.09,43.28 21.34,43.91 C 21.28,43.98 21.14,44.12 20.94,44.37 C 20.79,44.54 20.59,44.46 20.61,44.23 C 20.66,43.46 20.73,42.78 20.02,42.27 C 19.17,41.67 18.37,41.97 17.62,42.58 A 0.1,0.1 0 0,1 17.56,42.61 C 17.13,42.61 17.52,41.94 17.56,41.74 C 17.8,40.33 16.5,39.33 15.2,39.93 C 15.03,40.01 14.7,40.23 14.56,40.01 A 0.16,0.16 0 0,1 14.56,39.84 C 15.02,39.2 15.29,38.45 14.8,37.74 C 14.32,37.02 13.61,36.8 12.68,37.08 C 12.5,37.14 12.38,37.14 12.34,36.93 A 0.13,0.13 0 0,1 12.38,36.81 C 13.08,36.15 13.47,35.31 12.86,34.41 C 12.56,33.98 12.11,33.74 11.52,33.71 C 11.32,33.69 10.76,33.83 10.8,33.5 A 0.16,0.16 0 0,1 10.88,33.38 C 11.33,33.11 11.71,32.8 11.89,32.31 C 12.12,31.68 11.91,30.97 11.4,30.54 A 2.3,2.3 0 0,0 10.14,30.08 A 0.13,0.13 0 0,1 10.02,29.93 L 10.03,29.8 L 10.05,29.76 L 10.08,29.74 C 10.8,29.44 11.39,29.17 11.55,28.34 C 11.73,27.39 11.05,26.62 10.15,26.37 C 10.06,26.34 10.02,26.3 10,26.22 V 26.12 C 10.03,26.04 10.07,26 10.13,25.99 C 11.09,25.86 11.93,25.44 11.95,24.36 C 11.97,23.63 11.53,23.07 10.91,22.73 C 10.77,22.64 10.71,22.52 10.84,22.39 A 0.1,0.1 0 0,1 10.91,22.36 C 11.88,22.36 12.59,22.3 12.99,21.3 C 13.31,20.5 12.97,19.83 12.35,19.3 C 12.18,19.14 12.33,18.9 12.58,18.96 C 12.84,19.02 13.12,19.11 13.38,19.1 C 14.93,19 15.43,17.44 14.56,16.3 A 0.76,0.76 0 0,1 14.49,16.13 A 0.1,0.1 0 0,1 14.49,16.06 C 14.56,15.91 14.69,15.9 14.82,15.98 C 15.53,16.38 16.32,16.47 16.97,15.88 C 17.54,15.38 17.66,14.68 17.37,13.94 A 1.71,1.71 0 0,1 17.27,13.54 L 17.29,13.52 C 17.39,13.39 17.51,13.42 17.63,13.52 C 18.3,14.09 19.12,14.34 19.9,13.77 C 20.57,13.29 20.67,12.57 20.5,11.77 A 0.17,0.17 0 0,1 20.58,11.6 C 20.68,11.52 20.78,11.54 20.87,11.66 C 21.39,12.35 22.18,12.82 23.04,12.42 C 23.73,12.1 24.06,11.54 24.06,10.73 C 24.06,10.68 24.07,10.6 24.1,10.51 A 0.1,0.1 0 0,1 24.14,10.45 C 24.31,10.35 24.42,10.45 24.48,10.61 C 24.83,11.38 25.55,11.91 26.44,11.71 C 27.3,11.51 27.6,10.91 27.81,10.13 C 27.83,10.06 27.88,10.03 27.97,10 Z M 44.09,28 A 15.84,15.84 0 0,0 39.38,16.72 A 16.1,16.1 0 0,0 28,12.04 A 16.21,16.21 0 0,0 16.62,16.72 A 15.9,15.9 0 0,0 16.62,39.29 A 16.16,16.16 0 0,0 42.87,34.11 C 43.67,32.17 44.09,30.1 44.09,28.01 Z" fill="rgb(1, 98, 79)"/>
<path d="M 43.53,27.985 C 43.54,32.09 41.9,36 38.99,38.9 A 15.6,15.6 0 0,1 17.01,38.9 A 15.34,15.34 0 0,1 17.01,17.1 A 15.6,15.6 0 0,1 38.99,17.1 S 43.54,20.68 43.54,28 Z M 36.9,28 C 36.9,25.66 35.96,23.42 34.3,21.76 A 8.94,8.94 0 0,0 28,19.18 C 25.64,19.18 21.7,21.76 21.7,21.76 S 19.1,25.66 19.1,28 S 20.04,32.59 21.7,34.24 A 8.94,8.94 0 0,0 34.3,34.24 A 8.79,8.79 0 0,0 36.9,28 Z" fill="rgb(1, 98, 79)"/>
<path d="M 30.49,15.684999999999999 A 4.59,4.59 0 0,0 29.36,15.48 A 0.07,0.07 0 0,0 29.33,15.51 L 29.23,15.71 A 0.12,0.12 0 0,0 29.23,15.82 A 0.12,0.12 0 0,0 29.31,15.88 L 29.7,15.94 A 0.05,0.05 0 0,1 29.74,16 L 29.71,16.14 L 29.69,16.18 A 20.6,20.6 0 0,0 28.14,16.08 C 28.05,16.07 28.04,16.05 28,15.98 A 0.03,0.03 0 0,0 27.96,15.98 H 27.95 C 27.16,16.54 25.37,16.58 24.73,15.71 C 24.23,15.03 24.57,14.11 25.27,13.69 C 25.93,13.29 26.64,13.19 27.38,13.41 C 27.5,13.45 27.58,13.42 27.63,13.31 A 0.09,0.09 0 0,1 27.69,13.27 L 27.97,13.21 A 0.06,0.06 0 0,1 28.03,13.23 L 28.04,13.25 L 28.14,14.13 A 0.06,0.06 0 0,1 28.09,14.19 L 27.83,14.22 A 0.06,0.06 0 0,1 27.77,14.19 C 27.57,13.87 27.33,13.68 27.04,13.59 C 26.64,13.48 26.22,13.71 26.24,14.15 C 26.26,14.58 26.32,15.02 26.42,15.48 C 26.54,16.01 26.99,16.12 27.44,15.95 C 27.8,15.81 27.99,15.52 28,15.08 L 28.01,15.04 L 28.05,15.03 L 28.3,15 H 28.32 A 0.06,0.06 0 0,1 28.35,15.04 V 15.06 A 1.12,1.12 0 0,1 28.15,15.79 A 0.04,0.04 0 0,0 28.15,15.83 H 28.18 C 28.51,15.85 28.69,15.71 28.9,15.43 A 358.95,358.95 0 0,0 30.45,13.43 H 30.48 L 31.52,13.65 A 0.06,0.06 0 0,1 31.56,13.69 A 376.49,376.49 0 0,0 32.34,16.5 C 32.37,16.57 32.4,16.57 32.44,16.5 C 32.76,15.94 33.07,15.38 33.37,14.81 C 33.5,14.57 33.16,14.41 32.97,14.32 A 0.05,0.05 0 0,1 32.95,14.3 V 14.26 L 33.01,14.13 A 0.05,0.05 0 0,1 33.07,14.1 C 34.12,14.5 35.12,15 36.07,15.6 C 36.45,15.84 37,16.31 36.69,16.81 C 36.24,17.55 34.89,16.79 34.37,16.48 H 34.35 A 0.07,0.07 0 0,0 34.27,16.51 L 33.94,17.14 A 0.12,0.12 0 0,0 33.92,17.22 C 33.96,17.42 34.2,17.52 34.36,17.62 L 34.38,17.64 V 17.67 C 34.35,17.83 34.25,17.84 34.12,17.77 A 12.09,12.09 0 0,0 30.1,16.25 L 30.09,16.21 L 30.11,16.06 A 0.04,0.04 0 0,1 30.13,16.03 H 30.16 L 30.48,16.1 H 30.52 C 30.54,16.09 30.55,16.08 30.55,16.06 C 30.61,15.96 30.61,15.86 30.55,15.74 A 0.1,0.1 0 0,0 30.49,15.69 Z M 29.6,15.14 V 15.16 A 0.03,0.03 0 0,0 29.6,15.18 H 29.62 L 30.41,15.34 H 30.42 A 0.03,0.03 0 0,0 30.44,15.32 V 15.31 L 30.2,14.41 A 0.03,0.03 0 0,0 30.18,14.39 A 0.03,0.03 0 0,0 30.16,14.39 L 29.6,15.14 Z M 34.88,15.44 A 29.3,29.3 0 0,0 34.46,16.2 C 34.46,16.21 34.46,16.22 34.48,16.23 C 34.95,16.63 35.5,15.91 35.32,15.54 C 35.25,15.4 35.01,15.21 34.88,15.44 Z M 21.3,15.2 A 1.32,1.32 0 0,1 22.32,17.23 C 22.06,17.68 21.27,18.11 20.78,18.43 A 8.98,8.98 0 0,0 19.35,19.65 A 0.05,0.05 0 0,1 19.32,19.63 L 19.25,19.53 A 0.05,0.05 0 0,1 19.24,19.5 L 19.25,19.47 C 19.42,19.3 19.66,19.2 19.47,18.92 L 18.44,17.42 A 0.12,0.12 0 0,0 18.37,17.37 A 0.42,0.42 0 0,0 17.95,17.5 A 0.05,0.05 0 0,1 17.87,17.5 L 17.77,17.38 A 0.05,0.05 0 0,1 17.75,17.34 A 0.05,0.05 0 0,1 17.77,17.31 C 18.52,16.61 20.16,15.1 21.3,15.21 Z M 20.93,16.95 C 20.74,16.62 20.06,15.43 19.59,16.08 A 0.1,0.1 0 0,0 19.57,16.15 C 19.58,16.22 19.61,16.29 19.67,16.37 L 20.76,17.95 C 20.83,18.05 20.89,18.11 21.02,18.05 C 21.57,17.86 21.11,17.24 20.93,16.95 Z" fill="rgb(239, 242, 248)"/>
<path d="M 37.080000000000005,16.384999999999998 A 0.08,0.08 0 0,1 37.14,16.37 A 0.08,0.08 0 0,1 37.2,16.39 A 16.5,16.5 0 0,1 39.3,18.39 V 18.41 L 39.28,18.42 L 39.16,18.52 A 0.05,0.05 0 0,1 39.13,18.52 L 39.09,18.51 C 38.92,18.34 38.7,18.06 38.46,18.31 L 37.24,19.61 C 36.96,19.9 37.25,20.09 37.44,20.27 A 0.04,0.04 0 0,1 37.44,20.34 L 37.34,20.44 A 0.05,0.05 0 0,1 37.26,20.44 A 12.1,12.1 0 0,0 35.2,18.43 A 0.05,0.05 0 0,1 35.2,18.39 L 35.3,18.28 C 35.3,18.27 35.31,18.26 35.33,18.26 H 35.36 L 35.78,18.56 C 35.8,18.58 35.83,18.59 35.86,18.59 S 35.91,18.58 35.93,18.55 C 36.38,18.11 36.81,17.65 37.25,17.18 C 37.47,16.95 37.23,16.75 37.03,16.56 A 0.06,0.06 0 0,1 37.03,16.49 L 37.09,16.4 Z M 37.95,31.98 C 38.38,31.82 38.8,31.62 38.92,31.18 C 40.05,27.2 39.02,23.01 36.08,20.03 A 11.48,11.48 0 0,0 20.91,19.11 A 11.27,11.27 0 0,0 16.98,31.01 C 17.05,31.29 17.18,31.58 17.4,31.73 C 17.53,31.81 17.94,32 17.99,32.13 C 17.99,32.16 17.99,32.17 17.96,32.16 C 17.49,32.02 17.15,32.16 16.92,32.56 L 16.91,32.57 H 16.86 C 16.82,32.53 16.81,32.47 16.84,32.42 C 17.02,32.02 17.07,31.76 16.94,31.31 A 11.4,11.4 0 0,1 21.2,18.74 C 25.85,15.4 32.2,15.93 36.23,20.01 A 11.41,11.41 0 0,1 39,31.34 C 38.94,31.54 38.92,31.71 38.92,31.87 C 38.92,32.09 39.05,32.53 38.97,32.62 H 38.96 A 0.03,0.03 0 0,1 38.93,32.62 V 32.61 C 38.75,32.17 38.41,32 37.93,32.08 A 0.03,0.03 0 0,1 37.89,32.06 V 32.05 L 37.95,31.98 Z" fill="rgb(239, 242, 248)"/>
<path d="M 29.41,18.015 C 29.77,18.15 30.09,18.25 30.13,18.66 A 0.06,0.06 0 0,0 30.23,18.7 L 31.5,17.71 A 0.08,0.08 0 0,1 31.57,17.71 L 32.24,17.95 L 32.27,17.97 V 18 L 32.57,19.47 C 32.62,19.75 32.88,19.89 33.13,19.95 A 0.07,0.07 0 0,0 33.2,19.93 L 33.81,19.09 V 19.08 A 0.04,0.04 0 0,0 33.81,19.05 L 33.8,19.03 A 0.66,0.66 0 0,0 33.22,19 C 33.11,19.05 32.98,19.06 32.93,18.93 A 0.07,0.07 0 0,1 32.95,18.87 L 33.25,18.51 L 33.29,18.5 H 33.33 A 10.8,10.8 0 0,1 35.49,20.1 V 20.13 L 35.22,20.56 L 35.2,20.57 A 0.05,0.05 0 0,1 35.16,20.57 H 35.15 C 34.91,20.35 35.13,20.04 34.8,19.78 H 34.77 L 34.75,19.79 L 34.15,20.62 A 0.09,0.09 0 0,0 34.15,20.74 L 34.41,20.98 V 20.99 A 0.05,0.05 0 0,1 34.41,21.03 V 21.05 L 34.39,21.07 A 0.04,0.04 0 0,1 34.33,21.07 A 9.72,9.72 0 0,0 31.16,19.15 A 0.06,0.06 0 0,1 31.16,19.09 C 31.19,19.02 31.41,19.11 31.48,19.11 A 0.05,0.05 0 0,0 31.53,19.08 A 0.26,0.26 0 0,0 31.53,18.86 A 0.09,0.09 0 0,0 31.48,18.81 L 30.81,18.56 A 0.12,0.12 0 0,0 30.65,18.64 C 30.58,18.83 30.8,18.9 30.93,18.97 A 0.03,0.03 0 0,1 30.95,19.02 L 30.93,19.03 C 30.86,19.07 29.7,18.8 29.43,18.76 A 0.44,0.44 0 0,1 29.13,18.56 A 0.17,0.17 0 0,1 29.1,18.49 L 29.04,18.13 A 0.08,0.08 0 0,0 28.98,18.06 L 28.82,18.01 H 28.8 A 0.04,0.04 0 0,0 28.77,18.04 L 28.73,18.44 V 18.48 L 28.76,18.5 L 28.98,18.58 C 28.99,18.58 29,18.58 29.01,18.6 L 29.02,18.63 C 29.02,18.68 29.01,18.71 28.96,18.7 A 11.01,11.01 0 0,0 27.19,18.67 A 0.09,0.09 0 0,1 27.14,18.62 V 18.59 C 27.13,18.55 27.44,18.55 27.5,18.49 C 27.65,18.35 27.67,17.65 27.68,17.43 A 0.12,0.12 0 0,0 27.66,17.35 A 0.12,0.12 0 0,0 27.58,17.31 C 27.53,17.31 27.28,17.31 27.26,17.22 L 27.27,17.19 L 27.3,17.18 A 8.55,8.55 0 0,1 29.95,17.35 C 30.25,17.42 30.57,17.83 30.07,17.95 A 2.7,2.7 0 0,1 29.42,18.03 Z M 29.06,17.35 C 28.99,17.29 28.93,17.28 28.88,17.33 C 28.8,17.4 28.8,17.71 28.79,17.82 A 0.05,0.05 0 0,0 28.83,17.87 C 29.17,17.97 29.31,17.55 29.06,17.35 Z M 30.95,18.38 L 30.94,18.39 V 18.42 H 30.95 L 31.46,18.62 H 31.48 A 0.02,0.02 0 0,0 31.49,18.59 L 31.41,18.07 A 0.02,0.02 0 0,0 31.39,18.05 H 31.37 L 30.95,18.38 Z" fill="rgb(239, 242, 248)"/>
<path d="M 27.229999999999997,17.745 C 27.29,17.99 27.18,18.24 26.94,18.46 C 26.68,18.69 26.32,18.86 25.91,18.96 C 25.51,19.04 25.11,19.04 24.78,18.94 C 24.46,18.84 24.25,18.65 24.2,18.43 C 24.15,18.2 24.26,17.94 24.51,17.72 C 24.76,17.5 25.13,17.32 25.53,17.23 C 25.93,17.15 26.34,17.15 26.66,17.25 C 26.98,17.35 27.19,17.53 27.24,17.76 Z M 25.9,17.59 A 0.27,0.27 0 0,0 25.68,17.39 H 25.55 A 0.28,0.28 0 0,0 25.38,17.51 A 0.27,0.27 0 0,0 25.34,17.71 L 25.54,18.59 A 0.27,0.27 0 0,0 25.76,18.8 H 25.9 A 0.28,0.28 0 0,0 26.1,18.57 V 18.47 L 25.9,17.59 Z M 20.85,20.74 V 20.78 H 20.89 C 21.15,20.53 21.46,20.48 21.8,20.63 A 0.1,0.1 0 0,0 21.88,20.63 A 0.64,0.64 0 0,0 22.18,20.38 A 0.05,0.05 0 0,0 22.18,20.32 C 22.02,20.05 21.84,19.79 21.66,19.53 C 21.5,19.31 21.34,19.6 21.18,19.59 A 0.06,0.06 0 0,1 21.13,19.55 A 0.06,0.06 0 0,1 21.15,19.49 C 21.45,19.25 23.8,17.53 24.03,18.22 C 24.17,18.64 23.33,19.17 23.01,19.35 A 0.1,0.1 0 0,0 22.97,19.45 L 22.98,19.49 L 23.1,19.65 A 0.15,0.15 0 0,0 23.28,19.7 L 23.57,19.57 A 0.06,0.06 0 0,1 23.64,19.6 V 19.64 C 23.64,19.65 23.64,19.66 23.62,19.67 C 22.82,20.09 22.1,20.59 21.47,21.19 C 21.33,21.32 21.17,21.38 21.01,21.35 A 0.09,0.09 0 0,1 20.95,21.32 C 20.82,21.17 20.67,21.14 20.5,21.24 A 0.09,0.09 0 0,0 20.45,21.3 A 0.09,0.09 0 0,0 20.48,21.38 L 20.73,21.58 A 0.1,0.1 0 0,0 20.81,21.61 C 20.87,21.61 20.91,21.57 20.95,21.52 A 0.07,0.07 0 0,1 21.01,21.49 L 21.08,21.5 L 21.1,21.51 A 0.04,0.04 0 0,1 21.11,21.55 V 21.57 C 20.69,22.01 20.32,22.48 19.99,22.98 C 19.96,23.02 19.94,23.02 19.92,22.98 L 19.9,22.94 V 22.9 C 19.9,22.88 19.9,22.87 19.92,22.86 C 20.01,22.77 20.05,22.66 20.04,22.54 A 0.1,0.1 0 0,0 20.01,22.47 L 19.28,21.81 A 0.06,0.06 0 0,0 19.2,21.81 C 19.14,21.84 18.95,22.05 18.9,22.01 H 18.88 V 21.99 A 0.04,0.04 0 0,1 18.88,21.96 A 8.42,8.42 0 0,1 20.65,19.96 C 20.79,19.84 20.95,19.81 21.12,19.9 A 0.09,0.09 0 0,1 21.17,19.95 C 21.25,20.21 21,20.58 20.85,20.75 Z M 22.89,19.26 C 23.31,19 23,18.51 22.63,18.68 A 0.13,0.13 0 0,0 22.56,18.76 A 0.13,0.13 0 0,0 22.58,18.86 L 22.83,19.25 A 0.04,0.04 0 0,0 22.89,19.26 Z M 20.27,21.18 L 20.3,21.19 H 20.34 C 20.72,20.96 20.18,20.39 19.94,20.81 V 20.84 L 19.95,20.88 L 20.27,21.18 Z M 40.96,21.23 L 39.06,22.4 A 0.16,0.16 0 0,0 38.99,22.6 C 39.11,22.9 39.22,23.24 39.59,23.33 A 249.39,249.39 0 0,0 42.33,23.99 L 42.6,25 V 25.04 L 42.59,25.07 A 144.72,144.72 0 0,0 40.57,26.83 C 40.37,27.02 40.22,27.19 40.26,27.45 A 0.15,0.15 0 0,0 40.4,27.58 L 42.28,27.73 C 42.61,27.76 42.62,27.44 42.64,27.22 L 42.66,27.19 L 42.7,27.17 L 42.84,27.18 S 42.86,27.18 42.87,27.2 L 42.88,27.23 A 22.66,22.66 0 0,1 42.76,30.02 H 42.72 L 42.6,30 L 42.57,29.99 L 42.56,29.96 C 42.54,29.74 42.58,29.42 42.28,29.39 C 41.68,29.34 41.07,29.29 40.46,29.26 C 40.31,29.26 40.26,29.3 40.22,29.44 C 40.08,30.01 40.28,30.41 40.82,30.64 L 40.84,30.66 L 40.85,30.69 L 40.82,30.93 L 40.81,30.95 L 40.78,30.96 L 39.72,30.8 H 39.7 A 0.04,0.04 0 0,1 39.68,30.77 V 30.76 A 11.18,11.18 0 0,0 39.56,24.85 A 0.04,0.04 0 0,1 39.59,24.83 L 39.76,24.81 A 0.05,0.05 0 0,1 39.81,24.85 C 39.82,25 39.89,25.12 40,25.22 A 0.07,0.07 0 0,0 40.09,25.22 L 40.37,25.04 A 0.07,0.07 0 0,0 40.39,24.97 L 40.09,23.92 A 0.1,0.1 0 0,0 40.04,23.86 C 39.94,23.8 39.84,23.8 39.74,23.85 C 39.61,23.93 39.66,24.23 39.67,24.37 V 24.41 L 39.63,24.43 L 39.48,24.46 H 39.45 A 11,11 0 0,0 37.49,20.67 A 0.05,0.05 0 0,1 37.51,20.63 L 37.63,20.56 A 0.05,0.05 0 0,1 37.67,20.56 A 0.04,0.04 0 0,1 37.7,20.58 C 37.81,20.78 38,21.09 38.27,20.93 A 1081.77,1081.77 0 0,0 40.11,19.78 A 0.05,0.05 0 0,0 40.08,19.74 A 1.29,1.29 0 0,0 38.93,19.53 A 0.06,0.06 0 0,1 38.87,19.5 L 38.74,19.3 L 38.73,19.28 V 19.27 A 0.04,0.04 0 0,1 38.75,19.24 L 39.59,18.79 A 0.06,0.06 0 0,1 39.66,18.81 A 13.72,13.72 0 0,1 41.66,22.14 L 41.63,22.17 L 40.85,22.71 A 0.04,0.04 0 0,1 40.8,22.71 V 22.7 L 40.67,22.5 A 0.07,0.07 0 0,1 40.67,22.43 C 40.93,22.07 41.14,21.7 41.02,21.25 V 21.24 L 41,21.23 A 0.03,0.03 0 0,0 40.97,21.23 Z M 40.44,23.92 H 40.42 V 23.94 L 40.64,24.74 V 24.76 H 40.67 L 41.42,24.12 A 0.02,0.02 0 0,0 41.42,24.09 H 41.41 L 40.44,23.92 Z M 36.9,28 C 36.9,30.34 35.96,32.59 34.3,34.24 A 8.94,8.94 0 0,1 21.7,34.24 A 8.79,8.79 0 0,1 21.7,21.76 A 8.94,8.94 0 0,1 34.3,21.76 A 8.79,8.79 0 0,1 36.9,28 Z M 36.53,28 C 36.53,25.76 35.63,23.6 34.03,22.02 A 8.57,8.57 0 0,0 21.97,22.02 A 8.42,8.42 0 0,0 21.97,33.98 A 8.57,8.57 0 0,0 34.03,33.98 A 8.42,8.42 0 0,0 36.53,28 Z" fill="rgb(239, 242, 248)"/>
<path d="M 36.52,27.985 C 36.53,30.24 35.63,32.4 34.03,33.98 A 8.57,8.57 0 0,1 21.97,33.98 A 8.42,8.42 0 0,1 21.97,22.02 A 8.57,8.57 0 0,1 34.03,22.02 A 8.42,8.42 0 0,1 36.53,28 Z M 36.31,28 A 8.18,8.18 0 0,0 31.18,20.39 A 8.37,8.37 0 0,0 22.12,22.17 A 8.2,8.2 0 0,0 22.12,33.83 A 8.35,8.35 0 0,0 35.68,31.15 C 36.1,30.15 36.31,29.08 36.31,28 Z" fill="rgb(1, 98, 79)"/>
<path d="M 35.77,20.595 C 35.75,20.59 35.53,20.32 35.65,20.28 H 35.68 L 35.71,20.29 C 35.88,20.46 37.07,21.72 36.97,21.89 H 36.96 A 0.04,0.04 0 0,1 36.91,21.89 L 36.64,21.65 A 0.07,0.07 0 0,0 36.54,21.65 L 35.81,22.28 A 0.16,0.16 0 0,0 35.78,22.49 L 35.95,22.72 A 0.05,0.05 0 0,1 35.95,22.76 A 0.05,0.05 0 0,1 35.93,22.79 L 35.88,22.82 A 0.05,0.05 0 0,1 35.82,22.81 A 10.5,10.5 0 0,0 34.52,21.23 L 34.54,21.21 H 34.56 L 34.61,21.19 A 0.08,0.08 0 0,1 34.68,21.22 L 34.86,21.4 A 0.13,0.13 0 0,0 35.04,21.4 L 35.77,20.78 A 0.12,0.12 0 0,0 35.77,20.61 Z" fill="rgb(239, 242, 248)"/>
<path d="M 37.88,25.035 C 37.68,25.15 37.4,25.1 37.12,24.91 C 36.84,24.73 36.59,24.41 36.4,24.05 A 2.58,2.58 0 0,1 36.2,23.49 A 1.88,1.88 0 0,1 36.15,22.95 C 36.16,22.79 36.2,22.65 36.26,22.53 C 36.33,22.41 36.41,22.33 36.52,22.27 C 36.72,22.17 37,22.22 37.28,22.41 C 37.56,22.59 37.82,22.91 38,23.27 C 38.09,23.45 38.16,23.65 38.2,23.83 C 38.24,24.03 38.26,24.2 38.25,24.37 C 38.24,24.53 38.2,24.67 38.14,24.79 A 0.57,0.57 0 0,1 37.89,25.05 Z M 37.85,23.33 A 0.28,0.28 0 0,0 37.48,23.2 L 36.67,23.6 A 0.28,0.28 0 0,0 36.54,23.97 L 36.55,23.99 A 0.28,0.28 0 0,0 36.93,24.12 L 37.73,23.72 A 0.28,0.28 0 0,0 37.86,23.35 L 37.85,23.33 Z M 18.04,25.13 C 17.84,25.03 17.7,24.79 17.68,24.45 C 17.65,24.12 17.74,23.73 17.92,23.35 C 18,23.17 18.12,23 18.24,22.85 C 18.36,22.7 18.49,22.58 18.63,22.48 C 18.76,22.39 18.9,22.33 19.03,22.3 A 0.58,0.58 0 0,1 19.39,22.34 C 19.6,22.44 19.74,22.69 19.76,23.02 C 19.78,23.35 19.7,23.75 19.52,24.12 C 19.43,24.3 19.32,24.47 19.2,24.62 A 1.9,1.9 0 0,1 18.8,24.99 C 18.67,25.09 18.53,25.15 18.4,25.17 A 0.58,0.58 0 0,1 18.04,25.13 Z M 19.38,24.04 A 0.27,0.27 0 0,0 19.25,23.67 L 18.44,23.28 A 0.28,0.28 0 0,0 18.06,23.41 V 23.43 A 0.28,0.28 0 0,0 18.18,23.8 L 18.99,24.19 A 0.28,0.28 0 0,0 19.36,24.06 L 19.38,24.04 Z" fill="rgb(239, 242, 248)"/>
<path d="M 23.16,23.585 C 22.76,23.62 22.32,23.31 22.24,22.9 C 22.16,22.42 22.53,22.32 22.94,22.32 H 29.17 C 30.31,22.32 31.54,22.45 32.44,23.22 C 34.01,24.54 33.99,26.87 31.88,27.65 L 31.86,27.67 A 0.04,0.04 0 0,0 31.86,27.71 L 31.87,27.72 C 32.68,28.31 33.17,29.07 33.35,30.02 C 33.45,30.62 33.4,31.42 33.55,32.12 A 0.08,0.08 0 0,0 33.59,32.17 C 33.93,32.34 34.13,32.62 34.19,32.99 C 34.24,33.37 32.98,33.56 32.69,33.6 C 32.11,33.68 31.55,33.68 31.01,33.6 C 29.55,33.39 28.58,31.95 28.51,30.56 C 28.48,29.78 28.49,29.04 28.38,28.24 A 0.13,0.13 0 0,0 28.25,28.14 H 28.05 A 0.1,0.1 0 0,0 27.98,28.17 A 0.1,0.1 0 0,0 27.95,28.25 C 27.99,28.65 27.97,29.06 27.96,29.39 A 319.43,319.43 0 0,0 27.97,32.13 A 0.1,0.1 0 0,0 28.03,32.18 A 0.1,0.1 0 0,0 28.07,32.18 C 28.53,32.11 28.84,32.26 29,32.64 C 29.2,33.1 29.03,33.44 28.5,33.44 H 23.08 C 22.51,33.44 22,32.93 22.28,32.35 C 22.38,32.14 22.85,32.19 23.05,32.16 A 0.2,0.2 0 0,0 23.22,31.98 V 23.65 A 0.04,0.04 0 0,0 23.19,23.61 H 23.17 Z M 27.47,27.57 C 27.97,27.57 28.51,27.47 28.64,28.1 C 28.74,28.6 28.79,29.13 28.78,29.65 C 28.76,30.89 28.92,32.23 30.15,32.82 C 30.73,33.1 31.33,33.1 31.99,33.06 C 32.21,33.06 33.9,32.92 33.59,32.53 A 0.1,0.1 0 0,0 33.51,32.5 H 33.28 C 33.26,32.5 33.23,32.5 33.21,32.48 C 32.76,32.1 32.93,30.53 32.84,29.92 C 32.64,28.62 31.84,27.69 30.48,27.52 A 0.16,0.16 0 0,1 30.35,27.42 A 0.06,0.06 0 0,1 30.35,27.38 A 0.05,0.05 0 0,1 30.39,27.35 A 3.73,3.73 0 0,0 31.97,26.9 C 33.33,26.17 33.32,24.3 32.2,23.4 A 4.3,4.3 0 0,0 29.68,22.63 C 28.05,22.61 25.75,22.61 22.78,22.63 C 22.57,22.63 22.53,22.68 22.54,22.88 A 0.14,0.14 0 0,0 22.69,23.01 C 23.18,22.99 23.51,23.06 23.52,23.63 L 23.51,30.63 C 23.51,30.96 23.54,31.59 23.5,32.07 C 23.45,32.55 23.01,32.43 22.7,32.48 C 22.53,32.51 22.55,32.9 22.63,33 H 28.21 C 28.78,33 28.73,32.51 28.46,32.48 C 27.96,32.42 27.44,32.58 27.43,31.87 A 710.83,710.83 0 0,1 27.45,27.58 H 27.48 Z" fill="rgb(1, 98, 79)"/>
<path d="M 28.389999999999997,23.165 C 28.7,23.42 28.86,23.74 28.87,24.13 C 28.89,24.73 28.87,25.33 28.84,25.93 C 28.77,26.96 28.51,27.15 27.47,27.12 A 0.04,0.04 0 0,1 27.43,27.08 V 23.1 A 0.04,0.04 0 0,1 27.47,23.06 C 27.85,23.06 28.17,23.01 28.4,23.19 Z M 28.3,23.59 H 28.03 L 28,23.61 L 27.98,23.64 V 26.77 A 0.04,0.04 0 0,0 27.98,26.8 A 0.04,0.04 0 0,0 28.02,26.81 C 28.28,26.81 28.43,26.67 28.47,26.39 C 28.55,25.84 28.74,24.02 28.38,23.63 A 0.1,0.1 0 0,0 28.31,23.59 Z" fill="rgb(1, 98, 79)"/>
<path d="M 15.05,26.735 C 14.56,26.95 14.36,27.56 14.4,28.07 C 14.4,28.09 14.4,28.09 14.4,28.07 A 7.07,7.07 0 0,0 14.18,27.25 C 14.1,27.03 13.92,26.79 13.68,26.76 C 12.58,26.64 13.33,30.48 13.45,31.14 L 13.46,31.16 A 0.05,0.05 0 0,0 13.5,31.18 H 13.52 L 13.65,31.14 A 0.06,0.06 0 0,0 13.69,31.07 C 13.63,30.84 13.65,30.57 13.89,30.53 L 15.71,30.3 C 16.01,30.27 16.05,30.58 16.08,30.8 A 7.04,7.04 0 0,0 16.1,30.85 A 0.05,0.05 0 0,0 16.13,30.85 L 16.28,30.82 A 0.05,0.05 0 0,0 16.32,30.76 A 14.82,14.82 0 0,1 15.96,28.23 A 0.05,0.05 0 0,0 15.92,28.22 H 15.83 A 0.06,0.06 0 0,0 15.77,28.28 V 28.41 C 15.76,28.57 15.76,28.67 15.51,28.71 A 21.37,21.37 0 0,1 14.62,28.79 L 14.61,28.77 C 14.51,28.39 14.82,28.33 15.17,28.27 C 15.49,28.21 15.84,28.15 15.92,27.83 L 16,27.42 A 8.8,8.8 0 0,1 16.34,25.12 A 0.05,0.05 0 0,0 16.31,25.1 L 16.21,25.06 A 0.06,0.06 0 0,0 16.13,25.09 L 15.91,25.45 A 0.1,0.1 0 0,1 15.83,25.49 A 0.34,0.34 0 0,1 15.55,25.35 A 0.1,0.1 0 0,1 15.54,25.28 A 6,6 0 0,1 15.86,24.17 L 15.9,24.16 L 16.25,24.14 A 0.06,0.06 0 0,1 16.31,24.19 V 24.21 L 16.21,24.61 V 24.65 L 16.23,24.68 L 16.37,24.72 A 0.05,0.05 0 0,0 16.43,24.69 A 11.73,11.73 0 0,1 17.82,21.65 L 17.8,21.62 L 17.66,21.52 H 17.65 A 0.04,0.04 0 0,0 17.61,21.53 C 17.39,21.86 17.12,21.91 16.81,21.68 A 26.64,26.64 0 0,0 15.79,20.93 L 15.81,20.92 L 18.51,20.6 L 18.58,20.56 L 19.28,19.79 A 0.05,0.05 0 0,0 19.3,19.75 A 0.05,0.05 0 0,0 19.28,19.72 L 17.68,18.55 C 17.37,18.32 17.34,18.07 17.58,17.8 A 0.05,0.05 0 0,0 17.58,17.73 L 17.45,17.63 L 17.42,17.62 L 17.39,17.63 L 16.36,18.79 A 0.05,0.05 0 0,0 16.36,18.85 L 16.48,18.95 A 0.04,0.04 0 0,0 16.51,18.96 H 16.53 L 16.54,18.94 C 16.83,18.34 17.42,18.84 17.76,19.11 A 7.87,7.87 0 0,0 17.83,19.2 L 15.9,19.43 A 0.09,0.09 0 0,0 15.83,19.47 L 14.7,21.33 A 0.06,0.06 0 0,0 14.72,21.4 L 14.84,21.5 A 0.05,0.05 0 0,0 14.88,21.5 A 0.05,0.05 0 0,0 14.91,21.48 C 15.01,21.33 15.14,21.21 15.31,21.14 A 0.1,0.1 0 0,1 15.41,21.15 L 15.61,21.3 C 16.08,21.62 16.95,22.22 16.98,22.47 L 16.97,22.5 L 16.95,22.53 C 16.85,22.59 16.74,22.63 16.64,22.63 A 553.64,553.64 0 0,0 14.01,22.95 L 13.99,22.98 L 13.67,23.98 A 0.13,0.13 0 0,0 13.7,24.12 C 14.34,24.71 14.97,25.29 15.58,25.88 C 15.83,26.12 15.88,26.36 15.79,26.68 C 15.79,26.7 15.79,26.71 15.77,26.71 L 15.74,26.72 H 15.61 C 15.42,26.7 15.23,26.69 15.06,26.75 Z M 15.22,25.05 L 14.5,24.41 A 0.02,0.02 0 0,1 14.5,24.37 H 14.51 L 15.47,24.23 M 15.22,25.05 Z M 15.22,25.05 H 15.24 H 15.23 Z M 15.24,25.05 Z M 15.24,25.05 Z M 15.49,24.24 V 24.26 L 15.26,25.04 H 15.25 M 13.38,28.88 C 13.11,28.24 14.45,28.09 14.33,28.78 C 14.33,28.8 14.32,28.81 14.31,28.81 L 14.29,28.83 L 13.43,28.91 H 13.4 A 0.05,0.05 0 0,1 13.38,28.88 Z M 38.26,25.8 C 37.89,25.8 37.66,25.83 37.55,25.88 C 37.27,26.01 37.47,26.28 37.3,26.35 H 37.27 A 0.03,0.03 0 0,1 37.25,26.33 L 37,25.28 A 0.04,0.04 0 0,1 37,25.25 A 0.04,0.04 0 0,1 37.03,25.24 C 37.08,25.23 37.12,25.25 37.13,25.31 C 37.21,25.7 37.45,25.61 37.79,25.56 A 11.11,11.11 0 0,0 38.37,25.46 L 38.38,25.43 L 38.41,25.07 A 0.05,0.05 0 0,1 38.46,25.03 H 38.48 C 38.65,25.18 38.81,26.3 38.83,26.52 C 38.86,26.73 38.31,27.45 38.17,27.65 A 0.02,0.02 0 0,0 38.17,27.68 H 38.19 L 38.66,27.56 A 0.1,0.1 0 0,0 38.72,27.52 C 38.79,27.4 38.74,27.12 38.85,27.11 A 0.04,0.04 0 0,1 38.88,27.11 L 38.89,27.13 V 27.15 L 38.92,28.24 V 28.26 L 38.9,28.28 A 0.04,0.04 0 0,1 38.86,28.28 L 38.82,28.27 A 0.05,0.05 0 0,1 38.78,28.22 C 38.78,27.96 38.63,27.86 38.38,27.9 A 17.57,17.57 0 0,1 37.41,28 V 27.99 L 37.37,27.23 C 37.37,27.21 37.37,27.18 37.39,27.16 L 38.28,25.82 C 38.28,25.8 38.28,25.79 38.26,25.79 Z" fill="rgb(239, 242, 248)"/>
<path d="M 18.31,25.325 C 18.64,25.34 18.82,25.81 18.82,26.05 C 18.82,26.6 18.62,27.55 18.11,27.83 C 17.72,28.03 17.28,27.83 17.13,27.43 A 2,2 0 0,1 17.23,25.71 A 0.13,0.13 0 0,0 17.25,25.64 L 17.23,25.28 A 0.04,0.04 0 0,1 17.26,25.23 H 17.28 L 17.74,25.3 S 17.76,25.3 17.77,25.32 L 17.78,25.35 C 17.83,25.72 17.11,25.68 17.25,26.42 C 17.25,26.45 17.27,26.47 17.28,26.48 C 17.54,26.69 18.41,26.82 18.58,26.48 C 18.74,26.15 18.68,25.72 18.3,25.58 A 0.06,0.06 0 0,1 18.27,25.55 A 0.06,0.06 0 0,1 18.27,25.51 V 25.39 C 18.27,25.37 18.27,25.36 18.29,25.35 L 18.32,25.34 Z M 16.31,34.88 C 15.81,34.94 15.6,34.47 15.88,34.08 A 0.07,0.07 0 0,0 15.89,34.02 C 15.73,33.54 15.55,33.42 15.31,33.09 A 0.1,0.1 0 0,1 15.29,33.02 C 15.34,32.72 15.29,32.42 15.11,32.16 A 0.05,0.05 0 0,1 15.16,32.09 C 15.21,32.09 15.25,32.11 15.26,32.16 C 15.36,32.44 15.54,32.66 15.78,32.83 A 0.08,0.08 0 0,1 15.82,32.9 C 15.82,33.26 15.9,33.6 16.09,33.92 A 0.1,0.1 0 0,0 16.15,33.96 C 16.27,33.99 16.35,33.98 16.45,34.05 C 16.69,34.22 16.73,34.44 16.57,34.7 A 0.07,0.07 0 0,0 16.57,34.77 C 16.77,35.21 17.02,35.33 17.32,35.63 A 0.09,0.09 0 0,1 17.35,35.69 C 17.35,35.99 17.45,36.25 17.65,36.47 A 0.05,0.05 0 0,1 17.65,36.53 A 0.05,0.05 0 0,1 17.61,36.56 C 17.57,36.56 17.53,36.55 17.51,36.5 A 1.33,1.33 0 0,0 16.89,35.94 A 0.14,0.14 0 0,1 16.81,35.84 A 1.7,1.7 0 0,0 16.35,34.89 H 16.31 Z M 39.57,35.1 A 1.94,1.94 0 0,0 39.14,36.07 L 39.11,36.09 C 38.83,36.22 38.61,36.42 38.46,36.69 C 38.43,36.73 38.39,36.75 38.34,36.73 A 0.04,0.04 0 0,1 38.33,36.67 L 38.58,36.24 A 0.11,0.11 0 0,0 38.6,36.17 C 38.57,35.93 38.65,35.75 38.82,35.63 A 1.55,1.55 0 0,0 39.4,34.91 V 34.87 C 39.18,34.5 39.4,34.17 39.82,34.13 A 0.08,0.08 0 0,0 39.88,34.1 A 1.87,1.87 0 0,0 40.16,33.02 L 40.18,32.99 C 40.45,32.81 40.63,32.57 40.74,32.27 L 40.75,32.25 A 0.04,0.04 0 0,1 40.8,32.25 C 40.81,32.25 40.82,32.25 40.82,32.27 C 40.85,32.31 40.85,32.37 40.82,32.42 C 40.68,32.66 40.63,32.92 40.69,33.2 A 0.13,0.13 0 0,1 40.64,33.33 A 1.76,1.76 0 0,0 40.08,34.23 L 40.09,34.26 C 40.34,34.59 40.23,35.03 39.77,35.06 H 39.63 A 0.1,0.1 0 0,0 39.57,35.1 Z M 17.73,33.58 A 0.5,0.5 0 0,0 18.22,33.08 A 0.5,0.5 0 0,0 17.72,32.6 A 0.5,0.5 0 0,0 17.23,33.09 C 17.23,33.36 17.45,33.58 17.73,33.58 Z M 38.07,33.57 A 0.5,0.5 0 0,0 38.57,33.07 A 0.5,0.5 0 0,0 38.07,32.59 A 0.5,0.5 0 0,0 37.57,33.08 C 37.57,33.35 37.8,33.57 38.07,33.57 Z M 18.24,34.27 C 18.44,34.27 18.59,34.11 18.59,33.93 A 0.34,0.34 0 0,0 18.24,33.59 A 0.34,0.34 0 0,0 17.9,33.93 C 17.9,34.11 18.05,34.27 18.24,34.27 Z M 37.55,34.26 C 37.75,34.26 37.9,34.11 37.9,33.92 A 0.34,0.34 0 0,0 37.55,33.58 A 0.34,0.34 0 0,0 37.21,33.92 C 37.21,34.11 37.36,34.26 37.55,34.26 Z M 21.32,36.83 C 21.48,37.01 21.69,37.31 21.56,37.55 C 21.2,38.22 19.46,36.37 19.21,36.11 A 0.08,0.08 0 0,1 19.19,36.05 A 0.08,0.08 0 0,1 19.21,35.99 C 19.26,35.95 19.45,36.09 19.51,36.13 A 0.06,0.06 0 0,0 19.57,36.11 L 20.39,35.24 A 0.08,0.08 0 0,0 20.39,35.14 L 20.24,34.89 A 0.04,0.04 0 0,1 20.27,34.83 L 20.3,34.84 C 20.8,35.33 21.31,35.79 21.84,36.24 C 22.02,36.4 22.22,36.69 22.04,36.92 C 21.84,37.18 21.54,36.92 21.33,36.82 C 21.3,36.8 21.3,36.81 21.32,36.82 Z M 21.4,36.2 A 0.13,0.13 0 0,0 21.4,36.01 L 21.31,35.93 A 0.14,0.14 0 0,0 21.11,35.94 L 20.91,36.15 A 0.13,0.13 0 0,0 20.92,36.35 L 21.01,36.42 A 0.14,0.14 0 0,0 21.2,36.42 L 21.4,36.2 Z M 20.37,36.95 C 20.74,37.21 21.11,36.65 20.77,36.41 A 0.06,0.06 0 0,0 20.69,36.41 L 20.35,36.78 A 0.11,0.11 0 0,0 20.34,36.91 C 20.34,36.93 20.36,36.94 20.37,36.95 Z M 36.18,35.6 C 36.33,35.77 36.36,36.04 36.27,36.34 C 36.17,36.63 35.95,36.93 35.67,37.17 C 35.52,37.29 35.37,37.39 35.21,37.47 C 35.05,37.54 34.88,37.59 34.73,37.61 A 1,1 0 0,1 34.31,37.58 A 0.61,0.61 0 0,1 34.01,37.39 C 33.86,37.22 33.83,36.95 33.93,36.65 C 34.03,36.35 34.23,36.05 34.53,35.82 C 34.67,35.7 34.83,35.6 34.99,35.52 C 35.15,35.45 35.31,35.4 35.46,35.38 A 1,1 0 0,1 35.88,35.41 C 36,35.44 36.11,35.51 36.18,35.59 Z M 35,35.97 A 0.25,0.25 0 0,0 34.83,35.88 A 0.25,0.25 0 0,0 34.64,35.94 L 34.63,35.96 A 0.25,0.25 0 0,0 34.59,36.31 L 35.19,37.02 A 0.25,0.25 0 0,0 35.55,37.05 L 35.56,37.04 A 0.25,0.25 0 0,0 35.6,36.69 L 35,35.97 Z" fill="rgb(239, 242, 248)"/>
<path d="M 27.009999999999998,38.325 L 26.92,38.69 A 0.08,0.08 0 0,1 26.84,38.75 A 0.08,0.08 0 0,1 26.76,38.7 C 26.65,38.35 26.4,38.17 26.01,38.18 A 0.05,0.05 0 0,0 25.97,38.22 L 25.84,38.66 V 38.69 L 25.87,38.71 C 26.03,38.75 26.15,38.71 26.24,38.57 A 0.07,0.07 0 0,1 26.31,38.54 L 26.41,38.56 H 26.43 A 0.05,0.05 0 0,1 26.45,38.6 V 38.62 L 26.29,39.22 A 0.05,0.05 0 0,1 26.25,39.25 H 26.23 L 26.13,39.23 A 0.06,0.06 0 0,1 26.09,39.17 C 26.09,39.01 26,38.91 25.85,38.87 H 25.83 A 0.05,0.05 0 0,0 25.79,38.89 V 38.91 L 25.67,39.43 A 0.06,0.06 0 0,0 25.7,39.49 L 25.96,39.59 A 0.06,0.06 0 0,1 26,39.65 C 26,39.85 24.44,39.37 24.25,39.31 A 0.07,0.07 0 0,1 24.2,39.24 C 24.21,39.16 24.47,39.2 24.5,39.21 A 0.12,0.12 0 0,0 24.64,39.11 L 24.93,37.98 A 0.08,0.08 0 0,0 24.87,37.88 L 24.62,37.8 A 0.1,0.1 0 0,0 24.54,37.8 C 24.21,37.98 24.18,38.7 23.81,38.9 C 23.38,39.14 22.32,38.6 22.05,38.26 C 21.73,37.86 22.15,37.32 22.35,36.94 C 22.5,36.63 22.11,36.7 22.17,36.5 A 0.04,0.04 0 0,1 22.21,36.47 H 22.23 C 22.67,36.77 23.13,37.03 23.61,37.25 C 23.66,37.27 23.69,37.3 23.66,37.36 L 23.64,37.38 H 23.61 L 23.35,37.32 A 0.06,0.06 0 0,0 23.28,37.35 C 23.06,37.76 22.92,38.05 22.85,38.21 C 22.69,38.61 23.25,38.82 23.55,38.78 C 23.76,38.75 23.95,38.27 24.08,37.98 C 24.18,37.78 24.13,37.62 23.93,37.53 A 0.06,0.06 0 0,1 23.9,37.48 V 37.45 A 0.04,0.04 0 0,1 23.94,37.41 H 23.95 C 25.18,37.92 26.46,38.19 27.79,38.21 C 28.32,38.23 28.91,38.17 29.47,38.11 L 29.49,38.12 A 0.05,0.05 0 0,1 29.52,38.15 V 38.17 L 29.49,38.66 A 0.05,0.05 0 0,1 29.42,38.71 C 29.32,38.68 29.32,38.6 29.27,38.55 C 29.07,38.35 28.82,38.27 28.51,38.35 A 0.06,0.06 0 0,0 28.47,38.4 L 28.43,38.86 V 38.88 A 0.05,0.05 0 0,0 28.46,38.91 H 28.48 C 28.65,38.91 28.76,38.84 28.81,38.69 A 0.08,0.08 0 0,1 28.86,38.64 C 29.12,38.55 29,39.18 29,39.3 A 0.05,0.05 0 0,1 28.95,39.35 H 28.87 L 28.82,39.34 A 0.07,0.07 0 0,1 28.8,39.3 A 0.32,0.32 0 0,0 28.49,39.06 H 28.47 L 28.46,39.07 A 0.04,0.04 0 0,0 28.44,39.1 V 39.63 C 28.44,39.76 28.49,39.8 28.61,39.75 C 28.71,39.71 28.79,39.73 28.81,39.8 A 0.05,0.05 0 0,1 28.79,39.87 H 28.77 C 28.57,39.89 27.01,39.95 26.98,39.79 V 39.77 A 0.05,0.05 0 0,1 27,39.74 H 27.02 L 27.25,39.69 A 0.15,0.15 0 0,0 27.37,39.55 L 27.39,38.4 A 0.06,0.06 0 0,0 27.33,38.34 L 27.07,38.31 A 0.05,0.05 0 0,0 27.02,38.34 Z M 18.18,38.46 C 17.98,38.38 17.63,37.96 17.46,37.78 L 17.45,37.75 V 37.72 A 0.05,0.05 0 0,1 17.5,37.69 A 0.3,0.3 0 0,1 17.7,37.77 C 17.79,37.85 17.87,37.85 17.95,37.76 L 18.65,36.96 C 18.67,36.96 18.67,36.94 18.67,36.93 V 36.9 C 18.62,36.81 18.43,36.62 18.51,36.54 L 18.52,36.53 A 0.04,0.04 0 0,1 18.55,36.53 H 18.56 L 19.61,37.53 A 0.1,0.1 0 0,1 19.64,37.58 L 19.71,38.6 A 0.04,0.04 0 0,0 19.74,38.64 A 0.04,0.04 0 0,0 19.78,38.62 L 20.04,38.29 A 0.1,0.1 0 0,0 20.06,38.22 C 20.05,38.1 19.84,37.92 19.92,37.86 C 19.93,37.85 19.94,37.84 19.96,37.85 L 20,37.86 A 14.46,14.46 0 0,0 22.84,39.59 A 0.05,0.05 0 0,1 22.84,39.62 L 22.57,40.09 A 0.08,0.08 0 0,1 22.45,40.1 A 0.07,0.07 0 0,1 22.43,40.06 A 0.76,0.76 0 0,0 21.93,39.28 A 0.15,0.15 0 0,0 21.74,39.35 L 21.6,39.59 A 0.09,0.09 0 0,0 21.64,39.71 C 21.78,39.77 21.91,39.74 22.01,39.64 A 0.05,0.05 0 0,1 22.08,39.64 L 22.16,39.7 L 22.18,39.73 V 39.77 L 21.88,40.28 L 21.85,40.31 H 21.81 C 21.6,40.25 21.81,39.95 21.52,39.82 A 0.06,0.06 0 0,0 21.44,39.85 L 21.22,40.27 A 0.1,0.1 0 0,0 21.24,40.4 C 21.55,40.65 21.87,40.66 22.2,40.42 A 0.07,0.07 0 0,1 22.28,40.42 L 22.36,40.47 A 0.05,0.05 0 0,1 22.38,40.54 L 22.08,41.01 L 22.05,41.03 H 22.02 A 12.64,12.64 0 0,1 19.83,39.78 V 39.75 C 19.88,39.67 20.13,39.79 20.2,39.81 H 20.24 L 20.27,39.78 L 20.87,38.73 V 38.69 L 20.86,38.66 C 20.73,38.54 20.46,38.28 20.28,38.46 A 37.8,37.8 0 0,0 19.34,39.46 C 19.32,39.46 19.31,39.46 19.29,39.44 L 18.88,39.1 A 0.1,0.1 0 0,1 18.84,39.02 L 18.73,37.34 A 0.03,0.03 0 0,0 18.71,37.32 A 0.03,0.03 0 0,0 18.68,37.32 C 18.47,37.56 17.87,38.02 18.22,38.34 A 0.07,0.07 0 0,1 18.24,38.4 V 38.42 A 0.04,0.04 0 0,1 18.2,38.46 H 18.18 Z M 34.63,39.76 C 35,39.6 35.33,39.66 35.6,39.94 A 0.08,0.08 0 0,0 35.69,39.95 C 35.86,39.87 35.99,39.75 36.11,39.61 A 0.07,0.07 0 0,0 36.11,39.52 L 35.33,38.62 A 0.07,0.07 0 0,0 35.26,38.59 C 35.19,38.61 34.96,38.77 34.92,38.68 V 38.65 L 34.94,38.62 L 36.24,37.65 A 0.05,0.05 0 0,1 36.3,37.65 C 36.37,37.71 36.2,37.87 36.17,37.92 A 0.06,0.06 0 0,0 36.17,38 L 36.35,38.24 A 0.05,0.05 0 0,0 36.42,38.25 L 36.44,38.24 L 36.77,37.58 A 0.07,0.07 0 0,0 36.71,37.48 H 36.66 L 36.49,37.59 A 0.05,0.05 0 0,1 36.43,37.59 L 36.41,37.56 V 37.51 L 37.33,36.61 C 37.35,36.59 37.38,36.58 37.41,36.59 L 37.43,36.6 V 36.62 A 0.04,0.04 0 0,1 37.43,36.65 A 2.26,2.26 0 0,0 36.96,37.67 L 36.98,37.68 L 38.16,37.81 L 38.23,37.8 L 38.44,37.71 A 0.07,0.07 0 0,1 38.52,37.74 A 0.07,0.07 0 0,1 38.52,37.82 C 38.39,37.95 37.42,38.96 37.32,38.81 A 0.05,0.05 0 0,1 37.33,38.74 C 37.38,38.7 37.39,38.66 37.38,38.61 A 0.06,0.06 0 0,0 37.33,38.56 L 36.6,38.46 A 0.03,0.03 0 0,0 36.57,38.46 A 0.03,0.03 0 0,0 36.57,38.5 L 36.94,38.92 A 0.08,0.08 0 0,0 37.01,38.95 L 37.14,38.93 A 0.06,0.06 0 0,1 37.21,39.01 L 37.19,39.04 C 36.63,39.48 36.06,39.89 35.49,40.27 A 0.96,0.96 0 0,1 34.69,40.43 A 0.1,0.1 0 0,1 34.63,40.38 L 34.4,40.05 A 0.08,0.08 0 0,0 34.33,40.01 H 34.15 A 0.05,0.05 0 0,0 34.12,40.04 A 0.05,0.05 0 0,0 34.12,40.09 L 34.35,40.59 A 0.06,0.06 0 0,0 34.41,40.62 L 34.64,40.59 L 34.67,40.6 L 34.69,40.63 V 40.68 L 34.67,40.7 A 10.85,10.85 0 0,1 33.14,41.37 L 33.13,41.36 V 41.27 C 33.13,41.26 33.13,41.24 33.15,41.23 L 33.18,41.22 C 33.36,41.18 33.43,41.06 33.35,40.89 A 21.9,21.9 0 0,0 32.87,39.89 A 0.07,0.07 0 0,0 32.84,39.89 C 32.75,39.88 32.52,39.98 32.48,39.92 A 0.06,0.06 0 0,1 32.48,39.85 L 32.51,39.83 C 33.01,39.63 33.51,39.4 34.01,39.16 C 34.26,39.03 35.17,38.62 35.18,39.18 C 35.19,39.38 34.8,39.62 34.62,39.73 C 34.5,39.8 34.5,39.81 34.64,39.76 Z M 34.07,39.89 C 34.45,39.83 34.22,39.21 33.9,39.37 A 0.1,0.1 0 0,0 33.85,39.42 A 0.1,0.1 0 0,0 33.85,39.5 L 34.01,39.86 L 34.03,39.88 H 34.07 Z M 30.83,39.31 C 30.74,39.08 30.61,39.14 30.43,39.19 A 14.64,14.64 0 0,1 29.93,39.3 A 0.09,0.09 0 0,0 29.9,39.37 V 39.4 C 30.02,39.7 30.14,39.48 30.33,39.58 L 30.35,39.6 A 0.04,0.04 0 0,1 30.32,39.66 A 4.56,4.56 0 0,1 29.27,39.81 A 0.05,0.05 0 0,1 29.27,39.72 L 29.56,39.54 A 0.12,0.12 0 0,0 29.61,39.46 L 30.02,38.08 A 0.12,0.12 0 0,1 30.11,38 L 30.71,37.85 A 0.07,0.07 0 0,1 30.77,37.87 L 31.81,38.89 C 31.93,39.01 32.08,39.03 32.24,38.94 A 0.13,0.13 0 0,0 32.3,38.76 L 31.78,37.74 A 0.1,0.1 0 0,0 31.66,37.69 L 31.4,37.77 H 31.38 A 0.04,0.04 0 0,1 31.35,37.73 V 37.67 L 31.39,37.65 C 31.91,37.46 32.41,37.24 32.89,36.98 A 0.13,0.13 0 0,1 32.99,36.97 C 33.04,36.97 33.05,37 33,37.04 L 32.76,37.24 A 0.05,0.05 0 0,0 32.75,37.3 C 32.77,37.36 33.11,38.2 33.32,38.35 A 0.08,0.08 0 0,0 33.38,38.36 A 0.65,0.65 0 0,0 33.85,37.86 C 33.87,37.78 33.85,37.66 33.89,37.56 A 0.07,0.07 0 0,1 33.94,37.51 C 34.09,37.46 34.22,37.94 34.26,38.04 A 0.1,0.1 0 0,1 34.23,38.14 A 11.47,11.47 0 0,1 30.59,39.6 A 0.05,0.05 0 0,1 30.57,39.57 L 30.56,39.54 V 39.51 L 30.58,39.49 L 30.8,39.39 L 30.83,39.35 V 39.31 Z M 29.99,39.06 A 0.02,0.02 0 0,0 30.01,39.08 H 30.02 L 30.51,38.96 A 0.02,0.02 0 0,0 30.52,38.94 A 0.02,0.02 0 0,0 30.52,38.92 L 30.15,38.48 H 30.11 V 38.49 L 29.99,39.06 Z M 24.53,41.01 V 41 L 24.51,40.99 A 0.02,0.02 0 0,0 24.49,40.99 L 23.97,41.7 L 23.94,41.72 H 23.9 L 23.26,41.52 A 0.06,0.06 0 0,1 23.21,41.46 C 23.21,40.96 23.17,40.46 23.14,39.98 C 23.12,39.86 23.05,39.79 22.94,39.77 A 0.06,0.06 0 0,1 22.89,39.71 V 39.64 L 22.91,39.63 A 0.03,0.03 0 0,1 22.94,39.63 C 23.77,39.95 24.61,40.21 25.48,40.4 C 25.83,40.48 26.21,40.52 26.58,40.58 L 26.62,40.59 A 0.05,0.05 0 0,1 26.58,40.68 L 26.39,40.7 A 0.14,0.14 0 0,0 26.33,40.73 A 0.66,0.66 0 0,0 26.18,40.88 A 80.5,80.5 0 0,0 25.36,42.07 H 25.33 L 24.63,41.92 A 0.06,0.06 0 0,1 24.58,41.87 L 24.53,41.01 Z M 24.37,40.3 A 0.24,0.24 0 0,0 24.16,40.28 A 0.06,0.06 0 0,0 24.12,40.34 L 24.15,41.01 A 0.03,0.03 0 0,0 24.17,41.04 A 0.04,0.04 0 0,0 24.21,41.03 C 24.35,40.86 24.71,40.49 24.37,40.3 Z M 25.97,40.67 A 0.4,0.4 0 0,0 25.54,40.55 A 0.06,0.06 0 0,0 25.5,40.61 L 25.54,41.28 C 25.54,41.34 25.56,41.35 25.59,41.3 L 25.97,40.75 L 25.98,40.71 C 25.98,40.69 25.98,40.68 25.96,40.67 Z" fill="rgb(239, 242, 248)"/>
<path d="M 32.85,40.644999999999996 A 0.6,0.6 0 0,1 32.84,41.01 A 0.99,0.99 0 0,1 32.62,41.36 A 2.17,2.17 0 0,1 30.69,41.87 A 1,1 0 0,1 30.31,41.67 A 0.6,0.6 0 0,1 30.12,41.37 A 0.6,0.6 0 0,1 30.14,41.02 A 0.99,0.99 0 0,1 30.36,40.67 A 2.18,2.18 0 0,1 32.29,40.16 A 1,1 0 0,1 32.67,40.36 C 32.77,40.44 32.83,40.54 32.86,40.66 Z M 31.62,40.5 A 0.25,0.25 0 0,0 31.32,40.32 H 31.29 A 0.25,0.25 0 0,0 31.11,40.62 L 31.36,41.54 A 0.25,0.25 0 0,0 31.66,41.71 H 31.68 A 0.25,0.25 0 0,0 31.86,41.41 L 31.62,40.5 Z" fill="rgb(239, 242, 248)"/>
<path d="M 28.389999999999997,42.065 C 28.43,41.83 28.43,41.61 28.26,41.41 C 28.02,41.12 27.84,40.85 27.46,40.73 L 27.44,40.71 V 40.67 L 27.45,40.64 H 27.48 C 27.88,40.64 28.38,40.64 29,40.6 C 29.04,40.6 29.06,40.61 29.07,40.65 V 40.68 L 29.05,40.7 L 28.89,40.8 A 0.04,0.04 0 0,0 28.87,40.84 V 40.86 L 29.21,41.25 A 0.05,0.05 0 0,0 29.25,41.26 A 0.05,0.05 0 0,0 29.29,41.25 C 29.35,41.17 29.68,40.81 29.53,40.72 A 0.1,0.1 0 0,0 29.45,40.72 C 29.38,40.72 29.33,40.7 29.3,40.64 A 0.04,0.04 0 0,1 29.31,40.6 H 29.33 L 30.21,40.45 A 0.04,0.04 0 0,1 30.26,40.47 V 40.49 C 30.26,40.54 30.24,40.58 30.19,40.59 C 29.89,40.68 29.61,41.17 29.43,41.41 A 0.1,0.1 0 0,0 29.41,41.48 L 29.45,41.94 C 29.45,41.96 29.46,41.99 29.49,42.01 C 29.51,42.04 29.53,42.05 29.56,42.05 L 29.82,42.08 A 0.06,0.06 0 0,1 29.87,42.14 A 0.06,0.06 0 0,1 29.82,42.2 A 10.55,10.55 0 0,1 28.05,42.29 A 0.04,0.04 0 0,1 28.04,42.26 C 28.04,42.16 28.28,42.16 28.36,42.13 A 0.06,0.06 0 0,0 28.4,42.08 Z" fill="rgb(239, 242, 248)"/>
<path d="M 23.99,22.985 H 26.62 V 32.47 H 24 Z M 32.34,25.17 C 32.42,23.59 30.44,23.09 29.45,23.03 V 26.68 C 30.38,26.83 32.25,26.75 32.34,25.17 Z M 32.1,30.1 C 31.92,28.26 30.26,27.95 29.45,28.03 C 29.52,28.23 29.48,29.85 29.45,30.64 C 29.77,32.64 31.53,32.76 32.38,32.57 C 32.36,32.52 32.29,31.94 32.1,30.1 Z" fill="rgb(1, 98, 79)" fill-opacity=".5"/>
</svg>
