<?xml version="1.0" encoding="UTF-8"?>
<!-- generated by Finnhub -->
<svg viewBox="0 0 55.5 55.5" xmlns="http://www.w3.org/2000/svg">
<path d="M 0,0 H 55.5 V 55.5 H 0 Z" fill="rgb(239, 242, 248)"/>
<path d="M 33.07,41.355 C 40.82,38.31 49.17,29.21 44.79,20.27 C 48.59,28.77 40.73,37.16 33.45,40.03 C 24.38,43.61 14.85,40.81 12.16,33.79 C 9.47,26.76 14.66,18.16 23.72,14.58 A 21.7,21.7 0 0,1 32.14,13.02 A 22.6,22.6 0 0,0 22.86,14.63 C 13.35,18.4 7.92,27.41 10.75,34.8 C 13.57,42.18 23.57,45.12 33.08,41.37 Z M 19.53,39 H 22.79 C 22.79,38.52 21.29,37.92 20.55,37.67 L 23.61,31.09 A 4.93,4.93 0 0,1 25,34.12 C 25,35.25 25.48,35.66 26,36.11 C 26.24,36.31 26.49,36.51 26.7,36.8 C 27.16,37.39 27.04,37.57 26.89,37.8 A 0.82,0.82 0 0,0 26.71,38.3 C 26.71,38.81 27.11,38.98 27.32,39 H 31 C 31,38.58 30.5,38.3 29.4,37.92 C 28.38,37.58 28.1,36.96 27.65,35.96 L 27.56,35.75 C 27.25,35.05 26.9,33.62 26.57,32.25 C 26.37,31.41 26.17,30.58 25.99,29.97 C 25.61,28.67 24.99,27.22 24.72,26.66 C 24.81,26.49 25.22,26.18 26.16,26.28 C 26.74,26.34 27.04,26.54 27.32,26.72 C 27.6,26.92 27.86,27.09 28.37,27.09 C 29.37,27.09 29.86,26.84 30.15,26.66 C 30.45,26.46 30.5,25.79 29.08,25.52 C 28.17,25.34 27.08,24.73 25.98,24.13 C 25.39,23.81 24.8,23.48 24.24,23.23 A 6.66,6.66 0 0,0 21.85,22.52 V 21.88 H 22.55 V 21.41 C 22.55,21.15 22.8,21.07 22.92,21.07 C 22.87,20.37 22.48,19 21.3,19 C 19.83,19 19.68,19.78 19.68,20.45 C 19.68,20.77 19.81,21.05 19.95,21.36 C 20.11,21.71 20.29,22.11 20.35,22.66 C 20.39,23.19 20.2,23.31 20.02,23.42 C 19.85,23.52 19.67,23.63 19.68,24.07 C 19.7,24.89 21.21,26.2 21.8,26.71 L 21.96,26.84 C 22.23,27.08 22.18,27.49 22.12,27.94 C 22.1,28.14 22.07,28.36 22.07,28.57 V 29.45 C 22.07,29.67 21.94,29.94 21.63,30.53 L 21.36,31.09 C 20.96,31.89 20.8,32.84 20.76,33.22 C 19.69,34.6 19.71,35.2 19.73,36.02 V 36.64 C 19.71,37.33 19.48,37.56 19.28,37.74 C 19.13,37.89 19,38.01 19,38.29 C 19,38.82 19.36,38.99 19.53,39 Z M 44,21.5 A 7.5,7.5 0 0,1 30.58,26.1 L 36.18,24.22 A 1.5,1.5 0 1,0 36,23.5 L 29.97,25.2 A 7.5,7.5 0 1,1 44,21.5 Z" fill="rgb(7, 39, 61)"/>
</svg>
