<?xml version="1.0" encoding="UTF-8"?>
<!-- generated by Finnhub -->
<svg viewBox="0 0 55.5 55.5" xmlns="http://www.w3.org/2000/svg">
<path d="M 0,0 H 55.5 V 55.5 H 0 Z" fill="rgb(239, 242, 248)"/>
<path d="M 8.987,24.985 V 31 H 8.003 V 30 C 7.677,30.64 7.002,31 6.297,31 C 5.057,31 4,30.368 4,29.049 V 25 H 5 V 28.703 C 5,29.77 5.489,30 6.399,30 C 7.588,30 8.003,29.171 8.003,28.14 V 25 H 8.997 Z M 10,31 V 23 H 11 V 31 H 10 Z M 12,31 V 26 H 11.465 V 25 H 12 V 24 H 13 V 25 H 14 V 26 H 13 V 31 H 12 Z M 17.633,25 C 17.809,25 17.839,25.038 18,25.092 V 25.805 C 17.846,25.729 17.817,25.69 17.633,25.69 C 17.317,25.69 17.178,25.782 16.906,25.967 C 16.635,26.151 16.415,26.419 16.246,26.772 C 16.084,27.117 16.004,27.528 16.004,28.003 V 31 H 15 V 25 H 16.004 V 26.277 C 16.202,25.878 16.451,25.567 16.752,25.345 C 17.06,25.123 17.252,25 17.633,25 Z" fill="rgb(119, 18, 111)"/>
<path d="M 22.985999999999997,24.985 V 31 H 22 V 30 C 21.702,30.522 20.668,31 20.21,31 C 18.614,31 17.49,29.9 17.49,28.003 C 17.49,26.305 18.483,25 20.21,25 C 20.927,25 21.605,25.417 22,26 V 25 H 22.996 Z M 20.21,30 C 21.343,30 22,29.13 22,28.003 C 22,26.941 21.304,26 20.21,26 S 18.427,27.036 18.44,28.003 C 18.453,28.971 19.077,30 20.21,30 Z" fill="rgb(119, 18, 111)"/>
<path d="M 29.99,24.985 V 30.538 C 30,31.88 29.076,33 27.666,33 H 25 V 32 H 27.666 C 28.906,32 29,31.006 29,30 C 28.824,30.538 27.81,31 27.006,31 C 25.488,31 24,29.878 24,27.876 S 25.564,25 27.006,25 C 27.742,25 28.783,25.372 29,26 V 25 H 30 Z M 27.006,30 C 28.222,29.975 28.978,29.15 29,28 C 29.022,26.85 28.036,26 27.006,26 S 24.997,26.655 25,28 C 25.003,29.345 25.79,30.025 27.006,30 Z M 32.87,25 C 33.34,25 33.766,25.134 34.147,25.372 C 34.528,25.609 34.827,25.935 35.044,26.35 C 35.26,26.756 35.368,27.213 35.368,27.719 C 35.368,27.865 35.365,27.923 35.358,28 H 31.303 C 31.303,28.391 31.357,29.03 31.678,29.421 C 31.999,29.813 32.436,30 32.988,30 C 33.437,30 33.807,29.924 34.098,29.755 C 34.397,29.578 34.636,29.337 34.815,29.03 L 35.305,29.715 A 2.706,2.706 0 0,1 34.33,30.658 C 33.927,30.881 33.449,31 32.896,31 C 32.388,31 31.936,30.87 31.541,30.624 A 2.538,2.538 0 0,1 30.611,29.6 C 30.387,29.162 30.282,28.444 30.282,27.892 A 3.3,3.3 0 0,1 30.607,26.407 C 30.831,25.97 31.137,25.629 31.526,25.383 A 2.51,2.51 0 0,1 32.87,25 Z M 34.478,27.408 C 34.362,26.55 33.68,26 32.87,26 S 31.445,26.575 31.303,27.408 H 34.477 Z M 38.728,25 C 39.094,25 39.692,25.088 39.998,25.241 C 40.312,25.395 40.558,25.621 40.738,25.92 C 40.924,26.22 41,26.572 41,26.979 V 31 H 40 V 27.652 C 40,26.586 39.538,26 38.612,26 C 37.372,26 37,26.644 37,27.888 V 31 H 36 V 25 H 37 V 26.093 C 37.18,25.747 37.406,25.483 37.697,25.299 A 1.873,1.873 0 0,1 38.727,25 Z M 46,25 H 47.002 L 43.999,33 H 43.004 L 43.882,31 L 41,25 H 42 L 44.268,29.6 L 46,25 Z M 49.959,27.56 L 49.285,28.263 L 47.454,25 H 48.453 L 49.959,27.56 Z" fill="rgb(111, 149, 36)"/>
<path d="M 50.173,27.907 C 52.804,23.998 51.839,21.462 51.09,20.695 C 51.911,24.014 50.505,26.595 49.7,27.47 C 46.22,31.865 46.462,34.27 47.229,35.305 C 47.044,32.987 46.907,32.827 50.183,27.922 Z" fill="rgb(111, 149, 36)"/>
<path d="M 49.775,29.159 L 50.363,28.562 L 52,31 H 51 L 49.785,29.174 Z" fill="rgb(111, 149, 36)"/>
</svg>
