<?xml version="1.0" encoding="UTF-8"?>
<!-- generated by Finnhub -->
<svg viewBox="0 0 55.5 55.5" xmlns="http://www.w3.org/2000/svg">
<path d="M 0,0 H 55.5 V 55.5 H 0 Z" fill="rgb(239, 242, 248)"/>
<path d="M 43.99,32.345 V 21 H 46 V 26.36 C 46.9,24.61 47.31,22.78 48.15,21 H 50.51 L 47.71,26.16 L 51,34 L 48.48,33.2 L 46.52,28.03 L 46,29.12 V 32.72 C 45.4,32.59 44.65,32.46 44,32.36 Z M 36.9,30 L 36.62,31.48 C 35.99,31.42 35.34,31.38 34.66,31.36 L 36.9,21 H 39.42 L 41.86,32.08 C 41.18,31.98 40.47,31.88 39.74,31.8 L 39.34,30 H 36.9 Z M 39.06,28 L 38.53,25.4 L 38.36,24.64 A 7.78,7.78 0 0,0 38.24,23.84 A 6.4,6.4 0 0,1 38.12,23.12 H 38.08 C 38.03,23.36 37.98,23.62 37.96,23.88 C 37.9,24.15 37.86,24.41 37.84,24.68 L 37.67,25.4 L 37.19,28 H 39.06 Z M 31.17,33.04 H 29.91 V 33 C 30.35,33 30.76,33.01 31.17,33.04 Z M 30,31 V 28.16 L 27.23,21 H 29.43 L 30.32,23.96 L 30.56,24.76 C 30.62,25 30.68,25.24 30.76,25.48 L 30.96,26.24 A 771.3,771.3 0 0,0 31.62,23.96 L 32.47,21 H 34.63 L 32,28.04 V 31 H 30 Z M 22.35,30 L 22.03,31.56 A 48,48 0 0,0 20.03,31.68 L 22.36,21 H 24.88 L 27.12,31.28 C 26.9,31.28 26.67,31.29 26.42,31.32 C 25.97,31.32 25.52,31.33 25.09,31.36 L 24.79,30 H 22.35 Z M 26.95,33 H 27.51 V 33.04 H 25.73 C 26.13,33.01 26.53,33 26.94,33 Z M 24.51,28 L 23.98,25.4 L 23.81,24.64 C 23.76,24.37 23.71,24.11 23.69,23.84 L 23.53,23.12 C 23.48,23.36 23.43,23.62 23.41,23.88 C 23.36,24.15 23.31,24.41 23.29,24.68 L 23.12,25.4 L 22.64,28 H 24.51 Z M 12,32.6 V 21.24 C 12.19,21.19 12.7,21.14 12.96,21.12 C 13.24,21.07 13.53,21.04 13.86,21.04 C 14.16,21.01 14.48,21 14.84,21 C 15.46,21 16,21.07 16.46,21.2 C 16.89,21.36 17.26,21.6 17.56,21.92 C 17.83,22.22 18.03,22.57 18.16,23 A 4.47,4.47 0 0,1 18.21,25.48 C 18.13,25.8 18.01,26.08 17.88,26.32 C 17.75,26.59 17.58,26.8 17.39,26.96 C 17.2,27.14 17.03,27.28 16.87,27.36 V 27.44 C 17.14,27.6 17.37,27.88 17.56,28.28 C 17.75,28.65 17.89,29.12 18,29.68 L 18.16,30.68 C 18.25,31.02 18.31,31.36 18.37,31.68 L 18.41,31.84 C 17.73,31.89 17.08,31.96 16.46,32.04 C 16.36,31.56 16.24,30.96 16.13,30.24 C 16,29.44 15.78,28 14.75,28 H 14 V 32.32 C 13.32,32.4 12.6,32.49 12,32.6 Z M 14,26.4 H 14.91 C 15.24,26.4 15.51,26.32 15.73,26.16 C 15.97,26.03 16.15,25.83 16.26,25.56 C 16.39,25.32 16.46,25.03 16.46,24.68 C 16.46,24.31 16.39,24 16.26,23.76 C 16.15,23.49 16,23.31 15.81,23.2 C 15.59,23.07 15.33,23 15.04,23 C 14.79,23 14.6,23.01 14.47,23.04 C 14.33,23.04 14.05,23.05 14,23.08 V 26.4 Z M 10,28 H 7 V 30.84 L 10,30.76 V 32.72 C 8.41,33 7.28,33.32 5,33.68 V 21 H 10 V 23 H 7 V 26 H 10 V 28 Z" fill="rgb(30, 38, 109)"/>
<path d="M 4.99,35.865 S 11.18,33.42 26.23,32.8 C 41.28,32.15 51,36 51,36 S 35.18,34.24 26.7,34.44 C 18.49,34.61 5,35.88 5,35.88 Z" fill="rgb(238, 129, 2)"/>
</svg>
