<?xml version="1.0" encoding="UTF-8"?>
<!-- generated by Finnhub -->
<svg viewBox="0 0 55.5 55.5" xmlns="http://www.w3.org/2000/svg">
<path d="M 0,0 H 55.5 V 55.5 H 0 Z" fill="rgb(239, 242, 248)"/>
<path d="M 12.99,36.985 C 13,36.74 13.04,36.48 13.13,36.23 C 13.21,35.99 13.33,35.77 13.49,35.59 C 13.64,35.4 13.83,35.25 14.03,35.15 C 14.23,35.05 14.45,35 14.67,35 H 41.25 C 41.47,34.99 41.7,35.03 41.91,35.13 C 42.12,35.22 42.31,35.37 42.48,35.55 C 42.65,35.74 42.78,35.96 42.86,36.21 A 2.34,2.34 0 0,1 42.48,38.45 C 42.32,38.63 42.12,38.78 41.91,38.87 C 41.7,38.97 41.47,39.01 41.25,39 H 14.67 C 14.23,39 13.8,38.79 13.49,38.41 A 2.21,2.21 0 0,1 13,37 Z" fill="rgb(2, 72, 152)"/>
<path d="M 12.620000000000001,33.964999999999996 H 17.23 A 123,123 0 0,1 13.05,28.45 C 12.12,27.12 10.79,24.65 12.35,22.96 A 3.01,3.01 0 0,1 15.03,22.13 A 8.74,8.74 0 0,0 16.78,29.06 C 17.61,30.18 19.19,32.2 20.59,34 H 25.19 C 23.69,32.06 20.87,28.46 19.69,26.9 A 5.22,5.22 0 0,1 18.62,22.79 A 3.95,3.95 0 0,1 20.74,20.09 A 3.5,3.5 0 0,1 25.2,20.94 C 25.83,21.73 26,23.34 26,25.7 V 34 H 30 V 25.7 C 30,23.33 30.16,21.73 30.78,20.93 A 3.48,3.48 0 0,1 35.25,20.1 A 4,4 0 0,1 37.38,22.76 A 5.22,5.22 0 0,1 36.3,26.9 C 35.12,28.45 32.31,32.06 30.8,34 H 35.4 L 39.21,29.07 A 8.76,8.76 0 0,0 40.96,22.15 A 3.03,3.03 0 0,1 43.65,22.99 C 45.2,24.68 43.87,27.15 42.95,28.47 A 122.92,122.92 0 0,1 38.76,34 H 43.38 C 44.25,32.86 45.11,31.7 45.93,30.53 C 48.53,26.83 48.69,23.09 46.34,20.53 C 44.66,18.71 42.06,18.08 39.34,18.78 A 8.35,8.35 0 0,0 36.56,16.7 L 36.3,16.6 L 35.98,16.46 L 35.82,16.4 C 32.64,15.32 29.6,16.66 28.02,17.6 C 26.44,16.66 23.4,15.32 20.23,16.4 L 20.04,16.44 L 19.72,16.56 L 19.47,16.67 L 18.98,16.92 A 8.3,8.3 0 0,0 16.66,18.77 C 13.94,18.07 11.35,18.69 9.66,20.52 C 7.31,23.08 7.46,26.82 10.06,30.52 A 97.82,97.82 0 0,0 12.63,33.98 Z" fill="rgb(236, 156, 23)"/>
</svg>
