<?xml version="1.0" encoding="UTF-8"?>
<!-- generated by Finnhub -->
<svg viewBox="0 0 55.5 55.5" xmlns="http://www.w3.org/2000/svg">
<path d="M 0,0 H 55.5 V 55.5 H 0 Z" fill="rgb(239, 242, 248)"/>
<path d="M 4.53,20.985 H 8.24 C 9.3,21 10.47,21.63 10.47,22.81 C 10.47,23.67 9.8,24.29 9.02,24.52 L 10.24,26.37 L 10.81,27.15 C 11.11,27.52 11.35,27.85 11.54,28 H 9.95 C 8.97,28 8.45,27.48 8,26.68 L 7,24.94 V 26.85 C 7,27.32 7.17,27.75 7.52,28 H 4.5 C 4.8,27.78 5,27.36 5,26.85 V 22.08 C 5,21.58 4.85,21.22 4.54,21 Z M 7,22 V 24.45 C 7.7,24.33 8.35,23.77 8.35,23.04 C 8.35,22.44 7.79,21.99 7.2,21.99 H 7 Z M 11.58,21 H 15.68 V 22.45 C 15.5,22.15 15.21,22 14.81,22 H 14 V 24 H 15.34 V 25.35 A 0.84,0.84 0 0,0 14.64,24.99 H 14 V 26.71 C 14,27.03 14.42,27.01 14.65,27.01 H 15.45 C 15.87,27.01 16.25,26.83 16.58,26.49 L 16.18,28 H 11.58 C 11.86,27.78 12,27.42 12,26.92 V 22.12 C 12,21.62 11.86,21.22 11.58,21 Z" fill="rgb(1, 38, 116)"/>
<path d="M 16.52,20.985 H 20.15 C 21.27,21 22.53,21.64 22.53,22.9 C 22.53,24.4 20.87,25.02 19.58,25.02 C 19.48,25.02 19.32,25.02 19.11,25 C 19.87,24.7 20.36,24.13 20.36,23.38 C 20.36,22.68 19.87,22.05 19.11,22.05 H 19 V 26.91 C 19,27.15 19.03,27.36 19.1,27.54 C 19.16,27.72 19.29,27.87 19.47,28 H 16.53 C 16.84,27.78 17,27.42 17,26.91 V 22.1 C 17,21.6 16.84,21.23 16.53,21.01 Z M 22.56,21 H 25.44 A 0.98,0.98 0 0,0 25.09,21.45 A 1.9,1.9 0 0,0 25,22.06 V 25.33 C 25,26.03 25.19,26.8 26.03,26.8 C 26.9,26.8 27,25.86 27,25.16 V 22.06 C 27,21.83 26.97,21.62 26.91,21.46 A 0.9,0.9 0 0,0 26.56,21 H 29.44 A 0.98,0.98 0 0,0 29.09,21.45 C 29.03,21.62 29,21.83 29,22.06 V 26.75 C 29,26.98 29.03,27.18 29.1,27.35 C 29.15,27.53 29.27,27.88 29.44,28 H 27 V 26.93 C 26.59,27.68 26,28 25.14,28 C 23.64,28 23,27.02 23,25.63 V 22.06 C 23,21.83 22.97,21.62 22.91,21.46 A 0.9,0.9 0 0,0 22.56,21 Z M 13.55,30 H 17.06 C 18.02,30 19.11,30.5 19.11,31.57 C 19.11,32.31 18.57,32.84 17.89,33.02 A 1.8,1.8 0 0,1 19.34,33.92 C 19.48,34.19 19.55,34.48 19.55,34.82 C 19.55,36.24 18.3,37 17.01,37 H 13.55 C 13.85,36.78 14,36.42 14,35.91 V 31.1 C 14,30.6 13.85,30.23 13.55,30.01 Z M 16,31.07 V 32.7 H 16.27 C 16.75,32.7 17.05,32.35 17.05,31.76 C 17.05,31.33 16.8,31 16.35,31 A 0.92,0.92 0 0,0 16,31.07 Z M 16,33.61 V 35.87 C 16.23,35.94 16.46,35.98 16.66,35.98 C 17.3,35.98 17.54,35.35 17.54,34.8 C 17.54,34.15 17.19,33.61 16.5,33.61 H 16 Z M 29.55,21 H 33.06 C 34.02,21 35.11,21.5 35.11,22.57 C 35.11,23.31 34.57,23.84 33.89,24.02 A 1.8,1.8 0 0,1 35.34,24.92 C 35.48,25.18 35.55,25.48 35.55,25.82 C 35.55,27.24 34.3,28 33.01,28 H 29.55 C 29.85,27.78 30,27.42 30,26.91 V 22.1 C 30,21.6 29.85,21.23 29.55,21.01 Z M 32.01,22.04 V 23.7 H 32.27 C 32.75,23.7 33.05,23.35 33.05,22.76 C 33.05,22.46 32.98,22.26 32.84,22.14 A 0.77,0.77 0 0,0 32.35,21.97 A 0.85,0.85 0 0,0 32.01,22.04 Z M 32.01,24.61 V 26.87 C 32.25,26.94 32.46,26.98 32.66,26.98 C 33.3,26.98 33.54,26.35 33.54,25.8 C 33.54,25.15 33.19,24.61 32.5,24.61 H 32.01 Z" fill="rgb(1, 38, 116)"/>
<path d="M 41.18,26.515 L 40.69,28 H 35.49 C 35.83,27.78 36,27.42 36,26.91 V 22.1 C 36,21.6 35.83,21.23 35.5,21.01 H 38.5 C 38.32,21.14 38.18,21.29 38.1,21.47 C 38.04,21.65 38,21.86 38,22.1 V 26.84 C 38.47,26.95 38.96,27.01 39.47,27.01 C 40.15,27.01 40.72,26.85 41.19,26.54 Z M 41.7,21 H 44.3 C 44.19,21.13 44.1,21.28 44.06,21.46 C 44.02,21.64 44,21.85 44,22.09 V 26.91 C 44,27.15 44.02,27.36 44.06,27.54 A 1,1 0 0,0 44.31,28 H 41.69 C 41.89,27.78 42,27.42 42,26.91 V 22.1 C 42,21.6 41.9,21.23 41.7,21.01 Z M 50.88,21.19 L 50.98,22.56 A 3.66,3.66 0 0,0 49.16,22.04 C 47.85,22.04 47,22.99 47,24.24 C 47,25.77 48.05,27 49.6,27 C 50.42,27 51.27,26.66 52,26.31 L 51.48,27.66 C 50.84,27.86 50.14,28 49.16,28 C 47.06,28 45,26.8 45,24.5 C 45,22.28 47,21 49.04,21 C 49.64,21 50.26,21.06 50.88,21.19 Z M 21.48,30 H 24.52 L 27.01,35.77 C 27.17,36.14 27.33,36.41 27.49,36.59 C 27.66,36.77 27.83,36.91 28,37 H 24.17 C 24.53,36.84 24.7,36.58 24.7,36.28 C 24.7,36.15 24.65,35.98 24.6,35.86 L 24.17,35 H 21.66 L 21.24,35.88 C 21.16,36.07 21.12,36.23 21.12,36.37 C 21.12,36.62 21.26,36.83 21.54,37 H 19 A 3.22,3.22 0 0,0 19.9,35.77 L 21.83,31.11 C 21.9,30.93 21.94,30.76 21.94,30.58 C 21.94,30.48 21.91,30.38 21.84,30.28 C 21.77,30.18 21.64,30.09 21.48,30 Z M 22.03,34 H 23.78 L 22.91,31.76 L 22.03,34 Z" fill="rgb(1, 38, 116)"/>
<path d="M 27.25,29.985 H 29.74 L 34,34.2 V 31.07 C 34,30.57 33.84,30.22 33.5,30 H 35.5 A 1,1 0 0,0 35.1,30.45 C 35.03,30.62 35,30.83 35,31.07 V 37 A 7,7 0 0,1 33.28,36.44 A 3.26,3.26 0 0,1 32.38,35.74 L 29,32.56 V 35.94 C 29,36.17 29.03,36.38 29.1,36.55 C 29.17,36.73 29.3,36.88 29.5,37 H 27.5 C 27.84,36.79 28,36.43 28,35.94 V 31.48 C 28,30.86 27.75,30.36 27.26,30 Z M 42.98,30 L 40.19,32.84 L 42.73,36.24 C 42.87,36.44 43.13,36.72 43.5,37 H 41.75 C 41.45,37 41.19,36.98 40.97,36.93 A 1.81,1.81 0 0,1 40.34,36.63 C 40.14,36.49 39.94,36.28 39.75,36 L 38,33.8 V 35.92 C 38,36.15 38.03,36.36 38.1,36.54 S 38.3,36.87 38.5,37 H 35.5 C 35.83,36.78 36,36.42 36,35.92 V 31.09 C 36,30.59 35.83,30.22 35.5,30 H 38.5 C 38.31,30.13 38.18,30.28 38.1,30.46 C 38.03,30.63 38,30.84 38,31.09 V 33.22 L 40.22,31.09 A 0.81,0.81 0 0,0 40.44,30.57 C 40.44,30.4 40.28,30.21 39.97,30 H 42.97 Z" fill="rgb(1, 38, 116)"/>
</svg>
