<?xml version="1.0" encoding="UTF-8"?>
<!-- generated by Finnhub -->
<svg viewBox="0 0 55.5 55.5" xmlns="http://www.w3.org/2000/svg">
<rect width="56" height="56" fill="rgb(239, 242, 248)"/>
<path d="M 15.616,31.965 C 16.6269,25.7199 22.7282,21.558 28.823,22.7607 C 32.5312,23.4914 35.49,25.9356 37.0408,29.4129 C 37.0754,29.4906 37.0576,29.5048 36.9874,29.4554 C 33.243,26.8301 28.3296,27.3089 25.3224,30.7925 C 23.3111,33.1233 22.6858,36.3659 23.7149,39.292 C 24.6347,41.9095 26.4773,43.7206 29.2427,44.7253 C 29.2951,44.7442 29.2941,44.76 29.2396,44.7726 C 27.5285,45.1537 25.7828,45.0198 24.0999,44.6371 C 19.2446,43.5331 14.9692,40.0606 12.7739,35.6037 C 7.3231,24.5307 15.0585,11.3717 27.4689,11.0077 C 39.1809,10.666 47.8339,22.0587 44.1359,33.4007 C 44.0793,33.576 44.0673,33.5729 44.0998,33.3912 C 45.5406,25.4571 40.4654,17.8422 32.4908,16.4122 C 23.1621,14.7397 14.6688,22.4062 15.5668,31.9782 C 15.5666,31.9861 15.5696,31.9938 15.575,31.9996 C 15.5805,32.0053 15.588,32.0087 15.5959,32.0089 S 15.6115,32.0061 15.6173,32.0007 C 15.623,31.9952 15.6263,31.9877 15.6266,31.9798 Z" fill="rgb(1, 122, 190)"/>
</svg>
