<?xml version="1.0" encoding="UTF-8"?>
<!-- generated by Finnhub -->
<svg viewBox="0 0 55.5 55.5" xmlns="http://www.w3.org/2000/svg">
<path d="M 0,0 H 55.5 V 55.5 H 0 Z" fill="rgb(1, 120, 192)"/>
<path d="M 32.89,33.985 C 31.28,34 29.63,34.83 29,35.24 C 31.46,35.24 32.9,38 36.51,38 S 41.57,36.07 42,35.66 C 38.39,35.66 34.92,34 32.9,34 Z M 48,31.06 C 46.56,29.8 43.73,28 40.49,28 C 37.94,28 35.9,28.88 34.04,29.68 C 32.45,30.37 30.99,31 29.44,31 C 27.62,31 25.79,30.13 24.11,29.33 C 22.66,28.64 21.31,28 20.16,28 C 18.16,28 15.88,29.16 15,29.74 C 16.68,29.74 18.71,30.63 20.77,31.52 C 22.87,32.44 25,33.37 26.79,33.37 C 28.54,33.37 30.03,32.79 31.55,32.2 C 33.09,31.6 34.65,31 36.51,31 C 38.76,31 41.46,32.13 43.55,33 C 44.88,33.55 45.95,34 46.53,34 C 47.26,34 47.73,33.92 48,33.83 V 31.06 Z M 48,22.55 A 8.22,8.22 0 0,0 45.65,22 C 43.52,22 42.17,22.75 40.81,23.5 C 39.45,24.25 38.09,25 35.97,25 C 33.86,25 32.32,24.26 30.77,23.52 C 29.2,22.76 27.63,22 25.4,22 C 23.67,22 22,22.94 20.52,23.77 C 19.35,24.42 18.32,25 17.47,25 C 16.63,25 15.71,24.61 14.67,24.18 C 13.36,23.63 11.87,23 10.14,23 C 8.96,23 6.94,24.02 5.65,24.67 L 5,25 C 6.78,25 8.18,25.63 9.58,26.26 C 10.94,26.87 12.28,27.48 13.95,27.48 C 15.59,27.48 16.75,26.9 17.93,26.3 C 19.19,25.66 20.5,25 22.46,25 C 24.98,25 26.53,25.86 27.96,26.66 C 29.21,27.36 30.36,28 32,28 C 33.78,28 35.67,27.23 37.55,26.48 C 39.38,25.73 41.19,25 42.86,25 C 44.92,25 46.82,25.84 48,26.56 V 22.55 Z" fill="rgb(239, 242, 248)"/>
</svg>
