<?xml version="1.0" encoding="UTF-8"?>
<!-- generated by Finnhub -->
<svg viewBox="0 0 55.5 55.5" xmlns="http://www.w3.org/2000/svg">
<path d="M 0,0 H 55.5 V 55.5 H 0 Z" fill="rgb(237, 38, 32)"/>
<path d="M 37.751000000000005,26.881 C 38.793,25.547 39.595,23.319 39.595,21.026 C 39.595,16.356 35.224,12 27.98,12 C 23.533,12 20.002,13.788 17.615,15.827 A 15.752,15.752 0 0,1 22.526,15.058 C 28.085,15.058 34.604,19.444 37.761,26.896 Z M 18.238,29.106 C 17.207,30.453 16.405,32.682 16.405,34.973 C 16.405,39.644 20.776,44 28.02,44 C 32.467,44 35.998,42.212 38.383,40.175 C 37.215,40.557 35.553,40.942 33.474,40.942 C 27.915,40.942 21.396,36.558 18.239,29.106 Z M 26.894,18.24 C 25.547,17.207 23.318,16.405 21.027,16.405 C 16.357,16.405 12,20.776 12,28.022 C 12,32.469 13.788,35.998 15.825,38.383 A 15.727,15.727 0 0,1 15.058,33.474 C 15.058,27.917 19.442,21.398 26.894,18.24 Z M 40.942,22.526 C 40.942,28.085 36.558,34.604 29.104,37.761 C 30.451,38.793 32.682,39.597 34.974,39.597 C 39.644,39.597 44,35.225 44,27.982 C 44,23.533 42.21,20.002 40.175,17.617 C 40.555,18.783 40.942,20.447 40.942,22.526 Z" fill="rgb(254, 254, 253)"/>
</svg>
