<?xml version="1.0" encoding="UTF-8"?>
<!-- generated by Finnhub -->
<svg viewBox="0 0 55.5 55.5" xmlns="http://www.w3.org/2000/svg">
<path d="M 0,0 H 55.5 V 55.5 H 0 Z" fill="rgb(239, 242, 248)"/>
<path d="M 17.49,22.985 H 21.7 C 22.5,23 23.1,23.1 23.5,23.28 C 23.91,23.46 24.23,23.72 24.44,24.08 C 24.67,24.42 24.78,24.82 24.78,25.28 A 2.26,2.26 0 0,1 23.53,27.39 C 23.13,27.59 22.6,27.69 21.93,27.7 L 24.08,30.6 C 24.25,30.85 24.37,31 24.42,31.05 C 24.56,31.18 24.7,31.29 24.85,31.35 C 25,31.42 25.17,31.45 25.35,31.45 H 25.5 V 32 H 23.65 L 20.66,27.7 H 19.62 V 30.48 C 19.62,30.78 19.62,30.98 19.65,31.06 C 19.69,31.2 19.75,31.31 19.85,31.36 C 19.95,31.43 20.13,31.46 20.41,31.46 H 20.61 V 32 H 17.5 V 31.46 H 17.78 C 17.99,31.46 18.13,31.44 18.2,31.41 A 0.45,0.45 0 0,0 18.4,31.26 A 0.7,0.7 0 0,0 18.51,30.96 C 18.52,30.92 18.53,30.7 18.53,30.32 V 24.42 C 18.53,24.16 18.51,23.98 18.46,23.86 A 0.46,0.46 0 0,0 18.26,23.63 C 18.18,23.57 18.04,23.55 17.83,23.55 H 17.5 V 23 Z M 19.62,23.7 V 27.09 H 21.29 C 21.86,27.09 22.26,27.05 22.49,26.97 C 22.81,26.87 23.07,26.68 23.26,26.41 C 23.45,26.13 23.54,25.78 23.54,25.35 C 23.54,24.99 23.47,24.69 23.34,24.45 A 1.3,1.3 0 0,0 22.78,23.89 A 2.3,2.3 0 0,0 21.73,23.7 H 19.62 Z M 32.5,23.15 H 32.94 L 33.74,26.05 L 33.15,26.21 A 10,10 0 0,0 32.45,24.86 C 32.18,24.49 31.85,24.2 31.45,23.99 A 2.82,2.82 0 0,0 28.59,24.12 C 28.11,24.42 27.73,24.86 27.43,25.44 C 27.14,26.02 27,26.68 27,27.4 C 27,28.15 27.15,28.82 27.44,29.4 C 27.74,30 28.14,30.44 28.65,30.76 C 29.15,31.07 29.7,31.23 30.29,31.23 C 30.84,31.23 31.41,31.07 31.99,30.76 A 4.65,4.65 0 0,0 33.49,29.43 L 33.99,29.77 A 5.12,5.12 0 0,1 31.68,31.69 C 31.16,31.89 30.6,32 29.99,32 A 4.1,4.1 0 0,1 26.69,30.5 A 4.47,4.47 0 0,1 25.65,27.53 C 25.65,26.68 25.85,25.93 26.23,25.23 A 4.36,4.36 0 0,1 31.2,23.17 C 31.56,23.29 31.92,23.47 32.3,23.72 L 32.5,23.15 Z M 34.46,23 H 37.88 V 23.54 H 37.65 C 37.37,23.54 37.17,23.57 37.05,23.62 A 0.42,0.42 0 0,0 36.85,23.84 C 36.8,23.94 36.77,24.14 36.77,24.44 V 28.43 C 36.77,29.14 36.86,29.67 37.03,30.01 C 37.2,30.35 37.48,30.64 37.88,30.87 A 2.7,2.7 0 0,0 40.57,30.84 C 41,30.6 41.3,30.3 41.47,29.96 C 41.65,29.62 41.74,29.07 41.74,28.33 V 24.5 C 41.74,24.22 41.71,24.02 41.66,23.9 A 0.55,0.55 0 0,0 41.4,23.63 A 1.15,1.15 0 0,0 40.88,23.53 H 40.63 V 23 H 43.6 V 23.54 H 43.4 C 43.06,23.54 42.83,23.6 42.7,23.73 C 42.58,23.86 42.52,24.1 42.52,24.45 V 28.52 C 42.52,29.27 42.38,29.89 42.1,30.39 C 41.82,30.89 41.41,31.28 40.88,31.57 C 40.35,31.86 39.73,32 39.02,32 C 38.36,32 37.74,31.85 37.19,31.56 C 36.64,31.26 36.23,30.89 35.97,30.46 C 35.71,30.01 35.58,29.46 35.58,28.78 V 24.45 C 35.58,24.17 35.55,23.97 35.5,23.86 A 0.5,0.5 0 0,0 35.28,23.62 A 1.2,1.2 0 0,0 34.78,23.54 H 34.46 V 23 Z M 49.72,23.14 H 50.17 L 50.84,25.82 L 50.26,25.99 A 4.6,4.6 0 0,0 48.8,24.22 A 2.76,2.76 0 0,0 46.16,23.87 C 45.86,24 45.65,24.17 45.5,24.37 C 45.36,24.59 45.28,24.8 45.28,25.02 C 45.28,25.22 45.34,25.4 45.45,25.58 C 45.57,25.77 45.74,25.93 45.96,26.07 C 46.19,26.21 46.56,26.35 47.09,26.51 L 48.72,26.99 C 48.92,27.04 49.2,27.16 49.58,27.32 C 49.96,27.49 50.26,27.67 50.48,27.85 A 2.08,2.08 0 0,1 51.16,29.4 C 51.16,30.09 50.85,30.7 50.24,31.21 C 49.64,31.73 48.86,31.99 47.9,31.99 C 47.4,31.99 46.96,31.92 46.57,31.78 C 46.17,31.63 45.76,31.38 45.3,31.01 L 45.02,31.84 H 44.58 L 44,28.7 L 44.58,28.59 C 44.79,29.16 45.08,29.65 45.42,30.06 C 45.78,30.46 46.16,30.76 46.59,30.97 A 3,3 0 0,0 47.89,31.28 C 48.49,31.28 49.01,31.1 49.46,30.74 C 49.84,30.44 50.02,30.08 50.02,29.66 C 50.02,29.29 49.89,28.98 49.62,28.73 A 4.07,4.07 0 0,0 48.15,28.06 L 46.59,27.61 A 3.97,3.97 0 0,1 44.74,26.64 A 1.97,1.97 0 0,1 44.56,24.18 C 44.79,23.83 45.15,23.55 45.63,23.32 A 3.89,3.89 0 0,1 48.6,23.22 C 48.9,23.34 49.2,23.52 49.46,23.72 L 49.72,23.12 Z" fill="rgb(39, 43, 106)"/>
<path d="M 6.19,36.415 H 7.88 C 8.36,29.4 13.87,28 17,28.21 V 28 L 16.97,27.92 L 14.1,28.1 L 12.52,28.49 L 8.82,30.98 L 6.64,34.18 L 6.2,36.43 Z" fill="rgb(247, 175, 63)"/>
<path d="M 5.24,35.735 L 10.75,21 H 12.08 L 14.37,27.67 C 15.35,27.49 16.24,27.48 17,27.48 V 28 C 16.18,27.98 15.37,28.06 14.57,28.22 L 15.57,30.75 C 15.72,31.15 16.11,31.43 16.54,31.43 H 16.74 V 32 H 12.86 V 31.43 H 13.52 C 13.88,31.43 14.12,31.07 14,30.73 L 13.16,28.63 C 10.55,29.56 6.86,32.55 6.7,35.64 C 6.68,36.05 6.78,36.43 7.24,36.43 H 7.88 V 37 H 4 V 36.43 H 4.27 C 4.71,36.43 5.1,36.16 5.25,35.75 Z M 8.07,31.3 A 11.76,11.76 0 0,1 12.94,28.03 L 11.1,22.59 L 8.07,31.3 Z" fill="rgb(39, 43, 106)"/>
</svg>
