<?xml version="1.0" encoding="UTF-8"?>
<!-- generated by Finnhub -->
<svg viewBox="0 0 55.5 55.5" xmlns="http://www.w3.org/2000/svg">
<path d="M 0,0 H 55.5 V 55.5 H 0 Z" fill="rgb(239, 242, 248)"/>
<path d="M 30.11,30.105 A 3,3 0 1,1 25.88,25.88 A 3,3 0 0,1 30.12,30.12 Z" fill="url(#ao)"/>
<path d="M 33.4,25.395 A 2,2 0 1,1 30.59,22.59 A 2,2 0 0,1 33.41,25.41 Z" fill="rgb(5, 156, 222)"/>
<path d="M 37.4,21.395 A 2,2 0 1,1 34.59,18.59 A 2,2 0 0,1 37.41,21.41 Z" fill="url(#y)"/>
<path d="M 39.690000000000005,17.685 A 1,1 0 1,1 38.3,16.3 A 1,1 0 0,1 39.7,17.7 Z" fill="url(#x)"/>
<path d="M 42.690000000000005,14.684999999999999 A 1,1 0 1,1 41.3,13.3 A 1,1 0 0,1 42.7,14.7 Z" fill="url(#w)"/>
<path d="M 43.690000000000005,18.685 A 1,1 0 1,1 42.3,17.3 A 1,1 0 0,1 43.7,18.7 Z" fill="url(#v)"/>
<path d="M 43.690000000000005,38.685 A 1,1 0 1,1 42.3,37.3 A 1,1 0 0,1 43.7,38.7 Z" fill="url(#u)"/>
<path d="M 41.690000000000005,21.685 A 1,1 0 1,1 40.3,20.3 A 1,1 0 0,1 41.7,21.7 Z" fill="url(#t)"/>
<path d="M 41.690000000000005,35.685 A 1,1 0 1,1 40.3,34.3 A 1,1 0 0,1 41.7,35.7 Z" fill="url(#s)"/>
<path d="M 38.690000000000005,24.685 A 1,1 0 1,1 37.3,23.3 A 1,1 0 0,1 38.7,24.7 Z" fill="url(#r)"/>
<path d="M 39.690000000000005,32.685 A 1,1 0 1,1 38.3,31.3 A 1,1 0 0,1 39.7,32.7 Z" fill="url(#q)"/>
<path d="M 36.4,29.395 A 2,2 0 1,1 33.59,26.59 A 2,2 0 0,1 36.41,29.41 Z" fill="url(#p)"/>
<path d="M 30.58,33.394999999999996 A 2,2 0 1,1 33.41,30.59 A 2,2 0 0,1 30.59,33.41 Z" fill="rgb(5, 156, 222)"/>
<path d="M 34.580000000000005,37.394999999999996 A 2,2 0 1,1 37.41,34.59 A 2,2 0 0,1 34.59,37.41 Z" fill="url(#o)"/>
<path d="M 38.29,39.685 A 1,1 0 1,1 39.7,38.3 A 1,1 0 0,1 38.3,39.7 Z" fill="url(#n)"/>
<path d="M 41.29,42.685 A 1,1 0 1,1 42.7,41.3 A 1,1 0 0,1 41.3,42.7 Z" fill="url(#m)"/>
<path d="M 37.29,43.685 A 1,1 0 1,1 38.7,42.3 A 1,1 0 0,1 37.3,43.7 Z" fill="url(#l)"/>
<path d="M 17.29,43.685 A 1,1 0 1,1 18.7,42.3 A 1,1 0 0,1 17.3,43.7 Z" fill="url(#k)"/>
<path d="M 34.29,41.685 A 1,1 0 1,1 35.7,40.3 A 1,1 0 0,1 34.3,41.7 Z" fill="url(#j)"/>
<path d="M 20.29,41.685 A 1,1 0 1,1 21.7,40.3 A 1,1 0 0,1 20.3,41.7 Z" fill="url(#i)"/>
<path d="M 31.29,38.685 A 1,1 0 1,1 32.7,37.3 A 1,1 0 0,1 31.3,38.7 Z" fill="url(#h)"/>
<path d="M 23.29,38.685 A 1,1 0 1,1 24.7,37.3 A 1,1 0 0,1 23.3,38.7 Z" fill="url(#g)"/>
<path d="M 26.58,36.394999999999996 A 2,2 0 1,1 29.41,33.59 A 2,2 0 0,1 26.59,36.41 Z" fill="url(#f)"/>
<path d="M 25.4,22.575 A 2,2 0 1,1 22.59,25.41 A 2,2 0 0,1 25.41,22.59 Z" fill="rgb(34, 75, 154)"/>
<path d="M 21.4,18.575 A 2,2 0 1,1 18.59,21.41 A 2,2 0 0,1 21.41,18.59 Z" fill="url(#e)"/>
<path d="M 17.689999999999998,16.285 A 1,1 0 1,1 16.3,17.7 A 1,1 0 0,1 17.7,16.3 Z" fill="url(#d)"/>
<path d="M 14.69,13.285 A 1,1 0 1,1 13.3,14.7 A 1,1 0 0,1 14.7,13.3 Z" fill="url(#c)"/>
<path d="M 18.689999999999998,12.285 A 1,1 0 1,1 17.3,13.7 A 1,1 0 0,1 18.7,12.3 Z" fill="url(#b)"/>
<path d="M 38.690000000000005,12.285 A 1,1 0 1,1 37.3,13.7 A 1,1 0 0,1 38.7,12.3 Z" fill="url(#a)"/>
<path d="M 21.689999999999998,14.285 A 1,1 0 1,1 20.3,15.7 A 1,1 0 0,1 21.7,14.3 Z" fill="url(#an)"/>
<path d="M 35.690000000000005,14.285 A 1,1 0 1,1 34.3,15.7 A 1,1 0 0,1 35.7,14.3 Z" fill="url(#am)"/>
<path d="M 24.689999999999998,17.285 A 1,1 0 1,1 23.3,18.7 A 1,1 0 0,1 24.7,17.3 Z" fill="url(#al)"/>
<path d="M 32.690000000000005,17.285 A 1,1 0 1,1 31.3,18.7 A 1,1 0 0,1 32.7,17.3 Z" fill="url(#ak)"/>
<path d="M 29.4,19.575 A 2,2 0 1,1 26.59,22.41 A 2,2 0 0,1 29.41,19.59 Z" fill="url(#aj)"/>
<path d="M 22.58,30.575 A 2,2 0 1,1 25.41,33.41 A 2,2 0 0,1 22.59,30.59 Z" fill="rgb(34, 75, 154)"/>
<path d="M 18.58,34.575 A 2,2 0 1,1 21.41,37.41 A 2,2 0 0,1 18.59,34.59 Z" fill="url(#ai)"/>
<path d="M 16.29,38.285 A 1,1 0 1,1 17.7,39.7 A 1,1 0 0,1 16.3,38.3 Z" fill="url(#ah)"/>
<path d="M 13.290000000000001,41.285 A 1,1 0 1,1 14.7,42.7 A 1,1 0 0,1 13.3,41.3 Z" fill="url(#ag)"/>
<path d="M 12.24,37.155 A 0.85,0.85 0 1,1 13.45,38.37 A 0.85,0.85 0 0,1 12.25,37.17 Z" fill="url(#af)"/>
<path d="M 12.290000000000001,17.285 A 1,1 0 1,1 13.7,18.7 A 1,1 0 0,1 12.3,17.3 Z" fill="url(#ae)"/>
<path d="M 14.290000000000001,34.285 A 1,1 0 1,1 15.7,35.7 A 1,1 0 0,1 14.3,34.3 Z" fill="url(#ad)"/>
<path d="M 14.290000000000001,20.285 A 1,1 0 1,1 15.7,21.7 A 1,1 0 0,1 14.3,20.3 Z" fill="url(#ac)"/>
<path d="M 17.29,31.285 A 1,1 0 1,1 18.7,32.7 A 1,1 0 0,1 17.3,31.3 Z" fill="url(#ab)"/>
<path d="M 17.29,23.285 A 1,1 0 1,1 18.7,24.7 A 1,1 0 0,1 17.3,23.3 Z" fill="url(#aa)"/>
<path d="M 19.58,26.575 A 2,2 0 1,1 22.41,29.41 A 2,2 0 0,1 19.59,26.59 Z" fill="url(#z)"/>
<defs>
<linearGradient id="ao" x1="25.03" x2="31.03" y1="28.09" y2="28.09" gradientUnits="userSpaceOnUse">
<stop stop-color="rgb(40, 64, 146)" offset="0"/>
<stop stop-color="rgb(8, 164, 222)" offset="1"/>
</linearGradient>
<linearGradient id="y" x1="34.02" x2="38.02" y1="20.06" y2="20.06" gradientUnits="userSpaceOnUse">
<stop stop-color="rgb(40, 64, 146)" offset="0"/>
<stop stop-color="rgb(8, 164, 222)" offset="1"/>
</linearGradient>
<linearGradient id="x" x1="38.01" x2="40.01" y1="17.03" y2="17.03" gradientUnits="userSpaceOnUse">
<stop stop-color="rgb(40, 64, 146)" offset="0"/>
<stop stop-color="rgb(8, 164, 222)" offset="1"/>
</linearGradient>
<linearGradient id="w" x1="41.01" x2="43.01" y1="14.03" y2="14.03" gradientUnits="userSpaceOnUse">
<stop stop-color="rgb(40, 64, 146)" offset="0"/>
<stop stop-color="rgb(8, 164, 222)" offset="1"/>
</linearGradient>
<linearGradient id="v" x1="42.01" x2="44.01" y1="18.03" y2="18.03" gradientUnits="userSpaceOnUse">
<stop stop-color="rgb(40, 64, 146)" offset="0"/>
<stop stop-color="rgb(8, 164, 222)" offset="1"/>
</linearGradient>
<linearGradient id="u" x1="42.01" x2="44.01" y1="38.03" y2="38.03" gradientUnits="userSpaceOnUse">
<stop stop-color="rgb(40, 64, 146)" offset="0"/>
<stop stop-color="rgb(8, 164, 222)" offset="1"/>
</linearGradient>
<linearGradient id="t" x1="40.01" x2="42.01" y1="21.03" y2="21.03" gradientUnits="userSpaceOnUse">
<stop stop-color="rgb(40, 64, 146)" offset="0"/>
<stop stop-color="rgb(8, 164, 222)" offset="1"/>
</linearGradient>
<linearGradient id="s" x1="40.01" x2="42.01" y1="35.03" y2="35.03" gradientUnits="userSpaceOnUse">
<stop stop-color="rgb(40, 64, 146)" offset="0"/>
<stop stop-color="rgb(8, 164, 222)" offset="1"/>
</linearGradient>
<linearGradient id="r" x1="37.01" x2="39.01" y1="24.03" y2="24.03" gradientUnits="userSpaceOnUse">
<stop stop-color="rgb(40, 64, 146)" offset="0"/>
<stop stop-color="rgb(8, 164, 222)" offset="1"/>
</linearGradient>
<linearGradient id="q" x1="38.01" x2="40.01" y1="32.03" y2="32.03" gradientUnits="userSpaceOnUse">
<stop stop-color="rgb(40, 64, 146)" offset="0"/>
<stop stop-color="rgb(8, 164, 222)" offset="1"/>
</linearGradient>
<linearGradient id="p" x1="33.02" x2="37.02" y1="28.06" y2="28.06" gradientUnits="userSpaceOnUse">
<stop stop-color="rgb(40, 64, 146)" offset="0"/>
<stop stop-color="rgb(8, 164, 222)" offset="1"/>
</linearGradient>
<linearGradient id="o" x1="34.02" x2="38.02" y1="36.06" y2="36.06" gradientUnits="userSpaceOnUse">
<stop stop-color="rgb(40, 64, 146)" offset="0"/>
<stop stop-color="rgb(8, 164, 222)" offset="1"/>
</linearGradient>
<linearGradient id="n" x1="38.01" x2="40.01" y1="39.03" y2="39.03" gradientUnits="userSpaceOnUse">
<stop stop-color="rgb(40, 64, 146)" offset="0"/>
<stop stop-color="rgb(8, 164, 222)" offset="1"/>
</linearGradient>
<linearGradient id="m" x1="41.01" x2="43.01" y1="42.03" y2="42.03" gradientUnits="userSpaceOnUse">
<stop stop-color="rgb(40, 64, 146)" offset="0"/>
<stop stop-color="rgb(8, 164, 222)" offset="1"/>
</linearGradient>
<linearGradient id="l" x1="37.01" x2="39.01" y1="43.03" y2="43.03" gradientUnits="userSpaceOnUse">
<stop stop-color="rgb(40, 64, 146)" offset="0"/>
<stop stop-color="rgb(8, 164, 222)" offset="1"/>
</linearGradient>
<linearGradient id="k" x1="17.01" x2="19.01" y1="43.03" y2="43.03" gradientUnits="userSpaceOnUse">
<stop stop-color="rgb(40, 64, 146)" offset="0"/>
<stop stop-color="rgb(8, 164, 222)" offset="1"/>
</linearGradient>
<linearGradient id="j" x1="34.01" x2="36.01" y1="41.03" y2="41.03" gradientUnits="userSpaceOnUse">
<stop stop-color="rgb(40, 64, 146)" offset="0"/>
<stop stop-color="rgb(8, 164, 222)" offset="1"/>
</linearGradient>
<linearGradient id="i" x1="20.01" x2="22.01" y1="41.03" y2="41.03" gradientUnits="userSpaceOnUse">
<stop stop-color="rgb(40, 64, 146)" offset="0"/>
<stop stop-color="rgb(8, 164, 222)" offset="1"/>
</linearGradient>
<linearGradient id="h" x1="31.01" x2="33.01" y1="38.03" y2="38.03" gradientUnits="userSpaceOnUse">
<stop stop-color="rgb(40, 64, 146)" offset="0"/>
<stop stop-color="rgb(8, 164, 222)" offset="1"/>
</linearGradient>
<linearGradient id="g" x1="23.01" x2="25.01" y1="38.03" y2="38.03" gradientUnits="userSpaceOnUse">
<stop stop-color="rgb(40, 64, 146)" offset="0"/>
<stop stop-color="rgb(8, 164, 222)" offset="1"/>
</linearGradient>
<linearGradient id="f" x1="26.02" x2="30.02" y1="35.06" y2="35.06" gradientUnits="userSpaceOnUse">
<stop stop-color="rgb(40, 64, 146)" offset="0"/>
<stop stop-color="rgb(8, 164, 222)" offset="1"/>
</linearGradient>
<linearGradient id="e" x1="18.02" x2="22.02" y1="20.06" y2="20.06" gradientUnits="userSpaceOnUse">
<stop stop-color="rgb(40, 64, 146)" offset="0"/>
<stop stop-color="rgb(8, 164, 222)" offset="1"/>
</linearGradient>
<linearGradient id="d" x1="16.01" x2="18.01" y1="17.03" y2="17.03" gradientUnits="userSpaceOnUse">
<stop stop-color="rgb(40, 64, 146)" offset="0"/>
<stop stop-color="rgb(8, 164, 222)" offset="1"/>
</linearGradient>
<linearGradient id="c" x1="13.01" x2="15.01" y1="14.03" y2="14.03" gradientUnits="userSpaceOnUse">
<stop stop-color="rgb(40, 64, 146)" offset="0"/>
<stop stop-color="rgb(8, 164, 222)" offset="1"/>
</linearGradient>
<linearGradient id="b" x1="17.01" x2="19.01" y1="13.03" y2="13.03" gradientUnits="userSpaceOnUse">
<stop stop-color="rgb(40, 64, 146)" offset="0"/>
<stop stop-color="rgb(8, 164, 222)" offset="1"/>
</linearGradient>
<linearGradient id="a" x1="37.01" x2="39.01" y1="13.03" y2="13.03" gradientUnits="userSpaceOnUse">
<stop stop-color="rgb(40, 64, 146)" offset="0"/>
<stop stop-color="rgb(8, 164, 222)" offset="1"/>
</linearGradient>
<linearGradient id="an" x1="20.01" x2="22.01" y1="15.03" y2="15.03" gradientUnits="userSpaceOnUse">
<stop stop-color="rgb(40, 64, 146)" offset="0"/>
<stop stop-color="rgb(8, 164, 222)" offset="1"/>
</linearGradient>
<linearGradient id="am" x1="34.01" x2="36.01" y1="15.03" y2="15.03" gradientUnits="userSpaceOnUse">
<stop stop-color="rgb(40, 64, 146)" offset="0"/>
<stop stop-color="rgb(8, 164, 222)" offset="1"/>
</linearGradient>
<linearGradient id="al" x1="23.01" x2="25.01" y1="18.03" y2="18.03" gradientUnits="userSpaceOnUse">
<stop stop-color="rgb(40, 64, 146)" offset="0"/>
<stop stop-color="rgb(8, 164, 222)" offset="1"/>
</linearGradient>
<linearGradient id="ak" x1="31.01" x2="33.01" y1="18.03" y2="18.03" gradientUnits="userSpaceOnUse">
<stop stop-color="rgb(40, 64, 146)" offset="0"/>
<stop stop-color="rgb(8, 164, 222)" offset="1"/>
</linearGradient>
<linearGradient id="aj" x1="26.02" x2="30.02" y1="21.06" y2="21.06" gradientUnits="userSpaceOnUse">
<stop stop-color="rgb(40, 64, 146)" offset="0"/>
<stop stop-color="rgb(8, 164, 222)" offset="1"/>
</linearGradient>
<linearGradient id="ai" x1="18.02" x2="22.02" y1="36.06" y2="36.06" gradientUnits="userSpaceOnUse">
<stop stop-color="rgb(40, 64, 146)" offset="0"/>
<stop stop-color="rgb(8, 164, 222)" offset="1"/>
</linearGradient>
<linearGradient id="ah" x1="16.01" x2="18.01" y1="39.03" y2="39.03" gradientUnits="userSpaceOnUse">
<stop stop-color="rgb(40, 64, 146)" offset="0"/>
<stop stop-color="rgb(8, 164, 222)" offset="1"/>
</linearGradient>
<linearGradient id="ag" x1="13.01" x2="15.01" y1="42.03" y2="42.03" gradientUnits="userSpaceOnUse">
<stop stop-color="rgb(40, 64, 146)" offset="0"/>
<stop stop-color="rgb(8, 164, 222)" offset="1"/>
</linearGradient>
<linearGradient id="af" x1="12.01" x2="13.7" y1="37.79" y2="37.79" gradientUnits="userSpaceOnUse">
<stop stop-color="rgb(40, 64, 146)" offset="0"/>
<stop stop-color="rgb(8, 164, 222)" offset="1"/>
</linearGradient>
<linearGradient id="ae" x1="12.01" x2="14.01" y1="18.03" y2="18.03" gradientUnits="userSpaceOnUse">
<stop stop-color="rgb(40, 64, 146)" offset="0"/>
<stop stop-color="rgb(8, 164, 222)" offset="1"/>
</linearGradient>
<linearGradient id="ad" x1="14.01" x2="16.01" y1="35.03" y2="35.03" gradientUnits="userSpaceOnUse">
<stop stop-color="rgb(40, 64, 146)" offset="0"/>
<stop stop-color="rgb(8, 164, 222)" offset="1"/>
</linearGradient>
<linearGradient id="ac" x1="14.01" x2="16.01" y1="21.03" y2="21.03" gradientUnits="userSpaceOnUse">
<stop stop-color="rgb(40, 64, 146)" offset="0"/>
<stop stop-color="rgb(8, 164, 222)" offset="1"/>
</linearGradient>
<linearGradient id="ab" x1="17.01" x2="19.01" y1="32.03" y2="32.03" gradientUnits="userSpaceOnUse">
<stop stop-color="rgb(40, 64, 146)" offset="0"/>
<stop stop-color="rgb(8, 164, 222)" offset="1"/>
</linearGradient>
<linearGradient id="aa" x1="17.01" x2="19.01" y1="24.03" y2="24.03" gradientUnits="userSpaceOnUse">
<stop stop-color="rgb(40, 64, 146)" offset="0"/>
<stop stop-color="rgb(8, 164, 222)" offset="1"/>
</linearGradient>
<linearGradient id="z" x1="19.02" x2="23.02" y1="28.06" y2="28.06" gradientUnits="userSpaceOnUse">
<stop stop-color="rgb(40, 64, 146)" offset="0"/>
<stop stop-color="rgb(8, 164, 222)" offset="1"/>
</linearGradient>
</defs>
</svg>
