<?xml version="1.0" encoding="UTF-8"?>
<!-- generated by Finnhub -->
<svg viewBox="0 0 55.5 55.5" xmlns="http://www.w3.org/2000/svg">
<path d="M 0,0 H 55.5 V 55.5 H 0 Z" fill="rgb(239, 242, 248)"/>
<path d="M 40.81,16.825 L 40.72,16.95 A 0.53,0.53 0 0,1 40.59,17.05 C 38.49,18.3 36.42,20.05 35.33,22.31 C 35.18,22.63 35.1,23.31 35.2,23.57 C 35.59,24.61 35.85,25.68 35.97,26.8 C 32,24.62 28.41,21.62 23.57,22.62 C 23.48,22.63 23.48,22.65 23.57,22.66 C 25.85,22.94 28,23.66 30,24.81 C 30.06,24.84 30.07,24.89 30.04,24.95 L 26.3,31.43 A 36.45,36.45 0 0,0 15.3,30.58 L 15,30.48 V 21.4 H 15.12 C 15.16,21.4 15.19,21.42 15.22,21.44 A 21.3,21.3 0 0,0 18.39,23.49 C 18.87,23.74 19.31,23.67 19.72,23.29 C 19.76,23.24 19.76,23.2 19.72,23.16 L 17.99,21.49 C 17.93,21.44 17.94,21.4 18.01,21.37 C 18.69,21.08 19.3,20.7 19.85,20.21 C 20.81,19.36 21.56,20.19 22.62,20.28 C 23.25,20.34 23.86,19.83 24.37,19.48 A 0.32,0.32 0 0,1 24.84,19.62 L 24.99,19.94 C 25.02,20 25.07,20.04 25.13,20.06 L 25.83,20.26 C 25.92,20.28 25.97,20.25 25.98,20.16 C 26.28,17.6 27.19,17.06 29.28,16.02 C 29.91,15.71 30.14,15.28 30.2,14.62 C 30.2,14.56 30.23,14.51 30.27,14.46 C 30.85,13.84 31.36,15.26 32.03,15.32 C 32.62,15.36 33.31,14.94 33.73,14.57 C 33.78,14.52 33.78,14.47 33.73,14.41 L 32.08,12.88 L 32.07,12.85 A 0.05,0.05 0 0,1 32.09,12.79 H 32.13 L 33.07,12.91 A 0.07,0.07 0 0,0 33.15,12.81 A 5.25,5.25 0 0,1 32.69,11.37 C 32.44,9.85 30.28,11.6 29.49,9.82 C 29.27,9.28 29.01,8.92 28.73,8.7 C 28.87,8.44 29.06,8.22 29.3,8.04 C 29.35,7.99 29.4,8 29.43,8.06 C 29.88,8.86 30.33,9.45 30.79,9.81 C 31.49,10.38 32.69,10.75 33.37,11.3 C 33.91,11.74 34.29,12.29 34.53,12.94 C 35.33,15.2 38.39,16.39 40.56,16.73 C 40.66,16.74 40.74,16.79 40.82,16.85 Z" fill="rgb(141, 158, 186)"/>
<path d="M 28.72,8.674999999999999 C 29.01,8.9 29.27,9.27 29.5,9.81 C 30.28,11.59 32.44,9.84 32.7,11.36 A 5.25,5.25 0 0,0 33.15,12.84 A 0.07,0.07 0 0,1 33.11,12.9 H 33.07 L 32.13,12.78 H 32.09 A 0.06,0.06 0 0,0 32.09,12.88 L 33.72,14.4 C 33.78,14.45 33.78,14.5 33.72,14.56 C 33.32,14.93 32.62,15.36 32.02,15.31 C 31.36,15.25 30.85,13.83 30.27,14.45 A 0.25,0.25 0 0,0 30.2,14.61 C 30.14,15.27 29.91,15.7 29.27,16.01 C 27.19,17.04 26.28,17.59 25.97,20.15 C 25.97,20.24 25.92,20.27 25.84,20.25 L 25.13,20.05 A 0.21,0.21 0 0,1 24.99,19.93 L 24.84,19.61 A 0.32,0.32 0 0,0 24.37,19.48 C 23.86,19.82 23.25,20.33 22.62,20.28 C 21.56,20.18 20.82,19.35 19.85,20.2 C 19.3,20.69 18.69,21.07 18.01,21.36 C 17.94,21.39 17.93,21.43 17.99,21.48 L 19.72,23.15 C 19.76,23.19 19.76,23.23 19.72,23.28 C 19.31,23.66 18.87,23.73 18.39,23.48 A 21.3,21.3 0 0,1 15.22,21.43 A 0.16,0.16 0 0,0 15.12,21.39 H 15 V 20.59 C 15,20.53 15.08,20.49 15.14,20.46 C 16.3,19.98 17.82,19.16 18.45,18.03 C 19.19,16.73 20.02,15.15 21.62,14.94 C 23.43,14.71 24.28,14.69 25.27,13.13 C 26.27,11.53 27.43,10.05 28.73,8.69 Z" fill="rgb(170, 191, 220)"/>
<path d="M 40.82,39.955 V 39.92 A 0.07,0.07 0 0,0 40.78,39.87 L 26.87,34.83 A 0.06,0.06 0 0,1 26.84,34.74 L 28.55,31.94 C 29.67,32.01 31.05,32.25 31.65,31.04 C 31.98,30.36 31.88,28.96 33.01,29.04 A 2.8,2.8 0 0,0 35.03,28.48 L 35.72,28.77 C 35.79,28.8 35.83,28.78 35.87,28.72 L 36.57,27.3 C 36.59,27.24 36.58,27.2 36.53,27.16 L 35.97,26.8 A 13.1,13.1 0 0,0 35.2,23.57 C 35.1,23.3 35.18,22.63 35.33,22.31 C 36.42,20.04 38.5,18.31 40.6,17.05 A 0.53,0.53 0 0,0 40.72,16.95 L 40.82,16.85 A 0.13,0.13 0 0,1 40.91,16.81 C 40.97,16.81 41.01,16.84 41.01,16.91 V 39.81 C 41.01,39.88 40.97,39.93 40.91,39.95 L 40.83,39.97 Z" fill="rgb(75, 85, 105)"/>
<path d="M 35.96,26.785 L 36.53,27.16 C 36.58,27.2 36.59,27.24 36.57,27.3 L 35.87,28.72 C 35.83,28.78 35.78,28.8 35.72,28.77 L 35.02,28.47 L 31.72,26.77 C 31.67,26.74 31.63,26.76 31.6,26.81 L 28.55,31.95 L 26.84,34.75 A 0.06,0.06 0 0,0 26.84,34.79 A 0.06,0.06 0 0,0 26.87,34.83 L 40.77,39.87 C 40.8,39.87 40.81,39.9 40.82,39.92 V 39.97 L 28.06,46.97 A 0.18,0.18 0 0,1 27.88,46.97 L 15.12,39.93 C 15.07,39.9 15,39.86 15,39.79 V 30.46 L 24.71,34.06 C 24.77,34.08 24.81,34.06 24.85,34.01 L 26.3,31.43 L 30.04,24.95 C 30.07,24.89 30.06,24.85 30,24.81 C 28,23.66 25.85,22.94 23.56,22.66 C 23.48,22.65 23.48,22.63 23.56,22.62 C 28.41,21.62 32,24.62 35.96,26.8 Z" fill="rgb(44, 49, 61)"/>
<path d="M 35.02,28.465 A 2.8,2.8 0 0,1 33.01,29.05 C 31.88,28.95 31.98,30.36 31.65,31.05 C 31.05,32.25 29.67,32.01 28.55,31.95 L 31.6,26.81 C 31.63,26.76 31.67,26.74 31.73,26.77 L 35.03,28.47 Z" fill="rgb(141, 158, 186)"/>
<path d="M 26.29,31.415 L 24.85,34.01 C 24.82,34.07 24.77,34.08 24.71,34.06 L 15.81,30.83 A 4.3,4.3 0 0,1 15.31,30.58 C 19,30.3 22.66,30.58 26.3,31.43 Z" fill="rgb(75, 85, 105)"/>
</svg>
