<?xml version="1.0" encoding="UTF-8"?>
<!-- generated by Finnhub -->
<svg viewBox="0 0 55.5 55.5" xmlns="http://www.w3.org/2000/svg">
<path d="M 0,0 H 55.5 V 55.5 H 0 Z" fill="rgb(239, 242, 248)"/>
<path d="M 27.4,43.985 C 36.51,44 43.89,36.84 43.89,28 S 36.5,12 27.4,12 C 18.31,12 11,19.16 11,28 C 11,36.84 18.31,44 27.41,44 Z M 27.5,42 C 35.5,42 42,35.73 42,28 S 35.5,14 27.5,14 S 13,20.27 13,28 C 13,35.73 19.5,42 27.5,42 Z" fill="rgb(139, 190, 75)" fill-rule="evenodd"/>
<path d="M 46.99,20.505 C 47,14.92 40.55,11.18 37.32,10 C 42.63,14.49 44,18.75 44,21.76 C 44,31.27 36.67,34.86 35,36 C 42.81,33.4 47,27.5 47,20.52 Z M 39.9,39 C 44.4,39 45.23,33.82 44.95,33 C 43.67,36.84 41.15,38 38.82,38 A 8.57,8.57 0 0,1 35,37.02 C 35,37.3 37.72,39 39.9,39 Z" fill="rgb(3, 86, 180)"/>
<path d="M 25.97,18.985 H 28 L 24.02,35 H 22 L 25.98,19 Z" fill="rgb(139, 190, 75)"/>
<path d="M 30.97,18.985 H 33 L 29.02,35 H 27 L 30.98,19 Z M 27,26 H 28.5 L 28,28 H 26.5 L 27,26 Z M 32.5,26 H 34 L 33.5,28 H 32 L 32.5,26 Z M 36.04,19 H 38 L 34.14,35 H 32.18 L 36.04,19 Z" fill="rgb(3, 86, 180)"/>
<path d="M 36.54,24.985 H 34.6 L 36.05,19 H 38 L 36.55,25 Z M 21.57,19 H 23.71 L 22.91,22 H 20.78 L 21.57,19 Z M 20.25,24 H 22.39 L 21.34,28 H 19.2 L 20.25,24 Z M 18.67,30 L 17.35,35 H 19.49 L 20.81,30 H 18.67 Z" fill="rgb(139, 190, 75)"/>
</svg>
