<?xml version="1.0" encoding="UTF-8"?>
<!-- generated by Finnhub -->
<svg viewBox="0 0 55.5 55.5" xmlns="http://www.w3.org/2000/svg">
<path d="M 0,0 H 55.5 V 55.5 H 0 Z" fill="rgb(239, 242, 248)"/>
<path d="M 25.41,13.385 C 25.11,13.62 24.37,14.23 23.81,14.76 L 22.76,15.71 L 22.02,17.76 L 21.3,19.8 L 18.55,20.98 C 13.62,23.12 13.05,23.38 13.01,23.64 C 12.97,23.84 13.14,23.79 14.05,23.38 C 15.81,22.58 21,20.42 21.03,20.46 C 21.04,20.49 19.33,25.36 17.2,31.32 C 13.44,41.87 12.5,44.86 13.84,41.94 C 14.67,40.14 20.22,27.48 22.09,23.12 A 46.01,46.01 0 0,1 23.82,19.37 C 24.07,19.17 28.44,17.65 30.09,17.19 C 31.77,16.74 33.31,16.59 33.52,16.87 C 33.94,17.4 32.24,19.63 28.12,23.95 A 39.74,39.74 0 0,0 25.28,27.1 C 25.34,27.31 25,27.61 24.8,27.53 C 24.54,27.43 24.21,27.73 24.37,27.93 C 24.55,28.17 24.2,28.58 23.85,28.53 C 23.58,28.5 23.53,28.55 23.57,28.86 C 23.61,29.26 23.3,29.66 23.14,29.39 C 23.07,29.29 22.99,29.29 22.86,29.41 C 22.72,29.53 22.72,29.61 22.82,29.75 C 23.03,30.01 22.72,30.43 22.48,30.22 C 22.28,30.04 22.12,30.4 22.3,30.59 C 22.48,30.79 22.3,31.19 22.06,31.09 C 21.89,31.02 21.89,31.05 22.01,31.29 C 22.21,31.69 22.91,31.81 23.93,31.59 C 24.82,31.42 25.17,31.53 25.17,31.96 C 25.17,32.21 23.82,32.36 23.23,32.18 C 22.67,31.98 22.53,32.05 22.97,32.32 C 23.15,32.42 23.69,32.5 24.4,32.48 H 25.52 L 26.67,34.19 C 27.29,35.13 27.78,35.94 27.74,35.97 C 27.64,36.08 26.32,35.6 25.6,35.17 C 25.22,34.95 24.9,34.8 24.9,34.84 C 24.9,35.04 26.57,36.01 27.33,36.24 C 27.98,36.42 28.28,36.59 28.47,36.87 C 28.7,37.2 28.7,37.25 28.51,37.25 A 8.7,8.7 0 0,1 26.21,36.14 C 26,35.98 25.79,35.87 25.76,35.9 A 3,3 0 0,0 26.53,36.54 C 28.7,38.02 32.45,39.02 37.18,39.34 C 39.21,39.46 43,39.4 43,39.24 A 4528.9,4528.9 0 0,1 37.8,26.64 A 49.58,49.58 0 0,0 36.6,23.85 C 36.55,23.81 35.95,24.19 35.27,24.73 A 58.55,58.55 0 0,1 27.95,29.63 C 26.04,30.65 25.7,30.77 25.7,30.45 C 25.7,30.19 25.97,29.95 26.25,29.95 C 26.38,29.95 26.52,29.83 26.56,29.7 C 26.69,29.24 26.84,29.05 27.05,29.05 C 27.25,29.05 32.3,24.5 35.13,21.75 C 36.98,19.96 38.84,17.8 39.21,17.02 C 39.58,16.24 39.51,15.51 39.04,15.15 C 37.89,14.25 33.38,15.19 26.39,17.81 C 25.19,18.27 24.15,18.64 24.09,18.64 C 24.03,18.64 24.07,18.47 24.17,18.25 C 24.5,17.59 26.22,13.29 26.22,13.14 C 26.22,12.9 26.05,12.96 25.42,13.4 Z M 29.39,24.8 C 29.9,25.33 30.03,25.67 29.72,25.67 C 29.47,25.67 28.54,24.61 28.63,24.44 C 28.78,24.21 28.85,24.25 29.39,24.8 Z M 36.37,25.48 C 36.62,25.73 36.76,26.28 36.67,26.55 C 36.59,26.75 35.27,27.6 35.02,27.6 C 34.81,27.6 34.42,26.7 34.52,26.46 C 34.6,26.25 35.88,25.26 36.08,25.26 C 36.12,25.26 36.26,25.36 36.37,25.48 Z M 28.5,26.9 C 28.32,27.09 28.24,27.05 27.76,26.54 C 27.28,26.04 27.23,25.94 27.39,25.74 C 27.55,25.54 27.63,25.57 28.14,26.11 C 28.64,26.64 28.67,26.71 28.5,26.9 Z M 27.1,27.23 C 27.64,27.81 27.65,27.83 27.42,28.06 C 27.19,28.28 27.14,28.25 26.6,27.66 C 26.12,27.16 26.07,27.04 26.21,26.84 C 26.45,26.55 26.49,26.57 27.11,27.23 Z M 33.72,27.73 C 34.02,28.25 33.92,28.43 33.11,28.87 L 32.58,29.14 L 32.28,28.79 A 1.3,1.3 0 0,1 31.98,28.21 C 31.98,27.99 33.13,27.16 33.35,27.23 C 33.42,27.26 33.59,27.48 33.72,27.73 Z M 26.52,28.98 L 26.26,29.25 L 25.69,28.63 C 25.12,28.03 25.12,28.01 25.36,27.73 L 25.61,27.45 L 26.2,28.07 L 26.8,28.7 L 26.52,28.98 Z M 37.65,28.52 C 38.25,29.9 39.85,33.65 40.24,34.6 C 40.5,35.24 40.51,35.36 40.36,35.51 C 40.2,35.68 39.33,35.85 36.09,36.37 C 35.82,36.41 35.62,36.36 35.5,36.2 A 75.96,75.96 0 0,1 32.45,30.05 C 32.48,30.01 33.18,29.59 34.02,29.13 A 59.6,59.6 0 0,0 36.15,27.88 C 36.49,27.66 36.85,27.46 36.97,27.46 C 37.1,27.46 37.35,27.85 37.65,28.52 Z M 25.4,29.02 L 25.95,29.62 L 25.65,29.92 L 25.35,30.22 L 24.77,29.6 C 24.2,29 24.2,28.98 24.44,28.7 C 24.57,28.55 24.72,28.43 24.75,28.43 C 24.81,28.43 25.1,28.69 25.4,29.03 Z M 31.37,28.87 C 31.69,29.32 31.62,29.64 31.19,29.87 C 30.67,30.15 30.46,30.14 30.22,29.77 C 29.91,29.32 29.96,29.14 30.51,28.86 C 31.13,28.51 31.14,28.51 31.37,28.86 Z M 24.95,30.74 C 24.7,31.16 24.45,31.08 23.93,30.43 C 23.44,29.81 23.44,29.78 23.67,29.52 C 23.9,29.24 23.9,29.25 24.49,29.88 C 24.99,30.38 25.07,30.54 24.95,30.74 Z M 29.54,29.84 C 29.87,30.32 29.8,30.59 29.33,30.76 C 28.95,30.91 28.87,30.88 28.67,30.62 C 28.35,30.21 28.39,29.99 28.81,29.75 C 29.28,29.48 29.31,29.48 29.54,29.83 Z M 23.85,31.35 C 23.59,31.45 23.47,31.39 23.15,31.07 C 22.81,30.72 22.79,30.63 22.93,30.34 L 23.1,30.03 L 23.63,30.63 L 24.16,31.23 L 23.85,31.35 Z M 28.05,30.52 C 28.39,30.92 28.37,31.1 27.98,31.3 C 27.7,31.43 27.61,31.42 27.39,31.19 C 27.25,31.03 27.13,30.83 27.13,30.73 C 27.13,30.58 27.43,30.33 27.74,30.23 C 27.76,30.22 27.89,30.36 28.04,30.53 Z M 32.87,33.47 A 22.8,22.8 0 0,1 34.27,36.44 C 34.18,36.59 31.45,36.6 31.24,36.45 A 54.43,54.43 0 0,1 28.45,31.68 L 29.49,31.28 C 30.02,31.08 30.56,30.84 30.67,30.78 C 31.24,30.38 31.37,30.54 32.87,33.48 Z M 26.93,31.13 C 27.18,31.53 27.05,31.73 26.56,31.73 C 26.24,31.73 25.96,31.07 26.22,30.9 C 26.52,30.7 26.69,30.74 26.93,31.13 Z M 22.93,31.25 C 23.03,31.38 23.06,31.5 23.03,31.55 C 22.89,31.7 22.53,31.47 22.53,31.25 C 22.53,30.99 22.73,30.99 22.93,31.25 Z M 25.95,31.46 C 26.1,31.78 26.03,32.01 25.76,32.01 C 25.53,32.01 25.12,31.51 25.23,31.34 C 25.37,31.09 25.8,31.17 25.95,31.46 Z M 28.96,33.9 C 29.58,34.94 30.16,35.93 30.25,36.12 L 30.43,36.47 L 29.53,36.36 A 6.67,6.67 0 0,1 28.5,36.19 A 34.4,34.4 0 0,1 25.96,32.37 C 26.08,32.27 27.6,31.93 27.72,31.97 C 27.8,32 28.35,32.87 28.96,33.9 Z M 29.49,37.09 C 29.8,37.5 29.81,37.67 29.54,37.67 C 29.29,37.67 28.54,36.87 28.64,36.7 C 28.75,36.5 29.22,36.71 29.49,37.09 Z M 41.2,37 C 41.35,37.2 41.47,37.6 41.48,37.9 L 41.49,38.42 L 40.84,38.49 C 39.89,38.59 39.74,38.53 39.46,37.94 C 39.11,37.22 39.12,36.87 39.5,36.78 L 40.05,36.65 C 40.57,36.52 40.95,36.65 41.2,37 Z M 30.35,36.92 C 30.53,37 30.94,37.65 30.94,37.87 C 30.94,38.09 30.36,37.89 30.09,37.58 C 29.58,37 29.71,36.68 30.35,36.92 Z M 32,37.38 C 32.45,37.86 32.5,38.22 32.1,38.22 S 31.36,37.98 31.15,37.54 C 30.81,36.85 31.38,36.74 32,37.38 Z M 37.95,37.06 C 38.2,37.16 38.71,38.31 38.6,38.51 C 38.5,38.67 37.4,38.67 37.1,38.49 C 36.88,38.37 36.58,37.69 36.58,37.31 C 36.58,37.03 37.48,36.88 37.95,37.06 Z M 33.51,37.22 C 33.74,37.39 34.11,38.24 33.99,38.36 C 33.94,38.41 33.69,38.44 33.46,38.4 C 33.02,38.33 32.51,37.72 32.51,37.28 C 32.51,37.1 33.26,37.05 33.51,37.22 Z M 35.89,37.76 C 36.25,38.44 36.19,38.63 35.65,38.63 S 34.78,38.43 34.53,37.93 C 34.23,37.31 34.36,37.09 35.03,37.14 C 35.54,37.18 35.62,37.24 35.89,37.76 Z"/>
</svg>
