<?xml version="1.0" encoding="UTF-8"?>
<!-- generated by Finnhub -->
<svg viewBox="0 0 55.5 55.5" xmlns="http://www.w3.org/2000/svg">
<path d="M 0,0 H 55.5 V 55.5 H 0 Z" fill="rgb(1, 119, 190)"/>
<path d="M 31.99,25.985 H 29.5 V 23.12 A 9,9 0 0,1 36.95,31 H 33 V 34 H 36.78 A 9.01,9.01 0 0,1 29.5,40.88 V 37.44 L 28.05,36 L 26.5,37.44 V 40.88 A 9,9 0 0,1 26.5,23.12 V 26 H 24 V 29 H 32 V 26 Z M 26.5,43.9 A 12,12 0 0,1 16.17,34 H 13 V 31 H 16.04 A 12,12 0 0,1 26.5,20.1 V 14.4 L 24.33,18.03 L 22.1,16.73 L 26.47,9 H 29.5 V 20.1 A 12,12 0 0,1 39.96,31 H 43 V 34 H 39.83 A 12,12 0 0,1 29.5,43.9 V 47 H 26.5 V 43.9 Z M 26,31 H 23 V 34 H 26 V 31 Z M 26.35,31 H 29.35 V 34 H 26.35 V 31 Z M 32.69,31 H 29.69 V 34 H 32.69 V 31 Z" fill="rgb(254, 254, 253)" fill-rule="evenodd"/>
</svg>
