<?xml version="1.0" encoding="UTF-8"?>
<!-- generated by Finnhub -->
<svg viewBox="0 0 55.5 55.5" xmlns="http://www.w3.org/2000/svg">
<path d="M 0,0 H 55.5 V 55.5 H 0 Z" fill="rgb(239, 242, 248)"/>
<path d="M 10.99,28.215 C 11,19.24 17.78,11 28.37,11 C 37.84,11 45,18.82 45,27.85 C 45,36.85 38.17,45 27.8,45 C 18.6,45 11,37.6 11,28.23 Z M 28.16,43.13 C 37.8,43.13 42.93,36.51 42.93,28.69 C 42.93,19.95 36.36,12.66 27.83,12.66 C 18.33,12.66 13.07,19.86 13.07,27.86 A 15.2,15.2 0 0,0 28.17,43.13 Z" fill="rgb(235, 41, 56)"/>
<path d="M 37.99,31.515 C 37.28,31.97 36.37,32.25 35.38,32.25 C 32.95,32.25 30.8,30.54 30.8,26.76 C 30.8,23.06 32.91,21.43 34.89,21.43 C 35.79,21.43 36.33,21.63 36.82,22.11 C 37.2,22.51 37.47,22.98 37.77,23.5 C 37.85,23.58 38,23.58 38,23.42 V 20.68 A 7.18,7.18 0 0,0 34.89,20 C 31.54,20 29,22.43 29,26.88 C 29,31.46 31.73,34 35.04,34 C 36.06,34 37.13,33.8 38,33.28 V 31.53 Z" fill="rgb(235, 41, 56)"/>
<path d="M 31.009999999999998,36.985 L 23.84,27.48 C 25.36,27.19 27.53,26.37 27.53,24 C 27.53,21.7 25.68,20 22.99,20 H 17.15 A 0.1,0.1 0 0,0 17.05,20.07 V 20.13 L 17.06,20.21 L 17.92,22.08 C 17.96,22.16 18,22.25 18,22.41 V 34 H 20 V 21.17 C 20,21.08 20.04,21 20.13,21 H 22.4 C 24.12,21 25,22.41 25,24 C 25,25.74 24,26.61 21.98,26.61 H 21.52 C 21.44,26.61 21.39,26.66 21.39,26.71 C 21.39,26.78 21.42,26.86 21.48,26.94 C 23.7,30.26 26.13,33.46 28.58,36.63 C 28.78,36.88 28.95,37 29.28,37 H 31.02 Z" fill="rgb(235, 41, 56)"/>
</svg>
