<?xml version="1.0" encoding="UTF-8"?>
<!-- generated by Finnhub -->
<svg viewBox="0 0 55.5 55.5" xmlns="http://www.w3.org/2000/svg">
<path d="M 0,0 H 55.5 V 55.5 H 0 Z" fill="rgb(239, 242, 248)"/>
<path d="M 29.86,18.095 C 29.54,17.81 29.27,17.77 28.89,17.77 A 0.19,0.19 0 0,1 28.72,17.67 L 26.32,13.77 A 0.19,0.19 0 0,1 26.3,13.61 L 27.8,9.14 A 0.2,0.2 0 0,1 27.88,9.04 A 0.21,0.21 0 0,1 28.12,9.04 A 0.2,0.2 0 0,1 28.19,9.14 L 31.06,17.66 C 31.08,17.71 31.06,17.76 31,17.77 L 30.03,18.14 A 0.16,0.16 0 0,1 29.87,18.11 Z M 21.5,24 A 0.2,0.2 0 0,1 21.42,23.92 A 0.19,0.19 0 0,1 21.39,23.82 V 22.12 C 21.39,22.05 21.42,22.02 21.49,22.02 C 22.24,21.99 23.31,22.24 23.63,21.3 C 24.39,19.09 25.14,17.09 25.88,14.86 A 0.04,0.04 0 0,1 25.93,14.84 L 25.95,14.85 L 27.98,18.15 C 28.01,18.2 28.01,18.25 27.98,18.3 C 27.78,18.6 27.74,18.93 27.84,19.28 C 27.85,19.33 27.84,19.38 27.79,19.41 L 22.03,24.12 A 0.2,0.2 0 0,1 21.82,24.15 L 21.5,23.99 Z" fill="rgb(42, 56, 143)"/>
<path d="M 36.72,24.645 C 35.48,24.45 34.2,24.36 32.91,24.38 L 30.08,19.84 A 0.19,0.19 0 0,1 30.06,19.67 L 30.3,19.01 L 30.34,18.95 A 0.17,0.17 0 0,1 30.4,18.91 L 31.27,18.6 C 31.33,18.58 31.37,18.6 31.39,18.65 C 31.71,19.59 32.02,20.31 32.33,21.24 C 32.52,21.82 32.95,22 33.59,22 H 39.1 C 39.2,22 39.2,22.05 39.14,22.11 L 36.74,24.66 Z M 31.9,24.46 C 29.9,24.63 27.98,25.11 26.12,25.92 L 22.86,25.42 A 0.42,0.42 0 0,1 22.66,25.32 A 0.38,0.38 0 0,1 22.66,24.72 L 28.12,20.27 A 0.88,0.88 0 0,1 28.82,20.08 A 0.9,0.9 0 0,1 29.43,20.48 L 31.91,24.46 Z" fill="rgb(27, 116, 186)"/>
<path d="M 11.92,21.985 H 20.33 C 20.43,22 20.47,22.05 20.47,22.14 V 23.87 C 20.47,23.9 20.46,23.94 20.44,23.97 A 0.18,0.18 0 0,1 20.34,24.03 C 20.01,24.12 19.74,24.3 19.56,24.58 C 19.51,24.65 19.46,24.67 19.38,24.65 C 16.94,23.88 14.51,23.13 12.07,22.39 C 11.59,22.25 11.68,22 11.93,22 Z" fill="rgb(42, 56, 143)"/>
<path d="M 41.620000000000005,26.275 A 14.2,14.2 0 0,0 37.83,24.85 L 40.68,22.07 A 0.25,0.25 0 0,1 40.86,22 H 46.78 C 47,22 47,22.23 47,22.23 L 41.63,26.29 Z" fill="rgb(27, 116, 186)"/>
<path d="M 9.120000000000001,22.384999999999998 L 19.13,25.47 C 19.18,25.49 19.21,25.53 19.21,25.58 C 19.2,26 19.34,26.36 19.63,26.66 C 19.68,26.71 19.68,26.76 19.65,26.81 L 18.31,28.94 C 18.27,29 18.23,29.01 18.17,28.97 L 9.04,22.55 A 0.1,0.1 0 0,1 9,22.5 L 9.01,22.43 A 0.1,0.1 0 0,1 9.06,22.39 A 0.1,0.1 0 0,1 9.13,22.39 Z" fill="rgb(42, 56, 143)"/>
<path d="M 24.61,26.585 L 23.26,27.4 L 22.44,26.5 A 0.12,0.12 0 0,1 22.42,26.36 A 0.13,0.13 0 0,1 22.48,26.3 A 0.14,0.14 0 0,1 22.56,26.29 L 24.62,26.6 Z M 22.56,27.95 C 21.58,28.62 20.71,29.38 19.96,30.22 L 19.06,29.6 C 19.01,29.56 19,29.51 19.03,29.46 L 20.4,27.26 C 20.43,27.2 20.5,27.18 20.57,27.2 C 20.93,27.3 21.28,27.26 21.62,27.1 C 21.68,27.06 21.74,27.07 21.79,27.12 L 22.56,27.94 Z" fill="rgb(27, 116, 186)"/>
<path d="M 33.370000000000005,29.155 C 33.44,29.17 33.48,29.18 33.51,29.23 L 33.57,29.36 V 39.68 L 33.56,39.71 L 33.54,39.74 H 33.47 C 32.71,39.19 31.12,38.31 30.71,37.56 C 30.04,36.36 29.39,35.16 28.75,33.96 C 28.72,33.89 28.73,33.84 28.78,33.79 C 29.33,33.22 29.48,32.56 29.24,31.81 C 29.22,31.74 29.24,31.68 29.3,31.63 L 32.86,28.99 A 0.15,0.15 0 0,1 33.02,28.99 L 33.34,29.16 H 33.38 Z M 34.62,40.53 A 0.29,0.29 0 0,1 34.49,40.29 V 29.4 C 34.49,29.34 34.51,29.29 34.54,29.24 A 0.3,0.3 0 0,1 34.99,29.2 L 35.96,30.14 A 0.1,0.1 0 0,1 35.96,30.28 C 35.6,30.62 35.53,30.95 35.69,31.43 A 5626.86,5626.86 0 0,1 39.82,43.8 C 39.82,43.83 39.82,43.85 39.8,43.87 A 0.16,0.16 0 0,1 39.68,43.95 H 39.56 A 0.2,0.2 0 0,1 39.44,43.9 L 34.62,40.52 Z" fill="rgb(113, 208, 237)"/>
<path d="M 36.72,24.645 L 35.18,26.18 C 35.13,26.23 35.08,26.23 35.02,26.2 C 34.68,25.98 34.32,25.88 33.92,25.88 A 0.15,0.15 0 0,1 33.77,25.8 L 32.91,24.38 C 34.21,24.36 35.48,24.45 36.73,24.66 Z M 31.91,24.46 L 32.91,26.09 A 0.12,0.12 0 0,1 32.91,26.23 L 32.44,26.81 A 0.16,0.16 0 0,1 32.3,26.87 L 26.12,25.92 A 18.3,18.3 0 0,1 31.91,24.46 Z M 41.63,26.29 A 14.2,14.2 0 0,0 37.83,24.85 L 35.72,26.89 A 0.15,0.15 0 0,0 35.68,27.04 C 35.84,27.54 35.79,27.99 35.53,28.44 A 0.11,0.11 0 0,0 35.51,28.51 L 35.54,28.57 L 36.64,29.63 A 0.18,0.18 0 0,0 36.86,29.64 L 41.63,26.29 Z M 24.62,26.6 L 31.11,27.61 L 25.98,30.27 L 23.26,27.39 L 24.62,26.6 Z M 32.06,27.74 L 31.11,27.61 L 25.98,30.27 L 26.47,30.77 C 26.52,30.82 26.57,30.83 26.63,30.8 A 1.93,1.93 0 0,1 28.56,30.98 C 28.62,31.02 28.68,31.02 28.73,30.98 L 32.23,28.38 C 32.29,28.34 32.33,28.28 32.36,28.21 A 0.35,0.35 0 0,0 32.26,27.82 A 0.38,0.38 0 0,0 32.06,27.74 Z M 22.56,27.94 L 25.63,31.19 L 25.82,31.37 C 25.86,31.41 25.87,31.46 25.84,31.51 C 25.44,32.18 25.46,32.84 25.88,33.5 C 25.92,33.56 25.91,33.61 25.87,33.66 L 18.6,42.28 A 8.08,8.08 0 0,1 16.85,43.72 L 16.48,43.97 A 0.17,0.17 0 0,1 16.28,43.97 A 0.16,0.16 0 0,1 16.22,43.89 A 0.16,0.16 0 0,1 16.22,43.79 L 19.27,34.52 L 20.27,31.52 C 20.44,30.98 20.43,30.55 19.95,30.22 C 20.71,29.38 21.58,28.62 22.56,27.95 Z" fill="url(#a)"/>
<path d="M 27.09,34.275 H 27.84 C 27.9,34.29 27.95,34.31 27.98,34.37 L 29.14,36.55 C 29.15,36.56 29.16,36.59 29.15,36.61 C 29.15,36.63 29.13,36.65 29.12,36.66 A 0.09,0.09 0 0,1 29,36.63 C 28.33,35.82 27.69,36.09 26.92,36.63 A 947.9,947.9 0 0,1 21.22,40.62 L 21.2,40.61 V 40.56 L 26.46,34.3 C 26.59,34.15 26.76,34.13 26.95,34.24 C 27,34.27 27.05,34.29 27.11,34.29 Z" fill="rgb(113, 208, 237)"/>
<defs>
<linearGradient id="a" x1="28.3" x2="31.98" y1="25.28" y2="33.48" gradientUnits="userSpaceOnUse">
<stop stop-color="rgb(143, 186, 219)" offset="0"/>
<stop stop-color="rgb(55, 133, 194)" offset="1"/>
</linearGradient>
</defs>
</svg>
