<?xml version="1.0" encoding="UTF-8"?>
<!-- generated by Finnhub -->
<svg viewBox="0 0 55.5 55.5" xmlns="http://www.w3.org/2000/svg">
<path d="M 0,0 H 55.5 V 55.5 H 0 Z" fill="rgb(239, 242, 248)"/>
<path d="M 7.48,21.985 A 3.5,3.5 0 0,0 4,25.5 V 27.5 A 3.5,3.5 0 0,0 9.67,30.24 L 9.97,31 H 11 V 26 H 7 V 27.5 H 9 V 27.63 C 9,28.4 8.33,29 7.5,29 S 6,28.39 6,27.63 V 25.37 C 6,24.6 6.67,24 7.5,24 C 8.23,24 8.84,24.48 8.97,25.11 L 10.89,24.71 A 3.5,3.5 0 0,0 7.49,22 Z M 12,22 H 14 V 24 H 12 V 22 Z M 12,24.5 H 14 V 31 H 12 V 24.5 Z M 16,25.5 V 29.14 C 16.05,29.76 16.58,31 18.3,31 C 19.14,31 19.78,30.82 20,30.72 V 29.14 C 19.83,29.21 19.4,29.34 18.97,29.34 C 18.45,29.34 18,29.14 18,28.69 V 25.5 H 19 V 24 H 18 V 22 L 16,22.55 V 24 H 15 V 25.5 H 16 Z M 25.86,29 C 25.58,30.18 24.83,31 23,31 C 20.8,31 20,29.43 20,27.5 S 21.07,24 23,24 S 26,25.57 26,27.5 L 25.99,28 H 22 C 22.02,28.86 22.16,29.5 23,29.5 C 23.47,29.53 23.72,29.33 23.85,29 H 25.85 Z M 23,25.5 C 23.6,25.5 23.85,25.9 23.94,26.5 H 22.04 C 22.11,25.9 22.33,25.5 23,25.5 Z M 28.5,24 H 26.5 V 31 H 28.5 V 26.52 C 28.64,26.15 29.25,25.5 29.91,25.5 C 30.49,25.5 30.5,26 30.5,26.38 V 31 H 32.5 V 26.12 C 32.5,24.9 31.99,24 30.62,24 C 29.52,24 28.75,24.53 28.5,25 V 24 Z M 33,24 H 35 V 25.02 A 2.68,2.68 0 0,1 36.99,24 C 38.46,24 39,24.9 39,26.12 V 31 H 37 V 26.52 C 36.99,26.15 36.94,25.4 36.23,25.4 C 35.65,25.4 35.22,25.92 35,26.3 V 31 H 33 V 24 Z M 47.7,28.71 L 46,29.06 L 46.02,29.1 C 46.34,29.82 46.87,31 49,31 C 50.38,31 52,30.43 52,28.71 C 52,27 49.99,26.49 48.92,26.49 C 47.86,26.49 47.86,26.14 47.86,25.91 C 47.86,25.68 48.12,25.31 49,25.31 C 49.7,25.31 50.11,25.72 50.32,26.04 L 51.71,25.62 A 3.02,3.02 0 0,0 48.92,24 C 47.97,24 46.19,24.53 46.19,26.04 C 46.19,27.54 47.74,28.18 48.82,28.23 C 49.91,28.27 50.24,28.71 50.24,29.06 C 50.24,29.4 49.87,29.65 48.92,29.65 C 48.16,29.65 47.79,29.03 47.7,28.71 Z M 45.43,29 C 45.15,30.18 44.4,31 42.57,31 C 40.37,31 39.57,29.43 39.57,27.5 S 40.64,24 42.57,24 C 44.51,24 45.57,25.57 45.57,27.5 L 45.56,28 H 41.57 C 41.6,28.86 41.73,29.5 42.57,29.5 C 43.04,29.53 43.29,29.33 43.42,29 H 45.43 Z M 42.57,25.5 C 43.17,25.5 43.42,25.9 43.52,26.5 H 41.6 C 41.67,25.9 41.9,25.5 42.56,25.5 Z" fill="rgb(1, 78, 176)" fill-rule="evenodd"/>
</svg>
