<?xml version="1.0" encoding="UTF-8"?>
<!-- generated by Finnhub -->
<svg viewBox="0 0 55.5 55.5" xmlns="http://www.w3.org/2000/svg">
<path d="M 0,28 A 28,28 0 1,1 56,28 A 28,28 0 1,1 0,28 Z" fill="url(#a)"/>
<path d="M 21.959999999999997,25.985 H 21.04 L 19.86,24.1 H 19.5 V 25.31 C 19.5,25.56 19.52,25.71 19.57,25.77 C 19.64,25.86 19.73,25.9 19.87,25.9 H 20 V 26 H 18.5 V 25.9 H 18.63 C 18.78,25.9 18.88,25.85 18.95,25.74 C 18.98,25.68 18.99,25.54 18.99,25.31 V 22.7 C 18.99,22.45 18.98,22.3 18.93,22.24 C 18.86,22.15 18.76,22.11 18.63,22.11 H 18.5 V 22 H 19.77 C 20.13,22 20.41,22.03 20.58,22.1 C 20.76,22.15 20.9,22.27 21.03,22.43 C 21.15,22.59 21.21,22.79 21.21,23.01 C 21.21,23.25 21.14,23.46 21,23.64 C 20.86,23.82 20.65,23.94 20.35,24.02 L 21.07,25.22 C 21.24,25.48 21.37,25.65 21.49,25.74 C 21.61,25.82 21.77,25.88 21.96,25.9 V 26 Z M 19.5,23.91 H 19.64 C 19.97,23.91 20.22,23.83 20.39,23.67 A 0.82,0.82 0 0,0 20.64,23.05 A 0.86,0.86 0 0,0 20.44,22.45 A 0.68,0.68 0 0,0 19.9,22.22 A 2,2 0 0,0 19.5,22.28 V 23.91 Z M 23.27,22.21 V 23.8 H 24.03 C 24.23,23.8 24.36,23.76 24.43,23.7 C 24.51,23.6 24.56,23.45 24.57,23.22 H 24.67 V 24.59 H 24.57 C 24.55,24.4 24.53,24.28 24.5,24.22 A 0.34,0.34 0 0,0 24.35,24.07 A 0.68,0.68 0 0,0 24.03,24 H 23.26 V 25.34 C 23.26,25.52 23.27,25.62 23.29,25.66 C 23.29,25.7 23.32,25.73 23.36,25.76 C 23.39,25.77 23.46,25.79 23.56,25.79 H 24.14 C 24.34,25.79 24.48,25.77 24.57,25.74 C 24.66,25.71 24.74,25.64 24.82,25.56 C 24.93,25.44 25.04,25.26 25.15,25.01 H 25.25 L 24.95,26 H 22.28 V 25.9 H 22.4 C 22.48,25.9 22.56,25.87 22.63,25.83 C 22.69,25.79 22.73,25.75 22.74,25.69 C 22.76,25.62 22.77,25.49 22.77,25.31 V 22.69 C 22.77,22.44 22.75,22.29 22.71,22.22 C 22.65,22.15 22.54,22.11 22.4,22.11 H 22.28 V 22 H 25 V 22.86 H 24.9 C 24.86,22.66 24.82,22.51 24.77,22.44 A 0.42,0.42 0 0,0 24.57,22.26 A 1.03,1.03 0 0,0 24.22,22.21 H 23.27 Z M 27,26 V 25.9 H 26.87 A 0.43,0.43 0 0,1 26.63,25.82 A 0.25,0.25 0 0,1 26.53,25.7 C 26.5,25.63 26.49,25.5 26.49,25.3 V 22.7 C 26.49,22.46 26.51,22.31 26.56,22.25 C 26.62,22.15 26.72,22.11 26.86,22.11 H 27 V 22 H 25.5 V 22.1 H 25.63 C 25.71,22.1 25.79,22.13 25.86,22.18 C 25.92,22.21 25.95,22.25 25.96,22.3 C 25.99,22.37 26,22.5 26,22.7 V 25.3 C 26,25.54 25.98,25.69 25.94,25.75 C 25.87,25.85 25.77,25.89 25.63,25.89 H 25.5 V 26 H 27 Z M 27.12,22 H 28.06 L 30.18,25.02 V 22.68 C 30.18,22.44 30.16,22.28 30.11,22.23 C 30.05,22.15 29.95,22.11 29.81,22.11 H 29.69 V 22 H 30.89 V 22.1 H 30.78 C 30.63,22.1 30.53,22.16 30.46,22.26 C 30.43,22.32 30.41,22.46 30.41,22.68 V 26 H 30.31 L 28,22.83 V 25.32 C 28,25.56 28.05,25.72 28.1,25.77 C 28.16,25.85 28.26,25.89 28.4,25.89 H 28.52 V 26 H 27.3 V 25.9 H 27.42 C 27.57,25.9 27.67,25.84 27.73,25.74 C 27.77,25.68 27.79,25.54 27.79,25.32 V 22.52 C 27.69,22.38 27.61,22.3 27.56,22.25 A 0.78,0.78 0 0,0 27.33,22.13 A 0.73,0.73 0 0,0 27.11,22.11 V 22 Z M 32.15,23.8 V 22.2 H 33.1 C 33.28,22.2 33.4,22.22 33.47,22.25 C 33.55,22.29 33.61,22.35 33.66,22.43 C 33.7,22.5 33.74,22.65 33.78,22.85 H 33.88 L 33.84,21.99 H 31.16 V 22.09 H 31.29 C 31.43,22.09 31.53,22.14 31.59,22.21 C 31.64,22.27 31.66,22.43 31.66,22.68 V 25.3 C 31.66,25.49 31.65,25.61 31.63,25.68 A 0.23,0.23 0 0,1 31.52,25.82 A 0.44,0.44 0 0,1 31.29,25.88 H 31.16 V 26 H 33.84 L 34.14,25.01 H 34.04 C 33.93,25.25 33.82,25.44 33.71,25.56 A 0.63,0.63 0 0,1 33.45,25.74 C 33.37,25.77 33.22,25.79 33.03,25.79 H 32.43 C 32.34,25.79 32.28,25.77 32.24,25.75 A 0.18,0.18 0 0,1 32.17,25.66 A 1.38,1.38 0 0,1 32.15,25.34 V 24 H 32.91 C 33.06,24 33.17,24.03 33.24,24.07 C 33.31,24.1 33.36,24.16 33.39,24.23 C 33.41,24.28 33.44,24.4 33.46,24.59 H 33.56 V 23.22 H 33.46 C 33.45,23.45 33.4,23.61 33.31,23.69 C 33.24,23.76 33.11,23.79 32.91,23.79 H 32.15 Z M 37.38,22 L 37.41,22.92 H 37.31 A 1.23,1.23 0 0,0 37.24,22.57 A 0.54,0.54 0 0,0 37.03,22.33 A 0.65,0.65 0 0,0 36.68,22.25 H 36.19 V 25.32 C 36.19,25.56 36.22,25.72 36.26,25.77 C 36.33,25.85 36.43,25.89 36.56,25.89 H 36.68 V 26 H 35.21 V 25.9 H 35.33 C 35.48,25.9 35.58,25.84 35.64,25.74 C 35.68,25.68 35.7,25.54 35.7,25.32 V 22.25 H 35.28 C 35.12,22.25 35.01,22.26 34.94,22.29 A 0.5,0.5 0 0,0 34.71,22.49 C 34.65,22.6 34.61,22.75 34.6,22.92 H 34.5 L 34.54,22 H 37.38 Z M 43.86,28 V 29 H 43.79 A 1.29,1.29 0 0,0 43.66,28.54 A 0.68,0.68 0 0,0 43.4,28.27 A 0.68,0.68 0 0,0 43.05,28.17 A 0.46,0.46 0 0,0 42.71,28.3 A 0.42,0.42 0 0,0 42.58,28.6 C 42.58,28.7 42.6,28.78 42.66,28.85 C 42.74,28.95 42.94,29.1 43.24,29.27 L 43.75,29.6 A 0.77,0.77 0 0,1 44.04,30.2 A 0.82,0.82 0 0,1 43.2,31 A 1.2,1.2 0 0,1 42.72,30.9 L 42.48,30.84 A 0.1,0.1 0 0,0 42.4,30.87 C 42.38,30.89 42.37,30.93 42.36,31 H 42.29 V 30.02 H 42.36 C 42.4,30.22 42.44,30.38 42.5,30.48 C 42.56,30.58 42.65,30.67 42.76,30.73 C 42.88,30.8 43.01,30.83 43.16,30.83 C 43.32,30.83 43.45,30.79 43.54,30.7 A 0.44,0.44 0 0,0 43.64,30.15 A 0.61,0.61 0 0,0 43.46,29.95 L 43.05,29.68 A 4.2,4.2 0 0,1 42.55,29.35 A 0.88,0.88 0 0,1 42.34,29.08 A 0.71,0.71 0 0,1 42.26,28.76 A 0.75,0.75 0 0,1 43.04,28 C 43.19,28 43.34,28.04 43.5,28.11 C 43.57,28.15 43.62,28.16 43.65,28.16 C 43.69,28.16 43.71,28.16 43.73,28.13 C 43.76,28.11 43.77,28.07 43.79,28 H 43.86 Z M 44.64,30.52 A 0.2,0.2 0 0,1 44.8,30.59 C 44.84,30.64 44.86,30.69 44.86,30.76 C 44.86,30.82 44.84,30.88 44.79,30.93 A 0.2,0.2 0 0,1 44.64,30.99 A 0.2,0.2 0 0,1 44.48,30.93 A 0.24,0.24 0 0,1 44.42,30.76 C 44.42,30.69 44.44,30.64 44.48,30.59 A 0.2,0.2 0 0,1 44.64,30.52 Z M 47.51,28.98 L 47.45,28 H 47.38 A 0.34,0.34 0 0,1 47.31,28.16 A 0.13,0.13 0 0,1 47.21,28.2 A 0.3,0.3 0 0,1 47.1,28.15 C 46.91,28.05 46.72,28 46.53,28 C 46.28,28 46.05,28.07 45.84,28.2 C 45.64,28.33 45.47,28.52 45.34,28.76 C 45.23,29 45.17,29.26 45.17,29.54 C 45.17,29.9 45.26,30.21 45.44,30.47 C 45.68,30.82 46.03,31 46.47,31 C 46.72,31 46.93,30.94 47.11,30.82 C 47.28,30.7 47.44,30.52 47.58,30.26 L 47.51,30.22 C 47.36,30.46 47.21,30.62 47.08,30.7 A 0.88,0.88 0 0,1 46.62,30.81 A 0.92,0.92 0 0,1 45.74,30.22 A 2.21,2.21 0 0,1 45.74,28.76 C 45.82,28.55 45.94,28.39 46.08,28.3 C 46.22,28.2 46.38,28.15 46.56,28.15 C 46.77,28.15 46.96,28.22 47.1,28.35 C 47.26,28.47 47.37,28.68 47.45,28.98 H 47.51 Z M 48.1,30.52 A 0.2,0.2 0 0,1 48.25,30.59 C 48.3,30.64 48.32,30.69 48.32,30.76 C 48.32,30.82 48.3,30.88 48.25,30.93 A 0.2,0.2 0 0,1 48.1,30.99 A 0.2,0.2 0 0,1 47.94,30.93 A 0.24,0.24 0 0,1 47.88,30.76 C 47.88,30.69 47.9,30.64 47.94,30.59 A 0.2,0.2 0 0,1 48.1,30.52 Z M 49.3,30.03 H 50.33 L 50.49,30.45 C 50.54,30.58 50.57,30.68 50.57,30.74 C 50.57,30.79 50.55,30.83 50.51,30.86 C 50.47,30.89 50.41,30.91 50.3,30.92 V 31 H 51.35 V 30.92 A 0.4,0.4 0 0,1 51.09,30.82 A 1.14,1.14 0 0,1 50.89,30.45 L 49.96,28 H 49.89 L 48.95,30.42 C 48.87,30.62 48.8,30.77 48.73,30.83 C 48.7,30.87 48.63,30.89 48.51,30.92 V 31 H 49.35 V 30.92 C 49.23,30.91 49.15,30.88 49.1,30.85 A 0.15,0.15 0 0,1 49.05,30.74 C 49.05,30.68 49.07,30.6 49.11,30.49 L 49.29,30.03 Z M 49.82,28.66 L 50.27,29.88 H 49.35 L 49.82,28.66 Z M 51.78,30.52 A 0.2,0.2 0 0,1 51.94,30.59 C 51.98,30.64 52,30.69 52,30.76 C 52,30.82 51.98,30.88 51.94,30.93 A 0.2,0.2 0 0,1 51.78,30.99 A 0.2,0.2 0 0,1 51.63,30.93 A 0.24,0.24 0 0,1 51.56,30.76 C 51.56,30.69 51.58,30.64 51.63,30.59 A 0.2,0.2 0 0,1 51.78,30.52 Z M 5.5,30.9 V 31 H 4 V 30.9 H 4.12 C 4.27,30.9 4.37,30.86 4.44,30.76 C 4.48,30.7 4.5,30.56 4.5,30.33 V 27.68 C 4.5,27.48 4.49,27.35 4.47,27.29 A 0.25,0.25 0 0,0 4.36,27.17 A 0.45,0.45 0 0,0 4.12,27.1 H 4 V 27 H 5.5 V 27.1 H 5.37 C 5.23,27.1 5.12,27.15 5.06,27.24 C 5.01,27.3 5,27.44 5,27.68 V 30.33 C 5,30.53 5,30.65 5.03,30.71 C 5.04,30.76 5.08,30.8 5.13,30.83 C 5.21,30.88 5.29,30.9 5.37,30.9 H 5.5 Z M 5.63,27 H 6.64 L 8.78,30.04 V 27.66 C 8.78,27.43 8.75,27.28 8.71,27.22 C 8.64,27.14 8.54,27.1 8.41,27.1 H 8.28 V 27 H 9.5 V 27.1 H 9.38 C 9.23,27.1 9.12,27.15 9.06,27.25 C 9.02,27.31 9,27.45 9,27.66 V 31 H 8.91 L 6.61,27.8 V 30.34 C 6.61,30.57 6.63,30.72 6.68,30.78 C 6.75,30.86 6.85,30.9 6.98,30.9 H 7.11 V 31 H 5.89 V 30.9 H 6.01 C 6.16,30.9 6.27,30.85 6.33,30.75 C 6.37,30.69 6.38,30.55 6.38,30.34 V 27.5 C 6.28,27.37 6.21,27.29 6.15,27.24 A 0.8,0.8 0 0,0 5.92,27.13 A 1.3,1.3 0 0,0 5.63,27.1 V 27 Z M 13.33,27.1 V 27 H 12.26 V 27.1 L 12.3,27.11 C 12.42,27.13 12.5,27.17 12.55,27.21 C 12.6,27.27 12.63,27.31 12.63,27.37 C 12.63,27.46 12.59,27.61 12.51,27.83 L 11.68,30.13 L 10.8,27.8 C 10.72,27.6 10.68,27.45 10.68,27.36 C 10.68,27.29 10.7,27.24 10.75,27.19 C 10.8,27.15 10.9,27.12 11.06,27.1 V 27 H 9.64 V 27.1 C 9.74,27.11 9.83,27.13 9.89,27.17 C 9.95,27.2 10.01,27.25 10.05,27.3 C 10.08,27.34 10.12,27.44 10.19,27.61 L 11.49,31 H 11.59 L 12.81,27.66 C 12.88,27.46 12.96,27.33 13.05,27.23 C 13.12,27.17 13.21,27.13 13.33,27.1 Z M 14.5,27.2 V 28.8 H 15.27 C 15.47,28.8 15.6,28.76 15.67,28.7 C 15.76,28.6 15.8,28.45 15.82,28.24 H 15.91 V 29.57 H 15.81 C 15.79,29.38 15.77,29.27 15.74,29.21 A 0.34,0.34 0 0,0 15.59,29.05 A 0.71,0.71 0 0,0 15.27,29 H 14.5 V 30.36 C 14.5,30.53 14.5,30.64 14.52,30.67 C 14.53,30.71 14.56,30.74 14.59,30.76 C 14.63,30.78 14.69,30.79 14.79,30.79 H 15.38 C 15.58,30.79 15.72,30.78 15.81,30.75 A 0.64,0.64 0 0,0 16.07,30.57 C 16.17,30.45 16.28,30.27 16.39,30.04 H 16.49 L 16.19,31 H 13.51 V 30.9 H 13.63 C 13.71,30.9 13.79,30.87 13.86,30.83 C 13.92,30.8 13.96,30.76 13.98,30.7 C 14,30.64 14,30.51 14,30.33 V 27.66 C 14,27.42 13.98,27.27 13.94,27.22 C 13.88,27.14 13.77,27.1 13.63,27.1 H 13.51 V 27 H 16.2 L 16.23,27.84 H 16.13 C 16.1,27.64 16.06,27.5 16.01,27.42 A 0.41,0.41 0 0,0 15.82,27.25 A 1.07,1.07 0 0,0 15.46,27.21 H 14.5 Z M 19.2,28.32 V 27 H 19.1 C 19.08,27.09 19.06,27.15 19.03,27.18 A 0.14,0.14 0 0,1 18.93,27.22 A 0.57,0.57 0 0,1 18.72,27.15 C 18.52,27.05 18.32,27 18.13,27 C 17.83,27 17.59,27.1 17.4,27.3 C 17.2,27.5 17.1,27.73 17.1,28 C 17.1,28.16 17.14,28.31 17.2,28.44 C 17.27,28.57 17.37,28.69 17.5,28.8 C 17.62,28.91 17.83,29.06 18.13,29.24 C 18.43,29.43 18.61,29.54 18.68,29.6 C 18.78,29.68 18.85,29.77 18.9,29.87 A 0.6,0.6 0 0,1 18.78,30.6 A 0.68,0.68 0 0,1 18.28,30.78 A 1,1 0 0,1 17.42,30.31 A 2,2 0 0,1 17.24,29.69 H 17.14 V 31 H 17.24 C 17.25,30.91 17.27,30.85 17.29,30.83 A 0.13,0.13 0 0,1 17.39,30.78 C 17.44,30.78 17.55,30.81 17.71,30.88 L 18.04,30.98 L 18.33,31 A 1.06,1.06 0 0,0 19.05,29.14 C 18.94,29.04 18.71,28.89 18.39,28.7 C 17.99,28.46 17.74,28.27 17.63,28.13 A 0.51,0.51 0 0,1 17.52,27.81 C 17.52,27.66 17.58,27.52 17.69,27.41 A 0.59,0.59 0 0,1 18.14,27.23 C 18.29,27.23 18.44,27.27 18.59,27.36 C 18.74,27.45 18.85,27.56 18.93,27.72 C 19.01,27.87 19.07,28.07 19.1,28.32 H 19.2 Z M 22.68,27 L 22.72,27.9 H 22.62 A 1.17,1.17 0 0,0 22.55,27.56 A 0.53,0.53 0 0,0 22.33,27.32 A 0.67,0.67 0 0,0 21.99,27.24 H 21.49 V 30.34 C 21.49,30.57 21.52,30.72 21.56,30.78 C 21.63,30.86 21.73,30.9 21.86,30.9 H 22 V 31 H 20.5 V 30.9 H 20.63 C 20.78,30.9 20.88,30.85 20.94,30.75 C 20.98,30.69 21,30.55 21,30.34 V 27.24 H 20.58 C 20.42,27.24 20.3,27.25 20.23,27.28 A 0.49,0.49 0 0,0 20,27.48 A 0.9,0.9 0 0,0 19.89,27.9 H 19.79 L 19.83,27 H 22.68 Z M 23.72,27.6 L 25.07,31 H 25.16 L 26.5,27.6 V 30.34 C 26.5,30.55 26.48,30.69 26.45,30.74 C 26.39,30.84 26.28,30.9 26.13,30.9 H 26.01 V 31 H 27.49 V 30.9 H 27.37 C 27.23,30.9 27.13,30.86 27.07,30.78 C 27.02,30.72 27,30.58 27,30.34 V 27.66 C 27,27.45 27.02,27.31 27.05,27.26 C 27.12,27.16 27.22,27.1 27.37,27.1 H 27.49 V 27 H 26.5 L 25.26,30.17 L 23.99,27 H 23 V 27.1 C 23.14,27.1 23.25,27.12 23.31,27.16 A 0.3,0.3 0 0,1 23.45,27.3 C 23.48,27.37 23.5,27.5 23.5,27.66 V 30.34 C 23.5,30.55 23.48,30.69 23.44,30.74 C 23.38,30.84 23.27,30.9 23.13,30.9 H 23 V 31 H 24.22 V 30.9 H 24.09 C 23.96,30.9 23.86,30.86 23.79,30.78 C 23.75,30.72 23.72,30.58 23.72,30.34 V 27.6 Z M 29,27.2 V 28.8 H 29.77 C 29.97,28.8 30.1,28.76 30.17,28.7 C 30.26,28.61 30.31,28.46 30.32,28.24 H 30.42 V 29.57 H 30.32 C 30.3,29.39 30.27,29.27 30.25,29.21 A 0.34,0.34 0 0,0 30.1,29.06 A 0.71,0.71 0 0,0 29.77,29 H 29 V 30.36 C 29,30.53 29.01,30.64 29.02,30.67 C 29.04,30.71 29.06,30.74 29.1,30.76 C 29.13,30.78 29.2,30.79 29.3,30.79 H 29.88 C 30.08,30.79 30.22,30.78 30.31,30.75 A 0.64,0.64 0 0,0 30.57,30.57 C 30.67,30.45 30.79,30.27 30.9,30.04 H 31 L 30.7,31 H 28 V 30.9 H 28.13 C 28.22,30.9 28.29,30.87 28.37,30.83 C 28.42,30.8 28.46,30.76 28.47,30.7 C 28.5,30.64 28.51,30.51 28.51,30.33 V 27.67 C 28.51,27.42 28.49,27.27 28.44,27.22 C 28.38,27.14 28.28,27.1 28.14,27.1 H 28 V 27 H 30.7 L 30.74,27.84 H 30.64 C 30.6,27.64 30.56,27.5 30.52,27.42 A 0.41,0.41 0 0,0 30.32,27.25 A 1.07,1.07 0 0,0 29.96,27.21 H 29 Z M 32.04,27 H 31.09 V 27.1 C 31.19,27.1 31.27,27.11 31.32,27.13 C 31.42,27.17 31.5,27.2 31.55,27.25 C 31.6,27.29 31.68,27.37 31.78,27.5 V 30.34 C 31.78,30.55 31.76,30.69 31.72,30.74 C 31.66,30.84 31.56,30.9 31.41,30.9 H 31.29 V 31 H 32.5 V 30.9 H 32.38 C 32.24,30.9 32.14,30.86 32.08,30.78 C 32.03,30.72 32,30.58 32,30.34 V 27.8 L 34.3,31 H 34.4 V 27.66 C 34.4,27.45 34.42,27.31 34.46,27.26 C 34.52,27.16 34.62,27.1 34.77,27.1 H 34.89 V 27 H 33.68 V 27.1 H 33.8 C 33.94,27.1 34.04,27.14 34.1,27.22 C 34.15,27.28 34.17,27.42 34.17,27.66 V 30.04 L 32.04,27 Z M 38.19,27 L 38.23,27.9 H 38.13 A 1.17,1.17 0 0,0 38.05,27.56 A 0.53,0.53 0 0,0 37.85,27.32 A 0.67,0.67 0 0,0 37.49,27.24 H 37 V 30.34 C 37,30.57 37.02,30.72 37.07,30.78 C 37.14,30.86 37.24,30.9 37.37,30.9 H 37.49 V 31 H 36.01 V 30.9 H 36.14 C 36.28,30.9 36.39,30.85 36.45,30.75 C 36.49,30.69 36.51,30.55 36.51,30.34 V 27.24 H 36.09 C 35.93,27.24 35.81,27.25 35.74,27.28 A 0.49,0.49 0 0,0 35.51,27.48 A 0.9,0.9 0 0,0 35.4,27.9 H 35.3 L 35.34,27 H 38.19 Z M 40.77,28.32 V 27 H 40.67 C 40.66,27.09 40.63,27.15 40.6,27.18 A 0.14,0.14 0 0,1 40.5,27.22 A 0.57,0.57 0 0,1 40.3,27.15 C 40.08,27.05 39.89,27 39.7,27 C 39.4,27 39.16,27.1 38.97,27.3 C 38.77,27.5 38.68,27.73 38.68,28 C 38.68,28.16 38.71,28.31 38.78,28.44 C 38.84,28.57 38.94,28.69 39.06,28.8 C 39.19,28.91 39.4,29.06 39.7,29.24 C 40,29.43 40.18,29.54 40.25,29.6 C 40.35,29.68 40.42,29.77 40.47,29.87 A 0.6,0.6 0 0,1 40.35,30.6 A 0.68,0.68 0 0,1 39.85,30.78 A 1,1 0 0,1 38.99,30.31 A 2,2 0 0,1 38.81,29.69 H 38.71 V 31 H 38.81 C 38.82,30.91 38.84,30.85 38.86,30.83 A 0.13,0.13 0 0,1 38.96,30.78 C 39.01,30.78 39.12,30.81 39.28,30.88 L 39.62,30.98 L 39.9,31 A 1.06,1.06 0 0,0 40.63,29.14 C 40.51,29.04 40.29,28.89 39.96,28.7 C 39.56,28.46 39.31,28.27 39.2,28.13 A 0.51,0.51 0 0,1 39.09,27.81 C 39.09,27.66 39.15,27.52 39.27,27.41 A 0.6,0.6 0 0,1 39.71,27.23 C 39.87,27.23 40.01,27.27 40.17,27.36 C 40.31,27.45 40.43,27.56 40.51,27.72 C 40.59,27.87 40.64,28.07 40.67,28.32 H 40.77 Z" fill="rgb(254, 254, 253)"/>
<defs>
<linearGradient id="a" x2="56" y1="28" y2="28" gradientUnits="userSpaceOnUse">
<stop stop-color="rgb(168, 168, 167)" offset="0"/>
<stop stop-color="rgb(125, 125, 124)" offset="1"/>
</linearGradient>
</defs>
</svg>
