<?xml version="1.0" encoding="UTF-8"?>
<!-- generated by Finnhub -->
<svg viewBox="0 0 55.5 55.5" xmlns="http://www.w3.org/2000/svg">
<path d="M 0,0 H 55.5 V 55.5 H 0 Z" fill="rgb(239, 242, 248)"/>
<path d="M 31.49,21.865 C 28.63,22.01 26.32,22.7 24.99,23.83 A 3.8,3.8 0 0,0 23.54,26.85 C 23.54,27.29 23.6,27.95 23.64,28.05 C 23.66,28.07 23.74,27.97 23.86,27.76 A 6.62,6.62 0 0,1 25.98,25.55 C 27.08,24.85 28.68,24.37 30.61,24.15 C 31,24.11 31.43,24.1 32.42,24.1 C 34.08,24.1 34.76,24.15 36.58,24.44 C 38.2,24.7 39.29,24.95 40.85,25.44 A 27.57,27.57 0 0,1 45.7,27.52 A 19.36,19.36 0 0,1 51.88,32.73 C 51.94,32.79 51.98,32.83 52,32.83 C 52.03,32.79 51.67,31.93 51.37,31.36 C 50.73,30.1 50.17,29.36 49.03,28.22 A 20.55,20.55 0 0,0 43.75,24.45 A 24.96,24.96 0 0,0 31.49,21.88 Z M 4,23.05 A 8.45,8.45 0 0,0 6.35,27.38 A 18.74,18.74 0 0,0 12.22,31.38 A 27.38,27.38 0 0,0 19.86,33.67 C 22,33.99 24.4,34.07 26.07,33.88 C 26.45,33.84 27.27,33.71 27.64,33.63 C 29.32,33.28 30.8,32.55 31.54,31.7 C 32.04,31.15 32.31,30.57 32.47,29.79 C 32.54,29.41 32.55,29.29 32.54,28.89 A 3.53,3.53 0 0,0 32.34,27.71 C 32.33,27.71 32.24,27.83 32.16,27.97 C 31.36,29.28 30.98,29.7 30.1,30.27 C 29.49,30.67 28.52,31.09 27.76,31.29 A 16.84,16.84 0 0,1 22.28,31.72 C 20.38,31.57 18.72,31.35 17.45,31.07 A 27.1,27.1 0 0,1 11.29,28.95 A 21.81,21.81 0 0,1 7.46,26.55 A 18.36,18.36 0 0,1 4,22.93 L 4.01,23.05 Z" fill="rgb(181, 17, 25)"/>
<path d="M 17.979999999999997,19.235 A 14.82,14.82 0 0,1 25.07,17.03 C 27.22,16.91 29.12,17.16 31.12,17.81 C 31.27,17.86 31.38,17.89 31.38,17.91 C 31.38,17.94 31.03,17.94 29.92,17.97 A 25.1,25.1 0 0,0 26.34,18.27 C 23.27,18.77 20.77,19.74 18.54,21.33 C 17.74,21.89 16.59,23 15.96,23.81 A 15.7,15.7 0 0,0 14.12,26.76 A 7.69,7.69 0 0,1 15.28,21.87 A 9.75,9.75 0 0,1 17.98,19.25 Z M 39.28,30.45 L 39.85,29.43 L 40.03,29.09 L 40.04,29.65 A 8.54,8.54 0 0,1 38.88,34.3 A 8.84,8.84 0 0,1 35.98,37.13 A 13.58,13.58 0 0,1 30.49,38.89 C 29.37,39.02 28.21,39.03 27,38.94 C 25.75,38.84 24.05,38.47 23.14,38.09 L 23.03,38.04 L 23.16,38.02 C 23.23,38 23.44,37.99 23.63,37.99 C 24.63,37.99 26.66,37.86 27.46,37.74 A 19.5,19.5 0 0,0 33.57,35.84 C 34.07,35.57 34.11,35.54 34.64,35.22 C 35.2,34.87 35.41,34.72 35.97,34.27 A 13.06,13.06 0 0,0 39.27,30.44 Z" fill="rgb(27, 62, 147)"/>
</svg>
