<?xml version="1.0" encoding="UTF-8"?>
<!-- generated by Finnhub -->
<svg viewBox="0 0 55.5 55.5" xmlns="http://www.w3.org/2000/svg">
<path d="M 0,0 H 55.5 V 55.5 H 0 Z" fill="rgb(239, 242, 248)"/>
<path d="M 46.21,22.985 L 48,18 H 34.55 L 32.49,23.53 C 32.48,23.54 31.5,19.33 27.54,18 H 15.07 L 8,38 H 15.11 L 17.21,32 H 20.34 C 22.46,32 20.34,38 20.34,38 H 34.47 L 36.58,32 H 42.68 L 44.38,27 H 38.25 L 39.83,23 H 46.22 Z M 20.48,23 H 23.62 S 25.21,23.38 25.21,25.16 C 25.21,26.94 23.75,27 23.75,27 H 18.92 L 20.48,23 Z M 27.76,36.87 S 28.44,33.16 27.68,31.92 C 28.82,31.8 29.88,31.02 29.88,31.02 L 27.76,36.87 Z" fill="rgb(145, 27, 87)"/>
<path d="M 27.43,30.685 C 27.23,30.9 26.96,31 26.63,31 C 26.43,31 26.23,30.95 26.03,30.86 C 25.83,30.78 25.63,30.64 25.46,30.47 L 25.93,29.72 C 26.03,29.86 26.14,29.96 26.26,30.04 A 0.7,0.7 0 0,0 26.62,30.16 C 26.68,30.16 26.72,30.16 26.75,30.13 A 0.1,0.1 0 0,0 26.8,30.05 C 26.8,30 26.73,29.95 26.59,29.88 A 0.35,0.35 0 0,0 26.53,29.86 H 26.52 C 26.29,29.76 26.13,29.64 26.02,29.5 A 0.79,0.79 0 0,1 25.87,29.01 C 25.87,28.71 25.97,28.47 26.17,28.28 C 26.37,28.09 26.64,28 26.96,28 C 27.14,28 27.32,28.03 27.48,28.09 C 27.64,28.14 27.78,28.24 27.91,28.36 L 27.54,29.06 C 27.43,28.96 27.34,28.88 27.24,28.83 A 0.47,0.47 0 0,0 27,28.75 A 0.16,0.16 0 0,0 26.9,28.79 C 26.87,28.81 26.86,28.84 26.86,28.89 C 26.86,28.95 26.94,29.01 27.1,29.09 A 0.5,0.5 0 0,0 27.2,29.14 C 27.4,29.24 27.55,29.34 27.63,29.47 A 0.8,0.8 0 0,1 27.76,29.94 C 27.76,30.24 27.66,30.49 27.44,30.7 Z M 18,29.44 L 18.48,31 H 19.44 L 19.94,28 H 18.97 L 18.72,29.54 A 3.72,3.72 0 0,0 18.56,28.96 L 18.26,28 H 17.29 L 16.81,31 H 17.77 L 17.91,30.12 V 30.09 C 17.96,29.79 17.99,29.58 17.99,29.44 Z M 16.3,31 H 15.32 L 15.81,28 H 16.77 L 16.29,31 Z M 28.09,28 H 30.16 L 30.02,29 H 29.47 L 29.13,31 H 28.16 L 28.5,29 H 27.94 L 28.09,28 Z" fill="rgb(239, 242, 248)"/>
<path d="M 22.54,30.005 C 22.23,30.74 21.48,31 20.76,31 H 19.93 L 20.42,28 H 21.13 C 21.96,28 22.7,28.4 22.7,29.35 C 22.7,29.59 22.64,29.81 22.55,30.02 Z M 21.22,28.96 H 21.24 A 0.5,0.5 0 0,1 21.6,29.08 C 21.68,29.16 21.72,29.27 21.72,29.41 C 21.72,29.59 21.66,29.75 21.54,29.85 A 0.73,0.73 0 0,1 21.04,30.01 L 21.22,28.96 Z" fill="rgb(239, 242, 248)" fill-rule="evenodd"/>
<path d="M 25.09,30.485 C 25.16,30.4 25.21,30.3 25.26,30.17 C 25.3,30.04 25.34,29.87 25.38,29.65 L 25.65,28 H 24.68 L 24.44,29.5 C 24.39,29.75 24.35,29.91 24.31,29.98 C 24.27,30.04 24.21,30.08 24.13,30.08 C 24.07,30.08 24.02,30.06 23.98,30.01 A 0.28,0.28 0 0,1 23.93,29.84 V 29.74 L 23.98,29.44 L 24.22,28 H 23.26 L 23.06,29.28 A 29.4,29.4 0 0,0 22.97,29.95 C 22.97,30.28 23.07,30.53 23.27,30.72 C 23.47,30.91 23.75,31 24.11,31 C 24.31,31 24.51,30.96 24.68,30.87 C 24.85,30.78 24.99,30.66 25.1,30.49 Z M 31.98,29.83 A 0.8,0.8 0 0,0 32.46,29.51 A 0.94,0.94 0 0,0 32.63,28.92 C 32.63,28.64 32.53,28.42 32.33,28.28 C 32.13,28.13 31.85,28 31.47,28 H 30.45 L 29.96,31 H 30.92 L 31.1,29.88 L 31.38,31 H 32.36 L 31.98,29.83 Z M 31.34,28.78 C 31.46,28.78 31.55,28.8 31.6,28.83 C 31.66,28.87 31.68,28.93 31.69,29.01 C 31.69,29.12 31.66,29.21 31.59,29.25 C 31.52,29.3 31.42,29.33 31.27,29.33 H 31.2 L 31.29,28.78 H 31.34 Z M 32.73,31 L 33.22,28 H 34.18 L 33.7,31 H 32.73 Z M 36.1,31 L 36.23,30.15 H 35.29 L 35.34,29.83 H 36.14 L 36.27,29.11 H 35.47 L 35.51,28.83 H 36.37 L 36.5,28 H 34.69 L 34.2,31 H 36.1 Z M 38.35,28.09 C 38.51,28.14 38.65,28.24 38.78,28.36 L 38.41,29.06 C 38.31,28.96 38.21,28.88 38.11,28.83 A 0.47,0.47 0 0,0 37.88,28.75 A 0.16,0.16 0 0,0 37.77,28.79 C 37.74,28.81 37.73,28.84 37.73,28.89 C 37.73,28.95 37.81,29.01 37.97,29.09 A 0.5,0.5 0 0,0 38.07,29.14 C 38.27,29.24 38.42,29.34 38.5,29.47 A 0.8,0.8 0 0,1 38.63,29.94 A 1,1 0 0,1 38.31,30.7 C 38.1,30.9 37.82,31 37.5,31 C 37.29,31 37.09,30.95 36.89,30.86 C 36.69,30.78 36.5,30.64 36.32,30.47 L 36.8,29.72 C 36.9,29.86 37,29.96 37.13,30.04 A 0.7,0.7 0 0,0 37.49,30.16 C 37.54,30.16 37.59,30.16 37.62,30.13 A 0.1,0.1 0 0,0 37.66,30.05 C 37.66,30 37.6,29.95 37.46,29.88 A 1.25,1.25 0 0,1 36.89,29.5 A 0.79,0.79 0 0,1 36.74,29.01 C 36.74,28.71 36.84,28.47 37.04,28.28 C 37.24,28.09 37.5,28 37.82,28 C 38.02,28 38.2,28.03 38.35,28.09 Z" fill="rgb(239, 242, 248)"/>
</svg>
