<?xml version="1.0" encoding="UTF-8"?>
<!-- generated by Finnhub -->
<svg viewBox="0 0 55.5 55.5" xmlns="http://www.w3.org/2000/svg">
<path d="M 0,0 H 55.5 V 55.5 H 0 Z" fill="rgb(239, 242, 248)"/>
<path d="M 37.14,28.884999999999998 C 37.75,27.15 37.25,25 36.5,24.25 C 36.75,23.25 39.161,23.307 39.96,24.25 C 42.25,27.25 41.75,31.5 41.5,32.75 C 41.1,32.55 40.25,32.5 39.75,32.75 C 39.75,30.5 38.25,29.35 37.15,28.9 Z" fill="rgb(126, 107, 155)"/>
<path d="M 30.74,19.735 C 27.5,20.75 28.5,25 31,25.75 C 31.75,24 33,23.25 35.75,24 C 36.29,24.147 35.214,18.377 30.75,19.75 Z" fill="rgb(104, 80, 132)"/>
<path d="M 42.99,12.985 H 13 V 43 H 22.531 C 18.592,40.352 16,35.854 16,30.75 C 16,22.604 21.906,16 30.813,16 C 35.916,16 40.352,18.592 43,22.531 V 13 Z" fill="rgb(1, 81, 146)"/>
<path d="M 19.99,24.659 C 19,27 22.102,30.066 24.5,27.75 C 25.25,26.25 26.635,25.15 28.75,25.15 C 29.536,22.847 25.497,21.099 23.5,21.371 C 22.339,21.53 21.457,22.144 20.831,23 A 5.87,5.87 0 0,0 20,24.674 Z" fill="rgb(104, 80, 132)"/>
<path d="M 39.49,23.485 C 38.1,19.7 35,18.75 32,19 C 33.25,19.25 36.25,20.5 36.25,23.5 C 36.667,23.167 37.9,22.7 39.5,23.5 Z" fill="rgb(185, 175, 201)"/>
<path d="M 35.99,24.485 C 33.25,23.5 32,24.75 31.5,26 C 32.75,27 33.25,28 33.5,29.25 C 35,29.25 35.75,29.25 36.75,28.25 C 36.917,27.583 37,25.7 36,24.5 Z" fill="rgb(97, 74, 125)"/>
<path d="M 32.997,29.985 A 4.25,4.25 0 1,1 24.507,30 A 4.25,4.25 0 0,1 33.007,30 Z" fill="rgb(87, 65, 116)"/>
<path d="M 30.49,19.235 C 26.7,18.05 24.083,20 23.25,21 C 25.75,20.5 27.667,21.833 28.25,22.5 C 28,20.75 29.583,19.5 30.5,19.25 Z" fill="rgb(146, 130, 165)"/>
<circle cx="36" cy="32.5" r="3" fill="rgb(115, 91, 136)"/>
<path d="M 19.74,27.485 C 21.75,30 23.75,29 23.75,29 S 23.081,30.05 22.163,31.064 C 21.893,31.364 21.626,31.669 21.25,31.837 C 20.399,32.217 19.163,32.031 18.863,30.839 C 18.423,29.099 18.888,26.422 19.75,27.5 Z" fill="rgb(141, 120, 163)"/>
<path d="M 22.24,31.735 L 24,29.5 C 23.8,30.9 24.5,32.5 25.25,33.25 C 23.25,33.25 22.25,32.25 22.25,31.75 Z" fill="rgb(121, 102, 145)"/>
<path d="M 25.99,40.485 C 20.6,40.3 19.25,34.917 19.25,32.25 C 20.25,32.75 21.25,32.5 21.75,32.25 C 22.75,33.5 24,33.75 25.25,33.75 C 24.65,36.15 25.75,37.75 26.5,38 C 25.7,38.8 25.833,40 26,40.5 Z" fill="rgb(154, 138, 176)"/>
<path d="M 30.74,34.485 C 28.75,35.5 27,35 25.75,34 C 25.417,35.25 25.75,37.596 27.75,37.75 C 30.35,37.95 31,35.667 30.75,34.5 Z" fill="rgb(98, 76, 120)"/>
<path d="M 30.74,36.985 C 31.35,36.4 31.5,35.25 31.25,34.25 L 32.5,33.25 C 33,35.25 34.589,35.85 34.9,35.85 C 34.9,36.517 34.35,38.1 32.75,38.5 C 31.15,38.9 30.75,37.583 30.75,37 Z" fill="rgb(104, 80, 132)"/>
<path d="M 26.49,40.735 C 28.25,43.25 32.75,41.5 33,41.5 C 33.75,40.25 33.167,39.167 32.75,39 C 31.35,39.4 30.5,38.5 30.5,37.5 C 29.15,38.65 27.75,38.25 27.25,38.25 C 26.297,38.482 26.36,39.981 26.5,40.75 Z" fill="rgb(159, 141, 177)"/>
<path d="M 33.690000000000005,41.235 C 34.1,40.25 34,39.5 33.5,38.75 C 34.5,38.25 35.25,37.25 35.5,36 C 37,36.25 37.75,35.5 37.75,35.5 C 37.5,39.5 34.783,41.167 33.7,41.25 Z" fill="rgb(141, 119, 163)"/>
<path d="M 38.24,35.385 C 38.75,35 39.4,34.25 39.65,33.25 C 40.65,33 41.25,33.25 41.5,33.5 C 41.1,37.7 38,39.583 36.5,40 C 38,38.5 38.333,36.4 38.25,35.4 Z" fill="rgb(164, 151, 184)"/>
</svg>
