<?xml version="1.0" encoding="UTF-8"?>
<!-- generated by Finnhub -->
<svg viewBox="0 0 55.5 55.5" xmlns="http://www.w3.org/2000/svg">
<path d="M 0,0 H 55.5 V 55.5 H 0 Z" fill="rgb(254, 182, 26)"/>
<path d="M 42.99,25.985 V 30 H 45 V 31 H 42 V 26 H 43 Z M 48,30 H 50 V 31 H 47 V 26 H 48 V 30 Z M 33.53,30 C 32.65,30 32,29.37 32,28.5 C 32,27.64 32.65,27 33.53,27 C 33.97,27 34.33,27.1 34.63,27.4 L 35.32,26.74 C 34.82,26.24 34.22,26 33.53,26 C 32.83,26 32.23,26.25 31.73,26.74 C 31.25,27.22 31,27.81 31,28.5 S 31.25,29.78 31.74,30.27 C 32.24,30.76 32.84,31 33.54,31 C 34.23,31 34.82,30.76 35.32,30.27 L 34.64,29.6 C 34.34,29.9 33.96,30 33.54,30 Z M 26.86,26 L 29,29.04 V 26 H 30 V 31 H 29.16 L 27,27.95 V 31 H 26 V 26 H 26.86 Z M 17.62,30 C 16.77,30 16,29.52 16,28.5 S 16.78,27 17.62,27 C 18.08,27 18.46,27.1 18.77,27.4 L 19.47,26.74 A 2.58,2.58 0 0,0 17.62,26 A 2.6,2.6 0 0,0 15.77,26.74 A 2.35,2.35 0 0,0 15,28.5 C 15,29.19 15.26,29.78 15.77,30.27 A 2.6,2.6 0 0,0 17.62,31 C 18.35,31 19.05,30.74 19.41,30.27 V 28 H 17 V 29 H 18.42 V 29.82 A 1.4,1.4 0 0,1 17.62,30 Z M 12,27 V 28 H 14 V 29 H 12 V 30 H 14 V 31 H 11 V 26 H 14 V 27 H 12 Z M 22,28 V 27 H 24 V 26 H 21 V 31 H 24 V 30 H 22 V 29 H 24 V 28 H 22 Z M 38,27 V 28 H 40 V 29 H 38 V 30 H 40 V 31 H 37 V 26 H 40 V 27 H 38 Z M 7.9,26 H 6 V 31 H 7 V 29 H 7.43 L 8.46,31 H 9.6 L 8.53,28.94 C 9.08,28.7 9.46,28.14 9.46,27.54 C 9.46,26.71 8.84,26 7.91,26 Z M 7,27 H 7.9 C 8.22,27 8.46,27.15 8.46,27.49 C 8.46,27.81 8.21,28 7.9,28 H 7 V 27 Z" fill="rgb(1, 50, 96)"/>
</svg>
