<?xml version="1.0" encoding="UTF-8"?>
<!-- generated by Finnhub -->
<svg viewBox="0 0 55.5 55.5" xmlns="http://www.w3.org/2000/svg">
<path d="M 0,0 H 55.5 V 55.5 H 0 Z" fill="rgb(245, 180, 63)"/>
<path d="M 11.99,43.951 C 12.174,44.061 14.597,43.924 15.045,43.951 C 15.282,43.521 21.15,28.124 21.327,27.665 C 22.377,24.95 23.404,22.225 24.462,19.515 C 25.294,17.381 26.282,15.836 28.28,14.715 C 31.003,13.185 34.338,13.143 37.217,14.52 C 39.924,15.813 41.74,18.198 42.477,20.266 C 43.168,22.206 43.557,24.732 42.475,27.535 C 41.909,29.003 41.086,30.17 40.054,31.235 C 39.409,31.899 38.614,32.494 37.844,32.959 C 37.592,33.109 37.286,33.247 37.062,33.394 C 37.086,33.57 37.205,33.859 37.32,34.02 C 38.225,33.689 39.91,32.442 40.643,31.734 C 43.009,29.451 44.025,26.691 43.999,23.473 C 43.994,22.835 43.945,22.072 43.839,21.503 C 43.596,20.198 43.289,19.033 42.617,17.844 C 41.48,15.828 39.933,14.262 37.742,13.164 C 34.642,11.614 31.952,11.897 29.577,12.393 C 27.547,12.817 24.656,14.09 22.847,16.813 C 22.055,18.003 21.425,19.987 20.887,21.343 C 17.906,28.873 15.024,36.448 12.001,43.963 L 12,43.966 Z" fill="rgb(254, 254, 253)"/>
<path d="M 25.596999999999998,43.979 C 25.882,43.447 26.145,42.645 26.382,42.054 C 28.176,37.566 29.93,33.049 31.725,28.562 C 31.985,27.91 32.24,27.273 32.495,26.618 C 32.731,26.014 32.988,25.265 33.255,24.69 C 33.888,23.329 35.15,22.364 36.483,23.103 C 38.326,24.125 38.232,27.143 36.956,28.851 C 36.699,29.194 36.01,29.858 35.46,30.025 L 35.73,30.695 C 36.405,30.464 37.29,29.77 37.6,29.341 C 38.083,28.671 38.413,28.148 38.637,27.114 A 6.998,6.998 0 0,0 38.596,24.127 C 38.363,23.158 37.97,22.562 37.449,22.041 C 36.451,21.042 34.049,20.586 32.564,21.465 C 31.139,22.308 30.778,23.639 30.059,25.448 C 28.828,28.548 27.551,31.617 26.312,34.724 A 436.193,436.193 0 0,1 24.438,39.361 C 24.232,39.859 22.599,43.832 22.582,43.999 L 25.604,43.993 L 25.607,43.994 Z" fill="rgb(254, 254, 253)"/>
<path d="M 33.338,29.233 L 27.471,44 H 39.226 L 33.348,29.248 Z" fill="rgb(254, 254, 253)"/>
<path d="M 20.416999999999998,43.983 C 22.668,38.233 25.001,32.433 27.284,26.673 C 28.031,24.788 28.763,22.736 29.577,20.9 C 31.539,16.479 37.255,17.777 39.474,21.318 C 41.924,25.228 40.089,30.024 36.209,31.945 L 36.479,32.609 A 8.4,8.4 0 0,0 40.237,20.665 C 39.099,18.725 37.21,17.338 35.066,16.874 C 32.768,16.376 29.95,16.829 28.236,18.608 C 26.822,20.078 25.983,22.705 25.209,24.624 C 24.341,26.776 23.471,28.927 22.602,31.078 C 20.874,35.356 19.022,39.692 17.392,43.999 H 20.426 Z" fill="rgb(254, 254, 253)"/>
</svg>
