<?xml version="1.0" encoding="UTF-8"?>
<!-- generated by Finnhub -->
<svg viewBox="0 0 55.5 55.5" xmlns="http://www.w3.org/2000/svg">
<path d="M 0,0 H 55.5 V 55.5 H 0 Z" fill="rgb(205, 20, 61)"/>
<path d="M 26.99,33.345 V 30.74 C 27.86,30.66 29.8,30.69 29.8,32 C 29.8,33.12 28.96,33.35 27.94,33.35 A 63.71,63.71 0 0,0 27,33.35 Z" fill="rgb(254, 254, 253)"/>
<path d="M 36.24,19.794999999999998 C 35.78,17.08 34.75,13.99 31.73,12.06 C 31.22,11.74 30.73,11.49 30.39,11.32 C 29.85,11.05 29.68,10.96 30.36,11.02 C 34.72,11.39 37.6,14.92 38.31,15.78 L 38.38,15.87 C 40.83,18.83 40.57,23.6 40.44,24.51 C 40.32,25.42 39.94,26.85 39.51,27.78 L 39.38,28.03 C 39.25,28.27 39.12,28.52 39.21,28.44 C 42.54,25.34 42.35,21.63 41.62,19 L 41.39,18.21 C 41.29,17.91 41.23,17.72 41.29,17.83 C 41.18,17.63 41.79,18.28 42.03,18.63 C 46.53,25.34 42.34,31.51 39.05,33.34 C 38.94,33.41 38.8,33.48 38.65,33.55 C 38.36,33.71 38.07,33.86 38.03,33.91 C 37.98,33.99 37.98,34.06 39.1,33.74 A 7.4,7.4 0 0,0 43,31.28 C 43.4,30.81 43.62,30.33 43.75,30.06 C 43.85,29.86 43.88,29.79 43.88,29.94 C 43.88,30.1 43.62,31.14 43.48,31.66 A 8.74,8.74 0 0,1 40.03,36.54 C 39.48,36.89 38.88,37.09 38.19,37.31 C 37.46,37.54 36.41,37.71 35.71,37.6 C 35.38,37.55 35.78,38.03 35.86,38.11 C 36.58,38.76 37.66,39.41 39.08,39.07 C 39.31,39.01 38.95,39.29 38.72,39.47 L 38.59,39.57 C 38.08,39.98 37.47,40.27 36.8,40.54 C 35.63,41 33.74,41.14 32.37,40.73 C 31.95,40.6 31.61,40.42 31.33,40.27 L 30.99,40.1 L 30.81,40.01 A 0.95,0.95 0 0,0 30.61,39.93 C 30.57,39.92 30.51,40.26 30.44,40.65 A 8.57,8.57 0 0,1 28.85,44.45 L 28.82,44.51 C 28.71,44.66 28.47,44.98 28.38,45.01 C 28.21,45.04 27.53,44.18 27.42,44.04 A 11.18,11.18 0 0,1 25.9,41.5 C 25.73,41.1 25.54,40.65 25.45,40.66 C 25.39,40.66 25.22,40.78 25.01,40.91 C 24.78,41.06 24.51,41.23 24.33,41.31 C 23.06,41.85 20.43,41.99 17.91,40.08 C 17.55,39.8 17.01,39.19 17.17,39.28 C 17.52,39.48 17.98,39.57 18.44,39.63 C 19.94,39.83 21.25,39.05 22.04,38.55 C 22.32,38.37 22.71,38.08 22.74,37.97 C 22.77,37.89 22.43,37.97 22.08,38.04 L 21.58,38.14 C 20.93,38.21 19.86,38.23 19.11,38.18 C 15.25,37.93 13.3,34.86 12.51,32.88 C 12.42,32.68 12.34,32.3 12.4,32.31 A 17.24,17.24 0 0,0 13.05,32.86 A 8,8 0 0,0 18,34.84 C 18.12,34.83 18.11,34.68 17.89,34.59 A 8,8 0 0,1 16.04,33.24 A 13.08,13.08 0 0,1 13.66,30.04 L 13.48,29.72 C 10.88,25.2 12.16,21.17 13.67,19.39 C 13.79,19.24 14.17,18.85 14.09,18.96 C 14.29,18.7 14.17,19.1 14.03,19.61 C 13.92,19.97 13.8,20.39 13.77,20.64 C 13.34,25.04 15.34,27.57 16.52,28.34 C 16.62,28.42 16.31,27.66 16.07,27.07 C 15.95,26.8 15.86,26.57 15.83,26.47 C 15.56,25.64 15.33,24.31 15.3,23.82 C 14.8,17.16 18.5,12.19 25.33,11.12 C 26.01,11.02 25.45,11.3 24.96,11.55 L 24.56,11.76 C 23.88,12.16 22.79,13.01 22.1,13.79 C 18.17,18.21 18.89,22.59 20.49,25.55 C 20.93,26.38 22.23,28.18 23.42,28.5 C 23.44,28.5 23.49,28.26 23.54,27.97 C 23.59,27.71 23.64,27.41 23.7,27.21 C 23.87,26.57 24.23,26.01 24.57,25.49 L 24.68,25.31 L 24.72,25.26 C 24.79,25.16 24.9,25 24.82,24.95 L 24.54,24.78 A 1.6,1.6 0 0,1 24.24,24.58 C 23.66,24.05 23.14,22.97 23.38,23.1 C 24.85,23.89 25.85,23.2 26.06,23.07 A 3.1,3.1 0 0,0 27.18,21.27 V 21.25 C 27.33,20.68 27.48,20.05 27.28,19.44 C 27.18,19.14 26.73,18.59 26.25,18.7 C 26.19,18.71 26.15,18.77 26.12,18.82 L 26.11,18.84 C 25.92,19.11 26.03,19.24 26.25,19.35 C 26.47,19.45 26.35,19.58 26.1,19.61 C 25.48,19.69 24.99,19.2 25.28,18.6 C 25.38,18.4 25.55,18.27 25.72,18.15 L 25.97,17.95 C 25.61,17.82 25.27,18.23 24.97,18.59 C 24.83,18.77 24.69,18.94 24.57,19.03 C 24.25,19.23 23.72,19.34 23.23,19.25 C 22.89,19.18 22.73,19.11 22.58,18.89 C 22.43,18.69 22.26,18.39 22.31,18.06 C 22.35,17.86 22.44,17.66 22.57,17.66 C 22.61,17.65 22.62,17.75 22.62,17.87 C 22.62,18.01 22.64,18.19 22.7,18.3 C 23.15,19.11 24.09,18.36 24.44,18.03 C 24.64,17.83 24.91,17.6 25.18,17.46 L 25.51,17.32 L 25.68,17.25 C 25.73,17.21 25.76,17.15 25.63,17.05 C 25.03,16.63 24.33,16.85 24.03,17.38 L 23.91,17.63 C 23.85,17.76 23.8,17.89 23.71,18 C 23.53,17.9 23.45,17.78 23.35,17.61 A 11.59,11.59 0 0,0 23.27,17.48 C 23.14,17.27 23.02,17.08 22.93,16.81 C 22.78,16.37 22.68,15.81 22.93,15.37 C 23.13,14.99 23.53,14.67 23.98,14.53 L 24.18,14.49 C 24.29,14.49 24.4,14.47 24.48,14.42 C 24.53,14.39 24.58,14.32 24.61,14.24 L 24.68,14.11 C 24.82,13.95 25.08,13.77 25.28,13.69 C 26.48,13.17 27.44,13.66 28.39,14.14 C 28.99,14.44 29.56,14.74 30.19,14.78 A 3.64,3.64 0 0,0 32.5,14.05 C 32.6,13.95 32.6,14.05 32.51,14.18 A 4.05,4.05 0 0,1 31.17,15.88 V 15.89 C 31.04,15.99 30.95,16.05 31.04,16.2 C 31.76,17.29 31.84,17.98 31.9,18.57 L 31.94,18.92 A 4,4 0 0,1 31.91,19.95 C 31.79,20.74 31.54,21.85 31.59,21.63 L 31.45,22.23 C 31.37,22.56 31.29,22.87 31.24,23.2 C 31.14,23.85 31.33,24.36 31.49,24.8 L 31.59,25.07 C 31.84,25.81 32.6,26.21 33,26.41 C 33.17,26.5 33.27,26.55 33.25,26.58 C 33.21,26.65 32.62,26.58 32.13,26.51 C 31.79,26.46 31.5,26.42 31.47,26.44 C 31.3,26.55 32.01,27.87 32.54,28.52 L 32.6,28.6 C 32.7,28.75 32.84,28.93 33.05,28.78 A 6.77,6.77 0 0,0 35.49,25.85 L 35.64,25.54 C 36.15,24.54 36.71,22.57 36.24,19.81 Z M 26.08,16 C 26.19,16.14 26.4,16.1 26.56,16.03 C 27.3,15.68 27.01,14.76 26.1,14.76 L 26.08,14.8 A 0.65,0.65 0 0,0 26.05,14.86 C 26.19,14.96 26.36,15.11 26.4,15.31 C 26.45,15.59 26.28,15.77 26.15,15.91 L 26.08,16 Z M 26.63,37.06 H 27.57 C 27.53,36.94 27.41,36.88 27.3,36.82 C 27.18,36.77 27,36.72 27,36.6 V 34 C 26.97,34 27.06,34 27,34 H 27.78 C 28.58,34.02 29.26,35 29.86,35.8 C 30.06,36.07 30.24,36.32 30.42,36.52 C 30.58,36.7 30.85,36.9 31.1,36.99 C 31.47,37.13 32.05,37.09 32.4,36.96 C 32.48,36.93 32.53,36.89 32.57,36.77 C 32.37,36.77 31.85,36.77 31.49,36.37 L 31.24,36.07 L 31.06,35.86 L 30.83,35.58 C 30.31,34.95 29.7,34.18 28.88,33.83 C 28.88,33.83 29.78,33.73 30.26,33.3 C 30.77,32.82 30.95,31.47 30.46,30.82 C 30.36,30.69 30.21,30.55 30.06,30.47 A 2.5,2.5 0 0,0 29.45,30.2 C 28.53,29.9 25.52,30 25.52,30 C 25.52,30.14 25.65,30.24 25.78,30.33 C 25.89,30.41 26,30.49 26,30.6 V 33.35 C 25.8,33.38 25.58,33.42 25.34,33.48 L 25.05,34.26 C 25.33,34.16 25.65,34.09 26,34.05 V 36.58 C 26,36.7 25.88,36.75 25.77,36.8 C 25.65,36.86 25.53,36.91 25.49,37.04 V 37.05 H 26.63 Z" fill="rgb(254, 254, 253)"/>
</svg>
