<?xml version="1.0" encoding="UTF-8"?>
<!-- generated by Finnhub -->
<svg viewBox="0 0 55.5 55.5" xmlns="http://www.w3.org/2000/svg">
<path d="M 0,0 H 55.5 V 55.5 H 0 Z" fill="rgb(239, 242, 248)"/>
<path d="M 25.99,27.985 V 29 H 17 C 17.1,30.96 18.68,32 20.57,32 C 22.24,32 23.03,31.45 23.54,30.54 H 25.77 C 25.02,32.34 23.67,34 20.5,34 C 16.82,34 15,31.31 15,28 S 17.03,22 20.5,22 S 26,24.69 26,28 Z M 24,27 C 24,24.86 22.13,23.97 20.5,24 C 18.87,24.03 17,24.86 17,27 H 24 Z M 5,22 H 10.81 C 12.04,22 14,22.78 14,25.28 C 14,27.03 13.19,27.62 12.31,28 C 12.91,28.13 13.19,28.41 13.47,28.75 C 14,29.39 14,30.55 14,31.46 C 14,32.23 14,33.19 14.23,33.58 C 14.4,33.85 14.6,34 14.6,34 H 12.44 S 12,33.72 12,32.88 V 32.65 V 32.21 C 12,31.23 11.9,30.27 11.56,29.78 C 11.08,29.11 10.21,29 9.64,29 H 7 V 34 H 5 V 22 Z M 9.65,27 C 10.8,27 12,26.73 12,25.47 C 12,24.22 10.9,24 9.65,24 H 7 V 27 H 9.65 Z M 32.67,34 C 36.35,34 38,31.37 38,28.44 V 27 H 32 V 29 H 36 C 36,30.96 34.45,32 32.6,32 A 3.6,3.6 0 0,1 29,28.25 C 29,25.5 30.63,24 32.6,24 C 34.22,24 35.54,24.69 36,26 H 38 C 37.38,23.6 35.27,22 32.6,22 C 29.13,22 27,24.69 27,28 S 29.25,34 32.67,34 Z M 39,22 H 41 V 34 H 39 V 22 Z M 51,26.05 H 49 C 49,24.72 47.84,24.03 46.5,24.03 C 45.12,24.03 44,24.41 44,25.28 C 44,26.23 45.4,26.53 46.67,26.81 L 47.12,26.91 C 48.1,27.13 49.28,27.47 50.15,28.28 C 50.7,28.78 51,29.7 51,30.44 C 51,31.27 50.73,32.14 49.95,32.88 C 49.07,33.72 47.69,33.99 46.52,34 C 44.55,34.01 42,32.88 42,30.75 V 30 H 44 C 44,31.5 45.22,32 46.5,32 C 47.63,32 49,31.75 49,30.44 C 49,29.34 47.8,29.08 46.7,28.85 L 46.52,28.81 C 46.01,28.71 44.86,28.41 44,28.06 C 43.1,27.7 42,26.91 42,25.44 C 42,22.72 44.6,22 46.52,22 C 49.26,22 51,23.78 51,26.05 Z" fill="rgb(1, 144, 176)"/>
</svg>
