<?xml version="1.0" encoding="UTF-8"?>
<!-- generated by Finnhub -->
<svg viewBox="0 0 55.5 55.5" xmlns="http://www.w3.org/2000/svg">
<path d="M 0,0 H 55.5 V 55.5 H 0 Z" fill="rgb(84, 85, 86)"/>
<path d="M 15.23,19.985 C 12.84,20.03 10.08,20.16 9,20.23 V 20.75 C 11,20.47 11,21.65 11,22.17 V 33.87 C 11.05,35.49 10.05,35.5 9,35.5 V 36 H 15 V 35.5 C 13.14,35.5 13,35.01 13,33.87 V 29.35 H 16.45 C 16.93,29.5 19.3,31.86 20.43,33.03 A 8.38,8.38 0 0,0 28,35.89 V 35.4 C 25.55,35.24 23.9,33.74 22.56,32.34 A 95.79,95.79 0 0,0 18.68,28.63 C 19.81,28.37 22,27.07 22,24.46 C 22,21.07 18.23,19.96 15.24,20 Z M 20,24.6 C 20,20.55 15.4,20.24 13,20.55 V 28.79 C 19.25,29.47 20,26.39 20,24.59 Z M 29,20 H 35 V 20.52 C 34.14,20.52 32.98,20.76 33,22.11 V 27 H 43 V 22.1 C 43,21.03 42.57,20.5 41,20.5 V 20 H 47 V 20.52 C 46.38,20.52 45,20.84 45,22.11 V 33.73 C 45,34.44 45,35.45 47,35.45 V 36 H 41 V 35.45 C 42.6,35.45 43,35.11 43,33.73 V 28 H 33 V 33.73 C 33,34.38 33.15,35.45 35,35.45 V 36 H 29 V 35.45 C 30.11,35.45 31,35.34 31,33.73 V 22.1 C 31.05,21.57 30.58,20.5 29,20.5 V 20 Z" fill="rgb(254, 254, 253)" fill-rule="evenodd"/>
</svg>
