<?xml version="1.0" encoding="UTF-8"?>
<!-- generated by Finnhub -->
<svg viewBox="0 0 55.5 55.5" xmlns="http://www.w3.org/2000/svg">
<path d="M 0,0 H 55.5 V 55.5 H 0 Z" fill="rgb(158, 27, 51)"/>
<path d="M 23.99,25.049 C 23.713,25.027 23.712,25.004 23.324,25.004 C 21.51,25.004 20,26.07 20,28.172 V 35 H 16 V 21 H 20 V 22.553 C 20.763,21.688 22.414,21 23.843,21 H 24 V 25.064 Z M 31,16 V 22.561 C 31.887,21.483 33.024,20.945 34.362,20.945 C 37.851,20.945 40,23.012 40,27.072 V 35 H 36 V 27.282 C 36,26.17 35.166,24.846 33.554,24.846 C 32.114,24.846 31,25.866 31,27.649 V 35 H 27 V 16 H 11 V 40 H 45 V 16 H 31 Z" fill="rgb(254, 254, 253)"/>
</svg>
