<?xml version="1.0" encoding="UTF-8"?>
<!-- generated by Finnhub -->
<svg viewBox="0 0 55.5 55.5" xmlns="http://www.w3.org/2000/svg">
<path d="M 0,0 H 55.5 V 55.5 H 0 Z" fill="rgb(239, 242, 248)"/>
<path d="M 29.49,29.865 C 29.09,30.85 28.22,31.76 27.41,30.52 A 8.43,8.43 0 0,1 26.81,29.3 C 26.01,27.41 25.2,25.5 24.4,23.57 A 801.93,801.93 0 0,0 21.63,17.02 A 0.1,0.1 0 0,0 21.57,17 H 16.16 C 16.11,17 16.09,17.03 16.11,17.08 L 19.07,24.08 C 20.37,27.19 21.69,30.32 23,33.38 C 23.86,35.37 25.16,36.88 27.35,36.99 C 29.27,37.09 31.05,35.99 31.84,34.16 L 37.07,21.92 C 37.47,20.97 38.23,20.43 38.77,21.69 L 45.03,36 H 48 C 46.83,33.24 45.65,30.57 44.47,27.9 A 722.66,722.66 0 0,1 41.07,20.11 C 40.82,19.51 40.62,19.1 40.48,18.86 C 39.23,16.71 36.44,16.36 34.78,18.16 C 34.4,18.58 34.12,19.09 33.88,19.63 C 32.42,23.04 30.95,26.46 29.5,29.88 Z M 19.7,27.38 L 15.76,18.17 L 15.74,18.15 A 0.05,0.05 0 0,0 15.67,18.17 L 8,36 H 15.93 L 19.7,27.43 A 0.05,0.05 0 0,0 19.7,27.39 Z" fill="rgb(8, 3, 6)"/>
</svg>
