<?xml version="1.0" encoding="UTF-8"?>
<!-- generated by Finnhub -->
<svg viewBox="0 0 55.5 55.5" xmlns="http://www.w3.org/2000/svg">
<path d="M 0,0 H 55.5 V 55.5 H 0 Z" fill="rgb(239, 242, 248)"/>
<path d="M 5.99,23.985 H 4 V 35 H 6 V 28.02 C 6.3,26.51 7.4,26.04 7.98,26 H 10 L 9.73,24 H 7.8 C 6.9,24 6.3,24.7 6,25.26 V 24 Z M 11,23 H 13 V 35 H 11 Z M 24,20 H 22 V 35 H 24 V 26.67 C 24.5,25.77 25.44,25 27,25 C 29.14,25 29.9,26.77 30,27.65 V 35 H 32 V 27.65 C 32,25 30.31,23 27.37,23 C 25.7,23 24.61,23.84 24,24.63 V 20 Z M 16,20.84 L 18,20 V 23 H 20 V 25 H 18 V 32.3 C 18,32.69 18.35,33 18.77,33 H 21 L 20.7,35 H 18.37 C 17.07,35 16,34.03 16,32.84 V 25 H 14 V 23 H 16 V 20.84 Z" fill="rgb(77, 74, 94)"/>
<circle cx="12" cy="21" r="1" fill="rgb(77, 74, 94)"/>
<path d="M 33.99,22.985 H 36 V 24.63 C 36.6,23.84 37.7,23 39.37,23 C 41.4,23 42.84,23.95 43.53,25.42 A 4.15,4.15 0 0,1 47.37,23 C 50.3,23 52,25 52,27.65 V 35 H 50 V 27.65 A 2.97,2.97 0 0,0 47,25 C 45.37,25 44.43,25.84 43.94,26.79 C 43.98,27.07 44,27.35 44,27.65 V 35 H 42 V 27.65 A 2.97,2.97 0 0,0 39,25 C 37.44,25 36.5,25.78 36,26.67 V 35 H 34 V 23 Z" fill="rgb(77, 74, 94)"/>
</svg>
