<?xml version="1.0" encoding="UTF-8"?>
<!-- generated by Finnhub -->
<svg viewBox="0 0 55.5 55.5" xmlns="http://www.w3.org/2000/svg">
<path d="M 0,0 H 55.5 V 55.5 H 0 Z" fill="rgb(239, 242, 248)"/>
<path d="M 27.99,44.985 C 25.74,45 23.48,44.52 21.34,43.7 A 18.48,18.48 0 0,1 15.87,40 A 17.72,17.72 0 0,1 12.19,34.54 A 17.25,17.25 0 0,1 11,28 C 11,25.74 11.48,23.48 12.3,21.34 C 13.14,19.32 14.45,17.54 16,15.99 A 16.57,16.57 0 0,1 21.34,12.31 C 23.48,11.48 25.62,11 28,11 C 30.26,11 32.52,11.48 34.66,12.3 A 14.9,14.9 0 0,1 40,16 A 18.67,18.67 0 0,1 43.68,21.34 C 44.52,23.48 45,25.62 45,28 C 45,30.26 44.52,32.52 43.7,34.66 A 16.46,16.46 0 0,1 40,40.13 A 18.67,18.67 0 0,1 34.66,43.81 C 32.52,44.52 30.26,45 28,45 Z M 17.42,37.63 A 12.83,12.83 0 0,0 22.06,40.96 C 23.96,41.79 25.86,42.15 27.88,42.15 C 29.43,42.15 31.09,41.91 32.52,41.31 A 14.73,14.73 0 0,0 36.56,39.17 L 36.68,39.06 L 30.02,29.19 L 26.83,32.49 C 26.71,32.6 26.59,32.6 26.47,32.6 A 0.51,0.51 0 0,1 26,32.13 V 21.67 L 22,23.99 V 34.66 L 26.7,35.96 L 28.71,34.66 L 29.66,35.73 L 26.57,39.06 A 0.9,0.9 0 0,1 25.97,39.29 H 25.74 L 16.94,37.03 L 17.42,37.63 Z M 19,34.3 V 25.48 L 13.73,28.24 V 28.36 C 13.73,30.02 14.09,31.56 14.57,32.99 C 15.04,34.42 15.87,35.73 16.83,37.03 L 19,34.3 Z M 30.38,16.6 C 30.5,16.6 30.62,16.6 30.73,16.72 L 37.03,21.47 C 37.15,21.59 37.27,21.71 37.27,21.95 C 37.27,22.07 37.27,22.3 37.15,22.42 L 32.64,26.94 L 39.65,36.34 L 39.77,36.09 A 14.35,14.35 0 0,0 29,13.7 V 17.42 L 30.26,16.71 C 30.26,16.59 30.26,16.59 30.38,16.59 Z M 29,20.33 V 27.59 L 33.23,23.24 L 29.45,20 L 29,20.33 Z M 26,13.93 C 23.15,14.41 20.27,15.63 18.13,17.66 A 14.93,14.93 0 0,0 13.97,24.91 L 13.85,25.27 L 26,18.93 V 13.82 V 13.94 Z"/>
</svg>
