<?xml version="1.0" encoding="UTF-8"?>
<!-- generated by Finnhub -->
<svg viewBox="0 0 55.5 55.5" xmlns="http://www.w3.org/2000/svg">
<path d="M 0,0 H 55.5 V 55.5 H 0 Z" fill="rgb(239, 242, 248)"/>
<path d="M 43.99,34.985 C 44,39.5 41,44 35,44 A 8.37,8.37 0 0,1 28,40.25 C 28.2,39.56 28.83,38.17 30,35 C 30,38.09 31.92,39.98 35,40 C 37.8,40.02 40,37.5 40,35 C 39.98,31.92 38.09,30 35,30 C 37.97,29.62 39.03,28.8 40.25,28 A 8.37,8.37 0 0,1 44,35 Z" fill="url(#c)"/>
<path d="M 27.99,15.735 C 27,17.18 26,19.12 26,21 C 26,17.9 24.1,16 21,16 C 18.5,16 16,18.5 16,21 C 16,24 18,26 21,26 C 19.12,26 17.18,27 15.75,28 C 15.55,27.87 15.37,27.72 15.19,27.57 A 8.37,8.37 0 0,1 12,21 C 12,16.15 15.95,12 20.8,12 A 8.78,8.78 0 0,1 28,15.75 Z" fill="rgb(231, 185, 93)"/>
<path d="M 29.99,20.785 V 35.2 C 30,39.75 25.4,44 21,44 L 20.5,40 C 23.6,40 26,38.3 26,35.2 V 20.8 H 30 Z" fill="url(#b)"/>
<path d="M 15.99,35.485 C 16,38.58 17.76,40 20.85,40 C 20.96,40 21.05,40.1 21.05,40.2 V 43.8 C 21.05,43.91 20.96,44 20.85,44 C 16,44 12.02,40.35 12,35.5 C 11.99,32.5 13.47,29.6 15.75,28 C 17.18,27 18.62,26 20.5,26 C 23.6,26 26,23.6 26,20.5 V 28 C 24.48,29.27 23.13,30 21,30 C 17.9,30 16,32.4 16,35.5 Z" fill="url(#a)"/>
<path d="M 43.99,20.985 C 44,24.64 40.6,30 36.4,30 H 29.6 A 0.25,0.25 0 0,1 29.34,29.74 L 29.24,26.26 C 29.24,26.11 29.36,26 29.5,26 H 35.06 C 38.18,26 40.02,24.11 40,21 C 39.98,17.9 38,16 35.4,16 C 32,16 30,17.77 30,20.85 A 0.2,0.2 0 0,1 29.8,21.05 H 26.2 A 0.2,0.2 0 0,1 26,20.85 V 20.8 C 26,18.92 26.59,17.18 27.6,15.75 C 29.22,13.42 32.36,12 35.2,12 C 40.06,12 44,16.14 44,21 Z" fill="rgb(62, 72, 103)"/>
<defs>
<linearGradient id="c" x1="30.69" x2="43.13" y1="43.13" y2="30.69" gradientUnits="userSpaceOnUse">
<stop stop-color="rgb(254, 128, 202)" offset="0"/>
<stop stop-color="rgb(218, 109, 173)" offset=".25"/>
<stop stop-color="rgb(183, 100, 157)" offset=".32"/>
<stop stop-color="rgb(146, 92, 141)" offset=".42"/>
<stop stop-color="rgb(115, 84, 127)" offset=".52"/>
<stop stop-color="rgb(92, 79, 116)" offset=".62"/>
<stop stop-color="rgb(75, 75, 108)" offset=".73"/>
<stop stop-color="rgb(65, 72, 104)" offset=".85"/>
<stop stop-color="rgb(62, 72, 103)" offset="1"/>
</linearGradient>
<linearGradient id="b" x1="25.2" x2="25.2" y1="44" y2="20.8" gradientUnits="userSpaceOnUse">
<stop stop-color="rgb(26, 128, 27)" offset=".17"/>
<stop stop-color="rgb(39, 107, 54)" offset=".26"/>
<stop stop-color="rgb(49, 92, 76)" offset=".36"/>
<stop stop-color="rgb(56, 80, 91)" offset=".47"/>
<stop stop-color="rgb(60, 74, 100)" offset=".6"/>
<stop stop-color="rgb(62, 72, 103)" offset=".78"/>
</linearGradient>
<linearGradient id="a" x1="14.57" x2="26.6" y1="41.75" y2="20.91" gradientUnits="userSpaceOnUse">
<stop stop-color="rgb(26, 130, 25)" offset="0"/>
<stop stop-color="rgb(29, 130, 26)" offset=".13"/>
<stop stop-color="rgb(39, 133, 29)" offset=".24"/>
<stop stop-color="rgb(56, 138, 34)" offset=".34"/>
<stop stop-color="rgb(79, 144, 42)" offset=".43"/>
<stop stop-color="rgb(110, 152, 53)" offset=".52"/>
<stop stop-color="rgb(148, 162, 65)" offset=".61"/>
<stop stop-color="rgb(192, 174, 80)" offset=".69"/>
<stop stop-color="rgb(231, 185, 93)" offset=".75"/>
</linearGradient>
</defs>
</svg>
