<?xml version="1.0" encoding="UTF-8"?>
<!-- generated by Finnhub -->
<svg viewBox="0 0 55.5 55.5" xmlns="http://www.w3.org/2000/svg">
<path d="M 0,0 H 55.5 V 55.5 H 0 Z" fill="rgb(239, 242, 248)"/>
<path d="M 34.67,40.985 A 7.64,7.64 0 0,1 28,44.66 A 7.64,7.64 0 0,1 21.32,41 H 18.5 C 20,44.56 23.67,47 28,47 S 36,44.56 37.5,41 H 34.68 Z" fill="rgb(85, 189, 143)"/>
<path d="M 27.66,25.985 C 24.51,26 22,23.79 22,20.48 C 22,17.18 24.5,15 27.67,15 C 30.87,15 33,17.18 33,20.48 C 33,23.78 30.88,26 27.67,26 Z M 38,37 C 37.8,33.25 36.35,30.21 33.63,28.02 C 35.93,26.31 37,23.6 37,20.48 C 37,15.13 33.07,11 27.68,11 A 9.48,9.48 0 0,0 18,20.48 V 37 H 22 V 28.6 C 24.82,30.1 27.87,29.64 30.1,30.76 C 32.34,31.87 33.94,33.61 33.94,37 H 38 Z" fill="rgb(69, 56, 100)"/>
</svg>
