<?xml version="1.0" encoding="UTF-8"?>
<!-- generated by Finnhub -->
<svg viewBox="0 0 55.5 55.5" xmlns="http://www.w3.org/2000/svg">
<path d="M 0,0 H 55.5 V 55.5 H 0 Z" fill="rgb(239, 242, 248)"/>
<path d="M 33.99,19.485 L 42.5,33.5 L 39.5,38 L 31.5,24 L 28,30 L 33,39 H 23 L 28,30 L 25.5,26.5 L 17.5,39.5 L 14,35 L 26,15 L 31.5,24 L 34,19.5 Z" fill="rgb(254, 200, 55)"/>
<path d="M 27.99,42.985 A 15,15 0 1,0 28,13 A 15,15 0 0,0 28,43 Z M 28,45 A 17,17 0 1,0 28,11 A 17,17 0 0,0 28,45 Z" fill="rgb(83, 97, 105)" fill-rule="evenodd"/>
</svg>
