<?xml version="1.0" encoding="UTF-8"?>
<!-- generated by Finnhub -->
<svg viewBox="0 0 55.5 55.5" xmlns="http://www.w3.org/2000/svg">
<rect width="56" height="56" fill="rgb(239, 242, 248)"/>
<path d="M 11.99,21.985 H 6.1583 L 6.00003,22.512 H 6.52761 C 6.9852,22.512 6.99297,22.6952 6.99921,22.8424 C 6.99947,22.8487 6.99974,22.8549 7.00003,22.861 C 7.00439,22.9514 6.97516,23.024 6.97516,23.024 S 5.76746,27.939 5.58276,28.7838 C 5.38631,29.475 4.76502,29.5 4.76502,29.5 H 4.00003 V 30.0125 H 9.00003 V 29.5 H 8.14152 C 7.42929,29.5 7.6667,28.8606 7.6667,28.8606 L 8.45806,26 C 10.4366,29.8911 12.837,32 12.837,32 H 15.0001 V 31.488 C 13.7603,31.488 12.9425,30.0545 12.9425,30.0545 L 10.6212,26 C 12.9425,26 14.0001,24.3807 14.0001,23.2288 C 14.0001,22.0768 12.0001,22 12.0001,22 Z M 8.5747,25.5034 L 9.2494,22.6144 S 11.5264,22.0512 11.5,23.6895 C 11.5,25.8911 8.5747,25.5034 8.5747,25.5034 Z" clip-rule="evenodd" fill="rgb(1, 62, 124)" fill-rule="evenodd"/>
<path d="M 19.54,27.611 H 15.9998 C 15.5263,28.7247 15.6434,29.5002 16.6378,29.5002 S 17.9998,28.5002 17.9998,28.5002 H 19.2422 C 19.1001,29.2625 18.3898,30.0002 16.1879,30.0002 C 13.9861,30.0002 13.7256,28.924 14.1992,27.063 C 14.6727,25.202 16.1169,25.0002 17.7742,25.0002 C 19.4316,25.0002 19.9998,25.4935 19.9998,26.3679 C 19.9998,27.2424 19.55,27.626 19.55,27.626 Z M 17.9998,27.0002 H 16.1169 S 16.4247,25.4038 17.5848,25.4038 C 18.745,25.4038 17.9998,27.0002 17.9998,27.0002 Z" clip-rule="evenodd" fill="rgb(1, 62, 124)" fill-rule="evenodd"/>
<path d="M 21.49,24.985 H 24 V 25.6502 S 25.2803,25 26.3517,25 S 27.8057,25.3587 27.9077,25.7175 C 27.9077,25.7175 29.0525,25 30.6086,25 C 32.1646,25 32.0402,26.0538 31.9636,26.3229 C 31.8871,26.5919 31,29.1031 31,29.1031 S 31.0052,29.5 32,29.5 V 30 H 28.5 V 29.5286 S 28.9791,29.5964 29.1577,29.0807 C 29.3617,28.565 29.9647,26.6144 29.9647,26.6144 S 29.9987,26.5138 30,26.3826 C 30.0024,26.1372 29.8737,25.7848 29.2087,25.7848 C 28.1883,25.7848 27.9587,26.3004 27.9587,26.3004 L 27.0282,29.0135 S 26.9987,29.0837 27,29.1709 C 27.0021,29.313 27.073,29.5 27.5,29.5 V 30 H 24.5 V 29.5224 H 24.8212 S 25.1528,29.5516 25.3058,28.8789 C 25.4589,28.2063 26,26.5695 26,26.5695 S 26.0966,25.8296 25.2548,25.8296 S 23.9539,26.3229 23.9028,26.5471 C 23.8518,26.7713 23.1376,28.991 23.1376,28.991 S 22.959,29.5 23.5967,29.5 V 30 H 20.5 V 29.5 H 20.7398 S 21.1479,29.5067 21.3009,28.9238 C 21.454,28.3408 22.1682,25.9417 22.1682,25.9417 S 22.4438,25.583 21.5,25.583 V 25 Z" clip-rule="evenodd" fill="rgb(1, 62, 124)" fill-rule="evenodd"/>
<path d="M 39.99,24.985 V 25.6629 H 38.772 S 38.9908,25.8677 39,26.2427 C 39.0025,26.3448 38.9895,26.4595 38.9523,26.5862 C 38.9432,26.6182 38.9341,26.652 38.9246,26.6873 C 38.7513,27.3311 38.4421,28.4801 35.8516,28.4801 C 35.1064,28.4801 34.6096,28.3144 34.6096,28.3144 S 33.8892,29 34.6593,29 H 37.1185 S 38.5592,29.1903 38.5592,30.2557 C 38.5592,31.3447 36.6465,33 34.4109,33 C 32.1752,33 32.0013,31.7471 32.0013,31.4394 C 32.0013,31.4226 32.001,31.4046 32.0007,31.3855 C 31.9953,31.0555 31.9847,30.4085 33.4172,30.1846 C 33.4172,30.1846 32.9815,29.5454 34,28.1487 C 34,28.1487 33.3924,27.9593 33.3924,26.9886 C 33.3924,26.018 34.5102,25 36.6465,25 C 38.0367,25 38.207,25.3078 38.207,25.3078 S 38.9815,24.9527 40,25 Z M 34.3363,30.303 H 35.951 S 37.0048,30.2661 37.0048,31 S 35.8765,32.4574 34.709,32.4574 C 33.5414,32.4574 33.0248,31.9602 33,31.4394 C 33,30.9185 33.4421,30.303 34.3363,30.303 Z M 37.5159,26.2547 C 37.5159,25.5682 37.1682,25.5208 36.721,25.5208 C 35.8516,25.5208 35.2803,26.5625 35.2803,27.0833 C 35.2803,27.6042 35.3051,28.0066 36.1249,28.0066 C 36.9446,28.0066 37.5159,26.9413 37.5159,26.2547 Z" clip-rule="evenodd" fill="rgb(1, 62, 124)" fill-rule="evenodd"/>
<path d="M 40.99,24.985 H 43.5102 L 43.5,25.6696 S 44.0507,25 45,25 C 45.6652,25 46.0199,25.4384 46,25.8929 C 45.9915,26.0869 45.9074,26.2839 45.762,26.4509 H 44.6803 S 44.8569,25.7366 44.2387,25.7366 C 43.6206,25.7366 43.4219,26.4063 43.4219,26.4063 L 42.6934,29.0402 S 42.5167,29.5 43.0245,29.5 H 43.5323 L 43.5,30 H 40 V 29.4554 H 40.6402 S 40.9272,29.5536 41.0818,28.7277 C 41.2363,27.9018 41.8544,26 41.8544,26 S 42,25.5804 41,25.5804 V 25 Z" clip-rule="evenodd" fill="rgb(1, 62, 124)" fill-rule="evenodd"/>
<path d="M 51.99,26.453 C 52,24.811 49.4596,25.0072 49.4596,25.0072 C 46.2102,25.0483 46.0443,27.7256 46.0174,28.1592 C 46.0158,28.1854 46.0147,28.2035 46.0134,28.2122 C 45.9913,28.3212 45.7704,30 48.4213,30 S 52,28.1032 52,26.468 Z M 50.5,26.2281 C 50.5,25.5522 49.57,25.5 49.57,25.5 C 48.355,25.5 47.4558,27.3183 47.5,28.5392 C 47.5,29.1715 48.0016,29.5 48.5097,29.5 C 49.9235,29.5 50.5,26.904 50.5,26.2281 Z" clip-rule="evenodd" fill="rgb(1, 62, 124)" fill-rule="evenodd"/>
<path d="M 22.595,34.033 H 23.7188 L 23.6946,34.2649 S 24.1789,33.9998 24.639,33.9998 S 25.2444,34.1444 25.2928,34.289 C 25.2928,34.289 25.7529,33.9998 26.4067,33.9998 S 27.0121,34.4094 26.9878,34.5299 C 26.9636,34.6263 26.6246,35.6624 26.6246,35.6624 S 26.5278,35.8311 26.9636,35.8311 L 26.9394,35.9998 H 25.4381 L 25.4623,35.807 S 25.7287,35.8552 25.8255,35.6624 C 25.8982,35.4697 26.1645,34.6745 26.1645,34.6745 S 26.2856,34.3371 25.8497,34.3371 C 25.4139,34.3371 25.317,34.5299 25.317,34.5299 L 24.978,35.6143 S 24.9054,35.807 25.1717,35.807 V 35.9998 H 23.7673 V 35.807 H 24.0094 S 24.1547,35.8311 24.2031,35.542 C 24.2516,35.2769 24.4937,34.6022 24.4937,34.6022 S 24.5179,34.3131 24.1789,34.3131 S 23.6462,34.5058 23.622,34.6022 S 23.3072,35.5902 23.3072,35.5902 S 23.2346,35.807 23.5009,35.807 V 35.9998 H 21.9996 V 35.807 H 22.3144 S 22.4839,35.807 22.5323,35.5661 C 22.5808,35.3251 22.8955,34.3612 22.8955,34.3612 S 22.944,34.2167 22.5565,34.2167 L 22.605,34.048 Z" clip-rule="evenodd" fill="rgb(1, 62, 124)" fill-rule="evenodd"/>
<path d="M 33.78,34.985 H 32.1168 C 31.8815,35.4255 31.9861,35.8085 32.4567,35.8085 C 32.9272,35.8085 33.1364,35.383 33.1364,35.383 H 33.6593 C 33.607,35.7021 33.2671,36 32.2475,36 S 31.1233,35.5745 31.3325,34.8298 C 31.5416,34.0851 32.2214,34 32.9795,34 C 33.7377,34 33.9991,34.2128 33.9991,34.5532 S 33.79,35 33.79,35 Z M 33.058,34.8298 H 32.1691 S 32.2998,34.1489 32.8488,34.1489 S 33.058,34.8298 33.058,34.8298 Z" clip-rule="evenodd" fill="rgb(1, 62, 124)" fill-rule="evenodd"/>
<path d="M 17.74,32.985 H 19.3882 V 33.1667 S 18.9145,33.1667 18.8553,33.381 C 18.7961,33.619 18.2434,35.5952 18.2434,35.5952 H 19.1513 L 19.5658,35.0476 H 20 L 19.7829,36 H 17 L 17.0592,35.6905 H 17.3947 L 18.0658,33.3095 L 17.6118,33.1905 L 17.75,33 Z" clip-rule="evenodd" fill="rgb(1, 62, 124)" fill-rule="evenodd"/>
<path d="M 20.598,33.995 C 20.6586,33.9866 22.0004,34.01 22.0004,34.01 L 21.4181,35.6953 L 21.8232,35.7421 V 35.9996 H 20.0004 L 20.051,35.7421 H 20.4308 L 20.9877,34.3377 H 20.532 L 20.608,34.01 Z" clip-rule="evenodd" fill="rgb(1, 62, 124)" fill-rule="evenodd"/>
<path d="M 21.433999999999997,32.985 C 21.6793,33 21.8885,33.1536 21.8885,33.3328 S 21.6793,33.6656 21.444,33.6656 S 20.9996,33.512 20.9996,33.3328 S 21.2087,33 21.444,33 Z" clip-rule="evenodd" fill="rgb(1, 62, 124)" fill-rule="evenodd"/>
<path d="M 27.598,33.985 H 29.0004 L 28.4181,35.6957 L 28.8232,35.7425 V 36 H 27.0004 L 27.051,35.7425 H 27.4308 L 28.0004,34.3381 H 27.532 L 27.608,34 Z" clip-rule="evenodd" fill="rgb(1, 62, 124)" fill-rule="evenodd"/>
<path d="M 28.433999999999997,32.985 C 28.6793,33 28.8885,33.1536 28.8885,33.3328 S 28.6793,33.6656 28.444,33.6656 S 27.9996,33.512 27.9996,33.3328 S 28.2087,33 28.444,33 Z" clip-rule="evenodd" fill="rgb(1, 62, 124)" fill-rule="evenodd"/>
<path d="M 30.909,32.985 L 30.0127,33.275 L 29.8245,34 H 29.3245 V 34.325 H 29.7308 L 29.3926,35.275 S 29.0587,36 29.8696,36 H 30.7759 V 35.65 H 30.2035 L 30.6058,34.325 H 31.3245 V 34 H 30.6878 L 30.919,33 Z" clip-rule="evenodd" fill="rgb(1, 62, 124)" fill-rule="evenodd"/>
<path d="M 36.99,35.585 L 38,33 H 36.5057 L 36.4559,33.1778 L 36.9291,33.2889 L 36.5804,34.2222 S 36.4808,34 35.8581,34 C 34.6627,34 34.1895,34.8667 34.1895,35.2667 S 34.4635,36 35.1608,36 S 36,35.7556 36,35.7556 L 36.1072,36 H 37.4521 V 35.6 H 37 Z M 35.7409,34.3554 H 35.7265 C 35.164,34.3555 35,34.7069 35,35 C 35,35.4023 35.1279,35.6328 35.4765,35.6328 C 35.8999,35.6328 36.3184,35.4217 36.3184,34.8884 C 36.3184,34.3521 35.8847,34.3546 35.7409,34.3554 Z" clip-rule="evenodd" fill="rgb(1, 62, 124)" fill-rule="evenodd"/>
</svg>
