<?xml version="1.0" encoding="UTF-8"?>
<!-- generated by Finnhub -->
<svg viewBox="0 0 55.5 55.5" xmlns="http://www.w3.org/2000/svg">
<path d="M 0,0 H 55.5 V 55.5 H 0 Z" fill="url(#a)"/>
<path d="M 12.99,14.985 H 43 V 17 H 13 Z M 13,39 H 43 V 41 H 13 Z" fill="rgb(112, 201, 253)"/>
<path d="M 21.99,18.985 H 13 V 37 H 16 V 29 H 17.81 C 18.63,29.28 21.24,31.22 24.5,37 H 28 C 26.78,34.45 23.85,29.35 21.81,29 H 22 A 5,5 0 0,0 22,19 Z M 16,26 V 22 H 22 A 2,2 0 0,1 22,26 H 16 Z M 29,19 V 37 H 32 V 24.94 L 40,37 H 43 V 19 H 40 V 31.33 L 32,19 H 29 Z" fill="rgb(254, 254, 253)"/>
<defs>
<linearGradient id="a" x1="10.42" x2="68.15" y1="9.71" y2="76.02" gradientUnits="userSpaceOnUse">
<stop stop-color="rgb(25, 29, 31)" offset="0"/>
<stop stop-color="rgb(5, 5, 8)" offset="1"/>
</linearGradient>
</defs>
</svg>
