<?xml version="1.0" encoding="UTF-8"?>
<!-- generated by Finnhub -->
<svg viewBox="0 0 55.5 55.5" xmlns="http://www.w3.org/2000/svg">
<path d="M 56,0 H 0 V 56 H 56 V 0 Z" fill="rgb(239, 242, 248)"/>
<path d="M 8.99,25.985 H 10 V 29 H 9 V 26 Z M 9,24 H 10 V 25 H 9 V 24 Z" fill="rgb(34, 30, 30)"/>
<path d="M 3.99,30.985 H 52 V 32 H 4 V 31 Z" fill="rgb(254, 222, 2)"/>
<path d="M 32.49,27.445 C 32.5,26.38 31.48,26.14 30.66,25.95 C 30.11,25.82 29.64,25.71 29.64,25.37 C 29.64,25.04 29.93,24.83 30.39,24.83 C 30.92,24.83 31.44,25.02 31.83,25.35 L 32.37,24.65 A 2.75,2.75 0 0,0 30.5,24 C 29.41,24 28.65,24.6 28.65,25.46 C 28.65,26.52 29.65,26.76 30.45,26.94 C 31.02,27.08 31.52,27.19 31.52,27.58 C 31.52,27.87 31.24,28.16 30.62,28.16 A 2.28,2.28 0 0,1 29.04,27.52 L 28.51,28.25 A 2.76,2.76 0 0,0 30.56,29 C 31.78,29 32.51,28.42 32.51,27.46 Z M 19,24 H 18 V 25 H 19 V 24 Z M 6.97,29 H 8 L 7.16,26.96 C 7.71,26.74 7.99,26.18 7.99,25.6 C 8.05,24.68 7.2,23.95 6.31,24 H 4 V 29 H 5 V 27 H 6.3 L 6.97,29 Z M 5,26.33 V 25 H 6.14 C 6.61,25 6.94,25.18 6.94,25.67 C 6.94,26.09 6.61,26.33 6.14,26.33 H 5 Z M 16,29 V 26.54 C 16,26.18 15.78,25.92 15.35,25.92 C 15.18,25.92 15.02,25.97 14.88,26.05 C 14.74,26.13 14.61,26.24 14.53,26.37 V 29 H 13.47 V 26.54 C 13.47,26.18 13.3,25.92 12.87,25.92 C 12.71,25.92 12.55,25.97 12.4,26.05 A 1.2,1.2 0 0,0 12,26.38 V 29 H 11.05 L 11,25 H 12 V 25.6 C 12.16,25.42 12.4,25.28 12.63,25.17 C 12.85,25.07 13.1,25.01 13.35,25 C 13.6,24.98 13.84,25.04 14.05,25.17 A 1,1 0 0,1 14.45,25.71 A 1.76,1.76 0 0,1 15.82,25 C 16.56,25 17,25.38 17,26.18 V 29 H 16 Z M 18,26 H 19 V 29 H 18 V 26 Z M 23,26.64 V 29 H 24 V 26.24 C 24,25.48 23.55,25 22.61,25 C 22.33,25 22.05,25.05 21.79,25.16 C 21.53,25.26 21.19,25.41 21,25.61 V 25 H 20 V 29 H 21 V 26.37 C 21.1,26.25 21.32,26.14 21.49,26.07 L 21.54,26.04 C 21.71,25.96 21.9,25.92 22.09,25.91 C 22.57,25.91 23,26.1 23,26.64 Z M 25,24 H 26 V 25 H 25 V 24 Z M 26,26 H 25 V 29 H 26 V 26 Z M 34,26 V 27.97 C 34,28.64 34.35,29 35.05,29 C 35.35,29.02 35.65,28.93 35.89,28.76 L 35.68,28.01 A 0.56,0.56 0 0,1 35.33,28.12 C 35.11,28.12 35,27.94 35,27.71 V 26 H 36 V 25 H 34.98 V 24 H 34 V 25 H 33 V 26 H 34 Z M 49.5,27.97 V 26 H 48.5 V 25 H 49.5 V 24 H 50.48 V 25 H 51.5 V 26 H 50.5 V 27.7 C 50.5,27.94 50.6,28.12 50.83,28.12 C 50.96,28.12 51.08,28.08 51.18,28.02 L 51.39,28.76 C 51.16,28.93 50.86,29.02 50.55,29 C 49.85,29 49.5,28.64 49.5,27.97 Z M 37,25 V 29 H 38 V 26.42 C 38.2,26.15 38.38,25.99 38.75,25.98 C 38.83,25.98 38.92,25.98 39,26 V 25 C 38.79,25.01 38.58,25.07 38.39,25.18 C 38.19,25.29 38.03,25.44 37.9,25.63 V 25 H 37 Z M 41.53,25.8 C 41.9,25.78 42.51,26.06 42.52,26.47 H 40.58 C 40.61,26.06 41.17,25.8 41.53,25.8 Z M 39.5,27 C 39.5,25.9 40.34,25 41.53,25 C 43.43,25 43.5,26.5 43.5,27 H 40.58 C 40.58,27.5 40.75,27.8 40.96,27.97 C 41.16,28.13 41.44,28.22 41.71,28.2 C 42.1,28.2 42.47,28.06 42.76,27.82 L 43.22,28.47 A 2.5,2.5 0 0,1 41.6,29 C 40.4,29 39.5,28.22 39.5,27 Z M 46.03,25.8 Z M 45.08,26.47 C 45.11,26.06 45.67,25.8 46.03,25.8 C 46.4,25.78 47.01,26.06 47.02,26.47 H 45.08 Z M 46.03,25 C 44.83,25 44,25.9 44,27 C 44,28.22 44.9,29 46.1,29 A 2.5,2.5 0 0,0 47.72,28.47 L 47.26,27.82 A 1.7,1.7 0 0,1 46.21,28.2 C 45.94,28.22 45.67,28.13 45.46,27.97 C 45.25,27.81 45.08,27.5 45.08,27 H 48 C 48,26.5 47.93,25 46.03,25 Z" fill="rgb(34, 30, 30)" fill-rule="evenodd"/>
</svg>
