<?xml version="1.0" encoding="UTF-8"?>
<!-- generated by Finnhub -->
<svg viewBox="0 0 55.5 55.5" xmlns="http://www.w3.org/2000/svg">
<rect width="56" height="56" fill="rgb(239, 242, 248)"/>
<path d="M 16.99,23.535 C 17,23.4447 17.0525,23.3921 17.105,23.3394 C 18.3652,22.4969 19.5203,21.4963 20.5704,20.4432 C 21.568,19.4427 22.4606,18.2842 23.3007,17.1257 C 23.3532,17.0204 23.4582,16.9677 23.5633,17.0204 C 25.0334,17.2837 26.5561,17.5784 28.0787,17.5784 C 29.4964,17.5784 30.9141,17.2837 32.3318,17.0204 C 32.4368,17.0204 32.5418,17.0204 32.5943,17.1257 C 33.4344,18.3895 34.432,19.548 35.4821,20.6012 C 36.4798,21.6017 37.6349,22.4969 38.8425,23.3394 C 38.9475,23.3921 39,23.4974 38.9475,23.6027 C 38.685,25.0508 38.5307,26.5253 38.5372,27.9997 C 38.5438,29.4741 38.7112,30.9486 39,32.3967 C 39,32.502 39.0001,32.6073 38.895,32.66 C 37.6349,33.5025 36.4797,34.503 35.4296,35.5562 C 34.432,36.5567 33.5394,37.7152 32.6993,38.8737 C 32.6468,38.979 32.5417,39.0317 32.4367,38.979 C 30.9666,38.7157 29.4439,38.5789 27.9213,38.5789 C 26.5035,38.5789 25.0334,38.7157 23.6683,38.979 C 23.5633,38.979 23.4582,38.979 23.4057,38.8737 C 22.5656,37.6099 21.568,36.4514 20.5179,35.3982 C 19.5203,34.3977 18.3652,33.4499 17.1575,32.66 C 17.0525,32.6073 17,32.502 17.0525,32.3967 C 17.3162,30.9421 17.502,29.4742 17.4942,27.9997 C 17.4864,26.5384 17.2875,25.0705 17,23.6027 V 23.55 Z M 23.6158,17.4943 C 22.8282,18.6528 21.9356,19.7586 20.938,20.7591 C 19.8878,21.8123 18.7327,22.8128 17.5251,23.6554 C 17.7904,25.0923 17.9896,26.5427 18,27.9997 C 18.0102,29.426 17.8373,30.8587 17.5776,32.2914 C 18.7327,33.0813 19.8353,33.9765 20.8329,34.977 C 21.8831,36.0302 22.8807,37.1886 23.7208,38.3998 C 25.0859,38.1365 26.5035,37.9997 27.9213,37.9997 C 29.3914,37.9997 30.9141,38.0838 32.3318,38.3471 C 33.1194,37.1886 34.0119,36.0828 35.0096,35.0823 C 36.0597,34.0291 37.2148,33.0286 38.4225,32.1861 C 38.1679,30.8074 38.0137,29.4039 38,27.9997 C 37.9854,26.5077 38.1265,25.0149 38.37,23.55 C 37.2148,22.7602 36.1122,21.865 35.1146,20.8644 C 34.0645,19.8113 33.0669,18.6528 32.2268,17.4416 C 30.8616,17.7049 29.4983,17.9997 28.0263,17.9997 C 26.4754,17.9997 25.0859,17.7576 23.6158,17.4943 Z" fill="rgb(189, 131, 93)"/>
<path d="M 11.303,24.730999999999998 V 24.694 C 11.7299,22.5071 12.5636,20.4765 13.8142,18.6542 C 13.8663,18.55 13.9705,18.55 14.0747,18.55 S 14.2831,18.6021 14.2831,18.7062 C 14.9084,20.06 15.4295,21.4658 15.7942,22.8716 C 15.8463,22.9757 15.7942,23.0799 15.69,23.184 C 14.4395,23.965 13.0847,24.5898 11.7299,25.0584 C 11.6257,25.1105 11.5214,25.0584 11.4693,25.0064 C 11.3651,24.9022 11.313,24.8502 11.313,24.746 Z M 13.9705,19.3831 C 13.0326,20.9451 12.3552,22.6113 11.9383,24.3816 C 13.0847,23.965 14.1789,23.4443 15.169,22.8195 C 14.9084,21.622 14.4916,20.4765 13.9705,19.3831 Z" fill="rgb(189, 131, 93)"/>
<path d="M 40.17,22.752 V 22.7149 C 40.5448,21.3091 41.0137,19.9033 41.639,18.5495 C 41.6911,18.4454 41.7432,18.3933 41.8474,18.3933 C 41.9517,18.3933 42.0559,18.4454 42.108,18.4975 C 43.3586,20.3198 44.1923,22.3504 44.6612,24.5373 C 44.6612,24.6414 44.6612,24.7455 44.557,24.7976 C 44.5049,24.8497 44.4007,24.9017 44.2965,24.8497 C 42.8896,24.3811 41.5348,23.7563 40.2842,22.9752 C 40.2321,22.9752 40.18,22.8711 40.18,22.767 Z M 41.9517,19.2264 C 41.4306,20.3198 41.0658,21.4653 40.7532,22.6628 C 41.7953,23.2876 42.8896,23.8083 44.036,24.2249 C 43.6191,22.4546 42.8896,20.7884 41.9517,19.2264 Z" fill="rgb(189, 131, 93)"/>
<path d="M 34.04,39.019999999999996 C 34.05,38.9851 34.05,38.9353 34.0997,38.8854 C 34.7467,37.9881 35.4435,37.1406 36.19,36.343 C 36.9862,35.5453 37.882,34.7477 38.8275,34.0498 C 38.8773,33.9999 38.9768,33.9999 39.0764,33.9999 C 39.1759,34.0498 39.2257,34.0996 39.2257,34.1993 C 39.6238,35.6949 40.221,37.1406 40.9675,38.5365 C 41.0173,38.6362 41.0173,38.7359 40.9178,38.8356 C 40.3206,39.5834 39.574,40.2813 38.8275,40.9294 C 38.728,40.9792 38.6285,41.0291 38.529,40.9793 C 37.1355,40.2315 35.6425,39.6831 34.1993,39.2843 C 34.0998,39.2843 34.05,39.1846 34.0002,39.1347 C 34.05,39.1347 34.05,39.0849 34.05,39.035 Z M 38.8773,34.7477 C 38.081,35.3459 37.2848,36.0439 36.5881,36.7418 C 35.9411,37.3899 35.2941,38.1377 34.7467,38.8854 C 36.0904,39.2843 37.3844,39.7828 38.6783,40.4309 C 39.3253,39.8825 39.9224,39.2843 40.4698,38.6362 C 39.8229,37.3899 39.2754,36.0937 38.8773,34.7477 Z" fill="rgb(189, 131, 93)"/>
<path d="M 40.222,33.062 C 40.232,32.9728 40.2841,32.9208 40.3362,32.8687 C 41.5868,32.1398 42.8895,31.4629 44.2964,30.9943 C 44.4006,30.9422 44.5048,30.9943 44.5569,31.0464 C 44.609,31.0984 44.6611,31.2026 44.6611,31.3067 C 44.2443,33.4935 43.4106,35.5241 42.16,37.3465 C 42.1079,37.4506 42.0037,37.4506 41.8995,37.4506 C 41.7952,37.4506 41.691,37.3986 41.691,37.2944 C 41.0657,35.9407 40.5447,34.5349 40.1799,33.129 C 40.232,33.129 40.232,33.129 40.232,33.077 Z M 44.0359,31.6191 C 42.8895,32.0356 41.7952,32.5563 40.8052,33.1811 C 41.1178,34.3266 41.5347,35.4721 42.0037,36.5655 C 42.9937,35.0555 43.6711,33.3894 44.0359,31.6191 Z" fill="rgb(189, 131, 93)"/>
<path d="M 24.276999999999997,40.558 V 40.4689 C 24.3391,40.3648 24.3912,40.3127 24.4954,40.3127 C 25.6417,40.1044 26.7881,40.0002 27.9345,40.0002 C 29.1329,40.0002 30.3314,40.1044 31.582,40.2606 C 31.6862,40.2606 31.7383,40.3126 31.7904,40.4168 C 31.8425,40.5209 31.8425,40.573 31.7904,40.6771 C 31.0088,42.0829 30.3835,43.1258 29.8624,44.6879 C 29.8103,44.792 29.7582,44.8441 29.654,44.8961 C 29.0808,44.9482 28.5598,45.0003 28.0387,45.0003 C 27.5697,45.0003 27.1007,45.0003 26.5797,44.9482 C 26.4755,44.9482 26.3712,44.8441 26.3191,44.74 C 25.7981,43.1259 25.1728,42.083 24.3391,40.7292 C 24.3391,40.6772 24.287,40.6251 24.287,40.573 Z M 31.113,40.7812 C 30.0709,40.625 28.9766,40.573 27.9345,40.573 C 26.9444,40.573 25.9544,40.6772 24.9643,40.8334 C 25.6417,42.083 26.267,43.0217 26.736,44.4275 C 27.205,44.4796 27.5697,44.4796 27.9866,44.4796 C 28.4555,44.4796 28.9245,44.4796 29.3935,44.4275 C 29.8624,42.9176 30.4356,42.0309 31.113,40.7812 Z" fill="rgb(189, 131, 93)"/>
<path d="M 18.493,41.913 S 18.5551,41.928 18.503,41.928 C 18.503,41.8239 18.5551,41.7197 18.6593,41.6677 C 20.0141,41.0428 21.3689,40.5222 22.8279,40.1577 C 22.9321,40.1056 23.0885,40.1577 23.1406,40.2618 C 23.9222,41.5115 24.5475,42.8652 25.0164,44.271 C 25.0685,44.3751 25.0164,44.4793 24.9643,44.5314 C 24.9122,44.5834 24.808,44.6355 24.7038,44.6355 C 22.5153,44.2189 20.4831,43.3859 18.6593,42.1363 C 18.5551,42.1363 18.503,42.0321 18.503,41.928 Z M 22.7758,40.7825 C 21.6295,41.0949 20.4831,41.5115 19.3367,41.9801 C 20.9,42.9173 22.5674,43.6462 24.339,44.0107 C 23.9222,42.8652 23.4011,41.7718 22.7758,40.7825 Z" fill="rgb(189, 131, 93)"/>
<path d="M 31.104,44.36 V 44.2708 C 31.5829,42.865 32.2082,41.5113 32.9898,40.2616 C 33.0419,40.1575 33.1461,40.1054 33.3025,40.1575 C 34.7094,40.522 36.1163,40.9906 37.4711,41.6154 C 37.5753,41.6675 37.6274,41.7195 37.6274,41.8237 C 37.6274,41.9278 37.5753,42.0319 37.5232,42.084 C 35.6994,43.3336 33.6672,44.1667 31.4787,44.6353 C 31.3745,44.6353 31.2703,44.6353 31.2182,44.5312 C 31.114,44.4791 31.114,44.427 31.114,44.375 Z M 33.3546,40.7302 C 32.7293,41.7716 32.2082,42.865 31.7914,44.0105 C 33.563,43.5939 35.2304,42.9171 36.7937,41.9278 C 35.6473,41.4071 34.5009,40.9906 33.3546,40.7302 Z" fill="rgb(189, 131, 93)"/>
<path d="M 11.355,31.343 C 11.365,31.3059 11.4171,31.2018 11.4692,31.1497 S 11.6256,31.0456 11.7298,31.0976 C 13.0846,31.5662 14.4394,32.1911 15.6899,32.9721 C 15.7941,33.0241 15.8462,33.1283 15.7941,33.2845 C 15.4294,34.6903 14.9604,36.0961 14.3351,37.4499 C 14.283,37.5019 14.2309,37.554 14.1267,37.554 S 13.9183,37.5019 13.8662,37.4499 C 12.6156,35.6275 11.7819,33.5969 11.3129,31.41 C 11.365,31.41 11.365,31.358 11.365,31.358 Z M 15.2731,33.3365 C 14.2309,32.7117 13.1367,32.1911 11.9903,31.7745 C 12.4072,33.5448 13.0846,35.211 14.0746,36.7209 C 14.5436,35.6275 14.9604,34.482 15.2731,33.3365 Z" fill="rgb(189, 131, 93)"/>
<path d="M 14.99,17.299 C 15,17.2641 15,17.2143 15.0495,17.1644 C 15.6435,16.4166 16.386,15.7187 17.1285,15.0706 C 17.2275,15.0207 17.3265,14.9709 17.4255,15.0207 C 18.861,15.7685 20.2965,16.3169 21.7815,16.7157 C 21.8805,16.7157 21.93,16.8154 21.9795,16.8653 C 22.029,16.965 21.9795,17.0148 21.93,17.1145 C 21.2865,18.0119 20.5935,18.8594 19.851,19.657 C 19.059,20.4547 18.168,21.2523 17.2275,21.9502 C 17.178,22.0001 17.079,22.0001 16.98,22.0001 C 16.881,21.9502 16.8315,21.9004 16.8315,21.8007 C 16.4355,20.3051 15.8415,18.8594 15.099,17.4635 C 15.0495,17.4137 15,17.3638 15,17.314 Z M 17.376,15.5691 C 16.7325,16.1175 16.1385,16.7157 15.594,17.3638 C 16.2375,18.66 16.782,19.9561 17.178,21.3022 C 17.97,20.7039 18.762,20.006 19.455,19.3081 C 20.0985,18.66 20.742,17.9122 21.2865,17.1644 C 19.95,16.7157 18.6135,16.2172 17.376,15.5691 Z" fill="rgb(189, 131, 93)"/>
<path d="M 10.99,27.959 C 11,27.5053 11,27.0367 11.0521,26.5161 C 11.0521,26.4119 11.1563,26.3078 11.2605,26.2557 C 12.8238,25.7351 13.8577,25.1103 15.2646,24.3292 C 15.3167,24.2772 15.4209,24.2772 15.5251,24.3292 C 15.6293,24.3813 15.6814,24.4334 15.6814,24.5375 C 15.8852,25.683 15.9894,26.8285 16,27.974 C 16.0111,29.1715 15.92,30.369 15.7335,31.5666 C 15.7335,31.6707 15.6814,31.7228 15.5772,31.7749 C 15.473,31.8269 15.4209,31.8269 15.3167,31.7749 C 13.9098,30.9939 12.8759,30.369 11.3126,29.8484 C 11.2084,29.7963 11.1563,29.7442 11.1042,29.6401 C 11,29.0674 11,28.4946 11,27.974 Z M 11.5732,26.7243 C 11.5211,27.6615 11.5211,28.4426 11.5732,29.3798 C 13.0322,29.8484 13.9098,30.4211 15.1603,31.098 C 15.3207,30.0566 15.3851,29.0153 15.3676,27.974 C 15.351,26.9847 15.2606,25.9954 15.1082,25.0061 C 13.9098,25.683 13.0322,26.2557 11.5732,26.7243 Z" fill="rgb(189, 131, 93)"/>
<path d="M 14.99,38.62 C 15,38.5854 15,38.5358 15.0503,38.5358 C 15.8044,37.1464 16.2687,35.6578 16.6709,34.2188 C 16.6709,34.1196 16.7714,34.07 16.8217,34.0204 C 16.9222,33.9707 16.9725,34.0204 17.0731,34.07 C 17.978,34.715 18.8327,35.4097 19.6371,36.2036 C 20.4415,36.9976 21.2459,37.8907 21.9497,38.8335 C 22,38.8832 22,38.9824 22,39.0816 C 21.9497,39.1809 21.8995,39.2305 21.7989,39.2305 C 20.2907,39.6275 18.8327,40.2229 17.425,40.9672 C 17.3244,41.0168 17.2239,41.0168 17.1233,40.9176 C 16.3692,40.2725 15.7541,39.5778 15.1005,38.8335 C 15.0503,38.7343 15,38.6847 15,38.635 Z M 17.0731,34.6654 C 16.6709,36.0052 16.2569,37.2953 15.6033,38.5854 C 16.1563,39.2305 16.6709,39.8259 17.3244,40.3718 C 18.6316,39.7267 19.9387,39.1809 21.2962,38.7839 C 20.6929,37.99 19.989,37.1961 19.2852,36.5014 C 18.5813,35.8563 17.8272,35.2112 17.0731,34.6654 Z" fill="rgb(189, 131, 93)"/>
<path d="M 18.389,14.109 C 18.399,14.0198 18.4511,13.9678 18.5032,13.9157 C 20.327,12.6661 22.3592,11.833 24.5477,11.3644 C 24.6519,11.3644 24.7561,11.3644 24.8082,11.4685 C 24.8603,11.5206 24.9124,11.6247 24.8603,11.7289 C 24.3914,13.0826 23.7661,14.4364 23.0366,15.686 C 22.9845,15.7901 22.8803,15.8422 22.7239,15.7901 C 21.317,15.4256 19.9101,14.957 18.5554,14.3322 C 18.4511,14.3322 18.399,14.2281 18.399,14.124 Z M 24.235,11.9892 C 22.4634,12.4057 20.796,13.0826 19.2327,14.0719 C 20.327,14.5926 21.4734,14.957 22.6718,15.2694 C 23.245,14.2281 23.7661,13.1347 24.235,11.9892 Z" fill="rgb(189, 131, 93)"/>
<path d="M 33.99,17.002 V 16.9178 C 34.0499,16.8185 34.0997,16.7689 34.1994,16.7689 C 35.6949,16.3719 37.1407,15.7765 38.5365,15.0322 C 38.6362,14.9826 38.736,14.9826 38.8357,15.0818 C 39.5835,15.7269 40.2814,16.4216 40.9295,17.1659 C 40.9793,17.2651 41.0292,17.3643 40.9794,17.4636 C 40.2316,18.853 39.6831,20.3416 39.2843,21.7806 C 39.2843,21.8798 39.1847,21.9294 39.1348,21.979 C 39.0351,22.0287 38.9853,21.979 38.8856,21.9294 C 37.9882,21.2844 37.1407,20.5897 36.3431,19.7957 C 35.5454,19.0018 34.7477,18.1087 34.0498,17.1659 C 34.0498,17.1162 34,17.0666 34,17.017 Z M 38.6363,15.578 C 37.3401,16.2231 36.0439,16.7689 34.6979,17.1659 C 35.2961,17.9598 35.9941,18.7537 36.692,19.4484 C 37.3401,20.0935 38.0879,20.7385 38.8856,21.2844 C 39.2844,19.9446 39.7828,18.6545 40.4309,17.3643 C 39.8826,16.7193 39.2844,16.1238 38.6363,15.578 Z" fill="rgb(189, 131, 93)"/>
<path d="M 24.173,15.36 C 24.183,15.3229 24.183,15.2709 24.2351,15.2188 C 25.0168,13.813 25.642,12.8222 26.1631,11.2601 C 26.2152,11.156 26.2673,11.1039 26.3716,11.0519 C 26.9447,10.9998 27.4658,10.9998 27.9869,10.9998 C 28.4558,10.9998 28.9249,10.9998 29.4459,11.0519 C 29.5501,11.0519 29.6544,11.156 29.7065,11.2601 C 30.2275,12.8742 30.8528,13.865 31.6865,15.2188 C 31.7386,15.2709 31.7386,15.375 31.6865,15.4791 C 31.6344,15.5833 31.5823,15.6353 31.4781,15.6353 C 30.3317,15.8436 29.2375,15.9998 28.0911,15.9998 C 26.8926,15.9998 25.6421,15.8436 24.3915,15.6874 C 24.2873,15.6874 24.2351,15.6353 24.183,15.5312 V 15.375 Z M 26.6321,11.6246 C 26.1631,13.0825 25.59,13.9171 24.9126,15.2188 C 25.9547,15.375 27.101,15.4791 28.1431,15.4791 C 29.1332,15.4791 30.0712,15.3229 31.0612,15.1667 C 30.3838,13.9171 29.7585,13.0304 29.2896,11.6246 C 28.8206,11.5725 28.4037,11.5205 27.9869,11.5205 C 27.57,11.5205 27.1011,11.5725 26.6321,11.6246 Z" fill="rgb(189, 131, 93)"/>
<path d="M 39.99,27.855 C 40,26.7245 40.1042,25.5791 40.2605,24.4336 C 40.2605,24.3295 40.3126,24.2774 40.4169,24.2253 C 40.5211,24.1733 40.5732,24.1733 40.6774,24.2253 C 42.0843,25.0063 43.1502,25.6312 44.7134,26.1519 C 44.8176,26.2039 44.8697,26.256 44.9218,26.3601 C 45.026,27.4015 45.026,28.3387 44.9218,29.4321 C 44.9218,29.5362 44.8176,29.6404 44.7134,29.6924 C 43.1502,30.2131 42.0843,30.8378 40.6774,31.6188 C 40.6253,31.6709 40.5211,31.6709 40.4169,31.6188 C 40.3126,31.5667 40.2605,31.5147 40.2605,31.4106 C 40.1042,30.2651 40,29.0676 40,27.87 Z M 40.7816,24.9022 C 40.6503,25.9256 40.5852,26.9491 40.5862,27.9725 C 40.5873,28.9797 40.6524,29.9869 40.7816,30.9941 C 42.0322,30.3172 42.9939,29.6924 44.4008,29.2238 C 44.4529,28.2866 44.4529,27.5056 44.4008,26.5684 C 42.9939,26.1519 42.0322,25.5791 40.7816,24.9022 Z" fill="rgb(189, 131, 93)"/>
<path d="M 30.947,11.558 C 30.957,11.5209 30.957,11.4689 31.0092,11.4168 C 31.0613,11.3647 31.1655,11.3127 31.2697,11.3127 C 33.4582,11.7292 35.4903,12.5623 37.3662,13.8119 C 37.4704,13.864 37.4704,13.9681 37.4704,14.0722 C 37.4704,14.1764 37.4183,14.2805 37.3141,14.2805 C 35.9593,14.9053 34.6045,15.426 33.1455,15.7905 C 33.0413,15.8425 32.885,15.7905 32.8329,15.6863 C 32.0513,14.4367 31.426,13.083 30.957,11.6771 V 11.573 Z M 36.6367,13.9681 C 35.0735,13.0309 33.406,12.302 31.6344,11.9375 C 32.0512,13.083 32.6244,14.1764 33.1976,15.2177 C 34.3961,14.9053 35.5424,14.4888 36.6367,13.9681 Z" fill="rgb(189, 131, 93)"/>
</svg>
