<?xml version="1.0" encoding="UTF-8"?>
<!-- generated by Finnhub -->
<svg viewBox="0 0 55.5 55.5" xmlns="http://www.w3.org/2000/svg">
<path d="M 0,0 H 55.5 V 55.5 H 0 Z" fill="url(#a)"/>
<path d="M 40.300000000000004,21.245 A 6.77,6.77 0 0,0 34.66,14.79 C 34.28,14.73 33.66,14.7 32.8,14.7 H 23.25 C 22.34,14.7 21.67,14.74 21.25,14.82 A 6.67,6.67 0 0,0 16.56,18.18 A 7.43,7.43 0 0,0 15.68,22 V 26.31 C 15.68,26.39 15.64,26.43 15.57,26.43 H 14.07 C 14.06,26.43 14.04,26.43 14.03,26.41 A 14.19,14.19 0 0,1 14.11,20.25 A 8.48,8.48 0 0,1 21.26,13.09 C 21.7,13.03 22.36,13 23.27,13 H 33.63 A 8.5,8.5 0 0,1 34.11,29.98 A 2941.21,2941.21 0 0,1 24.06,29.98 C 24.05,29.96 24,29.95 24,29.93 V 28.37 C 24,28.33 24.06,28.31 24.1,28.31 H 32.8 C 33.7,28.31 34.37,28.26 34.8,28.18 A 6.8,6.8 0 0,0 40.31,21.26 Z" fill="rgb(254, 254, 253)"/>
<path d="M 20.0,21.715 C 20.13,22.55 20.88,23.13 21.71,23.02 A 1.5,1.5 0 0,0 22.99,21.33 A 1.5,1.5 0 0,0 21.29,20.04 A 1.5,1.5 0 0,0 20.01,21.73 Z M 26.02,21.72 A 1.5,1.5 0 0,0 27.72,22.98 A 1.5,1.5 0 0,0 28.98,21.28 A 1.5,1.5 0 0,0 27.28,20.02 A 1.5,1.5 0 0,0 26.02,21.72 Z M 32.01,21.66 C 32.11,22.49 32.84,23.08 33.67,22.99 A 1.5,1.5 0 0,0 34.99,21.34 A 1.5,1.5 0 0,0 33.33,20 A 1.5,1.5 0 0,0 32.01,21.65 Z M 15.68,31.27 C 15.68,31.4 15.71,31.42 15.79,31.32 A 8.08,8.08 0 0,1 22.36,28.28 C 22.39,28.28 22.41,28.29 22.41,28.33 V 29.94 C 22.41,29.97 22.39,29.99 22.36,29.99 C 20.12,30.14 18.32,30.77 16.96,32.42 C 16.39,33.1 16.01,33.91 15.81,34.85 C 15.71,35.28 15.67,35.96 15.67,36.9 A 5634.19,5634.19 0 0,0 15.65,40.97 A 0.08,0.08 0 0,1 15.59,41 H 14.05 A 0.05,0.05 0 0,1 14.01,40.97 V 28.13 C 14.01,28.09 14.02,28 14.06,28 H 15.62 C 15.66,28 15.68,28.09 15.68,28.12 V 31.27 Z M 38.93,38.75 C 39.07,39.05 39.33,39.24 39.68,39.32 L 39.95,39.39 C 39.98,39.4 40,39.42 40,39.46 V 40.95 C 40,40.98 39.98,41 39.94,41 C 38.54,40.92 37.4,40.14 37.09,38.92 A 4.75,4.75 0 0,1 37,37.85 V 32.06 C 37,32.02 37.02,32 37.07,32 H 38.75 C 38.77,32 38.79,32 38.8,32.02 L 38.82,32.06 V 38.16 C 38.83,38.42 38.86,38.62 38.92,38.75 Z" fill="rgb(254, 254, 253)"/>
<path d="M 21.65,38.765 C 21.56,38.62 21.37,38.06 21.59,37.9 C 21.79,37.75 22.17,37.72 22.41,37.72 C 23.43,37.74 24.15,37.73 24.57,37.72 C 25.8,37.66 26.77,36.87 26.7,35.64 C 26.56,33.31 23.81,32.5 21.87,33.3 A 2.84,2.84 0 0,0 20,36.36 V 37.11 C 19.98,37.73 19.97,38.37 20.11,38.84 C 20.94,41.61 25.32,41.72 26.51,39.14 A 0.1,0.1 0 0,0 26.48,39.03 A 0.1,0.1 0 0,0 26.45,39.01 L 25.22,38.59 H 25.17 A 0.07,0.07 0 0,0 25.14,38.63 C 24.48,39.87 22.43,39.93 21.65,38.78 Z M 21.53,36.38 H 21.55 C 22.19,36.32 22.98,36.32 24.22,36.33 C 24.82,36.33 25.4,36.2 25.19,35.48 A 1.25,1.25 0 0,0 24.49,34.65 C 23.62,34.25 22.39,34.34 21.76,35.11 C 21.46,35.47 21.46,35.94 21.5,36.34 V 36.36 L 21.52,36.37 L 21.53,36.38 Z M 33.35,35.23 C 33.45,35.38 33.63,35.95 33.42,36.1 C 33.21,36.25 32.83,36.29 32.6,36.28 A 40.05,40.05 0 0,0 30.43,36.28 C 29.2,36.34 28.23,37.12 28.3,38.35 C 28.43,40.68 31.18,41.5 33.12,40.71 A 2.84,2.84 0 0,0 35,37.65 V 36.9 C 35.02,36.27 35.03,35.63 34.9,35.16 C 34.07,32.39 29.7,32.28 28.5,34.86 A 0.1,0.1 0 0,0 28.52,34.96 A 0.1,0.1 0 0,0 28.56,34.98 L 29.78,35.4 H 29.83 C 29.85,35.4 29.86,35.39 29.87,35.37 C 30.53,34.13 32.58,34.07 33.36,35.23 Z M 33.46,37.62 C 32.82,37.68 32.03,37.69 30.78,37.68 C 30.18,37.68 29.59,37.82 29.8,38.54 C 29.92,38.93 30.15,39.2 30.51,39.37 C 31.39,39.77 32.63,39.67 33.25,38.9 C 33.55,38.53 33.55,38.06 33.51,37.66 V 37.64 L 33.49,37.63 L 33.48,37.62 H 33.46 Z" fill="rgb(254, 254, 253)" fill-rule="evenodd"/>
<defs>
<linearGradient id="a" x1="28" x2="28" y2="56" gradientUnits="userSpaceOnUse">
<stop stop-color="rgb(55, 246, 77)" offset="0"/>
<stop stop-color="rgb(17, 189, 28)" offset="1"/>
</linearGradient>
</defs>
</svg>
