<?xml version="1.0" encoding="UTF-8"?>
<!-- generated by Finnhub -->
<svg viewBox="0 0 55.5 55.5" xmlns="http://www.w3.org/2000/svg">
<path d="M 0,0 H 55.5 V 55.5 H 0 Z" fill="rgb(239, 242, 248)"/>
<path d="M 22.99,13.985 A 2,2 0 1,0 23,10 A 2,2 0 0,0 23,14 Z M 23,13 A 1,1 0 1,0 23,11 A 1,1 0 0,0 23,13 Z" fill="url(#d)" fill-rule="evenodd"/>
<path d="M 14.74,25.985 A 2.75,2.75 0 1,0 14.75,20.5 A 2.75,2.75 0 0,0 14.75,26 Z M 14.75,25 A 1.75,1.75 0 1,0 14.75,21.5 A 1.75,1.75 0 0,0 14.75,25 Z" fill="url(#c)" fill-rule="evenodd"/>
<path d="M 23.49,42.985 A 3.5,3.5 0 1,0 23.5,36 A 3.5,3.5 0 0,0 23.5,43 Z M 23.5,42 A 2.5,2.5 0 1,0 23.5,37 A 2.5,2.5 0 0,0 23.5,42 Z" fill="url(#b)" fill-rule="evenodd"/>
<path d="M 41.550000000000004,13.504999999999999 A 0.54,0.54 0 0,1 42.36,14.26 L 34.26,22.92 S 34.07,23.13 34.02,23.42 A 7.47,7.47 0 0,1 35.97,27.88 C 36.21,28 36.44,28 36.44,28 H 40.19 A 0.5,0.5 0 1,1 40.19,29 H 36.43 S 36.21,29 35.98,29.1 A 7.46,7.46 0 0,1 33.68,33.92 A 1.3,1.3 0 0,0 33.91,34.46 L 33.92,34.48 L 33.93,34.49 L 35.6,36.72 A 0.54,0.54 0 1,1 34.73,37.37 L 33.06,35.12 A 1.35,1.35 0 0,0 32.63,34.76 A 7.46,7.46 0 0,1 29.23,35.96 A 1.18,1.18 0 0,0 29,36.61 V 46.5 A 0.5,0.5 0 1,1 28,46.5 V 36.58 S 28,36.23 27.81,35.97 A 7.5,7.5 0 0,1 22.47,32.97 C 22.17,32.94 21.9,33.07 21.82,33.12 L 21.79,33.13 L 21.78,33.14 L 18.1,35.34 A 0.54,0.54 0 0,1 17.54,34.42 L 21.23,32.21 S 21.57,32.01 21.69,31.65 A 7.46,7.46 0 0,1 21.03,29.23 C 20.75,29 20.38,29 20.38,29 H 10.5 A 0.5,0.5 0 0,1 10.5,28 H 20.37 S 20.74,28 21.04,27.75 A 7.5,7.5 0 0,1 23.92,22.55 A 1.47,1.47 0 0,0 23.72,21.96 L 19.07,15.03 A 0.54,0.54 0 1,1 19.97,14.43 L 24.63,21.39 A 1.31,1.31 0 0,0 25.13,21.8 A 7.47,7.47 0 0,1 29.73,21.1 A 1.31,1.31 0 0,0 30.2,20.41 L 31.32,16.42 A 0.54,0.54 0 0,1 32.36,16.72 L 31.22,20.79 V 20.82 C 31.19,20.9 31.14,21.22 31.26,21.52 C 31.86,21.76 32.42,22.07 32.94,22.45 C 33.24,22.39 33.46,22.19 33.46,22.19 L 41.56,13.52 Z M 28.5,35 A 6.5,6.5 0 1,0 28.5,22 A 6.5,6.5 0 0,0 28.5,35 Z" fill="url(#a)"/>
<defs>
<linearGradient id="d" x1="23" x2="23" y1="10" y2="14" gradientUnits="userSpaceOnUse">
<stop stop-color="rgb(23, 182, 198)" offset="0"/>
<stop stop-color="rgb(7, 120, 132)" offset="1"/>
</linearGradient>
<linearGradient id="c" x1="14.75" x2="14.75" y1="20.5" y2="26" gradientUnits="userSpaceOnUse">
<stop stop-color="rgb(23, 182, 198)" offset="0"/>
<stop stop-color="rgb(7, 120, 132)" offset="1"/>
</linearGradient>
<linearGradient id="b" x1="23.51" x2="23.51" y1="36.09" y2="43.07" gradientUnits="userSpaceOnUse">
<stop stop-color="rgb(23, 182, 198)" offset="0"/>
<stop stop-color="rgb(7, 120, 132)" offset="1"/>
</linearGradient>
<linearGradient id="a" x1="26.25" x2="26.25" y1="29.58" y2="47" gradientUnits="userSpaceOnUse">
<stop stop-color="rgb(242, 117, 82)" offset="0"/>
<stop stop-color="rgb(237, 56, 41)" offset="1"/>
</linearGradient>
</defs>
</svg>
