<?xml version="1.0" encoding="UTF-8"?>
<!-- generated by Finnhub -->
<svg viewBox="0 0 55.5 55.5" xmlns="http://www.w3.org/2000/svg">
<path d="M 0,0 H 55.5 V 55.5 H 0 Z" fill="rgb(201, 15, 3)"/>
<path d="M 5.99,23.985 V 33 H 7 V 29 H 8.23 L 10.8,33 H 12 L 9.34,28.86 A 2.42,2.42 0 0,0 11,26.5 C 11,25.09 9.91,24 8.5,24 H 6 Z M 7,25 V 28 H 8.5 C 9.37,28 10,27.36 10,26.5 S 9.37,25 8.5,25 H 7 Z" fill="rgb(250, 254, 251)" fill-rule="evenodd"/>
<path d="M 24.99,29.985 V 24 H 26 V 30 C 26,30.32 26.12,30.82 26.48,31.24 C 26.82,31.64 27.43,32 28.5,32 S 30.18,31.63 30.52,31.24 C 30.88,30.82 31,30.32 31,30 V 24 H 32 V 30 C 32,30.52 31.82,31.26 31.28,31.89 C 30.72,32.53 29.83,33 28.5,33 C 27.17,33 26.28,32.53 25.72,31.89 A 2.98,2.98 0 0,1 25,30 Z" fill="rgb(250, 254, 251)"/>
<path d="M 40.99,23.985 V 33 H 43 C 45.47,33 47,30.81 47,28.5 S 45.47,24 43,24 H 41 Z M 42,25 V 32 H 43 C 44.92,32 46,30.26 46,28.5 S 44.92,25 43,25 H 42 Z" fill="rgb(250, 254, 251)" fill-rule="evenodd"/>
<path d="M 32.99,32.985 V 24 L 39,30.5 V 24 H 40 V 33 L 34,26.5 V 33 H 33 Z M 50,21 H 46.5 L 46,22 H 49 V 33 H 50 V 21 Z M 6,21 H 45 V 22 H 6 Z" fill="rgb(250, 254, 251)"/>
<path d="M 22.99,29.165 C 23,30.86 22.21,32.35 21,33.29 V 31.11 L 19.64,28.31 C 19.86,27.97 20,27.56 20,27.11 C 20,25.98 19.1,25.06 18,25.06 S 16,25.98 16,27.12 C 16,27.56 16.14,27.97 16.36,28.3 L 15,31.11 V 33.3 A 5.19,5.19 0 0,1 13,29.18 A 5.07,5.07 0 0,1 18,24.03 C 20.76,24.03 23,26.33 23,29.18 Z M 16,32 V 35 A 6.17,6.17 0 0,1 12,29.18 A 6.09,6.09 0 0,1 18,23 C 21.31,23 24,25.77 24,29.18 A 6.17,6.17 0 0,1 20,35 V 32 H 16 Z M 18.85,28.98 L 19.83,31 H 16.17 L 17.15,28.98 A 1.94,1.94 0 0,0 18.85,28.98 Z M 19,27.12 C 19,27.69 18.55,28.15 18,28.15 S 17,27.69 17,27.12 C 17,26.55 17.45,26.09 18,26.09 S 19,26.55 19,27.12 Z" fill="rgb(250, 254, 251)" fill-rule="evenodd"/>
</svg>
