<?xml version="1.0" encoding="UTF-8"?>
<!-- generated by Finnhub -->
<svg viewBox="0 0 55.5 55.5" xmlns="http://www.w3.org/2000/svg">
<path d="M 0,0 H 55.5 V 55.5 H 0 Z" fill="rgb(239, 242, 248)"/>
<path d="M 28.09,15.485 L 9.06,18.28 A 3,3 0 0,0 6.49,21.24 V 35.09 A 3,3 0 0,0 9.11,38.06 L 28.08,40.5 L 46.88,38.07 A 3,3 0 0,0 49.49,35.1 V 21.24 A 3,3 0 0,0 46.93,18.27 L 28.09,15.5 Z"/>
<path d="M 28.09,14.985 L 47,17.78 A 3.5,3.5 0 0,1 50,21.24 V 35.1 A 3.5,3.5 0 0,1 46.95,38.56 L 28.09,41 L 9.06,38.56 A 3.5,3.5 0 0,1 6,35.09 V 21.24 A 3.5,3.5 0 0,1 9,17.78 L 28.1,15 Z M 28.1,16 L 9.13,18.78 A 2.5,2.5 0 0,0 7,21.24 V 35.09 A 2.5,2.5 0 0,0 9.18,37.57 L 28.09,39.99 L 46.82,37.57 A 2.5,2.5 0 0,0 49,35.1 V 21.24 A 2.5,2.5 0 0,0 46.86,18.77 L 28.1,16 Z" fill="rgb(253, 203, 10)"/>
<path d="M 28.02,32.815 L 28.64,34.33 L 30.24,34.46 L 29.02,35.51 L 29.4,37.08 L 28.03,36.24 L 26.65,37.08 L 27.03,35.51 L 25.8,34.46 L 27.4,34.33 L 28.03,32.83 Z" fill="rgb(253, 203, 10)"/>
<path d="M 10.99,31.145 V 23.49 L 13.7,23.31 C 14.29,23.26 15.45,23.56 15.41,25.12 C 15.37,26.94 14.86,26.92 14.49,26.92 H 14.41 C 14.74,27.01 15.41,27.37 15.41,28.08 V 30.82 L 13.57,30.97 V 28.07 C 13.57,27.9 13.45,27.55 13,27.58 V 30.97 L 11,31.16 Z M 13,26.33 V 24.63 C 13.2,24.59 13.57,24.7 13.57,25.43 C 13.57,26.15 13.21,26.33 13,26.33 Z M 40.45,30.93 V 23.26 L 43.22,23.36 C 43.87,23.48 45.03,23.68 45,25.26 C 44.97,26.82 44.23,27.15 43.87,27.15 C 44.21,27.25 45,27.55 45,28.25 V 31.22 L 43,31.06 V 27.85 C 43,27.67 42.91,27.32 42.47,27.35 V 31.06 L 40.45,30.93 Z M 42.47,26.2 V 24.73 C 42.6,24.7 43.05,24.85 43.05,25.47 C 43.05,26.1 42.6,26.2 42.47,26.2 Z" fill="rgb(253, 203, 10)" fill-rule="evenodd"/>
<path d="M 16.849999999999998,30.785 L 17.84,23.15 L 20.67,23 L 21.83,30.59 L 19.8,30.69 L 19.7,29.37 H 18.95 L 18.83,30.69 L 16.86,30.8 Z M 19.07,27.97 H 19.58 L 19.34,24.95 L 19.07,27.97 Z M 23,23 V 30.74 H 25 V 27.41 L 26.1,30.74 H 28 V 23 H 26 V 26.28 L 24.87,23 H 23 Z M 33.6,24.93 V 26 H 31.67 V 24.68 C 31.67,24.48 31.51,24.31 31.31,24.31 C 31.11,24.31 31,24.48 31,24.68 V 29.26 C 31,29.46 31.1,29.63 31.3,29.63 C 31.51,29.63 31.68,29.46 31.68,29.26 V 27.85 H 31.28 V 26.7 H 33.59 V 30.91 H 32.41 L 32.14,30.25 C 32.14,30.62 31.84,30.91 31.48,30.91 H 30.57 C 29.7,30.91 29,30.21 29,29.35 V 24.92 C 29,23.85 29.87,22.99 30.94,22.99 H 31.66 C 32.73,22.99 33.59,23.85 33.59,24.92 Z M 35.06,23.01 L 39,23.21 V 24.83 L 37,24.71 V 26.03 L 39,26.19 V 27.73 L 37,27.59 V 29.15 L 39,29.29 V 30.91 L 35.06,30.67 V 23.01 Z" fill="rgb(253, 203, 10)"/>
</svg>
