<?xml version="1.0" encoding="UTF-8"?>
<!-- generated by Finnhub -->
<svg viewBox="0 0 55.5 55.5" xmlns="http://www.w3.org/2000/svg">
<path d="M 0,0 H 55.5 V 55.5 H 0 Z" fill="rgb(239, 242, 248)"/>
<path d="M 3.99,21.985 H 52 V 34 H 4 V 22 Z M 5,23 H 51 V 33 H 5 V 23 Z M 6,25 H 7 V 27.52 H 9 V 25 H 10 V 31 H 9 V 28.52 H 7 V 31 H 6 V 25 Z M 18,25 H 19 V 27.52 H 21 V 25 H 22 V 31 H 21 V 28.52 H 19 V 31 H 18 V 25 Z M 12,25 H 11 V 31 H 12 V 25 Z M 36,25 H 35 V 31 H 38 V 30 H 36 V 25 Z M 38.5,25 H 39.5 V 30 H 41.5 V 31 H 38.5 V 25 Z M 42,25 H 45 V 26 H 43 V 27.5 H 45 V 28.5 H 43 V 30 H 45 V 31 H 42 V 25 Z M 17.5,29.8 C 17.25,30.2 16.44,31 15.18,31 C 13.61,31 12.5,29.77 12.5,28.04 C 12.5,26.3 13.72,25 15.18,25 C 16.35,25 17.15,25.79 17.4,26.18 L 16.57,27.01 C 16.43,26.73 15.96,26 15.18,26 C 14.22,26 13.73,27.18 13.73,28.04 C 13.73,28.9 14.29,30 15.18,30 C 15.9,30 16.5,29.35 16.5,29.35 V 28.5 H 15 V 27.5 H 17.5 V 29.8 Z M 25,25 V 31 H 26 V 28.63 H 26.2 L 27.54,30.98 H 29 L 27.48,28.54 C 28.08,28.3 28.52,27.62 28.52,26.81 C 28.52,25.81 27.74,25 26.91,25 H 25 Z M 26,26 H 26.76 C 27.17,26 27.5,26.34 27.5,26.75 S 27.17,27.5 26.76,27.5 H 26 V 26 Z M 46,25 H 47.9 C 48.74,25 49.52,25.81 49.52,26.81 C 49.52,27.61 49.09,28.31 48.48,28.54 L 50,30.98 H 48.54 L 47.19,28.63 H 47 V 31 H 46 V 25 Z M 47.76,26 H 47 V 27.5 H 47.76 C 48.17,27.5 48.5,27.16 48.5,26.75 A 0.74,0.74 0 0,0 47.76,26 Z M 31.5,31 C 32.88,31 34,29.66 34,28 S 32.88,25 31.5,25 S 29,26.34 29,28 S 30.12,31 31.5,31 Z M 31.5,30 C 32.33,30 33,29.1 33,28 S 32.33,26 31.5,26 S 30,26.9 30,28 S 30.67,30 31.5,30 Z" fill-rule="evenodd"/>
</svg>
