<?xml version="1.0" encoding="UTF-8"?>
<!-- generated by Finnhub -->
<svg viewBox="0 0 55.5 55.5" xmlns="http://www.w3.org/2000/svg">
<path d="M 0,0 H 55.5 V 55.5 H 0 Z" fill="rgb(239, 242, 248)"/>
<path d="M 42.99,12.985 H 13 V 43 H 43 V 13 Z M 41,15 H 15 V 41 H 41 V 15 Z" fill="rgb(2, 6, 6)" fill-rule="evenodd"/>
<path d="M 32.99,30.985 A 5,5 0 1,0 33,21 A 5,5 0 0,0 33,31 Z M 33,29 A 3,3 0 1,0 33,23 A 3,3 0 0,0 33,29 Z" fill="rgb(2, 6, 6)" fill-rule="evenodd"/>
<path d="M 29.99,31.985 H 36 V 34 H 30 Z M 19,21 H 23.5 A 3.5,3.5 0 0,1 24.32,27.9 L 28,34 H 25.5 L 21.88,28 H 21 V 34 H 19 V 21 Z M 21,23 V 26 H 23.5 A 1.5,1.5 0 0,0 23.5,23 H 21 Z" fill="rgb(2, 6, 6)"/>
</svg>
