<?xml version="1.0" encoding="UTF-8"?>
<!-- generated by Finnhub -->
<svg viewBox="0 0 55.5 55.5" xmlns="http://www.w3.org/2000/svg">
<path d="M 0,0 H 55.5 V 55.5 H 0 Z" fill="rgb(239, 242, 248)"/>
<path d="M 18.99,23.485 H 16.91 V 25 H 19 V 23.5 Z" fill="rgb(31, 73, 33)"/>
<path d="M 18.99,22.985 H 16.95 V 24 H 19 V 23 Z" fill="rgb(31, 12, 11)"/>
<path d="M 17.24,23.485 H 15.17 V 25 H 17.25 V 23.5 Z" fill="rgb(46, 179, 72)"/>
<path d="M 15.49,23.485 H 13.57 V 25 H 15.5 V 23.5 Z" fill="rgb(19, 121, 59)"/>
<path d="M 13.74,23.485 H 12 V 25 H 13.75 V 23.5 Z" fill="rgb(17, 32, 17)"/>
<path d="M 17.24,22.985 H 15.17 V 24 H 17.25 V 23 Z" fill="rgb(99, 187, 68)"/>
<path d="M 15.49,22.985 H 13.49 V 24 H 15.5 V 23 Z" fill="rgb(24, 49, 24)"/>
<path d="M 13.74,22.985 H 12 V 24 H 13.75 V 23 Z" fill="rgb(0, 0, 3)"/>
<path d="M 18.99,30.485 H 16.91 V 32 H 19 V 30.5 Z" fill="rgb(14, 26, 13)"/>
<path d="M 18.99,29.985 H 16.95 V 31 H 19 V 30 Z" fill="rgb(20, 120, 59)"/>
<path d="M 17.24,30.485 H 15.17 V 32 H 17.25 V 30.5 Z" fill="rgb(27, 60, 26)"/>
<path d="M 15.49,30.485 H 13.57 V 32 H 15.5 V 30.5 Z" fill="rgb(61, 18, 16)"/>
<path d="M 13.74,30.485 H 12 V 32 H 13.75 V 30.5 Z" fill="rgb(14, 26, 14)"/>
<path d="M 17.24,29.985 H 15.17 V 31 H 17.25 V 30 Z" fill="rgb(61, 18, 16)"/>
<path d="M 15.49,29.985 H 13.49 V 31 H 15.5 V 30 Z" fill="rgb(20, 159, 71)"/>
<path d="M 13.74,29.985 H 12 V 31 H 13.75 V 30 Z" fill="rgb(25, 52, 24)"/>
<path d="M 18.99,27.485 H 16.91 V 28.5 H 19 V 27.5 Z" fill="rgb(23, 177, 73)"/>
<path d="M 17.24,27.485 H 15.17 V 28.5 H 17.25 V 27.5 Z" fill="rgb(27, 60, 26)"/>
<path d="M 15.49,27.485 H 13.57 V 28.5 H 15.5 V 27.5 Z" fill="rgb(155, 27, 29)"/>
<path d="M 13.74,27.485 H 12 V 28.5 H 13.75 V 27.5 Z" fill="rgb(31, 73, 33)"/>
<path d="M 18.99,26.485 H 16.95 V 27.5 H 19 V 26.5 Z" fill="rgb(105, 188, 67)"/>
<path d="M 17.24,26.485 H 15.17 V 27.5 H 17.25 V 26.5 Z" fill="rgb(23, 131, 63)"/>
<path d="M 15.49,26.485 H 13.49 V 27.5 H 15.5 V 26.5 Z" fill="rgb(20, 120, 59)"/>
<path d="M 13.74,26.485 H 12 V 27.5 H 13.75 V 26.5 Z" fill="rgb(16, 24, 13)"/>
<path d="M 3.99,31.985 V 23 H 7.41 C 8.46,23 9.11,23.12 9.57,23.42 C 10.22,23.82 10.57,24.53 10.57,25.4 C 10.57,26.58 9.98,27.35 8.9,27.59 C 9.51,27.76 9.68,28.02 10.17,29.52 L 11,32 H 8.68 L 8,29.73 C 7.73,28.8 7.4,28.53 6.58,28.53 H 6 V 32 H 4 Z M 7.03,27 C 7.93,27 8.68,26.48 8.68,25.8 C 8.68,25.08 7.88,24.73 6.92,24.73 H 6 V 27 H 7.03 Z M 37,32 V 23 H 40.41 C 41.46,23 42.11,23.12 42.57,23.42 C 43.22,23.82 43.57,24.53 43.57,25.4 C 43.57,26.58 42.98,27.35 41.9,27.59 C 42.51,27.76 42.68,28.02 43.17,29.52 L 44,32 H 41.68 L 41,29.73 C 40.73,28.8 40.4,28.53 39.58,28.53 H 39 V 32 H 37 Z M 40.03,27 C 40.93,27 41.5,26.48 41.5,25.8 C 41.5,25.08 40.87,24.73 39.92,24.73 H 39 V 27 H 40.03 Z M 21,32 V 23 H 23.83 C 25.7,23 27,23.88 27,25.89 C 27,28.03 25.48,29 23.57,29 H 23 V 32 H 21 Z M 23.42,27 C 24.21,27 25.02,26.82 25,25.91 C 25,24.97 24.2,24.72 23.4,24.72 H 23 V 27 H 23.42 Z M 33.63,32 L 33,30 H 30 L 29.33,32 H 27 L 30.16,23 H 32.82 L 36,32 H 33.63 Z M 31.47,24.77 C 31.29,26.01 30.77,27.24 30.4,28.44 H 32.46 C 32.12,27.24 31.63,26.01 31.46,24.77 Z M 52,32 H 46 V 23 H 52 V 25 H 48 V 26.5 H 51 V 28.5 H 48 V 30 H 52 V 32 Z" fill="rgb(34, 30, 30)"/>
</svg>
