<?xml version="1.0" encoding="UTF-8"?>
<!-- generated by Finnhub -->
<svg viewBox="0 0 55.5 55.5" xmlns="http://www.w3.org/2000/svg">
<path d="M 0,0 H 55.5 V 55.5 H 0 Z" fill="rgb(239, 242, 248)"/>
<path d="M 24.08,12.985 H 43 L 38,18 H 24.68 A 6.67,6.67 0 0,0 18,24.66 V 38 L 13,43 V 24.05 C 13,17.95 17.96,13 24.09,13 Z" fill="rgb(28, 136, 111)"/>
<path d="M 31.9,42.985 H 13 L 18,38 H 31.32 C 35,38 38,35.02 38,31.34 V 18 L 43,13 V 31.95 C 43,38.05 38.04,43 31.91,43 Z" fill="rgb(131, 205, 187)"/>
<path d="M 29.99,22.985 C 29.45,23 29,23.41 29,23.92 V 31.08 C 29,31.58 29.45,32 30,32 H 34 C 34.55,32 35,31.51 35,31 S 34.55,30 34,30 H 31 V 28.5 H 33 C 33.55,28.5 34,28.01 34,27.5 S 33.55,26.5 33,26.5 H 31 V 25 H 34 C 34.55,25 35,24.51 35,24 S 34.55,23 34,23 H 30 Z"/>
<path d="M 23.99,28.985 H 25 L 26.63,31.33 C 26.77,31.54 27.23,32 27.93,32 C 28.73,32 29,31.57 29,31.33 C 29,31.21 28.92,31.06 28.6,30.63 C 28.35,30.28 27.26,28.86 26.75,28.19 C 27.25,28 28,27.26 28,25.75 C 28,23.86 26.79,23 24.73,23 S 22,23.4 22,23.98 V 31 A 1,1 0 1,0 24,31 V 29 Z M 24,27 H 24.73 C 25.16,27 26,26.81 26,25.87 C 26,25.11 25.36,25.04 25,25 H 24.06 L 24,25.03 V 27 Z" fill-rule="evenodd"/>
</svg>
