<?xml version="1.0" encoding="UTF-8"?>
<!-- generated by Finnhub -->
<svg viewBox="0 0 55.5 55.5" xmlns="http://www.w3.org/2000/svg">
<path d="M 0,0 H 55.5 V 55.5 H 0 Z" fill="rgb(168, 30, 34)"/>
<path d="M 45.986000000000004,22.985 H 47.456 V 28.251 L 49.554,26 H 51.367 L 48.265,29.178 L 52,33 H 50.275 L 47.457,30.06 V 33 H 45.996 V 23 Z M 45.478,28.478 H 43.888 A 1.294,1.294 0 0,0 43.385,27.555 C 43.094,27.33 42.712,27.218 42.239,27.218 C 41.609,27.218 41.131,27.41 40.809,27.8 C 40.486,28.188 40.322,28.76 40.322,29.516 C 40.322,30.254 40.482,30.821 40.803,31.206 C 41.123,31.596 41.588,31.789 42.198,31.789 C 42.682,31.789 43.077,31.67 43.376,31.433 C 43.674,31.193 43.861,30.853 43.931,30.406 H 45.5 C 45.425,31.223 45.083,31.864 44.471,32.327 C 43.861,32.794 43.049,33 42.036,33 C 40.994,33 40.169,32.715 39.561,32.088 C 38.953,31.462 38.648,30.614 38.648,29.541 C 38.648,28.443 38.963,27.584 39.592,26.96 C 40.223,26.337 41.09,26 42.199,26 C 43.165,26 43.942,26.242 44.527,26.68 C 45.114,27.116 45.433,27.715 45.479,28.478 Z M 34.24,26 C 35.41,26 36.328,26.334 36.994,26.956 C 37.663,27.577 37.995,28.435 37.995,29.529 C 37.995,30.619 37.665,31.478 37.002,32.098 C 36.339,32.718 35.422,33 34.254,33 C 33.082,33 32.162,32.72 31.501,32.101 C 30.836,31.483 30.506,30.624 30.506,29.529 C 30.506,28.43 30.836,27.574 31.496,26.954 C 32.157,26.334 33.071,26 34.24,26 Z M 34.254,27.218 C 33.582,27.218 33.062,27.417 32.701,27.814 C 32.335,28.214 32.155,28.784 32.155,29.529 C 32.155,30.272 32.335,30.84 32.696,31.236 C 33.056,31.63 33.577,31.826 34.254,31.826 C 34.928,31.826 35.445,31.63 35.802,31.236 C 36.161,30.841 36.339,30.272 36.339,29.529 C 36.339,28.784 36.161,28.214 35.802,27.815 C 35.445,27.417 34.928,27.218 34.254,27.218 Z M 30.278,26 V 27.534 H 29.868 C 29.25,27.534 28.785,27.676 28.476,27.959 C 28.163,28.24 28.008,28.663 28.008,29.229 V 33 H 26.48 V 26 H 27.926 V 27.395 C 28.136,26.955 28.41,26.626 28.745,26.411 C 29.083,26.193 29.508,26 29.966,26 C 30.075,26.008 30.184,26 30.277,26 Z M 19.535,26.947 C 18.92,26.947 18.444,27.16 18.101,27.587 C 17.76,28.01 17.589,28.61 17.589,29.38 C 17.589,30.11 17.759,30.685 18.105,31.098 C 18.447,31.51 18.925,31.717 19.535,31.717 C 20.171,31.717 20.659,31.51 20.999,31.094 C 21.339,30.679 21.509,30.076 21.509,29.284 C 21.509,28.518 21.341,27.936 21.006,27.542 C 20.671,27.146 20.18,26.947 19.535,26.947 Z M 21.475,23 H 23 V 33 H 21.495 V 32.08 C 21.174,32.468 20.828,32.644 20.455,32.825 C 20.084,33.006 19.661,33 19.183,33 C 18.235,33 17.467,32.666 16.88,32 C 16.294,31.335 16,30.455 16,29.361 C 16,28.255 16.294,27.361 16.88,26.681 C 17.468,26.004 18.23,25.663 19.171,25.663 C 19.669,25.663 20.111,25.7 20.495,25.875 C 20.877,26.052 21.203,26.203 21.475,26.565 V 23 Z M 15,30 H 9.666 C 9.681,30.614 9.861,30.967 10.194,31.296 C 10.529,31.627 10.997,31.791 11.602,31.791 C 12.135,31.791 13.213,31.648 13.368,31 H 15 C 14.672,32.493 12.944,33.003 11.504,33.003 C 10.416,33.003 9.558,32.692 8.937,32.065 C 8.313,31.44 8,30.58 8,29.481 C 8,28.396 8.315,27.544 8.942,26.926 C 9.57,26.31 10.44,26 11.546,26 C 12.621,26 13.463,26.303 14.078,26.906 C 14.693,27.508 15,28.339 15,29.396 C 15,29.489 15.014,29.799 15,30 C 15,29.993 14.994,30.02 15,30 Z M 13.312,29 C 13.307,28.463 13.148,27.918 12.834,27.624 C 12.52,27.329 12.076,27.182 11.504,27.182 C 10.958,27.182 10.531,27.325 10.216,27.615 C 9.902,27.903 9.72,28.451 9.666,29 H 13.312 Z M 7.757,26.013 V 27.509 H 7.352 C 6.742,27.509 6.279,27.657 5.974,27.952 C 5.664,28.244 5.51,28.684 5.51,29.274 V 33.004 H 4 V 26 H 5.43 V 27.364 C 5.639,26.907 5.91,26.564 6.241,26.34 C 6.575,26.113 6.965,26 7.419,26 H 7.457 C 7.564,26.009 7.665,26.013 7.757,26.013 Z" fill="rgb(254, 254, 253)"/>
</svg>
