<?xml version="1.0" encoding="UTF-8"?>
<!-- generated by Finnhub -->
<svg viewBox="0 0 55.5 55.5" xmlns="http://www.w3.org/2000/svg">
<path d="M 0,0 H 55.5 V 55.5 H 0 Z" fill="rgb(239, 242, 248)"/>
<path d="M 14.15,17.905 L 9,28.1 L 14.17,38.09 C 14.8,39.29 16.32,39.29 16.94,38.07 L 22,28.11 L 16.94,17.93 C 16.33,16.7 14.78,16.69 14.16,17.92 Z M 14.36,21.59 L 10,28.07 L 14.37,34.42 C 14.9,35.2 16.19,35.19 16.71,34.42 L 21,28.07 L 16.72,21.59 C 16.2,20.81 14.89,20.8 14.37,21.59 Z M 26.77,17.92 L 22,28.1 L 26.77,38.09 C 27.35,39.29 28.76,39.29 29.33,38.07 L 34,28.11 L 29.34,17.93 C 28.77,16.7 27.34,16.69 26.77,17.92 Z M 26.97,21.59 L 23,28.07 L 26.98,34.42 C 27.46,35.2 28.63,35.19 29.1,34.42 L 33,28.07 L 29.11,21.59 A 1.26,1.26 0 0,0 26.97,21.59 Z M 39.17,17.92 L 34,28.1 L 39.17,38.09 C 39.8,39.29 41.32,39.29 41.94,38.07 L 47,28.11 L 41.95,17.93 C 41.33,16.7 39.79,16.69 39.17,17.92 Z M 39.37,21.59 L 35,28.07 L 39.38,34.42 C 39.91,35.2 41.19,35.19 41.72,34.42 L 46,28.07 L 41.72,21.59 C 41.2,20.81 39.9,20.8 39.37,21.59 Z" fill="rgb(105, 1, 48)" fill-rule="evenodd"/>
<path d="M 17.139999999999997,30.985 L 16.81,30.66 C 16.39,30.89 15.97,31 15.4,31 C 13.8,31 13,30 13,28.04 C 13,26.4 14,25 15.74,25 C 16.33,25 16.91,25.07 17.49,25.2 V 26.38 H 17.02 C 16.81,25.73 16.39,25.38 15.68,25.38 C 14.34,25.38 14,26.89 14,27.98 C 14,29.03 14.21,30.62 15.57,30.62 C 16.31,30.62 16.67,30.33 16.67,29.72 C 16.67,28.92 16.72,28.41 16.09,28.25 V 28.05 H 18 V 28.25 C 17.55,28.39 17.53,28.76 17.53,29.18 V 30.91 L 17.15,31 Z M 27,28.37 V 29.89 C 27,30.37 27.02,30.64 27.5,30.79 V 31 H 25.5 V 30.78 C 25.98,30.65 26,30.37 26,29.9 V 26.1 C 26,25.62 25.97,25.36 25.5,25.22 V 25 H 27.82 C 29.17,25 30,25.49 30,26.53 C 30,27.5 29.23,27.91 28.35,28.22 V 28.25 C 28.53,28.32 28.68,28.43 28.81,28.57 C 29.41,29.21 29.52,30.62 30.49,30.78 V 31 H 29.29 C 29.19,30.84 29.07,30.68 28.98,30.5 C 28.66,29.92 28.4,29.27 28.02,28.73 C 27.83,28.46 27.81,28.37 27.49,28.37 H 27 Z M 27,25.41 V 28 H 27.5 C 28.28,28 29,27.45 29,26.65 C 29,25.81 28.45,25.39 27.63,25.39 C 27.37,25.39 27.16,25.39 27,25.41 Z M 41,29.9 C 41,30.4 40.99,30.67 41.5,30.78 V 31 H 39.5 V 30.78 C 40.01,30.66 40,30.4 40,29.9 V 26.1 C 40,25.6 40,25.35 39.5,25.22 V 25 H 41.5 V 25.22 C 41,25.33 41,25.6 41,26.1 V 29.9 Z" fill="rgb(105, 1, 48)"/>
</svg>
