<?xml version="1.0" encoding="UTF-8"?>
<!-- generated by Finnhub -->
<svg viewBox="0 0 55.5 55.5" xmlns="http://www.w3.org/2000/svg">
<path d="M 0,0 H 55.5 V 55.5 H 0 Z" fill="rgb(239, 242, 248)"/>
<path d="M 38.99,10.985 V 18.84 L 18.25,30.43 C 17.83,30.63 17,31.13 17,31.59 V 23.77 C 17.06,23.53 17.44,22.94 18.47,22.47 C 19.5,22.02 32.6,14.64 39,11 Z M 17,45 V 37.16 L 37.75,25.57 C 38.17,25.37 39,24.87 39,24.41 V 32.23 C 38.94,32.47 38.56,33.06 37.53,33.53 C 36.5,33.98 23.4,41.36 17,45 Z" fill="url(#b)"/>
<path d="M 16.99,10.985 V 18.84 L 37.75,30.43 C 38.17,30.63 39,31.13 39,31.59 V 23.77 C 38.94,23.53 38.56,22.94 37.53,22.47 C 36.5,22.02 23.4,14.64 17,11 Z M 39,45 V 37.16 L 18.25,25.57 C 17.83,25.37 17,24.87 17,24.41 V 32.23 C 17.06,32.47 17.44,33.06 18.47,33.53 C 19.5,33.98 32.6,41.36 39,45 Z" fill="url(#a)"/>
<defs>
<linearGradient id="b" x1="18.38" x2="43.34" y1="23.36" y2="23.08" gradientUnits="userSpaceOnUse">
<stop stop-color="rgb(44, 106, 58)" offset=".47"/>
<stop stop-color="rgb(81, 165, 66)" offset=".88"/>
</linearGradient>
<linearGradient id="a" x1="17.61" x2="37.06" y1="16.24" y2="16.24" gradientUnits="userSpaceOnUse">
<stop stop-color="rgb(85, 166, 70)" offset=".6"/>
<stop stop-color="rgb(34, 115, 56)" offset="1"/>
</linearGradient>
</defs>
</svg>
