<?xml version="1.0" encoding="UTF-8"?>
<!-- generated by Finnhub -->
<svg viewBox="0 0 55.5 55.5" xmlns="http://www.w3.org/2000/svg">
<path d="M 0,0 H 55.5 V 55.5 H 0 Z" fill="rgb(221, 55, 42)"/>
<path d="M 8.99,25.665 L 14,22.595 V 39 H 9 V 25.68 Z M 40,25.68 L 45,22.595 V 39 H 40 V 25.68 Z" fill="rgb(254, 254, 253)"/>
<ellipse cx="42.339" cy="19.552" rx="2.837" ry="2.827" fill="rgb(254, 254, 253)"/>
<ellipse cx="17.397" cy="25.775" rx="2.837" ry="2.827" fill="rgb(254, 254, 253)"/>
<path d="M 26.99,14.985 L 22,18 V 30.752 A 8.08,8.08 0 0,0 22,31.245 V 31.299 H 22.002 A 8,8 0 1,0 27,23.578 V 15 Z M 33.102,30.998 A 3.106,3.106 0 1,1 26.89,30.998 A 3.106,3.106 0 0,1 33.102,30.998 Z" fill="rgb(254, 254, 253)"/>
</svg>
