<?xml version="1.0" encoding="UTF-8"?>
<!-- generated by Finnhub -->
<svg viewBox="0 0 55.5 55.5" xmlns="http://www.w3.org/2000/svg">
<path d="M 0,0 H 55.5 V 55.5 H 0 Z" fill="rgb(56, 84, 100)"/>
<path d="M 51.99,28.675 C 52,30.09 50.63,30.98 49.35,30.98 C 48.92,30.98 48.4,30.86 47.81,30.61 C 47.65,30.55 47.53,30.51 47.45,30.51 C 47.35,30.51 47.3,30.62 47.27,30.83 C 47.27,30.94 47.21,31 47.12,31 C 47.04,31 47,30.96 47,30.87 L 47.01,30.73 L 47,28.7 C 47,28.59 47.05,28.53 47.14,28.53 C 47.22,28.53 47.28,28.62 47.31,28.8 C 47.51,30.11 48.26,30.77 49.39,30.77 C 50.38,30.77 50.92,30.22 50.92,29.31 C 50.92,28.3 50.02,27.76 49.2,27.38 A 4.97,4.97 0 0,1 47.63,26.38 C 47.33,26.05 47.19,25.65 47.19,25.17 A 2.18,2.18 0 0,1 49.44,23 C 49.71,23 50.08,23.13 50.56,23.3 C 50.73,23.36 50.85,23.39 50.93,23.39 C 51.02,23.39 51.07,23.37 51.1,23.34 C 51.13,23.31 51.15,23.24 51.18,23.11 C 51.19,23.04 51.24,23 51.31,23 C 51.39,23 51.44,23.04 51.44,23.13 V 24.93 C 51.44,25.01 51.42,25.05 51.34,25.05 S 51.2,24.96 51.17,24.79 A 1.9,1.9 0 0,0 50.55,23.71 C 50.22,23.41 49.85,23.22 49.45,23.22 C 48.67,23.22 48.15,23.81 48.15,24.58 C 48.15,25.05 48.33,25.43 48.67,25.72 C 48.86,25.88 49.27,26.12 49.9,26.41 C 50.85,26.85 52,27.51 52,28.69 Z M 46.92,23.12 C 46.92,23.19 46.86,23.22 46.72,23.22 H 46.51 C 46.5,23.22 46.09,23.18 46.02,23.35 L 46,23.61 V 27.85 C 46,29.57 45.46,31 43.54,31 C 41.61,31 41,29.81 41,28.03 L 40.99,23.5 C 40.97,23.36 40.88,23.28 40.72,23.25 A 3.9,3.9 0 0,0 40.32,23.24 C 40.19,23.22 40.13,23.18 40.13,23.12 S 40.18,23.02 40.28,23.02 H 43.16 C 43.29,23.02 43.35,23.05 43.35,23.14 C 43.35,23.19 43.33,23.22 43.28,23.23 A 5.4,5.4 0 0,1 42.63,23.27 A 0.18,0.18 0 0,0 42.51,23.43 L 42.5,24.07 V 28.12 C 42.5,29.42 42.63,30.69 43.8,30.69 C 44.92,30.69 45.48,30.04 45.63,28.74 C 45.65,28.54 45.66,27.72 45.66,26.25 V 23.68 C 45.67,23.49 45.66,23.3 45.44,23.25 C 45.39,23.23 45.24,23.23 44.99,23.23 C 44.84,23.23 44.77,23.18 44.77,23.1 C 44.77,23.03 44.82,23 44.92,23 H 46.66 C 46.83,23 46.92,23.05 46.92,23.12 Z M 39.43,25.05 C 39.43,25.15 39.38,25.2 39.28,25.2 C 39.18,25.2 39.11,25.1 39.06,24.9 L 39.01,24.5 C 38.96,24.22 38.86,23.98 38.72,23.8 C 38.55,23.54 38.26,23.38 37.85,23.31 A 3,3 0 0,0 37.22,23.25 L 36.5,23.29 V 30.21 C 36.5,30.48 36.58,30.66 36.74,30.72 C 36.82,30.76 37.06,30.79 37.44,30.79 C 37.54,30.8 37.6,30.84 37.6,30.89 C 37.6,30.97 37.53,31 37.4,31 H 34.18 C 33.98,31 33.88,30.96 33.88,30.9 C 33.88,30.83 34.07,30.79 34.43,30.78 C 34.69,30.78 34.86,30.73 34.93,30.63 C 34.98,30.57 35,30.41 35,30.16 V 23.3 C 34.17,23.3 33.65,23.34 33.45,23.41 C 32.92,23.59 32.6,24.06 32.51,24.82 C 32.49,25.05 32.43,25.17 32.33,25.17 C 32.23,25.17 32.18,25.09 32.18,24.93 L 32.19,24.67 L 32.22,24.41 L 32.33,23.02 L 39.24,23.01 A 29.65,29.65 0 0,0 39.44,25.06 Z M 33,30.9 C 33,30.97 32.94,31 32.82,31 H 29.4 C 29.24,31 29.16,30.96 29.16,30.89 C 29.16,30.8 29.26,30.76 29.48,30.76 C 30.18,30.76 30.53,30.69 30.53,30.56 L 30.51,30.47 L 30.41,30.17 L 30.35,30.01 C 30.28,29.78 30.11,29.26 29.83,28.46 H 27.28 C 26.8,29.66 26.56,30.36 26.56,30.54 C 26.56,30.64 26.61,30.71 26.7,30.73 L 27.3,30.77 C 27.53,30.78 27.65,30.82 27.65,30.89 C 27.65,30.96 27.55,31 27.34,31 H 25.17 C 25.07,31 25,30.94 25,30.88 C 25,30.81 25.12,30.78 25.37,30.76 C 25.62,30.76 25.81,30.72 25.92,30.66 C 26.02,30.59 26.12,30.47 26.18,30.29 A 633.39,633.39 0 0,1 28.78,23.33 L 28.84,23.13 C 28.86,23.04 28.89,23 28.94,23 A 72.35,72.35 0 0,0 29.7,24.9 L 31.83,30.4 C 31.9,30.56 31.97,30.66 32.07,30.7 C 32.17,30.75 32.38,30.78 32.69,30.79 C 32.89,30.79 33,30.83 33,30.89 Z M 29.76,28.2 L 29.13,26.53 L 28.55,24.98 C 28.22,25.81 27.82,26.88 27.35,28.21 H 29.75 Z M 25,23.11 C 25,23.19 24.9,23.22 24.7,23.21 H 24.26 C 24.13,23.21 24.06,23.23 24.03,23.27 C 24,23.31 23.99,23.44 23.99,23.65 V 30.17 L 23.98,30.87 C 23.97,30.95 23.94,30.98 23.9,30.98 C 23.85,30.98 23.8,30.94 23.73,30.86 L 22.09,28.75 A 280.2,280.2 0 0,1 18.76,24.12 L 18.77,30.56 C 18.78,30.66 18.84,30.72 18.96,30.75 C 19.07,30.77 19.35,30.79 19.78,30.8 C 19.89,30.8 19.94,30.83 19.94,30.89 C 19.94,30.96 19.84,31 19.62,31 H 17.51 C 17.31,31 17.22,30.97 17.22,30.9 S 17.31,30.8 17.47,30.8 C 17.95,30.79 18.23,30.76 18.31,30.72 C 18.39,30.66 18.43,30.5 18.43,30.22 V 24.53 C 18.43,23.91 18.29,23.51 18.01,23.35 A 1.52,1.52 0 0,0 17.31,23.24 C 17.1,23.24 16.99,23.18 16.99,23.1 C 16.99,23.03 17.05,23 17.17,23 H 19.34 L 23.66,28.83 V 23.78 L 23.65,23.38 C 23.64,23.32 23.6,23.28 23.55,23.26 A 2.34,2.34 0 0,0 22.93,23.22 C 22.63,23.22 22.49,23.19 22.49,23.12 C 22.49,23.04 22.59,23.01 22.79,23.01 L 23.24,23 H 24.71 C 24.9,23 24.99,23.04 24.99,23.11 Z M 17,29.1 V 31 H 11.22 C 11.07,31 11,30.97 11,30.9 C 11,30.85 11.02,30.83 11.07,30.82 L 11.49,30.78 C 11.69,30.77 11.89,30.73 11.93,30.66 C 11.98,30.59 12,30.41 12,30.13 L 11.98,23.66 C 11.98,23.44 11.94,23.31 11.88,23.27 A 2.07,2.07 0 0,0 11.18,23.2 C 11.06,23.2 11,23.17 11,23.1 S 11.08,23 11.25,23 H 16.63 L 16.73,24.35 L 16.78,24.84 V 24.99 C 16.78,25.06 16.75,25.09 16.68,25.09 C 16.6,25.09 16.54,25 16.51,24.82 C 16.37,24.13 16.13,23.7 15.81,23.52 A 5,5 0 0,0 13.93,23.32 H 13.5 V 26.64 H 13.77 C 14.6,26.64 14.63,26.58 14.81,26.45 C 14.99,26.32 15.11,25.95 15.19,25.33 C 15.2,25.17 15.24,25.09 15.31,25.09 C 15.39,25.09 15.43,25.16 15.43,25.29 V 28.16 A 2,2 0 0,1 15.44,28.36 C 15.44,28.46 15.4,28.5 15.32,28.5 C 15.27,28.5 15.23,28.47 15.21,28.41 L 15.11,27.78 C 15.06,27.33 14.88,27.05 14.57,26.95 C 14.44,26.9 14.47,26.88 13.91,26.88 H 13.5 V 30.69 C 15.14,30.69 15.62,30.66 15.9,30.59 C 16.4,30.48 16.72,29.99 16.79,29.14 C 16.8,28.95 16.81,28.86 16.89,28.86 C 16.96,28.86 17,28.93 17,29.09 Z M 11,30.52 C 11,30.84 10.71,31 10.14,31 C 9.51,31 9.01,30.75 8.65,30.26 A 1.78,1.78 0 0,1 8.35,29.66 A 23,23 0 0,1 8.15,28.16 C 8.1,27.68 7.93,27.34 7.65,27.14 C 7.36,26.94 7.15,26.83 6.5,26.81 V 30.51 C 6.5,30.65 6.63,30.75 6.9,30.78 L 7.45,30.81 C 7.56,30.81 7.61,30.84 7.61,30.9 C 7.61,30.97 7.54,31 7.41,31 H 7.26 L 5.95,30.99 L 4.28,31 C 4.1,31 4.01,30.97 4.01,30.9 C 4.01,30.85 4.13,30.82 4.37,30.8 C 4.71,30.79 4.92,30.74 4.95,30.66 C 4.98,30.62 5,30.48 5,30.22 V 23.85 C 5,23.55 4.96,23.37 4.89,23.31 C 4.82,23.25 4.66,23.22 4.31,23.21 C 4.11,23.21 4,23.18 4,23.11 S 4.07,23 4.2,23 H 7.3 C 8.38,23 9.78,23.46 9.78,24.75 C 9.78,25.28 9.55,25.72 9.09,26.07 C 8.63,26.41 8.01,26.61 7.23,26.67 C 7.16,26.67 7.12,26.69 7.11,26.7 C 7.11,26.73 7.15,26.75 7.23,26.75 C 8.09,26.88 8.67,27.16 8.99,27.58 C 9.32,28 9.54,28.75 9.64,29.85 C 9.71,30.46 9.94,30.77 10.33,30.77 C 10.45,30.77 10.51,30.75 10.51,30.71 L 10.5,30.68 A 0.5,0.5 0 0,1 10.44,30.48 C 10.44,30.32 10.53,30.24 10.71,30.24 C 10.91,30.24 11,30.34 11,30.52 Z M 8.47,24.86 C 8.47,23.78 7.97,23.24 6.95,23.24 C 6.68,23.24 6.75,23.27 6.65,23.34 C 6.55,23.41 6.5,23.53 6.5,23.7 V 26.58 C 7.28,26.58 7.6,26.45 7.94,26.18 C 8.29,25.91 8.47,25.47 8.47,24.86 Z M 50,32.5 V 33 H 6 V 32.5 H 50 Z" fill="rgb(254, 254, 253)"/>
</svg>
