<?xml version="1.0" encoding="UTF-8"?>
<!-- generated by Finnhub -->
<svg viewBox="0 0 55.5 55.5" xmlns="http://www.w3.org/2000/svg">
<path d="M 0,0 H 55.5 V 55.5 H 0 Z" fill="rgb(21, 147, 253)"/>
<path d="M 28.009999999999998,17.015 L 37.41,25.65 A 3.28,3.28 0 0,1 37.41,30.46 A 3.72,3.72 0 0,1 32.34,30.46 L 25.32,23.79 A 6.27,6.27 0 0,0 16.77,23.79 A 5.53,5.53 0 0,0 16.77,31.91 L 25.5,40.2 A 13,13 0 1,1 28,17.04 L 28.02,17.03 Z M 30.75,15.71 A 13,13 0 1,1 28.82,39.44 L 18.57,30 A 3.2,3.2 0 0,1 18.57,25.3 A 3.63,3.63 0 0,1 23.52,25.3 L 30.54,31.96 A 6.36,6.36 0 0,0 39.21,31.96 A 5.61,5.61 0 0,0 39.21,23.74 L 30.75,15.71 Z" fill="rgb(254, 254, 253)"/>
</svg>
