<?xml version="1.0" encoding="UTF-8"?>
<!-- generated by Finnhub -->
<svg fill="none" viewBox="0 0 55.5 55.5" xmlns="http://www.w3.org/2000/svg">
<path d="M 0,0 H 55.5 V 55.5 H 0 Z" fill="rgb(239, 242, 248)"/>
<path d="M 26.398,16.095 L 28.968,23.52 C 29.394,21.462 30.247,17.098 30.247,16.11 C 30.247,14.874 28.967,13.639 27.687,13.639 C 26.664,13.639 26.408,15.286 26.408,16.109 Z" fill="url(#a)"/>
<path d="M 21.694999999999997,13.530999999999999 C 22.262,14.368 24.703,17.345 26.408,18.58 C 25.129,17.345 23.85,11.168 22.57,11.168 S 20.736,12.115 21.705,13.546 Z" fill="url(#a)"/>
<path d="M 25.119,18.564999999999998 C 26.152,20.184 28.114,24.19 28.967,25.991 C 28.114,25.579 25.641,24.261 22.57,22.285 C 18.732,19.815 20.237,18.058 21.29,17.345 C 22.674,16.408 23.85,16.575 25.129,18.58 Z" fill="url(#a)"/>
<path d="M 17.442999999999998,17.33 C 18.476,18.333 21.291,21.874 22.57,23.521 C 20.438,23.933 15.662,24.015 13.614,21.051 C 11.056,17.345 16.174,16.109 17.453,17.345 Z" fill="url(#a)"/>
<path d="M 32.358000000000004,21.035 C 32.368,22.285 31.099,24.756 30.246,25.991 C 32.379,24.756 36.643,21.791 36.643,19.815 C 36.643,17.345 34.085,16.109 32.805,16.109 C 32.091,16.109 32.368,19.815 32.368,21.05 Z" fill="url(#a)"/>
<path d="M 31.516,13.623999999999999 C 32.549,15.615 31.952,17.756 31.526,18.579 C 31.526,18.168 31.27,16.85 30.246,14.874 C 28.967,12.404 27.366,11.962 28.967,11.168 C 29.945,10.684 30.247,11.168 31.526,13.638 Z" fill="url(#a)"/>
<path d="M 18.721999999999998,28.447 C 20.779,27.474 24.702,26.403 26.408,25.992 C 24.702,25.579 20.779,24.756 18.732,24.756 C 16.173,24.756 14.894,24.756 14.894,25.991 C 14.894,27.227 16.174,29.697 18.732,28.461 Z" fill="url(#a)"/>
<path d="M 16.162999999999997,35.858 C 18.001,34.575 21.705,30.243 23.643,28.812 C 20.736,29.289 15.471,29.872 13.614,30.72 C 11.527,31.674 11.909,33.403 12.335,34.638 C 13.188,35.873 14.435,37.108 16.173,35.873 Z" fill="url(#a)"/>
<path d="M 20.002,33.388 C 21.035,31.426 26.408,28.462 28.967,27.227 C 28.114,29.285 26.153,33.897 25.129,35.873 C 24.105,37.85 22.144,37.52 21.291,37.109 C 20.438,36.697 18.988,35.379 20.011,33.403 Z" fill="url(#a)"/>
<path d="M 37.913000000000004,22.27 C 36.899,23.274 33.232,25.168 31.526,25.991 C 33.658,26.403 38.435,27.227 40.482,27.227 C 43.012,27.227 42.386,26.019 41.135,23.604 L 41.092,23.521 C 39.812,21.051 39.202,21.051 37.922,22.285 Z" fill="url(#a)"/>
<path d="M 40.113,19.8 C 40.123,20.803 38.494,21.905 37.215,22.133 V 16.408 C 37.215,14.275 40.123,17.345 40.123,19.815 Z" fill="url(#a)"/>
<path d="M 34.075,33.388 C 33.687,32.496 32.379,28.873 31.526,27.227 C 33.232,28.05 36.899,29.944 37.923,30.932 C 39.203,32.167 40.482,34.638 37.923,35.873 C 35.364,37.109 34.791,35.013 34.085,33.403 Z" fill="url(#a)"/>
<path d="M 43.03,34.623 C 42.017,34.638 39.202,30.521 37.923,28.462 C 39.203,28.462 42.017,28.709 43.04,29.697 C 44.32,30.932 44.32,34.638 43.04,34.638 Z" fill="url(#a)"/>
<path d="M 27.996,37.384 C 28.354,36.029 29.82,31.344 30.246,28.462 C 30.673,30.109 32.413,33.689 32.806,35.873 C 33.337,38.83 31.709,40.814 30.429,40.814 S 27.521,39.307 28.006,37.399 Z" fill="url(#a)"/>
<path d="M 21.279999999999998,43.108 C 20.267,42.135 24.276,37.932 26.408,35.873 C 26.408,38.343 26.153,43.532 25.129,44.52 C 23.849,45.755 22.57,44.359 21.291,43.123 Z" fill="url(#a)"/>
<path d="M 35.354,43.269999999999996 C 34.341,41.308 33.232,36.697 32.805,34.638 L 39.202,40.814 C 40.482,42.049 36.644,45.755 35.364,43.284 Z" fill="url(#a)"/>
<defs>
<linearGradient id="a" x1="12.335" x2="41.745" y1="28.462" y2="25.813" gradientUnits="userSpaceOnUse">
<stop stop-color="rgb(62, 204, 103)" offset="0"/>
<stop stop-color="rgb(25, 87, 205)" offset="1"/>
</linearGradient>
</defs>
</svg>
