<?xml version="1.0" encoding="UTF-8"?>
<!-- generated by Finnhub -->
<svg viewBox="0 0 55.5 55.5" xmlns="http://www.w3.org/2000/svg">
<path d="M 0,0 H 55.5 V 55.5 H 0 Z" fill="url(#b)"/>
<path d="M 7.99,29.985 H 15.239 L 16.605,31 H 9 V 37 L 17.527,31.242 L 18.997,31.687 L 8,39 V 30 Z M 23.48,30 L 12,39 H 14 L 24,30 H 23.48 Z M 25.3,30 L 16,39 H 18 L 25.72,30 H 25.3 Z M 28.79,30 L 38,39 H 36 L 28.37,30 H 28.79 Z M 30.576,30 L 42,39 H 40 L 30,30 H 30.576 Z" fill="rgb(254, 254, 253)"/>
<path d="M 41.52,20.985 H 38.43 L 36.412,28 H 39.097 C 39.425,28 39.621,27.816 39.678,27.724 L 40.501,25 H 43.291 L 42.369,28 H 45.304 L 47.321,21 H 44.312 L 43.493,24 H 40.717 L 41.53,21 Z M 36.987,21.6 L 36.635,22.973 C 36.008,22.253 35.416,21.986 35.199,22 H 33.409 C 34.176,22.615 35.763,24 35.982,24.166 C 36.202,24.332 36.222,24.624 36.204,24.748 C 36.03,25.428 35.643,26.918 35.486,27.438 C 35.329,27.96 35.056,28.026 34.938,27.993 H 29.976 C 29.026,27.993 28.944,27.411 29.023,27.12 L 29.623,24.748 C 29.926,25.636 30.777,25.958 31.164,26 H 33.07 C 32.317,25.404 30.715,24.13 30.328,23.875 C 29.942,23.62 29.932,23.335 29.976,23.223 C 30.085,22.84 30.331,21.961 30.446,21.518 C 30.561,21.074 30.798,21 30.903,21.018 C 32.531,21.004 35.919,20.985 36.453,21.018 C 36.985,21.052 37.031,21.42 36.987,21.601 Z M 24.262,21 H 21.441 C 21.07,22.378 20.271,25.363 20.049,26.282 C 19.77,27.429 21.029,27.936 22.196,27.997 C 23.129,28.045 24.237,27.526 24.675,27.26 L 24.527,28 H 27.617 L 29.632,21 H 26.318 L 24.808,25.692 C 24.714,25.884 24.398,26.272 23.879,26.282 C 23.361,26.292 23.314,25.892 23.356,25.692 C 23.699,24.452 24.414,21.875 24.527,21.477 C 24.64,21.079 24.397,20.994 24.262,21 Z M 17.446,26 H 14.407 C 14.204,26.778 13.574,29.46 16.242,30.874 C 18.376,32.005 20.367,31.711 21.096,31.422 C 20.003,30.167 20.484,30.467 19.78,28.222 C 19.217,26.425 17.99,26 17.446,26 Z M 19.428,20 H 15.945 L 14.537,25 H 18.483 C 18.959,24.929 20.01,24.342 20.41,22.562 C 20.81,20.782 19.922,20.112 19.428,20 Z M 15,20 H 11.284 L 9,28 H 12.607 L 15,20 Z" fill="rgb(233, 175, 30)"/>
<path d="M 45.99,29.987 H 33 L 46,39 V 30.002 Z" fill="rgb(254, 254, 253)"/>
<path d="M 44.99,30.985 H 36 L 45,37 V 31 Z" fill="url(#a)"/>
<defs>
<linearGradient id="b" x1="10.418" x2="68.147" y1="9.712" y2="76.017" gradientUnits="userSpaceOnUse">
<stop stop-color="rgb(25, 29, 31)" offset="0"/>
<stop stop-color="rgb(5, 5, 8)" offset="1"/>
</linearGradient>
<linearGradient id="a" x1="37.674" x2="43.097" y1="32.041" y2="41.383" gradientUnits="userSpaceOnUse">
<stop stop-color="rgb(25, 29, 31)" offset="0"/>
<stop stop-color="rgb(5, 5, 8)" offset="1"/>
</linearGradient>
</defs>
</svg>
