<?xml version="1.0" encoding="UTF-8"?>
<!-- generated by Finnhub -->
<svg viewBox="0 0 55.5 55.5" xmlns="http://www.w3.org/2000/svg">
<path d="M 0,0 H 55.5 V 55.5 H 0 Z" fill="rgb(239, 242, 248)"/>
<path d="M 16.99,9.985 H 39 V 46 H 17 Z" fill="rgb(1, 73, 137)"/>
<path d="M 33.09,16.415 C 32.97,15.83 22.96,16.03 17.97,16.2 C 22.32,17.1 26.79,16.03 27.04,16.98 C 27.28,17.93 21.28,17.32 21.44,18.28 C 21.59,19.23 24.94,18.64 25.1,19.68 C 25.22,20.51 19.75,22.14 17,22.85 V 46 H 35.07 C 32.52,43.36 29.04,40.4 28.73,34.54 C 28.48,29.84 35.47,25.34 39,23.69 V 19.29 C 38.15,19.14 36.43,18.74 36.29,18.28 C 36.15,17.81 38.04,17.56 39,17.5 V 16 H 33.35 C 33.89,16.03 36.15,16.58 34.06,16.98 S 30.31,17.84 30.28,18.28 C 30.25,18.71 31.86,18.91 34.48,19.46 C 36.58,19.89 35.08,20.91 34.06,21.36 L 21.96,25.33 C 23.19,24.35 32.71,21.53 32.59,20.2 C 32.48,18.88 27.65,19.4 27.31,18.28 C 26.98,17.15 33.27,17.18 33.11,16.43 Z" fill="url(#a)"/>
<defs>
<linearGradient id="a" x1="28" x2="28" y1="16" y2="46" gradientUnits="userSpaceOnUse">
<stop stop-color="rgb(216, 228, 245)" offset="0"/>
<stop stop-color="rgb(117, 139, 187)" offset="1"/>
</linearGradient>
</defs>
</svg>
