<?xml version="1.0" encoding="UTF-8"?>
<!-- generated by Finnhub -->
<svg viewBox="0 0 55.5 55.5" xmlns="http://www.w3.org/2000/svg">
<path d="M 0,0 H 55.5 V 55.5 H 0 Z" fill="rgb(239, 242, 248)"/>
<path d="M 6.82,24.685 C 6.86,24.26 6.46,23.97 6.03,24 H 5 V 25.43 H 6.05 C 6.47,25.46 6.85,25.15 6.83,24.73 V 24.71 Z M 6.81,28 L 5.81,26.4 H 5 V 28 H 4 V 23 H 6.12 C 7.09,22.94 7.92,23.68 7.86,24.65 V 24.67 C 7.89,25.34 7.5,25.97 6.86,26.22 L 8,28 H 6.81 Z M 11,28 V 23 H 15 V 24 H 12 V 25 H 15 V 26 H 12 V 27 H 15 V 28 H 11 Z M 21,25.5 C 21,24.74 20.52,23.99 19.7,24 H 19 V 27 H 19.7 C 20.51,27.01 21.01,26.28 21,25.51 V 25.5 Z M 19.7,28 H 18 V 23 H 19.7 C 21.06,22.98 22.01,24.18 22,25.49 V 25.5 C 22,26.8 21.07,28.02 19.7,28 Z M 29.42,28 H 28.54 L 27.5,24.76 L 26.46,28 H 25.58 L 24,23 H 25.09 L 26.04,26.37 L 27.08,23 H 27.95 L 28.98,26.37 L 29.94,23 H 31 L 29.42,28 Z M 37,25.5 C 37,24.7 36.33,24 35.5,24 C 34.68,23.99 34,24.7 34,25.5 S 34.67,27.01 35.5,27 C 36.32,27 37,26.3 37,25.5 Z M 35.5,28 A 2.5,2.5 0 1,1 35.5,23 C 36.88,23 38.01,24.1 38,25.49 A 2.5,2.5 0 0,1 35.5,28 Z M 44,25.5 C 44,24.7 43.33,24 42.5,24 C 41.68,23.99 41,24.7 41,25.5 S 41.67,27.01 42.5,27 C 43.32,27 44,26.3 44,25.5 Z M 42.5,28 A 2.5,2.5 0 1,1 42.5,23 C 43.88,23 45.01,24.1 45,25.49 A 2.5,2.5 0 0,1 42.5,28 Z M 51,25.5 C 51,24.74 50.52,23.99 49.7,24 H 49 V 27 H 49.7 C 50.51,27.01 51.01,26.28 51,25.51 V 25.5 Z M 49.7,28 H 48 V 23 H 49.7 C 51.06,22.98 52.01,24.18 52,25.49 C 52,26.79 51.07,28.02 49.7,28 Z M 15.5,34 V 38 H 14.5 V 34 H 13 V 33 H 17 V 34 H 15.5 Z M 22.83,34.71 C 22.86,34.26 22.46,33.97 22.03,34 H 21 V 35.43 H 22.05 C 22.47,35.46 22.85,35.15 22.83,34.73 V 34.71 Z M 22.8,38 L 21.8,36.4 H 21 V 38 H 20 V 33 H 22.12 C 23.09,32.94 23.91,33.68 23.86,34.65 V 34.67 C 23.89,35.34 23.5,35.97 22.86,36.22 L 24,38 H 22.8 Z M 27.99,38 C 26.7,38.07 26,37 26,35.8 V 33 H 27 V 35.78 C 27,36.5 27.34,37 28,37 C 28.63,37 29,36.5 29,35.82 V 33 H 30 V 35.78 C 30.02,36.98 29.28,38.01 27.99,38 Z M 35.15,38 C 34.36,38 33.58,37.73 33,37.22 L 33.66,36.47 C 34.09,36.81 34.61,37.01 35.16,37 C 35.46,37.02 36.01,36.95 36,36.58 C 36,36.17 35.2,36.04 34.88,35.97 C 34.08,35.78 33.16,35.44 33.2,34.47 C 33.18,33.51 34.1,32.99 34.96,33 C 35.64,33 36.31,33.21 36.84,33.62 L 36.26,34.42 A 2.4,2.4 0 0,0 34.95,34 C 34.67,33.98 34.29,34.05 34.29,34.38 C 34.29,34.86 35.06,34.94 35.39,35.02 C 36.16,35.21 37.02,35.56 36.99,36.49 C 37.02,37.51 36.04,38.01 35.15,38 Z M 41.5,34.01 V 38 H 40.5 V 34.01 H 39 V 33 H 43 V 34.01 H 41.5 Z" fill="rgb(34, 30, 30)"/>
</svg>
