<?xml version="1.0" encoding="UTF-8"?>
<!-- generated by Finnhub -->
<svg viewBox="0 0 55.5 55.5" xmlns="http://www.w3.org/2000/svg">
<path d="M 0,0 H 55.5 V 55.5 H 0 Z" fill="rgb(239, 242, 248)"/>
<path d="M 27.99,43.985 A 16,16 0 0,0 44,27.75 A 15.5,15.5 0 1,1 28,12 A 16,16 0 1,0 28,44 Z" fill="rgb(188, 188, 187)"/>
<path d="M 41.32,39.115 C 41.33,38.63 40.7,37.58 40.39,37.12 C 40.44,37.02 40.59,36.86 40.84,37.02 C 41.6,37.88 42.06,38.96 41.99,39.77 C 41.93,40.49 41.45,41 40.39,41 C 38.12,41 34.09,39.13 29.79,36.04 C 22.94,31.07 20,27.69 20,25.38 C 20,23.64 20.84,23.75 22.28,23.74 H 23.41 C 33.66,23.74 38,20.87 38,19.64 C 38,18.41 34.23,17 27.43,17 C 13.77,17 12.5,18.88 12.5,19.47 C 12.5,20.07 13.65,20.21 14,20.5 C 13.56,20.35 12,20.21 12,19.33 C 12,17.16 20.03,15 26.94,15 C 33.84,15 41.06,16.55 41.06,19.64 C 41.06,22.74 31.43,24 28.48,24 H 22.42 C 21.62,24 21,24.07 21,25 C 21,25.93 22.3,28.22 30,33.82 C 37.68,39.42 39.75,39.77 40.2,39.77 C 40.64,39.77 41.33,39.77 41.33,39.13 Z"/>
</svg>
