<?xml version="1.0" encoding="UTF-8"?>
<!-- generated by Finnhub -->
<svg viewBox="0 0 55.5 55.5" xmlns="http://www.w3.org/2000/svg">
<path d="M 0,0 H 55.5 V 55.5 H 0 Z" fill="rgb(234, 1, 2)"/>
<path d="M 20.75,29.985 L 21.36,26.77 L 22.64,30 H 24.56 L 23.25,26.75 L 25.62,24 H 23.67 L 21.38,26.72 L 22.27,22 H 20.5 L 18.99,30 H 20.76 Z M 29,28.69 C 29.1,28.46 29.14,28.22 29.13,27.97 C 29.13,27.16 28.42,26.71 27.78,26.4 C 27.3,26.18 27.07,25.98 27.07,25.76 C 27.07,25.44 27.37,25.26 27.83,25.26 C 28.36,25.26 28.89,25.4 29.34,25.67 L 29.6,24.37 C 29.09,24.1 28.5,23.97 27.91,24 C 26.33,24 25.28,24.8 25.28,25.99 C 25.28,26.59 25.7,27.11 26.54,27.51 C 27.07,27.76 27.28,27.96 27.28,28.24 C 27.28,28.55 26.98,28.74 26.54,28.74 A 4.03,4.03 0 0,1 24.88,28.3 L 24.62,29.6 C 25.17,29.86 25.77,30 26.37,30 C 27.32,30 28.1,29.75 28.59,29.3 C 28.77,29.12 28.91,28.91 29,28.69 Z M 35.55,26.29 C 35.55,28.09 34.2,29.94 32.29,30 C 31.66,30 31.31,29.76 31.1,29.4 L 30.65,32 H 28.87 L 30.38,24 H 31.95 L 31.77,25.08 A 2.27,2.27 0 0,1 33.62,24 C 34.8,24 35.56,24.9 35.56,26.28 Z M 33.7,26.42 C 33.7,26.14 33.63,25.45 32.98,25.45 C 31.65,25.45 30.78,28.65 32.08,28.65 C 33.01,28.65 33.7,27.59 33.7,26.42 Z M 51.53,28.1 A 4.1,4.1 0 0,1 49.43,28.67 C 48.6,28.67 48.03,28.25 48.09,27.52 C 49.43,27.78 50.91,27.46 51.51,26.9 A 1.57,1.57 0 0,0 51.99,25.73 C 52,24.7 51.16,24 49.9,24 A 3.45,3.45 0 0,0 47.34,25.13 C 46.74,25.81 46.41,26.68 46.4,27.57 C 46.4,29.12 47.35,30 49,30 C 49.78,30 50.54,29.85 51.24,29.54 L 51.53,28.1 Z M 50.17,26.08 C 49.92,26.32 49.33,26.42 48.29,26.42 C 48.42,25.85 48.91,25.25 49.68,25.25 C 50.36,25.25 50.45,25.82 50.18,26.08 Z M 39.77,36 C 40.64,36 41.24,35.26 41.24,34.39 A 1,1 0 0,0 40.2,33.34 C 39.33,33.34 38.73,34.09 38.73,34.95 A 0.99,0.99 0 0,0 39.77,36 Z M 39.85,35.53 C 39.54,35.53 39.35,35.28 39.35,34.93 C 39.35,34.46 39.64,33.81 40.12,33.81 C 40.49,33.81 40.61,34.13 40.61,34.4 C 40.61,34.9 40.31,35.53 39.85,35.53 Z M 43.91,36 C 44.78,36 45.38,35.26 45.38,34.39 A 1,1 0 0,0 44.34,33.34 C 43.47,33.34 42.87,34.14 42.87,35.01 A 0.99,0.99 0 0,0 43.91,36.01 Z M 43.99,35.53 C 43.68,35.53 43.49,35.28 43.49,34.93 C 43.49,34.46 43.78,33.81 44.26,33.81 C 44.63,33.81 44.76,34.13 44.76,34.4 C 44.76,34.9 44.45,35.53 43.99,35.53 Z M 41.5,36 L 42.15,32.62 H 42.75 L 42.12,36 H 41.52 Z M 31.71,33.47 A 1.6,1.6 0 0,1 32.88,33.45 L 32.78,34.01 A 0.96,0.96 0 0,0 32.32,33.84 A 1.02,1.02 0 0,0 31.36,34.91 A 0.53,0.53 0 0,0 31.92,35.51 C 32.16,35.51 32.39,35.44 32.6,35.31 L 32.5,35.84 C 32.27,35.95 32.01,36.01 31.75,36 C 31.47,36 31.2,35.92 31,35.73 A 0.96,0.96 0 0,1 30.72,34.99 A 1.6,1.6 0 0,1 31.72,33.47 Z M 28.8,34.9 A 0.7,0.7 0 0,0 28.87,35.26 A 0.56,0.56 0 0,0 29.39,35.52 C 29.73,35.52 30.05,35.42 30.32,35.22 L 30.22,35.76 C 29.92,35.92 29.59,36 29.25,36 C 28.55,36 28.21,35.57 28.21,34.94 C 28.21,34.18 28.77,33.34 29.65,33.34 C 30.15,33.34 30.47,33.63 30.47,34.06 C 30.47,34.71 29.78,34.92 28.8,34.9 Z M 29.9,34.06 C 29.9,33.89 29.76,33.79 29.57,33.79 A 0.79,0.79 0 0,0 28.87,34.44 C 29.49,34.44 29.89,34.36 29.89,34.06 Z M 38.3,33.83 A 2.38,2.38 0 0,1 38.28,34.52 L 37.98,36 H 37.38 L 37.66,34.56 L 37.69,34.26 C 37.69,34.05 37.61,33.89 37.37,33.89 C 37.09,33.89 36.74,34.23 36.63,34.82 L 36.4,36 H 35.79 L 36.28,33.44 H 36.82 L 36.73,33.94 A 1.1,1.1 0 0,1 37.66,33.4 A 0.62,0.62 0 0,1 38.28,33.83 Z M 34.32,33.51 C 34.47,33.44 34.63,33.4 34.79,33.4 A 0.62,0.62 0 0,1 35.44,34.1 C 35.44,34.24 35.42,34.38 35.4,34.52 L 35.1,36 H 34.5 L 34.77,34.56 L 34.8,34.26 C 34.8,34.05 34.72,33.89 34.48,33.89 C 34.2,33.89 33.85,34.23 33.74,34.82 L 33.52,36 H 32.92 L 33.55,32.62 H 34.17 L 33.94,33.82 C 34.04,33.69 34.16,33.58 34.31,33.51 Z M 27.14,32.75 H 27.73 L 27.61,33.4 H 28.18 L 28.08,33.87 H 27.51 L 27.31,34.9 A 1.8,1.8 0 0,0 27.28,35.35 A 0.2,0.2 0 0,0 27.49,35.49 C 27.58,35.49 27.66,35.49 27.74,35.47 L 27.64,35.95 C 27.52,35.99 27.38,36 27.24,36 C 26.83,36 26.64,35.77 26.64,35.48 C 26.64,35.32 26.67,35.16 26.7,35.01 L 26.92,33.87 H 26.58 L 26.67,33.4 H 27 L 27.13,32.75 Z M 48.6,37 C 48.46,37 48.31,36.96 48.17,36.9 L 48.26,36.4 A 0.44,0.44 0 0,0 48.89,36.27 L 49.09,35.93 L 48.64,33.43 H 49.28 L 49.51,35.33 L 50.48,33.43 H 51.13 L 49.43,36.42 C 49.2,36.82 48.91,37 48.6,37 Z M 45.7,35.16 C 45.7,34.36 46.25,33.4 47.34,33.4 C 47.87,33.4 48.19,33.62 48.19,34.08 C 48.19,34.23 48.17,34.38 48.14,34.52 L 47.91,35.68 C 47.81,36.18 47.67,36.48 47.38,36.72 C 47.1,36.92 46.77,37.02 46.43,37 C 46.22,37 45.91,36.9 45.68,36.8 L 45.78,36.36 C 45.98,36.46 46.21,36.52 46.44,36.51 C 46.84,36.51 47.14,36.41 47.27,35.83 L 47.32,35.6 A 1.02,1.02 0 0,1 46.47,36.06 C 45.93,36.06 45.7,35.61 45.7,35.16 Z M 47.48,34.73 L 47.53,34.49 L 47.56,34.19 A 0.3,0.3 0 0,0 47.22,33.86 C 46.69,33.86 46.34,34.55 46.34,35.05 C 46.34,35.33 46.46,35.56 46.74,35.56 C 47.05,35.56 47.38,35.24 47.48,34.73 Z M 45.51,24 C 43.28,24 41.61,25.57 41.61,27.64 C 41.61,29.07 42.59,30 44.13,30 C 44.72,30.01 45.3,29.9 45.84,29.7 L 46.12,28.26 C 45.67,28.5 45.15,28.63 44.63,28.63 C 44.07,28.63 43.47,28.33 43.47,27.45 C 43.47,26.43 44.22,25.37 45.49,25.37 A 2,2 0 0,1 46.47,25.59 L 46.75,24.2 C 46.35,24.06 45.94,24 45.51,24 Z M 40.67,30 L 41.31,26.66 C 41.43,26.03 41.47,25.16 40.98,24.59 C 40.64,24.2 40.11,24 39.38,24 A 3.53,3.53 0 0,0 36.93,24.96 A 4.25,4.25 0 0,0 35.68,28 C 35.68,29 36.21,30.01 37.4,30.01 C 37.8,30.03 38.19,29.91 38.52,29.69 C 38.84,29.46 39.08,29.14 39.19,28.77 L 38.97,30 H 40.67 Z M 39.04,25.3 C 39.44,25.3 39.65,25.51 39.67,25.92 A 6.2,6.2 0 0,1 39.51,27.02 C 39.31,27.96 38.76,28.62 38.11,28.62 C 37.71,28.62 37.48,28.24 37.48,27.64 C 37.48,26.68 38.2,25.29 39.04,25.29 Z M 14.26,27.64 C 14.26,25.57 15.94,24 18.17,24 C 18.59,24 19.01,24.06 19.4,24.2 L 19.13,25.6 A 2,2 0 0,0 18.14,25.37 C 16.88,25.37 16.12,26.43 16.12,27.45 C 16.12,28.32 16.72,28.63 17.29,28.63 C 17.81,28.63 18.32,28.5 18.78,28.26 L 18.5,29.69 C 17.95,29.91 17.37,30.01 16.79,30 C 15.25,30 14.26,29.07 14.26,27.64 Z M 13.96,26.66 L 13.33,30 H 11.63 L 11.85,28.76 C 11.75,29.13 11.51,29.46 11.18,29.68 C 10.86,29.9 10.46,30.02 10.06,30 C 8.88,30 8.34,29 8.34,27.99 C 8.34,26.86 8.78,25.78 9.6,24.96 A 3.41,3.41 0 0,1 12.05,24 C 12.78,24 13.31,24.2 13.65,24.6 C 14.14,25.17 14.1,26.03 13.98,26.66 Z M 12.33,25.92 C 12.31,25.52 12.09,25.29 11.69,25.29 C 10.86,25.29 10.13,26.68 10.13,27.64 C 10.13,28.24 10.36,28.61 10.77,28.61 C 11.42,28.61 11.97,27.96 12.17,27.01 C 12.25,26.65 12.31,26.29 12.33,25.91 Z M 6.73,24 L 6.48,25.46 C 6.68,24.99 7.04,24.59 7.48,24.33 A 2.7,2.7 0 0,1 8.97,24 L 8.63,25.83 C 7.41,25.64 6.55,26.03 6.27,27.53 L 5.78,30 H 4 L 5.17,24 H 6.73 Z" fill="rgb(254, 254, 253)"/>
</svg>
