<?xml version="1.0" encoding="UTF-8"?>
<!-- generated by Finnhub -->
<svg viewBox="0 0 55.5 55.5" xmlns="http://www.w3.org/2000/svg">
<path d="M 0,0 H 55.5 V 55.5 H 0 Z" fill="rgb(39, 29, 166)"/>
<path d="M 25.99,39.485 V 31.6 C 26.8,31.56 27.58,31.53 28.34,31.47 C 28.07,30.85 27.8,30.24 27.46,29.65 C 27.01,29.71 26.49,29.71 26,29.74 V 28.09 C 24.93,28.33 24.22,28.5 23.04,28.62 V 39.5 C 23.04,41.91 21.88,42.56 21.18,43 H 27.88 C 27.22,42.56 26,41.91 26,39.5 Z M 43,43 A 5.43,5.43 0 0,1 41.33,40 C 40.66,37.03 39.26,32.77 36.3,29.59 C 39.2,28.06 40.96,25.65 40.96,22.69 A 6.83,6.83 0 0,0 37.86,17 A 8.97,8.97 0 0,0 34.81,15.85 C 35.24,16.74 35.51,17.68 35.57,18.62 A 4.96,4.96 0 0,1 37.49,22.74 C 37.49,24.94 36.34,27.54 32.29,28.86 C 32.62,29.47 32.95,30.12 33.23,30.74 L 33.87,30.56 A 17.47,17.47 0 0,1 37.73,39.09 C 38.07,41.33 37.25,42.47 36.7,43 H 43 Z" fill="rgb(254, 254, 253)"/>
<path d="M 19.99,25.985 V 14 H 25.1 C 28.36,14.05 31.31,15.43 31.31,19.15 C 31.31,22.18 28.89,25.85 20,26 Z M 35.9,39 C 35.3,38.47 34.57,38.06 34.23,36.44 C 33.57,33.47 32.23,29.3 29.55,26.33 L 29.88,26.18 C 32.93,24.68 34.78,22.18 34.78,19.12 A 6.8,6.8 0 0,0 31.68,13.44 C 30.1,12.41 27.97,12 25.26,12 H 15 C 15.7,12.44 17,13.09 17,15.5 V 35.55 C 17,37.98 15.7,38.55 15,39 H 22.12 C 21.45,38.56 20,37.98 20,35.55 V 28 C 22.5,28 25.1,27.7 27.08,27.2 A 17.17,17.17 0 0,1 30.64,35.5 C 30.94,37.74 30.16,38.47 29.61,39 H 35.91 Z" fill="rgb(254, 254, 253)"/>
<path d="M 25.99,24.215 V 18 H 30.26 A 4.54,4.54 0 0,0 28.85,16 H 21.18 C 21.88,16.44 23,16.65 23,19.09 V 24.92 C 24.28,24.75 25.03,24.61 26,24.22 Z" fill="rgb(254, 254, 253)"/>
</svg>
