<?xml version="1.0" encoding="UTF-8"?>
<!-- generated by Finnhub -->
<svg viewBox="0 0 55.5 55.5" xmlns="http://www.w3.org/2000/svg">
<path d="M 0,0 H 55.5 V 55.5 H 0 Z" fill="rgb(239, 242, 248)"/>
<path d="M 12.99,23.985 C 17.35,21.99 28.04,18.97 36,22.96 C 35.7,22.96 24.68,20.8 13,24 Z" fill="rgb(101, 153, 63)"/>
<path d="M 28.509999999999998,16.985 L 36,21 C 29.66,19.22 22.78,19.96 22,20.02 C 26.25,18.85 28.12,17.52 28.52,17 Z" fill="rgb(180, 188, 49)"/>
<path d="M 3.99,24.985 H 8.41 A 2.24,2.24 0 0,1 9.57,29.16 L 11,32 H 8.84 L 7.86,29.87 A 0.68,0.68 0 0,0 7.24,29.49 H 6 V 32 H 4 V 25 Z M 6,26.38 H 8.19 A 0.81,0.81 0 0,1 8.19,28 H 6 V 26.38 Z" fill="rgb(26, 73, 123)" fill-rule="evenodd"/>
<path d="M 11.99,27.405 L 12.69,26 H 15.27 C 16.23,26 17,26.77 17,27.72 V 32 H 15 V 31.7 L 14.63,32 H 13.37 C 12.61,32 12,31.32 12,30.48 V 29.52 C 12,28.68 12.61,28 13.37,28 H 15 A 0.62,0.62 0 0,0 14.38,27.42 H 12 Z M 15,29 H 14.5 A 1,1 0 1,0 14.5,31 H 15 V 29 Z" fill="rgb(26, 73, 123)"/>
<path d="M 26.279999999999998,25.985 C 25.02,26 24,27 24,28.22 V 29.78 A 2.26,2.26 0 0,0 26.29,32 H 27.71 C 28.98,32 30,31 30,29.78 V 28.22 A 2.26,2.26 0 0,0 27.71,26 H 26.3 Z M 27,31 C 27.55,31 28,30.1 28,29 S 27.55,27 27,27 S 26,27.9 26,29 S 26.45,31 27,31 Z" fill="rgb(26, 73, 123)" fill-rule="evenodd"/>
<path d="M 17.189999999999998,25.985 H 19.37 L 20.6,30.09 L 21.83,26 H 24 L 21.73,32.03 L 21.08,33.6 A 2.34,2.34 0 0,1 18.89,35 H 18 L 17,33 H 18.46 C 19.11,33 19.58,32.83 19.38,32.26 L 19.15,31.56 L 17.2,26 Z M 38,26 H 40 V 32 H 38 Z M 35.35,26 C 36.26,26 37,26.66 37,27.47 V 32 H 35 V 28.26 C 35,27.82 34.6,27.47 34.12,27.47 H 33 V 32 H 31 V 26 H 33 V 26.73 L 33.88,26 H 35.35 Z M 38,23 H 40 V 25 H 38 Z M 52,26 L 51.21,27.47 H 50.51 C 50.08,27.47 50,27.7 50,28.12 V 32 H 48 V 26 H 50 V 26.73 L 50.5,26 H 52 Z" fill="rgb(26, 73, 123)"/>
<path d="M 43.61,25.985 C 42.17,26 41,27.03 41,28.3 V 29.7 C 41,30.97 42.17,32 43.62,32 H 46.04 L 46.88,30.55 H 46.82 L 46.84,30.5 H 44.12 C 43.8,30.49 43.22,30.28 43,29.61 H 47 V 28.3 C 47,27.04 45.83,26.01 44.38,26.01 H 43.62 Z M 44,27.46 C 43.45,27.46 43,27.86 43,28.37 V 28.5 H 45 V 28.37 C 45,27.87 44.55,27.46 44,27.46 Z" fill="rgb(26, 73, 123)" fill-rule="evenodd"/>
</svg>
