<?xml version="1.0" encoding="UTF-8"?>
<!-- generated by Finnhub -->
<svg viewBox="0 0 55.5 55.5" xmlns="http://www.w3.org/2000/svg">
<path d="M 0,0 H 55.5 V 55.5 H 0 Z" fill="rgb(239, 242, 248)"/>
<path d="M 33.52,11.905 L 33.43,11.94 C 33.33,11.96 33.33,11.99 33.41,12.03 L 34.05,12.39 A 7.16,7.16 0 0,0 33.84,14.06 C 33.84,15.31 33.97,16.76 34.22,18.4 C 34.33,19.15 34.59,19.8 34.99,20.36 C 35.67,21.3 36.23,22.2 36.68,23.05 C 37.18,23.99 37.38,24.96 37.26,25.97 A 9.3,9.3 0 0,0 35.74,22.47 C 34.74,21.09 33.46,19.97 31.91,19.14 A 8,8 0 0,0 28.22,17.29 A 1.94,1.94 0 0,0 27.02,16.68 C 25.82,16.48 24.84,16.36 24.09,16.32 C 23.04,16.26 22.11,16.32 21.29,16.49 C 20.89,16.57 20.17,16.75 19.16,17.03 L 21.32,16.31 C 21.34,16.3 21.35,16.29 21.34,16.27 L 21.33,16.21 H 21.31 L 19.05,16.8 C 18.95,16.82 18.95,16.81 19.04,16.77 C 19.18,16.7 19.34,16.64 19.53,16.57 C 21.03,16.12 22.56,15.94 24.13,16.03 A 155.78,155.78 0 0,1 27.13,16.22 V 16.2 C 27.13,16.18 27.13,16.17 27.1,16.16 A 9.83,9.83 0 0,0 24.59,15.75 C 22.84,15.73 21.07,15.99 19.29,16.54 L 17.17,17.42 A 9.77,9.77 0 0,1 21.49,15.94 L 25.06,15.59 C 25.12,15.59 25.14,15.56 25.11,15.51 L 22.95,11.77 A 16.9,16.9 0 0,1 33.53,11.92 Z" fill="rgb(45, 143, 193)"/>
<path d="M 22.939999999999998,11.754999999999999 L 25.11,15.51 C 25.14,15.56 25.12,15.58 25.06,15.59 L 21.49,15.94 A 9.77,9.77 0 0,0 17.17,17.42 L 14.83,19.36 A 6.69,6.69 0 0,0 14.26,19.98 L 14.29,20.06 C 14.29,20.08 14.3,20.09 14.32,20.07 A 14.93,14.93 0 0,1 17.68,17.66 C 17.4,17.81 17.36,17.88 17.55,17.88 A 3.58,3.58 0 0,1 16.62,18.5 C 16.6,18.5 16.59,18.5 16.59,18.48 L 16.92,18.21 C 16.96,18.18 16.96,18.18 16.92,18.21 C 16.82,18.27 16.71,18.36 16.59,18.48 C 15.72,18.95 15.03,19.48 14.51,20.06 C 14.34,20.25 13.93,20.76 13.29,21.59 A 5.14,5.14 0 0,0 12.44,23.2 C 12.26,23.67 12.1,24 11.98,24.22 C 11.78,24.58 11.54,24.9 11.24,25.18 A 16.81,16.81 0 0,1 17.94,14.3 A 16.89,16.89 0 0,1 22.95,11.77 Z" fill="rgb(25, 118, 170)"/>
<path d="M 33.52,11.905 A 16.92,16.92 0 0,1 41.72,17.96 A 36.35,36.35 0 0,1 42.28,23.28 C 42.25,23.23 42.23,23.24 42.22,23.29 A 1.12,1.12 0 0,0 42.21,23.68 H 42.19 C 42.2,23.52 42.19,23.37 42.15,23.22 C 42.13,23.09 42.1,23.09 42.08,23.22 C 42.04,23.52 41.99,23.98 41.94,24.61 A 13.68,13.68 0 0,1 39.06,32.25 C 38.93,32.42 38.77,32.59 38.57,32.77 A 3.9,3.9 0 0,0 38.07,33.29 A 5.3,5.3 0 0,1 36.07,34.94 C 35.67,35.14 35.27,35.21 34.87,35.14 A 12.46,12.46 0 0,0 40.79,26.42 C 41.29,23.68 40.95,21.06 39.79,18.55 A 13.2,13.2 0 0,0 34.05,12.39 L 33.41,12.03 C 33.33,11.99 33.34,11.96 33.42,11.94 L 33.52,11.92 Z" fill="rgb(9, 90, 127)"/>
<path d="M 34.86,35.125 C 34.49,35.38 34.12,35.65 33.77,35.94 C 33.72,35.98 33.71,36.02 33.72,36.08 C 33.73,36.13 33.76,36.14 33.81,36.13 A 7.33,7.33 0 0,0 36.07,34.94 A 5.3,5.3 0 0,0 38.07,33.29 C 38.33,33.22 38.48,33.17 38.52,33.12 L 35.93,35.27 L 34.64,36.04 L 34.62,36.09 L 34.64,36.15 H 34.65 C 35.65,35.68 36.63,35.09 37.56,34.38 A 23.08,23.08 0 0,0 38.86,33.21 A 7.09,7.09 0 0,0 38.88,33.23 V 33.27 C 38.51,33.59 38.2,33.97 37.95,34.39 C 37.93,34.42 37.93,34.44 37.95,34.43 H 38.02 L 38.52,33.83 C 38.24,34.23 37.77,34.64 37.12,35.1 C 35.81,36.02 34.52,36.67 33.28,37.05 A 17.17,17.17 0 0,1 26.38,37.71 C 26.36,37.71 26.36,37.72 26.36,37.73 C 26.36,37.75 26.38,37.75 26.39,37.76 C 26.77,37.82 27.09,37.86 27.33,37.86 C 28.15,37.91 28.99,37.91 29.87,37.86 C 30.34,37.85 30.84,37.78 31.37,37.66 A 58.1,58.1 0 0,0 36.02,36.44 A 18.7,18.7 0 0,1 39.52,35.81 C 40.39,35.73 41.62,35.68 43.18,35.68 A 16.95,16.95 0 0,1 40.43,39.61 A 15.14,15.14 0 0,1 32.12,42.86 C 29.89,42.94 27.84,42.54 25.96,41.66 A 13.24,13.24 0 0,1 18.43,32.42 A 27.3,27.3 0 0,1 18.18,29.67 C 18.15,29.12 18.24,28.58 18.43,28.05 A 9.57,9.57 0 0,0 26.03,37.19 C 27.09,37.69 28.22,37.85 29.43,37.69 C 29.53,37.68 29.54,37.66 29.43,37.63 L 29.15,37.56 C 29.08,37.54 29.06,37.49 29.09,37.42 A 0.38,0.38 0 0,1 29.17,37.3 L 29.42,37.27 C 29.7,37.47 30.04,37.52 30.42,37.44 L 32.32,37.04 L 30.91,37.42 V 37.48 C 30.93,37.5 30.94,37.51 30.97,37.5 C 32.03,37.28 32.83,37.09 33.37,36.92 A 9.5,9.5 0 0,0 35.54,35.97 L 37.62,34.62 C 37.64,34.62 37.63,34.6 37.62,34.59 H 37.56 C 36.86,35.03 36.19,35.49 35.54,35.97 L 32.74,36.97 L 33.63,36.6 C 33.65,36.59 33.66,36.57 33.65,36.55 C 33.65,36.52 33.63,36.51 33.6,36.52 C 32.91,36.76 32.22,36.82 31.5,36.71 A 9.17,9.17 0 0,0 35.16,34.08 A 9.44,9.44 0 0,0 37.27,25.98 A 4.99,4.99 0 0,0 36.69,23.05 A 23.85,23.85 0 0,0 34.99,20.35 A 4.45,4.45 0 0,1 34.23,18.4 A 31.05,31.05 0 0,1 33.85,14.06 C 33.85,13.57 33.91,13.02 34.05,12.39 A 13.2,13.2 0 0,1 39.8,18.55 A 12.87,12.87 0 0,1 40.8,26.42 A 12.46,12.46 0 0,1 34.88,35.14 Z" fill="rgb(58, 167, 214)"/>
<path d="M 19.52,16.555 L 19.28,16.54 C 21.07,15.99 22.84,15.73 24.58,15.74 C 25.32,15.76 26.16,15.89 27.1,16.16 C 27.12,16.16 27.13,16.18 27.13,16.2 V 16.22 L 27.12,16.23 C 26.18,16.16 25.19,16.09 24.12,16.03 C 22.56,15.93 21.02,16.12 19.52,16.57 Z" fill="rgb(13, 108, 158)"/>
<path d="M 19.15,17.015 L 17.56,17.87 C 17.36,17.88 17.4,17.81 17.68,17.66 V 17.64 A 14.94,14.94 0 0,0 14.32,20.07 C 14.3,20.09 14.29,20.08 14.28,20.07 L 14.26,19.98 L 14.27,19.94 C 14.55,19.64 14.73,19.44 14.83,19.36 L 17.17,17.42 L 19.28,16.54 L 19.53,16.57 L 19.03,16.77 C 18.95,16.81 18.95,16.82 19.05,16.8 L 21.31,16.2 L 21.33,16.21 L 21.34,16.27 C 21.34,16.29 21.34,16.3 21.32,16.31 L 19.16,17.03 Z" fill="rgb(9, 90, 127)"/>
<path d="M 28.209999999999997,17.275 C 24.86,16.41 21.64,16.79 18.58,18.39 A 13.2,13.2 0 0,0 11.51,31.04 A 0.25,0.25 0 0,1 11.31,31.24 A 16.89,16.89 0 0,1 11.24,25.18 C 11.54,24.9 11.79,24.58 11.98,24.22 A 9.38,9.38 0 0,0 12.62,22.74 C 12.79,22.34 13.02,21.96 13.29,21.59 C 13.93,20.76 14.34,20.25 14.51,20.06 A 7.75,7.75 0 0,1 16.59,18.48 C 16.59,18.49 16.6,18.5 16.62,18.5 H 16.65 C 16.99,18.33 17.29,18.13 17.55,17.87 L 19.16,17.03 C 20.17,16.75 20.88,16.57 21.28,16.49 A 10.8,10.8 0 0,1 24.08,16.32 C 24.84,16.36 25.82,16.48 27.01,16.68 C 27.55,16.77 27.96,16.98 28.22,17.28 Z" fill="rgb(1, 65, 99)"/>
<path d="M 28.209999999999997,17.275 A 8,8 0 0,1 31.92,19.14 L 30.44,18.74 A 9.15,9.15 0 0,0 22.3,20.27 C 22.04,20.46 21.6,20.85 20.95,21.45 C 20.95,21.39 20.93,21.35 20.91,21.32 C 20.86,21.27 20.81,21.27 20.75,21.32 A 10.36,10.36 0 0,0 18.19,25.67 A 18.54,18.54 0 0,0 16.97,31.84 C 16.97,31.93 16.92,31.97 16.84,31.99 C 16.3,32.07 15.76,32.09 15.21,32.07 A 28.06,28.06 0 0,1 12.71,31.79 C 12.58,31.78 12.28,31.79 11.81,31.83 C 11.75,31.83 11.71,31.8 11.69,31.75 L 11.5,31.05 A 13.2,13.2 0 0,1 18.58,18.4 A 12.98,12.98 0 0,1 28.22,17.29 Z" fill="rgb(58, 167, 214)"/>
<path d="M 43.160000000000004,35.665 C 41.6,35.68 40.38,35.73 39.51,35.81 A 18.7,18.7 0 0,0 35.33,36.63 C 33.58,37.13 32.26,37.48 31.37,37.67 C 30.83,37.77 30.33,37.85 29.86,37.87 C 28.98,37.91 28.14,37.91 27.32,37.87 A 9.46,9.46 0 0,1 26.35,37.73 C 26.35,37.72 26.35,37.71 26.37,37.71 L 26.39,37.7 H 26.41 C 28.74,37.94 31.03,37.73 33.27,37.05 A 13.68,13.68 0 0,0 37.11,35.1 A 5.92,5.92 0 0,0 38.51,33.84 C 39.38,33.04 40.11,32.14 40.72,31.13 C 40.8,31 40.79,30.99 40.69,31.11 L 38.98,33.13 L 38.96,33.14 L 38.97,33.12 L 40.87,30.59 C 40.89,30.57 40.89,30.55 40.87,30.53 L 40.8,30.48 C 40.78,30.46 40.75,30.46 40.73,30.48 A 46.57,46.57 0 0,1 39.04,32.74 A 10.6,10.6 0 0,1 35.94,35.27 L 38.52,33.12 A 13.32,13.32 0 0,0 41.15,29.21 L 40.87,29.99 C 40.85,30.06 40.86,30.07 40.91,30.02 C 41.11,29.86 41.24,29.68 41.32,29.49 A 15.36,15.36 0 0,0 42.57,24.06 L 42.53,24.03 C 42.5,24.01 42.49,24.02 42.48,24.05 L 42.45,24.27 A 19.5,19.5 0 0,1 41.53,28.42 C 42.09,26.82 42.35,25.19 42.3,23.52 A 36.36,36.36 0 0,0 41.72,17.96 A 16.88,16.88 0 0,1 44.99,28.43 A 16.95,16.95 0 0,1 43.17,35.68 Z" fill="rgb(45, 143, 193)"/>
<path d="M 20.939999999999998,21.435 C 19.3,23.26 18.45,25.45 18.42,28.05 C 18.22,28.58 18.14,29.12 18.17,29.67 C 18.2,30.6 18.29,31.52 18.42,32.42 C 18.3,33.38 18.42,34.32 18.76,35.24 A 13.1,13.1 0 0,0 22,40.16 C 22.9,41.04 23.91,41.73 25,42.24 C 27.02,43.18 29.21,43.59 31.57,43.46 C 31.71,43.46 31.87,43.39 32.04,43.28 C 32.12,43.23 32.16,43.17 32.17,43.1 A 0.42,0.42 0 0,0 32.11,42.86 C 35.12,42.64 37.89,41.56 40.42,39.61 A 16.65,16.65 0 0,1 31.96,44.53 A 16.9,16.9 0 0,1 21.67,43.78 A 16.67,16.67 0 0,1 14.27,38.03 C 14.74,37.9 15.04,37.83 15.17,37.81 C 15.37,37.78 15.68,37.76 16.13,37.73 C 17.09,37.67 17.81,37.58 18.27,37.46 C 18.33,37.45 18.37,37.41 18.37,37.35 C 18.44,36.81 18.43,36.41 18.33,36.13 C 17.75,34.43 17.45,32.71 17.43,30.97 C 17.42,30.37 17.53,29.48 17.73,28.31 C 17.9,27.43 18.05,26.55 18.19,25.67 C 18.69,24 19.55,22.55 20.75,21.32 C 20.81,21.27 20.85,21.27 20.91,21.32 C 20.93,21.34 20.95,21.39 20.95,21.45 Z M 42.3,23.51 C 42.35,25.19 42.1,26.82 41.53,28.42 L 41.15,29.21 A 13.32,13.32 0 0,1 38.52,33.12 C 38.48,33.17 38.33,33.22 38.07,33.29 C 38.13,33.21 38.29,33.03 38.57,32.77 C 38.77,32.59 38.93,32.42 39.07,32.25 A 13.68,13.68 0 0,0 41.94,24.61 C 41.99,23.98 42.04,23.51 42.08,23.22 C 42.1,23.09 42.13,23.09 42.15,23.22 C 42.19,23.37 42.2,23.52 42.19,23.67 H 42.2 A 1.12,1.12 0 0,1 42.22,23.29 C 42.22,23.24 42.25,23.23 42.28,23.29 C 42.31,23.34 42.31,23.41 42.3,23.51 Z" fill="rgb(13, 108, 158)"/>
<path d="M 41.14,29.185 L 41.53,28.42 A 19.5,19.5 0 0,0 42.48,24.05 C 42.48,24.02 42.5,24.01 42.53,24.03 L 42.57,24.06 V 24.07 C 42.49,25.94 42.07,27.75 41.32,29.49 C 41.24,29.68 41.1,29.86 40.92,30.02 C 40.86,30.07 40.85,30.06 40.87,29.99 L 41.15,29.21 Z" fill="rgb(25, 118, 170)"/>
<path d="M 18.18,25.655 L 17.74,28.31 A 15.05,15.05 0 0,0 17.42,30.97 C 17.44,32.71 17.75,34.43 18.32,36.13 C 18.42,36.41 18.44,36.81 18.37,37.35 C 18.37,37.41 18.33,37.45 18.27,37.46 C 17.81,37.58 17.09,37.67 16.13,37.73 C 15.68,37.76 15.36,37.78 15.18,37.81 C 15.04,37.83 14.74,37.9 14.28,38.03 A 16.78,16.78 0 0,1 11.31,31.23 C 11.41,31.21 11.47,31.15 11.51,31.05 L 11.69,31.75 C 11.71,31.8 11.75,31.83 11.8,31.83 A 6.12,6.12 0 0,1 13.39,31.88 C 14.24,31.99 14.85,32.05 15.21,32.08 C 15.76,32.1 16.31,32.07 16.84,31.98 C 16.92,31.98 16.96,31.93 16.97,31.84 C 17.07,29.45 17.48,27.39 18.19,25.67 Z" fill="rgb(32, 128, 179)"/>
<path d="M 38.49,33.825 L 38,34.42 L 37.96,34.43 C 37.93,34.43 37.93,34.43 37.95,34.39 C 38.2,33.96 38.51,33.59 38.88,33.27 V 33.23 A 7.33,7.33 0 0,1 38.86,33.23 C 38.21,33.83 37.78,34.21 37.56,34.38 A 16.3,16.3 0 0,1 34.64,36.15 L 34.62,36.09 C 34.62,36.07 34.62,36.05 34.64,36.04 L 35.94,35.27 A 10.6,10.6 0 0,0 39.04,32.74 C 39.37,32.35 39.93,31.6 40.74,30.49 C 40.75,30.46 40.78,30.46 40.8,30.49 L 40.87,30.53 C 40.89,30.55 40.89,30.57 40.87,30.59 L 38.97,33.12 V 33.14 L 40.69,31.11 C 40.79,30.99 40.8,31.01 40.72,31.13 A 11.9,11.9 0 0,1 38.51,33.83 Z" fill="rgb(25, 118, 170)"/>
<path d="M 32.09,42.845 C 32.15,42.94 32.17,43.02 32.17,43.1 C 32.16,43.17 32.12,43.23 32.04,43.28 A 0.98,0.98 0 0,1 31.57,43.46 C 29.21,43.59 27.02,43.18 25.01,42.24 C 23.91,41.73 22.91,41.04 22,40.16 A 13.1,13.1 0 0,1 18.76,35.24 A 5.89,5.89 0 0,1 18.42,32.42 C 19.51,36.75 22.02,39.82 25.95,41.66 C 27.83,42.54 29.88,42.94 32.11,42.86 Z" fill="rgb(1, 65, 99)"/>
<path d="M 36.06,34.925 C 35.38,35.47 34.63,35.87 33.81,36.13 C 33.76,36.14 33.73,36.13 33.72,36.08 C 33.71,36.02 33.72,35.98 33.76,35.94 C 34.12,35.65 34.49,35.38 34.86,35.14 C 35.28,35.21 35.68,35.14 36.07,34.94 Z" fill="rgb(13, 108, 158)"/>
<path d="M 35.52,35.955 A 9.5,9.5 0 0,1 33.35,36.92 C 32.82,37.09 32.02,37.28 30.95,37.5 C 30.93,37.5 30.92,37.5 30.91,37.48 L 30.89,37.42 L 32.31,37.03 L 32.72,36.97 L 35.52,35.97 Z" fill="rgb(45, 143, 193)"/>
<path d="M 32.71,36.955 L 32.31,37.03 L 30.41,37.44 C 30.03,37.52 29.69,37.46 29.41,37.27 L 31.49,36.71 C 32.21,36.83 32.9,36.76 33.59,36.51 C 33.62,36.51 33.64,36.51 33.64,36.54 S 33.64,36.59 33.62,36.6 L 32.72,36.97 Z" fill="rgb(25, 118, 170)"/>
<path d="M 29.15,37.285 A 0.38,0.38 0 0,0 29.08,37.42 C 29.05,37.49 29.08,37.54 29.14,37.56 L 29.42,37.63 C 29.53,37.66 29.52,37.68 29.42,37.69 C 28.21,37.85 27.08,37.69 26.02,37.19 C 27.07,37.37 28.12,37.4 29.16,37.29 Z" fill="rgb(45, 143, 193)"/>
</svg>
