<?xml version="1.0" encoding="UTF-8"?>
<!-- generated by Finnhub -->
<svg viewBox="0 0 55.5 55.5" xmlns="http://www.w3.org/2000/svg">
<path d="M 0,0 H 55.5 V 55.5 H 0 Z" fill="rgb(203, 32, 47)"/>
<path d="M 51.52,31.157999999999998 C 50.935,32.843 49.31,33.995 46.67,33.995 C 44.476,33.995 42.344,32.658 42.902,29.726 C 43.311,27.241 45.579,25.608 48.182,25.608 C 51.083,25.608 52.385,27.574 51.902,29.911 L 51.789,30.431 H 46.323 C 46.323,30.505 46.249,30.765 46.249,31.024 C 46.249,31.73 46.62,31.989 47.067,31.989 C 47.55,31.989 47.997,31.693 48.219,31.173 H 51.529 Z M 48.74,28.8 L 48.778,28.614 C 48.889,27.984 48.591,27.538 47.96,27.538 C 47.365,27.538 46.843,27.946 46.695,28.8 H 48.74 Z M 42.381,25.757 C 41.526,25.757 40.856,26.202 40.41,26.833 H 40.336 L 40.484,25.831 H 36.952 L 36.728,26.871 L 38.662,26.647 L 38.625,26.833 L 36.654,27.167 L 35.209,34 H 39.003 S 39.443,31.804 39.703,30.728 C 40.075,28.947 41.043,28.576 41.674,28.576 C 42.233,28.576 42.567,28.799 42.641,28.873 L 43.274,25.979 C 43.199,25.942 42.902,25.756 42.381,25.756 Z M 7.871,29.097 C 6.346,28.614 5.193,27.724 5.193,26.017 C 5.193,23.531 7.684,22.121 11.031,22.084 C 13.821,22.084 15.717,23.271 15.382,25.609 H 11.366 C 11.515,24.978 11.143,24.607 10.436,24.607 C 9.916,24.607 9.506,24.867 9.432,25.201 C 9.357,25.646 9.655,25.943 10.362,26.128 A 25.76,25.76 0 0,0 11.96,26.574 C 13.671,27.094 14.49,28.094 14.675,29.134 L 9.655,29.654 L 7.87,29.096 Z M 8.019,31.805 L 8.342,29.999 H 4.028 C 3.73,32.67 5.862,33.994 8.614,33.994 C 11.217,33.994 14.006,33.104 14.601,30.729 L 8.02,31.804 Z M 30.369,26.388 C 30.666,26.165 31.411,25.608 32.526,25.608 C 33.679,25.608 34.572,26.091 34.98,27.018 L 26.204,27.946 L 27.518,22 H 31.311 L 30.295,26.387 H 30.369 Z M 30.146,28.206 C 29.923,28.54 29.7,29.022 29.551,29.726 C 29.216,31.286 29.588,31.694 30.035,31.694 C 30.667,31.694 31.188,31.1 31.448,29.764 C 31.597,28.911 31.56,28.28 31.337,28.02 L 35.129,27.427 C 35.315,28.021 35.353,28.8 35.167,29.653 C 34.609,32.473 32.892,33.985 30.997,33.985 C 30.141,33.985 29.179,33.697 28.807,32.77 H 28.696 L 28.419,33.996 H 24.997 L 25.981,28.874 L 30.146,28.206 Z M 20.663,30.915 C 20.551,31.508 20.143,31.99 19.584,31.99 C 19.027,31.99 18.804,31.545 18.878,31.063 C 18.989,30.655 19.398,30.246 20.18,30.246 H 20.812 L 20.662,30.915 Z M 19.696,28.206 C 19.808,27.724 20.179,27.353 20.663,27.353 C 21.109,27.353 21.333,27.761 21.221,28.169 L 21.184,28.466 L 24.716,28.095 C 24.456,26.277 22.783,25.497 20.812,25.497 C 17.874,25.497 16.461,26.944 16.163,28.243 L 16.126,28.428 H 19.659 L 19.696,28.206 Z M 15.345,30.618 C 15.223,30.938 15.16,31.278 15.159,31.619 C 15.159,32.844 16.071,33.997 17.633,33.997 C 19.046,33.997 19.882,33.327 20.253,32.917 H 20.291 L 20.123,33.997 H 23.693 L 24.643,29.578 C 24.679,29.43 24.716,29.244 24.753,29.096 L 15.345,30.618 Z" fill="rgb(254, 254, 253)"/>
</svg>
