<?xml version="1.0" encoding="UTF-8"?>
<!-- generated by Finnhub -->
<svg viewBox="0 0 55.5 55.5" xmlns="http://www.w3.org/2000/svg">
<path d="M 0,0 H 55.5 V 55.5 H 0 Z" fill="rgb(239, 242, 248)"/>
<path d="M 27.919999999999998,16.985 L 21.34,23.92 C 21.31,23.96 21.27,24 21.22,24 H 16.8 C 16.71,24 16.7,23.93 16.77,23.87 L 27.93,12.03 A 0.1,0.1 0 0,1 28.07,12.03 L 39.27,23.91 C 39.31,23.95 39.33,24.01 39.27,24 H 35.04 C 34.81,24 34.64,23.97 34.46,23.79 L 28.06,16.99 C 28.01,16.95 27.98,16.95 27.94,16.99 Z M 49.95,35.99 L 48.17,36 L 48.14,35.99 L 37.77,28.09 A 0.05,0.05 0 0,1 37.8,28 H 42.17 A 0.05,0.05 0 0,1 42.2,28.01 L 49.99,35.91 A 0.05,0.05 0 0,1 49.99,35.94 V 35.96 A 0.05,0.05 0 0,1 49.95,35.99 Z M 18.17,29.95 L 34.77,28 H 13.82 C 13.76,28 13.72,28.02 13.68,28.06 L 6.02,35.92 C 5.98,35.97 5.99,36 6.05,36 H 12.23 C 12.29,36 12.33,35.97 12.37,35.92 L 18.02,30.02 C 18.06,29.98 18.12,29.95 18.17,29.95 Z" fill="rgb(91, 156, 88)"/>
</svg>
