<?xml version="1.0" encoding="UTF-8"?>
<!-- generated by Finnhub -->
<svg viewBox="0 0 55.5 55.5" xmlns="http://www.w3.org/2000/svg">
<path d="M 0,0 H 55.5 V 55.5 H 0 Z" fill="rgb(1, 106, 180)"/>
<path d="M 25.604999999999997,24.82 C 24.631,26.603 22.387,30 22.387,30 H 26.172 L 25.688,32 H 21.366 C 21.3,32.117 19.642,34.99 19.642,34.99 H 16.57 L 24.657,21.017 H 27.862 L 29.624,34.99 H 26.764 S 25.63,24.934 25.615,24.835 Z M 37.207,21.004 H 33.997 L 30.907,34.99 H 34.173 L 37.207,21.004 Z M 41.317,27.805 H 41.314 L 40.687,31.365 C 40.5,32.5 40.5,33 41.76,33 H 48.106 L 47.583,35 H 40.687 C 38.191,35 37.325,33.277 37.661,31.64 C 37.713,31.38 39.004,25.627 39.188,24.706 C 39.373,23.785 39.556,21.007 42.435,21.007 L 50,21.006 L 49.434,23 H 43.238 C 42.162,23 42.044,24.042 41.949,24.482 A 111.93,111.93 0 0,0 41.317,27.805 Z M 9.99,25.765 C 9.864,26.423 10.52,26.329 10.92,26.329 H 14.662 C 16.436,26.329 17.394,27.439 17.107,28.949 A 52.44,52.44 0 0,1 16.237,32.874 C 15.829,34.43 14.339,34.99 12.702,34.99 H 5 L 5.535,33 H 11.685 C 12.495,32.993 13.401,33.103 13.571,32.354 C 13.678,31.879 14.008,30.041 14.162,29.222 C 14.25,28.758 13.988,28.762 13.348,28.762 C 13.348,28.762 10.419,28.758 9.103,28.758 C 8.127,28.758 6.966,28.378 7.056,27.12 C 7.091,26.625 7.226,25.862 7.465,24.32 C 8.021,20.735 10.062,21.005 10.995,21.004 H 18.16 L 17.589,23.004 S 13.543,23.004 11.685,23 C 10.408,22.998 10.415,23.565 10.213,24.53 C 10.089,25.14 10.045,25.482 9.99,25.765 Z" fill="rgb(254, 254, 253)"/>
</svg>
