<?xml version="1.0" encoding="UTF-8"?>
<!-- generated by Finnhub -->
<svg viewBox="0 0 55.5 55.5" xmlns="http://www.w3.org/2000/svg">
<path d="M 0,0 H 55.5 V 55.5 H 0 Z" fill="rgb(239, 242, 248)"/>
<path d="M 21.209999999999997,27.905 C 26.47,30.18 27.32,34.5 27.83,39.69 C 28.04,41.79 27.49,43.52 26.18,44.91 A 0.25,0.25 0 0,1 25.98,44.99 C 18.96,44.58 13.63,39.66 11.72,32.91 A 16.79,16.79 0 0,1 13.56,19.07 A 17.06,17.06 0 0,1 38.31,14.43 C 44.26,19.03 46.7,27.61 43.74,34.63 C 41.2,40.68 35.87,44.77 29.38,45 C 29.34,45 29.3,45 29.27,44.98 A 0.26,0.26 0 0,1 29.17,44.9 C 27.98,43.31 28.35,38.14 28.57,36.39 C 28.63,35.9 28.83,35.33 29.17,34.67 C 30.27,32.57 31.19,31.03 33.05,29.74 A 94.31,94.31 0 0,0 38.47,25.7 C 38.69,25.53 38.95,25.36 39.26,25.2 A 0.38,0.38 0 0,1 39.76,25.34 A 0.4,0.4 0 0,1 39.81,25.51 C 39.94,26.87 39.81,28.2 39.44,29.51 C 38.34,33.3 35.24,34.14 32.06,35.71 C 29.28,37.1 28.98,40.29 29.49,43.07 C 29.6,43.64 29.99,44 30.59,43.92 C 40.05,42.8 46.21,32.54 43.31,23.46 C 41.84,18.82 39.01,15.48 34.83,13.45 C 29.76,10.98 23.24,11.71 18.63,15.05 C 7.31,23.23 11.22,41.54 24.91,43.93 C 25.16,43.98 25.47,43.98 25.81,43.94 C 25.89,43.94 25.95,43.89 25.99,43.83 C 27.03,42.14 27.65,38.01 26.01,36.59 C 25.78,36.39 25.24,36.13 24.41,35.83 C 21.56,34.78 18.25,32.4 17.18,29.39 C 16.88,28.55 15.88,26.04 16.23,25.27 A 0.17,0.17 0 0,1 16.43,25.17 C 16.71,25.25 17.01,25.41 17.33,25.67 C 18.43,26.52 19.72,27.27 21.23,27.92 Z" fill="rgb(84, 11, 140)"/>
<path d="M 29.669999999999998,19.165 C 30.15,17.88 31.38,18.64 31.6,19.55 A 0.24,0.24 0 0,1 31.52,19.79 C 31.19,20.04 30.82,20.18 30.4,20.19 A 0.21,0.21 0 0,0 30.23,20.27 C 29.56,21.14 29.03,21.97 28.63,22.76 C 27.75,24.44 27.94,26.8 28.05,28.66 A 0.15,0.15 0 0,1 27.97,28.8 A 0.14,0.14 0 0,1 27.82,28.78 A 0.52,0.52 0 0,1 27.66,28.45 C 27.46,26.95 27.37,25.55 27.43,24.27 C 27.5,22.42 29.05,20.87 29.68,19.17 Z M 25.23,21.88 L 24.38,21.62 A 0.25,0.25 0 0,1 24.21,21.46 C 23.91,20.67 24.96,20.17 25.58,20.34 C 25.65,20.35 25.69,20.4 25.71,20.48 C 26.01,22.27 26.47,24.02 27.06,25.73 A 0.15,0.15 0 0,1 26.99,25.9 A 0.13,0.13 0 0,1 26.82,25.86 C 25.94,24.69 25.85,23.39 25.39,22.04 A 0.24,0.24 0 0,0 25.23,21.88 Z" fill="rgb(203, 38, 49)"/>
<path d="M 31.259999999999998,21.505 C 31.46,21.69 31.49,21.88 31.37,22.09 C 30.77,23.1 30.04,24.09 29.62,25.1 A 15.72,15.72 0 0,0 28.54,28.97 C 28.51,29.12 28.45,29.22 28.35,29.27 A 0.11,0.11 0 0,1 28.24,29.26 A 0.12,0.12 0 0,1 28.2,29.14 L 29.45,24.17 C 29.49,23.99 29.66,23.64 29.96,23.12 A 0.34,0.34 0 0,0 30,22.89 C 29.95,22.53 29.88,22.17 29.82,21.82 C 29.67,20.99 30.89,21.2 31.27,21.52 Z" fill="rgb(203, 38, 49)"/>
<path d="M 21.72,24.305 C 24.26,23.44 26.48,25.43 26.97,27.85 C 27.3,29.5 27.54,31.17 27.68,32.85 C 27.7,33.12 27.84,33.61 27.75,34 C 27.75,34.03 27.73,34.06 27.71,34.08 A 0.14,0.14 0 0,1 27.49,34.05 A 25.32,25.32 0 0,1 25.69,30.64 C 24.91,28.81 20.73,26.64 21.57,24.48 A 0.27,0.27 0 0,1 21.73,24.32 Z M 34.64,25.34 C 35.04,26.51 32.85,27.47 32.39,28.19 C 31.05,30.26 29.84,32.39 28.55,34.43 A 0.15,0.15 0 0,1 28.3,34.43 A 0.16,0.16 0 0,1 28.27,34.35 C 28.27,31.63 28.92,25.75 31.76,24.65 C 32.46,24.39 34.29,24.35 34.64,25.34 Z" fill="rgb(137, 41, 186)"/>
</svg>
