<?xml version="1.0" encoding="UTF-8"?>
<!-- generated by Finnhub -->
<svg viewBox="0 0 55.5 55.5" xmlns="http://www.w3.org/2000/svg">
<path d="M 0,0 H 55.5 V 55.5 H 0 Z" fill="rgb(239, 242, 248)"/>
<path d="M 14.3,21.985 H 4 V 32 H 5.71 L 7.19,28.7 L 4.62,26 H 8.17 L 9.64,22.46 L 11.23,26 H 12.37 L 14.31,22 Z" fill="rgb(173, 28, 46)"/>
<path d="M 47.99,31.985 V 29.52 L 48.05,29.5 L 49.63,32 H 52 L 49.8,28.77 L 51.92,26 H 49.68 L 48.03,28.38 H 48 V 26 H 46 V 32 H 48 Z M 12.64,26 H 17.37 V 27.68 H 16.01 V 32 H 14.01 V 27.68 H 12.64 V 26 Z M 12.17,26.87 A 3.41,3.41 0 0,0 10.07,26 C 8.84,25.97 7.57,26.53 7.57,28 C 7.57,29.2 8.9,29.6 9.47,29.75 C 9.67,29.8 10,29.98 10,30.22 C 10,30.47 9.68,30.48 9.48,30.45 C 9.12,30.4 8.67,30.17 8.42,29.88 L 7.27,31.15 C 7.57,31.43 8.47,32 9.72,32 C 11.28,32 12.03,30.8 12,29.98 C 11.97,29.16 11.4,28.56 10.32,28.28 H 10.3 C 10.04,28.21 9.5,28.08 9.52,27.8 C 9.53,27.52 10.02,27.55 10.25,27.6 C 10.38,27.65 10.71,27.8 10.95,28.05 L 12.17,26.87 Z M 42,32 V 26 H 44 V 30.32 H 45.64 V 32 H 42 Z M 24,29 V 26 H 27.09 A 1.91,1.91 0 0,1 27.93,29.63 L 29.37,32 H 27.02 L 26,30 V 32 H 24 V 29 Z M 26,28.56 V 27.56 H 26.5 A 0.5,0.5 0 1,1 26.5,28.56 H 26 Z M 36,26 H 38 V 29.54 A 0.75,0.75 0 1,0 39.5,29.54 V 26 H 41.5 V 29.25 A 2.75,2.75 0 1,1 36,29.25 V 26 Z M 30.56,28.75 V 26 H 33.8 A 1.51,1.51 0 0,1 34.5,28.85 A 1.63,1.63 0 0,1 33.94,32 H 30.56 V 28.75 Z M 32.56,28.33 V 27.54 H 33.11 A 0.4,0.4 0 0,1 33.11,28.33 H 32.57 Z M 32.56,30.46 V 29.59 H 33.13 A 0.43,0.43 0 0,1 33.13,30.46 H 32.57 Z M 19.23,26 L 17,32 H 19.03 L 19.41,31 H 20.97 L 21.39,32 H 23.46 L 21.25,26 H 19.22 Z M 19.75,29.58 L 20.23,28.14 L 20.68,29.58 H 19.75 Z" fill="rgb(7, 33, 65)" fill-rule="evenodd"/>
</svg>
