<?xml version="1.0" encoding="UTF-8"?>
<!-- generated by Finnhub -->
<svg viewBox="0 0 55.5 55.5" xmlns="http://www.w3.org/2000/svg">
<path d="M 0,0 H 55.5 V 55.5 H 0 Z" fill="rgb(231, 16, 15)"/>
<path d="M 27.99,22.951999999999998 V 39.647 C 28,40.139 27.692,40.071 27.289,39.723 C 26.761,39.269 24.199,37.021 21.94,36.34 C 19.664,35.658 19.426,35.703 17.088,35.696 C 14.835,35.69 12.838,35.546 12.574,35.433 C 12.312,35.32 11.935,35.283 12.009,34.374 L 14.343,17.903 C 14.453,17.18 14.268,16.803 15.471,17.103 C 16.672,17.405 19.871,17.364 20.472,17.405 C 21.452,17.485 23.445,17.975 24.838,19.185 C 26.229,20.393 28,21.907 28,22.968 Z M 29,22.424 V 38.322 C 29,39.08 29.377,39.234 29.828,38.625 C 30.385,37.871 30.831,37.257 31.685,36.848 C 34.695,35.4 38.831,35.095 39.355,35.057 C 39.885,35.02 42.592,34.792 42.968,34.676 C 43.88,34.4 44.124,34.661 43.945,32.811 L 41.84,16.639 C 41.765,15.913 41.612,15.95 41.159,16.062 C 40.712,16.179 40.835,16.182 38.714,16.56 C 37.704,16.742 36.316,16.595 34.694,17.097 C 33.119,17.576 31.89,18.433 30.514,19.681 C 29.998,20.148 29.074,21.052 29,22.424 Z" fill="rgb(254, 254, 253)"/>
</svg>
