<?xml version="1.0" encoding="UTF-8"?>
<!-- generated by Finnhub -->
<svg viewBox="0 0 55.5 55.5" xmlns="http://www.w3.org/2000/svg">
<path d="M 0,0 H 55.5 V 55.5 H 0 Z" fill="rgb(1, 136, 207)"/>
<path d="M 30.99,26.905 H 31.04 L 33.53,24 H 35.89 L 33.39,26.92 L 36,30 H 33.53 L 31.04,27 H 31 V 30 H 29 V 21 H 31 V 26.92 Z M 8.56,25.08 C 9.32,25.12 10.05,25.34 10.68,25.72 V 24.43 A 4.58,4.58 0 0,0 8.63,24 C 7.06,24 6,24.71 6,25.78 C 6,26.91 7.14,27.31 8.04,27.63 C 8.65,27.85 9.15,28.03 9.15,28.36 C 9.15,28.62 8.78,28.79 8.19,28.79 A 5.52,5.52 0 0,1 6.14,28.29 V 29.57 C 6.85,29.86 7.63,30 8.41,30 C 10.06,30 11,29.32 11,28.12 C 11,26.9 9.73,26.44 8.8,26.11 C 8.27,25.91 7.85,25.76 7.85,25.53 C 7.85,25.13 8.3,25.08 8.56,25.08 Z M 24.8,30 C 25.56,29.99 26.3,29.86 27,29.61 L 27.01,28.31 C 26.11,28.61 25.66,28.71 25.17,28.71 C 23.99,28.71 23.21,28.03 23.21,27.01 S 24.01,25.34 25.24,25.34 C 25.82,25.35 26.49,25.49 27.01,25.73 V 24.38 A 8.2,8.2 0 0,0 24.71,24 C 22.55,24 21.01,25.25 21.01,27.02 C 21.01,28.82 22.5,30 24.8,30 Z M 40.42,25 C 39.65,25 39.12,25.56 39.01,26 H 41.77 C 41.62,25.33 41.17,25 40.42,25 Z M 41.08,28.92 C 41.87,28.92 42.48,28.71 43.39,28.09 V 29.23 C 42.59,29.76 41.61,30.03 40.61,30 C 38.43,30 37.01,28.82 37.01,27.02 C 37.01,25.25 38.37,24 40.29,24 C 42.09,24 43.59,24.9 43.5,27 H 39.03 A 2,2 0 0,0 41.08,28.92 Z M 51,25 H 48 V 27.64 C 48,28.23 48.75,28.61 49.46,28.61 A 3.7,3.7 0 0,0 51,28.26 V 29.62 C 50.33,29.87 49.61,30 48.88,30 C 47.36,30 46,29.43 46,27.75 V 25 H 45 V 24.53 L 47.74,22 H 48 V 24 H 51 V 25 Z M 13,27 C 13,28.77 14.34,30 16.26,30 C 17,30 17.73,29.78 18.35,29.37 A 2.76,2.76 0 0,0 19.5,27 A 2.79,2.79 0 0,0 18.4,24.66 A 3.63,3.63 0 0,0 16.26,23.99 C 14.69,23.99 13,24.93 13,26.99 Z M 13.33,27 C 13.33,25.16 14.85,24.33 16.26,24.33 C 17.34,24.33 19.17,24.89 19.17,27.01 C 19.17,29.11 17.34,29.68 16.27,29.68 C 14.5,29.68 13.33,28.6 13.33,27 Z M 14.84,27 C 14.84,28.73 15.73,28.98 16.26,28.98 C 16.78,28.98 17.66,28.72 17.66,26.96 C 17.66,25.71 17.16,25.02 16.26,25.02 C 15.83,25.02 14.84,25.22 14.84,27 Z M 15.17,27 C 15.17,25.93 15.56,25.35 16.27,25.35 C 16.97,25.35 17.33,25.89 17.33,26.96 C 17.33,27.73 17.15,28.66 16.26,28.66 C 15.53,28.66 15.16,28.1 15.16,27 Z M 14.49,38 L 13.2,37.32 L 13.18,37.25 C 12.7,35.43 13.2,33.39 14.39,32.28 C 15.26,31.48 16.69,31 18.2,31 C 18.72,31 19.23,31.06 19.74,31.17 L 20,31.23 L 19.2,32.33 H 19.1 A 4.76,4.76 0 0,0 15.92,33.63 A 4.42,4.42 0 0,0 14.45,37.66 L 14.49,38 Z M 13.53,37.09 L 14.05,37.36 C 13.97,36.63 14.08,35.89 14.35,35.2 C 14.64,34.52 15.08,33.9 15.65,33.39 A 5.04,5.04 0 0,1 19,31.99 L 19.38,31.46 C 18.99,31.39 18.6,31.36 18.2,31.36 C 16.78,31.36 15.46,31.79 14.66,32.53 C 13.57,33.53 13.11,35.41 13.53,37.09 Z M 40,31 H 40.75 V 32.12 C 40.9,32.04 41.07,32 41.25,32 C 41.94,32 42.5,32.67 42.5,33.5 S 41.94,35 41.25,35 C 41.07,35 40.9,34.96 40.75,34.88 V 35 H 40 V 31 Z M 40.75,33.03 V 33.97 C 40.85,34.3 41.03,34.53 41.25,34.53 C 41.55,34.53 41.81,34.07 41.81,33.5 C 41.81,32.93 41.56,32.47 41.25,32.47 C 41.03,32.47 40.85,32.7 40.75,33.03 Z M 32.63,32 H 32 V 35 H 32.73 V 33.11 C 32.73,32.85 32.93,32.63 33.18,32.63 C 33.42,32.63 33.62,32.85 33.62,33.11 V 35 H 34.38 V 33.11 C 34.38,32.85 34.58,32.63 34.82,32.63 S 35.26,32.85 35.26,33.11 V 35 H 36 V 33.1 C 36,32.49 35.55,32 35,32 A 0.98,0.98 0 0,0 34.17,32.46 A 0.98,0.98 0 0,0 33.35,32 A 0.97,0.97 0 0,0 32.63,32.34 V 32 Z M 37.75,35 C 38.44,35 39,34.33 39,33.5 S 38.44,32 37.75,32 S 36.5,32.67 36.5,33.5 S 37.06,35 37.75,35 Z M 37.75,34.53 C 38.05,34.53 38.31,34.07 38.31,33.5 C 38.31,32.93 38.06,32.47 37.75,32.47 C 37.45,32.47 37.19,32.93 37.19,33.5 C 37.19,34.07 37.44,34.53 37.75,34.53 Z M 43.65,31.7 A 0.35,0.35 0 1,0 43.65,31 A 0.35,0.35 0 0,0 43.65,31.7 Z M 44,31.99 H 43.3 V 34.99 H 44 V 31.99 Z M 46,31 H 45.3 V 35 H 46 V 31 Z M 49.5,34.58 V 34.02 C 49.33,34.17 48.91,34.47 48.56,34.47 C 48.13,34.47 47.78,34.14 47.78,33.65 H 49.49 C 49.54,33.1 49.36,32 48.27,32 C 47.18,32 46.97,33.1 47,33.65 C 47.04,34.1 47.37,35 48.36,35 C 48.62,34.98 49.22,34.87 49.49,34.58 Z M 47.82,33 V 33.17 H 48.84 V 33 A 0.5,0.5 0 0,0 48.33,32.52 A 0.5,0.5 0 0,0 47.83,33 Z" fill="rgb(254, 254, 253)" fill-rule="evenodd"/>
</svg>
