<?xml version="1.0" encoding="UTF-8"?>
<!-- generated by Finnhub -->
<svg viewBox="0 0 55.5 55.5" xmlns="http://www.w3.org/2000/svg">
<path d="M 0,0 H 55.5 V 55.5 H 0 Z" fill="rgb(239, 242, 248)"/>
<path d="M 14.11,21.055 C 13.64,31.77 23.62,37.09 28.67,38.41 C 29.43,37.23 30.06,34.88 30.27,33.85 C 20.8,29.69 17.18,24.57 16.93,20.15 C 16.68,15.75 18.84,13.16 22.35,12.91 C 25.16,12.71 27.84,15.16 28.82,16.41 H 33.44 C 28.07,8.4 14.68,8.75 14.12,21.07 Z" fill="url(#c)"/>
<path d="M 40.68,19.455 C 31.71,13.76 22.21,19.9 18.59,23.69 C 19.22,24.94 20.94,26.65 21.72,27.35 C 29.98,21.07 36.17,20.43 40.09,22.38 C 44.01,24.34 45.17,27.51 43.65,30.72 C 42.44,33.29 39.01,34.43 37.45,34.68 L 35.16,38.74 C 44.71,37.98 51.02,26.04 40.69,19.47 Z" fill="url(#b)"/>
<path d="M 28.959999999999997,43.425 C 38.34,38.41 37.79,27.03 36.34,21.96 C 34.95,21.9 32.63,22.55 31.64,22.89 C 32.92,33.25 30.39,38.99 26.76,41.46 C 23.13,43.92 19.83,43.36 17.83,40.43 C 16.23,38.09 16.96,34.51 17.52,33.02 L 15.17,29 C 11.07,37.75 18.19,49.22 28.97,43.44 Z" fill="url(#a)"/>
<defs>
<linearGradient id="c" x1="23.77" x2="23.77" y1="11" y2="38.41" gradientUnits="userSpaceOnUse">
<stop stop-color="rgb(161, 37, 19)" offset="0"/>
<stop stop-color="rgb(174, 43, 27)" offset=".45"/>
<stop stop-color="rgb(216, 61, 47)" offset=".72"/>
</linearGradient>
<linearGradient id="b" x1="44.59" x2="20.89" y1="32.92" y2="19.59" gradientUnits="userSpaceOnUse">
<stop stop-color="rgb(161, 37, 19)" offset="0"/>
<stop stop-color="rgb(174, 43, 27)" offset=".45"/>
<stop stop-color="rgb(216, 61, 47)" offset=".72"/>
</linearGradient>
<linearGradient id="a" x1="15.48" x2="38.96" y1="40.16" y2="26.44" gradientUnits="userSpaceOnUse">
<stop stop-color="rgb(161, 37, 19)" offset="0"/>
<stop stop-color="rgb(174, 43, 27)" offset=".45"/>
<stop stop-color="rgb(216, 61, 47)" offset=".72"/>
</linearGradient>
</defs>
</svg>
