<?xml version="1.0" encoding="UTF-8"?>
<!-- generated by Finnhub -->
<svg viewBox="0 0 55.5 55.5" xmlns="http://www.w3.org/2000/svg">
<path d="M 0,0 H 55.5 V 55.5 H 0 Z" fill="rgb(239, 242, 248)"/>
<path d="M 49.89,27.974999999999998 C 49.9,26.65 48.87,26 47.6,26 C 46.44,26 45.1,26.74 45.1,27.99 H 49.9 Z M 45.07,29 C 45.17,30.24 46.52,31 47.68,31 C 48.57,31 49.46,30.75 49.97,30 L 50.74,30.6 A 3.8,3.8 0 0,1 47.68,32 C 45.7,32 44,30.54 44,28.5 C 44,26.51 45.63,25 47.6,25 C 49.5,25 51,26.4 51,28.33 V 29 H 45.07 Z M 42,32 H 41 V 25 H 42 V 32 Z M 39,26 H 37 V 29.88 C 37,30.34 36.97,30.81 37.49,30.95 A 1.99,1.99 0 0,0 38.43,30.93 C 38.6,30.88 38.77,30.81 38.92,30.73 L 38.96,31.75 A 3.22,3.22 0 0,1 37.04,31.93 C 36.22,31.73 36,30.93 36,30.16 V 26 H 34.41 V 25 H 36 V 23 H 37 V 25 H 39 V 26 Z M 33,26 H 31 V 29.88 C 31,30.34 31.19,30.81 31.7,30.95 A 1.99,1.99 0 0,0 32.64,30.93 C 32.82,30.88 32.98,30.81 33.14,30.73 L 33.18,31.75 A 3.22,3.22 0 0,1 31.26,31.93 C 30.44,31.73 30,30.93 30,30.16 V 26 H 28.63 V 25 H 30 V 23 H 31 V 25 H 33 V 26 Z M 26.99,28.5 C 26.99,28.13 26.93,27.78 26.81,27.46 A 2.35,2.35 0 0,0 24.49,25.86 A 2.27,2.27 0 0,0 22.68,26.63 C 22.48,26.86 22.31,27.13 22.19,27.46 A 3.02,3.02 0 0,0 22.19,29.54 C 22.31,29.86 22.47,30.14 22.69,30.38 C 22.89,30.62 23.15,30.8 23.46,30.94 C 23.76,31.08 24.11,31.14 24.49,31.14 A 2.35,2.35 0 0,0 26.81,29.54 C 26.93,29.22 26.99,28.87 26.99,28.5 Z M 28,28.5 C 28,29 27.91,29.47 27.74,29.9 A 3.36,3.36 0 0,1 24.49,32 C 23.99,32 23.52,31.91 23.09,31.74 A 3.3,3.3 0 0,1 21.26,29.89 A 3.9,3.9 0 0,1 21.26,27.1 A 3.36,3.36 0 0,1 24.5,25 C 25.02,25 25.5,25.09 25.92,25.26 A 3.3,3.3 0 0,1 27.75,27.11 C 27.92,27.53 28.01,28 28.01,28.5 Z M 17.88,26.74 A 2.09,2.09 0 0,0 16.13,25.86 C 15.72,25.84 15.35,25.91 15.03,26.04 A 2.41,2.41 0 0,0 13.67,27.44 C 13.55,27.77 13.49,28.12 13.49,28.5 S 13.55,29.23 13.67,29.56 A 2.37,2.37 0 0,0 15.03,30.96 C 15.35,31.09 15.72,31.16 16.13,31.15 A 2.09,2.09 0 0,0 17.88,30.26 L 18.68,30.85 C 18.34,31.24 17.94,31.52 17.5,31.71 A 4.1,4.1 0 0,1 14.58,31.75 A 3.43,3.43 0 0,1 13.41,31.02 A 3.12,3.12 0 0,1 12.67,29.9 A 3.8,3.8 0 0,1 12.42,28.5 C 12.42,28 12.5,27.53 12.67,27.1 C 12.84,26.67 13.09,26.3 13.41,25.98 C 13.74,25.67 14.13,25.43 14.59,25.25 A 4.1,4.1 0 0,1 17.5,25.29 C 17.94,25.48 18.34,25.76 18.69,26.15 L 17.88,26.74 Z M 9.3,26.75 A 1.65,1.65 0 0,0 7.79,25.85 A 2.24,2.24 0 0,0 6.8,26.09 A 1,1 0 0,0 6.46,26.39 A 0.78,0.78 0 0,0 6.33,26.85 C 6.33,27.16 6.45,27.39 6.68,27.53 C 6.91,27.67 7.25,27.8 7.71,27.9 L 8.71,28.13 C 9.21,28.23 9.61,28.45 9.93,28.76 C 10.26,29.08 10.42,29.48 10.42,29.96 A 1.8,1.8 0 0,1 9.57,31.52 A 2.7,2.7 0 0,1 8.7,31.89 C 8.37,31.96 8.03,32 7.7,32 C 7.16,32 6.65,31.9 6.19,31.7 A 2.69,2.69 0 0,1 5,30.7 L 5.85,30.15 A 2.1,2.1 0 0,0 7.69,31.15 A 2.46,2.46 0 0,0 8.82,30.88 C 8.98,30.79 9.1,30.68 9.2,30.53 C 9.3,30.39 9.34,30.23 9.34,30.03 C 9.34,29.7 9.21,29.47 8.95,29.32 A 3.52,3.52 0 0,0 8.01,28.97 L 7.05,28.76 A 6.7,6.7 0 0,1 6.56,28.61 A 2.1,2.1 0 0,1 5.46,27.8 A 1.41,1.41 0 0,1 5.26,27 C 5.26,26.66 5.33,26.37 5.47,26.11 C 5.62,25.85 5.81,25.65 6.06,25.48 C 6.3,25.32 6.58,25.2 6.89,25.12 A 3.78,3.78 0 0,1 9.21,25.27 C 9.62,25.45 9.95,25.76 10.18,26.2 L 9.3,26.75 Z" fill="rgb(99, 132, 178)"/>
<path d="M 41.49,23.485 L 42.75,21 H 40.25 L 41.5,23.5 Z" fill="rgb(211, 174, 53)"/>
</svg>
