<?xml version="1.0" encoding="UTF-8"?>
<!-- generated by Finnhub -->
<svg viewBox="0 0 55.5 55.5" xmlns="http://www.w3.org/2000/svg">
<path d="M 0,0 H 55.5 V 55.5 H 0 Z" fill="rgb(239, 242, 248)"/>
<path d="M 17.229999999999997,19.585 A 15.23,15.23 0 0,1 24.25,17.03 C 25.03,16.93 27.54,17.07 28.69,17.27 C 31.13,17.7 32.88,18.34 36.31,20.05 A 28.5,28.5 0 0,0 45.38,23.03 C 47.65,23.42 48.61,23.86 49.64,24.98 A 5.58,5.58 0 0,1 50.92,27.57 C 51.18,28.82 50.8,28.96 50.09,27.87 C 48.59,25.57 47.77,25.09 44.33,24.5 C 40.76,23.89 38.53,23.2 35.58,21.8 C 30.73,19.5 28.63,18.85 25.88,18.85 C 23.44,18.85 21.32,19.44 18.31,20.95 C 16.47,21.87 16.4,21.9 15.11,22.02 C 12.51,22.27 11.17,22.82 9.79,24.22 A 6.8,6.8 0 0,0 7.89,27.71 C 7.76,28.23 7.59,28.67 7.5,28.71 C 7.42,28.73 7.26,28.53 7.15,28.27 C 6.88,27.6 6.99,26.24 7.4,25.2 C 8.52,22.42 11.15,20.69 14.66,20.43 C 15.96,20.33 16.39,20.19 17.24,19.61 Z M 10.32,33 H 9 C 9,34.28 9.47,35 11.41,35 C 13.35,35 14.61,33.86 14.61,32.52 C 14.61,31.37 13.59,31.14 12.71,30.93 L 12.31,30.83 C 11.37,30.58 11.1,30.3 11.1,30.1 V 30.08 C 11.1,29.86 11.1,29.1 12.45,29.1 C 13.55,29.1 13.63,29.63 13.52,30 H 14.84 C 14.94,29.55 14.98,28 12.93,28 C 10.87,28 9.73,29.11 9.73,30.4 C 9.73,31.68 10.99,31.96 12.12,32.2 C 13.17,32.42 13.15,32.72 13.14,32.9 V 32.94 C 13.14,33.11 13.03,33.86 11.57,33.86 C 10.4,33.86 10.25,33.36 10.32,33 Z M 17.65,28 H 16.26 L 15.36,32.66 C 15.2,33.44 15.4,35 17.48,35 A 3.1,3.1 0 0,0 20.61,32.82 L 21.61,28 H 20.21 C 19.93,29.36 19.33,32.18 19.22,32.56 C 19.09,33.04 18.89,33.81 17.65,33.81 C 16.65,33.81 16.59,33.04 16.69,32.66 L 17.65,28 Z M 21.19,35 L 22.67,28 H 24.1 L 25.84,32.88 L 26.79,28 H 28.09 L 26.57,35 H 25.27 L 23.49,30.07 L 22.51,35 H 21.2 Z M 33.74,32.59 H 32.41 A 1.9,1.9 0 0,1 30.61,33.8 C 29.21,33.8 29.36,32.15 29.53,31.44 C 29.7,30.74 30.28,29.2 31.67,29.2 C 32.78,29.2 32.92,29.95 32.85,30.33 H 34.27 C 34.37,29.55 34.05,28 32,28 C 28.86,28 28.08,31.22 28.01,32 C 27.94,32.77 27.87,35 30.37,35 C 32.37,35 33.45,33.4 33.74,32.59 Z M 35.08,35 H 33.6 L 37.36,28 H 38.93 L 39.93,35 H 38.45 L 38.22,33 H 36.1 L 35.08,35 Z M 37.84,29.62 L 38.11,32 H 36.61 L 37.84,29.62 Z M 40.5,35 L 41.95,28 H 45.31 C 45.88,28.01 47,28.36 47,29.65 C 47,30.95 46.05,31.51 45.57,31.63 C 45.79,31.71 46.23,32.01 46.23,32.6 C 46.23,33.18 45.99,34.05 45.87,34.41 C 45.85,34.53 45.87,34.77 46.11,34.77 V 35 H 44.51 L 44.81,33.06 C 44.86,32.76 44.79,32 44.15,32 H 42.4 L 41.85,35 H 40.5 Z M 43.06,29 H 44.81 C 45.08,29.02 45.6,29.2 45.6,29.79 C 45.6,30.52 45.22,31 44.3,31 H 42.66 L 43.06,29 Z" fill="rgb(18, 37, 76)" fill-rule="evenodd"/>
</svg>
