<?xml version="1.0" encoding="UTF-8"?>
<!-- generated by Finnhub -->
<svg viewBox="0 0 55.5 55.5" xmlns="http://www.w3.org/2000/svg">
<path d="M 0,0 H 55.5 V 55.5 H 0 Z" fill="rgb(239, 242, 248)"/>
<path d="M 48.99,21.985 V 33 H 47 V 22 H 49 Z M 37,33 V 22 H 39 V 26.5 H 44 V 22 H 46 V 33 H 44 V 28.5 H 39 V 33 H 37 Z M 20.7,33 H 17 V 22 H 20.77 C 24.01,22 26,24.34 26,27.49 C 26,30.69 23.96,33 20.7,33 Z M 19,31 H 20.6 C 22.91,31 24,29.65 24,27.45 C 24,25.3 22.94,24 20.66,24 H 19 V 31 Z M 30.7,33 H 27 V 22 H 30.77 C 34.01,22 36,24.34 36,27.49 C 36,30.69 33.96,33 30.7,33 Z M 29,31 H 30.6 C 32.91,31 34,29.65 34,27.45 C 34,25.3 32.94,24 30.66,24 H 29 V 31 Z M 16,22 V 33 H 14 V 22 H 16 Z M 11.04,25.03 C 10.94,24.03 10,23.63 9.08,23.63 C 8.22,23.63 7.01,24.03 7,25.03 C 7,25.71 7.74,26.1 8.32,26.31 C 8.85,26.51 9.4,26.61 9.94,26.76 C 11.49,27.13 13,28.06 13,29.84 C 13,32.02 10.99,33 9.05,33 C 6.96,33 5.09,31.93 5,29.68 H 6.86 C 6.94,30.83 7.98,31.34 9.03,31.34 C 9.96,31.34 10.99,30.91 11,29.82 C 10.99,28.86 10,28.54 9.24,28.34 L 8.05,28.02 C 6.62,27.65 5,26.8 5,25.15 C 5,23.1 7.24,22 9.1,22 C 10.94,22 12.82,23.02 12.86,25.03 H 11.04 Z"/>
</svg>
