<?xml version="1.0" encoding="UTF-8"?>
<!-- generated by Finnhub -->
<svg viewBox="0 0 55.5 55.5" xmlns="http://www.w3.org/2000/svg">
<path d="M 0,0 H 55.5 V 55.5 H 0 Z" fill="rgb(239, 242, 248)"/>
<path d="M 10.950000000000001,25.285 A 3.7,3.7 0 0,0 8.8,24.6 C 7.9,24.6 7.4,25.03 7.4,25.67 C 7.4,26.18 7.76,26.42 8.54,26.64 L 9.66,26.96 C 11.19,27.39 12,28.37 12,29.79 C 12,31.72 10.46,33 8.17,33 A 6.5,6.5 0 0,1 5,32.14 L 5.69,30.66 C 6.55,31.11 7.32,31.4 8.25,31.4 C 9.32,31.4 10,30.97 10,30.11 C 10,29.5 9.5,29.1 8.67,28.88 L 7.63,28.58 C 6.35,28.21 5.4,27.34 5.4,25.94 C 5.4,24.2 6.77,23 8.75,23 C 9.85,23 10.93,23.32 11.85,23.96 L 10.95,25.3 Z M 18.9,32.08 C 18.17,32.68 17.24,33 16.28,33 C 14.27,33 13,31.65 13,29.54 C 13,27.67 14.04,25.99 16.07,26 C 16.81,26 17.53,26.23 18.07,26.72 C 18.71,27.35 19,28.24 19,29.64 V 30 H 15 C 15,30.92 15.47,31.5 16.5,31.5 C 17.15,31.5 17.68,31.3 18.17,30.9 L 18.89,32.08 Z M 17,29 C 17,28.39 16.84,27.5 16.07,27.5 C 15.29,27.5 15,28.27 15,29 H 17 Z M 23.44,26 C 24.97,26 26,26.7 26,28.3 V 30.6 C 26,31.53 26.02,31.63 26.6,32 L 25.22,33 C 24.77,32.85 24.52,32.69 24.29,32.33 C 23.92,32.77 23.23,33 22.47,33 C 20.77,33 20,32.16 20,30.87 C 20,29.33 21.24,28.57 23.63,28.57 C 23.78,28.57 23.86,28.57 24,28.59 V 28.39 C 24,27.58 23.63,27.5 23.17,27.5 C 22.54,27.5 21.79,27.73 20.98,28.2 L 20.36,26.97 C 21.56,26.27 22.26,25.99 23.44,26 Z M 22,30.82 C 22,31.34 22.48,31.6 22.97,31.6 C 23.37,31.58 23.74,31.42 24,31.16 V 29.74 C 23.46,29.81 22,29.67 22,30.82 Z" fill="rgb(2, 42, 111)"/>
<path d="M 41.99,25.985 L 39.94,23.21 L 36.5,24.27 L 38.64,21.49 L 36.5,18.73 L 39.94,19.79 L 42,17 V 20.43 L 45.5,21.49 L 42,22.57 V 26 Z" fill="rgb(236, 182, 28)"/>
<path d="M 39.99,25.985 V 33 H 42 V 28.72 L 40,26 Z M 38.44,26 C 37.75,26 37.19,26.47 36.8,27 A 2.2,2.2 0 0,0 36.51,26 L 34.76,26.54 C 34.94,27.18 35.02,27.85 35,28.52 V 33 H 37 V 28.59 A 1.3,1.3 0 0,1 38.07,28 C 38.25,28 38.43,28.05 38.6,28.13 L 39.1,26.13 A 1.5,1.5 0 0,0 38.44,26 Z M 33,22 L 31,22.88 V 26.41 C 30.8,26.14 30.35,26 29.9,26 C 28.12,26 27,27.28 27,29.5 C 27,31.7 28.12,33 29.9,33 C 30.5,33 31.08,32.92 31.52,32.52 C 31.54,32.66 31.63,32.87 31.69,33 H 33.5 C 33.37,32.73 33,32.09 33,30.33 V 22 Z M 31,31.06 C 30.84,31.28 30.55,31.5 30.2,31.5 C 29.4,31.5 29,31 29,29.5 C 29,27.9 29.5,27.5 30.2,27.5 C 30.57,27.5 30.8,27.67 31,27.95 V 31.06 Z M 44,24.72 L 46,24 V 33 H 44 V 24.72 Z M 48,23.84 L 50,23 V 33 H 48 V 23.84 Z" fill="rgb(2, 42, 111)"/>
</svg>
