<?xml version="1.0" encoding="UTF-8"?>
<!-- generated by Finnhub -->
<svg viewBox="0 0 55.5 55.5" xmlns="http://www.w3.org/2000/svg">
<rect width="56" height="56" fill="rgb(239, 242, 248)"/>
<path d="M 34.99,21.985 H 37.9826 L 39.0044,23 H 35 V 25 H 39.0923 L 39.9886,25.9741 C 39.9906,25.9762 39.992,25.9788 39.9925,25.9817 C 39.9931,25.9846 39.9928,25.9876 39.9917,25.9904 C 39.9906,25.9931 39.9887,25.9955 39.9863,25.9972 C 39.984,25.9989 39.9811,25.9999 39.9783,26 H 34.9655 C 34.947,26 34.9309,25.9931 34.9171,25.9793 L 34.0223,25.068 C 34.0074,25.0531 34,25.0347 34,25.0128 C 34,25.0128 34.0011,21.2488 34,19.3691 C 34,19.1978 34.0495,19.1052 34.1745,19.0144 C 34.1879,19.0048 34.2028,19 34.2191,19 H 39.1025 C 39.1221,19 39.1387,19.0071 39.1525,19.0213 L 40,20 H 35 V 22 Z" fill="rgb(72, 87, 37)"/>
<path d="M 46.99,23.505 H 41.9961 V 26.0001 L 41.0319,24.9961 C 41.0113,24.9719 41,24.9411 41,24.9091 V 20.2776 C 41,19.7266 41.1066,19.2874 41.6273,19.0836 C 41.7698,19.0279 42.0109,19.0001 42.3503,19.0001 C 43.814,19.0009 45.2774,19.0011 46.7407,19.0007 C 47.6713,19.0001 47.9992,19.3985 47.9992,20.3133 C 48,22.2027 48.0002,24.093 47.9998,25.984 C 47.9997,25.9873 47.9986,25.9904 47.9967,25.9931 S 47.9922,25.9978 47.9892,25.999 C 47.9861,26.0002 47.9828,26.0004 47.9796,25.9997 S 47.9735,25.9973 47.9713,25.9949 L 47,24.9156 V 23.52 Z M 47,20.0035 C 47,19.9994 47.0029,20.0064 47,20.0035 H 41.9961 V 22.57 H 47 C 47,22.5742 47.0029,22.5671 47,22.57 V 20.0035 Z" fill="rgb(72, 87, 37)"/>
<path d="M 45.6,29.634999999999998 C 45.5959,29.6803 45.5808,29.7173 45.5808,29.7521 V 31.8007 C 45.5808,32.0585 45.1425,32.0463 45.0144,31.8714 C 45.0047,31.8578 44.9998,31.8427 44.9998,31.8261 V 28.1552 C 44.9998,28.1328 45.0077,28.1136 45.0236,28.0978 C 45.1436,27.9819 45.4435,27.9455 45.5597,28.1182 V 28.9099 C 45.5591,28.961 45.638,28.9997 45.6878,28.9997 H 47.1676 C 47.7378,28.9986 47.9977,29.2465 47.9988,29.831 C 47.9999,30.5132 48.0001,31.1191 47.9994,31.8013 C 47.9988,32.0784 47.4189,32.0497 47.4184,31.8118 C 47.4177,31.0873 47.418,30.4376 47.4184,29.7101 C 47.4184,29.6848 47.4085,29.6605 47.391,29.6426 C 47.3734,29.6247 47.3497,29.6146 47.3249,29.6146 H 45.664 C 45.6527,29.6146 45.6416,29.618 45.632,29.6242 C 45.6225,29.6305 45.6148,29.6394 45.61,29.65 Z" fill="rgb(127, 188, 79)"/>
<path d="M 35.667,28.622 C 35.2493,28.6373 34.8222,28.637 34.3957,28.6358 C 34.07,28.6352 33.989,27.9992 34.481,27.9998 H 37.5063 C 37.9798,27.9998 37.9755,28.6346 37.4862,28.6352 C 37.1042,28.636 36.7224,28.6368 36.3408,28.6375 C 36.3216,28.6375 36.312,28.6476 36.312,28.6677 C 36.3109,29.6493 36.3109,30.6299 36.312,31.6096 C 36.3125,32.139 35.7069,32.121 35.7118,31.6084 C 35.7205,30.6291 35.7192,29.6495 35.708,28.6694 C 35.708,28.6478 35.6977,28.637 35.677,28.637 Z" fill="rgb(127, 188, 79)"/>
<path d="M 38.627,30.866 L 38.6333,31.2935 C 38.6333,31.3017 38.6348,31.3098 38.6378,31.3174 S 38.6452,31.3318 38.6508,31.3376 C 38.6564,31.3435 38.6631,31.3481 38.6704,31.3512 C 38.6778,31.3544 38.6856,31.356 38.6936,31.356 C 39.3957,31.3556 40.1014,31.356 40.8106,31.3571 C 41.0373,31.3576 41.1039,31.9986 40.7683,31.9986 C 40.1352,31.9997 39.5021,32 38.869,31.9997 C 38.209,31.9997 38.005,31.7542 38.0013,31.0914 C 37.9992,30.6411 38.0008,30.1906 38.0061,29.7399 C 38.0124,29.1976 38.3284,28.9998 38.8046,28.9998 C 39.2446,29.0002 39.6846,29.0005 40.1246,29.0009 C 40.6742,29.0009 40.9983,29.1658 41.0004,29.7635 V 30.6126 C 40.9999,30.7024 40.9184,30.8153 40.8375,30.8175 C 40.1206,30.8357 39.4026,30.841 38.6835,30.8334 C 38.6714,30.8332 38.6596,30.8381 38.6509,30.8471 C 38.6422,30.856 38.6372,30.8682 38.637,30.881 Z M 40.3656,29.6314 C 40.3656,29.6239 40.3627,29.6166 40.3576,29.6113 C 40.3524,29.606 40.3454,29.603 40.3381,29.603 H 38.6619 C 38.6546,29.603 38.6476,29.606 38.6424,29.6113 C 38.6373,29.6166 38.6344,29.6239 38.6344,29.6314 V 30.0949 C 38.6344,30.1024 38.6373,30.1097 38.6424,30.115 C 38.6476,30.1204 38.6546,30.1234 38.6619,30.1234 H 40.3381 C 40.3454,30.1234 40.3524,30.1204 40.3576,30.115 C 40.3627,30.1097 40.3656,30.1024 40.3656,30.0949 V 29.6314 Z" fill="rgb(127, 188, 79)"/>
<path d="M 41.994,29.648 V 31.271 C 42.004,31.2936 42.0128,31.3152 42.0285,31.3311 S 42.0655,31.356 42.0877,31.356 C 42.8089,31.3563 43.5285,31.3563 44.2464,31.356 C 44.4845,31.356 44.5748,31.9997 44.1736,31.9997 H 42.2921 C 41.6783,32.0002 41.3685,31.8425 41.3663,31.1976 C 41.3648,30.7626 41.3645,30.3276 41.3652,29.8926 C 41.3663,29.2949 41.5489,29.0029 42.1578,29.0012 C 42.8663,28.999 43.5749,28.9992 44.2834,29.0018 C 44.472,29.0023 44.5737,29.6022 44.1937,29.6022 C 43.4913,29.603 42.7813,29.6031 42.0638,29.6028 C 42.0239,29.6028 42.004,29.6229 42.004,29.663 Z" fill="rgb(127, 188, 79)"/>
<path d="M 21.485999999999997,16.605999999999998 V 11.9982 C 25.2678,14.2636 29.1842,16.6353 32.998,18.9279 L 33.0002,23.5243 L 21.4962,16.621 Z" fill="rgb(72, 87, 37)"/>
<path d="M 21.49,11.988 V 16.6303 L 13.8086,21.0603 C 13.7872,21.0342 13.7496,21.0058 13.6957,20.9751 C 12.469,20.2777 11.242,19.5812 10.0147,18.8856 L 21.4997,12.003 Z" fill="rgb(86, 141, 66)"/>
<path d="M 9.99,18.87 L 13.9915,20.9575 L 10.0608,23.3508 C 10.0508,23.3568 10.04,23.3599 10.0282,23.3599 H 10.0021 L 10,18.885 Z" fill="rgb(160, 203, 56)"/>
<path d="M 13.987,20.909 V 25.7844 L 10.0018,23.3892 V 23.3608 H 10.0278 C 10.0396,23.3608 10.0505,23.3578 10.0604,23.3517 C 10.3903,23.1478 13.997,20.924 13.997,20.924 Z" fill="rgb(86, 141, 66)"/>
<path d="M 21.505999999999997,21.125999999999998 L 21.5016,25.6608 L 17.7409,28.0002 C 17.7372,28.0028 17.735,28.0062 17.7343,28.0104 C 17.7339,28.013 17.7335,28.0155 17.7331,28.0178 L 13.8468,25.6772 C 13.8527,25.675 13.8573,25.6699 13.8606,25.6619 C 13.8643,25.6536 13.8702,25.6471 13.8783,25.6426 L 21.516,21.141 Z" fill="rgb(86, 141, 66)"/>
<path d="M 21.505999999999997,21.125999999999998 C 25.3321,23.3837 29.1456,25.6292 32.956,27.8775 C 32.9708,27.8862 32.9796,27.8998 32.9826,27.9184 L 29.003,30.4576 V 25.8401 L 25.3637,27.9848 L 21.5012,25.6608 L 21.5155,21.141 Z" fill="rgb(15, 106, 178)"/>
<path d="M 9.992,23.374 L 13.8032,25.6466 L 13.8469,25.6772 L 17.7333,28.0177 L 21.5134,30.2918 L 21.5123,34.8377 C 21.5123,34.8486 21.5165,34.8577 21.525,34.8649 L 21.5411,34.878 C 21.5333,34.9041 21.5206,34.9117 21.5029,34.9007 C 17.6849,32.6138 13.8598,30.3204 10.0279,28.0206 C 10.0197,28.0158 10.0128,28.0088 10.008,28.0003 C 10.0033,27.9918 10.0008,27.9821 10.0008,27.9723 L 10.0024,23.389 Z" fill="rgb(72, 87, 37)"/>
<path d="M 28.99,30.429 L 21.5412,34.878 L 21.5251,34.8649 C 21.5166,34.8577 21.5124,34.8486 21.5124,34.8376 L 21.5135,30.2918 L 25.3645,27.9848 L 29,25.8128 V 30.444 Z" fill="rgb(127, 188, 79)"/>
<path d="M 32.99,27.903 V 37.1097 C 33,37.123 32.9966,37.136 32.9902,37.1474 C 32.9838,37.1589 32.9746,37.1684 32.9634,37.175 L 21.4464,44 V 39.49 C 24.017,37.9478 26.5891,36.4085 29.1627,34.872 C 29.1782,34.8625 29.1977,34.844 29.2213,34.8163 C 29.2833,34.8379 32.5708,32.8336 32.9245,32.6218 C 32.928,32.6197 32.931,32.6167 32.9331,32.6131 C 32.9351,32.6094 32.9363,32.6054 32.9363,32.6012 C 32.9364,32.5971 32.9354,32.593 32.9334,32.5894 C 32.9314,32.5859 32.9285,32.5829 32.9251,32.5809 L 29.0035,30.4535 L 32.9998,27.918 Z" fill="rgb(162, 217, 244)"/>
<path d="M 28.99,30.422 L 32.9252,32.5809 C 32.9286,32.5829 32.9315,32.5858 32.9335,32.5894 S 32.9365,32.597 32.9364,32.6012 C 32.9364,32.6053 32.9353,32.6094 32.9332,32.613 S 32.9281,32.6196 32.9246,32.6217 L 29,34.9767 V 30.437 Z" fill="rgb(15, 106, 178)"/>
<path d="M 21.436999999999998,39.475 V 44.0001 L 10.023,37.2154 C 10.0079,37.2063 10.0003,37.1927 10.0003,37.1745 V 32.6604 C 10.0003,32.6576 10.0011,32.6548 10.0025,32.6524 C 10.0039,32.6499 10.0059,32.6479 10.0083,32.6464 C 10.0107,32.645 10.0134,32.6442 10.0162,32.6442 C 10.0189,32.6442 10.0217,32.6449 10.0241,32.6463 L 21.4471,39.49 Z" fill="rgb(15, 106, 178)"/>
</svg>
