<?xml version="1.0" encoding="UTF-8"?>
<!-- generated by Finnhub -->
<svg viewBox="0 0 55.5 55.5" xmlns="http://www.w3.org/2000/svg">
<path d="M 0,0 H 55.5 V 55.5 H 0 Z" fill="rgb(239, 242, 248)"/>
<path d="M 42.14,37.945 L 42.65,38 H 43.59 L 44.12,37.95 C 45.6,37.88 47.02,37.45 48.27,36.67 A 6.7,6.7 0 0,0 50.55,34.17 C 50.66,33.96 50.75,33.74 50.85,33.53 L 51,33.2 C 50.73,33.47 50.4,33.7 50.05,33.84 A 5.5,5.5 0 0,1 47.85,34.31 C 46.79,34.32 45.74,34.19 44.71,33.91 C 43.29,33.53 41.91,33.03 40.59,32.4 A 43.23,43.23 0 0,0 33.05,29.67 C 31.89,29.37 30.71,29.15 29.52,28.99 A 20.76,20.76 0 0,0 21.85,29.35 A 17.72,17.72 0 0,0 16.29,31.75 C 15.49,32.29 14.71,32.87 13.97,33.49 L 13.57,33.85 L 13.66,33.82 C 14.15,33.58 14.65,33.37 15.16,33.2 C 16.84,32.66 18.58,32.37 20.34,32.34 A 23.31,23.31 0 0,1 24.92,32.7 C 26.62,33.02 28.29,33.52 29.89,34.2 C 30.35,34.39 30.79,34.59 31.24,34.8 L 32.32,35.28 A 33.84,33.84 0 0,0 40.09,37.72 C 40.77,37.84 41.46,37.92 42.15,37.96 Z M 5.02,32.91 L 5,33 V 33.37 A 1.88,1.88 0 0,0 5.63,34.57 A 4.46,4.46 0 0,0 10.77,35.07 C 11.51,34.69 12.09,34.07 12.42,33.33 C 12.72,32.58 12.82,31.78 12.69,30.99 C 12.59,30.28 12.38,29.59 12.05,28.94 A 16.34,16.34 0 0,0 10.47,26.44 C 10.11,25.94 9.75,25.42 9.41,24.9 C 9.2,24.6 9.1,24.25 9.14,23.9 A 0.96,0.96 0 0,1 9.34,23.38 C 9.46,23.23 9.62,23.11 9.8,23.05 A 1.06,1.06 0 0,1 10.9,23.19 C 11.17,23.42 11.36,23.7 11.46,24.02 L 11.5,24.17 L 11.54,24.29 C 11.56,24.39 11.6,24.41 11.68,24.39 L 12.55,24.04 A 0.1,0.1 0 0,0 12.61,24 A 0.1,0.1 0 0,0 12.63,23.93 V 20.87 C 12.63,20.73 12.6,20.71 12.46,20.77 L 11.51,21.17 C 11.34,21.24 11.32,21.27 11.32,21.44 V 21.73 C 11.31,21.81 11.24,21.83 11.17,21.81 A 0.83,0.83 0 0,1 11.12,21.79 L 10.99,21.76 A 4.21,4.21 0 0,0 8.74,21.93 A 3.72,3.72 0 0,0 6.76,26.15 C 6.94,26.86 7.24,27.54 7.64,28.15 C 7.97,28.7 8.36,29.22 8.74,29.74 L 9.02,30.11 C 9.44,30.66 9.73,31.28 9.89,31.95 C 10.03,32.45 9.97,33 9.73,33.47 C 9.6,33.77 9.36,33.99 9.06,34.12 C 8.76,34.24 8.42,34.25 8.11,34.15 C 7.93,34.09 7.91,34.01 8.01,33.85 A 0.63,0.63 0 0,0 8.11,33.68 C 8.24,33.28 8.24,32.84 8.11,32.43 A 1.62,1.62 0 0,0 7.31,31.63 A 1.7,1.7 0 0,0 6.18,31.52 A 1.48,1.48 0 0,0 5.08,32.64 A 3.6,3.6 0 0,0 5.02,32.9 Z M 27.6,18.05 V 18 H 25.2 A 0.5,0.5 0 0,0 25.14,18.14 V 18.54 C 25.14,18.67 25.14,18.74 25.16,18.77 C 25.19,18.8 25.25,18.8 25.39,18.8 C 25.65,18.8 26.06,18.98 26,19.27 V 24.28 L 22.95,18.41 A 0.19,0.19 0 0,0 22.88,18.32 A 0.2,0.2 0 0,0 22.76,18.29 L 22.62,18.3 L 22.44,18.31 L 21.06,18.54 L 20.34,18.64 C 20.23,18.67 20.2,18.69 20.2,18.81 V 19.21 C 20.2,19.35 20.36,19.36 20.5,19.36 C 20.6,19.35 20.68,19.36 20.76,19.4 C 20.83,19.44 20.89,19.51 20.92,19.6 A 1,1 0 0,1 21,19.93 V 26.93 C 21,27.08 20.93,27.23 20.83,27.36 C 20.74,27.48 20.53,27.57 20.36,27.64 A 5.6,5.6 0 0,0 20.27,27.68 A 0.18,0.18 0 0,0 20.17,27.75 A 0.17,0.17 0 0,0 20.15,27.85 V 28.36 C 20.15,28.46 20.15,28.49 20.27,28.46 L 22.45,27.96 A 0.08,0.08 0 0,0 22.51,27.94 A 0.07,0.07 0 0,0 22.52,27.88 V 27.36 C 22.52,27.28 22.51,27.25 22.41,27.25 C 22.01,27.25 22.01,27.14 22.01,26.74 C 21.96,24.96 22.01,21.35 22.01,21.35 L 24.41,26.22 C 24.61,26.57 24.78,26.93 24.95,27.3 L 25.05,27.5 C 25.1,27.6 25.12,27.64 25.15,27.66 C 25.19,27.68 25.23,27.68 25.33,27.68 L 26.78,27.62 C 26.94,27.62 27,27.6 27,27.44 V 19.2 C 26.98,18.88 27.22,18.75 27.48,18.7 C 27.58,18.68 27.6,18.65 27.6,18.56 V 18.06 Z M 29.52,18.08 L 29.07,18.04 L 29.05,18.07 H 28.45 V 18.18 A 4.64,4.64 0 0,0 28.45,18.55 C 28.43,18.69 28.45,18.73 28.59,18.77 C 28.84,18.86 28.99,19.18 29,19.42 V 26.04 C 29.03,26.36 28.85,26.51 28.66,26.66 C 28.56,26.74 28.46,26.82 28.4,26.93 A 0.16,0.16 0 0,0 28.38,27.03 V 27.65 C 28.38,27.75 28.38,27.78 28.52,27.75 H 28.88 C 29.56,27.76 29.85,27.77 30.51,27.85 C 31.43,27.97 32.34,28.13 33.24,28.33 L 33.77,28.46 C 33.94,28.49 33.99,28.45 33.99,28.28 V 26.68 A 0.16,0.16 0 0,0 33.96,26.56 A 0.17,0.17 0 0,0 33.85,26.5 L 33.31,26.35 C 33.21,26.32 33.18,26.33 33.18,26.44 A 2.93,2.93 0 0,1 33.04,26.96 A 0.34,0.34 0 0,1 32.81,27.1 H 32.68 L 32.53,27.08 L 32.37,27.06 L 31.17,26.87 C 31.02,26.85 31,26.81 31,26.67 V 23.75 C 31,23.64 31.04,23.61 31.15,23.61 H 31.44 C 31.59,23.63 31.67,23.65 31.78,23.68 L 31.92,23.72 C 32.18,23.81 32.32,24.06 32.29,24.32 C 32.29,24.42 32.32,24.48 32.42,24.48 L 32.93,24.53 A 0.3,0.3 0 0,0 33,24.53 V 22.2 C 33,22.12 32.97,22.09 32.9,22.09 L 32.45,22.05 H 32.44 C 32.33,22.03 32.33,22.03 32.3,22.15 A 0.52,0.52 0 0,1 31.78,22.61 C 31.54,22.62 31.38,22.63 31.14,22.61 C 31.03,22.61 31,22.55 31,22.43 V 19.37 C 31,19.14 31,19.1 31.24,19.14 A 63.4,63.4 0 0,0 32.91,19.42 C 33.01,19.44 33.09,19.49 33.17,19.55 C 33.24,19.62 33.29,19.7 33.32,19.8 C 33.38,19.99 33.41,20.19 33.41,20.39 C 33.41,20.52 33.45,20.56 33.58,20.56 L 33.96,20.58 L 34.06,20.59 C 34.22,20.61 34.22,20.61 34.22,20.34 V 18.85 C 34.22,18.7 34.22,18.67 34.06,18.65 L 33.76,18.59 L 32.26,18.34 A 29.94,29.94 0 0,0 30.11,18.12 C 29.95,18.12 29.77,18.1 29.52,18.08 Z M 40.77,27.72 C 40.57,28.27 40.47,28.85 40.47,29.44 V 29.46 A 3.05,3.05 0 0,0 40.87,31.05 C 41.05,31.41 41.37,31.69 41.75,31.85 A 0.95,0.95 0 0,0 42.58,31.82 A 0.8,0.8 0 0,0 42.91,31.46 C 42.97,31.31 43,31.16 42.97,30.99 A 0.73,0.73 0 0,0 42.72,30.42 A 0.78,0.78 0 0,0 42.11,30.22 A 0.32,0.32 0 0,1 41.87,30.16 A 0.3,0.3 0 0,1 41.75,29.96 C 41.65,29.59 41.59,29.22 41.57,28.86 C 41.55,28.61 41.57,28.36 41.63,28.14 C 41.66,28.03 41.71,28.01 41.81,28.06 L 42.42,28.34 L 44.07,29.09 H 44.08 C 44.15,29.12 44.22,29.15 44.22,29.24 C 44.36,29.98 44.61,30.71 44.94,31.39 A 4.9,4.9 0 0,0 46.06,32.94 A 2.42,2.42 0 0,0 48.62,33.44 A 1.33,1.33 0 0,0 49.28,32.56 C 49.32,32.37 49.32,32.18 49.28,32 A 1.3,1.3 0 0,0 48.7,31.1 A 1.4,1.4 0 0,0 47.62,30.9 A 0.28,0.28 0 0,1 47.36,30.81 A 1.01,1.01 0 0,1 47.21,30.62 A 7.68,7.68 0 0,1 46.84,29.92 C 46.44,28.94 46.12,27.93 45.88,26.9 C 45.62,25.83 45.38,24.75 45.14,23.67 C 45.04,23.25 44.97,22.84 44.9,22.43 L 44.84,22.07 V 22.05 C 44.79,21.78 44.78,21.78 44.5,21.67 A 156.3,156.3 0 0,0 41.84,20.66 L 41.61,20.58 C 41.55,20.55 41.51,20.58 41.51,20.65 L 41.52,20.73 C 41.54,20.86 41.55,21 41.55,21.13 C 41.55,21.17 41.57,21.22 41.59,21.25 L 41.69,21.33 C 41.91,21.43 42.11,21.56 42.29,21.73 A 1.16,1.16 0 0,1 42.65,22.75 C 42.63,22.91 42.59,23.08 42.53,23.24 L 41.74,25.21 L 41.61,25.53 C 41.31,26.25 41.01,26.97 40.77,27.72 Z M 44,28.04 A 0.6,0.6 0 0,1 44,28.12 L 43.9,28.08 L 42.01,27.25 C 41.89,27.2 41.87,27.19 41.92,27.05 L 41.95,26.96 C 42.05,26.66 42.16,26.36 42.29,26.08 A 58.37,58.37 0 0,1 43.26,24.06 A 0.34,0.34 0 0,1 43.35,24.01 L 43.39,24.09 L 43.44,24.41 L 43.48,24.74 L 43.56,25.28 A 136.88,136.88 0 0,0 43.88,27.28 L 44,28.04 Z M 13.3,31.09 V 31.1 H 13.29 V 31.09 Z M 13.3,31.09 L 13.4,31.04 A 20.3,20.3 0 0,1 19.63,28.64 C 19.76,28.62 19.76,28.59 19.76,28.46 V 28.32 L 19.84,27.33 L 19.88,26.82 L 19.92,26.49 C 19.92,26.39 19.9,26.39 19.82,26.39 L 19.04,26.57 A 0.12,0.12 0 0,0 18.96,26.61 A 0.11,0.11 0 0,0 18.93,26.69 L 18.92,26.86 L 18.9,27.09 C 18.9,27.27 18.85,27.45 18.74,27.59 A 0.83,0.83 0 0,1 18.29,27.89 L 16.23,28.62 C 16.09,28.67 16,28.65 16,28.5 V 25.09 C 16,24.96 16.08,24.91 16.2,24.88 H 16.22 C 16.53,24.78 17.25,24.56 17.34,25.02 V 25.16 C 17.33,25.24 17.37,25.24 17.44,25.24 C 17.54,25.24 17.65,25.21 17.74,25.18 L 17.86,25.14 C 17.97,25.12 18,25.07 18,24.95 V 22.62 L 17.84,22.66 L 17.48,22.73 C 17.36,22.75 17.33,22.8 17.33,22.89 C 17.33,23.06 17.28,23.23 17.18,23.36 C 16.98,23.61 16.59,23.76 16.28,23.86 L 16.17,23.91 C 16.04,23.95 16,23.91 16,23.79 V 20.74 C 16,20.68 16.02,20.62 16.06,20.58 C 16.1,20.53 16.16,20.5 16.21,20.49 L 16.58,20.39 L 16.86,20.31 L 17.52,20.12 C 17.82,20.02 18.12,19.94 18.36,19.88 A 0.37,0.37 0 0,1 18.69,19.91 A 0.36,0.36 0 0,1 18.86,20.18 C 18.88,20.32 18.9,20.46 18.9,20.6 C 18.9,20.7 18.92,20.71 19.02,20.7 L 19.17,20.66 L 19.57,20.58 C 19.7,20.56 19.7,20.56 19.7,20.44 V 18.78 C 19.7,18.58 19.7,18.58 19.5,18.62 L 19.18,18.68 C 18.88,18.74 18.56,18.8 18.25,18.88 C 16.77,19.25 15.3,19.68 13.85,20.18 C 13.66,20.24 13.5,20.31 13.34,20.38 L 13.21,20.43 A 0.15,0.15 0 0,0 13.13,20.49 A 0.14,0.14 0 0,0 13.1,20.59 V 21.04 C 13.1,21.19 13.14,21.21 13.28,21.19 L 13.58,21.15 C 13.86,21.11 14,21.2 14,21.47 V 29.37 C 14,29.45 13.96,29.52 13.93,29.59 L 13.9,29.66 C 13.86,29.75 13.8,29.83 13.73,29.9 C 13.63,30 13.53,30.08 13.43,30.15 A 0.27,0.27 0 0,0 13.3,30.4 V 31.09 Z M 39.76,26.82 L 39.64,26.76 V 26.86 C 39.58,27.34 39.36,27.8 39.01,28.17 A 1.1,1.1 0 0,1 38.11,28.57 A 1.13,1.13 0 0,1 37.24,28.09 C 37.04,27.81 36.88,27.49 36.79,27.16 A 9.04,9.04 0 0,1 36.49,24.78 A 9.64,9.64 0 0,1 36.98,21.58 C 37.09,21.23 37.28,20.91 37.54,20.64 A 0.94,0.94 0 0,1 38.52,20.4 C 38.76,20.47 38.97,20.61 39.12,20.8 C 39.42,21.18 39.62,21.62 39.72,22.1 C 39.77,22.26 39.79,22.44 39.82,22.6 L 39.85,22.78 C 39.88,22.92 39.91,22.97 40.06,22.97 C 40.16,22.97 40.24,22.98 40.33,23 C 40.41,23.01 40.43,22.98 40.43,22.92 L 40.48,22.58 L 40.56,21.87 L 40.66,21.06 V 20.94 L 40.72,20.44 A 0.16,0.16 0 0,0 40.69,20.32 A 0.17,0.17 0 0,0 40.59,20.24 L 40.45,20.2 L 40.27,20.14 C 40.13,20.1 40.1,20.12 40.07,20.25 A 0.2,0.2 0 0,1 40.04,20.36 A 0.22,0.22 0 0,1 39.72,20.4 A 0.9,0.9 0 0,1 39.57,20.25 C 39.35,19.99 39.1,19.75 38.81,19.55 A 2.25,2.25 0 0,0 36.37,19.49 C 35.95,19.75 35.6,20.1 35.32,20.51 A 6.73,6.73 0 0,0 34.18,24.22 C 34.16,24.73 34.2,25.24 34.28,25.74 C 34.37,26.41 34.58,27.05 34.88,27.65 A 3.5,3.5 0 0,0 38.08,29.55 A 1.9,1.9 0 0,0 39.6,28.87 C 39.98,28.37 40.22,27.8 40.3,27.19 A 0.14,0.14 0 0,0 40.24,27.08 A 9.93,9.93 0 0,0 39.76,26.82 Z" fill="rgb(192, 2, 51)"/>
</svg>
