<?xml version="1.0" encoding="UTF-8"?>
<!-- generated by Finnhub -->
<svg viewBox="0 0 55.5 55.5" xmlns="http://www.w3.org/2000/svg">
<path d="M 0,0 H 55.5 V 55.5 H 0 Z" fill="rgb(239, 242, 248)"/>
<path d="M 12.69,23.535 A 4.51,4.51 0 0,0 11.02,23.22 C 10.45,23.22 9.72,23.45 9.72,24.29 C 9.72,25.63 13.34,25.07 13.34,27.66 C 13.34,29.36 11.91,30 10.24,30 C 9.34,30 8.94,29.89 8.12,29.7 L 8.28,28.3 C 8.85,28.6 9.5,28.78 10.15,28.78 C 10.77,28.78 11.61,28.48 11.61,27.78 C 11.61,26.31 8,26.92 8,24.36 C 8,22.63 9.43,22 10.88,22 C 11.58,22 12.25,22.09 12.85,22.28 L 12.7,23.55 Z M 19.27,29.54 A 4.4,4.4 0 0,1 17.18,30 C 15.18,30 14,28.91 14,27.03 C 14,25.37 14.93,24 16.83,24 C 19.08,24 19.73,25.46 19.73,27.46 H 15.5 C 15.57,28.39 16.26,29 17.24,29 C 18.01,29 18.67,28.64 19.26,28.33 V 29.54 Z M 18.21,26.44 C 18.16,25.71 17.81,25 16.92,25 S 15.59,25.67 15.52,26.44 H 18.21 Z M 20.45,24 H 22 V 25.47 C 22.07,24.92 22.6,24 23.55,24 C 23.7,24 23.83,24 24,24.05 V 25.42 C 23.86,25.34 23.6,25.29 23.32,25.29 C 22.03,25.29 22,27.01 22,27.85 V 30 H 20.45 V 24 Z M 25,24 H 26.5 V 24.93 H 26.52 A 2.3,2.3 0 0,1 28.52,24 C 29.97,24 30.59,24.98 30.59,26.3 V 30 H 29 V 26.87 C 29,26.15 29,25 27.98,25 C 26.83,25 26.58,26.38 26.58,27.13 V 30 H 25 V 24 Z M 34.18,24 C 35.98,24 37.38,25.15 37.38,27.04 C 37.38,28.69 36.2,30 34.18,30 C 32.18,30 31,28.69 31,27.04 C 31,25.14 32.38,24 34.18,24 Z M 34.18,28.84 C 35.4,28.84 35.72,27.82 35.72,26.86 C 35.72,25.98 35.22,25.16 34.18,25.16 C 33.15,25.16 32.66,26 32.66,26.86 C 32.66,27.81 32.97,28.84 34.18,28.84 Z M 37.16,24 H 38.86 L 40.37,28.37 H 40.39 L 41.86,24 H 43.44 L 41.2,30 H 39.4 L 37.15,24 Z M 44,24.43 C 44.62,24.17 45.6,24 46.28,24 C 48.14,24 48.91,24.72 48.91,26.42 V 27.15 A 29.6,29.6 0 0,0 49,30 H 47.6 C 47.54,29.7 47.54,29.19 47.53,29 H 47.5 A 2.2,2.2 0 0,1 45.62,30 C 44.55,30 43.49,29.39 43.49,28.3 C 43.49,27.44 43.93,26.94 44.54,26.66 C 45.14,26.38 45.92,26.33 46.58,26.33 H 47.45 C 47.45,25.4 47.02,25 46.08,25 C 45.41,25 44.52,25.39 43.99,25.77 V 24.43 Z M 46.02,29 C 46.51,29 46.88,28.7 47.13,28.4 C 47.39,28.07 47.46,27.66 47.46,27.22 H 46.78 C 46.07,27.22 45.02,27.32 45.02,28.21 C 45.02,28.7 45.45,29 46.02,29 Z M 35.16,34.88 C 34.86,34.94 34.55,35 34.24,35 C 32.92,35 32,34.37 32,33.07 C 32,31.74 32.85,31 34.24,31 C 34.5,31 34.86,31.05 35.16,31.16 L 35.1,31.82 C 34.8,31.65 34.51,31.61 34.22,31.61 C 33.38,31.61 32.85,32.21 32.85,33.01 C 32.85,33.8 33.37,34.39 34.24,34.39 C 34.56,34.39 34.94,34.32 35.13,34.23 L 35.16,34.88 Z M 36.82,32 C 37.72,32 38.4,32.57 38.4,33.52 C 38.4,34.34 37.82,35 36.82,35 S 35.25,34.34 35.25,33.52 C 35.25,32.57 35.93,32 36.82,32 Z M 36.82,34.42 C 37.42,34.42 37.58,33.91 37.58,33.43 C 37.58,32.99 37.34,32.58 36.82,32.58 C 36.32,32.58 36.07,33 36.07,33.43 C 36.07,33.9 36.23,34.43 36.82,34.43 Z M 38.76,32 H 39.41 V 32.73 H 39.43 C 39.46,32.46 39.76,32 40.2,32 C 40.28,32 40.35,32 40.43,32.02 V 32.79 A 0.73,0.73 0 0,0 40.1,32.73 C 39.5,32.73 39.5,33.5 39.5,33.93 V 35 H 38.76 V 32 Z M 40.74,32 H 41.44 V 32.46 H 41.45 C 41.62,32.19 41.9,32 42.34,32 C 43.21,32 43.54,32.68 43.54,33.45 C 43.54,34.22 43.21,34.93 42.32,34.93 A 0.98,0.98 0 0,1 41.49,34.54 H 41.48 V 36 H 40.74 V 32 Z M 41.48,33.45 C 41.48,33.85 41.64,34.36 42.13,34.36 S 42.76,33.84 42.76,33.46 S 42.62,32.56 42.14,32.56 C 41.67,32.56 41.48,33.06 41.48,33.46 Z" fill="rgb(1, 55, 75)"/>
<path d="M 10.07,36.305 C 11.3,35.67 12.1,34.82 11.86,34.4 C 11.62,33.99 10.44,34.18 9.21,34.83 C 7.99,35.48 7.19,36.33 7.43,36.75 C 7.67,37.16 8.85,36.97 10.08,36.32 Z M 12.25,39.48 C 13.47,38.83 14.27,37.97 14.03,37.56 C 13.79,37.14 12.6,37.34 11.38,37.98 C 10.16,38.63 9.36,39.49 9.6,39.91 C 9.84,40.31 11.02,40.13 12.25,39.48 Z M 18.73,39.83 C 19.96,39.18 20.76,38.32 20.52,37.9 C 20.28,37.5 19.09,37.68 17.87,38.33 S 15.85,39.84 16.09,40.25 C 16.33,40.67 17.51,40.47 18.73,39.83 Z M 37.59,17.73 C 38.81,17.08 39.61,16.22 39.37,15.81 C 39.13,15.39 37.95,15.59 36.72,16.24 C 35.5,16.88 34.7,17.74 34.94,18.16 C 35.18,18.56 36.37,18.38 37.59,17.73 Z M 43.9,17.71 C 45.1,17.02 45.87,16.14 45.61,15.73 C 45.36,15.33 44.18,15.56 42.98,16.25 C 41.78,16.94 41.02,17.82 41.28,18.23 C 41.53,18.63 42.7,18.4 43.9,17.71 Z M 27.92,37.6 C 29.3,36.88 30.13,35.79 29.78,35.18 C 29.43,34.58 28.03,34.68 26.65,35.41 S 24.44,37.23 24.79,37.84 C 25.14,38.44 26.54,38.34 27.92,37.61 Z M 45.8,21.45 C 46.9,20.83 47.55,19.96 47.27,19.52 C 47,19.08 45.89,19.22 44.8,19.85 C 43.71,20.48 43.05,21.35 43.33,21.79 C 43.61,22.23 44.72,22.09 45.8,21.45 Z M 29.6,19.64 C 30.6,19.08 31.26,18.41 31.1,18.14 C 30.94,17.89 30,18.14 29.02,18.71 C 28.03,19.27 27.36,19.94 27.52,20.21 C 27.69,20.46 28.62,20.21 29.61,19.64 Z M 23.64,21.75 C 24.4,21.31 24.92,20.8 24.8,20.61 C 24.69,20.43 23.97,20.63 23.21,21.06 C 22.45,21.5 21.93,22.01 22.05,22.2 C 22.17,22.39 22.88,22.18 23.65,21.75 Z" fill="rgb(76, 175, 205)"/>
</svg>
