<?xml version="1.0" encoding="UTF-8"?>
<!-- generated by Finnhub -->
<svg viewBox="0 0 55.5 55.5" xmlns="http://www.w3.org/2000/svg">
<path d="M 0,0 H 55.5 V 55.5 H 0 Z" fill="rgb(239, 242, 248)"/>
<path d="M 27.569999999999997,45.985 A 8.66,8.66 0 0,1 25,40 C 25,38 25.95,35.86 27.58,34.27 L 40.5,21.73 A 8.12,8.12 0 0,1 40.5,33.46 L 27.58,46 Z" fill="url(#d)"/>
<path d="M 15.49,34.255 A 8.12,8.12 0 0,1 15.5,22.54 L 28.42,10 C 30.12,11.65 31,14 31,16 S 30.05,20.14 28.42,21.73 L 15.5,34.27 Z" fill="url(#c)"/>
<path d="M 15.49,34.255 A 8.72,8.72 0 0,0 27.58,34.27 L 40.5,21.73 A 8.72,8.72 0 0,0 28.42,21.73 L 15.5,34.27 Z" fill="url(#b)"/>
<path d="M 28.029999999999998,22.085 C 27.74,22.5 27.3,24.2 28,27.76 C 28.74,31.49 28.65,32.92 28.33,33.55 L 40.5,21.73 A 8.72,8.72 0 0,0 28.42,21.73 L 28.04,22.09 Z" fill="url(#a)"/>
<defs>
<linearGradient id="d" x1="42.85" x2="24.35" y1="29.63" y2="38.77" gradientUnits="userSpaceOnUse">
<stop stop-color="rgb(254, 94, 2)" offset="0"/>
<stop stop-color="rgb(251, 212, 119)" offset=".91"/>
</linearGradient>
<linearGradient id="c" x1="34.46" x2="12.33" y1="15.86" y2="27.13" gradientUnits="userSpaceOnUse">
<stop stop-color="rgb(149, 241, 211)" offset="0"/>
<stop stop-color="rgb(0, 183, 115)" offset=".91"/>
</linearGradient>
<linearGradient id="b" x1="31.02" x2="25.16" y1="30.93" y2="24.9" gradientUnits="userSpaceOnUse">
<stop stop-color="rgb(202, 90, 201)" offset="0"/>
<stop stop-color="rgb(146, 43, 212)" offset="1"/>
</linearGradient>
<linearGradient id="a" x1="27.54" x2="39.15" y1="23.81" y2="22.98" gradientUnits="userSpaceOnUse">
<stop stop-color="rgb(253, 88, 93)" offset="0"/>
<stop stop-color="rgb(250, 158, 138)" offset="1"/>
</linearGradient>
</defs>
</svg>
