<?xml version="1.0" encoding="UTF-8"?>
<!-- generated by Finnhub -->
<svg viewBox="0 0 55.5 55.5" xmlns="http://www.w3.org/2000/svg">
<path d="M 0,0 H 55.5 V 55.5 H 0 Z" fill="rgb(239, 242, 248)"/>
<path d="M 47.99,17.985 H 8 V 38 H 48 V 18 Z M 47,19 H 9 V 37 H 47 V 19 Z" fill-rule="evenodd"/>
<path d="M 9.46,35.464999999999996 C 9.47,36.4 9.87,37.44 10.08,37.85 C 13.98,37.96 21.87,38.12 22.28,37.85 C 22.56,36.63 20.6,36.59 20.24,36.59 C 20.17,35.67 18.46,36.09 18.46,35.79 C 18.46,35.49 18.9,35.49 18.94,35.14 C 18.97,34.8 18.14,34.27 18,34 C 18.87,33.39 26.67,32.58 27,32.5 C 27.33,32.42 27.53,32.78 27.53,32.97 C 27.35,33.35 27.17,34.99 28.33,34.99 C 31.45,34.99 34.9,30.72 35.55,29.95 C 44.3,27.13 46,22.25 46,21.83 C 46,21.41 41.43,20 37.8,20 C 31.6,20 22.5,24.12 19.66,24.12 C 16.83,24.12 12.51,22.44 10.08,22.44 C 7.65,22.44 7,22.97 7,23.24 S 7.54,23.85 8.38,24.12 C 13.38,25.45 14.4,27.02 14.4,27.62 C 14.4,28.24 14.33,28.28 13.97,28.58 C 9.14,31.94 9.47,34.34 9.47,35.48 Z"/>
<path d="M 18.52,35.855 C 18.43,36.04 18.23,36.33 18.03,36.51 A 0.8,0.8 0 0,1 17.59,36.69 C 17.41,36.72 17.27,36.74 17.27,36.93 C 17.27,37.28 16.69,37.43 16.69,37.23 L 16.67,37.06 C 16.65,36.96 16.64,36.84 16.69,36.66 C 16.76,36.4 17.23,36.13 17.49,36.13 C 17.74,36.13 18.03,35.67 18.03,35.41 C 17.81,35.48 17.8,35.41 17.79,35.24 C 17.79,35.16 17.77,35.06 17.74,34.95 C 17.63,34.61 17.01,34.87 16.32,35.29 A 3.95,3.95 0 0,0 14.98,37.43 C 14.98,37.59 15.08,37.79 15.18,37.97 H 15.45 C 15.56,37.63 15.76,37.24 16.07,37.24 C 16.3,37.24 16.4,37.45 16.5,37.68 C 16.55,37.78 16.6,37.89 16.66,37.98 L 17.46,37.99 C 17.48,37.99 17.49,37.97 17.5,37.96 C 17.69,37.72 17.92,37.43 18.17,37.43 C 18.61,37.43 19.3,36.67 19.27,36.51 C 19.24,36.42 19.3,36.17 19.36,35.96 A 6.84,6.84 0 0,0 18.99,35.93 C 18.79,35.93 18.61,35.91 18.53,35.87 Z" fill="rgb(185, 185, 184)"/>
<path d="M 36.92,21.985 C 37.63,22 37.93,22.44 38,22.65 C 37.87,23.82 35.37,24.15 34.76,24.4 C 34.14,24.65 32.04,26 31.62,26 C 31.19,26 31,25.96 31,25.67 C 31,24 36.06,22 36.93,22 Z" fill="rgb(251, 251, 250)"/>
<path d="M 35.43,25.185 C 37.66,24.48 38.74,23.52 39,23.13 C 39,22.55 37,24.07 36.5,24.34 C 36.01,24.62 34.59,24.77 33.8,25.36 C 33.02,25.95 31.31,26.49 31.1,26.57 C 30.89,26.65 31.03,27 31.42,27 C 32.2,27 34.2,25.6 35.44,25.2 Z" fill="rgb(185, 185, 184)"/>
<path d="M 20.11,36.255 C 20.03,36.47 19.95,36.71 19.95,36.9 C 19.95,37.24 20.53,37.43 20.85,37.4 C 21.18,37.35 21.25,37.2 21.11,37.12 A 0.78,0.78 0 0,0 21.01,37.08 C 20.84,37.03 20.59,36.94 20.64,36.61 A 5.3,5.3 0 0,0 20.24,36.59 A 0.56,0.56 0 0,0 20.12,36.27 Z M 27.44,33.03 C 28.39,32.01 29.83,30.4 29.93,29.99 C 28.84,31.48 23.07,31.75 19.01,31.75 S 13.46,33.81 13.46,34.57 C 13.46,35.33 14.11,35.71 14.62,35.71 C 15.48,35.71 17.46,34.91 18.45,34.47 A 0.68,0.68 0 0,1 18.39,34.37 C 19.09,33.89 23.92,33.17 25.94,32.87 L 26.81,32.74 C 27.14,32.66 27.46,32.78 27.46,32.97 L 27.44,33.03 Z" fill="rgb(251, 251, 250)"/>
<path d="M 18.509999999999998,24.025 C 18.45,24.54 18.63,25.16 19.7,25.11 C 20.24,25.09 21.7,24.63 23.63,24.01 C 27.7,22.74 33.88,20.81 38.13,20.81 C 38.83,20.81 40.3,21.01 40.96,21.11 C 40.8,20.84 40.16,20.39 38.75,20.03 L 37.8,20 C 34.1,20 29.36,21.47 25.54,22.65 C 22.96,23.45 20.8,24.12 19.66,24.12 C 19.3,24.12 18.92,24.09 18.52,24.04 Z M 7.94,23.13 C 7.77,22.85 7.94,22.86 8.34,22.67 C 9.36,22.7 11.54,22.77 12.15,22.86 C 12.91,22.97 14.07,23.89 12.8,23.62 C 11.53,23.36 8.16,23.47 7.94,23.12 Z M 10.32,32.1 C 10.36,32.38 10.44,32.67 10.59,32.81 C 10.82,33.03 11.19,32.58 11.72,31.92 C 11.95,31.63 12.22,31.31 12.52,30.98 C 13,30.45 13.67,29.91 14.22,29.46 C 14.78,29.01 15.22,28.66 15.24,28.5 C 15.26,28.33 14.82,28.05 14.4,27.82 C 14.38,28.23 14.3,28.31 14,28.55 L 13.97,28.58 A 12.8,12.8 0 0,0 10.32,32.1 Z" fill="rgb(185, 185, 184)"/>
<path d="M 45.65,22.735 C 43.9,23.67 41,25.16 39.94,25.57 C 38.75,26.03 38.21,25.76 38.09,25.57 C 36.97,25.78 34.7,26.47 34.64,27.47 C 34.6,28.21 35.13,29.21 35.61,29.94 C 42.29,27.76 44.84,24.39 45.66,22.75 Z" fill="rgb(251, 251, 250)"/>
<path d="M 28.61,32.955 C 28.82,32.94 30.35,30.49 31.09,29.27 A 1.25,1.25 0 0,0 30.62,29.07 C 30.36,29.04 28.33,32.36 28.19,32.55 C 28.04,32.74 28.37,33 28.62,32.97 Z" fill="rgb(185, 185, 184)"/>
</svg>
