<?xml version="1.0" encoding="UTF-8"?>
<!-- generated by Finnhub -->
<svg viewBox="0 0 55.5 55.5" xmlns="http://www.w3.org/2000/svg">
<path d="M 0,0 H 55.5 V 55.5 H 0 Z" fill="rgb(1, 141, 142)"/>
<path d="M 36.06,20.345 L 36,20 L 35.93,20.36 C 35.75,21.2 35.16,21.86 34.39,22.06 L 34,22.16 L 34.28,22.22 C 35.1,22.39 35.76,23.08 35.93,23.97 L 36,24.33 L 36.07,23.97 C 36.24,23.08 36.9,22.39 37.72,22.22 L 38,22.17 L 37.61,22.07 A 2.18,2.18 0 0,1 36.07,20.37 Z M 4,29.02 L 4.36,30.81 C 4.61,30.87 5.48,31 6.91,31 C 8.69,31 10,30.11 10,29.02 C 10,28.1 9.31,27.7 8.72,27.37 A 11.87,11.87 0 0,0 7.82,26.84 C 7.21,26.51 6.55,26.14 6.55,25.84 C 6.55,25.43 8.07,25.14 9.68,25.94 L 9.38,24.24 A 9.22,9.22 0 0,0 7.15,24 C 5.76,24 4.25,24.8 4.25,25.93 C 4.25,27.07 5.68,27.73 5.92,27.84 C 6.15,27.94 7.66,28.8 7.66,29.2 C 7.66,29.6 5.67,29.85 4,29.02 Z M 18,24 V 31 L 14.93,24 H 12.9 L 9.76,31 H 11.9 L 12.53,29.5 H 15.29 L 15.91,31 H 20 V 26.9 L 21.63,30 H 23.36 L 25,26.9 V 31 H 27 V 24 H 24.59 L 22.5,28.26 L 20.41,24 H 18 Z M 13.17,28 H 14.67 L 13.93,26.23 L 13.17,28 Z M 28,24 V 31 H 30 V 28.23 H 33.55 V 26.77 H 30 V 25.51 H 34 V 24 H 28 Z M 38,24 V 31 H 40 V 26.9 L 42.73,31 H 45 V 24 H 43 V 28.05 L 40.27,24 H 38 Z M 46,24 V 31 H 52 V 29.55 H 48 V 28.25 H 51.68 V 26.82 H 48 V 25.48 H 52 V 24 H 46 Z M 35.65,24 H 35 V 31 H 37 V 24 H 36.35 C 36.22,24.28 36.12,24.59 36.07,24.92 L 36,25.36 L 35.93,24.92 A 3.32,3.32 0 0,0 35.65,24 Z" fill="rgb(254, 254, 253)" fill-rule="evenodd"/>
</svg>
