<?xml version="1.0" encoding="UTF-8"?>
<!-- generated by Finnhub -->
<svg viewBox="0 0 55.5 55.5" xmlns="http://www.w3.org/2000/svg">
<path d="M 0,0 H 55.5 V 55.5 H 0 Z" fill="rgb(1, 131, 59)"/>
<path d="M 51.782000000000004,25.151 C 51.475,25.636 50.775,25.417 49.931,25.133 C 49.09,24.852 46.632,24.823 46.632,27.069 C 46.632,29.319 51.055,28.129 51.055,30.567 C 50.811,32.222 47.089,31.816 47.089,29.754 C 46.456,30.911 46,31.627 46,31.627 C 46.84,31.347 48.037,31.753 48.806,31.941 C 49.578,32.13 52,31.975 52,29.788 C 52,27.383 47.613,28.225 47.613,26.57 C 47.613,25.07 50.771,25.07 50.771,26.943 L 51.791,25.166 Z M 14,31.337 V 28.567 C 13.327,28.567 12.838,28.95 12.838,28.95 C 12.991,28.32 14,28.219 14,28.219 V 26.229 C 14,25.135 13.486,25 13.486,25 H 17.128 C 20.09,25.566 19.194,28.916 16.818,28.65 H 15 V 31.337 L 16,32 H 13 L 14,31.337 Z M 16.664,28.144 S 17.682,28.193 17.682,27.001 C 17.682,25.806 16.964,25.558 16.362,25.558 H 15 V 28.17 L 16.664,28.144 Z M 29.076,25 C 30.626,25 32,26.416 32,28.586 S 30.702,32 28.877,32 C 27.051,32 25.603,30.928 25.603,28.246 C 25.602,25.56 27.8,25 29.075,25 Z M 28.828,31.51 C 30.901,31.51 30.728,28.436 30.728,28.436 S 30.928,25.534 29.004,25.534 C 27.081,25.534 26.882,27.387 26.882,28.582 C 26.878,28.586 26.754,31.511 28.828,31.511 Z M 42,31.305 L 41,32 H 44 L 43,31.33 V 25.595 H 44.152 C 44.3,25.595 45.012,25.767 45.162,26.664 L 46,25 H 39.001 L 39.765,26.739 S 40.01,25.599 40.69,25.599 H 42 V 31.305 Z M 39.001,25 L 38,25.616 V 30.226 C 38,30.72 37.768,32 35.644,32 C 33.52,32 32.707,31.235 32.707,29.461 V 25.616 L 32,25 H 34.7 L 34,25.616 V 29.977 C 34,30.939 34.124,31.507 35.605,31.507 C 37.085,31.507 37.35,30.864 37.35,29.707 V 25.617 L 36.457,25 H 39.001 Z" fill="rgb(254, 254, 253)"/>
<path d="M 19.43,25.807 C 20.703,24.662 25.483,24.514 25.483,26.804 C 25.483,28.112 23.496,28.719 23.496,28.719 S 24.53,31.187 26,32.219 C 26,32.219 24.32,32.746 24.063,33 C 24.063,33 23.807,30.74 22.823,29 C 22.823,29 21.179,28.87 21,29.197 V 31.445 L 22,32 H 19 L 20,31.445 V 29.197 S 19.128,29.17 19,29.247 C 19,29.247 19.26,28.817 19.206,28.692 H 20 V 26.023 C 20.004,26.027 20.062,25.773 19.44,25.823 Z M 21,28.514 S 24.211,28.427 24.211,26.581 C 24.211,24.734 21.439,25.268 21,25.587 V 28.514 Z M 12.683,24.256 C 12.208,24.992 11.158,24.648 9.894,24.208 C 8.631,23.768 4.947,23.717 4.947,27.25 C 4.947,30.782 11.577,28.92 11.577,32.748 C 11.21,35.35 5.632,34.71 5.632,31.473 A 58.315,58.315 0 0,1 4,34.418 C 5.264,33.978 7.05,34.614 8.21,34.91 C 9.368,35.202 13,34.958 13,31.521 C 13,27.741 6.424,29.068 6.424,26.466 C 6.424,24.109 11.158,24.109 11.158,27.054 L 12.683,24.257 Z" fill="rgb(254, 254, 253)"/>
</svg>
