<?xml version="1.0" encoding="UTF-8"?>
<!-- generated by Finnhub -->
<svg viewBox="0 0 55.5 55.5" xmlns="http://www.w3.org/2000/svg">
<path d="M 0,0 H 55.5 V 55.5 H 0 Z" fill="rgb(201, 166, 39)"/>
<path d="M 29.915999999999997,9.527999999999999 A 2.5,2.5 0 0,0 26.074,9.543 L 25.016,10.821 A 1.5,1.5 0 0,1 23.235,11.227 L 21.727,10.535 A 2.5,2.5 0 0,0 18.257,12.206 L 17.857,13.816 A 1.5,1.5 0 0,1 16.429,14.956 L 14.77,14.986 A 2.5,2.5 0 0,0 12.369,17.998 L 12.709,19.622 A 1.5,1.5 0 0,1 11.916,21.268 L 10.434,22.015 A 2.5,2.5 0 0,0 9.577,25.77 L 10.587,27.086 A 1.5,1.5 0 0,1 10.587,28.914 L 9.577,30.23 A 2.5,2.5 0 0,0 10.434,33.985 L 11.916,34.732 A 1.5,1.5 0 0,1 12.708,36.378 L 12.368,38.002 A 2.5,2.5 0 0,0 14.77,41.014 L 16.43,41.044 A 1.5,1.5 0 0,1 17.858,42.184 L 18.256,43.794 A 2.5,2.5 0 0,0 21.726,45.465 L 23.235,44.772 A 1.5,1.5 0 0,1 25.016,45.179 L 26.074,46.457 A 2.5,2.5 0 0,0 29.926,46.457 L 30.984,45.179 A 1.5,1.5 0 0,1 32.765,44.772 L 34.273,45.465 A 2.5,2.5 0 0,0 37.743,43.794 L 38.142,42.184 A 1.5,1.5 0 0,1 39.571,41.044 L 41.23,41.014 A 2.5,2.5 0 0,0 43.631,38.002 L 43.291,36.378 A 1.5,1.5 0 0,1 44.084,34.732 L 45.566,33.985 A 2.5,2.5 0 0,0 46.423,30.23 L 45.413,28.914 A 1.5,1.5 0 0,1 45.413,27.086 L 46.423,25.77 A 2.5,2.5 0 0,0 45.566,22.015 L 44.084,21.268 A 1.5,1.5 0 0,1 43.291,19.622 L 43.631,17.998 A 2.5,2.5 0 0,0 41.23,14.986 L 39.57,14.956 A 1.5,1.5 0 0,1 38.142,13.816 L 37.743,12.206 A 2.5,2.5 0 0,0 34.273,10.535 L 32.765,11.227 A 1.5,1.5 0 0,1 30.984,10.821 L 29.926,9.543 Z M 26.844,10.18 A 1.5,1.5 0 0,1 29.155,10.18 L 30.213,11.459 A 2.5,2.5 0 0,0 33.183,12.136 L 34.691,11.444 A 1.5,1.5 0 0,1 36.773,12.446 L 37.171,14.056 A 2.5,2.5 0 0,0 39.553,15.956 L 41.212,15.986 A 1.5,1.5 0 0,1 42.652,17.793 L 42.312,19.417 A 2.5,2.5 0 0,0 43.634,22.161 L 45.116,22.908 A 1.5,1.5 0 0,1 45.63,25.161 L 44.62,26.477 A 2.5,2.5 0 0,0 44.62,29.523 L 45.63,30.839 A 1.5,1.5 0 0,1 45.116,33.092 L 43.634,33.839 A 2.5,2.5 0 0,0 42.313,36.583 L 42.653,38.207 A 1.5,1.5 0 0,1 41.212,40.014 L 39.552,40.044 A 2.5,2.5 0 0,0 37.172,41.943 L 36.772,43.553 A 1.5,1.5 0 0,1 34.691,44.556 L 33.183,43.864 A 2.5,2.5 0 0,0 30.213,44.542 L 29.155,45.82 A 1.5,1.5 0 0,1 26.845,45.82 L 25.787,44.541 A 2.5,2.5 0 0,0 22.817,43.864 L 21.309,44.556 A 1.5,1.5 0 0,1 19.227,43.554 L 18.829,41.943 A 2.5,2.5 0 0,0 16.447,40.044 L 14.789,40.014 A 1.5,1.5 0 0,1 13.348,38.207 L 13.688,36.583 A 2.5,2.5 0 0,0 12.366,33.839 L 10.884,33.092 A 1.5,1.5 0 0,1 10.37,30.839 L 11.38,29.523 A 2.5,2.5 0 0,0 11.38,26.477 L 10.37,25.161 A 1.5,1.5 0 0,1 10.884,22.908 L 12.366,22.161 A 2.5,2.5 0 0,0 13.687,19.417 L 13.347,17.793 A 1.5,1.5 0 0,1 14.789,15.986 L 16.447,15.956 A 2.5,2.5 0 0,0 18.829,14.056 L 19.227,12.446 A 1.5,1.5 0 0,1 21.309,11.444 L 22.817,12.136 A 2.5,2.5 0 0,0 25.787,11.459 L 26.844,10.18 Z M 25,16.5 A 0.5,0.5 0 0,1 25.5,16 H 30.5 A 0.5,0.5 0 0,1 30.5,17 H 30 V 26 H 39 V 25.5 A 0.5,0.5 0 0,1 40,25.5 V 30.5 A 0.5,0.5 0 0,1 39,30.5 V 30 H 30 V 39 H 30.5 A 0.5,0.5 0 0,1 30.5,40 H 25.5 A 0.5,0.5 0 0,1 25.5,39 H 26 V 30 H 17 V 30.5 A 0.5,0.5 0 0,1 16,30.5 V 25.5 A 0.5,0.5 0 0,1 17,25.5 V 26 H 26 V 17 H 25.5 A 0.5,0.5 0 0,1 25,16.5 Z M 21.5,23 A 1.5,1.5 0 1,0 21.5,20 A 1.5,1.5 0 0,0 21.5,23 Z M 23,34.5 A 1.5,1.5 0 1,1 20,34.5 A 1.5,1.5 0 0,1 23,34.5 Z M 34.5,23 A 1.5,1.5 0 1,0 34.5,20 A 1.5,1.5 0 0,0 34.5,23 Z M 36,34.5 A 1.5,1.5 0 1,1 33,34.5 A 1.5,1.5 0 0,1 36,34.5 Z" fill="rgb(254, 230, 160)"/>
</svg>
