<?xml version="1.0" encoding="UTF-8"?>
<!-- generated by Finnhub -->
<svg viewBox="0 0 55.5 55.5" xmlns="http://www.w3.org/2000/svg">
<path d="M 0,0 H 55.5 V 55.5 H 0 Z" fill="rgb(239, 242, 248)"/>
<path d="M 16.99,21.314999999999998 V 16.95 C 17.2,14.6 19.62,9.93 27.77,10 C 37.97,10.09 39.08,16.34 39,18 V 38.53 C 38.8,40.82 36.55,45.5 29.07,45.96 C 19.73,46.52 17,41.36 17,38.53 V 24.83 C 17,24.46 17.31,24 17.7,24 H 30 V 18 A 2,2 0 0,0 26,18 V 21.33 C 26,21.71 25.45,22 25.06,22 H 17.7 A 0.68,0.68 0 0,1 17,21.33 Z M 31,31.5 C 31,32.9 30.18,34.1 29,34.66 V 38.5 A 1.5,1.5 0 0,1 26,38.5 V 34.66 A 3.5,3.5 0 1,1 31,31.5 Z" fill="rgb(1, 84, 151)" fill-rule="evenodd"/>
</svg>
