<?xml version="1.0" encoding="UTF-8"?>
<!-- generated by Finnhub -->
<svg viewBox="0 0 55.5 55.5" xmlns="http://www.w3.org/2000/svg">
<path d="M 0,0 H 55.5 V 55.5 H 0 Z" fill="rgb(239, 242, 248)"/>
<path d="M 27.95,21.495 C 26.32,19.55 24.03,13.7 27.96,6 C 29.68,9.24 32.1,16.88 27.96,21.51 Z M 26.75,20.89 L 23.99,18.59 C 23.38,16.9 21.5,13.04 18.89,11.09 C 20.15,11.26 23.09,12.16 24.84,14.37 C 24.84,15.57 25.24,18.57 26.74,20.89 Z M 27.03,22.14 C 25.94,22.54 23.18,22.74 20.81,20.26 C 18.43,17.78 16.61,17.3 16,17.36 C 17.21,16.96 20.51,16.85 23.99,19.66 L 27.03,22.14 Z M 29.25,20.89 L 32.01,18.59 C 32.62,16.9 34.5,13.04 37.11,11.09 C 35.85,11.26 32.91,12.16 31.16,14.37 C 31.16,15.57 30.76,18.57 29.26,20.89 Z M 28.97,22.14 C 30.06,22.54 32.82,22.74 35.19,20.26 C 37.57,17.78 39.39,17.3 40,17.36 C 38.79,16.96 35.49,16.85 32.01,19.66 L 28.97,22.14 Z M 23.07,24.61 A 8.6,8.6 0 0,1 27.25,23.01 L 24.5,26.36 L 23.06,24.61 Z M 19.5,28.91 C 20.24,27.41 21.23,26.13 22.39,25.14 L 23.95,27.03 L 20.96,30.67 L 19.5,28.91 Z M 18.05,34.21 C 18.18,32.62 18.55,31.13 19.11,29.78 L 20.41,31.34 L 18.05,34.21 Z M 18,35.6 V 35.65 L 20.87,39.19 L 23.9,35.51 L 20.97,32 L 18,35.62 Z M 19.13,41.3 C 18.6,40.02 18.23,38.6 18.08,37.1 L 20.31,39.87 L 19.13,41.3 Z M 22.32,45.81 A 11.86,11.86 0 0,1 19.53,42.16 L 20.86,40.54 L 23.74,44.11 L 22.32,45.81 Z M 26.84,47.95 C 25.45,47.75 24.14,47.19 22.99,46.35 L 24.29,44.79 L 26.84,47.95 Z M 33,46.4 A 8.65,8.65 0 0,1 29.1,47.98 L 31.67,44.8 L 33,46.4 Z M 36.49,42.24 A 11.8,11.8 0 0,1 33.68,45.87 L 32.21,44.12 L 35.09,40.56 L 36.49,42.24 Z M 37.99,36.98 A 14.79,14.79 0 0,1 36.89,41.38 L 35.64,39.88 L 37.99,36.98 Z M 36.9,29.7 C 37.5,31.1 37.88,32.68 38,34.34 L 35.53,31.34 L 36.9,29.7 Z M 33.6,25.09 A 11.8,11.8 0 0,1 36.5,28.84 L 34.98,30.67 L 32,27.03 L 33.6,25.09 Z M 31.45,26.36 L 32.92,24.56 A 8.56,8.56 0 0,0 28.69,23 L 31.45,26.36 Z M 27.97,23.47 L 25.05,27.03 L 27.97,30.58 L 30.89,27.03 L 27.97,23.47 Z M 31.44,27.7 L 28.52,31.25 L 31.49,34.85 L 34.43,31.33 L 31.44,27.7 Z M 34.98,32 L 32.04,35.52 L 35.08,39.21 L 37.96,35.64 L 34.98,32 Z M 34.53,39.88 L 31.48,36.18 L 28.53,39.72 L 31.65,43.45 L 34.53,39.88 Z M 31.1,44.13 L 27.97,40.39 L 24.85,44.13 L 27.97,48 L 31.1,44.13 Z M 24.3,43.45 L 27.42,39.72 L 24.46,36.18 L 21.41,39.88 L 24.3,43.45 Z M 21.52,31.33 L 24.45,34.85 L 27.42,31.25 L 24.5,27.7 L 21.52,31.33 Z M 27.97,31.92 L 25.01,35.52 L 27.97,39.06 L 30.93,35.51 L 27.97,31.91 Z" fill="rgb(241, 171, 50)"/>
</svg>
