<?xml version="1.0" encoding="UTF-8"?>
<!-- generated by Finnhub -->
<svg viewBox="0 0 55.5 55.5" xmlns="http://www.w3.org/2000/svg">
<path d="M 0,0 H 55.5 V 55.5 H 0 Z" fill="rgb(239, 242, 248)"/>
<path d="M 23.459999999999997,20.955 C 24.13,13.7 31.97,11.53 37.83,13.94 C 39.16,14.49 39.29,18.4 39.45,19.69 C 39.51,20.17 39.37,20.36 38.92,20.49 A 0.46,0.46 0 0,1 38.36,20.22 C 37.01,16.76 35.54,14.19 31.41,14.6 C 27.21,15 25.79,20 28.05,22.98 C 31.3,27.28 38.57,26.62 40.55,32.73 A 9.03,9.03 0 0,1 35.05,43.96 A 0.68,0.68 0 0,1 34.14,43.49 C 34.02,43.09 34.15,42.76 34.51,42.53 A 5.82,5.82 0 0,0 37.34,37.45 C 37.42,33.69 34.79,31.85 31.56,30.78 C 25.2,28.68 10.73,24.76 11,15.73 A 0.15,0.15 0 0,1 11.14,15.59 C 11.16,15.59 11.19,15.59 11.21,15.61 L 23.27,21.09 C 23.39,21.14 23.46,21.1 23.47,20.97 Z" fill="rgb(129, 194, 63)"/>
<path d="M 33.79,33.685 C 35.8,35.26 36.44,38.32 34.46,40.27 A 0.2,0.2 0 0,1 34.27,40.33 A 0.2,0.2 0 0,1 34.12,40.2 A 4.31,4.31 0 0,0 31.57,37.74 C 24.25,34.92 15.97,32.18 12.5,24.34 C 12.26,23.81 12.37,23.71 12.85,24.06 A 46.33,46.33 0 0,0 27.27,31.17 C 29.9,31.97 32.25,32.49 33.8,33.7 Z" fill="rgb(1, 180, 237)"/>
</svg>
