<?xml version="1.0" encoding="UTF-8"?>
<!-- generated by Finnhub -->
<svg viewBox="0 0 55.5 55.5" xmlns="http://www.w3.org/2000/svg">
<path d="M 0,0 H 55.5 V 55.5 H 0 Z" fill="rgb(239, 242, 248)"/>
<path d="M 44.99,27.985 A 17,17 0 1,1 11,28 A 17,17 0 0,1 45,28 Z M 43,28 A 15,15 0 1,1 13,28 A 15,15 0 0,1 43,28 Z M 35,28 A 6.5,6.5 0 0,1 40.45,21.58 A 14,14 0 0,0 15.55,21.58 A 6.5,6.5 0 0,1 15.55,34.42 A 14,14 0 0,0 40.45,34.42 A 6.5,6.5 0 0,1 35,28 Z" fill="rgb(229, 1, 16)" fill-rule="evenodd"/>
</svg>
