<?xml version="1.0" encoding="UTF-8"?>
<!-- generated by Finnhub -->
<svg viewBox="0 0 55.5 55.5" xmlns="http://www.w3.org/2000/svg">
<path d="M 0,0 H 55.5 V 55.5 H 0 Z" fill="rgb(239, 242, 248)"/>
<path d="M 41.99,37.655 C 43.9,34.93 45,31.6 45,28.01 C 45,25.11 44.28,22.39 43,20.01 H 34 V 24.01 H 31 V 20.01 H 27 V 17.01 H 31 V 13.01 H 34 V 17.01 H 40.96 A 17,17 0 1,0 20,43.03 V 38.86 C 17.1,38.03 13,35.35 13,29.2 C 13,23.62 18.32,18.2 20.98,16.17 C 23.61,18.09 28.83,23.27 29,28.93 L 30.79,27 H 33 V 27 H 35 V 29.83 L 37.82,27.01 H 40 V 27 H 42 V 37.67 Z M 40,40.07 V 33.02 A 8.43,8.43 0 0,1 35,37.07 V 43.52 A 17.04,17.04 0 0,0 40,40.07 Z M 33,44.28 V 34.38 A 8.09,8.09 0 0,1 29,37.88 V 45 C 30.38,44.92 31.72,44.67 33,44.28 Z M 27,45 V 35.48 C 25.52,37.41 23.52,38.48 22,38.95 V 43.94 C 23.57,44.54 25.25,44.9 27,45 Z M 35,34.74 V 32.76 L 39.65,27.76 C 39.39,29.88 38.25,33.36 35,34.74 Z M 29,35.42 C 32,33.55 32.72,29.83 32.69,27.7 L 29,31.66 V 35.42 Z M 20,24.04 V 26.96 L 17.07,23.65 A 19.3,19.3 0 0,1 18.11,22.15 L 20,24.03 Z M 20,32.18 V 29.47 L 16.21,25.19 C 15.91,25.82 15.67,26.46 15.49,27.09 L 20,32.2 Z M 22,32.61 L 26.7,27.88 C 26.59,27.25 26.4,26.62 26.17,26 L 22,30.2 V 32.61 Z M 22,34.98 V 36.7 A 7.65,7.65 0 0,0 26.77,30.16 L 22,34.98 Z M 22,19.91 V 22.77 L 23.36,21.41 C 22.91,20.87 22.46,20.36 22,19.91 Z M 22,27.84 V 25.12 L 24.39,22.74 C 24.77,23.28 25.11,23.83 25.42,24.39 L 22,27.84 Z M 20,34.69 L 15.19,29.25 C 15.19,32.19 16.31,34.01 17.59,35.16 C 18.35,35.86 19.22,36.33 20,36.63 V 34.7 Z M 20,21.69 V 19.95 C 19.72,20.23 19.44,20.53 19.16,20.85 L 20,21.69 Z" fill="rgb(1, 152, 68)"/>
</svg>
