<?xml version="1.0" encoding="UTF-8"?>
<!-- generated by Finnhub -->
<svg viewBox="0 0 55.5 55.5" xmlns="http://www.w3.org/2000/svg">
<rect width="56" height="56" fill="rgb(0, 34, 104)"/>
<path d="M 5.2632,24.522 C 5.19606,23.1999 6.5696,22.2885 7.266,22 C 6.816,22.388 5.9128,23.376 5.8999,24.2236 C 5.88705,25.0713 6.89096,25.8403 7.3945,26.1189 C 8.24092,26.5815 9.9466,27.8829 9.9981,29.3872 C 10.0624,31.2676 8.4231,31.969 7.1535,31.9988 C 6.1378,32.0227 5.2946,31.6804 4.9999,31.5063 C 4.9999,30.7184 5.06418,29.9941 5.09632,29.7304 H 5.27312 C 5.27312,30.2677 5.62668,31.6406 7.26592,31.5063 C 8.90516,31.372 9.06592,30.1334 9.04982,29.8498 L 9.04804,29.8159 C 9.03319,29.52 9.00367,28.9322 7.84444,27.9993 C 7.72245,27.9011 7.5998,27.8045 7.47777,27.7083 C 6.39417,26.8544 5.35967,26.0393 5.27307,24.537 Z M 40.6252,24 H 38.348 C 38.289,24 38.2411,24.0479 38.2411,24.107 C 38.2411,24.166 38.289,24.2139 38.348,24.2139 H 38.5821 C 38.855,24.2139 38.9699,24.5657 38.9996,24.7415 V 31.0873 C 39.0114,31.5323 38.7304,31.7005 38.5821,31.7291 H 38.3766 C 38.3017,31.7291 38.2411,31.7897 38.2411,31.8645 S 38.3017,32 38.3766,32 H 40.6693 C 40.7442,32 40.8048,31.9393 40.8048,31.8645 S 40.7442,31.7291 40.6693,31.7291 H 40.4652 C 40.0856,31.6948 39.9996,31.287 39.9996,31.0873 V 24.7415 C 39.9996,24.3993 40.2576,24.2472 40.3911,24.2139 H 40.6252 C 40.6842,24.2139 40.7321,24.166 40.7321,24.107 C 40.7321,24.0479 40.6842,24 40.6252,24 Z M 43.6013,24 H 41.2203 C 41.1613,24 41.1134,24.0479 41.1134,24.107 C 41.1134,24.166 41.1613,24.2139 41.2203,24.2139 H 41.5582 C 41.8311,24.2139 41.9699,24.5657 41.9996,24.7415 V 31.0873 C 42.0115,31.5323 41.7065,31.7005 41.5582,31.7291 H 41.3527 C 41.2778,31.7291 41.2172,31.7897 41.2172,31.8645 S 41.2778,32 41.3527,32 H 45.8707 L 46.071,30.6106 C 46.0798,30.5491 46.0322,30.4941 45.9701,30.4941 C 45.9148,30.4941 45.8688,30.5381 45.8605,30.5927 C 45.8348,30.7604 45.7456,31.1022 45.4366,31.2993 C 44.8443,31.6772 43.6453,31.518 43.6453,31.518 C 43.1078,31.518 42.9996,30.982 42.9996,30.7824 V 24.7415 C 42.9996,24.3993 43.2337,24.2472 43.3672,24.2139 H 43.6013 C 43.6603,24.2139 43.7082,24.166 43.7082,24.107 C 43.7082,24.0479 43.6603,24 43.6013,24 Z M 46.2284,24 H 48.6094 C 48.6685,24 48.7163,24.0479 48.7163,24.107 C 48.7163,24.166 48.6685,24.2139 48.6094,24.2139 H 48.3753 C 48.2419,24.2472 47.9996,24.3993 47.9996,24.7415 V 30.7824 C 47.9996,30.9821 48.1159,31.518 48.6534,31.518 C 48.6534,31.518 49.7774,31.6772 50.3697,31.2993 C 50.6842,31.0987 50.7711,30.7482 50.7949,30.5839 C 50.8021,30.5342 50.8439,30.4941 50.8942,30.4941 C 50.95,30.4941 51.0068,30.5433 50.9996,30.5987 L 50.8038,32 H 46.3608 C 46.286,32 46.2253,31.9394 46.2253,31.8645 C 46.2253,31.7897 46.286,31.7291 46.3608,31.7291 H 46.5663 C 46.7146,31.7005 47.0115,31.5731 46.9996,31.1282 V 24.7415 C 46.9699,24.5657 46.8392,24.2139 46.5663,24.2139 H 46.2284 C 46.1694,24.2139 46.1215,24.166 46.1215,24.107 C 46.1215,24.0479 46.1694,24 46.2284,24 Z M 9.0134,25.1205 L 9.33893,23.8037 C 9.44551,23.8644 9.75168,23.9664 10.1237,24 H 15.0836 C 15.2968,23.9907 15.767,23.9605 15.9995,23.8037 V 25.2337 C 15.9995,25.302 15.9441,25.3574 15.8758,25.3574 S 15.7521,25.302 15.7521,25.2337 V 24.9795 C 15.7376,24.8208 15.4818,24.5036 14.5749,24.5036 H 12.9995 V 30.7042 C 12.9898,31.0215 13.0333,31.6644 13.4518,31.698 H 13.8485 C 13.9319,31.698 13.9995,31.7656 13.9995,31.849 S 13.9319,32 13.8485,32 H 11.1505 C 11.0671,32 10.9995,31.9324 10.9995,31.849 S 11.0671,31.698 11.1505,31.698 H 11.5189 C 11.6982,31.7073 12.0112,31.5216 11.9995,30.7042 V 24.5036 H 10.1237 C 9.88632,24.5036 9.40194,24.6403 9.25937,25.1716 C 9.24378,25.2296 9.19321,25.2734 9.13309,25.2734 C 9.05301,25.2734 8.99418,25.1982 9.0134,25.1205 Z M 14.2522,31.7813 H 14.6515 C 14.8017,31.7861 15.1689,31.619 15.4363,30.9128 L 18.0705,23.7627 C 18.0857,23.7214 18.1251,23.6939 18.1692,23.6939 C 18.2126,23.6939 18.2515,23.7206 18.2673,23.761 L 21.0461,30.9128 C 21.1699,31.1869 21.5673,31.7204 22.2011,31.7765 C 22.2419,31.7801 22.2776,31.8035 22.2964,31.837 C 22.3117,31.7836 22.3609,31.7445 22.4192,31.7445 H 22.6895 C 22.8268,31.7087 23.0222,31.4971 22.9995,30.9378 V 24.8067 C 22.9853,24.605 22.9311,24.2017 22.5331,24.2017 H 22.1003 C 22.0446,24.2017 21.9995,24.1565 21.9995,24.1008 S 22.0446,24 22.1003,24 H 25.3756 C 26.1242,24.0269 27.6212,24.4571 27.6212,25.963 C 27.5975,26.4784 27.3029,27.6733 26.3137,28.3294 L 28.2318,30.9378 C 28.4592,31.1888 29.059,31.7015 29.6389,31.7445 C 29.7715,31.7356 29.9995,31.5079 29.9995,30.6689 V 24.8067 C 29.99,24.6095 29.9061,24.2124 29.4967,24.2017 H 29.1003 C 29.0446,24.2017 28.9995,24.1565 28.9995,24.1008 S 29.0446,24 29.1003,24 H 31.8987 C 31.9544,24 31.9995,24.0451 31.9995,24.1008 S 31.9544,24.2017 31.8987,24.2017 H 31.5007 C 31.3302,24.2062 30.9919,24.3334 31.0033,24.8067 V 27.4947 H 35.9995 V 24.6857 C 35.9853,24.5244 35.8759,24.2017 35.4097,24.2017 H 35.1003 C 35.0446,24.2017 34.9995,24.1565 34.9995,24.1008 S 35.0446,24 35.1003,24 H 37.8987 C 37.9544,24 37.9995,24.0451 37.9995,24.1008 S 37.9544,24.2017 37.8987,24.2017 H 37.3427 C 37.2053,24.2241 36.9768,24.3523 36.9995,24.6857 V 31.1798 C 37.009,31.3681 37.0897,31.7445 37.499,31.7445 H 37.8718 C 37.9423,31.7445 37.9995,31.8017 37.9995,31.8723 C 37.9995,31.9428 37.9423,32 37.8718,32 H 35.1272 C 35.0567,32 34.9995,31.9428 34.9995,31.8723 C 34.9995,31.8017 35.0567,31.7445 35.1272,31.7445 H 35.5945 C 35.7414,31.7266 35.9995,31.5563 35.9995,31.0185 V 28 H 31.0033 V 31.0185 C 31.0128,31.2605 31.1397,31.7445 31.5718,31.7445 H 31.8718 C 31.9423,31.7445 31.9995,31.8017 31.9995,31.8723 C 31.9995,31.9428 31.9423,32 31.8718,32 H 28.7577 C 28.4403,31.9776 27.669,31.7499 27.1232,31.0185 L 25.4751,28.6252 H 23.997 V 31.0185 C 24.0112,31.2605 24.1249,31.7445 24.466,31.7445 H 24.8718 C 24.9423,31.7445 24.9995,31.8017 24.9995,31.8723 C 24.9995,31.9428 24.9423,32 24.8718,32 H 22.4192 C 22.3685,32 22.3247,31.9705 22.3041,31.9276 C 22.2889,31.9698 22.2486,32 22.2011,32 H 20.0869 C 20.1838,31.9098 20.3485,31.6731 20.2322,31.4111 C 20.1739,31.2797 19.7838,30.2417 19.3208,29.0003 H 16.7414 L 16.0321,31.0694 C 15.9546,31.3067 15.8955,31.7813 16.2792,31.7813 H 16.4896 C 16.55,31.7813 16.5989,31.8303 16.5989,31.8907 C 16.5989,31.951 16.55,32 16.4896,32 H 14.2522 C 14.1918,32 14.1428,31.951 14.1428,31.8907 C 14.1428,31.8303 14.1918,31.7813 14.2522,31.7813 Z M 16.9181,28.4848 H 19.1288 C 18.7191,27.3845 18.2817,26.2047 17.9796,25.3883 L 16.9181,28.4848 Z M 23.9995,24.4841 V 27.9933 C 24.9944,28.4236 26.8989,28.316 26.6715,26.1244 C 26.4896,24.3711 24.8144,24.3003 23.9995,24.4841 Z" clip-rule="evenodd" fill="rgb(254, 254, 253)" fill-rule="evenodd"/>
</svg>
