<?xml version="1.0" encoding="UTF-8"?>
<!-- generated by Finnhub -->
<svg viewBox="0 0 55.5 55.5" xmlns="http://www.w3.org/2000/svg">
<path d="M 0,0 H 55.5 V 55.5 H 0 Z" fill="rgb(239, 242, 248)"/>
<path d="M 10.870000000000001,25.445 C 10.63,24.53 10.24,23.54 8.99,23.54 C 7.89,23.54 7.37,24.33 7.37,25.12 C 7.37,26.18 8.06,26.69 9.24,27.29 C 10.39,27.9 11.76,28.54 11.76,30.22 C 11.76,31.74 10.46,33 8.55,33 C 7.94,33 7.47,32.85 7.13,32.78 C 6.73,32.61 6.51,32.53 6.39,32.46 C 6.27,32.16 6.12,30.88 6,30.16 L 6.44,30.04 C 6.64,30.94 7.32,32.41 8.82,32.41 C 9.92,32.41 10.56,31.71 10.56,30.66 C 10.56,29.58 9.77,29.08 8.67,28.49 C 7.74,27.98 6.29,27.26 6.29,25.61 C 6.29,24.21 7.39,23 9.29,23 C 9.95,23 10.56,23.17 11.12,23.34 C 11.17,23.86 11.25,24.45 11.37,25.36 L 10.87,25.46 Z M 12.68,33 V 32.6 C 13.86,32.5 14,32.4 14,31.2 V 24.82 C 14,23.57 13.88,23.49 12.68,23.42 V 23 H 16.74 V 23.42 C 15.56,23.52 15.5,23.62 15.5,24.82 V 31.18 C 15.5,32.43 15.54,32.53 16.74,32.61 V 33 H 12.68 Z M 26.91,28.4 C 26.03,28.53 26,28.6 26,29.46 V 31.08 C 26,31.6 26,32.06 26.1,32.48 C 25.2,32.68 24.02,33 22.84,33 C 19.65,33 17.5,31 17.5,28.1 C 17.5,24.72 20.2,23 23.06,23 C 24.29,23 25.36,23.32 25.86,23.42 L 26.06,25.71 L 25.63,25.81 C 25.29,24.01 24.19,23.51 22.79,23.51 C 20.56,23.51 19,25.24 19,27.93 C 19,30.04 20.2,32.51 22.99,32.51 C 23.48,32.51 23.94,32.41 24.24,32.26 C 24.51,32.09 24.7,31.92 24.7,31.3 V 29.68 C 24.7,28.62 24.42,28.53 23,28.43 V 28 H 26.86 L 26.91,28.4 Z M 36,33 V 32.58 C 37.18,32.46 37,32.14 37,30.58 V 24.38 H 36.93 L 33.63,30 H 33.36 L 30,24.6 H 29.95 L 29.75,29.01 C 29.7,30.21 29.7,31.11 29.7,31.67 C 29.75,32.36 30.04,32.46 31,32.58 V 33 H 27.67 V 32.58 C 28.53,32.48 28.8,32.31 28.92,31.69 C 29.02,31.18 29.12,30.32 29.19,28.76 L 29.39,25.49 C 29.51,23.59 29.29,23.54 28,23.39 V 23 H 30.51 L 33.9,27.83 L 37.05,23 H 39.5 V 23.42 C 38.2,23.54 38.35,23.57 38.43,25.07 L 38.55,30.61 C 38.6,32.16 38.57,32.48 39.82,32.61 V 33 H 36 Z M 44.96,25.33 C 44.5,26.59 44.04,27.68 43.6,28.86 H 46.11 L 44.96,25.33 Z M 46.26,33 V 32.53 C 47.19,32.41 47.31,32.31 47.12,31.74 C 46.92,31.18 46.62,30.39 46.33,29.5 H 43.41 C 43.19,30.14 42.96,30.76 42.77,31.4 C 42.47,32.34 42.57,32.46 43.7,32.58 V 33 H 40.54 V 32.56 C 41.47,32.43 41.67,32.36 42.16,31.06 L 45.17,23.2 L 45.61,23 C 46.51,25.49 47.5,28.57 48.41,31.1 C 48.85,32.36 49.04,32.5 50,32.58 V 33 H 46.26 Z" fill="rgb(93, 147, 62)"/>
<path d="M 27.34,37.065 L 27.13,38 H 24.33 V 37.82 C 24.85,37.77 24.9,37.75 24.9,37.24 V 34.74 C 24.9,34.25 24.85,34.21 24.36,34.16 V 34 H 25.98 V 34.19 C 25.48,34.23 25.44,34.23 25.44,34.76 V 37.24 C 25.44,37.57 25.49,37.66 25.56,37.73 C 25.68,37.8 25.9,37.8 26.17,37.8 C 26.52,37.8 26.74,37.75 26.86,37.61 C 26.98,37.5 27.08,37.31 27.18,37.03 L 27.35,37.08 Z M 27.67,38 V 37.8 C 28.18,37.75 28.23,37.72 28.23,37.21 V 34.74 C 28.23,34.25 28.18,34.21 27.67,34.16 V 34 H 29.31 V 34.19 C 28.8,34.23 28.75,34.25 28.75,34.76 V 37.24 C 28.75,37.72 28.8,37.77 29.31,37.81 V 38 H 27.67 Z M 33.04,35.04 A 1.32,1.32 0 0,0 32.84,34.51 C 32.72,34.37 32.64,34.32 32.15,34.32 H 31.71 V 37.26 C 31.71,37.72 31.76,37.79 32.35,37.81 V 38 H 30.56 V 37.81 C 31.13,37.77 31.17,37.7 31.17,37.26 V 34.32 H 30.78 C 30.27,34.32 30.14,34.37 30.08,34.51 C 30,34.62 29.95,34.76 29.88,35.04 H 29.68 C 29.73,34.69 29.73,34.32 29.75,34 H 29.88 C 29.98,34.12 30.05,34.14 30.22,34.14 H 32.67 C 32.84,34.14 32.87,34.09 32.99,34 H 33.11 C 33.11,34.25 33.16,34.7 33.18,35.04 H 33.04 Z M 37.89,34.19 C 37.38,34.23 37.33,34.25 37.33,34.74 V 37.26 C 37.33,37.75 37.38,37.79 37.89,37.81 V 38 H 36.25 V 37.81 C 36.76,37.77 36.84,37.75 36.84,37.26 V 36 H 34.73 V 37.26 C 34.73,37.75 34.78,37.79 35.29,37.81 V 38 H 33.65 V 37.81 C 34.14,37.77 34.19,37.75 34.19,37.26 V 34.74 C 34.19,34.25 34.14,34.21 33.63,34.19 V 34 H 35.24 V 34.19 C 34.78,34.23 34.73,34.25 34.73,34.74 V 35.78 H 36.83 V 34.74 C 36.83,34.25 36.79,34.24 36.33,34.19 V 34 H 37.94 L 37.89,34.19 Z M 38.44,38 V 37.8 C 38.95,37.75 39,37.72 39,37.21 V 34.74 C 39,34.25 38.95,34.21 38.44,34.16 V 34 H 40.06 V 34.19 C 39.54,34.23 39.51,34.25 39.51,34.76 V 37.24 C 39.51,37.72 39.54,37.77 40.06,37.81 V 38 H 38.44 Z M 44.71,34.2 C 44.34,34.25 44.19,34.32 44.17,34.55 C 44.15,34.72 44.12,35.05 44.12,35.57 V 36.06 C 44.12,36.76 44,37.24 43.66,37.61 C 43.39,37.88 42.94,38 42.56,38 C 42.18,38 41.84,37.9 41.55,37.72 C 41.18,37.47 41,37.02 41,36.34 V 34.8 C 41,34.27 40.96,34.24 40.47,34.2 V 34 H 42.07 V 34.2 C 41.57,34.25 41.55,34.28 41.55,34.8 V 36.2 C 41.55,37.14 41.94,37.68 42.72,37.68 C 43.61,37.68 43.9,36.96 43.9,35.98 V 35.55 C 43.9,35.02 43.88,34.69 43.85,34.51 C 43.8,34.28 43.68,34.21 43.24,34.19 V 34 H 44.71 V 34.2 Z M 48.41,38 V 37.8 C 48.92,37.75 48.92,37.72 48.92,37.1 L 48.9,34.58 H 48.85 L 47.35,37.88 H 47.25 L 45.85,34.67 H 45.83 L 45.73,36.43 C 45.69,36.91 45.69,37.21 45.71,37.45 C 45.73,37.72 45.86,37.77 46.27,37.81 V 38 H 44.83 V 37.81 C 45.2,37.77 45.32,37.7 45.34,37.47 C 45.39,37.28 45.42,36.96 45.47,36.36 L 45.57,35.04 C 45.61,34.28 45.59,34.25 45,34.21 V 34 H 46.03 L 47.43,37.03 L 48.85,34 H 49.9 V 34.19 C 49.34,34.23 49.31,34.23 49.34,34.83 L 49.39,37.08 C 49.41,37.7 49.49,37.72 50,37.77 V 38 H 48.4 Z" fill="rgb(128, 128, 133)"/>
<path d="M 37.93,14.645 C 37.89,14.29 37.67,14 36.94,14 L 30.61,14.05 L 33.28,17.68 A 6.16,6.16 0 0,1 37.94,14.66 Z" fill="rgb(60, 180, 72)"/>
<path d="M 37.71,15.405 C 37.87,15.18 37.96,14.91 37.94,14.64 A 6.2,6.2 0 0,0 33.25,17.64 L 34.75,19.64 C 34.75,19.66 37.35,16.04 37.72,15.42 Z" fill="rgb(120, 194, 111)"/>
<path d="M 32.54,21.985 H 30.54 L 33.82,26.46 L 34.56,25.43 A 7.42,7.42 0 0,1 32.55,22 Z" fill="rgb(138, 197, 61)"/>
<path d="M 35.550000000000004,21.985 H 32.55 C 32.82,23.35 33.55,24.56 34.55,25.44 C 35.16,24.56 36,23.42 36.17,23.15 C 36.44,22.64 36.49,22 35.57,22 Z" fill="rgb(169, 210, 116)"/>
<path d="M 32.93,18.325 L 29.75,14.02 S 26.22,18.92 25.75,19.74 C 25.27,20.52 25.19,21.67 26.79,21.67 C 27.72,21.67 30.41,21.62 32.52,21.62 C 32.47,21.35 32.47,21.08 32.47,20.79 C 32.44,19.93 32.6,19.12 32.94,18.34 Z" fill="rgb(138, 197, 61)"/>
<path d="M 32.93,18.325 A 5.86,5.86 0 0,0 32.47,21.62 L 35.34,21.57 L 32.94,18.34 Z" fill="rgb(168, 209, 104)"/>
</svg>
