<?xml version="1.0" encoding="UTF-8"?>
<!-- generated by Finnhub -->
<svg viewBox="0 0 55.5 55.5" xmlns="http://www.w3.org/2000/svg">
<path d="M 0,0 H 55.5 V 55.5 H 0 Z" fill="rgb(239, 242, 248)"/>
<path d="M 12.86,20.275 L 12.57,20.9 A 2.51,2.51 0 0,1 8.52,21.03 A 2.5,2.5 0 0,1 9.42,17.25 A 2.5,2.5 0 0,1 12.87,20.29 Z" fill="rgb(117, 172, 181)"/>
<path d="M 27.479999999999997,27.025 L 27.19,27.64 A 6.53,6.53 0 0,1 20.35,30.89 A 6.5,6.5 0 0,1 15.29,22.59 C 17.01,17.01 24.75,16.31 27.33,21.63 A 6.5,6.5 0 0,1 27.49,27.03 Z" fill="rgb(117, 182, 164)"/>
<path d="M 12.83,20.195 C 13.51,20.51 14.17,20.83 14.83,21.15 C 15.25,21.35 15.03,21.96 14.51,21.75 C 14.09,21.57 13.43,21.25 12.54,20.81 L 12.84,20.21 Z" fill="rgb(90, 126, 135)"/>
<path d="M 37.99,31.325 L 37.87,32.01 A 4,4 0 0,1 36.63,34.03 L 36.08,34.43 C 33,36.21 29.19,33.53 30.15,29.98 C 30.96,26.96 34.73,25.98 36.89,28.24 A 4.08,4.08 0 0,1 37.99,31.34 Z" fill="rgb(80, 164, 156)"/>
<path d="M 27.63,27.235 C 28.3,27.55 28.94,27.85 29.57,28.17 C 30.1,28.43 29.83,29.02 29.39,28.82 C 28.71,28.52 28.02,28.19 27.34,27.84 L 27.64,27.25 Z" fill="rgb(90, 126, 135)"/>
<path d="M 45.49,34.985 A 2.5,2.5 0 1,0 45.5,30 A 2.5,2.5 0 0,0 45.5,35 Z" fill="rgb(1, 148, 173)"/>
<path d="M 38.260000000000005,31.075 L 41.88,31.69 C 42.46,31.79 42.38,32.44 41.8,32.36 C 40.58,32.17 39.36,31.96 38.15,31.75 L 38.27,31.09 Z M 36.9,33.74 L 38.7,36.14 C 39,36.55 38.44,36.92 38.1,36.47 L 36.35,34.14 L 36.9,33.74 Z" fill="rgb(90, 126, 135)"/>
<path d="M 39.49,39.985 A 1.5,1.5 0 1,0 39.5,37 A 1.5,1.5 0 0,0 39.5,40 Z" fill="rgb(95, 152, 170)"/>
</svg>
