<?xml version="1.0" encoding="UTF-8"?>
<!-- generated by Finnhub -->
<svg viewBox="0 0 55.5 55.5" xmlns="http://www.w3.org/2000/svg">
<path d="M 0,0 H 55.5 V 55.5 H 0 Z" fill="rgb(114, 180, 51)"/>
<path d="M 15.99,37.67 C 16,36.306 17.135,35 18.536,35 H 37.464 C 38.864,35 40,36.306 40,37.685 S 38.882,40 37.481,40 H 18.553 C 17.153,40 16,39.064 16,37.685 Z M 18.536,36 C 17.682,36 16.99,36.844 16.99,37.685 C 16.99,38.525 17.7,39 18.553,39 H 37.481 C 38.335,39 39.011,38.526 39.011,37.685 C 39.011,36.845 38.318,36 37.464,36 H 18.536 Z M 21.246,16.783 C 19.302,17.86 17.987,19.226 17.557,20.42 C 17.206,21.396 17.328,21.948 17.576,22.37 C 17.831,22.803 18.237,23 18.56,23 H 38.037 C 38.36,23 38.767,22.803 39.022,22.37 C 39.269,21.948 39.392,21.396 39.04,20.42 C 38.61,19.226 37.295,17.86 35.351,16.783 C 33.425,15.716 30.95,15 28.3,15 C 25.649,15 23.173,15.716 21.247,16.783 Z M 20.774,15.931 A 15.736,15.736 0 0,1 28.298,14 C 31.126,14 33.763,14.79 35.823,15.931 C 37.866,17.063 39.413,18.581 39.956,20.091 C 40.384,21.278 40.285,22.141 39.861,22.863 C 39.446,23.57 38.732,24 38.037,24 H 18.56 C 17.865,24 17.152,23.57 16.736,22.863 C 16.312,22.142 16.213,21.278 16.641,20.09 C 17.184,18.58 18.731,17.063 20.774,15.931 Z M 38.413,26.43 C 38.055,26.063 37.573,25.569 36.656,25.569 C 35.738,25.569 35.256,26.063 34.898,26.43 L 34.883,26.446 C 34.53,26.808 34.3,27.03 33.808,27.03 S 33.086,26.808 32.733,26.446 L 32.718,26.43 C 32.36,26.063 31.878,25.569 30.962,25.569 C 30.044,25.569 29.562,26.063 29.206,26.43 L 29.19,26.446 C 28.837,26.808 28.608,27.03 28.116,27.03 C 27.624,27.03 27.395,26.808 27.042,26.446 L 27.027,26.431 C 26.669,26.063 26.187,25.568 25.27,25.568 C 24.352,25.568 23.87,26.063 23.513,26.43 L 23.498,26.446 C 23.145,26.808 22.916,27.03 22.423,27.03 C 21.931,27.03 21.702,26.808 21.349,26.446 L 21.334,26.43 C 20.976,26.063 20.494,25.569 19.577,25.569 C 18.659,25.569 18.177,26.063 17.82,26.431 L 17.805,26.446 C 17.452,26.808 17.223,27.03 16.731,27.03 A 0.487,0.487 0 1,0 16.731,28.004 C 17.648,28.004 18.13,27.509 18.487,27.142 L 18.503,27.126 C 18.855,26.764 19.084,26.543 19.577,26.543 C 20.069,26.543 20.298,26.764 20.651,27.126 L 20.667,27.142 C 21.024,27.509 21.506,28.004 22.423,28.004 C 23.341,28.004 23.823,27.509 24.18,27.142 L 24.195,27.126 C 24.548,26.764 24.777,26.543 25.27,26.543 C 25.762,26.543 25.991,26.764 26.344,27.126 L 26.359,27.142 C 26.717,27.509 27.199,28.004 28.116,28.004 C 29.034,28.004 29.516,27.509 29.873,27.142 L 29.888,27.126 C 30.241,26.764 30.47,26.543 30.962,26.543 C 31.453,26.543 31.682,26.764 32.036,27.126 L 32.051,27.142 C 32.408,27.509 32.891,28.004 33.808,28.004 C 34.726,28.004 35.208,27.509 35.565,27.142 L 35.581,27.126 C 35.933,26.764 36.163,26.543 36.656,26.543 C 37.148,26.543 37.378,26.764 37.73,27.126 L 37.746,27.142 C 38.103,27.509 38.585,28.004 39.502,28.004 A 0.487,0.487 0 1,0 39.502,27.03 C 39.01,27.03 38.781,26.808 38.428,26.446 L 38.413,26.431 Z M 38.102,31 H 17.888 A 0.913,0.913 0 0,0 16.974,31.913 C 16.974,32.418 17.384,33 17.887,33 H 38.102 C 38.606,33 39.015,32.418 39.015,31.913 A 0.913,0.913 0 0,0 38.102,31 Z M 17.888,30 C 16.845,30 16,30.87 16,31.913 C 16,32.956 16.845,34 17.887,34 H 38.102 C 39.144,34 39.989,32.956 39.989,31.913 C 39.989,30.871 39.144,30 38.102,30 H 17.888 Z" fill="rgb(254, 254, 253)" fill-rule="evenodd"/>
</svg>
