<?xml version="1.0" encoding="UTF-8"?>
<!-- generated by Finnhub -->
<svg viewBox="0 0 55.5 55.5" xmlns="http://www.w3.org/2000/svg">
<path d="M 0,0 H 55.5 V 55.5 H 0 Z" fill="rgb(239, 242, 248)"/>
<path d="M 6.59,21.985 H 9.66 L 8.11,29.77 C 7.99,30.34 8.51,30.83 9.03,30.63 L 15,28.4 V 30.26 L 7.47,32.9 C 6.11,33.38 4.77,32.11 5.04,30.61 L 6.6,22 Z M 21.98,24.5 L 21.88,25 H 17.2 L 16.83,26.5 H 21.55 L 21.2,28.15 C 17.18,27.68 16.02,29.36 16.02,30.39 C 16.02,31.41 16.67,33 19.86,33 C 22.41,33 23.51,31.57 23.74,30.86 C 24.31,31.13 25.37,31.99 25.82,32.38 L 26.28,29.84 C 25.28,29.21 24.43,28.87 24.13,28.77 L 24.61,26.5 H 26.81 L 27.18,25 H 24.93 L 25.03,24.5 H 27.3 L 27.67,23 H 25.35 L 25.57,22 H 22.5 L 22.3,23 H 17.7 L 17.33,24.5 H 21.98 Z M 19.34,31.34 C 20.17,31.34 20.74,30.26 20.91,29.71 C 19.17,29.43 18.61,30.23 18.56,30.66 C 18.56,30.89 18.69,31.34 19.34,31.34 Z M 33.2,24.5 L 32.78,26.83 A 2.96,2.96 0 0,0 31.02,26.03 C 29.6,25.8 28.32,27.17 27.93,29.06 C 27.54,30.96 28.02,32.65 29.53,32.95 C 30.44,33.14 31.45,32.8 32.19,32.07 C 32.43,32.54 32.92,33 33.83,33 H 36.06 C 36.76,33 38.04,32.64 38.36,31.05 L 38.96,28 H 36.42 L 36.06,30.4 C 35.97,30.62 35.66,31.05 35.1,31.05 C 34.55,31.05 34.55,30.4 34.61,30.08 L 35.74,24.5 H 39.54 L 39.94,23 H 36.04 L 36.23,22.04 H 33.64 L 33.47,23 H 29.15 L 28.75,24.5 H 33.2 Z M 30.73,30.96 C 31.3,31.16 32.01,30.64 32.22,29.7 C 32.43,28.76 32.52,27.8 31.52,27.52 C 30.99,27.37 30.45,28.03 30.24,28.97 C 30.03,29.91 30.16,30.77 30.73,30.97 Z M 36.59,27 L 36.94,25.5 H 39.48 L 39.18,27 H 36.58 Z M 46.38,22 L 46,24 H 50.7 L 51,22 H 46.38 Z M 40.65,27.45 L 41.33,24 H 44.23 C 44.17,24.3 44.01,25.36 43.92,26.08 C 43.82,26.81 44.09,27.06 44.24,27 H 48.98 C 49.78,27 49.89,27.47 49.84,27.79 C 49.62,28.93 49.14,31.36 48.98,31.96 C 48.82,32.56 48.35,32.95 48.14,33 H 39.49 L 40.01,31 H 45.74 C 46.14,31 46.34,30.71 46.39,30.58 L 46.62,29.18 C 46.71,28.6 46.4,28.48 46.24,28.49 H 41.47 A 0.86,0.86 0 0,1 40.65,27.45 Z" fill="rgb(191, 22, 49)" fill-rule="evenodd"/>
</svg>
