<?xml version="1.0" encoding="UTF-8"?>
<!-- generated by Finnhub -->
<svg viewBox="0 0 55.5 55.5" xmlns="http://www.w3.org/2000/svg">
<path d="M 0,0 H 55.5 V 55.5 H 0 Z" fill="rgb(239, 242, 248)"/>
<path d="M 18.950999999999997,20.985 L 13.5,31.833 L 8.002,21 H 6 V 34 H 7.5 V 23.167 L 12.82,33.949 L 12.845,34 H 14.1 L 19.5,23.167 V 34 H 21 V 21 H 18.961 Z M 34.579,29.47 C 33.782,31.283 31.918,32.556 29.745,32.556 C 26.848,32.556 24.499,30.292 24.499,27.5 C 24.499,24.708 26.848,22.444 29.745,22.444 C 31.965,22.444 33.862,23.773 34.629,25.649 L 36,25.062 C 35,22.68 32.576,21 29.745,21 C 26.02,21 23,23.91 23,27.5 S 26.02,34 29.745,34 C 32.556,34 34.965,32.343 35.979,29.988 L 34.579,29.469 Z M 43.003,27 H 49.96 L 49.978,27.15 C 49.993,27.263 50,27.32 50,27.5 A 6.5,6.5 0 1,1 49.438,24.852 L 48.11,25.422 A 5.057,5.057 0 1,0 48.468,28.444 H 43.003 V 27 Z" clip-rule="evenodd" fill-rule="evenodd"/>
</svg>
