<?xml version="1.0" encoding="UTF-8"?>
<!-- generated by Finnhub -->
<svg viewBox="0 0 55.5 55.5" xmlns="http://www.w3.org/2000/svg">
<path d="M 0,0 H 55.5 V 55.5 H 0 Z" fill="rgb(239, 242, 248)"/>
<path d="M 27.49,27.134999999999998 V 9 L 15,24.16 L 18.22,39.7 L 27.5,27.15 Z"/>
<path d="M 27.49,32.005 V 13.3 L 15,28.46 L 18.22,44 L 27.5,32.02 Z" fill="url(#c)"/>
<path d="M 28.49,27.134999999999998 V 9 L 41,24.16 L 37.78,39.7 L 28.5,27.15 Z"/>
<path d="M 28.49,31.835 V 13.3 L 41,28.46 L 37.78,44 L 28.5,31.85 Z" fill="url(#b)"/>
<path d="M 37.99,43.985 H 18 L 28,30.62 L 38,44 Z" fill="url(#a)"/>
<defs>
<linearGradient id="c" x1="15.83" x2="27.26" y1="33.18" y2="33.18" gradientUnits="userSpaceOnUse">
<stop stop-color="rgb(1, 71, 135)" offset="0"/>
<stop stop-color="rgb(96, 126, 183)" offset="1"/>
</linearGradient>
<linearGradient id="b" x1="40.17" x2="28.74" y1="33.18" y2="33.18" gradientUnits="userSpaceOnUse">
<stop stop-color="rgb(1, 71, 135)" offset="0"/>
<stop stop-color="rgb(96, 126, 183)" offset="1"/>
</linearGradient>
<linearGradient id="a" x1="19.77" x2="36.58" y1="43.45" y2="43.45" gradientUnits="userSpaceOnUse">
<stop stop-color="rgb(161, 153, 148)" offset="0"/>
<stop stop-color="rgb(229, 231, 229)" offset=".51"/>
<stop stop-color="rgb(158, 167, 171)" offset="1"/>
</linearGradient>
</defs>
</svg>
