<?xml version="1.0" encoding="UTF-8"?>
<!-- generated by Finnhub -->
<svg viewBox="0 0 55.5 55.5" xmlns="http://www.w3.org/2000/svg">
<path d="M 0,0 H 55.5 V 55.5 H 0 Z" fill="rgb(239, 242, 248)"/>
<path d="M 8.92,28.965 C 8.93,28.18 8.19,27.71 7.48,27.4 C 6.97,27.18 6.7,26.98 6.7,26.75 C 6.7,26.44 7.04,26.25 7.53,26.25 C 8.1,26.25 8.56,26.39 8.83,26.49 L 9.27,25.29 C 8.97,25.14 8.37,25 7.63,25 C 5.96,25 4.79,25.79 4.79,26.98 C 4.79,27.7 5.41,28.18 6.15,28.51 C 6.46,28.64 6.67,28.77 6.8,28.9 C 7.55,29.17 8.23,29.35 8.87,29.46 C 8.91,29.31 8.93,29.15 8.93,28.98 Z M 6.14,29.77 C 5.52,29.77 4.82,29.53 4.46,29.37 L 4,30.55 C 4.38,30.8 5.16,30.99 5.97,31 C 7.02,31.01 7.89,30.74 8.42,30.23 C 7.84,30.13 7.22,29.95 6.55,29.71 C 6.44,29.74 6.3,29.77 6.15,29.77 Z M 10.03,30.4 C 10.5,30.78 11.18,31 12.05,31 C 12.76,31 13.7,30.88 14.45,30.54 L 14.32,29.31 L 13.96,29.45 A 8.22,8.22 0 0,1 10.03,30.4 Z M 12.76,26.23 C 13.2,26.23 13.46,26.43 13.46,26.72 C 13.46,27.25 12.73,27.42 11.26,27.42 C 11.38,26.89 11.89,26.23 12.76,26.23 Z M 11.5,29.43 A 1.16,1.16 0 0,1 11.26,29.23 C 11.13,29.07 11.06,28.81 11.06,28.64 C 13.65,28.7 15.25,28.18 15.25,26.73 C 15.25,25.66 14.32,25 13,25 A 3.64,3.64 0 0,0 9.24,28.57 C 9.24,28.92 9.3,29.25 9.41,29.53 C 10.18,29.6 10.86,29.56 11.5,29.43 Z M 21.82,25.7 L 21.91,25.28 A 8.24,8.24 0 0,0 19.79,25 C 17.39,25 15.97,26.2 15.43,27.61 C 17.19,26.53 19.03,25.46 21.83,25.7 Z M 21.64,26.52 C 20.94,26.47 20.3,26.52 19.71,26.62 L 19.51,27.66 C 19.21,29.06 18.49,29.64 17.93,29.64 C 17.41,29.64 17.15,29.25 17.15,28.69 C 17.15,28.27 17.29,27.79 17.55,27.39 A 27.73,27.73 0 0,0 15.18,28.77 V 29 C 15.18,30.2 15.96,31 17.12,31 C 17.87,31 18.7,30.68 19.32,29.73 H 19.34 C 19.31,30.15 19.27,30.55 19.26,30.87 H 21.01 C 20.98,30.15 21.11,29.02 21.27,28.28 L 21.64,26.52 Z" fill="rgb(26, 49, 127)"/>
<path d="M 26.639999999999997,24.985 C 25.8,25 25,25.35 24.39,26.1 H 24.36 L 24.48,25 H 22.8 L 21.64,31 H 23.54 L 24.07,28.4 C 24.35,27.1 25.06,26.4 25.67,26.4 C 26.17,26.4 26.33,26.68 26.33,27.1 C 26.33,27.32 26.3,27.54 26.26,27.75 L 25.58,31 H 27.48 L 28.2,27.6 C 28.25,27.3 28.3,26.88 28.3,26.6 C 28.31,25.59 27.7,25 26.65,25 Z M 32.14,26.24 C 32.58,26.24 32.84,26.44 32.84,26.72 C 32.84,27.25 32.09,27.42 30.62,27.42 C 30.75,26.89 31.25,26.24 32.14,26.24 Z M 34.61,26.73 C 34.61,25.66 33.68,25 32.37,25 A 3.64,3.64 0 0,0 28.61,28.57 C 28.61,30.07 29.56,31 31.41,31 C 32.12,31 33.05,30.88 33.81,30.54 L 33.68,29.32 A 4.5,4.5 0 0,1 31.88,29.68 C 31.32,29.68 30.88,29.53 30.64,29.23 C 30.5,29.07 30.44,28.81 30.44,28.65 C 33.02,28.71 34.61,28.18 34.61,26.73 Z M 39.02,26.7 L 39.39,25 H 39.04 C 38.15,25 37.44,25.55 36.99,26.34 H 36.94 C 36.99,25.92 37.04,25.4 37.05,25 H 35.41 L 34.34,31 H 36.26 L 36.71,28.82 C 36.95,27.67 37.53,26.7 38.72,26.7 H 39.02 Z M 43.07,28.02 C 42.87,29.01 42.25,29.64 41.63,29.64 C 41.05,29.64 40.75,29.21 40.75,28.61 C 40.75,27.51 41.57,26.33 42.72,26.33 C 42.99,26.33 43.26,26.37 43.41,26.44 L 43.07,28.02 Z M 43.07,25 C 40.26,25 38.73,26.93 38.74,28.87 C 38.75,30.03 39.54,30.98 40.82,30.98 C 41.58,30.98 42.16,30.71 42.66,30.11 H 42.69 L 42.59,30.61 C 42.31,31.79 41.55,32.62 40.61,32.62 C 40.06,32.62 39.28,32.49 38.91,32.3 L 38.47,33.62 C 38.92,33.85 39.7,34 40.58,34 C 41.44,34 42.38,33.84 43.08,33.33 C 43.84,32.77 44.26,31.36 44.49,30.27 L 45.47,25.41 C 44.77,25.16 43.97,25 43.07,25 Z M 50,25 L 48.82,27.72 L 48.25,29.16 H 48.22 L 48.02,27.69 L 47.62,25.01 H 45.62 L 46.89,30.6 C 46.92,30.73 46.92,30.8 46.86,30.9 A 3.4,3.4 0 0,1 45.8,31.96 C 45.43,32.22 45.02,32.36 44.71,32.46 L 45.13,34 A 4.4,4.4 0 0,0 47.2,32.95 C 48.06,32.18 48.83,31.06 49.69,29.43 L 52,25 H 50 Z" fill="rgb(125, 133, 143)"/>
</svg>
