<?xml version="1.0" encoding="UTF-8"?>
<!-- generated by Finnhub -->
<svg viewBox="0 0 55.5 55.5" xmlns="http://www.w3.org/2000/svg">
<path d="M 0,0 H 55.5 V 55.5 H 0 Z" fill="url(#a)"/>
<path d="M 28.639999999999997,17.985 H 27.37 S 26,17.03 26,15 C 26,12.37 28,11 28,11 S 30,12.44 30,15 C 30,17.1 28.65,18 28.65,18 Z M 27.35,38 H 28.63 S 30,38.97 30,41 C 30,43.63 28,45 28,45 S 26,43.56 26,41 C 26,38.9 27.35,38 27.35,38 Z M 18,28.63 V 27.35 S 17.1,26 15,26 C 12.44,26 11,28 11,28 S 12.37,30 15,30 C 17.03,30 18,28.63 18,28.63 Z M 38,28.65 V 27.37 S 38.97,26 41,26 C 43.63,26 45,28 45,28 S 43.56,30 41,30 C 38.9,30 38,28.65 38,28.65 Z M 23.54,36.97 L 22.44,36.34 S 20.82,36.44 19.77,38.25 C 18.49,40.48 19.5,42.72 19.5,42.72 S 21.92,42.53 23.23,40.25 C 24.25,38.5 23.54,36.97 23.54,36.97 Z M 33.56,19.67 L 32.46,19.03 S 31.76,17.5 32.76,15.75 C 34.08,13.47 36.5,13.28 36.5,13.28 S 37.51,15.52 36.23,17.75 A 3.63,3.63 0 0,1 33.56,19.66 Z M 19.66,33.54 L 19.02,32.44 S 17.56,31.72 15.75,32.77 C 13.52,34.05 13.28,36.5 13.28,36.5 S 15.47,37.55 17.75,36.23 C 19.5,35.22 19.65,33.54 19.65,33.54 Z M 36.98,23.56 L 36.35,22.46 S 36.5,20.78 38.25,19.77 C 40.53,18.45 42.72,19.5 42.72,19.5 S 42.48,21.95 40.25,23.23 C 38.45,24.28 36.98,23.56 36.98,23.56 Z M 22.46,19.66 L 23.56,19.02 S 24.28,17.56 23.23,15.75 C 21.95,13.52 19.5,13.28 19.5,13.28 S 18.45,15.47 19.77,17.75 C 20.78,19.5 22.46,19.65 22.46,19.65 Z M 32.44,36.98 L 33.54,36.35 S 35.22,36.5 36.23,38.25 C 37.55,40.53 36.5,42.72 36.5,42.72 S 34.05,42.48 32.77,40.25 C 31.72,38.45 32.44,36.98 32.44,36.98 Z M 19.03,23.54 L 19.66,22.44 S 19.56,20.82 17.75,19.77 C 15.52,18.49 13.28,19.5 13.28,19.5 S 13.47,21.92 15.75,23.23 C 17.5,24.25 19.03,23.54 19.03,23.54 Z M 36.33,33.56 L 36.97,32.46 S 38.5,31.76 40.25,32.76 C 42.53,34.08 42.72,36.5 42.72,36.5 S 40.48,37.51 38.25,36.23 C 36.45,35.18 36.34,33.56 36.34,33.56 Z M 30,23.53 L 29.54,24 H 26.47 L 26,23.53 L 26.01,20.71 L 26.47,20.13 A 9.73,9.73 0 0,1 29.54,20.13 L 30,20.71 V 23.53 Z M 30,32.47 L 29.54,32 H 26.47 L 26,32.47 V 35.39 L 26.47,35.86 C 26.87,35.92 27.57,36 28,36 C 28.42,36 29.13,35.92 29.54,35.86 L 30,35.38 V 32.48 Z M 29.54,30 H 26.47 L 26,29.53 V 26.46 L 26.47,26 H 29.54 L 30,26.46 V 29.53 L 29.54,30 Z M 32.45,24 H 34 L 34.57,23.43 A 8.05,8.05 0 0,0 32.57,21.43 L 32,22 V 23.53 L 32.45,24 Z M 23.55,24 H 22 L 21.43,23.43 A 8.05,8.05 0 0,1 23.43,21.43 L 24,22 V 23.53 L 23.55,24 Z M 34,32 H 32.45 L 32,32.47 V 34 L 32.57,34.57 A 8.05,8.05 0 0,0 34.57,32.57 L 34,32 Z M 23.55,32 H 22 L 21.43,32.57 A 8.05,8.05 0 0,0 23.43,34.57 L 24,34 V 32.47 L 23.55,32 Z M 23.53,30 L 24,29.54 V 26.47 L 23.53,26 H 20.6 L 20.13,26.47 C 20.07,26.87 19.99,27.57 19.99,28 C 19.99,28.42 20.07,29.13 20.13,29.54 L 20.61,30 H 23.51 Z M 32.47,30 L 32,29.54 V 26.47 L 32.47,26 L 35.28,26.01 L 35.87,26.47 A 9.73,9.73 0 0,1 35.87,29.54 L 35.28,30 H 32.47 Z" fill="rgb(44, 209, 82)"/>
<defs>
<linearGradient id="a" x1="10.42" x2="68.15" y1="9.71" y2="76.02" gradientUnits="userSpaceOnUse">
<stop stop-color="rgb(25, 29, 31)" offset="0"/>
<stop stop-color="rgb(5, 5, 8)" offset="1"/>
</linearGradient>
</defs>
</svg>
