<svg width="60" height="60" viewBox="0 0 60 60" fill="none" xmlns="http://www.w3.org/2000/svg">
<rect width="60" height="60" fill="black"/>
<g clip-path="url(#clip0_150_671)">
<path d="M41.6558 18.4973C41.6342 18.3031 41.4618 18.2168 41.3324 18.1952C41.2031 18.1736 38.6163 18.1521 38.6163 18.1521C38.6163 18.1521 36.4391 16.0372 36.2235 15.8214C36.008 15.6056 35.5984 15.6704 35.4259 15.7135C35.4259 15.7135 35.0164 15.843 34.3266 16.0588C34.2188 15.692 34.0463 15.2388 33.8092 14.7856C33.0332 13.2966 31.9122 12.5197 30.5326 12.5197C30.4464 12.5197 30.3386 12.5197 30.2524 12.5413C30.2093 12.4982 30.1661 12.455 30.123 12.3903C29.5195 11.7429 28.765 11.4407 27.8596 11.4623C26.092 11.5055 24.3459 12.7787 22.9016 15.0662C21.8885 16.6631 21.134 18.67 20.9184 20.2237C18.8921 20.8495 17.4694 21.2811 17.4478 21.3027C16.4347 21.6264 16.3915 21.648 16.2622 22.6191C16.1544 23.3312 13.4814 44.0694 13.4814 44.0694L35.9217 47.9538L45.6437 45.5369C45.6437 45.5369 41.6773 18.67 41.6558 18.4973ZM33.2056 16.4041C32.6883 16.5552 32.1062 16.7494 31.4595 16.9436C31.438 16.0588 31.3302 14.8072 30.9206 13.7282C32.2787 13.9872 32.9254 15.4977 33.2056 16.4041ZM30.2955 17.3105C29.1099 17.6773 27.838 18.0657 26.5447 18.4758C26.9111 17.0947 27.6009 15.7135 28.4416 14.8072C28.765 14.4619 29.1961 14.0951 29.7135 13.8793C30.2093 14.8935 30.2955 16.3394 30.2955 17.3105ZM27.8812 12.6492C28.2907 12.6492 28.6356 12.7355 28.9374 12.9297C28.4632 13.1671 27.9889 13.534 27.5578 14.0087C26.4369 15.2172 25.5746 17.0731 25.2297 18.8858C24.1519 19.2095 23.1172 19.5332 22.1471 19.8353C22.7938 16.9868 25.165 12.7355 27.8812 12.6492Z" fill="#95BF47"/>
<path d="M41.3324 18.1952C41.2031 18.1736 38.6163 18.1521 38.6163 18.1521C38.6163 18.1521 36.4391 16.0372 36.2235 15.8214C36.1373 15.7351 36.0295 15.692 35.9217 15.692V47.9538L45.6437 45.5369C45.6437 45.5369 41.6773 18.6916 41.6558 18.4973C41.6127 18.3031 41.4618 18.2168 41.3324 18.1952Z" fill="#5E8E3E"/>
<path d="M30.5326 23.2018L29.4117 27.4314C29.4117 27.4314 28.1614 26.8488 26.6524 26.9567C24.4537 27.0861 24.4321 28.4673 24.4537 28.8341C24.583 30.7331 29.541 31.1432 29.8212 35.567C30.0368 39.063 27.9674 41.4367 24.9926 41.631C21.4142 41.8468 19.4526 39.7535 19.4526 39.7535L20.207 36.5381C20.207 36.5381 22.1902 38.0271 23.7639 37.9408C24.7986 37.8761 25.165 37.0345 25.1219 36.4302C24.971 33.9701 20.9184 34.0996 20.6597 30.0642C20.4442 26.6546 22.686 23.2018 27.6225 22.8781C29.5626 22.7054 30.5326 23.2018 30.5326 23.2018Z" fill="white"/>
</g>
<defs>
<clipPath id="clip0_150_671">
<rect width="33" height="37" fill="white" transform="translate(13 11)"/>
</clipPath>
</defs>
</svg>
