<?xml version="1.0" encoding="UTF-8"?>
<!-- generated by Finnhub -->
<svg viewBox="0 0 55.5 55.5" xmlns="http://www.w3.org/2000/svg">
<path d="M 0,0 H 55.5 V 55.5 H 0 Z" fill="rgb(239, 242, 248)"/>
<path d="M 38.09,34.985 A 13.49,13.49 0 0,0 27.5,13.17 A 13.49,13.49 0 0,0 16.9,35 H 38.1 Z" fill="url(#b)"/>
<path d="M 14.15,34.855 A 15.69,15.69 0 0,1 27.54,10.97 A 15.69,15.69 0 0,1 40.91,34.87 H 40.46 C 41.99,32.5 42.87,29.67 42.87,26.65 C 42.87,18.2 36,11.35 27.53,11.35 A 15.31,15.31 0 0,0 14.61,34.87 H 14.16 Z" fill="rgb(230, 230, 229)"/>
<path d="M 15.290000000000001,34.855 A 14.74,14.74 0 0,1 27.54,11.93 A 14.74,14.74 0 0,1 39.78,34.87 H 39.08 A 14.17,14.17 0 0,0 27.53,12.5 A 14.17,14.17 0 0,0 16,34.88 H 15.3 Z" fill="rgb(225, 225, 224)"/>
<rect x="19.71" y="32" width="2.81" height="1" rx=".5" fill="rgb(1, 119, 181)"/>
<rect x="30.9" y="32" width="5.1" height="1" rx=".5" fill="rgb(1, 119, 181)"/>
<rect x="36.8" y="34" width="3.78" height="1" rx=".5" fill="rgb(1, 119, 181)"/>
<rect x="31" y="34" width="5" height="1" rx=".5" fill="rgb(1, 119, 181)"/>
<rect x="43.69" y="36" width="1.53" height="1" rx=".5" fill="rgb(1, 119, 181)"/>
<rect x="10.63" y="36" width="2.38" height="1" rx=".5" fill="rgb(1, 119, 181)"/>
<rect x="31" y="36" width="11.96" height="1" rx=".5" fill="rgb(1, 119, 181)"/>
<rect x="14.63" y="36" width="11.96" height="1" rx=".5" fill="rgb(1, 119, 181)"/>
<rect x="15" y="34" width="10" height="1" rx=".5" fill="rgb(1, 119, 181)"/>
<path d="M 28.41,36.685 C 18.64,36.56 11.4,39.03 9,40.29 C 17.36,39.31 22.75,40.1 24.4,40.62 A 6.6,6.6 0 0,0 22.65,41.18 C 21.82,41.56 22.5,41.94 22.94,42.08 C 27.37,43.01 33.56,43.07 36.1,42.98 C 35.93,42.82 32,41.94 30.05,41.51 C 31.48,41.28 36.82,41.79 39.31,42.08 C 39.69,42.15 40.49,42.2 40.64,41.81 C 40.79,41.41 40.14,41.05 39.79,40.92 C 36,39.78 27.14,39 23.17,38.73 C 30.61,38.23 41.15,40.23 43.37,40.52 C 45.57,40.82 46.75,40.77 46.97,40.02 C 47.15,39.41 46.42,38.91 46.03,38.73 C 44.23,38.13 38.2,36.86 28.43,36.71 Z" fill="rgb(1, 119, 181)"/>
<path d="M 23.939999999999998,37.005 L 24.58,19.24 A 1.6,1.6 0 0,1 23.53,18.36 V 16.51 L 24.41,16.09 V 15.81 C 23.86,15.51 23.29,14.78 25.43,14.18 V 13.47 H 25 V 12.78 H 25.44 C 25.51,12.23 25.92,11.08 27.01,10.91 C 27.02,10.73 27.14,10.35 27.5,10.28 V 9 H 27.66 V 37.02 H 23.96 Z M 27.65,37.02 H 31.55 L 30.89,19.24 C 31.16,19.18 31.77,18.92 31.99,18.36 V 16.51 L 31.07,16.09 V 15.81 C 31.65,15.51 32.27,14.78 30,14.18 V 13.47 H 30.46 V 12.78 H 29.99 C 29.91,12.23 29.49,11.08 28.34,10.91 C 28.32,10.73 28.2,10.35 27.82,10.28 V 9 H 27.65 V 37.02 Z" fill="rgb(1, 119, 181)"/>
<path d="M 27.5,12.745 L 27.74,11.23 L 28.01,12.76 H 27.51 Z M 26.01,12.76 C 26.01,12.48 26.12,11.86 26.51,11.69 C 26.48,11.84 26.41,12.27 26.38,12.76 H 26 Z M 29.49,12.76 C 29.49,12.48 29.37,11.86 28.97,11.69 C 29.01,11.84 29.09,12.27 29.11,12.76 H 29.49 Z M 27.27,11.71 C 26.87,11.88 26.77,12.49 26.76,12.78 H 27.13 C 27.16,12.28 27.23,11.86 27.27,11.71 Z M 28.75,12.76 C 28.75,12.48 28.63,11.86 28.24,11.69 C 28.27,11.84 28.35,12.27 28.38,12.76 H 28.75 Z M 27,13.14 H 26 V 13.99 H 27 V 13.14 Z M 28.43,13.14 H 29.43 V 13.99 H 28.43 V 13.14 Z M 28.01,13.14 H 27.51 V 13.99 H 28.01 V 13.14 Z M 27.49,15.91 H 28.18 V 16.76 H 27.49 V 15.91 Z M 24.82,15.83 C 24.78,15.49 25.32,14.79 27.72,14.75 C 30.68,14.71 30.76,15.68 30.78,15.83 A 8.97,8.97 0 0,0 24.82,15.83 Z M 24,17.7 L 24.31,16.35 L 23.66,16.77 L 24,17.7 Z M 31.19,16.35 L 31.5,17.7 L 31.83,16.77 L 31.19,16.35 Z M 24.74,17.5 V 16.2 L 24.31,17.73 L 24.74,17.5 Z M 30.76,16.2 V 17.5 L 31.19,17.73 L 30.76,16.2 Z M 25.56,16.38 L 26.24,16.08 V 16.78 L 25.56,17.11 V 16.38 Z M 29.3,16.08 L 29.99,16.38 V 17.11 L 29.3,16.78 V 16.08 Z" fill="rgb(239, 242, 248)"/>
<path d="M 26.939999999999998,23.395 C 28.97,20.87 30.5,21.8 31.01,22.57 L 31.55,37.09 H 23.95 L 24.19,29.96 C 24.29,28.85 24.93,25.96 26.95,23.41 Z" fill="url(#a)"/>
<path d="M 26.99,25.985 H 28 V 29 H 27 Z" fill="rgb(239, 242, 248)"/>
<defs>
<linearGradient id="b" x1="27.55" x2="27.55" y1="13.82" y2="40.02" gradientUnits="userSpaceOnUse">
<stop stop-color="rgb(136, 138, 149)" offset="0"/>
<stop stop-color="rgb(236, 227, 219)" offset="1"/>
</linearGradient>
<linearGradient id="a" x1="23.94" x2="31.58" y1="29.42" y2="32.26" gradientUnits="userSpaceOnUse">
<stop stop-color="rgb(1, 170, 208)" offset="0"/>
<stop stop-color="rgb(1, 121, 183)" offset="1"/>
</linearGradient>
</defs>
</svg>
