<?xml version="1.0" encoding="UTF-8"?>
<!-- generated by Finnhub -->
<svg viewBox="0 0 55.5 55.5" xmlns="http://www.w3.org/2000/svg">
<path d="M 0,0 H 55.5 V 55.5 H 0 Z" fill="rgb(239, 242, 248)"/>
<path d="M 11.99,15.205 A 3.22,3.22 0 0,1 15.22,12 H 40.78 A 3.22,3.22 0 0,1 44,15.22 V 40.78 A 3.22,3.22 0 0,1 40.78,44 H 15.22 A 3.22,3.22 0 0,1 12,40.78 V 15.22 Z" fill="rgb(1, 129, 204)"/>
<path d="M 13.99,16.805 A 2.82,2.82 0 0,1 16.82,14 H 39.18 A 2.82,2.82 0 0,1 42,16.82 V 39.18 A 2.82,2.82 0 0,1 39.18,42 H 16.82 A 2.82,2.82 0 0,1 14,39.18 V 16.82 Z" fill="url(#a)"/>
<path d="M 23.75,28.985 H 21 C 21,28.52 20.4,28 19.56,28 C 18.5,28 18,28.4 18,28.87 C 18,29.35 18.24,29.47 20.4,30.07 S 24,31.97 24,33.65 C 24,35.33 23.5,37 19.08,37 C 16.01,37 15.08,34.53 15,33.3 H 17.76 C 17.76,34.49 18.6,35 19.44,35 C 20.5,35 21,34.6 21,34.01 C 21,33.41 20.16,33.05 19.08,32.81 C 17.16,32.21 15,31.38 15,29.11 C 15,26.84 17.4,26 19.44,26 C 22.99,26 23.8,27.92 23.76,29 Z M 28,26 H 25 V 37 H 28 V 33 H 31.13 A 2.47,2.47 0 0,0 33.58,30.5 V 28.51 C 33.58,27.13 32.48,26.01 31.13,26.01 H 28 V 26 Z M 28,31 V 28 H 29.86 C 30.49,28 31,28.48 31,29.07 V 29.93 C 31,30.52 30.49,31 29.86,31 H 28 Z M 35,26 H 38 V 30 H 41 V 26 H 44 V 37 H 41 V 33 H 38 V 37 H 35 V 26 Z" fill="rgb(239, 242, 248)"/>
<defs>
<linearGradient id="a" x1="14.51" x2="40.2" y1="14.51" y2="40.97" gradientUnits="userSpaceOnUse">
<stop stop-color="rgb(105, 197, 240)" offset="0"/>
<stop stop-color="rgb(1, 129, 204)" offset=".59"/>
</linearGradient>
</defs>
</svg>
