<?xml version="1.0" encoding="UTF-8"?>
<!-- generated by Finnhub -->
<svg viewBox="0 0 55.5 55.5" xmlns="http://www.w3.org/2000/svg">
<path d="M 0,0 H 55.5 V 55.5 H 0 Z" fill="rgb(239, 242, 248)"/>
<path d="M 28.33,20.985 L 28.1,10 L 27.86,21 A 8,8 0 0,0 20,28.76 L 9.1,29 L 20,29.24 A 8,8 0 0,0 27.86,37 L 28.1,48 L 28.34,37 A 8,8 0 0,0 36,29.23 L 47.1,29 L 36,28.76 A 8,8 0 0,0 28.34,21 Z M 27.85,21.35 A 7.65,7.65 0 0,0 20.35,28.75 L 27.69,28.6 L 27.85,21.35 Z M 20.35,29.25 A 7.65,7.65 0 0,0 27.85,36.65 L 27.69,29.4 L 20.35,29.24 Z M 28.35,36.65 A 7.65,7.65 0 0,0 35.65,29.25 L 28.5,29.4 L 28.34,36.64 Z M 35.65,28.75 L 28.5,28.6 L 28.34,21.36 A 7.65,7.65 0 0,1 35.65,28.76 Z" fill="rgb(199, 199, 198)" fill-rule="evenodd"/>
<path d="M 7.71,26.985 H 8 V 25.12 H 7.72 L 7.53,25.46 C 7.39,25.31 6.9,25 6.11,25 C 5.12,25 4.19,25.66 4.19,26.66 C 4.19,27.66 5.09,28.03 5.98,28.3 C 6.87,28.56 7.53,28.89 7.53,29.64 C 7.53,30.39 6.99,30.64 6.18,30.64 C 5.36,30.64 4.43,29.74 4.43,28.89 H 4 V 31 H 4.43 V 30.72 C 4.46,30.63 4.61,30.5 4.89,30.72 C 5.01,30.82 5.44,31 6.18,31 C 7.1,31 8.4,30.62 8.4,29.22 C 8.4,28.07 7.33,27.75 6.66,27.55 A 3.79,3.79 0 0,1 6.09,27.35 C 5.6,27.15 5.03,26.93 5.03,26.3 C 5.03,25.57 5.74,25.37 6.18,25.37 C 6.61,25.37 7.72,25.64 7.72,27 Z M 9,25 V 26.74 H 9.3 C 9.37,26.3 9.65,25.42 10.2,25.42 H 11.11 V 30.16 C 11.11,30.44 10.87,30.66 10.58,30.66 H 10.04 V 31 H 13.1 V 30.66 H 12.55 C 12.25,30.66 12,30.44 12,30.16 V 25.42 H 12.93 C 13.68,25.42 13.93,26.3 13.94,26.74 H 14.32 V 25 H 9 Z M 14.25,31 H 16.72 V 30.73 H 16.27 C 15.9,30.73 15.64,30.38 15.77,30.06 L 16.06,29.38 H 18.65 L 18.95,30.04 C 19.09,30.37 18.84,30.73 18.45,30.73 H 18.25 V 31 H 20.84 C 20.84,30.85 20.72,30.73 20.57,30.7 A 0.97,0.97 0 0,1 19.92,30.15 L 17.7,25 H 17.36 L 15.29,30.09 C 15.13,30.48 14.74,30.73 14.29,30.73 H 14.25 V 31 Z M 18.48,29 L 17.3,26.38 L 16.2,29 H 18.47 Z M 21.15,25.39 V 25 H 24.41 C 25.29,25 26.01,25.65 26.06,26.47 C 26.06,27.31 25.28,27.92 24.53,28.17 L 26.33,30.29 C 26.53,30.52 26.83,30.66 27.17,30.66 H 27.32 V 31 H 25.58 L 23.51,28.27 H 23 V 30.22 C 23,30.49 23.16,30.72 23.45,30.72 H 23.8 V 31 H 21.15 V 30.7 H 21.45 C 21.75,30.7 22,30.48 22,30.2 V 25.9 C 22,25.62 21.74,25.4 21.45,25.4 H 21.15 Z M 23.67,25.36 H 23 V 28.01 H 23.67 C 24.4,28.01 25,27.41 25,26.69 C 25,25.96 24.4,25.36 23.67,25.36 Z M 40.2,25 V 25.39 H 40.5 C 40.8,25.39 41,25.61 41,25.89 V 30.21 C 41,30.48 40.8,30.71 40.5,30.71 H 40.2 V 31 H 42.85 V 30.7 H 42.5 C 42.2,30.7 42,30.48 42,30.2 V 28.26 H 42.56 L 44.63,31 H 46.37 V 30.66 H 46.22 A 1.1,1.1 0 0,1 45.38,30.29 L 43.58,28.16 C 44.3,27.92 45,27.31 45,26.47 A 1.5,1.5 0 0,0 43.46,25 H 40.2 Z M 42,25.36 H 42.67 A 1.33,1.33 0 1,1 42.67,28.01 H 42 V 25.36 Z M 32.35,27.15 H 32.77 V 25.1 H 32.35 V 25.6 C 32.2,25.4 31.62,25 30.48,25 A 2.97,2.97 0 0,0 27.5,28.07 C 27.5,30.07 28.98,31 30.67,31 C 32.01,31 32.78,29.92 33,29.38 L 32.71,29.26 C 32.52,29.69 31.86,30.55 30.74,30.55 C 29.34,30.55 28.55,29.19 28.55,27.88 C 28.55,26.57 29.34,25.34 30.62,25.34 C 31.9,25.34 32.35,26.54 32.35,27.14 Z M 37,31 A 3,3 0 1,0 37,25 A 3,3 0 0,0 37,31 Z M 37,30.65 C 38.07,30.65 38.94,29.47 38.94,28 S 38.07,25.35 37,25.35 C 35.93,25.35 35.06,26.53 35.06,28 S 35.93,30.65 37,30.65 Z M 46.67,25 V 25.37 H 47.02 C 47.32,25.37 47.5,25.59 47.5,25.87 V 30.16 C 47.5,30.43 47.31,30.66 47.02,30.66 H 46.67 V 31 H 51.87 L 52,29.26 H 51.76 L 50.84,30.66 H 49 A 0.5,0.5 0 0,1 48.49,30.16 V 28 H 49.43 C 49.87,28 50.23,28.37 50.23,28.79 V 29.12 H 50.58 V 26.78 H 50.23 V 27.02 C 50.23,27.44 49.87,27.78 49.43,27.78 H 48.49 V 25.37 H 50.09 C 50.82,25.37 51.15,26.14 51.22,26.53 H 51.56 V 25 H 46.66 Z" fill="rgb(140, 8, 3)" fill-rule="evenodd"/>
</svg>
