<?xml version="1.0" encoding="UTF-8"?>
<!-- generated by Finnhub -->
<svg viewBox="0 0 55.5 55.5" xmlns="http://www.w3.org/2000/svg">
<path d="M 0,0 H 55.5 V 55.5 H 0 Z" fill="rgb(239, 242, 248)"/>
<path d="M 31.869999999999997,28.685 H 30.06 C 30.62,30.14 31,31.68 31,33.27 C 31,35.28 29.05,36.48 28,36.83 C 28,36.87 28,36.95 28.12,37 C 31.77,37 32.97,34.26 32.97,31.94 C 32.97,30.98 32.47,29.88 31.87,28.69 Z" fill="rgb(127, 189, 2)"/>
<path d="M 7.51,31.985 C 5.29,32 4.09,31.05 4,29.48 H 5.76 C 5.82,30.38 6.49,30.77 7.53,30.77 C 8.53,30.77 9,30.4 9,29.71 C 9,29.21 8.75,28.92 7.6,28.63 L 6.98,28.47 C 5.04,27.97 4,27.34 4,26.27 C 4,24.9 5.44,24 7.5,24 C 9.64,24 10.75,24.86 10.83,26.38 H 9 C 8.95,25.64 8.43,25.23 7.5,25.23 C 6.52,25.23 6,25.63 6,26.15 C 6,26.65 6.23,26.95 7.44,27.26 L 8.07,27.42 C 10.07,27.92 11,28.52 11,29.62 C 11,31.1 9.67,32 7.52,32 Z M 12,24 H 14 V 32 H 12 V 24 Z M 17,28 V 29 H 15 V 28 H 17 Z M 31.03,32 C 28.13,32 27,29.91 27,28.07 V 27.96 C 27,26.13 28.13,24 31.03,24 C 33.93,24 35,26.13 35,27.96 V 28.06 C 35,29.91 33.94,32 31.03,32 Z M 31.03,30.7 C 32.71,30.7 33,29.25 33,28.07 V 27.95 C 33,26.79 32.71,25.3 31.03,25.31 C 29.3,25.31 29,26.79 29,27.95 V 28.07 C 29,29.25 29.3,30.68 31.03,30.69 Z M 22.86,32 H 18 V 24 H 22.63 C 24.63,24 25.72,24.74 25.72,26.11 C 25.72,26.99 25.07,27.61 24.34,27.86 V 27.9 C 25.23,28.18 26,28.86 26,29.8 C 26,31.18 24.83,32 22.86,32 Z M 22.42,25.36 H 20 V 27.29 H 22.42 C 23.22,27.29 23.73,26.93 23.73,26.29 C 23.73,25.69 23.27,25.36 22.42,25.36 Z M 22.64,28.57 H 20 V 30.64 H 22.68 C 23.48,30.64 24,30.27 24,29.64 S 23.39,28.57 22.64,28.57 Z"/>
<path d="M 32.99,19.185 C 32.02,19.63 30,21.05 30,23.27 C 30,25.05 30.92,26.77 31.7,28.34 L 31.88,28.69 H 30.06 L 29.84,28.13 C 29.29,26.73 28.5,25.4 28.5,24.2 C 28.5,21.63 30.47,20.02 32.91,19 C 32.98,19.05 33,19.15 33,19.2 Z" fill="rgb(127, 188, 2)"/>
<path d="M 38.02,26.544999999999998 H 38 V 32 H 36 V 24 H 38.17 L 41.96,29.42 H 42 V 24 H 44 V 32 H 41.82 L 38.03,26.56 Z M 47,30.64 H 52 V 32 H 45 V 24 H 52 V 25.36 H 47 V 27.29 H 51 V 28.65 H 47 V 30.64 Z"/>
</svg>
