<?xml version="1.0" encoding="UTF-8"?>
<!-- generated by Finnhub -->
<svg viewBox="0 0 55.5 55.5" xmlns="http://www.w3.org/2000/svg">
<path d="M 0,0 H 55.5 V 55.5 H 0 Z" fill="rgb(83, 101, 116)"/>
<path d="M 12.57,22.985 C 13.86,22.96 15.58,23.55 16.28,23.85 L 15.36,26.21 C 13.26,24.65 11.17,25.44 11.12,26.21 C 11.07,26.99 11.45,27.66 13.14,28.16 S 16.94,29.7 17,32.21 C 17.05,34.73 14.42,36.02 12.07,36 A 9.11,9.11 0 0,1 8,34.98 L 9.13,32.64 C 10.94,34.01 13.97,33.96 14,32.46 C 14.02,31.26 12.37,30.52 11.6,30.3 C 10.4,29.92 7.98,28.6 8,26.41 C 8.03,23.67 10.97,23.05 12.58,23.01 Z M 20,23 H 18 V 25.56 H 20 V 36 H 23 V 23 H 20 Z M 46,18 H 50 V 22 H 46 Z M 27,25.43 V 36 H 30 V 25.43 H 32.97 C 33.7,25.43 34.04,25.88 34.11,26.1 L 37.26,34.29 C 38.3,36.62 36.39,37.38 35.32,37.46 H 34 V 40 H 35.97 A 4.22,4.22 0 0,0 39.7,37.17 L 45,23 H 39 V 25.43 H 41.19 L 39.09,31.38 L 36.2,24.11 A 1.6,1.6 0 0,0 34.8,23 H 30 C 30.14,19.98 32.48,20.14 33.54,20.59 L 34.34,18.45 C 29.07,16.63 27.12,20.72 27,23 H 25 V 25.43 H 27 Z" fill="rgb(188, 213, 44)"/>
</svg>
