<?xml version="1.0" encoding="UTF-8"?>
<!-- generated by Finnhub -->
<svg viewBox="0 0 55.5 55.5" xmlns="http://www.w3.org/2000/svg">
<path d="M 0,0 H 55.5 V 55.5 H 0 Z" fill="rgb(239, 242, 248)"/>
<path d="M 27.139999999999997,18.925 C 26.95,18.83 26.75,18.68 26.56,18.5 L 26.55,18.48 L 23,15 L 26.2,18.87 A 3.2,3.2 0 0,1 26.62,19.53 A 3.45,3.45 0 0,1 26.19,23.13 L 23,27 L 26.55,23.52 L 26.56,23.5 C 26.75,23.32 26.94,23.17 27.16,23.06 A 2.71,2.71 0 0,1 30.44,23.5 L 30.45,23.52 L 34,27 L 30.8,23.13 L 30.79,23.11 A 3.45,3.45 0 0,1 30.81,18.87 L 34,15 L 30.45,18.48 L 30.44,18.5 C 30.25,18.68 30.06,18.83 29.84,18.94 C 29.01,19.42 27.99,19.42 27.15,18.94 Z M 27.55,19.96 C 27.72,20.64 27.72,21.36 27.55,22.04 A 3.37,3.37 0 0,1 29.45,22.04 A 4.35,4.35 0 0,1 29.45,19.96 C 28.83,20.15 28.17,20.15 27.55,19.96 Z" fill="rgb(32, 147, 201)" fill-rule="evenodd"/>
<path d="M 23.009999999999998,19.615 C 22.87,19.55 22.72,19.45 22.59,19.33 H 22.58 L 20,17 L 22.32,19.58 L 22.34,19.59 A 2.12,2.12 0 0,1 22.34,22.41 L 22.32,22.42 L 20,25 L 22.58,22.68 L 22.59,22.66 A 2.12,2.12 0 0,1 25.41,22.66 L 25.42,22.68 L 28,25 L 25.68,22.42 L 25.66,22.41 A 2.12,2.12 0 0,1 25.66,19.59 L 25.68,19.58 L 28,17 L 25.42,19.32 L 25.41,19.34 A 2.12,2.12 0 0,1 23.01,19.63 Z M 23.31,20.31 C 23.43,20.76 23.43,21.24 23.31,21.69 C 23.76,21.57 24.24,21.57 24.69,21.69 A 2.66,2.66 0 0,1 24.69,20.31 C 24.24,20.43 23.76,20.43 23.31,20.31 Z M 32.02,19.63 C 31.87,19.55 31.72,19.45 31.59,19.33 H 31.58 L 29,17 L 31.32,19.58 L 31.34,19.59 A 2.12,2.12 0 0,1 31.34,22.41 L 31.32,22.42 L 29,25 L 31.58,22.68 L 31.59,22.66 A 2.12,2.12 0 0,1 34.41,22.66 L 34.42,22.68 L 37,25 L 34.68,22.42 L 34.66,22.41 A 2.12,2.12 0 0,1 34.66,19.59 L 34.68,19.58 L 37,17 L 34.42,19.32 L 34.41,19.34 A 2.12,2.12 0 0,1 32.01,19.63 Z M 32.31,20.31 C 32.43,20.76 32.43,21.24 32.31,21.69 C 32.76,21.57 33.24,21.57 33.69,21.69 A 2.66,2.66 0 0,1 33.69,20.31 C 33.24,20.43 32.76,20.43 32.31,20.31 Z" fill="rgb(249, 172, 28)" fill-rule="evenodd"/>
<path d="M 7.29,29.335 A 1.22,1.22 0 0,0 6.2,28.73 C 5.53,28.73 5,29.15 5,29.85 C 5,31.49 8,30.99 8,33.05 C 8,34.25 6.99,35 5.87,35 C 5.14,35 4.39,34.72 4,34.08 L 4.62,33.52 C 4.88,34.02 5.38,34.27 5.91,34.27 C 6.57,34.27 7,33.81 7,33.11 C 7,32 4,31.93 4,29.91 C 4,28.65 5.18,28 6.2,28 C 6.89,28 7.45,28.2 7.9,28.78 L 7.3,29.35 Z M 9,28.5 A 0.5,0.5 0 0,1 9.5,28 C 9.64,28 9.76,28.05 9.85,28.15 C 9.95,28.25 10,28.37 10,28.5 C 10,28.65 9.95,28.77 9.86,28.86 C 9.76,28.96 9.65,29 9.5,29 A 0.49,0.49 0 0,1 9.14,28.86 A 0.49,0.49 0 0,1 9,28.5 Z M 10,30 H 9 V 35 H 10 V 30 Z M 11,28 H 12 V 35 H 11 V 28 Z" fill="rgb(32, 147, 201)"/>
<path d="M 15.49,29.985 A 2.46,2.46 0 0,0 13,32.5 C 13,33.89 14.09,35 15.5,35 C 16.89,35 18,33.92 18,32.5 S 16.92,30 15.5,30 Z M 15.5,31 C 14.6,31 14,31.7 14,32.5 C 14,33.32 14.6,34 15.5,34 C 16.4,34 17,33.31 17,32.5 C 17,31.7 16.39,31 15.5,31 Z" fill="rgb(32, 147, 201)" fill-rule="evenodd"/>
<path d="M 18.99,27.985 H 21.47 C 22.84,28 24,28.62 24,30.13 C 24,31.63 22.93,32.31 21.54,32.31 H 20.5 V 35 H 19 V 28 Z M 20.5,31 H 21.44 C 21.98,31 22.48,30.73 22.48,30.13 C 22.48,29.43 21.77,29.31 21.22,29.31 H 20.5 V 31 Z M 26.5,28 L 26.52,30.72 C 26.74,30.19 27.57,30 28.08,30 C 29.44,30 30,30.85 30,32.13 V 35 H 28.5 V 32.4 C 28.5,31.82 28.27,31.22 27.56,31.22 S 26.5,31.72 26.5,32.37 V 35 H 25 V 28 H 26.5 Z M 33.5,34.28 H 33.48 C 33.2,34.78 33.01,35 32.48,35 C 31.65,35 31,34.38 31,33.53 C 31,32.04 32.31,32 33.5,32 C 33.5,31.54 33.47,31 33,31 C 32.58,31 32.23,31.2 31.95,31.57 L 31.27,30.77 A 2.5,2.5 0 0,1 33.1,30 C 34.58,30 35,31.2 35,32.46 V 35 H 33.5 V 34.28 Z M 33.18,32.79 C 32.71,32.79 32.23,32.85 32.23,33.48 C 32.23,33.81 32.53,34 32.84,34 C 33.34,34 33.5,33.65 33.5,33.1 V 32.8 H 33.18 Z M 50.5,34.28 H 50.48 C 50.2,34.78 50.01,35 49.48,35 C 48.65,35 48,34.38 48,33.53 C 48,32.04 49.31,32 50.5,32 C 50.5,31.54 50.47,31 50,31 C 49.58,31 49.23,31.2 48.95,31.57 L 48.27,30.77 A 2.5,2.5 0 0,1 50.1,30 C 51.58,30 52,31.2 52,32.46 V 35 H 50.5 V 34.28 Z M 50.18,32.79 C 49.71,32.79 49.23,32.85 49.23,33.48 C 49.23,33.81 49.53,34 49.84,34 C 50.34,34 50.5,33.65 50.5,33.1 V 32.8 H 50.18 Z M 36,30 H 37.5 V 30.9 C 37.65,30.9 37.98,30 38.56,30 C 38.71,30 38.87,30.01 39,30.05 V 31.43 A 1.6,1.6 0 0,0 37.84,31.45 C 37.63,31.56 37.5,32.44 37.5,32.96 V 35 H 36 V 30 Z M 40,30 H 41.45 L 41.46,30.78 C 41.69,30.29 42.11,30 42.64,30 C 43.27,30 43.77,30.28 44.01,30.87 C 44.33,30.24 44.76,30 45.42,30 C 46.62,30 47.5,31.09 47.5,32.12 V 35 H 46 V 32.16 C 46,31.76 45.68,31.33 45.22,31.33 C 44.59,31.33 44.5,31.87 44.5,32.42 V 35 H 43 V 32.42 C 43,31.99 42.77,31.32 42.2,31.32 C 41.5,31.32 41.5,32 41.5,32.57 V 35 H 40 V 30 Z" fill="rgb(249, 172, 28)"/>
</svg>
