<?xml version="1.0" encoding="UTF-8"?>
<!-- generated by Finnhub -->
<svg viewBox="0 0 55.5 55.5" xmlns="http://www.w3.org/2000/svg">
<path d="M 0,0 H 55.5 V 55.5 H 0 Z" fill="rgb(239, 242, 248)"/>
<path d="M 39.6,32.985 C 38.65,33.3 35.73,33.9 31.71,33.9 C 28.86,33.9 25.03,33.62 23.47,33.48 C 27.24,34.28 35.73,35.29 39.61,33 Z M 47.81,35.41 C 45.55,35.47 40.61,35.59 38.82,35.59 C 37.04,35.59 27.27,34.25 22.61,33.59 L 20.71,33.72 C 24.7,34.48 34,36 39.25,36 C 44.49,36 47.14,35.6 47.81,35.41 Z" fill="rgb(86, 170, 171)"/>
<path d="M 16.49,32.985 C 12.96,33 11.36,33.53 11,33.8 A 21.7,21.7 0 0,1 14.99,33.38 C 21.64,33.38 32.57,35.62 39.72,35.62 C 45.44,35.62 48.96,34.06 50,33.28 C 49.17,33.69 46.07,34.52 40.26,34.52 C 32.06,34.52 20.92,33 16.5,33 Z M 46.64,31 C 45.12,31 44,30.2 44,28.62 C 44,27.02 45.12,26 46.64,26 H 49 C 49,24.9 48.42,24.63 47.25,24.63 C 46.56,24.63 45.85,24.83 45.12,25.29 L 44.52,23.91 A 5.2,5.2 0 0,1 47.5,23 C 49.76,23 51,24.04 51,26.17 V 31 H 49 V 29.76 C 48.46,30.61 47.84,31 46.64,31 Z M 47.27,29.45 C 48.25,29.45 48.83,28.28 49,27.5 H 47.27 C 46.41,27.5 46,27.93 46,28.5 C 46,29.07 46.41,29.45 47.27,29.45 Z M 42,31 H 40 V 26.43 C 40,25.35 39.55,24.83 38.68,24.83 C 37.65,24.83 37,25.6 37,26.95 V 31 H 35 V 23 H 37 V 24.42 C 37.49,23.57 38.13,23 39.35,23 C 40.95,23 42,24 42,26.13 V 31 Z M 33,31 H 31 V 26.43 C 31,25.35 30.55,24.83 29.68,24.83 C 28.65,24.83 28,25.6 28,26.95 V 31 H 26 V 23 H 28 V 24.42 C 28.49,23.57 29.13,23 30.35,23 C 31.95,23 33,24 33,26.13 V 31 Z M 20,31 C 17.5,31 16,29.45 16,27 S 17.5,23 20,23 S 24,24.55 24,27 S 22.5,31 20,31 Z M 20,29.2 C 21.22,29.2 22,28.4 22,27 C 22,25.6 21.22,24.8 20,24.8 C 18.76,24.8 18,25.6 18,27 C 18,28.4 18.76,29.2 20,29.2 Z M 14,31 H 12 V 23 H 14 V 31 Z M 6.9,31 A 4.73,4.73 0 0,1 4,30 L 4.6,28.62 C 5.54,29.2 6.33,29.5 6.93,29.5 C 7.73,29.5 8,29.14 8,28.65 C 8,28.25 7.88,28.03 7.23,27.9 L 6.27,27.7 C 4.89,27.42 4.22,26.74 4.22,25.6 C 4.22,24.2 5.12,23 7.09,23 C 8.09,23 9.02,23.33 9.78,23.88 L 9.17,25.25 C 8.57,24.85 7.79,24.5 7.17,24.5 C 6.49,24.5 6,24.83 6,25.32 C 6,25.62 6.31,25.86 6.91,25.97 L 7.88,26.17 C 9.24,26.44 10,27.17 10,28.4 C 10,29.9 8.93,31 6.9,31 Z" fill="rgb(1, 60, 89)"/>
</svg>
