<?xml version="1.0" encoding="UTF-8"?>
<!-- generated by Finnhub -->
<svg viewBox="0 0 55.5 55.5" xmlns="http://www.w3.org/2000/svg">
<path d="M 0,0 H 55.5 V 55.5 H 0 Z" fill="rgb(23, 26, 28)"/>
<path d="M 21.99,24.555 C 22,21.47 22.19,19.57 22.28,19 C 22.28,19.94 22.74,21.36 23.67,22.58 C 26.26,25.42 27,26.36 27,27.5 C 27,28.63 25.43,29.01 24.22,29.01 C 24.96,28.26 22.28,25.14 22,24.58 Z M 46,22.4 V 26.62 C 45.53,26.74 44.36,27 43.38,27 C 41.07,22.1 35.31,21.39 32.73,21.64 L 31.7,20.11 C 30.49,20.11 28.9,21.07 28.15,21.64 A 1.2,1.2 0 0,0 27.68,22.98 C 27.12,22.41 26,21.03 26,20.11 C 26,18.28 29.8,16.61 31.7,16 L 33.2,17.82 A 6.14,6.14 0 0,1 34.97,17.43 C 39.76,17.43 42.57,21.13 43.38,22.98 L 46,22.41 Z" fill="rgb(254, 254, 253)"/>
<path d="M 9.99,32.505 V 28 C 11.44,30.93 14.74,37 24.1,37 C 34.03,37 36.84,32.5 37,29.98 V 29.57 V 34.78 C 37,35.48 35.16,40 24.32,40 C 15.66,40 11.16,35.01 10,32.52 Z" fill="rgb(254, 254, 253)"/>
<path d="M 15.99,30.314999999999998 V 26.29 C 18.64,29.41 21.28,30.61 24.86,30.61 S 30.32,28.5 30.32,27.31 C 30.32,26.11 29.85,25.28 29.85,24 C 32.87,26.94 34,28.86 34,29.87 S 32.87,31.61 32.2,32.17 C 32.77,30.8 31.57,29.79 30.9,29.24 L 30.89,29.23 C 30.99,30.97 30.61,34 24.86,34 C 20.26,34 17.04,31.55 16,30.33 Z" fill="rgb(254, 254, 253)"/>
</svg>
