<?xml version="1.0" encoding="UTF-8"?>
<!-- generated by Finnhub -->
<svg viewBox="0 0 55.5 55.5" xmlns="http://www.w3.org/2000/svg">
<path d="M 0,0 H 55.5 V 55.5 H 0 Z" fill="rgb(239, 242, 248)"/>
<path d="M 51.99,27.425 C 52,18.6 10.56,19 5,19 C 13.22,19.7 26.52,20.93 35.63,23.88 C 39.56,25.15 46,29.1 46,32.5 C 46,34.3 44.13,35.1 43,36 C 49.12,33.4 52,29.55 52,27.43 Z" fill="rgb(39, 131, 57)"/>
<path d="M 6.99,19.985 C 13.9,20.48 26.55,21.88 33.81,24.13 C 40.96,26.33 44,29.53 44,32.4 C 44,33.5 42.37,35 42.37,35 S 42.37,34 38.51,34 C 37.02,34 34.78,35 33.06,35 C 26.69,35 14.82,25.34 7,20 Z" fill="rgb(108, 171, 51)"/>
<path d="M 30.49,31.985 L 31.43,26.99 H 32.3 L 31.43,32 H 30.5 Z M 12.87,27 H 12.09 L 11.97,27.67 H 12.75 L 12.87,27 Z M 11.22,32 L 11.92,28 H 12.69 L 12,32 H 11.22 Z M 18.71,28 C 19.25,28 19.69,28.15 20.04,28.46 C 20.38,28.77 20.55,29.18 20.55,29.68 C 20.55,29.84 20.53,30 20.5,30.13 L 17.55,30.11 L 17.53,30.29 C 17.53,30.59 17.63,30.81 17.83,30.99 C 18.03,31.16 18.28,31.25 18.59,31.25 C 18.82,31.25 19.02,31.2 19.19,31.11 C 19.37,31.01 19.5,30.89 19.59,30.73 H 20.49 C 20.37,31.13 20.14,31.44 19.79,31.66 C 19.45,31.88 19.04,31.99 18.56,31.99 C 18,31.99 17.54,31.82 17.18,31.49 C 16.82,31.15 16.64,30.69 16.64,30.12 C 16.64,29.5 16.84,28.99 17.22,28.59 C 17.62,28.19 18.11,27.99 18.71,27.99 Z M 19.66,29.5 A 0.83,0.83 0 0,0 19.36,28.93 A 1,1 0 0,0 18.7,28.73 C 18.44,28.73 18.21,28.79 18.03,28.93 A 0.98,0.98 0 0,0 17.66,29.5 H 19.66 Z M 25.27,29.01 C 25.09,29.33 25,29.69 25,30.09 C 25,30.66 25.18,31.12 25.53,31.47 C 25.89,31.82 26.35,32 26.92,32 C 27.21,32 27.48,31.95 27.74,31.85 A 1.94,1.94 0 0,0 28.84,30.77 C 28.94,30.5 29,30.23 29,29.93 C 29,29.35 28.82,28.89 28.47,28.53 A 1.86,1.86 0 0,0 27.09,28 C 26.69,28 26.34,28.09 26.02,28.27 C 25.7,28.45 25.45,28.69 25.27,29.01 Z M 27.84,29.11 C 28.03,29.31 28.12,29.57 28.12,29.91 C 28.12,30.29 28.01,30.6 27.78,30.84 C 27.56,31.09 27.27,31.21 26.92,31.21 A 0.99,0.99 0 0,1 26.16,30.91 C 25.96,30.71 25.87,30.43 25.87,30.1 C 25.87,29.72 25.98,29.42 26.21,29.17 C 26.43,28.93 26.72,28.8 27.08,28.8 C 27.4,28.8 27.65,28.9 27.84,29.1 Z M 29.31,31.31 L 29.14,32 H 29.48 C 29.48,32.17 29.31,32.35 29,32.35 V 32.7 C 29.47,32.7 30,32.4 30,31.3 H 29.3 Z M 40.08,32 L 40.24,31.28 H 41 L 40.86,31.99 H 40.08 Z M 20.84,30.08 C 20.84,28.93 21.76,28 22.91,28 C 23.69,28 24.55,28.46 24.66,29.34 H 23.8 C 23.7,28.98 23.24,28.8 22.93,28.8 C 22.24,28.8 21.71,29.4 21.71,30.07 C 21.71,30.68 22.05,31.2 22.71,31.2 C 23.09,31.2 23.48,31.02 23.61,30.66 H 24.51 C 24.41,31.1 24.26,31.36 23.93,31.61 A 1.9,1.9 0 0,1 22.71,32 C 21.59,32 20.84,31.2 20.84,30.08 Z M 38.24,28 C 37.1,28 36.19,28.91 36.19,30.07 C 36.19,31.18 36.92,32 38.05,32 C 38.54,32 38.95,31.87 39.26,31.61 C 39.6,31.35 39.76,31.1 39.84,30.66 H 38.94 C 38.81,31.02 38.42,31.2 38.04,31.2 C 37.39,31.2 37.04,30.68 37.04,30.07 C 37.04,29.39 37.58,28.8 38.26,28.8 C 38.58,28.8 39.04,28.98 39.14,29.34 H 40 C 39.89,28.46 39.02,28 38.25,28 Z M 14.04,28.36 L 14.11,28 H 13.29 L 12.6,32 H 13.42 L 13.82,29.7 C 13.87,29.27 14.14,28.77 14.73,28.77 C 15.33,28.77 15.58,29.22 15.5,29.7 L 15.1,32 H 15.93 L 16.32,29.7 C 16.51,28.75 15.87,28 14.98,28 C 14.79,28 14.37,28.05 14.05,28.36 Z M 33.52,28 L 33.45,28.37 C 33.77,28.06 34.19,28 34.37,28 C 35.27,28 35.91,28.76 35.72,29.71 L 35.32,32.01 H 34.49 L 34.91,29.71 C 34.98,29.23 34.73,28.78 34.14,28.78 C 33.54,28.78 33.28,29.28 33.22,29.71 L 32.83,32.01 H 32.01 L 32.69,28.01 H 33.52 Z M 8.75,28.35 L 8.98,27 H 8.13 L 7.31,32 H 8.13 L 8.53,29.7 C 8.58,29.27 8.93,28.77 9.52,28.77 S 10.32,29.22 10.24,29.7 L 9.83,32 H 10.65 L 11.05,29.7 C 11.24,28.75 10.58,28 9.69,28 C 9.5,28 9.06,28.04 8.75,28.35 Z M 4,30.35 V 30.42 C 4,30.74 4.07,31.02 4.22,31.26 C 4.36,31.5 4.55,31.69 4.8,31.81 C 5.04,31.94 5.32,32.01 5.63,32.01 C 6.08,32.01 6.44,31.87 6.72,31.61 C 7,31.34 7.13,31 7.13,30.57 C 7.13,30.27 7.06,30.01 6.93,29.79 A 1.4,1.4 0 0,0 6.36,29.29 L 5.71,28.98 A 2.9,2.9 0 0,1 5.51,28.86 A 0.91,0.91 0 0,1 5.36,28.75 A 0.42,0.42 0 0,1 5.25,28.58 A 0.86,0.86 0 0,1 5.21,28.35 C 5.21,28.16 5.27,28.01 5.39,27.9 C 5.51,27.78 5.69,27.73 5.89,27.73 C 6.13,27.73 6.32,27.79 6.47,27.93 A 0.7,0.7 0 0,1 6.69,28.47 C 6.69,28.56 6.69,28.63 6.67,28.69 H 7.44 L 7.45,28.42 C 7.45,28.02 7.31,27.67 7.03,27.4 C 6.75,27.13 6.38,27 5.93,27 C 5.47,27 5.11,27.13 4.83,27.4 C 4.56,27.65 4.43,28 4.43,28.41 A 1.3,1.3 0 0,0 4.75,29.31 C 4.8,29.38 4.86,29.43 4.93,29.48 A 2,2 0 0,0 5.34,29.71 L 5.88,29.99 C 6.04,30.07 6.16,30.15 6.23,30.24 C 6.31,30.34 6.35,30.46 6.35,30.64 A 0.6,0.6 0 0,1 6.15,31.1 A 0.74,0.74 0 0,1 5.64,31.27 A 0.9,0.9 0 0,1 5,31.04 A 0.78,0.78 0 0,1 4.76,30.44 L 4.77,30.29 H 4 V 30.36 Z"/>
</svg>
