<?xml version="1.0" encoding="UTF-8"?>
<!-- generated by Finnhub -->
<svg viewBox="0 0 55.5 55.5" xmlns="http://www.w3.org/2000/svg">
<path d="M 0,0 H 55.5 V 55.5 H 0 Z" fill="rgb(118, 161, 45)"/>
<path d="M 11.99,31.985 L 28,10 L 44,32 L 37,44 H 20 L 12,32 Z" fill="rgb(254, 254, 253)"/>
<path d="M 16.99,31.985 L 22,40 H 25.479 C 25.584,37.88 25.791,33.543 25.781,33.152 C 25.771,32.761 25.438,32.791 25.273,32.855 C 24.743,33.176 23.599,33.861 23.265,34.025 C 22.932,34.191 22.724,34.095 22.661,34.025 C 22.46,33.75 22.025,33.13 21.897,32.855 C 21.77,32.579 21.844,32.382 21.897,32.318 L 27,25 H 29 L 30.411,40 H 34 L 39,32 L 28,17 L 17,32 Z" fill="rgb(118, 161, 45)"/>
</svg>
