<?xml version="1.0" encoding="UTF-8"?>
<!-- generated by Finnhub -->
<svg viewBox="0 0 55.5 55.5" xmlns="http://www.w3.org/2000/svg">
<path d="M 0,0 H 55.5 V 55.5 H 0 Z" fill="rgb(239, 242, 248)"/>
<path d="M 20.419999999999998,38.105 C 19.74,38.12 19.4,37.25 19.34,37.22 L 15.12,36.35 C 15.54,37.48 16.87,39.75 18.76,39.75 C 24.55,39.75 35.35,26.42 40.02,19.76 C 37.82,14.95 34.42,12.58 32.98,12 C 26.44,31.16 21.12,38.12 20.43,38.12 Z" fill="url(#h)"/>
<path d="M 20.259999999999998,37.085 L 15.08,35.84 C 14.05,34.83 13.49,32.79 13.35,31.89 L 18.7,35.15 C 18.92,35.88 19.83,36.75 20.27,37.1 Z" fill="url(#g)"/>
<path d="M 20.799999999999997,35.535 L 12.34,30.52 C 11.92,28.73 11.98,25.38 12.06,23.92 L 18.91,32.37 C 18.76,33.7 20.11,35.04 20.81,35.55 Z" fill="url(#f)"/>
<path d="M 22.369999999999997,34.415 C 19.31,29.1 16.64,20.68 15.68,17.14 C 13.72,20.8 13.41,23.63 13.5,24.59 L 21.7,35.28 L 22.38,34.43 Z" fill="url(#e)"/>
<path d="M 30.29,32.565 L 29.25,33.88 C 29.34,33.77 36.63,29.81 41.73,26.25 C 41.86,23.98 41.12,21.25 40.73,20.15 A 91.42,91.42 0 0,1 30.3,31.9 V 32.59 Z" fill="url(#d)"/>
<path d="M 43.99,25.745 L 30.5,33.78 C 30.15,35.09 29.15,35.44 28.7,35.45 C 33.9,35.58 40.16,34.03 42.63,33.24 C 43.75,31.51 44.01,27.54 44,25.76 Z" fill="url(#c)"/>
<path d="M 30.139999999999997,36.065 C 29.45,37.06 27.98,37.1 27.33,36.98 C 28.68,37.68 32.71,39.2 38.04,39.75 C 40.7,37.47 41.61,35.13 41.74,34.25 C 39.34,35.02 33.01,35.79 30.14,36.08 Z" fill="url(#b)"/>
<path d="M 37.59,40.355 C 34.09,39.9 30.6,38.67 29.3,38.12 C 27.34,39.82 25.35,38.34 24.6,37.39 L 24.18,37.93 C 26.24,40.23 29.53,43 32.49,43 C 34.86,43 36.89,41.25 37.6,40.37 Z" fill="url(#a)"/>
<defs>
<linearGradient id="h" x1="15.91" x2="30.16" y1="39.2" y2="12.6" gradientUnits="userSpaceOnUse">
<stop stop-color="rgb(3, 140, 215)" offset="0"/>
<stop stop-color="rgb(1, 65, 149)" offset=".11"/>
<stop stop-color="rgb(44, 164, 221)" offset=".53"/>
<stop stop-color="rgb(24, 48, 139)" offset="1"/>
</linearGradient>
<linearGradient id="g" x1="14.43" x2="19.1" y1="33.88" y2="33.79" gradientUnits="userSpaceOnUse">
<stop stop-color="rgb(2, 145, 218)" offset="0"/>
<stop stop-color="rgb(21, 52, 143)" offset="1"/>
</linearGradient>
<linearGradient id="f" x1="11.28" x2="19.19" y1="29.74" y2="29.74" gradientUnits="userSpaceOnUse">
<stop stop-color="rgb(0, 155, 227)" offset="0"/>
<stop stop-color="rgb(19, 62, 151)" offset="1"/>
</linearGradient>
<linearGradient id="e" x1="11.68" x2="21.34" y1="20.63" y2="34.37" gradientUnits="userSpaceOnUse">
<stop stop-color="rgb(1, 149, 222)" offset="0"/>
<stop stop-color="rgb(23, 43, 136)" offset="1"/>
</linearGradient>
<linearGradient id="d" x1="41.92" x2="30.25" y1="24.5" y2="27.82" gradientUnits="userSpaceOnUse">
<stop stop-color="rgb(23, 43, 136)" offset="0"/>
<stop stop-color="rgb(34, 165, 224)" offset="1"/>
</linearGradient>
<linearGradient id="c" x1="42.55" x2="30.86" y1="27.9" y2="31.61" gradientUnits="userSpaceOnUse">
<stop stop-color="rgb(24, 48, 139)" offset="0"/>
<stop stop-color="rgb(44, 166, 222)" offset="1"/>
</linearGradient>
<linearGradient id="b" x1="28.17" x2="41.08" y1="37" y2="35.91" gradientUnits="userSpaceOnUse">
<stop stop-color="rgb(15, 161, 228)" offset=".13"/>
<stop stop-color="rgb(23, 43, 136)" offset="1"/>
</linearGradient>
<linearGradient id="a" x1="24.03" x2="31.07" y1="38.79" y2="35.59" gradientUnits="userSpaceOnUse">
<stop stop-color="rgb(20, 56, 147)" offset=".42"/>
<stop stop-color="rgb(0, 153, 225)" offset="1"/>
</linearGradient>
</defs>
</svg>
