<?xml version="1.0" encoding="UTF-8"?>
<!-- generated by Finnhub -->
<svg viewBox="0 0 55.5 55.5" xmlns="http://www.w3.org/2000/svg">
<path d="M 0,0 H 55.5 V 55.5 H 0 Z" fill="rgb(239, 242, 248)"/>
<path d="M 51.99,21.985 H 5 V 29 H 52 V 22 Z M 10.19,25.27 A 0.41,0.41 0 0,0 10.05,24.97 C 9.96,24.9 9.84,24.87 9.67,24.87 C 9.56,24.87 9.47,24.88 9.4,24.91 A 0.32,0.32 0 0,0 9.25,25.01 A 0.26,0.26 0 0,0 9.2,25.17 C 9.2,25.21 9.2,25.26 9.22,25.29 A 0.3,0.3 0 0,0 9.32,25.39 L 9.48,25.47 L 9.72,25.54 L 10.04,25.61 C 10.25,25.65 10.44,25.71 10.59,25.79 C 10.74,25.86 10.86,25.95 10.96,26.05 C 11.06,26.15 11.13,26.27 11.18,26.39 A 1.2,1.2 0 0,1 11.06,27.46 C 10.93,27.63 10.75,27.76 10.51,27.86 C 10.28,27.96 10.01,28 9.67,28 C 9.34,28 9.04,27.95 8.79,27.85 C 8.54,27.75 8.35,27.59 8.21,27.39 C 8.07,27.18 8.01,26.91 8,26.59 H 9 C 9,26.7 9.04,26.8 9.09,26.89 A 0.5,0.5 0 0,0 9.31,27.07 C 9.41,27.11 9.52,27.13 9.66,27.13 C 9.77,27.13 9.86,27.12 9.94,27.09 A 0.38,0.38 0 0,0 10.11,26.97 C 10.15,26.92 10.17,26.87 10.17,26.8 A 0.24,0.24 0 0,0 10.11,26.65 A 0.45,0.45 0 0,0 9.93,26.53 C 9.85,26.49 9.73,26.45 9.59,26.43 L 9.2,26.33 C 8.86,26.26 8.59,26.13 8.4,25.96 A 0.92,0.92 0 0,1 8.1,25.24 C 8.1,24.99 8.16,24.78 8.3,24.59 C 8.43,24.41 8.61,24.26 8.85,24.16 C 9.09,24.06 9.35,24 9.67,24 C 9.97,24 10.25,24.05 10.47,24.16 C 10.71,24.26 10.88,24.41 11,24.6 C 11.13,24.8 11.2,25.02 11.2,25.27 H 10.19 Z M 42.71,25.27 A 0.41,0.41 0 0,0 42.57,24.97 C 42.48,24.9 42.36,24.87 42.19,24.87 C 42.08,24.87 41.99,24.88 41.92,24.91 A 0.32,0.32 0 0,0 41.77,25.01 A 0.26,0.26 0 0,0 41.72,25.17 C 41.72,25.21 41.72,25.26 41.74,25.29 A 0.3,0.3 0 0,0 41.84,25.39 L 42,25.47 L 42.24,25.54 L 42.56,25.61 C 42.77,25.65 42.96,25.71 43.11,25.79 C 43.26,25.86 43.39,25.95 43.48,26.05 C 43.58,26.15 43.65,26.27 43.7,26.39 A 1.2,1.2 0 0,1 43.58,27.46 C 43.45,27.63 43.28,27.76 43.04,27.86 C 42.8,27.96 42.52,28 42.19,28 C 41.86,28 41.56,27.95 41.31,27.85 C 41.06,27.75 40.87,27.59 40.73,27.39 C 40.59,27.18 40.53,26.91 40.53,26.59 H 41.52 C 41.52,26.7 41.56,26.8 41.61,26.89 A 0.5,0.5 0 0,0 41.83,27.07 C 41.93,27.11 42.05,27.13 42.18,27.13 C 42.29,27.13 42.38,27.12 42.46,27.09 A 0.38,0.38 0 0,0 42.63,26.97 C 42.67,26.92 42.69,26.87 42.69,26.8 A 0.24,0.24 0 0,0 42.63,26.65 A 0.45,0.45 0 0,0 42.45,26.53 C 42.37,26.49 42.25,26.45 42.11,26.43 L 41.72,26.33 C 41.38,26.26 41.12,26.13 40.92,25.96 A 0.92,0.92 0 0,1 40.62,25.24 C 40.62,24.99 40.68,24.78 40.82,24.59 C 40.95,24.41 41.13,24.26 41.37,24.16 C 41.61,24.06 41.88,24 42.19,24 C 42.49,24 42.77,24.05 42.99,24.16 C 43.23,24.26 43.4,24.41 43.53,24.6 C 43.65,24.8 43.71,25.02 43.72,25.27 H 42.7 Z M 34,24 V 28 H 35.8 C 36.07,28 36.31,27.95 36.51,27.85 A 1.06,1.06 0 0,0 37.14,26.86 A 0.98,0.98 0 0,0 37.02,26.38 A 0.92,0.92 0 0,0 36.25,25.92 V 25.88 A 1,1 0 0,0 36.64,25.71 A 0.85,0.85 0 0,0 36.99,25 C 36.99,24.8 36.94,24.62 36.84,24.47 A 0.97,0.97 0 0,0 36.39,24.12 C 36.19,24.04 35.95,24 35.65,24 H 34 Z M 35.52,27.13 H 35 V 26.29 H 35.54 C 35.64,26.29 35.74,26.31 35.81,26.34 A 0.39,0.39 0 0,1 36.04,26.73 C 36.04,26.86 36,26.96 35.91,27.03 C 35.82,27.1 35.69,27.13 35.52,27.13 Z M 35.46,25.62 H 35 V 24.85 H 35.48 A 0.5,0.5 0 0,1 35.8,24.95 C 35.88,25.02 35.92,25.11 35.92,25.23 C 35.92,25.32 35.9,25.39 35.86,25.44 C 35.82,25.5 35.77,25.54 35.7,25.57 A 0.6,0.6 0 0,1 35.46,25.62 Z M 24,24 H 25 V 26.53 C 25,26.83 24.94,27.09 24.81,27.31 C 24.68,27.53 24.51,27.71 24.28,27.82 C 24.06,27.94 23.8,28 23.5,28 C 23.2,28 22.94,27.94 22.71,27.82 A 1.3,1.3 0 0,1 22.19,27.32 A 1.56,1.56 0 0,1 22,26.53 V 24 H 23 V 26.44 C 23,26.77 23.15,27 23.5,27 C 23.84,27 24,26.8 24,26.44 V 24 Z M 11.04,28 H 12.05 L 12.25,27.23 H 13.4 L 13.6,28 H 14.61 L 13.47,24 H 12.18 L 11.04,28 Z M 13.18,26.42 L 12.84,25.1 H 12.81 L 12.47,26.42 H 13.18 Z M 26.02,28 H 25 L 26.15,24 H 27.43 L 28.58,28 H 27.56 L 27.36,27.23 H 26.22 L 26.02,28 Z M 26.8,25.1 L 27.15,26.42 H 26.43 L 26.78,25.1 H 26.8 Z M 37,28 H 38.02 L 38.22,27.23 H 39.36 L 39.56,28 H 40.58 L 39.43,24 H 38.15 L 37,28 Z M 39.15,26.42 L 38.8,25.1 H 38.78 L 38.43,26.42 H 39.15 Z M 15,24 V 28 H 16 V 25.79 L 17.07,28 H 18 V 24 H 17 V 25.92 L 16.08,24 H 15 Z M 46,28 V 24 H 47.08 L 48,25.66 V 24 H 49 V 28 H 48.07 L 47,25.94 V 28 H 46 Z M 29,24 V 28 H 30 V 25.79 L 31.1,28 H 32 V 24 H 31 V 25.92 L 30.1,24 H 29 Z M 20,24 V 26.8 C 19.99,26.88 19.85,27.06 19.5,27.06 C 19.14,27.06 19,26.99 19,26.96 V 27.88 C 19.07,27.92 19.34,28 19.7,28 C 20.14,28 21,27.85 21,26.9 V 24 H 20 Z M 44,24 H 45 V 28 H 44 V 24 Z" fill="rgb(1, 82, 84)" fill-rule="evenodd"/>
<path d="M 43.99,28.985 H 5 V 36 H 44 V 29 Z M 8.61,30 V 34 H 9.4 V 32.68 H 9.67 L 10.18,34 H 11.04 L 10.45,32.5 A 1,1 0 0,0 10.81,32.08 C 10.9,31.88 10.95,31.65 10.95,31.36 C 10.95,31.08 10.9,30.83 10.81,30.63 C 10.72,30.43 10.6,30.27 10.43,30.16 A 1,1 0 0,0 9.87,30 H 8.6 Z M 9.4,31.84 H 9.68 C 9.78,31.84 9.85,31.82 9.92,31.79 A 0.33,0.33 0 0,0 10.07,31.63 A 0.6,0.6 0 0,0 10.12,31.36 C 10.12,31.24 10.1,31.16 10.07,31.08 A 0.34,0.34 0 0,0 9.92,30.92 A 0.5,0.5 0 0,0 9.68,30.87 H 9.4 V 31.84 Z M 13.71,32 C 13.71,32.43 13.65,32.8 13.53,33.1 C 13.41,33.4 13.25,33.62 13.05,33.77 A 1.1,1.1 0 0,1 11.69,33.77 C 11.49,33.62 11.33,33.39 11.22,33.09 C 11.1,32.79 11.04,32.43 11.04,32 C 11.04,31.57 11.1,31.2 11.22,30.9 C 11.33,30.6 11.5,30.38 11.7,30.23 C 11.9,30.08 12.13,30 12.38,30 C 12.62,30 12.85,30.08 13.05,30.23 C 13.25,30.38 13.41,30.61 13.53,30.9 C 13.65,31.2 13.71,31.57 13.71,32 Z M 12.94,32 C 12.94,31.77 12.92,31.57 12.88,31.41 A 0.78,0.78 0 0,0 12.68,31.05 A 0.42,0.42 0 0,0 12.38,30.92 A 0.43,0.43 0 0,0 12.06,31.05 A 0.8,0.8 0 0,0 11.87,31.41 A 2.3,2.3 0 0,0 11.81,32 C 11.81,32.23 11.83,32.43 11.87,32.6 C 11.91,32.75 11.97,32.87 12.07,32.96 C 12.15,33.04 12.25,33.08 12.37,33.08 C 12.5,33.08 12.6,33.04 12.69,32.96 C 12.77,32.87 12.84,32.76 12.88,32.59 C 12.92,32.43 12.94,32.23 12.94,32 Z M 13.49,30 H 14.37 L 14.94,31.33 H 14.96 L 15.53,30 H 16.41 L 15.34,32.24 V 34 H 14.56 V 32.24 L 13.49,30 Z M 19,34 H 21.13 V 33.12 H 19.86 V 30 H 19 V 34 Z M 20.44,30.87 V 30 H 23.47 L 24.04,31.33 H 24.06 L 24.63,30 H 25.51 L 24.44,32.24 V 34 H 23.66 V 32.24 L 22.84,30.52 V 30.88 H 22 V 34 H 21.26 V 30.87 H 20.43 Z M 35.54,31.25 A 0.45,0.45 0 0,0 35.43,30.96 C 35.36,30.89 35.27,30.86 35.13,30.86 A 0.48,0.48 0 0,0 34.93,30.9 A 0.26,0.26 0 0,0 34.8,31 A 0.3,0.3 0 0,0 34.76,31.15 C 34.76,31.2 34.76,31.24 34.78,31.28 L 34.86,31.38 C 34.89,31.4 34.93,31.43 34.99,31.45 L 35.17,31.52 L 35.42,31.59 C 35.59,31.63 35.73,31.69 35.85,31.76 A 1,1 0 0,1 36.31,32.36 A 1.46,1.46 0 0,1 36.22,33.41 C 36.12,33.58 35.98,33.71 35.8,33.81 C 35.61,33.9 35.4,33.94 35.14,33.94 C 34.87,33.94 34.64,33.89 34.44,33.8 C 34.25,33.7 34.1,33.54 33.99,33.34 C 33.89,33.14 33.83,32.87 33.83,32.54 H 34.61 C 34.61,32.66 34.64,32.76 34.68,32.84 C 34.72,32.92 34.78,32.98 34.85,33.03 C 34.93,33.07 35.02,33.09 35.13,33.09 C 35.21,33.09 35.29,33.07 35.35,33.05 A 0.3,0.3 0 0,0 35.48,32.93 C 35.51,32.88 35.53,32.83 35.53,32.76 A 0.28,0.28 0 0,0 35.48,32.61 A 0.37,0.37 0 0,0 35.34,32.49 A 1.3,1.3 0 0,0 35.07,32.39 L 34.77,32.31 C 34.5,32.23 34.29,32.11 34.13,31.94 A 1.03,1.03 0 0,1 33.9,31.22 C 33.9,30.98 33.95,30.77 34.06,30.58 C 34.16,30.4 34.31,30.26 34.49,30.15 C 34.68,30.05 34.89,30 35.13,30 C 35.38,30 35.59,30.05 35.77,30.16 C 35.95,30.26 36.08,30.41 36.18,30.6 C 36.28,30.78 36.33,31 36.33,31.25 H 35.54 Z M 26.21,30 V 30.88 H 27 V 34 H 27.78 V 30.87 H 28.36 V 34 H 29.15 V 32.68 H 29.42 L 29.93,34 H 30.79 L 30.19,32.5 A 1,1 0 0,0 30.55,32.08 C 30.65,31.88 30.69,31.65 30.69,31.36 C 30.69,31.08 30.65,30.83 30.56,30.63 C 30.46,30.43 30.34,30.27 30.18,30.16 A 1,1 0 0,0 29.61,30 H 26.21 Z M 29.15,30.87 V 31.84 H 29.42 C 29.52,31.84 29.6,31.82 29.66,31.79 A 0.33,0.33 0 0,0 29.81,31.63 A 0.6,0.6 0 0,0 29.87,31.36 C 29.87,31.24 29.85,31.16 29.81,31.08 A 0.34,0.34 0 0,0 29.66,30.92 A 0.5,0.5 0 0,0 29.42,30.87 H 29.15 Z M 36.48,30.87 V 30 H 38.88 V 30.86 H 38 V 34 H 37.31 V 30.86 H 36.48 Z M 33.72,30 H 33 V 32.44 C 33,32.7 32.73,33.07 32.45,33.07 A 0.4,0.4 0 0,1 32.21,32.99 A 0.54,0.54 0 0,1 32.05,32.77 A 0.85,0.85 0 0,1 32,32.44 V 30 H 31.2 V 32.53 C 31.2,32.83 31.25,33.09 31.35,33.31 C 31.45,33.53 31.6,33.71 31.79,33.82 C 31.99,33.94 32.2,34 32.45,34 C 32.7,34 32.92,33.94 33.11,33.82 C 33.31,33.7 33.45,33.53 33.56,33.32 C 33.66,33.09 33.72,32.83 33.72,32.53 V 30 Z M 16.48,34 H 15.65 L 16.58,30 H 17.64 L 18.58,34 H 17.74 L 17.58,33.23 H 16.64 L 16.48,34 Z M 17.12,31.1 L 17.41,32.42 H 16.81 L 17.11,31.1 H 17.12 Z" fill="rgb(1, 155, 152)" fill-rule="evenodd"/>
</svg>
