<?xml version="1.0" encoding="UTF-8"?>
<!-- generated by Finnhub -->
<svg viewBox="0 0 55.5 55.5" xmlns="http://www.w3.org/2000/svg">
<path d="M 0,0 H 55.5 V 55.5 H 0 Z" fill="rgb(20, 27, 52)"/>
<path d="M 44.99,21.294999999999998 V 24.18 C 45,24.34 45.13,24.48 45.29,24.48 A 0.4,0.4 0 0,0 45.44,24.43 L 47.88,23 C 48.01,22.91 48.08,22.73 47.98,22.6 A 0.27,0.27 0 0,0 47.88,22.49 L 45.42,21.05 C 45.29,20.96 45.11,21.03 45.02,21.16 C 45,21.23 45,21.28 45,21.32 Z M 49,21.31 V 24.18 C 49,24.42 49.22,24.53 49.41,24.43 L 51.85,23 C 51.98,22.91 52.05,22.73 51.96,22.6 A 0.27,0.27 0 0,0 51.85,22.49 L 49.39,21.05 C 49.22,20.94 48.89,21.11 49,21.32 Z M 47,24.83 V 27.71 C 47,27.87 47.13,28 47.28,28 A 0.4,0.4 0 0,0 47.44,27.96 L 49.87,26.52 C 50.01,26.42 50.07,26.25 49.98,26.12 A 0.27,0.27 0 0,0 49.88,26 L 47.44,24.57 C 47.31,24.47 47.13,24.52 47.04,24.66 C 47,24.72 46.98,24.76 47,24.83 Z M 44.67,30.75 A 0.26,0.26 0 0,0 44.37,30.58 H 44.35 C 44.12,30.68 43.89,30.75 43.65,30.75 C 43.23,30.75 43,30.53 43,29.87 V 27.26 C 43,27.11 43.07,27 43.21,27 H 44.79 C 44.92,27 45,26.93 45,26.78 V 26.21 C 45,26.07 44.92,26 44.79,26 H 43.2 C 43.06,26 42.99,25.88 42.99,25.74 V 24.24 C 42.99,24.09 42.89,24 42.74,24 H 41.88 C 41.74,24 41.65,24.1 41.65,24.24 V 25.74 C 41.65,25.88 41.56,26 41.43,26 H 41.18 C 41.04,26 40.99,26.07 40.99,26.21 V 26.78 C 40.99,26.93 41.04,27 41.18,27 H 41.43 C 41.56,27 41.65,27.11 41.65,27.26 V 30.13 C 41.65,31.46 42.45,32 43.38,32 C 43.86,32 44.31,31.86 44.72,31.62 C 44.84,31.57 44.88,31.43 44.84,31.32 L 44.66,30.75 Z M 38.33,25.07 A 0.79,0.79 0 0,1 39.03,24.2 H 39.17 C 39.4,24.2 39.63,24.27 39.81,24.37 C 39.92,24.44 40.06,24.37 40.13,24.25 L 40.43,23.64 C 40.47,23.52 40.44,23.4 40.33,23.33 C 39.97,23.12 39.53,23 39.1,23 C 38.03,23 37,23.7 37,25.2 V 25.77 C 37,25.91 36.9,26 36.76,26 H 36.24 C 36.1,26 36,26.1 36,26.24 V 26.83 C 36,26.97 36.1,27 36.24,27 H 36.76 C 36.89,27 37,27.16 37,27.3 V 31.76 C 37,31.91 37.08,32 37.21,32 H 38.08 C 38.21,32 38.31,31.9 38.31,31.76 V 27.32 C 38.31,27.18 38.4,27 38.53,27 H 39.69 C 39.83,27 40,26.93 40,26.79 V 26.29 C 40,26.14 39.83,26 39.7,26 H 38.53 C 38.4,26 38.31,25.95 38.31,25.81 L 38.33,25.07 Z M 35.93,29.01 C 35.93,27.22 34.67,26 32.87,26 S 29.79,27.2 29.79,28.99 C 29.79,30.78 31.05,32 32.87,32 C 34.7,32 35.93,30.78 35.93,29.01 Z M 31.07,29 C 31.07,27.86 31.81,27.08 32.87,27.08 C 33.94,27.08 34.67,27.86 34.67,29 C 34.67,30.13 33.92,30.92 32.87,30.92 C 31.83,30.92 31.07,30.16 31.07,29 Z M 19,31.76 C 19,31.9 19.1,32 19.23,32 H 20.09 C 20.23,32 20.32,31.9 20.32,31.76 V 23.24 C 20.32,23.1 20.22,23 20.09,23 H 19.23 C 19.09,23 19,23.1 19,23.24 V 31.76 Z M 22,31.76 C 22,31.9 22.1,32 22.23,32 H 23.09 C 23.23,32 23.32,31.9 23.32,31.76 V 23.24 C 23.32,23.1 23.22,23 23.09,23 H 22.23 C 22.09,23 22,23.1 22,23.24 V 31.76 Z M 17.41,23.8 C 17.41,23.35 17.07,23 16.64,23 A 0.78,0.78 0 0,0 15.86,23.8 C 15.86,24.25 16.2,24.6 16.64,24.6 C 17.07,24.6 17.41,24.25 17.41,23.8 Z M 16,31.76 C 16,31.91 16.07,32 16.2,32 H 17.07 C 17.2,32 17.3,31.9 17.3,31.77 V 26.22 C 17.3,26.08 17.2,26 17.07,26 H 16.2 C 16.07,26 16,26.08 16,26.22 V 31.77 Z M 11.34,30.29 C 11.34,30.21 11.37,30.17 11.41,30.12 L 12.18,29.26 C 12.28,29.16 12.41,29.16 12.5,29.24 L 12.55,29.29 L 14.15,31.89 C 14.19,31.95 14.25,32 14.32,32 H 15.37 C 15.51,32 15.6,31.9 15.6,31.76 C 15.6,31.71 15.57,31.66 15.55,31.62 L 13.41,28.19 C 13.34,28.09 13.37,27.98 13.44,27.89 L 14.98,26.42 C 15.08,26.32 15.08,26.18 14.98,26.09 A 0.27,0.27 0 0,0 14.8,26 H 13.74 C 13.67,26 13.62,26.04 13.58,26.09 L 11.64,27.89 A 0.17,0.17 0 0,1 11.39,27.89 A 0.19,0.19 0 0,1 11.34,27.78 V 23.24 C 11.34,23.1 11.25,23 11.11,23 H 10.23 C 10.09,23 10,23.1 10,23.24 V 31.76 C 10,31.9 10.1,32 10.23,32 H 11.09 C 11.23,32 11.32,31.9 11.32,31.76 L 11.34,30.29 Z M 9.43,26.78 L 9.18,27.28 C 9.1,27.46 8.97,27.5 8.86,27.43 C 8.39,27.2 7.86,27.04 7.34,27.03 C 6.84,27.03 6.46,27.19 6.46,27.61 C 6.46,28.69 9.62,28.11 9.62,30.24 C 9.62,31.45 8.55,32 7.34,32 C 6.53,32 5.74,31.76 5.08,31.28 C 4.99,31.21 4.98,31.11 5.04,31.02 L 5.3,30.52 C 5.35,30.42 5.48,30.37 5.59,30.42 L 5.61,30.43 C 6.14,30.78 6.75,31 7.41,31 C 7.96,31 8.37,30.8 8.37,30.37 C 8.37,29.15 5.24,29.82 5.26,27.72 C 5.26,26.52 6.31,26 7.46,26 C 8.13,26 8.79,26.17 9.36,26.5 C 9.45,26.56 9.49,26.67 9.43,26.78 Z M 28.95,26.78 L 28.7,27.28 C 28.61,27.46 28.48,27.5 28.36,27.43 A 3.9,3.9 0 0,0 26.79,27.03 C 26.27,27.03 25.89,27.2 25.89,27.61 C 25.89,28.7 29.16,28.11 29.16,30.24 C 29.16,31.46 28.04,32 26.79,32 C 25.95,32 25.13,31.76 24.45,31.28 C 24.35,31.22 24.33,31.11 24.4,31.02 L 24.68,30.52 C 24.72,30.42 24.86,30.37 24.98,30.42 L 24.99,30.43 C 25.54,30.78 26.18,31 26.86,31 C 27.43,31 27.86,30.8 27.86,30.37 C 27.86,29.15 24.61,29.83 24.63,27.72 C 24.63,26.52 25.73,26 26.91,26 C 27.61,26 28.29,26.17 28.89,26.5 C 28.98,26.57 29.02,26.67 28.95,26.78 Z" fill="rgb(254, 254, 253)"/>
</svg>
