<?xml version="1.0" encoding="UTF-8"?>
<!-- generated by Finnhub -->
<svg viewBox="0 0 55.5 55.5" xmlns="http://www.w3.org/2000/svg">
<path d="M 0,0 H 55.5 V 55.5 H 0 Z" fill="rgb(251, 163, 2)"/>
<path d="M 20.509999999999998,40.305 C 20.98,40.77 21.5,41 22.02,41 S 23.05,40.77 23.52,40.3 L 25.2,38.66 L 28,35.9 L 29.91,37.78 L 32.49,40.32 C 32.95,40.77 33.47,41 33.99,41 C 34.5,41 35.02,40.77 35.49,40.31 L 37.17,38.66 C 38.63,37.24 40.07,35.81 41.52,34.38 L 42.19,33.72 L 42.31,33.61 C 43.21,32.71 44.15,31.78 45.01,30.79 C 46.88,28.64 47.69,26.39 47.46,23.91 C 47.31,22.19 46.86,20.91 46.03,19.84 C 44.33,17.64 41.85,16.72 38.67,17.12 A 7.15,7.15 0 0,0 35.17,18.7 C 34.77,19 34.39,19.31 34,19.63 L 33.62,19.31 A 6.99,6.99 0 0,0 29.07,17.07 A 8.06,8.06 0 0,0 25.72,17.32 A 6.82,6.82 0 0,0 22.22,19.47 L 22.03,19.62 A 16.5,16.5 0 0,0 19.96,18.1 A 7.54,7.54 0 0,0 14.26,17.2 A 6.73,6.73 0 0,0 8.86,22.15 A 8.4,8.4 0 0,0 9.34,28.23 A 13.44,13.44 0 0,0 12.16,32.09 L 17.94,37.78 L 20.52,40.32 Z M 28.87,19.44 A 5,5 0 0,1 30.72,20.14 C 31.18,20.41 31.6,20.71 32,21.02 L 32.25,21.32 C 32.78,22.02 33.07,22.88 33.18,24.14 C 33.34,25.93 32.73,27.59 31.3,29.23 C 30.46,30.19 29.52,31.13 28.6,32.03 L 28,32.61 L 25.74,30.38 A 11.14,11.14 0 0,1 23.39,27.21 A 6.02,6.02 0 0,1 23.82,21.21 L 24.58,20.61 A 4.99,4.99 0 0,1 26.98,19.48 C 27.68,19.39 28.3,19.38 28.88,19.44 Z M 29.67,34.25 L 30.22,33.71 L 30.34,33.6 C 31.24,32.7 32.18,31.77 33.04,30.78 C 34.91,28.64 35.72,26.38 35.49,23.91 C 35.42,23.11 35.29,22.41 35.09,21.78 L 35.25,21.64 C 35.69,21.29 36.11,20.94 36.55,20.61 A 4.99,4.99 0 0,1 38.95,19.47 C 41.35,19.17 43.02,19.75 44.22,21.31 C 44.75,22.01 45.04,22.87 45.15,24.13 C 45.31,25.92 44.7,27.59 43.27,29.22 C 42.43,30.18 41.49,31.12 40.57,32.02 L 39.89,32.69 L 35.59,36.93 L 35.56,36.96 L 34,38.5 L 31.53,36.06 L 29.68,34.24 Z M 26.34,34.25 L 24.13,32.09 A 13.44,13.44 0 0,1 21.31,28.23 A 8.44,8.44 0 0,1 20.93,21.81 C 20.3,21.21 19.59,20.66 18.75,20.14 A 4.94,4.94 0 0,0 16.07,19.37 C 15.64,19.37 15.2,19.42 14.73,19.52 A 4.42,4.42 0 0,0 11.08,22.82 A 5.98,5.98 0 0,0 11.42,27.21 C 11.94,28.31 12.71,29.34 13.77,30.38 L 17.59,34.14 L 19.55,36.07 L 22.02,38.51 L 23.59,36.96 L 26.34,34.26 Z" fill="rgb(254, 254, 253)" fill-rule="evenodd"/>
</svg>
