<?xml version="1.0" encoding="UTF-8"?>
<!-- generated by Finnhub -->
<svg viewBox="0 0 55.5 55.5" xmlns="http://www.w3.org/2000/svg">
<path d="M 0,0 H 55.5 V 55.5 H 0 Z" fill="rgb(229, 9, 122)"/>
<circle cx="28" cy="28" r="15" fill="rgb(239, 242, 248)"/>
<path d="M 27.99,11.985 A 16,16 0 1,1 28,44 A 16,16 0 0,1 28,12 Z M 29.31,17.1 A 1,1 0 1,1 29.31,19.1 A 1,1 0 0,1 29.31,17.1 Z M 15.21,24.57 A 0.26,0.26 0 1,1 15.21,25.09 A 0.26,0.26 0 0,1 15.21,24.57 Z M 15.21,27.94 A 0.26,0.26 0 1,1 15.21,28.46 A 0.26,0.26 0 0,1 15.21,27.94 Z M 15.21,31.3 A 0.26,0.26 0 1,1 15.21,31.82 A 0.26,0.26 0 0,1 15.21,31.3 Z M 16.92,31.2 A 0.35,0.35 0 1,1 16.92,31.9 A 0.35,0.35 0 0,1 16.92,31.2 Z M 16.92,27.85 A 0.35,0.35 0 1,1 16.92,28.55 A 0.35,0.35 0 0,1 16.92,27.85 Z M 16.92,24.49 A 0.35,0.35 0 1,1 16.92,25.19 A 0.35,0.35 0 0,1 16.92,24.49 Z M 18.95,24.34 A 0.5,0.5 0 1,1 18.95,25.34 A 0.5,0.5 0 0,1 18.95,24.34 Z M 18.95,27.7 A 0.5,0.5 0 1,1 18.95,28.7 A 0.5,0.5 0 0,1 18.95,27.7 Z M 18.95,31.06 A 0.5,0.5 0 1,1 18.95,32.06 A 0.5,0.5 0 0,1 18.95,31.06 Z M 21.08,30.93 A 0.62,0.62 0 1,1 21.08,32.18 A 0.62,0.62 0 0,1 21.08,30.93 Z M 21.08,27.57 A 0.62,0.62 0 1,1 21.08,28.82 A 0.62,0.62 0 0,1 21.08,27.57 Z M 21.08,24.21 A 0.62,0.62 0 1,1 21.08,25.46 A 0.62,0.62 0 0,1 21.08,24.21 Z M 23.58,24.09 A 0.74,0.74 0 1,1 23.58,25.59 A 0.74,0.74 0 0,1 23.58,24.09 Z M 23.58,27.45 A 0.74,0.74 0 1,1 23.58,28.94 A 0.74,0.74 0 0,1 23.58,27.44 Z M 23.58,30.8 A 0.74,0.74 0 1,1 23.58,32.29 A 0.74,0.74 0 0,1 23.58,30.8 Z M 26.18,30.67 A 0.88,0.88 0 1,1 26.18,32.43 A 0.88,0.88 0 0,1 26.18,30.67 Z M 26.18,27.33 A 0.88,0.88 0 1,1 26.18,29.09 A 0.88,0.88 0 0,1 26.18,27.33 Z M 26.18,23.97 A 0.88,0.88 0 1,1 26.18,25.73 A 0.88,0.88 0 0,1 26.18,23.97 Z M 39.47,26.84 A 1.37,1.37 0 1,1 39.47,29.59 A 1.37,1.37 0 0,1 39.47,26.84 Z M 35.95,30.36 A 1.23,1.23 0 1,1 35.95,32.82 A 1.23,1.23 0 0,1 35.95,30.36 Z M 35.95,23.62 A 1.23,1.23 0 1,1 35.95,26.08 A 1.23,1.23 0 0,1 35.95,23.62 Z M 35.95,26.98 A 1.23,1.23 0 1,1 35.95,29.44 A 1.23,1.23 0 0,1 35.95,26.98 Z M 32.5,33.83 A 1.1,1.1 0 1,1 32.5,36.03 A 1.1,1.1 0 0,1 32.5,33.83 Z M 32.5,30.46 A 1.1,1.1 0 1,1 32.5,32.66 A 1.1,1.1 0 0,1 32.5,30.46 Z M 32.5,27.11 A 1.1,1.1 0 1,1 32.5,29.31 A 1.1,1.1 0 0,1 32.5,27.11 Z M 32.5,23.75 A 1.1,1.1 0 1,1 32.5,25.95 A 1.1,1.1 0 0,1 32.5,23.75 Z M 32.5,20.35 A 1.1,1.1 0 1,1 32.5,22.55 A 1.1,1.1 0 0,1 32.5,20.35 Z M 29.31,37.3 A 1,1 0 1,1 29.31,39.31 A 1,1 0 0,1 29.31,37.31 Z M 29.31,33.95 A 1,1 0 1,1 29.31,35.95 A 1,1 0 0,1 29.31,33.95 Z M 29.31,30.58 A 1,1 0 1,1 29.31,32.59 A 1,1 0 0,1 29.31,30.59 Z M 29.31,27.22 A 1,1 0 1,1 29.31,29.22 A 1,1 0 0,1 29.31,27.22 Z M 29.31,23.85 A 1,1 0 1,1 29.31,25.86 A 1,1 0 0,1 29.31,23.86 Z M 29.31,20.45 A 1,1 0 1,1 29.31,22.47 A 1,1 0 0,1 29.31,20.46 Z" fill="rgb(12, 55, 126)" fill-rule="evenodd"/>
</svg>
