<?xml version="1.0" encoding="UTF-8"?>
<!-- generated by Finnhub -->
<svg viewBox="0 0 55.5 55.5" xmlns="http://www.w3.org/2000/svg">
<path d="M 0,0 H 55.5 V 55.5 H 0 Z" fill="rgb(239, 242, 248)"/>
<path d="M 32.440000000000005,28.985 C 33.67,29 34.48,29.3 35,30 V 31.26 C 34.53,31.98 33.62,32.5 32.37,32.5 C 30.91,32.5 30,31.6 30,30.5 S 30.95,29 32.45,29 Z M 31.59,35 C 33,35 34.15,34.44 35,33.54 V 35 H 38 V 25.8 C 38.02,22.8 36,21 32.63,21 C 31.08,21 29.37,21.28 28,22 V 25 A 8.02,8.02 0 0,1 32.1,23.63 C 33.92,23.63 35,24.43 35,26.2 V 27.29 A 4.5,4.5 0 0,0 32.04,26.32 C 29.26,26.32 27,27.98 27,30.7 C 27.02,33.34 29.16,35 31.59,35 Z M 39,35 V 21 H 42 V 22.8 A 4.93,4.93 0 0,1 46.06,21 C 49.04,21 51,22.94 51,26.06 V 35 H 48 V 26.63 C 48,24.85 46.86,24 45.25,24 A 3.5,3.5 0 0,0 42,26.02 V 35 H 39 Z M 16,35 V 21 H 19 V 27 L 23.6,21 H 27 L 21.6,27.73 L 27,35 H 23.5 L 19,28.6 V 35 H 16 Z M 8.5,28.97 C 6.35,28.4 5,27 5,25 C 5,22.48 7.13,21 10.24,21 C 11.64,21.02 12.75,21.35 14,22 V 25 C 12.52,24 11.55,23.58 10.24,23.58 C 8.84,23.58 8,24.08 8,25 C 8,25.72 8.55,26.23 10.12,26.65 L 11.55,27.05 C 13.69,27.62 15,28.89 15,30.98 C 15,33.6 12.99,35 9.78,35 A 7.87,7.87 0 0,1 5,33.5 V 30.5 A 7.33,7.33 0 0,0 9.71,32.45 C 11.14,32.45 12,31.95 12,31 C 12,30.25 11.45,29.77 9.88,29.35 L 8.5,28.97 Z" fill="rgb(1, 69, 128)"/>
</svg>
