<?xml version="1.0" encoding="UTF-8"?>
<!-- generated by Finnhub -->
<svg viewBox="0 0 55.5 55.5" xmlns="http://www.w3.org/2000/svg">
<path d="M 0,0 H 55.5 V 55.5 H 0 Z" fill="rgb(236, 232, 227)"/>
<path d="M 9.99,19.695 H 7.37 V 18 H 14.57 V 19.71 H 12 V 27 H 10"/>
<path d="M 17.99,23.564999999999998 C 17.67,23.78 17.33,23.83 16.98,23.86 L 15.96,23.97 C 15.35,24.03 15,24.24 15,24.82 C 15,25.41 15.49,25.74 16.14,25.74 C 17.03,25.74 18,25.21 18,24.12 V 23.58 Z M 13.5,22.24 C 13.71,20.24 15.23,20 16.66,20 C 19.16,20 20,21 20,22.21 V 27 H 18.15 C 18.09,26.77 18.05,26.3 18.03,26.06 C 17.43,26.79 16.33,27 15.53,27 C 14.14,27 13,26.4 13,24.89 C 13,23.31 14.31,22.97 15.38,22.88 L 17.24,22.72 C 17.77,22.67 18,22.56 18,22.04 S 17.6,21.26 16.58,21.26 C 15.83,21.26 15.45,21.34 15.2,22.24 M 26,23.13 C 26,22.19 25.58,21.73 24.69,21.73 C 23.76,21.73 23,22.25 23,23.7 V 27 H 21 V 20 H 23 V 21.17 A 2.88,2.88 0 0,1 25.4,20 C 26.43,20 28,20.45 28,22.46 V 27 H 26 M 32.53,25.2 C 33.31,25.2 34,24.9 34,23.38 C 34,21.85 33.31,21.55 32.53,21.55 S 31,21.85 31,23.38 S 31.75,25.21 32.53,25.21 Z M 34,20 H 36 V 26.31 C 36,28.61 34.8,29.5 32.54,29.5 C 31.21,29.5 29.4,29.31 29.22,27.3 H 31.27 C 31.38,27.84 31.95,28 32.59,28 C 33.24,28 34,27.84 34,26.23 V 25.69 C 33.5,26.39 32.97,26.67 32.07,26.67 C 29.96,26.67 29,25.06 29,23.34 C 29,21.52 29.96,20.01 32.21,20.01 C 33,20.01 33.81,20.31 34,20.99 M 41.56,22.8 C 41.56,22.45 41.35,21.34 40.04,21.34 C 38.64,21.34 38.6,22.62 38.6,22.78 V 22.81 H 41.56 Z M 43.46,24.81 C 42.94,26.36 41.7,27 40.08,27 C 37.95,27 36.51,25.95 36.51,23.5 C 36.51,21.04 37.95,20 40.08,20 C 42.43,20 43.56,21.42 43.56,23.88 V 24 H 38.6 C 38.6,24.62 38.87,25.66 40.08,25.66 C 40.8,25.66 41.22,25.37 41.48,24.81 M 44,20 H 46 V 21.51 C 46.71,20.47 47.18,20 48.29,20 C 48.51,20 48.78,20.01 49,20.06 V 22.16 A 3.47,3.47 0 0,0 47.92,22 C 46.59,22 46,22.74 46,24.06 V 27 H 44"/>
<path d="M 11.25,37.445 C 13.68,37.46 15.01,35.29 15.01,33 C 15.01,30.7 13.68,28.54 11.26,28.54 C 8.85,28.54 7.52,30.71 7.52,33 C 7.52,35.3 8.85,37.46 11.26,37.46 Z M 11.26,28 C 14.53,28 15.53,31.12 15.53,33 C 15.53,34.88 14.53,38 11.26,38 C 8,38 7,34.88 7,33 S 8,28 11.26,28 Z M 22.54,38 H 22.02 V 36.44 H 22 A 2.5,2.5 0 0,1 19.6,38 C 17,38 17,36.01 17,35.19 V 31 H 17.51 V 35.16 C 17.51,36.54 17.94,37.47 19.61,37.47 C 21.29,37.47 22,36.22 22,34.97 V 31 H 22.54 M 25,29 H 25.53 V 31 H 27.21 V 31.52 H 25.53 V 36.51 C 25.53,37.34 25.93,37.48 26.56,37.48 C 26.79,37.48 27.04,37.42 27.26,37.4 V 37.93 C 27,37.99 26.68,38 26.4,38 C 25.22,38 25,37.48 25,36.18 V 31.52 H 23.73 V 31 H 25 M 39,29 H 39.53 V 31 H 41.22 V 31.52 H 39.53 V 36.51 C 39.53,37.34 39.93,37.48 40.56,37.48 C 40.79,37.48 41.04,37.42 41.27,37.4 V 37.93 C 41,37.99 40.68,38 40.41,38 C 39.21,38 39.01,37.48 39.01,36.18 V 31.52 H 37.73 V 31 H 39 M 29,38 H 29.51 V 29 H 29 V 38 Z M 36.7,34 C 36.5,32.2 35.43,31.51 34.12,31.51 C 32.65,31.51 31.75,32.43 31.53,34 H 36.71 Z M 31.53,34.63 C 31.57,36.28 32.51,37.49 34.22,37.49 C 35.98,37.49 36.44,36.19 36.64,35.61 H 37.14 C 36.67,37.27 35.67,38 34.16,38 C 32.22,38 31,36.64 31,34.45 C 31,33.07 31.75,31 34.17,31 C 36.15,31 37.27,32.52 37.3,34.63 M 47.29,33 C 47.21,31.9 46.61,31.51 45.14,31.51 C 43.74,31.51 43.28,32.15 43.28,32.83 C 43.28,33.55 43.75,33.84 44.43,33.95 L 46.23,34.23 C 47.3,34.4 48.02,34.85 48.02,36.03 C 48.02,37.82 46.27,38 45.3,38 C 43.74,38 42.6,37.38 42.53,35.74 H 43.03 C 43.11,36.42 43.23,37.49 45.43,37.49 C 46.93,37.49 47.51,36.97 47.51,36.03 C 47.51,35.27 47.03,34.93 46.37,34.83 L 44.37,34.53 C 43.67,34.43 42.77,34.03 42.77,32.87 C 42.77,32.12 43.23,31 45.16,31 C 47.26,31 47.73,31.97 47.8,33" fill="rgb(181, 30, 36)"/>
</svg>
