<?xml version="1.0" encoding="UTF-8"?>
<!-- generated by Finnhub -->
<svg viewBox="0 0 55.5 55.5" xmlns="http://www.w3.org/2000/svg">
<path d="M 0,0 H 55.5 V 55.5 H 0 Z" fill="rgb(248, 55, 32)"/>
<path d="M 23.99,25.285 H 25 V 25 H 22 V 25.3 H 23 V 27.7 H 20 V 25.3 H 21 V 25 H 18 V 25.3 H 19 V 30.7 H 18 V 31 H 21 V 30.7 H 20 V 28 H 23 V 30.7 H 22 V 31 H 25 V 30.7 H 24 V 25.3 Z M 28.47,28.16 C 28.47,27.19 27.87,27 27.22,27 S 26.12,27.25 25.66,27.52 C 25.36,27.7 25.16,27.9 25.16,28.16 C 25.16,28.38 25.35,28.52 25.66,28.52 A 0.7,0.7 0 0,0 26.07,28.39 C 25.92,27.45 26.5,27.29 26.99,27.29 C 27.39,27.29 27.49,27.43 27.49,27.97 C 27.51,28.47 26.94,28.72 26.56,28.87 C 25.72,29.24 25.16,29.34 25.16,30 C 25.16,30.58 25.67,31 26.36,31 C 26.88,31 27.36,30.65 27.49,30.19 L 27.53,31 H 29 V 30.7 H 28.45 L 28.47,28.16 Z M 27.47,29.68 C 27.47,30.18 27.16,30.37 26.84,30.37 C 26.45,30.37 26.14,30.25 26.14,29.75 C 26.14,29.21 26.71,29.13 27.17,28.82 C 27.29,28.75 27.39,28.66 27.49,28.57 L 27.47,29.67 Z M 31,28.32 L 31.43,27.85 H 32.53 L 33.03,27 H 32 L 31,28 V 27 L 29.38,27.61 V 27.64 L 30,28 V 30.71 H 29.39 V 31 H 31.87 V 30.71 H 31 V 28.31 Z M 50,28.32 L 50.43,27.85 H 51.53 L 52.03,27 H 51 L 50,28 V 27 L 48.38,27.61 V 27.64 L 49,28 V 30.71 H 48.39 V 31 H 50.87 V 30.71 H 50 V 28.31 Z M 41,27 C 39.8,27 39,27.87 39,28.97 A 1.98,1.98 0 0,0 41,31 C 42.18,31 43,30.13 43,29.03 A 1.98,1.98 0 0,0 41,27 Z M 41.25,30.66 C 40.68,30.66 40.33,30.22 40.09,29.35 C 39.99,29 39.94,28.63 39.93,28.27 C 39.93,27.6 40.36,27.31 40.74,27.31 C 41.31,27.31 41.67,27.77 41.9,28.64 C 42,28.99 42.06,29.35 42.07,29.72 C 42.07,30.4 41.64,30.66 41.25,30.66 Z M 47.5,27 H 45.8 V 27.3 H 46.45 V 29.53 C 46.45,30.32 46.01,30.66 45.48,30.66 C 45.02,30.66 45,30.35 45,29.53 V 27 H 43.3 V 27.3 H 44 V 29.56 C 44,30.59 44.5,31 45.29,31 C 45.97,31 46.29,30.86 46.45,30.31 V 31 H 48 V 30.7 H 47.5 V 27 Z" fill="rgb(254, 254, 253)"/>
<path d="M 17.99,26.985 H 16.58 V 27.3 H 17.11 L 16,29.7 L 15,27.29 H 15.63 V 27 H 12.39 L 11,28.61 V 25 H 9.43 V 25.3 H 10 V 31 H 11 V 28.83 L 12.77,31.01 H 13.94 L 11.98,28.71 H 11.36 L 12.15,27.77 H 13.03 L 13.69,27.3 H 13.89 L 15.48,30.85 L 15,32 H 13.37 L 14.03,33 H 15.86 L 15.2,32.22 L 17.4,27.3 H 18 V 27 Z M 6.93,27.49 L 6.11,27.31 C 5.51,27.16 4.99,26.78 4.99,26.12 C 4.99,25.34 5.75,25.29 6.39,25.29 C 6.74,25.29 6.97,25.35 7.08,25.49 L 8.63,27 H 8.73 L 8.28,25.23 A 6.87,6.87 0 0,0 6.55,25 C 5.25,25 4.08,25.62 4.08,26.66 C 4.08,27.54 4.86,28.09 5.84,28.32 L 6.64,28.5 C 7.36,28.66 8,29 8,29.7 C 8,30.53 7.13,30.74 6.37,30.74 C 5.97,30.74 5.71,30.67 5.57,30.48 L 4.1,28.5 H 4 L 4.41,30.78 C 5.03,30.93 5.68,31.01 6.32,31 C 7.97,31 9,30.26 9,29.23 C 9,28.25 8.05,27.73 6.93,27.49 Z M 36.34,27 C 36.06,27 35.79,27.07 35.54,27.2 C 35.31,27.33 35.12,27.51 35,27.73 V 25 H 33.3 V 25.3 H 34 V 30.7 H 33.3 V 31 H 35 V 30.36 C 35.12,30.56 35.3,30.72 35.53,30.84 C 35.75,30.94 36.01,31.01 36.26,31 C 37.29,31 38,30.21 38,28.95 C 38,27.6 37.28,27 36.34,27 Z M 35.01,29.89 V 28.09 C 35.12,27.78 35.46,27.56 35.81,27.55 C 36.52,27.55 37.01,27.88 37.01,29 C 37.01,29.96 35.75,31.19 35.01,29.89 Z" fill="rgb(254, 254, 253)"/>
</svg>
