<?xml version="1.0" encoding="UTF-8"?>
<!-- generated by Finnhub -->
<svg viewBox="0 0 55.5 55.5" xmlns="http://www.w3.org/2000/svg">
<path d="M 0,0 H 55.5 V 55.5 H 0 Z" fill="rgb(239, 242, 248)"/>
<circle cx="6.5" cy="27.5" r="1.5"/>
<circle cx="29.5" cy="20.5" r="1.5"/>
<path d="M 27.49,32.305 V 36 H 24 V 22 H 27.5 V 27.64 L 28.4,26.52 A 1.5,1.5 0 0,0 31,25.5 C 31,24.94 30.7,24.46 30.25,24.2 L 32,22 H 35.73 L 30.83,28.2 L 36,36 H 32.06 L 28.62,30.92 L 27.5,32.32 Z"/>
<circle cx="38.5" cy="33.5" r="1.5"/>
<path d="M 41.99,31.265 V 36 H 45.5 V 34.61 A 1.5,1.5 0 1,1 45.5,32.38 V 31.26 L 51,22 H 47.59 L 43.91,27.76 L 40.25,22 H 36.25 L 42,31.28 Z M 10,34.52 C 11.52,35.6 13.53,36 15.36,36 C 18.01,36 21,34.7 21,31.65 C 21,28.64 18.1,27.97 15.7,27.42 L 15.2,27.31 C 14.63,27.15 13.78,26.91 13.78,26.17 C 13.78,25.14 15.21,25 16,25 C 17.11,25 18.15,25.3 19.36,26 L 20.47,23.17 A 8.99,8.99 0 0,0 15.85,22 C 13.28,22 10.45,23.2 10.23,26.02 L 10.5,26 A 1.5,1.5 0 0,1 11.2,28.83 C 12.04,29.67 13.32,30.13 14.6,30.43 L 15,30.5 C 15.92,30.67 17.45,30.95 17.45,31.94 C 17.45,32.94 16.22,33 15.5,33 A 7.96,7.96 0 0,1 11.18,31.71 L 10,34.51 Z"/>
</svg>
