<?xml version="1.0" encoding="UTF-8"?>
<!-- generated by Finnhub -->
<svg viewBox="0 0 55.5 55.5" xmlns="http://www.w3.org/2000/svg">
<path d="M 0,0 H 55.5 V 55.5 H 0 Z" fill="rgb(1, 81, 153)"/>
<path d="M 22.595,27.488 L 20.799,31.641 L 21.029,27.231 L 16.653,27.687 L 14.453,29.521 L 15.155,28.211 L 16.28,24 L 13.535,24.372 L 11.373,33 H 14.036 L 14.353,31.537 L 15.197,30.663 L 15.456,33 H 18.189 L 17.674,29.132 L 18.668,28.211 L 19.231,32.139 C 19.243,32.245 19.296,32.567 19.296,32.674 C 19.296,33.57 18.613,34.234 18.085,34.234 C 17.78,34.234 16.56,34.139 16.42,34.127 L 16,35.827 C 16.41,35.874 17.122,36 18.085,36 C 18.8,36 19.797,36.023 20.595,35.197 C 20.935,34.842 21.741,33.685 21.965,33.248 C 22.067,33.074 22.165,32.897 22.258,32.717 L 25.366,27.113 L 22.605,27.503 Z M 12.391,26.303 A 4.27,4.27 0 0,0 12.409,25.898 C 12.409,24.446 11.013,24 9.03,24 C 8.409,24 7.33,24.068 6.426,24.623 C 5.511,25.202 5.065,26.111 5.065,26.984 C 5.065,28.365 6.053,29.01 6.769,29.304 L 7.579,29.612 C 8.189,29.836 8.411,29.919 8.587,30.107 A 0.746,0.746 0 0,1 8.798,30.616 C 8.798,30.97 8.517,31.536 7.766,31.536 C 7.332,31.536 7.039,31.312 6.921,31.099 A 1.068,1.068 0 0,1 6.827,30.627 C 6.827,30.509 6.84,30.45 6.84,30.344 L 4,30.718 V 30.781 C 4,32.529 5.467,33 7.496,33 C 8.341,33 9.679,32.917 10.746,31.997 C 11.45,31.383 11.79,30.592 11.79,29.801 C 11.79,28.349 10.79,27.705 10.133,27.421 L 9.3,27.114 C 8.596,26.866 8.456,26.807 8.28,26.642 A 0.633,0.633 0 0,1 8.045,26.17 C 8.045,25.84 8.303,25.45 8.971,25.45 C 9.311,25.45 9.793,25.59 9.793,26.182 C 9.793,26.264 9.771,26.512 9.734,26.654 L 12.391,26.304 Z" fill="rgb(254, 254, 253)"/>
<path d="M 33.67,24.367 L 31.298,31 L 32,24.003 L 29.595,24.311 L 27,31 L 27.254,28.818 L 28,24.003 L 25.002,24.376 L 24.722,26.948 L 25.416,26.858 C 25.496,26.912 25.575,26.946 25.62,27.011 A 0.203,0.203 0 0,1 25.633,27.229 L 24.483,29.315 L 24.115,33 H 27.705 L 29.276,29.519 C 29.446,29.134 29.606,28.745 29.758,28.353 C 29.676,28.981 29.653,29.165 29.594,29.828 L 29.372,33 H 32.95 L 36.647,24.002 L 33.68,24.382 Z M 38.315,31.199 C 38.131,31.738 37.903,31.961 37.39,31.961 C 37.026,31.961 36.783,31.745 36.817,31.348 C 36.841,31.071 36.91,30.913 36.964,30.697 L 40.994,30.176 A 4.28,4.28 0 0,0 41.173,28.983 C 41.173,27.533 40.001,27 38.383,27 C 36.295,27 35.486,27.713 35.016,28.582 C 34.664,29.233 34.383,30.377 34.383,31.062 C 34.383,31.337 34.394,32.057 35.075,32.537 C 35.379,32.766 35.767,32.869 36.155,32.937 C 36.495,32.995 36.846,33 37.187,33 C 38.262,33 39.347,32.883 40.064,32.264 C 40.529,31.86 40.676,31.414 40.82,30.875 L 38.315,31.199 Z M 38.33,28.056 C 38.646,28.056 38.858,28.216 38.858,28.582 C 38.858,28.837 38.723,29.31 38.65,29.537 L 37.187,29.727 C 37.405,28.937 37.535,28.057 38.33,28.057 Z M 45.658,29.211 L 44.943,28.994 C 44.403,28.834 44.004,28.708 44.004,28.376 C 44.004,28.113 44.274,27.965 44.614,27.965 C 44.954,27.965 45.177,28.068 45.177,28.399 C 45.177,28.457 45.139,28.731 45.139,28.789 L 47.45,28.493 C 47.459,28.421 47.465,28.353 47.465,28.308 C 47.465,27.268 46.315,27 44.661,27 C 43.981,27 43.246,27.091 42.636,27.389 C 41.768,27.801 41.446,28.445 41.446,29.062 C 41.446,30.092 42.256,30.412 42.796,30.617 L 43.534,30.88 C 44.063,31.051 44.367,31.154 44.367,31.485 C 44.367,31.715 44.156,31.965 43.71,31.965 C 43.511,31.965 43.086,31.931 43.086,31.428 C 43.086,31.36 43.108,31.246 43.119,31.188 L 40.814,31.484 C 40.812,31.527 40.812,31.574 40.812,31.623 C 40.812,32.339 41.312,32.787 42.221,32.915 C 42.853,33.017 43.417,33 43.616,33 C 44.25,33 45.231,32.867 45.912,32.433 C 46.545,32.021 46.96,31.383 46.96,30.708 C 46.948,29.657 46.116,29.371 45.658,29.211 Z M 49.443,28 L 48.08,28.426 L 47.507,30.697 C 47.425,31.017 47.354,31.303 47.354,31.611 C 47.354,32.081 47.487,32.591 48.191,32.853 C 48.507,32.968 48.836,33.002 49.176,33.002 C 49.786,33.002 50.314,32.899 50.772,32.807 L 51.12,31.462 C 50.98,31.485 50.862,31.497 50.722,31.497 C 50.557,31.497 50.147,31.497 50.147,31.097 C 50.147,30.959 50.182,30.811 50.287,30.342 L 50.89,28 H 51.746 L 52,27 H 51.144 L 51.747,25 L 48.955,25.389 L 48.457,27 H 47.847 L 47.583,28 H 49.443 Z" fill="rgb(254, 254, 253)"/>
</svg>
