<?xml version="1.0" encoding="UTF-8"?>
<!-- generated by Finnhub -->
<svg viewBox="0 0 55.5 55.5" xmlns="http://www.w3.org/2000/svg">
<path d="M 0,0 H 55.5 V 55.5 H 0 Z" fill="rgb(239, 242, 248)"/>
<path d="M 31.759999999999998,20.985 S 29.03,14.9 13,14 C 26.66,14 34.03,16.03 39,19.76 C 34.86,18.24 31.77,21 31.77,21 Z M 31.77,36 S 29.03,42.1 13,43 C 26.66,43 34.03,40.97 39,37.24 C 34.86,38.72 31.77,36 31.77,36 Z M 37.5,35 A 6.5,6.5 0 1,0 37.5,22 A 6.5,6.5 0 0,0 37.5,35 Z" fill="rgb(76, 92, 120)"/>
<path d="M 40.49,25.275 A 0.43,0.43 0 0,1 40.5,24.64 C 40.69,24.45 40.98,24.45 41.18,24.64 A 5.44,5.44 0 0,1 43,28.56 C 43,30.01 42.31,31.34 41.24,32.36 A 0.49,0.49 0 0,1 40.56,32.36 A 0.43,0.43 0 0,1 40.56,31.71 A 4.43,4.43 0 0,0 42,28.56 A 4.6,4.6 0 0,0 40.5,25.29 Z" fill="rgb(239, 242, 248)"/>
<path d="M 39.1,26.384999999999998 A 0.46,0.46 0 0,1 39.08,25.75 C 39.28,25.57 39.57,25.57 39.76,25.72 A 3.79,3.79 0 0,1 39.76,31.32 A 0.49,0.49 0 0,1 39.08,31.28 A 0.43,0.43 0 0,1 39.11,30.63 C 39.73,30.11 39.99,29.34 39.99,28.56 C 39.99,27.8 39.76,26.89 39.11,26.4 Z" fill="rgb(239, 242, 248)"/>
<path d="M 37.59,27.435 A 0.43,0.43 0 0,1 37.6,26.8 C 37.8,26.62 38.09,26.62 38.28,26.8 C 38.78,27.27 39,27.84 39,28.5 C 39,29.19 38.68,29.8 38.22,30.32 C 38.06,30.51 37.73,30.57 37.54,30.38 C 37.34,30.23 37.27,29.92 37.47,29.74 C 37.77,29.37 38,28.98 38,28.5 C 38,28.07 37.92,27.76 37.6,27.45 Z" fill="rgb(239, 242, 248)"/>
</svg>
