<?xml version="1.0" encoding="UTF-8"?>
<!-- generated by Finnhub -->
<svg viewBox="0 0 55.5 55.5" xmlns="http://www.w3.org/2000/svg">
<path d="M 0,0 H 55.5 V 55.5 H 0 Z" fill="rgb(216, 29, 40)"/>
<path d="M 28.555,30.032999999999998 C 31.741,30.204 31.899,30.423 32.739,30.83 C 29.956,31.488 24.995,32.176 20.086,31.582 C 19.246,31.457 17.12,30.987 16.148,30.33 C 15.728,30.048 14.758,29.422 14.836,28.232 C 14.915,27.074 16.28,25.822 16.857,25.414 C 20.69,22.721 24.811,21.814 29.142,21 C 25.862,21.47 23.578,22.033 21.477,22.66 C 16.306,24.225 10.872,27.105 8.93,30.048 C 8.09,31.3 7.696,32.709 8.273,33.993 C 9.297,36.278 12.263,37.436 15.597,38 C 14.469,37.593 13.103,37.155 12.5,36.184 C 12.29,35.84 12.211,35.12 12.893,34.462 C 14.547,32.866 15.833,32.302 15.833,32.302 L 19.141,33.242 L 18.537,33.773 C 18.249,33.993 18.117,34.337 18.275,34.743 C 18.616,35.339 19.062,35.558 19.43,35.777 C 23.341,37.656 30.64,35.997 33.028,33.93 C 33.684,33.366 34.366,32.834 34.419,31.8 C 34.445,31.206 34.052,30.768 33.815,30.548 C 32.45,29.39 30.14,29.265 28.565,29.203 C 25.704,29.14 24.995,28.764 24.207,28.2 C 29.457,27.074 34.287,26.792 38.987,27.919 C 40.115,28.263 41.481,28.826 41.979,29.954 C 42.347,30.768 42.006,31.738 41.323,32.521 C 39.853,34.243 37.254,35.339 35.573,36.059 C 39.039,34.744 41.165,34.024 44.394,31.707 C 46.074,30.517 48.411,28.169 47.938,25.727 C 47.387,22.785 42.872,21.626 42.872,21.626 S 43.869,22.033 44.368,22.753 C 44.814,23.411 44.788,23.943 44.735,24.162 C 44.315,25.915 42.399,26.166 41.087,26.729 L 37.464,26.072 S 38.094,25.665 38.409,25.414 C 38.75,25.101 38.96,24.694 38.803,24.193 C 38.488,23.473 37.989,23.129 37.28,22.878 C 33.343,21.501 28.25,22.284 24.732,24.694 C 23.892,25.32 22.764,26.166 22.659,27.418 C 22.606,27.981 22.999,28.67 23.578,29.046 C 25.415,30.111 26.885,29.986 28.565,30.048 Z" fill="rgb(254, 254, 253)"/>
</svg>
