<?xml version="1.0" encoding="UTF-8"?>
<!-- generated by Finnhub -->
<svg viewBox="0 0 55.5 55.5" xmlns="http://www.w3.org/2000/svg">
<rect width="56" height="56" fill="rgb(239, 242, 248)"/>
<path d="M 27.276,46.985 S 30.9252,43.7265 37.549,39.0305 C 37.7525,38.8692 37.9367,38.7013 38.1057,38.5284 C 40.5028,36.0764 37.6756,32.7731 33.0146,29.7585 C 34.18,30.9324 33.4412,32.2288 30.8538,34.2973 C 29.4269,35.5109 27.5009,36.9082 25.4505,38.6086 C 20.2761,42.8992 27.2857,47 27.2857,47 Z" fill="rgb(109, 174, 187)"/>
<path d="M 38.151,38.455999999999996 C 41.5937,34.6308 42.5543,25.283 37.3929,21.878 C 33.1,19.0455 31.8268,20.2942 29.8577,21.8205 C 26.4873,24.4335 26.6218,25.2206 27.9531,26.1972 C 33.0533,29.9385 41.5901,34.6345 38.1611,38.4712 Z" fill="rgb(8, 92, 101)"/>
<path d="M 28.703999999999997,8.985 S 25.0748,12.2735 18.451,16.9695 C 18.2475,17.1308 18.0633,17.2987 17.8943,17.4716 C 15.4972,19.9236 18.3244,23.2269 22.9854,26.2414 C 21.82,25.0676 22.5588,23.7712 25.1462,21.7027 C 26.5731,20.4891 28.4991,19.0918 30.5495,17.3914 C 35.7239,13.1003 28.7143,9 28.7143,9 Z" fill="rgb(109, 174, 187)"/>
<path d="M 17.828999999999997,17.514 C 14.4066,21.3692 13.4456,30.717 18.6074,34.122 C 22.9003,36.9546 24.1735,35.7058 26.1427,34.1795 C 29.513,31.5666 29.3786,30.7794 28.0473,29.8028 C 22.9471,26.0611 14.4103,21.3652 17.8393,17.5288 Z" fill="rgb(8, 92, 101)"/>
</svg>
