<?xml version="1.0" encoding="UTF-8"?>
<!-- generated by Finnhub -->
<svg viewBox="0 0 55.5 55.5" xmlns="http://www.w3.org/2000/svg">
<path d="M 0,0 H 55.5 V 55.5 H 0 Z" fill="url(#a)"/>
<path d="M 21.99,37.985 A 10,10 0 1,0 22,18 A 10,10 0 0,0 22,38 Z M 22,40 A 12,12 0 1,0 22,16 A 12,12 0 0,0 22,40 Z" fill="rgb(198, 86, 1)" fill-rule="evenodd"/>
<path d="M 42.84,36.035 L 34.21,18.75 C 33.71,17.75 32.29,17.75 31.79,18.75 L 23.15,36.05 C 22.7,36.95 23.35,38 24.35,38 H 41.65 C 42.65,38 43.3,36.94 42.85,36.05 Z M 36,17.85 A 3.35,3.35 0 0,0 30,17.85 L 21.36,35.15 A 3.35,3.35 0 0,0 24.36,40 H 41.64 C 44.14,40 45.76,37.38 44.64,35.15 L 36,17.85 Z" fill="rgb(1, 118, 207)" fill-rule="evenodd"/>
<path d="M 23.72,37.835 A 10.06,10.06 0 0,1 21.28,37.97 C 21.68,38.9 22.5,39.64 23.54,39.9 C 25.41,39.66 27.14,39 28.64,38 H 24.36 C 24.13,38 23.92,37.95 23.73,37.85 Z M 30.1,22.13 L 31.08,20.16 C 30.63,19.63 30.12,19.14 29.58,18.7 L 28.66,20.54 C 29.19,21.02 29.68,21.55 30.1,22.14 Z" fill="rgb(199, 167, 205)"/>
<defs>
<linearGradient id="a" x1="10.42" x2="68.15" y1="9.71" y2="76.02" gradientUnits="userSpaceOnUse">
<stop stop-color="rgb(25, 29, 31)" offset="0"/>
<stop stop-color="rgb(5, 5, 8)" offset="1"/>
</linearGradient>
</defs>
</svg>
