<?xml version="1.0" encoding="UTF-8"?>
<!-- generated by Finnhub -->
<svg viewBox="0 0 55.5 55.5" xmlns="http://www.w3.org/2000/svg">
<path d="M 0,0 H 55.5 V 55.5 H 0 Z" fill="rgb(239, 242, 248)"/>
<path d="M 31.529999999999998,18.884999999999998 L 31.13,20.91 C 31.48,21.19 31.84,21.11 31.98,21.01 L 32.35,19.11 A 2.5,2.5 0 0,1 31.55,18.89 Z" fill="rgb(187, 206, 237)"/>
<path d="M 32.190000000000005,15.774999999999999 L 31.53,18.91 C 31.69,19.02 32.14,19.11 32.35,19.13 L 33.01,15.94 C 32.8,15.78 32.38,15.77 32.21,15.79 Z" fill="rgb(45, 128, 195)"/>
<path d="M 31.77,17.745 C 31.86,17.81 32.36,17.9 32.6,17.93 L 32.52,18.3 A 2.8,2.8 0 0,1 31.71,18.1 L 31.78,17.76 Z M 34.28,12.95 L 32.1,21.08 C 32.4,21.41 32.77,21.34 32.92,21.26 L 35.12,13.18 C 34.87,12.96 34.46,12.94 34.28,12.95 Z" fill="rgb(153, 185, 119)"/>
<path d="M 33.09,20.585 A 3.7,3.7 0 0,1 32.29,20.35 L 32.09,21.09 C 32.19,21.29 32.65,21.4 32.91,21.29 L 33.1,20.59 Z M 33.73,18.18 A 3.37,3.37 0 0,1 32.96,17.93 L 32.82,18.44 C 32.89,18.6 33.34,18.84 33.61,18.72 L 33.73,18.18 Z" fill="rgb(45, 128, 195)"/>
<path d="M 35.09,18.055 L 33.05,21.52 C 33.18,21.85 33.61,21.99 33.81,22.02 L 35.82,18.55 C 35.73,18.16 35.3,18.07 35.09,18.07 Z M 36.25,18.67 L 34,22.13 C 34.11,22.46 34.53,22.63 34.73,22.66 L 36.98,19.18 C 36.9,18.78 36.47,18.68 36.26,18.67 Z" fill="rgb(153, 185, 119)"/>
<path d="M 35.61,17.115 L 35.06,18.13 C 35.18,18.4 35.61,18.56 35.8,18.59 L 36.35,17.61 C 36.25,17.21 35.82,17.13 35.62,17.13 Z M 36.84,17.78 L 36.21,18.73 C 36.31,19.01 36.73,19.19 36.93,19.23 L 37.55,18.29 C 37.48,17.89 37.05,17.79 36.85,17.79 Z" fill="rgb(187, 206, 237)"/>
<path d="M 36.230000000000004,17.755 C 35.95,17.62 35.64,17.39 35.52,17.29 L 35.35,17.62 C 35.43,17.78 35.9,18.04 36.09,18.04 L 36.24,17.77 Z M 37.44,18.44 C 37.16,18.28 36.86,18.04 36.74,17.94 L 36.55,18.25 C 36.63,18.42 37.09,18.7 37.28,18.71 L 37.44,18.44 Z" fill="rgb(153, 185, 119)"/>
<path d="M 34.800000000000004,20.215 C 34.51,20.07 34.2,19.84 34.08,19.75 L 33.81,20.23 C 33.85,20.35 34.31,20.63 34.52,20.74 L 34.82,20.24 Z M 35.67,18.8 A 0.76,0.76 0 0,0 34.95,18.32 L 34.67,18.8 C 34.71,18.92 35.17,19.19 35.38,19.3 L 35.68,18.8 Z M 35.84,20.86 C 35.54,20.68 35.24,20.45 35.13,20.36 L 34.83,20.82 C 34.87,20.94 35.31,21.22 35.53,21.35 L 35.83,20.85 Z M 36.78,19.45 A 0.74,0.74 0 0,0 36.08,18.94 L 35.78,19.4 C 35.82,19.53 36.26,19.81 36.48,19.94 L 36.78,19.44 Z" fill="rgb(45, 128, 195)"/>
<path d="M 28.58,8.125 V 20.9 C 28.98,21.17 29.36,21.01 29.51,20.9 V 8.14 C 29.16,7.89 28.75,8.04 28.59,8.14 Z M 23.84,9.15 L 26.42,21.39 A 0.8,0.8 0 0,0 27.32,21.21 L 24.72,8.96 C 24.34,8.79 23.97,9.01 23.83,9.15 Z M 18.62,11.24 L 24.6,22.56 A 0.8,0.8 0 0,0 25.4,22.11 L 19.42,10.79 C 19,10.73 18.71,11.06 18.62,11.24 Z M 14.42,14.68 L 23,24.15 A 0.81,0.81 0 0,0 23.67,23.52 L 15.09,14.05 C 14.66,14.09 14.46,14.49 14.42,14.68 Z M 29.78,8.14 V 20.9 C 30.17,21.17 30.55,21.01 30.7,20.9 V 8.14 C 30.35,7.89 29.94,8.04 29.78,8.14 Z M 24.95,8.91 L 27.53,21.16 A 0.8,0.8 0 0,0 28.43,20.97 L 25.84,8.72 C 25.46,8.55 25.09,8.78 24.95,8.92 Z M 19.62,10.68 L 25.61,22 A 0.8,0.8 0 0,0 26.41,21.55 L 20.43,10.23 C 20.01,10.17 19.72,10.5 19.63,10.68 Z M 15.25,13.89 L 23.84,23.36 A 0.81,0.81 0 0,0 24.51,22.72 L 15.92,13.25 C 15.5,13.3 15.3,13.7 15.25,13.89 Z M 13.56,20.43 L 22.46,25.14 C 22.88,24.91 22.92,24.49 22.88,24.31 L 13.98,19.61 C 13.59,19.8 13.54,20.24 13.56,20.43 Z M 11.54,24.76 L 21.26,27.26 C 21.61,26.96 21.56,26.56 21.48,26.4 L 11.76,23.9 C 11.43,24.16 11.47,24.58 11.54,24.76 Z M 11.14,29.43 L 21.17,29.62 A 0.76,0.76 0 0,0 21.19,28.72 L 11.16,28.54 C 10.9,28.87 11.04,29.27 11.14,29.44 Z M 14.05,39.42 L 22.28,33.7 A 0.76,0.76 0 0,0 21.78,32.97 L 13.55,38.68 C 13.52,39.11 13.87,39.35 14.05,39.42 Z M 11.78,34.52 L 21.25,31.69 A 0.71,0.71 0 0,0 21,30.87 L 11.53,33.7 C 11.38,34.08 11.63,34.4 11.78,34.52 Z M 16.78,43.1 L 23.35,35.47 A 0.72,0.72 0 0,0 22.69,34.91 L 16.12,42.54 C 16.2,42.95 16.59,43.09 16.78,43.11 Z M 20.78,45.71 L 25.38,36.86 A 0.69,0.69 0 0,0 24.64,36.46 L 20.04,45.31 C 20.2,45.69 20.6,45.73 20.78,45.71 Z M 24.84,47.44 L 27.39,37.94 A 0.76,0.76 0 0,0 26.53,37.72 L 24,47.23 C 24.25,47.55 24.67,47.51 24.85,47.44 Z M 29.76,45.46 L 29.72,38.34 A 1,1 0 0,0 28.84,38.36 L 28.88,45.49 C 29.25,45.64 29.61,45.54 29.76,45.46 Z M 35.05,44.49 L 32.23,37.99 A 0.99,0.99 0 0,0 31.43,38.36 L 34.25,44.83 C 34.61,44.81 34.95,44.62 35.05,44.49 Z M 38.35,42.79 L 34.39,36.91 A 1,1 0 0,0 33.68,37.43 L 37.62,43.26 C 37.97,43.17 38.26,42.94 38.35,42.79 Z M 40.3,38.79 L 36.24,35.33 C 35.9,35.53 35.74,35.87 35.69,36.02 L 39.76,39.47 C 40.07,39.3 40.26,38.95 40.31,38.79 Z M 42.43,35.1 L 37.36,33.46 C 37.12,33.77 37.1,34.16 37.11,34.3 L 42.18,35.94 C 42.4,35.67 42.44,35.26 42.43,35.1 Z M 41.92,23.08 L 37.26,25.58 C 37.32,25.97 37.57,26.25 37.69,26.35 L 42.34,23.87 A 1.45,1.45 0 0,0 41.92,23.08 Z M 39.79,20.29 L 35.83,23.61 C 35.97,23.97 36.27,24.21 36.4,24.27 L 40.36,20.95 A 1.4,1.4 0 0,0 39.79,20.29 Z M 31.02,45.46 L 30.98,38.34 A 1,1 0 0,0 30.1,38.36 L 30.14,45.49 C 30.48,45.66 30.87,45.54 31.02,45.46 Z M 36.2,43.98 L 33.38,37.48 A 0.99,0.99 0 0,0 32.58,37.86 L 35.4,44.33 C 35.77,44.32 36.1,44.12 36.2,43.98 Z M 39.39,42.07 L 35.43,36.2 A 1,1 0 0,0 34.72,36.72 L 38.66,42.56 C 39.01,42.44 39.31,42.22 39.39,42.06 Z M 41.27,37.62 L 36.94,34.55 A 1.3,1.3 0 0,0 36.45,35.28 L 40.77,38.34 C 41.06,38.14 41.23,37.78 41.27,37.62 Z M 42.73,33.97 L 37.67,32.4 C 37.43,32.72 37.41,33.1 37.43,33.25 L 42.49,34.82 C 42.71,34.54 42.74,34.14 42.73,33.97 Z M 41.34,21.98 L 36.76,24.62 C 36.83,25 37.09,25.28 37.21,25.37 L 41.78,22.75 A 1.4,1.4 0 0,0 41.34,21.98 Z M 38.9,19.27 L 35.1,22.8 C 35.26,23.16 35.57,23.37 35.7,23.43 L 39.5,19.92 A 1.39,1.39 0 0,0 38.89,19.28 Z M 12.95,21.56 L 21.82,26.2 C 22.22,25.97 22.26,25.55 22.23,25.37 L 13.35,20.73 C 12.98,20.93 12.93,21.36 12.95,21.56 Z M 11.54,25.9 L 21.21,28.36 C 21.55,28.06 21.5,27.66 21.42,27.49 L 11.75,25.04 C 11.43,25.3 11.47,25.73 11.54,25.91 Z M 11.2,30.64 L 21.18,30.79 A 0.76,0.76 0 0,0 21.19,29.89 L 11.22,29.75 C 10.96,30.08 11.11,30.48 11.21,30.65 Z M 15.02,40.6 L 22.85,34.62 A 0.79,0.79 0 0,0 22.34,33.88 L 14.51,39.86 C 14.51,40.29 14.85,40.54 15.02,40.6 Z M 12.2,35.81 L 21.62,32.84 A 0.76,0.76 0 0,0 21.36,31.99 L 11.94,34.96 C 11.8,35.36 12.06,35.69 12.2,35.81 Z M 17.7,43.95 L 24.3,36.25 A 0.78,0.78 0 0,0 23.61,35.66 L 17,43.36 C 17.1,43.78 17.5,43.93 17.7,43.95 Z M 21.83,46.32 L 26.45,37.4 A 0.75,0.75 0 0,0 25.66,36.99 L 21.05,45.91 C 21.22,46.29 21.65,46.34 21.83,46.32 Z M 26.13,47.86 L 28.53,38.2 A 0.74,0.74 0 0,0 27.68,37.98 L 25.28,47.65 C 25.54,47.97 25.95,47.93 26.13,47.86 Z" fill="rgb(153, 185, 119)"/>
<path d="M 29.49,14.594999999999999 H 28.6 V 15.48 C 28.9,15.6 29.31,15.54 29.5,15.48 V 14.61 Z" fill="rgb(187, 206, 237)"/>
<path d="M 25.66,13.405 L 24.79,13.6 L 24.96,14.44 C 25.28,14.49 25.67,14.34 25.85,14.25 L 25.67,13.42 Z" fill="rgb(45, 128, 195)"/>
<path d="M 21.43,14.584999999999999 L 20.64,15.05 L 21.05,15.82 C 21.37,15.78 21.71,15.52 21.85,15.38 L 21.45,14.6 Z" fill="rgb(187, 206, 237)"/>
<path d="M 17.97,17.224999999999998 L 17.32,17.87 L 17.9,18.52 C 18.2,18.39 18.46,18.06 18.57,17.88 L 17.98,17.24 Z" fill="rgb(45, 128, 195)"/>
<path d="M 30.689999999999998,14.594999999999999 H 29.78 V 15.48 C 30.08,15.6 30.5,15.54 30.7,15.48 V 14.61 Z" fill="rgb(187, 206, 237)"/>
<path d="M 26.77,13.165 L 25.9,13.37 L 26.07,14.2 C 26.39,14.25 26.78,14.1 26.96,14.02 L 26.78,13.18 Z" fill="rgb(45, 128, 195)"/>
<path d="M 22.439999999999998,14.024999999999999 L 21.65,14.49 L 22.05,15.26 C 22.38,15.22 22.71,14.96 22.85,14.81 L 22.45,14.04 Z" fill="rgb(187, 206, 237)"/>
<path d="M 18.81,16.425 L 18.15,17.07 L 18.74,17.72 C 19.04,17.6 19.3,17.26 19.41,17.09 L 18.81,16.44 Z M 17.1,21.26 L 16.7,22.09 L 17.47,22.49 C 17.71,22.27 17.84,21.87 17.87,21.67 L 17.11,21.27 Z M 15.03,24.74 L 14.81,25.6 L 15.65,25.81 C 15.84,25.56 15.88,25.15 15.87,24.96 L 15.03,24.74 Z M 14.54,28.6 L 14.52,29.5 H 15.38 C 15.51,29.22 15.45,28.81 15.4,28.62 L 14.54,28.61 Z M 16.33,36.76 L 16.83,37.49 L 17.25,37.19 C 17.18,36.88 16.91,36.58 16.75,36.45 L 16.33,36.75 Z M 14.72,32.76 L 14.97,33.56 L 15.79,33.32 C 15.81,33.02 15.64,32.67 15.54,32.51 L 14.72,32.76 Z M 18.12,40.23 L 18.77,40.79 L 19.34,40.13 A 1.44,1.44 0 0,0 18.69,39.57 L 18.12,40.23 Z M 21.67,42.19 L 22.4,42.59 L 22.57,42.26 C 22.38,42.02 22.02,41.89 21.84,41.86 L 21.67,42.19 Z M 24.9,43.88 L 25.73,44.08 L 25.83,43.73 A 1.5,1.5 0 0,0 24.99,43.53 L 24.89,43.88 Z M 28.87,43.02 H 29.75 V 43.29 C 29.45,43.36 29.05,43.33 28.86,43.29 V 43.02 Z M 33.29,42.6 L 34.09,42.28 L 34.19,42.52 C 33.96,42.71 33.58,42.82 33.39,42.85 L 33.29,42.61 Z M 32.5,40.77 L 33.3,40.45 L 33.4,40.69 C 33.16,40.87 32.78,40.99 32.6,41.02 L 32.5,40.77 Z M 35.77,40.51 L 36.5,40.04 L 36.65,40.26 C 36.45,40.49 36.09,40.66 35.92,40.74 L 35.77,40.51 Z" fill="rgb(45, 128, 195)"/>
<path d="M 37.410000000000004,37.455 L 37.99,36.82 L 38.33,37.12 C 38.25,37.42 37.93,37.68 37.76,37.77 L 37.42,37.47 Z" fill="rgb(187, 206, 237)"/>
<path d="M 40.45,35.365 L 40.76,34.55 L 41.18,34.7 C 41.22,35.02 41.02,35.37 40.89,35.53 L 40.46,35.38 Z M 41.73,24.19 L 41.34,23.39 L 41.94,23.07 C 42.27,23.24 42.34,23.66 42.34,23.87 L 41.74,24.19 Z M 39.1,22 L 38.56,21.31 L 38.91,21.02 C 39.2,21.17 39.39,21.52 39.45,21.72 L 39.1,22 Z" fill="rgb(45, 128, 195)"/>
<path d="M 39.5,21.645 L 38.98,20.96 L 39.83,20.25 C 40.27,20.25 40.39,20.68 40.38,20.93 L 39.51,21.66 Z" fill="rgb(187, 206, 237)"/>
<path d="M 30.119999999999997,43.005 H 31 V 43.29 C 30.7,43.36 30.3,43.33 30.12,43.29 V 43.02 Z M 34.44,42.1 L 35.24,41.78 L 35.34,42.02 C 35.11,42.21 34.73,42.32 34.54,42.35 L 34.44,42.11 Z M 33.64,40.26 L 34.44,39.94 L 34.54,40.18 C 34.31,40.37 33.93,40.48 33.74,40.51 L 33.64,40.26 Z M 36.8,39.8 L 37.54,39.33 L 37.68,39.55 C 37.48,39.78 37.13,39.95 36.95,40.02 L 36.8,39.8 Z" fill="rgb(45, 128, 195)"/>
<path d="M 38.34,36.605 L 38.87,35.92 L 39.25,36.19 C 39.19,36.51 38.89,36.79 38.72,36.89 L 38.35,36.62 Z" fill="rgb(187, 206, 237)"/>
<path d="M 40.86,34.295 L 41.15,33.48 L 41.59,33.62 C 41.63,33.94 41.43,34.3 41.31,34.46 L 40.87,34.31 Z M 41.3,23.03 L 40.88,22.25 L 41.38,21.97 C 41.67,22.14 41.78,22.55 41.78,22.76 L 41.29,23.03 Z M 38.33,20.99 L 37.76,20.32 L 38.1,20.02 C 38.38,20.12 38.61,20.5 38.67,20.67 L 38.33,20.99 Z" fill="rgb(45, 128, 195)"/>
<path d="M 38.74,20.585 L 38.18,19.92 L 38.94,19.23 C 39.38,19.23 39.51,19.65 39.52,19.9 L 38.75,20.6 Z M 28.88,44.14 H 29.75 V 44.4 C 29.45,44.48 29.06,44.45 28.88,44.4 V 44.14 Z M 33.73,43.63 L 34.53,43.3 L 34.63,43.54 C 34.4,43.73 34.02,43.84 33.83,43.87 L 33.73,43.63 Z M 36.9,42.18 L 37.63,41.7 L 37.78,41.92 C 37.58,42.15 37.21,42.32 37.04,42.4 L 36.89,42.18 Z M 30.14,44.14 H 31 V 44.4 C 30.7,44.48 30.31,44.45 30.13,44.4 V 44.14 Z M 34.88,43.12 L 35.68,42.79 L 35.78,43.04 C 35.55,43.22 35.17,43.33 34.98,43.36 L 34.88,43.12 Z M 37.92,41.47 L 38.67,40.99 L 38.81,41.21 C 38.61,41.44 38.25,41.62 38.07,41.69 L 37.92,41.47 Z M 28.88,45 H 29.75 V 45.48 C 29.46,45.61 29.1,45.58 28.88,45.49 V 45 Z M 34.07,44.42 L 34.88,44.09 L 35.06,44.5 C 34.84,44.74 34.45,44.82 34.25,44.83 L 34.07,44.42 Z" fill="rgb(187, 206, 237)"/>
<path d="M 37.39,42.905 L 38.13,42.45 L 38.36,42.8 C 38.19,43.07 37.82,43.23 37.63,43.27 L 37.4,42.92 Z M 39.45,39.2 L 40.02,38.54 L 40.34,38.82 C 40.24,39.12 39.94,39.37 39.76,39.47 L 39.45,39.19 Z" fill="rgb(45, 128, 195)"/>
<path d="M 30.139999999999997,44.985 H 31.02 V 45.5 C 30.72,45.64 30.33,45.58 30.15,45.5 V 45 Z M 35.24,43.95 L 36.04,43.62 L 36.21,44.02 C 35.99,44.24 35.61,44.32 35.41,44.34 L 35.24,43.95 Z" fill="rgb(187, 206, 237)"/>
<path d="M 38.410000000000004,42.185 L 39.16,41.72 L 39.4,42.09 C 39.23,42.36 38.85,42.52 38.66,42.56 L 38.42,42.2 Z M 40.42,38.09 L 40.94,37.39 L 41.29,37.64 C 41.23,37.95 40.93,38.24 40.77,38.34 L 40.42,38.09 Z M 20.27,37.73 L 20.93,38.29 L 21.49,37.63 A 1.45,1.45 0 0,0 20.84,37.07 L 20.27,37.73 Z M 23.2,39.2 L 23.94,39.6 L 24.16,39.2 A 1.4,1.4 0 0,0 23.42,38.8 L 23.2,39.2 Z M 25.75,40.68 L 26.58,40.88 L 26.71,40.45 A 1.49,1.49 0 0,0 25.87,40.25 L 25.75,40.68 Z M 16.47,22.37 L 16.07,23.19 L 16.84,23.59 C 17.08,23.37 17.2,22.97 17.24,22.76 L 16.47,22.36 Z M 15.03,25.88 L 14.82,26.74 L 15.65,26.94 C 15.83,26.69 15.87,26.29 15.86,26.09 L 15.03,25.88 Z M 14.54,29.8 V 30.68 L 15.39,30.69 C 15.51,30.4 15.46,30.01 15.4,29.82 L 14.54,29.81 Z M 17.16,37.82 L 17.67,38.56 L 18.08,38.27 A 1.59,1.59 0 0,0 17.58,37.53 L 17.16,37.83 Z M 15.08,33.97 L 15.34,34.82 L 16.15,34.56 C 16.18,34.25 16,33.88 15.89,33.71 L 15.09,33.97 Z M 18.96,41.08 L 19.66,41.66 L 20.23,40.99 C 20.07,40.71 19.72,40.49 19.53,40.41 L 18.96,41.08 Z M 22.66,42.78 L 23.44,43.18 L 23.6,42.9 C 23.4,42.66 23.01,42.53 22.82,42.49 L 22.66,42.79 Z M 26.1,44.26 L 26.96,44.47 L 27.05,44.16 A 1.51,1.51 0 0,0 26.2,43.94 L 26.1,44.26 Z M 21.12,38.56 L 21.82,39.14 L 22.39,38.48 A 1.6,1.6 0 0,0 21.69,37.9 L 21.12,38.56 Z M 24.22,39.77 L 25,40.18 L 25.21,39.78 C 25.01,39.53 24.63,39.4 24.44,39.37 L 24.22,39.77 Z M 26.92,41 L 27.76,41.22 L 27.88,40.77 A 1.5,1.5 0 0,0 27.04,40.56 L 26.92,41 Z M 29.5,18.7 H 28.59 V 19.57 C 28.89,19.69 29.31,19.63 29.5,19.57 V 18.7 Z M 26.87,19.1 L 25.98,19.3 L 26.16,20.13 C 26.48,20.18 26.86,20.03 27.04,19.94 L 26.87,19.1 Z M 24.38,20.17 L 23.58,20.61 L 23.98,21.39 C 24.3,21.34 24.64,21.09 24.78,20.94 L 24.38,20.17 Z M 22.2,21.9 L 21.53,22.53 L 22.11,23.17 C 22.41,23.05 22.68,22.72 22.78,22.54 L 22.19,21.89 Z M 30.7,18.7 H 29.78 V 19.57 C 30.08,19.69 30.5,19.63 30.69,19.57 V 18.7 Z M 27.98,18.87 L 27.09,19.06 L 27.27,19.89 C 27.59,19.94 27.97,19.79 28.15,19.7 L 27.98,18.87 Z M 25.38,19.6 L 24.58,20.05 L 24.98,20.83 C 25.31,20.78 25.65,20.53 25.79,20.38 L 25.39,19.61 Z M 23.03,21.1 L 22.36,21.73 L 22.95,22.38 C 23.25,22.25 23.51,21.92 23.62,21.75 L 23.03,21.1 Z" fill="rgb(45, 128, 195)"/>
<path d="M 16.759999999999998,36.425 L 18.14,35.49 L 18.67,36.2 L 17.29,37.16 A 2.68,2.68 0 0,0 16.77,36.44 Z M 17.6,37.5 L 18.92,36.5 L 19.46,37.2 L 18.14,38.22 A 2.72,2.72 0 0,0 17.61,37.49 Z" fill="rgb(187, 206, 237)"/>
<path d="M 25.4,28.215 C 25.61,28.07 25.86,27.99 26.14,28 C 26.6,28 26.97,28.29 27.1,28.43 L 26.74,28.77 A 1,1 0 0,0 26.13,28.49 A 0.58,0.58 0 0,0 25.73,28.61 A 0.3,0.3 0 0,0 25.63,28.87 C 25.63,28.93 25.68,29.02 25.83,29.11 C 25.98,29.19 26.15,29.25 26.26,29.27 C 26.4,29.3 26.62,29.35 26.81,29.47 C 27.01,29.61 27.17,29.84 27.17,30.17 C 27.17,30.52 26.96,30.73 26.75,30.84 C 26.55,30.94 26.35,30.97 26.26,30.99 A 1,1 0 0,1 25.98,30.99 C 25.88,30.97 25.77,30.95 25.65,30.91 C 25.43,30.84 25.15,30.71 25,30.48 L 25.41,30.2 C 25.48,30.3 25.62,30.38 25.81,30.44 A 1.46,1.46 0 0,0 26.17,30.5 C 26.27,30.48 26.4,30.46 26.51,30.4 C 26.61,30.35 26.67,30.28 26.67,30.17 A 0.3,0.3 0 0,0 26.52,29.89 A 1,1 0 0,0 26.16,29.76 C 26.01,29.73 25.78,29.66 25.58,29.53 C 25.38,29.42 25.15,29.22 25.13,28.9 A 0.8,0.8 0 0,1 25.41,28.23 Z" fill="rgb(45, 128, 195)"/>
<path d="M 29.229999999999997,30.485 A 1,1 0 0,0 30.24,29.5 A 1,1 0 0,0 29.24,28.5 A 1,1 0 0,0 28.25,29.5 A 1,1 0 0,0 29.25,30.5 Z M 29.24,31 A 1.5,1.5 0 0,0 30.74,29.5 A 1.5,1.5 0 0,0 27.76,29.5 C 27.76,30.33 28.42,31 29.24,31 Z M 41.13,30.5 A 1,1 0 0,0 42.12,29.5 A 1,1 0 0,0 41.13,28.5 A 1,1 0 0,0 40.14,29.5 A 1,1 0 0,0 41.14,30.5 Z M 41.13,31 A 1.5,1.5 0 0,0 42.62,29.5 C 42.62,28.67 41.95,28 41.13,28 A 1.5,1.5 0 0,0 39.64,29.5 C 39.64,30.33 40.31,31 41.14,31 Z" fill="rgb(45, 128, 195)" fill-rule="evenodd"/>
<path d="M 31.31,27.985 H 31.82 V 30.5 H 33.22 V 31 H 31.32 V 28 Z M 33.75,28 H 35.85 V 28.5 H 34.25 V 29.25 H 35.63 V 29.75 H 34.25 V 30.5 H 35.85 V 31 H 33.75 V 28 Z M 36.5,28 H 37 L 38.51,30.05 V 28 H 39.01 V 31 H 38.58 L 37,28.9 V 31 H 36.5 V 28 Z" fill="rgb(45, 128, 195)"/>
</svg>
