<?xml version="1.0" encoding="UTF-8"?>
<!-- generated by Finnhub -->
<svg viewBox="0 0 55.5 55.5" xmlns="http://www.w3.org/2000/svg">
<path d="M 0,0 H 55.5 V 55.5 H 0 Z" fill="rgb(239, 242, 248)"/>
<path d="M 10.99,22.985 H 5.95 C 5.59,23 5.05,23.26 5,23.98 C 4.98,24.15 5.06,24.57 5.4,25.04 L 7.52,28.04 L 5.74,30.6 H 7.12 L 8.61,28.53 A 0.85,0.85 0 0,0 8.61,27.51 C 8.31,27.1 6.09,24 6.09,24 H 11 V 23 Z M 11,32 H 5 A 1,1 0 0,0 6,33 H 11 V 32 Z M 22,23 H 21 V 32 A 1,1 0 0,0 22,33 H 27 V 32 H 22 V 23 Z M 14,24 H 19 V 23 H 14 A 1,1 0 0,0 13,24 V 26 H 14 V 24 Z M 14,28.5 H 19 V 27.5 H 14 A 1,1 0 0,0 13,28.46 V 32.04 A 1,1 0 0,0 14,33 H 19 V 32 H 14 V 28.5 Z M 28,23 H 29 V 32 H 34.77 L 35.4,30.47 C 35.48,30.29 35.62,30 36.1,30 H 40.79 L 38.59,24.2 L 37.06,28 H 35.96 L 37.69,23.63 C 37.83,23.32 38.13,23 38.59,23 S 39.33,23.26 39.46,23.54 L 43,33 H 41.88 L 41.08,31 H 36.27 L 35.45,33 H 29 A 1,1 0 0,1 28,32 V 23 Z M 44,25.5 A 2.5,2.5 0 0,1 46.5,23 H 48.5 C 49.5,23 50.35,23.58 50.75,24.42 L 49.88,24.91 A 1.5,1.5 0 0,0 48.5,24 H 46.5 C 45.67,24 45,24.67 45,25.5 V 26 C 45,26.83 45.67,27.5 46.5,27.5 H 48.5 A 2.5,2.5 0 0,1 51,30 V 30.5 C 51,30.67 50.98,30.84 50.95,31 H 49.91 C 49.97,30.84 50,30.68 50,30.5 V 30 C 50,29.17 49.33,28.5 48.5,28.5 H 46.5 A 2.5,2.5 0 0,1 44,26 V 25.5 Z M 44.23,31.56 L 45.1,31.05 C 45.32,31.61 45.87,32 46.5,32 H 50.5 C 50.04,32.6 49.32,33 48.5,33 H 46.5 C 45.5,33 44.63,32.4 44.23,31.56 Z" fill="rgb(1, 84, 153)"/>
</svg>
