<?xml version="1.0" encoding="UTF-8"?>
<!-- generated by Finnhub -->
<svg viewBox="0 0 55.5 55.5" xmlns="http://www.w3.org/2000/svg">
<path d="M 0,0 H 55.5 V 55.5 H 0 Z" fill="rgb(62, 55, 104)"/>
<path d="M 11.85,19.217 C 9.652,19.937 8.167,21.626 8.019,23.593 C 7.926,24.855 8.167,25.69 8.909,26.711 C 9.652,27.731 11.249,28.474 14.217,29.141 C 18.263,30.07 18.931,30.478 18.931,32.148 C 18.931,33.744 17.631,34.802 15.683,34.783 C 13.147,34.762 11.606,33.313 11,31 H 7.998 L 8,37 H 11 V 35.705 C 13.519,36.822 16.81,37.738 19.45,36.509 C 21.64,35.507 22.81,33.522 22.587,31.202 C 22.42,29.235 21.307,27.862 19.357,27.119 C 18.82,26.915 17.187,26.451 15.739,26.099 C 11.953,25.152 11.213,24.291 11.731,22.888 C 12.121,21.83 12.974,21.366 14.459,21.366 C 16.272,21.366 18.576,22.068 19,24 H 22 V 19 H 19 V 20.744 C 18.926,20.707 17.78,19.919 17.168,19.604 C 15.675,18.857 13.458,18.7 11.861,19.232 Z M 25,21 H 27 L 26.998,35 H 25 V 37 H 32 V 35 H 30 V 22.984 L 35,34 H 38 L 43,23 V 35 H 41 V 37 H 48 V 35 H 46 V 21 H 48 V 19 H 41 L 36.5,29.5 S 33.055,21.683 32,19 H 25 V 21 Z" fill="rgb(254, 254, 253)"/>
</svg>
