<?xml version="1.0" encoding="UTF-8"?>
<!-- generated by Finnhub -->
<svg viewBox="0 0 55.5 55.5" xmlns="http://www.w3.org/2000/svg">
<path d="M 0,0 H 55.5 V 55.5 H 0 Z" fill="rgb(239, 242, 248)"/>
<path d="M 28.009999999999998,12.985 A 15.17,15.17 0 0,0 13,27.98 A 15,15 0 1,0 43,28 C 43,19.83 36.2,13 28.02,13 Z M 32.2,41.49 C 32.04,41.53 31.86,41.56 31.68,41.56 C 30.28,41.56 29,40.43 29,39.01 V 33.77 C 29,31.45 32.08,29.37 32.96,28.86 C 33.01,28.83 32.98,28.76 32.94,28.76 C 31.14,28.92 29.85,29.65 29.51,29.85 C 29.49,29.87 29.44,29.85 29.44,29.8 C 29.51,29.56 29.69,28.83 30.03,28.16 A 0.05,0.05 0 0,0 29.96,28.09 C 29.06,28.63 28.38,29.39 28.2,29.6 C 28.18,29.62 28.16,29.62 28.14,29.6 A 8.77,8.77 0 0,0 26.47,26.96 C 26.42,26.94 26.37,26.96 26.37,27.01 C 26.56,27.81 26.78,29.2 26.71,30.14 C 26.71,30.17 26.69,30.19 26.65,30.17 C 26.31,29.97 24.45,28.92 23.06,28.7 C 23.02,28.7 22.97,28.77 23.02,28.79 C 23.76,29.33 27,31.52 27,33.77 V 39.01 C 27,40.41 25.7,41.61 24.28,41.61 C 24.1,41.61 23.92,41.58 23.76,41.53 A 14.29,14.29 0 0,1 14,27.98 A 14,14 0 0,1 42,27.98 C 42,34.32 37.95,39.68 32.2,41.48 Z" fill="rgb(20, 26, 32)"/>
<path d="M 40.02,15.955 A 17,17 0 0,0 11,27.97 C 11,37.36 18.62,44.97 28,45 A 17.01,17.01 0 0,0 40.03,15.97 Z M 28,44 C 19.1,44 12,36.9 12,28 C 12,19.12 19.12,12 28,12 C 36.88,12 44,19.1 44,28 C 44,36.88 36.88,44 28,44 Z" fill="rgb(20, 26, 32)"/>
<path d="M 34.9,23.035 C 34.91,23.03 34.88,23.03 34.86,23.01 C 34.62,22.99 33.26,22.91 31.99,24.25 C 30.71,25.59 31.02,26.74 31.07,26.95 C 31.07,26.97 31.1,26.97 31.12,26.99 C 31.36,27.02 32.74,27.06 34,25.75 C 35.3,24.44 34.99,23.26 34.91,23.05 Z M 28.32,22.05 C 27.61,23.75 28.29,24.81 28.42,24.98 L 28.47,25 C 28.7,24.95 29.97,24.64 30.68,22.95 C 31.39,21.28 30.71,20.19 30.58,20.02 L 30.53,20 C 30.3,20.05 29.03,20.39 28.32,22.05 Z M 37.03,28.4 C 35.34,27.61 34.23,28.22 34.03,28.32 C 34,28.32 34,28.34 34,28.37 C 34.02,28.59 34.3,29.83 35.97,30.61 C 37.66,31.39 38.77,30.78 38.97,30.68 C 39,30.68 39,30.66 39,30.63 C 38.98,30.39 38.73,29.15 37.03,28.39 Z M 23.08,19.03 C 23.06,19.03 23.04,19.05 23.04,19.06 C 22.99,19.23 22.81,20.18 24.12,21.16 S 26.69,22.01 26.92,21.97 C 26.94,21.97 26.96,21.95 26.96,21.94 C 27.01,21.77 27.19,20.82 25.88,19.84 A 3.83,3.83 0 0,0 23.08,19.03 Z M 22.1,23 C 22.08,23 22.06,23.03 22.06,23.05 C 22,23.26 21.79,24.41 22.75,25.75 C 23.71,27.08 24.72,27.01 24.9,26.99 C 24.92,26.99 24.94,26.97 24.94,26.95 C 25,26.74 25.21,25.59 24.25,24.25 C 23.31,22.92 22.3,22.99 22.1,23.01 Z M 18.97,28.4 C 17.27,29.17 17.02,30.41 17,30.63 C 17,30.65 17,30.68 17.02,30.68 C 17.22,30.8 18.34,31.38 20.03,30.6 C 21.73,29.83 21.98,28.61 22,28.37 C 22,28.35 22,28.32 21.98,28.32 C 21.78,28.2 20.63,27.62 18.97,28.4 Z" fill="rgb(20, 26, 32)"/>
</svg>
