<?xml version="1.0" encoding="UTF-8"?>
<!-- generated by Finnhub -->
<svg viewBox="0 0 55.5 55.5" xmlns="http://www.w3.org/2000/svg">
<path d="M 0,0 H 55.5 V 55.5 H 0 Z" fill="rgb(239, 242, 248)"/>
<path d="M 21.52,32.985 H 19.57 L 34.8,18 L 36.72,19.93 L 35.78,20.88 L 34.8,19.9 L 21.53,33 Z M 23.7,36 H 21.74 L 37.27,20.37 L 39.19,22.3 L 38.25,23.25 L 37.27,22.27 L 23.7,36 Z M 29.5,33 H 31.45 L 39.68,24.92 L 40.66,25.9 L 41.6,24.95 L 39.68,23.02 L 29.5,33 Z M 33.5,36 H 31.54 L 42.16,25.33 L 44.08,27.26 L 43.14,28.21 L 42.16,27.22 L 33.5,36 Z M 39.37,33 L 41.32,33.02 L 44.62,29.72 L 45.6,30.69 L 46.54,29.75 L 44.62,27.82 L 39.37,33 Z M 43.34,36 H 41.38 L 47.08,30.3 L 49,32.25 V 34.14 L 47.08,32.21 L 43.34,36.01 Z" fill="rgb(190, 147, 58)"/>
<path d="M 5.99,31.955 V 34.02 L 20.07,19.89 L 21.05,20.88 L 22,19.93 L 20.07,18 L 6,31.97 Z M 9.74,33 H 11.69 L 22.55,22.27 L 23.53,23.25 L 24.48,22.3 L 22.55,20.37 L 9.74,33 Z M 13.92,36 H 11.96 L 24.96,23.02 L 26.89,24.95 L 25.94,25.9 L 24.97,24.92 L 13.92,36 Z" fill="rgb(87, 87, 85)"/>
</svg>
