<?xml version="1.0" encoding="UTF-8"?>
<!-- generated by Finnhub -->
<svg viewBox="0 0 55.5 55.5" xmlns="http://www.w3.org/2000/svg">
<path d="M 0,0 H 55.5 V 55.5 H 0 Z" fill="rgb(1, 130, 63)"/>
<path d="M 17.564999999999998,13.545 C 16.671,14.467 15.189,17.827 14.575,20.314 C 13.815,23.204 13.815,29.218 14.538,32.342 C 15.298,35.635 16.997,38.827 18.805,40.339 C 20.215,41.515 20.287,41.549 20.975,40.978 C 21.915,40.205 23.614,36.778 24.228,34.459 C 24.988,31.704 24.879,23.774 24.084,21.053 C 23.252,18.197 21.878,15.744 20.287,14.199 C 18.805,12.787 18.407,12.687 17.575,13.56 Z M 33.413,20.549 C 31.786,21.322 29.471,23.573 28.603,25.186 C 27.013,28.142 26.687,32.174 27.989,32.678 C 29.508,33.182 33.449,29.688 34.823,26.597 C 35.618,24.85 35.908,22.061 35.438,20.919 C 35.004,19.877 34.859,19.843 33.413,20.549 Z M 36.305,32.914 C 31.713,33.888 27.772,35.87 25.06,38.558 C 23.252,40.339 22.059,42.322 22.565,42.792 C 22.71,42.926 24.554,43.027 26.651,42.993 C 29.978,42.993 30.918,42.825 33.232,42.019 C 38.15,40.306 42.163,37.449 43.609,34.594 C 44.043,33.754 44.116,33.35 43.826,33.082 C 43.176,32.477 38.728,32.41 36.306,32.914 Z" fill="rgb(254, 254, 253)"/>
</svg>
