<?xml version="1.0" encoding="UTF-8"?>
<!-- generated by Finnhub -->
<svg fill="none" viewBox="0 0 55.5 55.5" xmlns="http://www.w3.org/2000/svg">
<rect width="56" height="56" fill="rgb(239, 242, 248)"/>
<path d="M 8.7341,24.338 C 10.9624,21.6395 17.4082,16.4428 25.4451,17.3638 C 23.4933,16.4449 18.6655,15.0675 14.9681,16.9094 C 10.7603,19.0057 9.1101,23.3889 8.7982,24.2173 C 8.76756,24.2987 8.74984,24.3457 8.74388,24.353 Z M 31.4551,31.115 C 23.7479,32.2271 19.0611,37.4566 17.6811,39.9324 C 17.6834,39.9283 17.733,39.9328 17.8246,39.941 C 19.0388,40.0508 27.6404,40.8282 31.4546,31.115 Z" clip-rule="evenodd" fill="url(#d)" fill-rule="evenodd"/>
<path d="M 47.246,24.338 C 45.0377,21.6395 38.5919,16.4428 30.555,17.3638 C 32.5068,16.4449 37.3346,15.0675 41.032,16.9094 C 45.2398,19.0057 46.8901,23.3889 47.2019,24.2173 C 47.2326,24.2987 47.2503,24.3457 47.2563,24.353 Z M 24.545,31.115 C 32.2522,32.2271 36.939,37.4566 38.319,39.9324 C 38.3167,39.9283 38.2671,39.9328 38.1755,39.941 C 36.9613,40.0508 28.3597,40.8282 24.5455,31.115 Z" clip-rule="evenodd" fill="url(#c)" fill-rule="evenodd"/>
<path d="M 9.4168,33.937 C 8.95118,33.1814 8,31.2808 8,29.8427 C 8,28.0451 9.7651,25.4411 15.1993,22.1333 C 25.9113,15.6124 41.2823,18.6255 43.6723,19.2562 C 43.4229,19.2562 43.128,19.2525 42.7916,19.2482 C 37.1317,19.1761 19.7276,18.9545 9.4266,33.9522 Z M 11.1511,35.6534 C 11.5089,36.2721 12.7004,37.8481 14.604,39.202 C 17.8023,34.2065 24.0887,25.913 37.262,25.279 C 24.837,20.6347 14.678,30.2602 11.151,35.653 Z" clip-rule="evenodd" fill="url(#b)" fill-rule="evenodd"/>
<path d="M 46.564,33.937 C 47.0496,33.1814 48.0009,31.2808 48.0009,29.8427 C 48.0009,28.0451 46.2358,25.4411 40.8016,22.1333 C 30.0896,15.6124 14.7186,18.6255 12.3286,19.2562 C 12.5781,19.2562 12.873,19.2525 13.2094,19.2482 C 18.8692,19.1761 36.2734,18.9545 46.5744,33.9522 Z M 44.8496,35.6534 C 44.4918,36.2721 43.3003,37.8481 41.3967,39.202 C 38.1984,34.2065 31.9121,25.913 18.7387,25.279 C 31.1637,20.6347 41.3227,30.2602 44.8497,35.653 Z" clip-rule="evenodd" fill="url(#a)" fill-rule="evenodd"/>
<path d="M 27.99,20.891 C 25.5361,20.2137 23.1627,19.8039 21.0183,19.5636 C 23.3268,18.8573 25.6981,18.4383 28,18.2172 C 30.3018,18.4383 32.6732,18.8573 34.9816,19.5636 C 32.8373,19.8039 30.4639,20.2137 28,20.906 Z M 38.577,18.3766 C 41.1109,18.6719 42.9629,19.0688 43.6721,19.2559 C 43.4226,19.2559 43.1277,19.2522 42.7913,19.2479 C 42.1833,19.2401 41.4398,19.2307 40.5841,19.2385 C 39.9465,18.924 39.2764,18.6331 38.577,18.3766 Z M 17.423,18.3766 C 16.7235,18.6331 16.0534,18.924 15.4158,19.2385 C 14.5601,19.2307 13.8166,19.2401 13.2086,19.2479 C 12.8722,19.2522 12.5773,19.2559 12.3278,19.2559 C 13.037,19.0688 14.889,18.6719 17.423,18.3766 Z M 30.587,33.0056 C 29.8215,34.4411 28.9382,35.586 28.0002,36.4981 C 27.0622,35.586 26.1789,34.4411 25.4133,33.0056 C 26.218,32.6032 27.0805,32.2397 28.0002,31.9325 C 28.9198,32.2397 29.7824,32.6032 30.587,33.0056 Z M 33.1927,25.7451 C 31.2979,26.0968 29.5724,26.6175 28.0001,27.261 C 26.4278,26.6175 24.7023,26.0968 22.8075,25.7451 C 24.4284,25.037 26.1662,24.5061 28.0001,24.2398 C 29.834,24.5061 31.5718,25.037 33.1927,25.7451 Z" clip-rule="evenodd" fill="rgb(134, 65, 33)" fill-rule="evenodd"/>
<defs>
<linearGradient id="d" x1="10.72" x2="27.14" y1="32.783" y2="23.704" gradientUnits="userSpaceOnUse">
<stop stop-color="rgb(121, 123, 125)" offset="0"/>
<stop stop-color="rgb(151, 153, 155)" offset=".89834"/>
</linearGradient>
<linearGradient id="c" x1="25.258" x2="36.907" y1="13.793" y2="39.545" gradientUnits="userSpaceOnUse">
<stop stop-color="rgb(194, 84, 35)" offset="0"/>
<stop stop-color="rgb(173, 72, 35)" offset="1"/>
</linearGradient>
<linearGradient id="b" x1="11.698" x2="34.398" y1="31.949" y2="23.526" gradientUnits="userSpaceOnUse">
<stop stop-color="rgb(121, 123, 125)" offset="0"/>
<stop stop-color="rgb(178, 180, 181)" offset=".53796"/>
<stop stop-color="rgb(121, 123, 125)" offset="1"/>
</linearGradient>
<linearGradient id="a" x1="19.911" x2="37.838" y1="21.678" y2="40.164" gradientUnits="userSpaceOnUse">
<stop stop-color="rgb(168, 69, 35)" offset="0"/>
<stop stop-color="rgb(222, 101, 36)" offset=".4616"/>
<stop stop-color="rgb(168, 69, 35)" offset="1"/>
</linearGradient>
</defs>
</svg>
