<?xml version="1.0" encoding="UTF-8"?>
<!-- generated by Finnhub -->
<svg viewBox="0 0 55.5 55.5" xmlns="http://www.w3.org/2000/svg">
<path d="M 0,0 H 55.5 V 55.5 H 0 Z" fill="rgb(23, 26, 28)"/>
<path d="M 36.99,16.245 A 11.48,11.48 0 0,0 23.99,30 A 9.92,9.92 0 0,1 18,20.93 C 18,15.44 22.52,11 28.1,11 C 31.95,11 35.3,13.13 37,16.26 Z M 19,39.74 A 11.48,11.48 0 0,0 32.01,26 A 9.93,9.93 0 0,1 38,35.07 C 38,40.56 33.48,45 27.9,45 C 24.05,45 20.7,42.87 19,39.74 Z" fill="rgb(254, 254, 253)"/>
<path d="M 25.99,23.884999999999998 A 11.45,11.45 0 0,1 39.78,34.46 C 39.83,35.33 39.79,36.18 39.66,37 A 10.1,10.1 0 0,0 44.98,27.44 A 9.99,9.99 0 0,0 34.43,18.02 A 9.95,9.95 0 0,0 26,23.9 Z M 30,32.1 A 11.45,11.45 0 0,1 16.34,19 A 10.1,10.1 0 0,0 11.02,28.56 A 9.99,9.99 0 0,0 21.57,37.98 A 9.95,9.95 0 0,0 30,32.1 Z" fill="rgb(254, 254, 253)"/>
</svg>
