<?xml version="1.0" encoding="UTF-8"?>
<!-- generated by Finnhub -->
<svg viewBox="0 0 55.5 55.5" xmlns="http://www.w3.org/2000/svg">
<path d="M 0,0 H 55.5 V 55.5 H 0 Z" fill="rgb(239, 242, 248)"/>
<path d="M 44.68,39.985 H 11 C 22.28,31.66 39.7,29.86 47,30 V 37.6 C 47,38.93 45.97,40 44.69,40 Z" fill="rgb(228, 6, 30)"/>
<path d="M 8.99,38.985 V 19.2 C 9,17.44 10.4,16 12.12,16 H 47 V 28.04 C 34.95,28.04 23.55,29.32 9,39 Z M 16.06,21.02 L 16.86,19.92 A 3.6,3.6 0 0,0 14.62,19 A 2.33,2.33 0 0,0 12.28,21.25 C 12.28,22.48 13.61,23.07 14.27,23.37 C 14.9,23.58 15.97,24.24 15.3,25.12 C 14.61,26.02 13.4,25.14 12.88,24.59 L 12,25.56 C 12.31,26.04 13.25,27 14.49,27 C 16.04,27 17.09,25.8 17.09,24.43 C 17.09,23.33 16,22.53 15.46,22.27 A 31.8,31.8 0 0,0 15.29,22.19 C 14.53,21.84 13.52,21.37 14.2,20.59 C 14.5,20.31 15.23,20.01 16.06,21.02 Z M 17.5,27 L 18.92,19 H 19.89 L 21.83,24.05 L 23.78,19 H 24.88 L 26,27 H 24.6 L 23.94,22.35 L 22,27 H 21.54 L 19.7,22.35 L 18.91,27 H 17.5 Z M 26.5,27 L 29.74,19 H 30.78 L 34,27 H 32.38 L 31.8,25.5 H 28.67 L 28.07,27 H 26.5 Z M 29.26,24 H 31.22 L 30.25,21.47 L 29.25,24 Z" fill="rgb(1, 74, 128)" fill-rule="evenodd"/>
</svg>
