<?xml version="1.0" encoding="UTF-8"?>
<!-- generated by Finnhub -->
<svg viewBox="0 0 55.5 55.5" xmlns="http://www.w3.org/2000/svg">
<path d="M 0,0 H 55.5 V 55.5 H 0 Z" fill="rgb(239, 242, 248)"/>
<path d="M 16.139999999999997,33.155 C 16.15,41.26 22.44,44.43 25.47,45 C 16.14,43.44 14,36.28 14,31.72 C 14,27.83 15.4,25.22 20.53,19.94 A 21.68,21.68 0 0,0 26.13,8.84 C 26.13,8.39 26.44,8 26.87,8 C 27.21,8 27.3,8.37 27.3,8.56 C 26.75,11.28 25.7,16.96 25.3,18.42 C 30.5,14.52 31.5,10.22 31.74,9.83 C 31.98,9.44 32.34,8 32.84,8 C 33.32,8 33.38,8.44 33.38,8.89 C 33.14,11.5 30.04,18.94 29.62,19.94 C 34.43,20.28 42,24.5 42,31.9 S 35.84,43.98 30.9,43.98 C 25.96,43.98 19.38,40.9 19.38,33.78 C 19.38,27.18 25.85,25.48 29.01,25.48 C 31.94,25.48 36.61,27.12 36.61,32.45 C 36.61,37.79 32.35,38.85 30.15,38.85 C 27.46,38.85 24.77,36.88 24.77,33.77 C 24.77,30.17 27.63,29.59 29.07,29.59 C 31.23,29.59 32.31,31.34 32.31,33.18 C 32.31,35.51 30.16,35.25 29.61,35.25 C 30.11,34.91 30.69,34.83 30.69,33.77 C 30.69,32.72 30.11,31.65 29.08,31.65 C 28.04,31.65 26.92,32.61 26.92,33.77 C 26.92,35.44 28.38,37.07 30.34,37.07 C 32.29,37.07 34.46,35.62 34.46,32.67 C 34.46,29.73 32.12,27.54 29.01,27.54 C 25.47,27.54 21.54,29.88 21.54,33.77 C 21.54,38.33 25.47,41.93 30.9,41.93 C 36.33,41.93 39.85,36.07 39.85,32.45 C 39.85,22.18 28.05,22.12 25.85,22.4 C 27.74,19.62 29.13,17.62 29.62,16.23 C 27.54,18.95 24.55,20.63 23.69,20.86 C 24.18,19.75 24.5,17.53 24.77,16.23 C 23.97,18.13 22.09,21.7 20.53,23.34 C 18.58,25.4 16.15,29.29 16.15,33.18 Z" fill="url(#a)"/>
<defs>
<linearGradient id="a" x1="28" x2="28" y1="8" y2="45" gradientUnits="userSpaceOnUse">
<stop stop-color="rgb(241, 199, 30)" offset="0"/>
<stop stop-color="rgb(228, 131, 18)" offset="1"/>
</linearGradient>
</defs>
</svg>
