<?xml version="1.0" encoding="UTF-8"?>
<!-- generated by Finnhub -->
<svg viewBox="0 0 55.5 55.5" xmlns="http://www.w3.org/2000/svg">
<path d="M 0,0 H 55.5 V 55.5 H 0 Z" fill="rgb(18, 48, 84)"/>
<path d="M 27.99,11.985 C 19.165,12 12,19.18 12,28 S 19.165,44 28,44 S 44,36.82 44,28 C 43.956,19.157 36.835,12 28,12 Z M 32.857,30.017 L 28.483,38.679 S 28.33,39 28,39 C 27.67,39 27.56,38.679 27.56,38.679 S 23.077,30.148 23.033,30.017 C 22.967,29.863 22.967,29.579 23.099,29.338 C 23.275,29.054 23.649,29.01 23.649,29.01 H 32.374 C 32.704,29.01 32.857,29.12 32.945,29.382 C 33.077,29.688 32.857,30.017 32.857,30.017 Z M 32.945,26.627 C 32.835,26.889 32.681,26.999 32.374,26.999 H 23.648 S 23.275,26.999 23.098,26.67 A 0.855,0.855 0 0,1 23.033,25.992 C 23.099,25.839 27.56,17.3 27.56,17.3 S 27.67,17 28,17 C 28.286,17 28.483,17.3 28.483,17.3 L 32.879,26.014 C 32.857,25.97 33.077,26.342 32.945,26.627 Z" fill="rgb(254, 254, 253)"/>
</svg>
