<?xml version="1.0" encoding="UTF-8"?>
<!-- generated by Finnhub -->
<svg viewBox="0 0 55.5 55.5" xmlns="http://www.w3.org/2000/svg">
<path d="M 0,0 H 55.5 V 55.5 H 0 Z" fill="rgb(239, 242, 248)"/>
<path d="M 36.120000000000005,21.095 L 22.31,34.8 L 40.42,39.6 C 40.76,39.7 41.08,39.38 40.98,39.05 L 36.13,21.1 Z" fill="rgb(1, 149, 211)"/>
<path d="M 39.29,17.035 L 16.56,11.02 A 0.44,0.44 0 0,0 16.02,11.55 L 22.3,34.8 L 39.48,17.78 A 0.44,0.44 0 0,0 39.28,17.05 Z" fill="rgb(1, 200, 230)"/>
<path d="M 22.29,34.785 L 24.16,41.64 L 18.09,40.03 A 0.5,0.5 0 0,1 17.86,39.19 L 22.31,34.79 Z" fill="rgb(28, 57, 176)"/>
<path d="M 22.29,34.785 L 35.07,38.18 L 26.3,46.86 A 0.47,0.47 0 0,1 25.52,46.66 L 22.3,34.8 Z" fill="rgb(31, 106, 204)"/>
</svg>
