<?xml version="1.0" encoding="UTF-8"?>
<!-- generated by Finnhub -->
<svg viewBox="0 0 55.5 55.5" xmlns="http://www.w3.org/2000/svg">
<path d="M 0,0 H 55.5 V 55.5 H 0 Z" fill="rgb(239, 242, 248)"/>
<path d="M 15.38,13.045 C 15.81,12.87 16.19,13.18 16.56,13.35 A 33.93,33.93 0 0,1 25.82,20.34 C 26.44,21.06 27.05,21.81 27.53,22.62 C 27.73,22.91 27.63,23.26 27.46,23.52 C 27.11,23.77 26.56,23.82 26.3,23.41 C 25.75,22.61 25.2,21.81 24.5,21.11 A 32.56,32.56 0 0,0 16.08,14.77 A 41.17,41.17 0 0,0 13.64,24.47 C 13.32,27.4 13.4,30.51 14.81,33.17 C 16.76,37.15 20.26,40.52 24.61,41.83 C 25.34,42.04 25.15,43.23 24.39,43.23 C 23.57,43.13 22.81,42.77 22.06,42.45 A 18.51,18.51 0 0,1 12.84,32.38 C 11.88,29.7 11.87,26.79 12.19,24 A 42,42 0 0,1 14.83,13.87 C 14.96,13.57 15.04,13.19 15.39,13.06 Z M 38.69,13.16 C 38.99,12.94 39.47,12.93 39.72,13.24 C 40.16,13.73 40.52,14.29 40.86,14.84 A 23.14,23.14 0 0,1 43.86,29.08 A 15.9,15.9 0 0,1 35.41,41.85 C 35.07,42.03 34.65,42.27 34.27,42.06 C 33.75,41.82 33.76,40.97 34.3,40.76 A 14.14,14.14 0 0,0 39.97,35.82 A 15.24,15.24 0 0,0 42.44,28.44 C 42.83,23.67 41.7,18.74 39,14.73 A 33.94,33.94 0 0,0 32.33,20.7 C 31.05,22.13 29.92,23.7 28.97,25.37 A 17.6,17.6 0 0,0 26.77,34.81 A 22.9,22.9 0 0,0 28.12,41.63 C 28.4,42.43 28.72,43.21 29.04,43.98 C 29.27,44.42 28.91,45 28.41,44.99 C 28.05,45.05 27.74,44.77 27.63,44.45 A 33.5,33.5 0 0,1 26.35,41.01 A 22.33,22.33 0 0,1 25.59,30.44 A 19.54,19.54 0 0,1 28,24.1 A 33.35,33.35 0 0,1 32.57,18.2 A 33.72,33.72 0 0,1 38.69,13.17 Z" fill="rgb(87, 87, 88)"/>
<path d="M 32.32,20.685 A 28.25,28.25 0 0,1 38.69,17.5 A 20.95,20.95 0 0,1 41.29,25.12 C 41.65,27.84 41.36,30.68 40.19,33.19 A 14.81,14.81 0 0,1 35.51,38.67 C 33.6,40.07 31.46,41.17 29.21,41.91 C 30.38,39.21 31.2,36.31 31.19,33.35 C 31.25,30.55 30.55,27.71 28.97,25.37 A 27.25,27.25 0 0,1 32.33,20.7 Z" fill="rgb(166, 167, 210)"/>
<path d="M 15.620000000000001,28.275 C 15.71,24.85 16.53,21.46 17.78,18.25 C 20.16,18.83 22.44,19.81 24.5,21.12 C 25.2,21.8 25.75,22.61 26.3,23.41 C 26.55,23.81 27.1,23.77 27.46,23.53 C 27.65,23.71 27.83,23.9 28,24.1 A 19.54,19.54 0 0,0 25.6,30.44 C 24.92,33.96 25.32,37.6 26.35,41.01 C 23.5,39.89 20.72,38.39 18.57,36.19 C 17.63,35.19 16.81,34.05 16.34,32.77 A 13.1,13.1 0 0,1 15.64,28.29 Z" fill="rgb(110, 201, 201)"/>
<path d="M 26.75,34.785 C 26.84,35.55 26.95,36.29 27.18,37 C 27.68,38.68 28.34,40.31 29.05,41.91 L 28.12,41.63 A 22.9,22.9 0 0,1 26.76,34.81 Z" fill="rgb(110, 201, 201)"/>
<path d="M 26.75,34.785 A 17.6,17.6 0 0,1 28.97,25.37 A 13.85,13.85 0 0,1 31.19,33.34 C 31.19,36.3 30.38,39.2 29.21,41.91 A 0.14,0.14 0 0,1 29.05,41.91 A 40.15,40.15 0 0,1 27.18,37 C 26.95,36.29 26.84,35.55 26.76,34.8 Z" fill="rgb(84, 147, 172)"/>
</svg>
