<?xml version="1.0" encoding="UTF-8"?>
<!-- generated by Finnhub -->
<svg viewBox="0 0 55.5 55.5" xmlns="http://www.w3.org/2000/svg">
<path d="M 0,0 H 55.5 V 55.5 H 0 Z" fill="rgb(239, 242, 248)"/>
<path d="M 6.29,30.985 A 4.9,4.9 0 0,1 4,30.45 L 4.13,29.55 C 4.66,29.9 5.46,30.22 6.33,30.22 C 7.36,30.22 8,29.64 8,28.64 C 8,27.77 7.7,27.34 6.37,26.76 C 4.72,26.02 4,25.45 4,24.22 C 4,22.9 5.17,22 6.6,22 C 7.43,22 8.06,22.19 8.52,22.46 L 8.39,23.34 C 7.89,23.01 7.29,22.78 6.57,22.78 C 5.55,22.78 4.99,23.4 4.99,24.18 C 4.99,24.96 5.39,25.34 6.73,25.95 C 8.34,26.66 9,27.29 9,28.59 C 8.99,30.08 7.81,31 6.3,31 Z M 12.54,31.57 C 12.14,32.67 11.6,33 10.78,33 C 10.62,33 10.5,32.98 10.42,32.97 L 10.23,32.21 C 10.37,32.23 10.53,32.25 10.71,32.25 C 11.21,32.25 11.51,32.04 11.75,31.4 L 11.97,30.68 L 9.83,25 H 10.88 L 12.42,29.53 L 14.02,25 H 15.03 L 12.53,31.57 Z M 20,30.98 V 26.95 C 20,26.2 19.74,25.74 18.94,25.74 C 18.26,25.74 17.7,26.12 17,26.76 V 31 H 16 V 25 H 16.83 L 16.98,25.99 C 17.44,25.41 18.08,25 19.11,24.99 C 20.38,24.99 21,25.67 21,26.79 V 31 H 20 Z M 26,26.05 C 25.54,25.82 25.3,25.7 24.7,25.7 C 23.65,25.7 23,26.43 23,28.08 C 23,29.51 23.5,30.27 24.43,30.27 C 25.13,30.27 25.48,29.85 26,29.22 V 26.05 Z M 26.24,31 L 26.09,30.13 C 25.81,30.61 25.2,31 24.35,31 C 23.07,31 22,30.08 22,28.12 C 22,25.98 23.24,25 24.66,25 C 25.25,25 25.59,25.11 26,25.3 V 22 H 27 V 31 H 26.24 Z M 32,27.82 C 29.47,28.05 29,28.6 29,29.38 C 29,30.01 29.37,30.32 30.05,30.32 C 30.75,30.32 31.38,29.98 32,29.45 V 27.82 Z M 32.17,31 L 32,30.21 C 31.51,30.69 30.84,31 29.92,31 C 28.8,31 28,30.45 28,29.43 C 28,28.07 29.1,27.45 32,27.19 V 26.81 C 32,26.04 31.6,25.71 30.8,25.71 C 30.03,25.71 29.28,25.91 28.58,26.21 L 28.46,25.51 C 29.2,25.21 29.94,25 30.84,25 C 32.26,25 33,25.6 33,26.78 V 31 H 32.17 Z M 37.87,31 L 36.5,28.96 L 35.13,31 H 34 L 36.06,27.92 L 34,25 H 35.13 L 36.5,27.02 L 37.87,25 H 39 L 36.94,27.9 L 39,31 H 37.87 Z" fill="rgb(91, 101, 110)"/>
<path d="M 48.15,24.384999999999998 L 48.66,25.05 L 50.31,25.83 L 51.91,25.75 L 48.16,24.39 Z" fill="rgb(138, 145, 150)"/>
<path d="M 48.580000000000005,28.085 L 48.96,27.14 L 50.37,26.08 L 52,25.98 L 48.59,28.1 Z" fill="rgb(91, 101, 110)"/>
<path d="M 45.14,23.235 L 45.43,23.75 L 46.59,24.33 L 47.83,24.21 L 45.15,23.25 Z" fill="rgb(254, 139, 66)"/>
<path d="M 44.89,26.075 L 45.33,25.36 L 46.59,24.51 L 47.84,24.39 L 44.9,26.09 Z" fill="rgb(254, 79, 2)"/>
<path d="M 44.870000000000005,26.285 L 45.22,27.08 L 46.64,28.08 H 48.2 L 44.88,26.31 Z" fill="rgb(237, 101, 106)"/>
<path d="M 44.49,30.645 L 45.06,29.54 L 46.64,28.36 H 48.22 L 44.51,30.66 Z" fill="rgb(214, 1, 52)"/>
<path d="M 42.88,22.415 L 43.06,22.83 L 43.9,23.27 L 44.9,23.15 L 42.89,22.43 Z" fill="rgb(66, 181, 192)"/>
<path d="M 42.29,24.705 L 42.75,24.12 L 43.88,23.41 L 44.89,23.31 L 42.29,24.71 Z" fill="rgb(1, 149, 167)"/>
<path d="M 42.25,24.865 L 42.41,25.48 L 43.39,26.19 L 44.59,26.13 L 42.26,24.88 Z" fill="rgb(254, 193, 90)"/>
<path d="M 41.39,28.155 L 41.98,27.33 L 43.35,26.41 L 44.57,26.34 L 41.4,28.17 Z" fill="rgb(246, 167, 2)"/>
<path d="M 41.330000000000005,28.405 L 41.49,29.36 L 42.62,30.63 H 44.15 L 41.34,28.43 Z" fill="rgb(79, 135, 150)"/>
<path d="M 39.99,33.555 L 40.79,32.27 L 42.56,30.97 H 44.16 L 40,33.56 Z" fill="rgb(1, 87, 109)"/>
</svg>
