<?xml version="1.0" encoding="UTF-8"?>
<!-- generated by Finnhub -->
<svg fill="none" viewBox="0 0 55.5 55.5" xmlns="http://www.w3.org/2000/svg">
<rect width="56" height="56" fill="url(#a)"/>
<path d="M 6.3368,31.985999999999997 C 5.63833,32.001 5.0671,31.8295 4.6486,31.4915 C 4.44105,31.3296 4.2739,31.1183 4.16115,30.8755 C 4.04841,30.6326 3.99335,30.3652 4.0006,30.0957 V 29.8066 C 3.99879,29.7726 4.00391,29.7386 4.01563,29.7069 C 4.02735,29.6751 4.0454,29.6463 4.06861,29.6223 S 4.11965,29.5796 4.15029,29.5676 C 4.18092,29.5555 4.21366,29.5503 4.24636,29.5524 H 4.68603 C 4.71869,29.5503 4.7514,29.5555 4.78198,29.5676 C 4.81257,29.5796 4.84035,29.5983 4.86348,29.6223 C 4.88662,29.6463 4.90458,29.6752 4.91619,29.7069 C 4.9278,29.7387 4.93279,29.7727 4.93083,29.8066 V 30.0588 C 4.92777,30.2046 4.95991,30.3489 5.0243,30.4784 C 5.08869,30.608 5.18329,30.7188 5.29947,30.8006 C 5.5577,31 5.92826,31.0997 6.40057,31.0997 C 6.82297,31.0997 7.1436,31.01 7.35384,30.8335 C 7.45221,30.7525 7.53078,30.6485 7.58316,30.53 C 7.63553,30.4115 7.66024,30.2818 7.65528,30.1516 C 7.66088,29.9853 7.61291,29.8218 7.51896,29.687 C 7.3918,29.5243 7.23402,29.3903 7.05528,29.2931 C 6.74456,29.1178 6.42398,28.962 6.0953,28.8265 C 5.7349,28.6803 5.38239,28.5138 5.0393,28.328 C 4.78099,28.1868 4.55708,27.9863 4.38459,27.7418 C 4.20569,27.4688 4.11523,27.1436 4.12635,26.8136 C 4.12635,26.2423 4.32315,25.7896 4.71002,25.4696 C 5.0969,25.1496 5.60473,25.001 6.24792,25.001 C 6.94583,25.001 7.50742,25.1765 7.91732,25.5224 C 8.12129,25.6904 8.28469,25.9055 8.39452,26.1506 S 8.55757,26.664 8.54995,26.9342 V 27.1396 C 8.55177,27.1736 8.54665,27.2075 8.53493,27.2393 S 8.50515,27.2999 8.48195,27.3239 C 8.45874,27.3479 8.4309,27.3666 8.40027,27.3786 C 8.36964,27.3907 8.3369,27.3959 8.3042,27.3938 H 7.85588 C 7.82318,27.3959 7.79044,27.3907 7.75981,27.3786 C 7.72918,27.3666 7.70134,27.3479 7.67813,27.3239 C 7.65493,27.2999 7.63687,27.2711 7.62515,27.2393 S 7.60831,27.1736 7.61013,27.1396 V 26.9721 C 7.61343,26.8255 7.58333,26.6802 7.52227,26.548 S 7.37092,26.3004 7.25877,26.2114 C 7.01589,26.006 6.66742,25.8983 6.22097,25.8983 C 5.83698,25.8983 5.53554,25.9781 5.33683,26.1356 C 5.24161,26.2134 5.16625,26.3142 5.11737,26.4293 S 5.04759,26.6702 5.05651,26.7956 C 5.04913,26.9586 5.09628,27.1193 5.18995,27.2503 C 5.30543,27.3951 5.4499,27.5122 5.6133,27.5932 C 5.81394,27.6979 6.13074,27.8395 6.55601,28.011 C 6.92619,28.1634 7.28604,28.3416 7.63311,28.5444 C 7.90424,28.704 8.14031,28.9207 8.32622,29.1805 C 8.51602,29.4549 8.61505,29.7858 8.60845,30.1236 C 8.61679,30.3869 8.56555,30.6485 8.45884,30.8875 C 8.35214,31.1264 8.19295,31.3361 7.99406,31.4995 C 7.59183,31.8325 7.03887,32.001 6.34676,32.001 Z" fill="rgb(254, 254, 253)"/>
<path d="M 19.253,31.985 C 19.2134,31.9993 19.1646,31.9866 19.1209,31.963 C 19.0773,31.9394 19.04,31.9056 19.0124,31.8645 L 16.0032,26.9882 L 16.0001,31.7402 C 16.0022,31.7749 16.0061,31.8096 15.9937,31.842 C 15.9814,31.8745 15.9622,31.9039 15.9376,31.9285 C 15.9129,31.953 15.8833,31.9721 15.8507,31.9844 S 15.7832,32.002 15.7484,32 H 15.2624 C 15.2276,32.002 15.1927,31.9967 15.16,31.9844 C 15.1274,31.9721 15.0977,31.9531 15.073,31.9285 C 15.0482,31.904 15.029,31.8745 15.0165,31.8421 C 15.004,31.8096 14.9985,31.7749 15.0005,31.7402 V 25.2606 C 14.9985,25.2259 15.004,25.1912 15.0165,25.1587 C 15.029,25.1263 15.0482,25.0968 15.073,25.0723 C 15.0977,25.0477 15.1274,25.0287 15.16,25.0164 C 15.1927,25.0041 15.2276,24.9988 15.2624,25.0008 H 15.7402 C 15.7897,25.0017 15.8383,25.0145 15.8818,25.0381 C 15.9252,25.0617 15.9623,25.0954 15.9899,25.1363 L 19.0001,30.0177 V 25.2667 C 18.9973,25.2316 18.9938,25.1963 19.0058,25.1632 C 19.0179,25.13 19.0369,25.0999 19.0616,25.0747 S 19.1162,25.0299 19.1492,25.0171 C 19.1821,25.0044 19.2175,24.9988 19.2528,25.0008 H 19.7409 C 19.7754,24.9995 19.8098,25.0054 19.8419,25.018 C 19.8741,25.0306 19.9032,25.0497 19.9276,25.0741 C 19.9519,25.0986 19.9709,25.1277 19.9833,25.1598 S 20.0013,25.2262 19.9997,25.2606 V 31.7402 C 20.0017,31.7749 19.9962,31.8096 19.9837,31.8421 C 19.9712,31.8745 19.952,31.904 19.9272,31.9285 C 19.9025,31.9531 19.8728,31.9721 19.8402,31.9844 C 19.8075,31.9967 19.7726,32.002 19.7378,32 H 19.263 Z" fill="rgb(254, 254, 253)"/>
<path d="M 28.389999999999997,31.985 C 27.6915,32 27.1203,31.8286 26.7018,31.4906 C 26.4942,31.3286 26.3271,31.1174 26.2143,30.8745 C 26.1016,30.6317 26.0465,30.3643 26.0538,30.0948 V 29.8056 C 26.052,29.7717 26.0571,29.7377 26.0688,29.7059 S 26.0986,29.6453 26.1218,29.6213 S 26.1728,29.5787 26.2035,29.5666 C 26.2341,29.5546 26.2668,29.5494 26.2995,29.5514 H 26.7392 C 26.7719,29.5494 26.8046,29.5545 26.8351,29.5666 C 26.8657,29.5787 26.8935,29.5973 26.9166,29.6213 C 26.9398,29.6454 26.9577,29.6742 26.9694,29.706 C 26.981,29.7378 26.986,29.7717 26.984,29.8056 V 30.0579 C 26.9809,30.2036 27.0131,30.3479 27.0775,30.4775 C 27.1419,30.607 27.2365,30.7178 27.3526,30.7997 C 27.6109,30.9991 27.9814,31.0988 28.4537,31.0988 C 28.8761,31.0988 29.1968,31.009 29.407,30.8326 C 29.5054,30.7515 29.5839,30.6475 29.6363,30.529 S 29.7134,30.2809 29.7084,30.1506 C 29.714,29.9845 29.6664,29.8211 29.5731,29.686 C 29.4455,29.5233 29.2874,29.3894 29.1084,29.2922 C 28.7977,29.1169 28.4771,28.961 28.1485,28.8256 C 27.7864,28.6797 27.4322,28.5132 27.0877,28.3271 C 26.8296,28.1847 26.606,27.9832 26.4339,27.7378 C 26.2562,27.4654 26.1661,27.1415 26.1766,26.8126 C 26.1766,26.2413 26.3734,25.7887 26.7603,25.4686 C 27.1472,25.1486 27.655,25 28.2963,25 C 28.9942,25 29.5558,25.1755 29.9657,25.5215 C 30.1697,25.6894 30.3331,25.9045 30.4429,26.1496 S 30.606,26.663 30.5983,26.9332 V 27.1386 C 30.6001,27.1722 30.5951,27.2057 30.5837,27.2371 C 30.5722,27.2685 30.5546,27.2971 30.5319,27.321 C 30.5093,27.345 30.482,27.3637 30.452,27.3761 C 30.4219,27.3885 30.3897,27.3942 30.3574,27.3929 H 29.9091 C 29.8764,27.3949 29.8436,27.3897 29.813,27.3777 C 29.7824,27.3656 29.7545,27.347 29.7313,27.323 S 29.6901,27.2701 29.6783,27.2384 C 29.6666,27.2066 29.6615,27.1726 29.6633,27.1386 V 26.9711 C 29.6666,26.8246 29.6365,26.6792 29.5755,26.547 C 29.5144,26.4148 29.4241,26.2995 29.312,26.2104 C 29.0691,26.005 28.7206,25.8974 28.2742,25.8974 C 27.8902,25.8974 27.5888,25.9771 27.3901,26.1346 C 27.2949,26.2124 27.2195,26.3132 27.1706,26.4283 S 27.1008,26.6692 27.1098,26.7947 C 27.1024,26.9577 27.1495,27.1183 27.2432,27.2493 C 27.3591,27.3927 27.5035,27.5084 27.6665,27.5883 C 27.8672,27.693 28.184,27.8345 28.6093,28.006 C 28.9794,28.1585 29.3393,28.3367 29.6864,28.5394 C 29.9576,28.6993 30.1939,28.9159 30.3804,29.1755 C 30.5688,29.4522 30.6658,29.7849 30.6569,30.1237 C 30.6652,30.3869 30.614,30.6486 30.5073,30.8875 C 30.4006,31.1265 30.2414,31.3361 30.0425,31.4996 C 29.6451,31.8316 29.0921,32 28.4,32 Z" fill="rgb(254, 254, 253)"/>
<path d="M 33.25,31.985 C 33.1203,32 32.9964,31.8782 32.9959,31.7402 V 26.107 C 32.9959,26.0529 32.9474,26 32.8927,26 H 31.264 C 31.2294,26.0001 31.195,25.9986 31.163,25.9856 S 31.1018,25.9535 31.0773,25.9294 C 31.0528,25.9052 31.0333,25.8765 31.02,25.845 C 31.0067,25.8134 30.9999,25.7795 30.9999,25.7453 V 25.2659 C 30.999,25.2313 31.0052,25.1969 31.0181,25.1646 C 31.0309,25.1324 31.0502,25.103 31.0747,25.0783 C 31.0992,25.0535 31.1285,25.0338 31.1608,25.0204 C 31.1932,25.0069 31.2279,25 31.263,25 H 35.7315 C 35.7666,24.9995 35.8014,25.0058 35.8339,25.0187 S 35.896,25.0507 35.921,25.075 C 35.946,25.0992 35.9658,25.1282 35.9793,25.1601 S 35.9998,25.2262 35.9998,25.2608 V 25.7402 C 35.9995,25.8092 35.9716,25.8753 35.9221,25.924 S 35.8055,26 35.7357,26 H 34.1174 C 34.0627,26 33.9998,26.0478 33.9998,26.1019 V 31.7351 C 33.9998,31.8729 33.8907,31.9949 33.7511,31.9949 L 33.26,32 Z" fill="rgb(254, 254, 253)"/>
<path d="M 44.292,31.985 C 43.8882,32.0082 43.4787,31.914 43.1085,31.7253 C 42.7666,31.5488 42.482,31.275 42.2891,30.9369 C 42.091,30.5822 41.99,30.1795 41.9968,29.7712 V 27.2109 C 41.9905,26.8068 42.0915,26.4084 42.2891,26.0582 C 42.4826,25.7232 42.7654,25.4515 43.1046,25.2748 C 43.4763,25.0863 43.8871,24.9924 44.302,25.0011 C 44.7147,24.993 45.1234,25.0851 45.4945,25.2698 C 45.8321,25.4418 46.115,25.7083 46.3099,26.0383 C 46.5079,26.3818 46.609,26.7745 46.6022,27.1731 C 46.6029,27.208 46.5969,27.2427 46.5843,27.2752 C 46.5718,27.3077 46.553,27.3373 46.5291,27.3622 C 46.5062,27.3861 46.479,27.405 46.4489,27.418 S 46.3864,27.4377 46.3538,27.4379 L 45.8968,27.4648 C 45.8637,27.4682 45.8303,27.4643 45.7987,27.4535 C 45.7672,27.4426 45.7383,27.425 45.7139,27.4019 C 45.6896,27.3787 45.6704,27.3505 45.6576,27.3191 C 45.6447,27.2877 45.6386,27.2539 45.6396,27.2199 V 27.191 C 45.6396,26.4125 45.0686,26.0005 44.302,26.0005 C 43.5415,26.0005 42.9637,26.4078 43.0002,27.188 V 29.7991 C 42.9631,30.5793 43.5418,31.0005 44.302,31.0005 C 45.068,31.0005 45.6367,30.5782 45.6367,29.7991 C 45.6339,29.7645 45.6383,29.7297 45.6498,29.697 C 45.6612,29.6643 45.6793,29.6344 45.7029,29.6094 C 45.7265,29.5845 45.7551,29.5649 45.7867,29.5521 C 45.8183,29.5394 45.8522,29.5336 45.8861,29.5353 L 46.3606,29.5642 C 46.3922,29.563 46.4238,29.5686 46.4532,29.5805 C 46.4827,29.5923 46.5094,29.6102 46.5318,29.6331 S 46.5717,29.6833 46.5833,29.7134 S 46.6004,29.7757 46.5993,29.808 C 46.606,30.211 46.505,30.6082 46.307,30.9568 C 46.1128,31.289 45.8294,31.5574 45.4906,31.7302 C 45.1209,31.9151 44.7135,32.0076 44.302,32 Z" fill="rgb(254, 254, 253)"/>
<path d="M 9.540000000000001,27.399 C 9.59518,27.4604 9.65647,27.4864 9.72036,27.4864 H 10.2161 C 10.2791,27.4867 10.3396,27.4616 10.3847,27.4164 C 10.4298,27.3713 10.4558,27.3097 10.4571,27.2451 V 26.1009 C 10.4571,26.0738 10.4675,26.0479 10.4861,26.0288 S 10.5299,25.999 10.5562,25.999 H 13.7468 C 13.8139,25.9987 13.8783,25.9711 13.9256,25.9223 C 13.973,25.8734 13.9996,25.8073 13.9996,25.7383 V 25.2601 C 13.9996,25.1912 13.973,25.1252 13.9256,25.0765 S 13.8139,25.0004 13.7468,25.0004 H 9.73128 C 9.66448,25.0009 9.60058,25.0285 9.55343,25.0771 C 9.50629,25.1257 9.4797,25.1915 9.47944,25.2601 V 27.239 C 9.47944,27.3046 9.50483,27.3675 9.55001,27.414 Z M 9.7325,28.0015 H 12.7419 C 12.8093,28.0015 12.8739,28.0312 12.9215,28.084 C 12.9692,28.1369 12.9959,28.2085 12.9959,28.2833 V 28.7175 C 12.9959,28.7925 12.9691,28.8645 12.9212,28.9175 C 12.8734,28.9706 12.8086,29.0004 12.7409,29.0004 H 9.7325 C 9.66513,29.0004 9.60052,28.9707 9.55288,28.9179 C 9.50524,28.865 9.47848,28.7934 9.47848,28.7186 V 28.2833 C 9.47848,28.2083 9.50535,28.1363 9.55317,28.0833 C 9.601,28.0302 9.66586,28.0004 9.7335,28.0004 L 9.7325,28.0015 Z M 9.73134,31.9984 C 9.66419,31.9984 9.59978,31.971 9.55221,31.9224 C 9.50464,31.8737 9.47778,31.8076 9.47752,31.7387 V 29.7598 C 9.47752,29.7272 9.48382,29.6949 9.49606,29.6648 C 9.50831,29.6347 9.52625,29.6074 9.54884,29.5844 C 9.57144,29.5615 9.59824,29.5434 9.6277,29.5312 C 9.65715,29.519 9.68867,29.5129 9.72043,29.5133 H 10.2162 C 10.2798,29.5133 10.3409,29.5393 10.3859,29.5855 S 10.4561,29.6944 10.4561,29.7598 V 30.8986 C 10.4561,30.9256 10.4666,30.9515 10.4852,30.9706 S 10.529,31.0004 10.5553,31.0004 H 13.7459 C 13.8125,31.0004 13.8765,31.0273 13.924,31.0753 S 13.9987,31.1886 13.9997,31.2571 V 31.7407 C 13.9997,31.8096 13.9731,31.8756 13.9256,31.9243 C 13.8782,31.973 13.8139,32.0004 13.7469,32.0004 L 9.73138,31.9984 Z" clip-rule="evenodd" fill="rgb(254, 254, 253)" fill-rule="evenodd"/>
<path d="M 21.061999999999998,27.399 C 21.1172,27.4604 21.1785,27.4865 21.2424,27.4865 H 21.7381 C 21.8581,27.487 21.9979,27.3704 22.0004,27.2451 V 26.1009 C 22.0004,26.0449 22.007,25.999 22.0782,25.999 H 25.2688 C 25.3359,25.9987 25.4002,25.9712 25.4476,25.9223 S 25.5216,25.8073 25.5216,25.7383 V 25.2601 C 25.5216,25.1912 25.495,25.1252 25.4476,25.0765 C 25.4001,25.0278 25.3358,25.0004 25.2688,25.0004 H 21.2533 C 21.1865,25.0009 21.1226,25.0285 21.0754,25.0771 C 21.0283,25.1257 21.0017,25.1915 21.0014,25.2601 V 27.239 C 21.0014,27.3046 21.0268,27.3676 21.072,27.414 Z M 21.2545,28.0015 H 24.2639 C 24.3313,28.0015 24.3959,28.0312 24.4435,28.084 C 24.4912,28.1369 24.5179,28.2086 24.5179,28.2833 V 28.7175 C 24.5179,28.7926 24.4911,28.8645 24.4432,28.9176 C 24.3954,28.9706 24.3305,29.0004 24.2629,29.0004 H 21.2545 C 21.1871,29.0004 21.1225,28.9707 21.0749,28.9179 C 21.0272,28.865 21.0005,28.7934 21.0005,28.7186 V 28.2833 C 21.0005,28.2083 21.0274,28.1363 21.0752,28.0833 C 21.123,28.0302 21.1879,28.0004 21.2555,28.0004 L 21.2545,28.0015 Z M 21.2533,31.9984 C 21.1862,31.9984 21.1218,31.971 21.0742,31.9224 C 21.0266,31.8737 20.9998,31.8076 20.9995,31.7387 V 29.7598 C 20.9995,29.7272 21.0058,29.6949 21.0181,29.6648 C 21.0303,29.6347 21.0483,29.6074 21.0708,29.5844 C 21.0934,29.5615 21.1202,29.5434 21.1497,29.5312 S 21.2107,29.5129 21.2424,29.5133 H 21.7605 C 21.8241,29.5133 21.8851,29.5393 21.9301,29.5855 C 21.9751,29.6318 22.0004,29.6944 22.0004,29.7598 V 30.8986 C 22.0004,30.9256 22.0109,30.9515 22.0294,30.9706 C 22.048,30.9897 22.0733,31.0004 22.0996,31.0004 H 25.2679 C 25.3345,31.0004 25.3985,31.0273 25.446,31.0753 C 25.4934,31.1234 25.5206,31.1886 25.5217,31.2571 V 31.7407 C 25.5217,31.8096 25.495,31.8756 25.4476,31.9243 S 25.3359,32.0004 25.2689,32.0004 L 21.2533,31.9984 Z" clip-rule="evenodd" fill="rgb(254, 254, 253)" fill-rule="evenodd"/>
<path d="M 37.065000000000005,27.399 C 37.1202,27.4604 37.1815,27.4865 37.2454,27.4865 H 37.7411 C 37.8611,27.487 38.0009,27.3704 38.0034,27.2451 V 26.1009 C 38.0034,26.0449 38.01,25.999 38.0812,25.999 H 41.2718 C 41.339,25.9987 41.4033,25.9712 41.4506,25.9223 C 41.498,25.8734 41.5246,25.8073 41.5246,25.7383 V 25.2601 C 41.5246,25.1912 41.498,25.1252 41.4506,25.0765 S 41.3389,25.0004 41.2718,25.0004 H 37.2563 C 37.1895,25.0009 37.1256,25.0285 37.0784,25.0771 C 37.0313,25.1257 37.0047,25.1915 37.0045,25.2601 V 27.239 C 37.0045,27.3046 37.0298,27.3676 37.075,27.414 Z M 37.2575,28.0015 H 40.2669 C 40.3343,28.0015 40.3989,28.0312 40.4465,28.084 C 40.4942,28.1369 40.5209,28.2086 40.5209,28.2833 V 28.7175 C 40.5209,28.7926 40.4941,28.8645 40.4462,28.9176 C 40.3984,28.9706 40.3336,29.0004 40.2659,29.0004 H 37.2575 C 37.1902,29.0004 37.1255,28.9707 37.0779,28.9179 C 37.0303,28.865 37.0035,28.7934 37.0035,28.7186 V 28.2833 C 37.0035,28.2083 37.0304,28.1363 37.0782,28.0833 C 37.126,28.0302 37.1909,28.0004 37.2585,28.0004 L 37.2575,28.0015 Z M 37.2564,31.9984 C 37.1892,31.9984 37.1248,31.971 37.0772,31.9224 C 37.0297,31.8737 37.0028,31.8076 37.0025,31.7387 V 29.7598 C 37.0025,29.7272 37.0088,29.6949 37.0211,29.6648 C 37.0333,29.6347 37.0513,29.6074 37.0739,29.5844 C 37.0965,29.5615 37.1233,29.5434 37.1527,29.5312 C 37.1822,29.519 37.2137,29.5129 37.2455,29.5133 H 37.7635 C 37.8271,29.5133 37.8882,29.5393 37.9331,29.5855 C 37.9781,29.6318 38.0034,29.6944 38.0034,29.7598 V 30.8986 C 38.0034,30.9256 38.0139,30.9515 38.0325,30.9706 S 38.0763,31.0004 38.1026,31.0004 H 41.2709 C 41.3375,31.0004 41.4015,31.0273 41.449,31.0753 C 41.4965,31.1234 41.5237,31.1886 41.5247,31.2571 V 31.7407 C 41.5247,31.8096 41.4981,31.8756 41.4507,31.9243 C 41.4032,31.973 41.3389,32.0004 41.2719,32.0004 L 37.2564,31.9984 Z" clip-rule="evenodd" fill="rgb(254, 254, 253)" fill-rule="evenodd"/>
<path d="M 47.731,27.471999999999998 C 47.6772,27.4867 47.6161,27.4611 47.5709,27.4157 C 47.5258,27.3703 47.5004,27.3087 47.5001,27.2445 V 25.26 C 47.5004,25.191 47.5278,25.1249 47.5763,25.0762 C 47.6249,25.0275 47.6907,25.0002 47.7592,25.0002 H 48.242 C 48.3105,25.0002 48.3761,25.0276 48.4245,25.0763 S 48.5001,25.1911 48.5001,25.26 V 27.2445 C 48.5001,27.3086 48.4749,27.3702 48.4299,27.4156 S 48.3239,27.4867 48.2602,27.487 H 47.741 Z M 47.7592,32.0002 C 47.6907,32.0002 47.6249,31.9729 47.5763,31.9242 C 47.5278,31.8755 47.5004,31.8094 47.5001,31.7404 V 29.7559 C 47.5004,29.6918 47.5259,29.6303 47.571,29.5851 C 47.6162,29.5398 47.6773,29.5144 47.741,29.5144 H 48.2602 C 48.3238,29.5144 48.3849,29.5399 48.4298,29.5852 C 48.4748,29.6304 48.5001,29.6919 48.5001,29.7559 V 31.7404 C 48.5001,31.8093 48.4729,31.8754 48.4245,31.9241 S 48.3105,32.0002 48.242,32.0002 H 47.7592 Z M 51.2485,25.0002 H 51.7565 C 51.8211,25.0002 51.8831,25.0276 51.9288,25.0763 C 51.9744,25.125 52.0001,25.1911 52.0001,25.26 V 31.7403 C 52.0001,31.7745 51.9938,31.8083 51.9815,31.8399 S 51.9511,31.9002 51.9284,31.9243 C 51.9057,31.9485 51.8787,31.9676 51.8491,31.9806 C 51.8194,31.9936 51.7876,32.0002 51.7556,32 H 51.2476 C 51.183,32 51.121,31.9727 51.0753,31.924 C 51.0297,31.8752 51.004,31.8092 51.004,31.7403 V 29.1133 C 51.004,29.0833 50.9928,29.0545 50.973,29.0333 C 50.9531,29.0121 50.9261,29.0002 50.898,29.0002 H 47.7446 C 47.6798,29.0002 47.6176,28.9727 47.5717,28.9238 C 47.5259,28.8749 47.5001,28.8086 47.5001,28.7394 V 28.26 C 47.5004,28.191 47.5262,28.1249 47.5721,28.0762 C 47.6179,28.0275 47.6799,28.0002 47.7446,28.0002 H 50.898 C 50.9264,28.0002 50.9536,27.9882 50.9736,27.9668 C 50.9937,27.9454 51.005,27.9164 51.005,27.8861 V 25.26 C 51.005,25.1911 51.0306,25.125 51.0763,25.0763 S 51.1839,25.0002 51.2485,25.0002 Z" clip-rule="evenodd" fill="rgb(254, 254, 253)" fill-rule="evenodd"/>
<defs>
<linearGradient id="a" x1="28" x2="28" y2="56" gradientUnits="userSpaceOnUse">
<stop stop-color="rgb(134, 177, 16)" offset="0"/>
<stop stop-color="rgb(29, 85, 30)" offset=".3833"/>
<stop stop-color="rgb(26, 56, 22)" offset="1"/>
</linearGradient>
</defs>
</svg>
