<?xml version="1.0" encoding="UTF-8"?>
<!-- generated by Finnhub -->
<svg viewBox="0 0 55.5 55.5" xmlns="http://www.w3.org/2000/svg">
<path d="M 0,0 H 55.5 V 55.5 H 0 Z" fill="rgb(239, 242, 248)"/>
<path d="M 47.99,26.985 C 48,26 48.88,25 50,25 H 52 V 23 H 50 C 47.83,23 46,25 46,27 V 33 H 48 V 27 Z" fill="rgb(48, 95, 155)"/>
<path d="M 40.49,32.485 A 4.5,4.5 0 1,0 40.5,23.5 A 4.5,4.5 0 0,0 40.5,32.5 Z M 40.5,33 A 5,5 0 1,0 40.5,23 A 5,5 0 0,0 40.5,33 Z" fill-rule="evenodd"/>
<path d="M 40.49,31.485 A 3.5,3.5 0 1,0 40.5,24.5 A 3.5,3.5 0 0,0 40.5,31.5 Z M 40.5,32 A 4,4 0 1,0 40.5,24 A 4,4 0 0,0 40.5,32 Z" fill-rule="evenodd"/>
<path d="M 40.49,30.485 A 2.5,2.5 0 1,0 40.5,25.5 A 2.5,2.5 0 0,0 40.5,30.5 Z M 40.5,31 A 3,3 0 1,0 40.5,25 A 3,3 0 0,0 40.5,31 Z" fill="rgb(48, 95, 155)" fill-rule="evenodd"/>
<path d="M 34.99,32.985 V 26 H 33 V 33 H 35 Z M 35,25 H 33 V 23 H 35 V 25 Z M 25,27 V 33 H 23 V 27 C 23,24.64 25.31,23 27.5,23 S 32,24.64 32,27 V 33 H 30 V 27 C 30,26 28.6,25 27.5,25 C 26.38,25 25,26 25,27 Z M 7,23 H 12 V 25 H 7 C 6.4,25 6,25.4 6,26 C 6,26.95 7,27 8,27 C 10.42,27 12,27.63 12,30 C 12,32.09 10.5,33 8,33 H 4 V 31 H 8 C 9,31 10,30.84 10,30 C 10,29.05 9,29 8,29 H 7.99 C 6.1,29 4,28.19 4,26 C 4,24.32 5.32,23 7,23 Z M 17.5,31 A 3,3 0 0,0 19.63,30.1 L 21.2,31.36 A 4.99,4.99 0 0,1 12.5,28 A 5,5 0 1,1 22.4,29 H 14.67 A 3,3 0 0,0 17.5,31 Z M 17.5,25 A 3,3 0 0,0 14.67,27 H 20.33 A 3,3 0 0,0 17.5,25 Z" fill="rgb(48, 95, 155)"/>
</svg>
