<?xml version="1.0" encoding="UTF-8"?>
<!-- generated by Finnhub -->
<svg viewBox="0 0 55.5 55.5" xmlns="http://www.w3.org/2000/svg">
<path d="M 0,0 H 55.5 V 55.5 H 0 Z" fill="rgb(239, 242, 248)"/>
<path d="M 6.4,30.985 C 5.59,31 4.68,30.83 4,30.34 L 4.51,29.3 C 5.09,29.68 5.81,29.88 6.5,29.88 C 7.35,29.88 7.5,29.62 7.5,29.23 C 7.5,28.66 6.72,28.61 6.3,28.55 C 5.28,28.4 4,28.07 4,26.83 C 4,25.5 5.55,25 6.68,25 C 7.4,25 8.2,25.12 8.82,25.5 L 8.31,26.55 A 3,3 0 0,0 6.67,26.11 C 5.87,26.11 5.5,26.38 5.5,26.77 C 5.5,27.37 6.42,27.44 6.85,27.5 C 7.86,27.62 9,28 9,29.2 C 9,30.55 7.53,31 6.41,31 Z" fill="rgb(79, 131, 64)"/>
<path d="M 50.95,29.044999999999998 C 50.7,29.33 50.33,29.5 49.93,29.5 C 49.12,29.5 48.46,28.83 48.46,28 S 49.12,26.5 49.93,26.5 C 50.33,26.5 50.7,26.67 50.96,26.94 L 52,25.88 A 2.89,2.89 0 0,0 49.93,25 A 2.97,2.97 0 0,0 47,28 C 47,29.66 48.31,31 49.93,31 C 50.73,31 51.47,30.66 52,30.12 L 50.96,29.06 Z M 41.5,31 H 40 V 25 H 42.5 L 47.5,31 H 45.5 L 41.5,26 V 31 Z M 25.5,31 H 27 V 25 H 24.5 L 19.5,31 H 21.5 L 25.5,26 V 31 Z" fill="rgb(73, 134, 66)"/>
<path d="M 24.99,30.985 H 22 L 25,27.5 V 31 Z" fill="rgb(174, 205, 67)"/>
<path d="M 29.49,30.985 H 28 V 25 H 29.5 L 33,29 V 25 H 34.5 L 37.5,29 V 25 H 39 V 31 H 37.5 L 34.5,27.5 V 31 H 33 L 29.5,27.5 V 31 Z" fill="rgb(73, 134, 66)"/>
<path d="M 41.99,30.985 V 27.5 L 45,31 H 42 Z" fill="rgb(179, 206, 48)"/>
<path d="M 13.99,24.985 H 17.5 C 18,25 19,25.3 19,26.5 C 19,26.83 18.9,27.6 18.5,28 C 18.83,28.17 19.5,28.45 19.5,29.25 C 19.5,30.25 19,31 17.5,31 H 14 V 25 Z M 15.5,30 H 17 C 17.5,30 18,29.75 18,29.25 S 17.5,28.5 17,28.5 H 15.5 V 30 Z M 15.5,27.5 H 16.5 C 17,27.5 17.5,27.5 17.5,26.75 C 17.5,26.27 16.96,26 16.5,26 H 15.5 V 27.5 Z" fill="rgb(73, 134, 66)"/>
<path d="M 11.49,25.485 H 11.75 A 0.25,0.25 0 1,0 11.75,25 H 9.75 A 0.25,0.25 0 1,0 9.75,25.5 H 10 V 29 L 9,31 H 12.5 L 11.5,29 V 28.5 H 11 V 28 H 11.5 V 27.5 H 11 V 27 H 11.5 V 26.5 H 11 V 26 H 11.5 V 25.5 Z M 11.25,31 A 0.25,0.25 0 1,1 11.25,30.5 A 0.25,0.25 0 0,1 11.25,31 Z M 11.5,29.5 A 0.5,0.5 0 1,1 10.5,29.5 A 0.5,0.5 0 0,1 11.5,29.5 Z M 11,30.5 A 0.25,0.25 0 1,1 10.5,30.5 A 0.25,0.25 0 0,1 11,30.5 Z" fill="rgb(79, 131, 64)"/>
</svg>
