<?xml version="1.0" encoding="UTF-8"?>
<!-- generated by Finnhub -->
<svg viewBox="0 0 55.5 55.5" xmlns="http://www.w3.org/2000/svg">
<path d="M 0,0 H 55.5 V 55.5 H 0 Z" fill="rgb(19, 120, 188)"/>
<path d="M 15.74,25.115 C 15.57,25.03 15.18,25 14.42,25 H 11 V 26 H 16 C 16,25.8 16.07,25.3 15.75,25.14 M 23,25.83 V 29.35 L 20.27,25.65 C 19.75,24.96 19.63,25 18.79,25 H 18 V 30.07 C 18,30.96 18.12,31 19.52,31 V 26.62 L 22.29,30.25 C 22.77,30.86 22.75,31 23.69,31 H 24.5 V 25 C 23.14,25 23,25.02 23,25.83 M 15.73,30.12 C 15.53,30.02 15.12,30 14.3,30 H 11 V 31 H 16 C 16,30.78 16.07,30.3 15.73,30.12 Z M 15.75,27.62 C 15.57,27.52 15.18,27.49 14.42,27.49 H 11 V 28.49 H 16 C 16,28.29 16.07,27.79 15.76,27.62 M 38,25.62 V 25 H 33.5 C 32.5,25 32.44,25 32.44,26 H 34.48 V 30.06 C 34.48,30.96 34.58,31 36,31 V 26 H 36.88 C 37.24,26 38,26 38,25.62 Z M 6.13,27.25 C 5.7,27.14 5.53,27 5.53,26.72 S 5.59,26.32 5.68,26.25 C 5.78,26.17 6.04,26 6.48,26 H 8.43 C 9.48,26 9.55,26.03 9.55,25 H 6.99 C 4.92,25 3.97,25.7 4,26.83 C 4.03,28.25 5.72,28.3 6.95,28.52 C 7.41,28.6 8.25,28.77 8.27,29.26 A 0.55,0.55 0 0,1 8.13,29.74 C 8.03,29.84 7.83,29.99 7.48,30 H 5.36 C 4.8,30 4.52,30.03 4.39,30.15 C 4.25,30.28 4.22,30.38 4.22,31 H 6.77 C 9.07,31 9.8,30.08 9.8,29.18 C 9.8,27.5 7.5,27.62 6.13,27.25 Z M 28.05,27.25 C 27.62,27.14 27.45,27 27.45,26.72 S 27.5,26.32 27.6,26.25 C 27.92,25.97 28.46,26 28.86,26 H 30.35 C 31.4,26 31.47,26.03 31.47,25 H 28.9 C 26.84,25 25.89,25.7 25.92,26.83 C 25.95,28.25 27.64,28.3 28.86,28.51 C 29.33,28.59 30.18,28.77 30.18,29.26 A 0.55,0.55 0 0,1 30.05,29.74 C 29.95,29.84 29.75,29.99 29.4,30 H 27.28 C 26.71,30 26.44,30.04 26.3,30.16 C 26.16,30.29 26.14,30.38 26.14,31 H 28.68 C 30.98,31 31.71,30.08 31.71,29.18 C 31.71,27.5 29.41,27.62 28.05,27.25 M 51.5,26.92 C 51.5,26.12 51.15,25 48.39,25 H 46.8 L 46.08,25.01 C 45.34,25.07 45.42,25.46 45.42,25.95 V 30.04 C 45.42,30.51 45.45,30.74 45.64,30.86 C 45.9,31.04 46.68,30.99 46.99,30.99 V 26 C 47.62,25.98 48.56,25.96 49.09,26.07 C 49.64,26.18 49.91,26.54 49.92,26.92 C 49.92,27.64 49.32,27.99 48.64,28 H 47.61 C 47.61,28.7 48.75,29.76 49.33,30.33 C 49.85,30.88 50.08,31 50.89,31 H 52 L 49.54,28.8 C 50.62,28.8 51.5,28.3 51.5,26.93 M 41.1,25 C 40.13,25 40.05,25.04 39.71,25.74 L 37.08,31 C 38.85,31 38.86,31 39.18,30.3 L 39.5,29.63 H 40.29 C 40.99,29.63 41.36,29.6 41.54,29.48 C 41.84,29.28 41.71,28.81 41.71,28.58 H 39.97 L 41.11,26.12 L 43.03,30.31 C 43.35,31 43.37,31 45.13,31 L 42.5,25.74 C 42.16,25.04 42.07,25 41.1,25 Z" fill="rgb(254, 254, 253)"/>
</svg>
