<?xml version="1.0" encoding="UTF-8"?>
<!-- generated by Finnhub -->
<svg fill="none" viewBox="0 0 55.5 55.5" xmlns="http://www.w3.org/2000/svg">
<path d="M 0,0 H 55.5 V 55.5 H 0 Z" fill="rgb(239, 242, 248)"/>
<path d="M 19.392,13.834999999999999 C 14.417,16.312 11.5,20.227 11.5,20.227 L 24.698,34.809 A 2.871,2.871 0 0,0 28.815,34.951 A 2.848,2.848 0 0,0 28.78,30.809 L 17.603,20.42 C 24.52,13.851 34.371,14.55 40.324,20.228 L 37.795,24.333 A 1.532,1.532 0 0,0 38.415,26.507 C 39.095,26.847 39.922,26.643 40.363,26.026 L 44.5,20.228 C 36.512,10.432 25.324,10.928 19.402,13.851 Z" fill="url(#d)"/>
<path d="M 17.936,20.086 C 24.842,13.875 34.468,14.643 40.324,20.227 L 37.795,24.332 A 1.532,1.532 0 0,0 38.415,26.505 C 39.095,26.847 39.922,26.642 40.363,26.025 L 44.5,20.227 C 41.839,16.962 38.822,14.841 35.763,13.571 C 29.338,12.842 22.186,13.571 17.946,20.101 Z" fill="url(#c)"/>
<path d="M 36.588,42.135 C 41.583,39.688 44.5,35.773 44.5,35.773 L 31.302,21.191 A 2.871,2.871 0 0,0 27.185,21.049 A 2.848,2.848 0 0,0 27.22,25.191 L 38.397,35.581 C 31.48,42.15 21.629,41.451 15.676,35.773 L 18.205,31.668 A 1.532,1.532 0 0,0 17.585,29.494 A 1.543,1.543 0 0,0 15.637,29.975 L 11.5,35.773 C 19.488,45.569 30.676,45.073 36.598,42.15 Z" fill="url(#b)"/>
<path d="M 38.044000000000004,35.884 C 31.158,42.126 21.531,41.358 15.676,35.773 L 18.205,31.668 A 1.532,1.532 0 0,0 17.585,29.495 A 1.543,1.543 0 0,0 15.637,29.975 L 11.5,35.774 C 14.161,39.039 17.178,41.16 20.237,42.43 C 26.662,43.159 33.814,42.43 38.054,35.9 Z" fill="url(#a)"/>
<defs>
<linearGradient id="d" x1="35.677" x2="18.553" y1="13.589" y2="28.544" gradientUnits="userSpaceOnUse">
<stop stop-color="rgb(38, 150, 210)" offset="0"/>
<stop stop-color="rgb(166, 210, 236)" offset=".352"/>
<stop stop-color="rgb(20, 107, 170)" offset=".77"/>
<stop stop-color="rgb(0, 56, 122)" offset="1"/>
</linearGradient>
<linearGradient id="c" x1="19.124" x2="44.521" y1="19.992" y2="19.992" gradientUnits="userSpaceOnUse">
<stop stop-color="rgb(1, 50, 117)" offset="0"/>
<stop stop-color="rgb(38, 148, 209)" offset="1"/>
</linearGradient>
<linearGradient id="b" x1="24.349" x2="40.151" y1="43.533" y2="30.013" gradientUnits="userSpaceOnUse">
<stop stop-color="rgb(48, 150, 209)" offset="0"/>
<stop stop-color="rgb(147, 201, 232)" offset=".304"/>
<stop stop-color="rgb(9, 75, 139)" offset=".861"/>
</linearGradient>
<linearGradient id="a" x1="11.5" x2="35.226" y1="37.237" y2="39.149" gradientUnits="userSpaceOnUse">
<stop stop-color="rgb(36, 148, 209)" offset="0"/>
<stop stop-color="rgb(1, 51, 117)" offset="1"/>
</linearGradient>
</defs>
</svg>
