<?xml version="1.0" encoding="UTF-8"?>
<!-- generated by Finnhub -->
<svg viewBox="0 0 55.5 55.5" xmlns="http://www.w3.org/2000/svg">
<path d="M 0,0 H 55.5 V 55.5 H 0 Z" fill="rgb(63, 196, 228)"/>
<path d="M 29.45,16.515 A 2.49,2.49 0 0,1 26.63,16.59 L 21.83,20.61 A 2.5,2.5 0 0,1 21.91,22.16 L 26.5,26 A 2.5,2.5 0 0,1 30.31,28.97 L 34.51,32.49 A 2.5,2.5 0 1,1 35.04,36.79 L 30.4,40.7 L 30.37,40.68 A 2.5,2.5 0 0,1 28,44 A 2.5,2.5 0 0,1 25.64,40.67 L 20.82,36.62 A 2.5,2.5 0 1,1 21.75,35.59 L 26.45,39.54 A 2.49,2.49 0 0,1 29.59,39.57 L 33.94,35.91 A 2.49,2.49 0 0,1 33.66,33.61 L 29.43,30.05 A 2.5,2.5 0 0,1 25.66,27.12 L 21.18,23.35 A 2.5,2.5 0 1,1 21,19.5 L 25.71,15.54 A 2.5,2.5 0 1,1 30.31,15.44 L 35.03,19.47 A 2.5,2.5 0 1,1 34.17,20.57 L 29.45,16.53 Z M 29.22,14.5 A 1.22,1.22 0 1,1 26.78,14.5 A 1.22,1.22 0 0,1 29.22,14.5 Z M 19.5,22.72 A 1.22,1.22 0 1,0 19.5,20.28 A 1.22,1.22 0 0,0 19.5,22.72 Z M 19.5,35.72 A 1.22,1.22 0 1,0 19.5,33.28 A 1.22,1.22 0 0,0 19.5,35.72 Z M 28,29.22 A 1.22,1.22 0 1,0 28,26.78 A 1.22,1.22 0 0,0 28,29.22 Z M 29.22,41.5 A 1.22,1.22 0 1,1 26.78,41.5 A 1.22,1.22 0 0,1 29.22,41.5 Z M 36.5,22.72 A 1.22,1.22 0 1,0 36.5,20.28 A 1.22,1.22 0 0,0 36.5,22.72 Z M 37.22,34.5 A 1.22,1.22 0 1,1 34.78,34.5 A 1.22,1.22 0 0,1 37.22,34.5 Z" fill="rgb(254, 254, 253)" fill-rule="evenodd"/>
</svg>
