<?xml version="1.0" encoding="UTF-8"?>
<!-- generated by Finnhub -->
<svg viewBox="0 0 55.5 55.5" xmlns="http://www.w3.org/2000/svg">
<path d="M 0,0 H 55.5 V 55.5 H 0 Z" fill="url(#a)"/>
<path d="M 17.139999999999997,29.564999999999998 C 17.18,29.34 17.15,29.15 17.09,28.98 C 17.02,28.82 16.92,28.68 16.79,28.58 C 16.67,28.46 16.52,28.37 16.36,28.29 L 15.88,28.08 C 15.62,27.97 15.36,27.84 15.11,27.69 A 3.42,3.42 0 0,1 14.42,27.16 A 2.2,2.2 0 0,1 13.95,26.44 C 13.84,26.16 13.79,25.84 13.81,25.46 C 13.84,25.04 13.94,24.67 14.11,24.36 C 14.29,24.06 14.51,23.79 14.79,23.59 A 3.03,3.03 0 0,1 16.66,23 A 2.24,2.24 0 0,1 18.72,24.26 C 18.92,24.66 19.02,25.13 19,25.68 H 17.74 A 1.8,1.8 0 0,0 17.64,24.9 C 17.56,24.68 17.44,24.5 17.25,24.38 C 17.08,24.26 16.85,24.2 16.59,24.19 C 16.35,24.19 16.13,24.23 15.91,24.32 C 15.69,24.41 15.51,24.54 15.35,24.73 C 15.2,24.93 15.1,25.16 15.06,25.46 C 15.04,25.66 15.06,25.85 15.14,26 C 15.21,26.15 15.32,26.28 15.46,26.39 C 15.6,26.49 15.74,26.58 15.9,26.65 L 16.34,26.85 C 16.62,26.95 16.89,27.09 17.14,27.25 C 17.4,27.4 17.63,27.58 17.83,27.79 C 18.03,28.01 18.18,28.26 18.28,28.55 C 18.39,28.85 18.43,29.18 18.41,29.57 C 18.38,30 18.27,30.37 18.1,30.68 C 17.92,30.99 17.7,31.24 17.43,31.44 A 3.3,3.3 0 0,1 14.55,31.81 A 2.42,2.42 0 0,1 13.17,30.39 A 3.05,3.05 0 0,1 13,29.23 H 14.26 C 14.24,29.49 14.26,29.72 14.32,29.92 A 1.16,1.16 0 0,0 15.02,30.72 C 15.2,30.78 15.39,30.82 15.61,30.82 C 15.84,30.82 16.07,30.78 16.29,30.7 C 16.51,30.62 16.69,30.48 16.85,30.3 C 17.01,30.12 17.11,29.88 17.15,29.58 Z M 22.95,30.51 L 23.47,27.28 C 23.55,26.65 23.22,26.14 22.54,26.13 C 21.94,26.11 21.34,26.38 21.2,27 H 19.7 C 19.8,25.56 21.43,24.98 22.7,25 C 24.02,25.02 25.12,25.9 24.99,27.31 L 24.48,30.31 A 7.9,7.9 0 0,0 24.4,31.04 C 24.38,31.29 24.42,31.52 24.5,31.75 L 24.49,32 H 22.99 C 22.93,31.79 22.89,31.43 22.89,31.2 C 22.89,30.96 22.91,30.74 22.95,30.51 Z M 23.65,27.77 L 23.49,28.7 L 22.49,28.69 C 22.29,28.69 22.07,28.71 21.86,28.75 C 21.64,28.78 21.44,28.85 21.26,28.94 C 21.06,29.03 20.91,29.15 20.78,29.31 A 1.1,1.1 0 0,0 20.61,30.38 C 20.67,30.51 20.78,30.61 20.91,30.69 A 1,1 0 0,0 21.41,30.82 C 21.65,30.82 21.91,30.77 22.15,30.67 C 22.39,30.57 22.61,30.43 22.79,30.25 C 22.97,30.06 23.09,29.85 23.17,29.61 L 23.57,30.28 A 2.67,2.67 0 0,1 21.05,32 C 20.66,32 20.31,31.9 20,31.74 C 19.68,31.58 19.43,31.34 19.25,31.05 A 1.7,1.7 0 0,1 19,30.03 A 2.02,2.02 0 0,1 20.14,28.25 C 20.47,28.07 20.84,27.95 21.22,27.87 C 21.62,27.8 22,27.77 22.38,27.77 H 23.65 Z M 27.3,26.68 L 26.43,32 H 25 L 26.14,25 H 27.47 L 27.3,26.68 Z M 26.8,28.31 H 26.37 C 26.41,27.91 26.51,27.51 26.65,27.11 C 26.8,26.71 26.99,26.34 27.23,26.02 C 27.46,25.7 27.75,25.45 28.09,25.26 A 2.3,2.3 0 0,1 29.28,25 C 29.63,25.01 29.92,25.08 30.16,25.22 S 30.58,25.55 30.71,25.79 C 30.84,26.03 30.93,26.29 30.97,26.6 A 4,4 0 0,1 30.97,27.56 L 30.27,32 H 28.84 L 29.55,27.54 A 2.2,2.2 0 0,0 29.53,26.88 A 0.8,0.8 0 0,0 29.26,26.41 A 0.9,0.9 0 0,0 28.67,26.23 C 28.39,26.22 28.14,26.27 27.93,26.39 C 27.71,26.51 27.53,26.67 27.38,26.89 C 27.22,27.09 27.1,27.31 27,27.56 C 26.9,27.81 26.84,28.06 26.8,28.31 Z M 33.27,30.38 L 35.46,25 H 36.36 L 35.84,26.7 L 33.66,32 H 32.86 L 33.27,30.38 Z M 33.27,25 L 33.52,30.56 L 33.4,32 H 32.56 L 32,25 H 33.28 Z M 36.81,30.33 L 38.65,25 H 40 L 37.31,32 H 36.42 L 36.82,30.33 Z M 36.46,25 L 37.01,30.47 L 36.94,32 H 36.2 L 35.6,26.55 L 35.62,25 H 36.46 Z M 42.13,26 L 41.07,32 H 39.73 L 40.8,26 H 42.13 Z M 41,23.79 C 41,23.56 41.06,23.37 41.21,23.23 A 0.76,0.76 0 0,1 41.76,23 C 41.96,23 42.14,23.06 42.29,23.2 C 42.44,23.34 42.52,23.52 42.52,23.74 C 42.52,23.97 42.45,24.16 42.29,24.3 A 0.77,0.77 0 0,1 41.76,24.52 A 0.71,0.71 0 0,1 41,23.79 Z M 45.09,26.53 L 44.28,32 H 43 L 44.02,25 H 45.23 L 45.09,26.53 Z M 47,25.09 L 46.86,26.51 A 4.7,4.7 0 0,0 46.36,26.45 C 46.13,26.45 45.93,26.48 45.76,26.55 C 45.58,26.63 45.42,26.75 45.29,26.89 C 45.16,27.03 45.04,27.19 44.95,27.39 C 44.86,27.59 44.79,27.81 44.75,28.05 L 44.44,28.07 C 44.47,27.74 44.54,27.39 44.62,27.03 C 44.72,26.67 44.84,26.34 45,26.03 C 45.16,25.73 45.36,25.47 45.6,25.28 C 45.85,25.08 46.15,24.99 46.5,25 C 46.58,25 46.67,25 46.75,25.03 C 46.83,25.04 46.92,25.06 47,25.09 Z M 49.34,32 C 47.62,31.96 46.91,30.25 47.01,28.75 L 47.03,28.49 C 47.17,26.92 48.13,24.95 49.94,25 C 51.66,25.04 52.11,26.9 51.98,28.3 L 51.9,29 H 47.57 L 47.72,28 H 50.78 L 50.8,27.75 C 50.88,27.09 50.67,26.22 49.87,26.19 C 49.03,26.17 48.61,26.99 48.42,27.7 C 48.36,27.97 48.31,28.24 48.28,28.5 L 48.26,28.74 C 48.19,29.58 48.42,30.77 49.46,30.81 C 50.06,30.83 50.56,30.47 50.96,29.98 L 51.57,30.75 A 2.52,2.52 0 0,1 49.34,32 Z" fill="rgb(136, 173, 248)"/>
<path d="M 7.32,25.235 C 6.93,25.25 6.58,25.62 6.23,25.85 C 6.1,25.95 5.95,26 5.78,26 C 5.28,26 4.88,25.55 4.88,25 S 5.28,24 5.78,24 C 5.95,24 6.1,24.05 6.24,24.14 C 6.58,24.38 6.92,24.75 7.33,24.75 H 7.78 C 8.18,24.75 8.53,24.38 8.88,24.15 C 9.01,24.05 9.17,24 9.33,24 C 9.83,24 10.23,24.45 10.23,25 S 9.83,26 9.33,26 A 0.81,0.81 0 0,1 8.87,25.86 C 8.53,25.62 8.19,25.25 7.78,25.25 H 7.33 Z M 9.1,27.75 C 8.7,27.75 8.36,28.12 8.02,28.35 C 7.88,28.45 7.72,28.5 7.56,28.5 C 7.06,28.5 6.66,28.05 6.66,27.5 S 7.06,26.5 7.56,26.5 C 7.72,26.5 7.88,26.55 8.02,26.64 C 8.36,26.88 8.7,27.25 9.11,27.25 H 9.56 C 9.96,27.25 10.3,26.88 10.66,26.65 C 10.79,26.55 10.94,26.5 11.11,26.5 C 11.61,26.5 12,26.95 12,27.5 S 11.6,28.5 11.11,28.5 A 0.81,0.81 0 0,1 10.65,28.36 C 10.3,28.12 9.97,27.75 9.56,27.75 H 9.11 Z M 6.44,30.25 C 6.04,30.25 5.7,30.62 5.34,30.85 C 5.21,30.95 5.06,31 4.89,31 C 4.39,31 4,30.55 4,30 S 4.4,29 4.89,29 C 5.06,29 5.21,29.05 5.35,29.14 C 5.7,29.38 6.03,29.75 6.44,29.75 H 6.89 C 7.3,29.75 7.64,29.38 7.99,29.15 C 8.12,29.05 8.28,29 8.44,29 C 8.94,29 9.34,29.45 9.34,30 S 8.94,31 8.44,31 A 0.81,0.81 0 0,1 7.99,30.86 C 7.64,30.62 7.3,30.25 6.89,30.25 H 6.44 Z" fill="rgb(254, 254, 253)"/>
<defs>
<linearGradient id="a" x1="10.42" x2="68.15" y1="9.71" y2="76.02" gradientUnits="userSpaceOnUse">
<stop stop-color="rgb(25, 29, 31)" offset="0"/>
<stop stop-color="rgb(5, 5, 8)" offset="1"/>
</linearGradient>
</defs>
</svg>
