<?xml version="1.0" encoding="UTF-8"?>
<!-- generated by Finnhub -->
<svg viewBox="0 0 55.5 55.5" xmlns="http://www.w3.org/2000/svg">
<path d="M 0,0 H 55.5 V 55.5 H 0 Z" fill="rgb(239, 242, 248)"/>
<path d="M 27.24,10.205 C 29.05,20.74 41.55,24.67 37.01,40.8 C 38.09,26.24 26.04,22.11 27.25,10.22 Z M 25.57,6 C 21.16,24.76 34.99,33.5 30.07,47.41 C 44.43,29.66 24.35,27.61 25.57,6 Z" fill="url(#b)"/>
<path d="M 29.09,46.135 C 28.76,38.81 18.03,30.61 24.8,22.94 C 24.27,34.64 30.94,38.47 29.1,46.14 Z M 27.05,50 C 27.51,44.25 19.58,42.1 18.48,37.95 C 15.64,44.41 26.23,45.12 27.05,50 Z M 27.79,46.47 C 27.69,39.79 21.04,36.1 20.94,28.34 C 13.87,36.24 25.84,41.29 27.79,46.47 Z" fill="url(#a)"/>
<defs>
<linearGradient id="b" x1="30.96" x2="37.06" y1="21.96" y2="38.19" gradientUnits="userSpaceOnUse">
<stop stop-color="rgb(32, 63, 152)" offset="0"/>
<stop stop-color="rgb(34, 59, 143)" offset=".16"/>
<stop stop-color="rgb(37, 51, 127)" offset=".39"/>
<stop stop-color="rgb(38, 38, 103)" offset=".66"/>
<stop stop-color="rgb(37, 33, 96)" offset=".74"/>
</linearGradient>
<linearGradient id="a" x1="23.21" x2="28.73" y1="30.69" y2="45.45" gradientUnits="userSpaceOnUse">
<stop stop-color="rgb(32, 63, 152)" offset=".21"/>
<stop stop-color="rgb(33, 61, 147)" offset=".23"/>
<stop stop-color="rgb(38, 41, 109)" offset=".59"/>
<stop stop-color="rgb(37, 33, 96)" offset=".77"/>
</linearGradient>
</defs>
</svg>
