<?xml version="1.0" encoding="UTF-8"?>
<!-- generated by Finnhub -->
<svg viewBox="0 0 55.5 55.5" xmlns="http://www.w3.org/2000/svg">
<path d="M 0,0 H 55.5 V 55.5 H 0 Z" fill="rgb(3, 79, 80)"/>
<path d="M 45.99,29.794999999999998 L 47.3,29.45 C 47.57,30.35 48.04,30.79 49.06,30.79 C 49.96,30.79 50.61,30.42 50.61,29.69 C 50.61,29.18 50.28,28.79 49.05,28.59 C 47.25,28.26 46.23,27.59 46.23,26.27 C 46.23,24.93 47.39,24 49.05,24 C 50.52,24 51.5,24.78 51.84,26.1 L 50.54,26.45 C 50.32,25.65 49.92,25.21 49.04,25.21 C 48.21,25.21 47.62,25.56 47.62,26.27 C 47.62,26.87 48.22,27.1 49.3,27.32 C 51.12,27.67 52,28.36 52,29.69 C 52,31.09 50.7,32 49.06,32 C 47.48,32 46.39,31.24 46,29.81 Z M 42.64,28 C 42.64,26.43 41.62,25.24 40.01,25.24 C 38.38,25.24 37.37,26.43 37.37,28 C 37.37,29.58 38.37,30.76 40.01,30.76 C 41.61,30.76 42.64,29.58 42.64,28 Z M 36,28 C 36,25.85 37.5,24 40,24 C 42.48,24 44,25.85 44,28 S 42.48,32 40,32 C 37.51,32 36,30.15 36,28 Z M 31.9,27.65 C 32.75,27.65 33.24,27.17 33.24,26.45 C 33.24,25.7 32.72,25.25 31.87,25.25 H 30.42 V 27.65 H 31.89 Z M 29,24 H 31.99 C 33.7,24 34.65,25.04 34.65,26.38 C 34.65,27.66 33.9,28.4 33.05,28.68 L 35,32 H 33.42 L 31.64,29 H 30.42 V 32 H 29 V 24 Z M 23.46,23 L 22.71,24.8 L 19.73,32 H 21.23 L 22.54,28.81 L 23.18,27.28 L 23.46,26.6 L 23.74,27.28 L 24.37,28.81 L 25.7,32 H 27.2 L 24.21,24.8 L 23.47,23 Z M 12,24 H 13.32 V 27.28 H 16.68 V 24 H 18 V 32 H 16.68 V 28.57 H 13.32 V 32 H 12 V 24 Z M 6.71,27.84 C 7.69,27.84 8.13,27.28 8.13,26.54 C 8.13,25.79 7.67,25.26 6.7,25.26 H 5.37 V 27.84 H 6.71 Z M 4,24 H 6.81 C 8.24,24 9.5,24.74 9.5,26.54 C 9.5,28.29 8.22,29 6.88,29 H 5.38 V 32 H 4 V 24 Z" fill="rgb(1, 218, 131)"/>
</svg>
