<?xml version="1.0" encoding="UTF-8"?>
<!-- generated by Finnhub -->
<svg viewBox="0 0 55.5 55.5" xmlns="http://www.w3.org/2000/svg">
<path d="M 0,0 H 55.5 V 55.5 H 0 Z" fill="rgb(6, 56, 53)"/>
<path d="M 26.99,20.985 C 27.02,22.78 27.58,25.1 29.03,27.05 A 23.65,23.65 0 0,1 31.83,31.45 C 32.16,32.23 32.16,32.62 32.16,33.1 V 33.12 C 32.16,33.24 32.11,33.66 31.9,34.26 C 31.7,34.84 31.38,35.51 30.88,36.16 A 6.69,6.69 0 0,1 25.5,39 C 23.5,39.02 21.29,37.37 20.28,35.73 C 19.26,34.07 19,31.5 19,30 L 27,21 Z M 17,32 C 16.28,32.94 14,36 14,36 H 18 C 17.5,35 17.28,32.92 17,32 Z M 19.97,38.57 L 19.95,38.56 L 19.93,38.54 C 19.35,38.04 17.94,37.99 15,38 H 9 L 28.27,16.59 L 28.31,16.56 L 28.59,16.26 C 28.67,16.18 28.77,16.06 28.92,15.92 C 29.19,15.64 29.52,15.32 29.97,15.03 A 7.24,7.24 0 0,1 34,14 C 35.85,14 37.33,14.66 38.63,15.42 C 40.14,16.3 41.48,17.44 43,18.32 L 38,22 C 38.9,23.5 40,25.7 40,28 C 40,31 38.98,34.44 35.84,37.38 A 13.17,13.17 0 0,1 26.54,41 C 24.06,41.03 21.9,40.08 19.97,38.57 Z M 33.25,36.63 A 9.2,9.2 0 0,0 34.01,35 A 5.73,5.73 0 0,0 33.89,30.57 A 25.6,25.6 0 0,0 30.82,25.7 C 29.35,23.72 28.38,19.76 30.31,17.71 L 30.51,17.5 A 4.81,4.81 0 0,1 34,16 C 35.72,16 38.59,17.46 39.99,18.5 L 35.49,21.5 C 36.89,23.5 37.91,25.45 37.99,28 C 38.06,30.36 36.95,33.26 34.31,35.73 C 33.96,36.06 33.6,36.36 33.24,36.63 Z" fill="rgb(254, 251, 246)" fill-rule="evenodd"/>
</svg>
