<?xml version="1.0" encoding="UTF-8"?>
<!-- generated by Finnhub -->
<svg viewBox="0 0 55.5 55.5" xmlns="http://www.w3.org/2000/svg">
<path d="M 0,0 H 55.5 V 55.5 H 0 Z" fill="rgb(239, 242, 248)"/>
<path d="M 9.99,35.985 V 20 H 15.53 C 18.31,20 21,22.34 21,25.22 V 20 H 26.93 A 4.51,4.51 0 0,1 31.35,24.6 V 25.64 A 8,8 0 1,1 31.01,27.54 A 3.87,3.87 0 0,1 27.48,29.91 L 32.28,36 H 29.54 L 24,28.94 V 28 H 26.8 C 28.32,28 29.54,26.61 29.54,25.04 S 28.32,22 26.81,22 H 23 V 36 H 21 V 25.39 C 21,28.27 18.3,31 15.53,31 H 12 V 36 H 10 Z M 15.6,22 H 12 V 29 H 15.6 C 17.48,29 19,27.43 19,25.5 S 17.48,22 15.6,22 Z M 45,28 A 6,6 0 1,1 33,28 A 6,6 0 0,1 45,28 Z" fill="rgb(25, 153, 231)" fill-rule="evenodd"/>
<path d="M 38.99,30.544999999999998 A 2.56,2.56 0 1,0 39,25.44 A 2.56,2.56 0 0,0 39,30.56 Z M 39,31 A 3,3 0 1,0 39,25 A 3,3 0 0,0 39,31 Z" fill="rgb(25, 153, 231)" fill-rule="evenodd"/>
<path d="M 9.99,30.384999999999998 V 36 H 12 V 31.7 C 11.1,31.24 10.44,30.78 10,30.4 Z M 45.15,22.89 C 44.83,23.49 44.45,24.09 44,24.69 A 6,6 0 0,1 34.52,31.99 C 33.89,32.28 33.24,32.53 32.58,32.77 A 7.99,7.99 0 1,0 45.15,22.89 Z M 30.28,33.46 C 29.51,33.66 28.72,33.82 27.92,33.94 L 29.54,36 H 32.28 L 30.28,33.46 Z M 23,34.2 C 22.3,34.17 21.64,34.13 21,34.07 V 36 H 23 V 34.19 Z" fill="rgb(67, 176, 240)"/>
<path d="M 9.99,31.835 V 36 H 12 V 33.15 C 11.1,32.69 10.44,32.24 10,31.85 Z M 45.58,23.45 C 45.29,24.12 44.91,24.81 44.45,25.5 A 6,6 0 0,1 35.59,32.94 C 34.94,33.27 34.25,33.58 33.55,33.86 A 8,8 0 0,0 45.58,23.46 Z M 31.23,34.66 C 30.48,34.88 29.71,35.06 28.93,35.22 L 29.54,36 H 32.28 L 31.23,34.66 Z M 23,35.64 C 22.3,35.62 21.64,35.57 21,35.52 V 36 H 23 V 35.64 Z" fill="rgb(117, 192, 231)"/>
</svg>
