<?xml version="1.0" encoding="UTF-8"?>
<!-- generated by Finnhub -->
<svg viewBox="0 0 55.5 55.5" xmlns="http://www.w3.org/2000/svg">
<path d="M 0,0 H 55.5 V 55.5 H 0 Z" fill="rgb(208, 31, 46)"/>
<path d="M 38.800000000000004,19.185 A 8.04,8.04 0 0,0 31.15,19.21 L 30.87,18.68 L 30.61,18.17 C 32.61,16.79 36.53,16.47 39.38,18.12 L 38.81,19.2 Z M 38.11,19.98 L 37.89,20.38 L 37.53,21.08 C 35.82,20.18 34.13,20.18 32.41,21.08 L 32.09,20.45 L 31.85,20.01 C 33.22,18.96 36.48,18.87 38.1,19.98 Z M 33.67,23 A 2.6,2.6 0 0,1 36.26,22.97 L 36.46,22.59 L 36.83,21.86 A 3.7,3.7 0 0,0 33.08,21.88 L 33.68,23 Z M 11.03,26.13 L 10.55,26.75 L 10.48,26.69 L 10.41,26.64 A 3.81,3.81 0 0,0 8.46,25.72 A 2.26,2.26 0 0,0 6.98,25.98 C 6.56,26.23 6.37,26.61 6.43,27.04 C 6.47,27.34 6.66,27.55 6.93,27.66 C 7.22,27.77 7.53,27.86 7.83,27.92 L 8.72,28.1 C 9.2,28.2 9.69,28.3 10.17,28.42 C 10.63,28.53 11.05,28.76 11.38,29.11 C 11.85,29.59 12.01,30.18 11.98,30.83 A 3.1,3.1 0 0,1 9.78,33.73 C 8.17,34.23 6.62,34.03 5.17,33.17 C 4.91,33.01 4.66,32.83 4.41,32.65 L 3.99,32.35 L 4.99,31.3 L 5.38,30.89 L 5.42,30.95 L 5.54,31.09 A 4.12,4.12 0 0,0 7.96,32.29 C 8.57,32.35 9.16,32.24 9.64,31.83 C 10.24,31.33 10.01,30.49 9.44,30.22 A 2.62,2.62 0 0,0 8.87,30.02 L 8,29.85 L 6.71,29.57 C 6.2,29.44 5.71,29.23 5.28,28.91 C 4.76,28.51 4.5,27.99 4.46,27.34 C 4.36,25.81 5.36,24.52 6.94,24.14 A 5.17,5.17 0 0,1 10.77,24.74 L 11.43,25.15 L 11.67,25.31 L 11.03,26.14 Z M 24,34 H 26 V 28.24 C 26,27.01 26.99,25.83 28.28,26.02 C 29.4,26.2 30,27.2 30,28.27 V 34 H 32 V 28.43 C 32,28.11 31.98,27.78 31.94,27.46 A 3.75,3.75 0 0,0 30.24,24.66 A 4.02,4.02 0 0,0 27.21,24.08 A 3.89,3.89 0 0,0 24,28.18 V 34 Z M 49,34 H 51 V 28.05 C 51,27.74 50.98,27.43 50.93,27.12 A 3.51,3.51 0 0,0 46.61,24.09 C 45.55,24.29 45.07,24.88 44.5,25.73 C 44.12,24.72 43,24.13 42,24.03 C 41.01,23.93 40.1,24.13 39.33,24.79 A 3.74,3.74 0 0,0 38,27.77 V 34 H 40 V 27.86 C 40,26.96 40.63,26.03 41.62,26 C 42.94,25.97 43.5,27.02 43.5,28.18 V 34 H 45.5 V 28.04 C 45.5,27.75 45.53,27.44 45.61,27.16 C 45.99,25.8 47.85,25.72 48.52,26.5 C 48.87,26.9 49,27.38 49,27.88 V 34 Z M 34,34 H 36 V 24 H 34 V 34 Z M 21,29 A 3,3 0 1,1 15,29 A 3,3 0 0,1 21,29 Z M 23,29 A 5,5 0 1,1 13,29 A 5,5 0 0,1 23,29 Z" fill="rgb(254, 254, 253)" fill-rule="evenodd"/>
</svg>
