<?xml version="1.0" encoding="UTF-8"?>
<!-- generated by Finnhub -->
<svg viewBox="0 0 55.5 55.5" xmlns="http://www.w3.org/2000/svg">
<path d="M 0,0 H 55.5 V 55.5 H 0 Z" fill="rgb(50, 152, 151)"/>
<path d="M 7.4,25.985 H 10.5 V 25 H 7.22 C 6.45,25 5.88,25.15 5.53,25.44 C 5.18,25.74 5,26.2 5,26.84 C 5,27.44 5.17,27.87 5.5,28.14 C 5.84,28.42 6.37,28.56 7.1,28.56 H 8.67 C 9.01,28.56 9.26,28.61 9.4,28.72 C 9.54,28.82 9.61,29 9.61,29.25 S 9.53,29.67 9.38,29.77 C 9.22,29.87 8.96,30 8.58,30 H 5.5 V 31 H 8.79 C 9.55,31 10.11,30.86 10.47,30.57 C 10.82,30.27 11,29.82 11,29.2 C 11,28.6 10.85,28.16 10.54,27.9 C 10.23,27.64 9.71,27.5 8.98,27.5 H 7.23 C 6.95,27.5 6.73,27.45 6.6,27.34 C 6.46,27.24 6.39,27.07 6.39,26.85 C 6.39,26.58 6.47,26.38 6.64,26.25 C 6.8,26.13 7.06,26 7.41,26 Z M 11.5,27.94 C 11.5,25.95 12.48,25 14.5,25 C 16.54,25 17.5,25.96 17.5,28 C 17.5,30.03 16.54,31 14.5,31 C 12.55,31 11.5,29.87 11.5,27.94 Z M 14.5,25.99 C 13.96,25.99 13.55,26.15 13.29,26.47 C 13.02,26.8 12.89,27.29 12.89,27.94 C 12.89,28.66 13.01,29.18 13.27,29.51 C 13.53,29.84 13.94,30.01 14.5,30.01 C 15.05,30.01 15.46,29.84 15.73,29.51 C 15.99,29.18 16.13,28.68 16.13,28 C 16.13,27.31 15.99,26.8 15.73,26.48 C 15.46,26.15 15.05,25.98 14.5,25.98 Z M 19.63,25 H 18 V 31 H 19.33 V 26.46 L 21.9,31 H 23.4 V 25 H 22 V 29.31 L 19.63,25 Z M 24.5,27.94 C 24.5,26.94 24.75,26.21 25.24,25.73 C 25.74,25.24 26.49,25 27.5,25 C 28.52,25 29.28,25.25 29.77,25.73 C 30.26,26.23 30.5,26.98 30.5,28 S 30.26,29.77 29.77,30.26 C 29.27,30.76 28.52,31 27.5,31 C 26.47,31 25.71,30.75 25.23,30.26 C 24.74,29.76 24.5,28.99 24.5,27.94 Z M 27.5,25.99 C 26.96,25.99 26.55,26.15 26.29,26.47 C 26.02,26.8 25.89,27.29 25.89,27.94 C 25.89,28.66 26.01,29.18 26.27,29.51 C 26.53,29.84 26.94,30.01 27.5,30.01 C 28.05,30.01 28.46,29.84 28.73,29.51 C 28.99,29.18 29.13,28.68 29.13,28 C 29.13,27.31 28.99,26.8 28.73,26.48 C 28.46,26.15 28.05,25.98 27.5,25.98 Z M 34,26 H 36 V 31 H 37.31 V 26 H 39.29 V 25 H 34 V 26 Z M 42.9,26 C 42.43,26 42.08,26.16 41.85,26.39 C 41.61,26.62 41.48,26.97 41.45,27.44 H 45 V 28.49 H 41.45 C 41.45,29.01 41.56,29.39 41.78,29.61 C 42.01,29.84 42.38,30 42.9,30 H 45 V 31 H 42.83 A 4.2,4.2 0 0,1 41.71,30.88 A 2.25,2.25 0 0,1 40.24,29.52 C 40.08,29.12 40,28.65 40,28.11 C 40,27.04 40.23,26.26 40.7,25.76 S 41.9,25 42.87,25 H 45 V 26 H 42.9 Z M 46,25 H 47.3 V 27.88 L 49.5,25 H 50.98 L 48.64,27.93 L 51,31 H 49.44 L 47.3,28.02 V 31 H 46 V 25 Z" fill="rgb(254, 254, 253)"/>
<path d="M 32.99,26.485 A 1.5,1.5 0 0,1 33,29.5 A 1.5,1.5 0 0,1 33,26.5 Z" fill="rgb(4, 206, 218)"/>
</svg>
