<?xml version="1.0" encoding="UTF-8"?>
<!-- generated by Finnhub -->
<svg viewBox="0 0 55.5 55.5" xmlns="http://www.w3.org/2000/svg">
<path d="M 0,0 H 55.5 V 55.5 H 0 Z" fill="rgb(239, 242, 248)"/>
<circle cx="14.18" cy="24.7" r=".96" fill="rgb(134, 21, 35)"/>
<ellipse cx="12.41" cy="23.35" rx=".92" ry=".93" fill="rgb(134, 21, 35)"/>
<ellipse cx="10.46" cy="22.81" rx=".8" ry=".81" fill="rgb(134, 21, 35)"/>
<ellipse cx="8.42" cy="22.96" rx=".74" ry=".75" fill="rgb(162, 62, 45)"/>
<ellipse cx="6.46" cy="24.03" rx=".68" ry=".69" fill="rgb(191, 96, 50)"/>
<circle cx="5.22" cy="25.79" r=".64" fill="rgb(222, 128, 56)"/>
<ellipse cx="4.58" cy="27.8" rx=".58" ry=".59" fill="rgb(244, 153, 60)"/>
<ellipse cx="4.89" cy="29.91" rx=".54" ry=".55" fill="rgb(242, 156, 60)"/>
<circle cx="5.89" cy="31.71" r=".5" fill="rgb(247, 154, 58)"/>
<circle cx="7.62" cy="33.01" r=".45" fill="rgb(247, 154, 58)"/>
<circle cx="9.65" cy="33.6" r=".4" fill="rgb(247, 154, 58)"/>
<circle cx="11.73" cy="33.36" r=".35" fill="rgb(214, 119, 55)"/>
<circle cx="13.57" cy="32.23" r=".3" fill="rgb(179, 84, 46)"/>
<path d="M 9.99,30.985 A 3,3 0 0,0 12.8,26.93 A 1.4,1.4 0 1,1 11.53,25.42 A 3,3 0 1,0 10,31 Z" fill="rgb(186, 187, 188)"/>
<path d="M 18.459999999999997,27.035 V 27.45 H 17.89 V 27.11 C 17.83,26.69 17.34,26.56 17.09,26.56 H 15.06 C 14.85,26.56 14.21,26.6 14.21,27.39 C 14.21,28.03 14.74,28.19 15.01,28.18 H 17.1 C 18.3,28.18 18.57,28.92 18.56,29.29 V 29.84 C 18.58,30.77 17.66,31 17.19,31 H 14.89 C 13.84,30.96 13.62,30.2 13.65,29.84 V 29.44 H 14.21 V 29.84 C 14.23,30.32 14.71,30.45 14.95,30.45 H 17.3 C 17.75,30.41 18.04,30.13 18,29.45 A 0.7,0.7 0 0,0 17.3,28.75 H 14.9 C 13.88,28.68 13.64,28.05 13.65,27.73 V 27.05 C 13.71,26.21 14.61,26.01 15.06,26.01 C 15.26,26.01 15.96,25.99 17.1,26.01 C 18.23,26.03 18.48,26.71 18.47,27.05 Z M 19,27.5 H 19.43 V 29.84 C 19.43,30.23 19.74,30.54 20.13,30.54 H 21.54 A 0.7,0.7 0 0,0 22.24,29.84 V 27.5 H 22.72 V 31 H 22.24 V 30.34 A 1,1 0 0,1 21.3,31 H 20 A 1,1 0 0,1 19,30 V 27.5 Z" fill="rgb(134, 21, 35)"/>
<path d="M 46.190000000000005,27.485 H 45.67 V 31 H 46.2 V 28.31 A 0.7,0.7 0 0,1 46.8,27.97 H 47.79 C 48.17,27.97 48.49,28.28 48.49,28.67 V 31 H 49 V 28.67 C 49,28.28 49.32,27.97 49.7,27.97 H 50.76 C 51.15,27.97 51.46,28.28 51.46,28.67 V 31 H 52 V 28.5 A 1,1 0 0,0 51,27.5 H 49.93 A 1,1 0 0,0 48.96,28.23 A 1,1 0 0,0 48,27.5 H 47.02 A 1,1 0 0,0 46.2,27.93 V 27.5 Z" fill="rgb(0, 53, 113)"/>
<path d="M 23.99,27.485 H 23.53 V 32.39 H 24 V 30.66 A 1,1 0 0,0 24.75,31 H 26.35 A 1,1 0 0,0 27.35,30 V 28.5 A 1,1 0 0,0 26.35,27.5 H 24.75 A 1,1 0 0,0 24,27.84 V 27.5 Z M 24,30.05 V 28.43 A 0.7,0.7 0 0,1 24.65,28 H 26.13 C 26.51,28 26.83,28.31 26.83,28.7 V 29.78 A 0.7,0.7 0 0,1 26.13,30.48 H 24.65 A 0.7,0.7 0 0,1 24,30.05 Z" fill="rgb(134, 21, 35)"/>
<path d="M 41.99,27.485 A 1,1 0 0,0 41,28.5 V 30 A 1,1 0 0,0 42,31 H 44 A 1,1 0 0,0 45,30 V 28.5 A 1,1 0 0,0 44,27.5 H 42 Z M 42.14,28 A 0.7,0.7 0 0,0 41.44,28.7 V 29.8 C 41.44,30.19 41.76,30.5 42.14,30.5 H 43.86 A 0.7,0.7 0 0,0 44.56,29.8 V 28.7 A 0.7,0.7 0 0,0 43.86,28 H 42.14 Z" fill="rgb(0, 53, 113)" fill-rule="evenodd"/>
<path d="M 28.88,27.485 C 28.23,27.5 27.69,28.04 27.69,28.7 V 29.8 C 27.69,30.46 28.23,31 28.89,31 H 30.39 C 30.99,31 31.49,30.57 31.58,30 H 31.08 A 0.7,0.7 0 0,1 30.39,30.53 H 28.89 A 0.7,0.7 0 0,1 28.19,29.83 V 29.38 H 31.59 V 28.7 C 31.59,28.04 31.06,27.5 30.39,27.5 H 28.89 Z M 31.09,28.89 V 28.69 A 0.7,0.7 0 0,0 30.39,27.99 H 28.89 A 0.7,0.7 0 0,0 28.19,28.69 V 28.89 H 31.09 Z" fill="rgb(134, 21, 35)" fill-rule="evenodd"/>
<path d="M 35.4,27.485 C 35.41,26.67 36.08,26 36.91,26 H 39.1 C 39.92,26 40.6,26.67 40.6,27.5 V 27.63 H 40 V 27.53 A 1,1 0 0,0 39,26.53 H 37 A 1,1 0 0,0 36,27.53 V 29.47 A 1,1 0 0,0 37,30.47 H 39 A 1,1 0 0,0 40,29.47 V 29.31 H 40.6 V 29.5 C 40.6,30.33 39.92,31 39.1,31 H 36.9 A 1.5,1.5 0 0,1 35.4,29.5 V 27.5 Z" fill="rgb(0, 53, 113)"/>
<path d="M 32.46,27.485 H 32 V 31 H 32.47 V 28.38 A 0.7,0.7 0 0,1 33.1,28 H 33.99 C 34.38,28 34.69,28.31 34.69,28.7 V 29 H 35.17 V 28.5 A 1,1 0 0,0 34.17,27.5 H 33.33 A 1,1 0 0,0 32.47,27.98 V 27.5 Z" fill="rgb(134, 21, 35)"/>
</svg>
