<?xml version="1.0" encoding="UTF-8"?>
<!-- generated by Finnhub -->
<svg viewBox="0 0 55.5 55.5" xmlns="http://www.w3.org/2000/svg">
<path d="M 0,0 H 55.5 V 55.5 H 0 Z" fill="rgb(239, 242, 248)"/>
<path d="M 41.99,37.985 H 17 V 37 H 19.5 C 19.86,32.22 24.55,30.28 27.16,26.42 H 24.14 C 22.68,26.93 20.49,30.17 20.49,32 H 16.69 L 16.74,30.56 L 15.49,31.57 L 12.16,27.81 S 12,27.61 12,27.46 C 12,27.31 12.05,27.2 12.05,27.2 L 17.31,20.24 L 18.25,17.5 L 19.65,17 L 21.12,15 L 20.6,11.55 C 22,11.04 23.36,11.5 24.04,12.15 C 24.07,11.45 24.05,10.73 23.99,10.02 C 26.49,9.77 27.37,11.09 27.79,12.56 C 28.42,12.61 29.05,12.7 29.67,12.82 C 29.72,12.66 29.83,12.52 29.97,12.42 C 30.11,12.32 30.27,12.26 30.45,12.26 C 30.91,12.26 31.23,12.61 31.23,13.02 V 13.22 C 32.33,13.58 33.36,14.09 34.3,14.64 A 0.74,0.74 0 0,1 34.93,14.34 C 35.39,14.34 35.71,14.69 35.71,15.1 C 35.71,15.3 35.66,15.46 35.55,15.56 A 13.2,13.2 0 0,1 37.85,18.05 C 37.95,17.99 38.08,17.95 38.21,17.95 C 38.68,17.95 39.04,18.3 39.04,18.71 C 39.04,19.01 38.88,19.27 38.62,19.37 A 14,14 0 0,1 39.87,22.37 C 39.93,22.32 40.03,22.32 40.08,22.32 C 40.55,22.32 40.86,22.67 40.86,23.08 C 40.86,23.48 40.6,23.78 40.29,23.84 C 40.49,24.91 40.66,25.97 40.76,27.09 C 41.23,27.09 41.59,27.45 41.59,27.85 C 41.59,28.31 41.23,28.61 40.81,28.67 A 37,37 0 0,1 40.66,32.02 C 40.86,32.05 41.04,32.14 41.18,32.29 C 41.31,32.44 41.38,32.63 41.38,32.83 C 41.38,33.23 41.02,33.59 40.55,33.59 H 40.5 C 40.3,34.71 40.08,35.82 39.82,36.99 H 42 V 37.99 Z M 38.25,37 C 41.27,24.86 37.73,15.26 28.09,14.15 C 28.14,14.65 28.14,15.06 28.14,15.47 C 28.14,16.07 28.09,16.59 28.09,16.59 L 26.59,16.33 C 26.64,15.83 26.74,12.37 25.49,11.61 C 25.49,11.61 25.49,13.44 25.07,15.26 L 23.67,15.01 C 23.67,13.74 23.09,13.23 22.31,12.88 L 22.68,15.37 L 21.79,16.64 L 22.21,17.8 L 19.45,18.72 L 18.67,20.9 L 13.82,27.4 L 15.65,29.54 L 17.68,27.86 L 18.15,28.16 V 30.66 H 19.24 A 9.98,9.98 0 0,1 22.62,25.78 L 21.84,24.87 L 23,23.9 L 24.1,25 S 28,25.05 28,25 C 28.57,23.78 28.94,22.73 28.94,21 H 30.44 C 30.44,26.8 27.48,28.83 23.78,32.39 C 22.43,33.71 21.23,35.07 21.08,37 H 38.26 Z M 16.53,25.83 C 16.58,26.49 16.48,27.51 16.11,28.02 L 15.02,27.61 C 15.39,27.11 15.59,26.39 15.59,25.78 L 16.53,25.83 Z M 22.52,20.19 L 20.18,21.41 L 20.02,19.53 L 22.47,19.28 L 22.52,20.19 Z" fill="rgb(1, 39, 88)"/>
<path d="M 41.99,44.985 H 17 V 42 H 42 V 45 Z" fill="rgb(237, 124, 15)"/>
</svg>
