<?xml version="1.0" encoding="UTF-8"?>
<!-- generated by Finnhub -->
<svg viewBox="0 0 55.5 55.5" xmlns="http://www.w3.org/2000/svg">
<path d="M 0,0 H 55.5 V 55.5 H 0 Z" fill="rgb(239, 242, 248)"/>
<path d="M 29.009999999999998,12.165 V 12.26 L 29.03,20.76 C 29.03,21.16 29.25,21.54 29.59,21.76 L 33.44,24.62 C 33.8,24.84 34,25.21 34,25.61 V 31.23 C 34,31.63 34.2,31.98 34.54,32.2 L 42.19,36.17 C 43.19,36.81 44.39,35.75 43.87,34.7 L 43.52,34 L 31.2,11.6 C 30.63,10.53 29,10.96 29.02,12.17 Z M 27,12.26 V 12.18 C 27.02,10.98 25.39,10.54 24.81,11.61 L 12.48,34 L 12.13,34.7 C 11.6,35.76 12.81,36.82 13.81,36.18 L 21.5,32.12 C 21.84,31.9 22,31.55 22,31.15 V 25.53 C 22,25.13 22.24,24.76 22.6,24.54 L 26.42,21.78 C 26.76,21.56 26.98,21.19 26.98,20.79 L 27,12.27 Z M 40.32,40 H 15.42 C 13.92,40 13.37,37.98 14.68,37.2 L 21.52,33.13 C 21.96,32.85 22.52,32.87 22.96,33.14 L 27.18,35.92 C 27.64,36.21 28.2,36.19 28.66,35.92 L 32.86,33.16 C 33.31,32.86 33.86,32.86 34.33,33.14 L 41.08,37.23 C 42.38,37.98 41.83,40 40.32,40 Z" fill="rgb(189, 1, 2)"/>
</svg>
