<?xml version="1.0" encoding="UTF-8"?>
<!-- generated by Finnhub -->
<svg viewBox="0 0 55.5 55.5" xmlns="http://www.w3.org/2000/svg">
<path d="M 0,0 H 55.5 V 55.5 H 0 Z" fill="rgb(239, 242, 248)"/>
<path d="M 26.319999999999997,29.985 C 27.53,30 28.64,29.31 28.64,28.06 C 28.64,26.79 27.71,26 26.33,26 H 25.53 A 3.46,3.46 0 0,0 22,29.49 V 34 H 19 V 29.5 C 19,26.99 21.5,25 24.52,25 H 26.72 C 29,25 31.75,25.76 31.75,28.06 C 31.75,30.4 29.23,31 26.73,31 H 23 V 30 H 26.33 Z M 34,25 H 37 V 34 H 34 V 25 Z M 48,30 H 43 C 43.2,31.7 44.63,33 46.1,33 H 50 V 34 H 45.25 C 42.38,34 40,32.01 40,29.5 S 42.38,25 45.25,25 H 50 V 26 H 46.1 C 44.63,26 43.2,27.29 43,29 H 48 V 30 Z M 9.26,27.02 C 9.26,27.38 9.68,27.71 10.42,27.92 L 13.08,28.62 C 14.99,29.09 17,29.73 17,31.22 C 17,32.87 14.11,34 10.2,34 C 8.75,34 7.39,33.85 6,33.44 L 6.44,32.64 C 7.7,33.12 9.5,33.21 10.83,33.21 C 12.43,33.21 13.74,32.68 13.74,31.91 C 13.74,31.46 13.32,31.09 12.6,30.89 C 11.88,30.69 10.95,30.45 10,30.23 C 8.12,29.79 6.15,29.22 6.15,27.66 C 6.15,26.16 8.25,25 12.1,25 C 13.31,25 15.08,25.16 16.22,25.63 L 15.72,26.28 C 14.54,25.93 13.21,25.8 11.99,25.8 C 9.96,25.8 9.26,26.39 9.26,27.02 Z" fill="rgb(14, 29, 88)"/>
<path d="M 31.99,18.985 A 4,4 0 0,1 39.83,17.85 C 39.52,17.39 39.15,16.96 38.74,16.58 L 38.5,16.68 C 39.04,17.1 39.51,17.59 39.91,18.15 C 39.96,18.37 39.99,18.59 40,18.81 A 7.06,7.06 0 0,0 38,16.92 L 37.66,17.1 C 38.57,17.56 39.36,18.22 40,19.02 L 39.97,19.53 A 6.64,6.64 0 0,0 37.05,17.46 L 36.62,17.76 C 37.9,18.06 39.05,18.76 39.93,19.73 L 39.83,20.18 A 6.33,6.33 0 0,0 35.93,18.3 L 35.45,18.76 H 35.51 C 37.08,18.76 38.59,19.34 39.75,20.39 A 3.8,3.8 0 0,1 39.57,20.81 A 6.05,6.05 0 0,0 34.77,19.53 C 34.62,19.73 34.47,19.95 34.33,20.18 A 6.06,6.06 0 0,1 39.43,21.04 A 4.1,4.1 0 0,1 39.16,21.46 A 5.83,5.83 0 0,0 33.79,21.16 C 33.69,21.41 33.58,21.67 33.49,21.94 A 5.8,5.8 0 0,1 38.94,21.71 A 4,4 0 0,1 32,19 Z" fill="rgb(203, 1, 2)"/>
</svg>
