<?xml version="1.0" encoding="UTF-8"?>
<!-- generated by Finnhub -->
<svg viewBox="0 0 55.5 55.5" xmlns="http://www.w3.org/2000/svg">
<path d="M 0,0 H 55.5 V 55.5 H 0 Z" fill="rgb(43, 83, 203)"/>
<path d="M 18.99,30.985 C 18.13,31 17.31,30.37 17.03,29.65 C 16.95,29.44 17.03,29.19 17.22,29.08 C 17.41,29 17.64,29.08 17.72,29.29 C 17.85,29.65 18.26,30 18.95,30 C 19.8,30 20,29.58 20,29 C 20,28.23 19.5,28.14 19,28 C 18.18,27.77 17.01,27.23 17.01,25.9 C 17.01,24.82 17.91,24 18.97,24 C 19.78,24 20.45,24.42 20.73,25.1 C 20.83,25.31 20.75,25.73 20.56,25.81 C 20.37,25.91 20.15,25.83 20.05,25.63 C 19.92,25.33 19.57,25 18.95,25 C 18.32,25 18,25.5 18,25.9 S 18.13,26.69 19.04,26.94 C 19.86,27.17 21,27.48 21,28.94 C 21,30.07 20.11,31 19,31 Z M 28,27.5 C 28,29.4 27,31 25,31 C 24.1,31 23.51,30.6 23,29.9 V 33.6 C 23,33.82 22.7,34 22.5,34 S 22,33.82 22,33.6 V 24.38 C 22,24.16 22.3,24 22.5,24 S 23,24.18 23,24.38 V 25.08 C 23.55,24.42 24.11,24 25,24 C 26.9,24 28,25.6 28,27.5 Z M 27,27.5 C 27,26.05 26.28,25 25,25 C 23.7,25 23,26.07 23,27.5 S 23.7,30 25,30 C 26.26,30 27,28.93 27,27.5 Z M 29.5,23 C 29.77,23 30,23.2 30,23.41 C 30,23.65 29.8,23.83 29.5,23.83 C 29.23,23.83 29,23.65 29,23.41 C 29.02,23.2 29.25,23 29.5,23 Z M 29.5,31 C 29.25,31 29,30.82 29,30.6 V 24.8 C 29,24.6 29.25,24.43 29.5,24.43 S 30,24.61 30,24.81 V 30.59 C 30,30.82 29.77,31 29.5,31 Z M 35,24.5 C 35,24.73 34.82,25 34.61,25 C 33.54,25 33,25.78 33,27 V 30.58 C 33,30.81 32.71,31 32.5,31 C 32.29,31 32,30.81 32,30.58 V 24.42 C 32,24.19 32.3,24 32.5,24 C 32.71,24 33,24.21 33,24.42 V 24.84 C 33.47,24.31 33.89,24 34.61,24 C 34.82,24.02 35,24.27 35,24.5 Z M 38.02,31 C 36.24,31 35,29.49 35,27.51 C 35,25.78 36.14,24 38.02,24 C 39.76,24 41,25.47 41,27.49 C 41,27.72 40.82,28 40.6,28 H 36 C 36.18,29.32 36.8,30 38,30 C 38.82,30 39.6,29.74 40,28.98 C 40.12,28.79 40.35,28.73 40.53,28.86 C 40.71,28.98 40.76,29.23 40.67,29.42 A 3.04,3.04 0 0,1 38.02,31 Z M 36,27 H 40 C 39.86,25.63 39.18,25 38,25 C 36.8,25 36.16,25.65 36,27 Z M 47,27 V 30.58 C 47,30.81 46.69,31 46.5,31 C 46.3,31 46,30.81 46,30.58 V 27 C 46,25.74 45.54,25 44.56,25 C 43.51,25 43,25.8 43,27 V 30.58 C 43,30.81 42.7,31 42.5,31 S 42,30.81 42,30.58 V 24.42 C 42,24.19 42.31,24 42.5,24 C 42.7,24 43,24.21 43,24.42 V 24.88 C 43.47,24.34 43.85,24 44.56,24 C 46.5,24 47,25.56 47,27 Z M 51.85,29.63 C 52.05,29.78 52.05,30.04 51.89,30.23 C 51.54,30.63 51.06,31 50.56,31 C 49.59,31 49,30.22 49,29.27 V 25 H 48.41 C 48.17,25 48,24.74 48,24.5 S 48.2,24 48.41,24 H 49 V 22.43 C 49,22.19 49.26,22 49.5,22 S 50,22.2 50,22.43 V 24 H 51.52 C 51.76,24 52,24.28 52,24.5 C 52,24.74 51.76,25 51.52,25 H 50 V 29.3 C 50,29.77 50.09,30 50.56,30 C 50.83,30 51.06,29.9 51.22,29.7 C 51.42,29.5 51.67,29.46 51.85,29.63 Z M 9,31.23 A 4.19,4.19 0 0,1 4.86,28 H 5.9 L 4.25,25.4 L 4.23,25.45 C 4.07,25.91 3.99,26.38 3.99,26.9 V 27.28 C 3.99,27.36 3.99,27.42 4.01,27.5 V 27.54 A 5.02,5.02 0 0,0 13.33,29.5 L 12.85,28.75 A 4.23,4.23 0 0,1 9,31.23 Z M 14,27 C 14,26.86 14,26.7 13.98,26.56 V 26.54 A 5,5 0 0,0 4.62,24.56 L 5.1,25.31 A 4.25,4.25 0 0,1 9,22.75 A 4.2,4.2 0 0,1 13.16,26 H 12.06 L 13.72,28.67 C 13.88,28.25 13.96,27.79 14,27.32 V 27 Z" fill="rgb(254, 251, 253)"/>
</svg>
