<?xml version="1.0" encoding="UTF-8"?>
<!-- generated by Finnhub -->
<svg viewBox="0 0 55.5 55.5" xmlns="http://www.w3.org/2000/svg">
<path d="M 0,0 H 55.5 V 55.5 H 0 Z" fill="rgb(21, 103, 124)"/>
<path d="M 7.99,24.255 C 8,23.45 8.95,23 10.19,23 C 10.79,23 11.77,23.11 13.15,23.27 L 13.57,23.32 L 13.77,21.46 A 20.03,20.03 0 0,0 9.94,21 C 7.77,21 6,22.11 6,24.44 C 6,26.6 7.86,27.26 9.7,27.78 H 9.72 C 10.5,28.01 12,28.44 12,29.45 C 12,30.45 11.07,31 9.86,31 C 9.06,31 7.9,30.85 6.37,30.65 L 6.14,32.47 L 6.74,32.59 C 8.04,32.86 9.11,33 10,33 C 12.26,33 14,31.65 14,29.3 C 14,27.31 12.49,26.54 10.74,25.98 L 10.29,25.85 C 9.4,25.6 8,25.22 8,24.27 Z M 42,26 H 43.98 V 24 H 42 V 22 H 40 V 24 H 39 V 26 H 40 V 29.79 C 40,31.62 40.34,33 42.4,33 C 42.76,33 43.3,32.92 44,32.75 L 43.9,30.94 L 42.7,30.97 C 42,30.97 42,30.28 42,29.74 V 26 Z M 48,26 H 49.98 V 24 H 48 V 22 H 46 V 24 H 45 V 26 H 46 V 29.79 C 46,31.62 46.34,33 48.4,33 C 48.76,33 49.3,32.92 50,32.75 L 49.9,30.94 L 48.7,30.97 C 48,30.97 48,30.28 48,29.74 V 26 Z M 30.92,25.19 C 31.54,24.39 32.56,24 34,24 C 35.44,24 36.46,24.4 37.08,25.19 C 37.69,25.96 38,27.06 38,28.49 C 38,31.49 36.67,33 34,33 S 30,31.5 30,28.48 C 30,27.06 30.3,25.96 30.92,25.18 Z M 34,31 C 35.44,31 36,30 36,28.48 S 35.43,26 34,26 C 32.55,26 32,26.93 32,28.48 C 32,30.03 32.55,31 34,31 Z M 24,24 V 33 H 26 V 26.8 C 26.66,26.6 28.08,26.26 29,26.06 V 24 C 28.14,24.18 26.96,24.56 26,25.14 V 24 H 24 Z M 15,36 V 24 H 17 V 24.74 A 5.3,5.3 0 0,1 19.29,24 C 21.98,24 22.71,26.32 22.71,28.62 C 22.71,31.38 21.64,33 18.77,33 H 18.76 C 18.38,33 17.97,33 17.53,32.93 L 17,32.9 V 36 H 15 Z M 18.84,26 C 18.2,26 17.54,26.16 17,26.47 V 30.95 C 17.44,31.01 18.05,31 18.42,31 H 18.59 C 20.12,31 20.66,29.78 20.66,28.5 C 20.66,26.92 19.84,26 18.84,26 Z" fill="rgb(254, 254, 253)"/>
</svg>
