<?xml version="1.0" encoding="UTF-8"?>
<!-- generated by Finnhub -->
<svg viewBox="0 0 55.5 55.5" xmlns="http://www.w3.org/2000/svg">
<rect width="56" height="56" fill="rgb(239, 242, 248)"/>
<path d="M 34.306000000000004,22.294999999999998 C 34.1334,22.5562 33.9069,22.7572 33.6367,22.9129 C 33.344,22.5588 33.0322,22.2239 32.7013,21.908 C 30.6004,19.8971 27.4742,19.6478 24.896,20.7437 C 21.7362,22.0854 20.0519,25.0742 20.1091,28.4572 C 20.1593,31.4071 20.2064,34.3574 20.2506,37.3081 L 20.2461,37.8852 C 20.2454,37.9234 20.2323,37.9559 20.2068,37.9829 L 19.998,38.2063 L 17.1829,41.0133 C 17.1462,41.0492 17.1084,41.0503 17.0694,41.0166 C 13.1921,37.6786 10.8957,32.8955 10.999,27.7366 C 11.2977,12.7066 29.545,5.3126 40.189,16.1626 C 40.219,16.1941 40.2253,16.23 40.2081,16.2704 C 40.1602,16.3812 40.085,16.489 39.9824,16.5938 C 38.1042,18.5025 36.2154,20.4079 34.3162,22.3099 Z M 30.5004,12.068 C 29.3191,11.8906 27.8964,11.8165 26.6983,11.9344 C 26.6639,11.9382 26.6485,11.9569 26.6523,11.9906 L 27.4607,19.1 C 27.4652,19.1397 27.4873,19.1599 27.527,19.1606 L 29.1754,19.2168 C 29.2054,19.2183 29.2233,19.2041 29.2293,19.1741 L 30.5453,12.1309 C 30.5521,12.0942 30.5371,12.0733 30.5004,12.068 Z M 24.9421,19.6985 L 26.531,19.2673 C 26.5639,19.2583 26.5785,19.237 26.5748,19.2033 L 25.7494,12.077 C 25.7457,12.0486 25.7296,12.0366 25.7012,12.0411 C 24.4375,12.2275 23.2121,12.5561 22.0248,13.0269 C 22.0178,13.0296 22.0114,13.0337 22.0061,13.0389 C 22.0007,13.0442 21.9965,13.0505 21.9936,13.0574 C 21.9908,13.0643 21.9894,13.0718 21.9896,13.0793 C 21.9897,13.0868 21.9914,13.0942 21.9945,13.101 L 24.8601,19.6592 C 24.8758,19.6958 24.9032,19.7089 24.9421,19.6985 Z M 31.7008,20.0027 C 31.7084,20.0059 31.717,20.006 31.7247,20.0031 C 31.7324,20.0001 31.7387,19.9944 31.7424,19.987 L 35.0998,13.5928 C 35.1178,13.5583 35.1092,13.5325 35.074,13.5153 C 33.9316,12.9629 32.7417,12.5437 31.5043,12.2578 C 31.4646,12.2488 31.4411,12.2645 31.4336,12.3049 L 30.1085,19.347 C 30.1041,19.3725 30.1138,19.3901 30.1377,19.3998 L 31.7008,20.0027 Z M 17.8648,15.5419 L 22.536,20.9504 C 22.5622,20.9811 22.5925,20.9855 22.627,20.9638 L 24.0216,20.0926 C 24.0471,20.0768 24.0538,20.0555 24.0418,20.0286 L 21.1638,13.4614 C 21.1466,13.4232 21.1197,13.4131 21.083,13.4311 C 19.9391,13.9895 18.869,14.6643 17.8726,15.4555 C 17.8404,15.4809 17.8378,15.5097 17.8648,15.5419 Z M 32.5348,20.5226 L 33.7094,21.5612 C 33.7386,21.5866 33.767,21.5859 33.7947,21.5589 L 39.0207,16.3324 C 39.0544,16.2994 39.0536,16.2669 39.0184,16.2347 C 38.0902,15.3776 37.0799,14.6313 35.9877,13.9958 C 35.9495,13.9734 35.9203,13.982 35.9001,14.0217 L 32.5191,20.4395 C 32.5026,20.4709 32.5079,20.4986 32.5348,20.5226 Z M 14.6558,19.1 L 20.715,22.8894 C 20.7404,22.9059 20.7633,22.9025 20.7835,22.8793 L 21.8558,21.6195 C 21.8783,21.5941 21.8783,21.5683 21.8558,21.5421 L 17.1722,16.1235 C 17.1673,16.1178 17.1613,16.1131 17.1545,16.1098 C 17.1477,16.1064 17.1403,16.1045 17.1328,16.1041 C 17.1252,16.1036 17.1176,16.1047 17.1105,16.1073 S 17.0969,16.1139 17.0914,16.119 C 16.1713,16.9896 15.3516,17.9454 14.6322,18.9866 C 14.6,19.033 14.6079,19.0708 14.6558,19.1 Z M 14.1853,19.8736 C 14.1337,19.8407 14.0925,19.8508 14.0618,19.9039 C 13.4292,20.9968 12.9299,22.1476 12.5638,23.3565 C 12.5511,23.3999 12.5665,23.4272 12.6099,23.4384 L 19.5303,25.272 C 19.561,25.2802 19.5827,25.2697 19.5954,25.2405 L 20.2501,23.7281 C 20.2643,23.6959 20.2565,23.6705 20.2265,23.6518 L 14.1853,19.8736 Z M 12.3067,24.3603 C 12.0372,25.474 11.7969,26.9471 11.8901,28.1002 C 11.8953,28.1654 11.9309,28.1968 11.9968,28.1946 L 19.1059,27.9049 C 19.1321,27.9034 19.1467,27.8895 19.1496,27.8633 L 19.3327,26.2095 C 19.3343,26.1936 19.3302,26.1776 19.3212,26.1645 C 19.3121,26.1513 19.2987,26.1418 19.2833,26.1376 L 12.3831,24.3153 C 12.3419,24.3041 12.3164,24.3191 12.3067,24.3603 Z M 19.1216,28.8053 L 11.9923,29.0928 C 11.9444,29.0943 11.9223,29.119 11.926,29.1669 C 12.0241,30.4386 12.2618,31.6842 12.6391,32.9035 C 12.6481,32.9327 12.6668,32.9424 12.6952,32.9327 L 19.1564,30.6546 C 19.1976,30.6403 19.2178,30.6112 19.217,30.567 L 19.1766,28.857 C 19.1758,28.8211 19.1575,28.8038 19.1216,28.8053 Z M 19.272,33.8803 L 19.2406,31.6595 C 19.2399,31.6093 19.2155,31.5925 19.1676,31.6089 L 13.013,33.7815 C 13.0061,33.784 12.9997,33.7879 12.9943,33.7929 C 12.9889,33.7978 12.9846,33.8039 12.9815,33.8106 C 12.9785,33.8173 12.9768,33.8245 12.9767,33.8319 C 12.9765,33.8392 12.9778,33.8465 12.9804,33.8534 C 13.4461,35.0428 14.0442,36.1622 14.7748,37.2116 C 14.7965,37.2431 14.8227,37.2472 14.8534,37.224 L 19.2238,33.9769 C 19.2567,33.9529 19.2728,33.9207 19.272,33.8803 Z M 15.3913,38.0256 C 15.8607,38.6555 16.4446,39.2876 17.0229,39.8131 C 17.0388,39.8273 17.0595,39.8349 17.0808,39.8343 S 17.1224,39.8249 17.1374,39.8097 L 19.2788,37.6742 C 19.3132,37.6398 19.3301,37.5986 19.3293,37.5507 L 19.2956,35.1547 C 19.2949,35.0873 19.2676,35.0738 19.2137,35.1143 L 15.4037,37.9414 C 15.3715,37.9654 15.3674,37.9934 15.3913,38.0256 Z" fill="rgb(196, 55, 47)"/>
<path d="M 20.24,37.985 V 36.9989 L 23.4547,37 C 23.4921,37.0007 23.524,37.0176 23.5502,36.9899 L 25.7162,35.0019 C 25.7417,34.9757 25.7469,34.9457 25.732,34.9121 L 23.7062,30.4411 C 23.6905,30.4075 23.6995,30.3828 23.7332,30.367 L 24.453,30.0392 C 24.4799,30.0272 24.4998,30.0347 24.5125,30.0616 L 27.7734,36.8771 C 27.7898,36.9129 27.816,36.9433 27.8491,36.9646 C 27.8821,36.9859 27.9206,36.9972 27.9598,36.9972 H 40.5258 L 37.7778,31.0737 C 37.7614,31.037 37.7333,31 37.6936,31 H 34.8217 C 34.782,31 34.7543,30.982 34.7386,30.9461 L 32.3198,26.0449 C 32.3034,26.0082 32.2749,26.0007 32.2345,26 H 28.7793 C 28.7498,26.0005 28.7271,26.0178 28.7389,26.0449 L 29.4228,27.5754 C 29.4407,27.615 29.4295,27.6439 29.3891,27.6618 L 28.6974,27.9751 C 28.6547,27.9938 28.6236,27.9818 28.6042,27.9392 L 27.3027,25.0648 C 27.2848,25.0244 27.2979,25.0042 27.342,25.0042 H 32.8296 C 32.8671,25.0042 32.8937,25.0214 32.9094,25.0559 L 35.2845,29.9291 C 35.301,29.9658 35.3294,30 35.3698,30 H 37.3076 C 37.3518,30 37.3645,29.9798 37.3458,29.9393 C 36.4351,27.934 35.16,24.9238 33.6362,22.9129 C 33.9065,22.7572 34.1329,22.5562 34.3156,22.31 C 35.2304,23.5832 36.0071,24.9197 36.6456,26.3194 C 38.2499,29.839 39.8496,33.3593 41.4449,36.8804 C 41.4466,36.8843 41.4493,36.8877 41.4528,36.8902 S 41.4604,36.8942 41.4646,36.8946 C 41.4689,36.8949 41.4732,36.8941 41.477,36.8922 C 41.4809,36.8903 41.4841,36.8874 41.4864,36.8838 C 45.183,31.1677 44.9899,23.9458 41.0058,18.4318 C 40.9781,18.3943 40.9834,18.3625 41.0215,18.3363 L 41.6066,17.931 C 41.644,17.9056 41.6762,17.9112 41.7031,17.9478 C 43.8396,20.9105 44.9363,24.2014 44.9932,27.8205 C 45.1179,35.7529 39.4562,42.9505 31.6752,44.5945 C 27.1214,45.5571 22.8432,44.8041 18.8402,42.3355 C 18.7916,42.3056 18.7818,42.2663 18.811,42.2176 L 19.1704,41.6214 C 19.1751,41.6132 19.1816,41.606 19.1892,41.6004 C 19.1969,41.5947 19.2057,41.5907 19.215,41.5885 S 19.234,41.586 19.2435,41.5876 S 19.2621,41.5927 19.2703,41.5978 C 26.3041,46.0149 35.0863,44.3545 40.5253,38.1725 C 40.6271,38.0572 40.6013,37.9996 40.4478,37.9996 H 27.3228 C 27.2944,37.9996 27.2665,37.9914 27.2426,37.9758 C 27.2187,37.9603 27.1998,37.9381 27.1881,37.912 L 26.2179,35.9682 C 26.2104,35.9515 26.199,35.937 26.1845,35.9259 C 26.17,35.9147 26.153,35.9073 26.1349,35.9043 S 26.0983,35.9028 26.0808,35.9087 C 26.0633,35.9145 26.0476,35.9246 26.0348,35.9379 L 23.9418,37.9687 C 23.9156,37.9964 23.8834,37.9996 23.8452,37.9996 H 20.2497 Z" fill="rgb(57, 48, 41)"/>
</svg>
