<?xml version="1.0" encoding="UTF-8"?>
<!-- generated by Finnhub -->
<svg viewBox="0 0 55.5 55.5" xmlns="http://www.w3.org/2000/svg">
<path d="M 0,0 H 55.5 V 55.5 H 0 Z" fill="rgb(239, 242, 248)"/>
<path d="M 13.99,43.985 V 19 L 28,15 L 18,20.75 V 25 L 28,19.5 L 20,26.5 L 18,27.6 V 32 L 28,26.25 L 20,33.5 L 18,34.5 V 38 L 28,33 L 38,38 V 34.5 L 36,33.5 L 28,26 L 38,32 V 27.6 L 36,26.5 L 28,19.5 L 38,25 V 20.75 L 28,15 L 42,19 V 44 L 28,36.5 L 14,44 Z" fill="rgb(167, 145, 124)"/>
<path d="M 27.99,15.485 V 11 L 14,19 L 18,21 L 28,15.5 Z M 18,25 L 20,26.5 L 28,22 V 19.5 L 18,25 Z M 18,32 L 20,33.5 L 28,29 V 26 L 18,32 Z M 18,38 L 21.5,40 L 28,36.5 V 33 L 18,38 Z M 28,15.5 V 11 L 42,19 L 38,21 L 28,15.5 Z M 38,25 L 36,26.5 L 28,22 V 19.5 L 38,25 Z M 36,33.5 L 28,29 V 26 L 38,32 L 36,33.5 Z M 28,36.5 L 34.5,40 L 38,38 L 28,33 V 36.5 Z" fill="rgb(1, 79, 158)"/>
</svg>
