<?xml version="1.0" encoding="UTF-8"?>
<!-- generated by Finnhub -->
<svg viewBox="0 0 55.5 55.5" xmlns="http://www.w3.org/2000/svg">
<path d="M 0,0 H 55.5 V 55.5 H 0 Z" fill="rgb(239, 242, 248)"/>
<path d="M 16.99,12.985 A 4,4 0 0,0 13,17 V 39 A 4,4 0 0,0 17,43 H 39 A 4,4 0 0,0 43,39 V 17 A 4,4 0 0,0 39,13 H 17 Z M 38.7,16.04 C 38.89,16.13 39,16.3 39,16.5 V 22 H 39.8 C 39.91,22 40,22.09 40,22.2 V 24.8 A 0.2,0.2 0 0,1 39.8,25 H 39 V 29 H 39.8 C 39.91,29 40,29.09 40,29.2 V 31.8 A 0.2,0.2 0 0,1 39.8,32 H 39 V 36 H 39.8 C 39.91,36 40,36.09 40,36.2 V 38.8 A 0.2,0.2 0 0,1 39.8,39 H 37.2 A 0.2,0.2 0 0,1 37,38.8 V 36.85 L 31.45,32 H 29.2 A 0.2,0.2 0 0,1 29,31.8 V 29.7 L 27,27.7 L 25,29.7 V 31.8 A 0.2,0.2 0 0,1 24.8,32 H 22.7 L 17.7,37 H 22 V 36.2 C 22,36.09 22.09,36 22.2,36 H 24.8 C 24.91,36 25,36.09 25,36.2 V 37 H 29 V 36.2 C 29,36.09 29.09,36 29.2,36 H 31.8 C 31.91,36 32,36.09 32,36.2 V 38.8 A 0.2,0.2 0 0,1 31.8,39 H 29.2 A 0.2,0.2 0 0,1 29,38.8 V 38 H 25 V 38.8 A 0.2,0.2 0 0,1 24.8,39 H 22.2 A 0.2,0.2 0 0,1 22,38.8 V 38 H 16.5 A 0.5,0.5 0 0,1 16.15,37.15 L 22,31.29 V 29.2 C 22,29.09 22.09,29 22.2,29 H 24.3 L 26.3,27 L 24.3,25 H 22.2 A 0.2,0.2 0 0,1 22,24.8 V 22.2 C 22,22.09 22.09,22 22.2,22 H 24.8 C 24.91,22 25,22.09 25,22.2 V 24.3 L 27,26.3 L 29,24.3 V 22.2 C 29,22.09 29.09,22 29.2,22 H 31.45 L 38.17,16.12 A 0.5,0.5 0 0,1 38.71,16.04 Z M 38,32 V 36 H 37.55 L 32,31.15 V 29.2 A 0.2,0.2 0 0,0 31.8,29 H 29.7 L 27.7,27 L 29.7,25 H 31.8 A 0.2,0.2 0 0,0 32,24.8 V 22.85 L 38,17.6 V 22 H 37.2 A 0.2,0.2 0 0,0 37,22.2 V 24.8 C 37,24.91 37.09,25 37.2,25 H 38 V 29 H 37.2 A 0.2,0.2 0 0,0 37,29.2 V 31.8 C 37,31.91 37.09,32 37.2,32 H 38 Z" fill="url(#a)"/>
<defs>
<linearGradient id="a" x1="14" x2="41" y1="14.5" y2="42" gradientUnits="userSpaceOnUse">
<stop stop-color="rgb(33, 120, 186)" offset="0"/>
<stop stop-color="rgb(38, 50, 89)" offset="1"/>
</linearGradient>
</defs>
</svg>
