<?xml version="1.0" encoding="UTF-8"?>
<!-- generated by Finnhub -->
<svg viewBox="0 0 55.5 55.5" xmlns="http://www.w3.org/2000/svg">
<path d="M 0,0 H 55.5 V 55.5 H 0 Z" fill="url(#a)"/>
<path d="M 3.99,28.765 H 4.52 V 28.94 C 4.52,29.15 4.58,29.27 4.7,29.37 C 4.83,29.47 5.03,29.51 5.32,29.51 H 6.52 C 6.94,29.51 7.22,29.5 7.4,29.43 C 7.59,29.35 7.64,29.16 7.64,28.97 C 7.64,28.81 7.61,28.67 7.51,28.59 C 7.4,28.51 7.21,28.46 6.87,28.46 H 5.09 C 4.69,28.46 4.42,28.4 4.25,28.26 C 4.07,28.11 4,27.88 4,27.56 V 27.36 C 4,27.08 4.08,26.86 4.33,26.72 A 3.1,3.1 0 0,1 5.74,26.5 H 6.61 C 7.24,26.5 7.61,26.6 7.81,26.75 C 8.01,26.9 8.05,27.11 8.05,27.35 V 27.53 H 7.53 C 7.53,27.33 7.49,27.16 7.29,27.07 C 7.13,27.01 6.89,27 6.57,27 H 5.55 C 5.15,27 4.88,27 4.73,27.07 C 4.59,27.14 4.56,27.24 4.56,27.43 V 27.56 C 4.56,27.7 4.59,27.81 4.68,27.88 C 4.78,27.96 4.95,28 5.24,28 H 6.78 C 7.2,28 7.55,28.02 7.8,28.16 C 8.12,28.33 8.2,28.69 8.2,29.02 C 8.2,29.49 7.98,29.74 7.68,29.86 C 7.38,29.99 6.99,30 6.65,30 H 5.6 C 5.19,30 4.78,30 4.48,29.87 C 4.18,29.75 3.99,29.49 3.99,28.98 V 28.78 Z M 9,26.55 H 9.52 V 27.09 H 9.53 C 9.62,26.89 9.77,26.74 9.97,26.64 C 10.17,26.54 10.41,26.5 10.66,26.5 H 11.72 C 12.12,26.5 12.52,26.56 12.8,26.78 C 13.08,26.98 13.27,27.34 13.27,27.93 V 28.53 C 13.27,29.07 13.15,29.44 12.89,29.67 C 12.62,29.9 12.21,29.99 11.63,29.99 H 10.56 C 10.26,29.99 10.04,29.95 9.89,29.87 A 0.63,0.63 0 0,1 9.58,29.49 H 9.57 V 31 H 9 V 26.55 Z M 12.7,27.93 C 12.7,27.61 12.67,27.39 12.52,27.23 C 12.37,27.07 12.12,27 11.72,27 H 10.6 C 10.23,27 9.97,27.1 9.81,27.26 A 0.92,0.92 0 0,0 9.56,27.94 V 28.59 C 9.56,28.99 9.69,29.22 9.89,29.35 C 10.09,29.49 10.36,29.52 10.66,29.52 H 11.66 C 11.99,29.52 12.26,29.48 12.43,29.35 C 12.61,29.21 12.71,28.99 12.71,28.6 V 27.93 Z M 20.44,26.55 H 21 V 27.01 C 21.1,26.79 21.25,26.69 21.44,26.61 C 21.62,26.53 21.83,26.5 22.03,26.5 H 22.57 C 23.11,26.5 23.47,26.59 23.69,26.78 C 23.91,26.98 24,27.27 24,27.69 V 28 H 23.47 C 23.47,27.7 23.51,27.39 23.25,27.17 C 23.08,27.03 22.78,27 22.27,27 H 21.91 C 21.61,27 21.38,27.1 21.23,27.25 A 0.83,0.83 0 0,0 21,27.83 V 30 H 20.44 V 26.55 Z M 25,27.2 H 24.28 V 26.76 H 25 V 26 H 25.58 V 26.76 H 27.81 V 27.2 H 25.58 V 28.79 C 25.58,29.09 25.63,29.28 25.76,29.39 C 25.89,29.52 26.1,29.56 26.41,29.56 H 26.59 C 26.96,29.56 27.18,29.52 27.29,29.4 C 27.42,29.28 27.45,29.08 27.45,28.74 V 28.5 H 27.91 V 28.85 C 27.91,29.17 27.89,29.46 27.73,29.67 C 27.56,29.87 27.23,30 26.63,30 H 26.32 C 25.79,30 25.46,29.88 25.27,29.7 A 0.94,0.94 0 0,1 25,29 V 27.2 Z M 28.74,26.55 H 29.92 V 27.21 H 29.93 C 30.07,26.66 30.59,26.5 31.16,26.5 C 32.07,26.5 32.43,26.9 32.43,27.86 L 32.42,28 H 31.33 C 31.33,27.86 31.23,27.51 30.73,27.51 C 30.3,27.51 30,27.68 30,28.09 V 30 H 28.74 V 26.55 Z M 48.3,26.55 H 49.48 V 27.21 H 49.49 C 49.64,26.66 50.15,26.5 50.72,26.5 C 51.64,26.5 52,26.9 52,27.86 L 51.99,28 H 50.9 C 50.9,27.86 50.8,27.51 50.3,27.51 C 49.86,27.51 49.56,27.68 49.56,28.09 V 30 H 48.31 V 26.55 Z M 33,28.76 C 33,28.29 33.16,28.05 33.47,27.92 C 33.77,27.79 34.24,27.78 34.85,27.78 C 35.19,27.78 35.45,27.78 35.67,27.82 C 35.88,27.86 36.04,27.92 36.16,28.05 V 27.75 C 36.16,27.58 36.13,27.47 36.05,27.4 C 35.96,27.33 35.81,27.3 35.57,27.3 H 34.83 C 34.46,27.3 34.36,27.33 34.34,27.57 H 33.12 C 33.12,27.11 33.24,26.84 33.48,26.69 C 33.72,26.54 34.1,26.5 34.63,26.5 H 36.09 C 36.96,26.5 37.41,26.92 37.41,27.72 V 30 H 36.22 V 29.56 C 36.05,29.74 35.93,29.86 35.77,29.92 C 35.62,29.98 35.43,30 35.12,30 H 34.26 C 33.87,30 33.56,29.96 33.34,29.82 C 33.12,29.68 33,29.43 33,29.03 V 28.76 Z M 35.24,29.2 C 35.67,29.2 35.91,29.17 36.04,29.1 C 36.16,29.04 36.18,28.95 36.18,28.84 C 36.18,28.72 36.17,28.63 36.06,28.57 C 35.96,28.52 35.76,28.5 35.42,28.5 H 34.86 C 34.59,28.5 34.43,28.53 34.34,28.6 C 34.24,28.66 34.22,28.76 34.22,28.9 C 34.22,29 34.26,29.08 34.37,29.13 C 34.47,29.18 34.63,29.2 34.88,29.2 H 35.24 Z M 43.22,28.76 C 43.22,28.29 43.38,28.05 43.69,27.92 C 44,27.79 44.46,27.78 45.07,27.78 C 45.42,27.78 45.68,27.78 45.89,27.82 C 46.11,27.86 46.26,27.92 46.39,28.05 V 27.75 C 46.39,27.58 46.36,27.47 46.27,27.4 C 46.19,27.33 46.04,27.3 45.79,27.3 H 45.05 C 44.69,27.3 44.58,27.33 44.57,27.57 H 43.35 C 43.35,27.11 43.46,26.84 43.7,26.69 C 43.95,26.54 44.33,26.5 44.86,26.5 H 46.32 C 47.18,26.5 47.64,26.92 47.64,27.72 V 30 H 46.44 V 29.56 C 46.27,29.74 46.15,29.86 46,29.92 C 45.84,29.98 45.65,30 45.34,30 H 44.48 C 44.1,30 43.78,29.96 43.57,29.82 C 43.35,29.68 43.22,29.43 43.22,29.03 V 28.76 Z M 45.46,29.2 C 45.9,29.2 46.13,29.17 46.26,29.1 C 46.39,29.04 46.41,28.95 46.41,28.84 C 46.41,28.72 46.39,28.63 46.29,28.57 C 46.19,28.52 45.99,28.5 45.64,28.5 H 45.09 C 44.82,28.5 44.66,28.53 44.57,28.6 C 44.47,28.66 44.44,28.76 44.44,28.9 C 44.44,29 44.49,29.08 44.59,29.13 C 44.69,29.18 44.86,29.2 45.1,29.2 H 45.46 Z M 38,27.97 C 38,27.53 38.05,27.16 38.3,26.9 S 39,26.5 39.79,26.5 H 40.16 C 40.42,26.5 40.68,26.53 40.89,26.63 C 41.09,26.73 41.25,26.91 41.29,27.19 H 41.3 V 25 H 42.56 V 30 H 41.38 V 29.3 H 41.37 A 0.89,0.89 0 0,1 40.99,29.81 C 40.8,29.93 40.53,30 40.16,30 H 39.79 C 38.99,30 38.55,29.85 38.29,29.6 C 38.05,29.33 38,28.96 38,28.52 V 27.97 Z M 39.22,28.41 C 39.22,28.8 39.28,29.01 39.88,29.01 H 40.62 C 41.12,29.01 41.38,28.9 41.38,28.37 V 28.03 C 41.38,27.58 41,27.47 40.62,27.47 H 39.88 C 39.28,27.47 39.22,27.69 39.22,28.08 V 28.41 Z" fill="rgb(254, 254, 253)"/>
<path d="M 16.869999999999997,25.985 H 17.39 C 18.07,26 18.66,26.08 19.09,26.35 C 19.5,26.61 19.75,27.05 19.75,27.77 V 28.73 C 19.75,29.45 19.5,29.89 19.08,30.15 C 18.66,30.42 18.08,30.5 17.39,30.5 H 16.36 C 15.68,30.5 15.09,30.42 14.66,30.15 C 14.25,29.89 14,29.45 14,28.73 V 27.77 C 14,27.05 14.25,26.61 14.67,26.35 A 3.24,3.24 0 0,1 16.37,26 H 16.87 Z M 18.6,29.74 C 18.93,29.54 19.13,29.19 19.13,28.62 V 27.88 C 19.13,27.31 18.93,26.97 18.6,26.76 C 18.28,26.56 17.81,26.49 17.28,26.49 H 16.48 C 15.94,26.49 15.48,26.56 15.15,26.76 C 14.82,26.96 14.63,27.31 14.63,27.88 V 28.62 C 14.63,29.19 14.83,29.53 15.15,29.74 C 15.48,29.94 15.94,30.01 16.47,30.01 H 17.28 C 17.81,30.01 18.28,29.94 18.6,29.74 Z M 16.88,26.96 H 17.45 C 17.78,26.96 18.05,27 18.25,27.14 C 18.45,27.27 18.56,27.51 18.56,27.91 V 28.59 C 18.56,28.99 18.45,29.23 18.26,29.36 C 18.06,29.5 17.78,29.54 17.45,29.54 H 16.3 C 15.98,29.54 15.7,29.5 15.5,29.36 C 15.3,29.23 15.19,28.99 15.19,28.59 V 27.91 C 15.19,27.51 15.3,27.27 15.5,27.14 C 15.7,27 15.98,26.96 16.3,26.96 H 16.88 Z" fill="rgb(254, 3, 4)"/>
<defs>
<linearGradient id="a" x1="10.42" x2="68.15" y1="9.71" y2="76.02" gradientUnits="userSpaceOnUse">
<stop stop-color="rgb(25, 29, 31)" offset="0"/>
<stop stop-color="rgb(5, 5, 8)" offset="1"/>
</linearGradient>
</defs>
</svg>
