<?xml version="1.0" encoding="UTF-8"?>
<!-- generated by Finnhub -->
<svg viewBox="0 0 55.5 55.5" xmlns="http://www.w3.org/2000/svg">
<rect width="56" height="56" fill="rgb(33, 212, 91)"/>
<path d="M 42.512,21.447 C 42.6932,21.6238 42.8273,21.8177 42.9159,22.0314 L 42.9202,22.0213 C 43.2667,23.0205 42.4111,23.8607 41.7694,24.3542 C 40.9017,24.9819 39.9642,25.5167 38.9738,25.949 C 37.6754,26.5465 36.3535,27.0441 35.5642,27.3337 C 36.0049,28.5348 36.9246,31.1023 37.7375,33.7269 C 38.2775,35.3949 38.7139,37.0919 39.0444,38.8089 C 39.1708,39.446 39.2282,40.0938 39.2155,40.7422 C 39.1877,41.1643 39.0829,41.9188 38.407,42.2186 C 38.1234,42.3365 37.803,42.3453 37.5129,42.2431 C 37.2822,42.1683 37.0655,42.0589 36.8712,41.9188 C 36.4305,41.5877 36.0237,41.2177 35.6562,40.8135 C 34.6704,39.7294 33.7505,38.5923 32.9012,37.4079 C 32.3365,36.6513 31.7825,35.8723 31.2863,35.1646 L 30.7836,42.2207 L 26.264,45.9995 L 25.4939,36.4983 C 27.2586,34.8587 28.8821,33.2314 30.0393,31.9466 C 30.0393,31.9466 30.5826,32.7807 31.374,33.9553 C 33.3953,36.9021 37.0615,42.0167 38.0733,41.5579 C 39.8657,40.7564 34.5782,26.9009 34.5782,26.9009 S 42.8624,24.1683 42.1929,22.2574 C 41.6283,20.6484 32.328,21.4009 32.328,21.4009 L 32.3002,21.2949 C 32.0884,20.4383 30.6724,14.8649 29.4339,15.2197 C 27.9153,15.65 26.5912,21.7904 26.5912,21.7904 C 25.8319,21.8624 25.0772,21.9733 24.3303,22.1228 L 23.3421,9.9988 L 32.9782,11.9035 L 32.3365,20.6726 C 33.744,20.5951 35.776,20.5013 37.0423,20.5013 C 38.2115,20.4916 39.3798,20.5659 40.5374,20.7235 C 41.0118,20.7955 41.4761,20.9186 41.9213,21.0906 C 42.1462,21.1732 42.3508,21.2995 42.522,21.4613 Z M 24.739,27.2235 C 23.8513,27.3235 15.4216,27.1991 15.5414,25.3882 V 25.3861 C 15.6291,24.189 20.8803,22.7636 24.3369,22.1232 L 25.494,36.4962 C 21.0685,40.6156 15.8023,44.8044 15.092,43.7847 C 13.8963,42.0656 24.7388,27.2237 24.7388,27.2237 Z" clip-rule="evenodd" fill="rgb(254, 254, 253)" fill-rule="evenodd"/>
</svg>
