<?xml version="1.0" encoding="UTF-8"?>
<!-- generated by Finnhub -->
<svg viewBox="0 0 55.5 55.5" xmlns="http://www.w3.org/2000/svg">
<path d="M 0,0 H 55.5 V 55.5 H 0 Z" fill="rgb(239, 242, 248)"/>
<path d="M 10.99,16.705 C 11.75,17.72 14.21,19.72 18.07,19.72 C 21.67,19.72 23.3,18.52 24.93,17.34 C 26.53,16.16 28.13,15 31.57,15 C 32.53,15.08 34.77,15.49 36,16.49 V 31.48 L 33.02,32.26 L 35.99,29.81 L 32.55,31.54 L 34.95,28.53 L 31.94,30.93 L 33.65,27.49 L 31.21,30.47 L 32.17,26.74 L 30.41,30.16 L 30.57,26.32 L 29.56,30.03 L 28.91,26.23 L 28.7,30.08 L 27.28,26.5 L 27.86,30.3 L 25.73,27.1 L 27.1,30.7 L 24.35,28 L 26.43,31.24 L 23.18,29.18 L 25.88,31.91 L 22.28,30.57 L 25.5,32.67 L 21.69,32.12 L 25.28,33.52 L 21.44,33.75 L 25.24,34.37 L 21.53,35.41 L 25.37,35.22 L 21.97,37 L 25.53,36.06 V 36.16 L 23.51,37.83 C 22.11,38.45 20.16,39 18.07,39 C 14.47,39 11.85,37 11,36 V 16.72 Z M 33.98,34 H 36 V 33.21 L 33.47,33.91 L 33.98,34.01 Z M 36,32.94 V 31.67 L 33.33,33.07 L 36,32.94 Z" fill="url(#a)"/>
<path d="M 29.029999999999998,36.155 A 0.5,0.5 0 0,0 28.86,35.82 A 0.66,0.66 0 0,0 28.43,35.69 A 0.75,0.75 0 0,0 28.13,35.74 A 0.4,0.4 0 0,0 27.87,36.12 C 27.86,36.19 27.87,36.25 27.9,36.31 C 27.93,36.36 27.97,36.41 28.03,36.44 A 0.9,0.9 0 0,0 28.21,36.54 L 28.42,36.61 L 28.74,36.69 C 28.9,36.73 29.04,36.78 29.17,36.84 S 29.41,36.98 29.5,37.08 C 29.6,37.17 29.67,37.28 29.72,37.4 A 1.15,1.15 0 0,1 29.64,38.45 C 29.54,38.63 29.37,38.76 29.17,38.85 C 28.97,38.95 28.72,39 28.43,39 A 1.8,1.8 0 0,1 27.68,38.86 C 27.47,38.76 27.3,38.62 27.18,38.43 A 1.37,1.37 0 0,1 27,37.73 H 27.73 C 27.73,37.85 27.77,37.96 27.83,38.05 C 27.89,38.14 27.97,38.2 28.07,38.25 C 28.17,38.29 28.29,38.31 28.42,38.31 C 28.55,38.31 28.66,38.29 28.75,38.25 C 28.85,38.21 28.92,38.15 28.97,38.08 A 0.42,0.42 0 0,0 29.05,37.83 A 0.34,0.34 0 0,0 28.98,37.61 A 0.54,0.54 0 0,0 28.78,37.46 L 28.45,37.34 L 28.06,37.24 C 27.76,37.16 27.52,37.04 27.36,36.86 A 0.91,0.91 0 0,1 27.09,36.18 A 1.1,1.1 0 0,1 27.74,35.15 C 27.94,35.05 28.18,35 28.44,35 C 28.7,35 28.94,35.05 29.13,35.15 A 1.12,1.12 0 0,1 29.76,36.17 H 29.04 Z M 37.04,35 V 39 H 36.37 L 34.79,36.48 H 34.77 V 39 H 34 V 35 H 34.67 L 36.24,37.52 H 36.27 V 35 H 37.03 Z M 38,35 V 39 H 38.78 V 37.58 H 39.34 L 40.04,39 H 40.89 L 40.11,37.45 L 40.15,37.43 C 40.35,37.33 40.5,37.18 40.6,36.99 C 40.7,36.8 40.76,36.57 40.76,36.31 C 40.76,36.04 40.71,35.81 40.6,35.61 C 40.5,35.42 40.35,35.27 40.16,35.16 C 39.96,35.06 39.72,35 39.45,35 H 38 Z M 38.78,36.9 H 39.3 A 0.9,0.9 0 0,0 39.67,36.84 C 39.77,36.79 39.84,36.73 39.89,36.64 C 39.94,36.54 39.96,36.44 39.96,36.31 A 0.7,0.7 0 0,0 39.89,35.97 A 0.46,0.46 0 0,0 39.67,35.77 A 0.84,0.84 0 0,0 39.3,35.69 H 38.78 V 36.9 Z M 42,35 V 39 H 41.3 V 35 H 42 Z M 46,39 V 35 H 48 V 35.7 H 46.63 V 36.65 H 47.89 V 37.35 H 46.63 V 38.3 H 48 V 39 H 46 Z M 33.39,35.01 H 32.59 V 37.46 C 32.59,37.9 32.25,38.22 31.82,38.22 C 31.38,38.22 31,37.9 31,37.46 V 35 H 30.25 V 37.52 C 30.25,38.4 30.98,38.93 31.82,38.93 C 32.65,38.93 33.39,38.4 33.39,37.52 V 35 Z M 44.27,35.81 C 44.37,35.9 44.43,36.01 44.45,36.16 H 45.17 C 45.17,35.94 45.11,35.73 45,35.56 C 44.89,35.39 44.73,35.26 44.54,35.16 C 44.34,35.06 44.11,35.01 43.84,35.01 C 43.59,35.01 43.36,35.06 43.15,35.16 C 42.95,35.26 42.79,35.39 42.67,35.56 C 42.56,35.73 42.5,35.94 42.5,36.16 C 42.5,36.46 42.59,36.68 42.76,36.84 C 42.93,37.01 43.17,37.14 43.46,37.21 L 43.86,37.31 L 44.18,37.43 C 44.28,37.47 44.34,37.52 44.38,37.58 C 44.43,37.64 44.46,37.71 44.46,37.79 A 0.4,0.4 0 0,1 44.38,38.04 A 0.51,0.51 0 0,1 44.16,38.2 C 44.06,38.24 43.96,38.26 43.83,38.26 A 0.9,0.9 0 0,1 43.48,38.2 A 0.57,0.57 0 0,1 43.24,38 A 0.62,0.62 0 0,1 43.14,37.69 H 42.41 C 42.41,37.96 42.48,38.19 42.59,38.38 C 42.71,38.56 42.88,38.7 43.09,38.8 C 43.3,38.9 43.55,38.94 43.84,38.94 S 44.37,38.89 44.58,38.8 C 44.78,38.7 44.94,38.57 45.05,38.4 C 45.15,38.23 45.21,38.03 45.22,37.8 C 45.22,37.64 45.19,37.5 45.13,37.37 A 0.95,0.95 0 0,0 44.91,37.05 C 44.81,36.95 44.71,36.88 44.58,36.82 A 2.14,2.14 0 0,0 44.15,36.67 L 43.83,36.59 A 1.76,1.76 0 0,1 43.61,36.52 A 0.9,0.9 0 0,1 43.43,36.42 A 0.43,0.43 0 0,1 43.31,36.29 A 0.33,0.33 0 0,1 43.27,36.11 C 43.27,36.03 43.29,35.96 43.34,35.89 A 0.44,0.44 0 0,1 43.54,35.74 A 0.77,0.77 0 0,1 43.84,35.69 C 44.02,35.69 44.16,35.73 44.27,35.81 Z" fill="rgb(134, 126, 68)" fill-rule="evenodd"/>
<defs>
<linearGradient id="a" x1="11" x2="35.7" y1="27" y2="27" gradientUnits="userSpaceOnUse">
<stop stop-color="rgb(127, 110, 63)" offset="0"/>
<stop stop-color="rgb(215, 199, 145)" offset=".23"/>
<stop stop-color="rgb(115, 99, 52)" offset=".47"/>
<stop stop-color="rgb(217, 200, 148)" offset=".77"/>
<stop stop-color="rgb(124, 108, 64)" offset="1"/>
</linearGradient>
</defs>
</svg>
