<?xml version="1.0" encoding="UTF-8"?>
<!-- generated by Finnhub -->
<svg viewBox="0 0 55.5 55.5" xmlns="http://www.w3.org/2000/svg">
<path d="M 0,0 H 55.5 V 55.5 H 0 Z" fill="rgb(239, 242, 248)"/>
<path d="M 34.81,18.655 C 36.77,20.94 42,20.19 43.52,17.28 A 4.4,4.4 0 0,0 43.57,13.41 C 42.62,11.47 40.29,10.78 38.47,11.06 A 5.34,5.34 0 0,0 34.04,15.51 C 34,15.82 33.8,17.48 34.82,18.67 Z" fill="rgb(141, 202, 52)"/>
<path d="M 32.550000000000004,17.525 L 32.6,17.78 C 32.7,18.25 32.92,19.15 33.47,19.88 C 34.43,21.14 36.15,21.41 36.88,21.51 C 37.64,21.61 38.05,21.52 39.02,21.78 C 39.32,21.86 39.87,22 40.44,22.31 C 41.02,22.61 42.34,23.31 42.82,24.84 A 4.28,4.28 0 0,1 41.98,28.82 C 40.48,30.5 38.14,29.95 37.39,29.77 A 5.94,5.94 0 0,1 33.66,27.09 C 32.82,25.59 33.35,24.66 32.22,23.25 C 32.01,22.98 31.2,21.98 29.92,21.68 A 7.65,7.65 0 0,0 27.86,21.63 C 27.06,21.71 25.97,21.45 25.28,20.91 C 23.98,19.9 24,17.88 24,17.57 A 5.84,5.84 0 0,1 26.24,13.22 C 26.7,12.87 28.85,11.32 30.74,12.34 C 31.48,12.74 32.48,13.68 32.54,14.81 C 32.58,15.41 32.36,16.21 32.56,17.54 Z" fill="rgb(18, 143, 124)"/>
<path d="M 20.72,18.115 C 20.89,16.49 21.04,14.93 20.23,13.65 A 3.61,3.61 0 0,0 17.5,12.01 C 15.45,11.86 14.14,13.74 13.94,14.04 C 12.93,15.48 12.98,17.07 13.01,17.79 C 13.04,18.49 13.09,19.64 13.81,20.76 A 5.36,5.36 0 0,0 15.96,22.6 C 16.96,23.13 17.26,23 18.55,23.68 C 19.11,23.98 19.72,24.28 20.19,24.75 C 20.59,25.15 20.79,25.59 21.16,26.45 C 21.38,26.95 21.36,27 21.77,28.1 C 22.07,28.92 22.23,29.33 22.37,29.58 C 22.4,29.64 22.93,30.63 23.83,31.18 C 24.83,31.78 25.75,31.7 26.68,31.72 C 27.48,31.73 31.65,31.9 33.34,34.39 C 33.92,35.26 34.25,36.47 34.44,37.13 C 34.7,38.1 34.52,38.01 34.88,39.41 C 35.31,41.04 35.68,42.37 36.67,43.19 C 37.49,43.86 38.9,44.29 40.05,43.76 C 42.4,42.66 42,38.16 41.94,37.59 C 41.81,36.34 41.68,35.06 40.77,34.13 C 39.65,32.98 37.62,32.65 35.35,32.27 A 5.15,5.15 0 0,1 34.18,31.97 A 7.08,7.08 0 0,1 31.48,29.98 A 8.54,8.54 0 0,1 29.71,27.56 C 29.17,26.4 29.29,25.88 28.65,25.21 A 3.5,3.5 0 0,0 26.92,24.29 C 25.77,23.98 25.47,24.36 24.01,24.16 C 23.24,24.06 22.54,23.96 21.82,23.42 A 3.84,3.84 0 0,1 20.5,21.58 C 20.15,20.49 20.55,19.9 20.73,18.13 Z" fill="rgb(20, 95, 95)"/>
<path d="M 21.16,30.955 C 21.84,32.07 22.71,32.63 23.73,33.28 C 25.09,34.16 26.27,34.49 26.63,34.58 C 27,34.68 27.64,34.75 28.93,34.93 C 30.11,35.09 30.16,35.07 30.42,35.15 C 30.77,35.27 31.97,35.65 32.62,36.8 C 33.08,37.63 33.07,38.46 32.87,40.11 C 32.77,40.91 32.67,41.63 32.25,42.45 A 4.89,4.89 0 0,1 29.75,44.7 C 29.23,44.9 28.4,45.2 27.52,44.81 C 26.71,44.45 26.32,43.69 26.15,43.37 A 5.08,5.08 0 0,1 25.67,41.47 C 25.52,40.2 25.74,40.02 25.6,39.09 A 5.67,5.67 0 0,0 24.68,36.75 A 5.7,5.7 0 0,0 22.45,34.93 C 21.72,34.53 21.11,34.39 20.35,34.19 C 19.25,33.92 18.82,33.95 17.79,33.78 C 16.14,33.51 15.17,33.35 14.24,32.74 C 13.98,32.56 11.78,31.1 12.02,29.01 C 12.19,27.51 13.6,26.48 14.69,26.15 C 16.44,25.61 17.92,26.68 18.62,27.18 C 19.5,27.81 20.02,28.71 20.25,29.08 C 20.82,30 20.71,30.22 21.17,30.98 Z" fill="rgb(226, 127, 28)"/>
<path d="M 15.88,36.985 A 5.14,5.14 0 0,1 20.2,36.16 C 20.7,36.29 21.87,36.61 22.55,37.71 C 23.35,39.04 22.85,40.51 22.75,40.81 C 22.14,42.6 20.37,43.63 18.85,43.91 C 18.48,43.97 15.85,44.4 14.59,42.73 C 13.34,41.07 14.21,38.33 15.89,36.99 Z" fill="rgb(52, 67, 65)"/>
</svg>
