<?xml version="1.0" encoding="UTF-8"?>
<!-- generated by Finnhub -->
<svg viewBox="0 0 55.5 55.5" xmlns="http://www.w3.org/2000/svg">
<path d="M 0,0 H 55.5 V 55.5 H 0 Z" fill="rgb(239, 242, 248)"/>
<path d="M 26.119999999999997,28.785 C 24.91,27.2 21.78,23.27 21.67,18.75 C 21.67,18.75 19.35,24.08 22.97,28.9 C 23.96,30.2 24.87,31.54 25.71,32.93 C 26.31,33.93 28.05,36.85 25.11,38.46 C 23.38,39.16 20.97,39.76 17.63,35.64 C 16.93,34.74 16.35,33.77 15.89,32.74 A 12.78,12.78 0 0,1 19.89,17.89 A 12.96,12.96 0 0,1 24.82,15.5 L 26.21,12.26 A 16.03,16.03 0 0,0 17.37,16.15 A 15.87,15.87 0 0,0 12.4,24.38 L 12.3,24.91 A 15.64,15.64 0 0,0 15.17,37.44 C 15.32,37.66 15.47,37.87 15.64,38.08 C 18.17,41.3 21.81,42.71 24.44,42.51 C 25.77,42.36 29.94,40.73 29.8,36.67 C 29.67,33.53 27.34,30.41 26.13,28.8 Z" fill="url(#c)"/>
<path d="M 36.59,14.635 C 36.22,14.41 35.83,14.19 35.43,13.98 A 9.28,9.28 0 0,0 34.13,13.44 C 30.09,11.98 27.83,12.97 27.54,16.74 C 27.24,20.66 33.7,27.8 33.7,27.8 C 29.8,21.26 29.87,19.35 30.17,17.94 C 30.57,16.14 32.97,15.94 36.08,17.9 A 12.84,12.84 0 0,1 40.82,30.17 A 12.8,12.8 0 0,1 32.22,40.15 L 27.99,43.8 C 31.44,43.82 34.81,42.73 37.59,40.68 A 15.8,15.8 0 0,0 42.98,22.43 A 15.82,15.82 0 0,0 36.6,14.65 Z" fill="url(#b)"/>
<path d="M 30.669999999999998,9.985 S 26.06,11.81 25.76,16.05 C 25.76,17.85 26.32,20.08 29.76,24.79 C 31.25,26.55 34.58,30.84 35.04,34.71 C 35.34,37.12 35.14,42.09 27.24,44 C 28.15,43.27 34.84,40.2 31.09,33.53 A 98.56,98.56 0 0,0 25.36,24.76 C 23.23,21.73 22.1,17.54 23.3,14.62 C 24.73,11.14 28.46,10.3 30.68,10 Z" fill="url(#a)"/>
<defs>
<linearGradient id="c" x1="20.64" x2="21.07" y1="44.06" y2="21.99" gradientUnits="userSpaceOnUse">
<stop stop-color="rgb(1, 147, 215)" offset="0"/>
<stop stop-color="rgb(1, 60, 113)" offset="1"/>
</linearGradient>
<linearGradient id="b" x1="35.34" x2="35.77" y1="44.34" y2="22.28" gradientUnits="userSpaceOnUse">
<stop stop-color="rgb(1, 147, 215)" offset="0"/>
<stop stop-color="rgb(1, 60, 113)" offset="1"/>
</linearGradient>
<linearGradient id="a" x1="28.48" x2="29.23" y1="10.36" y2="36.1" gradientUnits="userSpaceOnUse">
<stop stop-color="rgb(1, 147, 215)" offset="0"/>
<stop stop-color="rgb(1, 60, 113)" offset="1"/>
</linearGradient>
</defs>
</svg>
