<?xml version="1.0" encoding="UTF-8"?>
<!-- generated by Finnhub -->
<svg viewBox="0 0 55.5 55.5" xmlns="http://www.w3.org/2000/svg">
<path d="M 0,0 H 55.5 V 55.5 H 0 Z" fill="rgb(1, 148, 141)"/>
<path d="M 8.07,29.14 C 7.865,28.991 7.233,28.847 6.672,28.668 C 6.11,28.487 5.666,28.308 5.339,28.134 C 4.446,27.656 4,27.012 4,26.204 C 4,25.782 4.119,25.408 4.356,25.08 C 4.597,24.749 4.941,24.49 5.387,24.305 C 5.837,24.119 6.584,24 7.141,24 C 7.703,24 8.203,24.102 8.641,24.305 C 9.081,24.505 9.421,24.788 9.662,25.155 C 9.907,25.522 10,25.939 10,26.406 H 8 C 8,25.688 7.564,25.266 6.846,25.266 C 6.294,25.266 5.619,25.577 5.619,26.209 C 5.619,26.462 5.747,26.674 6.002,26.845 C 6.262,27.016 6.884,27.15 7.384,27.299 C 8.305,27.574 8.976,27.914 9.398,28.321 C 9.818,28.727 10.029,29.233 10.029,29.84 C 10.029,30.513 9.772,31.043 9.257,31.428 C 8.743,31.809 8.05,32 7.179,32 A 4.073,4.073 0 0,1 5.527,31.674 C 5.031,31.453 4.651,31.151 4.389,30.77 A 2.304,2.304 0 0,1 4,29.444 H 6 C 6.002,30.002 6.143,30.733 7.18,30.733 C 7.992,30.733 8.976,29.821 8.08,29.155 Z M 13,32 H 11 V 24 H 13 V 32 Z M 17,24 L 18.5,29 L 20,24 H 23 V 32 H 21.002 V 26 L 19,32 H 18 L 16,26 V 32 H 14 V 24 H 17 Z M 26,29 V 32 H 24 V 24 H 27.107 C 27.697,24 28.215,24.107 28.661,24.32 C 29.111,24.535 29.456,24.947 29.698,25.342 C 29.938,25.734 30,26.182 30,26.685 C 30,27.447 29.76,27.959 29.231,28.401 C 28.706,28.839 28.011,29 27.08,29 H 26 Z M 26,28 C 27.119,28 28.013,28 28,26.505 C 27.987,25.009 27.022,25 26,25 V 28 Z M 34.542,29.155 C 34.327,28.991 33.854,28.82 33.292,28.642 C 32.732,28.46 32.287,28.282 31.959,28.107 C 31.067,27.629 30.615,26.986 30.615,26.177 C 30.615,25.756 30.739,25.381 30.977,25.054 C 31.218,24.722 31.562,24.464 32.007,24.278 C 32.457,24.093 32.961,24 33.519,24 C 34.08,24 34.665,24.102 35.104,24.305 C 35.543,24.505 35.99,24.788 36.231,25.155 C 36.476,25.522 36.615,25.939 36.615,26.406 H 34.614 C 34.614,25.762 34.134,25.278 33.492,25.278 C 33.096,25.278 32.789,25.362 32.569,25.529 A 0.775,0.775 0 0,0 32.239,26.182 C 32.239,26.435 32.368,26.647 32.623,26.818 C 32.883,26.989 33.262,27.15 33.762,27.299 C 34.683,27.574 35.414,27.813 35.835,28.219 C 36.255,28.626 36.615,29.134 36.615,29.807 C 36.615,30.481 36.234,31.043 35.719,31.427 C 35.205,31.809 34.691,32 33.819,32 A 4.073,4.073 0 0,1 32.169,31.674 C 31.672,31.453 31.292,31.151 31.029,30.77 A 2.323,2.323 0 0,1 30.615,29.444 H 32.615 C 32.615,30.303 32.784,30.733 33.82,30.733 C 34.633,30.733 35.306,29.723 34.542,29.155 Z M 44.12,28.177 C 44.12,28.943 43.984,29.615 43.71,30.192 A 3.064,3.064 0 0,1 42.534,31.529 C 42.026,31.843 41.444,32 40.785,32 C 40.134,32 39.553,31.845 39.042,31.535 A 3.104,3.104 0 0,1 37.854,30.209 C 37.574,29.631 37.431,28.968 37.428,28.219 V 27.834 C 37.428,27.068 37.566,26.394 37.843,25.813 C 38.124,25.228 38.518,24.781 39.025,24.471 C 39.536,24.157 40.119,24 40.775,24 C 41.429,24 42.01,24.157 42.518,24.47 C 43.028,24.78 43.422,25.228 43.7,25.813 C 43.98,26.393 44.12,27.066 44.12,27.829 V 28.177 Z M 42.11,27.991 C 42.102,26.724 41.653,25.626 40.774,25.612 C 39.896,25.598 39.322,26.368 39.314,27.992 C 39.314,29.173 39.682,30.412 40.785,30.426 C 41.888,30.44 42.116,29.259 42.109,27.992 Z M 52,32 H 50 L 47,27 V 32 H 45 V 24 H 47 L 50,29 V 24 H 52 V 32 Z" fill="rgb(254, 254, 253)"/>
</svg>
