<?xml version="1.0" encoding="UTF-8"?>
<!-- generated by Finnhub -->
<svg viewBox="0 0 55.5 55.5" xmlns="http://www.w3.org/2000/svg">
<path d="M 0,0 H 55.5 V 55.5 H 0 Z" fill="rgb(239, 242, 248)"/>
<path d="M 7.08,31.445 C 6.14,31.46 4.59,31.23 4.59,30 H 4 C 4,31.57 5.8,32 7.09,32 C 8.85,32 10,31.22 10,30 C 10,28.61 8.48,28.15 7.22,27.76 L 7.06,27.71 C 5.76,27.31 4.69,26.96 4.69,25.98 C 4.69,25.15 5.47,24.54 6.89,24.55 C 7.85,24.55 9.27,24.8 9.27,26 H 9.86 C 9.86,24.46 8.17,24 6.89,24 C 5.16,24 4.06,24.81 4.06,26.02 C 4.06,27.41 5.6,27.88 6.89,28.27 C 8.24,28.67 9.36,29.02 9.36,30.03 C 9.36,30.86 8.56,31.47 7.09,31.46 Z M 11.5,24 V 24.5 H 18 V 24 H 11.5 Z M 15,25 H 14.5 V 32 H 15 V 25 Z M 24.38,24 A 2.49,2.49 0 0,1 27,26.57 C 27,27.13 26.84,27.52 26.53,27.97 A 2.4,2.4 0 0,1 25.25,28.89 L 27.26,31.99 H 26.56 L 24.62,29 H 21.5 V 32 H 21 V 24 H 24.38 Z M 21.5,24.5 V 28.5 H 24.37 C 25.7,28.5 26.43,27.64 26.43,26.58 C 26.43,25.51 25.7,24.5 24.36,24.5 H 21.5 Z M 30.52,32 L 31.31,30.2 L 31.57,29.62 L 33.76,24.66 L 35.94,29.63 L 36.2,30.2 L 37,32 H 37.65 L 34.07,24 H 33.44 L 29.86,32 H 30.52 Z M 45.66,30.2 L 44.88,32 H 44.22 L 47.79,24 H 48.43 L 52,32 H 51.35 L 50.55,30.2 L 50.29,29.63 L 48.11,24.66 L 45.92,29.62 L 45.66,30.19 Z M 38,24 V 24.5 H 44.5 V 24 H 38 Z M 41.5,25 H 41 V 32 H 41.5 V 25 Z" fill="rgb(79, 73, 76)"/>
</svg>
