<?xml version="1.0" encoding="UTF-8"?>
<!-- generated by Finnhub -->
<svg viewBox="0 0 55.5 55.5" xmlns="http://www.w3.org/2000/svg">
<path d="M 0,0 H 55.5 V 55.5 H 0 Z" fill="url(#a)"/>
<path d="M 48.502,30.941 C 48.944,30.956 49,30.632 49,30.196 V 29 H 48.512 V 28 H 51 V 30.042 C 51,30.173 51,30.268 50.976,30.493 C 50.854,31.739 49.744,32.178 48.5,32.178 S 46.146,31.739 46.025,30.493 C 46,30.268 46,30.173 46,30.043 V 26.97 C 46,26.851 46.012,26.638 46.025,26.519 C 46.183,25.238 47.244,24.834 48.5,24.834 C 49.744,24.834 50.866,25.238 50.988,26.519 C 51.007,26.687 51,26.83 51,26.999 H 49 C 49,26.504 49.126,26.024 48.512,26.024 C 47.994,26.024 48,26.424 48,26.875 V 30.195 C 48,30.648 48.023,30.955 48.512,30.955 Z M 43,25 V 30.081 L 41.658,25 H 39 V 32 H 41 V 26.713 L 42.46,32 H 45 V 25 H 43 Z M 36,25.011 V 30.154 C 36,30.583 35.993,30.925 35.503,30.925 S 35,30.583 35,30.154 V 25.01 H 33.005 V 29.997 C 32.993,30.129 33.005,30.382 33.018,30.454 C 33.141,31.755 34.192,32.177 35.503,32.177 C 36.813,32.177 37.863,31.755 37.988,30.454 C 37.988,30.382 38,30.129 38,29.997 V 25.01 H 36 Z M 30.274,30.486 C 30.31,30.366 30.334,30.15 30.262,29.983 C 29.917,29.095 27.503,28.687 27.194,27.283 A 2.411,2.411 0 0,1 27.182,26.359 C 27.372,25.243 28.359,24.835 29.561,24.835 C 30.524,24.835 31.856,25.075 31.856,26.563 V 27.043 H 30.156 V 26.623 C 30.156,26.251 29.917,25.999 29.525,25.999 C 29.097,25.999 28.955,26.239 28.907,26.455 A 0.94,0.94 0 0,0 28.919,26.815 C 29.109,27.619 31.689,28.039 31.975,29.478 C 32.01,29.623 32.07,30.018 31.987,30.606 C 31.821,31.758 30.81,32.178 29.584,32.178 C 28.3,32.178 27.111,31.71 27.111,30.187 V 29.659 H 28.931 V 30.319 C 28.931,30.69 29.18,30.942 29.608,30.942 C 30.06,30.942 30.215,30.714 30.274,30.486 Z M 22.904,32 L 24,25.51 V 32 H 26 V 25 H 22.905 L 21.994,30.468 L 21.082,25 H 18 V 32 H 20 V 25.51 L 21.082,32 H 22.904 Z M 13.115,32 L 14.066,25.51 L 14.994,32 H 16.838 L 15.577,25 H 12.52 L 11.259,32 H 13.114 Z M 8.382,30.386 C 8.418,30.256 8.441,30.046 8.37,29.881 C 8.013,29.001 5.575,28.601 5.266,27.229 C 5.194,26.889 5.206,26.619 5.254,26.314 C 5.444,25.211 6.431,24.812 7.656,24.812 C 8.632,24.812 10,25.035 10,26.513 V 27 H 8.263 V 26.572 C 8.263,26.208 8.025,25.962 7.62,25.962 C 7.192,25.962 7.038,26.208 6.99,26.419 A 0.916,0.916 0 0,0 7.002,26.771 C 7.204,27.558 9.809,27.98 10.094,29.4 C 10.13,29.552 10.189,29.928 10.106,30.515 C 9.94,31.641 8.917,32.063 7.68,32.063 C 6.384,32.063 5,31.605 5,30.093 V 29.576 H 7 V 30.233 C 7,30.597 7.288,30.843 7.715,30.843 C 8.168,30.843 8.322,30.608 8.382,30.386 Z" fill="rgb(254, 254, 253)"/>
<defs>
<linearGradient id="a" x1="10.418" x2="68.147" y1="9.712" y2="76.017" gradientUnits="userSpaceOnUse">
<stop stop-color="rgb(25, 29, 31)" offset="0"/>
<stop stop-color="rgb(5, 5, 8)" offset="1"/>
</linearGradient>
</defs>
</svg>
