<?xml version="1.0" encoding="UTF-8"?>
<!-- generated by Finnhub -->
<svg viewBox="0 0 55.5 55.5" xmlns="http://www.w3.org/2000/svg">
<path d="M 0,0 H 55.5 V 55.5 H 0 Z" fill="rgb(1, 50, 159)"/>
<path d="M 43.99,11.985 H 12 V 44 H 44 V 12 Z" fill="rgb(254, 254, 253)"/>
<path d="M 13.99,23.287 V 26.742 L 23,23.302 H 14 Z M 28,15 L 32.8,20.803 L 41.996,17.68 V 14 H 14 V 17.68 L 23.58,20.803 L 28,15 Z M 14,19 V 22 H 23 L 14,19 Z M 42,22 V 19 L 33,22 H 42 Z M 41.995,26.75 V 23.27 L 33,23.28 L 41.995,26.75 Z" fill="rgb(1, 50, 159)"/>
<path d="M 28.032999999999998,17.474999999999998 L 26,20 H 30 L 28.043,17.49 Z M 24.129,24.44 L 14,28.171 V 38 H 23.375 L 24.129,24.44 Z M 25.597,25 L 25.049,38 H 30.905 L 30.366,25 H 25.597 Z" fill="rgb(1, 50, 159)"/>
<path d="M 32.535000000000004,37.985 H 38 V 40 H 14 V 41.996 H 41.997 V 28.129 L 31.964,24.474 L 32.544,38 Z" fill="rgb(1, 50, 159)"/>
</svg>
