<?xml version="1.0" encoding="UTF-8"?>
<!-- generated by Finnhub -->
<svg viewBox="0 0 55.5 55.5" xmlns="http://www.w3.org/2000/svg">
<path d="M 0,0 H 55.5 V 55.5 H 0 Z" fill="rgb(239, 242, 248)"/>
<path d="M 13.32,12.985 H 42.67 C 42.85,13 43,13.15 43,13.33 V 42.67 C 43,42.85 42.85,43 42.67,43 H 13.33 A 0.33,0.33 0 0,1 13,42.67 V 13.33 C 13,13.15 13.15,13 13.33,13 Z M 42,14 H 14 V 42 H 42 V 14 Z" fill="rgb(165, 135, 86)"/>
<path d="M 13.78,42.685 A 0.34,0.34 0 0,1 13.32,42.65 A 0.34,0.34 0 0,1 13.37,42.19 L 31.24,27.6 L 20.19,29.97 A 0.33,0.33 0 0,1 19.87,29.43 L 26.94,20.37 A 0.33,0.33 0 0,1 27.45,20.78 L 20.93,29.13 L 32.43,26.67 A 0.33,0.33 0 0,1 32.71,27.25 L 13.79,42.7 Z" fill="rgb(165, 135, 86)"/>
<path d="M 19.99,29.544999999999998 L 20.01,29.55 L 20.03,29.53 A 0.17,0.17 0 0,1 20.14,29.5 C 20.18,29.51 20.21,29.53 20.24,29.56 L 23.7,34.21 C 23.73,34.24 23.73,34.28 23.73,34.31 C 23.73,34.36 23.7,34.39 23.67,34.41 A 0.15,0.15 0 0,1 23.56,34.44 A 0.14,0.14 0 0,1 23.46,34.39 L 20.11,29.89 L 16.68,33.73 L 18.23,38.96 L 23.58,42.54 C 23.61,42.57 23.64,42.6 23.64,42.64 C 23.65,42.68 23.64,42.72 23.62,42.75 A 0.15,0.15 0 0,1 23.52,42.82 C 23.49,42.82 23.45,42.82 23.42,42.79 L 18.02,39.19 L 17.98,39.15 A 0.13,0.13 0 0,1 17.95,39.1 L 16.5,34.2 L 13.62,42.6 A 0.16,0.16 0 0,1 13.54,42.68 A 0.14,0.14 0 0,1 13.43,42.68 A 0.14,0.14 0 0,1 13.34,42.61 A 0.16,0.16 0 0,1 13.34,42.5 L 16.37,33.64 L 16.38,33.61 L 16.4,33.59 L 20,29.56 Z M 37.66,31.35 A 0.14,0.14 0 0,1 37.66,31.23 A 0.14,0.14 0 0,1 37.74,31.15 A 0.15,0.15 0 0,1 37.86,31.15 C 37.89,31.16 37.93,31.19 37.94,31.23 L 42.81,42.61 V 42.72 A 0.17,0.17 0 0,1 42.73,42.81 A 0.3,0.3 0 0,1 42.65,42.82 A 0.17,0.17 0 0,1 42.58,42.79 L 34.16,37.17 L 34.79,42.65 C 34.79,42.69 34.78,42.73 34.76,42.76 A 0.18,0.18 0 0,1 34.66,42.82 A 0.15,0.15 0 0,1 34.54,42.78 A 0.14,0.14 0 0,1 34.49,42.68 L 33.82,36.88 V 36.82 L 33.85,36.77 A 0.15,0.15 0 0,1 33.95,36.71 C 33.98,36.71 34.02,36.71 34.05,36.73 L 42.33,42.26 L 37.66,31.35 Z M 32.77,26.88 C 32.8,26.91 32.81,26.95 32.81,26.98 C 32.81,27.03 32.78,27.06 32.75,27.09 A 0.16,0.16 0 0,1 32.64,27.12 A 0.14,0.14 0 0,1 32.54,27.07 L 27.19,20.55 A 0.16,0.16 0 0,1 27.15,20.44 C 27.15,20.4 27.18,20.36 27.21,20.34 A 0.16,0.16 0 0,1 27.31,20.3 C 27.35,20.3 27.39,20.32 27.42,20.35 L 32.77,26.88 Z" fill="rgb(165, 135, 86)"/>
<path d="M 32.28,27.245 A 0.33,0.33 0 0,1 32.72,26.76 L 37.86,31.11 C 38,31.22 38.02,31.41 37.91,31.56 L 34.25,37.04 A 0.34,0.34 0 0,1 33.89,37.17 L 24.44,34.87 L 29.86,42.29 C 29.96,42.43 29.94,42.64 29.79,42.75 A 0.33,0.33 0 0,1 29.33,42.68 L 23.38,34.53 A 0.33,0.33 0 0,1 23.72,34.02 L 33.82,36.48 L 37.22,31.42 L 32.29,27.26 Z" fill="rgb(165, 135, 86)"/>
</svg>
