<?xml version="1.0" encoding="UTF-8"?>
<!-- generated by Finnhub -->
<svg viewBox="0 0 55.5 55.5" xmlns="http://www.w3.org/2000/svg">
<path d="M 0,0 H 55.5 V 55.5 H 0 Z" fill="rgb(239, 242, 248)"/>
<path d="M 18.99,23.445 C 19,23.1 18.75,23.01 18.53,23.01 A 0.63,0.63 0 0,0 18,23.31 C 17.25,24.53 16.5,25.5 15.5,27 C 14.5,25.5 13.77,24.55 13,23.32 A 0.62,0.62 0 0,0 12.43,23 C 12.17,23 12,23.2 12,23.44 C 12,23.6 12.05,23.71 12.11,23.82 L 15,28 V 31.5 C 15,31.82 15.24,32 15.5,32 S 16,31.8 16,31.5 V 28 L 18.87,23.83 C 18.97,23.7 19,23.59 19,23.46 Z M 23.82,26.79 L 22.82,26.46 C 22.24,26.27 21.58,26.1 21.58,25.37 C 21.58,24.54 22.24,24 23,24 C 24.18,24 24.5,24.44 25,25.18 C 25.13,25.39 25.37,25.82 25.5,25.82 C 25.87,25.82 26,25.56 26,25.18 C 26,23.74 24.21,23 23,23 C 21.3,23 20.34,23.94 20.34,25.52 C 20.34,26.4 20.7,26.87 21.35,27.19 C 21.9,27.46 22.5,27.61 23.07,27.79 C 23.84,28.04 25,28.27 25,29.49 C 25,30.41 23.83,31 23,31 C 21.94,31 21.33,30.43 21.1,29.41 C 21.07,29.27 20.99,29 20.58,29 C 20.34,29 20,29.14 20,29.65 C 20,31.27 21.64,32 23.07,32 C 25.23,32 26,30.65 26,29.39 C 26,27.49 24.65,27.04 23.82,26.79 Z M 8.82,26.79 L 7.82,26.46 C 7.24,26.27 6.58,26.1 6.58,25.37 C 6.58,24.54 7.24,24 8,24 C 9.18,24 9.5,24.44 10,25.18 C 10.13,25.39 10.37,25.82 10.5,25.82 C 10.87,25.82 11,25.56 11,25.18 C 11,23.74 9.21,23 8,23 C 6.3,23 5.34,23.94 5.34,25.52 C 5.34,26.4 5.7,26.87 6.35,27.19 C 6.9,27.46 7.5,27.61 8.07,27.79 C 8.84,28.04 10,28.27 10,29.49 C 10,30.4 8.83,31 8,31 C 6.94,31 6.33,30.43 6.1,29.41 C 6.07,29.27 5.99,29 5.58,29 C 5.34,29 5,29.14 5,29.65 C 5,31.27 6.64,32 8.07,32 C 10.23,32 11,30.65 11,29.39 C 11,27.49 9.65,27.04 8.82,26.79 Z M 32.47,23 H 27.53 C 27.27,23 27,23.05 27,23.5 C 27,23.83 27.41,24 27.53,24 H 29.5 V 31.44 C 29.5,31.64 29.58,32 30,32 C 30.46,32 30.48,31.6 30.5,31.44 V 24 H 32.47 C 32.73,24 33,23.71 33,23.5 C 33,23.16 32.82,23 32.47,23 Z M 39.44,31 H 35 V 28 H 39.04 C 39.32,28 39.6,27.94 39.6,27.5 C 39.6,27.11 39.4,27 39.04,27 H 35 V 24 H 39.4 C 39.8,24 40,23.9 40,23.5 S 39.77,23 39.4,23 H 34.64 C 34.11,23 34.02,23.36 34,23.67 V 31.33 C 34,31.51 34.03,32 34.64,32 H 39.44 C 39.57,32 40,32.08 40,31.5 C 40.02,31.11 39.8,31 39.44,31 Z M 43.67,23.27 C 43.5,23.02 43.17,23 42.9,23 C 42.44,23 42,23.16 42,23.68 V 31.42 C 42,31.79 42.12,32 42.5,32 C 42.9,32 43,31.73 43,31.36 V 24 L 46,27.83 C 46.14,27.98 46.34,28 46.5,28 C 46.87,28 46.94,27.83 47,27.5 L 43.67,23.27 Z" fill="rgb(23, 26, 28)"/>
<path d="M 50.830000000000005,30.985 H 50 V 23.67 C 50,23.39 50,23 49.5,23 C 49.27,23 49.07,23.02 48.88,23.2 C 48.8,23.27 47.85,24.65 47,26 L 47.5,27 C 48.34,25.7 49,24.6 49,24.6 V 31 H 48.1 C 47.8,31 47.5,31.07 47.5,31.5 C 47.5,32.06 47.96,32 48.09,32 H 50.84 C 51.12,32 51.4,31.94 51.4,31.5 C 51.41,31.12 51.18,31 50.84,31 Z" fill="rgb(72, 163, 217)"/>
</svg>
