<?xml version="1.0" encoding="UTF-8"?>
<!-- generated by Finnhub -->
<svg viewBox="0 0 55.5 55.5" xmlns="http://www.w3.org/2000/svg">
<path d="M 0,0 H 55.5 V 55.5 H 0 Z" fill="rgb(239, 242, 248)"/>
<path d="M 27.209999999999997,18.985 V 19.5 H 28 V 36.5 H 27.22 V 37 H 31.05 C 32.57,37 34.5,36.24 34.5,32.29 C 34.5,29.13 33.13,27.86 32.47,27.63 V 27.39 C 33.04,27.17 34.5,26.06 34.5,23.43 C 34.5,19.82 32.1,18.97 31.05,19 H 27.22 Z M 30,27.45 V 19.91 A 0.63,0.63 0 0,1 30.52,19.66 C 30.87,19.66 32.5,20.61 32.5,24.03 S 30.44,27.45 30,27.45 Z M 30,28.01 V 36.69 H 31.27 C 31.68,36.41 32.5,35.13 32.5,32.29 C 32.5,28.75 31.46,28.01 30,28.01 Z M 10.8,37 H 8 V 36.36 L 8.5,36.34 A 0.5,0.5 0 0,0 9,35.84 V 19.98 C 9,19.7 8.91,19.48 8.65,19.48 H 8 V 19 H 11.34 L 15.54,31.5 L 15.64,19.98 C 15.64,19.7 15.44,19.48 15.17,19.48 H 14.53 V 19 H 17.24 V 19.47 L 16.54,19.49 C 16.28,19.49 16,19.71 16,19.99 V 37 H 15.02 L 9.52,21.4 L 9.41,35.85 C 9.41,36.12 9.61,36.35 9.88,36.35 H 10.81 V 37 Z M 18.13,19 V 19.49 H 19 V 33.35 A 3.67,3.67 0 0,0 22.6,37 C 25.42,37 26,34.66 26,32.65 V 20.25 C 26,19.84 26.4,19.5 26.8,19.5 C 27.08,19.5 27,19.49 27,19.49 V 19 H 24.3 V 19.49 H 24.98 C 25.35,19.49 25.65,19.8 25.65,20.19 V 32.51 C 25.65,33.84 25.01,36.51 23.36,36.51 C 22.1,36.51 21,34.73 21,33.41 V 19.49 H 22.02 V 19 H 18.12 Z M 35,19 V 19.43 H 36 V 36.45 H 35 V 37 H 39 V 36.45 H 38 V 19.43 H 39 V 19 H 35 Z M 39.56,36.48 V 37 H 42.32 V 36.48 H 41.58 C 41,36.48 40.98,35.78 41.06,35.42 L 41.86,31 H 44.38 L 45.38,36.48 H 44.38 V 37 H 48 V 36.48 H 47.37 L 44.04,19 H 43.52 S 40.87,34.42 40.68,35.42 C 40.53,36.22 40.18,36.46 40.03,36.48 H 39.56 Z M 44.29,30.5 H 41.95 L 43.13,24.1 L 44.29,30.5 Z" fill-rule="evenodd"/>
</svg>
