<?xml version="1.0" encoding="UTF-8"?>
<!-- generated by Finnhub -->
<svg viewBox="0 0 55.5 55.5" xmlns="http://www.w3.org/2000/svg">
<path d="M 0,0 H 55.5 V 55.5 H 0 Z" fill="url(#a)"/>
<path d="M 33.99,39.985 H 24 V 39 C 24.97,39 27.08,38.85 27.08,35.58 C 27.08,32.96 24.31,30.98 22.92,30.32 L 17.87,27.67 L 17.72,27.6 C 16.81,27.17 13,25.39 13,20.96 C 13,17.17 15.8,15.3 17.2,14.83 C 15.7,20.11 20.96,22.53 22.41,23.19 L 22.45,23.21 A 67.5,67.5 0 0,1 27,25.54 V 15.9 C 27,15.37 26.18,14.99 25.63,14.99 H 24 V 13.99 H 32 V 25.19 A 6.68,6.68 0 0,1 37.62,21.99 C 41.92,21.99 43,25.37 43,28.04 V 37.98 C 43,38.5 43.32,38.92 43.85,38.92 H 45 V 40 H 36 V 38.93 H 36.67 C 37.2,38.93 38,38.51 38,37.99 V 28.05 C 38.01,26.91 37.05,24.64 34.64,24.64 C 33.42,24.64 32.57,25.45 32,26.46 V 37.78 C 32,38.48 32.79,39 33.52,39 H 34 V 40 Z M 14.33,40 H 13.53 L 13,32.3 L 14.2,32.15 C 15.03,37.19 17.55,38.78 18.71,38.95 V 39.85 C 17.78,39.53 17.18,39.18 16.71,38.89 C 16.21,38.59 15.85,38.39 15.41,38.39 C 14.7,38.39 14.39,39.51 14.33,40 Z" fill="rgb(254, 254, 253)"/>
<defs>
<linearGradient id="a" x1="10.42" x2="68.15" y1="9.71" y2="76.02" gradientUnits="userSpaceOnUse">
<stop stop-color="rgb(25, 29, 31)" offset="0"/>
<stop stop-color="rgb(5, 5, 8)" offset="1"/>
</linearGradient>
</defs>
</svg>
