<?xml version="1.0" encoding="UTF-8"?>
<!-- generated by Finnhub -->
<svg viewBox="0 0 55.5 55.5" xmlns="http://www.w3.org/2000/svg">
<path d="M 0,0 H 55.5 V 55.5 H 0 Z" fill="rgb(23, 26, 28)"/>
<path d="M 44.99,28.005 C 45,33.98 41.77,39.6 36.66,42.65 A 17.52,17.52 0 0,1 29.08,45 C 26.65,45 25,42.66 25,40.53 V 40 S 24.76,40.34 24.57,40.86 C 24.33,41.53 24.24,42.51 25,43.71 C 25.24,44.14 25.58,44.52 26.01,44.81 L 26.11,44.91 A 16.05,16.05 0 0,1 18.53,42.07 A 17.35,17.35 0 0,1 14.36,38.09 C 14.64,37.95 14.93,37.76 15.17,37.57 C 16.71,36.37 18,34.07 18.72,30.81 C 19.78,26.01 21.62,24 21.62,24 S 19.58,25 17.95,30.85 C 17.14,33.78 15.8,35.5 14.5,36.56 C 14.21,36.8 13.97,36.99 13.69,37.14 A 17.3,17.3 0 0,1 11,28.02 A 16.99,16.99 0 1,1 45,28.02 Z M 44,28.02 C 44,19.2 36.8,12 27.98,12 A 16.07,16.07 0 0,0 12,28.09 C 12,29.09 12.1,30.04 12.3,30.99 C 12.77,30.33 13.4,29.46 14.36,28.41 A 6.3,6.3 0 0,1 17,26.63 C 15.77,26.63 13.61,26.36 13.16,28.03 C 13.16,28.03 12.98,27.61 13,27 C 13.01,26.55 13.13,26 13.5,25.43 C 14.48,23.91 17.08,23.25 18.77,22.8 C 17.87,22.7 16.39,22.05 16.31,21.02 C 16.31,21.02 16.85,21.41 17.52,21.41 C 18.39,21.45 19.01,20.73 21.45,19.54 A 4.8,4.8 0 0,1 24,19 C 23.68,18.72 23.48,17.38 24.14,17.37 C 24.14,17.37 23.94,17.81 26.01,18.05 C 26.99,18.15 28.7,18.72 28.7,20 C 29.24,16.73 31.96,17.15 33.73,15 C 33.73,15 34.15,17.38 33,18.62 C 33.05,18.58 34.5,17.29 34.5,16 C 34.5,16 35.03,18.1 33.59,19.58 C 36.32,20.78 35.6,23.8 41.84,30.42 C 41.95,30.59 42,30.79 42,31 C 42,32.15 40.45,33.85 40.25,33.93 A 4,4 0 0,1 38.05,33.73 C 37.71,33.55 36.9,32.48 36.37,32.2 C 35.55,31.72 33.83,31.81 32.82,31.62 A 4.28,4.28 0 0,1 29.44,28 S 29,28.63 29,29.66 C 29,30.93 29.25,32.85 31.76,35.36 C 34.36,38 35.84,40.16 36.32,41.74 A 15.97,15.97 0 0,0 44,28.02 Z" fill="url(#a)"/>
<path d="M 32.35,25.155 C 32.86,24.67 33.68,25.34 35,26 C 33.88,25.4 33.22,22.7 32,23.03 C 32.3,23.41 32.36,25.17 32.36,25.17 Z" fill="rgb(56, 254, 18)"/>
<defs>
<linearGradient id="a" x1="10.99" x2="44.99" y1="28" y2="28" gradientUnits="userSpaceOnUse">
<stop stop-color="rgb(156, 125, 83)" offset="0"/>
<stop stop-color="rgb(180, 152, 108)" offset=".15"/>
<stop stop-color="rgb(200, 174, 130)" offset=".32"/>
<stop stop-color="rgb(214, 190, 145)" offset=".51"/>
<stop stop-color="rgb(222, 200, 154)" offset=".72"/>
<stop stop-color="rgb(225, 203, 157)" offset="1"/>
</linearGradient>
</defs>
</svg>
