<?xml version="1.0" encoding="UTF-8"?>
<!-- generated by Finnhub -->
<svg viewBox="0 0 55.5 55.5" xmlns="http://www.w3.org/2000/svg">
<path d="M 0,0 H 55.5 V 55.5 H 0 Z" fill="rgb(239, 242, 248)"/>
<path d="M 4.99,30.985 V 25 H 6 V 27.5 H 9 V 25 H 10 V 31 H 9 V 28.5 H 6 V 31 H 5 Z M 16,27 C 15.72,26.24 14.87,25.8 14.1,25.8 C 12.83,25.8 12.03,26.78 12.03,28 C 12.03,29.24 12.85,30.2 14.13,30.2 C 15.09,30.2 16,29.7 16,28.66 H 14 V 28 H 17 V 28.6 C 17,30.17 15.57,31 14.13,31 C 12.36,31 11,29.81 11,28 C 11,26.23 12.33,25 14.09,25 C 15.31,25 16.73,25.7 17,27 H 16 Z M 19,31 V 25 H 20 V 27.5 H 23 V 25 H 24 V 31 H 23 V 28.5 H 20 V 31 H 19 Z M 27,31 C 25.84,31 25,30.17 25,29 C 25,27.84 25.83,27 27,27 S 29,27.84 29,29 C 29,30.17 28.16,31 27,31 Z M 27,30.37 C 27.77,30.37 28,29.71 28,29 C 28,28.3 27.77,27.63 27,27.63 S 26,28.29 26,29 C 26,29.71 26.23,30.37 27,30.37 Z M 31,25 V 31 H 30 V 25 H 31 Z M 33.83,31 C 32.58,31 32,30.11 32,29 C 32,27.89 32.59,27 33.84,27 C 34.41,27 34.66,27.29 34.93,27.78 H 34.98 V 25 H 36 V 31 H 35 V 30.22 H 34.93 C 34.66,30.72 34.4,31 33.83,31 Z M 34.02,30.26 C 34.76,30.26 35,29.5 35,28.99 C 35,28.5 34.77,27.73 34.02,27.73 C 33.18,27.73 33,28.27 33,28.99 S 33.18,30.26 34.02,30.26 Z M 37.5,26 A 0.49,0.49 0 0,1 37.15,25.85 A 0.49,0.49 0 0,1 37,25.5 C 37,25.36 37.05,25.25 37.15,25.15 C 37.25,25.05 37.36,25 37.5,25 C 37.64,25 37.75,25.05 37.85,25.15 C 37.95,25.25 38,25.36 38,25.5 C 38,25.64 37.95,25.76 37.85,25.85 C 37.75,25.95 37.64,26 37.5,26 Z M 37,27 V 31 H 38 V 27 H 37 Z M 40,28.66 V 31 H 39 V 27 H 40 V 27.39 C 40.12,27.21 40.24,27 40.78,27 C 41.62,27 42,27.73 42,28.49 V 31 H 41 V 28.58 C 41,28.01 41.01,27.67 40.54,27.67 C 40.06,27.67 40,28.02 40,28.66 Z M 45.03,33 C 44.3,33 43.49,32.75 43.17,32.04 L 43.9,31.74 C 44.16,32.15 44.56,32.34 45.03,32.34 C 45.63,32.34 45.99,32.02 45.99,31.38 V 30.28 H 45.93 C 45.66,30.76 45.37,31 44.83,31 C 43.64,31 43,30.1 43,29 S 43.63,27 44.83,27 C 45.4,27 45.66,27.26 45.93,27.75 H 46 V 27 H 47 V 31.4 C 47,32.52 46.02,33 45.03,33 Z M 45.02,30.31 C 45.76,30.31 46,29.61 46,28.99 C 46,28.13 45.76,27.7 45.02,27.7 C 44.22,27.7 43.86,28.28 43.86,28.99 C 43.86,29.71 44.22,30.31 45.02,30.31 Z M 50.93,28 L 50.28,28.12 A 0.74,0.74 0 0,0 49.54,27.6 C 49.24,27.6 49,27.74 49,28.1 C 49,29.15 51,28.43 51,29.8 C 51,30.6 50.2,31 49.5,31 C 48.66,31 48.12,30.61 48,29.93 L 48.7,29.82 C 48.78,30.2 49.05,30.39 49.49,30.39 C 49.85,30.39 50,30.16 50,29.86 C 50,28.9 48.1,29.52 48.1,28.15 C 48.1,27.38 48.85,27 49.53,27 C 50.33,27 50.78,27.39 50.93,28 Z"/>
</svg>
