<?xml version="1.0" encoding="UTF-8"?>
<!-- generated by Finnhub -->
<svg viewBox="0 0 55.5 55.5" xmlns="http://www.w3.org/2000/svg">
<path d="M 0,0 H 55.5 V 55.5 H 0 Z" fill="rgb(225, 98, 2)"/>
<path d="M 11.15,27.955 C 8.26,27.12 4.26,25.01 7.92,22.4 C 9.71,21.13 14.36,20.89 16.83,23.92 C 14.56,20.67 9.46,19.98 6.33,22.62 C 2.33,26 8.31,29.94 11.39,30.99 V 31.99 H 14.85 A 2,2 0 0,0 16.81,30.26 C 13.05,30.32 9.66,29.63 6.93,27.36 C 9.86,28.85 13.01,29.06 16.4,28.72 A 1.96,1.96 0 0,0 14.85,27.96 H 12.87 A 1,1 0 0,1 11.88,26.95 A 1,1 0 0,1 12.88,25.94 H 16.34 V 24.93 H 12.87 A 2,2 0 0,0 10.89,26.95 C 10.89,27.32 10.99,27.67 11.16,27.97 Z M 18.27,30.2 A 3.46,3.46 0 0,0 21.29,32 H 23.27 V 30.99 H 21.29 A 2.45,2.45 0 0,1 19.41,30.11 L 18.27,30.2 Z M 18.82,28.4 L 17.82,28.54 V 28.46 A 3.5,3.5 0 0,1 21.29,24.93 H 23.27 V 25.93 H 21.29 A 2.5,2.5 0 0,0 18.82,28.39 Z M 24.27,29.46 A 3,3 0 0,0 27.23,32.25 A 3,3 0 0,0 30.2,29.22 V 28.42 L 29.21,28.6 V 29.22 A 2,2 0 0,1 27.23,31.24 A 2,2 0 0,1 25.25,29.29 L 24.27,29.46 Z M 25.33,27.16 L 24.28,27.35 A 3,3 0 0,1 27.23,24.67 A 2.97,2.97 0 0,1 29.95,26.49 L 28.9,26.61 A 1.97,1.97 0 0,0 27.23,25.69 C 26.33,25.69 25.56,26.31 25.33,27.15 Z M 31.19,28.23 V 32 H 32.19 V 28.97 H 33.23 L 34.9,32 H 36.04 L 34.36,28.96 C 35.16,28.88 35.82,28.31 36.06,27.56 C 35.65,27.59 35.25,27.63 34.85,27.68 A 0.98,0.98 0 0,1 34.16,27.96 H 32.76 L 31.19,28.23 Z M 32.19,26.29 L 31.19,26.37 V 24.93 H 34.16 A 1.98,1.98 0 0,1 35.98,26.13 L 34.78,26.15 A 0.97,0.97 0 0,0 34.16,25.94 H 32.18 V 26.29 Z M 37.14,27.47 V 32 H 38.12 V 28.97 H 40.11 A 2,2 0 0,0 42.06,27.29 L 41.03,27.31 A 1,1 0 0,1 40.11,27.96 H 38.13 V 27.41 L 37.13,27.47 Z M 38.12,26.14 L 37.14,26.12 V 24.92 H 40.11 C 40.98,24.92 41.72,25.51 41.99,26.31 L 40.81,26.24 A 0.98,0.98 0 0,0 40.11,25.94 H 38.13 V 26.14 Z M 43.08,27.28 V 32 H 44.07 V 27.29 H 43.07 Z M 44.07,26.47 L 43.07,26.39 V 24.93 H 44.07 V 26.47 Z M 45.08,27.3 A 3.14,3.14 0 0,0 45.06,27.7 V 29.22 A 3,3 0 0,0 48.03,32.25 A 3,3 0 0,0 51,29.22 V 27.71 L 50.99,27.45 L 49.99,27.43 L 50.01,27.7 V 29.22 C 50.01,30.34 49.12,31.24 48.03,31.24 S 46.05,30.34 46.05,29.22 V 27.71 C 46.05,27.57 46.06,27.44 46.09,27.31 L 45.09,27.3 Z M 46.32,26.68 L 45.27,26.58 A 2.97,2.97 0 0,1 48.03,24.68 A 3,3 0 0,1 50.98,27.38 A 17.04,17.04 0 0,0 49.94,27.18 A 1.99,1.99 0 0,0 48.03,25.68 C 47.3,25.68 46.66,26.08 46.32,26.68 Z" fill="rgb(254, 254, 253)"/>
</svg>
