<?xml version="1.0" encoding="UTF-8"?>
<!-- generated by Finnhub -->
<svg viewBox="0 0 55.5 55.5" xmlns="http://www.w3.org/2000/svg">
<path d="M 0,0 H 55.5 V 55.5 H 0 Z" fill="rgb(239, 242, 248)"/>
<path d="M 40.99,16.564999999999998 C 35.07,16.82 29.17,17.24 29.85,18.43 C 30.52,19.63 39.57,21.02 39.35,22.93 C 38.98,26.07 17.36,23.86 16.35,30 C 16.35,30 12.35,24.36 18.11,23.25 C 24.07,22.11 30.81,22.72 30.91,21.82 C 31.09,20.29 24.92,19.4 25.73,17.74 C 27.2,14.68 41,16.58 41,16.58 Z" fill="rgb(1, 72, 133)"/>
<path d="M 41.49,35.985 C 41.47,36 41.44,36 41.4,35.98 A 0.17,0.17 0 0,1 41.34,35.9 L 40,32.92 V 35.87 C 40,35.94 39.95,36.01 39.89,36 H 39.12 A 0.1,0.1 0 0,1 39.07,36 A 0.1,0.1 0 0,1 39.03,35.97 A 0.13,0.13 0 0,1 39,35.87 V 32.13 A 0.13,0.13 0 0,1 39.03,32.03 A 0.1,0.1 0 0,1 39.07,32.01 A 0.1,0.1 0 0,1 39.12,32.01 H 40.49 C 40.53,32 40.56,32.01 40.59,32.02 C 40.62,32.04 40.65,32.07 40.66,32.1 L 42,35.1 V 32.13 C 42,32.06 42.09,31.99 42.15,32 H 42.88 A 0.1,0.1 0 0,1 42.97,32.03 L 42.99,32.08 L 43,32.13 V 35.87 A 0.13,0.13 0 0,1 42.97,35.97 A 0.1,0.1 0 0,1 42.88,36 H 41.51 Z M 22.87,32 A 0.12,0.12 0 0,1 22.97,32.03 L 22.98,32.13 L 22.99,32.17 L 23,32.22 V 32.94 C 22.97,32.99 22.92,33.01 22.87,33 H 20 V 33.54 H 22.43 A 0.12,0.12 0 0,1 22.55,33.62 V 34.3 A 0.12,0.12 0 0,1 22.48,34.42 H 20 V 35 H 22.87 C 22.94,34.99 23.01,35.07 23,35.13 V 35.87 A 0.11,0.11 0 0,1 22.92,35.99 H 19.13 A 0.12,0.12 0 0,1 19.03,35.97 A 0.11,0.11 0 0,1 19,35.87 V 32.13 A 0.12,0.12 0 0,1 19.13,32 H 22.87 Z M 13.62,33 H 15 V 35.87 L 15.01,35.91 V 35.92 A 0.12,0.12 0 0,0 15.08,35.99 A 0.1,0.1 0 0,0 15.13,35.99 H 15.89 C 15.97,36.01 16,35.94 16,35.87 V 33 H 17.37 A 0.1,0.1 0 0,0 17.47,32.97 A 0.12,0.12 0 0,0 17.5,32.87 V 32.13 A 0.12,0.12 0 0,0 17.46,32.03 A 0.11,0.11 0 0,0 17.36,32 H 13.62 A 0.1,0.1 0 0,0 13.53,32.03 A 0.12,0.12 0 0,0 13.5,32.13 V 32.87 A 0.12,0.12 0 0,0 13.53,32.97 A 0.11,0.11 0 0,0 13.63,33 Z M 8.93,34.75 H 8.12 A 0.1,0.1 0 0,0 8.03,34.78 A 0.12,0.12 0 0,0 8,34.88 V 35.1 C 8,35.78 8.22,36 8.88,36 H 11.1 C 11.74,36 12,35.72 12,35.08 V 34.46 C 12,33.82 11.74,33.5 11.1,33.5 H 9.3 C 9.18,33.5 9.14,33.5 9.14,33.39 V 33.19 C 9.14,33.05 9.2,32.99 9.37,32.99 H 10.71 C 10.83,32.99 11.01,33.05 11.01,33.17 V 33.21 A 0.12,0.12 0 0,0 11.04,33.31 A 0.1,0.1 0 0,0 11.13,33.34 H 11.88 A 0.1,0.1 0 0,0 11.98,33.3 A 0.12,0.12 0 0,0 12.01,33.2 V 32.97 C 12.01,32.3 11.71,32 11.06,32 H 8.96 C 8.32,32 8.01,32.28 8.01,32.91 V 33.51 C 8.01,34.15 8.32,34.5 8.96,34.5 H 10.75 C 10.9,34.5 11.01,34.5 11.01,34.62 V 34.88 C 11.01,35 10.91,35 10.76,35 H 9.13 C 9.04,35 9,35 9,34.9 V 34.87 V 34.85 V 34.82 A 0.12,0.12 0 0,0 8.93,34.75 Z M 29,33.7 V 32.9 C 29,32.27 28.76,32 28.11,32 H 25.13 A 0.1,0.1 0 0,0 25.03,32.02 A 0.12,0.12 0 0,0 25,32.12 V 35.86 A 0.12,0.12 0 0,0 25.03,35.96 L 25.08,35.98 A 0.1,0.1 0 0,0 25.13,35.98 H 25.88 C 25.95,36 26,35.93 26,35.86 V 34.73 H 26.88 L 27.82,35.89 C 27.84,35.93 27.87,35.95 27.91,35.97 C 27.95,35.99 27.99,35.99 28.03,35.99 H 29.11 L 29.15,35.97 L 29.17,35.94 A 0.08,0.08 0 0,0 29.15,35.86 L 28.1,34.66 H 28.11 C 28.76,34.66 29,34.34 29,33.7 Z M 27.56,34 H 26 V 33 H 27.56 C 27.87,33 28,33.06 28,33.33 V 33.68 C 28,33.95 27.87,34 27.56,34 Z M 32,35 H 34.38 C 34.44,34.99 34.51,35.04 34.5,35.1 V 35.87 A 0.12,0.12 0 0,1 34.47,35.97 A 0.1,0.1 0 0,1 34.38,36 H 31.12 A 0.1,0.1 0 0,1 31.03,35.97 A 0.12,0.12 0 0,1 31.01,35.92 L 31,35.87 V 32.13 V 32.08 L 31.03,32.03 A 0.1,0.1 0 0,1 31.07,32.01 A 0.1,0.1 0 0,1 31.12,32.01 H 31.88 A 0.1,0.1 0 0,1 31.98,32.04 A 0.12,0.12 0 0,1 32,32.13 V 35 Z M 37,35.92 V 32.13 V 32.08 A 0.12,0.12 0 0,0 36.97,32.03 A 0.1,0.1 0 0,0 36.93,32.01 A 0.1,0.1 0 0,0 36.88,32.01 H 36.07 A 0.1,0.1 0 0,0 36.03,32.03 A 0.12,0.12 0 0,0 36.01,32.08 V 35.87 V 35.92 L 36.03,35.97 A 0.1,0.1 0 0,0 36.07,35.99 H 36.88 A 0.1,0.1 0 0,0 36.93,35.99 A 0.1,0.1 0 0,0 36.97,35.97 A 0.12,0.12 0 0,0 36.99,35.92 Z M 48.07,33.34 A 0.1,0.1 0 0,0 48.12,33.34 H 48.88 A 0.1,0.1 0 0,0 48.92,33.34 A 0.1,0.1 0 0,0 48.97,33.31 A 0.12,0.12 0 0,0 49,33.21 V 32.9 C 49,32.22 48.78,32 48.12,32 H 45.9 C 45.28,32 45,32.28 45,32.91 V 35.08 C 45,35.72 45.28,36 45.9,36 H 48.12 C 48.78,36 49,35.78 49,35.1 V 33.81 V 33.76 A 0.12,0.12 0 0,0 48.97,33.72 A 0.1,0.1 0 0,0 48.92,33.69 A 0.1,0.1 0 0,0 48.88,33.69 H 47.13 C 47.07,33.68 46.99,33.74 47,33.81 V 34.44 C 47,34.51 47.07,34.57 47.13,34.57 H 48 V 34.9 C 48,35 47.92,35 47.82,35 H 46.43 C 46.13,35 46,35 46,34.71 V 33.3 C 46,33 46.13,33 46.43,33.01 H 47.82 C 47.92,33.01 48,33.01 48,33.11 V 33.23 A 0.12,0.12 0 0,0 48.03,33.33 A 0.1,0.1 0 0,0 48.07,33.35 Z" fill="rgb(83, 85, 88)"/>
</svg>
