<?xml version="1.0" encoding="UTF-8"?>
<!-- generated by Finnhub -->
<svg viewBox="0 0 55.5 55.5" xmlns="http://www.w3.org/2000/svg">
<path d="M 0,0 H 55.5 V 55.5 H 0 Z" fill="rgb(52, 103, 173)"/>
<path d="M 43.49,25.485 A 0.75,0.75 0 1,1 42,25.5 A 0.75,0.75 0 0,1 43.5,25.5 Z" fill="rgb(254, 254, 253)"/>
<path d="M 7.430000000000001,21.985 A 6.12,6.12 0 0,0 5.91,22.15 C 5.11,22.34 4.46,22.8 4.16,23.41 C 4.07,23.6 4.02,23.79 4,24 A 1.57,1.57 0 0,0 4.62,25.33 C 5.12,25.72 5.74,25.88 6.32,25.94 C 6.81,26 7.32,26 7.74,26 H 7.93 C 8.4,26 9.13,26.03 9.7,26.2 C 9.99,26.29 10.19,26.4 10.3,26.52 C 10.4,26.62 10.45,26.74 10.43,26.94 C 10.38,27.36 10.09,27.64 9.56,27.82 C 9.03,28 8.36,28.02 7.84,28 A 5.97,5.97 0 0,1 4.63,27.1 L 4.03,27.9 A 6.93,6.93 0 0,0 7.82,29 C 8.37,29.01 9.18,29 9.88,28.77 C 10.59,28.53 11.31,28.03 11.42,27.06 C 11.48,26.56 11.32,26.14 11.02,25.83 A 2.4,2.4 0 0,0 9.99,25.25 A 7.45,7.45 0 0,0 7.72,25 C 7.3,25 6.86,25 6.43,24.95 A 2.4,2.4 0 0,1 5.23,24.55 A 0.58,0.58 0 0,1 5.01,24.21 A 0.57,0.57 0 0,1 5.06,23.84 C 5.2,23.56 5.56,23.26 6.14,23.12 C 6.51,23.03 6.95,22.99 7.42,23 C 8.62,23.02 9.9,23.35 10.62,23.9 L 11.22,23.12 A 6.94,6.94 0 0,0 7.45,22 Z M 15,22 H 14 V 26 C 14,28.36 16.07,29 18,29 C 19.93,29 22,28.36 22,26 V 22 H 21 V 26 C 21,27.77 19.36,28 18,28 S 15,27.77 15,26 V 22 Z M 27,22 H 24 V 23 H 27 V 29 H 28 V 23 H 31 V 22 H 27 Z M 34,22 H 33 V 29 H 34 V 26.5 H 37.8 L 39.56,29 H 40.78 L 39.02,26.5 A 2,2 0 0,0 41,24.5 V 24 A 2,2 0 0,0 39,22 H 34 Z M 34,23 V 25.5 H 38.75 A 1.25,1.25 0 0,0 38.75,23 H 34 Z M 47.25,29 C 49.87,29 52,27.59 52,25.5 S 49.87,22 47.25,22 C 45.88,22 44.65,22.43 43.78,23.11 C 44.54,22.73 45.48,22.5 46.5,22.5 C 48.99,22.5 51,23.74 51,25.5 S 48.99,28.5 46.5,28.5 A 6.07,6.07 0 0,1 43.78,27.89 C 44.65,28.57 45.88,29 47.25,29 Z M 5,31 H 7.61 A 0.77,0.77 0 0,1 8.06,32.41 A 0.82,0.82 0 0,1 7.76,34.01 H 5 V 31 Z M 5.48,31.48 H 7.52 A 0.39,0.39 0 1,1 7.52,32.26 H 5.48 V 31.49 Z M 5.48,32.74 H 7.71 A 0.39,0.39 0 0,1 7.71,33.52 H 5.48 V 32.74 Z" fill="rgb(254, 254, 253)" fill-rule="evenodd"/>
<path d="M 10.69,30.985 H 11.12 V 34 H 10.69 V 31 Z" fill="rgb(254, 254, 253)"/>
<path d="M 15.49,33.515 C 16.2,33.53 16.63,32.98 16.63,32.5 S 16.2,31.47 15.5,31.47 S 14.37,32.02 14.37,32.5 S 14.8,33.53 15.5,33.53 Z M 15.5,34 A 1.5,1.5 0 1,0 15.5,31 A 1.5,1.5 0 0,0 15.5,34 Z" fill="rgb(254, 254, 253)" fill-rule="evenodd"/>
<path d="M 20.029999999999998,30.985 H 19.61 V 34 H 20.04 V 31 Z M 20.04,31 H 21.66 A 0.92,0.92 0 1,1 21.66,32.84 H 20.04 V 32.36 H 21.72 A 0.44,0.44 0 0,0 21.72,31.48 H 20.04 V 31 Z M 24.96,31 H 25.39 V 34 H 24.96 V 31 Z M 27.51,31 H 27.94 V 34 H 27.51 V 32.64 H 25.39 V 32.16 H 27.51 V 31 Z" fill="rgb(254, 254, 253)"/>
<path d="M 31.709999999999997,30.985 L 30.27,34 H 30.75 L 31.08,33.32 H 32.9 L 33.23,34 H 33.71 L 32.26,31 H 31.72 Z M 32.66,32.84 L 32,31.45 L 31.32,32.84 H 32.67 Z M 49,31 L 47.56,34 H 48.04 L 48.37,33.32 H 50.19 L 50.52,34 H 51 L 49.55,31 H 49 Z M 49.95,32.84 L 49.28,31.45 L 48.6,32.84 H 49.95 Z M 36,31 H 38.06 A 0.92,0.92 0 0,1 38.26,32.82 L 38.95,34 H 38.43 L 37.76,32.84 H 36.43 V 34 H 36 V 31 Z M 36.43,32.36 V 31.48 H 38.12 A 0.44,0.44 0 0,1 38.12,32.36 H 36.43 Z" fill="rgb(254, 254, 253)" fill-rule="evenodd"/>
<path d="M 41.940000000000005,30.985 H 41.53 V 34 H 41.95 V 31.77 L 43.31,33.67 L 44.67,31.77 V 34 H 45.09 V 31 H 44.67 L 43.31,32.9 L 41.95,31 Z" fill="rgb(254, 254, 253)"/>
</svg>
