<?xml version="1.0" encoding="UTF-8"?>
<!-- generated by Finnhub -->
<svg viewBox="0 0 55.5 55.5" xmlns="http://www.w3.org/2000/svg">
<path d="M 0,0 H 55.5 V 55.5 H 0 Z" fill="rgb(239, 242, 248)"/>
<path d="M 27.99,28.605 V 9 L 32.72,22.52 L 28,28.62 Z" fill="rgb(1, 44, 96)"/>
<path d="M 27.99,28.605 V 9 L 23.28,22.52 L 28,28.62 Z" fill="rgb(204, 203, 202)"/>
<path d="M 23.27,22.485 H 9 L 28.02,28.6 L 23.28,22.5 Z" fill="rgb(1, 44, 96)"/>
<path d="M 32.71,22.485 H 47 L 28,28.6 L 32.72,22.5 Z M 20.66,31.3 L 9,22.5 L 28,28.58 L 20.66,31.3 Z" fill="rgb(204, 203, 202)"/>
<path d="M 35.21,31.285 L 47,22.5 L 28,28.58 L 35.22,31.3 Z" fill="rgb(1, 44, 96)"/>
<path d="M 20.639999999999997,31.285 L 16.32,45 L 28.02,28.58 L 20.65,31.29 Z" fill="rgb(1, 44, 96)"/>
<path d="M 35.21,31.285 L 39.56,45 L 28.02,28.58 L 35.22,31.29 Z M 28,36.6 L 16.33,44.98 L 28,28.57 V 36.59 Z" fill="rgb(204, 203, 202)"/>
<path d="M 27.99,36.585 L 39.57,45 L 28,28.56 V 36.59 Z" fill="rgb(1, 44, 96)"/>
</svg>
