<?xml version="1.0" encoding="UTF-8"?>
<!-- generated by Finnhub -->
<svg viewBox="0 0 55.5 55.5" xmlns="http://www.w3.org/2000/svg">
<path d="M 0,0 H 55.5 V 55.5 H 0 Z" fill="rgb(239, 242, 248)"/>
<path d="M 25.889999999999997,18.985 C 29.72,19 31.68,22 32.11,23.58 L 31.81,23.68 C 31.39,22.18 29.62,19.66 25.91,19.66 C 23.34,19.66 20.41,21.33 20.04,24.56 C 20.89,24.64 21.48,24.73 21.77,24.79 L 21.71,25.11 A 16.1,16.1 0 0,0 20.01,24.9 C 19.99,25.14 19.98,25.7 19.98,25.94 H 19.67 C 19.67,25.7 19.67,25.12 19.69,24.87 C 19.01,24.82 18.19,24.79 17.27,24.79 C 12.86,24.79 8.57,27.67 8.33,32.55 C 8.11,36.93 11.63,39.67 15.67,39.67 C 17.91,39.67 21,38.16 21,35.5 C 21,32.54 18.95,31.27 16.33,31 C 13.88,30.75 12.68,33.08 12.48,34.24 C 12.7,32.98 13.67,30.47 16.33,30.74 C 19.11,31.03 21.26,32.41 21.26,35.54 C 21.26,38.38 18.09,40 15.67,40 C 11.44,40 7.77,37.13 8.01,32.55 C 8.27,27.5 12.69,24.45 17.27,24.45 C 18.21,24.45 19.03,24.49 19.72,24.55 A 6.06,6.06 0 0,1 25.9,19 Z M 40.04,25.15 C 38.17,25.9 36.34,26.81 35.23,27.41 L 35.08,27.12 A 50.7,50.7 0 0,1 39.92,24.84 C 41.8,24.08 43.74,23.46 45.05,23.46 C 46.94,23.46 50,24.07 50,26.61 C 50,29.88 46.38,31.09 43.77,30.91 C 39.92,30.64 36.23,29.59 34.83,28.92 L 34.9,28.11 C 36.27,28.77 39.98,30.15 43.78,30.41 C 46.2,30.58 49.68,29.75 49.68,26.61 C 49.68,24.28 46.74,23.8 45.05,23.8 C 43.81,23.8 41.92,24.39 40.04,25.15 Z" fill="rgb(1, 156, 68)"/>
<path d="M 20.13,28.245 C 18.36,29.32 18.12,32.01 18.23,33.22 C 18.33,33.11 18.73,33 19.51,33 H 21.74 C 22.76,33 23.66,32 23.98,31.57 C 24.51,31.9 25.76,32.56 26.53,32.56 C 27.3,32.56 28.29,32.33 28.5,32 C 29.03,32.22 30.21,32.5 32,32.5 C 34.24,32.5 35.47,30.9 35.47,30.24 C 35.47,29.58 35.79,29.25 36.11,28.59 C 36.37,28.06 36.21,27.49 36.11,27.27 C 36.37,27 36.21,26.5 36.11,26.27 V 25.61 C 36.11,25.35 35.9,25.06 35.79,24.95 V 24.29 C 35.79,24.03 35.36,23.74 35.15,23.63 C 35.25,23.41 35.41,22.97 35.15,22.97 C 34.9,22.97 34.62,23.19 34.51,23.3 C 34.41,22.97 34.13,22.3 33.87,22.3 C 33.62,22.3 33.56,22.53 33.56,22.64 A 4.74,4.74 0 0,0 29.72,23.96 A 2.56,2.56 0 0,0 27.81,21.98 V 21.65 L 26.21,20.98 L 25.89,21.32 L 25.25,20.98 L 24.93,21.65 L 23.33,20.98 L 24,22 H 22.5 V 22.64 C 21.48,23.17 20.89,24.84 20.78,25.61 C 18.48,25.61 17.91,26.5 17.91,26.94 C 19.19,26.94 19.93,27.82 20.14,28.26 Z" fill="rgb(11, 98, 70)"/>
<path d="M 23.49,22.485 H 24.61 V 21.98 L 25.25,22.31 L 25.57,21.65 L 26.21,21.98 L 26.53,21.65 L 27.17,21.98 V 22.31 L 27.81,23 H 27.17 V 23.63 L 26.53,23.3 L 26.21,24.3 L 25.89,23.63 L 25.57,24.29 L 24.93,23.63 L 24.29,24.29 L 23.98,23.29 L 23.02,23.63 L 23.5,22.97 V 22.5 Z M 32.92,25.28 L 33.55,24.62 L 33.24,23.96 L 33.87,24.29 V 23.63 L 34.51,24.29 L 34.83,23.96 V 24.62 L 35.47,24.29 L 35.15,25.29 L 35.79,25.61 L 35.47,26.28 H 35.79 L 35.47,26.94 L 35.79,28.26 L 35.47,27.6 L 34.83,28.6 V 27.27 L 33.87,27.93 L 34.19,27 H 33.55 L 33.87,26 H 33.24 L 33.55,25.28 H 32.92 Z M 21.1,25.94 V 26.61 H 20.14 C 20.65,26.61 21.21,27.27 21.42,27.6 L 20.46,27.93 C 20.21,27.13 19.29,26.72 18.86,26.61 C 19.63,26.08 20.68,25.95 21.1,25.95 Z M 20.14,31.57 A 9.75,9.75 0 0,1 22.38,30.24 L 23.66,31.57 C 23.34,32.01 22.51,32.82 21.74,32.56 C 20.78,32.23 20.46,32.23 19.82,32.23 C 19.32,32.23 18.76,32.67 18.55,32.89 C 18.65,32.12 18.99,30.44 19.5,29.91 H 20.14 V 28.92 L 20.46,29.58 V 28.59 L 21.1,29.59 V 28.59 L 21.74,29.25 V 28.92 L 22.04,29.59 C 21.5,29.82 20.4,30.52 20.14,31.57 Z M 24.62,22.97 C 24.82,23.07 25.38,23.23 25.89,22.97 C 26.4,22.7 26.32,22.42 26.21,22.31 C 26.21,22.41 26.08,22.64 25.57,22.64 C 25.07,22.64 24.72,22.86 24.62,22.97 Z M 34.52,25.28 C 34.19,25.28 33.88,25.94 34.19,26.28 C 34.51,26.61 35.15,26.61 35.15,26.28 C 35.15,25.94 34.85,25.92 34.51,25.94 C 34.61,25.72 34.76,25.28 34.51,25.28 Z" fill="rgb(58, 174, 40)"/>
<path d="M 29.389999999999997,23.945 C 29.15,23.16 28.02,22.53 27.49,22.31 C 27.49,22.64 28.67,23.01 28.45,23.3 C 28.23,23.59 28.13,23.3 27.81,23.3 S 28.13,24.3 28.13,24.62 C 28.13,24.95 27.17,24.29 26.85,24.29 C 26.53,24.29 26.53,25.29 26.21,25.29 S 26.21,24.29 25.89,24.29 S 25.57,25.29 25.25,25.29 S 24.93,24.29 24.61,24.29 C 24.3,24.29 24.3,24.95 23.98,24.95 C 23.72,24.95 23.66,24.29 23.66,23.96 L 23.02,24.29 A 1,1 0 0,1 22.38,23.96 C 22.06,23.63 22.06,23.96 22.06,24.29 S 22.38,24.62 22.06,24.62 C 21.81,24.62 21.74,24.84 21.74,24.95 H 22.06 V 25.28 H 21.42 V 25.61 H 22.06 V 25.95 H 21.74 V 26.28 L 22.06,26.61 L 21.74,26.94 V 27.27 L 22.7,27.6 H 22.06 V 27.93 L 22.38,28.26 H 22.06 V 28.59 H 22.7 L 22.38,28.92 L 22.7,29.25 H 23.34 V 29.58 H 22.7 V 29.91 H 23.66 C 23.66,30.02 23.59,30.24 23.34,30.24 C 23.08,30.24 23.66,30.46 23.98,30.58 C 23.87,30.58 23.72,30.64 23.98,30.91 A 3.94,3.94 0 0,0 26.85,32.23 C 28.45,32.23 29.09,29.58 29.4,27.6 C 29.72,25.61 29.72,24.95 29.4,23.96 Z M 32.6,23.3 C 33.36,23.3 33.56,23.52 33.56,23.63 H 32.6 C 32.34,23.63 32.7,24.51 32.92,24.95 C 32.81,25.06 32.6,25.35 32.6,25.61 C 32.6,25.88 32.81,25.95 32.92,25.95 C 32.92,26.47 33.13,26.61 33.24,26.61 C 33.24,27.14 33.44,27.49 33.56,27.6 C 33.34,27.6 32.98,27.66 33.24,27.93 C 33.49,28.19 33.98,28.26 34.19,28.26 C 34.19,28.48 34.26,28.99 34.51,29.26 C 34.83,29.58 35.15,28.59 35.47,28.59 C 35.79,28.59 35.47,29.25 35.47,29.59 C 35.47,29.91 35.15,29.59 34.83,29.59 S 35.15,29.91 35.15,30.24 C 35.15,30.58 34.51,29.91 34.51,30.24 C 34.51,30.58 34.83,30.58 34.51,30.91 S 34.19,30.91 33.87,30.91 C 33.56,30.91 34.19,31.24 33.87,31.57 C 33.56,31.9 33.56,31.24 33.24,31.24 S 33.24,31.9 32.92,31.9 S 32.92,31.24 32.6,31.57 S 32.6,31.9 32.28,31.9 C 32.02,31.9 31.96,31.68 31.96,31.57 L 31.64,31.9 H 31.32 V 31.57 H 31 V 31.9 H 30.68 L 30.36,31.57 V 31.9 L 28.76,31.24 L 29.09,30.58 C 29.4,30.68 30.04,30.78 30.04,30.24 C 30.04,29.72 29.62,29.8 29.4,29.91 L 29.72,28.92 C 29.94,28.92 30.36,28.86 30.36,28.59 C 30.36,28.33 30.15,28.26 30.04,28.26 V 27.26 C 30.15,27.16 30.36,26.87 30.36,26.61 C 30.36,26.34 30.15,26.28 30.04,26.28 C 30.04,25.94 30.11,25.15 30.36,24.62 A 2.67,2.67 0 0,1 32.6,23.3 Z" fill="rgb(226, 17, 55)"/>
<path d="M 26.52,26.925 C 26.21,26.94 26.21,26.94 26.21,26.28 C 26.21,25.75 26.42,25.83 26.53,25.94 C 26.63,26.06 26.85,26.34 26.85,26.61 C 26.85,26.94 26.85,26.94 26.53,26.94 Z M 28.13,26.28 C 28.38,25.75 28.45,25.83 28.45,25.94 C 28.55,26.06 28.77,26.34 28.77,26.61 C 28.77,26.94 27.81,26.94 28.13,26.28 Z M 28.77,24.62 C 28.77,24.09 28.97,23.96 29.08,23.96 C 29.4,23.96 29.4,24.29 29.4,24.62 S 28.77,25.28 28.77,24.62 Z M 24.61,25.95 C 24.61,25.42 24.83,25.28 24.93,25.28 C 25.19,25.28 25.25,25.72 25.25,25.94 C 25.25,26.17 25.19,26.61 24.93,26.61 C 24.61,26.61 24.61,26.61 24.61,25.95 Z M 26.85,27.93 C 26.85,27.4 27.28,27.49 27.49,27.6 V 28.26 C 27.28,28.37 26.85,28.46 26.85,27.93 Z M 28.45,28.6 C 28.45,28.06 28.65,27.93 28.77,27.93 C 29.08,27.93 29.08,28.26 29.08,28.59 S 28.45,29.25 28.45,28.59 Z M 24.93,29.25 C 24.68,28.72 25.04,28.59 25.25,28.59 C 25.52,28.52 25.57,28.92 25.57,29.25 S 25.25,29.91 24.93,29.25 Z M 27.49,30.24 C 27.49,29.72 27.7,29.58 27.81,29.58 C 28.45,29.58 28.45,30.24 28.13,30.58 C 27.81,30.91 27.49,30.91 27.49,30.24 Z M 25.9,30.9 C 25.9,30.38 26.1,30.24 26.21,30.24 C 26.53,30.24 26.53,30.91 26.53,31.24 C 26.53,31.57 25.89,31.57 25.89,30.91 Z M 25.25,30.9 C 25.25,31.24 24.93,31.24 24.61,30.9 C 24.36,30.64 24.51,30.35 24.61,30.24 C 24.93,29.91 25.25,30.57 25.25,30.91 Z M 23.66,26.94 C 23.66,26.41 23.86,26.28 23.98,26.28 C 24.14,26.18 24.61,26.61 24.61,26.94 S 24.61,27.27 24.29,27.6 C 24.04,27.86 23.76,27.27 23.66,26.94 Z M 22.7,28.26 C 22.7,28 22.91,27.93 23.02,27.93 C 23.23,27.93 23.66,28 23.66,28.26 C 23.66,28.59 23.66,28.92 23.34,28.92 S 22.7,28.59 22.7,28.26 Z M 22.38,25.61 C 22.38,25.35 22.59,25.28 22.7,25.28 C 22.91,25.21 23.02,26.28 22.7,26.28 S 22.38,25.94 22.38,25.61 Z M 30.04,26.6 C 29.94,26.72 29.79,26.94 30.04,26.94 C 30.36,26.94 30.17,26.43 30.04,26.61 Z M 29.72,28.26 C 29.72,28.37 29.79,28.59 30.04,28.59 C 30.36,28.59 30.04,28.26 29.72,28.26 Z M 29.4,30.24 C 29.51,30.35 29.72,30.51 29.72,30.24 C 29.72,29.91 29.4,29.91 29.4,30.24 Z M 31.32,24.62 C 31.06,24.09 31.42,23.96 31.64,23.96 C 31.91,23.88 31.96,24.29 31.96,24.62 S 31.64,25.28 31.32,24.62 Z M 30.68,25.95 C 30.43,25.68 30.78,25.39 31,25.28 C 31.1,25.28 31.32,25.35 31.32,25.61 C 31.32,25.95 31,26.28 30.68,25.95 Z M 31.32,26.94 C 31.32,26.67 31.53,26.61 31.64,26.61 C 31.84,26.51 31.94,26.79 31.96,26.94 C 31.96,27.04 31.89,27.27 31.64,27.27 C 31.32,27.27 31.32,27.27 31.32,26.94 Z M 31.96,28.92 C 31.96,28.39 32.38,28.48 32.6,28.59 C 33.1,28.59 33.02,29.03 32.92,29.25 C 32.6,29.36 31.96,29.45 31.96,28.92 Z M 31.32,29.58 C 31.06,29.58 30.79,29.36 30.68,29.25 C 30.68,28.59 31.64,28.59 31.64,28.92 S 31.64,29.58 31.32,29.58 Z M 33.55,30.57 C 33.05,30.57 32.92,30.35 32.92,30.24 C 32.92,29.72 33.55,29.8 33.87,29.91 C 33.98,30.13 34.07,30.57 33.55,30.57 Z M 30.68,30.9 C 30.43,30.64 30.78,30.35 31,30.24 C 31.64,30.24 31.64,30.57 31.64,30.91 C 31.64,31.24 31,31.24 30.68,30.91 Z" fill="rgb(253, 254, 253)"/>
</svg>
