<?xml version="1.0" encoding="UTF-8"?>
<!-- generated by Finnhub -->
<svg viewBox="0 0 55.5 55.5" xmlns="http://www.w3.org/2000/svg">
<path d="M 0,0 H 55.5 V 55.5 H 0 Z" fill="rgb(239, 242, 248)"/>
<path d="M 28.25,10.985 C 29.02,11.07 29.78,11.16 30.54,11.26 A 16.3,16.3 0 0,1 37.38,13.8 C 37.2,14.14 37.2,14.14 37.38,13.8 C 32.56,11.22 27.69,10.97 22.77,13.05 A 15.96,15.96 0 0,0 16.43,17.88 A 16.24,16.24 0 0,0 15.83,37.32 A 16.18,16.18 0 0,0 26.35,44.07 A 16.33,16.33 0 0,0 37.65,42.08 A 17.22,17.22 0 0,1 18.27,41.93 C 16.27,40.57 14.66,38.86 13.42,36.79 A 16.83,16.83 0 0,1 11.16,30.34 A 17.07,17.07 0 0,1 14.8,17.28 C 18.05,13.3 22.41,11.21 27.88,11 H 28.26 Z" fill="rgb(5, 54, 93)"/>
<path d="M 21.97,41.815 L 22.34,41.63 A 9.44,9.44 0 0,0 26.08,42.87 C 27.36,43.04 28.68,43.04 30.05,42.87 C 30.2,42.85 30.28,42.81 30.29,42.73 C 30.39,42.8 30.47,42.83 30.56,42.83 C 30.59,42.83 30.62,42.82 30.63,42.79 A 0.08,0.08 0 0,0 30.62,42.69 A 18.28,18.28 0 0,0 24.6,38.33 C 23.77,37.95 23.18,37.63 22.82,37.39 C 22.21,36.99 21.76,36.51 21.46,35.97 A 6.46,6.46 0 0,1 20.76,33.3 C 20.67,32.09 20.9,31.2 21.44,30.65 C 22.11,29.96 22.88,29.9 23.74,30.45 A 13.8,13.8 0 0,1 27.48,34.01 A 31.7,31.7 0 0,1 29.52,37.01 C 29.58,37.11 29.61,37.25 29.62,37.42 V 37.55 C 29.62,37.65 29.66,37.73 29.72,37.81 C 30.72,39.14 31.42,40.61 31.84,42.19 C 31.87,42.29 31.93,42.32 32.02,42.28 L 32.11,42.25 C 32.14,42.23 32.15,42.21 32.14,42.18 A 12.97,12.97 0 0,0 29.97,37.68 A 0.24,0.24 0 0,1 29.95,37.42 C 31.15,34.9 31.58,32.69 31.23,30.78 C 31.19,30.6 31.2,30.39 31.23,30.18 C 31.27,30.02 31.31,30.02 31.37,30.17 L 31.78,31.25 C 31.83,31.37 31.9,31.39 31.98,31.29 L 32.05,31.21 C 32.13,31.13 32.2,31.13 32.27,31.21 C 32.71,31.76 33.14,32.33 33.55,32.91 L 33.62,32.96 C 33.69,32.98 33.72,32.96 33.72,32.88 V 32.71 C 33.72,32.61 33.78,32.57 33.87,32.62 C 34.31,32.84 34.68,33.1 35,33.42 C 35.14,33.56 35.27,33.56 35.4,33.42 L 35.85,32.98 C 35.92,32.91 35.98,32.92 36.01,33.02 L 36.13,33.32 C 36.16,33.41 36.23,33.46 36.31,33.48 C 36.4,33.49 36.47,33.48 36.53,33.41 L 37.84,32.11 A 0.17,0.17 0 0,1 38.02,32.06 C 38.09,32.08 38.13,32.13 38.14,32.2 C 38.16,32.27 38.18,32.33 38.23,32.37 C 38.29,32.43 38.34,32.42 38.37,32.34 L 39.22,30.24 C 39.25,30.16 39.3,30.13 39.38,30.13 S 39.51,30.16 39.54,30.23 C 39.58,30.31 39.65,30.37 39.77,30.4 C 39.87,30.43 39.92,30.4 39.92,30.29 C 39.92,30.09 39.82,29.93 39.62,29.8 C 39.8,29.7 39.84,29.64 39.72,29.62 L 40.08,29.77 C 40.17,29.81 40.21,29.88 40.22,29.97 C 40.3,31.61 40.17,33.21 39.82,34.77 A 12.86,12.86 0 0,1 38.04,39.25 L 38.05,39.27 C 38.07,39.29 38.09,39.29 38.12,39.27 L 39.22,38.2 A 14.46,14.46 0 0,0 43.27,27.27 A 14.68,14.68 0 0,0 39.74,18.34 A 14.5,14.5 0 0,0 31.49,13.39 A 15,15 0 0,0 19.19,16.02 V 16 A 16.3,16.3 0 0,1 30.77,12.45 A 15.4,15.4 0 0,1 41.43,18.08 A 15.64,15.64 0 0,1 21.98,41.83 Z" fill="rgb(92, 186, 68)"/>
<path d="M 39.21,38.185 L 38.12,39.26 C 38.09,39.29 38.07,39.29 38.05,39.27 L 38.04,39.25 V 39.22 C 38.85,37.99 39.45,36.52 39.83,34.77 C 40.17,33.21 40.3,31.61 40.22,29.97 C 40.22,29.88 40.16,29.81 40.08,29.77 L 39.73,29.62 A 64,64 0 0,0 39.75,27.72 C 39.75,27.11 39.65,26.48 39.48,25.83 C 39.14,24.55 38.84,23.33 38.59,22.15 A 5.54,5.54 0 0,0 38.27,21.21 A 0.38,0.38 0 0,1 38.25,20.94 C 38.43,20.44 38.51,19.94 38.51,19.42 A 0.35,0.35 0 0,0 38.47,19.27 C 38.44,19.2 38.39,19.17 38.32,19.17 C 38.2,19.17 38.15,19.11 38.16,18.98 C 38.18,18.83 38.14,18.74 38.06,18.71 C 38.02,18.73 37.97,18.72 37.92,18.69 A 0.34,0.34 0 0,1 37.76,18.5 C 37.7,18.3 37.61,18.12 37.51,17.98 C 37.34,17.75 37.25,17.78 37.24,18.06 C 37.2,18.66 36.98,19.12 36.59,19.42 L 36.06,19.8 C 35.3,20.34 34.81,20.79 34.59,21.16 C 34.55,21.23 34.49,21.24 34.44,21.17 A 9.24,9.24 0 0,0 32.59,19.6 C 32.01,19.2 31.72,18.74 31.75,18.19 C 31.77,17.71 31.65,17.67 31.39,18.09 C 31.14,18.49 31.06,18.99 31.15,19.57 C 31.27,20.33 31.97,21.17 33.25,22.07 C 33.41,22.19 33.49,22.35 33.49,22.55 C 33.49,22.75 33.41,22.92 33.24,23.04 C 33.04,23.18 32.79,23.24 32.51,23.24 C 32.19,23.25 31.98,23.14 31.89,22.91 C 31.63,22.29 31.69,21.87 32.06,21.66 C 32.19,21.58 32.21,21.49 32.1,21.38 L 31.84,21.12 C 31.77,21.05 31.68,21.04 31.59,21.1 C 31.11,21.41 30.85,21.83 30.82,22.34 C 30.78,22.87 31,23.31 31.49,23.64 C 31.79,23.84 32.31,23.9 33.07,23.8 C 33.65,23.72 34.1,23.26 34.44,22.42 C 34.54,22.17 34.59,22.18 34.62,22.44 C 34.65,22.78 34.79,23.08 35.02,23.34 C 35.28,23.63 35.72,23.79 36.34,23.83 C 36.99,23.88 37.44,23.76 37.71,23.49 C 38.33,22.85 38.31,22.09 37.65,21.22 C 37.48,21 37.3,20.99 37.1,21.19 L 37,21.29 C 36.84,21.44 36.84,21.59 37,21.74 C 37.3,22.04 37.32,22.39 37.07,22.82 C 36.72,23.4 36.27,23.46 35.7,23 C 35.32,22.7 35.33,22.39 35.73,22.07 L 35.99,21.87 A 5.13,5.13 0 0,0 37.61,20.15 C 37.71,19.9 37.83,19.66 37.98,19.42 C 37.98,19.92 37.86,20.32 37.63,20.6 C 37.53,20.74 37.53,20.87 37.65,21 C 38.03,21.38 38.25,21.79 38.33,22.2 C 38.39,22.59 38.33,22.94 38.13,23.25 C 37.93,23.57 37.65,23.79 37.26,23.93 C 36.86,24.07 36.41,24.09 35.92,23.99 C 35.49,23.91 35.19,23.91 35.02,24.01 C 34.81,24.12 34.69,24.39 34.66,24.81 C 34.64,25.21 34.54,25.23 34.36,24.89 L 34.26,24.57 C 34.11,24 33.77,23.79 33.26,23.93 C 32.54,24.13 31.93,24.1 31.42,23.83 C 30.87,23.53 30.61,23 30.64,22.26 C 30.66,21.73 30.91,21.3 31.38,20.98 C 31.45,20.93 31.47,20.86 31.42,20.78 A 2.79,2.79 0 0,1 30.98,18.86 C 30.98,18.84 30.98,18.82 30.95,18.8 A 0.2,0.2 0 0,0 30.87,18.78 C 30.79,18.77 30.74,18.81 30.74,18.89 C 30.73,19.04 30.66,19.17 30.54,19.3 A 0.35,0.35 0 0,0 30.44,19.56 C 30.44,19.98 30.51,20.39 30.66,20.78 C 30.69,20.86 30.69,20.94 30.67,21.02 L 29.55,25.57 C 29.52,25.67 29.55,25.75 29.65,25.8 C 30.47,26.24 31.15,27.72 31.72,30.23 C 31.78,30.5 31.92,30.65 32.14,30.67 C 32.23,30.67 32.3,30.71 32.34,30.78 L 33.3,32.15 C 33.36,32.25 33.43,32.25 33.5,32.15 L 33.56,32.08 C 33.61,32.02 33.66,32.01 33.72,32.06 L 35.09,33.13 C 35.16,33.18 35.22,33.18 35.29,33.11 L 35.91,32.49 C 35.99,32.42 36.04,32.44 36.08,32.55 L 36.22,32.92 C 36.25,32.98 36.3,33.02 36.36,33.04 C 36.44,33.05 36.49,33.04 36.54,32.99 L 37.94,31.59 C 37.99,31.54 38.04,31.54 38.09,31.59 L 38.17,31.67 C 38.26,31.75 38.32,31.74 38.37,31.63 L 39.12,29.76 C 39.16,29.66 39.22,29.63 39.32,29.65 C 39.42,29.66 39.52,29.72 39.62,29.8 C 39.82,29.93 39.92,30.1 39.92,30.29 C 39.92,30.39 39.87,30.43 39.77,30.4 C 39.65,30.37 39.57,30.31 39.54,30.23 A 0.16,0.16 0 0,0 39.38,30.13 A 0.16,0.16 0 0,0 39.22,30.23 L 38.37,32.33 C 38.34,32.43 38.29,32.43 38.23,32.37 A 0.28,0.28 0 0,1 38.14,32.2 A 0.17,0.17 0 0,0 38.02,32.06 A 0.17,0.17 0 0,0 37.84,32.1 L 36.54,33.41 A 0.23,0.23 0 0,1 36.31,33.48 A 0.23,0.23 0 0,1 36.13,33.32 L 36.01,33.02 C 35.98,32.92 35.92,32.92 35.85,32.98 L 35.41,33.43 C 35.27,33.56 35.14,33.56 35.01,33.43 C 34.68,33.1 34.31,32.83 33.87,32.63 C 33.77,32.57 33.73,32.6 33.73,32.71 V 32.88 C 33.73,32.96 33.69,32.98 33.63,32.96 A 0.18,0.18 0 0,1 33.55,32.9 C 33.14,32.33 32.71,31.76 32.27,31.22 C 32.2,31.13 32.13,31.13 32.05,31.22 L 31.98,31.29 C 31.9,31.39 31.83,31.37 31.78,31.25 L 31.37,30.17 C 31.31,30.02 31.27,30.02 31.24,30.17 C 31.2,30.39 31.19,30.6 31.23,30.78 C 31.57,32.68 31.15,34.9 29.94,37.42 C 29.9,37.52 29.91,37.6 29.97,37.69 A 12.97,12.97 0 0,1 32.14,42.18 C 32.15,42.21 32.14,42.23 32.11,42.25 L 32.02,42.28 C 31.92,42.32 31.87,42.28 31.84,42.18 A 12.64,12.64 0 0,0 29.71,37.81 A 0.48,0.48 0 0,1 29.61,37.55 V 37.42 C 29.61,37.25 29.58,37.12 29.52,37.02 A 31.7,31.7 0 0,0 27.34,33.83 A 13.8,13.8 0 0,0 23.74,30.45 C 22.88,29.9 22.11,29.96 21.44,30.65 C 20.9,31.2 20.67,32.09 20.75,33.3 C 20.83,34.35 21.06,35.24 21.46,35.97 C 21.76,36.51 22.21,36.98 22.81,37.39 C 23.18,37.64 23.77,37.95 24.61,38.33 A 18.28,18.28 0 0,1 30.62,42.69 C 30.64,42.72 30.64,42.75 30.63,42.79 A 0.08,0.08 0 0,1 30.56,42.83 C 30.47,42.83 30.38,42.8 30.28,42.73 A 21.34,21.34 0 0,0 24.38,38.52 C 23.35,38.02 22.64,37.62 22.26,37.32 A 4.22,4.22 0 0,1 20.94,35.55 A 6.8,6.8 0 0,1 20.49,33.14 A 4.41,4.41 0 0,1 21,30.68 C 21.27,30.26 21.56,29.91 21.86,29.64 A 10.3,10.3 0 0,1 23.31,28.61 C 23.83,28.26 24.03,27.68 23.91,26.88 L 24.15,27 C 24.15,27.54 24,28 23.71,28.36 C 23.53,28.58 23.21,28.86 22.72,29.2 C 22.35,29.47 22.07,29.68 21.9,29.84 C 21.87,29.87 21.87,29.9 21.9,29.93 L 21.94,29.99 C 21.96,30.02 21.98,30.03 22.01,30 C 22.39,29.7 22.93,29.74 23.65,30.11 A 11.3,11.3 0 0,1 25.34,31.28 C 25.4,31.33 25.43,31.32 25.4,31.23 A 40.92,40.92 0 0,1 24.67,27.68 A 6.14,6.14 0 0,0 24.33,26.71 A 0.67,0.67 0 0,1 24.57,26.46 C 24.78,26.79 24.9,27.01 24.93,27.14 L 25.62,30.45 C 25.8,31.36 26.25,32.11 26.95,32.69 C 26.98,32.71 27.01,32.71 27.05,32.69 C 27.07,32.69 27.09,32.66 27.09,32.62 C 27.12,30.69 27.49,28.82 28.23,27.03 C 28.29,26.89 28.44,26.65 28.69,26.31 C 28.99,25.92 29.15,25.65 29.19,25.5 C 29.69,23.19 30.09,21.67 30.35,20.95 C 30.39,20.85 30.39,20.77 30.37,20.67 A 5,5 0 0,1 30.25,18.91 C 30.26,18.81 30.31,18.79 30.4,18.81 L 30.5,18.82 C 30.58,18.83 30.64,18.79 30.67,18.71 C 30.87,18.11 31.22,17.64 31.73,17.33 A 0.16,0.16 0 0,1 31.9,17.33 C 31.96,17.36 32,17.41 32,17.48 C 31.95,18.9 32.43,19.54 33.44,19.38 A 6.56,6.56 0 0,1 35.57,19.38 C 36.47,19.53 36.93,18.94 36.96,17.6 C 36.96,17.3 37.09,17.23 37.34,17.4 C 37.77,17.7 38.06,18.08 38.21,18.56 C 38.24,18.65 38.3,18.71 38.38,18.74 L 38.54,18.79 C 38.64,18.82 38.69,18.89 38.71,18.99 C 38.79,19.59 38.75,20.17 38.59,20.75 C 38.56,20.85 38.57,20.93 38.61,21.02 C 38.69,21.19 38.79,21.49 38.89,21.92 L 40.06,26.34 C 40.39,27.59 40.6,29.02 40.68,30.63 C 40.81,33.23 40.32,35.76 39.22,38.2 Z" fill="rgb(1, 26, 84)"/>
<path d="M 38.04,18.695 L 37.98,19.42 A 5.13,5.13 0 0,1 35.98,21.88 L 35.73,22.08 C 35.33,22.38 35.33,22.7 35.7,23 C 36.27,23.46 36.73,23.4 37.07,22.82 C 37.32,22.39 37.3,22.03 37,21.74 C 36.85,21.59 36.85,21.44 37,21.28 L 37.1,21.18 C 37.3,20.98 37.48,21 37.65,21.22 C 38.31,22.1 38.33,22.85 37.71,23.49 C 37.44,23.76 36.99,23.88 36.35,23.83 C 35.72,23.79 35.28,23.63 35.03,23.35 A 1.54,1.54 0 0,1 34.62,22.45 C 34.59,22.18 34.53,22.17 34.44,22.42 C 34.1,23.26 33.64,23.72 33.07,23.8 C 32.31,23.9 31.79,23.84 31.49,23.64 C 31,23.31 30.78,22.87 30.82,22.34 C 30.85,21.83 31.11,21.41 31.59,21.1 C 31.69,21.04 31.77,21.05 31.84,21.12 L 32.1,21.38 C 32.2,21.48 32.2,21.58 32.06,21.66 C 31.69,21.87 31.64,22.29 31.89,22.91 C 31.98,23.14 32.19,23.25 32.51,23.25 C 32.8,23.25 33.04,23.18 33.24,23.04 A 0.56,0.56 0 0,0 33.49,22.56 C 33.49,22.36 33.41,22.19 33.25,22.07 C 31.97,21.17 31.27,20.33 31.15,19.57 C 31.06,18.98 31.15,18.49 31.4,18.08 C 31.65,17.68 31.77,17.71 31.75,18.18 C 31.72,18.74 32.01,19.21 32.59,19.6 C 33.32,20.07 33.93,20.6 34.44,21.17 C 34.5,21.24 34.54,21.23 34.59,21.16 C 34.81,20.79 35.3,20.34 36.06,19.8 L 36.59,19.42 C 36.99,19.12 37.2,18.66 37.24,18.06 C 37.25,17.78 37.34,17.76 37.51,17.98 C 37.61,18.12 37.7,18.3 37.76,18.5 C 37.79,18.59 37.85,18.65 37.92,18.7 C 37.97,18.72 38.02,18.73 38.05,18.71 Z" fill="rgb(92, 186, 68)"/>
<path d="M 35.61,19.855 C 35.12,20.2 34.77,20.5 34.58,20.77 C 34.53,20.85 34.47,20.85 34.41,20.77 A 4.1,4.1 0 0,0 33.37,19.89 C 33.17,19.77 33.18,19.7 33.42,19.7 H 35.57 C 35.77,19.7 35.78,19.76 35.62,19.87 Z" fill="rgb(92, 186, 68)"/>
<path d="M 24.56,26.445 A 0.67,0.67 0 0,0 24.33,26.71 L 24.23,26.64 C 24.13,26.57 24.1,26.59 24.11,26.71 L 24.15,27.01 L 23.91,26.88 C 23.74,26.28 23.41,25.85 22.96,25.59 C 22.68,25.44 22.63,25.5 22.78,25.77 C 22.82,25.84 22.88,25.93 22.99,26.05 L 22.82,26.13 C 22.6,25.76 22.3,25.64 21.92,25.77 C 21.38,25.96 21.38,26.14 21.92,26.33 C 22.02,26.36 22.12,26.53 22.21,26.85 A 0.13,0.13 0 0,0 22.1,26.95 C 21.96,26.65 21.77,26.45 21.53,26.38 A 0.63,0.63 0 0,0 20.95,26.47 A 0.66,0.66 0 0,0 20.65,26.99 C 20.65,27.24 20.75,27.49 20.97,27.72 L 20.9,27.92 C 20.34,27.42 20.24,26.92 20.6,26.45 C 20.89,26.08 21.36,25.79 22.01,25.59 C 22.31,25.5 22.48,25.39 22.55,25.27 C 22.66,25.05 22.55,24.8 22.2,24.54 C 22.35,24.4 22.47,24.39 22.56,24.5 C 22.8,24.8 23.13,25.15 23.54,25.56 C 23.61,25.63 23.64,25.62 23.61,25.52 C 23.56,25.32 23.33,25 22.92,24.55 A 7.19,7.19 0 0,1 22.63,24.23 C 22.45,24 22.29,24.02 22.15,24.27 C 22.02,24.53 21.69,24.75 21.17,24.95 L 19.79,25.67 A 0.17,0.17 0 0,1 19.59,25.66 A 0.16,0.16 0 0,1 19.53,25.49 A 0.53,0.53 0 0,1 19.68,25.24 L 19.86,24.87 C 20.26,24.03 20.63,23.56 20.98,23.44 C 21.13,23.39 21.12,23.36 20.97,23.35 C 20.56,23.32 20.15,23.81 19.73,24.83 C 19.7,24.92 19.63,24.95 19.55,24.93 C 19.41,24.79 19.28,24.8 19.15,24.96 A 0.4,0.4 0 0,0 19.07,25.24 L 18.92,25.37 L 18.13,25.14 C 17.78,25.04 17.61,25.17 17.61,25.53 V 28.21 C 17.61,28.31 17.58,28.41 17.51,28.48 C 17.17,28.98 16.69,29.3 16.08,29.45 C 15.98,29.47 15.94,29.43 15.98,29.34 C 16.55,27.87 16.76,26.36 16.6,24.79 A 0.17,0.17 0 0,0 16.46,24.64 C 16.3,24.6 16.21,24.57 16.2,24.54 C 16.16,24.45 16.2,24.38 16.29,24.31 L 20.62,21.32 C 20.72,21.25 20.83,21.23 20.95,21.27 L 27.39,23.36 C 27.43,23.36 27.45,23.39 27.45,23.43 C 27.45,23.47 27.45,23.5 27.41,23.53 L 24.28,25.69 C 24.19,25.75 24.18,25.82 24.23,25.92 L 24.57,26.46 Z" fill="rgb(5, 54, 93)"/>
<path d="M 32.52,22.645 C 32.67,22.68 32.79,22.58 32.91,22.35 C 32.95,22.26 33.01,22.24 33.1,22.28 L 33.2,22.32 A 0.2,0.2 0 0,1 33.33,22.47 A 0.2,0.2 0 0,1 33.29,22.65 C 33.01,22.96 32.74,23.09 32.48,23.05 C 32.21,23 32,22.78 31.86,22.39 A 0.2,0.2 0 0,1 31.88,22.19 A 0.2,0.2 0 0,1 32.06,22.11 H 32.16 C 32.26,22.11 32.32,22.15 32.32,22.24 C 32.35,22.5 32.42,22.64 32.52,22.66 Z M 36.47,23.05 C 36.21,23.1 35.94,22.97 35.67,22.65 A 0.2,0.2 0 0,1 35.62,22.47 A 0.2,0.2 0 0,1 35.75,22.32 L 35.85,22.28 C 35.95,22.24 36.01,22.27 36.05,22.35 C 36.15,22.58 36.28,22.69 36.42,22.66 C 36.54,22.64 36.61,22.51 36.63,22.26 C 36.64,22.16 36.69,22.11 36.79,22.11 H 36.9 A 0.2,0.2 0 0,1 37.07,22.21 A 0.2,0.2 0 0,1 37.09,22.41 C 36.95,22.79 36.74,23.01 36.47,23.05 Z" fill="rgb(239, 242, 248)"/>
<path d="M 22.189999999999998,24.525 C 22.55,24.8 22.66,25.04 22.55,25.27 C 22.49,25.4 22.31,25.5 22.02,25.59 C 21.36,25.79 20.89,26.08 20.6,26.45 C 20.24,26.93 20.34,27.42 20.9,27.92 C 21.86,28.06 22.3,27.7 22.2,26.85 C 22.11,26.54 22.02,26.36 21.92,26.33 C 21.38,26.14 21.38,25.96 21.92,25.77 C 22.3,25.64 22.6,25.77 22.82,26.13 C 23.25,27.02 23.13,27.73 22.46,28.27 A 0.46,0.46 0 0,1 22.2,28.37 A 5.58,5.58 0 0,1 20.38,28.19 C 20.15,28.13 19.9,27.89 19.62,27.49 C 19.56,27.4 19.49,27.39 19.4,27.45 C 19.25,27.56 19.14,27.77 19.08,28.05 C 19.01,28.38 18.86,28.58 18.64,28.65 A 0.26,0.26 0 0,1 18.38,28.6 C 18.03,28.3 18.01,27.97 18.31,27.64 L 18.4,27.8 C 18.34,27.92 18.4,28 18.55,28.07 C 18.65,28.11 18.72,28.07 18.75,27.97 A 0.6,0.6 0 0,0 18.73,27.73 L 18.78,27.69 C 19.12,27.39 19.19,27.2 19,27.14 C 19.02,27.05 19.02,26.98 18.98,26.92 A 0.17,0.17 0 0,0 19.03,26.83 C 19.04,26.75 19,26.7 18.93,26.69 A 0.38,0.38 0 0,0 18.6,26.79 C 18.48,26.9 18.44,26.88 18.46,26.72 L 18.52,26.36 A 0.5,0.5 0 0,1 18.65,26.1 L 19.51,25.15 C 19.57,25.2 19.62,25.23 19.68,25.25 A 0.53,0.53 0 0,0 19.53,25.49 C 19.52,25.56 19.54,25.62 19.6,25.66 C 19.66,25.7 19.72,25.71 19.79,25.67 L 21.17,24.95 C 21.5,24.99 21.84,24.85 22.2,24.54 Z M 17.03,24.76 C 17.31,24.74 17.47,24.79 17.51,24.89 C 17.54,25.01 17.51,25.1 17.42,25.19 C 17.32,25.26 17.22,25.27 17.12,25.21 C 17,25.14 16.94,25.02 16.94,24.85 C 16.94,24.79 16.96,24.75 17.03,24.75 Z M 19.55,24.93 C 19.4,24.97 19.25,25.08 19.07,25.24 A 0.4,0.4 0 0,1 19.15,24.96 C 19.28,24.8 19.41,24.79 19.55,24.93 Z" fill="rgb(92, 186, 68)"/>
<path d="M 19.54,24.915 L 19.51,25.15 L 18.65,26.1 A 0.5,0.5 0 0,0 18.52,26.36 L 18.46,26.72 C 18.44,26.88 18.48,26.9 18.6,26.8 C 18.7,26.71 18.8,26.68 18.92,26.7 C 19,26.7 19.04,26.75 19.03,26.83 C 19.03,26.86 19.01,26.89 18.98,26.93 C 18.78,26.92 18.68,26.98 18.66,27.12 C 18.66,27.17 18.62,27.2 18.56,27.19 A 0.21,0.21 0 0,1 18.46,27.16 C 18.38,27.11 18.34,27.13 18.33,27.23 L 18.31,27.64 C 18.01,27.97 18.03,28.29 18.38,28.6 C 18.45,28.67 18.54,28.69 18.64,28.66 C 18.86,28.58 19.01,28.38 19.08,28.06 C 19.14,27.76 19.25,27.56 19.4,27.46 C 19.49,27.39 19.56,27.4 19.62,27.49 C 19.9,27.89 20.15,28.13 20.37,28.19 C 20.96,28.35 21.57,28.41 22.2,28.37 C 22.3,28.37 22.39,28.33 22.46,28.27 C 23.13,27.73 23.25,27.02 22.82,26.13 L 22.99,26.05 C 23.43,27.08 23.32,27.82 22.69,28.26 C 22.09,28.66 21.32,28.71 20.36,28.39 A 0.66,0.66 0 0,0 19.83,28.45 A 0.86,0.86 0 0,0 19.43,28.89 L 19.4,29.01 C 19.36,29.17 19.35,29.17 19.35,29.01 S 19.21,28.75 18.92,28.73 A 0.61,0.61 0 0,0 18.56,28.8 C 18.46,28.85 18.44,28.93 18.48,29.03 C 18.61,29.38 18.65,29.69 18.6,29.96 C 18.56,30.12 18.45,30.34 18.27,30.63 C 18.08,30.93 17.95,31.2 17.87,31.41 A 7.24,7.24 0 0,0 19.23,38.93 A 13.6,13.6 0 0,0 22.34,41.63 L 21.98,41.83 A 11.01,11.01 0 0,1 18.46,38.83 A 7.64,7.64 0 0,1 16.99,34.45 A 6.88,6.88 0 0,1 18.19,30.03 A 0.36,0.36 0 0,0 18.25,29.76 C 18.19,29.24 18.05,28.76 17.8,28.32 C 17.67,28.09 17.74,27.65 18,27.01 C 18.13,26.69 18.2,26.46 18.22,26.33 C 18.25,26.1 18.46,25.8 18.86,25.43 L 18.92,25.37 L 19.07,25.24 C 19.24,25.08 19.41,24.97 19.55,24.94 Z" fill="rgb(1, 26, 84)"/>
<path d="M 17.25,25.525 C 17.21,26.37 17.2,27.14 17.24,27.88 C 17.26,28.18 17.08,28.51 16.71,28.89 C 16.67,28.93 16.64,28.93 16.6,28.91 C 16.56,28.89 16.54,28.86 16.55,28.81 L 17.09,25.54 C 17.1,25.51 17.12,25.5 17.14,25.5 H 17.22 C 17.25,25.5 17.26,25.51 17.26,25.54 Z" fill="rgb(92, 186, 68)"/>
<path d="M 34.47,26.185 C 34.6,26.2 34.74,26.22 34.9,26.27 C 35,26.29 35.09,26.29 35.18,26.26 L 36.83,25.64 C 36.87,25.62 36.92,25.63 36.96,25.66 C 37,25.7 37.01,25.74 37,25.79 C 36.88,26.25 36.82,26.6 36.82,26.84 C 36.82,27.09 36.88,27.44 37,27.89 C 37.01,27.94 37,27.99 36.96,28.02 A 0.13,0.13 0 0,1 36.82,28.05 L 35.18,27.43 A 0.42,0.42 0 0,0 34.9,27.42 C 34.74,27.47 34.6,27.49 34.48,27.49 S 34.22,27.47 34.06,27.42 A 0.42,0.42 0 0,0 33.78,27.42 L 32.14,28.05 A 0.13,0.13 0 0,1 32,28.02 A 0.12,0.12 0 0,1 31.96,27.89 C 32.08,27.43 32.14,27.09 32.14,26.84 C 32.14,26.6 32.08,26.24 31.96,25.79 C 31.95,25.74 31.96,25.69 32,25.66 A 0.12,0.12 0 0,1 32.14,25.63 L 33.78,26.25 C 33.88,26.29 33.96,26.29 34.06,26.27 C 34.22,26.22 34.36,26.19 34.48,26.19 Z" fill="rgb(5, 54, 93)"/>
<path d="M 19.79,26.015 L 19.95,25.93 C 19.99,25.91 19.99,25.92 19.98,25.95 A 0.33,0.33 0 0,0 19.95,26.02 C 19.95,26.03 19.95,26.04 19.93,26.05 C 19.78,26.13 19.66,26.23 19.55,26.35 C 19.48,26.43 19.43,26.43 19.41,26.35 L 19.42,26.27 C 19.42,26.24 19.44,26.21 19.47,26.19 L 19.62,26.13 A 0.77,0.77 0 0,0 19.81,26.03 Z" fill="rgb(1, 26, 84)"/>
<path d="M 29.759999999999998,36.805 L 27.46,33.5 A 0.31,0.31 0 0,1 27.4,33.31 C 27.48,30.03 28.04,27.71 29.1,26.38 C 29.42,25.96 29.72,25.98 30,26.43 C 30.4,27.1 30.69,27.86 30.85,28.7 C 31.27,30.9 31.15,33.15 30.49,35.41 C 30.27,36.18 30.09,36.65 29.95,36.82 C 29.88,36.9 29.82,36.9 29.77,36.82 Z M 24.33,26.7 C 24.53,27.2 24.65,27.53 24.67,27.68 C 24.88,28.98 25.13,30.16 25.4,31.23 C 25.43,31.32 25.4,31.33 25.34,31.28 L 25.3,31.25 A 11.3,11.3 0 0,0 23.65,30.11 C 22.93,29.74 22.39,29.71 22.01,30.01 C 21.98,30.03 21.96,30.02 21.94,29.99 L 21.89,29.93 C 21.87,29.9 21.87,29.87 21.9,29.84 C 22.07,29.68 22.35,29.47 22.72,29.2 C 23.2,28.86 23.53,28.58 23.71,28.36 C 24,27.99 24.15,27.54 24.15,27 L 24.11,26.71 C 24.1,26.59 24.14,26.57 24.23,26.64 L 24.33,26.71 Z M 33.99,26.86 C 33.69,26.93 33.5,26.91 33.44,26.78 C 33.4,26.68 33.42,26.65 33.52,26.65 C 33.74,26.65 33.9,26.69 34.01,26.75 C 34.1,26.8 34.09,26.84 33.99,26.86 Z" fill="rgb(92, 186, 68)"/>
<path d="M 35.550000000000004,26.745 C 35.39,26.88 35.22,26.91 35.06,26.85 C 34.96,26.81 34.96,26.77 35.06,26.73 A 0.7,0.7 0 0,1 35.55,26.69 C 35.6,26.71 35.6,26.73 35.56,26.76 Z" fill="rgb(239, 242, 248)"/>
<path d="M 21.27,27.305 A 0.27,0.27 0 1,0 21.28,26.78 A 0.27,0.27 0 0,0 21.28,27.32 Z M 22.2,26.85 C 22.3,27.7 21.86,28.06 20.9,27.92 L 20.97,27.72 C 21.27,27.85 21.54,27.83 21.77,27.67 C 22.02,27.51 22.13,27.27 22.1,26.95 C 22.12,26.89 22.15,26.85 22.2,26.85 Z M 19,27.14 C 19.2,27.2 19.12,27.39 18.78,27.69 C 18.56,27.39 18.63,27.21 19,27.14 Z" fill="rgb(1, 26, 84)"/>
<path d="M 18.72,27.715 C 18.75,27.83 18.76,27.9 18.74,27.97 C 18.72,28.07 18.65,28.11 18.55,28.07 C 18.39,28 18.34,27.92 18.4,27.8 L 18.73,27.73 Z M 19.44,31.28 C 19.54,32.44 19.66,33.61 19.79,34.78 C 19.85,35.29 19.73,35.81 19.44,36.33 L 19.24,36.73 C 19.19,36.83 19.12,36.83 19.04,36.76 A 2.5,2.5 0 0,1 18.32,34.48 C 18.46,33.47 18.65,32.44 18.89,31.42 C 18.95,31.12 18.99,30.74 18.97,30.25 C 18.97,30.15 19.02,30.08 19.11,30.04 C 19.31,29.94 19.59,29.9 19.95,29.92 C 20.06,29.93 20.09,29.99 20.03,30.09 L 19.5,31.01 A 0.44,0.44 0 0,0 19.44,31.28 Z" fill="rgb(5, 54, 93)"/>
</svg>
