<?xml version="1.0" encoding="UTF-8"?>
<!-- generated by Finnhub -->
<svg viewBox="0 0 55.5 55.5" xmlns="http://www.w3.org/2000/svg">
<path d="M 0,0 H 55.5 V 55.5 H 0 Z" fill="rgb(239, 242, 248)"/>
<path d="M 24.99,12.815 L 28,9 L 31,12.83 L 28,22 L 25,12.83 Z M 24.77,15.04 L 21,13 L 21.63,17.6 L 27,23 L 24.77,15.04 Z M 31.23,15.04 L 35,13 L 34.37,17.6 L 29,23 L 31.23,15.04 Z" fill="rgb(1, 177, 18)"/>
<path d="M 22.99,20.985 L 27,25 L 23,29 L 19,25 L 23,21 Z M 33,21 L 37,25 L 33,29 L 29,25 L 33,21 Z M 23,31 L 27,35 L 23,39 L 19,35 L 23,31 Z M 33,31 L 37,35 L 33,39 L 29,35 L 33,31 Z M 28,26 L 32,30 L 28,34 L 24,30 L 28,26 Z M 19.5,27 L 22,29.5 L 19.5,32 L 17,29.5 L 19.5,27 Z M 18,36 L 20,38 L 18,40 L 16,38 L 18,36 Z M 22,40 L 24,42 L 22,44 L 20,42 L 22,40 Z M 34,40 L 36,42 L 34,44 L 32,42 L 34,40 Z M 31,43 L 33,45 L 31,47 L 29,45 L 31,43 Z M 25,43 L 27,45 L 25,47 L 23,45 L 25,43 Z M 37.9,35.9 L 40,38.02 L 37.9,40.12 L 35.78,38.02 L 37.89,35.91 Z M 36.5,27 L 39,29.5 L 36.5,32 L 34,29.5 L 36.5,27 Z M 28,36 L 32,40 L 28,44 L 24,40 L 28,36 Z" fill="rgb(242, 194, 53)"/>
</svg>
