<?xml version="1.0" encoding="UTF-8"?>
<!-- generated by Finnhub -->
<svg viewBox="0 0 55.5 55.5" xmlns="http://www.w3.org/2000/svg">
<path d="M 0,0 H 55.5 V 55.5 H 0 Z" fill="rgb(35, 56, 118)"/>
<path d="M 4.15,29.785 L 4,29.84 V 31.26 C 4.32,31.5 5.26,32 6.5,32 C 8.04,32 9,31.06 9,29.9 C 9,28.85 7.97,28.42 7.48,28.21 L 7.35,28.15 A 4.28,4.28 0 0,0 7.03,28.04 C 6.33,27.8 4.91,27.32 4.91,26.39 C 4.91,25.99 5.19,25.2 6.38,25.2 C 7.56,25.2 8.36,26.23 8.6,26.74 L 8.72,26.69 V 25.43 A 4.9,4.9 0 0,0 6.77,25 C 5.7,25 4.12,25.44 4.12,27.09 C 4.12,27.5 4.5,28.38 5.91,28.8 C 7.63,29.32 8.14,30.03 8.14,30.58 C 8.14,31.56 7.2,31.78 6.73,31.76 C 5.23,31.76 4.39,30.46 4.16,29.8 Z M 39.7,29.8 L 39.53,29.84 V 31.26 C 39.85,31.5 40.8,32 42.03,32 C 43.59,32 44.55,31.06 44.55,29.9 C 44.55,28.85 43.52,28.42 43.03,28.21 L 42.89,28.15 L 42.58,28.04 C 41.88,27.8 40.45,27.32 40.45,26.39 C 40.45,25.99 40.73,25.2 41.92,25.2 C 43.12,25.2 43.91,26.23 44.16,26.74 L 44.27,26.69 V 25.43 C 43.98,25.29 43.17,25 42.32,25 C 41.24,25 39.65,25.44 39.65,27.09 C 39.65,27.5 40.03,28.38 41.45,28.8 C 43.18,29.32 43.69,30.03 43.69,30.58 C 43.69,31.56 42.74,31.78 42.27,31.76 C 40.76,31.76 39.92,30.46 39.7,29.8 Z M 11,25 H 12.94 V 25.15 C 12.8,25.19 12.53,25.36 12.53,25.75 V 29.68 A 2.1,2.1 0 0,0 14.67,31.73 A 2.22,2.22 0 0,0 16.8,29.53 V 26.16 C 16.8,25.88 16.64,25.29 16,25.15 V 25 H 17.41 V 25.15 C 17.27,25.17 17,25.4 17,26.1 V 29.6 C 17,30.84 15.93,32 14.63,32 H 14.03 A 2.57,2.57 0 0,1 11.42,29.49 V 25.76 C 11.42,25.6 11.34,25.26 11,25.15 V 25 Z M 19.56,32 V 31.82 C 19.96,31.72 20.03,31.06 20,30.73 V 25.98 C 20,25.4 19.63,25.19 19.45,25.16 V 25 H 20.64 L 24.79,30.2 V 25.98 C 24.79,25.54 24.33,25.25 24.09,25.16 V 25 H 25.48 V 25.16 A 0.77,0.77 0 0,0 25,25.89 V 32 H 24.88 L 20.2,26.2 V 30.73 C 20.2,31.45 20.7,31.76 20.94,31.82 V 32 H 19.56 Z M 27.59,32 V 31.82 A 0.52,0.52 0 0,0 28,31.31 V 25.81 C 28,25.35 27.73,25.18 27.59,25.14 V 25 H 29.97 C 32.01,25 32.45,25.98 32.42,26.47 C 32.42,27.94 31.12,28.34 30.48,28.35 C 31.38,28.38 31.87,29.11 31.99,29.47 C 32.21,29.96 32.69,31.02 32.79,31.35 C 32.91,31.67 33.12,31.8 33.21,31.82 H 33.51 V 32 H 32.5 C 32.06,32 31.75,31.56 31.65,31.35 L 30.59,28.92 A 0.93,0.93 0 0,0 29.75,28.42 H 29 V 31.31 C 29,31.64 29.37,31.79 29.5,31.82 V 32 H 27.59 Z M 29,28.23 V 25.2 C 29.74,25.1 31.31,25.27 31.31,26.8 C 31.31,28 30.3,28.24 29.79,28.22 H 29 Z M 37.38,32 H 35.58 V 31.84 C 35.91,31.74 36.01,31.34 36,31.15 V 25.85 C 36,25.4 35.7,25.22 35.58,25.18 V 25 H 37.38 V 25.18 C 37.05,25.27 36.99,25.66 37,25.84 V 31.15 C 37,31.61 37.25,31.8 37.38,31.84 V 32 Z M 52,32 H 46.7 V 31.8 C 47.03,31.74 47.01,31.37 47,31.18 V 25.76 C 47,25.3 46.83,25.2 46.7,25.2 V 25 H 51.62 L 51.74,26.46 H 51.55 C 51.19,25.38 50.13,25.17 49.64,25.2 H 48 V 28 H 49.55 C 49.9,28 50.62,27.85 50.74,27.24 H 51 V 28.93 H 50.74 C 50.67,28.68 50.34,28.18 49.55,28.18 H 48 V 31.38 C 48,31.62 48.4,31.81 48.64,31.81 H 49.99 C 51.09,31.81 51.61,30.91 51.74,30.47 L 52,30.52 V 32 Z" fill="rgb(254, 254, 253)" fill-rule="evenodd"/>
<path d="M 36.6,17.085 L 36.91,21.03 L 37.71,18.61 C 37.73,18.55 37.78,18.52 37.82,18.54 C 37.86,18.55 37.89,18.6 37.88,18.65 L 37.37,21.27 L 39.51,17.82 A 0.1,0.1 0 0,1 39.65,17.79 A 0.1,0.1 0 0,1 39.69,17.92 L 38.03,21.65 L 39.93,19.82 C 39.96,19.79 40.02,19.78 40.05,19.82 C 40.08,19.85 40.08,19.91 40.05,19.95 L 38.4,22 L 41.84,20.11 A 0.1,0.1 0 0,1 41.98,20.16 A 0.1,0.1 0 0,1 41.95,20.29 L 38.78,22.68 L 41.32,22.03 C 41.37,22.01 41.42,22.04 41.44,22.09 C 41.44,22.14 41.42,22.19 41.37,22.21 L 38.98,23.19 L 42.9,23.34 C 42.96,23.34 43,23.39 43,23.44 A 0.1,0.1 0 0,1 42.91,23.54 L 38.95,23.99 L 38.96,23.69 C 38.96,22.26 37.86,21.1 36.5,21.1 A 2.53,2.53 0 0,0 34.05,24 L 30.09,23.56 A 0.1,0.1 0 0,1 30,23.46 C 30,23.4 30.04,23.35 30.1,23.35 L 34.02,23.2 L 31.62,22.22 C 31.58,22.2 31.55,22.15 31.56,22.1 C 31.58,22.05 31.63,22.02 31.68,22.04 L 34.22,22.69 L 31.05,20.3 A 0.1,0.1 0 0,1 31.02,20.17 A 0.1,0.1 0 0,1 31.16,20.12 L 34.6,22.02 L 32.95,19.95 C 32.92,19.91 32.92,19.85 32.95,19.82 C 32.98,19.78 33.04,19.79 33.08,19.82 L 34.97,21.65 L 33.31,17.92 A 0.1,0.1 0 0,1 33.35,17.79 A 0.1,0.1 0 0,1 33.49,17.82 L 35.63,21.27 L 35.13,18.65 C 35.11,18.6 35.13,18.55 35.18,18.54 C 35.22,18.52 35.28,18.55 35.29,18.61 L 36.09,21.05 L 36.41,17.1 C 36.41,17.05 36.46,17 36.51,17 S 36.61,17.04 36.61,17.1 Z" fill="rgb(250, 174, 82)"/>
</svg>
