<?xml version="1.0" encoding="UTF-8"?>
<!-- generated by Finnhub -->
<svg viewBox="0 0 55.5 55.5" xmlns="http://www.w3.org/2000/svg">
<path d="M 0,0 H 55.5 V 55.5 H 0 Z" fill="rgb(1, 178, 88)"/>
<path d="M 42.525,20.038999999999998 A 28.875,28.875 0 0,1 39.321,27.287 C 34.851,34.474 27.796,38.765 22.663,41.098 A 50.966,50.966 0 0,1 18.073,42.925 V 42.946 C 22.265,42.866 26.043,42.207 29.335,40.98 C 33.069,39.587 36.111,37.492 38.375,34.757 C 41.701,30.741 43.147,25.588 42.548,20.053 L 42.535,20.054 Z M 16.262,23.418 C 13.41,27.011 12.442,32.35 13.304,39.748 C 13.369,40.436 13.446,40.996 13.508,41.388 L 13.542,41.411 C 16.65,39.877 28.777,32.911 28.722,17.735 L 28.693,17.709 C 22.894,18.323 18.823,20.192 16.262,23.419 Z" fill="rgb(254, 254, 253)"/>
<path d="M 30.267999999999997,17.455 L 30.255,17.525 C 30.404,20.059 30.244,21.471 29.775,23.822 C 28.931,28.042 27.102,31.963 24.337,35.477 A 32.198,32.198 0 0,1 20.373,39.658 L 20.378,39.672 C 26.548,37.402 33.943,33.361 38.492,26.299 C 42.986,19.323 42.368,16.424 41.888,14.015 L 41.875,14.011 C 39.219,16.065 34.5,16.811 30.278,17.47 Z" fill="rgb(254, 254, 253)"/>
</svg>
