<?xml version="1.0" encoding="UTF-8"?>
<!-- generated by Finnhub -->
<svg viewBox="0 0 55.5 55.5" xmlns="http://www.w3.org/2000/svg">
<path d="M 0,0 H 55.5 V 55.5 H 0 Z" fill="rgb(239, 242, 248)"/>
<path d="M 6.0200000000000005,24.985 C 7.64,24.97 7.92,26.16 7.85,26.77 H 6.33 C 6.37,26.53 6.35,26.07 6.03,26.05 C 5.7,26.04 5.63,26.33 5.63,26.48 C 5.61,27.02 6.3,27.31 6.64,27.39 C 7.94,27.91 8,28.91 8,29.15 C 8,29.44 8.04,31 6.03,31 C 4.15,31 3.95,29.8 4.01,29.15 H 5.56 V 29.44 C 5.58,29.87 5.81,29.93 5.98,29.93 C 6.15,29.93 6.33,29.77 6.33,29.36 C 6.33,29.24 6.38,28.96 5.34,28.52 C 4.19,28.03 4.06,27.26 4.06,26.87 C 4.06,26.47 4.01,25.05 6.03,25 Z M 11.78,25 H 8 V 26.43 H 9.1 V 31 H 10.68 V 26.43 H 11.78 V 25 Z" fill="rgb(2, 18, 48)"/>
<path d="M 15.71,26.265 C 15.79,26.78 15.9,28.16 15.72,29.62 C 15.66,30.05 15.3,30.92 14.39,30.98 A 4.52,4.52 0 0,1 12.81,30.89 C 12.55,30.81 12.02,30.45 11.96,29.62 C 11.9,29 11.82,27.46 11.96,26.28 C 12.02,25.88 12.36,25.08 13.21,25.03 A 6.89,6.89 0 0,1 14.51,25.03 C 14.85,25.05 15.56,25.33 15.72,26.28 Z M 14.22,26.85 C 14.24,27.19 14.26,28.1 14.22,29.08 C 14.22,29.36 14.14,29.94 13.96,29.98 C 13.77,30.03 13.66,29.96 13.64,29.93 C 13.59,29.87 13.48,29.63 13.47,29.08 C 13.46,28.67 13.44,27.64 13.47,26.85 C 13.48,26.59 13.55,26.05 13.72,26.02 C 13.89,25.99 13.97,26 13.98,26.02 C 14.05,26.03 14.2,26.22 14.23,26.85 Z" fill="rgb(2, 18, 48)" fill-rule="evenodd"/>
<path d="M 30.58,24.985 H 29 V 31 H 32.44 V 29.58 H 30.59 V 28.71 H 32.34 V 27.29 H 30.6 V 26.42 H 32.45 V 25 H 30.6 Z" fill="rgb(2, 18, 48)"/>
<path d="M 46.99,24.985 H 45.42 V 31 H 48.85 V 29.58 H 47 V 25 Z M 52,25 H 48.24 V 26.42 H 49.32 V 31 H 50.92 V 26.42 H 52 V 25 Z" fill="rgb(225, 1, 43)"/>
<path d="M 15.99,24.985 H 18.79 C 19.44,25 19.99,25.54 19.99,26.2 V 26.93 C 19.99,27.46 19.64,27.91 19.17,28.07 C 19.81,28.25 19.96,28.94 19.94,29.31 V 30.18 C 19.94,30.68 20.11,30.88 20.19,30.91 V 31 H 18.47 C 18.32,30.87 18.29,29.67 18.31,29.16 C 18.32,28.76 18.08,28.65 17.95,28.65 H 17.59 V 31 H 16 V 25 Z M 17.59,27.56 V 26.19 H 17.72 A 0.68,0.68 0 1,1 17.72,27.56 H 17.59 Z M 20.23,31 L 21.6,25 H 23.59 L 24.96,31 H 23.3 L 23.11,30 H 22.05 L 21.89,31 H 20.23 Z M 22.21,28.76 L 22.57,26.34 L 22.95,28.76 H 22.21 Z" fill="rgb(2, 18, 48)" fill-rule="evenodd"/>
<path d="M 36.370000000000005,30.985 L 37.75,25 H 39.73 L 41.11,31 H 39.44 L 39.26,30 H 38.2 L 38.03,31 H 36.38 Z M 38.35,28.76 L 38.72,26.34 L 39.09,28.76 H 38.35 Z" fill="rgb(225, 1, 43)" fill-rule="evenodd"/>
<path d="M 27.24,28.765 H 26.79 V 27.67 H 28.78 V 31 H 27.65 V 30.9 L 27.62,30.4 C 27.52,30.75 27.42,30.87 26.94,31 A 3.72,3.72 0 0,1 25.76,30.9 C 25.5,30.81 24.97,30.45 24.91,29.62 C 24.85,29 24.77,27.46 24.91,26.28 C 24.97,25.88 25.31,25.08 26.16,25.03 A 6.89,6.89 0 0,1 27.46,25.03 C 27.8,25.05 28.51,25.33 28.67,26.28 L 28.73,26.87 H 27.24 V 26.85 C 27.21,26.22 27.05,26.03 26.98,26.02 C 26.96,26 26.88,25.99 26.69,26.02 C 26.51,26.05 26.43,26.59 26.42,26.85 C 26.39,27.64 26.41,28.67 26.42,29.08 C 26.43,29.63 26.55,29.88 26.61,29.93 C 26.64,29.96 26.75,30.03 26.95,29.99 C 27.15,29.94 27.23,29.36 27.25,29.09 V 28.78 Z" fill="rgb(2, 18, 48)"/>
<path d="M 33.830000000000005,30.985 L 32.64,25 H 34.36 L 34.89,29.6 L 35.41,25 H 37.11 L 35.89,31 H 33.84 Z M 42.6,25 H 41 V 29.3 C 41,30.24 41.76,31 42.7,31 H 43.3 C 44.24,31 45,30.24 45,29.3 V 25 H 43.4 V 29.5 A 0.4,0.4 0 1,1 42.6,29.5 V 25 Z" fill="rgb(225, 1, 43)"/>
</svg>
