<?xml version="1.0" encoding="UTF-8"?>
<!-- generated by Finnhub -->
<svg viewBox="0 0 55.5 55.5" xmlns="http://www.w3.org/2000/svg">
<path d="M 0,0 H 55.5 V 55.5 H 0 Z" fill="rgb(239, 242, 248)"/>
<path d="M 20.91,13.235 C 19.35,15.65 18.28,18.22 18.5,20.72 C 18.75,23.53 21.93,25.58 25.02,27.56 C 28.05,29.51 31,31.4 31,33.92 C 31,37.97 25.47,40.73 21.04,42.45 A 16.27,16.27 0 0,1 12,27.82 C 12,21.43 15.64,15.9 20.92,13.25 Z" fill="rgb(1, 111, 190)"/>
<path d="M 31.63,11.985 C 27.92,13.5 24,15.84 24,18.69 C 24,21.04 26.69,22.74 29.62,24.59 C 33.02,26.74 36.73,29.09 37,32.9 C 37.29,37 33.27,41.17 29.5,44 A 16.15,16.15 0 0,0 44,27.82 A 16.2,16.2 0 0,0 31.64,12 Z" fill="rgb(1, 175, 78)"/>
</svg>
