<?xml version="1.0" encoding="UTF-8"?>
<!-- generated by Finnhub -->
<svg viewBox="0 0 55.5 55.5" xmlns="http://www.w3.org/2000/svg">
<path d="M 0,0 H 55.5 V 55.5 H 0 Z" fill="rgb(239, 242, 248)"/>
<path d="M 20.99,22.705 L 19.46,21.17 L 13.66,26.97 L 15.19,28.52 L 20.99,22.72 Z M 22.9,24.53 L 24.43,26.07 L 15.01,35.49 L 13.47,33.95 L 22.89,24.53 Z M 26.34,28.05 L 27.89,29.59 L 15.78,41.7 L 14.23,40.16 L 26.34,28.05 Z" fill="url(#b)"/>
<path d="M 12.99,12.985 H 43 V 43 H 13 V 13 Z M 16.38,15 H 20.36 L 41,35.64 V 39.62 L 16.38,15 Z M 41,32.56 L 23.44,15 H 27.3 L 41,28.7 V 32.56 Z M 41,25.62 L 30.38,15 H 34.05 L 41,21.95 V 25.62 Z M 41,18.87 L 37.13,15 H 41 V 18.87 Z M 15,16.7 V 41 H 18.93 L 17.61,39.68 L 19.15,38.14 L 22.01,41 H 25.61 L 21,36.39 L 22.54,34.85 L 28.69,41 H 32.52 L 24.42,32.9 L 25.96,31.36 L 35.6,41 H 39.3 L 15,16.7 Z" fill="url(#a)" fill-rule="evenodd"/>
<defs>
<linearGradient id="b" x1="16.22" x2="23.88" y1="24.8" y2="31.44" gradientUnits="userSpaceOnUse">
<stop stop-color="rgb(232, 198, 96)" offset="0"/>
<stop stop-color="rgb(250, 229, 110)" offset="1"/>
</linearGradient>
<linearGradient id="a" x1="14.46" x2="43" y1="14.4" y2="41.37" gradientUnits="userSpaceOnUse">
<stop stop-color="rgb(186, 187, 188)" offset="0"/>
<stop stop-color="rgb(225, 226, 227)" offset=".29"/>
<stop stop-color="rgb(154, 155, 156)" offset=".79"/>
</linearGradient>
</defs>
</svg>
