<?xml version="1.0" encoding="UTF-8"?>
<!-- generated by Finnhub -->
<svg viewBox="0 0 55.5 55.5" xmlns="http://www.w3.org/2000/svg">
<path d="M 0,0 H 55.5 V 55.5 H 0 Z" fill="rgb(239, 242, 248)"/>
<path d="M 39.99,18.985 L 34,23.06 L 32,37 L 40,19 Z" fill="rgb(1, 69, 133)"/>
<path d="M 41.99,23.044999999999998 L 48,19 L 40,37 L 41.34,27.7 L 41.19,28.09 L 35,30 L 41.55,26.26 L 42.01,23.06 Z M 21.07,23.19 L 22,19 C 12.87,20.55 10.22,22.96 10.22,25.19 C 10.22,27.42 13.87,28.43 13.87,29.64 C 13.87,31.21 9.96,35.2 8,37 A 255.3,255.3 0 0,0 15.09,31.8 C 16.38,30.74 16.84,30.13 16.84,29.11 C 16.84,27.08 13.98,26.36 13.98,25 C 13.98,23.73 18.71,23.26 21.07,23.19 Z M 25.02,37 L 23,20.32 L 26.67,27.6 L 34,19 L 25.02,37 Z" fill="rgb(1, 69, 133)"/>
</svg>
