<?xml version="1.0" encoding="UTF-8"?>
<!-- generated by Finnhub -->
<svg viewBox="0 0 55.5 55.5" xmlns="http://www.w3.org/2000/svg">
<path d="M 0,0 H 55.5 V 55.5 H 0 Z" fill="rgb(23, 26, 28)"/>
<path d="M 27.99,17.985 A 10,10 0 1,0 27.98,37.98 A 10,10 0 0,0 28.01,18.01 L 28,18 Z" fill="rgb(254, 254, 253)"/>
<path d="M 36.99,27.985 A 9,9 0 1,1 19,28 A 9,9 0 0,1 37,28 Z" fill="rgb(195, 21, 26)"/>
<path d="M 32.99,25.985 H 30 V 23 H 26 V 26 H 23 V 30 H 26 V 33 H 30 V 30 H 33 V 26 Z" fill="rgb(254, 254, 253)"/>
<path d="M 27.99,10.985 A 17,17 0 1,0 28,45 A 17,17 0 0,0 28,11 Z M 43.7,29.42 L 41.82,29.22 L 41.78,29.67 L 43.65,29.87 C 43.6,30.27 43.54,30.68 43.46,31.05 L 41.62,30.65 L 41.53,31.08 L 43.37,31.49 C 43.27,31.95 43.06,32.65 43.06,32.65 L 41.27,32.07 L 41.13,32.5 L 42.92,33.08 L 42.51,34.2 L 40.79,33.45 L 40.6,33.85 L 42.32,34.63 C 42.18,34.93 42.04,35.22 41.88,35.5 L 39.15,33.92 L 38.7,34.7 L 41.43,36.28 A 14,14 0 0,1 40.89,37.1 L 39.37,36 L 39.11,36.36 L 40.63,37.46 C 40.39,37.79 40.14,38.1 39.87,38.39 L 38.47,37.14 L 38.17,37.47 L 39.57,38.73 C 39.3,39.03 39.02,39.31 38.72,39.58 L 37.44,38.17 L 37.1,38.47 L 38.36,39.87 A 15,15 0 0,1 37.43,40.63 L 36.33,39.11 L 35.96,39.37 L 37.06,40.89 C 36.8,41.08 36.53,41.26 36.25,41.43 L 34.68,38.7 L 33.89,39.15 L 35.47,41.88 C 35.18,42.04 34.89,42.18 34.6,42.32 L 33.83,40.59 L 33.43,40.79 L 34.2,42.5 C 33.83,42.66 33.45,42.8 33.08,42.93 L 32.5,41.13 L 32.06,41.28 L 32.65,43.08 S 31.94,43.28 31.49,43.38 L 31.08,41.54 L 30.64,41.64 L 31.04,43.47 C 30.64,43.55 30.26,43.61 29.86,43.66 L 29.66,41.79 L 29.22,41.84 L 29.42,43.71 L 28.44,43.76 V 40.59 H 27.54 V 43.74 C 27.21,43.74 26.89,43.72 26.56,43.69 L 26.76,41.81 L 26.31,41.77 L 26.11,43.64 C 25.71,43.59 25.3,43.54 24.93,43.45 L 25.33,41.62 L 24.89,41.52 L 24.49,43.36 C 24.03,43.26 23.33,43.06 23.33,43.06 L 23.93,41.29 L 23.49,41.16 L 22.91,42.95 C 22.53,42.82 22.16,42.67 21.79,42.52 L 22.56,40.81 L 22.16,40.62 L 21.4,42.32 C 21.1,42.18 20.81,42.04 20.53,41.88 L 22.11,39.15 L 21.32,38.7 L 19.75,41.43 L 18.93,40.9 L 20.03,39.37 L 19.66,39.11 L 18.56,40.63 A 14.7,14.7 0 0,1 17.63,39.87 L 18.89,38.47 L 18.55,38.17 L 17.3,39.57 C 17,39.3 16.72,39.02 16.45,38.72 L 17.85,37.47 L 17.55,37.13 L 16.15,38.39 C 15.89,38.09 15.63,37.78 15.39,37.46 L 16.91,36.36 L 16.65,35.99 L 15.13,37.09 A 17.7,17.7 0 0,1 14.59,36.29 L 17.32,34.7 L 16.87,33.92 L 14.13,35.5 A 8.4,8.4 0 0,1 13.73,34.63 L 15.45,33.86 L 15.25,33.46 L 13.53,34.22 S 13.25,33.54 13.13,33.1 L 14.91,32.52 L 14.77,32.09 L 12.98,32.67 S 12.78,31.99 12.68,31.5 L 14.51,31.1 L 14.42,30.65 L 12.57,31.05 C 12.5,30.67 12.44,30.28 12.39,29.88 L 14.26,29.68 L 14.21,29.23 L 12.35,29.43 C 12.32,29.11 12.3,28.78 12.29,28.45 H 15.44 V 27.55 H 12.25 C 12.25,27.22 12.27,26.89 12.31,26.57 L 14.18,26.77 L 14.23,26.32 L 12.36,26.12 C 12.41,25.72 12.46,25.31 12.54,24.94 L 14.39,25.34 L 14.48,24.9 L 12.64,24.5 C 12.75,24 12.94,23.34 12.94,23.34 L 14.74,23.92 L 14.88,23.49 L 13.08,22.92 C 13.25,22.43 13.52,21.8 13.52,21.8 L 15.24,22.57 L 15.42,22.17 L 13.7,21.37 L 14.13,20.5 L 16.87,22.08 L 17.32,21.3 L 14.59,19.74 C 14.76,19.46 14.94,19.19 15.12,18.93 L 16.65,20.03 L 16.91,19.67 L 15.39,18.57 C 15.63,18.25 15.88,17.94 16.15,17.63 L 17.55,18.89 L 17.85,18.56 L 16.45,17.3 C 16.72,17 17,16.73 17.29,16.46 L 18.55,17.85 L 18.89,17.55 L 17.63,16.15 C 17.93,15.88 18.24,15.63 18.56,15.4 L 19.66,16.92 L 20.03,16.65 L 18.93,15.13 L 19.73,14.6 L 21.31,17.33 L 22.09,16.88 L 20.52,14.14 C 20.8,13.99 21.09,13.84 21.39,13.71 L 22.15,15.43 L 22.56,15.25 L 21.79,13.53 S 22.45,13.25 22.91,13.1 L 23.49,14.88 L 23.92,14.75 L 23.35,12.95 S 24,12.76 24.5,12.65 L 24.9,14.49 L 25.36,14.39 L 24.95,12.55 C 25.33,12.47 25.73,12.42 26.13,12.37 L 26.33,14.24 L 26.78,14.19 L 26.58,12.32 C 26.91,12.29 27.23,12.27 27.56,12.26 V 15.41 H 28.49 V 12.26 C 28.81,12.26 29.14,12.29 29.46,12.32 L 29.26,14.19 L 29.72,14.24 L 29.92,12.37 C 30.32,12.42 30.73,12.47 31.12,12.55 L 30.71,14.39 L 31.14,14.49 L 31.55,12.65 L 32.71,12.95 L 32.13,14.75 L 32.56,14.88 L 33.14,13.09 C 33.58,13.25 34.26,13.53 34.26,13.53 L 33.49,15.25 L 33.89,15.43 L 34.62,13.71 C 34.92,13.85 35.22,13.99 35.49,14.14 L 33.91,16.87 L 34.71,17.33 L 36.28,14.6 L 37.09,15.13 L 35.99,16.65 L 36.36,16.92 L 37.46,15.4 C 37.78,15.64 38.09,15.89 38.39,16.15 L 37.13,17.55 L 37.47,17.85 L 38.73,16.45 C 39.02,16.73 39.3,17.01 39.57,17.31 L 38.17,18.56 L 38.48,18.89 L 39.88,17.64 C 40.14,17.94 40.4,18.24 40.63,18.57 L 39.06,19.66 L 39.34,20.02 L 40.85,18.92 C 41.05,19.18 41.22,19.45 41.39,19.73 L 38.66,21.3 L 39.11,22.09 L 41.84,20.51 C 42,20.8 42.14,21.08 42.28,21.38 L 40.56,22.15 L 40.74,22.55 L 42.47,21.78 C 42.62,22.15 42.77,22.52 42.87,22.9 L 41.08,23.48 L 41.22,23.91 L 43.02,23.33 S 43.22,24.03 43.32,24.49 L 41.49,24.89 L 41.58,25.34 L 43.42,24.94 C 43.49,25.32 43.56,25.72 43.6,26.12 L 41.73,26.32 L 41.78,26.76 L 43.65,26.56 L 43.71,27.54 H 40.56 V 28.45 H 43.71 C 43.71,28.77 43.71,29.09 43.69,29.42 Z" fill="rgb(254, 254, 253)"/>
</svg>
