<?xml version="1.0" encoding="UTF-8"?>
<!-- generated by Finnhub -->
<svg viewBox="0 0 55.5 55.5" xmlns="http://www.w3.org/2000/svg">
<path d="M 0,0 H 55.5 V 55.5 H 0 Z" fill="rgb(239, 242, 248)"/>
<path d="M 15.99,12.985 H 24 V 14 H 17 V 22 H 9 V 33 H 17 V 41 H 24 V 42 H 16 V 34 H 8 V 21 H 16 V 13 Z M 27,18 V 13.5 H 26 V 13 H 29 V 13.5 H 28 V 18 H 27 Z M 29.5,18 V 13 H 30.5 V 15 H 31.5 V 13 H 32.5 V 18 H 31.5 V 15.5 H 30.5 V 18 H 29.5 Z M 33,18 V 13 H 35 V 13.5 H 34 V 15 H 35 V 15.5 H 34 V 17.5 H 35 V 18 H 33 Z M 27.42,24 C 27.12,24 26.85,23.95 26.65,23.84 A 1.1,1.1 0 0,1 26.18,23.34 C 26.08,23.11 26.02,22.83 26,22.48 L 26.88,22.34 C 26.88,22.54 26.91,22.71 26.94,22.84 C 26.98,22.98 27.03,23.08 27.1,23.14 C 27.17,23.21 27.26,23.24 27.37,23.24 C 27.5,23.24 27.59,23.2 27.64,23.12 A 0.52,0.52 0 0,0 27.71,22.84 C 27.71,22.64 27.66,22.47 27.56,22.34 C 27.46,22.19 27.33,22.05 27.16,21.91 L 26.64,21.47 A 2.1,2.1 0 0,1 26.19,20.96 C 26.07,20.76 26.01,20.53 26.01,20.25 C 26.01,19.85 26.13,19.54 26.37,19.32 C 26.61,19.11 26.94,19 27.37,19 C 27.62,19 27.82,19.04 27.98,19.12 A 0.9,0.9 0 0,1 28.35,19.45 C 28.45,19.58 28.5,19.72 28.54,19.88 C 28.57,20.04 28.6,20.2 28.61,20.35 L 27.74,20.48 L 27.69,20.08 A 0.5,0.5 0 0,0 27.59,19.82 C 27.53,19.76 27.44,19.72 27.33,19.72 C 27.21,19.72 27.13,19.77 27.07,19.86 A 0.49,0.49 0 0,0 26.98,20.14 C 26.98,20.32 27.02,20.46 27.1,20.57 C 27.18,20.67 27.3,20.79 27.43,20.91 L 27.93,21.35 C 28.15,21.52 28.33,21.73 28.48,21.95 C 28.63,22.18 28.7,22.45 28.7,22.79 C 28.7,23.02 28.65,23.23 28.54,23.41 C 28.44,23.59 28.29,23.74 28.09,23.84 C 27.9,23.94 27.68,24 27.42,24 Z M 29.7,24 L 29.04,19 H 29.91 L 30.25,22.04 L 30.69,19 H 31.38 L 31.83,22.03 L 32.18,19 H 33.03 L 32.39,24 H 31.53 L 31.03,20.85 L 30.57,24 H 29.69 Z M 33.5,24 V 19 H 34.5 V 24 H 33.5 Z M 36.68,24 C 36.37,24 36.11,23.95 35.9,23.84 A 1.1,1.1 0 0,1 35.44,23.34 C 35.34,23.11 35.27,22.83 35.26,22.48 L 36.13,22.34 C 36.14,22.54 36.16,22.71 36.19,22.84 C 36.23,22.98 36.29,23.08 36.36,23.14 C 36.43,23.21 36.52,23.24 36.63,23.24 C 36.76,23.24 36.85,23.2 36.89,23.12 A 0.52,0.52 0 0,0 36.97,22.84 C 36.97,22.64 36.92,22.47 36.81,22.34 C 36.71,22.19 36.58,22.05 36.41,21.91 L 35.9,21.47 A 2.1,2.1 0 0,1 35.44,20.96 C 35.33,20.76 35.27,20.53 35.27,20.25 C 35.27,19.85 35.39,19.54 35.63,19.32 C 35.87,19.11 36.2,19 36.63,19 C 36.87,19 37.08,19.04 37.23,19.12 A 0.9,0.9 0 0,1 37.61,19.45 C 37.7,19.58 37.76,19.72 37.79,19.88 C 37.83,20.04 37.85,20.2 37.86,20.35 L 36.99,20.48 C 36.99,20.33 36.97,20.2 36.95,20.08 A 0.5,0.5 0 0,0 36.84,19.82 C 36.78,19.76 36.7,19.72 36.59,19.72 C 36.47,19.72 36.39,19.77 36.32,19.86 A 0.49,0.49 0 0,0 36.24,20.14 C 36.24,20.32 36.28,20.46 36.36,20.57 C 36.44,20.67 36.55,20.79 36.69,20.91 L 37.19,21.35 C 37.41,21.52 37.59,21.73 37.73,21.95 C 37.88,22.18 37.96,22.45 37.96,22.79 C 37.96,23.02 37.91,23.23 37.8,23.41 C 37.7,23.59 37.54,23.74 37.35,23.84 C 37.16,23.94 36.94,24 36.68,24 Z M 39.72,24 C 39.41,24 39.15,23.95 38.94,23.84 A 1.1,1.1 0 0,1 38.47,23.34 C 38.37,23.11 38.31,22.83 38.3,22.48 L 39.17,22.34 C 39.18,22.54 39.2,22.71 39.23,22.84 C 39.27,22.98 39.33,23.08 39.39,23.14 C 39.47,23.21 39.56,23.24 39.67,23.24 C 39.8,23.24 39.89,23.2 39.93,23.12 A 0.52,0.52 0 0,0 40.01,22.84 C 40.01,22.64 39.95,22.47 39.85,22.34 C 39.75,22.19 39.62,22.05 39.45,21.91 L 38.94,21.47 A 2.1,2.1 0 0,1 38.48,20.96 C 38.37,20.76 38.31,20.53 38.31,20.25 C 38.31,19.85 38.43,19.54 38.67,19.32 C 38.91,19.11 39.24,19 39.66,19 C 39.91,19 40.12,19.04 40.28,19.12 A 0.9,0.9 0 0,1 40.65,19.45 C 40.74,19.58 40.8,19.72 40.83,19.88 C 40.87,20.04 40.89,20.2 40.9,20.35 L 40.03,20.48 C 40.03,20.33 40.01,20.2 39.99,20.08 A 0.5,0.5 0 0,0 39.88,19.82 C 39.82,19.76 39.74,19.72 39.63,19.72 C 39.51,19.72 39.43,19.77 39.36,19.86 A 0.49,0.49 0 0,0 39.28,20.14 C 39.28,20.32 39.32,20.46 39.39,20.57 C 39.48,20.67 39.59,20.79 39.73,20.91 L 40.23,21.35 C 40.44,21.52 40.63,21.73 40.77,21.95 C 40.92,22.18 41,22.45 41,22.79 C 41,23.02 40.95,23.23 40.84,23.41 C 40.74,23.59 40.58,23.74 40.39,23.84 C 40.19,23.94 39.98,24 39.72,24 Z M 26,30 V 25 H 27 V 27 H 28 V 25 H 29 V 30 H 28 V 27.5 H 27 V 30 H 26 Z M 29.5,30 V 25 H 31.5 V 25.5 H 30.5 V 27 H 31.5 V 27.5 H 30.5 V 29.5 H 31.5 V 30 H 29.5 Z M 32,30 V 25 H 33 V 29.5 H 34.5 V 30 H 32 Z M 35.46,30 L 34.51,25 H 35.39 L 35.99,28.46 L 36.54,25 H 37.46 L 36.51,30 H 35.46 Z M 37.97,30 V 25 H 40 V 25.5 H 39 V 27 H 40 V 27.5 H 39 V 29.5 H 40 V 30 H 37.97 Z M 41.47,30 V 25.5 H 40.5 V 25 H 43.5 V 25.5 H 42.5 V 30 H 41.47 Z M 44,30 V 25 H 45 V 30 H 44 Z M 45.94,30 L 46.91,25 H 48.04 L 49,30 H 48.05 L 47.88,28.75 H 47.08 L 46.9,30 H 45.95 Z M 47.18,28.25 H 47.78 L 47.48,26.25 L 47.18,28.25 Z M 26,36 V 31 H 28 V 31.5 H 27 V 33 H 28 V 33.5 H 27 V 36 H 26 Z M 30,36 C 28.94,36 28.51,35.39 28.51,34.37 V 31 H 29.51 V 34.51 C 29.51,34.85 29.58,35.5 30,35.5 S 30.51,34.85 30.51,34.51 V 31 H 31.51 V 34.37 C 31.51,35.39 31.05,36 30,36 Z M 32,36 V 31 H 32.83 L 34,33.57 V 31 H 35 V 36 H 34.3 L 33,33.2 V 36 H 32 Z M 36,36 V 31 H 37.29 C 38.36,31 39,31.43 39,32.55 V 34.35 C 39,35.45 38.4,36 37.31,36 H 36 Z M 37,35.5 H 37.3 C 37.83,35.5 38,34.92 38,34.45 V 32.42 C 38,31.96 37.78,31.5 37.29,31.5 H 36.99 L 37,35.5 Z M 26,42 V 37 H 27 V 42 H 26 Z M 28,42 V 37 H 28.83 L 30,39.54 V 37 H 31 V 42 H 30.17 L 29,39.18 V 42 H 28 Z M 33.51,42 C 32.48,42 31.96,41.39 31.96,40.38 V 38.63 C 31.96,37.61 32.46,37 33.51,37 C 34.43,37 35,37.47 35,38.4 V 39 H 34 V 38 C 34,37.68 33.9,37.5 33.5,37.5 C 33.09,37.5 33,37.66 33,38 V 41 C 33,41.34 33.1,41.5 33.5,41.5 S 34,41.32 34,41 V 40 H 35 V 40.54 C 35,41.48 34.45,42 33.51,42 Z M 36,42 V 41 H 37 V 42 H 36 Z" fill="rgb(231, 70, 77)"/>
</svg>
