<?xml version="1.0" encoding="UTF-8"?>
<!-- generated by Finnhub -->
<svg viewBox="0 0 55.5 55.5" xmlns="http://www.w3.org/2000/svg">
<path d="M 0,0 H 55.5 V 55.5 H 0 Z" fill="rgb(239, 242, 248)"/>
<path d="M 29.99,9.985 H 26 V 18.2 A 9.944,9.944 0 0,0 22.485,19.657 L 16.686,13.857 L 13.858,16.687 L 19.657,22.485 A 9.944,9.944 0 0,0 18.2,26 H 10 V 30 H 18.2 A 9.944,9.944 0 0,0 19.657,33.515 L 13.857,39.314 L 16.687,42.142 L 22.485,36.343 A 9.944,9.944 0 0,0 26,37.8 V 46 H 30 V 37.8 A 9.944,9.944 0 0,0 33.515,36.343 L 39.314,42.143 L 42.142,39.313 L 36.343,33.515 A 9.944,9.944 0 0,0 37.8,30 H 46 V 26 H 37.8 A 9.944,9.944 0 0,0 36.343,22.485 L 42.143,16.686 L 39.313,13.858 L 33.515,19.657 A 9.944,9.944 0 0,0 30,18.2 V 10 Z M 37.8,26 H 33.659 A 6,6 0 1,0 33.659,30 H 37.8 A 10.052,10.052 0 0,0 37.8,26 Z" clip-rule="evenodd" fill="rgb(242, 100, 33)" fill-rule="evenodd"/>
</svg>
