<?xml version="1.0" encoding="UTF-8"?>
<!-- generated by Finnhub -->
<svg viewBox="0 0 55.5 55.5" xmlns="http://www.w3.org/2000/svg">
<path d="M 0,0 H 55.5 V 55.5 H 0 Z" fill="rgb(239, 242, 248)"/>
<path d="M 21.049999999999997,41.765 A 13.47,13.47 0 0,0 36.46,41.38 L 43.21,36.39 A 4.4,4.4 0 0,0 43.08,29.23 L 28.16,19 L 22.38,22.8 L 37,32.75 L 28,39 L 13.5,29 L 13.15,29.23 A 4.52,4.52 0 0,0 11,33 A 4.28,4.28 0 0,0 13.04,36.5 L 21.06,41.78 Z" fill="rgb(117, 188, 65)"/>
<path d="M 34.93,14.205 A 13.47,13.47 0 0,0 19.54,14.62 L 12.79,19.61 A 4.4,4.4 0 0,0 12.92,26.77 L 27.84,37 L 33.62,33.2 L 19,23.25 L 28,17 L 42.5,27 L 42.85,26.77 A 4.52,4.52 0 0,0 45,23 A 4.28,4.28 0 0,0 42.96,19.5 L 34.94,14.22 Z" fill="rgb(78, 82, 82)"/>
</svg>
