<?xml version="1.0" encoding="UTF-8"?>
<!-- generated by Finnhub -->
<svg viewBox="0 0 55.5 55.5" xmlns="http://www.w3.org/2000/svg">
<path d="M 0,0 H 55.5 V 55.5 H 0 Z" fill="rgb(1, 163, 226)"/>
<path d="M 7.99,25.564999999999998 V 32 H 6 V 25.58 H 4 V 24 H 10 V 25.58 H 8 Z M 13.648,27.675 C 12.688,27.493 12,28.131 12,29.497 V 32 H 10 V 26 H 12 V 27.22 C 12.336,26.536 12.832,25.955 13.744,26 L 13.648,27.675 Z M 17.5,32 V 31.089 C 17.212,31.635 16.336,32 15.568,32 C 14.32,32 13.744,31.271 13.744,30.36 C 13.744,28.902 15.436,28.267 17.5,28.222 V 27.994 C 17.5,27.584 16.912,27.262 16.144,27.262 C 15.616,27.262 14.896,27.398 14.368,27.672 L 14.224,26.442 C 14.848,26.26 15.712,26 16.432,26 C 18.448,26 19,26.989 19,28.264 V 32 H 17.5 Z M 17.5,29.24 C 16.108,29.24 15.472,29.722 15.472,30.223 C 15.472,30.496 15.712,30.769 16.096,30.769 C 16.768,30.769 17.5,30.287 17.5,29.604 V 29.24 Z M 50.5,32 V 31.046 C 50.212,31.593 49.264,32 48.448,32 C 47.248,32 46.672,31.229 46.672,30.317 C 46.672,28.86 48.436,28.187 50.5,28.142 V 27.914 C 50.5,27.504 49.84,27.219 49.072,27.219 C 48.544,27.219 47.776,27.356 47.296,27.629 L 47.152,26.399 C 47.776,26.217 48.592,26 49.36,26 C 51.376,26 52,26.946 52,28.222 V 32 H 50.5 Z M 50.5,29.19 C 49.107,29.19 48.448,29.675 48.448,30.176 C 48.448,30.449 48.64,30.727 49.024,30.727 C 49.696,30.727 50.5,30.237 50.5,29.554 V 29.189 Z M 24,32 V 28.222 C 24,27.766 23.82,27.49 23.389,27.49 C 22.717,27.49 22.034,28.04 22.034,28.632 V 32 H 20 V 26 H 22 V 27 C 22.336,26.453 23.296,26 24.208,26 C 25.504,26 26,26.946 26,27.857 V 32 H 24 Z M 28.576,32.003 A 6.602,6.602 0 0,1 27,31.775 V 30.454 C 27.336,30.59 27.876,30.704 28.308,30.749 C 28.884,30.749 29,30.546 29,30.226 C 29,29.452 27,29.452 27,27.811 C 27,26.855 27.712,25.989 29.536,25.989 C 29.872,25.989 30.664,26.08 31,26.171 V 27.558 C 30.666,27.332 30.016,27.265 29.632,27.265 C 29.152,27.265 29,27.538 29,27.811 C 29,28.495 31,28.395 31,30.035 C 31,31.22 30.352,32.049 28.576,32.003 Z M 40,23 H 42 V 32 H 40 V 23 Z M 35,27 L 33,32.003 H 31 L 34,24 H 36 L 39,32 H 37 L 35,27 Z" fill="rgb(254, 254, 253)"/>
<path d="M 31.99,36.985 L 33,32 H 37 L 32,37 Z" fill="rgb(242, 118, 52)"/>
<path d="M 42.99,24.445 L 45,24 V 26 H 46 V 27.5 H 45 V 29.931 C 45,30.437 45.297,30.621 45.624,30.621 C 45.859,30.621 45.812,30.575 46,30.529 V 31.77 C 45.625,31.908 45.203,32 44.782,32 C 43.516,32 43,31.356 43,30.115 V 24.46 Z" fill="rgb(254, 254, 253)"/>
</svg>
