<?xml version="1.0" encoding="UTF-8"?>
<!-- generated by Finnhub -->
<svg viewBox="0 0 55.5 55.5" xmlns="http://www.w3.org/2000/svg">
<path d="M 0,0 H 55.5 V 55.5 H 0 Z" fill="rgb(239, 242, 248)"/>
<path d="M 51.99,23.985 H 4 V 32 H 52 V 24 Z M 5.55,26 H 9.88 V 26.54 H 8 V 30 H 7.4 V 26.54 H 5.56 V 26 Z M 27.86,26 H 23.53 V 26.54 H 25.39 V 30 H 26 V 26.54 H 27.86 V 26 Z M 19.42,26 V 30 H 20 V 26 H 19.42 Z M 12,30 L 14.1,26 H 14.72 L 16.95,30 H 16.25 L 15.7,29 H 13.2 L 12.66,30 H 12 Z M 13.46,28.52 H 15.43 L 14.44,26.71 L 13.46,28.52 Z M 34.3,26 H 31 V 30 H 31.62 V 28.3 H 33.32 L 34.86,30 H 35.7 L 34.16,28.3 H 34.3 A 1.15,1.15 0 0,0 34.3,26 Z M 34.15,26.51 H 31.65 V 27.79 H 34.15 A 0.64,0.64 0 1,0 34.15,26.51 Z M 40.56,30.19 C 41.83,30.19 42.86,29.21 42.86,28 A 2.24,2.24 0 0,0 40.56,25.81 C 39.3,25.81 38.27,26.79 38.27,28 A 2.24,2.24 0 0,0 40.57,30.19 Z M 40.56,29.53 C 41.46,29.53 42.16,28.85 42.16,28 S 41.46,26.47 40.56,26.47 C 39.68,26.47 38.96,27.15 38.96,28 S 39.68,29.53 40.56,29.53 Z M 45.6,30 H 45 V 26 H 45.51 L 48.71,29.14 V 26 H 49.28 V 30 H 48.78 L 45.6,26.87 V 30 Z" fill="rgb(3, 113, 158)" fill-rule="evenodd"/>
</svg>
