<?xml version="1.0" encoding="UTF-8"?>
<!-- generated by Finnhub -->
<svg viewBox="0 0 55.5 55.5" xmlns="http://www.w3.org/2000/svg">
<path d="M 0,0 H 55.5 V 55.5 H 0 Z" fill="rgb(224, 238, 237)"/>
<path d="M 28.99,23.985 A 3,3 0 0,1 28.24,26 L 26.01,28.5 L 28.24,31 A 3,3 0 0,1 29,33 V 35 H 41 V 22 H 29 V 24 Z M 22,28.5 L 26,24 V 21 C 26,19.9 26.9,19 28,19 H 42 A 2,2 0 0,1 44,21 V 36 A 2,2 0 0,1 42,38 H 28 A 2,2 0 0,1 26,36 V 33 L 22,28.5 Z" fill="rgb(24, 88, 101)"/>
<path d="M 16.02,19.985 H 13 V 24 H 11 V 27 H 13 V 31.8 C 13,34.26 14.17,36.07 16.82,36 C 17.7,36 18.52,35.75 19.31,35.38 L 18.5,32.5 C 18.02,32.75 17.52,33 16.96,33 C 16.3,33 16,32.37 16,31.5 V 27 H 19 V 24 H 16.03 V 20 Z" fill="rgb(1, 87, 93)"/>
</svg>
