<?xml version="1.0" encoding="UTF-8"?>
<!-- generated by Finnhub -->
<svg viewBox="0 0 55.5 55.5" xmlns="http://www.w3.org/2000/svg">
<path d="M 0,0 H 55.5 V 55.5 H 0 Z" fill="rgb(239, 242, 248)"/>
<path d="M 44.690000000000005,17.314999999999998 S 39.74,18.88 36.79,24.33 C 33.84,29.76 36.14,33.12 36.14,33.12 H 36.22 C 36.82,33.12 40.38,32.92 43.08,27.94 C 46.03,22.52 44.71,17.34 44.71,17.34 Z" fill="rgb(159, 202, 132)"/>
<path d="M 14.61,27.884999999999998 H 14.54 C 11.21,27.92 9,28.7 9,28.7 S 11.63,35.69 19.3,39.36 A 15.18,15.18 0 0,0 25.84,41 C 29.26,41 31.16,39.48 31.28,39.38 C 31.27,39.38 25.77,38.39 23.48,30.01 L 23.44,29.87 A 20.65,20.65 0 0,0 14.62,27.9 Z" fill="rgb(129, 133, 134)"/>
<path d="M 24.59,14.985 S 21.2,21.55 23.43,29.86 L 23.55,29.91 C 31.15,33.55 31.28,39.27 31.28,39.38 C 31.52,39.14 35.4,35.28 33.18,27.17 A 21.52,21.52 0 0,0 24.6,15 Z" fill="rgb(35, 122, 191)"/>
<path d="M 23.419999999999998,29.845 L 23.47,30 C 24.5,38 31,39.5 31.27,39.38 C 31.5,39 31.5,32.5 23.55,29.91 L 23.43,29.86 Z" fill="rgb(82, 126, 172)"/>
</svg>
