<?xml version="1.0" encoding="UTF-8"?>
<!-- generated by Finnhub -->
<svg viewBox="0 0 55.5 55.5" xmlns="http://www.w3.org/2000/svg">
<path d="M 0,0 H 55.5 V 55.5 H 0 Z" fill="rgb(15, 76, 145)"/>
<path d="M 32.85,23.955 C 32.87,22.36 33.19,20.21 35.46,20.23 C 37.73,20.23 38.02,22.38 38.01,24 C 38,25.61 37.68,27.79 35.41,27.77 C 33.14,27.76 32.85,25.58 32.86,23.97 Z M 28,28.34 C 29.28,30.49 31.7,31.98 35.39,32 C 41.29,32.03 43.97,28.26 44,24.03 C 44.02,19.81 41.38,16.03 35.48,16 C 31.75,15.98 29.3,17.47 28,19.64 C 26.71,17.5 24.3,16.02 20.61,16 C 14.71,15.97 12.03,19.7 12,23.94 C 11.97,28.16 14.61,31.97 20.52,32 C 24.25,32.02 26.7,30.52 28,28.34 Z M 18,23.97 C 18,22.36 18.32,20.21 20.59,20.23 C 22.86,20.24 23.15,22.38 23.14,24 C 23.13,25.62 22.81,27.79 20.54,27.77 C 18.27,27.77 17.98,25.58 17.99,23.97 Z" fill="rgb(254, 254, 253)"/>
<path d="M 15.02,31.985 A 32.56,32.56 0 0,0 28,35 C 32.82,35.03 36.37,33.73 41,32 L 40.97,36.91 A 29.63,29.63 0 0,1 27.86,40 C 22.98,39.97 19.46,38.99 15,36.91 L 15.03,32 Z" fill="rgb(254, 254, 253)"/>
</svg>
