<?xml version="1.0" encoding="UTF-8"?>
<!-- generated by Finnhub -->
<svg viewBox="0 0 55.5 55.5" xmlns="http://www.w3.org/2000/svg">
<path d="M 0,0 H 55.5 V 55.5 H 0 Z" fill="rgb(239, 242, 248)"/>
<path d="M 34.260000000000005,18.224999999999998 L 34.02,19.1 A 54.55,54.55 0 0,1 25.23,36.2 A 43.38,43.38 0 0,1 22.64,39.25 L 22.46,39.45 A 12.5,12.5 0 0,0 36.43,37.68 A 13.31,13.31 0 0,0 39.13,21.14 A 66.77,66.77 0 0,0 39.8,16.81 C 40.37,17.21 41.87,19.49 42.53,20.95 C 43.92,24.01 44.33,27.45 43.73,30.75 C 43.18,33.75 41.82,36.53 39.8,38.77 A 15.83,15.83 0 0,1 32.3,43.43 C 29.43,44.23 26.4,44.19 23.54,43.31 A 15.85,15.85 0 0,1 16.18,38.46 C 16.2,38.42 16.24,38.41 16.28,38.39 A 27.46,27.46 0 0,0 20.43,35.69 A 42.7,42.7 0 0,0 26.63,29.81 A 52.53,52.53 0 0,0 34.11,18.46 L 34.23,18.22 L 34.27,18.24 Z" fill="rgb(69, 152, 63)"/>
<path d="M 35.81,13.985 A 53.54,53.54 0 0,1 34.99,17.1 A 12.73,12.73 0 0,0 26.35,15.22 A 12.74,12.74 0 0,0 15.57,30.38 C 14.61,30.74 13.62,31.04 12.61,31.31 A 15.78,15.78 0 0,1 17.51,16.04 A 15.9,15.9 0 0,1 35.82,14.01 Z" fill="rgb(128, 129, 130)"/>
<path d="M 29.459999999999997,39.925 A 19.87,19.87 0 0,1 26.2,39.72 A 5.57,5.57 0 0,1 24.97,39.38 A 0.55,0.55 0 0,1 24.73,39.23 L 24.91,39.03 A 39.84,39.84 0 0,0 28.08,35.09 A 57.59,57.59 0 0,0 32.76,27.23 A 62.42,62.42 0 0,0 38.36,10 C 38.39,10.08 38.41,10.16 38.4,10.25 C 38.41,10.86 38.42,11.48 38.4,12.09 C 38.37,12.5 38.36,12.92 38.34,13.33 A 58.65,58.65 0 0,1 37.77,18.73 A 55.11,55.11 0 0,1 34.22,31.33 A 46.7,46.7 0 0,1 29.5,39.89 L 29.47,39.94 Z" fill="rgb(71, 109, 51)"/>
<path d="M 29.419999999999998,23.325 A 40,40 0 0,1 23.96,30.34 A 33.84,33.84 0 0,1 18.81,34.68 A 24.96,24.96 0 0,1 12.51,37.81 C 11.75,38.06 10.96,38.26 10.17,38.42 A 0.28,0.28 0 0,1 10,38.42 L 12.21,33.12 L 12.84,32.97 C 14.06,32.69 15.27,32.34 16.44,31.91 A 33.63,33.63 0 0,0 24.24,28.01 A 26.7,26.7 0 0,0 29.31,23.48 L 29.43,23.34 Z" fill="rgb(128, 129, 130)"/>
</svg>
