<?xml version="1.0" encoding="UTF-8"?>
<!-- generated by Finnhub -->
<svg viewBox="0 0 55.5 55.5" xmlns="http://www.w3.org/2000/svg">
<path d="M 0,0 H 55.5 V 55.5 H 0 Z" fill="rgb(239, 242, 248)"/>
<path d="M 11.99,12.838999999999999 L 12.813,12 L 22.081,21.175 C 25.067,17.97 26.605,14 27,12.416 V 27 H 12.198 C 16.45,25.879 19.958,23.263 21.18,22.095 L 12,12.854 Z" fill="rgb(135, 185, 227)"/>
<path d="M 43.99,12.838999999999999 L 43.187,12 L 33.92,21.175 C 30.932,17.97 29.395,14 29,12.416 V 27 H 43.802 C 39.55,25.879 36.042,23.263 34.82,22.095 L 44,12.854 Z" fill="rgb(1, 117, 187)"/>
<path d="M 43.99,43.131 L 43.187,44 L 33.92,34.825 C 30.932,38.03 29.395,42 29,43.584 V 29 H 43.802 C 39.55,30.121 36.042,32.737 34.82,33.905 L 44,43.146 Z" fill="rgb(135, 185, 227)"/>
<path d="M 11.99,43.131 L 12.813,44 L 22.081,34.825 C 25.067,38.03 26.605,42 27,43.584 V 29 H 12.198 C 16.45,30.121 19.958,32.737 21.18,33.905 L 12,43.146 Z" fill="rgb(1, 117, 187)"/>
</svg>
