<?xml version="1.0" encoding="UTF-8"?>
<!-- generated by Finnhub -->
<svg viewBox="0 0 55.5 55.5" xmlns="http://www.w3.org/2000/svg">
<path d="M 0,0 H 55.5 V 55.5 H 0 Z" fill="rgb(1, 47, 85)"/>
<path d="M 41.99,13.985 H 14 V 42 H 42 V 14 Z M 13,13 V 43 H 43 V 13 H 13 Z" fill="rgb(254, 254, 253)" fill-rule="evenodd"/>
<path d="M 33.99,17.985 H 23 V 21 H 23.5 C 23.5,19.4 24.17,19 24.5,19 H 27.5 V 31.5 C 27.5,32.3 25.83,32.5 25,32.5 V 33 H 32 V 32.5 C 31.2,32.5 29.5,32 29.5,31.5 V 25 C 31.1,25 31.83,26.33 32,27 H 33 V 23 H 32.5 C 32.5,23.8 31.83,24.33 31.5,24.5 A 5,5 0 0,0 29.5,24 V 19 H 32.5 C 33.3,19 33.5,20.33 33.5,21 H 34 V 18 Z" fill="rgb(254, 254, 253)"/>
<path d="M 26.99,25.485 V 24.5 C 25,24.83 21,27 21,31.5 C 21,37 25,39 29,39 A 8.89,8.89 0 0,0 34.5,37 L 34,36.5 C 33.33,37 31,38 29,38 C 26.5,38 23,36 23,31.5 C 23,27.9 25.67,26 27,25.5 Z" fill="rgb(254, 254, 253)"/>
</svg>
