<?xml version="1.0" encoding="UTF-8"?>
<!-- generated by Finnhub -->
<svg fill="none" viewBox="0 0 55.5 55.5" xmlns="http://www.w3.org/2000/svg">
<path d="M 0,0 H 55.5 V 55.5 H 0 Z" fill="rgb(1, 1, 49)"/>
<rect x="13" y="13" width="30" height="30" rx="15"/>
<path d="M 27.99,17.985 L 30,25 H 37 L 31.45,29.13 L 33.6,36 L 28,31.75 L 22.45,36 L 24.6,29.13 L 19,25 H 26 L 28,18 Z" fill="rgb(254, 254, 253)"/>
<path d="M 13.99,27.985 A 14,14 0 1,0 42,28 A 14,14 0 0,0 14,28 Z M 28,12 A 16,16 0 1,0 28,44 A 16,16 0 0,0 28,12 Z" fill="rgb(203, 30, 37)" fill-rule="evenodd"/>
</svg>
