<?xml version="1.0" encoding="UTF-8"?>
<!-- generated by Finnhub -->
<svg viewBox="0 0 55.5 55.5" xmlns="http://www.w3.org/2000/svg">
<path d="M 0,0 H 55.5 V 55.5 H 0 Z" fill="rgb(239, 242, 248)"/>
<path d="M 21.99,39.985 H 35 V 43 H 22 Z M 34,39 H 31 L 32.5,26 L 34,39 Z M 27,39 H 30 L 28.5,24 L 27,39 Z M 23,39 H 26 L 25.5,19.5 C 17.5,19.9 11.5,24.67 9.5,27 C 14.7,22.6 21.67,21.5 24.5,21.5 L 23,39 Z" fill="rgb(59, 75, 3)"/>
<path d="M 30.49,12.985 C 22.9,13 13.5,18 8,23 C 15,19 25,16 30.5,16 C 37,16 38,18.5 38,20 S 36.5,23 34.5,23 S 32,22 32,21 S 32.5,19.5 33,19.5 S 34,19.8 34,20.5 S 33.33,21.33 33,21.5 C 33.5,21.5 34.5,21.2 34.5,20 S 33.17,18.5 32.5,18.5 C 30.5,18.5 30,20 30,21 C 30,23.8 33.33,25 35,25 C 40.5,25 42,21.5 42,19.5 S 40,13 30.5,13 Z" fill="rgb(59, 75, 3)"/>
</svg>
