<?xml version="1.0" encoding="UTF-8"?>
<!-- generated by Finnhub -->
<svg viewBox="0 0 55.5 55.5" xmlns="http://www.w3.org/2000/svg">
<path d="M 0,0 H 55.5 V 55.5 H 0 Z" fill="rgb(239, 242, 248)"/>
<path d="M 14.73,16.015 Z M 14.74,16.03 L 8.34,20.25 A 0.77,0.77 0 0,0 8,20.81 V 24.64 C 8,24.84 8.15,25 8.33,25 H 9.68 C 9.86,25 10,25.14 10,25.34 V 31.59 C 10,37.27 13.16,39 16.98,39 C 17.58,39 18.17,38.92 18.72,38.76 C 18.9,38.72 19,38.59 19,38.42 V 34.32 C 19,34.12 18.88,34 18.67,34 H 16.97 C 15.8,34 15,32.97 15,31.84 V 25.34 C 15,25.16 15.1,25 15.27,25 H 18.67 C 18.86,25 19,24.84 19,24.65 V 20.34 A 0.33,0.33 0 0,0 18.67,20 H 15.34 A 0.36,0.36 0 0,1 15,19.64 V 16.15 C 15,16.05 14.86,15.95 14.74,16.03 Z M 36.82,35.3 C 36.88,35.37 36.92,35.45 36.92,35.55 C 36.92,35.63 36.9,35.71 36.85,35.77 A 9.66,9.66 0 0,1 29.62,39 A 9.56,9.56 0 0,1 20,29.5 C 20,24.25 24.3,20 29.62,20 A 9.66,9.66 0 0,1 36.66,23.03 C 36.72,23.1 36.76,23.18 36.76,23.27 C 36.76,23.35 36.72,23.43 36.67,23.49 L 33.85,26.39 A 0.33,0.33 0 0,1 33.38,26.4 A 5.1,5.1 0 0,0 29.62,24.76 A 4.62,4.62 0 0,0 25,29.5 A 4.62,4.62 0 0,0 29.62,34.24 C 31.15,34.24 32.54,33.64 33.5,32.6 A 0.32,0.32 0 0,1 33.96,32.6 L 36.82,35.31 Z M 49,29.5 A 3.5,3.5 0 1,1 42,29.5 A 3.5,3.5 0 0,1 49,29.5 Z" fill="rgb(34, 30, 30)"/>
</svg>
