<?xml version="1.0" encoding="UTF-8"?>
<!-- generated by Finnhub -->
<svg viewBox="0 0 55.5 55.5" xmlns="http://www.w3.org/2000/svg">
<path d="M 0,0 H 55.5 V 55.5 H 0 Z" fill="rgb(239, 242, 248)"/>
<path d="M 28.99,16.814999999999998 H 27 V 39.83 H 29 V 16.83 Z" fill="rgb(196, 1, 2)"/>
<path d="M 38.99,15.985 H 17 V 18 H 39 V 16 Z" fill="rgb(196, 1, 2)"/>
<path d="M 17.49,21.985 A 4.5,4.5 0 1,0 17.5,13 A 4.5,4.5 0 0,0 17.5,22 Z M 28,22 A 4.5,4.5 0 1,0 28,13 A 4.5,4.5 0 0,0 28,22 Z M 38.5,22 A 4.5,4.5 0 1,0 38.5,13 A 4.5,4.5 0 0,0 38.5,22 Z" fill="red"/>
<path d="M 17.49,32.985 A 4.5,4.5 0 1,0 17.5,24 A 4.5,4.5 0 0,0 17.5,33 Z" fill="rgb(202, 214, 218)"/>
<path d="M 27.99,32.485 A 4.5,4.5 0 1,0 28,23.5 A 4.5,4.5 0 0,0 28,32.5 Z" fill="red"/>
<path d="M 38.49,32.485 A 4.5,4.5 0 1,0 38.5,23.5 A 4.5,4.5 0 0,0 38.5,32.5 Z M 17.5,43 A 4.5,4.5 0 1,0 17.5,34 A 4.5,4.5 0 0,0 17.5,43 Z" fill="rgb(202, 214, 218)"/>
<path d="M 27.99,42.985 A 4.5,4.5 0 1,0 28,34 A 4.5,4.5 0 0,0 28,43 Z" fill="red"/>
<path d="M 38.49,42.985 A 4.5,4.5 0 1,0 38.5,34 A 4.5,4.5 0 0,0 38.5,43 Z" fill="rgb(202, 214, 218)"/>
</svg>
