<?xml version="1.0" encoding="UTF-8"?>
<!-- generated by Finnhub -->
<svg viewBox="0 0 55.5 55.5" xmlns="http://www.w3.org/2000/svg">
<path d="M 0,0 H 55.5 V 55.5 H 0 Z" fill="rgb(239, 110, 53)"/>
<path d="M 14.285,29.985 H 9.391 C 9.559,30.952 10.223,31.51 11.015,31.51 C 11.519,31.51 12.151,31.444 12.615,30.632 L 14.135,30.96 C 13.567,32.339 12.415,33.003 11.007,33.003 C 9.183,33.003 7.703,31.583 7.703,29.508 C 7.703,27.432 9.191,25.995 11.031,25.995 C 12.751,25.995 14.231,27.358 14.295,29.376 L 14.287,30 H 14.295 Z M 9.466,28.998 H 12.578 C 12.362,28.153 11.68,27.682 11,27.682 C 10.352,27.691 9.674,28.177 9.466,28.998 Z M 32.667,33.003 H 30.782 V 32.261 C 30.262,32.735 29.558,33.003 28.654,33.003 C 27.014,33.003 25.494,31.637 25.494,29.639 C 25.494,27.641 27.014,26.259 28.654,26.259 C 29.558,26.259 30.27,26.527 30.782,27.001 V 24 H 32.667 V 33.003 Z M 30.782,29.631 C 30.782,28.454 29.862,27.72 28.95,27.72 C 27.918,27.72 27.142,28.462 27.142,29.631 C 27.142,30.808 27.918,31.526 28.95,31.526 C 29.87,31.526 30.782,30.8 30.782,29.631 Z M 46.429,26.002 H 44.077 V 27.507 H 46.242 C 46.898,27.507 47.338,27.803 47.338,28.488 V 28.801 H 45.668 C 44.045,28.801 43.108,29.671 43.108,30.982 C 43.108,32.318 44.093,33.206 45.565,33.206 C 46.445,33.206 46.898,32.893 47.338,32.446 V 33.003 H 49 V 28.353 C 49,26.73 48.077,26.036 46.429,26.003 Z M 47.339,30.247 C 47.339,31.117 46.741,31.777 45.837,31.777 C 45.181,31.777 44.741,31.447 44.741,30.949 C 44.741,30.484 45.101,30.171 45.645,30.171 H 47.346 V 30.247 H 47.338 Z M 36.358,25.995 H 34.006 V 27.502 H 36.358 C 37.014,27.502 37.454,27.798 37.454,28.484 V 28.594 H 35.598 C 33.974,28.594 33.038,29.465 33.038,30.777 C 33.038,32.114 34.022,33.003 35.494,33.003 C 36.374,33.003 37.014,32.69 37.454,32.242 V 33.003 H 39 V 28.348 C 39,26.723 37.998,26.029 36.358,25.995 Z M 37.454,30.041 C 37.454,30.913 36.67,31.573 35.766,31.573 C 35.11,31.573 34.67,31.243 34.67,30.743 C 34.67,30.278 35.03,29.965 35.574,29.965 H 37.462 V 30.041 H 37.454 Z M 22.19,25.995 H 19.84 V 27.502 H 22.192 C 22.848,27.502 23.288,27.798 23.288,28.484 V 28.594 H 21.43 C 19.806,28.594 18.87,29.465 18.87,30.777 C 18.87,32.114 19.854,33.003 21.326,33.003 C 22.206,33.003 22.846,32.69 23.286,32.242 V 33.003 H 24.996 V 28.348 C 24.996,26.723 23.838,26.029 22.19,25.995 Z M 23.287,30.041 C 23.287,30.913 22.503,31.573 21.599,31.573 C 20.943,31.573 20.503,31.243 20.503,30.743 C 20.503,30.278 20.863,29.965 21.407,29.965 H 23.295 V 30.041 H 23.287 Z M 18.927,26.004 C 17.88,26.004 17.284,26.457 16.764,27.275 V 25.995 H 15 V 33.003 H 16.764 V 30.74 C 16.764,28.79 17.336,27.562 18.911,27.562 H 18.991 V 26.004 H 18.927 Z" fill="rgb(254, 254, 253)"/>
<path d="M 7.3740000000000006,31.285 A 2.321,2.321 0 0,1 6.648,31.455 C 6.08,31.455 6,31.129 6,30.374 V 28 H 7.448 V 26.547 H 6 V 25 H 4 V 30.506 C 4,32.226 5.008,33.003 6.528,33.003 C 7.064,33.003 7.584,32.894 8.24,32.544 C 7.896,32.202 7.568,31.782 7.384,31.3 Z M 42.573,31.438 C 42.501,31.446 42.437,31.453 42.381,31.453 C 41.813,31.453 41.437,31.126 41.437,30.371 V 27.894 H 43.228 V 26.539 H 41.437 V 25.004 H 39.733 V 30.504 C 39.733,32.224 40.741,33.004 42.261,33.004 C 42.637,33.004 42.965,32.949 43.356,32.801 C 42.853,32.451 42.661,31.874 42.573,31.438 Z M 52,31.922 C 52,32.531 51.536,33.003 50.88,33.003 C 50.232,33.003 49.76,32.539 49.76,31.922 C 49.76,31.337 50.224,30.832 50.88,30.832 C 51.536,30.832 52,31.345 52,31.922 Z" fill="rgb(254, 254, 253)"/>
</svg>
