<?xml version="1.0" encoding="UTF-8"?>
<!-- generated by Finnhub -->
<svg viewBox="0 0 55.5 55.5" xmlns="http://www.w3.org/2000/svg">
<path d="M 0,0 H 55.5 V 55.5 H 0 Z" fill="rgb(239, 242, 248)"/>
<path d="M 32.18,38.955 C 32.1,39.17 33.35,42.76 34.75,42.73 C 36.07,42.71 37.59,42.35 38.5,42.91 C 39.42,43.46 38.49,44.34 38.49,44.34 C 38.49,43.76 38.23,43.45 37.64,43.44 C 38.08,43.9 38,44.34 37.58,44.74 C 37.58,44.74 37.62,43.99 36.81,43.71 C 36.01,43.42 35.28,43.65 35.14,44.08 C 34.99,44.52 35.51,45 35.51,45 C 34.75,45.01 34.26,44.68 33.78,44.39 C 33.76,44.38 33.24,44.41 32.4,44.39 C 30.94,44.35 29.05,44.64 27.8,41.79 C 27.12,40.21 26.26,38.66 24.55,37.87 C 23.56,37.42 21.76,37.24 19.93,37.6 C 18.16,37.95 16.33,38.82 16.33,38.82 S 17.59,37.3 18.94,36.64 C 20.85,35.72 23.58,35.2 25.91,36.31 A 4.88,4.88 0 0,1 28.05,38.44 C 29.1,40.31 28.83,42.41 31.44,42.77 C 31.74,42.81 31.74,42.78 31.74,42.78 S 31.24,40.93 32.19,38.97 Z M 25.05,13.94 C 24.61,11.51 24.71,10.24 24.71,10.24 C 21.97,19.38 26.56,22.62 31.63,26.39 C 32.95,27.37 35.79,29.24 37.03,30.09 C 37,30.34 37.81,28.24 36.66,27.27 C 31.16,22.65 26.13,19.85 25.06,13.94 Z" fill="rgb(213, 169, 55)"/>
<path d="M 36.09,34.095 C 33.74,32.53 25.14,26.81 23.23,25.57 C 18.73,22.67 14.15,17.35 15.69,9 C 15.69,9 15.8,14.08 19.69,18.3 C 25.73,24.86 38.29,33.3 38.45,33.44 C 39.25,34 40.01,34.58 40.62,35.2 C 42.7,37.31 41.88,38.95 41.64,39.65 C 41.61,39.72 42.31,40.9 41.8,41.67 A 1.57,1.57 0 0,1 40.22,42.37 S 40.32,42.24 40.34,42.07 A 0.94,0.94 0 0,0 40.04,41.26 C 38.34,39.53 33.8,36.65 34.43,41.16 C 31.45,37.08 34.12,36.96 35.72,37.48 C 37.08,37.91 40.29,39.97 40.95,41.44 C 41.03,41.62 41,41.86 41,41.86 S 41.1,41.81 41.17,41.73 C 41.46,41.43 41.41,40.93 41.33,40.55 C 41.24,40.15 40.87,39.4 40.87,39.4 C 40.85,39.38 41.2,39.1 41.11,38.61 C 40.78,36.61 38.01,35.55 36.11,34.11 Z M 26.08,41 C 23.45,39.93 21.74,39.48 17.11,41.78 C 17.11,41.78 18.24,40.43 19.19,39.72 C 20.91,38.45 24.49,37.78 26.09,41 Z M 14.2,16.04 C 14.2,15.86 14.24,15.81 14.24,15.81 L 14.2,16.04 C 14.19,16.45 14.36,17.6 15.64,20.66 C 17.47,25.02 24.97,27.34 28.81,30.78 C 30.81,32.58 32.05,36.52 29.71,39.23 C 29.27,36.39 27.2,35.46 24.47,34.49 C 21.54,33.44 18.67,32.38 16.46,29.85 C 14.41,27.5 14.02,24.85 14.02,24.85 S 14.27,25.45 15.42,26.64 A 16.51,16.51 0 0,0 19.26,29.72 C 23.11,31.82 28.32,33.31 28.9,34.42 C 28.93,34.48 28.94,34.55 28.96,34.61 A 0.42,0.42 0 0,0 28.9,34.41 C 27.79,31.19 16.68,30.19 14.42,21.55 A 13.45,13.45 0 0,1 14.2,16.04 Z M 40.43,39.06 A 13.02,13.02 0 0,1 38.36,37.08 S 38.89,38.7 39.39,39.06 C 39.68,39.26 40.43,39.06 40.43,39.06 Z" fill="rgb(34, 43, 100)"/>
</svg>
