<?xml version="1.0" encoding="UTF-8"?>
<!-- generated by Finnhub -->
<svg viewBox="0 0 55.5 55.5" xmlns="http://www.w3.org/2000/svg">
<path d="M 0,0 H 55.5 V 55.5 H 0 Z" fill="rgb(239, 242, 248)"/>
<path d="M 41.057,23.989 H 44 C 41.2,18.424 34.006,15 27.557,15 C 23.966,15 20.544,15.972 18,17.724 C 34.699,11.975 40.595,23.119 41.067,24.004 Z" fill="rgb(124, 193, 68)"/>
<path d="M 17.99,17.905 C 19.16,17.724 20.969,17.597 22.482,17.597 C 29.211,17.597 33.272,20.513 35.004,24 L 40,24.01 C 33.762,13.652 20.09,17.29 18,17.92 Z" fill="rgb(124, 193, 68)"/>
<path d="M 29.99,20.663999999999998 H 28.967 C 25.619,20.679 22.605,21.946 21.101,23.981 L 21.083,24.004 H 17 L 17.03,23.958 C 18.892,21.055 23.184,20.442 26.449,20.442 C 28.174,20.442 29.522,20.615 29.893,20.667 L 30,20.679 Z" fill="rgb(1, 120, 192)"/>
<path d="M 9.99,23.99 C 11.37,20.662 16.192,18.273 21.688,18.273 C 24.702,18.273 27.589,18.979 29.814,20.257 L 30,20.361 L 29.79,20.326 C 29.576,20.292 29.355,20.251 29.129,20.216 C 28.019,20.032 26.869,19.841 25.684,19.841 C 19.015,19.841 16.834,22.461 15.94,24.004 H 10 Z M 17,39 H 14 V 28 H 10 V 26 H 20.999 V 28 H 17 V 39 Z M 22,39 V 26 H 26.99 C 29.227,26 30.7,26.448 31.62,27.41 C 32.56,28.39 33,29.97 33,32.39 C 33,34.83 32.56,36.451 31.62,37.482 C 30.683,38.519 29.21,39 26.985,39 H 22 Z M 25,28 V 37 H 26.694 C 29.21,37 30,36.03 30,32.39 C 30,29.013 29.262,28 26.694,28 H 25 Z M 38.707,39 C 37.919,39 35.438,38.85 34,38.003 V 35 C 35.607,36.565 37.015,36.967 38.7,36.967 C 40.272,36.967 41,36.35 41,35.414 V 35.381 C 41,34.501 41.033,34.121 38.35,33.469 C 35.535,32.779 34.006,31.982 34.006,29.732 V 29.698 C 34.006,28.651 34.526,27.704 35.468,27.03 C 36.405,26.368 37.722,26 39.172,26 C 40.882,26 42.732,26.242 44,27 V 30 C 42.675,28.538 40.616,28.01 39.202,28.01 C 37.789,28.01 37.002,28.677 37.002,29.529 V 29.562 C 37.015,30.353 37.196,30.835 39.71,31.381 C 42.713,32.032 44,33.168 44,35.185 C 44,36.338 43.492,37.335 42.538,38.003 C 41.601,38.655 40.278,39 38.707,39 Z" fill="rgb(1, 120, 192)"/>
</svg>
