<?xml version="1.0" encoding="UTF-8"?>
<!-- generated by Finnhub -->
<svg viewBox="0 0 55.5 55.5" xmlns="http://www.w3.org/2000/svg">
<path d="M 0,0 H 55.5 V 55.5 H 0 Z" fill="rgb(6, 154, 178)"/>
<path d="M 40.050000000000004,16.96 C 40.15,17.307 40.476,18.521 40.785,19.679 L 43.236,28.819 C 43.551,29.979 43.876,31.196 43.962,31.529 A 1.546,1.546 0 0,1 43.592,32.929 C 43.345,33.18 42.456,34.069 41.61,34.915 L 34.91,41.606 C 34.066,42.456 33.175,43.346 32.927,43.586 C 32.557,43.932 32.023,44.076 31.53,43.961 C 31.196,43.876 29.977,43.544 28.822,43.238 L 19.674,40.789 C 18.517,40.479 17.296,40.153 16.964,40.058 C 16.716,40 16.507,39.85 16.328,39.676 A 1.51,1.51 0 0,1 15.938,39.032 C 15.851,38.704 15.523,37.483 15.212,36.331 L 12.762,27.184 C 12.454,26.025 12.128,24.811 12.039,24.477 L 12.39,24.382 L 12.74,24.289 L 13.461,26.993 L 15.918,36.143 C 16.223,37.299 16.551,38.513 16.644,38.853 L 16.836,39.163 L 17.155,39.36 C 17.488,39.453 18.707,39.779 19.865,40.083 L 29.009,42.533 C 30.163,42.843 31.382,43.173 31.718,43.261 L 32.418,43.075 C 32.661,42.835 33.552,41.94 34.402,41.09 L 41.094,34.397 C 41.942,33.563 42.829,32.667 43.074,32.416 L 43.264,31.72 C 43.172,31.382 42.848,30.162 42.537,29.005 L 40.084,19.87 A 316.156,316.156 0 0,0 39.359,17.163 L 39.161,16.847 L 38.846,16.649 C 38.514,16.558 37.296,16.23 36.137,15.918 L 26.994,13.469 L 24.287,12.746 L 23.584,12.932 C 23.34,13.176 22.449,14.071 21.603,14.915 L 14.905,21.604 C 14.061,22.452 13.166,23.346 12.925,23.589 L 12.74,24.287 L 12.39,24.38 L 12.039,24.475 A 1.56,1.56 0 0,1 12.414,23.073 C 12.66,22.828 13.553,21.938 14.399,21.09 L 21.09,14.399 C 21.94,13.553 22.833,12.662 23.076,12.419 C 23.446,12.069 23.98,11.925 24.476,12.038 C 24.807,12.133 26.026,12.463 27.184,12.768 L 36.331,15.221 C 37.486,15.531 38.703,15.856 39.038,15.947 C 39.285,16.015 39.498,16.157 39.678,16.335 C 39.85,16.515 39.993,16.727 40.059,16.975 Z" fill="rgb(254, 254, 253)"/>
<path d="M 28.59,14.536999999999999 C 28.842,14.689 29.744,15.212 30.598,15.706 L 37.359,19.604 C 38.217,20.094 39.116,20.612 39.366,20.758 C 39.719,20.978 39.944,21.378 39.964,21.796 V 34.22 A 1.29,1.29 0 0,1 39.366,35.248 C 39.114,35.394 38.217,35.914 37.361,36.405 L 30.598,40.306 L 28.601,41.466 L 28.001,41.612 L 27.403,41.466 A 688.94,688.94 0 0,1 25.403,40.306 L 18.641,36.405 C 17.791,35.914 16.889,35.394 16.642,35.248 L 16.788,34.994 L 16.938,34.734 C 17.188,34.878 18.086,35.396 18.94,35.892 L 25.701,39.794 C 26.551,40.287 27.458,40.809 27.701,40.948 L 27.999,41.02 L 28.3,40.948 L 30.301,39.794 L 37.057,35.892 C 37.912,35.396 38.815,34.878 39.063,34.734 L 39.364,34.22 V 21.796 L 39.065,21.272 C 38.815,21.134 37.913,20.61 37.057,20.122 L 30.3,16.224 C 29.446,15.724 28.544,15.209 28.3,15.068 L 27.996,15.002 L 27.701,15.068 C 27.457,15.209 26.552,15.723 25.702,16.224 L 18.939,20.122 C 18.085,20.61 17.186,21.134 16.936,21.272 L 16.641,21.796 V 34.22 L 16.936,34.734 L 16.786,34.994 L 16.641,35.248 A 1.261,1.261 0 0,1 16.041,34.22 C 16.041,33.939 16.041,32.897 16.039,31.902 L 16.042,24.101 V 21.796 C 16.052,21.379 16.28,20.977 16.642,20.758 C 16.888,20.614 17.79,20.096 18.64,19.604 L 25.402,15.706 C 26.256,15.211 27.158,14.691 27.402,14.552 L 27.996,14.398 L 28.6,14.552 Z" fill="rgb(254, 254, 253)"/>
<path d="M 19.894,19.055 C 20.151,19.009 21.044,18.768 21.889,18.54 L 28.602,16.743 C 29.452,16.517 30.345,16.275 30.588,16.209 C 30.954,16.129 31.343,16.232 31.616,16.485 C 31.795,16.665 32.451,17.321 33.07,17.938 L 37.986,22.85 C 38.605,23.47 39.259,24.128 39.437,24.301 C 39.694,24.575 39.797,24.971 39.711,25.329 C 39.645,25.574 39.404,26.468 39.181,27.316 L 37.381,34.023 C 37.151,34.874 36.913,35.771 36.849,36.009 L 36.561,36.483 L 36.096,36.768 C 35.849,36.832 34.952,37.07 34.108,37.298 L 27.398,39.096 C 26.549,39.321 25.654,39.56 25.408,39.626 L 25.34,39.368 L 25.268,39.111 C 25.517,39.041 26.409,38.805 27.258,38.581 L 33.97,36.785 C 34.819,36.551 35.713,36.31 35.958,36.25 L 36.191,36.104 L 36.334,35.871 C 36.402,35.623 36.637,34.731 36.866,33.883 L 38.663,27.173 C 38.894,26.325 39.131,25.43 39.197,25.186 L 39.061,24.67 L 37.601,23.218 L 32.691,18.308 C 32.071,17.688 31.412,17.035 31.24,16.857 L 30.724,16.715 C 30.477,16.783 29.582,17.018 28.732,17.245 L 22.029,19.053 C 21.181,19.278 20.284,19.521 20.044,19.583 L 19.813,19.733 L 19.669,19.967 C 19.601,20.211 19.364,21.106 19.132,21.952 L 17.332,28.66 C 17.103,29.514 16.867,30.402 16.802,30.649 L 16.939,31.161 C 17.121,31.339 17.773,31.997 18.396,32.612 L 23.31,37.528 C 23.927,38.148 24.581,38.798 24.764,38.981 L 25.274,39.117 L 25.346,39.373 L 25.414,39.631 A 1.103,1.103 0 0,1 24.391,39.351 C 24.207,39.177 23.555,38.523 22.931,37.899 L 18.021,32.99 C 17.401,32.37 16.742,31.716 16.564,31.54 A 1.148,1.148 0 0,1 16.287,30.507 C 16.352,30.265 16.597,29.37 16.82,28.522 L 18.621,21.812 C 18.851,20.964 19.091,20.074 19.153,19.829 L 19.438,19.356 L 19.904,19.071 Z" fill="rgb(254, 254, 253)"/>
<path d="M 18.125,37.85 C 12.687,32.415 12.687,23.591 18.137,18.145 C 23.584,12.697 32.419,12.697 37.868,18.145 C 43.316,23.591 43.316,32.415 37.868,37.868 C 32.418,43.315 23.584,43.315 18.135,37.865 Z M 37.406,37.435 C 42.607,32.233 42.626,23.81 37.437,18.62 C 32.25,13.442 23.827,13.454 18.622,18.657 C 13.421,23.858 13.409,32.28 18.595,37.464 C 23.78,42.648 32.205,42.638 37.406,37.434 Z" fill="rgb(254, 254, 253)"/>
<path d="M 28.432,17.892 C 28.626,18.013 29.292,18.401 29.925,18.758 L 34.932,21.651 C 35.562,22.015 36.232,22.404 36.418,22.506 C 36.681,22.671 36.849,22.962 36.859,23.271 V 32.476 A 0.945,0.945 0 0,1 36.419,33.241 C 36.232,33.347 35.563,33.731 34.932,34.096 L 29.925,36.985 C 29.292,37.35 28.626,37.734 28.442,37.843 L 28,37.949 L 27.557,37.843 C 27.375,37.733 26.713,37.348 26.077,36.985 L 21.069,34.096 C 20.442,33.732 19.769,33.346 19.589,33.241 L 19.697,33.051 L 19.812,32.858 L 21.292,33.712 L 26.299,36.605 C 26.93,36.969 27.599,37.35 27.782,37.457 L 28.002,37.509 L 28.221,37.456 C 28.409,37.35 29.075,36.968 29.704,36.605 L 34.711,33.712 L 36.195,32.858 L 36.42,32.478 V 23.271 L 36.197,22.887 C 36.011,22.784 35.345,22.397 34.711,22.031 L 29.704,19.146 C 29.077,18.776 28.405,18.396 28.221,18.291 L 28.001,18.236 L 27.782,18.291 C 27.6,18.397 26.93,18.776 26.296,19.146 L 21.292,22.033 C 20.658,22.398 19.996,22.786 19.812,22.889 L 19.588,23.273 V 32.478 L 19.812,32.858 L 19.697,33.051 L 19.589,33.241 A 0.933,0.933 0 0,1 19.146,32.476 V 23.271 A 0.94,0.94 0 0,1 19.588,22.506 C 19.771,22.404 20.442,22.017 21.069,21.651 L 26.076,18.758 C 26.713,18.401 27.376,18.013 27.557,17.907 L 28,17.797 L 28.442,17.907 Z" fill="rgb(254, 254, 253)"/>
<path d="M 20.685,35.167 C 16.661,31.145 16.661,24.605 20.695,20.574 C 24.732,16.54 31.27,16.54 35.307,20.574 C 39.344,24.607 39.344,31.145 35.307,35.182 A 10.328,10.328 0 0,1 20.695,35.182 Z M 34.964,34.858 C 38.818,31.004 38.83,24.774 34.989,20.928 C 31.146,17.088 24.909,17.101 21.057,20.952 C 17.2,24.805 17.189,31.042 21.031,34.882 C 24.874,38.723 31.111,38.713 34.964,34.859 Z" fill="rgb(254, 254, 253)"/>
</svg>
