<?xml version="1.0" encoding="UTF-8"?>
<!-- generated by Finnhub -->
<svg viewBox="0 0 55.5 55.5" xmlns="http://www.w3.org/2000/svg">
<path d="M 0,0 H 55.5 V 55.5 H 0 Z" fill="rgb(239, 242, 248)"/>
<path d="M 42.99,12.985 H 13 V 18 H 22.68 C 24.6,17.1 29.69,15.48 34.76,18.26 C 36.09,18.99 39.13,19.79 42.68,19.73 C 41.76,20.48 39.08,22.28 33.79,21.23 C 28.74,20.24 25.06,20.57 22,22.7 V 43 H 43 V 13 Z M 18,43 V 22 H 13 V 43 H 18 Z M 35.88,25.97 C 31.89,24.02 28.3,24.95 27,25.66 V 29.84 C 29.63,27.59 34.02,27.99 35.88,28.46 C 39.46,29.21 42.09,27.87 42.72,27.37 C 39.4,27.28 36.78,26.4 35.88,25.97 Z M 27,31.36 C 28.3,30.65 31.9,29.72 35.88,31.67 C 36.78,32.1 39.4,32.98 42.72,33.07 C 42.09,33.57 39.46,34.91 35.88,34.17 C 34.02,33.68 29.63,33.29 27,35.54 V 31.36 Z" fill="rgb(222, 33, 38)" fill-rule="evenodd"/>
</svg>
