<?xml version="1.0" encoding="UTF-8"?>
<!-- generated by Finnhub -->
<svg viewBox="0 0 55.5 55.5" xmlns="http://www.w3.org/2000/svg">
<path d="M 0,0 H 55.5 V 55.5 H 0 Z" fill="rgb(8, 39, 120)"/>
<path d="M 43.916000000000004,25.985 H 46.724 L 47.994,27.417 L 49.268,26.007 H 51 L 48.853,28.397 L 52,31.98 H 49.213 L 47.458,29.983 L 45.688,31.98 H 43.955 L 46.599,29 L 44.146,26.21 L 43.927,26 Z M 4,24.006 H 7.822 C 8.164,24.006 8.492,24.153 8.734,24.412 C 8.976,24.672 9.113,25.022 9.114,25.389 V 32 H 7.187 V 25.292 A 0.304,0.304 0 0,0 7.107,25.086 A 0.265,0.265 0 0,0 6.915,25 H 4.007 V 24.006 H 4 Z M 14.81,24.006 H 10.988 C 10.645,24.006 10.318,24.153 10.075,24.412 C 9.833,24.672 9.697,25.022 9.696,25.389 V 32 H 11.628 V 25.292 C 11.628,25.214 11.658,25.141 11.708,25.086 A 0.265,0.265 0 0,1 11.9,25 H 14.808 V 24.006 H 14.81 Z M 14.18,25.99 H 17.37 C 17.81,25.996 18.215,26.188 18.523,26.524 C 18.831,26.86 19.003,27.314 19,27.784 V 29.677 H 14.416 V 30.405 C 14.416,30.563 14.476,30.714 14.58,30.825 A 0.54,0.54 0 0,0 14.972,31 H 19 V 31.079 A 0.94,0.94 0 0,1 18.758,31.719 A 0.819,0.819 0 0,1 18.165,32 H 13.86 C 13.467,32 13.091,31.814 12.816,31.513 A 1.654,1.654 0 0,1 12.39,30.387 V 27.941 A 2.005,2.005 0 0,1 12.907,26.572 A 1.748,1.748 0 0,1 14.176,25.994 L 14.179,25.99 Z M 14.416,28.562 H 17.335 V 27.946 A 0.64,0.64 0 0,0 17.165,27.511 A 0.559,0.559 0 0,0 16.759,27.33 H 14.992 A 0.559,0.559 0 0,0 14.585,27.51 A 0.64,0.64 0 0,0 14.416,27.946 V 28.562 Z M 19.8,24.013 H 21.732 V 32 H 19.8 V 24.014 Z M 24.275,25.998 H 27.355 C 27.795,26.004 28.215,26.196 28.523,26.532 C 28.831,26.868 29.003,27.322 29,27.792 V 29.684 H 24.512 V 30.413 C 24.512,30.57 24.571,30.721 24.675,30.833 A 0.54,0.54 0 0,0 25.067,31.008 H 29 V 31.086 A 0.94,0.94 0 0,1 28.758,31.726 A 0.822,0.822 0 0,1 28.165,32 H 23.962 A 1.444,1.444 0 0,1 22.918,31.521 A 1.654,1.654 0 0,1 22.491,30.395 V 27.949 A 2.005,2.005 0 0,1 23.008,26.579 A 1.748,1.748 0 0,1 24.278,26.002 L 24.275,25.998 Z M 24.512,28.57 H 27.43 V 27.954 A 0.64,0.64 0 0,0 27.261,27.518 A 0.559,0.559 0 0,0 26.855,27.338 H 25.087 A 0.559,0.559 0 0,0 24.681,27.518 A 0.64,0.64 0 0,0 24.511,27.954 V 28.57 Z M 34.072,24 H 30.996 A 1.222,1.222 0 0,0 30.114,24.396 C 29.88,24.646 29.747,24.986 29.744,25.34 V 32 H 31.817 V 27.222 H 33.557 V 26.022 H 31.817 V 25.58 C 31.817,25.463 31.861,25.35 31.938,25.268 A 0.402,0.402 0 0,1 32.23,25.138 H 34.071 V 24 Z M 34.634,24 H 36.607 V 32 H 34.634 V 24 Z M 39.074,26 H 42.355 C 42.795,26.006 43.215,26.198 43.523,26.534 C 43.831,26.87 44.003,27.324 44,27.794 V 29.686 H 39.311 V 30.415 C 39.311,30.572 39.371,30.723 39.474,30.835 A 0.54,0.54 0 0,0 39.867,31.01 H 44 V 31.088 A 0.941,0.941 0 0,1 43.758,31.728 A 0.82,0.82 0 0,1 43.165,32 H 38.752 A 1.442,1.442 0 0,1 37.708,31.523 A 1.654,1.654 0 0,1 37.282,30.397 V 27.95 A 2.006,2.006 0 0,1 37.799,26.58 A 1.748,1.748 0 0,1 39.068,26.003 L 39.075,25.999 Z M 39.311,28.572 H 42.229 V 27.956 A 0.64,0.64 0 0,0 42.06,27.52 A 0.558,0.558 0 0,0 41.654,27.34 H 39.884 A 0.558,0.558 0 0,0 39.478,27.52 A 0.64,0.64 0 0,0 39.309,27.956 V 28.572 H 39.311 Z" fill="rgb(254, 254, 253)"/>
</svg>
