<?xml version="1.0" encoding="UTF-8"?>
<!-- generated by Finnhub -->
<svg viewBox="0 0 55.5 55.5" xmlns="http://www.w3.org/2000/svg">
<path d="M 0,0 H 55.5 V 55.5 H 0 Z" fill="rgb(239, 242, 248)"/>
<path d="M 25.91,30.185 C 26.38,30.2 26.78,30.04 27,29.94 V 25.1 A 2.5,2.5 0 0,0 25.36,24.5 C 24.29,24.5 23.65,25.83 23.65,27.21 C 23.65,28.61 24.55,30.21 25.92,30.21 Z M 26.35,21.01 C 26.15,21.01 26.06,21.03 25.92,21.07 V 20.64 C 26.52,20.64 27.83,20.3 28.5,20 V 29.72 C 28.5,30 28.61,30.13 28.87,30.13 C 29.02,30.13 29.13,30.07 29.28,29.99 V 30.41 C 28.88,30.41 27.67,30.89 27.16,31.11 A 2.7,2.7 0 0,1 26.91,30.37 C 26.34,30.79 25.63,31.03 24.91,31.03 A 2.98,2.98 0 0,1 22,27.99 C 22,26 23.38,24 25.22,24 C 26.01,24 26.42,24.15 27,24.38 V 21.46 C 27,21.2 26.81,21.01 26.35,21.01 Z M 11,31 H 6.85 V 30.58 C 7.75,30.56 8,30.23 8,29.44 V 21.7 H 6.78 C 5.67,21.7 4.6,22.01 4.52,23.78 H 4 L 4.08,21 H 13.89 L 13.98,23.78 H 13.46 C 13.38,22.01 12.64,21.7 11.52,21.7 H 9.77 V 29.44 C 9.77,30.23 10.09,30.56 11,30.58 V 31 Z M 11.6,25.3 C 11.52,25.3 11.37,25.33 11.21,25.4 V 24.9 C 11.48,24.84 12.83,24.41 13.57,24 V 25.96 H 13.6 C 14.27,24.38 14.87,24 15.46,24 C 15.64,24 15.82,24.03 16,24.1 V 26.27 H 15.64 C 15.53,25.9 15.32,25.62 14.83,25.62 C 14.45,25.62 13.99,25.92 13.57,26.48 V 29.82 C 13.57,30.31 13.82,30.54 14.26,30.54 H 14.36 V 31 H 11.27 V 30.54 H 11.38 C 11.81,30.54 12,30.31 12,29.82 V 25.9 C 12,25.49 11.97,25.3 11.6,25.3 Z M 17.75,27 C 17.77,25.78 17.95,24.45 19.06,24.45 C 20.09,24.45 20.24,25.57 20.24,27 H 17.75 Z M 21.87,29.13 C 21.28,30.11 20.65,30.43 20,30.43 C 19.06,30.43 17.77,29.65 17.75,27.43 H 22 C 22,24.9 20.52,24 19.41,24 C 17.71,24 16,25.1 16,27.65 C 16,29.4 17.06,31 19.41,31 C 20.41,31 21.22,30.82 21.96,30.3 L 21.87,29.13 Z M 30.81,27 C 30.83,25.78 31.01,24.45 32.16,24.45 C 33.21,24.45 33.38,25.57 33.38,27 H 30.8 Z M 35.05,29.13 C 34.45,30.11 33.79,30.43 33.13,30.43 C 32.16,30.43 30.83,29.63 30.81,27.41 H 35.19 C 35.19,24.87 33.66,24 32.52,24 C 30.77,24 29,25.1 29,27.65 C 29,29.4 30.1,31 32.52,31 C 33.54,31 34.39,30.82 35.14,30.3 L 35.05,29.13 Z M 45,29.45 V 27.61 C 43.78,27.74 43,28.36 43,29.02 C 43,29.7 43.37,30.12 43.97,30.12 C 44.33,30.12 44.75,30.02 45,29.81 V 29.45 Z M 46.83,29.87 C 46.9,29.87 46.99,29.85 47.32,29.72 V 30.17 C 47.15,30.17 45.78,30.73 45.25,31 C 45.11,30.76 45.05,30.4 45.03,30.17 C 44.22,30.77 43.37,31 42.85,31 C 42.03,31 41.3,30.2 41.3,29.46 C 41.3,28.15 42.49,27.54 45,27.21 V 25.81 C 45,24.95 44.37,24.63 43.86,24.63 C 43.45,24.63 43.03,24.78 43.03,25.39 C 43.03,25.54 43.1,25.81 43.23,26.09 L 41.66,26.78 A 1.4,1.4 0 0,1 41.44,25.99 C 41.44,24.83 43.26,24 44.66,24 C 45.46,24 46.53,24.62 46.53,26.05 V 29.48 C 46.53,29.81 46.62,29.87 46.83,29.87 Z M 47.2,25.39 C 47.36,25.33 47.51,25.3 47.6,25.3 C 47.96,25.3 48,25.49 48,25.9 V 29.82 C 48,30.31 47.8,30.54 47.37,30.54 H 47.26 V 31 H 50.36 V 30.54 H 50.26 C 49.82,30.54 49.56,30.31 49.56,29.82 V 26.48 C 49.99,25.91 50.46,25.62 50.83,25.62 C 51.32,25.62 51.53,25.9 51.63,26.27 H 52 V 24.09 C 51.82,24.03 51.64,24 51.46,24 C 50.87,24 50.26,24.38 49.6,25.96 H 49.57 V 24 C 48.83,24.41 47.47,24.84 47.2,24.9 V 25.4 Z M 39.1,26.66 C 39.1,25.4 38.53,24.46 37.83,24.46 C 37.09,24.46 36.83,25.04 36.83,25.84 C 36.83,27.1 37.4,28.04 38.1,28.04 C 38.84,28.04 39.1,27.46 39.1,26.66 Z M 36.31,32.19 C 36.31,32.97 37.12,33.55 38.13,33.55 C 39.1,33.55 40.13,33.05 40.13,32.2 C 40.13,31.4 39.13,31.29 38.28,31.2 A 4.15,4.15 0 0,1 37.4,31.04 C 36.58,31.3 36.31,31.64 36.31,32.19 Z M 39.45,24.35 H 41.6 L 41.3,25 H 40.28 C 40.61,25.38 40.81,26.07 40.81,26.5 C 40.81,26.95 40.61,27.5 40.25,27.82 C 39.73,28.27 38.93,28.49 37.8,28.52 C 37.47,28.72 37.27,28.92 37.27,29.14 C 37.27,29.51 37.61,29.77 39.14,29.84 C 40.76,29.89 41.44,30.5 41.44,31.52 C 41.44,33.22 39.67,34 38.11,34 C 36.13,34 35,33.17 35,32 C 35,30.93 36,30.75 36.56,30.7 V 30.68 C 35.86,30.42 35.68,30.04 35.68,29.7 C 35.68,29.26 36.14,28.83 37.22,28.47 V 28.44 C 35.77,28.34 35.12,27.35 35.12,26.33 C 35.12,25.09 36.19,24 37.92,24 C 38.41,24 38.95,24.09 39.45,24.35 Z" fill="rgb(34, 30, 30)"/>
<path d="M 34.120000000000005,31.985 H 4 V 34 H 35.34 A 2.75,2.75 0 0,1 34.14,32 Z M 41.93,32 H 52 V 34 H 40.2 C 41.17,33.55 41.86,32.72 41.94,32 Z" fill="rgb(233, 27, 70)"/>
</svg>
