<?xml version="1.0" encoding="UTF-8"?>
<!-- generated by Finnhub -->
<svg viewBox="0 0 55.5 55.5" xmlns="http://www.w3.org/2000/svg">
<path d="M 0,0 H 55.5 V 55.5 H 0 Z" fill="rgb(239, 242, 248)"/>
<path d="M 28.99,33.985 V 23 H 37 V 24.67 H 31 V 27.66 H 36.54 V 29.33 H 31 V 32.33 H 37 V 34 H 29 Z M 24.83,26.57 C 24.45,25.39 23.4,24.74 22.18,24.74 C 20.08,24.74 19,26.57 19,28.48 C 19,30.43 20.1,32.26 22.23,32.26 C 23.77,32.26 25.03,31.06 25.03,29.45 L 25.49,29.52 H 23 V 28 H 27 V 29.29 A 4.68,4.68 0 0,1 22.22,34 C 19.04,34 17,31.6 17,28.51 C 17,25.48 19.02,23 22.16,23 C 24.34,23 26.54,24.28 26.91,26.57 H 24.83 Z M 45.83,26.57 C 45.45,25.39 44.4,24.74 43.18,24.74 C 41.08,24.74 40,26.57 40,28.48 C 40,30.43 41.1,32.26 43.23,32.26 C 44.77,32.26 46.03,31.06 46.03,29.45 L 46.49,29.52 H 44 V 28 H 48 V 29.29 A 4.68,4.68 0 0,1 43.22,34 C 40.04,34 38,31.6 38,28.51 C 38,25.48 40.02,23 43.16,23 C 45.34,23 47.54,24.28 47.91,26.57 H 45.83 Z M 8,24.67 V 23 H 16 V 24.67 H 13 V 34 H 11 V 24.67 H 8 Z"/>
</svg>
