<?xml version="1.0" encoding="UTF-8"?>
<!-- generated by Finnhub -->
<svg viewBox="0 0 55.5 55.5" xmlns="http://www.w3.org/2000/svg">
<path d="M 0,0 H 55.5 V 55.5 H 0 Z" fill="url(#a)"/>
<path d="M 37.99,32.985 H 41 V 24 H 38 V 28 L 35,24 H 32 V 33 H 35 V 29 L 38,33 Z M 31,28.5 V 28 H 26 V 30 H 28.178 C 28.178,30.35 27.372,30.63 26.551,30.63 C 25.29,30.63 24.655,29.54 24.655,28.5 C 24.655,27.46 25.381,26.42 26.551,26.42 C 27.091,26.42 27.66,26.645 28,27.003 L 30,26 C 29.312,24.726 27.995,24 26.484,24 C 24.018,24 22.009,26.021 22.009,28.5 C 22.009,30.97 24.019,33 26.484,33 C 29.257,33 31,30.987 31,28.5 Z M 21,31 H 17 V 29.5 H 20 V 27.5 H 17 V 26 H 21 V 24 H 14 V 33 H 21 V 31 Z M 4,26 H 7 V 33 H 10 V 26 H 13 V 24 H 4 V 26 Z M 48,24 H 45 L 42,33 H 45 L 45.415,32 H 47.585 L 48,33 H 51 L 48,24 Z M 45.814,30 L 46.5,27 L 47.19,30 H 45.814 Z" fill="rgb(254, 254, 253)"/>
<defs>
<linearGradient id="a" x1="10.418" x2="68.147" y1="9.712" y2="76.017" gradientUnits="userSpaceOnUse">
<stop stop-color="rgb(25, 29, 31)" offset="0"/>
<stop stop-color="rgb(5, 5, 8)" offset="1"/>
</linearGradient>
</defs>
</svg>
