<?xml version="1.0" encoding="UTF-8"?>
<!-- generated by Finnhub -->
<svg viewBox="0 0 55.5 55.5" xmlns="http://www.w3.org/2000/svg">
<path d="M 0,0 H 55.5 V 55.5 H 0 Z" fill="url(#a)"/>
<path d="M 39.77,22.044999999999998 L 45.23,24.39 L 37.89,29.74 L 39.78,22.06 Z M 34.22,40.2 L 31.63,45.54 L 26.62,38.16 L 34.22,40.2 Z M 21.69,15.96 L 24.33,10.45 L 29.41,18.02 L 21.69,15.96 Z" fill="rgb(239, 241, 243)"/>
<path d="M 45.99,31.185 L 45.2,24.37 L 27.13,37.43 L 34.57,39.41 L 46,31.21 Z M 24.78,46 L 31.62,45.54 L 18.93,26.83 L 16.93,34.33 L 24.78,46 Z M 24.33,10.44 L 31.23,10 L 39.03,21.62 L 37.1,29.58 L 24.33,10.44 Z M 10,24.9 L 10.77,31.71 L 28.73,18.71 L 21.33,16.74 L 10,24.9 Z" fill="rgb(195, 205, 212)"/>
<path d="M 16.11,33.985 L 10.77,31.71 L 18.17,26.37 L 16.12,34 Z" fill="rgb(239, 241, 243)"/>
<defs>
<linearGradient id="a" x1="28" x2="28" y2="56" gradientUnits="userSpaceOnUse">
<stop stop-color="rgb(22, 45, 85)" offset="0"/>
<stop stop-color="rgb(36, 57, 99)" offset="1"/>
</linearGradient>
</defs>
</svg>
