<?xml version="1.0" encoding="UTF-8"?>
<!-- generated by Finnhub -->
<svg viewBox="0 0 55.5 55.5" xmlns="http://www.w3.org/2000/svg">
<path d="M 0,0 H 55.5 V 55.5 H 0 Z" fill="rgb(239, 242, 248)"/>
<path d="M 40.99,40.985 L 43,37 H 18 V 23 H 20 V 19 H 18 V 13 L 13,15 V 19 H 12 V 23 H 13 V 38 C 13,40.4 14.33,41 15,41 H 41 Z" fill="rgb(205, 177, 42)"/>
<path d="M 25.99,34.985 H 21 V 19 H 41 C 43.4,19 44,21 44,22 V 35 H 39 V 24 C 39,23.67 38.6,23 37,23 S 35,23.67 35,24 V 35 H 30 V 24 C 30,23.67 29.6,23 28,23 S 26,23.67 26,24 V 35 Z" fill="rgb(205, 177, 42)"/>
</svg>
