<?xml version="1.0" encoding="UTF-8"?>
<!-- generated by Finnhub -->
<svg viewBox="0 0 55.5 55.5" xmlns="http://www.w3.org/2000/svg">
<path d="M 0,0 H 55.5 V 55.5 H 0 Z" fill="rgb(239, 242, 248)"/>
<path d="M 12.99,12.985 H 43 V 43 H 13 Z" fill="rgb(72, 77, 96)"/>
<path d="M 17.49,39.875 L 18.5,43 H 19.5 L 20.5,38.85 L 17.5,39.89 Z" fill="rgb(254, 226, 171)"/>
<path d="M 12.99,41.945 V 43 H 18.5 L 17.5,39.89 L 13,41.96 Z" fill="rgb(200, 140, 43)"/>
<path d="M 15.99,36.245 L 13,35.74 V 33.67 L 15,30.56 L 16,36.26 Z" fill="rgb(201, 138, 44)"/>
<path d="M 15.99,36.245 L 13,35.74 V 39.89 L 16,36.26 Z" fill="rgb(160, 106, 41)"/>
<path d="M 13.49,38.985 L 13,39.89 V 41.96 L 21,38.86 L 19,37.81 L 13.5,39 Z" fill="rgb(251, 195, 54)"/>
<path d="M 18.99,37.795 L 13.5,39 L 16,36.26 L 19,37.81 Z" fill="rgb(253, 247, 224)"/>
<path d="M 14.99,30.544999999999998 L 16,36.26 L 23,33.5 L 15,30.56 Z" fill="rgb(237, 177, 30)"/>
<path d="M 22.99,33.485 L 16,36.26 L 21,38.86 L 23,33.5 Z" fill="rgb(195, 142, 39)"/>
<path d="M 18.49,28.985 L 15,30.56 L 23,33.5 L 18.5,29 Z" fill="rgb(252, 250, 250)"/>
<path d="M 22.99,33.485 L 21,38.85 L 27,36.78 V 36.26 L 23,33.5 Z" fill="rgb(254, 201, 99)"/>
<path d="M 20.49,38.835 H 21 L 26,41.45 L 23,43 H 19.5 L 20.5,38.85 Z" fill="rgb(251, 188, 46)"/>
<path d="M 22.49,38.315 L 21,38.85 L 26,41.45 L 22.5,38.33 Z" fill="rgb(220, 157, 35)"/>
<path d="M 22.99,42.985 L 26,41.44 L 28,43 H 23 Z" fill="rgb(234, 171, 30)"/>
<path d="M 26.99,36.245 L 22.5,38.33 L 26,41.44 L 28,43 V 36.78 L 27,36.26 Z" fill="rgb(254, 191, 50)"/>
<path d="M 28.99,34.175 L 27,36.26 L 31,38.33 L 29,34.19 Z" fill="rgb(250, 217, 147)"/>
<path d="M 34.49,35.725 L 29,34.2 L 31,38.34 L 32,38.86 L 34.5,35.76 Z" fill="rgb(252, 243, 225)"/>
<path d="M 27.99,42.985 V 36.78 L 30.5,37.81 L 28,43 Z" fill="rgb(226, 163, 33)"/>
<path d="M 31.99,38.835 L 30.5,37.81 L 31,43 H 32 L 33,39.89 L 32,38.85 Z" fill="rgb(216, 157, 40)"/>
<path d="M 30.99,42.985 L 30.5,37.81 L 28,43 H 31 Z" fill="rgb(202, 142, 43)"/>
<path d="M 34.49,35.725 L 32,38.85 L 33,39.89 L 36,43 H 37 L 34.5,35.74 Z" fill="rgb(180, 126, 37)"/>
<path d="M 35.99,42.985 L 33,39.89 L 34,43 H 36 Z" fill="rgb(161, 111, 44)"/>
<path d="M 31.99,42.985 L 33,39.89 L 34,43 H 32 Z" fill="rgb(139, 99, 37)"/>
<path d="M 38.49,36.765 L 34.5,35.74 L 37,43 L 38.5,36.78 Z" fill="rgb(234, 173, 30)"/>
<path d="M 42.99,40.915 L 38.5,36.78 L 37,43 H 43 V 40.93 Z" fill="rgb(221, 159, 39)"/>
<path d="M 42.99,36.765 H 38.5 L 43,40.93 V 36.78 Z" fill="rgb(254, 191, 56)"/>
<path d="M 40.99,32.615 L 38.5,36.78 H 43 V 34.18 L 41,32.63 Z" fill="rgb(184, 127, 46)"/>
<path d="M 40.99,32.615 L 32.5,35.23 L 34.5,35.74 L 38.5,36.78 L 41,32.63 Z" fill="rgb(252, 231, 183)"/>
<path d="M 16.99,16.985 V 17.66 H 16 V 22 H 15 V 17.66 H 14 V 17 H 17 Z M 20.38,22 L 19.32,19.97 H 19 V 22 H 17.99 V 17 H 19.58 C 21,17 21.5,17.55 21.5,18.48 C 21.5,19.16 20.8,19.73 20.14,19.9 L 21.3,22 H 20.4 Z M 19,19.32 H 19.58 C 20.15,19.32 20.5,18.99 20.5,18.48 C 20.5,17.96 20.15,17.66 19.58,17.66 H 19 V 19.32 Z M 23,17 V 22 H 22 V 17 H 23 Z M 25,17 V 20.16 C 25,20.91 25.35,21.3 26,21.3 C 26.67,21.3 27,20.9 27,20.16 V 17 H 28 V 20.14 C 28,21.21 27.08,22 26,22 S 24,21.2 24,20.14 V 17 H 25 Z M 33.5,17 V 22 H 32.5 V 18.56 L 31.5,22 H 30.5 L 29.5,18.56 V 22 H 28.5 V 17 H 29.7 L 31,21 L 32.3,17 H 33.5 Z M 37.5,18.47 C 37.5,19.41 36.85,20 35.96,20 H 35 V 22 H 34 V 17 H 35.96 C 36.84,17 37.5,17.54 37.5,18.47 Z M 35.6,19.27 C 36.15,19.27 36.5,19.01 36.5,18.5 C 36.5,17.96 36.02,17.66 35.6,17.66 H 35 V 19.28 H 35.6 Z M 42,17 V 22 H 41 V 20 H 39 V 22 H 38 V 17 H 39 V 19.34 H 41 V 17 H 42 Z" fill="rgb(252, 251, 253)"/>
<path d="M 17.86,24.455 C 17.61,23.98 17.14,23.73 16.54,23.73 C 15.53,23.73 15,24.51 15,25.5 C 15,26.5 15.52,27.27 16.54,27.27 C 17.37,27.27 17.88,26.83 18,26 L 16.26,26.01 V 25.37 H 19 V 26 C 18.83,27.22 17.75,28 16.54,28 A 2.5,2.5 0 1,1 16.54,23 C 17.54,23 18.48,23.53 18.85,24.47 H 17.87 Z M 22.5,28 C 21.1,28 20,26.9 20,25.5 S 21.1,23 22.5,23 S 25,24.1 25,25.5 S 23.9,28 22.5,28 Z M 22.5,27.3 C 23.52,27.3 24,26.48 24,25.5 C 24,24.52 23.52,23.7 22.5,23.7 S 21,24.51 21,25.5 S 21.47,27.3 22.5,27.3 Z M 27,27.34 H 29 V 28 H 26 V 23 H 27 V 27.34 Z M 31.52,23 C 33,23 34,24.06 34,25.52 A 2.37,2.37 0 0,1 31.52,28 H 30 V 23 H 31.52 Z M 31.52,27.33 C 32.62,27.33 33,26.65 33,25.5 C 33,24.45 32.62,23.67 31.52,23.67 H 31 V 27.33 H 31.52 Z" fill="rgb(212, 165, 56)"/>
</svg>
