<?xml version="1.0" encoding="UTF-8"?>
<!-- generated by Finnhub -->
<svg viewBox="0 0 55.5 55.5" xmlns="http://www.w3.org/2000/svg">
<path d="M 0,0 H 55.5 V 55.5 H 0 Z" fill="rgb(1, 54, 121)"/>
<path d="M 29.424999999999997,10.331 C 27.897,11.742 26.51,12.909 26.359,12.909 C 26.209,12.909 24.791,12.275 23.223,11.513 C 21.685,10.752 20.388,10.219 20.388,10.32 C 20.388,10.396 20.961,11.894 21.654,13.595 L 22.951,16.691 L 20.418,18.849 C 19,20.042 17.915,21.057 18.005,21.109 C 18.065,21.159 19.151,21.109 20.388,21.006 C 21.624,20.905 23.132,20.803 23.705,20.803 L 24.761,20.778 L 26.419,26.515 C 28.319,33.115 28.169,33.165 29.013,25.652 C 29.314,22.986 29.646,20.652 29.737,20.524 C 29.857,20.372 31.757,20.067 33.959,19.814 L 38,19.382 L 37.125,18.849 C 36.613,18.569 35.015,17.707 33.567,16.971 S 30.883,15.549 30.822,15.473 C 30.732,15.397 31.094,13.722 31.576,11.793 C 32.059,9.838 32.421,8.137 32.361,8.01 C 32.331,7.884 31.003,8.924 29.435,10.346 Z M 25.924,34.222 C 24.557,34.764 22.884,36.295 22.177,37.637 C 21.847,38.297 21.659,39.168 21.588,40.487 C 21.494,42.207 21.588,42.502 22.13,43.855 C 23.356,46.54 25.618,48 28.61,48 C 30.755,48 32.24,47.388 33.724,45.951 C 35.138,44.561 35.774,42.983 35.774,40.817 C 35.774,38.037 34.502,35.871 32.122,34.576 C 30.425,33.657 27.692,33.492 25.924,34.222 Z" fill="rgb(254, 254, 253)"/>
</svg>
