<?xml version="1.0" encoding="UTF-8"?>
<!-- generated by Finnhub -->
<svg viewBox="0 0 55.5 55.5" xmlns="http://www.w3.org/2000/svg">
<path d="M 0,0 H 55.5 V 55.5 H 0 Z" fill="rgb(239, 242, 248)"/>
<path d="M 24.99,21.985 H 12 V 25 H 17 V 37 H 20 V 25 H 25 V 22 Z" fill="rgb(8, 39, 103)"/>
<path d="M 22.99,36.985 V 27 H 26 V 37 Z M 34.5,22 A 7.5,7.5 0 0,0 34.5,37 H 39 V 34 H 34.5 A 4.5,4.5 0 1,1 34.5,25 H 39 V 22 H 34.5 Z" fill="rgb(8, 39, 103)"/>
<path d="M 15.99,28.235 C 9.21,32.98 5.93,38.05 5,40 C 9.72,34.96 14.2,31.47 16,30.35 V 28.25 Z M 22.44,26.5 L 21,27.38 V 26.5 H 22.44 Z M 26,22.02 V 24.49 C 28.78,23.15 42.74,17.28 43.72,22.02 C 44.5,25.82 38.9,31.06 36,33.21 H 36.82 C 48.09,25.68 54.82,14.7 45.82,15.01 C 38.62,15.25 29.53,19.78 26,22.01 Z" fill="rgb(82, 124, 183)"/>
</svg>
