<?xml version="1.0" encoding="UTF-8"?>
<!-- generated by Finnhub -->
<svg viewBox="0 0 55.5 55.5" xmlns="http://www.w3.org/2000/svg">
<path d="M 0,0 H 55.5 V 55.5 H 0 Z" fill="rgb(239, 242, 248)"/>
<path d="M 47.99,19.345 L 33.86,22.4 L 32.92,23.76 L 48,19.6 V 19.37 Z" fill="rgb(75, 38, 104)"/>
<path d="M 8.92,36.365 C 11.43,35.46 17.65,32.95 22.61,30.31 C 24.86,27.05 30.24,20.25 33.77,19.04 C 34.63,18.84 35.83,19.3 33.77,22.8 S 26.43,29.84 24.05,31.17 C 22.92,32.97 21.6,36.61 25.32,36.71 C 29.04,36.81 36.34,32.48 39.52,30.31 V 30.61 C 36.73,32.98 29.99,37.77 25.32,38.01 C 20.65,38.25 20.81,34.64 21.47,32.81 C 17.75,34.65 9.85,38.5 8,39 L 8.93,36.38 Z M 25.06,29.08 C 26.78,26.76 30.86,21.77 33.48,20.35 C 33.73,20.29 34.02,20.42 33.28,21.51 A 27.93,27.93 0 0,1 25.06,29.08 Z" fill="rgb(105, 204, 3)" fill-rule="evenodd"/>
<path d="M 32.440000000000005,22.625 L 12.16,27.18 L 11.46,29.27 L 31.11,24.19 L 31.8,23.43 C 32.06,23.13 32.45,22.63 32.45,22.63 Z" fill="rgb(75, 38, 104)"/>
</svg>
