<?xml version="1.0" encoding="UTF-8"?>
<!-- generated by Finnhub -->
<svg viewBox="0 0 55.5 55.5" xmlns="http://www.w3.org/2000/svg">
<path d="M 0,0 H 55.5 V 55.5 H 0 Z" fill="rgb(254, 193, 2)"/>
<path d="M 27.988,11.985 C 19.161,12 12,19.165 12,28.002 C 12,28.213 12.007,28.427 12.018,28.638 C 13.562,25.621 16.675,22.078 21.018,19.981 C 21.011,19.885 21,19.785 21,19.684 A 3.684,3.684 0 1,1 25.029,23.352 A 3.671,3.671 0 0,1 21.754,21.902 C 17.248,24.566 14.852,30.098 14.527,36.625 A 15.955,15.955 0 0,0 17.607,40.156 C 20.224,33.933 24.377,29.596 32.827,26.828 C 32.827,26.778 32.819,26.732 32.819,26.682 A 3.682,3.682 0 0,1 40.184,26.68 A 3.69,3.69 0 0,1 37.648,30.186 A 3.672,3.672 0 0,1 33.535,28.856 C 27.008,31.861 23.061,38.488 22.875,43.156 C 24.526,43.716 26.258,44.001 28.002,44 C 36.839,44 44,36.84 44,27.998 C 43.998,19.165 36.838,12 27.998,12 Z" fill="rgb(254, 254, 253)"/>
</svg>
