<?xml version="1.0" encoding="UTF-8"?>
<!-- generated by Finnhub -->
<svg viewBox="0 0 55.5 55.5" xmlns="http://www.w3.org/2000/svg">
<path d="M 0,0 H 55.5 V 55.5 H 0 Z" fill="rgb(239, 242, 248)"/>
<path d="M 50.53,29.985 H 48.45 L 48.11,31 H 47 L 48.89,26 H 50.11 L 52,31 H 50.89 L 50.54,30 Z M 50.26,29.25 L 49.5,27.15 L 48.74,29.25 H 50.26 Z M 45.29,31 C 44.44,31 43.36,30.6 43.35,29.55 H 44.47 C 44.5,29.95 44.79,30.2 45.27,30.2 C 45.76,30.2 46.19,29.9 46.19,29.55 C 46.19,29.01 45.34,28.95 44.96,28.85 C 44.23,28.65 43.36,28.38 43.36,27.42 C 43.36,26.39 44.38,26 45.2,26 C 46.04,26 47,26.39 47.08,27.4 H 45.92 C 45.9,27.06 45.6,26.81 45.12,26.81 C 44.72,26.81 44.29,27.01 44.29,27.39 C 44.29,27.89 45.18,28.01 45.52,28.1 C 46.24,28.3 47.14,28.59 47.14,29.54 C 47.14,30.56 46.12,31 45.29,31 Z M 40,26 V 29.07 C 40,29.69 40.37,30.1 41,30.1 C 41.64,30.1 42,29.73 42,29.06 V 26 H 43 V 29.06 C 43,30.22 42.12,31 40.98,31 C 39.83,31 39,30.21 39,29.06 V 26 H 40 Z M 37,31 H 36 L 34,27.57 V 31 H 33 V 26 H 34 L 36,29.43 V 26 H 37 V 31 Z M 31.04,30.05 H 28.95 L 28.61,31 H 27.5 L 29.39,26 H 30.61 L 32.5,31 H 31.39 L 31.04,30.05 Z M 30.76,29.25 L 30,27.15 L 29.24,29.25 H 30.76 Z M 23,28.5 C 23,27.05 24.17,26 25.6,26 C 26.65,26 27.65,26.56 28,27.58 H 26.82 C 26.59,27.12 26.15,26.88 25.59,26.88 C 24.66,26.88 24,27.61 24,28.5 C 24,29.4 24.66,30.12 25.59,30.12 C 26.15,30.12 26.59,29.88 26.82,29.42 H 28 C 27.65,30.45 26.66,31 25.6,31 A 2.5,2.5 0 0,1 23,28.5 Z M 22.5,31 H 21.5 L 19.5,27.57 V 31 H 18.5 V 26 H 19.5 L 21.5,29.43 V 26 H 22.5 V 31 Z M 18,26 V 31 H 17 V 26 H 18 Z M 14.5,30.2 H 16.5 V 31 H 13.5 V 26 H 14.5 V 30.2 Z M 11.54,30.05 H 9.45 L 9.11,31 H 8 L 9.89,26 H 11.11 L 13,31 H 11.89 L 11.54,30.05 Z M 11.26,29.25 L 10.5,27.15 L 9.74,29.25 H 11.26 Z M 6.98,28.44 C 7.28,28.49 7.52,28.63 7.71,28.86 C 7.91,29.09 8,29.35 8,29.65 C 8,29.91 7.93,30.15 7.79,30.35 C 7.65,30.55 7.46,30.71 7.19,30.83 A 2.3,2.3 0 0,1 6.27,31 H 4 V 26 H 6.17 C 6.53,26 6.83,26.05 7.09,26.16 S 7.55,26.43 7.68,26.62 C 7.81,26.82 7.88,27.04 7.88,27.29 C 7.88,27.59 7.8,27.82 7.63,28.02 C 7.47,28.22 7.25,28.35 6.98,28.44 Z M 5,28.06 H 6.02 C 6.27,28.06 6.46,28.01 6.6,27.91 C 6.73,27.8 6.8,27.64 6.8,27.44 C 6.8,27.24 6.73,27.08 6.6,26.97 A 0.9,0.9 0 0,0 6.02,26.81 H 5 V 28.06 Z M 6.12,30.18 C 6.37,30.18 6.57,30.13 6.72,30.01 A 0.58,0.58 0 0,0 6.93,29.52 A 0.6,0.6 0 0,0 6.7,29.02 A 0.93,0.93 0 0,0 6.1,28.84 H 5 V 30.18 H 6.12 Z"/>
</svg>
