<?xml version="1.0" encoding="UTF-8"?>
<!-- generated by Finnhub -->
<svg viewBox="0 0 55.5 55.5" xmlns="http://www.w3.org/2000/svg">
<path d="M 0,0 H 55.5 V 55.5 H 0 Z" fill="rgb(239, 242, 248)"/>
<path d="M 18.34,12.985 H 18.62 C 23.08,13.4 26.56,16.6 29.39,19.88 L 30.36,21.15 L 33.94,26.29 A 7.77,7.77 0 0,1 32.6,27.93 C 31.03,26.41 29.74,24.94 27.89,23.36 C 27.37,22.86 26.82,22.4 26.23,21.97 A 39.78,39.78 0 0,0 13.78,15.63 A 0.11,0.11 0 0,0 13.7,15.73 C 13.7,15.76 13.7,15.79 13.72,15.81 A 116.8,116.8 0 0,0 21.09,25.51 L 19.76,26.56 C 17.44,22.96 15.06,19.24 13.18,15.4 A 0.15,0.15 0 0,1 13.2,15.24 A 6.5,6.5 0 0,1 18.35,13 Z" fill="rgb(170, 208, 142)"/>
<path d="M 36.17,29.544999999999998 L 34.92,30.53 L 29.83,34.06 A 19.1,19.1 0 0,1 28.06,32.59 C 29.59,31.13 31.09,29.63 32.53,28.09 C 32.6,28.02 32.58,28.01 32.6,27.93 A 7.77,7.77 0 0,0 33.98,26.28 S 34,26.28 34,26.26 A 42.94,42.94 0 0,0 40.31,13.86 C 40.35,13.73 40.31,13.66 40.16,13.66 A 0.22,0.22 0 0,0 40.04,13.71 A 141.65,141.65 0 0,0 30.35,21.15 L 29.39,19.88 C 32.19,17.98 35.07,16.18 37.99,14.47 C 38.81,14 39.64,13.55 40.49,13.14 A 0.25,0.25 0 0,1 40.77,13.18 C 44.77,16.97 42.73,22.23 39.81,25.82 A 27.7,27.7 0 0,1 36.18,29.56 Z M 26.23,21.97 C 26.82,22.4 27.37,22.87 27.89,23.36 A 46,46 0 0,0 23.34,28 L 21.9,29.74 A 39.44,39.44 0 0,0 15.62,42.19 A 0.12,0.12 0 0,0 15.72,42.27 C 15.75,42.27 15.78,42.27 15.8,42.25 A 124.4,124.4 0 0,0 25.42,34.85 L 26.49,36.23 C 22.92,38.53 19.28,40.82 15.49,42.75 C 15.39,42.8 15.29,42.79 15.21,42.72 C 13.66,41.48 13.09,39.72 13,37.67 V 37.1 C 13.5,32.78 16.5,29.17 19.76,26.55 L 21.09,25.51 L 26.23,21.96 Z" fill="rgb(24, 80, 36)"/>
<path d="M 23.33,27.985 C 24.8,29.6 26.34,31.12 27.93,32.54 C 27.95,32.56 27.99,32.57 28.06,32.59 A 36.63,36.63 0 0,0 41.96,40.28 C 42.02,40.3 42.08,40.31 42.13,40.3 A 0.11,0.11 0 0,0 42.22,40.23 A 0.11,0.11 0 0,0 42.21,40.13 C 39.91,36.83 37.48,33.63 34.91,30.53 L 36.18,29.56 C 37.93,32.2 39.59,34.87 41.18,37.58 C 41.75,38.54 42.27,39.52 42.75,40.53 A 0.21,0.21 0 0,1 42.72,40.76 C 40.69,43.13 37.48,43.5 34.65,42.43 C 31.38,41.2 28.69,38.91 26.49,36.23 L 25.42,34.87 L 21.9,29.75 L 23.34,28.01 Z" fill="rgb(170, 208, 142)"/>
</svg>
