<?xml version="1.0" encoding="UTF-8"?>
<!-- generated by Finnhub -->
<svg viewBox="0 0 55.5 55.5" xmlns="http://www.w3.org/2000/svg">
<path d="M 0,0 H 55.5 V 55.5 H 0 Z" fill="rgb(254, 130, 2)"/>
<path d="M 5.49,32.985 V 32 S 6.5,31.947 6.5,31.167 V 24 H 5.581 S 5,24.11 5,24.748 V 26 H 4 V 23 H 11 V 26 H 10 V 24.774 S 10,23.973 9.409,24 H 8.5 V 31.167 S 8.434,32 9.5,32 V 33 H 5.5 Z M 16,33 H 12 V 32 S 13,31.831 13,31.167 V 24.72 S 12.882,24 12,24 V 23 H 16 V 24 S 15,23.95 15,24.721 V 31.167 S 15.152,32 16,32 V 33 Z M 20,33 L 17,33.01 V 32 S 18,31.984 18,31 V 24.721 S 18.085,24 17,24 V 23 H 20 L 21.5,29 L 23.55,23 H 27 V 24 S 26,24.056 26,24.907 V 31 S 26.2,31.974 27,32 V 33.01 L 23,33 V 32 S 24,31.852 24,31 V 26 L 22,33 H 21 L 19,26 V 31 S 19.172,32 20,32 V 33 Z M 28,33 V 32 S 29,31.771 29,31 V 24.695 S 28.774,24 28,24 C 28.027,23.627 28,23 28,23 H 32 V 24 S 31,24.03 31,24.747 V 27.122 L 32.695,24.668 S 32.777,24 32.394,24 V 23 H 35.717 V 24 S 35.089,24.2 34.871,24.474 C 34.651,24.748 33.002,27.5 33.002,27.5 L 35.28,31.37 S 35.7,32 36,32 V 33 H 32.367 V 32 S 33.393,31.875 32.812,31.023 C 32.23,30.172 31,28.062 31,28.062 V 31.022 S 30.954,32 32,32 V 33 H 28 Z M 36.408,33 V 32 S 37.448,31.901 37.448,31.05 V 24.774 S 37.318,24 36.408,24 V 23 H 43 V 25 H 42 C 42,24.356 41.888,24 41,24 H 39.397 V 27 H 40.482 S 41.017,26.843 41.002,26 H 42 V 29 H 41 S 41.009,28 40.372,28 C 39.736,27.986 39.37,28 39.37,28 V 32 H 41.209 S 42,32 42,31 H 43 V 33 H 36.408 Z M 44,33 V 32 S 45,31.901 45,31 V 24.919 S 44.762,23.974 44,24 V 23 H 47 L 49,29 V 24.474 S 48.711,24 48,24 V 23 H 52 V 24 S 51,24.136 51,24.668 V 33 H 49 L 46,27 V 31 S 46.097,32 47,32 V 33 H 44 Z" fill="rgb(254, 254, 253)"/>
</svg>
