<?xml version="1.0" encoding="UTF-8"?>
<!-- generated by Finnhub -->
<svg viewBox="0 0 55.5 55.5" xmlns="http://www.w3.org/2000/svg">
<path d="M 0,0 H 55.5 V 55.5 H 0 Z" fill="rgb(239, 242, 248)"/>
<path d="M 31.84,26.426 C 38.755,31.991 41.99,39.425 39.075,43.047 C 36.161,46.67 28.201,45.107 21.297,39.559 C 14.392,34.009 11.157,26.575 14.071,22.953 C 16.986,19.33 24.945,20.893 31.851,26.441 Z" fill="rgb(254, 39, 148)"/>
<path d="M 40.99,12.985 C 40.733,14.455 40.467,15.938 40.2,17.394 C 40.089,17.931 39.755,18.468 39.266,18.737 C 38.91,18.939 38.466,19.022 38.066,19 H 33.218 C 32.369,23.886 31.514,28.773 30.728,33.67 C 30.639,34.095 30.618,34.543 30.439,34.946 C 30.261,35.326 29.972,35.685 29.594,35.842 C 29.239,35.998 28.838,36.022 28.46,36 H 22.658 L 26.081,19 H 18.922 C 19.212,17.545 19.478,16.05 19.767,14.595 C 19.878,14.125 20.123,13.7 20.501,13.409 C 20.857,13.162 21.279,13 21.724,13 H 41 Z" fill="rgb(86, 1, 100)"/>
</svg>
