<?xml version="1.0" encoding="UTF-8"?>
<!-- generated by Finnhub -->
<svg viewBox="0 0 55.5 55.5" xmlns="http://www.w3.org/2000/svg">
<rect width="56" height="56" fill="rgb(239, 242, 248)"/>
<path d="M 8.2756,20.705 C 7.91288,20.72 7.7549,20.739 7.51419,20.7771 C 7.28124,20.8153 7.08712,20.8953 6.93182,21.0173 C 6.78429,21.1393 6.66393,21.3108 6.57075,21.5319 C 6.48534,21.7454 6.40381,22.0313 6.32616,22.3896 H 6.00003 L 6.08156,19.9995 H 13.4338 L 13.5153,22.3896 H 13.1892 C 13.1116,22.0313 13.0262,21.7454 12.933,21.5319 C 12.8476,21.3108 12.7311,21.1393 12.5836,21.0173 C 12.436,20.8953 12.2419,20.8153 12.0012,20.7771 C 11.7605,20.739 11.4499,20.72 11.0694,20.72 H 10.3589 V 27.5929 C 10.3589,27.8292 10.3744,28.0198 10.4055,28.1647 C 10.4366,28.3095 10.4948,28.4239 10.5802,28.5078 C 10.6734,28.5916 10.8015,28.6526 10.9646,28.6907 C 11.1354,28.7212 11.3567,28.7441 11.6285,28.7593 V 28.9995 H 7.76146 V 28.7593 C 8.03324,28.7441 8.25065,28.7212 8.41372,28.6907 C 8.57678,28.6526 8.70102,28.5878 8.78643,28.4963 C 8.87961,28.3972 8.93785,28.2638 8.96115,28.0961 C 8.99221,27.9283 9.00003,27.7073 9.00003,27.4328 V 20.72 H 8.2856 Z" fill="rgb(27, 94, 152)"/>
<path d="M 18.099999999999998,19.985 C 18.7389,20 19.3368,20.1296 19.9037,20.3888 C 20.4783,20.648 20.9636,21.0064 21.3596,21.4638 C 21.6857,21.8526 21.9381,22.3062 22.1167,22.8247 C 22.2953,23.3431 22.3846,23.8996 22.3846,24.4943 C 22.3846,25.1576 22.2758,25.7675 22.0584,26.324 C 21.8488,26.8729 21.5498,27.3456 21.1616,27.7421 C 20.7811,28.1385 20.323,28.4473 19.7872,28.6684 C 19.2592,28.8895 18.6768,29 18.0401,29 C 17.3956,29 16.8055,28.8895 16.2697,28.6684 S 15.2758,28.1385 14.8953,27.7421 C 14.5148,27.338 14.2197,26.8577 14.0101,26.3011 C 13.8004,25.7446 13.6956,25.1309 13.6956,24.46 C 13.6956,23.8043 13.8043,23.202 14.0217,22.6531 S 14.542,21.6353 14.9302,21.2465 C 15.3185,20.8501 15.7805,20.5451 16.3163,20.3316 C 16.8598,20.1105 17.4577,20 18.11,20 Z M 17.9935,20.4574 C 17.6285,20.4574 17.2791,20.5413 16.9452,20.709 C 16.6113,20.8691 16.3201,21.094 16.0717,21.3837 C 15.9397,21.5362 15.8193,21.7268 15.7106,21.9555 C 15.6097,22.1842 15.5204,22.4358 15.4427,22.7103 C 15.3651,22.9771 15.3068,23.263 15.268,23.568 C 15.2292,23.8729 15.2098,24.1779 15.2098,24.4828 C 15.2098,25.2681 15.3146,25.9657 15.5242,26.5756 C 15.7339,27.1855 16.0251,27.6429 16.3978,27.9479 C 16.8637,28.3367 17.415,28.5311 18.0517,28.5311 C 18.3856,28.5311 18.7001,28.4701 18.9952,28.3482 C 19.298,28.2262 19.562,28.0546 19.7872,27.8335 C 20.5093,27.1398 20.8704,26.0038 20.8704,24.4257 C 20.8704,23.6709 20.7617,23 20.5443,22.413 C 20.3346,21.8259 20.0395,21.3723 19.6591,21.0521 C 19.1699,20.6557 18.6147,20.4574 17.9935,20.4574 Z" fill="rgb(27, 94, 152)"/>
<path d="M 31.112,22.924 C 31.0599,22.7255 30.9978,22.5426 30.9356,22.3901 C 30.8735,22.23 30.8075,22.0889 30.7376,21.967 C 30.6755,21.8374 30.6017,21.723 30.5163,21.6239 C 30.4387,21.5248 30.3455,21.4219 30.2368,21.3151 C 29.9728,21.0483 29.67,20.8501 29.3283,20.7205 C 28.9944,20.5832 28.6372,20.5146 28.2567,20.5146 C 27.7753,20.5146 27.3366,20.6061 26.9406,20.7891 C 26.5523,20.972 26.2184,21.2351 25.9389,21.5781 C 25.6671,21.9136 25.4575,22.3215 25.31,22.8018 C 25.1624,23.2821 25.0887,23.8158 25.0887,24.4028 C 25.0887,25.1652 25.1935,25.8323 25.4031,26.4041 C 25.6128,26.9759 25.9117,27.4219 26.3,27.7421 C 26.8823,28.1995 27.5773,28.4282 28.3849,28.4282 C 28.9362,28.4282 29.4448,28.3253 29.9107,28.1194 C 30.3766,27.9136 30.858,27.5781 31.3549,27.1131 L 31.5879,27.3418 C 31.1841,27.8679 30.6678,28.2757 30.0388,28.5654 C 29.4176,28.8551 28.7265,29 27.9656,29 C 27.3055,29 26.7038,28.8933 26.1602,28.6798 C 25.6167,28.4663 25.1508,28.169 24.7625,27.7878 C 24.3743,27.399 24.0714,26.9339 23.854,26.3926 C 23.6444,25.8513 23.5395,25.249 23.5395,24.5858 C 23.5395,23.831 23.6716,23.1525 23.9356,22.5502 C 24.1996,21.9403 24.5878,21.4295 25.1003,21.0178 C 25.5041,20.6976 25.9583,20.4498 26.463,20.2745 C 26.9678,20.0915 27.4764,20 27.9889,20 C 28.6489,20 29.3011,20.1067 29.9456,20.3202 C 30.163,20.3964 30.3377,20.4346 30.4697,20.4346 S 30.7143,20.3964 30.8075,20.3202 C 30.9085,20.244 30.9783,20.1372 31.0172,20 H 31.2967 L 31.4248,22.939 H 31.122 Z" fill="rgb(27, 94, 152)"/>
<path d="M 40.315000000000005,22.924 C 40.2629,22.7255 40.2008,22.5426 40.1387,22.3901 C 40.0766,22.23 40.0106,22.0889 39.9407,21.967 C 39.8786,21.8374 39.8048,21.723 39.7194,21.6239 C 39.6417,21.5248 39.5486,21.4219 39.4398,21.3151 C 39.1758,21.0483 38.873,20.8501 38.5313,20.7205 C 38.1975,20.5832 37.8403,20.5146 37.4598,20.5146 C 36.9784,20.5146 36.5396,20.6061 36.1436,20.7891 C 35.7554,20.972 35.4215,21.2351 35.142,21.5781 C 34.8702,21.9136 34.6605,22.3215 34.513,22.8018 S 34.2917,23.8158 34.2917,24.4028 C 34.2917,25.1652 34.3965,25.8323 34.6062,26.4041 C 34.8158,26.9759 35.1148,27.4219 35.503,27.7421 C 36.0854,28.1995 36.7804,28.4282 37.5879,28.4282 C 38.1392,28.4282 38.6478,28.3253 39.1137,28.1194 C 39.5796,27.9136 40.061,27.5781 40.558,27.1131 L 40.7909,27.3418 C 40.3872,27.8679 39.8708,28.2757 39.2418,28.5654 C 38.6206,28.8551 37.9296,29 37.1686,29 C 36.5086,29 35.9068,28.8933 35.3633,28.6798 C 34.8197,28.4663 34.3538,28.169 33.9656,27.7878 C 33.5773,27.399 33.2745,26.9339 33.0571,26.3926 C 32.8474,25.8513 32.7426,25.249 32.7426,24.5858 C 32.7426,23.831 32.8746,23.1525 33.1386,22.5502 C 33.4026,21.9403 33.7909,21.4295 34.3033,21.0178 C 34.7071,20.6976 35.1614,20.4498 35.6661,20.2745 C 36.1708,20.0915 36.6794,20 37.1919,20 C 37.8519,20 38.5042,20.1067 39.1487,20.3202 C 39.3661,20.3964 39.5408,20.4346 39.6728,20.4346 S 39.9174,20.3964 40.0106,20.3202 C 40.1115,20.244 40.1814,20.1372 40.2202,20 H 40.4998 L 40.6279,22.939 H 40.325 Z" fill="rgb(27, 94, 152)"/>
<path d="M 49.99,28.985 H 46.6106 V 28.7456 H 46.9018 C 46.9794,28.738 47.0416,28.7303 47.0882,28.7227 C 47.1425,28.7075 47.1891,28.696 47.2279,28.6884 C 47.2667,28.6732 47.3056,28.6541 47.3444,28.6312 C 47.4065,28.5931 47.4531,28.5474 47.4842,28.494 C 47.523,28.433 47.5424,28.372 47.5424,28.311 C 47.5424,28.0975 47.457,27.8002 47.2862,27.419 L 46.7271,26.1725 H 43.2562 L 42.6389,27.6935 C 42.6078,27.7773 42.5806,27.865 42.5573,27.9565 C 42.5418,28.0404 42.534,28.1242 42.534,28.2081 C 42.534,28.3834 42.6039,28.5169 42.7437,28.6083 C 42.8834,28.6998 43.1164,28.7456 43.4425,28.7456 V 29 H 40.7986 V 28.7456 C 40.9616,28.738 41.1014,28.7113 41.2179,28.6655 C 41.3343,28.6198 41.4508,28.5245 41.5673,28.3796 C 41.6838,28.2272 41.808,28.0137 41.94,27.7392 C 42.0798,27.4571 42.2545,27.0759 42.4641,26.5956 L 45.2246,20 H 45.4808 L 48.8003,27.602 C 48.909,27.846 49.0022,28.0404 49.0799,28.1852 C 49.1653,28.3301 49.2507,28.4444 49.3361,28.5283 C 49.4215,28.6045 49.5147,28.6579 49.6156,28.6884 C 49.7243,28.7189 49.8525,28.738 50,28.7456 V 29 Z M 46.5524,25.6465 L 45.0149,21.8755 L 43.4775,25.6465 H 46.5524 Z" fill="rgb(27, 94, 152)"/>
<path d="M 23.346,39.985 L 24.0112,37.6429 H 23.6719 C 23.5627,37.873 23.4613,38.0714 23.3677,38.2381 C 23.282,38.4048 23.1923,38.5437 23.0987,38.6548 C 22.8569,38.9325 22.5449,39.1389 22.1627,39.2738 C 21.7883,39.4087 21.3165,39.4762 20.7471,39.4762 H 19.858 C 19.6084,39.4762 19.4095,39.4722 19.2613,39.4643 C 19.1131,39.4484 18.9961,39.4206 18.9103,39.381 C 18.8245,39.3413 18.766,39.2857 18.7348,39.2143 C 18.7114,39.1349 18.6997,39.0357 18.6997,38.9167 V 32.4881 C 18.6997,32.25 18.7153,32.0556 18.7465,31.9048 S 18.8362,31.6349 18.922,31.5476 C 19.0078,31.4524 19.1326,31.3889 19.2964,31.3571 C 19.4602,31.3175 19.6747,31.2897 19.9398,31.2738 V 31 H 16.1844 V 31.2738 C 16.4262,31.2897 16.6211,31.3175 16.7693,31.3571 C 16.9253,31.3968 17.0462,31.4603 17.132,31.5476 S 17.2724,31.754 17.2958,31.9048 C 17.327,32.0556 17.3426,32.25 17.3426,32.4881 V 38.5357 C 17.3426,38.7738 17.327,38.9683 17.2958,39.119 C 17.2646,39.2698 17.2061,39.3889 17.1203,39.4762 C 17.0423,39.5635 16.9253,39.627 16.7693,39.6667 C 16.6211,39.7063 16.4262,39.7341 16.1844,39.75 V 40 H 23.356 Z M 33.1052,40 L 38.8435,40.0001 L 39.3178,37.9577 H 39.0168 C 38.8891,38.2893 38.7584,38.5574 38.6246,38.762 C 38.4908,38.9665 38.3327,39.1288 38.1502,39.2487 C 37.9739,39.3687 37.758,39.4498 37.5026,39.4921 C 37.2532,39.5344 36.9431,39.5556 36.5721,39.5556 H 36.2138 C 35.9584,39.5556 35.6172,39.545 35.4287,39.5238 C 35.2463,39.4956 35.1307,39.4638 35.0821,39.4286 C 35.0517,39.4004 35.0304,39.358 35.0182,39.3016 C 35.0061,39.2452 35,39.157 35,39.037 V 36.0039 L 36.7819,36.004 C 37.0009,36.004 37.1772,36.0181 37.311,36.0463 S 37.5512,36.1309 37.6303,36.2156 C 37.7093,36.2932 37.7701,36.4096 37.8127,36.5648 C 37.8553,36.713 37.8948,36.914 37.9313,37.168 H 38.1776 V 34.3637 H 37.9313 C 37.8948,34.6107 37.8553,34.8082 37.8127,34.9563 C 37.7701,35.1045 37.7063,35.2209 37.6211,35.3055 C 37.5421,35.3831 37.4357,35.4361 37.3019,35.4643 S 36.9948,35.5066 36.7819,35.5066 H 35 V 32.8783 C 35,32.7019 35.0213,32.5891 35.0638,32.5397 C 35.1125,32.4903 35.2067,32.4656 35.3466,32.4656 L 36.937,32.4657 C 37.2289,32.4657 37.4661,32.4798 37.6485,32.508 C 37.837,32.5362 37.986,32.5962 38.0955,32.6879 C 38.211,32.7796 38.2992,32.9101 38.36,33.0794 C 38.4208,33.2417 38.4756,33.4604 38.5242,33.7355 H 38.7705 L 38.7523,32.0001 L 33.1052,32 V 32.2434 C 33.2937,32.2575 33.4458,32.2822 33.5613,32.3175 C 33.6829,32.3527 33.7772,32.4092 33.8441,32.4868 S 33.9536,32.6702 33.9718,32.8042 C 33.9961,32.9383 34,33.1111 34,33.3228 V 38.6984 C 34,38.9101 33.9961,39.0829 33.9718,39.2169 C 33.9475,39.351 33.9019,39.4568 33.835,39.5344 C 33.7742,39.612 33.6829,39.6684 33.5613,39.7037 C 33.4458,39.739 33.2937,39.7637 33.1052,39.7778 V 40 Z M 25.0004,33.2396 V 33.2394 C 25.0028,32.8446 25.0054,32.405 24.5403,32.3069 C 24.4065,32.2787 24.2301,32.2575 24.0112,32.2434 V 32.0001 H 27.0264 V 32.2434 C 26.8075,32.2505 26.6311,32.2717 26.4974,32.3069 C 26.3636,32.3352 26.2602,32.3881 26.1872,32.4657 S 26.0656,32.6526 26.0413,32.7937 C 26.0169,32.9277 26.0048,33.1041 26.0048,33.3228 V 38.6985 C 26.0048,38.9172 26.0169,39.0971 26.0413,39.2381 C 26.0717,39.3722 26.1234,39.478 26.1963,39.5556 C 26.2693,39.6332 26.3727,39.6896 26.5065,39.7249 C 26.6403,39.7531 26.8136,39.7708 27.0264,39.7778 V 40.0001 H 24.0112 V 39.7778 C 24.2301,39.7708 24.4065,39.7531 24.5403,39.7249 C 25.0024,39.6031 25.0012,39.1598 25.0001,38.7567 L 25,38.6985 V 33.3228 C 25,33.2955 25.0002,33.2679 25.0004,33.24 V 33.2396 Z M 32.0476,37.1605 C 32.0172,36.9206 31.9777,36.7266 31.9291,36.5785 C 31.8865,36.4233 31.8226,36.3033 31.7375,36.2187 C 31.6584,36.134 31.549,36.0776 31.4091,36.0494 C 31.2753,36.0141 31.105,35.9965 30.8983,35.9965 H 29.3932 V 38.6985 C 29.3932,38.9101 29.4023,39.0829 29.4205,39.217 C 29.4448,39.351 29.4905,39.4604 29.5574,39.545 C 29.6303,39.6226 29.7276,39.6791 29.8493,39.7143 C 29.977,39.7426 30.1412,39.7637 30.3418,39.7778 V 40.0001 H 27.4319 V 39.7778 C 27.6265,39.7637 27.7816,39.739 27.8972,39.7038 C 28.0188,39.6685 28.11,39.6085 28.1708,39.5239 C 28.2377,39.4322 28.2803,39.3122 28.2985,39.1641 C 28.3228,39.0089 28.335,38.8043 28.335,38.5503 V 33.3228 C 28.335,33.1112 28.3228,32.9383 28.2985,32.8043 C 28.2803,32.6702 28.2377,32.5644 28.1708,32.4868 S 28.0097,32.3528 27.888,32.3175 C 27.7725,32.2822 27.6205,32.2575 27.4319,32.2434 V 32.0001 H 32.9598 L 32.9781,33.7355 H 32.7318 C 32.6831,33.4604 32.6284,33.2417 32.5676,33.0794 C 32.5068,32.9101 32.4186,32.7796 32.3031,32.6879 C 32.1936,32.5962 32.0446,32.5362 31.8561,32.508 C 31.6736,32.4798 31.4365,32.4657 31.1446,32.4657 H 29.7307 C 29.5847,32.4657 29.4905,32.4904 29.4479,32.5397 C 29.4114,32.5891 29.3932,32.702 29.3932,32.8784 V 35.4991 H 30.8983 C 31.105,35.4991 31.2753,35.485 31.4091,35.4568 C 31.549,35.4286 31.6584,35.3721 31.7375,35.2875 C 31.8226,35.2028 31.8865,35.0864 31.9291,34.9383 C 31.9777,34.7901 32.0172,34.5961 32.0476,34.3562 H 32.2939 V 37.1605 H 32.0476 Z" clip-rule="evenodd" fill="rgb(27, 94, 152)" fill-rule="evenodd"/>
</svg>
