<?xml version="1.0" encoding="UTF-8"?>
<!-- generated by Finnhub -->
<svg viewBox="0 0 55.5 55.5" xmlns="http://www.w3.org/2000/svg">
<path d="M 0,0 H 55.5 V 55.5 H 0 Z" fill="rgb(212, 16, 2)"/>
<path d="M 23.032,22.047 C 16.942,22.062 12,26.969 12,33.027 C 12,39.086 16.943,44 23.042,44 C 29.142,44 34.084,39.086 34.084,33.027 C 34.084,26.969 29.141,22.062 23.042,22.062 Z M 22.467,25.573 C 26.409,25.573 29.604,28.705 29.604,32.569 C 29.604,36.433 26.409,39.564 22.467,39.564 C 18.524,39.564 15.329,36.433 15.329,32.569 S 18.524,25.573 22.467,25.573 Z" fill="rgb(254, 254, 253)"/>
<path d="M 30.424,9.985 C 30.082,9.989 29.799,10.14 29.489,10.36 C 29.109,10.63 28.78,11.066 28.584,11.496 C 27.585,13.693 26.64,15.81 25.687,17.92 C 25.452,18.438 25.183,19.018 24.776,19.407 C 24.521,19.651 24.268,19.872 23.933,19.774 C 23.587,19.673 23.471,19.503 23.351,19.154 C 23.198,18.709 23.208,17.839 23.159,17.37 C 23.065,16.453 23.183,15.51 22.954,14.62 C 22.846,14.2 22.482,13.27 21.919,13.237 C 21.059,13.187 20.439,14.54 20.069,15.297 C 19.209,17.064 18.927,19.043 18.946,21.911 C 18.948,22.216 18.966,22.827 18.966,22.827 S 20.194,22.404 20.816,22.277 A 10.94,10.94 0 0,1 24.172,22.108 A 11.577,11.577 0 0,1 27.344,22.912 A 11.132,11.132 0 0,1 32.201,26.882 A 10.97,10.97 0 0,1 33.214,28.751 C 33.494,29.407 33.711,30.096 33.858,30.81 A 10.578,10.578 0 0,1 34.084,33.017 A 10.576,10.576 0 0,1 33.858,35.231 A 10.834,10.834 0 0,1 32.858,38.045 L 32.988,38.073 C 34.24,38.333 35.446,38.456 36.721,38.383 C 38.702,38.271 40.771,38.134 42.517,37.163 C 43.105,36.837 43.881,36.35 43.9,35.662 C 43.92,35.035 43.304,34.569 42.784,34.244 C 42.26,33.918 41.486,33.875 40.879,33.786 C 39.977,33.653 39.202,33.774 38.242,33.659 C 37.46,33.566 36.3,33.406 36.132,32.573 C 35.973,31.779 36.925,31.093 37.489,30.528 C 38.626,29.387 40.057,28.608 41.304,27.595 C 42.742,26.425 44.124,25.365 45.428,24.041 C 45.842,23.619 46.243,23.294 46.551,22.785 C 46.771,22.423 47.035,21.857 46.996,21.431 C 46.969,21.148 46.821,20.935 46.592,20.776 C 46.222,20.516 45.821,20.546 45.372,20.55 C 44.91,20.553 44.522,20.667 44.085,20.825 C 42.882,21.259 41.749,21.882 40.605,22.461 C 39.76,22.888 39.014,23.561 38.105,23.815 C 37.559,23.967 36.769,24.345 36.413,23.892 C 36.067,23.452 36.612,22.772 36.824,22.249 C 37.26,21.175 37.967,20.233 38.564,19.245 C 39.234,18.137 40.02,17.108 40.633,15.966 C 40.934,15.406 41.313,14.849 41.42,14.217 C 41.498,13.764 41.51,13.251 41.304,12.842 C 41.185,12.608 40.964,12.395 40.715,12.334 C 40.263,12.224 39.763,12.43 39.338,12.624 C 38.714,12.908 37.872,13.534 37.4,14.041 C 35.794,15.765 34.497,17.282 32.974,18.885 C 32.454,19.434 31.754,20.413 31.07,20.105 C 30.597,19.892 30.695,19.088 30.755,18.568 C 30.936,16.989 31.263,15.368 31.44,13.758 C 31.523,13 31.68,12.174 31.618,11.474 C 31.582,11.088 31.542,10.718 31.323,10.402 C 31.169,10.177 30.855,10.057 30.59,10.014 A 1.11,1.11 0 0,0 30.43,10.002 L 30.434,10.001 Z M 22.468,25.564 A 7.39,7.39 0 0,0 21.03,25.704 A 7.227,7.227 0 0,0 19.68,26.1 C 19.668,26.104 19.668,26.116 19.66,26.12 C 19.664,26.132 19.669,26.157 19.676,26.17 C 20.473,28.326 21.423,30.539 22.882,32.29 C 24.367,34.071 26.236,35.487 28.259,36.57 L 28.307,36.59 C 28.339,36.55 28.361,36.511 28.389,36.47 A 6.964,6.964 0 0,0 29.465,33.967 A 6.967,6.967 0 0,0 29.465,31.147 A 6.958,6.958 0 0,0 28.39,28.644 A 7.002,7.002 0 0,0 27.52,27.614 A 7.17,7.17 0 0,0 26.465,26.754 A 7.235,7.235 0 0,0 22.471,25.562 L 22.468,25.564 Z" fill="rgb(254, 254, 253)"/>
<path d="M 32.822,38.035 C 32.963,37.797 33.076,37.554 33.188,37.29 A 10.977,10.977 0 0,0 34.003,34.138 C 34.043,33.77 34.058,33.396 34.058,33.018 A 10.547,10.547 0 0,0 33.832,30.81 A 10.832,10.832 0 0,0 33.188,28.751 A 10.93,10.93 0 0,0 32.174,26.882 A 11.033,11.033 0 0,0 29.188,23.921 A 10.99,10.99 0 0,0 27.318,22.912 A 11.042,11.042 0 0,0 25.242,22.278 A 10.945,10.945 0 0,0 21.885,22.108 A 11.546,11.546 0 0,0 18.943,22.82 C 19.013,23.715 19.257,25.093 19.631,26.125 A 7.237,7.237 0 0,1 22.44,25.563 A 7.206,7.206 0 0,1 25.221,26.113 C 25.648,26.29 26.054,26.503 26.433,26.755 C 26.813,27.006 27.165,27.299 27.488,27.615 C 27.811,27.932 28.102,28.273 28.358,28.645 A 6.947,6.947 0 0,1 29.433,31.148 C 29.529,31.603 29.578,32.075 29.578,32.558 A 6.82,6.82 0 0,1 29.016,35.28 A 6.94,6.94 0 0,1 28.358,36.472 C 28.331,36.512 28.302,36.55 28.273,36.591 C 29.654,37.323 31.307,37.731 32.831,38.049 Z" fill="rgb(212, 16, 2)"/>
</svg>
