<?xml version="1.0" encoding="UTF-8"?>
<!-- generated by Finnhub -->
<svg viewBox="0 0 55.5 55.5" xmlns="http://www.w3.org/2000/svg">
<path d="M 0,28 A 28,28 0 1,1 56,28 A 28,28 0 0,1 0,28 Z" fill="rgb(239, 242, 248)"/>
<path d="M 31.75,20.985 L 30.31,30 H 32 L 33.5,21 H 31.76 Z M 9.87,21.84 C 9.79,21.98 9.21,23.17 8.59,24.48 L 6,30 H 8.2 L 9,28 H 11.5 L 11.8,30 H 13.89 S 13.17,24.7 12.65,22.1 C 12.37,20.67 10.56,20.72 9.87,21.84 Z M 42.5,21 L 45.1,26.48 L 41,32 H 43 L 47,26.48 L 44.42,21 H 42.5 Z M 16.5,24.44 A 93.5,93.5 0 0,0 15.88,28.31 C 15.79,29.06 15.98,29.77 16.84,29.95 C 17.02,29.99 17.4,30 18.57,30 H 20.07 L 20.32,28 L 18.05,27.98 C 17.63,27.98 17.61,27.78 17.67,27.36 C 17.77,26.68 18.1,25.39 18.14,25.27 C 18.19,25.11 18.31,25.07 18.45,25 C 19.32,24.64 21.14,24 21.14,24 L 21.22,23 H 18.05 C 17.14,23.05 16.65,23.59 16.49,24.44 Z M 23.2,24.24 C 23.18,24.34 23.02,25.27 22.86,26.31 C 22.73,27.11 22.65,28.01 22.61,28.36 C 22.51,29.15 22.78,29.82 23.67,29.96 C 23.8,29.99 24.65,30 25.87,30 H 27.86 L 28.22,28 H 24.79 C 24.3,28 24.24,27.52 24.39,27.36 L 26.42,26.63 L 28.44,25.89 A 9.84,9.84 0 0,0 28.68,24.07 C 28.61,22.95 27.9,23 27,23 H 24.93 C 24.12,23 23.45,23.37 23.21,24.23 Z M 11.3,26 H 9.76 L 10.86,23.43 L 11.29,26 Z M 26.8,24.7 C 26.87,24.75 26.9,24.8 26.9,24.87 C 26.9,24.97 26.9,24.97 25.78,25.36 L 24.65,25.74 C 24.62,25.72 24.75,25.04 24.8,24.95 A 0.6,0.6 0 0,1 25.17,24.65 C 25.25,24.63 25.63,24.62 26.01,24.62 C 26.66,24.62 26.71,24.63 26.8,24.7 Z" fill="rgb(0, 116, 200)"/>
<path d="M 36.59,20.985 H 40.74 C 41.67,21 42.37,21.87 42.21,22.78 L 41.71,25.75 A 1.5,1.5 0 0,1 40.23,27 H 39.63 L 40.97,30 H 38.77 L 37.4,26.97 C 37.1,25.99 37.84,25 38.86,25 H 39.59 A 0.5,0.5 0 0,0 40.09,24.57 L 40.23,23.57 A 0.5,0.5 0 0,0 39.73,23 H 37.63 L 36.45,30 H 34.76 L 36.22,21 H 36.6 Z M 46,28.36 L 46.72,30 H 48.77 L 47.67,27.3 H 47.66 L 47.3,26.58 L 46,28.36 Z M 47.36,26.46 L 46.54,24.78 L 47.95,23 H 50 L 47.36,26.46 Z M 30.77,32.3 L 30.34,35 H 31.03 L 31.45,32.3 H 30.77 Z M 30.93,31.3 A 0.43,0.43 0 0,0 30.79,31.61 C 30.79,31.73 30.83,31.82 30.9,31.91 C 30.98,31.98 31.07,32.02 31.18,32.02 C 31.31,32.02 31.42,31.98 31.51,31.89 A 0.4,0.4 0 0,0 31.65,31.59 A 0.45,0.45 0 0,0 31.54,31.29 A 0.34,0.34 0 0,0 31.27,31.16 A 0.48,0.48 0 0,0 30.93,31.3 Z M 7.93,35 L 8.52,31.29 H 9.2 L 9.04,32.29 H 9.97 C 10.13,32.29 10.27,32.34 10.37,32.44 C 10.47,32.54 10.51,32.66 10.51,32.82 V 32.92 L 10.16,35 H 9.5 L 9.78,33.19 L 9.8,33.09 C 9.8,33.02 9.75,32.99 9.65,32.99 H 9.15 C 9.07,32.99 9.01,33 8.98,33.03 S 8.93,33.11 8.91,33.19 L 8.62,35 H 7.93 Z M 5,35 L 5.57,31.4 H 7.37 A 0.7,0.7 0 0,1 7.86,31.56 C 7.98,31.66 8.04,31.8 8.04,31.99 L 8.03,32.12 L 7.89,33 A 0.83,0.83 0 0,1 7.62,33.52 A 0.81,0.81 0 0,1 7.07,33.7 H 5.97 L 5.77,35 H 5 Z M 6.22,32.17 L 6.11,32.91 H 7 L 7.08,32.87 C 7.11,32.84 7.14,32.79 7.15,32.72 L 7.2,32.39 L 7.21,32.33 C 7.21,32.23 7.14,32.17 7,32.17 H 6.21 Z M 12.64,32.3 H 11.08 L 10.98,32.95 H 12.36 C 12.47,32.95 12.52,32.98 12.52,33.06 V 33.13 L 12.5,33.19 H 11.6 A 0.78,0.78 0 0,0 11.07,33.37 A 0.75,0.75 0 0,0 10.83,33.84 L 10.74,34.39 V 34.49 C 10.74,34.83 10.94,35 11.34,35 H 12.28 C 12.46,35 12.61,34.94 12.75,34.82 A 0.71,0.71 0 0,0 13,34.37 L 13.23,32.94 V 32.82 C 13.23,32.47 13.03,32.3 12.63,32.3 Z M 11.5,34.3 A 0.14,0.14 0 0,1 11.46,34.2 V 34.18 L 11.49,34.01 C 11.5,33.94 11.52,33.89 11.54,33.87 C 11.57,33.84 11.62,33.83 11.69,33.83 H 12.22 C 12.27,33.83 12.31,33.84 12.34,33.86 C 12.37,33.88 12.39,33.9 12.39,33.93 V 33.99 L 12.35,34.18 C 12.33,34.28 12.26,34.34 12.15,34.34 H 11.61 A 0.18,0.18 0 0,1 11.5,34.3 Z M 13.38,35 L 13.69,33 C 13.76,32.53 14.03,32.3 14.49,32.3 H 14.96 L 14.86,32.99 H 14.6 C 14.45,32.99 14.37,33.06 14.34,33.2 L 14.06,35 H 13.38 Z M 15.11,32.95 L 14.8,35 H 15.49 L 15.76,33.19 C 15.78,33.05 15.86,32.99 15.99,32.99 H 16.29 C 16.34,32.99 16.38,32.99 16.4,33.02 C 16.43,33.04 16.44,33.07 16.44,33.12 V 33.16 L 16.14,35 H 16.82 L 17.11,33.18 S 17.12,33 17.31,33 H 17.64 C 17.78,33 17.78,33.15 17.78,33.15 V 33.19 L 17.48,35 H 18.17 L 18.5,32.95 L 18.51,32.78 A 0.45,0.45 0 0,0 18.36,32.43 A 0.56,0.56 0 0,0 17.97,32.3 H 17.44 C 17.24,32.3 17.09,32.34 16.99,32.42 L 16.94,32.47 A 0.27,0.27 0 0,0 16.87,32.53 A 0.52,0.52 0 0,0 16.77,32.39 A 0.29,0.29 0 0,0 16.64,32.34 A 1.06,1.06 0 0,0 16.37,32.29 H 15.85 A 0.75,0.75 0 0,0 15.12,32.94 Z M 19.08,32.3 H 20.63 C 21.03,32.3 21.23,32.47 21.23,32.82 V 32.94 L 21,34.37 A 0.71,0.71 0 0,1 20.75,34.82 A 0.71,0.71 0 0,1 20.27,35 H 19.34 C 18.94,35 18.73,34.83 18.73,34.48 V 34.39 L 18.83,33.84 C 18.86,33.64 18.93,33.47 19.07,33.36 C 19.2,33.26 19.37,33.2 19.59,33.2 H 20.49 L 20.51,33.13 V 33.06 C 20.51,32.98 20.46,32.94 20.36,32.94 H 18.98 L 19.08,32.3 Z M 19.45,34.2 C 19.45,34.24 19.47,34.27 19.49,34.3 C 19.52,34.32 19.56,34.34 19.61,34.34 H 20.14 C 20.26,34.34 20.33,34.28 20.34,34.18 L 20.38,33.99 V 33.93 C 20.38,33.9 20.37,33.88 20.33,33.86 A 0.23,0.23 0 0,0 20.21,33.83 H 19.68 C 19.61,33.83 19.56,33.84 19.54,33.87 C 19.51,33.89 19.5,33.94 19.48,34.01 L 19.46,34.18 V 34.2 Z M 23.47,32.98 L 23.57,32.3 H 22.33 A 0.61,0.61 0 0,0 21.88,32.47 A 0.8,0.8 0 0,0 21.66,32.94 L 21.44,34.31 L 21.43,34.49 C 21.43,34.83 21.63,35 22.05,35 H 23.15 L 23.25,34.31 H 22.32 C 22.22,34.31 22.16,34.26 22.16,34.15 V 34.13 L 22.31,33.18 V 33.09 C 22.33,33.05 22.35,33.02 22.38,33 A 0.48,0.48 0 0,1 22.55,32.98 H 23.47 Z M 25.8,35 H 24.29 C 24.14,35 24.03,34.99 23.96,34.97 A 0.46,0.46 0 0,1 23.78,34.83 A 0.54,0.54 0 0,1 23.68,34.68 A 0.42,0.42 0 0,1 23.64,34.51 V 34.38 L 23.66,34.29 L 23.88,32.93 A 0.7,0.7 0 0,1 24.13,32.47 A 0.8,0.8 0 0,1 24.65,32.3 H 25.58 A 0.6,0.6 0 0,1 25.99,32.43 C 26.09,32.51 26.13,32.63 26.13,32.81 V 32.95 L 26.04,33.49 L 24.39,34.08 V 34.13 L 24.38,34.17 C 24.38,34.22 24.39,34.25 24.41,34.28 C 24.43,34.3 24.46,34.31 24.49,34.31 H 25.9 L 25.8,35 Z M 24.52,33.19 L 24.47,33.47 L 25.39,33.15 V 33.13 C 25.39,33.09 25.38,33.07 25.35,33.05 A 0.15,0.15 0 0,0 25.25,33.02 H 24.77 A 0.28,0.28 0 0,0 24.6,33.06 A 0.18,0.18 0 0,0 24.52,33.19 Z M 28.58,34.35 L 28.91,32.3 H 28.21 L 27.93,34.13 C 27.91,34.25 27.83,34.31 27.68,34.31 H 27.25 C 27.12,34.31 27.05,34.27 27.05,34.17 V 34.12 L 27.35,32.3 H 26.66 L 26.34,34.35 L 26.33,34.49 C 26.33,34.83 26.51,35 26.88,35 H 27.83 C 28.03,35 28.2,34.95 28.33,34.84 A 0.78,0.78 0 0,0 28.58,34.35 Z M 28.95,35 L 29.53,31.29 H 30.22 L 30.06,32.29 H 30.52 L 30.41,32.99 H 29.95 L 29.63,35 H 28.95 Z M 33.74,32.3 L 33.64,32.99 H 32.71 C 32.63,32.99 32.57,32.99 32.54,33.01 C 32.51,33.01 32.49,33.05 32.48,33.1 L 32.47,33.18 L 32.32,34.13 V 34.15 C 32.32,34.26 32.37,34.31 32.48,34.31 H 33.42 L 33.32,35 H 32.22 C 31.8,35 31.59,34.83 31.59,34.5 L 31.6,34.3 L 31.82,32.94 A 0.8,0.8 0 0,1 32.04,32.47 A 0.61,0.61 0 0,1 32.49,32.3 H 33.74 Z M 35.7,32.3 H 34.15 L 34.05,32.95 H 35.43 C 35.53,32.95 35.59,32.98 35.59,33.06 V 33.13 L 35.57,33.19 H 34.67 A 0.78,0.78 0 0,0 34.14,33.37 A 0.75,0.75 0 0,0 33.9,33.84 L 33.81,34.39 V 34.49 C 33.81,34.83 34.01,35 34.41,35 H 35.35 C 35.52,35 35.68,34.94 35.82,34.82 A 0.71,0.71 0 0,0 36.07,34.37 L 36.3,32.94 V 32.82 C 36.3,32.47 36.1,32.3 35.7,32.3 Z M 34.57,34.3 A 0.14,0.14 0 0,1 34.53,34.2 V 34.18 L 34.56,34.01 C 34.56,33.94 34.59,33.89 34.61,33.87 C 34.64,33.84 34.69,33.83 34.76,33.83 H 35.29 L 35.41,33.86 C 35.44,33.88 35.46,33.9 35.46,33.93 V 33.99 L 35.42,34.18 C 35.4,34.28 35.33,34.34 35.22,34.34 H 34.68 A 0.18,0.18 0 0,1 34.57,34.3 Z M 36.45,35 L 37.03,31.29 H 37.72 L 37.13,35 H 36.45 Z M 37.67,34.31 L 37.56,35 H 38.97 C 39.07,35 39.17,34.99 39.23,34.97 A 0.87,0.87 0 0,0 39.45,34.82 A 0.7,0.7 0 0,0 39.7,34.4 L 39.8,33.9 V 33.84 A 0.53,0.53 0 0,0 39.3,33.3 H 38.72 C 38.6,33.3 38.54,33.26 38.54,33.17 L 38.55,33.09 C 38.57,33.02 38.64,32.99 38.77,32.99 H 39.94 L 40.04,32.29 H 38.67 A 0.79,0.79 0 0,0 38.21,32.42 A 0.73,0.73 0 0,0 37.91,32.91 L 37.82,33.41 V 33.5 C 37.82,33.63 37.87,33.75 37.98,33.84 C 38.08,33.94 38.22,33.99 38.38,33.99 H 38.96 C 38.99,33.99 39.01,34 39.03,34.02 L 39.06,34.11 V 34.13 L 39.05,34.18 C 39.03,34.28 38.97,34.31 38.86,34.31 H 37.66 Z" fill="rgb(137, 136, 140)"/>
</svg>
