<?xml version="1.0" encoding="UTF-8"?>
<!-- generated by Finnhub -->
<svg viewBox="0 0 55.5 55.5" xmlns="http://www.w3.org/2000/svg">
<path d="M 0,0 H 55.5 V 55.5 H 0 Z" fill="rgb(239, 242, 248)"/>
<path d="M 42.99,19.485 L 28,11 L 13,19.5 V 36.5 L 28,45 L 43,36.5 V 19.5 Z M 21,25 V 32 H 22 V 25 H 24 V 24 H 19 V 25 H 21 Z M 25,32 V 24 H 26.03 L 28.41,27.6 L 30.9,24 H 34.54 C 35.31,24.06 37.01,24.65 37.01,26.48 C 37.01,28.15 36.11,28.73 35.36,28.91 L 37.5,32 H 36.29 L 34.25,29 H 33 V 28 H 35.1 C 35.49,27.91 36.18,27.5 36.18,26.48 C 36.18,25.47 35.04,24.98 34.53,25 H 32 V 32 H 31 V 25.6 L 28.41,29.37 L 26,25.61 V 32 H 25 Z" fill="rgb(228, 24, 2)" fill-rule="evenodd"/>
</svg>
