<?xml version="1.0" encoding="UTF-8"?>
<!-- generated by Finnhub -->
<svg fill="none" viewBox="0 0 55.5 55.5" xmlns="http://www.w3.org/2000/svg">
<rect width="56" height="56" fill="rgb(254, 177, 24)"/>
<path d="M 3.99,25.985 H 5 V 24 H 6.5 V 26 H 8 V 27.5 H 6.5 V 29.5 C 6.48207,30.562 6.95783,30.5181 8,30.5 V 31.9989 C 6,31.9989 4.9598,31.4045 5,29.51 V 27.5 H 4 V 26 Z" fill="url(#g)"/>
<path d="M 8.99,21.985 H 10.5 V 26.0135 C 10.9757,25.3789 11.6035,25.0009 12.3693,25.0135 C 14.0986,25.0135 15.001,26.379 15,27.999 V 32 H 13.5 V 28.1365 C 13.5,26.9827 13.0752,26.5038 12.0164,26.5 C 10.9577,26.4915 10.5002,27.2693 10.5173,28.2327 V 32 H 9 V 22 Z" fill="url(#f)"/>
<path d="M 37.512,26.485 C 36.5843,26.4769 35.7242,27.0987 35.4636,28 H 39.5273 C 39.3432,27.0263 38.4648,26.5011 37.522,26.5 Z M 37.5762,31.9981 C 35.6072,32.0222 33.9865,30.518 34.0003,28.5251 C 33.9865,26.5955 35.5882,24.9837 37.522,25.0001 C 39.4446,24.9833 41.0191,26.4904 41,28.4306 V 28.9975 H 35.3903 C 35.5733,30.0773 36.5203,30.5 37.5753,30.5 C 38.4004,30.5199 39.1983,30.2478 39.5539,29.5077 L 40.7462,30.169 C 40.117,31.3647 38.9099,32 37.58,32" fill="url(#e)"/>
<path d="M 43.49,21.985 H 42 V 32 H 43.5 V 22 Z" fill="url(#d)"/>
<path d="M 24.488999999999997,31.985 H 22.9999 V 28.0659 C 23.0007,27.0271 22.434,26.5191 21.499,26.5191 C 20.6725,26.5197 19.999,27.2729 19.9999,28.0659 V 34 H 18.4999 V 28.0659 C 18.4999,26.4928 19.8603,25 21.4999,25 C 23.2561,25 24.4999,26.2397 24.4999,28.0659 L 24.499,32 Z" fill="url(#c)"/>
<path d="M 18.49,30.485 C 17.6667,30.4844 17.5009,29.7795 17.5,29.0014 V 25 H 16 V 29.0014 C 16,31.0032 16.8446,32 18.5,32 V 30.5 Z" fill="rgb(239, 242, 248)"/>
<path d="M 22.49,29.485 V 23 H 21 V 29.5 C 20.9982,29.8772 20.5,30.5 20,30.5 V 32 C 21.5,32 22.4992,30.779 22.5,29.5 Z" fill="rgb(239, 242, 248)"/>
<path d="M 25.99,28.485 C 26,30.2026 27.4,32 29.2557,32.001 L 29.2667,32 C 30.1895,32.0035 31.0402,31.751 31.6,31 V 31.8323 C 31.6099,33.0939 30.5944,34.5198 29.4074,34.5 C 28.5121,34.5 27.7986,34.1603 27.4117,33.2532 L 26,33.9392 C 26.6767,35.3689 27.9665,35.9995 29.4044,35.9995 C 31.4357,36.0332 33.0215,34.4827 32.9998,32.2739 V 25.0001 H 31.6 V 26 C 31.029,25.2804 30.1613,24.9947 29.2557,25.0001 C 27.2917,24.9958 26,26.7026 26,28.5 Z M 29.5,30.5 C 30.6046,30.5 31.5,29.6046 31.5,28.5 S 30.6046,26.5 29.5,26.5 S 27.5,27.3954 27.5,28.5 S 28.3954,30.5 29.5,30.5 Z" clip-rule="evenodd" fill="url(#b)" fill-rule="evenodd"/>
<path d="M 44.99,28.483 C 44.9729,30.3458 46.4456,32.0012 48.3327,31.9984 L 48.3355,32.0003 C 49.1918,32.0051 49.9713,31.6146 50.4996,30.9362 V 31.9984 H 51.9996 V 25.0004 H 50.4996 V 26.0069 C 49.9673,25.2152 49.1911,24.9952 48.3487,25.0004 C 46.4327,24.9963 44.9807,26.6155 45,28.498 Z M 48.4996,30.5003 C 49.6042,30.5003 50.4996,29.6049 50.4996,28.5003 C 50.4996,27.3958 49.6042,26.5003 48.4996,26.5003 S 46.4996,27.3958 46.4996,28.5003 C 46.4996,29.6049 47.395,30.5003 48.4996,30.5003 Z" clip-rule="evenodd" fill="url(#a)" fill-rule="evenodd"/>
<defs>
<linearGradient id="g" x1="6" x2="6" y1="24" y2="31.999" gradientUnits="userSpaceOnUse">
<stop stop-color="rgb(23, 26, 28)" offset="0"/>
<stop stop-color="rgb(23, 26, 28)" offset="1"/>
</linearGradient>
<linearGradient id="f" x1="12" x2="12" y1="22" y2="32" gradientUnits="userSpaceOnUse">
<stop stop-color="rgb(23, 26, 28)" offset="0"/>
<stop stop-color="rgb(23, 26, 28)" offset="1"/>
</linearGradient>
<linearGradient id="e" x1="37.5" x2="37.5" y1="25" y2="32" gradientUnits="userSpaceOnUse">
<stop stop-color="rgb(23, 26, 28)" offset="0"/>
<stop stop-color="rgb(23, 26, 28)" offset="1"/>
</linearGradient>
<linearGradient id="d" x1="42.75" x2="42.75" y1="22" y2="32" gradientUnits="userSpaceOnUse">
<stop stop-color="rgb(23, 26, 28)" offset="0"/>
<stop stop-color="rgb(23, 26, 28)" offset="1"/>
</linearGradient>
<linearGradient id="c" x1="21.5" x2="21.5" y1="25" y2="34" gradientUnits="userSpaceOnUse">
<stop stop-color="rgb(23, 26, 28)" offset="0"/>
<stop stop-color="rgb(23, 26, 28)" offset="1"/>
</linearGradient>
<linearGradient id="b" x1="29.5" x2="29.5" y1="25" y2="36" gradientUnits="userSpaceOnUse">
<stop stop-color="rgb(23, 26, 28)" offset="0"/>
<stop stop-color="rgb(23, 26, 28)" offset="1"/>
</linearGradient>
<linearGradient id="a" x1="48.5" x2="48.5" y1="25" y2="32" gradientUnits="userSpaceOnUse">
<stop stop-color="rgb(23, 26, 28)" offset="0"/>
<stop stop-color="rgb(23, 26, 28)" offset="1"/>
</linearGradient>
</defs>
</svg>
