<?xml version="1.0" encoding="UTF-8"?>
<!-- generated by Finnhub -->
<svg viewBox="0 0 55.5 55.5" xmlns="http://www.w3.org/2000/svg">
<path d="M 0,0 H 55.5 V 55.5 H 0 Z" fill="rgb(239, 242, 248)"/>
<path d="M 34.85,21.775 H 34.41 C 37.73,15.3 34.98,13.55 33.19,13.49 C 26.03,13.49 17.65,23.36 15.51,27.79 C 15.05,28.76 11.55,36 17,36 C 21.36,36 27.32,31.08 29.73,28.58 L 27.93,35.59 C 26.1,37.16 21.42,40 17.28,40 C 13.14,40 12.04,37.16 12,35.6 C 11.73,23.8 27.56,13 32.9,13 C 34.65,13 36.43,13.9 36.43,16.56 C 36.43,18.67 35.39,20.93 34.87,21.79 Z" fill="rgb(1, 167, 75)"/>
<path d="M 28.869999999999997,28.985 H 22.71 L 23.76,26 H 35.74 L 30.94,41 H 25.13 L 28.88,29 Z" fill="rgb(1, 90, 170)"/>
<circle cx="31.5" cy="22.5" r="2.5" fill="rgb(1, 167, 75)"/>
<circle cx="40.5" cy="19.5" r="1.5" fill="rgb(1, 167, 75)"/>
<path d="M 42.43,30.955 C 41.47,32.72 39.59,33.49 38.24,32.67 C 36.9,31.87 36.6,29.78 37.56,28.03 C 38.53,26.28 40.41,25.51 41.76,26.33 C 43.1,27.13 43.4,29.22 42.44,30.97 Z" fill="rgb(1, 90, 170)"/>
</svg>
