<?xml version="1.0" encoding="UTF-8"?>
<!-- generated by Finnhub -->
<svg viewBox="0 0 55.5 55.5" xmlns="http://www.w3.org/2000/svg">
<path d="M 0,0 H 55.5 V 55.5 H 0 Z" fill="rgb(1, 55, 108)"/>
<path d="M 11.228,26.985 C 10.967,27.02 10.618,27.13 10.346,27.283 C 9.456,27.761 9.105,28.58 9.027,29.44 C 8.989,29.841 9.085,30.377 9.473,30.702 C 9.899,31.065 10.829,31.046 11.275,30.912 C 12.127,30.644 12.749,29.902 13.001,28.965 C 13.117,28.525 13.059,27.857 12.749,27.513 C 12.323,27.016 11.606,26.943 11.238,27 Z M 9.996,29.937 C 9.957,29.459 10.269,27.895 11.006,27.589 C 11.238,27.474 11.567,27.436 11.799,27.609 C 12.09,27.819 12.109,28.162 12.09,28.315 C 12.07,28.812 11.798,30.013 11.159,30.434 C 10.945,30.549 10.539,30.606 10.345,30.491 C 10.112,30.377 10.015,30.185 9.995,29.937 Z M 15.324,25.714 H 14.994 L 13.774,26.268 L 13.716,26.574 C 14.2,26.574 14.2,26.574 14.104,26.975 L 13.448,30.289 C 13.39,30.595 13.37,30.614 12.886,30.691 L 12.828,30.996 H 14.727 L 14.785,30.671 C 14.339,30.614 14.339,30.595 14.397,30.251 L 15.324,25.714 Z M 29.198,27.472 L 29.295,27.052 H 28.965 L 27.725,27.586 L 27.648,27.892 C 28.151,27.892 28.151,28.122 28.035,28.522 L 27.648,30.316 C 27.57,30.603 27.551,30.622 27.067,30.679 L 27,31.004 H 28.907 L 28.985,30.679 C 28.52,30.603 28.52,30.584 28.598,30.239 L 28.908,28.848 C 29.023,28.274 29.159,27.911 29.333,27.873 C 29.45,27.853 29.643,27.816 29.973,28.026 C 30.458,28.332 30.923,27.911 30.864,27.433 A 0.536,0.536 0 0,0 30.574,27.033 C 30.128,26.86 29.547,27.147 29.198,27.472 Z M 36.832,26.004 H 36.522 L 36.425,26.195 S 35.849,27.147 35.055,27.28 L 34.996,27.701 H 35.456 L 34.952,29.536 C 34.855,30.013 34.681,30.491 34.875,30.72 C 35.088,31.045 35.883,31.026 36.153,30.93 C 36.444,30.816 36.715,30.682 36.967,30.414 L 36.754,30.204 C 36.541,30.472 36.018,30.491 35.94,30.357 C 35.863,30.242 35.882,30.109 35.998,29.612 L 36.425,27.701 H 37.297 L 37.374,27.281 H 36.851 C 36.677,27.281 36.502,27.3 36.619,26.879 L 36.832,26.004 Z M 40.204,29.077 L 39.968,30.289 C 39.89,30.633 39.89,30.614 39.425,30.671 L 39.367,30.996 H 41.267 L 41.324,30.671 C 40.879,30.595 40.879,30.576 40.937,30.231 L 41.23,28.657 C 41.308,28.237 41.424,27.759 41.114,27.472 C 40.649,27.052 39.738,27.166 39.119,27.587 L 39.506,25.542 H 39.176 L 37.956,26.077 L 37.898,26.383 C 38.343,26.306 38.382,26.23 38.343,26.613 L 38.053,28.198 L 37.643,30.289 C 37.584,30.595 37.584,30.614 37.1,30.672 L 37.042,30.997 H 38.941 L 38.999,30.672 C 38.553,30.595 38.534,30.595 38.611,30.232 L 39.001,28.142 C 39.583,27.682 40.067,27.797 40.222,27.931 C 40.416,28.121 40.339,28.389 40.204,29.077 Z M 45.125,29.707 L 44.835,29.555 C 44.389,30.701 43.167,30.778 42.838,30.128 C 42.683,29.841 42.683,29.287 42.897,28.733 H 45.377 C 45.493,27.893 45.172,27.382 44.747,27.172 C 44.223,26.904 43.37,26.962 42.827,27.363 C 41.975,28.013 41.695,28.963 41.695,29.497 C 41.695,31.37 44.408,31.542 45.125,29.707 Z M 44.436,28.165 H 43.138 C 43.371,27.765 43.642,27.611 43.758,27.573 C 43.933,27.516 44.126,27.516 44.262,27.611 C 44.378,27.707 44.494,27.841 44.436,28.165 Z" fill="rgb(254, 254, 253)"/>
<path d="M 7.8580000000000005,26.195 L 6.942,29.888 C 6.787,30.538 6.67,30.595 6.068,30.633 L 6,30.996 H 8.457 L 8.554,30.633 C 7.991,30.595 7.874,30.709 8.069,29.869 L 8.936,26.383 C 10.004,26.573 10.684,26.192 11.248,25.753 C 11.384,25.657 11.384,25.466 11.248,25.447 C 10.995,25.427 11.112,25.714 11.034,25.733 C 9.907,26.001 9.034,25.561 8.042,25.313 L 7.673,25.217 C 6.916,25.027 5.615,24.835 4.876,25.237 C 4.294,25.542 4.041,26.115 4.002,26.459 C 3.982,26.803 4.08,27.319 4.585,27.644 C 4.954,27.892 5.304,27.911 5.77,27.854 A 0.859,0.859 0 0,0 6.352,27.453 C 6.43,27.319 6.508,27.07 6.314,26.879 A 0.525,0.525 0 0,0 5.906,26.746 C 5.614,26.784 5.536,27.013 5.401,27.224 C 5.245,27.357 4.973,27.357 4.818,27.281 C 4.488,27.128 4.468,26.803 4.429,26.593 A 0.89,0.89 0 0,1 4.857,25.81 C 5.479,25.485 7.033,25.943 7.868,26.21 Z M 17.541,25.714 H 17.211 L 15.987,26.268 L 15.929,26.555 C 16.415,26.555 16.415,26.575 16.318,26.975 L 15.659,30.289 C 15.601,30.595 15.582,30.614 15.096,30.671 L 15.038,30.996 H 16.941 L 17,30.671 C 16.553,30.595 16.553,30.595 16.63,30.231 L 17.541,25.714 Z M 32.59,27 A 2.662,2.662 0 0,0 31.716,27.306 C 30.823,27.784 30.459,28.58 30.381,29.44 C 30.342,29.822 30.44,30.377 30.828,30.701 C 31.255,31.064 32.188,31.045 32.634,30.911 C 33.489,30.644 34.124,29.905 34.377,28.988 C 34.493,28.548 34.416,27.879 34.125,27.516 C 33.697,27.02 32.959,26.943 32.59,27 Z M 31.372,29.918 C 31.333,29.459 31.619,27.918 32.357,27.593 C 32.59,27.497 32.94,27.459 33.173,27.631 C 33.464,27.841 33.464,28.185 33.464,28.319 C 33.426,28.835 33.159,30.013 32.518,30.434 C 32.324,30.549 31.896,30.606 31.702,30.491 C 31.488,30.377 31.392,30.185 31.372,29.918 Z M 51.691,28.179 L 52.001,28.122 L 51.846,27.09 H 51.594 L 51.458,27.205 C 50.584,26.861 49.846,26.995 49.36,27.453 C 49.05,27.74 48.912,28.255 48.99,28.561 C 49.087,29.039 49.69,29.268 50.02,29.363 L 50.175,29.402 C 50.292,29.44 50.835,29.554 50.951,29.822 C 51.011,29.956 50.971,30.147 50.874,30.281 C 50.622,30.586 50.117,30.548 49.864,30.491 C 49.631,30.472 49.009,30.071 48.854,29.593 L 48.504,29.65 L 48.621,30.835 H 48.911 L 49.048,30.701 C 49.32,30.835 49.534,30.911 49.708,30.931 C 50.349,31.064 51.243,31.045 51.67,30.472 C 51.903,30.166 52,29.726 51.864,29.306 C 51.69,28.771 51.03,28.542 50.68,28.446 L 50.525,28.389 C 50.35,28.332 49.962,28.236 49.903,28.026 C 49.865,27.95 49.865,27.778 49.962,27.644 C 50.117,27.434 50.447,27.396 50.622,27.414 C 51.205,27.472 51.574,27.778 51.691,28.179 Z M 22.828,25 C 22.031,24.981 20.438,24.994 19.836,25.471 C 19.273,25.911 19.196,26.465 19.254,26.866 C 19.331,27.401 19.701,27.726 20.186,27.879 C 20.4,27.994 21.196,27.974 21.526,27.765 C 21.759,27.631 21.954,27.459 21.915,27.191 C 21.895,27.001 21.837,26.886 21.643,26.79 A 0.522,0.522 0 0,0 21.196,26.79 C 20.886,26.981 20.944,27.134 20.71,27.21 C 20.477,27.306 20.263,27.306 20.05,27.153 C 19.836,26.981 19.817,26.656 19.836,26.484 C 19.856,26.179 20.089,25.834 20.516,25.701 C 21.06,25.51 22.129,25.51 22.556,25.529 C 22.847,25.548 23.139,25.605 23.003,26.102 L 22.054,29.911 C 21.899,30.541 21.684,30.599 21.101,30.656 L 21.004,31 H 24.074 C 25.026,31 25.9,31.02 26.522,30.312 C 26.872,29.93 27.007,29.395 26.93,28.974 C 26.852,28.497 26.5,27.802 26.052,27.65 C 26.887,27.516 27.295,27.134 27.432,26.618 C 27.509,26.35 27.432,25.892 27.256,25.643 C 26.81,25.051 26.032,25 25.606,25 H 22.828 Z M 23.045,30.407 L 23.641,28.045 C 24.204,28.045 24.981,28.026 25.311,28.255 C 25.603,28.447 25.706,28.822 25.667,29.109 C 25.589,29.586 25.259,30.408 24.152,30.408 H 23.045 Z M 24.265,25.529 H 24.595 C 25.489,25.529 25.819,25.49 26.091,25.758 C 26.305,25.968 26.285,26.255 26.208,26.503 C 26.091,26.923 25.742,27.44 24.809,27.44 H 23.779 L 24.265,25.528 Z M 47.339,27.472 L 47.455,27.052 H 47.125 L 45.882,27.586 L 45.804,27.892 C 46.309,27.892 46.309,28.102 46.193,28.522 L 45.803,30.309 C 45.726,30.614 45.707,30.614 45.221,30.691 L 45.144,30.996 H 47.067 L 47.125,30.691 C 46.678,30.614 46.678,30.595 46.756,30.251 L 47.047,28.848 C 47.164,28.256 47.32,27.912 47.494,27.873 C 47.61,27.835 47.804,27.797 48.135,28.026 C 48.621,28.332 49.087,27.893 49.029,27.396 A 0.57,0.57 0 0,0 48.737,27.033 C 48.291,26.841 47.707,27.128 47.339,27.472 Z" fill="rgb(254, 254, 253)"/>
</svg>
