<?xml version="1.0" encoding="UTF-8"?>
<!-- generated by Finnhub -->
<svg viewBox="0 0 55.5 55.5" xmlns="http://www.w3.org/2000/svg">
<path d="M 0,0 H 55.5 V 55.5 H 0 Z" fill="rgb(239, 242, 248)"/>
<path d="M 17.349999999999998,20.945 A 321.37,321.37 0 0,1 14.71,33.06 H 34.69 L 37.92,17.66 C 37.51,13.48 36.49,12.14 36.02,12 A 0.98,0.98 0 0,0 35.08,12.86 C 34.97,13.54 34.21,15.08 33.85,15.76 C 33.14,15.4 31.09,15 28.59,15 S 23.35,15.4 22.29,15.76 C 21.96,14.51 21.04,12 20,12 C 18.98,12 18.57,15.78 18.49,17.67 C 16.64,17.05 13.09,16.47 12.99,18.72 C 12.92,20.51 15.87,20.96 17.35,20.96 Z"/>
<path d="M 29.34,19.605 C 29.35,23.36 26.31,26.96 24.8,28.29 L 41.62,34.53 L 38.82,20.95 C 39.22,20.86 40.27,20.67 41.32,20.62 C 42.62,20.56 43.14,19.46 42.97,18.3 C 42.79,17.14 42.05,17.03 41.31,17 C 40.71,16.97 38.9,17.34 38.06,17.53 A 16.5,16.5 0 0,0 29,15 C 29.2,15.13 29.35,15.89 29.35,19.62 Z" fill="rgb(239, 130, 2)"/>
<circle cx="22.5" cy="23.5" r="2.5" fill="rgb(254, 254, 253)"/>
<ellipse cx="22.99" cy="23.5" rx="1.49" ry="1.5"/>
<circle transform="matrix(-1 0 0 1 36 21)" cx="2.5" cy="2.5" r="2.5" fill="rgb(254, 254, 253)"/>
<circle transform="matrix(-1 0 0 1 34.5 22)" cx="1.5" cy="1.5" r="1.5"/>
<ellipse cx="28.03" cy="35.5" rx="14" ry="8.5" fill="rgb(253, 233, 178)"/>
<path d="M 35.89,36.155 C 36.06,36.37 36.02,36.65 35.82,36.8 C 34.82,37.57 31.91,39 27.89,39 S 21.09,37.57 20.16,36.8 A 0.44,0.44 0 0,1 20.11,36.16 A 0.46,0.46 0 0,1 20.75,36.11 C 21.51,36.73 24.07,38.11 27.89,38.11 C 31.7,38.11 34.42,36.73 35.26,36.09 C 35.46,35.94 35.75,35.98 35.9,36.17 Z"/>
</svg>
