<?xml version="1.0" encoding="UTF-8"?>
<!-- generated by Finnhub -->
<svg viewBox="0 0 55.5 55.5" xmlns="http://www.w3.org/2000/svg">
<path d="M 0,0 H 55.5 V 55.5 H 0 Z" fill="rgb(239, 242, 248)"/>
<path d="M 28.58,43.964999999999996 C 33.94,43.68 38,39.23 38,33.79 C 38,29.03 34.62,25.15 30.22,24.02 A 3,3 0 0,1 25,22 A 3,3 0 0,1 30.88,21.16 A 13.02,13.02 0 0,1 41,33.81 C 41,35.46 40.65,37.03 40.1,38.48 A 16.02,16.02 0 0,0 28.02,12 C 27.8,12 27.59,12 27.37,12.02 A 10.05,10.05 0 0,0 18,22.21 C 18,26.87 21.11,30.31 25.4,31.51 A 3,3 0 1,1 25.42,34.53 C 19.52,33.33 15,28.47 15,22.21 C 15,20.56 15.35,18.99 15.9,17.54 A 16.02,16.02 0 0,0 27.98,44 C 28.2,44 28.39,44 28.58,43.98 Z" fill="url(#a)"/>
<defs>
<linearGradient id="a" x1="28" x2="28" y1="12" y2="44" gradientUnits="userSpaceOnUse">
<stop stop-color="rgb(246, 189, 20)" offset="0"/>
<stop stop-color="rgb(239, 80, 33)" offset="1"/>
</linearGradient>
</defs>
</svg>
