<?xml version="1.0" encoding="UTF-8"?>
<!-- generated by Finnhub -->
<svg viewBox="0 0 55.5 55.5" xmlns="http://www.w3.org/2000/svg">
<path d="M 0,0 H 55.5 V 55.5 H 0 Z" fill="rgb(239, 242, 248)"/>
<path d="M 20.31,25.705 L 15.22,30.97 C 14.55,31.65 13.92,32.37 13.2,33 H 4 C 4.37,32.55 4.76,32.12 5.19,31.71 L 9.92,26.84 C 10.6,26.14 11.26,25.44 11.96,24.76 A 5.96,5.96 0 0,1 15.75,23.06 C 16.34,23.02 16.93,23.01 17.52,23 H 24.84 C 25.01,23 25.18,23.01 25.34,23.07 C 25.09,23.07 24.59,23.13 24.34,23.17 C 24.38,23.17 24.29,23.17 24.34,23.17 A 6.37,6.37 0 0,0 20.69,25.31 L 20.32,25.71 Z M 35.02,30.78 L 35.99,29.88 C 36.79,29.08 37.57,28.26 38.36,27.45 L 42.32,23.36 L 42.7,23 H 52 L 48.74,26.33 C 47.26,27.85 45.78,29.36 44.32,30.89 A 6.33,6.33 0 0,1 39.72,32.99 H 31.55 A 0.88,0.88 0 0,1 31.19,32.96 C 31.19,32.97 31.19,32.94 31.19,32.96 L 31.81,32.81 A 6.02,6.02 0 0,0 33.7,32.03 C 34.2,31.68 34.76,31.35 35.02,30.78 Z" fill="rgb(99, 183, 226)"/>
<path d="M 34.1,29.865 L 33.95,29.68 C 32.71,28.4 31.48,27.11 30.22,25.84 C 29.7,25.31 29.24,24.71 28.6,24.27 A 3.5,3.5 0 0,0 27.38,23.54 A 5.27,5.27 0 0,0 25.34,23 L 24.58,23.04 C 24.54,23.06 24.49,23.05 24.46,23.07 C 24.41,23.07 24.38,23.1 24.34,23.1 A 6.36,6.36 0 0,0 20.69,25.26 L 20.54,25.42 C 21.21,26.14 21.96,26.92 22.68,27.61 C 22.98,27.97 23.3,28.31 23.65,28.61 C 23.67,28.65 23.69,28.69 23.72,28.71 C 24.56,29.59 25.37,30.47 26.24,31.31 A 5.7,5.7 0 0,0 30.46,32.96 A 1.87,1.87 0 0,0 31.19,32.97 C 31.39,32.93 31.61,32.88 31.81,32.82 A 6,6 0 0,0 33.7,32.04 C 34.2,31.69 34.76,31.36 35.02,30.79 C 34.71,30.49 34.46,30.15 34.11,29.89 Z" fill="url(#a)"/>
<defs>
<linearGradient id="a" x1="33.09" x2="24.08" y1="31.99" y2="23.97" gradientUnits="userSpaceOnUse">
<stop stop-color="rgb(68, 138, 195)" offset="0"/>
<stop stop-color="rgb(77, 148, 203)" offset=".5"/>
<stop stop-color="rgb(68, 138, 195)" offset="1"/>
</linearGradient>
</defs>
</svg>
