<?xml version="1.0" encoding="UTF-8"?>
<!-- generated by Finnhub -->
<svg viewBox="0 0 55.5 55.5" xmlns="http://www.w3.org/2000/svg">
<path d="M 0,0 H 55.5 V 55.5 H 0 Z" fill="rgb(239, 242, 248)"/>
<path d="M 22.75,21.125 L 21.36,21.8 C 19.66,19.35 17.34,13.75 21.53,11 C 28.89,13.28 32.49,18.71 33.37,21.14 L 32.37,20.9 C 29.97,16.34 26.07,13.93 24.44,13.3 C 20.8,15.1 21.8,19.28 22.76,21.14 Z M 20.3,24.3 C 13.59,29.6 12.69,38.91 13.08,42.91 C 24.74,43.74 30.32,38.44 31.66,35.69 L 30.22,34.32 A 13.58,13.58 0 0,1 16.29,37.31 C 16.19,30.51 19.55,26.54 21.25,25.41 L 20.3,24.31 Z M 45,34.49 C 41.99,38.69 36.86,36.54 34.67,34.94 L 35,34 C 36.79,35.15 40.91,36.78 43.07,34 C 41.54,28.82 37.26,25.5 35.31,24.47 V 23.34 C 41.88,26.25 44.5,31.98 44.99,34.48 Z" fill="rgb(208, 209, 210)"/>
<path d="M 33.45,32.995 A 11.38,11.38 0 0,1 32.76,34.31 C 26.7,30.55 23.06,25.41 22.01,23.31 C 24.13,21.89 29.53,19.81 34.19,22.86 C 35.52,26.82 34.51,30.73 33.46,33.01 Z M 32.94,23.84 C 33.85,27.06 33.06,30.24 32.21,32.19 A 31.55,31.55 0 0,1 24.04,23.87 C 24.94,23.45 26.09,23.06 27.36,22.87 A 8.61,8.61 0 0,1 32.94,23.84 Z" fill="rgb(1, 105, 179)" fill-rule="evenodd"/>
</svg>
