<?xml version="1.0" encoding="UTF-8"?>
<!-- generated by Finnhub -->
<svg viewBox="0 0 55.5 55.5" xmlns="http://www.w3.org/2000/svg">
<path d="M 0,0 H 55.5 V 55.5 H 0 Z" fill="rgb(239, 242, 248)"/>
<path d="M 25.09,32.585 C 24.84,32.62 24.58,32.62 24.32,32.62 A 10.32,10.32 0 1,1 33.39,17.38 C 32.69,17.53 32.01,17.73 31.36,18 A 8.25,8.25 0 1,0 24.51,30.56 C 24.64,31.26 24.84,31.95 25.09,32.6 Z M 34.56,20.95 A 10.31,10.31 0 0,1 28.73,31.64 C 28.44,31.01 28.23,30.34 28.13,29.64 A 8.25,8.25 0 0,0 32.54,21.54 A 7.99,7.99 0 0,1 34.56,20.95 Z" fill="rgb(32, 130, 220)"/>
<path d="M 45.99,28.485 A 10.32,10.32 0 0,1 34.75,38.77 C 35,38.12 35.2,37.44 35.32,36.74 L 35.68,36.75 A 8.25,8.25 0 1,0 28.6,24.25 C 27.95,23.98 27.28,23.77 26.58,23.62 A 10.32,10.32 0 0,1 46,28.5 Z M 31.14,37.76 A 10.31,10.31 0 0,1 25.44,27.18 C 26.14,27.3 26.82,27.52 27.44,27.82 L 27.42,28.5 A 8.25,8.25 0 0,0 31.72,35.74 C 31.62,36.45 31.42,37.13 31.14,37.76 Z" fill="rgb(13, 182, 217)"/>
<path d="M 28.84,27.775 A 8.23,8.23 0 0,0 19.79,27.79 A 7.66,7.66 0 0,1 18.29,26.32 A 10.28,10.28 0 0,1 30.35,26.32 A 7.66,7.66 0 0,1 28.85,27.79 Z M 31.43,30.49 A 8.25,8.25 0 1,1 17.21,30.49 A 11.4,11.4 0 0,1 15.7,29.02 A 10.32,10.32 0 1,0 32.95,29.02 A 11.4,11.4 0 0,1 31.43,30.49 Z" fill="rgb(1, 1, 134)"/>
</svg>
