<?xml version="1.0" encoding="UTF-8"?>
<!-- generated by Finnhub -->
<svg viewBox="0 0 55.5 55.5" xmlns="http://www.w3.org/2000/svg">
<path d="M 0,0 H 55.5 V 55.5 H 0 Z" fill="rgb(239, 242, 248)"/>
<path d="M 4.99,20.985 H 4 V 21.5 H 5 V 26 H 5.5 V 21.5 H 6.5 V 21 H 5 Z M 12,26 V 21 H 12.5 V 26 H 12 Z M 19,26 V 21 H 19.5 V 26 H 19 Z M 20.5,21 H 23 V 21.5 H 22 V 26 H 21.5 V 21.5 H 20.5 V 21 Z M 35,25.5 V 21 H 35.5 V 25.5 H 37.5 V 26 H 35 V 25.5 Z M 7.5,26 V 21 H 9.25 C 9.95,21 10.5,21.7 10.5,22.43 S 9.94,24 9.25,24 H 9.12 L 10.58,26 H 9.98 L 8.53,24 H 8 V 26 H 7.5 Z M 9.2,21.5 H 8 V 23.5 H 9.2 C 9.64,23.5 10,23.05 10,22.5 S 9.64,21.5 9.2,21.5 Z M 31,26 V 21 H 32.75 C 33.45,21 34,21.73 34,22.47 C 34,23.2 33.44,24 32.75,24 H 31.5 V 26 H 31 Z M 32.7,21.5 H 31.5 V 23.5 H 32.7 C 33.14,23.5 33.5,23.05 33.5,22.5 S 33.14,21.5 32.7,21.5 Z M 14,26 V 21 L 17,24.52 V 21 H 17.5 V 26 L 14.5,22.46 V 26 H 14 Z M 25.5,23.57 V 26 H 26 V 23.57 L 27.62,21 H 27.04 L 25.77,23.08 L 24.55,21 H 24 L 25.5,23.57 Z M 40.23,21 L 38,26 H 38.66 L 39.26,24.5 H 41.3 L 41.98,26 H 42.58 L 40.23,21 Z M 41.08,24 H 39.47 L 40.23,22.1 L 41.08,24 Z M 48.36,25.17 A 2.5,2.5 0 0,1 44,23.5 A 2.5,2.5 0 0,1 48.36,21.83 L 48.01,22.19 A 2,2 0 0,0 44.5,23.5 A 2,2 0 0,0 48.01,24.8 L 48.36,25.17 Z M 52,21 H 49.5 V 26 H 52 V 25.5 H 50 V 23.5 H 52 V 23 H 50 V 21.5 H 52 V 21 Z" fill="rgb(56, 114, 177)"/>
<path d="M 51.03,30.564999999999998 L 51.9,29.88 A 2.92,2.92 0 0,0 50.05,29 C 49.05,29 48.3,29.74 48.3,30.5 C 48.3,31.14 48.88,31.6 49.24,31.89 L 49.41,32.03 L 49.71,32.27 C 50.15,32.61 50.84,33.13 50.84,33.49 C 50.84,33.96 50.47,34.09 50.04,34.09 C 49.68,34.09 49.2,33.52 49,33.24 L 48,33.84 C 48.2,34.23 48.9,35 50.03,35 C 51.46,35 52,34.32 52,33.34 C 52,32.56 51,31.74 50.49,31.41 C 50,31.13 49.15,30.48 49.61,30.14 C 50.18,29.72 50.68,30.21 51.04,30.58 Z M 6,29 H 5 V 35 H 6 V 32.5 H 8 V 35 H 9 V 29 H 8 V 31.5 H 6 V 29 Z M 19,29 H 20 V 34 H 22 V 35 H 19 V 29 Z M 31,29 H 32 V 35 H 31 V 29 Z M 35,29 H 34 V 35 H 35 V 30.67 L 38,35 H 39 V 29 H 38 V 33.33 L 35,29 Z M 14,35 A 3,3 0 1,0 14,29 A 3,3 0 0,0 14,35 Z M 14,34 A 2,2 0 1,0 14,30 A 2,2 0 0,0 14,34 Z M 25.75,35 H 24 V 29 H 25.75 C 27.27,29 28.5,30.34 28.5,32 C 28.5,33.66 27.27,35 25.75,35 Z M 25.72,34 H 25 V 30 H 25.72 C 26.7,30 27.5,30.9 27.5,32 S 26.7,34 25.72,34 Z M 44,35 A 3,3 0 0,0 47,32 H 44 V 33 H 45.72 A 2,2 0 1,1 45.69,30.92 L 46.37,30.16 A 3,3 0 1,0 44,35 Z" fill="rgb(56, 114, 177)" fill-rule="evenodd"/>
<path d="M 3.99,26.985 H 52 V 27.5 H 4 Z" fill="rgb(126, 126, 125)"/>
</svg>
