<?xml version="1.0" encoding="UTF-8"?>
<!-- generated by Finnhub -->
<svg viewBox="0 0 55.5 55.5" xmlns="http://www.w3.org/2000/svg">
<path d="M 0,0 H 55.5 V 55.5 H 0 Z" fill="rgb(239, 242, 248)"/>
<path d="M 30.99,30.255 V 23 H 35.3 C 36.79,23 38,21.66 38,20 S 36.79,17 35.3,17 H 31 V 11.7 C 31,10.21 29.66,9 28,9 S 25,10.21 25,11.7 V 17 H 20.7 C 19.21,17 18,18.34 18,20 S 19.21,23 20.7,23 H 25 V 30.28 A 15.88,15.88 0 0,0 13.27,40.15 C 12.6,41.87 13.77,44.03 15.65,44 C 17.01,43.98 18.35,42.86 19.02,41.58 C 20.63,38.48 23.87,35.87 27.54,35.87 A 9.55,9.55 0 0,1 36.06,41.19 C 36.99,43.05 39.06,44.5 41.03,43.83 C 42.49,43.33 43.27,41.43 42.73,39.98 A 15.17,15.17 0 0,0 31,30.27 Z" fill="rgb(60, 84, 101)"/>
</svg>
