<?xml version="1.0" encoding="UTF-8"?>
<!-- generated by Finnhub -->
<svg viewBox="0 0 55.5 55.5" xmlns="http://www.w3.org/2000/svg">
<path d="M 0,0 H 55.5 V 55.5 H 0 Z" fill="rgb(239, 242, 248)"/>
<path d="M 26.29,11.985 C 26.54,12 26.77,12.12 26.9,12.33 C 27.85,14.15 30.5,15.13 33.59,16.25 L 34.67,16.65 L 34.98,16.77 C 39.76,18.57 45,21.1 45,28 C 45,35.04 39.53,37.53 34.67,39.34 L 34.36,39.46 L 33.59,39.74 C 30.51,40.87 27.85,41.84 26.89,43.67 A 0.72,0.72 0 0,1 26.04,43.95 A 0.5,0.5 0 0,1 25.69,43.25 C 26.84,41.04 29.86,39.94 33.05,38.77 L 33.2,38.72 L 33.5,38.61 L 33.66,38.55 L 34.12,38.38 L 34.58,38.21 L 34.88,38.09 C 37.51,37.08 40.11,35.85 41.8,33.77 C 39.39,35.99 35.57,37.09 31.92,38.06 L 31.55,38.16 L 31.19,38.25 L 30.74,38.37 C 26.84,39.39 23.22,40.41 21.94,42.63 A 0.6,0.6 0 0,1 21.21,42.84 A 0.41,0.41 0 0,1 20.95,42.25 C 22.43,39.69 26.26,38.61 30.39,37.53 L 30.85,37.41 L 33.21,36.77 L 33.57,36.67 L 33.93,36.57 C 37.04,35.66 39.91,34.53 41.6,32.52 C 39.53,34.48 36.02,35.47 32.26,36.25 L 31.85,36.33 L 29.35,36.83 C 24.11,37.83 19.17,38.77 17.45,41.58 A 0.47,0.47 0 0,1 16.87,41.74 A 0.33,0.33 0 0,1 16.68,41.26 C 18.58,38.15 23.72,37.16 29.15,36.13 L 30.6,35.85 L 31.01,35.77 C 36.03,34.78 40.54,33.62 42.09,30.55 C 39.81,33.2 33.78,34.02 27.91,34.82 L 27.41,34.89 L 26.43,35.02 L 25.93,35.09 L 25.45,35.16 C 20.39,35.89 15.66,36.82 14.19,39.13 A 0.37,0.37 0 0,1 13.75,39.23 A 0.25,0.25 0 0,1 13.61,38.88 C 15.48,35.98 21.46,35.16 27.81,34.29 L 28.45,34.21 L 28.66,34.18 L 29.09,34.12 L 29.31,34.09 L 29.74,34.03 L 30.17,33.97 C 35.72,33.17 40.92,32.13 42.13,29.32 C 40.47,31.55 34.38,32.18 27.84,32.78 L 27.13,32.85 L 25.18,33.03 L 24.69,33.07 L 24.21,33.12 C 18.31,33.7 12.85,34.49 11.41,36.67 A 0.25,0.25 0 0,1 11.11,36.74 A 0.16,0.16 0 0,1 11.02,36.5 C 12.62,34.08 18.61,33.3 24.88,32.7 L 25.37,32.65 L 25.61,32.63 L 26.35,32.56 L 27.08,32.49 L 29.08,32.31 L 29.53,32.27 C 36.08,31.63 42.14,30.77 42.14,28 C 42.14,25.22 36.08,24.36 29.53,23.73 L 29.08,23.69 L 27.08,23.5 L 26.35,23.44 L 25.85,23.39 L 25.37,23.35 L 24.88,23.3 C 18.61,22.7 12.63,21.92 11.02,19.5 A 0.16,0.16 0 0,1 11.12,19.26 A 0.25,0.25 0 0,1 11.22,19.23 C 11.29,19.23 11.36,19.27 11.41,19.33 C 12.85,21.51 18.31,22.3 24.21,22.88 L 24.69,22.92 L 25.18,22.97 L 27.13,23.15 L 27.37,23.17 L 27.84,23.22 C 34.38,23.82 40.47,24.44 42.14,26.68 C 40.9,23.82 35.59,22.8 29.95,22 L 29.52,21.94 L 28.88,21.84 L 28.45,21.79 L 27.8,21.7 L 27.02,21.6 L 26.51,21.52 C 20.66,20.72 15.35,19.82 13.61,17.12 A 0.25,0.25 0 0,1 13.75,16.76 L 13.9,16.73 C 14.02,16.73 14.13,16.78 14.2,16.87 C 15.76,19.32 21.02,20.22 26.43,20.97 L 27.17,21.07 L 27.91,21.17 L 28.35,21.24 L 28.8,21.3 L 29.7,21.42 L 30.14,21.49 C 35.24,22.21 40.09,23.13 42.09,25.44 C 40.46,22.25 35.65,21.12 30.39,20.11 L 29.78,19.99 L 29.15,19.87 C 23.72,18.83 18.59,17.85 16.68,14.74 A 0.33,0.33 0 0,1 16.87,14.26 A 0.47,0.47 0 0,1 17.07,14.22 C 17.21,14.22 17.36,14.29 17.44,14.42 C 19.11,17.14 23.8,18.12 28.84,19.08 L 29.34,19.18 L 30.39,19.38 L 31.02,19.5 L 31.43,19.58 C 35.5,20.39 39.39,21.38 41.61,23.48 C 39.7,21.2 36.26,20.05 32.67,19.07 L 32.31,18.97 L 30.85,18.59 L 30.39,18.47 C 26.26,17.38 22.43,16.3 20.95,13.74 A 0.41,0.41 0 0,1 21.21,13.15 A 0.6,0.6 0 0,1 21.44,13.11 C 21.64,13.11 21.83,13.2 21.94,13.36 C 23.27,15.66 27.11,16.67 31.19,17.74 C 32.17,18 33.17,18.26 34.16,18.54 L 34.53,18.66 C 37.29,19.48 39.94,20.52 41.78,22.21 C 39.96,19.97 37.08,18.73 34.27,17.67 L 33.97,17.56 L 33.05,17.23 L 32.64,17.07 C 29.6,15.97 26.79,14.87 25.69,12.74 A 0.5,0.5 0 0,1 26.04,12.04 A 0.76,0.76 0 0,1 26.29,12 Z" fill="url(#a)"/>
<defs>
<linearGradient id="a" x1="46.71" x2="21.05" y1="27.2" y2="27" gradientUnits="userSpaceOnUse">
<stop stop-color="rgb(248, 159, 48)" offset="0"/>
<stop stop-color="rgb(84, 160, 148)" offset=".92"/>
</linearGradient>
</defs>
</svg>
