<?xml version="1.0" encoding="UTF-8"?>
<!-- generated by Finnhub -->
<svg viewBox="0 0 55.5 55.5" xmlns="http://www.w3.org/2000/svg">
<path d="M 0,0 H 55.5 V 55.5 H 0 Z" fill="rgb(7, 179, 120)"/>
<path d="M 41.864000000000004,12.987 C 40.416,13.225 30.875,14.264 23.842,16.052 C 13.82,18.595 14,27.115 14,30.481 V 41.86 C 14,42.033 14.127,42.038 14.214,41.924 A 102.942,102.942 0 0,1 28.362,26.369 S 28.402,26.329 28.333,26.369 C 25.343,27.324 22.737,28.588 20,30.142 V 28.696 C 19.961,22.894 23.035,21.33 27.011,20.196 C 30.272,19.276 36.353,18.746 36.353,18.746 S 35.867,22.359 35.211,29.721 C 34.763,35.08 30.885,36 25.475,36 H 22.433 C 20.003,39.57 19.677,41.982 19.677,41.982 H 25.641 C 36.999,41.982 39.536,36.883 40.081,29.339 C 40.766,19.749 41.714,14.189 41.995,13.14 A 0.111,0.111 0 0,0 41.973,13.036 A 0.107,0.107 0 0,0 41.873,13.002 Z" fill="rgb(254, 254, 253)"/>
</svg>
