<?xml version="1.0" encoding="UTF-8"?>
<!-- generated by Finnhub -->
<svg viewBox="0 0 55.5 55.5" xmlns="http://www.w3.org/2000/svg">
<path d="M 0,0 H 55.5 V 55.5 H 0 Z" fill="rgb(239, 242, 248)"/>
<path d="M 33.03,10.145 L 12.34,29.38 L 18,31.08 L 35.51,14.92 L 35.14,13.32 L 30.87,17.19 L 30.67,16.46 L 34.94,12.46 L 34.7,11.56 L 30.46,15.45 L 30.29,14.6 L 34.5,10.66 C 34.26,9.79 33.43,9.96 33.04,10.16 Z" fill="rgb(1, 84, 115)"/>
<path d="M 35.52,14.895 L 31.2,18.88 L 35.26,36.02 L 12.48,29.27 L 11.35,30.35 L 16.83,32.02 L 16.23,32.57 L 10.7,30.94 L 9.95,31.66 L 15.47,33.29 L 14.87,33.85 L 9.29,32.27 C 8.69,33.04 9.17,33.53 9.49,33.67 L 38.18,42.17 L 36.88,36.61 L 37.68,36.84 L 39.03,42.46 L 39.99,42.72 L 38.71,37.16 L 39.48,37.36 L 40.86,42.98 C 42.02,43.14 42.08,42.25 41.96,41.78 L 35.53,14.91 Z" fill="rgb(1, 150, 181)"/>
</svg>
