<?xml version="1.0" encoding="UTF-8"?>
<!-- generated by Finnhub -->
<svg viewBox="0 0 55.5 55.5" xmlns="http://www.w3.org/2000/svg">
<path d="M 0,0 H 55.5 V 55.5 H 0 Z" fill="rgb(239, 242, 248)"/>
<path d="M 3.99,24.115 L 4.1,24.15 C 4.36,24.21 4.6,24.35 4.77,24.57 C 4.94,24.78 4.99,25.05 5,25.33 V 33 H 6.62 V 28.63 H 10 V 28 H 6.62 V 24.55 H 11 V 24 H 4 V 24.13 Z M 16.75,32.56 C 15.08,32.56 14.08,31.04 14.08,28.5 C 14.08,26 15.1,24.44 16.75,24.44 C 18.4,24.44 19.42,25.99 19.42,28.49 C 19.42,31.04 18.42,32.56 16.75,32.56 Z M 16.75,24 C 14.7,24 12.5,25.18 12.5,28.5 C 12.5,31.32 14.09,33 16.75,33 S 21,31.32 21,28.5 C 21,25.18 18.8,24 16.75,24 Z M 27.13,24 C 29.4,24 30.78,24.94 30.78,26.66 C 30.78,28.6 29.23,29.29 28.42,29.49 L 31.64,33 H 29.87 L 26.04,28.83 L 26.36,28.85 H 26.53 C 27.08,28.86 27.63,28.75 28.13,28.54 C 28.49,28.39 28.78,28.12 28.98,27.79 C 29.18,27.45 29.28,27.06 29.28,26.66 C 29.28,24.91 28.05,24.56 26.85,24.56 H 25.62 V 33 H 24 V 25.19 C 24,24.92 23.95,24.66 23.78,24.47 A 1,1 0 0,0 23.11,24.14 L 23,24.13 V 24 H 27.13 Z M 52,24.55 V 24 H 45 V 24.13 L 45.1,24.15 C 45.74,24.33 46,24.7 46,25.19 V 33 H 52 V 32.45 H 47.5 V 28.63 H 51 V 28 H 47.5 V 24.55 H 52 Z M 35.47,24.07 L 38.55,30.37 L 41.58,24 H 43 V 33 H 41.5 V 25.9 L 38.06,33 L 35,26.17 V 33 H 34 V 25.17 C 34,24.68 33.66,24.32 33.04,24.15 L 32.94,24.13 V 24 H 35.44 L 35.47,24.07 Z"/>
</svg>
