<?xml version="1.0" encoding="UTF-8"?>
<!-- generated by Finnhub -->
<svg viewBox="0 0 55.5 55.5" xmlns="http://www.w3.org/2000/svg">
<path d="M 0,0 H 55.5 V 55.5 H 0 Z" fill="rgb(1, 81, 153)"/>
<path d="M 51.99,22.985 H 46.3 V 25 H 48 V 32 H 50 V 25 H 52 V 23 Z M 6,23 H 4 V 25 H 6 V 32 H 8 V 25 H 9.7 V 23 H 6 Z M 10,32 V 23 H 14.16 C 14.96,23.1 16.5,23.9 16.5,26.3 C 16.5,27.87 15.56,28.74 14.6,29.18 L 15,29.83 L 19.62,23 H 21.51 V 32 H 19.51 V 31 H 16.79 L 16.27,31.82 L 16.37,32 H 14.29 L 12.36,29.7 H 12 V 32 H 10 Z M 12,25 H 13.12 C 13.88,25 14.5,25.6 14.5,26.35 C 14.5,27.1 13.88,27.7 13.12,27.7 H 12 V 25 Z M 19.5,29 V 26.77 L 18.07,29 H 19.5 Z M 22,32 V 23 H 23.71 L 27,27.67 V 23 H 29 V 32 H 27.22 L 24,27.33 V 32 H 22 Z M 31.66,29 H 29.42 C 29.42,31.48 31.66,32 32.44,32 C 33.2,32 35.46,31.76 35.54,29.66 A 4.38,4.38 0 0,0 39.24,32 H 40.51 L 41.18,31 H 44 V 32 H 46 V 23 H 43.94 L 39.28,30 A 2.5,2.5 0 1,1 41.21,25.68 L 42.27,24.1 A 4.32,4.32 0 0,0 35.52,25.37 C 35.36,23.69 34,23 32.78,23 C 31.5,23 29.77,23.91 29.77,25.6 C 29.77,27.3 31.37,28.04 32.32,28.44 C 33.27,28.84 33.32,29.14 33.32,29.36 C 33.32,29.58 33.22,30 32.44,30 C 31.81,30 31.66,29.41 31.66,29 Z M 35.36,25.71 H 33.53 C 33.56,25.42 33.46,25 32.78,25 C 32.11,25 32.01,25.35 32.04,25.6 C 32.04,25.74 32.18,26.08 32.78,26.37 L 33.09,26.51 C 33.65,26.76 34.48,27.12 35.01,27.85 A 4.66,4.66 0 0,1 35.36,25.71 Z M 42.51,29 L 44,26.77 V 29 H 42.51 Z" fill="rgb(254, 254, 253)" fill-rule="evenodd"/>
</svg>
