<?xml version="1.0" encoding="UTF-8"?>
<!-- generated by Finnhub -->
<svg viewBox="0 0 55.5 55.5" xmlns="http://www.w3.org/2000/svg">
<path d="M 0,0 H 55.5 V 55.5 H 0 Z" fill="rgb(239, 242, 248)"/>
<path d="M 21.83,21.985 L 28,11 L 34.16,22 H 33.01 L 28,13.05 L 22.99,22 H 21.84 Z M 16.8,31 L 14,36 H 42 L 39.2,31 H 38.05 L 40.29,35 H 15.71 L 17.95,31 H 16.8 Z M 11,24 V 24.58 H 9.34 V 29 H 8.6 V 24.58 H 7 V 24 H 11 Z M 15.92,29 L 14.6,27 H 13.72 V 29 H 13 V 24 H 14.8 C 15.68,24 16.72,24.46 16.72,25.5 C 16.72,26.27 16.11,26.77 15.4,26.9 L 16.79,29 H 15.92 Z M 13.72,26.44 H 14.79 C 15.59,26.44 15.97,26.07 15.97,25.5 S 15.59,24.59 14.79,24.59 H 13.72 V 26.44 Z M 19.72,24 V 29 H 19 V 24 H 19.72 Z M 25,24 V 24.58 H 22.72 V 26.23 H 25 V 26.75 H 22.72 V 29 H 22 V 24 H 25 Z M 27.72,24.58 V 26.22 H 30 V 26.75 H 27.72 V 28.43 H 30 V 29 H 27 V 24 H 30 V 24.58 H 27.72 Z M 31.64,26.5 C 31.64,26.03 31.76,25.6 32.01,25.22 C 32.25,24.84 32.58,24.54 33,24.32 C 33.42,24.11 33.9,24 34.4,24 C 35.01,24 35.54,24.13 36,24.39 C 36.44,24.64 36.77,25.01 36.98,25.49 H 36.11 A 1.6,1.6 0 0,0 35.44,24.8 A 2.1,2.1 0 0,0 34.41,24.56 C 34.02,24.56 33.67,24.64 33.37,24.8 C 33.06,24.96 32.82,25.19 32.64,25.48 C 32.47,25.78 32.38,26.11 32.38,26.51 A 1.79,1.79 0 0,0 33.37,28.21 C 33.67,28.37 34.02,28.45 34.41,28.45 C 34.81,28.45 35.16,28.37 35.44,28.21 C 35.74,28.05 35.96,27.83 36.11,27.53 H 36.98 C 36.78,28 36.44,28.36 35.99,28.63 C 35.54,28.87 35.01,29 34.41,29 C 33.89,29 33.42,28.9 33,28.68 A 2.54,2.54 0 0,1 32,27.79 C 31.76,27.41 31.64,26.99 31.64,26.51 Z M 42.5,24 V 24.58 H 40.99 V 29 H 40.26 V 24.58 H 38.5 V 24 H 42.5 Z M 47.79,27.87 H 45.37 L 44.93,29 H 44.16 L 46.16,24 H 47 L 49,29 H 48.24 L 47.79,27.87 Z M 47.59,27.35 L 46.59,24.88 L 45.58,27.35 H 47.58 Z" fill="rgb(28, 24, 24)"/>
<path d="M 16.049999999999997,38.165 A 1.21,1.21 0 0,0 14.91,37.46 C 14.04,37.46 13.51,38.18 13.51,39 C 13.51,39.82 14.04,40.53 14.91,40.53 C 15.65,40.53 16.17,39.99 16.24,39.26 H 14.73 V 38.85 H 16.77 V 39.25 A 1.9,1.9 0 0,1 14.91,40.99 C 13.8,41 13,40.08 13,39 S 13.8,37 14.9,37 C 15.69,37 16.38,37.44 16.65,38.18 H 16.06 Z M 19.88,41 C 18.77,41 17.98,40.08 17.98,39 S 18.78,37 19.88,37 C 20.99,37 21.78,37.92 21.78,39 S 20.99,41 19.88,41 Z M 19.88,40.56 C 20.75,40.56 21.28,39.82 21.28,39 C 21.28,38.18 20.75,37.44 19.88,37.44 C 19.01,37.44 18.48,38.18 18.48,39 C 18.48,39.82 19.01,40.56 19.88,40.56 Z M 23.5,40.54 H 25 V 40.99 L 23,41 V 37 H 23.5 V 40.54 Z M 27.18,37 C 28.35,37 29.2,37.83 29.2,39.01 C 29.2,40.21 28.35,41 27.18,41 H 26 V 37 H 27.18 Z M 27.18,40.54 C 28.17,40.54 28.69,39.97 28.69,39.01 C 28.69,38.04 28.16,37.46 27.19,37.46 H 26.49 V 40.54 H 27.19 Z M 33.5,40.54 H 35 V 40.99 L 33,41 V 37 H 33.5 V 40.54 Z M 38.53,37 V 37.46 H 37.5 V 41 H 37 V 37.46 H 36 V 37 H 38.53 Z M 40.98,37 C 42.15,37 43,37.83 43,39.01 C 43,40.21 42.15,41 40.98,41 H 40 V 37 H 40.98 Z M 40.98,40.54 C 41.97,40.54 42.49,39.97 42.49,39.01 C 42.49,38.04 41.96,37.46 40.99,37.46 H 40.49 V 40.54 H 40.99 Z"/>
</svg>
