<?xml version="1.0" encoding="UTF-8"?>
<!-- generated by Finnhub -->
<svg viewBox="0 0 55.5 55.5" xmlns="http://www.w3.org/2000/svg">
<path d="M 0,0 H 55.5 V 55.5 H 0 Z" fill="url(#c)"/>
<path d="M 15.99,17.985 H 9 V 22 H 16 V 40 H 20 V 22 H 27 V 18 H 16 Z" fill="rgb(254, 254, 253)"/>
<path d="M 25.99,28.985 A 11,11 0 0,1 46,22.67 L 42.79,25.06 A 7,7 0 0,0 30,29 H 26 Z" fill="url(#b)"/>
<path d="M 36.99,39.985 C 40.3,40 43.25,38.55 45.27,36.26 L 42.3,33.58 A 6.98,6.98 0 0,1 30,29 H 26 A 11,11 0 0,0 37,40 Z" fill="url(#a)"/>
<circle cx="28" cy="29" r="2" fill="rgb(7, 193, 241)"/>
<circle cx="43.71" cy="35" r="2" fill="rgb(254, 173, 127)"/>
<defs>
<linearGradient id="c" x1="10.42" x2="68.15" y1="9.71" y2="76.02" gradientUnits="userSpaceOnUse">
<stop stop-color="rgb(25, 29, 31)" offset="0"/>
<stop stop-color="rgb(5, 5, 8)" offset="1"/>
</linearGradient>
<radialGradient id="b" cx="0" cy="0" r="1" gradientTransform="rotate(-10.33 175.95 -137) scale(20.504 37.478)" gradientUnits="userSpaceOnUse">
<stop stop-color="rgb(41, 65, 150)" offset="0"/>
<stop stop-color="rgb(13, 190, 207)" offset=".61"/>
<stop stop-color="rgb(67, 242, 141)" offset="1"/>
</radialGradient>
<linearGradient id="a" x1="27.63" x2="43.36" y1="30.61" y2="40" gradientUnits="userSpaceOnUse">
<stop stop-color="rgb(93, 29, 136)" offset="0"/>
<stop stop-color="rgb(235, 7, 123)" offset=".52"/>
<stop stop-color="rgb(249, 119, 10)" offset="1"/>
</linearGradient>
</defs>
</svg>
