<?xml version="1.0" encoding="UTF-8"?>
<!-- generated by Finnhub -->
<svg viewBox="0 0 55.5 55.5" xmlns="http://www.w3.org/2000/svg">
<path d="M 0,0 H 55.5 V 55.5 H 0 Z" fill="rgb(1, 83, 162)" stroke="rgb(254, 254, 253)" stroke-width=".019"/>
<circle cx="28" cy="28" r="28" fill="rgb(1, 83, 162)"/>
<path d="M 7.654,32.985 C 6.704,33 5.926,33.499 5.551,33.853 C 5.551,33.853 4.637,34.675 4.019,34.959 C 3.992,34.973 3.992,35 4.03,35 H 9.62 C 10.726,35 11.245,34.66 11.901,34.127 C 11.901,34.127 12.856,33.321 13.511,33.061 C 13.577,33.038 13.561,33 13.511,33 H 7.664 Z M 17.268,33 C 16.308,33 15.531,33.499 15.155,33.853 C 15.155,33.853 14.242,34.675 13.624,34.959 C 13.596,34.973 13.597,35 13.634,35 H 19.236 C 20.341,35 20.861,34.66 21.517,34.127 C 21.517,34.127 22.461,33.321 23.116,33.061 C 23.182,33.038 23.177,33 23.126,33 H 17.268 Z M 26.884,33 C 25.924,33 25.146,33.499 24.771,33.853 C 24.771,33.853 23.857,34.675 23.239,34.959 C 23.212,34.973 23.213,35 23.25,35 H 28.852 C 29.957,35 30.465,34.66 31.122,34.127 C 31.122,34.127 32.077,33.321 32.732,33.061 C 32.798,33.038 32.792,33 32.742,33 H 26.884 Z M 36.488,33 C 35.528,33 34.762,33.499 34.386,33.853 C 34.386,33.853 33.462,34.675 32.843,34.959 C 32.816,34.973 32.817,35 32.854,35 H 38.456 C 39.561,35 40.081,34.66 40.736,34.127 C 40.736,34.127 41.692,33.321 42.346,33.061 C 42.413,33.038 42.396,33 42.346,33 H 36.488 Z M 46.103,33 C 45.143,33 44.366,33.499 43.99,33.853 C 43.99,33.853 43.076,34.675 42.458,34.959 C 42.431,34.973 42.432,35 42.469,35 H 48.071 C 49.176,35 49.696,34.66 50.352,34.127 C 50.352,34.127 51.297,33.321 51.951,33.061 C 52.017,33.038 52.013,33 51.961,33 H 46.103 Z M 27.224,22 C 25.151,22 23.13,22.632 23.13,24.748 C 23.13,28.412 29.355,26.476 29.355,28.718 C 29.355,29.448 28.251,29.743 27.36,29.743 C 25.758,29.743 24.654,29.498 23.255,28.637 V 30.476 C 24.298,30.829 25.717,31 27.258,31 C 29.408,31 31.419,30.43 31.419,28.264 C 31.419,24.438 25.194,26.157 25.194,24.282 C 25.194,23.527 26.193,23.269 27.065,23.269 C 28.533,23.269 30.118,23.71 30.989,24.538 V 22.582 C 29.862,22.217 28.366,22 27.224,22 Z M 38.223,22 C 34.484,22 32,23.868 32,26.68 C 32,29.261 34.28,31 37.679,31 C 38.779,31 39.852,30.84 41,30.557 V 28.38 C 40.188,29.26 39.133,29.614 38.098,29.614 C 36.091,29.614 34.718,28.33 34.718,26.482 C 34.718,24.659 36.142,23.327 38.132,23.327 C 39.216,23.327 40.085,23.731 40.785,24.433 V 22.256 C 40.058,22 39.145,22 38.223,22 Z M 46.943,22 C 43.721,22 41.443,23.927 41.443,26.61 C 41.443,29.242 43.489,31 46.535,31 C 49.77,31 52,29.132 52,26.436 C 52,23.791 49.974,22 46.943,22 Z M 4,22 V 24.352 C 4.7,23.794 6.165,23.584 7.765,23.572 V 29.195 C 7.765,30.013 7.695,30.572 7.356,31 H 10.52 C 10.165,30.572 10.112,30.013 10.112,29.195 V 23.525 C 11.498,23.537 13.153,23.794 13.854,24.352 V 22 H 4 Z M 14.704,22 C 15.036,22.428 15,22.963 15,23.781 V 29.195 C 15,30.013 15.041,30.585 14.727,31 H 22.37 V 28.637 C 21.321,29.403 19.326,29.406 18.515,29.393 H 17.403 V 27.053 H 18.22 C 18.773,27.053 19.771,27.12 20.352,27.298 V 25.55 C 19.78,25.74 18.772,25.795 18.22,25.795 H 17.403 V 23.572 H 18.515 C 19.507,23.572 21.352,23.782 22,24.34 V 22 H 14.704 Z M 46.728,23.292 C 48.415,23.292 49.528,24.726 49.528,26.494 C 49.528,28.263 48.415,29.696 46.728,29.696 C 45.013,29.696 43.915,28.263 43.915,26.494 C 43.915,24.726 45.013,23.292 46.728,23.292 Z" fill="rgb(254, 254, 253)" stroke="rgb(254, 254, 253)" stroke-width=".019"/>
</svg>
