<?xml version="1.0" encoding="UTF-8"?>
<!-- generated by Finnhub -->
<svg viewBox="0 0 55.5 55.5" xmlns="http://www.w3.org/2000/svg">
<path d="M 0,0 H 55.5 V 55.5 H 0 Z" fill="rgb(239, 242, 248)"/>
<path d="M 27.99,44.985 A 17,17 0 1,0 28,11 A 17,17 0 0,0 28,45 Z M 30.5,35 A 10.5,10.5 0 1,0 30.5,14 A 10.5,10.5 0 0,0 30.5,35 Z" fill="url(#b)" fill-rule="evenodd"/>
<path d="M 36.330000000000005,33.214999999999996 A 10.5,10.5 0 1,0 21.62,18.9 A 10.44,10.44 0 0,1 36.35,33.23 Z" fill="url(#a)"/>
<defs>
<linearGradient id="b" x1="38.85" x2="16.2" y1="15.14" y2="40.32" gradientUnits="userSpaceOnUse">
<stop stop-color="rgb(41, 168, 223)" offset="0"/>
<stop stop-color="rgb(11, 63, 135)" offset="1"/>
</linearGradient>
<linearGradient id="a" x1="37.57" x2="31.27" y1="16.97" y2="23.64" gradientUnits="userSpaceOnUse">
<stop stop-color="rgb(146, 15, 2)" offset="0"/>
<stop stop-color="rgb(204, 10, 14)" offset=".32"/>
<stop stop-color="rgb(226, 5, 17)" offset=".86"/>
</linearGradient>
</defs>
</svg>
