<?xml version="1.0" encoding="UTF-8"?>
<!-- generated by Finnhub -->
<svg viewBox="0 0 55.5 55.5" xmlns="http://www.w3.org/2000/svg">
<path d="M 0,0 H 55.5 V 55.5 H 0 Z" fill="rgb(22, 45, 74)"/>
<path d="M 35.72,20.985 H 35.85 L 36.57,20 H 34.59 C 35.09,20.36 35.47,20.72 35.73,21 Z M 32.88,19 A 8.7,8.7 0 0,0 29.26,18.18 C 28.08,18.18 27.08,18.49 26.25,19 H 18.49 L 19.09,18 H 38 L 37.29,19 H 32.89 Z M 38.71,17 L 38.98,16.62 C 38.85,16.45 38.67,16.24 38.44,16 H 20.65 C 20.35,16.32 20.08,16.65 19.81,17 H 38.71 Z M 21.67,15 H 37.4 C 37,14.67 36.56,14.33 36.05,14 H 22.96 C 22.52,14.3 22.09,14.63 21.67,15 Z M 24.74,13 H 34.17 C 32.8,12.41 31.17,12 29.26,12 C 27.71,12 26.18,12.34 24.74,13 Z M 17.97,20 H 25.02 C 24.72,20.3 24.46,20.64 24.22,21 H 17.53 L 17.97,20 Z M 23.64,22 H 17.16 C 17.05,22.33 16.94,22.66 16.85,23 H 23.2 C 23.33,22.66 23.48,22.33 23.64,22 Z M 22.86,24 H 16.59 L 16.39,25 H 22.6 C 22.67,24.67 22.76,24.34 22.86,24 Z M 22.42,26 H 16.22 L 16.11,27 H 22.31 C 22.33,26.7 22.37,26.35 22.42,26 Z M 22.46,27 C 22.7,26.7 23.08,26.35 23.59,26 H 35.54 C 36.06,26.29 36.54,26.62 36.99,27 H 22.46 Z M 38,28 H 16.04 L 16,29 H 38.72 A 8.11,8.11 0 0,0 37.99,28 Z M 39.25,30 H 31.74 A 6,6 0 0,1 32.92,31 H 39.62 A 8.5,8.5 0 0,0 39.25,30 Z M 39.85,32 H 33.65 C 33.83,32.32 33.98,32.65 34.1,33 H 39.98 C 39.95,32.66 39.91,32.32 39.85,32 Z M 40.01,34 H 34.33 A 5.46,5.46 0 0,1 34.37,35 H 39.97 C 39.99,34.67 40.01,34.34 40.01,34 Z M 39.85,36 H 34.23 C 34.14,36.35 34.03,36.68 33.88,37 H 39.66 C 39.74,36.67 39.8,36.34 39.86,36 Z M 39.38,38 H 33.28 C 33.02,38.37 32.7,38.7 32.35,39 H 38.99 C 39.13,38.68 39.26,38.34 39.38,38 Z M 38.48,40 H 30.68 A 6.35,6.35 0 0,1 25.96,40 H 18.55 C 18.78,40.35 19.02,40.69 19.27,41 H 37.79 C 38.04,40.68 38.27,40.35 38.47,40 Z M 36.9,42 H 20.18 C 20.56,42.37 20.98,42.7 21.4,43 H 35.66 C 36.1,42.7 36.51,42.36 36.89,42 Z M 33.84,44 H 23.2 C 24.75,44.67 26.5,45 28.42,45 C 30.48,45 32.28,44.65 33.82,44 Z M 17.97,39 H 24.29 C 23.93,38.7 23.62,38.37 23.35,38 H 17.5 C 17.65,38.35 17.8,38.68 17.97,39 Z M 17.12,37 H 22.75 A 5.46,5.46 0 0,1 22.41,36 H 16.81 L 17.11,37 Z M 16.56,35 H 22.26 A 5.45,5.45 0 0,1 22.31,34 H 16.37 C 16.43,34.34 16.49,34.67 16.57,35 Z M 16.22,33 H 22.54 C 22.65,32.65 22.8,32.32 22.99,32 H 16.1 L 16.2,33 Z M 16.05,31 H 23.72 A 6,6 0 0,1 24.89,30 H 16.02 C 16.02,30.34 16.03,30.67 16.05,31 Z M 33.17,25 H 25.65 C 26.64,24.67 27.84,24.45 29.27,24.45 C 30.57,24.45 31.91,24.63 33.17,25 Z" fill="rgb(254, 254, 253)"/>
</svg>
