<?xml version="1.0" encoding="UTF-8"?>
<!-- generated by Finnhub -->
<svg viewBox="0 0 55.5 55.5" xmlns="http://www.w3.org/2000/svg">
<path d="M 0,0 H 55.5 V 55.5 H 0 Z" fill="rgb(10, 74, 73)"/>
<path d="M 26.99,15.665 L 22.02,24.04 C 22.77,24.41 23.36,24.92 23.82,25.46 A 4.81,4.81 0 0,1 25,28.19 V 46 H 23 V 28.24 C 22.98,27.97 22.8,27.34 22.29,26.74 A 3.56,3.56 0 0,0 20.99,25.77 L 15.5,35 H 20 V 37 H 12 L 28,10 L 44,37 H 36 V 35 H 40.5 L 34.95,25.68 C 34.37,25.91 33.95,26.28 33.63,26.7 A 3.1,3.1 0 0,0 33,28.24 V 37 H 31 V 28.2 C 31.03,27.43 31.36,26.4 32.03,25.5 A 5.08,5.08 0 0,1 33.92,23.95 L 29,15.68 V 42 H 27 V 15.68 Z" fill="rgb(184, 101, 40)"/>
</svg>
