<?xml version="1.0" encoding="UTF-8"?>
<!-- generated by Finnhub -->
<svg viewBox="0 0 55.5 55.5" xmlns="http://www.w3.org/2000/svg">
<path d="M 0,0 H 55.5 V 55.5 H 0 Z" fill="rgb(239, 242, 248)"/>
<path d="M 16.49,13.485 H 39.5 A 3,3 0 0,1 42.5,16.5 V 39.5 A 3,3 0 0,1 39.5,42.5 H 16.5 A 3,3 0 0,1 13.5,39.5 V 16.5 A 3,3 0 0,1 16.5,13.5 Z M 13,16.5 A 3.5,3.5 0 0,1 16.5,13 H 39.5 A 3.5,3.5 0 0,1 43,16.5 V 39.5 A 3.5,3.5 0 0,1 39.5,43 H 16.5 A 3.5,3.5 0 0,1 13,39.5 V 16.5 Z M 21,30.68 C 21,31.8 21.8,32.96 23.1,33 C 23.7,33.05 24.28,33.05 24.87,32.95 C 25.04,32.89 25.25,33.02 25.27,33.21 L 25.29,33.24 C 25.45,33.84 25.62,34.47 25.93,35 C 26.08,35.25 26,35.44 25.68,35.59 A 3.1,3.1 0 0,1 24.66,35.9 C 23.42,36.11 22.15,35.99 20.96,35.54 C 18.72,34.62 18,32.23 18,30 V 25.3 C 18,25.09 17.97,25.01 17.76,25.01 H 17.26 C 17.06,25.02 17,24.99 17,24.77 V 22.25 C 17,22.07 17.03,22 17.22,22.01 H 17.72 C 17.9,22.01 18,21.97 18,21.73 V 19.3 C 18,19.08 18.05,19.01 18.27,19.01 H 20.74 C 20.99,19.01 21,19.14 21,19.32 V 21.73 C 21,21.96 21.1,22.01 21.3,22.01 H 24.69 C 24.94,22.01 25.01,22.08 25,22.33 V 24.66 C 25,24.94 24.94,25.02 24.65,25.01 H 21.28 C 21.06,25.01 21,25.08 21,25.31 V 30.69 Z M 39,28.26 V 34.18 C 39,34.44 38.84,34.76 38.57,34.86 A 11.95,11.95 0 0,1 33.57,36 C 32.49,36 31.47,35.82 30.52,35.36 C 28.58,34.34 27.99,32.16 28,30.11 V 22.31 C 28,22.07 28.05,22 28.3,22.01 H 30.73 C 30.95,22.01 31,22.06 31,22.3 V 30.09 C 30.98,31.32 31.42,32.94 32.91,32.97 C 33.97,33.06 34.72,32.97 35.76,32.73 C 35.97,32.68 36,32.57 36,32.36 V 22.34 C 36,22.05 36.07,21.99 36.32,22 H 38.7 C 38.94,22 39,22.06 39,22.31 V 28.26 Z" fill-rule="evenodd"/>
</svg>
