<?xml version="1.0" encoding="UTF-8"?>
<!-- generated by Finnhub -->
<svg fill="none" viewBox="0 0 55.5 55.5" xmlns="http://www.w3.org/2000/svg">
<path d="M 0,0 H 55.5 V 55.5 H 0 Z" fill="url(#bo)"/>
<path d="M 43.27,38.085 L 39.71,33.82 L 38.68,31.29 L 40.41,29.62 L 43.28,38.1 Z" fill="url(#an)"/>
<path d="M 40.21,29.805 L 39.56,30.52 L 37.25,27.09 L 39.74,28.31 L 40.22,29.81 Z" fill="url(#x)"/>
<path d="M 39.730000000000004,33.835 L 38.86,34.82 L 37.92,31.6 L 39.74,33.85 Z" fill="rgb(232, 53, 37)"/>
<path d="M 37.440000000000005,34.285 L 36.71,33.58 L 38.03,32.1 L 38.82,34.83 L 37.45,34.29 Z" fill="rgb(233, 87, 40)"/>
<path d="M 38.04,32.155 L 36.82,33.44 L 36.27,31.99 L 37.61,30.63 L 38.05,32.17 Z" fill="url(#w)"/>
<path d="M 40.18,39.255 L 39.99,38.67 L 40.7,38.01 L 42.2,39.66 L 40.18,39.27 Z" fill="url(#v)"/>
<path d="M 40.71,38.075 L 40.02,38.73 L 39.42,36.73 L 40.72,38.09 Z" fill="rgb(235, 173, 39)"/>
<path d="M 40.120000000000005,39.335 L 39.1,39.08 L 37.24,34.78 L 37.08,34.14 L 38.83,34.82 L 40.13,39.35 Z" fill="url(#u)"/>
<path d="M 39.120000000000005,39.085 L 37.06,34 L 36.55,33.7 L 35.73,34.59 L 37.45,38.81 L 39.13,39.11 Z" fill="url(#t)"/>
<path d="M 36.52,33.765 L 35.73,34.64 L 35.26,34.44 L 35.05,33.02 L 35.5,32.59 L 36.53,33.79 Z" fill="rgb(223, 141, 37)"/>
<path d="M 34.45,31.685 L 34.32,31.38 L 43.59,39.92 L 42.1,39.62 L 34.46,31.71 Z" fill="rgb(225, 177, 111)"/>
<path d="M 31.689999999999998,28.025 L 31.53,28.19 L 33.11,28.95 L 33.07,28.58 L 31.7,28.04 Z" fill="rgb(215, 139, 55)"/>
<path d="M 35.830000000000005,38.455 L 34.96,35.43 L 35.71,34.65 L 37.41,38.77 L 35.85,38.47 Z" fill="url(#s)"/>
<path d="M 35.49,32.745 L 35.13,33.13 L 34.48,31.73 L 35.5,32.76 Z" fill="rgb(222, 178, 46)"/>
<path d="M 34.300000000000004,31.355 L 33.58,30.66 L 34.26,33.04 L 35.22,33.44 L 34.32,31.37 Z" fill="rgb(179, 149, 50)"/>
<path d="M 33.59,30.655 L 34.27,33.04 L 30.45,31.48 L 32.08,29.2 L 33.59,30.67 Z" fill="url(#r)"/>
<path d="M 25.5,36.785 L 25.14,34.93 L 25.28,34.99 L 25.51,36.13 L 25.75,36.18 L 28.45,32.75 L 25.51,36.81 Z" fill="rgb(191, 206, 128)"/>
<path d="M 26.389999999999997,35.345 L 25.63,35.11 L 26.25,33.11 L 28.45,32.76 L 26.4,35.36 Z" fill="rgb(177, 244, 143)"/>
<path d="M 26.689999999999998,26.365 L 24.57,25.97 L 24.94,25.59 L 26.07,24.36 L 26.7,26.38 Z" fill="url(#q)"/>
<path d="M 24.259999999999998,29.075 L 24.14,28.2 L 25.13,26.94 L 26.64,30.03 L 24.27,29.09 Z" fill="rgb(58, 175, 156)"/>
<path d="M 23.509999999999998,28.985 L 23.25,29.33 L 23.17,28.87 L 23.52,29 Z" fill="rgb(78, 150, 48)"/>
<path d="M 32.84,24.665 L 30.18,23.41 L 30.28,23.31 L 32.78,24.46 L 32.85,24.68 Z" fill="rgb(121, 184, 247)"/>
<path d="M 19.009999999999998,27.515 L 17.68,29.15 L 20.72,30.16 L 19.02,27.53 Z" fill="url(#p)"/>
<path d="M 17.869999999999997,29.745 L 18.37,31.85 L 19.21,32.11 L 24.04,31.26 L 18.77,29.51 L 17.88,29.76 Z" fill="url(#o)"/>
<path d="M 18.569999999999997,32.775 L 14.53,31.46 L 15.67,30.46 L 17.9,29.77 L 18.58,32.79 Z" fill="rgb(128, 249, 249)"/>
<path d="M 18.56,22.745 L 17.38,25.93 L 18.66,22.81 L 18.56,22.76 Z" fill="rgb(114, 227, 253)"/>
<path d="M 14.99,13.055 L 14.8,13 L 15.18,15.45 L 15.36,15.35 L 15,13.07 Z" fill="rgb(19, 148, 216)"/>
<path d="M 17.529999999999998,14.325 L 15.23,13.19 L 15.56,15.29 L 17.54,14.34 Z" fill="rgb(31, 179, 251)"/>
<path d="M 15.370000000000001,16.835 L 15.17,15.46 L 17.54,14.33 L 19.78,15.46 L 18.53,18.42 L 15.38,16.85 Z" fill="url(#n)"/>
<path d="M 15.23,13.174999999999999 L 15,13.09 L 15.35,15.36 L 15.57,15.28 L 15.24,13.19 Z" fill="rgb(51, 197, 253)"/>
<path d="M 21.389999999999997,19.465 L 16.15,16.61 L 16.23,17.24 L 21.17,19.74 L 21.4,19.48 Z" fill="rgb(46, 209, 253)"/>
<path d="M 18.0,16.375 L 17.01,17.67 L 18.52,18.43 L 18.7,18.01 L 18.01,16.39 Z" fill="rgb(18, 207, 253)"/>
<path d="M 17.02,17.634999999999998 L 16.86,17.87 L 17.65,20.49 L 18.53,18.4 L 17.03,17.65 Z" fill="url(#m)"/>
<path d="M 16.4,18.465 L 16.87,17.86 L 17.66,20.44 L 16.98,22.08 L 16.41,18.48 Z" fill="rgb(21, 205, 253)"/>
<path d="M 17.02,17.634999999999998 L 16.42,18.48 L 16.24,17.26 L 17.04,17.66 Z" fill="rgb(35, 173, 253)"/>
<path d="M 16.24,17.265 L 15.4,16.85 L 15.79,19.25 L 16.41,18.46 L 16.25,17.28 Z" fill="rgb(18, 143, 215)"/>
<path d="M 16.979999999999997,22.055 L 16.44,23.31 L 15.78,19.25 L 16.41,18.45 L 16.99,22.07 Z" fill="url(#l)"/>
<path d="M 18.91,18.585 L 18.53,18.4 L 17.66,20.45 L 17.9,21.32 L 19.15,19.18 L 18.92,18.61 Z" fill="rgb(40, 184, 253)"/>
<path d="M 19.139999999999997,19.165 L 18.9,18.59 L 19.34,18.82 L 19.14,19.18 Z" fill="rgb(53, 166, 253)"/>
<path d="M 17.369999999999997,22.245 L 16.98,22.07 L 17.66,20.44 L 17.91,21.31 L 17.38,22.26 Z" fill="rgb(62, 186, 253)"/>
<path d="M 17.369999999999997,22.245 L 16.98,22.06 L 16.77,22.52 L 16.87,23.15 L 17.37,22.25 Z" fill="rgb(12, 171, 237)"/>
<path d="M 16.41,23.314999999999998 L 16.62,22.9 L 17.49,28.03 L 17.13,27.62 L 16.43,23.32 Z" fill="url(#k)"/>
<path d="M 14.52,31.415 L 12,15.18 L 14.77,13.04 L 17.35,29 L 14.53,31.43 Z" fill="url(#j)"/>
<path d="M 14.27,29.825 L 14.53,31.43 L 15.76,30.37 L 17.13,27.63 L 16.5,23.78 L 14.28,29.84 Z" fill="url(#i)"/>
<path d="M 17.099999999999998,27.555 L 17.35,29 L 15.69,30.42 L 17.11,27.57 Z" fill="url(#h)"/>
<path d="M 14.76,28.825 L 13.59,20.61 L 15.51,17.61 L 14.77,13.04 L 12,15.18 L 14.33,30.18 L 14.77,28.84 Z" fill="url(#g)"/>
<path d="M 13.53,20.615 L 14.72,28.66 H 14.78 L 13.61,20.63 L 15.39,17.93 V 17.59 L 13.54,20.63 Z" fill="rgb(95, 235, 253)"/>
<path d="M 12.05,15.115 L 14.32,19.46 L 15.51,17.6 L 15.16,15.48 L 12.06,15.13 Z" fill="url(#f)"/>
<path d="M 14.59,13.145 L 14.78,13.02 L 17.31,28.72 H 17.24 L 14.6,13.18 Z" fill="rgb(235, 254, 253)"/>
<path d="M 19.259999999999998,19.485 L 19.14,19.17 L 19.34,18.81 L 19.59,18.95 L 19.27,19.51 Z" fill="rgb(65, 184, 253)"/>
<path d="M 19.259999999999998,19.495 L 19.15,19.16 L 17.92,21.3 L 18.03,21.75 L 19.27,19.51 Z" fill="rgb(62, 196, 253)"/>
<path d="M 17.65,22.384999999999998 L 17.36,22.26 L 17.92,21.3 L 18.03,21.74 L 17.66,22.4 Z" fill="rgb(68, 196, 253)"/>
<path d="M 17.65,22.384999999999998 L 17.36,22.25 L 16.9,23.07 L 17,23.62 L 17.66,22.4 Z" fill="rgb(14, 181, 246)"/>
<path d="M 18.319999999999997,22.645 L 17.65,22.39 L 16.98,23.6 L 17.28,25.43 L 18.33,22.66 Z" fill="rgb(10, 187, 253)"/>
<path d="M 17.569999999999997,29.085 L 15.37,15.37 L 15.57,15.27 L 17.88,28.81 L 17.58,29.1 Z" fill="rgb(98, 236, 253)"/>
<path d="M 18.31,22.655 L 17.65,22.39 L 19.27,19.49 L 19.4,19.71 L 18.32,22.67 Z" fill="rgb(62, 200, 253)"/>
<path d="M 19.389999999999997,19.705 L 19.26,19.5 L 19.59,18.94 L 19.69,18.99 L 19.39,19.72 Z" fill="rgb(59, 197, 253)"/>
<path d="M 19.54,18.455 L 18.7,18 L 19.78,15.46 L 20.78,15.98 L 20.33,17.14 L 19.55,18.46 Z" fill="rgb(45, 189, 253)"/>
<path d="M 20.939999999999998,16.064999999999998 L 20.78,15.99 L 20.35,17.11 L 20.95,16.08 Z" fill="rgb(85, 201, 253)"/>
<path d="M 19.889999999999997,18.634999999999998 L 20.95,16.08 L 20.33,17.13 L 19.78,18.6 L 19.89,18.65 Z" fill="rgb(106, 218, 253)"/>
<path d="M 19.77,18.585 L 19.54,18.46 L 20.32,17.16 L 19.78,18.6 Z" fill="rgb(61, 199, 253)"/>
<path d="M 21.459999999999997,16.314999999999998 L 20.94,16.08 L 19.94,18.68 L 20.33,18.91 L 21.47,16.33 Z" fill="rgb(99, 226, 253)"/>
<path d="M 19.889999999999997,18.645 L 20.93,16.07 L 19.95,18.69 L 19.89,18.66 Z" fill="rgb(237, 254, 253)"/>
<path d="M 19.75,19.005 L 19.68,18.99 L 18.98,20.82 L 18.32,22.67 L 19.76,19.02 Z" fill="rgb(99, 211, 253)"/>
<path d="M 18.299999999999997,22.665 L 19.74,19.02 L 19.81,19.04 L 18.37,22.68 L 17.3,25.41 V 25.38 L 18.31,22.68 Z" fill="rgb(188, 254, 253)"/>
<path d="M 21.63,16.405 L 21.47,16.33 L 20.33,18.9 L 20.7,19.1 L 21.64,16.42 Z" fill="rgb(72, 199, 253)"/>
<path d="M 21.389999999999997,19.455 L 20.69,19.1 L 21.63,16.42 L 23.25,17.22 L 21.4,19.47 Z" fill="rgb(60, 191, 253)"/>
<path d="M 23.979999999999997,20.875 L 21.39,19.47 L 21.16,19.75 L 23.8,21.09 L 23.99,20.89 Z" fill="rgb(87, 200, 253)"/>
<path d="M 23.95,20.884999999999998 L 21.38,19.47 L 23.25,17.23 L 25.85,18.55 L 23.95,20.89 Z" fill="url(#e)"/>
<path d="M 23.299999999999997,20.525 L 22.62,17.07 L 23.72,20.75 L 23.32,20.55 Z" fill="rgb(91, 200, 253)"/>
<path d="M 23.97,20.865 L 22.64,17.08 L 23.71,20.74 L 23.98,20.88 Z" fill="rgb(82, 217, 253)"/>
<path d="M 18.56,22.765 L 18.36,22.68 L 19.81,19.04 L 20.17,19.22 L 18.57,22.78 Z" fill="rgb(104, 221, 253)"/>
<path d="M 18.349999999999998,22.675 L 17.29,25.41 L 17.33,25.6 L 18.57,22.78 L 18.36,22.68 Z" fill="rgb(72, 217, 253)"/>
<path d="M 17.38,25.915 L 17.33,25.58 L 18.57,22.78 L 17.39,25.93 Z" fill="rgb(28, 202, 253)"/>
<path d="M 20.27,19.245 L 18.89,22.91 L 18.56,22.77 L 20.17,19.21 L 20.28,19.26 Z" fill="rgb(68, 204, 253)"/>
<path d="M 20.569999999999997,19.425 L 20.28,19.26 L 18.89,22.9 L 19.32,23.08 L 20.58,19.44 Z" fill="rgb(70, 187, 253)"/>
<path d="M 23.799999999999997,21.055 L 20.58,19.43 L 19.32,23.08 L 22.02,24.17 L 24.17,21.6 L 24.07,21.3 L 24.27,21.23 L 23.85,21.03 L 23.81,21.07 Z" fill="url(#d)"/>
<path d="M 24.229999999999997,21.205 L 23.84,21.02 L 25.84,18.55 L 26.44,18.84 L 24.64,21.04 L 24.24,21.22 Z" fill="rgb(101, 156, 253)"/>
<path d="M 18.88,22.895 L 18.66,22.81 L 17.61,25.38 L 17.87,25.76 L 18.89,22.91 Z" fill="rgb(12, 188, 253)"/>
<path d="M 19.299999999999997,23.085 L 18.89,22.9 L 17.86,25.76 L 18.22,26.3 L 19.32,23.1 Z" fill="url(#c)"/>
<path d="M 23.459999999999997,24.935 L 18.57,22.77 L 25.07,25.4 L 24.95,25.6 L 23.47,24.95 Z" fill="rgb(131, 252, 253)"/>
<path d="M 20.77,30.165 L 17.62,25.38 L 18.79,27.28 L 20.68,30.16 L 20.78,30.18 Z" fill="rgb(145, 246, 253)"/>
<path d="M 19.299999999999997,23.085 L 18.22,26.31 L 18.54,26.78 L 19.49,27.18 L 20.5,26.18 L 21.3,27.88 L 22.81,28.48 L 22.04,24.57 L 22.24,24.4 L 19.31,23.1 Z" fill="url(#b)"/>
<path d="M 17.38,27.884999999999998 L 17.13,27.58 L 17.33,28.93 L 17.58,29.1 L 17.38,27.9 Z" fill="rgb(13, 158, 228)"/>
<path d="M 17.49,25.615 L 17.62,25.37 L 19.04,27.66 L 18.81,27.86 L 17.51,25.63 Z" fill="rgb(36, 208, 253)"/>
<path d="M 19.06,27.585 L 18.52,26.77 L 19.5,27.17 L 19.07,27.6 Z" fill="rgb(56, 207, 253)"/>
<path d="M 17.49,25.615 L 17.39,25.93 L 18.78,28.03 L 18.88,27.93 L 17.51,25.63 Z" fill="url(#a)"/>
<path d="M 18.79,28.044999999999998 L 17.39,25.93 L 17.45,26.3 L 18.69,28.16 L 18.8,28.06 Z" fill="rgb(113, 246, 253)"/>
<path d="M 17.79,28.375 L 18.04,28.67 L 18.61,28.05 L 17.44,26.28 L 17.8,28.38 Z" fill="rgb(98, 242, 253)"/>
<path d="M 17.869999999999997,28.794999999999998 L 17.58,29.11 L 17.71,29.17 L 18.12,28.74 L 17.79,28.36 L 17.88,28.81 Z" fill="rgb(114, 254, 253)"/>
<path d="M 18.11,28.724999999999998 L 18.05,28.65 L 18.61,28.04 L 18.69,28.16 L 18.12,28.74 Z" fill="rgb(126, 250, 253)"/>
<path d="M 20.77,30.185 L 19.06,27.59 L 20.51,26.16 L 22.51,30.27 L 22.23,30.66 L 20.78,30.19 Z" fill="url(#bn)"/>
<path d="M 23.009999999999998,29.605 L 22.52,30.29 L 21.32,27.87 L 22.82,28.47 L 23.02,29.62 Z" fill="url(#bm)"/>
<path d="M 14.93,31.585 L 14.65,31.51 L 15.97,30.39 L 16.55,30.22 L 15.68,30.96 L 21.64,32.92 L 15.51,31.1 L 14.94,31.6 Z" fill="rgb(213, 253, 252)"/>
<path d="M 18.779999999999998,29.495 L 15.66,30.45 L 17.33,29 L 17.28,29.14 L 17.58,29.09 L 18.78,29.51 Z" fill="rgb(97, 252, 252)"/>
<path d="M 17.569999999999997,29.075 L 17.32,28.91 L 17.28,29.15 L 17.58,29.09 Z" fill="rgb(254, 254, 253)"/>
<path d="M 18.56,32.765 L 18.39,31.96 L 19.77,32.36 L 19.94,33.21 L 18.57,32.78 Z" fill="rgb(107, 198, 223)"/>
<path d="M 19.93,33.195 L 19.76,32.36 L 20.03,32.44 L 20.19,33.3 L 19.94,33.21 Z" fill="rgb(69, 152, 83)"/>
<path d="M 18.79,32.185 L 22.36,33.37 L 24.02,31.25 L 19.03,32.08 L 18.81,32.19 Z" fill="url(#bl)"/>
<path d="M 25.15,21.805 L 24.56,21.48 L 24.2,21.62 L 24,21.85 L 24.36,22.8 L 25.16,21.82 Z" fill="rgb(64, 209, 253)"/>
<path d="M 22.229999999999997,24.384999999999998 L 22.04,24.57 L 23.26,31 L 23.6,31.13 L 22.3,24.44 L 22.23,24.4 Z" fill="rgb(43, 130, 115)"/>
<path d="M 22.99,29.625 L 22.22,30.66 L 23.27,31.02 L 23.01,29.64 Z" fill="rgb(84, 195, 182)"/>
<path d="M 23.029999999999998,24.564999999999998 L 22.02,24.17 L 24.02,21.83 L 24.39,22.83 L 23.04,24.58 Z" fill="rgb(72, 214, 253)"/>
<path d="M 26.529999999999998,18.855 L 26.42,18.83 L 24.62,21.05 L 24.06,21.29 L 24.14,21.59 L 22.03,24.18 L 24.21,21.63 L 24.73,21.45 L 24.66,21.11 L 26.54,18.87 Z" fill="url(#bk)"/>
<path d="M 24.259999999999998,21.325 L 24.3,21.49 L 24.5,21.42 V 21.3 L 24.6,21.11 L 24.45,21.25 L 24.27,21.35 Z" fill="rgb(248, 254, 253)"/>
<path d="M 24.63,21.085 L 24.67,21.47 L 27.29,22.77 L 27.35,22.67 L 24.77,21.27 L 26.54,18.87 L 24.64,21.1 Z" fill="rgb(181, 76, 181)"/>
<path d="M 25.06,25.384999999999998 L 23.03,24.58 L 24.35,22.82 L 25.07,25.39 Z" fill="url(#bj)"/>
<path d="M 25.15,21.805 L 24.35,22.82 L 25.06,25.38 L 27.07,22.87 L 25.16,21.82 Z" fill="rgb(79, 225, 253)"/>
<path d="M 24.66,21.445 L 24.57,21.5 L 27.07,22.86 L 25.06,25.38 L 27.29,22.78 L 24.67,21.46 Z" fill="rgb(107, 252, 253)"/>
<path d="M 25.99,21.915 L 24.76,21.27 L 26.54,18.87 L 27.98,19.6 L 25.99,21.93 Z" fill="rgb(118, 105, 245)"/>
<path d="M 27.349999999999998,22.655 L 25.99,21.93 L 27.96,19.59 L 31.86,21.54 L 31.76,21.69 L 29.62,20.57 L 31.06,22.27 L 30.2,23.42 L 27.75,22.22 L 27.35,22.67 Z" fill="url(#bi)"/>
<path d="M 31.029999999999998,22.245 L 29.61,20.55 L 31.51,21.55 L 31.67,21.85 L 31.14,22.41 L 31.04,22.26 Z" fill="rgb(157, 208, 253)"/>
<path d="M 31.04,22.255 L 30.3,23.31 L 32.8,24.47 L 31.86,21.53 L 31.76,21.71 L 32.38,23.8 L 31.05,22.27 Z" fill="rgb(123, 87, 210)"/>
<path d="M 31.75,21.665 L 31.13,22.4 L 32.4,23.84 L 31.76,21.68 Z" fill="rgb(98, 145, 242)"/>
<path d="M 22.889999999999997,24.685 L 22.32,24.43 L 22.5,25.46 L 23.1,25.6 L 22.9,24.7 Z" fill="rgb(66, 174, 138)"/>
<path d="M 23.09,25.585 L 22.5,25.46 L 23.11,28.61 L 23.61,28.83 L 23.76,28.69 L 23.1,25.59 Z" fill="rgb(45, 155, 130)"/>
<path d="M 23.259999999999998,25.615 L 23.1,25.59 L 22.9,24.69 L 23.1,24.78 L 23.27,25.63 Z" fill="rgb(54, 141, 103)"/>
<path d="M 23.24,25.615 L 23.09,24.78 L 23.61,25.01 L 23.72,25.77 L 23.25,25.63 Z" fill="rgb(35, 83, 56)"/>
<path d="M 23.25,25.615 L 23.09,25.59 L 23.75,28.69 L 23.86,28.55 L 23.26,25.63 Z" fill="rgb(40, 133, 107)"/>
<path d="M 23.549999999999997,27.145 L 23.26,25.61 L 23.72,25.76 L 23.91,26.8 L 23.56,27.16 Z" fill="url(#bh)"/>
<path d="M 23.849999999999998,28.535 L 23.56,27.13 L 23.91,26.8 L 24.15,28.21 L 23.85,28.55 Z" fill="rgb(24, 79, 38)"/>
<path d="M 23.58,24.985 L 23.91,26.8 L 24.05,26.6 L 23.85,25.1 L 23.59,25 Z" fill="rgb(38, 132, 101)"/>
<path d="M 24.939999999999998,25.585 L 23.84,25.1 L 23.94,25.8 L 24.59,25.97 L 24.95,25.59 Z" fill="url(#bg)"/>
<path d="M 24.59,25.955 L 24.04,26.62 L 23.93,25.8 L 24.59,25.97 Z" fill="rgb(40, 150, 118)"/>
<path d="M 23.099999999999998,28.595 L 23.14,28.73 L 23.57,28.91 L 23.61,28.83 L 23.11,28.61 Z" fill="rgb(78, 150, 48)"/>
<path d="M 23.889999999999997,26.765 L 24.14,28.2 L 24.28,28.04 L 24.05,26.59 L 23.9,26.79 Z" fill="rgb(40, 126, 66)"/>
<path d="M 24.58,25.945 L 24.03,26.62 L 24.27,28.05 L 25.12,26.95 L 26.62,30.01 L 27.22,30.26 L 27.52,29.48 L 26.62,26.35 L 24.59,25.96 Z" fill="url(#bf)"/>
<path d="M 23.849999999999998,29.005 L 23.75,28.67 L 23.55,28.9 L 23.85,29.02 Z" fill="rgb(73, 192, 193)"/>
<path d="M 23.84,29.005 L 23.75,28.67 L 23.88,28.54 L 23.99,29.08 L 23.85,29.02 Z" fill="rgb(65, 172, 175)"/>
<path d="M 23.959999999999997,29.055 L 23.86,28.55 L 24.15,28.21 L 24.3,29.2 L 23.97,29.07 Z" fill="rgb(40, 111, 78)"/>
<path d="M 24.31,29.285 L 23.99,29.18 L 25.14,34.96 L 25.29,35.02 L 24.32,29.3 Z" fill="url(#be)"/>
<path d="M 23.5,28.985 L 23.25,29.32 L 23.61,31.12 L 24.01,31.26 L 23.64,31.72 L 23.66,31.87 L 24.09,31.33 L 24.44,31.45 L 23.98,29.16 L 23.51,28.99 Z" fill="url(#bd)"/>
<path d="M 21.919999999999998,33.845 L 20.19,33.3 L 20.06,32.6 L 22.36,33.36 L 21.93,33.86 Z" fill="url(#bc)"/>
<path d="M 24.689999999999998,31.485 L 24.27,29.09 L 27.23,30.25 L 26.6,32.17 L 24.7,31.5 Z" fill="url(#bb)"/>
<path d="M 26.02,29.895 L 23.14,28.73 L 23.16,28.86 L 26,29.95 L 26.03,29.91 Z" fill="rgb(81, 172, 63)"/>
<path d="M 27.4,22.825 L 24.95,25.59 V 25.46 L 27.72,22.23 L 27.95,23.13 L 27.41,22.84 Z" fill="rgb(10, 103, 73)"/>
<path d="M 27.919999999999998,23.115 L 27.71,22.2 L 31.79,24.16 L 33.05,25.77 L 27.93,23.13 Z" fill="rgb(254, 46, 2)"/>
<path d="M 26.619999999999997,26.355 L 26.05,24.32 L 27.41,22.82 L 27.93,23.12 L 29.16,27.41 L 26.63,26.37 Z" fill="url(#ba)"/>
<path d="M 28.299999999999997,27.035 L 27.51,29.48 L 26.62,26.35 L 28.31,27.05 Z" fill="url(#az)"/>
<path d="M 27.79,30.465 L 27.5,29.47 L 28.3,27.03 L 29.04,27.35 L 30.19,31.44 L 27.79,30.48 Z" fill="url(#ay)"/>
<path d="M 26.069999999999997,24.525 L 27.56,22.86 L 27.79,23 L 29.78,29.9 H 29.65 L 27.61,22.96 L 26.13,24.66 L 26.08,24.54 Z" fill="rgb(122, 168, 247)"/>
<path d="M 33.79,26.125 L 27.9,23.09 L 28.98,26.86 L 31.76,28.06 L 33.8,26.14 Z" fill="url(#ax)"/>
<path d="M 33.010000000000005,25.735 L 31.8,24.15 L 37.06,26.76 L 37.27,27.1 L 36.61,26.8 L 38.44,29.52 L 37.4,30.48 L 36.81,30.22 L 33.55,26.39 L 33.8,26.14 L 33.02,25.75 Z" fill="url(#aw)"/>
<path d="M 31.11,28.245 L 29.14,27.39 L 28.98,26.84 L 30.34,27.42 L 31.12,28.26 Z" fill="rgb(188, 143, 122)"/>
<path d="M 29.189999999999998,27.384999999999998 L 29.04,27.36 L 31.76,37.48 L 25.56,36.13 L 31.76,37.69 L 31.38,38.38 L 32.21,37.87 L 33.83,38.23 L 35.87,38.53 L 32.11,37.69 L 29.19,27.4 Z" fill="rgb(249, 254, 253)"/>
<path d="M 27.79,30.465 L 27.22,30.24 L 27.51,29.46 L 27.81,30.48 Z" fill="rgb(153, 228, 83)"/>
<path d="M 27.79,30.455 L 27.21,30.24 L 27.02,30.84 L 27.94,32.59 L 28.45,32.76 L 27.8,30.47 Z" fill="rgb(145, 217, 86)"/>
<path d="M 27.97,32.585 L 26.6,32.15 L 27.04,30.78 L 27.98,32.6 Z" fill="rgb(154, 228, 97)"/>
<path d="M 24.02,34.555 L 21.93,33.86 L 23.43,32 L 24.03,34.57 Z" fill="url(#av)"/>
<path d="M 24.169999999999998,34.615 L 23.64,31.72 L 23.44,32 L 24.03,34.57 L 24.18,34.63 Z" fill="url(#au)"/>
<path d="M 25.139999999999997,34.925 L 24.15,34.61 L 23.65,31.86 L 24.09,31.33 L 24.44,31.46 L 25.14,34.94 Z" fill="url(#at)"/>
<path d="M 26.58,32.144999999999996 L 24.67,31.49 L 25.28,35.01 L 25.65,35.11 L 26.59,32.16 Z" fill="url(#as)"/>
<path d="M 28.45,32.745 L 26.6,32.12 L 26.25,33.12 L 28.46,32.76 Z" fill="rgb(150, 228, 125)"/>
<path d="M 31.75,37.464999999999996 L 25.89,36.21 L 26.15,35.89 L 31.47,36.21 L 31.76,37.48 Z" fill="rgb(232, 254, 253)"/>
<path d="M 28.24,36.015 L 26.52,35.4 L 26.14,35.9 L 28.25,36.03 Z" fill="url(#ar)"/>
<path d="M 28.389999999999997,32.675 L 26.51,35.41 L 28.3,36.1 L 31.46,36.22 L 30.11,31.35 L 27.79,30.45 L 28.41,32.69 Z" fill="url(#aq)"/>
<path d="M 25.41,35.714999999999996 L 25.28,35.02 L 25.66,35.12 L 25.42,35.73 Z" fill="rgb(189, 243, 93)"/>
<path d="M 26.389999999999997,35.345 L 25.65,35.11 L 25.42,35.72 L 25.51,36.15 L 25.77,36.2 L 26.41,35.36 Z" fill="rgb(203, 254, 149)"/>
<path d="M 26.66,42.275 L 25.52,36.8 L 25.69,36.54 L 30.78,39 L 26.67,42.28 Z" fill="url(#ap)"/>
<path d="M 30.9,37.435 L 25.94,36.19 L 25.68,36.58 L 30.78,39.01 L 30.91,37.45 Z" fill="rgb(214, 254, 216)"/>
<path d="M 27.04,42.315 L 26.67,42.27 L 30.75,39 L 31.05,38.94 L 27.05,42.34 Z" fill="rgb(73, 136, 58)"/>
<path d="M 33.89,38.175 L 30.75,38.99 L 32.25,37.84 L 33.91,38.19 Z" fill="rgb(171, 241, 160)"/>
<path d="M 31.77,37.665 L 30.9,37.45 L 30.76,39.01 L 32.26,37.83 L 31.39,38.36 L 31.78,37.68 Z" fill="rgb(222, 254, 253)"/>
<path d="M 30.729999999999997,41.705 L 27.07,42.31 L 30.17,39.66 L 30.74,41.72 Z" fill="rgb(111, 210, 30)"/>
<path d="M 30.729999999999997,41.705 L 30.16,39.66 L 31.01,38.93 L 32.49,38.54 L 36.11,39.48 L 35.86,38.57 L 37.5,38.87 L 38.03,40.17 L 37.4,40.73 L 30.74,41.72 Z" fill="url(#ao)"/>
<path d="M 36.120000000000005,39.485 L 32.46,38.54 L 33.8,38.19 L 35.88,38.54 L 36.13,39.5 Z" fill="rgb(133, 213, 87)"/>
<path d="M 30.74,41.685 L 27.08,42.32 L 31,42.52 L 30.75,41.71 Z" fill="rgb(49, 191, 69)"/>
<path d="M 30.97,42.515 L 30.73,41.71 L 37.4,40.71 L 35.08,42.72 L 30.98,42.53 Z" fill="url(#am)"/>
<path d="M 40.760000000000005,42.985 L 40.17,41.44 L 43.24,40.71 L 40.77,43 Z" fill="url(#al)"/>
<path d="M 39.28,39.125 L 39.77,40.38 L 42.87,39.92 L 39.29,39.14 Z" fill="rgb(108, 100, 59)"/>
<path d="M 40.06,41.175 L 39.77,40.37 L 42.74,39.9 L 43.77,40.12 L 40.07,41.19 Z" fill="url(#ak)"/>
<path d="M 40.75,42.985 L 35.08,42.71 L 39.2,39.15 H 39.32 L 40.76,43 Z" fill="url(#aj)"/>
<path d="M 43.75,40.085 L 40.06,41.17 L 40.16,41.45 L 43,40.85 L 43.76,40.1 Z" fill="url(#ai)"/>
<path d="M 43.660000000000004,40.125 C 42.71,41.07 40.81,42.94 40.75,42.98 L 44,40.14 L 43.3,38.5 L 43.7,39.93 L 40.2,39.22 L 38.42,33.3 L 37.66,30.6 L 37.59,30.56 L 35.49,32.76 L 37.59,30.69 L 38.36,33.23 L 40.1,39.37 L 43.67,40.14 Z" fill="rgb(235, 254, 75)"/>
<path d="M 34.65,38.265 L 31.24,34.62 L 32.1,37.69 L 34.66,38.28 Z" fill="rgb(245, 254, 253)"/>
<path d="M 32.46,28.645 L 30.27,31.31 L 30.32,31.42 L 30.46,31.48 L 32.47,28.66 Z" fill="rgb(249, 254, 72)"/>
<path d="M 32.04,29.155 L 31.06,28.22 L 29.18,27.4 L 30.28,31.3 L 32.05,29.17 Z" fill="url(#ah)"/>
<path d="M 35.230000000000004,33.415 L 30.34,31.43 L 31.21,34.61 L 32.37,35.81 L 35.24,33.43 Z" fill="url(#ag)"/>
<path d="M 34.56,33.964999999999996 L 32.37,35.83 L 34.63,38.25 L 35.87,38.54 L 34.57,33.98 Z" fill="rgb(247, 254, 55)"/>
<path d="M 35.690000000000005,34.644999999999996 L 34.97,35.43 L 34.57,34.06 L 35.23,33.48 L 35.7,34.66 Z" fill="rgb(223, 194, 35)"/>
<path d="M 35.21,33.425 L 34.54,33.98 L 34.57,34.09 L 35.22,33.5 L 37.4,38.76 L 35.86,38.46 V 38.58 L 39.3,39.23 L 39.34,39.13 L 37.51,38.79 L 35.28,33.5 L 37.73,34.39 L 35.28,33.44 L 34.3,31.34 L 35.22,33.44 Z" fill="rgb(247, 254, 55)"/>
<path d="M 33.57,30.655 L 33.09,28.97 L 33.27,29.04 L 34.31,31.38 L 33.58,30.67 Z" fill="rgb(197, 91, 49)"/>
<path d="M 32.04,29.165 L 31.11,28.26 L 31.53,28.24 L 32.46,28.67 L 32.06,29.17 Z" fill="rgb(198, 106, 62)"/>
<path d="M 31.09,28.255 L 30.3,27.41 L 31.77,28.05 L 31.41,28.35 L 31.11,28.27 Z" fill="rgb(173, 118, 140)"/>
<path d="M 33.580000000000005,30.665 L 32.09,29.21 L 32.47,28.68 L 33.09,28.95 L 33.59,30.68 Z" fill="rgb(203, 113, 47)"/>
<path d="M 34.29,28.925 L 28.95,26.79 L 29.01,26.97 L 37.61,30.56 L 39.18,28.94 L 39.07,28.82 L 37.47,30.42 L 34.57,29.11 L 33.74,26.1 L 34.3,28.94 Z" fill="rgb(237, 254, 253)F2D"/>
<path d="M 33.52,26.365 L 31.84,27.96 L 34.3,28.96 L 33.89,26.78 L 33.53,26.38 Z" fill="url(#af)"/>
<path d="M 36.68,30.055 L 33.94,26.81 L 34.56,29.11 L 36.69,30.07 Z" fill="rgb(236, 154, 3)"/>
<path d="M 38.02,40.155 L 37.5,38.89 L 39.14,39.2 L 38.03,40.17 Z" fill="rgb(149, 192, 68)"/>
<path d="M 34.29,31.355 L 33.29,29.04 L 33.07,28.9 L 33,28.65 L 35.36,29.61 L 36.26,31.96 L 35.61,32.64 L 34.31,31.37 Z" fill="url(#ae)"/>
<path d="M 29.04,26.945 L 29.64,28.8 L 29.36,27.28 L 34.95,29.78 L 29.05,26.96 Z" fill="rgb(226, 88, 52)"/>
<path d="M 36.72,30.185 L 35.35,29.6 L 36.26,31.96 L 37.29,30.86 L 36.73,30.2 Z" fill="url(#ad)"/>
<path d="M 37.59,30.544999999999998 L 37.34,30.84 L 36.83,30.22 L 37.61,30.56 Z" fill="rgb(218, 198, 83)"/>
<path d="M 37.92,31.595 L 36.91,30.43 L 35.57,28.73 L 37.83,31.37 L 37.93,31.61 Z" fill="rgb(237, 254, 253)FFF"/>
<path d="M 43.550000000000004,39.885 L 41.14,37.66 L 42.18,36.76 L 43.26,38.05 L 43.86,39.83 L 43.31,38.51 L 43.71,39.95 L 43.56,39.9 Z" fill="rgb(227, 125, 9)"/>
<path d="M 40.21,35.355 L 38.87,34.81 L 39.18,35.87 L 41.11,37.64 L 42.11,36.69 L 41.45,35.91 L 40.22,35.37 Z" fill="url(#ac)"/>
<path d="M 36.7,33.575 L 35.65,32.6 L 36.28,31.98 L 36.83,33.41 L 36.71,33.59 Z" fill="rgb(223, 90, 33)"/>
<path d="M 41.32,35.765 L 39.73,33.85 L 38.86,34.83 L 41.33,35.78 Z" fill="url(#ab)"/>
<path d="M 42.09,36.714999999999996 L 41.42,35.89 L 42.56,36.29 L 42.1,36.73 Z" fill="rgb(218, 175, 73)"/>
<path d="M 42.45,36.355 L 40.66,38.07 L 42.7,36.31 L 39.88,35.23 L 42.46,36.37 Z" fill="rgb(220, 216, 74)"/>
<path d="M 38.93,31.165 L 37.6,30.58 L 38.5,29.63 L 39.3,30.79 L 38.94,31.19 Z" fill="rgb(184, 41, 24)"/>
<path d="M 39.79,31.505 L 37.66,30.6 L 37.94,31.62 L 39.74,33.87 L 40.62,32.77 L 39.8,31.52 Z" fill="url(#aa)"/>
<path d="M 39.79,31.525 L 39.3,30.78 L 38.94,31.17 L 39.8,31.54 Z" fill="rgb(223, 54, 21)"/>
<path d="M 39.56,30.505 L 39.3,30.79 L 38.5,29.64 L 38.79,29.34 L 39.57,30.52 Z" fill="rgb(207, 131, 36)"/>
<path d="M 38.690000000000005,29.165 L 38.4,29.49 L 36.58,26.78 L 37.26,27.09 L 38.7,29.19 Z" fill="url(#z)"/>
<path d="M 39.89,28.125 L 37.07,26.75 L 37.27,27.1 L 39.74,28.32 L 40.22,29.83 L 40.4,29.65 L 39.9,28.15 Z" fill="url(#y)"/>
<path d="M 41.42,33.255 L 39.56,30.52 L 40.22,29.82 L 41.43,33.27 Z" fill="rgb(232, 137, 20)"/>
<defs>
<linearGradient id="bo" x1="10.42" x2="68.15" y1="9.71" y2="76.02" gradientUnits="userSpaceOnUse">
<stop stop-color="rgb(25, 29, 31)" offset="0"/>
<stop stop-color="rgb(5, 5, 8)" offset="1"/>
</linearGradient>
<linearGradient id="an" x1="40.98" x2="40.98" y1="29.62" y2="38.1" gradientUnits="userSpaceOnUse">
<stop stop-color="rgb(218, 77, 17)" offset="0"/>
<stop stop-color="rgb(210, 133, 44)" offset="1"/>
</linearGradient>
<linearGradient id="x" x1="39.72" x2="38.78" y1="28.48" y2="29.15" gradientUnits="userSpaceOnUse">
<stop stop-color="rgb(254, 254, 253)" offset="0"/>
<stop stop-color="rgb(234, 239, 101)" offset="1"/>
</linearGradient>
<linearGradient id="w" x1="37.16" x2="37.16" y1="30.63" y2="33.44" gradientUnits="userSpaceOnUse">
<stop stop-color="rgb(216, 141, 58)" offset="0"/>
<stop stop-color="rgb(231, 104, 2)" offset=".27"/>
<stop stop-color="rgb(232, 75, 35)" offset="1"/>
</linearGradient>
<linearGradient id="v" x1="41.09" x2="40.37" y1="38.01" y2="39.16" gradientUnits="userSpaceOnUse">
<stop stop-color="rgb(236, 196, 85)" offset="0"/>
<stop stop-color="rgb(244, 243, 185)" offset="1"/>
</linearGradient>
<linearGradient id="u" x1="38.61" x2="38.61" y1="34.14" y2="39.35" gradientUnits="userSpaceOnUse">
<stop stop-color="rgb(246, 157, 31)" offset="0"/>
<stop stop-color="rgb(243, 183, 37)" offset="1"/>
</linearGradient>
<linearGradient id="t" x1="36.1" x2="38.56" y1="34.35" y2="38.5" gradientUnits="userSpaceOnUse">
<stop stop-color="rgb(222, 195, 47)" offset="0"/>
<stop stop-color="rgb(231, 146, 46)" offset="1"/>
</linearGradient>
<linearGradient id="s" x1="34.76" x2="36.26" y1="35.43" y2="36.13" gradientUnits="userSpaceOnUse">
<stop stop-color="rgb(235, 240, 40)" offset="0"/>
<stop stop-color="rgb(215, 197, 58)" offset="1"/>
</linearGradient>
<linearGradient id="r" x1="31.77" x2="33.06" y1="32.13" y2="30.39" gradientUnits="userSpaceOnUse">
<stop stop-color="rgb(182, 224, 47)" offset="0"/>
<stop stop-color="rgb(201, 157, 47)" offset="1"/>
</linearGradient>
<linearGradient id="q" x1="26.02" x2="25.6" y1="25.71" y2="26.36" gradientUnits="userSpaceOnUse">
<stop stop-color="rgb(56, 200, 242)" offset="0"/>
<stop stop-color="rgb(107, 235, 253)" offset=".33"/>
<stop stop-color="rgb(35, 140, 91)" offset="1"/>
</linearGradient>
<linearGradient id="p" x1="19.24" x2="19.24" y1="27.53" y2="30.16" gradientUnits="userSpaceOnUse">
<stop stop-color="rgb(85, 217, 253)" offset="0"/>
<stop stop-color="rgb(47, 164, 209)" offset="1"/>
</linearGradient>
<linearGradient id="o" x1="18.23" x2="20.96" y1="29.82" y2="32.11" gradientUnits="userSpaceOnUse">
<stop stop-color="rgb(53, 240, 249)" offset="0"/>
<stop stop-color="rgb(74, 216, 248)" offset="1"/>
</linearGradient>
<linearGradient id="n" x1="15.81" x2="17.13" y1="15" y2="17.4" gradientUnits="userSpaceOnUse">
<stop stop-color="rgb(56, 215, 253)" offset="0"/>
<stop stop-color="rgb(38, 198, 253)" offset="1"/>
</linearGradient>
<linearGradient id="m" x1="17.71" x2="17.71" y1="17.65" y2="20.49" gradientUnits="userSpaceOnUse">
<stop stop-color="rgb(22, 192, 253)" offset="0"/>
<stop stop-color="rgb(55, 201, 253)" offset="1"/>
</linearGradient>
<linearGradient id="l" x1="16.65" x2="15.91" y1="19.79" y2="20" gradientUnits="userSpaceOnUse">
<stop stop-color="rgb(32, 176, 253)" offset="0"/>
<stop stop-color="rgb(15, 139, 206)" offset="1"/>
</linearGradient>
<linearGradient id="k" x1="16.55" x2="16.82" y1="24.34" y2="24.31" gradientUnits="userSpaceOnUse">
<stop stop-color="rgb(11, 105, 170)" offset="0"/>
<stop stop-color="rgb(33, 139, 206)" offset="1"/>
</linearGradient>
<linearGradient id="j" x1="13.02" x2="15.3" y1="14.67" y2="30.24" gradientUnits="userSpaceOnUse">
<stop stop-color="rgb(86, 215, 253)" offset="0"/>
<stop stop-color="rgb(34, 152, 222)" offset="1"/>
</linearGradient>
<linearGradient id="i" x1="15.7" x2="15.7" y1="23.78" y2="31.43" gradientUnits="userSpaceOnUse">
<stop stop-color="rgb(35, 188, 253)" offset="0"/>
<stop stop-color="rgb(33, 170, 231)" offset="1"/>
</linearGradient>
<linearGradient id="h" x1="17.59" x2="16.66" y1="29.04" y2="28.8" gradientUnits="userSpaceOnUse">
<stop stop-color="rgb(112, 252, 253)" offset="0"/>
<stop stop-color="rgb(27, 192, 253)" offset="1"/>
</linearGradient>
<linearGradient id="g" x1="13.75" x2="13.75" y1="13.04" y2="30.18" gradientUnits="userSpaceOnUse">
<stop stop-color="rgb(80, 208, 253)" offset="0"/>
<stop stop-color="rgb(62, 222, 253)" offset=".25"/>
<stop stop-color="rgb(23, 139, 202)" offset="1"/>
</linearGradient>
<linearGradient id="f" x1="14.92" x2="14.09" y1="16.21" y2="17.35" gradientUnits="userSpaceOnUse">
<stop stop-color="rgb(171, 254, 253)" offset=".32"/>
<stop stop-color="rgb(216, 254, 253)" offset=".4"/>
<stop stop-color="rgb(249, 254, 253)" offset=".48"/>
<stop stop-color="rgb(78, 233, 253)" offset=".59"/>
<stop stop-color="rgb(82, 234, 253)" offset="1"/>
</linearGradient>
<linearGradient id="e" x1="22.22" x2="24.23" y1="18.47" y2="19.92" gradientUnits="userSpaceOnUse">
<stop stop-color="rgb(65, 174, 253)" offset="0"/>
<stop stop-color="rgb(80, 195, 253)" offset="1"/>
</linearGradient>
<linearGradient id="d" x1="20.8" x2="22.67" y1="19.63" y2="22.9" gradientUnits="userSpaceOnUse">
<stop stop-color="rgb(63, 179, 253)" offset="0"/>
<stop stop-color="rgb(75, 218, 253)" offset="1"/>
</linearGradient>
<linearGradient id="c" x1="19.05" x2="18.17" y1="23.21" y2="25.73" gradientUnits="userSpaceOnUse">
<stop stop-color="rgb(13, 182, 248)" offset="0"/>
<stop stop-color="rgb(37, 205, 253)" offset="1"/>
</linearGradient>
<linearGradient id="b" x1="20.52" x2="21.16" y1="23.1" y2="26.98" gradientUnits="userSpaceOnUse">
<stop stop-color="rgb(11, 177, 247)" offset="0"/>
<stop stop-color="rgb(50, 213, 253)" offset="1"/>
</linearGradient>
<linearGradient id="a" x1="17.51" x2="18.72" y1="25.88" y2="27.71" gradientUnits="userSpaceOnUse">
<stop stop-color="rgb(28, 211, 253)" offset="0"/>
<stop stop-color="rgb(102, 245, 253)" offset="1"/>
</linearGradient>
<linearGradient id="bn" x1="19.38" x2="21.69" y1="27.29" y2="29.97" gradientUnits="userSpaceOnUse">
<stop stop-color="rgb(80, 221, 253)" offset=".51"/>
<stop stop-color="rgb(81, 176, 132)" offset="1"/>
</linearGradient>
<linearGradient id="bm" x1="21.64" x2="22.7" y1="28.14" y2="29.85" gradientUnits="userSpaceOnUse">
<stop stop-color="rgb(72, 185, 177)" offset="0"/>
<stop stop-color="rgb(84, 176, 126)" offset="1"/>
</linearGradient>
<linearGradient id="bl" x1="19.53" x2="23.75" y1="32.35" y2="31.59" gradientUnits="userSpaceOnUse">
<stop stop-color="rgb(74, 205, 235)" offset="0"/>
<stop stop-color="rgb(84, 207, 238)" offset=".56"/>
<stop stop-color="rgb(91, 204, 142)" offset="1"/>
</linearGradient>
<linearGradient id="bk" x1="26.54" x2="24.52" y1="19.52" y2="22.19" gradientUnits="userSpaceOnUse">
<stop stop-color="rgb(101, 152, 253)" offset="0"/>
<stop stop-color="rgb(82, 254, 253)" offset="1"/>
</linearGradient>
<linearGradient id="bj" x1="24.74" x2="24.05" y1="23.81" y2="25.39" gradientUnits="userSpaceOnUse">
<stop stop-color="rgb(97, 226, 253)" offset=".44"/>
<stop stop-color="rgb(118, 243, 253)" offset="1"/>
</linearGradient>
<linearGradient id="bi" x1="26.6" x2="29.85" y1="21.3" y2="21" gradientUnits="userSpaceOnUse">
<stop stop-color="rgb(96, 102, 253)" offset=".52"/>
<stop stop-color="rgb(194, 184, 253)" offset="1"/>
</linearGradient>
<linearGradient id="bh" x1="23.25" x2="24.09" y1="25.81" y2="26.76" gradientUnits="userSpaceOnUse">
<stop stop-color="rgb(31, 82, 58)" offset="0"/>
<stop stop-color="rgb(33, 95, 70)" offset="1"/>
</linearGradient>
<linearGradient id="bg" x1="24.6" x2="24.39" y1="25.54" y2="25.97" gradientUnits="userSpaceOnUse">
<stop stop-color="rgb(92, 209, 213)" offset="0"/>
<stop stop-color="rgb(55, 159, 110)" offset="1"/>
</linearGradient>
<linearGradient id="bf" x1="24.29" x2="27.22" y1="26.56" y2="29.95" gradientUnits="userSpaceOnUse">
<stop stop-color="rgb(34, 139, 90)" offset="0"/>
<stop stop-color="rgb(63, 207, 197)" offset=".3"/>
<stop stop-color="rgb(154, 232, 62)" offset="1"/>
</linearGradient>
<linearGradient id="be" x1="24.09" x2="25.19" y1="29.58" y2="34.5" gradientUnits="userSpaceOnUse">
<stop stop-color="rgb(49, 119, 70)" offset="0"/>
<stop stop-color="rgb(140, 149, 55)" offset="1"/>
</linearGradient>
<linearGradient id="bd" x1="23.85" x2="23.97" y1="28.99" y2="31.12" gradientUnits="userSpaceOnUse">
<stop stop-color="rgb(86, 186, 156)" offset="0"/>
<stop stop-color="rgb(96, 173, 75)" offset="1"/>
</linearGradient>
<linearGradient id="bc" x1="20.26" x2="21.82" y1="33.03" y2="33.83" gradientUnits="userSpaceOnUse">
<stop stop-color="rgb(94, 172, 132)" offset="0"/>
<stop stop-color="rgb(112, 197, 204)" offset="1"/>
</linearGradient>
<linearGradient id="bb" x1="24.61" x2="26.33" y1="29.96" y2="31.57" gradientUnits="userSpaceOnUse">
<stop stop-color="rgb(67, 158, 98)" offset="0"/>
<stop stop-color="rgb(137, 214, 76)" offset="1"/>
</linearGradient>
<linearGradient id="ba" x1="27.6" x2="26.35" y1="23.13" y2="24.94" gradientUnits="userSpaceOnUse">
<stop stop-color="rgb(136, 114, 203)" offset="0"/>
<stop stop-color="rgb(75, 219, 253)" offset="1"/>
</linearGradient>
<linearGradient id="az" x1="27.38" x2="26.62" y1="26.51" y2="28.58" gradientUnits="userSpaceOnUse">
<stop stop-color="rgb(96, 241, 248)" offset="0"/>
<stop stop-color="rgb(80, 213, 167)" offset=".32"/>
</linearGradient>
<linearGradient id="ay" x1="28.85" x2="28.85" y1="27.03" y2="31.44" gradientUnits="userSpaceOnUse">
<stop stop-color="rgb(114, 230, 194)" offset="0"/>
<stop stop-color="rgb(201, 254, 63)" offset="1"/>
</linearGradient>
<linearGradient id="ax" x1="28.32" x2="32.8" y1="23.88" y2="23.99" gradientUnits="userSpaceOnUse">
<stop stop-color="rgb(168, 127, 166)" offset="0"/>
<stop stop-color="rgb(132, 187, 131)" offset=".56"/>
<stop stop-color="rgb(232, 251, 15)" offset="1"/>
</linearGradient>
<linearGradient id="aw" x1="37.28" x2="36.68" y1="26.82" y2="30.04" gradientUnits="userSpaceOnUse">
<stop stop-color="rgb(214, 102, 33)" offset="0"/>
<stop stop-color="rgb(227, 221, 59)" offset="1"/>
</linearGradient>
<linearGradient id="av" x1="23.01" x2="22.98" y1="33.33" y2="34.57" gradientUnits="userSpaceOnUse">
<stop stop-color="rgb(70, 166, 165)" offset="0"/>
<stop stop-color="rgb(82, 152, 113)" offset="1"/>
</linearGradient>
<linearGradient id="au" x1="23.49" x2="23.98" y1="31.84" y2="34.54" gradientUnits="userSpaceOnUse">
<stop stop-color="rgb(75, 145, 75)" offset="0"/>
<stop stop-color="rgb(135, 196, 55)" offset="1"/>
</linearGradient>
<linearGradient id="at" x1="24.07" x2="24.33" y1="31.58" y2="33.62" gradientUnits="userSpaceOnUse">
<stop stop-color="rgb(90, 210, 212)" offset="0"/>
<stop stop-color="rgb(87, 197, 171)" offset=".09"/>
<stop stop-color="rgb(133, 202, 69)" offset=".85"/>
<stop stop-color="rgb(149, 209, 47)" offset="1"/>
</linearGradient>
<linearGradient id="as" x1="25.63" x2="25.63" y1="31.49" y2="35.12" gradientUnits="userSpaceOnUse">
<stop stop-color="rgb(89, 188, 118)" offset="0"/>
<stop stop-color="rgb(145, 216, 71)" offset=".71"/>
</linearGradient>
<linearGradient id="ar" x1="26.26" x2="27.2" y1="35.68" y2="36.03" gradientUnits="userSpaceOnUse">
<stop stop-color="rgb(223, 254, 200)" offset="0"/>
<stop stop-color="rgb(232, 254, 253)" offset="1"/>
</linearGradient>
<linearGradient id="aq" x1="28.98" x2="28.98" y1="30.48" y2="36.16" gradientUnits="userSpaceOnUse">
<stop stop-color="rgb(181, 247, 90)" offset="0"/>
<stop stop-color="rgb(216, 254, 253)" offset=".69"/>
</linearGradient>
<linearGradient id="ap" x1="28.51" x2="27.09" y1="38.03" y2="42.24" gradientUnits="userSpaceOnUse">
<stop stop-color="rgb(113, 254, 35)" offset="0"/>
<stop stop-color="rgb(84, 213, 103)" offset=".76"/>
<stop stop-color="rgb(237, 254, 253)FE6" offset="1"/>
</linearGradient>
<linearGradient id="ao" x1="30.92" x2="35.81" y1="39.33" y2="42.53" gradientUnits="userSpaceOnUse">
<stop stop-color="rgb(90, 200, 40)" offset="0"/>
<stop stop-color="rgb(49, 188, 104)" offset=".51"/>
<stop stop-color="rgb(130, 222, 66)" offset="1"/>
</linearGradient>
<linearGradient id="am" x1="30.87" x2="34.01" y1="41.67" y2="43.62" gradientUnits="userSpaceOnUse">
<stop stop-color="rgb(14, 176, 90)" offset="0"/>
<stop stop-color="rgb(2, 169, 119)" offset=".29"/>
<stop stop-color="rgb(105, 213, 71)" offset="1"/>
</linearGradient>
<linearGradient id="al" x1="40.1" x2="41.15" y1="41.51" y2="42.38" gradientUnits="userSpaceOnUse">
<stop stop-color="rgb(166, 142, 100)" offset="0"/>
<stop stop-color="rgb(227, 142, 13)" offset="1"/>
</linearGradient>
<linearGradient id="ak" x1="39.82" x2="42.86" y1="40.43" y2="41.22" gradientUnits="userSpaceOnUse">
<stop stop-color="rgb(59, 47, 63)" offset="0"/>
<stop stop-color="rgb(193, 89, 13)" offset="1"/>
</linearGradient>
<linearGradient id="aj" x1="37.1" x2="37.64" y1="41.25" y2="41.66" gradientUnits="userSpaceOnUse">
<stop stop-color="rgb(197, 251, 52)" offset="0"/>
<stop stop-color="rgb(232, 254, 44)" offset="1"/>
</linearGradient>
<linearGradient id="ai" x1="40.11" x2="43.14" y1="40.85" y2="40.65" gradientUnits="userSpaceOnUse">
<stop stop-color="rgb(111, 66, 54)" offset="0"/>
<stop stop-color="rgb(224, 123, 3)" offset="1"/>
</linearGradient>
<linearGradient id="ah" x1="31.71" x2="30.84" y1="29.26" y2="30.62" gradientUnits="userSpaceOnUse">
<stop stop-color="rgb(198, 149, 61)" offset="0"/>
<stop stop-color="rgb(205, 230, 44)" offset="1"/>
</linearGradient>
<linearGradient id="ag" x1="33.66" x2="32.79" y1="32.97" y2="34.7" gradientUnits="userSpaceOnUse">
<stop stop-color="rgb(88, 217, 84)" offset="0"/>
<stop stop-color="rgb(211, 249, 80)" offset="1"/>
</linearGradient>
<linearGradient id="af" x1="33.8" x2="33.29" y1="26.74" y2="28.36" gradientUnits="userSpaceOnUse">
<stop stop-color="rgb(221, 117, 20)" offset="0"/>
<stop stop-color="rgb(248, 233, 24)" offset="1"/>
</linearGradient>
<linearGradient id="ae" x1="34.63" x2="34.63" y1="28.65" y2="32.64" gradientUnits="userSpaceOnUse">
<stop stop-color="rgb(218, 94, 54)" offset="0"/>
<stop stop-color="rgb(218, 113, 52)" offset=".74"/>
</linearGradient>
<linearGradient id="ad" x1="36.68" x2="36.44" y1="30.2" y2="30.73" gradientUnits="userSpaceOnUse">
<stop stop-color="rgb(233, 181, 42)" offset=".02"/>
<stop stop-color="rgb(235, 70, 41)" offset=".45"/>
</linearGradient>
<linearGradient id="ac" x1="39.17" x2="41.32" y1="35.79" y2="35.16" gradientUnits="userSpaceOnUse">
<stop stop-color="rgb(232, 130, 26)" offset="0"/>
<stop stop-color="rgb(235, 158, 31)" offset="1"/>
</linearGradient>
<linearGradient id="ab" x1="40.62" x2="39.26" y1="34.89" y2="34.91" gradientUnits="userSpaceOnUse">
<stop stop-color="rgb(228, 87, 2)" offset="0"/>
<stop stop-color="rgb(225, 99, 2)" offset="1"/>
</linearGradient>
<linearGradient id="aa" x1="39.94" x2="39.03" y1="31.9" y2="32.66" gradientUnits="userSpaceOnUse">
<stop stop-color="rgb(216, 72, 54)" offset="0"/>
<stop stop-color="rgb(217, 98, 79)" offset="1"/>
</linearGradient>
<linearGradient id="z" x1="36.96" x2="38.62" y1="27.09" y2="29.02" gradientUnits="userSpaceOnUse">
<stop stop-color="rgb(211, 154, 12)" offset="0"/>
<stop stop-color="rgb(231, 230, 65)" offset="1"/>
</linearGradient>
<linearGradient id="y" x1="38.7" x2="39.78" y1="28.86" y2="27.77" gradientUnits="userSpaceOnUse">
<stop stop-color="rgb(197, 133, 12)" offset=".54"/>
<stop stop-color="rgb(218, 242, 253)" offset=".91"/>
</linearGradient>
</defs>
</svg>
