<?xml version="1.0" encoding="UTF-8"?>
<!-- generated by Finnhub -->
<svg viewBox="0 0 55.5 55.5" xmlns="http://www.w3.org/2000/svg">
<path d="M 0,0 H 55.5 V 55.5 H 0 Z" fill="rgb(182, 29, 30)"/>
<path d="M 15.49,12.565 V 25.66 C 15.5,29.8 17.58,33.26 20.21,35.92 A 27.2,27.2 0 0,0 28,41.33 C 38.73,35.71 40.5,29.1 40.5,25.66 V 12.58 C 30.52,8.82 19.8,10.98 15.5,12.58 Z M 15.16,12.18 C 19.43,10.54 30.53,8.23 40.84,12.18 L 41,12.25 V 25.65 C 41,29.31 39.1,36.12 28.12,41.83 L 28.02,41.88 L 27.9,41.83 A 27.67,27.67 0 0,1 19.86,36.27 C 17.17,33.55 15,29.97 15,25.66 V 12.25 L 15.16,12.18 Z" fill="rgb(254, 254, 253)"/>
<path d="M 38.22,12.584999999999999 C 35.06,11.37 26.28,9.72 16.55,12.95 V 26.17 C 16.48,27.64 17.24,31.45 20.75,34.95 C 19.47,33.55 16.91,29.82 16.85,26.17 V 13.22 C 20.05,11.94 28.77,10.02 38.23,12.6 Z M 32.53,37.34 C 34.55,35.74 38.67,31.65 39.12,26.61 L 39.32,17.29 L 39.51,25.7 C 39.51,27.97 38.29,32.92 32.54,37.34 Z M 27.66,11.92 A 49.32,49.32 0 0,0 17.54,13.63 V 14.41 C 21.5,13.41 25.14,13.03 26.47,12.96 C 22.57,13.43 18.89,14.32 17.54,14.72 V 15.65 A 41.6,41.6 0 0,1 26.47,14.17 C 22.18,14.68 18.97,15.4 17.54,15.94 V 16.87 A 55.8,55.8 0 0,1 26.47,15.4 A 68.16,68.16 0 0,0 17.54,17.15 V 18.05 C 20.83,17.25 24.86,16.77 26.47,16.63 A 59.23,59.23 0 0,0 17.54,18.4 V 19.3 A 42.54,42.54 0 0,1 26.47,17.88 C 23.7,18.04 19.37,19.08 17.54,19.59 V 20.53 A 46.24,46.24 0 0,1 26.47,19.07 C 23.69,19.24 19.36,20.32 17.54,20.84 V 21.76 A 39.65,39.65 0 0,1 26.47,20.32 C 22.89,20.65 19.03,21.62 17.54,22.07 V 22.84 C 20.82,21.86 25.65,21.44 27.66,21.34 V 11.92 Z M 38.43,13.63 A 49.32,49.32 0 0,0 28.31,11.92 V 21.35 C 30.31,21.44 35.16,21.86 38.43,22.85 V 22.07 A 52.23,52.23 0 0,0 29.5,20.32 C 31.2,20.39 35.36,20.78 38.43,21.76 V 20.84 C 36.61,20.32 32.28,19.24 29.5,19.07 C 30.77,19.11 34.33,19.47 38.43,20.53 V 19.59 C 36.61,19.09 32.27,18.04 29.5,17.88 C 31.08,17.94 35.08,18.32 38.43,19.3 V 18.4 A 59.22,59.22 0 0,0 29.5,16.63 C 31.1,16.77 35.14,17.25 38.43,18.06 V 17.16 A 68.15,68.15 0 0,0 29.5,15.4 C 30.65,15.46 34.05,15.82 38.43,16.87 V 15.94 A 54.09,54.09 0 0,0 29.5,14.17 C 30.74,14.17 34.54,14.59 38.43,15.65 V 14.72 A 62.88,62.88 0 0,0 29.5,12.96 C 30.83,13.03 34.47,13.41 38.43,14.41 V 13.63 Z M 38.44,24.38 V 23.46 A 32.88,32.88 0 0,0 28.04,22.04 C 24.7,22 21.04,22.35 17.64,23.46 V 24.38 C 19.37,23.9 23.57,22.93 26.46,22.91 C 24.44,23.18 19.86,23.91 17.63,24.71 V 25.64 C 19.39,25.18 23.63,24.26 26.46,24.18 A 102.4,102.4 0 0,0 17.63,25.86 V 26.79 C 19.49,26.31 23.85,25.36 26.46,25.36 C 24.28,25.66 19.46,26.41 17.63,27.13 L 17.81,28.03 C 19.61,27.56 23.85,26.61 26.46,26.63 A 47.3,47.3 0 0,0 17.91,28.3 L 18.18,29.15 C 20.17,28.67 24.61,27.73 26.46,27.81 C 24.53,28.07 20.19,28.75 18.26,29.41 L 18.58,30.26 C 20.39,29.83 24.5,28.98 26.46,28.98 C 24.95,29.19 21.28,29.78 18.72,30.46 L 19.17,31.35 A 54.2,54.2 0 0,1 26.46,30.18 C 24.79,30.45 21.03,31.11 19.33,31.56 L 19.87,32.43 C 20.51,32.3 22.17,31.98 23.67,31.8 L 19.99,32.58 L 20.7,33.48 L 20.83,33.46 C 21.6,33.31 22.93,33.05 23.95,32.95 L 20.81,33.63 L 21.54,34.48 A 7.2,7.2 0 0,1 24.68,34.23 L 28.04,34.09 L 31.39,34.23 A 7.2,7.2 0 0,1 34.53,34.48 L 35.27,33.63 L 32.13,32.95 C 33.14,33.05 34.47,33.31 35.24,33.45 L 35.37,33.48 L 36.09,32.58 L 32.41,31.8 C 33.91,31.98 35.56,32.3 36.21,32.43 L 36.74,31.56 A 79,79 0 0,0 30.76,30.28 C 32.6,30.37 34.78,30.86 36.34,31.22 L 36.91,31.35 L 37.36,30.46 A 78.22,78.22 0 0,0 29.61,28.98 C 31.57,28.98 35.68,29.83 37.49,30.26 L 37.81,29.41 C 35.88,28.75 31.54,28.07 29.61,27.81 C 31.47,27.73 35.91,28.67 37.89,29.15 L 38.16,28.3 A 47.3,47.3 0 0,0 29.61,26.63 C 32.23,26.61 36.47,27.56 38.26,28.03 L 38.44,27.13 C 36.62,26.41 31.8,25.65 29.61,25.36 C 32.23,25.36 36.59,26.31 38.44,26.79 V 25.86 C 36.69,25.34 31.83,24.52 29.61,24.18 C 32.45,24.26 36.68,25.18 38.44,25.64 V 24.71 C 36.22,23.91 31.64,23.18 29.61,22.91 C 32.51,22.93 36.71,23.9 38.44,24.38 Z M 24.61,34.45 A 7.97,7.97 0 0,0 21.65,34.69 L 22.43,35.45 A 5.06,5.06 0 0,1 24.61,35.6 C 25.36,35.93 26.01,35.8 27.27,35.45 C 28.21,35.19 28.69,35.32 29.23,35.46 C 29.41,35.51 29.59,35.56 29.8,35.6 C 30.63,35.74 31.39,35.76 32.14,35.45 A 3.6,3.6 0 0,1 33.79,35.26 L 34.32,34.69 A 4.04,4.04 0 0,0 32.14,34.69 C 31.57,34.81 30.3,34.97 29.8,34.69 A 3.75,3.75 0 0,0 27.12,34.45 C 26.1,34.73 25.72,34.69 24.61,34.45 Z M 22.74,35.78 C 23.16,35.78 24.15,35.83 24.77,36.11 C 25.55,36.46 26.55,36.33 26.99,36.22 A 4.04,4.04 0 0,1 29.67,36.36 C 30.49,36.62 31.22,36.86 32.42,36.46 L 31.68,37.13 C 31.32,37.19 30.4,37.25 29.65,36.96 C 28.71,36.59 27.55,36.7 27.14,36.96 C 26.74,37.22 25.18,37.46 24.18,36.96 L 22.74,35.78 Z M 26.94,37.73 C 25.97,37.93 25.25,37.73 25.01,37.63 L 26.75,38.8 C 27.95,38.27 29.15,38.43 29.6,38.58 L 30.26,38.14 A 4.72,4.72 0 0,0 26.94,37.74 Z M 27.27,39.1 A 3.11,3.11 0 0,1 28.75,39.1 L 28.01,39.56 L 27.27,39.1 Z" fill="rgb(254, 254, 253)"/>
<path d="M 36.120000000000005,19.064999999999998 C 37.46,18.01 36.89,15.8 36.37,14.99 L 34.22,14.57 V 14.07 H 33.75 C 33.77,14.24 33.8,14.57 33.75,14.57 L 31.17,15.09 L 31.4,18.63 L 31.17,19.53 L 30.75,20.11 L 32,20.35 L 34.51,20.11 L 36.2,20.28 L 36.13,19.08 Z" fill="rgb(254, 254, 253)"/>
<path d="M 22.669999999999998,13.785 L 23.5,15.86 L 25.63,15.21 L 24.52,17.14 L 26.36,18.39 L 24.16,18.73 L 24.31,20.95 L 22.68,19.44 L 21.04,20.94 L 21.2,18.73 L 19,18.39 L 20.84,17.14 L 19.74,15.21 L 21.86,15.86 L 22.68,13.79 Z" fill="rgb(182, 29, 30)"/>
<path d="M 22.459999999999997,17.285 L 20.3,15.75 L 21.1,17.13 L 22.47,17.31 Z M 22.6,17.15 V 14.55 L 22,16.07 L 22.6,17.15 Z M 23.44,16.1 L 22.87,17.2 L 24.92,15.64 L 23.44,16.1 Z M 24.3,17.27 L 22.97,17.41 L 25.54,18.09 L 24.3,17.27 Z M 24.02,20.12 L 22.87,17.66 L 23.89,18.64 L 24.02,20.12 Z M 22.62,19.17 V 17.67 L 21.46,20.29 L 22.62,19.17 Z M 19.78,18.3 L 22.47,17.5 L 21.37,18.53 L 19.77,18.3 Z" fill="rgb(254, 254, 253)"/>
<path d="M 32.06,20.085 L 32.37,20.15 L 32.16,19.03 C 31.98,19.33 31.55,19.33 31.36,19.29 L 31.16,19.92 L 31.41,19.97 C 31.78,19.53 32.01,19.87 32.07,20.11 Z M 32.54,20.22 L 32.3,19.04 H 32.51 L 32.72,20.2 L 32.54,20.22 Z M 34.74,19.47 L 34.61,19.85 L 35.37,20.03 V 19.85 L 34.92,19.72 C 35.37,19.37 35.55,19.83 35.59,20.11 L 35.86,20.19 L 35.63,18.88 C 35.32,19.36 34.9,19.48 34.73,19.48 Z M 36.04,20.2 L 35.76,18.87 H 35.98 L 36.18,20.2 H 36.04 Z M 36.86,17.09 C 36.86,18.35 36.36,18.86 36.13,18.96 C 36.33,18.76 36.71,18.11 36.67,17.09 A 4.02,4.02 0 0,0 36.18,15.18 C 36.42,15.29 36.86,15.92 36.86,17.09 Z" fill="rgb(182, 29, 30)"/>
<path d="M 36.190000000000005,15.434999999999999 A 1.37,1.37 0 0,0 35.39,14.95 A 4.8,4.8 0 0,1 35.72,18.69 L 36.21,18.61 C 36.87,17.06 36.46,15.79 36.21,15.45 Z M 35.41,17.27 C 35.53,15.75 34.94,14.96 34.64,14.75 H 34.22 V 14.89 H 33.72 V 14.75 H 33.22 C 33.79,15.5 33.91,16.3 33.92,17.45 C 33.94,18.38 33.52,19.15 33.31,19.41 L 34.64,19.31 C 34.84,19.27 35.3,18.8 35.41,17.27 Z" fill="rgb(182, 29, 30)"/>
<path d="M 32.580000000000005,14.785 L 31.82,14.96 C 32.14,15.31 32.45,15.79 32.45,16.97 C 32.45,17.97 32.22,18.64 32.08,18.84 H 32.95 C 33.25,18.43 33.36,17.46 33.38,17.03 C 33.44,15.59 32.88,14.95 32.59,14.81 Z" fill="rgb(182, 29, 30)"/>
<path d="M 31.77,15.055 C 31.66,14.99 31.47,15.04 31.38,15.07 C 31.56,15.25 31.93,15.67 32.01,17.07 C 32.08,18.17 31.62,18.87 31.38,19.07 L 31.64,19.14 C 32.01,18.86 32.34,18.24 32.37,17.06 C 32.41,15.88 31.93,15.16 31.77,15.06 Z" fill="rgb(182, 29, 30)"/>
<ellipse cx="31.09" cy="17.11" rx=".79" ry="2.01" fill="rgb(182, 29, 30)"/>
<path d="M 30.889999999999997,15.334999999999999 C 31.02,15.18 31.2,15.29 31.28,15.35 C 30.78,16.18 30.9,17.55 31.02,18.12 L 31.54,18.16 V 18.49 L 31.15,18.59 L 31.28,18.85 A 0.2,0.2 0 0,1 31.08,18.97 C 30.81,18.9 30.44,18.33 30.41,17.2 C 30.38,16.06 30.76,15.54 30.89,15.35 Z" fill="rgb(254, 254, 253)"/>
<path d="M 31.65,16.095 L 31.06,16.17 L 31.7,16.29 L 31.66,16.11 Z M 31.69,17 L 31.09,17.06 L 31.73,17.17 L 31.69,17 Z M 31.66,17.8 L 31.06,17.86 L 31.71,17.98 L 31.66,17.8 Z" fill="rgb(254, 254, 253)"/>
<path d="M 30.41,18.175 L 31.5,18.26 L 30.42,18.56 V 18.19 Z" fill="rgb(182, 29, 30)"/>
<path d="M 32.410000000000004,17.285 C 33.27,17.26 35.27,17.2 36.44,17.3 C 35.57,17.36 33.54,17.44 32.42,17.3 Z M 32.32,18.2 C 33.32,18.13 35.54,18 36.4,18 C 35.75,18.17 34.02,18.44 32.32,18.2 Z M 35.13,18.76 C 34.49,18.85 33.84,18.86 33.6,18.86 L 33.5,19.08 C 33.89,19.1 34.67,19.04 35.02,19.02 L 35.13,18.76 Z" fill="rgb(254, 254, 253)"/>
<path d="M 34.99,19.185 A 4.75,4.75 0 0,0 34.95,14.84 C 35.65,14.96 35.89,16.36 35.89,17.09 C 35.81,18.71 35.24,19.18 35,19.19 Z M 33.85,17.13 C 33.85,15.79 33.33,14.98 33.04,14.75 L 32.82,14.83 C 32.97,15.03 33.49,15.63 33.49,17.08 C 33.49,18.28 33.02,19.13 32.77,19.38 H 33.04 C 33.31,19.19 33.84,18.48 33.85,17.13 Z" fill="rgb(182, 29, 30)"/>
<path d="M 35.07,23.474999999999998 L 34.86,22.94 L 34.65,23.49 L 34.08,23.32 L 34.38,23.82 L 33.89,24.16 L 34.47,24.25 L 34.43,24.83 L 34.86,24.43 L 35.3,24.83 L 35.25,24.25 L 35.83,24.15 L 35.35,23.83 L 35.65,23.32 L 35.08,23.49 Z M 36.62,24.46 L 36.84,25 L 37.4,24.83 L 37.1,25.33 L 37.6,25.67 L 37.01,25.76 L 37.05,26.34 L 36.62,25.94 L 36.19,26.34 L 36.23,25.76 L 35.65,25.67 L 36.14,25.34 L 35.84,24.83 L 36.41,25 L 36.62,24.46 Z M 33.17,25.34 L 32.92,24.72 L 32.68,25.34 L 32.05,25.14 L 32.38,25.71 L 31.84,26.09 L 32.49,26.19 L 32.44,26.84 L 32.92,26.39 L 33.41,26.84 L 33.36,26.18 L 34.01,26.08 L 33.47,25.71 L 33.8,25.14 L 33.17,25.34 Z M 34.89,28.06 L 34.65,27.44 L 34.41,28.06 L 33.77,27.86 L 34.1,28.44 L 33.55,28.81 L 34.21,28.91 L 34.16,29.57 L 34.65,29.12 L 35.14,29.57 L 35.09,28.91 L 35.75,28.81 L 35.2,28.44 L 35.53,27.86 L 34.89,28.06 Z M 35.77,26.38 L 35.94,26.72 L 36.32,26.77 L 36.04,27.04 L 36.11,27.41 L 35.77,27.24 L 35.44,27.41 L 35.5,27.04 L 35.23,26.77 L 35.61,26.72 L 35.77,26.38 Z M 27.82,24 V 25.14 H 27.98 V 24 H 27.82 Z M 29.53,24.1 H 28.42 V 24.78 H 29.53 L 29.73,25.06 H 30.51 L 30.74,25.34 L 31.55,25.26 L 30.75,25.06 L 30.57,24.58 H 29.72 L 29.53,24.11 Z M 27.3,25.37 H 28.54 L 28.43,26.24 H 27.4 L 27.3,25.37 Z M 25.06,27.8 C 26.02,27.4 28.47,26.5 30.62,26.13 C 31.42,27.06 32.47,29.37 30.28,31.21 C 29.98,30.88 28.73,30.56 26.11,31.93 C 26.54,30.67 26.95,28.08 25.06,27.8 Z M 25.68,27.74 L 26.44,27.45 A 0.48,0.48 0 0,1 26.13,27.74 A 0.67,0.67 0 0,1 25.68,27.74 Z M 27.46,27.14 L 26.7,27.42 C 26.78,27.45 26.96,27.48 27.16,27.42 C 27.36,27.35 27.44,27.2 27.46,27.13 Z M 27.73,27.14 L 28.5,26.85 A 0.48,0.48 0 0,1 28.19,27.13 A 0.67,0.67 0 0,1 27.73,27.13 Z M 29.56,26.53 L 28.79,26.81 C 28.87,26.85 29.05,26.88 29.25,26.81 C 29.45,26.75 29.54,26.6 29.55,26.53 Z M 29.84,26.53 L 30.6,26.24 A 0.48,0.48 0 0,1 30.3,26.52 A 0.67,0.67 0 0,1 29.84,26.52 Z M 22.34,28.78 H 22.57 L 22.97,30.87 L 22.76,30.82 C 22.66,30.4 22.45,29.4 22.34,28.78 Z M 23.42,28.79 H 22.77 L 23.01,29.98 H 23.59 C 23.69,29.79 23.66,29.48 23.49,29.26 A 0.45,0.45 0 0,1 23.42,28.79 Z M 22.3,30.86 L 25.28,31.46 C 25.28,31.61 25.35,31.94 25.53,32.2 L 22.45,31.58 L 22.3,30.86 Z M 26.42,32.93 L 26.72,31.76 L 26.87,31.8 L 26.57,32.97 L 26.42,32.93 Z M 27.26,31.55 L 27.04,33.12 L 27.2,33.14 L 27.42,31.58 L 27.26,31.55 Z M 27.82,33.19 V 31.39 H 27.98 V 33.19 H 27.82 Z M 33.24,29.78 L 33.39,29.88 L 32.58,30.91 L 32.28,30.98 L 33.24,29.78 Z M 30.62,31.39 C 31.51,31.3 32.7,30.99 33.19,30.85 L 33.07,31.54 C 32.37,31.84 31.01,32.06 30.42,32.13 L 30.62,31.39 Z M 32.24,32.14 C 31.94,32.21 31.12,32.37 30.19,32.51 C 29.64,33.03 28.03,33.81 25.97,32.74 L 23,32.19 V 32.31 C 23.42,32.51 24.59,32.96 25.97,33.24 C 25.47,33.21 24.22,33.04 23.15,32.64 L 23.25,33 C 23.87,33.2 25.36,33.61 26.31,33.71 V 33.31 H 26.51 V 33.74 L 26.8,33.78 V 33.38 H 26.99 V 33.81 H 27.29 V 33.42 H 27.49 V 33.82 C 27.96,33.85 29.23,33.8 30.42,33.38 C 30,33.59 28.92,34.02 27.92,34.06 C 26.69,34.1 24.43,33.77 23.37,33.32 L 23.43,33.57 C 23.91,33.77 25.08,34.21 25.89,34.35 C 25.46,34.31 24.39,34.18 23.55,33.91 L 23.6,34.06 C 24.2,34.17 25.52,34.41 25.97,34.43 C 26.23,34.44 26.58,34.38 26.96,34.32 C 27.36,34.25 27.8,34.18 28.19,34.18 C 28.79,34.19 30.55,34.26 31.36,34.29 L 32.24,32.14 Z" fill="rgb(182, 29, 30)" fill-rule="evenodd"/>
<path d="M 17.09,32.255 C 16.93,32.33 16.36,32.33 15.46,31.81 C 15.45,31.86 15.44,32.06 15.53,32.44 C 15.66,32.91 15.63,34.28 13.59,34.02 V 33.85 C 13.32,33.85 12.69,33.76 12.42,33.35 C 12.66,33.19 13.15,32.83 13.19,32.63 C 13.01,32.65 12.56,32.7 12.19,32.78 C 11.72,32.89 11.05,32.83 11,32.44 C 11.01,32.4 11.07,32.29 11.23,32.17 C 11.13,32.03 11,31.62 11.23,31.08 C 11.37,30.76 11.4,30.6 11.4,30.53 C 11.64,30.74 12.16,31.1 12.65,31.13 C 12.37,31.02 11.88,30.69 12.14,30.19 A 0.2,0.2 0 0,0 12.14,30.02 C 12.09,29.92 11.99,29.57 12.42,28.75 C 12.67,28.58 13.34,28.35 14.04,28.75 C 14.08,28.71 14.2,28.64 14.3,28.65 C 14.43,28.67 14.98,28.85 14.87,29.97 C 15,29.73 15.24,29.14 15.22,28.69 C 15.24,28.61 15.36,28.53 15.71,28.87 C 15.81,29.23 16.08,30.14 16.41,30.92 L 15.28,31.5 C 15.48,31.22 15.82,30.5 15.63,29.8 C 15.52,30.3 15.26,31.34 15.13,31.55 A 128,128 0 0,0 12.87,29.18 C 12.79,29.13 13.17,30.34 15,31.59 A 3.8,3.8 0 0,1 11.91,31.36 C 12.28,31.75 13.41,32.36 15,31.74 C 14.85,32.21 14.27,33.18 13.15,33.34 C 13.68,33.47 14.82,33.32 15.14,31.69 C 15.43,31.64 16.1,31.42 16.45,31.03 L 17.1,32.27 Z M 11.36,30.5 L 11.4,30.53 C 11.4,30.49 11.38,30.49 11.36,30.5 Z M 38.9,32.27 C 39.07,32.33 39.64,32.33 40.54,31.81 C 40.55,31.86 40.56,32.06 40.47,32.44 C 40.34,32.91 40.37,34.28 42.41,34.02 V 33.85 C 42.68,33.85 43.31,33.76 43.58,33.35 C 43.34,33.19 42.85,32.83 42.81,32.63 C 42.99,32.65 43.44,32.7 43.81,32.78 C 44.28,32.89 44.95,32.83 45,32.44 C 44.99,32.4 44.93,32.29 44.77,32.17 C 44.87,32.03 45,31.62 44.77,31.08 A 1.66,1.66 0 0,1 44.6,30.53 L 44.64,30.5 C 44.62,30.49 44.6,30.5 44.6,30.53 A 2.4,2.4 0 0,1 43.35,31.13 C 43.63,31.02 44.12,30.69 43.86,30.19 A 0.2,0.2 0 0,1 43.86,30.02 C 43.91,29.92 44.01,29.57 43.58,28.75 C 43.33,28.58 42.66,28.35 41.96,28.75 C 41.92,28.71 41.8,28.64 41.7,28.65 C 41.57,28.67 41.02,28.85 41.13,29.97 A 2.92,2.92 0 0,1 40.78,28.69 C 40.76,28.61 40.64,28.53 40.29,28.87 C 40.19,29.23 39.92,30.14 39.59,30.92 L 40.72,31.5 C 40.52,31.22 40.18,30.5 40.37,29.8 C 40.48,30.3 40.74,31.34 40.87,31.55 A 128,128 0 0,1 43.13,29.18 C 43.21,29.13 42.83,30.34 41,31.59 A 3.8,3.8 0 0,0 44.09,31.36 C 43.72,31.75 42.59,32.36 41,31.74 C 41.15,32.21 41.73,33.18 42.85,33.34 C 42.32,33.47 41.18,33.32 40.86,31.69 A 2.62,2.62 0 0,1 39.55,31.03 L 38.9,32.27 Z M 18.09,33.82 L 19.31,35.35 C 19.11,35.47 18.69,35.75 18.68,35.94 C 18.67,36.12 18.87,36.14 18.96,36.14 C 19.89,36.01 20.48,36.54 20.66,36.83 C 21.16,37.28 20.65,38.03 20.33,38.36 L 20.22,38.28 C 20.05,38.83 19.49,39.1 19.22,39.16 C 19.15,38.66 18.68,37.9 18.59,38.41 C 18.49,38.92 18.09,39.81 17.41,39.82 A 2.9,2.9 0 0,1 16.1,39.47 V 39.33 C 15.41,39.22 15.06,38.89 14.97,38.75 A 4.6,4.6 0 0,0 16.34,38.01 C 16.48,37.82 16.28,37.86 16.17,37.9 C 15.17,38.46 14.3,38.2 13.99,38.01 V 37.79 A 7.1,7.1 0 0,1 12.97,37.35 C 13.1,36.98 13.57,36.55 13.8,36.38 L 13.62,36.19 C 13.88,35.21 15.02,35.46 15.56,35.71 L 14.36,34.97 L 15.56,34.21 L 15.4,34.04 C 16.28,33.58 16.71,33.77 16.82,33.92 C 17.32,34.52 17.53,34.72 17.58,34.73 C 17.72,34.63 17.53,33.92 17.41,33.57 L 18.09,33.82 Z M 18.39,36.2 C 18.55,35.38 18.45,34.84 18.39,34.67 C 18.39,35.56 18.28,36 18.23,36.11 C 16.1,34.84 15.23,34.75 15.07,34.86 C 16.47,35.37 17.73,36 18.17,36.26 C 17.03,36.43 15.06,36.88 14.22,37.08 A 9.03,9.03 0 0,0 18.22,36.36 C 18.05,37.52 16.72,38.46 16.09,38.78 C 17.51,38.58 18.17,37.08 18.34,36.36 C 19.12,36.86 19.46,38.14 19.51,38.71 A 2.23,2.23 0 0,0 18.38,36.21 Z M 36.69,35.35 L 37.91,33.82 L 38.59,33.57 C 38.47,33.92 38.28,34.63 38.42,34.73 C 38.47,34.71 38.69,34.53 39.18,33.93 C 39.28,33.77 39.72,33.58 40.6,34.03 L 40.44,34.21 L 41.64,34.97 L 40.44,35.71 C 40.98,35.46 42.12,35.21 42.38,36.19 L 42.2,36.39 C 42.42,36.55 42.9,36.98 43.03,37.35 C 42.83,37.45 42.35,37.69 42.01,37.79 V 38 C 41.71,38.2 40.83,38.45 39.83,37.89 C 39.72,37.85 39.53,37.81 39.66,38 C 39.82,38.23 40.71,38.63 41.03,38.74 C 40.93,38.88 40.59,39.21 39.9,39.32 V 39.46 A 2.9,2.9 0 0,1 38.59,39.81 C 37.91,39.81 37.5,38.91 37.41,38.41 C 37.32,37.89 36.85,38.65 36.77,39.15 C 36.51,39.09 35.95,38.82 35.78,38.27 L 35.67,38.35 C 35.35,38.03 34.84,37.27 35.33,36.82 C 35.52,36.53 36.11,36 37.03,36.12 C 37.13,36.14 37.33,36.12 37.33,35.93 C 37.31,35.75 36.9,35.46 36.69,35.33 Z M 37.62,34.67 C 37.55,34.84 37.45,35.38 37.62,36.2 A 2.23,2.23 0 0,0 36.49,38.71 C 36.54,38.14 36.89,36.87 37.66,36.36 C 37.83,37.08 38.49,38.58 39.91,38.78 C 39.27,38.46 37.95,37.52 37.77,36.36 C 38.27,36.62 39.75,37.13 41.78,37.08 C 40.94,36.88 38.98,36.43 37.84,36.26 A 21.2,21.2 0 0,1 40.93,34.86 C 40.76,34.75 39.9,34.84 37.77,36.11 A 4.4,4.4 0 0,1 37.62,34.67 Z M 14.89,41.74 C 16.63,41.58 18.31,40.08 18.86,39.44 C 17.66,41.38 16.01,42.15 14.83,42.24 C 13.88,42.33 13.5,41.51 13.42,41.07 C 12.37,41.16 12.36,41.69 12.64,41.84 C 13.18,42.15 13.35,42.31 13.35,42.66 C 13.35,43.18 12.63,43.56 12.02,43.56 C 11.42,43.56 11.27,43.12 11.27,42.96 C 11.27,42.76 11.37,42.39 11.7,42.42 C 11.9,42.44 11.95,42.56 11.96,42.62 C 11.46,42.45 11.38,43.18 12.02,43.17 C 12.67,43.16 13.32,42.63 12.64,42.33 C 12.09,42.09 12.03,41.73 12.04,41.58 C 12.1,40.83 12.98,40.71 13.42,40.74 C 13.47,40.11 13.97,39.77 14.18,39.67 C 14.68,39.47 15.59,39.35 15.71,40.12 C 15.84,40.99 14.51,41.1 13.88,41.04 C 13.94,41.65 14.56,41.78 14.89,41.74 Z M 14.73,39.9 C 13.95,39.92 13.79,40.49 13.81,40.76 C 14.37,40.8 15.35,40.83 15.31,40.35 C 15.29,39.96 14.91,39.89 14.73,39.9 Z M 37.14,39.44 C 37.69,40.08 39.37,41.58 41.11,41.74 C 41.44,41.78 42.06,41.65 42.11,41.04 C 41.49,41.1 40.16,40.99 40.29,40.12 C 40.41,39.35 41.31,39.46 41.82,39.67 C 42.03,39.77 42.52,40.11 42.58,40.74 C 43.02,40.71 43.9,40.83 43.95,41.58 C 43.97,41.73 43.91,42.09 43.37,42.33 C 42.69,42.63 43.33,43.16 43.97,43.17 C 44.62,43.18 44.55,42.45 44.04,42.61 C 44.04,42.56 44.1,42.44 44.3,42.42 C 44.63,42.39 44.73,42.76 44.73,42.97 C 44.73,43.12 44.59,43.56 43.98,43.56 S 42.65,43.18 42.65,42.66 C 42.65,42.31 42.82,42.16 43.37,41.84 C 43.64,41.69 43.63,41.16 42.58,41.07 C 42.51,41.51 42.12,42.33 41.18,42.25 C 39.98,42.15 38.34,41.38 37.14,39.44 Z M 42.19,40.76 C 42.21,40.49 42.05,39.92 41.27,39.9 C 41.08,39.89 40.7,39.96 40.68,40.35 C 40.65,40.83 41.63,40.8 42.18,40.76 Z M 22.06,41.36 A 0.57,0.57 0 1,0 22.06,40.22 A 0.57,0.57 0 0,0 22.06,41.36 Z M 33.38,40.79 A 0.57,0.57 0 1,0 34.52,40.79 A 0.57,0.57 0 0,0 33.38,40.79 Z M 22.14,39.92 A 0.57,0.57 0 1,0 22.14,38.78 A 0.57,0.57 0 0,0 22.14,39.92 Z M 33.3,39.35 A 0.57,0.57 0 1,0 34.44,39.35 A 0.57,0.57 0 0,0 33.3,39.35 Z M 20.34,41.78 A 0.57,0.57 0 1,0 20.34,40.63 A 0.57,0.57 0 0,0 20.34,41.78 Z M 35.09,41.21 A 0.57,0.57 0 1,0 36.24,41.21 A 0.57,0.57 0 0,0 35.09,41.21 Z M 19.49,43.73 A 0.57,0.57 0 1,0 19.49,42.59 A 0.57,0.57 0 0,0 19.49,43.73 Z M 35.95,43.16 A 0.57,0.57 0 1,0 37.09,43.16 A 0.57,0.57 0 0,0 35.95,43.16 Z M 18.8,43.46 C 18.77,43.41 18.7,43.3 18.72,43.03 H 18.68 C 18.54,43.04 18.43,43.05 18.32,43.03 A 0.77,0.77 0 0,1 18.02,42.85 A 0.57,0.57 0 1,0 18.82,43.52 L 18.8,43.46 Z M 37.28,43.03 C 37.3,43.3 37.24,43.41 37.21,43.46 L 37.19,43.52 A 0.57,0.57 0 1,0 37.99,42.85 A 0.77,0.77 0 0,1 37.69,43.03 C 37.57,43.05 37.46,43.04 37.33,43.03 H 37.28 Z M 18.49,42.85 C 18.75,42.85 18.96,42.69 19.04,42.45 A 0.96,0.96 0 0,1 18.69,41.75 A 0.57,0.57 0 1,0 18.49,42.85 Z M 36.97,42.45 A 0.57,0.57 0 0,0 38.09,42.28 A 0.57,0.57 0 0,0 37.32,41.75 A 0.96,0.96 0 0,1 36.97,42.45 Z M 19.47,42.37 C 19.73,42.35 19.93,42.17 19.99,41.93 A 0.96,0.96 0 0,1 19.58,41.25 A 0.57,0.57 0 0,0 18.86,41.85 C 18.89,42.16 19.16,42.4 19.48,42.37 Z M 36.02,41.93 A 0.57,0.57 0 1,0 36.42,41.25 A 0.96,0.96 0 0,1 36.02,41.93 Z M 21.74,43.48 A 0.57,0.57 0 0,0 21.86,42.82 A 0.97,0.97 0 0,1 21.12,42.55 A 0.57,0.57 0 0,0 20.94,43.47 C 21.15,43.69 21.51,43.7 21.74,43.48 Z M 34.14,42.82 A 0.57,0.57 0 0,0 35.07,43.47 A 0.57,0.57 0 0,0 34.89,42.55 A 0.97,0.97 0 0,1 34.14,42.82 Z M 20.04,42.76 C 20.16,42.98 20.41,43.09 20.65,43.04 A 1,1 0 0,1 21.11,42.39 A 0.57,0.57 0 1,0 20.04,42.76 Z M 35.35,43.04 C 35.59,43.09 35.85,42.98 35.97,42.76 A 0.57,0.57 0 1,0 34.9,42.39 C 35.14,42.56 35.3,42.74 35.35,43.04 Z M 24.37,40.32 A 0.57,0.57 0 0,0 23.75,40.07 C 23.71,40.37 23.55,40.57 23.32,40.74 C 23.34,40.8 23.36,40.87 23.4,40.92 A 0.57,0.57 0 0,0 24.37,40.32 Z M 32.26,40.07 A 0.57,0.57 0 0,0 31.82,41.11 A 0.57,0.57 0 0,0 32.68,40.74 A 0.97,0.97 0 0,1 32.26,40.07 Z M 20.75,39.49 C 20.91,39.29 21.17,39.23 21.4,39.31 C 21.4,39.62 21.53,39.83 21.74,40.03 A 0.57,0.57 0 1,1 20.74,39.49 Z M 34.61,39.31 A 0.57,0.57 0 0,1 35.17,40.29 A 0.57,0.57 0 0,1 34.27,40.03 A 1,1 0 0,0 34.61,39.31 Z M 19.09,40.56 C 19.16,40.8 19.39,40.96 19.63,40.96 A 0.97,0.97 0 0,1 20.21,40.43 C 20.21,40.36 20.21,40.3 20.19,40.23 A 0.57,0.57 0 0,0 19.09,40.56 Z M 36.38,40.96 A 0.57,0.57 0 1,0 35.8,40.43 C 36.06,40.53 36.26,40.68 36.38,40.97 Z M 23.38,39.57 C 23.52,39.55 23.65,39.47 23.74,39.36 L 23.3,39.04 L 22.85,38.72 A 0.53,0.53 0 0,0 22.97,39.47 C 23.09,39.56 23.24,39.59 23.38,39.57 Z M 32.27,39.36 C 32.35,39.47 32.48,39.56 32.63,39.57 C 32.77,39.59 32.92,39.56 33.03,39.47 A 0.54,0.54 0 0,0 33.15,38.72 L 32.71,39.04 L 32.27,39.36 Z M 21.53,38.94 C 21.61,38.8 21.68,38.66 21.95,38.63 C 21.95,38.53 21.95,38.22 22.03,38.1 A 0.57,0.57 0 0,0 20.95,38.38 C 20.95,38.69 21.21,38.95 21.53,38.95 V 38.94 Z M 34.05,38.63 C 34.32,38.66 34.4,38.8 34.47,38.93 L 34.48,38.95 A 0.57,0.57 0 1,0 33.98,38.1 C 34.05,38.22 34.05,38.53 34.05,38.63 Z M 23.48,42.42 A 0.57,0.57 0 0,0 23.69,41.32 L 23.57,41.47 C 23.47,41.6 23.42,41.67 23.2,41.82 C 23.32,41.99 23.35,42.15 23.28,42.38 C 23.35,42.41 23.41,42.42 23.48,42.42 Z M 31.95,41.85 A 0.57,0.57 0 0,0 32.72,42.39 C 32.66,42.15 32.68,41.99 32.81,41.82 A 1.33,1.33 0 0,1 32.43,41.47 L 32.31,41.32 A 0.57,0.57 0 0,0 31.95,41.85 Z M 22.95,41.65 C 23.19,41.65 23.4,41.5 23.48,41.29 A 1.1,1.1 0 0,1 23.21,40.96 C 23.16,40.86 23.13,40.81 22.95,40.81 C 22.79,40.81 22.77,40.87 22.73,40.98 C 22.7,41.08 22.66,41.23 22.48,41.4 C 22.58,41.55 22.75,41.65 22.95,41.65 Z M 32.52,41.29 A 0.57,0.57 0 0,0 33.52,41.39 A 0.84,0.84 0 0,1 33.27,40.99 C 33.24,40.87 33.22,40.81 33.05,40.81 C 32.88,40.81 32.85,40.86 32.8,40.96 C 32.75,41.04 32.69,41.15 32.52,41.29 Z M 22.95,40.65 A 0.57,0.57 0 0,0 23.42,39.75 C 23.22,39.75 22.98,39.67 22.86,39.5 L 22.81,39.6 A 0.83,0.83 0 0,1 22.38,40.08 C 22.66,40.25 22.71,40.43 22.76,40.58 L 22.77,40.62 L 22.95,40.65 Z M 32.48,40.08 A 0.57,0.57 0 0,0 33.24,40.62 V 40.58 C 33.29,40.43 33.34,40.25 33.63,40.08 A 0.82,0.82 0 0,1 33.19,39.61 A 4.14,4.14 0 0,0 33.14,39.51 C 33.02,39.67 32.78,39.75 32.59,39.75 C 32.52,39.84 32.49,39.95 32.49,40.08 Z M 22.55,42.78 A 0.57,0.57 0 0,0 22.96,41.82 C 22.81,41.82 22.66,41.82 22.56,41.65 C 22.5,41.65 22.44,41.65 22.39,41.67 C 22.44,41.97 22.47,42.25 22.14,42.61 C 22.24,42.72 22.39,42.79 22.55,42.79 Z M 32.88,42.22 A 0.57,0.57 0 0,0 33.86,42.62 C 33.53,42.25 33.56,41.97 33.61,41.67 A 0.57,0.57 0 0,0 33.45,41.65 C 33.35,41.82 33.2,41.82 33.05,41.82 C 32.95,41.92 32.88,42.06 32.88,42.22 Z M 21.7,42.59 A 0.57,0.57 0 0,0 22.05,41.56 A 0.53,0.53 0 0,1 21.7,41.45 L 21.57,41.46 C 21.47,41.59 21.35,41.71 21.17,41.81 A 0.57,0.57 0 0,0 21.71,42.58 Z M 33.73,42.02 A 0.57,0.57 0 1,0 34.83,41.82 A 1.2,1.2 0 0,1 34.44,41.46 A 0.57,0.57 0 0,0 34.3,41.45 A 0.53,0.53 0 0,1 33.95,41.56 A 0.57,0.57 0 0,0 33.73,42.02 Z M 20.86,39.19 C 20.63,39.14 20.16,39.18 20.07,39.76 C 20.14,39.81 20.29,39.98 20.35,40.26 C 20.37,40.26 20.38,40.26 20.4,40.28 L 20.54,40.35 C 20.4,40.13 20.27,39.59 20.86,39.19 Z M 35.94,39.77 C 35.84,39.17 35.37,39.14 35.14,39.19 C 35.74,39.59 35.61,40.13 35.47,40.35 A 1,1 0 0,0 35.6,40.28 L 35.65,40.26 A 0.88,0.88 0 0,1 35.94,39.76 Z M 20.74,40.57 C 20.84,40.59 21.09,40.66 21.32,40.65 A 0.93,0.93 0 0,0 21.45,41.25 A 0.62,0.62 0 0,1 20.95,41.65 C 21.09,41.43 21.25,40.9 20.74,40.56 Z M 34.69,40.65 C 34.92,40.65 35.17,40.59 35.27,40.56 C 34.77,40.9 34.91,41.43 35.05,41.65 A 0.62,0.62 0 0,1 34.56,41.25 A 0.9,0.9 0 0,0 34.69,40.65 Z M 24.54,40.26 L 24.74,40.11 L 25.36,40.53 C 25.36,40.73 25.26,41.13 24.78,41.21 C 24.71,41.21 24.54,41.18 24.47,41.1 C 24.57,40.99 24.71,40.66 24.54,40.26 Z M 31.26,40.11 L 31.46,40.26 C 31.3,40.66 31.44,40.99 31.54,41.1 C 31.47,41.18 31.3,41.2 31.23,41.2 A 0.66,0.66 0 0,1 30.65,40.53 L 31.25,40.11 Z M 29.89,40.97 L 28.03,42 L 26.28,41.06 C 25.66,41.05 25.28,41.31 25.18,41.44 L 25.25,41.64 C 25,41.78 24.63,42.1 24.47,42.24 A 4.9,4.9 0 0,1 25.81,42.54 L 25.05,42.68 C 24.07,42.81 24.1,43.47 24.25,43.78 H 24.47 C 24.49,44.6 24.72,45.02 24.84,45.13 C 25.7,44.48 26.33,44.23 26.54,44.19 C 25.64,45.04 25.77,45.79 25.94,46.06 L 26.28,45.93 C 26.69,46.57 27.22,46.91 27.44,47 C 28.08,46.79 28.54,46.28 28.69,46.06 L 28.91,46.16 C 29.41,45.86 29.31,45.09 29.24,44.8 C 29.19,44.57 29.33,44.62 29.41,44.67 C 29.77,45.07 29.81,45.76 29.77,46.06 C 30.61,45.76 31.2,45.21 31.39,44.97 H 31.54 C 32.34,44.42 31.93,43.87 31.63,43.67 L 30.73,43.07 C 30.77,42.91 31.53,42.97 31.92,43.01 C 31.98,42.61 31.59,42.05 31.39,41.83 L 31.46,41.56 A 1.87,1.87 0 0,0 29.89,40.97 Z M 28.29,42.39 A 3.29,3.29 0 0,1 30.99,42.56 A 9.2,9.2 0 0,0 28.29,42.39 Z M 27.87,42.43 C 27.62,42.15 26.85,41.67 25.76,42.05 C 26.2,42.02 27.25,42.05 27.86,42.43 Z M 25.15,44.48 A 3.4,3.4 0 0,1 28.03,42.57 C 30.23,43.38 30.41,44.65 30.23,45.19 C 30.24,44.09 28.8,43.03 28.08,42.63 C 28.18,43.33 27.72,45.03 27.48,45.79 C 27.28,45.29 27.58,44.11 27.79,43.32 C 27.87,43.01 27.94,42.76 27.95,42.62 C 26.82,42.83 25.62,43.95 25.15,44.48 Z" fill="rgb(254, 254, 253)" fill-rule="evenodd"/>
</svg>
