<?xml version="1.0" encoding="UTF-8"?>
<!-- generated by Finnhub -->
<svg viewBox="0 0 55.5 55.5" xmlns="http://www.w3.org/2000/svg">
<path d="M 0,0 H 55.5 V 55.5 H 0 Z" fill="rgb(1, 81, 143)"/>
<path d="M 48.0,26.985 C 49.135,27 49.328,27.772 49.328,28.219 C 49.328,28.475 49.273,28.766 49.273,28.766 L 49.193,28.815 S 48.873,28.81 48.34,28.82 C 47.807,28.83 47.482,28.84 47.482,28.84 S 47.462,29.237 48.138,29.237 C 48.713,29.237 49.034,28.957 49.034,28.957 L 49.131,29.035 S 49.059,29.282 49.009,29.48 C 48.959,29.679 48.921,29.776 48.921,29.776 L 48.873,29.824 S 48.498,30.004 47.915,30.004 C 47.333,30.004 46.317,29.935 46.317,28.674 C 46.317,27.54 47.172,27 48.009,27 Z M 47.546,28.14 S 47.706,28.14 47.916,28.136 C 48.113,28.133 48.244,28.128 48.244,28.128 S 48.265,28.072 48.265,28.003 A 0.274,0.274 0 0,0 47.974,27.731 C 47.633,27.731 47.546,28.141 47.546,28.141 Z M 44.886,27.005 L 44.952,27.068 L 44.665,28.268 C 44.535,28.812 44.449,29.215 44.249,30.11 C 44.048,31.005 43.246,32 42.299,32 C 41.349,32 41.025,31.632 41.025,31.632 L 41.013,31.548 S 41.052,31.308 41.149,31.056 C 41.247,30.805 41.306,30.663 41.306,30.663 L 41.426,30.643 S 41.664,30.998 42.211,30.998 C 42.878,30.998 43.093,29.858 43.093,29.858 S 42.821,29.997 42.49,29.997 C 41.959,29.997 41.425,29.76 41.425,29.007 C 41.425,28.423 41.667,27.916 42.005,27.582 C 42.493,27.1 43.213,27.012 43.657,27 A 15.51,15.51 0 0,1 44.887,27.005 Z M 43.538,27.875 S 43.251,27.833 43.051,27.985 C 42.85,28.137 42.693,28.471 42.693,28.823 C 42.693,29.173 42.845,29.278 43.007,29.278 C 43.148,29.278 43.235,29.178 43.235,29.178 S 43.295,28.938 43.375,28.576 C 43.457,28.216 43.538,27.875 43.538,27.875 Z M 46.672,26 L 46.738,26.088 C 46.706,26.214 46.553,26.688 46.553,26.688 L 46.48,26.756 C 46.1,26.808 45.721,26.863 45.343,26.918 L 45.273,26.842 C 45.274,26.867 45.428,26.262 45.435,26.22 L 45.5,26.162 C 45.891,26.111 46.284,26.07 46.672,26 Z M 46.425,27 L 46.511,27.068 L 45.865,29.935 L 45.798,29.997 L 44.575,30 L 44.525,29.935 L 45.135,27.245 L 45.207,27.18 C 45.614,27.123 46.017,27.05 46.425,27 Z M 38.662,26 L 38.739,26.078 L 37.852,29.932 L 37.785,30 C 37.394,29.983 37,30 36.608,30 L 36.558,29.932 L 37.364,26.255 L 37.434,26.19 C 37.845,26.133 38.256,26.084 38.662,26 Z M 40.03,27 C 40.782,27 41.47,27.296 41.47,28.27 C 41.47,29.606 40.58,30 39.68,30 C 38.89,30 38.277,29.715 38.277,28.84 C 38.277,28.144 38.647,27 40.03,27 Z M 40.03,27.773 C 39.644,27.773 39.496,28.74 39.496,28.994 C 39.496,29.329 39.676,29.322 39.724,29.322 C 40.118,29.322 40.254,28.343 40.254,28.082 C 40.254,27.897 40.182,27.773 40.03,27.773 Z M 35.343,27 C 36.095,27 36.761,27.296 36.761,28.27 C 36.761,29.606 35.879,29.997 34.978,29.997 C 34.188,29.997 33.569,29.715 33.569,28.84 C 33.569,28.144 33.959,27 35.343,27 Z M 35.323,27.773 C 34.937,27.773 34.789,28.74 34.789,28.994 C 34.789,29.329 34.969,29.322 35.016,29.322 C 35.41,29.322 35.546,28.343 35.546,28.082 C 35.546,27.897 35.474,27.773 35.323,27.773 Z M 31.93,27 L 31.999,27.072 L 31.964,27.272 S 32.343,27 32.755,27 C 33.425,27 33.563,27.534 33.563,27.77 S 33.479,28.3 33.345,28.913 C 33.211,29.525 33.14,29.935 33.14,29.935 L 33.073,29.997 L 31.907,30 L 31.867,29.942 L 32.071,29.068 C 32.202,28.495 32.259,28.194 32.259,28.119 C 32.259,28.045 32.245,27.92 32.074,27.92 C 31.926,27.92 31.812,27.995 31.812,27.995 C 31.668,28.637 31.522,29.28 31.411,29.929 L 31.344,29.997 C 30.954,29.989 30.564,30.011 30.175,30 L 30.125,29.945 S 30.29,29.302 30.429,28.677 C 30.675,27.575 30.681,27.231 30.681,27.231 L 30.755,27.163 C 31.148,27.123 31.539,27.056 31.93,27 Z M 28.917,26 L 28.985,26.074 C 28.901,26.423 28.886,26.977 28.684,27.271 C 28.684,27.271 29.063,27.001 29.474,27.001 C 30.144,27.001 30.282,27.534 30.282,27.77 S 30.198,28.3 30.064,28.913 C 29.93,29.525 29.859,29.923 29.859,29.923 L 29.784,30 H 28.626 L 28.586,29.929 C 28.724,29.349 28.986,28.69 28.986,28.094 C 28.986,28.019 28.969,27.874 28.798,27.874 C 28.651,27.874 28.54,27.977 28.54,27.977 A 35.306,35.306 0 0,0 28.13,29.916 L 28.067,30 C 27.677,29.985 27.285,30.012 26.893,30 L 26.843,29.932 S 27.298,28.059 27.497,27.146 C 27.695,26.233 27.631,26.243 27.631,26.243 L 27.684,26.192 C 28.094,26.123 28.504,26.049 28.917,26 Z M 26.951,28.102 S 26.809,27.848 26.479,27.848 C 26.149,27.848 25.808,28.118 25.808,28.668 C 25.808,29.219 26.21,29.241 26.33,29.241 C 26.64,29.241 26.843,29.042 26.843,29.042 L 26.97,29.092 C 26.906,29.327 26.872,29.586 26.776,29.811 L 26.731,29.86 S 26.414,30 25.997,30 C 25.079,30 24.537,29.565 24.537,28.714 C 24.537,27.834 25.19,27 26.362,27 C 26.967,27 27.265,27.24 27.265,27.24 L 27.293,27.31 C 27.214,27.567 27.144,27.827 27.074,28.087 L 26.951,28.102 Z M 23.214,27 C 24.34,27 24.533,27.772 24.533,28.219 C 24.533,28.475 24.478,28.766 24.478,28.766 L 24.398,28.815 S 24.078,28.81 23.546,28.82 C 23.013,28.83 22.687,28.84 22.687,28.84 S 22.667,29.237 23.343,29.237 C 23.918,29.237 24.239,28.957 24.239,28.957 L 24.336,29.035 S 24.264,29.199 24.214,29.398 C 24.164,29.596 24.126,29.772 24.126,29.772 L 24.078,29.821 S 23.703,30.001 23.121,30.001 S 21.523,29.935 21.523,28.675 C 21.523,27.54 22.377,27 23.214,27 Z M 22.752,28.14 S 22.911,28.14 23.121,28.136 C 23.318,28.133 23.449,28.128 23.449,28.128 C 23.521,27.934 23.394,27.731 23.179,27.731 C 22.839,27.731 22.752,28.141 22.752,28.141 Z M 21.599,27 S 21.339,27.948 21.161,28.77 C 20.981,29.592 20.914,29.866 20.903,29.93 L 20.855,30 C 20.774,30 20.567,29.995 20.269,30 S 19.659,30 19.616,30 L 19.562,29.935 C 19.578,29.877 19.698,29.487 19.925,28.555 C 20.153,27.624 20.315,27 20.315,27 C 20.019,26.985 19.723,27 19.427,27 L 19.378,26.911 C 19.383,26.885 19.436,26.705 19.489,26.531 C 19.533,26.386 19.601,26.107 19.612,26.07 L 19.677,26 H 22.619 L 22.687,26.074 C 22.665,26.142 22.602,26.408 22.558,26.582 C 22.515,26.754 22.475,26.882 22.464,26.94 L 22.388,27 C 22.125,26.997 21.862,27.006 21.599,27 Z M 10.133,26.997 S 9.906,27.948 9.727,28.77 A 49.427,49.427 0 0,0 9.475,29.966 L 9.41,30 C 9.33,30 9.141,30.003 8.843,30.008 C 8.545,30.013 8.237,30 8.193,30 L 8.133,29.972 C 8.15,29.914 8.263,29.487 8.491,28.555 C 8.719,27.624 8.848,27 8.848,27 C 8.552,26.996 8.256,27 7.96,27 L 7.91,26.929 C 7.916,26.903 7.984,26.624 8.037,26.449 C 8.081,26.305 8.137,26.101 8.147,26.064 L 8.214,26 H 14.099 L 14.166,26.068 C 14.145,26.137 14.093,26.328 14.05,26.5 C 14.007,26.673 13.951,26.9 13.94,26.958 L 13.865,27 C 13.602,27 13.339,27.003 13.076,26.997 C 13.076,26.997 12.849,27.948 12.671,28.77 A 48.37,48.37 0 0,0 12.418,29.967 L 12.335,30 C 12.254,30 12.085,29.995 11.788,30 C 11.489,30.005 11.18,30 11.136,30 L 11.078,29.972 C 11.094,29.914 11.208,29.488 11.435,28.556 C 11.663,27.624 11.792,27 11.792,27 C 11.239,26.993 10.686,27.009 10.134,26.997 Z M 13.208,29.954 S 13.444,29.147 13.769,27.969 C 14.094,26.791 14.241,26.073 14.241,26.073 L 14.303,26 C 14.826,26 15.349,25.997 15.872,26 L 15.927,26.057 C 15.927,26.094 16.04,28.294 16.04,28.294 S 16.332,27.708 16.57,27.205 C 16.809,26.702 17.026,26.114 17.047,26.067 L 17.116,26 C 17.634,26 18.153,26 18.672,26.004 L 18.727,26.064 C 18.722,26.1 18.547,27.194 18.38,28.284 C 18.212,29.372 18.133,29.917 18.128,29.948 L 18.05,30 H 16.949 L 16.884,29.958 S 17.02,29.31 17.156,28.603 C 17.291,27.896 17.389,27.435 17.389,27.435 S 16.923,28.352 16.636,28.948 C 16.349,29.545 16.166,29.911 16.145,29.958 L 16.073,30 H 15.146 L 15.094,29.964 S 15.048,29.304 15.021,28.729 C 14.994,28.153 14.941,27.399 14.941,27.399 S 14.718,28.304 14.571,28.886 L 14.303,29.955 L 14.241,30 S 13.964,29.995 13.769,30 H 13.301 L 13.208,29.954 Z M 4,26.172 C 4.071,24.595 8.68,22.762 14.207,22.996 C 18.704,23.186 22,25 22,25 S 19.886,24.157 15.094,24 C 9.533,23.819 4.824,25.051 4.754,26.582 C 4.742,26.871 4.793,27.321 5.079,27.595 C 4.323,27.166 3.98,26.633 4.001,26.172 Z M 52,27.32 S 51.942,27.48 51.89,27.67 C 51.84,27.86 51.798,28.037 51.798,28.037 L 51.674,28.055 S 51.498,27.732 51.047,27.732 C 50.897,27.732 50.749,27.762 50.749,27.875 C 50.749,27.99 51.05,28.087 51.303,28.225 C 51.557,28.365 51.823,28.578 51.823,29.01 C 51.823,29.443 51.479,30.002 50.356,30.002 C 49.583,30.002 49.186,29.801 49.186,29.801 L 49.165,29.709 S 49.189,29.621 49.255,29.397 C 49.323,29.173 49.362,29.01 49.362,29.01 L 49.478,28.97 S 49.729,29.336 50.219,29.336 C 50.356,29.336 50.564,29.301 50.564,29.156 C 50.564,29.013 50.262,28.919 50.037,28.798 C 49.813,28.676 49.535,28.501 49.535,28.06 C 49.535,27.546 49.925,27 50.931,27 C 51.555,27 51.954,27.24 51.954,27.24 L 52,27.32 Z" fill="rgb(254, 254, 253)"/>
</svg>
