<?xml version="1.0" encoding="UTF-8"?>
<!-- generated by Finnhub -->
<svg viewBox="0 0 55.5 55.5" xmlns="http://www.w3.org/2000/svg">
<path d="M 0,0 H 55.5 V 55.5 H 0 Z" fill="rgb(72, 21, 107)"/>
<path d="M 48.684000000000005,18.026 L 31.463,22.051 V 23.456 L 31.521,23.44 C 43.564,20.205 48.693,18.26 48.743,18.246 A 0.11,0.11 0 0,0 48.826,18.118 C 48.816,18.067 48.766,18.023 48.694,18.041 Z" fill="rgb(245, 247, 251)"/>
<path d="M 37.410000000000004,18.241 V 18.254 V 18.256 Z M 38.043,17.002 C 37.157,17.058 35.516,18.509 34.615,19.37 C 31.029,22.798 28.362,25.95 26.423,29.25 C 22.38,31.643 17.225,34.103 12.108,36.023 L 11.985,36.069 L 11,39 L 11.562,38.76 C 14.818,37.389 20.252,34.815 25.177,31.953 C 24.899,32.77 24.759,33.522 24.759,34.207 C 24.759,34.717 24.837,35.193 24.991,35.625 A 3.2,3.2 0 0,0 26.758,37.511 C 28.018,38.067 29.738,38.077 31.7,37.421 C 36.713,35.741 42.659,30.588 43.953,29.563 L 44.003,29.523 A 0.115,0.115 0 0,0 44.036,29.381 C 44.008,29.333 43.948,29.321 43.899,29.354 L 43.835,29.396 C 42.445,30.318 35.695,34.746 31.307,36.046 C 29.072,36.708 27.369,36.347 26.727,35.354 C 26.503,35.014 26.396,34.585 26.396,34.084 C 26.396,33.108 26.812,31.864 27.614,30.481 A 54.377,54.377 0 0,0 29.663,29.131 C 33.943,26.474 38.876,21.305 39.086,18.151 L 39.087,18.081 C 39.087,17.808 38.98,17.528 38.793,17.321 A 0.9,0.9 0 0,0 38.043,17.002 Z M 37.566,18.506 C 37.846,18.306 37.928,18.431 37.846,18.658 C 37.712,19.02 37.094,21.199 32.504,25.362 C 31.307,26.446 30.454,27.054 28.73,28.182 C 31.554,23.81 35.677,19.862 37.566,18.506 Z" fill="rgb(101, 203, 2)"/>
<path d="M 31.392999999999997,22.051 L 14.223,26.621 L 13.483,28.825 L 31.463,23.457 L 33.166,22.983 L 34.766,21.289 L 31.403,22.066 Z" fill="rgb(245, 247, 251)"/>
</svg>
