<?xml version="1.0" encoding="UTF-8"?>
<!-- generated by Finnhub -->
<svg viewBox="0 0 55.5 55.5" xmlns="http://www.w3.org/2000/svg">
<path d="M 0,0 H 55.5 V 55.5 H 0 Z" fill="rgb(239, 242, 248)"/>
<path d="M 23.16,14.844999999999999 C 31.27,11.53 34.43,8.9 35,8 V 18.94 C 35,21.02 33.26,22.2 29.92,24.78 C 26.58,27.35 24.3,31.53 23.17,33.78 C 16.84,29.32 15.14,26.18 15.02,24.3 C 14.89,22.15 15.07,18.18 23.17,14.86 Z" fill="url(#c)"/>
<path d="M 23.9,34.214999999999996 A 21.93,21.93 0 0,1 28.73,27.03 C 28.73,27.47 29.08,28.7 31.86,30.63 C 34.63,32.56 35,34.23 35,34.9 V 44.66 C 33.32,41.11 26.88,36.23 23.91,34.23 Z" fill="url(#b)"/>
<path d="M 23.689999999999998,35.165 C 22.38,39.13 22.79,47.24 34.96,48 C 35.31,46.29 33.5,41.9 23.7,35.18 Z" fill="url(#a)"/>
<defs>
<linearGradient id="c" x1="35" x2="14.72" y1="14.9" y2="21.54" gradientUnits="userSpaceOnUse">
<stop stop-color="rgb(220, 93, 47)" offset="0"/>
<stop stop-color="rgb(254, 215, 3)" offset="1"/>
</linearGradient>
<linearGradient id="b" x1="34.92" x2="23.9" y1="35.11" y2="34.23" gradientUnits="userSpaceOnUse">
<stop stop-color="rgb(46, 48, 147)" offset="0"/>
<stop stop-color="rgb(1, 155, 217)" offset="1"/>
</linearGradient>
<linearGradient id="a" x1="25.46" x2="35.5" y1="38.47" y2="47.44" gradientUnits="userSpaceOnUse">
<stop stop-color="rgb(79, 199, 232)" offset="0"/>
<stop stop-color="rgb(46, 48, 147)" offset="1"/>
</linearGradient>
</defs>
</svg>
