<?xml version="1.0" encoding="UTF-8"?>
<!-- generated by Finnhub -->
<svg viewBox="0 0 55.5 55.5" xmlns="http://www.w3.org/2000/svg">
<path d="M 0,0 H 55.5 V 55.5 H 0 Z" fill="rgb(239, 242, 248)"/>
<path d="M 6.55,25.794999999999998 H 5 V 25 H 9 V 25.81 H 7.44 V 30 H 6.56 V 25.81 Z M 9,26 H 9.79 V 26.96 C 10,26.37 10.39,25.97 11,26 V 26.95 H 10.95 C 10.27,26.95 9.79,27.47 9.79,28.51 V 30 H 9 V 26 Z M 32.24,26 H 33 V 26.96 C 33.21,26.37 33.64,25.97 34.24,26 V 26.95 H 34.2 C 33.5,26.95 33,27.47 33,28.51 V 30 H 32.24 V 26 Z M 13.25,30 V 29.44 C 13.02,29.76 12.68,30 12.18,30 C 11.55,30 11,29.58 11,28.8 C 11,27.94 11.57,27.53 12.34,27.53 C 12.74,27.53 13,27.59 13.25,27.69 V 27.62 C 13.25,27.08 12.97,26.79 12.45,26.79 C 12.07,26.79 11.8,26.89 11.49,27.03 L 11.29,26.33 A 2.5,2.5 0 0,1 12.55,26 C 13.52,26 14,26.6 14,27.63 V 30 H 13.25 Z M 13.27,28.3 C 13.07,28.22 12.8,28.15 12.51,28.15 C 12.03,28.15 11.75,28.38 11.75,28.75 V 28.76 C 11.75,29.13 12.03,29.33 12.39,29.33 C 12.89,29.33 13.27,29.01 13.27,28.53 V 28.3 Z M 14.5,26 H 15.34 L 16.26,28.92 L 17.18,26 H 18 L 16.6,30 H 15.9 L 14.5,26 Z M 18.23,25 H 19 V 25.69 H 18.23 V 24.99 Z M 18.23,26 H 19 V 30 H 18.23 V 26 Z M 39,25 H 39.77 V 25.69 H 39 V 25 Z M 39,26 H 39.77 V 30 H 39 V 26 Z M 24,25.02 H 25.78 C 26.83,25.02 27.5,25.69 27.5,26.7 V 26.71 C 27.5,27.83 26.69,28.41 25.7,28.41 H 24.8 V 30 H 24 V 25.02 Z M 25.72,27.62 C 26.32,27.62 26.69,27.25 26.69,26.73 V 26.72 C 26.69,26.13 26.31,25.82 25.72,25.82 H 24.79 V 27.62 H 25.72 Z M 19.5,29.42 L 19.89,28.82 C 20.29,29.14 20.74,29.3 21.12,29.3 C 21.49,29.3 21.71,29.14 21.71,28.88 V 28.87 C 21.71,28.57 21.31,28.47 20.86,28.33 C 20.31,28.16 19.69,27.93 19.69,27.19 V 27.18 C 19.69,26.45 20.28,26 21.03,26 C 21.5,26 22.01,26.17 22.41,26.44 L 22.07,27.07 A 2.15,2.15 0 0,0 21.01,26.7 C 20.67,26.7 20.48,26.86 20.48,27.09 V 27.1 C 20.48,27.38 20.88,27.5 21.33,27.65 C 21.88,27.82 22.5,28.08 22.5,28.77 V 28.79 C 22.5,29.59 21.89,30 21.1,30 C 20.56,30 19.97,29.8 19.5,29.42 Z M 27.73,28.01 V 28 C 27.73,26.9 28.57,26 29.75,26 C 31.06,26 31.73,26.96 31.73,28.06 C 31.73,28.14 31.73,28.22 31.71,28.31 H 28.68 C 28.78,28.93 29.26,29.28 29.87,29.28 C 30.33,29.28 30.66,29.12 30.99,28.82 L 31.54,29.28 C 31.15,29.72 30.61,30 29.85,30 C 28.65,30 27.73,29.2 27.73,28.01 Z M 30.79,27.73 C 30.73,27.16 30.37,26.72 29.74,26.72 C 29.16,26.72 28.76,27.13 28.67,27.72 H 30.79 Z M 35,25 H 35.8 V 27.91 L 37.44,26.01 H 38.42 L 36.83,27.78 L 38.26,30 H 37.34 L 36.29,28.38 L 35.8,28.93 V 30 H 35 V 25 Z M 40.23,26 H 41 V 26.69 C 41.22,26.32 41.52,26 42.04,26 C 42.79,26 43.23,26.6 43.23,27.5 V 30 H 42.46 V 27.77 C 42.46,27.17 42.2,26.82 41.75,26.82 C 41.3,26.82 41,27.18 41,27.79 V 30 H 40.23 V 26 Z M 43.69,29.42 L 44.07,28.82 C 44.48,29.14 44.92,29.3 45.31,29.3 C 45.68,29.3 45.9,29.14 45.9,28.88 V 28.87 C 45.9,28.57 45.5,28.47 45.05,28.33 C 44.49,28.16 43.87,27.93 43.87,27.19 V 27.18 C 43.87,26.45 44.47,26 45.22,26 C 45.69,26 46.2,26.17 46.6,26.44 L 46.26,27.07 A 2.15,2.15 0 0,0 45.2,26.7 C 44.86,26.7 44.67,26.86 44.67,27.09 V 27.1 C 44.67,27.38 45.07,27.5 45.52,27.65 C 46.07,27.82 46.69,28.08 46.69,28.77 V 28.79 C 46.69,29.59 46.07,30 45.29,30 C 44.75,30 44.16,29.8 43.69,29.42 Z" fill="rgb(28, 28, 25)"/>
<path d="M 47.99,25.985 A 2,2 0 1,0 52,26 A 2,2 0 0,0 48,26 Z" fill="rgb(208, 184, 59)"/>
<path d="M 48.89,25.805 H 49.15 V 25.95 A 0.3,0.3 0 0,1 49.41,25.8 C 49.61,25.8 49.8,25.96 49.8,26.26 C 49.8,26.56 49.61,26.73 49.41,26.73 A 0.32,0.32 0 0,1 49.15,26.6 V 26.98 H 48.91 V 25.82 Z M 49.56,26.27 C 49.56,26.11 49.46,26.02 49.35,26.02 C 49.24,26.02 49.15,26.12 49.15,26.26 C 49.15,26.42 49.24,26.52 49.35,26.52 C 49.46,26.52 49.55,26.42 49.55,26.27 Z M 49.95,25.5 H 50.19 V 26.72 H 49.95 V 25.49 Z M 50.33,26.27 C 50.33,26.01 50.52,25.8 50.78,25.8 A 0.4,0.4 0 0,1 51.12,25.95 L 50.97,26.12 C 50.92,26.06 50.87,26.02 50.77,26.02 C 50.66,26.02 50.57,26.13 50.57,26.26 C 50.57,26.4 50.66,26.52 50.79,26.52 C 50.87,26.52 50.92,26.48 50.99,26.42 L 51.12,26.57 A 0.42,0.42 0 0,1 50.78,26.74 C 50.52,26.74 50.33,26.53 50.33,26.27 Z" fill="rgb(28, 28, 25)" stroke="rgb(28, 28, 25)" stroke-width=".13"/>
</svg>
