<?xml version="1.0" encoding="UTF-8"?>
<!-- generated by Finnhub -->
<svg viewBox="0 0 55.5 55.5" xmlns="http://www.w3.org/2000/svg">
<path d="M 0,0 H 55.5 V 55.5 H 0 Z" fill="rgb(239, 242, 248)"/>
<path d="M 41.99,20.965 C 42,23.54 40.03,24.82 39.04,25.46 C 29.8,13.9 18.81,16.66 14.47,19.49 C 15.07,18.69 20.01,11.59 29.15,12.02 S 42,18.42 42,20.98 Z" fill="rgb(239, 127, 105)"/>
<path d="M 41.99,35.005 C 42,32.46 40.03,31.18 39.04,30.54 C 29.8,42.1 18.81,39.34 14.47,36.51 C 15.07,37.31 20.01,44.41 29.15,43.98 C 38.3,43.55 42,37.58 42,35.02 Z" fill="rgb(222, 230, 23)"/>
<path d="M 25.56,19.544999999999998 C 21.73,20.83 19,24.13 19,28 C 19,31.87 21.73,35.17 25.57,36.44 C 24.47,36.8 23.3,37 22.07,37 C 16.5,37 12,32.97 12,28 S 16.5,19 22.07,19 C 23.3,19 24.47,19.2 25.57,19.56 Z" fill="rgb(84, 124, 73)"/>
</svg>
