<?xml version="1.0" encoding="UTF-8"?>
<!-- generated by Finnhub -->
<svg viewBox="0 0 55.5 55.5" xmlns="http://www.w3.org/2000/svg">
<path d="M 0,0 H 55.5 V 55.5 H 0 Z" fill="rgb(239, 242, 248)"/>
<path d="M 11.120000000000001,26.015 C 11.27,24.91 11.52,23.83 11.86,22.78 L 12.89,26.66 L 11.13,26.03 Z M 11,28.3 L 12.9,26.67 L 14.17,31.5 L 11.18,30.74 C 11.07,29.94 11,29.13 11,28.3 Z M 11.94,33.88 L 14.17,31.5 L 15.52,36.56 L 12.71,35.73 A 17.2,17.2 0 0,1 11.94,33.88 Z" fill="rgb(88, 197, 227)"/>
<path d="M 10.99,28.335 A 18.98,18.98 0 0,1 11.13,26.02 L 12.91,26.65 L 11.01,28.35 Z M 11.94,33.86 C 11.59,32.85 11.34,31.79 11.18,30.69 L 14.25,31.45 L 11.95,33.86 Z" fill="rgb(1, 183, 220)"/>
<path d="M 14.02,37.985 C 13.52,37.26 13.06,36.47 12.67,35.65 L 15.48,36.53 L 14.03,38 Z" fill="rgb(149, 208, 237)"/>
<path d="M 16.669999999999998,41.015 C 15.68,40.13 14.78,39.1 14.01,37.97 L 15.51,36.51 L 16.68,41.03 Z M 24.33,45 A 16.85,16.85 0 0,1 17.49,41.72 L 21.99,42.69 L 24.33,45 Z" fill="rgb(37, 190, 214)"/>
<path d="M 16.86,41.185 L 19.34,38.78 L 21.18,42.53 L 17.58,41.8 L 16.88,41.2 Z" fill="rgb(89, 196, 227)"/>
<path d="M 16.49,40.855 L 15.43,36.58 L 18.85,37.28 L 19.19,39.05 L 16.97,41.29 L 16.5,40.87 Z M 14.17,31.59 L 15.43,36.59 L 19.19,32.81 L 14.17,31.59 Z M 14.17,31.59 L 17.78,27.84 L 12.81,26.48 L 14.17,31.58 Z" fill="rgb(144, 212, 234)"/>
<path d="M 15.42,36.585 L 19.16,32.84 V 37.37 L 15.43,36.59 Z M 16.56,22.93 L 12.88,26.55 L 17.84,27.93 L 16.56,22.93 Z" fill="rgb(37, 187, 210)"/>
<path d="M 14.59,17.595 A 17.17,17.17 0 0,1 18.63,13.84 L 20.13,19.39 L 14.6,17.61 Z M 11.82,22.91 C 11.96,22.47 12.12,22.05 12.29,21.62 L 16.54,23.02 L 12.89,26.71 L 11.82,22.91 Z" fill="rgb(1, 180, 222)"/>
<path d="M 12.27,21.625 C 12.94,20.03 13.83,18.54 14.92,17.22 L 16.58,23.05 L 12.28,21.65 Z" fill="rgb(20, 162, 201)"/>
<path d="M 24.889999999999997,11.274999999999999 L 27.37,12.12 L 28.35,11 A 17.33,17.33 0 0,0 24.9,11.29 Z M 18.43,13.99 C 19.75,13.07 21.19,12.35 22.74,11.84 L 23.74,15.72 L 18.43,13.98 Z" fill="rgb(15, 184, 175)"/>
<path d="M 22.66,11.844999999999999 L 23.71,15.76 L 27.35,12.02 L 32.23,13.32 L 31.7,11.41 C 30.55,11.15 29.36,11.01 28.14,11.01 L 27.34,12.01 L 25.04,11.26 C 24.23,11.4 23.44,11.61 22.67,11.86 Z" fill="rgb(102, 192, 140)"/>
<path d="M 31.569999999999997,11.365 C 32.27,11.53 32.94,11.72 33.6,11.96 L 32.21,13.48 L 31.58,11.38 Z" fill="rgb(27, 165, 131)"/>
<path d="M 33.56,11.924999999999999 C 35.11,12.48 36.55,13.24 37.86,14.18 L 37.04,14.82 L 32.2,13.43 L 33.57,11.94 Z" fill="rgb(9, 179, 152)"/>
<path d="M 37.78,14.125 C 38.94,14.96 39.99,15.92 40.9,17 L 38.3,19.8 L 37,14.82 L 37.79,14.14 Z" fill="rgb(2, 181, 159)"/>
<path d="M 40.870000000000005,16.965 A 17.24,17.24 0 0,1 43.43,20.97 L 38.26,19.69 L 40.88,16.98 Z" fill="rgb(25, 165, 137)"/>
<path d="M 43.31,20.724999999999998 C 44.09,22.35 44.62,24.11 44.86,25.96 L 39.56,24.56 L 43.32,20.74 Z" fill="rgb(16, 147, 138)"/>
<path d="M 44.82,30.645 A 17.54,17.54 0 0,0 44.82,25.68 L 40.86,29.44 L 44.83,30.66 Z" fill="rgb(3, 181, 158)"/>
<path d="M 44.53,32.175 L 42.25,34.47 L 40.86,29.44 L 44.83,30.65 C 44.76,31.17 44.66,31.68 44.54,32.19 Z" fill="rgb(58, 183, 140)"/>
<path d="M 42.79,36.644999999999996 C 42.4,37.4 41.93,38.1 41.42,38.76 L 38.57,38.13 L 42.2,34.51 A 203.66,203.66 0 0,0 42.8,36.66 Z M 43.75,34.69 L 42.2,34.51 L 44.57,32.07 C 44.37,32.97 44.09,33.85 43.75,34.69 Z" fill="rgb(34, 184, 189)"/>
<path d="M 41.43,38.725 C 40.84,39.52 40.16,40.26 39.44,40.93 L 38.59,38.1 L 41.44,38.74 Z M 43.79,34.59 C 43.49,35.32 43.16,36.03 42.78,36.7 L 42.12,34.4 L 43.79,34.6 Z" fill="rgb(100, 192, 144)"/>
<path d="M 39.45,40.885 A 17.1,17.1 0 0,1 37.22,42.66 L 34.83,41.71 L 38.6,38.05 L 39.46,40.91 Z" fill="rgb(3, 181, 158)"/>
<path d="M 17.79,27.825 L 14.1,31.6 L 19.12,32.9 L 17.79,27.84 Z" fill="rgb(178, 226, 248)"/>
<path d="M 17.77,27.865 L 19.12,33.58 L 23.12,29.33 L 17.78,27.88 Z" fill="rgb(1, 180, 222)"/>
<path d="M 15.06,17.745 L 20.12,19.39 L 16.58,23.06 L 21.41,24.22 L 17.83,27.92 L 16.58,23.06 L 15.08,17.76 Z" fill="rgb(88, 197, 227)"/>
<path d="M 16.54,23.044999999999998 L 20.1,19.39 L 21.35,24.25 L 22.72,29.28 L 17.78,27.9 L 21.35,24.25 L 16.55,23.06 Z" fill="rgb(112, 203, 231)"/>
<path d="M 20.09,19.465 L 18.62,13.96 L 23.6,15.49 L 28.59,17.02 L 24.93,20.72 L 23.6,15.49 L 20.1,19.48 Z" fill="rgb(36, 187, 215)"/>
<path d="M 27.36,11.924999999999999 L 23.8,15.58 L 28.56,17.08 L 27.37,11.94 Z" fill="rgb(17, 184, 176)"/>
<path d="M 28.56,17.175 L 27.36,11.99 L 32.27,13.33 L 28.57,17.19 Z" fill="rgb(3, 181, 158)"/>
<path d="M 32.18,13.365 L 28.62,17.05 L 33.42,18.38 L 32.19,13.38 Z" fill="rgb(24, 167, 131)"/>
<path d="M 33.410000000000004,18.465 L 32.19,13.38 L 37.09,14.81 L 33.42,18.48 Z" fill="rgb(18, 183, 176)"/>
<path d="M 37.04,14.785 L 33.38,18.44 L 38.3,19.71 L 37.05,14.79 Z" fill="rgb(13, 149, 136)"/>
<path d="M 43.18,20.884999999999998 L 38.33,19.65 L 39.59,24.6 L 43.19,20.9 Z" fill="rgb(2, 130, 142)"/>
<path d="M 33.92,20.615 L 33.41,18.34 L 38.42,19.69 L 36.19,21.79 L 33.93,20.63 Z" fill="rgb(15, 139, 136)"/>
<path d="M 35.980000000000004,21.865 L 38.36,19.71 L 39.62,24.57 L 37.53,24.02 L 36,21.88 Z M 29.87,22.05 A 85.63,85.63 0 0,0 28.56,17 L 33.44,18.36 L 33.76,19.72 L 32.64,19.46 L 29.87,22.06 Z" fill="rgb(3, 119, 141)"/>
<path d="M 22.25,16.965 L 23.58,15.5 L 24.04,17.18 L 22.26,16.98 Z M 28.92,18.17 L 27.69,17.86 L 28.56,16.98 L 28.92,18.18 Z" fill="rgb(19, 162, 203)"/>
<path d="M 26.24,25.525 L 22.75,29.39 L 21.33,24.22 L 20,19.34 L 25.04,20.67 L 21.32,24.22 L 26.24,25.54 Z" fill="rgb(55, 152, 194)"/>
<path d="M 21.29,24.205 L 24.98,20.68 L 26.2,25.54 L 29.1,26.41 L 26.73,27.38 L 26.2,25.54 L 21.3,24.22 Z" fill="rgb(33, 144, 189)"/>
<path d="M 29.95,21.945 L 20.04,19.43 L 20.66,18.8 C 24.34,19.6 28.27,20.94 29.78,21.51 L 29.96,21.96 Z" fill="rgb(24, 160, 199)"/>
<path d="M 31.36,22.355 A 11.4,11.4 0 0,0 29.81,21.57 V 21.97 L 31.37,22.37 Z" fill="rgb(3, 119, 141)"/>
<path d="M 22.65,29.455 L 26.22,25.57 L 29.92,21.95 L 31.46,22.42 C 31.75,22.52 32.32,22.92 32.3,23.62 C 32.3,24.1 31.62,25.39 29.11,26.45 L 26.22,25.56 L 26.75,27.4 A 38.28,38.28 0 0,0 22.65,29.47 Z" fill="rgb(20, 162, 201)"/>
<path d="M 29.919999999999998,21.925 L 24.95,20.67 L 26.21,25.61 L 29.93,21.94 Z" fill="rgb(23, 171, 210)"/>
<path d="M 36.15,28.185 L 39.68,24.51 L 37.46,23.97 L 35.1,27.82 L 36.16,28.2 Z" fill="rgb(8, 127, 146)"/>
<path d="M 40.89,29.505 L 39.64,24.49 L 36.08,28.17 L 40.9,29.52 Z" fill="rgb(13, 149, 136)"/>
<path d="M 40.86,29.445 L 39.59,24.54 L 44.72,25.81 L 40.87,29.46 L 37.29,33.16 L 42.27,34.48 L 38.57,38.18 L 37.29,33.16 L 35.94,28.05 L 40.87,29.46 Z" fill="rgb(58, 183, 140)"/>
<path d="M 40.870000000000005,29.435 L 37.25,33.18 L 42.28,34.5 L 40.88,29.45 Z" fill="rgb(102, 192, 140)"/>
<path d="M 32.1,30.375 L 35.6,27.8 L 36.15,28.12 L 32.5,31.92 L 28.84,35.56 L 28.35,33.6 L 30.87,31.26 L 32.5,31.92 L 32.11,30.39 Z" fill="rgb(9, 150, 132)"/>
<path d="M 32.53,31.955 L 30.8,31.26 L 32.18,30.18 L 32.54,31.98 Z M 28.92,35.29 C 28.55,35.72 27.79,36.71 27.69,36.79 L 29.74,39.21 L 28.92,35.29 Z" fill="rgb(1, 113, 146)"/>
<path d="M 27.68,35.115 C 27.84,35.18 28.54,35.36 28.87,35.43 L 33.92,36.71 L 30.79,39.77 L 29.61,38.67 L 28.87,35.44 L 27.69,36.88 V 35.12 Z" fill="rgb(20, 162, 201)"/>
<path d="M 28.83,35.425 L 28.37,33.46 L 27.5,35.16 L 28.84,35.44 Z" fill="rgb(93, 208, 233)"/>
<path d="M 35.99,28.165 L 37.33,33.22 L 32.49,31.85 L 33.8,36.73 L 28.87,35.47 L 32.49,31.85 L 36,28.18 Z" fill="rgb(18, 183, 176)"/>
<path d="M 37.27,33.135 L 32.44,31.83 L 33.8,36.76 L 37.28,33.15 Z" fill="rgb(37, 187, 210)"/>
<path d="M 37.29,33.085 L 38.62,38.14 L 33.74,36.82 L 34.95,41.88 L 30.58,39.96 L 33.74,36.82 L 37.31,33.09 Z" fill="rgb(3, 181, 156)"/>
<path d="M 34.89,41.745 L 33.7,36.78 L 38.6,38.08 L 34.9,41.76 Z" fill="rgb(18, 183, 176)"/>
<path d="M 33.53,19.515 C 28.24,17.29 19.42,16.42 15.66,16.27 L 14.62,17.44 C 18.13,18.24 31.8,21.11 32.03,23.43 C 32.29,26.03 26.77,26.74 24.46,28.25 C 22.16,29.75 18.56,31.93 18.41,36.97 C 18.29,41 22.39,43.97 24.46,44.97 C 32.38,44.97 36.79,43.54 38.01,42.83 C 34.76,41.57 28.19,38.38 27.9,35.73 C 27.54,32.4 33.23,30.53 35.5,28.25 C 37.75,25.96 40.16,22.33 33.54,19.53 Z" fill="rgb(239, 242, 248)"/>
</svg>
