<?xml version="1.0" encoding="UTF-8"?>
<!-- generated by Finnhub -->
<svg viewBox="0 0 55.5 55.5" xmlns="http://www.w3.org/2000/svg">
<path d="M 0,0 H 55.5 V 55.5 H 0 Z" fill="rgb(239, 242, 248)"/>
<path d="M 3.99,26.495 V 26 H 7 V 26.51 H 5.8 V 30 H 5.2 V 26.51 H 4 Z M 7.4,30 V 26 H 8 V 27.71 H 10 V 26 H 10.6 V 30 H 10 V 28.22 H 8 V 30 H 7.4 Z M 11.41,30 V 26 H 14 V 26.51 H 12 V 27.71 H 13.85 V 28.21 H 12 V 29.42 H 14 V 30 H 11.41 Z M 15.8,26.51 V 26 H 18.8 V 26.51 H 17.6 V 30 H 17 V 26.51 H 15.8 Z M 19.37,30 H 18.75 L 20.15,26 H 20.82 L 22.22,30 H 21.6 L 20.5,26.71 H 20.47 L 19.37,30 Z M 19.47,28.4 H 21.49 V 28.9 H 19.47 V 28.4 Z M 23.32,26 V 30 H 22.73 V 26 H 23.32 Z M 24.88,30 L 23.8,26 H 24.42 L 25.18,29.05 H 25.21 L 26.01,26 H 26.61 L 27.41,29.05 H 27.44 L 28.19,26 H 28.81 L 27.73,30 H 27.14 L 26.32,26.99 H 26.29 L 25.47,30 H 24.88 Z M 29.29,30 H 28.67 L 30.07,26 H 30.74 L 32.14,30 H 31.52 L 30.42,26.71 H 30.39 L 29.3,30 Z M 29.39,28.4 H 31.41 V 28.9 H 29.4 V 28.4 Z M 35.8,26 V 30 H 35.25 L 33.28,27.05 H 33.24 V 30 H 32.65 V 26 H 33.2 L 35.17,28.89 H 35.21 V 26 H 35.79 Z M 38,30 V 26 H 40.37 V 26.51 H 38.59 V 27.71 H 40.19 V 28.21 H 38.59 V 30 H 38 Z M 43.42,26 H 44 V 28.59 C 44,29.4 43.34,30 42.55,30 C 41.61,30 41,29.41 41,28.59 V 26 H 41.59 V 28.54 C 41.59,29.07 41.96,29.46 42.55,29.46 C 43.05,29.46 43.42,29.03 43.42,28.54 V 26 Z M 48,26 V 30 H 47.47 L 45.62,27.05 H 45.59 V 30 H 44.99 V 26 H 45.54 L 47.39,28.89 H 47.43 V 26 H 48 Z M 50.13,30 H 49 V 26 H 50.17 C 50.55,26 50.87,26.08 51.15,26.24 C 51.42,26.39 51.63,26.62 51.78,26.91 C 51.93,27.21 52,27.55 52,27.96 C 52,28.37 51.93,28.72 51.78,29.02 C 51.63,29.32 51.42,29.54 51.14,29.7 C 50.86,29.86 50.52,30 50.13,30 Z M 49.59,29.42 H 50.09 C 50.39,29.42 50.64,29.36 50.84,29.25 C 51.04,29.13 51.18,28.97 51.28,28.75 C 51.38,28.54 51.42,28.27 51.42,27.96 C 51.42,27.66 51.37,27.39 51.28,27.18 C 51.18,26.96 51.04,26.8 50.85,26.68 A 1.4,1.4 0 0,0 50.13,26.52 H 49.59 V 29.42 Z" fill="rgb(199, 74, 34)"/>
</svg>
