<?xml version="1.0" encoding="UTF-8"?>
<!-- generated by Finnhub -->
<svg viewBox="0 0 55.5 55.5" xmlns="http://www.w3.org/2000/svg">
<path d="M 0,0 H 55.5 V 55.5 H 0 Z" fill="rgb(239, 242, 248)"/>
<path d="M 12.59,22.075 L 34.73,20.94 L 34.53,22.09 H 12.6 Z M 12.3,22.35 L 42.32,23.95 L 41.78,25.32 L 12.29,22.35 Z" fill="rgb(86, 160, 207)"/>
<path d="M 10.790000000000001,18.564999999999998 A 0.33,0.33 0 0,0 10.9,18.34 C 10.9,18.15 10.75,18 10.55,18 C 10.35,18 10.19,18.15 10.19,18.34 C 10.19,18.44 10.23,18.52 10.29,18.58 V 18.78 L 8.8,19.94 L 9.12,20.21 L 9.1,22 A 18.63,18.63 0 0,1 8.8,22 V 22.13 H 8.13 V 23.23 L 8.69,24.01 L 8.56,25.88 C 8.8,26.26 9.11,26.6 9.46,26.9 C 9.89,27.25 10.26,27.42 10.65,27.6 C 11,27.77 11.36,27.94 11.77,28.25 C 12.05,28.47 12.46,28.84 12.84,29.44 L 12.4,23.91 L 12.63,23.59 L 12.86,23.27 V 22.19 H 12.42 V 22 H 12.1 V 20.18 L 12.27,20.02 L 10.79,18.79 V 18.59 Z M 10.46,22 L 10.45,20.22 H 9.42 V 21.27 C 9.42,21.29 9.52,21.73 9.96,22 H 10.46 Z M 11.76,22 V 20.23 H 10.74 V 22 H 11.75 Z M 10.95,24 H 10.41 V 24.56 H 10.95 V 24 Z M 10.39,26 H 10.93 V 26.56 H 10.39 V 26 Z M 8.29,22.2 V 23.22 H 8.72 V 22.2 H 8.28 Z M 12.36,23.26 V 22.24 H 12.81 V 23.26 H 12.36 Z M 8.36,27.04 C 8.39,27.11 8.39,27.18 8.39,27.26 C 8.39,27.57 8.37,28.03 10.69,29.41 C 13.06,30.81 12.86,31.17 12.86,31.17 L 13.48,37.81 C 13.4,37.27 12.98,35.71 10.7,34.41 C 7.9,32.82 7.6,31.39 8.36,27.04 Z M 13.5,38 L 13.48,37.8 L 13.5,38 Z" fill="rgb(25, 65, 116)" fill-rule="evenodd"/>
<path d="M 17.45,29.985 V 27.18 H 17.2 C 17.09,27.18 16.98,27.18 16.87,27.21 A 0.52,0.52 0 0,0 16.68,27.3 A 0.33,0.33 0 0,0 16.58,27.44 L 16.53,27.61 L 16.48,27.85 H 16.4 L 16.43,27 H 18.96 L 19,27.85 H 18.9 L 18.87,27.61 A 0.56,0.56 0 0,0 18.82,27.42 A 0.34,0.34 0 0,0 18.7,27.29 A 0.64,0.64 0 0,0 18.5,27.2 A 1.5,1.5 0 0,0 18.17,27.18 H 18 V 30 H 17.46 Z M 19.62,27.59 L 19.54,27.36 A 0.55,0.55 0 0,0 19.46,27.2 A 0.28,0.28 0 0,0 19.32,27.12 A 0.7,0.7 0 0,0 19.12,27.09 V 27 H 19.92 A 94.73,94.73 0 0,1 20.55,29.35 H 20.56 L 21.46,27 H 21.7 L 22.63,29.35 H 22.64 A 350.52,350.52 0 0,0 23.24,27 H 23.54 A 17.01,17.01 0 0,1 23.32,27.85 A 416,416 0 0,0 22.77,30 H 22.45 L 21.5,27.65 L 20.6,30 H 20.27 L 19.62,27.59 Z M 24.7,29.89 C 24.88,29.96 25.1,30 25.36,30 C 25.63,30 25.84,29.96 26.02,29.88 C 26.19,29.81 26.32,29.7 26.43,29.57 C 26.54,29.42 26.62,29.27 26.66,29.09 A 2.53,2.53 0 0,0 26.66,27.91 A 1.24,1.24 0 0,0 26.43,27.43 C 26.33,27.29 26.19,27.18 26.02,27.11 C 25.84,27.04 25.62,27 25.36,27 S 24.88,27.04 24.7,27.11 C 24.54,27.18 24.4,27.29 24.29,27.43 C 24.18,27.57 24.1,27.73 24.07,27.91 A 2.56,2.56 0 0,0 24.07,29.09 C 24.1,29.26 24.18,29.42 24.29,29.57 C 24.39,29.7 24.54,29.81 24.7,29.88 Z M 24.55,28.99 A 4.95,4.95 0 0,1 24.55,28.01 C 24.56,27.86 24.6,27.71 24.67,27.58 A 0.75,0.75 0 0,1 24.92,27.28 A 0.79,0.79 0 0,1 25.37,27.18 C 25.57,27.18 25.71,27.21 25.82,27.28 C 25.93,27.36 26.02,27.47 26.07,27.58 C 26.13,27.72 26.17,27.86 26.17,28.01 A 5.1,5.1 0 0,1 26.17,28.99 A 1.3,1.3 0 0,1 26.07,29.42 A 0.73,0.73 0 0,1 25.81,29.72 A 0.79,0.79 0 0,1 25.36,29.82 A 0.79,0.79 0 0,1 24.91,29.72 A 0.73,0.73 0 0,1 24.66,29.42 A 1.3,1.3 0 0,1 24.55,28.99 Z M 35.49,27.26 C 35.51,27.32 35.52,27.39 35.52,27.46 V 30 H 36 V 28.48 H 36.2 L 37.26,30 H 37.79 A 4.71,4.71 0 0,1 37.54,29.64 L 37.41,29.45 L 36.71,28.45 L 37.01,28.4 C 37.13,28.37 37.23,28.33 37.31,28.27 C 37.41,28.21 37.49,28.14 37.55,28.05 C 37.61,27.95 37.64,27.83 37.64,27.69 A 0.54,0.54 0 0,0 37.54,27.34 A 0.73,0.73 0 0,0 37.26,27.14 A 1.34,1.34 0 0,0 36.88,27.03 A 3.1,3.1 0 0,0 36.46,27 H 35.06 V 27.09 L 35.26,27.1 C 35.31,27.1 35.36,27.12 35.4,27.15 C 35.44,27.18 35.47,27.21 35.49,27.25 Z M 36.43,28.29 L 36,28.3 V 27.47 C 36,27.34 36,27.21 36.15,27.19 C 36.21,27.18 36.27,27.17 36.33,27.18 C 36.43,27.18 36.53,27.18 36.63,27.2 C 36.73,27.22 36.82,27.25 36.9,27.3 C 36.97,27.33 37.03,27.38 37.07,27.45 A 0.4,0.4 0 0,1 37.14,27.69 C 37.14,27.83 37.11,27.94 37.04,28.02 A 0.6,0.6 0 0,1 36.79,28.21 C 36.68,28.25 36.55,28.28 36.43,28.29 Z M 28.49,27.46 C 28.49,27.39 28.49,27.32 28.46,27.26 A 0.24,0.24 0 0,0 28.36,27.15 A 0.4,0.4 0 0,0 28.2,27.1 L 28,27.09 V 27 H 29 V 28.36 H 30.5 V 27 H 31 V 30 H 30.5 V 28.54 H 29 V 30 H 28.5 L 28.49,27.46 Z M 33.29,27 L 34.62,30 H 34.12 L 33.87,29.41 L 33.69,28.99 H 32.37 C 32.09,29.62 31.95,30 31.95,30 H 31.63 C 31.91,29.45 32.16,28.87 32.41,28.3 C 32.57,27.94 32.71,27.59 32.88,27.25 A 0.02,0.02 0 0,1 32.88,27.24 A 0.08,0.08 0 0,0 32.88,27.17 A 0.1,0.1 0 0,0 32.83,27.12 A 0.75,0.75 0 0,0 32.54,27.09 V 27 H 33.28 Z M 32.44,28.82 H 33.62 L 33.03,27.49 L 32.44,28.82 Z M 38.54,27.46 C 38.54,27.39 38.54,27.32 38.51,27.26 A 0.23,0.23 0 0,0 38.42,27.15 A 0.36,0.36 0 0,0 38.27,27.1 L 38.08,27.09 V 27 H 39.38 L 39.75,27.01 C 39.89,27.01 40.03,27.04 40.17,27.09 C 40.3,27.13 40.42,27.21 40.51,27.3 C 40.61,27.4 40.65,27.54 40.65,27.72 A 0.6,0.6 0 0,1 40.43,28.2 A 0.78,0.78 0 0,1 40.23,28.32 L 40.03,28.4 L 40.31,28.47 C 40.41,28.5 40.49,28.55 40.57,28.61 A 0.7,0.7 0 0,1 40.83,29.19 C 40.83,29.38 40.78,29.53 40.69,29.63 C 40.59,29.73 40.48,29.83 40.34,29.87 C 40.2,29.93 40.05,29.97 39.9,29.97 L 39.46,30 H 38.54 V 27.46 Z M 39,28.33 H 39.25 L 39.52,28.32 C 39.62,28.32 39.72,28.29 39.82,28.26 C 39.92,28.22 40,28.16 40.06,28.09 A 0.5,0.5 0 0,0 40.16,27.75 C 40.16,27.64 40.13,27.55 40.09,27.47 A 0.47,0.47 0 0,0 39.93,27.3 A 0.72,0.72 0 0,0 39.68,27.2 A 1.6,1.6 0 0,0 39.18,27.19 A 0.2,0.2 0 0,0 39.07,27.24 A 0.2,0.2 0 0,0 39.02,27.35 V 27.4 L 39,27.55 V 28.33 Z M 39,29.45 L 39.01,29.6 V 29.65 C 39.01,29.69 39.04,29.73 39.07,29.76 S 39.14,29.81 39.2,29.81 A 2.2,2.2 0 0,0 39.78,29.79 A 0.9,0.9 0 0,0 40.06,29.69 A 0.57,0.57 0 0,0 40.26,29.49 A 0.55,0.55 0 0,0 40.33,29.19 A 0.61,0.61 0 0,0 40.23,28.81 A 0.66,0.66 0 0,0 39.96,28.61 A 1.1,1.1 0 0,0 39.61,28.52 A 4.35,4.35 0 0,0 39.25,28.51 H 39 V 29.45 Z M 41.5,28.5 C 41.5,29.37 41.94,30 42.86,30 C 43.12,30 43.34,29.96 43.52,29.88 C 43.68,29.81 43.82,29.7 43.93,29.57 C 44.04,29.42 44.12,29.27 44.16,29.09 A 2.52,2.52 0 0,0 44.16,27.91 A 1.24,1.24 0 0,0 43.93,27.43 C 43.83,27.29 43.69,27.19 43.52,27.11 C 43.34,27.04 43.12,27.01 42.86,27.01 S 42.38,27.04 42.2,27.11 C 41.65,27.35 41.5,27.95 41.5,28.5 Z M 42.86,29.83 C 42.11,29.83 42,29.09 42,28.5 C 42,28.08 42.04,27.55 42.42,27.29 A 0.79,0.79 0 0,1 42.87,27.17 C 43.07,27.17 43.21,27.21 43.32,27.28 C 43.43,27.36 43.52,27.47 43.57,27.58 C 43.63,27.72 43.67,27.86 43.67,28.01 A 4.84,4.84 0 0,1 43.67,28.99 A 1.3,1.3 0 0,1 43.57,29.42 A 0.73,0.73 0 0,1 43.31,29.72 A 0.79,0.79 0 0,1 42.86,29.82 Z M 45,27.45 C 45,27.27 44.98,27.12 44.8,27.1 L 44.6,27.09 V 27 H 46 C 46.14,27 46.28,27 46.43,27.03 C 46.56,27.04 46.68,27.08 46.8,27.13 C 46.91,27.18 47,27.25 47.07,27.33 C 47.14,27.42 47.18,27.53 47.18,27.67 S 47.15,27.92 47.08,28.02 A 0.73,0.73 0 0,1 46.86,28.24 A 1,1 0 0,1 46.56,28.36 C 46.46,28.38 46.36,28.4 46.26,28.4 L 46.71,29.09 C 46.91,29.4 47.11,29.72 47.33,30 H 46.8 L 45.75,28.43 H 45.53 V 30 H 45 V 27.45 Z M 45.53,28.26 L 45.97,28.25 C 46.1,28.25 46.22,28.22 46.34,28.17 A 0.6,0.6 0 0,0 46.59,27.99 A 0.5,0.5 0 0,0 46.69,27.67 A 0.39,0.39 0 0,0 46.62,27.43 A 0.52,0.52 0 0,0 46.44,27.28 A 0.86,0.86 0 0,0 46.18,27.2 A 1.74,1.74 0 0,0 45.68,27.18 A 0.2,0.2 0 0,0 45.58,27.23 A 0.14,0.14 0 0,0 45.54,27.31 L 45.53,27.46 V 28.26 Z M 49.72,27.67 L 49.75,27.9 H 49.85 L 49.81,27.08 A 6.99,6.99 0 0,0 49.03,27 C 48.88,27 48.73,27.02 48.59,27.04 C 48.46,27.07 48.34,27.11 48.23,27.17 A 0.62,0.62 0 0,0 47.9,27.74 C 47.9,27.88 47.92,27.99 47.98,28.08 C 48.04,28.18 48.13,28.26 48.22,28.33 C 48.35,28.41 48.49,28.48 48.62,28.53 L 49.05,28.73 C 49.17,28.79 49.29,28.86 49.39,28.95 A 0.4,0.4 0 0,1 49.49,29.09 C 49.52,29.14 49.53,29.19 49.53,29.25 A 0.55,0.55 0 0,1 49.33,29.64 A 0.71,0.71 0 0,1 49.1,29.76 A 1.19,1.19 0 0,1 48.45,29.76 A 0.83,0.83 0 0,1 48.2,29.64 A 0.55,0.55 0 0,1 47.98,29.3 L 47.95,29.08 H 47.85 L 47.89,29.92 C 47.92,29.92 47.97,29.92 48.03,29.94 A 4.24,4.24 0 0,0 49.24,29.95 C 49.38,29.92 49.51,29.87 49.64,29.8 A 0.8,0.8 0 0,0 49.9,29.55 C 49.97,29.43 50,29.31 50,29.18 A 0.7,0.7 0 0,0 49.95,28.91 A 0.67,0.67 0 0,0 49.82,28.71 A 1.1,1.1 0 0,0 49.61,28.54 A 3,3 0 0,0 48.99,28.24 C 48.88,28.19 48.76,28.14 48.66,28.08 C 48.56,28.03 48.48,27.97 48.4,27.9 A 0.37,0.37 0 0,1 48.35,27.46 C 48.39,27.39 48.44,27.34 48.49,27.3 A 0.61,0.61 0 0,1 48.69,27.2 A 1.1,1.1 0 0,1 49.27,27.21 C 49.36,27.24 49.44,27.28 49.51,27.34 A 0.54,0.54 0 0,1 49.71,27.67 Z" fill="rgb(25, 65, 116)"/>
<path d="M 40.99,31.985 H 27 V 34 H 41 V 32 Z M 50,32 H 42 V 34 H 50 V 32 Z" fill="rgb(37, 148, 205)" opacity=".3"/>
</svg>
