<?xml version="1.0" encoding="UTF-8"?>
<!-- generated by Finnhub -->
<svg viewBox="0 0 55.5 55.5" xmlns="http://www.w3.org/2000/svg">
<path d="M 0,0 H 55.5 V 55.5 H 0 Z" fill="rgb(239, 242, 248)"/>
<circle cx="28" cy="28" r="17" fill="rgb(236, 115, 70)" fill-opacity=".49"/>
<circle cx="28" cy="28" r="16.28" fill="rgb(236, 115, 70)" fill-opacity=".49"/>
<circle cx="28" cy="28" r="15.26" fill="rgb(236, 115, 70)" fill-opacity=".49"/>
<circle cx="28" cy="28" r="14.23" fill="rgb(236, 115, 70)" fill-opacity=".49"/>
<circle cx="28" cy="28" r="12.66" fill="rgb(236, 115, 70)"/>
<path d="M 42.59,31.985 H 41 V 35.83 A 10.44,10.44 0 0,0 42.6,32 Z" fill="rgb(254, 254, 253)"/>
<path d="M 37.99,37.985 V 32 H 36 V 29 H 43 V 28 C 43,27.92 43,28.09 43,28 H 40 V 23.12 L 37.88,28 H 36.94 L 35,23.12 V 28 H 32 V 18 H 34.98 L 37.4,23.05 L 39.57,18.45 A 15,15 0 0,0 28,13 C 23.62,13 19.44,15.01 16.7,18 H 22 V 21 H 20 V 28 H 17 V 21 H 14.8 A 14.36,14.36 0 0,0 13,28 A 15,15 0 0,0 28,43 C 32.38,43 36.57,40.99 39.3,38 H 38 Z M 26,20.5 V 21.5 H 30.5 V 24 H 26 V 25.5 H 31 V 28 H 23 V 18 H 31 V 20.5 H 26 Z M 35,38 H 32 V 29 H 35 V 38 Z" fill="rgb(239, 242, 248)"/>
</svg>
