<?xml version="1.0" encoding="UTF-8"?>
<!-- generated by Finnhub -->
<svg viewBox="0 0 55.5 55.5" xmlns="http://www.w3.org/2000/svg">
<path d="M 0,0 H 55.5 V 55.5 H 0 Z" fill="rgb(1, 171, 177)"/>
<path d="M 7.57,25.983999999999998 H 4 V 26.643 H 5.486 V 31 H 6.093 V 26.644 H 7.58 V 26 Z M 8,30.999 V 25.999 H 8.597 V 27.877 C 9.009,27.417 9.509,27.331 9.708,27.346 C 10.755,27.318 11.005,28.232 11,28.692 V 30.999 H 10.395 V 28.821 C 10.387,28.523 10.204,27.927 9.537,27.921 C 8.87,27.913 8.632,28.518 8.597,28.821 V 30.999 H 8 Z M 13.324,27 C 14.664,26.993 14.912,28.517 14.869,29.28 H 12.264 C 12.304,29.804 12.724,30.41 13.38,30.41 C 13.905,30.41 14.273,30.043 14.392,29.859 L 14.764,30.227 C 14.376,30.881 13.642,31.014 13.324,30.999 C 11.99,30.969 11.657,29.632 11.657,28.967 C 11.654,28.315 11.984,27.007 13.324,27 Z M 26.724,27 C 28.064,26.993 28.314,28.517 28.27,29.28 H 25.665 C 25.705,29.804 26.125,30.41 26.781,30.41 C 27.305,30.41 27.674,30.043 27.793,29.859 L 28.165,30.227 C 27.776,30.881 27.043,31.014 26.725,30.999 C 25.391,30.969 25.058,29.632 25.058,28.967 C 25.055,28.315 25.384,27.007 26.724,27 Z" fill="rgb(1, 52, 87)"/>
<path d="M 13.264,27.608 C 12.562,27.602 12.314,28.35 12.278,28.727 H 14.253 C 14.223,28.368 13.986,27.645 13.273,27.623 Z M 26.676,27.597 C 25.964,27.575 25.716,28.336 25.681,28.719 H 27.655 C 27.625,28.354 27.388,27.619 26.676,27.597 Z" fill="rgb(1, 171, 177)"/>
<path d="M 15.408,30.985 V 27.005 H 16.008 V 27.805 A 1.334,1.334 0 0,1 17.332,27.005 V 27.679 C 16.302,27.722 16.02,28.688 16.008,29.166 V 31 H 15.418 Z M 19.227,27.01 C 18.687,26.948 18.097,27.208 17.869,27.345 L 18.039,27.985 C 18.086,27.905 18.296,27.72 19.056,27.66 C 19.816,27.599 20,28.27 19.996,28.614 C 19.889,28.538 19.526,28.401 18.933,28.462 C 18.192,28.538 17.574,28.928 17.574,29.807 C 17.574,30.685 18.334,31.011 18.933,31 C 19.411,30.991 19.842,30.678 19.997,30.523 V 31 H 20.557 C 20.56,30.483 20.565,29.184 20.557,28.386 C 20.547,27.389 19.902,27.085 19.227,27.009 Z" fill="rgb(1, 52, 87)"/>
<path d="M 18.183999999999997,29.745 C 18.161,28.834 19.382,28.957 20,29.134 V 29.651 C 20,29.907 19.795,30.128 19.689,30.206 C 19.285,30.504 18.223,30.612 18.194,29.76 Z" fill="rgb(1, 171, 177)"/>
<path d="M 21.186999999999998,31.985 V 27.097 H 21.804 V 27.683 C 21.998,27.447 22.387,26.975 23.016,27.001 C 23.646,27.027 24.618,27.569 24.61,28.95 C 24.602,30.33 23.742,30.969 23.016,30.969 C 22.387,30.969 21.966,30.561 21.804,30.322 V 32 H 21.197 Z" fill="rgb(1, 52, 87)"/>
<ellipse cx="22.884" cy="29.034" rx="1.119" ry="1.369" fill="rgb(1, 171, 177)"/>
<path d="M 28.770999999999997,29.508 V 27 H 29.351 V 29.32 C 29.366,29.679 29.563,30.398 30.237,30.398 C 30.91,30.398 31.107,29.679 31.122,29.32 V 27 H 31.753 V 30.927 H 31.123 V 30.398 C 30.856,30.918 30.28,31.015 30.026,30.998 C 29.044,31.038 28.787,30.032 28.781,29.523 Z M 32.732,27.12 V 26 H 33.334 V 27.12 H 34.326 V 27.73 H 33.334 C 33.332,28.365 33.328,29.695 33.334,29.924 C 33.342,30.211 33.517,30.381 33.81,30.364 C 34.045,30.349 34.252,30.25 34.326,30.202 V 30.811 C 34.167,30.911 33.842,30.978 33.699,30.999 C 32.913,31.028 32.726,30.33 32.732,29.978 V 27.729 H 32.256 V 27.119 H 32.732 Z M 35.111,26 H 35.793 V 26.727 H 35.111 Z M 35.111,27 H 35.793 V 31 H 35.111 Z M 37.97,27 C 38.721,27.015 39.19,27.488 39.33,27.723 L 38.926,28.217 C 38.794,28.031 38.418,27.653 37.97,27.631 C 37.41,27.604 36.826,28.052 36.81,28.985 C 36.793,29.918 37.452,30.348 37.97,30.385 C 38.386,30.414 38.808,30.037 38.967,29.845 L 39.329,30.22 C 38.934,30.9 38.259,31.022 37.97,30.997 C 37.065,30.988 36.175,30.22 36.175,28.985 C 36.175,27.75 37.032,26.982 37.97,27 Z M 40.956,27.003 A 1.924,1.924 0 0,1 42.279,27.464 L 41.983,28.001 C 41.791,27.865 41.317,27.596 40.956,27.608 C 40.506,27.623 40.351,27.865 40.351,28.138 C 40.351,28.355 40.637,28.505 40.781,28.553 L 41.779,28.931 C 41.974,29.004 42.361,29.291 42.349,29.854 C 42.335,30.558 41.913,30.936 41.104,30.996 C 40.457,31.045 39.793,30.618 39.542,30.399 L 39.88,29.907 C 40.253,30.293 40.773,30.399 41.104,30.399 C 41.434,30.399 41.716,30.239 41.737,29.907 C 41.754,29.641 41.5,29.479 41.371,29.431 L 40.351,29.075 C 40.141,28.967 39.717,28.627 39.711,28.137 C 39.704,27.525 40.175,27.048 40.956,27.003 Z" fill="rgb(1, 52, 87)"/>
<path d="M 42.99,30.983 V 26.002 H 43.506 L 45.2,28.701 L 46.904,26.002 H 47.434 V 30.498 H 49.474 C 50.182,30.464 51.57,29.999 51.456,28.413 C 51.341,26.828 50.156,26.513 49.578,26.555 H 49 V 30 H 48.481 V 26.002 H 49.473 C 50.334,25.964 52.045,26.409 51.999,28.496 C 51.953,30.582 50.366,31.033 49.579,30.998 H 46.904 V 27.004 L 45.2,29.652 L 43.506,27.004 V 30.998 H 43 Z" fill="rgb(254, 254, 253)"/>
</svg>
