<?xml version="1.0" encoding="UTF-8"?>
<!-- generated by Finnhub -->
<svg viewBox="0 0 55.5 55.5" xmlns="http://www.w3.org/2000/svg">
<path d="M 0,0 H 55.5 V 55.5 H 0 Z" fill="rgb(239, 242, 248)"/>
<path d="M 27.97,11.985 C 36.84,12 44.04,19.2 44.04,28.04 A 16.07,16.07 0 0,1 11.91,28.04 C 11.91,19.2 19.11,12 27.98,12 Z" fill="rgb(254, 254, 253)"/>
<path d="M 27.99,44.985 C 18.63,45 11,37.37 11,28 S 18.63,11 28,11 C 37.37,11 45,18.63 45,28 C 45,37.37 37.37,45 28,45 Z M 28,12 C 19.18,12 12,19.18 12,28 S 19.18,44 28,44 S 44,36.82 44,28 S 36.82,12 28,12 Z" fill="rgb(50, 71, 79)"/>
<path d="M 27.99,12.985 C 19.73,13 13,19.73 13,28 C 13,36.27 19.73,43 28,43 C 36.27,43 43,36.27 43,28 S 36.27,13 28,13 Z" fill="rgb(50, 71, 79)"/>
<path d="M 21.689999999999998,36.555 C 21.74,36.66 21.76,36.75 21.75,36.84 A 0.45,0.45 0 0,1 21.63,37.09 A 0.55,0.55 0 0,1 21.08,37.25 A 0.87,0.87 0 0,1 20.77,37.1 L 20.57,36.96 L 20.24,37.33 L 20,37.14 L 21.03,36 L 21.47,36.32 C 21.57,36.4 21.65,36.48 21.69,36.57 Z M 21.18,36.99 C 21.26,36.99 21.32,36.96 21.38,36.9 A 0.2,0.2 0 0,0 21.43,36.71 A 0.35,0.35 0 0,0 21.29,36.52 L 21.09,36.38 L 20.75,36.77 L 20.94,36.91 C 21.02,36.97 21.1,37 21.18,36.99 Z M 22.71,38.52 L 22.07,38.2 L 21.84,38.38 L 21.54,38.23 L 22.91,37.23 L 23.18,37.36 L 22.96,38.95 L 22.67,38.8 L 22.71,38.52 Z M 22.75,38.27 L 22.85,37.61 L 22.28,38.04 L 22.75,38.27 Z M 24.7,39.53 L 24.62,38.98 L 24.55,38.96 L 24.31,38.89 L 24.14,39.36 L 23.84,39.27 L 24.34,37.87 L 24.88,38.03 C 25.08,38.09 25.23,38.18 25.31,38.29 C 25.39,38.41 25.41,38.53 25.36,38.68 A 0.48,0.48 0 0,1 24.93,39 L 25.03,39.62 L 24.7,39.52 Z M 24.63,38.73 C 24.74,38.76 24.83,38.77 24.9,38.74 A 0.24,0.24 0 0,0 25.05,38.59 A 0.2,0.2 0 0,0 25.02,38.39 C 24.98,38.34 24.91,38.29 24.8,38.26 L 24.55,38.19 L 24.39,38.66 L 24.63,38.73 Z M 27.5,38.76 L 26.98,38.7 L 26.82,39.91 L 26.5,39.88 L 26.67,38.67 L 26.15,38.61 L 26.19,38.35 L 27.54,38.51 L 27.5,38.76 Z M 29.75,38.42 L 29.88,39.9 L 29.52,39.92 L 28.64,38.9 L 28.74,39.98 L 28.42,40 L 28.29,38.53 L 28.65,38.5 L 29.53,39.52 L 29.43,38.45 L 29.75,38.42 Z M 30.91,38.46 L 31.01,38.77 L 31.81,38.57 L 31.88,38.79 L 31.08,39 L 31.2,39.38 L 32.09,39.15 L 32.16,39.4 L 30.98,39.7 L 30.53,38.29 L 31.72,37.98 L 31.8,38.23 L 30.91,38.46 Z M 33.96,38.68 L 33.47,38.34 L 33.41,38.37 L 33.18,38.47 L 33.42,38.92 L 33.14,39.05 L 32.41,37.73 L 32.92,37.5 C 33.12,37.4 33.29,37.38 33.43,37.41 C 33.58,37.44 33.69,37.52 33.76,37.66 C 33.81,37.74 33.83,37.83 33.82,37.92 C 33.82,38 33.78,38.08 33.72,38.16 L 34.26,38.54 L 33.96,38.68 Z M 33.29,38.16 C 33.39,38.11 33.46,38.06 33.49,37.99 A 0.21,0.21 0 0,0 33.47,37.79 A 0.23,0.23 0 0,0 33.31,37.67 A 0.44,0.44 0 0,0 33.05,37.72 L 32.82,37.82 L 33.06,38.26 L 33.29,38.16 Z M 35.15,37.9 A 0.47,0.47 0 0,1 34.78,37.71 L 35.02,37.54 C 35.07,37.6 35.14,37.64 35.22,37.63 C 35.3,37.63 35.39,37.58 35.5,37.51 A 0.46,0.46 0 0,0 35.67,37.32 C 35.7,37.26 35.69,37.2 35.65,37.15 A 0.15,0.15 0 0,0 35.54,37.1 C 35.49,37.1 35.44,37.1 35.4,37.12 L 35.2,37.22 L 34.9,37.34 A 0.53,0.53 0 0,1 34.64,37.37 A 0.4,0.4 0 0,1 34.4,37.22 C 34.3,37.1 34.27,36.98 34.31,36.86 C 34.35,36.74 34.46,36.62 34.63,36.5 C 34.75,36.42 34.86,36.36 34.97,36.33 C 35.07,36.31 35.17,36.31 35.26,36.33 C 35.35,36.36 35.42,36.41 35.48,36.48 L 35.23,36.65 C 35.19,36.6 35.13,36.57 35.05,36.58 A 0.57,0.57 0 0,0 34.79,36.69 A 0.47,0.47 0 0,0 34.62,36.87 A 0.15,0.15 0 0,0 34.65,37.04 C 34.68,37.07 34.72,37.09 34.76,37.1 L 34.91,37.07 L 35.11,36.97 L 35.41,36.85 A 0.55,0.55 0 0,1 35.67,36.83 C 35.75,36.84 35.83,36.89 35.9,36.97 C 36,37.07 36.02,37.19 35.98,37.32 C 35.95,37.45 35.84,37.58 35.66,37.7 C 35.46,37.84 35.3,37.9 35.15,37.9 M 21.42,18.6 L 21.62,18.92 L 22.3,18.43 L 22.44,18.67 L 21.75,19.16 L 21.99,19.56 L 22.75,19.01 L 22.9,19.27 L 21.88,20 L 21,18.52 L 22.02,17.79 L 22.18,18.05 L 21.42,18.59 Z M 24.59,16.56 L 25.15,18.21 L 24.82,18.34 L 23.67,17.44 L 24.08,18.64 L 23.79,18.76 L 23.23,17.11 L 23.56,16.98 L 24.7,17.88 L 24.3,16.68 L 24.59,16.56 Z M 26.4,16.44 L 26.44,16.84 L 27.26,16.73 L 27.29,17 L 26.48,17.11 L 26.53,17.58 L 27.43,17.46 L 27.46,17.76 L 26.26,17.93 L 26.06,16.18 L 27.26,16.02 L 27.3,16.32 L 26.4,16.44 Z M 29.55,17.85 L 29.34,17.23 H 29.26 L 29.01,17.2 L 28.96,17.79 L 28.65,17.76 L 28.81,16 L 29.37,16.06 C 29.59,16.09 29.74,16.16 29.85,16.27 C 29.95,16.39 30,16.53 29.98,16.71 A 0.62,0.62 0 0,1 29.88,17.01 A 0.47,0.47 0 0,1 29.64,17.19 L 29.88,17.89 L 29.55,17.85 Z M 29.29,16.95 C 29.4,16.95 29.49,16.94 29.55,16.89 C 29.62,16.84 29.65,16.77 29.66,16.68 A 0.27,0.27 0 0,0 29.59,16.46 A 0.38,0.38 0 0,0 29.35,16.36 L 29.09,16.33 L 29.04,16.91 L 29.29,16.94 Z M 32.59,17.75 L 32.31,18.65 L 32.05,18.55 L 32.12,18.35 C 31.95,18.46 31.75,18.48 31.52,18.39 A 0.8,0.8 0 0,1 30.98,17.73 C 30.96,17.58 30.98,17.41 31.03,17.23 A 1,1 0 0,1 31.26,16.81 C 31.36,16.71 31.48,16.65 31.62,16.62 C 31.76,16.59 31.91,16.62 32.07,16.67 C 32.27,16.74 32.43,16.87 32.52,17.02 C 32.62,17.17 32.66,17.36 32.63,17.57 L 32.31,17.45 A 0.46,0.46 0 0,0 32.23,17.15 A 0.55,0.55 0 0,0 31.97,16.98 A 0.43,0.43 0 0,0 31.59,17 A 0.59,0.59 0 0,0 31.34,17.35 A 0.7,0.7 0 0,0 31.34,17.81 C 31.39,17.94 31.48,18.04 31.63,18.09 C 31.75,18.14 31.86,18.14 31.96,18.1 C 32.06,18.06 32.14,17.99 32.19,17.87 L 31.76,17.71 L 31.83,17.47 L 32.59,17.75 Z M 33.95,18.97 L 33.68,19.47 L 33.41,19.29 L 33.68,18.79 L 33.73,17.45 L 34.03,17.64 L 33.98,18.57 L 34.7,18.07 L 35,18.27 L 33.95,18.97 Z" fill="rgb(184, 149, 94)"/>
<path d="M 15.99,25.985 H 18 V 31 H 19 V 26 H 21 V 25 H 16 V 26 Z" fill="rgb(254, 254, 253)"/>
<path d="M 33.99,27.985 A 3,3 0 1,1 40,28 A 3,3 0 0,1 34,28 Z M 35,28 A 2,2 0 1,1 39,28 A 2,2 0 0,1 35,28 Z" fill="rgb(254, 254, 253)" fill-rule="evenodd"/>
<path d="M 32.99,33.985 L 28.55,27.95 L 33,22 H 31.9 L 28,27.2 L 24.1,22 H 23 L 27.45,27.96 L 23,34 H 24.1 L 28,28.7 L 31.9,34 H 33 Z" fill="rgb(254, 254, 253)"/>
</svg>
