<?xml version="1.0" encoding="UTF-8"?>
<!-- generated by Finnhub -->
<svg viewBox="0 0 55.5 55.5" xmlns="http://www.w3.org/2000/svg">
<path d="M 0,0 H 55.5 V 55.5 H 0 Z" fill="rgb(239, 242, 248)"/>
<path d="M 19.599999999999998,33.455 A 15.96,15.96 0 0,1 17.37,23.83 A 14.1,14.1 0 0,1 13.31,21.66 A 16,16 0 0,0 20.26,42 A 13.26,13.26 0 0,1 19.61,33.47 Z" fill="rgb(1, 179, 235)"/>
<path d="M 29.549999999999997,40.765 C 28.76,41.98 27.79,43.04 26.67,43.94 A 15.96,15.96 0 0,0 37.9,40.58 A 16.08,16.08 0 0,1 29.56,40.78 Z" fill="rgb(44, 181, 168)"/>
<path d="M 29.549999999999997,40.765 A 16.1,16.1 0 0,1 19.61,33.48 A 13.35,13.35 0 0,0 20.26,42 A 15.92,15.92 0 0,0 26.67,43.94 C 27.79,43.04 28.77,41.97 29.56,40.78 Z" fill="rgb(1, 157, 157)"/>
<path d="M 18.59,18.865 A 16.1,16.1 0 0,1 23.3,12.71 A 16.06,16.06 0 0,0 14.63,19.21 A 14.3,14.3 0 0,1 18.6,18.88 Z" fill="rgb(1, 179, 235)"/>
<path d="M 18.59,18.865 L 17.79,18.86 C 16.7,18.86 15.65,18.98 14.63,19.21 C 14.13,19.99 13.68,20.81 13.31,21.66 A 14.1,14.1 0 0,0 17.37,23.83 C 17.52,22.09 17.94,20.43 18.6,18.88 Z" fill="rgb(1, 130, 199)"/>
<path d="M 21.889999999999997,24.555 C 20.32,24.57 18.8,24.31 17.37,23.83 A 15.97,15.97 0 0,0 19.61,33.48 A 13.35,13.35 0 0,1 28.71,24.03 C 28.48,23.74 28.24,23.47 27.98,23.2 A 14.1,14.1 0 0,1 21.9,24.57 Z" fill="url(#f)"/>
<path d="M 36.84,15.695 C 36.85,20.69 39.77,24.98 44,26.97 A 15.98,15.98 0 0,0 36.9,14.67 A 12,12 0 0,0 36.85,15.71 Z" fill="url(#e)"/>
<path d="M 28.7,24.015 A 14.04,14.04 0 0,1 29.55,40.78 A 16.15,16.15 0 0,0 37.91,40.58 A 15.98,15.98 0 0,0 43.92,29.88 A 13.32,13.32 0 0,0 28.72,24.03 Z" fill="url(#d)"/>
<path d="M 19.599999999999998,33.455 A 16.1,16.1 0 0,0 29.56,40.78 A 14.04,14.04 0 0,0 28.71,24.03 A 13.35,13.35 0 0,0 19.61,33.47 Z" fill="url(#c)"/>
<path d="M 23.29,12.684999999999999 A 16.1,16.1 0 0,0 18.6,18.89 A 14.1,14.1 0 0,1 27.98,23.2 A 14.14,14.14 0 0,0 35.6,13.9 A 15.96,15.96 0 0,0 23.3,12.7 Z" fill="url(#b)"/>
<path d="M 17.36,23.814999999999998 A 14.1,14.1 0 0,0 27.98,23.2 A 14.1,14.1 0 0,0 18.6,18.89 A 15.85,15.85 0 0,0 17.37,23.83 Z" fill="url(#a)"/>
<defs>
<linearGradient id="f" x1="21.43" x2="18.13" y1="20.31" y2="29.94" gradientUnits="userSpaceOnUse">
<stop stop-color="rgb(1, 184, 237)" offset="0"/>
<stop stop-color="rgb(1, 104, 181)" offset="1"/>
</linearGradient>
<linearGradient id="e" x1="37.67" x2="44.46" y1="23.15" y2="21.32" gradientUnits="userSpaceOnUse">
<stop stop-color="rgb(209, 229, 210)" offset="0"/>
<stop stop-color="rgb(1, 135, 61)" offset="1"/>
</linearGradient>
<linearGradient id="d" x1="33.45" x2="33.91" y1="22.51" y2="41.24" gradientUnits="userSpaceOnUse">
<stop stop-color="rgb(209, 229, 210)" offset="0"/>
<stop stop-color="rgb(1, 135, 61)" offset="1"/>
</linearGradient>
<linearGradient id="c" x1="28.77" x2="22.71" y1="18.01" y2="37.56" gradientUnits="userSpaceOnUse">
<stop stop-color="rgb(97, 191, 179)" offset="0"/>
<stop stop-color="rgb(1, 102, 118)" offset=".77"/>
</linearGradient>
<linearGradient id="b" x1="33.91" x2="17.76" y1="29.67" y2="14.89" gradientUnits="userSpaceOnUse">
<stop stop-color="rgb(1, 184, 237)" offset="0"/>
<stop stop-color="rgb(1, 104, 181)" offset="1"/>
</linearGradient>
<linearGradient id="a" x1="29.14" x2="17.48" y1="25.9" y2="16.82" gradientUnits="userSpaceOnUse">
<stop stop-color="rgb(1, 184, 237)" offset="0"/>
<stop stop-color="rgb(1, 90, 170)" offset="1"/>
</linearGradient>
</defs>
</svg>
