<?xml version="1.0" encoding="UTF-8"?>
<!-- generated by Finnhub -->
<svg viewBox="0 0 55.5 55.5" xmlns="http://www.w3.org/2000/svg">
<path d="M 0,0 H 55.5 V 55.5 H 0 Z" fill="rgb(239, 242, 248)"/>
<path d="M 33.730000000000004,23.724999999999998 V 22.3 H 38.6 L 35.7,29.04 H 38.39 V 30.47 H 33.39 L 36.22,23.75 H 33.74 Z M 45.05,27.89 C 45.05,30.49 43.73,32.14 42.1,32.14 C 40.48,32.14 39.16,30.24 39.16,27.89 S 40.15,23.63 42.11,23.63 C 44.22,23.63 45.05,25.53 45.05,27.89 Z M 43.41,27.81 C 43.41,29.51 42.83,30.6 42.11,30.6 C 41.38,30.6 40.8,29.35 40.8,27.81 C 40.8,26.28 41.24,25.03 42.1,25.03 C 43.05,25.03 43.41,26.28 43.41,27.81 Z M 48.66,31.59 C 50.29,31.59 51.61,29.95 51.61,27.34 C 51.61,24.99 50.78,23.09 48.66,23.09 C 46.71,23.09 45.72,24.99 45.72,27.34 S 47.04,31.59 48.66,31.59 Z M 48.66,30.05 C 49.39,30.05 49.97,28.98 49.97,27.27 C 49.97,25.73 49.61,24.49 48.67,24.49 C 47.8,24.49 47.36,25.73 47.36,27.27 C 47.36,28.81 47.94,30.05 48.66,30.05 Z M 21.91,31.43 L 19.46,23.28 H 21.09 L 22.46,28.6 H 22.56 L 23.85,23.28 H 25.48 L 23.18,31.43 H 21.9 Z M 9.09,31.74 V 23.54 H 11.29 C 12.09,23.54 13.68,24.02 13.68,25.9 C 13.68,26.4 13.42,27.54 12.46,27.98 L 13.95,31.74 H 12.26 L 10.8,27.98 H 10.66 V 31.74 H 9.09 Z M 10.69,27.11 V 24.81 H 11.29 C 11.59,24.84 12.17,25.13 12.17,25.97 C 12.17,26.82 11.54,27.08 11.23,27.11 H 10.69 Z M 8.2,24.36 H 4 V 25.79 H 5.3 V 32.51 H 6.88 V 25.79 H 8.2 V 24.36 Z M 16.55,23.88 L 14.58,32.04 H 16.12 L 16.37,30.65 H 18.3 L 18.58,32.04 H 20.23 L 18.25,23.88 H 16.55 Z M 18.05,29.4 H 16.6 L 17.23,25.9 H 17.35 L 18.05,29.4 Z M 26.31,23.56 V 31.72 H 29.6 V 30.26 H 27.88 V 28.32 H 29.37 V 26.9 H 27.88 V 25 H 29.6 V 23.57 H 26.3 Z M 30.73,25 V 33 H 34 V 31.53 H 32.3 V 25 H 30.73 Z" fill-rule="evenodd"/>
<path d="M 20.069999999999997,22.985 L 22.53,31 H 23.8 L 26.1,23 H 24.47 L 23.17,28.32 H 23.08 L 21.71,23 H 20.08 Z M 9.94,23.27 V 31.47 H 11.42 V 27.7 H 11.65 L 13.11,31.46 H 14.8 L 13.3,27.7 C 14.27,27.27 14.52,26.13 14.53,25.62 C 14.53,23.75 12.93,23.27 12.13,23.27 H 9.93 Z M 11.45,24.53 V 26.83 H 12.07 C 12.39,26.81 13.01,26.53 13.01,25.69 C 13.01,24.85 12.43,24.57 12.14,24.53 H 11.45 Z M 4.62,24.08 H 8.82 V 25.51 H 7.51 V 32 H 5.9 V 25.51 H 4.62 V 24.08 Z M 15.2,31.76 L 17.17,23.61 H 18.87 L 20.85,31.76 H 19.2 L 18.93,30.38 H 16.99 L 16.74,31.76 H 15.2 Z M 17.22,29 H 18.67 L 17.97,25.62 H 17.85 L 17.22,29 Z M 27,31.45 V 23.28 H 30 V 24.72 H 28.5 V 26.62 H 30 V 28.05 H 28.5 V 30 H 30 V 31.45 H 27 Z M 31.35,32.72 V 24.55 H 32.92 V 31.25 H 34.64 V 32.72 H 31.35 Z" fill="rgb(1, 1, 202)" fill-rule="evenodd"/>
<path d="M 23.069999999999997,28.305 L 21.71,23 H 20.08 L 22.53,31 H 23.8 L 26.1,23 H 24.47 L 23.17,28.32 H 23.08 Z M 24.53,23.08 L 23.23,28.4 H 23.02 L 21.65,23.08 H 20.19 L 22.59,30.93 H 23.73 L 26,23.08 H 24.53 Z M 11.61,27.7 L 13.08,31.46 H 14.81 L 13.32,27.7 C 14.29,27.27 14.55,26.13 14.55,25.62 C 14.55,23.75 12.89,23.27 12.09,23.27 H 9.9 V 31.47 H 11.47 V 27.7 H 11.61 Z M 11.39,31.38 V 27.62 H 11.67 L 13.13,31.38 H 14.69 L 13.22,27.66 L 13.29,27.63 C 13.75,27.43 13.99,27.05 14.16,26.66 C 14.34,26.26 14.46,25.86 14.47,25.62 C 14.47,24.71 14.02,24.14 13.54,23.81 A 2.65,2.65 0 0,0 12.09,23.35 H 10 V 31.38 H 11.39 Z M 11.42,26.92 V 24.45 H 12.12 C 12.28,24.47 12.52,24.55 12.71,24.75 C 12.91,24.95 13.06,25.25 13.06,25.69 C 13.06,26.14 12.89,26.44 12.68,26.63 C 12.47,26.82 12.22,26.9 12.05,26.92 H 11.42 Z M 7.42,25.43 H 8.74 V 24.1 H 4.7 V 25.44 H 6 V 31.94 H 7.42 V 25.44 Z M 7.51,25.51 H 8.82 V 24 H 4.62 V 25.51 H 5.92 V 32.01 H 7.5 V 25.51 Z M 18.93,30.38 L 19.2,31.76 H 20.85 L 18.87,23.61 H 17.17 L 15.2,31.76 H 16.74 L 16.99,30.38 H 18.93 Z M 16.68,31.68 L 16.93,30.3 H 18.99 L 19.27,31.68 H 20.75 L 18.81,23.68 H 17.23 L 15.31,31.68 H 16.68 Z M 18.78,29 H 17.12 L 17.78,25.54 H 18.04 L 18.77,29 Z M 28.42,24.64 H 29.92 V 23.36 H 27.1 V 31.36 H 29.93 V 30.08 H 28.43 V 27.97 H 29.92 V 26.7 H 28.43 V 24.64 Z M 29.99,26.62 V 28.05 H 28.5 V 30 H 30 V 31.45 H 27 V 23.28 H 30 V 24.72 H 28.5 V 26.62 H 30 Z M 32.84,31.34 V 24.64 H 31.44 V 32.64 H 34.56 V 31.34 H 32.84 Z M 34.64,31.26 V 32.72 H 31.35 V 24.55 H 32.92 V 31.25 H 34.64 Z M 12.04,26.84 H 11.5 V 24.53 H 12.1 C 12.4,24.57 12.98,24.85 12.98,25.69 C 12.98,26.54 12.35,26.81 12.04,26.84 Z M 18.67,28.94 L 17.97,25.62 H 17.85 L 17.22,28.94 H 18.67 Z" fill-rule="evenodd"/>
<path d="M 33.99,21.985 V 23.46 H 36.6 L 33.8,30 H 38.79 V 28.74 H 36.1 L 39,22 H 34 Z M 42.5,31.85 C 44.12,31.85 45.44,30.2 45.44,27.6 C 45.44,25.25 44.61,23.35 42.49,23.35 C 40.54,23.35 39.55,25.25 39.55,27.6 S 40.87,31.85 42.49,31.85 Z M 42.5,30.31 C 43.22,30.31 43.8,29.23 43.8,27.53 C 43.8,25.99 43.44,24.74 42.5,24.74 C 41.63,24.74 41.19,25.99 41.19,27.53 C 41.19,29.06 41.77,30.31 42.49,30.31 Z M 52,27.25 C 52,29.86 50.68,31.51 49.05,31.51 C 47.43,31.51 46.11,29.61 46.11,27.25 C 46.11,24.91 47.1,23 49.05,23 C 51.17,23 52,24.9 52,27.25 Z M 50.36,27.18 C 50.36,28.88 49.78,29.97 49.06,29.97 C 48.33,29.97 47.75,28.72 47.75,27.18 S 48.19,24.4 49.05,24.4 C 49.99,24.4 50.36,25.64 50.36,27.18 Z" fill="red" fill-rule="evenodd"/>
<path d="M 38.99,21.985 H 34 V 23.46 H 36.6 L 33.8,30 H 38.79 V 28.74 H 36.1 L 39,22 Z M 38.7,28.82 H 35.97 L 38.87,22.08 H 34.08 V 23.38 H 36.73 L 33.91,29.94 H 38.7 V 28.82 Z M 44.51,30.66 A 5.2,5.2 0 0,0 45.36,27.6 C 45.36,26.43 45.16,25.38 44.69,24.63 A 2.42,2.42 0 0,0 42.49,23.43 C 41.55,23.43 40.84,23.88 40.36,24.63 C 39.88,25.39 39.63,26.43 39.63,27.6 C 39.63,28.76 39.96,29.8 40.48,30.56 C 41,31.31 41.72,31.77 42.49,31.77 C 43.28,31.77 43.99,31.37 44.51,30.66 Z M 43.49,29.59 C 43.25,30.09 42.9,30.39 42.49,30.39 C 42.09,30.39 41.74,30.04 41.49,29.53 A 4.84,4.84 0 0,1 41.11,27.53 C 41.11,26.75 41.21,26.04 41.44,25.53 C 41.66,25.01 42.01,24.66 42.49,24.66 C 43.01,24.66 43.36,25.01 43.58,25.53 C 43.79,26.04 43.88,26.75 43.88,27.53 A 4.8,4.8 0 0,1 43.49,29.59 Z M 51.07,30.3 A 5.2,5.2 0 0,0 51.92,27.24 C 51.92,26.08 51.72,25.03 51.25,24.28 A 2.42,2.42 0 0,0 49.05,23.08 C 48.11,23.08 47.4,23.53 46.92,24.28 S 46.19,26.08 46.19,27.24 S 46.52,29.45 47.04,30.21 C 47.56,30.96 48.28,31.41 49.05,31.41 C 49.84,31.41 50.55,31.02 51.07,30.31 Z M 50.05,29.24 C 49.81,29.74 49.46,30.04 49.05,30.04 C 48.65,30.04 48.29,29.68 48.05,29.17 A 4.84,4.84 0 0,1 47.67,27.17 C 47.67,26.4 47.77,25.69 48,25.17 C 48.22,24.66 48.57,24.31 49.05,24.31 C 49.57,24.31 49.92,24.66 50.14,25.17 C 50.35,25.69 50.44,26.4 50.44,27.17 A 4.8,4.8 0 0,1 50.05,29.24 Z M 45.44,27.6 C 45.44,30.2 44.12,31.85 42.49,31.85 C 40.87,31.85 39.55,29.95 39.55,27.6 S 40.54,23.35 42.49,23.35 C 44.61,23.35 45.44,25.25 45.44,27.6 Z M 43.8,27.53 C 43.8,29.23 43.22,30.31 42.5,30.31 C 41.77,30.31 41.19,29.06 41.19,27.53 C 41.19,25.99 41.63,24.74 42.49,24.74 C 43.44,24.74 43.8,25.99 43.8,27.53 Z M 49.05,31.5 C 50.68,31.5 52,29.85 52,27.24 C 52,24.9 51.17,23 49.05,23 C 47.1,23 46.11,24.9 46.11,27.24 C 46.11,29.59 47.43,31.5 49.05,31.5 Z M 49.05,29.96 C 49.78,29.96 50.36,28.88 50.36,27.17 C 50.36,25.63 49.99,24.39 49.06,24.39 C 48.19,24.39 47.75,25.63 47.75,27.17 C 47.75,28.71 48.33,29.96 49.05,29.96 Z" fill-rule="evenodd"/>
</svg>
