<?xml version="1.0" encoding="UTF-8"?>
<!-- generated by Finnhub -->
<svg viewBox="0 0 55.5 55.5" xmlns="http://www.w3.org/2000/svg">
<path d="M 0,0 H 55.5 V 55.5 H 0 Z" fill="rgb(28, 133, 71)"/>
<path d="M 25.110999999999997,45.985 S 27.231,43.425 26.004,41.437 C 25.094,39.961 22.179,40.274 20.577,39.828 C 17.35,38.927 14.281,35.64 14.9,32.765 C 14.9,32.765 19.567,38.957 25.754,36.667 C 25.021,36.807 21.144,35.262 18.481,32.785 C 15.285,29.812 12.717,26.311 14.69,20.377 C 14.69,20.377 14.896,30.458 25.974,32.874 C 25.974,32.874 11.892,26.117 17.13,12.838 C 17.13,12.838 17.893,20.211 20.392,22.283 C 20.392,22.283 15.965,15.757 20.54,9 C 20.54,9 19.165,18.05 24.234,22.249 C 28.139,25.484 30.737,25.794 33.308,29.56 C 35.298,32.472 35.542,35.827 32.036,39.794 C 32.036,39.794 33.109,32.174 25.472,27.964 C 25.472,27.961 35.865,38.828 25.122,46 Z M 36.556,23.249 C 36.167,23.525 35.92,23.848 36.009,23.97 C 36.099,24.093 36.487,23.967 36.875,23.691 C 37.264,23.416 37.511,23.092 37.422,22.97 C 37.332,22.847 36.948,22.973 36.556,23.249 Z M 42,23.212 C 41.543,23.419 41.13,23.65 40.756,23.902 A 5.582,5.582 0 0,0 39.8,24.63 C 39.749,24.678 39.704,24.729 39.656,24.78 C 37.463,26.872 36.906,29.917 35.982,32.571 C 35.982,32.568 35.978,32.564 35.978,32.561 C 35.861,31.261 35.349,30.04 34.562,28.887 A 12.626,12.626 0 0,0 32.187,26.247 A 53.604,53.604 0 0,0 32.112,26.172 C 32.422,25.76 32.947,25.082 33.394,24.617 C 33.93,24.059 35.26,22.933 35.48,22.752 C 35.7,22.575 36.841,21.871 37.79,22.33 C 38.436,21.878 39.635,21.32 40.316,21.623 C 40.986,21.919 41.502,22.351 42,23.211 Z" fill="rgb(254, 254, 253)"/>
</svg>
