<?xml version="1.0" encoding="UTF-8"?>
<!-- generated by Finnhub -->
<svg viewBox="0 0 55.5 55.5" xmlns="http://www.w3.org/2000/svg">
<path d="M 0,0 H 55.5 V 55.5 H 0 Z" fill="rgb(0, 99, 155)"/>
<path d="M 26.99,25.724999999999998 V 34 H 22 V 27.04 C 22,24.14 20.34,22 17.54,22 H 10 V 17 H 18.55 C 23.22,17 27,20.91 27,25.74 Z M 10,24 V 32.56 A 8.45,8.45 0 0,0 18.45,41 H 27 V 36 H 19.46 C 16.66,36 15,34.1 15,31.3 V 24 H 10 Z M 46,24 V 32.56 A 8.45,8.45 0 0,1 37.55,41 H 29 V 36 H 36.54 C 39.34,36 41,34.1 41,31.3 V 24 H 46 Z M 29,34 V 25.74 C 29,20.9 32.78,17 37.45,17 H 46 V 22 H 38.46 C 35.66,22 34,24.14 34,27.04 V 34 H 29 Z" fill="rgb(254, 254, 253)"/>
</svg>
