<?xml version="1.0" encoding="UTF-8"?>
<!-- generated by Finnhub -->
<svg viewBox="0 0 55.5 55.5" xmlns="http://www.w3.org/2000/svg">
<path d="M 0,0 H 55.5 V 55.5 H 0 Z" fill="rgb(239, 242, 248)"/>
<path d="M 32.230000000000004,43.365 C 32.24,36.91 35.41,32.08 37,30.5 C 31.2,32.44 26.4,40.01 24.72,43.54 C 25.26,43.69 26.68,44 28.02,44 C 29.72,44 31.72,43.59 32.24,43.38 Z" fill="rgb(65, 147, 55)"/>
<path d="M 17.799999999999997,40.394999999999996 C 24.59,32.85 31.86,30.68 35,30.54 C 26.14,34.39 22.96,41.78 22.17,42.97 A 17.9,17.9 0 0,1 17.81,40.41 Z" fill="rgb(65, 147, 55)"/>
<path d="M 13.76,35.305 C 19.55,31.85 29.1,30.66 33,30.5 A 47.02,47.02 0 0,0 16.1,38.64 A 17.75,17.75 0 0,1 13.77,35.34 Z M 27,30.5 C 19.15,30.5 13.86,30.93 12.26,31.14 C 12.39,31.68 12.76,32.98 13.19,33.82 C 16.8,32.04 25.16,30.71 27,30.5 Z M 25,30 L 12.16,29.8 C 11.96,28.53 11.99,27.34 12.03,26.9 L 25,30 Z M 25,28 L 12.23,25.2 C 12.53,23.48 13.1,22.1 13.34,21.63 L 25,28 Z M 17.63,15.77 L 26.06,27 C 22.64,24.81 15.29,20 14.5,19.46 C 14.9,18.36 16.76,16.55 17.63,15.77 Z M 27.63,25 L 20.23,13.99 C 21.85,12.87 24.63,12.19 25.81,12 L 27.63,25 Z M 30,12 V 25 C 31.48,21.26 34.27,13.9 34.51,13.3 C 33.12,12.59 30.92,12.14 30,12 Z M 38.68,16 L 32,26 C 34.85,23.62 40.45,19.06 41,18.56 A 14.08,14.08 0 0,0 38.68,16 Z" fill="rgb(65, 147, 55)"/>
<path d="M 43.61,24.224999999999998 L 33,28 L 44,26.85 L 43.62,24.25 Z" fill="rgb(237, 48, 33)"/>
</svg>
