<?xml version="1.0" encoding="UTF-8"?>
<!-- generated by Finnhub -->
<svg viewBox="0 0 55.5 55.5" xmlns="http://www.w3.org/2000/svg">
<path d="M 0,0 H 55.5 V 55.5 H 0 Z" fill="rgb(1, 45, 108)"/>
<path d="M 11.99,20.985 V 30.51 C 12,32.714 12.756,33.688 14.518,33.688 C 16.364,33.688 17,32.836 17,30.511 V 21 H 22 V 30.51 C 22,33.013 21.479,34.389 20.06,35.617 C 18.642,36.846 16.849,37.419 14.57,37.419 C 12.292,37.419 10.342,36.82 8.966,35.643 C 7.469,34.389 7,33.166 7,30.51 V 21 H 12 Z M 35.999,26.4 A 4.008,4.008 0 0,0 34.537,24.782 A 3.894,3.894 0 0,0 32.462,24.187 C 29.977,24.187 28.108,26.219 28.108,28.943 C 28.108,32.099 29.952,33.871 32.75,33.871 C 34.574,33.871 35.999,33.339 36.287,32.001 H 32 V 28.001 H 41 V 28.891 C 41,34.08 37.312,37.661 32.452,37.661 C 27.714,37.661 24.001,34.106 24.001,29.123 A 8.78,8.78 0 0,1 25.761,23.744 A 8.47,8.47 0 0,1 30.404,20.631 A 8.32,8.32 0 0,1 35.937,21.118 A 8.556,8.556 0 0,1 39.99,24.997 L 35.999,26.4 Z M 48,21 H 43 V 37 H 48 V 21 Z" fill="rgb(254, 254, 253)"/>
</svg>
