<?xml version="1.0" encoding="UTF-8"?>
<!-- generated by Finnhub -->
<svg viewBox="0 0 55.5 55.5" xmlns="http://www.w3.org/2000/svg">
<path d="M 0,0 H 55.5 V 55.5 H 0 Z" fill="url(#a)"/>
<path d="M 22.99,15.985 H 22 V 27 H 23 V 25.65 A 3.99,3.99 0 0,0 30,23 A 4,4 0 0,0 23,20.35 V 16 Z M 29,23 A 3,3 0 1,1 23,23 A 3,3 0 0,1 29,23 Z M 8,19 V 23.9 C 8,25.62 9.34,27 10.98,27 H 12.02 C 12.78,27 13.47,26.7 14,26.22 V 27 H 15 V 24 V 19 H 14 V 23.4 A 2.6,2.6 0 0,1 11.47,26 A 2.55,2.55 0 0,1 9,23.4 V 19 H 8 Z M 48,27 V 22.1 C 48,20.38 46.66,19 45.02,19 H 43.98 C 43.22,19 42.53,19.3 42,19.78 V 19 H 41 V 27 H 42 V 22.6 A 2.6,2.6 0 0,1 44.53,20 A 2.55,2.55 0 0,1 47,22.6 V 27 H 48 Z M 17,27 V 19 H 18 V 20.46 A 2.8,2.8 0 0,1 20.5,19 V 20 C 19.68,19.91 18,20.4 18,22.54 V 27 H 17 Z M 39,19 H 38 V 20.35 A 3.99,3.99 0 0,0 31,23 A 4,4 0 0,0 38,25.65 V 27 H 39 V 19 Z M 35,26 A 3,3 0 1,1 35,20 A 3,3 0 0,1 35,26 Z" fill="rgb(254, 254, 253)"/>
<path d="M 30.99,29.985 H 32 V 37.5 C 32,38.53 30.8,41 28.1,41 C 25.43,41 24.47,39.38 24.33,38.57 H 25.58 C 25.83,39.07 26.7,40.07 28.11,40.07 C 29.87,40.07 31,38.22 31,37.5 V 36.65 A 3.99,3.99 0 0,1 24,34 A 4,4 0 0,1 31,31.35 V 30 Z M 25,34 A 3,3 0 1,0 31,34 A 3,3 0 0,0 25,34 Z M 35,30 H 34 V 38 H 35 V 33.54 C 35,31.39 36.68,30.91 37.5,31 V 30 A 2.8,2.8 0 0,0 35,31.46 V 30 Z M 42,38 A 4,4 0 1,0 42,30 A 4,4 0 0,0 42,38 Z M 42,37 A 3,3 0 1,0 42,31 A 3,3 0 0,0 42,37 Z" fill="rgb(192, 215, 45)" fill-rule="evenodd"/>
<defs>
<linearGradient id="a" x1="10.42" x2="68.15" y1="9.71" y2="76.02" gradientUnits="userSpaceOnUse">
<stop stop-color="rgb(25, 29, 31)" offset="0"/>
<stop stop-color="rgb(5, 5, 8)" offset="1"/>
</linearGradient>
</defs>
</svg>
