<?xml version="1.0" encoding="UTF-8"?>
<!-- generated by Finnhub -->
<svg viewBox="0 0 55.5 55.5" xmlns="http://www.w3.org/2000/svg">
<path d="M 0,0 H 55.5 V 55.5 H 0 Z" fill="rgb(239, 242, 248)"/>
<path d="M 4.03,29.015 L 5.39,24 H 7.65 C 7.35,25.12 6.72,27.49 6.6,28.06 C 6.44,28.77 6.66,29.03 7.23,29.03 C 7.69,29.03 8.03,28.53 8.13,28.27 L 9.26,24 H 11.56 C 11.19,25.4 10.42,28.36 10.26,28.89 C 10.06,29.55 9.23,31 6.4,31 C 4.13,31 3.88,29.69 4.04,29.03 Z M 10.22,31 L 12,24 H 14.36 L 12.99,29 H 15.59 L 15.1,31 H 10.23 Z M 14.95,26 L 15.5,24 H 21.42 L 20.86,26 H 19.1 L 17.79,31 H 15.5 L 16.75,26 H 14.95 Z M 21.77,24 L 19.92,31 H 22.14 L 23.5,26 H 24.36 C 24.51,26 24.81,26.05 24.81,26.45 C 24.81,27.29 23.84,27.15 23.36,27.05 V 31 H 27.59 L 30.58,25.87 L 30.64,28 H 29.98 L 28.98,30 H 30.7 L 30.73,31 H 33.16 L 32.46,24 H 29.71 L 25.69,30.2 L 25.52,28.05 C 26.07,27.79 27.17,26.93 27.17,25.57 C 27.17,24.21 26.07,23.96 25.52,24 H 21.77 Z" fill="rgb(34, 30, 30)"/>
<path d="M 33.27,30.985 L 35.06,24 H 36.98 L 35.65,29 H 38.25 L 37.85,31 H 33.28 Z M 38.12,31 L 39.27,27 H 41.09 L 39.95,31 H 38.12 Z" fill="rgb(146, 148, 150)"/>
<path d="M 41.300000000000004,25.985 H 39.47 L 39.98,24 H 41.81 L 41.31,26 Z" fill="rgb(201, 31, 46)"/>
<path d="M 40.550000000000004,30.985 L 42.36,24 H 46.87 L 46.38,26 H 43.65 L 43.4,27 H 45.71 L 45.23,29 H 42.88 L 42.37,31 H 40.56 Z M 45.57,31 L 47.41,24 H 52 L 51.49,26 H 48.66 L 48.52,26.5 H 50.77 L 50.28,28.5 H 47.96 L 47.82,29 H 50.63 L 50.17,31 H 45.57 Z" fill="rgb(146, 148, 150)"/>
</svg>
