<?xml version="1.0" encoding="UTF-8"?>
<!-- generated by Finnhub -->
<svg viewBox="0 0 55.5 55.5" xmlns="http://www.w3.org/2000/svg">
<path d="M 0,0 H 55.5 V 55.5 H 0 Z" fill="rgb(239, 242, 248)"/>
<path d="M 37.17,39.615 V 40 H 39.71 V 39.63 H 39.41 C 39.15,39.63 39,39.42 39,39.16 V 28.6 C 39,27.97 39.51,27.37 39.8,27.15 L 43.15,24.78 L 42.95,24.1 L 41.77,24.9 L 42.39,23.12 L 41.77,22.94 L 40.9,25.47 L 38.94,26.67 L 41.09,22.43 L 43.32,20.96 L 43.15,20.3 L 41.85,20.85 L 43.15,18.45 L 42.46,18.15 L 41.63,19.72 L 41.53,18.68 L 40.9,18.74 V 21.02 L 38.94,25.31 L 38.82,24.34 L 39.24,23.31 L 40.21,21.33 L 39.51,21.07 L 39.15,21.91 L 38.73,23.48 L 37.91,23.57 L 38.34,26.73 L 38.1,27.07 L 37.07,26.1 L 36.71,24.97 L 37.32,22.3 L 38.5,22.52 L 38.02,18.58 L 39.17,17.36 L 38.95,16.81 L 37.97,17.64 L 37.41,15.14 L 36.75,15.36 L 37.63,20.61 L 36.71,19.83 L 36.12,20.3 L 36.86,21.07 L 36.29,23.83 L 35.44,21.33 L 34.87,21.55 L 36.03,25.1 L 32.65,22.16 L 32.19,22.56 L 36.89,26.92 L 34.49,26.01 L 34.35,24.77 L 33.87,24.69 V 25.79 L 32.82,25.32 V 26.1 L 37.07,27.55 C 37.77,27.8 38.01,28.29 38,28.5 V 39.16 C 38,39.42 37.72,39.63 37.46,39.63 H 37.18 Z"/>
<path d="M 36.190000000000005,16.205 A 2.58,2.58 0 0,0 38.74,13.82 C 38.93,14.15 39.24,14.39 39.61,14.49 A 1.63,1.63 0 0,0 38.48,16.33 A 0.38,0.38 0 0,0 38.22,16.23 A 0.4,0.4 0 0,0 37.83,16.63 C 37.83,16.85 38.01,17.03 38.23,17.03 A 0.4,0.4 0 0,0 38.6,16.73 A 1.6,1.6 0 0,0 40.51,17.63 A 0.88,0.88 0 0,0 40.24,17.97 A 0.4,0.4 0 0,0 39.86,17.69 A 0.4,0.4 0 0,0 39.47,18.09 C 39.47,18.31 39.65,18.49 39.87,18.49 C 39.99,18.49 40.1,18.43 40.17,18.34 C 40.17,18.82 40.56,19.2 41.03,19.2 A 0.87,0.87 0 0,0 41.88,18.2 A 1.37,1.37 0 0,0 43.16,18.58 A 1.62,1.62 0 0,0 44.23,21.38 C 44.63,21.38 44.98,21.23 45.25,20.99 A 1.27,1.27 0 0,0 45.17,21.75 A 0.8,0.8 0 0,0 43.69,22.19 C 43.69,22.65 44.05,23.01 44.49,23.01 A 0.81,0.81 0 0,0 45.29,22.09 C 45.49,22.49 45.91,22.76 46.38,22.76 C 47.05,22.76 47.6,22.2 47.6,21.5 C 47.6,20.85 47.11,20.3 46.48,20.25 A 0.4,0.4 0 0,0 46.38,19.62 C 46.45,19.64 46.53,19.66 46.61,19.66 C 47.08,19.66 47.45,19.27 47.45,18.8 A 0.85,0.85 0 0,0 46.61,17.95 A 0.85,0.85 0 0,0 45.78,18.8 C 45.78,19.16 45.98,19.46 46.28,19.59 A 0.4,0.4 0 0,0 45.8,19.98 C 45.81,20.12 45.88,20.24 45.99,20.31 C 45.86,20.35 45.74,20.41 45.64,20.5 A 1.63,1.63 0 0,0 45.14,18.44 C 45.74,18.42 46.24,17.9 46.24,17.27 C 46.24,16.91 46.06,16.57 45.8,16.37 A 0.61,0.61 0 0,0 46.5,15.76 A 0.61,0.61 0 0,0 45.72,15.16 A 1.6,1.6 0 0,0 44.23,13.01 A 1.62,1.62 0 0,0 43.16,15.81 A 1.37,1.37 0 0,0 42.42,15.84 C 42.56,15.74 42.64,15.58 42.64,15.4 C 42.64,15.1 42.42,14.87 42.14,14.85 C 42.44,14.75 42.66,14.46 42.66,14.12 A 0.77,0.77 0 0,0 41.9,13.35 C 41.5,13.35 41.17,13.66 41.14,14.07 A 0.38,0.38 0 0,0 41.02,14.02 C 41.22,13.77 41.34,13.45 41.34,13.11 A 1.4,1.4 0 0,0 39.94,11.69 A 1.4,1.4 0 0,0 38.6,12.74 A 2.56,2.56 0 0,0 36.2,11 A 2.59,2.59 0 0,0 33.63,13.61 C 33.63,14.49 34.06,15.27 34.71,15.75 A 1.17,1.17 0 0,0 33.81,15.76 A 0.67,0.67 0 0,0 33.41,14.89 A 0.4,0.4 0 0,0 33.63,14.53 A 0.4,0.4 0 0,0 33.24,14.13 A 0.4,0.4 0 0,0 32.85,14.53 C 32.85,14.68 32.93,14.8 33.05,14.87 A 0.66,0.66 0 0,0 32.55,15.51 A 0.65,0.65 0 0,0 33.31,16.16 A 1.23,1.23 0 0,0 33.73,17.96 A 0.78,0.78 0 0,0 33.1,18.56 A 0.86,0.86 0 0,0 32.48,18.26 C 32.85,18.01 33.08,17.58 33.08,17.09 C 33.08,16.3 32.46,15.66 31.68,15.66 C 30.91,15.66 30.28,16.3 30.28,17.09 C 30.28,17.65 30.6,18.13 31.05,18.36 A 0.63,0.63 0 0,0 30.83,18.32 C 30.47,18.32 30.18,18.62 30.18,18.98 C 30.18,19.35 30.48,19.64 30.83,19.64 C 31.19,19.64 31.48,19.34 31.48,18.98 A 0.66,0.66 0 0,0 31.15,18.41 A 1.37,1.37 0 0,0 31.86,18.51 A 0.9,0.9 0 0,0 31.73,19.65 A 1.77,1.77 0 0,0 29.6,21.4 A 1.77,1.77 0 0,0 31.58,23.18 C 31.38,23.33 31.25,23.58 31.25,23.85 C 31.25,24.31 31.62,24.69 32.07,24.69 C 32.53,24.69 32.9,24.31 32.9,23.85 C 32.9,23.41 32.55,23.05 32.12,23.01 C 32.43,22.86 32.69,22.61 32.87,22.32 C 32.93,22.57 33.15,22.76 33.41,22.76 A 0.57,0.57 0 0,0 33.97,22.07 C 34.09,22.17 34.24,22.25 34.39,22.29 A 0.58,0.58 0 0,0 34.14,22.77 C 34.14,23.09 34.39,23.34 34.7,23.34 C 35.01,23.34 35.26,23.09 35.26,22.77 C 35.26,22.55 35.16,22.37 34.98,22.27 A 1.15,1.15 0 0,0 35.54,20.49 A 1.45,1.45 0 0,0 37.29,19.05 C 37.29,18.42 36.89,17.88 36.34,17.67 C 36.49,17.57 36.6,17.39 36.6,17.19 A 0.57,0.57 0 0,0 36.03,16.62 A 0.58,0.58 0 0,0 35.63,17.61 C 35.16,17.67 34.76,17.99 34.56,18.41 A 0.79,0.79 0 0,0 34.3,18.09 A 1.22,1.22 0 0,0 35.05,15.95 C 35.39,16.13 35.78,16.22 36.19,16.22 Z M 44.23,16.23 C 44.64,16.23 45.02,16.07 45.3,15.81 C 45.31,15.95 45.37,16.07 45.45,16.17 A 1.12,1.12 0 0,0 44.14,16.62 A 1.43,1.43 0 0,0 43.84,16.18 C 43.97,16.21 44.1,16.23 44.24,16.23 Z M 44.33,18.16 C 44.24,18.07 44.16,17.96 44.1,17.86 C 44.03,17.98 43.94,18.1 43.84,18.2 A 1.55,1.55 0 0,1 44.34,18.16 Z M 34.43,19.26 C 34.47,19.56 34.6,19.84 34.8,20.06 A 1.1,1.1 0 0,0 34.23,20.13 A 0.73,0.73 0 0,0 34.05,19.49 A 0.77,0.77 0 0,0 34.43,19.26 Z M 40.57,14.51 A 1.56,1.56 0 0,0 40.39,14.46 L 40.56,14.38 A 0.42,0.42 0 0,0 40.57,14.51 Z M 33.55,21.18 C 33.55,21.35 33.58,21.51 33.65,21.66 A 0.55,0.55 0 0,0 33.09,21.71 A 1.84,1.84 0 0,0 32.5,20.05 C 32.63,20.04 32.74,20.01 32.85,19.95 V 20 A 0.7,0.7 0 0,0 33.65,20.7 C 33.58,20.85 33.55,21.02 33.55,21.2 Z M 33.33,19.31 H 33.31 H 33.33 Z M 40.88,17.46 C 41.35,17.18 41.66,16.66 41.66,16.06 C 41.66,15.54 41.43,15.09 41.08,14.79 A 0.4,0.4 0 0,0 41.3,14.59 C 41.44,14.77 41.66,14.89 41.9,14.89 A 0.55,0.55 0 0,0 41.57,15.4 A 0.54,0.54 0 0,0 42.2,15.94 A 1.43,1.43 0 0,0 41.53,17.61 A 0.85,0.85 0 0,0 40.88,17.46 Z M 43.48,25.44 C 44.1,25.44 44.59,24.94 44.59,24.32 C 44.59,24.12 44.54,23.92 44.44,23.75 C 44.5,23.79 44.57,23.81 44.64,23.81 C 44.81,23.81 44.94,23.71 45.01,23.56 V 23.58 C 45.01,24.03 45.37,24.4 45.81,24.4 C 46.26,24.4 46.61,24.03 46.61,23.58 A 0.81,0.81 0 0,0 45.81,22.76 A 0.8,0.8 0 0,0 45.03,23.36 A 0.4,0.4 0 0,0 44.65,23.01 A 0.4,0.4 0 0,0 44.27,23.53 A 1.09,1.09 0 0,0 43.19,23.23 A 1.45,1.45 0 0,0 42.29,20.71 C 41.5,20.71 40.87,21.35 40.87,22.14 A 1.42,1.42 0 0,0 42.73,23.5 A 1.13,1.13 0 0,0 43.49,25.44 Z M 39.48,18.32 C 39.48,18.74 39.19,19.09 38.81,19.18 A 0.4,0.4 0 0,1 38.61,19.92 A 0.4,0.4 0 0,1 38.22,19.52 A 0.4,0.4 0 0,1 38.42,19.18 A 0.87,0.87 0 0,1 37.75,18.32 C 37.75,17.84 38.14,17.45 38.61,17.45 C 39.09,17.45 39.47,17.84 39.47,18.32 Z M 30.85,24 A 0.4,0.4 0 0,0 31.25,23.6 A 0.4,0.4 0 0,0 30.85,23.2 A 0.4,0.4 0 0,0 30.46,23.6 C 30.46,23.82 30.64,24 30.86,24 Z M 40.96,24 A 0.4,0.4 0 0,0 41.36,23.6 A 0.4,0.4 0 0,0 40.96,23.2 A 0.4,0.4 0 0,0 40.57,23.6 C 40.57,23.82 40.75,24 40.97,24 Z M 32,26.95 C 32.62,26.95 33.11,26.45 33.11,25.81 C 33.11,25.19 32.61,24.68 32.01,24.68 C 31.39,24.68 30.89,25.18 30.89,25.81 C 30.89,26.44 31.39,26.95 32,26.95 Z M 35.23,24.5 C 35.23,25.12 34.73,25.63 34.11,25.63 C 33.5,25.63 33.01,25.13 33.01,24.5 C 33.01,23.87 33.5,23.36 34.11,23.36 C 34.73,23.36 35.23,23.86 35.23,24.5 Z M 37.91,21.9 V 21.87 C 37.91,21.24 37.41,20.73 36.79,20.73 C 36.18,20.73 35.69,21.24 35.69,21.87 C 35.69,22.49 36.18,23 36.79,23 C 36.99,23 37.16,22.96 37.31,22.87 L 37.28,23.17 C 37.28,24.07 37.99,24.8 38.88,24.8 A 1.6,1.6 0 0,0 40.46,23.18 C 40.46,22.28 39.75,21.56 38.87,21.56 C 38.51,21.56 38.17,21.68 37.91,21.89 Z M 41.46,20.37 A 1.3,1.3 0 0,1 40.16,21.69 C 39.46,21.69 38.87,21.09 38.87,20.37 C 38.87,19.64 39.45,19.05 40.17,19.05 C 40.88,19.05 41.47,19.64 41.47,20.37 Z" fill="rgb(1, 174, 168)" fill-rule="evenodd"/>
<path d="M 19.36,25.985 A 0.6,0.6 0 0,1 18.77,26.6 A 0.6,0.6 0 0,1 18.16,26 A 0.6,0.6 0 0,1 18.76,25.38 C 19.09,25.38 19.36,25.66 19.36,25.99 Z M 4,26.31 V 26 H 7.33 V 26.32 H 6.69 C 6.39,26.32 6,26.56 6,26.85 V 31.49 C 6,32.16 6.56,33.49 8.23,33.49 C 10.31,33.49 10.5,31.68 10.5,31.19 V 26.85 C 10.5,26.55 10.24,26.32 9.95,26.32 H 9.41 V 26 H 12.11 V 26.32 H 11.51 C 11.23,26.32 10.99,26.56 10.99,26.85 V 31.31 C 11.02,32.21 10.51,34 8.23,34 C 5.37,34 5,32.44 5,31.31 V 26.85 C 5,26.55 4.85,26.32 4.56,26.32 H 4 Z M 14.75,28 C 14.05,28 13.37,28.65 13,29.12 V 28.01 H 12.84 L 11.24,28.68 V 28.95 C 11.91,28.62 11.99,29.09 12,29.35 V 33.15 C 12,33.42 11.89,33.64 11.63,33.64 H 11.25 V 34 H 13.93 V 33.64 H 13.55 C 13.29,33.64 13,33.42 13,33.14 V 29.52 C 13.29,29.18 13.74,28.79 14.24,28.79 C 14.91,28.79 15,29.49 15,29.84 V 33.14 C 15,33.41 14.86,33.64 14.6,33.64 H 14.24 V 34 H 16.72 V 33.63 H 16.52 C 16.27,33.63 16,33.41 16,33.13 V 29.96 C 16,29.19 15.77,28 14.75,28 Z M 20,28 V 28.3 C 20.5,28.3 20.73,28.58 20.78,28.72 L 22.79,34 H 23.01 L 25,28.72 C 25.19,28.27 25.53,28.25 25.68,28.3 V 28 H 23.88 V 28.3 H 24.22 C 24.6,28.3 24.51,28.77 24.42,29 L 23.18,32.34 C 22.82,31.44 22.06,29.53 21.89,29.01 C 21.72,28.49 21.99,28.32 22.15,28.31 H 22.47 V 28 H 20 Z M 17,28.94 V 28.67 L 18.74,28 H 19 V 33.14 C 19,33.41 19.22,33.64 19.49,33.64 H 19.89 V 34 H 17 V 33.64 H 17.47 C 17.74,33.64 18,33.41 18,33.14 V 29.35 C 18,29.08 17.7,28.61 17,28.95 Z M 30.12,28.94 V 28.67 L 31.72,28 H 32 V 29.14 C 32.25,28.63 32.7,28 33.3,28 C 33.98,27.96 34.06,28.52 34.02,28.8 C 33.99,28.98 33.85,29.34 33.52,29.34 C 33.2,29.34 32.82,29.01 32.68,28.84 C 32.54,28.92 32.24,29.18 32,29.67 V 33.14 C 32,33.41 32.16,33.64 32.42,33.64 H 32.8 V 34 H 30.12 V 33.64 H 30.5 A 0.5,0.5 0 0,0 31,33.14 V 29.35 C 31,29.08 30.78,28.61 30.12,28.95 Z M 30.16,30.5 H 26.38 C 26.38,32.31 27.3,33 28.4,33 C 29.3,33 30,32.23 30.25,31.79 L 30.45,31.95 C 30.18,32.63 29.29,34 27.89,34 C 26.14,34 25.53,32.53 25.53,31.14 C 25.53,29.76 26.04,28 28.05,28 C 29.65,28 30.13,29.73 30.15,30.5 Z M 28.94,30 H 26.37 C 26.45,29.52 26.84,28.42 27.75,28.42 C 28.65,28.42 28.92,29.52 28.95,30 Z M 36.91,29.88 H 37.17 V 28 H 36.91 C 36.88,28.07 36.78,28.22 36.64,28.22 A 0.76,0.76 0 0,1 36.43,28.17 C 36.23,28.1 35.93,28 35.43,28 C 34.69,28 33.9,28.37 33.9,29.6 C 33.9,30.6 34.78,31.15 35.22,31.3 C 35.69,31.5 36.64,32.07 36.64,32.8 C 36.64,33.54 35.95,33.67 35.61,33.64 C 35.11,33.54 34.12,33.06 34.12,31.88 H 33.9 V 33.93 H 34.2 C 34.2,33.88 34.23,33.78 34.38,33.78 C 34.45,33.78 34.56,33.81 34.7,33.84 C 34.94,33.91 35.26,34 35.6,34 C 36.15,34 37.54,33.76 37.54,32.2 C 37.54,31.24 36.44,30.61 35.9,30.41 C 35.46,30.29 34.57,29.85 34.57,29.07 C 34.59,28.82 34.84,28.31 35.61,28.31 C 36.57,28.31 36.85,29.57 36.91,29.88 Z M 39.23,28.31 V 28.51 H 40 V 32.58 C 40,33.13 40.16,34 41.1,34 C 41.85,34 42.4,33.35 42.58,33.03 L 42.38,32.83 C 42.3,33.01 42.03,33.35 41.61,33.35 C 41.18,33.35 41.03,32.84 41,32.58 V 28.52 H 42.58 V 28 H 41 V 26.37 L 39.23,28.31 Z M 46.93,28 V 28.2 H 47.29 C 47.55,28.2 47.54,28.56 47.5,28.74 L 46.2,31.95 A 67.6,67.6 0 0,1 44.66,28.71 C 44.52,28.31 45.1,28.2 45.4,28.19 V 28 H 43.02 V 28.38 C 43.26,28.38 43.4,28.55 43.43,28.63 L 45.72,33.11 L 45.26,34.23 C 45.12,34.57 44.82,34.98 44.48,34.98 C 44.34,34.98 44.28,34.94 44.2,34.89 C 44.1,34.83 43.98,34.75 43.62,34.75 C 43.12,34.75 43,35.15 43,35.34 C 43,35.9 43.55,36.01 43.83,36 C 44.89,36 45.5,35 45.67,34.5 L 48.05,28.74 C 48.17,28.44 48.46,28.26 48.59,28.21 H 49 V 28 H 46.93 Z" fill-rule="evenodd"/>
<path d="M 19.99,33.985 V 34.27 H 20.46 C 20.76,34.27 21,34.52 21,34.81 V 41.24 C 21,41.54 20.77,41.78 20.46,41.78 H 20 V 42 H 23.88 C 25.05,42 26.93,41.58 26.93,39.9 C 26.93,38.55 25.82,38 25.26,37.9 C 25.69,37.78 26.55,37.28 26.55,36.26 C 26.55,34.49 24.77,34.02 23.88,34 H 20 Z M 22,37.58 V 34.58 C 22.19,34.54 22.7,34.44 23.28,34.44 C 23.99,34.44 25.5,34.74 25.5,36.21 C 25.5,37.67 23.65,37.82 22,37.58 Z M 22,41.48 V 38.28 C 22.2,38.23 22.75,38.13 23.36,38.13 C 24.13,38.13 25.74,38.45 25.74,40.02 C 25.74,41.58 23.77,41.74 22,41.48 Z M 27.22,35.44 C 27.22,35.9 27.57,36.03 27.74,36.03 C 28.27,36.03 28.28,35.46 28.22,35.18 C 28.2,34.92 28.35,34.38 29.07,34.38 C 29.8,34.38 29.99,34.99 30,35.3 V 36.02 C 29.55,36.19 28.75,36.52 28.18,36.8 C 27.36,37.2 26.99,37.73 26.99,38.6 C 26.99,39.46 27.88,39.87 28.3,39.87 C 28.73,39.87 29.2,39.67 29.62,39.27 L 30,38.9 V 39 C 30,39.78 30.62,40.01 31.09,40.01 H 33.94 V 39.63 H 33.58 C 33.14,39.63 32.99,39.3 33,39.13 V 35.38 C 33.31,35.05 33.73,34.76 34.18,34.76 C 34.93,34.76 35.02,35.5 35,35.88 V 39.05 C 35,39.37 34.82,39.62 34.51,39.62 H 34.18 V 40 H 36.75 V 39.61 H 36.62 C 36.32,39.61 36,39.36 36,39.04 V 35.87 C 36,35.21 35.91,34 34.75,34 C 34.03,34 33.39,34.5 33,34.9 V 34 H 32.73 L 31.19,34.55 V 34.85 C 31.87,34.56 32.01,35.03 31.99,35.29 V 38.61 C 31.99,38.99 31.83,39.24 31.64,39.39 C 31.18,39.37 31.01,39.09 31,38.96 V 35.5 C 31,34.74 30.66,34 29.2,34 S 27.22,34.86 27.22,35.44 Z M 29.01,36.89 L 30,36.39 V 38.49 C 29.65,38.8 29.19,39.16 28.9,39.16 C 28.4,39.16 28,38.66 28,38.19 S 28.35,37.21 29,36.89 Z M 39,36.77 V 37.55 L 39.5,37.02 L 40.82,39 C 40.96,39.22 41.05,39.65 40.33,39.65 V 40 H 43.03 V 39.64 H 42.7 C 42.57,39.59 42.22,39.35 41.84,38.78 C 41.49,38.26 40.68,36.98 40.24,36.28 C 40.91,35.58 41.59,34.91 41.86,34.68 C 42.31,34.3 42.63,34.31 42.73,34.38 V 34 H 40.08 V 34.37 C 40.84,34.37 40.75,34.85 40.61,35.09 L 39,36.77 Z" fill="rgb(1, 173, 167)"/>
</svg>
