<?xml version="1.0" encoding="UTF-8"?>
<!-- generated by Finnhub -->
<svg viewBox="0 0 55.5 55.5" xmlns="http://www.w3.org/2000/svg">
<path d="M 0,0 H 55.5 V 55.5 H 0 Z" fill="rgb(239, 242, 248)"/>
<circle cx="16" cy="21" r="2" fill="rgb(79, 176, 222)"/>
<circle cx="40" cy="21" r="2" fill="rgb(79, 176, 222)"/>
<circle cx="21" cy="16" r="2" fill="rgb(79, 176, 222)"/>
<circle cx="35" cy="16" r="2" fill="rgb(79, 176, 222)"/>
<circle cx="28" cy="14" r="2" fill="rgb(79, 176, 222)"/>
<circle cx="28" cy="28" r="2" fill="rgb(79, 176, 222)"/>
<circle cx="24" cy="22" r="2" fill="rgb(79, 176, 222)"/>
<circle cx="31" cy="22" r="2" fill="rgb(79, 176, 222)"/>
<circle cx="21" cy="28" r="2" fill="rgb(79, 176, 222)"/>
<circle cx="35" cy="28" r="2" fill="rgb(79, 176, 222)"/>
<circle cx="24" cy="34" r="2" fill="rgb(79, 176, 222)"/>
<circle cx="31" cy="34" r="2" fill="rgb(79, 176, 222)"/>
<circle cx="28" cy="42" r="2" fill="rgb(79, 176, 222)"/>
<circle cx="21" cy="40" r="2" fill="rgb(79, 176, 222)"/>
<circle cx="35" cy="40" r="2" fill="rgb(79, 176, 222)"/>
<circle cx="16" cy="34" r="2" fill="rgb(79, 176, 222)"/>
<circle cx="39" cy="34" r="2" fill="rgb(79, 176, 222)"/>
<circle cx="14" cy="28" r="2" fill="rgb(79, 176, 222)"/>
<circle cx="42" cy="28" r="2" fill="rgb(79, 176, 222)"/>
</svg>
