<?xml version="1.0" encoding="UTF-8"?>
<!-- generated by Finnhub -->
<svg viewBox="0 0 55.5 55.5" xmlns="http://www.w3.org/2000/svg">
<path d="M 0,0 H 55.5 V 55.5 H 0 Z" fill="rgb(239, 242, 248)"/>
<path d="M 34.120000000000005,45.175 C 34.23,44.91 34.37,44.65 34.56,44.42 C 34.76,44.5 34.96,44.54 35.18,44.54 C 35.9,44.54 36.16,43.91 36.3,42.84 C 36.43,41.79 36.7,41.29 37.03,41.29 C 37.53,41.29 38,42.3 38.8,42.3 A 1.07,1.07 0 0,0 39.56,41.93 A 1.22,1.22 0 0,1 40.36,42.67 C 40.5,42.48 40.58,42.26 40.59,42.02 A 1.41,1.41 0 0,0 40,41.02 C 40.03,39.99 39.35,39.89 38.78,39.8 C 38.21,39.71 37.82,39.65 37.82,39.1 C 37.82,37.87 39.68,38.77 39.78,37.22 C 39.32,37.44 38.9,37.29 38.41,37.07 C 39.49,36.93 39.94,36.77 40.03,36.03 A 1.64,1.64 0 0,1 38.66,35.76 C 39.21,35.62 40.15,35.29 39.88,34.53 A 1.3,1.3 0 0,1 39.08,34.47 C 38.77,34.36 38.44,34.31 38.12,34.33 C 37.74,33.63 37.06,33.51 36.35,33.51 H 35.32 C 34.34,33.51 33.75,33.21 33.69,31.73 C 33.69,31.57 33.67,31.41 33.65,31.26 C 33.95,31.14 34.28,31.09 34.6,31.12 C 35.44,31.12 36.52,31.39 36.52,32.45 C 36.52,32.64 36.49,32.83 36.44,33.01 C 36.71,33.01 36.98,33.02 37.25,33.05 C 37.3,32.83 37.32,32.61 37.32,32.39 C 37.32,30.95 36.09,30.14 34.21,30.14 L 33.54,30.15 C 33.32,30.15 33.14,30.11 32.72,29.77 C 32.29,29.43 31.8,29.17 31.28,28.99 C 29.98,28.52 29.03,28.13 28.48,26.82 C 29.84,26.67 32.72,28 33.91,29.71 C 34.41,28.97 34.07,28.11 33.21,26.87 C 34.38,27.57 35.46,28.4 36.43,29.36 C 36.88,28.81 36.57,27.94 35.06,26.44 C 36.52,26.89 37.94,27.46 39.31,28.14 C 39.57,27.28 38.69,26.35 36.69,25.38 C 40.72,25.38 42.72,24.72 42.65,23.48 C 40.21,23.65 38.84,23.71 37.6,23.68 C 41.56,22.21 43.35,20.74 42.94,19.41 A 61.35,61.35 0 0,1 38.02,21.62 C 41.42,19 42.77,17.06 41.9,16 A 59.08,59.08 0 0,1 37.16,19.75 C 39.93,16.32 40.99,13.83 39.76,13.05 A 57.04,57.04 0 0,1 35.86,18.16 C 37.81,14.18 38.21,11.53 36.86,10.91 A 43.95,43.95 0 0,1 33.82,17.48 C 35,12.67 34.74,10.27 33.31,10 C 32.87,13.96 31.37,20.7 28.46,23.64 A 4.2,4.2 0 0,1 28.76,21.7 L 29.18,21.78 C 28.98,20.9 29.08,19.98 29.48,19.16 L 29.93,19.25 C 29.63,18.81 29.54,17.95 29.43,17.05 C 29.39,16.62 29.33,16.2 29.25,15.79 C 29.65,15.08 29.85,14.26 29.81,13.45 C 29.8,12.74 29.72,12.04 29.59,11.34 A 7.62,7.62 0 0,0 27.71,14.08 H 24.88 C 24.1,14.08 23.53,14.3 23.38,15.18 C 22.35,15.08 21.79,15.68 21.79,16.47 C 21.8,16.81 21.89,17.14 22.04,17.44 A 1.47,1.47 0 0,1 23.22,16.86 A 1.15,1.15 0 0,1 24.42,17.76 C 25.12,17.7 25.92,18.07 25.69,18.94 A 2.8,2.8 0 0,0 23.99,18.19 C 23.54,18.19 22.82,18.35 22.25,18.35 C 21.68,18.35 21.32,18.2 21.43,17.63 A 1.03,1.03 0 0,0 20.99,18.47 C 20.99,18.91 21.31,19.35 22.1,19.35 C 23.02,19.35 23.5,18.76 24.24,18.76 C 24.7,18.8 25.13,19.01 25.44,19.36 A 0.78,0.78 0 0,1 24.47,19.36 C 24.32,20.71 23.67,21.45 22.32,21.45 C 22.62,21.78 23.01,22.02 23.44,22.12 C 22.29,23.11 21.88,24.89 21.94,26.36 C 19.68,27.93 18.35,28.72 17.97,28.72 C 17.09,28.72 17.38,27.26 16.17,27.26 C 16.05,27.26 15.92,27.28 15.79,27.31 A 1.13,1.13 0 0,0 14.39,27.93 C 14.89,27.93 14.99,27.97 14.99,28.12 S 14.93,28.42 14.93,28.66 C 14.58,28.7 14.26,28.88 14.04,29.15 C 13.43,29.15 13.12,29.69 13,30.18 C 13.25,30.07 13.54,30.04 13.8,30.12 C 13.86,30.42 14.01,30.69 14.24,30.9 C 14.11,31.09 14.02,31.3 13.99,31.52 A 1.18,1.18 0 0,0 13.49,32.86 A 1.09,1.09 0 0,1 14.32,32.45 C 14.62,33.01 14.97,33.21 15.31,33.21 C 16.09,33.21 16.9,32.17 17.34,32.17 A 0.25,0.25 0 0,1 17.6,32.42 C 17.6,32.77 16.97,32.79 16.97,33.48 A 0.81,0.81 0 0,0 17.74,34.33 A 1.2,1.2 0 0,1 17.47,35.26 C 18.04,35.64 18.67,34.76 18.74,34.26 A 0.9,0.9 0 0,0 19.52,33.42 C 19.52,32.99 19.16,32.88 19.16,32.54 C 19.16,32.15 19.65,31.44 20.04,31.44 C 20.28,31.44 20.53,31.7 20.69,32.39 C 21.04,32.13 21.29,31.77 21.43,31.36 C 21.74,31.56 22.11,31.66 22.49,31.66 C 22.34,31.38 22.29,31.06 22.31,30.76 A 1.65,1.65 0 0,0 23.53,31.14 C 23.36,30.86 23.28,30.54 23.29,30.22 A 1.43,1.43 0 0,0 24.53,30.56 C 24.36,30.34 24.28,30.06 24.29,29.78 C 24.85,30.21 25.52,30.46 26.22,30.52 C 27.6,30.72 29.56,31.4 29.56,32.86 C 29.56,33.39 29.29,34.08 29.29,34.7 C 29.29,35.22 29.47,35.72 29.84,36.7 A 1.1,1.1 0 0,0 29.77,37.12 C 29.77,37.52 29.99,37.77 29.99,38.09 C 29.99,38.28 29.92,38.46 29.81,38.61 A 0.88,0.88 0 0,0 30.99,38.11 C 31.19,38.25 31.39,38.4 31.6,38.53 C 31.72,38.36 31.82,38.17 31.91,37.99 C 32.14,38.13 32.41,38.22 32.68,38.25 C 32.34,37.16 32.94,36.57 33.58,36.57 C 34.16,36.57 34.77,37.04 34.77,38.05 C 34.77,38.64 34.54,39.74 34.1,39.74 C 33.87,39.74 33.24,39.42 32.62,39.42 A 1.35,1.35 0 0,0 31.57,39.87 C 31.45,39.99 31.32,40.1 31.17,40.2 C 30.85,40.42 30.59,40.64 30.67,41.08 C 30.9,40.94 31.15,40.88 31.41,40.88 A 0.99,0.99 0 0,0 31.84,41.52 C 31.75,41.77 31.75,42.05 31.84,42.3 C 31.44,42.64 31.44,43.08 31.57,43.57 A 1.02,1.02 0 0,1 32.34,43.11 A 1.3,1.3 0 0,0 33.41,43.41 C 33.49,43.64 33.63,43.85 33.82,44 A 1.22,1.22 0 0,0 34.13,45.22 M 18.5,44.63 C 18.66,44.31 18.92,44.05 19.24,43.88 C 19.53,44.05 19.85,44.15 20.19,44.18 C 21.49,44.18 21.66,42.02 22.69,42.02 C 23.04,42.02 23.13,42.3 23.21,42.62 C 23.32,43.12 23.5,43.67 24.47,43.44 A 1.18,1.18 0 0,1 25.03,44.44 A 1.13,1.13 0 0,0 25.41,42.95 C 25.56,42.73 25.64,42.48 25.66,42.21 C 25.66,41.46 24.53,41.54 24.53,40.54 C 24.53,40.24 24.6,39.95 24.73,39.68 A 1.56,1.56 0 0,1 25.75,40.42 C 25.88,40.22 25.95,39.98 25.95,39.74 C 25.95,39.12 25.29,38.86 25.29,38.46 C 25.75,38.49 26.17,38.69 26.47,39.03 C 26.59,38.9 26.66,38.73 26.67,38.55 C 26.67,37.93 25.71,37.45 25.71,36.99 A 1.66,1.66 0 0,1 26.91,37.66 A 0.68,0.68 0 0,0 27.11,37.21 C 27.11,36.59 26.32,35.9 26.32,35.37 C 26.32,35 26.68,34.67 28.81,34.33 C 28.91,33.85 28.97,33.36 28.99,32.86 C 28.99,32.02 28.59,31.73 27.07,31.11 C 26.13,31.35 25.25,31.78 24.49,32.37 C 23.89,32.79 23.49,33.05 22.97,33.05 C 22.49,33.05 22.01,32.89 21.65,32.57 A 0.83,0.83 0 0,0 21.35,33.21 A 1.1,1.1 0 0,0 21.9,34.16 A 1.08,1.08 0 0,1 21.16,34.88 A 1.03,1.03 0 0,0 22.26,35.44 A 1.03,1.03 0 0,1 21.68,36.06 A 1.06,1.06 0 0,0 22.66,36.48 C 22.36,38.43 21.9,38.96 21.34,38.96 S 20.04,38.34 19.34,38.34 A 1.22,1.22 0 0,0 18.4,38.81 A 1.13,1.13 0 0,0 17.3,39.77 A 0.85,0.85 0 0,1 18.06,39.74 C 18.06,39.89 18.06,40.04 18.1,40.2 A 1.25,1.25 0 0,0 17.65,41.08 A 1.03,1.03 0 0,0 17.25,42.41 C 17.47,42.1 17.65,42.01 17.85,42.01 C 18.11,42.03 18.35,42.1 18.59,42.2 A 1.2,1.2 0 0,0 18.68,43.13 C 18.16,43.72 18.19,44.04 18.51,44.66 M 29.81,45.99 A 2.89,2.89 0 0,0 30.21,43.33 C 30.44,43.36 30.68,43.33 30.9,43.23 A 3.9,3.9 0 0,1 30.12,41.71 C 29.92,41.08 29.69,40.54 28.52,40.24 C 28.31,38.91 28.37,37.84 29.44,36.87 C 29.29,36.51 29.14,36.15 29.04,35.81 C 27.43,36.79 27.35,38.87 27.54,40.52 A 2.34,2.34 0 0,0 26.75,42.32 C 26.75,43.17 27.25,43.82 27.69,44.38 C 28.05,44.74 28.31,45.18 28.47,45.66 C 28.72,45.52 28.92,45.32 29.06,45.07 C 29.28,45.42 29.55,45.73 29.86,46 M 20.59,26.56 A 1.33,1.33 0 0,1 21.39,25.89 C 21.33,24.7 21.68,23.52 22.37,22.55 C 20.99,21.67 19.31,20.55 19.31,19.28 C 19.31,18.75 19.63,17.95 19.63,17.32 A 1.25,1.25 0 0,0 18.73,16.1 A 1.13,1.13 0 0,0 17.4,15.58 C 17.57,15.71 17.7,15.89 17.78,16.1 C 17.54,16.2 17.33,16.36 17.16,16.55 A 1.15,1.15 0 0,0 16.21,16.36 A 1.04,1.04 0 0,0 14.9,16.36 C 15.1,16.44 15.3,16.58 15.44,16.75 C 15.24,17.05 15.14,17.42 15.16,17.79 A 0.88,0.88 0 0,0 14.66,17.99 A 1.01,1.01 0 0,0 13.31,18.57 A 0.85,0.85 0 0,1 14.01,18.67 C 13.96,18.82 13.93,18.97 13.93,19.12 C 13.93,19.68 14.29,20.19 15.16,20.27 C 15.76,20.33 16.19,20.59 16.19,21 C 16.19,21.3 16,21.43 15.66,21.43 A 0.68,0.68 0 0,0 14.93,22.17 C 14.93,22.39 15,22.61 15.13,22.8 C 14.93,23.03 14.65,23.18 14.35,23.23 A 1.12,1.12 0 0,0 15.69,23.55 C 15.86,23.65 16.06,23.72 16.26,23.73 C 17.09,23.73 17,22.39 17.75,22.39 C 18.03,22.39 18.12,22.56 18.12,22.77 C 18.09,23.11 18,23.44 17.85,23.74 C 18.09,23.88 18.37,23.94 18.65,23.89 A 1.53,1.53 0 0,0 18.76,25.22 C 18.92,24.95 19.16,24.74 19.46,24.62 A 1.56,1.56 0 0,0 19.65,25.89 A 0.91,0.91 0 0,1 20.38,25.36 A 1.42,1.42 0 0,0 20.58,26.54 M 25.88,15.94 A 0.97,0.97 0 0,1 24.85,14.92 H 25.55 A 0.62,0.62 0 0,0 25.43,15.26 C 25.43,15.48 25.65,15.56 25.87,15.56 S 26.38,15.44 26.38,15.21 C 26.38,15.11 26.34,15.01 26.27,14.92 H 26.93 A 0.99,0.99 0 0,1 25.88,15.92 M 26.74,13.84 H 27.52 C 27.8,13.17 28.18,12.54 28.63,11.97 C 28.6,11.68 28.53,11.4 28.44,11.12 A 8,8 0 0,0 26.74,13.84 Z" fill="rgb(1, 130, 64)"/>
</svg>
