<?xml version="1.0" encoding="UTF-8"?>
<!-- generated by Finnhub -->
<svg viewBox="0 0 55.5 55.5" xmlns="http://www.w3.org/2000/svg">
<path d="M 0,0 H 55.5 V 55.5 H 0 Z" fill="rgb(41, 58, 142)"/>
<path d="M 20.99,27.985 A 6,6 0 1,0 15,34 V 36 A 8,8 0 1,1 15,20 A 8,8 0 0,1 15,36 V 34 A 6,6 0 0,0 21,28 Z" fill="rgb(254, 254, 253)"/>
<path d="M 12.99,24.985 H 11 V 28.5 C 11,29.67 11.8,32 15,32 S 19,29.67 19,28.5 V 25 H 17 V 28.5 C 17,29.08 16.6,30 15,30 S 13,29.08 13,28.5 V 25 Z M 34,27 C 34,26.53 33.83,26.33 33.67,26.21 C 33.46,26.06 33.17,26 33,26 H 32 V 28 H 33 C 33.17,28 33.46,27.94 33.67,27.79 C 33.83,27.67 34,27.47 34,27 Z M 36,27 C 36,28.13 35.5,28.93 34.83,29.41 C 34.21,29.86 33.49,30 33,30 H 32 V 32 H 30 V 24 H 33 C 33.5,24 34.21,24.14 34.83,24.59 A 2.85,2.85 0 0,1 36,27 Z M 40,24 L 43,32 H 41 L 40.33,30 H 37.67 L 37,32 H 35 L 38,24 H 40 Z M 38.33,28 H 39.67 L 39,26 L 38.33,28 Z M 44,24 H 42 L 44.5,29 V 32 H 46.5 V 29 L 49,24 H 47 L 45.5,27 L 44,24 Z" fill="rgb(254, 254, 253)"/>
<path d="M 22.49,28.485 V 27.5 H 30.5 V 28.5 H 22.5 Z" fill="rgb(254, 254, 253)"/>
</svg>
