<?xml version="1.0" encoding="UTF-8"?>
<!-- generated by Finnhub -->
<svg viewBox="0 0 55.5 55.5" xmlns="http://www.w3.org/2000/svg">
<path d="M 0,0 H 55.5 V 55.5 H 0 Z" fill="url(#a)"/>
<path d="M 14.99,17.988 H 16 V 25 C 16,25.396 16.262,26 17,26 S 18,25.421 18,25 V 18.003 H 19 V 24.62 C 19,26.355 17.977,27 17,27 C 16.06,27 15,26.355 15,24.62 V 18.003 Z M 12.996,29 H 14 V 35.83 C 14,36.226 14.32,37 14.996,37 C 15.672,37 16,36.25 16,35.83 V 29 H 16.996 V 35.618 C 16.996,37.354 15.973,37.998 14.996,37.998 C 14.056,37.998 12.996,37.354 12.996,35.618 V 29 Z M 21.014,22 H 21.782 C 22.322,22 22.998,21.609 22.998,20.555 C 22.998,19.502 22.21,19 21.715,19 H 21.014 V 22 Z M 20,18.003 H 21.67 C 23.066,18.003 23.988,18.66 23.988,20.555 C 23.988,21.313 23.786,22.325 23.133,22.754 L 24,27 H 22.998 L 22.094,23.133 H 21.014 V 27 H 20 V 18.003 Z M 41,33 H 41.874 C 42.42,33 43,32.436 43,31.47 S 42.306,30 41.806,30 H 41 V 33 Z M 40,29 H 41.76 C 43.171,29 44,29.643 44,31.545 C 44,32.305 43.898,33.307 43.239,33.738 L 44,37.998 H 43 L 42.273,34 H 41 V 37.998 H 40 V 29 Z M 26,26 C 26.877,26 28,25.83 28,24.498 C 28,23.165 26.832,22.988 26,23 V 26 Z M 26,22 C 26.731,22 28,21.773 28,20.433 C 28,19.093 26.731,18.987 26,19 V 22 Z M 25.03,18.003 H 26.839 C 27.739,18.003 28.819,18.559 28.819,20.277 C 28.819,21.288 28.414,22.072 27.514,22.287 V 22.312 C 28.514,22.577 28.976,23.36 28.976,24.498 C 28.976,26.141 27.986,27 26.906,27 H 25.03 V 18.003 Z M 32,19 L 31.26,24 H 32.7 L 32,19 Z M 30.998,18.003 H 33 L 33.998,27 H 33 L 32.699,25 H 31.26 L 30.998,27 H 30 L 30.998,18.003 Z M 35,18.003 H 36 L 38,23.003 V 18.003 H 39.01 V 27 H 38 L 36,21 V 27 H 35 V 18.003 Z M 8,34.412 C 8,36.285 8.63,37 9.5,37 S 11,36.285 11,34.412 V 32.588 C 11,30.715 10.26,30 9.5,30 S 8,30.715 8,32.588 V 34.412 Z M 9.5,29 C 11.013,29 12,30.082 12,33.5 C 12,36.917 11.013,38 9.5,38 S 7,36.917 7,33.5 C 7,30.082 7.987,29 9.5,29 Z M 19,30 H 17.718 V 29 H 21.286 V 30 H 20 V 38 H 19 V 30 Z M 29,30 H 27.705 V 29 H 31.273 V 30 H 30 V 38 H 29 V 30 Z M 33,30 H 31.785 V 29 H 35.352 V 30 H 34 V 38 H 33 V 30 Z M 21.996,29 H 24.998 V 30 H 23 V 33 H 24.998 V 34 H 23 V 38 H 21.996 V 29 Z M 26.995,29 H 25.995 V 38 H 26.995 V 29 Z M 36,29 H 38.695 V 30 H 37 V 33 H 38.695 V 34 H 37 V 37 H 38.695 V 37.998 H 36 V 29 Z M 46,35 C 46,35.488 46.147,37 46.997,37 S 48,36.132 48,35.778 C 48,34.229 45.229,33.912 45.229,31.338 C 45.229,30.033 45.849,29 47.029,29 C 48.628,29 48.967,30.438 49,32 H 48 C 48,31.512 47.752,30 46.997,30 C 46.241,30 46.241,30.862 46.241,31.338 C 46.241,32.814 49,33.082 49,35.608 C 49,36.938 48.336,37.998 47.082,37.998 C 45.23,37.998 45,36.324 45,35 H 46 Z" fill="rgb(254, 254, 253)"/>
<defs>
<linearGradient id="a" x1="10.418" x2="68.147" y1="9.712" y2="76.017" gradientUnits="userSpaceOnUse">
<stop stop-color="rgb(25, 29, 31)" offset="0"/>
<stop stop-color="rgb(5, 5, 8)" offset="1"/>
</linearGradient>
</defs>
</svg>
