<?xml version="1.0" encoding="UTF-8"?>
<!-- generated by Finnhub -->
<svg viewBox="0 0 55.5 55.5" xmlns="http://www.w3.org/2000/svg">
<path d="M 0,0 H 55.5 V 55.5 H 0 Z" fill="rgb(239, 242, 248)"/>
<path d="M 11.99,27.265 C 13.4,24.52 16.26,21 20.48,21 C 24.11,21 27.87,23.62 31.24,25.93 C 33.95,27.78 36.4,29 38.28,29 C 41.35,29 43.15,27.19 43.79,24.72 A 16.06,16.06 0 0,0 28.06,12 A 16.04,16.04 0 0,0 12,27.28 Z" fill="rgb(70, 216, 215)"/>
<path d="M 12.97,33.555 C 13.87,29.73 16.12,24 20.15,24 C 23.75,24 26.85,26.46 29.83,28.68 C 32.55,30.72 35.16,33 37.93,33 A 7.9,7.9 0 0,0 44,30.04 A 16.05,16.05 0 0,1 28.06,44 A 16.1,16.1 0 0,1 12.98,33.57 Z" fill="rgb(241, 134, 3)"/>
</svg>
