<?xml version="1.0" encoding="UTF-8"?>
<!-- generated by Finnhub -->
<svg viewBox="0 0 55.5 55.5" xmlns="http://www.w3.org/2000/svg">
<path d="M 0,0 H 55.5 V 55.5 H 0 Z" fill="rgb(239, 242, 248)"/>
<path d="M 28.49,11.985 C 13.88,12 10.08,23.03 10,28.54 C 10,36.86 17.71,44 28.5,44 C 37.13,44 42.43,38.03 44,35 H 42.97 C 41.54,37.94 36.65,43.75 28.5,43.75 C 18.31,43.75 12.8,34.95 12.8,28.55 C 12.8,22.15 18.35,12.29 28.5,12.29 C 36.62,12.29 41.53,18.06 42.97,21 H 44 C 42.2,17.96 36.6,12 28.5,12 Z" fill="rgb(6, 29, 96)"/>
<path d="M 28.99,14.434999999999999 V 14.7 L 30.02,14.76 C 31.69,14.85 33.25,15.04 34.4,15.3 C 34.93,15.42 35.38,15.5 35.4,15.48 C 35.46,15.41 34.76,15.02 34.23,14.83 A 15.01,15.01 0 0,0 29.71,14.2 H 29.01 V 14.45 Z M 29,15.81 C 29,16.68 28.79,16.66 29.72,16.66 C 32.17,16.66 36.86,17.41 38.36,18.03 C 38.64,18.15 38.89,18.23 38.92,18.21 C 39,18.13 38.6,17.65 38.04,17.14 C 37.74,16.87 37.2,16.51 36.85,16.34 C 36.09,15.97 34.61,15.59 33.21,15.39 C 32.38,15.28 29.96,15.09 29.21,15.08 C 29.01,15.08 29.01,15.11 29.01,15.81 Z M 29,18.18 V 18.92 L 30.28,18.98 C 33.52,19.11 37.3,19.54 38.95,19.95 C 39.74,20.15 40.65,20.51 40.92,20.71 C 41.13,20.88 41.15,20.88 41.15,20.73 C 41.15,20.45 40.65,19.69 40.22,19.32 C 39.26,18.47 35.68,17.82 30.62,17.54 L 29.07,17.45 C 29.03,17.45 29,17.78 29,18.18 Z M 29,20.88 V 21.58 H 29.47 C 30.2,21.58 32.61,21.73 34.05,21.84 C 38.45,22.2 41.52,22.91 42.45,23.8 L 42.75,24.09 L 42.69,23.74 A 2.96,2.96 0 0,0 41.18,21.7 C 40.16,21.25 37.5,20.74 34.8,20.48 C 33.39,20.35 30.56,20.18 29.52,20.18 H 29 V 20.88 Z M 29,23.24 C 28.98,23.26 29,23.72 29,24.26 V 25.24 L 32.8,25.34 C 38.2,25.49 41.9,25.8 43.16,26.2 C 43.36,26.26 43.37,26.26 43.31,25.92 A 2.95,2.95 0 0,0 42.66,24.54 C 42.27,24.18 40.93,23.9 38.11,23.61 C 35.9,23.38 29.14,23.11 29.01,23.24 Z M 23.74,26.6 C 19.78,26.65 17.36,26.74 14.9,26.9 C 14,26.97 13.89,27.04 13.97,27.49 C 14.02,27.75 14.02,27.75 15.41,27.96 C 18.21,28.36 24.94,28.78 28.76,28.78 C 34.04,28.78 43.35,28.06 43.62,27.64 A 0.46,0.46 0 0,0 43.59,27.09 C 43.5,26.97 43.21,26.93 41.94,26.86 C 37.38,26.6 30.97,26.51 23.74,26.6 Z M 14,28.6 C 14,29.1 14.34,29.81 14.75,30.18 C 15.75,31.06 18.91,31.96 22.46,32.38 C 26.74,32.9 34.14,32.73 37.93,32.03 C 41.05,31.45 42.95,30.61 43.5,29.55 C 43.67,29.21 43.76,28.35 43.62,28.35 C 43.57,28.35 43.29,28.45 43.02,28.55 C 40.29,29.7 33.55,30.28 25.74,30.03 C 20.42,29.87 17.23,29.46 15.14,28.7 C 14,28.28 14,28.28 14,28.6 Z M 14.39,30.93 C 14.32,31.12 14.49,31.87 14.71,32.34 C 15.59,34.22 19.14,35.24 25.4,35.46 C 28.59,35.56 28.67,35.56 31.4,35.46 C 35.99,35.3 40.18,34.56 41.72,33.66 C 42.59,33.16 43.3,32.01 43.24,31.19 L 43.22,30.8 L 42.91,31.03 C 41.53,32.06 38.61,32.84 34.58,33.26 A 68.7,68.7 0 0,1 27.97,33.56 L 25.55,33.45 C 20.68,33.21 16.53,32.3 14.93,31.12 C 14.5,30.81 14.44,30.79 14.39,30.93 Z M 15.91,34.41 C 15.84,34.69 16.01,35.16 16.32,35.57 C 17.25,36.8 19.56,37.49 24.27,37.95 C 25.77,38.09 31.8,38.09 33.39,37.95 C 37.44,37.57 39.86,36.93 40.97,35.93 C 41.68,35.3 41.99,34.23 41.47,34.23 C 41.36,34.23 41.17,34.34 41.05,34.47 C 40.81,34.73 39.84,35.2 39.12,35.41 C 36.7,36.09 32.65,36.41 27.35,36.31 C 21.52,36.21 17.93,35.62 16.66,34.54 C 16.26,34.2 15.98,34.15 15.91,34.41 Z M 17.74,37.09 C 17.67,37.27 17.93,37.71 18.26,37.96 C 20.03,39.31 27.14,40.16 32.29,39.66 C 36.49,39.23 38.84,38.61 39.63,37.71 C 39.92,37.39 39.99,37.11 39.82,37.01 C 39.76,36.97 39.66,37.03 39.59,37.13 C 38.87,38.15 35.03,38.72 28.84,38.72 C 22.72,38.72 19,38.18 18.12,37.18 C 17.91,36.93 17.8,36.91 17.74,37.08 Z M 20.26,39.33 C 20.26,39.47 20.96,40.03 21.41,40.26 C 24.7,41.92 32.78,41.96 36.08,40.32 A 4.31,4.31 0 0,0 37.38,39.39 C 37.42,39.29 37.33,39.31 37.01,39.43 C 35.4,40.03 33.4,40.3 29.82,40.36 C 25.39,40.44 22.29,40.12 20.66,39.43 C 20.44,39.33 20.26,39.29 20.26,39.33 Z M 32.62,41.49 C 30.97,41.89 27.44,41.89 24.84,41.49 C 24.15,41.39 25.51,41.9 26.38,42.08 C 27.63,42.33 30.07,42.33 31.3,42.08 C 32.08,41.91 33.13,41.53 33.13,41.4 C 33.13,41.38 33.12,41.36 33.1,41.37 L 32.62,41.49 Z" fill="rgb(239, 49, 63)"/>
<path d="M 26.43,14.065 C 22,14.44 18.06,17.28 15.55,21.96 C 14.64,23.66 13.8,26.12 14.05,26.38 C 14.11,26.46 14.37,26.44 15.01,26.34 C 17.46,25.93 21.41,25.58 25.16,25.44 L 28,25.28 V 19.73 C 28.01,15.31 28,14.11 27.9,14.06 C 27.79,13.98 27.76,13.98 26.44,14.08 Z" fill="rgb(6, 29, 96)"/>
</svg>
