<?xml version="1.0" encoding="UTF-8"?>
<!-- generated by Finnhub -->
<svg viewBox="0 0 55.5 55.5" xmlns="http://www.w3.org/2000/svg">
<path d="M 0,0 H 55.5 V 55.5 H 0 Z" fill="rgb(245, 247, 251)"/>
<path d="M 42.925000000000004,39.987 C 41.93,39.622 41.505,39.467 41.505,39.062 C 41.505,38.705 41.86,38.464 42.509,38.464 C 43.299,38.464 43.891,38.69 44.233,38.847 L 44.683,37.335 C 44.162,37.109 43.477,36.942 42.533,36.942 C 40.894,36.942 39.8,37.442 39.452,38.482 C 38.594,37.128 36.804,37.002 35.305,37.002 C 34.361,37.002 33.685,37.061 33,37.18 V 39.31 C 32.534,37.824 31.083,37.002 29.123,37.002 C 27.311,37.002 26.014,37.722 25.463,39.202 C 24.972,37.769 23.764,37.002 21.853,37.002 C 19.703,37.002 18.381,38.122 17.963,40 H 15 V 39 H 18 V 37 H 13 V 45 H 15 V 42 H 17.98 C 18.305,43.802 19.603,45 21.722,45 H 21.735 C 23.565,45 24.887,44.077 25.435,42.525 C 25.942,43.968 27.172,45 29.005,45 C 30.913,45 32.498,43.993 33,42.32 V 44.82 C 33.412,44.893 34.08,44.965 35.105,44.965 C 36.665,44.965 37.762,44.666 38.635,43.973 C 39.388,43.38 39.989,42.35 40.015,40.763 C 40.404,41.129 40.939,41.418 41.576,41.65 C 42.475,41.958 42.828,42.174 42.828,42.567 C 42.828,42.972 42.475,43.224 41.741,43.224 C 41.308,43.224 40.883,43.15 40.507,43.044 A 4.017,4.017 0 0,1 39.367,44.489 C 39.353,44.501 39.337,44.511 39.322,44.522 C 39.785,44.754 40.687,44.988 41.612,44.988 C 43.938,44.988 45,43.808 45,42.424 C 45,41.303 44.364,40.54 42.935,40.002 Z M 21.83,43.486 H 21.806 C 20.779,43.486 19.874,42.441 19.886,40.999 C 19.886,39.602 20.779,38.606 21.806,38.606 C 22.847,38.606 23.712,39.602 23.712,40.986 C 23.712,42.441 22.857,43.486 21.83,43.486 Z M 29.124,43.45 C 28.096,43.45 27.227,42.441 27.238,40.999 C 27.238,39.602 28.096,38.606 29.124,38.606 C 30.164,38.606 31.13,39.602 31.13,40.986 C 31.13,42.441 30.152,43.45 29.124,43.45 Z M 35,43.306 V 38.418 H 35.554 C 36.83,38.418 37.763,39.158 37.763,40.73 C 37.763,42.525 36.631,43.306 35,43.306 Z" fill="rgb(235, 63, 35)"/>
<path d="M 44.947,35.985 C 43.693,36 43,35.097 43,34.023 C 43,32.896 43.773,32 45.023,32 C 46.335,32 47,32.925 47,33.96 C 47,35.206 46.214,36 44.963,36 M 37.885,21.955 C 35.323,20.92 34.523,20.465 34.523,19.368 C 34.523,18.398 35.427,17.392 37.085,17.392 C 39.132,17.392 40.64,18.398 41.515,18.786 L 42.658,14.132 C 41.304,13.485 39.584,12.642 37.143,12.642 C 33.769,12.642 31.299,14.291 30.005,16.272 V 13 H 24 V 26.087 C 24,29.546 23.748,31.034 21.577,31.034 C 19.437,31.034 19,29.353 19,26.055 V 13 H 13 V 25.602 C 13,32.586 15.601,35.85 21.177,35.85 C 26.871,35.85 30.005,32.455 30.005,25.732 V 23.322 C 30.923,24.665 32.429,25.666 34.418,26.415 C 36.708,27.257 37.612,27.871 37.612,28.907 C 37.612,30.002 36.732,30.683 34.867,30.683 C 33.892,30.683 32.727,30.494 31.624,30.176 A 12.126,12.126 0 0,1 30.627,32.722 A 9.557,9.557 0 0,1 29.254,34.67 C 31.04,35.235 33.052,35.503 34.554,35.503 C 40.489,35.503 43.187,32.267 43.187,28.516 C 43.187,25.476 41.53,23.409 37.885,21.955 Z" fill="rgb(84, 133, 22)"/>
</svg>
