<?xml version="1.0" encoding="UTF-8"?>
<!-- generated by Finnhub -->
<svg viewBox="0 0 55.5 55.5" xmlns="http://www.w3.org/2000/svg">
<path d="M 0,0 H 55.5 V 55.5 H 0 Z" fill="rgb(157, 10, 13)"/>
<path d="M 20.044999999999998,41.99 H 10.241 C 11.111,43.45 13.12,44.004 14.031,43.984 C 16.141,44.157 18.936,42.659 20.055,42.005 Z M 24.361,39.004 H 9.195 C 9.195,39.899 9.49,40.712 9.639,41 H 21.857 C 23.129,40.23 24.057,39.344 24.361,39.004 Z M 26.218,36.006 H 9.053 C 8.96,36.508 9.009,37.536 9.048,38 H 25.378 C 25.952,37.074 26.178,36.294 26.218,36.006 Z M 25.959,32.993 H 9.493 C 9.291,33.353 9.225,34.47 9.212,35.007 H 26.512 C 26.481,34.143 26.127,33.32 25.959,32.993 Z M 23.624,30.008 H 10.377 C 10.097,30.369 9.891,31.506 9.82,31.996 H 25.375 C 24.831,31.086 23.979,30.27 23.624,30.008 Z M 20.694,27.004 H 11.59 C 11.36,27.237 10.975,28.44 10.817,28.996 H 22.413 C 21.506,28.379 20.893,27.4 20.694,27.004 Z M 19.976,24 H 12.994 L 12.071,25.996 H 20.125 C 19.795,25.613 19.887,24.493 19.975,24 Z M 21.488,21.004 H 14.897 L 13.636,23 H 20.206 C 20.19,21.9 21.056,21.206 21.488,21.004 Z M 25.162,13.988 H 21.104 C 22.012,12.832 23.006,12.078 23.367,12.004 C 24.303,12.017 24.938,13.436 25.162,13.988 Z M 25.817,15.018 H 20.009 L 18.258,16.998 H 26.373 C 26.208,15.931 25.933,15.233 25.817,15.018 Z M 26.424,18.006 H 17.238 L 15.702,19.996 H 26.618 C 26.618,19.179 26.493,18.318 26.424,18.006 Z M 35.946,42.004 H 45.759 C 44.89,43.449 42.881,44.004 41.969,43.984 C 39.859,44.156 37.064,42.659 35.946,42.004 Z M 31.64,39.004 H 46.805 C 46.805,39.899 46.51,40.712 46.361,41 H 34.145 C 32.873,40.23 31.945,39.344 31.641,39.004 Z M 29.784,36.005 H 46.947 C 47.04,36.508 46.991,37.535 46.952,38 H 30.622 C 30.049,37.073 29.822,36.293 29.784,36.005 Z M 30.042,32.992 H 46.507 C 46.709,33.353 46.775,34.47 46.788,35.006 H 29.49 C 29.52,34.142 29.874,33.319 30.042,32.992 Z M 32.377,30.007 H 45.623 C 45.903,30.368 46.109,31.505 46.18,31.996 H 30.627 C 31.17,31.085 32.022,30.269 32.377,30.007 Z M 35.307,27.003 H 44.41 C 44.64,27.237 45.026,28.44 45.184,28.996 H 33.588 C 34.494,28.379 35.108,27.4 35.307,27.004 Z M 36.025,24 H 43.007 L 43.929,25.996 H 35.876 C 36.206,25.612 36.114,24.493 36.025,24 Z M 34.513,21.003 H 41.103 L 42.365,23 H 35.795 C 35.812,21.9 34.947,21.205 34.515,21.003 Z M 30.84,13.987 H 34.897 C 33.989,12.831 32.995,12.078 32.634,12.003 C 31.698,12.017 31.063,13.436 30.839,13.987 Z M 30.184,15.017 H 35.992 L 37.742,16.997 H 29.628 C 29.793,15.93 30.068,15.233 30.184,15.017 Z M 29.577,18.005 H 38.763 L 40.299,19.995 H 29.383 C 29.383,19.179 29.509,18.318 29.577,18.005 Z" fill="rgb(254, 254, 253)"/>
</svg>
