<?xml version="1.0" encoding="UTF-8"?>
<!-- generated by Finnhub -->
<svg viewBox="0 0 55.5 55.5" xmlns="http://www.w3.org/2000/svg">
<path d="M 0,0 H 55.5 V 55.5 H 0 Z" fill="url(#a)"/>
<path d="M 42.99,12.985 H 18.54 L 14.32,31.12 A 12.1,12.1 0 0,0 26.02,46 C 31.65,46 36.52,42.07 37.75,36.54 L 43,13 Z" fill="rgb(250, 251, 252)"/>
<path d="M 41.71,13.985 H 19.32 L 18.52,18 H 27.27 L 23.24,36.2 C 22.91,37.75 24.06,39 25.6,39 C 26.72,39 27.7,38.41 27.95,37.28 L 32.18,18 H 40.88 L 41.72,14 Z"/>
<path d="M 25.959999999999997,18.985 H 18.42 C 18.1,20.32 16.9,25.3 15.34,32.45 C 13.39,41.38 22.32,45 25.26,45 C 26.87,45 28.17,44.74 28.62,44.61 A 7.37,7.37 0 0,1 22.07,36.49 L 25.97,19 Z" fill="rgb(1, 142, 211)"/>
<path d="M 40.510000000000005,18.985 H 33.01 C 32.01,23.47 29.74,33.88 28.88,37.57 C 28.02,41.27 24.16,40.42 23.17,39.08 C 23.17,39.89 24.99,44 29.15,44 C 33.81,44 35.98,39.73 36.49,37.72 L 40.52,19 Z" fill="rgb(236, 26, 34)"/>
<defs>
<linearGradient id="a" x1="10.42" x2="68.15" y1="9.71" y2="76.02" gradientUnits="userSpaceOnUse">
<stop stop-color="rgb(25, 29, 31)" offset="0"/>
<stop stop-color="rgb(5, 5, 8)" offset="1"/>
</linearGradient>
</defs>
</svg>
