<?xml version="1.0" encoding="UTF-8"?>
<!-- generated by Finnhub -->
<svg viewBox="0 0 55.5 55.5" xmlns="http://www.w3.org/2000/svg">
<path d="M 0,0 H 55.5 V 55.5 H 0 Z" fill="rgb(239, 242, 248)"/>
<path d="M 16.68,12.985 H 26 V 28.23 C 26,28.9 26.4,30 28,30 S 30,28.9 30,28.23 V 13 H 39.31 A 18.34,18.34 0 0,1 46,27.21 C 46,33.95 42.41,39.83 37.07,43 L 33.5,37.36 C 36,36.35 39,32.8 39,29.24 C 39,23.88 37,20.61 36,20.11 V 28.23 C 36,30.93 34.4,36 28,36 S 20,30.93 20,28.23 V 20.1 C 19,21.11 17,24.85 17,28.73 C 17,31.97 19.5,36.33 22.5,37.35 L 18.93,43 A 18.32,18.32 0 0,1 10,27.21 C 10,21.47 12.6,16.35 16.69,13 Z" fill="rgb(50, 101, 151)"/>
<path d="M 17.49,13.485 L 16.69,13 A 18.34,18.34 0 0,0 10,27.21 C 10,33.95 13.59,39.83 18.93,43 L 18.5,42 C 14,39 11,33.64 11,27.21 C 11,21.47 13.42,16.86 17.5,13.51 Z" fill="url(#a)"/>
<path d="M 27.99,29.985 C 30.5,30 31,28.9 31,28.23 V 13.5 L 30,13 V 28.23 C 30,28.73 29.84,29.65 28,30 Z" fill="url(#a)"/>
<path d="M 37.49,41.985 L 34.5,37.36 C 37,36.35 40,32.3 40,28.74 C 40,23.67 37.93,20.69 36.65,19.54 C 36.38,19.29 36,19.5 36,19.87 V 20.11 C 37.5,21.12 39,25.18 39,28.74 C 39,32.29 36,36.34 33.5,37.36 L 37.07,43 C 37.31,42.86 37.27,42.15 37.5,42 Z" fill="url(#a)"/>
<path d="M 27.99,35.985 C 22.02,35.75 21,30.86 21,28.23 V 20.09 C 21,19.91 20.8,19.83 20.68,19.97 C 20.48,20.23 20.26,20.57 20.03,20.97 A 0.2,0.2 0 0,0 20,21.07 V 28.23 C 20,30.93 21.6,36 28,36 C 28.17,36 27.84,36 28,36 Z" fill="url(#a)"/>
<path d="M 25.99,12.985 H 16.7 L 17.5,13.5 H 25 L 26,13 Z M 30,13 H 39.3 L 38.5,13.5 H 31 L 30,13 Z" fill="rgb(109, 145, 180)"/>
<path d="M 38.49,13.485 L 39.31,13 A 18.34,18.34 0 0,1 46,27.21 C 46,33.95 42.41,39.83 37.07,43 L 37.5,42 C 42.16,38.5 45,33.64 45,27.21 C 45,21.47 42.58,16.86 38.5,13.51 Z" fill="url(#b)"/>
<path d="M 27.99,29.985 C 25.5,30 25,28.9 25,28.23 V 13.5 L 26,12.99 V 28.22 C 26,28.82 26.5,29.99 28,29.99 Z" fill="url(#c)"/>
<path d="M 18.49,41.985 L 21,37.36 C 18.5,36.35 16,32.29 16,28.74 C 16,24.05 17.9,20.58 19.39,19.42 C 19.66,19.2 20,19.42 20,19.77 V 20.11 C 19,21.63 17,24.86 17,28.74 C 17,31.78 19.28,36.2 22.5,37.36 L 18.93,43 C 18.69,42.86 18.73,42.15 18.5,42 Z" fill="url(#b)"/>
<path d="M 27.99,35.985 C 33.98,35.75 35,30.86 35,28.23 V 19.17 C 35,18.99 35.2,18.91 35.32,19.06 C 35.52,19.33 35.76,19.69 36,20.11 V 28.23 C 36,30.93 34.4,36 28,36 Z" fill="url(#b)"/>
<defs>
<linearGradient id="a" x1="14.5" x2="36.34" y1="14.02" y2="36.53" gradientUnits="userSpaceOnUse">
<stop stop-color="rgb(172, 193, 212)" offset="0"/>
<stop stop-color="rgb(147, 175, 201)" stop-opacity=".58" offset=".64"/>
<stop stop-color="rgb(165, 187, 209)" offset="1"/>
</linearGradient>
<linearGradient id="b" x1="26.5" x2="44.81" y1="15.03" y2="36.08" gradientUnits="userSpaceOnUse">
<stop stop-color="rgb(16, 34, 51)" offset="0"/>
<stop stop-color="rgb(21, 43, 64)" stop-opacity=".54" offset=".5"/>
<stop stop-color="rgb(16, 27, 37)" stop-opacity=".64" offset="1"/>
</linearGradient>
<linearGradient id="c" x1="26.5" x2="44.81" y1="15.03" y2="36.08" gradientUnits="userSpaceOnUse">
<stop stop-color="rgb(16, 34, 51)" offset="0"/>
<stop stop-color="rgb(21, 43, 64)" stop-opacity=".54" offset=".5"/>
</linearGradient>
</defs>
</svg>
