<?xml version="1.0" encoding="UTF-8"?>
<!-- generated by Finnhub -->
<svg viewBox="0 0 55.5 55.5" xmlns="http://www.w3.org/2000/svg">
<path d="M 0,0 H 55.5 V 55.5 H 0 Z" fill="url(#a)"/>
<path d="M 17.09,28.235 C 17.1,27.46 16.97,26.7 16.74,26 L 16.54,25.44 A 6.25,6.25 0 0,0 10.85,21.5 C 7.4,21.5 4.6,24.52 4.6,28.25 S 7.4,35 10.85,35 A 5.9,5.9 0 0,0 14.43,33.79 C 13.53,34.34 12.48,34.65 11.37,34.65 C 7.92,34.65 5.12,31.63 5.12,27.9 V 27.87 L 5.17,27.94 C 5.54,31.28 8.17,33.87 11.37,33.87 C 14.38,33.87 17.1,31.57 17.1,28.25 Z M 33,26 H 32 V 30 H 33 V 26 Z" fill="rgb(199, 1, 8)"/>
<path d="M 35.99,26.485 A 0.5,0.5 0 0,0 35.5,26 H 32 V 27 H 35 V 28 H 32 V 29 H 33.72 L 34.55,30 H 35.85 L 35.02,29 H 35.5 A 0.5,0.5 0 0,0 36,28.5 V 26.5 Z M 40.5,26 C 40.78,26 41,26.22 41,26.5 V 27.5 H 40 V 27 H 38 V 29 H 40 V 28.5 H 41 V 29.5 A 0.5,0.5 0 0,1 40.5,30 H 37.5 A 0.5,0.5 0 0,1 37,29.5 V 26.5 C 37,26.22 37.22,26 37.5,26 H 40.5 Z" fill="rgb(199, 1, 8)"/>
<path d="M 42.49,25.985 A 0.5,0.5 0 0,0 42,26.5 V 29.5 C 42,29.78 42.22,30 42.5,30 H 45.5 A 0.5,0.5 0 0,0 46,29.5 V 26.5 A 0.5,0.5 0 0,0 45.5,26 H 42.5 Z M 45,27 H 43 V 29 H 45 V 27 Z" fill="rgb(199, 1, 8)" fill-rule="evenodd"/>
<path d="M 46.99,25.985 H 48 V 30 H 47 Z M 51,26 H 52 V 30 H 51 Z" fill="rgb(199, 1, 8)"/>
<path d="M 47.99,25.985 L 47.18,26.58 L 49.5,29.8 L 51.82,26.58 L 51,26 L 49.5,28.12 L 48,26 Z M 24,27 H 25 V 30 H 24 Z M 22.5,26 H 26.5 V 27 H 22.5 V 26 Z M 22,26 V 27 H 19 V 27.5 H 21.5 C 21.78,27.5 22,27.72 22,28 V 29.5 A 0.5,0.5 0 0,1 21.5,30 H 18.5 A 0.5,0.5 0 0,1 18,29.5 V 29 H 21 V 28.5 H 18.5 A 0.5,0.5 0 0,1 18,28 V 26.5 C 18,26.22 18.22,26 18.5,26 H 22 Z" fill="rgb(199, 1, 8)"/>
<path d="M 25.869999999999997,29.985 L 27.97,26 H 28.98 L 31.08,30 H 29.96 L 29.43,29 H 27.54 L 27.01,30 H 25.88 Z M 28.61,26.72 C 28.61,27.06 28.61,27.41 29.13,27.41 V 27.63 C 28.61,27.63 28.61,27.98 28.61,28.32 H 28.35 C 28.35,27.98 28.35,27.63 27.83,27.63 V 27.41 C 28.35,27.41 28.35,27.06 28.35,26.72 H 28.61 Z" fill="rgb(199, 1, 8)" fill-rule="evenodd"/>
<path d="M 12.99,25.985 H 16.77 C 16.87,26.32 16.94,26.66 16.99,27 H 15.5 V 30 H 14.5 V 27 H 13 V 26 Z M 9,26 H 8 V 29.5 C 8,29.78 8.22,30 8.5,30 H 11.5 A 0.5,0.5 0 0,0 12,29.5 V 26 H 11 V 29 H 9 V 26 Z" fill="rgb(254, 254, 253)"/>
<defs>
<linearGradient id="a" x1="10.42" x2="68.15" y1="9.71" y2="76.02" gradientUnits="userSpaceOnUse">
<stop stop-color="rgb(25, 29, 31)" offset="0"/>
<stop stop-color="rgb(5, 5, 8)" offset="1"/>
</linearGradient>
</defs>
</svg>
