<?xml version="1.0" encoding="UTF-8"?>
<!-- generated by Finnhub -->
<svg viewBox="0 0 55.5 55.5" xmlns="http://www.w3.org/2000/svg">
<path d="M 0,0 H 55.5 V 55.5 H 0 Z" fill="rgb(239, 242, 248)"/>
<path d="M 36.300000000000004,42.325 C 36.79,42.26 37.46,41.94 37.53,41.7 V 44.46 H 38.09 S 38.09,40.86 38.78,38.95 L 38.6,38.55 C 38.15,38.71 37.7,38.55 37.42,38.23 C 37.14,37.93 36.69,37.96 36.03,38.16 C 35.68,37.86 35.34,37.76 35.13,37.76 C 34.91,37.76 34.75,38.3 34.36,38.3 C 33.98,38.3 33.84,38.03 33.04,38.03 C 32.62,38.03 32.34,38.43 32.34,38.43 C 31.89,37.64 30.15,35.98 29.52,35.79 C 29.49,35.79 29.52,35.58 29.52,35.58 S 29.6,36.19 33.45,33.81 C 34.64,34.01 35.68,32.75 36.73,31.73 A 10.68,10.68 0 0,0 40,24.16 C 40,20.22 38.4,16.55 34.37,14.66 C 34.87,11.59 34.3,9.36 33.05,8 A 7.46,7.46 0 0,0 27.21,12.28 C 27.07,12.68 27.07,12.62 26.79,12.48 C 26.52,12.35 25.69,12.43 25.33,12.7 C 24.98,12.97 24.98,12.97 24.56,12.62 C 24.15,12.28 21.81,11.44 20.4,12.49 C 19.29,13.29 18.86,16.49 20.26,18.73 C 16.16,24.84 19.63,30.49 21.3,32.52 C 19.29,32.31 15.1,33.73 14.5,36.8 L 15.04,36.87 A 12.4,12.4 0 0,0 14,40.87 C 14,42.1 14.06,42.51 15.04,42.85 C 16.01,43.19 17.48,43.39 17.75,43.46 C 18.03,43.53 18.38,43.53 18.38,44.07 C 18.38,44.62 18.46,44.96 18.8,45 C 19.15,45.03 19.17,44.73 19.35,44.52 C 19.53,44.31 19.8,44.12 20.22,44.31 C 20.64,44.51 21.12,44.61 21.12,44.61 C 21.2,44.44 21.5,44.31 21.86,44.31 C 22.21,44.31 22.8,44.61 23.32,44.61 C 23.77,44.61 23.87,44.31 23.95,44.27 C 24.12,44.54 24.4,44.57 24.64,44.57 C 24.88,44.57 25.61,44.37 25.96,44.37 C 26.31,44.37 26.46,44.54 26.96,44.64 C 27.48,44.74 28.16,44.14 28.33,44.1 C 28.47,44.33 28.96,44.4 29.2,44.4 S 30.2,44.1 30.62,44.1 C 31.04,44.1 31.15,44.26 31.59,44.16 C 31.94,44.1 32.36,43.66 32.49,43.55 C 32.74,43.75 33.49,43.58 34.06,43.24 C 34.51,42.97 35.1,43.07 35.3,42.97 C 35.5,42.88 35.5,42.47 36.31,42.34 Z" fill="rgb(1, 35, 104)"/>
<path d="M 35.080000000000005,42.265 C 35.64,41.86 35.92,41.64 36.17,41.64 C 36.41,41.64 36.73,41.68 37.12,41.03 C 37.49,40.37 37.77,40.66 37.92,40.48 C 38.06,40.31 38.24,39.73 37.92,39.43 C 37.61,39.12 36.92,38.98 36.92,38.58 C 36.7,38.68 36.36,38.81 36.11,38.81 C 35.87,38.81 35.79,38.47 35.48,38.47 S 34.65,38.67 34.33,38.87 C 34.12,38.77 34.3,38.64 33.64,38.67 C 32.99,38.7 32.94,39.24 32.11,39.3 C 32.11,39.3 32.11,39.13 31.65,39.13 C 31.2,39.13 30.88,39.61 30.71,39.81 C 30.53,40.01 29.94,40.35 29.52,39.98 C 29.31,40.18 28.83,40.73 28.2,40.52 C 29.03,40.96 29.7,42.56 29.8,43.14 L 29.29,43.44 C 29.19,43.18 29.01,42.53 28.48,41.71 C 27.96,40.91 26.35,40.73 24.87,40.77 C 23.37,40.8 21.35,39.71 19.62,39.71 C 19.02,39.71 18.29,39.78 18.15,39.98 L 17.78,39.75 C 17.85,39.4 18.09,39.13 18.88,39.21 C 19.68,39.28 19.89,38.97 19.89,38.39 A 5.18,5.18 0 0,0 16.1,36.91 A 10.32,10.32 0 0,0 14.86,40.99 C 14.82,41.36 14.89,41.94 15.35,42.19 C 16.03,42.54 16.77,42.79 18.21,42.79 C 19.63,42.79 22.37,42.19 24.32,42.19 C 25.23,42.19 26.38,42.99 26.38,43.51 L 25.47,43.41 C 25.33,43.28 24.92,42.91 23.42,42.87 C 21.92,42.83 20.12,43.52 18.8,43.52 C 18.94,43.69 18.94,43.87 19.21,43.89 C 19.49,43.93 19.71,43.59 20.08,43.59 C 20.46,43.59 20.64,43.95 20.95,43.82 C 21.26,43.68 21.95,43.58 22.17,43.61 C 22.21,43.71 22.41,44.01 22.8,43.98 C 23.18,43.94 23.32,43.63 23.85,43.63 C 24.37,43.63 24.34,44 24.79,43.98 C 25.32,43.94 25.24,43.67 25.79,43.67 C 26.35,43.67 26.57,44.04 27.04,44.04 C 27.54,44.04 27.81,43.6 28.23,43.56 C 28.64,43.52 29.1,43.63 29.51,43.86 A 0.6,0.6 0 0,1 30.01,43.46 A 3.93,3.93 0 0,1 31.54,43.56 C 31.58,43.35 31.82,42.94 32.24,42.88 C 32.64,42.82 33.16,42.99 33.52,42.96 C 33.79,42.92 33.89,42.38 34.15,42.34 C 34.35,42.3 34.5,42.72 35.09,42.28 Z" fill="rgb(239, 242, 248)"/>
<path d="M 15.44,36.315 C 18.31,36.33 19.12,36.83 20.7,38.3 C 20.62,38.5 20.25,39.07 20.18,39.28 C 21.72,39.28 23.2,40.21 24.7,40.26 C 25.65,40.3 26.9,40.19 27.56,40.36 C 28.16,40.32 28.71,39.86 28.98,39.57 C 29.26,39.3 29.78,39.71 30.03,39.65 C 30.27,39.57 30.76,38.76 31.17,38.66 C 31.59,38.56 31.77,38.63 31.9,38.7 C 31.31,38.09 30.68,37.07 28.74,36.08 A 5.4,5.4 0 0,1 24.29,35.37 A 10.27,10.27 0 0,1 21.6,33 C 20.35,32.87 16.14,33.78 15.45,36.33 Z" fill="rgb(216, 4, 18)"/>
<path d="M 24.5,32.445 C 24,32.8 23.34,33.05 22.68,33.32 C 23.2,33.89 25.88,36.46 28.24,35.62 C 27.2,35.35 25.76,34.22 24.51,32.46 Z" fill="rgb(239, 242, 248)"/>
<path d="M 20.49,12.815 C 19.93,13.27 21.97,13.79 24.34,13.66 C 24.34,13.66 24.48,13.26 24.64,13.09 C 24.16,12.73 22.2,11.57 20.51,12.83 Z" fill="rgb(216, 4, 18)"/>
<path d="M 24.619999999999997,13.975 C 23.71,14.02 21,14.15 20.17,13.42 C 19.83,14.05 19.23,15.97 20.55,18.55 C 24.77,13.57 29.39,13.85 33.92,14.58 C 34.08,13.15 34.4,10.61 32.87,8.43 C 31.65,8.8 29.15,9.25 27.38,12.76 C 27.88,12.29 28.84,11.46 29.63,11.46 L 30.07,11.6 C 29.63,11.74 28.54,12 27.28,13.29 C 26.88,12.82 26.68,12.62 25.9,12.79 C 25.12,12.96 24.73,13.59 24.63,13.99 Z" fill="rgb(216, 4, 18)"/>
<path d="M 25.009999999999998,32.045 C 25.43,32.68 26.65,34.37 27.9,34.91 C 29.15,35.46 30.05,35.12 31.02,34.71 C 31.99,34.31 35.22,33.08 37.42,27.05 C 36.47,27.12 35.4,26.84 35.17,26.55 C 35.66,26.31 35.9,25.79 36.07,25.45 C 34.89,25.96 33.21,26.17 31.93,25.23 C 32.66,24.71 32.8,24.41 33.25,23.83 C 31.55,24.55 28.87,24.18 28.14,23.91 C 28.14,24.62 28.64,29.12 25.02,32.06 Z" fill="rgb(239, 242, 248)"/>
<path d="M 25.79,31.245 C 26.06,31.66 26.6,31.93 27.13,31.93 C 27.95,31.93 28.61,31.28 28.61,30.49 C 28.61,29.76 27.98,29.16 27.26,29.06 C 27.14,29.41 26.36,30.78 25.8,31.26 Z M 33.64,33.16 A 1.43,1.43 0 0,1 33.38,32.33 C 33.38,31.53 34.04,30.89 34.85,30.89 C 35.05,30.89 35.3,30.96 35.49,31.03 C 35.39,31.19 34.21,32.71 33.64,33.16 Z" fill="rgb(216, 4, 18)"/>
<path d="M 30.04,29.895 C 29.88,30.72 29.45,32.61 30.55,33.07 C 31.51,33.47 32.74,31.95 32.81,31.34 C 31.93,31.2 30.96,31.03 30.05,29.91 Z" fill="rgb(1, 35, 104)"/>
<path d="M 30.45,30.905 C 30.36,31.32 30.13,32.27 30.73,32.49 C 31.27,32.7 31.94,31.93 31.98,31.63 C 31.48,31.56 30.95,31.47 30.46,30.92 Z" fill="rgb(239, 242, 248)"/>
<path d="M 30.27,26.134999999999998 A 0.77,0.77 0 0,1 29.96,25.75 L 29.74,25.79 C 29.75,25.93 29.84,26.07 29.95,26.23 L 29.8,26.33 C 29.6,26.15 29.51,26.03 29.47,25.93 L 29.26,26.03 C 29.31,26.15 29.44,26.36 29.57,26.49 L 29.44,26.58 A 0.99,0.99 0 0,1 29.06,26.28 L 28.87,26.41 C 28.95,26.53 29.1,26.69 29.26,26.8 A 1.63,1.63 0 0,0 30.61,29.38 C 31.51,29.38 32.26,28.67 32.26,27.78 C 32.26,26.88 31.51,26.16 30.61,26.16 C 30.41,26.14 30.37,26.12 30.28,26.15 Z" fill="rgb(1, 35, 104)"/>
<path d="M 30.56,28.935 C 31.25,28.95 31.82,28.41 31.82,27.73 C 31.82,27.28 31.55,26.87 31.17,26.66 C 31.32,27.22 31.3,28.35 30.57,28.96 Z" fill="rgb(239, 242, 248)"/>
<path d="M 35.89,27.735 C 36.12,27.75 36.31,27.67 36.39,27.6 L 36.54,27.76 A 0.95,0.95 0 0,1 36.12,27.98 L 36.19,28.13 C 36.45,28.09 36.59,28.05 36.68,27.99 L 36.78,28.18 C 36.66,28.25 36.45,28.34 36.28,28.36 L 36.34,28.5 C 36.53,28.52 36.71,28.5 36.8,28.47 L 36.88,28.68 C 36.76,28.74 36.54,28.78 36.36,28.78 A 1.58,1.58 0 0,1 33.86,30.05 A 1.5,1.5 0 0,1 33.5,27.92 C 34,27.23 34.99,27.07 35.68,27.56 L 35.91,27.75 Z" fill="rgb(1, 35, 104)"/>
<path d="M 34.65,29.945 C 35.32,29.96 35.85,29.44 35.85,28.8 C 35.85,28.37 35.59,28 35.23,27.8 C 35.38,28.31 35.35,29.38 34.66,29.96 Z" fill="rgb(239, 242, 248)"/>
</svg>
