<?xml version="1.0" encoding="UTF-8"?>
<!-- generated by Finnhub -->
<svg viewBox="0 0 55.5 55.5" xmlns="http://www.w3.org/2000/svg">
<path d="M 0,0 H 55.5 V 55.5 H 0 Z" fill="rgb(138, 86, 40)"/>
<path d="M 38.213,21.985 H 17.783 L 17.391,23 H 38.675 L 38.223,22 Z M 39.29,27.5 H 16.743 L 16.31,28.5 H 39.788 L 39.29,27.5 Z M 38.226,33 H 17.986 L 17.862,34 H 38.226 V 33 Z" fill="rgb(254, 254, 253)"/>
<path d="M 20.043,16.061 C 20.558,15.853 20.826,16.081 20.923,16.261 C 21.099,16.591 20.713,16.835 20.597,16.893 C 18.47,17.943 14.285,21.656 14,27.666 C 13.715,33.676 18.282,37.858 20.597,39.183 C 20.67,39.285 20.917,39.525 20.742,39.783 C 20.567,40.039 20.21,40.016 20.052,39.973 C 18.447,38.861 12.854,35.38 13.002,27.666 C 13.152,19.952 19.422,16.355 20.052,16.076 Z M 35.919,16.093 C 35.411,15.869 35.143,16.097 35.046,16.277 C 34.869,16.607 35.256,16.851 35.372,16.909 C 37.508,17.958 41.709,21.669 41.996,27.675 C 42.282,33.681 37.697,37.86 35.372,39.183 C 35.299,39.286 35.052,39.525 35.227,39.783 C 35.402,40.039 35.761,40.016 35.919,39.973 C 37.532,38.861 43.147,35.383 42.997,27.675 C 42.847,19.966 36.553,16.371 35.919,16.093 Z" fill="rgb(254, 254, 253)"/>
<path d="M 12.255,20.166999999999998 C 12.533,19.852 12.885,20.045 13.026,20.182 C 13.258,20.434 13.216,20.722 13.166,20.835 C 9.316,28.781 13.088,35.933 13.166,36.079 V 36.081 C 13.213,36.17 13.408,36.42 13.026,36.822 C 12.719,37.144 12.39,36.956 12.265,36.822 C 8.111,28.102 11.929,20.594 12.265,20.182 Z M 43.744,20.182 C 43.475,19.852 43.124,20.045 42.982,20.182 A 0.623,0.623 0 0,0 42.842,20.835 C 46.692,28.781 42.92,35.933 42.843,36.079 V 36.081 C 42.795,36.17 42.6,36.42 42.983,36.822 C 43.289,37.144 43.618,36.956 43.743,36.822 C 47.897,28.102 44.079,20.594 43.743,20.182 Z M 8.258,24.397 A 0.488,0.488 0 0,1 8.783,24.002 C 9.143,24.072 9.225,24.48 9.221,24.675 C 8.677,28.395 9.221,31.188 9.221,31.423 C 9.221,31.658 9.065,31.963 8.727,31.998 C 8.455,32.026 8.301,31.722 8.258,31.567 C 7.733,27.075 8.155,24.836 8.258,24.397 Z M 47.742,24.397 A 0.488,0.488 0 0,0 47.217,24.002 C 46.857,24.072 46.775,24.48 46.779,24.675 C 47.323,28.395 46.779,31.188 46.779,31.423 C 46.779,31.658 46.934,31.963 47.273,31.998 C 47.544,32.026 47.699,31.722 47.742,31.567 C 48.267,27.075 47.845,24.836 47.742,24.397 Z" fill="rgb(254, 254, 253)"/>
<path d="M 28.025,38.985 C 34.132,39 39.069,34.072 39.069,28 S 34.132,17 28.035,17 S 17,21.928 17,28 C 17,34.072 21.938,39 28.035,39 Z M 28.035,40 C 34.681,40 40.069,34.627 40.069,28 S 34.681,16 28.035,16 C 21.388,16 16,21.373 16,28 C 16,34.627 21.388,40 28.035,40 Z" fill="rgb(254, 254, 253)" fill-rule="evenodd"/>
<path d="M 33.629000000000005,35.868 C 35.132,33.901 36.086,31.117 36.086,28 S 35.133,22.099 33.639,20.116 C 32.145,18.135 30.157,17 28.043,17 S 23.941,18.135 22.447,20.116 C 20.953,22.1 20,24.883 20,28 S 20.953,33.901 22.447,35.883 C 23.941,37.865 25.93,39 28.043,39 S 32.145,37.865 33.639,35.883 Z M 28.043,40 C 33.037,40 37.086,34.627 37.086,28 S 33.037,16 28.043,16 C 23.049,16 19,21.373 19,28 C 19,34.627 23.049,40 28.043,40 Z" fill="rgb(254, 254, 253)" fill-rule="evenodd"/>
<path d="M 30.43,36.092 C 31.266,34.083 31.8,31.217 31.8,28 C 31.8,24.783 31.266,21.917 30.44,19.893 C 30.025,18.878 29.557,18.123 29.088,17.638 C 28.623,17.155 28.221,17 27.9,17 C 27.58,17 27.178,17.155 26.712,17.638 C 26.244,18.123 25.776,18.878 25.362,19.893 C 24.533,21.917 24,24.783 24,28 C 24,31.217 24.534,34.083 25.361,36.107 C 25.776,37.122 26.244,37.877 26.712,38.362 C 27.178,38.845 27.58,39 27.9,39 C 28.221,39 28.623,38.845 29.089,38.362 C 29.557,37.877 30.025,37.122 30.439,36.107 Z M 27.9,40 C 30.607,40 32.8,34.627 32.8,28 S 30.607,16 27.9,16 C 25.194,16 23,21.373 23,28 C 23,34.627 25.194,40 27.9,40 Z" fill="rgb(254, 254, 253)" fill-rule="evenodd"/>
<path d="M 27.49,39.822 V 16.05 H 28.5 V 39.836 H 27.5 Z" fill="rgb(254, 254, 253)"/>
</svg>
