<?xml version="1.0" encoding="UTF-8"?>
<!-- generated by Finnhub -->
<svg viewBox="0 0 55.5 55.5" xmlns="http://www.w3.org/2000/svg">
<path d="M 0,0 H 55.5 V 55.5 H 0 Z" fill="rgb(239, 242, 248)"/>
<path d="M 45.36,25.945 L 44.6,25.14 A 0.12,0.12 0 0,1 44.6,24.97 L 45.37,24.15 A 0.13,0.13 0 0,1 45.57,24.15 L 46.3,24.97 C 46.35,25.02 46.35,25.09 46.3,25.14 L 45.57,25.96 A 0.13,0.13 0 0,1 45.37,25.96 Z" fill="rgb(66, 53, 46)"/>
<path d="M 3.99,23.375 V 23 H 8.04 V 23.39 H 7.8 C 7.36,23.39 6.99,23.73 6.99,24.15 V 29.41 C 7.02,30.06 7.63,31.38 9.77,31.38 C 12.3,31.38 12.27,29.21 12.27,28.54 V 24.15 A 0.78,0.78 0 0,0 11.47,23.39 H 10.81 V 23 H 13.94 V 23.39 H 13.78 A 0.78,0.78 0 0,0 12.98,24.15 V 27.95 C 13,29.68 12.4,32 9.5,32 C 5.86,32 5.44,30.22 5.44,28.57 V 24.15 A 0.78,0.78 0 0,0 4.65,23.39 H 4 Z M 13.5,27.24 V 27 H 16.1 V 27.24 C 15.83,27.27 15.34,27.48 15.59,28.04 C 15.83,28.59 16.42,29.77 16.69,30.29 L 17.89,28.41 L 17.51,27.71 A 0.9,0.9 0 0,0 16.75,27.24 V 27 H 19.59 V 27.24 C 19.28,27.27 18.72,27.46 18.97,27.99 C 19.21,28.51 19.8,29.65 20.06,30.15 L 21.26,27.84 C 21.3,27.64 21.19,27.24 20.41,27.24 V 27 H 22.5 V 27.24 A 0.95,0.95 0 0,0 21.72,27.84 C 21.53,28.3 20.31,30.8 19.72,32 H 19.48 L 18,28.98 L 16.26,32 H 16.01 L 14.14,27.84 C 14.06,27.64 13.81,27.24 13.5,27.24 Z M 22.16,25.07 V 24.77 C 22.69,24.67 23.86,24.38 24.26,24 H 24.37 V 27.79 C 24.75,27.42 25.34,27 25.97,27 C 27.05,27 28,27.68 28,28.96 V 31.24 C 28.07,31.4 28.27,31.72 28.85,31.72 V 32 H 25.98 V 31.72 C 26.2,31.72 26.66,31.65 26.66,31.24 V 28.96 C 26.59,28.54 26.24,27.69 25.31,27.69 C 24.86,27.69 24.57,27.89 24.37,28.14 V 31.32 C 24.47,31.47 24.77,31.77 25.28,31.77 V 32 H 22.16 V 31.77 C 22.44,31.73 23,31.59 23,31.32 V 25.56 C 23,25.4 22.82,25.07 22.16,25.07 Z M 29,28.24 C 29,28.47 29.38,28.53 29.57,28.52 C 30.18,28.52 30.29,28.22 30.27,28.07 C 30.15,27.83 30.1,27.36 30.92,27.36 C 31.73,27.36 31.95,28.07 32,28.43 V 29 C 31.78,29.07 31.44,29.16 31.04,29.22 C 30.3,29.32 29,29.68 29,30.99 C 29.03,31.32 29.3,31.99 30.16,31.99 C 30.85,31.99 31.56,31.62 32,31.33 C 32.04,31.56 32.35,31.99 33.06,31.99 C 33.79,31.99 34.26,31.59 34.39,31.39 L 34.19,31.31 C 33.49,31.58 33.3,31.19 33.29,30.97 V 28.6 C 33.29,27.86 33.01,27 31.19,27 C 29.36,27 29,27.95 29,28.24 Z M 30.36,30.63 C 30.34,30.28 30.65,29.59 32,29.45 V 30.93 C 31.76,31.15 31.41,31.37 31.04,31.37 C 30.49,31.37 30.35,30.87 30.36,30.63 Z M 34.19,27.88 V 27.6 C 34.57,27.6 35.49,27.46 36.11,27 H 36.31 V 28.02 A 4.3,4.3 0 0,1 37.57,27.02 C 37.95,26.91 38.49,27.4 38.72,27.65 C 38.76,27.7 38.82,27.85 38.67,28.05 C 38.52,28.25 38.29,28.5 38.2,28.6 A 2.3,2.3 0 0,1 37.53,28.3 A 0.65,0.65 0 0,0 37.04,28.12 C 36.8,28.12 36.48,28.5 36.31,28.75 V 31.31 C 36.41,31.46 36.76,31.75 37.31,31.75 V 32 H 34.19 V 31.75 C 34.46,31.71 35,31.57 35,31.31 V 28.45 C 35,28.26 34.8,27.88 34.2,27.88 Z M 39.21,27.6 V 27.88 C 39.82,27.88 39.99,28.26 40,28.45 V 31.31 C 40,31.57 39.48,31.71 39.21,31.75 V 32 H 42.33 V 31.75 C 41.78,31.75 41.43,31.45 41.33,31.31 V 28.75 C 41.49,28.5 41.82,28.12 42.06,28.12 A 0.7,0.7 0 0,1 42.56,28.3 L 42.69,28.4 C 42.86,28.5 43.11,28.58 43.22,28.6 C 43.32,28.5 43.54,28.25 43.69,28.05 C 43.83,27.85 43.78,27.7 43.73,27.65 C 43.51,27.4 42.96,26.91 42.59,27.02 C 42.26,27.11 41.69,27.65 41.32,28.02 V 27 H 41.12 C 40.5,27.46 39.59,27.6 39.22,27.6 Z M 44.23,27.6 V 27.88 C 44.84,27.88 44.99,28.26 45,28.45 V 31.31 C 45,31.57 44.5,31.71 44.23,31.75 V 32 H 47.35 V 31.75 C 46.8,31.75 46.45,31.45 46.35,31.31 V 27 H 46.15 A 3.7,3.7 0 0,1 44.23,27.6 Z M 51.01,29.18 L 49.29,29.49 C 48.81,29.58 48.43,30.02 48.65,30.45 C 48.95,31 49.55,31.27 50.23,31.27 C 50.89,31.27 51.46,30.97 51.75,30.77 A 0.16,0.16 0 0,1 51.95,30.79 C 52,30.83 52.01,30.89 51.98,30.95 C 51.76,31.35 51.06,32 49.65,32 C 47.74,32 47.2,30.47 47.2,30.06 V 30 C 47.2,29.48 47.19,26.99 49.46,26.99 C 50.72,26.99 51.36,27.59 51.65,28.19 C 51.86,28.64 51.5,29.09 51.01,29.17 Z M 50.24,28.8 C 49.94,28.92 48.91,29.07 48.44,29.13 C 48.34,29.14 48.17,29.08 48.21,28.73 C 48.27,28.3 48.91,27.34 49.49,27.34 C 50.06,27.34 50.39,27.74 50.54,28.02 C 50.7,28.3 50.62,28.67 50.24,28.8 Z" fill="rgb(66, 53, 46)" fill-rule="evenodd"/>
<path d="M 27.97,23.314999999999998 C 25.21,19.55 19.73,19.73 17.33,20.29 C 23.08,17.25 26.83,20.29 27.98,22.19 C 30.78,17.67 36.46,19.04 38.96,20.29 C 32.58,19.21 28.98,21.87 27.98,23.33 Z" fill="rgb(106, 130, 51)"/>
</svg>
