<?xml version="1.0" encoding="UTF-8"?>
<!-- generated by Finnhub -->
<svg viewBox="0 0 55.5 55.5" xmlns="http://www.w3.org/2000/svg">
<path d="M 0,0 H 55.5 V 55.5 H 0 Z" fill="url(#a)"/>
<path d="M 42.49,33.485 L 47,27.07 L 48,36 H 50 L 48.37,21 L 42.5,30 L 36.63,21 L 35,36 H 37 L 38,27.07 L 42.5,33.5 Z M 6,21 H 8 V 29.73 C 8,31.82 9.18,34 12,34 C 14.82,34 16,31.83 16,29.73 V 21 H 18 V 29.96 C 18,33.48 16,36 11.98,36 S 6,33.46 6,29.94 V 21 Z M 19,21 H 21 L 24,29.5 L 27.5,21 L 31,29.5 L 34,21 H 36 L 31,36 L 27.5,26.3 L 24,36 L 19,21 Z" fill="rgb(254, 254, 253)"/>
<defs>
<linearGradient id="a" x1="49.39" x2="8.03" y1="10.08" y2="47.99" gradientUnits="userSpaceOnUse">
<stop stop-color="rgb(1, 95, 156)" offset="0"/>
<stop stop-color="rgb(1, 157, 151)" offset="1"/>
</linearGradient>
</defs>
</svg>
