<?xml version="1.0" encoding="UTF-8"?>
<!-- generated by Finnhub -->
<svg viewBox="0 0 55.5 55.5" xmlns="http://www.w3.org/2000/svg">
<path d="M 0,0 H 55.5 V 55.5 H 0 Z" fill="rgb(239, 242, 248)"/>
<path d="M 43.82,25.985 C 45.22,25.96 47.98,26.58 47.98,29.41 C 47.98,32.96 45.37,35 42.07,35 C 38.77,35 38,32.99 38,31.37 C 38,29.77 39.5,26 43.83,26 Z M 43.56,28 C 44.04,28.03 45,28.37 45,29.47 C 45,30.86 44.28,33 42.56,33 C 41.68,33 41,32.44 41,31.62 C 41,30.79 41.56,28 43.56,28 Z" fill="rgb(1, 67, 124)" fill-rule="evenodd"/>
<path d="M 8.99,20.985 H 12.96 L 13.38,26.04 L 10.22,28.04 L 9,21 Z M 27.94,29.18 L 26.84,35 H 23.64 L 23.91,33.6 A 4.43,4.43 0 0,1 20.81,35 C 18.49,35 18,33.84 18,32.94 C 18,30.15 21.05,29.48 22.57,29.49 H 24.67 C 24.82,28.53 24.88,27.67 23.87,27.67 C 22.94,27.67 22.43,28.58 22.3,29 H 19.15 C 19.46,27.25 21.3,26 24.29,26 C 27.81,26 28.19,28.12 27.94,29.18 Z M 24.29,31 H 23.07 C 22.37,31.03 20.99,31.25 20.99,32.38 C 20.99,32.65 21.15,33.19 22.24,33.19 C 23.34,33.19 24.21,32.14 24.29,31 Z M 37,28.98 H 34.4 C 34.4,28.24 33.99,28 33.16,28 C 32.33,28 32,28.26 32,28.62 C 32,28.99 32.6,29.28 33.31,29.44 C 35.49,29.89 36.51,30.69 36.51,31.74 C 36.51,34.15 33.85,35 31.91,35 C 28.17,35 27.79,33.03 28.07,32 H 30.87 C 30.87,32.98 31.29,33 32.09,33 C 32.9,33 33.49,32.88 33.49,32.39 C 33.49,31.89 32.85,31.73 31.91,31.52 C 29.67,30.97 29,30.22 29,29.22 C 29,27.24 30.88,26 33.31,26 C 36.43,26 37.07,27.99 36.99,28.98 Z" fill="rgb(1, 67, 124)"/>
<path d="M 31.79,21.384999999999998 C 39.3,21.4 45.06,23.67 47,24.8 C 43.57,21.5 36.91,20 31.3,20 C 15.2,20 8.45,29 8,30 C 13.61,25 22.4,21.4 31.8,21.4 Z" fill="rgb(245, 25, 39)"/>
<path d="M 10.26,28.785 L 11.44,35 H 14.84 L 22.02,21 H 18.58 L 13.96,31.63 L 13.49,27.03 L 10.27,28.8 Z" fill="rgb(1, 67, 124)"/>
</svg>
