<?xml version="1.0" encoding="UTF-8"?>
<!-- generated by Finnhub -->
<svg viewBox="0 0 55.5 55.5" xmlns="http://www.w3.org/2000/svg">
<path d="M 0,0 H 55.5 V 55.5 H 0 Z" fill="rgb(12, 22, 39)"/>
<path d="M 11.46,19.745 L 11.65,19.51 C 12.02,19.7 12.74,20.23 13.27,21.11 C 13.17,20.75 12.94,20.34 12.54,19.95 L 12.71,19.7 C 13.09,19.88 13.77,20.51 14.08,21.75 C 14.09,21.39 13.98,20.9 13.6,20.31 L 13.82,20.09 C 14.12,20.29 14.62,20.94 14.78,22.05 A 3.1,3.1 0 0,0 14.89,21.62 C 14.91,21.51 14.9,21.42 14.89,21.37 L 15.19,21.27 A 3.34,3.34 0 0,1 15.35,22.38 A 2.35,2.35 0 0,0 15.53,22 V 21.92 L 15.84,21.9 V 22.03 A 6,6 0 0,1 15.76,22.79 L 16.23,22.22 L 16.21,22.7 A 2.82,2.82 0 0,1 15.99,23.6 L 16.59,23.33 L 16.46,23.68 C 16.42,23.78 16.34,23.96 16.23,24.12 L 16.21,24.14 L 16.85,24 L 16.18,24.86 H 16.68 L 16.61,25.06 C 16.56,25.21 16.48,25.45 16.37,25.68 C 16.27,25.9 16.12,26.14 15.95,26.27 L 15.75,26.02 C 15.86,25.94 15.98,25.76 16.08,25.54 C 16.14,25.42 16.2,25.29 16.24,25.17 H 15.66 C 15.69,26.02 15.33,26.62 14.89,27.02 L 15.03,26.96 C 15.29,26.84 15.53,26.72 15.73,26.59 C 15.93,26.47 16.06,26.35 16.13,26.25 V 26.23 L 16.15,26.21 C 16.33,26.06 16.6,25.77 16.84,25.39 C 17.07,25.02 17.27,24.58 17.3,24.13 V 24.03 L 17.4,23.99 C 17.92,23.82 18.61,23.44 19.01,22.84 C 19.21,22.55 19.34,22.21 19.35,21.81 C 19.35,21.41 19.24,20.95 18.93,20.43 L 19.16,20.23 C 19.52,20.51 19.94,21.06 20.03,21.8 C 20.09,22.36 19.97,23.02 19.5,23.74 C 19.89,23.39 20.24,22.86 20.27,22.16 L 20.58,22.13 C 20.67,22.5 20.68,23.09 20.46,23.68 C 20.3,24.07 20.04,24.45 19.63,24.77 L 19.82,24.7 C 20.18,24.54 20.52,24.26 20.69,23.79 L 20.99,23.84 C 20.99,24.36 20.61,25.31 19.32,25.74 L 19.58,25.73 C 19.97,25.68 20.38,25.52 20.71,25.13 L 21.06,24.7 L 20.99,25.24 C 20.95,25.54 20.75,25.94 20.29,26.21 A 2.3,2.3 0 0,1 19.49,26.5 C 19.86,26.52 20.3,26.48 20.79,26.37 L 21.33,26.24 L 20.95,26.63 C 20.63,26.96 19.78,27.42 18.56,27.28 C 18.96,27.44 19.53,27.57 20.28,27.5 L 20.75,27.46 L 20.4,27.77 C 19.96,28.16 18.88,28.6 17.6,27.85 C 17.87,28.15 18.4,28.48 19.4,28.58 L 19.86,28.63 L 19.47,28.87 C 19.19,29.05 18.7,29.21 18.15,29.09 A 2.3,2.3 0 0,1 16.84,28.23 C 16.95,28.56 17.24,28.96 17.88,29.25 L 17.93,29.27 L 17.99,29.26 H 18.83 C 20.13,30.21 21.83,30.26 21.88,29.75 C 21.91,29.44 21.78,29.39 21.5,29.29 C 21.3,29.22 21.04,29.12 20.7,28.91 C 20.03,28.48 20.55,27.99 20.9,27.81 C 20.7,28.04 21.09,28.46 21.3,28.64 C 22.29,28.74 22.51,29.31 22.5,29.58 C 22.61,31.06 20.73,30.95 19.78,30.72 C 21.06,31.4 21.28,32.45 20.9,33.12 C 20.6,33.67 19.56,33.35 19.07,33.12 C 19.31,32.97 19.65,32.38 19.78,32.1 C 18.95,32.55 17.93,31.8 17.52,31.37 C 17.72,31.72 16.79,32.61 16.13,32.8 C 15.48,33 14.56,33.05 14.2,32.45 C 13.92,31.97 15.17,31.85 15.83,31.85 C 15.03,31.68 14.83,31.22 14.83,31.02 C 14.59,31.08 13.83,30.85 13.49,30.72 C 12.64,31.09 11.35,32.25 10.62,32.9 L 10.15,33.32 C 9.76,33.62 8.65,33.96 8.13,33.32 C 7.72,32.8 9.07,32.12 9.79,31.86 L 11.29,30.04 L 10.89,29.58 C 10.75,29.87 9.9,30.01 9.49,30.04 C 9.65,30.59 9.73,31.73 8.84,31.86 C 7.72,32.02 8,30.66 8.14,30.04 C 8.24,29.54 8.64,29.19 8.84,29.07 L 10.14,28.04 C 10.06,27.04 10.6,26.35 10.88,26.12 C 10.42,25.84 10.46,25.28 10.53,25.04 C 10.7,25.27 11.83,25.58 11.86,25.04 C 11.88,24.6 10.98,24.52 10.53,24.53 L 10.36,23.83 C 10.65,23.05 12.01,22.71 12.65,22.63 L 13.03,22.66 A 6.21,6.21 0 0,0 11.47,19.76 Z M 13.22,22.69 C 13.62,22.76 14.1,22.9 14.52,23.17 V 22.69 C 14.51,22.32 14.47,21.99 14.4,21.71 C 14.4,22.08 14.29,22.37 14.17,22.52 L 13.93,22.83 L 13.89,22.45 C 13.84,22.05 13.76,21.71 13.65,21.42 C 13.68,21.64 13.67,21.82 13.65,21.95 L 13.54,22.49 L 13.34,21.98 C 13.14,21.47 12.87,21.04 12.59,20.7 C 13.04,21.48 13.28,22.26 13.35,22.66 L 13.22,22.69 Z M 14.57,23.2 A 2.3,2.3 0 0,1 15.65,25.03 L 16.07,24.5 L 15.72,24.57 L 15.62,24.27 C 15.74,24.21 15.85,24.1 15.95,23.97 L 15.58,24.13 L 15.42,23.86 A 1.15,1.15 0 0,0 15.79,23.26 L 15.47,23.64 A 0.74,0.74 0 0,1 15.39,23.74 L 15.15,23.53 L 15.22,23.45 A 2.63,2.63 0 0,0 15.43,22.84 L 15.31,23.01 L 15.29,23.04 L 15.21,23.16 L 15.18,23.2 V 23.21 L 14.88,23.09 L 14.9,23.07 C 15,22.83 15.04,22.55 15.04,22.27 C 14.96,22.47 14.88,22.64 14.81,22.77 L 14.57,23.2 Z M 16.73,29.45 A 1.62,1.62 0 0,1 16.33,29.12 L 16.37,29.45 H 16.73 Z M 15.95,29.45 A 4.73,4.73 0 0,1 14.91,28.45 L 14.76,28.57 L 14.58,28.42 C 14.13,28.75 13.18,29.3 13.03,28.91 C 12.89,28.54 13.38,27.73 13.69,27.31 V 27.81 C 14.06,27.69 14.64,27.49 15.17,27.25 C 15.43,27.13 15.69,26.99 15.9,26.85 C 16.1,26.73 16.27,26.59 16.38,26.43 C 16.58,26.26 16.86,25.95 17.1,25.56 C 17.34,25.19 17.55,24.74 17.6,24.26 C 18.15,24.06 18.85,23.65 19.27,23.02 A 2.17,2.17 0 0,0 19.65,21.49 L 19.72,21.83 C 19.79,22.47 19.58,23.3 18.7,24.25 L 18.87,24.5 C 19.24,24.36 19.85,23.98 20.23,23.35 A 2.27,2.27 0 0,1 18.76,24.89 L 18.81,25.19 A 2.54,2.54 0 0,0 20.23,24.83 A 2.8,2.8 0 0,1 18.53,25.61 L 17.93,25.69 L 18.49,25.91 A 2.46,2.46 0 0,0 20.24,25.87 L 20.14,25.94 C 19.76,26.17 19.14,26.32 18.16,26.18 L 18.06,26.46 C 18.35,26.64 19.08,26.88 20.08,26.8 C 19.58,27 18.81,27.1 17.86,26.8 L 17.36,26.65 L 17.69,27.05 C 17.92,27.34 18.59,27.78 19.68,27.83 C 19.13,28.03 18.28,28.04 17.31,27.26 L 17.03,27.04 L 17.05,27.4 C 17.08,27.82 17.52,28.51 18.77,28.8 C 18.6,28.82 18.41,28.83 18.21,28.78 C 17.76,28.68 17.24,28.37 16.77,27.58 L 16.57,27.23 L 16.48,27.63 C 16.4,28 16.51,28.76 17.35,29.31 C 17.25,29.31 17.15,29.29 17.05,29.25 C 16.77,29.15 16.45,28.9 16.21,28.35 L 15.91,28.44 L 16.05,29.45 H 15.95 Z M 12.87,22.96 C 13.5,22.88 14.22,23.36 14.49,23.61 L 14.33,23.71 C 14.05,23.53 13.23,23.14 12.87,22.96 Z M 11.23,31.58 L 13.01,30.56 A 5.2,5.2 0 0,1 14.22,29.2 H 14.33 C 14.1,29.41 13.66,29.88 13.74,30 C 13.83,30.1 14.1,30.11 14.22,30.1 L 14.56,29.8 C 14.4,29.96 14.15,30.29 14.33,30.35 C 14.52,30.4 14.85,30.13 14.99,29.99 C 14.84,30.19 14.59,30.56 14.81,30.56 C 15.03,30.56 15.36,30.26 15.51,30.1 C 15.44,30.25 15.34,30.56 15.51,30.56 S 15.96,30.26 16.08,30.1 A 9.73,9.73 0 0,1 14.56,28.77 C 14.18,29.01 13.36,29.45 13.21,29.34 C 13.01,29.2 12.21,28.54 12.21,28.15 C 12.21,27.85 12.65,27.41 12.87,27.23 C 12.65,27.31 12.14,27.55 11.86,27.93 C 11.9,27.7 12.17,27.19 12.87,26.86 C 13.74,26.46 14.56,26.03 14.56,25.15 C 14.58,25.43 14.57,26.12 14.33,26.53 C 14.55,26.38 14.99,25.91 14.99,25.15 C 15.01,25.51 14.96,26.35 14.56,26.74 C 14.86,26.57 15.42,26.02 15.35,25.14 C 15.28,24.27 14.88,24.06 14.69,24.07 C 14.57,24.34 14.23,24.93 13.83,25.15 C 13.78,25.31 13.49,25.73 12.76,26.08 C 12.04,26.44 11.86,26.67 11.86,26.74 L 13.53,26.08 C 12.76,26.44 11.23,27.31 11.23,27.92 C 11.23,28.53 11.37,28.74 11.45,28.77 L 11.61,27.92 L 11.75,29.2 L 11.85,28.57 L 12.87,29.8 C 12.94,29.93 12.95,30.26 12.47,30.56 C 11.86,30.93 11.23,31.37 11.23,31.58 Z M 8.59,29.68 L 10.17,28.58 C 10.32,28.58 10.3,29.14 10.27,29.43 L 9.22,29.56 C 9.17,29.78 9.09,30.31 9.12,30.71 C 9.15,31.2 8.59,31.53 8.44,31.26 C 8.32,31.06 8.49,30.13 8.59,29.69 Z M 8.44,33.04 C 8.32,32.85 9.05,32.58 9.44,32.46 C 9.55,32.42 9.81,32.18 10.05,31.96 C 10.23,31.8 10.4,31.64 10.5,31.58 C 10.57,31.55 10.7,31.36 10.88,31.12 C 11.34,30.5 12.06,29.53 12.46,29.8 C 13.01,30.17 11.78,30.8 11.61,30.84 C 11.46,30.87 11.14,31.44 11,31.72 L 11.08,31.94 C 10.63,32.36 9.66,33.24 9.43,33.31 C 9.23,33.38 9.26,33.11 9.31,32.91 C 9.25,33.09 9.11,33.34 8.89,33.31 C 8.63,33.29 8.85,33 9,32.84 C 8.85,32.99 8.55,33.21 8.44,33.04 Z M 13.93,23.83 C 14.06,23.81 14.33,23.85 14.33,24.14 C 14.33,24.51 13.68,24.82 13.53,24.48 C 13.38,24.14 13.53,23.94 13.93,23.83 Z M 12.55,23.19 Z M 12.76,23.61 C 12.75,23.49 12.69,23.28 12.61,23.21 C 12.91,23.33 13.41,23.59 13.36,23.83 C 13.33,23.95 13.26,24.01 13.19,24.07 C 13.09,24.17 13.01,24.24 13.21,24.48 C 13.38,24.69 13.19,24.78 13.01,24.86 C 12.85,24.93 12.71,25 12.87,25.15 C 13.21,25.45 13.16,25.85 12.77,25.69 C 12.62,25.63 12.47,25.7 12.31,25.79 C 12.01,25.96 11.64,26.16 11.02,25.77 C 11.43,25.77 12.28,25.66 12.4,25.29 C 12.49,25.03 12.42,24.74 12.36,24.5 C 12.32,24.32 12.29,24.17 12.32,24.07 C 12.4,23.83 12.53,23.61 12.76,23.61 Z M 12.21,24.94 C 12.08,24.81 11.81,24.44 11.79,23.96 H 11.61 C 11.35,24.11 10.85,24.28 10.92,23.83 C 11,23.38 11.62,23.5 11.92,23.61 C 11.95,23.47 12.02,23.19 12.16,23.19 C 12.29,23.19 12.17,23.71 12.09,23.96 L 12.21,24.94 Z M 16.37,31.58 C 16.61,31.3 16.96,31.47 17.1,31.58 C 16.86,31.88 16.28,32.49 15.92,32.61 C 15.47,32.75 14.12,32.46 15.07,32.34 C 15.87,32.24 16.04,32.02 16.25,31.74 L 16.37,31.58 Z M 20.33,32 L 19.57,33.04 C 19.84,33.07 20.41,33.08 20.55,32.87 C 20.72,32.61 20.8,32.11 20.33,32 Z M 17.31,29.8 C 16.72,29.8 16.24,30.17 16.08,30.35 C 16.75,30.28 17.42,30.82 17.96,31.25 C 18.2,31.45 18.41,31.63 18.59,31.72 C 19.19,32.02 19.99,31.58 20.05,31.42 C 20.1,31.29 19.41,30.86 19.06,30.66 A 0.76,0.76 0 0,1 18.52,31.28 C 18.92,30.76 18.59,30.35 18.28,30.23 C 18.04,30.13 18.07,30.03 18.11,29.99 C 18.45,29.69 18.57,29.77 18.84,29.97 C 19.08,30.14 19.44,30.39 20.18,30.56 C 21.76,30.92 22.14,30.26 22.28,29.8 C 22.38,29.44 22.06,29.25 21.88,29.2 C 22.14,29.32 22.16,29.65 22.14,29.8 C 22.09,30.43 20.91,30.5 20.34,30.45 A 8.02,8.02 0 0,0 18.59,29.61 C 18.21,29.51 18.08,29.58 17.92,29.66 A 1.2,1.2 0 0,1 17.31,29.8 Z M 44.53,19.76 L 44.35,19.51 C 43.98,19.7 43.26,20.23 42.73,21.11 C 42.83,20.75 43.06,20.34 43.46,19.95 L 43.29,19.7 C 42.91,19.88 42.23,20.51 41.92,21.75 C 41.91,21.39 42.02,20.9 42.4,20.31 L 42.18,20.09 C 41.88,20.29 41.38,20.94 41.22,22.05 A 3.1,3.1 0 0,1 41.11,21.62 A 0.58,0.58 0 0,1 41.11,21.37 L 40.81,21.27 A 3.34,3.34 0 0,0 40.65,22.38 A 2.35,2.35 0 0,1 40.47,22 V 21.92 L 40.16,21.9 V 22.03 C 40.16,22.24 40.19,22.52 40.24,22.79 L 39.77,22.22 L 39.79,22.7 A 2.82,2.82 0 0,0 40.01,23.6 L 39.41,23.33 L 39.54,23.68 C 39.58,23.78 39.66,23.96 39.77,24.12 L 39.79,24.14 L 39.15,24 L 39.82,24.86 H 39.32 L 39.39,25.06 C 39.44,25.21 39.52,25.45 39.63,25.68 C 39.73,25.9 39.88,26.14 40.05,26.27 L 40.25,26.02 C 40.14,25.94 40.02,25.76 39.92,25.54 A 4.3,4.3 0 0,1 39.76,25.17 H 40.34 C 40.31,26.02 40.67,26.62 41.11,27.02 L 40.97,26.96 C 40.71,26.84 40.47,26.72 40.27,26.59 C 40.07,26.47 39.94,26.35 39.87,26.25 V 26.23 L 39.85,26.21 A 3.98,3.98 0 0,1 39.16,25.39 A 2.78,2.78 0 0,1 38.7,24.13 V 24.03 L 38.6,23.99 A 3.24,3.24 0 0,1 36.99,22.84 C 36.79,22.55 36.66,22.21 36.65,21.81 C 36.65,21.41 36.76,20.95 37.07,20.43 L 36.84,20.23 C 36.48,20.51 36.06,21.06 35.97,21.8 C 35.91,22.36 36.03,23.02 36.5,23.74 A 2.22,2.22 0 0,1 35.73,22.16 L 35.42,22.13 C 35.33,22.5 35.32,23.09 35.54,23.68 C 35.7,24.07 35.96,24.45 36.37,24.77 A 2.05,2.05 0 0,1 36.18,24.7 C 35.82,24.54 35.48,24.26 35.31,23.79 L 35.01,23.84 C 35.01,24.36 35.39,25.31 36.68,25.74 L 36.42,25.73 A 1.7,1.7 0 0,1 35.29,25.13 L 34.94,24.7 L 35.01,25.24 C 35.05,25.54 35.25,25.94 35.71,26.21 C 35.91,26.34 36.19,26.44 36.51,26.5 A 4.8,4.8 0 0,1 35.21,26.37 L 34.67,26.24 L 35.05,26.63 C 35.37,26.96 36.22,27.42 37.44,27.28 C 37.04,27.44 36.47,27.57 35.72,27.5 L 35.25,27.46 L 35.6,27.77 C 36.04,28.16 37.12,28.6 38.4,27.85 C 38.13,28.15 37.6,28.48 36.6,28.58 L 36.14,28.63 L 36.53,28.87 C 36.81,29.05 37.3,29.21 37.85,29.09 C 38.29,28.99 38.75,28.74 39.16,28.23 C 39.05,28.56 38.76,28.96 38.12,29.25 L 38.07,29.27 L 38.01,29.26 H 37.17 C 35.87,30.21 34.17,30.26 34.12,29.75 C 34.09,29.44 34.22,29.39 34.5,29.29 C 34.7,29.22 34.96,29.12 35.3,28.91 C 35.97,28.48 35.45,27.99 35.1,27.81 C 35.3,28.04 34.91,28.46 34.7,28.64 C 33.71,28.74 33.49,29.31 33.5,29.58 C 33.39,31.06 35.27,30.95 36.22,30.72 C 34.94,31.4 34.72,32.45 35.1,33.12 C 35.4,33.67 36.44,33.35 36.93,33.12 A 3.31,3.31 0 0,1 36.22,32.1 C 37.05,32.55 38.07,31.8 38.48,31.37 C 38.28,31.72 39.21,32.61 39.87,32.8 C 40.52,33 41.44,33.05 41.8,32.45 C 42.08,31.97 40.83,31.85 40.17,31.85 C 40.97,31.68 41.17,31.22 41.17,31.02 C 41.41,31.08 42.17,30.85 42.51,30.72 C 43.36,31.09 44.65,32.25 45.38,32.9 L 45.85,33.32 C 46.24,33.62 47.35,33.96 47.87,33.32 C 48.28,32.8 46.93,32.12 46.21,31.86 L 44.71,30.04 L 45.12,29.58 C 45.25,29.87 46.1,30.01 46.51,30.04 C 46.35,30.59 46.27,31.73 47.16,31.86 C 48.28,32.02 48.01,30.66 47.86,30.04 C 47.76,29.54 47.36,29.19 47.16,29.07 L 45.86,28.04 C 45.94,27.04 45.4,26.35 45.12,26.12 C 45.58,25.84 45.54,25.28 45.47,25.04 C 45.3,25.27 44.17,25.58 44.14,25.04 C 44.12,24.6 45.02,24.52 45.47,24.53 L 45.64,23.83 C 45.35,23.05 43.99,22.71 43.35,22.63 L 42.97,22.66 C 43.1,22.05 43.57,20.69 44.53,19.76 Z M 42.78,22.69 A 3.6,3.6 0 0,0 41.48,23.17 V 22.69 C 41.49,22.32 41.53,21.99 41.6,21.71 C 41.6,22.08 41.71,22.37 41.83,22.52 L 42.07,22.83 L 42.11,22.45 C 42.16,22.05 42.24,21.71 42.35,21.42 C 42.32,21.64 42.33,21.82 42.35,21.95 L 42.46,22.49 L 42.66,21.98 C 42.86,21.47 43.13,21.04 43.41,20.7 A 6.7,6.7 0 0,0 42.65,22.66 L 42.78,22.69 Z M 41.43,23.2 A 2.3,2.3 0 0,0 40.35,25.03 L 39.93,24.5 L 40.28,24.57 L 40.38,24.27 A 1.05,1.05 0 0,1 40.05,23.97 L 40.42,24.13 L 40.58,23.86 A 1.15,1.15 0 0,1 40.21,23.26 L 40.53,23.64 L 40.61,23.74 L 40.85,23.53 L 40.78,23.45 A 1.02,1.02 0 0,1 40.68,23.24 A 2.63,2.63 0 0,1 40.57,22.84 L 40.69,23.01 L 40.71,23.04 L 40.79,23.16 L 40.82,23.2 V 23.21 L 41.12,23.09 L 41.1,23.07 A 1.9,1.9 0 0,1 40.96,22.27 C 41.04,22.47 41.12,22.64 41.19,22.77 L 41.43,23.2 Z M 39.27,29.45 C 39.41,29.37 39.55,29.26 39.67,29.12 L 39.63,29.45 H 39.27 Z M 40.05,29.45 L 40.18,29.36 C 40.42,29.19 40.73,28.91 41.09,28.46 L 41.24,28.56 L 41.42,28.42 C 41.87,28.75 42.82,29.3 42.97,28.91 C 43.11,28.54 42.62,27.73 42.31,27.31 V 27.81 C 41.94,27.69 41.36,27.49 40.83,27.25 A 5.93,5.93 0 0,1 40.1,26.85 C 39.9,26.73 39.73,26.59 39.62,26.43 C 39.42,26.26 39.14,25.95 38.9,25.56 A 3.17,3.17 0 0,1 38.4,24.26 C 37.85,24.06 37.15,23.65 36.73,23.02 A 2.17,2.17 0 0,1 36.35,21.49 L 36.28,21.83 C 36.21,22.47 36.42,23.3 37.3,24.25 L 37.13,24.5 A 2.92,2.92 0 0,1 35.77,23.35 L 35.84,23.56 C 36.04,24.08 36.44,24.59 37.24,24.88 L 37.19,25.18 A 2.54,2.54 0 0,1 35.77,24.83 C 36.09,25.17 36.62,25.49 37.47,25.61 L 38.07,25.69 L 37.51,25.91 A 2.46,2.46 0 0,1 35.76,25.87 L 35.86,25.94 C 36.24,26.17 36.86,26.32 37.84,26.18 L 37.94,26.46 C 37.65,26.64 36.92,26.88 35.92,26.8 C 36.42,27 37.19,27.1 38.14,26.8 L 38.64,26.65 L 38.31,27.05 C 38.08,27.34 37.41,27.78 36.32,27.83 C 36.87,28.03 37.72,28.04 38.69,27.26 L 38.97,27.04 L 38.95,27.4 C 38.92,27.82 38.48,28.51 37.23,28.8 C 37.4,28.82 37.59,28.83 37.79,28.78 C 38.24,28.68 38.76,28.37 39.23,27.58 L 39.43,27.23 L 39.52,27.63 C 39.6,28 39.49,28.76 38.65,29.31 C 38.75,29.31 38.85,29.29 38.95,29.25 C 39.23,29.15 39.55,28.9 39.79,28.35 L 40.09,28.44 L 39.95,29.45 H 40.05 Z M 43.13,22.96 C 42.5,22.88 41.78,23.36 41.51,23.61 L 41.67,23.71 C 41.95,23.53 42.77,23.14 43.13,22.96 Z M 44.77,31.58 L 42.99,30.56 A 5.2,5.2 0 0,0 41.78,29.2 H 41.67 C 41.9,29.41 42.34,29.88 42.26,30 C 42.17,30.1 41.9,30.11 41.78,30.1 L 41.44,29.8 C 41.6,29.96 41.85,30.29 41.67,30.35 C 41.48,30.4 41.15,30.13 41.01,29.99 C 41.16,30.19 41.41,30.56 41.19,30.56 C 40.97,30.56 40.64,30.26 40.49,30.1 C 40.56,30.25 40.66,30.56 40.49,30.56 S 40.04,30.26 39.92,30.1 C 40.32,29.81 41.17,29.14 41.44,28.77 C 41.82,29.01 42.64,29.45 42.79,29.34 C 42.99,29.2 43.79,28.54 43.79,28.15 C 43.79,27.85 43.35,27.41 43.13,27.23 C 43.35,27.31 43.86,27.55 44.14,27.93 C 44.1,27.7 43.83,27.19 43.13,26.86 C 42.26,26.46 41.44,26.03 41.44,25.15 C 41.42,25.43 41.43,26.12 41.67,26.53 A 1.68,1.68 0 0,1 41.01,25.15 C 40.99,25.51 41.04,26.35 41.44,26.74 A 1.7,1.7 0 0,1 40.65,25.14 C 40.72,24.27 41.12,24.06 41.31,24.07 C 41.43,24.34 41.77,24.93 42.17,25.15 C 42.22,25.31 42.51,25.73 43.24,26.08 C 43.96,26.44 44.14,26.67 44.14,26.74 L 42.47,26.08 C 43.24,26.44 44.77,27.31 44.77,27.92 C 44.77,28.53 44.63,28.74 44.55,28.77 L 44.39,27.92 L 44.25,29.2 L 44.15,28.57 L 43.13,29.8 C 43.06,29.93 43.05,30.26 43.53,30.56 C 44.14,30.93 44.77,31.37 44.77,31.58 Z M 47.41,29.68 L 45.83,28.58 C 45.68,28.58 45.7,29.14 45.73,29.43 L 46.78,29.56 C 46.83,29.78 46.91,30.31 46.88,30.71 C 46.85,31.2 47.41,31.53 47.56,31.26 C 47.68,31.06 47.51,30.13 47.41,29.69 Z M 47.56,33.04 C 47.68,32.85 46.95,32.58 46.56,32.46 A 3.04,3.04 0 0,1 45.95,31.96 A 4.13,4.13 0 0,0 45.5,31.58 C 45.43,31.55 45.3,31.36 45.12,31.12 C 44.66,30.5 43.94,29.53 43.54,29.8 C 42.99,30.17 44.22,30.8 44.39,30.84 C 44.54,30.87 44.86,31.44 45,31.72 L 44.92,31.94 C 45.37,32.36 46.34,33.24 46.57,33.31 C 46.77,33.38 46.74,33.11 46.69,32.91 C 46.75,33.09 46.89,33.34 47.11,33.31 C 47.37,33.29 47.15,33 47,32.84 C 47.15,32.99 47.45,33.21 47.56,33.04 Z M 42.07,23.83 C 41.94,23.81 41.67,23.85 41.67,24.14 C 41.67,24.51 42.32,24.82 42.47,24.48 C 42.62,24.14 42.47,23.94 42.07,23.83 Z M 43.45,23.19 Z M 43.24,23.61 C 43.25,23.49 43.31,23.28 43.39,23.21 C 43.09,23.33 42.59,23.59 42.64,23.83 C 42.67,23.95 42.74,24.01 42.81,24.07 C 42.91,24.17 42.99,24.24 42.79,24.48 C 42.62,24.69 42.81,24.78 42.99,24.86 C 43.15,24.93 43.29,25 43.13,25.15 C 42.79,25.45 42.84,25.85 43.23,25.69 C 43.38,25.63 43.53,25.7 43.69,25.79 C 43.99,25.96 44.36,26.16 44.98,25.77 C 44.57,25.77 43.72,25.66 43.6,25.29 C 43.51,25.03 43.58,24.74 43.64,24.5 C 43.68,24.32 43.72,24.17 43.68,24.07 C 43.6,23.83 43.47,23.61 43.24,23.61 Z M 43.79,24.94 C 43.92,24.81 44.19,24.44 44.21,23.96 H 44.39 C 44.65,24.11 45.15,24.28 45.08,23.83 C 45,23.38 44.38,23.5 44.08,23.61 C 44.05,23.47 43.98,23.19 43.84,23.19 C 43.71,23.19 43.83,23.71 43.91,23.96 L 43.79,24.94 Z M 39.63,31.58 C 39.39,31.3 39.04,31.47 38.9,31.58 C 39.14,31.88 39.72,32.49 40.08,32.61 C 40.53,32.75 41.88,32.46 40.93,32.34 C 40.13,32.24 39.96,32.02 39.75,31.74 L 39.63,31.58 Z M 35.67,32 L 36.43,33.04 C 36.16,33.07 35.59,33.08 35.45,32.87 C 35.28,32.61 35.2,32.11 35.67,32 Z M 38.69,29.8 C 39.28,29.8 39.76,30.17 39.92,30.35 C 39.25,30.28 38.58,30.82 38.04,31.25 C 37.8,31.45 37.59,31.63 37.41,31.72 C 36.81,32.02 36.01,31.58 35.95,31.42 C 35.9,31.29 36.59,30.86 36.94,30.66 C 37,31.06 37.33,31.24 37.48,31.28 C 37.08,30.76 37.41,30.35 37.72,30.23 C 37.96,30.13 37.93,30.03 37.89,29.99 C 37.55,29.69 37.43,29.77 37.16,29.97 C 36.92,30.14 36.56,30.39 35.82,30.56 C 34.24,30.92 33.86,30.26 33.72,29.8 C 33.62,29.44 33.94,29.25 34.12,29.2 C 33.86,29.32 33.84,29.65 33.86,29.8 C 33.91,30.43 35.09,30.5 35.66,30.45 A 8.02,8.02 0 0,1 37.41,29.61 C 37.79,29.51 37.92,29.58 38.08,29.66 C 38.21,29.72 38.37,29.8 38.69,29.8 Z" fill="rgb(254, 254, 253)" fill-rule="evenodd"/>
<path d="M 28.15,11.985 H 27.83 V 12.34 H 27.49 V 12.66 H 27.83 V 12.82 A 0.67,0.67 0 0,0 27.53,13.96 H 26.19 A 1.1,1.1 0 0,0 25.11,14.78 H 23.91 C 22.86,15.05 22.91,15.99 23.06,16.46 C 22.85,16.54 22.66,16.64 22.55,16.71 A 2.95,2.95 0 0,1 24.6,19.01 C 25.7,18.61 26.9,18.48 28,18.49 V 18.04 C 27.47,18.04 26.88,18.07 26.3,18.14 L 25.86,17.57 C 26.24,17.47 27.02,17.37 28,17.38 V 16.3 V 17.38 C 28.6,17.38 29.27,17.44 29.98,17.57 L 29.79,18.14 C 29.45,18.1 28.79,18.04 27.99,18.04 V 18.49 C 29.09,18.48 30.29,18.61 31.39,19.01 C 31.46,18.45 31.95,17.21 33.44,16.71 C 33.33,16.64 33.14,16.54 32.93,16.46 C 33.09,15.99 33.13,15.06 32.07,14.78 H 30.87 A 1.1,1.1 0 0,0 29.8,13.96 H 28.46 A 0.67,0.67 0 0,0 28.16,12.82 V 12.66 H 28.5 V 12.34 H 28.16 V 12 Z M 27.91,14.14 A 0.7,0.7 0 0,0 28.07,14.14 C 28.22,14.48 28.4,15.03 28.35,15.4 C 28.51,15.3 28.82,15 28.74,14.63 C 29.03,14.63 29.64,14.81 29.8,15.56 C 29.94,15.39 30.1,14.91 29.56,14.41 C 29.92,14.41 30.63,14.64 30.68,15.56 C 30.74,15.56 30.8,15.5 30.88,15.44 C 31.06,15.28 31.31,15.06 31.7,15.4 C 32.14,15.8 32.2,16.11 32.17,16.22 C 32.33,16.08 32.55,15.68 32.17,15.21 C 32.41,15.45 32.88,16.03 32.91,16.45 A 1.56,1.56 0 0,0 31.84,16.42 C 31.79,16.96 31.57,17.78 31.06,16.72 C 30.73,16.97 30.1,17.28 30.28,16.42 V 16.32 L 30.3,16.16 L 30.64,16.22 L 30.69,15.9 L 30.35,15.85 L 30.4,15.51 L 30.08,15.46 L 30.03,15.8 L 29.69,15.75 L 29.64,16.07 L 29.98,16.12 L 29.96,16.29 C 29.86,16.59 29.68,17.01 29.44,16.85 C 29.16,16.67 29.08,16.32 29.08,16.17 C 28.8,16.6 28.24,17.17 28.16,16.23 V 15.95 H 28.5 V 15.63 H 28.16 V 15.29 H 27.83 V 15.63 H 27.49 V 15.95 H 27.83 V 16.27 C 27.73,17.16 27.19,16.59 26.91,16.17 C 26.91,16.32 26.83,16.67 26.56,16.85 C 26.3,17.02 26.11,16.57 26.03,16.25 L 26,16.12 L 26.35,16.07 L 26.3,15.75 L 25.96,15.8 L 25.91,15.46 L 25.59,15.51 L 25.64,15.85 L 25.3,15.9 L 25.34,16.22 L 25.69,16.17 L 25.71,16.35 V 16.42 C 25.89,17.28 25.27,16.97 24.93,16.72 C 24.43,17.78 24.2,16.96 24.15,16.42 A 1.56,1.56 0 0,0 23.07,16.45 C 23.11,16.04 23.57,15.45 23.82,15.21 C 23.44,15.68 23.66,16.08 23.82,16.22 C 23.79,16.12 23.85,15.79 24.29,15.4 C 24.68,15.06 24.93,15.28 25.11,15.44 C 25.19,15.5 25.25,15.56 25.31,15.56 C 25.36,14.64 26.07,14.41 26.43,14.41 C 25.89,14.91 26.05,15.39 26.19,15.56 C 26.35,14.81 26.96,14.63 27.25,14.63 C 27.17,15 27.48,15.3 27.65,15.4 C 27.59,15.03 27.77,14.48 27.91,14.14 Z M 28.36,13.47 C 28.36,13.67 28.19,13.83 27.99,13.83 A 0.36,0.36 0 0,1 27.63,13.47 A 0.36,0.36 0 0,1 28.36,13.47 Z" fill="url(#b)"/>
<path d="M 23.0,20.765 V 20.32 A 11,11 0 0,1 32.91,20.32 V 21.4 C 32.68,21.25 32.39,21.1 32.07,20.96 L 31.77,20.8 V 20.83 A 9.8,9.8 0 0,0 23.01,21.4 V 20.78 Z M 22.7,20.88 V 20.14 L 22.77,20.09 A 11.28,11.28 0 0,1 33.15,20.09 L 33.23,20.13 V 20.87 C 33.76,21.05 34.65,21.39 35.05,21.54 L 35.55,21.73 L 34.09,22.03 L 35.1,23.13 L 34.93,23.39 L 31.78,22.03 V 21.17 A 9.61,9.61 0 0,0 24.19,21.14 V 22.04 L 21.04,23.39 L 20.86,23.14 L 21.88,22.03 L 20.42,21.73 L 20.92,21.53 L 22.7,20.89 Z M 22.7,21.22 L 21.54,21.64 L 22.49,21.84 L 21.59,22.81 L 23.88,21.83 V 21.33 L 22.88,21.84 L 22.7,21.97 V 21.22 Z M 32.87,21.73 L 32.09,21.33 V 21.83 L 34.38,22.81 L 33.48,21.83 L 34.43,21.63 L 33.27,21.22 V 21.94 L 33.23,21.92 V 21.97 L 32.99,21.81 A 5.44,5.44 0 0,0 32.87,21.73 Z" fill="rgb(254, 254, 253)" fill-rule="evenodd"/>
<path d="M 27.95,20.655 C 27.31,20.67 25.81,20.81 24.67,21.34 L 24.58,21.38 V 22.35 L 22.7,22.95 V 25.48 L 22.68,25.47 A 0.83,0.83 0 0,0 22.28,25.32 A 0.5,0.5 0 0,0 21.86,25.5 C 21.76,25.64 21.68,25.83 21.64,26.1 V 28.88 L 21.94,28.94 C 22.01,28.78 22.1,28.62 22.18,28.48 C 22.28,28.33 22.36,28.24 22.43,28.21 A 0.1,0.1 0 0,1 22.46,28.19 L 22.48,28.2 L 22.51,28.24 C 22.57,28.32 22.64,28.52 22.7,28.89 V 31.91 C 22.76,32.41 23.14,33.54 24.21,34.21 H 24.22 A 33.62,33.62 0 0,1 27.31,36.08 A 5.72,5.72 0 0,1 27.74,36.47 L 27.9,36.59 L 27.96,36.66 L 27.98,36.65 L 27.99,36.66 L 28.05,36.59 L 28.21,36.47 L 28.2,36.45 A 15.8,15.8 0 0,1 29.68,35.4 C 30.42,34.93 31.22,34.49 31.73,34.22 H 31.74 A 3.4,3.4 0 0,0 33.26,31.91 V 28.89 C 33.31,28.52 33.38,28.32 33.45,28.24 A 0.17,0.17 0 0,1 33.48,28.2 H 33.53 C 33.59,28.24 33.68,28.33 33.77,28.48 C 33.87,28.62 33.94,28.78 34.01,28.94 L 34.31,28.88 V 26.1 A 1.2,1.2 0 0,0 34.09,25.5 A 0.49,0.49 0 0,0 33.67,25.3 A 0.82,0.82 0 0,0 33.27,25.46 V 25.47 V 22.94 L 31.37,22.34 V 21.37 L 31.28,21.33 A 8.98,8.98 0 0,0 28,20.66 H 27.96 Z M 27.98,20.99 C 27.38,20.99 25.98,21.11 24.9,21.59 V 22.58 L 23.02,23.18 V 26.25 L 22.74,25.94 A 1.28,1.28 0 0,0 22.5,25.73 A 0.51,0.51 0 0,0 22.27,25.63 C 22.21,25.63 22.17,25.64 22.11,25.7 A 0.9,0.9 0 0,0 21.96,26.13 V 28.24 A 1,1 0 0,1 22.27,27.94 A 0.38,0.38 0 0,1 22.54,27.89 C 22.64,27.91 22.71,27.98 22.77,28.06 C 22.88,28.21 22.97,28.47 23.01,28.86 V 31.88 C 23.07,32.32 23.42,33.34 24.38,33.95 A 33.94,33.94 0 0,1 27.5,35.83 A 6,6 0 0,1 27.98,36.23 A 16.07,16.07 0 0,1 29.5,35.14 C 30.25,34.66 31.06,34.22 31.58,33.94 A 3.1,3.1 0 0,0 32.94,31.88 V 28.86 C 33,28.47 33.07,28.21 33.19,28.06 A 0.4,0.4 0 0,1 33.42,27.89 C 33.52,27.87 33.61,27.89 33.68,27.93 A 1,1 0 0,1 34,28.24 V 26.14 A 0.9,0.9 0 0,0 33.85,25.7 C 33.8,25.64 33.75,25.63 33.69,25.63 A 0.51,0.51 0 0,0 33.46,25.73 C 33.37,25.79 33.29,25.86 33.22,25.93 L 32.94,26.25 V 23.17 L 31.06,22.57 V 21.58 A 8.81,8.81 0 0,0 27.98,20.98 Z" fill="rgb(254, 254, 253)" fill-rule="evenodd"/>
<path d="M 27.99,21.195 C 28.31,21.23 28.8,21.26 29.3,21.34 C 29.82,21.42 30.38,21.54 30.77,21.74 L 30.87,21.77 V 22.83 L 32.71,23.33 V 26.03 H 32.39 V 23.57 L 30.54,23.07 V 21.97 A 5.9,5.9 0 0,0 29.25,21.65 C 28.76,21.58 28.29,21.54 27.99,21.53 C 27.69,21.53 27.21,21.58 26.72,21.65 A 5.9,5.9 0 0,0 25.43,21.97 V 23.07 L 23.58,23.57 V 26.02 H 23.27 V 23.33 L 25.11,22.83 V 21.77 L 25.21,21.73 C 25.6,21.55 26.15,21.43 26.67,21.34 C 27.17,21.26 27.67,21.23 27.97,21.21 A 25.92,25.92 0 0,0 28,21.21 Z M 32.7,28.94 V 31.55 C 32.72,32.11 32.4,33.35 31.05,33.91 A 9.63,9.63 0 0,0 28.03,35.92 L 27.99,35.88 L 27.94,35.92 A 9.63,9.63 0 0,0 24.92,33.92 A 2.63,2.63 0 0,1 23.27,31.55 V 28.95 H 23.58 V 31.55 C 23.58,32.03 23.86,33.13 25.05,33.63 A 9.96,9.96 0 0,1 27.99,35.53 A 9.96,9.96 0 0,1 30.93,33.63 A 2.32,2.32 0 0,0 32.39,31.55 V 28.95 H 32.71 Z" fill="rgb(254, 254, 253)"/>
<path d="M 27.33,24.985 H 23.95 V 25.38 H 24.42 C 24.8,25.38 25.04,25.7 25.12,25.86 L 27.85,32 H 28.4 L 30.97,25.86 C 31.22,25.38 31.77,25.34 32.02,25.38 V 25 H 29.6 V 25.38 H 30.11 C 30.51,25.38 30.51,25.7 30.47,25.86 L 28.41,30.33 L 26.54,26.27 C 26.18,25.64 26.53,25.41 26.74,25.38 H 27.34 V 25 Z" fill="url(#a)"/>
<path d="M 10.07,33.805 C 16.02,32.44 20.4,33.38 21.88,34.03 L 22.28,34.21 L 19.11,35.06 L 17.97,35.7 V 37.24 C 18.42,37.3 19.07,37.43 19.76,37.6 C 20.51,37.8 21.31,38.06 21.88,38.39 L 21.73,38.66 C 21.19,38.36 20.43,38.1 19.68,37.91 A 17.8,17.8 0 0,0 17.8,37.53 L 17.66,37.51 V 35.51 L 18.61,34.99 C 15.24,34.33 11.47,34.98 9.96,35.4 L 9.83,35.12 L 10.96,34.42 L 9.55,33.94 L 10.08,33.82 Z M 19.05,34.76 L 21.31,34.15 C 19.63,33.57 15.79,32.93 10.71,34 L 11.7,34.34 L 10.83,34.87 A 20.9,20.9 0 0,1 19.05,34.76 Z M 45.9,33.82 C 39.95,32.44 35.57,33.38 34.1,34.03 L 33.7,34.21 L 36.86,35.06 L 38,35.7 V 37.24 C 37.56,37.3 36.9,37.43 36.22,37.6 C 35.46,37.8 34.67,38.06 34.09,38.39 L 34.25,38.66 C 34.78,38.36 35.55,38.1 36.3,37.91 C 37.04,37.71 37.75,37.59 38.18,37.53 L 38.32,37.51 V 35.51 L 37.36,34.99 C 40.73,34.33 44.51,34.98 46.02,35.4 L 46.14,35.12 L 45.01,34.42 L 46.43,33.94 L 45.89,33.82 Z M 36.93,34.76 L 34.67,34.15 C 36.34,33.57 40.18,32.93 45.27,34 L 44.27,34.34 L 45.14,34.87 A 20.9,20.9 0 0,0 36.93,34.76 Z" fill="rgb(254, 254, 253)"/>
<path d="M 17.84,34.714999999999996 L 19.48,33.59 C 20,33.64 21.25,33.79 22.14,33.99 L 23.7,33.59 L 24.46,34.11 C 25.83,35.03 27.76,36.34 27.98,36.61 C 27.23,36.11 24.77,35.31 21.7,36.17 C 22.7,36.54 24.92,37.53 25.7,38.52 H 21.7 L 20.48,37.8 H 23.96 A 14.85,14.85 0 0,0 17.86,35.68 L 19.13,34.96 L 17.85,34.73 Z M 20.12,34.96 L 23.04,34.27 L 24.89,35.39 L 21.83,35.65 L 20.12,34.96 Z M 37.94,34.82 L 36.31,33.68 C 35.8,33.73 34.54,33.88 33.65,34.08 L 32.1,33.68 L 31.2,34.29 C 29.87,35.18 28.15,36.32 27.98,36.64 C 28.74,36.14 31.02,35.4 34.1,36.26 C 33.1,36.63 30.88,37.62 30.09,38.61 H 34.09 L 35.32,37.9 H 31.83 A 15.7,15.7 0 0,1 38.11,35.7 L 36.84,35.03 L 37.94,34.82 Z M 35.68,35.05 L 32.75,34.37 L 30.91,35.47 L 33.97,35.74 L 35.67,35.05 Z" fill="rgb(254, 254, 253)" fill-rule="evenodd"/>
<path d="M 15.040000000000001,36.805 C 16,36.35 16.9,35.82 17.42,35.48 L 17.6,35.74 A 23.37,23.37 0 0,1 14.32,37.49 L 14.5,37.52 C 14.64,37.54 14.84,37.5 15.1,37.42 C 15.34,37.32 15.63,37.2 15.91,37.06 A 14.8,14.8 0 0,0 17.42,36.17 L 17.6,36.43 C 17.23,36.68 16.64,37.04 16.05,37.33 C 15.76,37.49 15.46,37.62 15.2,37.71 C 14.93,37.8 14.67,37.86 14.47,37.83 C 14.26,37.81 14.06,37.75 13.89,37.67 C 13.35,37.87 12.84,38.01 12.39,38.06 C 11.59,38.14 11.14,37.95 10.94,37.6 C 10.75,37.27 10.84,36.86 10.97,36.6 L 11.25,36.73 C 11.15,36.96 11.1,37.24 11.22,37.45 C 11.32,37.63 11.61,37.82 12.36,37.75 C 12.72,37.71 13.14,37.6 13.59,37.45 A 0.67,0.67 0 0,1 13.44,37.19 C 13.37,36.99 13.43,36.79 13.6,36.6 C 13.77,36.43 14.04,36.28 14.44,36.15 L 14.54,36.45 C 14.16,36.57 13.94,36.7 13.83,36.82 C 13.73,36.93 13.71,37.02 13.73,37.1 C 13.76,37.17 13.82,37.25 13.92,37.32 C 14.29,37.17 14.68,37 15.05,36.82 Z M 11.75,35.75 L 11.7,36.05 C 11.68,36.05 11.63,36.05 11.6,36.03 A 2.73,2.73 0 0,0 11.45,35.99 C 11.34,35.96 11.21,35.94 11.09,35.95 A 0.5,0.5 0 0,0 10.77,36.08 C 10.67,36.16 10.59,36.31 10.55,36.58 C 10.4,37.38 10.91,37.8 11.17,37.9 L 11.05,38.2 A 1.45,1.45 0 0,1 10.22,36.66 A 0.43,0.43 0 0,0 10.04,36.66 A 0.15,0.15 0 0,0 9.95,36.71 C 9.93,36.74 9.91,36.78 9.9,36.87 L 9.59,36.86 C 9.59,36.72 9.63,36.61 9.7,36.52 A 0.47,0.47 0 0,1 9.96,36.35 C 10.06,36.33 10.18,36.33 10.27,36.35 C 10.33,36.13 10.43,35.97 10.55,35.85 C 10.71,35.7 10.89,35.65 11.07,35.63 A 1.45,1.45 0 0,1 11.68,35.73 H 11.69 L 11.74,35.75 A 0.4,0.4 0 0,0 11.76,35.75 Z M 15.95,37.62 A 6.37,6.37 0 0,0 17.41,36.75 L 17.61,36.99 C 17.29,37.25 16.73,37.63 16.08,37.91 A 3.4,3.4 0 0,1 14.03,38.21 L 14.1,37.9 A 3.1,3.1 0 0,0 15.96,37.62 Z M 40.96,36.83 C 40.01,36.37 39.12,35.83 38.59,35.49 L 38.42,35.75 A 23.36,23.36 0 0,0 41.69,37.51 L 41.51,37.54 C 41.38,37.55 41.18,37.51 40.92,37.43 A 6.6,6.6 0 0,1 40.1,37.07 A 14.8,14.8 0 0,1 38.6,36.18 L 38.41,36.44 C 38.78,36.69 39.37,37.05 39.96,37.35 C 40.26,37.5 40.55,37.63 40.82,37.72 C 41.08,37.82 41.34,37.87 41.55,37.85 C 41.75,37.83 41.95,37.77 42.13,37.68 C 42.66,37.88 43.18,38.02 43.63,38.07 C 44.42,38.15 44.88,37.97 45.07,37.61 C 45.27,37.28 45.17,36.87 45.05,36.61 L 44.76,36.75 C 44.86,36.97 44.91,37.25 44.8,37.45 C 44.7,37.65 44.4,37.83 43.66,37.75 A 5.55,5.55 0 0,1 42.43,37.45 A 0.67,0.67 0 0,0 42.58,37.2 C 42.64,37 42.58,36.8 42.41,36.62 A 1.99,1.99 0 0,0 41.58,36.16 L 41.48,36.46 C 41.86,36.58 42.08,36.71 42.18,36.83 C 42.29,36.94 42.3,37.03 42.28,37.11 A 0.47,0.47 0 0,1 42.1,37.33 A 15.4,15.4 0 0,1 40.96,36.83 Z M 44.26,35.76 L 44.31,36.07 A 0.89,0.89 0 0,0 44.42,36.04 L 44.57,36 C 44.67,35.97 44.8,35.95 44.92,35.96 A 0.5,0.5 0 0,1 45.24,36.09 C 45.34,36.18 45.42,36.33 45.47,36.59 C 45.61,37.4 45.1,37.81 44.85,37.92 L 44.96,38.21 C 45.3,38.07 45.9,37.58 45.8,36.67 A 0.43,0.43 0 0,1 45.98,36.67 C 46.02,36.68 46.05,36.7 46.07,36.72 C 46.09,36.75 46.11,36.8 46.11,36.89 L 46.43,36.87 A 0.58,0.58 0 0,0 46.31,36.53 A 0.47,0.47 0 0,0 46.06,36.37 A 0.74,0.74 0 0,0 45.74,36.37 A 1.05,1.05 0 0,0 45.46,35.87 A 0.82,0.82 0 0,0 44.95,35.65 A 1.46,1.46 0 0,0 44.33,35.75 H 44.28 L 44.26,35.76 Z M 40.06,37.63 A 6.36,6.36 0 0,1 38.6,36.76 L 38.4,37 C 38.73,37.27 39.29,37.64 39.93,37.92 A 3.4,3.4 0 0,0 41.99,38.22 L 41.92,37.91 A 3.1,3.1 0 0,1 40.06,37.63 Z M 30.14,37.15 C 29.56,37.58 28.98,38.08 28.63,38.4 L 28.42,38.17 A 24.88,24.88 0 0,1 30.81,36.3 A 3,3 0 0,1 31.53,35.95 L 31.61,36.25 C 31.46,36.29 31.24,36.4 30.98,36.57 C 30.72,36.73 30.43,36.93 30.14,37.15 Z M 23.64,35.96 A 16.9,16.9 0 0,1 26.77,38.16 L 26.57,38.4 A 16.62,16.62 0 0,0 23.51,36.24 L 23.65,35.96 Z M 27.24,38.39 A 13.84,13.84 0 0,0 24.36,36.24 L 24.51,35.97 C 25.16,36.33 26.66,37.29 27.48,38.17 L 27.25,38.39 Z M 30.73,36.97 C 31.33,36.56 31.95,36.19 32.33,35.97 L 32.48,36.24 C 32.11,36.45 31.5,36.82 30.9,37.23 C 30.3,37.63 29.71,38.06 29.36,38.39 L 29.14,38.17 C 29.51,37.81 30.12,37.37 30.73,36.97 Z M 28.03,37.92 L 25.55,35.98 L 25.35,36.22 L 28.03,38.32 L 30.65,36.22 L 30.45,35.98 L 28.03,37.92 Z M 26.31,36.37 L 26.51,36.12 L 28.03,37.26 L 29.42,36.12 L 29.62,36.36 L 28.04,37.66 L 26.31,36.36 Z" fill="rgb(254, 254, 253)"/>
<path d="M 9.99,38.385 H 46 V 39 H 10 Z" fill="rgb(254, 254, 253)"/>
<defs>
<linearGradient id="b" x1="21.97" x2="32.9" y1="15.5" y2="16.93" gradientUnits="userSpaceOnUse">
<stop stop-color="rgb(188, 119, 13)" offset="0"/>
<stop stop-color="rgb(254, 229, 103)" offset="1"/>
</linearGradient>
<linearGradient id="a" x1="25.02" x2="29.57" y1="25.57" y2="27.02" gradientUnits="userSpaceOnUse">
<stop stop-color="rgb(110, 69, 19)" offset="0"/>
<stop stop-color="rgb(254, 233, 129)" offset="1"/>
</linearGradient>
</defs>
</svg>
