<?xml version="1.0" encoding="UTF-8"?>
<!-- generated by Finnhub -->
<svg viewBox="0 0 55.5 55.5" xmlns="http://www.w3.org/2000/svg">
<path d="M 0,0 H 55.5 V 55.5 H 0 Z" fill="rgb(234, 22, 41)"/>
<path d="M 11.99,22.985 H 22 V 33 H 12 Z M 34,28 A 5,5 0 1,1 39,33 H 37 A 3,3 0 0,1 34,30 V 28 Z" fill="rgb(254, 254, 253)"/>
<rect x="23" y="12" width="10" height="10" rx="2" fill="rgb(254, 254, 253)"/>
<rect x="23" y="34" width="10" height="10" rx="2" fill="rgb(254, 254, 253)"/>
<path d="M 21.99,25.985 V 27 L 18,23 H 19 A 4,4 0 0,0 23,19 V 18 H 27 V 22 H 26 A 4,4 0 0,0 22,26 Z M 33,37 V 38 L 29,34 H 30 A 4,4 0 0,0 34,30 V 29 H 38 V 33 H 37 A 4,4 0 0,0 33,37 Z" fill="rgb(254, 254, 253)"/>
</svg>
