<?xml version="1.0" encoding="UTF-8"?>
<!-- generated by Finnhub -->
<svg viewBox="0 0 55.5 55.5" xmlns="http://www.w3.org/2000/svg">
<path d="M 0,0 H 55.5 V 55.5 H 0 Z" fill="rgb(20, 85, 154)"/>
<path d="M 14.950000000000001,30.985 L 20.75,22 H 17.17 L 13.07,27.78 L 14.96,31 Z M 11.64,35 L 4,22 H 4.65 L 12.01,34.36 L 11.64,35 Z M 12.55,33.81 L 5.5,22.01 H 6.43 L 13.06,32.99 L 12.56,33.81 Z M 7.31,22.01 L 13.9,33.01 H 45.97 L 46.67,32 H 14.6 L 8.52,22 H 7.3 Z M 20.51,25.28 L 16.68,30.98 H 17.5 L 21.5,25 L 20.5,25.28 Z M 22.68,31 S 22.26,26.33 21.84,25.31 L 20.96,26.71 L 21.13,28.11 H 20.02 L 19.6,28.78 H 21.22 L 21.5,31 H 22.7 Z M 27.5,29.55 C 26.55,30.91 24.96,31.4 23.9,30.64 C 22.82,29.85 22.7,28.03 23.63,26.57 C 24.57,25.12 26.21,24.57 27.3,25.37 C 27.61,25.59 27.85,25.9 28,26.27 L 27.44,26.5 C 27.3,26.02 27.04,25.74 26.67,25.6 C 25.96,25.36 24.91,26.05 24.45,27.4 C 23.99,28.74 24.3,30.1 25.05,30.38 C 25.72,30.64 26.62,29.97 27.06,29.25 L 27.5,29.55 Z M 28.9,30.64 C 29.96,31.4 31.55,30.91 32.5,29.55 L 32.06,29.25 C 31.62,29.97 30.72,30.65 30.05,30.38 C 29.3,30.1 28.99,28.74 29.45,27.39 C 29.91,26.05 30.96,25.36 31.67,25.59 C 32.05,25.74 32.3,26.02 32.44,26.5 L 33,26.27 A 2.09,2.09 0 0,0 32.3,25.37 C 31.21,24.57 29.57,25.12 28.63,26.57 C 27.69,28.03 27.82,29.85 28.91,30.64 Z M 34.26,24.57 L 35.56,24 L 35.31,24.89 L 34.03,25.4 L 34.26,24.57 Z M 33.96,26.05 L 35.26,25.48 L 34.31,31 H 33.13 L 33.97,26.05 Z M 35.69,31 L 36.52,26 C 36.59,25.67 36.87,25.02 37.49,25 C 38.11,24.98 38.4,25.6 38.55,26 L 39.48,28.4 C 39.53,28.53 39.66,28.64 39.71,28.4 L 39.84,27.6 L 40.29,25 H 40.82 L 39.9,30.52 C 39.88,30.67 39.77,30.97 39.48,31 C 39.12,31.03 38.98,30.62 38.92,30.45 L 37.23,26.29 C 37.18,26.14 37.05,26.11 37.03,26.29 C 37,26.54 36.5,29.6 36.26,31 H 35.69 Z M 42.92,25 H 46 L 45.89,25.52 H 43.84 A 0.6,0.6 0 0,0 43.27,25.92 L 43,27.49 H 45.14 L 45.03,28.12 H 42.9 L 42.53,30.02 C 42.5,30.38 42.76,30.47 42.9,30.46 H 45.13 L 45.02,31 H 41.88 C 41.19,30.97 41.15,30.42 41.21,30.14 L 41.97,25.82 C 42.13,25.11 42.66,24.98 42.9,25 Z M 46.51,25 H 47.99 L 48.87,26.85 L 50.93,24.26 L 52,24 L 49.18,27.56 L 50.78,31 H 49.31 L 48.32,28.86 L 46.81,31 H 46 L 47.98,28.08 L 46.5,25 Z" fill="rgb(254, 254, 253)"/>
</svg>
