<?xml version="1.0" encoding="UTF-8"?>
<!-- generated by Finnhub -->
<svg viewBox="0 0 55.5 55.5" xmlns="http://www.w3.org/2000/svg">
<path d="M 0,0 H 55.5 V 55.5 H 0 Z" fill="rgb(174, 132, 45)"/>
<path d="M 32.68,15.514999999999999 L 40.89,14 A 0.09,0.09 0 0,1 40.98,14.03 A 0.08,0.08 0 0,1 41,14.1 L 31.8,40.95 L 31.76,40.99 A 0.09,0.09 0 0,1 31.71,41 H 22.57 C 22.55,41 22.53,41 22.52,40.98 A 0.08,0.08 0 0,1 22.49,40.94 L 15,18.91 A 0.07,0.07 0 0,1 15.01,18.85 L 15.03,18.82 H 15.07 L 22.19,17.49 H 22.25 L 22.29,17.54 L 27.06,33.47 C 27.06,33.49 27.08,33.5 27.09,33.51 A 0.09,0.09 0 0,0 27.19,33.51 A 0.08,0.08 0 0,0 27.22,33.47 L 32.62,15.58 L 32.65,15.55 A 0.09,0.09 0 0,1 32.69,15.53 Z" fill="rgb(254, 254, 253)"/>
</svg>
