<?xml version="1.0" encoding="UTF-8"?>
<!-- generated by Finnhub -->
<svg viewBox="0 0 55.5 55.5" xmlns="http://www.w3.org/2000/svg">
<path d="M 0,0 H 55.5 V 55.5 H 0 Z" fill="rgb(239, 242, 248)"/>
<path d="M 47.99,19.985 V 14 L 42,20 H 48 Z" fill="rgb(81, 39, 112)"/>
<path d="M 41.99,19.985 V 26 L 48,20 H 42 Z" fill="rgb(113, 46, 135)"/>
<path d="M 41.99,19.985 H 36 L 42,26 V 20 Z" fill="rgb(125, 188, 3)"/>
<path d="M 35.99,19.985 V 14 L 42,20 H 36 Z" fill="rgb(161, 213, 92)"/>
<path d="M 10.540000000000001,26.985 H 8 L 11.78,36 H 14.28 L 18,27 H 15.52 L 13.01,33.6 L 10.55,27 Z M 30,27 H 28 V 36 H 30 V 32.87 C 30,30.66 30.97,29 33,29 V 27 C 31.48,27 30.74,27.38 30,28.83 V 27 Z M 42,36 H 40 V 34.4 C 39.5,35.47 38.47,36 37.22,36 A 3.06,3.06 0 0,1 34,32.95 V 27 H 36 V 31.5 C 36,32.9 36.36,34 38,34 C 39.64,34 40,32.63 40,31.46 V 27 H 42 V 36 Z M 22.4,27 C 25.4,27 27,29.27 27,32 H 20 A 2.52,2.52 0 0,0 22.52,34.3 C 23.69,34.3 24.41,33.8 25,33 L 26.63,33.78 A 4.66,4.66 0 0,1 22.53,36 A 4.4,4.4 0 0,1 18,31.5 C 18,29.18 19.94,27 22.4,27 Z M 20,30.8 A 2.68,2.68 0 0,1 22.53,28.56 C 23.79,28.56 24.81,29.54 25,30.8 H 20 Z" fill="rgb(125, 188, 3)" fill-rule="evenodd"/>
</svg>
