<?xml version="1.0" encoding="UTF-8"?>
<!-- generated by Finnhub -->
<svg viewBox="0 0 55.5 55.5" xmlns="http://www.w3.org/2000/svg">
<path d="M 0,0 H 55.5 V 55.5 H 0 Z" fill="rgb(239, 242, 248)"/>
<path d="M 27.99,9.985 C 27.2,10 26.44,10.34 25.88,10.94 C 25.32,11.54 25,12.37 25,13.22 V 41.78 C 25,42.63 25.32,43.45 25.88,44.06 C 26.44,44.66 27.2,45 28,45 S 29.56,44.66 30.12,44.06 C 30.68,43.46 31,42.63 31,41.78 V 13.22 C 31,12.37 30.68,11.55 30.12,10.94 A 2.9,2.9 0 0,0 28,10 Z M 12.88,16.95 A 2.9,2.9 0 0,1 15,16 C 15.8,16 16.56,16.34 17.12,16.95 C 17.68,17.55 18,18.38 18,19.24 V 36.76 C 18,37.62 17.68,38.45 17.12,39.06 A 2.9,2.9 0 0,1 15,40 A 2.9,2.9 0 0,1 12.88,39.05 A 3.37,3.37 0 0,1 12,36.76 V 19.24 C 12,18.38 12.32,17.56 12.88,16.94 Z M 44,36.76 V 19.24 C 44,18.38 43.68,17.56 43.12,16.94 A 2.9,2.9 0 0,0 41,16 C 40.2,16 39.44,16.34 38.88,16.95 C 38.32,17.55 38,18.38 38,19.24 V 36.76 C 38,37.62 38.32,38.45 38.88,39.06 C 39.44,39.66 40.2,40 41,40 S 42.56,39.66 43.12,39.05 C 43.68,38.45 44,37.62 44,36.76 Z" fill="rgb(162, 166, 168)"/>
<path d="M 28.2,44.985 A 3.26,3.26 0 0,1 25.45,43.44 A 3.14,3.14 0 0,1 25.39,40.31 L 37.95,17.65 A 3.26,3.26 0 0,1 42.33,16.4 A 3.14,3.14 0 0,1 43.6,20.71 L 31.04,43.37 A 3.2,3.2 0 0,1 28.21,45 Z" fill="rgb(110, 211, 76)"/>
<path d="M 30.59,14.844999999999999 L 18.05,38.3 A 3.16,3.16 0 0,1 13.68,39.6 A 3.35,3.35 0 0,1 12.4,35.14 L 24.95,11.72 A 3.27,3.27 0 0,1 26.87,10.14 A 3.16,3.16 0 0,1 30.29,11.24 A 3.3,3.3 0 0,1 30.6,14.87 Z" fill="rgb(1, 56, 110)"/>
</svg>
