<?xml version="1.0" encoding="UTF-8"?>
<!-- generated by Finnhub -->
<svg viewBox="0 0 55.5 55.5" xmlns="http://www.w3.org/2000/svg">
<path d="M 0,0 H 55.5 V 55.5 H 0 Z" fill="rgb(1, 7, 61)"/>
<path d="M 28.13,36.825 C 26.78,35.28 23.74,30.4 22.43,23.33 C 20.79,14.49 17.35,18.06 16.89,18.86 C 16.42,19.66 14.99,25.43 17.18,33.51 C 19.36,41.59 22.05,45 25.71,45 C 28.63,45 29.92,42.47 30.2,41.21 C 32.38,41.31 37.2,38.54 39.02,26.69 C 40.07,21.88 41.17,12.21 37.17,12 C 33.17,11.8 30.86,19.64 30.2,23.58 C 29.93,24.81 29.15,29.19 28.14,36.84 Z M 32.17,35.66 C 32.87,30.8 34.64,20.28 36.08,17.01 C 37.88,12.93 35.03,32.12 32.18,35.66 Z M 26.39,39.58 C 22.93,37.25 21.39,34.12 20.89,32.62 C 21.69,35.5 23.74,41.24 25.44,41.24 C 27.14,41.24 26.68,39.99 26.39,39.58 Z" fill="url(#a)" fill-rule="evenodd"/>
<defs>
<linearGradient id="a" x1="22.57" x2="28.02" y1="14.1" y2="45" gradientUnits="userSpaceOnUse">
<stop stop-color="rgb(28, 130, 249)" offset="0"/>
<stop stop-color="rgb(9, 230, 58)" offset=".84"/>
</linearGradient>
</defs>
</svg>
