<?xml version="1.0" encoding="UTF-8"?>
<!-- generated by Finnhub -->
<svg viewBox="0 0 55.5 55.5" xmlns="http://www.w3.org/2000/svg">
<path d="M 0,0 H 55.5 V 55.5 H 0 Z" fill="rgb(239, 242, 248)"/>
<path d="M 39.230000000000004,20.985 C 37.3,21.76 35.14,23 33.59,24.5 C 37.19,22.5 41.81,21.5 43.86,20.5 C 45.51,19.7 47.29,17.83 47.97,17 C 44.37,19 41.81,20 39.24,21 Z M 34.1,23 C 31.64,22.6 30.34,21.17 30,20.5 C 30,22 31.54,23.5 32.57,23.5 C 33.39,23.5 33.94,23.17 34.11,23 Z M 32.57,24.5 C 31.34,24.5 30.34,23.17 30,22.5 C 30.17,23.33 30.72,25 31.54,25 C 32.36,25 32.57,24.67 32.57,24.5 Z" fill="rgb(141, 191, 67)"/>
<path d="M 30.5,19.985 V 18.5 C 30.92,20.1 34.11,21.5 35.65,22 L 35.14,22.5 C 32.26,22.1 30.51,21 30.51,20 Z" fill="rgb(32, 169, 224)"/>
<path d="M 48.480000000000004,23.985 C 46.84,25.6 40.27,26 37.19,26 C 38.05,26.33 40.58,27 43.87,27 C 47.15,27 48.32,25 48.49,24 Z" fill="rgb(99, 48, 136)"/>
<path d="M 34.93,24.814999999999998 C 36.26,24.11 38.76,22.87 40.27,22.5 C 42.32,22 46.95,21 49,18 A 5.76,5.76 0 0,1 44.9,22.5 C 41.44,23.46 37.52,23.5 34.94,24.83 Z" fill="rgb(20, 116, 185)"/>
<path d="M 48.99,20.985 C 45.3,23.4 38.9,25 36.16,25.5 C 38.05,25.5 42.43,25.3 44.89,24.5 A 6.87,6.87 0 0,0 49,21 Z" fill="rgb(20, 116, 185)"/>
<path d="M 7.99,24.985 H 7 L 8,33 H 9 L 10,25 H 9 L 8.5,31 L 8,25 Z M 13,25 H 12 V 26 H 13 V 25 Z M 13,27 H 12 V 32 C 12,32.8 12.67,33 13,33 V 27 Z M 15,33 V 27 H 17 C 17.8,27 18,27.67 18,28 V 33 H 17 V 28 H 16 V 33 H 15 Z M 21.5,27 C 20.3,27 20,27.67 20,28 V 32 C 20,32.33 20.3,33 21.5,33 S 23,32.33 23,32 V 31 H 22 V 32 H 21 V 28 H 22 V 29 H 23 V 28 C 23,27.67 22.7,27 21.5,27 Z M 25,28 C 25,27.67 25.3,27 26.5,27 S 28,27.67 28,28 V 30 H 26 V 32 H 27 V 31 H 28 V 32 C 28,32.33 27.7,33 26.5,33 S 25,32.33 25,32 V 28 Z M 26,29 H 27 V 28 H 26 V 29 Z M 31,33 H 30 V 28 C 30,27.2 30.67,27 31,27 H 32 V 28 H 31 V 33 Z M 35,27 H 34 L 35,30 L 34,33 H 35 L 35.5,31 L 36,33 H 37 L 36,30 L 37,27 H 36 L 35.5,29 L 35,27 Z" fill="rgb(34, 30, 30)"/>
</svg>
