<?xml version="1.0" encoding="UTF-8"?>
<!-- generated by Finnhub -->
<svg viewBox="0 0 55.5 55.5" xmlns="http://www.w3.org/2000/svg">
<path d="M 0,0 H 55.5 V 55.5 H 0 Z" fill="rgb(239, 242, 248)"/>
<path d="M 42.93,22.405 L 39.78,18.92 A 0.24,0.24 0 0,1 39.76,18.62 L 41.81,15.82 C 41.89,15.72 41.87,15.63 41.76,15.57 L 35.55,12.05 A 0.37,0.37 0 0,0 35.24,12.02 L 34.37,12.32 C 32.29,13.02 28.65,14.26 27.27,13.9 C 25.08,13.33 22.91,12.7 20.75,12.03 A 0.38,0.38 0 0,0 20.43,12.06 L 14.23,15.59 C 14.14,15.64 14.13,15.71 14.19,15.79 L 16.26,18.62 C 16.34,18.72 16.33,18.82 16.24,18.92 L 13.06,22.4 C 12.96,22.52 12.98,22.58 13.14,22.58 C 18.25,22.79 21.96,25.24 25.52,28.25 C 25.62,28.33 25.72,28.35 25.83,28.3 L 27.83,27.53 C 27.93,27.49 28.04,27.49 28.15,27.53 L 30.22,28.3 A 0.33,0.33 0 0,0 30.57,28.23 C 33.89,25.12 38.15,22.72 42.86,22.6 C 43.02,22.6 43.04,22.53 42.94,22.42 Z M 18.09,19.39 L 17.42,19.12 C 16.92,18.92 16.6,18.73 16.46,18.53 A 14.65,14.65 0 0,1 15.04,16.08 C 14.98,15.95 15.01,15.93 15.13,16.01 C 17.83,17.91 21.73,20.39 25.13,20.59 C 25.15,20.59 25.18,20.6 25.2,20.62 A 0.12,0.12 0 0,1 25.13,20.83 C 22.67,21.23 20.31,20.28 18.09,19.39 Z M 38.16,19.31 C 35.61,20.34 33.26,21.28 30.83,20.79 A 0.11,0.11 0 0,1 30.77,20.75 A 0.1,0.1 0 0,1 30.77,20.61 A 0.11,0.11 0 0,1 30.84,20.58 C 34.37,20.28 38.07,18.04 40.86,16 C 40.98,15.9 41.01,15.93 40.95,16.07 L 40.91,16.15 C 40.5,17.09 39.81,18.65 39.11,18.93 L 38.16,19.31 Z M 24.13,24.55 L 26.53,25.03 C 26.69,25.06 26.7,25.13 26.56,25.21 L 25.92,25.61 A 0.23,0.23 0 0,1 25.66,25.61 L 24.08,24.67 C 23.85,24.53 23.87,24.49 24.13,24.54 Z M 30.13,25.6 C 29.89,25.52 29.68,25.4 29.49,25.23 A 0.2,0.2 0 0,1 29.36,25.18 C 29.3,25.12 29.31,25.08 29.39,25.07 L 31.96,24.53 C 32.19,24.49 32.2,24.52 32,24.63 L 30.41,25.57 A 0.34,0.34 0 0,1 30.12,25.6 Z M 14.39,23.9 L 14.41,23.92 C 18.23,26.1 20.64,34.04 21.75,37.99 C 21.75,38.01 21.77,38.02 21.79,38.03 L 21.87,38.05 C 21.92,38.07 21.93,38.05 21.92,38.01 C 21.02,34.15 20.36,31.15 19.92,29.03 C 19.36,26.3 17.42,23.94 14.44,23.83 A 0.05,0.05 0 0,0 14.39,23.87 V 23.9 Z M 36.29,28.15 A 5.88,5.88 0 0,1 41.47,23.85 C 41.51,23.85 41.52,23.86 41.48,23.89 C 37.58,26.64 35.38,33.96 34.15,38.42 C 34.14,38.45 34.11,38.48 34.07,38.49 C 34.02,38.5 34,38.48 34.01,38.42 L 36.29,28.15 Z M 22.34,35.74 C 22.43,33.67 22.58,30.29 23.84,29.04 C 23.91,28.96 23.91,28.88 23.85,28.8 A 12.12,12.12 0 0,0 20.27,25.8 A 0.15,0.15 0 0,0 20.13,25.97 L 22.2,36.2 C 22.26,36.52 22.3,36.51 22.32,36.2 L 22.34,35.75 Z M 32.13,29.05 A 0.18,0.18 0 0,1 32.07,28.99 C 32.05,28.96 32.05,28.93 32.07,28.89 A 11.7,11.7 0 0,1 35.55,25.89 A 0.2,0.2 0 0,1 35.84,25.99 A 0.2,0.2 0 0,1 35.85,26.1 L 33.83,36.14 C 33.73,36.63 33.67,36.62 33.65,36.13 L 33.61,35.44 C 33.53,33.51 33.41,30.47 32.34,29.2 L 32.13,29.05 Z M 31.64,33.24 C 31.64,35.01 31.6,38.67 30.26,40.42 C 30.17,40.52 30.2,40.58 30.35,40.57 L 32.24,40.44 C 32.39,40.43 32.47,40.35 32.47,40.21 C 32.58,38.3 32.77,34.89 31.84,33.19 C 31.71,32.95 31.64,32.97 31.64,33.24 Z M 23.84,40.46 A 0.35,0.35 0 0,1 23.62,40.36 A 0.34,0.34 0 0,1 23.52,40.15 C 23.27,37.81 23.45,35.51 24.04,33.24 C 24.04,33.21 24.06,33.19 24.09,33.17 A 0.13,0.13 0 0,1 24.24,33.19 L 24.28,33.26 L 24.34,34.13 C 24.49,36.3 24.66,38.6 25.66,40.43 C 25.72,40.52 25.69,40.56 25.58,40.55 L 23.84,40.45 Z M 35.38,43.13 A 3.55,3.55 0 0,1 34.28,41.43 A 0.18,0.18 0 0,1 34.31,41.27 C 34.36,41.19 34.35,41.13 34.27,41.07 A 0.12,0.12 0 0,0 34.19,41.04 A 0.13,0.13 0 0,0 34.11,41.07 C 32.54,42.59 30.23,43.99 28.12,42.52 C 28.03,42.46 27.95,42.47 27.87,42.54 C 26.08,44.26 23.21,42.4 21.85,40.94 C 21.79,40.88 21.75,40.89 21.75,40.98 A 2.62,2.62 0 0,1 20.58,43.08 A 0.13,0.13 0 0,0 20.57,43.29 C 20.58,43.31 20.61,43.32 20.64,43.33 C 22.54,43.61 24.48,44.48 26.32,45.3 L 27.83,45.97 C 27.93,46.01 28.03,46.01 28.13,45.97 C 28.73,45.73 29.36,45.44 30.01,45.15 C 31.74,44.37 33.57,43.55 35.31,43.37 A 0.14,0.14 0 0,0 35.43,43.27 A 0.13,0.13 0 0,0 35.38,43.13 Z" fill="rgb(175, 175, 181)"/>
</svg>
