<?xml version="1.0" encoding="UTF-8"?>
<!-- generated by Finnhub -->
<svg viewBox="0 0 55.5 55.5" xmlns="http://www.w3.org/2000/svg">
<path d="M 0,0 H 55.5 V 55.5 H 0 Z" fill="rgb(239, 242, 248)"/>
<path d="M 5.99,23.985 H 8.5 L 8.92,30.43 C 10.6,25.63 17.46,16 31.42,16 C 38.05,16 45.05,19.36 47.72,21.04 C 44.94,19.85 38.06,17.47 32.84,17.47 C 26.31,17.47 15.55,19.17 9.84,33.93 H 7.3 L 6,24 Z M 15.23,26.06 L 16.9,24.12 C 17.03,24.49 17.16,25.32 16.62,25.73 C 16.09,26.15 15.47,26.13 15.22,26.06 Z M 14.57,27 L 13.35,34 H 15.26 L 16.46,27 H 14.56 Z M 23.34,29.03 C 23.34,31.21 20.34,31.45 18.84,31.3 C 18.84,31.67 19.06,32.65 20.33,32.65 C 21.34,32.65 22.08,32.24 22.33,32.03 V 33.53 C 21.91,33.69 20.89,34 20.11,34 C 19.13,34 16.88,33.75 16.88,31.58 C 16.88,29.42 18.48,27 20.88,27 C 22.78,27 23.31,28.35 23.34,29.03 Z M 20.62,28.35 C 19.91,28.35 19.25,29.39 19,29.91 C 20.7,29.91 21.3,29.41 21.38,29.15 C 21.42,28.88 21.33,28.35 20.62,28.35 Z" fill="rgb(42, 102, 177)"/>
<path d="M 46.39,29.905 C 46.33,30.34 46.28,30.77 46.24,31.19 C 45,33.1 43.81,32.66 43.81,31.23 C 43.81,29.7 44.96,28.48 45.88,28.48 A 1,1 0 0,1 46.6,28.76 L 46.4,29.92 Z M 43.93,34 C 45.05,34 45.78,33.48 46.13,33.08 C 46.11,33.48 46.11,33.79 46.12,34 H 47.88 C 47.88,32.78 48.15,30.77 48.29,29.92 L 50,21 H 48.03 C 47.76,22.46 47.27,25.03 46.89,27.13 C 46.62,27.05 46.29,27 45.88,27 C 43.34,27 41.75,29.67 41.75,31.31 C 41.75,32.95 42.23,34 43.93,34 Z M 25.68,24 L 23.29,34 H 25.15 L 26.95,26.18 L 27.55,34 H 28.91 L 32.57,26.18 L 31.5,34 H 33.44 L 34.64,24 H 31.86 L 28.9,30.95 L 28.34,24 H 25.67 Z M 36.6,31.3 C 38.1,31.45 41.1,31.21 41.1,29.03 C 41.07,28.35 40.55,27 38.63,27 C 36.23,27 34.64,29.42 34.64,31.58 C 34.64,33.75 36.89,34 37.87,34 C 38.65,34 39.59,33.7 40,33.54 V 32.03 C 39.76,32.23 39.1,32.65 38.09,32.65 C 36.82,32.65 36.6,31.67 36.6,31.3 Z M 36.76,29.91 C 37.01,29.39 37.66,28.35 38.38,28.35 C 39.08,28.35 39.18,28.88 39.14,29.15 C 39.05,29.4 38.46,29.91 36.76,29.91 Z" fill="rgb(48, 150, 63)"/>
</svg>
