<?xml version="1.0" encoding="UTF-8"?>
<!-- generated by Finnhub -->
<svg viewBox="0 0 55.5 55.5" xmlns="http://www.w3.org/2000/svg">
<path d="M 0,0 H 55.5 V 55.5 H 0 Z" fill="rgb(23, 26, 28)"/>
<path d="M 16.99,27.985 A 3,3 0 1,0 11,28 A 3,3 0 0,0 17,28 Z M 14,30 A 2,2 0 1,0 14,26 A 2,2 0 0,0 14,30 Z" fill="rgb(239, 242, 248)" fill-rule="evenodd"/>
<path d="M 3.99,24.985 H 5.4 L 7.5,29 L 9.6,25 H 11 L 7.5,32 L 4,25 Z M 22,25.02 S 23.61,25.5 23.61,27 C 23.61,28.47 22.2,29 22.2,29 L 23.88,31 H 22.44 L 20,28 H 21.74 S 22.5,27.8 22.5,27 S 21.68,26 21.68,26 H 19 V 31 H 18 V 25 L 22,25.02 Z M 25,31 H 26 V 26.5 L 29.8,31 H 31 V 25 H 30 V 29.5 L 26.2,25 H 25 V 31 Z M 32,31 H 33 L 33.58,30 H 37.42 L 38,31 H 39 L 36,25 H 35 L 32,31 Z M 35.5,26.2 L 36.83,29 H 34.17 L 35.5,26.2 Z" fill="rgb(239, 242, 248)"/>
<path d="M 39.99,24.985 V 31 H 42.78 S 45,30.74 45,28 S 42.65,25 42.65,25 H 40 Z M 41,26 V 30 H 42.78 S 44,29.6 44,28 S 42.65,26 42.65,26 H 41 Z M 52,28 A 3,3 0 1,0 46,28 A 3,3 0 0,0 52,28 Z M 49,30 A 2,2 0 1,0 49,26 A 2,2 0 0,0 49,30 Z" fill="rgb(239, 242, 248)" fill-rule="evenodd"/>
</svg>
