<?xml version="1.0" encoding="UTF-8"?>
<!-- generated by Finnhub -->
<svg viewBox="0 0 55.5 55.5" xmlns="http://www.w3.org/2000/svg">
<path d="M 0,0 H 55.5 V 55.5 H 0 Z" fill="url(#a)"/>
<path d="M 26.83,24.115 L 26.24,28 H 26.78 L 27.33,24.16 C 27.38,23.76 27.68,23.47 28.03,23.47 H 29.95 C 30.24,23.47 30.45,23.77 30.42,24.09 L 30.32,25.01 L 29.88,28 H 30.49 L 30.94,24.09 V 23.95 C 31.04,23.66 31.28,23.47 31.54,23.47 H 33.32 C 33.58,23.47 33.79,23.77 33.75,24.09 L 33.35,28 H 33.82 L 34.22,24.09 C 34.29,23.51 33.93,23 33.47,23 H 31.52 A 0.98,0.98 0 0,0 30.77,23.37 A 0.79,0.79 0 0,0 30.12,23 H 28 C 27.43,23 26.94,23.47 26.84,24.13 Z M 38.7,24 H 36.16 C 35.58,24 35.1,24.48 35.02,25.12 L 34.78,27.02 C 34.72,27.53 35.08,28 35.54,28 H 38.04 C 38.61,28 39.1,27.54 39.19,26.9 L 39.46,25 C 39.53,24.48 39.16,24 38.7,24 Z M 38.43,24.5 H 36.34 C 35.89,24.5 35.51,24.86 35.45,25.35 L 35.25,26.95 C 35.21,27.29 35.45,27.6 35.75,27.6 H 37.82 C 38.26,27.6 38.64,27.24 38.71,26.76 L 38.94,25.14 C 38.99,24.8 38.74,24.49 38.44,24.49 Z M 40.63,24.12 C 40.77,24.04 40.93,24 41.09,24 H 43.52 C 43.97,24 44.32,24.48 44.25,25 L 43.99,26.9 C 43.91,27.54 43.44,28 42.9,28 H 40.5 C 40.05,28 39.7,27.53 39.77,27.01 L 40,25.12 C 40.01,25 40.04,24.88 40.08,24.78 L 40.3,23 H 40.81 L 40.63,24.12 Z M 43.27,24.42 H 41.27 C 40.83,24.42 40.47,24.8 40.41,25.3 L 40.21,26.94 C 40.18,27.29 40.41,27.6 40.71,27.6 H 42.68 C 43.11,27.6 43.47,27.23 43.53,26.74 L 43.75,25.09 C 43.8,24.74 43.57,24.42 43.27,24.42 Z M 48.49,24 H 51.19 C 51.69,24 52.08,24.48 51.99,25 L 51.9,25.64 C 51.84,25.92 51.68,26.27 51.26,26.32 H 47.6 L 47.52,26.92 C 47.47,27.28 47.72,27.59 48.06,27.59 H 50.26 A 0.9,0.9 0 0,0 50.35,27.59 H 51.45 C 51.46,27.73 51.45,28 51.33,28 H 47.83 C 47.33,28 46.95,27.53 47.02,27.01 L 47.27,25.12 C 47.35,24.48 47.87,24 48.49,24 Z M 47.66,25.8 H 51.06 C 51.15,25.8 51.29,25.73 51.38,25.55 L 51.45,25.08 C 51.5,24.73 51.25,24.41 50.91,24.41 H 48.68 A 0.98,0.98 0 0,0 47.73,25.29 L 47.66,25.79 Z M 46,27.38 L 46.62,23 H 47.02 C 46.83,24.2 46.45,26.71 46.42,27.12 C 46.38,27.53 46.58,27.64 46.68,27.65 H 47.02 L 46.92,28 H 46.46 C 46.09,28 46,27.59 46,27.38 Z M 44.56,27.38 L 44.98,24.41 H 45.36 A 96.47,96.47 0 0,0 44.97,27.12 C 44.94,27.53 45.14,27.64 45.24,27.65 H 45.58 L 45.48,28 H 45.02 C 44.65,28 44.56,27.59 44.56,27.38 Z M 45.46,23.79 H 45.06 L 45.18,23 H 45.58 L 45.46,23.8 Z" fill="rgb(50, 203, 112)" fill-rule="evenodd"/>
<path d="M 7.15,28.985 L 6.5,34 H 6.95 L 7.28,31.68 H 11.91 L 11.61,34 H 12.05 L 12.76,29 H 12.26 L 11.96,31.28 H 7.34 L 7.66,29 H 7.16 Z M 28.22,30 C 28.12,30 28.02,30.02 27.92,30.06 L 28.07,29 H 27.56 L 27.33,30.82 L 27.31,30.9 L 26.84,34 H 27.26 L 27.73,30.93 A 0.68,0.68 0 0,1 28.36,30.38 H 30.62 C 30.84,30.38 31.01,30.61 30.98,30.88 L 30.63,34 H 31.03 L 31.38,30.87 C 31.43,30.41 31.13,30 30.74,30 H 28.22 Z M 14.22,30 H 16.65 C 17.11,30 17.45,30.48 17.38,31 L 17.3,31.64 C 17.24,31.91 17.1,32.27 16.72,32.32 H 13.42 L 13.35,32.92 C 13.31,33.28 13.54,33.59 13.84,33.59 H 16.88 C 16.89,33.73 16.88,34 16.78,34 H 13.63 C 13.19,34 12.84,33.53 12.9,33.01 L 13.13,31.12 C 13.2,30.48 13.67,30 14.23,30 Z M 13.48,31.8 H 16.54 C 16.61,31.8 16.74,31.73 16.82,31.55 L 16.88,31.08 C 16.93,30.73 16.7,30.41 16.4,30.41 H 14.4 C 13.97,30.41 13.6,30.79 13.54,31.29 L 13.48,31.79 Z M 47.52,30 H 45.09 C 44.54,30 44.07,30.48 43.99,31.12 L 43.77,33.02 C 43.71,33.53 44.05,34 44.5,34 H 47.64 C 47.74,34 47.76,33.73 47.76,33.59 H 44.7 C 44.4,33.59 44.18,33.28 44.22,32.93 L 44.29,32.31 H 47.59 C 47.96,32.27 48.1,31.91 48.16,31.64 L 48.25,31 C 48.32,30.48 47.97,30 47.52,30 Z M 47.41,31.8 H 44.35 L 44.41,31.29 C 44.47,30.79 44.83,30.41 45.26,30.41 H 47.26 C 47.56,30.41 47.8,30.73 47.75,31.08 L 47.69,31.55 C 47.61,31.73 47.48,31.79 47.41,31.8 Z M 20.56,34 H 18.13 C 17.67,34 17.33,33.52 17.4,33 L 17.49,32.36 C 17.54,32.08 17.69,31.73 18.06,31.68 H 21.36 L 21.43,31.08 C 21.47,30.72 21.24,30.41 20.94,30.41 H 17.9 C 17.9,30.27 17.91,30 18.02,30 H 21.15 C 21.61,30 21.95,30.47 21.89,30.99 L 21.66,32.88 C 21.59,33.52 21.12,34 20.56,34 Z M 21.3,32.2 H 18.24 C 18.17,32.2 18.04,32.27 17.96,32.45 L 17.9,32.92 C 17.85,33.27 18.08,33.59 18.38,33.59 H 20.38 C 20.82,33.59 21.18,33.21 21.24,32.71 L 21.3,32.21 Z M 36.7,34 H 39.13 C 39.69,34 40.15,33.52 40.23,32.88 L 40.45,30.98 C 40.52,30.47 40.17,30 39.72,30 H 36.58 C 36.48,30 36.46,30.27 36.46,30.41 H 39.52 C 39.82,30.41 40.05,30.72 40,31.07 L 39.93,31.69 H 36.63 C 36.26,31.73 36.12,32.09 36.06,32.36 L 35.97,33 C 35.9,33.52 36.25,34 36.7,34 Z M 36.81,32.2 H 39.87 L 39.81,32.71 C 39.75,33.21 39.39,33.59 38.96,33.59 H 36.96 C 36.66,33.59 36.42,33.27 36.47,32.92 L 36.53,32.45 C 36.62,32.27 36.74,32.21 36.81,32.2 Z M 22.85,29 L 22.23,33.38 C 22.23,33.58 22.32,34 22.69,34 H 23.15 L 23.25,33.65 H 22.91 C 22.81,33.65 22.61,33.53 22.64,33.12 C 22.68,32.71 23.06,30.2 23.25,29 H 22.85 Z M 24.25,30.4 L 23.87,33.3 C 23.87,33.53 23.95,34 24.33,34 H 26.26 L 26.36,33.6 H 24.56 C 24.45,33.6 24.25,33.47 24.28,33 L 24.6,30.6 L 24.63,30.4 H 26.66 L 26.84,30 H 24.69 L 24.83,29 H 24.43 L 24.3,30 H 23.63 L 23.53,30.4 H 24.25 Z M 36.1,30 H 33.06 C 32.51,30 32.04,30.48 31.96,31.12 L 31.74,33.02 C 31.68,33.53 32.02,34 32.47,34 H 35.6 C 35.7,34 35.72,33.73 35.72,33.59 H 32.66 C 32.36,33.59 32.14,33.28 32.18,32.93 L 32.37,31.29 C 32.43,30.79 32.79,30.42 33.22,30.42 H 36.12 V 30 Z M 41.05,34 H 40.53 C 40.63,33.26 40.88,31.62 40.99,30.93 C 41.1,30.24 41.59,30.03 41.83,30 H 43.74 V 30.4 H 42.04 C 41.72,30.4 41.51,30.82 41.45,31.03 L 41.05,34 Z" fill="rgb(50, 203, 112)"/>
<path d="M 22.02,26.765 C 22.72,26.78 23.34,26.49 23.78,26.03 L 23.74,26.52 L 22.57,27.54 L 21.01,27.42 L 20,26.25 L 20.04,25.71 A 2.4,2.4 0 0,0 22.04,26.78 Z M 22.67,26.32 L 23.83,25.32 L 23.85,24.97 L 22.84,23.79 L 21.28,23.69 L 20.13,24.68 L 20.1,25.03 L 21.12,26.21 L 22.67,26.31 Z M 21.92,23.22 C 22.76,23.22 23.5,23.64 23.92,24.29 L 23.96,23.75 L 22.94,22.58 L 21.39,22.47 L 20.21,23.48 L 20.18,23.97 A 2.4,2.4 0 0,1 21.92,23.22 Z M 24.42,24.39 C 24.42,24.68 24.38,24.95 24.29,25.21 A 2.4,2.4 0 0,1 21.92,28 A 2.4,2.4 0 0,1 19.67,24.8 A 2.4,2.4 0 1,1 24.43,24.4 Z M 4.62,24.12 L 4,28 H 4.56 L 5.12,24.16 C 5.18,23.76 5.48,23.47 5.84,23.47 H 8.98 C 9.28,23.47 9.5,23.77 9.46,24.09 L 9.01,28 H 9.54 L 9.99,24.09 C 10.06,23.51 9.66,23 9.15,23 H 5.82 C 5.23,23 4.73,23.47 4.62,24.13 Z M 10.48,24.31 L 10.44,24.44 H 13.49 C 13.79,24.44 14.01,24.76 13.96,25.11 L 13.86,25.87 H 10.84 C 10.38,25.87 10,26.32 10,26.87 V 27.28 C 10,27.68 10.27,28 10.6,28 H 13.27 C 13.69,28 14.04,27.63 14.1,27.14 L 14.36,24.98 C 14.42,24.46 14.09,24 13.66,24 H 10.82 C 10.66,24 10.52,24.13 10.48,24.3 Z M 13.69,26.91 L 13.81,26.27 H 10.9 C 10.65,26.27 10.44,26.5 10.42,26.8 L 10.4,27.11 C 10.38,27.36 10.55,27.57 10.76,27.57 H 12.99 C 13.33,27.57 13.62,27.3 13.69,26.9 Z M 14.57,28 L 15.03,24.9 C 15.11,24.38 15.48,24 15.91,24 H 18.37 C 18.75,24 19.04,24.4 18.99,24.87 L 18.66,28 H 18.26 L 18.6,24.87 C 18.63,24.61 18.46,24.4 18.25,24.4 H 15.93 C 15.66,24.4 15.44,24.61 15.4,24.93 L 14.98,28 H 14.57 Z" fill="rgb(50, 203, 112)" fill-rule="evenodd"/>
<defs>
<linearGradient id="a" x1="10.42" x2="68.15" y1="9.71" y2="76.02" gradientUnits="userSpaceOnUse">
<stop stop-color="rgb(25, 29, 31)" offset="0"/>
<stop stop-color="rgb(5, 5, 8)" offset="1"/>
</linearGradient>
</defs>
</svg>
