<?xml version="1.0" encoding="UTF-8"?>
<!-- generated by Finnhub -->
<svg viewBox="0 0 55.5 55.5" xmlns="http://www.w3.org/2000/svg">
<path d="M 0,0 H 55.5 V 55.5 H 0 Z" fill="url(#b)"/>
<circle cx="28" cy="28" r="28" fill="url(#a)"/>
<path d="M 22.561999999999998,21.855 C 19.384,21.87 16.792,24.6 16.792,27.978 S 19.376,34.086 22.572,34.086 C 25.76,34.086 28.351,31.356 28.351,27.979 C 28.351,24.601 25.76,21.871 22.571,21.871 Z M 22.572,32.022 C 20.455,32.022 18.844,30.207 18.844,27.979 C 18.844,25.749 20.463,23.935 22.572,23.935 C 24.689,23.935 26.299,25.75 26.299,27.979 C 26.299,30.207 24.689,32.022 22.572,32.022 Z" fill="rgb(254, 254, 253)"/>
<path d="M 18.834,27.962 C 18.844,25.74 20.462,23.934 22.571,23.934 C 24.688,23.934 26.299,25.748 26.299,27.977 C 26.299,30.215 24.68,32.02 22.571,32.02 S 18.844,30.206 18.844,27.977 C 18.844,31.096 20.895,33.627 23.544,33.627 C 26.192,33.627 28.342,31.096 28.342,27.977 S 26.192,22.327 23.544,22.327 C 20.895,22.327 18.844,24.858 18.844,27.977 Z M 14.112,22.975 C 13.72,23.9 11.399,29.403 10.36,31.874 C 10.581,32.401 10.745,32.781 10.818,32.962 C 11.211,33.887 11.636,33.973 11.693,33.982 H 11.701 L 16.728,22.146 C 16.532,22.051 16.205,21.973 15.845,21.973 C 15.2,21.973 14.439,22.206 14.112,22.975 Z" fill="rgb(254, 254, 253)"/>
<path d="M 10.807,32.939 C 10.392,31.952 7.114,24.168 6.616,22.976 C 6.117,21.776 4.531,21.879 4,22.138 L 8.561,32.928 C 8.847,33.576 9.436,34 10.351,34 H 11.701 S 11.242,33.956 10.817,32.954 Z M 46.972,22 C 46.915,22 46.466,22.061 46.098,22.96 C 46.008,23.167 45.844,23.573 45.632,24.074 C 46.686,26.571 49.09,32.281 49.384,32.981 C 49.891,34.181 51.468,34.078 52,33.819 L 46.989,22 H 46.972 Z" fill="rgb(254, 254, 253)"/>
<path d="M 47.38,31.127 L 46.964,29.989 C 46.645,29.229 46.139,28.999 45.501,28.999 H 43.54 S 45.698,23.927 46.099,22.969 C 46.499,22.009 46.982,22.009 46.982,22.009 H 45.632 C 44.742,22.009 44.145,22.381 43.842,23.063 L 39.257,33.82 C 39.788,34.08 41.357,34.2 41.873,32.99 C 42.388,31.781 42.813,31 42.813,31 H 46.45 C 47.162,30.984 47.39,31.143 47.39,31.143 Z M 38.545,22.976 C 38.038,24.176 31.956,38.517 31.956,38.517 C 32.496,38.777 34.049,38.889 34.556,37.688 L 41.152,22.138 C 40.956,22.043 40.629,21.965 40.269,21.965 C 39.624,21.974 38.872,22.207 38.545,22.975 Z" fill="rgb(254, 254, 253)"/>
<path d="M 35.233000000000004,32.939 C 34.818,31.943 31.557,24.202 31.042,22.975 C 30.527,21.749 28.957,21.878 28.426,22.146 L 32.987,32.928 C 33.273,33.576 33.862,34 34.777,34 H 36.126 C 36.126,33.991 35.668,33.965 35.243,32.954 Z" fill="rgb(254, 254, 253)"/>
<defs>
<linearGradient id="b" x1="53.107" x2="1.707" y1="30.796" y2="30.994" gradientUnits="userSpaceOnUse">
<stop stop-color="rgb(246, 147, 27)" offset="0"/>
<stop stop-color="rgb(241, 98, 32)" offset="1"/>
</linearGradient>
<linearGradient id="a" x1="56" x2="4.882" y1="28" y2="28" gradientUnits="userSpaceOnUse">
<stop stop-color="rgb(246, 147, 27)" offset="0"/>
<stop stop-color="rgb(241, 98, 32)" offset="1"/>
</linearGradient>
</defs>
</svg>
