<?xml version="1.0" encoding="UTF-8"?>
<!-- generated by Finnhub -->
<svg viewBox="0 0 55.5 55.5" xmlns="http://www.w3.org/2000/svg">
<path d="M 0,0 H 55.5 V 55.5 H 0 Z" fill="rgb(239, 242, 248)"/>
<path d="M 44.99,27.985 A 17,17 0 1,1 11,28 A 17,17 0 0,1 45,28 Z M 44,28 A 16,16 0 1,1 12.22,25.36 C 14.82,27.98 17.71,31 19.12,32.64 C 19.69,33.3 20.22,33.96 20.74,34.6 C 23.1,37.5 25.15,40 28,40 C 30.7,40 32.51,37.76 34.7,35.06 L 35.08,34.6 A 94.7,94.7 0 0,1 36.7,32.64 C 38.14,30.96 41.12,27.86 43.76,25.2 C 43.92,26.11 44,27.05 44,28 Z M 42.56,21.36 L 38.83,21.02 A 3.8,3.8 0 0,0 35.15,23.09 L 29.76,32.89 A 2,2 0 0,1 28,34 A 2,2 0 0,1 26.24,32.9 L 20.66,23.1 A 3.8,3.8 0 0,0 17,21.01 L 13.46,21.33 A 16,16 0 0,1 42.57,21.35 Z" fill="url(#a)" fill-rule="evenodd"/>
<defs>
<linearGradient id="a" x1="11" x2="45" y1="28" y2="28" gradientUnits="userSpaceOnUse">
<stop stop-color="rgb(64, 123, 216)" offset="0"/>
<stop stop-color="rgb(24, 58, 192)" offset="1"/>
</linearGradient>
</defs>
</svg>
