<?xml version="1.0" encoding="UTF-8"?>
<!-- generated by Finnhub -->
<svg viewBox="0 0 55.5 55.5" xmlns="http://www.w3.org/2000/svg">
<path d="M 0,0 H 55.5 V 55.5 H 0 Z" fill="rgb(239, 242, 248)"/>
<path d="M 35.99,25.985 A 4,4 0 1,0 36,18 A 4,4 0 0,0 36,26 Z M 36,24.8 A 2.8,2.8 0 1,0 36,19.2 A 2.8,2.8 0 0,0 36,24.8 Z M 27,35 A 4,4 0 1,0 27,27 A 4,4 0 0,0 27,35 Z M 27,33.8 A 2.8,2.8 0 1,0 27,28.2 A 2.8,2.8 0 0,0 27,33.8 Z M 49,22 A 4,4 0 1,1 41,22 A 4,4 0 0,1 49,22 Z M 47.8,22 A 2.8,2.8 0 1,1 42.2,22 A 2.8,2.8 0 0,1 47.8,22 Z M 36,35 A 4,4 0 1,0 36,27 A 4,4 0 0,0 36,35 Z M 36,33.8 A 2.8,2.8 0 1,0 36,28.2 A 2.8,2.8 0 0,0 36,33.8 Z M 31,40 A 4,4 0 1,1 23,40 A 4,4 0 0,1 31,40 Z M 29.8,40 A 2.8,2.8 0 1,1 24.2,40 A 2.8,2.8 0 0,1 29.8,40 Z" fill-rule="evenodd"/>
<path d="M 11.99,25.985 A 4,4 0 1,0 12,18 A 4,4 0 0,0 12,26 Z M 12,24.8 A 2.8,2.8 0 1,0 12,19.2 A 2.8,2.8 0 0,0 12,24.8 Z M 27,26 A 4,4 0 1,0 27,18 A 4,4 0 0,0 27,26 Z M 27,24.8 A 2.8,2.8 0 1,0 27,19.2 A 2.8,2.8 0 0,0 27,24.8 Z M 22,31 A 4,4 0 1,1 14,31 A 4,4 0 0,1 22,31 Z M 20.8,31 A 2.8,2.8 0 1,1 15.2,31 A 2.8,2.8 0 0,1 20.8,31 Z" fill="rgb(207, 16, 41)" fill-rule="evenodd"/>
</svg>
