<?xml version="1.0" encoding="UTF-8"?>
<!-- generated by Finnhub -->
<svg viewBox="0 0 55.5 55.5" xmlns="http://www.w3.org/2000/svg">
<path d="M 0,0 H 55.5 V 55.5 H 0 Z" fill="rgb(239, 242, 248)"/>
<path d="M 27.99,44.985 A 17,17 0 1,0 28,11 A 17,17 0 0,0 28,45 Z M 28,43 A 15,15 0 1,0 28,13 A 15,15 0 0,0 28,43 Z" fill="rgb(46, 169, 222)" fill-rule="evenodd"/>
<path d="M 26.99,23.985 H 29 V 32 H 27 Z M 36,31.17 L 37.13,30 L 43,35.83 L 41.87,37 L 36,31.17 Z" fill="rgb(46, 169, 222)"/>
<path d="M 34.99,31.985 A 4,4 0 1,0 35,24 A 4,4 0 0,0 35,32 Z M 35,30 A 2,2 0 1,0 35,26 A 2,2 0 0,0 35,30 Z" fill="rgb(46, 169, 222)" fill-rule="evenodd"/>
<path d="M 21.49,23.985 L 20,27 L 18.5,24 H 16 L 20,32 L 24,24 H 21.5 Z" fill="rgb(46, 169, 222)"/>
</svg>
