<?xml version="1.0" encoding="UTF-8"?>
<!-- generated by Finnhub -->
<svg viewBox="0 0 55.5 55.5" xmlns="http://www.w3.org/2000/svg">
<path d="M 0,0 H 55.5 V 55.5 H 0 Z" fill="rgb(177, 70, 146)"/>
<path d="M 27.93,7.985 L 44,28 L 27.94,48 L 12,28 L 27.94,8 Z M 27.94,10.46 L 42,28 L 27.95,45.54 L 14,28 L 27.95,10.46 Z" fill="rgb(254, 254, 253)" fill-rule="evenodd"/>
<path d="M 27.95,12.985 L 40,28 L 27.96,43 L 16,28 L 27.96,13 Z M 27.96,13.8 L 16.65,28 L 27.95,42.2 L 39.36,28 L 27.96,13.8 Z" fill="rgb(254, 254, 253)"/>
<path d="M 23.18,24.985 H 22 V 26 H 22.48 L 24.5,32 H 25.5 L 28,25 H 27 L 25,30.5 L 23.19,25 Z" fill="rgb(254, 254, 253)"/>
<path d="M 28.49,24.985 H 31.72 C 32.29,25.02 33.42,25.38 33.46,26.65 C 33.47,26.91 33.35,27.55 32.71,27.98 C 33.15,28.18 34.01,28.87 34,29.97 C 33.98,31.34 32.9,32.02 31.72,32 H 29 V 26 H 28.5 V 25 Z M 30,26 H 31.85 C 32.12,26 32.47,26.23 32.49,26.73 C 32.5,27.23 32.12,27.5 31.85,27.5 H 31 V 28.5 H 32.02 C 32.34,28.5 33,28.9 33,29.76 C 33,30.63 32.35,31 31.96,31 H 30 V 26 Z" fill="rgb(254, 254, 253)" fill-rule="evenodd"/>
</svg>
