<?xml version="1.0" encoding="UTF-8"?>
<!-- generated by Finnhub -->
<svg viewBox="0 0 55.5 55.5" xmlns="http://www.w3.org/2000/svg">
<path d="M 0,0 H 55.5 V 55.5 H 0 Z" fill="rgb(203, 23, 36)"/>
<path d="M 27.99,15.985 L 35.35,27.059 L 33.147,31.323 L 23.002,16 H 28 Z M 12,16 H 17 L 29.765,35.22 L 27.549,39.484 L 12,16 Z" fill="rgb(254, 254, 253)"/>
<path d="M 42.914,38.278 C 43.73,39.49 44.092,40.673 42.908,41.49 C 41.692,42.332 40.47,42.228 39.654,41.014 L 33.124,31.304 L 35.35,27.029 L 42.924,38.293 Z M 28.564,40.889 L 27.548,39.467 L 29.766,35.203 L 31.858,38.315 C 32.664,39.513 33.004,40.555 31.932,41.49 C 30.716,42.332 29.38,42.104 28.564,40.889 Z" fill="rgb(25, 138, 151)"/>
</svg>
