<?xml version="1.0" encoding="UTF-8"?>
<!-- generated by Finnhub -->
<svg viewBox="0 0 55.5 55.5" xmlns="http://www.w3.org/2000/svg">
<path d="M 0,0 H 55.5 V 55.5 H 0 Z" fill="rgb(1, 121, 253)"/>
<path d="M 3.99,24.985 H 6 L 8,30 L 10,25 H 12 L 9,33 H 7 L 4,25 Z M 14,25 H 20 V 27 H 16 V 28 H 19 V 30 H 16 V 31 H 20 V 33 H 14 V 25 Z M 24,28.32 H 25.058 C 25.228,28.32 25.415,28.312 25.61,28.304 A 1.93,1.93 0 0,0 26.137,28.2 A 0.915,0.915 0 0,0 26.527,27.932 C 26.631,27.813 26.68,27.642 26.68,27.426 C 26.68,27.226 26.631,27.061 26.542,26.942 A 0.819,0.819 0 0,0 26.193,26.667 A 1.532,1.532 0 0,0 25.715,26.54 A 4.278,4.278 0 0,0 25.188,26.503 H 24 V 28.319 Z M 22,25 H 25.374 C 25.82,25 26.242,25.037 26.64,25.12 A 3.18,3.18 0 0,1 27.686,25.513 C 27.986,25.699 28.221,25.945 28.4,26.258 C 28.578,26.57 28.667,26.958 28.667,27.426 C 28.667,27.992 28.505,28.468 28.189,28.87 C 27.872,29.264 27.402,29.517 26.786,29.621 L 29,33 H 27 L 25,30 H 24 V 33 H 22 V 25 Z M 33,25 H 31 V 33 H 33 V 25 Z M 35,25 H 37 L 41,29.996 V 25 H 43 V 33 H 41 L 37,28 V 33 H 35 V 25 Z M 47,27 H 44 V 25 H 52 V 27 H 49 V 33 H 47 V 27 Z" fill="rgb(254, 254, 253)"/>
</svg>
