<?xml version="1.0" encoding="UTF-8"?>
<!-- generated by Finnhub -->
<svg viewBox="0 0 55.5 55.5" xmlns="http://www.w3.org/2000/svg">
<path d="M 0,0 H 55.5 V 55.5 H 0 Z" fill="rgb(246, 24, 98)"/>
<path d="M 43.369,14.985 H 17.243 C 15.217,15 13.919,17.16 14.867,18.956 L 17.277,24 H 12.742 A 1.74,1.74 0 0,0 11.251,24.845 A 1.75,1.75 0 0,0 11.201,26.561 L 19.61,42.071 A 1.747,1.747 0 0,0 21.15,43 A 1.74,1.74 0 0,0 22.69,42.07 L 24.966,38 L 27.839,43.564 C 28.847,45.476 31.579,45.48 32.591,43.569 L 45.691,18.855 C 46.616,17.107 45.353,15 43.379,15 Z M 31.869,25.663 L 25.99,36.382 A 1.161,1.161 0 0,1 24.368,36.834 A 1.161,1.161 0 0,1 23.941,36.382 L 18.133,25.707 A 1.166,1.166 0 0,1 18.585,24.152 C 18.759,24.052 18.955,24.001 19.155,24 H 30.872 A 1.126,1.126 0 0,1 31.839,24.549 A 1.132,1.132 0 0,1 31.869,25.663 Z" fill="rgb(254, 254, 253)"/>
</svg>
