<?xml version="1.0" encoding="UTF-8"?>
<!-- generated by Finnhub -->
<svg viewBox="0 0 55.5 55.5" xmlns="http://www.w3.org/2000/svg">
<path d="M 0,0 H 55.5 V 55.5 H 0 Z" fill="rgb(2, 89, 141)"/>
<path d="M 39.72,37.214999999999996 A 12,12 0 0,0 35.8,18 H 46 V 30.81 A 16.58,16.58 0 0,1 39.73,37.23 Z M 42.14,38 H 46 V 34.31 A 18.51,18.51 0 0,1 42.14,38 Z M 21.03,35.68 A 12,12 0 0,1 26.2,18 H 15.75 A 16.49,16.49 0 0,0 21.03,35.68 Z M 13.67,18 A 18.47,18.47 0 0,0 20.77,38 H 10 V 18 H 13.67 Z M 40,33 L 39.99,33.38 A 10,10 0 1,0 26.64,38 H 28.1 A 7,7 0 1,1 40,33 Z M 33.97,37.9 A 5.02,5.02 0 0,1 28,33 A 5,5 0 1,1 35.88,37.09 A 1.5,1.5 0 1,0 33.98,37.91 Z" fill="rgb(254, 254, 253)"/>
</svg>
