<?xml version="1.0" encoding="UTF-8"?>
<!-- generated by Finnhub -->
<svg viewBox="0 0 55.5 55.5" xmlns="http://www.w3.org/2000/svg">
<path d="M 0,0 H 55.5 V 55.5 H 0 Z" fill="rgb(29, 72, 139)"/>
<path d="M 11.99,29.985 H 17 V 31 H 11 V 23 H 12 V 30 Z M 24,31 L 21,24 L 18,31 H 19.02 L 19.62,29.6 H 22.38 L 22.98,31 H 24 Z M 21,26.4 L 21.95,28.6 H 20.05 L 21,26.4 Z M 27.6,25 H 25 V 31 H 26 V 29 H 27.47 L 28.79,31 H 30 L 28.6,28.84 C 29.22,28.73 30,28.24 30,27 C 30,25.42 28.88,25 27.6,25 Z M 27.6,28 H 26 V 26 H 27.6 C 28.36,26 29,26.18 29,27 C 29,27.8 28.36,28 27.6,28 Z M 31,25 H 36 V 26 H 32 V 27.5 H 35 V 28.5 H 32 V 30 H 36 V 31 H 31 V 25 Z M 39.6,25 H 37 V 31 H 39.84 A 3.02,3.02 0 0,0 43,28 C 43,26.48 41.82,25 39.6,25 Z M 39.84,30 H 38 V 26 H 39.84 C 41.14,26 42,26.98 42,28 C 42,29.01 41.14,30 39.84,30 Z M 50,28 C 50,26.31 48.67,25 47,25 S 44,26.31 44,28 C 44,29.68 45.33,31 47,31 S 50,29.69 50,28 Z M 47,30 A 2,2 0 1,0 47,26 A 2,2 0 0,0 47,30 Z M 7,35 V 27 H 8 V 34 H 15 V 35 H 7 Z M 9,25 V 33 H 16 V 32 H 10 V 25 H 9 Z" fill="rgb(254, 254, 253)" fill-rule="evenodd"/>
</svg>
