<?xml version="1.0" encoding="UTF-8"?>
<!-- generated by Finnhub -->
<svg viewBox="0 0 55.5 55.5" xmlns="http://www.w3.org/2000/svg">
<path d="M 0,0 H 55.5 V 55.5 H 0 Z" fill="rgb(239, 242, 248)"/>
<ellipse cx="28" cy="28" rx="19" ry="10" fill="rgb(254, 254, 253)"/>
<path d="M 28.209999999999997,38.985 A 39.84,39.84 0 0,1 26.45,38.97 L 26.1,38.96 H 26.04 C 25.88,38.96 25.72,38.94 25.58,38.92 C 15.68,38.26 8,33.62 8,28 V 27.87 C 8,27.66 8,27.45 8.02,27.24 C 8.03,27.02 8.07,26.8 8.12,26.59 C 8.14,26.42 8.18,26.26 8.19,26.09 C 8.22,25.96 8.26,25.8 8.33,25.67 L 8.39,25.53 A 8.6,8.6 0 0,1 9.92,23.04 L 10.15,22.8 A 7.65,7.65 0 0,1 11.69,21.41 A 19.7,19.7 0 0,1 13.39,20.31 L 13.99,19.96 L 14.39,19.76 A 9.47,9.47 0 0,1 15.43,19.28 L 15.7,19.18 L 15.99,19.06 L 16.56,18.85 L 17.49,18.52 C 17.69,18.43 17.91,18.37 18.13,18.3 A 4.52,4.52 0 0,1 19,18.07 L 19.42,17.97 L 19.95,17.85 A 14.72,14.72 0 0,0 20.88,17.63 C 22.66,17.28 24.45,17.11 26.25,17.04 A 33.8,33.8 0 0,1 28,17 C 39.05,17 48,21.92 48,28 C 48,28.26 47.98,28.52 47.95,28.77 V 28.83 L 47.93,29.09 C 47.86,29.52 47.75,29.93 47.63,30.35 C 47.53,30.63 47.38,30.91 47.24,31.17 L 47.18,31.3 A 6.94,6.94 0 0,1 45.72,33.26 L 45.27,33.72 A 11.38,11.38 0 0,1 42.57,35.68 L 42.13,35.93 C 41.9,36.07 41.66,36.19 41.42,36.31 C 41.25,36.39 41.08,36.47 40.92,36.57 C 40.69,36.67 40.47,36.76 40.23,36.84 L 39.93,36.96 L 39.62,37.09 L 39.3,37.22 L 39.1,37.28 A 7.33,7.33 0 0,1 38.43,37.5 L 37.95,37.65 L 37.33,37.85 C 37.18,37.88 37.04,37.92 36.9,37.97 C 36.6,38.06 36.3,38.14 35.98,38.17 L 35.94,38.18 L 35.91,38.2 C 35.51,38.3 35.09,38.41 34.67,38.43 H 34.65 C 34.43,38.53 34.19,38.56 33.95,38.58 L 33.59,38.63 L 33.08,38.71 C 32.78,38.76 32.47,38.81 32.17,38.83 C 31.95,38.83 31.73,38.86 31.51,38.88 L 30.84,38.93 A 43.05,43.05 0 0,1 28.22,39 Z M 18.33,30.76 L 18.6,30.16 C 18.69,29.93 18.6,29.7 18.4,29.61 C 18.18,29.52 17.98,29.61 17.87,29.83 L 17.47,30.72 L 17.15,31.4 L 16.83,32.09 C 16.81,32.15 16.76,32.24 16.72,32.3 L 16.56,32.09 V 32.07 L 16.54,32.04 L 16.39,31.64 V 31.63 L 16.23,31.22 A 15.83,15.83 0 0,0 15.73,29.92 L 15.7,29.87 C 15.62,29.69 15.55,29.52 15.32,29.5 A 0.45,0.45 0 0,0 14.9,29.65 C 14.8,29.78 14.77,29.91 14.86,30.07 A 0.7,0.7 0 0,1 14.95,30.28 C 14.99,30.43 15.04,30.57 15.1,30.72 C 15.23,31.02 15.37,31.32 15.48,31.63 L 15.61,31.96 A 7.32,7.32 0 0,0 16,33 C 16.09,33.2 16.18,33.37 16.44,33.37 L 16.6,33.38 L 16.69,33.39 C 16.99,33.41 17.17,33.33 17.26,33.13 C 17.38,32.9 17.49,32.65 17.59,32.41 L 17.69,32.2 L 18,31.48 L 18.32,30.76 Z M 14.93,26.98 V 27.52 A 4.6,4.6 0 0,0 14.95,28.09 C 14.95,28.26 15.15,28.43 15.37,28.43 C 15.59,28.43 15.72,28.33 15.72,28.09 V 28.03 C 15.75,27.68 15.77,27.35 15.77,27 C 15.77,26.67 15.59,26.54 15.27,26.57 C 15.1,26.57 14.95,26.78 14.92,26.97 Z M 16.56,28.46 C 16.76,28.46 16.94,28.3 16.94,28.11 C 16.94,27.91 16.94,27.71 16.96,27.54 V 26.89 C 16.96,26.79 16.94,26.72 16.83,26.65 C 16.7,26.57 16.56,26.5 16.43,26.59 C 16.27,26.67 16.16,26.79 16.16,26.98 V 28.08 C 16.16,28.28 16.36,28.46 16.56,28.46 Z M 17.34,27.5 L 17.32,28.02 C 17.32,28.22 17.4,28.35 17.56,28.43 C 17.78,28.54 18.05,28.46 18.09,28.22 C 18.12,28.06 18.13,27.9 18.14,27.74 C 18.14,27.66 18.14,27.58 18.16,27.5 H 18.13 V 26.96 A 0.38,0.38 0 0,0 17.53,26.66 A 0.41,0.41 0 0,0 17.36,26.98 L 17.34,27.5 Z M 20.08,32 L 20.09,31.48 L 20.1,30.96 V 30.63 C 20.11,30.41 20.12,30.2 20.1,30 C 20.1,29.83 19.9,29.65 19.73,29.6 C 19.6,29.59 19.37,29.74 19.31,29.9 A 0.68,0.68 0 0,0 19.24,30.2 V 33.11 C 19.22,33.26 19.31,33.37 19.44,33.43 C 19.57,33.5 19.71,33.48 19.84,33.41 C 20.04,33.31 20.06,33.11 20.06,32.93 C 20.08,32.63 20.08,32.3 20.08,32 Z M 27.34,33.54 C 27.54,33.44 27.61,33.24 27.61,33.02 V 31.6 C 27.61,31.12 27.61,30.64 27.65,30.14 C 27.65,29.86 27.5,29.71 27.23,29.71 H 27.17 A 27.5,27.5 0 0,0 25.59,29.66 H 22.78 C 22.54,29.66 22.52,29.62 22.52,29.4 C 22.52,29.3 22.52,29.18 22.5,29.08 C 22.47,28.88 22.3,28.81 22.14,28.79 C 21.99,28.77 21.85,28.86 21.76,28.99 C 21.67,29.12 21.67,29.25 21.68,29.38 V 29.44 C 21.68,29.64 21.68,29.64 21.48,29.64 C 21.34,29.64 21.18,29.64 21.06,29.66 C 20.86,29.71 20.75,29.9 20.76,30.1 C 20.79,30.3 20.96,30.44 21.16,30.44 H 21.54 C 21.64,30.44 21.68,30.51 21.68,30.6 C 21.65,31.03 21.65,31.49 21.65,31.92 C 21.63,32.32 21.61,32.71 21.61,33.1 C 21.61,33.38 21.74,33.49 22.03,33.49 C 22.3,33.47 22.43,33.36 22.43,33.09 V 32.79 C 22.43,32.09 22.45,31.42 22.47,30.72 V 30.66 C 22.47,30.46 22.5,30.46 22.67,30.46 C 22.85,30.49 23.05,30.51 23.23,30.51 L 25.82,30.58 H 26.62 C 26.77,30.58 26.79,30.6 26.79,30.75 V 31.12 C 26.79,31.21 26.77,31.27 26.66,31.27 L 25.93,31.26 L 25.2,31.25 C 24.84,31.23 24.47,31.21 24.11,31.21 A 0.4,0.4 0 0,0 23.71,31.53 C 23.69,31.62 23.67,31.71 23.67,31.79 V 33.14 C 23.67,33.27 23.69,33.38 23.77,33.42 C 23.87,33.47 24,33.53 24.13,33.53 L 24.75,33.55 A 42.2,42.2 0 0,0 27.03,33.61 C 27.14,33.61 27.25,33.6 27.34,33.55 Z M 36.95,32.63 C 36.97,32.15 36.97,31.7 36.97,31.23 A 5,5 0 0,1 37.04,30.41 C 37.06,30.13 36.91,29.98 36.64,29.93 C 36.55,29.91 36.44,29.89 36.35,29.89 H 36.29 C 35.63,29.87 34.99,29.85 34.32,29.85 H 31.84 C 31.17,29.85 30.51,29.83 29.84,29.8 C 29.54,29.78 29.2,29.78 28.87,29.78 C 28.61,29.78 28.45,29.87 28.43,30.18 C 28.41,30.65 28.38,31.15 28.38,31.63 C 28.38,32 28.56,32.11 28.85,32.11 C 29.32,32.14 29.79,32.15 30.25,32.16 L 30.95,32.17 H 31.35 C 31.44,32.17 31.46,32.22 31.46,32.3 V 32.74 C 31.46,32.83 31.39,32.87 31.31,32.87 C 30.86,32.85 30.44,32.85 30.02,32.85 A 24.4,24.4 0 0,0 28.76,32.8 A 0.4,0.4 0 0,0 28.45,32.93 C 28.32,33.07 28.32,33.22 28.38,33.37 C 28.45,33.52 28.58,33.61 28.76,33.61 H 30.27 L 30.84,33.63 L 31.36,33.64 L 31.88,33.65 C 32.1,33.65 32.21,33.55 32.26,33.33 A 3,3 0 0,0 32.3,32.89 V 31.83 C 32.3,31.57 32.1,31.35 31.81,31.35 C 31.11,31.35 30.4,31.33 29.69,31.3 H 29.48 C 29.35,31.31 29.28,31.32 29.25,31.28 C 29.21,31.25 29.21,31.16 29.22,30.96 V 30.83 C 29.22,30.72 29.22,30.66 29.25,30.63 C 29.28,30.61 29.33,30.61 29.45,30.61 C 29.95,30.61 30.46,30.63 30.97,30.65 L 31.98,30.67 C 32.32,30.67 32.66,30.68 32.98,30.7 L 34.46,30.73 L 35.93,30.76 C 36.13,30.76 36.13,30.78 36.13,30.98 L 36.11,31.58 L 36.09,32.18 V 32.74 C 36.09,32.96 36.09,32.96 35.87,32.96 A 21.7,21.7 0 0,0 34.65,32.91 H 34.33 C 34.23,32.91 34.12,32.91 34.01,32.89 C 33.83,32.87 33.83,32.87 33.83,32.69 L 33.84,32.49 L 33.85,32.26 C 33.87,32 33.87,31.72 33.87,31.46 C 33.85,31.26 33.67,31.06 33.5,31.04 A 0.42,0.42 0 0,0 33.05,31.3 A 0.66,0.66 0 0,0 32.99,31.59 V 33.31 C 32.99,33.46 33.05,33.59 33.21,33.65 A 0.5,0.5 0 0,0 33.48,33.72 H 33.54 C 34.51,33.74 35.47,33.76 36.44,33.76 C 36.75,33.76 36.88,33.66 36.91,33.35 C 36.93,33.11 36.95,32.87 36.95,32.63 Z M 39.58,24.35 C 39.83,24.35 40.08,24.37 40.32,24.39 C 40.47,24.41 40.49,24.42 40.4,24.63 V 27.89 C 40.4,28.13 40.36,28.15 40.12,28.15 L 39.22,28.13 L 38.32,28.11 H 38.19 C 38.09,28.1 37.99,28.09 37.9,28.11 C 37.57,28.13 37.44,28.39 37.57,28.7 C 37.63,28.82 37.75,28.86 37.87,28.9 L 37.92,28.91 H 40.8 C 41.09,28.91 41.2,28.81 41.2,28.54 L 41.27,25.74 C 41.27,25.47 41.27,25.2 41.29,24.92 L 41.31,24.11 C 41.31,23.78 41.11,23.63 40.82,23.63 L 40.59,23.61 L 40.36,23.59 C 40.25,23.57 40.23,23.52 40.23,23.41 V 23.36 C 40.25,23.07 40.27,22.81 40.27,22.52 C 40.27,22.24 40.12,22.09 39.85,22.09 L 39.02,22.07 L 38.19,22.04 C 37.81,22.04 37.66,22.2 37.66,22.57 V 23.39 C 37.66,23.52 37.61,23.57 37.48,23.57 H 37 C 36.74,23.57 36.72,23.54 36.72,23.28 V 22.39 C 36.72,22.29 36.72,22.17 36.61,22.11 C 36.47,22.02 36.34,21.96 36.19,22.02 C 36.01,22.11 35.92,22.22 35.92,22.42 C 35.92,22.72 35.92,23.02 35.9,23.32 C 35.9,23.5 35.88,23.52 35.72,23.52 C 35.3,23.52 34.88,23.5 34.46,23.48 C 34.28,23.48 34.28,23.46 34.28,23.28 C 34.28,23.17 34.28,23.06 34.3,22.94 C 34.3,22.77 34.32,22.6 34.3,22.44 C 34.28,22.14 34.15,22 33.86,22.02 C 33.6,22.04 33.49,22.15 33.49,22.42 V 23.28 C 33.49,23.48 33.44,23.5 33.24,23.5 H 32.98 C 32.73,23.5 32.6,23.67 32.58,23.9 C 32.58,24.09 32.71,24.28 32.98,24.3 H 33.25 C 33.42,24.33 33.45,24.33 33.45,24.5 V 25.13 C 33.42,25.57 33.4,26 33.4,26.43 C 33.4,26.7 33.53,26.85 33.77,26.89 A 39.61,39.61 0 0,1 35.59,26.95 H 35.65 C 35.83,26.95 35.85,27 35.83,27.15 A 4.5,4.5 0 0,0 35.79,27.72 V 27.89 C 35.79,28.07 35.79,28.07 35.61,28.07 H 35.34 C 34.86,28.07 34.39,28.05 33.9,28.02 H 33.84 C 33.5,28.02 33.16,28 32.83,27.99 H 32.82 L 31.8,27.96 L 30.42,27.93 C 29.96,27.93 29.5,27.93 29.04,27.91 H 28 C 27.88,27.91 27.82,27.91 27.82,27.78 V 26.13 H 27.84 V 24.46 C 27.84,24.26 27.86,24.24 28.06,24.24 H 28.96 C 29.1,24.24 29.15,24.28 29.15,24.41 V 25.37 C 29.15,25.67 29.12,26 29.1,26.3 C 29.08,26.43 29.12,26.54 29.2,26.63 C 29.32,26.78 29.46,26.85 29.66,26.8 C 29.83,26.74 29.94,26.6 29.94,26.43 A 25.83,25.83 0 0,0 29.99,25.13 V 25.07 C 30.01,24.84 30.03,24.61 30.03,24.37 C 30.05,24.24 30.1,24.22 30.21,24.22 H 31.09 C 31.27,24.22 31.29,24.28 31.29,24.43 V 24.66 L 31.27,24.89 V 26.46 C 31.29,26.61 31.45,26.78 31.6,26.8 C 31.85,26.83 31.98,26.76 32.05,26.54 A 0.65,0.65 0 0,0 32.09,26.34 L 32.12,25.12 L 32.16,23.89 C 32.18,23.54 31.98,23.37 31.65,23.37 H 30.7 L 30.4,23.35 L 30.12,23.33 L 30.11,23.04 L 30.1,22.76 V 22.22 A 0.44,0.44 0 0,0 29.72,21.85 A 0.36,0.36 0 0,0 29.32,22.13 V 22.18 A 1.2,1.2 0 0,0 29.28,22.43 V 23.2 C 29.28,23.35 29.23,23.37 29.08,23.37 L 28.74,23.36 L 28.39,23.35 H 28.24 C 28.1,23.34 28.04,23.34 28,23.3 C 27.97,23.27 27.97,23.2 27.97,23.08 V 22.23 C 27.95,21.96 27.77,21.8 27.51,21.83 A 0.45,0.45 0 0,0 27.13,22.26 V 23.06 C 27.13,23.3 27.13,23.3 26.89,23.3 L 26.34,23.28 C 26.15,23.28 25.97,23.28 25.78,23.26 H 25.76 C 25.74,23.27 25.73,23.28 25.72,23.26 C 25.69,23.26 25.69,23.22 25.69,23.2 L 25.71,23.17 C 25.73,23.15 25.75,23.12 25.78,23.11 L 26.12,22.84 L 26.47,22.57 C 26.57,22.47 26.69,22.35 26.67,22.17 C 26.64,22.04 26.6,21.87 26.45,21.85 H 26.4 C 26.26,21.82 26.1,21.8 25.96,21.93 C 25.85,22.05 25.72,22.13 25.59,22.23 L 25.45,22.33 C 25.07,22.61 24.7,22.89 24.35,23.2 C 24.28,23.24 24.21,23.28 24.12,23.28 A 47.8,47.8 0 0,1 22.37,23.26 C 22.2,23.26 22.17,23.24 22.17,23.09 V 22.11 C 22.17,21.93 22.08,21.81 21.91,21.74 C 21.75,21.7 21.58,21.7 21.46,21.83 A 0.6,0.6 0 0,0 21.36,22.17 C 21.33,22.43 21.33,22.67 21.33,22.93 C 21.33,23.22 21.33,23.22 21.04,23.22 C 20.58,23.22 20.14,23.2 19.67,23.18 H 19.58 L 19.55,23.16 A 0.08,0.08 0 0,0 19.52,23.16 L 19.54,23.11 L 19.56,23.07 L 19.96,22.74 L 20.12,22.61 C 20.22,22.53 20.34,22.45 20.42,22.35 C 20.52,22.26 20.58,22.13 20.49,21.95 C 20.4,21.8 20.29,21.72 20.09,21.72 A 0.58,0.58 0 0,0 19.72,21.87 L 19.27,22.23 L 18.83,22.59 L 18.23,23.04 A 0.47,0.47 0 0,1 18.01,23.14 H 16.84 L 16.78,23.12 L 16.73,23.11 A 0.47,0.47 0 0,1 16.79,23 C 17.09,22.78 17.37,22.57 17.64,22.33 C 17.86,22.11 17.81,21.85 17.52,21.7 C 17.35,21.6 17.19,21.67 17.04,21.76 L 16.83,21.92 L 16.73,22 C 16.24,22.4 15.78,22.76 15.29,23.13 A 0.46,0.46 0 0,0 15.07,23.59 C 15.09,23.76 15.17,23.87 15.36,23.89 C 15.58,23.91 15.8,23.93 16.02,23.93 C 16.31,23.96 16.57,23.96 16.86,23.96 L 16.92,23.99 L 16.97,24.02 L 16.9,24.09 L 15.78,25 L 15.47,25.25 L 15.16,25.5 C 15.02,25.59 15,25.72 15.02,25.85 C 15.07,26.09 15.18,26.2 15.42,26.2 C 15.64,26.22 15.84,26.22 16.06,26.22 L 16.94,26.24 L 17.81,26.26 C 18.03,26.28 18.21,26.06 18.23,25.87 C 18.23,25.67 18.03,25.47 17.81,25.46 L 17.35,25.43 C 17.19,25.43 17.04,25.43 16.88,25.41 H 16.78 C 16.71,25.41 16.68,25.37 16.73,25.33 L 16.79,25.26 L 17.61,24.61 A 102.44,102.44 0 0,1 18.63,23.83 C 18.65,23.83 18.72,23.85 18.72,23.87 V 24.1 C 18.7,24.43 18.68,24.74 18.68,25.07 V 28.15 C 18.68,28.43 18.83,28.59 19.12,28.59 L 20.77,28.62 L 22.42,28.65 C 22.69,28.65 22.93,28.67 23.2,28.69 H 23.26 C 23.44,28.69 23.66,28.57 23.7,28.39 A 0.39,0.39 0 0,0 23.48,27.89 A 0.7,0.7 0 0,0 23.19,27.83 H 22.22 C 22.02,27.83 22.02,27.8 22.02,27.63 V 27.49 L 22.04,27.35 C 22.06,27.13 22.06,27.13 22.28,27.13 H 23.37 C 23.57,27.13 23.75,26.96 23.75,26.76 A 0.4,0.4 0 0,0 23.39,26.37 L 22.89,26.35 L 22.39,26.33 H 22.17 C 22.08,26.33 22.04,26.28 22.04,26.2 V 25.78 C 22.04,25.68 22.11,25.63 22.22,25.63 H 23.3 C 23.61,25.61 23.77,25.43 23.72,25.15 C 23.7,24.95 23.5,24.8 23.26,24.8 H 22.31 C 22.19,24.8 22.13,24.8 22.1,24.77 C 22.06,24.73 22.06,24.65 22.06,24.47 V 24.35 C 22.07,24.23 22.08,24.17 22.11,24.14 C 22.15,24.11 22.21,24.11 22.33,24.11 C 23.15,24.11 23.97,24.13 24.79,24.15 C 24.94,24.15 24.94,24.17 24.94,24.35 V 26.59 C 24.92,27.15 24.9,27.74 24.9,28.3 C 24.9,28.41 24.94,28.52 25.03,28.6 C 25.16,28.74 25.32,28.72 25.45,28.67 A 0.4,0.4 0 0,0 25.74,28.33 V 28.11 A 202.71,202.71 0 0,1 25.8,24.28 C 25.83,24.24 25.87,24.2 25.91,24.2 H 26.95 C 27.07,24.2 27.11,24.26 27.11,24.35 V 24.52 C 27.11,24.96 27.09,25.42 27.07,25.85 V 26.78 C 27.04,27.26 27.02,27.76 27.02,28.24 C 27.02,28.61 27.2,28.67 27.49,28.72 H 27.59 L 28.49,28.74 L 29.37,28.76 L 30.57,28.78 L 31.78,28.8 C 32.84,28.83 33.88,28.83 34.92,28.83 C 35.13,28.83 35.34,28.83 35.56,28.85 L 36.19,28.87 C 36.56,28.87 36.67,28.67 36.67,28.39 L 36.7,27.77 C 36.7,27.57 36.7,27.36 36.72,27.15 C 36.72,27.04 36.72,26.99 36.74,26.96 C 36.77,26.93 36.82,26.93 36.92,26.93 H 38 C 38.3,26.93 38.42,26.8 38.42,26.53 L 38.46,24.9 L 38.49,23.28 L 38.5,23.09 L 38.51,22.93 C 38.51,22.85 38.56,22.8 38.65,22.8 L 38.97,22.82 H 39.29 C 39.38,22.85 39.42,22.89 39.42,22.98 V 24.2 C 39.42,24.3 39.46,24.35 39.57,24.35 Z M 41.16,31.1 L 41.38,30.6 C 41.4,30.54 41.42,30.48 41.4,30.43 A 0.42,0.42 0 0,0 41.11,29.98 C 41.01,29.93 40.74,30.02 40.67,30.13 C 40.6,30.23 40.54,30.37 40.49,30.48 L 40.09,31.46 C 39.98,31.76 39.84,32.04 39.71,32.33 L 39.58,32.61 L 39.5,32.7 C 39.49,32.67 39.47,32.66 39.45,32.64 A 0.21,0.21 0 0,1 39.41,32.59 L 39.26,32.23 L 39.12,31.87 L 38.79,31.04 L 38.46,30.22 C 38.35,29.98 38.12,29.85 37.88,29.93 C 37.7,30 37.58,30.23 37.64,30.46 C 37.7,30.67 37.79,30.89 37.88,31.11 L 37.95,31.26 L 38.01,31.41 L 38.19,31.84 L 38.37,32.26 C 38.52,32.67 38.67,33.06 38.85,33.48 C 38.97,33.72 39.01,33.96 38.88,34.2 C 38.77,34.4 38.68,34.59 38.61,34.8 C 38.54,35 38.66,35.24 38.81,35.3 C 38.97,35.4 39.25,35.3 39.36,35.13 C 39.42,35.04 39.46,34.96 39.5,34.87 L 39.56,34.74 L 39.76,34.24 L 39.96,33.74 A 19,19 0 0,1 40.4,32.76 L 40.94,31.59 L 41.16,31.09 Z M 41.93,21.93 A 10.77,10.77 0 0,1 43.5,22.89 L 43.81,23.09 L 43.79,23.05 A 0.11,0.11 0 0,0 43.77,23 C 43.61,22.87 43.46,22.74 43.3,22.63 A 17.98,17.98 0 0,0 42.25,21.93 C 42.1,21.85 41.95,21.77 41.82,21.67 C 41.38,21.38 40.9,21.15 40.42,20.92 L 40.14,20.78 C 39.82,20.62 39.48,20.48 39.15,20.35 L 38.99,20.28 L 38.74,20.18 A 11.2,11.2 0 0,1 38.5,20.08 L 38.21,20 L 37.92,19.91 L 37.57,19.79 A 22.06,22.06 0 0,0 34.97,19.07 C 34.67,18.99 34.39,18.94 34.1,18.88 L 33.72,18.8 C 33.67,18.78 33.65,18.78 33.61,18.78 L 33.3,18.74 C 33.1,18.72 32.88,18.7 32.68,18.65 C 32.38,18.58 32.05,18.55 31.74,18.51 L 31.26,18.46 A 4.32,4.32 0 0,0 30.73,18.41 C 30.55,18.41 30.38,18.39 30.21,18.38 L 29.69,18.35 L 29.24,18.31 A 5.19,5.19 0 0,0 28.56,18.26 H 27.76 C 26.88,18.24 25.99,18.23 25.11,18.35 C 24.96,18.38 24.8,18.39 24.64,18.4 L 24.4,18.41 A 28.99,28.99 0 0,1 22.98,18.52 L 22.95,18.53 A 0.08,0.08 0 0,1 22.92,18.54 L 22.25,18.66 L 21.59,18.78 L 21.03,18.89 L 20.37,19.02 C 20.25,19.04 20.13,19.08 20.02,19.11 L 19.66,19.2 A 6.4,6.4 0 0,0 18.82,19.4 A 18.58,18.58 0 0,1 18.22,19.59 L 17.96,19.67 L 17.03,20 C 16.67,20.12 16.32,20.27 15.97,20.41 L 15.54,20.59 A 33.32,33.32 0 0,1 14.64,21.02 C 14.42,21.13 14.19,21.24 13.97,21.37 L 12.95,22.02 L 12.87,22.07 C 12.63,22.23 12.35,22.41 12.14,22.61 A 8,8 0 0,0 9.82,25.44 A 5.84,5.84 0 0,0 9.28,27.61 V 27.98 C 9.24,28.54 9.41,29.07 9.59,29.58 A 5.8,5.8 0 0,0 10.57,31.39 C 10.71,31.59 10.85,31.78 11.03,31.93 L 10.85,31.65 L 10.67,31.37 A 7.5,7.5 0 0,0 10.57,31.21 L 10.34,30.76 C 10.17,30.33 10.01,29.87 9.9,29.41 A 5,5 0 0,1 10.25,26.19 A 8.66,8.66 0 0,1 12.38,23.43 C 12.65,23.2 12.95,22.99 13.26,22.78 L 13.53,22.58 A 16.23,16.23 0 0,1 16.74,20.87 L 17.02,20.75 A 16.65,16.65 0 0,1 18.81,20.12 L 19.15,20.02 L 19.33,19.96 A 9.07,9.07 0 0,1 20.77,19.59 L 21.19,19.51 L 21.68,19.41 A 14.82,14.82 0 0,1 23.45,19.11 C 23.76,19.07 24.08,19.01 24.4,19 C 24.53,19 24.66,18.97 24.8,18.96 C 25.03,18.93 25.26,18.9 25.48,18.91 H 25.75 C 25.94,18.91 26.13,18.89 26.31,18.87 L 26.88,18.83 L 27.41,18.82 C 27.59,18.82 27.76,18.82 27.94,18.8 C 28.58,18.78 29.22,18.82 29.86,18.86 L 31.06,18.91 L 31.12,18.92 L 31.17,18.93 L 31.62,18.98 L 32.06,19.02 L 32.22,19.04 C 32.28,19.04 32.34,19.05 32.39,19.07 L 32.92,19.16 C 33.19,19.21 33.47,19.26 33.74,19.28 C 34.08,19.31 34.4,19.38 34.72,19.45 L 35.07,19.52 L 35.46,19.61 L 35.84,19.7 A 11.58,11.58 0 0,1 37.75,20.22 C 37.99,20.26 38.22,20.35 38.45,20.43 L 38.77,20.54 C 39.03,20.62 39.27,20.72 39.53,20.84 A 29.17,29.17 0 0,0 40.69,21.3 L 41.31,21.62 C 41.51,21.72 41.72,21.84 41.93,21.93 Z M 34.29,24.43 V 25.57 L 34.32,25.78 C 34.32,25.85 34.32,25.92 34.34,26 L 34.54,26.01 H 34.55 L 34.76,26.02 H 34.82 C 35.11,26.05 35.38,26.07 35.67,26.07 C 35.84,26.07 35.87,26.07 35.87,25.91 C 35.87,25.43 35.89,24.93 35.91,24.46 C 35.93,24.33 35.89,24.28 35.76,24.28 H 34.45 C 34.34,24.28 34.29,24.33 34.29,24.43 Z M 37.66,25.52 L 37.64,25.93 C 37.64,26.04 37.59,26.09 37.5,26.09 H 36.88 C 36.75,26.09 36.71,26.02 36.71,25.91 L 36.73,25.17 L 36.75,24.43 C 36.75,24.33 36.8,24.3 36.91,24.3 H 37.53 C 37.66,24.3 37.7,24.35 37.7,24.48 C 37.67,24.62 37.67,24.77 37.68,24.93 V 25.11 L 37.66,25.52 Z M 20.06,24.71 C 20.19,24.71 20.32,24.73 20.44,24.74 C 20.64,24.74 20.86,24.74 21.08,24.72 C 21.23,24.7 21.26,24.69 21.26,24.52 V 24.17 C 21.26,24.09 21.26,24.04 21.23,24.02 C 21.21,24 21.17,24 21.08,24 H 20.18 A 3.34,3.34 0 0,1 19.71,23.98 C 19.61,23.98 19.55,24.02 19.55,24.13 V 24.53 C 19.55,24.63 19.6,24.67 19.68,24.67 L 20.06,24.71 Z M 20.5,27.76 C 20.22,27.74 19.93,27.72 19.64,27.72 C 19.51,27.72 19.49,27.67 19.49,27.57 V 27.17 C 19.49,27.04 19.55,27 19.66,27.02 C 19.82,27.04 19.97,27.07 20.13,27.07 H 21 C 21.18,27.07 21.2,27.07 21.2,27.27 V 27.47 C 21.2,27.63 21.21,27.7 21.17,27.74 C 21.14,27.77 21.07,27.77 20.94,27.77 H 20.49 Z M 19.68,26.2 H 20.35 C 20.5,26.2 20.64,26.2 20.79,26.22 H 20.98 C 21.1,26.22 21.16,26.21 21.18,26.18 C 21.22,26.15 21.22,26.08 21.21,25.96 V 25.8 C 21.21,25.54 21.19,25.52 20.92,25.52 C 20.62,25.5 20.3,25.5 19.99,25.5 C 19.46,25.5 19.46,25.5 19.49,26 C 19.49,26.17 19.49,26.2 19.69,26.2 Z M 25.48,32.73 L 24.71,32.72 C 24.51,32.72 24.51,32.7 24.51,32.54 V 32.37 C 24.52,32.2 24.52,32.13 24.56,32.09 C 24.59,32.06 24.65,32.07 24.75,32.07 H 26.55 C 26.77,32.07 26.77,32.07 26.75,32.28 C 26.75,32.39 26.75,32.5 26.72,32.63 C 26.72,32.72 26.68,32.76 26.57,32.76 H 26.26 V 32.74 L 25.48,32.73 Z" fill="rgb(236, 27, 34)"/>
</svg>
