<?xml version="1.0" encoding="UTF-8"?>
<!-- generated by Finnhub -->
<svg viewBox="0 0 55.5 55.5" xmlns="http://www.w3.org/2000/svg">
<path d="M 0,0 H 55.5 V 55.5 H 0 Z" fill="rgb(239, 242, 248)"/>
<path d="M 23.99,26.605 V 37.85 C 23.46,38.27 22.93,37.73 22.74,37.41 C 21.9,37.63 21.79,37.05 21.84,36.72 C 20.91,36.58 20.82,36.06 20.89,35.82 C 19.79,35.62 19.87,34.99 20.05,34.7 C 19.04,34.48 18.99,33.86 19.09,33.57 C 18.87,33.49 18.43,33.27 18.43,33 C 18.43,32.75 18.56,32.6 18.63,32.57 C 18.37,32.41 17.84,32.03 17.84,31.79 S 17.9,31.42 17.94,31.39 C 17.28,30.97 17.24,30.44 17.3,30.23 C 17.2,30.11 17.01,29.83 17.01,29.63 C 17.01,29.43 17.07,29.23 17.11,29.16 C 17.01,28.89 16.81,28.17 16.81,27.55 C 16.81,26.92 17.01,26.41 17.11,26.23 C 16.88,26.07 16.43,25.65 16.43,25.34 C 16.43,25.03 16.63,25.07 16.73,25.14 C 16.51,24.96 16.07,24.54 16.07,24.22 C 16.07,23.9 16.39,23.85 16.55,23.87 C 16.19,23.56 15.45,22.81 15.45,22.31 S 15.71,21.85 15.84,21.94 C 15.21,21 13.91,19.08 13.78,18.84 C 13.61,18.54 13.41,17.74 13.58,17.74 C 13.71,17.74 13.88,17.87 13.94,17.93 L 16.18,20.73 L 13.33,15.97 C 13.18,15.71 12.9,15.2 13.03,15.19 A 0.4,0.4 0 0,1 13.33,15.32 L 16.58,19.64 L 13.47,14.43 A 1.8,1.8 0 0,1 13.24,13.33 L 13.47,13.4 L 16.84,18.3 L 13.34,11.6 C 13.26,11.47 13.17,11 13.34,11 C 13.47,11 13.58,11.14 13.63,11.22 L 18.87,18.49 C 20.65,19.55 21.61,22.76 21.61,22.89 A 6.94,6.94 0 0,1 24,26.63 Z M 32,26.62 V 37.85 C 32.54,38.27 33.07,37.73 33.26,37.41 C 34.1,37.63 34.21,37.05 34.16,36.72 C 35.09,36.58 35.18,36.06 35.11,35.82 C 36.21,35.62 36.13,34.99 35.95,34.7 C 36.96,34.48 37.01,33.86 36.91,33.57 C 37.13,33.49 37.57,33.27 37.57,33 C 37.57,32.75 37.44,32.6 37.37,32.57 C 37.64,32.41 38.16,32.03 38.16,31.79 S 38.1,31.42 38.06,31.39 C 38.72,30.97 38.76,30.44 38.7,30.23 C 38.8,30.11 38.99,29.83 38.99,29.63 C 38.99,29.43 38.93,29.23 38.89,29.16 C 38.99,28.89 39.19,28.17 39.19,27.55 C 39.19,26.92 38.99,26.41 38.89,26.23 C 39.12,26.07 39.57,25.65 39.57,25.34 C 39.57,25.03 39.37,25.07 39.27,25.14 C 39.49,24.96 39.93,24.54 39.93,24.22 C 39.93,23.9 39.61,23.85 39.45,23.87 C 39.81,23.56 40.55,22.81 40.55,22.31 S 40.29,21.85 40.16,21.94 C 40.79,21 42.09,19.08 42.22,18.84 C 42.39,18.54 42.59,17.74 42.42,17.74 C 42.29,17.74 42.12,17.87 42.06,17.93 L 39.82,20.73 L 42.67,15.97 C 42.82,15.71 43.1,15.2 42.97,15.19 A 0.4,0.4 0 0,0 42.67,15.32 L 39.42,19.64 L 42.53,14.43 C 42.79,14 42.79,13.52 42.76,13.33 L 42.53,13.4 L 39.16,18.3 L 42.66,11.6 C 42.74,11.47 42.83,11 42.66,11 C 42.53,11 42.42,11.14 42.37,11.22 L 37.14,18.49 C 35.35,19.55 34.39,22.76 34.39,22.89 A 6.94,6.94 0 0,0 32,26.63 Z M 31,29 H 25 C 25.25,27.14 25.78,23.43 25.84,23.18 C 25.9,22.88 25.98,21.99 25.06,21.99 C 24.32,21.99 24.16,22.45 24.17,22.68 A 1.12,1.12 0 0,1 23.68,21.83 C 23.68,20.87 24.65,20.73 25.14,20.77 C 25.14,20.32 25.66,20.03 25.91,20 H 28.36 C 29.2,20 29.54,21.05 29.61,21.5 L 31,29 Z M 26.67,21.08 C 26.67,21.29 26.5,21.46 26.29,21.46 A 0.38,0.38 0 0,1 25.91,21.08 C 25.91,20.88 26.08,20.71 26.29,20.71 C 26.49,20.71 26.67,20.88 26.67,21.08 Z M 25,40.18 V 30 H 31 V 40.18 L 28.07,43 L 25,40.18 Z M 27.1,42.93 L 27.61,43.42 V 47 H 27.11 V 42.93 Z M 28.85,47 H 28.34 V 43.38 L 28.84,42.9 V 47 Z M 29.3,47 V 42.46 L 29.88,41.91 V 47 H 29.3 Z M 30.34,47 V 41.48 L 30.92,40.93 V 47 H 30.34 Z M 26.66,42.49 V 47 H 26.08 V 41.93 L 26.66,42.49 Z M 25.63,41.49 V 47 H 25.05 V 40.93 L 25.63,41.49 Z" fill="rgb(207, 16, 41)" fill-rule="evenodd"/>
</svg>
