<?xml version="1.0" encoding="UTF-8"?>
<!-- generated by Finnhub -->
<svg viewBox="0 0 55.5 55.5" xmlns="http://www.w3.org/2000/svg">
<path d="M 0,0 H 55.5 V 55.5 H 0 Z" fill="rgb(239, 242, 248)"/>
<path d="M 21.049999999999997,32.185 L 28.04,20.71 L 34.84,32.21 A 8,8 0 0,1 35.94,36.27 C 35.94,40.54 32.64,44 28.56,44 H 27.26 C 23.2,44 19.92,40.56 19.92,36.32 C 19.92,34.85 20.32,33.42 21.06,32.19 Z" fill="rgb(228, 190, 66)"/>
<path d="M 19.72,31.525 A 10.34,10.34 0 0,0 18.83,35.78 L 13.25,26.71 A 8.55,8.55 0 0,1 13.91,16.87 A 7.67,7.67 0 0,1 26.43,17.68 L 27.21,18.9 A 557.92,557.92 0 0,0 19.73,31.54 Z" fill="rgb(170, 193, 122)"/>
<path d="M 36.260000000000005,31.525 C 37.01,32.97 37.18,34.96 37.17,35.78 L 42.75,26.71 A 8.55,8.55 0 0,0 42.09,16.87 A 7.67,7.67 0 0,0 29.57,17.68 L 28.79,18.9 A 557.92,557.92 0 0,1 36.27,31.54 Z" fill="rgb(142, 169, 159)"/>
</svg>
