<?xml version="1.0" encoding="UTF-8"?>
<!-- generated by Finnhub -->
<svg viewBox="0 0 55.5 55.5" xmlns="http://www.w3.org/2000/svg">
<path d="M 0,0 H 55.5 V 55.5 H 0 Z" fill="rgb(239, 242, 248)"/>
<path d="M 6.65,30.985 L 4,25 H 5.6 L 7.19,28.5 L 8.75,25 H 10.35 L 7.68,31 H 6.66 Z"/>
<circle cx="16" cy="24" r="1" fill="rgb(60, 165, 214)"/>
<circle cx="12" cy="32" r="1" fill="rgb(60, 165, 214)"/>
<path d="M 13.99,30.985 A 3,3 0 1,0 14,25 A 3,3 0 0,0 14,31 Z M 14,29.4 A 1.4,1.4 0 1,0 14,26.6 A 1.4,1.4 0 0,0 14,29.4 Z" fill="rgb(239, 73, 34)" fill-rule="evenodd"/>
<circle cx="14" cy="28" r="1" fill="rgb(243, 172, 46)"/>
<path d="M 20.22,30.395 L 18,25 H 19.54 L 21.04,28.62 L 22.73,25 H 24.32 L 20.58,33 H 19 L 20.23,30.41 Z"/>
<path d="M 29.619999999999997,30.224999999999998 C 29.13,30.71 28.49,31 27.78,31 C 26.24,31 25,29.66 25,28 S 26.24,25 27.78,25 C 28.49,25 29.14,25.29 29.63,25.76 V 25 H 31 V 31 H 29.63 V 30.24 Z M 29.63,28 C 29.63,28.95 28.93,29.71 28.06,29.71 C 27.19,29.71 26.49,28.95 26.49,28.01 C 26.49,27.06 27.19,26.3 28.06,26.3 C 28.93,26.3 29.63,27.06 29.63,28 Z" fill-rule="evenodd"/>
<path d="M 37.54,24.985 H 39 V 30.37 C 39.01,31.23 38.46,32.97 36.15,33 C 33.85,33.03 33.15,31.83 33.1,31.22 H 34.7 C 34.8,31.38 35.25,31.7 36.15,31.7 C 37.26,31.7 37.55,30.8 37.55,30.18 V 30.12 C 37.07,30.56 36.45,30.82 35.75,30.82 A 2.84,2.84 0 0,1 33,27.91 C 33,26.31 34.23,25 35.76,25 C 36.44,25 37.06,25.26 37.56,25.7 V 25 Z M 37.55,27.52 A 1.58,1.58 0 0,0 36.04,26.26 C 35.17,26.26 34.48,27 34.48,27.91 C 34.48,28.83 35.18,29.57 36.04,29.57 C 36.77,29.57 37.39,29.03 37.55,28.3 V 27.52 Z M 44,31 A 3,3 0 0,0 46.48,29.68 L 45.36,29.16 A 1.78,1.78 0 0,1 42.26,28.45 H 46.97 L 47,28 A 3,3 0 1,0 44,31 Z M 45.64,27.28 H 42.36 A 1.79,1.79 0 0,1 45.64,27.28 Z M 50.42,25.44 C 50.72,25.13 51.3,24.79 52,25.17 L 51.58,26.43 C 51.28,26.24 50.66,26.17 50.42,27.3 V 31 H 49 V 25 H 50.42 V 25.44 Z"/>
</svg>
