<?xml version="1.0" encoding="UTF-8"?>
<!-- generated by Finnhub -->
<svg viewBox="0 0 55.5 55.5" xmlns="http://www.w3.org/2000/svg">
<path d="M 0,0 H 55.5 V 55.5 H 0 Z" fill="rgb(1, 0, 101)"/>
<path d="M 42.84,22.415 C 42.63,23.93 41.91,28.85 38.19,33.67 A 28.12,28.12 0 0,1 28,41.8 C 26.52,41.06 21.57,38.65 17.8,33.67 A 23.73,23.73 0 0,1 13.18,22.43 L 15.41,21.25 V 19.63 L 17.64,18.45 V 16.82 A 34.94,34.94 0 0,1 28,13.94 C 31.9,14.44 35.29,15.38 38.36,16.82 V 18.45 L 40.59,19.63 V 21.25 L 42.85,22.43 Z" fill="url(#a)"/>
<path d="M 42.59,20.085 V 18.47 L 40.37,17.29 V 15.59 L 39.24,15.07 A 37.87,37.87 0 0,0 28.27,12.03 L 28,12 L 27.73,12.03 A 36.9,36.9 0 0,0 16.78,15.09 L 15.65,15.62 V 17.32 L 13.42,18.47 V 20.1 L 11,21.36 L 11.19,22.69 C 11.83,27.2 13.53,31.29 16.22,34.83 A 29.77,29.77 0 0,0 27.12,43.55 L 28,44 L 28.89,43.55 A 29.77,29.77 0 0,0 39.79,34.83 A 25.87,25.87 0 0,0 44.81,22.69 L 45,21.36 L 42.6,20.1 Z M 42.85,22.43 C 42.63,23.93 41.91,28.85 38.19,33.67 A 28.12,28.12 0 0,1 28,41.8 C 26.52,41.06 21.57,38.65 17.8,33.67 A 23.73,23.73 0 0,1 13.18,22.43 L 15.41,21.25 V 19.63 L 17.64,18.45 V 16.82 A 34.94,34.94 0 0,1 28,13.94 C 31.9,14.44 35.29,15.38 38.36,16.82 V 18.45 L 40.59,19.63 V 21.25 L 42.85,22.43 Z" fill="rgb(254, 193, 2)"/>
<path d="M 24.99,17.855 V 31.16 A 40.67,40.67 0 0,1 22.14,18.79 C 21.44,19.1 20.68,19.47 19.9,19.94 A 39.15,39.15 0 0,0 22.19,30.82 L 21.46,31.21 C 19.56,28.61 18.32,25.47 17.48,21.72 C 16.89,22.25 16.33,22.82 15.73,23.45 C 16.83,27.93 18.61,31.35 21.17,34.09 L 23.13,32.94 C 24.1,34.91 25.49,36.84 27,38.39 V 17.48 C 26.25,17.56 25.75,17.68 25,17.87 Z M 37.39,24.71 C 38.19,23.85 38.36,23.21 38.36,22.46 C 38.36,21.38 37.44,20.41 36.1,19.57 A 14.8,14.8 0 0,0 29,17.5 V 38.44 C 33.52,36.19 38.9,29.98 38.92,26.81 C 38.97,25.84 38.46,25.21 37.39,24.71 Z M 31,20 C 32.1,20 35.99,21.1 35.99,22.52 C 35.99,23.02 35.53,23.75 34.11,24.48 L 31,25.95 V 20 Z M 34.08,31.61 C 33.43,32.32 32.13,33.42 31,34.26 V 28.26 S 35.37,26.03 35.5,25.93 C 36.72,26.24 36.66,27.11 36.66,27.18 C 36.66,28.28 35.5,29.98 34.08,31.61 Z" fill="rgb(254, 193, 2)"/>
<defs>
<linearGradient id="a" x1="13.18" x2="42.84" y1="27.9" y2="27.9" gradientUnits="userSpaceOnUse">
<stop stop-color="rgb(63, 70, 253)" offset="0"/>
<stop stop-color="rgb(3, 1, 106)" offset="1"/>
</linearGradient>
</defs>
</svg>
