<?xml version="1.0" encoding="UTF-8"?>
<!-- generated by Finnhub -->
<svg viewBox="0 0 55.5 55.5" xmlns="http://www.w3.org/2000/svg">
<path d="M 0,0 H 55.5 V 55.5 H 0 Z" fill="rgb(17, 59, 136)"/>
<path d="M 49.99,15.985 H 6 V 35.54 L 6.046,35.582 C 9.447,38.722 16.25,45.004 28,45 C 39.803,44.996 47.126,38.72 50,35.54 V 16 Z" fill="rgb(252, 237, 78)"/>
<path d="M 31.99,29.985 L 36.029,21 H 40 V 30 H 41 V 23.58 C 41.133,22.728 41.717,21.016 44.509,21 C 47.301,20.985 47.941,22.715 48,23.58 V 32.593 C 47.87,33.396 47.13,35.003 44.509,35.003 C 42.221,35.003 41.204,33.803 41,33 H 40 V 35.003 H 36 V 33 H 32 V 30 Z M 31,27 H 28 V 30 H 31 V 27 Z" fill="rgb(17, 59, 136)"/>
<path d="M 43.99,24.316 C 44,24.042 44.334,23.988 44.5,23.997 C 44.9,23.997 45,24.22 45,24.331 V 31.739 C 44.968,31.819 44.83,31.981 44.533,31.996 A 0.597,0.597 0 0,1 44,31.739 V 24.331 Z M 37,30 V 27 L 36,30 H 37 Z" fill="rgb(252, 237, 78)"/>
<path d="M 9.994,34.989 L 8,21.004 H 11 L 12,25 L 12.5,21.004 H 15.5 L 16,25 L 16.824,21.004 H 24.987 C 26.575,21.004 27,22.486 27,23.306 V 32.702 C 27,34.479 25.658,34.977 24.987,35.004 H 19 V 25.662 L 18,35.004 H 15 L 14,31 L 13,35.004 H 10.004 Z" fill="rgb(17, 59, 136)"/>
<path d="M 22.49,31.982 V 23.997 C 22.92,23.997 23.5,24.472 23.5,24.674 V 31.397 C 23.5,31.667 22.729,31.985 22.5,31.997 Z" fill="rgb(252, 237, 78)"/>
</svg>
