<?xml version="1.0" encoding="UTF-8"?>
<!-- generated by Finnhub -->
<svg viewBox="0 0 55.5 55.5" xmlns="http://www.w3.org/2000/svg">
<path d="M 0,0 H 55.5 V 55.5 H 0 Z" fill="rgb(239, 242, 248)"/>
<path d="M 32.010000000000005,13.985 H 14 A 8,8 0 0,0 22,22 H 32.34 C 35.05,22 37,24.16 37,26.87 V 29.13 C 37,31.83 35.05,34 32.34,34 H 22 A 8,8 0 0,0 14,42 H 32.02 C 39.2,42 45,36.19 45,29.02 V 26.98 C 45,19.8 39.19,14 32.02,14 Z" fill="rgb(73, 52, 146)"/>
<circle cx="19" cy="28" r="4" fill="rgb(48, 68, 154)"/>
<path d="M 40.89,17.495 L 35.34,23.09 A 4.94,4.94 0 0,1 37,26.87 V 29.13 C 37,31.83 35.05,34 32.34,34 H 24.48 L 16.52,42 H 31.92 L 45,29.1 V 26.98 C 45,23.24 43.42,19.88 40.9,17.51 Z" fill="rgb(0, 122, 194)"/>
<path d="M 44.99,29.005 L 31.86,42 H 32.02 C 39.2,42 45,36.19 45,29.02 Z" fill="rgb(1, 168, 232)"/>
<path d="M 28.669999999999998,13.985 H 32.02 C 35.47,14 38.61,15.35 40.93,17.54 L 35.37,23.11 A 4.54,4.54 0 0,0 32.34,22 H 22 C 21.64,22 21.28,21.98 20.93,21.93 L 28.68,14 Z M 24.5,34 L 16.52,42 H 14 A 8,8 0 0,1 22,34 H 24.5 Z" fill="rgb(48, 68, 154)"/>
</svg>
