<?xml version="1.0" encoding="UTF-8"?>
<!-- generated by Finnhub -->
<svg viewBox="0 0 55.5 55.5" xmlns="http://www.w3.org/2000/svg">
<path d="M 0,0 H 55.5 V 55.5 H 0 Z" fill="rgb(239, 242, 248)"/>
<path d="M 37.47,29.384999999999998 L 37.5,23.76 C 37.5,23.2 37.18,22.78 36.84,22.75 L 36.36,22.71 C 36.06,22.7 36.02,22.7 36.02,22.35 C 36.02,22.05 36.07,22 36.36,22 H 39.33 C 39.53,22 39.63,22 39.69,22.05 C 39.76,22.14 40.1,22.66 40.81,23.58 L 46.63,31.06 C 46.59,27.86 46.57,25.73 46.53,24.66 C 46.47,23.45 46.36,22.82 45.68,22.75 L 45.24,22.71 C 44.95,22.68 44.92,22.7 44.92,22.35 C 44.92,22.05 44.97,22 45.26,22 H 48.66 C 48.95,22 49,22.05 49,22.35 C 49,22.71 48.96,22.66 48.68,22.71 L 48.34,22.77 C 47.91,22.84 47.7,23.15 47.61,23.74 C 47.57,24.04 47.47,25.9 47.47,29.28 C 47.47,31.91 47.56,33.32 47.56,33.56 C 47.56,33.9 47.48,34 47.29,34 H 45.79 C 45.33,34 45.11,33.29 43.97,31.79 L 38.35,24.46 C 38.41,27.75 38.43,30.05 38.48,31.34 C 38.53,32.55 38.64,33.18 39.32,33.25 L 39.74,33.29 C 40.03,33.32 40.07,33.3 40.07,33.65 C 40.07,33.95 40.03,34 39.74,34 H 36.32 C 36.04,34 36,33.95 36,33.65 C 36,33.29 36.02,33.34 36.3,33.29 L 36.66,33.23 C 37.52,33.09 37.46,31.94 37.48,29.4 Z M 25.5,31.87 V 24.15 C 25.5,23.23 25.5,22.83 24.85,22.78 L 24.35,22.75 C 24.04,22.73 24,22.73 24,22.38 C 24,22.08 24.06,22.03 24.35,22.03 C 27.5,22.03 30.46,22 33.65,22 C 33.93,22 34,22.1 34,22.35 V 24.55 C 34,24.71 33.89,24.79 33.67,24.79 H 33.12 C 32.66,24.79 32.72,24.67 32.6,24.17 C 32.29,23.02 31.96,23 30.46,23 H 28 V 27.18 C 28.26,27.2 28.48,27.2 28.68,27.2 C 29.64,27.2 30.21,27.03 30.43,26.4 C 30.63,25.8 30.37,25.47 30.91,25.47 H 31.37 C 31.57,25.47 31.68,25.5 31.68,25.62 V 29.44 C 31.68,29.56 31.57,29.6 31.37,29.6 H 30.91 C 30.37,29.6 30.63,29.27 30.43,28.66 C 30.21,28.03 29.63,27.86 28.68,27.86 C 28.48,27.86 28.26,27.86 28,27.88 V 32.92 C 28.24,32.97 28.5,33 28.74,33 H 30.37 C 32.07,33 32.27,32.89 32.57,31.55 C 32.73,30.83 32.62,30.6 33.07,30.6 H 33.71 C 33.93,30.6 34,30.74 34,31 V 33.5 C 34,33.86 33.98,34 33.67,34 H 24.35 C 24.05,34 24,33.95 24,33.65 C 24,33.31 24.04,33.32 24.35,33.29 L 24.85,33.25 C 25.47,33.2 25.49,32.82 25.49,32.01 V 31.87 Z M 7.9,25.6 C 7.43,23.82 7.17,22.84 6.54,22.74 L 6.31,22.7 C 6.03,22.65 6,22.72 6,22.34 C 6,22.05 6.03,22 6.31,22 H 10.92 C 11.2,22 11.24,22.05 11.24,22.34 C 11.24,22.7 11.2,22.67 10.92,22.7 L 10.64,22.74 C 10.18,22.79 9.94,23.04 9.94,23.48 C 9.94,23.62 9.99,24.01 10.13,24.58 L 11.8,31.11 L 14.02,23.05 C 14.23,22.28 14.15,22 14.48,22 H 15.92 C 16.3,22 16.18,22.33 16.52,23.51 L 18.76,31.21 L 20.29,24.68 C 20.39,24.25 20.46,23.89 20.46,23.6 C 20.46,23.05 20.22,22.77 19.71,22.72 L 19.43,22.7 C 19.17,22.67 19.16,22.67 19.16,22.34 C 19.16,22.04 19.19,22 19.5,22 H 22.65 C 22.97,22 23,22.03 23,22.34 C 23,22.69 22.98,22.67 22.72,22.7 L 22.58,22.72 C 21.9,22.81 21.66,23.67 21.23,25.22 L 19.31,32.14 C 18.93,33.5 18.98,34 18.63,34 H 17.2 C 16.78,34 16.92,33.42 16.3,31.23 L 14.43,24.77 L 12.36,32.25 C 12.02,33.52 12.08,34 11.7,34 H 10.3 C 10.14,34 10.07,33.97 10.04,33.85 L 7.9,25.59 Z" fill="rgb(5, 52, 103)"/>
</svg>
