<?xml version="1.0" encoding="UTF-8"?>
<!-- generated by Finnhub -->
<svg viewBox="0 0 55.5 55.5" xmlns="http://www.w3.org/2000/svg">
<path d="M 0,0 H 55.5 V 55.5 H 0 Z" fill="rgb(45, 128, 178)"/>
<path d="M 17.189999999999998,26.094 C 17.399,25.859 17.46,25.56 17.506,25.252 C 17.599,24.562 17.422,23.939 17.153,23.332 C 17.015,23.032 16.861,22.742 16.677,22.467 C 16.654,22.434 16.63,22.384 16.592,22.367 C 16.584,22.375 16.577,22.384 16.577,22.392 C 16.446,22.799 16.247,23.165 16.062,23.54 C 15.877,23.914 15.716,24.288 15.67,24.712 C 15.616,25.227 15.67,25.718 15.916,26.175 C 15.923,26.184 15.923,26.2 15.939,26.225 A 1.384,1.384 0 0,1 15.524,26.034 C 14.871,25.568 14.617,24.904 14.724,24.08 C 14.794,23.523 15.009,23.024 15.262,22.542 C 15.485,22.109 15.724,21.685 15.908,21.228 C 16.108,20.721 16.285,20.213 16.346,19.665 C 16.346,19.49 16.361,19.332 16.354,19.174 C 16.384,19.166 16.384,19.191 16.392,19.207 C 16.769,19.989 17.153,20.77 17.492,21.577 C 17.76,22.209 18.006,22.849 18.144,23.531 C 18.306,24.338 18.144,25.07 17.684,25.718 A 1.062,1.062 0 0,1 17.199,26.108 Z M 14.171,24.447 C 14.041,24.156 13.918,23.865 13.787,23.574 C 13.257,22.368 12.719,21.17 12.181,19.964 C 12.173,19.94 12.158,19.914 12.151,19.89 C 12.043,19.582 11.812,19.466 11.521,19.433 C 11.39,19.416 11.351,19.349 11.359,19.208 C 11.367,19.083 11.413,19.034 11.536,19.042 C 12.289,19.083 13.042,19.083 13.803,19.042 C 13.879,19.033 13.91,19.067 13.926,19.133 C 13.941,19.192 13.949,19.241 13.941,19.3 C 13.933,19.366 13.902,19.408 13.833,19.416 C 13.749,19.424 13.672,19.449 13.588,19.474 C 13.472,19.507 13.449,19.557 13.495,19.682 C 13.641,20.098 13.818,20.505 13.979,20.904 L 14.671,22.576 C 14.694,22.626 14.694,22.667 14.663,22.726 C 14.417,23.199 14.241,23.69 14.195,24.23 C 14.187,24.297 14.187,24.372 14.179,24.438 C 14.187,24.447 14.179,24.447 14.171,24.447 Z M 18.706,24.189 A 4.178,4.178 0 0,0 18.591,23.432 C 18.568,23.341 18.552,23.249 18.514,23.166 C 18.468,23.074 18.476,22.991 18.514,22.9 C 18.852,22.01 19.19,21.12 19.505,20.214 C 19.567,20.039 19.605,19.864 19.659,19.69 C 19.682,19.607 19.659,19.549 19.575,19.524 C 19.505,19.507 19.444,19.474 19.375,19.466 C 19.29,19.449 19.252,19.391 19.236,19.308 A 0.41,0.41 0 0,1 19.259,19.092 C 19.282,19.025 19.329,19 19.398,19 C 19.989,19.042 20.573,19.05 21.165,19 C 21.211,19 21.25,19.008 21.281,19.05 C 21.342,19.133 21.342,19.324 21.288,19.407 C 21.273,19.432 21.25,19.441 21.219,19.449 C 21.096,19.482 20.981,19.507 20.865,19.54 A 0.524,0.524 0 0,0 20.543,19.807 C 20.328,20.206 20.166,20.638 19.997,21.054 C 19.613,22.002 19.221,22.941 18.837,23.881 A 3.405,3.405 0 0,0 18.707,24.189 Z M 23.76,24.016 C 23.783,24.016 23.606,24.006 23.23,24 H 21.536 C 21.272,24.007 21.154,24.006 21.182,24.006 C 21.132,24.006 21.107,24.026 21.107,24.064 C 21.107,24.396 21.217,24.631 21.435,24.884 C 21.615,25.093 21.857,25.197 22.16,25.197 C 22.525,25.197 22.904,25.011 23.297,24.64 C 23.342,24.588 23.376,24.588 23.398,24.64 C 23.465,24.797 23.592,25.011 23.778,25.285 C 23.817,25.343 23.817,25.392 23.778,25.431 A 2.16,2.16 0 0,1 23.103,25.909 A 2.44,2.44 0 0,1 22.067,26.144 C 21.46,26.144 20.972,25.922 20.601,25.48 C 20.236,25.037 20.054,24.435 20.054,23.674 C 20.054,22.867 20.306,22.213 20.812,21.712 C 21.149,21.38 21.57,21.214 22.076,21.214 C 22.648,21.214 23.1,21.454 23.432,21.937 C 23.769,22.411 23.937,23.101 23.937,23.889 C 23.937,23.973 23.878,24.016 23.76,24.016 Z M 22.766,23.156 C 22.806,23.156 22.826,23.137 22.826,23.098 C 22.826,22.942 22.775,22.76 22.674,22.551 C 22.516,22.239 22.289,22.083 21.991,22.083 C 21.694,22.083 21.461,22.236 21.292,22.542 C 21.174,22.756 21.115,22.942 21.115,23.098 C 21.115,23.138 21.132,23.157 21.165,23.157 H 21.444 A 15.272,15.272 0 0,0 22.489,23.157 H 22.766 Z M 26.62,23.323 C 27.012,23.505 27.285,23.716 27.436,23.957 C 27.56,24.152 27.622,24.377 27.622,24.631 C 27.622,25.112 27.453,25.493 27.116,25.773 C 26.813,26.02 26.446,26.143 26.013,26.143 C 25.383,26.143 24.864,26.017 24.454,25.763 C 24.443,25.756 24.443,25.737 24.454,25.704 A 7.15,7.15 0 0,0 24.766,24.787 C 24.772,24.774 24.788,24.777 24.816,24.797 C 25.198,25.063 25.614,25.197 26.063,25.197 C 26.209,25.197 26.333,25.154 26.433,25.07 A 0.413,0.413 0 0,0 26.593,24.728 A 0.453,0.453 0 0,0 26.409,24.358 C 26.341,24.305 26.173,24.218 25.903,24.094 L 25.549,23.928 C 25.252,23.791 25.033,23.648 24.892,23.498 C 24.662,23.258 24.547,22.948 24.547,22.571 C 24.547,22.193 24.67,21.881 24.917,21.634 C 25.204,21.347 25.614,21.204 26.147,21.204 C 26.659,21.204 27.077,21.312 27.403,21.526 C 27.42,21.54 27.423,21.562 27.411,21.595 C 27.327,21.823 27.226,22.115 27.108,22.473 C 27.097,22.499 27.077,22.503 27.048,22.483 C 26.689,22.243 26.336,22.122 25.988,22.122 C 25.684,22.122 25.532,22.242 25.532,22.483 C 25.532,22.704 25.74,22.913 26.156,23.108 L 26.619,23.323 Z M 29.648,24.328 C 29.648,24.595 29.673,24.777 29.724,24.875 C 29.791,24.998 29.914,25.06 30.094,25.06 C 30.195,25.06 30.33,25.037 30.499,24.992 C 30.532,24.985 30.549,25.005 30.549,25.05 C 30.566,25.259 30.614,25.555 30.692,25.939 C 30.698,25.978 30.672,26.007 30.617,26.026 A 2.251,2.251 0 0,1 29.926,26.153 C 29.505,26.153 29.182,26.023 28.957,25.763 C 28.733,25.503 28.614,25.086 28.603,24.513 C 28.598,24.39 28.6,24.155 28.612,23.811 C 28.617,23.355 28.62,22.873 28.62,22.366 C 28.62,22.326 28.603,22.307 28.57,22.307 L 27.997,22.337 C 27.969,22.337 27.955,22.32 27.955,22.287 L 27.963,22.093 A 7.26,7.26 0 0,0 27.971,21.81 C 27.971,21.751 27.969,21.67 27.963,21.566 L 27.955,21.39 C 27.955,21.364 27.972,21.35 28.005,21.35 L 28.57,21.37 C 28.603,21.37 28.62,21.35 28.62,21.312 V 21.214 C 28.62,21.071 28.612,20.817 28.595,20.453 L 28.578,19.926 C 28.578,19.9 28.598,19.88 28.637,19.867 A 28.1,28.1 0 0,0 29.134,19.769 C 29.521,19.685 29.698,19.643 29.664,19.643 C 29.693,19.643 29.707,19.665 29.707,19.711 A 40.472,40.472 0 0,0 29.665,21.205 V 21.302 C 29.665,21.348 29.685,21.37 29.724,21.37 L 30.574,21.35 C 30.614,21.35 30.634,21.367 30.634,21.4 L 30.625,21.566 C 30.619,21.676 30.617,21.764 30.617,21.829 S 30.619,21.989 30.625,22.112 L 30.634,22.298 C 30.634,22.33 30.619,22.346 30.591,22.346 L 29.707,22.317 C 29.673,22.317 29.657,22.333 29.657,22.366 C 29.657,22.717 29.654,23.371 29.647,24.328 Z M 34.866,24.02 C 34.889,24.02 34.712,24.007 34.336,24 H 32.642 L 32.289,24.01 C 32.238,24.01 32.213,24.03 32.213,24.068 C 32.213,24.4 32.323,24.631 32.541,24.884 C 32.721,25.093 32.963,25.197 33.266,25.197 C 33.631,25.197 34.01,25.011 34.403,24.64 C 34.448,24.588 34.482,24.588 34.504,24.64 C 34.572,24.797 34.698,25.011 34.884,25.285 C 34.922,25.343 34.922,25.392 34.884,25.431 A 2.159,2.159 0 0,1 34.209,25.909 A 2.44,2.44 0 0,1 33.173,26.144 C 32.567,26.144 32.078,25.922 31.707,25.48 C 31.342,25.037 31.16,24.435 31.16,23.674 C 31.16,22.867 31.413,22.213 31.918,21.712 C 32.255,21.38 32.676,21.214 33.182,21.214 C 33.754,21.214 34.206,21.454 34.538,21.937 C 34.875,22.411 35.043,23.105 35.043,23.893 C 35.043,23.977 34.984,24.02 34.866,24.02 Z M 33.872,23.157 C 33.912,23.157 33.932,23.137 33.932,23.098 C 33.932,22.942 33.881,22.76 33.78,22.551 C 33.622,22.239 33.395,22.083 33.097,22.083 C 32.8,22.083 32.567,22.236 32.398,22.542 C 32.28,22.756 32.221,22.942 32.221,23.098 C 32.221,23.138 32.238,23.157 32.271,23.157 H 32.55 A 15.262,15.262 0 0,0 33.595,23.157 H 33.872 Z M 38.576,21.448 C 38.542,21.533 38.444,21.848 38.281,22.395 C 38.27,22.441 38.241,22.451 38.197,22.425 A 0.68,0.68 0 0,0 37.852,22.327 C 37.482,22.327 37.026,22.892 37.026,23.225 C 37.026,23.225 36.996,24.795 37.018,25.509 C 37.028,25.893 37.035,26.046 37.035,25.968 C 37.035,25.994 37.02,26.007 36.992,26.007 C 36.964,26.007 36.882,26.004 36.748,25.997 A 7.222,7.222 0 0,0 36.487,25.987 A 7.04,7.04 0 0,0 36.217,25.997 C 36.083,26.004 35.998,26.007 35.965,26.007 C 35.942,26.007 35.931,25.994 35.931,25.967 C 35.931,26.046 35.937,25.906 35.948,25.548 C 35.959,25.184 36,24.777 36,24.328 V 22.96 C 36,22.59 35.945,22.225 35.906,21.867 C 35.866,21.509 35.846,21.357 35.846,21.408 C 35.846,21.376 35.866,21.359 35.906,21.359 C 36.383,21.34 36.695,21.321 36.841,21.301 C 36.874,21.301 36.894,21.331 36.9,21.389 C 36.939,21.584 36.967,21.782 36.984,21.984 C 36.984,22.017 36.992,22.034 37.009,22.034 C 37.032,22.034 37.051,22.017 37.069,21.984 C 37.225,21.717 37.366,21.532 37.489,21.428 A 0.83,0.83 0 0,1 38.054,21.213 C 38.211,21.213 38.377,21.262 38.551,21.359 C 38.584,21.379 38.593,21.409 38.576,21.447 Z M 40.065,21.858 C 40.435,21.428 40.856,21.214 41.328,21.214 C 41.648,21.214 41.921,21.322 42.145,21.536 C 42.432,21.803 42.575,22.19 42.575,22.698 V 23.8 C 42.575,24.262 42.578,24.678 42.583,25.05 A 96.405,96.405 0 0,0 42.609,25.957 C 42.609,25.99 42.595,26.006 42.567,26.006 C 42.538,26.006 42.457,26.003 42.322,25.996 A 7.225,7.225 0 0,0 42.062,25.986 C 42.022,25.986 41.932,25.99 41.792,25.996 A 8.27,8.27 0 0,1 41.53,26.006 C 41.508,26.006 41.497,25.99 41.497,25.957 L 41.505,25.723 C 41.511,25.547 41.516,25.333 41.522,25.079 C 41.528,24.714 41.53,24.298 41.53,23.829 V 23.087 C 41.53,22.489 41.373,22.189 41.059,22.189 C 40.755,22.189 40.435,22.404 40.099,22.833 C 40.065,22.879 40.007,22.941 40.007,23.019 V 23.888 C 40.007,24.382 40.012,24.874 40.023,25.362 C 40.035,25.85 40.081,26.052 40.081,25.967 C 40.081,25.993 40.071,26.006 40.048,26.006 C 40.02,26.006 39.935,26.003 39.795,25.996 A 7.214,7.214 0 0,0 39.534,25.986 A 7.69,7.69 0 0,0 39.256,25.996 C 39.121,26.003 39.036,26.006 39.003,26.006 C 38.981,26.006 38.969,25.993 38.969,25.966 A 55.117,55.117 0 0,0 39.003,24.043 V 23.04 C 39.003,22.637 38.981,22.25 38.936,21.879 C 38.891,21.508 38.868,21.349 38.868,21.401 C 38.868,21.375 38.888,21.361 38.928,21.361 C 39.186,21.349 39.492,21.319 39.846,21.274 C 39.874,21.274 39.893,21.303 39.905,21.361 C 39.944,21.563 39.969,21.729 39.98,21.859 C 39.98,21.892 39.989,21.909 40.006,21.909 C 40.016,21.909 40.036,21.892 40.065,21.859 Z M 15.627,30.562 C 15.627,30.512 15.621,30.712 15.61,31.162 C 15.599,31.611 15.593,32.029 15.593,32.416 V 33.118 C 15.593,33.474 15.599,33.882 15.61,34.344 C 15.621,34.8 15.627,35.006 15.627,34.944 C 15.627,34.974 15.613,34.99 15.585,34.99 A 8.29,8.29 0 0,1 15.356,34.98 A 6.13,6.13 0 0,0 15.061,34.972 C 14.993,34.972 14.897,34.975 14.773,34.981 A 6.12,6.12 0 0,1 14.553,34.991 C 14.525,34.991 14.511,34.971 14.511,34.934 C 14.511,34.997 14.517,34.794 14.528,34.344 C 14.539,33.889 14.545,33.474 14.545,33.099 V 32.425 A 50.357,50.357 0 0,0 14.511,30.572 C 14.511,30.534 14.528,30.515 14.561,30.515 L 14.748,30.525 C 14.872,30.531 14.968,30.535 15.035,30.535 C 15.108,30.535 15.215,30.531 15.356,30.525 L 15.576,30.515 C 15.61,30.515 15.626,30.531 15.626,30.562 Z M 15.61,28.606 L 15.602,28.849 C 15.596,28.999 15.593,29.105 15.593,29.167 C 15.593,29.23 15.596,29.333 15.601,29.477 L 15.61,29.71 C 15.61,29.748 15.593,29.766 15.56,29.766 L 15.331,29.757 C 15.201,29.751 15.111,29.747 15.061,29.747 C 15.01,29.747 14.922,29.751 14.799,29.757 L 14.587,29.767 C 14.547,29.767 14.528,29.745 14.528,29.701 L 14.537,29.457 C 14.542,29.314 14.545,29.214 14.545,29.157 C 14.545,29.089 14.542,28.983 14.537,28.84 A 33.096,33.096 0 0,1 14.528,28.615 C 14.528,28.578 14.545,28.559 14.578,28.559 C 14.596,28.559 14.666,28.562 14.79,28.569 C 14.92,28.574 15.01,28.578 15.06,28.578 C 15.111,28.578 15.201,28.574 15.331,28.568 L 15.551,28.558 C 15.591,28.558 15.61,28.574 15.61,28.606 Z M 18.032,31.014 C 18.404,30.602 18.827,30.396 19.3,30.396 C 19.621,30.396 19.894,30.499 20.12,30.705 C 20.407,30.961 20.55,31.332 20.55,31.819 V 32.877 C 20.55,33.32 20.553,33.719 20.56,34.075 C 20.565,34.344 20.575,34.612 20.576,34.881 C 20.576,34.941 20.525,34.987 20.466,34.982 A 6.578,6.578 0 0,0 19.586,34.985 A 0.101,0.101 0 0,1 19.478,34.884 C 19.478,34.624 19.488,34.364 19.494,34.104 C 19.5,33.754 19.503,33.354 19.503,32.905 V 32.193 C 19.503,31.619 19.345,31.333 19.029,31.333 C 18.725,31.333 18.404,31.538 18.066,31.95 A 0.289,0.289 0 0,0 18,32.128 C 18,33.048 18.001,33.966 18,34.885 C 18,34.945 17.946,34.993 17.886,34.987 A 4.265,4.265 0 0,0 17.109,34.979 A 0.104,0.104 0 0,1 16.995,34.877 C 16.995,33.967 17,33.057 17,32.147 C 17,31.76 16.99,31.388 16.944,31.033 C 16.899,30.677 16.877,30.524 16.877,30.573 C 16.877,30.549 16.897,30.536 16.936,30.536 C 17.195,30.524 17.457,30.496 17.813,30.452 C 17.841,30.452 17.86,30.48 17.872,30.536 C 17.912,30.73 17.936,30.889 17.948,31.014 C 17.948,31.045 17.956,31.061 17.973,31.061 C 17.984,31.061 18.004,31.045 18.033,31.014 Z M 24,30.44 V 28.115 C 24,28.055 24.052,28.009 24.111,28.015 C 24.367,28.04 24.524,28.039 24.891,28.009 A 0.1,0.1 0 0,1 25.001,28.109 L 25.004,29.672 C 24.998,30.24 25,30.82 25,31.413 V 33.445 C 25,33.863 25.055,34.35 25.15,34.905 C 25.157,34.955 25.137,34.98 25.092,34.98 C 24.844,34.993 24.566,34.99 24.222,35.009 C 24.166,35.009 24.132,34.984 24.121,34.934 L 24.053,34.625 C 24.047,34.588 24.036,34.569 24.019,34.569 C 24.008,34.569 23.989,34.585 23.96,34.616 C 23.65,34.946 23.278,35.112 22.844,35.112 C 22.344,35.112 21.929,34.906 21.602,34.494 C 21.252,34.051 21.078,33.458 21.078,32.715 C 21.078,32.016 21.298,31.435 21.738,30.975 A 1.83,1.83 0 0,1 23.123,30.385 C 23.45,30.385 23.73,30.437 23.916,30.544 C 23.972,30.574 24,30.54 24,30.44 Z M 24,31.817 A 0.275,0.275 0 0,0 23.936,31.648 C 23.756,31.411 23.47,31.292 23.115,31.292 C 22.811,31.292 22.575,31.427 22.405,31.695 C 22.236,31.957 22.151,32.275 22.151,32.65 C 22.151,33.112 22.236,33.48 22.405,33.755 C 22.575,34.023 22.791,34.157 23.055,34.157 C 23.379,34.157 23.962,33.85 23.995,33.474 L 24,31.817 Z M 28.396,32.406 C 28.79,32.581 29.063,32.784 29.216,33.015 C 29.339,33.202 29.401,33.417 29.401,33.661 C 29.401,34.123 29.232,34.488 28.894,34.756 C 28.59,34.993 28.221,35.112 27.787,35.112 C 27.157,35.112 26.635,34.99 26.224,34.747 C 26.212,34.741 26.212,34.722 26.224,34.691 C 26.308,34.516 26.412,34.223 26.536,33.811 C 26.542,33.798 26.559,33.801 26.587,33.82 C 26.97,34.076 27.387,34.204 27.837,34.204 C 27.984,34.204 28.108,34.164 28.21,34.082 A 0.39,0.39 0 0,0 28.37,33.754 A 0.428,0.428 0 0,0 28.184,33.399 C 28.117,33.349 27.948,33.265 27.677,33.146 L 27.322,32.986 C 27.024,32.856 26.804,32.719 26.663,32.575 C 26.432,32.344 26.317,32.048 26.317,31.685 C 26.317,31.324 26.44,31.024 26.688,30.787 C 26.976,30.512 27.388,30.375 27.922,30.375 C 28.435,30.375 28.855,30.478 29.182,30.684 C 29.199,30.696 29.202,30.718 29.19,30.749 C 29.105,30.968 29.004,31.249 28.886,31.592 C 28.875,31.617 28.855,31.62 28.826,31.602 C 28.466,31.37 28.111,31.255 27.762,31.255 C 27.457,31.255 27.305,31.37 27.305,31.601 C 27.305,31.814 27.514,32.013 27.931,32.201 L 28.396,32.406 Z M 31.434,33.37 C 31.434,33.627 31.459,33.801 31.51,33.895 C 31.578,34.013 31.702,34.073 31.882,34.073 C 31.983,34.073 32.119,34.051 32.288,34.007 C 32.321,34.001 32.338,34.02 32.338,34.063 C 32.355,34.263 32.403,34.547 32.482,34.915 C 32.488,34.953 32.462,34.981 32.406,35 C 32.146,35.08 31.916,35.121 31.713,35.121 C 31.29,35.121 30.966,34.996 30.741,34.747 C 30.516,34.497 30.397,34.097 30.386,33.549 C 30.381,33.43 30.383,33.205 30.395,32.874 C 30.4,32.438 30.403,31.976 30.403,31.489 C 30.403,31.452 30.386,31.433 30.353,31.433 L 29.778,31.461 C 29.749,31.461 29.735,31.445 29.735,31.414 L 29.744,31.227 C 29.749,31.102 29.752,31.012 29.752,30.955 A 4.45,4.45 0 0,0 29.744,30.721 A 11.455,11.455 0 0,1 29.735,30.553 C 29.735,30.528 29.752,30.515 29.786,30.515 L 30.352,30.535 C 30.386,30.535 30.403,30.515 30.403,30.478 V 30.384 C 30.403,30.247 30.395,30.004 30.378,29.654 L 30.361,29.149 C 30.361,29.124 30.381,29.105 30.42,29.092 C 30.56,29.068 30.727,29.036 30.918,28.999 C 31.308,28.918 31.485,28.877 31.451,28.877 C 31.479,28.877 31.493,28.899 31.493,28.943 L 31.468,29.542 C 31.457,29.954 31.451,30.232 31.451,30.375 V 30.469 C 31.451,30.512 31.471,30.534 31.511,30.534 L 32.364,30.515 C 32.404,30.515 32.423,30.531 32.423,30.562 L 32.414,30.722 C 32.409,30.827 32.406,30.912 32.406,30.974 C 32.406,31.037 32.409,31.127 32.414,31.246 L 32.423,31.424 C 32.423,31.454 32.409,31.47 32.381,31.47 L 31.493,31.442 C 31.459,31.442 31.443,31.458 31.443,31.489 C 31.443,31.826 31.44,32.453 31.434,33.371 Z M 35.943,30.609 C 35.909,30.69 35.81,30.993 35.647,31.517 C 35.636,31.561 35.607,31.57 35.562,31.545 A 0.707,0.707 0 0,0 35.216,31.452 C 35.019,31.452 34.796,31.636 34.548,32.004 A 1.145,1.145 0 0,0 34.388,32.313 A 2.53,2.53 0 0,0 34.362,32.753 V 33.268 A 40.987,40.987 0 0,0 34.392,34.878 A 0.101,0.101 0 0,1 34.275,34.981 C 33.985,34.938 33.841,34.926 33.41,34.983 A 0.102,0.102 0 0,1 33.294,34.879 L 33.306,34.546 C 33.317,34.196 33.323,33.801 33.323,33.371 V 32.061 C 33.323,31.704 33.303,31.355 33.263,31.011 C 33.224,30.668 33.204,30.521 33.204,30.571 C 33.204,30.541 33.224,30.525 33.264,30.525 A 13.8,13.8 0 0,0 34.202,30.469 C 34.235,30.469 34.255,30.497 34.261,30.553 A 4.8,4.8 0 0,1 34.345,31.123 C 34.345,31.155 34.354,31.171 34.371,31.171 C 34.393,31.171 34.413,31.155 34.43,31.124 C 34.588,30.868 34.728,30.69 34.852,30.59 A 0.854,0.854 0 0,1 35.419,30.384 C 35.576,30.384 35.743,30.431 35.917,30.524 C 35.951,30.544 35.959,30.572 35.943,30.609 Z M 39.839,33.015 A 82.134,82.134 0 0,0 38.343,32.996 H 37.607 C 37.343,33.002 37.224,33.006 37.253,33.006 C 37.202,33.006 37.176,33.024 37.176,33.062 C 37.176,33.38 37.286,33.661 37.506,33.904 C 37.686,34.104 37.929,34.204 38.233,34.204 C 38.599,34.204 38.98,34.026 39.373,33.67 C 39.419,33.62 39.453,33.62 39.475,33.67 C 39.543,33.82 39.67,34.026 39.855,34.288 C 39.895,34.344 39.895,34.391 39.855,34.428 C 39.681,34.609 39.455,34.763 39.18,34.888 C 38.841,35.038 38.495,35.112 38.14,35.112 C 37.532,35.112 37.041,34.9 36.67,34.475 C 36.303,34.051 36.12,33.474 36.12,32.743 C 36.12,31.97 36.374,31.343 36.88,30.862 C 37.219,30.544 37.641,30.384 38.148,30.384 C 38.723,30.384 39.177,30.615 39.509,31.077 C 39.847,31.533 40.016,32.138 40.016,32.893 C 40.016,32.974 39.957,33.015 39.839,33.015 Z M 38.841,32.247 C 38.881,32.247 38.901,32.229 38.901,32.191 C 38.901,32.041 38.85,31.867 38.748,31.667 C 38.591,31.367 38.362,31.217 38.064,31.217 C 37.765,31.217 37.532,31.364 37.362,31.657 C 37.244,31.863 37.185,32.041 37.185,32.191 C 37.185,32.229 37.202,32.247 37.235,32.247 H 37.515 A 16.115,16.115 0 0,0 38.563,32.247 H 38.841 Z M 43.003,32.865 C 43.003,32.803 42.991,32.778 42.969,32.79 L 42.081,33.024 C 41.755,33.118 41.591,33.318 41.591,33.624 C 41.591,34.004 41.786,34.194 42.174,34.194 C 42.405,34.194 42.628,34.079 42.842,33.848 C 42.949,33.736 43.002,33.642 43.002,33.568 V 32.865 Z M 44,32.023 V 32.865 C 43.994,33.308 43.991,33.617 43.991,33.792 C 43.991,33.992 44.042,34.092 44.144,34.092 C 44.166,34.092 44.203,34.085 44.254,34.072 C 44.293,34.067 44.315,34.098 44.321,34.166 C 44.355,34.472 44.394,34.716 44.439,34.896 C 44.451,34.953 44.442,34.99 44.414,35.009 C 44.313,35.065 44.169,35.093 43.983,35.093 A 0.825,0.825 0 0,1 43.594,34.99 A 0.773,0.773 0 0,1 43.231,34.616 A 0.516,0.516 0 0,0 43.163,34.494 L 43.02,34.654 C 42.738,34.959 42.36,35.112 41.887,35.112 C 41.47,35.112 41.141,34.975 40.898,34.7 C 40.662,34.425 40.543,34.085 40.543,33.68 C 40.543,33.343 40.636,33.059 40.823,32.828 C 41.013,32.591 41.321,32.418 41.743,32.313 C 41.98,32.257 42.301,32.175 42.707,32.069 C 42.898,32.013 42.994,31.951 42.994,31.882 C 42.994,31.682 42.915,31.523 42.758,31.405 A 0.869,0.869 0 0,0 42.242,31.255 C 41.938,31.255 41.611,31.411 41.262,31.723 C 41.228,31.767 41.197,31.773 41.169,31.742 A 29.953,29.953 0 0,0 40.746,31.152 C 40.723,31.121 40.726,31.09 40.754,31.058 C 41.172,30.609 41.701,30.384 42.344,30.384 C 42.8,30.384 43.172,30.497 43.459,30.721 C 43.819,31.002 43.999,31.436 43.999,32.023 Z M 47.622,30.394 C 48.129,30.394 48.472,30.624 48.653,31.086 C 48.67,31.13 48.684,31.152 48.695,31.152 L 48.755,31.086 C 49.155,30.618 49.602,30.384 50.098,30.384 C 50.408,30.384 50.668,30.484 50.876,30.684 C 51.141,30.934 51.273,31.308 51.273,31.807 V 32.865 C 51.273,33.308 51.276,33.708 51.281,34.063 A 88.623,88.623 0 0,0 51.307,34.934 C 51.307,34.965 51.293,34.981 51.264,34.981 C 51.236,34.981 51.157,34.978 51.028,34.971 A 6.888,6.888 0 0,0 50.774,34.962 C 50.734,34.962 50.644,34.965 50.504,34.972 C 50.363,34.978 50.276,34.981 50.242,34.981 C 50.214,34.981 50.2,34.965 50.2,34.934 L 50.208,34.709 C 50.214,34.541 50.219,34.335 50.225,34.092 C 50.231,33.742 50.233,33.342 50.233,32.893 V 32.153 C 50.233,31.898 50.213,31.713 50.174,31.601 A 0.369,0.369 0 0,0 49.794,31.33 C 49.534,31.33 49.239,31.533 48.907,31.938 A 0.372,0.372 0 0,0 48.822,32.182 C 48.822,32.756 48.825,33.28 48.83,33.754 A 201.716,201.716 0 0,0 48.856,34.944 C 48.856,34.974 48.842,34.99 48.814,34.99 C 48.785,34.99 48.704,34.987 48.569,34.98 A 7.405,7.405 0 0,0 48.306,34.972 C 48.267,34.972 48.18,34.975 48.045,34.981 C 47.909,34.987 47.825,34.991 47.791,34.991 C 47.763,34.991 47.749,34.975 47.749,34.943 L 47.757,34.719 C 47.763,34.55 47.768,34.344 47.774,34.101 C 47.78,33.751 47.782,33.352 47.782,32.903 V 32.116 C 47.782,31.873 47.766,31.701 47.732,31.601 C 47.676,31.427 47.557,31.339 47.377,31.339 C 47.078,31.339 46.768,31.536 46.447,31.929 C 46.397,31.991 46.371,32.094 46.371,32.238 V 32.94 A 60.272,60.272 0 0,0 46.405,34.943 C 46.405,34.968 46.394,34.981 46.371,34.981 C 46.343,34.981 46.261,34.978 46.126,34.971 A 6.888,6.888 0 0,0 45.873,34.962 C 45.827,34.962 45.734,34.965 45.593,34.972 A 8.44,8.44 0 0,1 45.332,34.981 C 45.309,34.981 45.298,34.968 45.298,34.943 C 45.298,35.013 45.303,34.828 45.315,34.391 C 45.326,33.948 45.332,33.517 45.332,33.099 V 32.004 C 45.332,31.636 45.309,31.292 45.264,30.974 C 45.219,30.65 45.196,30.512 45.196,30.562 C 45.196,30.537 45.216,30.525 45.256,30.525 C 45.447,30.525 45.757,30.497 46.186,30.441 C 46.219,30.441 46.242,30.465 46.253,30.515 C 46.264,30.565 46.287,30.728 46.32,31.002 C 46.32,31.033 46.329,31.049 46.346,31.049 C 46.357,31.049 46.376,31.033 46.405,31.002 C 46.749,30.597 47.155,30.394 47.622,30.394 Z M 6.015,28.59 C 5.895,28.442 5.809,28.323 5.619,28.323 C 5.594,28.323 5.581,28.31 5.581,28.283 V 28.066 C 5.581,28.059 5.582,28.051 5.586,28.041 C 5.589,28.031 5.6,28.026 5.619,28.026 H 7.183 C 7.218,28.033 7.247,28.046 7.269,28.066 A 0.26,0.26 0 0,1 7.331,28.136 C 7.351,28.165 9.844,33.933 9.844,33.933 C 9.769,34.099 9.161,35.303 9.16,35.3 C 9.159,35.297 6.422,29.095 6.015,28.59 Z" fill="rgb(254, 254, 253)"/>
<path d="M 9.516,32.14 L 10.077,33.41 L 11.499,30.228 C 11.512,30.198 11.525,30.183 11.538,30.183 C 11.55,30.183 11.558,30.2 11.562,30.233 L 11.782,34.274 C 11.782,34.683 11.489,34.704 11.209,34.704 C 11.184,34.704 11.171,34.718 11.171,34.744 V 34.962 C 11.171,34.988 11.184,35.002 11.209,35.002 H 14.074 C 14.09,35.002 14.1,34.996 14.103,34.986 A 0.049,0.049 0 0,0 14.113,34.962 V 34.744 A 0.049,0.049 0 0,0 14.103,34.719 C 14.1,34.709 14.09,34.705 14.074,34.705 H 13.998 C 13.953,34.701 13.898,34.695 13.83,34.685 A 4.452,4.452 0 0,1 13.62,34.635 A 0.883,0.883 0 0,1 13.409,34.536 A 0.632,0.632 0 0,1 13.237,34.373 A 0.45,0.45 0 0,1 13.165,34.131 L 12.887,28.862 C 12.887,28.543 13.012,28.323 13.296,28.323 C 13.312,28.323 13.321,28.318 13.324,28.308 A 0.05,0.05 0 0,0 13.334,28.284 V 28.066 A 0.084,0.084 0 0,0 13.329,28.041 C 13.326,28.031 13.315,28.026 13.296,28.026 L 11.449,28 C 11.417,28 11.385,28.018 11.353,28.054 A 0.598,0.598 0 0,0 11.257,28.198 L 9.527,32.155 Z M 6.588,30.68 L 6.587,30.697 C 6.567,31.105 6.537,31.513 6.507,31.922 C 6.453,32.651 6.4,33.381 6.4,34.11 V 34.313 C 6.469,34.649 6.673,34.703 6.935,34.703 C 6.951,34.703 6.959,34.708 6.959,34.718 C 6.962,34.728 6.963,34.736 6.963,34.743 V 34.961 C 6.963,34.987 6.953,35.001 6.935,35.001 H 4.732 C 4.706,35.001 4.693,34.987 4.693,34.961 V 34.743 C 4.693,34.736 4.695,34.728 4.698,34.718 C 4.705,34.708 4.716,34.704 4.732,34.704 C 4.942,34.704 5.105,34.679 5.22,34.629 A 0.555,0.555 0 0,0 5.478,34.417 A 0.754,0.754 0 0,0 5.584,34.09 C 5.712,32.83 5.941,30.47 6.04,29.454 L 6.588,30.68 Z" fill="rgb(254, 254, 253)"/>
</svg>
