<?xml version="1.0" encoding="UTF-8"?>
<!-- generated by Finnhub -->
<svg viewBox="0 0 55.5 55.5" xmlns="http://www.w3.org/2000/svg">
<path d="M 0,0 H 55.5 V 55.5 H 0 Z" fill="rgb(239, 242, 248)"/>
<path d="M 13.59,15.565 C 11.42,16.34 10.08,17.58 10.04,18.91 C 9.96,21.43 10,23.64 10.17,24.56 C 10.25,25.12 10.37,25.84 10.37,26.2 C 10.5,27.37 16.43,32.78 18.9,33.95 C 20.73,34.83 21.32,35.35 21.53,36.23 C 21.7,36.87 22.41,37.83 23.12,38.4 C 23.87,38.96 24.7,39.6 25,39.84 C 25.25,40.04 25.5,40.64 25.5,41.12 C 25.5,42.72 26.33,44.89 27.38,45.98 C 29.05,47.7 31.43,47.18 32.01,44.89 C 32.22,43.93 32.14,43.81 31.18,43.81 C 30.13,43.81 30.09,43.73 30.09,41.65 C 30.09,39.65 30.22,39.32 31.76,37.8 C 32.68,36.87 33.43,35.95 33.43,35.75 C 33.43,35.39 34.85,34.59 38.23,33.06 C 39.2,32.62 41.2,31.06 42.71,29.61 C 45.17,27.17 45.46,26.73 45.71,24.84 C 46.09,22.24 46.09,21.84 45.75,20.34 C 45.63,19.67 45.42,18.74 45.29,18.26 C 44.84,16.06 38.82,14.73 34.77,15.86 C 32.77,16.46 32.39,16.46 30.47,15.86 C 28.71,15.3 28.04,15.26 26.5,15.66 A 9.6,9.6 0 0,1 20.32,15.54 C 17.82,14.81 15.76,14.81 13.59,15.58 Z M 22.36,16.54 A 6.8,6.8 0 0,0 26.21,16.3 C 28.46,15.62 31.31,15.82 30.05,16.58 C 29.67,16.82 29.63,16.94 29.97,16.94 C 30.55,16.94 32.97,20.43 33.01,21.24 C 33.01,21.51 32.85,21.75 32.6,21.75 C 32.05,21.75 30.5,23.04 30.5,23.52 C 30.5,23.72 30.84,24.6 31.3,25.52 A 43.8,43.8 0 0,1 32.68,29.02 L 33.27,30.86 L 32.1,30.82 C 30.93,30.78 30.93,30.74 30.93,28.17 C 30.93,26.41 30.8,25.72 30.51,26 C 30.26,26.25 30.01,28.73 29.92,31.62 C 29.88,34.47 29.63,37.15 29.38,37.6 C 29.13,38.04 29,38.8 29.05,39.32 C 29.09,39.84 28.96,40.32 28.8,40.44 C 28.63,40.52 28.71,41.33 29.05,42.21 C 29.38,43.09 29.51,43.81 29.34,43.81 C 29.17,43.85 29.46,44.17 30.01,44.61 C 31.18,45.54 30.88,46.3 29.46,46.06 C 27.71,45.74 27.5,45.42 28.26,44.29 C 28.96,43.21 28.96,43.21 28.13,43.93 C 27.29,44.61 27.25,44.61 27.04,43.73 C 26.87,43.17 27.04,42.53 27.5,42.05 C 28.17,41.33 28.17,41.29 27.5,41.53 C 26.37,41.93 26.58,40.64 27.71,40.16 C 28.55,39.8 28.55,39.8 27.51,40 C 26.08,40.28 26,39.68 27.29,38.8 L 28.21,38.12 L 27.21,38.4 C 25.91,38.76 26.21,37.8 27.63,37.07 L 28.63,36.55 L 27.46,36.71 C 25.75,36.95 26.16,35.79 28,35.11 L 29.46,34.59 L 27.66,34.83 C 26.16,35.03 25.96,34.95 26.16,34.43 C 26.29,34.07 27,33.63 27.76,33.43 L 29.05,33.06 L 27.38,32.98 C 26.46,32.94 25.96,32.82 26.29,32.7 C 26.75,32.54 26.75,32.42 26.29,32.18 C 25.91,31.94 26.21,31.7 27.21,31.46 L 28.63,31.06 L 27.29,31.02 C 26.37,30.98 25.91,30.78 25.91,30.38 C 25.91,29.93 26.41,29.73 27.71,29.69 L 29.46,29.65 L 27.66,29.49 C 25.5,29.29 25.5,28.49 27.63,28.13 L 29.05,27.89 L 27.5,27.81 C 25.54,27.77 25.45,27.13 27.3,26.57 L 28.63,26.17 L 27.08,26.41 C 25.25,26.65 24.91,25.96 26.54,25.36 A 3,3 0 0,1 28.67,25.4 C 30.09,25.88 30.47,25.6 29.21,24.96 C 28.71,24.68 27.67,24.56 26.91,24.68 C 25.37,24.92 25.04,24.44 26.25,23.8 C 26.92,23.4 26.92,23.4 26.12,23.36 C 25.08,23.36 25.79,22.68 27.17,22.43 C 28.04,22.27 28,22.27 26.87,22.19 C 26.17,22.19 25.41,21.95 25.25,21.71 C 24.75,20.95 26.04,20.51 28.21,20.71 C 29.63,20.87 30.09,20.79 29.67,20.55 C 29.34,20.35 28.13,20.15 27,20.15 C 25.25,20.15 25.04,20.07 25.5,19.55 C 25.79,19.19 26.8,18.95 27.96,18.91 L 29.88,18.87 L 27.79,18.38 C 25.91,17.94 25.79,17.86 26.54,17.42 C 27.34,16.98 27.29,16.98 26.21,16.94 C 25.54,16.94 25.12,17.1 25.29,17.3 C 25.41,17.5 25.33,17.78 25.12,17.94 C 24.45,18.3 23.41,20.59 23.41,21.64 C 23.41,22.19 23.24,22.48 22.99,22.35 C 22.24,21.91 22.53,20.35 23.66,18.91 L 24.7,17.54 L 23.74,17.42 C 23.2,17.38 21.61,17.02 20.19,16.66 C 17.31,15.98 14.64,16.14 12.42,17.14 L 11.09,17.78 L 12.13,16.98 A 7.36,7.36 0 0,1 14.63,15.9 C 15.43,15.78 16.27,15.62 16.52,15.58 C 16.98,15.46 20.02,15.94 22.36,16.54 Z M 41.16,16.54 C 41.7,16.78 41.29,16.82 39.99,16.66 C 38.69,16.5 37.07,16.66 35.27,17.14 C 32.1,17.94 31.14,17.7 34.14,16.82 C 36.4,16.14 39.91,16.02 41.16,16.54 Z M 15.26,17.94 C 14.59,18.26 13.8,18.5 13.55,18.54 C 12.97,18.54 12,19.63 11.88,20.39 C 11.75,21.11 11.75,21.11 14.64,19.95 C 16.01,19.39 17.44,18.95 17.85,18.99 C 18.31,18.99 18.15,19.19 17.35,19.47 C 16.68,19.75 15.14,20.43 13.93,21.07 C 10.96,22.56 10.29,22.52 10.63,20.87 C 10.96,19.23 11.59,18.62 13.63,17.94 C 15.73,17.22 16.89,17.22 15.26,17.94 Z M 42.96,18.54 C 43.92,18.94 44.71,19.51 44.71,19.74 C 44.71,20.07 40.87,18.5 40.16,17.9 C 39.66,17.46 41.36,17.86 42.96,18.54 Z M 43.37,21.31 C 44.33,21.79 45.13,22.43 45.13,22.76 C 45.13,23.68 44.46,23.8 43.63,22.92 A 15.48,15.48 0 0,0 40.66,20.92 A 15.57,15.57 0 0,1 38.44,19.55 C 38.44,19.31 41.49,20.39 43.37,21.31 Z M 15.89,22.07 C 15.3,22.43 14.18,23.36 13.39,24.12 C 12.05,25.36 12,25.4 13.13,24.76 L 14.34,24.08 L 13.64,25 C 12.67,26.37 12.8,26.85 13.93,25.88 C 14.43,25.44 15.43,24.76 16.1,24.36 C 17.06,23.8 16.85,24.12 15.22,25.72 C 13.3,27.61 12.97,27.81 12.17,27.41 C 11.09,26.81 10.58,25.16 11.34,24.32 C 11.96,23.6 15.89,21.35 16.52,21.39 C 16.77,21.39 16.47,21.71 15.89,22.07 Z M 43.79,24.28 C 44.29,24.72 44.71,25.36 44.71,25.72 C 44.71,26.45 43.08,28.17 42.41,28.17 C 42.16,28.17 41.37,27.37 40.61,26.37 C 39.91,25.37 39.36,24.57 39.49,24.57 C 39.57,24.57 40.37,25.17 41.24,25.84 L 42.79,27.17 L 41.87,25.6 L 40.91,24.04 L 41.95,24.72 C 43.55,25.68 43.29,25.08 41.49,23.48 L 39.91,22.08 L 41.37,22.76 C 42.17,23.16 43.25,23.84 43.79,24.28 Z M 32.18,23.12 C 32.18,23.24 32.01,23.44 31.76,23.56 C 31.56,23.68 31.34,23.6 31.34,23.4 C 31.34,23.16 31.55,22.96 31.76,22.96 C 32.01,22.96 32.18,23.04 32.18,23.12 Z M 32.85,25.24 C 32.55,25.92 32.05,25.68 31.93,24.76 C 31.89,24.44 32.01,24.24 32.23,24.4 C 32.43,24.52 32.6,24.36 32.63,24.08 C 32.63,23.68 32.73,23.68 32.89,24.08 C 33.01,24.36 32.97,24.88 32.85,25.24 Z M 23.03,27.09 C 22.61,27.45 22.57,27.41 22.83,26.85 C 22.95,26.45 23.2,26.25 23.33,26.37 C 23.45,26.49 23.33,26.81 23.03,27.09 Z M 24.24,29.25 C 24.24,31.34 24.12,31.82 23.74,31.45 C 23.45,31.18 22.91,30.98 22.49,30.98 C 21.65,30.98 21.44,29.21 22.15,28.17 C 22.49,27.73 22.53,27.93 22.36,28.85 C 22.2,29.85 22.32,30.25 22.99,30.58 C 23.79,30.98 23.83,30.9 23.83,28.78 C 23.83,27.57 23.91,26.57 24.03,26.57 C 24.16,26.57 24.24,27.77 24.24,29.25 Z M 16.06,27.97 C 15.01,29.49 15.72,29.69 17.23,28.33 C 18.6,27.09 18.48,27.57 16.85,29.65 L 15.89,30.94 L 14.93,30.06 L 13.97,29.17 L 15,28.05 C 16.3,26.69 16.97,26.65 16.05,27.97 Z M 39.86,30.17 C 39.99,30.17 39.91,29.73 39.7,29.21 C 39.36,28.29 39.36,28.29 40.58,28.69 C 42.04,29.25 42.04,29.33 40.62,30.42 L 39.49,31.26 L 37.9,29 L 36.31,26.76 L 37.94,28.44 C 38.86,29.4 39.7,30.17 39.86,30.17 Z M 38,32.15 C 37.7,32.23 37.24,31.99 36.9,31.55 C 35.99,30.35 36.28,29.99 37.45,31.03 C 38.12,31.63 38.33,32.03 38,32.15 Z M 19.45,31.79 C 18.78,32.99 18.36,33.23 17.82,32.71 C 17.7,32.55 18.07,32.03 18.7,31.51 C 20.2,30.35 20.2,30.35 19.45,31.79 Z M 36.53,32.95 C 36.24,33.23 36.03,32.83 35.78,31.59 L 35.53,30.39 L 36.12,31.59 C 36.45,32.23 36.62,32.87 36.53,32.95 Z M 23.2,34 C 23.2,35.32 23.45,36.8 23.74,37.28 C 24.45,38.48 24.37,38.68 23.45,38.21 C 21.49,37.21 20.65,31.11 22.49,31.47 C 23.07,31.59 23.19,32.07 23.19,34 Z M 33.22,33.31 C 33.1,33.63 33.02,34.31 33.02,34.88 C 33.02,35.48 32.43,36.44 31.55,37.28 C 30.01,38.77 28.92,38.85 30.3,37.4 C 30.8,36.88 31.14,35.76 31.26,34.28 C 31.39,33.03 31.68,31.87 31.93,31.71 C 32.51,31.31 33.52,32.59 33.23,33.31 Z M 25.04,38.21 C 25.04,38.57 24.79,38.37 24.45,37.81 A 4.15,4.15 0 0,1 23.87,36.21 C 23.87,35.84 24.12,36.04 24.45,36.61 C 24.79,37.16 25.04,37.89 25.04,38.21 Z M 31.64,44.46 C 31.51,44.58 31.14,44.62 30.84,44.5 C 30.51,44.38 30.64,44.26 31.09,44.26 C 31.55,44.22 31.8,44.34 31.64,44.46 Z"/>
</svg>
