<?xml version="1.0" encoding="UTF-8"?>
<!-- generated by Finnhub -->
<svg viewBox="0 0 55.5 55.5" xmlns="http://www.w3.org/2000/svg">
<path d="M 0,0 H 55.5 V 55.5 H 0 Z" fill="rgb(245, 247, 251)"/>
<circle cx="28" cy="28" r="16" fill="rgb(1, 130, 201)"/>
<path d="M 42.646,33.94 A 10.5,10.5 0 0,0 42.775,32.377 C 42.775,25.54 36.16,20 28,20 S 13.225,25.541 13.225,32.377 C 13.225,32.911 13.265,33.438 13.345,33.955 C 17.202,32.497 22.348,31.607 28,31.607 C 33.652,31.607 38.798,32.497 42.656,33.955 Z" fill="rgb(74, 232, 253)" opacity=".6"/>
<path d="M 42.764,33.985 C 38.904,32.515 33.71,31.606 28,31.606 S 17.096,32.515 13.226,34 C 13.301,28.163 19.886,23.448 28,23.448 C 36.113,23.448 42.699,28.163 42.774,34 Z" fill="rgb(254, 254, 253)"/>
</svg>
