<?xml version="1.0" encoding="UTF-8"?>
<!-- generated by Finnhub -->
<svg viewBox="0 0 55.5 55.5" xmlns="http://www.w3.org/2000/svg">
<path d="M 0,28 A 28,28 0 1,1 56,28 A 28,28 0 0,1 0,28 Z" fill="rgb(50, 62, 70)"/>
<path d="M 13.99,23.985 V 30 H 15 V 26.2 L 18.13,30 H 18.5 V 24 H 17.5 V 27.8 L 14.39,24 H 14 Z M 12,30 H 13 V 24 H 12 V 30 Z M 9.24,27.88 L 10.26,24 H 11.52 V 24.18 L 9.62,30 H 8.86 L 7.8,26.66 H 7.78 L 6.69,30 H 5.93 L 4,24.18 V 24 H 5.25 L 6.33,27.88 H 6.35 L 7.5,24 H 8.04 L 9.21,27.88 H 9.24 Z M 25,30 V 24 H 28.5 V 25 H 26 V 26.5 H 28.5 V 27.5 H 26 V 29 H 28.5 V 30 H 25 Z M 19.5,30 V 24 H 19.89 L 23,27.7 V 24 H 24 V 30 H 23.63 L 20.5,26.3 V 30 H 19.5 Z M 29.5,24 H 31.95 A 1.75,1.75 0 0,1 33.31,26.86 A 1.75,1.75 0 0,1 32.25,30 H 29.5 V 24 Z M 30.5,26.5 H 31.95 A 0.75,0.75 0 0,0 31.95,25 H 30.5 V 26.5 Z M 30.5,27.5 V 29 H 32.25 A 0.75,0.75 0 0,0 32.25,27.5 H 30.5 Z M 36.9,24 H 37.5 L 40.16,30 H 39.06 L 38.62,29 H 35.82 L 35.39,30 H 34.3 L 36.9,24 Z M 37.2,25.82 L 38.17,28 H 36.26 L 37.21,25.82 Z M 43,29 C 43.6,29 44.2,28.62 44.52,28 H 43 V 27 H 45.75 C 45.75,28.66 44.52,30 43,30 S 40.25,28.66 40.25,27 S 41.48,24 43,24 C 44.2,24 45.22,24.83 45.6,26 H 44.52 C 44.2,25.38 43.61,25 43,25 C 42.11,25 41.25,25.81 41.25,27 S 42.11,29 43,29 Z M 51,27 C 51,28.19 50.14,29 49.25,29 S 47.5,28.19 47.5,27 S 48.36,25 49.25,25 S 51,25.81 51,27 Z M 52,27 C 52,28.66 50.77,30 49.25,30 S 46.5,28.66 46.5,27 S 47.73,24 49.25,24 S 52,25.34 52,27 Z" fill="rgb(254, 254, 253)" fill-rule="evenodd"/>
<path d="M 5.91,34.985 H 5.46 V 31.4 H 5.92 V 35 Z M 11.49,35 H 11.02 L 9.23,32.2 V 35 H 8.76 V 31.4 H 9.23 L 11.03,34.2 V 31.4 H 11.49 V 35 Z M 14.3,35 V 31.4 H 15.3 C 15.61,31.4 15.88,31.46 16.12,31.6 C 16.36,31.74 16.54,31.93 16.67,32.18 C 16.8,32.43 16.87,32.72 16.87,33.05 V 33.28 C 16.87,33.61 16.8,33.96 16.67,34.21 S 16.36,34.66 16.12,34.79 C 15.88,34.93 15.6,34.99 15.28,35 H 14.3 Z M 14.77,31.78 V 34.62 H 15.26 C 15.62,34.62 15.9,34.5 16.1,34.28 C 16.3,34.06 16.4,33.68 16.4,33.27 V 33.07 C 16.4,32.66 16.31,32.34 16.12,32.12 A 1,1 0 0,0 15.32,31.78 H 14.77 Z M 22,31.4 V 33.81 C 22,34.15 21.9,34.42 21.68,34.63 C 21.48,34.85 21.19,34.97 20.83,34.99 H 20.71 C 20.32,34.99 20.01,34.89 19.78,34.69 C 19.55,34.47 19.43,34.19 19.43,33.82 V 31.39 H 19.89 V 33.8 C 19.89,34.06 19.96,34.26 20.1,34.4 C 20.24,34.54 20.45,34.61 20.7,34.61 C 20.97,34.61 21.18,34.54 21.32,34.41 A 0.8,0.8 0 0,0 21.52,33.81 V 31.39 H 22 Z M 25.82,33.36 C 25.42,33.25 25.12,33.11 24.94,32.94 A 0.82,0.82 0 0,1 24.67,32.31 C 24.67,32.03 24.77,31.81 25,31.62 C 25.23,31.44 25.52,31.35 25.87,31.35 C 26.12,31.35 26.34,31.39 26.53,31.49 C 26.72,31.59 26.87,31.71 26.97,31.88 A 1,1 0 0,1 27.13,32.42 H 26.66 A 0.64,0.64 0 0,0 26.46,31.92 A 0.83,0.83 0 0,0 25.87,31.73 A 0.86,0.86 0 0,0 25.33,31.88 A 0.5,0.5 0 0,0 25.14,32.31 C 25.14,32.45 25.2,32.57 25.32,32.68 C 25.45,32.78 25.66,32.87 25.95,32.95 C 26.25,33.03 26.48,33.12 26.65,33.23 C 26.81,33.33 26.94,33.44 27.02,33.57 C 27.1,33.71 27.14,33.87 27.14,34.05 C 27.14,34.33 27.02,34.56 26.8,34.74 C 26.58,34.91 26.28,35 25.9,35 C 25.66,35 25.43,34.95 25.22,34.86 C 25,34.76 24.84,34.64 24.72,34.47 A 0.94,0.94 0 0,1 24.55,33.92 H 25.03 C 25.03,34.13 25.1,34.3 25.26,34.42 C 25.42,34.55 25.63,34.62 25.9,34.62 C 26.15,34.62 26.34,34.56 26.47,34.46 A 0.5,0.5 0 0,0 26.67,34.05 C 26.67,33.88 26.6,33.75 26.48,33.65 C 26.36,33.55 26.14,33.45 25.82,33.36 Z M 32.14,31.78 H 31 V 35 H 30.53 V 31.78 H 29.4 V 31.39 H 32.15 V 31.78 Z M 35.98,33.51 H 35.14 V 35 H 34.67 V 31.4 H 35.85 C 36.25,31.4 36.55,31.49 36.77,31.67 C 36.99,31.85 37.1,32.12 37.1,32.47 C 37.1,32.68 37.04,32.87 36.91,33.04 C 36.8,33.21 36.63,33.33 36.41,33.41 L 37.25,34.97 V 35 H 36.75 L 35.98,33.51 Z M 35.14,33.13 H 35.86 A 0.8,0.8 0 0,0 36.42,32.95 A 0.6,0.6 0 0,0 36.62,32.46 C 36.62,32.24 36.56,32.08 36.42,31.96 C 36.3,31.84 36.11,31.78 35.86,31.78 H 35.14 V 33.13 Z M 40.23,35 H 39.76 V 31.4 H 40.23 V 35 Z M 45.01,33.3 H 43.47 V 34.62 H 45.26 V 35 H 43 V 31.4 H 45.23 V 31.78 H 43.47 V 32.92 H 45 V 33.31 Z M 48.93,33.36 C 48.53,33.25 48.23,33.11 48.05,32.94 A 0.82,0.82 0 0,1 47.78,32.31 C 47.78,32.03 47.89,31.81 48.11,31.62 C 48.34,31.44 48.63,31.35 48.99,31.35 C 49.23,31.35 49.45,31.39 49.64,31.49 C 49.84,31.59 49.98,31.71 50.08,31.88 A 1,1 0 0,1 50.24,32.42 H 49.77 A 0.64,0.64 0 0,0 49.57,31.92 A 0.83,0.83 0 0,0 48.99,31.73 A 0.86,0.86 0 0,0 48.45,31.88 A 0.5,0.5 0 0,0 48.25,32.31 C 48.25,32.45 48.31,32.57 48.44,32.68 C 48.56,32.78 48.77,32.87 49.06,32.95 C 49.36,33.03 49.59,33.12 49.76,33.23 C 49.92,33.33 50.05,33.44 50.13,33.57 C 50.21,33.71 50.25,33.87 50.25,34.05 C 50.25,34.33 50.14,34.56 49.91,34.74 C 49.69,34.91 49.39,35 49.01,35 C 48.77,35 48.54,34.95 48.33,34.86 C 48.12,34.76 47.95,34.64 47.83,34.47 A 0.94,0.94 0 0,1 47.67,33.92 H 48.14 C 48.14,34.13 48.22,34.3 48.37,34.42 C 48.53,34.55 48.75,34.62 49.01,34.62 C 49.26,34.62 49.45,34.56 49.58,34.46 A 0.5,0.5 0 0,0 49.78,34.05 C 49.78,33.88 49.72,33.75 49.6,33.65 C 49.47,33.55 49.25,33.45 48.93,33.36 Z" fill="rgb(139, 156, 164)"/>
</svg>
