<?xml version="1.0" encoding="UTF-8"?>
<!-- generated by Finnhub -->
<svg viewBox="0 0 55.5 55.5" xmlns="http://www.w3.org/2000/svg">
<path d="M 0,0 H 55.5 V 55.5 H 0 Z" fill="rgb(239, 242, 248)"/>
<path d="M 38.99,30.985 V 33 H 32 V 21 H 35 V 31 H 39 Z M 16.55,29.25 L 18.15,21 H 21.43 A 0.03,0.03 0 0,1 21.46,21.02 V 21.04 L 18.19,32.98 L 18.18,32.99 L 18.16,33 H 15.24 L 15.23,32.98 L 13.48,26.46 L 13.47,26.44 A 0.03,0.03 0 0,0 13.43,26.44 V 26.46 L 11.61,32.98 V 32.99 L 11.59,33 H 8.68 L 8.67,32.98 L 5.39,21.04 A 0.03,0.03 0 0,1 5.39,21.01 H 5.4 L 5.42,21 H 8.79 L 10.29,29.15 V 29.16 H 10.33 L 10.34,29.15 L 12.41,21.02 V 21.01 L 12.43,21 H 14.39 V 21.02 L 16.49,29.25 L 16.5,29.27 H 16.54 V 29.25 Z M 22,21 H 25 V 26 H 28 V 21 H 31 V 33 H 28 V 28 H 25 V 33 H 22 V 21 Z M 43,28.57 V 33 H 40 V 21.05 C 40,21.02 40.01,21.01 40.04,21.01 H 44.88 C 48.6,21.04 49.44,25.67 46.67,27.51 C 46.41,27.68 46.1,27.81 45.8,27.94 C 45.77,27.95 45.77,27.97 45.79,28 L 49.99,33 H 46.52 L 43,28.57 Z M 43,23 V 26.23 H 43.8 C 44.62,26.23 45.35,25.56 45.35,24.73 V 24.58 C 45.35,23.78 44.61,23 43.8,23 H 43 Z" fill="rgb(0, 49, 108)"/>
<path d="M 50.940000000000005,34.985 H 5.05 C 5.02,35 5,35.03 5,35.07 V 35.93 C 5,35.97 5.02,36 5.05,36 H 50.95 C 50.98,36 51,35.97 51,35.93 V 35.07 C 51,35.03 50.98,35 50.95,35 Z" fill="rgb(252, 218, 3)"/>
</svg>
