<?xml version="1.0" encoding="UTF-8"?>
<!-- generated by Finnhub -->
<svg viewBox="0 0 55.5 55.5" xmlns="http://www.w3.org/2000/svg">
<path d="M 0,0 H 55.5 V 55.5 H 0 Z" fill="rgb(239, 242, 248)"/>
<path d="M 26.63,38.585 C 38.77,40.21 49.21,36.76 49.96,30.9 A 6.34,6.34 0 0,0 48.76,26.53 C 48.9,27.01 48.97,27.5 48.97,28 C 48.97,33.6 39.55,38.14 27.94,38.14 C 25.79,38.14 23.73,37.98 21.78,37.69 C 23.33,38.08 24.96,38.39 26.64,38.61 Z M 7.03,29.13 A 5.02,5.02 0 0,1 6.9,28 C 6.9,22.4 16.32,17.87 27.94,17.87 C 30.22,17.87 32.41,18.04 34.47,18.37 A 45.17,45.17 0 0,0 29.36,17.39 C 17.23,15.79 6.79,19.24 6.04,25.09 A 6.17,6.17 0 0,0 7.03,29.12 Z" fill="rgb(1, 107, 181)"/>
<path d="M 47.79,27.985 C 47.8,32.86 38.94,36.8 28,36.8 C 17.06,36.8 8.2,32.86 8.2,28 C 8.2,23.14 17.06,19.2 28,19.2 C 38.94,19.2 47.8,23.14 47.8,28 Z M 45.1,30.71 C 45.99,29.82 46.42,28.91 46.42,28 C 46.42,27.1 45.99,26.18 45.1,25.29 C 44.2,24.4 42.89,23.58 41.21,22.87 C 37.86,21.46 33.19,20.57 28,20.57 C 22.81,20.57 18.14,21.46 14.79,22.87 C 13.11,23.57 11.79,24.4 10.9,25.29 C 10.01,26.18 9.58,27.09 9.58,28 C 9.58,28.9 10.01,29.82 10.9,30.71 C 11.8,31.6 13.11,32.42 14.79,33.13 C 18.14,34.54 22.81,35.43 28,35.43 C 33.19,35.43 37.86,34.54 41.21,33.13 C 42.89,32.43 44.21,31.6 45.1,30.71 Z M 28,36 C 38.5,36 47,32.42 47,28 S 38.5,20 28,20 S 9,23.58 9,28 S 17.5,36 28,36 Z M 19,31 H 20 V 25 H 19 V 31 Z M 23,30 V 31 H 21 V 25 H 22 V 30 H 23 Z M 26,31 V 30 H 25 V 25 H 24 V 31 H 26 Z M 28,31 H 27 V 25 H 28 V 31 Z M 31,27.5 V 26 H 32 V 25 H 30 V 31 H 31 V 28.5 H 32 V 27.5 H 31 Z M 36,27.86 V 28.14 C 36,29.51 35.54,31 34.5,31 C 33.47,31 33,29.51 33,28.14 V 27.86 C 33,26.5 33.46,25 34.5,25 C 35.53,25 36,26.5 36,27.86 Z M 35,28.14 V 27.86 C 35,27.1 35,26 34.5,26 S 34,27.12 34,27.86 V 28.17 C 34,28.92 34,30 34.5,30 S 35,28.89 35,28.14 Z M 40,28.14 V 27.86 C 40,26.49 39.53,25 38.5,25 C 37.46,25 37,26.5 37,27.86 V 28.14 C 37,29.51 37.47,31 38.5,31 C 39.54,31 40,29.51 40,28.14 Z M 39,27.86 V 28.16 C 39,28.91 39,30 38.5,30 S 38,28.9 38,28.15 V 27.86 C 38,27.12 38,26 38.5,26 S 39,27.1 39,27.86 Z M 14.5,31 L 14,25 H 15 L 15.25,28.6 L 15.5,25 H 16.5 L 16.75,28.6 L 17,25 H 18 L 17.5,31 H 16.5 L 16,28.6 L 15.5,31 H 14.5 Z M 42,31 H 42.2 C 43.28,31 44,29.72 44,28.14 V 27.86 C 44,26.3 43.29,25 42.21,25 H 41 V 31 H 42 Z M 42,30 H 42.21 C 42.92,30 43,29.1 43,28.15 V 27.86 C 43,26.92 42.92,26 42.21,26 H 42 V 30 Z" fill="rgb(237, 26, 44)" fill-rule="evenodd"/>
</svg>
