<?xml version="1.0" encoding="UTF-8"?>
<!-- generated by Finnhub -->
<svg viewBox="0 0 55.5 55.5" xmlns="http://www.w3.org/2000/svg">
<path d="M 0,0 H 55.5 V 55.5 H 0 Z" fill="rgb(22, 34, 55)"/>
<path d="M 5.57,25.185 C 5.48,25.2 5.43,25.28 5.43,25.42 L 5.44,25.56 L 5.52,25.82 L 6.62,29 H 6.63 L 7.71,25.78 L 7.78,25.56 L 7.8,25.43 C 7.8,25.29 7.75,25.21 7.66,25.21 V 25 H 9.41 V 25.2 A 0.11,0.11 0 0,0 9.31,25.26 A 0.26,0.26 0 0,0 9.28,25.39 C 9.28,25.46 9.31,25.59 9.38,25.77 L 10.48,28.99 H 10.49 L 11.59,25.71 A 0.8,0.8 0 0,0 11.66,25.4 A 0.2,0.2 0 0,0 11.61,25.27 A 0.16,0.16 0 0,0 11.49,25.2 V 25 H 13 V 25.2 C 12.92,25.2 12.87,25.25 12.83,25.34 L 12.7,25.68 L 11.23,30.04 L 11.13,30.36 A 0.77,0.77 0 0,0 11.08,30.59 C 11.08,30.64 11.1,30.69 11.13,30.73 C 11.17,30.77 11.21,30.8 11.27,30.8 V 31 H 9.67 V 30.8 A 0.63,0.63 0 0,0 9.79,30.73 A 0.15,0.15 0 0,0 9.86,30.6 A 0.64,0.64 0 0,0 9.82,30.4 L 9.7,30.08 L 8.53,26.71 H 8.5 L 7.39,30.01 C 7.29,30.31 7.23,30.49 7.23,30.57 C 7.23,30.69 7.28,30.77 7.36,30.8 V 31 H 5.8 V 30.8 C 5.84,30.8 5.88,30.79 5.92,30.76 C 5.96,30.74 5.98,30.7 5.98,30.65 A 0.56,0.56 0 0,0 5.94,30.45 L 5.87,30.24 L 4.24,25.52 A 1.48,1.48 0 0,0 4.14,25.32 A 0.22,0.22 0 0,0 4,25.2 V 25 H 5.58 V 25.2 Z M 13.69,30.8 C 13.89,30.8 13.99,30.73 13.99,30.6 V 25.4 C 13.99,25.27 13.89,25.2 13.69,25.2 V 25 H 15.49 V 25.2 C 15.29,25.2 15.2,25.27 15.2,25.4 V 30.6 C 15.2,30.73 15.3,30.8 15.5,30.8 V 31 H 13.69 V 30.8 Z M 16.8,30.8 C 16.94,30.8 17,30.72 17,30.59 V 25.4 C 17,25.26 16.94,25.2 16.8,25.2 V 25 H 18.73 V 25.2 C 18.67,25.2 18.65,25.24 18.65,25.32 C 18.65,25.38 18.71,25.49 18.85,25.64 L 21.8,29.04 V 25.4 C 21.8,25.26 21.8,25.2 21.48,25.2 V 25 H 23.19 V 25.2 C 23.06,25.2 23,25.27 23,25.4 V 30.58 C 23,30.72 23.06,30.78 23.2,30.78 V 31 H 21.37 V 30.8 C 21.45,30.8 21.5,30.76 21.5,30.7 C 21.5,30.64 21.44,30.55 21.34,30.43 L 18.2,26.8 V 30.6 C 18.2,30.73 18.34,30.8 18.5,30.8 V 31 H 16.8 V 30.8 Z M 23.76,30.8 C 23.82,30.8 23.88,30.78 23.93,30.74 C 23.98,30.71 24,30.66 24,30.59 V 25.39 C 24,25.32 23.98,25.27 23.93,25.25 A 0.36,0.36 0 0,0 23.76,25.2 V 25 H 26.28 V 25.2 A 0.3,0.3 0 0,0 26.15,25.24 C 26.11,25.26 26.08,25.29 26.08,25.34 A 5,5 0 0,0 26.24,25.68 L 27.98,28.65 L 29.73,25.72 L 29.86,25.49 C 29.89,25.43 29.91,25.38 29.91,25.33 C 29.91,25.25 29.85,25.21 29.75,25.21 V 25 H 32.25 V 25.2 A 0.34,0.34 0 0,0 32.07,25.24 C 32.02,25.26 32,25.31 32,25.38 V 30.58 C 32,30.65 32.02,30.7 32.07,30.73 C 32.12,30.77 32.18,30.79 32.25,30.79 V 30.99 H 30.5 V 30.79 C 30.72,30.79 30.8,30.72 30.8,30.59 V 26.79 L 27.95,31 H 27.91 L 25.2,26.8 V 30.59 C 25.2,30.73 25.27,30.79 25.5,30.79 V 30.99 H 23.76 V 30.79 Z" fill="rgb(254, 254, 253)"/>
<path d="M 31.99,30.785 C 32.1,30.78 32.17,30.73 32.23,30.65 L 32.4,30.35 L 34.49,25.92 L 34.63,25.65 A 0.53,0.53 0 0,0 34.69,25.43 C 34.69,25.36 34.67,25.3 34.61,25.27 A 0.65,0.65 0 0,0 34.44,25.2 V 25 H 36.35 V 25.2 A 0.76,0.76 0 0,0 36.2,25.27 C 36.14,25.29 36.12,25.35 36.12,25.43 C 36.12,25.5 36.13,25.56 36.16,25.62 L 36.28,25.86 L 38.63,30.5 C 38.67,30.58 38.72,30.64 38.78,30.68 L 39,30.79 V 30.99 H 37.01 V 30.79 C 37.04,30.79 37.08,30.79 37.13,30.76 C 37.17,30.74 37.19,30.7 37.19,30.66 A 0.71,0.71 0 0,0 37.1,30.36 L 36.67,29.52 H 33.91 L 33.51,30.32 A 0.95,0.95 0 0,0 33.39,30.67 C 33.39,30.75 33.46,30.8 33.61,30.8 V 31 H 32 V 30.8 H 32 Z M 36.26,28.67 L 35.31,26.55 L 34.25,28.67 H 36.25 Z M 43.06,25 C 44.22,25 45.26,25.48 45.26,26.77 C 45.26,27.71 44.66,28.28 43.76,28.47 L 45.15,30.63 C 45.19,30.71 45.25,30.75 45.32,30.77 C 45.39,30.79 45.44,30.79 45.5,30.79 V 31 H 43.56 V 30.8 C 43.62,30.8 43.67,30.78 43.72,30.76 C 43.76,30.74 43.78,30.71 43.78,30.66 A 0.27,0.27 0 0,0 43.74,30.54 A 3.12,3.12 0 0,0 43.62,30.34 L 42.47,28.56 H 41 V 30.59 C 41,30.66 41,30.71 41.05,30.74 C 41.09,30.78 41.17,30.79 41.29,30.79 V 31 H 39.5 V 30.8 C 39.7,30.8 39.8,30.73 39.8,30.6 V 25.4 C 39.8,25.26 39.7,25.2 39.5,25.2 V 25 H 43.06 V 25 Z M 42.79,27.67 C 43.36,27.67 44.09,27.53 44.09,26.83 C 44.09,26.12 43.36,26 42.79,26 H 41 V 27.67 H 42.79 Z M 47.2,30.6 C 47.2,30.66 47.31,30.71 47.35,30.74 C 47.39,30.78 47.45,30.8 47.5,30.8 V 31 H 45.77 V 30.8 C 45.92,30.8 46,30.73 46,30.6 V 25.4 C 46,25.27 45.92,25.2 45.77,25.2 V 25 H 47.5 V 25.2 C 47.44,25.2 47.4,25.22 47.35,25.26 C 47.31,25.29 47.2,25.34 47.2,25.41 V 27.58 L 49.56,25.72 L 49.79,25.5 C 49.85,25.44 49.88,25.4 49.88,25.35 C 49.88,25.3 49.86,25.26 49.83,25.24 A 0.18,0.18 0 0,0 49.72,25.2 V 25 H 51.91 V 25.2 C 51.78,25.2 51.66,25.26 51.53,25.38 L 49.13,27.46 L 51.33,30.24 C 51.42,30.35 51.52,30.46 51.64,30.57 A 1,1 0 0,0 52,30.8 V 31 H 50.07 V 30.8 C 50.17,30.8 50.21,30.77 50.21,30.72 C 50.21,30.68 50.16,30.59 50.07,30.47 L 48.28,28.22 L 47.2,28.96 V 30.59 Z" fill="rgb(254, 254, 253)"/>
</svg>
