<?xml version="1.0" encoding="UTF-8"?>
<!-- generated by Finnhub -->
<svg viewBox="0 0 55.5 55.5" xmlns="http://www.w3.org/2000/svg">
<path d="M 0,0 H 55.5 V 55.5 H 0 Z" fill="rgb(21, 76, 131)"/>
<path d="M 27.099,35.15 C 26.606,36.359 26.074,37.548 25.619,38.762 C 23.281,32.549 19.197,19.747 19.197,19.747 C 18.991,19.233 18.889,18.514 19.505,18 H 10 C 10.963,18.963 11.83,19.514 12.26,20.93 L 19.094,41.691 C 19.145,41.845 19.197,42 19.402,42 H 26.39 C 26.595,42 26.646,41.897 26.595,41.743 C 26.492,41.383 26.441,41.023 26.338,40.663 A 1.163,1.163 0 0,1 26.39,39.739 C 26.852,38.814 27.263,37.837 27.674,36.861 L 29.267,41.64 C 29.318,41.846 29.421,42 29.677,42 H 36.973 C 36.819,41.435 36.717,40.87 36.563,40.355 A 0.5,0.5 0 0,1 36.613,39.893 C 39.696,32.853 42.83,25.863 45.913,18.823 C 46.119,18.308 45.964,18 45.399,18 H 40.57 C 41.186,18.206 41.803,18.36 42.368,18.617 C 43.088,18.925 43.498,19.439 43.55,20.261 C 43.601,20.929 43.396,21.546 43.139,22.163 A 7674.44,7674.44 0 0,1 35.897,38.642 C 34.557,34.819 31.938,27.148 31.938,27.148 S 34.393,21.556 35.638,18.771 C 35.843,18.308 35.638,18 35.124,18 H 32.298 C 32.788,18.139 33.993,18.435 33.993,19.233 C 33.993,19.542 33.839,19.799 33.737,20.107 C 33.117,21.491 31.322,25.4 31.322,25.4 S 30.089,21.803 29.524,19.953 C 29.318,19.285 29.215,18.565 29.729,18 H 20.276 C 21.509,18.617 22.228,19.696 22.588,20.878 C 24.167,25.616 25.576,30.412 27.108,35.165 Z" fill="rgb(254, 254, 253)"/>
</svg>
