<?xml version="1.0" encoding="UTF-8"?>
<!-- generated by Finnhub -->
<svg viewBox="0 0 55.5 55.5" xmlns="http://www.w3.org/2000/svg">
<path d="M 0,0 H 55.5 V 55.5 H 0 Z" fill="rgb(239, 242, 248)"/>
<path d="M 20.939999999999998,31.985 L 15,22 H 22.27 L 26.26,28.77 L 28.53,25.29 L 30.75,28.7 L 34.7,22 H 41.97 L 36.02,32 H 31.44 L 28.54,36.73 L 25.57,32 H 20.95 Z M 25.84,31.54 L 28.54,35.84 L 31.18,31.54 H 35.75 L 41.15,22.45 H 34.98 L 30.78,29.6 L 28.53,26.16 L 26.23,29.66 L 22,22.46 H 15.83 L 21.23,31.55 H 25.85 Z" fill="rgb(195, 43, 60)"/>
<path d="M 28.5,26.985 L 31,31 L 28.51,35 L 26,31 L 28.51,27 Z" fill="rgb(195, 43, 60)"/>
<path d="M 45.99,27.985 C 46,19.86 34.18,17 28,17 C 21.77,17 10,19.88 10,28 C 10,36.12 21.77,39 28,39 C 34.17,39 46,36.09 46,28 Z M 28,40 C 38.5,40 47,34.63 47,28 S 38.5,16 28,16 S 9,21.37 9,28 C 9,34.63 17.5,40 28,40 Z" fill="rgb(195, 43, 60)" fill-rule="evenodd"/>
<path d="M 16.99,22.985 H 21.5 L 23.47,26.5 H 18.97 L 17,23 Z M 19.53,27.5 L 21.5,31 H 26 L 24.03,27.5 H 19.53 Z M 40,23 H 35.5 L 33.53,26.5 H 38.03 L 40,23 Z M 37.47,27.5 L 35.5,31 H 31 L 32.97,27.5 H 37.47 Z" fill="rgb(195, 43, 60)"/>
</svg>
