<?xml version="1.0" encoding="UTF-8"?>
<!-- generated by Finnhub -->
<svg viewBox="0 0 55.5 55.5" xmlns="http://www.w3.org/2000/svg">
<path d="M 0,0 H 55.5 V 55.5 H 0 Z" fill="rgb(239, 242, 248)"/>
<mask id="a" x="4" y="24" width="10" height="8" maskUnits="userSpaceOnUse">
<path d="M 3.99,23.985 H 13.19 V 32 H 4 V 24 Z" fill="rgb(254, 254, 253)"/>
</mask>
<g mask="url(#a)">
<path d="M 12.24,23.985 A 0.4,0.4 0 0,0 11.88,24.27 L 9.5,30.37 L 9.05,24 H 8.34 A 0.4,0.4 0 0,0 7.97,24.26 L 5.5,30.34 L 5.09,24 H 4.39 A 0.4,0.4 0 0,0 4.09,24.14 A 0.45,0.45 0 0,0 3.99,24.48 L 4.68,32 H 5.49 C 5.65,32 5.79,31.9 5.86,31.74 L 8.3,25.75 L 8.78,32 H 9.58 C 9.75,32 9.89,31.9 9.96,31.74 L 13.19,24 H 12.25 Z" fill="rgb(74, 42, 107)"/>
</g>
<path d="M 16.4,28.495 C 16.41,29.78 15.75,31.13 14.53,31.13 C 13.28,31.13 13.01,30.23 13.01,29.49 C 13.01,28.22 13.68,26.87 14.91,26.87 C 16.15,26.87 16.41,27.77 16.41,28.51 Z M 14.9,26 C 13.22,26 12,27.47 12,29.49 C 12,31.06 12.95,32 14.54,32 C 16.22,32 17.44,30.53 17.44,28.51 C 17.44,26.94 16.48,26 14.89,26 Z M 19.61,24 A 0.4,0.4 0 0,0 19.21,24.34 L 17.92,32 H 18.59 A 0.4,0.4 0 0,0 18.99,31.66 L 20.29,24 H 19.62 Z M 26.3,28.53 L 26.1,28.46 C 25.54,28.28 25.06,28.13 25.06,27.65 C 25.06,27.19 25.53,26.87 26.2,26.87 C 26.93,26.87 27.67,27.25 27.88,27.37 L 27.94,27.4 L 28.45,26.68 L 28.38,26.64 A 4.63,4.63 0 0,0 26.17,26 C 24.92,26 24.04,26.7 24.04,27.71 C 24.04,28.81 25.03,29.14 25.68,29.35 L 25.84,29.41 C 26.5,29.62 27.02,29.79 27.02,30.3 C 27.02,30.85 26.42,31.13 25.82,31.13 C 25.07,31.13 24.24,30.69 23.92,30.5 L 23.86,30.47 L 23.31,31.18 L 23.38,31.23 A 4.8,4.8 0 0,0 25.81,32 C 27.15,32 28.06,31.29 28.06,30.22 C 28.06,29.21 27.3,28.87 26.31,28.52 Z M 32.97,28.14 C 32.97,30.04 32.1,31.07 31.27,31.07 C 30.62,31.07 30.07,30.63 29.72,30.24 L 30.15,27.74 C 30.68,27.31 31.27,26.88 31.95,26.88 C 32.79,26.88 32.97,27.57 32.97,28.14 Z M 32.17,26 C 31.58,26 30.97,26.24 30.33,26.73 L 30.43,26.12 H 29.76 A 0.4,0.4 0 0,0 29.36,26.45 L 28.07,34 H 28.74 A 0.4,0.4 0 0,0 29.14,33.66 L 29.58,31.14 C 29.92,31.45 30.55,31.95 31.45,31.95 C 32.96,31.95 34.02,30.35 34.02,28.05 C 34.02,26.15 32.62,26 32.19,26 Z M 35.48,28.75 C 35.74,27.6 36.53,26.83 37.47,26.83 C 38.07,26.83 38.47,27.13 38.47,27.57 C 38.47,28.33 37.6,28.75 36.02,28.75 H 35.48 Z M 35.95,29.48 C 38.28,29.48 39.47,28.83 39.47,27.55 C 39.47,26.62 38.68,26 37.51,26 C 35.66,26 34.37,27.44 34.37,29.5 C 34.37,31.09 35.15,32 36.5,32 A 5.5,5.5 0 0,0 39.03,31.18 L 39.1,31.14 L 38.7,30.37 L 38.63,30.4 L 38.48,30.49 C 38,30.75 37.28,31.14 36.62,31.14 C 35.62,31.14 35.4,30.27 35.4,29.53 V 29.48 H 35.95 Z M 40.86,28.75 C 41.12,27.6 41.91,26.83 42.84,26.83 C 43.45,26.83 43.84,27.13 43.84,27.57 C 43.84,28.33 42.97,28.75 41.39,28.75 H 40.86 Z M 41.32,29.48 C 43.66,29.48 44.85,28.83 44.85,27.55 C 44.85,26.62 44.05,26 42.89,26 C 41.04,26 39.75,27.44 39.75,29.5 C 39.75,31.09 40.52,32 41.87,32 A 5.5,5.5 0 0,0 44.41,31.18 L 44.47,31.14 L 44.07,30.37 L 44.01,30.4 L 43.86,30.49 C 43.38,30.75 42.66,31.14 42,31.14 C 41,31.14 40.78,30.27 40.78,29.53 V 29.48 H 41.32 Z M 49.33,27.77 L 48.93,30.09 C 48.35,30.63 47.71,31.12 46.96,31.12 C 46.19,31.12 46.08,30.32 46.08,29.86 C 46.08,28.42 46.74,26.93 47.84,26.93 C 48.34,26.93 48.82,27.2 49.34,27.77 Z M 50.33,24 A 0.4,0.4 0 0,0 49.93,24.34 L 49.49,26.88 A 2.73,2.73 0 0,0 47.69,26.05 C 46.12,26.05 45.03,27.65 45.03,29.95 C 45.03,30.95 45.48,32 46.73,32 C 47.57,32 48.31,31.51 48.74,31.14 L 48.62,32 H 49.29 C 49.49,32 49.65,31.74 49.69,31.55 L 51,24 H 50.32 Z M 23.82,26.2 H 22.36 L 22.48,25.5 C 22.56,25.1 22.72,24.93 23.03,24.93 A 4,4 0 0,1 23.87,25.11 L 23.93,25.12 L 24.33,24.37 L 24.25,24.34 A 4.45,4.45 0 0,0 22.87,24 C 22.07,24 21.65,24.44 21.47,25.47 L 21.35,26.2 H 20.61 L 20.47,27 H 21.21 L 20.56,30.82 L 20.36,32 H 21.03 A 0.4,0.4 0 0,0 21.43,31.66 L 21.57,30.84 L 22.22,27 H 23.68 L 23.82,26.2 Z M 48.06,23.68 L 37.86,19.06 C 37.78,19.02 37.69,19.11 37.73,19.2 L 39.21,22.18 C 39.24,22.23 39.19,22.3 39.13,22.3 L 25.37,22.77 C 25.33,22.77 25.33,22.84 25.37,22.84 L 41.44,23.6 C 41.48,23.6 41.51,23.57 41.49,23.53 L 40.71,21.81 C 40.68,21.75 40.74,21.68 40.81,21.71 L 48.03,23.77 C 48.09,23.78 48.12,23.7 48.06,23.67 Z M 41.83,20.48 L 44.7,21.78 C 44.75,21.79 44.79,21.73 44.74,21.7 L 41.12,19 C 41.09,18.98 41.04,19.02 41.06,19.06 L 41.7,20.36 C 41.73,20.41 41.78,20.46 41.83,20.48 Z M 46.68,24.62 A 0.13,0.13 0 0,1 46.61,24.63 L 36.91,24.12 L 33.24,23.92 C 33.2,23.92 33.21,23.99 33.25,23.99 L 37.45,24.49 L 37.43,24.48 H 37.45 L 46.86,25.38 A 0.1,0.1 0 0,0 46.95,25.34 L 48.08,24 C 48.11,23.96 48.08,23.92 48.03,23.94 L 46.68,24.62 Z" fill="rgb(74, 42, 107)"/>
</svg>
