<?xml version="1.0" encoding="UTF-8"?>
<!-- generated by Finnhub -->
<svg viewBox="0 0 55.5 55.5" xmlns="http://www.w3.org/2000/svg">
<path d="M 0,0 H 55.5 V 55.5 H 0 Z" fill="rgb(239, 242, 248)"/>
<path d="M 17.24,34.685 L 15,32.14 C 16,30.82 18.2,27.76 19,26.08 C 19.5,25.04 19.63,24.22 19.75,23.41 C 19.88,22.59 20,21.77 20.5,20.73 A 8.34,8.34 0 0,1 23.5,17.47 V 18.4 H 24.5 L 24.75,19.33 L 28.5,17.93 L 28.75,18.86 L 32.75,17 L 33.25,18.4 L 41,17.93 C 40,20.35 41.92,23.44 43,24.69 H 42 L 42.75,28.65 L 41,29.11 L 41.5,31.91 A 4.73,4.73 0 0,0 39,34.47 L 40.25,36.33 L 35.5,37.73 L 35.25,40.06 L 30,37.35 V 38.91 L 27,37.26 C 25.83,38.58 23,41.18 21,40.99 C 19,40.8 18,38.43 17.75,37.26 H 19.25 L 19,34.93 L 17.25,34.7 Z M 20,26.32 L 20.5,24.22 C 20.3,21.98 22.08,19.56 23,18.63 L 23.75,19.1 L 24.75,20.26 L 27.75,19.1 L 28.5,19.8 L 31,18.86 V 19.8 H 34 L 33.75,21.2 C 34.83,20.5 37.4,19.66 39,21.9 C 40.6,24.13 38.33,25.93 37,26.55 H 40 L 40.75,27.95 L 39.5,28.18 L 39.56,30.57 H 35.06 L 35.5,32.61 L 30.25,29.34 L 32,29.58 L 29.5,26.32 L 28.75,27.02 L 25.25,24.45 L 23.75,26.55 L 21.75,24.69 L 20,26.32 Z M 18.75,32.37 C 18.15,31.81 16.83,31.67 16.25,31.67 L 16.75,30.97 C 18.55,31.35 19,31.75 19,31.91 L 20,31.35 L 19.5,33.07 L 18.75,32.37 Z M 22.5,31.91 C 22.75,32.14 23.4,32.61 24,32.61 C 24.41,32.61 24.6,32.46 24.77,32.34 C 24.9,32.24 25.03,32.14 25.25,32.14 C 25.44,32.14 25.7,32.24 25.99,32.35 C 26.47,32.53 27.03,32.75 27.5,32.61 C 27.77,32.52 27.91,32.44 28.05,32.35 C 28.3,32.2 28.55,32.05 29.5,31.91 C 30.7,31.72 28.83,30.59 27.75,30.04 C 28.08,30.48 28.6,31.35 28,31.35 C 27.62,31.35 27.5,31.43 27.37,31.51 C 27.25,31.59 27.12,31.67 26.75,31.67 C 26.42,31.67 26.23,31.59 26.05,31.51 C 25.81,31.41 25.55,31.31 25,31.35 C 24.6,31.39 24.44,31.48 24.27,31.58 C 24.01,31.74 23.71,31.91 22.5,31.91 Z M 20,37.73 L 19.5,35.17 C 21.9,33.49 25,33.69 26.25,34 C 24.83,35.4 21.85,38.29 21.25,38.66 C 20.65,39.03 20.17,38.2 20,37.73 Z M 18.75,38.2 C 19,38.97 19.85,40.43 21.25,40.06 C 22.65,39.69 25.75,36.8 27,35.4 V 34.47 C 25.92,35.94 22.95,38.94 20.75,39.13 C 20.42,39.13 19.7,38.89 19.5,37.96 L 18.75,38.2 Z M 22.5,26.55 C 21.7,26.36 21.33,28.34 21.25,29.35 C 21.42,28.95 21.95,28.18 22.75,28.18 S 23.75,29.11 23.75,29.58 C 25.15,28.16 25.83,28.36 26,28.65 C 25.4,28.65 24.92,29.58 24.75,30.05 L 27.75,29.35 V 27.95 H 26.25 C 26.67,27.64 27.35,26.92 26.75,26.55 C 26.35,26.31 26.1,26.45 25.88,26.56 C 25.68,26.68 25.49,26.77 25.25,26.55 C 24.85,26.18 24.25,27.17 24,27.71 A 2.5,2.5 0 0,0 22.5,26.55 Z M 34.16,24.29 C 34.73,23.89 35.96,23.29 36.36,24.05 C 36.75,24.81 35.54,25.32 34.89,25.48 L 35.13,26.19 C 36.52,26.11 39,25.33 37.83,22.86 C 36.65,20.38 34.89,22.14 34.16,23.33 V 24.29 Z" fill="rgb(98, 78, 46)" fill-rule="evenodd"/>
<path d="M 14.200000000000001,16.165 C 4.64,23.26 13.51,37.23 19.85,43 C 9.22,31.69 12.43,21.44 16.15,17.98 C 28,9.9 46.64,23.6 52,30.68 C 45.82,20.52 27.03,6.68 14.21,16.18 Z" fill="rgb(1, 82, 49)"/>
<circle cx="11.5" cy="25.5" r="3.5" fill="url(#a)"/>
<defs>
<linearGradient id="a" x1="10.5" x2="12.75" y1="22.5" y2="28.5" gradientUnits="userSpaceOnUse">
<stop stop-color="rgb(242, 240, 236)" offset="0"/>
<stop stop-color="rgb(95, 75, 42)" offset="1"/>
</linearGradient>
</defs>
</svg>
