<?xml version="1.0" encoding="UTF-8"?>
<!-- generated by Finnhub -->
<svg viewBox="0 0 55.5 55.5" xmlns="http://www.w3.org/2000/svg">
<path d="M 0,0 H 55.5 V 55.5 H 0 Z" fill="url(#a)"/>
<path d="M 20.79,19.245 L 13.99,31.63 L 9,23 H 12.55 L 13.92,25.37 L 20.72,13 L 25.96,22.07 L 24.2,25.17 L 20.8,19.27 Z" fill="rgb(254, 254, 253)"/>
<path d="M 38.49,25.215 L 40.29,22.09 L 35.29,13 L 20.96,37.82 L 17.88,32.39 L 17.72,32.13 L 17.32,32.29 L 15.81,34.96 L 20.94,44 L 35.22,19.26 L 38.5,25.23 Z" fill="rgb(254, 254, 253)"/>
<path d="M 43.46,22.985 L 35.05,37.82 L 31.98,32.5 L 31.81,32.22 L 31.41,32.41 L 29.91,35.06 L 35.07,44 L 47,23 H 43.47 Z" fill="rgb(254, 254, 253)"/>
<defs>
<linearGradient id="a" x1="49.5" x2="4" y1="13" y2="43.5" gradientUnits="userSpaceOnUse">
<stop stop-color="rgb(170, 80, 141)" offset="0"/>
<stop stop-color="rgb(115, 108, 151)" offset=".51"/>
<stop stop-color="rgb(126, 154, 188)" offset="1"/>
</linearGradient>
</defs>
</svg>
