<?xml version="1.0" encoding="UTF-8"?>
<!-- generated by Finnhub -->
<svg viewBox="0 0 55.5 55.5" xmlns="http://www.w3.org/2000/svg">
<path d="M 0,0 H 55.5 V 55.5 H 0 Z" fill="rgb(239, 242, 248)"/>
<path d="M 20.387999999999998,14.985 H 35.58 A 2.5,2.5 0 0,1 35.58,20 H 20.53 C 19.8,20.047 18.594,20.359 17.622,21.079 C 16.734,21.737 16.002,22.746 16.001,24.502 C 15.999,26.278 16.734,27.318 17.614,27.982 C 18.6,28.727 19.798,29.004 20.443,29 H 35.581 A 2.5,2.5 0 0,1 35.581,34 H 20.466 C 18.787,34.01 16.509,33.415 14.599,31.972 C 12.579,30.447 10.996,27.979 10.999,24.498 C 11.002,20.997 12.619,18.561 14.644,17.061 C 16.562,15.641 18.798,15.078 20.336,15.003 L 20.396,15 Z" fill="url(#b)"/>
<path d="M 35.767,21.985 H 20.537 A 2.5,2.5 0 0,0 20.537,27 H 35.656 C 36.324,27.042 37.477,27.363 38.424,28.102 C 39.297,28.784 40.001,29.812 40,31.499 C 40,33.211 39.292,34.269 38.428,34.956 C 37.469,35.719 36.329,36.004 35.737,36 H 20.537 A 2.5,2.5 0 0,0 20.537,41 H 35.714 C 37.454,41.009 39.698,40.335 41.542,38.868 C 43.484,37.322 44.999,34.873 45,31.501 C 45.001,28.105 43.45,25.683 41.501,24.161 C 39.648,22.714 37.443,22.074 35.833,22.002 L 35.777,22 Z" fill="url(#a)"/>
<defs>
<linearGradient id="b" x1="11.906" x2="35.58" y1="25.263" y2="25.263" gradientUnits="userSpaceOnUse">
<stop stop-color="rgb(139, 197, 60)" offset="0"/>
<stop stop-color="rgb(71, 183, 67)" offset="1"/>
</linearGradient>
<linearGradient id="a" x1="44.276" x2="20.537" y1="31.501" y2="31.501" gradientUnits="userSpaceOnUse">
<stop stop-color="rgb(1, 174, 230)" offset="0"/>
<stop stop-color="rgb(1, 133, 152)" offset="1"/>
</linearGradient>
</defs>
</svg>
