<?xml version="1.0" encoding="UTF-8"?>
<!-- generated by Finnhub -->
<svg fill="none" viewBox="0 0 55.5 55.5" xmlns="http://www.w3.org/2000/svg">
<rect width="56" height="56" fill="rgb(239, 242, 248)"/>
<path d="M 13.681000000000001,28.942999999999998 C 9.2592,22.0968 14.0453,12.785 22.1844,13.003 C 24.864,13.0759 27.2152,14.0934 29.238,16.0557 C 29.491,16.3023 29.6629,16.5596 29.7537,16.8277 C 29.7695,16.8754 29.7616,16.9181 29.7299,16.9559 C 29.2803,17.4921 28.7841,17.9798 28.2411,18.4189 C 28.221,18.4351 28.1959,18.4434 28.1704,18.4424 C 28.145,18.4415 28.1208,18.4312 28.1023,18.4135 C 26.2003,16.6077 24.1084,15.0934 21.3224,15.443 C 17.9475,15.8564 15.3685,18.3183 14.6496,21.6794 C 14.4307,22.7058 14.4972,23.6232 14.6681,24.6445 C 15.152,27.5272 17.2952,30.0752 20.0412,30.9187 C 21.0831,31.2385 22.0694,31.109 23.098,31.0833 C 23.1633,31.0815 23.1791,31.109 23.1456,31.1657 L 21.7838,33.4667 C 21.7583,33.5099 21.7212,33.5306 21.6728,33.5288 C 17.9502,33.3519 15.8608,31.7995 13.691,28.9577 Z" fill="url(#c)"/>
<path d="M 27.862,25.985 H 18.3162 C 18.1644,25.9993 17.9982,25.7364 18.0004,25.5854 V 23.7446 C 18.0022,23.6197 18.1233,23.5567 18.2498,23.5558 L 32.1328,23.5424 C 32.2015,23.5424 32.2254,23.5747 32.2047,23.6395 C 32.1613,23.7815 32.0827,23.9451 31.9689,24.1303 C 27.9808,30.6131 23.9914,37.0953 20.0009,43.5773 C 19.9701,43.6268 19.9299,43.6362 19.8802,43.6056 L 18.0724,42.4891 C 18.0476,42.474 18.0299,42.4498 18.023,42.4217 C 18.0162,42.3937 18.0207,42.3641 18.0358,42.3394 C 19.6774,39.6576 21.3132,36.9768 22.9431,34.2968 C 23.0976,34.0433 23.1369,33.8357 23.3483,33.6037 C 23.5462,33.3852 23.7156,33.0117 23.8227,32.8391 C 25.205,30.606 26.5797,28.3638 27.9467,26.1127 C 27.9968,26.03 27.932,26.0043 27.8721,26.0001 Z" fill="url(#b)"/>
<path d="M 38.488,35.876 C 36.3403,36.5091 34.2751,35.8762 32.7956,34.2068 C 31.574,32.8275 30.938,30.8112 31.2884,28.9461 C 31.8424,26.0053 34.0385,23.8474 36.967,23.5693 C 40.509,23.2333 43.9439,26.0418 43.9994,29.7477 C 44.0246,31.4496 43.3609,33.0529 42.3494,34.4591 C 40.6016,36.8884 38.0749,40.5417 35.4055,43.9629 C 35.3729,44.0052 35.3346,44.011 35.2905,43.9804 L 33.6418,42.8603 C 33.6305,42.8526 33.6208,42.8427 33.6133,42.8311 C 33.6059,42.8194 33.6009,42.8064 33.5985,42.7926 C 33.5962,42.7789 33.5966,42.7647 33.5997,42.7511 C 33.6028,42.7374 33.6086,42.7245 33.6167,42.7132 L 38.5218,35.9261 C 38.5474,35.8901 38.5395,35.8784 38.498,35.891 Z M 41.6103,29.6101 C 41.5323,27.7409 39.8797,26.0661 38.1199,25.8825 C 36.0084,25.6639 33.8851,27.2632 33.6497,29.4724 C 33.3589,32.2121 36.0177,34.4132 38.5205,33.8248 C 40.4601,33.3687 41.6963,31.6655 41.6103,29.6101 Z" fill="url(#a)"/>
<defs>
<linearGradient id="c" x1="20.881" x2="20.881" y1="13" y2="33.53" gradientUnits="userSpaceOnUse">
<stop stop-color="rgb(232, 195, 108)" offset="0"/>
<stop stop-color="rgb(203, 154, 73)" offset="1"/>
</linearGradient>
<linearGradient id="b" x1="25.116" x2="25.116" y1="23.542" y2="43.623" gradientUnits="userSpaceOnUse">
<stop stop-color="rgb(232, 195, 108)" offset="0"/>
<stop stop-color="rgb(203, 154, 73)" offset="1"/>
</linearGradient>
<linearGradient id="a" x1="37.596" x2="37.596" y1="23.542" y2="44" gradientUnits="userSpaceOnUse">
<stop stop-color="rgb(232, 195, 108)" offset="0"/>
<stop stop-color="rgb(203, 154, 73)" offset="1"/>
</linearGradient>
</defs>
</svg>
