<?xml version="1.0" encoding="UTF-8"?>
<!-- generated by Finnhub -->
<svg viewBox="0 0 55.5 55.5" xmlns="http://www.w3.org/2000/svg">
<path d="M 0,0 H 55.5 V 55.5 H 0 Z" fill="rgb(239, 242, 248)"/>
<path d="M 30.419999999999998,42.785 A 15,15 0 0,0 40.5,19.71 C 40.26,21.1 38.8,23.21 37.38,25.26 C 36.45,26.61 35.53,27.93 35,29 C 33.5,32 31.5,38.5 31,41 A 7.74,7.74 0 0,1 30.43,42.8 Z M 26,42.87 A 15,15 0 0,1 13.2,25.55 C 13.3,25.52 13.4,25.5 13.5,25.5 C 13.67,25.5 13.89,26.33 14.19,27.44 C 14.78,29.67 15.67,33 17,33 C 18.17,33 18.83,31.28 19.37,29.86 C 19.76,28.86 20.09,28 20.5,28 C 20.91,28 21.24,28.86 21.63,29.86 C 22.17,31.28 22.83,33 24,33 C 26,33 29.5,23.5 28,23 C 27.29,22.76 26.91,24.21 26.5,25.8 C 26.05,27.57 25.55,29.5 24.5,29.5 C 23.56,29.5 23.17,28.05 22.76,26.52 C 22.3,24.82 21.82,23 20.5,23 C 19.18,23 18.84,24.81 18.51,26.52 C 18.22,28.05 17.94,29.5 17,29.5 C 16,29.5 15.62,27.87 15.25,26.25 C 14.92,24.82 14.59,23.39 13.83,23.07 A 15,15 0 0,1 38.2,17 H 25 C 24.33,17 23,17.4 23,19 S 24.33,21 25,21 H 31 C 32,21 34,21.5 34,23.5 C 34,24.57 32.54,26.91 30.87,29.6 C 28.63,33.2 26,37.42 26,40 V 42.87 Z M 28,45 A 17,17 0 1,0 28,11 A 17,17 0 0,0 28,45 Z" fill-rule="evenodd"/>
</svg>
