<?xml version="1.0" encoding="UTF-8"?>
<!-- generated by Finnhub -->
<svg viewBox="0 0 55.5 55.5" xmlns="http://www.w3.org/2000/svg">
<path d="M 0,0 H 55.5 V 55.5 H 0 Z" fill="rgb(31, 36, 123)"/>
<path d="M 42.084,24.302 A 0.437,0.437 0 0,0 41.646,24.753 C 41.646,24.994 41.846,25.189 42.094,25.189 A 0.436,0.436 0 0,0 42.542,24.753 C 42.55,24.512 42.35,24.317 42.094,24.317 Z M 42.094,22.97 A 0.437,0.437 0 1,0 42.094,23.842 A 0.436,0.436 0 0,0 42.542,23.406 C 42.55,23.165 42.35,22.97 42.094,22.97 Z M 42.094,21.654 A 0.437,0.437 0 0,0 41.646,22.09 C 41.646,22.331 41.846,22.526 42.094,22.526 A 0.436,0.436 0 1,0 42.094,21.654 Z M 42.094,28.304 A 0.437,0.437 0 1,0 42.094,29.176 A 0.436,0.436 0 0,0 42.542,28.74 C 42.55,28.49 42.35,28.304 42.094,28.304 Z M 42.094,26.956 A 0.437,0.437 0 1,0 42.094,27.829 A 0.436,0.436 0 0,0 42.542,27.393 C 42.55,27.175 42.35,26.956 42.094,26.956 Z M 42.094,25.64 A 0.437,0.437 0 0,0 41.646,26.077 C 41.646,26.318 41.846,26.513 42.094,26.513 A 0.436,0.436 0 1,0 42.094,25.641 Z M 42.094,29.62 A 0.437,0.437 0 1,0 42.094,30.492 A 0.436,0.436 0 1,0 42.094,29.62 Z M 48,22.316 A 0.437,0.437 0 0,0 47.551,22.752 C 47.551,22.993 47.751,23.188 47.999,23.188 A 0.436,0.436 0 0,0 48.447,22.752 C 48.447,22.511 48.247,22.316 47.999,22.316 Z M 48,23.632 A 0.437,0.437 0 1,0 48,24.504 A 0.436,0.436 0 0,0 48.447,24.068 C 48.447,23.826 48.247,23.632 47.999,23.632 Z M 48,28.957 A 0.437,0.437 0 1,0 48,29.83 A 0.436,0.436 0 0,0 48.447,29.394 C 48.447,29.152 48.247,28.958 47.999,28.958 Z M 48,27.619 A 0.436,0.436 0 1,0 48,28.491 A 0.436,0.436 0 0,0 48.447,28.055 C 48.447,27.837 48.247,27.619 47.999,27.619 Z M 49.183,21.654 A 0.436,0.436 0 0,0 48.735,22.09 C 48.735,22.331 48.935,22.526 49.183,22.526 A 0.441,0.441 0 0,0 49.632,22.09 A 0.436,0.436 0 0,0 49.183,21.654 Z M 49.183,24.317 A 0.436,0.436 0 0,0 48.735,24.753 C 48.735,24.994 48.935,25.189 49.183,25.189 A 0.441,0.441 0 0,0 49.632,24.753 A 0.436,0.436 0 0,0 49.183,24.317 Z M 49.183,25.64 A 0.436,0.436 0 0,0 48.735,26.077 C 48.735,26.318 48.935,26.513 49.183,26.513 A 0.441,0.441 0 0,0 49.632,26.077 A 0.432,0.432 0 0,0 49.183,25.641 Z M 49.183,22.97 A 0.436,0.436 0 1,0 49.183,23.842 A 0.441,0.441 0 0,0 49.632,23.406 A 0.436,0.436 0 0,0 49.183,22.97 Z M 46.807,22.97 A 0.436,0.436 0 1,0 46.807,23.842 A 0.437,0.437 0 0,0 47.255,23.406 C 47.263,23.165 47.063,22.97 46.807,22.97 Z M 48,21.164 A 0.28,0.28 0 0,0 47.72,21.436 C 47.72,21.6 47.863,21.709 48,21.709 A 0.28,0.28 0 0,0 48.28,21.436 C 48.28,21.273 48.167,21.164 48,21.164 Z M 46.807,24.488 A 0.28,0.28 0 0,0 46.527,24.761 C 46.527,24.924 46.671,25.033 46.807,25.033 A 0.28,0.28 0 0,0 47.087,24.761 C 47.095,24.597 46.983,24.488 46.807,24.488 Z M 46.807,27.12 A 0.28,0.28 0 0,0 46.527,27.393 C 46.527,27.556 46.671,27.665 46.807,27.665 A 0.28,0.28 0 0,0 47.087,27.393 A 0.274,0.274 0 0,0 46.807,27.12 Z M 48,30.445 A 0.28,0.28 0 0,0 47.72,30.717 C 47.72,30.881 47.863,30.99 48,30.99 A 0.28,0.28 0 0,0 48.28,30.717 A 0.28,0.28 0 0,0 48,30.445 Z M 46.807,21.654 A 0.436,0.436 0 0,0 46.359,22.09 C 46.359,22.331 46.559,22.526 46.807,22.526 A 0.437,0.437 0 1,0 46.807,21.654 Z M 46.807,28.304 A 0.436,0.436 0 1,0 46.807,29.176 A 0.437,0.437 0 0,0 47.255,28.74 C 47.263,28.49 47.063,28.304 46.807,28.304 Z M 46.807,30.53 A 0.437,0.437 0 1,0 46.807,29.659 A 0.436,0.436 0 0,0 46.359,30.095 C 46.359,30.336 46.559,30.531 46.807,30.531 Z M 45.623,31.021 A 0.28,0.28 0 0,0 45.903,30.749 C 45.903,30.616 45.759,30.476 45.623,30.476 A 0.28,0.28 0 0,0 45.343,30.749 C 45.343,30.881 45.487,31.021 45.623,31.021 Z M 51.552,23.141 A 0.28,0.28 0 0,0 51.272,23.414 C 51.272,23.577 51.416,23.686 51.552,23.686 A 0.28,0.28 0 0,0 51.832,23.414 C 51.832,23.274 51.696,23.141 51.552,23.141 Z M 50.368,29.674 A 0.28,0.28 0 0,0 50.648,29.401 C 50.648,29.238 50.504,29.129 50.368,29.129 A 0.28,0.28 0 0,0 50.088,29.401 C 50.088,29.565 50.2,29.674 50.368,29.674 Z M 49.184,30.336 A 0.28,0.28 0 0,0 49.464,30.064 C 49.464,29.9 49.32,29.791 49.184,29.791 A 0.28,0.28 0 0,0 48.904,30.064 C 48.896,30.227 49.016,30.336 49.184,30.336 Z M 51.552,25.197 A 0.436,0.436 0 0,0 52,24.76 C 52,24.518 51.8,24.324 51.552,24.324 A 0.436,0.436 0 0,0 51.104,24.76 C 51.072,25.009 51.296,25.196 51.552,25.196 Z M 51.552,26.956 A 0.436,0.436 0 1,0 51.552,27.829 A 0.436,0.436 0 0,0 52,27.393 A 0.452,0.452 0 0,0 51.552,26.956 Z M 51.552,25.64 A 0.436,0.436 0 0,0 51.104,26.077 C 51.104,26.318 51.304,26.513 51.552,26.513 A 0.436,0.436 0 1,0 51.552,25.641 Z M 50.368,27.619 A 0.436,0.436 0 1,0 50.368,28.491 A 0.436,0.436 0 0,0 50.816,28.055 A 0.451,0.451 0 0,0 50.368,27.619 Z M 50.368,26.295 A 0.436,0.436 0 0,0 49.92,26.731 C 49.92,26.972 50.12,27.167 50.368,27.167 A 0.436,0.436 0 1,0 50.368,26.295 Z M 49.183,28.304 A 0.436,0.436 0 1,0 49.183,29.176 A 0.441,0.441 0 0,0 49.632,28.74 A 0.432,0.432 0 0,0 49.183,28.304 Z M 50.368,22.316 A 0.436,0.436 0 0,0 49.92,22.752 C 49.92,22.993 50.12,23.188 50.368,23.188 A 0.436,0.436 0 1,0 50.368,22.316 Z M 50.368,24.979 A 0.436,0.436 0 0,0 49.92,25.415 C 49.92,25.656 50.12,25.851 50.368,25.851 A 0.436,0.436 0 1,0 50.368,24.979 Z M 49.183,26.956 A 0.436,0.436 0 1,0 49.183,27.829 A 0.441,0.441 0 0,0 49.632,27.393 A 0.452,0.452 0 0,0 49.183,26.956 Z M 50.368,23.632 A 0.436,0.436 0 1,0 50.368,24.504 A 0.436,0.436 0 1,0 50.368,23.632 Z M 43.287,27.619 A 0.436,0.436 0 1,0 43.287,28.491 A 0.436,0.436 0 0,0 43.735,28.055 C 43.735,27.837 43.535,27.619 43.287,27.619 Z M 42.094,30.936 A 0.437,0.437 0 0,0 41.646,31.372 C 41.646,31.613 41.846,31.808 42.094,31.808 A 0.436,0.436 0 0,0 42.542,31.372 C 42.55,31.162 42.35,30.936 42.094,30.936 Z M 43.287,28.957 A 0.436,0.436 0 1,0 43.287,29.83 A 0.437,0.437 0 0,0 43.735,29.394 C 43.735,29.152 43.535,28.958 43.287,28.958 Z M 45.623,28.957 A 0.437,0.437 0 1,0 45.623,29.83 A 0.442,0.442 0 0,0 46.071,29.394 C 46.103,29.152 45.879,28.958 45.623,28.958 Z M 43.287,32.944 A 0.436,0.436 0 0,0 42.839,33.38 C 42.839,33.622 43.039,33.816 43.287,33.816 A 0.436,0.436 0 0,0 43.735,33.38 C 43.735,33.139 43.535,32.944 43.287,32.944 Z M 43.287,30.281 A 0.436,0.436 0 1,0 43.287,31.153 A 0.436,0.436 0 1,0 43.287,30.281 Z M 43.287,24.979 A 0.436,0.436 0 0,0 42.839,25.415 C 42.839,25.656 43.039,25.851 43.287,25.851 A 0.437,0.437 0 0,0 43.735,25.415 C 43.735,25.174 43.535,24.979 43.287,24.979 Z M 43.287,31.628 A 0.436,0.436 0 0,0 42.839,32.065 C 42.839,32.305 43.039,32.501 43.287,32.501 A 0.437,0.437 0 0,0 43.735,32.065 C 43.735,31.823 43.535,31.628 43.287,31.628 Z M 43.287,22.316 A 0.436,0.436 0 0,0 42.839,22.752 C 42.839,22.993 43.039,23.188 43.287,23.188 A 0.437,0.437 0 0,0 43.735,22.752 C 43.735,22.511 43.535,22.316 43.287,22.316 Z M 43.287,35 A 0.28,0.28 0 0,0 43.567,34.728 C 43.567,34.564 43.423,34.455 43.287,34.455 A 0.28,0.28 0 0,0 43.007,34.728 C 42.975,34.868 43.111,35 43.287,35 Z M 42.094,34.51 A 0.436,0.436 0 0,0 42.542,34.073 C 42.542,33.832 42.342,33.637 42.094,33.637 A 0.436,0.436 0 0,0 41.646,34.073 C 41.614,34.291 41.846,34.509 42.094,34.509 Z M 42.094,32.283 A 0.437,0.437 0 0,0 41.646,32.719 C 41.646,32.96 41.846,33.155 42.094,33.155 A 0.436,0.436 0 1,0 42.094,32.283 Z M 43.287,23.632 A 0.436,0.436 0 1,0 43.287,24.504 A 0.436,0.436 0 0,0 43.735,24.068 C 43.735,23.826 43.535,23.632 43.287,23.632 Z M 43.287,21 A 0.436,0.436 0 0,0 42.839,21.436 C 42.839,21.677 43.039,21.872 43.287,21.872 A 0.437,0.437 0 0,0 43.735,21.436 C 43.735,21.195 43.535,21 43.287,21 Z M 44.439,21.654 A 0.436,0.436 0 0,0 43.991,22.09 C 43.991,22.331 44.191,22.526 44.439,22.526 A 0.436,0.436 0 0,0 44.887,22.09 C 44.919,21.849 44.695,21.654 44.439,21.654 Z M 43.287,26.295 A 0.436,0.436 0 0,0 42.839,26.731 C 42.839,26.972 43.039,27.167 43.287,27.167 A 0.437,0.437 0 0,0 43.735,26.731 C 43.735,26.49 43.535,26.295 43.287,26.295 Z M 45.623,21 A 0.437,0.437 0 0,0 45.175,21.436 C 45.175,21.677 45.375,21.872 45.623,21.872 A 0.442,0.442 0 0,0 46.071,21.436 A 0.437,0.437 0 0,0 45.623,21 Z M 45.623,22.316 A 0.437,0.437 0 0,0 45.175,22.752 C 45.175,22.993 45.375,23.188 45.623,23.188 A 0.442,0.442 0 0,0 46.071,22.752 C 46.103,22.511 45.879,22.316 45.623,22.316 Z M 44.439,34.51 A 0.436,0.436 0 0,0 44.887,34.073 C 44.887,33.832 44.687,33.637 44.439,33.637 A 0.441,0.441 0 0,0 43.991,34.073 C 43.991,34.291 44.183,34.509 44.439,34.509 Z M 45.623,27.619 A 0.436,0.436 0 1,0 45.623,28.491 A 0.441,0.441 0 0,0 46.071,28.055 C 46.103,27.837 45.879,27.619 45.623,27.619 Z M 44.439,32.283 A 0.436,0.436 0 0,0 43.991,32.719 C 43.991,32.96 44.191,33.155 44.439,33.155 A 0.436,0.436 0 0,0 44.887,32.719 C 44.919,32.477 44.695,32.283 44.439,32.283 Z M 45.623,23.632 A 0.437,0.437 0 1,0 45.623,24.504 A 0.441,0.441 0 0,0 46.071,24.068 C 46.079,23.826 45.879,23.632 45.623,23.632 Z M 44.439,28.304 A 0.436,0.436 0 1,0 44.439,29.176 A 0.436,0.436 0 0,0 44.887,28.74 C 44.919,28.49 44.695,28.304 44.439,28.304 Z M 44.439,26.956 A 0.436,0.436 0 1,0 44.439,27.829 A 0.436,0.436 0 0,0 44.887,27.393 C 44.919,27.175 44.695,26.956 44.439,26.956 Z M 44.439,25.64 A 0.436,0.436 0 0,0 43.991,26.077 C 43.991,26.318 44.191,26.513 44.439,26.513 A 0.436,0.436 0 0,0 44.887,26.077 C 44.919,25.827 44.695,25.641 44.439,25.641 Z M 44.439,24.317 A 0.436,0.436 0 0,0 43.991,24.753 C 43.991,24.994 44.191,25.189 44.439,25.189 A 0.436,0.436 0 0,0 44.887,24.753 C 44.919,24.512 44.695,24.317 44.439,24.317 Z M 44.439,22.97 A 0.436,0.436 0 1,0 44.439,23.842 A 0.436,0.436 0 0,0 44.887,23.406 C 44.895,23.165 44.695,22.97 44.439,22.97 Z M 44.439,29.62 A 0.436,0.436 0 1,0 44.439,30.492 A 0.436,0.436 0 1,0 44.439,29.62 Z M 44.439,30.936 A 0.436,0.436 0 0,0 43.991,31.372 C 43.991,31.613 44.191,31.808 44.439,31.808 A 0.436,0.436 0 0,0 44.887,31.372 C 44.919,31.162 44.695,30.936 44.439,30.936 Z M 35.661,27.619 A 0.436,0.436 0 1,0 35.661,28.491 A 0.436,0.436 0 0,0 36.109,28.055 C 36.117,27.837 35.917,27.619 35.661,27.619 Z M 35.661,24.979 A 0.437,0.437 0 0,0 35.213,25.415 C 35.213,25.656 35.413,25.851 35.661,25.851 A 0.436,0.436 0 1,0 35.661,24.979 Z M 35.661,26.295 A 0.437,0.437 0 0,0 35.213,26.731 C 35.213,26.972 35.413,27.167 35.661,27.167 A 0.436,0.436 0 1,0 35.661,26.295 Z M 36.845,22.97 A 0.437,0.437 0 1,0 36.845,23.842 A 0.436,0.436 0 0,0 37.294,23.406 C 37.302,23.165 37.102,22.97 36.845,22.97 Z M 36.846,21.817 A 0.28,0.28 0 0,0 36.566,22.09 C 36.566,22.253 36.709,22.362 36.846,22.362 A 0.28,0.28 0 0,0 37.126,22.09 C 37.126,21.957 36.99,21.817 36.846,21.817 Z M 35.661,29.837 A 0.436,0.436 0 1,0 35.661,28.965 A 0.437,0.437 0 1,0 35.661,29.837 Z M 35.661,23.632 A 0.437,0.437 0 1,0 35.661,24.504 A 0.436,0.436 0 0,0 36.109,24.068 C 36.117,23.826 35.917,23.632 35.661,23.632 Z M 34.477,28.304 A 0.436,0.436 0 1,0 34.477,29.176 A 0.436,0.436 0 1,0 34.477,28.304 Z M 34.477,27.696 A 0.28,0.28 0 0,0 34.757,27.424 C 34.757,27.26 34.613,27.151 34.477,27.151 A 0.28,0.28 0 0,0 34.197,27.424 C 34.197,27.564 34.309,27.696 34.477,27.696 Z M 32.109,27.696 A 0.28,0.28 0 0,0 32.389,27.424 C 32.389,27.26 32.245,27.151 32.109,27.151 A 0.28,0.28 0 0,0 31.829,27.424 C 31.821,27.564 31.965,27.696 32.109,27.696 Z M 33.293,31.021 A 0.28,0.28 0 0,0 33.573,30.749 C 33.573,30.616 33.429,30.476 33.293,30.476 A 0.28,0.28 0 0,0 33.013,30.749 C 33.013,30.881 33.149,31.021 33.293,31.021 Z M 34.477,24.488 A 0.28,0.28 0 0,0 34.197,24.761 C 34.197,24.924 34.341,25.033 34.477,25.033 A 0.28,0.28 0 0,0 34.757,24.761 C 34.757,24.597 34.645,24.488 34.477,24.488 Z M 32.109,24.488 A 0.28,0.28 0 0,0 31.829,24.761 C 31.829,24.924 31.973,25.033 32.109,25.033 A 0.28,0.28 0 0,0 32.389,24.761 C 32.389,24.597 32.277,24.488 32.109,24.488 Z M 35.661,22.316 A 0.437,0.437 0 0,0 35.213,22.752 C 35.213,22.993 35.413,23.188 35.661,23.188 A 0.436,0.436 0 1,0 35.661,22.316 Z M 35.661,21.164 A 0.28,0.28 0 0,0 35.381,21.436 C 35.381,21.6 35.525,21.709 35.661,21.709 A 0.28,0.28 0 0,0 35.941,21.436 A 0.275,0.275 0 0,0 35.661,21.164 Z M 34.477,30.53 A 0.436,0.436 0 1,0 34.477,29.659 A 0.436,0.436 0 1,0 34.477,30.531 Z M 36.845,25.64 A 0.437,0.437 0 0,0 36.397,26.077 C 36.397,26.318 36.597,26.513 36.845,26.513 A 0.436,0.436 0 1,0 36.845,25.641 Z M 38.03,26.295 A 0.437,0.437 0 0,0 37.581,26.731 C 37.581,26.972 37.781,27.167 38.03,27.167 A 0.441,0.441 0 0,0 38.478,26.731 A 0.436,0.436 0 0,0 38.03,26.295 Z M 29.732,26.956 A 0.436,0.436 0 1,0 29.732,27.829 A 0.441,0.441 0 0,0 30.18,27.393 C 30.212,27.175 29.988,26.956 29.732,26.956 Z M 36.845,29.184 A 0.436,0.436 0 1,0 36.845,28.311 A 0.436,0.436 0 0,0 36.397,28.748 C 36.365,28.988 36.597,29.184 36.845,29.184 Z M 38.03,24.979 A 0.437,0.437 0 0,0 37.581,25.415 C 37.581,25.656 37.781,25.851 38.03,25.851 A 0.441,0.441 0 0,0 38.478,25.415 A 0.436,0.436 0 0,0 38.03,24.979 Z M 34.477,22.97 A 0.436,0.436 0 1,0 34.477,23.842 A 0.436,0.436 0 1,0 34.477,22.97 Z M 36.845,26.956 A 0.437,0.437 0 1,0 36.845,27.829 A 0.436,0.436 0 0,0 37.294,27.393 C 37.302,27.175 37.102,26.956 36.845,26.956 Z M 38.03,28.358 A 0.28,0.28 0 0,0 38.31,28.085 C 38.31,27.922 38.166,27.813 38.03,27.813 C 37.894,27.813 37.75,27.953 37.75,28.086 A 0.28,0.28 0 0,0 38.03,28.358 Z M 38.03,23.632 A 0.437,0.437 0 1,0 38.03,24.504 A 0.441,0.441 0 0,0 38.478,24.068 C 38.486,23.826 38.286,23.632 38.03,23.632 Z M 30.924,30.281 A 0.437,0.437 0 1,0 30.924,31.153 A 0.436,0.436 0 0,0 31.372,30.717 C 31.404,30.468 31.172,30.281 30.924,30.281 Z M 30.924,24.979 A 0.437,0.437 0 0,0 30.476,25.415 C 30.476,25.656 30.676,25.851 30.924,25.851 A 0.437,0.437 0 0,0 31.372,25.415 C 31.404,25.174 31.172,24.979 30.924,24.979 Z M 34.477,21.654 A 0.436,0.436 0 0,0 34.029,22.09 C 34.029,22.331 34.229,22.526 34.477,22.526 A 0.436,0.436 0 1,0 34.477,21.654 Z M 30.924,22.316 A 0.437,0.437 0 0,0 30.476,22.752 C 30.476,22.993 30.676,23.188 30.924,23.188 A 0.437,0.437 0 0,0 31.372,22.752 C 31.404,22.511 31.172,22.316 30.924,22.316 Z M 30.924,21 A 0.437,0.437 0 0,0 30.476,21.436 C 30.476,21.677 30.676,21.872 30.924,21.872 A 0.437,0.437 0 0,0 31.372,21.436 C 31.372,21.195 31.172,21 30.924,21 Z M 30.924,28.957 A 0.437,0.437 0 1,0 30.924,29.83 A 0.437,0.437 0 0,0 31.372,29.394 C 31.404,29.152 31.172,28.958 30.924,28.958 Z M 30.924,27.619 A 0.436,0.436 0 1,0 30.924,28.491 A 0.436,0.436 0 0,0 31.372,28.055 C 31.404,27.837 31.172,27.619 30.924,27.619 Z M 30.924,26.295 A 0.437,0.437 0 0,0 30.476,26.731 C 30.476,26.972 30.676,27.167 30.924,27.167 A 0.437,0.437 0 0,0 31.372,26.731 C 31.404,26.49 31.172,26.295 30.924,26.295 Z M 29.732,29.62 A 0.436,0.436 0 1,0 29.732,30.492 A 0.441,0.441 0 0,0 30.18,30.056 A 0.436,0.436 0 0,0 29.732,29.62 Z M 29.732,30.936 A 0.436,0.436 0 0,0 29.284,31.372 C 29.284,31.613 29.484,31.808 29.732,31.808 A 0.441,0.441 0 0,0 30.18,31.372 C 30.212,31.162 29.988,30.936 29.732,30.936 Z M 30.924,35 A 0.28,0.28 0 0,0 31.204,34.728 C 31.204,34.564 31.061,34.455 30.924,34.455 A 0.28,0.28 0 0,0 30.644,34.728 C 30.644,34.86 30.78,35 30.924,35 Z M 29.732,28.304 A 0.436,0.436 0 1,0 29.732,29.176 A 0.441,0.441 0 0,0 30.18,28.74 C 30.212,28.49 29.988,28.304 29.732,28.304 Z M 29.732,32.283 A 0.436,0.436 0 0,0 29.284,32.719 C 29.284,32.96 29.484,33.155 29.732,33.155 A 0.441,0.441 0 0,0 30.18,32.719 C 30.212,32.477 29.988,32.283 29.732,32.283 Z M 29.732,34.51 A 0.436,0.436 0 0,0 30.18,34.073 C 30.18,33.832 29.98,33.637 29.732,33.637 A 0.441,0.441 0 0,0 29.284,34.073 C 29.284,34.291 29.484,34.509 29.732,34.509 Z M 30.924,23.632 A 0.437,0.437 0 1,0 30.924,24.504 A 0.436,0.436 0 0,0 31.372,24.068 C 31.372,23.826 31.172,23.632 30.924,23.632 Z M 33.293,22.316 A 0.437,0.437 0 0,0 32.845,22.752 C 32.845,22.993 33.045,23.188 33.293,23.188 A 0.437,0.437 0 1,0 33.293,22.316 Z M 33.293,23.632 A 0.437,0.437 0 1,0 33.293,24.504 A 0.436,0.436 0 1,0 33.293,23.632 Z M 33.293,21 A 0.437,0.437 0 0,0 32.845,21.436 C 32.845,21.677 33.045,21.872 33.293,21.872 A 0.437,0.437 0 1,0 33.293,21 Z M 32.109,30.53 A 0.437,0.437 0 1,0 32.109,29.659 A 0.437,0.437 0 1,0 32.109,30.531 Z M 30.924,31.628 A 0.437,0.437 0 0,0 30.476,32.065 C 30.476,32.305 30.676,32.501 30.924,32.501 A 0.437,0.437 0 0,0 31.372,32.065 C 31.404,31.815 31.172,31.628 30.924,31.628 Z M 33.293,27.619 A 0.436,0.436 0 1,0 33.293,28.491 A 0.436,0.436 0 0,0 33.741,28.055 A 0.452,0.452 0 0,0 33.293,27.619 Z M 33.293,29.837 A 0.436,0.436 0 1,0 33.293,28.965 A 0.436,0.436 0 0,0 32.845,29.401 C 32.837,29.651 33.037,29.837 33.293,29.837 Z M 32.109,22.97 A 0.437,0.437 0 1,0 32.109,23.842 A 0.437,0.437 0 0,0 32.557,23.406 C 32.557,23.165 32.357,22.97 32.109,22.97 Z M 32.109,21.654 A 0.437,0.437 0 0,0 31.66,22.09 C 31.66,22.331 31.86,22.526 32.109,22.526 A 0.437,0.437 0 0,0 32.557,22.09 C 32.589,21.849 32.357,21.654 32.109,21.654 Z M 30.924,32.944 A 0.437,0.437 0 0,0 30.476,33.38 C 30.476,33.622 30.676,33.816 30.924,33.816 A 0.436,0.436 0 0,0 31.372,33.38 C 31.404,33.139 31.172,32.944 30.924,32.944 Z M 32.109,28.304 A 0.437,0.437 0 1,0 32.109,29.176 A 0.437,0.437 0 0,0 32.557,28.74 C 32.589,28.49 32.357,28.304 32.109,28.304 Z M 36.845,24.317 A 0.437,0.437 0 0,0 36.397,24.753 C 36.397,24.994 36.597,25.189 36.845,25.189 A 0.436,0.436 0 0,0 37.294,24.753 C 37.302,24.512 37.102,24.317 36.845,24.317 Z M 28.58,35 A 0.28,0.28 0 0,0 28.86,34.728 C 28.86,34.564 28.716,34.455 28.58,34.455 A 0.28,0.28 0 0,0 28.3,34.728 C 28.268,34.868 28.412,35 28.58,35 Z M 28.58,30.281 A 0.436,0.436 0 1,0 28.58,31.153 A 0.436,0.436 0 1,0 28.58,30.281 Z M 28.58,32.944 A 0.436,0.436 0 0,0 28.132,33.38 C 28.132,33.622 28.332,33.816 28.58,33.816 A 0.436,0.436 0 1,0 28.58,32.944 Z M 28.58,31.628 A 0.436,0.436 0 0,0 28.132,32.065 C 28.132,32.305 28.332,32.501 28.58,32.501 A 0.436,0.436 0 1,0 28.58,31.628 Z M 29.732,21.654 A 0.436,0.436 0 0,0 29.284,22.09 C 29.284,22.331 29.484,22.526 29.732,22.526 A 0.441,0.441 0 0,0 30.18,22.09 C 30.212,21.849 29.988,21.654 29.732,21.654 Z M 29.732,22.97 A 0.436,0.436 0 1,0 29.732,23.842 A 0.441,0.441 0 0,0 30.18,23.406 C 30.188,23.165 29.988,22.97 29.732,22.97 Z M 29.732,24.317 A 0.436,0.436 0 0,0 29.284,24.753 C 29.284,24.994 29.484,25.189 29.732,25.189 A 0.441,0.441 0 0,0 30.18,24.753 C 30.212,24.512 29.988,24.317 29.732,24.317 Z M 28.58,26.295 A 0.436,0.436 0 0,0 28.132,26.731 C 28.132,26.972 28.332,27.167 28.58,27.167 A 0.436,0.436 0 1,0 28.58,26.295 Z M 28.58,28.957 A 0.436,0.436 0 1,0 28.58,29.83 A 0.436,0.436 0 1,0 28.58,28.958 Z M 28.58,24.979 A 0.436,0.436 0 0,0 28.132,25.415 C 28.132,25.656 28.332,25.851 28.58,25.851 A 0.436,0.436 0 1,0 28.58,24.979 Z M 28.58,22.316 A 0.436,0.436 0 0,0 28.132,22.752 C 28.132,22.993 28.332,23.188 28.58,23.188 A 0.436,0.436 0 1,0 28.58,22.316 Z M 28.58,23.632 A 0.436,0.436 0 1,0 28.58,24.504 A 0.436,0.436 0 1,0 28.58,23.632 Z M 28.58,21 A 0.436,0.436 0 0,0 28.132,21.436 C 28.132,21.677 28.332,21.872 28.58,21.872 A 0.436,0.436 0 1,0 28.58,21 Z M 28.58,27.619 A 0.436,0.436 0 1,0 28.58,28.491 A 0.436,0.436 0 0,0 29.028,28.055 A 0.452,0.452 0 0,0 28.58,27.619 Z M 29.732,25.64 A 0.436,0.436 0 0,0 29.284,26.077 C 29.284,26.318 29.484,26.513 29.732,26.513 A 0.441,0.441 0 0,0 30.18,26.077 C 30.212,25.827 29.988,25.641 29.732,25.641 Z M 25.532,21.817 A 0.28,0.28 0 0,0 25.252,22.09 C 25.252,22.253 25.395,22.362 25.532,22.362 A 0.28,0.28 0 0,0 25.812,22.09 A 0.28,0.28 0 0,0 25.532,21.817 Z M 12.545,28.957 A 0.436,0.436 0 1,0 12.545,29.83 A 0.436,0.436 0 0,0 12.993,29.394 C 13.001,29.152 12.801,28.958 12.545,28.958 Z M 12.545,27.619 A 0.436,0.436 0 1,0 12.545,28.491 A 0.436,0.436 0 0,0 12.993,28.055 C 13.001,27.805 12.801,27.619 12.545,27.619 Z M 12.545,25.143 A 0.28,0.28 0 0,0 12.265,25.415 C 12.265,25.579 12.409,25.688 12.545,25.688 A 0.28,0.28 0 0,0 12.825,25.415 C 12.833,25.252 12.689,25.143 12.545,25.143 Z M 12.545,26.295 A 0.436,0.436 0 0,0 12.097,26.731 C 12.097,26.972 12.297,27.167 12.545,27.167 A 0.436,0.436 0 1,0 12.545,26.295 Z M 13.73,30.336 A 0.28,0.28 0 0,0 14.01,30.064 C 14.01,29.9 13.866,29.791 13.73,29.791 A 0.28,0.28 0 0,0 13.45,30.064 C 13.426,30.227 13.562,30.336 13.73,30.336 Z M 12.545,30.281 A 0.436,0.436 0 1,0 12.545,31.153 A 0.436,0.436 0 0,0 12.993,30.717 C 13.001,30.468 12.801,30.281 12.545,30.281 Z M 12.546,32.5 A 0.436,0.436 0 0,0 12.994,32.065 C 12.994,31.823 12.794,31.628 12.546,31.628 A 0.437,0.437 0 0,0 12.097,32.065 C 12.065,32.314 12.297,32.501 12.546,32.501 Z M 11.361,34.51 A 0.436,0.436 0 0,0 11.809,34.073 C 11.809,33.832 11.609,33.637 11.361,33.637 A 0.436,0.436 0 0,0 10.913,34.073 C 10.881,34.291 11.105,34.509 11.361,34.509 Z M 11.361,29.62 A 0.436,0.436 0 1,0 11.361,30.492 A 0.436,0.436 0 1,0 11.361,29.62 Z M 10.177,31.628 A 0.437,0.437 0 0,0 9.729,32.065 C 9.729,32.305 9.929,32.501 10.177,32.501 A 0.441,0.441 0 0,0 10.625,32.065 A 0.436,0.436 0 0,0 10.177,31.628 Z M 10.177,32.944 A 0.437,0.437 0 0,0 9.729,33.38 C 9.729,33.622 9.929,33.816 10.177,33.816 A 0.441,0.441 0 0,0 10.625,33.38 A 0.436,0.436 0 0,0 10.177,32.944 Z M 11.361,28.304 A 0.436,0.436 0 1,0 11.361,29.176 A 0.436,0.436 0 0,0 11.809,28.74 C 11.817,28.49 11.617,28.304 11.361,28.304 Z M 11.361,32.283 A 0.436,0.436 0 0,0 10.913,32.719 C 10.913,32.96 11.113,33.155 11.361,33.155 A 0.436,0.436 0 1,0 11.361,32.283 Z M 11.361,30.936 A 0.436,0.436 0 0,0 10.913,31.372 C 10.913,31.613 11.113,31.808 11.361,31.808 A 0.436,0.436 0 0,0 11.809,31.372 C 11.817,31.162 11.617,30.936 11.361,30.936 Z M 14.89,28.522 A 0.436,0.436 0 1,0 14.89,27.65 A 0.436,0.436 0 1,0 14.89,28.522 Z M 14.89,26.295 A 0.436,0.436 0 0,0 14.442,26.731 C 14.442,26.972 14.642,27.167 14.89,27.167 A 0.436,0.436 0 0,0 15.338,26.731 C 15.37,26.49 15.146,26.295 14.89,26.295 Z M 14.89,24.979 A 0.436,0.436 0 0,0 14.442,25.415 C 14.442,25.656 14.642,25.851 14.89,25.851 A 0.436,0.436 0 0,0 15.338,25.415 C 15.37,25.174 15.146,24.979 14.89,24.979 Z M 14.89,23.632 A 0.436,0.436 0 1,0 14.89,24.504 A 0.436,0.436 0 1,0 14.89,23.632 Z M 16.074,30.336 A 0.28,0.28 0 0,0 16.354,30.064 C 16.354,29.9 16.21,29.791 16.074,29.791 A 0.28,0.28 0 0,0 15.794,30.064 C 15.794,30.227 15.938,30.336 16.074,30.336 Z M 16.074,22.97 A 0.436,0.436 0 1,0 16.074,23.842 A 0.436,0.436 0 0,0 16.522,23.406 C 16.53,23.165 16.33,22.97 16.074,22.97 Z M 13.73,22.97 A 0.436,0.436 0 1,0 13.73,23.842 A 0.441,0.441 0 0,0 14.178,23.406 C 14.186,23.165 13.986,22.97 13.73,22.97 Z M 14.89,22.316 A 0.436,0.436 0 0,0 14.442,22.752 C 14.442,22.993 14.642,23.188 14.89,23.188 A 0.436,0.436 0 0,0 15.338,22.752 C 15.37,22.511 15.146,22.316 14.89,22.316 Z M 13.73,24.317 A 0.436,0.436 0 0,0 13.281,24.753 C 13.281,24.994 13.481,25.189 13.73,25.189 A 0.441,0.441 0 0,0 14.178,24.753 C 14.186,24.512 13.986,24.317 13.73,24.317 Z M 13.73,26.956 A 0.436,0.436 0 1,0 13.73,27.829 A 0.441,0.441 0 0,0 14.178,27.393 C 14.186,27.175 13.986,26.956 13.73,26.956 Z M 13.73,25.64 A 0.436,0.436 0 0,0 13.281,26.077 C 13.281,26.318 13.481,26.513 13.73,26.513 A 0.441,0.441 0 0,0 14.178,26.077 A 0.436,0.436 0 0,0 13.73,25.641 Z M 13.73,28.304 A 0.436,0.436 0 1,0 13.73,29.176 A 0.441,0.441 0 0,0 14.178,28.74 C 14.186,28.49 13.986,28.304 13.73,28.304 Z M 14.89,21.164 A 0.28,0.28 0 0,0 14.61,21.436 C 14.61,21.6 14.754,21.709 14.89,21.709 A 0.28,0.28 0 0,0 15.17,21.436 C 15.202,21.273 15.058,21.164 14.89,21.164 Z M 13.73,21.817 A 0.28,0.28 0 0,0 13.45,22.09 C 13.45,22.253 13.594,22.362 13.73,22.362 A 0.28,0.28 0 0,0 14.01,22.09 C 14.01,21.957 13.874,21.817 13.73,21.817 Z M 16.074,21.817 A 0.28,0.28 0 0,0 15.794,22.09 C 15.794,22.253 15.938,22.362 16.074,22.362 A 0.28,0.28 0 0,0 16.354,22.09 A 0.28,0.28 0 0,0 16.074,21.817 Z M 6.648,23.88 A 0.437,0.437 0 1,0 6.648,23.009 A 0.436,0.436 0 0,0 6.2,23.445 C 6.2,23.663 6.392,23.881 6.648,23.881 Z M 7.809,22.316 A 0.437,0.437 0 0,0 7.36,22.752 C 7.36,22.993 7.56,23.188 7.809,23.188 A 0.436,0.436 0 0,0 8.257,22.752 C 8.257,22.511 8.057,22.316 7.809,22.316 Z M 7.809,23.632 A 0.437,0.437 0 1,0 7.809,24.504 A 0.436,0.436 0 0,0 8.257,24.068 C 8.257,23.826 8.057,23.632 7.809,23.632 Z M 7.809,26.295 A 0.437,0.437 0 0,0 7.36,26.731 C 7.36,26.972 7.56,27.167 7.809,27.167 A 0.436,0.436 0 0,0 8.257,26.731 C 8.257,26.49 8.057,26.295 7.809,26.295 Z M 7.809,24.979 A 0.436,0.436 0 0,0 7.36,25.415 C 7.36,25.656 7.56,25.851 7.809,25.851 A 0.437,0.437 0 0,0 8.257,25.415 C 8.257,25.174 8.057,24.979 7.809,24.979 Z M 6.648,26.544 A 0.437,0.437 0 1,0 6.648,25.672 A 0.436,0.436 0 0,0 6.2,26.108 C 6.2,26.326 6.392,26.544 6.648,26.544 Z M 16.074,24.317 A 0.436,0.436 0 0,0 15.626,24.753 C 15.626,24.994 15.826,25.189 16.074,25.189 A 0.436,0.436 0 0,0 16.522,24.753 C 16.554,24.512 16.33,24.317 16.074,24.317 Z M 6.648,25.197 A 0.436,0.436 0 0,0 7.096,24.761 C 7.096,24.519 6.896,24.325 6.648,24.325 A 0.437,0.437 0 1,0 6.648,25.197 Z M 7.809,21 A 0.436,0.436 0 0,0 7.36,21.436 C 7.36,21.677 7.56,21.872 7.809,21.872 A 0.437,0.437 0 0,0 8.257,21.436 C 8.257,21.195 8.057,21 7.809,21 Z M 5.464,22.316 A 0.437,0.437 0 0,0 5.016,22.752 C 5.016,22.993 5.216,23.188 5.464,23.188 A 0.441,0.441 0 0,0 5.912,22.752 C 5.944,22.511 5.72,22.316 5.464,22.316 Z M 5.464,21 A 0.436,0.436 0 0,0 5.016,21.436 C 5.016,21.677 5.216,21.872 5.464,21.872 A 0.437,0.437 0 1,0 5.464,21 Z M 4.28,21.817 A 0.28,0.28 0 0,0 4,22.09 C 4,22.253 4.144,22.362 4.28,22.362 A 0.28,0.28 0 0,0 4.56,22.09 C 4.592,21.957 4.448,21.817 4.28,21.817 Z M 5.464,23.632 A 0.437,0.437 0 1,0 5.464,24.504 A 0.436,0.436 0 1,0 5.464,23.632 Z M 6.648,21.654 A 0.437,0.437 0 0,0 6.2,22.09 C 6.2,22.331 6.4,22.526 6.648,22.526 A 0.436,0.436 0 1,0 6.648,21.654 Z M 7.809,29.674 A 0.28,0.28 0 0,0 8.089,29.401 C 8.089,29.238 7.945,29.129 7.809,29.129 A 0.28,0.28 0 0,0 7.529,29.401 C 7.521,29.565 7.665,29.674 7.809,29.674 Z M 8.993,23.141 A 0.28,0.28 0 0,0 8.713,23.414 C 8.713,23.577 8.857,23.686 8.993,23.686 A 0.28,0.28 0 0,0 9.273,23.414 A 0.274,0.274 0 0,0 8.993,23.141 Z M 10.177,35 A 0.28,0.28 0 0,0 10.457,34.728 C 10.457,34.564 10.313,34.455 10.177,34.455 A 0.28,0.28 0 0,0 9.897,34.728 A 0.28,0.28 0 0,0 10.177,35 Z M 10.177,26.459 A 0.28,0.28 0 0,0 9.897,26.731 C 9.897,26.894 10.041,27.004 10.177,27.004 A 0.28,0.28 0 0,0 10.457,26.731 C 10.457,26.599 10.321,26.458 10.177,26.458 Z M 10.177,25.143 A 0.28,0.28 0 0,0 9.897,25.415 C 9.897,25.579 10.041,25.688 10.177,25.688 A 0.28,0.28 0 0,0 10.457,25.415 A 0.275,0.275 0 0,0 10.177,25.143 Z M 19.634,25.143 A 0.28,0.28 0 0,0 19.354,25.415 C 19.354,25.579 19.499,25.688 19.634,25.688 A 0.28,0.28 0 0,0 19.914,25.415 C 19.914,25.252 19.803,25.143 19.634,25.143 Z M 11.361,27.12 A 0.28,0.28 0 0,0 11.081,27.393 C 11.081,27.556 11.225,27.665 11.361,27.665 A 0.28,0.28 0 0,0 11.641,27.393 C 11.641,27.26 11.505,27.12 11.361,27.12 Z M 18.442,27.12 A 0.28,0.28 0 0,0 18.162,27.393 C 18.162,27.556 18.306,27.665 18.442,27.665 A 0.28,0.28 0 0,0 18.722,27.393 A 0.274,0.274 0 0,0 18.442,27.12 Z M 8.993,29.62 A 0.437,0.437 0 1,0 8.993,30.492 A 0.436,0.436 0 1,0 8.993,29.62 Z M 8.993,30.936 A 0.437,0.437 0 0,0 8.545,31.372 C 8.545,31.613 8.745,31.808 8.993,31.808 A 0.436,0.436 0 0,0 9.441,31.372 A 0.457,0.457 0 0,0 8.993,30.936 Z M 7.809,27.619 A 0.436,0.436 0 1,0 7.809,28.491 A 0.436,0.436 0 1,0 7.809,27.619 Z M 10.177,27.619 A 0.436,0.436 0 1,0 10.177,28.491 A 0.441,0.441 0 0,0 10.625,28.055 A 0.432,0.432 0 0,0 10.177,27.619 Z M 10.177,28.957 A 0.437,0.437 0 1,0 10.177,29.83 A 0.441,0.441 0 0,0 10.625,29.394 A 0.436,0.436 0 0,0 10.177,28.958 Z M 10.177,30.281 A 0.437,0.437 0 1,0 10.177,31.153 A 0.441,0.441 0 0,0 10.625,30.717 A 0.432,0.432 0 0,0 10.177,30.281 Z M 8.993,24.317 A 0.436,0.436 0 0,0 8.545,24.753 C 8.545,24.994 8.745,25.189 8.993,25.189 A 0.437,0.437 0 1,0 8.993,24.317 Z M 8.993,28.304 A 0.437,0.437 0 1,0 8.993,29.176 A 0.436,0.436 0 1,0 8.993,28.304 Z M 8.993,33 A 0.28,0.28 0 0,0 9.273,32.727 C 9.273,32.563 9.129,32.454 8.993,32.454 A 0.28,0.28 0 0,0 8.713,32.727 C 8.713,32.89 8.825,32.999 8.993,32.999 Z M 8.993,26.956 A 0.437,0.437 0 1,0 8.993,27.829 A 0.436,0.436 0 0,0 9.441,27.393 A 0.452,0.452 0 0,0 8.993,26.956 Z M 8.993,25.64 A 0.437,0.437 0 0,0 8.545,26.077 C 8.545,26.318 8.745,26.513 8.993,26.513 A 0.436,0.436 0 1,0 8.993,25.641 Z M 20.819,33 A 0.28,0.28 0 0,0 21.099,32.727 C 21.099,32.563 20.955,32.454 20.819,32.454 C 20.683,32.454 20.539,32.594 20.539,32.727 C 20.539,32.89 20.651,32.999 20.819,32.999 Z M 23.187,24.317 A 0.437,0.437 0 0,0 22.739,24.753 C 22.739,24.994 22.939,25.189 23.187,25.189 A 0.436,0.436 0 0,0 23.635,24.753 C 23.643,24.512 23.443,24.317 23.187,24.317 Z M 23.187,22.97 A 0.437,0.437 0 1,0 23.187,23.842 A 0.436,0.436 0 0,0 23.635,23.406 C 23.643,23.165 23.443,22.97 23.187,22.97 Z M 23.187,26.544 A 0.437,0.437 0 1,0 23.187,25.672 A 0.436,0.436 0 0,0 22.739,26.108 C 22.707,26.326 22.931,26.544 23.187,26.544 Z M 24.371,24.543 A 0.436,0.436 0 1,0 24.371,23.671 A 0.437,0.437 0 1,0 24.371,24.543 Z M 23.187,21.654 A 0.437,0.437 0 0,0 22.739,22.09 C 22.739,22.331 22.939,22.526 23.187,22.526 A 0.436,0.436 0 1,0 23.187,21.654 Z M 24.371,22.316 A 0.437,0.437 0 0,0 23.923,22.752 C 23.923,22.993 24.123,23.188 24.371,23.188 A 0.436,0.436 0 1,0 24.371,22.316 Z M 24.371,21 A 0.437,0.437 0 0,0 23.923,21.436 C 23.923,21.677 24.123,21.872 24.371,21.872 A 0.436,0.436 0 1,0 24.371,21 Z M 22.003,26.295 A 0.437,0.437 0 0,0 21.555,26.731 C 21.555,26.972 21.755,27.167 22.003,27.167 A 0.442,0.442 0 0,0 22.451,26.731 A 0.437,0.437 0 0,0 22.003,26.295 Z M 22.003,23.632 A 0.437,0.437 0 1,0 22.003,24.504 A 0.441,0.441 0 0,0 22.451,24.068 A 0.437,0.437 0 0,0 22.003,23.632 Z M 22.003,22.316 A 0.437,0.437 0 0,0 21.555,22.752 C 21.555,22.993 21.755,23.188 22.003,23.188 A 0.442,0.442 0 0,0 22.451,22.752 A 0.437,0.437 0 0,0 22.003,22.316 Z M 22.003,21 A 0.437,0.437 0 0,0 21.555,21.436 C 21.555,21.677 21.755,21.872 22.003,21.872 A 0.442,0.442 0 0,0 22.451,21.436 A 0.437,0.437 0 0,0 22.003,21 Z M 22.003,29.674 A 0.28,0.28 0 0,0 22.283,29.401 C 22.283,29.238 22.139,29.129 22.003,29.129 A 0.28,0.28 0 0,0 21.723,29.401 C 21.723,29.565 21.835,29.674 22.003,29.674 Z M 22.003,27.619 A 0.436,0.436 0 1,0 22.003,28.491 A 0.441,0.441 0 0,0 22.451,28.055 A 0.432,0.432 0 0,0 22.003,27.619 Z M 22.003,24.979 A 0.437,0.437 0 0,0 21.555,25.415 C 21.555,25.656 21.755,25.851 22.003,25.851 A 0.442,0.442 0 0,0 22.451,25.415 A 0.437,0.437 0 0,0 22.003,24.979 Z M 16.074,25.64 A 0.436,0.436 0 0,0 15.626,26.077 C 15.626,26.318 15.826,26.513 16.074,26.513 A 0.436,0.436 0 0,0 16.522,26.077 C 16.554,25.827 16.33,25.641 16.074,25.641 Z M 18.442,28.304 A 0.436,0.436 0 1,0 18.442,29.176 A 0.441,0.441 0 0,0 18.89,28.74 C 18.898,28.49 18.698,28.304 18.442,28.304 Z M 17.258,30.281 A 0.436,0.436 0 1,0 17.258,31.153 A 0.436,0.436 0 0,0 17.706,30.717 C 17.738,30.468 17.514,30.281 17.258,30.281 Z M 19.634,35 A 0.28,0.28 0 0,0 19.914,34.728 C 19.914,34.564 19.771,34.455 19.634,34.455 A 0.28,0.28 0 0,0 19.354,34.728 C 19.354,34.86 19.459,35 19.634,35 Z M 18.442,29.62 A 0.436,0.436 0 1,0 18.442,30.492 A 0.441,0.441 0 0,0 18.89,30.056 A 0.436,0.436 0 0,0 18.442,29.62 Z M 18.442,34.51 A 0.436,0.436 0 0,0 18.89,34.073 C 18.89,33.832 18.69,33.637 18.442,33.637 A 0.441,0.441 0 0,0 17.994,34.073 C 17.994,34.291 18.194,34.509 18.442,34.509 Z M 18.442,30.936 A 0.436,0.436 0 0,0 17.994,31.372 C 17.994,31.613 18.194,31.808 18.442,31.808 A 0.441,0.441 0 0,0 18.89,31.372 C 18.898,31.162 18.698,30.936 18.442,30.936 Z M 18.442,32.283 A 0.436,0.436 0 0,0 17.994,32.719 C 17.994,32.96 18.194,33.155 18.442,33.155 A 0.441,0.441 0 0,0 18.89,32.719 A 0.436,0.436 0 0,0 18.442,32.283 Z M 17.258,32.5 A 0.436,0.436 0 0,0 17.706,32.065 C 17.706,31.823 17.506,31.628 17.258,31.628 A 0.436,0.436 0 0,0 16.81,32.065 C 16.81,32.305 17.01,32.501 17.258,32.501 Z M 17.258,25.143 A 0.28,0.28 0 0,0 16.978,25.415 C 16.978,25.579 17.122,25.688 17.258,25.688 A 0.28,0.28 0 0,0 17.538,25.415 C 17.546,25.252 17.434,25.143 17.258,25.143 Z M 16.074,28.304 A 0.436,0.436 0 1,0 16.074,29.176 A 0.436,0.436 0 0,0 16.522,28.74 C 16.554,28.49 16.33,28.304 16.074,28.304 Z M 16.074,26.956 A 0.436,0.436 0 1,0 16.074,27.829 A 0.436,0.436 0 0,0 16.522,27.393 C 16.554,27.175 16.33,26.956 16.074,26.956 Z M 17.258,28.957 A 0.436,0.436 0 1,0 17.258,29.83 A 0.436,0.436 0 0,0 17.706,29.394 C 17.738,29.152 17.514,28.958 17.258,28.958 Z M 17.258,26.295 A 0.436,0.436 0 0,0 16.81,26.731 C 16.81,26.972 17.01,27.167 17.258,27.167 A 0.436,0.436 0 0,0 17.706,26.731 C 17.738,26.49 17.514,26.295 17.258,26.295 Z M 17.258,27.619 A 0.436,0.436 0 1,0 17.258,28.491 A 0.436,0.436 0 0,0 17.706,28.055 C 17.714,27.805 17.514,27.619 17.258,27.619 Z M 20.819,26.956 A 0.437,0.437 0 1,0 20.819,27.829 A 0.441,0.441 0 0,0 21.267,27.393 A 0.452,0.452 0 0,0 20.819,26.956 Z M 20.819,25.64 A 0.437,0.437 0 0,0 20.371,26.077 C 20.371,26.318 20.571,26.513 20.819,26.513 A 0.442,0.442 0 0,0 21.267,26.077 A 0.437,0.437 0 0,0 20.819,25.641 Z M 20.819,30.936 A 0.437,0.437 0 0,0 20.371,31.372 C 20.371,31.613 20.571,31.808 20.819,31.808 A 0.441,0.441 0 0,0 21.267,31.372 A 0.457,0.457 0 0,0 20.819,30.936 Z M 19.634,26.459 A 0.28,0.28 0 0,0 19.354,26.731 C 19.354,26.894 19.499,27.004 19.634,27.004 A 0.28,0.28 0 0,0 19.914,26.731 A 0.28,0.28 0 0,0 19.634,26.458 Z M 20.819,29.62 A 0.437,0.437 0 1,0 20.819,30.492 A 0.441,0.441 0 0,0 21.267,30.056 A 0.437,0.437 0 0,0 20.819,29.62 Z M 20.819,28.304 A 0.437,0.437 0 1,0 20.819,29.176 A 0.442,0.442 0 0,0 21.267,28.74 A 0.432,0.432 0 0,0 20.819,28.304 Z M 20.819,23.141 A 0.28,0.28 0 0,0 20.539,23.414 C 20.539,23.577 20.683,23.686 20.819,23.686 C 20.955,23.686 21.099,23.546 21.099,23.414 C 21.099,23.274 20.955,23.141 20.819,23.141 Z M 20.819,24.317 A 0.437,0.437 0 0,0 20.371,24.753 C 20.371,24.994 20.571,25.189 20.819,25.189 A 0.442,0.442 0 0,0 21.267,24.753 A 0.437,0.437 0 0,0 20.819,24.317 Z M 19.635,28.957 A 0.437,0.437 0 1,0 19.635,29.83 A 0.442,0.442 0 0,0 20.083,29.394 C 20.083,29.152 19.883,28.958 19.635,28.958 Z M 19.635,27.619 A 0.436,0.436 0 1,0 19.635,28.491 A 0.441,0.441 0 0,0 20.083,28.055 C 20.083,27.805 19.883,27.619 19.635,27.619 Z M 19.635,30.281 A 0.437,0.437 0 1,0 19.635,31.153 A 0.441,0.441 0 0,0 20.083,30.717 C 20.083,30.468 19.883,30.281 19.635,30.281 Z M 19.635,31.628 A 0.437,0.437 0 0,0 19.186,32.065 C 19.186,32.305 19.386,32.501 19.635,32.501 A 0.442,0.442 0 0,0 20.083,32.065 C 20.083,31.823 19.883,31.628 19.635,31.628 Z M 19.635,32.944 A 0.437,0.437 0 0,0 19.186,33.38 C 19.186,33.622 19.386,33.816 19.635,33.816 A 0.441,0.441 0 0,0 20.083,33.38 C 20.083,33.139 19.883,32.944 19.635,32.944 Z" fill="rgb(254, 254, 253)"/>
</svg>
