<?xml version="1.0" encoding="UTF-8"?>
<!-- generated by Finnhub -->
<svg viewBox="0 0 55.5 55.5" xmlns="http://www.w3.org/2000/svg">
<path d="M 0,0 H 55.5 V 55.5 H 0 Z" fill="rgb(37, 35, 35)"/>
<path d="M 11.73,22.884999999999998 C 7.61,23.26 4.86,25.43 4,26.48 A 3.4,3.4 0 0,1 5.09,24 V 22.06 L 6.39,23.16 C 7.49,22.36 12.72,21.31 15.19,20.88 A 20.25,20.25 0 0,1 23.92,19 C 29.53,19 34.55,21.94 36.36,23.4 C 44.3,23 50.1,25.61 52.01,26.98 C 49.41,26.11 42.84,24.39 37.35,24.39 C 31.85,24.39 25.18,24.91 22.54,25.17 L 33,23.05 C 31.35,22.25 27.28,20.67 24.18,20.67 C 21.08,20.67 19.51,21.43 19.12,21.81 L 21.08,23.16 C 19.68,22.93 15.85,22.56 11.73,22.91 Z" fill="url(#b)"/>
<path d="M 32.22,22.865 L 29.87,23.42 L 19.86,21.78 C 20.01,21.49 21.09,20.91 24.24,20.91 C 27.38,20.91 30.87,22.23 32.23,22.88 Z" fill="url(#a)"/>
<path d="M 4.38,27.985 H 5.29 L 6.89,30.7 L 8.74,28 H 9.7 L 6.89,32 L 4.39,28 Z M 7.99,30.97 L 8.64,31.98 L 11.42,28 H 10.54 L 8.64,30.74 L 8.39,30.37 L 7.99,30.97 Z M 7.1,29.74 L 6,28 H 6.91 L 7.66,29.07 L 7.1,29.74 Z M 9.78,32 H 10.92 L 12.68,29.28 L 13.42,31 H 12 L 11.42,32 H 14.85 L 13.2,28 H 12.57 L 9.79,32 Z M 20.25,29.98 L 20.01,32 H 20.88 L 20.98,31 H 22.58 C 22.88,31 24.5,30.67 24.5,29.4 C 24.5,28.4 23.77,28.05 23.41,28 H 21.13 L 20.43,29 H 22.95 C 23.23,29 23.53,29.02 23.53,29.47 C 23.53,29.84 23.14,29.97 22.95,29.98 H 20.25 Z M 15.51,30 A 430,430 0 0,1 15.26,32 H 16.14 L 16.24,31 H 17.79 L 18.3,32 H 19.54 L 18.76,30.75 C 19.26,30.52 19.75,30.11 19.75,29.41 C 19.75,28.4 19.03,28.05 18.67,28 H 16.38 L 15.68,29 H 18.37 C 18.64,29 18.77,29.02 18.77,29.47 C 18.77,29.84 18.39,29.98 18.2,30 H 15.5 Z" fill="rgb(172, 252, 115)"/>
<path d="M 37.39,27.985 L 36.85,32 H 40.39 L 41.16,31 H 38.14 L 38.22,30.37 H 40.47 L 41.25,29.49 H 38.35 L 38.41,29 H 40.81 L 41.74,28 H 37.4 Z M 31.15,28 H 27.22 C 26.76,28.07 25.86,28.43 25.86,29.38 S 26.63,30.44 27.06,30.44 H 27.93 L 28.33,29.6 H 27.3 C 27.18,29.6 26.96,29.54 26.96,29.32 C 26.96,29.05 27.13,29 27.49,29 H 30.36 L 31.16,28 Z M 25.47,32 H 29.41 C 29.86,31.93 30.76,31.57 30.76,30.62 S 29.99,29.56 29.56,29.56 H 28.69 L 28.29,30.4 H 29.33 C 29.45,30.4 29.67,30.46 29.67,30.68 C 29.67,30.95 29.5,31 29.15,31 H 26.27 L 25.47,32 Z M 31.38,29.98 L 31.08,32 H 32.15 L 32.28,31 H 34.24 C 34.59,31 36.58,30.67 36.58,29.4 C 36.58,28.4 35.69,28.05 35.25,28 H 32.45 L 31.6,29 H 34.68 C 35.02,29 35.39,29.02 35.39,29.47 C 35.39,29.84 34.92,29.97 34.69,29.98 H 31.38 Z M 41.74,32 L 42.29,28 H 46.62 L 45.69,29 H 43.29 L 43.22,29.55 H 46.14 L 45.35,30.45 H 43.1 L 43.03,31 H 46.05 L 45.28,32 H 41.74 Z M 46.92,29.53 L 46.53,32 H 49.41 C 50.17,31.84 51.71,31.16 51.71,29.72 C 51.69,29.15 51.31,28 49.87,28 H 47.87 L 47.08,29 H 49.88 C 50.1,29.02 50.56,29.27 50.56,29.99 C 50.56,30.89 49.76,31 49.36,31 H 47.8 L 48,29.53 H 46.93 Z M 16.16,33.7 L 16.45,33 H 19.91 L 19.49,33.7 H 16.16 Z M 16.79,36 L 17.39,34 H 18.49 L 17.94,36 H 16.79 Z M 22.38,33.65 H 24.24 L 24.1,33 H 22.85 L 22.37,33.65 Z M 22.02,34 L 20.67,35.97 H 22.93 L 23.29,35.27 H 22.26 L 23.04,34 H 22.02 Z M 23.67,36 L 23.47,34 H 24.34 L 24.68,36 H 23.68 Z" fill="rgb(6, 191, 98)"/>
<path d="M 27.069999999999997,33.695 L 26.68,33 H 27.5 L 27.9,33.71 H 27.08 Z M 29.13,33.71 L 29.85,33 H 28.95 L 28.23,33.71 H 29.13 Z M 26.82,36 H 25.83 L 27.43,34.3 L 27.28,34 H 28.65 L 28.39,34.28 L 29.21,36 H 28.26 L 27.76,34.98 L 26.82,36 Z M 34.33,33.66 H 31.87 L 32.07,33.03 H 34.59 L 34.33,33.66 Z M 33.78,35.96 H 31.32 L 31.52,35.32 H 32.17 L 32.45,34 H 33.52 L 33.23,35.32 H 34.04 L 33.78,35.96 Z" fill="rgb(172, 252, 115)"/>
<path d="M 15.99,33.985 L 5,34.41 L 16,35 V 34 Z M 35,34 L 49,34.41 L 35,35 V 34 Z" fill="rgb(176, 254, 117)"/>
<defs>
<linearGradient id="b" x1="5.94" x2="9.67" y1="24.22" y2="24.22" gradientUnits="userSpaceOnUse">
<stop stop-color="rgb(38, 173, 99)" offset="0"/>
<stop stop-color="rgb(166, 245, 111)" offset="1"/>
</linearGradient>
<linearGradient id="a" x1="21.43" x2="30.92" y1="21.82" y2="23.37" gradientUnits="userSpaceOnUse">
<stop stop-color="rgb(133, 135, 136)" offset="0"/>
<stop stop-color="rgb(192, 194, 194)" offset="1"/>
</linearGradient>
</defs>
</svg>
