<?xml version="1.0" encoding="UTF-8"?>
<!-- generated by Finnhub -->
<svg viewBox="0 0 55.5 55.5" xmlns="http://www.w3.org/2000/svg">
<path d="M 0,0 H 55.5 V 55.5 H 0 Z" fill="rgb(239, 242, 248)"/>
<path d="M 40.92,14.174999999999999 A 8.32,8.32 0 0,0 35.1,13.14 C 33.56,13.44 32.15,14.17 31.76,14.92 A 0.45,0.45 0 0,0 31.73,15.01 L 31.92,15.1 A 0.34,0.34 0 0,0 31.96,15.04 C 32.35,14.33 33.66,13.64 35.14,13.36 A 7.87,7.87 0 0,1 41.17,14.74 C 43.67,16.84 43.68,21.77 41.57,26.01 C 39.17,30.85 33.21,35.42 28.2,35.42 C 24.3,35.42 23.05,32.99 23.38,30.4 C 23.38,30.25 23.42,30.11 23.45,29.96 C 23.45,30.11 23.4,30.25 23.38,30.39 C 23.38,30.22 23.42,30.05 23.46,29.89 C 24.44,25.11 28.98,21.32 33.59,21.4 A 6.39,6.39 0 0,1 39.49,25.03 C 39.56,25.17 39.59,25.34 39.66,25.49 C 39.66,25.54 39.69,25.59 39.71,25.63 L 39.88,25.57 C 39.88,25.5 39.82,25.38 39.78,25.26 C 39.15,23.31 37.52,20.82 31.4,20.82 C 24.2,20.82 15.88,25.87 13,31.69 C 10.13,37.51 13.65,42.03 20.86,42 C 26.62,42 31.64,39.43 35.47,36.07 A 29.32,29.32 0 0,0 42.02,27.79 C 45.02,21.83 44.59,16.36 40.92,14.19 Z" fill="rgb(7, 102, 147)"/>
<path d="M 38.690000000000005,32.405 C 35.85,35.74 32.24,37.72 29.04,37.72 A 5.47,5.47 0 0,1 24.66,35.85 A 6.04,6.04 0 0,1 23.72,33.09 C 23.85,33.33 24.05,33.69 24.22,33.91 C 24.94,34.79 26.29,35.4 28.16,35.4 C 33.44,35.4 39.29,30.62 41.57,26.01 C 43.48,22.19 43.53,18.27 42.13,15.85 C 44.25,18.43 44.26,22.77 41.79,27.69 A 26.24,26.24 0 0,1 38.69,32.41 Z" fill="rgb(254, 114, 31)"/>
</svg>
