<?xml version="1.0" encoding="UTF-8"?>
<!-- generated by Finnhub -->
<svg viewBox="0 0 55.5 55.5" xmlns="http://www.w3.org/2000/svg">
<path d="M 0,0 H 55.5 V 55.5 H 0 Z" fill="rgb(59, 109, 140)"/>
<path d="M 10.99,24.525 V 19 H 33 C 32.5,19.17 30.6,20.05 27,22.04 C 22.5,24.54 18.5,25.54 16,25.54 C 14,25.54 11.83,24.87 11,24.54 Z" fill="rgb(254, 254, 253)"/>
<path d="M 10.99,31.005 V 25.53 C 11.5,26.2 13.8,27.53 19,27.53 C 25.5,27.53 29.5,23.53 34.5,21.04 C 38.5,19.04 41,19 45,19 V 25.03 C 44,24.87 41.7,24.53 40.5,24.53 C 39,24.53 35,24.53 29,28.03 C 23,31.52 20.5,32.52 17,32.52 C 14.2,32.52 11.83,31.52 11,31.02 Z" fill="rgb(254, 254, 253)"/>
<path d="M 18.99,34.495 C 15,34.51 12,32.85 11,32.01 V 37.51 C 11.33,38.01 13.2,39 18,39 C 27,39 32,31.52 41,31.52 C 43,31.52 44.5,31.85 45,32.02 V 25.53 C 38,25.53 32.5,29.53 30,31.02 C 27.5,32.52 24,34.52 19,34.52 Z" fill="rgb(254, 254, 253)"/>
</svg>
