<?xml version="1.0" encoding="UTF-8"?>
<!-- generated by Finnhub -->
<svg viewBox="0 0 55.5 55.5" xmlns="http://www.w3.org/2000/svg">
<path d="M 0,0 H 55.5 V 55.5 H 0 Z" fill="rgb(26, 34, 74)"/>
<path d="M 45.99,27.985 H 10 V 18 H 46 V 28 Z M 11.01,27 H 45 V 19 H 11 L 11.01,27 Z M 17.17,21 H 18.07 L 17,25 H 16.1 L 15.26,22.26 L 14.42,25 H 13.5 L 12.43,21 H 13.36 L 14.01,23.66 L 14.82,21 H 15.72 L 16.53,23.66 L 17.17,21 Z M 19,25 V 21 H 20 V 25 H 19 Z M 21,25 V 21 H 21.99 V 24.2 H 23.69 V 25 H 21 Z M 24.5,25 V 21 H 25.5 V 24.2 H 27.16 V 25 H 24.5 Z M 29.1,21.76 C 29.57,21.76 29.72,22.06 29.74,22.24 L 30.54,22.02 C 30.44,21.57 30.08,21 29.1,21 C 28.34,21 27.69,21.5 27.69,22.23 C 27.69,22.8 28.09,23.23 28.76,23.36 L 29.3,23.46 C 29.56,23.51 29.72,23.65 29.72,23.84 C 29.72,24.08 29.51,24.24 29.16,24.24 C 28.63,24.24 28.38,23.94 28.35,23.58 L 27.55,23.78 C 27.6,24.31 28.07,25 29.15,25 C 30.09,25 30.6,24.39 30.6,23.79 C 30.6,23.24 30.22,22.77 29.47,22.63 L 28.94,22.53 C 28.67,22.49 28.55,22.35 28.55,22.17 C 28.55,21.96 28.76,21.76 29.09,21.76 Z M 42,25 V 21.82 H 43 V 21 H 40 V 21.82 H 41 V 25 H 42 Z M 15.12,33 H 10.6 L 9,37 H 10.43 L 11.73,33.97 A 0.2,0.2 0 0,1 11.85,33.87 C 11.9,33.84 11.95,33.84 12,33.86 C 12.06,33.88 12.1,33.91 12.12,33.96 C 12.15,34 12.15,34.06 12.12,34.11 L 10.88,37 H 12.35 L 13.67,33.97 C 13.67,33.95 13.69,33.93 13.71,33.91 A 0.22,0.22 0 0,1 14.01,33.9 A 0.2,0.2 0 0,1 14.05,33.96 A 0.18,0.18 0 0,1 14.05,34.1 L 12.8,37 H 14.33 L 15.78,33.65 C 15.98,32.97 15.13,33 15.13,33 Z M 37.72,33 H 33.19 L 31.78,37 H 33.2 L 34.33,33.97 L 34.37,33.91 A 0.21,0.21 0 0,1 34.52,33.84 A 0.23,0.23 0 0,1 34.67,33.89 A 0.2,0.2 0 0,1 34.72,33.95 A 0.18,0.18 0 0,1 34.72,34.11 L 33.65,37 H 35.12 L 36.25,33.97 A 0.2,0.2 0 0,1 36.29,33.91 A 0.22,0.22 0 0,1 36.59,33.9 A 0.2,0.2 0 0,1 36.64,33.95 A 0.18,0.18 0 0,1 36.64,34.1 L 35.56,37 H 37.09 L 38.37,33.65 C 38.59,32.9 37.72,33 37.72,33 Z M 39.74,37 H 41.21 L 42.34,33.97 A 0.2,0.2 0 0,1 42.45,33.87 A 0.22,0.22 0 0,1 42.68,33.9 A 0.2,0.2 0 0,1 42.73,33.96 A 0.18,0.18 0 0,1 42.73,34.11 L 41.65,37 H 43.18 L 44.46,33.65 C 44.68,32.91 43.81,33 43.81,33 H 41.23 L 39.73,37 Z M 39.21,37 H 37.78 L 39.31,33 H 40.7 L 39.2,37 Z M 40.81,32.7 L 41.13,31.82 H 39.73 L 39.41,32.7 H 40.81 Z M 23.89,37 H 22.46 L 23.96,33 H 25.34 L 23.89,37 Z M 25.45,32.7 L 25.77,31.82 H 24.38 L 24.06,32.7 H 25.46 Z M 25.78,37 H 24.35 L 26.55,31 H 27.95 L 25.78,37 Z M 45.08,37 H 43.65 L 45.18,33 H 46.57 L 45.07,37 Z M 46.68,32.7 L 47,31.82 H 45.6 L 45.29,32.7 H 46.68 Z M 15.09,36.26 L 16.16,33.51 S 16.24,33.01 16.98,33.01 H 18.86 S 19.66,32.91 19.41,33.71 L 18.42,36.37 S 18.26,37.05 17.63,37 H 15.56 S 14.72,37.08 15.09,36.26 Z M 17.27,35.9 L 17.88,34.24 C 17.98,34.04 17.88,34.04 17.75,34.04 L 17.65,34.03 C 17.38,34 17.33,34.08 17.27,34.24 L 16.65,35.9 C 16.55,36.12 16.65,36.18 16.85,36.2 C 17.16,36.2 17.2,36.09 17.25,35.95 L 17.26,35.92 L 17.27,35.9 Z M 21.37,33 H 22.7 S 23.49,32.9 23.24,33.74 L 22.26,36.34 S 21.96,37 21.46,37 H 18.54 L 20.77,31 H 22.14 L 21.37,33 Z M 21.11,35.85 L 21.72,34.29 C 21.82,34.07 21.72,34.07 21.58,34.07 H 21.48 C 21.22,34.04 21.16,34.12 21.1,34.29 L 20.49,35.85 C 20.39,36.08 20.49,36.15 20.69,36.15 C 20.99,36.18 21.04,36.05 21.09,35.9 L 21.11,35.85 Z M 28.12,33 H 30.42 C 31,33.02 30.72,33.55 30.72,33.55 L 29.98,35.39 C 29.84,35.76 29.51,35.72 29.51,35.72 H 28.17 C 27.92,35.75 27.91,36.04 27.91,36.04 C 27.88,36.29 28.14,36.28 28.14,36.28 H 30.19 C 30.04,37.01 29.37,37 29.37,37 H 26.75 C 26.03,36.96 26.45,36.14 26.45,36.14 L 27.43,33.37 C 27.58,32.94 28.13,33 28.13,33 Z M 28.45,34.6 H 29.1 L 29.2,34.16 S 29.27,33.88 28.94,33.81 C 28.94,33.81 28.64,33.75 28.55,34.1 L 28.45,34.6 Z M 33.93,23.37 A 1,1 0 1,1 33.91,22.57 L 34.87,22.29 A 2,2 0 1,0 34.9,23.63 L 33.93,23.37 Z M 38.35,23 A 1,1 0 1,1 36.35,23 A 1,1 0 0,1 38.35,23 Z M 39.35,23 A 2,2 0 1,1 35.35,23 A 2,2 0 0,1 39.35,23 Z" fill="rgb(254, 254, 253)" fill-rule="evenodd"/>
</svg>
