<?xml version="1.0" encoding="UTF-8"?>
<!-- generated by Finnhub -->
<svg viewBox="0 0 55.5 55.5" xmlns="http://www.w3.org/2000/svg">
<path d="M 0,0 H 55.5 V 55.5 H 0 Z" fill="rgb(143, 1, 38)"/>
<path d="M 9.452,36.627 C 9.462,38.775 11.867,40.695 15.657,42.082 C 15.195,39.948 14.178,36.214 13.067,32.269 C 10.849,33.547 9.462,35.041 9.462,36.642 Z M 26.197,15.948 C 24.903,22.562 23.331,28.748 21.944,35.255 C 20.741,29.815 19.354,24.375 18.154,18.295 L 13.438,17.12 L 9,18.614 L 13.345,19.681 C 15.749,27.254 18.246,37.388 19.447,43.147 C 22.035,43.68 25.087,44 28.23,44 C 38.586,44 47,40.694 47,36.641 C 47,33.335 41.36,30.56 33.686,29.601 C 34.796,24.054 36.09,18.507 37.384,12.747 L 32.76,12 L 30.819,12.427 L 35.441,13.387 C 34.516,19.253 33.222,25.227 32.02,31.093 C 31.003,25.973 29.616,20.96 28.6,15.307 L 23.976,14.347 L 21.48,14.987 L 26.196,15.948 Z M 42.562,36.214 C 42.469,36.961 42.007,37.6 41.36,38.242 C 39.325,40.057 34.517,41.442 28.97,41.442 C 27.307,41.442 24.717,41.228 23.239,41.122 C 23.792,38.882 26.936,26.188 26.845,25.974 C 27.398,28.107 29.064,34.188 29.988,38.028 L 32.208,36.961 L 33.316,31.202 C 34.518,31.308 35.535,31.522 36.553,31.842 C 40.343,32.694 42.747,34.4 42.562,36.214 Z" fill="rgb(254, 254, 253)"/>
</svg>
