<?xml version="1.0" encoding="UTF-8"?>
<!-- generated by Finnhub -->
<svg viewBox="0 0 55.5 55.5" xmlns="http://www.w3.org/2000/svg">
<path d="M 0,0 H 55.5 V 55.5 H 0 Z" fill="rgb(1, 66, 175)"/>
<path d="M 32.39,18.205 C 32.24,18.52 31.87,18.59 31.55,18.72 C 31.55,18.86 31.65,18.92 31.67,19.04 H 32.43 C 32.62,18.91 32.69,18.66 32.87,18.52 C 33.1,18.54 33.28,18.6 33.51,18.62 V 19.09 C 33.81,19.19 34.11,19.44 33.87,19.82 C 34.14,20.09 34.47,19.82 34.7,19.69 C 34.93,19.51 35.21,19.39 35.5,19.37 C 35.6,19.47 35.5,19.63 35.53,19.81 C 35.79,19.87 36.12,19.66 35.92,19.37 C 36.38,19.25 36.68,18.85 37.26,18.94 A 0.41,0.41 0 0,1 37.04,19.52 L 37.14,19.76 C 37.47,19.9 37.72,19.62 37.94,19.59 C 38.3,19.55 38.63,19.79 38.97,19.86 C 38.93,20.08 38.71,20.11 38.53,20.19 C 38.58,20.26 38.69,20.26 38.73,20.34 A 1.25,1.25 0 0,1 39.95,20.24 A 0.95,0.95 0 0,1 39.07,20.54 C 38.98,20.69 38.77,20.82 38.85,21.06 C 39.03,21.08 39.25,20.82 39.53,20.76 C 39.99,20.66 40.59,20.66 40.75,20.96 C 40.73,21.06 40.65,21.09 40.63,21.18 C 40.49,21.13 40.35,21.08 40.21,21.01 C 40.02,21.08 39.83,21.16 39.65,21.26 C 39.48,21.5 39.32,21.76 39.16,22.03 C 39.32,22.19 39.83,22.34 40.02,22.1 A 0.64,0.64 0 0,1 40.12,21.64 C 40.21,21.5 40.35,21.41 40.51,21.38 C 40.62,21.34 40.68,21.56 40.8,21.6 C 40.77,21.75 40.58,21.73 40.53,21.85 C 40.95,22.02 41.01,21.57 41.29,21.45 C 41.38,21.54 41.52,21.57 41.6,21.65 C 41.61,22.01 41.2,21.95 41.19,22.3 C 41.67,22.62 42.26,22.17 42.36,21.73 C 42.78,21.72 42.88,22.1 42.78,22.5 C 42.68,22.52 42.58,22.55 42.48,22.6 C 42.54,23.03 42.83,23.29 43.36,23.17 V 22.87 C 43.72,22.72 44.2,22.49 44.61,22.75 C 44.51,23 44.2,23.24 44.02,23.49 C 44.4,23.59 44.78,23.71 45.14,23.86 V 24.11 C 44.91,24.16 44.49,24.18 44.46,23.94 C 44.32,23.94 44.18,23.94 44.05,23.96 C 43.9,24.16 44.02,24.26 44.07,24.49 C 43.84,24.58 43.63,24.69 43.41,24.79 C 43.41,24.87 43.47,24.98 43.43,25.03 C 43.25,25.1 43.06,25.16 43.04,25.4 A 0.94,0.94 0 0,0 43.87,25.18 C 44.09,25.03 44.27,24.92 44.31,24.63 C 44.54,24.67 44.81,24.66 45.02,24.71 C 45.24,24.6 45.45,24.47 45.66,24.34 L 45.97,24.51 C 45.86,24.63 45.65,24.66 45.56,24.81 C 45.79,25.18 46.8,24.55 46.8,25.26 L 46.14,25.36 C 46.22,25.64 46.56,25.66 46.78,25.8 A 1.45,1.45 0 0,1 48.36,26.17 C 48.22,26.25 48.06,26.31 47.9,26.35 C 48.15,26.42 48.47,26.42 48.73,26.47 C 48.81,26.65 48.93,26.79 49,26.97 C 48.85,27.09 48.62,27.13 48.68,27.47 C 48.58,27.42 48.46,27.37 48.34,27.34 C 48.26,27.44 48.22,27.6 48.1,27.67 C 47.68,27.71 47.6,27.41 47.41,27.22 C 47.48,27.1 47.56,27.01 47.63,26.9 A 1.7,1.7 0 0,0 47.15,26.77 C 47.05,26.87 47.03,27.05 46.95,27.17 C 47.02,27.34 47.02,27.48 47.1,27.61 C 47.25,27.89 47.65,27.99 47.56,28.41 C 47.38,28.45 47.2,28.49 47.02,28.51 C 46.96,28.42 46.87,28.37 46.9,28.19 C 46.78,28.17 46.72,28.09 46.56,28.11 C 46.43,28.35 46.44,28.57 46.14,28.53 C 45.84,28.5 45.78,28.03 45.66,27.79 C 45.52,27.87 45.39,27.99 45.29,28.11 C 45.31,28.21 45.35,28.32 45.41,28.41 C 44.96,28.47 44.49,28.31 44.17,28.54 C 44.07,28.64 44.04,28.82 43.93,28.91 A 1.1,1.1 0 0,1 43.14,28.68 A 0.96,0.96 0 0,1 43.41,28.51 C 43.41,28.35 43.43,28.19 43.46,28.04 C 43.39,27.86 43.21,27.8 43.12,27.64 C 42.88,27.98 42.19,28.48 42.09,27.67 C 41.88,27.58 41.71,27.83 41.49,27.87 C 41.07,27.92 40.69,27.71 40.34,27.87 C 40.04,28 40.01,28.3 39.7,28.44 A 0.62,0.62 0 0,1 39.51,28.8 A 0.6,0.6 0 0,1 39.14,28.96 C 38.96,28.97 38.79,28.84 38.58,28.91 C 38.32,29 38.12,29.28 37.88,29.46 C 37.58,29.71 37.24,29.9 36.87,29.98 C 36.49,30.03 36.15,29.92 35.67,29.98 C 35.31,30.03 35.12,30.35 34.77,30.55 C 34.14,30.91 33.29,30.91 32.75,31.15 C 32.55,31.55 32.47,32.01 32.53,32.46 C 32.53,32.56 32.6,32.67 32.63,32.79 C 32.69,33.21 32.65,33.4 33.09,33.46 C 40.02,33.56 42.19,33.63 48.16,34.97 C 47.62,35 47.09,34.97 46.56,34.87 A 186.28,186.28 0 0,0 9.03,35 C 9.07,34.87 9.23,34.9 9.33,34.87 C 10.99,34.57 12.76,34.41 14.55,34.23 C 17.05,33.98 19.6,33.76 22.21,33.63 C 22.73,33.61 23.32,33.6 23.85,33.56 C 25.04,33.46 26.28,33.44 27.45,33.28 C 27.67,33.25 27.98,33.14 28.01,32.91 V 31.6 C 27.9,31.3 27.35,31.17 27.11,30.93 C 26.7,30.92 26.35,31.08 25.92,31.06 C 25.62,31.04 25.34,30.88 25.04,30.89 C 24.68,30.89 24.36,31.09 23.99,31.09 C 23.55,31.09 23.09,31.03 22.63,31.01 A 11,11 0 0,1 21.41,30.91 C 20.99,30.84 20.57,30.64 20.11,30.59 C 19.68,30.54 19.24,30.71 18.8,30.64 C 18.52,30.59 18.27,30.29 17.97,30.24 A 4.71,4.71 0 0,0 16.72,30.29 C 16.39,30.39 16.17,30.82 15.72,30.89 C 15.19,30.96 14.82,30.75 14.35,30.56 C 14.22,30.64 14.15,30.77 14.04,30.86 C 13.4,30.78 13.46,29.96 12.67,30.01 C 12.34,30.04 12.13,30.3 11.81,30.39 L 11.31,30.04 C 11.5,29.08 10.41,29.36 10.18,29.74 V 30.21 C 10,30.23 9.76,30.09 9.59,30.11 C 9.5,30.12 9.37,30.28 9.23,30.31 C 8.85,30.4 8.06,30.29 8.01,30.01 C 7.94,29.64 8.43,29.61 8.42,29.27 C 8.42,29.03 8.14,29.08 8.28,28.8 C 7.98,28.84 7.68,28.77 7.45,28.6 C 7.6,28.34 7.8,28.1 8.03,27.9 C 7.89,27.72 7.46,27.84 7.2,27.78 C 7.04,27.48 7.24,27.28 7.37,27.08 C 7.25,26.93 7,26.9 7.01,26.66 C 7.02,26.41 7.43,26.36 7.67,26.21 C 7.89,26.06 8.07,25.85 8.21,25.61 A 0.43,0.43 0 0,0 8.74,25.39 C 8.95,25.43 9.13,25.5 9.33,25.54 C 9.38,25.47 9.25,25.36 9.23,25.27 C 9.31,25.11 9.43,24.97 9.57,24.87 C 9.71,25 9.9,25.07 10.04,25.2 A 0.61,0.61 0 0,1 10.74,25.27 C 10.94,25.17 11.11,25.04 11.31,24.95 C 11.18,24.8 10.97,24.69 11.04,24.4 C 11.14,23.92 12.24,24.14 12.79,23.88 C 12.99,23.78 13,23.64 13.13,23.53 C 13.42,23.49 13.71,23.49 13.99,23.55 C 14.21,23.42 14.41,23.26 14.59,23.08 C 14.5,22.94 14.37,22.97 14.19,23.01 L 14.33,22.71 C 14.71,22.71 15.08,22.61 15.4,22.41 A 0.96,0.96 0 0,0 15.3,23.23 C 15.59,23.13 15.83,22.99 16.11,22.89 C 16.12,22.76 15.93,22.65 15.81,22.56 V 22.16 C 16.05,22.02 16.41,22.02 16.65,21.71 C 16.81,21.51 16.85,21.21 17.14,21.24 C 17.38,21.27 17.44,21.51 17.43,21.86 H 17.94 C 17.9,22.6 16.7,21.73 16.74,22.54 A 1.24,1.24 0 0,0 18.19,22.39 C 18.45,22.43 18.78,22.41 19.04,22.46 C 19.14,22.41 19.22,22.33 19.28,22.24 C 18.88,22.07 18.4,21.99 18.23,21.59 C 18.4,21.57 18.54,21.54 18.6,21.42 C 18.61,21.26 18.38,21.36 18.36,21.24 C 18.39,21.06 18.56,21.02 18.7,20.94 C 18.73,20.52 18.13,20.64 17.9,20.74 C 17.35,20.54 17.88,19.64 18.33,19.78 C 18.51,19.83 18.5,20.08 18.58,20.28 C 18.76,20.18 18.88,20.01 19.07,19.9 C 19.59,20 19.22,20.49 19.11,20.77 C 19.31,20.75 19.52,20.72 19.72,20.67 A 0.86,0.86 0 0,1 19.62,20.2 C 19.81,20.08 20.02,20.02 20.24,20.02 C 20.34,19.9 20.42,19.75 20.48,19.6 C 20.82,19.82 21.1,20.1 21.43,20.32 C 21.44,20.44 21.41,20.6 21.46,20.67 A 0.5,0.5 0 0,0 21.8,20.62 C 21.95,20.72 22.09,20.84 22.21,20.97 C 22.35,20.9 22.46,20.81 22.61,20.75 A 7.04,7.04 0 0,0 22.21,20.07 C 22.01,20.03 21.83,19.95 21.63,19.9 C 21.49,19.67 21.33,19.45 21.14,19.25 H 20.65 L 20.87,18.73 C 21.17,18.9 21.9,18.65 21.99,19.03 C 22.31,19.01 22.74,19.09 22.92,18.93 C 22.92,18.66 22.72,18.61 22.75,18.31 C 22.95,18.21 23.19,18.18 23.41,18.23 C 23.47,18.35 23.37,18.46 23.39,18.61 C 23.65,18.71 24.31,18.48 24.26,18.81 C 24.24,18.98 24.03,18.89 23.85,18.96 C 23.82,19.14 24,19.12 24,19.28 C 23.8,19.52 23.86,19.96 23.9,20.35 C 24.02,20.35 24.21,20.2 24.39,20.17 C 24.13,19.8 24.32,19.47 24.44,19.05 H 24.94 C 25.09,18.81 25.08,18.41 25.39,18.33 C 25.6,18.42 25.75,18.57 25.97,18.66 C 25.8,18.96 25.54,19.16 25.37,19.46 C 25.74,19.91 26.5,19.35 26.67,19.08 C 26.6,18.96 26.43,18.94 26.34,18.83 C 26.53,18.41 27.21,18.7 27.54,18.81 C 27.74,18.71 27.84,18.53 28.04,18.43 C 28.26,18.6 28.51,18.69 28.78,18.71 C 28.8,18.86 28.78,19.03 28.73,19.18 C 29.1,19.22 29.08,18.88 29.31,18.78 C 29.61,18.95 29.94,19.01 30.27,18.95 C 30.39,18.69 30.17,18.56 30,18.51 C 30.3,18.33 30.61,18.17 30.93,18.01 C 31.09,18.07 31.24,18.15 31.39,18.26 C 31.68,18.2 32.17,18.03 32.41,18.23 Z M 31.75,19.64 C 31.73,19.91 31.5,19.97 31.35,20.11 C 31.75,20.41 32.63,20.27 32.8,19.89 C 32.7,19.64 32.71,19.29 32.45,19.22 C 32.33,19.48 32.16,19.74 31.75,19.64 Z M 27.85,19.29 C 27.74,19.41 27.61,19.51 27.47,19.59 A 4.86,4.86 0 0,1 27.01,19.32 C 26.88,19.5 26.58,19.63 26.77,19.94 C 27.09,19.95 27.36,20.02 27.67,20.04 C 27.87,19.87 28.14,19.79 28.21,19.49 C 28.07,19.44 28.01,19.31 27.84,19.29 Z M 19.98,21.31 C 20.08,21.36 20.18,21.41 20.28,21.48 C 20.45,21.41 20.6,21.3 20.72,21.16 C 20.67,20.84 20.24,20.78 20.03,20.71 C 20.06,20.91 20.04,21.11 19.98,21.31 Z M 22.81,21.23 L 22.94,21.43 C 22.86,21.48 22.76,21.49 22.74,21.6 C 22.67,22.16 22,22.08 21.47,22 V 22.23 L 22.37,22.57 C 22.48,22.4 22.6,22.23 22.74,22.07 C 22.88,22.12 23.02,22.15 23.16,22.17 C 23.15,22.07 23.16,21.94 23.18,21.83 C 23.82,21.79 24.44,21.73 24.52,21.13 C 24.42,20.81 23.8,20.57 23.79,21.13 C 23.56,20.99 23.38,20.81 23.13,20.68 C 23.03,20.88 22.9,21.02 22.81,21.23 Z M 28.11,20.93 C 27.91,21.06 27.68,21.17 27.45,21.26 C 27.4,21.44 27.29,21.56 27.23,21.76 C 27.39,21.97 27.59,22.15 27.74,22.37 C 27.67,22.67 27.55,22.96 27.4,23.22 C 27.7,23.2 27.83,23.33 28.04,23.39 C 28.17,23.18 28.5,23.07 28.43,22.72 C 28.61,22.67 28.83,22.52 28.79,22.32 C 28.64,22.22 28.42,22.49 28.28,22.32 C 28.28,22.05 28.49,21.98 28.58,21.78 A 3.3,3.3 0 0,1 28.5,21.18 C 28.36,21.11 28.25,21.01 28.11,20.93 Z M 33.72,21.9 C 33.76,22.08 33.82,22.23 33.85,22.42 C 33.65,22.57 33.46,22.7 33.26,22.82 C 33.43,23.15 33.67,23.42 33.87,23.72 C 34.04,23.74 34.2,23.78 34.36,23.84 C 34.72,23.66 35.06,23.44 35.06,22.9 A 0.5,0.5 0 0,0 34.4,22.7 V 22.03 C 34.19,21.93 33.97,21.69 33.72,21.9 Z M 36.06,22.52 C 36.1,22.1 35.4,22.08 35.31,22.4 C 35.37,22.44 35.44,22.46 35.48,22.52 C 35.38,22.6 35.3,22.68 35.23,22.77 C 35.27,22.85 35.33,22.91 35.36,23 C 35.89,23.14 36.56,23.17 36.8,22.72 C 36.55,22.69 36.3,22.62 36.07,22.52 Z M 25.4,23.52 A 2.93,2.93 0 0,1 25.06,23.12 C 24.94,23.14 24.89,23.23 24.79,23.27 C 24.98,23.42 25.23,23.97 24.89,24.04 C 24.57,24.11 24.42,23.69 24.16,23.62 C 24.06,23.76 23.91,23.82 23.84,23.99 C 23.97,24.05 24.09,24.11 24.21,24.19 C 24.14,24.3 24.01,24.36 23.96,24.49 C 24.26,24.62 24.59,24.66 24.91,24.59 L 24.86,25.03 C 24.92,25.11 25.02,25.13 25.08,25.21 C 25.52,24.76 26.57,24.94 26.96,24.46 C 26.81,24.39 26.66,24.29 26.55,24.16 C 26.76,24.02 27.05,23.96 27.13,23.69 C 26.91,23.59 26.49,23.67 26.18,23.64 A 1.22,1.22 0 0,1 26.11,23.29 C 26.41,23.25 26.45,22.81 26.41,22.49 C 25.79,22.56 25.64,23.08 25.41,23.52 Z M 19.74,23.27 C 19.79,22.92 18.96,22.82 18.64,23 C 18.73,23.16 18.82,23.32 18.94,23.47 C 19.25,23.45 19.7,23.52 19.74,23.27 Z M 39.92,23.77 C 40.09,23.95 40.24,24.14 40.38,24.34 C 40.58,24.24 40.6,24.02 40.85,23.99 C 41.08,23.96 41.36,24.2 41.58,24.02 A 2.89,2.89 0 0,0 41.48,23.47 A 2.3,2.3 0 0,1 40.78,23.49 C 40.65,23.37 40.64,23.13 40.55,22.97 C 40.49,23.39 40.19,23.57 39.92,23.77 Z M 31.84,23.27 V 23.54 C 32,23.54 32.21,23.45 32.36,23.52 A 0.94,0.94 0 0,0 32.33,23.79 A 0.99,0.99 0 0,1 33.09,24.02 C 33.26,23.95 33.42,23.87 33.58,23.77 C 33.38,23.72 33.2,23.67 33.02,23.59 C 33.08,22.89 32.23,23.15 31.84,23.27 Z M 20.89,23.74 C 21.02,23.8 21.11,23.91 21.25,23.96 L 21.57,23.74 C 21.53,23.5 21.67,23.45 21.69,23.27 C 21.43,23.27 21.23,23.22 20.99,23.22 L 20.89,23.74 Z M 28.53,23.54 C 28.48,23.71 28.33,23.78 28.13,23.79 C 28.15,23.69 28.1,23.66 28.11,23.57 C 27.9,23.45 27.69,23.61 27.48,23.64 C 27.71,23.94 27.83,24.32 27.82,24.71 C 28.42,24.76 28.74,25.11 29.28,25.23 L 29.99,24.83 C 30.26,24.9 30.75,24.99 30.82,24.73 C 30.9,24.45 30.54,24.38 30.45,24.16 C 30.53,24.07 30.75,24.13 30.89,24.11 L 31.09,23.64 C 30.76,23.62 30.49,23.83 30.21,23.79 C 29.99,23.76 29.89,23.54 29.67,23.52 C 29.53,23.64 29.52,23.89 29.47,24.12 C 29.58,24.21 29.72,24.27 29.82,24.36 C 29.62,24.5 29.45,24.68 29.24,24.81 C 28.98,24.71 28.58,24.75 28.5,24.46 C 28.57,24.42 28.66,24.4 28.72,24.36 C 28.72,24.24 28.64,24.2 28.62,24.09 C 28.76,23.96 28.87,23.82 28.97,23.67 C 28.92,23.47 28.71,23.44 28.53,23.54 Z M 22.3,23.54 C 21.84,23.62 21.64,24.09 21.64,24.56 C 21.95,24.58 22.26,24.48 22.5,24.29 C 22.57,24.51 22.69,24.72 22.84,24.91 C 23.09,24.87 23.29,24.79 23.54,24.76 C 23.6,24.52 23.63,24.28 23.62,24.04 A 1.7,1.7 0 0,1 23.23,24.24 C 23.16,24.18 23.05,24.16 23.01,24.06 C 23.11,23.95 23.21,23.82 23.28,23.69 C 23.15,23.51 22.58,23.49 22.3,23.54 Z M 15.93,23.62 C 15.63,24 14.38,23.72 14.54,24.46 C 14.62,24.83 15.79,24.74 16.01,24.46 C 15.9,24.36 15.81,24.24 15.71,24.11 C 15.86,24.01 15.99,23.88 16.11,23.74 L 15.93,23.61 Z M 20.62,24.26 C 20.72,23.81 19.48,23.64 19.01,23.62 A 0.25,0.25 0 0,1 18.91,23.84 C 18.65,23.97 18.35,23.84 18.08,23.89 C 17.81,23.94 17.58,24.18 17.32,24.21 C 17.42,24.38 17.52,24.54 17.64,24.68 C 18.1,24.56 18.44,24.32 19.08,24.38 C 19.24,24.48 19.48,24.83 19.59,24.81 C 19.61,24.67 19.56,24.46 19.62,24.36 C 19.88,24.42 20.55,24.55 20.62,24.26 Z M 36.8,25.6 C 36.87,25.73 36.93,25.87 37.07,25.93 L 37.53,25.75 C 37.48,25.29 37.9,25.29 38.02,24.98 C 37.89,24.73 37.52,24.83 37.31,24.93 C 37.17,24.83 37.12,24.63 36.97,24.53 C 36.99,24.9 36.93,25.26 36.8,25.6 Z M 16.66,25.08 C 16.54,25.43 15.89,25.25 15.56,25.41 C 15.46,25.71 15.74,25.81 16.06,25.75 C 16.23,25.86 16.25,26.14 16.54,26.13 V 25.8 C 16.94,25.78 17.34,25.76 17.42,25.4 C 17.21,25.22 16.94,25.1 16.66,25.08 Z M 19.01,26.28 C 18.84,26.01 18.96,25.35 18.47,25.63 C 18.3,26.13 17.97,26.48 17.17,26.35 C 17.29,26.47 17.39,26.78 17.59,26.85 C 17.71,26.88 17.84,26.82 17.96,26.87 C 18.12,26.94 18.08,27.15 18.28,27.29 C 18.74,27.63 19.7,27.18 19.98,26.94 C 20.09,26.86 20.26,26.73 20.23,26.64 C 19.69,26.52 19.24,26.64 19.01,26.27 Z M 10.25,26.5 C 10.37,26.77 10.56,27.02 10.85,27 C 11.12,26.97 11.58,26.53 11.78,26.45 C 11.3,26.27 10.83,26.07 10.61,25.63 C 10.5,25.93 10.35,26.19 10.25,26.5 Z M 9.85,25.93 C 9.73,25.47 9.05,25.99 9.05,26.15 C 9.05,26.23 9.29,26.35 9.37,26.43 C 9.6,26.3 9.94,26.24 9.85,25.93 Z M 43.26,26.43 C 42.86,26.67 42.52,27 42.26,27.4 C 42.67,27.36 43.06,27.31 43.26,27.07 C 43.45,27.12 43.64,27.16 43.83,27.17 C 43.93,27.07 44.16,26.87 44.12,26.8 C 43.82,26.72 43.52,26.6 43.26,26.43 Z M 38.02,26.67 C 37.95,26.87 37.52,27 37.46,27.3 C 37.4,27.6 37.64,27.94 37.58,28.22 C 37.5,28.6 36.63,28.67 36.31,28.46 C 36.34,28.34 36.36,28.22 36.36,28.09 C 36.12,28.07 35.88,27.99 35.75,28.17 C 35.77,28.25 35.78,28.33 35.77,28.41 A 0.42,0.42 0 0,1 35.17,28.33 A 0.44,0.44 0 0,1 35.09,28.12 C 35.19,28.09 35.29,28.03 35.36,27.94 V 27.54 H 35.16 C 35.11,27.62 35.14,27.79 35.04,27.82 C 34.87,27.82 34.74,27.86 34.58,27.87 V 27.57 C 34.25,27.51 34.17,27.69 34.07,27.87 C 34.33,28.08 34.57,28.32 34.8,28.59 C 34.69,28.65 34.63,28.76 34.5,28.81 C 33.67,28.27 33.42,29.52 32.55,29.16 L 32.31,30.2 C 32.66,30.15 32.91,29.95 33.29,29.88 C 33.64,29.82 34.03,29.91 34.39,29.81 C 34.6,29.74 34.82,29.52 35.09,29.43 C 35.24,29.39 35.39,29.35 35.56,29.33 C 35.99,29.29 36.64,29.49 37.02,29.28 C 37.19,29.2 37.3,28.88 37.46,28.78 C 37.54,28.74 37.68,28.74 37.8,28.68 C 37.9,28.64 38,28.53 38.1,28.48 C 38.4,28.34 38.73,28.25 39.07,28.22 C 39.17,27.96 39.11,27.68 39.24,27.49 C 39.33,27.38 39.56,27.39 39.54,27.19 A 0.75,0.75 0 0,0 38.68,27.27 L 38.63,27.54 C 38.52,27.57 38.43,27.62 38.31,27.64 A 0.47,0.47 0 0,1 38.19,27.17 C 38.33,27.1 38.49,27.05 38.44,26.77 A 1.99,1.99 0 0,1 38.02,26.67 Z M 39.68,27.97 C 39.92,27.84 40.1,27.43 40.38,27.37 C 40.72,27.3 41.53,27.6 41.8,27.32 A 0.3,0.3 0 0,0 41.6,26.82 C 41.3,26.78 41.02,27.05 40.8,27.07 C 40.47,27.11 40.38,26.85 40.1,26.92 C 40.05,27.35 39.77,27.67 39.68,27.97 Z M 11.95,27.4 V 27.94 C 12.19,28.07 12.43,28.18 12.69,28.27 C 12.75,28.04 12.84,27.81 12.93,27.59 C 12.59,27.51 12.28,27.14 11.95,27.39 Z M 14,28.79 C 14.03,28.57 14.05,28.34 14.05,28.12 C 14.23,28.06 14.35,27.95 14.54,27.89 V 27.49 C 13.63,27.45 13.16,27.96 13.39,28.94 L 12.61,28.61 V 29.03 C 12.98,29.17 13.38,29.2 13.76,29.13 C 13.81,29.23 13.86,29.35 13.88,29.46 C 14.18,29.36 14.38,29.45 14.64,29.36 C 14.86,29.28 14.97,29.02 15.18,28.99 C 15.38,28.95 15.55,29.11 15.81,29.11 C 15.77,28.31 14.45,28.45 14.01,28.79 Z M 23.25,28.59 A 1.2,1.2 0 0,1 22.65,28.27 A 0.72,0.72 0 0,0 22.55,27.89 C 22.36,27.68 21.46,27.69 21.38,27.97 C 21.76,28.28 22.06,28.67 22.77,28.67 C 22.82,28.77 22.87,28.87 22.91,28.99 C 23.13,28.98 23.29,29.03 23.52,29.01 C 23.85,29.31 24.23,29.53 24.65,29.66 C 25.23,29.76 25.91,29.56 26.45,29.68 C 26.75,29.75 26.92,29.96 27.18,30.03 C 27.03,29.51 26.69,29.08 26.23,28.81 C 26.22,29.05 26.02,29.24 25.77,29.08 C 25.77,28.98 25.79,28.85 25.75,28.78 C 25.37,28.7 24.77,28.84 24.89,28.24 C 24.73,28.04 24.25,27.78 23.99,27.99 C 23.96,28.5 24.49,28.44 24.55,28.86 C 24.52,28.99 24.34,28.96 24.18,28.96 C 24.01,28.86 23.97,28.63 23.91,28.41 C 23.86,28.42 23.82,28.45 23.74,28.44 C 23.84,29.04 23.4,29.01 23.25,28.59 Z M 11.05,27.87 C 10.75,27.88 10.55,28.17 10.25,28.19 C 10,28.21 9.72,27.92 9.49,28.16 C 9.55,28.74 10.14,28.89 10.66,28.91 C 10.67,28.78 10.64,28.61 10.69,28.51 C 11.04,28.55 11.39,28.46 11.69,28.26 C 11.47,28.14 11.25,28.01 11.05,27.86 Z M 16.74,28.14 C 16.79,28.44 17.41,28.32 17.74,28.31 C 17.83,27.98 16.66,27.65 16.74,28.14 Z M 30.02,27.89 C 29.94,28.1 29.85,28.31 29.75,28.51 C 29.81,28.61 29.85,28.74 29.87,28.86 C 29.43,29.07 28.93,29.14 28.45,29.06 C 28.53,29.24 28.83,29.41 28.95,29.63 C 29.36,29.75 29.8,29.98 30.38,29.86 C 30.63,29.46 30.97,29.14 31.14,28.66 A 1,1 0 0,1 30.74,28.54 C 30.74,28.3 30.78,28.02 30.65,27.92 A 3.27,3.27 0 0,0 30.02,27.89 Z M 19.52,28.41 C 19.42,28.75 19.89,28.96 19.62,29.31 C 19.27,29.41 18.94,29.11 18.74,28.91 C 18.79,28.81 18.89,28.65 18.81,28.51 A 0.43,0.43 0 0,0 18.41,28.61 A 0.45,0.45 0 0,0 18.28,29.01 C 18.29,29.18 18.52,29.32 18.52,29.48 C 18.52,29.64 18.39,29.72 18.3,29.81 C 18.63,30.21 19.21,30.08 19.79,30.08 C 20.26,30.08 20.67,30.3 21.11,30.33 C 21.69,30.36 22.29,30.07 22.84,30.08 C 22.94,29.91 22.99,29.68 23.14,29.56 C 23.3,29.56 23.41,29.51 23.59,29.53 C 23.36,28.95 21.79,29.83 21.89,28.96 C 21.45,28.89 21.15,28.69 20.62,28.71 C 20.65,28.85 20.93,28.95 21.03,29.11 C 20.78,29.25 20.49,29.31 20.2,29.26 C 19.95,29.03 20.33,28.72 20.2,28.39 A 2.02,2.02 0 0,0 19.52,28.41 Z M 12.05,28.99 C 12.01,28.85 12.09,28.72 12.05,28.61 C 11.95,28.31 11.6,28.47 11.45,28.74 C 11.52,28.79 11.63,28.81 11.66,28.91 C 11.63,29.16 11.32,29.13 11.22,29.31 A 1.02,1.02 0 0,0 12.27,29.34 C 12.3,29.2 12.09,29.12 12.05,28.99 Z M 17.35,29.21 C 16.92,28.95 16.6,29.58 16.13,29.66 C 15.68,29.73 15.56,29.51 15.15,29.43 C 14.93,29.66 14.82,29.99 14.61,30.23 C 14.96,30.3 15.27,30.51 15.61,30.45 C 15.96,30.4 16.15,29.97 16.57,29.88 C 16.93,29.8 17.17,29.88 17.62,29.81 C 17.52,29.58 17.52,29.31 17.35,29.21 Z M 24.57,30.08 C 24.19,29.99 23.89,29.67 23.33,29.81 C 23.22,29.96 23.15,30.16 23.03,30.31 C 22.73,30.34 22.43,30.41 22.13,30.51 C 22.79,30.48 23.43,30.67 24.06,30.61 C 24.43,30.56 24.72,30.37 25.08,30.41 C 25.62,30.45 26.13,30.69 26.58,30.41 C 26.2,29.99 25.2,30.23 24.57,30.08 Z" fill="rgb(254, 254, 253)"/>
</svg>
