<?xml version="1.0" encoding="UTF-8"?>
<!-- generated by Finnhub -->
<svg viewBox="0 0 55.5 55.5" xmlns="http://www.w3.org/2000/svg">
<path d="M 0,0 H 55.5 V 55.5 H 0 Z" fill="rgb(239, 242, 248)"/>
<path d="M 7.99,17.985 H 21.48 L 25.78,25.04 L 18.78,18.66 L 25.83,26.76 L 15.92,22.96 L 25.22,27.58 H 15.37 L 25.22,28.92 L 16.62,32.44 L 25.83,29.89 L 19.33,37.16 L 27,30.56 L 19.8,44 L 8,18 Z" fill="rgb(30, 52, 92)"/>
<path d="M 47.99,17.985 H 34.52 L 30.09,25.26 L 37.33,18.66 L 30.28,26.76 L 40.19,22.96 L 30.89,27.58 H 40.74 L 30.89,28.92 L 39.49,32.44 L 30.28,29.89 L 36.78,37.16 L 28.91,30.38 L 36.2,44 L 48,18 Z" fill="rgb(1, 123, 184)"/>
</svg>
