<?xml version="1.0" encoding="UTF-8"?>
<!-- generated by Finnhub -->
<svg viewBox="0 0 55.5 55.5" xmlns="http://www.w3.org/2000/svg">
<path d="M 0,0 H 55.5 V 55.5 H 0 Z" fill="rgb(239, 242, 248)"/>
<path d="M 17.259999999999998,25.985 H 15.09 C 14.53,24.64 13.26,24 11.89,24 C 9.3,24 8,26.1 8,28.5 S 9.28,33 11.88,33 C 13.27,33 14.56,32.42 15.09,31 H 17.27 C 16.84,33.48 14.23,35 11.87,35 A 5.51,5.51 0 0,1 6.76,31.98 A 7.45,7.45 0 0,1 6,28.5 C 6,27.15 6.26,25.99 6.77,25.02 A 5.47,5.47 0 0,1 11.87,22 C 14.26,22 16.85,23.47 17.27,26 Z M 20,35 V 22 H 28 V 24 H 22 V 28 H 27 V 30 H 22 V 35 H 20 Z M 31,35 V 22 H 39 V 24 H 33 V 28 H 38 V 30 H 33 V 35 H 31 Z M 41,35 V 22 H 49 V 24 H 43 V 27.5 H 48 V 29.5 H 43 V 33 H 49 V 35 H 41 Z"/>
</svg>
