<?xml version="1.0" encoding="UTF-8"?>
<!-- generated by Finnhub -->
<svg viewBox="0 0 55.5 55.5" xmlns="http://www.w3.org/2000/svg">
<path d="M 0,0 H 55.5 V 55.5 H 0 Z" fill="rgb(239, 242, 248)"/>
<path d="M 7.88,24.985 H 9 L 7.06,27.5 L 9,30 H 7.89 L 6.5,28.21 L 5.11,30 H 4 L 5.94,27.5 L 4,25 H 5.11 L 6.5,26.79 L 7.89,25 Z" fill="rgb(1, 162, 70)"/>
<path d="M 9.69,26.985 C 9.32,27 9,27.29 9,27.65 V 29.35 C 9,29.71 9.32,30 9.7,30 H 12 V 29.43 H 9.62 V 27.57 H 12 V 27 H 9.7 Z M 48.7,27 C 48.32,27 48,27.29 48,27.65 V 29.35 C 48,29.71 48.32,30 48.7,30 H 51 V 29.43 H 48.62 V 27.57 H 51 V 27 H 48.7 Z M 13.35,27 C 13.15,27 13,27.15 13,27.32 V 29.35 C 13,29.71 13.32,30 13.7,30 H 16 V 29.43 H 13.62 V 27.57 H 16 V 27 H 13.35 Z" fill="rgb(23, 57, 127)"/>
<path d="M 13.99,27.985 H 16 V 28.5 H 14 V 28 Z M 22,28 H 24 V 28.5 H 22 V 28 Z" fill="rgb(23, 57, 127)"/>
<path d="M 21.34,26.985 C 21.15,27 21,27.15 21,27.32 V 29.35 C 21,29.71 21.32,30 21.7,30 H 24 V 29.43 H 21.62 V 27.57 H 24 V 27 H 21.35 Z M 37.35,27 C 37.15,27 37,27.15 37,27.32 V 29.35 C 37,29.71 37.32,30 37.7,30 H 40 V 29.43 H 37.62 V 27.57 H 40 V 27 H 37.35 Z" fill="rgb(23, 57, 127)"/>
<path d="M 37.99,27.985 H 40 V 28.5 H 38 V 28 Z M 17.64,29.43 V 27 H 17 V 29.68 C 17,29.85 17.16,30 17.36,30 H 20 V 29.43 H 17.64 Z M 30.54,27 C 29.69,27 29,27.69 29,28.54 V 30 H 29.57 V 28.54 C 29.57,28.04 29.97,27.64 30.46,27.64 H 31.43 V 30 H 32 V 27.4 A 0.4,0.4 0 0,0 31.6,27 H 30.54 Z" fill="rgb(23, 57, 127)"/>
<path d="M 29.49,28.485 H 32 V 29 H 29.5 V 28.5 Z M 36,27 H 33 V 27.57 H 34.17 V 30 H 34.75 V 27.57 H 36 V 27 Z M 25,27 H 27.13 C 27.57,27 28,27.36 28,27.81 C 28,28.41 27.5,28.87 26.96,28.98 L 28,30 H 27.2 L 26.19,29 H 25.79 V 28.46 H 26.79 C 27.11,28.46 27.45,28.19 27.45,27.86 C 27.45,27.7 27.24,27.56 27.08,27.56 H 25.55 V 30 H 25 V 27 Z M 42,27 H 42.66 V 30 H 42 V 27 Z M 44,27.4 A 0.4,0.4 0 0,1 44.68,27.13 L 46.43,29.08 V 27 H 47 V 29.6 A 0.4,0.4 0 0,1 46.32,29.87 L 44.57,27.94 V 30 H 44 V 27.4 Z M 40.5,29 H 41.06 L 40.69,30.5 H 40.27 L 40.5,29 Z" fill="rgb(23, 57, 127)"/>
<path d="M 20.319999999999997,25.785 H 21.03 A 7.21,7.21 0 0,1 20.52,23.14 C 20.52,21.62 21.59,20.71 22.72,20.71 C 25.82,20.71 29.89,24.19 32,26 C 28.77,22.33 25.06,20 22.72,20 C 20.38,20 20,21.95 20,23.14 C 20,24.1 20.22,25.32 20.33,25.81 Z" fill="rgb(1, 162, 70)"/>
<path d="M 36.99,25.985 H 36.3 C 36.3,25.29 35.24,20.66 31.08,20.66 C 26.91,20.66 23.7,25.08 23,25.9 C 23.1,25.7 26.26,20 31.28,20 C 35.29,20 36.77,24 37,26 Z M 31.01,31.17 H 32 C 25.76,35.63 21.86,36 20.6,36 C 19.35,36 18,35.21 18,33.85 C 18,32.76 18.75,31.5 19.12,31 C 18.82,31.54 18.22,32.84 18.22,33.77 C 18.22,34.93 19.3,35.55 20.6,35.55 C 24.2,35.55 29.04,32.63 31.01,31.17 Z" fill="rgb(1, 162, 70)"/>
<path d="M 26.069999999999997,30.985 H 25 C 28.55,34.08 32.44,36 34.85,36 C 36.72,36 38,35.19 38,33.78 C 38,32.65 37.75,31.9 37.36,31.18 C 37.61,31.77 37.76,32.73 37.76,33.69 C 37.76,34.89 36.72,35.53 35.29,35.53 C 31.89,35.53 28.1,32.53 26.09,31 Z" fill="rgb(1, 162, 70)"/>
<path d="M 34.11,30.985 H 35 C 33.98,32.14 30.95,36 26.32,36 C 22.61,36 21.22,32.84 21,31.25 A 5.32,5.32 0 0,0 26.32,35.49 C 29.91,35.49 33.02,32.49 34.12,31 Z M 39.49,25.8 H 38.66 C 38.83,25.43 39.49,24.27 39.49,23.05 A 2.32,2.32 0 0,0 37.13,20.71 C 34.07,20.71 28.09,24.19 26,26 C 29.2,22.33 34.8,20 37.13,20 C 39.44,20 40,21.86 40,23.05 C 40,24 39.6,25.32 39.49,25.81 Z" fill="rgb(1, 162, 70)"/>
<circle cx="51.7" cy="29.7" r=".3" fill="rgb(23, 57, 127)"/>
</svg>
