<?xml version="1.0" encoding="UTF-8"?>
<!-- generated by Finnhub -->
<svg viewBox="0 0 55.5 55.5" xmlns="http://www.w3.org/2000/svg">
<path d="M 0,0 H 55.5 V 55.5 H 0 Z" fill="rgb(239, 242, 248)"/>
<path d="M 14.290000000000001,20.985 H 17 A 312.96,312.96 0 0,1 12.41,27.46 L 17.67,35 H 14.3 C 14.59,34.75 14.99,34 14.3,33.09 C 14,32.68 12.82,30.97 11.39,28.88 C 9.87,30.98 8.61,32.68 8.31,33.09 C 7.62,34.01 8.33,34.75 8.61,35 H 6 C 7.3,33.16 9.2,30.57 10.94,28.24 L 6,21 H 9.38 C 9.13,21.23 8.65,21.76 8.76,22.07 C 8.81,22.22 10.21,24.27 11.98,26.83 L 12.1,26.68 C 13.77,24.43 15.07,22.68 15.12,22.54 C 15.22,22.22 14.54,21.23 14.29,21 Z M 28.43,24.04 C 27.63,23.08 26.13,21.32 23.5,21.3 C 21.84,21.38 18.5,22.77 18.5,27.74 C 18.63,30.04 19.95,34.5 24,34.5 C 24.8,34.5 26.84,34.39 28.68,32 H 29 V 33.12 C 28.18,33.74 26.03,35 24,35 C 21.47,35 17,33.54 17,27.74 C 17,25.6 18.9,21 23.54,21 C 24.66,20.97 27.21,21.22 28.49,22.5 V 24.12 L 28.43,24.04 Z M 38.5,21 H 30.02 C 30.42,21.12 30.92,21.73 31,21.98 V 33.71 C 31,34.78 30.26,34.99 30,35 H 38.45 L 39,32.93 C 38.28,34.09 37.17,34.37 36.67,34.49 L 36.65,34.5 H 32.5 V 28 H 35.17 C 35.77,28 36.22,28.54 36.37,28.84 V 26.5 C 36.37,26.99 35.57,27.34 35.17,27.45 H 32.5 V 21.5 H 36.36 C 37.17,21.5 38.46,22.7 39,23.29 L 38.5,21 Z M 41,21 H 44 C 43.73,21.19 43.5,21.73 43.5,22.4 V 34.5 H 47.83 L 47.86,34.49 C 48.36,34.27 49.43,33.8 50,32.72 L 49.48,35 H 41.1 C 41.36,34.88 42.01,34.43 42.01,33.65 V 22.4 C 42.03,22.06 41.76,21.3 41.01,20.99 Z"/>
</svg>
