<?xml version="1.0" encoding="UTF-8"?>
<!-- generated by Finnhub -->
<svg viewBox="0 0 55.5 55.5" xmlns="http://www.w3.org/2000/svg">
<path d="M 0,0 H 55.5 V 55.5 H 0 Z" fill="rgb(239, 242, 248)"/>
<path d="M 5.99,22.985 H 8.63 L 18,36 H 15.37 L 6,23 Z" fill="rgb(1, 1, 0)"/>
<path d="M 16.99,22.985 H 14.59 L 6,36 H 8.41 L 17,23 Z" fill="rgb(1, 1, 0)"/>
<circle cx="18" cy="29" r="1" fill="rgb(1, 1, 0)"/>
<circle cx="22" cy="21" r="1" fill="rgb(1, 1, 0)"/>
<path d="M 20.99,22.985 H 23 V 36 H 21 Z M 26,33.18 V 19 H 28 V 32.63 C 28,33.62 28.7,33.96 28.99,34 H 30 V 36 H 28.4 C 26.66,36 26.07,34.07 26,33.18 Z" fill="rgb(1, 1, 0)"/>
<path d="M 32.99,21.985 A 1,1 0 1,0 33,20 A 1,1 0 0,0 33,22 Z M 34,36 V 23 H 32 V 36 H 34 Z M 37,20 H 50 V 22 H 37 V 20 Z M 50,29.5 A 6.5,6.5 0 1,1 37,29.5 A 6.5,6.5 0 0,1 50,29.5 Z M 48,29.5 A 4.5,4.5 0 1,1 39,29.5 A 4.5,4.5 0 0,1 48,29.5 Z" fill="url(#a)" fill-rule="evenodd"/>
<defs>
<linearGradient id="a" x1="32.12" x2="41.82" y1="22.89" y2="22.74" gradientUnits="userSpaceOnUse">
<stop stop-color="rgb(232, 32, 2)" offset="0"/>
<stop stop-color="rgb(254, 170, 6)" offset="1"/>
</linearGradient>
</defs>
</svg>
