<?xml version="1.0" encoding="UTF-8"?>
<!-- generated by Finnhub -->
<svg viewBox="0 0 55.5 55.5" xmlns="http://www.w3.org/2000/svg">
<path d="M 0,0 H 55.5 V 55.5 H 0 Z" fill="url(#a)"/>
<path d="M 51.760000000000005,22.985 H 50.72 A 0.23,0.23 0 0,0 50.57,23.08 A 0.31,0.31 0 0,0 50.5,23.27 V 32.73 C 50.5,32.8 50.53,32.87 50.57,32.92 C 50.61,32.97 50.67,33 50.73,33 H 51.77 C 51.83,33 51.89,32.97 51.93,32.92 A 0.31,0.31 0 0,0 52,32.73 V 23.27 A 0.3,0.3 0 0,0 51.99,23.17 A 0.26,0.26 0 0,0 51.94,23.07 A 0.21,0.21 0 0,0 51.86,23.02 A 0.19,0.19 0 0,0 51.77,23 Z" fill="rgb(72, 54, 141)"/>
<path d="M 9.93,22.814999999999998 L 9.17,22.06 A 0.29,0.29 0 0,0 8.83,22.06 L 8.06,22.83 A 0.29,0.29 0 0,0 8.06,23.17 L 8.83,23.94 A 0.29,0.29 0 0,0 9.17,23.94 L 9.94,23.17 A 0.29,0.29 0 0,0 9.94,22.83 Z" fill="rgb(140, 185, 54)"/>
<path d="M 34.72,31.485 H 29.32 C 28.84,31.51 28.5,31.03 28.51,30.55 V 29.53 C 28.5,29.05 28.84,28.59 29.31,28.6 H 33.77 C 33.83,28.6 33.88,28.57 33.93,28.52 A 0.3,0.3 0 0,0 34,28.33 V 27.27 A 0.3,0.3 0 0,0 33.93,27.09 A 0.25,0.25 0 0,0 33.77,27 H 29.32 C 28.84,27.01 28.5,26.55 28.51,26.08 V 25.48 C 28.5,25.01 28.84,24.48 29.31,24.5 H 34.77 C 34.91,24.49 34.99,24.46 35,24.3 V 23.27 A 0.3,0.3 0 0,0 34.93,23.08 A 0.24,0.24 0 0,0 34.77,23 H 27.23 A 0.24,0.24 0 0,0 27.07,23.08 A 0.3,0.3 0 0,0 27,23.27 V 32.73 C 27,32.8 27.03,32.87 27.07,32.92 C 27.12,32.97 27.17,33 27.23,33 H 34.77 C 34.83,33 34.88,32.97 34.93,32.92 A 0.3,0.3 0 0,0 35,32.73 V 31.75 A 0.34,0.34 0 0,0 34.9,31.56 C 34.86,31.51 34.8,31.5 34.73,31.5 Z" fill="rgb(123, 35, 141)"/>
<path d="M 24.0,24.044999999999998 A 3.26,3.26 0 0,0 21.67,23 H 15.25 A 0.26,0.26 0 0,0 15.08,23.08 A 0.3,0.3 0 0,0 15,23.27 V 24.33 C 15,24.4 15.03,24.46 15.08,24.51 C 15.12,24.56 15.18,24.59 15.25,24.59 H 15.62 A 0.8,0.8 0 0,1 16.23,24.86 A 0.92,0.92 0 0,1 16.48,25.52 V 32.73 C 16.48,32.8 16.51,32.87 16.56,32.92 C 16.6,32.97 16.66,33 16.73,33 H 17.74 C 17.81,33 17.87,32.97 17.91,32.92 A 0.3,0.3 0 0,0 18,32.73 V 31.01 A 1.01,1.01 0 0,1 18.26,30.29 A 0.87,0.87 0 0,1 18.93,30 H 21.67 A 3.15,3.15 0 0,0 24.02,28.93 C 24.64,28.26 24.99,27.53 25,26.58 A 3.77,3.77 0 0,0 24.01,24.06 Z M 21.54,28.5 H 18.86 A 0.86,0.86 0 0,1 18,27.6 V 25.52 A 0.97,0.97 0 0,1 18.25,24.86 A 0.8,0.8 0 0,1 18.87,24.59 H 21.54 A 1.73,1.73 0 0,1 22.86,25.17 A 2,2 0 0,1 23.4,26.58 C 23.39,27.11 23.2,27.57 22.85,27.94 C 22.5,28.31 22.03,28.49 21.55,28.5 Z" fill="rgb(153, 40, 110)"/>
<path d="M 13.93,31.715 L 10.34,28.15 A 0.26,0.26 0 0,1 10.34,27.81 L 13.94,24.23 A 0.26,0.26 0 0,0 13.94,23.88 L 13.11,23.06 A 0.26,0.26 0 0,0 12.77,23.06 L 9.47,26.34 A 0.68,0.68 0 0,1 8.52,26.34 L 5.23,23.06 A 0.33,0.33 0 0,0 4.84,23.06 L 4.06,23.88 A 0.26,0.26 0 0,0 4.06,24.23 L 7.66,27.81 A 0.26,0.26 0 0,1 7.66,28.15 L 4.06,31.73 A 0.26,0.26 0 0,0 4.06,32.07 L 4.84,32.94 A 0.26,0.26 0 0,0 5.19,32.94 L 8.48,29.66 A 0.68,0.68 0 0,1 9.43,29.66 L 12.73,32.94 A 0.26,0.26 0 0,0 13.07,32.94 L 13.89,32.12 A 0.27,0.27 0 0,0 13.94,31.72 Z" fill="rgb(180, 25, 99)"/>
<path d="M 47.79,32.714999999999996 A 0.18,0.18 0 0,0 47.77,32.6 L 45.7,29.95 L 45.58,29.81 A 0.17,0.17 0 0,1 45.54,29.75 V 29.68 C 45.54,29.64 45.54,29.59 45.57,29.55 A 0.23,0.23 0 0,1 45.66,29.46 C 45.93,29.32 46.18,29.12 46.39,28.88 A 3.66,3.66 0 0,0 47.13,25.13 A 3.33,3.33 0 0,0 44.2,23 H 37.74 A 0.25,0.25 0 0,0 37.58,23.08 A 0.3,0.3 0 0,0 37.5,23.27 V 24.33 C 37.5,24.4 37.53,24.46 37.58,24.51 C 37.62,24.56 37.68,24.59 37.74,24.59 C 38.32,24.59 39.02,24.78 39,25.52 L 38.96,32.73 C 38.96,32.8 38.99,32.87 39.04,32.92 C 39.08,32.97 39.14,33 39.2,33 H 40.34 C 40.4,33 40.46,32.97 40.51,32.92 A 0.3,0.3 0 0,0 40.58,32.73 V 30.88 A 0.84,0.84 0 0,1 41.44,30 H 43.34 C 43.54,30 43.72,30.04 43.84,30.21 L 45.45,32.29 L 45.82,32.78 C 45.94,32.91 46.1,32.99 46.27,33 H 47.61 C 47.73,32.91 47.81,32.82 47.81,32.73 Z M 44.03,28.5 H 41.43 C 41.33,28.5 41.21,28.45 41.11,28.4 A 0.83,0.83 0 0,1 40.83,28.2 A 0.98,0.98 0 0,1 40.59,27.54 V 25.44 C 40.57,24.96 40.94,24.49 41.44,24.5 H 44.04 C 44.49,24.5 44.92,24.7 45.24,25.05 C 45.56,25.4 45.74,25.87 45.74,26.36 C 45.74,26.86 45.56,27.54 45.24,27.9 C 44.92,28.25 44.49,28.49 44.04,28.5 Z" fill="rgb(84, 42, 152)"/>
<defs>
<linearGradient id="a" x1="10.42" x2="68.15" y1="9.71" y2="76.02" gradientUnits="userSpaceOnUse">
<stop stop-color="rgb(25, 29, 31)" offset="0"/>
<stop stop-color="rgb(5, 5, 8)" offset="1"/>
</linearGradient>
</defs>
</svg>
