<?xml version="1.0" encoding="UTF-8"?>
<!-- generated by Finnhub -->
<svg viewBox="0 0 55.5 55.5" xmlns="http://www.w3.org/2000/svg">
<path d="M 0,0 H 55.5 V 55.5 H 0 Z" fill="rgb(239, 242, 248)"/>
<path d="M 17.779999999999998,32.065 C 15.95,32.28 15.25,32.8 13.59,33.56 C 11.83,34.36 11.98,35.32 12.02,37.92 C 13.38,37.96 13.67,37.64 15.07,37.16 C 13.63,39.16 12.42,38.44 12.24,40 H 44 V 21.72 C 40.67,22.48 38.61,22.68 44,20.8 L 43.5,16 C 42.98,16.32 15.03,36.52 17.79,32.08 Z" fill="rgb(17, 14, 25)"/>
<path d="M 20.7,22.765 C 18.03,23.27 14.91,25 12.75,26.21 L 12.83,25.58 C 12.97,24.37 13.01,23.96 13.85,22.98 C 14.55,22.38 15.49,21.74 16.35,21.15 C 17,20.71 17.6,20.3 18.03,19.95 L 21.86,16 L 23.84,16.12 C 23.37,16.53 23.28,16.59 23.28,16.65 C 23.28,16.72 23.38,16.79 23.22,17.29 C 24.12,17.19 24.15,17.36 24.24,17.39 C 24.34,17.42 24.54,17.24 26.48,16.04 L 29.73,16 C 29.36,17.13 28.61,17.7 27.78,18.34 C 27.42,18.61 27.05,18.89 26.7,19.23 C 26.49,19.43 26.26,19.62 26.04,19.81 C 25.16,20.58 24.28,21.35 24.28,21.89 C 25.95,21.67 27.31,20.72 28.78,19.7 C 30.53,18.47 32.44,17.13 35.23,16.85 L 35.41,16 H 38.94 C 37.74,18.5 35.86,19.55 32.85,18.79 L 29.03,21.45 L 27.99,22.21 C 26.29,23.47 25.51,24.05 22.87,25.01 C 21.42,25.29 19.04,26.46 17.46,27.31 C 17.26,27.41 17.04,27.55 16.79,27.69 C 11.55,30.71 12.52,31.53 12.22,27.59 C 14.22,26.72 14.67,26.92 14.94,27.04 C 15.24,27.17 15.32,27.21 16.97,25.64 C 17.72,24.94 17.87,24.91 18.11,24.84 C 18.29,24.8 18.51,24.74 19.09,24.36 L 20.71,22.78 Z" fill="rgb(184, 157, 15)"/>
<path d="M 16.79,32.775 C 17.07,32.71 17.52,32.44 18.16,31.6 C 19.78,31.4 22.97,28.58 24.95,27 C 29.57,23.3 35.82,21.24 39.16,16 H 40.42 C 39.18,18.8 38.94,18.07 41.8,17.13 C 41.98,19.17 39.8,20.58 38.78,21.21 A 5.04,5.04 0 0,0 37.63,22.11 L 36.95,22.71 L 33.16,27.22 C 32.83,27.98 32.96,28.07 32.96,28.15 C 32.96,28.22 32.86,28.29 32.24,28.8 C 30.12,30.55 29.41,31.36 28.8,32.04 C 28.24,32.67 27.77,33.2 26.34,34.29 L 26.3,34.34 A 0.63,0.63 0 0,1 26.12,34.49 L 23.27,36.31 L 23.12,36.37 C 22.1,36.82 20.5,37.52 19.75,37.6 C 22.85,35.95 23.24,35.36 23.57,34.86 C 23.71,34.66 23.83,34.48 24.1,34.25 C 24.59,33.85 24.92,33.7 25.26,33.55 C 25.66,33.38 26.07,33.2 26.74,32.59 C 28.04,31.41 27.84,31.31 27.67,31.22 C 27.59,31.18 27.52,31.14 27.57,31.02 C 27.7,30.72 27.71,30.71 27.87,30.63 C 27.97,30.58 28.15,30.48 28.5,30.21 C 29.22,29.64 29.77,29.24 30.2,28.91 C 31.65,27.84 31.88,27.66 33.34,25.37 C 33.82,24.57 34.06,24.34 34.29,24.14 C 34.47,23.96 34.64,23.81 34.92,23.34 C 33.34,23.59 29.02,26.62 27.71,27.87 C 25.95,29.57 17.68,33.8 15.04,34.94 C 16.13,32.98 16.44,32.89 16.8,32.79 Z" fill="rgb(184, 157, 15)"/>
<path d="M 32.84,18.735 C 32.15,20.45 28.63,23.56 26.7,24.82 C 22.75,27.4 19.89,28.82 15.28,30.4 C 14.44,30.68 14.48,30.72 13.78,30.96 L 12.02,31.69 C 12.46,31.97 10.79,33.31 15.85,31.37 C 16.99,30.92 18.09,30.56 19.15,30.23 L 18.15,31.6 C 20.45,31.32 25.91,26.4 26.44,26.1 C 29.6,24.57 29.51,26.15 32.33,22.75 A 7.93,7.93 0 0,1 34.87,20.61 C 35.97,19.96 36.59,19.76 37.51,18.63 L 39.18,16 H 38.7 C 37.42,18.67 36.9,16.24 36.33,18.75 L 34.83,18.06 C 33.95,17.94 33.91,18.26 32.85,18.75 Z M 20.24,16.44 C 17.79,22.4 12.97,22.48 12.44,23.24 C 12.27,23.52 12.18,23.96 12.4,25.32 C 12.49,26.12 11.53,25.48 12.93,26.2 C 13.15,24.44 13.89,24.32 14.94,23.24 L 15.34,22.8 C 16.87,21.24 16.44,22.04 17.53,21.2 L 22,16.12 C 21.12,16.24 20.77,16.32 20.24,16.44 Z" fill="rgb(17, 14, 25)"/>
<path d="M 24.279999999999998,21.785 C 26.37,23.07 30.61,17.87 35.68,17.35 L 35.24,16 L 31.91,16.04 C 30.87,17.24 29.87,17.94 28.41,19.14 C 27.28,20.05 25.41,20.89 24.29,21.8 Z M 20.24,16.44 A 8.57,8.57 0 0,0 14.94,16.48 C 11.57,17.96 12.14,17.96 12.1,19.2 C 13.15,18.76 12.45,18.88 13.58,18.4 L 20.24,16.44 Z M 23.35,17.4 C 22.39,18.8 18.18,22.2 16.61,23.04 C 18.97,22.6 25.63,17.6 26.59,16.16 C 24.97,16.24 24.49,16.68 23.35,17.4 Z M 12.62,30.44 C 14.72,29.92 16.04,29.04 17.92,27.96 C 19.42,27.16 21.95,25.92 22.96,25 C 22.39,25.12 21.6,24.48 20.81,24.8 C 19.67,25.28 18.23,25.64 17.31,26.12 C 16.04,26.8 13.89,29.44 12.36,29.64 C 12.06,31.24 12.18,30.08 12.62,30.44 Z" fill="rgb(17, 14, 25)"/>
<path d="M 41.800000000000004,17.185 C 42.43,16.5 41.87,17.59 42.25,16 H 40.28 C 39.66,17.46 39.72,17.22 39.18,18.4 C 40.47,17.83 40.65,17.6 41.81,17.2 Z" fill="rgb(18, 14, 15)"/>
</svg>
