<?xml version="1.0" encoding="UTF-8"?>
<!-- generated by Finnhub -->
<svg viewBox="0 0 55.5 55.5" xmlns="http://www.w3.org/2000/svg">
<path d="M 0,0 H 55.5 V 55.5 H 0 Z" fill="rgb(239, 242, 248)"/>
<path d="M 36.49,25.064999999999998 S 36.98,21.91 32.5,21.91 C 28.03,21.91 13.47,25.04 12.88,31.83 C 12.8,32.9 14.81,34 14.81,34 S 11,33.5 11,31.12 C 11,28.18 18.78,20 31.1,20 C 39.41,20 36.5,25.08 36.5,25.08 Z" fill="rgb(254, 203, 2)"/>
<path d="M 10.99,30.985 H 8.94 L 7.5,29.05 L 6.06,31 H 4 L 6.57,27.8 L 4.47,25 H 6.57 L 7.5,26.56 L 8.56,25 H 10.66 L 8.52,27.8 L 11,31 Z M 14.5,27 H 13.5 V 31 H 12 V 27 H 11 V 26 H 12 V 25 H 13.5 V 26 H 14.5 V 27 Z" fill="rgb(23, 26, 28)"/>
<path d="M 14.790000000000001,27.285 H 13.8 V 31.3 H 11.7 V 27.3 H 10.7 V 25.7 H 11.7 V 24.7 H 13.8 V 25.7 H 14.8 V 27.3 Z M 13.5,26 V 25 H 12 V 26 H 11 V 27 H 12 V 31 H 13.5 V 27 H 14.5 V 26 H 13.5 Z" fill="rgb(239, 242, 248)"/>
<path d="M 17.99,27.665 C 17.8,27.56 17.6,27.5 17.4,27.5 C 16.61,27.5 16.5,28.25 16.5,28.9 V 31 H 15 V 26 H 16.5 V 26.88 C 16.77,26.35 17.1,26 17.72,26 C 17.8,26 17.89,26 18,26.02 V 27.68 Z" fill="rgb(23, 26, 28)"/>
<path d="M 18.29,28.185 L 17.85,27.94 A 0.87,0.87 0 0,0 17.4,27.8 A 0.54,0.54 0 0,0 17.1,27.88 A 0.48,0.48 0 0,0 16.93,28.08 A 2,2 0 0,0 16.8,28.89 V 31.3 H 14.7 V 25.7 H 16.8 V 26 C 17.05,25.8 17.35,25.7 17.73,25.7 C 17.81,25.7 17.92,25.7 18.03,25.72 L 18.3,25.75 V 28.21 Z M 16.8,26.42 C 16.69,26.55 16.6,26.7 16.5,26.88 V 26 H 15 V 31 H 16.5 V 28.9 C 16.5,28.25 16.61,27.5 17.4,27.5 A 1.3,1.3 0 0,1 18,27.68 V 26.02 L 17.73,26 C 17.31,26 17.03,26.16 16.8,26.42 Z" fill="rgb(239, 242, 248)"/>
<path d="M 23.99,30.985 H 22.5 V 30.33 C 22.1,30.79 21.22,31 20.6,31 C 19.2,31 18,29.92 18,28.5 C 18,27.07 19.18,26 20.58,26 C 21.18,26 22,26 22.5,26.61 V 26 H 24 V 31 Z M 22.55,28.5 C 22.55,27.5 21.94,27 21,27 C 19.94,27 19.5,27.87 19.5,28.5 S 20,30 21,30 S 22.55,29.5 22.55,28.5 Z M 25,28 H 27 V 29 H 25 V 28 Z" fill="rgb(23, 26, 28)"/>
<path d="M 34.63,25.985 H 35.76 S 34.98,24 32.04,24 C 29.11,24 28,26.14 28,27.42 C 28,28.7 28.84,31 32,31 A 3.76,3.76 0 0,0 36,27.5 H 31 V 28.5 H 34.64 S 34,30 32,30 S 29,29 29,27.37 C 29,26.1 30.16,25 32,25 C 33.84,25 34.33,25.6 34.64,26 Z" fill="rgb(254, 203, 2)"/>
<path d="M 42.99,28.485 C 43,27.12 41.66,26 40,26 S 37,27.12 37,28.5 C 37,29.89 38.34,31 40,31 S 43,29.89 43,28.5 Z M 42,28.5 C 42,27.67 41.1,27 40,27 S 38,27.67 38,28.5 S 38.9,30 40,30 S 42,29.33 42,28.5 Z" fill="rgb(254, 203, 2)" fill-rule="evenodd"/>
<path d="M 43.99,23.985 H 45 V 31 H 44 V 24 Z M 51,24 H 52 V 31 H 51 V 24 Z" fill="rgb(254, 203, 2)"/>
<path d="M 51.99,28.485 C 52,27.12 50.66,26 49,26 S 46,27.12 46,28.5 S 47.34,31 49,31 S 52,29.88 52,28.5 Z M 51,28.5 C 51,27.67 50.1,27 49,27 S 47,27.67 47,28.5 S 47.9,30 49,30 S 51,29.33 51,28.5 Z" fill="rgb(254, 203, 2)" fill-rule="evenodd"/>
</svg>
