<?xml version="1.0" encoding="UTF-8"?>
<!-- generated by Finnhub -->
<svg viewBox="0 0 55.5 55.5" xmlns="http://www.w3.org/2000/svg">
<path d="M 0,0 H 55.5 V 55.5 H 0 Z" fill="rgb(239, 242, 248)"/>
<path d="M 3.99,21.985 H 6.81 L 16,33 H 13.19 L 4,22 Z" fill="rgb(1, 67, 154)"/>
<path d="M 15.99,21.985 H 13.19 L 4,33 H 6.81 L 16,22 Z" fill="rgb(1, 67, 154)"/>
<path d="M 13.99,21.985 H 27 V 24 H 14 V 22 Z M 25,31 H 33 V 33 H 25 V 31 Z" fill="rgb(1, 67, 154)"/>
<path d="M 26.99,21.985 H 25 V 33 H 27 V 22 Z M 21,22 H 19 V 33 H 21 V 22 Z" fill="rgb(1, 67, 154)"/>
<path d="M 51.99,28.985 A 4,4 0 1,0 44,29 A 4,4 0 0,0 52,29 Z M 51,29 A 3,3 0 1,0 45,29 A 3,3 0 0,0 51,29 Z M 41,29 A 4,4 0 1,0 33,29 A 4,4 0 0,0 41,29 Z M 40,29 A 3,3 0 1,0 34,29 A 3,3 0 0,0 40,29 Z" fill="rgb(1, 152, 239)" fill-rule="evenodd"/>
<path d="M 32.99,28.985 H 34 V 22 H 33 V 29 Z M 42,33 H 43 V 25 H 42 V 33 Z M 42.5,23 A 0.5,0.5 0 1,1 42.5,24 A 0.5,0.5 0 0,1 42.5,23 Z" fill="rgb(1, 152, 239)"/>
</svg>
