<?xml version="1.0" encoding="UTF-8"?>
<!-- generated by Finnhub -->
<svg viewBox="0 0 55.5 55.5" xmlns="http://www.w3.org/2000/svg">
<path d="M 0,0 H 55.5 V 55.5 H 0 Z" fill="url(#a)"/>
<path d="M 5.974,31.531 H 4.1 L 9.651,24 H 11.557 L 5.984,31.546 Z M 8.104,29.265 L 9.718,31.546 H 11.613 L 9.069,27.958 L 8.104,29.265 Z" fill="rgb(254, 254, 253)"/>
<path d="M 7.916,26.331 L 8.856,27.658 L 7.891,28.964 L 6.964,27.654 L 7.926,26.346 Z M 7.712,26.045 L 6.262,24 H 4.38 L 6.752,27.352 L 7.713,26.045 Z M 15.258,31.68 C 14.582,31.68 14.028,31.405 13.597,30.855 V 34 H 12 V 26 H 13.597 V 26.68 C 14.021,26.137 14.574,25.866 15.257,25.866 C 15.964,25.866 16.536,26.119 16.974,26.624 C 17.42,27.122 17.644,27.972 17.644,28.849 S 17.42,30.417 16.974,30.922 C 16.536,31.427 15.964,31.68 15.258,31.68 Z M 14.812,30.42 C 15.221,30.42 15.548,30.275 15.792,29.986 C 16.046,29.696 16.172,29.316 16.172,28.849 C 16.172,28.388 16.045,27.85 15.792,27.561 C 15.548,27.271 15.221,27.126 14.812,27.126 C 14.582,27.126 14.352,27.186 14.121,27.304 A 1.42,1.42 0 0,0 13.597,27.739 V 29.807 C 13.716,29.978 13.89,30.123 14.121,30.242 C 14.359,30.361 14.589,30.42 14.811,30.42 Z M 20,31.546 H 18.584 V 26 H 20 V 26.736 C 20.396,26.236 21.177,25.866 21.812,25.866 V 27.248 C 21.227,27.113 20.338,27.31 20,27.828 V 31.546 Z M 25.227,31.68 C 23.496,31.68 22.351,30.385 22.351,28.686 C 22.351,27.891 22.611,27.222 23.131,26.68 C 23.659,26.137 24.328,25.866 25.138,25.866 C 25.94,25.866 26.59,26.141 27.088,26.691 C 27.586,27.234 27.835,27.947 27.835,28.831 V 29.143 H 23.833 C 23.941,30 24.51,30.554 25.383,30.554 C 25.878,30.554 26.465,30.375 26.821,30.019 L 27.445,30.933 C 26.903,31.431 26.163,31.68 25.227,31.68 Z M 26.464,28.185 A 1.349,1.349 0 0,0 26.096,27.36 C 25.881,27.115 25.561,26.992 25.138,26.992 C 24.736,26.992 24.424,27.115 24.201,27.36 A 1.427,1.427 0 0,0 23.811,28.185 H 26.464 Z M 30.797,31.68 A 4.1,4.1 0 0,1 29.448,31.457 A 3.011,3.011 0 0,1 28.39,30.844 L 29.003,29.852 C 29.211,30.045 29.493,30.216 29.85,30.365 A 2.65,2.65 0 0,0 30.864,30.588 C 31.469,30.588 31.767,30.358 31.767,30.008 C 31.767,29.378 30.594,29.279 30.162,29.166 C 29.322,28.939 28.568,28.517 28.568,27.561 C 28.568,27.085 28.765,26.684 29.158,26.357 C 29.552,26.03 30.091,25.867 30.775,25.867 C 31.607,25.867 32.332,26.111 32.949,26.602 L 32.38,27.572 A 1.984,1.984 0 0,0 31.689,27.126 A 2.302,2.302 0 0,0 30.786,26.948 C 30.464,26.948 29.939,27.072 29.939,27.483 C 29.939,27.718 30.284,27.876 30.764,27.951 C 31.002,27.988 31.258,28.047 31.533,28.129 C 32.473,28.383 33.127,28.886 33.127,29.952 C 33.127,30.458 32.919,30.874 32.503,31.201 C 32.093,31.521 31.526,31.68 30.797,31.68 Z M 36.845,31.68 C 35.522,31.68 34.475,31.286 33.702,30.499 L 34.56,29.295 C 35.199,29.963 35.987,30.298 36.923,30.298 C 37.332,30.298 37.647,30.22 37.87,30.064 C 38.1,29.9 38.216,29.704 38.216,29.473 C 38.216,29.273 38.108,29.105 37.893,28.971 A 2.199,2.199 0 0,0 37.101,28.681 A 10.323,10.323 0 0,1 35.039,28.046 A 1.946,1.946 0 0,1 34.248,27.377 C 34.04,27.073 33.936,26.701 33.936,26.263 C 33.936,25.623 34.192,25.089 34.705,24.658 C 35.218,24.219 35.901,24 36.755,24 C 37.937,24 38.903,24.346 39.654,25.037 L 38.774,26.196 C 38.186,25.653 37.465,25.382 36.611,25.382 C 36.277,25.382 36.016,25.449 35.831,25.582 A 0.638,0.638 0 0,0 35.551,26.129 C 35.551,26.307 35.656,26.459 35.864,26.586 C 36.08,26.705 36.344,26.794 36.655,26.854 C 36.975,26.913 37.317,27.002 37.681,27.121 A 7.18,7.18 0 0,1 38.706,27.511 C 39.026,27.652 39.29,27.879 39.498,28.191 C 39.713,28.496 39.821,28.864 39.821,29.295 C 39.821,30.008 39.565,30.584 39.052,31.022 C 38.547,31.461 37.811,31.68 36.845,31.68 Z M 43.93,31.68 C 43.254,31.68 42.7,31.405 42.269,30.855 V 34 H 40.853 V 26 H 42.269 V 26.68 C 42.693,26.137 43.246,25.866 43.929,25.866 C 44.636,25.866 45.208,26.119 45.646,26.624 C 46.092,27.122 46.316,27.81 46.316,28.686 C 46.316,29.563 46.092,30.416 45.646,30.922 C 45.208,31.427 44.636,31.68 43.93,31.68 Z M 43.484,30.42 C 43.893,30.42 44.22,30.275 44.464,29.986 C 44.718,29.696 44.844,29.154 44.844,28.686 C 44.844,28.226 44.717,27.85 44.464,27.561 C 44.22,27.271 43.893,27.126 43.484,27.126 C 43.254,27.126 43.024,27.186 42.793,27.304 A 1.42,1.42 0 0,0 42.269,27.739 V 29.807 C 42.388,29.978 42.563,30.123 42.793,30.242 C 43.031,30.361 43.261,30.42 43.484,30.42 Z M 52,31.546 H 50.584 V 30.989 C 50.198,31.449 49.629,31.68 48.879,31.68 C 48.396,31.68 47.961,31.524 47.575,31.212 C 47.195,30.892 47.006,30.292 47.006,29.734 C 47.006,29.154 47.192,28.72 47.564,28.43 C 47.943,28.14 48.381,27.995 48.879,27.995 C 49.644,27.995 50.213,28.215 50.584,28.653 V 27.928 A 0.783,0.783 0 0,0 50.261,27.271 C 50.046,27.107 49.76,27.026 49.403,27.026 C 48.816,27.026 48.292,27.237 47.831,27.661 L 47.296,26.713 C 47.936,26.149 48.719,25.866 49.648,25.866 C 50.339,25.866 50.904,26.026 51.342,26.346 C 51.781,26.666 52,27.186 52,27.906 V 31.546 Z M 49.447,30.721 C 49.975,30.721 50.354,30.565 50.584,30.253 V 29.422 C 50.354,29.11 49.975,28.954 49.447,28.954 C 48.96,28.954 48.433,29.222 48.433,29.768 C 48.433,30.384 48.856,30.721 49.447,30.721 Z" fill="rgb(254, 254, 253)"/>
<defs>
<linearGradient id="a" x1="10.418" x2="68.147" y1="9.712" y2="76.017" gradientUnits="userSpaceOnUse">
<stop stop-color="rgb(25, 29, 31)" offset="0"/>
<stop stop-color="rgb(5, 5, 8)" offset="1"/>
</linearGradient>
</defs>
</svg>
