<?xml version="1.0" encoding="UTF-8"?>
<!-- generated by Finnhub -->
<svg viewBox="0 0 55.5 55.5" xmlns="http://www.w3.org/2000/svg">
<path d="M 0,28 A 28,28 0 1,1 56,28 A 28,28 0 0,1 0,28 Z" fill="rgb(239, 242, 248)"/>
<path d="M 4.3500000000000005,24.715 C 3.03,28.63 5.53,33.18 9.66,33.89 A 8,8 0 0,0 10.68,34.01 C 11.04,34.02 11.54,34.08 11.82,33.82 C 12.03,33.62 12.24,33.21 12.27,32.9 C 12.33,32.31 12.02,31.49 11.43,30.72 L 11.07,30.24 C 11.05,30.21 11.08,30.07 11.17,29.86 C 11.25,29.68 11.38,29.24 11.47,28.88 L 11.67,28.23 A 4,4 0 0,1 12.29,29.08 L 12.43,29.32 C 12.44,29.32 12.49,29.14 12.54,28.92 C 12.79,27.88 13.28,26.64 13.72,25.97 C 13.96,25.59 14.43,25.09 14.67,24.96 L 14.79,24.88 L 14.82,25.46 A 4.9,4.9 0 0,0 16.32,29.01 L 16.64,29.32 L 16.47,29.7 A 6.22,6.22 0 0,1 13.19,32.81 C 12.96,32.9 12.76,32.99 12.74,33.01 C 12.7,33.03 12.82,33.58 12.88,33.68 C 12.93,33.75 13.87,33.36 14.35,33.07 A 6.92,6.92 0 0,0 17.48,29.12 L 17.6,28.72 A 4.59,4.59 0 0,1 15.85,26.3 C 15.57,25.06 16.11,23.88 16.87,22.93 C 17.12,22.6 17.14,22.6 16.38,22.93 A 9.3,9.3 0 0,0 13.44,24.88 A 6.17,6.17 0 0,0 12.2,26.54 C 12.1,26.74 12.02,26.89 12.01,26.88 L 11.24,25.88 C 10.33,24.71 10.39,24.78 10.47,25.01 C 10.74,25.78 10.87,27.28 10.73,28.08 A 5.03,5.03 0 0,1 9.77,30.33 L 10.21,30.79 C 10.71,31.29 11.03,31.71 11.21,32.08 C 11.45,32.57 11.38,32.88 11.04,33.25 H 10.68 A 6.1,6.1 0 0,1 5.82,30.55 A 6.45,6.45 0 0,1 4.82,25.85 A 6.17,6.17 0 0,1 13.59,21.35 C 14.1,21.6 15.18,22.45 15.18,22.45 L 15.58,21.88 S 15.14,21.43 14.7,21.13 A 6.82,6.82 0 0,0 7.2,21.13 A 6.92,6.92 0 0,0 4.36,24.73 Z M 19.6,25 L 21.32,30.46 L 18.62,33 L 21.55,31.65 L 22.02,33 H 37.02 C 38.64,33 39.47,33.15 39.92,31.45 C 40.37,29.75 41.47,26 41.47,26 H 42.42 L 40.94,31.4 C 40.46,33.18 42,33 43.01,33 H 48.48 C 48.83,33 49.39,32.3 49.39,32.3 L 50.02,33.03 L 51,30 H 51.7 L 52,29 H 46.46 L 46.16,30 H 46.84 L 46.24,32 H 45.1 L 46.53,26 H 48.48 L 51.25,28 S 51.81,26.18 51.81,25.7 C 51.81,25.28 51.51,25 51.01,25 H 36.9 L 35.77,30 H 34.67 L 35.9,25 H 32.12 L 31.77,25.31 L 31.42,25.62 S 30.76,28.31 30.4,29.65 C 30.18,30.45 29.96,31 31,31 H 35.3 L 35.1,32 H 27.3 C 26.84,30.69 25.84,28.12 25.84,28.12 L 30.18,25 H 26.66 L 25.33,26.17 L 25.01,25 H 19.59 Z" fill="rgb(1, 152, 66)"/>
</svg>
