<?xml version="1.0" encoding="UTF-8"?>
<!-- generated by Finnhub -->
<svg viewBox="0 0 55.5 55.5" xmlns="http://www.w3.org/2000/svg">
<path d="M 0,0 H 55.5 V 55.5 H 0 Z" fill="url(#a)"/>
<path d="M 23.54,23.745 L 20.581,20.612 L 19.854,21.298 L 23.055,24.693 V 28.006 H 24.055 V 24.688 L 27.148,21.292 L 26.408,20.618 L 23.549,23.759 Z M 28.057,29.015 H 36.057 V 30.015 H 32.512 V 36.015 H 31.512 V 30.015 H 28.057 V 29.015 Z" fill="rgb(254, 254, 253)"/>
<path d="M 24.176,32.466 L 27.056,35.351 L 26.392,36.015 L 23.522,33.145 L 20.652,36.015 L 19.988,35.351 L 22.858,32.481 L 19.988,29.611 L 20.652,28.947 L 23.522,31.817 L 26.392,28.947 L 27.056,29.611 L 24.186,32.481 Z" fill="rgb(254, 254, 253)"/>
<path d="M 30.365,26.485 A 3,3 0 0,0 35.057,24.016 H 36.057 A 4,4 0 1,1 34.911,21.213 L 34.909,21.215 L 34.934,21.233 L 35.288,21.586 L 30.375,26.499 Z M 29.057,24.015 A 3,3 0 0,1 33.851,21.611 L 29.651,25.808 A 2.987,2.987 0 0,1 29.057,24.015 Z" fill="rgb(254, 254, 253)" fill-rule="evenodd"/>
<path d="M 27.99,43.985 C 36.837,44 44,36.837 44,28 S 36.837,12 28,12 S 12,19.163 12,28 C 12,36.837 19.163,44 28,44 Z M 28,45 C 37.389,45 45,37.389 45,28 S 37.389,11 28,11 S 11,18.611 11,28 C 11,37.389 18.611,45 28,45 Z" fill="rgb(254, 254, 253)" fill-rule="evenodd"/>
<defs>
<linearGradient id="a" x1="10.418" x2="68.147" y1="9.712" y2="76.017" gradientUnits="userSpaceOnUse">
<stop stop-color="rgb(25, 29, 31)" offset="0"/>
<stop stop-color="rgb(5, 5, 8)" offset="1"/>
</linearGradient>
</defs>
</svg>
