<?xml version="1.0" encoding="UTF-8"?>
<!-- generated by Finnhub -->
<svg viewBox="0 0 55.5 55.5" xmlns="http://www.w3.org/2000/svg">
<path d="M 0,0 H 55.5 V 55.5 H 0 Z" fill="rgb(239, 242, 248)"/>
<path d="M 39.74,18.985 A 4.85,4.85 0 0,1 37.63,21.01 L 37.83,21.41 C 38.36,21.11 38.83,20.79 39.22,20.47 A 6.47,6.47 0 0,0 40.55,19.07 A 8.56,8.56 0 0,0 39.75,19 Z M 38.73,19.03 A 4.22,4.22 0 0,1 36.89,20.41 C 36.03,20.75 35.12,20.8 34.37,20.72 A 8.44,8.44 0 0,1 38.73,19.03 Z M 33.53,21.46 C 33.26,21.72 33.01,22 32.78,22.29 C 33.2,22.34 33.66,22.37 34.16,22.36 A 7.58,7.58 0 0,0 37.07,21.8 L 36.84,21.33 C 35.63,21.72 34.4,21.63 33.53,21.46 Z M 32.24,23.08 L 32,23.5 A 9.13,9.13 0 0,0 37.75,23.16 L 37.45,22.56 A 8.38,8.38 0 0,1 34.17,23.21 C 33.45,23.22 32.79,23.16 32.24,23.08 Z M 31.64,24.27 C 31.55,24.47 31.48,24.69 31.41,24.9 C 32.01,25.4 34.37,25.47 36.17,25.13 L 36.11,24.53 A 9.92,9.92 0 0,1 31.64,24.27 Z M 31.17,25.79 C 31.11,26.1 31.07,26.42 31.03,26.75 C 32.79,27.03 35.58,27.02 38.78,25.79 L 38.53,25.19 C 36.35,26.1 33.55,26.23 31.17,25.79 Z M 31,27.6 C 31,27.84 31.01,28.08 31.04,28.31 C 32.14,28.78 34.37,28.91 37.19,28.21 C 37.89,28.01 38.65,27.75 39.47,27.4 L 39.12,26.57 A 16.19,16.19 0 0,1 31,27.61 Z" fill="rgb(125, 125, 124)"/>
<path d="M 31.169999999999998,29.255 C 31.25,29.58 31.33,29.89 31.43,30.19 C 32.58,30.49 34.53,30.59 37.23,29.83 L 37.02,29.15 C 34.4,29.85 32.47,29.69 31.18,29.27 Z M 31.8,31.14 C 31.91,31.38 32.04,31.61 32.17,31.84 C 33.53,32.04 35.66,32.02 38.37,31.23 C 39.13,31 39.95,30.71 40.8,30.35 L 40.59,29.5 C 39.63,29.93 38.72,30.27 37.87,30.53 C 35.27,31.33 33.22,31.37 31.8,31.13 Z M 32.8,32.76 C 33.04,33.06 33.3,33.35 33.57,33.62 C 34.87,33.58 36.65,33.39 38.58,32.9 L 38.25,32.14 C 36.05,32.74 34.19,32.86 32.8,32.76 Z M 34.52,34.42 C 34.7,34.56 34.9,34.68 35.09,34.8 C 35.79,34.75 36.6,34.67 37.45,34.53 A 17.1,17.1 0 0,0 41.63,33.36 L 41.47,32.87 A 24.87,24.87 0 0,1 34.52,34.42 Z" fill="rgb(4, 169, 221)"/>
<path d="M 36.550000000000004,35.505 L 37.1,35.69 A 21.67,21.67 0 0,0 42.04,34.61 L 41.9,34.17 A 18.12,18.12 0 0,1 36.56,35.52 Z M 40.3,36 A 8.44,8.44 0 0,0 44.37,34.5 C 43.77,34.81 43.19,35.08 42.73,35.26 C 42.05,35.53 41.19,35.79 40.31,36 Z M 46.57,32.25 C 46.8,31.9 47,31.55 47.18,31.17 A 60.08,60.08 0 0,1 42.68,33.8 L 42.83,34.3 A 28.08,28.08 0 0,0 46.57,32.25 Z" fill="rgb(125, 125, 124)"/>
<path d="M 47.68,29.805 L 47.83,29.21 C 47.3,29.63 46.68,30.08 45.98,30.54 V 30.93 C 46.65,30.51 47.23,30.13 47.68,29.82 Z" fill="rgb(6, 168, 222)"/>
<path d="M 47.980000000000004,27.955 A 8.7,8.7 0 0,0 47.99,27.22 A 18.9,18.9 0 0,1 45.24,29.11 A 38.12,38.12 0 0,1 41.47,30.99 C 40.64,31.36 39.83,31.66 39.07,31.9 L 39.41,32.67 A 24.83,24.83 0 0,0 47.98,27.97 Z M 47.9,26.16 A 8.5,8.5 0 0,0 47.63,25.02 C 47.4,25.27 47.13,25.53 46.8,25.82 C 46.28,26.25 45.63,26.73 44.82,27.25 L 45.22,28.13 A 16.23,16.23 0 0,0 47.89,26.16 Z" fill="rgb(125, 125, 124)"/>
<path d="M 47.28,24.085 A 8.5,8.5 0 0,0 46.85,23.24 C 46.67,23.54 46.42,23.86 46.11,24.21 L 46.59,24.86 C 46.89,24.58 47.12,24.32 47.29,24.1 Z" fill="rgb(6, 168, 222)"/>
<path d="M 46.31,22.415 C 46.11,22.15 45.88,21.88 45.64,21.63 A 8.1,8.1 0 0,1 42.95,24.56 C 42.15,25.13 41.15,25.71 39.9,26.25 L 40.25,27.05 A 17.57,17.57 0 0,0 45.25,23.87 A 4.8,4.8 0 0,0 46.31,22.44 V 22.43 Z M 44.98,21 A 8.6,8.6 0 0,0 44.58,20.68 C 44.38,21.13 44.05,21.62 43.55,22.12 C 43.24,22.44 42.85,22.77 42.39,23.11 L 42.79,23.62 A 6.42,6.42 0 0,0 44.99,21.01 Z M 43.86,20.2 C 43.56,20.02 43.25,19.86 42.93,19.72 C 42.76,19.98 42.56,20.27 42.33,20.57 L 43.2,21.25 C 43.55,20.85 43.75,20.49 43.86,20.2 Z M 42.11,19.4 A 8.4,8.4 0 0,0 41.44,19.22 A 6.8,6.8 0 0,1 40.13,20.82 L 40.59,21.24 A 10.76,10.76 0 0,0 42.11,19.41 Z M 38.51,22.78 L 38.21,22.18 C 38.67,21.91 39.09,21.64 39.46,21.36 L 39.94,21.81 C 39.52,22.16 39.04,22.49 38.51,22.78 Z M 40.87,22.14 C 41.21,21.84 41.51,21.53 41.78,21.23 L 42.6,21.86 A 14.7,14.7 0 0,1 37.2,24.88 C 37.1,24.9 37.03,24.93 36.95,24.96 V 24.34 A 8.5,8.5 0 0,0 38.52,23.74 C 39.42,23.28 40.22,22.72 40.87,22.14 Z M 39.3,24.86 C 40.24,24.43 41.03,24 41.69,23.58 L 42.09,24.11 C 41.41,24.57 40.57,25.03 39.57,25.47 L 39.31,24.86 Z M 40.2,28.01 A 20.34,20.34 0 0,0 45.5,24.81 L 45.94,25.41 C 45.44,25.81 44.83,26.25 44.06,26.72 A 35.1,35.1 0 0,1 40.7,28.52 C 39.75,28.96 38.86,29.32 38.03,29.58 L 37.83,28.91 A 22.3,22.3 0 0,0 40.2,28.01 Z M 41.37,29.13 C 42.42,28.63 43.31,28.15 44.09,27.7 L 44.48,28.56 C 43.66,29.02 42.71,29.5 41.59,30.01 L 41.37,29.13 Z M 42.25,32.54 A 25.7,25.7 0 0,0 45.13,31.07 V 31.45 A 49.5,49.5 0 0,1 42.4,32.98 L 42.25,32.54 Z" fill="rgb(125, 125, 124)"/>
<path d="M 31.99,25.985 H 35 V 36 H 32 Z M 30,26 H 21 V 28 H 24 V 36 H 27 V 28 H 30 V 26 Z M 18.97,30 H 16 V 28 H 11 V 34 H 16 V 32 H 19 L 18.97,34.18 A 1.68,1.68 0 0,1 17.28,36 H 9.68 C 8.35,36 8,34.79 8,34.18 V 27.82 A 1.68,1.68 0 0,1 9.69,26 H 17.29 C 18.63,26 18.97,27.21 18.97,27.82 V 30 Z" fill="rgb(0, 0, 3)"/>
<path d="M 8.74,20.985 H 8 L 9.13,22.88 V 24 H 9.85 V 22.87 L 11,21 H 10.25 L 9.5,22.5 L 8.75,21 Z M 12.75,21 H 12 V 23.25 C 12,23.85 12.5,24 12.75,24 H 13.88 C 14.18,24 14.25,23.75 14.25,23.62 V 24 H 15 V 21 H 14.25 V 23.25 C 14.25,23.55 14,23.63 13.87,23.63 H 12.75 V 21 Z M 16.75,21 H 16 V 24 H 16.75 V 21.75 L 18.25,24 H 19 V 21 H 18.25 V 23.25 L 16.75,21 Z M 28.75,21 H 28 V 24 H 28.75 V 21.75 L 30.25,24 H 31 V 21 H 30.25 V 23.25 L 28.75,21 Z M 35,21.38 V 21 H 32.75 C 32.15,21 32,21.5 32,21.75 V 23.25 C 32,23.85 32.5,24 32.75,24 H 35 V 22.12 H 33.5 V 22.5 H 34.25 V 23.63 H 33.12 C 32.82,23.63 32.75,23.38 32.75,23.25 V 21.37 H 35 Z M 20.75,21 H 20 V 24 H 20.75 V 22.87 H 22.25 V 24 H 23 V 21 H 22.25 V 22.5 H 20.75 V 21 Z"/>
<path d="M 23.99,21.735 C 24,21.5 24.38,21 24.75,21 H 26.25 C 26.5,21 27,21.15 27,21.75 V 23.25 C 27,23.63 26.55,24 26.25,24 H 24.75 C 24.37,24 24,23.55 24,23.25 V 21.75 Z M 24.75,21.37 H 26.25 V 23.62 H 24.75 V 21.37 Z" fill-rule="evenodd"/>
</svg>
