<?xml version="1.0" encoding="UTF-8"?>
<!-- generated by Finnhub -->
<svg viewBox="0 0 55.5 55.5" xmlns="http://www.w3.org/2000/svg">
<path d="M 0,0 H 55.5 V 55.5 H 0 Z" fill="rgb(239, 242, 248)"/>
<path d="M 19.229999999999997,17.865 C 18.86,17.12 18.24,16.98 17.98,17 C 20.82,25.98 26.53,43.92 26.66,43.83 C 26.79,43.74 26.85,43.51 26.86,43.41 A 31.76,31.76 0 0,0 22.98,25.24 L 19.24,17.88 Z" fill="url(#a)"/>
<path d="M 17.939999999999998,16.985 C 17.48,17 17.21,17.41 17.14,17.62 L 13.48,26.77 A 6.45,6.45 0 0,0 13,29.6 A 5.14,5.14 0 0,0 14.74,33.2 L 25.88,43.7 C 25.95,43.8 26.17,43.99 26.45,43.99 C 27.01,43.99 27.04,43.46 26.98,43.19 L 18.92,17.86 C 18.82,17.56 18.54,16.99 17.95,16.99 Z" fill="url(#b)"/>
<path d="M 36.75,17.865 C 37.14,17.12 37.76,16.98 38.02,17 C 35.18,25.98 29.47,43.92 29.34,43.83 C 29.21,43.74 29.15,43.51 29.14,43.41 A 31.76,31.76 0 0,1 33.02,25.24 L 36.76,17.88 Z" fill="url(#c)"/>
<path d="M 38.04,16.985 C 38.52,17 38.79,17.41 38.86,17.62 L 42.52,26.77 C 42.68,27.04 43,27.97 43,29.61 A 5.14,5.14 0 0,1 41.26,33.21 L 30.12,43.71 A 0.77,0.77 0 0,1 29.55,44 C 28.99,44 28.96,43.47 29.02,43.2 L 37.08,17.87 C 37.18,17.57 37.46,17 38.05,17 Z" fill="url(#d)"/>
<path d="M 27.99,18.705 C 27.43,18.72 26.26,18.46 25.23,17.42 L 22.71,15.37 L 20.47,13.37 C 20.29,13.23 19.87,12.97 19.58,13 C 19.3,13.05 19.81,14.2 20.09,14.77 L 26.77,28.24 A 1.37,1.37 0 0,0 29.23,28.24 L 35.91,14.77 C 36.19,14.2 36.7,13.05 36.41,13 C 36.14,12.96 35.71,13.23 35.53,13.37 L 33.25,15.37 L 30.85,17.42 A 4.35,4.35 0 0,1 28,18.72 Z" fill="url(#e)"/>
<path d="M 36.35,12.985 C 36.08,13 35.7,13.24 35.53,13.37 L 33.25,15.37 L 30.85,17.42 A 4.35,4.35 0 0,1 28,18.72 C 27.43,18.72 26.26,18.46 25.23,17.42 L 22.71,15.37 L 20.47,13.37 C 20.3,13.23 19.88,12.97 19.6,13 L 25.84,21.46 A 2.66,2.66 0 0,0 30.12,21.46 L 36.36,13 Z" fill="url(#f)"/>
<defs>
<linearGradient id="a" x1="22.49" x2="27.55" y1="17" y2="40.56" gradientUnits="userSpaceOnUse">
<stop stop-color="rgb(61, 71, 242)" offset="0"/>
<stop stop-color="rgb(82, 138, 245)" offset="1"/>
</linearGradient>
<linearGradient id="b" x1="11.57" x2="20.29" y1="20.51" y2="43.89" gradientUnits="userSpaceOnUse">
<stop stop-color="rgb(85, 149, 245)" offset="0"/>
<stop stop-color="rgb(68, 91, 242)" offset="1"/>
</linearGradient>
<linearGradient id="c" x1="33.51" x2="28.45" y1="17" y2="40.56" gradientUnits="userSpaceOnUse">
<stop stop-color="rgb(61, 71, 242)" offset="0"/>
<stop stop-color="rgb(82, 138, 245)" offset="1"/>
</linearGradient>
<linearGradient id="d" x1="44.43" x2="35.71" y1="20.51" y2="43.89" gradientUnits="userSpaceOnUse">
<stop stop-color="rgb(85, 149, 245)" offset="0"/>
<stop stop-color="rgb(68, 91, 242)" offset="1"/>
</linearGradient>
<linearGradient id="e" x1="28" x2="28" y1="13" y2="29" gradientUnits="userSpaceOnUse">
<stop stop-color="rgb(35, 47, 120)" offset="0"/>
<stop stop-color="rgb(43, 48, 137)" offset="1"/>
</linearGradient>
<linearGradient id="f" x1="27.98" x2="27.98" y1="11.94" y2="22.55" gradientUnits="userSpaceOnUse">
<stop stop-color="rgb(32, 47, 113)" offset="0"/>
<stop stop-color="rgb(45, 64, 166)" offset="1"/>
</linearGradient>
</defs>
</svg>
