<?xml version="1.0" encoding="UTF-8"?>
<!-- generated by Finnhub -->
<svg viewBox="0 0 55.5 55.5" xmlns="http://www.w3.org/2000/svg">
<path d="M 0,0 H 55.5 V 55.5 H 0 Z" fill="rgb(239, 242, 248)"/>
<path d="M 27.99,35.985 C 30.82,36 33,33.5 33,30 C 33,27.92 31.9,25.07 30.57,22.6 A 52.04,52.04 0 0,1 28.58,18.6 A 0.43,0.43 0 0,1 28.97,18 H 45 L 28,46 L 11,18 H 27.03 C 27.33,18 27.54,18.32 27.42,18.6 C 26.82,20 26.1,21.33 25.42,22.6 C 24.1,25.06 23,27.91 23,30 C 23,33.5 25.18,36 28,36 Z" fill="rgb(40, 137, 67)"/>
<path d="M 31.99,29.955 C 32,32.71 30.27,35 28,35 S 24,32.71 24,29.97 S 26.4,23.57 28,19 C 29.6,23.57 32,27.23 32,29.97 Z" fill="rgb(149, 186, 63)"/>
</svg>
