<?xml version="1.0" encoding="UTF-8"?>
<!-- generated by Finnhub -->
<svg viewBox="0 0 55.5 55.5" xmlns="http://www.w3.org/2000/svg">
<path d="M 0,0 H 55.5 V 55.5 H 0 Z" fill="rgb(239, 242, 248)"/>
<path d="M 10.99,23.985 H 15 L 11,28.77 V 31 H 8 V 28.77 L 4,24 H 8 L 9.48,26.15 L 11,24 Z M 24.65,28.89 L 26.44,31 H 30 L 27.44,28.58 L 29.46,26 H 26.26 L 24.65,28.07 V 24 H 22 V 31 H 24.65 V 28.89 Z M 39,24 H 42 V 31 H 39 V 24 Z M 48,29.55 V 29 H 51 C 51,30.46 49.38,32 47.3,32 C 45.2,32 44,30.63 44,29.17 V 28 H 42.5 V 26 H 44 V 24 H 46.5 V 26 H 48 V 28 H 46.5 V 29.55 C 46.5,29.9 46.93,30.16 47.3,30.16 C 47.66,30.16 48,29.9 48,29.55 Z M 35.5,26 V 28.8 C 35.5,29.3 34.79,29.92 34,29.92 S 32.5,29.17 32.5,28.66 V 26 H 30 V 29.53 C 30,30.89 31.33,32 32.97,32 C 33.97,32 34.96,31.6 35.5,30.97 V 31.4 H 38 V 26 H 35.5 Z M 21,28.2 V 31.43 H 18.38 V 31.22 C 17.8,31.68 16.98,32 16.07,32 C 14.7,32 13,31.43 13,30.02 C 13,28.92 14.09,28.02 15.98,28.02 C 17.13,28.02 17.88,28.1 18.38,28.26 C 18.37,27.81 18.14,27.65 17.41,27.56 C 16.71,27.47 16.41,27.65 16.27,27.85 H 13.2 C 13.21,27.03 13.87,26 17.1,26 C 20.34,26 20.99,27.38 20.99,28.2 Z M 18.38,29.87 V 29.85 C 18.36,29.61 17.78,29.42 17.04,29.42 C 16.31,29.42 15.71,29.62 15.71,29.86 S 16.31,30.3 17.04,30.3 C 17.77,30.3 18.36,30.1 18.38,29.87 Z" fill="rgb(225, 20, 46)"/>
</svg>
