<?xml version="1.0" encoding="UTF-8"?>
<!-- generated by Finnhub -->
<svg viewBox="0 0 55.5 55.5" xmlns="http://www.w3.org/2000/svg">
<path d="M 0,0 H 55.5 V 55.5 H 0 Z" fill="rgb(239, 242, 248)"/>
<path d="M 7.99,30.985 V 24 H 5 V 22 H 9 A 1,1 0 0,1 10,23 V 31 C 10,31.5 9.86,32.21 9.41,32.83 A 2.85,2.85 0 0,1 7,34 C 5.15,34 4.39,33.27 4,32.5 L 5.4,31.55 S 5.64,32 7,32 C 7.47,32 7.67,31.83 7.79,31.67 C 7.94,31.46 8,31.17 8,31 Z M 18,26 H 15 L 16.5,22 L 18,26 Z M 19,28.5 L 16.5,30.5 L 20.5,33 L 19,28.5 Z" fill="rgb(36, 31, 95)"/>
<path d="M 21.99,24.985 L 22.16,25.01 C 22.53,25.07 22.83,25.31 22.96,25.65 A 0.91,0.91 0 0,1 22.59,26.7 L 13.59,32.82 C 13.25,33.05 12.79,33.06 12.45,32.84 A 0.92,0.92 0 0,1 12.02,31.85 L 13.02,27.62 L 14.98,28.02 L 14.55,29.85 L 18.9,27 H 11 V 25 H 22 Z" fill="rgb(103, 191, 234)"/>
<path d="M 28.79,29.985 C 28.8,29.68 28.73,29.43 28.56,29.21 C 28.36,28.98 27.96,28.69 27.12,28.47 A 6.1,6.1 0 0,1 24.54,27.19 A 2.96,2.96 0 0,1 23.48,25 C 23.48,23.2 25.16,22 27.36,22 C 29.16,22 30.44,22.77 30.95,23.3 L 29.58,24.7 A 3.4,3.4 0 0,0 27.36,24 C 25.68,24 25.42,24.8 25.42,25 C 25.42,25.14 25.48,25.39 25.82,25.68 C 26.15,25.98 26.72,26.31 27.59,26.53 C 28.68,26.81 29.49,27.27 30.03,27.91 C 30.58,28.57 30.74,29.32 30.74,30 C 30.74,31.8 29.07,33 26.87,33 A 7.5,7.5 0 0,1 22.95,31.83 L 24.02,30.17 C 24.38,30.42 25.56,31 26.87,31 C 28.55,31 28.81,30.2 28.81,30 Z M 33,23 H 32 V 30 C 32,32.5 34,33 35.5,33 C 36.7,33 37.33,32.5 37.5,32 L 36.5,30.5 C 36.1,30.9 35.67,31 35.5,31 C 34.3,31 34,30.33 34,30 V 27 H 36 V 25 H 34 V 24 C 34,23.2 33.33,23 33,23 Z M 45,25 C 45.8,25 46,25.67 46,26 V 33 H 44 V 32.46 A 4,4 0 1,1 44,25.53 V 25 H 45 Z M 42,27 A 2,2 0 1,0 42,31 A 2,2 0 0,0 42,27 Z M 49,25 H 48 V 33 H 50 V 28 C 50,27.2 51.33,27 52,27 V 25 C 50.4,25 50,25.67 50,26 C 50,25.2 49.33,25 49,25 Z" fill="rgb(36, 31, 95)"/>
</svg>
