<?xml version="1.0" encoding="UTF-8"?>
<!-- generated by Finnhub -->
<svg viewBox="0 0 55.5 55.5" xmlns="http://www.w3.org/2000/svg">
<path d="M 0,0 H 55.5 V 55.5 H 0 Z" fill="rgb(239, 242, 248)"/>
<path d="M 3.99,23.985 H 5.85 L 8.82,28.24 L 11.82,24 H 13.5 L 9.6,29.5 V 32 H 8 V 29.5 L 4,24 Z" fill="rgb(42, 41, 39)"/>
<path d="M 17.99,23.985 A 4,4 0 1,1 18,32 A 4,4 0 0,1 18,24 Z M 18,25.41 C 19.32,25.41 20.38,26.57 20.38,28 S 19.32,30.59 18,30.59 S 15.62,29.43 15.62,28 S 16.68,25.41 18,25.41 Z" fill="rgb(42, 41, 39)" fill-rule="evenodd"/>
<path d="M 22.99,23.985 H 28.5 V 25.5 H 23 V 24 Z M 30,24 H 35.5 V 25.5 H 30 V 24 Z" fill="rgb(42, 41, 39)"/>
<path d="M 24.99,24.985 H 26.5 V 32 H 25 V 25 Z M 32,25 H 33.5 V 32 H 32 V 25 Z" fill="rgb(42, 41, 39)"/>
<path d="M 41.11,23.985 C 42.92,24 45,25.8 45,28 A 4,4 0 1,1 41.12,24 Z M 41,25.5 C 42.45,25.5 43.5,26.5 43.5,28 S 42.45,30.5 41,30.5 A 2.43,2.43 0 0,1 38.5,28 C 38.5,26.57 39.55,25.5 41,25.5 Z" fill="rgb(42, 41, 39)" fill-rule="evenodd"/>
<path d="M 44.99,23.985 H 43.5 V 32 H 45 V 24 Z" fill="rgb(42, 41, 39)"/>
<path d="M 46.65,25.735 C 47.23,24.62 47.46,23.9 48.6,23.25 C 49.74,22.62 50.02,22.95 51.18,23.1 C 51.24,23.76 51.6,23.76 51.92,24.4 C 51.09,24.4 50.19,24.56 49.4,25 A 5.14,5.14 0 0,0 47.5,27 C 46.98,26.79 47.1,26.2 46.66,25.75 Z" fill="rgb(88, 181, 227)"/>
<path d="M 51.910000000000004,24.384999999999998 A 6.24,6.24 0 0,1 48.32,23.57 C 47.21,22.91 47.32,22.49 46.82,21.37 C 47.32,20.95 47.16,20.66 47.52,20.02 A 4.67,4.67 0 0,0 51.83,22.55 C 52.03,23.13 52.05,23.79 51.92,24.4 Z" fill="rgb(28, 165, 220)"/>
<path d="M 47.49,19.985 A 6.35,6.35 0 0,1 47.5,27 C 46.93,26.8 46.4,26.46 46,26 A 4.77,4.77 0 0,0 46,21 C 46.42,20.54 46.93,20.2 47.5,20 Z" fill="rgb(1, 150, 212)"/>
</svg>
