<?xml version="1.0" encoding="UTF-8"?>
<!-- generated by Finnhub -->
<svg viewBox="0 0 55.5 55.5" xmlns="http://www.w3.org/2000/svg">
<path d="M 0,0 H 55.5 V 55.5 H 0 Z" fill="rgb(239, 242, 248)"/>
<path d="M 23.93,23.015 A 49,49 0 0,0 16.54,23.94 C 15.56,24.67 14.42,25.98 17.76,25.41 C 21.1,24.85 25.17,24.76 26.3,24.78 C 17.48,27.03 8.68,29.9 6.86,31.09 C 5.49,31.99 5.31,34.04 9.69,32.36 C 14.06,30.67 19.58,29.9 27.85,29.9 C 35.14,29.9 44.25,30.46 47.9,31.1 C 50.3,31.5 50.21,30.8 49.72,30.6 C 40.68,28.2 24.42,28.43 17.42,28.85 C 21.19,27.31 32.02,25.41 35.12,24.36 C 37.59,23.52 35.69,23.12 34.44,23.03 A 461.9,461.9 0 0,0 23.94,23.03 Z" fill="rgb(180, 28, 39)"/>
</svg>
