<?xml version="1.0" encoding="UTF-8"?>
<!-- generated by Finnhub -->
<svg fill="none" viewBox="0 0 55.5 55.5" xmlns="http://www.w3.org/2000/svg">
<path d="M 0,0 H 55.5 V 55.5 H 0 Z" fill="url(#a)"/>
<path d="M 18.755999999999997,16.364 A 0.499,0.499 0 0,1 19.249,16 H 37.302 C 45.668,16 47.614,24.296 44.779,30.647 C 42.29,36.22 37.754,40 30.324,40 H 13.517 A 0.5,0.5 0 0,1 13.034,39.379 L 15.37,30 H 8.5 A 0.5,0.5 0 0,1 8.021,29.356 L 9.221,25.356 A 0.5,0.5 0 0,1 9.699,25 H 16.617 L 18.766,16.379 Z M 23.844,21 H 34.172 C 39.296,21 40.118,24.151 39.404,27.493 C 38.47,31.872 35.807,35 30.147,35 H 20.355 L 23.845,21 Z" clip-rule="evenodd" fill="rgb(254, 254, 253)" fill-rule="evenodd"/>
<defs>
<linearGradient id="a" x1="51" x2="7.5" y1="41.5" y2="12" gradientUnits="userSpaceOnUse">
<stop stop-color="rgb(74, 43, 133)" offset="0"/>
<stop stop-color="rgb(107, 52, 162)" offset=".407"/>
<stop stop-color="rgb(189, 65, 204)" offset=".989"/>
</linearGradient>
</defs>
</svg>
