<?xml version="1.0" encoding="UTF-8"?>
<!-- generated by Finnhub -->
<svg viewBox="0 0 55.5 55.5" xmlns="http://www.w3.org/2000/svg">
<path d="M 0,0 H 55.5 V 55.5 H 0 Z" fill="rgb(137, 182, 238)"/>
<path d="M 42.96,17.605 C 43.12,16.75 42.84,15 40.51,15 S 37.28,16.98 37.12,17.97 C 36.82,19.32 36.88,22 39.43,22 C 41.99,22 42.69,20.18 42.72,19.27 H 41.31 C 41.19,19.77 40.71,20.75 39.71,20.75 C 38.46,20.75 38.26,19.1 38.68,17.97 C 39.1,16.85 39.77,16.2 40.38,16.2 C 40.99,16.2 41.72,16.51 41.41,17.62 H 42.97 Z M 23,21 H 12 V 24 H 18.23 L 11,35 V 37 H 23 V 34 H 15.99 L 23,22.5 V 21 Z M 24,25 H 27 V 26.86 A 3.95,3.95 0 0,1 30.21,25 C 32,25 33.2,26.05 33.71,27.72 C 34.09,26.92 35.81,25 37.8,25 C 40.29,25 41,26.96 41,29.78 V 37 H 38 V 29.78 C 38.01,29.09 37.88,27.72 36.55,27.72 S 34.23,29.74 34,30.76 V 37 H 31 V 29.78 C 31.01,29.09 30.78,27.72 29.48,27.72 C 28.48,27.72 27.5,28.93 27,29.95 V 37 H 24 V 25 Z" fill="rgb(34, 30, 30)"/>
</svg>
