<?xml version="1.0" encoding="UTF-8"?>
<!-- generated by Finnhub -->
<svg viewBox="0 0 55.5 55.5" xmlns="http://www.w3.org/2000/svg">
<path d="M 0,0 H 55.5 V 55.5 H 0 Z" fill="rgb(239, 242, 248)"/>
<path d="M 29.99,25.935 V 31.95 C 30,32.7 29.53,33.07 28.84,32.97 C 28.34,32.9 28.01,32.56 28.01,32.07 A 686.12,686.12 0 0,1 28.03,23.72 C 28.06,23.59 28.13,23.48 28.23,23.38 C 28.32,23.28 28.43,23.19 28.56,23.13 C 28.7,23.07 28.84,23.03 28.98,23.02 C 29.13,23 29.27,23.02 29.39,23.07 A 3.5,3.5 0 0,1 30.49,23.75 A 918.9,918.9 0 0,1 36.41,29.61 A 7.63,7.63 0 0,0 36.76,29.89 L 37,29.85 S 37.12,29.85 37,29.85 V 23.98 C 37,23.26 37.54,22.86 38.21,23.05 C 38.37,23.09 38.51,23.15 38.65,23.25 C 38.84,23.39 38.95,23.58 38.99,23.81 V 24.01 A 507.4,507.4 0 0,1 38.99,28.34 V 31.89 A 1.14,1.14 0 0,1 38.35,32.88 C 38.15,32.98 37.93,33.02 37.69,32.99 A 1.4,1.4 0 0,1 37.06,32.76 C 36.92,32.66 36.79,32.55 36.66,32.43 L 34.67,30.43 C 33.23,28.96 30,25.95 30,25.95 Z M 42,30.94 V 31.94 C 42,32.06 41.95,32.17 41.92,32.28 C 41.88,32.39 41.82,32.49 41.75,32.58 A 0.93,0.93 0 0,1 41.12,32.93 A 1.11,1.11 0 0,1 40.57,32.86 A 0.78,0.78 0 0,1 40.07,32.31 A 2.35,2.35 0 0,1 40,31.71 V 30.95 A 79.7,79.7 0 0,1 40.04,28.1 C 40.09,27.14 40.3,26.32 40.67,25.62 C 40.89,25.2 41.17,24.82 41.52,24.49 A 5.2,5.2 0 0,1 44.47,23.06 A 6.12,6.12 0 0,1 49.58,24.68 C 49.98,25.08 50.28,25.51 50.5,25.98 A 5.53,5.53 0 0,1 51,28.46 L 50.98,29.5 L 50.96,31.95 C 50.96,32.18 50.9,32.38 50.8,32.55 A 0.9,0.9 0 0,1 50.36,32.92 C 50.19,32.99 50.01,33.02 49.81,32.99 C 48.97,32.91 48.99,32.21 49,31.52 V 28.12 C 49,27.57 48.76,27.06 48.48,26.58 A 3.1,3.1 0 0,0 47.26,25.43 A 3.72,3.72 0 0,0 42.6,26.29 A 2.83,2.83 0 0,0 42.06,27.65 L 42.01,28.19 V 29.35 L 42,30.95 Z M 12.17,25 H 6.43 A 2.55,2.55 0 0,1 5.49,24.8 A 0.85,0.85 0 0,1 5.09,24.42 A 0.95,0.95 0 0,1 5.23,23.38 C 5.33,23.28 5.43,23.19 5.57,23.13 A 1.3,1.3 0 0,1 6.24,23 H 14.9 C 15.05,23 15.2,23.04 15.35,23.1 A 1,1 0 0,1 15.71,23.32 C 15.81,23.42 15.87,23.53 15.91,23.66 C 15.96,23.78 15.97,23.91 15.96,24.04 C 15.94,24.18 15.9,24.31 15.84,24.44 C 15.7,24.7 15.47,24.97 15.14,25.25 A 131,131 0 0,0 14.2,26.07 A 1373.4,1373.4 0 0,1 8.36,31 H 14.74 C 15.32,31 15.98,31.31 16.01,32 C 16.01,32.21 15.97,32.4 15.87,32.56 A 0.79,0.79 0 0,1 15.39,32.91 L 15.13,32.94 A 16.7,16.7 0 0,1 12.93,33 A 3138.1,3138.1 0 0,0 6.66,32.98 H 6.54 C 6.32,32.98 6.14,32.97 5.97,32.93 A 0.94,0.94 0 0,1 5.37,32.53 A 1,1 0 0,1 5.29,31.49 C 5.38,31.31 5.52,31.13 5.71,30.97 L 8.39,28.71 L 12.51,25.26 C 12.79,25.02 12.61,25 12.18,25 Z" fill="rgb(15, 88, 127)"/>
<path d="M 25.99,30.985 C 26.48,31 26.9,31.43 26.99,31.95 A 0.84,0.84 0 0,1 26.92,32.45 A 0.82,0.82 0 0,1 26.32,32.91 C 26.11,32.96 25.89,32.98 25.65,32.98 H 24.81 A 105.73,105.73 0 0,1 21.67,32.98 C 19.17,32.9 16.57,31.67 16.07,28.98 A 5,5 0 0,1 16.67,25.67 C 17.72,23.89 19.69,23.04 21.71,23 H 25.82 C 26.42,23 27.07,23.36 26.99,24.05 C 26.89,24.88 26.03,25 25.38,25 H 21.62 C 19.9,25 18.08,26.17 18,27.96 C 17.91,30.02 19.93,30.96 21.75,31 H 26 Z" fill="rgb(15, 88, 127)"/>
<path d="M 19.99,28.985 A 1,1 0 1,0 20,27 A 1,1 0 0,0 20,29 Z M 45.5,29 A 1,1 0 1,0 45.5,27 A 1,1 0 0,0 45.5,29 Z" fill="rgb(236, 31, 34)"/>
<path d="M 24.49,27.325 C 25.17,27.34 25.76,27.34 26.28,27.36 A 0.8,0.8 0 0,1 26.66,27.46 C 26.76,27.53 26.85,27.61 26.91,27.72 C 26.97,27.82 27,27.92 27,28.05 C 27,28.19 26.97,28.32 26.9,28.43 A 0.62,0.62 0 0,1 26.56,28.67 C 26.45,28.71 26.32,28.73 26.19,28.73 H 24.96 A 347.32,347.32 0 0,0 22.81,28.73 C 22.68,28.73 22.55,28.71 22.44,28.67 A 0.62,0.62 0 0,1 22,28.05 A 0.66,0.66 0 0,1 22.34,27.47 A 0.8,0.8 0 0,1 22.72,27.36 A 48.6,48.6 0 0,1 24.49,27.34 H 24.5 Z" fill="rgb(15, 88, 127)"/>
</svg>
