<?xml version="1.0" encoding="UTF-8"?>
<!-- generated by Finnhub -->
<svg viewBox="0 0 55.5 55.5" xmlns="http://www.w3.org/2000/svg">
<path d="M 0,0 H 55.5 V 55.5 H 0 Z" fill="rgb(239, 242, 248)"/>
<path d="M 25.99,13.985 H 30 V 16 H 42 V 19 H 14 V 16 H 26 V 14 Z M 42,37 H 14 V 40 H 26 V 42 H 30 V 40 H 42 V 37 Z M 14,24.87 C 14,22.73 15.86,21 18.15,21 H 26 V 24 H 19.24 C 18.55,24 18,24.53 18,25.18 V 30.82 C 18,31.47 18.55,32 19.24,32 H 26 V 35 H 18.15 C 15.85,35 14,33.27 14,31.13 V 24.87 Z M 21.55,26 C 21.25,26 21,26.29 21,26.64 V 29.36 C 21,29.71 21.25,30 21.55,30 H 26 V 26 H 21.55 Z M 37.85,35 C 40.15,35 42,33.27 42,31.13 V 24.87 C 42,22.73 40.14,21 37.85,21 H 30 V 24 H 36.76 C 37.45,24 38,24.53 38,25.18 V 30.82 C 38,31.47 37.45,32 36.76,32 H 30 V 35 H 37.85 Z M 35,29.36 C 35,29.71 34.75,30 34.45,30 H 30 V 26 H 34.45 C 34.75,26 35,26.29 35,26.64 V 29.36 Z" fill="rgb(199, 1, 19)"/>
</svg>
