<?xml version="1.0" encoding="UTF-8"?>
<!-- generated by Finnhub -->
<svg viewBox="0 0 55.5 55.5" xmlns="http://www.w3.org/2000/svg">
<path d="M 0,0 H 55.5 V 55.5 H 0 Z" fill="rgb(28, 42, 96)"/>
<path d="M 17.319999999999997,16.415 L 16.5,15 L 15.66,16.43 H 14 L 14.82,17.85 L 14,19.27 H 15.66 L 16.5,20.7 L 17.33,19.27 H 19 L 18.17,17.85 L 19,16.42 H 17.33 Z M 21.17,23.43 L 20.33,22 L 19.5,23.43 H 17.83 L 18.66,24.85 L 17.83,26.27 H 19.5 L 20.33,27.7 L 21.17,26.27 H 22.83 L 22.01,24.85 L 22.83,23.42 H 21.17 Z M 39.5,15 L 40.34,16.43 H 42 L 41.17,17.85 L 42,19.27 H 40.34 L 39.5,20.7 L 38.66,19.27 H 37 L 37.83,17.85 L 37,16.42 H 38.66 L 39.5,15 Z M 32.67,16.43 L 31.83,15 L 31,16.43 H 29.34 L 30.17,17.85 L 29.34,19.27 H 31 L 31.84,20.7 L 32.68,19.27 H 34.34 L 33.52,17.85 L 34.34,16.42 H 32.68 Z M 35.67,22 L 36.5,23.43 H 38.17 L 37.34,24.85 L 38.17,26.27 H 36.5 L 35.67,27.7 L 34.83,26.27 H 33.17 L 33.99,24.85 L 33.17,23.42 H 34.83 L 35.67,22 Z M 25,16.43 L 24.16,15 L 23.33,16.43 H 21.66 L 22.49,17.85 L 21.66,19.27 H 23.33 L 24.16,20.7 L 25,19.27 H 26.66 L 25.84,17.85 L 26.66,16.42 H 25 Z M 28,22 L 28.84,23.43 H 30.5 L 29.67,24.85 L 30.5,26.27 H 28.84 L 28,27.7 L 27.16,26.27 H 25.5 L 26.32,24.85 L 25.5,23.42 H 27.16 L 28,22 Z M 14,29 H 24 V 31.54 L 19,37 H 24 V 40 H 14 V 37.46 L 19,32 H 14 V 29 Z M 26,29 H 29 V 40 H 26 V 29 Z M 31,40 V 29 H 34.74 L 36.59,34.07 L 38.27,29 H 42 V 40 H 39 V 35.08 L 37.35,40 H 35.65 L 34,35.08 V 40 H 31 Z" fill="rgb(254, 254, 253)"/>
</svg>
