<?xml version="1.0" encoding="UTF-8"?>
<!-- generated by Finnhub -->
<svg viewBox="0 0 55.5 55.5" xmlns="http://www.w3.org/2000/svg">
<path d="M 0,0 H 55.5 V 55.5 H 0 Z" fill="rgb(1, 93, 74)"/>
<path d="M 36.82,21.345 A 1.24,1.24 0 0,0 36.11,21.39 L 35,21.71 V 12.85 C 35,12.39 34.76,12 34.3,12 H 21.67 C 21.2,12 21,12.39 21,12.85 V 21.75 L 19.85,21.43 C 19.6,21.36 19.35,21.33 19.14,21.39 C 18.78,21.46 18,21.82 18,23.19 V 30.61 C 18.1,31.24 18.53,32 19.5,32 H 22.7 C 23.02,32.39 23.8,33 25.3,33.11 A 2.7,2.7 0 0,0 27,35.51 V 37.6 C 27,37.63 26.9,37.67 26.86,37.67 A 18.14,18.14 0 0,0 18.71,39.68 C 18.21,39.96 18,40.61 18,41 V 42.58 C 18.04,43.14 18.6,43.6 19.21,43.6 C 19.74,43.6 20.21,43.14 20.24,42.61 C 20.28,42.08 19.92,41.66 19.42,41.51 C 19.39,41.51 19.35,41.48 19.35,41.45 V 40.85 C 19.35,40.7 19.42,40.56 19.57,40.49 C 20.77,39.82 23.87,39.5 26.22,39.36 H 26.9 C 26.93,39.36 26.97,39.4 26.97,39.43 C 27.07,41.3 27.29,42.89 27.36,43.88 H 27.29 C 26.89,43.88 26.54,44.34 26.54,44.94 C 26.54,45.54 26.9,46 27.29,46 H 28.71 C 29.11,46 29.46,45.54 29.46,44.94 C 29.46,44.34 29.1,43.88 28.71,43.88 H 28.64 S 28.89,41.3 29.04,39.43 C 29.04,39.4 29.07,39.36 29.1,39.36 H 29.78 C 32.13,39.46 35.22,39.82 36.43,40.49 C 36.58,40.56 36.65,40.7 36.65,40.85 V 41.45 C 36.65,41.48 36.61,41.52 36.58,41.52 C 36.08,41.62 35.72,42.08 35.76,42.62 C 35.79,43.14 36.26,43.6 36.79,43.6 C 37.36,43.6 37.96,43.18 38,42.58 V 40.95 C 38,40.56 37.79,40 37.29,39.68 C 36.47,39.22 33.59,37.81 29.14,37.63 C 29.1,37.63 29,37.6 29,37.56 V 35.48 A 2.7,2.7 0 0,0 30.7,33.08 A 3.94,3.94 0 0,0 33.3,32 H 36.5 C 37.47,32 37.9,31.2 38,30.57 V 23.16 C 37.96,21.78 37.18,21.46 36.83,21.36 Z M 21,29.06 L 19.1,30.15 C 19.06,30.18 19,30.15 19,30.11 V 23.16 C 19,22.87 19.06,22.52 19.2,22.56 L 20.74,22.98 C 20.78,22.98 21,23.05 21,23.08 V 29.05 Z M 36.93,30.15 L 35,29.05 V 23.12 C 35,23.09 35.22,23.05 35.26,23.02 L 36.82,22.59 C 37,22.56 37,22.91 37,23.19 V 30.15 S 36.96,30.18 36.93,30.15 Z" fill="rgb(177, 228, 32)"/>
</svg>
