<?xml version="1.0" encoding="UTF-8"?>
<!-- generated by Finnhub -->
<svg viewBox="0 0 55.5 55.5" xmlns="http://www.w3.org/2000/svg">
<path d="M 0,0 H 55.5 V 55.5 H 0 Z" fill="rgb(239, 242, 248)"/>
<path d="M 35.77,37.845 V 38.58 H 36.41 C 36.55,38.58 36.77,39.12 36.86,39.39 V 38.39 C 36.86,38.19 36.5,37.89 36.32,37.86 H 35.78 Z M 32.7,39.4 V 40.3 H 33.24 C 33.39,40.3 34.18,42.05 34.51,42.83 V 41.93 C 34.39,41.63 34.08,40.77 33.79,40.12 A 1.15,1.15 0 0,0 32.7,39.39 Z M 30.17,43.01 H 29.63 V 42.65 C 29.63,42.43 30.11,42.32 30.35,42.29 V 41.74 C 30.35,41.53 29.81,41.17 29.54,41.02 L 29.99,40.3 C 30.42,40.73 30.71,41.3 30.71,41.56 V 42.65 C 30.71,42.79 30.17,43.01 30.17,43.01 Z M 28.72,42.38 V 41.48 C 28.72,41.02 27.82,40.48 27.46,40.48 C 26.91,40.48 26.66,41.03 26.7,41.44 C 26.74,41.79 27,42.02 27,42.02 L 27.37,41.56 C 27.1,41.38 27.1,41.02 27.46,41.02 C 27.75,41.02 28.18,41.38 28.18,41.65 V 42.47 H 26.82 L 26.46,43.01 H 28.18 C 28.45,43.01 28.72,42.65 28.72,42.38 Z M 21.04,38.13 L 20.4,38.49 C 20.55,38.78 20.59,39.09 20.59,39.21 C 20.44,39.71 19.92,40.27 19.69,40.48 C 20.31,40.38 20.95,39.76 21.13,39.21 C 21.27,38.78 21.13,38.31 21.03,38.13 Z M 22.45,36.58 L 24.61,34.48 L 24.72,34.58 L 22.57,36.68 L 22.45,36.58 Z M 22.93,36.58 L 24.6,35 L 24.71,35.1 L 23.03,36.7 L 22.92,36.6 Z M 29.47,32.3 L 33.37,34.2 V 35.19 H 33.21 V 34.65 L 29.54,33 V 33.68 H 29.38 V 32.98 L 27.94,33.24 V 33.68 H 27.78 V 32.6 L 29.47,32.3 Z M 27.94,33.08 L 29.38,32.82 V 32.46 L 27.94,32.72 V 33.08 Z M 29.54,32.49 V 32.83 L 33.21,34.49 V 34.29 L 29.54,32.49 Z"/>
<path d="M 26.169999999999998,32.905 V 34.03 H 26.02 V 33.13 L 24.74,33.58 V 36.63 H 24.58 V 33.48 L 26.18,32.92 Z M 29.45,20.72 L 30.01,22.02 L 29.86,22.07 L 29.3,20.77 L 29.45,20.72 Z M 28.29,28.42 L 28.39,28.53 L 27.54,29.11 L 28.26,29.48 L 29.98,28.84 L 30.94,28.48 L 31,28.61 L 30.24,28.91 L 31.34,29.87 L 31.24,29.97 L 30.08,28.97 H 30.05 L 28.25,29.64 L 27.25,29.14 L 28.29,28.42 Z"/>
<path d="M 29.91,26.185 L 30.8,27.49 L 30.15,27.84 L 31.03,28.56 L 30.92,28.67 L 30,27.91 L 28.34,28.55 L 27.38,28.24 V 27.79 L 28.44,26.83 L 28.55,26.93 L 27.54,27.85 V 28.13 L 28.34,28.4 L 29.98,27.76 L 30.58,27.44 L 29.78,26.27 L 29.92,26.2 Z"/>
<path d="M 29.75,24.735 L 30.46,25.58 L 29.91,26.29 L 28.49,26.97 L 27.5,26.24 L 28.52,25.32 L 28.63,25.42 L 27.73,26.23 L 28.51,26.8 L 29.81,26.18 L 30.27,25.58 L 29.63,24.84 L 29.76,24.74 Z"/>
<path d="M 29.59,23.435 L 30.28,24.37 L 29.74,24.85 L 28.57,25.45 L 27.74,24.87 L 28.6,24.02 L 28.72,24.12 L 27.98,24.85 L 28.58,25.28 L 29.65,24.73 L 30.07,24.35 L 29.47,23.53 L 29.6,23.45 Z M 28.83,21.24 L 29.97,22.12 L 29.43,22.6 L 29.32,22.5 L 29.74,22.12 L 28.81,21.42 L 27.46,22.09 V 22.77 H 27.3 V 22.01 L 28.83,21.24 Z"/>
<path d="M 29.049999999999997,18.985 L 29.77,19.48 V 19.52 L 29.85,20.32 C 30.03,22.42 30.36,26.14 31.37,29.89 A 30.34,30.34 0 0,0 33.11,34.76 L 33.12,34.8 L 32.98,34.86 L 32.96,34.82 L 31.19,31.12 L 30.81,33.97 H 30.66 L 30.1,30.21 L 29.23,19.95 L 29.05,20.06 L 28.34,30.2 L 28.9,33.52 L 28.74,33.54 L 28.24,30.57 L 27.38,33.62 L 27.22,33.6 V 29.87 L 26.98,30.44 V 33.6 H 26.82 V 30.4 L 27.22,29.47 L 27.25,29.19 A 645.85,645.85 0 0,1 28.23,19.77 L 28.26,19.51 L 28.34,19.52 H 28.26 V 19.48 L 29.06,19 Z M 28.46,19.53 L 29.06,19.18 L 29.56,19.52 L 29.25,19.75 L 28.98,19.93 L 28.47,19.53 Z M 28.89,20.06 L 28.4,19.66 L 28.39,19.78 A 1501.28,1501.28 0 0,0 27.41,29.18 L 28.19,30.02 L 28.89,20.06 Z M 28.17,30.22 L 27.39,29.38 L 27.38,29.48 V 33.02 L 28.18,30.22 Z M 29.37,19.84 L 30.19,29.46 L 31.09,30.66 L 31.21,29.91 C 30.21,26.15 29.87,22.42 29.69,20.34 L 29.63,19.66 L 29.38,19.84 Z M 31.32,30.29 L 31.23,30.85 L 31.99,32.44 C 31.74,31.71 31.51,30.98 31.32,30.29 Z M 31.07,30.87 L 30.22,29.75 L 30.25,30.2 L 30.73,33.39 L 31.07,30.87 Z" fill-rule="evenodd"/>
<path d="M 28.81,22.035 L 27.3,22.77 L 28.02,23.35 L 29.54,22.55 L 28.82,22.05 Z"/>
<path d="M 28.169999999999998,20.585 L 28.9,21.11 L 29.86,20.53 L 28.98,20.03 L 28.18,20.6 Z M 28.44,20.6 L 28.9,20.93 L 29.56,20.53 L 28.99,20.2 L 28.44,20.6 Z" fill-rule="evenodd"/>
<path d="M 29.389999999999997,22.445 L 30.13,23.22 L 28.63,24.17 L 27.9,23.25 L 29.4,22.46 Z M 28.14,23.3 L 28.68,23.97 L 29.9,23.19 L 29.36,22.65 L 28.14,23.3 Z"/>
<path d="M 24.65,34.235 L 26.66,35.12 L 28.66,35.76 H 29.62 C 30.15,35.72 31.22,35.55 31.29,35.55 L 33.37,35.33 V 34.9 L 29.54,33.45 L 26.9,33.6 L 24.66,34.25 Z M 28.74,35.19 L 27.14,34.75 V 33.96 L 28.74,33.89 V 35.19 Z M 29.7,35.26 V 33.89 L 31.3,34.54 V 35.19 L 29.7,35.26 Z M 32.57,34.97 L 31.77,34.75 V 35.05 H 32.57 V 34.97 Z" fill-rule="evenodd"/>
<path d="M 26.65,34.735 H 27.14 V 36.63 H 26.66 V 34.75 Z M 31.3,34.9 H 31.77 V 36.63 H 31.29 V 34.9 Z M 33.05,34.9 H 33.37 V 36.63 H 33.05 V 34.9 Z M 28.74,34.9 H 29.7 V 36.63 H 28.74 V 34.9 Z M 26.13,33.5 L 24.69,34.03 L 24.63,33.89 L 26.07,33.37 L 26.13,33.51 Z M 23.39,36.63 L 25.7,34.53 L 26.18,34.68 L 24.66,36.05 V 36.63 H 23.4 Z"/>
<path d="M 28.169999999999998,38.535 A 10.19,10.19 0 1,0 28.18,18.17 A 10.19,10.19 0 0,0 28.18,38.55 Z M 28.18,38.85 A 10.49,10.49 0 1,0 28.18,17.87 A 10.49,10.49 0 0,0 28.18,38.85 Z" fill-rule="evenodd"/>
<path d="M 27.99,44.485 A 16.5,16.5 0 1,0 28,11.5 A 16.5,16.5 0 0,0 28,44.5 Z M 28,45 A 17,17 0 1,0 28,11 A 17,17 0 0,0 28,45 Z" fill-rule="evenodd"/>
<path d="M 13.61,24.915 L 16.27,27.09 L 16.37,26.54 C 16.42,26.29 16.44,26.11 16.43,26 A 0.9,0.9 0 0,0 16.21,25.52 A 1.3,1.3 0 0,0 15.65,25.17 L 15.67,25.09 L 16.79,25.39 L 16.27,28 L 13.62,25.83 L 13.53,26.26 L 13.48,26.58 A 0.73,0.73 0 0,0 13.74,27.14 C 13.84,27.21 13.94,27.27 14.09,27.33 L 14.08,27.41 L 13.17,27.18 L 13.62,24.93 Z M 17.4,23.6 L 17.48,23.62 L 16.92,25.14 L 16.84,25.11 L 16.87,25.01 A 0.4,0.4 0 0,0 16.9,24.8 A 0.22,0.22 0 0,0 16.82,24.67 A 1.06,1.06 0 0,0 16.54,24.54 L 14.51,23.79 A 1.15,1.15 0 0,0 14.21,23.7 C 14.16,23.7 14.11,23.73 14.07,23.76 A 0.38,0.38 0 0,0 13.95,23.94 L 13.91,24.04 L 13.83,24.01 L 14.39,22.48 L 14.48,22.51 L 14.44,22.61 A 0.4,0.4 0 0,0 14.41,22.83 C 14.42,22.88 14.45,22.93 14.49,22.96 C 14.52,22.99 14.61,23.03 14.77,23.09 L 16.8,23.84 C 16.96,23.9 17.06,23.93 17.1,23.93 C 17.15,23.93 17.2,23.9 17.25,23.87 A 0.4,0.4 0 0,0 17.36,23.69 L 17.4,23.59 Z M 27.24,16.44 V 16.53 L 25.63,16.66 V 16.56 H 25.73 A 0.4,0.4 0 0,0 25.93,16.49 A 0.22,0.22 0 0,0 26.02,16.37 V 16.07 L 25.84,13.9 A 1.15,1.15 0 0,0 25.79,13.59 A 0.23,0.23 0 0,0 25.69,13.49 A 0.38,0.38 0 0,0 25.47,13.46 H 25.37 V 13.38 L 26.98,13.24 V 13.34 H 26.88 A 0.4,0.4 0 0,0 26.68,13.41 A 0.23,0.23 0 0,0 26.58,13.54 V 13.84 L 26.76,16 C 26.78,16.17 26.79,16.27 26.81,16.31 C 26.84,16.35 26.87,16.39 26.93,16.41 A 0.4,0.4 0 0,0 27.13,16.45 L 27.23,16.44 Z M 15.38,20.47 C 15.59,20.04 15.91,19.77 16.35,19.67 C 16.78,19.57 17.21,19.63 17.65,19.87 C 18.02,20.07 18.29,20.35 18.47,20.7 C 18.7,21.16 18.69,21.63 18.43,22.1 C 18.17,22.58 17.79,22.85 17.29,22.91 C 16.89,22.97 16.5,22.89 16.12,22.67 A 1.76,1.76 0 0,1 15.25,21.68 C 15.11,21.25 15.15,20.85 15.38,20.48 Z M 15.53,20.52 C 15.4,20.76 15.43,21.02 15.63,21.3 C 15.81,21.52 16.1,21.75 16.53,21.98 C 17.02,22.25 17.43,22.38 17.76,22.35 A 0.6,0.6 0 0,0 18.26,22.02 C 18.33,21.89 18.36,21.76 18.34,21.62 A 1.02,1.02 0 0,0 18.04,21.12 A 3.08,3.08 0 0,0 17.3,20.59 C 16.92,20.38 16.6,20.25 16.38,20.21 A 0.97,0.97 0 0,0 15.84,20.24 A 0.62,0.62 0 0,0 15.53,20.52 Z M 23.14,14 C 23.59,13.86 24.01,13.9 24.38,14.14 C 24.76,14.39 25.01,14.74 25.14,15.22 C 25.24,15.63 25.24,16.02 25.1,16.39 C 24.93,16.88 24.58,17.19 24.06,17.33 C 23.53,17.47 23.08,17.38 22.69,17.07 C 22.38,16.82 22.16,16.47 22.05,16.05 C 21.92,15.57 21.96,15.14 22.17,14.74 C 22.37,14.34 22.7,14.09 23.13,14 Z M 23.2,14.14 C 22.94,14.21 22.77,14.42 22.72,14.76 C 22.67,15.03 22.71,15.4 22.83,15.86 C 22.98,16.42 23.17,16.8 23.42,17.01 C 23.59,17.17 23.78,17.21 24,17.15 A 0.6,0.6 0 0,0 24.34,16.94 C 24.44,16.8 24.49,16.61 24.5,16.37 C 24.52,16.13 24.47,15.83 24.38,15.47 A 3.28,3.28 0 0,0 24.01,14.55 A 0.97,0.97 0 0,0 23.61,14.17 A 0.62,0.62 0 0,0 23.21,14.14 Z M 17.67,17.64 L 20.17,18.04 L 19.17,17.03 C 19.03,16.89 18.91,16.81 18.83,16.8 C 18.71,16.78 18.59,16.83 18.48,16.95 L 18.41,16.89 L 19.11,16.19 L 19.18,16.25 A 0.7,0.7 0 0,0 19.05,16.48 C 19.04,16.53 19.05,16.58 19.08,16.65 C 19.1,16.71 19.18,16.8 19.28,16.91 L 21.23,18.86 L 21.18,18.92 L 17.78,18.41 L 19.28,19.9 C 19.41,20.04 19.53,20.1 19.63,20.09 C 19.73,20.08 19.83,20.04 19.9,19.97 L 19.95,19.92 L 20.01,19.98 L 19.25,20.74 L 19.19,20.67 C 19.3,20.56 19.36,20.45 19.35,20.35 C 19.35,20.25 19.28,20.14 19.15,20.02 L 17.5,18.36 L 17.4,18.34 A 0.61,0.61 0 0,0 17.15,18.34 A 0.47,0.47 0 0,0 16.97,18.46 L 16.91,18.39 L 17.67,17.64 Z M 30.61,15.5 L 30.41,16.7 L 27.69,16.5 L 27.7,16.4 H 27.8 C 27.9,16.41 27.96,16.4 28.02,16.37 A 0.23,0.23 0 0,0 28.12,16.26 C 28.14,16.22 28.16,16.11 28.17,15.94 L 28.34,13.68 V 13.35 A 0.24,0.24 0 0,0 28.24,13.23 A 0.36,0.36 0 0,0 28.04,13.17 L 27.94,13.16 L 27.95,13.06 L 29.58,13.19 V 13.29 L 29.44,13.27 C 29.35,13.27 29.28,13.27 29.22,13.31 A 0.24,0.24 0 0,0 29.12,13.42 C 29.1,13.46 29.09,13.57 29.07,13.74 L 28.91,15.92 V 16.26 C 28.93,16.31 28.96,16.35 29.01,16.38 C 29.05,16.39 29.14,16.41 29.28,16.42 L 29.53,16.44 C 29.7,16.45 29.83,16.43 29.95,16.37 A 0.8,0.8 0 0,0 30.25,16.09 C 30.35,15.96 30.43,15.76 30.52,15.49 L 30.62,15.5 Z M 35.24,16.64 L 36.07,17.12 L 36.02,17.21 A 0.5,0.5 0 0,0 35.75,17.17 C 35.67,17.19 35.54,17.25 35.35,17.37 C 35.18,17.49 34.95,17.6 34.68,17.72 C 34.73,17.93 34.79,18.09 34.85,18.19 A 0.4,0.4 0 0,0 34.99,18.35 C 35.09,18.4 35.22,18.39 35.39,18.29 L 35.44,18.39 C 35.19,18.56 34.98,18.65 34.8,18.69 A 0.6,0.6 0 0,1 34.41,18.6 A 0.76,0.76 0 0,1 34.15,18.36 C 34.09,18.26 34.03,18.1 33.97,17.89 C 33.73,17.91 33.52,17.91 33.35,17.89 C 33.17,17.85 33,17.79 32.84,17.69 A 0.95,0.95 0 0,1 32.36,17.12 A 0.83,0.83 0 0,1 32.44,16.47 C 32.57,16.25 32.74,16.1 32.98,16.03 C 33.22,15.95 33.51,15.93 33.85,15.97 A 2.04,2.04 0 0,1 34.05,15.37 A 0.92,0.92 0 0,1 34.61,14.92 A 0.89,0.89 0 0,1 35.32,15.02 C 35.52,15.13 35.63,15.27 35.68,15.44 C 35.73,15.6 35.72,15.75 35.64,15.89 A 0.67,0.67 0 0,1 35.23,16.21 C 35.05,16.26 34.81,16.27 34.51,16.22 C 34.49,16.6 34.54,17.04 34.63,17.54 C 34.97,17.41 35.19,17.26 35.28,17.09 A 0.25,0.25 0 0,0 35.31,16.9 A 0.3,0.3 0 0,0 35.19,16.73 L 35.24,16.64 Z M 34.52,16.05 C 34.69,16.08 34.82,16.07 34.9,16.04 C 34.99,16 35.06,15.94 35.11,15.84 A 0.8,0.8 0 0,0 35.23,15.36 C 35.22,15.26 35.18,15.19 35.1,15.14 A 0.24,0.24 0 0,0 34.9,15.13 A 0.38,0.38 0 0,0 34.7,15.31 L 34.6,15.55 L 34.52,16.05 Z M 33.82,16.14 A 0.72,0.72 0 0,0 33.51,16.17 A 0.5,0.5 0 0,0 33.26,16.38 A 0.99,0.99 0 0,0 33.13,16.85 C 33.13,17.03 33.15,17.18 33.21,17.32 A 0.6,0.6 0 0,0 33.46,17.61 C 33.51,17.64 33.57,17.66 33.65,17.67 C 33.73,17.68 33.82,17.69 33.92,17.68 A 4.9,4.9 0 0,1 33.82,16.14 Z M 40.66,20.21 L 39.73,20.93 L 39.68,20.87 C 39.87,20.59 39.97,20.32 39.98,20.06 C 39.98,19.8 39.92,19.57 39.77,19.38 A 0.81,0.81 0 0,0 39.25,19.06 C 39.05,19.02 38.83,19.06 38.59,19.16 A 3.13,3.13 0 0,0 37.32,20.16 C 37.18,20.36 37.1,20.56 37.11,20.74 C 37.11,20.94 37.18,21.12 37.31,21.28 L 37.47,21.45 L 37.67,21.59 L 38.23,21.17 C 38.33,21.09 38.39,21.03 38.41,20.99 A 0.24,0.24 0 0,0 38.43,20.84 A 0.36,0.36 0 0,0 38.35,20.67 L 38.3,20.61 L 38.38,20.55 L 39.29,21.73 L 39.22,21.78 A 0.6,0.6 0 0,0 39.03,21.63 A 0.24,0.24 0 0,0 38.87,21.63 C 38.84,21.63 38.77,21.67 38.67,21.75 L 38.13,22.17 A 2.8,2.8 0 0,1 36.78,20.69 C 36.73,20.49 36.72,20.29 36.73,20.08 A 1.61,1.61 0 0,1 37.4,18.93 C 37.8,18.63 38.23,18.49 38.7,18.53 C 39.18,18.58 39.56,18.8 39.86,19.18 C 39.96,19.3 40.03,19.42 40.09,19.53 C 40.12,19.59 40.15,19.7 40.19,19.86 C 40.24,20.01 40.27,20.1 40.29,20.12 C 40.31,20.16 40.35,20.18 40.39,20.19 C 40.44,20.19 40.51,20.18 40.61,20.15 L 40.66,20.21 Z M 39.7,23.81 L 39.28,22.82 H 38.94 C 38.82,22.83 38.74,22.85 38.67,22.87 C 38.59,22.91 38.54,22.97 38.53,23.05 C 38.52,23.09 38.54,23.19 38.59,23.35 L 38.51,23.38 L 38.11,22.45 L 38.2,22.41 C 38.26,22.51 38.33,22.57 38.43,22.61 C 38.53,22.64 38.72,22.65 38.99,22.65 H 41.79 L 41.81,22.69 L 39.78,24.73 C 39.59,24.92 39.48,25.06 39.44,25.15 A 0.34,0.34 0 0,0 39.44,25.38 L 39.37,25.41 L 38.8,24.06 L 38.88,24.03 L 38.9,24.08 C 38.95,24.19 39,24.26 39.05,24.29 C 39.08,24.31 39.12,24.31 39.17,24.29 A 0.31,0.31 0 0,0 39.24,24.25 L 39.38,24.12 L 39.69,23.82 Z M 39.83,23.67 L 40.68,22.82 H 39.47 L 39.83,23.67 Z M 43.09,26.94 L 41.99,27.18 L 41.97,27.08 C 42.24,26.98 42.44,26.84 42.57,26.64 C 42.71,26.44 42.77,26.24 42.72,26.04 A 0.5,0.5 0 0,0 42.52,25.71 A 0.43,0.43 0 0,0 42,25.72 A 0.82,0.82 0 0,0 41.81,25.97 L 41.61,26.51 A 2.2,2.2 0 0,1 41.21,27.33 A 1,1 0 0,1 40.67,27.63 C 40.39,27.68 40.13,27.63 39.89,27.48 A 1.02,1.02 0 0,1 39.45,26.78 L 39.42,26.51 L 39.48,26.17 A 0.45,0.45 0 0,0 39.5,25.98 A 0.21,0.21 0 0,0 39.42,25.88 A 0.35,0.35 0 0,0 39.25,25.8 L 39.24,25.71 L 40.49,25.47 L 40.51,25.55 C 40.17,25.69 39.92,25.86 39.77,26.09 A 0.86,0.86 0 0,0 39.62,26.74 C 39.65,26.91 39.72,27.03 39.84,27.11 A 0.49,0.49 0 0,0 40.44,27.09 A 0.69,0.69 0 0,0 40.61,26.87 C 40.66,26.78 40.72,26.63 40.79,26.41 C 40.89,26.11 40.98,25.89 41.06,25.75 C 41.14,25.61 41.24,25.49 41.36,25.4 A 0.97,0.97 0 0,1 41.76,25.22 C 42.03,25.17 42.26,25.22 42.49,25.35 A 0.9,0.9 0 0,1 42.9,25.97 A 1.05,1.05 0 0,1 42.86,26.53 A 0.58,0.58 0 0,0 42.82,26.76 C 42.82,26.8 42.85,26.83 42.88,26.84 C 42.91,26.86 42.98,26.87 43.08,26.87 L 43.09,26.94 Z M 18.69,36.59 L 18.05,36.86 V 36.59 H 17.87 C 17.37,37.53 16.82,37.71 16.61,37.68 C 16.81,37.31 17.28,36.55 17.42,36.41 C 17.56,36.26 17.78,36.17 17.87,36.14 V 35.78 L 18.69,35.6 V 36.59 Z M 19.86,36.95 L 19.05,37.22 C 19.11,37.32 19.23,37.57 19.23,37.86 C 19.23,38.15 19.05,38.4 18.96,38.49 H 18.41 C 18.38,38.43 18.29,38.31 18.14,38.31 C 18,38.31 17.6,38.61 17.42,38.76 C 17.71,38.91 18.44,38.82 18.78,38.76 C 18.48,39.12 18.48,39.46 18.51,39.57 A 6.2,6.2 0 0,0 19.86,37.77 V 36.95 Z M 24.02,39.66 L 23.3,40.3 H 23.44 L 23.48,41.74 C 23.48,42.11 23.7,42.47 24.2,42.47 C 24.91,42.47 25.67,41.84 25.82,41.11 C 25.93,40.51 25.32,39.97 25.02,40.11 C 24.72,40.26 24.53,40.6 24.47,40.75 C 24.74,40.65 25.37,40.84 25.2,41.38 C 25.02,41.93 24.47,42.11 24.11,41.93 C 23.82,41.78 23.93,41.26 24.02,41.03 V 39.66 Z M 34.15,38.76 V 39.57 S 34.73,39.51 34.9,39.76 L 35.78,41.11 V 40.21 C 35.72,40.11 35.51,39.71 35.14,39.21 C 34.78,38.71 34.33,38.73 34.14,38.76 Z M 37.5,36.86 H 38.58 C 38.58,36.77 38.67,36.63 38.31,36.41 S 37.91,35.84 37.95,35.69 C 38.67,35.9 38.85,36.56 38.85,36.86 H 39.57 L 39.85,37.49 L 38.76,38.85 L 38.67,38.58 C 38.6,38.36 38.47,38.18 38.6,37.95 C 38.73,37.71 39,37.45 39.12,37.22 H 38.49 C 38.28,37.22 38.22,37.4 37.95,37.4 H 37.49 C 37.04,37.4 36.95,36.68 37.13,36.68 C 37.28,36.68 37.43,36.8 37.49,36.86 Z"/>
</svg>
