<?xml version="1.0" encoding="UTF-8"?>
<!-- generated by Finnhub -->
<svg viewBox="0 0 55.5 55.5" xmlns="http://www.w3.org/2000/svg">
<path d="M 0,0 H 55.5 V 55.5 H 0 Z" fill="rgb(239, 242, 248)"/>
<path d="M 10.99,20.985 V 31.6 C 20.75,34.55 24.45,44.26 25,45 C 24.45,26.74 15.44,21.4 11,21 Z" fill="rgb(23, 96, 170)"/>
<path d="M 44.99,20.985 V 31.6 C 35.25,34.55 31.55,44.26 31,45 C 31.55,26.74 40.56,21.4 45,21 Z" fill="rgb(43, 48, 104)"/>
<path d="M 19.99,19.985 C 20.57,20.58 28,28.66 28,44 C 28,28.66 35.4,20.58 36,20 C 34.81,17.66 30.22,13.56 28,12 C 25.86,13.56 21.14,17.66 20,20 Z" fill="rgb(232, 91, 37)"/>
</svg>
