<?xml version="1.0" encoding="UTF-8"?>
<!-- generated by Finnhub -->
<svg viewBox="0 0 55.5 55.5" xmlns="http://www.w3.org/2000/svg">
<path d="M 0,0 H 55.5 V 55.5 H 0 Z" fill="rgb(9, 191, 219)"/>
<path d="M 44.18,14.985 H 44.21 C 44.09,15.85 43.89,16.7 43.62,17.51 A 11.12,11.12 0 0,1 42.02,20.74 A 6.25,6.25 0 0,1 39.99,22.52 A 7.8,7.8 0 0,1 36.21,23.42 C 36.74,21.92 37.44,20.47 38.41,19.2 A 7.02,7.02 0 0,1 40.65,17.2 C 40.38,17.3 40.13,17.43 39.89,17.57 C 39.13,18.04 38.49,18.68 37.93,19.38 C 37.19,20.3 36.59,21.33 36.09,22.41 C 36.15,21.64 36.3,20.88 36.57,20.16 C 36.9,19.26 37.43,18.42 38.12,17.75 A 9.06,9.06 0 0,1 40.74,16.03 C 41.84,15.53 43,15.2 44.19,15 Z M 31.57,15.56 C 32.58,15.96 33.54,16.51 34.4,17.19 A 5.99,5.99 0 0,1 36.37,19.67 C 36.39,19.73 36.44,19.79 36.41,19.86 A 9.3,9.3 0 0,0 35.91,21.85 A 16.13,16.13 0 0,0 34.3,18.88 C 34,18.48 33.68,18.08 33.28,17.78 A 25.76,25.76 0 0,1 35.28,21.04 C 35.51,21.54 35.74,22.05 35.84,22.6 C 35.86,22.84 35.84,23.08 35.84,23.32 A 5.71,5.71 0 0,1 32.97,21.4 A 7.07,7.07 0 0,1 31.75,18.4 C 31.58,17.47 31.52,16.51 31.57,15.56 Z M 6.8,23.02 L 12.82,23 A 3.1,3.1 0 0,1 14.6,23.48 C 14.95,23.73 15.18,24.14 15.2,24.56 C 15.24,25.14 15.15,25.78 14.74,26.21 C 12.71,28.71 10.34,31.5 8.31,34 H 14.76 C 14.96,34.76 15.16,35.2 15.36,35.96 L 10.76,35.97 C 10.4,35.99 10.04,35.97 9.68,35.98 C 9.23,36 8.78,35.98 8.35,36 C 8.09,36 7.85,36.01 7.59,35.97 A 1.83,1.83 0 0,1 6.37,35.39 C 6.02,34.99 5.94,34.4 6.04,33.89 C 6.14,33.32 6.65,32.83 6.99,32.37 C 7.47,31.74 7.98,31.13 8.48,30.51 C 9.89,28.77 11.61,26.75 13.02,25 H 8.48 C 7.96,24.76 7.58,24.59 7.3,24.11 C 7.1,23.77 6.92,23.41 6.8,23.02 Z M 41.33,24.78 A 5.84,5.84 0 0,1 48,25.37 V 24.16 C 48.72,24.31 49.43,24.63 49.96,25.16 L 50,36 C 49.48,35.93 49.04,35.6 48.67,35.24 A 5.6,5.6 0 0,1 48.03,34.54 A 5.81,5.81 0 0,1 38.48,30.71 C 38.35,29.52 38.53,28.3 39.05,27.23 A 5.72,5.72 0 0,1 41.33,24.78 Z M 43.66,26.05 C 43.08,26.14 42.52,26.37 42.05,26.73 A 3.77,3.77 0 0,0 40.67,29.06 A 4.67,4.67 0 0,0 41.1,32.08 C 41.5,32.82 42.16,33.41 42.94,33.69 C 44.08,34.11 45.43,33.96 46.41,33.23 C 46.92,32.86 47.31,32.33 47.56,31.75 A 4.68,4.68 0 0,0 47.34,27.73 A 3.48,3.48 0 0,0 46.02,26.45 A 3.77,3.77 0 0,0 43.66,26.05 Z" fill="rgb(254, 254, 253)"/>
<path d="M 17.259999999999998,24.935 C 18.27,24.29 19.48,23.96 20.67,24 A 5.31,5.31 0 0,1 25.14,26.37 C 25.42,26.77 25.64,27.19 25.82,27.63 L 18.19,31.98 C 18.04,31.18 18.14,30.26 18.67,29.61 L 23,27.14 C 22.69,26.77 22.31,26.44 21.86,26.26 A 3.54,3.54 0 0,0 20.45,26.02 A 3.6,3.6 0 0,0 16.85,29.22 A 4.8,4.8 0 0,0 17.12,31.74 A 3.53,3.53 0 0,0 19.88,33.94 C 20.48,34.02 21.09,33.98 21.68,33.84 A 3,3 0 0,0 23.33,32.77 C 23.87,32.08 24.13,31.22 24.29,30.37 A 2.45,2.45 0 0,1 25.92,32 A 5.07,5.07 0 0,1 24.31,34.5 A 5.9,5.9 0 0,1 20.98,35.98 A 5.89,5.89 0 0,1 15.18,32.65 A 6.4,6.4 0 0,1 15.13,27.47 A 5.77,5.77 0 0,1 17.27,24.95 Z M 31.3,24.01 L 35,24 C 35.25,24 35.46,24.2 35.6,24.4 C 35.7,24.57 35.79,24.77 35.72,24.97 L 32.32,34.31 C 32.2,34.61 32.11,34.93 31.96,35.22 C 31.82,35.5 31.61,35.75 31.32,35.87 C 30.99,36.01 30.62,36.01 30.28,35.99 A 1.27,1.27 0 0,1 29.4,35.63 C 29.08,35.3 28.94,34.83 28.78,34.4 L 24.95,24.04 C 25.56,24.04 26.18,24.14 26.74,24.41 C 27.09,24.57 27.41,24.82 27.61,25.16 C 27.71,25.31 27.75,25.47 27.81,25.63 L 30.55,33.1 C 31.39,30.68 32.23,28.42 33.07,26 H 32.64 C 31.94,25.67 31.49,24.77 31.3,24.01 Z M 36,24 C 36.74,24.05 37.53,24.4 38,25 V 36 A 2.38,2.38 0 0,1 37.03,35.67 A 2.12,2.12 0 0,1 36.08,34.71 C 36.01,34.56 36.01,34.39 36,34.24 V 24 Z" fill="rgb(254, 254, 253)"/>
</svg>
