<?xml version="1.0" encoding="UTF-8"?>
<!-- generated by Finnhub -->
<svg viewBox="0 0 55.5 55.5" xmlns="http://www.w3.org/2000/svg">
<path d="M 0,0 H 55.5 V 55.5 H 0 Z" fill="rgb(239, 242, 248)"/>
<path d="M 9.94,22.415 H 4 V 22 H 10.53 V 22.33 L 4.62,31.57 H 11 V 32 H 4.03 V 31.67 L 9.95,22.43 Z M 13,29.87 V 24 H 13.36 V 29.87 C 13.36,31.01 14.5,31.57 15.5,31.57 C 16.5,31.57 17.64,31.01 17.64,29.87 V 24 H 18 V 33.67 C 18,35.07 16.84,36 15.5,36 A 2.47,2.47 0 0,1 13,33.46 H 13.36 C 13.36,34.68 14.29,35.58 15.5,35.58 C 16.61,35.58 17.64,34.86 17.64,33.68 V 31 C 17.28,31.54 16.61,31.98 15.5,31.98 C 14.26,31.98 13,31.23 13,29.87 Z" fill="rgb(1, 105, 178)"/>
<path d="M 51.550000000000004,27.985 A 3.56,3.56 0 1,1 44.44,28 A 3.56,3.56 0 0,1 51.56,28 Z M 51.58,29.79 A 4,4 0 1,1 52,28 V 32 H 51.58 V 29.79 Z M 30.09,31.56 C 31.71,31.56 33.09,30.52 33.55,29.09 L 34,29.17 A 4.08,4.08 0 0,1 30.09,32 A 4.05,4.05 0 0,1 26,28 C 26,25.8 27.83,24 30.09,24 C 31.69,24 33.06,24.89 33.74,26.19 L 26.64,29.11 A 3.63,3.63 0 0,0 30.09,31.56 Z M 26.52,28.67 A 3.6,3.6 0 0,1 30.09,24.44 C 31.33,24.44 32.43,25.05 33.09,25.98 L 26.52,28.68 Z" fill="rgb(1, 105, 178)" fill-rule="evenodd"/>
<path d="M 35.89,25.185 C 35.56,25.64 35.44,26.17 35.44,26.53 V 32 H 35 V 26.53 C 35,26.11 35.13,25.48 35.53,24.96 C 35.93,24.42 36.62,24 37.67,24 H 39 V 24.42 H 37.67 C 36.77,24.42 36.22,24.77 35.89,25.2 Z M 18,22 L 21.86,32 H 22.26 L 26,22 H 25.54 L 22.06,31.31 L 18.46,22 H 18 Z" fill="rgb(1, 105, 178)"/>
<path d="M 41.42,26.814999999999998 V 29.5 C 41.43,33.1 38.48,35.62 35.05,36 L 35,35.56 C 38.2,35.2 41,32.86 41,29.5 V 26.83 C 41,22.86 44.1,20 48,20 V 20.44 C 44.34,20.44 41.43,23.1 41.43,26.84 Z" fill="rgb(132, 193, 51)"/>
</svg>
