<?xml version="1.0" encoding="UTF-8"?>
<!-- generated by Finnhub -->
<svg viewBox="0 0 55.5 55.5" xmlns="http://www.w3.org/2000/svg">
<path d="M 0,0 H 55.5 V 55.5 H 0 Z" fill="rgb(239, 242, 248)"/>
<path d="M 30.45,16.044999999999998 C 30.19,16.38 30.01,16.76 29.93,17.2 A 16.38,16.38 0 0,0 16.27,22.51 C 16.17,22.63 16.06,22.64 15.95,22.54 V 22.53 C 15.79,22.4 15.78,22.26 15.91,22.11 C 19.63,17.81 24.91,15.61 30.46,16.06 Z" fill="rgb(52, 166, 216)"/>
<path d="M 29.919999999999998,17.185 C 30.01,16.77 30.19,16.38 30.46,16.06 C 34.06,16.39 37.27,17.72 40.09,20.04 C 40.36,20.27 40.53,20.46 40.58,20.64 C 40.75,21.2 40.21,21.84 39.64,21.66 C 39.52,21.63 39.34,21.51 39.12,21.31 A 16.14,16.14 0 0,0 29.92,17.21 Z" fill="url(#a)"/>
<path d="M 42.57,23.285 H 42.55 C 40.9,23.88 39.17,23.57 37.37,22.37 A 0.2,0.2 0 0,1 37.29,22.27 A 0.22,0.22 0 0,1 37.29,22.14 V 22.09 C 37.33,21.97 37.4,21.93 37.51,21.98 A 5.6,5.6 0 0,0 41.43,22.23 L 41.44,22.2 A 6.27,6.27 0 0,0 40.73,18.2 C 40.67,18.1 40.69,18.02 40.81,17.97 L 40.85,17.95 A 0.2,0.2 0 0,1 41.08,18.01 C 42.44,19.73 42.94,21.48 42.58,23.26 V 23.29 Z" fill="rgb(72, 186, 227)"/>
<path d="M 10.69,30.564999999999998 A 0.03,0.03 0 0,0 10.7,30.62 A 0.03,0.03 0 0,0 10.72,30.64 H 14.54 A 0.4,0.4 0 0,1 14.87,30.8 A 0.43,0.43 0 0,1 14.94,31.17 L 14.54,32.71 A 0.4,0.4 0 0,1 14.39,32.91 A 0.39,0.39 0 0,1 14.16,33 H 7.4 A 0.4,0.4 0 0,1 7.08,32.84 A 0.41,0.41 0 0,1 7.01,32.49 C 7.19,31.79 7.31,31.32 7.39,31.08 C 7.47,30.8 7.59,30.57 7.79,30.34 A 5503,5503 0 0,1 12.21,25.33 V 25.32 H 9.34 A 0.4,0.4 0 0,1 9.02,25.15 A 0.42,0.42 0 0,1 8.95,24.8 L 9.35,23.28 A 0.37,0.37 0 0,1 9.48,23.08 A 0.36,0.36 0 0,1 9.7,23 H 15.59 A 0.4,0.4 0 0,1 15.91,23.16 A 0.41,0.41 0 0,1 15.98,23.52 L 15.68,24.69 C 15.64,24.85 15.54,25.03 15.38,25.21 L 10.68,30.58 Z" fill="rgb(25, 137, 201)"/>
<path d="M 45.14,31.044999999999998 H 43.87 A 0.08,0.08 0 0,0 43.8,31.11 L 42.87,32.95 A 0.09,0.09 0 0,1 42.79,33 H 40.62 A 0.37,0.37 0 0,1 40.44,32.95 A 0.4,0.4 0 0,1 40.3,32.8 A 0.43,0.43 0 0,1 40.28,32.4 C 40.7,31.57 42.18,28.55 44.73,23.36 C 44.84,23.12 45.03,23.06 45.29,23.04 C 46.41,22.98 47.23,22.99 47.75,23.05 C 47.91,23.07 47.99,23.2 48,23.43 C 48,24.18 47.99,27.23 47.94,32.6 C 47.94,32.7 47.9,32.8 47.83,32.88 A 0.37,0.37 0 0,1 47.56,33 H 45.66 C 45.36,33 45.21,32.84 45.21,32.53 V 31.13 C 45.21,31.09 45.19,31.06 45.15,31.06 Z M 47.74,32.7 L 47.84,23.33 A 0.1,0.1 0 0,0 47.81,23.26 A 0.09,0.09 0 0,0 47.74,23.24 H 47.56 A 0.6,0.6 0 0,0 47.45,23.24 C 47.42,23.24 47.4,23.26 47.4,23.26 L 47.3,32.76 S 47.32,32.78 47.35,32.78 A 0.6,0.6 0 0,0 47.46,32.79 H 47.66 C 47.67,32.79 47.7,32.79 47.71,32.77 A 0.1,0.1 0 0,0 47.74,32.7 Z M 44.56,28.39 C 44.72,28.04 44.91,27.63 45.16,27.17 C 45.22,27.02 45.24,26.75 45.19,26.35 C 45.19,26.31 45.18,26.31 45.16,26.35 L 43.94,28.78 C 43.91,28.83 43.93,28.86 43.98,28.86 H 45.15 C 45.19,28.86 45.21,28.83 45.21,28.79 V 28.52 C 45.21,28.48 45.2,28.47 45.16,28.47 H 44.61 C 44.55,28.47 44.54,28.44 44.56,28.39 Z M 45.17,27.56 L 44.86,28.18 C 44.83,28.24 44.85,28.27 44.91,28.27 H 45.15 C 45.19,28.27 45.21,28.25 45.21,28.2 V 27.58 C 45.21,27.51 45.2,27.51 45.17,27.56 Z M 42.81,31.83 L 42.37,32.73 C 42.36,32.78 42.37,32.8 42.4,32.8 H 42.7 C 42.74,32.8 42.76,32.77 42.78,32.72 A 87.43,87.43 0 0,1 43.57,31.1 C 43.58,31.05 43.57,31.03 43.54,31.03 H 43.24 C 43.21,31.03 43.18,31.06 43.16,31.11 A 88,88 0 0,1 42.81,31.83 Z" fill="rgb(142, 194, 30)"/>
<path d="M 31.99,24.955 A 0.04,0.04 0 0,1 31.95,25 H 29.87 C 29.83,25 29.82,24.98 29.83,24.95 L 30.27,23.28 A 0.38,0.38 0 0,1 30.63,23 H 32.05 A 0.36,0.36 0 0,1 32.34,23.14 A 0.36,0.36 0 0,1 32.4,23.46 L 32,24.96 Z" fill="rgb(72, 186, 227)"/>
<path d="M 25.29,26.884999999999998 C 25.77,26.35 26.45,25.94 27.04,26 C 27.65,26.06 28.17,26.62 28.24,27.56 C 28.4,29.56 27.04,33.3 24.44,32.98 A 1.37,1.37 0 0,1 23.28,32.06 C 23.26,32.01 23.24,32.01 23.22,32.06 C 23.11,32.4 23.14,32.98 22.68,33 H 22.01 C 21.95,33 21.89,32.97 21.84,32.94 A 0.38,0.38 0 0,1 21.65,32.51 L 23.83,24.27 A 0.36,0.36 0 0,1 24.18,24 H 25.45 C 25.97,24.02 25.93,24.36 25.82,24.75 C 25.6,25.52 25.42,26.23 25.26,26.88 C 25.25,26.93 25.26,26.94 25.3,26.9 Z M 25.78,29.73 C 25.91,29.31 26.24,28.21 25.96,27.91 C 25.64,27.55 25.12,27.91 24.94,28.24 C 24.83,28.47 24.69,28.85 24.53,29.39 C 24.41,29.82 24.08,30.92 24.35,31.22 C 24.68,31.58 25.2,31.22 25.37,30.89 A 7,7 0 0,0 25.78,29.73 Z" fill="rgb(52, 166, 216)"/>
<path d="M 37.18,31.085 C 36.3,32.41 34.86,33.26 33.3,32.93 A 1.77,1.77 0 0,1 32.1,32.03 C 31.38,30.8 31.87,29.03 32.63,27.9 C 33.52,26.59 34.96,25.74 36.51,26.07 C 37.04,26.18 37.44,26.48 37.72,26.97 C 38.44,28.2 37.95,29.97 37.19,31.1 Z M 34.26,29.35 C 34.13,29.78 33.77,30.93 34.06,31.25 C 34.38,31.62 34.92,31.25 35.1,30.91 C 35.22,30.67 35.37,30.27 35.54,29.71 C 35.67,29.27 36.02,28.13 35.74,27.81 C 35.41,27.44 34.87,27.8 34.69,28.14 C 34.57,28.38 34.42,28.78 34.26,29.34 Z" fill="rgb(72, 186, 227)"/>
<path d="M 18.639999999999997,29.415 C 18.65,29.48 18.67,29.49 18.69,29.44 L 20.42,26.18 A 0.33,0.33 0 0,1 20.72,26 H 22.1 A 0.38,0.38 0 0,1 22.49,26.39 C 22.49,26.45 22.47,26.52 22.44,26.58 A 6060.5,6060.5 0 0,1 18.54,33.5 C 18.38,33.8 18.12,34.1 17.76,34.43 C 17.01,35.09 16.07,35.02 15.18,34.97 C 14.78,34.95 14.64,34.75 14.74,34.37 L 15.04,33.23 C 15.06,33.19 15.08,33.17 15.12,33.18 C 15.71,33.28 16.4,33.24 16.65,32.68 C 16.72,32.54 16.75,32.28 16.75,31.93 C 16.73,30.02 16.73,28.19 16.74,26.45 C 16.74,26.15 16.89,26 17.19,26 H 18.27 C 18.37,26 18.47,26.04 18.54,26.11 A 0.4,0.4 0 0,1 18.65,26.39 V 29.43 Z" fill="rgb(41, 154, 212)"/>
<path d="M 31.9,26.025 L 30.21,32.72 A 0.38,0.38 0 0,1 30.09,32.92 A 0.35,0.35 0 0,1 29.87,33 H 28.5 A 0.37,0.37 0 0,1 28.33,32.96 A 0.39,0.39 0 0,1 28.19,32.84 A 0.41,0.41 0 0,1 28.13,32.49 L 29.76,26.04 L 29.78,26.01 L 29.81,26 H 31.9 A 0.03,0.03 0 0,1 31.92,26.02 V 26.04 Z" fill="rgb(72, 186, 227)"/>
<defs>
<linearGradient id="a" x1="38.77" x2="30.25" y1="19.24" y2="19.24" gradientUnits="userSpaceOnUse">
<stop stop-color="rgb(72, 186, 227)" offset="0"/>
<stop stop-color="rgb(52, 166, 216)" offset="1"/>
</linearGradient>
</defs>
</svg>
