<?xml version="1.0" encoding="UTF-8"?>
<!-- generated by Finnhub -->
<svg viewBox="0 0 55.5 55.5" xmlns="http://www.w3.org/2000/svg">
<path d="M 0,0 H 55.5 V 55.5 H 0 Z" fill="rgb(239, 242, 248)"/>
<path d="M 3.99,33.985 L 6,32 H 4 V 31 H 8 V 32 L 6,34 H 8 V 35 H 4 V 34 Z M 9.5,35 H 9.7 C 10.26,35 10.62,34.92 10.62,34.5 H 10.12 L 8.4,31 H 10 L 11,33.63 L 12,31 H 13.62 L 11.52,35.4 C 11.22,35.84 10.87,36 10.15,36 C 9.89,36 9.64,35.98 9.5,35.97 V 35 Z M 14,31 H 15.1 L 15.2,31.74 C 15.4,31.2 15.76,31 16.35,31 H 16.67 C 17.18,31 17.8,31.4 17.8,32 C 17.9,31.28 18.45,31 19.14,31 H 19.49 C 20.52,31 21,31.55 21,32.72 V 35 H 19.73 V 32.83 C 19.73,32.27 19.31,32 18.87,32 C 18.44,32 18,32.26 18,32.8 V 35 H 16.87 V 32.8 C 16.87,32.3 16.48,32 16.07,32 C 15.67,32 15.23,32.2 15.23,32.83 V 35 H 14 V 31 Z M 21.64,32.8 C 21.64,31.35 22.33,31 23.3,31 H 24.23 C 25.65,31 26,31.36 26,32.7 V 33.3 H 23 V 33.57 C 23,33.98 23.1,34 23.66,34 H 24.06 C 24.79,34 24.86,33.94 24.86,33.72 H 26 V 33.82 C 26,34.79 25.29,35 24.32,35 H 23.32 C 22.44,35 21.64,34.82 21.64,33.17 V 32.81 Z M 24.87,32.44 C 24.87,31.98 24.75,32 23.97,32 C 23.1,32 23,31.98 23,32.44 H 24.87 Z" fill="rgb(126, 184, 2)"/>
<path d="M 26.99,30.985 H 27.6 L 28.86,34.46 L 29.9,31 H 30.68 L 31.72,34.46 L 32.98,31 H 33.56 L 32.08,35 H 31.3 L 30.29,31.57 L 29.25,35 H 28.5 L 27,31 Z M 34,32.58 C 34,31.3 34.7,31 35.64,31 H 36.36 C 37.31,31 38,31.3 38,32.58 V 33.43 C 38,34.71 37.3,35 36.36,35 H 35.64 C 34.69,35 34,34.7 34,33.43 V 32.58 Z M 37.5,32.61 C 37.5,31.71 37.1,31.53 36.51,31.53 H 35.49 C 34.9,31.53 34.49,31.71 34.49,32.61 V 33.39 C 34.49,34.29 34.9,34.47 35.49,34.47 H 36.51 C 37.09,34.47 37.49,34.29 37.49,33.39 V 32.61 Z M 39,31 H 39.5 V 31.62 C 39.71,31.12 40.18,31 40.56,31 H 41.08 C 42.11,31 42.5,31.41 42.5,32.36 V 33 H 42 V 32.66 C 42,31.7 41.77,31.5 40.79,31.5 H 40.45 A 0.94,0.94 0 0,0 39.5,32.47 V 35 H 39 V 31 Z M 43.48,30 H 44.01 V 32.47 H 44.34 L 46.14,31 H 47 L 44.86,32.73 L 47.55,35 L 46.68,35.01 L 44.34,33.01 H 44.01 V 34.99 H 43.48 V 30 Z M 48,33.62 H 48.52 V 33.81 C 48.52,34.28 48.72,34.48 49.27,34.48 H 50.41 C 51.21,34.48 51.46,34.44 51.46,33.87 V 33.83 C 51.46,33.46 51.38,33.26 50.74,33.26 H 49.1 C 48.35,33.26 48.17,32.96 48.17,32.23 V 32 C 48.17,31.38 48.37,31 49.69,31 H 50.49 C 51.7,31 51.86,31.44 51.86,31.98 V 32.18 H 51.36 V 32.15 C 51.36,31.56 51.04,31.55 50.46,31.55 H 49.53 C 48.77,31.55 48.7,31.64 48.7,32.07 V 32.22 C 48.7,32.54 48.69,32.72 49.25,32.72 H 50.65 C 51.46,32.72 52,32.82 52,33.85 V 33.87 C 52,34.95 51.18,35 50.53,35 H 49.56 C 48.77,35 48,34.99 48,33.83 V 33.62 Z" fill="rgb(22, 103, 173)"/>
<path d="M 25.02,18.685 L 19.73,24 L 19.97,24.23 L 25.27,18.93 L 25.03,18.7 Z M 25.88,19.2 L 25.58,19.36 L 29.11,25.95 L 29.41,25.8 L 25.88,19.2 Z M 35.66,20.3 L 30.36,25.6 L 30.6,25.83 L 35.9,20.53 L 35.66,20.3 Z" fill="rgb(126, 184, 2)"/>
<path d="M 27.799999999999997,21.015 A 1.5,1.5 0 1,1 26.03,22.19 A 1.5,1.5 0 0,1 27.81,21.03 Z M 29.81,25.03 A 1.5,1.5 0 1,1 28.03,26.19 A 1.5,1.5 0 0,1 29.81,25.03 Z M 19.81,23.03 A 1.5,1.5 0 1,1 18.03,24.19 A 1.5,1.5 0 0,1 19.81,23.03 Z" fill="rgb(126, 184, 2)"/>
<path d="M 32.800000000000004,22.015 A 1.5,1.5 0 1,1 31.03,23.19 A 1.5,1.5 0 0,1 32.81,22.03 Z M 22.81,20.03 A 1.5,1.5 0 1,1 21.03,21.19 A 1.5,1.5 0 0,1 22.81,20.03 Z" fill="rgb(22, 103, 173)"/>
<path d="M 35.800000000000004,19.015 A 1.5,1.5 0 1,1 34.03,20.19 A 1.5,1.5 0 0,1 35.81,19.03 Z M 25.81,17.03 A 1.5,1.5 0 1,1 24.03,18.19 A 1.5,1.5 0 0,1 25.81,17.03 Z" fill="rgb(126, 184, 2)"/>
</svg>
